<svg width="600" height="600" viewBox="0 0 100 100" fill="none" xmlns="http://www.w3.org/2000/svg">
<defs>
    <style>
        @keyframes rotateburglar {
            0%{
                transform: rotate(60deg);
                transform-origin: 50px 50px;
            }
            100%{
                transform: rotate(420deg);
                transform-origin: 50px 50px;
            }
        }
        @keyframes rotatepolice {
            0%{
                transform: rotate(0deg);
                transform-origin: 50px 50px;
            }
            100%{
                transform: rotate(360deg);
                transform-origin: 50px 50px;
            }
        }
        #Police {
        animation: rotatepolice linear 30s infinite; 
        }
        #Burglar {
            animation: rotateburglar linear 30s infinite;
            }
    </style>
</defs>
    <g id="Group 1">

<g id="Police">
<path id="Vector" d="M57.5 13.825C53.2679 13.825 50.2679 13.95 50.2679 16.325C50.2679 16.525 50.4822 19.825 50.4822 19.825H64.5447L64.759 16.325C64.7322 14.475 62.1607 13.825 57.5 13.825Z" fill="#FFBC00"/>
<path id="Vector_2" d="M63.9286 18.75C62.8571 18.325 63.4196 16.775 63.4196 16.775C62.9375 17.025 61.9464 17.075 60.7143 17C61.0357 17.2 61.25 17.325 61.25 17.325C60.0179 17.75 58.5446 17.525 58.5446 17.525C58.9732 17.825 59.2411 17.975 59.2411 17.975C55.2232 18.1 52.9464 16.625 51.7946 15.525C50.8304 17.325 51.7946 18.125 51.0714 18.75C51.0714 18.75 50 18.75 50 20C50 21.25 51.0714 21.25 51.0714 21.25C51.0714 23.25 55.8929 25 57.5 25C59.1071 25 63.9286 23.25 63.9286 21.25C63.9286 21.25 65 21.25 65 20C65 18.75 63.9286 18.75 63.9286 18.75Z" fill="#FFDD67"/>
<path id="Vector_3" d="M54.2857 18.45C52.9464 18.45 52.4107 18.9 52.4107 19.35C52.4107 19.8 52.4107 20.45 54.1786 20.45C55.8928 20.45 56.1607 20.25 56.1607 19.575C56.1607 19.125 55.625 18.45 54.2857 18.45Z" fill="#F5F5F5"/>
<path id="Vector_4" d="M54.4197 20.325C55.0854 20.325 55.625 19.8213 55.625 19.2C55.625 18.5787 55.0854 18.075 54.4197 18.075C53.754 18.075 53.2143 18.5787 53.2143 19.2C53.2143 19.8213 53.754 20.325 54.4197 20.325Z" fill="#664E27"/>
<path id="Vector_5" d="M54.8215 19.2C54.8215 19.4 54.634 19.575 54.4197 19.575C54.2054 19.575 54.0179 19.4 54.0179 19.2C54.0179 19 54.2054 18.825 54.4197 18.825C54.634 18.825 54.8215 19 54.8215 19.2Z" fill="#231F20"/>
<path id="Vector_6" d="M52.4107 19.325C52.4107 17.575 56.1607 17.575 56.1607 19.575C55.625 18.075 52.9464 18.075 52.4107 19.325Z" fill="#664E27"/>
<path id="Vector_7" d="M60.7143 18.45C62.0536 18.45 62.5893 18.9 62.5893 19.35C62.5893 19.8 62.5893 20.45 60.8214 20.45C59.1072 20.45 58.8393 20.25 58.8393 19.575C58.8393 19.125 59.375 18.45 60.7143 18.45Z" fill="#F5F5F5"/>
<path id="Vector_8" d="M60.5804 20.325C61.2461 20.325 61.7857 19.8213 61.7857 19.2C61.7857 18.5787 61.2461 18.075 60.5804 18.075C59.9147 18.075 59.375 18.5787 59.375 19.2C59.375 19.8213 59.9147 20.325 60.5804 20.325Z" fill="#664E27"/>
<path id="Vector_9" d="M60.1786 19.2C60.1786 19.4 60.3661 19.575 60.5804 19.575C60.7947 19.575 60.9822 19.4 60.9822 19.2C60.9822 19 60.7947 18.825 60.5804 18.825C60.3661 18.825 60.1786 19 60.1786 19.2Z" fill="#231F20"/>
<path id="Vector_10" d="M62.5893 19.325C62.5893 17.575 58.8393 17.575 58.8393 19.575C59.375 18.075 62.0536 18.075 62.5893 19.325Z" fill="#664E27"/>
<path id="Vector_11" d="M59.9107 22.225C59.9107 23.075 58.7054 23.5 57.5 23.5C56.2947 23.5 55.0893 23.075 55.0893 22.225C55.0893 22.225 55.0893 22 55.3304 22H59.6697C59.9107 22 59.9107 22.225 59.9107 22.225Z" fill="#937237"/>
<path id="Vector_12" d="M64.7322 15.3C64.7322 16.1 61.5447 17.05 57.5 17.05C53.4554 17.05 50.2679 16.1 50.2679 15.3H64.7322Z" fill="#454749"/>
<path id="Vector_13" d="M61.4375 12.175C60.3393 11.725 58.6786 10 57.5 10C56.3214 10 54.6607 11.725 53.5625 12.175C52.6786 12.55 51.0179 12.675 50.3482 13.325C49.625 14.05 50.2679 15.325 50.2679 15.325C50.2679 15.325 50.3482 16 57.5 16C64.6518 16 64.7321 15.35 64.7321 15.35C64.7321 15.35 65.375 14.05 64.6518 13.35C63.9821 12.675 62.3214 12.55 61.4375 12.175Z" fill="#428BC1"/>
<path id="Vector_14" d="M56.8036 12.15C57.2054 11.975 57.5 11.25 57.5 11.25C57.5 11.25 57.7946 11.975 58.1964 12.15C58.5714 12.3 59.375 11.6 59.375 11.6C59.375 11.6 59.2946 13.375 59.1607 13.725C58.7857 14.675 57.5 15.225 57.5 15.225C57.5 15.225 56.2143 14.675 55.8393 13.725C55.7054 13.375 55.625 11.6 55.625 11.6C55.625 11.6 56.4554 12.3 56.8036 12.15Z" fill="#FBBF67"/>
</g>

<g id="Burglar">
<path id="Vector_15" d="M51.4423 15.6897V22.931C51.4423 23.5 51.9615 23.9655 52.5962 23.9655H62.4038C63.0385 23.9655 63.5577 23.5 63.5577 22.931V15.6897H51.4423Z" fill="#FFDB2B"/>
<g id="Group">
<path id="Vector_16" d="M63.7008 16.961C62.7838 16.4911 61.7407 16.2428 60.6846 16.2428C59.6286 16.2428 58.5855 16.4911 57.6685 16.961L57.6641 16.9634H57.2237L57.2193 16.961C56.2562 16.4676 55.1946 16.2069 54.1487 16.2069C53.1442 16.2069 52.1854 16.4371 51.2992 16.8912L51.1538 16.9657V17.186C51.1524 17.9867 51.1498 19.4769 52.9406 19.6507C53.2922 19.6848 53.6277 19.7019 53.9384 19.7019C56.626 19.7019 57.2505 18.4217 57.3477 17.4806H57.5398C57.637 18.4215 58.2615 19.7019 60.9491 19.7019C61.2595 19.7019 61.5953 19.6848 61.9469 19.6507C63.8462 19.4663 63.8462 17.868 63.8462 17.1855V17.0355L63.7008 16.961Z" fill="#556080"/>
<path id="Vector_17" d="M52.5396 18.294C52.4658 18.294 52.3919 18.2686 52.3357 18.2182C52.2229 18.1171 52.2229 17.9536 52.3357 17.8525L53.2432 17.0389C53.356 16.9378 53.5383 16.9378 53.6511 17.0389C53.7638 17.14 53.7638 17.3035 53.6511 17.4046L52.7436 18.2182C52.687 18.2689 52.6135 18.294 52.5396 18.294Z" fill="#8697CB"/>
<path id="Vector_18" d="M53.7491 18.8363C53.6753 18.8363 53.6014 18.8109 53.5452 18.7605C53.4324 18.6594 53.4324 18.4959 53.5452 18.3948L55.0573 17.0391C55.1701 16.938 55.3524 16.938 55.4652 17.0391C55.578 17.1403 55.578 17.3037 55.4652 17.4048L53.9531 18.7605C53.8968 18.8109 53.823 18.8363 53.7491 18.8363Z" fill="#8697CB"/>
<path id="Vector_19" d="M59.193 18.294C59.1191 18.294 59.0453 18.2686 58.989 18.2182C58.8763 18.1171 58.8763 17.9536 58.989 17.8525L59.8965 17.0389C60.0093 16.9378 60.1916 16.9378 60.3044 17.0389C60.4172 17.14 60.4172 17.3035 60.3044 17.4046L59.3969 18.2182C59.3407 18.2689 59.2668 18.294 59.193 18.294Z" fill="#8697CB"/>
<path id="Vector_20" d="M60.4028 18.8363C60.3289 18.8363 60.2551 18.8109 60.1988 18.7605C60.0861 18.6594 60.0861 18.4959 60.1988 18.3948L61.711 17.0391C61.8238 16.938 62.0061 16.938 62.1188 17.0391C62.2316 17.1403 62.2316 17.3037 62.1188 17.4048L60.6067 18.7605C60.5502 18.8109 60.4763 18.8363 60.4028 18.8363Z" fill="#8697CB"/>
</g>
<path id="Vector_21" d="M55.1961 22.8382C55.1398 22.8382 55.0824 22.8232 55.0328 22.7924C54.9015 22.7115 54.8686 22.5503 54.9589 22.4327C55.0025 22.3758 56.0473 21.0377 57.6725 20.8184C58.5757 20.6968 59.4687 20.9428 60.3284 21.5513C60.4533 21.64 60.4746 21.8027 60.376 21.9147C60.2776 22.0264 60.0961 22.0458 59.9707 21.9573C59.242 21.4409 58.4986 21.2291 57.7585 21.3297C56.3779 21.5164 55.4433 22.7141 55.4337 22.7259C55.3781 22.7989 55.2878 22.8382 55.1961 22.8382Z" fill="#F29C1F"/>
<path id="Vector_22" d="M55.629 23.1897C55.5688 23.1897 55.5082 23.1728 55.4563 23.1379L54.6154 22.5726C54.4879 22.487 54.4619 22.3248 54.5577 22.2108C54.6532 22.0965 54.834 22.0737 54.9613 22.1591L55.8021 22.7244C55.9296 22.81 55.9556 22.9722 55.8598 23.0862C55.8033 23.154 55.7167 23.1897 55.629 23.1897Z" fill="#F29C1F"/>
<path id="Vector_23" d="M59.8328 22.436C59.7448 22.436 59.6586 22.4003 59.6017 22.3326C59.506 22.2185 59.5319 22.0564 59.6594 21.9708L60.5 21.4054C60.6269 21.3198 60.8081 21.3426 60.9036 21.4572C60.9993 21.5712 60.9734 21.7334 60.8459 21.819L60.0053 22.3843C59.9537 22.4192 59.8931 22.436 59.8328 22.436Z" fill="#F29C1F"/>
<path id="Vector_24" d="M60.8736 25H54.1264C53.9185 25 53.75 24.849 53.75 24.6625V23.9655H61.25V24.6625C61.25 24.849 61.0815 25 60.8736 25Z" fill="#FEC722"/>
<path id="Vector_25" d="M50.8654 14.1379C50.8654 11.8525 53.6764 10 57.5 10C61.3236 10 64.1346 11.8525 64.1346 14.1379H50.8654Z" fill="#7F8C8D"/>
<path id="Vector_26" d="M64.1346 15.6897H50.8654C50.3894 15.6897 50 15.3405 50 14.9138C50 14.4871 50.3894 14.1379 50.8654 14.1379H64.1346C64.6106 14.1379 65 14.4871 65 14.9138C65 15.3405 64.6106 15.6897 64.1346 15.6897Z" fill="#5E5F62"/>
<g id="Group_2">
<path id="Vector_27" d="M51.7308 14.1379H51.1538V15.6897H51.7308V14.1379Z" fill="#7F8C8D"/>
<path id="Vector_28" d="M53.4615 14.1379H52.8846V15.6897H53.4615V14.1379Z" fill="#7F8C8D"/>
<path id="Vector_29" d="M55.1923 14.1379H54.6154V15.6897H55.1923V14.1379Z" fill="#7F8C8D"/>
<path id="Vector_30" d="M56.9231 14.1379H56.3462V15.6897H56.9231V14.1379Z" fill="#7F8C8D"/>
<path id="Vector_31" d="M58.6538 14.1379H58.0769V15.6897H58.6538V14.1379Z" fill="#7F8C8D"/>
<path id="Vector_32" d="M60.3846 14.1379H59.8077V15.6897H60.3846V14.1379Z" fill="#7F8C8D"/>
<path id="Vector_33" d="M62.1154 14.1379H61.5385V15.6897H62.1154V14.1379Z" fill="#7F8C8D"/>
<path id="Vector_34" d="M63.8462 14.1379H63.2692V15.6897H63.8462V14.1379Z" fill="#7F8C8D"/>
</g>
</g>
</g>
<circle id="ball" cx="50" cy="50" r="25" stroke="gray" opacity="0.2"/>
</svg>
