<svg
  width="800"
  height="800"
  viewBox="0 0 800 800"
  fill="none"
  xmlns="http://www.w3.org/2000/svg"
>
<defs>
    <style>
        @keyframes blinking {
            0% {
              fill: #597B91;
            }
            2%, 7% {
              fill: #fffb03;
            }
            10% {
              fill: #597B91;
            }
          }
          #rek1 {
            animation: blinking infinite 5s;
          }
          
          #rek5 {
            animation: blinking infinite 5s;
            animation-delay: 3s;
          }
          
          #rek2, #rek4 {
            animation: blinking infinite 5s;
            animation-delay: 5s;
          }
          
          #rek8, #rek9 {
            animation: blinking infinite 5s;
            animation-delay: 7s;
          }
          
          #rek3 {
            animation: blinking infinite 5s;
            animation-delay: 9s;
          }
          
          #rek4, #rek6 {
            animation: blinking infinite 5s;
            animation-delay: 12s;
          }
          
          #rek3 {
            animation: blinking infinite 5s;
            animation-delay: 14s;
          }
          
          #rek5 {
            animation: blinking infinite 5s;
            animation-delay: 14.5s;
          }
          
          #rek7 {
            animation: blinking infinite 5s;
            animation-delay: 15s;
          }
          
          #rek3, #rek6, #rek4, #rek8 {
            animation: blinking infinite 5s;
            animation-delay: 18s;
          }/*# sourceMappingURL=style.css.map */
    </style>
</defs>
  <g id="Frame">
    <g id="Group 3">
      <path
        id="Vector"
        d="M738.561 282.578H34.1031C21.6766 282.578 11.6031 292.652 11.6031 305.078V777.5C11.6031 789.927 21.6766 800 34.1031 800H738.561C750.987 800 761.061 789.927 761.061 777.5V305.078C761.061 292.652 750.987 282.578 738.561 282.578Z"
        fill="#FFB636"
      />
      <path
        id="Vector_2"
        d="M749.811 261.348H39.4797C24.0844 261.348 11.6031 273.83 11.6031 289.225V307.558H761.061V272.598C761.061 269.615 759.876 266.753 757.766 264.643C755.656 262.534 752.795 261.348 749.811 261.348Z"
        fill="#E2A042"
      />
      <path
        id="Vector_3"
        d="M773.387 67.1875H287.047C279.192 67.1875 272.825 75.2469 272.825 85.1875V782C272.825 791.942 279.192 800 287.047 800H773.387C781.242 800 787.609 791.941 787.609 782V85.1875C787.609 75.2469 781.242 67.1875 773.387 67.1875Z"
        fill="#FFE1AB"
      />
      <path
        id="Vector_4"
        d="M745.889 29.2828H315.273C291.83 29.2828 272.825 48.2875 272.825 71.7312V90.75H788.338V71.7312C788.336 48.2875 769.333 29.2828 745.889 29.2828Z"
        fill="#E2A042"
      />
      <path
        id="Vector_5"
        d="M205.553 642.561H84.9422C81.9585 642.561 79.097 641.376 76.9872 639.266C74.8774 637.156 73.6922 634.295 73.6922 631.311V581.967C73.6922 578.984 74.8774 576.122 76.9872 574.012C79.097 571.902 81.9585 570.717 84.9422 570.717H205.553C208.537 570.717 211.398 571.902 213.508 574.012C215.618 576.122 216.803 578.984 216.803 581.967V631.311C216.803 634.295 215.618 637.156 213.508 639.266C211.398 641.376 208.537 642.561 205.553 642.561ZM216.803 741.412V692.069C216.803 689.085 215.618 686.224 213.508 684.114C211.398 682.004 208.537 680.819 205.553 680.819H84.3219C81.3382 680.819 78.4767 682.004 76.3669 684.114C74.2571 686.224 73.0719 689.085 73.0719 692.069V741.412C73.0719 744.396 74.2571 747.258 76.3669 749.367C78.4767 751.477 81.3382 752.663 84.3219 752.663H205.553C208.537 752.663 211.398 751.477 213.508 749.367C215.618 747.258 216.803 744.396 216.803 741.412ZM632.823 616.884H427.853V800H632.823V616.884ZM178.367 349.752V403.594C178.367 405.794 177.493 407.903 175.937 409.459C174.382 411.015 172.272 411.889 170.072 411.889H119.803C117.603 411.889 115.493 411.015 113.938 409.459C112.382 407.903 111.508 405.794 111.508 403.594V349.753C111.507 347.553 110.633 345.443 109.078 343.888C107.522 342.332 105.412 341.458 103.212 341.458H82.7937C80.5938 341.458 78.4841 342.332 76.9285 343.888C75.373 345.443 74.4988 347.553 74.4984 349.753V524.069C74.4988 526.269 75.373 528.378 76.9285 529.934C78.4841 531.49 80.5938 532.364 82.7937 532.364H103.214C105.414 532.364 107.524 531.49 109.079 529.934C110.635 528.378 111.509 526.269 111.509 524.069V457.192C111.51 454.992 112.384 452.883 113.939 451.327C115.495 449.771 117.605 448.897 119.805 448.897H170.075C172.275 448.897 174.385 449.771 175.94 451.327C177.496 452.883 178.37 454.992 178.37 457.192V524.069C178.371 526.269 179.245 528.378 180.8 529.934C182.356 531.49 184.466 532.364 186.666 532.364H207.086C209.286 532.364 211.396 531.49 212.951 529.934C214.507 528.378 215.381 526.269 215.381 524.069V349.752C215.381 347.552 214.507 345.442 212.951 343.886C211.396 342.331 209.286 341.457 207.086 341.456H186.666C185.576 341.456 184.497 341.67 183.49 342.087C182.484 342.504 181.569 343.115 180.798 343.885C180.028 344.656 179.417 345.57 178.999 346.577C178.582 347.583 178.367 348.662 178.367 349.752Z"
        fill="#2B3B47"
      />
      <rect
        id="rek1"
        x="327"
        y="148"
        width="93"
        height="93"
        rx="15"
        fill="#597B91"
      />
      <rect
        id="rek2"
        x="484"
        y="148"
        width="93"
        height="93"
        rx="15"
        fill="#597B91"
      />
      <rect
        id="rek3"
        x="638"
        y="148"
        width="93"
        height="93"
        rx="15"
        fill="#597B91"
      />
      <rect
        id="rek4"
        x="327"
        y="298"
        width="93"
        height="93"
        rx="15"
        fill="#597B91"
      />
      <rect
        id="rek5"
        x="484"
        y="298"
        width="93"
        height="93"
        rx="15"
        fill="#597B91"
      />
      <rect
        id="rek6"
        x="638"
        y="297"
        width="93"
        height="93"
        rx="15"
        fill="#597B91"
      />
      <rect
        id="rek7"
        x="638"
        y="448"
        width="93"
        height="93"
        rx="15"
        fill="#597B91"
      />
      <rect
        id="rek8"
        x="483"
        y="448"
        width="93"
        height="93"
        rx="15"
        fill="#597B91"
      />
      <rect
        id="rek9"
        x="327"
        y="448"
        width="93"
        height="93"
        rx="15"
        fill="#597B91"
      />
      <g id="Group 2">
        <path
          id="Rectangle 10"
          d="M411 605C411 596.716 417.716 590 426 590H633C641.284 590 648 596.716 648 605V634C648 636.761 645.761 639 643 639H416C413.239 639 411 636.761 411 634V605Z"
          fill="#597B91"
        />
        <rect
          id="Rectangle 11"
          x="523"
          y="638"
          width="13"
          height="162"
          fill="#597B91"
        />
      </g>
    </g>
  </g>
</svg>
