<svg width="500" height="500" viewBox="0 0 100 100"  fill="none" xmlns="http://www.w3.org/2000/svg">
    <defs>
        <style>
            :root {
                --duration: 30s;
                --fadeopacity: 0.1;
              }
              
              @-webkit-keyframes fade1 {
                0% {
                  opacity: 1;
                }
                10% {
                  opacity: var(--fadeopacity);
                }
                100% {
                  opacity: var(--fadeopacity);
                }
              }
              
              @keyframes fade1 {
                0% {
                  opacity: 1;
                }
                10% {
                  opacity: var(--fadeopacity);
                }
                100% {
                  opacity: var(--fadeopacity);
                }
              }
              
              @-webkit-keyframes fade2 {
                50% {
                  opacity: 1;
                }
                60% {
                  opacity: var(--fadeopacity);
                }
                100% {
                  opacity: var(--fadeopacity);
                }
              }
              
              @keyframes fade2 {
                50% {
                  opacity: 1;
                }
                60% {
                  opacity: var(--fadeopacity);
                }
                100% {
                  opacity: var(--fadeopacity);
                }
              }
              
              @-webkit-keyframes fade3 {
                10% {
                  opacity: 1;
                }
                20% {
                  opacity: var(--fadeopacity);
                }
                100% {
                  opacity: var(--fadeopacity);
                }
              }
              
              @keyframes fade3 {
                10% {
                  opacity: 1;
                }
                20% {
                  opacity: var(--fadeopacity);
                }
                100% {
                  opacity: var(--fadeopacity);
                }
              }
              
              @-webkit-keyframes fade4 {
                60% {
                  opacity: 1;
                }
                70% {
                  opacity: var(--fadeopacity);
                }
                100% {
                  opacity: var(--fadeopacity);
                }
              }
              
              @keyframes fade4 {
                60% {
                  opacity: 1;
                }
                70% {
                  opacity: var(--fadeopacity);
                }
                100% {
                  opacity: var(--fadeopacity);
                }
              }
              
              @-webkit-keyframes fade5 {
                20% {
                  opacity: 1;
                }
                30% {
                  opacity: var(--fadeopacity);
                }
                100% {
                  opacity: var(--fadeopacity);
                }
              }
              
              @keyframes fade5 {
                20% {
                  opacity: 1;
                }
                30% {
                  opacity: var(--fadeopacity);
                }
                100% {
                  opacity: var(--fadeopacity);
                }
              }
              
              @-webkit-keyframes fade6 {
                70% {
                  opacity: 1;
                }
                80% {
                  opacity: var(--fadeopacity);
                }
                100% {
                  opacity: var(--fadeopacity);
                }
              }
              
              @keyframes fade6 {
                70% {
                  opacity: 1;
                }
                80% {
                  opacity: var(--fadeopacity);
                }
                100% {
                  opacity: var(--fadeopacity);
                }
              }
              
              @-webkit-keyframes fade7 {
                30% {
                  opacity: 1;
                }
                40% {
                  opacity: var(--fadeopacity);
                }
                100% {
                  opacity: var(--fadeopacity);
                }
              }
              
              @keyframes fade7 {
                30% {
                  opacity: 1;
                }
                40% {
                  opacity: var(--fadeopacity);
                }
                100% {
                  opacity: var(--fadeopacity);
                }
              }
              
              @-webkit-keyframes fade8 {
                60% {
                  opacity: 1;
                }
                70% {
                  opacity: var(--fadeopacity);
                }
                100% {
                  opacity: var(--fadeopacity);
                }
              }
              
              @keyframes fade8 {
                60% {
                  opacity: 1;
                }
                70% {
                  opacity: var(--fadeopacity);
                }
                100% {
                  opacity: var(--fadeopacity);
                }
              }
              
              @-webkit-keyframes fadekonge {
                40% {
                  opacity: 1;
                }
                50% {
                  opacity: var(--fadeopacity);
                }
                100% {
                  opacity: var(--fadeopacity);
                }
              }
              
              @keyframes fadekonge {
                40% {
                  opacity: 1;
                }
                50% {
                  opacity: var(--fadeopacity);
                }
                100% {
                  opacity: var(--fadeopacity);
                }
              }
              
              @-webkit-keyframes moveball {
                0% {
                  -webkit-transform: translate(22px, -22px);
                          transform: translate(22px, -22px);
                }
                8% {
                  -webkit-transform: translate(22px, -22px);
                          transform: translate(22px, -22px);
                }
                13% {
                  -webkit-transform: translate(21px, 14px);
                          transform: translate(21px, 14px);
                }
                18% {
                  -webkit-transform: translate(21px, 14px);
                          transform: translate(21px, 14px);
                }
                23% {
                  -webkit-transform: translate(-14px, 28px);
                          transform: translate(-14px, 28px);
                }
                28% {
                  -webkit-transform: translate(-14px, 28px);
                          transform: translate(-14px, 28px);
                }
                33% {
                  -webkit-transform: translate(-31px, -4px);
                          transform: translate(-31px, -4px);
                }
                38% {
                  -webkit-transform: translate(-31px, -4px);
                          transform: translate(-31px, -4px);
                }
                43% {
                  -webkit-transform: translate(0px, -30px);
                          transform: translate(0px, -30px);
                }
                48% {
                  -webkit-transform: translate(0px, -30px);
                          transform: translate(0px, -30px);
                }
                53% {
                  -webkit-transform: translate(8px, 28px);
                          transform: translate(8px, 28px);
                }
                58% {
                  -webkit-transform: translate(8px, 28px);
                          transform: translate(8px, 28px);
                }
                63% {
                  -webkit-transform: translate(-21px, -21px);
                          transform: translate(-21px, -21px);
                }
                68% {
                  -webkit-transform: translate(-21px, -21px);
                          transform: translate(-21px, -21px);
                }
                73% {
                  -webkit-transform: translate(-22px, 14px);
                          transform: translate(-22px, 14px);
                }
                100% {
                  -webkit-transform: translate(-22px, 14px);
                          transform: translate(-22px, 14px);
                }
              }
              
              @keyframes moveball {
                0% {
                  -webkit-transform: translate(22px, -22px);
                          transform: translate(22px, -22px);
                }
                8% {
                  -webkit-transform: translate(22px, -22px);
                          transform: translate(22px, -22px);
                }
                13% {
                  -webkit-transform: translate(21px, 14px);
                          transform: translate(21px, 14px);
                }
                18% {
                  -webkit-transform: translate(21px, 14px);
                          transform: translate(21px, 14px);
                }
                23% {
                  -webkit-transform: translate(-14px, 28px);
                          transform: translate(-14px, 28px);
                }
                28% {
                  -webkit-transform: translate(-14px, 28px);
                          transform: translate(-14px, 28px);
                }
                33% {
                  -webkit-transform: translate(-31px, -4px);
                          transform: translate(-31px, -4px);
                }
                38% {
                  -webkit-transform: translate(-31px, -4px);
                          transform: translate(-31px, -4px);
                }
                43% {
                  -webkit-transform: translate(0px, -30px);
                          transform: translate(0px, -30px);
                }
                48% {
                  -webkit-transform: translate(0px, -30px);
                          transform: translate(0px, -30px);
                }
                53% {
                  -webkit-transform: translate(8px, 28px);
                          transform: translate(8px, 28px);
                }
                58% {
                  -webkit-transform: translate(8px, 28px);
                          transform: translate(8px, 28px);
                }
                63% {
                  -webkit-transform: translate(-21px, -21px);
                          transform: translate(-21px, -21px);
                }
                68% {
                  -webkit-transform: translate(-21px, -21px);
                          transform: translate(-21px, -21px);
                }
                73% {
                  -webkit-transform: translate(-22px, 14px);
                          transform: translate(-22px, 14px);
                }
                100% {
                  -webkit-transform: translate(-22px, 14px);
                          transform: translate(-22px, 14px);
                }
              }
              
              #Piratkongen {
                -webkit-animation: fadekonge var(--duration) ease infinite;
                        animation: fadekonge var(--duration) ease infinite;
              }
              
              #Pirat1 {
                -webkit-animation: fade1 var(--duration) ease infinite;
                        animation: fade1 var(--duration) ease infinite;
              }
              
              #Pirat3 {
                -webkit-animation: fade3 var(--duration) ease infinite;
                        animation: fade3 var(--duration) ease infinite;
              }
              
              #Pirat4 {
                -webkit-animation: fade2 var(--duration) ease infinite;
                        animation: fade2 var(--duration) ease infinite;
              }
              
              #Pirat5 {
                -webkit-animation: fade5 var(--duration) ease infinite;
                        animation: fade5 var(--duration) ease infinite;
              }
              
              #Pirat6 {
                -webkit-animation: fade6 var(--duration) ease infinite;
                        animation: fade6 var(--duration) ease infinite;
              }
              
              #Pirat7 {
                -webkit-animation: fade7 var(--duration) ease infinite;
                        animation: fade7 var(--duration) ease infinite;
              }
              
              #Pirat8 {
                -webkit-animation: fade8 var(--duration) ease infinite;
                        animation: fade8 var(--duration) ease infinite;
              }
              
              #ball {
                -webkit-transform: translate(22px, -22px);
                        transform: translate(22px, -22px);
                -webkit-animation: moveball var(--duration) ease infinite;
                        animation: moveball var(--duration) ease infinite;
              }
              #diamant {
              transform-origin: center;
              transform: translate(42px, 42px);
              scale: 0.7;
              }
              /*# sourceMappingURL=style.css.map */
        </style>
    </defs>
<g id="Group 1">
<circle id="ball" cx="50" cy="50" r="1" fill="red"/>
<g id="Piratkongen">
<path id="Vector" d="M49.5003 9.21395V9.72329C49.5003 10.309 49.0676 10.742 48.4821 10.742C47.8967 10.742 47.4639 10.3345 47.4639 9.72329V9.21395C47.4639 9.0866 47.5657 8.95929 47.7184 8.95929H49.2458C49.3985 8.95929 49.5003 9.0866 49.5003 9.21395Z" fill="#AAB1BA"/>
<path id="Vector_2" d="M51.4604 12.7538L53.0641 13.2886C53.0641 13.747 52.9623 14.5874 52.275 15.3005C51.8168 15.7589 51.104 16.1409 50.0094 16.3446C48.9148 16.1409 48.202 15.7589 47.7438 15.3005C47.0311 14.5874 46.9547 13.747 46.9547 13.2886L48.4821 12.7538L48.5075 12.7284C48.5839 12.7538 48.6602 12.7793 48.7621 12.7793C48.7621 12.7793 49.5257 12.7793 50.0349 12.2699C50.544 12.7793 51.3076 12.7793 51.3076 12.7793C51.3586 12.7793 51.4095 12.7793 51.4604 12.7538Z" fill="#F2EDDA"/>
<path id="Vector_3" d="M53.3186 15.3259L52.0458 17.8726H42.6273L42.8818 16.8539C43.1364 15.8353 45.6819 15.3259 46.7002 15.3259H47.7184L47.7438 15.3005C48.202 15.7589 48.8893 16.1409 50.0094 16.3446C51.104 16.1409 51.8167 15.7334 52.2749 15.3005L52.3004 15.3259H53.3186ZM57.137 16.8539L57.3915 17.8726H53.8277L54.8459 15.5296H54.8714L55.7114 15.7588C56.4242 15.9881 57.0351 16.421 57.137 16.8539Z" fill="#AE938D"/>
<path id="Vector_4" d="M53.0641 13.2886L51.4604 12.7538C51.4095 12.7793 51.3586 12.7793 51.2822 12.7793C51.2822 12.7793 50.5185 12.7793 50.0094 12.2699C49.5003 12.7793 48.7366 12.7793 48.7366 12.7793C48.6348 12.7793 48.5585 12.7538 48.4821 12.7283L48.4566 12.7538L46.9293 13.2886C46.4202 12.5246 46.1656 11.2512 46.1656 11.2512C45.8856 11.2512 45.6565 11.022 45.6565 10.7419V9.72321C45.6565 9.44306 45.8856 9.21386 46.1656 9.21386V8.19519V8.16973C47.1584 8.04239 48.4057 7.94053 49.984 7.94053C51.5622 7.94053 52.835 8.04239 53.8023 8.16973V8.19519V9.21386C54.0824 9.21386 54.3114 9.44306 54.3114 9.72321V10.7419C54.3114 11.022 54.0824 11.2512 53.8023 11.2512C53.8278 11.2513 53.5732 12.5246 53.0641 13.2886ZM49.5003 9.21392C49.5003 9.08657 49.3985 8.95926 49.2458 8.95926H47.7184C47.5657 8.95926 47.4639 9.0866 47.4639 9.21392V9.72327C47.4639 10.3345 47.8967 10.7419 48.4821 10.7419C49.0676 10.7419 49.5003 10.309 49.5003 9.72327V9.21392Z" fill="#FFD0A1"/>
<path id="Vector_5" d="M54.846 15.5297L53.8278 17.8727H52.0459L53.3187 15.326C53.675 15.3259 54.2605 15.4023 54.846 15.5297Z" fill="#E4F2DE"/>
<path id="Vector_6" d="M56.8825 7.43124L56.3733 8.70459C56.3733 8.70459 55.5587 8.39899 53.8278 8.16979C52.8605 8.04244 51.5877 7.94058 50.0094 7.94058C48.4312 7.94058 47.1584 8.04244 46.1911 8.16979C44.4601 8.39899 43.6455 8.70459 43.6455 8.70459L43.1364 7.43124C43.1364 7.43124 44.4092 6.92189 45.682 6.15788C46.9547 5.39387 46.7002 3.10185 50.0094 3.10185C53.3187 3.10185 53.3187 5.39387 54.3369 6.15788C55.3551 6.92189 56.8825 7.43124 56.8825 7.43124Z" fill="#AAB1BA"/>
<path id="Vector_7" d="M57.3916 18C57.3406 18 57.2897 17.9491 57.2643 17.8981L57.0097 16.8795C56.9079 16.4975 56.3733 16.1155 55.6351 15.8608C55.5588 15.8354 55.5333 15.759 55.5588 15.708C55.5842 15.6571 55.6606 15.6061 55.7115 15.6316C56.5261 15.8863 57.137 16.3702 57.2388 16.8286L57.4934 17.8472C57.5188 17.9236 57.4679 17.9745 57.3916 18ZM42.6273 18H42.6018C42.5254 17.9745 42.5 17.9236 42.5 17.8472L42.7545 16.8285C43.0346 15.708 45.7329 15.1987 46.7002 15.1987C46.7765 15.1987 46.8275 15.2496 46.8275 15.326C46.8275 15.4024 46.7765 15.4533 46.7002 15.4533C45.5547 15.4533 43.2127 16.0136 43.0091 16.8795L42.7546 17.8982C42.7291 17.9491 42.6782 18 42.6273 18ZM53.8278 18H52.0459C51.9949 18 51.9695 17.9745 51.9441 17.9491C51.9186 17.9236 51.9186 17.8727 51.9441 17.8217L53.2168 15.275C53.2423 15.2241 53.2932 15.1986 53.3187 15.1986C53.7259 15.1986 54.3114 15.275 54.8714 15.4024C54.8969 15.4024 54.9478 15.4278 54.9478 15.4788C54.9478 15.5297 54.9733 15.5552 54.9478 15.5806L53.9296 17.9236C53.9296 17.9745 53.8787 18 53.8278 18ZM52.2495 17.7453H53.7514L54.6678 15.6061C54.2096 15.5043 53.7514 15.4533 53.395 15.4533L52.2495 17.7453ZM50.0094 18C49.933 18 49.8821 17.9491 49.8821 17.8727V17.3633C49.8821 17.2869 49.933 17.236 50.0094 17.236C50.0858 17.236 50.1367 17.2869 50.1367 17.3633V17.8727C50.1367 17.9491 50.0858 18 50.0094 18ZM50.0094 16.472C47.2856 15.9881 46.8274 14.3073 46.8274 13.3396C46.3947 12.6774 46.1656 11.6842 46.0892 11.3786C45.7837 11.3276 45.5546 11.073 45.5546 10.7419V9.72326C45.5546 9.36672 45.8347 9.0866 46.191 9.0866C46.2674 9.0866 46.3183 9.13755 46.3183 9.21395C46.3183 9.29035 46.2674 9.34129 46.191 9.34129C45.9874 9.34129 45.8092 9.51955 45.8092 9.72329V10.742C45.8092 10.9457 45.9874 11.124 46.191 11.124C46.242 11.124 46.2928 11.1749 46.3183 11.2258C46.3183 11.2258 46.5474 12.3973 47.0056 13.1358L47.6675 12.9066C47.7438 12.8812 47.7948 12.9321 47.8202 12.983C47.8202 13.0085 47.8202 13.0085 47.8202 13.034C47.8202 13.0849 47.7948 13.1358 47.7438 13.1613L47.0565 13.3905C47.082 14.2819 47.5147 15.759 49.9839 16.2174C52.4531 15.759 52.8859 14.2819 52.9113 13.3905L52.224 13.1613C52.1731 13.1359 52.1477 13.0849 52.1477 13.034C52.1477 13.0085 52.1477 13.0085 52.1477 12.983C52.1731 12.9066 52.2495 12.8812 52.3004 12.9066L52.9622 13.1358C53.4204 12.3973 53.6495 11.2258 53.6495 11.2258C53.6495 11.1749 53.7259 11.124 53.7768 11.124C53.9805 11.124 54.1587 10.9457 54.1587 10.742V9.72329C54.1587 9.51955 53.9805 9.34129 53.7768 9.34129C53.7005 9.34129 53.6495 9.29035 53.6495 9.21395C53.6495 9.13755 53.7005 9.0866 53.7768 9.0866C54.1332 9.0866 54.4132 9.36675 54.4132 9.72326V10.7419C54.4132 11.0475 54.1841 11.3277 53.8786 11.3786C53.8023 11.6842 53.5732 12.6774 53.1404 13.3396C53.1914 14.3073 52.7332 15.9881 50.0094 16.472ZM50.264 13.6706H49.7549C49.6785 13.6706 49.6276 13.6197 49.6276 13.5433C49.6276 13.4669 49.6785 13.4159 49.7549 13.4159H50.264C50.3404 13.4159 50.3913 13.4669 50.3913 13.5433C50.3912 13.6197 50.3404 13.6706 50.264 13.6706ZM51.2822 12.9066C51.2568 12.9066 50.544 12.9066 50.0094 12.4482C49.4748 12.9066 48.7621 12.9066 48.7366 12.9066C48.3802 12.9066 48.1002 12.6265 48.1002 12.2699C48.1002 11.9134 48.3803 11.6333 48.7366 11.6333C48.813 11.6333 48.8639 11.6842 48.8639 11.7606C48.8639 11.837 48.813 11.888 48.7366 11.888C48.533 11.888 48.3548 12.0662 48.3548 12.27C48.3548 12.4737 48.533 12.652 48.7366 12.652C48.7366 12.652 49.4494 12.652 49.9076 12.1681C49.9585 12.1172 50.0349 12.1172 50.0857 12.1681C50.5439 12.6265 51.2567 12.652 51.2567 12.652C51.4604 12.652 51.6385 12.4737 51.6385 12.27C51.6385 12.0662 51.4604 11.888 51.2567 11.888C51.1803 11.888 51.1294 11.837 51.1294 11.7606C51.1294 11.6842 51.1803 11.6333 51.2567 11.6333C51.6131 11.6333 51.8931 11.9134 51.8931 12.2699C51.8931 12.6265 51.6386 12.9066 51.2822 12.9066ZM46.8784 11.0221C46.8274 11.0221 46.802 10.9966 46.7765 10.9711C46.7511 10.9457 46.7511 10.9202 46.7511 10.8947C46.7511 10.8438 46.7765 10.8183 46.802 10.7929L47.4893 10.3345C47.3875 10.1562 47.3366 9.95247 47.3366 9.74872V9.23937C47.3366 9.03563 47.5148 8.85737 47.7184 8.85737H49.2458C49.3731 8.85737 49.5003 8.93377 49.5767 9.03563L50.9767 8.09336C50.6713 8.09336 50.3404 8.06791 50.0094 8.06791C45.7583 8.06791 43.7219 8.80646 43.6964 8.83191C43.62 8.85737 43.5691 8.83191 43.5437 8.75551L43.0346 7.48219C43.0091 7.40579 43.0346 7.35484 43.1109 7.32938C43.1109 7.32938 44.3837 6.82004 45.631 6.05603C46.0129 5.82683 46.2674 5.41937 46.522 4.98642C47.082 4.04415 47.7184 3 50.0094 3C52.4277 3 53.1405 4.19695 53.7005 5.16468C53.9296 5.54668 54.1333 5.87774 54.4132 6.08149C55.406 6.82004 56.9079 7.32935 56.9334 7.32935C56.9588 7.32935 56.9843 7.35481 57.0097 7.40576C57.0352 7.43121 57.0352 7.48216 57.0097 7.50761L56.5006 8.78097C56.4752 8.85737 56.3988 8.88283 56.3479 8.85737C56.3224 8.85737 54.7187 8.27162 51.4349 8.11882L49.653 9.31577V9.74872C49.653 10.4109 49.1694 10.8947 48.5075 10.8947C48.1512 10.8947 47.8712 10.7674 47.6675 10.5637L46.9802 11.0221C46.9293 10.9966 46.9038 11.0221 46.8784 11.0221ZM47.7184 9.08657C47.642 9.08657 47.5911 9.13752 47.5911 9.21392V9.72326C47.5911 10.2581 47.9475 10.6146 48.4821 10.6146C48.9912 10.6146 49.373 10.2326 49.373 9.72326V9.21392C49.373 9.13752 49.3221 9.08657 49.2457 9.08657H47.7184ZM50.0094 7.81325C53.7768 7.81325 55.8133 8.37351 56.2969 8.5518L56.7042 7.50764C56.3224 7.35484 55.1005 6.89644 54.2605 6.25977C53.955 6.03057 53.7259 5.64857 53.4968 5.26656C52.9368 4.32427 52.3004 3.2292 50.0094 3.2292C47.8711 3.2292 47.2856 4.17147 46.7256 5.08828C46.4456 5.54668 46.1911 5.97963 45.7329 6.25974C44.6892 6.89641 43.62 7.35481 43.2891 7.48216L43.6964 8.52631C44.2055 8.37351 46.242 7.81325 50.0094 7.81325ZM51.5367 10.1053C51.4604 10.1053 51.4095 10.0543 51.4095 9.97792V9.85058H51.0276C50.9513 9.85058 50.9003 9.79964 50.9003 9.72323C50.9003 9.64683 50.9513 9.59589 51.0276 9.59589H52.0459C52.1222 9.59589 52.1732 9.64683 52.1732 9.72323C52.1732 9.79964 52.1222 9.85058 52.0459 9.85058H51.664V9.97792C51.664 10.0543 51.6131 10.1053 51.5367 10.1053ZM51.2822 6.53989C51.2568 6.53989 51.2313 6.53989 51.2058 6.51443L50.0094 5.80137L48.813 6.51443C48.7621 6.53989 48.6857 6.53989 48.6348 6.46349C48.6348 6.43803 48.6094 6.41255 48.6094 6.38709C48.6094 6.33615 48.6348 6.31069 48.6603 6.28523L49.7549 5.62308L48.6603 4.96093C48.6094 4.93548 48.6094 4.88453 48.6094 4.85907C48.6094 4.83362 48.6094 4.80813 48.6348 4.78267C48.6602 4.73173 48.7366 4.70627 48.813 4.73173L50.0094 5.44479L51.2058 4.73173C51.2568 4.70627 51.3331 4.70627 51.384 4.78267C51.384 4.80813 51.4095 4.83362 51.4095 4.85907C51.4095 4.91002 51.384 4.93548 51.3585 4.96093L50.264 5.62308L51.3585 6.28523C51.4095 6.31069 51.4095 6.36163 51.4095 6.38709C51.4095 6.41255 51.4095 6.43803 51.384 6.46349C51.3586 6.51443 51.3331 6.53989 51.2822 6.53989Z" fill="#51565F"/>
</g>
<g id="Pirat8">
<path id="Vector_8" d="M26.3266 19.3304C26.9479 19.626 27.4873 20.0422 27.9299 20.5698C29.7186 22.7014 29.3206 25.9905 27.0429 27.9017C24.7654 29.8127 21.4575 29.6333 19.6689 27.5017C19.2262 26.9741 18.9097 26.3709 18.7266 25.7079C18.9336 25.6265 19.1271 25.5079 19.2971 25.3564C19.4037 25.5362 19.5249 25.7079 19.66 25.8689C20.589 26.976 22.092 27.4761 23.5826 27.1742C23.8395 27.1221 24.0812 27.0027 24.2816 26.8346C24.4206 26.7179 24.5397 26.5775 24.6306 26.4201C24.7693 26.178 24.9742 25.9399 25.2224 25.7316C25.4707 25.5233 25.7407 25.3629 26.0028 25.2678C26.419 25.1179 26.7644 24.7815 26.9272 24.3677C27.4837 22.9519 27.2522 21.3849 26.3233 20.2778C26.1882 20.1168 26.0404 19.9674 25.8815 19.8314C25.8967 19.8192 25.912 19.8073 25.9269 19.7948C26.0861 19.6612 26.2206 19.5036 26.3266 19.3304Z" fill="#AD723D"/>
<path id="Vector_9" d="M25.1292 23.6816C25.1627 23.6949 25.2229 23.7292 25.2473 23.8088L25.2506 23.8186C25.2822 23.9221 25.2285 24.0384 25.1257 24.0897C24.5341 24.3835 24.0143 24.8197 23.6219 25.3515C23.5539 25.4436 23.4297 25.4765 23.3343 25.4275L23.3249 25.4228C23.25 25.3846 23.2267 25.3194 23.2197 25.2838C23.207 25.2213 23.2222 25.1569 23.2621 25.1024C23.4812 24.8054 23.7361 24.5351 24.0191 24.2976C24.3018 24.0604 24.6126 23.856 24.9432 23.6918C25.0037 23.662 25.0698 23.6582 25.1292 23.6816Z" fill="white"/>
<path id="Vector_10" d="M25.3432 20.1299C25.5422 20.2806 25.7239 20.4532 25.8852 20.6454C26.2997 21.1394 26.5537 21.7386 26.638 22.3712L25.6609 21.8906C25.83 21.4277 25.7647 20.9058 25.4416 20.5206C25.3381 20.3973 25.216 20.2981 25.0827 20.2222C25.1574 20.195 25.2325 20.1683 25.308 20.1426C25.3198 20.1388 25.3314 20.1342 25.3432 20.1299Z" fill="#E5D665"/>
<path id="Vector_11" d="M25.3709 22.3789L26.6649 23.0153C26.6458 23.4113 26.5616 23.8109 26.4098 24.1977C26.3094 24.4529 26.097 24.66 25.8421 24.7524C25.5138 24.8713 25.1806 25.0679 24.8784 25.3216C24.5761 25.5752 24.3243 25.8694 24.1504 26.1723C24.0149 26.4076 23.7738 26.5805 23.5053 26.6349C22.2103 26.897 20.9048 26.4627 20.0981 25.5013C19.9366 25.3089 19.7982 25.0994 19.6849 24.8778C19.6912 24.8669 19.6974 24.8566 19.7032 24.8456C20.3045 23.7491 21.0993 22.7817 22.0663 21.9703C22.3224 21.7554 22.5873 21.5545 22.8603 21.3673C22.8053 21.7461 22.8992 22.1355 23.1545 22.4397C23.6497 23.0299 24.5653 23.0796 25.1959 22.5505C25.2598 22.4968 25.3177 22.4394 25.3709 22.3789ZM25.7815 23.6186C25.7181 23.4119 25.5658 23.2476 25.3637 23.168C25.16 23.0878 24.9254 23.1007 24.7196 23.203C23.9722 23.5744 23.3151 24.1258 22.8195 24.7974C22.683 24.9823 22.6296 25.2111 22.6732 25.4255C22.7165 25.6384 22.8516 25.8172 23.0437 25.915L23.0528 25.9199C23.3914 26.0928 23.8265 25.9797 24.0645 25.6565C24.3994 25.2022 24.8437 24.8294 25.3493 24.5785C25.4107 24.5479 25.4671 24.5108 25.518 24.4681C25.7642 24.2616 25.877 23.9293 25.7848 23.6284L25.7815 23.6186ZM22.2836 23.4416C22.2612 23.2927 22.1196 23.1981 21.9675 23.2303L21.0789 23.4169C20.9265 23.4488 20.8214 23.5952 20.8441 23.7439C20.8663 23.8925 21.0079 23.9871 21.1602 23.9552L21.3705 23.911C21.363 23.9317 21.3565 23.953 21.3521 23.9744C21.3155 24.1538 21.3947 24.3337 21.5487 24.4211C21.7064 24.5105 21.9165 24.487 22.0637 24.3634C22.2288 24.225 22.2805 23.9901 22.1861 23.8112C22.1716 23.7838 22.1539 23.7586 22.1339 23.7359C22.1502 23.7268 22.1659 23.7165 22.1799 23.7047C22.2561 23.6407 22.2988 23.5416 22.2836 23.4416Z" fill="#E5D665"/>
<path id="Vector_12" d="M23.7439 20.8201C24.133 20.4937 24.698 20.5241 25.0035 20.8882C25.309 21.2523 25.2408 21.814 24.8518 22.1404C24.4631 22.4666 23.8981 22.4362 23.5926 22.0721C23.287 21.708 23.3552 21.1463 23.7439 20.8201Z" fill="#666666"/>
<path id="Vector_13" d="M25.5109 15.5309L25.6203 16.1126L25.33 16.2761C24.1778 16.9261 22.8773 17.1509 21.6677 16.9087L21.6073 16.8965C20.5189 16.6653 19.3499 16.9619 18.4797 17.6906C17.6116 18.4205 17.1164 19.5203 17.1551 20.6286C17.1554 20.6409 17.1559 20.6527 17.1562 20.6649C17.1566 20.6744 17.1568 20.684 17.1575 20.6937C17.1855 21.9265 16.7383 23.1686 15.898 24.1904L15.6815 24.4537L15.1263 24.2446L15.3265 24.0123C16.1443 23.0634 16.5685 21.8792 16.5212 20.6775C16.4695 19.3667 17.041 18.1107 18.0895 17.2309C19.1376 16.3513 20.4739 16.0066 21.7557 16.2852C22.9309 16.5404 24.1711 16.328 25.2473 15.6877L25.5109 15.5309Z" fill="#5B79CE"/>
<path id="Vector_14" d="M25.7251 16.6693L26.016 18.2159C26.1284 18.8142 25.7595 19.4191 25.1586 19.6229C23.9031 20.0484 22.747 20.7003 21.7222 21.5602C20.6974 22.4202 19.8544 23.4457 19.2173 24.6082C18.9125 25.1649 18.2525 25.4229 17.6831 25.208L16.212 24.6536L16.321 24.5207C17.2505 23.39 17.7455 22.0137 17.7143 20.6457C17.7137 20.6336 17.7133 20.6213 17.713 20.6091C17.7126 20.5996 17.7121 20.5902 17.7118 20.5774C17.6791 19.6392 18.0952 18.7134 18.8238 18.1007C19.5543 17.4891 20.5383 17.2401 21.4596 17.4359L21.5237 17.4488C22.8658 17.7173 24.3071 17.4693 25.5815 16.7503L25.7251 16.6693ZM20.3795 18.3408C20.3979 18.1889 20.2889 18.0591 20.1364 18.0511C19.9836 18.0428 19.8449 18.1592 19.8265 18.3111L19.7219 19.1763L18.8513 19.1294C18.6986 19.1211 18.5598 19.2375 18.5415 19.3894C18.5229 19.541 18.6318 19.6708 18.7846 19.6791L19.6554 19.7264L19.5507 20.5921C19.5321 20.7438 19.641 20.8736 19.7938 20.8819C19.8705 20.886 19.9433 20.8589 19.9994 20.8119C20.0554 20.7648 20.0948 20.6978 20.1037 20.6219L20.2086 19.7564L21.0789 19.8036C21.1555 19.8078 21.2283 19.7807 21.2844 19.7336C21.3405 19.6866 21.3798 19.6196 21.3887 19.5436C21.4071 19.3917 21.2982 19.2619 21.1456 19.2538L20.2748 19.2066L20.3795 18.3408Z" fill="#6F91DD"/>
<path id="Vector_15" d="M25.8365 14.8412C25.917 14.8743 25.9736 14.9441 25.9898 15.0298L26.5636 18.0815C26.61 18.3272 26.6004 18.5737 26.5438 18.8076C27.2528 19.1359 27.8666 19.6047 28.368 20.2022C30.3463 22.5599 29.9062 26.1978 27.3869 28.3118C24.8679 30.4254 21.2091 30.2269 19.2308 27.8693C18.7294 27.2717 18.3743 26.5863 18.174 25.8311C17.9337 25.846 17.6895 25.8124 17.4553 25.7243L14.5497 24.6292C14.4681 24.5984 14.4094 24.5303 14.3908 24.4452C14.3722 24.3607 14.3968 24.2697 14.4561 24.2004L14.9124 23.6712C15.6325 22.8355 16.0061 21.7926 15.9643 20.7344C15.906 19.2461 16.555 17.8197 17.7454 16.8208C18.9355 15.8222 20.453 15.4307 21.9085 15.7466C22.9436 15.9713 24.0356 15.7845 24.9834 15.2207L25.5837 14.8632C25.6626 14.8166 25.7562 14.8084 25.8365 14.8412ZM25.6203 16.1126L25.5109 15.5309L25.2473 15.6877C24.1711 16.328 22.9309 16.5405 21.7557 16.2852C20.4739 16.0066 19.1376 16.3513 18.0895 17.2309C17.041 18.1107 16.4695 19.3667 16.5212 20.6775C16.5685 21.8792 16.1443 23.0634 15.3265 24.0123L15.1263 24.2446L15.6815 24.4537L15.898 24.1904C16.7383 23.1686 17.1855 21.9265 17.1574 20.6937C17.1568 20.684 17.1566 20.6744 17.1562 20.6649C17.1559 20.6527 17.1554 20.6409 17.1551 20.6286C17.1164 19.5203 17.6115 18.4205 18.4797 17.6906C19.3499 16.9619 20.5189 16.6653 21.6073 16.8965L21.6677 16.9087C22.8773 17.1509 24.1778 16.9261 25.33 16.2761L25.6203 16.1126ZM26.016 18.2159L25.7251 16.6693L25.5815 16.7503C24.3071 17.4693 22.8658 17.7173 21.5237 17.4488L21.4596 17.4359C20.5383 17.2401 19.5543 17.4891 18.8238 18.1007C18.0952 18.7134 17.6791 19.6392 17.7118 20.5774C17.7121 20.5902 17.7126 20.5996 17.713 20.6091C17.7134 20.6213 17.7137 20.6336 17.7143 20.6457C17.7455 22.0137 17.2505 23.39 16.321 24.5207L16.212 24.6536L17.6831 25.208C18.2525 25.4229 18.9125 25.1649 19.2173 24.6082C19.8544 23.4457 20.6974 22.4202 21.7222 21.5602C22.747 20.7003 23.9031 20.0484 25.1586 19.6229C25.7595 19.4191 26.1284 18.8142 26.016 18.2159ZM27.9299 20.5698C27.4873 20.0422 26.9479 19.626 26.3266 19.3304C26.2206 19.5036 26.0861 19.6612 25.9269 19.7948C25.912 19.8073 25.8966 19.8192 25.8815 19.8314C26.0404 19.9674 26.1882 20.1168 26.3233 20.2778C27.2522 21.3849 27.4837 22.9519 26.9272 24.3677C26.7644 24.7815 26.419 25.1179 26.0028 25.2678C25.7407 25.3629 25.4707 25.5233 25.2224 25.7316C24.9742 25.9399 24.7693 26.178 24.6306 26.4201C24.5397 26.5775 24.4206 26.7179 24.2816 26.8346C24.0812 27.0027 23.8395 27.1221 23.5826 27.1742C22.092 27.4761 20.589 26.976 19.66 25.8689C19.5249 25.7079 19.4037 25.5362 19.2971 25.3564C19.1271 25.5079 18.9336 25.6265 18.7266 25.7079C18.9097 26.3709 19.2262 26.9741 19.6689 27.5017C21.4575 29.6333 24.7654 29.8127 27.0429 27.9017C29.3206 25.9905 29.7186 22.7014 27.9299 20.5698ZM25.8852 20.6454C25.7239 20.4532 25.5422 20.2806 25.3432 20.1299C25.3313 20.1342 25.3198 20.1388 25.308 20.1426C25.2325 20.1683 25.1574 20.195 25.0827 20.2222C25.216 20.2981 25.3381 20.3973 25.4416 20.5206C25.7647 20.9058 25.83 21.4277 25.6609 21.8906L26.638 22.3712C26.5537 21.7386 26.2997 21.1394 25.8852 20.6454ZM26.6649 23.0153L25.3709 22.3789C25.3177 22.4394 25.2598 22.4968 25.1959 22.5505C24.5653 23.0796 23.6497 23.0299 23.1545 22.4397C22.8992 22.1355 22.8053 21.7461 22.8603 21.3673C22.5873 21.5545 22.3224 21.7554 22.0663 21.9703C21.0993 22.7817 20.3045 23.7491 19.7032 24.8456C19.6974 24.8566 19.6912 24.8669 19.6849 24.8778C19.7982 25.0994 19.9366 25.3089 20.0981 25.5013C20.9048 26.4627 22.2103 26.897 23.5053 26.6349C23.7738 26.5805 24.0149 26.4076 24.1504 26.1723C24.3243 25.8694 24.5761 25.5752 24.8784 25.3216C25.1806 25.0679 25.5138 24.8713 25.8421 24.7524C26.097 24.66 26.3094 24.4529 26.4098 24.1977C26.5616 23.8109 26.6458 23.4113 26.6649 23.0153ZM25.0035 20.8882C24.698 20.5241 24.133 20.4937 23.7439 20.8202C23.3552 21.1463 23.287 21.708 23.5926 22.0721C23.8981 22.4362 24.4631 22.4666 24.8518 22.1404C25.2408 21.814 25.309 21.2523 25.0035 20.8882Z" fill="#4D4D4D"/>
<path id="Vector_16" d="M25.3637 23.168C25.5658 23.2476 25.7181 23.4119 25.7815 23.6186L25.7848 23.6284C25.877 23.9293 25.7642 24.2616 25.5179 24.4682C25.4671 24.5108 25.4107 24.5479 25.3493 24.5785C24.8437 24.8295 24.3994 25.2022 24.0645 25.6565C23.8265 25.9797 23.3914 26.0928 23.0528 25.9199L23.0436 25.915C22.8516 25.8172 22.7165 25.6384 22.6732 25.4255C22.6296 25.2111 22.683 24.9823 22.8195 24.7974C23.3151 24.1258 23.9722 23.5744 24.7196 23.203C24.9254 23.1007 25.16 23.0878 25.3637 23.168ZM25.2473 23.8088C25.2229 23.7292 25.1627 23.6949 25.1292 23.6816C25.0698 23.6582 25.0037 23.662 24.9432 23.6918C24.6126 23.856 24.3019 24.0604 24.0191 24.2976C23.7361 24.5351 23.4812 24.8054 23.2621 25.1024C23.2222 25.1568 23.207 25.2213 23.2197 25.2838C23.2267 25.3194 23.25 25.3846 23.3249 25.4228L23.3343 25.4275C23.4297 25.4765 23.5539 25.4436 23.6219 25.3515C24.0143 24.8197 24.5341 24.3835 25.1257 24.0897C25.2285 24.0384 25.2822 23.9221 25.2506 23.8186L25.2473 23.8088Z" fill="#4D4D4D"/>
<path id="Vector_17" d="M20.1364 18.0511C20.2889 18.0591 20.3979 18.1889 20.3795 18.3408L20.2748 19.2066L21.1456 19.2538C21.2982 19.2618 21.4071 19.3917 21.3887 19.5436C21.3798 19.6195 21.3405 19.6866 21.2844 19.7336C21.2283 19.7807 21.1555 19.8078 21.0789 19.8036L20.2086 19.7564L20.1037 20.6219C20.0948 20.6978 20.0555 20.7648 19.9994 20.8119C19.9433 20.8589 19.8705 20.886 19.7938 20.8819C19.6411 20.8736 19.5321 20.7437 19.5507 20.5921L19.6554 19.7264L18.7846 19.6791C18.6318 19.6708 18.5229 19.541 18.5415 19.3894C18.5598 19.2375 18.6986 19.1211 18.8513 19.1294L19.7219 19.1763L19.8265 18.3111C19.8449 18.1592 19.9836 18.0428 20.1364 18.0511Z" fill="#4D4D4D"/>
<path id="Vector_18" d="M21.9675 23.2303C22.1196 23.1981 22.2612 23.2927 22.2836 23.4416C22.2988 23.5416 22.2561 23.6407 22.1799 23.7047C22.1659 23.7165 22.1502 23.7268 22.1339 23.7359C22.1539 23.7586 22.1716 23.7838 22.1861 23.8112C22.2805 23.9901 22.2287 24.225 22.0637 24.3634C21.9165 24.487 21.7064 24.5105 21.5487 24.4211C21.3947 24.3337 21.3155 24.1538 21.3521 23.9744C21.3565 23.953 21.363 23.9317 21.3705 23.911L21.1602 23.9552C21.0079 23.9871 20.8663 23.8925 20.8441 23.7439C20.8214 23.5952 20.9265 23.4488 21.0789 23.4169L21.9675 23.2303Z" fill="#4D4D4D"/>
</g>
<g id="Pirat7">
<path id="Vector_19" d="M7.45183 48.2913L9.67849 48.6839C10.205 48.7767 10.6951 48.9931 11.1053 49.3078C10.9815 49.2969 10.8581 49.2811 10.7349 49.2593L7.38528 48.6687L7.45183 48.2913Z" fill="#808080"/>
<path id="Vector_20" d="M8.96164 39.7287L12.3113 40.3194C12.4294 40.3402 12.5462 40.3663 12.6614 40.3969C12.1727 40.5479 11.6445 40.5818 11.1233 40.4899L8.89665 40.0973L8.96164 39.7287Z" fill="#808080"/>
<path id="Vector_21" d="M13.9447 42.5731L15.6363 42.8714L15.6831 42.9336C16.2883 43.7335 16.5295 44.6953 16.3624 45.6428C16.1954 46.59 15.6398 47.4117 14.7974 47.9564L14.7323 47.9985L13.0406 47.7002C12.2643 47.5633 11.7355 46.8694 11.8617 46.1534L12.3079 43.6231C12.4341 42.9074 13.1684 42.4362 13.9447 42.5731ZM14.1721 43.1709C13.938 43.0356 13.6552 42.9982 13.3957 43.0681C13.1348 43.1389 12.9217 43.3113 12.8111 43.5415C12.3843 44.4314 12.2099 45.4206 12.3066 46.4025C12.3319 46.6566 12.4731 46.8915 12.6941 47.0473C12.9139 47.202 13.1925 47.2636 13.4591 47.2163L13.4715 47.2141C13.8594 47.1452 14.1452 46.8604 14.2066 46.5121C14.2192 46.4405 14.2225 46.3658 14.2148 46.29C14.1473 45.6069 14.2687 44.9186 14.5657 44.2999C14.7588 43.8977 14.5943 43.4153 14.1829 43.1772L14.1721 43.1709Z" fill="#808080"/>
<path id="Vector_22" d="M11.7177 38.8438C11.9322 39.0901 12.04 39.4018 12.0156 39.7165L10.7814 39.4989C11.1373 39.3406 11.4564 39.1179 11.7177 38.8438Z" fill="#E5D665"/>
<path id="Vector_23" d="M7.65822 49.2676L10.2512 49.7248C10.2317 49.7948 10.206 49.8618 10.1745 49.9253L9.56918 49.8186C9.40936 49.7904 9.25855 49.8871 9.23256 50.0346C9.20657 50.182 9.31518 50.3245 9.475 50.3527L9.74445 50.4002C9.47022 50.5761 9.12106 50.6534 8.76204 50.5901C8.083 50.4703 7.60891 49.8903 7.65822 49.2676Z" fill="#E5D665"/>
<path id="Vector_24" d="M13.5742 43.5905C13.6749 43.5634 13.7804 43.5773 13.8718 43.6301L13.8826 43.6364C14.04 43.7277 14.1029 43.9128 14.0287 44.0675C13.6915 44.7695 13.5539 45.55 13.6307 46.3246C13.6475 46.4954 13.5251 46.6482 13.3467 46.6799L13.3332 46.6823C13.2297 46.7004 13.1258 46.6777 13.0405 46.6175C12.9541 46.5567 12.9009 46.468 12.8911 46.3679C12.847 45.9225 12.8645 45.4758 12.9414 45.0396C13.0183 44.6031 13.1547 44.1774 13.3485 43.7739C13.3919 43.6835 13.4722 43.6184 13.5742 43.5905Z" fill="white"/>
<path id="Vector_25" d="M11.605 36.4107L12.2832 36.5303C12.4431 36.5584 12.5517 36.701 12.5257 36.8484L12.4154 37.474C12.3563 37.8091 12.2351 38.1192 12.0641 38.396C12.4575 38.7793 12.654 39.3015 12.5962 39.8233C13.6962 40.0635 14.6901 40.6863 15.3451 41.5519L16.1606 42.6297C16.8562 43.5494 17.1336 44.6557 16.9415 45.7449C16.7494 46.8342 16.1104 47.7789 15.1422 48.4049L14.0074 49.1388C13.0958 49.7285 11.9488 49.9734 10.8329 49.8233C10.8157 49.8941 10.7935 49.9632 10.7674 50.0298L11.3774 50.1374C11.5372 50.1656 11.6458 50.3081 11.6198 50.4555C11.5938 50.6029 11.443 50.6997 11.2832 50.6715L10.4636 50.527C10.0477 50.9985 9.37084 51.2481 8.66786 51.1242C7.66957 50.9481 6.97793 50.0827 7.07762 49.1652L6.71243 49.1008C5.21653 48.837 3.95933 48.0367 3.13666 46.9573C2.31392 45.8782 1.92615 44.5197 2.16938 43.1402C2.5444 41.0134 4.31158 39.4474 6.47159 39.0826C5.43811 38.4763 4.83146 37.3388 5.03702 36.173L5.14734 35.5474C5.17333 35.4 5.32413 35.3032 5.48395 35.3314L6.16222 35.451C7.36203 35.6625 8.28525 36.4968 8.60339 37.5211C9.25227 36.6673 10.4052 36.1991 11.605 36.4107ZM11.8995 37.0133L11.5108 36.9448C10.1701 36.7084 8.9017 37.5223 8.68359 38.7593L8.66099 38.8875L10.0742 37.8505C10.1994 37.7588 10.3843 37.7804 10.4867 37.8991C10.5423 37.9632 10.5625 38.0427 10.5494 38.1168C10.5384 38.1795 10.5033 38.2383 10.4457 38.2806L9.17887 39.2101C10.4554 39.3522 11.6274 38.5565 11.8363 37.3719L11.8995 37.0133ZM6.06804 35.9851L5.6793 35.9165L5.61608 36.2751C5.39796 37.5121 6.31147 38.7107 7.65257 38.9472L7.82397 38.9774L7.04746 37.9748C6.95184 37.8511 6.98012 37.6817 7.11098 37.5964C7.24184 37.5112 7.42546 37.5421 7.52107 37.6658L8.12996 38.452C8.21936 37.2903 7.33463 36.2084 6.06804 35.9851ZM12.0156 39.7165C12.04 39.4018 11.9322 39.0901 11.7177 38.8438C11.4564 39.1179 11.1373 39.3406 10.7814 39.4989L12.0156 39.7165ZM12.3113 40.3194L8.96163 39.7287L8.89665 40.0973L11.1233 40.4899C11.6445 40.5818 12.1727 40.5479 12.6614 40.3969C12.5462 40.3663 12.4294 40.3402 12.3113 40.3194ZM6.80622 48.5666L8.38258 39.6266C7.71628 39.5091 7.05888 39.5217 6.44041 39.6454L6.09798 41.5875C6.07198 41.7349 5.92156 41.8317 5.76136 41.8035C5.60154 41.7753 5.49293 41.6328 5.51892 41.4854L5.81382 39.8129C4.24933 40.34 3.03713 41.6051 2.74844 43.2423C2.38817 45.2855 3.57757 47.2762 5.51715 48.166L5.81155 46.4964C5.83755 46.349 5.98835 46.2522 6.14817 46.2804C6.30799 46.3086 6.4166 46.4511 6.39061 46.5985L6.07574 48.3842C6.31099 48.4609 6.55491 48.5223 6.80622 48.5666ZM14.8677 41.8558C14.4958 41.364 13.9978 40.9626 13.4307 40.6845C12.7044 41.0495 11.8583 41.1702 11.0291 41.024L8.80247 40.6314L7.54601 47.7572L9.77267 48.1498C10.6057 48.2967 11.3621 48.7025 11.921 49.2981C12.5456 49.2298 13.1472 49.0235 13.6625 48.6903L14.0629 48.4312L12.9465 48.2343C11.8509 48.0411 11.1045 47.0618 11.2827 46.0512L11.7288 43.521C11.907 42.5108 12.9433 41.8458 14.0389 42.039L15.1557 42.2359L14.8677 41.8558ZM15.6363 42.8714L13.9447 42.5731C13.1684 42.4362 12.4341 42.9074 12.3079 43.6231L11.8617 46.1534C11.7355 46.8694 12.2643 47.5633 13.0406 47.7002L14.7323 47.9985L14.7974 47.9564C15.6398 47.4117 16.1954 46.59 16.3624 45.6428C16.5295 44.6953 16.2883 43.7335 15.6831 42.9336L15.6363 42.8714ZM9.67849 48.6839L7.45183 48.2913L7.38528 48.6687L10.7349 49.2593C10.8581 49.2811 10.9815 49.2969 11.1053 49.3078C10.6951 48.9931 10.2051 48.7767 9.67849 48.6839ZM10.2512 49.7248L7.65822 49.2676C7.60891 49.8903 8.083 50.4703 8.76204 50.5901C9.12106 50.6534 9.47022 50.5761 9.74445 50.4002L9.475 50.3527C9.31518 50.3245 9.20657 50.182 9.23256 50.0346C9.25855 49.8871 9.40936 49.7904 9.56918 49.8186L10.1745 49.9253C10.206 49.8618 10.2317 49.7948 10.2512 49.7248Z" fill="#4D4D4D"/>
<path id="Vector_26" d="M11.5108 36.9448L11.8995 37.0133L11.8363 37.3719C11.6274 38.5565 10.4554 39.3522 9.17887 39.2101L10.4457 38.2806C10.5033 38.2383 10.5384 38.1795 10.5494 38.1168C10.5625 38.0427 10.5423 37.9632 10.4867 37.8991C10.3843 37.7804 10.1994 37.7588 10.0742 37.8505L8.66098 38.8875L8.68359 38.7593C8.9017 37.5223 10.1701 36.7084 11.5108 36.9448Z" fill="#E8465A"/>
<path id="Vector_27" d="M5.67931 35.9165L6.06805 35.9851C7.33464 36.2084 8.21936 37.2903 8.12996 38.452L7.52107 37.6658C7.42546 37.5421 7.24184 37.5112 7.11098 37.5964C6.98013 37.6817 6.95185 37.8511 7.04746 37.9748L7.82397 38.9774L7.65257 38.9472C6.31147 38.7107 5.39796 37.5121 5.61608 36.2751L5.67931 35.9165ZM6.66302 36.8569C6.41514 36.7706 6.18191 37.0188 6.31038 37.2361C6.37112 37.3386 6.49731 37.3972 6.62023 37.3796C6.74025 37.3625 6.83683 37.2731 6.85642 37.162C6.87908 37.0335 6.79579 36.9031 6.66302 36.8569Z" fill="#E8465A"/>
<path id="Vector_28" d="M6.31038 37.2361C6.1819 37.0188 6.41513 36.7706 6.66302 36.8569C6.79578 36.9031 6.87908 37.0335 6.85641 37.162C6.83682 37.2731 6.74025 37.3625 6.62023 37.3796C6.49731 37.3972 6.37112 37.3386 6.31038 37.2361Z" fill="#4D4D4D"/>
<path id="Vector_29" d="M8.38258 39.6266L6.80622 48.5666C6.55491 48.5223 6.31098 48.4609 6.07574 48.3842L6.39061 46.5985C6.4166 46.4511 6.30799 46.3086 6.14817 46.2804C5.98835 46.2522 5.83754 46.349 5.81155 46.4964L5.51715 48.166C3.57757 47.2762 2.38817 45.2855 2.74844 43.2423C3.03712 41.6051 4.24933 40.34 5.81382 39.8129L5.51892 41.4854C5.49292 41.6328 5.60154 41.7753 5.76136 41.8035C5.92156 41.8317 6.07198 41.7349 6.09797 41.5875L6.44041 39.6454C7.05888 39.5217 7.71628 39.5091 8.38258 39.6266ZM7.28804 39.8158C7.12822 39.7877 6.97742 39.8844 6.95142 40.0318L6.83031 40.7187C6.80432 40.8661 6.91293 41.0086 7.07275 41.0368C7.23257 41.065 7.38337 40.9682 7.40937 40.8208L7.53048 40.1339C7.55647 39.9865 7.44786 39.844 7.28804 39.8158ZM5.67829 42.2746C5.51847 42.2464 5.36767 42.3432 5.34167 42.4906L5.22169 43.171C5.19563 43.3188 5.30431 43.461 5.46413 43.4891C5.62434 43.5174 5.77469 43.4209 5.80075 43.2731L5.92073 42.5927C5.94672 42.4453 5.8385 42.3028 5.67829 42.2746ZM6.39484 45.229C6.28447 45.1868 6.15477 45.2113 6.07454 45.2893C5.98477 45.3763 5.97076 45.5144 6.04186 45.6191C6.18361 45.8288 6.5364 45.7717 6.57884 45.531C6.60088 45.406 6.52229 45.2783 6.39484 45.229Z" fill="#E8465A"/>
<path id="Vector_30" d="M6.95142 40.0318C6.97742 39.8844 7.12822 39.7877 7.28804 39.8158C7.44786 39.844 7.55647 39.9865 7.53048 40.1339L7.40937 40.8208C7.38337 40.9682 7.23257 41.065 7.07275 41.0368C6.91293 41.0086 6.80432 40.8661 6.83031 40.7187L6.95142 40.0318Z" fill="#4D4D4D"/>
<path id="Vector_31" d="M13.4307 40.6845C13.9978 40.9626 14.4958 41.364 14.8677 41.8558L15.1557 42.2359L14.0389 42.039C12.9433 41.8458 11.907 42.5108 11.7288 43.521L11.2827 46.0512C11.1045 47.0618 11.8509 48.0411 12.9465 48.2343L14.0629 48.4312L13.6625 48.6903C13.1472 49.0235 12.5456 49.2298 11.921 49.2981C11.3621 48.7025 10.6057 48.2967 9.77267 48.1498L7.54601 47.7572L8.80247 40.6314L11.0291 41.024C11.8583 41.1702 12.7044 41.0495 13.4307 40.6845ZM10.2287 41.8907C10.0237 41.787 9.77431 41.9394 9.80228 42.1533C9.81152 42.225 9.85176 42.2993 9.87885 42.3669C9.97912 42.6177 10.0794 42.8685 10.1793 43.1192C10.2083 43.1916 10.2319 43.2787 10.2871 43.3384C10.4477 43.5113 10.7582 43.4365 10.7972 43.2154C10.8055 43.168 10.7991 43.121 10.7817 43.0753C10.773 43.0525 10.7643 43.0296 10.7552 43.0067C10.8467 43.0545 10.9537 43.0752 11.0589 43.0607C11.2531 43.034 11.4087 42.8918 11.4404 42.7123C11.4758 42.5111 11.3486 42.3051 11.1417 42.2275C10.9595 42.1594 10.7469 42.2049 10.6206 42.3387C10.5848 42.3772 10.5576 42.4208 10.539 42.4675C10.4934 42.3533 10.4479 42.2392 10.4023 42.1254C10.365 42.0322 10.3314 41.9426 10.2287 41.8907ZM10.2815 45.8666C10.1932 45.677 9.92152 45.6442 9.78379 45.7932C9.7326 45.8488 9.68308 45.9061 9.63297 45.9623C9.45553 46.1605 9.27841 46.3591 9.10136 46.5573C9.0325 46.634 8.96704 46.7073 8.97747 46.8174C8.99747 47.0313 9.27673 47.1474 9.45555 47.0159C9.51451 46.9727 9.56014 46.9081 9.6073 46.8551C9.67276 46.7818 9.73822 46.7085 9.80369 46.6353C9.80589 46.6995 9.82287 46.7635 9.85617 46.8229C9.94822 46.9871 10.1456 47.0847 10.3408 47.0633C10.5406 47.0409 10.7026 46.8966 10.735 46.7128C10.7704 46.5116 10.6432 46.3056 10.4363 46.2284C10.3574 46.1991 10.2729 46.1908 10.1922 46.2019C10.2418 46.1482 10.2901 46.0914 10.3026 46.0202C10.3117 45.9689 10.304 45.915 10.2815 45.8666Z" fill="#E5D665"/>
<path id="Vector_32" d="M9.80228 42.1533C9.77431 41.9394 10.0237 41.787 10.2287 41.8907C10.3314 41.9426 10.365 42.0322 10.4023 42.1254C10.4479 42.2392 10.4934 42.3533 10.539 42.4675C10.5576 42.4208 10.5848 42.3772 10.6206 42.3387C10.7469 42.2049 10.9595 42.1594 11.1417 42.2275C11.3486 42.3051 11.4758 42.5111 11.4404 42.7123C11.4087 42.8918 11.2531 43.034 11.0589 43.0607C10.9537 43.0752 10.8467 43.0545 10.7552 43.0067C10.7643 43.0296 10.773 43.0525 10.7817 43.0753C10.7991 43.121 10.8055 43.168 10.7972 43.2154C10.7582 43.4365 10.4477 43.5113 10.2871 43.3384C10.2319 43.2787 10.2083 43.1916 10.1793 43.1192C10.0794 42.8685 9.97912 42.6177 9.87885 42.3669C9.85176 42.2993 9.81152 42.225 9.80228 42.1533Z" fill="#4D4D4D"/>
<path id="Vector_33" d="M13.3957 43.0681C13.6552 42.9982 13.938 43.0356 14.1721 43.1709L14.1829 43.1772C14.5943 43.4153 14.7588 43.8977 14.5657 44.2999C14.2687 44.9186 14.1473 45.6069 14.2148 46.29C14.2225 46.3658 14.2192 46.4405 14.2066 46.5121C14.1452 46.8604 13.8594 47.1452 13.4715 47.2141L13.4591 47.2163C13.1925 47.2636 12.9139 47.202 12.6941 47.0473C12.4731 46.8915 12.3319 46.6566 12.3066 46.4025C12.2099 45.4206 12.3843 44.4314 12.8111 43.5415C12.9217 43.3113 13.1348 43.1389 13.3957 43.0681ZM13.8718 43.6301C13.7804 43.5773 13.6749 43.5634 13.5742 43.5905C13.4722 43.6184 13.3919 43.6835 13.3485 43.7739C13.1547 44.1774 13.0184 44.6031 12.9414 45.0396C12.8645 45.4758 12.847 45.9225 12.8911 46.3679C12.9009 46.468 12.9541 46.5567 13.0405 46.6175C13.1258 46.6777 13.2297 46.7004 13.3332 46.6823L13.3467 46.6799C13.5251 46.6482 13.6475 46.4954 13.6307 46.3246C13.5539 45.55 13.6915 44.7695 14.0287 44.0675C14.1029 43.9128 14.04 43.7277 13.8826 43.6364L13.8718 43.6301Z" fill="#4D4D4D"/>
<path id="Vector_34" d="M5.34167 42.4906C5.36767 42.3432 5.51847 42.2464 5.67829 42.2746C5.8385 42.3028 5.94672 42.4453 5.92073 42.5927L5.80075 43.2731C5.77469 43.4209 5.62434 43.5174 5.46413 43.4891C5.30431 43.461 5.19564 43.3188 5.22169 43.171L5.34167 42.4906Z" fill="#4D4D4D"/>
<path id="Vector_35" d="M9.78379 45.7932C9.92152 45.6442 10.1932 45.677 10.2815 45.8666C10.304 45.915 10.3117 45.9689 10.3026 46.0202C10.2901 46.0914 10.2418 46.1482 10.1922 46.2019C10.2729 46.1908 10.3574 46.1991 10.4363 46.2284C10.6432 46.3056 10.7704 46.5116 10.735 46.7128C10.7026 46.8966 10.5406 47.0409 10.3408 47.0633C10.1456 47.0847 9.94822 46.9871 9.85617 46.8229C9.82287 46.7635 9.80589 46.6995 9.80369 46.6353C9.73823 46.7085 9.67276 46.7818 9.6073 46.8551C9.56015 46.9081 9.51451 46.9727 9.45555 47.0159C9.27673 47.1474 8.99747 47.0313 8.97747 46.8174C8.96704 46.7073 9.0325 46.634 9.10136 46.5573C9.27841 46.3591 9.45553 46.1605 9.63297 45.9623C9.68308 45.9061 9.7326 45.8488 9.78379 45.7932Z" fill="#4D4D4D"/>
<path id="Vector_36" d="M6.07454 45.2893C6.15477 45.2113 6.28447 45.1868 6.39484 45.229C6.52229 45.2783 6.60088 45.406 6.57884 45.531C6.5364 45.7717 6.18361 45.8288 6.04186 45.6191C5.97076 45.5144 5.98477 45.3763 6.07454 45.2893Z" fill="#4D4D4D"/>
</g>
<g id="Pirat6">
<path id="Vector_37" d="M15.1103 69.9628C14.7999 69.4252 14.9269 68.7692 15.3928 68.5002C15.8591 68.231 16.4904 68.4491 16.8008 68.9868C17.111 69.5241 16.9845 70.1802 16.5182 70.4494C16.0523 70.7185 15.4205 70.5001 15.1103 69.9628Z" fill="#808080"/>
<path id="Vector_38" d="M11.2772 74.1133C11.1137 73.8301 11.1806 73.4838 11.4262 73.3421C11.6721 73.2001 12.0051 73.3155 12.1686 73.5986C12.3323 73.8822 12.2655 74.2279 12.0196 74.3698C11.774 74.5116 11.4409 74.3968 11.2772 74.1133Z" fill="#86A9F7"/>
<path id="Vector_39" d="M11.3005 69.0917L12.4116 69.0797C12.7241 70.3174 13.214 71.5145 13.8551 72.6249C14.4962 73.7353 15.288 74.7582 16.2036 75.6477L15.6378 76.6042L15.505 76.3742C15.0086 75.5144 13.998 75.1651 13.2523 75.5956L13.0525 75.711C12.112 76.254 10.8371 75.8134 10.211 74.7289C9.58484 73.6444 9.84068 72.32 10.7812 71.777L10.981 71.6616C11.7267 71.2311 11.9297 70.1816 11.4331 69.3214L11.3005 69.0917ZM11.1193 72.8104C10.6195 73.099 10.4833 73.8028 10.8162 74.3795C11.1491 74.9561 11.8268 75.19 12.3265 74.9015C12.8266 74.6127 12.9626 73.9091 12.6296 73.3324C12.2967 72.7558 11.6194 72.5217 11.1193 72.8104Z" fill="#E8465A"/>
<path id="Vector_40" d="M12.7359 65.3356C12.7606 65.3053 12.8308 65.2387 12.9501 65.2658L16.1875 66.0094L15.8974 67.7968C15.6171 67.7706 15.3361 67.8241 15.0859 67.9685C14.3657 68.3843 14.1696 69.3982 14.6492 70.229C14.8344 70.5497 15.0942 70.7967 15.3846 70.9555L14.9866 73.4049C14.3815 72.5507 13.8762 71.6237 13.4867 70.653L13.8021 69.9124C13.8797 69.7296 13.8879 69.5151 13.8253 69.3088L12.696 65.5746C12.6577 65.4487 12.7113 65.3654 12.7359 65.3356Z" fill="#E5D665"/>
<path id="Vector_41" d="M19.8858 64.11C19.9818 64.047 20.0792 64.0858 20.1163 64.1054C20.1537 64.1254 20.2433 64.1847 20.2697 64.3122L21.0539 68.1044C21.0972 68.3142 21.2093 68.5085 21.3694 68.6509L24.2615 71.2261C24.3589 71.3125 24.3654 71.4203 24.3638 71.4623C24.362 71.5045 24.3472 71.608 24.2446 71.6597L21.1932 73.1917C21.0244 73.2769 20.8988 73.4293 20.84 73.6206L19.7755 77.0885C19.7398 77.2055 19.6469 77.2327 19.6084 77.2392C19.5703 77.2456 19.4712 77.25 19.3813 77.1539L16.7121 74.3088C16.5647 74.1515 16.3749 74.0513 16.1777 74.0271L15.473 73.9416L15.9282 71.1417C16.2364 71.1886 16.5498 71.14 16.8252 70.981C17.5456 70.5651 17.7413 69.551 17.2618 68.7206C17.0595 68.3701 16.7686 68.1075 16.4457 67.9523L16.7483 66.0906C16.8505 66.0774 16.9478 66.043 17.0336 65.9864L19.8858 64.11ZM17.9547 68.5053C17.8068 68.5274 17.7183 68.6772 17.7574 68.8399C17.9652 69.7081 18.4364 70.5243 19.0843 71.1383C19.2057 71.2535 19.3797 71.2518 19.4726 71.1343C19.5465 71.0416 19.5472 70.9037 19.4834 70.7931C19.4668 70.7644 19.446 70.7376 19.421 70.7143C18.8703 70.192 18.4697 69.4981 18.293 68.7604C18.2539 68.5977 18.1026 68.4832 17.9547 68.5053ZM17.3643 71.5308C17.2198 71.566 17.1439 71.7241 17.1943 71.8845L17.5073 72.8753C17.558 73.0355 17.7161 73.1375 17.8602 73.1025C18.0049 73.0677 18.0806 72.9091 18.0299 72.7489L17.7172 71.758C17.7094 71.7332 17.6989 71.71 17.6862 71.688C17.6178 71.5696 17.4863 71.5015 17.3643 71.5308Z" fill="#E5D665"/>
<path id="Vector_42" d="M12.3016 64.912C12.4699 64.708 12.731 64.623 13.0008 64.685L16.5358 65.4969C16.5959 65.5108 16.6552 65.5007 16.7037 65.4689L19.5562 63.5924C19.7736 63.4494 20.0554 63.4441 20.3092 63.5777C20.5632 63.7118 20.7504 63.9643 20.8098 64.2532L21.594 68.0454C21.6074 68.1099 21.6416 68.1691 21.6906 68.2127L24.5824 70.7875C24.6635 70.8598 24.7313 70.9439 24.7845 71.0361C24.8766 71.1955 24.9241 71.3779 24.9172 71.5596C24.906 71.8463 24.7603 72.0873 24.5278 72.2041L21.477 73.7358C21.4252 73.7619 21.3867 73.8087 21.3686 73.8668L20.3038 77.3349C20.2229 77.5994 20.0189 77.7834 19.7581 77.8271C19.4971 77.8706 19.22 77.7669 19.016 77.5496L16.3465 74.7042C16.3015 74.656 16.2432 74.6253 16.1829 74.6181L15.9303 74.5873C16.1857 74.8721 16.4529 75.146 16.7322 75.4063C16.8444 75.5111 16.8758 75.6806 16.8049 75.8005L15.8924 77.3433C15.8439 77.4247 15.7568 77.4683 15.6612 77.4588C15.5658 77.4491 15.4753 77.3875 15.4225 77.2961L15.044 76.6404C14.7168 76.0737 14.0507 75.8435 13.5592 76.1272L13.3594 76.2426C12.1647 76.9324 10.5453 76.3727 9.74992 74.9951C8.95456 73.6175 9.27955 71.9351 10.4743 71.2454L10.6741 71.13C11.1656 70.8463 11.2994 70.1547 10.972 69.5876L10.5935 68.9319C10.5407 68.8405 10.5326 68.7313 10.5719 68.6439C10.6114 68.5563 10.6928 68.5027 10.7877 68.5018L12.5799 68.4826C12.6871 68.4816 12.7898 68.548 12.8469 68.6469C12.8639 68.6763 12.8771 68.7084 12.8849 68.7426C12.9708 69.115 13.0742 69.4835 13.1935 69.847L13.2932 69.6122C13.3167 69.5565 13.3196 69.4911 13.3003 69.428L12.1706 65.6931C12.0847 65.4081 12.1335 65.1163 12.3016 64.912ZM12.9501 65.2658C12.8308 65.2387 12.7606 65.3053 12.7359 65.3356C12.7113 65.3654 12.6578 65.4487 12.696 65.5746L13.8253 69.3088C13.8879 69.5151 13.8797 69.7296 13.8021 69.9124L13.4867 70.653C13.8762 71.6237 14.3815 72.5507 14.9866 73.4049L15.3846 70.9555C15.0942 70.7967 14.8344 70.5497 14.6492 70.229C14.1696 69.3982 14.3657 68.3843 15.0859 67.9685C15.3361 67.8241 15.6171 67.7706 15.8974 67.7968L16.1875 66.0094L12.9501 65.2658ZM20.1163 64.1054C20.0792 64.0858 19.9818 64.047 19.8858 64.11L17.0336 65.9864C16.9478 66.043 16.8505 66.0774 16.7483 66.0906L16.4457 67.9523C16.7686 68.1075 17.0595 68.3701 17.2618 68.7206C17.7413 69.551 17.5456 70.5651 16.8252 70.981C16.5498 71.14 16.2364 71.1886 15.9282 71.1417L15.473 73.9416L16.1777 74.0271C16.3749 74.0513 16.5647 74.1515 16.7121 74.3088L19.3813 77.1539C19.4712 77.25 19.5703 77.2456 19.6084 77.2392C19.6469 77.2327 19.7398 77.2055 19.7755 77.0885L20.84 73.6206C20.8988 73.4293 21.0244 73.2769 21.1932 73.1917L24.2446 71.6597C24.3472 71.608 24.362 71.5045 24.3638 71.4623C24.3654 71.4203 24.3589 71.3125 24.2615 71.2261L21.3694 68.6509C21.2093 68.5085 21.0972 68.3142 21.0539 68.1044L20.2697 64.3122C20.2433 64.1847 20.1537 64.1254 20.1163 64.1054ZM12.4116 69.0797L11.3005 69.0917L11.4331 69.3214C11.9297 70.1816 11.7267 71.2311 10.981 71.6616L10.7812 71.777C9.84067 72.32 9.58484 73.6444 10.211 74.7289C10.8371 75.8134 12.112 76.254 13.0525 75.711L13.2523 75.5956C13.998 75.1651 15.0086 75.5144 15.505 76.3742L15.6378 76.6042L16.2036 75.6477C15.288 74.7582 14.4962 73.7353 13.8551 72.6249C13.214 71.5145 12.7241 70.3174 12.4116 69.0797ZM15.3928 68.5002C14.9269 68.7692 14.7999 69.4252 15.1103 69.9628C15.4205 70.5001 16.0523 70.7185 16.5182 70.4494C16.9845 70.1802 17.111 69.5241 16.8008 68.9868C16.4904 68.4491 15.8591 68.231 15.3928 68.5002Z" fill="#4D4D4D"/>
<path id="Vector_43" d="M17.7574 68.8399C17.7183 68.6772 17.8068 68.5274 17.9547 68.5053C18.1026 68.4832 18.2539 68.5977 18.293 68.7604C18.4697 69.4981 18.8703 70.192 19.421 70.7143C19.446 70.7376 19.4668 70.7644 19.4834 70.7931C19.5472 70.9037 19.5465 71.0416 19.4726 71.1343C19.3797 71.2518 19.2057 71.2535 19.0843 71.1383C18.4364 70.5243 17.9652 69.7081 17.7574 68.8399Z" fill="#4D4D4D"/>
<path id="Vector_44" d="M10.8162 74.3795C10.4833 73.8028 10.6195 73.099 11.1193 72.8104C11.6194 72.5217 12.2967 72.7558 12.6296 73.3324C12.9626 73.9091 12.8266 74.6127 12.3265 74.9015C11.8268 75.19 11.1491 74.9561 10.8162 74.3795ZM11.4262 73.342C11.1806 73.4838 11.1137 73.8301 11.2772 74.1133C11.4409 74.3968 11.774 74.5116 12.0196 74.3698C12.2655 74.2279 12.3323 73.8822 12.1686 73.5986C12.0051 73.3155 11.6721 73.2001 11.4262 73.342Z" fill="#4D4D4D"/>
<path id="Vector_45" d="M17.1943 71.8845C17.1439 71.7241 17.2198 71.566 17.3643 71.5308C17.4863 71.5015 17.6178 71.5696 17.6862 71.688C17.6989 71.71 17.7094 71.7332 17.7172 71.758L18.0299 72.7489C18.0806 72.9091 18.0049 73.0677 17.8602 73.1025C17.7161 73.1375 17.558 73.0355 17.5073 72.8753L17.1943 71.8845Z" fill="#4D4D4D"/>
</g>
<g id="Pirat5">
<path id="Vector_46" d="M31.1734 90.5361C30.8123 90.4047 30.6058 90.0574 30.7133 89.762C30.8207 89.467 31.2021 89.3338 31.5632 89.4652C31.9246 89.5967 32.1312 89.944 32.0238 90.239C31.9163 90.5344 31.5348 90.6676 31.1734 90.5361ZM31.0928 89.8389C30.9518 90.0353 31.2079 90.318 31.4764 90.2652C31.6055 90.2396 31.6918 90.1384 31.6837 90.0211C31.6763 89.9081 31.5851 89.7994 31.4583 89.7533C31.3178 89.7021 31.1648 89.7391 31.0928 89.8389Z" fill="#F2F2F2"/>
<path id="Vector_47" d="M27.5497 91.2009L27.8069 91.0572C28.103 91.4098 28.4368 91.7406 28.804 92.0421C29.2297 92.3917 29.696 92.7001 30.192 92.9621L30.046 93.1975C29.049 92.706 28.1922 92.0204 27.5497 91.2009Z" fill="#F2F2F2"/>
<path id="Vector_48" d="M27.7912 93.2278C27.4665 92.9676 27.4167 92.5552 27.6803 92.3084L27.7504 92.2427C28.1102 92.5863 28.5079 92.8996 28.9379 93.1772L28.8582 93.2517C28.5946 93.4985 28.116 93.4877 27.7912 93.2278Z" fill="#86A9F7"/>
<path id="Vector_49" d="M28.3034 90.7801L28.7929 90.5068C29.3117 91.131 29.9514 91.6931 30.6911 92.1601L30.4721 92.5117C30.0206 92.2733 29.5966 91.9931 29.2093 91.6749C28.876 91.4008 28.5723 91.1004 28.3034 90.7801Z" fill="#5B79CE"/>
<path id="Vector_50" d="M33.6135 90.5332L33.8982 89.7511L37.7817 91.1645C37.6268 91.1728 37.4562 91.178 37.2698 91.1774C36.4481 91.1744 35.165 91.0568 33.6135 90.5332Z" fill="#E0974F"/>
<path id="Vector_51" d="M32.861 92.6008L33.4332 91.0286C35.7136 91.8025 37.4733 91.7706 38.3749 91.6682C37.5454 93.0313 35.5712 93.5872 33.6901 92.9025L32.861 92.6008Z" fill="#E5D665"/>
<path id="Vector_52" d="M28.3154 80.6555L29.3335 81.0261C29.4264 81.0599 29.5176 81.0957 29.6082 81.132L29.8566 83.9642C29.9442 84.9614 30.3768 85.9392 31.1075 86.7915C31.7722 87.5664 32.6406 88.1863 33.6318 88.598L32.2573 92.3743C29.0098 91.0458 27.1902 87.8571 28.1817 85.1331L28.5746 84.0536C28.9633 82.9857 28.8662 81.7709 28.3154 80.6555ZM30.1075 89.5415C29.9006 90.1098 30.2982 90.7781 30.9932 91.0311C31.6886 91.2842 32.4227 91.0278 32.6296 90.4595C32.8363 89.8915 32.4388 89.2233 31.7433 88.9701C31.0483 88.7172 30.3142 88.9736 30.1075 89.5415Z" fill="#77CE6F"/>
<path id="Vector_53" d="M30.4871 83.9937L30.2622 81.4313C33.005 82.8385 34.5197 85.6233 33.8028 88.0981C32.9386 87.7319 32.1814 87.1873 31.5995 86.5091C30.9494 85.7507 30.5647 84.8812 30.4871 83.9937Z" fill="#E8465A"/>
<path id="Vector_54" d="M27.4166 80.2499C27.3528 80.1474 27.364 80.03 27.4444 79.9535C27.525 79.8767 27.6584 79.8557 27.7815 79.9006L29.5137 80.531C30.445 80.87 31.2776 81.3468 31.987 81.9186L32.469 80.5942C32.2349 80.4571 32.0418 80.2702 31.911 80.0503L31.8754 79.991C31.7926 79.8514 31.8497 79.6946 32.0028 79.6408C32.0797 79.6142 32.166 79.6184 32.2436 79.6466C32.3211 79.6748 32.3899 79.7271 32.4313 79.7968L32.4668 79.8564C32.5684 80.0272 32.7372 80.1626 32.942 80.2372L34.4217 80.7757C34.4256 80.7764 34.4289 80.7735 34.4291 80.7717C34.3464 80.6321 34.4023 80.4746 34.5559 80.4209C34.6328 80.3944 34.7192 80.3982 34.7963 80.4262C34.8735 80.4543 34.9418 80.5065 34.9833 80.5761C35.1064 80.7831 35.0808 81.0156 34.9179 81.1679C34.7549 81.3205 34.4895 81.361 34.2415 81.2708L33.0647 80.8424L32.5067 82.3754C34.3038 84.0991 35.0887 86.4803 34.3156 88.6043L34.0784 89.256L39.001 91.0477C39.1682 91.1086 39.2636 91.2685 39.2138 91.4055C38.4928 93.3863 35.9343 94.28 33.5099 93.3976L32.3779 92.9856C31.9817 92.8414 31.6033 92.6722 31.2447 92.4812L30.4791 93.7128C30.4044 93.8325 30.2253 93.8685 30.071 93.7948L29.8851 93.7062C29.753 93.6432 29.6231 93.5765 29.4955 93.5073L29.349 93.6449C28.866 94.0973 27.9883 94.0773 27.393 93.6005C26.7977 93.1237 26.7065 92.3677 27.1895 91.9152L27.3179 91.7949C27.1537 91.6092 26.9995 91.417 26.8566 91.2178C26.766 91.091 26.7956 90.9381 26.9248 90.8659L28.4268 90.0275C27.3347 88.4692 26.9585 86.6089 27.5759 84.9126L27.9688 83.8332C28.1646 83.2952 28.222 82.7152 28.1457 82.1332C28.0694 81.5511 27.8598 80.9673 27.5222 80.421L27.4166 80.2499ZM29.3335 81.0261L28.3154 80.6555C28.8662 81.7709 28.9633 82.9857 28.5746 84.0537L28.1817 85.1331C27.1902 87.8571 29.0098 91.0458 32.2573 92.3743L33.6318 88.598C32.6406 88.1863 31.7722 87.5664 31.1075 86.7915C30.3768 85.9392 29.9442 84.9614 29.8566 83.9642L29.6082 81.132C29.5176 81.0957 29.4264 81.0599 29.3335 81.0261ZM30.2622 81.4313L30.4871 83.9937C30.5647 84.8812 30.9494 85.7507 31.5995 86.5091C32.1814 87.1873 32.9386 87.7319 33.8028 88.0981C34.5197 85.6233 33.005 82.8385 30.2622 81.4313ZM27.8069 91.0572L27.5497 91.2009C28.1922 92.0204 29.049 92.706 30.046 93.1975L30.192 92.9621C29.696 92.7001 29.2297 92.3917 28.804 92.0421C28.4367 91.7406 28.103 91.4098 27.8069 91.0572ZM27.6803 92.3084C27.4167 92.5552 27.4665 92.9676 27.7912 93.2278C28.116 93.4876 28.5945 93.4985 28.8582 93.2517L28.9379 93.1772C28.5079 92.8996 28.1102 92.5863 27.7504 92.2427L27.6803 92.3084ZM28.7929 90.5068L28.3034 90.7801C28.5723 91.1004 28.876 91.4008 29.2093 91.6749C29.5966 91.9931 30.0206 92.2733 30.4721 92.5117L30.6911 92.1601C29.9514 91.6931 29.3117 91.131 28.7929 90.5068ZM33.8982 89.7511L33.6135 90.5332C35.165 91.0568 36.4481 91.1744 37.2698 91.1774C37.4562 91.178 37.6268 91.1728 37.7817 91.1645L33.8982 89.7511ZM33.4332 91.0286L32.861 92.6008L33.6901 92.9025C35.5713 93.5872 37.5454 93.0313 38.3749 91.6683C37.4733 91.7706 35.7136 91.8025 33.4332 91.0286Z" fill="#4D4D4D"/>
<path id="Vector_55" d="M30.9932 91.0311C30.2982 90.7781 29.9006 90.1098 30.1075 89.5415C30.3142 88.9736 31.0483 88.7172 31.7433 88.9701C32.4388 89.2232 32.8363 89.8915 32.6296 90.4595C32.4227 91.0278 31.6886 91.2842 30.9932 91.0311ZM30.7133 89.762C30.6058 90.0574 30.8123 90.4047 31.1734 90.5361C31.5348 90.6676 31.9163 90.5344 32.0238 90.239C32.1312 89.944 31.9246 89.5967 31.5631 89.4652C31.2021 89.3337 30.8206 89.467 30.7133 89.762Z" fill="#4D4D4D"/>
<path id="Vector_56" d="M31.4764 90.2652C31.2079 90.318 30.9518 90.0353 31.0928 89.8389C31.1648 89.7391 31.3178 89.7021 31.4583 89.7533C31.5851 89.7994 31.6763 89.9081 31.6837 90.0211C31.6918 90.1384 31.6055 90.2396 31.4764 90.2652Z" fill="#4D4D4D"/>
</g>
<g id="Pirat4">
<path id="Vector_57" d="M58.0477 80.5652C54.1554 81.9818 52.1485 86.2857 53.5652 90.178C54.9818 94.0703 59.2857 96.0772 63.178 94.6605C67.0703 93.2438 69.0772 88.94 67.6605 85.0477C66.2438 81.1554 61.94 79.1485 58.0477 80.5652Z" fill="#FBD971"/>
<path id="Vector_58" d="M56.3104 87.2785C55.5684 85.2397 56.6196 82.9852 58.6584 82.2432C60.6972 81.5011 62.9517 82.5524 63.6937 84.5912L56.3104 87.2785Z" fill="#C03A2B"/>
<path id="Vector_59" d="M60.0021 85.9348L61.3445 85.4462L60.6116 83.4326L59.2692 83.9212L60.0021 85.9348Z" fill="#ECF0F1"/>
<path id="Vector_60" d="M58.6597 86.4234L60.0021 85.9348L59.5135 84.5924L58.1711 85.081L58.6597 86.4234Z" fill="#ECF0F1"/>
<path id="Vector_61" d="M57.7146 89.0478C56.6025 89.4526 56.0291 90.6822 56.4338 91.7943C56.8386 92.9064 58.0683 93.4798 59.1804 93.0751C60.2925 92.6703 60.8659 91.4406 60.4611 90.3285C60.0563 89.2164 58.8267 88.643 57.7146 89.0478Z" fill="white"/>
<path id="Vector_62" d="M58.081 90.0546C57.525 90.257 57.2383 90.8718 57.4406 91.4279C57.643 91.9839 58.2579 92.2706 58.8139 92.0682C59.37 91.8659 59.6567 91.251 59.4543 90.695C59.2519 90.1389 58.6371 89.8522 58.081 90.0546Z" fill="#AF8066"/>
<path id="Vector_63" d="M59.4516 95.0211C59.7192 95.0631 59.9898 95.0924 60.2625 95.1052L62.806 91.2526C62.8626 91.3057 62.9222 91.3566 62.9849 91.4045C64.0281 92.2042 64.5775 91.2828 65.3775 90.2395C66.1771 89.1963 66.9241 88.4262 65.8809 87.6265C65.7855 87.5533 65.6851 87.4914 65.5831 87.4347L67.4198 84.4771C67.3031 84.2234 67.1763 83.9773 67.035 83.7426L64.898 87.1835C64.0368 87.0124 63.114 87.3235 62.544 88.0673C61.9536 88.8374 61.9083 89.8531 62.3441 90.6538L59.4516 95.0211Z" fill="#38454F"/>
</g>
<g id="Pirat3">
<path id="Vector_64" d="M85.3808 71.0555C86.9341 68.3651 87.5917 65.8368 86.8495 65.4083L80.3543 61.6583C79.8616 61.3738 79.2173 61.5586 78.9227 62.0689L74.3691 69.956C74.0744 70.4663 74.2365 71.1166 74.7293 71.4011L81.2245 75.1511C81.9667 75.5796 83.8275 73.7459 85.3808 71.0555Z" fill="#FFDB2B"/>
<path id="Vector_65" d="M75.9807 70.206C76.0169 70.1433 76.0763 70.0972 76.1407 70.0788C76.2087 70.0593 76.2781 70.0684 76.3386 70.1033C76.3993 70.1383 76.4439 70.195 76.4588 70.2624C76.4921 70.3961 76.4024 70.5515 76.2699 70.5895C76.2023 70.6089 76.1314 70.6023 76.0707 70.5672C76.0125 70.5336 75.969 70.4745 75.9519 70.4058C75.9358 70.3406 75.9459 70.2663 75.9807 70.206Z" fill="#E57E25"/>
<path id="Vector_66" d="M77.8244 71.3941C77.8593 71.3336 77.9186 71.2874 77.9867 71.2682C78.0512 71.2495 78.1238 71.2577 78.1845 71.2928C78.2428 71.3264 78.2864 71.3853 78.3011 71.4529C78.3371 71.5819 78.2483 71.741 78.1123 71.78C78.0464 71.8004 77.9749 71.7903 77.9167 71.7567C77.856 71.7217 77.8135 71.6659 77.7965 71.5976C77.7792 71.5289 77.7896 71.4545 77.8244 71.3941Z" fill="#E57E25"/>
<path id="Vector_67" d="M76.9035 70.8006C76.9384 70.7403 76.9959 70.6928 77.0636 70.6734C77.1304 70.656 77.201 70.6631 77.2614 70.698C77.3221 70.733 77.3647 70.7886 77.3794 70.8558C77.4136 70.9931 77.3252 71.1462 77.1914 71.1865C77.125 71.2038 77.0518 71.1955 76.9936 71.1619C76.9353 71.1283 76.8918 71.0692 76.8734 71.0028C76.8565 70.9343 76.8687 70.861 76.9035 70.8006Z" fill="#E57E25"/>
<path id="Vector_68" d="M76.8402 69.731C76.8752 69.6705 76.9346 69.6244 77.0027 69.6052C77.0693 69.5877 77.1399 69.5947 77.1981 69.6284C77.2566 69.6621 77.3002 69.721 77.3183 69.7874C77.3517 69.9209 77.2605 70.0789 77.1281 70.1168C77.0617 70.1342 76.9909 70.1274 76.9303 70.0923C76.872 70.0587 76.8285 69.9995 76.8125 69.9346C76.794 69.868 76.804 69.7937 76.8402 69.731Z" fill="#E57E25"/>
<path id="Vector_69" d="M76.0709 68.56C76.1071 68.4974 76.1652 68.4536 76.231 68.4328C76.2988 68.4135 76.3684 68.4224 76.4288 68.4574C76.4895 68.4924 76.532 68.5482 76.549 68.6164C76.5837 68.7478 76.4913 68.9078 76.3588 68.9458C76.2923 68.9634 76.2192 68.9549 76.161 68.9213C76.1027 68.8877 76.0591 68.8288 76.0421 68.7599C76.0259 68.6949 76.0362 68.6201 76.0709 68.56Z" fill="#E57E25"/>
<path id="Vector_70" d="M76.2377 71.4988C76.274 71.4359 76.3333 71.39 76.4 71.3728C76.466 71.3522 76.5374 71.3625 76.5956 71.3961C76.6561 71.431 76.7009 71.4878 76.7158 71.5552C76.7491 71.6888 76.658 71.8466 76.5256 71.8846C76.4612 71.9031 76.3882 71.8949 76.3277 71.86C76.2695 71.8264 76.226 71.7673 76.2089 71.6986C76.1929 71.6337 76.2015 71.5614 76.2377 71.4988Z" fill="#E57E25"/>
<path id="Vector_71" d="M79.4652 63.4677C79.5 63.4074 79.5592 63.3612 79.6252 63.3405C79.6916 63.3232 79.7646 63.3313 79.8231 63.3651C79.8835 63.4 79.9268 63.459 79.9432 63.5242C79.9775 63.6615 79.8855 63.8156 79.7531 63.8536C79.6884 63.8719 79.6157 63.8639 79.5552 63.829C79.4968 63.7953 79.4532 63.7361 79.4373 63.6712C79.4199 63.6025 79.4303 63.5281 79.4652 63.4677Z" fill="#E57E25"/>
<path id="Vector_72" d="M81.4191 64.4691C81.454 64.4087 81.5134 64.3627 81.5801 64.3455C81.6459 64.325 81.7188 64.3328 81.777 64.3664C81.8353 64.4 81.879 64.4593 81.8959 64.5278C81.9292 64.6615 81.8408 64.8146 81.707 64.8549C81.6393 64.8745 81.5661 64.8663 81.5078 64.8327C81.4496 64.799 81.406 64.7401 81.389 64.6713C81.3728 64.6062 81.383 64.5317 81.4191 64.4691Z" fill="#E57E25"/>
<path id="Vector_73" d="M80.4414 63.9695C80.4775 63.9069 80.5369 63.861 80.6039 63.8437C80.6695 63.8231 80.741 63.8332 80.7993 63.8668C80.86 63.9019 80.9045 63.9588 80.9197 64.026C80.9541 64.1573 80.8655 64.3164 80.7295 64.3554C80.6647 64.374 80.5921 64.3658 80.5314 64.3308C80.4732 64.2971 80.4296 64.2382 80.4126 64.1694C80.3964 64.1043 80.4067 64.0296 80.4414 63.9695Z" fill="#E57E25"/>
<path id="Vector_74" d="M79.4858 64.4505C79.5219 64.3879 79.5813 64.342 79.6458 64.3233C79.7137 64.304 79.7854 64.3142 79.8437 64.3478C79.9019 64.3815 79.9444 64.4372 79.963 64.5033C79.9958 64.6429 79.9074 64.796 79.7728 64.8327C79.7068 64.8534 79.634 64.8454 79.5758 64.8118C79.5153 64.7769 79.4739 64.7193 79.457 64.6504C79.4409 64.5857 79.4508 64.5111 79.4858 64.4505Z" fill="#E57E25"/>
<path id="Vector_75" d="M78.0869 64.37C78.1232 64.3071 78.1803 64.26 78.2469 64.2428C78.3149 64.2233 78.3843 64.2324 78.4428 64.2662C78.5032 64.3011 78.5466 64.3599 78.5629 64.4253C78.5977 64.5564 78.5074 64.718 78.3728 64.7547C78.3061 64.7719 78.2354 64.765 78.1749 64.7301C78.1164 64.6964 78.0752 64.6385 78.057 64.5723C78.0396 64.5036 78.0521 64.4303 78.0869 64.37Z" fill="#E57E25"/>
<path id="Vector_76" d="M80.7155 63.0452C80.7503 62.9849 80.8075 62.9375 80.8755 62.918C80.942 62.9007 81.0149 62.9088 81.0734 62.9426C81.1316 62.9762 81.1751 63.0353 81.1936 63.1016C81.2256 63.2376 81.1358 63.3931 81.0009 63.4296C80.9364 63.4483 80.8658 63.4413 80.8055 63.4065C80.7448 63.3715 80.7014 63.3127 80.6854 63.2474C80.668 63.1786 80.6808 63.1053 80.7155 63.0452Z" fill="#E57E25"/>
<path id="Vector_77" d="M78.3571 69.7581C77.7099 69.5716 76.924 68.2799 77.2927 67.0722C77.6616 65.8643 79.0456 65.1979 79.6928 65.3844C80.3401 65.571 79.1901 66.3048 78.8212 67.5127C78.4525 68.7204 79.0044 69.9447 78.3571 69.7581Z" fill="#802D40"/>
<path id="Vector_78" d="M79.472 70.4278C79.0282 71.1965 79.2701 72.167 80.0123 72.5955C80.7544 73.024 81.7159 72.7482 82.1597 71.9795C82.6035 71.2108 82.3616 70.2403 81.6194 69.8118C80.8772 69.3833 79.9158 69.6591 79.472 70.4278Z" fill="white"/>
<path id="Vector_79" d="M74.1837 68.2081L77.3163 62.7823C77.4129 62.615 77.6219 62.5551 77.7834 62.6483L78.387 62.9968L74.9048 69.0281L74.3012 68.6796C74.1397 68.5864 74.0871 68.3754 74.1837 68.2081Z" fill="#FEC722"/>
<path id="Vector_80" d="M80.3286 74.6338C81.0708 75.0624 82.9316 73.2287 84.4849 70.5383C86.0382 67.8479 86.6958 65.3195 85.9536 64.891L87.5214 65.7962L86.4106 71.3408L81.8964 75.539L80.3286 74.6338Z" fill="#556080"/>
<path id="Vector_81" d="M80.3679 70.945C80.22 71.2012 80.3006 71.5247 80.548 71.6676C80.7954 71.8104 81.1159 71.7185 81.2638 71.4622C81.4117 71.206 81.3311 70.8825 81.0837 70.7397C80.8363 70.5968 80.5158 70.6888 80.3679 70.945Z" fill="#556080"/>
<path id="Vector_82" d="M77.4587 68.8268C77.7758 68.7198 78.1533 68.1938 78.3789 67.5014C78.651 66.6666 78.5994 65.905 78.2662 65.7881C77.8417 66.0842 77.4614 66.521 77.2931 67.0721C77.1047 67.688 77.2178 68.3249 77.4587 68.8268Z" fill="#E64C3C"/>
<path id="Vector_83" d="M84.1953 71.8628L83.5746 69.3721C83.5837 69.3718 83.5923 69.3725 83.6015 69.372C84.0334 69.346 84.3399 69.1809 84.5128 68.8814C84.7184 68.5253 84.7012 68.0518 84.6814 67.5031L84.6686 67.0401C84.6555 66.4106 84.6442 65.8668 84.3018 65.546C84.1079 65.3645 83.8414 65.2867 83.4866 65.3085C83.3811 65.3148 83.278 65.332 83.1764 65.3543L82.7425 63.0371L82.1434 62.6912L82.6758 65.5366C82.329 65.7172 82.0314 65.9948 81.8261 66.3504C81.6308 66.6886 81.5334 67.0725 81.5444 67.4605C81.5705 68.3759 82.1915 69.1152 83.019 69.319L83.6892 72.008L84.1953 71.8628Z" fill="#556080"/>
<path id="Vector_84" d="M82.6144 76.8815L82.979 76.2501C83.2884 75.7142 83.9637 75.492 84.4798 75.7931C85.5715 76.4305 86.9905 76.0261 87.6444 74.8934L87.9825 74.3079C88.1187 74.072 88.1145 73.7819 87.9717 73.5591C87.9242 73.485 87.8632 73.4194 87.7908 73.3705C87.4214 73.1223 87.5719 72.95 87.8445 72.4779C88.117 72.0059 88.191 71.7894 88.5907 71.9852C88.6691 72.0237 88.7565 72.0435 88.8443 72.0475C89.1089 72.0595 89.3621 71.9184 89.4983 71.6825L89.8363 71.097C90.4903 69.9642 90.131 68.5332 89.0332 67.9062C88.5144 67.6101 88.3691 66.9141 88.6785 66.3782L89.02 65.7867C89.2998 65.3021 89.2077 64.6718 88.7683 64.3569C88.2647 63.9956 87.5645 64.1698 87.2513 64.7123L86.8495 65.4083C87.5917 65.8368 86.9341 68.3651 85.3808 71.0555C83.8275 73.7459 81.9667 75.5796 81.2245 75.1511L80.8457 75.8071C80.5659 76.2917 80.658 76.922 81.0974 77.2369C81.6012 77.5983 82.3012 77.4241 82.6144 76.8815Z" fill="#35495E"/>
<path id="Vector_85" d="M86.6517 72.6265L87.1578 72.4814L87.0413 72.0142L87.5041 71.8815L87.3768 71.3706L86.914 71.5034L86.7976 71.0362L86.2915 71.1814L86.4079 71.6485L85.9452 71.7813L86.0725 72.2921L86.5353 72.1594L86.6517 72.6265Z" fill="white"/>
</g>
<g id="Pirat2">
<path id="Vector_86" d="M91.3385 48.7908C90.7718 49.181 90.1417 49.44 89.4634 49.5596C86.7231 50.0428 84.0736 48.0536 83.5573 45.1254C83.0411 42.1976 84.8505 39.4226 87.5908 38.9394C88.269 38.8198 88.9496 38.8473 89.6153 39.0203C89.5824 39.2402 89.5883 39.4671 89.6345 39.6901C89.4255 39.6925 89.2162 39.7116 89.0092 39.7481C87.586 39.9991 86.4014 41.0507 85.9175 42.4925C85.8342 42.7411 85.8167 43.0101 85.8622 43.2677C85.8937 43.4464 85.9558 43.6197 86.0466 43.7771C86.1869 44.0183 86.2907 44.3148 86.3469 44.6339C86.4032 44.9531 86.4071 45.2671 86.3584 45.5417C86.2801 45.9771 86.3987 46.4443 86.6757 46.7923C87.6236 47.9821 89.0964 48.5652 90.5196 48.3142C90.7266 48.2777 90.9299 48.2244 91.1271 48.1548C91.1301 48.174 91.1328 48.1933 91.1361 48.2125C91.1722 48.4171 91.2415 48.6124 91.3385 48.7908Z" fill="#ADB0AC"/>
<path id="Vector_87" d="M88.169 45.5782C88.1407 45.6006 88.0809 45.6355 87.9997 45.6169L87.9895 45.6149C87.8842 45.5905 87.8103 45.4858 87.8172 45.3712C87.8586 44.7119 87.7408 44.0436 87.4763 43.4379C87.4306 43.3329 87.4642 43.2089 87.5543 43.1508L87.5631 43.145C87.6337 43.0993 87.7018 43.1117 87.7361 43.1234C87.7966 43.1438 87.8448 43.1891 87.872 43.2509C88.0197 43.5891 88.1263 43.945 88.1904 44.3089C88.2545 44.6723 88.2762 45.0436 88.2531 45.412C88.2486 45.4794 88.2188 45.5384 88.169 45.5782Z" fill="white"/>
<path id="Vector_88" d="M91.1378 47.5394C90.9078 47.6364 90.6674 47.7075 90.4203 47.751C89.7853 47.863 89.1393 47.7833 88.5493 47.5401L89.4541 46.9342C89.7704 47.312 90.2551 47.5165 90.7502 47.4292C90.9087 47.4013 91.0557 47.3452 91.188 47.2676C91.1743 47.3459 91.1599 47.4243 91.1443 47.5026C91.1417 47.5147 91.1399 47.527 91.1378 47.5394Z" fill="#FBFF4A"/>
<path id="Vector_89" d="M89.1762 46.4389L87.9781 47.2413C87.6446 47.0268 87.3407 46.754 87.0816 46.4292C86.9108 46.2147 86.8376 45.9271 86.8851 45.6602C86.9463 45.3164 86.9426 44.9296 86.874 44.541C86.8055 44.1524 86.6766 43.7872 86.5013 43.4852C86.3653 43.2502 86.336 42.9549 86.4232 42.6953C86.8437 41.4427 87.8726 40.5292 89.1085 40.3113C89.3559 40.2677 89.6065 40.2525 89.8551 40.2652C89.8614 40.2761 89.8672 40.2867 89.8738 40.2971C90.5228 41.3661 90.9632 42.5382 91.1824 43.7813C91.2405 44.1106 91.282 44.4405 91.3075 44.7704C91.007 44.5335 90.6229 44.42 90.2318 44.489C89.473 44.6228 88.9722 45.3909 89.1151 46.2015C89.1296 46.2837 89.1504 46.3625 89.1762 46.4389ZM87.8973 46.1747C88.108 46.2231 88.3264 46.1733 88.4964 46.038C88.6677 45.9018 88.7739 45.6922 88.7881 45.4628C88.8402 44.6298 88.6912 43.785 88.3574 43.0201C88.2656 42.8094 88.0941 42.6488 87.8866 42.5793C87.6806 42.5103 87.4582 42.5379 87.2775 42.6554L87.2686 42.6608C86.9497 42.8676 86.8301 43.301 86.9909 43.6687C87.2169 44.1859 87.3176 44.757 87.2821 45.3203C87.2779 45.3888 87.2818 45.4563 87.2933 45.5216C87.3492 45.8381 87.5805 46.102 87.8871 46.1726L87.8973 46.1747ZM89.7996 43.2338C89.9397 43.2889 90.0924 43.2136 90.1406 43.0657L90.4233 42.2029C90.4718 42.0549 90.3976 41.8907 90.2575 41.8361C90.1177 41.781 89.965 41.8563 89.9165 42.0042L89.8496 42.2084C89.8354 42.1916 89.8202 42.1753 89.8038 42.1607C89.6668 42.0393 89.4714 42.018 89.3187 42.1077C89.1624 42.1995 89.0778 42.3933 89.1111 42.5825C89.1485 42.7946 89.3261 42.9569 89.5282 42.9646C89.5592 42.9657 89.5898 42.963 89.6196 42.957C89.6192 42.9757 89.6204 42.9944 89.6236 43.0125C89.6408 43.1105 89.7054 43.197 89.7996 43.2338Z" fill="#FBFF4A"/>
<path id="Vector_90" d="M91.3396 45.8093C91.4278 46.3094 91.119 46.7835 90.6509 46.866C90.1828 46.9486 89.7305 46.6087 89.6423 46.1085C89.5542 45.6088 89.863 45.1347 90.3311 45.0522C90.7991 44.9696 91.2515 45.3095 91.3396 45.8093Z" fill="#666666"/>
<path id="Vector_91" d="M95.0368 49.9841L94.4783 49.788L94.4819 49.4548C94.495 48.132 94.9506 46.8934 95.7652 45.9669L95.8059 45.9207C96.5504 45.0937 96.878 43.933 96.682 42.8151C96.4839 41.6983 95.7791 40.7196 94.7999 40.1989C94.7891 40.1931 94.7787 40.1876 94.7679 40.1817C94.7595 40.1774 94.7511 40.1727 94.7424 40.1684C93.6607 39.5764 92.8086 38.5679 92.3438 37.3294L92.2241 37.0102L92.6828 36.6339L92.7839 36.9235C93.1968 38.1062 94.0102 39.0657 95.0746 39.6255C96.2356 40.2361 97.0376 41.3591 97.2753 42.707C97.5129 44.0545 97.1433 45.384 96.2611 46.3549C95.4524 47.245 95.0163 48.4253 95.0327 49.6775L95.0368 49.9841Z" fill="#F03939"/>
<path id="Vector_92" d="M93.9437 49.6004L92.459 49.079C91.8846 48.8772 91.5452 48.2553 91.6692 47.633C91.9284 46.333 91.9418 45.0058 91.7095 43.6883C91.4772 42.3709 91.0106 41.128 90.3224 39.995C89.9927 39.4527 90.0992 38.7522 90.57 38.3664L91.7857 37.3697L91.8463 37.5305C92.3607 38.9008 93.3052 40.0176 94.5055 40.6747C94.5163 40.6802 94.5271 40.686 94.5379 40.6918C94.5463 40.6962 94.5546 40.7005 94.5659 40.7067C95.3947 41.1474 95.9885 41.9707 96.1548 42.908C96.3192 43.8465 96.0429 44.8231 95.4126 45.5231L95.3694 45.5721C94.4659 46.6002 93.9599 47.9724 93.9455 49.4356L93.9437 49.6004ZM95.169 44.1352C95.2913 44.2271 95.4583 44.1976 95.5415 44.0695C95.625 43.9414 95.5936 43.763 95.4712 43.6712L94.7742 43.148L95.2502 42.4175C95.3337 42.2894 95.3023 42.111 95.1799 42.0192C95.0579 41.9272 94.891 41.9567 94.8074 42.0848L94.3311 42.8153L93.6337 42.2918C93.5117 42.1999 93.3448 42.2293 93.2612 42.3575C93.2193 42.4218 93.2063 42.4984 93.219 42.5705C93.2318 42.6426 93.2701 42.7101 93.3314 42.7558L94.0285 43.2794L93.5525 44.0095C93.5106 44.0738 93.4976 44.1504 93.5103 44.2225C93.5231 44.2946 93.5614 44.3622 93.6227 44.4079C93.7451 44.4997 93.912 44.4703 93.9952 44.3422L94.4715 43.6117L95.169 44.1352Z" fill="#ED5F5F"/>
<path id="Vector_93" d="M95.4713 50.6109C95.4024 50.6641 95.3136 50.6782 95.2313 50.6494L92.3015 49.6205C92.0656 49.5379 91.8568 49.4063 91.6826 49.2403C91.0438 49.6902 90.3309 49.9874 89.5627 50.1228C86.5318 50.6573 83.6013 48.4571 83.0302 45.2184C82.4592 41.98 84.4605 38.9106 87.4915 38.3762C88.2597 38.2408 89.0308 38.2759 89.7849 38.4801C89.8922 38.2645 90.0434 38.0699 90.2368 37.9111L92.638 35.9423C92.7055 35.887 92.7938 35.8703 92.8767 35.8967C92.9593 35.9228 93.0258 35.9897 93.0561 36.0757L93.2862 36.7354C93.65 37.7769 94.3664 38.6219 95.3037 39.1148C96.6218 39.8084 97.5325 41.0837 97.8024 42.614C98.0722 44.144 97.6525 45.6539 96.6512 46.7565C95.939 47.5406 95.5548 48.5796 95.5691 49.6824L95.5786 50.381C95.5795 50.4726 95.5398 50.5578 95.4713 50.6109ZM94.4783 49.788L95.0368 49.9841L95.0327 49.6775C95.0163 48.4253 95.4524 47.245 96.2611 46.3549C97.1433 45.384 97.5129 44.0545 97.2753 42.707C97.0376 41.3591 96.2356 40.2361 95.0746 39.6255C94.0102 39.0657 93.1968 38.1061 92.7839 36.9235L92.6828 36.6339L92.2241 37.0102L92.3438 37.3294C92.8086 38.5679 93.6607 39.5764 94.7424 40.1684C94.7511 40.1727 94.7595 40.1774 94.7679 40.1817C94.7787 40.1876 94.7891 40.1931 94.7999 40.1989C95.7791 40.7196 96.4839 41.6983 96.682 42.8151C96.878 43.933 96.5504 45.0937 95.8059 45.9207L95.7652 45.9669C94.9506 46.8934 94.495 48.132 94.4819 49.4548L94.4783 49.788ZM92.459 49.0791L93.9437 49.6004L93.9455 49.4356C93.9599 47.9724 94.4659 46.6002 95.3694 45.5722L95.4126 45.5231C96.0429 44.8232 96.3192 43.8465 96.1548 42.908C95.9885 41.9707 95.3947 41.1474 94.5659 40.7067C94.5546 40.7005 94.5463 40.6962 94.5379 40.6919C94.5271 40.686 94.5163 40.6802 94.5055 40.6747C93.3052 40.0177 92.3607 38.9008 91.8463 37.5305L91.7857 37.3697L90.57 38.3665C90.0992 38.7522 89.9927 39.4527 90.3224 39.995C91.0106 41.128 91.4772 42.3709 91.7095 43.6884C91.9418 45.0058 91.9284 46.333 91.6692 47.633C91.5452 48.2553 91.8846 48.8772 92.459 49.0791ZM89.4634 49.5596C90.1417 49.44 90.7718 49.181 91.3385 48.7908C91.2414 48.6124 91.1722 48.4171 91.1361 48.2125C91.1328 48.1933 91.1301 48.174 91.1271 48.1548C90.9299 48.2244 90.7266 48.2777 90.5196 48.3142C89.0964 48.5652 87.6236 47.9821 86.6757 46.7923C86.3987 46.4443 86.2801 45.9771 86.3584 45.5417C86.4071 45.2671 86.4032 44.9531 86.3469 44.6339C86.2907 44.3148 86.1869 44.0183 86.0466 43.7771C85.9558 43.6197 85.8937 43.4464 85.8622 43.2677C85.8167 43.0101 85.8342 42.7411 85.9175 42.4925C86.4014 41.0507 87.586 39.9991 89.0092 39.7481C89.2162 39.7116 89.4255 39.6925 89.6345 39.6901C89.5883 39.4671 89.5824 39.2402 89.6153 39.0203C88.9496 38.8473 88.269 38.8198 87.5908 38.9394C84.8504 39.4226 83.0411 42.1976 83.5573 45.1254C84.0736 48.0536 86.7231 50.0428 89.4634 49.5596ZM90.4203 47.751C90.6674 47.7074 90.9078 47.6364 91.1378 47.5393C91.1399 47.527 91.1417 47.5146 91.1443 47.5026C91.1599 47.4243 91.1743 47.3459 91.188 47.2676C91.0557 47.3451 90.9087 47.4013 90.7502 47.4292C90.2551 47.5165 89.7704 47.312 89.4541 46.9342L88.5493 47.5401C89.1393 47.7833 89.7853 47.863 90.4203 47.751ZM87.9781 47.2413L89.1762 46.4389C89.1504 46.3625 89.1296 46.2837 89.1152 46.2015C88.9722 45.3909 89.473 44.6228 90.2318 44.489C90.6229 44.42 91.007 44.5335 91.3075 44.7704C91.282 44.4405 91.2405 44.1106 91.1824 43.7813C90.9632 42.5382 90.5228 41.3662 89.8738 40.2971C89.8672 40.2867 89.8614 40.2761 89.8551 40.2652C89.6065 40.2525 89.3559 40.2677 89.1085 40.3113C87.8726 40.5292 86.8437 41.4427 86.4232 42.6953C86.336 42.9549 86.3653 43.2502 86.5013 43.4852C86.6766 43.7872 86.8055 44.1524 86.874 44.541C86.9426 44.9296 86.9463 45.3165 86.8851 45.6602C86.8376 45.9271 86.9108 46.2147 87.0816 46.4292C87.3407 46.754 87.6446 47.0268 87.9781 47.2413ZM90.6509 46.866C91.119 46.7835 91.4278 46.3094 91.3396 45.8093C91.2515 45.3095 90.7991 44.9696 90.3311 45.0522C89.863 45.1347 89.5542 45.6088 89.6423 46.1086C89.7305 46.6087 90.1828 46.9486 90.6509 46.866Z" fill="#4D4D4D"/>
<path id="Vector_94" d="M88.4964 46.038C88.3264 46.1733 88.108 46.223 87.8973 46.1746L87.8871 46.1726C87.5805 46.102 87.3492 45.8381 87.2933 45.5216C87.2818 45.4563 87.2779 45.3888 87.2821 45.3203C87.3176 44.757 87.2169 44.1859 86.9909 43.6687C86.8301 43.301 86.9497 42.8676 87.2686 42.6608L87.2775 42.6553C87.4582 42.5379 87.6806 42.5103 87.8866 42.5793C88.0941 42.6488 88.2656 42.8094 88.3574 43.0201C88.6912 43.785 88.8402 44.6298 88.7882 45.4628C88.7739 45.6922 88.6677 45.9018 88.4964 46.038ZM87.9997 45.6169C88.0809 45.6355 88.1407 45.6006 88.169 45.5782C88.2188 45.5384 88.2486 45.4793 88.2531 45.412C88.2762 45.0436 88.2545 44.6723 88.1904 44.3089C88.1263 43.945 88.0197 43.5891 87.872 43.2508C87.8448 43.189 87.7966 43.1437 87.7361 43.1234C87.7018 43.1117 87.6337 43.0993 87.5631 43.145L87.5543 43.1508C87.4642 43.2089 87.4306 43.3329 87.4763 43.4379C87.7408 44.0436 87.8586 44.7119 87.8172 45.3711C87.8103 45.4858 87.8842 45.5905 87.9895 45.6149L87.9997 45.6169Z" fill="#4D4D4D"/>
<path id="Vector_95" d="M95.5415 44.0696C95.4583 44.1977 95.2913 44.2271 95.169 44.1353L94.4716 43.6117L93.9953 44.3422C93.912 44.4703 93.7451 44.4998 93.6228 44.4079C93.5614 44.3622 93.5231 44.2946 93.5104 44.2225C93.4976 44.1505 93.5106 44.0738 93.5525 44.0095L94.0285 43.2795L93.3315 42.7559C93.2701 42.7102 93.2318 42.6426 93.2191 42.5705C93.2063 42.4984 93.2193 42.4218 93.2612 42.3575C93.3448 42.2294 93.5117 42.1999 93.6337 42.2918L94.3311 42.8154L94.8074 42.0849C94.891 41.9567 95.0579 41.9273 95.1799 42.0192C95.3023 42.111 95.3338 42.2894 95.2502 42.4176L94.7742 43.148L95.4712 43.6712C95.5936 43.7631 95.625 43.9414 95.5415 44.0696Z" fill="#4D4D4D"/>
<path id="Vector_96" d="M90.1406 43.0657C90.0924 43.2136 89.9397 43.2889 89.7996 43.2339C89.7054 43.197 89.6408 43.1105 89.6236 43.0125C89.6204 42.9945 89.6192 42.9757 89.6196 42.957C89.5898 42.9631 89.5592 42.9658 89.5282 42.9646C89.3261 42.9569 89.1485 42.7947 89.1111 42.5825C89.0778 42.3933 89.1624 42.1995 89.3187 42.1077C89.4714 42.018 89.6668 42.0393 89.8038 42.1607C89.8202 42.1753 89.8354 42.1916 89.8496 42.2084L89.9165 42.0042C89.965 41.8563 90.1177 41.781 90.2575 41.8361C90.3976 41.8907 90.4718 42.055 90.4233 42.2029L90.1406 43.0657Z" fill="#4D4D4D"/>
</g>
<g id="Pirat1">
<path id="Vector_97" d="M78.6336 18.9425L78.328 19.3067C77.9766 19.7255 77.3854 19.7568 76.9369 19.3805C76.4884 19.0042 76.4013 18.4347 76.768 17.9977L77.0736 17.6335C77.15 17.5424 77.3044 17.5169 77.4214 17.615L78.5914 18.5968C78.7084 18.695 78.71 18.8515 78.6336 18.9425Z" fill="#57606A"/>
<path id="Vector_98" d="M78.0114 22.7334L78.9191 24.1466C78.6441 24.4743 78.0619 25.0097 77.1076 25.0778C76.4816 25.111 75.7064 24.926 74.7457 24.368C74.0294 23.5188 73.7125 22.7875 73.6366 22.1652C73.5183 21.1973 73.964 20.5473 74.239 20.2196L75.7299 20.8189L75.7647 20.8171C75.8079 20.8844 75.8511 20.9517 75.9291 21.0171C75.9291 21.0171 76.5141 21.508 77.2097 21.4711C77.2941 22.1625 77.8791 22.6534 77.8791 22.6534C77.9181 22.6861 77.9572 22.7189 78.0114 22.7334Z" fill="#4B421B"/>
<path id="Vector_99" d="M77.8918 25.7669L75.389 26.7695L68.1739 20.7154L68.98 20.1507C69.7862 19.586 72.0418 20.8581 72.8218 21.5126L73.6018 22.1671L73.6365 22.1652C73.7125 22.7875 74.0098 23.5024 74.7456 24.3681C75.7064 24.926 76.4968 25.0928 77.1076 25.0778L77.1118 25.1124L77.8918 25.7669ZM79.9001 29.3137L79.484 30.2057L76.754 27.9149L78.9396 26.8943L78.9591 26.9106L79.4651 27.6144C79.8736 28.2365 80.0819 28.9387 79.9001 29.3137Z" fill="#7441FA"/>
<path id="Vector_100" d="M78.9191 24.1466L78.0114 22.7334C77.9571 22.7188 77.9182 22.6861 77.8597 22.637C77.8597 22.637 77.2746 22.1461 77.1902 21.4547C76.4946 21.4916 75.9096 21.0008 75.9096 21.0008C75.8316 20.9353 75.7884 20.868 75.7452 20.8007L75.7104 20.8026L74.2196 20.2032C74.2879 19.3297 74.8568 18.2556 74.8568 18.2556C74.6423 18.0756 74.6043 17.7645 74.7724 17.5642L75.3835 16.8359C75.5516 16.6356 75.8646 16.619 76.0791 16.799L76.6903 16.0706L76.7055 16.0524C77.5424 16.5995 78.5591 17.3285 79.7681 18.343C80.9771 19.3574 81.891 20.2484 82.5556 20.9612L82.5403 20.9794L81.9292 21.7077C82.1437 21.8877 82.1817 22.1989 82.0136 22.3992L81.4025 23.1275C81.2344 23.3278 80.9214 23.3444 80.7069 23.1644C80.7264 23.1808 79.7674 23.9276 78.9191 24.1466ZM78.6336 18.9425C78.71 18.8515 78.7084 18.695 78.5914 18.5968L77.4214 17.6151C77.3044 17.5169 77.15 17.5425 77.0736 17.6335L76.7681 17.9977C76.4014 18.4347 76.4884 19.0042 76.9369 19.3805C77.3854 19.7568 77.9767 19.7255 78.3281 19.3067L78.6336 18.9425Z" fill="#FFB871"/>
<path id="Vector_101" d="M78.9396 26.8943L76.754 27.915L75.3889 26.7696L77.8918 25.7669C78.1648 25.9959 78.5675 26.4269 78.9396 26.8943Z" fill="#E4F2DE"/>
<path id="Vector_102" d="M85.3581 22.4131L84.2042 22.9962C84.2042 22.9962 83.7635 22.2541 82.575 20.9776C81.9104 20.2648 80.9965 19.3738 79.7875 18.3594C78.5785 17.3449 77.5424 16.5996 76.725 16.0688C75.2615 15.1201 74.4541 14.815 74.4541 14.815L74.8281 13.5773C74.8281 13.5773 76.1087 14.0312 77.542 14.3031C78.9753 14.575 80.1554 12.7727 82.6905 14.8998C85.2255 17.0269 83.8504 18.6656 84.1721 19.8664C84.4937 21.0672 85.3581 22.4131 85.3581 22.4131Z" fill="#57606A"/>
<path id="Vector_103" d="M79.4076 30.2967C79.3686 30.264 79.3602 30.1949 79.3712 30.1421L79.7873 29.2501C79.9385 28.9116 79.7582 28.2948 79.3455 27.6382C79.3022 27.571 79.3286 27.5 79.3786 27.4799C79.4287 27.4598 79.5177 27.4725 79.5415 27.5235C80.0127 28.2291 80.1904 28.9678 79.9934 29.361L79.5772 30.2529C79.5509 30.3239 79.4814 30.3276 79.4076 30.2967ZM68.0975 20.8064L68.078 20.7901C68.0348 20.7228 68.0458 20.67 68.0917 20.6154L68.8978 20.0507C69.7846 19.4295 72.1571 20.7998 72.8981 21.4216C72.9566 21.4706 72.9651 21.5398 72.9193 21.5944C72.8734 21.6491 72.8038 21.6527 72.7453 21.6037C71.8678 20.8673 69.7377 19.7625 69.0622 20.2508L68.2561 20.8155C68.2061 20.8355 68.1365 20.8392 68.0975 20.8064ZM76.6776 28.006L75.3126 26.8606C75.2735 26.8279 75.2693 26.7933 75.2651 26.7587C75.2609 26.7242 75.2915 26.6877 75.3415 26.6677L77.8444 25.665C77.8944 25.6449 77.9487 25.6595 77.9682 25.6758C78.2802 25.9376 78.6829 26.3686 79.0355 26.8196C79.055 26.836 79.0787 26.8869 79.0481 26.9233C79.0176 26.9597 79.0218 26.9943 78.987 26.9961L76.8014 28.0168C76.7708 28.0532 76.7166 28.0387 76.6776 28.006ZM75.6213 26.8094L76.7719 27.7748L78.7573 26.8344C78.4674 26.467 78.1469 26.1361 77.8739 25.907L75.6213 26.8094ZM73.7525 25.5516C73.694 25.5025 73.6856 25.4333 73.7314 25.3787L74.037 25.0145C74.0828 24.9599 74.1524 24.9562 74.2109 25.0053C74.2694 25.0544 74.2779 25.1236 74.232 25.1782L73.9264 25.5423C73.8806 25.597 73.811 25.6007 73.7525 25.5516ZM74.6692 24.4591C72.873 22.3623 73.5304 20.8661 74.111 20.1741C74.1767 19.4226 74.5971 18.5652 74.7219 18.2976C74.5185 18.0648 74.4957 17.7355 74.6944 17.4988L75.3055 16.7705C75.5194 16.5155 75.902 16.4953 76.175 16.7243C76.2335 16.7734 76.2419 16.8426 76.1961 16.8972C76.1502 16.9518 76.0807 16.9555 76.0222 16.9064C75.8661 16.7755 75.6227 16.7884 75.5005 16.9341L74.8893 17.6624C74.7671 17.8081 74.7967 18.0501 74.9527 18.181C74.9917 18.2137 75.0001 18.2828 74.9891 18.3356C74.9891 18.3356 74.4618 19.3205 74.3697 20.143L75.0142 20.4046C75.088 20.4355 75.0964 20.5046 75.0854 20.5574C75.0701 20.5756 75.0701 20.5756 75.0548 20.5938C75.0242 20.6302 74.9742 20.6503 74.9199 20.6358L74.2559 20.3579C73.7406 21.0115 73.186 22.3457 74.8025 24.2607C76.969 25.5201 78.1867 24.7422 78.7409 24.1212L78.3519 23.5156C78.3282 23.4646 78.3393 23.4119 78.3698 23.3754C78.3851 23.3572 78.3851 23.3572 78.4004 23.339C78.4657 23.3007 78.5395 23.3316 78.5632 23.3826L78.9327 23.9719C79.7268 23.7384 80.6051 23.048 80.6051 23.048C80.6357 23.0116 80.7247 23.0243 80.7637 23.057C80.9197 23.1879 81.1632 23.175 81.2854 23.0294L81.8965 22.301C82.0188 22.1554 81.9892 21.9134 81.8332 21.7825C81.7747 21.7334 81.7663 21.6642 81.8121 21.6096C81.8579 21.555 81.9275 21.5513 81.986 21.6004C82.259 21.8295 82.3054 22.2097 82.0916 22.4646L81.4804 23.193C81.2971 23.4115 80.9535 23.4645 80.689 23.3045C80.4471 23.4739 79.6758 24.0368 78.947 24.2321C78.4054 24.9567 77.0461 25.8639 74.6692 24.4591ZM76.5449 22.6198L76.1549 22.2926C76.0964 22.2435 76.0879 22.1743 76.1338 22.1197C76.1796 22.0651 76.2492 22.0614 76.3077 22.1105L76.6977 22.4377C76.7562 22.4868 76.7646 22.556 76.7188 22.6106C76.6729 22.6652 76.6034 22.6689 76.5449 22.6198ZM77.7833 22.7281C77.7638 22.7117 77.2177 22.2535 77.0833 21.5822C76.3987 21.5663 75.8527 21.1082 75.8332 21.0918C75.5602 20.8627 75.5138 20.4824 75.7277 20.2275C75.9416 19.9726 76.3242 19.9523 76.5971 20.1814C76.6556 20.2305 76.6641 20.2996 76.6182 20.3543C76.5724 20.4089 76.5028 20.4126 76.4443 20.3635C76.2883 20.2326 76.0449 20.2455 75.9227 20.3912C75.8004 20.5369 75.83 20.7788 75.986 20.9097C75.986 20.9097 76.532 21.3679 77.1733 21.3165C77.2428 21.3128 77.3013 21.3619 77.3098 21.431C77.3858 22.0533 77.9165 22.5296 77.9165 22.5296C78.0725 22.6605 78.3159 22.6476 78.4382 22.5019C78.5604 22.3563 78.5308 22.1143 78.3748 21.9834C78.3163 21.9343 78.3079 21.8651 78.3537 21.8105C78.3996 21.7559 78.4691 21.7522 78.5276 21.8013C78.8006 22.0304 78.8471 22.4106 78.6332 22.6655C78.4193 22.9205 78.0563 22.9571 77.7833 22.7281ZM75.5403 18.5499C75.5013 18.5172 75.4971 18.4827 75.4929 18.4481C75.4887 18.4135 75.504 18.3953 75.5192 18.3771C75.5498 18.3407 75.5846 18.3388 75.6193 18.337L76.4209 18.451C76.4498 18.2581 76.533 18.0797 76.6553 17.9341L76.9609 17.5699C77.0831 17.4242 77.3265 17.4113 77.4825 17.5422L78.6525 18.524C78.75 18.6058 78.8017 18.7422 78.7991 18.8641L80.4369 19.0904C80.2029 18.894 79.9647 18.6631 79.7111 18.4504C76.4546 15.7178 74.4515 14.9369 74.4167 14.9387C74.343 14.9078 74.3192 14.8569 74.3456 14.7859L74.7195 13.5483C74.7458 13.4773 74.7959 13.4572 74.8697 13.4881C74.8697 13.4881 76.1503 13.9421 77.5641 14.1976C77.9941 14.2791 78.4336 14.1514 78.8883 14.0055C79.8826 13.6918 80.9966 13.3543 82.7516 14.827C84.6041 16.3814 84.432 17.6954 84.2804 18.7472C84.2268 19.1676 84.1842 19.5352 84.2764 19.8609C84.5938 21.0271 85.4388 22.3566 85.4583 22.373C85.4778 22.3893 85.482 22.4239 85.4709 22.4767C85.4752 22.5112 85.4446 22.5477 85.4098 22.5495L84.2559 23.1327C84.1906 23.1709 84.1168 23.14 84.0931 23.0891C84.0736 23.0728 83.1965 21.6231 80.7726 19.4031L78.6895 19.1135L78.4298 19.4231C78.0325 19.8965 77.3718 19.9315 76.8647 19.5061C76.5917 19.277 76.4536 19.006 76.4199 18.7294L75.6183 18.6154C75.5946 18.5644 75.5598 18.5663 75.5403 18.5499ZM77.345 17.7061C77.2865 17.657 77.2169 17.6607 77.1711 17.7153L76.8655 18.0795C76.5447 18.4618 76.6038 18.9458 77.0133 19.2895C77.4033 19.6167 77.925 19.589 78.2305 19.2249L78.5361 18.8607C78.582 18.8061 78.5735 18.7369 78.515 18.6878L77.345 17.7061ZM79.8639 18.2683C82.7499 20.69 83.9738 22.3995 84.2374 22.8379L85.1758 22.3532C84.975 21.9985 84.314 20.8853 84.0524 19.8901C83.9559 19.5299 84.0096 19.1095 84.0633 18.6892C84.1996 17.6555 84.3691 16.4635 82.6141 14.9908C80.976 13.6164 79.9622 13.9137 78.9832 14.2092C78.4937 14.357 78.039 14.5029 77.5199 14.4087C76.3384 14.193 75.2444 13.8335 74.9145 13.7119L74.6001 14.7202C75.0818 14.9382 76.9779 15.8466 79.8639 18.2683ZM79.6589 20.8888C79.6004 20.8397 79.5919 20.7706 79.6378 20.7159L79.7142 20.6249L79.4217 20.3794C79.3632 20.3304 79.3547 20.2612 79.4005 20.2066C79.4464 20.152 79.516 20.1483 79.5745 20.1973L80.3545 20.8519C80.413 20.9009 80.4214 20.9701 80.3756 21.0247C80.3298 21.0794 80.2602 21.083 80.2017 21.034L79.9092 20.7885L79.8328 20.8796C79.7869 20.9342 79.7174 20.9379 79.6589 20.8888ZM81.6029 18.176C81.5834 18.1597 81.5639 18.1433 81.5596 18.1087L81.0709 16.8299L79.7266 16.5706C79.6723 16.5561 79.6138 16.507 79.6207 16.4197C79.636 16.4015 79.6318 16.3669 79.647 16.3487C79.6776 16.3123 79.7124 16.3104 79.7471 16.3086L80.9829 16.5388L80.5416 15.3618C80.5179 15.3108 80.5485 15.2744 80.5637 15.2562C80.579 15.238 80.5943 15.2198 80.6291 15.2179C80.6791 15.1979 80.7529 15.2288 80.7961 15.296L81.2848 16.5749L82.6292 16.8341C82.6834 16.8487 82.7419 16.8978 82.7351 16.9851C82.7198 17.0033 82.724 17.0379 82.7087 17.0561C82.6782 17.0925 82.6434 17.0943 82.6086 17.0962L81.3729 16.866L81.8141 18.043C81.8379 18.0939 81.8073 18.1304 81.792 18.1486C81.7768 18.1668 81.7615 18.185 81.7267 18.1868C81.6766 18.2069 81.6419 18.2088 81.6029 18.176Z" fill="#51565F"/>
</g>
</g>
<g id="diamant">
  <path d="M12.0616 4.47525H8.44827L10.392 6.59435L12.0616 4.47525Z" fill="#56ACE0"/>
  <path d="M5.55118 6.79936H9.44851L7.49985 4.67285L5.55118 6.79936Z" fill="white"/>
  <path d="M11.2935 6.79936H13.8917L12.847 4.82104L11.2935 6.79936Z" fill="#FFC10D"/>
  <path d="M9.83137 7.63168H5.19061L7.51223 13.4555L9.83137 7.63168Z" fill="#FFC10D"/>
  <path d="M8.69522 12.7343L13.6052 7.63168H10.7303L8.69522 12.7343Z" fill="#56ACE0"/>
  <path d="M6.55143 4.47525H2.93811L4.60769 6.59435L6.55143 4.47525Z" fill="#56ACE0"/>
  <path d="M1.3945 7.63168L6.34644 12.7812L4.29405 7.63168H1.3945Z" fill="#56ACE0"/>
  <path d="M3.70623 6.79936L2.15275 4.82104L1.108 6.79936H3.70623Z" fill="#FFC10D"/>
  <path d="M14.9512 7.01917L13.2866 3.86278C13.215 3.72692 13.0742 3.6405 12.9186 3.6405H2.08604C1.93292 3.6405 1.78965 3.72696 1.71806 3.86278L0.0484725 7.01917C-0.0330181 7.17971 -0.00833788 7.37482 0.117623 7.50326L7.201 14.8731C7.38129 15.0436 7.63321 15.0411 7.80364 14.8731L14.887 7.50326C15.0081 7.37482 15.0327 7.17971 14.9512 7.01917ZM8.69522 12.7343L10.7303 7.62674H13.6027L8.69522 12.7343ZM1.3945 7.63171H4.29404L6.34644 12.7837L1.3945 7.63171ZM6.55144 4.47528L4.60526 6.59437L2.93816 4.47528H6.55144ZM12.0616 4.47528L10.3945 6.59437L8.44827 4.47528H12.0616ZM5.55117 6.79938L7.49984 4.67287L9.44851 6.79938H5.55117ZM3.70623 6.79938H1.108L2.15027 4.82355L3.70623 6.79938ZM9.83136 7.63171L7.50973 13.4604L5.18811 7.63171H9.83136ZM11.2934 6.79938L12.847 4.82355L13.8892 6.79938H11.2934Z" fill="#194F82"/>
  <path d="M13.1261 2.65256L14.6993 0.810101C14.85 0.634742 14.8302 0.372963 14.6524 0.222284C14.4771 0.0716428 14.2153 0.0913946 14.0646 0.269199L12.4913 2.11166C12.3407 2.28702 12.3604 2.5488 12.5382 2.69948C12.7457 2.87239 12.9927 2.79827 13.1261 2.65256Z" fill="#194F82"/>
  <path d="M1.87366 2.65255C2.00704 2.79826 2.25403 2.86989 2.46148 2.69946C2.63684 2.54882 2.65659 2.287 2.5084 2.11164L0.935127 0.269185C0.784486 0.0938255 0.522669 0.0740737 0.34731 0.22227C0.17195 0.372911 0.152199 0.634727 0.300395 0.810087L1.87366 2.65255Z" fill="#194F82"/>
  <path d="M7.49984 2.5291C7.72953 2.5291 7.91723 2.34389 7.91723 2.11172V0.417417C7.91727 0.18773 7.73201 3.05176e-05 7.49984 3.05176e-05C7.27016 3.05176e-05 7.08246 0.185247 7.08246 0.417417V2.11168C7.08246 2.34385 7.27016 2.5291 7.49984 2.5291Z" fill="#194F82"/>
</g>
  
</svg>
