<svg xmlns="http://www.w3.org/2000/svg" direction="ltr" width="678.6624616768563" height="480.3404318382345" viewBox="1988.5 5549.1595681617655 678.6624616768563 480.3404318382345" stroke-linecap="round" stroke-linejoin="round" style="background-color: transparent;"><defs/><g transform="matrix(1, 0, 0, 1, 2103.5, 5606.5)" opacity="1"><g transform="scale(1)"><path d="M0,0 Q0.456,0.456 0.58,0.808 T0.5435,1.5796 0.2957,2.4553 0.1609,3.3877 0.0875,4.3509 0.0476,5.3309 0.0259,6.548 0.0141,7.8941 0.0077,9.0824 0.0042,10.1848 0.0023,11.4685 0.0012,12.8509 0.0007,14.0589 0.0004,15.172 0.0002,16.4616 0.0001,17.8471 0.0001,19.0568 0,20.1709 0,21.461 0,22.8468 0,24.2846 0,25.7508 0,27.0045 0,28.3704 0,30.0255 0,31.6099 0,33.1558 0,34.6807 0,35.9663 0,37.3497 0,38.7862 0,40.2517 0,41.7329 0,42.9947 0,44.3651 0,45.7946 0,47.2563 0,48.9634 0,51.0321 0,53.0695 0,54.8618 0,56.5208 0,58.1073 0,59.6544 0,61.18 0,62.6939 0,64.2015 0,65.7056 0,67.2079 0,68.7091 0,70.2097 0,71.7101 0,73.2103 0,74.7104 0,76.2105 0,77.9385 0,79.5625 0,81.13 0,82.6667 0,83.9587 0,85.3455 0,87.012 0,88.6025 0,90.1518 0,91.6786 0,93.1931 0,94.9291 0,96.5574 0,98.1272 0,99.8932 0,101.5379 0,102.8886 0,104.3074 0,105.7632 0,107.2392 0,108.9541 0,110.571 0,111.9066 0,113.3172 0,114.9966 0,116.5941 0,118.1472 0,119.6761 0,121.1918 0,122.7003 0,124.205 0,125.7075 0,127.2089 0,128.7096 0,129.982 0,131.3582 0,132.7909 0,134.2542 0,135.7343 0,137.2235 0,138.9456 0,140.5664 0,142.1321 0,143.8959 0,145.7674 0,147.6974 0,149.6594 0,151.6387 0,153.6275 0,155.6213 0,157.618 0,159.6162 0,161.6152 0,163.6147 0,165.6144 0,167.6142 0,169.6141 0,171.6141 0,173.6141 0,175.6141 0,177.842 0,180.1941 0,182.3856 0,184.4898 0,186.7744 0,189.1573 0,191.3656 0,193.2509 -0.228,195.1885 -0.58,197.3825 -0.7715,199.7161 -0.8757,202.1256 -0.9324,204.3483 -0.9632,206.4695 -0.98,208.7634 -0.9891,211.1513 -0.9941,213.3623 -0.9968,215.4771 -0.9982,217.5395 -0.999,219.5735 -0.9995,221.82 -0.9997,224.1821 -0.9998,226.379 -0.9999,228.4862 -1,230.7725 -1,233.1562 -1,235.365 -1,237.4786 -1,239.5403 -1,241.5739 -1,243.5922 -1,245.6022 -1,247.6076 -1,249.8385 -1,252.1922 -1,254.6125 -1,257.0692 -1,259.5457 -1,262.0328 -1,264.2979 -1,266.67 -1,269.1005 -1,271.1067 -1,272.882 -1,274.7598 -1,276.4653 -1,278.0771 -1,279.866 -1,281.7511 -1,283.6886 -1,285.6546 -1,287.6361 -1,289.626 -1,291.6206 -1,293.3896 -1,295.0359 -1,296.8435 -1.228,298.5109 -1.58,300.1019 -1.7715,301.8794 -1.8757,303.7584 -1.9324,305.6926 -1.9632,307.6568 -1.98,309.6373 -1.9891,311.6267 -1.9941,313.6209 -1.9968,315.6178 -1.9982,317.6161 -1.999,319.6151 -1.7715,321.8426 -1.4197,324.1944 -1.2283,326.3858 -1.1242,328.7178 -1.0676,331.1265 -1.0368,333.3488 -1.02,335.6978 -1.0109,338.1156 -1.0059,340.3429 -1.0032,342.4665 -1.0018,344.5338 -1.001,346.5704 -1.0005,348.8183 -1.0003,351.1811 -1.0002,353.1505 -1.0001,355.1339 -1,357.1248 -1,358.8919 -1,360.7652 -1,362.6963 -1,364.4308 -1,366.0583 -1,367.8557 -1.228,369.7455 -1.58,371.6856 -1.7715,373.4249 -1.8757,374.8272 -1.9324,376.274 -1.9632,377.745 -1.98,379.0013 -1.9891,380.1407 -1.9941,381.2165 -1.9968,382.4858 -1.9982,383.8603 -1.999,385.064 -1.9995,386.1748 -2.2277,387.2351 -2.5799,388.4959 -2.852,390.1177 L-3,391 " stroke-linecap="round" fill="none" stroke="#9398b0" stroke-width="4.5" stroke-dasharray="none" stroke-dashoffset="0"/></g></g><g transform="matrix(1, 0, 0, 1, 2020.5, 5933.5)" opacity="1"><g transform="scale(1)"><path d="M0,0 Q2.28,0.456 3.1282,0.58 T4.6657,0.9995 5.9582,1.4557 7.1172,1.7039 8.2038,1.8389 9.0229,2.1404 9.6964,2.5324 10.5189,2.7456 11.4223,2.8616 12.3697,3.1527 13.3411,3.5391 14.3256,3.7493 15.3171,3.8636 16.3125,3.9258 17.31,3.9596 18.3086,3.978 19.3079,3.9881 20.5355,3.9935 21.8873,3.9965 23.0787,3.9981 24.1828,3.999 25.4674,3.9994 26.8503,3.9997 28.2866,3.9998 29.7519,3.9999 31.233,4 32.9508,4 34.7972,4.228 36.7137,4.58 38.4402,4.7715 40.0635,4.8757 41.8585,4.9324 43.747,4.9632 45.6864,4.98 47.6534,4.9891 49.6354,4.9941 51.3977,4.9968 53.0403,4.9982 54.8459,4.771 56.7402,4.4194 58.6827,4.2282 60.6514,4.1241 62.6343,4.0675 64.6251,4.0367 66.62,4.02 68.3893,4.0109 70.2638,4.0059 72.1955,3.7752 73.9304,3.4217 75.7861,3.2294 77.7076,3.1248 79.665,3.0679 81.6417,2.8089 83.6291,2.4401 85.6222,2.2394 87.6185,2.1302 89.6165,2.0708 91.6154,1.8105 93.6148,1.4409 95.6144,1.2399 97.6142,1.1305 99.6142,1.071 101.6141,0.8106 103.3861,0.441 105.262,0.2399 107.1945,0.1305 108.9298,0.071 110.7858,0.0386 112.7075,-0.207 114.6649,-0.5686 116.4137,-0.7653 117.821,-0.8723 119.4987,-0.9305 121.3233,-0.9622 122.9999,-0.9794 124.5959,-0.9888 126.1482,-0.9939 127.6766,-1.2247 129.1921,-1.5782 130.7005,-1.7706 131.9771,-1.8752 133.1275,-1.9321 134.4374,-1.9631 135.8339,-2.2079 137.0497,-2.5691 138.167,-2.7656 139.4589,-2.8725 140.8456,-2.9306 142.056,-2.9623 143.1705,-2.9795 144.4607,-2.9888 145.8466,-2.9939 147.2846,-3.2247 148.7508,-3.5782 150.2324,-3.7706 151.7224,-3.8752 153.217,-3.9321 154.9421,-3.9631 156.7925,-3.9799 158.4831,-3.9891 160.0868,-3.7661 161.8712,-3.4167 163.7539,-3.2267 165.6901,-3.1233 167.6554,-3.0671 169.6366,-3.0365 171.6263,-3.0199 173.6207,-3.0108 175.8457,-3.0059 178.196,-3.0032 180.1586,-3.0017 182.1383,-3.2289 184.3552,-3.5805 186.4732,-3.7718 188.5374,-3.8759 190.3444,-3.9325 192.4673,-3.9633 194.9902,-3.98 197.2747,-3.9891 199.4294,-3.9941 201.5136,-3.9968 203.3314,-3.9982 205.0043,-3.999 207.0543,-3.9995 209.5376,-3.9997 211.8004,-3.9998 213.9434,-3.9999 216.2492,-4 218.4156,-4 220.5061,-4 222.5553,-4 224.8101,-4 227.1767,-4 229.3761,-4 231.2566,-3.772 232.9636,-3.42 235.0322,-3.2285 237.2975,-3.1243 239.4418,-3.0676 241.5204,-3.0368 243.5631,-3.02 245.5863,-3.0109 247.599,-3.0059 249.6058,-3.0032 251.3816,-3.0018 252.8036,-3.001 254.4891,-2.7725 256.3181,-2.4203 258.225,-2.2286 260.4024,-2.1244 262.2709,-2.0677 263.7434,-2.0368 265.4564,-2.02 267.3003,-2.0109 268.9874,-2.0059 270.5891,-2.0032 272.1445,-2.0018 273.6746,-2.001 275.191,-2.0005 276.9279,-2.0003 278.5568,-2.0002 280.1269,-2.0001 281.893,-1.772 283.7658,-1.42 285.6966,-1.2285 287.4309,-1.1243 289.0584,-1.0676 290.8558,-1.0368 292.7455,-1.02 294.6856,-0.7829 296.425,-0.4259 298.2832,-0.2317 300.434,-0.126 302.5161,-0.0686 304.5608,-0.0373 306.5851,0.2077 308.5983,0.569 310.3775,0.7655 312.0293,0.8724 313.84,0.9306 315.5089,0.9623 317.3289,0.9795 319.4589,0.9888 321.3016,0.9939 322.9881,0.9967 324.8175,0.9982 326.7247,0.999 328.9023,0.9995 331.2268,0.9997 333.4034,0.9998 335.2714,0.9999 336.9717,1 338.8086,1 340.7199,1 342.4436,1 344.2933,1 346.2116,1 347.7111,1 349.4388,1 351.7467,1.228 353.9142,1.58 355.7773,1.7715 357.4749,1.8757 359.0823,1.9324 360.6408,1.9632 362.1726,1.98 363.6899,2.2171 364.9713,2.5741 366.1244,2.7683 367.2077,2.874 368.253,2.9314 369.5056,2.9627 371.1211,2.9869 L372,3 " stroke-linecap="round" fill="none" stroke="#9398b0" stroke-width="4.5" stroke-dasharray="none" stroke-dashoffset="0"/></g></g><g transform="matrix(1, 0, 0, 1, 2121.5614, 5919.9148) scale(0.9992779721187046, 0.9992779721187046)" opacity="1"><g transform="scale(1.0007225495822394)"><path d="M0,0 Q0,-2.28 0.228,-3.3539 T0.58,-5.24 0.7715,-6.95 1.1037,-8.5642 1.5124,-10.1264 1.7348,-11.6602 2.0837,-13.1786 2.5015,-14.9166 2.7288,-16.5461 2.8525,-18.1142 3.1478,-19.877 3.5364,-21.748 3.9758,-23.6778 4.4428,-25.8676 4.6969,-28.1988 5.0631,-30.3791 5.4903,-32.4748 5.9485,-34.5246 6.4234,-36.7797 6.9098,-39.1465 7.4024,-41.346 7.8983,-43.4545 8.3961,-45.5113 8.8949,-47.5399 9.3943,-49.3275 9.8939,-50.9839 10.3937,-52.797 10.8936,-54.6953 11.3936,-56.64 11.8935,-58.6099 12.3935,-60.5913 12.8935,-62.5789 13.3935,-64.5721 13.8935,-66.5684 14.6215,-68.7944 15.2455,-71.1454 15.813,-73.334 16.5777,-75.4343 17.4497,-77.4889 18.1521,-79.7466 18.7622,-82.1148 19.5478,-84.5431 20.4289,-87.0018 21.3642,-89.2491 22.329,-91.3836 23.3099,-93.4567 24.2994,-95.4965 25.2938,-97.5182 26.2907,-99.7557 27.289,-102.1106 28.5161,-104.5317 29.8676,-106.9888 31.0589,-109.4654 32.1629,-111.9527 33.4452,-114.2155 34.8245,-116.3562 36.0309,-118.4327 37.3711,-120.4744 38.7842,-122.725 40.0089,-125.0894 41.3592,-127.2876 42.7777,-129.3931 44.2334,-131.6763 45.935,-134.0583 47.5424,-136.2661 49.1008,-138.6072 50.8606,-141.0207 52.5019,-143.4714 54.0788,-145.9423 55.6206,-148.1984 57.1434,-150.5658 58.8838,-152.9936 60.7402,-155.2264 62.4319,-157.3507 64.0362,-159.4161 65.8209,-161.4516 67.7038,-163.471 69.64,-165.4815 71.6054,-167.4872 73.5842,-169.4903 75.5705,-171.4897 77.563,-173.4871 79.5589,-175.4857 81.3287,-177.485 83.2034,-179.4845 85.1353,-181.2563 87.096,-182.9042 89.3003,-184.9383 91.4114,-187.1826 93.4719,-189.3155 95.5048,-191.3878 97.5227,-193.1991 99.5324,-194.8685 101.7634,-196.6886 104.1148,-198.5885 106.306,-200.5317 108.41,-202.5009 110.6945,-204.4841 113.0774,-206.2469 115.2833,-207.8899 117.6211,-209.6957 120.0328,-211.3621 122.4848,-212.9503 124.9587,-214.496 127.2165,-216.0209 129.5825,-217.5344 132.0073,-218.8137 134.4663,-220.1937 136.9441,-221.6284 139.432,-222.8649 141.9231,-224.2215 144.416,-225.6436 147.1402,-226.8709 149.7621,-228.2202 152.3284,-229.6383 155.0902,-231.0937 157.7304,-232.5695 160.3066,-233.8283 162.8481,-234.9691 165.3706,-236.0456 168.1109,-237.0873 170.7393,-238.11 173.3069,-239.1223 176.0717,-240.129 178.7157,-241.1304 181.2941,-242.1288 184.0624,-243.128 186.9341,-243.8996 189.8643,-244.5473 192.8263,-245.3556 195.8034,-246.2514 199.0167,-247.1947 202.3607,-247.9358 205.5478,-248.567 208.6496,-249.3664 211.7027,-250.0292 214.7293,-250.6178 217.7438,-251.166 220.7517,-251.4642 223.5279,-251.8545 226.176,-252.2947 228.9822,-252.5343 231.6488,-252.6646 234.2394,-252.7354 236.7887,-252.774 239.0853,-252.795 241.2443,-252.8064 243.3308,-252.8126 245.3779,-252.588 247.4035,-252.0098 249.6163,-251.2392 L250.82,-250.82 " stroke-linecap="round" fill="none" stroke="#e599f7" stroke-width="4.496750874534171" stroke-dasharray="none" stroke-dashoffset="0"/></g></g><g transform="matrix(1, 0, 0, 1, 2200.5043, 5929.9076) scale(0.9992779721187046, 0.9992779721187046)" opacity="1"><g transform="scale(1.0007225495822394)"><path d="M0,0 Q0,1.368 0,1.5121 T0,1.5066 0,1.0476 0,0.1139 0,-1.078 0,-2.1825 0,-3.2393 0,-4.2702 0,-5.2847 0,-5.6086 0,-5.1031 0,-4.3721 0,-3.2904 0,-2.018 0,-0.6418 0,0.7909 0,2.0262 0,3.3823 0,5.0777 L0,6 " stroke-linecap="round" fill="none" stroke="#ffc034" stroke-width="4.496750874534171" stroke-dasharray="none" stroke-dashoffset="0"/></g></g><g transform="matrix(1, 0, 0, 1, 2200.5043, 5963.883) scale(0.9992779721187046, 0.9992779721187046)" opacity="1"><g transform="scale(1.0007225495822394)"><path d="M0,0 Q-1.368,-1.368 -1.9681,-1.7401 T-3.1226,-2.0866 -4.2067,-2.0471 -5.2502,-1.7976 -6.2715,-1.2059 -7.0552,-0.428 -7.7094,0.4512 -8.5214,1.3854 -9.1911,2.3497 -9.5554,3.3302 -9.7536,4.3196 -9.8614,5.3116 -9.692,6.305 -8.9159,7.0733 -7.812,7.4913 -6.7577,7.7187 -5.7282,7.8424 -4.7121,7.9097 -3.7034,7.9463 -2.4707,7.7382 -1.344,7.1713 -0.5032,6.6372 0.1823,6.1186 0.7832,5.3805 1.338,4.523 1.6399,3.6005 1.8041,3.0987 1.8934,3.2817 1.942,3.8372 1.9685,4.5955 1.9828,5.4616 2.2187,6.3866 2.803,7.3457 3.5768,8.0955 4.6795,8.7314 6.1891,9.3053 8.0032,9.7488 L8.99,9.99 " stroke-linecap="round" fill="none" stroke="#ffc034" stroke-width="4.496750874534171" stroke-dasharray="none" stroke-dashoffset="0"/></g></g><g transform="matrix(1, 0, 0, 1, 2197.5065, 5749.0383) scale(0.9992779721187046, 0.9992779721187046)" opacity="1"><g transform="scale(1.0007225495822394)"><path d="M0,0 Q-0.456,-1.824 -0.58,-2.5481 T-0.7715,-3.8942 -0.6477,-4.8544 -0.3524,-5.6025 0.0363,-6.2352 0.9318,-6.5794 1.8749,-6.5409 2.3879,-6.0663 2.895,-5.352 3.3989,-4.5075 3.673,-3.5921 3.3661,-2.6381 2.7432,-1.6631 2.1763,-0.9047 1.6399,-0.7202 1.1201,-0.8478 0.6093,-1.1452 0.3315,-1.763 0.1803,-2.5551 0.0981,-3.442 0.0534,-4.3804 0.029,-5.3447 0.2438,-6.0949 1.0446,-6.5031 2.1643,-6.7251 3.2294,-6.6202 4.0368,-6.1094 4.476,-5.3755 4.9429,-4.5203 5.425,-3.599 5.6872,-2.6419 5.8298,-1.6652 5.6794,-0.6779 5.1416,0.0872 4.621,0.7315 3.8818,1.0819 2.663,1.0289 L2,1 " stroke-linecap="round" fill="none" stroke="#ffc034" stroke-width="4.496750874534171" stroke-dasharray="none" stroke-dashoffset="0"/></g></g><g transform="matrix(1, 0, 0, 1, 2104.5736, 5751.0368) scale(0.9992779721187046, 0.9992779721187046)" opacity="1"><g transform="scale(1.0007225495822394)"><path d="M0,0 Q-0.912,0 -1.3881,0 T-2.3511,0 -3.331,0 -4.3201,0 -5.5398,0 -6.8851,0 -8.0729,0 -9.1751,0 -9.7747,0 -9.6449,0 -8.8903,0 -7.798,0 -6.7501,0 -5.4961,0 -3.6739,0 -1.7706,0 -0.0512,0 1.925,0 L3,0 " stroke-linecap="round" fill="none" stroke="#ffc034" stroke-width="4.496750874534171" stroke-dasharray="none" stroke-dashoffset="0"/></g></g><g transform="matrix(1, 0, 0, 1, 2052.6112, 5736.0477) scale(0.9992779721187046, 0.9992779721187046)" opacity="1"><g transform="scale(1.0007225495822394)"><path d="M0,0 Q-1.824,-0.912 -2.5481,-1.1601 T-3.8942,-1.5431 -4.8544,-1.5234 -5.6025,-1.2847 -6.4632,-0.6989 -7.3874,0.0758 -8.1182,0.9532 -8.5157,2.1146 -8.732,3.2023 -8.8496,4.2501 -8.9136,5.2738 -8.9485,6.2844 -8.9674,7.2901 -8.7497,8.2933 -8.4033,9.295 -8.2148,10.2959 -8.1123,11.2964 -7.8285,12.2967 -7.4462,13.2968 -7.2382,14.2969 -7.125,15.297 -7.2914,16.297 -7.61,17.297 -8.0113,18.297 -8.6856,19.2947 -9.5084,20.0632 -10.64,20.7093 -11.9396,21.2887 -13.3306,21.6039 -14.9993,21.7754 -16.591,21.6407 -17.913,21.3394 -19.0858,20.9498 -19.9496,20.2841 -20.6474,19.238 -21.2551,17.7569 -21.7246,15.9649 L-21.98,14.99 " stroke-linecap="round" fill="none" stroke="#ffc034" stroke-width="4.496750874534171" stroke-dasharray="none" stroke-dashoffset="0"/></g></g><g transform="matrix(1, 0, 0, 1, 2046.6155, 5747.0397) scale(0.9992779721187046, 0.9992779721187046)" opacity="1"><g transform="scale(1.0007225495822394)"><path d="M0,0 Q-1.824,0.912 -2.5481,1.1601 T-4.3479,1.3151 -6.7068,1.111 L-7.99,1 " stroke-linecap="round" fill="none" stroke="#ffc034" stroke-width="4.496750874534171" stroke-dasharray="none" stroke-dashoffset="0"/></g></g><g transform="matrix(1, 0, 0, 1, 2055.609, 5737.0469) scale(0.9992779721187046, 0.9992779721187046)" opacity="1"><g transform="scale(1.0007225495822394)"><path d="M0,0 Q-0.912,2.28 -1.3881,3.1282 T-2.1231,4.6634 -2.751,5.9524 -3.5485,7.3375 -4.4384,9.0031 -5.1505,10.5931 -5.7636,12.1421 -6.3228,13.8967 -6.6271,15.5353 -6.7926,16.8826 -6.4289,18.0716 -5.5493,19.1721 -4.3868,19.9965 -2.841,20.6335 L-2,20.98 " stroke-linecap="round" fill="none" stroke="#ffc034" stroke-width="4.496750874534171" stroke-dasharray="none" stroke-dashoffset="0"/></g></g><g transform="matrix(1, 0, 0, 1, 2063.6032, 5750.0375) scale(0.9992779721187046, 0.9992779721187046)" opacity="1"><g transform="scale(1.0007225495822394)"><path d="M0,0 Q-0.912,-0.456 -1.3881,-0.58 T-2.1231,-0.5435 -2.751,-0.0677 -3.3205,0.6472 -3.8584,1.4921 -4.379,2.6357 -4.6621,3.9418 -4.5882,5.1061 -4.092,5.9651 -3.366,6.4325 -2.5151,6.6867 -1.5962,6.825 -0.6403,6.6745 0.3357,6.1389 1.3226,5.3916 2.0875,4.529 2.7316,4.0598 3.538,4.2605 4.4327,5.0514 5.4478,6.307 L6,6.99 " stroke-linecap="round" fill="none" stroke="#ffc034" stroke-width="4.496750874534171" stroke-dasharray="none" stroke-dashoffset="0"/></g></g><g transform="matrix(1, 0, 0, 1, 2070.5982, 5738.0462) scale(0.9992779721187046, 0.9992779721187046)" opacity="1"><g transform="scale(1.0007225495822394)"><path d="M0,0 Q1.368,1.824 1.9681,2.5481 T2.8946,3.8942 3.6267,5.3082 4.2529,6.7591 4.8216,8.2324 5.3589,9.9459 5.6513,11.79 5.8103,13.7052 5.6688,15.6591 5.3638,17.6317 4.7419,19.8425 3.6137,22.5222 L3,23.98 " stroke-linecap="round" fill="none" stroke="#ffc034" stroke-width="4.496750874534171" stroke-dasharray="none" stroke-dashoffset="0"/></g></g><g transform="matrix(1, 0, 0, 1, 2106.5722, 5833.9769) scale(0.9992779721187046, 0.9992779721187046)" opacity="1"><g transform="scale(1.0007225495822394)"><path d="M0,0 Q1.824,-1.368 2.5481,-1.7401 T3.6662,-2.5426 4.5024,-3.2072 5.411,-3.7967 6.131,-4.5734 6.7507,-5.2239 7.3158,-5.8035 7.8513,-6.3446 8.3705,-6.8669 8.881,-7.379 9.3867,-7.8856 9.8898,-8.6172 10.6195,-9.4712 11.4724,-10.1638 12.1645,-10.7685 12.7689,-11.5535 13.5537,-12.2086 14.4367,-12.7929 15.373,-13.5668 16.1103,-14.4438 16.7395,-15.3768 17.5377,-16.3404 18.428,-17.3206 19.366,-18.3099 20.558,-19.3017 21.8904,-20.295 23.0713,-21.2914 24.1696,-22.2894 25.2232,-23.2883 26.2523,-24.2877 27.2681,-25.2874 28.2767,-26.2872 29.2814,-27.2871 30.056,-28.2871 30.7053,-29.2871 31.5146,-30.287 32.4108,-31.059 33.3521,-31.935 34.3179,-33.0932 35.2992,-34.177 36.5171,-35.2226 37.6356,-36.2474 38.4721,-37.2609 39.3831,-38.2683 40.3347,-39.2723 41.3084,-40.2744 42.0661,-41.2756 42.7063,-42.2763 43.5105,-43.2766 44.4041,-44.2768 45.3461,-45.0489 46.0866,-45.6969 46.7174,-46.5054 47.5143,-47.399 48.4016,-48.3388 49.3402,-49.0781 50.0788,-49.7082 50.7086,-50.507 51.5073,-51.3976 52.3977,-52.11 53.3381,-52.7256 54.3057,-53.5165 55.2881,-54.4027 56.0505,-55.3408 56.6932,-56.0792 57.4989,-56.7088 58.3931,-57.5074 59.3356,-58.1698 60.0763,-58.7581 60.7073,-59.5342 61.5042,-60.4124 62.3915,-61.1181 63.3302,-61.9557 64.2968,-63.0931 65.2787,-64.1679 66.2688,-65.2085 67.2634,-66.2306 68.2605,-67.2427 69.2589,-68.2492 70.258,-69.2528 71.2576,-70.2547 72.2573,-71.0278 73.2572,-71.6763 74.0291,-72.4851 74.677,-73.1531 75.4832,-73.7445 76.3755,-74.5222 77.3169,-75.1733 78.057,-75.7532 78.6877,-76.2944 79.4867,-76.8168 80.3774,-77.557 81.09,-78.4156 81.7056,-79.1107 82.4965,-79.7169 83.1547,-80.5026 83.7408,-81.3861 84.5156,-82.3227 85.3931,-83.2882 86.3265,-84.2694 87.0623,-85.2592 87.6905,-86.0256 88.4883,-86.6706 89.376,-87.4774 90.0846,-88.3724 90.6981,-89.0872 91.4879,-89.7018 92.3735,-90.4899 93.3112,-91.3746 94.2774,-92.3118 95.031,-93.2777 95.6689,-94.0312 96.472,-94.669 97.1368,-95.472 97.7265,-96.1369 98.5033,-96.7265 99.3819,-97.5033 100.3158,-98.3819 101.2799,-99.3158 102.2581,-100.2799 103.0159,-101.2603 103.6562,-102.2474 104.4605,-103.0101 105.354,-103.653 106.2961,-104.4588 107.2646,-105.3531 108.2475,-106.2956 109.2381,-107.2643 110.2331,-108.2473 111.2303,-109.2381 112.2288,-110.233 113.228,-111.2303 113.9995,-112.2288 114.8753,-113.228 115.8077,-114.2275 116.5406,-115.2273 117.3931,-116.2249 118.3128,-117.2213 119.4971,-118.2193 120.8254,-119.2183 122.004,-120.2177 123.1011,-121.2174 124.154,-122.2172 125.1827,-123.4451 126.1984,-124.7971 127.2069,-126.2166 128.4395,-127.6728 129.7918,-128.921 130.9811,-130.2817 132.0841,-131.7036 133.3682,-132.9332 134.7507,-134.058 135.9588,-135.126 137.072,-136.1629 138.3616,-137.183 139.7471,-138.194 140.9568,-139.1999 142.2989,-140.4312 143.7107,-141.7849 144.9325,-142.9774 146.2811,-144.0798 147.6988,-145.3613 148.926,-146.7424 150.2776,-147.9497 151.6968,-149.0625 152.9249,-150.1238 154.277,-151.1572 155.6965,-152.1754 156.9247,-153.1852 158.0466,-154.1906 159.3386,-155.1935 160.7255,-156.1951 161.936,-157.4217 163.0504,-158.7707 164.1127,-159.9605 165.3746,-161.0638 166.7451,-162.12 167.9466,-163.1506 169.0562,-164.1672 170.1159,-165.1762 171.374,-166.1811 172.7402,-167.4118 173.9394,-168.7653 175.0477,-169.9576 176.1067,-171.0622 177.1388,-172.1168 178.1562,-173.1443 179.1657,-174.1592 180.3989,-175.1673 181.7537,-176.1717 182.9467,-177.1742 184.0517,-178.1755 185.1066,-179.1762 186.3621,-180.1766 187.7292,-180.9488 188.9288,-181.5968 190.0374,-182.4054 191.0965,-183.3013 192.1287,-184.2446 193.1462,-185.2115 194.1557,-186.1912 195.1608,-187.1802 196.1637,-188.1742 197.1652,-189.1709 198.166,-190.1691 199.1642,-191.1682 200.1609,-191.9396 200.9311,-192.5873 201.5781,-193.3957 202.3861,-194.2914 203.2816,-195.2347 204.2248,-196.2038 205.1939,-197.187 206.1771,-198.1779 207.3959,-198.9449 208.9854,-199.5376 L209.85,-199.86 " stroke-linecap="round" fill="none" stroke="#4dabf7" stroke-width="4.496750874534171" stroke-dasharray="none" stroke-dashoffset="0"/></g></g><g transform="matrix(1, 0, 0, 1, 2330.4105, 5606.1415) scale(0.9992779721187046, 0.9992779721187046)" opacity="1"><g transform="scale(1.0007225495822394)"><path d="M0,0 Q-0.912,2.28 -1.1601,3.3539 T-1.5431,5.24 -1.7514,6.722 -1.6368,7.9842 -1.1184,9.1268 -0.6084,10.2044 -0.103,11.0187 0.628,11.4616 1.7096,11.7025 2.982,11.6056 4.1302,11.0969 5.2086,10.3642 6.0209,9.5095 6.6908,8.5886 7.2832,7.6339 7.6055,6.6609 8.0088,5.9035 8.4563,5.7195 8.6996,6.0731 8.832,6.7192 9.1321,7.5267 9.5233,8.65 9.9641,9.945 10.4319,11.3335 10.9144,13.0009 11.4049,14.8199 11.6717,16.7215 12.0448,18.6656 12.4758,20.633 12.7103,22.3872 12.8378,24.0255 12.6792,25.6008 12.1369,26.9137 11.3859,28.0839 10.5214,28.9485 9.5951,29.6469 8.6352,30.2548 7.4312,30.5855 6.0946,30.7654 4.9115,30.6352 3.5838,30.1085 2.4056,29.3659 1.5366,28.2779 0.5414,26.7896 L0,25.98 " stroke-linecap="round" fill="none" stroke="#4dabf7" stroke-width="4.496750874534171" stroke-dasharray="none" stroke-dashoffset="0"/></g></g><g transform="matrix(1, 0, 0, 1, 2357.391, 5609.1394) scale(0.9992779721187046, 0.9992779721187046)" opacity="1"><g transform="scale(1.0007225495822394)"><path d="M0,0 Q2.28,-0.456 3.1282,-0.58 T4.8914,-0.7715 6.8983,-0.9195 L7.99,-1 " stroke-linecap="round" fill="none" stroke="#4dabf7" stroke-width="4.496750874534171" stroke-dasharray="none" stroke-dashoffset="0"/></g></g><g transform="matrix(1, 0, 0, 1, 2355.3924, 5617.1336) scale(0.9992779721187046, 0.9992779721187046)" opacity="1"><g transform="scale(1.0007225495822394)"><path d="M0,0 Q2.28,0 3.1282,0 T4.6634,0 5.9524,0 7.3375,0 9.0554,0 L9.99,0 " stroke-linecap="round" fill="none" stroke="#4dabf7" stroke-width="4.496750874534171" stroke-dasharray="none" stroke-dashoffset="0"/></g></g><g transform="matrix(1, 0, 0, 1, 2396.3628, 5596.1487) scale(0.9992779721187046, 0.9992779721187046)" opacity="1"><g transform="scale(1.0007225495822394)"><path d="M0,0 Q0,-1.824 0,-2.5481 T-0.228,-3.6662 -0.808,-4.0464 -1.5796,-3.7972 -2.4553,-3.2057 -3.1597,-2.4279 -3.7709,-1.3208 -4.3313,-0.0345 -4.6363,1.1212 -4.8021,2.4339 -4.8924,3.8321 -4.9414,5.2744 -4.9681,6.7407 -4.7547,7.9944 -4.4105,9.3604 -3.9953,10.7875 -3.5415,12.2478 -3.0666,13.7263 -2.5802,15.2145 -2.3156,16.7081 -2.1717,17.9767 -2.0934,19.3485 -2.0508,20.7764 -2.0276,22.0093 -2.015,23.1359 -2.2362,24.2048 -2.5845,25.2423 -3.002,26.2627 -3.6851,27.2738 -4.5127,28.2798 -5.4166,29.0551 -6.3621,29.4769 -7.3324,29.9343 -8.3163,30.4111 -9.5355,30.6705 -10.8827,30.5837 -12.0717,30.3084 -13.1744,30.1586 -14.2303,29.8492 -15.2607,29.4528 -16.0493,29.0092 -16.4782,28.0839 -16.8097,26.7213 L-16.99,25.98 " stroke-linecap="round" fill="none" stroke="#4dabf7" stroke-width="4.496750874534171" stroke-dasharray="none" stroke-dashoffset="0"/></g></g><g transform="matrix(1, 0, 0, 1, 2398.3614, 5614.1357) scale(0.9992779721187046, 0.9992779721187046)" opacity="1"><g transform="scale(1.0007225495822394)"><path d="M0,0 Q-2.28,0 -3.1282,0 T-5.1194,0.228 -7.6263,0.728 L-8.99,1 " stroke-linecap="round" fill="none" stroke="#4dabf7" stroke-width="4.496750874534171" stroke-dasharray="none" stroke-dashoffset="0"/></g></g><g transform="matrix(1, 0, 0, 1, 2417.3477, 5599.1466) scale(0.9992779721187046, 0.9992779721187046)" opacity="1"><g transform="scale(1.0007225495822394)"><path d="M0,0 Q-1.824,2.28 -2.5481,3.3539 T-4.1199,5.696 -5.6567,8.11 -6.7207,10.3353 -7.2995,12.2298 -7.6144,13.9445 -7.7857,15.7892 -7.8788,17.4768 -7.9295,19.0765 -7.7291,20.6285 -7.3921,21.9288 -6.983,22.8641 -6.0788,23.601 -4.7324,24.4941 L-4,24.98 " stroke-linecap="round" fill="none" stroke="#4dabf7" stroke-width="4.496750874534171" stroke-dasharray="none" stroke-dashoffset="0"/></g></g><g transform="matrix(1, 0, 0, 1, 2429.339, 5610.1386) scale(0.9992779721187046, 0.9992779721187046)" opacity="1"><g transform="scale(1.0007225495822394)"><path d="M0,0 Q-2.28,1.368 -2.9002,1.9681 T-3.8577,3.1226 -4.3786,4.4324 -4.6619,5.8267 -4.8161,7.0412 -4.672,8.1578 -4.1375,8.9933 -3.1628,9.4478 -1.9486,9.695 -0.832,9.6015 0.2314,9.3227 1.2659,8.943 2.2846,8.2804 3.0668,7.4663 3.4924,6.5696 3.7238,5.6259 3.8498,5.1125 3.9183,5.2892 3.9555,5.839 4.2038,6.5919 4.5669,7.4574 4.9924,8.3843 5.9056,9.3445 7.3121,10.0948 8.9892,10.275 10.9327,10.0904 L11.99,9.99 " stroke-linecap="round" fill="none" stroke="#4dabf7" stroke-width="4.496750874534171" stroke-dasharray="none" stroke-dashoffset="0"/></g></g><g transform="matrix(1, 0, 0, 1, 2443.3289, 5597.148) scale(0.9992779721187046, 0.9992779721187046)" opacity="1"><g transform="scale(1.0007225495822394)"><path d="M0,0 Q0.912,1.824 1.3881,2.5481 T2.1231,3.8942 2.751,5.3082 3.3205,6.7591 3.6304,8.2324 3.7989,10.1739 4.1186,12.37 4.5205,14.7047 4.7392,17.3405 4.8581,19.9121 4.9228,22.4511 4.73,24.9723 4.3971,27.2558 3.988,29.182 3.0815,30.6859 1.7334,32.1717 L1,32.98 " stroke-linecap="round" fill="none" stroke="#4dabf7" stroke-width="4.496750874534171" stroke-dasharray="none" stroke-dashoffset="0"/></g></g><g transform="matrix(1, 0, 0, 1, 2472.3079, 5605.1422) scale(0.9992779721187046, 0.9992779721187046)" opacity="1"><g transform="scale(1.0007225495822394)"><path d="M0,0 Q0,2.736 -0.228,3.9339 T-0.58,6.0115 -0.7715,7.5977 -0.8757,8.9166 -0.9324,10.3181 -0.9762,12.0486 L-1,12.99 " stroke-linecap="round" fill="none" stroke="#4dabf7" stroke-width="4.496750874534171" stroke-dasharray="none" stroke-dashoffset="0"/></g></g><g transform="matrix(1, 0, 0, 1, 2476.3051, 5611.1379) scale(0.9992779721187046, 0.9992779721187046)" opacity="1"><g transform="scale(1.0007225495822394)"><path d="M0,0 Q-2.28,0.456 -3.3539,0.352 T-5.7089,0.124 L-6.99,0 " stroke-linecap="round" fill="none" stroke="#4dabf7" stroke-width="4.496750874534171" stroke-dasharray="none" stroke-dashoffset="0"/></g></g><g transform="matrix(1, 0, 0, 1, 2501.287, 5601.1451) scale(0.9992779721187046, 0.9992779721187046)" opacity="1"><g transform="scale(1.0007225495822394)"><path d="M0,0 Q0.912,-1.824 1.1601,-2.5481 T1.5431,-3.8942 1.7514,-5.3082 1.8648,-6.7591 1.4704,-8.0044 0.5719,-8.6818 -0.1449,-8.5944 -0.7628,-8.0908 -1.555,-7.3631 -2.2139,-6.5135 -2.8004,-5.5954 -3.3474,-4.4119 -3.873,-3.0841 -4.3869,-1.6777 -4.6665,-0.2287 -5.0466,1.2436 -5.4813,2.9565 -5.7178,4.7981 -5.8465,6.4816 -5.9165,8.0814 -5.9546,9.8637 -5.9753,11.7453 -5.7586,13.4529 -5.4127,15.0658 -4.9965,16.6272 -4.5421,18.1584 -4.2949,19.673 -4.1604,21.409 -4.0873,23.2654 -4.0475,24.7312 -4.0258,25.9847 -4.242,27.1225 -5.0414,27.9695 -6.158,28.4303 -7.2214,28.681 -8.4839,28.8173 -10.0827,28.6635 -11.8644,28.1238 -13.5177,27.3742 -14.8731,26.5105 -16.2944,25.3566 -18.0402,23.8173 L-18.99,22.98 " stroke-linecap="round" fill="none" stroke="#4dabf7" stroke-width="4.496750874534171" stroke-dasharray="none" stroke-dashoffset="0"/></g></g><g transform="matrix(1, 0, 0, 1, 2499.2884, 5616.1343) scale(0.9992779721187046, 0.9992779721187046)" opacity="1"><g transform="scale(1.0007225495822394)"><path d="M0,0 L-4,-1 " stroke-linecap="round" fill="none" stroke="#4dabf7" stroke-width="4.496750874534171" stroke-dasharray="none" stroke-dashoffset="0"/></g></g><g transform="matrix(1, 0, 0, 1, 2512.2791, 5581.1596) scale(0.9992779721187046, 0.9992779721187046)" opacity="1"><g transform="scale(1.0007225495822394)"><path d="M0,0 Q0,2.28 0,3.3539 T0,5.24 -0.228,6.95 -0.728,8.9189 L-1,9.99 " stroke-linecap="round" fill="none" stroke="#4dabf7" stroke-width="4.496750874534171" stroke-dasharray="none" stroke-dashoffset="0"/></g></g><g transform="matrix(1, 0, 0, 1, 2525.2697, 5595.1495) scale(0.9992779721187046, 0.9992779721187046)" opacity="1"><g transform="scale(1.0007225495822394)"><path d="M0,0 Q-0.912,1.824 -1.3881,2.5481 T-2.3511,3.8942 -3.331,5.3082 -4.3201,6.9871 -5.3118,8.5844 -6.3051,10.1374 -7.3014,11.8942 -8.2994,13.7619 -9.2983,15.6899 -10.2977,17.6485 -11.0694,19.6236 -11.7172,21.6101 -12.2976,23.3748 -12.6133,25.0188 -12.7851,26.5971 -12.8785,27.9117 -12.9294,29.3108 -12.957,30.756 -12.7441,31.9981 -12.1722,33.3556 -11.4065,35.0489 L-10.99,35.97 " stroke-linecap="round" fill="none" stroke="#4dabf7" stroke-width="4.496750874534171" stroke-dasharray="none" stroke-dashoffset="0"/></g></g><g transform="matrix(1, 0, 0, 1, 2531.2653, 5612.1372) scale(0.9992779721187046, 0.9992779721187046)" opacity="1"><g transform="scale(1.0007225495822394)"><path d="M0,0 Q-1.368,-0.912 -1.9681,-0.9321 T-3.1226,-0.735 -3.9787,-0.1719 -4.6724,0.5905 -5.5035,1.6892 -6.1814,2.9709 -6.5501,4.3499 -6.7507,6.0098 -6.8598,7.5968 -6.9192,8.9161 -6.7258,10.0898 -6.1668,10.9563 -5.4067,11.4277 -4.3093,11.6841 -3.0282,11.5956 -1.8754,11.0914 -1.0202,10.3612 -0.327,9.5079 0.2781,8.5878 0.8353,7.6335 1.3664,6.6606 1.6553,6.1314 1.8125,6.2972 1.898,6.8411 1.9445,7.593 1.9698,8.458 2.2116,9.3846 2.7991,10.3447 3.5747,11.5509 4.6784,12.6632 6.1755,13.5225 L6.99,13.99 " stroke-linecap="round" fill="none" stroke="#4dabf7" stroke-width="4.496750874534171" stroke-dasharray="none" stroke-dashoffset="0"/></g></g><g transform="matrix(1, 0, 0, 1, 2542.2574, 5597.148) scale(0.9992779721187046, 0.9992779721187046)" opacity="1"><g transform="scale(1.0007225495822394)"><path d="M0,0 Q0.912,2.736 1.1601,3.9339 T1.5431,6.0115 1.9794,7.8257 2.4448,9.7246 2.698,11.8976 2.8357,14.2198 2.9106,16.6207 2.9514,19.2925 2.9735,22.114 2.9856,25.0169 2.7642,27.7361 2.4157,30.1273 1.7701,32.3379 0.6237,34.6903 L0,35.97 " stroke-linecap="round" fill="none" stroke="#4dabf7" stroke-width="4.496750874534171" stroke-dasharray="none" stroke-dashoffset="0"/></g></g><g transform="matrix(1, 0, 0, 1, 2564.2415, 5594.1502) scale(0.9992779721187046, 0.9992779721187046)" opacity="1"><g transform="scale(1.0007225495822394)"><path d="M0,0 Q-0.912,1.824 -1.3881,2.7761 T-2.3511,4.6999 -3.559,6.6562 -4.8978,8.8604 -6.0799,11.4275 -7.1789,13.964 -8.0048,16.4816 -8.454,18.9889 -8.6984,21.2648 -8.8314,23.4149 -8.9037,25.4966 -8.9431,27.541 -8.9645,29.5652 -8.7481,31.3504 -8.1744,32.7752 -7.1806,34.232 -5.7683,36.0053 L-5,36.97 " stroke-linecap="round" fill="none" stroke="#4dabf7" stroke-width="4.496750874534171" stroke-dasharray="none" stroke-dashoffset="0"/></g></g><g transform="matrix(1, 0, 0, 1, 2587.2249, 5612.1372) scale(0.9992779721187046, 0.9992779721187046)" opacity="1"><g transform="scale(1.0007225495822394)"><path d="M0,0 Q-1.368,1.824 -1.9681,2.5481 T-3.3506,3.8942 -4.7845,5.0802 -6.2462,6.407 -7.7254,7.8129 -9.214,9.0336 -10.7079,10.1537 -12.4325,11.4471 -14.7366,13.094 L-15.99,13.99 " stroke-linecap="round" fill="none" stroke="#4dabf7" stroke-width="4.496750874534171" stroke-dasharray="none" stroke-dashoffset="0"/></g></g><g transform="matrix(1, 0, 0, 1, 2570.2372, 5614.1357) scale(0.9992779721187046, 0.9992779721187046)" opacity="1"><g transform="scale(1.0007225495822394)"><path d="M0,0 Q1.368,2.28 1.9681,3.1282 T3.3506,4.6634 4.7845,6.1804 6.0182,7.6896 7.3733,8.9666 9.0225,10.1172 10.6037,10.9712 11.9199,11.6638 13.3198,12.2685 15.0492,12.7358 L15.99,12.99 " stroke-linecap="round" fill="none" stroke="#4dabf7" stroke-width="4.496750874534171" stroke-dasharray="none" stroke-dashoffset="0"/></g></g><g transform="matrix(1, 0, 0, 1, 2592.2213, 5618.1329) scale(0.9992779721187046, 0.9992779721187046)" opacity="1"><g transform="scale(1.0007225495822394)"><path d="M0,0 Q2.736,0 3.7059,0 T5.4315,0 7.0542,0 8.9556,0 L9.99,0 " stroke-linecap="round" fill="none" stroke="#4dabf7" stroke-width="4.496750874534171" stroke-dasharray="none" stroke-dashoffset="0"/></g></g><g transform="matrix(1, 0, 0, 1, 2616.204, 5613.1365) scale(0.9992779721187046, 0.9992779721187046)" opacity="1"><g transform="scale(1.0007225495822394)"><path d="M0,0 Q0,-0.912 -0.228,-1.1601 T-0.808,-1.3151 -1.5796,-0.9434 -2.4553,-0.0572 -3.3877,1.1089 -4.1229,2.4272 -4.7509,3.8284 -5.3205,5.2724 -5.6303,6.7396 -5.5709,7.9938 -5.3106,9.1321 -4.941,9.9793 -4.0559,10.4402 -2.8904,10.6909 -2.0284,10.5993 -1.3314,10.0935 -0.4963,9.3623 0.186,8.5085 0.5572,7.5904 0.9871,6.8652 1.677,6.4706 2.2803,6.4817 2.8365,6.9415 3.595,7.6476 4.2357,8.4877 4.8122,9.4008 5.5796,10.3535 6.4507,11.3277 7.6086,12.0857 9.151,12.6714 L9.99,12.99 " stroke-linecap="round" fill="none" stroke="#4dabf7" stroke-width="4.496750874534171" stroke-dasharray="none" stroke-dashoffset="0"/></g></g><g transform="matrix(1, 0, 0, 1, 2631.1931, 5596.1487) scale(0.9992779721187046, 0.9992779721187046)" opacity="1"><g transform="scale(1.0007225495822394)"><path d="M0,0 Q0.912,2.736 1.1601,3.7059 T1.7711,5.6595 2.3315,7.6342 2.8643,9.6204 3.3822,11.613 3.6639,13.8369 3.8172,16.1867 3.9005,18.6027 3.9459,21.2828 3.7426,24.1087 3.176,27.242 2.1837,30.3123 0.9599,32.8922 -0.1618,35.2077 -1.228,37.1513 -2.492,38.6646 -4.1164,40.1577 L-5,40.97 " stroke-linecap="round" fill="none" stroke="#4dabf7" stroke-width="4.496750874534171" stroke-dasharray="none" stroke-dashoffset="0"/></g></g></svg>