<svg xmlns="http://www.w3.org/2000/svg" direction="ltr" width="738.7643675956019" height="798.4222560233502" viewBox="-554.0748564973361 4398.383818243672 738.7643675956019 798.4222560233502" stroke-linecap="round" stroke-linejoin="round" style="background-color: transparent;"><defs/><g transform="matrix(1, 0, 0, 1, -360.2547, 4481.2154)" opacity="1"><g transform="scale(1)"><path d="M1.4429,0 T1.4369,1.471 1.4287,4.4552 1.4263,8.4254 1.4317,13.0613 1.4416,17.3439 1.4471,21.2871 1.4474,25.1337 1.4457,29.3134 1.4444,33.588 1.4453,37.5266 1.4501,41.6179 1.4597,45.9976 1.4701,49.9654 1.4778,53.8176 1.484,57.7553 1.489,61.8463 1.4932,66.3519 1.4964,70.8443 1.7319,74.9394 2.1103,78.3345 2.3278,81.2797 2.4399,84.2978 2.4995,87.3574 2.5319,90.4404 2.5528,93.85 2.5656,97.7318 2.5705,101.9226 2.5686,106.5734 2.5625,110.9871 2.929,115.1353 3.3703,118.7919 3.4798,121.7305 3.5372,124.7454 3.8036,127.6867 4.2655,131.2804 4.5405,135.9477 4.6164,140.8748 5.0081,145.5268 5.494,149.5678 5.634,153.7718 6.0422,158.2247 6.5329,162.8366 6.9073,168.0757 7.3147,172.3373 7.5738,176.3911 7.7204,180.9491 7.763,185.0897 7.777,189.609 7.7826,194.3631 7.7853,198.6808 7.5273,202.9047 7.0875,207.076 6.8536,211.075 6.7859,215.6862 6.7653,220.61 6.3832,224.9314 5.9095,228.7512 5.7863,232.8483 5.4606,236.8656 5.007,240.216 4.8006,243.3723 4.7336,246.8866 4.715,250.9947 4.3286,255.2343 3.8487,259.5113 3.7204,263.5977 3.679,267.4898 3.6633,271.5639 3.6566,275.3197 3.6511,278.998 3.2686,282.7499 2.7515,286.5006 2.6135,288.4805 A1.5774,1.5774 0 0 1 -0.5335,288.2595 T-0.4585,287.1864 -0.1542,284.0706 0.2815,280.4903 0.4866,277.0761 0.4847,273.3777 0.4856,269.5059 0.4993,265.4655 0.5687,261.2496 0.8477,256.8608 1.2937,253.0134 1.527,249.0684 1.5673,244.9414 1.7134,241.3154 2.2062,237.3095 2.6165,232.7642 2.7607,228.5022 3.2498,224.7259 3.6295,220.5771 3.6476,215.6549 3.719,210.9618 3.986,206.6736 4.4253,202.591 4.6541,198.6812 4.6551,194.3644 4.6548,189.6137 4.6476,185.1069 4.6139,181.012 4.4853,176.5776 4.2617,172.7391 3.8552,168.3885 3.47,163.0741 2.9802,158.4355 2.5623,153.8535 2.4327,149.8074 1.9475,145.7189 1.5474,140.9134 1.4771,136.0774 1.226,131.6358 0.7644,127.96 0.4815,124.804 0.3667,120.4759 -0.1052,115.2981 -0.4826,110.9971 -0.4892,106.5737 -0.4927,101.9242 -0.4935,97.7384 -0.5013,93.8652 -0.5164,90.4692 -0.542,87.4126 -0.5923,84.4049 -0.8039,80.2011 -1.24,75.2393 -1.4964,70.8443 -1.4932,66.3519 -1.489,61.8463 -1.484,57.7553 -1.4778,53.8176 -1.4701,49.9654 -1.4597,45.9976 -1.4501,41.6179 -1.4453,37.5266 -1.4444,33.588 -1.4457,29.3134 -1.4474,25.1337 -1.4471,21.2871 -1.4416,17.3439 -1.4317,13.0613 -1.4263,8.4254 -1.4287,4.4552 -1.4369,1.471 -1.4429,0 A1.4429,1.4429 0 0 1 1.4429,0 Z" stroke-linecap="round" fill="#f2f2f2"/></g></g><g transform="matrix(1, 0, 0, 1, -522.0749, 4640.9609)" opacity="1"><g transform="scale(1)"><path d="M0,-1.4179 T1.471,-1.4141 4.8302,-1.6349 8.5218,-2.0717 12.3135,-2.3224 15.8248,-2.3837 18.888,-2.4222 23.1504,-2.4569 28.2572,-2.4885 33.1782,-2.515 38.2924,-2.5405 43.0845,-2.5658 47.4128,-2.5929 51.9856,-2.6249 56.6262,-2.6613 60.9124,-2.6942 65.1003,-2.7225 69.5055,-2.7532 74.3443,-2.7897 78.3082,-2.8224 82.4066,-2.8577 86.5293,-2.887 89.5143,-2.904 93.599,-2.9237 98.6424,-2.945 103.9177,-2.97 108.466,-2.9953 112.6127,-3.0163 116.5174,-3.0319 120.7132,-3.0413 124.885,-3.0489 127.8814,-3.0567 131.857,-3.0646 136.1586,-3.0716 139.9551,-3.0836 144.3449,-3.1015 149.821,-3.1174 155.2211,-3.1305 159.2434,-2.8809 162.3482,-2.5099 165.288,-2.3318 169.1051,-2.2186 173.0133,-1.8971 177.227,-1.4428 181.7032,-1.2071 186.1562,-0.8747 191.133,-0.4195 196.525,-0.1979 201.7704,-0.1398 206.4888,-0.1269 211.5477,-0.1265 215.6782,0.1348 219.4569,0.5765 223.4041,0.8072 226.8663,0.8705 230.5743,0.661 234.456,0.2145 238.6547,-0.0742 243.0773,-0.1573 247.0495,-0.1851 250.9044,-0.1989 255.1024,-0.2112 259.2657,-0.225 262.9142,-0.2344 266.6646,-0.2402 270.1967,-0.2448 273.1521,-0.2451 277.0371,-0.4755 281.3001,-0.8479 285.3981,-1.4593 290.014,-2.4396 294.6787,-3.4376 298.1861,-4.1069 299.4264,-4.2876 A2.2456,2.2456 0 0 1 300.1336,0.1476 T297.9244,0.5262 293.2568,1.415 288.5585,2.4352 284.9231,3.2929 281.8384,3.7567 277.4014,4.1283 273.1521,4.3851 268.8382,4.383 264.407,4.377 261.0109,4.371 257.3462,4.3608 253.1726,4.3484 248.9378,4.3408 244.901,4.3434 240.6879,4.3688 236.7945,4.4767 232.9445,4.9447 228.9491,5.3132 225.0824,5.2672 221.0867,5.1212 216.573,4.6372 211.5381,4.2623 206.4754,4.2517 201.7351,4.2251 197.7755,4.1825 193.4175,4.0439 188.379,3.5499 183.7273,3.1368 179.234,2.9857 174.1737,2.4761 168.9752,2.0241 165.0151,1.8907 160.5032,1.4363 155.2166,1.0505 149.821,1.0374 144.3449,1.0215 139.9551,1.0036 136.1586,0.9916 131.857,0.9846 127.8814,0.9767 124.885,0.9689 120.7132,0.9613 116.5174,0.9519 112.6127,0.9363 108.466,0.9153 103.9177,0.89 98.6424,0.865 93.599,0.8437 89.5143,0.824 86.5293,0.807 82.4066,0.7777 78.3082,0.7424 74.3443,0.7097 69.5055,0.6732 65.1003,0.6425 60.9124,0.6143 56.6262,0.5813 51.9856,0.5449 47.4128,0.5129 43.0846,0.486 38.2927,0.4611 33.1795,0.4372 28.261,0.4164 23.1625,0.4053 18.9148,0.4068 15.8683,0.4262 12.4445,0.4749 8.9531,0.692 5.1565,1.143 1.471,1.4141 0,1.4179 A1.4179,1.4179 0 0 1 0,-1.4179 Z" stroke-linecap="round" fill="#f2f2f2"/></g></g><g transform="matrix(1, 0, 0, 1, -321.8743, 4601.5432)" opacity="1"><g transform="scale(1)"><path d="M-1.2504,-0.9371 T-0.2961,-2.0341 1.6667,-3.3602 2.6752,-3.5891 A1.5768,1.5768 0 0 1 2.8011,-0.4381 T2.5425,-0.6164 1.7672,0.0712 1.2504,0.9371 A1.5626,1.5626 0 0 1 -1.2504,-0.9371 ZM4.2112,-2.5761 T4.3004,-2.3464 4.3896,-2.1166 A1.5795,1.5795 0 0 1 1.4385,-0.9896 T1.3518,-1.2203 1.2652,-1.451 A1.5768,1.5768 0 0 1 4.2112,-2.5761 ZM3.3311,-0.0296 T2.8886,0.0941 2.446,0.2178 A1.5844,1.5844 0 0 1 1.6092,-2.8386 T2.0531,-2.9575 2.497,-3.0765 A1.5795,1.5795 0 0 1 3.3311,-0.0296 ZM0.6386,-0.5481 T0.3883,-1.1308 0.3426,-3.1268 0.5473,-4.5402 A1.5719,1.5719 0 0 1 3.5927,-3.7598 T3.2879,-3.1848 3.1998,-2.3412 3.4166,-2.0727 A1.5844,1.5844 0 0 1 0.6386,-0.5481 ZM3.6381,-4.0403 T3.5636,-3.1851 3.5608,-1.7867 3.6325,-1.2435 A1.5757,1.5757 0 0 1 0.5075,-0.8365 T0.4377,-1.38 0.4349,-3.0916 0.5019,-4.2597 A1.5719,1.5719 0 0 1 3.6381,-4.0403 Z" stroke-linecap="round" fill="#f2f2f2"/></g></g><g transform="matrix(1, 0, 0, 1, -401.7471, 4600.5059)" opacity="1"><g transform="scale(1)"><path d="M1.6749,0 T1.6738,0.246 1.6728,0.4919 A1.6728,1.6728 0 0 1 -1.6728,0.4919 T-1.6738,0.246 -1.6749,0 A1.6749,1.6749 0 0 1 1.6749,0 ZM-0.7152,2.0041 T-0.9603,1.8858 -1.2053,1.7675 A1.6684,1.6684 0 0 1 0.2215,-1.249 T0.4684,-1.1346 0.7152,-1.0202 A1.6728,1.6728 0 0 1 -0.7152,2.0041 ZM-2.116,0.6414 T-2.2135,-0.0907 -1.1296,-2.2411 1.0187,-3.7456 1.9857,-3.8318 A1.6857,1.6857 0 0 1 1.7685,-0.4674 T1.2886,-0.6647 0.9704,-0.4925 1.1322,-0.1229 A1.6684,1.6684 0 0 1 -2.116,0.6414 ZM3.3393,-2.9883 T3.6402,-2.4852 3.9412,-1.9822 A1.7072,1.7072 0 0 1 0.9793,-0.2834 T0.6971,-0.7972 0.4148,-1.3109 A1.6857,1.6857 0 0 1 3.3393,-2.9883 ZM3.8893,-0.1988 T3.5395,0.3432 1.5221,1.6445 -0.9416,2.5514 -1.7377,2.699 A1.692,1.692 0 0 1 -2.4023,-0.619 T-1.0076,-0.8572 0.7092,-1.5811 1.0312,-2.0669 A1.7072,1.7072 0 0 1 3.8893,-0.1988 Z" stroke-linecap="round" fill="#f2f2f2"/></g></g><g transform="matrix(1, 0, 0, 1, -280.382, 4485.3646)" opacity="1"><g transform="scale(1)"><path d="M-0.9066,1.2098 T-1.8801,0.4549 -3.6445,-2.1753 -4.0932,-4.7217 -3.751,-5.3926 A1.4615,1.4615 0 0 1 -1.4227,-3.6255 T-1.2475,-3.1338 -0.0829,-1.9259 0.9066,-1.2098 A1.5118,1.5118 0 0 1 -0.9066,1.2098 ZM-2.1651,-5.9084 T-1.711,-5.7343 -0.1631,-4.069 0.2409,-0.9939 -1.4036,0.8836 -2.3582,1.1771 A1.5328,1.5328 0 0 1 -3.0133,-1.8177 T-2.6045,-2.3785 -2.6022,-3.0245 -3.0086,-3.1097 A1.4615,1.4615 0 0 1 -2.1651,-5.9084 ZM-3.8612,0.6635 T-4.2117,0.2369 -4.7248,-1.8426 -3.6549,-4.8945 -2.4224,-6.2933 A1.5018,1.5018 0 0 1 -1.4186,-3.4623 T-1.8066,-2.7842 -1.8524,-1.7051 -1.5102,-1.304 A1.5328,1.5328 0 0 1 -3.8612,0.6635 ZM-0.9034,-5.9828 T-0.4466,-5.5675 0.5188,-4.6892 1.0275,-4.2263 A1.5172,1.5172 0 0 1 -1.0275,-1.9937 T-1.5309,-2.4624 -2.486,-3.352 -2.9376,-3.7728 A1.5018,1.5018 0 0 1 -0.9034,-5.9828 Z" stroke-linecap="round" fill="#f2f2f2"/></g></g><g transform="matrix(1, 0, 0, 1, -437.0156, 4481.2154)" opacity="1"><g transform="scale(1)"><path d="M-0.3286,1.6738 T-1.5745,1.3927 -2.8203,1.1116 A1.6341,1.6341 0 0 1 -2.1907,-2.0954 T-0.931,-1.8846 0.3286,-1.6738 A1.7058,1.7058 0 0 1 -0.3286,1.6738 ZM-3.229,-1.9571 T-2.8293,-2.1575 -2.4296,-2.3579 A1.6395,1.6395 0 0 1 -0.9779,0.5823 T-1.38,0.7778 -1.7821,0.9733 A1.6341,1.6341 0 0 1 -3.229,-1.9571 ZM-0.1536,-1.4215 T0.0119,-0.8593 0.0256,0.611 -0.1261,1.5189 A1.6708,1.6708 0 0 1 -3.297,0.4647 T-3.127,0.4049 -3.1054,-0.0045 -3.254,-0.354 A1.6395,1.6395 0 0 1 -0.1536,-1.4215 ZM-1.0359,2.5199 T-1.6116,2.777 -2.8289,3.3205 -3.4704,3.6069 A1.6804,1.6804 0 0 1 -4.8296,0.5331 T-4.186,0.2513 -2.9649,-0.2835 -2.3872,-0.5363 A1.6708,1.6708 0 0 1 -1.0359,2.5199 Z" stroke-linecap="round" fill="#f2f2f2"/></g></g><g transform="matrix(1, 0, 0, 1, -440.1275, 4482.2527)" opacity="1"><g transform="scale(1)"><path d="M1.5789,0 T1.5696,1.471 1.5553,5.3666 1.5509,9.9631 1.7831,14.0586 2.4284,17.7097 3.1525,21.1459 3.9064,24.446 4.7128,27.7991 5.3477,31.4725 6.0724,35.3558 7.02,38.8233 8.0391,42.2505 9.0799,45.9242 10.1193,49.2709 11.2045,52.9097 12.3006,57.0103 13.1615,60.5519 13.7852,63.7197 14.5148,66.9737 15.4714,70.5453 16.5963,74.4017 17.639,77.6291 18.581,80.5196 19.7906,83.6613 21.2684,87.0433 22.8591,90.4567 24.4432,93.6717 26.0095,96.7959 27.4001,99.792 28.6609,102.5076 30.3296,105.4029 32.3802,108.5384 34.2738,111.4823 35.7186,114.3114 37.002,117.0124 38.8356,120.0632 40.849,123.1369 42.85,125.779 44.9931,128.1423 47.1337,130.7557 49.7294,133.8433 52.1508,136.6278 54.2862,139.2315 56.9625,142.0716 59.9141,144.6617 62.5855,146.6167 64.8804,148.6687 67.4982,150.4249 71.0008,151.5442 74.7004,152.1575 78.4633,152.2528 82.5423,152.2634 86.1089,152.2647 89.2493,151.6776 92.3151,150.5888 95.1969,148.9201 97.6594,146.6292 99.9794,144.2807 102.0779,141.7701 103.8467,139.0372 106.0277,135.6994 108.2415,132.0241 110.2333,128.5524 111.8496,125.5415 113.3883,122.6482 114.85,119.6509 116.382,116.5824 117.9402,113.4829 119.4389,109.8927 121.1036,106.174 122.4233,103.0809 123.5088,100.2033 124.9609,97.1923 126.4137,94.1806 127.4149,91.1515 128.5123,87.9818 129.6985,85.0892 131.1507,81.9735 132.5869,78.0418 133.6366,74.2742 134.6199,70.9712 135.617,67.2602 136.5626,63.8998 137.5792,60.3452 138.8562,56.4861 139.9525,53.403 140.9679,50.0485 142.4409,45.982 143.9915,41.819 145.3234,38.0496 146.4345,34.7463 147.3977,31.7764 148.3127,28.7462 149.2095,25.1984 150.1922,21.2639 150.9294,17.3784 151.6139,14.1204 152.4622,10.7524 153.3354,6.752 154.0435,3.0964 155.1054,-0.3326 156.4224,-3.0572 156.9055,-3.9729 A2.0002,2.0002 0 0 1 160.5145,-2.2471 T160.105,-1.2962 159.0544,1.6706 157.9205,5.7184 156.9918,9.6513 156.0102,13.8036 155.1531,18.3212 154.3336,22.6208 153.3403,26.5896 152.5056,29.9132 151.6449,32.7441 150.6904,35.618 149.5234,39.046 148.0362,43.3292 146.5353,47.3966 145.1091,51.3797 143.5849,55.5453 142.212,59.6361 141.016,64.1332 139.8343,68.5163 138.7745,72.3988 137.752,75.8026 136.8654,78.7926 135.7587,81.9162 134.4808,85.0888 133.2919,88.2207 132.013,91.2293 130.7819,94.1811 129.2279,97.7864 127.6891,101.3088 126.5324,104.4355 125.1623,107.7102 123.4588,111.5643 121.8514,115.4271 120.3135,118.5284 118.8023,121.5937 117.0621,125.3468 115.0391,128.9951 113.3578,132.0366 111.4917,135.3459 109.5418,138.525 107.7261,141.4017 105.8977,144.0974 103.7394,146.7261 100.5941,149.8484 97.1813,152.9267 94.2182,154.7788 91.2861,155.7417 88.0164,156.5353 84.7773,156.8568 81.1907,156.8419 77.0474,156.7847 73.4692,156.5693 70.4853,155.9675 67.346,154.9198 64.1983,153.5839 61.1854,151.4426 58.0636,148.8533 55.4308,146.6251 53.3733,144.4996 51.357,142.3027 49.284,139.718 47.184,137.2015 45.1637,135.0141 43.0905,132.4185 40.9963,129.8531 38.8885,127.1193 36.7233,124.08 34.6663,120.8084 32.8144,117.3122 31.3508,114.3678 29.7433,111.5413 27.6053,108.4892 25.4551,104.8696 23.5328,100.8354 22,97.1176 20.3066,93.4932 18.6664,90.092 17.1194,86.7247 15.6517,83.3437 14.6708,80.2853 13.6804,76.9148 12.6964,73.5882 11.6636,70.0543 10.7259,66.1795 9.8953,62.8957 9.2968,59.9929 8.6454,56.5246 7.5432,52.4791 6.4252,48.7657 5.4016,45.075 4.4407,41.3903 3.5243,38.2 2.6243,34.4909 1.7464,30.273 1.1189,26.8239 0.4166,22.9782 -0.5615,18.6416 -1.2912,14.4157 -1.5509,9.9631 -1.5553,5.3666 -1.5696,1.471 -1.5789,0 A1.5789,1.5789 0 0 1 1.5789,0 Z" stroke-linecap="round" fill="#f2f2f2"/></g></g><g transform="matrix(1, 0, 0, 1, -443.2394, 4481.2154)" opacity="1"><g transform="scale(1)"><path d="M1.6307,-0.2336 T1.8722,1.4841 2.2452,4.6392 2.4842,8.4863 2.9909,12.9721 3.5112,17.211 4.1222,21.6423 4.6792,25.6248 5.1399,29.0828 5.8528,32.4164 6.4577,36.0791 7.1772,39.726 7.9666,43.1549 8.5952,46.9547 9.3079,50.4293 9.8978,53.6456 10.7519,57.4467 12.13,61.247 13.009,64.3756 13.9199,67.4473 15.1734,70.9895 16.472,75.2923 17.7731,79.4118 19.1285,82.839 20.7576,85.9853 22.2972,89.0128 23.8707,92.0862 25.4543,95.1727 27.4321,98.9848 29.5026,102.7578 31.1988,105.7027 32.7813,108.7208 34.2271,111.6337 36.1217,114.6347 38.567,117.4124 41.1415,119.9281 43.6289,122.5578 45.7858,124.8381 47.777,127.3031 49.8475,130.1524 51.9205,133.1699 54.0032,136.2483 55.9643,138.9351 58.2664,141.1704 60.7779,143.3348 63.146,145.3976 66.0946,147.4024 69.8078,149.4384 73.2351,150.9715 76.5362,152.0553 80.3442,152.7045 84.3289,152.7853 87.8932,152.7889 91.2767,152.4291 94.9775,151.5086 98.7166,149.926 101.6659,147.6876 103.7149,145.4457 105.7785,142.9294 107.865,140.3444 109.9013,137.4659 111.8471,133.8922 113.7362,130.2902 115.6987,126.4676 117.4117,122.9566 118.5638,119.8836 119.6223,116.7766 120.8107,113.4805 121.9746,109.8124 123.4195,105.6386 124.7927,101.8944 125.8823,98.7039 127.0417,95.5055 128.4655,92.0696 129.8805,88.5577 131.0953,85.7132 132.593,82.584 134.1343,79.4563 135.3599,76.7976 136.7425,73.4466 138.1597,69.9004 139.8881,66.4888 141.5552,63.0078 142.5824,59.5202 143.5405,55.841 144.575,52.3451 145.6889,49.2958 146.6467,46.2178 147.5954,42.0915 148.6031,37.9551 149.6116,34.6612 150.6127,31.1804 151.6303,27.0945 152.3483,23.1199 152.9924,19.6811 153.9546,16.2402 154.962,13.0345 155.8605,9.7521 156.4529,6.4005 157.0954,3.0109 157.9496,-0.8665 158.6774,-3.9243 159.0017,-4.9943 A2.9421,2.9421 0 0 1 164.6383,-3.3057 T164.3209,-2.2338 163.672,0.5536 162.9151,3.855 162.2065,7.4328 161.5459,11.1255 160.6379,14.3263 159.6164,17.4336 158.5818,21.4577 157.5133,25.9956 156.7466,29.6233 155.9627,33.1176 154.9178,36.6567 153.9596,39.7581 153.1578,43.0019 152.2544,46.9203 151.131,50.6947 149.9298,54.0095 148.9457,57.2436 148.0445,60.6874 146.8814,64.2582 145.4729,67.2669 143.9485,70.32 142.5216,73.7612 141.2506,77.1358 139.9518,80.3404 138.4107,83.4382 136.9163,86.4936 135.577,89.3518 134.2203,92.4107 132.9585,95.7421 131.8248,99.0016 130.5755,102.2778 129.3917,105.302 128.3613,108.521 127.058,112.586 125.4775,116.7082 124.1397,120.1676 122.9728,123.4363 121.4876,127.0225 119.6282,130.9732 117.4393,135.0081 115.2619,139.1317 112.6698,143.151 109.9175,146.705 107.2796,149.833 104.6062,152.5619 101.558,154.6945 97.9287,156.1986 94.5982,157.2521 91.2199,158.0688 87.8844,158.4053 84.2742,158.3796 79.9724,158.2557 75.5724,157.5059 71.9932,156.3189 68.9334,155.1321 66.0032,153.7053 63.36,152.0754 60.2296,149.8811 57.3907,147.4589 55.128,145.5599 52.8309,143.4376 50.669,140.5831 48.6146,137.4866 46.59,134.4477 44.1965,131.109 41.6704,128.1324 39.396,125.6522 37.0909,123.0484 34.5695,120.5506 32.2766,117.8414 30.2459,114.5489 28.0681,110.5325 26.0254,106.3925 24.0173,102.4219 22.0531,98.6812 20.453,95.6692 18.9384,92.5477 17.4362,89.4418 15.9671,86.3573 14.5961,83.0743 13.5233,79.6569 12.4297,75.9786 11.3738,72.4186 10.1252,68.442 9.0735,64.4308 7.9917,60.6235 6.7684,57.1498 6.148,53.5365 5.5433,49.618 4.7229,45.7255 4.1216,42.0431 3.5527,38.5484 2.7217,34.9319 2.1206,31.4132 1.648,27.8142 1.143,23.784 0.6037,19.5248 0.079,15.4972 -0.4254,11.1428 -0.9363,6.218 -1.3803,1.9499 -1.6307,0.2336 A1.6474,1.6474 0 0 1 1.6307,-0.2336 Z" stroke-linecap="round" fill="#e599f7"/></g></g><g transform="matrix(1, 0, 0, 1, -162.1288, 4643.0355)" opacity="1"><g transform="scale(1)"><path d="M0.6923,-2.0796 T2.166,-2.3096 5.7918,-2.7378 9.9534,-2.7173 14.4853,-2.366 19.8404,-2.2142 25.0912,-2.207 29.6784,-2.2396 34.5646,-2.289 39.8033,-2.7173 43.8468,-3.2038 46.9066,-3.343 51.035,-3.4498 56.1021,-3.5347 60.1806,-3.5849 64.5574,-3.6295 69.7303,-3.6709 74.2927,-3.7002 79.2071,-3.4532 83.7315,-3.0296 88.5569,-2.8301 94.7207,-2.787 99.72,-2.7814 103.8245,-2.79 108.2975,-3.0407 112.6031,-3.4223 117.683,-3.6748 122.551,-3.5558 125.8856,-3.2196 129.8307,-3.0337 134.8232,-2.9305 139.5716,-2.9078 144.2611,-2.906 149.1797,-2.9093 153.2924,-2.9124 157.8483,-2.6404 162.1767,-2.2624 165.1644,-2.0959 169.0509,-1.9841 173.0582,-1.9262 176.5729,-1.9149 180.1448,-1.913 184.479,-1.9169 189.3244,-1.9217 194.0405,-1.9302 198.7209,-1.9473 202.6426,-1.9647 206.224,-1.9799 209.6372,-1.9936 213.1533,-2.3687 217.3292,-2.8601 221.9184,-3.0174 226.2325,-3.2755 230.8116,-3.74 235.7858,-4.0457 239.9305,-4.3349 243.2257,-4.7287 246.7245,-5.0139 250.5497,-5.1642 254.4976,-5.2089 258.5954,-5.2246 262.4817,-5.2342 266.7963,-4.9568 270.9938,-4.5191 274.4185,-4.3096 277.6155,-4.2291 281.1932,-4.1625 283.1989,-4.1219 A3.082,3.082 0 0 1 283.1811,2.0419 T282.1214,2.0562 279.2224,2.0864 275.7012,2.0783 272.0719,1.9424 268.2596,1.466 264.4144,1.0991 260.663,1.0944 256.5615,1.0937 252.5748,1.1076 249.0196,1.1676 245.1404,1.3725 240.6983,1.8223 236.0036,2.1624 231.6519,2.3682 228.1041,2.8091 224.2357,3.1005 219.7844,3.1552 215.9083,3.3584 212.6392,3.7971 209.6543,4.0736 206.224,4.0599 202.6426,4.0447 198.7207,4.0271 194.0397,4.0096 189.322,3.9995 184.4724,3.989 180.1317,3.975 176.547,3.9609 172.998,3.9416 168.8829,3.8696 164.8065,3.7348 161.3686,3.5053 157.2723,3.132 153.2918,2.9118 149.1775,2.9073 144.2525,2.8987 139.5427,2.8815 134.7208,2.8359 129.5353,2.6931 123.8865,2.227 117.9195,1.9627 113.07,2.1765 108.5826,2.5438 103.8201,2.7805 99.7074,2.7635 94.682,2.733 89.7986,2.6831 86.5548,2.6088 82.955,2.3294 78.654,1.8652 74.2931,1.6205 69.7312,1.592 64.5605,1.5537 60.189,1.5144 56.1244,1.4831 51.1093,1.4722 47.0763,1.4953 42.9079,1.6628 38.7607,2.0634 34.5698,2.2852 29.6663,2.2258 25.0563,2.1572 21.1366,2.0837 16.9323,1.9261 11.2147,1.4811 6.2702,1.3581 2.8561,1.8177 1.3877,2.0796 A2.1085,2.1085 0 0 1 0.6923,-2.0796 Z" stroke-linecap="round" fill="#f2f2f2"/></g></g><g transform="matrix(1, 0, 0, 1, -1.346, 4480.1781)" opacity="1"><g transform="scale(1)"><path d="M1.5344,0 T1.5349,2.4525 1.5393,6.6894 1.5455,9.9037 1.2879,13.8876 0.8459,18.8604 0.6082,23.4521 0.5338,27.7258 0.506,31.904 0.8626,35.9686 1.3374,40.3481 1.4772,45.0272 1.5268,50.5596 1.5527,55.5539 1.5644,58.96 1.3202,63.5694 0.9542,67.9605 0.7414,71.8053 0.6201,76.1293 0.5893,79.9459 0.5839,83.9992 0.5894,88.4971 0.5986,92.8612 0.6059,97.3144 0.6116,101.8065 0.6194,105.9352 0.6284,109.7037 0.6349,113.2449 0.6386,117.0962 0.6379,121.5365 0.6356,126.0107 0.6307,129.8752 0.623,133.9459 0.6164,138.3198 0.8436,142.7571 1.2124,146.5842 1.424,149.6272 1.535,152.6975 1.6001,156.7166 1.6332,161.6287 1.6405,166.3662 1.6412,171.182 1.6404,175.8902 1.6395,180.4412 1.6387,185.0769 1.6381,189.4901 1.6377,193.9569 1.6373,198.568 1.6371,202.9757 1.6369,207.1973 1.6368,211.3672 1.3688,215.7092 0.9234,220.2825 0.6923,224.98 0.6234,229.6602 0.6039,234.3344 0.5985,239.2473 0.5996,244.3569 0.6052,249.149 0.6147,253.4773 0.6256,257.6769 0.6363,261.8406 0.6479,265.8769 0.6586,270.1236 0.6678,274.9197 0.6796,279.9979 0.688,284.78 0.6892,288.73 0.6901,292.4501 0.6908,296.1052 0.6928,299.4962 0.6977,303.0598 0.7038,306.9173 0.7088,310.9861 0.7127,315.1135 0.7155,318.8817 0.7171,321.5899 0.7177,322.6 A1.7577,1.7577 0 0 1 -2.7977,322.6 T-2.7971,321.5899 -2.7955,318.8817 -2.7927,315.1135 -2.7888,310.9861 -2.7838,306.9173 -2.7777,303.0598 -2.7728,299.4962 -2.7708,296.1052 -2.7701,292.4501 -2.7692,288.73 -2.768,284.78 -2.7596,279.9979 -2.7478,274.9197 -2.7386,270.1236 -2.7279,265.8769 -2.7163,261.8406 -2.7056,257.6768 -2.6946,253.4773 -2.6849,249.1488 -2.6785,244.3563 -2.6743,239.245 -2.6689,234.3249 -2.6493,229.629 -2.5778,224.8609 -2.3031,219.8115 -1.8607,215.3338 -1.6368,211.3672 -1.6369,207.1973 -1.6371,202.9757 -1.6373,198.568 -1.6377,193.9569 -1.6382,189.4902 -1.6388,185.0769 -1.6397,180.4413 -1.641,175.8906 -1.6434,171.1834 -1.6484,166.3708 -1.6616,161.6462 -1.7026,156.7698 -1.7675,152.812 -1.9855,148.4877 -2.4317,143.0556 -2.6964,138.3198 -2.703,133.9459 -2.7107,129.8752 -2.7156,126.0107 -2.7179,121.5365 -2.7186,117.0962 -2.7149,113.2449 -2.7084,109.7037 -2.6994,105.9352 -2.6916,101.8065 -2.6857,97.3142 -2.678,92.8609 -2.6672,88.4954 -2.656,83.9933 -2.6409,79.9218 -2.5977,76.0603 -2.4527,71.6189 -2.1981,67.5599 -1.8143,63.3065 -1.5694,58.962 -1.5621,55.5575 -1.5532,51.8896 -1.5595,47.5563 -1.6221,42.7308 -1.8551,38.3676 -2.3046,34.159 -2.5696,29.8022 -2.5389,25.5429 -2.406,21.014 -2.1563,17.2185 -1.7798,13.5626 -1.5455,9.9037 -1.5393,6.6894 -1.5349,2.4525 -1.5344,0 A1.5344,1.5344 0 0 1 1.5344,0 Z" stroke-linecap="round" fill="#f2f2f2"/></g></g><g transform="matrix(1, 0, 0, 1, -3.4206, 4596.3566)" opacity="1"><g transform="scale(1)"><path d="M1.6046,0 T1.6022,0.246 1.5998,0.4919 A1.5998,1.5998 0 0 1 -1.5998,0.4919 T-1.6022,0.246 -1.6046,0 A1.6046,1.6046 0 0 1 1.6046,0 ZM-0.3699,-1.0645 T0.1207,-1.1792 1.2022,-1.375 1.7933,-1.4561 A1.6045,1.6045 0 0 1 2.1808,1.7294 T1.7639,1.7708 0.8585,1.9303 0.3699,2.0484 A1.5998,1.5998 0 0 1 -0.3699,-1.0645 ZM3.0563,-1.0596 T3.5763,-0.6048 4.7407,0.7108 5.385,1.5716 A1.643,1.643 0 0 1 2.6974,3.4622 T2.3106,2.8572 1.4208,1.7925 0.9178,1.3329 A1.6045,1.6045 0 0 1 3.0563,-1.0596 ZM5.4685,3.3307 T5.2519,3.719 5.0352,4.1073 A1.6513,1.6513 0 0 1 2.1662,2.4714 T2.3901,2.0872 2.6139,1.703 A1.643,1.643 0 0 1 5.4685,3.3307 ZM3.5186,4.9386 T2.6674,4.8888 0.8678,4.7844 -0.0807,4.7297 A1.6217,1.6217 0 0 1 0.0807,1.4903 T1.0298,1.5301 2.8309,1.605 3.6829,1.6401 A1.6513,1.6513 0 0 1 3.5186,4.9386 Z" stroke-linecap="round" fill="#f2f2f2"/></g></g><g transform="matrix(1, 0, 0, 1, 40.1464, 4561.0882)" opacity="1"><g transform="scale(1)"><path d="M0.9895,0.9895 T0.4691,1.5091 -0.0513,2.0287 A1.3983,1.3983 0 0 1 -2.0287,0.0513 T-1.5091,-0.4691 -0.9895,-0.9895 A1.3993,1.3993 0 0 1 0.9895,0.9895 ZM-1.7712,-0.1519 T-0.8646,-0.6075 0.8476,-0.8661 1.6531,-0.6691 A1.4099,1.4099 0 0 1 0.5503,1.9261 T0.4869,1.7539 0.0573,1.9067 -0.3088,2.2319 A1.3983,1.3983 0 0 1 -1.7712,-0.1519 ZM1.6716,1.9181 T0.7986,2.3018 -0.7748,3.01 -1.4752,3.3345 A1.3974,1.3974 0 0 1 -2.6648,0.8055 T-1.9683,0.4729 -0.37,-0.2604 0.5318,-0.661 A1.4099,1.4099 0 0 1 1.6716,1.9181 Z" stroke-linecap="round" fill="#f2f2f2"/></g></g><g transform="matrix(1, 0, 0, 1, -42.8383, 4561.0882)" opacity="1"><g transform="scale(1)"><path d="M-0.6907,-1.3747 T-0.0817,-1.6349 1.9928,-1.702 3.4583,-1.5088 A1.5485,1.5485 0 0 1 2.7617,1.5088 T2.0963,1.2101 1.0608,1.143 0.6907,1.3747 A1.5384,1.5384 0 0 1 -0.6907,-1.3747 ZM3.11,1.5485 T2.075,1.5501 1.04,1.5517 A1.5517,1.5517 0 0 1 1.04,-1.5517 T2.075,-1.5501 3.11,-1.5485 A1.5485,1.5485 0 0 1 3.11,1.5485 Z" stroke-linecap="round" fill="#f2f2f2"/></g></g><g transform="matrix(1, 0, 0, 1, 80.6014, 4440.7604)" opacity="1"><g transform="scale(1)"><path d="M1.4014,-0.3512 T1.5249,1.0351 0.2619,3.8395 -1.1245,5.2576 A1.4563,1.4563 0 0 1 -3.0155,3.0424 T-1.84,2.2734 -1.033,0.9278 -1.4014,0.3512 A1.4448,1.4448 0 0 1 1.4014,-0.3512 Z" stroke-linecap="round" fill="#f2f2f2"/></g></g><g transform="matrix(1, 0, 0, 1, -84.3307, 4439.7231)" opacity="1"><g transform="scale(1)"><path d="M1.4793,0.7432 T1.2242,1.2282 0.9691,1.7132 A1.6351,1.6351 0 0 1 -1.953,0.245 T-1.7161,-0.2491 -1.4793,-0.7432 A1.6555,1.6555 0 0 1 1.4793,0.7432 ZM-0.3114,2.6042 T-0.4413,2.6161 -0.5712,2.628 A1.6301,1.6301 0 0 1 -0.9311,-0.6122 T-0.8018,-0.6291 -0.6725,-0.646 A1.6351,1.6351 0 0 1 -0.3114,2.6042 ZM-1.4546,-0.4625 T-0.6928,-0.8245 0.069,-1.1864 A1.6255,1.6255 0 0 1 1.472,1.7463 T0.7122,2.1123 -0.0477,2.4783 A1.6301,1.6301 0 0 1 -1.4546,-0.4625 ZM1.7583,-1.011 T2.3192,-0.5977 3.5045,0.2771 4.1288,0.7385 A1.6765,1.6765 0 0 1 2.0912,3.4015 T1.4826,2.9196 0.3283,2.0043 -0.2173,1.5709 A1.6255,1.6255 0 0 1 1.7583,-1.011 Z" stroke-linecap="round" fill="#f2f2f2"/></g></g><g transform="matrix(1, 0, 0, 1, -81.2187, 4439.7231)" opacity="1"><g transform="scale(1)"><path d="M 0 1.04 m -2.633441917710341, 0 a 2.633441917710341,2.633441917710341 0 1,1 5.266883835420682,0 a 2.633441917710341,2.633441917710341 0 1,1 -5.266883835420682,0" stroke-linecap="round" fill="#f2f2f2"/></g></g><g transform="matrix(1, 0, 0, 1, -85.368, 4439.7231)" opacity="1"><g transform="scale(1)"><path d="M1.5329,-0.6114 T2.0195,0.6189 3.1553,4.1091 4.1523,8.2875 4.7895,11.7573 5.3503,14.9849 6.0573,18.5168 6.9884,22.0017 7.6415,25.6953 8.2124,29.3427 8.9781,32.7838 9.5971,36.578 10.3108,39.9503 11.0898,42.889 11.7161,46.1954 12.4457,49.4744 13.4161,52.9411 14.4527,56.521 15.4855,59.9697 16.5453,63.4497 17.5989,66.7382 18.6476,69.9843 19.998,73.3968 21.3641,76.7494 22.6389,80.1988 23.9152,83.6182 25.4598,87.4857 27.2488,91.4545 29.1156,94.9886 30.9016,98.2418 32.318,100.8072 33.9879,103.5489 36.0577,106.9353 38.0128,110.3052 39.6505,113.033 41.7997,115.9061 44.4042,119.544 46.904,122.6877 49.5037,125.7991 52.093,129.1747 54.4985,131.8225 57.1727,134.6054 59.6464,137.4013 62.3064,139.8587 65.3373,142.3962 67.9261,145.1255 70.5392,147.7829 73.259,149.9047 76.5909,151.6744 80.5951,153.2947 84.0559,154.0375 87.038,153.6731 90.5757,152.5629 94.2722,151.2035 97.359,149.8738 100.6189,147.9624 103.7962,145.6334 107.0676,143.2945 110.1398,140.7467 112.2587,138.4222 114.1271,135.9767 116.0271,132.9575 118.1623,130.0911 120.3482,127.551 122.4222,124.1773 124.002,120.1206 125.1189,116.6237 126.5171,112.7766 128.0267,108.71 129.2699,104.9924 130.4636,101.3081 131.5348,97.9855 132.5757,94.4466 133.644,91.1777 134.9654,87.8021 136.4018,84.0748 137.5777,80.8543 138.5814,77.6412 140.0658,73.9835 142.1854,69.8901 144.2345,65.8495 145.7073,61.8525 146.8609,58.1027 148.0598,55.0594 149.159,52.0211 150.2061,48.7304 151.273,45.3616 152.3275,42.1811 153.3577,38.8847 154.2925,34.8764 154.9145,31.1214 155.5718,27.423 156.5272,23.4164 157.1519,19.5997 157.7006,15.8958 158.614,12.1091 159.6196,7.8749 160.3407,4.2054 160.5471,2.7891 A2.3351,2.3351 0 0 1 165.1729,3.4309 T164.9859,4.8499 164.2906,8.5979 163.2939,12.8809 162.4074,16.4052 161.8585,20.1445 161.21,24.2478 160.2857,28.0976 159.5843,32.0348 158.9518,35.9683 158.0745,39.829 156.8173,44.1459 155.5159,48.4498 154.4297,52.0304 153.279,55.2994 151.9605,58.2002 150.7015,61.3797 149.7468,64.7895 148.4396,68.2136 146.7983,71.7675 145.255,74.5909 143.7428,77.4801 142.5245,80.7574 141.4302,83.928 140.1618,87.7009 138.6617,91.7508 137.3535,95.4138 136.2859,99.0219 135.1743,102.5523 133.8919,106.5294 132.5364,110.5667 131.0318,114.6085 129.6651,118.3886 128.7537,121.2793 127.5476,124.407 125.9758,127.7844 124.2222,130.5465 122.2596,132.8022 120.2501,135.4782 118.0194,138.9343 115.344,142.3452 112.7667,145.0516 110.1486,147.1409 107.5058,149.1852 104.6718,151.4737 101.1873,153.602 97.7418,155.0964 94.0788,156.4785 90.6368,157.7904 87.4498,158.5976 83.8219,158.8514 80.2355,158.1849 76.9975,157.0968 73.2053,155.4978 69.5301,153.1831 66.8391,150.9337 64.5383,148.8415 62.4125,146.4626 59.5922,143.8293 56.5456,141.0222 54.1834,138.5286 52.1535,136.4348 50.2464,134.1542 48.0348,131.595 45.8709,128.8297 43.8501,126.4521 41.7404,124.0651 39.6869,121.0443 37.4817,118.0302 35.5011,115.095 33.8893,112.3128 32.232,109.3408 30.3165,106.077 28.3094,102.436 26.3173,98.4745 24.4035,95.1326 22.8989,92.3321 21.7383,89.5575 20.6354,86.6536 19.2414,83.0609 17.8419,79.4258 16.738,76.081 15.5785,72.8067 14.5012,69.6881 13.5142,66.2518 12.5137,62.7252 11.4872,59.3584 10.5635,56.1369 9.5809,52.5264 8.6304,48.8118 7.8061,45.4207 7.2247,42.2338 6.6573,39.0679 5.8087,35.335 5.2164,31.6111 4.7004,27.9916 4.1557,24.4138 3.4663,20.9841 2.4811,16.7932 1.6205,12.501 0.9803,9.0146 0.0827,5.2551 -1.0404,1.836 -1.5329,0.6114 A1.6503,1.6503 0 0 1 1.5329,-0.6114 Z" stroke-linecap="round" fill="#4dabf7"/></g></g><g transform="matrix(1, 0, 0, 1, -360.7734, 4843.2361)" opacity="1"><g transform="scale(1)"><path d="M1.5034,0 T1.4949,1.471 1.2074,5.3139 0.7532,9.3846 0.5288,13.1906 0.4738,17.5108 0.2195,22.46 -0.2091,27.4608 -0.4384,31.6033 -0.4996,35.3658 -0.5102,38.8993 -0.7739,42.6907 -1.213,46.3732 -1.4375,49.5889 -1.5,53.34 -1.5124,57.6207 -1.5127,61.6916 -1.5124,65.4451 -1.5113,69.3553 -1.506,73.6834 -1.4978,78.2561 -1.4918,82.6508 -1.4872,87.2443 -1.4836,92.139 -1.4812,97.1105 -1.1045,102.1602 -0.6139,107.313 -0.4755,111.4303 -0.4312,115.3247 -0.4048,119.3399 -0.3955,122.5072 -0.3878,126.588 -0.3793,131.6625 -0.3698,136.4426 -0.3571,141.0135 -0.3434,145.656 -0.3357,150.4425 0.0386,155.3041 0.5204,160.0247 0.6612,164.7929 0.7039,169.4931 0.722,173.9232 0.7328,178.3949 0.7397,183.0075 0.7423,187.4156 0.7443,192.0116 0.7481,197.0354 0.751,202.4228 0.7556,206.7552 0.7626,210.3343 0.7688,214.3551 0.7737,218.4692 0.7779,223.1132 0.781,227.7747 0.7875,232.3103 0.796,236.6971 0.8018,240.6669 0.8062,244.5052 0.8098,248.5687 1.0481,253.2873 1.4275,257.4096 1.6808,261.203 1.8234,265.5676 1.8655,269.7914 1.8809,273.8327 1.8897,277.823 1.8968,281.9285 1.9039,286.1958 1.9051,290.9975 1.9024,295.0595 1.9038,298.0278 1.6304,301.9887 1.1887,306.1089 0.9708,309.8741 0.8983,313.154 0.8778,314.3343 A1.9181,1.9181 0 0 1 -2.9578,314.2657 T-2.936,313.0854 -2.8563,309.7235 -2.5685,305.5014 -2.1223,301.4974 -1.9038,298.0278 -1.9034,293.6806 -1.9049,288.6976 -1.9012,284.2401 -1.8937,279.8683 -1.888,275.8053 -1.8891,271.9674 -1.905,268.0554 -1.969,263.8756 -2.2004,259.1294 -2.6362,253.6042 -2.8898,248.5687 -2.8862,244.5052 -2.8818,240.6669 -2.876,236.6971 -2.8675,232.3103 -2.861,227.7747 -2.8579,223.1132 -2.8537,218.4692 -2.8488,214.3551 -2.8426,210.3343 -2.8356,206.7552 -2.831,202.4228 -2.8281,197.0354 -2.8244,192.0116 -2.8225,187.4157 -2.8203,183.0079 -2.8149,178.3965 -2.8098,173.9288 -2.8121,169.5108 -2.8427,164.8621 -2.9659,160.249 -3.4346,155.4811 -3.8043,150.451 -3.7967,145.656 -3.783,141.0136 -3.7705,136.4428 -3.7619,131.6633 -3.7563,126.5902 -3.754,122.5117 -3.7531,119.3505 -3.7628,115.3539 -3.7869,111.495 -3.8952,107.5101 -4.3643,102.3206 -4.7388,97.117 -4.7364,92.139 -4.7328,87.2443 -4.7282,82.6508 -4.7222,78.2561 -4.7139,73.6834 -4.7083,69.3551 -4.7064,65.4441 -4.7031,61.6886 -4.6926,57.6116 -4.6659,53.2931 -4.5877,49.4291 -4.3056,45.8776 -3.8539,42.3125 -3.6149,38.8884 -3.5866,35.3219 -3.5078,31.476 -3.2332,27.1042 -2.7716,22.1867 -2.4998,17.4758 -2.4144,13.0747 -2.1329,8.9134 -1.6993,4.9321 -1.4949,1.471 -1.5034,0 A1.5034,1.5034 0 0 1 1.5034,0 Z" stroke-linecap="round" fill="#f2f2f2"/></g></g><g transform="matrix(1, 0, 0, 1, -521.5562, 5041.362)" opacity="1"><g transform="scale(1)"><path d="M-0.2646,-0.5428 T1.2074,-0.7829 4.8095,-1.2277 9.0415,-1.4901 13.1298,-1.9381 16.6289,-2.445 20.0795,-2.5998 23.6758,-2.652 26.9186,-2.6778 30.485,-2.7026 33.969,-2.7237 37.8253,-2.4576 42.0503,-1.9922 45.9636,-1.7764 49.9263,-1.4638 53.3162,-1.0283 56.8451,-0.8344 60.9738,-0.7776 65.129,-0.7656 68.8275,-0.3778 72.6705,0.1112 77.0569,0.2213 81.4414,0.2243 85.7987,0.2159 89.7588,0.5882 93.2307,1.0531 96.686,1.1621 100.505,1.1832 104.809,1.1767 109.3752,1.1643 113.9002,1.148 118.3801,1.1315 122.0766,1.5125 125.3429,1.9713 129.0475,2.0621 132.6114,2.081 135.8438,2.0756 139.6088,2.0605 143.5222,2.0432 147.8502,2.0266 152.5525,2.0106 156.6099,1.9983 160.3586,1.9878 163.7531,1.7658 167.4427,1.3127 171.732,1.0152 176.5352,0.93 181.2418,0.8932 185.0527,0.8728 188.4875,0.8578 192.0633,0.843 195.9255,0.8288 199.7496,0.8177 203.3039,0.8097 206.7832,0.8004 210.704,0.7889 214.7903,0.7794 219.177,0.7718 223.5211,0.7658 227.6746,0.5345 232.6906,0.0882 237.6661,-0.1864 242.5493,-0.2556 247.162,-0.2698 251.4407,-0.2716 255.2934,-0.4651 259.2566,-0.9013 263.9298,-1.1989 267.7602,-1.2635 271.9648,-1.6512 277.0635,-2.1401 281.7093,-2.2806 286.2486,-2.3226 290.5073,-2.3393 294.1973,-2.3462 297.5982,-2.3487 300.9067,-2.3472 305.0545,-2.3438 309.7055,-2.3407 313.7631,-2.3401 317.1386,-2.3396 320.625,-2.2136 322.6,-2.0889 A2.0889,2.0889 0 0 1 322.6,2.0889 T320.625,2.2136 317.1386,2.3396 313.7631,2.3402 309.7055,2.3407 305.0546,2.3438 300.1875,2.3482 296.1037,2.3497 292.445,2.3477 288.2486,2.3479 283.9306,2.3627 279.6297,2.4312 274.9207,2.6695 270.8872,3.1251 267.8225,3.4075 264.0997,3.4716 260.0537,3.6752 255.9618,4.1191 251.4456,4.4158 247.1761,4.4248 242.5953,4.4496 237.8194,4.5209 233.2301,4.7521 228.0967,5.1935 223.5211,5.4542 219.177,5.4482 214.7903,5.4406 210.704,5.4311 206.7833,5.4196 203.3039,5.4103 199.7496,5.4023 195.9256,5.3913 192.0637,5.3774 188.4888,5.3634 185.0568,5.3514 181.2525,5.3418 177.6253,5.3367 174.0057,5.3586 169.841,5.4655 165.871,5.9347 162.2856,6.3165 158.5847,6.3066 154.7294,6.2945 150.2883,6.2812 145.5524,6.2648 141.5262,6.2462 137.8215,6.2273 134.3896,6.2072 131.0101,6.1713 126.9122,6.0754 122.5506,5.5493 118.3397,5.0884 113.8997,5.0714 109.3736,5.0535 104.8026,5.0354 100.4799,5.0083 96.5763,4.9553 92.8774,4.7975 89.4704,4.3018 85.7713,3.92 81.4311,3.9008 77.009,3.8651 73.2258,3.7824 69.9371,3.4877 66.6757,3.0429 63.024,2.8212 58.8296,2.7729 54.4515,2.6068 50.0835,2.1024 45.8754,1.6844 42.2368,1.5171 38.7768,1.0259 35.3201,0.6506 32.3397,0.6354 28.9898,0.617 25.491,0.6026 22.1601,0.609 17.9809,0.7344 13.3747,1.2409 9.1845,1.6846 5.1772,1.928 1.7347,2.371 0.2646,2.6228 A1.6048,1.6048 0 0 1 -0.2646,-0.5428 Z" stroke-linecap="round" fill="#f2f2f2"/></g></g><g transform="matrix(1, 0, 0, 1, -321.3557, 5041.362)" opacity="1"><g transform="scale(1)"><path d="M0,-1.6155 T0.8772,-1.6149 1.7543,-1.6143 A1.6143,1.6143 0 0 1 1.7543,1.6143 T0.8772,1.6149 0,1.6155 A1.6155,1.6155 0 0 1 0,-1.6155 ZM2.719,1.2944 T2.0199,1.7749 -0.297,1.9745 -2.6217,0.0964 -3.3286,-1.5008 A1.5877,1.5877 0 0 1 -0.2343,-2.2134 T-0.031,-1.4833 0.4809,-1.0238 0.7897,-1.2944 A1.6143,1.6143 0 0 1 2.719,1.2944 ZM-3.0352,-2.8312 T-2.5964,-3.3828 -0.3826,-5.0518 2.6296,-6.3889 3.8667,-6.6086 A1.5577,1.5577 0 0 1 4.2152,-3.5127 T3.7761,-3.4666 1.8085,-2.6846 -0.1238,-1.4159 -0.5277,-0.883 A1.5877,1.5877 0 0 1 -3.0352,-2.8312 ZM5.08,-6.2213 T5.621,-5.7255 6.8161,-3.1771 6.5253,0.8606 4.0501,4.0471 0.5567,5.6887 -2.8773,4.6076 -4.3482,3.0865 A1.602,1.602 0 0 1 -1.8718,1.0535 T-0.7134,1.8729 2.2505,1.3604 4.0187,-1.5089 3.4916,-3.4732 3.002,-3.9001 A1.5577,1.5577 0 0 1 5.08,-6.2213 Z" stroke-linecap="round" fill="#f2f2f2"/></g></g><g transform="matrix(1, 0, 0, 1, -277.7887, 5001.9443)" opacity="1"><g transform="scale(1)"><path d="M0,-1.3549 T0.246,-1.3566 0.4919,-1.3584 A1.3584,1.3584 0 0 1 0.4919,1.3584 T0.246,1.3566 0,1.3549 A1.3549,1.3549 0 0 1 0,-1.3549 ZM1.6936,-0.6333 T1.8249,-0.3882 1.9563,-0.1432 A1.3622,1.3622 0 0 1 -0.4539,1.127 T-0.5819,0.8802 -0.7098,0.6333 A1.3584,1.3584 0 0 1 1.6936,-0.6333 ZM1.9811,1.0774 T1.805,1.4548 0.2321,2.8663 -2.9854,3.4896 -5.26,2.4352 -5.714,1.7917 A1.398,1.398 0 0 1 -3.3479,0.3021 T-2.0925,0.4733 -0.658,0.2755 -0.4788,-0.0935 A1.3622,1.3622 0 0 1 1.9811,1.0774 ZM-5.6865,0.2601 T-5.3458,-0.2303 -4.626,-1.2674 -4.2469,-1.8141 A1.3754,1.3754 0 0 1 -1.9731,-0.2659 T-2.3428,0.2872 -3.0439,1.337 -3.3754,1.8337 A1.398,1.398 0 0 1 -5.6865,0.2601 Z" stroke-linecap="round" fill="#f2f2f2"/></g></g><g transform="matrix(1, 0, 0, 1, -364.9226, 5000.907)" opacity="1"><g transform="scale(1)"><path d="M0.6787,-2.3908 T1.1662,-2.1408 1.6537,-1.8909 A1.5027,1.5027 0 0 1 0.3045,0.7947 T-0.1871,0.5527 -0.6787,0.3108 A1.5117,1.5117 0 0 1 0.6787,-2.3908 ZM-0.2423,-1.4235 T0.0513,-1.8083 1.8867,-3.1543 5.736,-4.0753 8.0434,-4.035 A1.4939,1.4939 0 0 1 7.31,-1.1385 T6.7374,-1.3324 4.4051,-0.9346 2.4229,-0.0077 2.2005,0.3274 A1.5027,1.5027 0 0 1 -0.2423,-1.4235 ZM8.7753,-1.5744 T8.3158,-1.0969 6.1849,-0.1059 4.5134,0.4077 A1.4926,1.4926 0 0 1 3.7866,-2.4877 T4.8489,-2.6605 6.2447,-3.2162 6.5781,-3.5991 A1.4939,1.4939 0 0 1 8.7753,-1.5744 Z" stroke-linecap="round" fill="#f2f2f2"/></g></g><g transform="matrix(1, 0, 0, 1, -239.4083, 4880.5792)" opacity="1"><g transform="scale(1)"><path d="M0,1.3743 T-1.035,1.3743 -2.07,1.3743 A1.3743,1.3743 0 0 1 -2.07,-1.3743 T-1.035,-1.3743 0,-1.3743 A1.3743,1.3743 0 0 1 0,1.3743 ZM-2.07,-1.3743 T-1.035,-1.3743 0,-1.3743 A1.3743,1.3743 0 0 1 0,1.3743 T-1.035,1.3743 -2.07,1.3743 A1.3743,1.3743 0 0 1 -2.07,-1.3743 Z" stroke-linecap="round" fill="#f2f2f2"/></g></g><g transform="matrix(1, 0, 0, 1, -402.2657, 4879.5419)" opacity="1"><g transform="scale(1)"><path d="M0,1.366 T-1.035,1.3645 -2.07,1.363 A1.363,1.363 0 0 1 -2.07,-1.363 T-1.035,-1.3645 0,-1.366 A1.366,1.366 0 0 1 0,1.366 Z" stroke-linecap="round" fill="#f2f2f2"/></g></g><g transform="matrix(1, 0, 0, 1, -409.5269, 4859.833)" opacity="1"><g transform="scale(1)"><path d="M1.5475,-0.3101 T1.7786,0.9206 2.4256,4.3214 3.265,7.9483 4.051,11.1103 4.868,14.1808 5.8353,17.4379 6.8692,20.961 7.9207,24.1695 8.9872,27.6969 10.0386,31.2681 11.3909,34.8719 12.5517,38.7405 13.3297,42.0517 14.283,45.0922 15.5965,48.577 16.9401,51.9642 17.9929,55.0301 18.8378,58.0591 19.6728,61.5262 20.7432,65.1957 21.733,68.278 22.6578,71.1895 23.6752,74.1511 24.7178,77.2242 25.7719,80.7211 26.8282,84.6065 27.8694,88.2847 28.9302,91.8069 30.0979,94.9689 31.3674,97.7856 32.8137,101.044 34.2873,104.0687 35.5822,106.9387 36.7885,110.0212 38.2152,113.1535 39.7296,116.3469 41.0093,119.7865 42.3185,123.3879 43.8124,126.7128 45.48,129.7278 47.0388,132.7466 48.5593,136.1653 50.3494,139.5331 52.4652,142.825 55.0576,146.1299 57.6335,149.3039 60.1793,152.6755 62.7329,155.7473 64.9613,158.5145 67.0212,161.7064 69.5235,164.939 72.2474,167.8189 74.484,170.3463 76.9029,172.4825 79.635,174.0103 82.6584,175.5724 85.9773,177.1119 89.3627,177.7479 92.6422,177.7196 95.98,177.3054 99.4451,176.3889 102.9581,175.0075 106.0849,173.5531 108.5965,172.09 111.0298,170.3017 113.7507,167.7897 116.2139,165.0139 118.1932,162.0285 120.3152,158.864 122.5769,156.0538 124.6929,152.9376 126.5994,149.5256 128.1613,146.5826 129.2555,143.8551 130.3455,140.4592 131.4667,136.6956 132.5057,133.1256 133.5419,129.5156 134.5907,126.0646 135.5226,122.5392 136.5005,118.9159 137.4368,115.7596 138.7307,111.6829 140.6561,106.4272 142.3621,101.9599 143.6094,98.5065 144.6213,95.2237 146.0257,91.4213 147.9496,87.4124 149.548,83.6032 150.7054,79.6618 151.892,75.8755 153.0443,72.4848 154.022,69.0253 154.9948,65.6951 156.0043,62.3262 157.0373,58.7701 158.1599,55.5885 159.1972,52.5209 159.8443,49.427 160.4974,45.6918 161.7646,41.084 163.1152,36.3344 164.1842,31.7787 165.2359,27.471 166.2873,23.5954 167.0137,20.4079 167.2703,16.895 167.3446,12.471 167.3555,8.2101 167.7349,4.4547 168.206,1.1844 168.617,-2.4794 169.2236,-5.8055 169.5096,-6.9071 A2.7671,2.7671 0 0 1 174.8704,-5.5329 T174.5913,-4.4296 174.0872,-1.6745 173.7433,1.7027 173.245,5.8652 172.8452,10.5407 172.7786,14.9739 172.5631,19.2488 171.8538,23.2621 170.7992,26.9701 169.7535,30.8751 168.6595,35.2766 167.4049,40.0451 166.2382,44.602 165.3832,48.8306 164.4916,52.6279 163.4508,55.742 162.4157,58.8117 161.4056,62.0896 160.3689,65.6495 159.3569,68.8722 158.2661,72.7865 156.9737,77.2391 155.7279,81.2284 154.4697,85.479 152.7709,89.5904 150.9106,93.4396 149.4649,97.2706 148.3029,100.8211 147.1322,104.0245 145.532,108.171 144.0462,112.1067 142.8149,115.8053 141.1623,120.8554 139.9083,125.4772 139.0567,128.9932 138.02,132.6166 136.9806,136.2318 135.9308,139.8061 134.5936,143.6441 132.9736,147.8298 131.3423,151.7075 129.4925,154.5933 127.3057,157.4781 125.0018,160.8443 122.9983,164.2487 121.2139,166.9707 119.0721,169.5539 116.8051,172.0588 114.5721,174.1146 111.8116,176.1735 108.3427,178.2078 104.9156,179.8276 101.8629,180.9286 98.2287,181.9009 94.327,182.719 90.3639,182.9364 85.9937,182.176 81.6683,180.4258 77.2843,178.2813 73.4792,176.0239 70.4707,173.4413 68.0793,170.702 65.8255,168.0235 63.4603,164.7777 61.4613,161.4929 59.5275,159.0005 57.469,156.3918 55.4055,153.7824 53.31,151.1342 51.1417,148.3862 49.1364,145.6971 47.1571,142.5446 45.1849,139.1176 43.6508,136.0139 42.4049,133.3287 40.9317,130.475 39.5264,127.5429 38.3573,124.6427 37.2862,121.4726 35.8295,117.8248 34.2718,114.45 33.2072,111.7118 32.1602,108.8556 30.751,105.5938 29.2674,102.4758 27.6937,99.1665 26.202,95.5049 25.0885,91.519 23.9735,87.3758 22.9311,83.6021 21.9127,80.074 20.9357,76.8389 19.9259,73.8165 18.8958,70.8762 18.0378,67.4835 17.0463,63.6985 15.8355,59.8215 14.726,56.3335 13.7069,53.3033 12.313,49.6698 10.9245,45.8225 9.9727,42.6071 9.3007,39.5782 8.6563,36.6053 7.6468,33.6512 6.5298,30.3351 5.524,26.7702 4.5365,23.391 3.5092,19.9776 2.552,16.5511 1.5805,12.9117 0.4789,9.1211 -0.5587,5.0428 -1.2867,1.5343 -1.5475,0.3101 A1.5783,1.5783 0 0 1 1.5475,-0.3101 Z" stroke-linecap="round" fill="#40c057"/></g></g><g transform="matrix(1, 0, 0, 1, -1.8646, 4843.2361)" opacity="1"><g transform="scale(1)"><path d="M1.5208,0 T1.5187,2.9444 1.5153,7.9301 1.5211,12.0286 1.5328,15.9055 1.5432,19.1761 1.5569,22.1271 1.5767,26.0739 1.6042,30.8523 1.6305,35.3944 1.6472,39.2591 1.66,43.4855 1.6708,48.2733 1.4167,51.9484 0.9763,55.5969 0.7428,60.2587 0.4126,65.1039 -0.0442,70.1622 -0.2763,75.5055 -0.3453,80.395 -0.3661,84.7452 -0.3768,89.3258 -0.6513,94.1561 -1.1014,98.4953 -1.3363,102.5104 -1.4047,106.4904 -1.4166,110.4634 -1.4108,114.6943 -1.1739,118.6898 -0.72,122.6668 -0.4388,126.6963 -0.1472,129.961 0.3246,133.7555 0.6291,138.0332 0.7165,142.5782 0.7433,146.7002 0.7486,149.6825 0.7522,153.5202 0.7546,157.8745 0.7556,161.9636 0.9815,166.1511 1.3532,169.7078 1.6059,173.1264 1.7424,177.4197 1.7786,181.8625 1.7787,186.5947 1.7678,191.6553 1.9847,196.2446 2.4229,200.3778 2.6983,204.7164 2.7733,209.1856 2.7942,213.5461 2.8034,218.3741 2.8113,222.9585 2.8171,226.6074 2.8216,230.3711 3.0253,233.8934 3.4634,237.1134 3.7624,240.7799 3.8439,244.6721 3.8695,248.3716 3.8798,252.2666 3.8857,256.5896 3.8892,260.5415 3.8915,264.2609 3.8964,268.9116 3.9032,273.1765 3.639,276.9487 3.161,281.5848 2.9185,285.6594 2.607,289.5663 2.1171,294.0764 1.8787,298.3532 1.8429,302.2475 1.4542,306.2016 0.9779,310.1557 0.8579,313.8899 1.051,317.3216 1.5461,320.0345 1.8229,321.1125 A1.8794,1.8794 0 0 1 -1.8229,322.0275 T-2.088,320.9465 -2.6104,317.7526 -2.8348,313.8009 -2.6866,309.8481 -2.1973,305.9378 -1.8142,302.21 -1.7751,298.2757 -1.627,294.4199 -1.1407,290.9259 -0.7592,287.3781 -0.6912,283.499 -0.4214,279.9557 0.0138,276.5276 0.2368,273.1765 0.2429,270.2429 0.2474,266.3417 0.2495,262.1752 0.2519,258.3758 0.255,254.136 0.2568,250.1257 0.252,246.476 0.2231,242.7836 0.1069,239.3886 -0.3632,236.1529 -0.7416,232.5506 -0.7397,228.5907 -0.7349,224.7074 -0.7285,220.5756 -0.7263,216.0722 -0.7354,211.5802 -0.7705,207.0776 -0.8957,203.0158 -1.3758,198.8133 -1.7641,193.9851 -1.7773,189.1091 -1.7958,184.1687 -1.8216,179.4045 -1.8885,175.283 -2.122,171.1882 -2.5697,166.5345 -2.836,161.9639 -2.8358,157.8753 -2.8364,153.5226 -2.8381,149.6877 -2.8429,145.3213 -2.8678,140.2857 -2.9774,136.0508 -3.4464,132.0549 -3.8528,128.4365 -3.9688,124.7887 -4.4364,120.6715 -4.8099,116.6267 -4.7974,112.4259 -4.7764,108.1057 -4.7354,104.2383 -4.5983,100.2229 -4.1216,96.0259 -3.7562,91.7173 -3.7605,87.0951 -3.7535,82.5804 -3.7147,78.0086 -3.6471,74.1608 -3.5341,70.8608 -3.083,66.9603 -2.6772,62.6001 -2.5352,57.7799 -2.0492,52.8769 -1.6708,48.268 -1.66,43.4855 -1.6472,39.2591 -1.6305,35.3944 -1.6042,30.8523 -1.5767,26.0739 -1.5569,22.1271 -1.5432,19.1761 -1.5328,15.9055 -1.5211,12.0286 -1.5153,7.9301 -1.5187,2.9444 -1.5208,0 A1.5208,1.5208 0 0 1 1.5208,0 Z" stroke-linecap="round" fill="#f2f2f2"/></g></g><g transform="matrix(1, 0, 0, 1, -119.0805, 5042.3993)" opacity="1"><g transform="scale(1)"><path d="M-0.1961,-1.5653 T1.767,-1.8105 5.7929,-2.1971 9.6742,-2.4163 14.6702,-2.548 20.2494,-2.6379 24.8997,-2.696 28.5759,-2.7289 31.9851,-2.7528 35.7458,-2.7777 39.1982,-2.8014 42.7347,-2.8232 46.5614,-2.8415 50.0515,-2.8575 53.1182,-2.8716 56.6973,-2.8887 61.9766,-2.9148 66.7194,-2.9391 69.7516,-2.9555 73.0689,-2.9734 76.7778,-2.9928 80.4493,-3.0078 84.8477,-3.0255 90.1031,-3.0472 95.3076,-3.0693 100.5004,-3.0917 105.6888,-3.1099 110.7464,-3.1226 115.5228,-3.1353 120.5943,-3.1521 124.842,-3.1661 128.6566,-3.5429 133.4944,-4.029 138.5702,-4.1751 144.2634,-4.5966 148.8308,-5.0574 152.6806,-5.1863 156.8868,-5.2595 160.3046,-5.2796 163.8769,-5.2852 168.4881,-5.2894 173.1418,-5.2954 177.8036,-5.3014 182.8433,-5.3083 187.37,-5.3168 191.495,-5.321 196.2583,-5.3225 201.2123,-5.3235 204.964,-5.3209 208.1238,-5.3161 211.4949,-5.3106 215.053,-5.3077 219.167,-5.3067 223.307,-5.3042 226.7043,-5.301 230.644,-5.2981 234.7356,-5.2956 238.5821,-4.9958 242.8473,-4.5134 246.5668,-4.3 249.6465,-4.2591 253.9824,-4.2481 258.8046,-4.6156 263.1665,-5.0918 267.6325,-4.7883 270.8851,-4.1856 271.999,-3.9949 A1.9385,1.9385 0 0 1 271.541,-0.1451 T270.4135,-0.221 267.4536,-0.5782 263.4918,-0.7597 259.0769,-0.2778 253.986,0.1002 249.6142,0.0907 246.4511,0.0575 243.1605,-0.0846 238.9856,-0.5621 234.7356,-0.9244 230.644,-0.9219 226.7043,-0.919 223.307,-0.9158 219.167,-0.9133 215.053,-0.9123 211.4949,-0.9094 208.1238,-0.9039 204.964,-0.8991 201.2123,-0.8965 197.6057,-0.8952 193.6495,-0.8968 189.2691,-0.9009 185.1665,-0.9082 180.3017,-0.916 175.3926,-0.9213 170.734,-0.9282 166.0967,-0.9315 162.0122,-0.9287 158.515,-0.9183 154.8806,-0.8811 150.3166,-0.7481 146.0755,-0.5288 141.448,-0.1426 136.0126,0.1767 131.4259,0.3995 127.8182,0.8322 124.849,1.0861 120.5943,1.0721 115.5228,1.0553 110.7464,1.0426 105.6888,1.0299 100.5004,1.0117 95.3076,0.9893 90.1031,0.9672 84.8477,0.9455 80.4493,0.9278 76.7778,0.9128 73.069,0.8934 69.7516,0.8755 66.7194,0.8591 61.9767,0.8349 56.6974,0.8089 53.1184,0.792 50.0518,0.7782 46.562,0.7629 42.7359,0.7458 39.2005,0.7263 35.7496,0.7072 31.9939,0.6907 28.5898,0.6829 24.9205,0.6806 20.2814,0.6804 14.7499,0.7004 9.8373,0.7774 6.0908,0.9541 2.1589,1.3186 0.1961,1.5653 A1.5776,1.5776 0 0 1 -0.1961,-1.5653 Z" stroke-linecap="round" fill="#f2f2f2"/></g></g><g transform="matrix(1, 0, 0, 1, 37.5531, 5000.907)" opacity="1"><g transform="scale(1)"><path d="M-1.8621,-1.8621 T-1.3421,-2.3821 -0.8221,-2.9021 A2.6334,2.6334 0 0 1 2.9021,0.8221 T2.3821,1.3421 1.8621,1.8621 A2.6334,2.6334 0 0 1 -1.8621,-1.8621 Z" stroke-linecap="round" fill="#f2f2f2"/></g></g><g transform="matrix(1, 0, 0, 1, 79.0454, 4964.6012)" opacity="1"><g transform="scale(1)"><path d="M-0.0088,1.0488 T-0.5305,0.5305 -1.0522,0.0122 A1.488,1.488 0 0 1 1.0522,-2.0922 T1.5705,-1.5705 2.0888,-1.0488 A1.4833,1.4833 0 0 1 -0.0088,1.0488 Z" stroke-linecap="round" fill="#f2f2f2"/></g></g><g transform="matrix(1, 0, 0, 1, -1.8646, 4963.5639)" opacity="1"><g transform="scale(1)"><path d="M0,-1.5365 T1.035,-1.548 2.07,-1.5596 A1.5596,1.5596 0 0 1 2.07,1.5596 T1.035,1.548 0,1.5365 A1.5365,1.5365 0 0 1 0,-1.5365 ZM2.4346,1.5163 T1.5842,1.693 0.1994,2.1392 -0.335,2.4088 A1.5397,1.5397 0 0 1 -1.745,-0.3288 T-1.2153,-0.6073 0.5099,-1.2011 1.7054,-1.5163 A1.5596,1.5596 0 0 1 2.4346,1.5163 Z" stroke-linecap="round" fill="#f2f2f2"/></g></g><g transform="matrix(1, 0, 0, 1, 116.3885, 4840.1241)" opacity="1"><g transform="scale(1)"><path d="M 1.04 0 m -2.633441917710341, 0 a 2.633441917710341,2.633441917710341 0 1,1 5.266883835420682,0 a 2.633441917710341,2.633441917710341 0 1,1 -5.266883835420682,0" stroke-linecap="round" fill="#f2f2f2"/></g></g><g transform="matrix(1, 0, 0, 1, -42.3197, 4841.1615)" opacity="1"><g transform="scale(1)"><path d="M 1.04 0 m -2.633441917710341, 0 a 2.633441917710341,2.633441917710341 0 1,1 5.266883835420682,0 a 2.633441917710341,2.633441917710341 0 1,1 -5.266883835420682,0" stroke-linecap="round" fill="#f2f2f2"/></g></g><g transform="matrix(1, 0, 0, 1, -42.3197, 4840.1241)" opacity="1"><g transform="scale(1)"><path d="M1.3798,-0.2765 T1.9131,2.3158 2.4464,4.9082 A1.4344,1.4344 0 0 1 -0.3664,5.4718 T-0.8731,2.8742 -1.3798,0.2765 A1.4072,1.4072 0 0 1 1.3798,-0.2765 Z" stroke-linecap="round" fill="#f2f2f2"/></g></g><g transform="matrix(1, 0, 0, 1, -42.3197, 4839.0868)" opacity="1"><g transform="scale(1)"><path d="M1.9227,1.04 T1.9034,2.757 2.1041,6.9116 2.5427,11.3185 3.0449,15.129 3.5842,19.1931 4.2844,23.417 5.0846,27.3662 5.8909,31.028 6.682,34.6272 7.4907,38.9115 8.2885,42.7086 8.9057,46.2823 9.4695,49.8985 10.2077,53.2763 11.1399,56.9162 11.9606,60.4144 12.7333,64.2771 13.7868,68.1195 14.8698,71.5938 15.8255,74.8765 16.8818,78.5991 17.9088,82.286 19.1594,85.286 20.5091,88.1929 21.8255,91.5604 23.5459,95.4511 25.5655,99.4847 27.3068,102.7856 28.9589,105.5132 31.3545,108.8254 33.9173,111.9942 36.1449,114.9208 38.2993,118.0512 40.9302,121.5082 43.6951,124.5987 45.8275,126.8766 48.1601,129.3955 50.9844,132.1522 53.2528,134.7658 55.617,137.9858 58.5673,141.5476 61.0871,144.6867 63.1639,147.2726 65.1327,149.3621 67.6332,151.4467 70.5888,153.535 73.7436,155.0282 77.5614,156.1738 81.1646,156.8437 84.7081,156.5234 88.1889,155.5243 91.1398,154.3023 94.5675,153.0177 97.9161,151.3333 100.3986,149.1131 102.7938,146.6901 104.9771,144.2932 107.1004,141.701 109.0841,139.0123 110.6431,136.0765 112.5681,132.854 114.3539,129.9872 116.1197,127.5222 117.9891,124.688 119.4932,121.764 120.3289,118.9948 120.9575,115.6435 121.9226,111.879 122.9564,108.3766 123.9843,105.3237 125.012,102.2366 126.4507,98.5805 127.9607,95.3016 129.421,92.0563 130.927,88.377 132.1471,84.8161 133.5807,80.9077 135.0097,77.2113 136.0673,73.5564 137.5054,69.0879 139.4847,64.498 141.0914,60.531 142.6607,56.4334 144.2853,51.7465 145.472,47.3521 146.5081,43.5205 147.6069,39.6642 148.7565,36.0796 149.7364,32.8065 150.7022,29.2875 151.4259,25.3548 152.0489,21.6246 152.5635,18.3104 152.977,14.6013 153.7559,10.6128 154.7357,6.871 155.9203,3.8262 156.0817,1.4037 155.5823,0.2858 A2.4731,2.4731 0 0 1 159.7577,-2.3658 T160.2985,-1.6501 161.3836,1.7336 161.0253,6.4783 159.6512,10.2195 158.7744,14.3519 158.2293,18.9098 157.6387,23.1108 156.8074,27.491 155.9788,31.3413 155.1733,34.329 154.2511,37.3746 153.0018,41.2824 151.78,45.5053 150.7939,49.196 149.8872,52.7247 148.6552,56.508 147.082,60.6699 145.4503,64.8435 143.6911,68.906 142.0466,73.134 140.7372,77.2768 139.4548,81.0742 138.2205,84.5659 136.994,88.3895 135.4081,92.4318 133.8266,95.9853 132.0368,99.7625 130.4103,103.4924 129.3634,106.6005 128.331,109.6615 127.3553,112.9131 126.4688,116.3585 125.8135,120.0773 124.7308,123.8758 122.9569,127.4898 120.7223,131.0818 118.4069,134.4695 116.4496,137.5895 114.2206,141.2753 111.9581,144.456 109.8031,147.1369 107.2306,150.1567 104.6041,153.0401 101.7992,155.6894 98.2719,157.8004 94.7481,159.2844 91.4635,160.2775 88.1128,161.3348 84.3914,162.2033 80.5418,162.3182 77.0994,161.6347 73.9929,160.654 70.3601,159.3767 66.8168,157.6172 63.8681,155.4842 61.184,153.1846 59.0037,150.8387 56.9336,148.2382 54.8679,145.6404 52.8145,143.0487 50.7945,140.4627 49.0267,137.8772 47.0336,135.5304 44.7364,133.4904 42.881,131.2733 40.6903,128.9294 38.4232,126.4237 36.4734,123.9957 34.4169,121.3223 32.3264,118.1835 30.2469,115.3818 28.1602,112.6834 25.9709,109.7265 23.8889,106.6165 21.917,102.9249 19.8901,98.7674 17.9782,94.5998 16.5712,91.0948 15.5847,88.1611 14.4133,85.2055 13.2977,82.124 12.4085,78.8983 11.4588,75.6887 10.5272,72.3069 9.5554,69.0185 8.5661,65.736 7.8767,62.1433 7.1151,58.4089 6.1213,54.5379 5.3168,50.6766 4.802,47.1082 4.2402,43.7024 3.4415,40.32 2.8097,36.4618 2.0822,32.3242 1.2006,28.1813 0.3992,23.843 -0.1918,19.8117 -0.6722,15.7369 -1.163,11.8189 -1.6122,7.2788 -1.9034,2.757 -1.9227,1.04 A1.9227,1.9227 0 0 1 1.9227,1.04 Z" stroke-linecap="round" fill="#e03131"/></g></g><g transform="matrix(1, 0, 0, 1, -320.3183, 4637.849)" opacity="1"><g transform="scale(1)"><path d="M1.4515,0.3637 T1.233,1.3515 1.0734,5.0941 1.3045,10.0841 1.4768,12.3191 A1.4826,1.4826 0 0 1 -1.4768,12.5809 T-1.7004,10.3504 -1.9612,4.8533 -1.725,0.6115 -1.4515,-0.3637 A1.4963,1.4963 0 0 1 1.4515,0.3637 Z" stroke-linecap="round" fill="#f2f2f2"/></g></g><g transform="matrix(1, 0, 0, 1, -322.393, 4670.0055)" opacity="1"><g transform="scale(1)"><path d="M1.6443,-0.1649 T1.9411,2.2825 2.3743,6.5379 2.659,10.3338 2.8075,12.3216 A1.7721,1.7721 0 0 1 -0.7275,12.5784 T-0.8679,10.59 -1.1312,6.8409 -1.4492,2.6225 -1.6443,0.1649 A1.6525,1.6525 0 0 1 1.6443,-0.1649 Z" stroke-linecap="round" fill="#f2f2f2"/></g></g><g transform="matrix(1, 0, 0, 1, -323.4303, 4670.0055)" opacity="1"><g transform="scale(1)"><path d="M-0.1498,1.5574 T-1.8816,2.5128 -5.5392,4.5395 -7.465,5.6108 A1.6827,1.6827 0 0 1 -9.135,2.6892 T-7.2347,1.5734 -3.6323,-0.5499 -1.9302,-1.5574 A1.7939,1.7939 0 0 1 -0.1498,1.5574 Z" stroke-linecap="round" fill="#f2f2f2"/></g></g><g transform="matrix(1, 0, 0, 1, -362.848, 4603.6178)" opacity="1"><g transform="scale(1)"><path d="M0,-3.0576 T1.2274,-3.104 3.3453,-3.1706 4.2358,-3.1908 A2.1508,2.1508 0 0 1 4.2358,1.1108 T3.3453,1.0906 1.2274,1.024 0,0.9776 A2.0176,2.0176 0 0 1 0,-3.0576 ZM2.0924,-0.8615 T2.0724,-1.3784 2.0524,-1.8953 A2.1049,2.1049 0 0 1 6.2476,-2.2447 T6.3134,-1.7316 6.3792,-1.2185 A2.1508,2.1508 0 0 1 2.0924,-0.8615 Z" stroke-linecap="round" fill="#f2f2f2"/></g></g><g transform="matrix(1, 0, 0, 1, -341.0645, 4591.1701)" opacity="1"><g transform="scale(1)"><path d="M1.6829,-0.3372 T1.9657,0.8833 2.429,3.5809 2.4585,6.496 2.1564,11.278 2.0053,14.6219 A2.0079,2.0079 0 0 1 -2.0053,14.4181 T-1.8929,12.3492 -1.6482,8.8289 -1.3902,5.0916 -1.4738,1.5715 -1.6829,0.3372 A1.7164,1.7164 0 0 1 1.6829,-0.3372 ZM-2.0079,14.52 T-1.9887,12.965 -1.9695,11.41 A1.9695,1.9695 0 0 1 1.9695,11.41 T1.9887,12.965 2.0079,14.52 A2.0079,2.0079 0 0 1 -2.0079,14.52 Z" stroke-linecap="round" fill="#f2f2f2"/></g></g><g transform="matrix(1, 0, 0, 1, -343.1391, 4591.1701)" opacity="1"><g transform="scale(1)"><path d="M-0.1029,1.8787 T-2.1982,2.873 -4.2935,3.8674 A2.0086,2.0086 0 0 1 -6.0865,0.2726 T-4.0318,-0.803 -1.9771,-1.8787 A2.0994,2.0994 0 0 1 -0.1029,1.8787 Z" stroke-linecap="round" fill="#f2f2f2"/></g></g><g transform="matrix(1, 0, 0, 1, -360.7734, 4483.29)" opacity="1"><g transform="scale(1)"><path d="M0,1.5686 T-1.555,1.5801 -3.11,1.5915 A1.5915,1.5915 0 0 1 -3.11,-1.5915 T-1.555,-1.5801 0,-1.5686 A1.5686,1.5686 0 0 1 0,1.5686 ZM-3.11,-1.5915 T-2.5295,-1.5981 -0.4545,-1.6447 1.04,-1.6847 A1.6847,1.6847 0 0 1 1.04,1.6847 T-0.4545,1.6447 -2.5295,1.5981 -3.11,1.5915 A1.5915,1.5915 0 0 1 -3.11,-1.5915 ZM1.04,1.6847 T0.4941,1.6904 -2.1362,1.3195 -6.2628,-0.2073 -9.293,-2.1087 -10.2809,-2.86 A1.5966,1.5966 0 0 1 -8.3991,-5.44 T-7.382,-4.7288 -5.0595,-3.2314 -1.8903,-2.0706 0.5068,-1.6904 1.04,-1.6847 A1.6847,1.6847 0 0 1 1.04,1.6847 Z" stroke-linecap="round" fill="#f2f2f2"/></g></g><g transform="matrix(1, 0, 0, 1, -344.1764, 4472.9169)" opacity="1"><g transform="scale(1)"><path d="M1.4559,1.2224 T1.2949,3.196 1.6066,6.6674 3.423,7.4446 5.6282,6.2886 6.4897,5.8532 A1.6039,1.6039 0 0 1 8.0303,8.6668 T6.5003,9.5751 3.2897,11.0472 0.1228,10.7224 -1.7406,7.2979 -1.7868,2.8099 -1.4559,0.8576 A1.4673,1.4673 0 0 1 1.4559,1.2224 Z" stroke-linecap="round" fill="#f2f2f2"/></g></g><g transform="matrix(1, 0, 0, 1, -337.9526, 4472.9169)" opacity="1"><g transform="scale(1)"><path d="M1.5018,0 T1.5337,1.4694 1.9761,5.9173 2.4296,10.4733 2.5236,13.7714 2.5747,15.4921 A1.5362,1.5362 0 0 1 -0.4947,15.6279 T-0.5958,13.9095 -0.7907,10.6817 -0.996,7.7002 -1.3366,4.5866 -1.5337,1.4727 -1.5018,0 A1.5018,1.5018 0 0 1 1.5018,0 Z" stroke-linecap="round" fill="#f2f2f2"/></g></g><g transform="matrix(1, 0, 0, 1, -285.0499, 4638.8863)" opacity="1"><g transform="scale(1)"><path d="M1.6045,-0.201 T1.8756,1.7588 2.2393,5.5344 2.4401,9.3248 2.5483,11.2995 A1.5123,1.5123 0 0 1 -0.4683,11.5205 T-0.649,9.5511 -0.9963,5.8574 -1.3836,2.1671 -1.6045,0.201 A1.617,1.617 0 0 1 1.6045,-0.201 Z" stroke-linecap="round" fill="#f2f2f2"/></g></g><g transform="matrix(1, 0, 0, 1, -287.1245, 4664.819)" opacity="1"><g transform="scale(1)"><path d="M1.721,-1.2897 T2.4467,-0.2975 3.7113,2.8128 3.456,6.8806 2.0559,10.2016 1.4499,11.5728 A2.0733,2.0733 0 0 1 -2.4745,10.2339 T-1.7083,8.5163 -0.5863,5.0149 -0.9757,2.2604 -1.721,1.2897 A2.1507,2.1507 0 0 1 1.721,-1.2897 ZM0.5529,9.1247 T1.1562,9.4742 3.6354,10.0132 7.0075,10.2673 9.4546,10.3645 10.4057,10.3972 A2.0531,2.0531 0 0 1 10.3343,14.5028 T8.5037,14.503 5.0212,14.4185 1.5141,13.8901 -0.9594,13.0641 -1.5776,12.682 A2.0733,2.0733 0 0 1 0.5529,9.1247 Z" stroke-linecap="round" fill="#f2f2f2"/></g></g><g transform="matrix(1, 0, 0, 1, 36.5158, 4644.0728)" opacity="1"><g transform="scale(1)"><path d="M-1.4876,-0.4916 T-1.1181,-1.6301 -0.7486,-2.7685 A1.5795,1.5795 0 0 1 2.2509,-1.7772 T1.8692,-0.6428 1.4876,0.4916 A1.5667,1.5667 0 0 1 -1.4876,-0.4916 ZM2.3181,-2.472 T2.3913,-1.9351 2.766,0.3273 3.2312,3.5122 3.4807,5.9848 3.5665,6.9979 A1.6746,1.6746 0 0 1 0.2275,7.2592 T0.027,4.9141 -0.4313,0.7858 -0.7524,-1.5355 -0.8157,-2.0737 A1.5795,1.5795 0 0 1 2.3181,-2.472 ZM2.91,5.7951 T2.9954,5.8622 3.0809,5.9293 A1.6712,1.6712 0 0 1 1.0591,8.5907 T0.9715,8.5264 0.884,8.462 A1.6746,1.6746 0 0 1 2.91,5.7951 Z" stroke-linecap="round" fill="#f2f2f2"/></g></g><g transform="matrix(1, 0, 0, 1, 38.5904, 4668.9682)" opacity="1"><g transform="scale(1)"><path d="M1.617,-0.1622 T1.8912,2.2875 2.3093,6.5437 2.6086,10.3375 2.7639,12.3248 A1.7285,1.7285 0 0 1 -0.6839,12.5752 T-0.8175,10.5863 -1.0662,6.8351 -1.3992,2.6175 -1.617,0.1622 A1.6251,1.6251 0 0 1 1.617,-0.1622 Z" stroke-linecap="round" fill="#f2f2f2"/></g></g><g transform="matrix(1, 0, 0, 1, 38.5904, 4671.0429)" opacity="1"><g transform="scale(1)"><path d="M0.4961,1.4908 T-0.9835,1.9545 -4.1099,2.9401 -5.7568,3.462 A1.467,1.467 0 0 1 -6.6832,0.678 T-5.0521,0.109 -1.9586,-0.9754 -0.4961,-1.4908 A1.5712,1.5712 0 0 1 0.4961,1.4908 Z" stroke-linecap="round" fill="#f2f2f2"/></g></g><g transform="matrix(1, 0, 0, 1, -1.8646, 4600.5059)" opacity="1"><g transform="scale(1)"><path d="M-0.4008,1.4056 T-2.1295,0.9576 -5.9486,0.5831 -9.5432,1.0165 -11.0474,1.3763 A1.4232,1.4232 0 0 1 -11.7726,-1.3763 T-10.2864,-1.8044 -5.905,-2.3502 -1.3045,-1.9367 0.4008,-1.4056 A1.4616,1.4616 0 0 1 -0.4008,1.4056 Z" stroke-linecap="round" fill="#f2f2f2"/></g></g><g transform="matrix(1, 0, 0, 1, -34.0212, 4595.3193)" opacity="1"><g transform="scale(1)"><path d="M1.4856,-0.3705 T2.0105,1.5837 2.9496,6.0834 3.5075,9.9272 3.6511,11.2254 A1.5918,1.5918 0 0 1 0.4889,11.5946 T0.3295,10.2983 -0.2035,6.6579 -1.0314,2.3422 -1.4856,0.3705 A1.5311,1.5311 0 0 1 1.4856,-0.3705 Z" stroke-linecap="round" fill="#f2f2f2"/></g></g><g transform="matrix(1, 0, 0, 1, -35.0585, 4594.282)" opacity="1"><g transform="scale(1)"><path d="M0.5241,1.8381 T-1.1858,2.3519 -6.274,3.8917 -11.8411,5.4733 -14.0299,6.029 A1.9419,1.9419 0 0 1 -15.0101,2.271 T-12.8288,1.6868 -8.7775,0.6012 -5.4399,-0.4039 -2.2482,-1.3728 -0.5241,-1.8381 A1.9113,1.9113 0 0 1 0.5241,1.8381 Z" stroke-linecap="round" fill="#f2f2f2"/></g></g><g transform="matrix(1, 0, 0, 1, -2.9019, 4483.29)" opacity="1"><g transform="scale(1)"><path d="M-1.664,0 T-1.6423,-2.4525 -1.6147,-6.9354 -1.6112,-10.5253 -1.625,-13.6422 -1.6663,-18.4291 -1.7137,-23.4021 -2.1101,-27.4361 -2.6155,-31.9708 -3.0051,-35.9978 -3.5068,-39.6133 -3.2133,-43.7189 -2.6816,-45.9919 A1.6789,1.6789 0 0 1 0.6016,-45.2881 T0.4104,-44.2066 0.1263,-41.6037 0.4168,-38.1751 0.8397,-34.4162 1.052,-30.4186 1.4778,-26.7136 1.7137,-23.4065 1.6663,-18.4291 1.625,-13.6422 1.6112,-10.5253 1.6147,-6.9354 1.6423,-2.4525 1.664,0 A1.664,1.664 0 0 1 -1.664,0 Z" stroke-linecap="round" fill="#f2f2f2"/></g></g><g transform="matrix(1, 0, 0, 1, -7.0512, 4439.7231)" opacity="1"><g transform="scale(1)"><path d="M0.877,-1.6257 T3.3241,-1.9252 7.3223,-2.3516 11.5167,-3.0244 14.1601,-3.5702 A1.5428,1.5428 0 0 1 14.8799,-0.5698 T13.4419,-0.1772 10.5872,0.5958 7.6446,1.1085 3.6609,1.4333 1.203,1.6257 A1.6339,1.6339 0 0 1 0.877,-1.6257 Z" stroke-linecap="round" fill="#f2f2f2"/></g></g><g transform="matrix(1, 0, 0, 1, 17.8442, 4435.5738)" opacity="1"><g transform="scale(1)"><path d="M2.0008,0.4009 T1.7535,1.6278 2.8177,3.8979 5.3552,5.6734 7.4298,8.3751 7.243,11.9142 4.5161,14.388 0.6098,15.826 -1.6052,16.3596 A1.8974,1.8974 0 0 1 -2.5348,12.6804 T-0.777,12.2102 2.1697,10.2887 0.9626,8.0121 -1.9618,4.6209 -2.2454,0.8271 -2.0008,-0.4009 A2.0406,2.0406 0 0 1 2.0008,0.4009 Z" stroke-linecap="round" fill="#f2f2f2"/></g></g><g transform="matrix(1, 0, 0, 1, 16.8069, 4435.5738)" opacity="1"><g transform="scale(1)"><path d="M0,-1.5447 T2.4525,-1.6465 6.438,-1.7907 9.4384,-2.3873 12.2373,-3.9276 14.535,-5.6907 15.5011,-6.4678 A1.6853,1.6853 0 0 1 17.6989,-3.9122 T16.7859,-3.0733 14.1846,-0.8848 10.2445,1.149 6.4489,1.7907 2.4525,1.6465 0,1.5447 A1.5447,1.5447 0 0 1 0,-1.5447 Z" stroke-linecap="round" fill="#f2f2f2"/></g></g><g transform="matrix(1, 0, 0, 1, -10.1631, 4843.2361)" opacity="1"><g transform="scale(1)"><path d="M-0.2581,-1.5438 T1.2043,-1.8418 5.5608,-2.601 11.2537,-3.8599 14.0526,-4.6577 A1.6167,1.6167 0 0 1 14.9874,-1.5623 T13.4806,-1.082 10.5344,-0.1447 6.1562,0.7341 1.7377,1.3498 0.2581,1.5438 A1.5652,1.5652 0 0 1 -0.2581,-1.5438 Z" stroke-linecap="round" fill="#f2f2f2"/></g></g><g transform="matrix(1, 0, 0, 1, 19.9189, 4832.863)" opacity="1"><g transform="scale(1)"><path d="M1.8581,0 T1.8556,1.2319 2.4118,3.7877 4.505,6.0266 6.9983,9.2589 6.7455,13.2567 3.8669,15.3069 0.7398,15.914 -0.7202,16.1514 A1.6624,1.6624 0 0 1 -1.3598,12.8886 T0.0817,12.5572 3.0172,11.4945 3.3139,9.7151 0.4053,7.7944 -1.5795,4.6839 -1.8556,1.223 -1.8581,0 A1.8581,1.8581 0 0 1 1.8581,0 Z" stroke-linecap="round" fill="#f2f2f2"/></g></g><g transform="matrix(1, 0, 0, 1, 19.9189, 4832.863)" opacity="1"><g transform="scale(1)"><path d="M0,-1.6567 T1.717,-1.6879 5.6808,-1.7571 9.653,-1.8039 13.6722,-2.7333 15.9661,-3.6542 A1.7063,1.7063 0 0 1 17.2339,-0.4858 T15.8811,0.0857 13.0018,1.2348 9.7014,1.8039 5.6808,1.7571 1.717,1.6879 0,1.6567 A1.6567,1.6567 0 0 1 0,-1.6567 Z" stroke-linecap="round" fill="#f2f2f2"/></g></g><g transform="matrix(1, 0, 0, 1, 38.5904, 5039.2874)" opacity="1"><g transform="scale(1)"><path d="M1.382,-0.4622 T1.6465,0.2693 2.3685,3.1258 3.1557,6.5912 3.4854,7.9318 A1.4625,1.4625 0 0 1 0.6546,8.6682 T0.2892,7.3369 -0.5016,3.9734 -1.1545,1.2017 -1.382,0.4622 A1.4572,1.4572 0 0 1 1.382,-0.4622 Z" stroke-linecap="round" fill="#f2f2f2"/></g></g><g transform="matrix(1, 0, 0, 1, 83.1947, 5034.1008)" opacity="1"><g transform="scale(1)"><path d="M1.7012,1.04 T1.6341,4.15 1.5671,7.26 A1.5671,1.5671 0 0 1 -1.5671,7.26 T-1.6341,4.15 -1.7012,1.04 A1.7012,1.7012 0 0 1 1.7012,1.04 Z" stroke-linecap="round" fill="#f2f2f2"/></g></g><g transform="matrix(1, 0, 0, 1, 75.9335, 5063.1455)" opacity="1"><g transform="scale(1)"><path d="M-0.7598,-1.9049 T0.4755,-2.3762 3.8188,-3.2917 7.9778,-3.0448 10.7452,-0.1732 10.6603,3.8764 8.7616,7.5208 6.6356,10.3513 5.6068,11.4062 A2.0534,2.0534 0 0 1 2.2259,9.0749 T3.5645,7.6642 5.6598,4.9839 6.4029,1.9581 4.7942,0.5455 1.9794,1.3971 0.7598,1.9049 A2.0508,2.0508 0 0 1 -0.7598,-1.9049 ZM5.6953,9.2151 T5.9859,9.692 8.1489,10.9817 11.4766,12.0876 12.9319,12.3807 A2.193,2.193 0 0 1 11.9681,16.6593 T9.9395,16.1676 6.4057,14.9961 3.8308,13.3593 2.4493,11.8342 2.1374,11.2661 A2.0534,2.0534 0 0 1 5.6953,9.2151 Z" stroke-linecap="round" fill="#f2f2f2"/></g></g><g transform="matrix(1, 0, 0, 1, 115.3512, 5035.1382)" opacity="1"><g transform="scale(1)"><path d="M1.2751,-0.4243 T1.7937,1.0383 2.5784,4.1196 3.1157,7.4268 3.3871,9.1154 A1.3361,1.3361 0 0 1 0.7529,9.5646 T0.4494,7.8815 -0.1041,4.7908 -0.8146,1.9037 -1.2751,0.4243 A1.3438,1.3438 0 0 1 1.2751,-0.4243 Z" stroke-linecap="round" fill="#f2f2f2"/></g></g><g transform="matrix(1, 0, 0, 1, 114.3139, 5056.9216)" opacity="1"><g transform="scale(1)"><path d="M0.6956,-1.0501 T2.2059,-0.5308 4.8631,0.9694 6.0099,1.9503 A2.1825,2.1825 0 0 1 2.9751,5.0876 T2.5715,4.5686 0.7361,3.5899 -0.6956,3.1301 A2.2029,2.2029 0 0 1 0.6956,-1.0501 ZM6.4928,4.3919 T6.0829,5.1706 6.846,6.8152 8.919,9.5219 8.907,13.6046 6.6337,16.8448 3.3473,18.1947 1.4221,18.5462 A1.9834,1.9834 0 0 1 0.6579,14.6538 T1.9788,14.3679 4.3054,12.9083 4.0154,10.0493 2.2766,6.4204 2.1628,3.5614 2.4922,2.646 A2.1825,2.1825 0 0 1 6.4928,4.3919 Z" stroke-linecap="round" fill="#f2f2f2"/></g></g><g transform="matrix(1, 0, 0, 1, 43.777, 5065.2201)" opacity="1"><g transform="scale(1)"><path d="M1.6832,0.1406 T1.4919,3.0896 1.0659,9.3225 0.8313,12.6063 A1.8778,1.8778 0 0 1 -2.9113,12.2937 T-2.5979,9.0164 -1.9838,2.7993 -1.6832,-0.1406 A1.689,1.689 0 0 1 1.6832,0.1406 Z" stroke-linecap="round" fill="#f2f2f2"/></g></g><g transform="matrix(1, 0, 0, 1, 44.8143, 5062.1082)" opacity="1"><g transform="scale(1)"><path d="M0.8713,0.994 T-0.8359,1.7511 -3.9484,3.5207 -7.2012,5.831 -9.0485,7.1287 A2.3463,2.3463 0 0 1 -11.6915,3.2513 T-10.7854,2.6435 -8.3679,0.8694 -5.5907,-0.9715 -2.5981,-2.36 -0.8713,-3.074 A2.2128,2.2128 0 0 1 0.8713,0.994 Z" stroke-linecap="round" fill="#f2f2f2"/></g></g><g transform="matrix(1, 0, 0, 1, -318.2437, 5039.2874)" opacity="1"><g transform="scale(1)"><path d="M1.7479,-0.2504 T1.964,1.4709 2.4278,5.1089 2.6754,7.0257 A1.6521,1.6521 0 0 1 -0.5954,7.4943 T-0.8958,5.585 -1.4721,1.9631 -1.7479,0.2504 A1.7657,1.7657 0 0 1 1.7479,-0.2504 Z" stroke-linecap="round" fill="#f2f2f2"/></g></g><g transform="matrix(1, 0, 0, 1, -319.281, 5064.1828)" opacity="1"><g transform="scale(1)"><path d="M1.8402,-0.3077 T2.1139,1.1587 2.6429,5.2814 2.6292,9.8745 2.0794,13.7916 1.7985,15.7719 A1.8109,1.8109 0 0 1 -1.7985,15.3481 T-1.6115,13.3568 -1.2736,9.7376 -1.2632,5.6844 -1.622,1.7833 -1.8402,0.3077 A1.8657,1.8657 0 0 1 1.8402,-0.3077 Z" stroke-linecap="round" fill="#f2f2f2"/></g></g><g transform="matrix(1, 0, 0, 1, -319.281, 5063.1455)" opacity="1"><g transform="scale(1)"><path d="M1.0244,0.6651 T-1.4281,2.1385 -6.6131,5.2535 -9.3456,6.8951 A1.9892,1.9892 0 0 1 -11.3944,3.4849 T-8.6619,1.8432 -3.4769,-1.2718 -1.0244,-2.7451 A1.9892,1.9892 0 0 1 1.0244,0.6651 Z" stroke-linecap="round" fill="#f2f2f2"/></g></g><g transform="matrix(1, 0, 0, 1, -396.0419, 4995.7204)" opacity="1"><g transform="scale(1)"><path d="M1.8536,-0.3099 T2.1706,1.1494 2.7815,5.1353 2.8316,10.3241 2.2746,14.4422 1.9611,15.8982 A1.9901,1.9901 0 0 1 -1.9611,15.2218 T-1.7688,13.7449 -1.438,10.0941 -1.4018,5.5978 -1.6787,1.7927 -1.8536,0.3099 A1.8793,1.8793 0 0 1 1.8536,-0.3099 Z" stroke-linecap="round" fill="#f2f2f2"/></g></g><g transform="matrix(1, 0, 0, 1, -396.0419, 4998.8324)" opacity="1"><g transform="scale(1)"><path d="M0.1885,1.6927 T-2.0143,1.9937 -6.6735,2.6103 -9.13,2.9258 A1.8975,1.8975 0 0 1 -9.55,-0.8458 T-7.0843,-1.0784 -2.4035,-1.5018 -0.1885,-1.6927 A1.7032,1.7032 0 0 1 0.1885,1.6927 Z" stroke-linecap="round" fill="#f2f2f2"/></g></g><g transform="matrix(1, 0, 0, 1, -358.6988, 4880.5792)" opacity="1"><g transform="scale(1)"><path d="M-0.2772,1.6577 T-1.7512,1.4306 -6.3489,0.9678 -9.4725,0.7321 A1.777,1.777 0 0 1 -9.2075,-2.8121 T-5.9332,-2.4997 -1.1908,-1.9225 0.2772,-1.6577 A1.6807,1.6807 0 0 1 -0.2772,1.6577 ZM-9.2931,-2.8164 T-7.8633,-2.7874 -4.8703,-2.8274 -1.3377,-3.3209 0.6317,-3.7453 A1.7243,1.7243 0 0 1 1.4483,-0.3947 T-0.8995,0.2331 -4.7109,0.8499 -7.7807,0.7876 -9.3869,0.7364 A1.777,1.777 0 0 1 -9.2931,-2.8164 Z" stroke-linecap="round" fill="#f2f2f2"/></g></g><g transform="matrix(1, 0, 0, 1, -449.9819, 4875.3926)" opacity="1"><g transform="scale(1)"><path d="M1.6199,0.2709 T1.4019,1.7465 1.3612,5.0167 1.5384,6.8111 A1.7741,1.7741 0 0 1 -1.9556,7.4288 T-2.0092,7.0185 -2.1153,4.6351 -1.8939,1.1955 -1.6199,-0.2709 A1.6424,1.6424 0 0 1 1.6199,0.2709 ZM0.6072,5.5446 T1.1405,5.8111 3.3172,6.0064 6.3941,5.269 10.23,3.185 12.6323,1.7672 A1.5934,1.5934 0 0 1 14.3477,4.4528 T13.1201,5.294 9.9045,7.4251 5.7367,9.3297 1.8107,9.6115 -0.48,8.987 -1.0245,8.6953 A1.7741,1.7741 0 0 1 0.6072,5.5446 Z" stroke-linecap="round" fill="#f2f2f2"/></g></g><g transform="matrix(1, 0, 0, 1, -435.4596, 4870.2061)" opacity="1"><g transform="scale(1)"><path d="M1.9191,0 T1.9263,1.717 1.96,6.0564 2.0184,10.9059 2.0191,15.4948 1.9468,19.3034 1.9057,20.75 A1.9057,1.9057 0 0 1 -1.9057,20.75 T-1.9468,19.3034 -2.0191,15.4948 -2.0184,10.9059 -1.96,6.0564 -1.9263,1.717 -1.9191,0 A1.9191,1.9191 0 0 1 1.9191,0 Z" stroke-linecap="round" fill="#f2f2f2"/></g></g></svg>