<svg xmlns="http://www.w3.org/2000/svg" direction="ltr" width="499.00682632284975" height="417.01608200675946" viewBox="1085.120016557575 11044.899048181454 499.00682632284975 417.01608200675946" stroke-linecap="round" stroke-linejoin="round" style="background-color: transparent;"><defs/><g transform="matrix(1, 0, 0, 1, 1117.5858, 11079.6936) scale(0.9315148793512067, 0.9315148793512067)" opacity="1"><path d="M0,150.45728919312822 a151.5886821901594,150.45728919312822,0,1,1,303.1773643803188,0a151.5886821901594,150.45728919312822,0,1,1,-303.1773643803188,0 " stroke="#9398b0" stroke-width="2" fill="none"/></g><g transform="matrix(1, 0, 0, 1, 1258.7103, 11081.5566) scale(0.9315148793512067, 0.9315148793512067)" opacity="1"><g transform="scale(1.0735201575056887)"><path d="M1.685,-0.7295 T2.0727,0.2253 2.5705,2.8929 2.707,6.4117 2.7438,10.0634 2.7621,13.7685 2.4951,17.2484 2.0714,21.0604 1.9006,25.051 1.8723,28.6948 1.8631,32.3988 1.8591,36.0044 1.8537,39.6962 1.8465,43.528 1.8444,47.2826 1.8505,50.7971 1.8623,54.4661 1.8792,58.3954 1.9003,62.1772 1.9233,65.698 1.9467,69.3675 1.9699,73.2994 1.9905,76.7461 1.7483,80.5253 1.3696,84.2567 1.2037,87.5167 1.1636,91.1212 0.8813,94.6177 0.4657,98.4292 0.3117,102.3735 0.2904,106.0131 0.2852,109.7147 0.281,113.4332 0.2824,117.1588 0.2869,120.8839 0.2907,124.4931 0.2955,128.1883 0.3006,132.0221 0.3014,135.6615 0.2987,139.1427 0.0578,143.0115 -0.3381,147.0074 -0.54,150.3809 -0.4093,153.4076 -0.0342,156.9347 0.2097,160.8625 0.2626,164.983 0.2678,169.1535 0.258,173.3387 0.242,177.7454 0.5573,181.8771 0.9763,186.0612 1.0965,190.1465 1.1267,193.7543 0.7927,197.6574 0.3628,201.7649 0.2438,205.3939 0.2054,209.0892 0.1934,212.9066 0.1919,216.4396 0.1916,220.2296 0.1905,224.0766 0.1916,227.8355 0.1952,231.6858 0.1967,235.2269 0.193,238.6809 0.1917,242.5506 0.1939,246.5381 0.1954,250.336 0.1966,254.0825 0.1897,257.7792 0.583,261.5657 1.0361,265.3464 1.1027,268.6811 1.1251,272.1407 1.1214,275.8386 1.1094,277.5891 A2.0394,2.0394 0 0 1 -2.9694,277.5909 T-2.9762,276.6686 -2.9893,273.6242 -3.0012,270.0616 -3.0317,267.0541 -3.1378,263.9426 -3.5607,261.076 -3.9097,257.8524 -3.9166,254.0825 -3.9154,250.336 -3.9139,246.5381 -3.9117,242.5506 -3.913,238.6809 -3.9167,235.2269 -3.9152,231.6858 -3.9115,227.8354 -3.9103,224.0764 -3.911,220.229 -3.91,216.4378 -3.9063,212.9002 -3.9001,209.059 -3.8727,205.3021 -3.7547,201.4905 -3.3315,197.4416 -3.0121,193.7699 -3.0482,190.2273 -3.1664,186.3577 -3.6059,182.1254 -3.963,177.755 -3.9816,173.3422 -4.001,169.1657 -4.0298,165.0309 -4.0999,161.0406 -4.2986,157.5746 -4.6825,153.8634 -4.866,150.2018 -4.6157,146.4497 -4.2177,142.5886 -4.0187,139.1427 -4.0214,135.6615 -4.0206,132.0221 -4.0155,128.1883 -4.0107,124.493 -4.0068,120.8838 -4.0018,117.1582 -3.999,113.4312 -3.998,109.7073 -3.9848,105.9864 -3.9395,102.2749 -3.7935,98.5822 -3.3407,94.8378 -2.9753,91.0725 -2.8898,87.3368 -2.6034,83.542 -2.1882,79.9524 -1.9905,76.7461 -1.9699,73.2994 -1.9467,69.3675 -1.9233,65.698 -1.9003,62.1772 -1.8792,58.3954 -1.8623,54.4661 -1.8505,50.7971 -1.8444,47.2826 -1.8463,43.5278 -1.8532,39.6958 -1.8571,36.0027 -1.8561,32.3924 -1.8468,28.6717 -1.809,24.9655 -1.672,21.2897 -1.2389,17.5466 -0.9092,13.7747 -0.9093,10.0864 -0.9386,6.5007 -1.0406,3.3351 -1.401,1.3262 -1.685,0.7295 A1.8361,1.8361 0 0 1 1.685,-0.7295 Z" stroke-linecap="round" fill="#9398b0"/></g></g><g transform="matrix(1, 0, 0, 1, 1117.12, 11222.2154) scale(0.9315148793512067, 0.9315148793512067)" opacity="1"><g transform="scale(1.0735201575056887)"><path d="M0,-0.9604 T1.0932,-0.9565 3.7325,-1.2811 7.5191,-1.7144 12.2501,-1.6186 17.1358,-1.2807 21.8848,-1.1091 26.2393,-1.0694 30.3729,-1.0695 34.7086,-1.3001 38.6481,-1.8927 42.3931,-2.55 46.3002,-2.9123 50.4096,-3.0085 54.579,-3.0408 58.4266,-3.0537 62.5229,-3.0647 66.6893,-3.0775 70.8727,-3.0906 75.0622,-3.1056 79.4767,-3.1232 83.4375,-2.9036 87.0221,-2.5188 91.0013,-2.323 94.7819,-2.278 98.53,-2.2784 102.4012,-1.9482 106.4932,-1.5394 110.5194,-1.4536 114.3319,-1.4449 118.4172,-1.4568 122.5804,-1.4692 126.4272,-1.4803 130.7431,-1.5 135.2997,-1.5219 139.2238,-1.8718 143.0105,-2.3241 146.9025,-2.4712 150.6754,-2.5243 154.4138,-2.5531 158.1425,-2.5722 161.8698,-2.5858 165.8178,-2.5945 169.3886,-2.6006 173.4079,-2.6078 177.2903,-2.6135 180.0123,-2.6165 182.7664,-2.6191 185.5399,-2.6212 188.5459,-2.6231 192.32,-2.8205 195.8628,-3.1544 199.4456,-3.3934 203.6085,-3.5256 207.8016,-3.5686 211.9944,-3.5865 216.289,-3.5955 220.2307,-3.6009 223.567,-3.601 227.9098,-3.9265 231.9634,-4.318 234.8191,-4.4176 237.6458,-4.472 241.2999,-4.5034 245.5175,-4.5138 249.3806,-4.5072 253.2613,-4.4981 257.2519,-4.4922 261.4905,-4.4886 265.9271,-4.4801 270.3039,-4.4724 274.5359,-4.7879 278.9861,-5.1995 282.7111,-5.3162 284.0413,-5.338 A2.5489,2.5489 0 0 1 284.1787,-0.242 T281.6994,-0.1469 277.7924,0.0882 274.4227,0.4896 270.3039,0.7524 265.9271,0.7601 261.4906,0.7687 257.2523,0.7725 253.2627,0.7792 249.3853,0.7909 245.5329,0.8072 241.3443,0.8317 237.74,0.8615 234.9981,0.9055 231.0335,1.0991 226.8681,1.5015 223.5728,1.7413 220.2312,1.7416 217.2393,1.7385 213.9455,1.7351 209.9848,1.7328 205.8323,1.7403 201.7816,1.7926 197.6616,1.9871 192.8246,2.3806 188.5459,2.6231 185.5399,2.6212 182.7664,2.6191 180.0123,2.6166 177.2903,2.6135 173.4079,2.6078 168.236,2.6001 163.7339,2.5916 160.0086,2.5806 156.2826,2.5673 152.5623,2.5533 148.854,2.5502 145.1874,2.5922 141.6582,2.7688 137.6666,3.1455 133.0096,3.3708 128.5331,3.3491 124.5208,3.334 120.5621,3.3207 116.4164,3.299 112.3871,3.2576 108.3787,3.167 104.0118,2.8853 100.1178,2.4677 96.627,2.2511 92.808,2.2002 88.7634,2.0587 84.2859,1.6123 79.4719,1.2632 75.0622,1.2456 70.8728,1.2307 66.6897,1.2179 62.5243,1.206 58.4314,1.1985 54.5949,1.1979 50.4713,1.2102 46.5309,1.2745 43.2561,1.4899 39.6818,2.0781 35.0579,2.7166 30.3621,2.9166 26.2058,2.883 21.7723,2.8022 16.6814,2.5399 11.942,2.1502 7.8291,2.0444 4.0011,2.4694 1.111,2.8165 0,2.8204 A1.8904,1.8904 0 0 1 0,-0.9604 Z" stroke-linecap="round" fill="#9398b0"/></g></g><g transform="matrix(1, 0, 0, 1, 1258.7103, 11222.2154) scale(0.9315148793512067, 0.9315148793512067)" opacity="1"><g transform="scale(1.0735201575056887)"><path d="M-2.318,-1.0382 T-1.6529,-1.9166 0.4953,-4.4583 3.398,-7.5969 6.222,-10.496 9.0215,-13.3242 11.4723,-15.7958 13.3923,-17.9305 15.2618,-20.2024 17.4447,-22.6469 19.735,-25.0168 21.7638,-27.4044 23.6651,-29.7547 25.6,-31.8272 27.8922,-34.2716 30.1505,-37.1461 32.4395,-39.845 34.85,-42.5334 37.2727,-45.3757 39.944,-48.3194 42.5255,-51.2012 45.182,-53.9714 47.6324,-56.5827 49.7018,-58.8243 51.5578,-61.0636 53.7473,-63.7149 56.4498,-66.3291 58.884,-68.4126 61.3548,-70.6973 63.7833,-73.2439 66.0375,-75.6671 68.7428,-78.2559 71.2163,-80.7554 73.5234,-83.1142 75.7943,-85.5646 78.0429,-87.9595 80.3668,-90.2664 82.6868,-92.6123 85.0425,-95.2524 87.0029,-97.9404 89.046,-100.7376 90.8416,-103.0828 91.4604,-103.8499 A2.1815,2.1815 0 0 1 94.8396,-101.0901 T94.2116,-100.3305 92.7471,-98.3854 90.875,-96.0675 88.6992,-93.3708 86.1739,-90.4351 83.8072,-88.1102 81.771,-86.1661 79.6316,-83.7287 77.1217,-81.1114 74.808,-78.7916 72.9261,-76.693 70.7909,-74.7515 68.5361,-72.4716 65.9849,-69.7692 63.5253,-67.3883 61.2814,-65.3946 58.9519,-63.4448 56.6212,-61.22 54.3905,-58.5666 52.433,-56.2344 50.4719,-54.1345 48.1012,-51.6489 45.5009,-49.0033 43.2282,-46.4511 40.8332,-43.7948 38.3457,-41.1404 36.171,-38.6328 34.1426,-36.2401 31.9964,-33.8116 29.5131,-30.9376 26.8334,-27.8783 24.4256,-25.0331 22.2706,-22.53 20.032,-20.2438 18.027,-18.0424 16.0752,-15.7052 13.9368,-13.3373 11.475,-10.8808 8.6791,-8.0833 5.8937,-5.2473 3.1366,-2.2734 1.1125,0.1523 0.458,1.0382 A1.7333,1.7333 0 0 1 -2.318,-1.0382 Z" stroke-linecap="round" fill="#e599f7"/></g></g><g transform="matrix(1, 0, 0, 1, 1296.9024, 11219.4208) scale(0.9315148793512067, 0.9315148793512067)" opacity="1"><g transform="scale(1.0735201575056887)"><path d="M-1.2138,0 T-1.2116,-1.3059 -1.8654,-4.9296 -3.3921,-9.2295 -5.3257,-13.3089 -7.3502,-17.3222 -9.4837,-20.6198 -11.0917,-22.1544 -11.528,-22.3074 A2.1699,2.1699 0 0 1 -9.3563,-26.0646 T-8.2957,-25.3523 -5.8483,-22.9339 -3.4928,-19.2904 -1.4734,-15.2678 0.263,-11.8124 1.5201,-8.2298 2.5805,-4.3468 3.0716,-1.3382 3.0738,0 A2.1438,2.1438 0 0 1 -1.2138,0 ZM-9.7347,-22.1347 T-10.358,-21.9486 -11.6749,-21.5528 -12.3686,-21.3432 A2.0593,2.0593 0 0 1 -13.7114,-25.2368 T-13.036,-25.4994 -11.7552,-25.9996 -11.1497,-26.2373 A2.1699,2.1699 0 0 1 -9.7347,-22.1347 Z" stroke-linecap="round" fill="#e599f7"/></g></g><g transform="matrix(1, 0, 0, 1, 1309.9436, 11188.6808) scale(0.9315148793512067, 0.9315148793512067)" opacity="1"><g transform="scale(1.0735201575056887)"><path d="M1.9403,0.2768 T1.7039,1.8172 1.0974,4.7219 0.1259,7.8435 -0.9735,11.0888 -0.8694,13.986 1.436,15.9386 4.4797,15.8369 5.82,15.1917 A1.7266,1.7266 0 0 1 7.22,18.3483 T6.309,18.8006 3.2121,19.5995 -0.293,19.5464 -2.9113,17.8836 -4.8139,14.9455 -5.0645,11.5093 -4.1755,8.1648 -2.9934,4.6958 -2.1438,1.2667 -1.9403,-0.2768 A1.9599,1.9599 0 0 1 1.9403,0.2768 Z" stroke-linecap="round" fill="#e599f7"/></g></g><g transform="matrix(1, 0, 0, 1, 1312.7381, 11197.0645) scale(0.9315148793512067, 0.9315148793512067)" opacity="1"><g transform="scale(1.0735201575056887)"><path d="M0.309,2.166 T-1.2309,2.402 -4.3166,2.744 -7.5068,2.9635 -9.1513,3.0767 A2.1534,2.1534 0 0 1 -9.4887,-1.2167 T-7.8468,-1.3618 -4.801,-1.6324 -1.8531,-1.9621 -0.309,-2.166 A2.1879,2.1879 0 0 1 0.309,2.166 Z" stroke-linecap="round" fill="#e599f7"/></g></g><g transform="matrix(1, 0, 0, 1, 1298.7654, 11141.1736) scale(0.9315148793512067, 0.9315148793512067)" opacity="1"><g transform="scale(1.0735201575056887)"><path d="M2.5488,0 T2.5758,1.3249 2.3059,5.1269 1.592,9.7785 0.449,14.137 -0.277,16.3209 A1.6544,1.6544 0 0 1 -3.443,15.3591 T-2.909,13.3957 -1.9337,9.3538 -1.1177,4.9568 -0.7158,1.3191 -0.6888,0 A1.6188,1.6188 0 0 1 2.5488,0 Z" stroke-linecap="round" fill="#e599f7"/></g></g><g transform="matrix(1, 0, 0, 1, 1297.8339, 11142.1051) scale(0.9315148793512067, 0.9315148793512067)" opacity="1"><g transform="scale(1.0735201575056887)"><path d="M2.0557,1.8802 T0.9618,2.5531 -1.6448,4.4226 -4.1256,6.4348 -5.0938,7.2504 A2.1888,2.1888 0 0 1 -7.9462,3.9296 T-6.9938,3.0956 -4.2288,0.8375 -1.3059,-1.2334 -0.1957,-1.8802 A2.1914,2.1914 0 0 1 2.0557,1.8802 Z" stroke-linecap="round" fill="#e599f7"/></g></g><g transform="matrix(1, 0, 0, 1, 1352.7933, 11120.6802) scale(0.9315148793512067, 0.9315148793512067)" opacity="1"><g transform="scale(1.0735201575056887)"><path d="M1.5052,0 T1.5018,1.1021 1.4942,3.8668 1.4859,7.5582 1.4824,11.3898 1.4868,15.0403 1.4978,18.967 1.5076,22.748 1.515,26.4898 1.5248,30.3258 1.5385,33.9679 1.3201,37.1743 0.9333,40.4219 0.7266,44.1744 0.6609,47.8147 0.2947,51.0724 -0.1371,54.1956 -0.2505,57.441 -0.6306,60.4794 -1.0725,63.5384 -1.1917,66.9661 -1.2273,70.6134 -1.2351,74.3171 -1.2331,78.0363 -1.2286,81.7609 -1.2248,85.4881 -1.2149,89.2138 -1.197,92.9363 -0.7745,97.0902 -0.3617,99.3838 A1.5254,1.5254 0 0 1 -3.3583,99.9562 T-3.622,98.677 -4.1328,95.1673 -4.3728,91.0756 -4.3604,87.3502 -4.3531,83.6239 -4.3482,79.8985 -4.3409,76.1722 -4.3328,72.4509 -4.3151,68.739 -4.2533,65.0567 -3.8028,61.0839 -3.3768,57.3301 -3.2491,53.9022 -2.8119,50.056 -2.4534,45.9025 -2.3245,41.7804 -1.8841,37.7945 -1.5385,33.9636 -1.5248,30.3258 -1.515,26.4898 -1.5076,22.748 -1.4978,18.967 -1.4868,15.0403 -1.4824,11.3898 -1.4859,7.5582 -1.4942,3.8668 -1.5018,1.1021 -1.5052,0 A1.5052,1.5052 0 0 1 1.5052,0 Z" stroke-linecap="round" fill="#4dabf7"/></g></g><g transform="matrix(1, 0, 0, 1, 1355.5878, 11119.7487) scale(0.9315148793512067, 0.9315148793512067)" opacity="1"><g transform="scale(1.0735201575056887)"><path d="M-0.4819,1.9327 T-1.4593,1.6365 -3.7273,-0.5862 -4.957,-3.5203 -4.8962,-4.5279 A1.9208,1.9208 0 0 1 -1.0991,-3.9452 T-1.0955,-3.0827 -0.305,-2.0764 0.4819,-1.9327 A1.9919,1.9919 0 0 1 -0.4819,1.9327 ZM-4.0496,-5.8437 T-3.5454,-6.1748 -1.1294,-6.6436 2.0011,-5.3173 3.1634,-1.9965 1.8641,1.164 -1.4805,2.7837 -3.5823,3.0998 A1.9791,1.9791 0 0 1 -2.976,-0.8117 T-2.7555,-0.6854 -1.7666,-1.9033 -1.472,-2.9385 -1.9457,-2.6295 A1.9208,1.9208 0 0 1 -4.0496,-5.8437 ZM-4.9266,2.2408 T-5.257,1.7445 -5.7546,-0.5172 -4.4646,-3.6326 -2.3417,-5.2473 -1.6762,-5.512 A1.9319,1.9319 0 0 1 -0.1838,-1.948 T-1.2305,-1.4351 -1.9545,-0.4375 -1.6318,0.0472 A1.9791,1.9791 0 0 1 -4.9266,2.2408 Z" stroke-linecap="round" fill="#f2f2f2"/></g></g><g transform="matrix(1, 0, 0, 1, 1379.8072, 11087.1457) scale(0.9315148793512067, 0.9315148793512067)" opacity="1"><g transform="scale(1.0735201575056887)"><path d="M1.6499,1.2341 T0.9686,2.1003 -0.5156,4.0816 -2.1116,6.7613 -3.3818,10.1804 -4.0492,14.399 -4.0533,19.258 -2.9781,22.8716 -1.2989,24.6989 -0.5086,25.4074 A2.0963,2.0963 0 0 1 -3.2114,28.6126 T-4.0432,27.9532 -5.8884,26.3591 -7.5397,23.9203 -8.3581,20.8391 -8.4614,17.866 -8.2613,15.0804 -7.9102,12.294 -7.0443,8.7442 -5.6047,4.9928 -3.8647,1.9784 -2.2883,-0.336 -1.6499,-1.2341 A2.0603,2.0603 0 0 1 1.6499,1.2341 Z" stroke-linecap="round" fill="#f2f2f2"/></g></g><g transform="matrix(1, 0, 0, 1, 1392.8484, 11097.3924) scale(0.9315148793512067, 0.9315148793512067)" opacity="1"><g transform="scale(1.0735201575056887)"><path d="M0.9638,1.9311 T-0.3647,2.565 -2.7656,4.1247 -4.8638,6.3872 -5.74,7.7725 -5.5903,7.8211 A2.0647,2.0647 0 0 1 -9.6724,8.4447 T-9.3094,6.5742 -7.7661,3.327 -5.0902,0.6954 -2.2793,-1.2453 -0.9638,-1.9311 A2.1582,2.1582 0 0 1 0.9638,1.9311 ZM-6.5934,6.3481 T-6.1095,6.6238 -3.5564,7.5534 1.0552,8.5459 5.1395,9.0575 6.6815,9.2304 A1.9563,1.9563 0 0 1 6.3585,13.1296 T4.8091,13.0464 1.7898,12.8873 -1.2033,12.5598 -5.2163,11.3989 -8.1876,10.2036 -8.6693,9.9178 A2.0647,2.0647 0 0 1 -6.5934,6.3481 Z" stroke-linecap="round" fill="#f2f2f2"/></g></g><g transform="matrix(1, 0, 0, 1, 1409.6157, 11099.2554) scale(0.9315148793512067, 0.9315148793512067)" opacity="1"><g transform="scale(1.0735201575056887)"><path d="M0.427,1.6953 T-0.6809,2.5659 -2.3043,4.9443 -1.2238,7.1281 1.7571,7.7044 4.0411,6.5397 4.8499,4.0903 4.3521,1.7568 3.9446,0.8077 A1.833,1.833 0 0 1 7.2354,-0.8077 T7.737,0.0952 8.7455,3.2052 8.6881,7.1489 7.0176,9.9529 3.7548,11.6197 -0.4097,11.928 -4.33,10.2986 -6.7295,6.9831 -6.8056,3.643 -5.4371,1.1861 -3.3833,-0.8016 -2.287,-1.6953 A2.1716,2.1716 0 0 1 0.427,1.6953 Z" stroke-linecap="round" fill="#f2f2f2"/></g></g><g transform="matrix(1, 0, 0, 1, 1430.109, 11094.5978) scale(0.9315148793512067, 0.9315148793512067)" opacity="1"><g transform="scale(1.0735201575056887)"><path d="M1.2792,1.2792 T0.3868,2.1527 -2.0847,4.455 -2.4759,6.9066 -0.1735,9.4628 0.9408,10.9961 A1.7571,1.7571 0 0 1 -2.2006,12.5712 T-2.7245,11.6719 -4.4333,10.0942 -6.8071,7.8433 -7.1334,4.9291 -4.6469,2.0448 -2.1511,-0.3885 -1.2792,-1.2792 A1.809,1.809 0 0 1 1.2792,1.2792 ZM0.9015,12.6452 T0.615,13.1661 -1.1146,14.8318 -4.6535,16.3393 -8.0581,16.6352 -9.3669,16.5684 A1.6691,1.6691 0 0 1 -9.2731,13.2316 T-7.2074,13.3578 -3.9469,12.7163 -2.4567,11.4353 -2.1613,10.9221 A1.7571,1.7571 0 0 1 0.9015,12.6452 Z" stroke-linecap="round" fill="#f2f2f2"/></g></g><g transform="matrix(1, 0, 0, 1, 1443.1502, 11087.1457) scale(0.9315148793512067, 0.9315148793512067)" opacity="1"><g transform="scale(1.0735201575056887)"><path d="M1.6681,0.9987 T1.004,2.0982 -0.7266,5.1519 -2.7187,9.596 -4.3125,14.3285 -5.1618,18.6454 -4.5516,21.9907 -2.8016,23.9406 -1.8429,24.6195 A1.7407,1.7407 0 0 1 -3.7371,27.5405 T-4.748,26.9423 -7.5108,24.3873 -9.1812,20.1911 -8.667,15.5944 -7.276,10.7931 -5.7628,6.8227 -4.0935,3.2534 -2.3236,0.106 -1.6681,-0.9987 A1.9442,1.9442 0 0 1 1.6681,0.9987 Z" stroke-linecap="round" fill="#f2f2f2"/></g></g><g transform="matrix(1, 0, 0, 1, 1449.6708, 11091.8033) scale(0.9315148793512067, 0.9315148793512067)" opacity="1"><g transform="scale(1.0735201575056887)"><path d="M1.8984,0.3789 T1.6674,1.4826 0.9204,4.2501 -0.0545,8.0199 -0.9671,12.3969 -1.0151,16.1152 0.7356,17.6765 2.0807,17.7906 A1.7831,1.7831 0 0 1 1.6393,21.3294 T-0.5539,21.002 -3.8553,19.6181 -5.1382,16.3201 -4.8219,11.7951 -3.8332,7.3283 -2.8259,3.4835 -2.1073,0.7216 -1.8984,-0.3789 A1.9358,1.9358 0 0 1 1.8984,0.3789 Z" stroke-linecap="round" fill="#f2f2f2"/></g></g><g transform="matrix(1, 0, 0, 1, 1450.6023, 11102.9815) scale(0.9315148793512067, 0.9315148793512067)" opacity="1"><g transform="scale(1.0735201575056887)"><path d="M-0.604,1.6336 T-1.7015,1.8728 -4.8734,2.7492 -6.9478,3.3863 A1.6069,1.6069 0 0 1 -7.9522,0.3337 T-5.7108,-0.4493 -2.3627,-1.4329 -1.256,-1.6336 A1.6658,1.6658 0 0 1 -0.604,1.6336 Z" stroke-linecap="round" fill="#f2f2f2"/></g></g><g transform="matrix(1, 0, 0, 1, 1455.2599, 11089.9403) scale(0.9315148793512067, 0.9315148793512067)" opacity="1"><g transform="scale(1.0735201575056887)"><path d="M1.8947,-0.7562 T2.3149,0.3524 3.4517,3.2311 4.7248,6.8776 5.4703,10.9734 5.4888,15.6744 4.4728,20.0387 2.2642,23.301 0.1514,25.2522 -0.5987,25.8236 A2.0402,2.0402 0 0 1 -3.1213,22.6164 T-1.9199,21.6795 0.2353,19.0863 1.3817,15.4018 1.4679,11.4569 0.8562,7.7988 -0.3124,4.5025 -1.4351,1.8518 -1.8947,0.7562 A2.04,2.04 0 0 1 1.8947,-0.7562 Z" stroke-linecap="round" fill="#f2f2f2"/></g></g><g transform="matrix(1, 0, 0, 1, 1466.4381, 11107.639) scale(0.9315148793512067, 0.9315148793512067)" opacity="1"><g transform="scale(1.0735201575056887)"><path d="M2.7314,0.8991 T2.0826,2.2273 0.3878,5.2388 -1.7692,8.6902 -2.8802,10.4585 A2.1128,2.1128 0 0 1 -6.4398,8.1815 T-5.3003,6.4316 -3.187,3.2071 -1.5423,0.4167 -0.8714,-0.8991 A2.0133,2.0133 0 0 1 2.7314,0.8991 Z" stroke-linecap="round" fill="#f2f2f2"/></g></g><g transform="matrix(1, 0, 0, 1, 1485.9999, 11093.6663) scale(0.9315148793512067, 0.9315148793512067)" opacity="1"><g transform="scale(1.0735201575056887)"><path d="M1.1637,1.4538 T0.0625,2.3375 -2.778,4.4267 -4.4363,5.7909 -4.3553,5.9498 A1.8647,1.8647 0 0 1 -7.885,4.7458 T-7.4451,3.8525 -5.1874,1.6333 -2.2667,-0.5733 -1.1637,-1.4538 A1.8622,1.8622 0 0 1 1.1637,1.4538 ZM-5.2331,3.7076 T-4.1173,4.3217 -1.5379,5.9476 0.6804,8.6485 1.4352,10.3376 A1.855,1.855 0 0 1 -2.1411,11.3246 T-2.2504,10.8802 -3.4202,9.3843 -5.744,7.6604 -7.0072,6.988 A1.8647,1.8647 0 0 1 -5.2331,3.7076 ZM1.1794,11.8765 T0.8263,12.4023 -1.711,14.5806 -5.2672,16.8028 -7.594,17.4906 -8.5488,17.6088 A1.9157,1.9157 0 0 1 -8.896,13.7932 T-7.25,13.2847 -4.1044,11.8 -2.245,10.3047 -1.8852,9.7857 A1.855,1.855 0 0 1 1.1794,11.8765 ZM-10.1587,16.9686 T-10.5021,16.5434 -11.2294,15.6457 -11.6133,15.1732 A1.8183,1.8183 0 0 1 -8.8867,12.7668 T-8.4655,13.2065 -7.6652,14.0398 -7.286,14.4334 A1.9157,1.9157 0 0 1 -10.1587,16.9686 Z" stroke-linecap="round" fill="#f2f2f2"/></g></g><g transform="matrix(1, 0, 0, 1, 1494.3835, 11099.2554) scale(0.9315148793512067, 0.9315148793512067)" opacity="1"><g transform="scale(1.0735201575056887)"><path d="M1.6102,0 T1.6398,1.5433 1.4718,4.688 1.0352,7.515 0.7963,8.7406 A1.7635,1.7635 0 0 1 -2.6563,8.0194 T-2.4051,6.8986 -1.9117,4.4295 -1.6398,1.5406 -1.6102,0 A1.6102,1.6102 0 0 1 1.6102,0 Z" stroke-linecap="round" fill="#f2f2f2"/></g></g><g transform="matrix(1, 0, 0, 1, 1494.3835, 11076.899) scale(0.9315148793512067, 0.9315148793512067)" opacity="1"><g transform="scale(1.0735201575056887)"><path d="M1.4287,-0.2377 T1.6674,1.0813 2.1618,4.8493 2.4175,7.2983 A1.4952,1.4952 0 0 1 -0.5575,7.6017 T-0.7919,5.2447 -1.2275,1.5627 -1.4287,0.2377 A1.4483,1.4483 0 0 1 1.4287,-0.2377 Z" stroke-linecap="round" fill="#f2f2f2"/></g></g><g transform="matrix(1, 0, 0, 1, 1500.9041, 11098.3239) scale(0.9315148793512067, 0.9315148793512067)" opacity="1"><g transform="scale(1.0735201575056887)"><path d="M1.4809,-0.2464 T1.7074,1.0748 2.0811,3.8163 1.8821,7.0451 1.536,8.8535 A1.6074,1.6074 0 0 1 -1.536,7.9065 T-1.3803,7.4344 -1.1394,4.9272 -1.2675,1.5693 -1.4809,0.2464 A1.5013,1.5013 0 0 1 1.4809,-0.2464 ZM-1.5271,7.8784 T-1.2574,7.0503 -0.2467,4.3011 2.2362,0.7497 4.8585,-0.8627 5.739,-0.8447 A1.5373,1.5373 0 0 1 5.0059,2.1413 T4.1886,2.8882 2.7177,5.4479 1.7956,8.0711 1.5271,8.8816 A1.6074,1.6074 0 0 1 -1.5271,7.8784 ZM6.7275,-0.0778 T7.0022,0.427 7.9295,2.6368 8.7558,6.246 8.9698,9.154 9.0102,10.1579 A1.5629,1.5629 0 0 1 5.8898,10.3421 T5.8118,9.3404 5.5996,6.7054 5.0095,3.7315 4.2855,1.8826 4.0174,1.3743 A1.5373,1.5373 0 0 1 6.7275,-0.0778 Z" stroke-linecap="round" fill="#f2f2f2"/></g></g><g transform="matrix(1, 0, 0, 1, 1520.466, 11083.4197) scale(0.9315148793512067, 0.9315148793512067)" opacity="1"><g transform="scale(1.0735201575056887)"><path d="M1.7553,0.292 T1.5129,1.6132 0.4296,4.8298 -1.4944,8.9642 -3.6279,13.124 -5.3674,17.0477 -6.2151,21.0146 -5.5966,24.1355 -3.8543,25.8736 -2.8892,26.4552 A1.7151,1.7151 0 0 1 -4.5708,29.4448 T-5.569,28.9221 -8.3079,26.7261 -9.9722,22.8076 -9.4238,18.3409 -8.4253,14.8281 -6.7638,11.5239 -4.5141,7.2762 -2.775,3.6977 -1.9528,1.0309 -1.7553,-0.292 A1.7794,1.7794 0 0 1 1.7553,0.292 Z" stroke-linecap="round" fill="#f2f2f2"/></g></g><g transform="matrix(1, 0, 0, 1, 1529.7811, 11085.2827) scale(0.9315148793512067, 0.9315148793512067)" opacity="1"><g transform="scale(1.0735201575056887)"><path d="M1.8441,0 T1.8298,1.5461 1.2284,5.571 0.2626,9.5557 -0.5237,12.7436 -1.2486,16.7114 -0.9092,20.8513 -0.2528,22.7054 A1.7102,1.7102 0 0 1 -3.4672,23.8746 T-3.9377,22.7308 -4.7617,18.9344 -4.8603,14.8826 -4.1502,11.8038 -3.2797,8.599 -2.34,5.0747 -1.8298,1.5378 -1.8441,0 A1.8441,1.8441 0 0 1 1.8441,0 Z" stroke-linecap="round" fill="#f2f2f2"/></g></g><g transform="matrix(1, 0, 0, 1, 1530.7126, 11099.2554) scale(0.9315148793512067, 0.9315148793512067)" opacity="1"><g transform="scale(1.0735201575056887)"><path d="M-0.6792,1.5077 T-1.996,1.7575 -6.135,2.668 -8.957,3.3286 A1.5128,1.5128 0 0 1 -9.683,0.3914 T-8.1733,-0.0005 -5.2494,-0.76 -2.508,-1.3176 -1.1808,-1.5077 A1.5284,1.5284 0 0 1 -0.6792,1.5077 Z" stroke-linecap="round" fill="#f2f2f2"/></g></g><g transform="matrix(1, 0, 0, 1, 1537.2332, 11084.3512) scale(0.9315148793512067, 0.9315148793512067)" opacity="1"><g transform="scale(1.0735201575056887)"><path d="M1.7811,-0.8882 T2.193,0.007 3.4694,2.3584 4.9823,5.6994 5.9958,10.2359 6.4355,14.2468 6.3441,17.8916 5.5789,21.6712 4.1818,24.4356 1.4744,27.4198 -1.5516,29.815 -2.6682,30.4966 A1.9341,1.9341 0 0 1 -4.7918,27.2634 T-3.0155,26.0611 -0.0223,23.1813 1.9015,19.5346 2.5685,15.3736 2.3339,11.0511 1.6067,7.2885 0.1145,4.1414 -1.3133,1.7573 -1.7811,0.8882 A1.9903,1.9903 0 0 1 1.7811,-0.8882 Z" stroke-linecap="round" fill="#f2f2f2"/></g></g><g transform="matrix(1, 0, 0, 1, 1548.4114, 11081.5566) scale(0.9315148793512067, 0.9315148793512067)" opacity="1"><g transform="scale(1.0735201575056887)"><path d="M1.9322,0.6085 T2.1431,1.9312 2.8645,5.4282 3.8483,9.2765 4.9045,12.9346 5.5714,17.0428 5.6863,20.9857 5.3804,24.7026 4.2889,28.4308 2.5595,31.96 1.331,34.8231 1.0772,35.987 A2.0912,2.0912 0 0 1 -2.9372,34.813 T-2.7019,34.0325 -1.5182,31.4926 0.2402,27.8534 1.3818,24.3906 1.7058,21.035 1.644,17.3202 1.0563,13.6027 0.0395,10.0422 -0.959,6.0756 -1.7032,2.5729 -1.9322,1.2515 A1.9588,1.9588 0 0 1 1.9322,0.6085 Z" stroke-linecap="round" fill="#f2f2f2"/></g></g><g transform="matrix(1, 0, 0, 1, 1354.6563, 11119.7487) scale(0.9315148793512067, 0.9315148793512067)" opacity="1"><g transform="scale(1.0735201575056887)"><path d="M1.1664,-0.8725 T1.8264,0.0188 3.2799,2.5758 4.7908,5.8195 6.2215,8.965 7.8581,12.4848 9.5418,16.1928 11.2087,19.721 12.8561,22.8528 14.3041,25.7767 15.7801,29.2766 17.1889,32.9697 18.5202,35.9976 19.7337,38.5212 21.1665,41.5926 22.9598,44.9497 24.5756,48.0757 25.8955,51.1726 27.2599,53.9334 28.8375,56.7763 30.4358,60.0089 32.0055,63.5158 33.4817,66.6657 34.8993,69.5173 36.3788,73.0218 37.7333,76.177 38.8578,78.9098 39.9558,82.286 41.0736,85.4319 42.3414,88.2569 43.7037,91.0555 44.9348,93.9099 45.8471,96.3682 46.1787,97.2296 A1.5793,1.5793 0 0 1 43.2413,98.3904 T42.5515,96.6716 41.3525,93.5516 39.9849,90.7695 38.5778,87.7745 37.5592,84.4162 36.2763,80.9899 34.8098,77.7041 33.7632,74.7486 32.5191,71.8363 31.1103,69.006 29.6429,65.971 28.1262,62.7586 26.7253,59.4545 25.0329,56.1461 23.6497,53.3251 22.3135,50.3861 20.8328,47.4441 19.2886,44.2217 17.6143,40.9323 16.3031,38.2177 14.8944,35.1749 13.564,31.9455 12.5635,29.0895 11.1857,26.1119 9.6859,23.0175 8.1874,19.8399 6.4005,16.2599 4.8946,13.0494 3.5594,10.0542 2.1862,7.0247 0.866,4.1559 -0.5067,1.7455 -1.1664,0.8725 A1.4566,1.4566 0 0 1 1.1664,-0.8725 Z" stroke-linecap="round" fill="#f76707"/></g></g><g transform="matrix(1, 0, 0, 1, 1356.5193, 11118.8172) scale(0.9315148793512067, 0.9315148793512067)" opacity="1"><g transform="scale(1.0735201575056887)"><path d="M2.0895,-1.1636 T2.7465,-0.4986 4.4864,1.2654 6.6463,3.2487 8.9218,5.1364 11.1304,7.1011 13.4731,9.6354 15.9971,12.4925 18.1802,14.9498 20.0148,17.2397 21.7595,19.6674 23.4514,22.1485 24.9958,24.8225 26.5058,27.4607 28.0058,30.2997 29.5729,33.7127 31.1315,36.6849 32.6883,39.7115 33.9939,42.849 35.2315,46.32 36.3846,49.8292 37.2354,52.5634 38.1651,55.7806 39.1066,59.544 40.03,63.2772 40.9593,67.0058 41.7396,70.4809 42.4767,73.8921 43.5315,77.8655 44.653,81.9061 45.6134,85.6366 46.2006,89.067 46.688,92.1105 47.201,94.6567 47.3452,95.7253 A1.7199,1.7199 0 0 1 43.9348,96.1747 T43.7973,95.1052 43.2959,92.4663 42.7627,88.9946 42.1257,85.2455 41.187,81.6476 40.1772,78.3103 39.2086,74.8899 38.361,70.7583 37.4725,66.5957 36.532,62.8704 35.5878,59.1487 34.6952,55.9465 33.8218,53.3196 32.9232,50.4867 31.8452,47.2502 30.4076,43.4379 29.0242,39.799 27.4325,36.7102 25.5924,32.9918 23.759,29.328 21.885,25.9538 20.0397,22.8717 18.2448,20.4664 16.4085,18.1613 14.4596,15.6033 12.1951,12.7257 9.4366,9.9049 6.9635,7.6475 4.6053,5.7013 2.1998,3.5548 0.4379,1.8183 -0.2295,1.1636 A1.6427,1.6427 0 0 1 2.0895,-1.1636 Z" stroke-linecap="round" fill="#e03131"/></g></g><g transform="matrix(1, 0, 0, 1, 1404.9581, 11144.8996) scale(0.9315148793512067, 0.9315148793512067)" opacity="1"><g transform="scale(1.0735201575056887)"><path d="M2.0136,0.8616 T1.3355,2.3958 0.0707,5.2012 -0.8832,8.1876 -1.0409,11.9641 -0.8316,14.0254 A2.1885,2.1885 0 0 1 -5.1673,14.6248 T-5.2443,14.0141 -5.4128,11.3538 -4.9538,7.0048 -3.8501,3.4717 -2.6552,0.6881 -2.0136,-0.8616 A2.1902,2.1902 0 0 1 2.0136,0.8616 ZM-1.7067,12.5592 T-1.2167,12.9157 1.4973,13.5629 3.7213,13.8536 A1.9864,1.9864 0 0 1 3.7387,17.8264 T2.5914,17.8827 -0.9352,17.3751 -3.8033,16.451 -4.2922,16.0909 A2.1885,2.1885 0 0 1 -1.7067,12.5592 Z" stroke-linecap="round" fill="#e03131"/></g></g><g transform="matrix(1, 0, 0, 1, 1406.8211, 11152.3518) scale(0.9315148793512067, 0.9315148793512067)" opacity="1"><g transform="scale(1.0735201575056887)"><path d="M0,2.7148 T-1.542,2.695 -4.802,2.6572 -6.52,2.6393 A1.7093,1.7093 0 0 1 -6.52,-0.7793 T-4.802,-0.7972 -1.542,-0.835 0,-0.8548 A1.7848,1.7848 0 0 1 0,2.7148 Z" stroke-linecap="round" fill="#e03131"/></g></g><g transform="matrix(1, 0, 0, 1, 1353.4592, 11216.8333) scale(0.8445296439728992, 0.8445296439728992)" opacity="1"><g transform="scale(1.1840910584212598)"><path d="M0,-2.1057 T1.1991,-2.0967 3.8674,-2.0788 7.2146,-1.7831 10.405,-1.3912 13.3341,-1.0285 16.3109,-0.6139 19.2096,-0.7927 22.2104,-1.1863 25.2455,-1.2648 28.1312,-1.2926 31.225,-1.3064 34.5619,-1.3175 37.4269,-1.323 40.4829,-1.3102 42.23,-1.2966 A2.1366,2.1366 0 0 1 42.23,2.9766 T40.4829,2.9902 37.427,3.003 34.5621,2.9977 31.2267,2.9872 28.1427,2.9782 25.2985,2.9827 21.9487,3.0883 18.2513,3.4059 14.6009,3.2484 11.0306,2.7572 7.2801,2.3565 3.8674,2.0788 1.1991,2.0967 0,2.1057 A2.1057,2.1057 0 0 1 0,-2.1057 Z" stroke-linecap="round" fill="#ffc034"/></g></g><g transform="matrix(1, 0, 0, 1, 1375.417, 11228.6567) scale(0.8445296439728992, 0.8445296439728992)" opacity="1"><g transform="scale(1.1840910584212598)"><path d="M1.8158,0.6144 T2.0055,2.2142 2.3028,5.0913 2.9685,8.4841 4.2764,12.3619 6.1081,15.7453 8.4841,18.5834 11.3974,21.41 14.6407,24.3386 17.9832,27.288 21.5607,30.2859 25.235,32.9213 28.3191,34.8707 30.8893,36.8553 33.1596,39.4285 34.5961,41.4422 35.0636,42.1858 A1.5587,1.5587 0 0 1 32.4964,43.9542 T31.5878,42.7411 29.67,40.5581 27.5146,38.7749 24.7958,36.9191 21.2646,34.6425 17.3617,31.7197 13.812,28.5778 10.4595,25.5959 7.1748,22.538 4.3298,19.3495 1.9264,15.7136 0.0866,11.5646 -1.0291,6.8265 -1.6082,2.6632 -1.8158,1.0656 A1.8298,1.8298 0 0 1 1.8158,0.6144 Z" stroke-linecap="round" fill="#ffc034"/></g></g><g transform="matrix(1, 0, 0, 1, 1412.5763, 11273.4168) scale(0.8445296439728992, 0.8445296439728992)" opacity="1"><g transform="scale(1.1840910584212598)"><path d="M-1.6716,0.3288 T-1.8609,-0.5763 -3.073,-3.318 -5.0603,-6.75 -6.6372,-9.0957 -7.2495,-9.846 A1.7551,1.7551 0 0 1 -4.5705,-12.114 T-3.2762,-10.6233 -1.0938,-7.3496 0.5249,-4.0626 1.4635,-1.4437 1.6716,-0.3288 A1.7036,1.7036 0 0 1 -1.6716,0.3288 Z" stroke-linecap="round" fill="#ffc034"/></g></g><g transform="matrix(1, 0, 0, 1, 1411.7318, 11272.5723) scale(0.8445296439728992, 0.8445296439728992)" opacity="1"><g transform="scale(1.1840910584212598)"><path d="M1.8209,0.4784 T2.0108,1.4962 1.8049,4.3503 0.5832,7.3769 -1.6541,9.9523 -3.9631,11.9431 -4.8609,12.5489 A1.8873,1.8873 0 0 1 -6.9591,9.4111 T-5.4963,8.5363 -3.2669,6.5583 -1.9532,4.3115 -1.6135,2.1846 -1.8209,1.2016 A1.8564,1.8564 0 0 1 1.8209,0.4784 Z" stroke-linecap="round" fill="#ffc034"/></g></g><g transform="matrix(1, 0, 0, 1, 1432.845, 11264.127) scale(0.8445296439728992, 0.8445296439728992)" opacity="1"><g transform="scale(1.1840910584212598)"><path d="M1.7503,-0.2175 T1.9683,1.3791 2.3159,5.487 2.3079,9.8006 2.0994,13.0615 1.7461,15.8321 1.1725,18.4557 0.8815,19.7674 A1.7562,1.7562 0 0 1 -2.5615,19.0726 T-2.1266,16.6989 -1.6112,12.8065 -1.3815,9.72 -1.3119,5.7858 -1.571,1.8184 -1.7503,0.2175 A1.7638,1.7638 0 0 1 1.7503,-0.2175 Z" stroke-linecap="round" fill="#ffc034"/></g></g><g transform="matrix(1, 0, 0, 1, 1442.9794, 11275.1059) scale(0.8445296439728992, 0.8445296439728992)" opacity="1"><g transform="scale(1.1840910584212598)"><path d="M0.5584,-1.3943 T1.5689,-1.0269 4.3711,-0.3744 7.7577,0.0141 9.3528,0.1175 A1.5737,1.5737 0 0 1 9.2272,3.2625 T8.3664,3.2483 5.9071,3.1404 2.8606,2.6524 0.4271,1.8262 -0.5584,1.3943 A1.5019,1.5019 0 0 1 0.5584,-1.3943 Z" stroke-linecap="round" fill="#ffc034"/></g></g><g transform="matrix(1, 0, 0, 1, 1465.7817, 11272.5723) scale(0.8445296439728992, 0.8445296439728992)" opacity="1"><g transform="scale(1.1840910584212598)"><path d="M0.8439,1.4077 T-0.153,2.0074 -2.3632,3.5299 -4.2058,5.6434 -4.9192,7.6296 -5.0032,8.4251 A1.6758,1.6758 0 0 1 -8.3423,8.1364 T-8.0181,6.4188 -6.6723,3.2953 -4.2464,0.8378 -1.843,-0.8107 -0.8439,-1.4077 A1.6412,1.6412 0 0 1 0.8439,1.4077 ZM-5.7798,6.8627 T-5.399,7.0999 -3.4594,7.8113 0.2111,8.0451 2.3227,7.8047 A1.4997,1.4997 0 0 1 2.7373,10.7753 T1.5354,10.9805 -2.0018,11.2721 -5.5741,10.7687 -7.1884,9.9389 -7.5657,9.6988 A1.6758,1.6758 0 0 1 -5.7798,6.8627 Z" stroke-linecap="round" fill="#ffc034"/></g></g><g transform="matrix(1, 0, 0, 1, 1480.1387, 11276.7949) scale(0.8445296439728992, 0.8445296439728992)" opacity="1"><g transform="scale(1.1840910584212598)"><path d="M-1.7476,-0.3479 T-1.5409,-1.2549 -1.6353,-2.5308 -1.9365,-2.8996 A1.793,1.793 0 0 1 1.3626,-4.3051 T1.7457,-3.0676 1.9382,-0.7412 1.7476,0.3479 A1.7818,1.7818 0 0 1 -1.7476,-0.3479 ZM0.3773,-1.9369 T-0.19,-1.7222 -1.7412,0.0775 -2.2302,2.9998 -0.3956,4.7434 2.2321,4.8877 4.1676,3.3202 3.6398,1.2401 2.4644,0.4658 A1.5948,1.5948 0 0 1 4.2956,-2.1458 T5.0683,-1.6424 7.0567,0.6399 7.8117,4.2923 5.8726,7.1567 2.1207,8.3624 -2.0931,7.8217 -5.1283,5.562 -6.1184,2.142 -5.2938,-1.3442 -3.606,-3.7432 -1.7947,-4.9199 -0.9512,-5.2678 A1.793,1.793 0 0 1 0.3773,-1.9369 Z" stroke-linecap="round" fill="#ffc034"/></g></g><g transform="matrix(1, 0, 0, 1, 1497.8738, 11271.7277) scale(0.8445296439728992, 0.8445296439728992)" opacity="1"><g transform="scale(1.1840910584212598)"><path d="M0.7215,-1.4516 T1.1206,-1.2518 1.5197,-1.052 A1.6184,1.6184 0 0 1 0.079,1.8466 T-0.3212,1.6491 -0.7215,1.4516 A1.621,1.621 0 0 1 0.7215,-1.4516 ZM2.3593,0.8286 T2.1065,1.6631 0.6856,3.8763 0.3794,6.3632 2.1937,9.0557 3.1459,10.6401 A1.6072,1.6072 0 0 1 -0.0005,11.2979 T-0.4788,10.4357 -2.1377,8.9386 -3.8491,6.8139 -3.6138,4.1815 -1.9193,1.999 -0.8758,0.4625 -0.7606,-0.0339 A1.6184,1.6184 0 0 1 2.3593,0.8286 ZM2.7528,12.0601 T2.3717,12.4734 0.7656,13.5673 -2.4504,14.5478 -5.5354,14.9217 -6.6293,14.9956 A1.4914,1.4914 0 0 1 -6.8907,12.0244 T-4.9274,11.8137 -1.6486,11.1318 0.0298,10.2692 0.3926,9.8779 A1.6072,1.6072 0 0 1 2.7528,12.0601 Z" stroke-linecap="round" fill="#ffc034"/></g></g><g transform="matrix(1, 0, 0, 1, 1511.3863, 11266.6606) scale(0.8445296439728992, 0.8445296439728992)" opacity="1"><g transform="scale(1.1840910584212598)"><path d="M1.5044,0.6025 T1.0927,1.5992 -0.0067,3.6575 -1.641,6.6908 -3.4515,10.7389 -4.9208,14.6209 -4.637,17.6151 -3.7478,18.8035 A1.5407,1.5407 0 0 1 -4.6922,21.7365 T-6.1681,21.1859 -8.2994,19.0206 -8.5558,15.6121 -7.2717,11.7065 -5.4366,7.4687 -3.3833,3.3694 -1.8921,0.3969 -1.5044,-0.6025 A1.6205,1.6205 0 0 1 1.5044,0.6025 Z" stroke-linecap="round" fill="#ffc034"/></g></g><g transform="matrix(1, 0, 0, 1, 1521.5206, 11269.1941) scale(0.8445296439728992, 0.8445296439728992)" opacity="1"><g transform="scale(1.1840910584212598)"><path d="M1.6123,0.8061 T1.2032,1.6017 -0.1276,3.6748 -1.4728,6.1951 -2.4076,8.9188 -3.275,11.994 -2.6346,14.6919 -0.1392,15.5097 1.3598,15.2237 A1.6987,1.6987 0 0 1 2.0202,18.5563 T0.0492,18.9579 -3.5673,18.9751 -6.155,17.3202 -7.0808,14.3544 -6.7121,11.124 -5.7512,7.839 -4.4981,4.4624 -3.1232,1.8179 -2.0026,-0.0029 -1.6123,-0.8061 A1.8026,1.8026 0 0 1 1.6123,0.8061 Z" stroke-linecap="round" fill="#ffc034"/></g></g><g transform="matrix(1, 0, 0, 1, 1520.6761, 11279.3285) scale(0.8445296439728992, 0.8445296439728992)" opacity="1"><g transform="scale(1.1840910584212598)"><path d="M0,1.5053 T-1.0001,1.5274 -3.2578,1.3307 -5.7694,0.8824 -7.0232,0.653 A1.516,1.516 0 0 1 -6.4968,-2.333 T-4.2444,-1.9413 -0.996,-1.5274 0,-1.5053 A1.5053,1.5053 0 0 1 0,1.5053 Z" stroke-linecap="round" fill="#ffc034"/></g></g><g transform="matrix(1, 0, 0, 1, 1530.8105, 11269.1941) scale(0.8445296439728992, 0.8445296439728992)" opacity="1"><g transform="scale(1.1840910584212598)"><path d="M1.6493,-0.9888 T2.2176,0.0284 3.4853,2.6542 4.554,6.1675 5.0271,9.8293 4.8703,13.7038 3.9558,17.7206 2.5148,20.9193 0.6459,23.4217 -1.0153,24.9371 -1.5946,25.2496 A1.853,1.853 0 0 1 -3.4654,22.0504 T-2.5546,21.1748 -0.8908,19.1075 0.3747,16.6717 1.1952,13.5598 1.4425,10.1007 1.1605,7.139 0.2731,4.3575 -1.021,1.9676 -1.6493,0.9888 A1.923,1.923 0 0 1 1.6493,-0.9888 Z" stroke-linecap="round" fill="#ffc034"/></g></g><g transform="matrix(1, 0, 0, 1, 1344.1694, 11208.388) scale(0.8445296439728992, 0.8445296439728992)" opacity="1"><g transform="scale(1.1840910584212598)"><path d="M-1.0709,1.0709 T-1.6137,0.5055 -3.3754,1.1166 -5.7145,3.6888 -7.7262,6.6378 -9.1771,9.6411 -10.2682,12.306 -10.9577,15.1127 -11.1425,18.0809 -11.18,20.866 -11.1966,23.5726 -10.9064,26.2565 -10.3526,29.1805 -9.8951,32.5252 -9.3447,35.9685 -8.7294,38.958 -8.0671,41.8493 -7.1256,45.1072 -5.9595,48.7065 -4.2674,52.5775 -2.6957,55.7328 -1.1307,58.9106 1.1556,63.0023 3.7424,66.9597 6.4128,70.5678 8.9408,73.7052 11.2657,76.3518 13.5312,78.4782 15.9362,80.2052 18.349,81.5169 21.4157,82.8535 24.4533,84.5703 26.7484,86.2056 29.2404,87.9036 31.952,89.2791 34.6321,90.097 37.9492,90.8544 41.2775,91.61 44.077,92.4725 47.1597,93.7376 50.4504,95.222 53.6757,96.4672 56.4012,97.4136 59.2663,98.7469 62.2444,99.8153 64.9205,100.7161 67.5864,102.4938 70.1618,104.6287 71.4444,105.7251 A2.0404,2.0404 0 0 1 68.7556,108.7949 T68.0952,108.2778 66.2589,106.7175 63.4434,104.9387 60.2117,103.8001 57.255,102.6384 54.1667,101.1605 50.5455,99.7616 46.54,98.0837 42.8939,96.5566 39.5709,95.4318 35.762,94.3802 31.9419,93.374 28.8993,92.2678 26.0813,90.598 22.9807,88.352 20.1308,86.6686 17.7074,85.4862 15.126,84.0359 12.3575,82.2338 9.7466,79.9853 7.4143,77.3739 5.1379,74.2883 2.5568,70.7132 0.4447,67.8086 -1.5563,64.5958 -3.8579,60.2558 -5.8892,56.0238 -7.4451,52.8017 -8.7416,49.5272 -9.9103,45.8712 -10.7789,42.7875 -11.485,39.6452 -12.1817,36.2884 -12.7141,33.0221 -13.1912,29.7621 -13.818,26.4683 -14.1371,23.5812 -14.1372,20.8449 -14.087,17.4488 -13.8523,14.0234 -13.0605,11.1405 -11.8855,8.2132 -10.335,5.0206 -8.1192,1.7929 -5.2498,-1.1705 -1.9262,-2.4697 0.417,-1.7022 1.0709,-1.0709 A1.5145,1.5145 0 0 1 -1.0709,1.0709 Z" stroke-linecap="round" fill="#4dabf7"/></g></g><g transform="matrix(1, 0, 0, 1, 1444.6684, 11310.5761) scale(0.8445296439728992, 0.8445296439728992)" opacity="1"><g transform="scale(1.1840910584212598)"><path d="M1.0619,1.4186 T0.2652,2.0244 -1.9858,3.3808 -3.8804,4.7299 -4.3206,5.3284 A1.7858,1.7858 0 0 1 -7.0241,2.9946 T-6.0834,1.9933 -3.9043,0.3777 -1.864,-0.8277 -1.0619,-1.4186 A1.772,1.772 0 0 1 1.0619,1.4186 ZM-4.2742,3.0506 T-3.9512,3.5055 -2.2121,4.6968 0.1441,6.289 1.6652,8.4443 1.3867,11.4019 -1.2583,13.8974 -4.6215,14.9579 -7.4802,14.7217 -9.7588,13.8161 -10.7564,13.3702 A1.672,1.672 0 0 1 -9.5036,10.2698 T-8.4762,10.6422 -5.8303,11.1558 -2.7669,10.4705 -2.4953,8.6368 -4.8555,7.0495 -6.5564,5.871 -7.0705,5.2725 A1.7858,1.7858 0 0 1 -4.2742,3.0506 Z" stroke-linecap="round" fill="#4dabf7"/></g></g><g transform="matrix(1, 0, 0, 1, 1453.9583, 11317.3323) scale(0.8445296439728992, 0.8445296439728992)" opacity="1"><g transform="scale(1.1840910584212598)"><path d="M1.4733,-0.2933 T1.6795,0.7116 1.8212,3.0474 1.6686,5.6351 1.5807,6.8918 A1.5861,1.5861 0 0 1 -1.5807,6.6282 T-1.3359,4.452 -1.2822,1.2845 -1.4733,0.2933 A1.5022,1.5022 0 0 1 1.4733,-0.2933 Z" stroke-linecap="round" fill="#4dabf7"/></g></g><g transform="matrix(1, 0, 0, 1, 1453.1137, 11299.5972) scale(0.8445296439728992, 0.8445296439728992)" opacity="1"><g transform="scale(1.1840910584212598)"><path d="M1.1701,-0.585 T2.0101,1.1074 2.8501,2.7999 A1.2971,1.2971 0 0 1 0.5299,3.9601 T-0.3201,2.2726 -1.1701,0.585 A1.3082,1.3082 0 0 1 1.1701,-0.585 Z" stroke-linecap="round" fill="#4dabf7"/></g></g><g transform="matrix(1, 0, 0, 1, 1460.7145, 11316.4878) scale(0.8445296439728992, 0.8445296439728992)" opacity="1"><g transform="scale(1.1840910584212598)"><path d="M1.4002,-0.2787 T1.6228,0.7146 2.0538,3.3154 1.9188,6.8509 1.5754,8.7789 A1.6093,1.6093 0 0 1 -1.5754,8.1211 T-1.2018,6.6148 -0.9394,3.6963 -1.2254,1.2814 -1.4002,0.2787 A1.4277,1.4277 0 0 1 1.4002,-0.2787 ZM-1.411,7.676 T-0.9192,6.7942 0.4285,4.7051 2.7661,2.1811 5.5316,0.0546 8.2972,-0.2957 10.23,1.9096 10.4873,5.3616 10.07,7.9288 9.8464,8.7897 A1.4371,1.4371 0 0 1 7.0536,8.1103 T7.4056,6.6533 7.5079,3.7067 6.058,3.2092 3.6805,5.7023 1.9571,8.2137 1.411,9.224 A1.6093,1.6093 0 0 1 -1.411,7.676 Z" stroke-linecap="round" fill="#4dabf7"/></g></g><g transform="matrix(1, 0, 0, 1, 1486.0504, 11302.9753) scale(0.8445296439728992, 0.8445296439728992)" opacity="1"><g transform="scale(1.1840910584212598)"><path d="M1.5695,0.7847 T1.1562,1.5761 0.1845,3.5608 -1.3403,6.4048 -3.2507,9.7944 -5.0194,13.3763 -6.3319,17.1927 -7.0262,20.5867 -5.9983,22.7196 -3.9804,23.5545 -3.197,23.6768 A1.6732,1.6732 0 0 1 -3.563,27.0032 T-4.3542,26.9523 -6.8904,26.5485 -9.6222,24.873 -10.6681,21.6897 -10.2046,17.9311 -8.9166,13.8369 -7.2062,9.8832 -5.1618,6.2863 -3.2019,2.6384 -1.9555,0.0227 -1.5695,-0.7847 A1.7547,1.7547 0 0 1 1.5695,0.7847 Z" stroke-linecap="round" fill="#4dabf7"/></g></g><g transform="matrix(1, 0, 0, 1, 1494.4957, 11306.3534) scale(0.8445296439728992, 0.8445296439728992)" opacity="1"><g transform="scale(1.1840910584212598)"><path d="M1.8274,0.2271 T1.6304,1.8268 1.1162,4.7766 0.3721,8.2163 -0.5674,12.461 -0.8767,15.8548 -0.1586,17.5978 0.3563,18.102 A1.7799,1.7799 0 0 1 -2.0363,20.738 T-3.318,19.4388 -4.7283,16.0761 -4.6313,12.7104 -3.7891,9.2245 -2.7003,5.0046 -2.0277,1.3707 -1.8274,-0.2271 A1.8415,1.8415 0 0 1 1.8274,0.2271 Z" stroke-linecap="round" fill="#4dabf7"/></g></g><g transform="matrix(1, 0, 0, 1, 1496.1848, 11316.4878) scale(0.8445296439728992, 0.8445296439728992)" opacity="1"><g transform="scale(1.1840910584212598)"><path d="M0.2329,1.4055 T-0.9638,1.6143 -3.8983,2.2927 -7.3849,2.9543 -9.1336,3.1464 A1.4648,1.4648 0 0 1 -9.4464,0.2336 T-7.851,0.0666 -4.4457,-0.5644 -1.4343,-1.217 -0.2329,-1.4055 A1.4246,1.4246 0 0 1 0.2329,1.4055 Z" stroke-linecap="round" fill="#4dabf7"/></g></g><g transform="matrix(1, 0, 0, 1, 1501.2519, 11306.3534) scale(0.8445296439728992, 0.8445296439728992)" opacity="1"><g transform="scale(1.1840910584212598)"><path d="M1.6133,-0.4613 T1.9904,0.9432 2.8739,4.4675 3.9726,8.7875 4.7636,13.4193 5.0325,18.0689 4.6648,21.5998 3.3868,24.7812 1.2837,28.1472 -1.6376,30.7074 -3.2958,31.77 A1.6525,1.6525 0 0 1 -5.1442,29.03 T-4.3504,28.462 -2.4888,27.0758 -0.6569,24.8255 0.8492,21.8137 1.5757,18.1188 1.4499,13.8066 0.8196,9.5763 -0.2346,5.3929 -1.191,1.8522 -1.6133,0.4613 A1.678,1.678 0 0 1 1.6133,-0.4613 Z" stroke-linecap="round" fill="#4dabf7"/></g></g><g transform="matrix(1, 0, 0, 1, 1366.9717, 11161.0944) scale(0.8445296439728992, 0.8445296439728992)" opacity="1"><g transform="scale(1.1840910584212598)"><path d="M0.2089,1.2607 T-0.9891,1.4531 -3.8405,2.1081 -7.1866,3.0056 -10.438,4.0323 -13.6536,5.397 -16.9858,6.9948 -20.2936,8.9384 -23.2214,11.1245 -25.5946,13.2059 -27.8825,15.4184 -30.0347,17.5608 -31.7981,19.6331 -33.8019,22.0494 -35.8172,24.6812 -37.5366,27.4975 -39.3383,30.2329 -41.0488,32.8337 -42.5979,35.8507 -43.951,38.9668 -45.296,41.8877 -46.4718,44.74 -47.3284,47.7169 -48.1715,50.9929 -49.0042,54.3483 -49.5975,57.7398 -50.0222,60.6947 -50.4407,63.9678 -50.9728,67.9694 -51.7372,71.7183 -52.4592,75.445 -52.9504,79.627 -53.1843,84.3051 -53.2677,89.0697 -53.3021,93.7483 -53.3204,98.2974 -53.3328,102.7153 -53.0426,107.2308 -52.4819,111.6056 -52.0896,114.9755 -51.5652,118.5063 -50.5872,122.7752 -49.3938,126.9154 -48.1331,131.0316 -46.6809,135.4216 -45.0442,139.9922 -43.1995,144.0967 -40.9918,148.1718 -38.8792,152.1518 -36.9413,155.8021 -34.7404,159.3066 -32.6075,162.4086 -30.6318,165.3482 -28.5871,168.3525 -26.2242,171.2698 -23.6319,174.1026 -21.2166,176.8862 -19.1146,179.5929 -16.8637,182.3025 -14.4616,184.809 -12.2183,186.7674 -9.6904,188.5849 -7.3444,190.4424 -5.1418,192.7436 -3.0323,195.0569 -0.547,196.9395 1.0595,197.9192 A1.9387,1.9387 0 0 1 -1.2059,201.0659 T-2.087,200.5255 -4.0163,198.9772 -6.0873,196.8944 -8.1913,194.7582 -10.2011,192.8353 -12.2399,191.1957 -14.6343,189.4259 -17.0185,187.2923 -19.5406,184.6092 -21.8435,181.8181 -23.7162,179.3348 -26.0592,176.5993 -28.8625,173.4987 -31.3197,170.4389 -33.4454,167.2916 -35.5022,164.2139 -37.6679,161.0198 -39.9701,157.2242 -41.8241,153.6003 -43.8207,149.7228 -46.1017,145.3569 -47.9967,141.0177 -49.225,137.5708 -50.3707,134.0348 -51.5991,129.7151 -52.839,125.6589 -54.0154,121.3986 -54.8255,116.7401 -55.4619,113.0449 -55.8614,109.6498 -56.2309,105.1964 -56.4517,100.537 -56.4624,95.939 -56.4651,91.4636 -56.4583,87.9742 -56.4401,85.4508 -56.327,81.6832 -55.8642,76.9893 -55.2562,72.9202 -54.6316,69.2746 -53.9578,65.4717 -53.292,61.3197 -52.6506,57.1359 -51.9473,53.3815 -51.0758,50.0176 -50.1778,46.6803 -49.1604,43.425 -47.984,40.6383 -46.6849,37.862 -45.1144,34.4033 -43.479,31.3104 -41.7336,28.7291 -39.882,25.9911 -38.0004,23.0383 -35.8399,20.2675 -33.7828,17.8471 -31.8991,15.6803 -29.7095,13.5341 -27.3558,11.2882 -24.7623,9.0546 -21.5442,6.6954 -18.1015,4.6955 -14.6822,3.0688 -11.1422,1.6134 -7.6491,0.5224 -4.2916,-0.3798 -1.409,-1.0558 -0.2089,-1.2607 A1.2779,1.2779 0 0 1 0.2089,1.2607 ZM-1.7524,198.5237 T-1.4992,198.1207 -1.161,196.4653 -2.5224,193.8985 -3.9689,192.5841 A1.859,1.859 0 0 1 -1.4147,189.8824 T-0.4511,190.6413 1.3354,192.4616 2.4414,194.7999 2.5717,197.5291 2.0124,199.7213 1.606,200.4615 A1.9387,1.9387 0 0 1 -1.7524,198.5237 ZM-1.6332,192.7614 T-1.797,192.8726 -1.9608,192.9838 A1.8553,1.8553 0 0 1 -4.0738,189.9337 T-3.9121,189.8194 -3.7504,189.7051 A1.859,1.859 0 0 1 -1.6332,192.7614 ZM-1.2179,191.007 T-1.1487,191.3947 -0.2247,192.8277 1.4384,195.6764 2.685,198.7124 3.2689,201.5465 3.4312,204.6885 2.4847,207.8391 0.0953,210.4451 -3.5016,211.7039 -5.6724,211.9669 A1.6936,1.6936 0 0 1 -6.1476,208.6131 T-4.1134,208.2885 -1.0992,206.9439 -0.169,204.6203 -0.313,202.0193 -0.8616,199.2141 -2.1216,196.5243 -3.7107,194.157 -4.6555,192.441 -4.8167,191.9105 A1.8553,1.8553 0 0 1 -1.2179,191.007 Z" stroke-linecap="round" fill="#f76707"/></g></g><g transform="matrix(1, 0, 0, 1, 1373.728, 11174.6068) scale(0.8445296439728992, 0.8445296439728992)" opacity="1"><g transform="scale(1.1840910584212598)"><path d="M0.9893,0.9893 T0.2066,1.804 -1.6609,4.0499 -4.1371,6.692 -6.1328,8.3296 -6.7373,8.7563 A1.4427,1.4427 0 0 1 -8.4627,6.4437 T-7.8815,5.9858 -6.1713,4.5266 -3.8319,2.0521 -1.8053,-0.2052 -0.9893,-0.9893 A1.399,1.399 0 0 1 0.9893,0.9893 Z" stroke-linecap="round" fill="#f76707"/></g></g><g transform="matrix(1, 0, 0, 1, 1364.4381, 11172.9178) scale(0.8445296439728992, 0.8445296439728992)" opacity="1"><g transform="scale(1.1840910584212598)"><path d="M1.1828,-1.1828 T1.9847,-0.3859 3.8153,1.4269 5.6975,3.7121 8.0864,6.7997 10.6001,9.7967 12.2704,11.6064 12.9623,12.2376 A1.7099,1.7099 0 0 1 10.6777,14.7824 T9.9758,14.1623 8.1444,12.2205 6.1778,9.9382 3.8863,6.9053 1.4214,3.8098 -0.3859,1.9847 -1.1828,1.1828 A1.6727,1.6727 0 0 1 1.1828,-1.1828 Z" stroke-linecap="round" fill="#f76707"/></g></g><g transform="matrix(1, 0, 0, 1, 1404.131, 11366.3151) scale(0.8445296439728992, 0.8445296439728992)" opacity="1"><g transform="scale(1.1840910584212598)"><path d="M1.2474,0.8316 T0.4736,2.051 -1.7844,4.8451 -4.4167,7.5744 -6.6587,9.5694 -8.8924,11.2838 -10.0324,12.1582 A1.512,1.512 0 0 1 -11.9276,9.8018 T-9.9141,8.1001 -6.7533,5.2501 -4.2517,2.8137 -2.0723,0.3471 -1.2474,-0.8316 A1.4992,1.4992 0 0 1 1.2474,0.8316 Z" stroke-linecap="round" fill="#f76707"/></g></g><g transform="matrix(1, 0, 0, 1, 1394.8412, 11366.3151) scale(0.8445296439728992, 0.8445296439728992)" opacity="1"><g transform="scale(1.1840910584212598)"><path d="M1.3224,-0.7928 T1.9212,0.2047 3.6455,2.5956 5.8426,5.4388 7.9289,7.6904 10.4907,10.0255 12.0378,11.5587 A1.5342,1.5342 0 0 1 9.9222,13.7813 T8.3507,12.346 5.5955,9.9046 3.3934,7.4704 1.1241,4.4161 -0.7246,1.7914 -1.3224,0.7928 A1.5418,1.5418 0 0 1 1.3224,-0.7928 Z" stroke-linecap="round" fill="#f76707"/></g></g><g transform="matrix(1, 0, 0, 1, 1428.6224, 11363.7815) scale(0.8445296439728992, 0.8445296439728992)" opacity="1"><g transform="scale(1.1840910584212598)"><path d="M1.5766,0.6314 T1.1589,1.6232 -0.2054,4.0885 -2.4243,6.6492 -5.0497,8.7931 -6.9628,10.6228 -7.5228,11.3957 A1.5418,1.5418 0 0 1 -10.4476,10.419 T-10.2237,9.8433 -9.0063,8.241 -6.8982,6.3002 -4.7672,4.5256 -3.0454,2.5211 -1.9583,0.3728 -1.5766,-0.6314 A1.6983,1.6983 0 0 1 1.5766,0.6314 ZM-7.7478,9.9877 T-7.3963,10.4539 -5.7694,11.501 -2.6456,13.44 -0.7974,14.7981 A1.5376,1.5376 0 0 1 -2.5826,17.3019 T-4.204,16.1861 -7.5869,14.0437 -9.7855,12.422 -10.2227,11.827 A1.5418,1.5418 0 0 1 -7.7478,9.9877 Z" stroke-linecap="round" fill="#f76707"/></g></g><g transform="matrix(1, 0, 0, 1, 1447.202, 11356.1807) scale(0.8445296439728992, 0.8445296439728992)" opacity="1"><g transform="scale(1.1840910584212598)"><path d="M1.4628,0.4876 T1.0477,1.6814 0.0939,4.5625 -1.203,8.2635 -2.4509,12.019 -2.9354,15.1158 -2.429,17.7972 -0.4989,19.8661 2.455,20.5202 3.9796,20.4317 A1.5471,1.5471 0 0 1 4.4604,23.4883 T3.6965,23.6285 1.2146,23.6548 -1.8096,22.8775 -4.2368,20.9513 -5.6902,18.2883 -5.9213,14.8172 -5.279,10.9431 -3.9866,7.1789 -2.7332,3.5696 -1.8471,0.7167 -1.4628,-0.4876 A1.5419,1.5419 0 0 1 1.4628,0.4876 Z" stroke-linecap="round" fill="#f76707"/></g></g><g transform="matrix(1, 0, 0, 1, 1448.8911, 11368.0041) scale(0.8445296439728992, 0.8445296439728992)" opacity="1"><g transform="scale(1.1840910584212598)"><path d="M0.4691,1.4074 T-0.7272,1.8174 -4.1963,2.671 -6.4691,3.1147 A1.4541,1.4541 0 0 1 -7.0509,0.2653 T-4.9618,-0.1817 -1.6709,-1.018 -0.4691,-1.4074 A1.4835,1.4835 0 0 1 0.4691,1.4074 Z" stroke-linecap="round" fill="#f76707"/></g></g><g transform="matrix(1, 0, 0, 1, 1355.9928, 11413.6087) scale(0.8445296439728992, 0.8445296439728992)" opacity="1"><g transform="scale(1.1840910584212598)"><path d="M0.9328,1.2462 T0.1401,1.8534 -1.9524,3.6746 -3.3026,5.2995 -3.353,5.7105 A1.6152,1.6152 0 0 1 -6.3251,4.4449 T-5.5504,3.3373 -3.6603,1.0812 -1.7389,-0.6567 -0.9328,-1.2462 A1.5566,1.5566 0 0 1 0.9328,1.2462 ZM-3.6034,4.0376 T-3.2022,4.5191 -1.3588,6.3863 0.8865,8.9112 1.9681,11.4372 1.5789,14.2627 -0.3403,16.4434 -2.9452,17.3801 -6.1294,17.3841 -9.5226,15.9439 -11.0849,14.6944 A1.5214,1.5214 0 0 1 -9.1751,12.3256 T-8.1248,13.1824 -5.8122,14.1682 -2.8248,13.8836 -1.2374,12.1669 -2.2053,9.876 -4.1118,8.0246 -5.6314,6.6395 -6.0747,6.1178 A1.6152,1.6152 0 0 1 -3.6034,4.0376 Z" stroke-linecap="round" fill="#f76707"/></g></g><g transform="matrix(1, 0, 0, 1, 1372.0389, 11420.365) scale(0.8445296439728992, 0.8445296439728992)" opacity="1"><g transform="scale(1.1840910584212598)"><path d="M1.0624,1.0624 T0.2641,1.8628 -1.601,3.9199 -2.7703,6.6388 -1.5942,7.5447 0.3021,5.6629 1.0237,2.5637 1.1277,0.79 A1.4032,1.4032 0 0 1 3.9323,0.89 T3.8771,2.813 3.5308,6.1606 2.2444,8.6167 -0.2545,10.3075 -3.5211,10.4491 -5.9077,8.2596 -5.8259,4.997 -3.8918,1.9702 -1.8628,-0.2641 -1.0624,-1.0624 A1.5024,1.5024 0 0 1 1.0624,1.0624 ZM3.933,0.8625 T3.9148,1.4972 5.0077,3.4727 7.8429,5.6061 10.8667,6.699 12.1663,6.9994 A1.4914,1.4914 0 0 1 11.4737,9.9006 T9.7967,9.4904 6.7664,8.484 3.8925,6.3926 1.7444,3.6749 1.1219,1.6349 1.127,0.8175 A1.4032,1.4032 0 0 1 3.933,0.8625 Z" stroke-linecap="round" fill="#f76707"/></g></g><g transform="matrix(1, 0, 0, 1, 1372.0389, 11403.4744) scale(0.8445296439728992, 0.8445296439728992)" opacity="1"><g transform="scale(1.1840910584212598)"><path d="M0.7741,-1.2911 T1.7802,-0.6967 3.8639,1.1447 5.0116,3.9405 3.909,6.3087 1.2157,6.2836 -0.7415,4.9082 -1.178,4.3773 A1.5435,1.5435 0 0 1 1.178,2.3827 T1.1919,2.4391 0.2159,1.8934 -0.7741,1.2911 A1.5054,1.5054 0 0 1 0.7741,-1.2911 Z" stroke-linecap="round" fill="#f76707"/></g></g><g transform="matrix(1, 0, 0, 1, 1463.2481, 11411.0751) scale(0.8445296439728992, 0.8445296439728992)" opacity="1"><g transform="scale(1.1840910584212598)"><path d="M1.1659,1.4007 T-0.0289,2.4038 -2.224,4.3151 -4.0801,6.2352 -6.3827,9.1241 -9.3831,12.4929 -11.7522,14.476 -12.5676,14.9674 A1.7355,1.7355 0 0 1 -14.4524,12.0526 T-13.2105,11.2566 -10.6197,8.6646 -8.5154,5.8351 -6.7292,3.6366 -4.6354,1.5283 -2.3692,-0.4078 -1.1659,-1.4007 A1.8224,1.8224 0 0 1 1.1659,1.4007 Z" stroke-linecap="round" fill="#f76707"/></g></g><g transform="matrix(1, 0, 0, 1, 1452.2692, 11408.5415) scale(0.8445296439728992, 0.8445296439728992)" opacity="1"><g transform="scale(1.1840910584212598)"><path d="M1.2995,-0.9727 T1.9057,-0.1687 3.2586,2.1522 4.7679,5.5441 6.3913,8.5533 7.874,10.9344 9.5257,13.6315 10.5557,15.0816 A1.5937,1.5937 0 0 1 8.0243,17.0184 T6.6835,15.37 4.5294,12.3158 2.9598,9.5812 1.6608,6.7949 0.4998,3.9498 -0.709,1.7674 -1.2995,0.9727 A1.6232,1.6232 0 0 1 1.2995,-0.9727 Z" stroke-linecap="round" fill="#f76707"/></g></g><g transform="matrix(1, 0, 0, 1, 1467.4708, 11395.0291) scale(0.8445296439728992, 0.8445296439728992)" opacity="1"><g transform="scale(1.1840910584212598)"><path d="M0,-2.1238 T1.4069,-2.0797 4.304,-1.6914 5.7942,-1.3473 A1.9846,1.9846 0 0 1 5.0998,2.5607 T3.9385,2.2981 1.3886,2.0797 0,2.1238 A2.1238,2.1238 0 0 1 0,-2.1238 ZM7.0861,-0.5122 T7.4271,0.0909 7.5274,2.4177 6.4681,5.1795 4.9362,7.4574 4.2231,8.6973 A1.9241,1.9241 0 0 1 0.6748,7.2077 T1.3333,5.8708 3.18,3.4364 4.088,2.0323 3.8079,1.7257 A1.9846,1.9846 0 0 1 7.0861,-0.5122 ZM3.56,6.3816 T4.1462,6.7852 6.3646,7.4861 8.8936,8.0939 9.7903,8.4043 A1.7968,1.7968 0 0 1 8.7897,11.8557 T7.2187,11.483 3.9764,10.6699 1.8215,9.8764 1.3379,9.5234 A1.9241,1.9241 0 0 1 3.56,6.3816 Z" stroke-linecap="round" fill="#f76707"/></g></g><g transform="matrix(1, 0, 0, 1, 1486.0504, 11409.3861) scale(0.8445296439728992, 0.8445296439728992)" opacity="1"><g transform="scale(1.1840910584212598)"><path d="M1.5758,0.9825 T1.0148,1.8467 -0.7878,4.0396 -3.2984,6.6243 -3.9505,9.2401 -1.1782,11.5597 1.8426,13.1287 2.7082,13.7378 A1.7818,1.7818 0 0 1 0.6718,16.6622 T-0.7911,15.6239 -3.9255,13.9029 -6.7557,12.5292 -8.3819,10.3017 -7.9633,7.1033 -5.8426,4.1674 -3.5396,1.7093 -2.0236,-0.2287 -1.5758,-0.9825 A1.857,1.857 0 0 1 1.5758,0.9825 Z" stroke-linecap="round" fill="#f76707"/></g></g><g transform="matrix(1, 0, 0, 1, 1505.4746, 11399.2517) scale(0.8445296439728992, 0.8445296439728992)" opacity="1"><g transform="scale(1.1840910584212598)"><path d="M1.4648,0.3662 T1.056,1.9663 -0.0185,4.9523 -1.6537,8.5013 -3.1596,12.7341 -3.7097,16.4099 -2.5583,19.1732 0.8406,20.6438 4.5378,21.0513 6.0012,21.1452 A1.6573,1.6573 0 0 1 5.8188,24.4548 T4.3539,24.3873 0.7455,24.0713 -3.1559,22.8351 -5.9032,20.1264 -6.7715,16.1734 -6.0246,11.7345 -4.8972,8.3268 -3.3208,4.9772 -1.8554,1.2312 -1.4648,-0.3662 A1.5099,1.5099 0 0 1 1.4648,0.3662 Z" stroke-linecap="round" fill="#f76707"/></g></g><g transform="matrix(1, 0, 0, 1, 1506.3191, 11410.2306) scale(0.8445296439728992, 0.8445296439728992)" opacity="1"><g transform="scale(1.1840910584212598)"><path d="M0.2291,1.6122 T-1.1666,1.8249 -5.0082,2.2309 -7.454,2.4242 A1.5909,1.5909 0 0 1 -7.746,-0.7442 T-5.3872,-0.9936 -1.6288,-1.4276 -0.2291,-1.6122 A1.6284,1.6284 0 0 1 0.2291,1.6122 Z" stroke-linecap="round" fill="#f76707"/></g></g><g transform="matrix(1, 0, 0, 1, 1512.2308, 11386.5838) scale(0.8445296439728992, 0.8445296439728992)" opacity="1"><g transform="scale(1.1840910584212598)"><path d="M-0.2562,-2.0615 T1.3488,-2.21 4.2128,-2.3938 6.5044,-1.8603 7.537,-1.2914 A1.9294,1.9294 0 0 1 5.1608,1.749 T4.301,1.6564 1.8487,1.8127 0.2562,2.0615 A2.0774,2.0774 0 0 1 -0.2562,-2.0615 ZM8.0803,1.0802 T7.6588,1.9034 6.4217,4.0332 4.6617,6.8839 3.7174,8.4281 A1.9066,1.9066 0 0 1 0.3778,6.5876 T1.5273,4.7641 3.3542,1.7885 4.3247,0.0069 4.6175,-0.6226 A1.9294,1.9294 0 0 1 8.0803,1.0802 ZM2.9009,5.8029 T3.4528,6.0695 6.2465,6.7164 10.6158,7.2148 12.7433,7.333 A1.9583,1.9583 0 0 1 12.5967,11.247 T10.4173,11.2039 6.9369,11.0584 4.2229,10.4982 2.0021,9.6267 1.1943,9.2128 A1.9066,1.9066 0 0 1 2.9009,5.8029 Z" stroke-linecap="round" fill="#f76707"/></g></g></svg>