<svg xmlns="http://www.w3.org/2000/svg" direction="ltr" width="1033.584836333914" height="548.8049729968261" viewBox="2007.939913549483 22837.221858685178 1033.584836333914 548.8049729968261" stroke-linecap="round" stroke-linejoin="round" style="background-color: transparent;"><defs/><g transform="matrix(1, 0, 0, 1, 2120.0725, 22872.2268) scale(1.0016576656079599, 1.0016576656079599)" opacity="1"><g transform="scale(0.998345077699821)"><path d="M1.9474,0 T1.9381,1.1757 2.276,4.0204 2.749,7.9413 2.8929,11.9274 2.9266,16.0734 2.9546,20.3664 2.9946,24.6903 3.0452,29.1451 3.0864,32.8032 3.1235,36.7611 3.1553,40.9895 2.9136,45.14 2.5055,49.0578 2.0187,52.8674 1.5352,56.578 1.3345,59.699 1.2715,62.8723 1.2598,66.5208 1.2659,71.0254 1.2749,75.6571 1.2798,80.435 1.2799,84.5076 1.6347,88.4309 2.0568,92.3993 2.156,95.3662 2.2111,99.4835 2.2375,104.4147 2.2416,108.8043 2.242,113.2802 2.2426,117.7784 2.2462,121.9216 2.2525,125.9674 2.2537,129.9837 2.251,134.3542 2.2489,138.8242 1.9913,143.4059 1.5611,147.9443 1.3365,152.2483 1.2728,156.9253 1.2596,161.8444 1.2603,166.954 1.2632,172.114 1.2657,177.0386 1.2676,181.6637 1.2654,185.9656 1.2598,190.4142 1.2554,194.9071 1.2489,199.05 1.2386,203.0933 1.2274,206.9843 1.2175,210.7211 1.2061,214.541 1.1938,218.3724 1.1842,222.2045 1.1756,226.156 1.5249,230.2784 1.9813,234.6814 2.1109,239.3912 2.1441,243.9589 2.152,248.1219 2.1531,252.5346 2.1489,257.0152 2.1419,261.1535 2.1346,265.1979 2.1226,269.4503 2.1055,273.8864 2.0878,278.1381 2.0724,282.4505 2.0602,286.9033 2.0511,291.395 2.0438,296.1352 2.0385,300.8325 2.0348,305.1557 2.0322,309.2503 2.0302,313.2825 2.0282,317.536 1.655,322.0882 1.1858,326.3694 1.0586,330.6978 1.0187,335.5145 1.0054,340.1083 1.0004,344.2793 1.0015,348.3303 1.0065,352.5859 1.0101,357.0196 1.3688,361.15 1.8356,365.1946 1.9769,369.3312 2.0195,373.3735 2.0343,377.3902 2.0427,381.4009 2.0515,385.4074 2.0601,389.7752 2.0667,394.2457 1.7898,398.4446 1.3636,402.1312 1.1635,405.6292 0.721,409.6305 0.2273,413.6358 -0.2885,417.4446 -0.8003,420.7978 -0.9364,423.736 -0.9873,427.3134 -1.009,431.6734 -1.0166,436.1433 -1.0201,439.7772 -0.5934,442.7661 -0.102,445.773 0.4197,449.1598 1.2937,453.1046 1.8503,457.0112 2.4653,460.557 3.0229,464.2586 3.1293,468.3251 3.1612,472.0557 3.1666,475.4613 3.1322,478.5774 3.0828,480.9034 3.0635,481.7999 A2.0635,2.0635 0 0 1 -1.0635,481.8001 T-1.0829,480.9036 -1.1325,478.5778 -1.1677,475.4626 -1.1653,472.0615 -1.1549,468.3634 -1.1978,464.5324 -1.6603,461.0013 -2.244,457.3895 -2.7676,454.027 -3.266,450.9266 -3.768,447.0396 -4.5529,443.0683 -4.9793,439.8313 -4.9811,436.1416 -4.9828,431.6666 -4.9832,427.2773 -4.9571,423.5976 -4.8164,420.3391 -4.3312,417.0102 -3.858,413.2864 -3.3914,409.3148 -2.9765,405.4344 -2.6902,401.3841 -2.2628,397.8425 -2.0668,394.2458 -2.0602,389.7754 -2.052,385.408 -2.0449,381.4028 -2.0419,377.3972 -2.0468,373.3984 -2.0755,369.4202 -2.1905,365.5086 -2.6465,361.4056 -3.01,357.0308 -3.0064,352.5857 -3.0009,348.3298 -2.9983,344.2775 -2.9978,340.1023 -2.9913,335.4929 -2.96,330.6126 -2.831,326.0671 -2.3773,321.8453 -2.0282,317.5272 -2.0302,313.2825 -2.0322,309.2503 -2.0348,305.1557 -2.0385,300.8325 -2.0438,296.1352 -2.0511,291.395 -2.0602,286.9033 -2.0724,282.4505 -2.0878,278.1381 -2.1055,273.8864 -2.1226,269.4503 -2.1346,265.1979 -2.142,261.1536 -2.1495,257.0157 -2.1552,252.5365 -2.1596,248.129 -2.1715,243.9826 -2.2095,239.4793 -2.3362,234.9683 -2.8026,230.5088 -3.1756,226.1695 -3.1842,222.2045 -3.1938,218.3724 -3.2061,214.541 -3.2175,210.7211 -3.2274,206.9843 -3.2386,203.0933 -3.2489,199.05 -3.2554,194.9071 -3.2598,190.4142 -3.2654,185.9656 -3.2676,181.6637 -3.2654,177.0383 -3.2621,172.113 -3.2563,166.9509 -3.2452,161.8333 -3.2208,156.8841 -3.1495,152.0781 -2.8877,147.3893 -2.4643,142.9885 -2.2489,138.8242 -2.251,134.3542 -2.2537,129.9837 -2.2525,125.9674 -2.2464,121.9218 -2.2432,117.7789 -2.2441,113.2822 -2.2492,108.8114 -2.2649,104.436 -2.3096,99.553 -2.3794,95.5243 -2.5903,91.462 -3.0218,87.3969 -3.2798,84.5152 -3.2794,80.4347 -3.2737,75.656 -3.2616,71.0216 -3.2443,66.5009 -3.2155,62.8042 -3.133,59.4809 -2.8099,55.7371 -2.3046,52.0631 -1.8321,48.4203 -1.3866,44.6327 -1.1553,40.9895 -1.1236,36.7612 -1.0865,32.8033 -1.0455,29.1453 -0.9957,24.6914 -0.9586,20.3698 -0.941,16.085 -0.9449,11.9803 -1.0674,8.2406 -1.5537,4.2943 -1.9381,1.194 -1.9474,0 A1.9474,1.9474 0 0 1 1.9474,0 Z" stroke-linecap="round" fill="#9398b0"/></g></g><g transform="matrix(1, 0, 0, 1, 2609.8649, 22872.2268) scale(1.0016576656079599, 1.0016576656079599)" opacity="1"><g transform="scale(0.998345077699821)"><path d="M1.9474,0 T1.9381,1.1757 2.276,4.0204 2.749,7.9413 2.8929,11.9274 2.9266,16.0734 2.9546,20.3664 2.9946,24.6903 3.0452,29.1451 3.0864,32.8032 3.1235,36.7611 3.1553,40.9895 2.9136,45.14 2.5055,49.0578 2.0187,52.8674 1.5352,56.578 1.3345,59.699 1.2715,62.8723 1.2598,66.5208 1.2659,71.0254 1.2749,75.6571 1.2798,80.435 1.2799,84.5076 1.6347,88.4309 2.0568,92.3993 2.156,95.3662 2.2111,99.4835 2.2375,104.4147 2.2416,108.8043 2.242,113.2802 2.2426,117.7784 2.2462,121.9216 2.2525,125.9674 2.2537,129.9837 2.251,134.3542 2.2489,138.8242 1.9913,143.4059 1.5611,147.9443 1.3365,152.2483 1.2728,156.9253 1.2596,161.8444 1.2603,166.954 1.2632,172.114 1.2657,177.0386 1.2676,181.6637 1.2654,185.9656 1.2598,190.4142 1.2554,194.9071 1.2489,199.05 1.2386,203.0933 1.2274,206.9843 1.2175,210.7211 1.2061,214.541 1.1938,218.3724 1.1842,222.2045 1.1756,226.156 1.5249,230.2784 1.9813,234.6814 2.1109,239.3912 2.1441,243.9589 2.152,248.1219 2.1531,252.5346 2.1489,257.0152 2.1419,261.1535 2.1346,265.1979 2.1226,269.4503 2.1055,273.8864 2.0878,278.1381 2.0724,282.4505 2.0602,286.9033 2.0511,291.395 2.0438,296.1352 2.0385,300.8325 2.0348,305.1557 2.0322,309.2503 2.0302,313.2825 2.0282,317.536 1.655,322.0882 1.1858,326.3694 1.0586,330.6978 1.0187,335.5145 1.0054,340.1083 1.0004,344.2793 1.0015,348.3303 1.0065,352.5859 1.0101,357.0196 1.3688,361.15 1.8356,365.1946 1.9769,369.3312 2.0195,373.3735 2.0343,377.3902 2.0427,381.4009 2.0515,385.4074 2.0601,389.7752 2.0667,394.2457 1.7898,398.4446 1.3636,402.1312 1.1635,405.6292 0.721,409.6305 0.2273,413.6358 -0.2885,417.4446 -0.8003,420.7978 -0.9364,423.736 -0.9873,427.3134 -1.009,431.6734 -1.0166,436.1433 -1.0201,439.7772 -0.5934,442.7661 -0.102,445.773 0.4197,449.1598 1.2937,453.1046 1.8503,457.0112 2.4653,460.557 3.0229,464.2586 3.1293,468.3251 3.1612,472.0557 3.1666,475.4613 3.1322,478.5774 3.0828,480.9034 3.0635,481.7999 A2.0635,2.0635 0 0 1 -1.0635,481.8001 T-1.0829,480.9036 -1.1325,478.5778 -1.1677,475.4626 -1.1653,472.0615 -1.1549,468.3634 -1.1978,464.5324 -1.6603,461.0013 -2.244,457.3895 -2.7676,454.027 -3.266,450.9266 -3.768,447.0396 -4.5529,443.0683 -4.9793,439.8313 -4.9811,436.1416 -4.9828,431.6666 -4.9832,427.2773 -4.9571,423.5976 -4.8164,420.3391 -4.3312,417.0102 -3.858,413.2864 -3.3914,409.3148 -2.9765,405.4344 -2.6902,401.3841 -2.2628,397.8425 -2.0668,394.2458 -2.0602,389.7754 -2.052,385.408 -2.0449,381.4028 -2.0419,377.3972 -2.0468,373.3984 -2.0755,369.4202 -2.1905,365.5086 -2.6465,361.4056 -3.01,357.0308 -3.0064,352.5857 -3.0009,348.3298 -2.9983,344.2775 -2.9978,340.1023 -2.9913,335.4929 -2.96,330.6126 -2.831,326.0671 -2.3773,321.8453 -2.0282,317.5272 -2.0302,313.2825 -2.0322,309.2503 -2.0348,305.1557 -2.0385,300.8325 -2.0438,296.1352 -2.0511,291.395 -2.0602,286.9033 -2.0724,282.4505 -2.0878,278.1381 -2.1055,273.8864 -2.1226,269.4503 -2.1346,265.1979 -2.142,261.1536 -2.1495,257.0157 -2.1552,252.5365 -2.1596,248.129 -2.1715,243.9826 -2.2095,239.4793 -2.3362,234.9683 -2.8026,230.5088 -3.1756,226.1695 -3.1842,222.2045 -3.1938,218.3724 -3.2061,214.541 -3.2175,210.7211 -3.2274,206.9843 -3.2386,203.0933 -3.2489,199.05 -3.2554,194.9071 -3.2598,190.4142 -3.2654,185.9656 -3.2676,181.6637 -3.2654,177.0383 -3.2621,172.113 -3.2563,166.9509 -3.2452,161.8333 -3.2208,156.8841 -3.1495,152.0781 -2.8877,147.3893 -2.4643,142.9885 -2.2489,138.8242 -2.251,134.3542 -2.2537,129.9837 -2.2525,125.9674 -2.2464,121.9218 -2.2432,117.7789 -2.2441,113.2822 -2.2492,108.8114 -2.2649,104.436 -2.3096,99.553 -2.3794,95.5243 -2.5903,91.462 -3.0218,87.3969 -3.2798,84.5152 -3.2794,80.4347 -3.2737,75.656 -3.2616,71.0216 -3.2443,66.5009 -3.2155,62.8042 -3.133,59.4809 -2.8099,55.7371 -2.3046,52.0631 -1.8321,48.4203 -1.3866,44.6327 -1.1553,40.9895 -1.1236,36.7612 -1.0865,32.8033 -1.0455,29.1453 -0.9957,24.6914 -0.9586,20.3698 -0.941,16.085 -0.9449,11.9803 -1.0674,8.2406 -1.5537,4.2943 -1.9381,1.194 -1.9474,0 A1.9474,1.9474 0 0 1 1.9474,0 Z" stroke-linecap="round" fill="#9398b0"/></g></g><g transform="matrix(1, 0, 0, 1, 2039.9399, 23241.8385) scale(1.0016576656079599, 1.0016576656079599)" opacity="1"><g transform="scale(0.998345077699821)"><path d="M0,-1.7725 T1.4214,-1.7611 5.17,-1.476 9.1925,-1.0042 12.8244,-0.7775 16.6882,-0.752 20.2472,-0.7626 23.8259,-0.7802 27.5788,-0.8001 31.1839,-0.8187 34.6917,-0.8342 38.4353,-0.8472 42.0065,-0.8601 45.0569,-0.872 48.0745,-0.8817 51.083,-0.8924 54.089,-0.9041 57.8166,-0.9156 61.9846,-0.9261 65.5491,-0.933 69.2643,-0.9386 73.1362,-0.9453 77.056,-0.9571 81.0504,-0.9711 84.5483,-0.9814 87.8352,-1.3269 91.0496,-1.7933 94.7388,-1.9507 98.8872,-1.9928 102.5676,-2.0062 106.2694,-2.2255 110.1774,-2.6546 114.3745,-2.9278 118.4459,-3.0068 121.7637,-3.2447 124.9404,-3.676 128.09,-3.9483 131.2772,-4.379 134.575,-4.866 137.9189,-5.0171 141.259,-5.0622 144.598,-5.0755 147.9438,-5.0797 151.1682,-5.0815 154.5953,-5.0826 158.3165,-5.0835 161.7569,-5.0857 165.1193,-5.0926 168.587,-5.1057 171.9698,-5.12 175.2044,-5.1312 178.6343,-5.1407 182.2905,-4.8702 185.6481,-4.4126 188.7167,-4.2013 192.0671,-4.1665 195.3928,-4.1604 198.9529,-3.8308 203.0267,-3.3545 207.1995,-3.1924 211.4919,-3.1781 215.0636,-3.1816 218.5783,-3.1871 222.2215,-3.1905 225.5375,-2.8123 228.8414,-2.3493 232.1001,-2.2398 235.3243,-2.2072 238.7689,-1.8292 242.1272,-1.3682 245.0856,-1.2513 248.31,-1.218 251.7369,-1.2095 254.9845,-1.2078 258.1814,-1.2079 261.7733,-1.207 265.4166,-1.2035 268.9134,-1.1989 272.7203,-1.195 276.9642,-1.1916 281.1964,-1.189 284.7617,-1.1872 288.2755,-1.1859 292.447,-1.1862 296.7153,-1.1898 300.5223,-1.1944 304.2637,-1.1979 308.0018,-1.5375 311.3654,-1.9995 314.8509,-2.1551 318.3448,-2.1976 322.0132,-2.2143 326.0894,-2.2266 329.5836,-2.2381 332.9623,-2.2494 336.8462,-2.2578 340.7084,-2.6023 344.6965,-3.0763 348.5212,-3.226 351.6811,-3.2549 354.7769,-3.273 358.0883,-3.629 361.2635,-4.1061 365.4362,-4.6372 369.6109,-5.3283 372.8594,-5.9075 376.4392,-6.2691 379.736,-6.7805 382.679,-7.2859 386.1832,-7.3707 389.841,-7.3939 393.6085,-7.1072 397.4111,-6.6453 400.5102,-6.0573 403.7609,-5.5359 407.5074,-5.4251 411.4129,-5.4215 415.6114,-5.8514 419.6404,-6.3499 423.4438,-6.4294 426.9902,-6.0894 430.2203,-5.6192 433.7087,-5.1806 437.5299,-4.2993 440.8302,-3.4338 442.1313,-3.1324 A2.1698,2.1698 0 0 1 441.3287,1.1324 T439.2059,0.668 435.0869,-0.212 431.4658,-0.6798 428.1305,-1.1656 424.7265,-1.5816 421.2316,-1.5354 417.9796,-1.3893 414.9651,-0.9246 411.4054,-0.5824 407.4511,-0.6016 403.8214,-0.6958 400.4695,-1.2382 397.2923,-1.8194 393.6426,-2.2795 389.853,-2.6191 386.2643,-2.6015 382.381,-2.4483 378.9271,-1.9516 375.5599,-1.4881 372.1452,-0.9481 368.9517,-0.4191 365.1556,0.0315 361.3073,0.5513 358.0294,0.9975 354.7827,1.2766 351.6969,1.2693 347.8572,1.2947 343.9926,1.4356 340.6794,1.9042 336.8462,2.2578 332.9624,2.2494 329.5838,2.2383 326.0909,2.2276 322.0229,2.2211 318.38,2.225 314.9955,2.2537 311.5129,2.4362 308.0315,2.8972 304.2637,3.1979 300.5223,3.1944 296.7153,3.1898 292.447,3.1862 288.2755,3.1859 284.7617,3.1872 281.1964,3.189 276.9642,3.1916 272.7203,3.195 268.9134,3.1989 265.4166,3.2034 261.7731,3.2069 258.1806,3.2073 254.9821,3.2057 251.7295,3.2019 248.2789,3.1905 244.9704,3.1521 241.7391,3.0112 237.7577,2.542 233.836,2.1674 230.2852,2.094 226.066,1.6141 222.1997,1.1905 218.578,1.1868 215.0622,1.1805 211.4843,1.1712 207.1299,1.1458 203.4044,1.0641 200.4832,0.5736 197.2858,0.1527 193.359,0.1573 189.6244,0.1357 186.2443,-0.0217 182.4673,-0.5074 178.6343,-0.8593 175.2044,-0.8688 171.9698,-0.88 168.587,-0.8943 165.1193,-0.9074 161.7569,-0.9143 158.3165,-0.9165 154.5956,-0.9172 151.169,-0.9179 147.9462,-0.9181 144.6054,-0.9166 140.5781,-0.9015 136.5225,-0.8415 133.3937,-0.6376 130.2149,-0.1772 126.3458,0.3247 122.2111,0.7862 118.4911,1.0588 114.5549,1.1149 110.7509,1.3285 106.6978,1.7547 102.5746,2.0139 98.9113,2.0201 94.865,2.0492 91.1796,2.2279 87.8576,2.6844 84.5483,2.9814 81.0504,2.9711 77.5797,2.9585 74.3134,2.9473 70.615,2.9403 66.9993,2.9354 63.6994,2.9297 60.0815,2.9218 56.2203,2.9111 52.7418,2.8992 49.735,2.8879 46.7233,2.8776 43.6944,2.867 40.1545,2.8539 36.5238,2.841 33.0149,2.8271 29.5045,2.8101 26.2627,2.793 22.7354,2.775 19.0871,2.7545 15.4528,2.7288 11.5242,2.6448 8.0399,2.362 4.7206,1.949 1.4214,1.7611 0,1.7725 A1.7725,1.7725 0 0 1 0,-1.7725 Z" stroke-linecap="round" fill="#9398b0"/></g></g><g transform="matrix(1, 0, 0, 1, 2529.7323, 23241.8385) scale(1.0016576656079599, 1.0016576656079599)" opacity="1"><g transform="scale(0.998345077699821)"><path d="M0,-1.7725 T1.4214,-1.7611 5.17,-1.476 9.1925,-1.0042 12.8244,-0.7775 16.6882,-0.752 20.2472,-0.7626 23.8259,-0.7802 27.5788,-0.8001 31.1839,-0.8187 34.6917,-0.8342 38.4353,-0.8472 42.0065,-0.8601 45.0569,-0.872 48.0745,-0.8817 51.083,-0.8924 54.089,-0.9041 57.8166,-0.9156 61.9846,-0.9261 65.5491,-0.933 69.2643,-0.9386 73.1362,-0.9453 77.056,-0.9571 81.0504,-0.9711 84.5483,-0.9814 87.8352,-1.3269 91.0496,-1.7933 94.7388,-1.9507 98.8872,-1.9928 102.5676,-2.0062 106.2694,-2.2255 110.1774,-2.6546 114.3745,-2.9278 118.4459,-3.0068 121.7637,-3.2447 124.9404,-3.676 128.09,-3.9483 131.2772,-4.379 134.575,-4.866 137.9189,-5.0171 141.259,-5.0622 144.598,-5.0755 147.9438,-5.0797 151.1682,-5.0815 154.5953,-5.0826 158.3165,-5.0835 161.7569,-5.0857 165.1193,-5.0926 168.587,-5.1057 171.9698,-5.12 175.2044,-5.1312 178.6343,-5.1407 182.2905,-4.8702 185.6481,-4.4126 188.7167,-4.2013 192.0671,-4.1665 195.3928,-4.1604 198.9529,-3.8308 203.0267,-3.3545 207.1995,-3.1924 211.4919,-3.1781 215.0636,-3.1816 218.5783,-3.1871 222.2215,-3.1905 225.5375,-2.8123 228.8414,-2.3493 232.1001,-2.2398 235.3243,-2.2072 238.7689,-1.8292 242.1272,-1.3682 245.0856,-1.2513 248.31,-1.218 251.7369,-1.2095 254.9845,-1.2078 258.1814,-1.2079 261.7733,-1.207 265.4166,-1.2035 268.9134,-1.1989 272.7203,-1.195 276.9642,-1.1916 281.1964,-1.189 284.7617,-1.1872 288.2755,-1.1859 292.447,-1.1862 296.7153,-1.1898 300.5223,-1.1944 304.2637,-1.1979 308.0018,-1.5375 311.3654,-1.9995 314.8509,-2.1551 318.3448,-2.1976 322.0132,-2.2143 326.0894,-2.2266 329.5836,-2.2381 332.9623,-2.2494 336.8462,-2.2578 340.7084,-2.6023 344.6965,-3.0763 348.5212,-3.226 351.6811,-3.2549 354.7769,-3.273 358.0883,-3.629 361.2635,-4.1061 365.4362,-4.6372 369.6109,-5.3283 372.8594,-5.9075 376.4392,-6.2691 379.736,-6.7805 382.679,-7.2859 386.1832,-7.3707 389.841,-7.3939 393.6085,-7.1072 397.4111,-6.6453 400.5102,-6.0573 403.7609,-5.5359 407.5074,-5.4251 411.4129,-5.4215 415.6114,-5.8514 419.6404,-6.3499 423.4438,-6.4294 426.9902,-6.0894 430.2203,-5.6192 433.7087,-5.1806 437.5299,-4.2993 440.8302,-3.4338 442.1313,-3.1324 A2.1698,2.1698 0 0 1 441.3287,1.1324 T439.2059,0.668 435.0869,-0.212 431.4658,-0.6798 428.1305,-1.1656 424.7265,-1.5816 421.2316,-1.5354 417.9796,-1.3893 414.9651,-0.9246 411.4054,-0.5824 407.4511,-0.6016 403.8214,-0.6958 400.4695,-1.2382 397.2923,-1.8194 393.6426,-2.2795 389.853,-2.6191 386.2643,-2.6015 382.381,-2.4483 378.9271,-1.9516 375.5599,-1.4881 372.1452,-0.9481 368.9517,-0.4191 365.1556,0.0315 361.3073,0.5513 358.0294,0.9975 354.7827,1.2766 351.6969,1.2693 347.8572,1.2947 343.9926,1.4356 340.6794,1.9042 336.8462,2.2578 332.9624,2.2494 329.5838,2.2383 326.0909,2.2276 322.0229,2.2211 318.38,2.225 314.9955,2.2537 311.5129,2.4362 308.0315,2.8972 304.2637,3.1979 300.5223,3.1944 296.7153,3.1898 292.447,3.1862 288.2755,3.1859 284.7617,3.1872 281.1964,3.189 276.9642,3.1916 272.7203,3.195 268.9134,3.1989 265.4166,3.2034 261.7731,3.2069 258.1806,3.2073 254.9821,3.2057 251.7295,3.2019 248.2789,3.1905 244.9704,3.1521 241.7391,3.0112 237.7577,2.542 233.836,2.1674 230.2852,2.094 226.066,1.6141 222.1997,1.1905 218.578,1.1868 215.0622,1.1805 211.4843,1.1712 207.1299,1.1458 203.4044,1.0641 200.4832,0.5736 197.2858,0.1527 193.359,0.1573 189.6244,0.1357 186.2443,-0.0217 182.4673,-0.5074 178.6343,-0.8593 175.2044,-0.8688 171.9698,-0.88 168.587,-0.8943 165.1193,-0.9074 161.7569,-0.9143 158.3165,-0.9165 154.5956,-0.9172 151.169,-0.9179 147.9462,-0.9181 144.6054,-0.9166 140.5781,-0.9015 136.5225,-0.8415 133.3937,-0.6376 130.2149,-0.1772 126.3458,0.3247 122.2111,0.7862 118.4911,1.0588 114.5549,1.1149 110.7509,1.3285 106.6978,1.7547 102.5746,2.0139 98.9113,2.0201 94.865,2.0492 91.1796,2.2279 87.8576,2.6844 84.5483,2.9814 81.0504,2.9711 77.5797,2.9585 74.3134,2.9473 70.615,2.9403 66.9993,2.9354 63.6994,2.9297 60.0815,2.9218 56.2203,2.9111 52.7418,2.8992 49.735,2.8879 46.7233,2.8776 43.6944,2.867 40.1545,2.8539 36.5238,2.841 33.0149,2.8271 29.5045,2.8101 26.2627,2.793 22.7354,2.775 19.0871,2.7545 15.4528,2.7288 11.5242,2.6448 8.0399,2.362 4.7206,1.949 1.4214,1.7611 0,1.7725 A1.7725,1.7725 0 0 1 0,-1.7725 Z" stroke-linecap="round" fill="#9398b0"/></g></g><g transform="matrix(1, 0, 0, 1, 2483.6743, 23241.8385) scale(1.0016576656079599, 1.0016576656079599)" opacity="1"><g transform="scale(0.998345077699821)"><path d="M-1.5409,1.1528 T-2.2636,0.2203 -4.4202,-1.9158 -7.397,-4.5837 -10.0008,-6.7377 -11.0618,-7.4274 A2.0826,2.0826 0 0 1 -8.5267,-10.7322 T-7.2976,-9.8831 -4.5928,-7.5757 -1.4844,-4.5993 0.8446,-2.117 1.5409,-1.1528 A1.9244,1.9244 0 0 1 -1.5409,1.1528 ZM-9.1794,-7.09 T-9.2329,-7.0741 -9.2865,-7.0582 A2.0813,2.0813 0 0 1 -10.5156,-11.0353 T-10.4624,-11.0524 -10.4092,-11.0695 A2.0826,2.0826 0 0 1 -9.1794,-7.09 ZM-8.7418,-10.7754 T-8.3945,-10.499 -6.7957,-9.4423 -4.2488,-7.6342 -1.3949,-5.5474 1.356,-3.1094 3.1406,0.4724 3.2003,4.9415 1.6741,8.6678 -1.1307,10.9346 -3.7566,11.8854 -4.5716,12.0296 A2.0569,2.0569 0 0 1 -5.4484,8.0104 T-3.6756,7.2249 -1.1286,4.8332 -0.921,1.3307 -2.7628,-1.6574 -5.2965,-3.5638 -8.0384,-5.3758 -10.2911,-6.8457 -11.0603,-7.3182 A2.0813,2.0813 0 0 1 -8.7418,-10.7754 Z" stroke-linecap="round" fill="#9398b0"/></g></g><g transform="matrix(1, 0, 0, 1, 2973.4667, 23241.8385) scale(1.0016576656079599, 1.0016576656079599)" opacity="1"><g transform="scale(0.998345077699821)"><path d="M-1.5409,1.1528 T-2.2636,0.2203 -4.4202,-1.9158 -7.397,-4.5837 -10.0008,-6.7377 -11.0618,-7.4274 A2.0826,2.0826 0 0 1 -8.5267,-10.7322 T-7.2976,-9.8831 -4.5928,-7.5757 -1.4844,-4.5993 0.8446,-2.117 1.5409,-1.1528 A1.9244,1.9244 0 0 1 -1.5409,1.1528 ZM-9.1794,-7.09 T-9.2329,-7.0741 -9.2865,-7.0582 A2.0813,2.0813 0 0 1 -10.5156,-11.0353 T-10.4624,-11.0524 -10.4092,-11.0695 A2.0826,2.0826 0 0 1 -9.1794,-7.09 ZM-8.7418,-10.7754 T-8.3945,-10.499 -6.7957,-9.4423 -4.2488,-7.6342 -1.3949,-5.5474 1.356,-3.1094 3.1406,0.4724 3.2003,4.9415 1.6741,8.6678 -1.1307,10.9346 -3.7566,11.8854 -4.5716,12.0296 A2.0569,2.0569 0 0 1 -5.4484,8.0104 T-3.6756,7.2249 -1.1286,4.8332 -0.921,1.3307 -2.7628,-1.6574 -5.2965,-3.5638 -8.0384,-5.3758 -10.2911,-6.8457 -11.0603,-7.3182 A2.0813,2.0813 0 0 1 -8.7418,-10.7754 Z" stroke-linecap="round" fill="#9398b0"/></g></g><g transform="matrix(1, 0, 0, 1, 2512.7223, 23224.8103) scale(1.0016576656079599, 1.0016576656079599)" opacity="1"><g transform="scale(0.998345077699821)"><path d="M2.2186,0.554 T1.7297,2.4456 0.7053,5.7085 -0.5343,9.1295 -1.7679,13.5252 -2.4108,17.8467 -1.6818,21.3398 1.1053,22.3539 4.555,21.1027 6.0601,20.3551 A1.9342,1.9342 0 0 1 7.9599,23.7249 T6.5411,24.6256 3.4032,26.4797 -1.2014,26.8904 -5.4511,24.2993 -6.9608,19.8292 -6.7343,14.9796 -5.6626,10.0827 -4.0477,5.427 -2.6757,1.3431 -2.2186,-0.554 A2.2867,2.2867 0 0 1 2.2186,0.554 Z" stroke-linecap="round" fill="#9398b0"/></g></g><g transform="matrix(1, 0, 0, 1, 3002.5147, 23224.8103) scale(1.0016576656079599, 1.0016576656079599)" opacity="1"><g transform="scale(0.998345077699821)"><path d="M2.2186,0.554 T1.7297,2.4456 0.7053,5.7085 -0.5343,9.1295 -1.7679,13.5252 -2.4108,17.8467 -1.6818,21.3398 1.1053,22.3539 4.555,21.1027 6.0601,20.3551 A1.9342,1.9342 0 0 1 7.9599,23.7249 T6.5411,24.6256 3.4032,26.4797 -1.2014,26.8904 -5.4511,24.2993 -6.9608,19.8292 -6.7343,14.9796 -5.6626,10.0827 -4.0477,5.427 -2.6757,1.3431 -2.2186,-0.554 A2.2867,2.2867 0 0 1 2.2186,0.554 Z" stroke-linecap="round" fill="#9398b0"/></g></g><g transform="matrix(1, 0, 0, 1, 2512.7223, 23235.8286) scale(1.0016576656079599, 1.0016576656079599)" opacity="1"><g transform="scale(0.998345077699821)"><path d="M-0.6366,1.8205 T-3.1449,2.3042 -5.6531,2.788 A1.8233,1.8233 0 0 1 -6.3669,-0.788 T-3.8651,-1.3042 -1.3634,-1.8205 A1.8564,1.8564 0 0 1 -0.6366,1.8205 Z" stroke-linecap="round" fill="#9398b0"/></g></g><g transform="matrix(1, 0, 0, 1, 3002.5147, 23235.8286) scale(1.0016576656079599, 1.0016576656079599)" opacity="1"><g transform="scale(0.998345077699821)"><path d="M-0.6366,1.8205 T-3.1449,2.3042 -5.6531,2.788 A1.8233,1.8233 0 0 1 -6.3669,-0.788 T-3.8651,-1.3042 -1.3634,-1.8205 A1.8564,1.8564 0 0 1 -0.6366,1.8205 Z" stroke-linecap="round" fill="#9398b0"/></g></g><g transform="matrix(1, 0, 0, 1, 2083.0112, 22870.2235) scale(1.0016576656079599, 1.0016576656079599)" opacity="1"><g transform="scale(0.998345077699821)"><path d="M0.9189,0 T0.9251,1.4214 0.9364,4.9453 1.2785,8.4392 3.1446,9.9541 5.1302,8.0948 5.5868,6.112 A1.8959,1.8959 0 0 1 9.3468,5.6221 T9.4882,7.0551 9.0897,9.8889 7.5673,12.3552 4.5742,14.0263 1.1231,14.024 -1.327,12.237 -2.639,9.0529 -2.9364,4.9453 -2.9251,1.4214 -2.9189,0 A1.9189,1.9189 0 0 1 0.9189,0 ZM9.3565,5.7144 T9.3872,6.4054 10.5026,8.8041 12.3118,12.3985 13.7696,16.3441 14.7413,20.2912 14.7993,24.4959 13.292,28.866 9.4327,31.9252 4.654,33.1195 0.1584,32.5332 -3.0537,30.6137 -4.8212,28.4393 -5.626,27.4096 A2.1183,2.1183 0 0 1 -2.394,24.6704 T-0.8009,26.4481 2.4616,28.3372 6.3163,28.2227 9.4496,26.808 10.5895,24.0725 10.657,20.923 9.9601,17.5354 8.4054,13.4785 6.6126,9.6936 5.6894,7.1003 5.5771,6.0197 A1.8959,1.8959 0 0 1 9.3565,5.7144 Z" stroke-linecap="round" fill="#9398b0"/></g></g><g transform="matrix(1, 0, 0, 1, 2572.8036, 22870.2235) scale(1.0016576656079599, 1.0016576656079599)" opacity="1"><g transform="scale(0.998345077699821)"><path d="M0.9189,0 T0.9251,1.4214 0.9364,4.9453 1.2785,8.4392 3.1446,9.9541 5.1302,8.0948 5.5868,6.112 A1.8959,1.8959 0 0 1 9.3468,5.6221 T9.4882,7.0551 9.0897,9.8889 7.5673,12.3552 4.5742,14.0263 1.1231,14.024 -1.327,12.237 -2.639,9.0529 -2.9364,4.9453 -2.9251,1.4214 -2.9189,0 A1.9189,1.9189 0 0 1 0.9189,0 ZM9.3565,5.7144 T9.3872,6.4054 10.5026,8.8041 12.3118,12.3985 13.7696,16.3441 14.7413,20.2912 14.7993,24.4959 13.292,28.866 9.4327,31.9252 4.654,33.1195 0.1584,32.5332 -3.0537,30.6137 -4.8212,28.4393 -5.626,27.4096 A2.1183,2.1183 0 0 1 -2.394,24.6704 T-0.8009,26.4481 2.4616,28.3372 6.3163,28.2227 9.4496,26.808 10.5895,24.0725 10.657,20.923 9.9601,17.5354 8.4054,13.4785 6.6126,9.6936 5.6894,7.1003 5.5771,6.0197 A1.8959,1.8959 0 0 1 9.3565,5.7144 Z" stroke-linecap="round" fill="#9398b0"/></g></g><g transform="matrix(1, 0, 0, 1, 2114.0626, 22871.2252) scale(1.0016576656079599, 1.0016576656079599)" opacity="1"><g transform="scale(0.998345077699821)"><path d="M2.1151,0.8443 T1.6485,2.0312 0.5153,4.8859 -0.6132,7.2975 -1.0751,8.0413 A2.2936,2.2936 0 0 1 -4.9731,5.623 T-4.5912,5.0066 -3.6416,2.9558 -2.5945,0.3385 -2.1151,-0.8443 A2.2774,2.2774 0 0 1 2.1151,0.8443 ZM-4.9226,5.5452 T-4.2648,4.5889 -2.626,2.2156 -0.5429,-0.5213 1.6731,-2.7985 4.8704,-3.6408 8.2921,-2.1567 10.7091,0.6612 12.697,3.4244 15.3648,5.864 17.1234,6.9891 A2.2977,2.2977 0 0 1 14.9366,11.0309 T13.3505,10.2349 10.4199,7.869 8.0001,4.9502 5.262,2.5563 2.579,2.781 0.7714,5.2523 -0.5707,7.2863 -1.1256,8.119 A2.2936,2.2936 0 0 1 -4.9226,5.5452 Z" stroke-linecap="round" fill="#9398b0"/></g></g><g transform="matrix(1, 0, 0, 1, 2603.855, 22871.2252) scale(1.0016576656079599, 1.0016576656079599)" opacity="1"><g transform="scale(0.998345077699821)"><path d="M2.1151,0.8443 T1.6485,2.0312 0.5153,4.8859 -0.6132,7.2975 -1.0751,8.0413 A2.2936,2.2936 0 0 1 -4.9731,5.623 T-4.5912,5.0066 -3.6416,2.9558 -2.5945,0.3385 -2.1151,-0.8443 A2.2774,2.2774 0 0 1 2.1151,0.8443 ZM-4.9226,5.5452 T-4.2648,4.5889 -2.626,2.2156 -0.5429,-0.5213 1.6731,-2.7985 4.8704,-3.6408 8.2921,-2.1567 10.7091,0.6612 12.697,3.4244 15.3648,5.864 17.1234,6.9891 A2.2977,2.2977 0 0 1 14.9366,11.0309 T13.3505,10.2349 10.4199,7.869 8.0001,4.9502 5.262,2.5563 2.579,2.781 0.7714,5.2523 -0.5707,7.2863 -1.1256,8.119 A2.2936,2.2936 0 0 1 -4.9226,5.5452 Z" stroke-linecap="round" fill="#9398b0"/></g></g><g transform="matrix(1, 0, 0, 1, 2144.1123, 22869.2219) scale(1.0016576656079599, 1.0016576656079599)" opacity="1"><g transform="scale(0.998345077699821)"><path d="M1.4573,0 T1.4516,1.1849 1.4435,4.282 1.4401,8.2338 1.443,12.4589 1.8085,16.8694 2.2764,21.5906 2.4142,25.7436 2.8212,29.0941 3.3214,32.8044 3.4855,36.465 3.5445,40.0127 3.7979,43.6002 4.2458,46.8587 4.5261,49.8675 4.6213,53.3258 4.6596,57.302 4.6719,60.7535 5.0401,64.3833 5.5164,68.403 5.6598,71.787 5.7026,74.7832 6.0714,78.6386 6.7475,82.764 7.316,86.4174 7.9933,90.3643 8.5565,94.0155 9.0885,97.4401 9.6126,100.9178 10.141,104.3622 10.6647,107.7145 11.2599,110.9948 11.8023,114.4515 12.2558,117.8716 12.7542,121.0982 13.2612,124.7919 14.1387,129.1738 14.7464,132.993 15.2562,136.1491 15.9693,139.4941 16.5347,142.9045 17.1873,146.0588 17.7397,149.1563 18.2626,152.4483 18.9764,156.0539 19.5593,160.091 20.2155,163.7754 20.7589,167.3395 21.093,170.8302 21.5652,173.8626 21.8996,176.9324 22.4028,180.1297 23.2766,184.0075 24.0357,187.8155 24.6116,191.2966 25.3534,194.9709 26.3584,199.0712 27.2928,203.2959 28.2052,207.3445 29.199,211.4501 30.2263,215.8663 31.2396,219.9488 32.2464,223.6068 32.913,227.0825 33.4519,230.5416 34.3085,234.0826 35.293,237.5882 36.3099,241.014 37.3085,244.4982 38.2859,247.8545 39.356,251.0279 40.8247,254.7255 42.492,258.2729 44.2489,261.8827 46.3887,265.958 48.1341,269.6056 49.3284,272.9919 50.4051,276.3032 51.7636,279.264 53.5807,282.5683 55.632,285.7182 57.759,288.54 59.5979,291.2334 61.528,293.7066 64.0055,296.4543 66.384,299.1847 68.8847,301.9595 71.8268,304.9667 74.5671,307.2868 77.1371,309.0514 79.8847,310.9503 82.7492,312.4791 85.6868,314.0055 88.5688,316.0353 91.5764,318.0295 94.6834,319.673 98.0076,320.8053 102.1338,322.0602 106.0061,323.4787 109.4475,325.0203 113.2505,326.9641 117.3572,328.8854 121.076,330.433 124.7662,331.9595 128.427,333.4293 131.4788,334.4664 135.1185,335.4018 139.1059,336.0616 142.5475,336.6574 145.8874,337.4714 149.2879,338.0636 152.8998,338.7241 156.533,339.6212 159.975,340.5309 163.5661,341.44 167.427,342.0646 171.0845,342.6719 174.6822,343.1997 178.3694,343.7171 182.3349,344.4778 186.0316,345.033 189.0044,345.2827 192.1464,345.6748 195.4864,346.1625 199.3869,346.6121 203.8429,347.1117 207.7434,347.3479 211.6513,347.7535 215.7438,348.5341 219.0513,349.0904 222.3245,349.678 226.3638,350.4879 230.0895,351.0524 233.5607,351.3036 237.4163,351.3818 240.8642,351.786 244.1887,352.2516 247.6767,352.3603 250.9665,352.3958 254.0483,352.4058 257.2358,352.7211 260.8062,353.1881 264.7089,353.3767 268.7131,353.4182 272.7201,353.4248 276.7253,353.4231 280.7323,353.4202 284.5034,353.4211 288.2839,353.4252 292.4733,353.434 296.6118,353.0235 300.1057,352.5743 302.5453,352.5409 303.4541,352.5395 A2.051,2.051 0 0 1 303.5459,356.6405 T302.6379,356.6797 299.6802,356.843 296.1819,357.3532 292.5156,357.746 288.2839,357.7548 284.5034,357.7589 280.7322,357.7597 276.725,357.7566 272.7177,357.7533 268.697,357.7489 264.6029,357.7148 260.9313,357.573 257.4509,357.1156 254.0395,356.7665 250.9363,356.7564 247.5861,356.7198 243.6933,356.5688 239.439,356.0957 235.4956,355.7114 231.4516,355.5419 227.4915,354.9944 223.6994,354.3211 219.8778,353.7347 215.7804,352.9373 211.3833,352.1003 207.6289,351.7095 204.0964,351.5644 200.6388,351.0846 196.6151,350.5898 192.2971,350.0899 188.7614,349.6598 185.2842,349.344 181.3776,348.7693 177.8996,348.0884 174.2593,347.5926 169.6637,347.0308 165.5623,346.3125 162.3663,345.7037 159.2508,344.9194 155.0613,343.9399 150.8957,343.0241 147.2317,342.1202 142.8992,341.1631 138.9896,340.5713 135.543,340.0139 132.0898,339.0699 128.6709,338.1457 125.4586,337.0309 122.6704,335.7939 119.4882,334.5528 116.2735,333.2551 113.6104,331.9535 110.6066,330.4515 107.6004,328.9644 104.5532,327.6157 100.9779,326.2286 97.5924,325.1388 94.7091,324.0584 91.8355,322.7197 88.4709,321.0265 85.4368,318.9871 82.8522,317.1805 79.6513,315.4041 76.3231,313.5065 73.6105,311.7587 71.1748,309.8531 68.8117,307.7516 66.1435,305.2499 63.6284,302.3991 61.4545,300.0507 59.4258,297.8803 57.5349,295.2573 55.5573,292.6901 53.6322,290.1819 51.5487,287.0354 49.6323,283.7378 47.888,280.5325 46.3689,277.2679 45.1946,273.8851 43.9838,270.2855 42.3672,267.0167 40.3832,263.6247 38.5469,259.8205 37.1227,256.6275 35.9957,253.5942 34.9585,250.522 33.9592,247.7606 33.1229,244.7277 32.1274,241.268 30.9926,237.7994 30.0074,234.1595 29.1638,230.5041 28.6815,227.2965 28.0355,223.8852 27.1318,220.5118 26.2785,217.6308 25.6859,214.753 25.0169,211.2268 24.1363,207.5548 23.3554,204.4816 22.7461,201.1606 22.1532,197.8647 21.3264,194.9777 20.6876,191.9899 20.1304,188.6459 19.3699,185.2889 18.7974,182.1275 18.3035,178.7559 17.837,175.4319 17.3567,172.3676 16.9658,169.4316 16.731,166.4018 16.1744,162.9073 15.4017,159.057 14.7895,155.2518 14.256,151.5789 13.4753,147.9332 12.768,144.1545 12.1592,140.21 11.3996,136.5548 10.9473,133.2637 10.3487,129.5759 9.4265,125.7535 8.933,122.0082 8.4499,118.1748 7.9809,114.3124 7.4772,110.897 6.9257,107.5859 6.4199,103.5599 5.6371,99.4601 5.1054,95.3382 4.5919,91.7545 4.0842,88.7647 3.5651,85.2144 3.0018,81.6435 2.5741,78.1841 2.2898,74.809 2.2285,71.1125 2.0025,66.8998 1.5794,62.7492 1.3279,59.1019 1.3353,55.7077 1.3216,51.839 1.1067,47.9092 0.6673,43.9397 0.4276,40.0345 0.4138,36.5375 0.3161,33.0631 -0.1263,29.3303 -0.5128,25.8147 -0.6312,21.7727 -1.0862,17.021 -1.443,12.467 -1.4401,8.2338 -1.4435,4.282 -1.4516,1.1849 -1.4573,0 A1.4573,1.4573 0 0 1 1.4573,0 Z" stroke-linecap="round" fill="#ffc034"/></g></g><g transform="matrix(1, 0, 0, 1, 2633.9047, 22869.2219) scale(1.0016576656079599, 1.0016576656079599)" opacity="1"><g transform="scale(0.998345077699821)"><path d="M1.4573,0 T1.4516,1.1849 1.4435,4.282 1.4401,8.2338 1.443,12.4589 1.8085,16.8694 2.2764,21.5906 2.4142,25.7436 2.8212,29.0941 3.3214,32.8044 3.4855,36.465 3.5445,40.0127 3.7979,43.6002 4.2458,46.8587 4.5261,49.8675 4.6213,53.3258 4.6596,57.302 4.6719,60.7535 5.0401,64.3833 5.5164,68.403 5.6598,71.787 5.7026,74.7832 6.0714,78.6386 6.7475,82.764 7.316,86.4174 7.9933,90.3643 8.5565,94.0155 9.0885,97.4401 9.6126,100.9178 10.141,104.3622 10.6647,107.7145 11.2599,110.9948 11.8023,114.4515 12.2558,117.8716 12.7542,121.0982 13.2612,124.7919 14.1387,129.1738 14.7464,132.993 15.2562,136.1491 15.9693,139.4941 16.5347,142.9045 17.1873,146.0588 17.7397,149.1563 18.2626,152.4483 18.9764,156.0539 19.5593,160.091 20.2155,163.7754 20.7589,167.3395 21.093,170.8302 21.5652,173.8626 21.8996,176.9324 22.4028,180.1297 23.2766,184.0075 24.0357,187.8155 24.6116,191.2966 25.3534,194.9709 26.3584,199.0712 27.2928,203.2959 28.2052,207.3445 29.199,211.4501 30.2263,215.8663 31.2396,219.9488 32.2464,223.6068 32.913,227.0825 33.4519,230.5416 34.3085,234.0826 35.293,237.5882 36.3099,241.014 37.3085,244.4982 38.2859,247.8545 39.356,251.0279 40.8247,254.7255 42.492,258.2729 44.2489,261.8827 46.3887,265.958 48.1341,269.6056 49.3284,272.9919 50.4051,276.3032 51.7636,279.264 53.5807,282.5683 55.632,285.7182 57.759,288.54 59.5979,291.2334 61.528,293.7066 64.0055,296.4543 66.384,299.1847 68.8847,301.9595 71.8268,304.9667 74.5671,307.2868 77.1371,309.0514 79.8847,310.9503 82.7492,312.4791 85.6868,314.0055 88.5688,316.0353 91.5764,318.0295 94.6834,319.673 98.0076,320.8053 102.1338,322.0602 106.0061,323.4787 109.4475,325.0203 113.2505,326.9641 117.3572,328.8854 121.076,330.433 124.7662,331.9595 128.427,333.4293 131.4788,334.4664 135.1185,335.4018 139.1059,336.0616 142.5475,336.6574 145.8874,337.4714 149.2879,338.0636 152.8998,338.7241 156.533,339.6212 159.975,340.5309 163.5661,341.44 167.427,342.0646 171.0845,342.6719 174.6822,343.1997 178.3694,343.7171 182.3349,344.4778 186.0316,345.033 189.0044,345.2827 192.1464,345.6748 195.4864,346.1625 199.3869,346.6121 203.8429,347.1117 207.7434,347.3479 211.6513,347.7535 215.7438,348.5341 219.0513,349.0904 222.3245,349.678 226.3638,350.4879 230.0895,351.0524 233.5607,351.3036 237.4163,351.3818 240.8642,351.786 244.1887,352.2516 247.6767,352.3603 250.9665,352.3958 254.0483,352.4058 257.2358,352.7211 260.8062,353.1881 264.7089,353.3767 268.7131,353.4182 272.7201,353.4248 276.7253,353.4231 280.7323,353.4202 284.5034,353.4211 288.2839,353.4252 292.4733,353.434 296.6118,353.0235 300.1057,352.5743 302.5453,352.5409 303.4541,352.5395 A2.051,2.051 0 0 1 303.5459,356.6405 T302.6379,356.6797 299.6802,356.843 296.1819,357.3532 292.5156,357.746 288.2839,357.7548 284.5034,357.7589 280.7322,357.7597 276.725,357.7566 272.7177,357.7533 268.697,357.7489 264.6029,357.7148 260.9313,357.573 257.4509,357.1156 254.0395,356.7665 250.9363,356.7564 247.5861,356.7198 243.6933,356.5688 239.439,356.0957 235.4956,355.7114 231.4516,355.5419 227.4915,354.9944 223.6994,354.3211 219.8778,353.7347 215.7804,352.9373 211.3833,352.1003 207.6289,351.7095 204.0964,351.5644 200.6388,351.0846 196.6151,350.5898 192.2971,350.0899 188.7614,349.6598 185.2842,349.344 181.3776,348.7693 177.8996,348.0884 174.2593,347.5926 169.6637,347.0308 165.5623,346.3125 162.3663,345.7037 159.2508,344.9194 155.0613,343.9399 150.8957,343.0241 147.2317,342.1202 142.8992,341.1631 138.9896,340.5713 135.543,340.0139 132.0898,339.0699 128.6709,338.1457 125.4586,337.0309 122.6704,335.7939 119.4882,334.5528 116.2735,333.2551 113.6104,331.9535 110.6066,330.4515 107.6004,328.9644 104.5532,327.6157 100.9779,326.2286 97.5924,325.1388 94.7091,324.0584 91.8355,322.7197 88.4709,321.0265 85.4368,318.9871 82.8522,317.1805 79.6513,315.4041 76.3231,313.5065 73.6105,311.7587 71.1748,309.8531 68.8117,307.7516 66.1435,305.2499 63.6284,302.3991 61.4545,300.0507 59.4258,297.8803 57.5349,295.2573 55.5573,292.6901 53.6322,290.1819 51.5487,287.0354 49.6323,283.7378 47.888,280.5325 46.3689,277.2679 45.1946,273.8851 43.9838,270.2855 42.3672,267.0167 40.3832,263.6247 38.5469,259.8205 37.1227,256.6275 35.9957,253.5942 34.9585,250.522 33.9592,247.7606 33.1229,244.7277 32.1274,241.268 30.9926,237.7994 30.0074,234.1595 29.1638,230.5041 28.6815,227.2965 28.0355,223.8852 27.1318,220.5118 26.2785,217.6308 25.6859,214.753 25.0169,211.2268 24.1363,207.5548 23.3554,204.4816 22.7461,201.1606 22.1532,197.8647 21.3264,194.9777 20.6876,191.9899 20.1304,188.6459 19.3699,185.2889 18.7974,182.1275 18.3035,178.7559 17.837,175.4319 17.3567,172.3676 16.9658,169.4316 16.731,166.4018 16.1744,162.9073 15.4017,159.057 14.7895,155.2518 14.256,151.5789 13.4753,147.9332 12.768,144.1545 12.1592,140.21 11.3996,136.5548 10.9473,133.2637 10.3487,129.5759 9.4265,125.7535 8.933,122.0082 8.4499,118.1748 7.9809,114.3124 7.4772,110.897 6.9257,107.5859 6.4199,103.5599 5.6371,99.4601 5.1054,95.3382 4.5919,91.7545 4.0842,88.7647 3.5651,85.2144 3.0018,81.6435 2.5741,78.1841 2.2898,74.809 2.2285,71.1125 2.0025,66.8998 1.5794,62.7492 1.3279,59.1019 1.3353,55.7077 1.3216,51.839 1.1067,47.9092 0.6673,43.9397 0.4276,40.0345 0.4138,36.5375 0.3161,33.0631 -0.1263,29.3303 -0.5128,25.8147 -0.6312,21.7727 -1.0862,17.021 -1.443,12.467 -1.4401,8.2338 -1.4435,4.282 -1.4516,1.1849 -1.4573,0 A1.4573,1.4573 0 0 1 1.4573,0 Z" stroke-linecap="round" fill="#ffc034"/></g></g><g transform="matrix(1, 0, 0, 1, 2203.2101, 23234.8269) scale(1.0016576656079599, 1.0016576656079599)" opacity="1"><g transform="scale(0.998345077699821)"><path d="M1.8895,0 T1.9283,1.1849 2.0269,4.5185 2.1196,8.3511 2.1511,11.5274 2.1496,13.02 A2.1496,2.1496 0 0 1 -2.1496,13.02 T-2.1511,11.5274 -2.1196,8.3511 -2.0269,4.5185 -1.9283,1.1849 -1.8895,0 A1.8895,1.8895 0 0 1 1.8895,0 ZM-2.1496,13.02 T-2.1393,12.02 -2.129,11.02 A2.129,2.129 0 0 1 2.129,11.02 T2.1393,12.02 2.1496,13.02 A2.1496,2.1496 0 0 1 -2.1496,13.02 Z" stroke-linecap="round" fill="#f2f2f2"/></g></g><g transform="matrix(1, 0, 0, 1, 2693.0025, 23234.8269) scale(1.0016576656079599, 1.0016576656079599)" opacity="1"><g transform="scale(0.998345077699821)"><path d="M1.8895,0 T1.9283,1.1849 2.0269,4.5185 2.1196,8.3511 2.1511,11.5274 2.1496,13.02 A2.1496,2.1496 0 0 1 -2.1496,13.02 T-2.1511,11.5274 -2.1196,8.3511 -2.0269,4.5185 -1.9283,1.1849 -1.8895,0 A1.8895,1.8895 0 0 1 1.8895,0 ZM-2.1496,13.02 T-2.1393,12.02 -2.129,11.02 A2.129,2.129 0 0 1 2.129,11.02 T2.1393,12.02 2.1496,13.02 A2.1496,2.1496 0 0 1 -2.1496,13.02 Z" stroke-linecap="round" fill="#f2f2f2"/></g></g><g transform="matrix(1, 0, 0, 1, 2203.2101, 23268.8833) scale(1.0016576656079599, 1.0016576656079599)" opacity="1"><g transform="scale(0.998345077699821)"><path d="M2.2419,0 T2.2542,1.6579 2.2788,4.9013 2.2896,8.0319 2.2864,11.2985 2.2849,13.02 A2.2849,2.2849 0 0 1 -2.2849,13.02 T-2.2864,11.2985 -2.2896,8.0319 -2.2788,4.9013 -2.2542,1.6579 -2.2419,0 A2.2419,2.2419 0 0 1 2.2419,0 Z" stroke-linecap="round" fill="#f2f2f2"/></g></g><g transform="matrix(1, 0, 0, 1, 2693.0025, 23268.8833) scale(1.0016576656079599, 1.0016576656079599)" opacity="1"><g transform="scale(0.998345077699821)"><path d="M2.2419,0 T2.2542,1.6579 2.2788,4.9013 2.2896,8.0319 2.2864,11.2985 2.2849,13.02 A2.2849,2.2849 0 0 1 -2.2849,13.02 T-2.2864,11.2985 -2.2896,8.0319 -2.2788,4.9013 -2.2542,1.6579 -2.2419,0 A2.2419,2.2419 0 0 1 2.2419,0 Z" stroke-linecap="round" fill="#f2f2f2"/></g></g><g transform="matrix(1, 0, 0, 1, 2200.2051, 23266.88) scale(1.0016576656079599, 1.0016576656079599)" opacity="1"><g transform="scale(0.998345077699821)"><path d="M1.666,1.2464 T0.9817,2.2137 -0.9037,4.6426 -3.7662,7.8145 -5.4276,9.5247 A2.1905,2.1905 0 0 1 -8.5924,6.4953 T-7.0072,4.8139 -4.2787,1.8725 -2.4007,-0.3169 -1.666,-1.2464 A2.0807,2.0807 0 0 1 1.666,1.2464 Z" stroke-linecap="round" fill="#f2f2f2"/></g></g><g transform="matrix(1, 0, 0, 1, 2689.9976, 23266.88) scale(1.0016576656079599, 1.0016576656079599)" opacity="1"><g transform="scale(0.998345077699821)"><path d="M1.666,1.2464 T0.9817,2.2137 -0.9037,4.6426 -3.7662,7.8145 -5.4276,9.5247 A2.1905,2.1905 0 0 1 -8.5924,6.4953 T-7.0072,4.8139 -4.2787,1.8725 -2.4007,-0.3169 -1.666,-1.2464 A2.0807,2.0807 0 0 1 1.666,1.2464 Z" stroke-linecap="round" fill="#f2f2f2"/></g></g><g transform="matrix(1, 0, 0, 1, 2195.1969, 23021.4738) scale(1.0016576656079599, 1.0016576656079599)" opacity="1"><g transform="scale(0.998345077699821)"><path d="M1.7297,0 T1.7527,1.6579 1.989,4.9941 3.9161,5.9316 5.9464,3.0082 6.263,0.8257 A1.7556,1.7556 0 0 1 9.757,1.1743 T9.6212,2.5681 8.5952,6.1351 6.0721,9.6766 2.6805,10.8379 -0.1673,9.1584 -1.516,5.5009 -1.7527,1.6579 -1.7297,0 A1.7297,1.7297 0 0 1 1.7297,0 ZM9.7639,1.0771 T9.703,1.6811 9.7038,4.346 10.719,8.3721 12.8243,12.4653 15.0357,16.4876 16.7798,20.4149 17.3742,24.368 15.9477,27.8209 12.7126,30.2535 8.5948,31.5745 3.9443,31.4244 -0.2969,29.4189 -2.7891,27.19 -3.4712,26.3954 A2.0004,2.0004 0 0 1 -0.5288,23.6846 T0.6096,24.8916 3.169,26.6968 6.1092,27.3845 9.7218,26.912 12.7247,24.8234 13.0681,21.4876 11.6862,18.1668 10.0807,15.4054 8.4591,12.2469 6.9351,8.3959 6.2361,4.7759 6.2426,2.0106 6.2561,0.9229 A1.7556,1.7556 0 0 1 9.7639,1.0771 Z" stroke-linecap="round" fill="#ffc034"/></g></g><g transform="matrix(1, 0, 0, 1, 2684.9893, 23021.4738) scale(1.0016576656079599, 1.0016576656079599)" opacity="1"><g transform="scale(0.998345077699821)"><path d="M1.7297,0 T1.7527,1.6579 1.989,4.9941 3.9161,5.9316 5.9464,3.0082 6.263,0.8257 A1.7556,1.7556 0 0 1 9.757,1.1743 T9.6212,2.5681 8.5952,6.1351 6.0721,9.6766 2.6805,10.8379 -0.1673,9.1584 -1.516,5.5009 -1.7527,1.6579 -1.7297,0 A1.7297,1.7297 0 0 1 1.7297,0 ZM9.7639,1.0771 T9.703,1.6811 9.7038,4.346 10.719,8.3721 12.8243,12.4653 15.0357,16.4876 16.7798,20.4149 17.3742,24.368 15.9477,27.8209 12.7126,30.2535 8.5948,31.5745 3.9443,31.4244 -0.2969,29.4189 -2.7891,27.19 -3.4712,26.3954 A2.0004,2.0004 0 0 1 -0.5288,23.6846 T0.6096,24.8916 3.169,26.6968 6.1092,27.3845 9.7218,26.912 12.7247,24.8234 13.0681,21.4876 11.6862,18.1668 10.0807,15.4054 8.4591,12.2469 6.9351,8.3959 6.2361,4.7759 6.2426,2.0106 6.2561,0.9229 A1.7556,1.7556 0 0 1 9.7639,1.0771 Z" stroke-linecap="round" fill="#ffc034"/></g></g><g transform="matrix(1, 0, 0, 1, 2217.2333, 23019.4705) scale(1.0016576656079599, 1.0016576656079599)" opacity="1"><g transform="scale(0.998345077699821)"><path d="M-0.2367,-1.4225 T1.1889,-1.6338 4.2019,-2.0853 5.7894,-2.3255 A1.3437,1.3437 0 0 1 6.2306,0.3255 T4.6508,0.6123 1.6539,1.1608 0.2367,1.4225 A1.442,1.442 0 0 1 -0.2367,-1.4225 Z" stroke-linecap="round" fill="#ffc034"/></g></g><g transform="matrix(1, 0, 0, 1, 2707.0257, 23019.4705) scale(1.0016576656079599, 1.0016576656079599)" opacity="1"><g transform="scale(0.998345077699821)"><path d="M-0.2367,-1.4225 T1.1889,-1.6338 4.2019,-2.0853 5.7894,-2.3255 A1.3437,1.3437 0 0 1 6.2306,0.3255 T4.6508,0.6123 1.6539,1.1608 0.2367,1.4225 A1.442,1.442 0 0 1 -0.2367,-1.4225 Z" stroke-linecap="round" fill="#ffc034"/></g></g><g transform="matrix(1, 0, 0, 1, 2219.2366, 23022.4755) scale(1.0016576656079599, 1.0016576656079599)" opacity="1"><g transform="scale(0.998345077699821)"><path d="M0.3583,-1.4367 T1.3143,-1.2334 4.5927,-1.1913 7.8835,-1.4383 8.8519,-1.5242 A1.5324,1.5324 0 0 1 9.1681,1.5242 T7.4305,1.7278 3.608,1.9538 0.5824,1.7064 -0.3583,1.4367 A1.4807,1.4807 0 0 1 0.3583,-1.4367 Z" stroke-linecap="round" fill="#ffc034"/></g></g><g transform="matrix(1, 0, 0, 1, 2709.0291, 23022.4755) scale(1.0016576656079599, 1.0016576656079599)" opacity="1"><g transform="scale(0.998345077699821)"><path d="M0.3583,-1.4367 T1.3143,-1.2334 4.5927,-1.1913 7.8835,-1.4383 8.8519,-1.5242 A1.5324,1.5324 0 0 1 9.1681,1.5242 T7.4305,1.7278 3.608,1.9538 0.5824,1.7064 -0.3583,1.4367 A1.4807,1.4807 0 0 1 0.3583,-1.4367 Z" stroke-linecap="round" fill="#ffc034"/></g></g><g transform="matrix(1, 0, 0, 1, 2243.2764, 22994.4291) scale(1.0016576656079599, 1.0016576656079599)" opacity="1"><g transform="scale(0.998345077699821)"><path d="M1.8753,0.6257 T2.122,1.8088 2.7755,4.7521 3.4984,8.6091 4.4213,12.3115 5.4451,15.1481 5.8621,16.3789 A1.9632,1.9632 0 0 1 2.1579,17.6811 T1.7129,16.4601 0.5397,13.1701 -0.3588,9.4887 -0.9759,5.8119 -1.649,2.5609 -1.8753,1.3743 A1.9123,1.9123 0 0 1 1.8753,0.6257 Z" stroke-linecap="round" fill="#ffc034"/></g></g><g transform="matrix(1, 0, 0, 1, 2733.0688, 22994.4291) scale(1.0016576656079599, 1.0016576656079599)" opacity="1"><g transform="scale(0.998345077699821)"><path d="M1.8753,0.6257 T2.122,1.8088 2.7755,4.7521 3.4984,8.6091 4.4213,12.3115 5.4451,15.1481 5.8621,16.3789 A1.9632,1.9632 0 0 1 2.1579,17.6811 T1.7129,16.4601 0.5397,13.1701 -0.3588,9.4887 -0.9759,5.8119 -1.649,2.5609 -1.8753,1.3743 A1.9123,1.9123 0 0 1 1.8753,0.6257 Z" stroke-linecap="round" fill="#ffc034"/></g></g><g transform="matrix(1, 0, 0, 1, 2256.298, 23017.4672) scale(1.0016576656079599, 1.0016576656079599)" opacity="1"><g transform="scale(0.998345077699821)"><path d="M1.3807,1.3807 T0.6767,2.0986 -1.8231,3.9714 -5.5614,5.8527 -9.6557,7.0116 -14.2787,7.7278 -16.7499,8.0113 A2.0208,2.0208 0 0 1 -17.3101,4.0087 T-15.0688,3.6326 -10.6437,2.8712 -6.9062,1.9701 -4.0816,0.738 -2.0957,-0.6796 -1.3807,-1.3807 A1.9527,1.9527 0 0 1 1.3807,1.3807 Z" stroke-linecap="round" fill="#ffc034"/></g></g><g transform="matrix(1, 0, 0, 1, 2746.0904, 23017.4672) scale(1.0016576656079599, 1.0016576656079599)" opacity="1"><g transform="scale(0.998345077699821)"><path d="M1.3807,1.3807 T0.6767,2.0986 -1.8231,3.9714 -5.5614,5.8527 -9.6557,7.0116 -14.2787,7.7278 -16.7499,8.0113 A2.0208,2.0208 0 0 1 -17.3101,4.0087 T-15.0688,3.6326 -10.6437,2.8712 -6.9062,1.9701 -4.0816,0.738 -2.0957,-0.6796 -1.3807,-1.3807 A1.9527,1.9527 0 0 1 1.3807,1.3807 Z" stroke-linecap="round" fill="#ffc034"/></g></g><g transform="matrix(1, 0, 0, 1, 2250.288, 23033.4937) scale(1.0016576656079599, 1.0016576656079599)" opacity="1"><g transform="scale(0.998345077699821)"><path d="M2.1603,0.4312 T1.9244,1.6159 1.5362,5.0297 1.3539,9.317 2.5269,12.4614 4.7162,12.9644 5.7026,12.3812 A2.0964,2.0964 0 0 1 8.3174,15.6588 T6.601,16.8382 2.995,17.8702 -0.3519,16.6547 -2.5259,13.4685 -3.1668,9.1908 -2.8628,4.485 -2.3974,0.7539 -2.1603,-0.4312 A2.2029,2.2029 0 0 1 2.1603,0.4312 Z" stroke-linecap="round" fill="#ffc034"/></g></g><g transform="matrix(1, 0, 0, 1, 2740.0804, 23033.4937) scale(1.0016576656079599, 1.0016576656079599)" opacity="1"><g transform="scale(0.998345077699821)"><path d="M2.1603,0.4312 T1.9244,1.6159 1.5362,5.0297 1.3539,9.317 2.5269,12.4614 4.7162,12.9644 5.7026,12.3812 A2.0964,2.0964 0 0 1 8.3174,15.6588 T6.601,16.8382 2.995,17.8702 -0.3519,16.6547 -2.5259,13.4685 -3.1668,9.1908 -2.8628,4.485 -2.3974,0.7539 -2.1603,-0.4312 A2.2029,2.2029 0 0 1 2.1603,0.4312 Z" stroke-linecap="round" fill="#ffc034"/></g></g><g transform="matrix(1, 0, 0, 1, 2253.293, 23042.5086) scale(1.0016576656079599, 1.0016576656079599)" opacity="1"><g transform="scale(0.998345077699821)"><path d="M0.3819,1.9134 T-0.7984,2.1682 -4.1968,3.1157 -6.4149,3.8084 A1.9038,1.9038 0 0 1 -7.6051,0.1916 T-5.1829,-0.6427 -1.5713,-1.6952 -0.3819,-1.9134 A1.9511,1.9511 0 0 1 0.3819,1.9134 Z" stroke-linecap="round" fill="#ffc034"/></g></g><g transform="matrix(1, 0, 0, 1, 2743.0854, 23042.5086) scale(1.0016576656079599, 1.0016576656079599)" opacity="1"><g transform="scale(0.998345077699821)"><path d="M0.3819,1.9134 T-0.7984,2.1682 -4.1968,3.1157 -6.4149,3.8084 A1.9038,1.9038 0 0 1 -7.6051,0.1916 T-5.1829,-0.6427 -1.5713,-1.6952 -0.3819,-1.9134 A1.9511,1.9511 0 0 1 0.3819,1.9134 Z" stroke-linecap="round" fill="#ffc034"/></g></g><g transform="matrix(1, 0, 0, 1, 2145.114, 23235.8286) scale(1.0016576656079599, 1.0016576656079599)" opacity="1"><g transform="scale(0.998345077699821)"><path d="M1.6386,-0.2338 T1.9152,1.4185 2.3659,5.9225 2.5716,10.3601 2.6032,11.9459 A1.6049,1.6049 0 0 1 -0.6032,12.0941 T-0.718,10.5121 -1.0392,6.2455 -1.4422,1.8973 -1.6386,0.2338 A1.6552,1.6552 0 0 1 1.6386,-0.2338 Z" stroke-linecap="round" fill="#4dabf7"/></g></g><g transform="matrix(1, 0, 0, 1, 2148.1189, 23265.8783) scale(1.0016576656079599, 1.0016576656079599)" opacity="1"><g transform="scale(0.998345077699821)"><path d="M2.3101,1.0921 T1.1608,2.5428 -1.4313,6.2522 -4.0609,10.4182 -7.0599,13.8434 -8.8719,15.3612 A1.7654,1.7654 0 0 1 -11.1681,12.6788 T-10.3316,11.9269 -8.4062,9.9483 -5.9606,6.4717 -3.6775,2.9568 -1.5305,0.2999 -0.3101,-1.0921 A1.7056,1.7056 0 0 1 2.3101,1.0921 Z" stroke-linecap="round" fill="#4dabf7"/></g></g><g transform="matrix(1, 0, 0, 1, 2139.104, 23269.8849) scale(1.0016576656079599, 1.0016576656079599)" opacity="1"><g transform="scale(0.998345077699821)"><path d="M1.5521,-0.9294 T2.2858,0.2407 4.1436,2.8327 6.3504,5.7818 8.4736,8.7658 10.0592,11.1099 10.6044,11.9971 A1.8943,1.8943 0 0 1 7.4156,14.0429 T6.8364,13.1776 5.2711,11.0068 3.272,8.1953 1.0388,5.009 -0.8668,2.129 -1.5521,0.9294 A1.8091,1.8091 0 0 1 1.5521,-0.9294 Z" stroke-linecap="round" fill="#4dabf7"/></g></g><g transform="matrix(1, 0, 0, 1, 2146.1156, 23243.8418) scale(1.0016576656079599, 1.0016576656079599)" opacity="1"><g transform="scale(0.998345077699821)"><path d="M-1.5942,0 T-1.5841,-1.4214 -1.5626,-4.5671 -1.9748,-7.9615 -2.4601,-11.338 -2.542,-14.5954 -2.576,-18.2136 -2.6005,-21.8749 -2.6248,-25.4028 -2.6507,-28.7896 -2.6764,-31.7317 -2.7084,-35.2669 -2.7438,-39.3237 -2.772,-42.7979 -2.5237,-46.5602 -2.086,-50.6473 -1.8876,-54.2285 -1.5937,-57.8524 -1.1306,-61.5559 -0.9186,-65.2295 -0.8949,-69.105 -0.8964,-72.717 -0.906,-75.8905 -0.918,-79.3181 -0.5652,-83.0195 -0.1033,-87.1438 0.004,-91.3286 0.0039,-94.8054 -0.0072,-97.9416 -0.0205,-101.1076 -0.0332,-104.6302 -0.0474,-108.7401 -0.0633,-113.2624 0.1721,-118.2005 0.5855,-122.6195 0.8003,-126.3122 0.8565,-129.8419 0.8664,-133.12 0.8614,-136.4357 0.8545,-139.7633 0.8454,-143.5827 0.8329,-147.5374 0.8186,-150.8061 0.802,-153.8844 0.7821,-157.4586 0.7632,-161.3439 0.7504,-165.3657 0.7373,-169.7401 0.7171,-174.2112 0.6972,-178.4703 0.4689,-182.4233 0.021,-186.7617 -0.2747,-191.4727 -0.368,-195.5647 -0.7636,-199.9571 -1.2489,-204.672 -1.3994,-208.5081 -1.4515,-212.1046 -1.4759,-215.4007 -1.4918,-218.8995 -1.507,-223.1642 -1.5209,-227.1901 -1.5331,-231.0413 -1.5433,-235.1306 -1.5504,-238.7979 -1.5576,-242.2233 -1.5645,-245.4697 -1.5683,-248.9029 -1.5701,-252.388 -1.5739,-255.4157 -1.5808,-258.427 -1.5905,-261.9591 -1.602,-265.9961 -1.6141,-270.0065 -1.6245,-273.4921 -1.622,-276.9942 -1.5818,-281.0209 -1.5009,-284.749 -1.4538,-286.47 A2.4538,2.4538 0 0 1 3.4538,-286.47 T3.5009,-284.749 3.5818,-281.0209 3.622,-276.9942 3.6245,-273.4921 3.6141,-270.0065 3.602,-265.9961 3.5905,-261.9591 3.5808,-258.427 3.5739,-255.4157 3.5701,-252.388 3.5683,-248.9029 3.5645,-245.4697 3.5576,-242.2233 3.5504,-238.7979 3.5433,-235.1306 3.5331,-231.0413 3.5209,-227.1902 3.5072,-223.1646 3.4938,-218.9027 3.4835,-215.4095 3.479,-212.1367 3.4986,-208.6085 3.6059,-205.0214 4.0536,-201.2094 4.4147,-197.3946 4.4322,-193.6349 4.5312,-189.7123 4.9674,-185.2217 5.3129,-180.7629 5.2935,-176.3794 5.2719,-171.8922 5.2564,-167.456 5.2442,-163.2033 5.2259,-159.0225 5.2054,-155.2445 5.1878,-152.2009 5.1725,-149.0569 5.159,-145.5513 5.1485,-141.6412 5.1396,-137.9913 5.1282,-134.8161 5.1091,-131.6482 5.064,-128.0542 4.9206,-124.2575 4.4455,-120.1141 4.0727,-115.5923 4.0551,-111.079 4.039,-106.5456 4.0264,-102.7943 4.0128,-99.7029 3.993,-96.3857 3.9661,-93.1141 3.912,-89.5779 3.762,-86.0273 3.2873,-82.7694 2.9175,-79.2878 2.9038,-75.8882 2.8887,-72.7095 2.8672,-69.0798 2.8189,-65.1278 2.6662,-61.7472 2.1859,-58.1072 1.789,-54.1284 1.4819,-50.0422 0.9967,-46.0365 0.772,-42.7979 0.7438,-39.3237 0.7084,-35.2669 0.6764,-31.7317 0.6508,-28.7896 0.6253,-25.4033 0.6026,-21.8768 0.5889,-18.2246 0.5939,-14.6376 0.6471,-11.5587 1.1212,-8.1837 1.5626,-4.6013 1.5841,-1.4214 1.5942,0 A1.5942,1.5942 0 0 1 -1.5942,0 Z" stroke-linecap="round" fill="#4dabf7"/></g></g><g transform="matrix(1, 0, 0, 1, 2204.2118, 23239.8352) scale(1.0016576656079599, 1.0016576656079599)" opacity="1"><g transform="scale(0.998345077699821)"><path d="M-1.5685,0 T-1.5526,-1.1849 -1.5227,-4.1574 -1.5069,-7.6531 -1.5105,-11.1556 -1.5215,-14.6598 -1.5369,-18.167 -1.5567,-21.548 -1.5793,-25.0185 -1.3525,-29.2664 -0.9462,-33.9367 -0.7379,-38.3375 -0.6933,-42.2205 -0.6958,-45.5929 -0.7082,-48.8236 -0.7223,-52.0158 -0.7384,-55.0727 -0.763,-58.6183 -0.8016,-62.6579 -0.8386,-66.1463 -0.8623,-69.6496 -0.8398,-73.3963 -0.8077,-75.12 A1.8077,1.8077 0 0 1 2.8077,-75.12 T2.8398,-73.3963 2.8623,-69.6496 2.8386,-66.1463 2.8016,-62.6579 2.7629,-58.6182 2.7381,-55.0724 2.7212,-52.0146 2.7042,-48.8199 2.6813,-45.581 2.6413,-42.1861 2.5509,-38.2298 2.2728,-33.5493 1.8255,-28.9615 1.5793,-25.0185 1.5567,-21.548 1.5369,-18.167 1.5215,-14.6598 1.5105,-11.1556 1.5069,-7.6531 1.5227,-4.1574 1.5526,-1.1849 1.5685,0 A1.5685,1.5685 0 0 1 -1.5685,0 Z" stroke-linecap="round" fill="#4dabf7"/></g></g><g transform="matrix(1, 0, 0, 1, 2809.7138, 23242.8402) scale(1.0016576656079599, 1.0016576656079599)" opacity="1"><g transform="scale(0.998345077699821)"><path d="M1.459,0.2428 T1.1942,1.6594 0.6398,4.6554 0.3501,6.2346 A1.3686,1.3686 0 0 1 -2.3501,5.7854 T-2.1128,4.1974 -1.6672,1.1833 -1.459,-0.2428 A1.479,1.479 0 0 1 1.459,0.2428 Z" stroke-linecap="round" fill="#4dabf7"/></g></g><g transform="matrix(1, 0, 0, 1, 2808.7122, 23243.8418) scale(1.0016576656079599, 1.0016576656079599)" opacity="1"><g transform="scale(0.998345077699821)"><path d="M-1.8379,-1 T-1.8355,-1.5 -1.8332,-2 A1.8332,1.8332 0 0 1 1.8332,-2 T1.8355,-1.5 1.8379,-1 A1.8379,1.8379 0 0 1 -1.8379,-1 ZM1.8332,-2 T1.8312,-1.3881 1.8257,0.943 1.8207,3.8361 1.8192,5.01 A1.8192,1.8192 0 0 1 -1.8192,5.01 T-1.8207,3.8361 -1.8257,0.943 -1.8312,-1.3881 -1.8332,-2 A1.8332,1.8332 0 0 1 1.8332,-2 ZM-1.8192,5.01 T-1.8168,4.1604 -1.8112,1.5175 -1.8105,-1.7349 -1.815,-4.6021 -1.817,-6.01 A1.817,1.817 0 0 1 1.817,-6.01 T1.815,-4.6021 1.8105,-1.7349 1.8112,1.5175 1.8168,4.1604 1.8192,5.01 A1.8192,1.8192 0 0 1 -1.8192,5.01 ZM1.817,-6.01 T1.8185,-5.146 1.8188,-3.141 1.8175,-2 A1.8175,1.8175 0 0 1 -1.8175,-2 T-1.8188,-3.141 -1.8185,-5.146 -1.817,-6.01 A1.817,1.817 0 0 1 1.817,-6.01 Z" stroke-linecap="round" fill="#4dabf7"/></g></g><g transform="matrix(1, 0, 0, 1, 2812.7188, 23269.8849) scale(1.0016576656079599, 1.0016576656079599)" opacity="1"><g transform="scale(0.998345077699821)"><path d="M1.3504,1.3504 T0.4242,2.3008 -1.3682,4.8501 -3.2437,8.049 -5.7187,11.0089 -8.0167,12.9747 -8.8488,13.5806 A1.9511,1.9511 0 0 1 -11.1912,10.4594 T-9.365,8.8739 -6.5483,5.7603 -4.4246,2.3873 -2.321,-0.404 -1.3504,-1.3504 A1.9098,1.9098 0 0 1 1.3504,1.3504 Z" stroke-linecap="round" fill="#4dabf7"/></g></g><g transform="matrix(1, 0, 0, 1, 2803.7039, 23270.8866) scale(1.0016576656079599, 1.0016576656079599)" opacity="1"><g transform="scale(0.998345077699821)"><path d="M0.7904,-1.5847 T1.7535,-1.1108 4.2022,1.0137 6.5815,4.0665 8.5546,6.8215 10.4388,8.93 11.2437,9.6856 A1.8105,1.8105 0 0 1 8.7963,12.3544 T7.0692,10.7532 4.3783,7.6368 2.2457,4.3253 0.1432,2.0568 -0.7904,1.5847 A1.7709,1.7709 0 0 1 0.7904,-1.5847 Z" stroke-linecap="round" fill="#4dabf7"/></g></g><g transform="matrix(1, 0, 0, 1, 2694.5232, 23169.7192) scale(1.0016576656079599, 1.0016576656079599)" opacity="1"><g transform="scale(0.998345077699821)"><path d="M1.9569,0 T1.9509,1.6579 1.9409,5.7229 1.9398,10.3689 1.9447,14.6779 1.951,18.4085 1.959,21.9348 1.9702,26.0209 1.7083,30.0018 1.2917,33.4193 1.093,37.1882 0.612,41.4192 0.156,44.9913 0.1046,48.4059 0.0796,51.8235 0.0855,55.3157 0.092,59.0868 -0.2648,62.4776 -0.7297,65.6863 -0.8885,68.2153 -0.9399,69.1914 A2.0617,2.0617 0 0 1 -5.0601,69.0286 T-5.0344,68.0516 -4.9154,65.3432 -4.4573,62.1506 -4.0914,59.0199 -4.0819,55.3115 -4.0651,51.8063 -4.0157,48.3002 -3.8495,44.7597 -3.3616,41.2556 -2.9634,37.7864 -2.8139,34.5421 -2.3387,30.5024 -1.9702,26.0209 -1.959,21.9348 -1.951,18.4085 -1.9447,14.6779 -1.9398,10.3689 -1.9409,5.7229 -1.9509,1.6579 -1.9569,0 A1.9569,1.9569 0 0 1 1.9569,0 Z" stroke-linecap="round" fill="#4dabf7"/></g></g><g transform="matrix(1, 0, 0, 1, 2808.7122, 23219.802) scale(1.0016576656079599, 1.0016576656079599)" opacity="1"><g transform="scale(0.998345077699821)"><path d="M1.9601,0.3261 T1.7455,1.751 1.3865,5.4122 1.2207,9.7022 1.2066,13.7727 1.2174,16.7923 1.2208,17.7953 A2.2149,2.2149 0 0 1 -3.2089,17.7835 T-3.2001,16.7754 -3.1546,13.7235 -3.0336,9.5412 -2.7131,4.9561 -2.2185,1.0917 -1.9601,-0.3261 A1.9871,1.9871 0 0 1 1.9601,0.3261 ZM-0.473,15.6367 T0.0196,15.7753 0.5122,15.9138 A2.1773,2.1773 0 0 1 -0.5122,20.1462 T-1.0137,20.0441 -1.5151,19.9421 A2.2149,2.2149 0 0 1 -0.473,15.6367 Z" stroke-linecap="round" fill="#4dabf7"/></g></g><g transform="matrix(1, 0, 0, 1, 2701.5348, 23183.7424) scale(1.0016576656079599, 1.0016576656079599)" opacity="0.5"><g transform="scale(0.998345077699821)"><path d="M1.6741,0.835 T1.2025,1.7841 0.2012,3.6661 -0.3285,4.5989 A1.8732,1.8732 0 0 1 -3.5846,2.7458 T-3.1037,1.903 -2.1485,0.1126 -1.6741,-0.835 A1.8708,1.8708 0 0 1 1.6741,0.835 ZM-2.5653,1.9008 T-2.108,1.7499 -0.3728,0.8948 1.6043,-0.078 2.3034,-0.3465 A1.8278,1.8278 0 0 1 3.4906,3.1109 T3.1907,3.1854 1.2397,4.1847 -0.8796,5.2767 -1.3478,5.4439 A1.8732,1.8732 0 0 1 -2.5653,1.9008 ZM3.784,-0.2159 T4.047,-0.0693 4.31,0.0772 A1.8268,1.8268 0 0 1 2.5369,3.2716 T2.2734,3.1259 2.0099,2.9803 A1.8278,1.8278 0 0 1 3.784,-0.2159 ZM5.1147,2.3647 T4.7155,3.3536 3.4564,5.772 1.5578,8.6579 0.5189,10.1145 A1.878,1.878 0 0 1 -2.5189,7.9055 T-1.574,6.6339 0.1719,4.0925 1.3525,1.9034 1.7321,0.9841 A1.8268,1.8268 0 0 1 5.1147,2.3647 ZM-2.2801,7.6358 T-1.7618,7.1648 0.1623,5.3449 3.1068,3.1417 4.6455,2.2874 A1.8257,1.8257 0 0 1 6.2078,5.5877 T5.2416,6.0312 2.8585,7.8767 0.8609,9.8315 0.2801,10.3842 A1.878,1.878 0 0 1 -2.2801,7.6358 ZM7.0917,4.6865 T6.6981,5.565 5.4745,8.1475 3.7097,11.7786 2.0652,15.032 0.9041,17.0906 0.4527,17.8231 A1.9384,1.9384 0 0 1 -2.7903,15.6989 T-2.4956,15.2923 -1.4093,13.4478 0.3548,10.109 2.1642,6.5405 3.3812,4.0307 3.7616,3.1887 A1.8257,1.8257 0 0 1 7.0917,4.6865 ZM0.4732,15.7308 T0.5138,15.794 0.5544,15.8572 A1.94,1.94 0 0 1 -2.7323,17.9192 T-2.7715,17.8552 -2.8108,17.7911 A1.9384,1.9384 0 0 1 0.4732,15.7308 ZM-2.3635,15.4257 T-1.7617,14.8961 -0.0504,12.7315 2.2237,9.6381 4.8442,6.901 6.3001,5.6221 A1.8595,1.8595 0 0 1 8.529,8.5993 T7.4096,9.6108 5.3074,11.8842 2.9129,15.1803 0.8433,17.7827 0.1856,18.3508 A1.94,1.94 0 0 1 -2.3635,15.4257 ZM9.2141,7.5791 T9.0841,8.0479 8.3947,9.8848 6.7842,13.2522 5.0417,16.5746 3.3029,20.0989 1.5973,23.9802 0.939,25.6603 A2.0358,2.0358 0 0 1 -2.939,24.4197 T-2.7398,23.816 -1.8875,21.7849 -0.1486,18.2094 2.1754,13.9485 4.3521,9.8927 5.4528,7.296 5.615,6.6423 A1.8595,1.8595 0 0 1 9.2141,7.5791 ZM-2.5554,23.7265 T-1.9028,22.986 -0.1731,20.892 2.2474,17.7192 4.6235,14.8267 7.3427,12.3706 9.0293,10.9877 A1.8534,1.8534 0 0 1 10.7884,14.2504 T10.503,14.3647 8.5459,16.208 5.3903,20.0563 2.614,23.7786 0.9385,25.8675 0.5554,26.3535 A2.0358,2.0358 0 0 1 -2.5554,23.7265 ZM11.7143,13.0379 T11.4972,13.9502 10.6208,16.1423 9.0099,19.4083 7.2356,22.7504 5.2174,26.323 3.071,30.6813 1.7374,33.9892 1.3545,35.1556 A2.0328,2.0328 0 0 1 -2.5674,34.084 T-1.9269,32.4024 -0.3473,28.7158 1.897,24.4166 4.5886,19.8309 6.8589,15.6707 7.9231,13.0012 8.1035,12.2002 A1.8534,1.8534 0 0 1 11.7143,13.0379 ZM0.5876,32.9747 T0.732,33.0775 0.8764,33.1803 A2.036,2.036 0 0 1 -1.5156,36.4757 T-1.6581,36.3703 -1.8006,36.2649 A2.0328,2.0328 0 0 1 0.5876,32.9747 ZM-2.0546,33.7627 T-1.5081,32.8667 0.7298,29.7595 3.409,26.3877 6.0025,23.1568 9.0237,19.388 11.6926,16.2923 14.5122,12.8689 16.2843,10.4761 16.4902,10.1098 A1.7887,1.7887 0 0 1 19.5698,11.9302 T18.5525,13.3451 16.6223,16.0371 14.5378,18.6858 11.1885,22.788 7.3531,27.7198 4.106,32.0162 1.9661,35.0024 1.4154,35.8933 A2.036,2.036 0 0 1 -2.0546,33.7627 ZM19.6171,11.8448 T19.3228,12.4116 18.4396,14.5703 17.0799,17.5748 15.4404,20.4388 13.6841,23.5558 11.0204,28.3822 8.2275,33.5528 6.1831,37.383 4.1366,41.5429 3.1498,44.1268 3.1821,44.3713 A2.2028,2.2028 0 0 1 -1.1821,43.7687 T-0.5062,41.9598 0.7957,38.5989 2.4485,35.3269 4.5612,31.5997 7.513,26.4651 10.356,21.619 12.1988,18.5294 13.7897,15.9168 15.146,13.0752 16.11,10.8352 16.4429,10.1952 A1.7887,1.7887 0 0 1 19.6171,11.8448 ZM-1.0403,43.2396 T-0.6786,42.41 0.7995,39.8197 2.9425,36.386 5.0044,33.1089 8.2522,28.6284 11.4477,24.5813 13.6508,21.8905 16.0306,19.0549 18.6342,16.629 20.0779,15.5187 A1.7862,1.7862 0 0 1 21.9821,18.5413 T20.9509,19.3165 18.8583,21.3662 16.597,24.2398 14.4809,26.9885 11.5514,30.9199 8.5712,35.2872 6.635,38.5585 4.5096,42.1289 3.1968,44.4569 3.0403,44.9004 A2.2028,2.2028 0 0 1 -1.0403,43.2396 ZM22.5769,17.9229 T22.0395,18.8415 20.793,21.0341 18.4633,24.9987 15.8552,29.217 13.8817,32.2652 12.2343,35.3934 10.3907,39.4874 8.4941,43.1064 7.7796,44.2389 A2.1208,2.1208 0 0 1 4.2404,41.9011 T4.8059,41.0957 6.6205,37.8293 8.7442,33.4883 10.6497,30.1109 12.7164,27.1153 14.7482,24.1805 16.9755,20.5584 18.8449,17.2551 19.4831,16.1371 A1.7862,1.7862 0 0 1 22.5769,17.9229 ZM4.0992,42.1497 T4.377,41.5685 5.5083,39.543 7.5934,36.5391 9.8541,33.3713 12.2476,30.0764 14.5504,27.2917 16.9356,24.4703 19.4011,21.5816 21.698,19.0812 24.3484,16.2945 25.7206,14.8424 A1.7751,1.7751 0 0 1 28.3594,17.2176 T26.989,18.7119 24.4354,21.5159 22.2925,23.9853 19.0412,28.0113 15.5564,32.4166 13.2414,35.7661 11.0643,38.9145 9.2162,41.6043 8.172,43.4732 7.9208,43.9903 A2.1208,2.1208 0 0 1 4.0992,42.1497 ZM28.5648,16.9388 T28.2704,17.3939 27.0134,19.8976 24.457,24.6181 21.8645,28.9046 19.9135,32.2789 18.2191,35.448 16.6319,38.5452 15.1618,41.9763 14.2652,44.9641 13.9935,46.2089 A2.1258,2.1258 0 0 1 9.8572,45.2252 T10.237,43.7308 11.389,40.2979 13.0699,36.6602 14.7694,33.5423 16.6189,30.3121 18.691,26.9378 21.2703,22.8759 23.7283,18.5384 25.0678,15.9106 25.5152,15.1212 A1.7751,1.7751 0 0 1 28.5648,16.9388 ZM10.6114,44.0459 T11.0974,43.6615 12.6055,41.7532 15.0077,38.4531 17.5321,34.897 19.8286,31.5994 22.2891,28.3797 24.7963,25.2718 27.8586,22.1968 29.7222,20.528 A1.8973,1.8973 0 0 1 31.8322,23.6817 T30.4014,25.0179 27.8654,27.7031 25.4914,30.7836 23.1865,33.9126 20.9371,37.2675 18.4345,40.9405 15.697,44.6275 13.7441,46.9935 13.2393,47.3881 A2.1258,2.1258 0 0 1 10.6114,44.0459 ZM32.5532,22.7722 T32.3774,23.2312 30.9873,25.5993 28.3581,30.2954 26.2412,34.6634 24.6528,37.8971 22.9229,41.9304 22.0795,44.3109 A2.1251,2.1251 0 0 1 18.0514,42.9551 T19.1179,40.2614 21.0439,36.0688 22.7105,32.8724 25.1065,28.2345 27.6801,23.8222 28.8329,21.8938 29.0012,21.4375 A1.8973,1.8973 0 0 1 32.5532,22.7722 ZM18.3766,42.3432 T19.3872,41.0072 21.3098,38.2989 23.44,35.2308 25.7702,31.9704 27.9941,29.0455 30.6839,26.0234 33.5552,23.0294 36.6319,20.1517 38.4152,18.606 A1.8638,1.8638 0 0 1 40.5436,21.6664 T39.0879,22.9974 36.3949,25.6738 33.7285,28.6334 31.3046,31.5141 29.219,34.3959 26.9622,37.6572 24.8849,40.6726 22.8641,43.4825 21.7543,44.9229 A2.1251,2.1251 0 0 1 18.3766,42.3432 ZM41.3427,20.1823 T41.2948,21.3971 40.0805,24.7344 37.9351,28.5753 35.9712,31.9289 34.0405,35.3282 32.0963,38.7919 30.3649,41.8196 28.7936,44.7886 26.909,47.9153 25.8627,49.4012 A2.2512,2.2512 0 0 1 22.2173,46.7588 T23.1223,45.5526 24.9405,42.6734 26.6488,39.6398 28.4481,36.6713 30.5019,33.2449 32.5584,29.8618 34.5703,26.646 36.5925,23.3969 37.6129,20.9446 37.6161,20.0901 A1.8638,1.8638 0 0 1 41.3427,20.1823 ZM22.3753,46.5646 T23.0025,45.8828 25.2242,42.7154 27.8656,38.722 30.2512,35.6289 32.7672,32.7561 35.4952,29.6637 38.3808,26.3997 41.2854,23.8113 43.7923,22.282 44.7295,21.882 A1.9436,1.9436 0 0 1 46.1639,25.4949 T45.6351,25.6769 43.8943,26.7315 41.4404,29.0462 38.6546,32.3933 36.0152,35.5541 33.7404,38.2553 31.5322,41.2422 29.4759,44.2776 27.5497,47.1566 26.1778,49.0685 25.7047,49.5954 A2.2512,2.2512 0 0 1 22.3753,46.5646 ZM46.39,21.9891 T46.5397,22.0723 46.6894,22.1556 A1.9433,1.9433 0 0 1 44.8031,25.5539 T44.6532,25.4708 44.5034,25.3878 A1.9436,1.9436 0 0 1 46.39,21.9891 ZM47.466,24.7597 T47.0712,25.515 45.2246,28.32 42.2624,33.14 39.8336,37.4151 37.6775,41.4294 35.8386,45.2561 35.2375,46.5735 A2.2424,2.2424 0 0 1 30.8625,45.5865 T31.645,43.8518 33.1199,40.6624 34.5738,37.9361 36.2705,35.2273 38.061,32.4058 39.7458,29.5211 41.9028,26.2366 43.6284,23.7011 44.0265,22.9497 A1.9433,1.9433 0 0 1 47.466,24.7597 ZM31.1337,44.9155 T31.8531,43.7173 33.7442,41.0617 35.9389,38.242 38.2879,35.3714 40.4703,32.7063 42.8392,29.887 45.6093,26.9089 48.8116,23.996 50.7561,22.3989 A1.9826,1.9826 0 0 1 52.8292,25.7789 T51.3364,27.0677 48.656,29.6748 46.1355,32.5341 43.8594,35.3972 41.7245,38.1205 39.4713,40.978 37.4298,43.6331 35.7081,46.0382 34.9663,47.2445 A2.2424,2.2424 0 0 1 31.1337,44.9155 ZM53.6647,24.7416 T53.1713,26.1593 51.3916,29.7215 49.0699,33.411 47.379,36.5275 45.3093,41.0558 43.2012,45.2823 42.3721,47.5672 42.2369,48.5822 A2.2965,2.2965 0 0 1 37.6638,49.008 T37.663,48.0125 38.7627,44.5984 41.3595,39.2722 43.7434,34.4914 45.6267,31.2256 47.7771,28.0498 49.4262,24.8514 49.9206,23.4362 A1.9826,1.9826 0 0 1 53.6647,24.7416 ZM38.4801,47.031 T39.3107,46.3312 41.3207,44.2515 43.3512,41.6947 45.6699,38.6575 48.6574,35.0808 51.7028,31.758 54.2605,29.0745 57.1778,26.3289 59.0627,24.6604 A2.0726,2.0726 0 0 1 61.6254,27.9185 T59.9991,29.4081 57.3703,31.9814 54.9296,34.6525 52.0893,37.8912 49.3026,41.3709 46.9564,44.5343 44.6318,47.4515 42.3447,49.7965 41.4207,50.5591 A2.2965,2.2965 0 0 1 38.4801,47.031 ZM62.4086,26.472 T62.3356,27.1728 61.1992,30.1186 59.3649,33.774 57.2305,37.7407 54.9174,41.7976 52.8367,45.4314 51.4843,48.4268 51.2633,49.2892 A2.3718,2.3718 0 0 1 46.737,47.8695 T47.2058,46.5324 48.9353,42.999 51.0435,39.5931 52.795,36.588 54.9951,32.7286 57.2429,28.9908 58.2372,26.7119 58.2796,26.1069 A2.0726,2.0726 0 0 1 62.4086,26.472 ZM47.2188,47.0134 T48.3443,45.7265 51.4325,42.236 54.539,38.5586 56.8247,35.7703 59.0586,33.2918 61.2376,31.0289 63.4336,29.3806 64.5427,28.8311 A2.1295,2.1295 0 0 1 66.2159,32.7477 T65.7716,32.8619 64.3643,34.0339 62.3984,36.2253 60.3661,38.6089 58.156,41.4475 54.9565,45.3708 51.8596,48.9256 50.7815,50.1454 A2.3718,2.3718 0 0 1 47.2188,47.0134 ZM67.5016,30.9641 T67.4298,31.7603 66.527,34.4903 64.8052,38.0468 63.2442,40.9507 61.2157,45.098 59.0558,50.0655 58.254,52.1667 A2.3617,2.3617 0 0 1 53.6816,50.9823 T54.7677,48.3738 56.6223,44.4287 58.0523,41.626 59.429,38.8616 61.6449,34.8397 63.2014,31.3655 63.257,30.6146 A2.1295,2.1295 0 0 1 67.5016,30.9641 ZM54.2092,49.9982 T54.948,49.1705 57.4706,46.1416 60.4997,42.6346 63.8224,39.2276 67.0166,36.025 69.6371,34.0889 71.1407,33.2541 A2.2127,2.2127 0 0 1 73.1952,37.1737 T72.2228,37.6367 70.1881,39.1987 67.1243,42.4011 63.0926,46.7754 60.1371,50.2735 58.4691,52.3256 57.7264,53.1508 A2.3617,2.3617 0 0 1 54.2092,49.9982 ZM74.1718,36.1522 T73.8214,36.8662 72.4184,39.7528 70.5155,43.0755 68.5571,46.1226 66.9182,49.8621 66.3872,51.7044 A2.4284,2.4284 0 0 1 61.7056,50.4117 T62.5237,48.0394 64.6794,43.5427 67.2218,39.7408 69.1381,36.5396 70.0069,34.6457 70.1641,34.2756 A2.2127,2.2127 0 0 1 74.1718,36.1522 ZM62.3736,49.2976 T62.9803,48.7144 65.7205,45.9005 68.8616,42.5133 71.2102,39.9559 74.3883,36.463 78.3067,33.2277 80.3881,32.0845 A2.2264,2.2264 0 0 1 81.0883,36.4819 T80.4307,36.8258 77.8638,39.4503 74.7132,43.0974 71.2335,46.7924 67.9916,50.3735 66.3536,52.2223 65.7191,52.8185 A2.4284,2.4284 0 0 1 62.3736,49.2976 ZM82.8476,34.9954 T82.3961,36.346 80.7382,39.9312 78.5917,44.3096 76.4451,48.3327 75.2386,50.2119 A2.402,2.402 0 0 1 71.0014,47.9481 T72.2777,46.0778 74.6661,41.9025 76.7427,37.936 78.168,34.9227 78.6288,33.5711 A2.2264,2.2264 0 0 1 82.8476,34.9954 ZM71.3923,47.4113 T71.9218,46.8563 73.7574,45.0035 76.0187,42.5408 78.0378,40.2024 80.1458,37.945 83.1953,35.0507 85.2007,33.2401 A2.2705,2.2705 0 0 1 87.5723,37.1125 T86.0807,38.5811 83.6131,41.116 81.6633,43.2933 79.5817,45.7707 77.1374,48.4561 75.3243,50.262 74.8477,50.7487 A2.402,2.402 0 0 1 71.3923,47.4113 ZM88.5261,35.9361 T88.1138,37.0303 86.5623,40.3839 84.1265,45.0517 82.2764,48.7934 81.7228,50.1266 A2.4064,2.4064 0 0 1 76.9724,49.3548 T77.8823,47.205 80.0724,42.8166 82.561,38.2366 84.0081,35.1559 84.2469,34.4166 A2.2705,2.2705 0 0 1 88.5261,35.9361 ZM77.6876,47.9986 T78.3438,47.3674 80.6611,44.7461 84.0604,40.9528 87.3816,37.573 88.9645,35.9964 A2.3123,2.3123 0 0 1 92.2565,39.2444 T91.5761,39.9493 89.3269,42.3044 85.984,45.9223 83.2733,49.0591 81.6722,50.8555 81.0076,51.4828 A2.4064,2.4064 0 0 1 77.6876,47.9986 ZM91.2454,35.397 T91.6093,35.5018 91.9731,35.6066 A2.3105,2.3105 0 0 1 90.7042,40.05 T90.3399,39.9469 89.9756,39.8438 A2.3123,2.3123 0 0 1 91.2454,35.397 ZM93.573,38.4168 T93.2561,39.6255 92.1998,42.0574 90.7288,44.7878 89.3111,47.5539 87.9914,50.5199 87.3577,52.2269 A2.4538,2.4538 0 0 1 82.5711,51.1443 T83.5138,48.7898 85.4037,44.5931 87.4353,41.0999 88.812,38.3444 89.1043,37.2399 A2.3105,2.3105 0 0 1 93.573,38.4168 ZM83.0991,50.0913 T84.0298,49.0024 86.6933,46.1593 89.9994,42.3032 92.6194,39.193 94.7427,37.5864 95.8192,36.988 A2.3074,2.3074 0 0 1 97.9341,41.0898 T97.3761,41.3341 95.3691,43.3938 92.9026,46.5033 90.2266,49.5219 87.6988,52.2632 86.8296,53.2799 A2.4538,2.4538 0 0 1 83.0991,50.0913 ZM99.1222,39.5698 T98.9479,40.2953 97.7178,43.1601 95.5392,47.2164 93.422,51.5284 92.4277,53.9234 A2.4254,2.4254 0 0 1 87.8723,52.2566 T89.0832,49.5226 91.4078,44.9899 93.4117,41.5578 94.4664,39.2163 94.6311,38.508 A2.3074,2.3074 0 0 1 99.1222,39.5698 ZM87.9253,52.1241 T88.6396,50.7736 90.5647,48.2213 93.2895,45.4176 96.3115,42.1488 97.8195,40.4817 A2.33,2.33 0 0 1 101.141,43.7503 T99.5328,45.5831 96.5631,48.9369 93.8696,51.7746 92.4561,53.5736 92.3747,54.0559 A2.4254,2.4254 0 0 1 87.9253,52.1241 ZM99.3253,39.7911 T99.4885,39.7817 99.6517,39.7723 A2.3271,2.3271 0 0 1 99.9613,44.4162 T99.7983,44.4285 99.6353,44.4409 A2.33,2.33 0 0 1 99.3253,39.7911 ZM102.1242,42.304 T101.9785,43.6887 101.341,46.9268 100.4826,49.8358 100.1159,50.8912 A2.3635,2.3635 0 0 1 95.6771,49.2659 T95.9714,48.516 96.8078,45.8184 97.4193,42.8776 97.4888,41.8845 A2.3271,2.3271 0 0 1 102.1242,42.304 ZM99.3646,48.2263 T99.974,48.7552 100.5834,49.2841 A2.2916,2.2916 0 0 1 97.7366,52.8759 T97.0825,52.4034 96.4284,51.9308 A2.3635,2.3635 0 0 1 99.3646,48.2263 Z" stroke-linecap="round" fill="#4dabf7"/></g></g><g transform="matrix(1, 0, 0, 1, 2198.7027, 23228.817) scale(1.0016576656079599, 1.0016576656079599)" opacity="0.5"><g transform="scale(0.998345077699821)"><path d="M0.7831,1.5701 T-0.3359,2.0388 -2.6707,2.3246 -3.8865,2.1419 A1.6945,1.6945 0 0 1 -2.9596,-1.1179 T-2.6491,-0.8666 -1.5609,-1.0928 -0.7831,-1.5701 A1.7546,1.7546 0 0 1 0.7831,1.5701 ZM-4.9402,-0.2427 T-4.4886,-1.1214 -3.1896,-3.3267 -1.0919,-6.1946 0.1583,-7.7359 A1.6925,1.6925 0 0 1 2.207,-5.0413 T1.2908,-3.8558 -0.4387,-1.3881 -1.579,0.5803 -1.906,1.2667 A1.6945,1.6945 0 0 1 -4.9402,-0.2427 ZM-0.4411,-5.9113 T-0.4847,-6.0582 -0.5283,-6.205 A1.6932,1.6932 0 0 1 2.7208,-7.16 T2.7636,-7.0129 2.8064,-6.8659 A1.6925,1.6925 0 0 1 -0.4411,-5.9113 ZM2.5124,-5.7543 T2.2537,-5.3575 0.7285,-3.3143 -1.9985,-0.3282 -4.2355,2.0019 -5.012,2.9924 A1.7405,1.7405 0 0 1 -8.0507,1.2944 T-6.933,-0.1103 -4.603,-2.5335 -2.1151,-5.187 -0.5797,-7.2164 -0.3199,-7.6107 A1.6932,1.6932 0 0 1 2.5124,-5.7543 ZM-7.8842,1.0484 T-7.5262,0.6137 -6.3317,-1.0492 -4.5714,-4.0211 -2.9324,-7.0416 -1.929,-9.0083 -1.6409,-9.6981 A1.7794,1.7794 0 0 1 1.6409,-8.3219 T1.3509,-7.633 0.2728,-5.5332 -1.5067,-2.2869 -3.3467,0.7786 -4.6869,2.6235 -5.1785,3.2384 A1.7405,1.7405 0 0 1 -7.8842,1.0484 ZM1.2486,-7.7423 T0.7465,-7.2457 -0.6421,-5.4993 -2.8352,-2.6027 -5.2969,0.4433 -6.9885,2.4233 -7.5251,3.0042 A1.8274,1.8274 0 0 1 -10.1976,0.5114 T-9.6942,-0.0226 -8.1523,-1.7892 -5.7234,-4.7521 -3.3193,-7.8616 -1.7771,-9.7592 -1.2486,-10.2777 A1.7794,1.7794 0 0 1 1.2486,-7.7423 ZM-9.8616,3.2871 T-10.1356,3.108 -10.4097,2.9288 A1.8276,1.8276 0 0 1 -8.409,-0.1301 T-8.1351,0.0492 -7.8611,0.2285 A1.8274,1.8274 0 0 1 -9.8616,3.2871 ZM-10.9881,0.4786 T-10.6584,-0.0895 -9.4931,-2.2742 -7.3443,-6.0366 -5.1663,-9.4124 -3.1407,-12.9701 -1.3298,-16.5867 -0.6798,-17.8754 A1.8806,1.8806 0 0 1 2.6798,-16.1846 T1.4499,-13.7341 -1.2426,-8.8829 -4.0434,-4.3398 -6.2739,-0.5054 -7.4985,1.7534 -7.8307,2.3201 A1.8276,1.8276 0 0 1 -10.9881,0.4786 ZM2.3683,-15.7399 T1.8407,-15.1848 0.2122,-12.8337 -1.7218,-9.8405 -4.0514,-6.2552 -6.5153,-2.6325 -8.7884,0.6751 -10.9645,3.365 -11.8349,3.9822 A1.9217,1.9217 0 0 1 -13.7058,0.625 T-12.8583,-0.4229 -10.3808,-3.6987 -7.2037,-8.3707 -4.7804,-12.0581 -2.6133,-15.3004 -0.8452,-17.8098 -0.3683,-18.3201 A1.8806,1.8806 0 0 1 2.3683,-15.7399 ZM-14.2546,3.5241 T-14.3137,3.4523 -14.3728,3.3806 A1.9217,1.9217 0 0 1 -11.4041,0.9394 T-11.3451,1.0112 -11.2861,1.0831 A1.9217,1.9217 0 0 1 -14.2546,3.5241 ZM-14.6715,1.4431 T-14.4655,0.9306 -13.12,-1.8209 -11.1385,-5.3276 -9.426,-7.8933 -7.6202,-10.5868 -5.7201,-13.4282 -3.8072,-16.5282 -2.1119,-19.5401 -0.6233,-22.6501 0.1182,-24.4023 A1.9164,1.9164 0 0 1 3.8818,-23.6777 T2.9429,-21.364 1.243,-17.6562 -0.5343,-14.4988 -2.5181,-11.2865 -4.4219,-8.4416 -6.9137,-4.7673 -9.5825,-0.3152 -10.9006,2.3677 -11.1054,2.8769 A1.9217,1.9217 0 0 1 -14.6715,1.4431 ZM3.7906,-23.3573 T3.317,-22.2912 1.9538,-19.7447 0.246,-17.0032 -1.4734,-14.3683 -3.318,-11.5562 -5.5292,-8.5666 -7.8326,-5.3823 -10.2198,-2.0461 -12.6969,1.1946 -14.9363,4.0783 -17.2552,6.9376 -18.4602,8.4507 A2.0489,2.0489 0 0 1 -21.2057,5.4086 T-20.1951,4.112 -18.133,1.5677 -15.8932,-1.2696 -13.4608,-4.3877 -11.0289,-7.7236 -8.6845,-10.9082 -6.5728,-13.712 -4.7113,-16.499 -2.9883,-19.0943 -1.0951,-22.0509 0.0954,-24.2477 0.2094,-24.7227 A1.9164,1.9164 0 0 1 3.7906,-23.3573 ZM-21.8029,6.3662 T-21.3383,4.808 -20.152,1.7882 -18.249,-1.2978 -16.0694,-4.5687 -13.7813,-8.1164 -11.1042,-11.9634 -8.3083,-16.0776 -5.7067,-20.315 -3.3815,-24.2239 -1.7273,-27.8167 -1.2052,-29.5694 A2.0483,2.0483 0 0 1 2.8714,-29.1651 T2.7299,-28.1319 1.9204,-25.5085 0.1422,-22.1154 -2.235,-18.1704 -4.9663,-13.7962 -7.7933,-9.6565 -10.3913,-5.9372 -12.7188,-2.3258 -14.8008,0.7986 -16.4879,3.5561 -17.524,6.241 -17.863,7.493 A2.0489,2.0489 0 0 1 -21.8029,6.3662 ZM1.1824,-27.349 T0.7488,-27.2746 0.3152,-27.2002 A2.047,2.047 0 0 1 -0.3831,-31.2342 T0.0504,-31.3099 0.4838,-31.3856 A2.0483,2.0483 0 0 1 1.1824,-27.349 ZM1.7068,-28.1401 T1.2407,-27.3893 -1.0713,-23.9475 -3.9493,-19.7473 -5.9991,-16.7298 -8.2777,-13.4523 -10.9131,-9.8052 -13.4342,-6.0624 -15.9884,-2.3734 -19.1211,0.8965 -20.8462,2.3423 A2.1107,2.1107 0 0 1 -23.5159,-0.9278 T-22.1098,-2.0384 -19.4273,-4.7797 -16.9067,-8.4083 -14.2946,-12.2593 -11.6863,-15.8323 -9.4091,-19.066 -7.3107,-22.1031 -4.4756,-26.2084 -2.2386,-29.5423 -1.7747,-30.2944 A2.047,2.047 0 0 1 1.7068,-28.1401 ZM-24.2889,0.5974 T-24.245,-0.0717 -23.6152,-2.1543 -21.9907,-5.1884 -19.9994,-8.4966 -18.0386,-11.8417 -15.7728,-15.352 -13.176,-19.3145 -10.4435,-23.9208 -7.5529,-28.7598 -4.8388,-33.2149 -3.0268,-36.8009 -2.3805,-38.6762 -2.3294,-39.0783 A2.1192,2.1192 0 0 1 1.8431,-38.3343 T1.6759,-37.5123 0.7923,-34.9435 -1.1963,-31.0032 -3.899,-26.571 -6.7902,-21.7354 -9.6346,-16.977 -12.2261,-13.0606 -14.4111,-9.7071 -16.408,-6.3196 -18.7277,-2.4681 -20.0504,0.2057 -20.0732,0.8171 A2.1107,2.1107 0 0 1 -24.2889,0.5974 ZM1.4185,-37.391 T0.7002,-36.4898 -0.7293,-34.3164 -2.5902,-31.3039 -4.7584,-27.788 -7.1091,-24.2226 -9.7753,-20.4133 -12.8062,-16.0761 -16.0951,-11.6056 -19.2379,-7.3728 -22.0645,-3.5023 -24.5417,-0.225 -27.2521,2.3732 -28.7612,3.4842 A2.2501,2.2501 0 0 1 -31.3551,-0.1931 T-30.2849,-0.9016 -28.1081,-2.9714 -25.6935,-6.1531 -22.8371,-10.0511 -19.6926,-14.2675 -16.4454,-18.6316 -13.3657,-22.9714 -10.7284,-26.6429 -8.4096,-30.0742 -6.214,-33.5431 -4.291,-36.5951 -2.6791,-39.0369 -1.9048,-40.0215 A2.1192,2.1192 0 0 1 1.4185,-37.391 ZM-31.95,0.4274 T-31.0956,-0.8791 -29.4442,-3.3784 -27.7927,-6.0783 -25.9694,-9.1578 -23.7554,-12.5326 -21.434,-16.1444 -18.7736,-20.1955 -15.4283,-24.9809 -11.8067,-30.4876 -7.9933,-36.4648 -4.8137,-41.7091 -2.723,-45.9153 -1.8586,-47.8918 A2.0282,2.0282 0 0 1 1.8586,-46.2682 T0.9241,-44.1263 -1.2962,-39.6202 -4.4981,-34.2551 -8.2969,-28.1963 -11.9308,-22.5502 -15.1635,-17.8586 -17.7869,-13.8175 -20.0976,-10.1612 -22.1855,-6.9334 -24.0285,-3.7762 -25.7349,-0.9333 -27.3418,1.5626 -28.1663,2.8636 A2.2501,2.2501 0 0 1 -31.95,0.4274 ZM1.7673,-46.0849 T0.8107,-44.5254 -1.5737,-40.5989 -4.2498,-36.457 -6.8515,-32.794 -9.5839,-28.7675 -12.6742,-24.2445 -16.2279,-19.4152 -19.9825,-14.4928 -23.5678,-9.5844 -27.1141,-4.6275 -30.4678,-0.2743 -32.9054,2.9053 -34.7676,5.1665 -35.6726,6.0752 A2.4124,2.4124 0 0 1 -39.042,2.622 T-38.4188,2.0396 -36.7504,-0.0199 -34.2838,-3.2438 -31.0241,-7.4423 -27.4154,-12.421 -23.7156,-17.3813 -19.9382,-22.192 -16.398,-26.8381 -13.2166,-31.3018 -10.3399,-35.3345 -7.6922,-38.8772 -5.4294,-42.0074 -3.5861,-44.7458 -2.2563,-47.067 -1.7673,-48.0751 A2.0282,2.0282 0 0 1 1.7673,-46.0849 ZM-39.4967,5.4633 T-39.6608,5.1433 -39.8249,4.8233 A2.4077,2.4077 0 0 1 -35.5544,2.5981 T-35.3862,2.916 -35.2179,3.2339 A2.4124,2.4124 0 0 1 -39.4967,5.4633 ZM-39.8942,2.7425 T-39.5022,1.8651 -38.0995,-0.5878 -35.8662,-3.8877 -33.2891,-7.4629 -30.5447,-11.4162 -27.4497,-16.0737 -23.8919,-21.3893 -19.8781,-27.4781 -15.6095,-33.9894 -11.7022,-40.2138 -8.467,-45.8049 -6.3114,-50.0715 -5.2147,-52.6729 -4.8382,-53.5576 A2.0603,2.0603 0 0 1 -1.0392,-51.9615 T-1.4008,-51.0894 -2.5473,-48.2654 -4.7527,-43.6976 -7.9883,-37.9191 -11.8631,-31.5627 -16.0695,-24.9899 -20.0416,-18.8346 -23.5504,-13.5001 -26.6754,-8.7369 -29.4421,-4.705 -31.9282,-1.2236 -33.9082,1.6772 -35.1064,3.8012 -35.4852,4.6789 A2.4077,2.4077 0 0 1 -39.8942,2.7425 ZM-1.3086,-51.4995 T-1.7975,-50.865 -3.2406,-48.9545 -5.3625,-45.8652 -7.8837,-42.0844 -10.6195,-37.9358 -13.713,-33.3503 -16.9624,-28.3554 -20.567,-22.856 -24.6552,-17.2479 -28.415,-11.9981 -32.092,-7.0526 -35.2184,-3.0148 -37.8373,0.2156 -39.2685,1.8031 A2.3818,2.3818 0 0 1 -42.7947,-1.3995 T-41.5254,-2.7855 -38.9855,-5.9136 -35.8865,-9.8893 -32.2473,-14.7556 -28.4248,-20.0282 -24.4174,-25.4024 -20.7469,-30.8605 -17.3898,-35.8694 -14.2391,-40.3757 -11.4178,-44.4858 -8.7887,-48.2803 -6.5316,-51.4698 -5.0597,-53.3867 -4.5688,-54.0196 A2.0603,2.0603 0 0 1 -1.3086,-51.4995 ZM-43.2427,-0.6834 T-42.465,-2.5775 -40.5953,-6.3087 -38.2158,-10.297 -35.2578,-14.8336 -31.7572,-19.6509 -27.7974,-24.9933 -23.107,-31.3418 -18.2564,-37.9834 -14.0773,-44.241 -10.728,-50.053 -8.524,-54.6689 -7.3424,-58.6338 -6.9049,-60.741 A2.1744,2.1744 0 0 1 -2.5709,-60.3827 T-3.1471,-57.6485 -4.5422,-52.8411 -6.8673,-47.8622 -10.3171,-41.7597 -14.5518,-35.2999 -19.3751,-28.5981 -24.0478,-22.2195 -27.9641,-16.9018 -31.313,-12.2795 -34.1626,-7.8884 -36.5116,-3.9203 -38.2022,-0.506 -38.8204,1.087 A2.3818,2.3818 0 0 1 -43.2427,-0.6834 ZM-3.14,-59.0872 T-3.6772,-58.5048 -5.2252,-56.8787 -7.3557,-54.2326 -9.8277,-50.7532 -12.5585,-46.7501 -15.3719,-42.3105 -18.2698,-37.5914 -21.4906,-32.6614 -24.87,-27.8791 -28.3442,-23.4162 -31.5468,-19.2352 -34.2347,-15.7958 -37.1069,-13.2178 -38.6409,-12.103 A2.4066,2.4066 0 0 1 -41.4272,-16.0276 T-40.2669,-16.8255 -37.9944,-18.8153 -35.3861,-22.1712 -32.1381,-26.3879 -28.7662,-30.6615 -25.4466,-35.268 -22.2474,-40.0667 -19.255,-44.8148 -16.2856,-49.3465 -13.4375,-53.3732 -9.7383,-58.0378 -6.8733,-61.4546 -6.3358,-62.0366 A2.1744,2.1744 0 0 1 -3.14,-59.0872 ZM-42.3203,-14.8164 T-42.082,-15.5242 -40.8862,-17.8024 -38.7456,-21.0603 -36.272,-24.7567 -33.3042,-29.088 -29.8321,-34.0057 -25.8936,-39.6459 -21.4332,-45.9491 -17.4922,-52.2173 -14.7565,-57.5382 -13.0736,-61.2473 -12.497,-63.1175 -12.4919,-63.5895 A2.3152,2.3152 0 0 1 -7.8827,-63.1469 T-8.0277,-62.0556 -8.7925,-59.3959 -10.5617,-55.4072 -13.4698,-49.7201 -17.5365,-43.196 -21.9793,-36.9114 -25.9416,-31.2493 -29.375,-26.4063 -32.3212,-22.107 -35.4823,-17.3596 -37.5254,-14.0087 -37.7477,-13.3141 A2.4066,2.4066 0 0 1 -42.3203,-14.8164 ZM-8.6865,-61.6053 T-10.0266,-60.4756 -12.4762,-58.0303 -14.8893,-55.0468 -17.5821,-51.5392 -20.3586,-47.5901 -23.264,-43.5376 -26.5395,-39.6047 -29.8626,-35.6802 -32.717,-32.0306 -35.7653,-28.8119 -37.5246,-27.3081 A2.652,2.652 0 0 1 -40.9104,-31.3908 T-39.5553,-32.4699 -36.8353,-35.3184 -33.7949,-39.0727 -30.42,-42.9054 -27.2779,-46.5029 -24.3061,-50.448 -21.3246,-54.4762 -18.4856,-58.0191 -15.7961,-61.225 -13.0906,-63.9258 -11.6881,-65.1311 A2.3152,2.3152 0 0 1 -8.6865,-61.6053 ZM-41.7486,-30.1412 T-41.4691,-31.0155 -40.5159,-33.4332 -38.7161,-36.8242 -35.9944,-40.6455 -32.6671,-44.7682 -29.1081,-49.4209 -25.3668,-54.6685 -21.7386,-60.018 -18.9455,-64.8207 -17.6511,-68.2621 -17.4352,-69.5065 A2.5154,2.5154 0 0 1 -12.4151,-69.8351 T-12.4143,-68.7695 -12.8493,-66.245 -14.5004,-62.3 -17.4568,-57.1318 -21.1393,-51.6568 -24.9787,-46.2555 -28.615,-41.4899 -31.7428,-37.6319 -34.6413,-33.1204 -36.4185,-29.4338 -36.6865,-28.5577 A2.652,2.652 0 0 1 -41.7486,-30.1412 ZM-13.3846,-67.6823 T-14.1886,-67.0766 -16.7962,-64.0026 -19.6226,-60.1505 -21.9712,-57.2244 -24.6386,-53.9962 -27.1439,-50.7269 -29.4562,-47.7554 -31.6947,-45.1476 -33.5661,-43.3487 -34.3473,-42.7696 A2.6052,2.6052 0 0 1 -37.2899,-47.0695 T-36.957,-47.2528 -35.6,-48.5607 -33.5078,-50.9506 -31.2012,-53.8635 -28.5414,-57.2631 -25.8954,-60.3977 -23.5558,-63.2536 -21.3966,-65.9643 -19.3492,-68.6851 -17.4057,-70.914 -16.4656,-71.6594 A2.5154,2.5154 0 0 1 -13.3846,-67.6823 ZM-37.5977,-43.0164 T-37.8899,-43.2924 -38.182,-43.5684 A2.601,2.601 0 0 1 -34.6296,-47.3685 T-34.3345,-47.0955 -34.0395,-46.8226 A2.6052,2.6052 0 0 1 -37.5977,-43.0164 ZM-38.8431,-46.3766 T-38.5204,-47.2294 -37.511,-49.5677 -35.6934,-52.8742 -33.566,-56.4773 -31.2665,-60.2476 -28.3477,-64.6702 -25.18,-69.5418 -22.3433,-73.9296 -21.0031,-77.6088 -20.9475,-79.3373 A2.4592,2.4592 0 0 1 -16.0501,-78.8827 T-16.4083,-76.1544 -18.0689,-71.3586 -20.9336,-66.7965 -24.0968,-61.8745 -26.8993,-57.6042 -29.1554,-53.8728 -31.1759,-50.4392 -32.7412,-47.5827 -33.6546,-45.4157 -33.9685,-44.5602 A2.601,2.601 0 0 1 -38.8431,-46.3766 ZM-16.6245,-77.5179 T-17.2258,-76.8153 -18.9008,-74.9813 -21.1678,-72.3941 -23.4562,-69.4661 -25.9025,-66.4105 -28.6738,-63.2805 -31.2504,-60.2759 -34.3862,-57.4583 -36.3654,-56.099 A2.5604,2.5604 0 0 1 -39.1445,-60.4001 T-37.7296,-61.2338 -35.0489,-63.6182 -32.4012,-66.6307 -29.7558,-69.5243 -27.3181,-72.5044 -23.8545,-76.6704 -20.9691,-79.9951 -20.3732,-80.702 A2.4592,2.4592 0 0 1 -16.6245,-77.5179 ZM-40.3008,-57.9771 T-40.362,-58.7252 -39.9104,-61.0855 -38.675,-64.2653 -37.0634,-67.4266 -34.9735,-70.8445 -32.4266,-74.5635 -29.9562,-78.3089 -27.4863,-82.3489 -25.2329,-86.3112 -23.9095,-89.7976 -23.4941,-91.5109 A2.4127,2.4127 0 0 1 -18.6708,-91.3632 T-18.7451,-90.2569 -19.3636,-87.5154 -20.8724,-83.9126 -23.1475,-79.7288 -25.6713,-75.5006 -28.1799,-71.6524 -30.5842,-68.1604 -32.4953,-65.0846 -34.3363,-61.6935 -35.2922,-59.1222 -35.2091,-58.522 A2.5604,2.5604 0 0 1 -40.3008,-57.9771 ZM-20.7324,-89.0498 T-21.1959,-88.9858 -21.6594,-88.9217 A2.405,2.405 0 0 1 -22.3573,-93.6808 T-21.8949,-93.7526 -21.4325,-93.8243 A2.4127,2.4127 0 0 1 -20.7324,-89.0498 ZM-20.0645,-89.8851 T-20.7895,-88.9062 -22.6749,-86.6097 -24.8219,-83.9903 -26.7972,-81.2821 -29.1555,-78.4833 -32.2515,-74.6151 -35.3887,-71.1445 -36.7997,-70.1498 A2.5882,2.5882 0 0 1 -39.5947,-74.5068 T-37.8849,-76.0235 -35.095,-79.0829 -32.8808,-81.682 -30.6853,-84.1835 -28.5162,-87.0449 -26.3892,-89.6 -24.6612,-91.7281 -23.9522,-92.7174 A2.405,2.405 0 0 1 -20.0645,-89.8851 ZM-40.7299,-72.8615 T-40.4261,-74.2979 -39.427,-77.1779 -37.9412,-80.2035 -36.2253,-83.3974 -34.0743,-86.8433 -31.7868,-90.4824 -29.9161,-93.7166 -28.7758,-96.216 -28.4444,-97.2862 A2.55,2.55 0 0 1 -23.5899,-95.7227 T-24.0966,-94.1906 -25.4237,-91.1634 -27.3762,-87.7201 -29.6419,-84.0824 -31.6341,-80.9186 -33.8104,-76.901 -35.3963,-73.0766 -35.6645,-71.7952 A2.5882,2.5882 0 0 1 -40.7299,-72.8615 ZM-24.102,-94.8208 T-24.978,-93.8342 -27.2505,-91.0715 -30.0671,-87.5292 -33.1156,-84.0759 -34.7438,-82.3888 A2.5744,2.5744 0 0 1 -38.092,-86.3002 T-37.4178,-86.8435 -35.4226,-89.1136 -32.7048,-92.425 -30.4336,-95.1637 -28.7458,-97.2529 -27.9323,-98.1881 A2.55,2.55 0 0 1 -24.102,-94.8208 ZM-38.9715,-84.6715 T-38.8846,-85.3376 -37.7471,-88.418 -35.8624,-92.1989 -33.5961,-96.5433 -31.5077,-101.0504 -30.2668,-104.0766 -29.6703,-106.0756 -29.6586,-106.5778 A2.4626,2.4626 0 0 1 -24.7536,-106.1315 T-24.8909,-104.9953 -25.6239,-102.2472 -26.9056,-98.9671 -28.3977,-95.6233 -29.9239,-92.4218 -31.4132,-89.6334 -32.9409,-86.8504 -33.782,-84.6738 -33.8643,-84.0176 A2.5744,2.5744 0 0 1 -38.9715,-84.6715 ZM-26.3149,-104.0589 T-26.9982,-103.8139 -28.632,-102.4091 -30.7184,-99.7122 -32.9598,-96.9329 -34.0653,-95.6905 A2.51,2.51 0 0 1 -37.7361,-99.1149 T-36.7241,-100.2069 -34.4253,-102.9656 -31.49,-106.2825 -28.9695,-108.2915 -28.0973,-108.6503 A2.4626,2.4626 0 0 1 -26.3149,-104.0589 ZM-37.2734,-95.3013 T-37.5476,-95.4803 -37.8219,-95.6592 A2.5103,2.5103 0 0 1 -35.0762,-99.8626 T-34.8021,-99.6834 -34.528,-99.5041 A2.51,2.51 0 0 1 -37.2734,-95.3013 ZM-38.8908,-98.3437 T-38.5042,-99.9737 -37.294,-104.4463 -35.6941,-109.026 -34.3436,-112.4144 -33.4831,-115.5405 -32.7633,-118.645 -32.3821,-120.7792 -32.4344,-121.2835 A2.436,2.436 0 0 1 -27.5641,-121.4171 T-27.5709,-120.2613 -27.9552,-117.585 -28.6882,-114.2543 -29.6867,-110.5633 -30.9661,-107.3081 -32.4374,-103.0848 -33.6399,-98.7071 -34.0073,-97.1781 A2.5103,2.5103 0 0 1 -38.8908,-98.3437 ZM-31.531,-119.4561 T-31.7776,-119.6594 -32.0242,-119.8628 A2.4299,2.4299 0 0 1 -28.9684,-123.6416 T-28.7179,-123.4431 -28.4675,-123.2445 A2.436,2.436 0 0 1 -31.531,-119.4561 ZM-28.4374,-120.4616 T-29.1663,-119.3079 -31.252,-116.1031 -33.7106,-112.2301 -35.7604,-109.4676 -36.7085,-108.5271 A2.5601,2.5601 0 0 1 -40.2005,-112.2718 T-39.574,-112.7997 -37.8779,-114.9975 -35.5481,-118.464 -33.4215,-121.6516 -32.5551,-123.0428 A2.4299,2.4299 0 0 1 -28.4374,-120.4616 ZM-41.0144,-110.4332 T-40.9907,-111.9947 -40.2077,-115.9319 -38.4799,-120.6076 -36.8054,-124.5964 -36.0994,-126.2854 A2.6067,2.6067 0 0 1 -31.1481,-124.6533 T-31.9343,-122.7131 -33.6004,-118.7136 -35.1756,-114.6609 -35.8827,-111.5166 -35.8946,-110.3658 A2.5601,2.5601 0 0 1 -41.0144,-110.4332 ZM-31.4807,-123.9854 T-31.8188,-123.5104 -33.1424,-121.8119 -35.0427,-119.8734 -35.9575,-119.1585 A2.6132,2.6132 0 0 1 -39.06,-123.3645 T-37.8634,-124.4958 -36.2168,-126.2902 -35.7668,-126.9534 A2.6067,2.6067 0 0 1 -31.4807,-123.9854 ZM-40.0853,-120.8251 T-40.2976,-122.1164 -39.9222,-125.889 -38.8206,-130.8471 -38.0702,-135.0181 -37.8336,-136.7125 A2.5849,2.5849 0 0 1 -32.6967,-136.1299 T-32.79,-135.2585 -33.3767,-132.1532 -34.09,-128.4089 -34.8069,-125.3579 -35.1181,-122.7575 -34.9323,-121.6978 A2.6132,2.6132 0 0 1 -40.0853,-120.8251 ZM-37.1088,-134.6094 T-37.295,-134.8024 -37.4812,-134.9954 A2.5799,2.5799 0 0 1 -33.8011,-138.6121 T-33.6113,-138.4226 -33.4215,-138.2331 A2.5849,2.5849 0 0 1 -37.1088,-134.6094 ZM-33.5442,-135.3009 T-34.2424,-134.3486 -35.998,-131.4207 -37.0554,-129.4452 A2.5943,2.5943 0 0 1 -41.195,-132.573 T-40.2661,-134.3022 -38.5376,-137.169 -37.7381,-138.3066 A2.5799,2.5799 0 0 1 -33.5442,-135.3009 ZM-39.6904,-128.4772 T-39.9144,-128.5245 -40.1384,-128.5718 A2.5995,2.5995 0 0 1 -39.0058,-133.6459 T-38.7829,-133.5935 -38.56,-133.541 A2.5943,2.5943 0 0 1 -39.6904,-128.4772 ZM-42.1686,-131.233 T-42.087,-132.7128 -41.2186,-136.5175 -39.7942,-141.0399 -38.5836,-145.1464 -38.0107,-147.0554 A2.5953,2.5953 0 0 1 -32.9601,-145.8575 T-33.4934,-144.0087 -34.7715,-139.5432 -36.2095,-134.9466 -36.9391,-131.9757 -36.9756,-130.9847 A2.5995,2.5995 0 0 1 -42.1686,-131.233 ZM-37.5782,-144.9216 T-37.7136,-145.1073 -37.849,-145.293 A2.594,2.594 0 0 1 -33.6654,-148.3611 T-33.5289,-148.1762 -33.3925,-147.9913 A2.5953,2.5953 0 0 1 -37.5782,-144.9216 ZM-33.7875,-145.1391 T-34.5552,-144.2356 -35.7848,-142.733 -36.2467,-142.134 A2.6202,2.6202 0 0 1 -40.3477,-145.3962 T-39.7234,-146.1627 -38.413,-147.7221 -37.7269,-148.515 A2.594,2.594 0 0 1 -33.7875,-145.1391 ZM-39.682,-141.5408 T-39.8633,-141.6516 -40.0446,-141.7625 A2.6236,2.6236 0 0 1 -37.2714,-146.2169 T-37.0919,-146.1032 -36.9124,-145.9894 A2.6202,2.6202 0 0 1 -39.682,-141.5408 ZM-41.275,-144.1753 T-41.1589,-145.6847 -40.9391,-149.1097 -40.7919,-153.0283 -40.7281,-156.1644 -40.7077,-157.2974 A2.648,2.648 0 0 1 -35.4123,-157.2226 T-35.4239,-156.0894 -35.4755,-152.8605 -35.7116,-148.3511 -35.9744,-144.8708 -36.041,-143.8042 A2.6236,2.6236 0 0 1 -41.275,-144.1753 ZM-35.7837,-155.9071 T-36.4994,-154.7264 -37.7869,-152.6815 -38.3588,-151.8172 A2.6768,2.6768 0 0 1 -42.7772,-154.8404 T-42.0436,-155.8842 -40.8231,-157.7705 -40.3363,-158.6129 A2.648,2.648 0 0 1 -35.7837,-155.9071 ZM-40.1528,-150.6844 T-40.2714,-150.6648 -40.39,-150.6452 A2.6788,2.6788 0 0 1 -41.2209,-155.9379 T-41.1021,-155.9556 -40.9832,-155.9733 A2.6768,2.6768 0 0 1 -40.1528,-150.6844 ZM-43.4756,-153.0761 T-43.5822,-154.3233 -43.3547,-157.5628 -42.5582,-161.5281 -42.2155,-164.4539 -42.3351,-165.4067 A2.71,2.71 0 0 1 -36.9358,-165.8792 T-36.8319,-164.2776 -37.1811,-160.7713 -37.9691,-157.3073 -38.2197,-154.6275 -38.1353,-153.507 A2.6788,2.6788 0 0 1 -43.4756,-153.0761 ZM-38.2192,-163.3325 T-39.0662,-162.8093 -39.9132,-162.2861 A2.7167,2.7167 0 0 1 -42.7529,-166.9185 T-41.9023,-167.4359 -41.0518,-167.9533 A2.71,2.71 0 0 1 -38.2192,-163.3325 ZM-44.0393,-164.364 T-44.0065,-165.9266 -43.9093,-169.4104 -43.8104,-173.0002 -43.7649,-175.3865 -43.754,-176.1042 A2.6794,2.6794 0 0 1 -38.3955,-176.0584 T-38.3978,-174.5892 -38.4337,-171.1845 -38.7359,-167.2547 -38.8156,-165.0505 -38.6268,-164.8406 A2.7167,2.7167 0 0 1 -44.0393,-164.364 ZM-39.1285,-174.2397 T-39.7829,-173.5343 -40.4372,-172.8288 A2.6986,2.6986 0 0 1 -44.3575,-176.5383 T-43.6892,-177.2306 -43.0209,-177.9228 A2.6794,2.6794 0 0 1 -39.1285,-174.2397 ZM-44.9839,-173.9141 T-45.2659,-174.8611 -45.65,-177.8249 -45.5164,-181.3847 -45.1205,-184.997 -44.8973,-188.6118 -44.8341,-190.1574 A2.7454,2.7454 0 0 1 -39.3465,-189.9701 T-39.3693,-189.1873 -39.4917,-186.4367 -39.9377,-182.2041 -40.2513,-178.3825 -40.0146,-176.1393 -39.8108,-175.453 A2.6986,2.6986 0 0 1 -44.9839,-173.9141 ZM-39.6103,-188.8863 T-39.878,-188.3928 -41.0439,-186.4641 -41.9421,-185.0289 A2.7944,2.7944 0 0 1 -46.4373,-188.3497 T-45.9437,-188.7985 -45.0102,-190.2443 -44.5704,-191.2412 A2.7454,2.7454 0 0 1 -39.6103,-188.8863 ZM-46.7322,-185.5299 T-47.1628,-186.5322 -47.4701,-189.9477 -46.9212,-194.586 -46.2587,-198.5687 -46.0218,-200.3264 A2.8808,2.8808 0 0 1 -40.3098,-199.5724 T-40.4393,-198.6008 -41.01,-195.6438 -41.7544,-191.1456 -41.8524,-188.2408 -41.6472,-187.8487 A2.7944,2.7944 0 0 1 -46.7322,-185.5299 ZM-45.9156,-199.0904 T-46.3791,-200.6553 -46.8931,-204.5431 -47.366,-208.7896 -47.7886,-210.7131 A2.7922,2.7922 0 0 1 -42.3514,-211.9869 T-41.7372,-209.4848 -41.0778,-204.8016 -40.7243,-201.7144 -40.416,-200.8084 A2.8808,2.8808 0 0 1 -45.9156,-199.0904 Z" stroke-linecap="round" fill="#4dabf7"/></g></g></svg>