<svg xmlns="http://www.w3.org/2000/svg" direction="ltr" width="641" height="626.8523092964294" viewBox="81 126.52699999999999 641 626.8523092964294" stroke-linecap="round" stroke-linejoin="round" style="background-color: transparent;"><defs/><g transform="matrix(1, 0, 0, 1, 199, 159)" opacity="1"><g transform="scale(1)"><path d="M2.3742,0.9395 T2.0263,1.7272 1.6194,4.6503 1.5239,9.1406 1.481,13.9564 1.4803,18.9063 1.4982,23.7678 1.5229,28.3752 1.1742,32.8211 0.9258,37.6242 1.4574,42.4255 2.1652,47.0257 2.896,51.763 3.4844,56.3396 4.0364,60.8554 4.5732,65.6094 4.7417,70.3264 4.7967,75.0072 4.5605,80.2021 4.1487,85.2577 3.9453,89.9952 3.5194,95.0711 2.7641,100.0444 2.1738,105.1279 1.9264,110.0679 1.8857,114.4492 1.8801,119.0437 1.8879,123.8059 1.8995,128.3788 1.6075,132.8426 1.1407,137.87 0.9435,142.6985 0.9057,146.7522 0.8972,150.7663 0.8992,155.7047 0.9023,160.6875 0.9035,164.7483 0.9027,169.0017 0.906,173.4332 0.9172,178.0388 0.9301,182.5681 0.9378,186.7151 0.9403,190.756 1.1326,194.9815 1.7643,199.6974 2.7005,204.694 3.7026,209.6868 4.5476,214.7483 4.9426,220.0863 5.016,225.8214 5.0412,230.7798 5.0506,234.7739 5.0533,238.7629 5.4841,243.6619 5.9743,248.6432 6.056,253.3778 6.0823,258.9255 6.0858,263.7969 6.084,267.7787 6.0858,271.7736 6.0903,276.1413 5.7224,280.9896 5.2575,285.5861 5.1337,290.0882 5.0965,294.9421 5.0868,299.9023 5.0907,304.8914 5.1015,309.7637 5.117,314.6036 5.1384,319.5591 5.1591,324.3103 5.1791,328.88 5.1992,333.3994 5.2147,337.6683 5.2268,341.743 5.2368,345.7637 5.2457,350.1306 5.2533,354.5936 5.2591,358.7222 5.2617,362.9944 5.2581,367.3065 5.2499,371.5179 5.2416,375.7012 5.2342,380.393 5.232,385.9283 5.2347,391.3678 5.2338,396.1956 5.2209,400.8093 5.1941,405.3259 5.1681,409.5918 5.497,413.6951 5.968,418.0635 6.1115,422.7179 6.1253,427.7215 6.1331,432.7881 6.1445,437.6166 5.788,442.7154 5.3352,447.5093 5.2162,452.3551 5.5083,457.549 6.3723,462.8216 6.9641,466.6758 7.0126,467.7681 A3.0216,3.0216 0 0 1 0.9874,468.2319 T0.8114,466.4691 0.0669,462.7205 -0.8333,457.8683 -1.1278,452.2363 -0.9804,447.1124 -0.5103,442.4067 -0.1448,437.6045 -0.1343,432.7894 -0.1322,427.732 -0.1581,422.8127 -0.3369,418.1044 -0.8252,413.6506 -1.1681,409.5918 -1.1941,405.3259 -1.2209,400.8093 -1.2338,396.1956 -1.2347,391.3678 -1.232,385.9283 -1.2342,380.393 -1.2416,375.7012 -1.2499,371.5179 -1.2581,367.3065 -1.2617,362.9944 -1.2591,358.7222 -1.2533,354.5936 -1.2457,350.1306 -1.2368,345.7637 -1.2268,341.743 -1.2147,337.6683 -1.1992,333.3994 -1.1791,328.88 -1.1591,324.3103 -1.1384,319.5591 -1.1169,314.6034 -1.1009,309.763 -1.0886,304.8889 -1.0792,299.8933 -1.0691,294.9091 -1.0352,289.963 -0.9026,285.1854 -0.4447,280.6722 -0.0903,276.1254 -0.0859,271.7737 -0.0843,267.7791 -0.088,262.8172 -0.0915,257.0851 -0.1196,251.5985 -0.3249,246.1758 -0.7788,241.1231 -1.053,236.7734 -1.0475,232.7778 -1.0354,227.8091 -1.033,222.0328 -1.2406,216.6196 -1.9351,211.5028 -2.9201,206.4699 -3.8954,201.2903 -4.6596,195.7004 -4.9403,190.756 -4.9378,186.7151 -4.9301,182.5681 -4.9171,178.0388 -4.906,173.4332 -4.9027,169.0016 -4.9034,164.7482 -4.902,160.6871 -4.8973,155.7022 -4.8896,150.7565 -4.8784,146.7175 -4.8449,142.5797 -4.7064,138.0469 -4.2502,133.111 -3.8988,128.3781 -3.8854,123.8032 -3.8714,119.0333 -3.8542,114.4152 -3.8129,109.9285 -3.6546,105.4796 -3.1197,101.3483 -2.4897,96.9504 -2.0229,92.2456 -1.6663,87.3776 -1.1937,82.4253 -0.8287,77.6164 -0.8328,72.8329 -0.8854,68.148 -1.0994,63.7739 -1.5715,59.2746 -2.0531,54.7699 -2.5927,50.2979 -3.3944,45.4607 -4.1647,40.8777 -4.3758,36.5515 -3.8897,31.4262 -3.5078,26.0051 -3.4839,21.3119 -3.464,16.5654 -3.4424,11.6254 -3.3902,6.8287 -2.9869,2.1804 -2.4993,-0.532 -2.3742,-0.9395 A2.5533,2.5533 0 0 1 2.3742,0.9395 Z" stroke-linecap="round" fill="#9398b0"/></g></g><g transform="matrix(1, 0, 0, 1, 138, 600)" opacity="1"><g transform="scale(1)"><path d="M-0.9444,3.3053 T-2.5665,2.7161 -6.2874,1.3234 -10.3325,-0.677 -13.269,-2.0661 -14.2592,-2.2583 A2.6542,2.6542 0 0 1 -13.4818,-7.5094 T-12.2018,-7.332 -8.9411,-6.3128 -4.6969,-4.7449 -0.7445,-3.6621 0.9444,-3.3053 A3.4376,3.4376 0 0 1 -0.9444,3.3053 ZM-11.5511,-6.1742 T-11.1686,-5.4453 -8.527,-4.4398 -3.7274,-3.8319 1.369,-3.3906 6.2293,-3.3171 10.8644,-3.5908 15.331,-4.3111 19.5281,-5.1203 24.5445,-6.0108 29.9427,-6.6913 34.7631,-6.8591 39.5563,-6.9517 45.3609,-6.7451 51.7163,-6.0066 56.8525,-5.4021 61.915,-5.273 66.7948,-5.2676 70.7371,-5.6175 75.3728,-6.1236 80.572,-6.3222 85.7179,-6.3756 91.1004,-6.4056 96.1454,-6.7583 101.4597,-7.5912 106.6556,-8.3856 111.4303,-9.0304 116.1338,-9.4113 120.2485,-9.46 124.6428,-9.4674 129.216,-9.0829 133.4518,-8.2185 138.2434,-6.9006 143.0434,-5.5108 147.3985,-4.4569 151.9374,-3.7523 156.7544,-3.4616 162.4389,-3.0671 168.2188,-2.5775 173.4515,-2.3311 178.1536,-2.4467 183.0675,-2.8261 189.2718,-3.4103 195.9166,-4.2444 201.355,-4.8098 205.6536,-4.9428 210.1007,-4.9548 214.5859,-4.9402 218.7199,-4.9203 222.7573,-4.8972 227.0042,-4.8708 231.4339,-4.8425 235.6779,-4.8186 239.7456,-4.7997 244.404,-4.7865 249.9299,-4.7823 254.7975,-4.7833 259.417,-4.7855 264.9318,-4.7952 269.7978,-4.8084 274.007,-4.8178 278.2061,-5.175 282.3911,-5.6415 287.0255,-5.7832 292.3735,-6.0282 298.0627,-6.4619 303.072,-6.9364 307.8174,-7.429 312.7239,-7.7206 317.12,-7.7905 321.2264,-7.8056 325.4965,-7.7995 329.6952,-7.781 334.102,-7.7594 339.4777,-8.1615 344.5911,-8.6277 348.721,-8.6941 352.9946,-8.7105 358.342,-8.7169 363.7991,-8.7231 368.3769,-8.7276 372.662,-8.7344 377.0515,-8.4245 381.6801,-7.9682 386.8915,-7.7943 392.3622,-7.7582 397.1965,-7.434 401.7306,-6.9862 406.8971,-6.8389 411.7918,-6.8214 416.0136,-6.8272 421.497,-6.5402 427.3405,-6.0764 432.1086,-5.4975 436.4524,-4.9961 440.6771,-4.8684 445.3888,-4.8239 451.0988,-4.8074 456.3764,-4.8018 461.023,-4.8028 465.5466,-5.0062 470.0387,-5.4331 474.5525,-5.7167 478.7095,-5.7919 482.7543,-5.816 486.7668,-5.8271 490.7703,-5.8332 494.7713,-5.8307 498.8155,-5.9395 502.0398,-6.2512 503.2201,-6.4501 A3.5372,3.5372 0 0 1 504.7799,0.4501 T503.6289,0.7783 499.6248,1.4666 494.7718,1.831 490.7722,1.8343 486.7737,1.8311 482.779,1.8305 477.8148,1.8608 472.0034,2.0751 466.3031,2.5332 461.0228,2.8026 456.3755,2.8011 451.0916,2.8035 445.3441,2.7975 440.5124,2.7622 435.8168,2.6139 430.4016,2.085 425.2363,1.436 420.5897,1.0122 416.007,0.8232 411.767,0.8069 407.7547,0.7731 403.7039,0.6854 399.4361,0.3396 395.1278,-0.0973 390.4013,-0.2619 385.7344,-0.2991 381.6145,-0.4464 377.1202,-0.913 372.6621,-1.2656 368.3772,-1.2722 363.8,-1.2763 358.3469,-1.2795 353.0176,-1.2751 347.8322,-1.2358 342.1525,-1.0104 336.8278,-0.5297 331.9689,-0.2294 327.6301,-0.2079 323.263,-0.1886 318.1117,-0.1575 313.0311,-0.0779 308.7849,0.1546 303.9805,0.6516 298.9078,1.1393 293.0623,1.5797 287.1884,1.8818 282.072,2.0913 276.5301,2.5458 271.7854,2.8135 266.8561,2.7996 261.3482,2.7872 256.7853,2.7836 251.8551,2.7827 246.3414,2.783 241.7579,2.7916 237.7222,2.8087 233.5937,2.8298 229.1309,2.8577 224.7647,2.8865 220.7466,2.9105 216.6814,2.9347 212.445,2.9649 207.0823,3.0427 201.2494,3.3309 196.0788,3.9749 191.0415,4.8095 186.1617,5.3328 181.0592,5.8145 175.7013,6.1735 170.2294,6.0579 164.6439,5.613 159.2739,5.2436 153.5682,5.0804 148.0331,4.44 143.1575,3.3967 138.4459,2.2127 133.1963,0.8578 127.7218,-0.1918 122.9569,-0.528 118.2046,-0.513 113.5433,-0.3326 109.3801,0.2105 105.0165,1.0379 100.6567,1.6169 96.247,2.0812 91.1029,2.4066 85.7339,2.3824 80.6805,2.3687 75.7051,2.5212 69.966,2.9626 64.7554,3.2303 60.7115,3.1594 56.5285,2.9543 51.8282,2.2979 46.5773,1.4107 41.1904,0.9809 36.3292,0.9074 31.8358,0.8725 27.2,1.0194 22.8048,1.5391 18.5795,2.3365 14.4539,3.0952 10.4728,3.3664 6.0761,3.2099 1.5639,2.9373 -3.1734,2.2569 -7.8364,1.1943 -12.3323,-0.2576 -15.4877,-2.3727 -16.1899,-3.5935 A2.6542,2.6542 0 0 1 -11.5511,-6.1742 Z" stroke-linecap="round" fill="#9398b0"/></g></g><g transform="matrix(1, 0, 0, 1, 475, 590)" opacity="1"><g transform="scale(1)"><path d="M3.2687,-0.6537 T3.4923,0.5246 4.3902,3.8636 5.0644,6.0242 A3.2808,3.2808 0 0 1 -1.3,7.6209 T-2.0349,5.3239 -3.0193,1.8404 -3.2687,0.6537 A3.3335,3.3335 0 0 1 3.2687,-0.6537 ZM-1.3962,6.6967 T-1.3098,5.4268 -1.1513,1.5754 -1.0792,-1.0061 A3.0792,3.0792 0 0 1 5.0792,-0.9939 T5.1341,1.6274 5.1748,5.5986 5.1606,6.9484 A3.2808,3.2808 0 0 1 -1.3962,6.6967 ZM5.0792,-0.9998 T5.0869,0.2097 5.1233,3.4141 5.5445,7.6222 6.0163,12.7764 6.0858,17.3217 6.0759,18.926 A3.0768,3.0768 0 0 1 -0.0759,19.074 T-0.1629,17.4721 -0.3712,13.1657 -0.8223,7.9507 -1.1236,3.4301 -1.0871,0.2098 -1.0792,-1.0002 A3.0792,3.0792 0 0 1 5.0792,-0.9998 Z" stroke-linecap="round" fill="#e03131"/></g></g><g transform="matrix(1, 0, 0, 1, 468, 662)" opacity="1"><g transform="scale(1)"><path d="M-2.0909,-2.6136 T-0.8894,-3.5266 -0.7466,-1.9042 -2.1876,3.4094 -0.3158,5.2562 3.2779,2.3744 4.9987,-0.3833 5.38,-1.1906 A2.8778,2.8778 0 0 1 10.62,1.1906 T9.8306,2.9549 7.4021,6.9073 3.2336,10.7781 -1.948,12.3916 -6.5098,10.6072 -8.6839,6.3252 -8.4198,0.8912 -6.7068,-4.35 -3.9254,-8.7567 0.3924,-11.4881 4.826,-10.5905 6.9203,-6.5371 5.86,-1.7124 3.2544,1.6346 2.0909,2.6136 A3.3471,3.3471 0 0 1 -2.0909,-2.6136 ZM10.6767,1.0568 T10.3558,1.8159 9.9982,4.7731 12.3901,9.4094 14.8186,11.8476 A2.8178,2.8178 0 0 1 11.1814,16.1524 T8.7719,14.1834 5.2328,9.5692 4.2549,4.1482 4.8649,0.1578 5.3233,-1.0568 A2.8778,2.8778 0 0 1 10.6767,1.0568 Z" stroke-linecap="round" fill="#e03131"/></g></g><g transform="matrix(1, 0, 0, 1, 208, 279)" opacity="1"><g transform="scale(1)"><path d="M-0.8658,3.0304 T-2.5103,2.5213 -6.4255,1.6384 -11.167,1.3042 -13.6379,1.3438 A2.9068,2.9068 0 0 1 -14.799,-4.3526 T-13.4377,-4.5973 -10.0562,-4.7605 -5.2515,-4.2917 -0.8007,-3.4673 0.8658,-3.0304 A3.1516,3.1516 0 0 1 -0.8658,3.0304 ZM-12.3563,-3.7364 T-12.0251,-3.3794 -9.2936,-2.5402 -4.5187,-2.1915 -0.8422,-2.5254 0.4598,-2.7257 A2.7787,2.7787 0 0 1 1.5402,2.7257 T-1.1955,3.3497 -6.5582,3.8463 -11.5824,3.0191 -15.0301,1.5234 -16.0807,0.7275 A2.9068,2.9068 0 0 1 -12.3563,-3.7364 Z" stroke-linecap="round" fill="#ffc034"/></g></g><g transform="matrix(1, 0, 0, 1, 154, 262)" opacity="1"><g transform="scale(1)"><path d="M3.1595,-1.2638 T3.5969,-0.0662 4.2455,3.7167 4.0565,8.4738 3.1641,12.6778 2.1104,17.3506 1.8371,20.2195 2.1255,20.448 A3.08,3.08 0 0 1 -2.8767,24.0431 T-3.3726,20.4935 -3.5788,14.9013 -2.6812,10.2594 -2.1078,5.6293 -2.6509,2.4312 -3.1595,1.2638 A3.4029,3.4029 0 0 1 3.1595,-1.2638 ZM0.3684,19.2568 T1.3614,19.4852 4.6732,20.1084 9.3629,19.6674 12.6913,18.4215 13.6489,18.0111 A3.2801,3.2801 0 0 1 16.3511,23.9889 T15.4105,24.4366 12.3891,25.6948 8.1093,26.6927 3.5911,26.3737 0.0762,25.5508 -1.1197,25.2344 A3.08,3.08 0 0 1 0.3684,19.2568 Z" stroke-linecap="round" fill="#ffc034"/></g></g><g transform="matrix(1, 0, 0, 1, 481, 292)" opacity="1"><g transform="scale(1)"><path d="M1.3333,2.6666 T0.3094,3.1212 -3.1469,3.3658 -7.5871,1.8112 -10.7993,-1.2746 -12.7293,-5.2485 -13.5497,-9.7258 -12.8198,-14.1302 -10.7183,-17.9481 -7.8633,-20.8118 -4.0437,-22.7889 0.4733,-24.1999 5.191,-23.7582 9.2815,-21.4589 12.2849,-18.588 14.591,-15.0521 16.2351,-10.9688 17.0657,-6.4696 16.2911,-1.6582 13.3511,2.2395 8.9331,3.9718 4.194,4.3847 -0.6949,4.116 -4.0982,3.4874 -4.9616,3.1934 A3.3351,3.3351 0 0 1 -3.0384,-3.1934 T-0.6145,-2.8315 4.5929,-2.4721 9.0694,-3.7627 10.577,-7.202 9.5452,-11.2966 7.2085,-14.9838 3.9277,-17.8249 -0.1526,-18.4164 -4.2456,-16.7943 -7.1884,-13.7415 -8.2235,-9.765 -7.1609,-5.9495 -4.6362,-2.9288 -2.2014,-2.1752 -1.3333,-2.6666 A2.9814,2.9814 0 0 1 1.3333,2.6666 Z" stroke-linecap="round" fill="#f2f2f2"/></g></g><g transform="matrix(1, 0, 0, 1, 183, 551)" opacity="1"><g transform="scale(1)"><path d="M-3.1988,0 T-3.1518,-1.419 -3.0569,-4.9387 -2.9868,-9.2463 -3.3893,-13.6862 -3.9035,-18.6172 -3.7098,-23.375 -2.9501,-27.6974 -2.0084,-31.9041 -0.6397,-36.4082 1.1912,-41.4417 3.1538,-46.681 5.5417,-51.357 8.5438,-55.2856 11.9103,-58.7124 15.4601,-61.4568 19.1844,-63.8968 23.379,-66.3265 28.1402,-68.7203 33.4533,-70.5907 39.2675,-71.952 44.8174,-73.0238 49.5363,-73.6922 54.5811,-74.3307 59.5961,-74.8864 63.7107,-74.9858 68.2344,-75.4531 73.0849,-75.977 77.787,-76.0857 82.2414,-76.1163 86.6397,-75.6954 91.2663,-74.7848 95.7823,-73.8126 100.5082,-72.9005 105.7239,-72.3486 110.5194,-71.7905 114.9862,-71.3101 119.8285,-71.2585 124.5794,-71.2552 128.8622,-71.2524 132.884,-71.2512 136.8857,-71.2485 141.3126,-71.2406 145.807,-71.2316 150.3708,-71.5246 155.0422,-73.1027 159.0413,-75.7395 161.2936,-79.0681 162.2234,-83.111 162.7617,-87.4705 162.7974,-92.0543 162.7894,-96.5966 162.7758,-101.0254 162.3463,-105.6672 161.8573,-110.5612 162.2256,-115.0848 163.4509,-119.1883 164.9191,-124.0779 166.5881,-129.4765 168.6025,-134.1273 171.2007,-138.0729 174.2071,-141.4362 177.7851,-144.6795 181.6301,-147.5868 185.137,-150.115 189.1584,-152.6005 193.3866,-154.7849 197.4023,-156.8066 201.9269,-158.8462 207.4713,-160.4807 212.8314,-161.8729 217.5954,-163.9129 222.3021,-166.0543 226.4795,-167.8666 230.3821,-169.8136 234.8832,-171.8896 239.3824,-173.9025 243.7346,-176.2637 248.0915,-179.119 252.0695,-181.6243 255.9975,-184.077 259.9009,-186.9672 263.8295,-190.3788 267.1777,-194.3711 270.0226,-198.8937 272.5805,-203.0223 275.0267,-206.7483 277.3913,-210.8023 278.9004,-214.9475 280.0464,-219.4533 281.1858,-224.2974 282.18,-229.2852 282.9851,-233.8946 284.1046,-239.2119 285.0297,-244.4793 286.0447,-248.5524 286.6234,-252.3327 286.3124,-254.0968 A4.6886,4.6886 0 0 1 295.6876,-253.9032 T295.4286,-250.239 294.3994,-244.5741 293.1552,-240.2198 292.6239,-235.7386 292.0477,-231.1124 291.0384,-226.6785 290.2916,-222.7031 289.4988,-218.5625 287.9839,-214.0405 285.9274,-209.0622 283.7715,-204.3982 281.161,-200.1895 278.6236,-196.0794 276.0225,-191.4706 272.8333,-187.2862 269.4434,-183.6754 265.7186,-180.1282 261.6165,-177.0258 256.9681,-173.9845 252.097,-171.0455 247.9983,-168.5206 244.1361,-166.4208 239.6524,-164.4345 235.4044,-162.5378 231.3331,-160.5255 226.9349,-158.4578 222.6759,-156.8685 218.1445,-154.8285 213.5753,-152.8538 209.0971,-151.8337 204.4798,-150.4241 200.295,-148.5347 196.3148,-146.5486 192.039,-144.1241 187.6272,-141.1701 183.3396,-138.1811 179.7004,-134.8381 177.0247,-131.2854 174.8159,-127.1254 172.9892,-122.568 171.6753,-118.5422 170.7313,-114.2542 170.3679,-109.5891 170.8431,-104.4294 171.2172,-99.1662 171.2025,-94.2869 171.1848,-89.5652 170.9669,-84.5253 170.1574,-79.1207 168.1907,-74.1027 165.225,-70.2862 161.5594,-67.3636 157.7327,-64.9051 154.0142,-63.3741 149.9664,-62.7936 145.807,-62.7684 141.3126,-62.7594 136.8857,-62.7515 132.884,-62.7489 128.862,-62.7477 124.5769,-62.7458 119.7972,-62.7539 114.5934,-62.8511 109.2395,-63.3866 104.1826,-64.0129 99.4093,-64.6044 94.8775,-65.5261 90.4072,-66.5293 85.3863,-67.446 80.5994,-67.88 76.3647,-67.8888 71.464,-67.7126 65.2833,-67.2456 59.094,-66.8571 54.1848,-66.3664 49.8415,-65.8393 45.5269,-65.2632 41.3711,-64.3807 36.9971,-63.3777 32.6569,-62.331 28.8281,-60.9204 24.5942,-58.5239 20.1666,-55.6196 16.4065,-52.7593 13.1846,-49.4159 10.5922,-45.6873 8.6625,-42.0239 6.8514,-37.8188 4.8308,-32.5604 3.2957,-27.668 2.4127,-23.5388 2.0712,-18.891 2.5356,-13.9517 2.9868,-9.2773 3.0569,-4.9387 3.1518,-1.419 3.1988,0 A3.1988,3.1988 0 0 1 -3.1988,0 Z" stroke-linecap="round" fill="#4dabf7"/></g></g><g transform="matrix(1, 0, 0, 1, 690, 409)" opacity="1"><g transform="scale(1)"><path d="M-2.2329,1.1165 T-2.6976,0.1646 -4.7524,-2.886 -9.0208,-6.3092 -13.8218,-8.6931 -18.4379,-10.6777 -23.0434,-12.297 -27.5947,-13.876 -32.4876,-15.4433 -37.0182,-16.6507 -41.1622,-17.278 -45.5337,-17.3925 -50.447,-16.9675 -55.2682,-16.4495 -59.5702,-16.6306 -63.4876,-17.7667 -67.1988,-19.5726 -70.9632,-21.8923 -75.2067,-25.367 -79.2047,-29.1499 -82.5662,-33.2695 -85.6943,-38.0707 -88.1916,-42.9836 -89.9114,-47.7123 -90.7594,-52.07 -91.0412,-56.771 -91.1331,-61.4331 -90.7809,-66.3387 -89.9977,-71.1984 -89.5106,-75.7168 -89.0477,-80.2317 -88.5918,-85.3085 -88.5095,-90.7128 -88.515,-95.353 -88.7259,-99.6613 -89.323,-103.7142 -90.8022,-108.8211 -92.8548,-114.1513 -94.8078,-118.3781 -97.1952,-122.3826 -100.2645,-125.8818 -102.4125,-127.4467 -102.8904,-127.4951 A3.4211,3.4211 0 0 1 -100.8942,-134.0397 T-99.389,-133.4832 -96.1465,-131.5246 -92.8603,-128.0272 -90.1436,-123.9037 -87.939,-119.7228 -85.8449,-114.8607 -83.8635,-109.9078 -82.4778,-105.4083 -81.7513,-100.3665 -81.5001,-95.334 -81.5449,-90.6448 -81.6526,-85.8878 -82.2008,-80.7623 -82.8544,-75.1394 -83.5572,-69.4344 -84.4636,-64.3719 -84.88,-60.013 -84.904,-55.4497 -84.357,-50.8127 -83.1696,-46.455 -81.562,-42.3054 -79.0625,-38.0726 -76.0782,-34.1762 -72.6288,-30.5593 -68.6361,-27.0101 -64.773,-24.4096 -60.2279,-22.567 -55.5283,-21.7179 -51.4418,-22.1747 -46.9213,-22.5691 -42.1897,-22.4579 -37.556,-21.8244 -32.7398,-20.6123 -28.3651,-19.2627 -23.9476,-17.9095 -19.0101,-16.2887 -13.9249,-14.3699 -9.3795,-12.2585 -4.6986,-9.3693 -0.3257,-5.3077 1.7516,-2.0566 2.2329,-1.1165 A2.4965,2.4965 0 0 1 -2.2329,1.1165 ZM-100.2975,-127.7408 T-101.1747,-127.3285 -103.2581,-124.5938 -105.4669,-119.3931 -107.4854,-113.9502 -109.3751,-108.9733 -111.3132,-103.7688 -113.738,-99.1088 -117.2296,-95.6636 -121.6071,-93.9505 -126.0486,-94.1941 -130.0475,-95.5783 -133.4364,-97.9065 -136.8154,-101.4761 -139.7373,-106.6174 -141.4306,-112.0184 -142.5503,-117.5591 -143.6069,-123.1351 -144.876,-128.2045 -146.0072,-133.102 -146.8409,-138.3739 -147.8332,-144.2584 -148.5147,-149.7961 -149.0821,-154.6608 -149.9834,-159.4128 -150.9952,-164.2408 -151.8567,-168.6089 -152.8745,-173.4375 -154.4892,-179.1175 -156.4037,-184.51 -158.4332,-189.1385 -160.7356,-193.1849 -162.9733,-197.0531 -166.0715,-200.5003 -170.312,-202.5498 -174.6902,-202.8367 -179.1733,-201.345 -183.1816,-197.8962 -186.1003,-193.8764 -188.2354,-190.0809 -190.2245,-185.7455 -192.2636,-180.7739 -194.589,-176.1206 -196.0601,-171.7932 -196.7739,-167.5617 -198.602,-162.796 -200.8611,-157.1036 -202.0999,-152.0187 -202.9991,-146.3712 -203.6203,-142.9011 A3.5539,3.5539 0 0 1 -210.3797,-145.0989 T-209.9535,-146.6427 -209.3243,-150.6094 -208.5817,-155.0354 -207.1594,-159.3824 -205.3181,-164.1862 -203.7679,-168.821 -202.7542,-173.3093 -201.5983,-177.5336 -199.5096,-181.7727 -197.5944,-186.1942 -196.036,-190.3059 -194.0301,-194.3291 -191.4286,-198.4773 -188.6233,-202.331 -185.1587,-205.9522 -180.6899,-208.9086 -175.5322,-210.3408 -170.482,-210.2037 -165.9939,-208.99 -161.9234,-207.029 -158.5515,-203.9415 -155.7505,-200.3642 -153.119,-195.992 -150.5804,-190.7981 -148.479,-185.2976 -146.5004,-179.5494 -145.0667,-174.6601 -144.1331,-170.1276 -143.2649,-165.2948 -142.3523,-160.3995 -141.5257,-155.2501 -140.9859,-149.6924 -140.3646,-143.7223 -139.507,-137.5612 -138.6353,-132.4912 -137.5996,-128.1989 -136.6256,-123.2752 -135.7273,-117.6858 -134.7862,-112.3983 -133.4743,-108.0377 -131.1264,-104.2188 -127.2771,-101.3534 -122.6084,-100.3403 -119.0392,-102.4671 -116.7781,-107.3603 -114.802,-112.6636 -112.9576,-117.3858 -111.429,-121.9529 -109.7373,-126.2618 -107.3589,-130.3403 -104.7508,-133.0782 -103.4872,-133.794 A3.4211,3.4211 0 0 1 -100.2975,-127.7408 Z" stroke-linecap="round" fill="#4dabf7"/></g></g><g transform="matrix(1, 0, 0, 1, 477, 566)" opacity="1"><g transform="scale(1)"><path d="M-2.6731,2.0048 T-3.3631,1.0443 -5.4018,-1.9168 -7.3293,-5.9657 -7.6086,-10.6293 -5.6574,-14.4681 -1.8316,-16.3383 2.8925,-16.2322 7.3443,-13.5698 10.1085,-9.7196 11.0529,-5.4365 9.6597,-1.2522 5.7042,0.919 1.1506,0.8692 -2.765,-0.2514 -5.4308,-3.2416 -6.2542,-5.4901 A3.3857,3.3857 0 0 1 0.4498,-6.4423 T0.0927,-6.3282 2.1491,-6.3216 3.3623,-8.2424 0.361,-8.8095 -0.1124,-5.7156 1.9441,-2.9363 2.6731,-2.0048 A3.3413,3.3413 0 0 1 -2.6731,2.0048 ZM-5.8075,-7.7044 T-5.1313,-8.8389 -2.7378,-11.2527 1.5232,-11.6987 5.0603,-8.9872 6.0538,-7.109 A3.4486,3.4486 0 0 1 -0.5081,-4.9846 T0.3144,-5.5496 0.57,-5.1712 0.0032,-4.2279 A3.3857,3.3857 0 0 1 -5.8075,-7.7044 ZM4.2695,-2.9399 T2.7169,-2.362 -0.901,-2.6036 -4.4432,-5.5034 -5.9201,-7.5839 A3.4943,3.4943 0 0 1 0.523,-10.2908 T0.5972,-9.4065 0.9738,-8.838 1.2762,-9.1537 A3.4486,3.4486 0 0 1 4.2695,-2.9399 ZM-5.6185,-10.8568 T-5.4578,-11.1111 -5.2972,-11.3654 A3.5052,3.5052 0 0 1 0.5609,-7.5145 T0.3911,-7.2662 0.2214,-7.0179 A3.4943,3.4943 0 0 1 -5.6185,-10.8568 ZM-0.3117,-12.2786 T1.354,-11.0333 3.0197,-9.788 A3.4427,3.4427 0 0 1 -1.0197,-4.212 T-2.7221,-5.4067 -4.4245,-6.6014 A3.5052,3.5052 0 0 1 -0.3117,-12.2786 Z" stroke-linecap="round" fill="#e599f7"/></g></g><g transform="matrix(1, 0, 0, 1, 193, 244)" opacity="1"><g transform="scale(1)"><path d="M0,-2.3613 T1.5,-2.3371 3,-2.3129 A2.3129,2.3129 0 0 1 3,2.3129 T1.5,2.3371 0,2.3613 A2.3613,2.3613 0 0 1 0,-2.3613 ZM3,2.3129 T2.3213,2.3041 -0.8311,1.7402 -3.3047,1.1851 A2.2129,2.2129 0 0 1 -1.0607,-2.6297 T0.2909,-2.4625 2.3213,-2.3041 3,-2.3129 A2.3129,2.3129 0 0 1 3,2.3129 ZM-4.0314,-1.9386 T-3.9889,-2.0048 -3.9463,-2.0709 A2.2146,2.2146 0 0 1 -0.2463,0.3636 T-0.2902,0.4288 -0.3341,0.4941 A2.2129,2.2129 0 0 1 -4.0314,-1.9386 ZM-1.3558,-2.9407 T-0.6646,-2.6935 2.2193,-2.0269 7.74,-1.4504 11.0679,-1.2931 A2.2941,2.2941 0 0 1 10.9321,3.2931 T9.4673,3.2639 5.8406,3.1088 1.4675,2.4774 -1.7902,1.6028 -2.8368,1.2335 A2.2146,2.2146 0 0 1 -1.3558,-2.9407 Z" stroke-linecap="round" fill="#f76707"/></g></g><g transform="matrix(1, 0, 0, 1, 122, 223)" opacity="1"><g transform="scale(1)"><path d="M3.2248,0 T3.1866,1.6555 2.8513,6.3271 2.3556,11.7417 1.7116,16.3545 3.6627,18.2681 8.0786,17.4921 10.0978,17.0169 A3.1165,3.1165 0 0 1 11.9022,22.9831 T10.9913,23.2666 7.543,23.895 3.0412,24.6954 -1.3125,24.7145 -4.2457,21.7085 -4.327,16.4851 -3.6823,11.083 -3.3243,5.8229 -3.1866,1.6555 -3.2248,0 A3.2248,3.2248 0 0 1 3.2248,0 Z" stroke-linecap="round" fill="#f76707"/></g></g><g transform="matrix(1, 0, 0, 1, 144, 226)" opacity="1"><g transform="scale(1)"><path d="M-0.8592,-2.148 T0.3154,-2.6422 3.9366,-3.7055 8.3127,-4.7694 10.2424,-5.2642 A2.3876,2.3876 0 0 1 11.7576,-0.7358 T9.8544,-0.0996 5.5956,0.8905 2.0496,1.6962 0.8592,2.148 A2.3135,2.3135 0 0 1 -0.8592,-2.148 Z" stroke-linecap="round" fill="#f76707"/></g></g><g transform="matrix(1, 0, 0, 1, 172, 209)" opacity="1"><g transform="scale(1)"><path d="M1.8095,1.4476 T0.8637,2.6303 -1.519,6.0154 -1.8256,9.3528 -0.6952,10.4877 A2.4284,2.4284 0 0 1 1.535,14.8022 T-0.3843,15.4825 -4.7663,15.0529 -7.6267,11.5739 -7.0926,6.7656 -4.9314,2.6217 -2.7557,-0.2653 -1.8095,-1.4476 A2.3172,2.3172 0 0 1 1.8095,1.4476 ZM0.2988,15.0704 T0.1245,14.8946 0.9028,17.2538 3.8808,20.7027 7.4324,21.47 8.9587,21.3232 A2.6771,2.6771 0 0 1 9.0413,26.6768 T7.9665,26.6888 4.4895,26.1709 -0.0918,24.125 -3.4975,20.8269 -4.7283,16.3963 -3.4752,12.0818 -0.8384,10.3177 0.541,10.2196 A2.4284,2.4284 0 0 1 0.2988,15.0704 Z" stroke-linecap="round" fill="#f76707"/></g></g><g transform="matrix(1, 0, 0, 1, 151, 218)" opacity="1"><g transform="scale(1)"><path d="M2.1434,0 T2.1469,1.892 2.1164,7.392 2.0824,11 A2.0824,2.0824 0 0 1 -2.0824,11 T-2.1164,7.392 -2.1469,1.892 -2.1434,0 A2.1434,2.1434 0 0 1 2.1434,0 Z" stroke-linecap="round" fill="#f76707"/></g></g><g transform="matrix(1, 0, 0, 1, 191, 324)" opacity="1"><g transform="scale(1)"><path d="M-0.4579,-2.2897 T0.7207,-2.5461 4.5833,-3.0993 9.6217,-3.4618 11.976,-3.5274 A2.5275,2.5275 0 0 1 12.024,1.5274 T9.7638,1.5389 5.1672,1.7035 1.6443,2.0731 0.4579,2.2897 A2.335,2.335 0 0 1 -0.4579,-2.2897 ZM12.0006,1.5275 T10.9693,1.5081 8.9846,1.2277 8.0311,0.9667 A2.3984,2.3984 0 0 1 3.2371,1.1311 T4.4586,-1.0567 7.8103,-3.3662 10.97,-3.5077 11.9994,-3.5275 A2.5275,2.5275 0 0 1 12.0006,1.5275 ZM6.5287,-1.1764 T7.0872,-0.9558 10.3627,-0.5549 13.0796,-0.3745 A2.3758,2.3758 0 0 1 12.9204,4.3745 T11.8263,4.3476 8.2964,4.0268 5.3001,3.5035 4.7395,3.2743 A2.3984,2.3984 0 0 1 6.5287,-1.1764 Z" stroke-linecap="round" fill="#f76707"/></g></g><g transform="matrix(1, 0, 0, 1, 113, 328)" opacity="1"><g transform="scale(1)"><path d="M2.0047,-2.6729 T2.9341,-1.9222 5.1433,1.0353 6.6725,5.4511 6.9521,9.9449 6.9738,14.7953 9.219,16.785 13.9492,15.248 19.0644,13.2088 21.7032,12.1305 A3.1489,3.1489 0 0 1 24.2968,17.8695 T23.2806,18.3815 19.6816,19.9121 14.8296,21.7015 10.4067,22.9163 5.2672,22.8269 1.6513,19.8393 0.9745,14.8577 0.8402,10.2338 0.3368,6.0734 -1.0421,3.3412 -2.0047,2.6729 A3.3412,3.3412 0 0 1 2.0047,-2.6729 Z" stroke-linecap="round" fill="#f76707"/></g></g><g transform="matrix(1, 0, 0, 1, 136, 332)" opacity="1"><g transform="scale(1)"><path d="M-0.8703,-1.7407 T0.0644,-2.2342 3.7972,-4.133 7.5827,-5.7381 8.5703,-5.938 A1.9851,1.9851 0 0 1 9.4297,-2.062 T8.0147,-1.8734 4.6923,-0.4245 1.8276,1.2882 0.8703,1.7407 A1.9461,1.9461 0 0 1 -0.8703,-1.7407 Z" stroke-linecap="round" fill="#f76707"/></g></g><g transform="matrix(1, 0, 0, 1, 158, 318)" opacity="1"><g transform="scale(1)"><path d="M-2.3988,0 T-2.3961,-0.2365 -2.3935,-0.473 A2.3935,2.3935 0 0 1 2.3935,-0.473 T2.3961,-0.2365 2.3988,0 A2.3988,2.3988 0 0 1 -2.3988,0 ZM1.8421,1.0553 T1.1979,1.8153 -0.3577,4.6995 -0.9449,8.2051 -0.6207,9.5864 A2.3071,2.3071 0 0 1 1.502,13.6835 T-1.097,13.4998 -4.9043,10.8493 -5.5809,6.2889 -4.1281,1.9361 -2.5245,-1.1623 -1.8421,-2.0013 A2.3935,2.3935 0 0 1 1.8421,1.0553 ZM-1.4549,12.9503 T-1.5568,12.7985 -1.6588,12.6468 A2.3017,2.3017 0 0 1 2.1232,10.0224 T2.2296,10.171 2.3361,10.3196 A2.3071,2.3071 0 0 1 -1.4549,12.9503 ZM1.8964,12.9246 T1.3189,13.4901 0.1032,16.1881 2.1334,18.4381 6.5168,16.8559 8.2318,15.1561 A2.5546,2.5546 0 0 1 11.7682,18.8439 T9.3906,21.0688 4.9407,24.0832 -0.1634,24.5507 -4.2134,22.4364 -5.01,18.2259 -3.8956,13.6374 -2.2175,10.6057 -1.432,9.7446 A2.3017,2.3017 0 0 1 1.8964,12.9246 Z" stroke-linecap="round" fill="#f76707"/></g></g><g transform="matrix(1, 0, 0, 1, 206, 242)" opacity="1"><g transform="scale(1)"><path d="M0,0 Q2.28,0.456 3.1282,0.58 T4.6657,0.7715 5.9582,0.8757 7.1172,0.9324 8.2038,0.9632 9.2509,0.98 10.2765,0.9891 11.2904,0.9941 12.298,0.9968 13.3021,0.9982 14.3043,0.999 15.5336,0.9995 16.8863,0.9997 18.0781,0.9998 19.4105,0.9999 20.8193,1 22.2697,1 23.7427,1 25.228,1 26.7201,1 27.9877,1 29.3613,1.228 30.7926,1.58 32.2551,1.7715 33.7348,1.8757 34.9957,1.9324 36.3657,1.9632 37.7949,1.98 39.2564,1.9891 40.9635,1.9941 42.5761,1.9968 44.1374,1.9982 45.6708,1.999 47.1889,1.9995 48.9268,1.9997 50.5562,1.9998 52.1265,1.9999 53.6648,2 55.1857,2 56.697,2 58.2032,2 59.7065,2 60.9803,2 62.3573,2 63.7904,2 65.026,2 66.1541,2 67.2238,2 68.2618,2 69.2824,2 70.2936,2 71.2997,2 72.3031,2 73.5329,2 74.8859,2 76.3059,2 77.7624,2 79.2388,2 80.9539,2 82.5709,2 84.1346,2 85.8972,2 87.7681,2 89.6978,2 91.6596,2 93.4108,2 95.0475,2 96.8498,2 98.7423,2 100.6838,2 102.652,2 104.6347,2 106.3973,2 108.0401,2 109.8458,2 111.5121,2 113.1026,2 114.8798,2 116.5306,2 118.1127,2 119.6573,2 121.1816,2 122.9228,2 124.782,2 126.7054,2 128.6637,2 130.4131,2 132.0487,1.772 133.8505,1.42 135.5147,1.2285 137.104,1.1243 138.6526,1.0676 140.179,1.0368 141.6934,1.02 143.2012,1.0109 144.9335,1.0059 146.7878,1.0032 148.7086,1.0018 150.6655,1.001 152.414,1.0005 154.0492,1.0003 155.8508,1.0002 157.7428,1.0001 159.6841,1 161.6521,1 163.6348,1 165.6253,1 167.6202,1 169.6174,1 171.6159,0.772 173.615,0.42 175.8426,0.2285 178.1944,0.1243 180.3857,0.0676 182.4898,0.0368 184.5465,0.02 186.3493,0.0109 188.014,0.0059 189.8316,0.0032 191.7324,0.0018 193.6784,0.001 195.6491,0.0005 197.6331,0.0003 199.8524,-0.2278 202.1997,-0.5799 204.3886,-0.7715 206.7194,-1.1037 209.1274,-1.5124 211.3493,-1.7348 213.47,-1.8557 215.3077,-1.9215 216.9914,-1.9573 218.8193,-1.9768 220.7257,-1.9874 222.6748,-1.9931 224.6471,-1.9963 226.632,-1.998 228.6238,-1.9989 230.6194,-1.9994 232.6169,-1.9997 234.3876,-1.9998 236.0349,-1.9999 237.615,-1.9999 239.1585,-2 240.9102,-2 242.5472,-2 244.1217,-2 245.8902,-2 247.5363,-2 249.1157,-2 250.659,-2 252.1825,-1.772 253.6953,-1.42 254.9742,-1.2285 256.126,-1.1243 257.2085,-1.0676 258.2534,-1.0368 259.2779,-1.02 260.2912,-1.0109 261.2984,-1.0059 262.3023,-1.0032 263.3045,-1.0018 264.3056,-1.001 265.3063,-1.0005 266.5346,-1.0003 267.8868,-1.0002 269.0784,-1.0001 270.4107,-1 271.8194,-1 273.0418,-1 274.3907,-1 276.0365,-1 277.9559,-1 L279,-1 " stroke-linecap="round" fill="none" stroke="#f76707" stroke-width="4.5" stroke-dasharray="0.1 9" stroke-dashoffset="0"/></g></g><g transform="matrix(1, 0, 0, 1, 201, 321)" opacity="1"><g transform="scale(1)"><path d="M0,0 Q1.824,0.912 2.5481,1.1601 T4.1222,1.5431 5.8905,1.7514 7.7644,1.8648 9.9238,1.6984 12.4666,1.38 15.2178,1.2067 18.0825,1.1124 21.2369,1.0612 24.5489,1.0333 27.9466,1.0181 31.6189,1.0098 35.4407,1.0054 39.3437,1.0029 43.063,1.0016 46.6823,1.0009 50.2472,1.0005 53.5545,1.0003 56.7216,1.0001 59.8126,1.0001 62.862,1 65.8889,1.228 68.9036,1.58 71.9116,1.7715 75.1439,1.8757 78.4983,1.9324 81.9191,1.9632 85.376,1.98 88.6245,1.9891 91.9877,1.9941 95.4133,1.9968 98.6449,1.7702 101.5428,1.419 104.2593,1.2279 106.8771,1.124 109.4411,0.8395 112.204,0.4567 114.847,0.2484 117.4247,0.1351 120.1951,0.0735 122.8421,0.04 125.4221,-0.2062 128.1936,-0.5682 130.8413,-0.7651 133.1937,-0.8722 135.6134,-0.9305 138.0697,-0.9622 140.5459,-0.9794 143.033,-0.9888 145.5259,-0.9939 148.0221,-0.9967 150.52,-0.7702 153.2469,-0.419 156.3263,-0.2279 159.5975,-0.124 162.745,-0.0675 165.5973,-0.0367 168.2889,-0.02 171.1212,0.2171 173.8019,0.5741 176.4002,0.7683 179.1817,0.874 181.8349,0.9314 184.4182,0.9627 187.1915,1.2077 190.0682,1.569 193.0011,1.7655 195.7366,1.8724 198.1367,1.9306 200.3544,1.9623 202.7008,1.9795 205.1172,2.2168 207.3438,2.574 209.467,2.7682 211.5341,2.8739 213.7985,2.9314 215.9424,2.9627 218.0207,2.9797 220.2912,2.989 222.4384,2.994 224.5185,2.9967 226.3341,2.9982 228.0057,3.227 229.8271,3.5795 231.73,3.7713 233.4491,3.8756 235.2963,3.9323 237.2132,3.9632 238.94,3.98 240.7913,3.9891 242.7105,3.9941 244.4385,3.9968 245.8345,3.9982 247.278,3.999 248.7472,3.9995 250.0025,3.9997 251.3694,3.9998 252.7969,3.9999 254.0295,4 255.1561,4 256.2249,4 257.2623,4 258.2827,4 259.2938,4.228 260.2998,4.58 261.3031,4.7715 262.5329,4.8757 263.8859,4.9324 265.0779,4.9632 266.4104,4.98 267.8193,4.9891 269.0417,4.9941 270.3907,4.7688 272.0807,4.2709 L273,4 " stroke-linecap="round" fill="none" stroke="#f76707" stroke-width="4.5" stroke-dasharray="0.1 9" stroke-dashoffset="0"/></g></g><g transform="matrix(1, 0, 0, 1, 470.4276, 317.9659) scale(0.5352443241048768, 0.5352443241048768)" opacity="1"><g transform="scale(1.8683056596113632)"><path d="M0,0 Q0,1.2221 0,1.6753 T0,2.6191 0,3.4996 0,4.3457 0,5.1707 0,5.9844 0,6.794 0,7.6016 0,8.5288 0,9.398 0,10.238 0,11.062 0,11.875 0,12.6844 0,13.4918 0,14.2958 0,15.098 0,15.9015 0,16.5825 0,17.3178 0,18.2057 0,19.0558 0,19.8854 0,20.7037 0,21.516 0,22.3227 0,23.1263 0,24.0514 0,24.9217 0,25.7623 0,26.5843 0,27.3963 0,28.2051 0,29.0122 0,29.816 0,30.6181 0,31.6655 0,32.8463 -0.1231,33.8558 -0.3132,34.772 -0.4166,35.7583 -0.5937,36.6597 -0.8109,37.5148 -0.9291,38.4679 -0.9933,39.4744 -1.1514,40.6329 -1.3605,41.8742 -1.4743,43.0374 -1.657,44.0372 -1.8773,44.9482 -1.9971,45.9317 -2.0622,46.8315 -2.0977,47.6858 -2.117,48.7616 -2.1275,49.9579 -2.1332,51.0966 -2.1363,52.2039 -2.138,53.1711 -2.1389,54.0644 -2.1394,55.1613 -2.1397,56.49 -2.1398,57.7007 -2.1399,58.7241 -2.1399,59.7687 -2.14,60.825 -2.0191,61.7666 -1.8326,62.5228 -1.7311,63.299 -1.6759,64.0883 -1.6458,64.764 -1.6295,65.4986 -1.6206,66.263 -1.6158,67.0437 -1.6131,67.9563 -1.6117,68.8198 -1.6109,69.6567 -1.6105,70.7207 -1.6103,71.9082 -1.6101,73.0422 -1.6101,74.147 -1.61,75.2382 -1.61,76.4429 -1.61,77.707 -1.61,78.8825 -1.61,80.01 -1.61,81.2344 -1.61,82.5114 -1.61,83.8149 -1.61,85.2559 -1.61,86.774 -1.61,88.2108 -1.61,89.6013 -1.61,91.0895 -1.61,92.631 -1.4869,94.0784 -1.2968,95.5976 -1.1934,97.279 -1.1371,98.9279 -0.9857,100.5568 -0.7824,102.1748 -0.6719,103.666 -0.6117,105.086 -0.579,106.4672 -0.5612,107.8296 -0.4284,109.1818 -0.2331,110.5285 -0.1268,111.8721 -0.069,113.0909 -0.0375,114.3628 -0.0204,115.6634 -0.1342,116.8588 -0.3193,118.1202 -0.4199,119.4174 -0.4747,120.7342 -0.5045,122.0615 -0.6415,123.3923 -0.8369,124.7251 -0.9432,125.938 -1.001,127.0858 -1.0325,128.3212 -1.1727,129.6043 -1.3721,130.9133 -1.4806,132.3573 -1.5396,133.7516 -1.6925,135.1212 -1.8966,136.4772 -2.0076,137.8237 -2.068,139.1649 -2.1008,140.5056 -2.2418,141.9691 -2.4416,143.4971 -2.5503,145.0602 -2.6095,146.5216 -2.6416,147.9254 -2.78,149.4209 -2.9761,150.8455 -3.0827,152.2315 -3.1408,153.7174 -3.1723,155.2576 -3.1895,156.9504 -3.1989,158.7241 -3.2039,160.4208 -3.3298,162.078 -3.5214,163.7114 -3.6257,165.3318 -3.6824,167.0684 -3.7132,168.8657 -3.73,170.5754 -3.7391,172.2373 -3.7441,173.8733 -3.7468,175.6183 -3.7482,177.4225 -3.8699,179.1359 -4.0569,180.9208 -4.1586,182.7467 -4.214,184.4742 -4.2441,186.2689 -4.2605,188.098 -4.3925,189.9457 -4.5874,191.8059 -4.6935,193.6728 -4.7512,195.5434 -4.7826,197.2929 -4.7996,199.0973 -4.8089,200.9339 -4.814,202.6649 -4.9376,204.3385 -5.1256,205.9831 -5.2279,207.7327 -5.2836,209.5372 -5.3139,211.3716 -5.3304,213.2245 -5.3393,215.0875 -5.3442,216.956 -5.3468,218.7043 -5.3483,220.3872 -5.3491,222.1578 -5.3495,223.9737 -5.4728,225.8142 -5.6631,227.6705 -5.7665,229.4145 -5.8228,231.0951 -5.8535,232.7412 -5.8701,234.3686 -6,235.9857 -6.1915,237.5974 -6.2957,239.0851 -6.3524,240.5055 -6.3832,242.0101 -6.4,243.4396 -6.4091,244.826 -6.4141,246.3121 -6.4168,247.8524 -6.4182,249.2991 -6.419,250.5763 -6.4195,251.8822 -6.4197,253.2013 -6.4198,254.4068 -6.4199,255.5506 -6.42,256.6607 -6.42,257.7525 -6.42,258.8343 -6.42,259.9108 -6.42,260.9843 -6.42,262.0585 -6.42,263.1331 -6.42,264.2055 -6.5431,265.2769 -6.7332,266.3476 -6.8366,267.418 -7.0137,268.4882 -7.2309,269.6792 -7.3491,270.9358 -7.4133,272.1097 -7.5714,273.2384 -7.7805,274.3404 -7.8943,275.5486 -7.8331,277.0586 -7.6109,278.9183 L-7.49,279.93 " stroke-linecap="round" fill="none" stroke="#40c057" stroke-width="2.4085994584719455" stroke-dasharray="0.1 4.817198916943891" stroke-dashoffset="0"/></g></g><g transform="matrix(1, 0, 0, 1, 489.6964, 244.6375) scale(0.5352443241048768, 0.5352443241048768)" opacity="1"><g transform="scale(1.8683056596113632)"><path d="M0,0 Q-0.2462,1.4638 -0.3132,2.1059 T-0.4166,3.4643 -0.4729,4.8144 -0.5035,6.0368 -0.5201,7.1896 -0.5292,8.5487 -0.5341,10.0199 -0.5368,11.3081 -0.4151,12.4969 -0.2258,13.6315 -0.1229,14.7366 -0.0668,15.8257 0.0868,16.9061 0.2934,17.9818 0.4059,19.178 0.467,20.4397 0.6211,21.6141 0.8258,22.8639 0.9372,24.2757 0.9977,25.7756 1.0307,27.3235 1.1717,28.8974 1.3716,30.4877 1.4803,31.9639 1.5394,33.4989 1.5716,35.0657 1.5891,36.5269 1.7195,38.0536 1.9112,39.4952 2.0156,40.7674 2.0723,41.9473 2.1032,43.2003 2.12,44.4929 2.1291,45.8049 2.1341,47.1273 2.2599,48.3347 2.4515,49.4794 2.5557,50.59 2.6124,51.5613 2.6432,52.4567 2.66,53.3087 2.6691,54.0161 2.6741,54.768 2.6768,55.5441 2.6782,56.3334 2.679,57.1276 2.6795,57.9244 2.6797,58.8458 2.6798,59.9581 2.6799,61.295 2.68,62.5103 2.68,63.5384 2.68,64.5857 2.68,65.6433 2.68,66.8297 2.68,68.0861 2.68,69.2575 2.68,70.5035 2.5569,71.7901 2.3668,72.9779 2.2634,74.2352 2.2071,75.5301 2.0557,76.8456 1.8524,78.2931 1.7419,79.6893 1.6817,81.0599 1.649,82.5374 1.6312,83.9499 1.6216,85.2062 1.6163,86.5007 1.6134,87.8159 1.6119,89.1425 1.611,90.596 1.6106,91.9955 1.6103,93.2447 1.6102,94.4122 1.6101,95.6584 1.61,96.9473 1.61,98.1364 1.61,99.2712 1.61,100.3765 1.61,101.5888 1.61,102.8593 1.61,104.0384 1.61,105.2886 1.7308,106.5774 1.9174,107.7688 2.0189,109.0279 2.0741,110.3216 2.1042,111.6364 2.1205,113.0836 2.2525,114.6027 2.4474,116.161 2.5535,117.7406 2.6112,119.2109 2.6426,120.6218 2.6596,122.1212 2.6689,123.6688 2.674,125.2425 2.6767,126.8305 2.6782,128.5494 2.679,130.3395 2.6795,132.0452 2.6797,133.8258 2.6798,135.7703 2.6799,137.6831 2.68,139.4555 2.68,141.2747 2.68,143.1194 2.5569,144.8547 2.3668,146.5307 2.2634,148.2951 2.2071,150.1099 2.1765,151.9522 2.1599,153.8094 2.1508,155.5516 2.1459,157.2312 2.1432,158.9999 2.1417,160.8149 2.1409,162.6572 2.2636,164.5144 2.4535,166.2566 2.5568,168.0593 2.613,169.8928 2.6435,171.7429 2.6602,173.6043 2.6692,175.3511 2.6741,177.1564 2.6768,178.9911 2.6783,180.842 2.6791,182.7038 2.6795,184.5717 2.6797,186.4428 2.6798,188.3157 2.6799,190.3104 2.68,192.3713 2.68,194.4683 2.68,196.5849 2.68,198.7122 2.68,200.8453 2.68,202.9815 2.68,205.2426 2.68,207.5716 2.68,209.9375 2.68,212.3235 2.68,214.5974 2.5569,216.9333 2.3668,219.303 2.2634,221.5679 2.2071,223.8968 2.1765,226.3834 2.1599,228.8352 2.1508,231.2678 2.1459,233.811 2.1432,236.4143 2.1417,239.0526 2.1409,241.7076 2.1405,244.2486 2.1403,246.7299 2.1402,249.1787 2.2632,251.6098 2.4533,254.1521 2.5567,256.6318 2.6129,259.0797 2.6435,261.5103 2.6601,263.9315 2.6692,266.4685 2.6741,268.9452 2.6768,271.3916 2.6783,273.8213 2.6791,276.2421 2.6795,278.6579 2.6797,280.948 2.6798,283.1696 2.6799,285.354 2.68,287.5182 2.68,289.6713 2.68,291.6976 2.68,293.655 2.68,295.6956 2.68,297.7815 2.68,299.8921 2.68,301.8953 2.68,303.7169 2.68,305.5628 2.68,307.422 2.68,309.2861 2.68,311.1552 2.68,312.9039 2.68,314.4639 2.68,315.9236 2.68,317.4518 2.68,319.0151 2.68,320.4742 2.8008,321.8791 2.9874,323.2543 3.0889,324.6112 3.1441,325.9582 3.1742,327.1811 3.1905,328.4574 3.1994,329.7605 3.0834,330.9572 2.8994,332.2193 2.7994,333.517 2.7449,334.7108 2.7153,335.8481 2.6992,337.0756 2.6905,338.5984 2.6857,340.1609 2.6831,341.4989 2.6817,342.7146 2.6809,343.9848 2.6805,345.4076 2.6803,346.9135 2.6801,348.2206 2.6801,349.2988 2.8009,350.3732 3.0659,351.5499 L3.21,352.19 " stroke-linecap="round" fill="none" stroke="#40c057" stroke-width="2.4085994584719455" stroke-dasharray="0.1 4.817198916943891" stroke-dashoffset="0"/></g></g><g transform="matrix(1, 0, 0, 1, 461.8637, 597.3635) scale(0.5352443241048768, 0.5352443241048768)" opacity="1"><g transform="scale(1.8683056596113632)"><path d="M1.9605,0.2926 T2.0599,1.3078 2.2787,2.8135 2.398,3.304 A1.9108,1.9108 0 0 1 -1.318,4.196 T-1.4832,3.501 -1.8045,1.7966 -1.9605,0.7874 A1.976,1.976 0 0 1 1.9605,0.2926 ZM-1.3702,3.7966 T-1.3802,2.8789 -1.3449,0.4858 -1.299,-1.5697 -1.2983,-2.1497 A1.8383,1.8383 0 0 1 2.3783,-2.1303 T2.3729,-1.5504 2.3772,0.5763 2.4185,2.9132 2.4502,3.7034 A1.9108,1.9108 0 0 1 -1.3702,3.7966 ZM2.3783,-2.1395 T2.3856,-1.3469 2.4137,0.6717 2.4347,1.8978 A1.8948,1.8948 0 0 1 -1.3549,1.8982 T-1.3343,0.6727 -1.306,-1.3467 -1.2983,-2.1405 A1.8383,1.8383 0 0 1 2.3783,-2.1395 ZM-0.352,3.5698 T-0.4804,3.5028 -0.6087,3.4359 A1.8975,1.8975 0 0 1 1.1777,0.0877 T1.3047,0.157 1.4318,0.2263 A1.8948,1.8948 0 0 1 -0.352,3.5698 ZM-1.6053,1.9318 T-1.7173,0.751 -1.8626,-2.2058 -1.4012,-5.7239 -0.9064,-7.466 A1.9304,1.9304 0 0 1 2.6004,-5.8512 T2.2701,-4.9328 1.9636,-2.3152 2.0808,0.4878 2.1743,1.5918 A1.8975,1.8975 0 0 1 -1.6053,1.9318 ZM2.6333,-7.3903 T3.0792,-6.3548 3.9749,-3.475 4.5974,0.3064 4.7258,3.2869 4.6813,4.3304 A2.0019,2.0019 0 0 1 0.6787,4.2296 T0.6868,3.1852 0.5288,0.5688 0.0675,-2.5432 -0.5835,-5.005 -0.9393,-5.9269 A1.9304,1.9304 0 0 1 2.6333,-7.3903 Z" stroke-linecap="round" fill="#9398b0"/></g></g><g transform="matrix(1, 0, 0, 1, 493.9784, 591.4758) scale(0.5352443241048768, 0.5352443241048768)" opacity="1"><g transform="scale(1.8683056596113632)"><path d="M1.2945,-0.1633 T1.4377,0.847 1.7205,3.5561 1.9234,6.8921 1.9867,8.5292 A1.447,1.447 0 0 1 -0.9067,8.5908 T-0.9224,6.9904 -1.0042,3.7908 -1.1823,1.1775 -1.2945,0.1633 A1.3047,1.3047 0 0 1 1.2945,-0.1633 ZM-0.9069,8.5759 T-0.8307,7.7309 -0.9378,5.6766 -1.2125,3.1885 -1.3331,1.2665 -1.3623,0.6233 A1.3648,1.3648 0 0 1 1.3623,0.4567 T1.4564,1.6415 1.7642,4.2019 1.8947,6.8562 1.8992,8.3395 1.9869,8.5441 A1.447,1.447 0 0 1 -0.9069,8.5759 ZM1.3647,0.522 T1.3683,0.9788 1.4974,2.6666 1.7488,5.5748 1.9211,9.2318 1.9674,11.2116 A1.4277,1.4277 0 0 1 -0.8874,11.2684 T-0.9192,9.322 -1.0284,5.8524 -1.2273,2.8608 -1.3568,0.9752 -1.3647,0.558 A1.3648,1.3648 0 0 1 1.3647,0.522 Z" stroke-linecap="round" fill="#9398b0"/></g></g><g transform="matrix(1, 0, 0, 1, 460.258, 604.3216) scale(0.5352443241048768, 0.5352443241048768)" opacity="1"><g transform="scale(1.8683056596113632)"><path d="M-1.5475,-0.7738 T-1.2928,-1.279 -1.038,-1.7843 A1.7264,1.7264 0 0 1 2.0502,-0.2402 T1.7989,0.2668 1.5475,0.7738 A1.7302,1.7302 0 0 1 -1.5475,-0.7738 ZM-0.6726,0.2491 T-0.8149,0.0099 -2.1865,0.4712 -5.3643,2.4308 -8.3187,4.5064 -10.4872,6.3812 -12.7724,8.5107 -15.0307,10.5664 -17.229,12.5427 -19.3555,14.5631 -21.2825,16.6909 -23.0116,18.9132 -24.7395,21.0526 -26.8142,24.1014 -29.0825,28.2481 -30.6713,31.5033 -31.7321,33.7563 -32.7634,36.0492 -33.6215,38.4014 -34.2907,40.8246 -34.8914,43.4733 -35.4615,46.2602 -36.0157,49.122 -36.4194,51.9265 -36.7665,54.69 -37.1524,58.2834 -37.5475,62.3437 -38.0183,66.183 -38.2664,68.1247 A1.8792,1.8792 0 0 1 -42.0136,67.8353 T-41.9807,66.7583 -41.8118,63.8914 -41.6109,60.0899 -41.4366,56.7777 -41.1309,54.1425 -40.7756,51.2987 -40.3311,48.2739 -39.7516,45.3609 -39.1308,42.4675 -38.432,39.615 -37.5958,36.8861 -36.5576,34.2726 -35.4268,31.9449 -34.3056,29.7472 -33.131,27.4147 -31.2794,24.1718 -29.241,20.8878 -27.621,18.6905 -25.9027,16.6232 -23.9737,14.229 -21.8404,11.9228 -19.6192,9.856 -17.4179,7.9177 -15.1784,5.9112 -12.7703,3.6985 -10.3501,1.6508 -8.0931,0.0455 -5.2385,-1.7016 -1.6215,-3.0965 0.9554,-2.8489 1.6848,-2.2736 A1.7264,1.7264 0 0 1 -0.6726,0.2491 Z" stroke-linecap="round" fill="#9398b0"/></g></g><g transform="matrix(1, 0, 0, 1, 388.5352, 708.6943) scale(0.5352443241048768, 0.5352443241048768)" opacity="1"><g transform="scale(1.8683056596113632)"><path d="M0.0633,1.8024 T-1.076,2.1761 -3.7626,3.3866 -6.3866,5.2224 -7.8013,7.6362 -6.5931,9.0416 -4.2827,8.0388 -2.8427,5.9126 -1.8486,3.9729 -1.5307,3.1659 A1.6384,1.6384 0 0 1 1.5307,4.3341 T0.8535,5.9531 -0.6875,9.0809 -2.9697,11.8174 -6.0877,13.4871 -9.1718,13.3021 -11.2227,11.3174 -11.7429,8.5408 -10.8995,5.4255 -8.761,2.406 -5.3675,0.0282 -2.2792,-1.4146 -1.1433,-1.8024 A1.9007,1.9007 0 0 1 0.0633,1.8024 ZM1.4979,4.4138 T1.2726,4.9192 1.0474,5.4245 A1.6361,1.6361 0 0 1 -1.9441,4.0988 T-1.721,3.5925 -1.4979,3.0862 A1.6384,1.6384 0 0 1 1.4979,4.4138 ZM1.159,4.4562 T1.3214,5.3605 2.055,7.7298 3.8955,10.0685 5.1646,10.9422 A1.6289,1.6289 0 0 1 3.3954,13.6778 T1.9784,12.733 -0.1774,10.4445 -1.3246,7.8836 -1.8942,5.8667 -2.0556,5.0671 A1.6361,1.6361 0 0 1 1.159,4.4562 Z" stroke-linecap="round" fill="#9398b0"/></g></g><g transform="matrix(1, 0, 0, 1, 397.6344, 715.6525) scale(0.5352443241048768, 0.5352443241048768)" opacity="1"><g transform="scale(1.8683056596113632)"><path d="M0.1294,-1.155 T1.2693,-1.0273 3.6793,-0.7573 4.9494,-0.615 A1.1623,1.1623 0 0 1 4.6906,1.695 T3.4205,1.5527 1.0105,1.2827 -0.1294,1.155 A1.1623,1.1623 0 0 1 0.1294,-1.155 Z" stroke-linecap="round" fill="#9398b0"/></g></g><g transform="matrix(1, 0, 0, 1, 416.9032, 714.582) scale(0.5352443241048768, 0.5352443241048768)" opacity="1"><g transform="scale(1.8683056596113632)"><path d="M-1.6866,0.8512 T-1.8093,0.5956 -1.9319,0.34 A1.8779,1.8779 0 0 1 1.4211,-1.3522 T1.5538,-1.1017 1.6866,-0.8512 A1.8892,1.8892 0 0 1 -1.6866,0.8512 ZM0.4356,1.24 T0.0813,1.3109 -0.5383,2.6504 0.3557,4.3849 2.5933,3.8927 3.255,1.3019 2.2144,-1.405 0.6419,-4.004 -0.7764,-6.6896 -1.2463,-7.8505 A1.7067,1.7067 0 0 1 2.1031,-8.5078 T2.0704,-8.3273 2.967,-6.8643 4.7112,-4.381 6.2421,-1.7003 7.1844,1.4758 6.9591,4.3794 5.3611,6.8362 2.5023,8.2694 -0.9753,7.7326 -3.5561,5.4739 -4.2285,2.5177 -3.3906,-0.1607 -1.8212,-1.8367 -0.9464,-2.2522 A1.8779,1.8779 0 0 1 0.4356,1.24 ZM0.0899,-9.8519 T0.8349,-10.0013 3.4305,-10.573 7.2018,-11.4484 11.2284,-12.6367 13.3342,-13.3719 A1.6963,1.6963 0 0 1 14.5058,-10.1881 T13.358,-9.7432 11.08,-8.8653 7.9651,-7.9747 3.9881,-7.1373 1.3814,-6.632 0.7669,-6.5064 A1.7067,1.7067 0 0 1 0.0899,-9.8519 Z" stroke-linecap="round" fill="#9398b0"/></g></g><g transform="matrix(1, 0, 0, 1, 495.5841, 605.9274) scale(0.5352443241048768, 0.5352443241048768)" opacity="1"><g transform="scale(1.8683056596113632)"><path d="M0.8573,-1.7093 T1.6036,-1.3039 3.7279,-0.3949 6.3904,0.555 9.1643,1.4922 12.6592,3.0461 16.7101,5.4836 20.808,8.4184 23.8295,10.7657 25.7965,12.5646 27.6502,14.4401 29.4275,16.4944 31.0895,18.8389 32.5519,21.0391 33.9772,23.3893 35.2775,25.8463 36.4455,28.1119 37.5909,30.4858 38.7196,33.0406 39.7201,35.7358 40.6325,38.5757 41.5744,41.2227 42.549,43.5691 43.9379,46.4327 45.5377,49.9115 46.2476,51.665 A1.9799,1.9799 0 0 1 42.6124,53.235 T41.8806,51.6505 40.1785,48.2319 38.6731,45.1868 37.6123,42.647 36.6124,39.8635 35.7611,37.201 34.851,34.7414 33.7901,32.3167 32.7017,30.0436 31.5515,27.8176 30.3738,25.5929 28.3756,22.3722 26.2237,19.2489 23.8152,16.4763 20.3462,13.0516 16.5521,9.9094 12.8619,7.3011 9.5648,5.5468 6.1322,4.2705 2.4927,3.025 -0.0852,2.0654 -0.8573,1.7093 A1.9123,1.9123 0 0 1 0.8573,-1.7093 Z" stroke-linecap="round" fill="#9398b0"/></g></g><g transform="matrix(1, 0, 0, 1, 541.6151, 677.1149) scale(0.5352443241048768, 0.5352443241048768)" opacity="1"><g transform="scale(1.8683056596113632)"><path d="M0.9579,1.4384 T-0.1877,2.1866 -2.3534,4.0889 -3.8485,6.5081 -3.5485,8.8103 -1.7163,9.0314 -0.045,7.0938 0.7312,4.6376 0.8933,3.3031 A1.483,1.483 0 0 1 3.8475,3.0377 T3.8245,4.5119 3.2901,7.3285 1.8504,10.1154 -0.7254,12.4438 -3.6714,13.0416 -6.1284,11.5378 -7.4386,8.632 -6.8612,5.1249 -4.6792,1.7039 -2.0921,-0.6683 -0.9579,-1.4384 A1.7282,1.7282 0 0 1 0.9579,1.4384 ZM3.83,3.433 T3.7518,3.8139 4.3839,5.751 6.4293,8.6789 7.7643,10.0507 A1.4358,1.4358 0 0 1 6.1557,12.4293 T5.5334,12.0295 3.7399,10.425 1.9918,7.827 1.0746,5.2146 0.8226,3.4516 0.9108,2.9077 A1.483,1.483 0 0 1 3.83,3.433 Z" stroke-linecap="round" fill="#9398b0"/></g></g><g transform="matrix(1, 0, 0, 1, 560.8839, 676.5796) scale(0.5352443241048768, 0.5352443241048768)" opacity="1"><g transform="scale(1.8683056596113632)"><path d="M1.1046,-0.3324 T1.4913,0.9314 2.2175,4.2736 2.9188,8.4224 3.2804,10.4928 A1.1591,1.1591 0 0 1 0.9996,10.9072 T0.5956,8.7642 -0.0816,4.7435 -0.7297,1.5991 -1.1046,0.3324 A1.1536,1.1536 0 0 1 1.1046,-0.3324 Z" stroke-linecap="round" fill="#9398b0"/></g></g><g transform="matrix(1, 0, 0, 1, 565.7011, 681.9321) scale(0.5352443241048768, 0.5352443241048768)" opacity="1"><g transform="scale(1.8683056596113632)"><path d="M-0.359,1.6121 T-1.4953,1.7467 -4.3068,2.1733 -6.9077,2.571 -7.8335,2.6768 A1.6188,1.6188 0 0 1 -8.2265,-0.5368 T-7.3026,-0.6573 -4.6887,-1.0741 -1.8599,-1.4913 -0.721,-1.6121 A1.6222,1.6222 0 0 1 -0.359,1.6121 Z" stroke-linecap="round" fill="#9398b0"/></g></g><g transform="matrix(1, 0, 0, 1, 578.547, 679.7911) scale(0.5352443241048768, 0.5352443241048768)" opacity="1"><g transform="scale(1.8683056596113632)"><path d="M-1.4124,0.3564 T-1.5414,-0.1494 -1.6704,-0.6552 A1.4594,1.4594 0 0 1 1.1596,-1.3693 T1.286,-0.8628 1.4124,-0.3564 A1.4567,1.4567 0 0 1 -1.4124,0.3564 ZM-0.6967,0.3789 T-1.0445,0.2381 -2.2484,0.9893 -3.724,3.097 -4.0176,5.6282 -2.0457,7.2992 0.6562,7.0032 2.2404,5.2303 2.7891,1.7152 2.6564,-1.9563 1.6366,-5.0468 -0.118,-8.0678 -1.0056,-9.2761 A1.5832,1.5832 0 0 1 1.2508,-11.4975 T2.0253,-10.6765 3.735,-8.1415 5.1721,-5.0225 5.8253,-2.2078 6.0181,0.6661 5.491,4.5003 3.2605,8.4378 -0.4613,10.2752 -4.195,9.6964 -6.6514,6.9123 -6.8427,3.2351 -5.1161,0.0229 -2.4411,-2.0674 -0.3578,-2.5453 0.1858,-2.4033 A1.4594,1.4594 0 0 1 -0.6967,0.3789 ZM0.6404,-11.8829 T1.2823,-11.662 3.1125,-11.1939 6.2905,-11.1248 10.5851,-11.9976 14.4735,-13.243 16.057,-13.7937 A1.5766,1.5766 0 0 1 17.123,-10.8263 T15.551,-10.2434 11.4343,-8.8524 6.3798,-7.8917 2.2858,-8.1238 0.1533,-8.6995 -0.3952,-8.8907 A1.5832,1.5832 0 0 1 0.6404,-11.8829 Z" stroke-linecap="round" fill="#9398b0"/></g></g></svg>