<svg xmlns="http://www.w3.org/2000/svg" direction="ltr" width="247.3307434150695" height="268.41296942125336" viewBox="2004.18080526996 21958.307798738635 247.3307434150695 268.41296942125336" stroke-linecap="round" stroke-linejoin="round" style="background-color: transparent;"><defs/><g transform="matrix(1, 0, 0, 1, 2059.5098, 21990.3078) scale(0.4102735593552717, 0.4102735593552717)" opacity="1"><g transform="scale(2.4373981144957515)"><path d="M0,0 Q0,1.1218 0,1.6138 T0,2.654 0,3.6873 0,4.7168 0,5.7443 0,6.5859 0.0935,7.3265 0.2378,8.1033 0.3163,8.8063 0.359,9.4692 0.3823,10.2037 0.3949,10.9772 0.4018,11.7719 0.4055,12.5782 0.4076,13.3907 0.4087,14.2066 0.4093,15.1179 0.3161,16.081 0.172,17.0723 0.0936,18.079 0.0509,19.0006 0.0277,19.8758 0.0151,20.7259 0.0082,21.471 0.0045,22.2526 0.0024,23.0517 0.0013,23.8603 0.0007,24.8611 0.0004,25.9664 -0.0933,27.1286 -0.2377,28.1347 -0.3163,29.056 -0.359,29.931 -0.3823,30.781 -0.3949,31.6173 -0.4018,32.4462 -0.4055,33.271 -0.4076,34.0936 -0.4087,34.9151 -0.4093,35.7358 -0.4096,36.5585 -0.4098,37.3823 -0.4099,38.3913 -0.4099,39.4076 -0.41,40.4278 -0.41,41.4503 -0.41,42.4739 -0.41,43.5916 -0.41,44.7605 -0.41,45.8638 -0.3165,46.7444 -0.1722,47.5039 -0.0937,48.3845 -0.051,49.3309 -0.0277,50.3132 -0.0151,51.4107 0.0853,52.5709 0.2334,53.7629 0.3139,54.8788 0.3577,55.9532 0.3816,57.0051 0.3945,57.9513 0.4016,58.9334 0.4054,59.935 0.4075,60.9473 0.4086,61.9654 0.4093,62.9867 0.5031,64.0096 0.6476,64.94 0.7262,65.8201 0.769,66.6751 0.7922,67.5163 0.8049,68.3479 0.8118,69.1742 0.8155,69.9977 0.8176,70.8195 0.8187,71.734 0.8193,72.6989 0.8196,73.6912 0.8198,74.6984 0.8199,75.6203 0.9134,76.5891 1.0578,77.5836 1.1363,78.592 1.179,79.608 1.2023,80.6281 1.2149,81.6527 1.2218,82.5862 1.2255,83.468 1.2276,84.3217 1.2287,85.1599 1.3228,85.9899 1.4674,86.8153 1.5461,87.6382 1.5889,88.4598 1.6122,89.3742 1.6249,90.526 1.6318,91.7134 1.6355,92.7333 1.6376,93.662 1.6387,94.6347 1.6393,95.7269 1.6396,96.6973 1.6398,97.5991 1.6399,98.4637 1.6399,99.3079 1.64,100.2345 1.64,101.206 1.64,102.2019 1.64,103.2111 1.64,104.3209 1.64,105.2986 1.64,106.1109 1.64,106.8333 1.64,107.5067 1.64,108.3404 1.64,109.2613 1.64,110.1362 1.64,110.9861 1.64,111.8246 1.64,112.7505 1.64,113.7215 1.64,114.7172 1.64,115.7262 1.64,116.6491 1.7335,117.525 1.9385,118.4674 L2.05,118.98 " stroke-linecap="round" fill="none" stroke="#9398b0" stroke-width="1.8462310170987226" stroke-dasharray="none" stroke-dashoffset="0"/></g></g><g transform="matrix(1, 0, 0, 1, 2037.355, 22090.0043) scale(0.4102735593552717, 0.4102735593552717)" opacity="1"><g transform="scale(2.4373981144957515)"><path d="M0.41,0 Q1.5318,-0.187 2.0238,-0.2378 T2.9706,-0.3163 3.766,-0.359 4.4792,-0.3823 5.2411,-0.3949 5.936,-0.4018 6.5967,-0.4055 7.2389,-0.4076 7.8687,-0.4087 8.4917,-0.4093 9.0176,-0.4096 9.6776,-0.4098 10.4106,-0.4099 11.1832,-0.4099 11.9775,-0.41 12.69,-0.41 13.4515,-0.41 14.1462,-0.41 14.7111,-0.41 15.2988,-0.41 15.899,-0.41 16.5059,-0.41 17.1166,-0.41 17.7292,-0.5035 18.4363,-0.6478 19.2885,-0.7263 20.2194,-0.769 21.102,-0.7923 22.0519,-0.8984 23.036,-1.0496 23.9453,-1.1319 24.8138,-1.1766 25.6602,-1.201 26.4946,-1.2142 27.3224,-1.2214 28.2402,-1.1318 29.2068,-0.9896 30.1066,-0.9123 30.97,-0.8702 31.8136,-0.7538 32.6464,-0.597 33.5669,-0.5118 34.535,-0.4654 35.4356,-0.4401 36.3017,-0.4264 37.1491,-0.4189 37.984,-0.4148 38.9056,-0.4126 39.8743,-0.4114 40.7752,-0.4108 41.6392,-0.4104 42.5767,-0.3168 43.554,-0.1723 44.4596,-0.0937 45.4197,-0.051 46.4093,0.0657 47.4151,0.2227 48.4297,0.3081 49.449,0.4481 50.5666,0.6177 51.6443,0.7099 52.698,0.8536 53.8321,1.0252 54.9164,1.1186 55.7867,1.1694 56.6341,1.197 57.5625,1.2121 58.5349,1.2202 59.5313,1.2247 60.4473,1.2271 61.3195,1.2284 62.1679,1.2291 63.0033,1.2295 63.8317,1.2297 64.7498,1.2299 65.8124,1.2299 66.7666,1.23 67.5662,1.23 68.375,1.23 69.189,1.23 70.0057,1.23 70.9174,1.1365 71.7872,0.9922 72.7279,0.9137 73.8004,0.871 74.7578,0.8477 75.7461,0.8351 76.7511,0.9217 77.6717,1.0623 78.5464,1.1388 79.3962,1.1804 80.2324,1.203 81.0612,1.2153 81.8883,1.222 82.7144,1.1322 83.5378,0.9898 84.3596,0.9124 85.1806,0.8703 86.0011,0.7539 86.8214,0.5971 87.735,0.5118 88.6995,0.3719 89.598,0.2023 90.3673,0.1101 91.0662,0.0599 91.8203,0.0326 92.511,-0.0758 93.1672,-0.2282 93.8981,-0.3111 94.6696,-0.3562 95.5567,-0.4742 96.509,-0.6319 97.4032,-0.7177 98.2636,-0.7643 99.0121,-0.7897 99.6997,-0.8035 100.4477,-0.811 101.2285,-0.8151 102.1207,-0.8173 103.1669,-0.8186 104.2034,-0.8192 105.2347,-0.8196 106.2631,-0.8198 107.103,-0.8199 107.9338,-0.8199 108.9467,-0.82 109.9651,-0.82 110.9888,-0.82 112.1088,-0.9135 113.1855,-1.0578 114.1452,-1.1363 115.0411,-1.179 115.809,-1.2958 116.6006,-1.4527 117.6856,-1.5381 118.9302,-1.5846 120.1682,-1.6099 121.309,-1.6236 122.3035,-1.6311 123.2185,-1.6351 124.0901,-1.6374 124.9382,-1.6386 125.7735,-1.6392 126.6041,-1.6396 127.4322,-1.6398 128.35,-1.5464 129.3167,-1.4021 130.2165,-1.3236 131.08,-1.2809 131.8301,-1.2577 132.6121,-1.2451 133.5049,-1.1447 134.3645,-0.9966 135.2061,-0.9161 136.1313,-0.8723 137.102,-0.755 137.9105,-0.5977 138.8177,-0.5121 139.9656,-0.4655 141.2467,-0.4402 142.5068,-0.4264 143.5662,-0.3255 144.5164,-0.1771 145.4072,-0.0963 146.3593,-0.0524 147.3446,-0.0285 148.348,-0.0155 149.3612,-0.0084 150.2863,-0.0046 151.07,-0.0025 151.8703,-0.0014 152.773,-0.0007 153.5446,-0.0004 154.2447,-0.0002 155.093,-0.0001 156.0242,-0.0001 156.9069,0 157.761,0 158.5996,0 159.5232,0 160.5865,0 161.6323,0 162.6687,0.0935 163.8677,0.2985 L164.52,0.41 " stroke-linecap="round" fill="none" stroke="#9398b0" stroke-width="1.8462310170987226" stroke-dasharray="none" stroke-dashoffset="0"/></g></g><g transform="matrix(1, 0, 0, 1, 2099.7166, 22091.2351) scale(0.4102735593552717, 0.4102735593552717)" opacity="1"><g transform="scale(2.4373981144957515)"><path d="M0,-0.41 Q0.187,-1.3448 0.2378,-1.6925 T0.3163,-2.0425 0.359,-1.7655 0.3823,-0.9604 0.3949,0.1319 0.4018,1.287 0.4071,2.5778 L0.41,3.28 " stroke-linecap="round" fill="none" stroke="#9398b0" stroke-width="1.8462310170987226" stroke-dasharray="none" stroke-dashoffset="0"/></g></g><g transform="matrix(1, 0, 0, 1, 2099.3063, 22104.3638) scale(0.4102735593552717, 0.4102735593552717)" opacity="1"><g transform="scale(2.4373981144957515)"><path d="M0,0 Q0.5609,0.9348 0.7134,1.376 T0.949,2.3377 1.0771,3.4218 1.1468,4.4789 0.9978,5.4279 0.6171,6.4267 L0.41,6.97 " stroke-linecap="round" fill="none" stroke="#9398b0" stroke-width="1.8462310170987226" stroke-dasharray="none" stroke-dashoffset="0"/></g></g><g transform="matrix(1, 0, 0, 1, 2099.3063, 22105.1844) scale(0.4102735593552717, 0.4102735593552717)" opacity="1"><g transform="scale(2.4373981144957515)"><path d="M0,0 Q-0.3739,-0.3739 -0.5691,-0.3821 T-0.964,-0.3014 -1.3657,0.023 -1.7712,0.4799 -2.2723,1.0089 -2.9249,1.6832 L-3.28,2.05 " stroke-linecap="round" fill="none" stroke="#9398b0" stroke-width="1.8462310170987226" stroke-dasharray="none" stroke-dashoffset="0"/></g></g><g transform="matrix(1, 0, 0, 1, 2140.3336, 22088.7735) scale(0.4102735593552717, 0.4102735593552717)" opacity="1"><g transform="scale(2.4373981144957515)"><path d="M0,0 Q0.3739,1.8696 0.4756,2.4716 T0.5392,3.3076 0.4803,3.482 0.4482,3.2029 0.4308,2.6772 0.4213,1.9238 0.4162,1.14 0.3199,0.5267 0.174,0.0061 0.0947,-0.2771 0.0515,-0.1508 0.028,0.2919 0.0152,0.9066 0.0083,1.615 0.0045,2.4677 0.0025,3.399 0.0009,4.3841 L0,4.92 " stroke-linecap="round" fill="none" stroke="#9398b0" stroke-width="1.8462310170987226" stroke-dasharray="none" stroke-dashoffset="0"/></g></g><g transform="matrix(1, 0, 0, 1, 2137.4617, 22105.1844) scale(0.4102735593552717, 0.4102735593552717)" opacity="1"><g transform="scale(2.4373981144957515)"><path d="M0,0 Q0.5609,-0.5609 0.8069,-0.7134 T1.3738,-0.949 1.9626,-0.8902 2.3764,-0.3908 2.6015,0.3483 2.6304,1.1243 2.3658,1.9203 1.9413,2.7273 1.43,3.5402 0.8714,4.2629 0.3806,4.9364 0.0201,5.6768 0.0109,6.2665 0.3799,6.5873 0.9545,6.6683 1.7345,6.5254 2.6262,6.3542 3.5807,6.222 L4.1,6.15 " stroke-linecap="round" fill="none" stroke="#9398b0" stroke-width="1.8462310170987226" stroke-dasharray="none" stroke-dashoffset="0"/></g></g><g transform="matrix(1, 0, 0, 1, 2179.7199, 22086.7221) scale(0.4102735593552717, 0.4102735593552717)" opacity="1"><g transform="scale(2.4373981144957515)"><path d="M0,0 Q0.187,1.1218 0.2378,1.6138 T0.3163,2.5606 0.359,3.4495 0.3823,4.4005 0.4002,5.5336 L0.41,6.15 " stroke-linecap="round" fill="none" stroke="#9398b0" stroke-width="1.8462310170987226" stroke-dasharray="none" stroke-dashoffset="0"/></g></g><g transform="matrix(1, 0, 0, 1, 2178.0788, 22102.7228) scale(0.4102735593552717, 0.4102735593552717)" opacity="1"><g transform="scale(2.4373981144957515)"><path d="M0,0 Q1.1218,0.187 1.5204,0.4248 T2.2293,0.792 2.7084,1.2721 2.9691,2.0008 3.0174,2.7711 2.8567,3.3771 2.3954,3.8002 1.864,4.2173 1.7618,4.5378 1.9867,4.8055 2.3895,5.1382 2.889,5.5061 3.3478,5.8932 3.7843,6.48 4.1152,7.2689 4.1083,8.0719 3.7306,8.7893 3.1512,9.3664 2.2751,9.7739 1.0507,9.9956 -0.3632,10.0227 -1.9737,9.8505 -3.8819,9.5846 L-4.92,9.44 " stroke-linecap="round" fill="none" stroke="#9398b0" stroke-width="1.8462310170987226" stroke-dasharray="none" stroke-dashoffset="0"/></g></g><g transform="matrix(1, 0, 0, 1, 2061.5611, 22088.7735) scale(0.4102735593552717, 0.4102735593552717)" opacity="1"><g transform="scale(2.4373981144957515)"><path d="M0,-0.41 Q0.5609,-0.9709 0.8069,-1.2169 T1.2803,-1.7838 1.7248,-2.3726 2.1535,-2.8798 2.5737,-3.3428 2.9893,-3.7815 3.4023,-4.2072 3.8139,-4.6257 4.3183,-5.0403 4.8731,-5.5463 5.3619,-6.1021 5.8147,-6.5913 6.2481,-7.0467 6.7665,-7.4837 7.3313,-7.9084 7.8254,-8.3264 8.2812,-8.7407 8.7162,-9.1531 9.1397,-9.5643 9.5571,-9.975 10.0646,-10.3854 10.6211,-10.7956 11.1108,-11.2057 11.6576,-11.6158 12.2356,-12.0258 12.7369,-12.4359 13.1966,-12.8459 13.7271,-13.2559 14.2961,-13.6659 14.7927,-14.1694 15.2497,-14.7237 15.6853,-15.3057 16.1093,-15.9027 16.5268,-16.4145 16.941,-16.8798 17.3532,-17.32 17.7644,-17.7463 18.1751,-18.1652 18.5854,-18.6736 18.9956,-19.2305 19.4057,-19.7205 19.8158,-20.174 20.2258,-20.6077 20.6359,-21.0305 21.0459,-21.5433 21.5516,-22.1049 22.1095,-22.7844 22.5999,-23.4345 23.0537,-23.8816 23.4875,-24.3118 23.9104,-24.7328 24.3275,-25.1487 24.7413,-25.562 25.1534,-25.9738 25.5645,-26.3847 25.9751,-26.7953 26.3855,-27.2055 26.8891,-27.6157 27.4436,-28.0258 27.9321,-28.4358 28.3849,-28.8458 28.8181,-29.3493 29.2408,-29.9037 29.6577,-30.3922 30.0714,-30.8449 30.4834,-31.3716 30.8946,-31.8451 31.3052,-32.1962 31.7155,-32.5741 32.1257,-32.9667 32.5358,-33.3672 32.9458,-33.772 33.3558,-34.1792 33.8593,-34.5877 34.3202,-34.9969 34.7579,-35.3129 35.2764,-35.5784 35.652,-36.0032 35.9421,-36.597 L36.1,-36.92 " stroke-linecap="round" fill="none" stroke="#e03131" stroke-width="1.8462310170987226" stroke-dasharray="none" stroke-dashoffset="0"/></g></g><g transform="matrix(1, 0, 0, 1, 2098.0755, 22051.8488) scale(0.4102735593552717, 0.4102735593552717)" opacity="1"><g transform="scale(2.4373981144957515)"><path d="M0,0 Q-0.3739,0 -0.5691,-0.2804 T-0.964,-0.9939 -1.2722,-1.8494 -1.3465,-2.6887 -1.1999,-3.3323 -0.9332,-3.7758 -0.5076,-4.1106 0.0043,-4.2927 0.5632,-4.3918 1.1477,-4.3522 1.6526,-4.0502 2.1143,-3.6055 2.5524,-3.1767 2.8842,-2.6629 3.1581,-2.103 3.4007,-1.4245 3.5326,-0.5879 3.4174,0.1476 3.0743,0.6412 2.6072,0.9097 2.0727,0.9623 1.408,0.7104 0.4961,0.2503 L0,0 " stroke-linecap="round" fill="none" stroke="#f2f2f2" stroke-width="1.8462310170987226" stroke-dasharray="none" stroke-dashoffset="0"/></g></g><g transform="matrix(1, 0, 0, 1, 2100.1268, 22091.6454) scale(0.4102735593552717, 0.4102735593552717)" opacity="1"><g transform="scale(2.4373981144957515)"><path d="M0,0.41 Q-0.9348,0.0361 -1.1891,-0.2526 T-1.5817,-0.7918 -1.8887,-1.3655 -2.1492,-1.9581 -2.1975,-2.3739 -2.0367,-2.6936 -1.7623,-3.0545 -1.2392,-3.3443 -0.5806,-3.5019 -0.0354,-3.4942 0.4481,-3.303 0.8981,-3.0121 1.3299,-2.6669 1.6583,-2.1986 1.7434,-1.6634 1.5093,-1.1854 1.1015,-0.7383 0.5992,-0.4016 0.0455,-0.2185 -0.4426,-0.1189 -0.8952,-0.2516 -1.3283,-0.6043 -1.6574,-1.0766 -1.7429,-1.5205 -1.6025,-1.8554 -1.2457,-2.1311 -0.7711,-2.2811 -0.1391,-2.3627 0.5787,-2.2201 1.0627,-1.7686 1.3259,-1.2426 1.3757,-0.8629 1.0288,-0.5629 0.3625,-0.1983 L0,0 " stroke-linecap="round" fill="none" stroke="#e03131" stroke-width="1.8462310170987226" stroke-dasharray="none" stroke-dashoffset="0"/></g></g><g transform="matrix(1, 0, 0, 1, 2099.7166, 22089.1837) scale(0.4102735593552717, 0.4102735593552717)" opacity="1"><g transform="scale(2.4373981144957515)"><path d="M0,0 Q1.1218,-1.1218 1.8008,-1.8008 T3.0362,-2.9427 4.1756,-3.9378 5.2629,-4.9466 6.3241,-5.8693 7.371,-6.7474 8.3145,-7.6013 9.2016,-8.4397 10.0582,-9.2698 10.8046,-10.0018 11.3976,-10.5869 12.0006,-11.1857 12.6091,-11.7919 13.1271,-12.3086 13.6893,-12.8701 14.2756,-13.5495 14.7815,-14.293 15.3371,-14.9779 15.9198,-15.6309 16.4238,-16.2666 16.8849,-16.7994 17.3227,-17.3697 17.7478,-17.9603 18.1661,-18.4686 18.5805,-18.9321 18.993,-19.3712 19.3108,-19.797 19.5772,-20.3091 19.9091,-20.8681 20.2766,-21.3592 20.6635,-21.8155 21.0609,-22.3465 21.5598,-22.9158 22.1139,-23.506 22.6023,-24.1075 23.055,-24.7151 23.4882,-25.3261 23.9108,-25.9389 24.3277,-26.5527 24.7414,-27.0736 25.1535,-27.5439 25.5646,-27.9867 25.9752,-28.4146 26.3855,-28.8343 26.7957,-29.2496 27.1123,-29.6624 27.378,-29.9805 27.7095,-30.247 28.0768,-30.579 28.4636,-31.04 28.861,-31.4778 29.2641,-31.8094 29.6703,-32.1767 30.0783,-32.5635 30.4872,-32.9609 30.8966,-33.3641 31.3063,-33.7703 31.7161,-34.1783 32.126,-34.5872 32.5359,-34.9031 32.9459,-35.2619 33.3559,-35.6441 33.7659,-35.9455 34.1759,-36.2964 34.5859,-36.6742 35.0894,-37.069 35.5502,-37.473 35.8944,-37.8798 36.2686,-38.1945 36.7549,-38.4592 37.3994,-38.7965 L37.75,-38.98 " stroke-linecap="round" fill="none" stroke="#e03131" stroke-width="1.8462310170987226" stroke-dasharray="none" stroke-dashoffset="0"/></g></g><g transform="matrix(1, 0, 0, 1, 2139.5131, 22050.2077) scale(0.4102735593552717, 0.4102735593552717)" opacity="1"><g transform="scale(2.4373981144957515)"><path d="M0,0.41 Q-0.7478,-0.1509 -0.9513,-0.4904 T-1.0784,-1.0146 -0.7736,-1.2063 -0.3274,-1.2171 0.1024,-1.036 0.5231,-0.5636 0.6585,-0.0262 0.3582,0.3597 -0.1791,0.5696 -0.7518,0.4968 -1.1568,0.0833 -1.2837,-0.5156 -1.0722,-1.1218 -0.6768,-1.5451 -0.1812,-1.7753 0.3688,-1.9006 0.855,-1.7817 1.1195,-1.4367 1.1699,-1.062 1.0103,-0.7647 0.5496,-0.6029 -0.0719,-0.478 L-0.41,-0.41 " stroke-linecap="round" fill="none" stroke="#e03131" stroke-width="1.8462310170987226" stroke-dasharray="none" stroke-dashoffset="0"/></g></g><g transform="matrix(1, 0, 0, 1, 2139.5131, 22050.2077) scale(0.4102735593552717, 0.4102735593552717)" opacity="1"><g transform="scale(2.4373981144957515)"><path d="M0,0 Q0.5609,0.7478 0.8069,0.9513 T1.2803,1.4523 1.7248,1.9118 2.1535,2.2553 2.5737,2.6291 2.9893,3.0194 3.4023,3.3252 3.9074,3.585 4.4626,3.9133 4.9516,4.2789 5.4046,4.6647 5.838,5.0616 6.2607,5.4644 6.6776,5.8705 7.1871,6.2784 7.6536,6.6873 8.0008,7.0989 8.3766,7.5121 8.768,7.9238 9.1679,8.2413 9.5724,8.5075 9.9794,8.8392 10.2943,9.2067 10.5591,9.5935 10.9836,9.9909 11.495,10.4875 11.9601,10.9447 12.4001,11.2868 12.8264,11.6599 13.2453,12.0498 13.6601,12.4489 14.0727,12.853 14.4842,13.2597 14.8949,13.668 15.3054,14.077 15.7156,14.4865 16.1257,14.8962 16.5358,15.3061 16.9458,15.716 17.3559,16.1259 17.7659,16.5359 18.1759,17.0394 18.5859,17.5937 18.9959,18.0822 19.4059,18.6284 19.8159,19.1125 20.2259,19.4693 20.6359,19.9439 21.0459,20.4825 21.4559,20.8689 21.8682,21.2661 22.2817,21.7649 22.6936,22.2255 23.1981,22.663 23.6595,23.088 24.004,23.4127 24.4719,23.6828 25.0068,24.1102 25.4848,24.5296 25.9318,24.9447 26.2684,25.451 26.545,25.9134 26.8824,26.3519 27.253,26.6839 27.735,26.958 28.2776,27.2941 28.6663,27.6639 28.9712,28.052 29.3241,28.3566 29.703,28.6158 30.0961,28.9437 30.4969,29.3091 30.9018,29.6948 31.3091,30.0916 31.7176,30.4944 32.1268,30.9005 32.5364,31.3084 32.9462,31.6238 33.356,31.8888 33.766,32.1265 34.1759,32.3492 34.5859,32.6574 34.9959,33.1055 35.4059,33.6296 35.8159,34.1018 36.1324,34.5456 36.3981,34.9739 36.7295,35.3939 37.0991,35.8094 37.5829,36.1289 38.1265,36.3961 38.5157,36.7285 38.8209,37.0985 39.2674,37.4891 39.8779,37.9236 L40.21,38.16 " stroke-linecap="round" fill="none" stroke="#e03131" stroke-width="1.8462310170987226" stroke-dasharray="none" stroke-dashoffset="0"/></g></g><g transform="matrix(1, 0, 0, 1, 2178.0788, 22086.7221) scale(0.4102735593552717, 0.4102735593552717)" opacity="1"><g transform="scale(2.4373981144957515)"><path d="M0.41,0 Q0.0361,0.3739 -0.2526,0.3821 T-0.7918,0.1144 -1.272,-0.4986 -1.5333,-1.1126 -1.4885,-1.6335 -1.2771,-2.1039 -0.9752,-2.4532 -0.5305,-2.7368 0.0853,-2.9845 0.7008,-3.1192 1.2225,-3.1925 1.7868,-3.2324 2.3742,-3.1606 2.8807,-2.8411 3.3432,-2.2934 3.7818,-1.6215 4.1139,-0.9756 4.2945,-0.2503 4.2993,0.7052 4.1149,1.5054 3.8277,2.1276 3.4845,2.7466 3.0173,3.1768 2.3893,3.4108 1.7672,3.4446 1.2418,3.2761 0.769,2.904 0.3249,2.3276 -0.0102,1.5466 -0.099,0.5609 -0.0349,-0.599 L0,-1.23 " stroke-linecap="round" fill="none" stroke="#f2f2f2" stroke-width="1.8462310170987226" stroke-dasharray="none" stroke-dashoffset="0"/></g></g><g transform="matrix(1, 0, 0, 1, 2179.7199, 22050.618) scale(0.4102735593552717, 0.4102735593552717)" opacity="1"><g transform="scale(2.4373981144957515)"><path d="M0,-0.41 Q0.3739,-0.223 0.4756,-0.2657 T0.5392,-0.425 0.3868,-0.6986 0.3039,-0.9409 0.4458,-0.9793 0.7099,-0.8132 1.0405,-0.4424 1.3139,0.0398 1.2756,0.3956 0.9744,0.4956 0.5301,0.2696 -0.0788,-0.1705 L-0.41,-0.41 " stroke-linecap="round" fill="none" stroke="#e03131" stroke-width="1.8462310170987226" stroke-dasharray="none" stroke-dashoffset="0"/></g></g><g transform="matrix(1, 0, 0, 1, 2182.1815, 22088.3632) scale(0.4102735593552717, 0.4102735593552717)" opacity="1"><g transform="scale(2.4373981144957515)"><path d="M0,0 Q0.3739,-0.7478 0.5691,-1.0447 T1.0574,-1.6901 1.6035,-2.3216 2.181,-2.9456 2.7756,-3.5655 3.2861,-4.0897 3.7507,-4.5618 4.1904,-5.099 4.7101,-5.6718 5.2732,-6.1703 5.7665,-6.6284 6.2218,-7.1604 6.6565,-7.7325 7.0822,-8.2307 7.503,-8.6886 7.9189,-9.1247 8.3321,-9.5489 8.7438,-9.9667 9.1547,-10.3809 9.5653,-10.7932 9.9755,-11.2044 10.3857,-11.6151 10.7958,-12.0254 11.2058,-12.4356 11.6158,-12.8457 12.0259,-13.2558 12.4359,-13.6658 12.8459,-14.0759 13.3494,-14.4859 13.9037,-14.8959 14.3922,-15.3059 14.8449,-15.7159 15.2782,-16.0324 15.7008,-16.3915 16.2112,-16.8674 16.7692,-17.3132 17.2598,-17.7426 17.7136,-18.1632 18.1474,-18.579 18.5704,-18.9921 18.9875,-19.4038 19.4013,-19.8148 19.9069,-20.2253 20.4623,-20.6355 20.9515,-21.0457 21.4045,-21.4558 21.8402,-21.8681 22.2665,-22.2816 22.7788,-22.6936 23.2445,-23.1046 23.5913,-23.5152 24.0604,-24.019 24.596,-24.48 25.0743,-24.8243 25.5215,-25.292 25.9517,-25.8269 26.3728,-26.2114 26.7887,-26.514 27.202,-26.8656 27.6138,-27.2438 28.0247,-27.6365 28.4353,-28.0371 28.8455,-28.442 29.2557,-28.8492 29.6658,-29.2577 30.0758,-29.6669 30.4858,-30.0764 30.8959,-30.4862 31.3059,-30.896 31.7159,-31.3994 32.1259,-31.9537 32.5359,-32.4422 32.9459,-32.9884 33.3559,-33.566 33.7659,-34.0671 34.1759,-34.6202 34.5859,-35.2015 34.9959,-35.7047 35.4059,-36.1654 35.8159,-36.603 36.3194,-37.0303 36.9739,-37.4964 L37.33,-37.75 " stroke-linecap="round" fill="none" stroke="#e03131" stroke-width="1.8462310170987226" stroke-dasharray="none" stroke-dashoffset="0"/></g></g><g transform="matrix(1, 0, 0, 1, 2208.4376, 22023.2454) scale(0.27083913701944295, 0.27083913701944295)" opacity="1"><g transform="scale(3.6922285715605874)"><path d="M0,0 Q-0.4925,0.7433 -0.688,1.0686 T-1.0537,1.6324 -1.3781,2.1238 -1.6776,2.5758 -1.9637,3.1295 -2.1809,3.8023 -2.3606,4.4784 -2.5199,5.2156 -2.6066,6.1091 -2.6538,7.0899 -2.6794,7.9951 -2.6934,8.8569 -2.7009,9.6335 -2.7051,10.3661 -2.6458,11.1978 -2.4904,12.0196 -2.3443,12.7745 -2.2033,13.4313 -2.065,14.0988 -1.9897,14.8951 -1.9488,15.636 -1.9266,16.2238 -1.8529,16.7282 -1.7513,17.2512 -1.6321,17.7226 -1.3804,18.2253 -1.0587,18.8066 -0.7606,19.369 -0.4753,19.8597 -0.2586,20.2497 -0.0791,20.6488 0.1416,21.0529 0.3849,21.3959 0.5787,21.7056 0.7457,21.9971 1.0236,22.2789 1.3001,22.3706 1.5121,22.1742 1.689,21.8212 1.7852,21.3806 1.8991,20.954 2.0226,20.5988 2.0898,20.2208 2.1879,19.8306 2.3029,19.7414 2.3654,20.0007 2.3994,20.3902 2.4179,20.8507 2.428,21.3474 2.4335,21.987 2.4364,22.7043 2.3765,23.343 2.2208,23.939 2.0129,24.4479 1.7129,24.8479 1.3012,25.127 0.831,25.2788 0.2674,25.2999 -0.347,25.1882 -0.9913,24.8174 -1.5904,24.3056 -2.1009,23.7194 -2.6703,22.9167 L-2.98,22.48 " stroke-linecap="round" fill="none" stroke="#e03131" stroke-width="1.2187761165874933" stroke-dasharray="none" stroke-dashoffset="0"/></g></g><g transform="matrix(1, 0, 0, 1, 2211.4169, 22008.3492) scale(0.27083913701944295, 0.27083913701944295)" opacity="1"><g transform="scale(3.6922285715605874)"><path d="M0.27,0 Q0.1469,-0.6156 0.0518,-0.8469 T-0.1565,-1.3271 -0.4545,-1.8346 -0.8651,-2.2338 -1.2755,-2.4509 -1.6218,-2.4459 -1.9949,-2.1332 -2.3825,-1.5914 -2.655,-0.8657 -2.8032,0.0238 -2.8838,1.0025 -2.9277,1.9658 -2.89,2.8592 -2.7463,3.7168 -2.4835,4.555 -2.1559,5.3804 -1.7907,6.1372 -1.405,6.7951 -1.0721,7.4631 -0.8295,8.1981 -0.759,8.9058 -0.9054,9.4754 -1.2335,9.97 -1.6606,10.4237 -2.2007,10.7321 -2.8638,10.9637 -3.5963,11.1535 -4.3048,11.193 -4.9364,11.1506 -5.5263,11.0044 -6.0934,10.5555 -6.7065,9.8589 L-7.04,9.48 " stroke-linecap="round" fill="none" stroke="#e03131" stroke-width="1.2187761165874933" stroke-dasharray="none" stroke-dashoffset="0"/></g></g><g transform="matrix(1, 0, 0, 1, 2210.8752, 22014.0368) scale(0.27083913701944295, 0.27083913701944295)" opacity="1"><g transform="scale(3.6922285715605874)"><path d="M-0.27,0 Q-1.1364,0.1231 -1.5567,0.1566 T-2.3904,0.2083 -3.1518,0.1749 -3.9149,0.0616 L-4.33,0 " stroke-linecap="round" fill="none" stroke="#e03131" stroke-width="1.2187761165874933" stroke-dasharray="none" stroke-dashoffset="0"/></g></g><g transform="matrix(1, 0, 0, 1, 2064.0804, 22096.9136) scale(0.27083913701944295, 0.27083913701944295)" opacity="1"><g transform="scale(3.6922285715605874)"><path d="M0,0 Q0.7433,-0.1231 1.0686,-0.1566 T1.7555,-0.2083 2.437,-0.2364 3.054,-0.2517 3.7612,-0.2601 4.4561,-0.2646 5.1419,-0.2671 5.8227,-0.2684 6.5009,-0.2076 7.1799,-0.1129 7.7978,-0.0614 8.5034,-0.0334 9.1334,-0.0182 9.6608,-0.0099 10.1324,-0.0054 10.6375,-0.0029 11.3454,-0.0016 12.2846,-0.0009 13.2903,-0.0005 14.0859,-0.0003 14.7649,0.0614 15.5037,0.1565 16.1518,0.2083 16.8145,0.298 17.6081,0.4083 18.4093,0.4684 19.2144,0.501 19.9625,0.5188 20.5565,0.5285 21.1258,0.4722 21.7433,0.38 22.3255,0.3298 22.8269,0.3025 23.2843,0.2877 23.7817,0.2796 24.2392,0.2752 24.7343,0.2729 25.373,0.2716 26.0283,0.2708 26.6948,0.2705 27.4754,0.2702 L27.9,0.27 " stroke-linecap="round" fill="none" stroke="#4dabf7" stroke-width="1.2187761165874933" stroke-dasharray="none" stroke-dashoffset="0"/></g></g><g transform="matrix(1, 0, 0, 1, 2091.1643, 22096.9136) scale(0.27083913701944295, 0.27083913701944295)" opacity="1"><g transform="scale(3.6922285715605874)"><path d="M0,0 Q0.1231,-0.4925 0.095,-0.688 T-0.0099,-1.0537 -0.19,-1.3781 -0.4112,-1.6776 -0.593,-1.9637 -0.8151,-2.2425 -1.1229,-2.5172 -1.4157,-2.7282 -1.575,-2.7815 -1.4747,-2.6258 -1.1716,-2.2948 -0.822,-1.9917 -0.3856,-1.7013 0.098,-1.3565 0.6096,-0.9226 1.2596,-0.3172 1.7979,0.2584 2.1522,0.6946 2.4066,1.1189 2.6065,1.5366 2.7153,1.9486 2.6513,2.3573 2.4934,2.7028 2.2228,3.0139 1.8886,3.3062 1.4583,3.5268 0.978,3.6468 0.532,3.7121 0.0126,3.7626 L-0.27,3.79 " stroke-linecap="round" fill="none" stroke="#4dabf7" stroke-width="1.2187761165874933" stroke-dasharray="none" stroke-dashoffset="0"/></g></g><g transform="matrix(1, 0, 0, 1, 2064.0804, 22078.4965) scale(0.27083913701944295, 0.27083913701944295)" opacity="1"><g transform="scale(3.6922285715605874)"><path d="M0,0 Q-0.3694,-0.2462 -0.4083,-0.4363 T-0.3452,-0.7914 -0.0647,-1.1715 0.3342,-1.6884 0.8612,-2.2774 1.5811,-2.9671 2.4037,-3.7756 3.2844,-4.587 4.1967,-5.3978 5.1854,-6.2697 6.2796,-7.1773 7.3081,-8.0427 8.2985,-8.8828 9.3297,-9.7091 10.3239,-10.5303 11.298,-11.4103 12.2588,-12.3199 13.0893,-13.1225 13.7896,-13.8076 14.4806,-14.4289 15.1643,-15.0746 15.7825,-15.7337 16.4266,-16.4001 17.0871,-17.0726 17.6949,-17.687 18.2718,-18.3291 18.8318,-18.9861 19.3212,-19.5898 19.7721,-20.1667 20.2021,-20.7291 20.6229,-21.2197 21.0388,-21.6097 21.4498,-21.945 21.858,-22.2505 22.2647,-22.6014 22.6707,-22.977 23.0147,-23.3044 23.3865,-23.6056 23.7757,-23.8949 24.1128,-24.2392 24.4809,-24.6112 24.8658,-24.9367 25.1983,-25.2369 25.5023,-25.5233 25.8524,-25.7407 26.2891,-25.9205 26.7113,-26.1414 27.0664,-26.4463 27.385,-26.7968 27.6814,-27.0491 27.9042,-27.3117 27.9023,-27.6415 27.6527,-27.8825 27.2069,-28.0136 26.6565,-28.0849 26.0494,-28.1237 25.4728,-28.1448 25.2207,-28.1563 25.2683,-28.1625 25.4788,-28.1659 25.778,-28.1678 26.1255,-28.2304 26.5607,-28.326 27.046,-28.378 27.497,-28.4063 27.927,-28.3601 28.3456,-28.1503 28.6349,-27.7876 28.7307,-27.3418 28.5981,-26.8531 28.2798,-26.2794 27.8581,-25.6595 27.4417,-25.1376 27.0921,-24.6667 26.6557,-24.2852 26.0561,-23.9904 L25.73,-23.83 " stroke-linecap="round" fill="none" stroke="#4dabf7" stroke-width="1.2187761165874933" stroke-dasharray="none" stroke-dashoffset="0"/></g></g><g transform="matrix(1, 0, 0, 1, 2057.0386, 22050.3293) scale(0.27083913701944295, 0.27083913701944295)" opacity="1"><g transform="scale(3.6922285715605874)"><path d="M0,0 Q0.8664,0 1.2252,0 T1.9023,0 2.6399,0 3.4106,0 4.0784,0 4.6286,0 4.8664,-0.0616 4.6856,-0.1566 4.1541,-0.2083 3.4956,-0.2364 2.7657,-0.2517 1.9355,-0.2601 0.9913,-0.2646 0.1084,-0.2671 -0.1873,-0.2068 0.2059,-0.051 1.0993,0.0954 2.1416,0.175 3.388,0.2799 4.684,0.3985 5.6352,0.4015 6.545,0.3163 L7.04,0.27 " stroke-linecap="round" fill="none" stroke="#e03131" stroke-width="1.2187761165874933" stroke-dasharray="none" stroke-dashoffset="0"/></g></g><g transform="matrix(1, 0, 0, 1, 2044.8508, 22046.2667) scale(0.27083913701944295, 0.27083913701944295)" opacity="1"><g transform="scale(3.6922285715605874)"><path d="M0,0 Q-0.2462,0.1231 -0.3132,0.2182 T-0.4166,0.488 -0.4729,1.0681 -0.5035,1.8783 -0.4586,2.6885 -0.3726,3.5009 -0.2642,4.2529 -0.1438,4.9698 -0.0782,5.6675 -0.0425,6.1087 -0.0231,6.164 -0.0741,6.0094 -0.225,5.6791 -0.3686,5.1893 -0.5699,4.5512 -0.8025,3.8347 -0.9906,3.0118 -1.2183,2.0693 -1.4061,1.2488 -1.5697,0.4331 -1.7203,-0.3823 -1.8638,-1.0743 -2.065,-1.5124 -2.2976,-1.6276 -2.6088,-1.4417 -2.9627,-1.0305 -3.2784,-0.6222 -3.7602,-0.1538 -4.394,0.3473 -5.1696,0.8684 -6.0225,1.4003 -6.9197,1.8129 -8.0533,2.219 L-8.67,2.44 " stroke-linecap="round" fill="none" stroke="#e03131" stroke-width="1.2187761165874933" stroke-dasharray="none" stroke-dashoffset="0"/></g></g><g transform="matrix(1, 0, 0, 1, 2134.2277, 22099.0803) scale(0.27083913701944295, 0.27083913701944295)" opacity="1"><g transform="scale(3.6922285715605874)"><path d="M-0.27,0 Q-1.0133,0 -1.4001,0 T-2.1206,0 -2.8203,0 -3.5087,0.0616 -4.1317,0.1566 -4.7807,0.2083 -5.4416,0.298 -6.1089,0.4084 -6.7797,0.5299 -7.3932,0.7192 -7.9754,0.8837 -8.5999,1.0348 -9.2475,1.1785 -9.9076,1.3206 -10.6383,1.4617 -11.4074,1.5384 -12.1952,1.5802 -12.9931,1.6029 -13.7988,1.6768 -14.5472,1.7786 -15.2621,1.834 -15.9588,1.8641 -16.5841,1.8805 -17.2343,1.8894 -17.8981,1.8942 -18.5054,1.8969 -19.1436,1.8367 -19.7986,1.7425 -20.3419,1.6273 -20.8244,1.5009 -21.2715,1.3705 -21.6995,1.238 -22.1785,1.166 -22.6238,1.1268 -23.0507,1.1054 -23.5315,1.0938 -24.1031,1.0875 -24.7218,1.0841 -25.2431,1.0822 -25.7114,1.0812 -26.2123,1.0807 -26.6696,1.0804 -27.1052,1.0802 -27.5292,1.0185 -27.7599,0.8619 -27.7622,0.592 -27.6381,0.2605 -27.4452,-0.1045 -27.1555,-0.5493 -26.8133,-1.0398 -26.504,-1.5552 -26.2126,-2.0818 -25.931,-2.5529 -25.6547,-2.8708 -25.4428,-2.9822 -25.3891,-2.8581 -25.483,-2.6059 -25.7187,-2.284 -26.0317,-1.8604 -26.325,-1.3814 -26.6077,-0.813 -26.8846,-0.1961 -27.0968,0.4497 -27.2761,1.111 -27.4375,1.9017 -27.5253,2.7012 -27.5092,3.3208 -27.4366,3.8426 -27.274,4.2518 -26.9393,4.5998 -26.511,4.8507 -26.0933,4.9256 -25.6814,4.9048 -25.1883,4.8887 L-24.92,4.88 " stroke-linecap="round" fill="none" stroke="#4dabf7" stroke-width="1.2187761165874933" stroke-dasharray="none" stroke-dashoffset="0"/></g></g><g transform="matrix(1, 0, 0, 1, 2099.4829, 22089.4171) scale(0.15019086688801933, 0.15019086688801933)" opacity="1"><g transform="scale(6.658194474272454)"><path d="M0.171,-0.1026 Q0.342,-0.2052 0.4692,-0.2268 T0.6657,-0.226 0.8067,-0.1571 0.9177,-0.0171 0.978,0.1959 1.0108,0.4828 0.9945,0.8098 0.9172,1.0903 0.8068,1.2771 0.6441,1.413 0.3504,1.5211 -0.0146,1.4773 -0.3157,1.3166 -0.548,1.1266 -0.7427,0.8865 -0.8828,0.5507 -0.9591,0.197 -0.9321,-0.0981 -0.8149,-0.3611 -0.6827,-0.5727 -0.4398,-0.7561 -0.1024,-0.9243 0.2521,-1.05 0.6159,-1.1184 0.9507,-1.1214 1.2696,-1.0547 1.5456,-0.9499 1.7642,-0.7904 1.9515,-0.5668 2.0876,-0.2741 2.1617,0.0561 2.1678,0.3725 2.0685,0.6814 1.8776,0.9863 1.637,1.2548 1.3693,1.4692 1.0527,1.62 0.7095,1.6679 0.386,1.6255 0.0732,1.4657 -0.1996,1.2077 -0.3822,0.8964 -0.4815,0.5218 -0.5355,0.1471 -0.5307,-0.1936 -0.3913,-0.5157 -0.1445,-0.7935 0.1266,-0.9789 0.3767,-1.0797 0.6495,-1.1004 0.9347,-1.0432 1.1583,-0.9437 1.3825,-0.787 1.5729,-0.5307 1.7107,-0.2203 1.8198,0.0854 1.845,0.3884 1.7561,0.6559 1.6051,0.8698 1.4204,1.0204 1.1831,1.0681 0.9172,0.9572 0.6146,0.7259 0.225,0.3 0.171,-0.1026 Z" stroke-linecap="round" fill="none" stroke="#e03131" stroke-width="0.675858900996087" stroke-dasharray="none" stroke-dashoffset="0"/></g></g><g transform="matrix(1, 0, 0, 1, 2100.2976, 22052.3629) scale(0.21422838080217121, 0.21422838080217121)" opacity="1"><g transform="scale(4.667915596689535)"><path d="M0,0 Q-0.4879,-0.0958 -0.7187,-0.1218 T-1.173,-0.2122 -1.6162,-0.4095 -2.0511,-0.6628 -2.4337,-0.8987 -2.7398,-1.1729 -3.0044,-1.5158 -3.1985,-1.8985 -3.3519,-2.3027 -3.4833,-2.7187 -3.5547,-3.1411 -3.5936,-3.6148 -3.6148,-4.0664 -3.5784,-4.41 -3.4127,-4.695 -3.1743,-4.8979 -2.8988,-5.0585 -2.555,-5.196 -2.172,-5.2708 -1.7675,-5.3593 -1.4016,-5.4554 -1.0566,-5.5077 -0.6249,-5.4882 -0.194,-5.3796 0.1384,-5.2225 0.4173,-5.0389 0.667,-4.8411 0.901,-4.6354 1.1262,-4.3776 1.2967,-4.0914 1.4373,-3.8377 1.5616,-3.5537 1.6794,-3.2511 1.7937,-2.9884 1.8559,-2.6517 1.8897,-2.2724 1.8579,-1.9681 1.7426,-1.6566 1.5339,-1.3412 1.2745,-1.0716 0.9874,-0.8748 0.6352,-0.7677 0.2475,-0.7095 -0.1595,-0.6778 -0.5268,-0.6606 -0.8725,-0.7013 -1.2065,-0.8216 -1.4863,-0.985 -1.7365,-1.172 -2.0185,-1.4196 -2.3179,-1.7002 -2.5788,-1.9509 -2.8187,-2.1853 -2.9971,-2.4086 -3.1444,-2.6281 -3.2746,-2.8456 -3.3455,-3.0619 -3.4319,-3.2776 -3.5268,-3.493 -3.5305,-3.7083 -3.4345,-3.9211 -3.2341,-4.0848 -2.94,-4.2112 L-2.78,-4.28 " stroke-linecap="round" fill="none" stroke="#f2f2f2" stroke-width="0.9640277136097705" stroke-dasharray="none" stroke-dashoffset="0"/></g></g><g transform="matrix(1, 0, 0, 1, 2060.8796, 22141.3748) scale(0.21422838080217121, 0.21422838080217121)" opacity="1"><g transform="scale(4.667915596689535)"><path d="M0,0 Q0.2918,-0.4879 0.3712,-0.7187 T0.4938,-1.173 0.5126,-1.6162 0.4248,-2.0511 0.279,-2.4815 0.1039,-2.9118 -0.0393,-3.294 -0.1673,-3.6 -0.2871,-3.8622 -0.4001,-4.1029 -0.5597,-4.3318 -0.7445,-4.5043 -0.9431,-4.5502 -1.1492,-4.4772 -1.357,-4.2915 -1.5681,-3.9967 -1.781,-3.6402 -1.9949,-3.2024 -2.2093,-2.67 -2.3738,-2.1365 -2.4632,-1.6023 -2.5119,-1.0176 -2.5384,-0.4076 -2.5528,0.2183 -2.5607,0.8529 -2.517,1.4421 -2.4454,2.0066 -2.3563,2.6055 -2.2098,3.1753 -2.0822,3.6813 -1.9626,4.2006 -1.8474,4.727 -1.7369,5.2094 -1.6289,5.7159 -1.5701,6.2353 -1.5381,6.714 -1.5207,7.2183 -1.5113,7.7366 -1.5061,8.2626 -1.5512,8.7926 -1.6738,9.2771 -1.8887,9.6865 -2.1515,10.0073 -2.4404,10.2799 -2.7936,10.476 -3.2297,10.5827 -3.7109,10.6408 -4.2167,10.6723 -4.7357,10.6416 -5.2142,10.5269 -5.6706,10.3664 -6.0647,10.1811 -6.4251,9.9822 -6.7671,9.7281 -7.0993,9.3926 L-7.28,9.21 " stroke-linecap="round" fill="none" stroke="#f2f2f2" stroke-width="0.9640277136097705" stroke-dasharray="none" stroke-dashoffset="0"/></g></g><g transform="matrix(1, 0, 0, 1, 2060.2369, 22146.9447) scale(0.21422838080217121, 0.21422838080217121)" opacity="1"><g transform="scale(4.667915596689535)"><path d="M0,0 Q-0.3922,0 -0.5969,0 T-1.0087,-0.0479 -1.4767,-0.1218 -1.9274,-0.2122 -2.3184,-0.3115 -2.7599,-0.3883 L-3,-0.43 " stroke-linecap="round" fill="none" stroke="#f2f2f2" stroke-width="0.9640277136097705" stroke-dasharray="none" stroke-dashoffset="0"/></g></g><g transform="matrix(1, 0, 0, 1, 2067.5206, 22137.9471) scale(0.21422838080217121, 0.21422838080217121)" opacity="1"><g transform="scale(4.667915596689535)"><path d="M0,0 Q-0.1961,0.4879 -0.3475,0.7187 T-0.6792,1.2209 -1.0535,1.738 -1.5011,2.2633 -1.9885,2.8432 -2.3996,3.4528 -2.7213,4.0762 -2.9943,4.7574 -3.193,5.5201 -3.3011,6.277 -3.3599,6.9806 -3.3918,7.6552 -3.3591,8.3163 -3.2432,8.9199 -3.1323,9.4421 -3.0218,9.9724 -2.8637,10.5048 -2.6819,10.9883 -2.5351,11.3995 -2.3572,11.8192 -2.0805,12.3508 L-1.93,12.64 " stroke-linecap="round" fill="none" stroke="#f2f2f2" stroke-width="0.9640277136097705" stroke-dasharray="none" stroke-dashoffset="0"/></g></g><g transform="matrix(1, 0, 0, 1, 2072.2337, 22144.374) scale(0.21422838080217121, 0.21422838080217121)" opacity="1"><g transform="scale(4.667915596689535)"><path d="M0,0 Q-0.0958,0.3922 -0.2198,0.5969 T-0.5095,1.0589 -0.911,1.5541 -1.3734,2.0174 -1.8689,2.4632 -2.3824,2.9018 -2.8578,3.2886 -3.3604,3.597 -3.956,3.9034 L-4.28,4.07 " stroke-linecap="round" fill="none" stroke="#f2f2f2" stroke-width="0.9640277136097705" stroke-dasharray="none" stroke-dashoffset="0"/></g></g><g transform="matrix(1, 0, 0, 1, 2068.3776, 22145.2309) scale(0.21422838080217121, 0.21422838080217121)" opacity="1"><g transform="scale(4.667915596689535)"><path d="M0,0 Q0.5882,0.2918 0.7961,0.4214 T1.165,0.7194 1.4637,1.0275 1.7242,1.341 2.0118,1.6575 2.3644,1.9755 2.7523,2.2945 3.1594,2.6139 3.5746,2.9359 3.9464,3.2091 4.2969,3.4056 4.7069,3.5574 L4.93,3.64 " stroke-linecap="round" fill="none" stroke="#f2f2f2" stroke-width="0.9640277136097705" stroke-dasharray="none" stroke-dashoffset="0"/></g></g><g transform="matrix(1, 0, 0, 1, 2073.519, 22138.3756) scale(0.21422838080217121, 0.21422838080217121)" opacity="1"><g transform="scale(4.667915596689535)"><path d="M0,0 Q0.7798,0.8801 1.042,1.2654 T1.4948,2.0564 1.8392,2.8765 2.1724,3.8106 2.4495,4.8569 2.6504,5.9641 2.8098,7.1524 2.8965,8.3346 2.8936,9.4178 2.746,10.3992 2.5198,11.2272 2.2486,11.8236 1.9551,12.2437 1.6017,12.5202 1.1213,12.7338 L0.86,12.85 " stroke-linecap="round" fill="none" stroke="#f2f2f2" stroke-width="0.9640277136097705" stroke-dasharray="none" stroke-dashoffset="0"/></g></g><g transform="matrix(1, 0, 0, 1, 2080.5886, 22144.1597) scale(0.21422838080217121, 0.21422838080217121)" opacity="1"><g transform="scale(4.667915596689535)"><path d="M0,0 Q0.684,0.2918 0.9179,0.4214 T1.3772,0.6214 1.8231,0.7302 2.2617,0.7392 2.6964,0.694 3.129,0.6215 3.6082,0.484 4.1858,0.3065 L4.5,0.21 " stroke-linecap="round" fill="none" stroke="#f2f2f2" stroke-width="0.9640277136097705" stroke-dasharray="none" stroke-dashoffset="0"/></g></g><g transform="matrix(1, 0, 0, 1, 2081.6597, 22146.9447) scale(0.21422838080217121, 0.21422838080217121)" opacity="1"><g transform="scale(4.667915596689535)"><path d="M0.21,0 Q0.7025,0.0958 0.9322,0.1218 T1.3849,0.162 1.8752,0.1839 2.3858,0.1958 2.9098,0.2023 3.4389,0.2058 3.9205,0.2077 4.4318,0.2092 L4.71,0.21 " stroke-linecap="round" fill="none" stroke="#f2f2f2" stroke-width="0.9640277136097705" stroke-dasharray="none" stroke-dashoffset="0"/></g></g><g transform="matrix(1, 0, 0, 1, 2098.798, 22123.3796) scale(0.21422838080217121, 0.21422838080217121)" opacity="1"><g transform="scale(4.667915596689535)"><path d="M0,0 Q0.0958,-0.4879 0.1218,-0.6708 T0.162,-1.001 0.1839,-1.3745 0.1479,-1.7737 0.0326,-2.1368 -0.078,-2.5282 -0.1884,-2.8892 -0.3464,-3.1837 -0.6285,-3.3918 -1.0259,-3.505 -1.4359,-3.5187 -1.855,-3.4782 -2.2289,-3.4061 -2.5304,-3.2186 -2.7924,-2.9707 -3.033,-2.7401 -3.2619,-2.4687 -3.4343,-2.125 -3.5281,-1.7921 -3.5791,-1.513 -3.657,-1.1149 -3.7496,-0.6065 -3.7999,-0.184 -3.7772,0.194 -3.7146,0.5957 -3.6806,0.9602 -3.6621,1.3044 -3.652,1.6375 -3.5987,1.9168 -3.5217,2.2648 -3.4799,2.6479 -3.407,3.0023 -3.3172,3.3911 -3.2204,3.7486 -3.1199,4.0889 -3.0652,4.4702 -2.9853,4.8737 -2.8917,5.2892 -2.8408,5.6612 -2.7652,6.0597 -2.6762,6.5204 -2.6278,6.9648 -2.6014,7.4027 -2.5392,7.8369 -2.4575,8.2692 -2.413,8.7005 -2.3889,9.081 -2.3757,9.434 -2.3685,9.7719 -2.3145,10.1518 -2.2349,10.6526 -2.1916,11.169 -2.1681,11.646 -2.1553,12.0992 -2.1483,12.5396 -2.0966,12.9753 -2.0207,13.4084 -1.9793,13.84 -1.9568,14.2208 -1.9446,14.6217 -1.9379,15.1339 -1.9343,15.6588 -1.9323,16.1883 -1.9313,16.7203 -1.9307,17.2537 -1.9304,17.7878 -1.9302,18.2744 -1.9301,18.7831 -1.9301,19.2537 -1.9779,19.7536 -2.102,20.3197 -2.2196,20.8237 -2.3315,21.294 -2.4881,21.7436 -2.6714,22.1341 -2.8691,22.4446 -3.1226,22.7115 -3.4087,22.9548 -3.7102,23.135 -4.0681,23.1852 -4.3608,23.1144 -4.52,22.9779 -4.6568,22.8056 -4.7814,22.6138 -4.8492,22.4137 -4.886,22.2068 -4.808,21.9962 -4.5695,21.8338 -4.2437,21.7933 -3.8704,21.8693 -3.5214,22.0566 -3.2335,22.3523 -2.9788,22.6613 -2.7924,22.9776 -2.691,23.3435 -2.6358,23.7364 -2.6058,24.194 -2.6374,24.6869 -2.7526,25.2013 -2.9133,25.7753 -3.0486,26.3315 -3.1723,26.8301 -3.2898,27.2952 -3.4016,27.742 -3.5103,28.2313 -3.6196,28.7916 -3.7292,29.3403 -3.7889,29.8828 -3.8213,30.4219 -3.8868,31.0572 -3.9704,31.7926 -4.0158,32.5347 -4.0884,33.3283 -4.1758,34.1499 -4.2233,34.9388 -4.2492,35.71 -4.2632,36.5696 -4.321,37.4772 -4.4026,38.2651 -4.4949,39.0836 -4.593,40.0167 -4.6463,40.9165 -4.7255,41.8461 -4.8188,42.7918 -4.8695,43.6961 -4.8971,44.578 -4.9121,45.4499 -4.9203,46.314 -4.9247,47.0281 -4.877,47.7586 -4.7529,48.596 -4.5396,49.3457 -4.2274,50.0453 -3.8136,50.6699 -3.2465,51.2057 -2.5482,51.5953 -1.8764,51.8072 -1.0208,51.9225 -0.0172,51.9852 0.9654,52.0336 L1.5,52.06 " stroke-linecap="round" fill="none" stroke="#f2f2f2" stroke-width="0.9640277136097705" stroke-dasharray="none" stroke-dashoffset="0"/></g></g><g transform="matrix(1, 0, 0, 1, 2109.081, 22130.0206) scale(0.21422838080217121, 0.21422838080217121)" opacity="1"><g transform="scale(4.667915596689535)"><path d="M0,0 Q-0.1961,0.2918 -0.4455,0.5673 T-1.1224,1.3346 -1.9284,2.2901 -2.6109,3.1519 -3.2762,3.8647 -4.0688,4.5547 L-4.5,4.93 " stroke-linecap="round" fill="none" stroke="#f2f2f2" stroke-width="0.9640277136097705" stroke-dasharray="none" stroke-dashoffset="0"/></g></g><g transform="matrix(1, 0, 0, 1, 2104.5822, 22130.0206) scale(0.21422838080217121, 0.21422838080217121)" opacity="1"><g transform="scale(4.667915596689535)"><path d="M0.21,0 Q0.7025,0.7798 0.9824,1.1401 T1.5604,1.9403 2.2169,2.7655 2.8179,3.4082 3.4368,3.954 4.1656,4.399 4.9392,4.7429 L5.36,4.93 " stroke-linecap="round" fill="none" stroke="#f2f2f2" stroke-width="0.9640277136097705" stroke-dasharray="none" stroke-dashoffset="0"/></g></g><g transform="matrix(1, 0, 0, 1, 2113.1513, 22136.019) scale(0.21422838080217121, 0.21422838080217121)" opacity="1"><g transform="scale(4.667915596689535)"><path d="M0,0 Q0,0.684 0,0.9179 T-0.0479,1.3293 -0.2198,1.7012 -0.492,2.1279 L-0.64,2.36 " stroke-linecap="round" fill="none" stroke="#f2f2f2" stroke-width="0.9640277136097705" stroke-dasharray="none" stroke-dashoffset="0"/></g></g><g transform="matrix(1, 0, 0, 1, 2136.0737, 22131.5202) scale(0.21422838080217121, 0.21422838080217121)" opacity="1"><g transform="scale(4.667915596689535)"><path d="M0.21,0 Q0.3103,0.684 0.3376,1.016 T0.3797,1.6744 0.3525,2.3268 0.2875,2.9279 0.2043,3.4008 0.1111,3.7538 0.1083,3.8 0.2049,3.5811 0.3554,3.266 0.5832,2.8027 0.9032,2.3067 1.2734,1.8408 1.6708,1.4414 2.0809,1.1261 2.4977,0.9045 2.8727,0.8819 3.1268,1.0657 3.2651,1.3618 3.3882,1.7189 3.503,2.107 3.5176,2.5621 3.4609,3.1242 L3.43,3.43 " stroke-linecap="round" fill="none" stroke="#f2f2f2" stroke-width="0.9640277136097705" stroke-dasharray="none" stroke-dashoffset="0"/></g></g><g transform="matrix(1, 0, 0, 1, 2142.929, 22131.7345) scale(0.21422838080217121, 0.21422838080217121)" opacity="1"><g transform="scale(4.667915596689535)"><path d="M0.21,0 Q0.0185,0.3922 -0.1317,0.5969 T-0.4136,1.0087 -0.665,1.4265 -0.8999,1.8499 -1.0778,2.2262 -1.1745,2.5289 -1.177,2.7916 -1.0302,2.9824 -0.7063,2.9881 -0.2862,2.8453 0.0883,2.6217 0.4379,2.3542 0.7763,2.0627 1.0584,1.7582 1.2598,1.4467 1.4172,1.129 1.5507,0.8581 1.6735,0.7108 1.7905,0.7765 1.902,1.0084 2.0607,1.2805 2.245,1.5744 2.4411,1.8825 2.6937,2.1481 3.0281,2.4213 L3.21,2.57 " stroke-linecap="round" fill="none" stroke="#f2f2f2" stroke-width="0.9640277136097705" stroke-dasharray="none" stroke-dashoffset="0"/></g></g><g transform="matrix(1, 0, 0, 1, 2148.499, 22134.5194) scale(0.21422838080217121, 0.21422838080217121)" opacity="1"><g transform="scale(4.667915596689535)"><path d="M0,0 Q0.2918,-0.2918 0.3233,-0.4693 T0.3218,-0.7934 0.2229,-1.1156 0.1213,-1.4368 0.0181,-1.7096 0.0098,-1.9059 0.1992,-2.0126 0.4982,-2.0707 0.857,-2.0544 1.3463,-2.0456 2.0028,-2.1067 L2.36,-2.14 " stroke-linecap="round" fill="none" stroke="#f2f2f2" stroke-width="0.9640277136097705" stroke-dasharray="none" stroke-dashoffset="0"/></g></g><g transform="matrix(1, 0, 0, 1, 2142.929, 22126.593) scale(0.21422838080217121, 0.21422838080217121)" opacity="1"><g transform="scale(4.667915596689535)"><path d="M0,0 Q0.684,-0.1961 0.9179,-0.2494 T1.4273,-0.3796 1.9005,-0.5485 2.1078,-0.6404 1.8785,-0.5923 1.3549,-0.4872 L1.07,-0.43 " stroke-linecap="round" fill="none" stroke="#f2f2f2" stroke-width="0.9640277136097705" stroke-dasharray="none" stroke-dashoffset="0"/></g></g><g transform="matrix(1, 0, 0, 1, 2168.4222, 22131.306) scale(0.21422838080217121, 0.21422838080217121)" opacity="1"><g transform="scale(4.667915596689535)"><path d="M0,0 Q-0.3922,0.5882 -0.6447,0.942 T-1.1807,1.6844 -1.8142,2.4302 -2.551,3.178 -3.2938,3.8789 -4.0399,4.4562 -4.7376,4.8182 -5.4127,5.0266 L-5.78,5.14 " stroke-linecap="round" fill="none" stroke="#f2f2f2" stroke-width="0.9640277136097705" stroke-dasharray="none" stroke-dashoffset="0"/></g></g><g transform="matrix(1, 0, 0, 1, 2163.0665, 22132.8056) scale(0.21422838080217121, 0.21422838080217121)" opacity="1"><g transform="scale(4.667915596689535)"><path d="M0,0 Q0.4879,0.4879 0.7666,0.7187 T1.3928,1.3189 2.1257,1.9875 2.8185,2.5472 3.4393,2.9976 4.0689,3.3407 4.6554,3.5775 5.2477,3.7605 L5.57,3.86 " stroke-linecap="round" fill="none" stroke="#f2f2f2" stroke-width="0.9640277136097705" stroke-dasharray="none" stroke-dashoffset="0"/></g></g><g transform="matrix(1, 0, 0, 1, 2160.9242, 22130.6633) scale(0.21422838080217121, 0.21422838080217121)" opacity="1"><g transform="scale(4.667915596689535)"><path d="M0,0 Q-0.2918,0.5882 -0.4214,0.844 T-0.6693,1.3369 -0.95,1.8012 -1.2487,2.1996 -1.5092,2.5144 -1.6509,2.7837 -1.5821,2.9781 -1.3007,3.0839 -0.8535,3.1915 -0.3184,3.3482 0.3023,3.5372 L0.64,3.64 " stroke-linecap="round" fill="none" stroke="#f2f2f2" stroke-width="0.9640277136097705" stroke-dasharray="none" stroke-dashoffset="0"/></g></g><g transform="matrix(1, 0, 0, 1, 2158.5677, 22137.3044) scale(0.21422838080217121, 0.21422838080217121)" opacity="1"><g transform="scale(4.667915596689535)"><path d="M0,0 Q0.5882,0 0.844,0 T1.2891,-0.0479 1.6794,-0.172 2.1202,-0.3391 L2.36,-0.43 " stroke-linecap="round" fill="none" stroke="#f2f2f2" stroke-width="0.9640277136097705" stroke-dasharray="none" stroke-dashoffset="0"/></g></g><g transform="matrix(1, 0, 0, 1, 2155.997, 22131.0918) scale(0.21422838080217121, 0.21422838080217121)" opacity="1"><g transform="scale(4.667915596689535)"><path d="M0,0 Q-0.684,0.5882 -0.9179,0.7961 T-1.4273,1.361 -1.9005,1.9602 -2.2537,2.6282 -2.4937,3.3837 -2.5285,4.0888 -2.3035,4.7642 -1.9371,5.2274 -1.4459,5.4794 -0.7387,5.5686 0.1841,5.3253 1.0783,4.8509 1.7585,4.2987 2.2745,3.5583 2.7444,2.6397 L3,2.14 " stroke-linecap="round" fill="none" stroke="#f2f2f2" stroke-width="0.9640277136097705" stroke-dasharray="none" stroke-dashoffset="0"/></g></g><g transform="matrix(1, 0, 0, 1, 2177.2056, 22129.5922) scale(0.21422838080217121, 0.21422838080217121)" opacity="1"><g transform="scale(4.667915596689535)"><path d="M0,0 Q-0.1961,0.684 -0.2973,0.9179 T-0.5516,1.3772 -0.9339,1.8231 -1.3858,2.3096 -1.9258,2.8684 -2.4635,3.3684 -2.9521,3.7864 -3.414,4.1597 -3.761,4.4608 -3.9498,4.6747 -3.9567,4.7911 -3.8146,4.8545 -3.5412,4.8889 -3.1964,4.9555 -2.8127,5.0396 -2.4079,5.1356 -1.9437,5.2858 -1.4974,5.4633 -1.0586,5.6579 -0.5257,5.8139 0.0933,5.9344 L0.43,6 " stroke-linecap="round" fill="none" stroke="#f2f2f2" stroke-width="0.9640277136097705" stroke-dasharray="none" stroke-dashoffset="0"/></g></g><g transform="matrix(1, 0, 0, 1, 2183.6324, 22128.9495) scale(0.21422838080217121, 0.21422838080217121)" opacity="1"><g transform="scale(4.667915596689535)"><path d="M0,0 Q0.3922,0.3922 0.4988,0.6447 T0.6635,1.2787 0.703,2.2095 0.6264,3.254 0.5368,4.212 0.438,4.9772 0.334,5.5416 0.2775,5.7028 0.2467,5.4484 0.2229,5.1127 L0.21,4.93 " stroke-linecap="round" fill="none" stroke="#f2f2f2" stroke-width="0.9640277136097705" stroke-dasharray="none" stroke-dashoffset="0"/></g></g><g transform="matrix(1, 0, 0, 1, 2183.8467, 22128.521) scale(0.21422838080217121, 0.21422838080217121)" opacity="1"><g transform="scale(4.667915596689535)"><path d="M0,0 Q-0.0958,0.0958 -0.3179,0.368 T-0.711,0.8363 -1.1209,1.2849 -1.5879,1.725 -2.1338,2.0624 -2.8308,2.3912 L-3.21,2.57 " stroke-linecap="round" fill="none" stroke="#f2f2f2" stroke-width="0.9640277136097705" stroke-dasharray="none" stroke-dashoffset="0"/></g></g><g transform="matrix(1, 0, 0, 1, 2105.2248, 22147.8016) scale(0.21422838080217121, 0.21422838080217121)" opacity="1"><g transform="scale(4.667915596689535)"><path d="M0,0 Q0,0.3922 -0.0479,0.5467 T-0.3179,0.9312 -0.8068,1.4824 -1.3668,2.0764 -1.9155,2.6435 -2.4579,3.1959 -2.9491,3.6424 -3.4602,3.9833 -4.1336,4.318 L-4.5,4.5 " stroke-linecap="round" fill="none" stroke="#f2f2f2" stroke-width="0.9640277136097705" stroke-dasharray="none" stroke-dashoffset="0"/></g></g><g transform="matrix(1, 0, 0, 1, 2101.1545, 22147.8016) scale(0.21422838080217121, 0.21422838080217121)" opacity="1"><g transform="scale(4.667915596689535)"><path d="M0.21,0 Q0.5064,0.5882 0.7329,0.942 T1.1306,1.5385 1.543,2.1069 2.0615,2.7079 2.5373,3.1831 2.9923,3.5397 3.5543,3.8831 L3.86,4.07 " stroke-linecap="round" fill="none" stroke="#f2f2f2" stroke-width="0.9640277136097705" stroke-dasharray="none" stroke-dashoffset="0"/></g></g><g transform="matrix(1, 0, 0, 1, 2106.0818, 22150.1581) scale(0.21422838080217121, 0.21422838080217121)" opacity="1"><g transform="scale(4.667915596689535)"><path d="M0.21,0 Q0.7025,0.1961 0.9824,0.2494 T1.5125,0.3318 2.0614,0.3954 L2.36,0.43 " stroke-linecap="round" fill="none" stroke="#f2f2f2" stroke-width="0.9640277136097705" stroke-dasharray="none" stroke-dashoffset="0"/></g></g><g transform="matrix(1, 0, 0, 1, 2111.009, 22147.1589) scale(0.21422838080217121, 0.21422838080217121)" opacity="1"><g transform="scale(4.667915596689535)"><path d="M0,0 Q0.1961,0.684 0.2973,0.9681 T0.4536,1.6005 0.5386,2.3846 0.635,3.2033 0.7855,3.8926 0.9698,4.5645 L1.07,4.93 " stroke-linecap="round" fill="none" stroke="#f2f2f2" stroke-width="0.9640277136097705" stroke-dasharray="none" stroke-dashoffset="0"/></g></g><g transform="matrix(1, 0, 0, 1, 2115.0793, 22152.0862) scale(0.21422838080217121, 0.21422838080217121)" opacity="1"><g transform="scale(4.667915596689535)"><path d="M0,0 Q0.0958,0.5882 0.0739,0.7961 T-0.0578,1.263 -0.2754,1.7131 -0.5899,2.154 -0.9091,2.5877 -1.1786,2.9216 -1.5228,3.2509 L-1.71,3.43 " stroke-linecap="round" fill="none" stroke="#f2f2f2" stroke-width="0.9640277136097705" stroke-dasharray="none" stroke-dashoffset="0"/></g></g><g transform="matrix(1, 0, 0, 1, 2135.2168, 22150.3723) scale(0.21422838080217121, 0.21422838080217121)" opacity="1"><g transform="scale(4.667915596689535)"><path d="M0,0 Q0,0.684 -0.0479,1.016 T-0.172,1.7246 -0.3375,2.4042 -0.5256,3.0179 -0.726,3.5957 -0.8828,4.0559 -0.9203,4.2562 -0.8426,4.1713 -0.6522,3.8332 -0.3548,3.2572 0.0988,2.4559 0.6397,1.58 1.0799,0.9074 1.4653,0.4457 1.8231,0.1946 2.1158,0.1537 2.3229,0.2774 2.4356,0.5408 2.4969,0.928 2.5302,1.5286 2.5484,2.1494 2.5103,2.7812 2.413,3.6159 L2.36,4.07 " stroke-linecap="round" fill="none" stroke="#f2f2f2" stroke-width="0.9640277136097705" stroke-dasharray="none" stroke-dashoffset="0"/></g></g><g transform="matrix(1, 0, 0, 1, 2141.001, 22151.2293) scale(0.21422838080217121, 0.21422838080217121)" opacity="1"><g transform="scale(4.667915596689535)"><path d="M0,0 Q0.3922,0.0958 0.4487,0.2198 T0.4379,0.5095 0.2861,0.911 0.1077,1.4235 -0.0371,1.9463 -0.116,2.3766 -0.0631,2.6107 0.1595,2.64 0.5747,2.412 1.0445,1.9961 1.5441,1.4781 2.0119,0.95 2.3143,0.5168 2.5266,0.2333 2.6422,0.2249 2.7552,0.4165 2.8668,0.6666 3.0256,0.9965 3.3559,1.4199 3.8184,1.8863 L4.07,2.14 " stroke-linecap="round" fill="none" stroke="#f2f2f2" stroke-width="0.9640277136097705" stroke-dasharray="none" stroke-dashoffset="0"/></g></g><g transform="matrix(1, 0, 0, 1, 2147.8563, 22153.1573) scale(0.21422838080217121, 0.21422838080217121)" opacity="1"><g transform="scale(4.667915596689535)"><path d="M0,0 Q0,-0.2918 -0.0479,-0.4693 T-0.1218,-0.7934 -0.2601,-1.1657 -0.4333,-1.5621 -0.5276,-1.9237 -0.531,-2.2663 -0.339,-2.5005 0.1074,-2.628 0.5965,-2.6494 1.1065,-2.5653 1.628,-2.4215 2.0097,-2.2932 2.1193,-2.2233 1.9967,-2.1694 L1.93,-2.14 " stroke-linecap="round" fill="none" stroke="#f2f2f2" stroke-width="0.9640277136097705" stroke-dasharray="none" stroke-dashoffset="0"/></g></g><g transform="matrix(1, 0, 0, 1, 2143.5717, 22145.2309) scale(0.21422838080217121, 0.21422838080217121)" opacity="1"><g transform="scale(4.667915596689535)"><path d="M0,0 Q0.8801,-0.0958 1.2175,-0.1218 T1.7864,-0.1141 2.1916,-0.0142 2.4599,0.1382 2.558,0.3191 2.5156,0.5156 2.2964,0.7707 1.8831,1.0075 1.3162,1.1363 0.716,1.2064 0.1163,1.2605 L-0.21,1.29 " stroke-linecap="round" fill="none" stroke="#f2f2f2" stroke-width="0.9640277136097705" stroke-dasharray="none" stroke-dashoffset="0"/></g></g><g transform="matrix(1, 0, 0, 1, 2172.2783, 22148.8727) scale(0.21422838080217121, 0.21422838080217121)" opacity="1"><g transform="scale(4.667915596689535)"><path d="M0,0 Q-0.4879,1.0762 -0.6708,1.4168 T-1.0991,2.0886 -1.6718,2.7481 -2.2752,3.3509 -2.7995,3.8247 -3.3287,4.1805 -3.9448,4.5235 L-4.28,4.71 " stroke-linecap="round" fill="none" stroke="#f2f2f2" stroke-width="0.9640277136097705" stroke-dasharray="none" stroke-dashoffset="0"/></g></g><g transform="matrix(1, 0, 0, 1, 2168.208, 22149.7297) scale(0.21422838080217121, 0.21422838080217121)" opacity="1"><g transform="scale(4.667915596689535)"><path d="M0,0 Q0.4879,0.3922 0.6708,0.5969 T1.0489,1.0087 1.4484,1.4265 1.8618,1.8978 2.2828,2.3981 2.7079,2.8664 3.231,3.3172 3.9104,3.8048 L4.28,4.07 " stroke-linecap="round" fill="none" stroke="#f2f2f2" stroke-width="0.9640277136097705" stroke-dasharray="none" stroke-dashoffset="0"/></g></g><g transform="matrix(1, 0, 0, 1, 2166.7084, 22147.5874) scale(0.21422838080217121, 0.21422838080217121)" opacity="1"><g transform="scale(4.667915596689535)"><path d="M0,0 Q0.1961,0.2918 0.1514,0.4693 T-0.0636,0.8412 -0.4245,1.1895 -0.8647,1.5249 -1.3482,1.8555 -1.8073,2.1813 -2.3512,2.5524 -2.891,2.9503 -3.2827,3.315 -3.4958,3.6114 -3.4635,3.8684 -3.2499,4.0561 -2.9398,4.1582 -2.5774,4.2137 -2.1841,4.244 -1.8243,4.3105 -1.4325,4.3969 -0.9192,4.4637 L-0.64,4.5 " stroke-linecap="round" fill="none" stroke="#f2f2f2" stroke-width="0.9640277136097705" stroke-dasharray="none" stroke-dashoffset="0"/></g></g><g transform="matrix(1, 0, 0, 1, 2162.2096, 22154.0142) scale(0.21422838080217121, 0.21422838080217121)" opacity="1"><g transform="scale(4.667915596689535)"><path d="M0,0 Q0.4879,0.1961 0.7666,0.2494 T1.345,0.3318 1.8557,0.3766 2.2795,0.3508 2.7061,0.2387 3.1749,0.0841 L3.43,0 " stroke-linecap="round" fill="none" stroke="#f2f2f2" stroke-width="0.9640277136097705" stroke-dasharray="none" stroke-dashoffset="0"/></g></g><g transform="matrix(1, 0, 0, 1, 2159.2104, 22148.2301) scale(0.21422838080217121, 0.21422838080217121)" opacity="1"><g transform="scale(4.667915596689535)"><path d="M0,0 Q0,1.2677 0,1.7105 T0,2.6884 0,3.6125 0.0479,4.3113 0.1218,4.8853 0.1789,5.4648 L0.21,5.78 " stroke-linecap="round" fill="none" stroke="#f2f2f2" stroke-width="0.9640277136097705" stroke-dasharray="none" stroke-dashoffset="0"/></g></g><g transform="matrix(1, 0, 0, 1, 2181.0617, 22147.8016) scale(0.21422838080217121, 0.21422838080217121)" opacity="1"><g transform="scale(4.667915596689535)"><path d="M0,0 Q-0.4879,0.4879 -0.7187,0.7187 T-1.2209,1.173 -1.7859,1.6641 -2.2894,2.1251 -2.6613,2.5218 -2.9617,2.8858 -3.1251,3.1818 -3.0658,3.3907 -2.8397,3.5044 -2.5229,3.5184 -2.1066,3.4781 -1.6841,3.406 -1.306,3.3166 -0.8564,3.268 -0.3017,3.2304 L0,3.21 " stroke-linecap="round" fill="none" stroke="#f2f2f2" stroke-width="0.9640277136097705" stroke-dasharray="none" stroke-dashoffset="0"/></g></g><g transform="matrix(1, 0, 0, 1, 2177.8483, 22153.5858) scale(0.21422838080217121, 0.21422838080217121)" opacity="1"><g transform="scale(4.667915596689535)"><path d="M0,0 Q0.684,0 1.016,0 T1.5787,0 1.9828,-0.0479 2.3486,-0.1218 2.7437,-0.2122 3.1882,-0.3533 L3.43,-0.43 " stroke-linecap="round" fill="none" stroke="#f2f2f2" stroke-width="0.9640277136097705" stroke-dasharray="none" stroke-dashoffset="0"/></g></g><g transform="matrix(1, 0, 0, 1, 2182.5613, 22148.4443) scale(0.21422838080217121, 0.21422838080217121)" opacity="1"><g transform="scale(4.667915596689535)"><path d="M0,0 Q0.684,-0.1961 1.016,-0.2973 T1.6266,-0.4536 2.2027,-0.5386 2.8102,-0.5848 3.3847,-0.5621 3.8431,-0.4038 4.1427,-0.1216 4.3056,0.2758 4.3441,0.7839 4.2191,1.3544 3.9573,1.9589 3.5687,2.5795 3.0631,3.1612 2.5441,3.6736 2.0178,4.0983 1.4876,4.4753 1.0532,4.8764 0.8671,5.1927 0.9117,5.4126 1.0819,5.5802 1.4687,5.6713 2.0689,5.7209 2.8834,5.6521 3.7186,5.4687 4.515,5.2709 5.3882,5.1155 6.3414,4.9953 L6.86,4.93 " stroke-linecap="round" fill="none" stroke="#f2f2f2" stroke-width="0.9640277136097705" stroke-dasharray="none" stroke-dashoffset="0"/></g></g><g transform="matrix(1, 0, 0, 1, 2101.3687, 22159.5842) scale(0.21422838080217121, 0.21422838080217121)" opacity="1"><g transform="scale(4.667915596689535)"><path d="M 0.21 0 m -0.5, 0 a 0.5,0.5 0 1,0 1,0 a 0.5,0.5 0 1,0 -1,0" stroke-linecap="round" fill="#f2f2f2" stroke="#f2f2f2" stroke-width="0.9640277136097705" stroke-dasharray="none" stroke-dashoffset="0"/></g></g><g transform="matrix(1, 0, 0, 1, 2100.2976, 22177.5793) scale(0.21422838080217121, 0.21422838080217121)" opacity="1"><g transform="scale(4.667915596689535)"><path d="M0,0 Q-0.0958,0.684 -0.1529,1.092 L-0.21,1.5 " stroke-linecap="round" fill="none" stroke="#f2f2f2" stroke-width="0.9640277136097705" stroke-dasharray="none" stroke-dashoffset="0"/></g></g><g transform="matrix(1, 0, 0, 1, 2100.5118, 22188.2908) scale(0.21422838080217121, 0.21422838080217121)" opacity="1"><g transform="scale(4.667915596689535)"><path d="M0,0 Q0.5882,0.9758 0.7482,1.3393 T0.9953,2.0464 1.0795,2.6751 0.9771,3.261 0.7254,3.8237 0.3444,4.3761 -0.0566,4.9205 -0.4207,5.4606 -0.8412,6.0885 L-1.07,6.43 " stroke-linecap="round" fill="none" stroke="#f2f2f2" stroke-width="0.9640277136097705" stroke-dasharray="none" stroke-dashoffset="0"/></g></g></svg>