<svg xmlns="http://www.w3.org/2000/svg" direction="ltr" width="2198.916831765395" height="2099.6369584371523" viewBox="339.1423188242246 2385.559985765006 2198.916831765395 2099.6369584371523" stroke-linecap="round" stroke-linejoin="round" style="background-color: transparent;"><defs/><g transform="matrix(1, 0, 0, 1, 637.0707, 2564.5669) scale(2.713554794376634, 2.713554794376634)" opacity="1"><g transform="scale(0.36852029009044684)"><path d="M0,0 Q0,-5.6588 0,-6.1762 T0,-5.8629 0,-3.418 0,0.2696 0.565,4.6838 1.4595,10.0867 1.981,16.0659 2.285,22.9462 2.4622,30.9168 2.5655,38.9581 2.6258,47.0405 2.6609,55.147 2.6814,63.8345 2.6933,72.8609 2.7003,82.0827 2.7043,91.4184 2.7067,100.8226 2.7081,110.2668 2.7089,119.7322 2.7093,129.2099 3.2768,138.6969 4.1747,148.1893 4.6982,157.1178 5.0033,166.2825 5.1813,175.5849 5.285,184.4026 4.7783,192.9377 3.9158,201.308 3.413,209.5844 2.5548,217.806 1.4894,225.9936 0.3033,234.1613 -0.9533,242.3175 -1.6859,250.4669 -2.1129,258.6124 -2.929,266.7556 -3.972,275.4625 -4.58,284.498 -5.4995,293.1622 -6.6006,302.175 -7.2426,311.9538 -8.1818,321.6143 -9.2945,331.2079 -9.9432,341.3275 -10.3213,351.1867 -10.5418,360.896 -11.2374,371.0831 -12.2101,380.9816 -12.7772,390.7139 -13.1078,400.9144 -13.3005,411.3879 -13.4129,422.0204 -13.4784,432.7436 -14.0817,442.9547 -14.9984,453.4343 -15.5328,464.6375 -15.8444,475.6956 -16.0261,486.6668 -16.697,497.5896 -17.6532,507.9191 -18.2107,518.4677 -18.5357,529.7092 -18.7251,540.7894 -18.2705,551.7758 -17.4405,562.7053 -16.9565,573.6037 -16.6744,584.484 -16.5099,595.3538 -16.4141,606.2174 -16.3582,617.0774 -16.3256,627.9353 -15.7415,638.7899 -14.836,650.2098 -14.3081,661.9612 -14.0003,673.3388 -13.8208,684.4964 -13.1491,695.5278 -12.1904,707.0528 -11.6314,718.8634 -11.3056,730.2734 -11.1156,741.452 -11.0048,752.4957 -10.9403,763.4607 -10.9026,774.3798 -10.8807,785.8372 -10.8679,797.6085 -10.8604,808.9976 -10.8561,820.7312 -10.2885,832.6634 -9.3926,844.1443 -8.8702,855.3642 -8.5657,866.9991 -8.3882,878.8738 -8.2847,890.3212 -8.2244,902.0866 -8.1892,914.0395 -8.1687,926.0996 -8.1567,938.2222 -7.5847,949.8163 -6.6862,961.6671 -6.1623,974.2349 -5.2898,986.6535 -4.214,998.9851 -3.5868,1011.8331 -3.2212,1024.9822 -2.443,1038.3047 -1.4242,1051.1633 -0.8303,1063.7535 -0.4841,1076.7502 0.2828,1089.9839 1.295,1103.3579 1.8851,1116.2464 2.2291,1128.852 2.4296,1141.2947 2.5465,1153.6404 2.6147,1165.9295 3.2216,1178.1856 4.1425,1190.4225 4.6794,1202.6503 4.9924,1214.8706 5.1749,1227.0866 5.2813,1239.3002 5.3433,1250.9472 5.3795,1262.2639 5.4005,1273.3881 5.4128,1284.9651 5.42,1296.806 5.4242,1308.2358 5.9916,1319.4259 6.8875,1331.0413 7.4098,1342.9047 7.7143,1354.3476 7.8918,1365.5453 8.5604,1376.6001 9.5152,1388.1366 10.0718,1399.954 10.3963,1411.37 10.5855,1422.5521 10.6958,1433.5978 10.7601,1444.564 11.3647,1456.0488 12.2843,1467.271 12.8205,1477.773 13.133,1488.9872 13.3153,1500.6167 13.4215,1511.9232 13.4834,1523.0414 13.5195,1534.0499 14.1056,1544.9943 15.0124,1555.9015 15.541,1566.7869 15.8492,1577.6575 16.0288,1588.5217 16.1336,1599.382 16.1946,1610.2401 16.2302,1621.6619 16.251,1633.4124 16.2631,1644.7895 16.2701,1655.9489 16.2743,1666.9813 16.2766,1677.9398 16.278,1689.4201 16.2789,1701.2048 16.2793,1713.1689 16.2796,1725.2355 16.2798,1737.3619 16.2799,1749.5232 15.7149,1761.1397 14.8204,1773.0038 14.299,1785.0121 13.995,1796.5394 13.8178,1807.7864 13.7144,1818.8699 13.6542,1829.8561 14.1841,1840.2225 15.0581,1849.6625 15.5677,1858.5605 15.8647,1868.2724 16.1271,1881.1326 L16.28,1888.63 " stroke-linecap="round" fill="none" stroke="#9398b0" stroke-width="12.210996574694853" stroke-dasharray="none" stroke-dashoffset="0"/></g></g><g transform="matrix(1, 0, 0, 1, 371.1423, 3362.3521) scale(2.713554794376634, 2.713554794376634)" opacity="1"><g transform="scale(0.36852029009044684)"><path d="M0,0 Q7.919,-1.1301 10.7945,-1.4595 T17.0436,-2.5481 23.5162,-3.7499 30.119,-4.4505 36.7957,-4.859 42.3854,-5.6621 47.3414,-6.6954 51.9279,-7.2978 56.3011,-7.649 61.1129,-7.8538 66.7455,-7.9731 72.8587,-8.0427 79.252,-8.0833 85.8086,-8.1069 92.4605,-8.1207 99.7329,-8.1288 107.3671,-8.1334 115.2123,-7.5711 123.1804,-6.6783 131.7873,-6.1577 140.7666,-5.8543 149.396,-5.6773 158.3863,-5.0071 168.1542,-4.0492 177.8104,-3.4907 187.3994,-3.1652 197.5142,-2.9754 207.3726,-2.8647 217.0816,-2.8002 226.7013,-2.7626 236.2691,-2.7407 245.8065,-2.7279 255.3283,-2.7204 265.406,-2.7161 275.8079,-2.7135 286.3987,-2.7121 296.5326,-2.7112 306.4021,-2.7107 316.6826,-2.7104 327.2027,-2.7102 337.8624,-2.7101 349.1686,-2.7101 360.8517,-2.71 372.1895,-2.71 383.3259,-2.71 394.9101,-2.145 406.7552,-1.2505 418.1874,-0.164 429.3789,1.0345 440.428,2.3003 451.9613,3.6054 463.7788,4.3663 475.1949,4.8099 486.375,5.0685 497.4195,5.2192 508.9521,5.3071 520.7672,5.3584 532.1819,5.3882 542.231,5.4057 552.6141,5.4158 563.194,5.4217 575.0208,4.858 588.7046,3.9623 602.906,3.4401 617.4092,3.1356 629.2588,2.3931 641.2588,1.3951 653.3463,0.8134 665.487,0.4742 677.6566,0.2764 689.843,0.1612 702.0414,0.094 712.5473,0.0548 723.1968,0.0319 735.6292,0.0186 747.9709,0.0109 759.1255,0.0063 770.7203,0.0037 783.7037,0.0022 796.3647,0.0013 808.8376,0.0007 821.2008,0.0004 832.3701,0.0002 843.9733,0.0001 856.9618,0.5651 869.6277,1.4596 882.1035,1.981 894.4684,2.285 906.7688,2.4622 919.0315,2.5656 931.2722,2.6258 943.5001,2.6609 955.7226,3.2485 967.9399,4.1582 979.0219,4.6886 990.5765,4.9977 1003.5365,5.743 1016.1838,6.7426 1028.0836,7.3253 1040.1128,7.6651 1052.2174,7.8631 1064.9331,8.5436 1077.4379,9.5054 1088.6876,10.0661 1100.3399,10.9601 1113.3569,12.0485 1125.4702,12.683 1136.4917,13.0529 1148.0109,13.2685 1160.3853,13.3942 1172.6911,13.4675 1184.957,13.5103 1195.5023,13.5352 1206.1768,13.5497 1218.6238,13.5582 1229.8418,13.5631 1240.9085,14.131 1251.8848,15.0272 1262.8084,15.5496 1274.8356,15.8542 1286.374,16.0318 1296.4952,16.1353 1306.9225,16.1956 1319.2253,16.2308 1331.4894,16.2513 1342.0337,16.2633 1352.7076,16.2703 1363.457,16.2743 1374.2505,16.2767 1385.0696,16.2781 1395.3386,16.2789 1405.2849,16.2793 1413.9108,15.7146 1422.334,14.8203 1431.7714,14.2989 1440.6698,13.9949 1448.1218,13.8177 1454.7286,13.7144 1460.8425,13.6542 1467.2363,14.1841 1474.5981,15.5081 L1478.89,16.28 " stroke-linecap="round" fill="none" stroke="#9398b0" stroke-width="12.210996574694853" stroke-dasharray="none" stroke-dashoffset="0"/></g></g><g transform="matrix(1, 0, 0, 1, 675.0605, 3758.5311) scale(2.713554794376634, 2.713554794376634)" opacity="1"><g transform="scale(0.36852029009044684)"><path d="M0,0 Q1.1301,-7.919 2.0266,-10.7945 T3.4459,-17.6086 4.2733,-25.5407 5.3207,-32.9945 6.4964,-39.6043 7.1818,-45.72 8.1464,-50.9827 9.2738,-55.7501 9.9311,-60.7917 10.3143,-65.9932 11.1048,-71.855 12.1328,-78.1018 13.2972,-84.0059 14.541,-89.7102 15.2662,-95.3001 15.689,-100.8234 16.5005,-105.7406 17.5386,-110.3045 18.1439,-115.2275 18.4967,-120.3598 19.2696,-125.0492 20.2872,-129.4802 20.8805,-134.3279 21.2264,-139.4184 21.9931,-144.6483 23.0052,-150.5247 24.1623,-157.345 25.404,-163.5856 26.693,-168.921 28.0095,-174.8609 28.777,-181.1532 29.7895,-187.0838 30.9448,-192.8057 31.6184,-198.4037 32.5782,-203.9296 33.7049,-208.8484 34.9268,-214.5454 36.2042,-221.2633 37.5139,-227.442 38.8425,-233.3064 39.6171,-238.9896 40.6358,-245.1323 41.7969,-251.5408 43.0388,-257.5391 44.3278,-263.8655 45.6444,-271.5153 47.5441,-279.3696 49.2188,-286.2108 50.7601,-292.4635 52.2238,-298.3732 53.6421,-304.0807 55.034,-309.6704 55.8455,-315.1935 56.8857,-320.6757 58.0593,-326.1341 58.7435,-331.5806 59.7074,-337.0202 60.8344,-342.4538 62.0586,-347.3187 63.3394,-351.8521 64.0861,-356.7574 65.0865,-361.8814 66.2347,-367.131 67.4692,-373.5859 68.7539,-381.3106 70.07,-388.6435 71.4044,-395.1807 72.7474,-400.6891 74.0955,-405.5977 74.8813,-410.7216 75.9045,-415.9732 77.0661,-421.2991 77.7433,-427.2335 78.7052,-434.6527 79.8331,-442.3725 81.0557,-449.1354 82.3336,-455.3403 83.0785,-461.2221 84.0779,-466.9155 85.2255,-472.497 85.8946,-478.0132 86.8518,-482.9263 87.977,-486.9228 88.6329,-492.0821 89.5804,-497.9173 90.6978,-503.5835 91.3493,-509.7162 92.2941,-515.5539 93.41,-521.2215 94.6277,-526.2229 95.9047,-530.8359 96.6492,-535.7875 97.6483,-540.3715 98.7958,-545.3083 100.0319,-551.0158 101.3197,-556.6054 102.6355,-562.1265 103.9676,-567.6095 105.3093,-573.0684 106.6565,-578.5131 108.0091,-583.9517 109.3647,-589.9518 110.7201,-595.712 112.0754,-601.3325 113.4305,-608.0036 114.7856,-615.2872 116.1427,-622.363 118.0661,-629.3174 119.7524,-636.7663 121.3006,-644.5034 123.3354,-652.4085 125.6538,-660.4136 128.1355,-668.4771 130.7145,-676.5724 133.3502,-684.6864 136.0169,-693.3763 138.7037,-702.4019 141.4023,-711.0582 144.6728,-720.0664 148.2767,-729.2796 150.9427,-737.4782 154.1943,-746.2174 157.7871,-755.2738 161.5789,-764.5152 166.0539,-774.4295 169.7949,-783.6039 173.6731,-792.347 177.6313,-799.7064 181.6362,-806.8262 185.6682,-814.3715 189.151,-821.0326 193.4458,-828.3125 198.2119,-835.9511 202.1205,-842.6666 206.0965,-849.411 210.6788,-857.3025 215.0475,-864.7326 219.2916,-870.7635 223.4631,-876.5418 228.1573,-883.87 233.7234,-892.1038 239.2328,-899.1664 244.707,-906.6782 249.5956,-913.887 254.1428,-920.3519 258.4911,-926.3852 262.7253,-931.5998 267.4562,-936.9022 273.0415,-942.8228 277.995,-948.5367 282.58,-954.6973 287.5174,-961.1183 292.6602,-967.1239 297.9207,-972.8895 302.6847,-978.5152 307.1594,-984.0572 311.4652,-988.4182 316.2399,-992.6578 321.2858,-997.3939 326.4897,-1002.4193 332.353,-1008.1785 338.0356,-1013.7983 343.0457,-1018.7719 347.6638,-1023.3686 352.0533,-1027.7457 356.8746,-1032.5619 361.3827,-1037.0669 366.2731,-1041.3905 371.3885,-1045.6083 376.068,-1049.1974 381.0583,-1052.987 385.667,-1056.8935 390.6181,-1060.8683 395.7669,-1064.8827 401.0308,-1068.9203 406.362,-1072.9714 411.1672,-1077.0304 415.6658,-1081.0961 419.9857,-1085.1636 425.3335,-1089.7971 431.8458,-1094.1957 439.6039,-1098.4572 446.9562,-1102.6389 453.5048,-1106.774 459.5849,-1110.3169 464.8268,-1113.5146 470.7121,-1117.076 477.5377,-1120.8495 483.7813,-1124.7467 490.2506,-1128.7159 496.8495,-1132.7272 503.5261,-1136.7629 511.38,-1140.8129 518.7882,-1144.3063 525.9365,-1147.475 533.4983,-1151.0196 541.3013,-1154.7833 549.2448,-1158.1096 557.2702,-1161.1811 566.4756,-1164.6689 575.8018,-1168.3995 584.6333,-1171.7045 594.8757,-1175.3285 604.8065,-1179.1385 613.9905,-1182.4919 623.8713,-1185.5791 634.7234,-1189.0761 645.0117,-1192.247 654.4041,-1195.2257 664.4065,-1198.6595 675.3294,-1201.7935 686.7891,-1204.7528 697.9966,-1207.0452 709.6221,-1208.9467 721.4914,-1211.1853 732.9377,-1213.6226 744.7046,-1215.6107 756.6563,-1217.3347 769.8478,-1218.9049 782.6301,-1219.8203 794.0415,-1220.919 806.3531,-1222.1246 820.3195,-1222.8274 833.5535,-1223.2372 845.2304,-1223.476 857.6967,-1223.6153 870.6212,-1223.1314 883.8128,-1222.2843 898.8594,-1221.2254 913.2903,-1219.4759 925.6628,-1217.3237 939.0998,-1214.939 954.8545,-1211.8514 971.3933,-1207.7871 985.5619,-1203.7204 998.3487,-1200.2173 1012.5943,-1195.9107 1028.2554,-1190.5727 1043.0424,-1185.7635 1055.0575,-1181.8275 1067.721,-1177.2707 1081.8927,-1171.7846 1093.549,-1166.8891 1105.4363,-1161.7728 1117.4581,-1156.5256 1128.9934,-1151.7694 1140.81,-1146.7343 1150.5284,-1142.1016 1160.1557,-1137.7036 1169.1628,-1133.4423 1177.8083,-1129.8259 1189.7299,-1125.7729 L1196.68,-1123.41 " stroke-linecap="round" fill="none" stroke="#ff8787" stroke-width="12.210996574694853" stroke-dasharray="none" stroke-dashoffset="0"/></g></g><g transform="matrix(1, 0, 0, 1, 959.9837, 2797.9327) scale(2.713554794376634, 2.713554794376634)" opacity="1"><g transform="scale(0.36852029009044684)"><path d="M-1.6972,-2.2623 Q-3.3945,-4.5246 -3.8189,-6.4106 T-3.9236,-9.9612 -2.8525,-12.5962 -1.0979,-13.5673 1.0572,-13.5684 3.4457,-13.002 5.9683,-11.5395 8.004,-8.9897 8.6258,-5.806 7.8582,-3.3848 6.2785,-1.4083 3.6603,0.3091 -0.1284,1.3103 -4.0343,1.3289 -7.4437,-0.3574 -9.9984,-3.6028 -10.9207,-6.625 -9.7611,-9.519 -7.3879,-12.3384 -3.7399,-14.5471 1.7813,-16.3999 7.8274,-17.48 13.0494,-17.5446 16.661,-16.4522 18.1993,-14.6832 18.529,-11.9546 18.1562,-9.2338 16.2416,-6.5154 12.8632,-3.2334 8.6313,-0.7549 3.1788,1.4339 0,1.355 -1.6972,-2.2623 Z" stroke-linecap="round" fill="none" stroke="#e599f7" stroke-width="12.210996574694853" stroke-dasharray="none" stroke-dashoffset="0"/></g></g><g transform="matrix(1, 0, 0, 1, 959.9837, 3354.2114) scale(2.713554794376634, 2.713554794376634)" opacity="1"><g transform="scale(0.36852029009044684)"><path d="M0,0 Q1.1301,7.919 1.4595,11.9267 T1.981,20.533 2.285,28.3778 2.4622,34.6485 2.6187,41.9015 L2.71,46.13 " stroke-linecap="round" fill="none" stroke="#e599f7" stroke-width="12.210996574694853" stroke-dasharray="none" stroke-dashoffset="0"/></g></g><g transform="matrix(1, 0, 0, 1, 968.1244, 3479.0349) scale(2.713554794376634, 2.713554794376634)" opacity="1"><g transform="scale(0.36852029009044684)"><path d="M0,0 Q-2.2644,6.7889 -4.0545,10.4651 T-8.0205,17.9816 -13.162,25.1931 -18.9889,31.6617 -24.6502,37.1301 -30.7802,41.4482 -38.765,46.1177 L-43.42,48.84 " stroke-linecap="round" fill="none" stroke="#e599f7" stroke-width="12.210996574694853" stroke-dasharray="none" stroke-dashoffset="0"/></g></g><g transform="matrix(1, 0, 0, 1, 927.4211, 3484.462) scale(2.713554794376634, 2.713554794376634)" opacity="1"><g transform="scale(0.36852029009044684)"><path d="M0,0 Q5.6588,6.7889 7.8734,9.3329 T13.0762,15.0593 18.9389,21.7943 24.6211,28.5481 29.631,33.6155 34.249,37.702 39.7706,41.7816 47.2181,46.2405 L51.56,48.84 " stroke-linecap="round" fill="none" stroke="#e599f7" stroke-width="12.210996574694853" stroke-dasharray="none" stroke-dashoffset="0"/></g></g><g transform="matrix(1, 0, 0, 1, 1228.6256, 3348.7843) scale(2.713554794376634, 2.713554794376634)" opacity="1"><g transform="scale(0.36852029009044684)"><path d="M0,0 Q2.2644,6.7889 3.4895,9.9 T5.4288,17.6543 7.1415,28.7887 L8.14,35.28 " stroke-linecap="round" fill="none" stroke="#e599f7" stroke-width="12.210996574694853" stroke-dasharray="none" stroke-dashoffset="0"/></g></g><g transform="matrix(1, 0, 0, 1, 1230.9418, 3358.1511) scale(2.7901911854204946, 2.7901911854204946)" opacity="1"><g transform="scale(0.35839837973299865)"><path d="M0,0 Q2.3035,5.7589 2.9798,8.0255 T4.0532,12.1989 4.6835,15.8012 4.4777,18.4923 3.781,19.4966 3.3719,18.9345 2.5558,16.8768 1.5007,13.365 0.8812,8.4235 0.5174,3.2185 -0.2721,-0.9896 -1.3115,-4.6123 -1.9219,-7.8912 -2.2803,-9.8165 -2.4907,-9.7953 -2.0384,-8.631 -1.1969,-5.0679 -0.1269,0.4795 1.0773,6.0404 2.3602,11.0333 3.6894,15.6927 4.8806,21.6261 L5.58,25.11 " stroke-linecap="round" fill="none" stroke="#40c057" stroke-width="12.555860334392225" stroke-dasharray="none" stroke-dashoffset="0"/></g></g><g transform="matrix(1, 0, 0, 1, 1244.8927, 3466.9686) scale(2.7901911854204946, 2.7901911854204946)" opacity="1"><g transform="scale(0.35839837973299865)"><path d="M0,0 Q-4.6071,6.9106 -7.6873,10.6672 T-13.1521,17.7813 -18.0886,24.262 -22.139,29.7951 -25.669,33.6198 -30.5903,37.0474 L-33.48,39.06 " stroke-linecap="round" fill="none" stroke="#40c057" stroke-width="12.555860334392225" stroke-dasharray="none" stroke-dashoffset="0"/></g></g><g transform="matrix(1, 0, 0, 1, 1208.6202, 3464.1784) scale(2.7901911854204946, 2.7901911854204946)" opacity="1"><g transform="scale(0.35839837973299865)"><path d="M0,0 Q4.6071,4.6071 5.9597,6.5356 T8.6824,10.7482 12.0087,16.6771 15.6896,23.6137 19.0026,29.9903 22.6757,36.6139 26.56,43.3825 29.9926,48.5087 33.7358,52.0946 38.8482,56.187 L41.85,58.59 " stroke-linecap="round" fill="none" stroke="#40c057" stroke-width="12.555860334392225" stroke-dasharray="none" stroke-dashoffset="0"/></g></g><g transform="matrix(1, 0, 0, 1, 1278.375, 3472.5489) scale(2.7901911854204946, 2.7901911854204946)" opacity="1"><g transform="scale(0.35839837973299865)"><path d="M0,0 Q2.3035,8.0624 2.9798,11.0053 T4.0532,16.828 4.6835,23.7023 5.2483,33.3784 L5.58,39.06 " stroke-linecap="round" fill="none" stroke="#40c057" stroke-width="12.555860334392225" stroke-dasharray="none" stroke-dashoffset="0"/></g></g><g transform="matrix(1, 0, 0, 1, 1295.1162, 3492.0803) scale(2.7901911854204946, 2.7901911854204946)" opacity="1"><g transform="scale(0.35839837973299865)"><path d="M0,0 Q-8.0624,-1.1518 -11.5812,-1.4899 T-18.318,-2.0266 -24.5772,-2.3418 -31.9442,-2.6242 L-36.27,-2.79 " stroke-linecap="round" fill="none" stroke="#40c057" stroke-width="12.555860334392225" stroke-dasharray="none" stroke-dashoffset="0"/></g></g><g transform="matrix(1, 0, 0, 1, 1311.8573, 3464.1784) scale(2.7901911854204946, 2.7901911854204946)" opacity="1"><g transform="scale(0.35839837973299865)"><path d="M0,0 Q2.3035,8.0624 2.9798,12.733 T4.0532,21.8737 4.6835,29.5445 5.0536,36.3521 5.2709,42.653 5.3985,45.7768 6.0493,45.8834 7.5832,43.6424 9.0598,40.023 11.0786,36.1702 13.9916,32.1802 16.278,28.6856 18.1964,26.0577 20.4746,25.0906 22.3882,26.8263 24.0877,31.3007 25.6615,36.8075 26.5856,42.3445 27.4137,49.0643 L27.9,53.01 " stroke-linecap="round" fill="none" stroke="#40c057" stroke-width="12.555860334392225" stroke-dasharray="none" stroke-dashoffset="0"/></g></g><g transform="matrix(1, 0, 0, 1, 1264.4241, 2599.2191) scale(2.7901911854204946, 2.7901911854204946)" opacity="1"><g transform="scale(0.35839837973299865)"><path d="M0.5759,-1.1518 Q1.1518,-2.3035 2.0658,-2.9798 T4.0924,-4.0532 5.8583,-4.1076 6.3193,-2.9878 5.4382,-1.7544 3.7691,-1.0301 1.6372,-1.1808 -0.7663,-2.421 -2.7535,-4.301 -3.3445,-6.5566 -1.9638,-8.457 1.1504,-9.5729 4.7067,-9.0763 6.7949,-7.0571 6.8692,-5.2955 5.1852,-4.8371 2.4688,-5.7197 0.2978,-7.3897 -1.5528,-10.0979 -3.2153,-13.4158 -3.6156,-15.9399 -2.123,-17.422 1.057,-18.2922 4.6518,-18.2273 7.9144,-17.0374 10.9819,-15.187 13.359,-12.9487 14.1789,-11.0585 12.9326,-9.9486 9.8973,-9.2969 5.4193,-8.7129 1.395,-4.185 0.5759,-1.1518 Z" stroke-linecap="round" fill="none" stroke="#40c057" stroke-width="12.555860334392225" stroke-dasharray="none" stroke-dashoffset="0"/></g></g><g transform="matrix(1, 0, 0, 1, 1270.0045, 2590.8485) scale(2.7901911854204946, 2.7901911854204946)" opacity="1"><g transform="scale(0.35839837973299865)"><path d="M0,0 Q1.1518,6.9106 1.4899,10.0913 T2.0266,15.7155 2.3418,20.7455 2.5268,27.1544 2.0596,34.3728 1.2093,40.9149 0.7101,47.0598 0.417,52.9715 0.2448,58.7462 0.1438,63.8647 0.0844,68.024 0.0496,72.196 0.0291,76.3733 0.0171,80.5538 0.01,84.7362 0.0059,88.3438 0.0035,92.1897 0.002,96.1756 0.0012,99.6678 0.0007,102.8702 0.0004,105.9023 0.0002,109.4103 0.0001,113.7737 0.0001,118.6393 0,123.7999 0,129.1336 0,134.569 0,139.4882 0,143.5284 0,147.0525 0,150.2735 0,153.3166 0,156.2552 0,159.7084 0,164.0396 0,168.8863 0,173.4598 0,177.873 0,182.7678 -0.5759,187.9455 -1.9709,194.3433 L-2.79,198.1 " stroke-linecap="round" fill="none" stroke="#40c057" stroke-width="12.555860334392225" stroke-dasharray="none" stroke-dashoffset="0"/></g></g><g transform="matrix(1, 0, 0, 1, 960.2932, 2794.5325) scale(2.7901911854204946, 2.7901911854204946)" opacity="1"><g transform="scale(0.35839837973299865)"><path d="M0,0 Q6.9106,0 10.6672,0 T17.7813,0 24.262,0.5759 30.371,1.4899 36.8374,2.0266 43.5138,2.3418 49.7376,2.5268 55.6956,2.6355 61.4976,2.6993 67.21,2.7367 73.4456,2.7587 79.9865,2.7716 85.5549,2.7792 90.5521,2.7837 95.2141,2.7863 99.6791,3.3637 104.0286,4.2786 109.4619,4.8159 116.6834,4.5554 123.2273,3.8266 128.7974,2.8228 133.7957,1.6575 139.0341,0.9732 144.4135,0.5715 149.2999,0.3356 155.0485,0.197 160.7275,0.1157 165.7897,-0.508 171.0657,-1.45 175.8913,-2.0032 180.4524,-2.328 184.8583,-2.5187 189.173,-2.6307 194.01,-2.6965 198.5779,-2.7351 202.9877,-2.7578 207.8806,-2.7711 212.4833,-2.7789 216.9156,-2.7835 221.8218,-2.7862 227.0061,-2.7877 231.7779,-2.7887 235.7315,-2.7892 239.2048,-2.7895 242.396,-2.7897 246.5733,-2.7898 251.9056,-2.7899 256.7643,-2.7899 261.9207,-3.3659 267.8279,-4.2799 273.0241,-4.8166 277.8029,-5.1318 283.4883,-5.3168 290.282,-5.4255 297.7264,-4.9134 307.0345,-3.5755 L312.5,-2.79 " stroke-linecap="round" fill="none" stroke="#40c057" stroke-width="12.555860334392225" stroke-dasharray="none" stroke-dashoffset="0"/></g></g><g transform="matrix(1, 0, 0, 1, 1069.1107, 2889.399) scale(2.7901911854204946, 2.7901911854204946)" opacity="1"><g transform="scale(0.35839837973299865)"><path d="M0,0 Q0,-5.7589 0,-8.0255 T-0.5759,-12.1989 -1.4899,-15.8012 -2.0266,-19.0682 -2.3418,-22.1383 -3.1027,-24.5168 -4.1254,-26.4894 -4.7259,-29.3753 -4.5026,-31.6457 -3.7956,-31.827 -3.3805,-30.7818 -3.1367,-29.0162 -2.4177,-26.2519 -1.4196,-21.7493 -0.8336,-15.6501 0.0864,-9.1894 1.2025,-1.9405 1.8579,5.1953 2.2427,12.2648 2.4686,19.2952 2.6013,24.5751 2.6792,27.6754 2.7249,28.344 3.3277,27.0089 4.8334,24.4973 6.8693,20.7191 9.2165,16.197 11.7465,12.39 14.3838,9.0028 17.66,5.8621 21.3114,2.8662 25.759,0.5312 31.2499,-0.264 36.2018,0.9968 40.2611,3.4647 43.2206,6.6415 45.5342,10.8104 47.4686,16.7136 49.1803,23.0592 50.7613,27.937 51.6896,32.5288 52.5215,38.4016 L53.01,41.85 " stroke-linecap="round" fill="none" stroke="#40c057" stroke-width="12.555860334392225" stroke-dasharray="none" stroke-dashoffset="0"/></g></g><g transform="matrix(1, 0, 0, 1, 968.6638, 3349.7805) scale(2.7901911854204946, 2.7901911854204946)" opacity="1"><g transform="scale(0.35839837973299865)"><path d="M0,0 Q1.1518,-6.9106 2.0658,-10.6672 T3.5165,-17.7813 4.9443,-23.6862 6.3585,-28.881 7.7648,-33.659 9.1664,-37.6163 10.5653,-41.0917 12.5385,-44.2842 14.8488,-47.3105 16.7813,-50.2393 18.4919,-52.5349 20.6481,-53.8828 23.066,-55.2501 25.6374,-56.6289 28.2991,-57.4385 31.5897,-57.9139 35.2495,-58.193 38.5502,-58.3569 41.6401,-58.4531 44.6062,-57.9337 47.4996,-56.477 50.3503,-54.4699 53.1759,-52.1395 55.9869,-50.1953 58.2133,-48.4779 60.0964,-46.8935 62.354,-45.9632 64.8313,-45.417 68.0157,-44.5203 72.1911,-43.418 76.9464,-42.7707 82.0421,-42.3906 86.186,-42.7433 89.7709,-44.1022 93.6036,-46.0519 97.0058,-48.9243 100.1553,-52.3386 103.1564,-56.647 106.0703,-60.9044 108.3572,-64.5561 109.7,-68.43 111.0644,-72.4343 111.8655,-76.5133 111.76,-78.9084 111.1222,-78.587 110.1718,-76.6686 109.6138,-73.8125 109.862,-69.8319 110.5836,-65.7669 112.1591,-61.6523 115.3877,-57.5087 119.5871,-54.4998 123.7805,-52.733 128.5463,-51.1197 133.6482,-49.5965 138.9475,-48.7021 144.3627,-48.7528 149.27,-49.3585 153.8792,-50.29 158.3132,-51.9888 162.6445,-53.5621 166.9153,-55.0619 170.5749,-57.0942 173.8754,-59.4394 177.5411,-62.5441 180.8453,-66.0947 183.9372,-68.7555 187.4804,-70.3178 191.8644,-71.2352 196.1662,-71.7738 200.4199,-71.5142 204.6451,-70.7859 208.8538,-69.7824 214.2065,-67.4655 220.231,-63.8015 224.9203,-59.9224 228.8254,-55.917 232.2703,-51.8375 234.8689,-47.1386 237.5465,-42.0759 240.2705,-36.2238 243.5905,-27.4637 L245.54,-22.32 " stroke-linecap="round" fill="none" stroke="#40c057" stroke-width="12.555860334392225" stroke-dasharray="none" stroke-dashoffset="0"/></g></g><g transform="matrix(1, 0, 0, 1, 1060.7401, 3165.6279) scale(2.7901911854204946, 2.7901911854204946)" opacity="1"><g transform="scale(0.35839837973299865)"><path d="M0,0 Q1.1518,9.2142 1.4899,12.4952 T2.6025,20.0064 3.8317,27.2963 4.5534,33.3044 5.5531,37.4081 7.2919,39.2418 9.4646,38.5909 12.468,35.3292 15.9593,31.6864 19.161,28.9715 22.7686,26.8015 26.6146,24.9514 30.6006,25.0169 34.0928,26.783 36.7193,30.6994 38.8373,35.8785 40.6569,41.2231 42.3012,46.6649 43.2667,51.5878 44.132,57.7574 L44.64,61.38 " stroke-linecap="round" fill="none" stroke="#40c057" stroke-width="12.555860334392225" stroke-dasharray="none" stroke-dashoffset="0"/></g></g><g transform="matrix(1, 0, 0, 1, 1816.8819, 2462.4997) scale(2.7901911854204946, 2.7901911854204946)" opacity="1"><g transform="scale(0.35839837973299865)"><path d="M0,0 Q1.1518,-10.366 1.4899,-13.9852 T2.0266,-21.4572 2.3418,-28.1481 1.9509,-33.8046 0.5697,-38.8535 -1.3932,-42.3941 -3.6975,-43.3213 -5.6264,-42.138 -7.9108,-39.1397 -10.4039,-35.0756 -12.4437,-29.8098 -14.2173,-22.6866 -15.2587,-15.6247 -15.8702,-9.1745 -16.2293,-1.3558 -16.4401,7.2663 -15.988,15.7843 -15.1467,23.6654 -13.5009,30.5965 -10.8069,36.9698 -8.0732,42.4398 -5.8922,47.3793 -4.0357,51.4314 -2.3696,55.5384 -1.9673,60.2535 -2.8828,64.7497 -4.5722,69.1196 -6.7159,72.8393 -10.2782,76.1752 -14.6734,79.2857 -19.5577,81.1122 -25.3052,82.1846 -30.9835,82.8143 -36.6212,83.1841 -42.8109,82.8253 -48.749,81.4629 -53.9633,79.5111 -58.1769,77.2112 -60.651,74.1311 -62.8681,69.6129 L-64.17,66.96 " stroke-linecap="round" fill="none" stroke="#ff8787" stroke-width="12.555860334392225" stroke-dasharray="none" stroke-dashoffset="0"/></g></g><g transform="matrix(1, 0, 0, 1, 1819.6721, 2495.982) scale(2.7901911854204946, 2.7901911854204946)" opacity="1"><g transform="scale(0.35839837973299865)"><path d="M0,0 Q-8.0624,1.1518 -12.1571,2.0658 T-19.8079,3.5165 -28.422,4.8166 L-33.48,5.58 " stroke-linecap="round" fill="none" stroke="#ff8787" stroke-width="12.555860334392225" stroke-dasharray="none" stroke-dashoffset="0"/></g></g><g transform="matrix(1, 0, 0, 1, 1289.5358, 2602.0093) scale(2.7901911854204946, 2.7901911854204946)" opacity="1"><g transform="scale(0.35839837973299865)"><path d="M0,0 Q4.6071,-3.4553 6.5356,-4.4698 T10.1723,-6.0799 13.4595,-7.0253 16.5414,-7.5804 20.0787,-7.9064 23.8834,-7.5219 27.2692,-6.7202 30.409,-6.2495 33.4045,-5.3972 36.3151,-3.745 39.1759,-1.6231 42.0075,0.7746 44.246,3.3343 46.1363,5.989 47.8222,8.6996 48.812,11.443 49.3933,14.2056 49.7346,16.9795 49.935,20.3359 50.0526,24.0344 50.1217,27.3579 50.1623,30.4611 50.1861,33.435 49.6242,36.333 48.7184,39.1864 48.1865,42.0137 47.2983,44.2497 46.2009,46.1385 45.5565,48.3993 44.6023,50.3027 43.4661,51.9962 42.7989,54.1424 41.8313,56.5543 40.6872,59.1224 40.0155,62.3579 39.0452,66.5634 37.8995,70.7624 37.2268,74.9557 36.8318,79.7214 36.5999,84.2474 36.4637,88.0568 36.9596,91.4453 37.8267,95.1626 38.9117,98.4971 40.7006,102.1828 42.9028,106.6504 45.3476,110.4255 47.9349,113.7939 50.6059,116.3477 53.326,117.8472 56.075,118.7277 58.8409,119.8205 61.6168,121.0381 63.8226,121.1772 64.5419,120.683 63.8125,120.3928 62.2324,120.2224 60.1529,120.1223 57.2041,120.0636 53.745,120.605 50.5622,122.0746 48.1174,124.6652 46.1059,127.914 44.349,130.9734 43.3174,133.9216 42.7116,136.8045 42.9318,139.6491 43.637,142.4711 44.6269,145.2799 45.7841,148.0809 47.0395,150.8774 48.3525,154.2471 49.6993,157.3775 51.066,160.3674 51.8685,163.8506 52.3398,167.0477 52.6165,170.0767 52.203,173.007 50.8085,175.8794 48.262,178.7178 43.8873,181.5362 38.4392,183.767 32.3607,185.0769 26.488,185.846 20.7362,186.2976 14.4794,185.9869 7.9261,184.0768 -0.5834,180.6073 L-5.58,178.57 " stroke-linecap="round" fill="none" stroke="#ffc034" stroke-width="12.555860334392225" stroke-dasharray="none" stroke-dashoffset="0"/></g></g><g transform="matrix(1, 0, 0, 1, 1515.5413, 2702.4562) scale(2.7901911854204946, 2.7901911854204946)" opacity="1"><g transform="scale(0.35839837973299865)"><path d="M0,0 Q-1.1518,-6.9106 -2.0658,-9.5154 T-4.6683,-14.2255 -7.9241,-17.5671 -10.9876,-19.5292 -13.3623,-20.1054 -15.9085,-18.7161 -18.5553,-15.0209 -20.6853,-10.5476 -22.5119,-5.6174 -23.5845,0.7328 -24.2142,7.3409 -24.0081,14.1005 -23.3112,20.3731 -22.3261,26.9357 -20.596,33.6685 -18.4282,39.9254 -16.0036,46.4788 -14.0041,52.6303 -12.83,58.5459 -12.7165,64.3251 -13.8016,68.8723 -16.1664,72.6941 -18.7067,76.6658 -21.926,80.1497 -26.1199,82.7712 -30.3101,84.3105 -35.6499,85.2144 -42.2406,85.1692 -48.4141,83.9909 -53.7667,81.5714 -58.6373,78.999 -63.2249,76.9105 -69.0939,74.1569 L-72.54,72.54 " stroke-linecap="round" fill="none" stroke="#ffc034" stroke-width="12.555860334392225" stroke-dasharray="none" stroke-dashoffset="0"/></g></g><g transform="matrix(1, 0, 0, 1, 1515.5413, 2738.7287) scale(2.7901911854204946, 2.7901911854204946)" opacity="1"><g transform="scale(0.35839837973299865)"><path d="M0,0 Q-8.0624,0 -12.1571,0.5759 T-19.8079,1.4899 -26.6038,2.6025 -34.4518,4.4785 L-39.06,5.58 " stroke-linecap="round" fill="none" stroke="#ffc034" stroke-width="12.555860334392225" stroke-dasharray="none" stroke-dashoffset="0"/></g></g><g transform="matrix(1, 0, 0, 1, 1557.3941, 2685.715) scale(2.7901911854204946, 2.7901911854204946)" opacity="1"><g transform="scale(0.35839837973299865)"><path d="M0,0 Q-2.3035,6.9106 -3.5557,9.5154 T-6.6949,14.8014 -10.8418,21.3606 -15.0043,28.6673 -18.6003,35.8371 -21.2876,42.9264 -22.8656,50.5445 -23.7921,57.897 -24.3362,64.5199 -24.0797,71.8661 -22.7774,78.4832 -20.8609,84.0962 -18.5838,89.1198 -16.095,92.6454 -12.9059,94.1396 -8.2902,94.5998 L-5.58,94.87 " stroke-linecap="round" fill="none" stroke="#ffc034" stroke-width="12.555860334392225" stroke-dasharray="none" stroke-dashoffset="0"/></g></g><g transform="matrix(1, 0, 0, 1, 1607.6176, 2719.1973) scale(2.7901911854204946, 2.7901911854204946)" opacity="1"><g transform="scale(0.35839837973299865)"><path d="M0,0 Q-2.3035,8.0624 -5.2834,12.1571 T-10.5888,19.232 -16.0076,25.6898 -21.4929,31.7852 -27.0173,37.0919 -33.1406,41.3597 -40.3858,45.1843 L-44.64,47.43 " stroke-linecap="round" fill="none" stroke="#ffc034" stroke-width="12.555860334392225" stroke-dasharray="none" stroke-dashoffset="0"/></g></g><g transform="matrix(1, 0, 0, 1, 1574.1353, 2727.5679) scale(2.7901911854204946, 2.7901911854204946)" opacity="1"><g transform="scale(0.35839837973299865)"><path d="M0,0 Q3.4553,4.6071 5.0456,7.1115 T8.7216,12.2381 12.0317,16.976 15.1272,22.0616 18.6724,27.3512 22.4818,31.609 27.6534,36.3035 L30.69,39.06 " stroke-linecap="round" fill="none" stroke="#ffc034" stroke-width="12.555860334392225" stroke-dasharray="none" stroke-dashoffset="0"/></g></g><g transform="matrix(1, 0, 0, 1, 1638.3097, 2724.7777) scale(2.7901911854204946, 2.7901911854204946)" opacity="1"><g transform="scale(0.35839837973299865)"><path d="M0,0 Q1.1518,5.7589 1.4899,8.0255 T2.0266,12.7748 2.3418,17.2912 3.1027,21.6707 4.6635,27.3533 L5.58,30.69 " stroke-linecap="round" fill="none" stroke="#ffc034" stroke-width="12.555860334392225" stroke-dasharray="none" stroke-dashoffset="0"/></g></g><g transform="matrix(1, 0, 0, 1, 1646.6803, 2741.5189) scale(2.7901911854204946, 2.7901911854204946)" opacity="1"><g transform="scale(0.35839837973299865)"><path d="M0,0 Q-6.9106,-1.1518 -10.6672,-1.4899 T-17.7813,-2.0266 -25.9144,-2.5076 L-30.69,-2.79 " stroke-linecap="round" fill="none" stroke="#ffc034" stroke-width="12.555860334392225" stroke-dasharray="none" stroke-dashoffset="0"/></g></g><g transform="matrix(1, 0, 0, 1, 1663.4214, 2699.666) scale(2.7901911854204946, 2.7901911854204946)" opacity="1"><g transform="scale(0.35839837973299865)"><path d="M0,0 Q3.4553,8.0624 4.4698,12.1571 T6.0799,20.3838 7.0253,29.2455 7.0045,37.3283 6.4164,43.2262 5.4953,47.841 4.3785,50.5508 4.2986,50.9901 5.4035,49.5204 7.204,47.5057 9.413,45.1709 11.8619,42.0723 14.4516,39.1011 17.1239,36.7806 19.8449,34.8421 22.5943,33.1281 24.7846,32.6975 26.6466,33.5964 28.3158,35.8519 29.2959,40.6316 29.8714,46.3175 30.2094,51.9598 30.5122,59.6528 L30.69,64.17 " stroke-linecap="round" fill="none" stroke="#ffc034" stroke-width="12.555860334392225" stroke-dasharray="none" stroke-dashoffset="0"/></g></g><g transform="matrix(1, 0, 0, 1, 1702.4841, 2671.7641) scale(2.7901911854204946, 2.7901911854204946)" opacity="1"><g transform="scale(0.35839837973299865)"><path d="M0,0 Q4.6071,5.7589 6.5356,9.1773 T10.1723,16.9064 13.4595,25.476 15.9655,33.3873 17.437,42.6398 18.8769,53.2556 20.2983,62.9463 20.557,71.518 19.5572,79.4306 17.8183,86.3802 14.4937,92.7644 8.8776,101.1224 L5.58,106.03 " stroke-linecap="round" fill="none" stroke="#ffc034" stroke-width="12.555860334392225" stroke-dasharray="none" stroke-dashoffset="0"/></g></g><g transform="matrix(1, 0, 0, 1, 1278.375, 2599.2191) scale(2.7901911854204946, 2.7901911854204946)" opacity="1"><g transform="scale(0.35839837973299865)"><path d="M-4.0312,0.5759 Q-8.0624,1.1518 -11.0053,0.914 T-16.828,-0.6151 -21.9747,-3.2406 -26.1484,-7.0858 -29.1751,-12.223 -30.9522,-16.9672 -31.4199,-22.0564 -30.5427,-27.3482 -28.2999,-31.6072 -25.2554,-35.2598 -21.7401,-37.9804 -17.9483,-39.5778 -13.9942,-40.5158 -8.7929,-40.4907 -3.4354,-39.3242 0.8623,-38.0634 4.5375,-35.5954 7.8473,-30.6909 10.3666,-25.5075 11.27,-20.7363 11.2246,-16.2071 10.0462,-11.2441 7.6265,-6.6023 3.9023,-2.725 -0.5881,0.7035 -4.9524,2.7166 -9.2427,3.8987 -13.4895,3.441 -17.7108,0.2928 -20.7654,-3.8593 -22.5589,-8.6008 -23.6121,-13.6885 -23.0787,-18.4036 -21.0378,-22.8998 -18.1118,-26.6916 -14.6661,-30.0699 -10.3393,-32.6294 -5.4951,-34.1323 -0.9231,-33.863 3.4892,-31.9773 7.2318,-29.1423 10.5811,-25.1741 13.1236,-19.9647 14.6165,-14.6023 14.3414,-9.7259 12.4521,-5.7108 7.8875,-2.7774 1.1761,-1.6308 -4.4924,-2.1094 -9.5485,-4.118 -14.245,-8.7527 -17.5785,-13.7777 -18.96,-17.88 -19.1953,-21.4406 -18.1817,-24.1072 -15.283,-25.0971 -11.8533,-24.5265 -8.6876,-23.0397 -6.253,-20.4391 -5.3993,-17.1844 -6.6256,-14.6974 -9.4825,-12.4687 -5.58,-5.58 -4.0312,0.5759 Z" stroke-linecap="round" fill="none" stroke="#ffc034" stroke-width="12.555860334392225" stroke-dasharray="none" stroke-dashoffset="0"/></g></g><g transform="matrix(1, 0, 0, 1, 1286.7456, 2576.8976) scale(2.7901911854204946, 2.7901911854204946)" opacity="1"><g transform="scale(0.35839837973299865)"><path d="M0,0 Q5.7589,-1.1518 8.0255,-1.4899 T12.1989,-2.0266 16.3771,-2.3418 20.5581,-2.5268 25.8926,-2.0596 33.056,-1.2093 39.5658,-0.1342 46.2676,1.073 53.6581,2.3577 59.7253,3.6879 66.1693,5.0449 73.4105,6.4176 80.5418,7.2236 87.0327,7.6968 93.1475,7.9747 100.1933,8.7138 107.7858,9.7236 114.5475,10.8925 121.9731,12.7306 130.9404,14.9616 138.5093,17.4234 145.8331,20.0207 153.0128,22.1217 158.9563,23.9312 164.7497,26.1455 170.455,29.1733 175.5327,32.103 180.2419,34.975 184.7347,37.8131 189.1004,40.6314 193.3915,43.438 197.0629,46.2378 200.3705,49.0335 202.3126,50.0992 202.8771,49.5732 203.2086,48.1125 203.4032,45.5272 203.5175,42.2815 203.0087,39.224 202.134,35.701 201.6205,30.7529 200.743,24.9681 199.6519,19.8437 199.0113,15.683 199.211,12.664 201.0559,12.0431 203.8668,13.4062 206.0932,15.3584 208.5523,18.8082 211.148,23.1374 213.826,27.407 216.5523,31.6417 218.729,35.8559 220.583,40.634 221.6716,45.7431 222.3108,51.0466 222.6861,55.8883 222.3306,59.8831 220.9681,62.8046 218.4383,64.52 215.2252,65.5273 211.035,66.1187 205.6951,65.8901 199.152,64.8064 L195.31,64.17 " stroke-linecap="round" fill="none" stroke="#ffc034" stroke-width="12.555860334392225" stroke-dasharray="none" stroke-dashoffset="0"/></g></g><g transform="matrix(1, 0, 0, 1, 1780.6094, 2735.9385) scale(2.7901911854204946, 2.7901911854204946)" opacity="1"><g transform="scale(0.35839837973299865)"><path d="M0,0 Q5.7589,-1.1518 8.0255,-1.4899 T12.7748,-2.0266 17.2912,-2.3418 22.8225,-2.5268 31.2951,-2.6926 L36.27,-2.79 " stroke-linecap="round" fill="none" stroke="#ffc034" stroke-width="12.555860334392225" stroke-dasharray="none" stroke-dashoffset="0"/></g></g><g transform="matrix(1, 0, 0, 1, 1895.0073, 2705.2464) scale(2.7901911854204946, 2.7901911854204946)" opacity="1"><g transform="scale(0.35839837973299865)"><path d="M0,0 Q6.9106,-8.0624 9.5154,-11.5812 T13.6496,-17.7421 16.0772,-23.6631 16.9267,-29.4434 16.2737,-33.4134 14.7386,-35.1685 12.6854,-35.0474 10.328,-33.8244 7.792,-31.3787 5.1512,-27.0632 2.4488,-21.6498 0.2861,-15.5917 -1.5597,-9.1551 -3.2193,-2.4963 -3.618,4.869 -3.2762,12.0732 -2.4996,19.1827 -0.3159,26.2367 2.6939,32.1063 5.613,37.2805 8.4788,42.0463 10.7374,45.9965 12.0637,50.0436 12.8424,54.1476 12.7237,57.7092 10.3505,61.5281 7.2294,65.4982 4.2449,68.4052 0.189,70.1121 -5.6479,71.6924 -11.9546,72.6202 -17.9613,72.0112 -23.7919,70.5019 -28.9431,67.8879 -33.6955,64.0495 -38.8332,58.8519 L-41.85,55.8 " stroke-linecap="round" fill="none" stroke="#ffc034" stroke-width="12.555860334392225" stroke-dasharray="none" stroke-dashoffset="0"/></g></g><g transform="matrix(1, 0, 0, 1, 1920.119, 2733.1483) scale(2.7901911854204946, 2.7901911854204946)" opacity="1"><g transform="scale(0.35839837973299865)"><path d="M0,0 Q-2.3035,0 -4.7075,0.5759 T-9.0989,1.4899 -13.4051,2.6025 -18.2371,3.8317 -23.9538,5.1293 -31.7136,7.1711 L-36.27,8.37 " stroke-linecap="round" fill="none" stroke="#ffc034" stroke-width="12.555860334392225" stroke-dasharray="none" stroke-dashoffset="0"/></g></g><g transform="matrix(1, 0, 0, 1, 1973.1326, 2674.5543) scale(2.7901911854204946, 2.7901911854204946)" opacity="1"><g transform="scale(0.35839837973299865)"><path d="M0,0 Q-1.1518,6.9106 -2.0658,10.6672 T-4.0924,18.3571 -6.4342,26.9037 -8.3851,36.5292 -10.1065,46.2123 -11.6932,55.3533 -12.6249,64.178 -13.1719,72.2413 -12.9172,78.7035 -11.04,83.0738 -7.5999,86.9903 L-5.58,89.29 " stroke-linecap="round" fill="none" stroke="#ffc034" stroke-width="12.555860334392225" stroke-dasharray="none" stroke-dashoffset="0"/></g></g><g transform="matrix(1, 0, 0, 1, 2017.7757, 2708.0366) scale(2.7901911854204946, 2.7901911854204946)" opacity="1"><g transform="scale(0.35839837973299865)"><path d="M2.79,0 Q-0.6653,8.0624 -2.8315,11.5812 T-6.8456,17.1662 -10.9302,21.5973 -15.6322,25.9269 -20.1207,29.6209 -25.0598,32.9417 -32.1228,36.7965 L-36.27,39.06 " stroke-linecap="round" fill="none" stroke="#ffc034" stroke-width="12.555860334392225" stroke-dasharray="none" stroke-dashoffset="0"/></g></g><g transform="matrix(1, 0, 0, 1, 1989.8738, 2710.8267) scale(2.7901911854204946, 2.7901911854204946)" opacity="1"><g transform="scale(0.35839837973299865)"><path d="M0,0 Q3.4553,6.9106 5.0456,10.0913 T8.1457,15.7155 11.1177,20.7455 14.0146,25.4267 16.8674,29.3272 19.6942,32.7692 23.0817,35.3662 27.8753,37.6935 L30.69,39.06 " stroke-linecap="round" fill="none" stroke="#ffc034" stroke-width="12.555860334392225" stroke-dasharray="none" stroke-dashoffset="0"/></g></g><g transform="matrix(1, 0, 0, 1, 2028.9365, 2674.5543) scale(2.7901911854204946, 2.7901911854204946)" opacity="1"><g transform="scale(0.35839837973299865)"><path d="M0,0 Q5.7589,6.9106 8.0255,11.2431 T12.7748,19.8471 16.7153,29.5062 19.6049,40.3609 21.8775,51.3416 23.212,61.8225 23.4196,71.434 21.8139,79.3812 18.6171,87.3821 L16.74,92.08 " stroke-linecap="round" fill="none" stroke="#ffc034" stroke-width="12.555860334392225" stroke-dasharray="none" stroke-dashoffset="0"/></g></g><g transform="matrix(1, 0, 0, 1, 971.454, 2791.7423) scale(2.7901911854204946, 2.7901911854204946)" opacity="1"><g transform="scale(0.35839837973299865)"><path d="M0,0 Q-5.7589,3.4553 -8.0255,3.8939 T-12.1989,4.0141 -15.2253,2.9329 -17.0024,1.1462 -18.0458,-1.0546 -18.0827,-3.4987 -17.5284,-6.0856 -16.0511,-8.1804 -12.8802,-9.4104 -9.2906,-9.5568 -6.0311,-8.491 -2.9655,-6.1375 -0.5895,-3.0279 0.8056,-0.0503 0.4731,2.8499 -2.6017,5.1287 -6.7106,6.4668 -10.851,6.1007 -14.4339,4.1581 -17.1135,1.2898 -19.2629,-2.698 -20.5249,-7.3431 -20.6901,-11.7982 -19.0594,-14.9901 -16.3742,-17.4401 -12.494,-18.8788 -7.9121,-19.1476 -4.0699,-18.1537 -0.6621,-15.8424 1.9148,-13.3335 3.4279,-10.7086 4.3163,-8.0155 4.2621,-5.2824 2.5026,-2.5258 -0.2582,-0.3313 -4.1828,0.9572 -8.7908,1.7138 -13.2242,2.1581 -18.955,2.5562 L-22.32,2.79 " stroke-linecap="round" fill="none" stroke="#e599f7" stroke-width="12.555860334392225" stroke-dasharray="none" stroke-dashoffset="0"/></g></g><g transform="matrix(1, 0, 0, 1, 1267.2143, 2797.3227) scale(2.7901911854204946, 2.7901911854204946)" opacity="1"><g transform="scale(0.35839837973299865)"><path d="M0,0 Q0,6.9106 0,9.5154 T0,14.2255 0,18.7189 0,23.0849 0,28.528 0,35.1794 0,41.3885 0,47.3379 0,53.7107 0,60.332 0,66.5256 0,71.892 0,76.7707 0,81.3631 0,85.7873 0,90.6886 0,95.2942 0,99.1503 0,103.718 0,108.7037 0,113.9347 0,119.3097 -0.5759,124.7694 -1.4899,130.2788 -2.0266,135.8173 -2.3418,141.3729 -2.5268,147.5145 -2.6355,154.0001 -2.6993,160.6878 -2.7367,169.2217 -2.7587,177.1121 -2.7716,184.0487 -2.7792,191.0012 -2.7837,197.9629 -2.7863,204.9301 -3.3637,212.4785 -4.2786,219.7923 -4.8159,227.5421 -5.1313,235.5479 -5.3165,242.5523 -6.0012,249.5445 -6.9791,255.9538 -7.5533,262.5966 -7.8904,270.5283 -8.0884,278.0651 -8.7805,285.9458 -9.7628,295.7562 -10.3396,304.3961 -10.6783,311.7727 -10.8771,318.4077 -10.9939,324.0313 -11.0625,329.6369 -11.1027,335.8078 -11.1264,341.7348 -11.1403,347.5185 -11.1484,353.2181 -10.5773,358.2945 -9.6661,363.005 -9.131,368.0745 -8.8169,373.3547 -8.6324,378.7586 -8.5241,384.8112 -8.4605,390.0927 -8.4231,394.9216 -8.4012,400.0606 -8.3883,404.8057 -8.3808,409.3196 -8.3763,413.6978 -8.3737,417.4203 -8.3722,420.7578 -8.3713,424.4452 -8.3708,428.338 -8.3704,432.3515 -8.3703,437.0116 -8.3702,441.4756 -8.3701,445.8244 -8.3701,450.1056 -8.37,454.3471 -8.37,458.5653 -7.7941,462.7698 -6.8801,467.5421 -6.3434,472.0719 -6.0282,475.8835 -5.8432,479.8493 -5.7345,483.9056 -5.6707,487.4391 -5.6333,490.6657 -5.6113,493.712 -5.5984,496.6525 -5.5908,499.5309 -5.5863,502.3728 -5.0078,504.6174 -4.0923,507.0892 -3.5547,510.8462 -3.239,514.7799 -3.0536,519.3932 -2.9448,524.4056 -2.305,529.0764 -1.3535,533.5467 -0.7947,537.3233 -0.4666,540.6926 -0.274,544.3987 -0.1609,548.3025 -0.0945,552.8982 -0.0349,559.6535 L0,563.62 " stroke-linecap="round" fill="none" stroke="#e599f7" stroke-width="12.555860334392225" stroke-dasharray="none" stroke-dashoffset="0"/></g></g><g transform="matrix(1, 0, 0, 1, 1303.4867, 3079.132) scale(2.7901911854204946, 2.7901911854204946)" opacity="1"><g transform="scale(0.35839837973299865)"><path d="M0,0 Q6.9106,2.3035 9.5154,2.9798 T15.9532,4.0532 23.1886,4.6835 31.4683,5.0536 41.513,5.2709 52.596,5.3985 64.8647,4.8975 77.8274,3.4516 90.0459,2.0267 102.4034,0.6142 118.2977,-1.367 135.6929,-3.6821 150.5141,-6.1933 166.1274,-8.8195 183.3576,-11.5134 197.508,-13.671 212.1537,-16.0897 227.0881,-18.6617 242.1919,-21.8996 257.3954,-25.5285 271.5055,-29.3869 285.5495,-33.3802 298.4029,-36.8767 311.709,-41.2333 326.4327,-47.2468 340.2611,-53.6572 352.99,-59.7247 365.0733,-65.5931 376.1995,-71.3445 386.7638,-77.0251 397.5741,-83.2401 408.5287,-89.7688 418.4163,-95.9059 429.4051,-103.5407 441.0404,-111.479 450.7519,-118.4437 459.9096,-125.4127 469.8938,-131.8082 479.2117,-137.2912 486.9865,-142.2384 494.4311,-147.4468 501.6839,-152.8086 507.0965,-157.6846 512.0022,-163.4271 517.1864,-170.2543 521.958,-177.1425 527.0634,-184.6425 531.7888,-191.9257 536.2911,-199.0817 541.2383,-206.1629 545.8709,-213.2024 550.3187,-220.2173 554.0821,-226.064 558.0195,-231.8006 562.6351,-237.4725 567.6488,-242.5306 571.7445,-246.6524 574.7253,-249.6485 577.0514,-250.8318 577.2655,-250.3749 575.6995,-249.0865 L574.78,-248.33 " stroke-linecap="round" fill="none" stroke="#e599f7" stroke-width="12.555860334392225" stroke-dasharray="none" stroke-dashoffset="0"/></g></g><g transform="matrix(1, 0, 0, 1, 1867.1054, 2825.2246) scale(2.7901911854204946, 2.7901911854204946)" opacity="1"><g transform="scale(0.35839837973299865)"><path d="M0,0 Q-2.3035,0 -4.7075,0 T-9.6748,0.5759 -14.895,1.4899 -20.8396,2.6025 -27.2096,3.8317 -33.2535,5.1293 -38.53,6.4671 -42.78,7.8286 -44.6996,8.628 -42.9473,8.5215 -39.039,7.8831 -35.0165,6.9323 -30.351,5.7982 -24.1562,4.5563 -16.4875,3.8271 -7.9535,3.399 -0.063,3.1476 6.2978,3 11.7603,3.4892 16.6955,4.9282 20.7451,7.5008 23.6988,11.315 25.4331,16.434 26.4515,22.8951 27.0495,30.1442 27.4006,36.7043 27.0309,42.2838 25.8206,49.0418 L25.11,53.01 " stroke-linecap="round" fill="none" stroke="#e599f7" stroke-width="12.555860334392225" stroke-dasharray="none" stroke-dashoffset="0"/></g></g><g transform="matrix(1, 0, 0, 1, 1805.7212, 3620.4291) scale(2.7901911854204946, 2.7901911854204946)" opacity="1"><g transform="scale(0.35839837973299865)"><path d="M0,0 Q1.1518,-8.0624 0.914,-11.5812 T-0.0392,-17.7421 -1.7507,-21.9355 -3.9074,-24.3978 -6.3255,-25.8436 -8.8972,-26.6925 -11.559,-26.0392 -14.2737,-23.3521 -17.0195,-18.8948 -19.2077,-13.3982 -20.4925,-7.2912 -21.2469,-0.25 -21.6899,7.3397 -21.3741,15.2516 -20.037,23.3525 -17.5241,31.5646 -14.321,39.8418 -11.2884,47.5815 -8.356,55.0055 -5.4823,62.2462 -3.2191,69.3792 -1.8902,76.4471 -1.6858,83.4766 -2.7175,90.4836 -5.051,96.9015 -8.1488,103.5494 -12.2713,109.7564 -17.5714,114.5528 -23.5629,117.945 -30.5363,119.9369 -38.0863,119.9547 -45.3989,117.6616 -51.9962,114.5875 -58.1736,111.0548 -63.5285,106.6769 -67.8266,102.3786 -70.9283,98.1271 -73.7079,92.5593 L-75.34,89.29 " stroke-linecap="round" fill="none" stroke="#4dabf7" stroke-width="12.555860334392225" stroke-dasharray="none" stroke-dashoffset="0"/></g></g><g transform="matrix(1, 0, 0, 1, 1811.3015, 3679.0231) scale(2.7901911854204946, 2.7901911854204946)" opacity="1"><g transform="scale(0.35839837973299865)"><path d="M0,0 Q-8.0624,2.3035 -12.1571,3.5557 T-19.8079,6.119 -27.1797,8.2001 -34.3877,9.9979 -42.605,12.4879 L-47.43,13.95 " stroke-linecap="round" fill="none" stroke="#4dabf7" stroke-width="12.555860334392225" stroke-dasharray="none" stroke-dashoffset="0"/></g></g><g transform="matrix(1, 0, 0, 1, 1897.7975, 3603.6879) scale(2.7901911854204946, 2.7901911854204946)" opacity="1"><g transform="scale(0.35839837973299865)"><path d="M0,0 Q-3.4553,8.0624 -5.0456,12.1571 T-8.1457,20.9597 -11.6936,31.3113 -15.5045,43.1484 -18.894,55.8599 -21.4601,69.0847 -22.9669,82.033 -23.2757,94.243 -22.3053,105.4437 -20.0078,114.8999 -16.9311,122.1801 -13.3969,127.6066 -9.0181,131.3688 -3.3363,134.7403 L0,136.72 " stroke-linecap="round" fill="none" stroke="#4dabf7" stroke-width="12.555860334392225" stroke-dasharray="none" stroke-dashoffset="0"/></g></g><g transform="matrix(1, 0, 0, 1, 1975.9228, 3659.4918) scale(2.7901911854204946, 2.7901911854204946)" opacity="1"><g transform="scale(0.35839837973299865)"><path d="M0,0 Q-10.366,10.366 -15.1369,15.7128 T-24.437,25.9269 -33.3531,34.8039 -42.0438,42.3198 -50.0262,47.8847 -58.9375,52.8717 L-64.17,55.8 " stroke-linecap="round" fill="none" stroke="#4dabf7" stroke-width="12.555860334392225" stroke-dasharray="none" stroke-dashoffset="0"/></g></g><g transform="matrix(1, 0, 0, 1, 1922.9092, 3670.6525) scale(2.7901911854204946, 2.7901911854204946)" opacity="1"><g transform="scale(0.35839837973299865)"><path d="M0,0 Q8.0624,10.366 11.5812,15.1369 T18.318,23.2852 25.1531,30.3733 32.6218,37.9906 39.8867,44.1909 48.155,49.7474 L53.01,53.01 " stroke-linecap="round" fill="none" stroke="#4dabf7" stroke-width="12.555860334392225" stroke-dasharray="none" stroke-dashoffset="0"/></g></g><g transform="matrix(1, 0, 0, 1, 2020.5659, 3659.4918) scale(2.7901911854204946, 2.7901911854204946)" opacity="1"><g transform="scale(0.35839837973299865)"><path d="M0,0 Q3.4553,9.2142 4.4698,13.647 T6.0799,22.9863 7.0253,31.9254 8.1563,40.0537 10.0488,49.9746 L11.16,55.8 " stroke-linecap="round" fill="none" stroke="#4dabf7" stroke-width="12.555860334392225" stroke-dasharray="none" stroke-dashoffset="0"/></g></g><g transform="matrix(1, 0, 0, 1, 2048.4678, 3690.1839) scale(2.7901911854204946, 2.7901911854204946)" opacity="1"><g transform="scale(0.35839837973299865)"><path d="M0,0 Q-6.9106,0 -10.0913,0 T-16.2913,0.5759 -22.2354,1.4899 -28.6051,2.6025 -36.95,4.4785 L-41.85,5.58 " stroke-linecap="round" fill="none" stroke="#4dabf7" stroke-width="12.555860334392225" stroke-dasharray="none" stroke-dashoffset="0"/></g></g><g transform="matrix(1, 0, 0, 1, 2059.6286, 3634.38) scale(2.7901911854204946, 2.7901911854204946)" opacity="1"><g transform="scale(0.35839837973299865)"><path d="M2.79,0 Q5.0935,10.366 6.3457,15.7128 T8.3332,27.0787 9.5001,38.9355 10.7613,50.5046 12.0776,60.7551 13.4265,67.9279 15.3703,70.4098 17.6634,68.9856 20.1616,65.8459 22.7803,61.6987 25.4697,57.5359 28.2006,53.9399 30.956,51.2525 33.7256,50.2504 35.9278,51.3896 37.2208,54.938 37.9801,60.4768 38.4259,66.0347 39.2635,72.1797 40.8931,81.2022 L41.85,86.5 " stroke-linecap="round" fill="none" stroke="#4dabf7" stroke-width="12.555860334392225" stroke-dasharray="none" stroke-dashoffset="0"/></g></g><g transform="matrix(1, 0, 0, 1, 2107.0618, 3606.4781) scale(2.7901911854204946, 2.7901911854204946)" opacity="1"><g transform="scale(0.35839837973299865)"><path d="M0,0 Q5.7589,4.6071 8.0255,7.1115 T12.1989,12.2381 16.953,20.4313 22.6239,31.577 28.2573,43.3044 33.2928,55.9515 36.8254,68.5626 38.8997,80.5746 40.1176,92.2349 39.681,103.1128 37.697,111.8036 34.8044,118.6343 31.3782,124.3728 27.6388,128.8941 22.5299,133.8248 L19.53,136.72 " stroke-linecap="round" fill="none" stroke="#4dabf7" stroke-width="12.555860334392225" stroke-dasharray="none" stroke-dashoffset="0"/></g></g><g transform="matrix(1, 0, 0, 1, 2204.7185, 3695.7642) scale(2.7901911854204946, 2.7901911854204946)" opacity="1"><g transform="scale(0.35839837973299865)"><path d="M0,0 Q6.9106,3.4553 9.5154,3.8939 T14.8014,4.5899 20.2088,4.4228 26.2633,3.1728 33.2737,1.2871 42.1929,-1.2817 L47.43,-2.79 " stroke-linecap="round" fill="none" stroke="#4dabf7" stroke-width="12.555860334392225" stroke-dasharray="none" stroke-dashoffset="0"/></g></g><g transform="matrix(1, 0, 0, 1, 2338.6477, 3623.2193) scale(2.7901911854204946, 2.7901911854204946)" opacity="1"><g transform="scale(0.35839837973299865)"><path d="M0,0 Q2.3035,-8.0624 2.9798,-11.5812 T4.0532,-18.318 3.5317,-24.0013 2.0738,-28.4902 -0.51,-31.7019 -4.9065,-33.5877 -9.7917,-34.1191 -14.9636,-33.2794 -19.7282,-31.0587 -23.1017,-27.4512 -25.6584,-23.0294 -27.7356,-17.5535 -28.3793,-10.3071 -28.1815,-3.1727 -27.4894,2.7442 -25.3553,9.6737 -22.3746,17.1979 -18.8968,25.0713 -15.127,33.1497 -11.7617,40.7726 -9.2097,48.128 -7.7113,55.9023 -7.4073,63.3486 -8.3806,69.4507 -10.1039,74.7614 -12.8434,79.0314 -16.7556,83.2664 -21.3562,86.9048 -26.3612,89.0413 -31.6035,90.2957 -37.5612,89.3046 -43.3629,86.4192 -47.9213,82.9972 -51.7497,78.6823 -56.0594,73.0545 L-58.59,69.75 " stroke-linecap="round" fill="none" stroke="#4dabf7" stroke-width="12.555860334392225" stroke-dasharray="none" stroke-dashoffset="0"/></g></g><g transform="matrix(1, 0, 0, 1, 2338.6477, 3667.8623) scale(2.7901911854204946, 2.7901911854204946)" opacity="1"><g transform="scale(0.35839837973299865)"><path d="M0,0 Q-8.0624,0 -12.1571,0 T-19.8079,0 -27.7556,-0.5759 -38.3936,-1.9709 L-44.64,-2.79 " stroke-linecap="round" fill="none" stroke="#4dabf7" stroke-width="12.555860334392225" stroke-dasharray="none" stroke-dashoffset="0"/></g></g><g transform="matrix(1, 0, 0, 1, 2386.0809, 3595.3174) scale(2.7901911854204946, 2.7901911854204946)" opacity="1"><g transform="scale(0.35839837973299865)"><path d="M0,0 Q-1.1518,8.0624 -2.0658,11.5812 T-4.6683,19.4697 -8.5,29.2847 -12.4775,40.8067 -15.9648,53.3331 -18.5884,65.8733 -20.1289,77.2679 -20.4575,87.4139 -19.4987,95.099 -16.6322,99.6116 -11.4266,103.6555 L-8.37,106.03 " stroke-linecap="round" fill="none" stroke="#4dabf7" stroke-width="12.555860334392225" stroke-dasharray="none" stroke-dashoffset="0"/></g></g><g transform="matrix(1, 0, 0, 1, 2439.0946, 3634.38) scale(2.7901911854204946, 2.7901911854204946)" opacity="1"><g transform="scale(0.35839837973299865)"><path d="M0,0 Q-3.4553,5.7589 -6.1974,9.1773 T-13.4291,17.4823 -21.7065,26.39 -29.4463,33.3481 -38.0221,38.5855 -49.2231,44.158 L-55.8,47.43 " stroke-linecap="round" fill="none" stroke="#4dabf7" stroke-width="12.555860334392225" stroke-dasharray="none" stroke-dashoffset="0"/></g></g><g transform="matrix(1, 0, 0, 1, 2397.2417, 3639.9604) scale(2.7901911854204946, 2.7901911854204946)" opacity="1"><g transform="scale(0.35839837973299865)"><path d="M0,0 Q4.6071,8.0624 6.5356,12.1571 T10.7482,20.3838 14.9494,28.0937 18.568,34.9244 22.4205,41.2387 26.9861,46.0982 32.8354,50.453 L36.27,53.01 " stroke-linecap="round" fill="none" stroke="#4dabf7" stroke-width="12.555860334392225" stroke-dasharray="none" stroke-dashoffset="0"/></g></g><g transform="matrix(1, 0, 0, 1, 2427.9338, 3578.5762) scale(2.7901911854204946, 2.7901911854204946)" opacity="1"><g transform="scale(0.35839837973299865)"><path d="M0,0 Q6.9106,6.9106 10.0913,10.6672 T16.8672,19.5089 23.7253,29.3077 29.4799,38.5166 34.5866,49.6848 38.7368,65.4588 40.5979,82.7834 39.963,98.1389 37.2867,111.7625 32.8358,123.7932 27.3429,133.7367 20.0863,142.4548 11.2184,149.8774 0.6346,157.4081 L-5.58,161.83 " stroke-linecap="round" fill="none" stroke="#4dabf7" stroke-width="12.555860334392225" stroke-dasharray="none" stroke-dashoffset="0"/></g></g><g transform="matrix(1, 0, 0, 1, 2506.0592, 3732.0367) scale(2.7901911854204946, 2.7901911854204946)" opacity="1"><g transform="scale(0.35839837973299865)"><path d="M0,0 Q-6.9106,4.6071 -11.2431,7.1115 T-21.5747,11.0863 -32.8242,13.9962 -42.885,16.2807 -56.857,18.1979 -76.0049,19.8996 -97.0382,20.8988 -119.1786,21.4855 -141.969,22.4059 -166.8687,23.5222 -191.8574,24.7536 -215.1705,26.0525 -235.1942,26.8152 -254.4382,27.8389 -273.8003,29.0159 -289.7764,30.2829 -305.4919,31.6027 -322.7822,32.9536 -341.575,34.8986 -363.5536,37.1924 -386.8249,39.691 -407.9759,41.7341 -427.3059,43.5096 -444.9908,45.7039 -461.7098,48.1441 -477.8615,50.7288 -493.1064,53.3982 -507.8188,56.1174 -522.2164,58.2899 -536.4293,60.1414 -550.5336,61.8045 -564.5743,63.3569 -578.0016,64.8444 -591.0688,65.7177 -603.9246,66.2306 -616.0803,66.5317 -627.8249,66.7085 -638.1765,66.8123 -647.1362,67.4492 -655.2786,68.9749 -662.3632,71.0246 -668.8267,73.382 -674.3495,75.9179 -679.3201,78.5588 -683.9664,81.8371 -689.009,86.5328 L-691.97,89.29 " stroke-linecap="round" fill="none" stroke="#4dabf7" stroke-width="12.555860334392225" stroke-dasharray="none" stroke-dashoffset="0"/></g></g><g transform="matrix(1, 0, 0, 1, 2054.0482, 3835.2738) scale(2.7901911854204946, 2.7901911854204946)" opacity="1"><g transform="scale(0.35839837973299865)"><path d="M0,0 Q2.3035,9.2142 2.9798,14.2229 T4.6291,22.7485 6.1734,29.4823 7.0802,37.4674 7.6127,46.1872 7.9253,53.6109 8.1089,58.5458 8.7926,59.7158 11.4976,56.9475 15.3894,52.4426 19.9782,48.0697 24.9761,43.7744 30.2144,40.6764 36.7455,38.8574 42.8839,38.941 47.6401,41.2937 51.0087,44.9787 52.9866,49.4459 54.7239,54.3726 57.1597,60.5454 L58.59,64.17 " stroke-linecap="round" fill="none" stroke="#4dabf7" stroke-width="12.555860334392225" stroke-dasharray="none" stroke-dashoffset="0"/></g></g><g transform="matrix(1, 0, 0, 1, 1599.247, 3776.6798) scale(2.7901911854204946, 2.7901911854204946)" opacity="1"><g transform="scale(0.35839837973299865)"><path d="M0,0 Q-5.7589,-2.3035 -8.6014,-2.9798 T-14.2647,-4.0532 -19.8937,-4.6835 -25.5024,-4.4777 -32.2865,-3.4144 L-36.27,-2.79 " stroke-linecap="round" fill="none" stroke="#4dabf7" stroke-width="12.555860334392225" stroke-dasharray="none" stroke-dashoffset="0"/></g></g><g transform="matrix(1, 0, 0, 1, 1607.6176, 3812.9523) scale(2.7901911854204946, 2.7901911854204946)" opacity="1"><g transform="scale(0.35839837973299865)"><path d="M0,0 Q-3.4553,0 -6.1974,0 T-12.8532,0.5759 -22.3334,1.9709 L-27.9,2.79 " stroke-linecap="round" fill="none" stroke="#4dabf7" stroke-width="12.555860334392225" stroke-dasharray="none" stroke-dashoffset="0"/></g></g><g transform="matrix(1, 0, 0, 1, 1119.3341, 3768.3092) scale(2.7901911854204946, 2.7901911854204946)" opacity="1"><g transform="scale(0.35839837973299865)"><path d="M0,0 Q-1.1518,1.1518 -2.6417,2.0658 T-6.1582,4.0924 -10.5266,6.4342 -15.3952,9.5369 -19.9816,13.0864 -23.2505,16.3223 -25.1699,19.9501 -25.7211,23.8079 -24.8929,27.8007 -22.1031,31.8729 -17.5856,35.4158 -13.2053,38.6479 -9.4815,41.6974 -6.1432,45.2157 -3.6072,49.5851 -2.6939,54.4543 -3.3095,59.041 -5.9745,63.4619 -9.8428,67.7875 -14.4178,71.4812 -20.5594,74.226 -27.0451,75.2618 -32.581,74.7161 -36.9833,72.0901 -41.8074,67.1001 L-44.64,64.17 " stroke-linecap="round" fill="none" stroke="#4dabf7" stroke-width="12.555860334392225" stroke-dasharray="none" stroke-dashoffset="0"/></g></g><g transform="matrix(1, 0, 0, 1, 1161.187, 3712.5054) scale(2.7901911854204946, 2.7901911854204946)" opacity="1"><g transform="scale(0.35839837973299865)"><path d="M0,0 Q3.4553,4.6071 4.4698,8.2632 T6.0799,16.9456 7.0253,28.3784 7.5804,42.0022 7.9064,56.3386 8.0978,69.9416 8.786,82.5362 10.2817,97.3384 L11.16,106.03 " stroke-linecap="round" fill="none" stroke="#4dabf7" stroke-width="12.555860334392225" stroke-dasharray="none" stroke-dashoffset="0"/></g></g><g transform="matrix(1, 0, 0, 1, 1183.5085, 3776.6798) scale(2.7901911854204946, 2.7901911854204946)" opacity="1"><g transform="scale(0.35839837973299865)"><path d="M0,0 Q-6.9106,1.1518 -11.2431,1.4899 T-20.423,2.6025 -29.8444,4.4076 -38.8318,6.0433 -49.5226,7.5093 L-55.8,8.37 " stroke-linecap="round" fill="none" stroke="#4dabf7" stroke-width="12.555860334392225" stroke-dasharray="none" stroke-dashoffset="0"/></g></g><g transform="matrix(1, 0, 0, 1, 1208.6202, 3785.0504) scale(2.7901911854204946, 2.7901911854204946)" opacity="1"><g transform="scale(0.35839837973299865)"><path d="M0,0 Q2.3035,8.0624 1.2522,10.4294 T-1.2946,16.1632 L-2.79,19.53 " stroke-linecap="round" fill="none" stroke="#4dabf7" stroke-width="12.555860334392225" stroke-dasharray="none" stroke-dashoffset="0"/></g></g><g transform="matrix(1, 0, 0, 1, 1194.6693, 3684.6035) scale(2.7901911854204946, 2.7901911854204946)" opacity="1"><g transform="scale(0.35839837973299865)"><path d="M0,0 Q3.4553,6.9106 5.0456,10.0913 T7.5698,16.8672 9.8318,25.5763 L11.16,30.69 " stroke-linecap="round" fill="none" stroke="#4dabf7" stroke-width="12.555860334392225" stroke-dasharray="none" stroke-dashoffset="0"/></g></g><g transform="matrix(1, 0, 0, 1, 1233.732, 3779.47) scale(2.7901911854204946, 2.7901911854204946)" opacity="1"><g transform="scale(0.35839837973299865)"><path d="M0,0 Q2.3035,4.6071 2.9798,6.5356 T4.0532,10.1723 4.6835,13.4595 4.4777,15.9655 3.781,16.8611 3.3719,16.2352 3.1317,14.716 2.9906,12.6721 2.9078,10.3202 3.4351,7.2116 4.8964,3.6586 6.3304,0.4206 7.7483,-2.0566 9.1567,-4.087 10.5596,-5.8551 11.3833,-6.8933 11.2911,-6.927 10.0852,-5.2192 7.6495,-1.9128 5.0675,2.3322 2.9755,7.1283 1.1713,12.8238 -0.464,18.4717 -0.8484,23.5157 1.2295,27.6292 5.329,30.0445 9.4638,30.311 13.6194,28.1639 17.7871,25.1755 20.8101,21.6932 22.5852,17.9207 23.6275,15.7056 24.2395,15.5568 24.5989,17.7729 25.3858,21.9536 26.9996,27.2878 29.099,33.8753 32.0593,40.6227 35.5252,47.4641 38.7121,55.5124 41.7352,63.1197 44.0861,70.4681 44.3148,78.2382 42.1455,85.1042 38.5682,90.8634 33.5882,95.3968 28.3606,98.6347 22.4116,99.96 14.8873,99.0105 7.5897,96.1494 1.5771,92.7418 -3.1052,87.8615 -8.1801,79.9723 L-11.16,75.34 " stroke-linecap="round" fill="none" stroke="#4dabf7" stroke-width="12.555860334392225" stroke-dasharray="none" stroke-dashoffset="0"/></g></g><g transform="matrix(1, 0, 0, 1, 1278.375, 3773.8896) scale(2.7901911854204946, 2.7901911854204946)" opacity="1"><g transform="scale(0.35839837973299865)"><path d="M0,0 Q2.3035,6.9106 2.9798,9.5154 T4.0532,14.8014 4.6835,19.6329 5.6295,23.0457 7.3367,23.8979 9.4909,22.0947 11.9076,19.3083 14.4784,15.9445 17.1397,12.2417 19.8541,8.9157 22.5998,5.811 25.3637,3.4121 28.1384,2.5794 30.3435,3.8181 31.6383,6.849 32.3986,10.9322 32.845,16.7851 33.2451,25.5459 L33.48,30.69 " stroke-linecap="round" fill="none" stroke="#4dabf7" stroke-width="12.555860334392225" stroke-dasharray="none" stroke-dashoffset="0"/></g></g><g transform="matrix(1, 0, 0, 1, 1331.3887, 3773.8896) scale(2.7901911854204946, 2.7901911854204946)" opacity="1"><g transform="scale(0.35839837973299865)"><path d="M0,0 Q2.3035,5.7589 2.404,7.4496 T2.5633,8.9813 2.7061,8.5962 L2.79,8.37 " stroke-linecap="round" fill="none" stroke="#4dabf7" stroke-width="12.555860334392225" stroke-dasharray="none" stroke-dashoffset="0"/></g></g><g transform="matrix(1, 0, 0, 1, 1334.1789, 3690.1839) scale(2.7901911854204946, 2.7901911854204946)" opacity="1"><g transform="scale(0.35839837973299865)"><path d="M0,0 Q2.3035,5.7589 2.9798,8.6014 T4.0532,14.2647 5.0152,21.0978 L5.58,25.11 " stroke-linecap="round" fill="none" stroke="#4dabf7" stroke-width="12.555860334392225" stroke-dasharray="none" stroke-dashoffset="0"/></g></g><g transform="matrix(1, 0, 0, 1, 1359.2906, 3771.0994) scale(2.7901911854204946, 2.7901911854204946)" opacity="1"><g transform="scale(0.35839837973299865)"><path d="M0,0 Q2.3035,8.0624 1.8281,11.0053 T1.0734,15.1004 0.6303,16.3531 0.946,14.7852 2.859,10.9851 5.1341,7.0261 7.6217,3.5497 10.81,0.3566 14.4098,-2.67 18.2512,-4.4472 21.6586,-3.7631 24.2352,0.0939 26.324,5.814 28.7022,11.4763 31.7125,18.3084 L33.48,22.32 " stroke-linecap="round" fill="none" stroke="#4dabf7" stroke-width="12.555860334392225" stroke-dasharray="none" stroke-dashoffset="0"/></g></g><g transform="matrix(1, 0, 0, 1, 1426.2552, 3759.9386) scale(2.7901911854204946, 2.7901911854204946)" opacity="1"><g transform="scale(0.35839837973299865)"><path d="M0,0 Q-2.3035,1.1518 -4.1316,2.6417 T-7.609,6.1582 -10.8026,9.3748 -13.2537,12.9912 -14.6929,17.4182 -14.9621,20.5936 -13.3925,22.458 -9.5915,22.9769 -5.056,22.1299 -0.6652,19.3289 3.6406,15.3807 7.3207,11.9107 10.0574,8.7213 11.6643,7.4245 13.1838,9.5425 15.2278,13.6656 17.0038,18.3901 19.1985,24.6195 22.2148,32.3085 25.7135,40.2787 29.4956,48.4139 32.8681,56.646 35.4242,64.3612 36.3493,71.197 34.5889,76.9386 30.0999,81.4616 24.5847,84.6933 17.8909,87.1668 8.3766,90.2624 L2.79,92.08 " stroke-linecap="round" fill="none" stroke="#4dabf7" stroke-width="12.555860334392225" stroke-dasharray="none" stroke-dashoffset="0"/></g></g><g transform="matrix(1, 0, 0, 1, 1057.9499, 3960.8324) scale(2.7901911854204946, 2.7901911854204946)" opacity="1"><g transform="scale(0.35839837973299865)"><path d="M0,0 Q3.4553,12.6695 4.4698,18.1168 T6.0799,27.9144 6.4494,35.9708 6.0905,42.4291 4.728,47.9489 2.2003,52.3418 0.1402,53.7694 -1.706,53.2909 L-2.79,53.01 " stroke-linecap="round" fill="none" stroke="#4dabf7" stroke-width="12.555860334392225" stroke-dasharray="none" stroke-dashoffset="0"/></g></g><g transform="matrix(1, 0, 0, 1, 1057.9499, 3930.1403) scale(2.7901911854204946, 2.7901911854204946)" opacity="1"><g transform="scale(0.35839837973299865)"><path d="M0,0 Q8.0624,0 11.5812,0 T18.8939,0.5759 25.4912,2.6417 30.5168,5.5823 34.6195,9.6126 37.6044,14.8585 38.7812,19.6664 38.8963,23.6413 37.2362,28.2788 33.9579,33.3054 30.3053,36.8328 25.857,38.904 20.9415,40.1202 15.7517,39.6825 9.343,37.5325 L5.58,36.27 " stroke-linecap="round" fill="none" stroke="#4dabf7" stroke-width="12.555860334392225" stroke-dasharray="none" stroke-dashoffset="0"/></g></g><g transform="matrix(1, 0, 0, 1, 1097.0126, 3958.0422) scale(2.7901911854204946, 2.7901911854204946)" opacity="1"><g transform="scale(0.35839837973299865)"><path d="M0,0 Q8.0624,3.4553 12.1571,4.4698 T20.3838,4.9281 26.942,3.4696 31.9445,0.8855 36.0337,-2.9354 38.4348,-6.9066 39.8447,-10.966 40.6725,-15.0773 40.0068,-18.0672 37.8883,-19.8229 35.4926,-19.702 33.51,-17.3274 32.3458,-13.6296 31.6623,-9.7307 31.8368,-5.7136 33.6669,-1.6273 37.0451,1.9239 41.9081,4.585 47.643,6.1475 53.3139,7.065 57.7955,6.452 61.0029,4.3643 63.4621,1.4109 64.9061,-2.6269 65.1781,-7.3013 64.1861,-12.3496 63.0277,-17.6174 62.9234,-22.4381 64.0139,-25.8447 66.3819,-27.8449 70.6538,-29.0194 76.6196,-29.1332 83.002,-28.0482 89.0531,-26.8353 96.2337,-25.7483 L100.45,-25.11 " stroke-linecap="round" fill="none" stroke="#4dabf7" stroke-width="12.555860334392225" stroke-dasharray="none" stroke-dashoffset="0"/></g></g><g transform="matrix(1, 0, 0, 1, 1283.9554, 3913.3991) scale(2.7901911854204946, 2.7901911854204946)" opacity="1"><g transform="scale(0.35839837973299865)"><path d="M0,0 Q1.1518,3.4553 0.3381,6.1974 T-2.6809,11.7014 -7.9089,17.8126 -14.434,24.2805 -21.1448,29.8059 -27.9647,34.2021 -36.7131,39.0206 L-41.85,41.85 " stroke-linecap="round" fill="none" stroke="#4dabf7" stroke-width="12.555860334392225" stroke-dasharray="none" stroke-dashoffset="0"/></g></g><g transform="matrix(1, 0, 0, 1, 1247.6829, 3921.7697) scale(2.7901911854204946, 2.7901911854204946)" opacity="1"><g transform="scale(0.35839837973299865)"><path d="M0,0 Q10.366,9.2142 14.5611,12.4952 T22.3712,18.2788 29.8366,21.6747 39.1635,23.8391 L44.64,25.11 " stroke-linecap="round" fill="none" stroke="#4dabf7" stroke-width="12.555860334392225" stroke-dasharray="none" stroke-dashoffset="0"/></g></g><g transform="matrix(1, 0, 0, 1, 1336.969, 3949.6716) scale(2.7901911854204946, 2.7901911854204946)" opacity="1"><g transform="scale(0.35839837973299865)"><path d="M0,0 L-5.58,19.53 " stroke-linecap="round" fill="none" stroke="#4dabf7" stroke-width="12.555860334392225" stroke-dasharray="none" stroke-dashoffset="0"/></g></g><g transform="matrix(1, 0, 0, 1, 1046.7892, 4086.391) scale(2.7901911854204946, 2.7901911854204946)" opacity="1"><g transform="scale(0.35839837973299865)"><path d="M0,0 Q0,11.5177 0,15.4751 T0,22.9079 0,29 0,32.5771 0.5759,32.9498 1.4899,30.8651 3.1784,26.1858 5.8975,19.9828 8.6459,14.037 11.4114,8.8181 14.1871,4.6019 16.9686,0.9745 19.7537,-1.7313 21.9649,-2.1684 23.2633,-0.6973 24.0256,1.8941 24.4733,5.7193 24.7361,9.693 24.3146,13.7539 23.4912,17.8661 23.5836,20.2806 24.2137,20.5466 25.7355,18.3993 28.3567,14.8349 31.6235,11.0143 35.2693,7.6191 39.1377,5.0497 43.1369,2.9651 46.6368,2.8928 49.2678,5.1539 50.8127,9.361 51.7198,14.1349 52.2524,19.2415 52.7297,26.4546 L53.01,30.69 " stroke-linecap="round" fill="none" stroke="#4dabf7" stroke-width="12.555860334392225" stroke-dasharray="none" stroke-dashoffset="0"/></g></g><g transform="matrix(1, 0, 0, 1, 1116.5439, 4089.1812) scale(2.7901911854204946, 2.7901911854204946)" opacity="1"><g transform="scale(0.35839837973299865)"><path d="M0,0 Q4.6071,0 5.9597,-0.5759 T8.1065,-2.6417 8.7912,-5.0065 8.0414,-4.6673 7.0253,-1.0129 6.4286,4.0123 6.0783,9.8425 5.8726,16.1452 6.3277,22.1496 8.3226,27.4029 11.7975,31.0635 15.5655,32.6369 20.0816,31.2573 25.0368,27.5678 30.3564,22.5036 L33.48,19.53 " stroke-linecap="round" fill="none" stroke="#4dabf7" stroke-width="12.555860334392225" stroke-dasharray="none" stroke-dashoffset="0"/></g></g><g transform="matrix(1, 0, 0, 1, 1158.3968, 4030.5872) scale(2.7901911854204946, 2.7901911854204946)" opacity="1"><g transform="scale(0.35839837973299865)"><path d="M0,0 Q2.3035,8.0624 2.9798,13.3089 T4.0532,24.5154 4.6835,36.8545 5.0536,49.2827 5.2709,60.6135 5.3985,70.1483 6.0493,76.8986 7.0073,80.2864 8.1458,78.8182 10.0449,73.1048 L11.16,69.75 " stroke-linecap="round" fill="none" stroke="#4dabf7" stroke-width="12.555860334392225" stroke-dasharray="none" stroke-dashoffset="0"/></g></g><g transform="matrix(1, 0, 0, 1, 1186.2987, 4025.0068) scale(2.7901911854204946, 2.7901911854204946)" opacity="1"><g transform="scale(0.35839837973299865)"><path d="M0,0 Q1.1518,9.2142 0.914,15.9506 T0.5367,27.7942 0.3151,39.9315 0.185,53.395 0.1087,64.7579 1.2156,73.1577 3.9654,81.564 L5.58,86.5 " stroke-linecap="round" fill="none" stroke="#4dabf7" stroke-width="12.555860334392225" stroke-dasharray="none" stroke-dashoffset="0"/></g></g><g transform="matrix(1, 0, 0, 1, 1216.9908, 4083.6008) scale(2.7901911854204946, 2.7901911854204946)" opacity="1"><g transform="scale(0.35839837973299865)"><path d="M0,0 Q4.6071,-1.1518 5.3838,-1.4899 T6.0407,-2.6025 5.2746,-4.4076 3.0971,-6.0433 0.0909,-6.428 -3.4019,-5.502 -7.1805,-2.6548 -9.9751,1.8965 -11.616,7.4483 -12.5795,14.1636 -11.9935,20.4101 -9.9218,25.2298 -5.25,28.6356 2.1003,29.4837 9.8716,27.1023 16.7382,22.8245 21.9219,16.8574 25.5416,9.8983 27.667,3.5085 29.5716,-3.9755 L30.69,-8.37 " stroke-linecap="round" fill="none" stroke="#4dabf7" stroke-width="12.555860334392225" stroke-dasharray="none" stroke-dashoffset="0"/></g></g><g transform="matrix(1, 0, 0, 1, 1250.4731, 4075.2302) scale(2.7901911854204946, 2.7901911854204946)" opacity="1"><g transform="scale(0.35839837973299865)"><path d="M0,0 Q3.4553,4.6071 4.4698,6.5356 T6.0799,11.3241 6.4494,16.4393 6.0905,19.4429 6.4556,20.0547 7.8218,18.1104 10.3517,14.0894 14.1407,8.8489 18.0932,3.4682 22.1416,-0.843 26.2465,-3.9503 29.8085,-5.7748 32.476,-5.6944 34.0422,-3.9195 34.9619,-1.7256 35.5019,1.2903 35.2431,4.7889 34.5153,7.9949 34.0879,9.3015 34.4128,8.3411 36.3313,6.0495 39.1854,2.9762 43.1648,-0.556 48.3809,-4.3577 54.3231,-7.1658 60.1158,-8.8147 64.6689,-9.207 68.4962,-7.7097 71.8974,-4.527 74.4703,-0.3546 75.9811,3.823 76.8682,8.0036 77.965,13.3379 79.8268,20.7549 L80.92,25.11 " stroke-linecap="round" fill="none" stroke="#4dabf7" stroke-width="12.555860334392225" stroke-dasharray="none" stroke-dashoffset="0"/></g></g><g transform="matrix(1, 0, 0, 1, 1021.6774, 4242.6417) scale(2.7901911854204946, 2.7901911854204946)" opacity="1"><g transform="scale(0.35839837973299865)"><path d="M0,0 Q-1.1518,-11.5177 -2.6417,-15.4751 T-6.1582,-21.7561 -10.5266,-25.4442 -14.8193,-26.458 -19.0675,-24.7498 -22.7138,-20.8673 -25.4306,-15.7081 -27.6018,-9.7994 -28.8767,-2.8745 -29.0494,4.071 -27.4231,10.4528 -24.7406,17.0795 -22.0136,23.85 -19.8366,29.5531 -18.5582,35.7813 -18.9594,42.8937 -21.4985,49.3735 -25.8688,54.9059 -31.3144,59.8821 -37.9673,64.5317 -45.329,67.8377 -52.5311,69.7789 -59.6394,70.3429 -65.543,68.3705 -71.7156,63.9661 L-75.34,61.38 " stroke-linecap="round" fill="none" stroke="#4dabf7" stroke-width="12.555860334392225" stroke-dasharray="none" stroke-dashoffset="0"/></g></g><g transform="matrix(1, 0, 0, 1, 1010.5167, 4264.9632) scale(2.7901911854204946, 2.7901911854204946)" opacity="1"><g transform="scale(0.35839837973299865)"><path d="M0,0 Q-3.4553,4.6071 -6.1974,5.9597 T-11.7014,8.1065 -17.8126,9.367 -24.2805,9.5313 -31.8345,8.7996 L-36.27,8.37 " stroke-linecap="round" fill="none" stroke="#4dabf7" stroke-width="12.555860334392225" stroke-dasharray="none" stroke-dashoffset="0"/></g></g><g transform="matrix(1, 0, 0, 1, 1052.3695, 4228.6908) scale(2.7901911854204946, 2.7901911854204946)" opacity="1"><g transform="scale(0.35839837973299865)"><path d="M0,0 Q-3.4553,6.9106 -5.0456,10.6672 T-8.7216,18.3571 -12.6076,26.9037 -16.0412,36.5292 -18.6332,46.2123 -20.1552,54.7774 -20.473,61.5343 -18.9319,66.6556 -14.5717,69.0869 -7.1487,69.5047 L-2.79,69.75 " stroke-linecap="round" fill="none" stroke="#4dabf7" stroke-width="12.555860334392225" stroke-dasharray="none" stroke-dashoffset="0"/></g></g><g transform="matrix(1, 0, 0, 1, 1102.593, 4242.6417) scale(2.7901911854204946, 2.7901911854204946)" opacity="1"><g transform="scale(0.35839837973299865)"><path d="M0,0 Q-3.4553,5.7589 -6.1974,8.0255 T-11.1255,12.1989 -16.3227,16.3771 -21.678,20.5581 -26.5501,23.589 -32.6741,26.3051 L-36.27,27.9 " stroke-linecap="round" fill="none" stroke="#4dabf7" stroke-width="12.555860334392225" stroke-dasharray="none" stroke-dashoffset="0"/></g></g><g transform="matrix(1, 0, 0, 1, 1077.4813, 4242.6417) scale(2.7901911854204946, 2.7901911854204946)" opacity="1"><g transform="scale(0.35839837973299865)"><path d="M0,0 Q2.3035,9.2142 3.5557,13.0711 T6.6949,19.7687 10.8418,24.2772 15.5802,26.3487 21.5844,27.3261 L25.11,27.9 " stroke-linecap="round" fill="none" stroke="#4dabf7" stroke-width="12.555860334392225" stroke-dasharray="none" stroke-dashoffset="0"/></g></g><g transform="matrix(1, 0, 0, 1, 1133.2851, 4234.2711) scale(2.7901911854204946, 2.7901911854204946)" opacity="1"><g transform="scale(0.35839837973299865)"><path d="M0,0 Q1.1518,5.7589 1.4899,8.6014 T2.0266,13.6888 2.3418,18.4037 2.5268,22.8999 2.6355,26.6917 3.851,30.0699 6.6982,33.9763 L8.37,36.27 " stroke-linecap="round" fill="none" stroke="#4dabf7" stroke-width="12.555860334392225" stroke-dasharray="none" stroke-dashoffset="0"/></g></g><g transform="matrix(1, 0, 0, 1, 1150.0262, 4245.4319) scale(2.7901911854204946, 2.7901911854204946)" opacity="1"><g transform="scale(0.35839837973299865)"><path d="M0,0 Q-8.0624,2.3035 -12.733,2.9798 T-24.0468,4.6181 L-30.69,5.58 " stroke-linecap="round" fill="none" stroke="#4dabf7" stroke-width="12.555860334392225" stroke-dasharray="none" stroke-dashoffset="0"/></g></g><g transform="matrix(1, 0, 0, 1, 1155.6066, 4200.7888) scale(2.7901911854204946, 2.7901911854204946)" opacity="1"><g transform="scale(0.35839837973299865)"><path d="M0,0 Q3.4553,5.7589 4.4698,8.0255 T6.0799,13.9266 6.4494,21.4228 6.0905,29.2797 5.8797,37.3484 5.756,44.3897 5.1075,51.4037 4.7266,58.4016 5.0789,63.6623 5.8617,67.3272 6.8972,68.9033 9.2328,68.1011 13.4837,65.3265 17.7074,61.3937 21.3393,57.3569 24.6236,53.8347 27.7038,50.6148 30.0883,48.7242 31.4885,49.3417 32.3106,52.5837 33.3693,57.3668 35.1969,63.411 L36.27,66.96 " stroke-linecap="round" fill="none" stroke="#4dabf7" stroke-width="12.555860334392225" stroke-dasharray="none" stroke-dashoffset="0"/></g></g><g transform="matrix(1, 0, 0, 1, 1194.6693, 4197.9986) scale(2.7901911854204946, 2.7901911854204946)" opacity="1"><g transform="scale(0.35839837973299865)"><path d="M0,0 Q5.7589,-1.1518 8.6014,-0.3381 T13.6888,2.6809 17.8279,7.9089 21.9859,15.0099 25.5791,26.0901 27.689,39.5067 28.352,51.4159 27.5895,61.2902 25.4141,68.8179 21.8333,73.8139 16.8664,78.2911 L13.95,80.92 " stroke-linecap="round" fill="none" stroke="#4dabf7" stroke-width="12.555860334392225" stroke-dasharray="none" stroke-dashoffset="0"/></g></g><g transform="matrix(1, 0, 0, 1, 1314.6475, 4211.9496) scale(2.7901911854204946, 2.7901911854204946)" opacity="1"><g transform="scale(0.35839837973299865)"><path d="M-2.3035,2.3035 Q-4.6071,4.6071 -6.5356,7.1115 T-10.1723,12.2381 -13.4595,17.5519 -15.9655,22.9756 -17.437,28.4638 -17.1493,33.9899 -14.6768,38.3865 -9.7697,40.9681 -2.2812,41.908 5.5712,40.7323 11.9096,38.3143 16.7831,34.015 20.2206,28.0353 21.6632,22.2206 21.3584,16.5028 18.876,11.4177 14.0145,5.9818 5.58,1.395 -2.3035,2.3035 Z" stroke-linecap="round" fill="none" stroke="#4dabf7" stroke-width="12.555860334392225" stroke-dasharray="none" stroke-dashoffset="0"/></g></g><g transform="matrix(1, 0, 0, 1, 1359.2906, 4217.53) scale(2.7901911854204946, 2.7901911854204946)" opacity="1"><g transform="scale(0.35839837973299865)"><path d="M0,0 Q6.9106,-3.4553 8.9395,-5.0456 T12.1597,-8.1457 13.4747,-9.9659 13.095,-9.3071 11.7203,-6.6167 9.7613,-2.7334 7.4593,1.8503 5.5317,6.8453 4.3999,12.0818 3.7353,16.8843 3.9209,20.28 5.1817,22.2739 7.6497,22.293 10.2506,20.5765 12.3537,17.8409 14.1644,14.507 15.2277,11.3976 15.852,8.4201 16.7945,6.6718 18.4996,6.7969 21.2285,9.174 24.5586,13.4492 29.3933,19.4148 35.1116,26.373 40.7728,34.4899 45.8246,42.7113 48.7909,50.994 49.3808,60.4666 46.8478,68.9102 43.057,75.5958 36.7998,81.249 29.0946,85.7203 21.1149,88.3457 12.3982,89.3114 4.9764,87.5749 -0.5333,83.6759 -5.4708,78.4239 L-8.37,75.34 " stroke-linecap="round" fill="none" stroke="#4dabf7" stroke-width="12.555860334392225" stroke-dasharray="none" stroke-dashoffset="0"/></g></g><g transform="matrix(1, 0, 0, 1, 1482.059, 4161.7262) scale(2.7901911854204946, 2.7901911854204946)" opacity="1"><g transform="scale(0.35839837973299865)"><path d="M0,0 Q-1.1518,-4.6071 -2.0658,-5.3838 T-4.6683,-6.0407 -7.9241,-5.2746 -11.5635,-3.673 -16.004,0.1468 -20.9149,5.8451 -24.9503,12.0704 -27.3198,18.6052 -28.7111,24.7458 -28.9521,31.2309 -27.366,37.9183 -23.5553,44.1485 -19.0141,49.5344 -15.1959,53.8486 -11.2262,58.6854 -8.8953,64.4069 -9.2544,69.4962 -11.7687,73.6363 -16.1245,77.2191 -21.5616,79.8987 -27.0576,81.4721 -33.1643,82.3959 -39.6293,82.3625 -45.7291,80.6152 -53.8321,77.2916 L-58.59,75.34 " stroke-linecap="round" fill="none" stroke="#4dabf7" stroke-width="12.555860334392225" stroke-dasharray="none" stroke-dashoffset="0"/></g></g><g transform="matrix(1, 0, 0, 1, 1468.108, 4206.3692) scale(2.7901911854204946, 2.7901911854204946)" opacity="1"><g transform="scale(0.35839837973299865)"><path d="M0,0 Q-8.0624,2.3035 -11.5812,2.9798 T-18.318,4.6291 -26.113,6.9861 L-30.69,8.37 " stroke-linecap="round" fill="none" stroke="#4dabf7" stroke-width="12.555860334392225" stroke-dasharray="none" stroke-dashoffset="0"/></g></g><g transform="matrix(1, 0, 0, 1, 1532.2824, 4150.5654) scale(2.7901911854204946, 2.7901911854204946)" opacity="1"><g transform="scale(0.35839837973299865)"><path d="M0,0 Q-3.4553,6.9106 -5.0456,9.5154 T-8.7216,16.5291 -12.6076,25.2544 -16.0412,33.2572 -18.6332,40.8357 -20.1552,50.4686 -20.473,61.3099 -18.9319,70.5571 -16.8753,77.7146 -13.94,83.0691 -9.337,86.789 -3.4542,90.1226 L0,92.08 " stroke-linecap="round" fill="none" stroke="#4dabf7" stroke-width="12.555860334392225" stroke-dasharray="none" stroke-dashoffset="0"/></g></g><g transform="matrix(1, 0, 0, 1, 1576.9255, 4184.0477) scale(2.7901911854204946, 2.7901911854204946)" opacity="1"><g transform="scale(0.35839837973299865)"><path d="M0,0 Q1.1518,3.4553 0.914,5.6215 T-1.191,10.2115 -4.7305,14.6343 -9.1124,19.5348 -14.5648,24.7158 -20.0699,28.9097 -26.7611,33.5471 L-30.69,36.27 " stroke-linecap="round" fill="none" stroke="#4dabf7" stroke-width="12.555860334392225" stroke-dasharray="none" stroke-dashoffset="0"/></g></g><g transform="matrix(1, 0, 0, 1, 1546.2334, 4189.6281) scale(2.7901911854204946, 2.7901911854204946)" opacity="1"><g transform="scale(0.35839837973299865)"><path d="M0,0 Q6.9106,8.0624 9.5154,11.5812 T13.6496,17.7421 17.8048,22.5114 23.1241,25.3118 29.6488,26.9425 L33.48,27.9 " stroke-linecap="round" fill="none" stroke="#4dabf7" stroke-width="12.555860334392225" stroke-dasharray="none" stroke-dashoffset="0"/></g></g><g transform="matrix(1, 0, 0, 1, 1585.2961, 4133.8243) scale(2.7901911854204946, 2.7901911854204946)" opacity="1"><g transform="scale(0.35839837973299865)"><path d="M0,0 Q5.7589,4.6071 8.0255,6.5356 T12.7748,12.4758 17.2912,19.4192 21.6707,28.1032 25.3941,40.1129 27.5803,52.3498 28.8641,64.1442 29.6179,73.9491 28.9087,82.5857 26.1887,91.1122 22.864,97.8465 19.1841,102.3766 14.1285,106.4363 L11.16,108.82 " stroke-linecap="round" fill="none" stroke="#4dabf7" stroke-width="12.555860334392225" stroke-dasharray="none" stroke-dashoffset="0"/></g></g></svg>