<svg xmlns="http://www.w3.org/2000/svg" direction="ltr" width="765.6615693998367" height="801.6339651898161" viewBox="2009.2722016717678 23172.366378071118 765.6615693998367 801.6339651898161" stroke-linecap="round" stroke-linejoin="round" style="background-color: transparent;"><defs/><g transform="matrix(1, 0, 0, 1, 2359.6726, 23294.7403) scale(1.15788842338003, 1.15788842338003)" opacity="1"><g transform="scale(0.8636410726699101)"><path d="M1.9287,-0.8252 T2.7574,1.094 4.0946,5.3153 4.8545,9.3411 5.2429,12.831 5.2134,17.8615 4.9022,24.7434 4.7542,30.9633 4.7529,35.488 4.7718,40.0621 4.8123,45.7566 4.8483,50.6779 4.8726,54.6409 4.8968,58.6444 4.926,62.9442 4.9524,67.1283 4.9744,70.977 4.9947,74.6465 5.0169,78.7704 5.0424,84.231 5.0606,89.573 5.0727,94.032 5.0774,98.2999 5.0804,102.1904 5.0867,106.1563 5.092,110.1644 5.0956,114.1905 5.5083,120.0151 5.9949,125.2651 6.1098,129.2661 6.1691,133.3025 6.1992,137.3414 6.2143,141.3867 6.4834,144.9731 6.9029,149.0617 7.1375,154.1505 7.2609,159.0112 7.3302,164.0309 7.3686,169.1462 7.3895,173.481 7.4062,178.2322 7.4214,183.7491 7.4311,188.8461 7.4374,193.4467 7.7075,198.177 8.1285,203.7039 8.3599,209.2275 8.4839,214.3136 8.5545,219.1943 8.593,223.6806 8.6193,228.5126 8.903,233.6626 9.3277,238.5383 9.5602,243.4445 9.6799,248.2434 9.7416,253.229 9.7739,258.8744 9.7867,263.7619 9.7891,267.707 9.7885,271.9771 9.7859,276.9667 9.7794,281.7857 9.7635,288.144 9.7485,293.9592 9.7395,298.1338 9.7323,302.2518 9.7219,306.6144 9.7099,311.1035 9.7026,314.8385 9.6965,318.7249 9.6861,323.7837 9.6731,330.009 9.6642,335.4797 9.6578,340.2784 9.6532,344.7254 9.6501,348.7126 9.6476,353.0038 9.642,357.1833 9.6338,361.304 9.6313,366.2142 9.6295,370.9919 9.6243,374.879 9.6201,378.8456 9.6164,383.4003 9.6136,387.7163 9.6116,391.9065 9.61,396.0327 9.609,399.5766 9.6044,403.3598 9.5968,407.5436 9.5909,411.6665 9.5833,415.4829 9.5734,419.4107 9.282,424.089 8.8524,428.4971 8.6384,432.583 8.5286,436.6335 8.4701,440.6913 8.4398,444.7427 8.4243,449.0723 8.4165,453.5426 8.4126,458.0895 8.4108,462.4034 8.4099,466.5927 8.4096,470.9903 8.4096,475.5002 8.4096,480.0669 8.4097,484.6636 8.4097,489.2774 8.6756,493.4785 9.0905,497.5834 9.3192,502.1015 9.4395,506.6911 9.5014,511.2873 9.534,516.455 9.5467,521.3667 9.5488,525.5986 9.5482,530.0193 9.5463,534.5393 9.5444,539.1111 9.5426,543.7124 9.8099,548.4816 10.2244,553.4343 10.4541,558.3675 10.5802,563.4532 10.6467,568.0382 10.6829,572.6485 10.7075,578.3676 10.4435,584.2719 10.0353,589.8258 9.8303,595.079 9.4404,600.7054 8.9613,606.4249 8.716,611.7911 8.5875,617.0622 8.5142,622.3132 8.4708,627.5388 8.4275,632.4859 8.3854,637.0113 7.961,640.9224 7.1342,645.3181 6.7177,647.5464 A2.1073,2.1073 0 0 1 2.5423,646.9736 T2.7413,644.7154 3.0824,640.5978 3.2175,636.9967 3.196,632.4641 3.1917,627.5025 3.2222,622.2371 3.2893,616.9333 3.4272,611.5288 3.6873,605.9898 4.1673,600.3686 4.5561,594.8691 4.7876,589.4041 5.2078,583.9721 5.4745,578.3827 5.4651,572.6853 5.4366,568.1083 5.3804,563.5712 5.2738,558.6174 5.0617,553.8528 4.638,548.7236 4.3559,543.7142 4.3526,539.1127 4.3481,534.5421 4.3413,530.0253 4.3313,525.6094 4.3154,521.3848 4.294,516.4877 4.262,511.3631 4.2013,506.8228 4.0888,502.3868 3.876,498.0895 3.4531,493.7782 3.1704,489.2793 3.1706,484.6634 3.1708,480.0667 3.1713,475.4997 3.1719,470.9895 3.173,466.5909 3.1748,462.4005 3.1779,458.0837 3.1835,453.5324 3.1937,449.0498 3.2122,444.7023 3.2465,440.6085 3.3107,436.4898 3.4336,432.2948 3.6611,428.0047 4.0694,423.7982 4.3266,419.4089 4.3167,415.4829 4.3091,411.6665 4.3032,407.5436 4.2956,403.3598 4.291,399.5766 4.29,396.0327 4.2884,391.9065 4.2864,387.7163 4.2836,383.4003 4.2799,378.8456 4.2757,374.879 4.2705,370.9919 4.2687,366.2142 4.2662,361.304 4.258,357.1833 4.2524,353.0038 4.2499,348.7126 4.2468,344.7254 4.2422,340.2784 4.2358,335.4797 4.2269,330.009 4.2139,323.7837 4.2035,318.7249 4.1974,314.8385 4.19,311.1035 4.1781,306.6144 4.1676,302.2519 4.1603,298.1339 4.151,293.9595 4.1352,288.1447 4.1177,281.7873 4.1085,276.9695 4.1009,271.9841 4.0907,267.7198 4.075,263.7817 4.0533,258.9072 4.0202,253.308 3.9579,248.3823 3.8423,243.7264 3.6283,239.0117 3.2057,233.9429 2.9227,228.5338 2.915,223.7231 2.8887,219.2643 2.8366,214.4504 2.7277,209.4519 2.5172,204.1507 2.0996,198.4984 1.8196,193.4504 1.8233,188.8488 1.8279,183.7541 1.8336,178.2432 1.8322,173.5033 1.8186,169.1809 1.7916,164.1065 1.7369,159.1433 1.6251,154.4134 1.4132,149.6239 0.9854,145.3613 0.6881,141.4125 0.6695,137.3882 0.6355,133.3848 0.5732,129.4395 0.4574,125.5743 0.2556,121.934 -0.164,118.2166 -0.4556,114.1988 -0.452,110.1644 -0.4467,106.1563 -0.4404,102.1904 -0.4374,98.2999 -0.4327,94.032 -0.4206,89.573 -0.4023,84.2309 -0.3768,78.7702 -0.3543,74.6463 -0.3337,70.9765 -0.311,67.1275 -0.2835,62.9428 -0.252,58.6416 -0.2234,54.6355 -0.1909,50.67 -0.1393,45.7434 -0.0692,40.0303 0.0059,35.4337 0.1113,30.8679 0.4172,24.3485 0.8407,17.6848 0.717,11.6917 0.053,6.5684 -1.1161,2.742 -1.9287,0.8252 A2.0978,2.0978 0 0 1 1.9287,-0.8252 Z" stroke-linecap="round" fill="#9398b0"/></g></g><g transform="matrix(1, 0, 0, 1, 2121.1476, 23722.0012) scale(1.15788842338003, 1.15788842338003)" opacity="1"><g transform="scale(0.8636410726699101)"><path d="M0,-2.2507 T1.918,-2.2309 6.3435,-2.2122 12.4522,-1.974 18.0208,-1.6226 22.0077,-1.1666 25.7468,-0.6732 29.3721,-0.1519 33.1792,0.3789 37.3446,0.911 41.483,1.4588 45.3429,2.0197 49.2694,2.5709 53.0708,2.8268 56.9972,2.9586 61.2518,3.018 65.4161,3.0444 69.2531,3.0553 74.8184,3.0569 80.2155,3.0574 84.1696,3.0605 88.7176,3.0584 93.0325,3.0528 97.2245,3.0485 101.3493,3.0452 105.4411,3.0387 109.7898,3.0296 115.8515,3.0206 121.7847,3.0101 126.3446,2.9993 131.7583,2.9902 136.8013,2.9839 141.6513,2.9746 146.3972,2.9639 151.0883,2.9515 155.7513,2.9383 160.5447,3.2058 165.2912,3.6139 169.822,3.8171 174.379,3.9179 178.7103,3.9659 182.9041,3.9882 187.1518,3.7311 191.5505,3.3188 196.2318,3.091 200.909,2.9699 205.402,2.6413 209.9392,2.193 214.9613,1.9457 220.0941,1.8151 224.2407,1.4828 228.6273,1.0247 233.3101,0.7674 237.7929,0.3751 242.9145,-0.1041 247.9608,-0.3658 252.0618,-0.7575 256.7204,-1.2424 262.376,-1.5133 267.5215,-1.6506 271.6878,-1.9868 276.0852,-2.4465 281.1907,-2.9683 286.3221,-3.5125 291.3548,-3.8014 295.937,-3.947 300.5433,-4.0203 305.1683,-4.0569 310.0661,-4.0748 315.1136,-4.083 319.1409,-4.0869 323.1815,-4.0921 327.9044,-4.3666 332.5545,-4.7869 337.6328,-5.0227 343.348,-5.1535 348.0753,-5.4858 353.055,-5.9442 358.0347,-6.1975 362.0055,-6.3266 366.0345,-6.3956 370.6259,-6.4288 374.9606,-6.4458 379.7089,-6.4545 385.2231,-6.4587 390.3173,-6.4563 395.3144,-6.7207 399.837,-7.1378 404.0205,-7.3669 408.1679,-7.488 412.2684,-7.5509 416.6258,-7.5841 421.5465,-7.3235 426.0834,-6.9167 429.9486,-6.7128 434.1473,-6.607 439.1012,-6.5559 443.9056,-6.5342 447.8102,-6.5237 452.0551,-6.5201 456.4844,-6.5197 460.737,-6.5203 465.7143,-6.5172 470.5263,-6.5113 474.8129,-6.755 478.9626,-7.1363 483.5266,-7.2995 488.414,-7.2782 492.6067,-7.6346 497.1303,-8.5682 499.667,-9.0965 A2.2141,2.2141 0 0 1 500.753,-4.8035 T498.2701,-4.0621 493.2688,-2.5862 488.563,-1.7226 483.8441,-1.4688 479.5321,-1.1906 475.1505,-0.7345 470.5276,-0.4302 465.7126,-0.4257 460.7335,-0.4251 456.4781,-0.4306 452.0419,-0.4395 447.7846,-0.4534 443.8669,-0.4762 439.025,-0.5178 433.986,-0.5867 429.6161,-0.7086 425.5424,-0.9368 421.2438,-1.3498 416.6688,-1.6038 412.3602,-1.5722 408.337,-1.5123 404.348,-1.4003 400.3627,-1.187 395.6224,-0.7649 390.322,-0.4777 385.2285,-0.47 379.7225,-0.4641 374.9852,-0.4536 370.6727,-0.4342 366.1349,-0.3984 362.1935,-0.3363 358.3188,-0.2168 353.6083,0.0018 348.5118,0.4388 343.4713,0.7733 337.9218,0.8757 333.0596,1.0824 328.1996,1.5017 323.1877,1.7793 319.1498,1.7806 315.1269,1.789 310.0957,1.8042 305.221,1.8307 300.6546,1.8783 296.1312,1.9647 291.7094,2.1223 286.9359,2.4086 281.7707,2.9559 276.6906,3.4641 272.1538,3.9177 267.6782,4.2735 262.6634,4.408 257.3505,4.653 252.6217,5.147 248.262,5.5715 243.4918,5.8175 238.3064,6.3017 233.6247,6.7053 229.2289,6.9263 224.6995,7.3755 220.2391,7.7237 215.2774,7.8434 210.4974,8.0709 205.7869,8.5237 201.0523,8.8638 196.5309,8.9704 192.0688,9.1747 187.4377,9.5823 182.8622,9.8398 178.6249,9.7974 174.2369,9.7228 169.5275,9.591 164.7864,9.3526 160.2504,8.9228 155.7498,8.6417 151.0883,8.6285 146.3972,8.6161 141.6513,8.6054 136.8013,8.5961 131.7583,8.5898 126.3446,8.5807 121.7847,8.5699 115.8515,8.5594 109.7897,8.5503 105.441,8.5411 101.3491,8.5345 97.2241,8.5309 93.0319,8.5261 88.7164,8.5195 84.1669,8.5155 80.2107,8.5149 74.8037,8.5 69.2203,8.4723 65.3595,8.4361 61.1458,8.3733 56.7818,8.2632 52.6745,8.0735 48.5014,7.7194 44.5663,7.1131 40.7876,6.5187 36.6692,5.9154 32.4371,5.3044 28.6208,4.7073 25.0594,4.1204 21.3995,3.5434 17.5754,3.0091 12.1766,2.5227 6.3435,2.2122 1.918,2.2309 0,2.2507 A2.2507,2.2507 0 0 1 0,-2.2507 Z" stroke-linecap="round" fill="#9398b0"/></g></g><g transform="matrix(1, 0, 0, 1, 2361.9884, 23722.0012) scale(1.15788842338003, 1.15788842338003)" opacity="0.25"><g transform="scale(0.8636410726699101)"><path d="M-0.4583,-2.2876 T0.9112,-2.5626 5.0009,-3.3329 9.272,-4.2793 12.9826,-5.7048 17.5532,-8.0678 22.0619,-10.7345 25.9649,-13.4327 29.0278,-15.8938 31.7271,-18.276 34.5974,-20.7044 37.3836,-23.2777 40.4534,-26.2672 44.9252,-30.3775 48.8442,-34.1152 51.6963,-36.9368 55.19,-40.1454 60.1193,-44.7341 64.4619,-49.189 67.7731,-52.7659 71.1533,-56.5618 74.527,-60.7089 77.9399,-65.0729 81.3866,-69.5729 84.8398,-74.1324 88.3017,-78.7289 91.769,-83.3415 94.9109,-87.891 98.2234,-92.7706 101.5797,-98.0378 104.6835,-103.2338 107.463,-107.7022 110.5722,-112.5411 114.049,-118.535 117.2279,-124.4062 120.2772,-130.2474 123.2204,-136.2756 126.1496,-142.4763 129.0893,-148.5279 132.004,-154.4504 134.8867,-160.5325 137.2051,-165.8743 139.8237,-171.7619 142.8383,-178.677 145.5089,-185.0307 148.304,-191.4394 151.1501,-197.8377 153.7173,-204.1374 156.1621,-210.4481 158.5637,-216.5521 160.9115,-222.7392 163.2465,-229.0149 165.5673,-235.3338 167.5926,-241.1055 169.7307,-247.6697 171.9185,-255.4395 173.8982,-262.5979 175.755,-269.3804 177.5384,-276.2081 179.3033,-282.8461 180.7525,-288.9809 182.0808,-294.4786 183.6107,-300.4286 184.9283,-306.7008 186.1732,-313.2886 187.4194,-318.8229 188.638,-323.4143 189.8192,-328.4367 190.7207,-333.166 191.5054,-337.1297 192.521,-341.0023 193.3239,-344.7398 193.7621,-348.4321 194.362,-351.9896 195.2302,-356.4898 195.6761,-359.2619 A2.3447,2.3447 0 0 1 200.3239,-358.6381 T200.1573,-357.1104 199.554,-352.7279 199.0155,-347.8943 198.6436,-343.6672 197.9095,-339.6473 197.0497,-336.0791 196.349,-332.1614 195.4642,-327.1231 194.2969,-321.9224 193.1413,-317.5086 191.9648,-312.193 190.6949,-305.4719 189.3137,-298.9567 187.7959,-293.109 186.4647,-287.6547 184.9494,-281.3277 183.1625,-274.7126 181.3207,-267.8176 179.422,-261.0275 177.3988,-253.8663 175.1055,-245.8985 172.8962,-239.2314 170.8276,-233.4042 168.4946,-227.066 166.1544,-220.7591 163.7865,-214.4958 161.4043,-208.4095 158.9274,-201.982 156.3111,-195.5361 153.486,-189.1839 150.7164,-182.8327 148.0155,-176.4086 144.9931,-169.4708 142.3941,-163.621 140.0086,-158.1255 137.089,-151.9545 134.1904,-146.052 131.2869,-140.0586 128.3251,-133.7969 125.2867,-127.6118 122.1823,-121.7125 118.8813,-115.6903 115.2587,-109.5094 112.1757,-104.7631 109.4343,-100.3957 106.2176,-95.054 102.777,-89.6782 99.4304,-84.7557 96.1739,-80.0576 92.6969,-75.4427 89.2197,-70.8409 85.7344,-66.2575 82.2441,-61.7287 78.7317,-57.2714 75.2021,-52.9909 71.7211,-49.1153 68.2507,-45.4143 64.9177,-42.1467 61.7025,-39.0366 58.7402,-36.2458 55.368,-33.1906 52.4708,-30.3643 48.4154,-26.5536 43.9932,-22.5695 39.5086,-18.5922 35.0022,-14.5029 32.1182,-12.0105 28.7422,-9.3774 24.5827,-6.5649 19.947,-3.8888 14.7693,-1.3213 10.459,0.2881 5.9973,1.2453 1.8274,2.0139 0.4583,2.2876 A2.3331,2.3331 0 0 1 -0.4583,-2.2876 Z" stroke-linecap="round" fill="#4dabf7"/></g></g><g transform="matrix(1, 0, 0, 1, 2368.9357, 23722.0012) scale(1.15788842338003, 1.15788842338003)" opacity="0.25"><g transform="scale(0.8636410726699101)"><path d="M0,3.2588 T-1.6437,3.2645 -4.9742,3.2782 -8.3707,3.2929 -12.8411,2.9954 -18.2529,2.192 -23.4497,0.6719 -27.5494,-1.2134 -31.2593,-3.4294 -35.4326,-6.3752 -39.6915,-10.0803 -44.1357,-14.7544 -47.3656,-18.6943 -49.9266,-21.7471 -52.6435,-24.9802 -55.5003,-28.6655 -58.5832,-32.4312 -61.8643,-36.3372 -65.2385,-40.308 -68.7419,-44.9615 -72.5533,-50.4738 -75.8359,-54.8912 -78.9817,-59.1902 -82.8748,-64.7803 -86.784,-70.0936 -90.8026,-75.6779 -95.1484,-81.9344 -99.0913,-87.6784 -102.3518,-93.0079 -105.7147,-98.8009 -109.6524,-105.3334 -113.4229,-111.8434 -117.0924,-118.5949 -120.6587,-125.1168 -124.1964,-131.5596 -127.7377,-138.2802 -131.2561,-145.1013 -134.7438,-151.6566 -138.0015,-158.2099 -141.1364,-165.2996 -144.1614,-172.5914 -147.1165,-179.6793 -150.0691,-187.0054 -152.7721,-194.8231 -155.5172,-202.3804 -158.3404,-209.9209 -160.9587,-217.5458 -163.6759,-225.0342 -166.4935,-232.8432 -168.8519,-240.677 -170.9213,-248.3615 -173.0929,-256.1747 -175.0793,-263.9287 -176.9504,-271.571 -179.0059,-279.0556 -180.9351,-286.3652 -182.7879,-293.7999 -184.5908,-301.5752 -186.3619,-309.2056 -188.1155,-316.4893 -189.6098,-323.7245 -191.1752,-330.4111 -192.793,-336.3424 -194.2071,-342.058 -195.2334,-347.6964 -196.0139,-352.8315 -196.9077,-357.2712 -197.885,-361.2154 -198.6752,-365.1268 -199.5283,-370.008 -200.3033,-374.3836 -200.5111,-375.8917 A2.5457,2.5457 0 0 1 -195.4889,-376.7283 T-194.9599,-374.0371 -193.9341,-369.6766 -193.1481,-366.3357 -192.272,-362.6831 -191.1284,-358.5122 -190.0711,-353.7912 -189.2224,-348.8136 -188.1986,-343.5738 -186.7638,-338.0002 -185.0578,-331.8619 -183.4307,-324.9985 -181.9816,-317.9566 -180.2323,-310.6247 -178.4797,-302.9883 -176.7109,-295.3023 -174.9008,-287.9477 -173.0027,-280.7018 -170.9104,-273.0427 -169.0665,-265.4572 -167.1268,-257.8238 -164.9631,-249.9557 -162.9617,-242.4335 -160.719,-234.9199 -157.9203,-227.1146 -155.177,-219.5234 -152.6307,-212.0511 -149.8093,-204.452 -147.0405,-196.7893 -144.4773,-189.2434 -141.5927,-181.9656 -138.6683,-174.8499 -135.7333,-167.6658 -132.7558,-160.7947 -129.6117,-154.3648 -126.1394,-147.7186 -122.6889,-140.9151 -119.2444,-134.2491 -115.764,-127.7662 -112.2513,-121.1959 -108.7169,-114.539 -105.0556,-108.0728 -101.1292,-101.4082 -97.8807,-95.6761 -94.8338,-90.5708 -90.9638,-84.8257 -86.7221,-78.6335 -82.757,-73.0627 -78.7867,-67.6023 -75.0071,-62.1013 -71.905,-57.8212 -68.5287,-53.2385 -64.9013,-47.9107 -61.5594,-43.4292 -58.1824,-39.4184 -54.8905,-35.4492 -51.7389,-31.5503 -49.0033,-27.9707 -45.441,-23.4824 -41.6032,-18.9144 -38.4458,-15.3545 -34.6586,-11.4807 -30.795,-8.4298 -26.5831,-5.7402 -22.0215,-3.3757 -17.1345,-1.9596 -12.2955,-1.224 -8.3707,-0.9729 -4.9742,-0.9582 -1.6437,-0.9445 0,-0.9388 A2.0988,2.0988 0 0 1 0,3.2588 Z" stroke-linecap="round" fill="#4dabf7"/></g></g><g transform="matrix(1, 0, 0, 1, 2610.9344, 23349.1611) scale(1.15788842338003, 1.15788842338003)" opacity="1"><g transform="scale(0.8636410726699101)"><path d="M-2.1767,0.2727 T-2.4433,-1.9174 -3.1038,-5.6847 -4.5135,-8.8252 -6.2473,-10.5828 -6.9652,-10.7771 A2.1854,2.1854 0 0 1 -5.2899,-14.8141 T-3.869,-14.1208 -0.8617,-10.8684 1.1686,-6.4809 1.8946,-2.4626 2.1767,-0.2727 A2.1938,2.1938 0 0 1 -2.1767,0.2727 ZM-4.2214,-11.7268 T-4.6804,-10.9047 -5.3845,-8.251 -5.7184,-4.401 -5.1885,-0.0682 -3.5834,4.5447 -1.772,8.5331 -0.198,12.0094 1.5975,16.2597 3.3788,21.0234 4.2641,24.9496 4.2026,28.2117 3.2266,31.4628 1.1401,34.9746 -2.8434,38.3702 -8.5118,39.9195 -13.8006,39.0015 -17.5896,35.8069 -19.7429,32.43 -20.3885,31.2797 A2.196,2.196 0 0 1 -16.6715,28.9403 T-15.2988,30.8825 -12.3616,33.8679 -8.7733,34.9345 -4.8654,33.7031 -1.8628,30.7378 -0.6424,26.6056 -1.1941,22.1164 -2.7816,17.7989 -4.387,13.8722 -6.4308,9.2022 -8.7581,3.482 -9.9416,-2.0153 -9.9465,-6.9051 -9.357,-10.594 -8.5124,-13.0141 -8.0338,-13.8644 A2.1854,2.1854 0 0 1 -4.2214,-11.7268 Z" stroke-linecap="round" fill="#4dabf7"/></g></g><g transform="matrix(1, 0, 0, 1, 2617.8817, 23361.8979) scale(1.15788842338003, 1.15788842338003)" opacity="1"><g transform="scale(0.8636410726699101)"><path d="M0.6676,0.6769 T-2.3288,1.8177 -7.742,3.8135 -12.8421,5.6175 -15.5255,6.5665 A2.0539,2.0539 0 0 1 -16.8945,2.6935 T-14.2109,1.7453 -9.1271,-0.0507 -3.6972,-1.9477 -0.6676,-2.9969 A1.9545,1.9545 0 0 1 0.6676,0.6769 Z" stroke-linecap="round" fill="#4dabf7"/></g></g><g transform="matrix(1, 0, 0, 1, 2635.25, 23328.3191) scale(1.15788842338003, 1.15788842338003)" opacity="1"><g transform="scale(0.8636410726699101)"><path d="M2.0687,1.0328 T1.2382,2.6716 -0.5678,6.2734 -2.7864,12.1519 -4.4149,17.8193 -4.9653,23.0917 -5.2212,29.0995 -5.0804,33.5412 -4.0546,37.835 -1.6621,40.8467 1.117,41.5575 2.2979,41.5963 A2.4038,2.4038 0 0 1 2.3421,46.4037 T-0.4363,46.395 -4.6342,45.5818 -7.6077,42.0135 -9.5766,37.6322 -10.1819,33.6832 -10.2228,28.8303 -9.7821,22.3982 -9.0109,16.5322 -7.6845,12.113 -6.2511,7.9163 -4.6771,4.2237 -2.8795,0.6157 -2.0687,-1.0328 A2.3122,2.3122 0 0 1 2.0687,1.0328 Z" stroke-linecap="round" fill="#4dabf7"/></g></g><g transform="matrix(1, 0, 0, 1, 2653.7762, 23339.898) scale(1.15788842338003, 1.15788842338003)" opacity="1"><g transform="scale(0.8636410726699101)"><path d="M1.8058,0.4524 T1.549,1.5525 0.3691,5.0797 -1.3738,9.2372 -2.903,12.4243 -4.6861,15.1192 -6.7933,17.4978 -7.8267,18.6384 A1.9139,1.9139 0 0 1 -10.6933,16.1016 T-9.6869,14.9372 -7.2321,11.5144 -4.9869,7.5952 -3.2898,3.831 -2.0977,0.6375 -1.8058,-0.4524 A1.8616,1.8616 0 0 1 1.8058,0.4524 Z" stroke-linecap="round" fill="#4dabf7"/></g></g><g transform="matrix(1, 0, 0, 1, 2641.0395, 23342.2138) scale(1.15788842338003, 1.15788842338003)" opacity="1"><g transform="scale(0.8636410726699101)"><path d="M2.4107,-1.6688 T3.4981,-0.838 6.6051,2.0643 10.063,6.4321 12.4879,10.2152 15.3952,14.0354 18.6809,17.9249 20.0457,19.4811 A2.0357,2.0357 0 0 1 17.0143,22.1989 T15.6158,20.6729 12.0753,16.579 8.9574,12.4881 6.7213,8.8607 3.7877,5.023 1.0118,2.4793 -0.0907,1.6688 A2.0854,2.0854 0 0 1 2.4107,-1.6688 Z" stroke-linecap="round" fill="#4dabf7"/></g></g><g transform="matrix(1, 0, 0, 1, 2653.7762, 23323.6876) scale(1.15788842338003, 1.15788842338003)" opacity="1"><g transform="scale(0.8636410726699101)"><path d="M1.4269,-1.1887 T2.7701,0.4791 5.1861,3.9533 7.3884,8.0785 9.373,12.1225 11.0114,15.9401 12.7453,20.1114 14.5557,24.7815 15.8943,29.6186 16.8958,34.045 17.7238,38.0186 18.1922,41.6269 18.1418,45.2043 17.0879,48.4383 15.495,51.0573 14.7425,52.2043 A2.363,2.363 0 0 1 10.7375,49.6957 T11.441,48.5181 12.804,45.5701 13.3567,42.1608 13.0433,38.874 12.3878,34.9606 11.6155,30.6591 10.6294,26.2045 9.0696,21.5547 7.523,17.3933 6.0508,13.7106 4.2152,9.7603 2.2832,5.9952 -0.0314,2.8082 -1.4269,1.1887 A1.8572,1.8572 0 0 1 1.4269,-1.1887 Z" stroke-linecap="round" fill="#4dabf7"/></g></g><g transform="matrix(1, 0, 0, 1, 2683.8813, 23334.1085) scale(1.15788842338003, 1.15788842338003)" opacity="1"><g transform="scale(0.8636410726699101)"><path d="M-0.886,-2.2111 T0.4649,-2.8021 3.2047,-4.4721 5.5148,-6.4628 6.4359,-7.3746 A2.3051,2.3051 0 0 1 9.7841,-4.2054 T8.9243,-3.2356 5.8631,-0.5337 2.2738,1.7047 0.886,2.2111 A2.382,2.382 0 0 1 -0.886,-2.2111 Z" stroke-linecap="round" fill="#4dabf7"/></g></g><g transform="matrix(1, 0, 0, 1, 2685.0392, 23343.3717) scale(1.15788842338003, 1.15788842338003)" opacity="1"><g transform="scale(0.8636410726699101)"><path d="M-0.5425,-1.8965 T1.3773,-2.4389 5.4356,-3.5872 7.5742,-4.1931 A1.9482,1.9482 0 0 1 8.6458,-0.4469 T6.5104,0.1699 2.4588,1.3416 0.5425,1.8965 A1.9726,1.9726 0 0 1 -0.5425,-1.8965 Z" stroke-linecap="round" fill="#4dabf7"/></g></g><g transform="matrix(1, 0, 0, 1, 2724.4074, 23316.7402) scale(1.15788842338003, 1.15788842338003)" opacity="1"><g transform="scale(0.8636410726699101)"><path d="M2.061,-0.2582 T2.349,1.948 2.2377,6.4587 1.3689,10.9292 0.0955,15.691 -1.4316,19.9889 -2.7904,23.2982 -4.0763,26.3728 -5.8014,29.0954 -7.8827,31.4563 -8.8893,32.5622 A2.0097,2.0097 0 0 1 -11.9507,29.9578 T-11.0204,28.787 -8.8516,25.4502 -6.9646,21.5747 -5.6444,18.3884 -4.17,14.5163 -2.8626,10.0132 -1.9486,6.2556 -1.8003,2.4319 -2.061,0.2582 A2.0772,2.0772 0 0 1 2.061,-0.2582 Z" stroke-linecap="round" fill="#4dabf7"/></g></g><g transform="matrix(1, 0, 0, 1, 2711.6707, 23328.3191) scale(1.15788842338003, 1.15788842338003)" opacity="1"><g transform="scale(0.8636410726699101)"><path d="M0.8404,-1.4023 T2.1929,-0.5534 5.1088,1.2888 7.8974,3.4335 11.3709,6.3327 15.1081,8.7867 18.47,10.4095 20.3434,11.3262 A1.5617,1.5617 0 0 1 19.0166,14.1538 T17.1143,13.2989 12.2311,10.5892 7.1122,6.8297 3.4531,3.9562 0.5458,2.1948 -0.8404,1.4023 A1.6348,1.6348 0 0 1 0.8404,-1.4023 Z" stroke-linecap="round" fill="#4dabf7"/></g></g><g transform="matrix(1, 0, 0, 1, 2720.9338, 23294.7403) scale(1.15788842338003, 1.15788842338003)" opacity="1"><g transform="scale(0.8636410726699101)"><path d="M-1.8613,-1.4884 T-0.7304,-2.8327 1.668,-5.31 5.4084,-7.7332 10.7207,-8.3841 14.6452,-5.684 15.6077,-1.5883 14.4846,2.3497 12.4766,6.5073 11.241,9.532 11.0131,10.3019 A2.372,2.372 0 0 1 6.497,8.8488 T7.3823,6.657 9.2634,2.4997 10.5205,-1.6945 9.07,-3.8725 5.6688,-2.5611 2.9204,0.0941 1.8613,1.4884 A2.3832,2.3832 0 0 1 -1.8613,-1.4884 ZM10.8543,8.4709 T11.2437,9.1795 13.3582,9.5293 16.9744,8.8418 20.0787,8.1726 21.2919,7.8319 A2.6832,2.6832 0 0 1 22.7081,13.0081 T21.4905,13.3325 17.9248,14.0168 13.5963,14.5427 9.5339,13.4826 7.0539,11.468 6.6558,10.6797 A2.372,2.372 0 0 1 10.8543,8.4709 Z" stroke-linecap="round" fill="#4dabf7"/></g></g><g transform="matrix(1, 0, 0, 1, 2371.9927, 23719.8385) scale(0.9395537136368082, 0.9395537136368082)" opacity="1"><g transform="scale(1.0643351045138414)"><path d="M-1.1502,-1.1502 T-0.2727,-2.0512 1.5298,-4.0884 3.3129,-6.4688 4.6708,-8.515 5.1704,-9.3171 A1.6497,1.6497 0 0 1 7.9896,-7.6029 T7.5074,-6.7903 6.1739,-4.7096 4.1373,-2.0233 2.0512,0.2727 1.1502,1.1502 A1.6267,1.6267 0 0 1 -1.1502,-1.1502 Z" stroke-linecap="round" fill="#e599f7"/></g></g><g transform="matrix(1, 0, 0, 1, 2369.174, 23722.6572) scale(0.9395537136368082, 0.9395537136368082)" opacity="0.25"><g transform="scale(1.0643351045138414)"><path d="M-1.5525,-1.1644 T-0.8797,-2.0493 0.8599,-4.3766 2.9004,-7.2346 5.1059,-10.4886 7.4069,-13.7727 9.4802,-16.8086 11.369,-19.9768 13.179,-23.3568 15.0921,-26.8998 16.9618,-30.2577 18.377,-33.5967 20.0495,-37.7123 22.1946,-42.1687 24.0555,-46.4282 25.4222,-49.9532 26.7013,-52.7783 28.4545,-56.8887 29.9859,-60.9288 31.3193,-63.9003 32.6667,-66.9746 34.0399,-70.1439 36.1251,-74.6659 38.0622,-79.1579 39.2837,-82.4557 40.6194,-86.0354 42.0276,-89.3531 43.3986,-92.791 44.9901,-97.0211 46.4855,-101.2362 47.9528,-105.2757 49.3766,-109.3686 50.7887,-113.524 52.4719,-117.6275 53.9764,-121.6548 55.4331,-125.7777 56.9108,-129.4078 58.2977,-133.4034 59.8955,-138.3745 61.6563,-143.3223 63.4566,-148.3477 65.0561,-152.97 66.5466,-157.7964 68.214,-163.4509 69.7467,-168.8725 71.2209,-173.9825 72.676,-178.5141 74.0782,-183.2656 75.6995,-188.8856 77.2031,-194.4846 78.6546,-200.1035 80.0835,-205.7318 81.4947,-211.5664 82.9047,-217.5307 84.3151,-223.3623 85.7151,-229.3065 86.889,-234.6381 87.9506,-239.4604 89.1642,-245.3038 90.7096,-251.8085 92.1797,-257.8712 93.1474,-262.9294 94.106,-268.3049 95.2953,-273.9195 96.3465,-279.4451 97.3408,-285.0141 98.3049,-290.832 99.0106,-296.8791 99.6014,-302.9854 100.3617,-308.9877 100.9685,-314.0751 101.4972,-319.3843 102.221,-325.8013 102.8089,-332.6437 103.1088,-338.8591 103.4896,-344.8934 103.9101,-350.0934 104.348,-355.267 104.7903,-360.867 105.0068,-366.1696 105.3531,-371.3139 105.7614,-375.3927 106.1973,-379.5142 106.6518,-383.6903 106.893,-387.7628 107.0361,-392.0991 107.1257,-395.7404 107.1964,-398.988 107.3262,-403.1421 107.4826,-407.2279 107.5441,-408.716 A2.3859,2.3859 0 0 1 112.3159,-408.704 T112.3699,-407.2157 112.4995,-403.1153 112.5858,-398.9309 112.5867,-395.6435 112.5439,-391.9464 112.4357,-387.42 112.2001,-383.1032 111.7499,-378.9443 111.3126,-374.8431 110.9077,-370.9121 110.5547,-365.9197 110.2879,-360.4242 109.8131,-354.8062 109.3545,-349.652 108.9175,-344.5353 108.5149,-338.5864 108.1718,-332.1784 107.5397,-325.1827 106.7922,-318.8404 106.2164,-313.4282 105.5709,-308.2867 104.7988,-302.4723 104.1691,-296.2804 103.4026,-289.9499 102.4168,-284.0837 101.3986,-278.4495 100.3181,-272.8319 99.15,-267.417 98.1663,-261.9878 97.1358,-256.668 95.658,-250.6223 94.1317,-244.2661 92.8823,-238.3607 91.8013,-233.5355 90.597,-228.1448 89.1718,-222.1799 87.7522,-216.3816 86.3232,-210.3928 84.8785,-204.5049 83.4191,-198.8572 81.9211,-193.2038 80.3589,-187.5282 78.6937,-181.8698 77.2345,-177.0315 75.791,-172.6465 74.2962,-167.5776 72.717,-162.1121 71.0016,-156.3887 69.4477,-151.4365 67.8017,-146.7751 65.9744,-141.7686 64.2265,-136.9612 62.541,-131.858 61.0726,-127.6963 59.6633,-124.2753 58.1727,-120.0808 56.6158,-115.9187 55.021,-112.0756 53.5878,-107.8925 52.1343,-103.747 50.6641,-99.747 49.1167,-95.4563 47.4651,-91.1394 46.0571,-87.6309 44.7231,-84.508 43.3863,-80.9283 42.0678,-77.3905 40.0637,-72.7576 38.0449,-68.4016 36.658,-65.2123 35.299,-62.1178 34.0282,-59.2897 32.8394,-56.3732 31.7727,-53.6153 30.6339,-50.9953 29.3956,-48.3037 27.9655,-44.7113 25.9104,-40.2076 23.7339,-35.8693 22.0692,-31.921 20.4025,-28.217 18.5096,-24.9031 16.6531,-21.5181 14.6685,-17.9092 12.6727,-14.6259 10.5288,-11.5441 8.2408,-8.3123 6.1292,-5.191 4.0047,-2.1797 2.2135,0.2708 1.5525,1.1644 A1.9406,1.9406 0 0 1 -1.5525,-1.1644 Z" stroke-linecap="round" fill="#e599f7"/></g></g><g transform="matrix(1, 0, 0, 1, 2372.9322, 23717.0199) scale(0.9395537136368082, 0.9395537136368082)" opacity="0.25"><g transform="scale(1.0643351045138414)"><path d="M1.7497,1.3123 T1.07,2.192 -0.7719,4.4058 -3.0892,7.0137 -5.8059,9.1195 -9.0924,9.9246 -12.5937,9.0005 -15.4321,6.8303 -17.2483,4.3683 -19.3381,1.4255 -21.2802,-1.77 -22.582,-4.7742 -23.83,-7.719 -25.2781,-11.0355 -26.7154,-14.402 -27.7904,-17.8073 -28.8239,-21.6541 -29.8122,-25.495 -30.7995,-29.5266 -31.9378,-33.4558 -33.1322,-37.3059 -34.2181,-41.3971 -35.561,-45.674 -36.83,-49.2107 -37.8928,-52.7216 -39.1133,-56.5104 -41.0059,-60.9134 -42.7378,-65.1813 -43.8212,-68.4205 -45.1838,-71.634 -46.6136,-74.9918 -48.0372,-78.3131 -49.2564,-81.2309 -50.5876,-84.5692 -52.1388,-88.2029 -53.6396,-91.7099 -55.1243,-95.395 -57.3167,-100.6049 -59.5907,-106.0046 -61.1765,-110.0213 -62.4831,-113.537 -63.8493,-117.3909 -65.451,-121.7972 -66.8086,-126.2961 -67.9771,-130.6747 -69.2294,-134.8381 -70.5753,-139.2899 -71.7597,-143.7395 -72.8251,-148.0874 -73.8461,-152.8859 -74.8282,-157.855 -75.9724,-162.536 -77.2488,-167.4778 -78.3984,-172.6559 -79.6397,-177.7019 -80.9678,-183.0552 -82.1355,-188.4171 -83.3882,-193.5649 -84.722,-198.9689 -85.8925,-204.357 -86.9558,-209.6421 -87.973,-215.3592 -89.1533,-221.1442 -90.4403,-226.8389 -91.5944,-232.8611 -92.6511,-238.9229 -93.6501,-244.7648 -94.6253,-250.7523 -95.5778,-256.7965 -96.5145,-262.8716 -97.2401,-269.0796 -97.8383,-274.9988 -98.5816,-280.9065 -99.4149,-286.9104 -100.2913,-292.7273 -101.1958,-298.4576 -101.9118,-304.2617 -102.5124,-309.9878 -103.2588,-315.5538 -103.8871,-321.2731 -104.4467,-326.7131 -105.184,-331.9019 -106.0276,-337.3183 -106.7154,-342.7287 -107.3041,-348.0194 -108.0443,-353.1188 -108.8799,-358.2542 -109.7655,-363.6468 -110.6649,-368.6619 -111.5753,-373.2832 -112.2924,-378.1135 -112.8774,-382.634 -113.5924,-386.6182 -114.2112,-390.6598 -114.7615,-394.5653 -115.2706,-398.406 -115.7523,-401.9527 -116.2243,-405.1427 -116.4943,-408.3621 -116.9749,-412.7341 -117.6564,-417.6186 -118.1841,-421.921 -118.7637,-425.7879 -119.1055,-427.4184 A3.0073,3.0073 0 0 1 -113.3529,-429.1739 T-112.8736,-426.8896 -112.2111,-422.8627 -111.7211,-419.7844 -111.2081,-416.0027 -110.7041,-411.922 -110.3199,-408.8802 -110.0822,-406.0523 -109.5907,-402.8205 -109.0878,-399.2346 -108.5724,-395.447 -108.0222,-391.6267 -107.3965,-387.7579 -106.5937,-383.4814 -105.986,-379.0672 -105.2836,-374.5278 -104.344,-369.8068 -103.4204,-364.6874 -102.5342,-359.2775 -101.6951,-354.0299 -100.9448,-348.7079 -100.3926,-343.504 -99.7593,-338.2721 -98.9396,-332.766 -98.2082,-327.353 -97.6682,-321.9564 -97.0537,-316.3842 -96.2857,-310.6394 -95.6997,-305.0271 -95.0079,-299.4405 -94.0847,-293.6717 -93.1804,-287.7839 -92.3222,-281.7018 -91.543,-275.6439 -90.9398,-269.817 -90.2292,-263.8513 -89.2753,-257.7943 -88.3189,-251.7764 -87.3593,-245.8344 -86.3743,-240.0078 -85.3534,-234.0521 -84.2527,-228.2298 -82.9486,-222.4081 -81.7431,-216.4643 -80.7642,-210.8846 -79.7273,-205.6925 -78.5997,-200.4803 -77.2606,-195.0503 -75.9721,-189.7555 -74.8489,-184.5738 -73.5173,-179.2006 -72.2428,-174.0168 -71.1496,-169.0553 -69.8576,-164.0282 -68.6502,-159.0734 -67.6921,-154.1952 -66.719,-149.5796 -65.688,-145.3354 -64.5815,-141.0744 -63.2678,-136.5906 -62.0045,-132.2353 -60.9306,-128.0335 -59.7205,-123.8349 -58.1373,-119.3305 -56.8347,-115.5566 -55.6083,-112.1914 -54.0751,-108.2046 -52.4513,-104.1095 -50.8945,-100.6268 -49.6818,-97.5675 -48.2639,-93.9849 -46.7792,-90.4506 -44.857,-85.5302 -42.765,-80.5611 -41.3543,-77.2174 -39.9371,-73.834 -38.1065,-68.98 -36.4195,-64.2414 -35.1199,-61.3196 -33.877,-58.2392 -32.6791,-54.3378 -31.3189,-49.615 -29.7606,-44.5871 -28.5082,-40.4556 -27.4595,-36.7771 -26.506,-32.574 -25.6123,-28.4819 -24.7044,-24.6319 -23.8435,-20.7591 -22.9404,-17.5516 -21.5577,-14.1594 -20.2422,-10.7134 -18.9124,-7.3151 -17.3476,-3.7246 -15.5764,-0.7086 -13.7243,2.0842 -11.8728,4.5452 -8.8937,5.3674 -6.094,4.0153 -4.0928,1.7059 -2.4038,-0.4135 -1.7497,-1.3123 A2.1872,2.1872 0 0 1 1.7497,1.3123 ZM-113.2377,-427.9886 T-113.354,-426.9752 -113.1917,-424.3887 -112.8119,-420.9868 -112.5233,-417.6515 -112.1252,-413.7936 -111.3626,-409.1119 -110.3058,-404.337 -109.605,-400.3896 -108.9404,-396.7244 -108.3203,-392.1005 -108.1264,-387.3746 -108.0707,-383.0088 -107.8497,-378.6408 -107.4418,-373.8154 -107.2095,-369.8949 -106.8219,-366.2169 -106.3976,-362.4961 -105.952,-358.397 -105.1364,-353.2659 -104.6104,-349.4067 -104.1271,-345.2702 -103.6557,-341.0939 -103.192,-336.987 -102.3654,-331.8154 -101.8428,-327.8495 -101.3625,-323.9304 -100.5156,-318.8148 -99.5986,-313.413 -98.6627,-308.1955 -97.7182,-303.0152 -96.7748,-297.4894 -96.216,-293.2161 -95.7229,-288.7365 -95.0441,-284.3499 -94.5956,-281.3802 -93.9548,-276.9345 -93.19,-272.5308 -92.7104,-269.3493 -92.4325,-266.1754 -92.0834,-263.1112 -91.6752,-259.947 -91.2415,-256.9763 -90.7807,-253.8303 -90.3056,-250.357 -89.8353,-247.0013 -89.3644,-243.6812 -88.8904,-240.135 -88.4213,-236.7351 -87.9497,-233.3822 -87.4702,-229.8095 -86.8005,-226.5813 -86.1927,-223.1509 -85.6343,-219.532 -85.1188,-216.0944 -84.6254,-212.7307 -84.1393,-209.1594 -83.6635,-205.7486 -82.9965,-202.5666 -82.3916,-198.9114 -81.8542,-195.4628 -81.1555,-192.2578 -80.5345,-188.8317 -79.9782,-185.4773 -79.2699,-182.3441 -78.6399,-178.9553 -78.0766,-175.6129 -77.3601,-172.475 -76.7179,-168.8323 -76.1554,-165.394 -75.6352,-162.267 -74.7628,-157.9375 -73.8464,-153.65 -73.0868,-149.1899 -72.0914,-143.497 -70.9639,-138.0649 -70.0794,-133.8769 -69.167,-130.0302 -68.2357,-126.2179 -67.2943,-122.4487 -66.2244,-117.8029 -65.4099,-113.125 -64.5179,-108.6531 -63.5919,-104.377 -62.504,-100.3167 -61.3389,-96.2986 -60.1492,-92.221 -58.9826,-88.2171 -57.8468,-84.6972 -56.6637,-81.1611 -55.321,-77.459 -53.9253,-73.7215 -52.5864,-70.3234 -51.4599,-67.4313 -50.4169,-64.6484 -49.0097,-61.2557 -47.5721,-57.5493 -46.1662,-54.2011 -44.7564,-50.8985 -43.2204,-47.5245 -41.4764,-44.2743 -39.7697,-41.0272 -38.237,-37.6889 -36.2657,-34.2912 -34.1173,-30.9081 -31.9876,-28.0458 -29.774,-25.397 -27.8745,-23.0294 -25.8416,-20.894 -23.3168,-18.657 -20.8048,-16.4959 -18.3266,-14.5213 -15.922,-12.5753 -13.8331,-10.1222 -11.4774,-7.2846 -9.2415,-4.6241 -7.4576,-2.2076 -5.2434,-0.7121 -2.2546,-0.1484 -0.6514,0.0322 A2.8027,2.8027 0 0 1 -1.2286,5.6078 T-3.157,5.4228 -6.4553,4.7545 -9.9183,2.9102 -12.7472,0.3245 -14.8876,-2.3105 -17.2447,-4.7644 -19.1051,-6.9795 -21.1044,-9.0992 -23.9707,-11.3926 -27.131,-13.7904 -29.9512,-16.2741 -32.3591,-18.7878 -34.2627,-21.133 -36.1535,-23.3994 -38.1088,-25.5967 -40.0802,-28.5802 -42.1316,-31.9254 -44.0206,-35.2927 -45.4349,-38.4258 -47.0053,-41.3676 -48.8837,-44.8901 -50.6123,-48.7899 -52.0222,-52.121 -53.4356,-55.5552 -54.8154,-59.1831 -56.2187,-62.6589 -57.6387,-66.0986 -59.0333,-69.7141 -60.435,-73.4821 -61.8235,-77.2743 -63.1785,-81.1469 -64.2054,-84.7363 -65.1978,-88.4233 -66.5169,-92.4571 -67.8921,-96.68 -68.9165,-100.8685 -69.8299,-105.3124 -70.752,-109.763 -71.5249,-113.3371 -72.087,-116.5894 -72.7458,-119.759 -73.6807,-123.5478 -74.6168,-127.359 -75.5587,-131.2917 -76.4997,-135.377 -77.3756,-139.6733 -78.3286,-145.3005 -79.3245,-150.9087 -80.2391,-155.218 -80.9733,-158.3376 -81.457,-161.3313 -81.953,-164.4586 -82.4751,-167.8349 -83.0472,-171.2173 -83.7914,-174.6605 -84.3124,-177.9001 -84.8961,-181.0951 -85.647,-184.5581 -86.1725,-187.8233 -86.7605,-191.0523 -87.5122,-194.57 -88.0397,-197.972 -88.6118,-201.4103 -89.3344,-204.9481 -89.8082,-208.3913 -90.2801,-211.9203 -90.761,-215.2799 -91.2506,-218.6944 -91.7556,-222.1718 -92.3219,-225.4573 -93.0366,-229.0761 -93.4967,-232.5988 -93.9644,-235.9605 -94.4338,-239.3958 -94.897,-242.914 -95.3607,-246.2493 -95.8203,-249.6256 -96.266,-253.0298 -96.7088,-256.1847 -97.1461,-259.2643 -97.5468,-262.5185 -97.8979,-265.7278 -98.1139,-268.5613 -98.7072,-273.0254 -99.4868,-277.6418 -99.9535,-280.5755 -100.4107,-283.5976 -100.8516,-286.7568 -101.2651,-289.8265 -101.7771,-293.9983 -102.4659,-299.3517 -103.3879,-304.7014 -104.3189,-309.9121 -105.2542,-315.2396 -106.1616,-320.4565 -106.8979,-324.5217 -107.399,-328.5276 -108.0567,-333.7501 -108.795,-337.9264 -109.2853,-341.934 -109.7715,-346.0901 -110.2644,-350.0209 -110.9238,-355.0451 -111.6634,-359.2474 -112.1185,-363.1963 -112.592,-368.2828 -113.0539,-373.1982 -113.455,-376.9515 -113.6998,-380.6954 -113.7176,-385.1632 -113.7941,-389.4583 -114.0611,-393.4987 -114.7592,-398.0111 -115.7668,-402.9224 -116.6665,-406.7464 -117.3413,-409.6422 -117.7926,-412.9229 -118.2617,-416.8354 -118.734,-420.7988 -119.1744,-424.3959 -119.3356,-427.3694 -119.2207,-428.6038 A3.0073,3.0073 0 0 1 -113.2377,-427.9886 Z" stroke-linecap="round" fill="#e599f7"/></g></g><g transform="matrix(1, 0, 0, 1, 2344.7456, 23686.9541) scale(0.9395537136368082, 0.9395537136368082)" opacity="0.25"><g transform="scale(1.0643351045138414)"><path d="M2.1964,0 T2.1663,1.7763 2.4591,6.002 2.898,10.5865 3.2743,14.2373 4.2802,17.969 5.8544,21.7861 7.6214,24.7549 9.6484,27.0312 12.4094,28.7106 15.3323,30.1494 17.9768,31.259 20.9884,32.165 24.2701,32.0133 27.3801,30.3966 30.0653,28.2927 32.5032,25.8091 34.6437,22.7933 36.467,19.2403 38.0278,15.6104 39.3921,12.5638 40.7652,9.8446 42.2753,6.1985 43.6875,2.0457 44.8007,-1.9027 45.8084,-5.8874 47.0828,-10.0286 48.3752,-14.0541 49.7249,-18.1614 51.5076,-22.5147 53.3793,-26.5055 55.2186,-30.6064 57.1116,-34.9772 59.2196,-40.1591 60.8921,-44.5177 61.961,-47.287 63.3471,-51.2699 64.7506,-55.3659 65.7858,-58.3265 66.7797,-61.2178 67.7822,-63.9338 69.4587,-68.2954 71.2298,-72.812 72.5803,-76.0765 74.3445,-81.1055 76.3297,-87.572 77.8479,-92.4812 78.8968,-95.8214 79.9159,-98.9798 80.8805,-102.1411 81.8097,-105.5145 82.7631,-108.908 84.0585,-114.0609 85.4093,-119.4449 86.1804,-122.7598 86.8237,-125.6728 87.6244,-129.0485 88.5081,-132.4316 89.4069,-135.9442 90.32,-139.5596 91.2542,-143.063 92.1971,-146.4783 93.1492,-149.6545 94.0473,-153.3651 95.2327,-157.6978 96.5428,-161.8398 97.3763,-165.4821 98.058,-168.8234 98.8804,-172.4503 99.7617,-176.1384 100.6596,-180.0484 101.3008,-184.3022 101.8969,-188.0599 102.6738,-191.7206 103.4954,-196.1584 104.3741,-200.971 105.2852,-205.7576 105.9682,-209.9488 106.5446,-214.1438 107.312,-218.7164 108.1497,-223.5379 108.7794,-228.7745 109.1041,-233.2578 109.5058,-237.7486 110.168,-243.0944 110.9669,-248.5848 111.8358,-253.7382 112.7507,-258.2998 113.924,-262.9978 115.2035,-268.0772 116.3185,-272.7162 117.372,-276.7931 118.359,-280.8649 119.5681,-285.5141 120.8859,-290.2265 121.7582,-294.0625 122.6979,-297.9817 123.8913,-302.3642 124.6983,-306.0016 125.35,-309.4754 126.265,-314.5521 127.2174,-319.3163 127.8123,-322.6972 128.333,-326.4113 128.8464,-329.9853 129.0952,-333.021 129.2333,-335.7351 129.3077,-338.9149 129.5835,-342.771 129.95,-346.3765 130.1309,-349.4363 130.4833,-352.4184 131.2254,-356.4555 132.1525,-361.2517 133.153,-365.6621 134.2629,-369.4692 135.2489,-372.0361 135.6518,-372.954 A2.6158,2.6158 0 0 1 140.5682,-371.166 T140.0959,-369.5296 139.2302,-366.2006 138.4049,-362.1981 137.5441,-357.7613 136.7344,-353.1423 136.2862,-349.0671 136.0876,-345.7575 135.734,-342.3389 135.487,-338.7634 135.4132,-335.4255 135.2698,-332.5215 134.9847,-329.1152 134.485,-325.5273 133.5678,-320.2803 132.6466,-314.8695 132.1244,-311.5763 131.5605,-308.3288 130.8933,-304.68 130.0412,-300.7078 128.9303,-296.5476 128.0283,-292.6846 127.0934,-288.5029 125.8257,-283.9073 124.6597,-279.331 123.671,-275.1689 122.6627,-271.2056 121.5531,-266.4941 120.2985,-261.4235 119.1942,-256.9857 118.3185,-252.6399 117.468,-247.6314 116.6826,-242.2761 116.0261,-237.1662 115.6127,-232.7756 115.2345,-227.9904 114.5304,-222.3892 113.6808,-217.6136 112.9339,-213.2557 112.3242,-208.9325 111.6003,-204.5445 110.6853,-199.8012 109.7862,-194.9673 108.9219,-190.3721 108.1872,-187.0075 107.6021,-183.3402 106.8458,-178.567 105.9355,-174.6285 104.7203,-169.7003 103.5665,-164.0718 102.6075,-159.9182 101.3599,-156.0164 100.2232,-151.8353 99.2458,-147.8185 98.3266,-144.7596 97.4059,-141.4057 96.4912,-137.9698 95.5745,-134.3238 94.6795,-130.7979 93.8468,-127.5657 93.0778,-124.2945 92.4301,-121.3443 91.5951,-117.7519 90.5216,-113.854 89.7007,-110.4504 88.9406,-107.1729 87.9947,-103.7999 87.0071,-100.2392 86.0218,-96.9924 85.0284,-93.897 83.9457,-90.4325 82.8087,-87.0566 81.8317,-83.75 80.8158,-80.413 79.7331,-77.0651 78.5106,-73.6147 77.1783,-70.4091 75.9284,-67.2972 74.3109,-63.057 72.8901,-59.1357 71.9003,-56.2052 70.8586,-53.1807 69.4482,-49.0267 68.0259,-44.939 66.857,-41.9335 65.6257,-39.126 64.0343,-35.2963 62.1005,-30.4416 60.6253,-26.8651 59.1779,-23.7124 57.3724,-19.9415 55.6932,-15.9051 54.3304,-11.805 53.1634,-8.2803 52.0728,-4.7667 51.0553,-0.7199 50.1867,2.9048 49.0468,6.3092 47.4151,10.5422 45.6593,14.3791 43.9557,17.8141 42.6256,21.0483 40.9887,24.2596 38.4424,28.1892 35.4215,31.5726 32.2236,34.0661 28.6188,36.0656 24.7477,37.6022 21.2387,37.9103 17.8036,36.9799 14.4412,35.6636 11.3522,33.9937 7.9925,31.7716 4.9009,28.8799 2.5875,25.6126 0.7105,21.6152 -0.4926,17.8352 -1.0801,13.6516 -1.481,8.7822 -1.89,5.1089 -2.1663,1.7806 -2.1964,0 A2.1964,2.1964 0 0 1 2.1964,0 Z" stroke-linecap="round" fill="#e599f7"/></g></g><g transform="matrix(1, 0, 0, 1, 2518.5631, 23254.7594) scale(0.9395537136368082, 0.9395537136368082)" opacity="1"><g transform="scale(1.0643351045138414)"><path d="M-1.9963,-0.4991 T-1.5411,-2.2682 -1.2803,-5.5042 -1.649,-7.0716 -1.8233,-7.1721 A2.0555,2.0555 0 0 1 1.4413,-9.6705 T2.194,-7.772 2.9055,-4.475 2.4303,-1.2887 1.9963,0.4991 A2.0577,2.0577 0 0 1 -1.9963,-0.4991 ZM-0.2381,-6.3664 T-0.6375,-6.3743 -1.037,-6.3822 A2.0579,2.0579 0 0 1 -0.9428,-10.497 T-0.5433,-10.4866 -0.1439,-10.4762 A2.0555,2.0555 0 0 1 -0.2381,-6.3664 ZM0.696,-7.2594 T0.2034,-6.5565 -0.743,-4.5661 -1.3552,-0.8184 -1.0656,3.4745 -0.238,6.825 0.7268,9.6554 1.6948,12.3177 2.8927,16.3006 4.4145,21.2336 5.3362,26.0402 5.0881,29.9553 3.8818,32.5398 1.2339,35.0886 -2.0852,36.8255 -5.9576,37.2022 -9.9011,36.8768 -13.5816,35.0217 -16.9219,32.4965 -18.0675,31.4884 A1.8308,1.8308 0 0 1 -15.7525,28.6516 T-14.5351,29.5719 -11.898,31.4682 -9.1303,32.7087 -6.0989,33.0111 -2.3048,32.2424 0.7401,30.0273 1.5066,26.5007 0.6673,22.2531 -0.4475,18.759 -1.6083,14.9857 -3.0392,10.9662 -4.1499,7.8563 -5.0819,3.8877 -5.5326,-0.0678 -5.1841,-3.3211 -4.3928,-6.5037 -3.2707,-8.7693 -2.6757,-9.6198 A2.0579,2.0579 0 0 1 0.696,-7.2594 Z" stroke-linecap="round" fill="#e599f7"/></g></g><g transform="matrix(1, 0, 0, 1, 2527.0191, 23270.7318) scale(0.9395537136368082, 0.9395537136368082)" opacity="1"><g transform="scale(1.0643351045138414)"><path d="M-0.6548,1.637 T-1.7727,1.2174 -5.4293,0.5568 -9.9984,0.7491 -14.0101,2.3119 -15.9912,3.4413 A1.8116,1.8116 0 0 1 -17.8288,0.3187 T-16.6982,-0.3826 -13.0764,-2.1475 -9.1313,-3.3683 -6.031,-3.3639 -2.9701,-2.8893 -0.4504,-2.1067 0.6548,-1.637 A1.7631,1.7631 0 0 1 -0.6548,1.637 Z" stroke-linecap="round" fill="#e599f7"/></g></g><g transform="matrix(1, 0, 0, 1, 2543.931, 23239.7266) scale(0.9395537136368082, 0.9395537136368082)" opacity="1"><g transform="scale(1.0643351045138414)"><path d="M1.8074,0.3615 T1.5992,1.4759 1.062,4.0954 -0.3225,9.3261 -1.9086,15.3833 -2.7027,19.9752 -3.1022,24.5309 -3.0853,28.8163 -2.463,32.3822 -1.5221,35.5458 0.3059,38.5362 2.7968,40.8456 3.9315,41.7521 A1.8412,1.8412 0 0 1 1.7085,44.6879 T0.5283,43.8415 -1.9328,42.0082 -4.0658,39.6962 -5.4371,36.7387 -6.5238,33.1031 -7.2182,28.8294 -7.1684,24.1445 -6.6619,19.2629 -5.7369,14.3752 -4.0609,8.3503 -2.6302,3.3008 -2.0439,0.7472 -1.8074,-0.3615 A1.8432,1.8432 0 0 1 1.8074,0.3615 Z" stroke-linecap="round" fill="#e599f7"/></g></g><g transform="matrix(1, 0, 0, 1, 2551.4475, 23258.5176) scale(0.9395537136368082, 0.9395537136368082)" opacity="1"><g transform="scale(1.0643351045138414)"><path d="M-0.8246,-1.924 T0.7423,-2.5725 3.963,-3.6238 7.9012,-4.3267 11.5639,-4.1616 14.5327,-1.7568 16.0318,2.9157 14.6196,7.5509 12.0359,11.0442 9.686,13.6554 10.0605,13.5688 12.8997,12.0985 16.8288,11.3824 19.3803,11.0298 A2.1489,2.1489 0 0 1 20.0797,15.2702 T17.7736,15.7188 13.0972,16.8119 8.905,17.5422 5.8572,16.174 5.6524,12.5813 7.8092,9.36 10.4154,6.3384 11.948,2.686 10.4272,0.2958 6.3799,0.0861 2.37,1.2387 0.8246,1.924 A2.0932,2.0932 0 0 1 -0.8246,-1.924 Z" stroke-linecap="round" fill="#e599f7"/></g></g><g transform="matrix(1, 0, 0, 1, 2591.8483, 23254.7594) scale(0.9395537136368082, 0.9395537136368082)" opacity="1"><g transform="scale(1.0643351045138414)"><path d="M1.4851,0.8486 T0.6288,2.4238 -1.685,6.4944 -3.7505,10.3444 -5.5069,13.8496 -8.3864,17.5398 -10.1175,19.0793 A1.6851,1.6851 0 0 1 -12.4225,16.6207 T-11.1258,15.3216 -8.8102,12.0789 -7.1023,8.6424 -4.8713,4.6876 -2.4073,0.6886 -1.4851,-0.8486 A1.7105,1.7105 0 0 1 1.4851,0.8486 Z" stroke-linecap="round" fill="#e599f7"/></g></g><g transform="matrix(1, 0, 0, 1, 2579.6341, 23256.6385) scale(0.9395537136368082, 0.9395537136368082)" opacity="1"><g transform="scale(1.0643351045138414)"><path d="M0.8341,-1.6682 T2.1654,-0.9961 5.4487,0.8955 8.8384,3.458 11.2834,5.7734 13.7537,7.7231 16.3865,9.0984 17.5562,9.4965 A1.8875,1.8875 0 0 1 16.2638,13.0435 T14.4164,12.3423 11.0748,10.5941 8.6005,8.5509 6.2822,6.2506 3.3914,3.9692 0.5023,2.33 -0.8341,1.6682 A1.8651,1.8651 0 0 1 0.8341,-1.6682 Z" stroke-linecap="round" fill="#e599f7"/></g></g><g transform="matrix(1, 0, 0, 1, 2596.546, 23231.2706) scale(0.9395537136368082, 0.9395537136368082)" opacity="1"><g transform="scale(1.0643351045138414)"><path d="M-0.4368,-1.747 T0.783,-1.8783 3.3709,-1.1257 6.5992,2.1985 9.3037,6.2324 10.6499,9.23 11.8857,13.372 13.0338,18.9618 13.6703,23.9649 14.0305,29.287 14.0251,34.8822 13.3387,40.0039 12.262,44.3806 11.2189,47.5601 9.59,50.7035 7.37,53.918 6.2692,55.489 A1.8603,1.8603 0 0 1 3.1308,53.491 T4.0884,51.8288 5.7742,48.9082 6.9672,46.1652 7.9042,43.2283 8.8974,39.3737 9.6168,34.7819 9.7567,29.5386 9.5488,24.4095 9.1075,19.6962 7.849,13.2787 5.5637,6.7849 2.8997,2.5955 0.9955,1.4337 0.4368,1.747 A1.8008,1.8008 0 0 1 -0.4368,-1.747 Z" stroke-linecap="round" fill="#e599f7"/></g></g><g transform="matrix(1, 0, 0, 1, 2360.7181, 23717.0199) scale(0.9395537136368082, 0.9395537136368082)" opacity="0.25"><g transform="scale(1.0643351045138414)"><path d="M-1.3185,-1.8924 T-0.208,-2.1007 2.2926,-2.7998 4.9194,-4.6095 7.1047,-7.225 8.5694,-9.9792 9.9654,-13.203 11.6759,-16.8948 12.9743,-20.1992 13.9817,-22.8645 15.2868,-26.0561 16.6501,-29.3334 17.7486,-32.0953 19.0971,-35.0236 20.4786,-38.335 21.4802,-41.6503 22.4088,-44.64 23.2636,-47.663 24.1009,-50.6947 24.9912,-54.2327 25.8799,-57.7613 26.8021,-60.7996 27.711,-63.9711 28.6342,-67.2238 29.5681,-70.5057 30.4885,-73.6264 31.444,-76.5776 32.4751,-79.4603 33.5261,-82.3161 34.4809,-85.2889 35.4115,-88.6469 36.3518,-92.2998 37.2891,-96.0274 38.2204,-99.778 39.1406,-103.7224 40.3484,-108.1032 41.6159,-112.3122 42.6899,-116.1435 43.7464,-120.3236 44.5752,-123.9881 45.3004,-126.8183 46.2193,-130.7807 47.2123,-135.9114 48.1542,-140.9263 49.0241,-144.7515 49.922,-149.031 50.8296,-153.5049 51.7504,-158.1454 52.6737,-162.8125 53.6044,-167.5047 54.5504,-172.0251 55.1383,-174.8545 55.6504,-177.8563 56.4707,-182.4151 57.3313,-187.2263 57.895,-190.8121 58.4203,-194.1047 59.1456,-197.7022 59.7035,-201.6114 60.2142,-205.7128 60.9575,-209.6383 61.7792,-213.4468 62.385,-217.4705 62.9305,-221.4308 63.6821,-225.4395 64.2795,-228.7828 65.0521,-232.4139 65.8915,-236.3175 66.5251,-240.0366 67.0748,-243.9628 67.5834,-247.8384 68.076,-251.2478 68.5396,-254.9869 68.9893,-259.3709 69.207,-263.3592 69.3173,-267.0111 69.3709,-270.2683 69.6216,-274.1259 69.9685,-278.3834 70.1398,-282.2592 70.2306,-285.6382 70.5063,-289.3428 70.8709,-293.5143 71.0565,-297.3459 71.3893,-301.5082 71.7858,-305.7043 71.9841,-309.5461 72.0909,-313.3437 72.148,-317.1226 72.4097,-321.265 72.7698,-325.0316 72.9491,-328.6252 73.0437,-332.933 73.0918,-337.2217 73.1133,-341.2593 73.1234,-345.3842 73.131,-349.5586 73.1387,-353.7596 73.14,-358.1964 73.1369,-362.5332 73.1324,-366.1502 73.1216,-370.0571 73.1094,-374.3391 73.1011,-378.1519 73.0948,-381.9397 73.0905,-385.2674 73.0842,-388.5749 73.0758,-392.3187 73.0697,-395.8479 73.0594,-399.264 73.0468,-402.3981 73.0329,-405.8259 73.0172,-409.8531 73.0053,-413.9762 72.9967,-417.9275 72.9909,-421.5648 72.775,-425.0757 72.4361,-428.4678 72.2194,-432.9279 72.1215,-438.0186 72.147,-442.4937 72.2336,-446.4635 72.3632,-450.1179 72.4387,-451.9288 A2.7213,2.7213 0 0 1 77.8813,-451.9312 T77.9584,-450.1216 78.0936,-446.4725 78.1987,-442.5201 78.2912,-438.113 78.4342,-433.224 78.6404,-429.0595 78.9803,-425.4484 79.2091,-421.5674 79.2033,-417.9275 79.1947,-413.9762 79.1828,-409.8531 79.1671,-405.8259 79.1532,-402.3981 79.1406,-399.264 79.1303,-395.8479 79.1242,-392.3187 79.1158,-388.5749 79.1095,-385.2674 79.1051,-381.9397 79.0987,-378.1518 79.0902,-374.3389 79.0777,-370.0566 79.0663,-366.1493 79.0606,-362.5317 79.0553,-358.1936 79.0524,-353.7538 79.052,-349.5479 79.0444,-345.3632 79.0256,-341.2196 78.9923,-337.1515 78.9364,-332.7999 78.8335,-328.3055 78.6382,-324.4771 78.2875,-320.9097 78.0439,-317.0325 77.9861,-313.1779 77.8747,-309.2401 77.6592,-305.1534 77.2703,-301.0541 76.9566,-297.0598 76.759,-292.9984 76.3965,-288.9418 76.1273,-285.4702 76.0187,-281.9817 75.8117,-277.8882 75.4408,-273.7642 75.1731,-270.1455 75.0868,-266.8092 74.9315,-263.0118 74.6453,-258.7706 74.1387,-254.2795 73.6314,-250.4491 73.1255,-247.0883 72.5829,-243.1793 71.9816,-239.0835 71.2751,-235.1647 70.4151,-231.3155 69.6503,-227.8285 69.018,-224.4146 68.2799,-220.6634 67.6858,-216.6483 66.973,-212.2791 66.1362,-208.5895 65.4198,-205.0366 64.8481,-200.8533 63.8855,-195.3661 62.9242,-189.9991 62.3025,-186.2532 61.4066,-181.4292 60.5812,-176.9853 59.6376,-172.6015 58.688,-168.0138 58.126,-164.8005 57.5015,-161.7105 56.7908,-158.6429 56.2256,-155.4528 55.6024,-152.4024 54.8992,-149.4027 54.3404,-146.3257 53.4377,-142.3462 52.2904,-137.4107 51.2937,-132.4549 50.5379,-128.4514 49.6154,-124.4062 48.4187,-119.5688 47.252,-114.9559 46.0539,-110.7029 44.8733,-106.9351 44.0285,-103.7739 43.3394,-100.5364 42.3878,-96.7816 41.4403,-93.0363 40.4924,-89.3095 39.524,-85.6466 38.5391,-82.4002 37.5022,-79.4513 36.331,-76.4893 35.2397,-73.6004 34.3159,-70.6561 33.3935,-67.6523 32.4559,-64.3741 31.5134,-61.133 30.578,-58.0096 29.6164,-54.3288 28.6584,-50.9201 27.6695,-47.2673 26.6588,-43.5759 25.6828,-40.6486 24.6562,-37.7261 23.2042,-34.4147 21.7434,-31.0527 20.4808,-27.9432 19.0751,-24.7212 17.4601,-20.9436 16.001,-17.33 14.7751,-14.4118 13.3962,-11.6475 12.1988,-9.0245 10.7267,-5.975 8.5882,-3.0147 6.0585,-0.7131 3.1862,0.8738 0.5511,1.656 -0.5615,1.8924 A1.9299,1.9299 0 0 1 -1.3185,-1.8924 Z" stroke-linecap="round" fill="#f76707"/></g></g><g transform="matrix(1, 0, 0, 1, 2366.3554, 23714.2012) scale(0.9395537136368082, 0.9395537136368082)" opacity="0.25"><g transform="scale(1.0643351045138414)"><path d="M1.804,0.902 T1.336,1.7955 -0.8243,3.8693 -4.4124,5.0158 -7.5024,4.1263 -9.6714,1.7108 -11.4324,-1.6819 -12.9408,-5.611 -14.3726,-9.4413 -15.4929,-12.9807 -16.3506,-16.5431 -17.2641,-19.8679 -18.2234,-23.1661 -19.2002,-26.7258 -20.1624,-30.0563 -21.128,-33.351 -22.0991,-36.6393 -22.9375,-39.7214 -23.5614,-43.4487 -24.2395,-47.4053 -25.1232,-51.4352 -26.1005,-55.8564 -27.0864,-59.8367 -27.9184,-63.2513 -28.5462,-66.9967 -29.2304,-70.7909 -30.0889,-74.4062 -30.8656,-78.0798 -31.4559,-81.7152 -32.304,-85.2398 -33.1419,-88.345 -33.9026,-92.0065 -35.1109,-97.1061 -36.2356,-101.4712 -37.098,-104.3675 -37.8313,-107.6862 -38.4544,-110.9896 -39.1807,-113.8227 -39.8294,-116.8557 -40.6054,-121.103 -41.4479,-125.6738 -41.9528,-129.4133 -42.436,-132.879 -42.9186,-136.5032 -43.5792,-141.9592 -44.3561,-147.3285 -44.8326,-150.9981 -45.3075,-154.4734 -45.7902,-158.3405 -46.2725,-162.3892 -46.748,-166.2815 -47.0178,-170.5155 -47.3628,-174.5761 -47.7659,-178.7164 -47.9979,-183.068 -48.3357,-187.1977 -48.7431,-191.3712 -48.975,-195.7292 -49.3169,-200.0995 -49.7289,-203.9178 -50.1835,-207.9604 -50.6627,-212.7936 -51.1401,-217.5335 -51.6186,-221.783 -52.0991,-226.275 -52.7821,-231.1857 -53.5852,-235.9644 -54.2553,-240.8512 -54.8342,-245.6484 -55.3644,-250.4017 -55.873,-255.1292 -56.5703,-259.6862 -57.1836,-264.4619 -57.7397,-269.1997 -58.2601,-273.9206 -58.5548,-278.7875 -58.9205,-283.4134 -59.3326,-288.0748 -59.5547,-292.9157 -59.6619,-297.2384 -59.9174,-301.118 -60.2676,-306.0845 -60.6665,-311.3837 -61.0907,-316.1487 -61.3229,-321.0407 -61.4401,-325.8404 -61.7129,-330.4378 -62.0858,-334.8519 -62.3024,-339.3365 -62.4238,-343.7061 -62.4919,-347.5578 -62.5341,-351.5929 -62.5631,-355.944 -62.7979,-360.0656 -63.1516,-364.2295 -63.3482,-367.9076 -63.452,-371.4167 -63.7225,-375.5705 -64.0932,-379.9655 -64.3024,-384.2127 -64.6233,-388.0407 -65.0185,-391.3561 -65.4513,-394.672 -66.1093,-398.2588 -66.7093,-402.1078 -67.0525,-405.877 -67.43,-409.2058 -67.8553,-412.5141 -68.1383,-416.8469 -68.2724,-420.9253 -68.2789,-424.6709 -68.2334,-428.6167 -67.8123,-432.1711 -67.1128,-434.9435 -66.796,-435.8157 A3.0156,3.0156 0 0 1 -60.984,-434.2043 T-61.2208,-432.2441 -61.4097,-428.6423 -61.3202,-424.7424 -61.2494,-421.0763 -61.1053,-417.2676 -60.8604,-413.3839 -60.4383,-409.977 -60.0512,-406.469 -59.7874,-403.162 -59.2357,-399.4807 -58.5517,-395.5276 -58.1257,-392.1297 -57.7348,-388.6111 -57.4078,-384.5335 -57.2313,-380.5198 -56.87,-375.9802 -56.5954,-371.6171 -56.5082,-368.2455 -56.3425,-364.773 -56.0089,-360.4216 -55.7831,-355.9691 -55.7817,-351.644 -55.7662,-347.6523 -55.725,-343.866 -55.6388,-339.6392 -55.4617,-335.396 -55.0873,-330.8417 -54.7859,-326.0146 -54.6574,-321.3677 -54.423,-316.7624 -53.9621,-311.9338 -53.525,-306.6219 -53.1324,-301.5777 -52.8223,-297.4204 -52.7001,-293.2334 -52.4866,-288.6763 -52.0722,-283.9415 -51.7133,-279.1746 -51.4768,-274.6463 -50.9891,-269.9672 -50.4761,-265.3051 -49.9044,-260.6809 -49.1968,-255.8291 -48.7178,-251.1309 -48.2089,-246.4356 -47.6597,-241.7405 -47.0328,-237.0522 -46.2186,-232.0897 -45.5201,-226.9439 -45.0665,-222.4776 -44.6161,-218.1651 -44.1746,-213.3989 -43.7538,-208.6219 -43.3444,-204.5528 -42.9607,-200.572 -42.6361,-196.0492 -42.4473,-191.9599 -42.0563,-187.6886 -41.7227,-183.387 -41.5243,-179.3333 -41.1109,-175.1173 -40.7503,-170.9058 -40.5247,-167.0271 -40.0601,-163.1187 -39.6023,-159.1145 -39.1449,-155.2943 -38.6796,-151.7668 -38.2155,-148.0452 -37.7699,-144.0756 -37.3055,-140.6081 -36.827,-137.3046 -36.3633,-133.7016 -35.8944,-130.1941 -35.2877,-125.5241 -34.3052,-119.6398 -33.3653,-115.2695 -32.5891,-112.0642 -32.0486,-108.9626 -31.4175,-106.0244 -30.5346,-102.9539 -29.724,-99.7464 -28.8908,-95.8363 -27.9839,-91.0871 -26.8697,-86.4025 -26.0482,-82.7491 -25.5165,-79.2523 -24.6977,-75.2012 -23.8572,-71.3941 -23.313,-67.9938 -22.8058,-64.5308 -21.9961,-60.7036 -21.1159,-56.5647 -20.2635,-52.1519 -19.4481,-47.9502 -18.8974,-44.2428 -18.3058,-40.1933 -17.3889,-36.1872 -16.4738,-32.8755 -15.554,-29.5359 -14.6216,-26.0627 -13.7185,-22.7316 -12.8265,-19.313 -11.8485,-15.1247 -10.5172,-10.7093 -9.1253,-6.7851 -7.7912,-3.1675 -6.2496,-0.2258 -4.0401,0.9097 -2.2252,-0.017 -1.804,-0.902 A2.017,2.017 0 0 1 1.804,0.902 Z" stroke-linecap="round" fill="#f76707"/></g></g><g transform="matrix(1, 0, 0, 1, 2432.1241, 23221.8751) scale(0.9395537136368082, 0.9395537136368082)" opacity="1"><g transform="scale(1.0643351045138414)"><path d="M-1.9792,0 T-1.9783,-1.1021 -2.5841,-3.5313 -2.8892,-2.8634 -2.6271,0.6828 -2.1726,4.2048 -0.9076,8.1561 0.5631,11.5869 1.859,14.843 2.3771,19.0407 0.7645,23.4239 -2.0013,26.1479 -5.4096,27.7975 -10.1527,28.4051 -13.7566,27.6399 -14.7947,27.1844 A1.9465,1.9465 0 0 1 -13.3853,23.5556 T-11.8227,24.1894 -8.7395,24.5003 -5.3481,23.2754 -2.269,20.9528 -1.2601,17.8598 -2.3632,14.5828 -3.9291,11.2573 -5.393,7.1141 -6.4389,2.7411 -6.6356,-1.0172 -6.2104,-4.6862 -4.2243,-7.4665 -0.9856,-7.2251 1.3112,-4.1533 1.9783,-1.121 1.9792,0 A1.9792,1.9792 0 0 1 -1.9792,0 Z" stroke-linecap="round" fill="#f76707"/></g></g><g transform="matrix(1, 0, 0, 1, 2437.7615, 23229.3915) scale(0.9395537136368082, 0.9395537136368082)" opacity="1"><g transform="scale(1.0643351045138414)"><path d="M0.9837,1.4756 T-0.322,2.4084 -4.5424,4.6403 -9.7146,6.6736 -13.1764,7.8301 -14.3805,8.2523 A1.794,1.794 0 0 1 -15.6795,4.9077 T-14.506,4.4065 -11.0942,3.0819 -6.2818,1.2371 -2.3457,-0.6299 -0.9837,-1.4756 A1.7734,1.7734 0 0 1 0.9837,1.4756 Z" stroke-linecap="round" fill="#f76707"/></g></g><g transform="matrix(1, 0, 0, 1, 2448.0965, 23212.4795) scale(0.9395537136368082, 0.9395537136368082)" opacity="1"><g transform="scale(1.0643351045138414)"><path d="M1.943,0 T1.9457,1.3405 1.4943,4.7252 0.6127,9.0194 -0.2842,12.9957 -0.9465,16.7637 -1.0379,20.4557 -0.2736,23.9029 1.8023,27.4794 4.5312,30.3135 5.8471,31.368 A1.8979,1.8979 0 0 1 3.5529,34.392 T2.1829,33.4086 -0.7023,31.1998 -2.8997,28.5234 -4.3515,24.7195 -5.2073,20.3603 -4.9982,15.9888 -4.2467,12.0491 -3.3044,8.1495 -2.3835,4.2392 -1.9457,1.3272 -1.943,0 A1.943,1.943 0 0 1 1.943,0 Z" stroke-linecap="round" fill="#f76707"/></g></g><g transform="matrix(1, 0, 0, 1, 2457.4921, 23220.9355) scale(0.9395537136368082, 0.9395537136368082)" opacity="1"><g transform="scale(1.0643351045138414)"><path d="M0.5723,-2.003 T2.1281,-1.5349 5.3937,0.1369 7.8458,3.1947 7.514,6.9008 6.3154,9.0364 6.191,9.3201 A2.0578,2.0578 0 0 1 2.6387,7.2416 T3.7683,5.9771 3.7193,3.779 0.9843,2.4241 -0.5723,2.003 A2.0831,2.0831 0 0 1 0.5723,-2.003 ZM5.602,6.5999 T6.4162,7.1812 8.5683,8.2366 11.1673,9.6434 13.5264,12.1966 14.184,15.8145 12.5991,18.7103 9.0227,20.4957 4.7985,21.5653 2.0615,21.7878 1.1167,21.8275 A2.105,2.105 0 0 1 0.7633,17.6325 T2.4405,17.4165 5.6291,16.8706 8.8469,15.5624 9.2764,13.4928 6.5735,11.8532 4.1876,10.6334 3.2277,9.9617 A2.0578,2.0578 0 0 1 5.602,6.5999 Z" stroke-linecap="round" fill="#f76707"/></g></g><g transform="matrix(1, 0, 0, 1, 2484.7391, 23218.1168) scale(0.9395537136368082, 0.9395537136368082)" opacity="1"><g transform="scale(1.0643351045138414)"><path d="M1.3679,1.1399 T0.2888,2.5008 -2.4701,5.7901 -5.649,9.2704 -8.2985,12.1143 -10.1072,14.2619 -10.7655,15.1177 A1.7727,1.7727 0 0 1 -13.6545,13.0623 T-13.0618,12.1598 -11.21,9.6639 -8.4807,6.5588 -5.3333,3.2604 -2.5119,0.1669 -1.3679,-1.1399 A1.7806,1.7806 0 0 1 1.3679,1.1399 Z" stroke-linecap="round" fill="#f76707"/></g></g><g transform="matrix(1, 0, 0, 1, 2471.5854, 23219.9959) scale(0.9395537136368082, 0.9395537136368082)" opacity="1"><g transform="scale(1.0643351045138414)"><path d="M1.217,-1.4604 T2.5631,-0.3635 5.5955,2.1987 8.9013,4.9965 11.9307,7.0502 15.0782,8.666 16.8158,9.5605 A1.9073,1.9073 0 0 1 15.1242,12.9795 T13.3589,12.1409 9.8594,10.468 6.3598,8.1205 3.0103,5.16 0.1047,2.5866 -1.217,1.4604 A1.901,1.901 0 0 1 1.217,-1.4604 Z" stroke-linecap="round" fill="#f76707"/></g></g><g transform="matrix(1, 0, 0, 1, 2486.6182, 23204.9631) scale(0.9395537136368082, 0.9395537136368082)" opacity="1"><g transform="scale(1.0643351045138414)"><path d="M1.4348,-1.4348 T2.7525,-0.0848 6.059,3.706 9.0812,8.0698 11.1022,11.8284 12.8748,15.3535 14.1548,19.2492 14.8819,23.0143 14.3906,27.3904 13.0795,31.5279 12.4915,32.848 A2.3353,2.3353 0 0 1 8.1885,31.032 T8.7241,29.6898 9.7804,26.763 10.1354,23.7627 9.7112,20.596 8.8067,17.2445 7.2778,13.7669 5.556,10.1437 2.9914,6.2336 -0.0848,2.7525 -1.4348,1.4348 A2.0292,2.0292 0 0 1 1.4348,-1.4348 Z" stroke-linecap="round" fill="#f76707"/></g></g><g transform="matrix(1, 0, 0, 1, 2317.4986, 23721.7176) scale(0.9395537136368082, 0.9395537136368082)" opacity="1"><g transform="scale(1.0643351045138414)"><path d="M2.1648,-0.7216 T2.3987,-0.0553 2.8886,2.298 3.2426,6.8334 3.8206,11.6584 4.3006,13.6348 A2.463,2.463 0 0 1 -0.5406,14.5452 T-1.0388,12.1639 -1.534,8.2554 -1.6371,4.3925 -1.9541,1.3891 -2.1648,0.7216 A2.2819,2.2819 0 0 1 2.1648,-0.7216 ZM-0.5791,14.2289 T-0.637,12.749 -0.6164,9.2698 -0.4878,4.8791 -0.4221,0.3014 -0.4064,-1.8848 A2.2864,2.2864 0 0 1 4.1664,-1.8752 T4.171,0.3165 4.197,4.9256 4.1935,9.5919 4.2539,12.896 4.3391,13.9511 A2.463,2.463 0 0 1 -0.5791,14.2289 ZM4.1664,-1.8778 T4.1665,-1.0603 3.9577,2.6964 3.5719,8.2187 3.2809,12.998 3.0983,16.5371 3.0298,17.8797 A2.0901,2.0901 0 0 1 -1.1498,17.8203 T-1.1801,16.4763 -1.2252,12.8727 -1.0592,7.7648 -0.6441,2.3532 -0.4081,-1.0462 -0.4064,-1.8822 A2.2864,2.2864 0 0 1 4.1664,-1.8778 Z" stroke-linecap="round" fill="#40c057"/></g></g><g transform="matrix(1, 0, 0, 1, 2315.6195, 23770.5744) scale(0.9395537136368082, 0.9395537136368082)" opacity="1"><g transform="scale(1.0643351045138414)"><path d="M1.928,-0.2969 T2.3977,2.587 3.1339,7.7025 3.5436,11.5612 3.7671,15.1893 3.6453,18.8305 2.9368,22.3377 2.4306,24.2048 A2.0512,2.0512 0 0 1 -1.2071,22.3084 T-1.0513,22.1259 -0.6365,19.6329 -0.4273,15.4161 -0.5809,11.9406 -0.8868,8.2256 -1.5084,3.1883 -1.928,0.2969 A1.9508,1.9508 0 0 1 1.928,-0.2969 ZM-0.939,24.5992 T-1.2259,24.2294 -1.5127,23.8597 A2.0009,2.0009 0 0 1 1.5127,21.2403 T1.8376,21.5771 2.1625,21.914 A2.0512,2.0512 0 0 1 -0.939,24.5992 Z" stroke-linecap="round" fill="#40c057"/></g></g><g transform="matrix(1, 0, 0, 1, 2317.4986, 23772.4535) scale(0.9395537136368082, 0.9395537136368082)" opacity="1"><g transform="scale(1.0643351045138414)"><path d="M0.3783,2.27 T-0.9383,2.5104 -4.1385,4.1024 -7.3744,6.4362 -9.7116,8.4506 -11.8643,10.4113 -15.1611,13.0903 -17.29,14.841 A2.2604,2.2604 0 0 1 -20.29,11.459 T-19.2121,10.4349 -16.1906,7.6997 -12.9359,4.6835 -10.3075,2.4563 -7.507,0.4775 -4.552,-1.2204 -1.7294,-2.0657 -0.3783,-2.27 A2.3013,2.3013 0 0 1 0.3783,2.27 Z" stroke-linecap="round" fill="#40c057"/></g></g><g transform="matrix(1, 0, 0, 1, 2314.6799, 23722.6572) scale(0.9395537136368082, 0.9395537136368082)" opacity="0.25"><g transform="scale(1.0643351045138414)"><path d="M1.0154,-2.0307 T1.8926,-1.5739 4.2599,-0.8559 7.179,-0.5033 10.051,-0.6906 12.9833,-1.6469 15.8559,-3.0434 18.4049,-4.5444 20.9973,-6.3012 23.8315,-8.2324 26.7619,-10.2459 29.6689,-12.5925 32.446,-15.2837 35.2371,-18.1034 38.4264,-21.0829 41.6301,-24.0516 44.0422,-26.7113 46.2722,-29.342 48.3711,-31.8586 50.2016,-34.2348 52.4726,-37.0187 54.748,-39.9251 56.659,-42.6824 58.4541,-45.5867 60.2927,-48.7849 62.5554,-52.4873 64.8054,-56.3243 66.7977,-59.9247 68.7753,-63.548 70.6762,-67.2673 72.5223,-71.158 74.383,-75.2911 76.5702,-79.8315 78.7519,-84.3818 80.6128,-88.9505 82.566,-93.8721 84.1218,-97.6189 85.3603,-100.4762 87.0839,-104.5055 89.0185,-109.6291 90.8645,-115.2532 92.7118,-121.0839 94.1696,-125.7025 95.1879,-129.2364 96.5511,-134.3535 98.3304,-140.9655 99.807,-145.7538 100.8327,-148.9747 101.8113,-152.2205 102.7709,-155.4894 104.0593,-160.5988 105.166,-165.4372 105.8111,-168.9124 106.6469,-172.5169 107.5194,-176.1448 108.1585,-179.637 108.7254,-183.2833 109.5048,-187.1657 110.3545,-190.9695 110.9884,-194.5699 111.7992,-198.4042 112.6686,-202.2177 113.3113,-206.0583 114.1213,-210.2413 114.9846,-214.239 115.6198,-217.9493 116.175,-221.8998 116.6866,-225.9682 117.1768,-229.9202 117.9107,-233.9757 118.7358,-237.8642 119.3577,-241.5073 119.9112,-245.2244 120.4242,-248.9497 120.9105,-252.901 121.6382,-257.1698 122.2173,-261.048 122.7365,-264.8683 123.4704,-269.0073 124.0505,-273.0114 124.5843,-276.9407 125.3306,-281.3487 125.936,-285.3276 126.2396,-288.6153 126.6386,-292.4634 127.3257,-296.6955 127.8894,-300.5409 128.4068,-304.3426 129.1457,-308.274 129.7262,-312.35 130.2603,-316.3378 130.7604,-320.2107 131.2423,-324.0327 131.9705,-327.8114 132.5469,-331.1749 133.1038,-336.2378 133.6202,-341.5837 134.0619,-345.5168 134.5159,-348.9589 134.9641,-352.5105 135.4143,-356.1624 135.6302,-359.7054 135.74,-363.3197 135.795,-367.2397 136.0549,-371.5007 136.4064,-375.5049 136.5746,-379.2026 136.6703,-382.9447 136.7229,-387.1207 136.7513,-391.3305 136.7665,-395.1057 136.7746,-398.6514 136.779,-402.0751 136.7785,-405.4336 136.7751,-408.7583 137.0059,-412.2561 137.4212,-416.9218 137.9425,-422.1479 138.4771,-426.2228 138.8432,-429.5251 139.0126,-431.371 A2.8595,2.8595 0 0 1 144.7274,-431.149 T144.7486,-429.1806 144.5811,-425.3259 144.1861,-421.3554 143.8053,-416.4123 143.4174,-411.8722 143.2023,-408.7536 143.1968,-405.4293 143.1919,-402.0677 143.1883,-398.6369 143.181,-395.0816 143.1671,-391.288 143.1402,-387.0417 143.0879,-382.7651 142.9845,-378.896 142.7749,-374.8915 142.4096,-371.0301 142.1529,-367.1152 142.0713,-363.1054 141.9222,-359.2569 141.6465,-355.3883 141.1641,-351.726 140.6862,-348.1481 140.2264,-344.811 139.7781,-340.9427 139.3487,-336.9052 138.9643,-333.4977 138.6129,-330.1252 138.0043,-326.6139 137.3276,-323.2529 136.8311,-319.424 136.3184,-315.5194 135.7744,-311.4987 135.1527,-307.1277 134.4541,-303.4675 133.9312,-299.6134 133.3646,-295.672 132.7503,-291.8691 132.3676,-288.0633 132.0315,-284.4208 131.4229,-280.3115 130.7094,-276.1124 130.1604,-272.1372 129.5298,-267.8917 128.8099,-263.97 128.2577,-260.0878 127.6476,-256.091 126.9624,-252.1572 126.455,-248.1367 125.9262,-244.3284 125.3464,-240.4998 124.6615,-236.5739 123.8507,-232.8407 123.1677,-229.1743 122.6567,-225.2229 122.1123,-221.0441 121.5072,-216.9383 120.7844,-212.9456 119.9146,-209.0671 119.1234,-205.0541 118.4149,-200.9359 117.5642,-197.2403 116.7894,-193.5661 116.0931,-189.6595 115.2621,-185.9681 114.5398,-182.3775 113.9446,-178.5929 113.2223,-174.7342 112.3549,-171.154 111.5769,-167.8213 110.847,-164.0386 109.9609,-160.5368 109.1431,-157.3173 108.346,-153.8161 107.3641,-150.511 106.3462,-147.1792 105.2706,-143.8245 104.1758,-140.7466 103.2562,-137.4803 102.3626,-134.2429 101.5177,-131.0273 100.6966,-127.633 99.6008,-123.9053 98.0861,-119.1871 96.5569,-114.6667 95.581,-111.5889 94.6164,-108.8033 93.6326,-106.0455 92.2009,-102.1863 90.0237,-97.1024 87.788,-91.936 85.7031,-86.7616 83.6461,-81.8428 81.4993,-77.4354 79.4805,-73.3246 77.5763,-69.1439 75.6446,-65.0752 73.6956,-61.2759 71.5635,-57.3843 69.3803,-53.4832 67.218,-49.8576 65.4664,-46.8861 63.7656,-44.0429 61.7358,-41.041 59.7639,-38.1633 57.5769,-35.1624 55.3234,-32.1596 53.1736,-29.5321 51.054,-27.2515 48.6732,-24.4611 46.2429,-21.7565 44.1434,-19.6073 41.6627,-17.2228 38.7621,-14.5643 35.8773,-11.7576 33.3663,-9.3933 31.0121,-7.4463 28.2295,-5.6469 25.3282,-3.9057 22.4811,-2.0307 19.8874,-0.1675 16.6628,1.605 13.166,2.9747 10.0747,3.755 6.7929,3.9117 2.9754,3.35 -0.1141,2.4631 -1.0154,2.0307 A2.2704,2.2704 0 0 1 1.0154,-2.0307 Z" stroke-linecap="round" fill="#40c057"/></g></g><g transform="matrix(1, 0, 0, 1, 2321.2568, 23722.6572) scale(0.9395537136368082, 0.9395537136368082)" opacity="0.25"><g transform="scale(1.0643351045138414)"><path d="M-0.3063,2.144 T-1.8639,1.9122 -5.3215,1.1407 -8.8988,0.1845 -12.1919,-0.6512 -15.0649,-1.6423 -18.3322,-2.9637 -22.0831,-5.0213 -25.1567,-7.4152 -27.9953,-9.7205 -31.0779,-12.2767 -33.8867,-14.7652 -36.4038,-16.828 -39.0564,-18.9669 -42.1143,-21.4804 -45.1891,-24.1276 -48.5039,-27.2653 -52.3339,-30.8854 -56.1293,-34.3974 -59.3126,-37.0207 -61.9063,-39.3045 -64.3878,-41.6136 -66.8064,-43.9451 -69.065,-46.3678 -71.2803,-48.6616 -73.6427,-51.2854 -75.7876,-53.7837 -78.9108,-57.5263 -82.6263,-62.236 -85.6394,-65.9783 -88.3453,-69.2857 -90.7298,-72.4465 -93.0239,-75.3545 -95.3436,-78.2191 -97.5394,-81.16 -99.6427,-84.3415 -101.7938,-87.4643 -104.0472,-90.6532 -106.355,-93.884 -108.6935,-97.1372 -111.0973,-100.6962 -113.4774,-104.3442 -115.6943,-108.1469 -117.9121,-111.8157 -120.1957,-115.5205 -122.5551,-119.5346 -124.9172,-123.6456 -127.0901,-127.631 -129.3334,-131.6741 -131.6604,-136.0784 -133.83,-140.7294 -136.0345,-145.2949 -138.2848,-149.6439 -140.4141,-154.0411 -142.4496,-158.6363 -144.2141,-163.1366 -145.8129,-167.5055 -147.3389,-172.0753 -148.8056,-176.4307 -150.2668,-180.7257 -151.7353,-185.2519 -153.186,-189.8542 -154.6301,-194.4961 -156.0663,-199.1611 -157.3112,-203.9778 -158.6066,-208.8644 -159.9521,-213.8807 -161.3085,-218.7116 -162.6887,-223.7384 -164.0858,-229.0972 -165.4723,-234.33 -166.872,-239.7864 -168.4587,-245.2124 -169.983,-250.6048 -171.4737,-256.3964 -172.9253,-262.3314 -174.3612,-268.3481 -175.7965,-274.6488 -177.2196,-280.8311 -178.8369,-286.8768 -180.3856,-293.3044 -181.8615,-299.552 -183.3019,-305.4875 -184.7378,-311.529 -186.3601,-317.4894 -188.0999,-323.2666 -189.9162,-329.2317 -191.7524,-335.008 -193.4113,-340.5758 -194.9581,-346.21 -196.6129,-351.4749 -198.1756,-356.5584 -199.6675,-361.4522 -201.1081,-365.9951 -202.5264,-370.3872 -203.9402,-374.702 -205.141,-378.5862 -206.0216,-382.3808 -206.6943,-385.9459 -207.2321,-389.1438 -207.5102,-392.3789 -207.9146,-396.1642 -208.2553,-401.1225 -208.2713,-403.8539 A2.5161,2.5161 0 0 1 -203.2487,-404.1661 T-203.086,-402.7896 -202.6054,-399.3281 -201.9354,-395.8096 -201.4536,-392.9968 -201.1249,-390.2505 -200.511,-387.1605 -199.8422,-383.8472 -199.021,-380.4866 -197.8362,-376.6995 -196.4106,-372.3634 -194.972,-367.9334 -193.5136,-363.329 -192.0266,-358.4497 -190.4679,-353.4163 -188.7307,-347.9209 -187.2159,-342.4174 -185.5963,-336.9664 -183.7425,-331.1056 -181.9316,-325.1132 -180.1633,-319.1685 -178.5039,-313.0012 -177.0871,-306.989 -175.6455,-301.0202 -174.1838,-294.7941 -172.6803,-288.5112 -171.028,-282.25 -169.6215,-276.0473 -168.2189,-269.8061 -166.8007,-263.8265 -165.3677,-257.9661 -163.9157,-252.3343 -162.3872,-247.0094 -160.7123,-241.3793 -159.2975,-235.9807 -157.8745,-230.731 -156.4717,-225.4704 -155.0698,-220.4706 -153.6783,-215.5562 -152.3314,-210.5084 -151.0401,-205.5695 -149.9077,-201.0224 -148.5203,-196.3562 -147.1375,-191.7196 -145.755,-187.1435 -144.3787,-182.6903 -142.9728,-178.3834 -141.53,-174.0094 -140.0664,-169.5992 -138.5232,-165.3559 -136.8566,-161.1074 -134.9125,-156.6947 -132.8652,-152.4269 -130.5651,-147.9181 -128.3444,-143.2686 -126.3264,-138.8707 -124.0822,-134.5413 -121.8698,-130.4395 -119.8062,-126.5539 -117.5044,-122.4791 -115.232,-118.5534 -112.945,-114.7851 -110.7084,-111.0142 -108.6824,-107.4401 -106.3772,-103.8401 -104.1089,-100.395 -101.8004,-97.107 -99.5086,-93.8316 -97.2525,-90.5716 -95.0652,-87.3541 -93.1547,-84.4104 -91.1089,-81.6344 -88.7547,-78.713 -86.3893,-75.7041 -84.1417,-72.6992 -81.4328,-69.3604 -78.3896,-65.5442 -74.8313,-60.9737 -71.7454,-57.2309 -69.7017,-54.8057 -67.4815,-52.3057 -65.2108,-49.9298 -63.1753,-47.7011 -60.8206,-45.4249 -58.463,-43.2091 -56.0928,-41.1252 -52.6447,-38.2578 -48.7343,-34.5852 -45.1068,-31.0401 -41.953,-27.9092 -38.8494,-25.081 -35.9294,-22.5467 -33.326,-20.3343 -30.7422,-18.1092 -28.2423,-15.7805 -25.2509,-13.2144 -22.4706,-10.8912 -19.9801,-8.8166 -16.7636,-6.9907 -13.6569,-5.7086 -10.6916,-4.659 -7.6219,-3.8798 -4.5313,-3.0667 -1.2485,-2.3568 0.3063,-2.144 A2.1658,2.1658 0 0 1 -0.3063,2.144 Z" stroke-linecap="round" fill="#40c057"/></g></g><g transform="matrix(1, 0, 0, 1, 2057.2422, 23272.611) scale(0.9395537136368082, 0.9395537136368082)" opacity="1"><g transform="scale(1.0643351045138414)"><path d="M-2.2939,0 T-2.2945,-2.2121 -3.1553,-6.1519 -4.9831,-8.2077 -5.9506,-8.5358 A2.3512,2.3512 0 0 1 -4.334,-12.9515 T-2.4064,-11.9108 0.4136,-9.6126 1.8005,-6.4116 2.2945,-2.2341 2.2939,0 A2.2939,2.2939 0 0 1 -2.2939,0 ZM-3.3041,-9.2778 T-3.9675,-8.4502 -5.1079,-5.0746 -5.6835,-1.0607 -5.3348,2.6674 -4.5172,6.2434 -3.3159,9.9212 -1.3476,13.8742 1.1325,17.3138 3.6189,21.4456 5.2594,26.3383 5.6527,31.5857 4.4746,36.79 2.4531,40.359 0.2046,42.1701 -2.4487,43.5827 -6.6894,44.4513 -12.146,43.6388 -15.8274,41.8652 -16.9411,41.1708 A1.9673,1.9673 0 0 1 -14.9989,37.7492 T-13.8318,38.3495 -10.9879,39.5503 -7.5312,39.9753 -3.7986,38.863 -0.7585,36.6611 0.7975,33.4698 1.0857,29.446 0.238,25.4376 -1.5059,21.8113 -3.949,18.2289 -6.1691,15.1514 -7.9327,11.4062 -9.2394,7.4426 -9.9614,4.552 -10.4439,1.5739 -10.4585,-1.644 -10.058,-4.76 -9.2099,-8.1599 -7.8002,-11.1774 -6.9806,-12.2095 A2.3512,2.3512 0 0 1 -3.3041,-9.2778 Z" stroke-linecap="round" fill="#40c057"/></g></g><g transform="matrix(1, 0, 0, 1, 2062.8795, 23290.4625) scale(0.9395537136368082, 0.9395537136368082)" opacity="1"><g transform="scale(1.0643351045138414)"><path d="M-0.3162,1.581 T-1.4256,1.4048 -4.432,2.0319 -8.6245,3.936 -12.1348,5.6056 -13.3496,6.1743 A1.6497,1.6497 0 0 1 -14.8304,3.2257 T-13.6487,2.5909 -10.2175,0.7709 -4.9395,-1.2661 -0.7975,-1.8495 0.3162,-1.581 A1.6123,1.6123 0 0 1 -0.3162,1.581 Z" stroke-linecap="round" fill="#40c057"/></g></g><g transform="matrix(1, 0, 0, 1, 2074.1542, 23260.3968) scale(0.9395537136368082, 0.9395537136368082)" opacity="1"><g transform="scale(1.0643351045138414)"><path d="M1.7849,0.4462 T1.3431,2.2254 0.4539,5.8306 -0.1967,9.404 -0.7365,13.0717 -1.2191,16.9932 -1.2126,20.8376 -0.7509,24.7635 0.1413,28.7124 1.2681,32.2947 2.4949,35.4584 3.779,38.1716 5.3828,40.7423 7.1725,42.8484 7.9597,43.6496 A2.0018,2.0018 0 0 1 5.2003,46.5504 T4.3608,45.8042 1.9809,43.1825 -0.1697,40.0166 -1.5519,37.0108 -2.8535,33.5412 -3.9932,29.5984 -4.871,25.1739 -5.2367,20.7952 -5.1129,16.4657 -4.5293,12.47 -3.8896,8.7075 -3.1456,4.9316 -2.2323,1.3315 -1.7849,-0.4462 A1.8399,1.8399 0 0 1 1.7849,0.4462 Z" stroke-linecap="round" fill="#40c057"/></g></g><g transform="matrix(1, 0, 0, 1, 2093.8848, 23273.5505) scale(0.9395537136368082, 0.9395537136368082)" opacity="1"><g transform="scale(1.0643351045138414)"><path d="M1.8,0.6 T1.3724,1.9409 0.2326,4.7826 -1.2668,7.9028 -2.9395,11.0925 -4.4695,14.0506 -6.0012,16.7773 -7.8618,19.2298 -9.8512,21.5115 -10.8673,22.6799 A1.7169,1.7169 0 0 1 -13.5527,20.5401 T-12.6406,19.2888 -10.2531,15.8847 -8.0633,12.1891 -6.4994,9.1872 -4.8323,6.1298 -3.3689,3.2926 -2.2616,0.7269 -1.8,-0.6 A1.8974,1.8974 0 0 1 1.8,0.6 Z" stroke-linecap="round" fill="#40c057"/></g></g><g transform="matrix(1, 0, 0, 1, 2083.5497, 23279.1878) scale(0.9395537136368082, 0.9395537136368082)" opacity="1"><g transform="scale(1.0643351045138414)"><path d="M0.9923,-1.4884 T2.3272,-0.6003 4.8815,1.235 7.0532,3.1993 9.6735,6.1184 12.4852,9.156 14.4466,10.9836 15.2643,11.6757 A1.8848,1.8848 0 0 1 12.9157,14.6243 T11.137,13.261 8.1693,10.2684 5.4026,6.8334 2.7491,4.1485 0.3405,2.3788 -0.9923,1.4884 A1.7889,1.7889 0 0 1 0.9923,-1.4884 Z" stroke-linecap="round" fill="#40c057"/></g></g><g transform="matrix(1, 0, 0, 1, 2107.9781, 23270.7318) scale(0.9395537136368082, 0.9395537136368082)" opacity="1"><g transform="scale(1.0643351045138414)"><path d="M1.2458,-0.8305 T2.139,0.5043 3.5806,3.1124 5.0708,6.3871 6.633,10.3755 7.6361,13.4305 8.019,14.4987 A1.534,1.534 0 0 1 5.141,15.5613 T4.3505,13.4715 2.8981,9.5388 1.3804,5.5961 -0.3605,2.1634 -1.2458,0.8305 A1.4972,1.4972 0 0 1 1.2458,-0.8305 Z" stroke-linecap="round" fill="#40c057"/></g></g><g transform="matrix(1, 0, 0, 1, 2116.4341, 23274.4901) scale(0.9395537136368082, 0.9395537136368082)" opacity="1"><g transform="scale(1.0643351045138414)"><path d="M1.2425,1.2425 T0.5844,1.9309 -1.2741,3.3548 -4.7989,4.8699 -9.3874,5.9853 -12.7747,6.4222 -13.898,6.5231 A1.8332,1.8332 0 0 1 -14.282,2.8769 T-12.2342,2.6291 -8.0356,1.8388 -4.2394,0.6724 -1.9182,-0.597 -1.2425,-1.2425 A1.7572,1.7572 0 0 1 1.2425,1.2425 Z" stroke-linecap="round" fill="#40c057"/></g></g><g transform="matrix(1, 0, 0, 1, 2119.2527, 23256.6385) scale(0.9395537136368082, 0.9395537136368082)" opacity="1"><g transform="scale(1.0643351045138414)"><path d="M1.7903,-0.5968 T2.2051,0.7469 3.5218,4.4899 4.9242,8.4907 5.9167,11.5588 6.9054,14.4609 7.7056,17.4566 8.3221,21.4974 8.5634,25.1765 8.4919,26.3748 A1.913,1.913 0 0 1 4.6681,26.2452 T4.7214,24.2728 4.2212,19.6991 3.2267,15.6315 2.3413,12.657 1.4651,9.6359 0.0958,5.684 -1.3159,1.9208 -1.7903,0.5968 A1.8871,1.8871 0 0 1 1.7903,-0.5968 Z" stroke-linecap="round" fill="#40c057"/></g></g><g transform="matrix(1, 0, 0, 1, 2123.9505, 23240.6661) scale(0.9395537136368082, 0.9395537136368082)" opacity="1"><g transform="scale(1.0643351045138414)"><path d="M1.1354,-1.4193 T2.2476,-0.5279 4.5065,1.5962 6.5729,4.4954 8.3992,8.0845 10.4505,12.2972 12.6982,17.1904 15.0933,23.8857 17.0792,31.0683 18.1573,36.9478 18.7355,42.1043 18.7812,46.5285 18.295,50.3651 17.2412,53.8805 15.6272,57.0072 13.8311,59.7668 12.9333,61.1355 A1.9436,1.9436 0 0 1 9.6067,59.1245 T11.0223,56.5714 12.9173,52.6733 13.6393,49.7929 13.9916,46.546 13.9411,42.5823 13.4931,37.7283 12.6239,32.2056 10.9146,25.3454 8.8292,18.8838 6.7933,13.9886 4.9259,9.7518 3.5256,6.5791 2.0005,4.2318 -0.0245,2.3064 -1.1354,1.4193 A1.8176,1.8176 0 0 1 1.1354,-1.4193 Z" stroke-linecap="round" fill="#40c057"/></g></g><g transform="matrix(1, 0, 0, 1, 2277.0978, 23786.5468) scale(0.9395537136368082, 0.9395537136368082)" opacity="1"><g transform="scale(1.0643351045138414)"><path d="M-0.9697,-2.4241 T0.112,-2.9508 3.2649,-4.002 6.9087,-5.0289 8.4811,-5.5313 A2.8627,2.8627 0 0 1 10.3189,-0.1087 T8.3059,0.6041 4.7728,1.5079 2.1111,2.0616 0.9697,2.4241 A2.6109,2.6109 0 0 1 -0.9697,-2.4241 Z" stroke-linecap="round" fill="#40c057"/></g></g><g transform="matrix(1, 0, 0, 1, 2312.8008, 23771.514) scale(0.9395537136368082, 0.9395537136368082)" opacity="1"><g transform="scale(1.0643351045138414)"><path d="M1.8547,-1.8547 T2.5884,-1.0503 3.7486,1.1306 4.0666,4.7833 3.8377,9.37 3.6972,13.8957 3.6867,17.9821 3.7086,21.3757 4.0916,24.1548 4.4624,25.4116 A2.7932,2.7932 0 0 1 -0.9769,26.6849 T-1.1459,25.9779 -1.5683,23.4152 -1.798,19.8954 -1.7266,15.9034 -1.5807,11.3326 -1.3649,7.6799 -0.9508,4.5918 -1.2545,2.3842 -1.8547,1.8547 A2.623,2.623 0 0 1 1.8547,-1.8547 ZM-1.0464,25.8987 T-0.8753,24.625 -0.7042,23.3514 A2.5879,2.5879 0 0 1 4.4642,23.6286 T4.4981,24.9132 4.532,26.1979 A2.7932,2.7932 0 0 1 -1.0464,25.8987 Z" stroke-linecap="round" fill="#40c057"/></g></g><g transform="matrix(1, 0, 0, 1, 2314.6799, 23772.4535) scale(0.9395537136368082, 0.9395537136368082)" opacity="1"><g transform="scale(1.0643351045138414)"><path d="M3.3751,1.9481 T2.4758,3.0517 0.6127,5.2469 -1.8451,7.6973 -4.9246,10.086 -8.2091,12.4706 -12.7179,15.4244 -15.5274,17.0235 A3.2429,3.2429 0 0 1 -18.2926,11.1565 T-16.172,10.0343 -11.9504,7.3219 -8.6611,5.0416 -5.3631,2.3212 -2.3742,-0.8286 -1.4951,-1.9481 A3.1185,3.1185 0 0 1 3.3751,1.9481 ZM-18.3603,11.1894 T-17.4136,10.7328 -16.4669,10.2762 A3.213,3.213 0 0 1 -13.5931,16.0238 T-14.5264,16.5072 -15.4597,16.9906 A3.2429,3.2429 0 0 1 -18.3603,11.1894 Z" stroke-linecap="round" fill="#40c057"/></g></g><g transform="matrix(1, 0, 0, 1, 2314.6799, 23773.3931) scale(0.9395537136368082, 0.9395537136368082)" opacity="1"><g transform="scale(1.0643351045138414)"><path d="M1.7625,-1.7625 T2.2487,-1.204 3.2422,0.9968 3.9026,4.0327 3.916,7.0155 3.7349,10.1137 3.7111,13.974 3.7441,18.2456 3.7746,21.8428 3.8008,25.3952 3.8114,27.2707 A2.8714,2.8714 0 0 1 -1.9314,27.2293 T-1.8937,25.3541 -1.8163,21.7894 -1.7155,18.1635 -1.5492,13.791 -1.1448,8.6188 -0.9011,4.1532 -1.3594,2.0932 -1.7625,1.7625 A2.4925,2.4925 0 0 1 1.7625,-1.7625 Z" stroke-linecap="round" fill="#40c057"/></g></g><g transform="matrix(1, 0, 0, 1, 2340.9874, 23722.6572) scale(0.9395537136368082, 0.9395537136368082)" opacity="0.25"><g transform="scale(1.0643351045138414)"><path d="M-1.3608,-1.3608 T-1.1335,-1.5781 -0.9062,-1.7954 A1.9103,1.9103 0 0 1 1.7954,0.9062 T1.5781,1.1335 1.3608,1.3608 A1.9245,1.9245 0 0 1 -1.3608,-1.3608 ZM2.3114,-0.8499 T2.5308,0.2748 2.774,3.3085 2.8029,7.3067 2.8079,9.396 A1.8679,1.8679 0 0 1 -0.9279,9.404 T-0.9335,7.3254 -0.9771,3.4268 -1.2186,0.7837 -1.4222,-0.0393 A1.9103,1.9103 0 0 1 2.3114,-0.8499 ZM-0.9279,9.4018 T-0.9289,8.5839 -0.9362,6.0752 -0.9516,2.1919 -0.9664,-1.4103 -0.972,-2.82 A1.912,1.912 0 0 1 2.852,-2.82 T2.8463,-1.4102 2.8313,2.1922 2.8144,6.0867 2.8073,8.5934 2.8079,9.3982 A1.8679,1.8679 0 0 1 -0.9279,9.4018 ZM2.852,-2.82 T2.8558,-2.2335 2.883,0.4636 2.9362,4.3483 3.274,7.6757 3.5819,9.2291 A2.0927,2.0927 0 0 1 -0.3441,10.6799 T-0.7151,8.4012 -1.0562,4.3483 -1.003,0.4636 -0.9758,-2.2335 -0.972,-2.82 A1.912,1.912 0 0 1 2.852,-2.82 ZM-0.4619,9.7314 T-0.4048,9.1552 -0.3083,6.3249 -0.2648,2.495 -0.2618,-0.4825 -0.2628,-1.8843 A2.1429,2.1429 0 0 1 4.0228,-1.8757 T4.0187,-1.1364 4.0079,1.1083 3.9809,4.3733 3.8966,7.5798 3.7662,9.6023 3.6998,10.1777 A2.0927,2.0927 0 0 1 -0.4619,9.7314 ZM4.0229,-1.8797 T4.0358,-0.9544 4.0863,1.9011 4.1651,5.7252 4.2473,9.4993 4.3107,12.7348 4.333,14.09 A2.453,2.453 0 0 1 -0.573,14.09 T-0.5507,12.7348 -0.4873,9.4994 -0.4052,5.7253 -0.3266,1.9017 -0.276,-0.9541 -0.2629,-1.8803 A2.1429,2.1429 0 0 1 4.0229,-1.8797 ZM-0.573,14.09 T-0.5785,13.1168 -0.5879,9.8069 -0.5839,5.2291 -0.5683,1.6144 -0.5498,-2.2296 -0.539,-4.7 A2.419,2.419 0 0 1 4.299,-4.7 T4.3098,-2.2296 4.3283,1.6144 4.3439,5.2291 4.3479,9.8069 4.3385,13.1168 4.333,14.09 A2.453,2.453 0 0 1 -0.573,14.09 ZM4.299,-4.7 T4.3007,-4.094 4.3188,-2.0061 4.3571,1.2453 4.3918,4.7974 4.4046,6.58 A2.5246,2.5246 0 0 1 -0.6446,6.58 T-0.6318,4.7974 -0.5971,1.2453 -0.5588,-2.0061 -0.5407,-4.094 -0.539,-4.7 A2.419,2.419 0 0 1 4.299,-4.7 ZM-0.6446,6.58 T-0.5913,5.64 -0.5381,4.7 A2.4181,2.4181 0 0 1 4.2981,4.7 T4.3513,5.64 4.4046,6.58 A2.5246,2.5246 0 0 1 -0.6446,6.58 Z" stroke-linecap="round" fill="#e03131"/></g></g><g transform="matrix(1, 0, 0, 1, 2339.1083, 23724.5363) scale(0.9395537136368082, 0.9395537136368082)" opacity="1"><g transform="scale(1.0643351045138414)"><path d="M3.2262,0 T3.2547,1.3339 3.3199,4.2599 3.3883,7.9151 3.4281,10.7282 3.4361,11.4784 A2.4961,2.4961 0 0 1 -1.5561,11.4784 T-1.5481,10.7282 -1.5083,7.9151 -1.4399,4.2599 -1.3747,1.3339 -1.3462,0 A2.2862,2.2862 0 0 1 3.2262,0 ZM2.4731,13.4482 T2.2491,13.619 2.0251,13.7899 A2.4905,2.4905 0 0 1 -1.0343,9.859 T-0.8137,9.6838 -0.5931,9.5086 A2.4961,2.4961 0 0 1 2.4731,13.4482 ZM-1.9726,12.1589 T-2.1379,10.7723 -2.3161,7.1311 -2.3123,2.8954 -2.2967,-0.6561 -2.2979,-2.2267 A2.3008,2.3008 0 0 1 2.3038,-2.2356 T2.3103,-0.6738 2.3611,2.8516 2.4919,6.8989 2.7708,10.2362 2.9634,11.49 A2.4905,2.4905 0 0 1 -1.9726,12.1589 ZM0.8103,-4.3857 T1.0344,-4.3092 1.2584,-4.2327 A2.3148,2.3148 0 0 1 -0.3661,0.1026 T-0.5852,0.013 -0.8044,-0.0766 A2.3008,2.3008 0 0 1 0.8103,-4.3857 ZM2.6148,-2.8746 T3.0643,-1.7942 4.0743,1.258 4.9951,5.6659 5.4768,9.7852 5.5982,11.4685 A2.8315,2.8315 0 0 1 -0.0618,11.6528 T-0.0749,10.0466 -0.2125,6.4431 -0.6779,2.6613 -1.3706,-0.1894 -1.7225,-1.2555 A2.3148,2.3148 0 0 1 2.6148,-2.8746 ZM4.4392,13.8465 T4.2311,14.0027 4.0229,14.1589 A2.8379,2.8379 0 0 1 0.6733,9.5768 T0.8853,9.4258 1.0972,9.2748 A2.8315,2.8315 0 0 1 4.4392,13.8465 ZM-0.3293,12.8088 T-0.6493,11.8593 -1.2572,9.2848 -1.6661,5.2429 -1.8198,1.0195 -1.62,-2.1417 -1.3877,-3.4965 A2.8344,2.8344 0 0 1 4.171,-2.3846 T3.9875,-0.73 3.8683,2.9502 4.0164,6.6738 4.5628,9.6492 5.0255,10.9268 A2.8379,2.8379 0 0 1 -0.3293,12.8088 ZM2.0712,-5.6923 T2.1873,-5.6664 2.3034,-5.6404 A2.8397,2.8397 0 0 1 0.9419,-0.1266 T0.827,-0.1577 0.7122,-0.1888 A2.8344,2.8344 0 0 1 2.0712,-5.6923 ZM4.4508,-3.1398 T4.596,-1.8383 4.7963,1.0065 5.2363,4.4972 5.786,8.2943 5.9508,10.1438 A3.1369,3.1369 0 0 1 -0.3108,10.5362 T-0.4791,8.506 -0.8799,4.5274 -1.0844,1.0991 -1.131,-1.504 -1.2055,-2.6273 A2.8397,2.8397 0 0 1 4.4508,-3.1398 ZM-0.3169,10.34 T-0.2787,8.93 -0.2404,7.52 A3.0604,3.0604 0 0 1 5.8804,7.52 T5.9187,8.93 5.9569,10.34 A3.1369,3.1369 0 0 1 -0.3169,10.34 Z" stroke-linecap="round" fill="#e03131"/></g></g><g transform="matrix(1, 0, 0, 1, 2340.0717, 23746.6672) scale(0.3648037564113888, 0.3648037564113888)" opacity="1"><g transform="scale(2.741199843546296)"><path d="M1.1621,-0.3159 T1.449,0.6246 1.9806,2.5123 2.4364,4.5858 2.8433,6.4799 3.2955,8.1961 3.5518,9.1445 A1.0565,1.0565 0 0 1 1.5482,9.8155 T1.1816,8.9041 0.4518,7.0913 -0.1061,5.1271 -0.5027,3.1464 -0.9334,1.2721 -1.1621,0.3159 A1.2043,1.2043 0 0 1 1.1621,-0.3159 Z" stroke-linecap="round" fill="#e03131"/></g></g><g transform="matrix(1, 0, 0, 1, 2348.4622, 23756.8817) scale(0.3648037564113888, 0.3648037564113888)" opacity="1"><g transform="scale(2.741199843546296)"><path d="M0.7389,0.9211 T0.31,1.2707 -1.5201,2.3073 -4.0558,3.591 -6.3202,4.7416 -8.7647,5.8835 -10.0793,6.4717 A1.1199,1.1199 0 0 1 -11.0807,4.4683 T-10.4158,4.1024 -8.6606,3.1489 -6.4275,1.9837 -4.5657,1.0576 -2.7247,0.2349 -1.1708,-0.5802 -0.7389,-0.9211 A1.1808,1.1808 0 0 1 0.7389,0.9211 Z" stroke-linecap="round" fill="#e03131"/></g></g><g transform="matrix(1, 0, 0, 1, 2341.1661, 23766.0018) scale(0.3648037564113888, 0.3648037564113888)" opacity="1"><g transform="scale(2.741199843546296)"><path d="M0,-1.3655 T0.6906,-1.3548 2.2395,-1.3416 4.0327,-1.1918 5.4988,-0.5389 6.284,1.3057 6.3259,3.4136 5.8061,4.8468 4.8504,6.4371 3.6417,8.1142 3.6105,9.3833 4.9728,9.9111 6.5092,9.7545 8.3525,9.2574 10.7021,8.5954 11.9122,8.2647 A1.6587,1.6587 0 0 1 12.8878,11.4353 T12.2546,11.6507 10.4109,12.241 8.4844,12.782 6.6867,13.0768 4.2557,12.9366 2.0671,12.119 0.814,10.9462 0.4457,9.2848 0.9433,7.4447 1.9372,5.8789 2.9691,4.2427 3.2787,2.3541 2.2395,1.3416 0.6906,1.3548 0,1.3655 A1.3655,1.3655 0 0 1 0,-1.3655 Z" stroke-linecap="round" fill="#e03131"/></g></g><g transform="matrix(1, 0, 0, 1, 2344.2225, 23722.1993) scale(0.8573392505080177, 0.8573392505080177)" opacity="1"><g transform="scale(1.1663994147094612)"><path d="M2.1896,0.7363 T1.7545,1.9687 1.3195,3.2012 A2.271,2.271 0 0 1 -2.9856,1.7536 T-2.5876,0.5087 -2.1896,-0.7363 A2.31,2.31 0 0 1 2.1896,0.7363 ZM-1.2077,0.2376 T-0.3842,0.1321 1.5185,-0.8297 3.8025,-2.5245 6.0065,-4.5656 7.8153,-6.7837 9.541,-9.0881 11.2282,-11.5015 12.8378,-14.1722 14.4301,-16.9569 15.9794,-19.697 17.6671,-22.9977 19.4736,-26.3134 20.8245,-29.0597 21.7322,-31.6283 23.0728,-34.877 24.2608,-38.0619 24.9953,-40.6872 25.8634,-43.4397 27.105,-46.8489 28.3433,-50.5942 29.219,-53.8735 30.0596,-56.8446 30.8201,-59.8498 31.6579,-62.9118 32.5914,-65.7044 33.4516,-68.5114 34.2982,-71.4993 35.5281,-75.0504 36.7454,-78.3847 37.5814,-80.9349 38.3481,-83.8413 39.1605,-87.1268 40.0472,-90.7689 40.9484,-94.0393 41.7503,-96.8639 42.5846,-99.8709 43.4749,-102.6862 44.2501,-106.2148 44.7982,-109.7529 45.3195,-112.7546 46.0893,-116.2514 46.898,-120.1623 47.7449,-124.0441 48.5297,-128.2582 49.2546,-132.6394 49.803,-136.2967 50.3497,-139.534 51.0433,-142.9081 51.5284,-146.2765 52.068,-149.5367 52.7759,-153.0985 53.2441,-156.6802 53.7487,-160.3026 54.4639,-164.1376 54.9773,-167.9492 55.5042,-171.499 55.9261,-174.7965 56.0146,-177.9517 56.3538,-181.3767 57.0287,-185.2367 57.493,-188.475 57.8598,-191.1593 58.276,-194.6565 58.6946,-198.1267 59.1144,-201.5687 59.6337,-205.779 60.4071,-210.0679 61.1633,-214.6171 61.6632,-219.1363 62.1837,-223.409 62.8637,-228.126 63.5673,-233.536 64.081,-237.6768 64.5346,-241.6329 65.04,-246.421 65.4664,-250.1686 65.8855,-254.6455 66.3062,-259.2561 66.7315,-263.4433 67.1565,-267.6642 67.5226,-270.8359 67.6972,-273.7265 68.0113,-277.0526 68.4396,-281.5419 68.864,-286.1282 69.2258,-289.8566 69.6156,-294.0058 70.0291,-297.8675 70.2324,-301.1735 70.5635,-304.5388 70.9328,-307.9024 71.3185,-311.6399 71.7309,-315.0915 71.9302,-318.1442 72.0342,-321.3537 72.3042,-324.863 72.6435,-328.3326 72.808,-331.2025 73.1072,-334.6832 73.4649,-338.3629 73.6408,-341.9627 73.7322,-345.6563 73.9917,-349.4069 74.3256,-353.41 74.487,-357.1806 74.5702,-360.5887 74.8249,-364.3617 75.1589,-368.5804 75.3252,-372.2813 75.411,-375.8456 75.6668,-379.5346 75.9983,-383.0987 76.1583,-386.4057 76.2449,-389.5729 76.5062,-393.0488 76.8432,-396.8944 77.008,-400.3706 77.3243,-403.6589 77.7584,-407.3895 78.0064,-411.4193 78.1145,-414.6301 78.1514,-415.8641 A3.299,3.299 0 0 1 84.7486,-415.7559 T84.7433,-413.3797 84.6364,-408.9112 84.4016,-405.5439 84.0543,-402.9963 83.7771,-400.0425 83.5875,-396.2872 83.2519,-392.568 83.0091,-389.3814 82.9107,-386.0633 82.7198,-382.4585 82.3854,-379.0551 82.1407,-375.6713 82.0395,-371.9717 81.8509,-368.0464 81.5115,-363.9509 81.2604,-360.4114 81.1557,-356.8727 80.9604,-352.8466 80.6177,-348.9751 80.3649,-345.4845 80.2563,-341.5946 80.0525,-337.7245 79.6899,-334.1589 79.3941,-330.8202 79.2014,-327.679 78.863,-324.3557 78.6099,-321.1234 78.4842,-317.6977 78.2476,-314.3168 77.8329,-310.9455 77.2,-305.9573 76.7454,-300.7472 76.5159,-297.1878 76.1081,-293.4073 75.7115,-289.2122 75.3529,-285.5708 74.922,-280.9523 74.4904,-276.448 74.1956,-273.3122 73.9868,-270.0895 73.6254,-267.0551 73.1908,-262.8205 72.757,-258.6552 72.4571,-255.301 72.2443,-252.0673 71.8156,-248.4775 71.3782,-244.6888 70.9287,-240.7635 70.464,-236.7899 70.0504,-233.8832 69.6541,-231.048 69.2199,-227.2633 68.5655,-222.8958 68.1274,-219.5613 67.6856,-216.1407 67.235,-212.7166 66.7401,-209.312 66.1685,-205.8969 65.7377,-202.7917 65.3138,-199.6206 64.8721,-196.1786 64.2182,-191.7467 63.5822,-187.2977 63.0893,-183.9131 62.5545,-180.9774 62.213,-177.7743 62.0612,-174.1325 61.6176,-170.7967 61.1682,-167.7646 60.6965,-164.6395 60.1164,-161.2577 59.6109,-157.5677 58.9814,-154.0515 58.3668,-150.2287 57.8607,-146.9831 57.2478,-143.6011 56.6177,-139.7832 56.0975,-136.7508 55.4341,-133.3862 54.6795,-129.6112 54.189,-126.2773 53.6223,-123.0605 52.7713,-119.3701 51.9139,-115.3913 51.1316,-111.9958 50.5376,-108.7233 50.0118,-105.5187 49.3309,-102.62 48.5718,-99.651 47.6526,-96.7381 46.6628,-93.8436 45.779,-90.5093 44.8998,-87.2604 44.0287,-84.1322 43.1391,-80.8379 42.2525,-78.0019 41.3801,-75.4457 40.5021,-72.932 39.6458,-70.3328 38.7759,-67.4619 37.8516,-64.4826 36.8696,-61.4944 36.0512,-58.6893 35.3105,-55.9096 34.4336,-52.9139 33.5543,-49.9578 32.6854,-47.2533 31.4771,-44.1432 30.2581,-40.8982 29.4512,-37.8793 28.4843,-35.1062 27.4177,-32.398 26.187,-29.2428 24.985,-26.3462 23.7326,-23.7169 22.3105,-21.0341 20.7456,-18.2577 19.1404,-15.7242 17.7959,-13.1733 16.3117,-10.6387 14.4363,-8.2472 12.6502,-5.6747 11.0717,-3.4488 9.1707,-1.3073 6.4488,0.9551 3.3509,3.1322 0.7498,4.4828 -0.4583,4.7172 A2.271,2.271 0 0 1 -1.2077,0.2376 Z" stroke-linecap="round" fill="#e03131"/></g></g><g transform="matrix(1, 0, 0, 1, 2341.6505, 23723.0566) scale(0.8573392505080177, 0.8573392505080177)" opacity="1"><g transform="scale(1.1663994147094612)"><path d="M-0.5751,1.7287 T-1.7944,1.312 -4.6832,-0.3144 -7.7456,-2.516 -10.3246,-4.7807 -12.4534,-7.341 -14.207,-9.6119 -15.6616,-11.9285 -17.1322,-14.6996 -18.6541,-17.6761 -20.0237,-20.6409 -21.6109,-23.5763 -23.5908,-26.8945 -25.6081,-30.4804 -27.4977,-34.2603 -29.3236,-38.0098 -30.8214,-41.5679 -32.2055,-45.0173 -33.7472,-48.7936 -35.1884,-52.4065 -36.4548,-55.339 -37.7132,-58.0348 -38.9997,-60.6694 -40.1587,-63.4123 -41.3552,-66.1907 -42.7443,-68.9245 -44.1318,-71.6556 -45.5119,-74.5712 -47.023,-77.654 -48.6057,-80.6341 -50.1202,-83.75 -51.5676,-87.0722 -53.0847,-90.3114 -54.5528,-93.77 -55.9655,-97.4625 -57.4786,-101.1 -58.9392,-104.9604 -60.3272,-108.819 -61.4686,-112.0917 -62.686,-115.6348 -64.1402,-119.9026 -65.3705,-124.3475 -66.5947,-128.5984 -67.8541,-132.8647 -68.9617,-137.2624 -69.9524,-141.6096 -70.8835,-145.9281 -71.777,-149.9968 -72.6387,-153.4898 -73.5246,-157.4512 -74.4185,-162.0417 -75.2818,-166.4248 -76.1478,-170.7615 -77.0156,-175.0724 -77.8873,-179.5997 -78.7564,-184.2154 -79.6182,-188.6482 -80.485,-193.2381 -81.3478,-197.889 -82.2141,-202.7926 -83.0819,-207.8099 -83.9448,-212.6639 -84.8124,-217.6755 -85.6741,-222.5232 -86.5365,-227.3083 -87.4004,-232.2867 -88.2607,-237.3432 -89.1172,-242.2151 -89.976,-247.0135 -90.6508,-251.9041 -91.2082,-256.7093 -91.7049,-261.6878 -92.173,-266.5257 -92.6267,-271.0977 -93.0729,-275.5275 -93.5167,-279.8916 -93.9617,-284.2179 -94.406,-288.7382 -94.8477,-293.3552 -95.2859,-297.8038 -95.7247,-302.1688 -96.162,-306.5002 -96.5942,-310.586 -97.0309,-314.5685 -97.4662,-318.7136 -97.9016,-322.708 -98.3414,-326.6302 -98.7839,-330.7375 -99.2235,-334.7085 -99.6655,-338.8449 -100.1081,-343.0546 -100.7279,-346.9261 -101.4539,-350.7815 -102.0619,-354.8008 -102.5865,-358.7466 -103.236,-362.2543 -103.8037,-365.9015 -104.3051,-369.443 -104.7676,-372.9332 -105.2145,-376.3918 -105.6507,-379.6178 -106.0818,-382.7292 -106.513,-385.7916 -106.762,-388.8134 -107.213,-392.517 -107.6894,-397.0936 -107.8218,-401.4022 -108.0141,-405.4308 -108.3489,-409.8462 -108.8352,-414.6146 -109.1734,-419.1388 -109.1671,-422.3502 -109.143,-423.43 A2.8347,2.8347 0 0 1 -103.477,-423.63 T-103.2821,-421.629 -102.8807,-417.5189 -102.4037,-413.9772 -101.9709,-410.5521 -101.572,-407.1072 -101.3096,-403.631 -101.2281,-399.5123 -101.0071,-395.4123 -100.5627,-392.0274 -100.2101,-389.342 -100.0032,-386.6962 -99.5693,-383.6267 -99.1309,-380.4875 -98.6889,-377.2379 -98.2413,-373.8033 -97.7784,-370.3704 -97.2865,-366.923 -96.7325,-363.4569 -96.0254,-359.6238 -95.5195,-355.7974 -94.944,-351.9975 -94.1962,-347.9448 -93.554,-343.7392 -93.137,-339.5425 -92.7195,-335.4192 -92.3001,-331.4182 -91.8847,-327.3271 -91.4685,-323.3844 -91.0512,-319.375 -90.6315,-315.2617 -90.2086,-311.2652 -89.7818,-307.1308 -89.3609,-302.7929 -88.9432,-298.4085 -88.5279,-293.9467 -88.113,-289.3477 -87.6948,-284.8441 -87.275,-280.511 -86.8496,-276.1445 -86.4185,-271.6995 -85.9793,-267.123 -85.5251,-262.3023 -85.0435,-257.417 -84.5073,-252.7409 -83.8701,-248.1042 -83.011,-243.2879 -82.1517,-238.3793 -81.2999,-233.3409 -80.4497,-228.3993 -79.5944,-223.5967 -78.7405,-218.715 -77.8965,-213.7285 -77.0463,-208.8465 -76.1983,-203.8529 -75.3524,-198.9964 -74.5009,-194.3626 -73.6499,-189.7983 -72.7956,-185.3245 -71.9521,-180.7315 -71.109,-176.2486 -70.2577,-171.9262 -69.4053,-167.5727 -68.5518,-163.1668 -67.7227,-158.7714 -66.874,-154.9088 -65.988,-151.2562 -65.1087,-147.16 -64.2109,-142.9054 -63.2659,-138.6768 -62.2441,-134.5022 -60.9978,-130.1943 -59.7739,-125.8672 -58.6746,-121.7359 -57.2429,-117.4221 -56.0629,-113.9077 -54.9708,-110.7177 -53.6554,-106.9353 -52.2929,-103.2257 -50.7557,-99.4187 -49.4588,-95.9051 -48.0923,-92.6189 -46.5371,-89.2166 -45.2332,-86.0934 -43.8338,-83.136 -42.2029,-79.977 -40.6946,-76.7959 -39.4237,-73.9826 -38.0878,-71.2282 -36.6156,-68.1663 -35.4613,-65.3323 -34.4663,-62.8109 -33.2092,-60.0785 -31.9477,-57.2125 -30.7392,-54.2047 -29.5329,-51.1014 -28.5063,-48.0923 -27.2642,-44.6533 -25.9883,-41.1962 -24.5928,-37.7698 -22.8693,-34.1516 -21.0755,-30.6521 -19.2989,-27.2867 -17.7703,-24.6102 -16.386,-21.9118 -15.12,-18.9986 -13.8355,-16.4144 -12.2107,-13.4846 -10.4546,-10.6116 -8.2728,-7.8565 -5.4968,-5.3016 -2.9493,-3.3889 -0.6368,-2.1208 0.5751,-1.7287 A1.8219,1.8219 0 0 1 -0.5751,1.7287 Z" stroke-linecap="round" fill="#e03131"/></g></g><g transform="matrix(1, 0, 0, 1, 2207.9056, 23236.9453) scale(0.8573392505080177, 0.8573392505080177)" opacity="1"><g transform="scale(1.1663994147094612)"><path d="M-1.8443,1.3819 T-2.4368,0.5693 -4.5805,-0.6402 -6.1317,-1.0371 A2.2861,2.2861 0 0 1 -5.362,-5.5441 T-4.1372,-5.3165 -1.1572,-4.0452 1.2212,-2.1917 1.8443,-1.3819 A2.3045,2.3045 0 0 1 -1.8443,1.3819 ZM-4.3176,-1.5063 T-4.7389,-1.188 -4.7963,0.467 -3.7155,3.7022 -2.0004,7.7227 -0.3083,11.0607 1.8176,14.5731 4.0233,18.8808 5.3351,22.7215 5.6509,27.0374 4.0946,31.6399 0.9255,35.3078 -2.6873,37.9018 -6.3662,39.4074 -9.5758,39.5758 -12.2775,37.45 -13.882,34.895 -14.0929,34.1708 A2.2168,2.2168 0 0 1 -9.9071,32.7092 T-8.8476,33.7536 -6.4271,34.2581 -3.6241,32.8323 -0.9518,30.5747 0.7125,27.8624 0.9317,25.1533 0.1976,22.1197 -1.1253,18.7056 -2.7874,15.7656 -4.415,13.2197 -6.2395,9.614 -8.0431,5.3665 -9.2301,1.3047 -8.9346,-2.4882 -7.6881,-4.6455 -7.1761,-5.0748 A2.2861,2.2861 0 0 1 -4.3176,-1.5063 Z" stroke-linecap="round" fill="#e03131"/></g></g><g transform="matrix(1, 0, 0, 1, 2216.479, 23253.2347) scale(0.8573392505080177, 0.8573392505080177)" opacity="1"><g transform="scale(1.1663994147094612)"><path d="M0.3499,2.0915 T-0.8492,2.3156 -4.0177,3.5106 -8.4573,5.6895 -12.6746,7.8016 -14.4214,8.7056 A2.1032,2.1032 0 0 1 -16.4386,5.0144 T-14.7344,4.0324 -11.4226,2.1172 -7.658,0.3084 -4.1576,-1.1468 -1.582,-1.9089 -0.3499,-2.0915 A2.1205,2.1205 0 0 1 0.3499,2.0915 Z" stroke-linecap="round" fill="#e03131"/></g></g><g transform="matrix(1, 0, 0, 1, 2219.9083, 23225.7999) scale(0.8573392505080177, 0.8573392505080177)" opacity="1"><g transform="scale(1.1663994147094612)"><path d="M2.3049,0.289 T2.1005,1.911 1.8049,5.3254 1.6843,9.8827 1.843,14.3961 2.7141,18.3272 3.945,21.8745 5.3633,24.9059 7.8083,28.4844 10.5071,31.213 12.4545,32.5946 13.2777,33.159 A2.3657,2.3657 0 0 1 10.7223,37.141 T9.8663,36.6278 7.3022,34.901 4.6666,32.6307 2.7267,30.23 0.7662,26.9715 -0.7777,23.4755 -2.0892,19.2501 -2.964,14.5805 -3.0396,9.7025 -2.8328,4.9033 -2.5072,1.3337 -2.3049,-0.289 A2.323,2.323 0 0 1 2.3049,0.289 Z" stroke-linecap="round" fill="#e03131"/></g></g><g transform="matrix(1, 0, 0, 1, 2231.0537, 23235.2306) scale(0.8573392505080177, 0.8573392505080177)" opacity="1"><g transform="scale(1.1663994147094612)"><path d="M-2.1846,-1.0891 T-1.7597,-1.9105 0.2628,-4.1685 3.8206,-6.0475 7.7386,-5.942 10.9405,-4.1033 12.8005,-1.3423 13.5103,1.9239 13.3925,5.0835 12.3933,8.5318 10.4529,12.5866 8.8318,15.4293 8.3634,16.3018 A2.4485,2.4485 0 0 1 4.039,14.0039 T5.0556,12.1188 6.9027,8.775 8.1755,5.5419 8.4632,2.0079 7.2744,-0.7151 4.5964,-1.0956 2.5685,0.2881 2.1846,1.0891 A2.4411,2.4411 0 0 1 -2.1846,-1.0891 ZM8.2898,13.875 T8.4457,14.2627 9.8955,14.2696 12.0544,13.6188 12.9195,13.3487 A2.2299,2.2299 0 0 1 14.5205,17.5113 T13.6974,17.8905 10.8916,18.8711 7.2375,19.0064 4.8394,17.4855 4.1127,16.4307 A2.4485,2.4485 0 0 1 8.2898,13.875 Z" stroke-linecap="round" fill="#e03131"/></g></g><g transform="matrix(1, 0, 0, 1, 2258.4886, 23230.9439) scale(0.8573392505080177, 0.8573392505080177)" opacity="1"><g transform="scale(1.1663994147094612)"><path d="M1.7368,0.2489 T1.5864,1.6822 0.7146,5.1103 -0.5733,8.4719 -2.1242,11.8381 -3.9511,14.8196 -5.561,16.6333 -6.3285,17.465 A1.8212,1.8212 0 0 1 -9.1115,15.115 T-7.9531,13.6504 -5.8246,10.2028 -4.2606,6.9201 -2.9581,4.0905 -1.9931,1.1558 -1.7368,-0.2489 A1.7546,1.7546 0 0 1 1.7368,0.2489 Z" stroke-linecap="round" fill="#e03131"/></g></g><g transform="matrix(1, 0, 0, 1, 2247.3432, 23233.5159) scale(0.8573392505080177, 0.8573392505080177)" opacity="1"><g transform="scale(1.1663994147094612)"><path d="M0.233,-1.3924 T1.4695,-1.2178 4.2109,-0.2869 6.8778,1.267 10.1892,3.9367 13.5358,7.1207 14.733,8.4329 A1.4214,1.4214 0 0 1 12.707,10.4271 T11.4139,9.2093 8.1005,6.3626 4.1183,3.2951 0.9618,1.6245 -0.233,1.3924 A1.4118,1.4118 0 0 1 0.233,-1.3924 Z" stroke-linecap="round" fill="#e03131"/></g></g><g transform="matrix(1, 0, 0, 1, 2270.4913, 23225.7999) scale(0.8573392505080177, 0.8573392505080177)" opacity="1"><g transform="scale(1.1663994147094612)"><path d="M1.0922,-0.9357 T2.3486,0.4502 4.5456,3.2671 6.1589,5.839 7.5721,9.2406 8.3126,11.5014 A1.5358,1.5358 0 0 1 5.4074,12.4986 T5.0043,11.3974 3.6768,8.3482 2.0049,5.1201 0.0826,2.3878 -1.0922,0.9357 A1.4382,1.4382 0 0 1 1.0922,-0.9357 Z" stroke-linecap="round" fill="#e03131"/></g></g><g transform="matrix(1, 0, 0, 1, 2279.9221, 23230.9439) scale(0.8573392505080177, 0.8573392505080177)" opacity="1"><g transform="scale(1.1663994147094612)"><path d="M0,1.7455 T-1.4081,1.7835 -4.8824,2.447 -9.0975,4.0434 -11.2465,5.0143 A1.7543,1.7543 0 0 1 -12.7535,1.8457 T-11.5514,1.2378 -8.2161,-0.1751 -4.4712,-1.4008 -1.4299,-1.7835 0,-1.7455 A1.7455,1.7455 0 0 1 0,1.7455 Z" stroke-linecap="round" fill="#e03131"/></g></g><g transform="matrix(1, 0, 0, 1, 2280.7794, 23218.9411) scale(0.8573392505080177, 0.8573392505080177)" opacity="1"><g transform="scale(1.1663994147094612)"><path d="M1.3326,-1.3326 T2.1547,-0.5204 3.9743,1.9133 5.6657,4.9687 6.9383,7.7738 7.8559,10.6152 8.5155,13.542 8.8361,14.9988 A2.0226,2.0226 0 0 1 4.8839,15.8612 T4.3365,13.2575 3.2846,9.3678 2.1904,6.78 0.9343,4.2156 -0.5323,2.1428 -1.3326,1.3326 A1.8846,1.8846 0 0 1 1.3326,-1.3326 Z" stroke-linecap="round" fill="#e03131"/></g></g><g transform="matrix(1, 0, 0, 1, 2279.9221, 23204.3664) scale(0.8573392505080177, 0.8573392505080177)" opacity="1"><g transform="scale(1.1663994147094612)"><path d="M0.9251,-1.6183 T2.3293,-0.7821 5.7552,1.4339 8.9658,4.1078 11.4055,6.8659 13.8328,10.2107 16.4709,14.8841 18.9476,19.9945 20.52,24.0125 21.4146,27.9786 21.6939,31.9566 21.3519,35.2195 20.6741,38.0363 19.3405,41.48 18.4008,43.6579 A2.2531,2.2531 0 0 1 14.1792,42.0821 T14.8292,40.0014 15.9362,35.6704 16.4737,32.1469 16.3827,29.0196 15.803,25.6601 14.5778,21.9348 12.5178,16.9743 10.3978,12.5363 8.4098,9.3624 6.3128,6.6798 3.6346,4.3321 0.5087,2.4045 -0.9251,1.6183 A1.8641,1.8641 0 0 1 0.9251,-1.6183 Z" stroke-linecap="round" fill="#e03131"/></g></g></svg>