<svg xmlns="http://www.w3.org/2000/svg" direction="ltr" width="634.9422892105231" height="532.451655490353" viewBox="2088.571589952611 22688.299571649906 634.9422892105231 532.451655490353" stroke-linecap="round" stroke-linejoin="round" style="background-color: transparent;"><defs/><g transform="matrix(1, 0, 0, 1, 2318.9016, 22754.0312) scale(1.0016576656079599, 1.0016576656079599)" opacity="0.5"><g transform="scale(0.998345077699821)"><path d="M1.9522,-0.2785 T2.1969,1.3783 2.5825,4.6824 2.7985,7.9104 2.9148,11.0363 3.2092,14.208 3.6157,17.7787 4.0866,21.8198 4.8132,25.9531 5.6868,30.2681 6.4131,34.7895 7.043,39.3001 7.6196,43.8099 7.9419,48.186 8.3506,52.2652 8.8234,56.5574 9.1003,61.3198 9.2576,65.9522 9.3545,70.5269 9.1731,75.2042 8.8522,79.7952 8.7035,84.4501 8.6323,89.0414 8.6029,93.5945 8.6,98.362 8.6068,103.0061 8.6145,107.5844 8.6216,112.1302 8.6272,116.4203 8.6318,120.812 8.6316,125.4961 8.6316,130.3343 8.6317,135.0174 8.6236,139.6162 8.6137,144.4071 8.6064,149.3017 8.6012,154.2508 8.5934,158.9923 8.5836,163.6219 8.5764,168.429 8.5672,173.0956 8.5565,177.6882 8.5444,182.4758 8.5314,187.3662 8.522,192.3127 8.742,197.1718 9.0895,202.103 9.2762,207.189 9.3715,212.2371 9.179,217.3806 8.845,222.2299 8.6784,227.0351 8.5908,232.1683 8.3022,237.3624 7.9158,242.7002 7.719,248.0038 7.6138,253.1715 7.5583,258.2632 7.5291,263.3163 7.2715,268.465 6.9008,273.5479 6.7116,278.478 6.6106,283.4432 6.557,288.43 6.2838,293.5454 5.9024,298.6107 5.7079,303.5322 5.604,308.493 5.5531,313.7104 5.5311,319.0663 5.5208,324.0238 5.2739,328.8913 4.9095,333.8245 4.7246,338.6696 4.6302,343.5911 4.5812,348.5547 4.5519,353.3042 4.5362,357.9408 4.2862,363.0982 3.9232,368.4219 3.7421,373.4873 3.651,378.7595 3.6087,384.144 3.5883,389.5889 3.5832,395.0642 3.5865,400.5562 3.5905,406.293 3.5901,411.6838 3.5902,416.6557 3.5784,421.409 3.5418,425.5719 3.4882,429.1871 3.4293,432.8105 3.4015,434.7201 A2.4015,2.4015 0 0 1 -1.4015,434.7199 T-1.4292,432.8104 -1.4879,429.1869 -1.541,425.5715 -1.5771,421.4084 -1.5876,416.6545 -1.5852,411.6818 -1.5813,406.2893 -1.5691,400.5488 -1.5501,395.0505 -1.5255,389.5622 -1.4895,384.094 -1.425,378.6614 -1.3131,373.2987 -1.1092,368.0748 -0.7418,362.8674 -0.5031,357.9237 -0.4891,353.2748 -0.462,348.5006 -0.4041,343.4883 -0.2955,338.4735 -0.0953,333.4485 0.2713,328.6372 0.5136,324.0074 0.5342,319.0392 0.5708,313.6567 0.631,308.3883 0.738,303.3337 0.9438,298.2352 1.322,293.2803 1.5835,288.3753 1.638,283.3414 1.7423,278.2852 1.9424,273.1838 2.3105,268.2159 2.5574,263.2861 2.5879,258.2083 2.6456,253.0694 2.7553,247.8174 2.9662,242.3337 3.3535,237.0841 3.6355,232.0792 3.733,226.8525 3.9176,221.8904 4.2502,217.1992 4.425,212.335 4.3197,207.3777 4.1258,202.4621 3.751,197.4082 3.498,192.3138 3.4886,187.3662 3.4756,182.4758 3.4635,177.6882 3.4528,173.0956 3.4436,168.429 3.4364,163.6219 3.4267,158.9922 3.4189,154.2508 3.4136,149.3016 3.4064,144.4071 3.3965,139.6161 3.3886,135.0172 3.3891,130.334 3.3896,125.4954 3.3906,120.8107 3.3974,116.4178 3.4071,112.1258 3.4219,107.576 3.4442,102.9908 3.479,98.3336 3.529,93.5384 3.6001,88.9392 3.7195,84.2596 3.9325,79.4184 4.298,74.9745 4.5214,70.5945 4.489,66.0785 4.4009,61.5567 4.2122,57.0355 3.8014,52.6961 3.431,48.4922 3.1726,44.3492 2.6472,39.8829 2.0834,35.4478 1.4425,31.0901 0.619,26.6526 -0.0704,22.2644 -0.4825,18.2225 -0.854,14.5511 -1.1383,11.1701 -1.2226,8.1535 -1.3872,5.1202 -1.7239,1.9374 -1.9522,0.2785 A1.9719,1.9719 0 0 1 1.9522,-0.2785 Z" stroke-linecap="round" fill="#9398b0"/></g></g><g transform="matrix(1, 0, 0, 1, 2247.7839, 23079.57) scale(1.0016576656079599, 1.0016576656079599)" opacity="0.5"><g transform="scale(0.998345077699821)"><path d="M0.7723,-1.3208 T2.1834,-0.8178 5.1609,0.04 8.2954,0.5039 11.9518,0.1877 15.9502,-0.3095 19.9572,-0.7762 24.5679,-1.3061 29.9497,-1.4956 34.5336,-1.5711 37.8638,-1.6095 41.4491,-1.397 45.2294,-1.0651 48.8953,-0.656 52.483,-0.2162 56.4576,0.2398 60.4733,0.7144 64.2736,1.1982 68.3745,1.6766 72.6602,2.1513 76.6116,2.6315 80.1899,2.8611 83.9474,2.9758 87.395,2.8017 90.8765,2.4601 94.3578,2.0453 97.669,1.3708 101.0613,0.5445 104.2285,-0.3542 107.7884,-1.1112 111.3268,-1.7482 114.663,-2.5111 118.2769,-3.1827 122.0168,-3.566 125.4558,-3.9758 128.6736,-4.4293 132.2445,-4.6949 136.0357,-4.8314 140.0998,-4.6568 144.132,-4.3307 148.1481,-3.9165 152.1603,-3.4672 156.382,-3.0048 160.9088,-2.2755 165.0453,-1.6797 169.18,-1.3938 173.6545,-0.998 178.1452,-0.5622 182.0209,-0.3513 186.1879,-0.2473 190.9714,-0.2061 195.6373,-0.1957 200.0569,-0.4228 204.5229,-0.781 209.174,-0.9805 213.3364,-1.3047 217.6729,-1.7158 222.3528,-2.17 226.9349,-2.6411 231.6399,-2.9054 236.4973,-3.0425 241.4214,-3.11 246.3852,-3.141 251.3707,-3.1523 256.3676,-3.1566 261.3707,-3.1576 266.3754,-3.1573 271.5283,-2.9131 276.8429,-2.5495 282.1039,-2.3649 287.3974,-2.0241 292.7854,-1.6146 298.0888,-1.4088 303.4042,-1.0535 308.8032,-0.6326 314.1098,-0.4203 319.2803,-0.3063 324.3729,-0.2498 328.9544,-0.2243 333.9735,-0.2159 339.6963,-0.221 345.0833,-0.2339 350.2895,-0.2479 355.4005,-0.2623 360.4638,-0.273 365.5018,-0.2808 370.5266,-0.2865 375.542,-0.287 379.843,-0.2845 384.2422,-0.2752 389.2536,-0.4936 394.2644,-0.8409 399.4219,-1.0253 403.7893,-1.1191 408.0849,-1.388 412.9548,-1.7453 417.5526,-1.9072 422.1181,-1.9506 426.4227,-1.9236 430.5151,-1.604 434.3365,-1.1281 437.8338,-0.791 441.7304,-0.4878 443.8086,-0.3369 A2.3382,2.3382 0 0 1 443.6514,4.3369 T441.5678,4.3479 437.5673,4.3855 433.8314,4.3587 430.2193,4.1438 426.4982,4.0505 422.268,4.1914 417.8368,4.364 413.4496,4.6121 408.4595,5.0328 403.9364,5.3426 399.6657,5.4494 394.7238,5.6456 389.5549,6.0206 384.2434,6.2751 379.8429,6.2844 375.5419,6.2868 370.5263,6.2861 365.5013,6.28 360.4629,6.2714 355.3989,6.2594 350.2864,6.2424 345.0777,6.2233 339.6862,6.2008 333.9497,6.1777 328.9103,6.1518 324.2965,6.1123 319.1386,6.0453 313.8519,5.9251 308.2998,5.6929 302.976,5.2704 297.8353,4.9228 292.2913,4.6923 286.9866,4.2741 281.8814,3.9417 276.4036,3.7466 271.232,3.3894 266.3776,3.1636 261.3775,3.1696 256.3806,3.1793 251.3954,3.1953 246.4326,3.2228 241.5126,3.2652 236.6749,3.3369 231.9936,3.464 227.5829,3.7011 222.9633,4.1815 218.2784,4.6352 213.8382,5.0492 209.4333,5.3932 205.0168,5.5642 200.3726,5.9089 195.5921,6.1181 190.8872,6.0588 185.9849,5.9679 181.6638,5.8211 177.5199,5.5561 173.0847,5.0888 168.7177,4.6685 164.1712,4.3035 159.9216,3.6642 155.7247,2.9474 151.4887,2.4608 147.539,2.0068 143.6362,1.6046 139.8403,1.2789 136.2395,1.1144 132.6756,1.2319 129.4881,1.4482 126.1734,1.9092 122.6109,2.3371 119.3568,2.646 115.9912,3.2876 112.3843,4.1192 109.0397,4.7127 105.8306,5.3932 102.4449,6.3246 98.7972,7.1759 95.0412,7.8805 91.4043,8.2788 87.6794,8.5824 83.7442,8.7351 79.7843,8.5724 75.9078,8.2756 72.0052,7.7569 67.6885,7.2337 63.5527,6.7162 59.8105,6.2076 55.8148,5.6968 51.7765,5.1893 48.2463,4.7075 44.7065,4.2653 41.1053,3.8794 37.8734,3.6274 34.5593,3.6051 31.4146,3.5915 27.3388,3.6156 22.5821,3.7808 18.2877,4.1968 14.5765,4.5353 11.4079,4.9486 7.8499,5.1605 4.0075,4.6133 0.6593,3.7638 -0.7723,3.3208 A2.4459,2.4459 0 0 1 0.7723,-1.3208 Z" stroke-linecap="round" fill="#9398b0"/></g></g><g transform="matrix(1, 0, 0, 1, 2366.9811, 23155.696) scale(1.0016576656079599, 1.0016576656079599)" opacity="0.5"><g transform="scale(0.998345077699821)"><path d="M-1.8105,-0.3012 T-1.5491,-1.7185 -1.0952,-5.0253 -0.8563,-8.8704 -0.8097,-12.816 -0.8203,-16.8045 -0.5936,-21.2169 -0.2021,-25.7115 0.2305,-29.2046 0.6889,-32.7075 0.9072,-37.4093 1.2006,-41.6177 1.6255,-46.046 2.0736,-50.5077 2.4721,-53.7729 2.6587,-56.9952 3.0073,-60.285 3.4144,-63.4395 3.5996,-66.5961 3.9393,-70.0715 4.3383,-73.5588 4.5228,-76.9041 4.8669,-80.4746 5.2793,-84.2427 5.73,-88.118 6.1995,-91.8343 6.6816,-95.4568 7.1647,-99.0237 7.6525,-102.3556 8.3943,-105.8952 8.9876,-109.2614 9.5282,-112.7021 10.3122,-116.3332 11.1922,-119.8991 12.1304,-123.441 13.1004,-126.9644 14.3499,-130.8073 15.7275,-134.5392 16.8936,-137.8429 18.2475,-141.3287 19.668,-144.83 21.1229,-148.3295 22.8975,-151.9658 24.5096,-155.231 26.0347,-158.5533 27.8436,-162.0942 29.4738,-165.315 31.0123,-168.6121 32.8327,-172.1354 34.7374,-175.6471 36.6872,-179.1572 38.6909,-182.4972 40.6524,-185.8536 42.5903,-189.455 44.5884,-193.0802 46.5879,-196.6519 48.8919,-200.3019 51.2774,-203.8853 53.4139,-207.3304 55.7896,-210.9077 58.1851,-214.6258 60.6768,-218.3083 63.4687,-222.0028 66.0553,-225.5169 68.5962,-229.0323 71.1156,-232.5464 73.6235,-236.0605 76.3767,-239.8395 79.2956,-243.5594 82.2501,-247.1796 85.1731,-250.9163 88.1899,-254.613 91.1985,-258.219 94.4501,-262.0231 97.8806,-265.7569 101.1093,-269.1377 104.4786,-272.5781 107.9101,-276.0508 111.4429,-279.37 115.2691,-282.6036 118.8727,-285.6714 122.4305,-288.7154 126.2664,-291.7987 130.1806,-294.8436 134.1375,-297.8735 138.1132,-300.8953 142.1018,-303.9106 146.3976,-306.9657 150.7921,-309.9987 155.0346,-312.8018 159.4606,-315.5023 164.1288,-318.3198 168.9605,-321.2218 173.5834,-324.1368 177.6525,-326.8387 182.244,-329.7324 187.0371,-332.6823 192.2076,-335.6788 197.3559,-338.4738 202.3505,-341.3186 207.5392,-344.4468 212.2896,-347.1056 217.9389,-349.9556 223.9921,-352.8663 229.6035,-355.3565 234.6646,-357.5754 239.017,-359.4448 242.9727,-361.1189 247.1026,-363.0723 251.5599,-364.9957 255.4276,-366.439 258.8227,-367.7606 260.6221,-368.4697 A2.0276,2.0276 0 0 1 262.2379,-364.7503 T260.4916,-363.9191 257.1586,-362.3178 253.6002,-360.6528 249.3606,-358.4821 245.0835,-356.266 241.1734,-354.516 236.8918,-352.5896 231.8614,-350.3072 226.4108,-347.8464 220.4665,-344.9616 215.0361,-342.2083 210.4484,-339.6291 205.1158,-336.4172 200.0368,-333.5229 195.0542,-330.8221 189.9945,-327.8866 185.2662,-324.9747 180.775,-322.1395 176.6024,-319.3648 171.8783,-316.3755 167.0604,-313.4681 162.4114,-310.6561 158.151,-308.0686 154.0065,-305.3343 149.6758,-302.3565 145.502,-299.4001 141.5149,-296.4026 137.5458,-293.4089 133.6163,-290.4185 129.7641,-287.4338 126.0522,-284.4701 122.4771,-281.4337 118.8463,-278.3581 115.2369,-275.3284 111.8495,-272.157 108.4413,-268.7078 105.1238,-265.3051 101.965,-261.9929 98.669,-258.4207 95.4485,-254.6619 92.4678,-251.1063 89.514,-247.5055 86.5017,-243.6866 83.588,-240.159 80.7659,-236.6164 78.0195,-232.9063 75.4859,-229.3988 72.9357,-225.881 70.3532,-222.3446 67.7058,-218.7786 65.0629,-215.3299 62.6358,-211.7498 60.1943,-207.9785 57.8883,-204.5337 55.6378,-200.9548 53.298,-197.5017 51.1232,-194.0912 49.1207,-190.5572 47.1239,-186.9909 45.0717,-183.2468 43.0607,-179.8541 41.1257,-176.679 39.1916,-173.221 37.3259,-169.8019 35.5908,-166.4657 33.9728,-163.0383 32.3151,-159.7909 30.5866,-156.4522 28.9894,-153.0211 27.3694,-149.7632 25.7128,-146.4158 24.2559,-142.9552 22.8435,-139.5412 21.5238,-136.1967 20.3179,-132.8313 18.9899,-129.3026 17.7979,-125.6601 16.8277,-122.1779 15.8883,-118.7181 15.0097,-115.2896 14.2517,-111.9405 13.6613,-108.4275 13.006,-104.8997 12.2761,-101.6493 11.7663,-98.3888 11.254,-94.8405 10.754,-91.2535 10.2662,-87.581 9.798,-83.7277 9.3644,-80.0287 9.0006,-76.6194 8.7393,-73.0119 8.2924,-69.6068 7.9246,-66.2954 7.6649,-62.8654 7.2276,-59.8134 6.8716,-56.7203 6.3506,-51.87 5.8335,-47.1522 5.6014,-44.0736 5.174,-39.8403 4.7572,-34.7117 4.1861,-29.9085 3.5277,-25.2417 3.0626,-20.865 2.8058,-16.7928 2.7577,-12.7746 2.6693,-8.7219 2.4219,-4.6161 2.0221,-1.1243 1.8105,0.3012 A1.8353,1.8353 0 0 1 -1.8105,-0.3012 Z" stroke-linecap="round" fill="#e599f7"/></g></g><g transform="matrix(1, 0, 0, 1, 2614.3906, 22729.9914) scale(1.0016576656079599, 1.0016576656079599)" opacity="0.5"><g transform="scale(0.998345077699821)"><path d="M-2.1856,0 T-2.1533,-1.4214 -2.2886,-4.2687 -3.3115,-6.7948 -4.1668,-7.8949 A2.076,2.076 0 0 1 -1.9976,-11.4353 T-0.9072,-10.5465 0.8466,-8.3072 1.8156,-4.8997 2.1533,-1.4214 2.1856,0 A2.1856,2.1856 0 0 1 -2.1856,0 ZM-1.7585,-8.0659 T-2.2481,-7.6915 -3.1349,-5.4608 -3.6431,-1.7399 -3.4329,2.2421 -2.5024,6.2419 -0.7158,9.9928 1.922,13.7738 3.8735,17.2056 4.6718,20.9243 4.4846,24.5463 2.7441,27.8687 -0.5719,31.2527 -5.0301,33.3946 -10.2348,33.6541 -15.3299,32.2121 -19.0936,29.5514 -21.1419,27.0963 -21.7049,26.2584 A2.0712,2.0712 0 0 1 -18.3551,23.8216 T-17.0278,25.4453 -13.5957,27.9081 -9.8518,29.0275 -6.6713,29.0043 -3.4714,27.6199 -0.6084,24.9103 0.3512,21.6006 -0.6571,18.1412 -2.9089,14.4016 -5.5844,10.0412 -7.1854,5.211 -7.761,-0.0413 -7.5704,-4.7377 -6.4655,-8.3668 -5.0595,-10.6926 -4.4059,-11.2644 A2.076,2.076 0 0 1 -1.7585,-8.0659 Z" stroke-linecap="round" fill="#e599f7"/></g></g><g transform="matrix(1, 0, 0, 1, 2615.3922, 22742.0113) scale(1.0016576656079599, 1.0016576656079599)" opacity="0.5"><g transform="scale(0.998345077699821)"><path d="M0,1.6347 T-1.654,1.67 -5.2069,2.2594 -8.293,3.1993 -9.4801,3.5852 A1.6746,1.6746 0 0 1 -10.5599,0.4148 T-9.384,-0.004 -5.7658,-1.0641 -1.6618,-1.67 0,-1.6347 A1.6347,1.6347 0 0 1 0,1.6347 Z" stroke-linecap="round" fill="#e599f7"/></g></g><g transform="matrix(1, 0, 0, 1, 2478.1651, 23079.57) scale(1.0016576656079599, 1.0016576656079599)" opacity="1"><g transform="scale(0.998345077699821)"><path d="M-2.1133,-0.4218 T-1.8499,-1.601 -1.3992,-4.5705 -1.14,-7.2687 -1.0681,-8.1767 A2.0748,2.0748 0 0 1 3.0681,-7.8433 T2.9936,-6.9355 2.7258,-3.9935 2.3229,-0.7687 2.1133,0.4218 A2.155,2.155 0 0 1 -2.1133,-0.4218 ZM3.0744,-7.9689 T3.067,-7.4735 3.0854,-4.8276 3.1245,-1.0953 3.1567,3.1907 3.1815,6.952 3.1874,8.0091 A2.1874,2.1874 0 0 1 -1.1874,8.0109 T-1.1823,6.9535 -1.1607,3.1932 -1.1336,-1.0887 -1.1128,-4.7744 -1.0884,-7.4661 -1.0744,-8.0511 A2.0748,2.0748 0 0 1 3.0744,-7.9689 ZM-1.0816,7.3379 T-0.832,6.5946 -0.4134,4.0176 -0.1792,0.7304 -0.0507,-3.3809 0.0126,-6.0387 A1.9877,1.9877 0 0 1 3.9874,-5.9813 T3.9736,-3.305 3.9556,0.9101 3.7398,4.8444 3.3049,7.961 3.0816,8.6821 A2.1874,2.1874 0 0 1 -1.0816,7.3379 ZM3.9876,-5.9953 T3.9565,-4.7453 3.9013,-1.2323 3.8473,2.5185 3.8172,4.0064 A1.8172,1.8172 0 0 1 0.1828,4.0136 T0.1468,2.5259 0.0713,-0.8381 0.0221,-4.3695 0.0124,-6.0247 A1.9877,1.9877 0 0 1 3.9876,-5.9953 Z" stroke-linecap="round" fill="#ffc034"/></g></g><g transform="matrix(1, 0, 0, 1, 2483.1734, 23118.6346) scale(1.0016576656079599, 1.0016576656079599)" opacity="1"><g transform="scale(0.998345077699821)"><path d="M1.7748,0.8852 T1.3245,1.847 -0.3644,4.6541 -2.9768,8.1814 -5.8552,11.2846 -8.5961,13.8336 -11.0734,15.8486 -13.5911,17.6455 -14.8677,18.5554 A1.9178,1.9178 0 0 1 -17.1923,15.5046 T-14.9804,13.6976 -11.5636,10.6813 -9.0268,8.2625 -6.3871,5.5381 -3.9228,2.5039 -2.2705,0.0497 -1.7748,-0.8852 A1.9832,1.9832 0 0 1 1.7748,0.8852 Z" stroke-linecap="round" fill="#ffc034"/></g></g><g transform="matrix(1, 0, 0, 1, 2469.1502, 23117.633) scale(1.0016576656079599, 1.0016576656079599)" opacity="1"><g transform="scale(0.998345077699821)"><path d="M1.7515,-1.3142 T3.1512,0.5963 5.9915,4.1449 8.9856,7.6154 11.9115,11.4265 14.6233,15.0092 16.9891,18.0445 19.0596,20.5182 21.4394,22.9176 22.7752,24.2744 A2.4826,2.4826 0 0 1 19.2848,27.8056 T17.9125,26.4856 15.1538,23.8056 12.8744,21.1129 10.576,17.935 8.0368,14.2246 5.4952,10.4974 2.6111,6.853 -0.3084,3.1924 -1.7515,1.3142 A2.1897,2.1897 0 0 1 1.7515,-1.3142 Z" stroke-linecap="round" fill="#ffc034"/></g></g><g transform="matrix(1, 0, 0, 1, 2479.1668, 22877.2351) scale(1.0016576656079599, 1.0016576656079599)" opacity="1"><g transform="scale(0.998345077699821)"><path d="M-0.7267,2.1801 T-1.4337,1.936 -2.1406,1.6919 A2.2821,2.2821 0 0 1 -0.6974,-2.6379 T0.0147,-2.409 0.7267,-2.1801 A2.298,2.298 0 0 1 -0.7267,2.1801 ZM-3.2053,-1.8932 T-3.105,-2.0169 -3.0047,-2.1406 A2.279,2.279 0 0 1 0.563,0.696 T0.4652,0.8216 0.3673,0.9472 A2.2821,2.2821 0 0 1 -3.2053,-1.8932 ZM-1.4166,-2.9928 T-0.6212,-3.0531 2.2202,-1.712 4.4447,1.2286 4.6232,2.7679 A2.3054,2.3054 0 0 1 0.0147,2.915 T0.2229,2.1606 -0.297,1.4772 -1.025,1.5483 A2.279,2.279 0 0 1 -1.4166,-2.9928 ZM3.1621,4.9872 T2.0893,5.412 1.0164,5.8368 A2.3115,2.3115 0 0 1 -0.6743,1.5341 T0.4007,1.1149 1.4758,0.6957 A2.3054,2.3054 0 0 1 3.1621,4.9872 ZM-1.6514,5.1073 T-2.2991,4.2634 -3.4978,1.2647 -2.9582,-3.1037 0.5511,-6.1076 5.0239,-5.6744 7.6682,-2.0284 7.5845,2.6004 5.5722,5.8492 2.6857,7.1134 -0.3553,6.7696 -2.9127,5.6844 -3.9772,5.1645 A2.3748,2.3748 0 0 1 -2.0228,0.8355 T-0.9288,1.2901 1.7347,1.266 2.726,-0.6824 1.3995,-0.7907 1.3224,1.4171 1.9935,2.2636 A2.3115,2.3115 0 0 1 -1.6514,5.1073 Z" stroke-linecap="round" fill="#ffc034"/></g></g><g transform="matrix(1, 0, 0, 1, 2495.1933, 22893.2616) scale(1.0016576656079599, 1.0016576656079599)" opacity="1"><g transform="scale(0.998345077699821)"><path d="M-2.2406,0.8944 T-2.6693,-0.3087 -3.6408,-2.9581 -4.1835,-4.4043 A2.27,2.27 0 0 1 -0.177,-6.5397 T0.5145,-4.8837 1.7233,-2.0611 2.2406,-0.8944 A2.4125,2.4125 0 0 1 -2.2406,0.8944 ZM0.0879,-5.3805 T0.0516,-4.0936 1.0726,-0.3005 3.3209,4.1237 5.861,8.0116 8.758,11.572 11.8755,14.1152 15.0411,15.5396 18.9179,16.0604 22.87,15.832 24.5412,15.5543 A2.5255,2.5255 0 0 1 25.5388,20.5057 T23.8903,20.8968 20.2412,21.6441 16.5813,21.6377 12.7033,20.5016 8.4053,18.3189 4.5496,14.9152 1.4131,10.7812 -1.204,6.3606 -2.9766,2.7259 -4.0531,-0.4298 -4.5313,-3.8977 -4.4484,-5.5635 A2.27,2.27 0 0 1 0.0879,-5.3805 Z" stroke-linecap="round" fill="#ffc034"/></g></g><g transform="matrix(1, 0, 0, 1, 2524.2414, 22909.2882) scale(1.0016576656079599, 1.0016576656079599)" opacity="1"><g transform="scale(0.998345077699821)"><path d="M-1.9362,0 T-1.933,-0.9241 -2.8109,-3.8002 -4.9329,-7.399 -7.6231,-10.7121 -9.0725,-12.3784 A1.9659,1.9659 0 0 1 -6.3769,-15.2406 T-4.9637,-13.8596 -2.6615,-11.1224 -0.4571,-7.3935 1.394,-3.4831 1.933,-0.9726 1.9362,0 A1.9362,1.9362 0 0 1 -1.9362,0 ZM-5.8759,-13.1414 T-5.9441,-12.955 -6.0124,-12.7685 A1.9642,1.9642 0 0 1 -9.7069,-14.1036 T-9.6402,-14.2906 -9.5735,-14.4776 A1.9659,1.9659 0 0 1 -5.8759,-13.1414 ZM-6.14,-14.3852 T-5.5873,-13.3845 -4.207,-11.0032 -2.5186,-7.9268 -0.8497,-4.6799 1.3168,-1.0229 3.2827,2.546 4.437,6.3276 4.3002,10.9586 1.9328,13.9569 -2.2326,14.6403 -6.0018,14.4273 -7.2896,14.2171 A2.2148,2.2148 0 0 1 -6.7304,9.8229 T-4.6275,10.0549 -1.098,9.8734 -0.019,7.5613 -0.8702,4.2764 -2.6272,0.7327 -4.6742,-3.1024 -6.0708,-6.0759 -7.5926,-8.9613 -9.0453,-11.5189 -9.5793,-12.4869 A1.9642,1.9642 0 0 1 -6.14,-14.3852 Z" stroke-linecap="round" fill="#ffc034"/></g></g><g transform="matrix(1, 0, 0, 1, 2562.3044, 22882.2434) scale(1.0016576656079599, 1.0016576656079599)" opacity="1"><g transform="scale(0.998345077699821)"><path d="M1.8652,0.7446 T1.3888,1.9282 0.1806,4.7375 -1.6716,8.2571 -3.6964,12.821 -5.3587,17.5012 -6.4287,21.3139 -7.1583,25.1333 -7.5171,28.8783 -6.9021,32.7419 -4.6994,35.2555 -3.0531,35.6336 A2.427,2.427 0 0 1 -2.9469,40.4864 T-3.8854,40.5491 -6.2518,40.5182 -8.8973,39.5604 -11.1054,36.3797 -12.3299,32.3345 -12.4975,28.3363 -11.9358,24.0974 -10.9189,19.9653 -9.5725,15.8789 -7.556,10.9647 -5.3018,6.316 -3.5218,3.1428 -2.3348,0.4416 -1.8652,-0.7446 A2.0084,2.0084 0 0 1 1.8652,0.7446 Z" stroke-linecap="round" fill="#ffc034"/></g></g><g transform="matrix(1, 0, 0, 1, 2587.3458, 22891.2583) scale(1.0016576656079599, 1.0016576656079599)" opacity="1"><g transform="scale(0.998345077699821)"><path d="M2.2051,0.9814 T1.266,3.1164 -0.6384,7.3537 -2.6187,11.3294 -4.3806,14.6157 -6.1255,17.4279 -8.704,19.7346 -11.6238,21.295 -12.9633,21.948 A2.1898,2.1898 0 0 1 -15.0767,18.112 T-13.8091,17.3286 -11.0326,15.1164 -8.7585,12.2537 -7.0372,9.0863 -5.1006,5.3124 -3.1627,1.1453 -2.2051,-0.9814 A2.4136,2.4136 0 0 1 2.2051,0.9814 Z" stroke-linecap="round" fill="#ffc034"/></g></g><g transform="matrix(1, 0, 0, 1, 2576.3276, 22896.2666) scale(1.0016576656079599, 1.0016576656079599)" opacity="1"><g transform="scale(0.998345077699821)"><path d="M1.3392,-1.3392 T2.3053,-0.3692 3.9728,2.0906 5.4366,5.1087 6.8737,8.2107 8.6881,11.2446 10.6578,13.7399 11.4876,14.775 A1.931,1.931 0 0 1 8.5524,17.285 T7.6587,16.3045 5.2266,13.3468 3.1137,9.8529 1.5307,5.7645 -0.4085,2.2659 -1.3392,1.3392 A1.8939,1.8939 0 0 1 1.3392,-1.3392 Z" stroke-linecap="round" fill="#ffc034"/></g></g><g transform="matrix(1, 0, 0, 1, 2594.3574, 22913.2948) scale(1.0016576656079599, 1.0016576656079599)" opacity="1"><g transform="scale(0.998345077699821)"><path d="M1.57,1 T1.6112,2.4267 0.3881,6.3623 -1.8224,9.9676 -2.7686,11.0639 A1.6219,1.6219 0 0 1 -5.2514,8.9761 T-4.3336,7.8558 -2.5341,5.2838 -1.6112,2.416 -1.57,1 A1.57,1.57 0 0 1 1.57,1 Z" stroke-linecap="round" fill="#ffc034"/></g></g><g transform="matrix(1, 0, 0, 1, 2617.3956, 22896.2666) scale(1.0016576656079599, 1.0016576656079599)" opacity="1"><g transform="scale(0.998345077699821)"><path d="M-1.8239,-1.0921 T-1.1049,-2.2713 0.446,-5.3636 1.3932,-8.8111 1.3448,-11.7751 0.8162,-16.0931 -0.1084,-20.4292 -0.6678,-21.8768 A2.2051,2.2051 0 0 1 3.5673,-23.1071 T4.1774,-21.4264 5.1356,-16.6722 5.6184,-11.7716 5.528,-8.0012 4.2634,-3.6734 2.5239,-0.0984 1.8239,1.0921 A2.1258,2.1258 0 0 1 -1.8239,-1.0921 ZM0.67,-20.4293 T0.328,-20.5613 -0.0139,-20.6934 A2.1999,2.1999 0 0 1 1.5419,-24.809 T1.8857,-24.6818 2.2295,-24.5546 A2.2051,2.2051 0 0 1 0.67,-20.4293 ZM2.7564,-21.8185 T2.2307,-20.7301 1.5114,-17.6759 1.0035,-14.1942 0.5459,-11.1198 0.2738,-7.2009 0.3424,-3.3714 1.1087,0.2308 2.8594,4.3305 4.7331,7.7384 6.0278,11.358 6.4407,14.9669 4.8945,17.9413 2.1524,19.9993 -1.3197,20.7759 -5.9479,20.0246 -9.9916,17.1369 -11.4934,15.2628 A1.9276,1.9276 0 0 1 -8.5466,12.7772 T-7.7799,13.6167 -5.3386,15.5726 -1.4267,16.4953 1.585,14.4457 1.5025,10.5042 -0.7028,6.1631 -2.7734,1.2678 -3.7275,-3.1676 -3.8461,-7.4475 -3.3201,-12.9758 -2.5669,-18.7511 -1.7275,-22.5831 -1.2284,-23.6839 A2.1999,2.1999 0 0 1 2.7564,-21.8185 Z" stroke-linecap="round" fill="#ffc034"/></g></g><g transform="matrix(1, 0, 0, 1, 2622.4038, 22900.2732) scale(1.0016576656079599, 1.0016576656079599)" opacity="1"><g transform="scale(0.998345077699821)"><path d="M0,1.895 T-1.0652,1.9209 -4.1777,2.8832 -7.1797,4.2832 -8.1343,4.7468 A1.954,1.954 0 0 1 -9.8857,1.2532 T-8.0988,0.3274 -4.2368,-1.2726 -1.0808,-1.9209 0,-1.895 A1.895,1.895 0 0 1 0,1.895 Z" stroke-linecap="round" fill="#ffc034"/></g></g><g transform="matrix(1, 0, 0, 1, 2643.4387, 22875.2318) scale(1.0016576656079599, 1.0016576656079599)" opacity="1"><g transform="scale(0.998345077699821)"><path d="M2.0472,1.0219 T1.3296,2.4363 -0.1343,6.2714 -1.3067,10.5192 -2.0328,15.8128 -2.1412,21.2092 -1.0184,25.3122 0.3319,27.6823 0.7507,27.8792 A2.3895,2.3895 0 0 1 -2.1123,31.7057 T-3.8436,29.5278 -6.1975,25.4608 -6.9652,21.288 -6.9392,16.6834 -6.4886,12.8056 -5.2681,7.9372 -3.8885,3.2303 -2.7486,0.4064 -2.0472,-1.0219 A2.2881,2.2881 0 0 1 2.0472,1.0219 ZM-1.3185,27.4896 T-0.6756,27.3462 0.6829,27.0405 1.3985,26.8782 A2.2536,2.2536 0 0 1 2.6015,31.2218 T1.9043,31.4507 0.582,31.8874 -0.0431,32.0952 A2.3895,2.3895 0 0 1 -1.3185,27.4896 Z" stroke-linecap="round" fill="#ffc034"/></g></g><g transform="matrix(1, 0, 0, 1, 2661.4685, 22885.2484) scale(1.0016576656079599, 1.0016576656079599)" opacity="1"><g transform="scale(0.998345077699821)"><path d="M1.5409,0.7692 T0.8598,2.2049 -0.68,5.1606 -2.5066,8.0134 -5.217,11.0944 -7.9254,13.6146 -8.8914,14.3866 A1.7724,1.7724 0 0 1 -11.1486,11.6534 T-10.2079,10.8507 -7.855,8.5988 -5.5696,5.9944 -3.8566,3.442 -2.2788,0.6379 -1.5409,-0.7692 A1.7222,1.7222 0 0 1 1.5409,0.7692 Z" stroke-linecap="round" fill="#ffc034"/></g></g><g transform="matrix(1, 0, 0, 1, 2652.4536, 22887.2517) scale(1.0016576656079599, 1.0016576656079599)" opacity="1"><g transform="scale(0.998345077699821)"><path d="M1.3555,-1.0849 T2.304,0.1002 4.4985,3.3384 6.768,6.5705 9.4433,9.1687 11.0953,10.5879 A1.7909,1.7909 0 0 1 8.9447,13.4521 T8.1547,12.882 6.001,10.9869 3.5918,8.3295 1.5436,5.2256 -0.4072,2.2696 -1.3555,1.0849 A1.7362,1.7362 0 0 1 1.3555,-1.0849 Z" stroke-linecap="round" fill="#ffc034"/></g></g><g transform="matrix(1, 0, 0, 1, 2665.4751, 22871.2252) scale(1.0016576656079599, 1.0016576656079599)" opacity="1"><g transform="scale(0.998345077699821)"><path d="M1.2599,-1.5741 T2.4225,-0.5925 5.098,2.102 7.4032,5.153 8.865,8.1756 10.117,11.4008 11.0662,14.8625 11.628,18.4891 11.9295,21.8133 11.856,25.1669 11.5862,28.3628 11.0472,31.2556 9.3483,33.68 7.1111,35.2424 6.1236,35.8124 A2.0763,2.0763 0 0 1 3.8964,32.3076 T5.441,30.9023 7.3166,26.5698 7.5939,22.1173 7.4319,19.0247 7.114,15.8694 6.3939,12.7539 4.859,8.7971 2.4945,4.8861 -0.0528,2.4892 -1.2599,1.5741 A2.0163,2.0163 0 0 1 1.2599,-1.5741 Z" stroke-linecap="round" fill="#ffc034"/></g></g><g transform="matrix(1, 0, 0, 1, 2675.4917, 22861.2086) scale(1.0016576656079599, 1.0016576656079599)" opacity="1"><g transform="scale(0.998345077699821)"><path d="M1.1697,-1.5636 T2.1124,-0.8387 4.926,2.6845 7.5095,6.8166 9.1912,11.1359 10.6814,16.4066 11.7415,22.0375 12.5761,27.8736 13.0452,32.9019 12.8217,37.9747 11.9665,42.6803 11.0072,46.7416 9.6539,50.4621 7.937,54.1354 7.0722,55.9787 A2.2456,2.2456 0 0 1 2.9478,54.2013 T3.6937,52.3069 5.0332,48.8877 6.0737,45.5802 6.9641,41.7001 7.8239,37.6372 8.1528,33.2607 7.8661,28.4453 7.2668,22.8009 6.5034,17.4357 5.4308,12.6291 4.0537,8.6148 2.0621,5.1169 -0.2157,2.2577 -1.1697,1.5636 A1.9527,1.9527 0 0 1 1.1697,-1.5636 Z" stroke-linecap="round" fill="#ffc034"/></g></g><g transform="matrix(1, 0, 0, 1, 2334.9281, 23024.4788) scale(1.0016576656079599, 1.0016576656079599)" opacity="1"><g transform="scale(0.998345077699821)"><path d="M-1.0475,-1.4002 T-0.0836,-2.0888 2.1973,-3.8867 4.5954,-6.0186 6.8949,-7.9547 9.44,-10.0329 12.2428,-12.6615 15.0994,-15.7439 17.7885,-18.8992 20.2959,-21.7069 22.9095,-24.4228 25.795,-27.1051 28.7475,-29.4081 31.3015,-31.7107 33.7624,-34.2561 36.3056,-36.8278 38.4365,-39.4598 40.8297,-42.3705 43.1838,-45.2472 45.2753,-47.8582 47.7746,-50.6395 50.1667,-53.3392 52.3294,-55.838 54.3713,-58.3345 56.2814,-60.9458 58.3534,-63.7399 60.4113,-66.5128 62.4348,-69.1002 64.4325,-71.6312 66.4327,-74.1529 68.3833,-76.4757 70.3588,-78.9285 72.3538,-81.4226 74.2476,-84.0269 76.3166,-86.8264 78.3799,-89.6096 80.8503,-92.2787 83.3287,-94.8289 85.3812,-97.2778 87.8526,-99.6172 90.2633,-102.0145 92.2239,-104.4584 94.66,-107.1646 97.2668,-109.6526 99.333,-111.9324 101.3396,-114.3747 103.2953,-116.6773 105.7181,-119.2183 108.3185,-121.6623 110.7638,-124.2883 113.631,-127.342 116.2332,-129.8018 118.3653,-131.7926 120.4069,-133.8047 122.9626,-135.9396 125.3614,-138.2403 127.2761,-140.574 129.7454,-142.9208 132.1417,-145.3121 134.6084,-147.8007 137.6093,-150.7964 140.6483,-153.7551 143.2232,-155.996 145.8799,-158.5802 149.2323,-161.5566 152.0976,-163.9683 154.8157,-166.3028 158.0433,-169.4848 161.2503,-172.9751 164.1008,-175.9826 166.6904,-178.6265 169.4677,-181.3108 172.8877,-184.709 176.1575,-187.9837 179.3561,-191.1947 182.8504,-194.7042 186.1924,-198.1777 189.3294,-201.7195 191.9183,-204.6709 194.7665,-207.6251 197.7296,-210.6218 200.7813,-213.8118 203.9159,-217.1015 206.6482,-219.7617 209.6917,-222.6813 213.1048,-225.8062 215.7717,-228.4125 218.1545,-231.0533 220.992,-234.3345 224.0534,-237.9153 227.4877,-241.5307 230.4028,-244.8735 233.0566,-248.3781 236.1559,-252.0986 238.8352,-255.1554 242.0425,-258.531 245.3849,-261.5648 246.6176,-262.5506 A2.7766,2.7766 0 0 1 250.2024,-258.3094 T248.1462,-256.4823 244.8828,-253.0611 242.1941,-249.9253 239.2753,-246.732 236.2807,-243.1201 233.137,-239.3032 229.9997,-235.8605 226.8194,-232.4972 223.6116,-228.867 220.7886,-225.7009 218.1328,-223.1004 215.0914,-220.2097 211.9456,-217.1554 209.1703,-214.678 206.3279,-212.0088 203.2329,-208.6073 200.1483,-205.265 197.287,-202.3587 194.757,-199.6583 191.9413,-196.6515 189.3368,-193.7452 186.6911,-190.862 183.1776,-187.3671 179.9629,-184.1693 177.4973,-181.7209 174.8499,-179.0984 171.871,-176.1869 169.2362,-173.7976 166.6525,-171.1415 163.6228,-167.8113 160.6324,-164.68 158.0159,-162.1849 155.5376,-160.0536 152.7048,-157.7117 149.467,-154.881 146.6422,-152.186 144.2124,-150.1507 141.6851,-147.674 139.1304,-145.208 136.7807,-143.1252 133.7982,-140.1821 130.4698,-136.8162 127.797,-133.8606 125.1329,-131.4329 122.6873,-129.3889 120.4847,-127.3012 118.1059,-125.2844 115.7884,-122.8888 113.6453,-120.4119 111.4609,-118.3124 109.1281,-116.2443 106.3206,-113.3336 103.7543,-110.3173 101.5065,-107.7517 98.9798,-105.3248 96.6532,-102.8827 94.4896,-100.258 91.4943,-97.2964 88.5786,-94.4228 86.3662,-91.8544 83.4721,-88.8048 80.7471,-85.8299 78.6784,-82.9099 76.598,-79.9705 74.1331,-76.9108 71.1401,-73.3968 68.6288,-70.3925 66.1536,-67.3581 63.5634,-63.9536 61.6121,-61.3607 59.6683,-58.761 57.5301,-55.8777 55.4242,-53.3225 53.072,-50.6613 50.5163,-47.794 48.2299,-45.2625 46.1188,-42.6712 43.7696,-39.845 41.3504,-36.9452 39.1661,-34.2858 36.6001,-31.7313 33.6846,-28.8488 30.8071,-26.3396 28.1295,-24.329 25.4755,-21.9085 22.8754,-19.2712 20.5198,-16.7305 17.7255,-13.5602 14.5691,-10.2337 11.9578,-7.8031 9.4197,-5.7616 6.8417,-3.6038 4.3178,-1.2957 1.9803,0.6698 1.0475,1.4002 A1.7487,1.7487 0 0 1 -1.0475,-1.4002 Z" stroke-linecap="round" fill="#4dabf7"/></g></g><g transform="matrix(1, 0, 0, 1, 2398.0325, 22936.3329) scale(1.0016576656079599, 1.0016576656079599)" opacity="1"><g transform="scale(0.998345077699821)"><path d="M-1.2084,0.0731 T-3.1048,-2.0579 -6.6664,-5.7239 -9.7201,-8.5728 -12.5016,-11.0019 -15.7865,-13.3873 -19.6086,-15.7904 -23.505,-17.9897 -27.5837,-19.8048 -31.9955,-21.1868 -36.5609,-22.66 -41.1013,-24.1397 -45.9778,-25.3456 -50.6242,-26.1986 -55.6638,-26.8752 -61.6079,-27.4539 -67.5308,-27.7372 -73.4936,-27.8734 -78.7678,-27.9354 -84.2442,-27.495 -90.5284,-26.3214 -96.671,-24.7597 -102.4841,-22.9904 -107.803,-20.8941 -113.1578,-18.3752 -118.3066,-15.6438 -122.7686,-12.6279 -126.8941,-9.0089 -130.4417,-5.2721 -133.2043,-1.7298 -135.559,1.948 -137.4854,5.6654 -138.6967,9.0834 -139.8018,13.2898 -140.9482,17.2465 -141.402,18.579 A1.9182,1.9182 0 0 1 -145.078,17.481 T-144.4484,15.0186 -143.5933,11.0648 -142.8814,7.6546 -141.4882,3.6212 -139.3789,-0.5087 -136.7773,-4.5235 -133.7253,-8.3887 -129.8387,-12.4164 -125.2516,-16.3414 -120.3704,-19.5537 -114.9884,-22.3398 -109.354,-24.8965 -103.7023,-27.0371 -97.6827,-28.8108 -91.2632,-30.382 -84.4987,-31.5539 -78.7048,-31.9651 -73.3815,-31.848 -67.3219,-31.6444 -61.2201,-31.2828 -55.1356,-30.6379 -49.9427,-29.8903 -45.0636,-28.9384 -39.9519,-27.6168 -35.43,-26.1046 -30.8952,-24.6021 -26.1257,-23.0303 -21.7671,-21.0353 -17.7492,-18.7066 -13.752,-16.1166 -10.2859,-13.5153 -7.4467,-10.9784 -4.3314,-8.0034 -0.6839,-4.2086 1.2084,-2.0731 A1.6161,1.6161 0 0 1 -1.2084,0.0731 Z" stroke-linecap="round" fill="#4dabf7"/></g></g><g transform="matrix(1, 0, 0, 1, 2251.7905, 22952.3594) scale(1.0016576656079599, 1.0016576656079599)" opacity="1"><g transform="scale(0.998345077699821)"><path d="M-2.1407,0 T-2.1175,-0.6441 -3.1463,-2.7953 -5.054,-5.605 -6.8422,-8.2988 -8.53,-10.9428 -10.559,-14.1061 -12.207,-16.0817 -12.5813,-16.1468 A2.2051,2.2051 0 0 1 -10.3446,-19.9478 T-8.8532,-18.4177 -5.7457,-14.4859 -3.2149,-10.6631 -0.6957,-6.6965 1.5016,-2.8503 2.1175,-0.7749 2.1407,0 A2.1407,2.1407 0 0 1 -2.1407,0 ZM-9.2593,-18.1278 T-9.2876,-17.4687 -8.9503,-15.2119 -7.9679,-11.6097 -6.6547,-7.8255 -5.1101,-4.454 -2.2557,-2.2332 1.7794,-1.7681 6.4559,-2.7366 10.5374,-4.0284 13.43,-5.0225 16.3629,-6.0403 20.3429,-7.8353 24.7362,-10.1077 27.7389,-11.6516 28.8541,-12.2071 A2.4927,2.4927 0 0 1 31.2459,-7.8329 T29.2538,-6.6344 24.9426,-4.2064 21.1033,-2.1341 18.0685,-0.8254 15.0431,0.0904 12.0238,0.9612 9.0118,1.7659 6.0025,2.4584 2.9511,2.9213 -1.1458,2.6856 -5.791,0.8828 -8.9045,-2.4522 -10.7522,-6.5381 -12.1481,-10.4767 -13.0924,-13.8335 -13.5676,-16.6911 -13.6666,-17.9668 A2.2051,2.2051 0 0 1 -9.2593,-18.1278 Z" stroke-linecap="round" fill="#4dabf7"/></g></g><g transform="matrix(1, 0, 0, 1, 2144.6131, 22992.4258) scale(1.0016576656079599, 1.0016576656079599)" opacity="1"><g transform="scale(0.998345077699821)"><path d="M-1.9311,-1.964 T-1.2087,-3.3541 -0.5893,-6.478 -1.9108,-9.4021 -3.744,-8.9621 -4.5393,-5.3085 -4.5863,-1.1122 -3.7625,3.3954 -1.8575,8.1377 -0.258,12.0868 0.3929,16.3434 0.1233,20.4487 -2.4902,23.0698 -7.0976,24.3237 -12.1936,23.5517 -15.9356,21.9036 -18.7142,19.0951 -20.3172,17.1396 A1.6994,1.6994 0 0 1 -17.7428,14.9204 T-16.909,15.8244 -14.8064,17.925 -11.3124,19.7932 -7.3935,20.5419 -4.3764,19.8557 -3.2991,16.7991 -4.4121,12.2379 -6.5175,7.2846 -8.3887,1.8411 -8.9199,-3.3949 -8.2336,-8.3783 -6.0452,-12.587 -2.4782,-14.1918 1.0699,-12.5168 3.2138,-8.5056 3.5485,-4.506 2.6277,-1.4887 1.9311,-0.036 A2.1584,2.1584 0 0 1 -1.9311,-1.964 Z" stroke-linecap="round" fill="#4dabf7"/></g></g><g transform="matrix(1, 0, 0, 1, 2143.6115, 23001.4407) scale(1.0016576656079599, 1.0016576656079599)" opacity="1"><g transform="scale(0.998345077699821)"><path d="M0,1.8774 T-1.1894,1.8918 -4.8852,1.3386 -7.3916,0.7709 A1.8115,1.8115 0 0 1 -6.6284,-2.7709 T-4.4945,-2.3386 -1.1804,-1.8918 0,-1.8774 A1.8774,1.8774 0 0 1 0,1.8774 Z" stroke-linecap="round" fill="#4dabf7"/></g></g><g transform="matrix(1, 0, 0, 1, 2151.6247, 22970.3893) scale(1.0016576656079599, 1.0016576656079599)" opacity="1"><g transform="scale(0.998345077699821)"><path d="M1.4917,0 T1.538,1.8944 1.5916,5.265 1.2146,9.2054 0.6824,12.9293 0.5345,14.189 A1.5438,1.5438 0 0 1 -2.5345,13.851 T-2.4046,12.5892 -1.9369,9.0292 -1.5916,5.2598 -1.538,1.8944 -1.4917,0 A1.4917,1.4917 0 0 1 1.4917,0 Z" stroke-linecap="round" fill="#4dabf7"/></g></g><g transform="matrix(1, 0, 0, 1, 2168.6529, 22974.3959) scale(1.0016576656079599, 1.0016576656079599)" opacity="1"><g transform="scale(0.998345077699821)"><path d="M1.7857,0.3964 T1.3254,2.5301 0.3935,6.7505 -0.8194,10.987 -2.42,15.2146 -3.6565,19.1436 -4.2361,22.6841 -4.5397,25.9568 -3.9747,29.9213 -2.142,33.7301 0.3247,35.8132 2.6186,36.8279 3.6122,37.1871 A1.9704,1.9704 0 0 1 2.3878,40.9329 T0.2044,40.2449 -3.7348,38.1113 -6.3551,35.3343 -7.8564,32.4007 -8.6561,29.0161 -8.6691,25.5294 -8.2445,21.9685 -7.4425,17.9362 -6.0574,13.7961 -4.4784,9.9017 -3.2571,5.9156 -2.2714,1.7317 -1.7857,-0.3964 A1.8292,1.8292 0 0 1 1.7857,0.3964 Z" stroke-linecap="round" fill="#4dabf7"/></g></g><g transform="matrix(1, 0, 0, 1, 2184.6794, 22990.4224) scale(1.0016576656079599, 1.0016576656079599)" opacity="1"><g transform="scale(0.998345077699821)"><path d="M1.5309,0.7642 T0.8639,2.2082 -0.6885,5.0063 -2.5305,7.548 -4.4709,9.8354 -6.8006,12.0105 -9.5376,14.1958 -10.9285,15.3055 A1.6864,1.6864 0 0 1 -13.1115,12.7345 T-11.7909,11.542 -8.4502,8.3324 -4.7325,4.1743 -2.2829,0.6345 -1.5309,-0.7642 A1.711,1.711 0 0 1 1.5309,0.7642 Z" stroke-linecap="round" fill="#4dabf7"/></g></g><g transform="matrix(1, 0, 0, 1, 2176.6662, 22988.4191) scale(1.0016576656079599, 1.0016576656079599)" opacity="1"><g transform="scale(0.998345077699821)"><path d="M1.201,-1.5005 T2.3718,-0.5344 4.6753,1.4355 6.8857,3.4354 9.0145,5.4241 11.6323,7.713 14.1844,9.7174 15.1701,10.4258 A1.9658,1.9658 0 0 1 12.8699,13.6142 T10.8946,12.1705 7.1453,8.9614 3.2841,5.2789 -0.0021,2.4312 -1.201,1.5005 A1.9219,1.9219 0 0 1 1.201,-1.5005 Z" stroke-linecap="round" fill="#4dabf7"/></g></g><g transform="matrix(1, 0, 0, 1, 2190.6894, 22971.3909) scale(1.0016576656079599, 1.0016576656079599)" opacity="1"><g transform="scale(0.998345077699821)"><path d="M1.3046,-1.3046 T3.1891,0.6012 6.6352,4.5448 9.3258,8.6794 11.1157,13.1935 12.1373,18.0744 12.6869,22.5375 12.7356,26.2372 12.2493,29.5661 11.1541,32.716 9.6765,35.6408 8.948,37.0445 A2.1738,2.1738 0 0 1 5.072,35.0755 T6.3127,32.6495 8.0284,27.5398 8.3957,22.9483 8.086,18.7915 7.4769,14.5137 6.1727,10.6334 3.8897,6.9261 0.5996,3.1875 -1.3046,1.3046 A1.845,1.845 0 0 1 1.3046,-1.3046 Z" stroke-linecap="round" fill="#4dabf7"/></g></g><g transform="matrix(1, 0, 0, 1, 2128.5866, 23062.5418) scale(1.0016576656079599, 1.0016576656079599)" opacity="1"><g transform="scale(0.998345077699821)"><path d="M1.0191,-1.5274 T2.4448,-0.6155 5.1221,-0.827 6.5699,-3.738 6.6689,-6.7107 6.5717,-7.8957 A1.994,1.994 0 0 1 10.3873,-9.0557 T10.649,-8.0369 10.7683,-4.8108 9.8489,-0.395 6.8349,3.052 3.2064,3.8939 0.3979,2.5122 -1.0191,1.5274 A1.8362,1.8362 0 0 1 1.0191,-1.5274 ZM8.5925,-6.4849 T8.187,-6.5607 7.5039,-4.9533 7.3522,-1.2129 8.6671,2.6431 11.0218,5.2744 14.4984,6.468 18.9776,5.7869 22.3804,2.9296 23.7422,-0.6291 23.02,-3.7416 21.5743,-5.8499 20.9783,-6.5888 A2.2755,2.2755 0 0 1 24.6732,-9.2457 T25.7691,-8.1158 27.6256,-4.7777 28.3735,-1.0804 27.0429,3.1094 24.5349,7.1207 21.8516,9.2294 18.5476,10.4966 14.9466,10.8328 11.4798,9.9942 8.2543,8.0371 5.8412,5.5678 4.3111,2.9296 3.4308,0.0154 3.4516,-3.8896 4.8979,-8.2208 7.2376,-10.3037 8.3665,-10.4666 A1.994,1.994 0 0 1 8.5925,-6.4849 ZM21.3036,-9.6087 T21.5923,-9.8655 21.8809,-10.1223 A2.2711,2.2711 0 0 1 24.9193,-6.746 T24.6336,-6.4859 24.3479,-6.2259 A2.2755,2.2755 0 0 1 21.3036,-9.6087 ZM23.7604,-10.6765 T24.3834,-10.5729 26.9205,-10.3852 31.1934,-10.2266 34.8132,-10.1075 36.074,-10.0629 A2.0529,2.0529 0 0 1 36.046,-5.9571 T34.7846,-5.9297 31.1181,-5.8727 26.5019,-5.9204 23.6654,-6.0948 23.0398,-6.1918 A2.2711,2.2711 0 0 1 23.7604,-10.6765 Z" stroke-linecap="round" fill="#4dabf7"/></g></g><g transform="matrix(1, 0, 0, 1, 2197.701, 23045.5136) scale(1.0016576656079599, 1.0016576656079599)" opacity="1"><g transform="scale(0.998345077699821)"><path d="M0.8409,1.6817 T0.3708,1.9241 -1.9856,3.0104 -5.3993,4.8566 -5.031,6.5856 -0.952,7.8712 3.0946,9.7922 5.5077,13.1195 4.3377,16.9969 0.5902,19.6925 -4.0048,20.106 -7.6502,19.2476 -8.7283,18.7593 A1.8726,1.8726 0 0 1 -7.2917,15.3007 T-5.6388,16.032 -2.4964,16.4921 0.1537,14.4952 -0.2599,12.1131 -4.2682,10.8569 -8.7999,8.6917 -10.2421,5.045 -7.4356,1.6037 -3.5385,-0.4885 -1.3168,-1.4511 -0.8409,-1.6817 A1.8803,1.8803 0 0 1 0.8409,1.6817 Z" stroke-linecap="round" fill="#4dabf7"/></g></g><g transform="matrix(1, 0, 0, 1, 2206.7159, 23019.4705) scale(1.0016576656079599, 1.0016576656079599)" opacity="1"><g transform="scale(0.998345077699821)"><path d="M1.745,-1.1643 T2.689,0.2649 4.2373,3.0991 5.187,6.3133 5.924,9.8607 6.5622,13.8429 7.1668,18.3279 7.9535,22.9369 8.6093,27.6021 9.1576,31.6783 9.6412,34.993 9.9783,38.1634 10.1534,39.7983 A2.1606,2.1606 0 0 1 5.8666,40.3417 T5.4192,37.3224 4.5893,32.3312 3.995,28.2305 3.3801,23.6714 2.6532,18.8728 2.1807,14.4996 1.6728,10.6577 0.737,6.406 -0.7923,2.5778 -1.745,1.1643 A2.0978,2.0978 0 0 1 1.745,-1.1643 Z" stroke-linecap="round" fill="#4dabf7"/></g></g><g transform="matrix(1, 0, 0, 1, 2197.701, 23039.5037) scale(1.0016576656079599, 1.0016576656079599)" opacity="1"><g transform="scale(0.998345077699821)"><path d="M0,-1.9277 T1.1849,-1.9547 4.7462,-1.763 9.1337,-1.0109 13.402,0.3043 15.6594,1.086 A2.018,2.018 0 0 1 14.3806,4.914 T12.3751,4.2717 8.2907,3.0598 4.2908,2.236 1.1849,1.9547 0,1.9277 A1.9277,1.9277 0 0 1 0,-1.9277 Z" stroke-linecap="round" fill="#4dabf7"/></g></g><g transform="matrix(1, 0, 0, 1, 2223.7441, 23049.5202) scale(1.0016576656079599, 1.0016576656079599)" opacity="1"><g transform="scale(0.998345077699821)"><path d="M1.1214,-1.1214 T2.0711,-0.1901 3.3372,0.8546 3.6537,0.9679 A1.6365,1.6365 0 0 1 2.1389,3.8693 T1.4558,3.4607 -0.1744,2.0868 -1.1214,1.1214 A1.5859,1.5859 0 0 1 1.1214,-1.1214 ZM4.5074,2.1312 T4.5327,2.2686 4.5581,2.406 A1.6382,1.6382 0 0 1 1.3326,2.9812 T1.3089,2.8436 1.2852,2.7059 A1.6365,1.6365 0 0 1 4.5074,2.1312 ZM1.6654,3.716 T1.0392,2.9173 0.0215,1.4931 -0.37,0.8677 A1.6217,1.6217 0 0 1 2.37,-0.8677 T2.7681,-0.2465 3.6957,1.023 4.2253,1.6712 A1.6382,1.6382 0 0 1 1.6654,3.716 Z" stroke-linecap="round" fill="#4dabf7"/></g></g><g transform="matrix(1, 0, 0, 1, 2213.7275, 23011.4572) scale(1.0016576656079599, 1.0016576656079599)" opacity="1"><g transform="scale(0.998345077699821)"><path d="M0.2718,-1.6338 T1.7139,-1.388 4.4241,-0.4453 7.0637,2.1591 8.5385,5.88 8.665,9.3383 8.6882,10.9832 A1.6787,1.6787 0 0 1 5.3318,11.0568 T5.3214,8.2738 3.9202,3.7895 1.1288,1.861 -0.2718,1.6338 A1.6563,1.6563 0 0 1 0.2718,-1.6338 Z" stroke-linecap="round" fill="#4dabf7"/></g></g><g transform="matrix(1, 0, 0, 1, 2236.7656, 23042.5086) scale(1.0016576656079599, 1.0016576656079599)" opacity="1"><g transform="scale(0.998345077699821)"><path d="M1.5914,0.3969 T1.3804,1.3522 0.4082,4.5929 1.5054,6.8631 4.7798,5.5469 6.1959,4.2458 A1.6403,1.6403 0 0 1 8.0111,6.9785 T7.3852,7.7137 5.3571,9.6316 1.4833,11.6636 -2.2039,11.6115 -3.5822,8.2025 -2.9301,3.5905 -1.8534,0.5446 -1.5914,-0.3969 A1.6401,1.6401 0 0 1 1.5914,0.3969 ZM8.3464,4.5418 T8.8069,5.159 10.0721,7.0066 12.2178,10.0599 14.8795,13.9309 16.8087,17.2894 17.9683,21.3038 18.1028,25.546 16.9237,28.3755 14.9603,30.8963 12.3105,33.0456 9.2393,34.4748 6.1173,34.9866 2.9579,34.407 0.0746,32.6259 -2.1689,30.3209 -3.189,29.2148 A1.6645,1.6645 0 0 1 -0.811,26.8852 T0.9397,28.6572 4.6251,30.8555 8.8019,30.3001 12.5816,27.5803 14.3904,23.9101 13.9724,19.8321 12.1596,15.8146 9.6928,12.0812 7.2992,8.5941 6.0548,6.8257 5.8605,6.6826 A1.6403,1.6403 0 0 1 8.3464,4.5418 Z" stroke-linecap="round" fill="#4dabf7"/></g></g><g transform="matrix(1, 0, 0, 1, 2251.7905, 23038.502) scale(1.0016576656079599, 1.0016576656079599)" opacity="1"><g transform="scale(0.998345077699821)"><path d="M1.0615,-1.4188 T2.0226,-0.7155 4.0844,1.8203 5.8309,5.5834 6.7393,9.1258 7.002,10.7375 A2.0119,2.0119 0 0 1 3.018,11.3025 T2.916,10.4818 2.6164,8.2065 1.6144,4.8011 -0.1258,2.1345 -1.0615,1.4188 A1.772,1.772 0 0 1 1.0615,-1.4188 ZM2.9982,11.0408 T3.0016,10.1515 3.3238,7.3712 4.1602,3.7102 5.72,0.5375 8.9026,-1.3093 12.6237,-0.1893 15.138,3.4106 16.4522,7.3146 16.7803,10.1388 16.7278,11.0945 A1.7094,1.7094 0 0 1 13.3122,10.9455 T13.4561,9.5157 13.0021,6.5111 11.1871,3.0827 8.9813,2.2754 7.6531,4.8957 7.1463,7.8937 7.0004,10.1584 7.0218,10.9992 A2.0119,2.0119 0 0 1 2.9982,11.0408 Z" stroke-linecap="round" fill="#4dabf7"/></g></g><g transform="matrix(1, 0, 0, 1, 2271.8237, 23043.5103) scale(1.0016576656079599, 1.0016576656079599)" opacity="1"><g transform="scale(0.998345077699821)"><path d="M0.9781,-1.2221 T2.1744,-0.2883 3.7083,0.8627 4.046,1.0799 A1.6134,1.6134 0 0 1 2.2451,3.7573 T1.807,3.4526 0.1954,2.185 -0.9781,1.2221 A1.5653,1.5653 0 0 1 0.9781,-1.2221 ZM1.6816,3.0966 T1.4011,2.4842 0.8405,1.2849 0.5602,0.6981 A1.6001,1.6001 0 0 1 3.4398,-0.6981 T3.727,-0.1147 4.3119,1.1047 4.6096,1.7406 A1.6134,1.6134 0 0 1 1.6816,3.0966 Z" stroke-linecap="round" fill="#4dabf7"/></g></g><g transform="matrix(1, 0, 0, 1, 2263.8104, 23015.4639) scale(1.0016576656079599, 1.0016576656079599)" opacity="1"><g transform="scale(0.998345077699821)"><path d="M0.8966,-1.1984 T1.8635,-0.5136 4.2329,1.8422 5.7959,5.4797 5.8247,9.4343 5.6223,12.7444 5.5517,14.0664 A1.5424,1.5424 0 0 1 2.4683,13.9736 T2.4829,11.4243 2.719,7.4229 1.9518,4.3189 0.0333,1.9326 -0.8966,1.1984 A1.4967,1.4967 0 0 1 0.8966,-1.1984 Z" stroke-linecap="round" fill="#4dabf7"/></g></g><g transform="matrix(1, 0, 0, 1, 2274.8286, 23039.5037) scale(1.0016576656079599, 1.0016576656079599)" opacity="1"><g transform="scale(0.998345077699821)"><path d="M0.52,-1.3025 T1.7194,-0.8447 4.3503,0.6878 6.4981,3.0859 7.2142,4.4093 A1.6296,1.6296 0 0 1 4.1057,5.3887 T4.0409,5.0498 2.8984,3.4949 0.6504,1.7907 -0.52,1.3025 A1.4025,1.4025 0 0 1 0.52,-1.3025 ZM6.1525,3.3457 T6.2361,3.3695 6.3197,3.3933 A1.6347,1.6347 0 0 1 5.3314,6.5098 T5.2494,6.4811 5.1674,6.4524 A1.6296,1.6296 0 0 1 6.1525,3.3457 ZM4.2933,4.3819 T4.6041,3.5193 5.7974,1.098 7.7279,-1.6636 10.5689,-3.2461 13.2774,-2.1689 14.3337,-0.0171 14.4744,0.6782 A1.4896,1.4896 0 0 1 11.5656,1.3218 T11.5169,0.1806 10.4388,0.1993 8.6791,2.672 7.6532,4.753 7.3578,5.5211 A1.6347,1.6347 0 0 1 4.2933,4.3819 Z" stroke-linecap="round" fill="#4dabf7"/></g></g><g transform="matrix(1, 0, 0, 1, 2292.8585, 23038.502) scale(1.0016576656079599, 1.0016576656079599)" opacity="1"><g transform="scale(0.998345077699821)"><path d="M-1.2812,-1.0255 T-0.3173,-2.1903 1.0108,-4.5715 1.3752,-5.7878 A1.5716,1.5716 0 0 1 4.5155,-5.6547 T3.8313,-3.5195 2.2141,-0.1794 1.2812,1.0255 A1.641,1.641 0 0 1 -1.2812,-1.0255 ZM2.4863,-4.2182 T2.2631,-4.2878 2.0399,-4.3573 A1.5689,1.5689 0 0 1 2.9565,-7.3583 T3.1805,-7.2913 3.4044,-7.2243 A1.5716,1.5716 0 0 1 2.4863,-4.2182 ZM3.2709,-4.4924 T2.9159,-4.2932 2.5608,-4.094 A1.5659,1.5659 0 0 1 1.0183,-6.8197 T1.3719,-7.0215 1.7255,-7.2233 A1.5689,1.5689 0 0 1 3.2709,-4.4924 ZM3.3162,-5.1081 T3.1331,-4.2904 2.8285,-1.7506 2.996,2.0362 3.6776,4.0684 4.0701,4.0359 A1.6158,1.6158 0 0 1 3.131,7.128 T2.1738,6.719 0.5821,4.8977 -0.2641,1.6416 -0.2968,-2.1866 0.0725,-4.9882 0.2629,-5.8055 A1.5659,1.5659 0 0 1 3.3162,-5.1081 ZM2.7177,4.2287 T3.243,3.9155 4.4237,1.4439 5.3469,-2.0538 5.6149,-3.3931 A1.4494,1.4494 0 0 1 8.4051,-2.6069 T8.3073,-2.2748 7.8702,0.2762 6.6215,4.2849 5.0978,6.5048 4.4834,6.9352 A1.6158,1.6158 0 0 1 2.7177,4.2287 ZM8.457,-2.9173 T8.4091,-2.4556 9.2974,-0.5935 11.2533,2.5569 13.6872,6.8412 15.7047,12.1469 15.9065,16.4374 14.7442,19.236 12.7751,21.7108 9.9204,23.993 6.5733,26.1941 4.8726,27.308 A1.5336,1.5336 0 0 1 3.1474,24.772 T4.8081,23.5992 7.8394,21.4611 10.7245,18.6825 12.4693,14.8554 11.8869,10.5213 9.8923,6.0936 7.8112,2.5522 6.2176,-0.2571 5.543,-2.3576 5.563,-3.0827 A1.4494,1.4494 0 0 1 8.457,-2.9173 Z" stroke-linecap="round" fill="#4dabf7"/></g></g><g transform="matrix(1, 0, 0, 1, 2126.5833, 23108.618) scale(1.0016576656079599, 1.0016576656079599)" opacity="1"><g transform="scale(0.998345077699821)"><path d="M0.6327,-2.5369 T1.8117,-2.1108 4.0705,-0.3487 5.3315,2.4498 5.2853,5.5735 4.705,8.8074 3.9582,12.1113 3.3899,15.3234 3.131,18.5079 2.995,21.8106 3.8877,25.5781 6.5448,28.1555 9.5921,28.5656 10.9266,28.5665 A2.4853,2.4853 0 0 1 11.1134,33.5335 T9.7827,33.6346 6.7583,33.7478 3.7426,33.2127 1.228,31.5936 -0.8304,28.9044 -2.1817,25.284 -2.595,21.5642 -2.3721,17.9513 -1.9498,14.305 -0.8698,9.4938 0.3707,4.5317 0.0851,2.5838 -0.6327,2.5369 A2.6146,2.6146 0 0 1 0.6327,-2.5369 Z" stroke-linecap="round" fill="#4dabf7"/></g></g><g transform="matrix(1, 0, 0, 1, 2131.5916, 23125.6462) scale(1.0016576656079599, 1.0016576656079599)" opacity="1"><g transform="scale(0.998345077699821)"><path d="M1.1257,1.5047 T0.1842,2.2399 -3.0906,3.7465 -8.1393,4.739 -10.8547,4.9601 A1.9671,1.9671 0 0 1 -11.1853,1.0399 T-8.6944,0.8219 -4.6198,0.2334 -2.081,-0.8209 -1.1257,-1.5047 A1.8792,1.8792 0 0 1 1.1257,1.5047 Z" stroke-linecap="round" fill="#4dabf7"/></g></g><g transform="matrix(1, 0, 0, 1, 2146.6165, 23129.6529) scale(1.0016576656079599, 1.0016576656079599)" opacity="1"><g transform="scale(0.998345077699821)"><path d="M1.1175,-1.3962 T2.3053,-0.4464 4.3781,2.984 5.263,5.4647 A1.849,1.849 0 0 1 1.5841,5.0885 T1.4152,4.1893 0.0644,2.3432 -1.1175,1.3962 A1.7883,1.7883 0 0 1 1.1175,-1.3962 ZM3.2214,7.1146 T2.6485,7.0487 1.4373,6.9098 0.7991,6.8367 A1.8377,1.8377 0 0 1 1.2009,3.1833 T1.8399,3.2507 3.0523,3.3784 3.6257,3.4386 A1.849,1.849 0 0 1 3.2214,7.1146 Z" stroke-linecap="round" fill="#4dabf7"/></g></g><g transform="matrix(1, 0, 0, 1, 2148.6198, 23104.6114) scale(1.0016576656079599, 1.0016576656079599)" opacity="1"><g transform="scale(0.998345077699821)"><path d="M0.5635,-1.4117 T1.7563,-0.9359 4.2627,0.7987 5.4038,4.0741 4.7965,6.906 4.3618,7.7213 A1.5364,1.5364 0 0 1 1.6382,6.2987 T1.7144,4.3254 0.6135,1.8819 -0.5635,1.4117 A1.52,1.52 0 0 1 0.5635,-1.4117 Z" stroke-linecap="round" fill="#4dabf7"/></g></g><g transform="matrix(1, 0, 0, 1, 2160.6397, 23103.6098) scale(1.0016576656079599, 1.0016576656079599)" opacity="1"><g transform="scale(0.998345077699821)"><path d="M1.4554,-1.4554 T2.6207,-0.2443 4.7692,2.4672 6.5253,5.4799 7.7772,8.9002 8.7234,12.6208 9.6751,16.0637 10.6651,19.2542 11.4769,22.5116 11.9036,25.8263 12.1504,29.1479 12.2771,30.8521 A2.2657,2.2657 0 0 1 7.7629,31.2479 T7.591,29.5477 7.0693,25.001 6.2601,20.5234 5.3609,17.1596 4.5319,13.5599 3.8943,10.2175 2.2998,6.2574 -0.251,2.614 -1.4554,1.4554 A2.0583,2.0583 0 0 1 1.4554,-1.4554 Z" stroke-linecap="round" fill="#4dabf7"/></g></g><g transform="matrix(1, 0, 0, 1, 2195.6977, 23096.5981) scale(1.0016576656079599, 1.0016576656079599)" opacity="1"><g transform="scale(0.998345077699821)"><path d="M1.6354,-1.309 T2.5869,-0.1233 4.383,2.5409 5.9507,6.0791 7.0673,10.4909 7.8921,15.1459 8.7908,19.5854 9.7386,23.5256 10.6938,27.2626 11.7012,31.3472 12.2337,33.4983 A2.2838,2.2838 0 0 1 7.8063,34.6217 T7.2488,32.477 6.1877,28.4102 5.2145,24.5746 4.3073,20.4461 3.481,15.8669 2.8276,11.4952 1.409,6.5824 -0.6901,2.493 -1.6354,1.309 A2.0948,2.0948 0 0 1 1.6354,-1.309 Z" stroke-linecap="round" fill="#4dabf7"/></g></g><g transform="matrix(1, 0, 0, 1, 2214.7292, 23121.6396) scale(1.0016576656079599, 1.0016576656079599)" opacity="1"><g transform="scale(0.998345077699821)"><path d="M1.0046,-1.3428 T1.9514,-0.6311 4.227,1.4328 5.5559,2.785 A1.7167,1.7167 0 0 1 2.7348,4.7418 T1.815,3.7496 -0.0546,2.0501 -1.0046,1.3428 A1.677,1.677 0 0 1 1.0046,-1.3428 ZM5.6502,4.5894 T5.6186,4.648 5.587,4.7065 A1.7176,1.7176 0 0 1 2.5756,3.0536 T2.6081,2.9955 2.6405,2.9374 A1.7167,1.7167 0 0 1 5.6502,4.5894 ZM2.6892,4.8861 T2.2002,4.2026 1.166,2.758 0.6207,1.9968 A1.7017,1.7017 0 0 1 3.3793,0.0032 T3.9309,0.7598 4.978,2.1952 5.4735,2.874 A1.7176,1.7176 0 0 1 2.6892,4.8861 Z" stroke-linecap="round" fill="#4dabf7"/></g></g><g transform="matrix(1, 0, 0, 1, 2207.7176, 23088.5849) scale(1.0016576656079599, 1.0016576656079599)" opacity="1"><g transform="scale(0.998345077699821)"><path d="M0.3177,-1.5918 T1.5237,-1.3274 4.7152,0.5564 7.0695,2.588 7.4382,3.0001 A1.6447,1.6447 0 0 1 4.9607,5.1637 T4.602,4.7428 3.1265,3.1655 0.846,1.8004 -0.3177,1.5918 A1.6232,1.6232 0 0 1 0.3177,-1.5918 Z" stroke-linecap="round" fill="#4dabf7"/></g></g></svg>