<svg xmlns="http://www.w3.org/2000/svg" direction="ltr" width="1777.6134074432214" height="2006.901061634481" viewBox="325.5709900579638 83.58374227724727 1777.6134074432214 2006.901061634481" stroke-linecap="round" stroke-linejoin="round" style="background-color: transparent;"><defs/><g transform="matrix(1, 0, 0, 1, 626.2165, 291.9648) scale(2.713554794376634, 2.713554794376634)" opacity="1"><g transform="scale(0.36852029009044684)"><path d="M0,0 Q1.1301,5.6588 1.4595,8.4384 T1.981,13.4057 2.285,18.0008 2.4622,23.5092 2.5655,29.5478 2.6258,35.3306 2.6609,41.5313 2.6814,48.5407 2.6933,56.0215 2.7003,63.7773 3.2715,71.6932 4.1716,80.2698 4.6964,89.2314 5.5673,97.8504 6.6402,106.2697 7.2656,115.1375 7.6302,124.2669 7.8428,132.9858 7.9667,141.4653 8.039,149.2362 8.0811,157.1609 8.1057,165.1755 8.12,172.6773 8.1283,181.0123 8.6982,189.8311 9.5955,198.3668 10.1187,207.3047 10.4236,216.4769 10.6014,225.2187 10.7051,234.2746 10.7655,244.0787 11.3679,253.7559 12.2862,263.9243 13.3866,274.3769 14.5932,284.4323 15.2966,295.3883 16.2717,306.3021 17.4053,316.6243 18.0661,327.7337 18.4514,339.3021 18.676,350.573 19.3741,361.6704 20.3482,373.2318 20.9161,385.0637 21.2471,396.4882 21.4402,408.2424 21.5527,420.1866 22.1833,432.2417 23.116,444.3614 23.6598,455.9536 23.9768,467.8035 24.1616,479.8036 24.2694,491.3261 24.3322,503.1354 24.9359,515.1117 25.8551,526.6205 26.3909,538.4237 26.7033,550.3966 26.8854,561.9012 26.9916,573.1349 27.0535,584.2107 27.0896,595.1945 27.1106,606.1245 27.1229,617.0232 26.5629,627.9037 25.6693,638.7715 25.1483,649.0669 24.8446,659.0305 24.6675,669.3659 24.5643,679.3508 23.9391,689.1335 23.0095,698.7983 22.4676,708.3923 22.1517,717.945 21.9675,727.4758 21.8601,736.9937 21.7975,745.937 21.761,755.1104 21.7397,764.4179 21.7273,773.2385 21.7201,782.3424 21.7159,791.6115 21.7134,800.9748 21.1449,810.3931 20.2463,819.2783 19.7224,828.4198 19.417,838.2759 19.2389,847.9814 19.1351,858.1663 19.0746,868.6306 19.0393,878.6928 19.0188,889.0856 19.0068,899.6711 18.9998,909.804 18.9957,920.2359 18.9933,930.8422 18.9919,940.9871 18.4261,951.4281 17.5311,962.0418 17.0094,972.7561 16.7052,983.5291 16.5279,994.9013 16.4245,1006.6229 16.3643,1017.9831 16.3291,1029.1326 16.3086,1040.1594 16.2967,1051.6795 16.2897,1063.4873 16.2857,1074.8978 16.2833,1086.6417 16.2819,1098.58 16.2811,1110.0665 16.2807,1121.2897 16.2804,1132.3593 16.2802,1143.9045 16.2801,1155.7269 16.2801,1167.711 16.28,1179.7892 16.8451,1191.3574 17.7395,1202.6282 18.261,1214.2906 18.565,1226.1835 18.7422,1238.2086 18.8455,1250.3108 18.9058,1262.4579 18.9409,1274.6313 18.9614,1286.822 18.9733,1299.0208 18.9803,1311.2242 18.9843,1323.4304 18.9867,1335.6382 18.9881,1347.849 19.556,1359.4944 20.4542,1371.3752 20.9779,1383.3933 21.2832,1394.9264 21.4612,1406.7418 21.5649,1418.7217 21.6254,1430.2325 21.6607,1442.0349 21.6813,1454.0073 21.6932,1465.5137 21.7002,1476.7485 21.7043,1487.8249 21.7067,1498.809 21.7081,1510.3043 21.7089,1522.0976 21.7093,1533.4996 21.7096,1544.6735 21.7098,1556.2795 21.7099,1568.7045 22.275,1581.0399 23.1695,1593.3229 23.691,1606.7077 24.5621,1620.1676 25.6371,1633.6735 26.2638,1647.7711 27.1942,1661.6466 28.3017,1675.3947 29.5124,1689.0686 30.7833,1702.132 31.5242,1714.2745 31.9561,1725.8801 32.208,1736.6055 32.3548,1745.6878 32.4403,1753.2449 32.5159,1761.631 L32.56,1766.52 " stroke-linecap="round" fill="none" stroke="#9398b0" stroke-width="12.210996574694853" stroke-dasharray="none" stroke-dashoffset="0"/></g></g><g transform="matrix(1, 0, 0, 1, 354.861, 1602.6118) scale(2.713554794376634, 2.713554794376634)" opacity="1"><g transform="scale(0.36852029009044684)"><path d="M2.71,0 Q9.4989,0 12.61,0 T19.2321,0 25.9222,0 32.0867,0 38.51,0 45.6492,0 53.2058,0 61.0056,0 68.3822,-0.565 74.38,-2.0266 79.5738,-3.4459 84.299,-4.8383 88.751,-6.2152 93.6108,-7.5829 99.2735,-8.9453 105.4021,-9.7396 111.8023,-10.2026 118.928,-9.9075 126.4767,-9.1705 134.8391,-8.7407 143.6759,-7.9252 152.2221,-6.8847 160.599,-6.2781 169.4442,-5.9244 178.5624,-5.7182 187.2727,-5.598 195.7452,-5.528 204.0791,-4.92 212.8971,-3.9984 221.9975,-3.4611 230.6973,-2.5829 239.1637,-1.5058 247.494,-0.8779 255.747,-0.5118 263.955,-0.2984 272.1347,-0.1739 280.2978,-0.1014 288.4512,-0.0591 296.034,-0.0345 303.2841,-0.0201 310.3382,-0.0117 317.278,-0.0068 324.1532,-0.004 330.9908,-0.0023 337.8065,-0.0014 344.0443,-0.0008 349.9432,-0.0005 356.2095,-0.0003 362.6921,-0.5652 368.7358,-1.4596 375.0886,-1.981 381.6216,-2.285 388.2597,-3.0294 394.957,-4.0305 401.6888,-4.6141 408.4428,-4.9543 415.2097,-5.7177 421.9841,-6.7278 428.763,-7.3167 436.1094,-7.66 443.7868,-7.8602 451.6571,-7.9769 459.6399,-8.0449 467.6882,-8.0846 476.3419,-8.1077 485.3485,-8.1212 493.9937,-7.564 502.9933,-6.6741 512.1995,-6.1553 519.831,-5.8528 528.8067,-5.1094 540.8284,-4.1088 552.9286,-3.5255 563.3773,-3.1854 572.8633,-2.9872 582.3552,-2.8716 591.8504,-2.8042 601.3455,-2.7649 609.7105,-2.742 619.1139,-2.7287 629.1226,-2.7209 640.0492,-2.7163 652.6432,-2.7137 663.3799,-2.7122 673.0337,-2.1462 684.8856,-1.2512 696.8869,-0.1644 708.9752,1.6014 721.6793,3.198 734.1795,4.1287 746.5607,5.2364 759.4356,6.4472 772.0332,7.1531 783.3391,8.1297 795.022,9.2641 808.0548,9.9254 821.8766,10.311 833.3312,10.5358 843.4036,10.6668 855.4995,10.7432 867.643,11.3549 879.2471,12.2786 891.1039,12.8171 901.9779,13.1311 912.8439,13.3141 924.8355,13.4208 936.3531,13.483 947.5944,13.5193 958.6746,13.5404 969.6609,12.9856 980.5924,12.0951 991.492,11.5759 1002.373,11.2732 1012.111,11.0967 1022.3148,10.9938 1032.2251,10.9338 1041.9622,10.8989 1052.1634,11.4456 1062.0701,12.3315 1071.8073,12.848 1082.0105,13.1491 1091.9185,13.3246 1101.6563,13.4269 1111.2949,13.4866 1120.8737,12.9542 1130.4175,12.0768 1139.943,11.5652 1149.4579,10.7019 1158.9645,9.6336 1170.1635,8.4457 1180.654,7.1881 1191.8636,5.8878 1205.1876,4.5626 1217.48,3.225 1230.3051,1.8802 1242.3087,1.0961 1252.7011,0.074 1263.2864,-1.087 1275.1143,-1.7638 1286.5365,-2.1584 1296.59,-2.9555 1306.9777,-3.9874 1317.5603,-4.589 1328.2564,-4.9397 1339.0188,-5.7092 1350.3849,-6.7229 1363.2351,-7.3138 1375.2533,-7.6583 1386.7864,-7.8592 1398.0367,-7.9763 1409.6872,-8.0446 1421.5711,-8.0844 1431.8937,-8.1076 1442.4383,-8.1211 1453.1124,-8.129 1463.8598,-7.5685 1475.2171,-6.6767 1485.7999,-5.5897 1496.4963,-3.8238 1507.8238,-2.2292 1520.3989,-0.821 L1527.73,0 " stroke-linecap="round" fill="none" stroke="#9398b0" stroke-width="12.210996574694853" stroke-dasharray="none" stroke-dashoffset="0"/></g></g><g transform="matrix(1, 0, 0, 1, 797.1704, 1580.9033) scale(2.713554794376634, 2.713554794376634)" opacity="1"><g transform="scale(0.36852029009044684)"><path d="M0.565,0 Q1.1301,0 1.4595,0.565 T1.981,3.1567 2.285,7.4971 2.4622,13.424 2.5655,19.7087 2.6258,25.0699 2.6609,28.1954 2.6814,27.1882 2.6933,23.2065 2.7039,17.119 1.355,6.785 0.565,0 Z" stroke-linecap="round" fill="none" stroke="#f76707" stroke-width="12.210996574694853" stroke-dasharray="none" stroke-dashoffset="0"/></g></g><g transform="matrix(1, 0, 0, 1, 808.0246, 1130.4532) scale(2.713554794376634, 2.713554794376634)" opacity="1"><g transform="scale(0.36852029009044684)"><path d="M0,0 Q4.5246,-3.3945 5.8434,-4.949 T8.4984,-9.107 10.6133,-14.3605 12.4113,-19.6876 14.5896,-25.0576 16.9918,-30.4505 19.5244,-36.4219 22.133,-42.1675 24.786,-47.2143 28.0299,-52.986 31.6183,-59.1803 34.8404,-65.0537 37.8511,-70.7423 40.7384,-76.888 43.5518,-83.2983 46.8892,-89.2977 50.5321,-95.6247 53.2209,-101.5776 55.9207,-107.8775 58.6268,-114.9448 60.7716,-121.8943 63.1541,-128.7732 65.6732,-135.6129 68.274,-142.9969 70.9224,-151.2612 73.5965,-160.0388 76.2877,-167.9854 78.9888,-176.0127 81.6936,-184.0869 84.9677,-191.6236 88.5737,-199.4118 91.8082,-207.3467 94.826,-214.8021 98.2826,-221.978 101.995,-229.5559 105.8565,-236.8031 109.8049,-243.2905 113.8041,-249.8999 117.8328,-256.5825 121.8787,-263.3078 126.5018,-270.6231 131.4593,-277.7172 136.0467,-283.5502 140.9855,-289.2131 146.127,-294.7789 150.8217,-300.2881 155.2559,-305.7621 160.1032,-311.7828 165.1936,-318.1223 170.4256,-324.0804 175.738,-329.8162 180.5324,-334.8573 185.5918,-340.0606 191.3708,-345.9235 197.0022,-351.6038 202.5475,-357.1776 208.0426,-362.6915 213.5106,-368.1704 218.9628,-373.6268 223.8385,-378.505 228.9433,-383.6134 234.1817,-388.2887 239.4999,-392.7116 245.4298,-397.5524 251.1492,-401.5047 256.7458,-404.941 262.2729,-408.6415 267.7595,-412.4961 273.2205,-416.4406 277.5342,-419.8723 281.7463,-423.0052 286.4663,-426.5288 291.4803,-430.2803 297.2328,-434.1646 302.8508,-437.5613 308.9534,-440.6737 317.0378,-444.7505 325.7125,-449.3895 333.0321,-453.2262 338.9965,-456.028 345.3032,-458.7936 352.3743,-461.5381 358.759,-463.7032 365.3106,-465.5304 371.9596,-467.1608 377.5331,-468.1112 383.6118,-469.2325 389.985,-470.4533 396.53,-471.165 403.7401,-471.5799 410.7708,-471.8218 418.8292,-471.9628 427.4887,-472.0451 435.3666,-471.5259 443.3537,-470.656 450.8396,-469.5839 458.0332,-468.3938 465.6214,-467.1349 472.8747,-465.836 479.3656,-464.5116 486.5442,-462.6073 493.5586,-460.367 499.9102,-458.4959 506.4426,-456.8379 514.2125,-454.1741 523.2689,-450.9239 531.376,-447.8969 538.3647,-445.002 545.2684,-442.1822 552.6877,-438.841 559.2774,-435.1959 566.5136,-431.3716 575.2568,-426.8797 582.6183,-422.5638 588.6094,-418.9155 594.3644,-415.0913 599.9817,-411.1646 604.9539,-407.7453 609.5498,-404.0546 614.4935,-400.2058 620.2051,-396.2647 625.7971,-392.2678 630.1894,-388.8055 634.4473,-385.6568 638.6269,-382.6891 642.7607,-379.2616 646.868,-375.5662 650.9597,-372.2797 655.6074,-368.6664 660.0142,-364.8627 664.2805,-360.9479 669.0321,-356.4034 673.4995,-352.6239 678.3662,-349.2883 683.4678,-345.6443 687.5742,-342.3878 691.6654,-338.792 696.3128,-334.4334 701.2845,-329.6301 705.8801,-325.1326 709.6915,-321.9456 713.0457,-319.5204 715.5663,-316.9744 718.1679,-314.36 721.3818,-311.7037 724.3877,-309.0228 727.2723,-306.3278 730.0841,-303.6244 732.8555,-300.9183 735.6034,-298.7756 738.3355,-296.9592 741.0604,-294.7682 743.7812,-292.3607 746.4975,-289.825 749.2133,-287.2145 751.9287,-284.5625 754.644,-281.8843 757.3591,-279.1907 760.0721,-276.4903 762.2188,-273.7838 764.0375,-271.0737 766.2299,-268.3616 768.6382,-265.6483 771.1744,-262.9364 773.2201,-260.2231 774.9777,-257.5092 777.1325,-254.7969 779.5209,-251.5184 782.0455,-247.9099 784.0824,-244.1089 785.8349,-240.7608 787.9888,-238.2438 789.8116,-235.6442 791.4394,-232.9965 792.9534,-230.3229 794.4032,-228.1991 795.8155,-226.3938 797.2039,-224.2092 799.1435,-221.8034 801.4064,-219.2686 803.2928,-216.0937 804.9576,-213.1105 806.4932,-210.8063 807.9535,-208.3329 809.937,-205.7587 811.6605,-203.1259 813.2303,-201.0259 814.7106,-199.2365 816.1386,-197.0612 817.5362,-194.6608 818.9181,-192.6964 820.2908,-190.9861 821.6562,-188.8568 823.5823,-186.4833 825.2702,-183.9673 826.8214,-181.9334 828.2929,-180.1827 829.7158,-178.0319 831.6754,-175.6458 833.95,-173.1226 836.4083,-170.5214 838.9736,-167.8728 841.0363,-165.1965 842.8039,-163.0712 844.9645,-161.2672 847.3562,-159.0832 849.3177,-156.6778 851.0263,-154.7104 853.1525,-152.9984 854.9571,-150.8682 856.5763,-148.4941 858.6525,-145.4128 860.993,-141.9192 863.4896,-138.7502 866.0773,-135.7706 868.151,-132.9034 869.3599,-130.0997 870.6297,-127.333 872.5022,-124.5899 874.726,-121.2935 877.1547,-117.1073 879.7027,-112.9696 881.7533,-109.4273 883.5138,-106.23 885.6723,-103.2338 888.0629,-100.3548 890.5867,-96.9792 893.1902,-92.749 895.8402,-88.5856 898.5152,-85.0262 901.2069,-81.2538 903.9083,-76.7923 907.1805,-71.9269 910.2203,-67.3932 912.5575,-63.618 915.0523,-60.2848 917.6389,-57.2115 920.2769,-54.2877 922.9471,-51.4509 925.6359,-48.667 928.3336,-45.3468 931.0385,-41.7139 933.7476,-38.4638 936.4571,-35.4368 939.1689,-32.542 941.882,-29.1571 944.5938,-24.9194 947.3069,-21.3167 950.0209,-18.0842 952.1681,-14.5024 953.985,-11.2842 956.1764,-8.2758 958.5861,-5.3898 961.1231,-2.5771 963.7344,0.7598 966.3868,4.4025 969.0654,7.6583 971.7591,11.2536 974.4596,15.6119 977.1662,19.8521 979.8762,23.4563 982.5863,27.2547 985.2984,31.1664 988.5768,34.5769 992.7503,38.8275 997.4478,44.7001 1002.4507,50.9531 1007.0646,56.8629 1011.4517,62.5726 1016.2716,68.1636 1020.7788,73.1204 1024.5387,77.7073 1028.4278,82.6437 1033.5246,88.351 1038.7582,93.9427 1044.0717,98.8998 1050.5638,105.7493 1057.1781,113.1369 1064.4286,120.8383 1072.6172,129.8547 1079.6554,137.9407 1086.0209,146.0491 1093.1263,156.433 1099.531,167.5805 1106.0434,179.9997 L1109.84,187.24 " stroke-linecap="round" fill="none" stroke="#f76707" stroke-width="12.210996574694853" stroke-dasharray="none" stroke-dashoffset="0"/></g></g><g transform="matrix(1, 0, 0, 1, 1120.0834, 644.7269) scale(2.713554794376634, 2.713554794376634)" opacity="1"><g transform="scale(0.36852029009044684)"><path d="M0,0 Q5.6588,1.1301 7.8734,1.4595 T11.9441,1.981 16.0145,2.285 20.0868,2.4622 24.1581,3.1327 28.2289,4.0907 33.4316,4.6492 40.9892,4.9748 48.2246,5.1646 54.1422,5.2753 59.8543,4.7727 66.5789,3.9125 74.4608,3.4111 81.3182,3.1187 87.5783,2.9483 93.4922,2.8489 99.2043,2.791 105.3617,3.3243 111.2137,4.2024 116.8898,5.2794 122.4611,6.4723 127.4064,7.1677 131.9866,8.1382 136.3541,9.2691 140.0325,9.3633 143.3092,8.8532 145.2194,8.5558 144.0687,8.3824 140.0034,8.2813 133.6739,8.2224 127.1544,8.188 120.5242,8.733 113.2644,9.6158 106.2026,10.1305 98.6912,10.9977 89.7855,12.0704 81.199,13.2608 73.931,14.5198 66.2993,15.8189 58.4556,17.1413 51.6185,18.4793 45.3682,19.8266 38.8969,20.612 33.4271,21.0699 28.5388,21.3368 25.124,20.9253 24.2654,20.1183 25.462,19.0827 28.9891,17.914 34.4398,17.2326 41.0119,16.2703 47.1057,15.1442 52.3556,14.4878 58.2456,14.1051 64.5088,13.8819 70.9896,13.7519 78.1623,13.676 84.6062,13.6318 90.0602,13.606 95.5042,13.591 101.5074,13.5822 107.8366,13.5771 113.7887,13.007 120.0861,12.1075 127.719,11.5831 134.9983,11.2774 141.5044,11.0992 148.1267,10.9953 154.8169,10.9347 160.9795,10.8994 166.2695,10.8788 171.0507,10.8668 174.9703,11.4269 177.2554,12.3206 177.4554,12.8416 175.8748,13.1454 172.691,13.3224 168.0076,12.8585 160.1834,12.021 151.0953,11.5327 140.7054,10.6829 128.9894,9.6225 115.9352,8.4392 102.6679,7.1844 90.4087,6.4528 77.6029,6.0263 65.6106,5.7776 54.6597,5.6327 44.3138,6.1132 35.4529,6.9584 26.8925,8.0162 17.9404,9.765 10.4591,11.3517 3.8353,12.2768 -1.7236,12.8161 -6.0965,13.1305 -9.213,12.7466 -10.4628,11.9557 -10.0592,11.4946 -8.1267,11.2258 -4.7378,11.0691 0.6324,10.9777 7.1576,10.9245 14.9212,10.8934 23.4089,10.8753 32.8838,10.8648 42.9342,10.8586 53.3202,10.855 65.5989,10.8529 80.1134,10.8517 94.799,10.851 107.8852,10.2855 121.171,8.8258 136.2726,6.8426 150.7355,4.5542 163.6938,2.09 175.7751,-0.4788 186.2128,-2.5435 196.2574,-4.3122 206.6399,-5.9084 217.2195,-7.4041 225.6495,-8.8411 232.2614,-10.2459 239.8158,-12.3458 L244.22,-13.57 " stroke-linecap="round" fill="none" stroke="#e599f7" stroke-width="12.210996574694853" stroke-dasharray="none" stroke-dashoffset="0"/></g></g><g transform="matrix(1, 0, 0, 1, 1334.4543, 424.929) scale(2.713554794376634, 2.713554794376634)" opacity="1"><g transform="scale(0.36852029009044684)"><path d="M0,0 Q-6.7889,0 -9.9,0 T-15.9571,0.565 -21.1855,1.4595 -25.9309,3.1132 -31.5268,6.9066 -37.0514,11.9476 -41.9694,17.7158 -46.5338,24.4731 -50.3249,30.6748 -53.6673,36.5526 -57.3152,44.506 -61.1391,52.5393 -64.4985,60.617 -67.5891,68.7208 -71.0882,76.2746 -74.8254,84.0728 -78.1363,92.0136 -81.1966,99.4724 -84.1129,106.0852 -87.5103,113.3348 -92.2227,122.3084 L-94.97,127.54 " stroke-linecap="round" fill="none" stroke="#e599f7" stroke-width="12.210996574694853" stroke-dasharray="none" stroke-dashoffset="0"/></g></g><g transform="matrix(1, 0, 0, 1, 1215.0579, 517.1899) scale(2.713554794376634, 2.713554794376634)" opacity="1"><g transform="scale(0.36852029009044684)"><path d="M0,2.71 Q3.3945,9.4989 4.949,12.61 T7.4098,18.102 9.9765,23.5682 13.1702,29.0172 16.1642,33.324 19.0419,36.967 22.4168,39.6579 26.0816,41.2268 29.9153,41.5742 33.8476,40.6446 37.8373,38.9726 41.8605,37.4327 45.3381,36.535 49.0628,36.0117 52.9315,35.7066 56.8862,34.9615 62.0939,33.4445 L65.13,32.56 " stroke-linecap="round" fill="none" stroke="#e599f7" stroke-width="12.210996574694853" stroke-dasharray="none" stroke-dashoffset="0"/></g></g><g transform="matrix(1, 0, 0, 1, 1367.0169, 289.2512) scale(2.713554794376634, 2.713554794376634)" opacity="1"><g transform="scale(0.36852029009044684)"><path d="M0,0 Q3.3945,7.919 4.949,11.3595 T7.4098,18.5031 8.8444,26.0622 10.2479,32.7334 11.6332,37.7549 12.4409,39.5502 12.9117,37.7674 13.1862,34.4658 13.9113,30.2787 15.4641,26.1383 17.5016,22.5924 19.8216,19.395 22.3063,16.9659 24.887,15.5498 26.9566,15.2892 28.7282,16.8346 30.3261,19.9999 31.2577,23.5424 31.8008,26.7378 32.6845,29.1657 33.7668,29.4511 34.3978,27.3551 35.3308,23.8689 37.5719,19.5721 40.5756,14.8048 44.024,10.3283 48.2967,6.5863 53.0499,3.8398 57.5203,2.8036 61.2587,3.3317 64.5682,4.7718 67.0627,7.3085 69.084,10.4847 70.8296,14.0336 71.8473,18.9319 72.746,25.829 L73.27,29.85 " stroke-linecap="round" fill="none" stroke="#e599f7" stroke-width="12.210996574694853" stroke-dasharray="none" stroke-dashoffset="0"/></g></g><g transform="matrix(1, 0, 0, 1, 1478.2727, 289.2512) scale(2.713554794376634, 2.713554794376634)" opacity="1"><g transform="scale(0.36852029009044684)"><path d="M0,0 Q0,2.2644 0,3.4895 T0,6.561 0,10.6139 0,15.8061 0,21.0975 0.565,24.7474 2.5917,25.743 6.0376,23.4941 9.1787,19.3536 11.5749,14.6774 13.537,10.254 15.2459,6.543 17.3744,4.3796 19.1824,4.8155 20.8015,7.334 22.8776,11.0646 25.7851,14.9367 30.0649,19.2155 L32.56,21.71 " stroke-linecap="round" fill="none" stroke="#e599f7" stroke-width="12.210996574694853" stroke-dasharray="none" stroke-dashoffset="0"/></g></g><g transform="matrix(1, 0, 0, 1, 1513.5489, 234.9802) scale(2.713554794376634, 2.713554794376634)" opacity="1"><g transform="scale(0.36852029009044684)"><path d="M0,0 Q2.2644,5.6588 3.4895,9.0056 T5.4288,16.5657 7.1244,25.4998 9.2452,34.6699 11.0487,43.4105 12.6651,51.3355 14.7376,57.653 17.078,61.9011 19.5747,63.2455 21.5952,62.332 23.9054,60.1023 26.3843,57.1051 28.3946,53.6606 30.6987,49.9552 32.6092,46.6628 33.7229,44.7434 34.9373,45.3216 36.2103,47.921 36.9525,51.7008 37.9502,55.6016 39.664,59.5729 42.3604,62.4553 46.4537,64.145 L48.84,65.13 " stroke-linecap="round" fill="none" stroke="#e599f7" stroke-width="12.210996574694853" stroke-dasharray="none" stroke-dashoffset="0"/></g></g><g transform="matrix(1, 0, 0, 1, 1597.6691, 251.2615) scale(2.713554794376634, 2.713554794376634)" opacity="1"><g transform="scale(0.36852029009044684)"><path d="M0,0 Q-3.3945,5.6588 -4.3839,7.8734 T-6.5153,11.9441 -7.1928,14.8823 -5.8906,16.5952 -3.4341,17.5939 -0.3048,18.1761 2.6517,18.5155 5.5054,19.2805 7.7342,20.8587 9.0335,22.9109 9.2259,25.2395 8.208,27.7272 5.9174,30.3096 1.7526,32.9474 -4.4967,36.1329 L-8.14,37.99 " stroke-linecap="round" fill="none" stroke="#e599f7" stroke-width="12.210996574694853" stroke-dasharray="none" stroke-dashoffset="0"/></g></g><g transform="matrix(1, 0, 0, 1, 1627.5182, 259.4021) scale(2.713554794376634, 2.713554794376634)" opacity="1"><g transform="scale(0.36852029009044684)"><path d="M0,0 Q5.6588,7.919 7.8734,11.9267 T11.379,20.533 13.9878,30.075 16.0738,40.1646 17.857,49.4432 19.4637,57.682 19.8333,63.0501 18.9166,63.3503 17.2521,60.1309 15.7166,54.2924 14.2543,46.927 12.8347,38.6736 11.442,29.3352 10.065,19.9295 9.2623,11.0516 8.7943,2.4814 8.5214,-5.3423 8.9274,-12.1657 10.2963,-17.2759 12.2265,-20.8222 15.049,-23.4568 18.9589,-24.9927 22.9355,-25.321 26.9511,-24.3802 31.5544,-22.6996 35.9354,-20.0226 39.6216,-16.7647 42.3356,-13.1681 43.9179,-8.8091 44.8404,-4.5705 44.8131,-0.9674 43.665,2.2654 41.2985,5.2802 38.2216,8.17 34.7306,10.4219 30.433,11.7347 24.9226,12.8941 L21.71,13.57 " stroke-linecap="round" fill="none" stroke="#e599f7" stroke-width="12.210996574694853" stroke-dasharray="none" stroke-dashoffset="0"/></g></g><g transform="matrix(1, 0, 0, 1, 1681.7893, 232.2666) scale(2.713554794376634, 2.713554794376634)" opacity="1"><g transform="scale(0.36852029009044684)"><path d="M0,0 Q2.2644,0 2.9244,1.1322 T3.9693,4.0545 5.1435,8.0205 6.393,12.0298 7.6866,16.0645 9.5729,20.681 11.8048,25.0696 14.236,28.1932 16.2185,28.8841 17.9414,27.0246 20.078,23.6762 21.8886,18.8947 22.9442,13.2777 23.5596,8.3058 24.4856,4.2772 26.1575,1.3635 28.2624,0.2298 30.0545,0.699 31.6665,2.1048 33.7384,4.0565 36.0764,6.3244 38.5716,8.7787 41.7235,11.3418 46.2191,14.4613 L48.84,16.28 " stroke-linecap="round" fill="none" stroke="#e599f7" stroke-width="12.210996574694853" stroke-dasharray="none" stroke-dashoffset="0"/></g></g><g transform="matrix(1, 0, 0, 1, 1727.9197, 218.6988) scale(2.713554794376634, 2.713554794376634)" opacity="1"><g transform="scale(0.36852029009044684)"><path d="M2.71,0 Q7.2387,4.5246 8.5588,6.9756 T11.2136,11.4207 13.3263,15.7093 14.558,19.9089 15.8412,22.3572 17.1543,22.0852 17.9198,19.6644 18.9332,15.4257 20.0912,10.1252 21.3313,5.9029 22.6193,2.8763 23.9373,0.5468 25.8379,-0.2463 28.076,1.5536 30.513,5.4324 33.0659,9.9559 35.1193,14.2904 36.8815,17.9495 39.606,21.2149 42.8916,22.5535 46.6493,22.0207 L48.84,21.71 " stroke-linecap="round" fill="none" stroke="#e599f7" stroke-width="12.210996574694853" stroke-dasharray="none" stroke-dashoffset="0"/></g></g><g transform="matrix(1, 0, 0, 1, 1782.1908, 142.7193) scale(2.713554794376634, 2.713554794376634)" opacity="1"><g transform="scale(0.36852029009044684)"><path d="M0,0 Q2.2644,4.5246 3.4895,7.5407 T5.4288,15.7117 7.1244,25.002 9.2452,34.3776 11.6137,44.3701 14.1246,53.5902 16.1535,61.7948 17.9035,68.2752 20.623,73.1854 23.3407,76.048 25.4901,76.5847 27.8733,75.2003 29.8277,72.6961 30.9671,70.106 32.1985,66.8988 33.4835,63.3297 34.2327,60.1168 34.1023,58.2437 33.4591,58.8489 33.0842,61.4661 33.4327,65.2562 34.7681,69.7282 36.6767,74.0325 38.9216,78.2391 41.3625,82.3887 44.4828,85.375 47.9991,87.116 51.7463,86.9988 55.6281,84.1011 59.9123,78.9709 L62.41,75.98 " stroke-linecap="round" fill="none" stroke="#e599f7" stroke-width="12.210996574694853" stroke-dasharray="none" stroke-dashoffset="0"/></g></g><g transform="matrix(1, 0, 0, 1, 1847.3161, 115.5837) scale(2.713554794376634, 2.713554794376634)" opacity="1"><g transform="scale(0.36852029009044684)"><path d="M0,0 Q3.3945,6.7889 4.949,11.0322 T7.9769,20.5766 10.3093,31.7977 12.2341,43.4332 14.4863,54.1782 16.9315,63.8369 19.4892,72.8623 22.6041,83.4042 L24.42,89.55 " stroke-linecap="round" fill="none" stroke="#e599f7" stroke-width="12.210996574694853" stroke-dasharray="none" stroke-dashoffset="0"/></g></g><g transform="matrix(1, 0, 0, 1, 1863.5975, 159.0006) scale(2.713554794376634, 2.713554794376634)" opacity="1"><g transform="scale(0.36852029009044684)"><path d="M0,0 Q-7.919,3.3945 -13.0568,4.949 T-25.3773,8.6767 L-32.56,10.85 " stroke-linecap="round" fill="none" stroke="#e599f7" stroke-width="12.210996574694853" stroke-dasharray="none" stroke-dashoffset="0"/></g></g><g transform="matrix(1, 0, 0, 1, 1421.288, 422.2154) scale(2.713554794376634, 2.713554794376634)" opacity="1"><g transform="scale(0.36852029009044684)"><path d="M0,2.71 Q4.5246,14.0276 6.9756,21.2862 T10.8556,33.9086 13.6827,44.6638 15.3308,56.0257 15.9304,70.3431 L16.28,78.69 " stroke-linecap="round" fill="none" stroke="#ffc034" stroke-width="12.210996574694853" stroke-dasharray="none" stroke-dashoffset="0"/></g></g><g transform="matrix(1, 0, 0, 1, 1415.8609, 414.0748) scale(2.713554794376634, 2.713554794376634)" opacity="1"><g transform="scale(0.36852029009044684)"><path d="M0,0 Q5.6588,1.1301 8.4384,2.0266 T14.5378,3.4459 20.9232,3.7061 26.343,2.7257 31.1999,1.024 36.2937,-1.6653 41.5277,-4.9304 47.8653,-8.6699 L51.56,-10.85 " stroke-linecap="round" fill="none" stroke="#ffc034" stroke-width="12.210996574694853" stroke-dasharray="none" stroke-dashoffset="0"/></g></g><g transform="matrix(1, 0, 0, 1, 1429.4287, 454.7781) scale(2.713554794376634, 2.713554794376634)" opacity="1"><g transform="scale(0.36852029009044684)"><path d="M0,0 Q5.6588,3.3945 7.8734,3.2517 T11.9441,2.4608 16.0145,0.8696 20.0868,-1.1903 24.1581,-4.0884 29.4657,-8.3598 L32.56,-10.85 " stroke-linecap="round" fill="none" stroke="#ffc034" stroke-width="12.210996574694853" stroke-dasharray="none" stroke-dashoffset="0"/></g></g><g transform="matrix(1, 0, 0, 1, 1478.2727, 452.0645) scale(2.713554794376634, 2.713554794376634)" opacity="1"><g transform="scale(0.36852029009044684)"><path d="M0,0 Q2.2644,5.6588 3.4895,7.8734 T5.4288,13.0762 7.1244,18.9389 9.2452,24.054 11.6137,27.6011 14.1246,28.5389 16.7207,27.3884 18.8013,25.0184 20.5793,21.3744 22.1809,16.4227 23.1146,10.7064 23.659,5.6767 24.5435,3.3095 26.1913,3.6266 28.2821,5.5087 30.066,8.3032 31.6732,11.6296 33.7423,15.8311 36.6458,19.9799 40.0358,22.9657 42.5771,24.1393 44.6237,23.6913 46.382,21.1679 47.9741,17.4323 50.0345,14.1224 52.3658,11.6277 55.4221,10.1733 58.9033,9.8904 62.0649,11.4228 65.7131,14.4912 L67.84,16.28 " stroke-linecap="round" fill="none" stroke="#ffc034" stroke-width="12.210996574694853" stroke-dasharray="none" stroke-dashoffset="0"/></g></g><g transform="matrix(1, 0, 0, 1, 1529.8302, 389.6528) scale(2.713554794376634, 2.713554794376634)" opacity="1"><g transform="scale(0.36852029009044684)"><path d="M0,0 Q4.5246,4.5246 6.4106,8.1078 T10.5262,16.0423 14.6228,25.7598 18.1433,37.0837 21.8929,48.7772 25.2111,58.9888 27.7106,66.6394 30.3,71.0995 32.9417,72.0026 35.612,69.6996 38.3009,64.9625 40.4356,58.8064 42.2452,52.3881 44.4302,48.0812 46.8363,47.2675 48.8061,49.0554 49.9545,52.3621 51.1891,55.9871 53.0389,59.7977 55.2495,63.7165 58.2376,66.5661 62.2419,68.2274 66.8386,67.4987 72.6134,64.2841 L75.98,62.41 " stroke-linecap="round" fill="none" stroke="#ffc034" stroke-width="12.210996574694853" stroke-dasharray="none" stroke-dashoffset="0"/></g></g><g transform="matrix(1, 0, 0, 1, 1605.8098, 416.7883) scale(2.713554794376634, 2.713554794376634)" opacity="1"><g transform="scale(0.36852029009044684)"><path d="M2.71,0 Q7.2387,4.5246 9.1239,5.8434 T12.6731,8.4984 15.8744,11.1783 18.873,14.438 21.1861,18.0355 21.9696,21.8301 21.2942,25.7395 19.7683,28.5837 16.6164,30.2419 12.5166,30.0785 8.0399,28.2222 L5.43,27.14 " stroke-linecap="round" fill="none" stroke="#ffc034" stroke-width="12.210996574694853" stroke-dasharray="none" stroke-dashoffset="0"/></g></g><g transform="matrix(1, 0, 0, 1, 1646.5131, 424.929) scale(2.713554794376634, 2.713554794376634)" opacity="1"><g transform="scale(0.36852029009044684)"><path d="M0,0 Q3.3945,6.7889 4.949,9.9 T7.9769,15.9571 11.4394,21.7506 15.1552,27.3904 18.4536,32.9427 20.9417,38.4419 22.9593,43.9102 24.7027,49.3625 25.7191,54.8055 25.7445,59.676 24.6271,63.6455 22.2785,66.5247 18.6449,68.2033 13.6971,69.1819 7.4182,69.1874 0.3631,68.0605 -6.5772,65.1391 -12.8856,60.6066 -17.6956,55.7019 -21.9435,49.6552 L-24.42,46.13 " stroke-linecap="round" fill="none" stroke="#ffc034" stroke-width="12.210996574694853" stroke-dasharray="none" stroke-dashoffset="0"/></g></g><g transform="matrix(1, 0, 0, 1, 1681.7893, 408.6477) scale(2.713554794376634, 2.713554794376634)" opacity="1"><g transform="scale(0.36852029009044684)"><path d="M0,0 Q0,-4.5246 -0.565,-4.7133 T-2.5917,-3.88 -5.4704,-1.1298 -7.7138,2.7358 -9.0216,7.8167 -9.7841,13.6083 -10.2286,18.684 -9.9227,22.7753 -8.6142,25.7255 -6.1542,26.8804 -3.0228,25.2893 0.5,20.9652 4.251,14.4848 7.57,6.7473 10.072,-0.593 12.2818,-8.7908 L13.57,-13.57 " stroke-linecap="round" fill="none" stroke="#ffc034" stroke-width="12.210996574694853" stroke-dasharray="none" stroke-dashoffset="0"/></g></g><g transform="matrix(1, 0, 0, 1, 1708.9248, 386.9392) scale(2.713554794376634, 2.713554794376634)" opacity="1"><g transform="scale(0.36852029009044684)"><path d="M0,0 Q5.6588,4.5246 7.3083,7.5407 T9.9195,12.8823 11.4418,15.9964 12.3293,16.1147 12.8467,13.3563 13.7134,8.9188 14.7837,4.0674 15.9727,-0.4582 17.7981,-4.2266 19.9944,-6.9886 22.9721,-8.5989 26.4053,-8.4075 29.539,-6.0337 32.4981,-2.3854 34.7883,2.0038 36.1234,7.39 37.3026,14.7179 L37.99,18.99 " stroke-linecap="round" fill="none" stroke="#ffc034" stroke-width="12.210996574694853" stroke-dasharray="none" stroke-dashoffset="0"/></g></g><g transform="matrix(1, 0, 0, 1, 1749.6282, 386.9392) scale(2.713554794376634, 2.713554794376634)" opacity="1"><g transform="scale(0.36852029009044684)"><path d="M0,0 Q7.919,0 10.7945,-0.565 T15.9114,-2.5917 20.0267,-6.0376 23.5581,-10.3088 26.7469,-16.1933 29.7382,-22.4533 32.0492,-25.5378 32.8293,-24.5066 32.717,-20.5089 32.6515,-15.351 32.6134,-9.5166 33.1582,-3.2858 34.6081,1.4789 36.5834,3.6916 38.8672,2.7193 41.8959,-1.242 45.3588,-6.3808 49.0748,-12.2061 52.9385,-18.4316 56.3232,-23.7582 59.9936,-27.4286 63.2656,-28.4384 65.1732,-27.3298 66.2853,-25.5513 66.9336,-24.5145 67.8766,-25.0422 69.5586,-27.0471 71.6713,-29.9132 74.0331,-32.1512 76.5422,-33.4559 79.7022,-33.6495 83.8068,-32.6301 87.8969,-30.3386 92.5458,-26.1733 99.2257,-19.9235 L103.12,-16.28 " stroke-linecap="round" fill="none" stroke="#ffc034" stroke-width="12.210996574694853" stroke-dasharray="none" stroke-dashoffset="0"/></g></g><g transform="matrix(1, 0, 0, 1, 1638.3724, 357.0901) scale(2.713554794376634, 2.713554794376634)" opacity="1"><g transform="scale(0.36852029009044684)"><path d="M 0 0 m -0.5, 0 a 0.5,0.5 0 1,0 1,0 a 0.5,0.5 0 1,0 -1,0" stroke-linecap="round" fill="#ffc034" stroke="#ffc034" stroke-width="12.210996574694853" stroke-dasharray="none" stroke-dashoffset="0"/></g></g><g transform="matrix(1, 0, 0, 1, 1470.132, 571.4609) scale(2.713554794376634, 2.713554794376634)" opacity="1"><g transform="scale(0.36852029009044684)"><path d="M0,0 Q3.3945,7.919 4.949,11.9267 T7.9769,19.4009 10.3093,27.1527 12.2341,35.6335 13.9213,43.9723 14.9049,51.0959 16.0434,55.814 17.2721,57.4324 18.5556,55.5465 20.4361,51.0526 22.6645,45.0382 25.0959,38.1375 27.6435,31.8521 30.2608,26.4906 32.9189,22.7977 35.5987,21.777 37.726,23.4463 39.5333,27.2489 41.7191,31.728 43.5585,36.6016 45.763,42.2723 49.4251,49.8514 L51.56,54.27 " stroke-linecap="round" fill="none" stroke="#ffc034" stroke-width="12.210996574694853" stroke-dasharray="none" stroke-dashoffset="0"/></g></g><g transform="matrix(1, 0, 0, 1, 1524.4031, 595.8829) scale(2.713554794376634, 2.713554794376634)" opacity="1"><g transform="scale(0.36852029009044684)"><path d="M0,0 Q4.5246,3.3945 6.9756,4.949 T11.4207,7.9769 15.7093,10.8743 19.9089,13.1285 23.4894,14.4427 26.7069,14.0767 29.1477,11.601 30.5706,7.3304 31.4002,2.0113 31.8839,-3.9191 32.1658,-10.7709 32.4148,-19.3933 L32.56,-24.42 " stroke-linecap="round" fill="none" stroke="#ffc034" stroke-width="12.210996574694853" stroke-dasharray="none" stroke-dashoffset="0"/></g></g><g transform="matrix(1, 0, 0, 1, 1565.1064, 593.1694) scale(2.713554794376634, 2.713554794376634)" opacity="1"><g transform="scale(0.36852029009044684)"><path d="M0,0 Q6.7889,-1.1301 9.3329,-2.5917 T13.9271,-6.0376 17.7377,-10.3088 20.5243,-15.6282 22.716,-21.5588 24.5608,-27.2786 25.0692,-31.1803 24.7985,-31.7577 24.6407,-29.83 24.5486,-26.4418 24.495,-22.2042 25.0309,-17.4715 26.4754,-12.448 29.0148,-7.8221 32.7576,-3.9952 37.2018,-1.1991 42.0571,-0.134 47.15,-1.2103 51.8163,-4.1 55.6689,-8.047 58.48,-13.1775 60.1189,-18.9979 60.5092,-25.7856 59.6046,-33.1372 57.9451,-39.1204 55.8475,-43.1736 54.6246,-45.5365 55.0418,-46.3491 56.4172,-46.2577 58.3512,-45.6394 61.1759,-44.7139 65.3857,-43.8965 L67.84,-43.42 " stroke-linecap="round" fill="none" stroke="#ffc034" stroke-width="12.210996574694853" stroke-dasharray="none" stroke-dashoffset="0"/></g></g><g transform="matrix(1, 0, 0, 1, 1632.9453, 503.6221) scale(2.713554794376634, 2.713554794376634)" opacity="1"><g transform="scale(0.36852029009044684)"><path d="M2.71,0 Q7.2387,11.3176 9.6889,16.8789 T14.6997,28.5119 19.3203,39.8204 23.7113,49.2425 28.5335,56.4328 33.042,60.0575 36.8026,59.9064 39.5621,56.9888 41.1709,52.4606 42.1088,46.9933 42.6556,41.5416 42.9743,38.3633 43.1602,38.7748 43.8336,41.842 45.3563,45.8924 47.3761,49.951 49.6859,53.4493 52.1626,56.6209 54.7386,59.035 57.9397,59.8774 62.4819,59.7653 L65.13,59.7 " stroke-linecap="round" fill="none" stroke="#ffc034" stroke-width="12.210996574694853" stroke-dasharray="none" stroke-dashoffset="0"/></g></g><g transform="matrix(1, 0, 0, 1, 1706.2113, 533.4712) scale(2.713554794376634, 2.713554794376634)" opacity="1"><g transform="scale(0.36852029009044684)"><path d="M0,0 Q5.6588,-1.1301 7.8734,-2.5917 T11.9441,-5.4704 14.8823,-8.8459 17.1624,-13.6432 19.0588,-19.2694 19.5972,-23.6816 18.779,-25.6888 17.1718,-25.1618 15.6698,-22.5902 14.227,-18.8266 12.8188,-14.3702 11.9978,-9.5099 12.0863,-4.412 13.2701,0.2573 15.6574,4.1095 19.3136,6.9203 23.7074,8.559 29.0962,8.3843 35.0673,6.0201 40.2456,2.9446 44.3967,-0.5456 46.8167,-4.2776 47.6604,-7.5855 48.1523,-11.7783 49.0062,-17.0521 50.6362,-22.3889 52.7166,-26.6304 55.6267,-29.6702 59.0225,-32.0095 62.1344,-32.8062 65.6459,-31.5735 69.3903,-29.1575 72.7033,-26.6169 75.7669,-24.0035 79.2502,-21.9128 82.9782,-20.694 86.8488,-19.9834 91.9791,-19.3559 L94.97,-18.99 " stroke-linecap="round" fill="none" stroke="#ffc034" stroke-width="12.210996574694853" stroke-dasharray="none" stroke-dashoffset="0"/></g></g><g transform="matrix(1, 0, 0, 1, 1632.9453, 639.2998) scale(2.713554794376634, 2.713554794376634)" opacity="1"><g transform="scale(0.36852029009044684)"><path d="M0,0 Q3.3945,-1.1301 3.2517,-0.3294 T2.4608,2.6353 0.8696,7.1931 -1.1903,11.5475 -3.5233,16.3504 -4.8835,21.4148 -3.4142,24.9324 0.2719,26.9831 4.6851,28.1786 9.5203,28.8756 14.6014,29.847 18.6959,32.1105 21.0829,35.6945 21.9094,40.0462 20.6941,44.8455 17.7212,49.3406 13.7257,53.0935 9.1342,55.8484 4.7601,57.4546 0.5128,57.8238 -4.9533,57.2908 L-8.14,56.98 " stroke-linecap="round" fill="none" stroke="#ffc034" stroke-width="12.210996574694853" stroke-dasharray="none" stroke-dashoffset="0"/></g></g><g transform="matrix(1, 0, 0, 1, 1687.2164, 579.6016) scale(2.713554794376634, 2.713554794376634)" opacity="1"><g transform="scale(0.36852029009044684)"><path d="M0,0 Q1.1301,11.3176 1.4595,16.8789 T1.981,27.9447 2.285,39.4877 2.4622,51.3109 3.1327,62.1652 4.6557,71.3206 6.6738,77.7882 9.5475,81.5587 13.4872,83.1918 18.6817,83.7782 L21.71,84.12 " stroke-linecap="round" fill="none" stroke="#ffc034" stroke-width="12.210996574694853" stroke-dasharray="none" stroke-dashoffset="0"/></g></g><g transform="matrix(1, 0, 0, 1, 1695.3571, 625.732) scale(2.713554794376634, 2.713554794376634)" opacity="1"><g transform="scale(0.36852029009044684)"><path d="M0,0 Q-4.5246,4.5246 -6.4106,6.4106 T-9.9612,9.9612 -13.7284,13.7284 -18.7705,18.7705 L-21.71,21.71 " stroke-linecap="round" fill="none" stroke="#ffc034" stroke-width="12.210996574694853" stroke-dasharray="none" stroke-dashoffset="0"/></g></g><g transform="matrix(1, 0, 0, 1, 1725.2062, 639.2998) scale(2.713554794376634, 2.713554794376634)" opacity="1"><g transform="scale(0.36852029009044684)"><path d="M 0 0 m -0.5, 0 a 0.5,0.5 0 1,0 1,0 a 0.5,0.5 0 1,0 -1,0" stroke-linecap="round" fill="#ffc034" stroke="#ffc034" stroke-width="12.210996574694853" stroke-dasharray="none" stroke-dashoffset="0"/></g></g><g transform="matrix(1, 0, 0, 1, 1774.0501, 606.7372) scale(2.713554794376634, 2.713554794376634)" opacity="1"><g transform="scale(0.36852029009044684)"><path d="M0,0 L5.43,-10.85 " stroke-linecap="round" fill="none" stroke="#ffc034" stroke-width="12.210996574694853" stroke-dasharray="none" stroke-dashoffset="0"/></g></g><g transform="matrix(1, 0, 0, 1, 1719.7791, 585.0287) scale(2.713554794376634, 2.713554794376634)" opacity="1"><g transform="scale(0.36852029009044684)"><path d="M0,0 L10.85,2.71 " stroke-linecap="round" fill="none" stroke="#ffc034" stroke-width="12.210996574694853" stroke-dasharray="none" stroke-dashoffset="0"/></g></g><g transform="matrix(1, 0, 0, 1, 1763.1959, 614.8778) scale(2.713554794376634, 2.713554794376634)" opacity="1"><g transform="scale(0.36852029009044684)"><path d="M0,0 Q2.2644,-6.7889 3.4895,-10.4651 T4.8637,-16.2844 5.0999,-18.5448 4.6704,-17.6004 3.2878,-14.7875 1.3517,-10.8832 -0.342,-6.3448 -1.8966,-1.4367 -3.3701,4.2541 -4.2291,9.8341 -4.1627,14.2193 -2.9919,17.343 -0.6121,18.5969 3.0376,17.6308 6.8626,15.3703 9.6596,12.9202 11.8553,9.7946 14.2655,6.2752 16.8028,4.2234 19.4142,4.7245 22.0688,7.281 25.3136,11.6008 28.9026,17.5137 32.1271,24.3553 35.137,32.8705 37.4568,41.7943 38.8093,50.9563 39.0327,60.2592 37.4657,68.5122 33.1577,76.153 27.8168,81.7396 22.4387,84.9966 15.9089,85.7633 9.2747,83.9458 3.1448,80.0569 -1.5611,74.9623 -5.7171,68.7511 L-8.14,65.13 " stroke-linecap="round" fill="none" stroke="#ffc034" stroke-width="12.210996574694853" stroke-dasharray="none" stroke-dashoffset="0"/></g></g><g transform="matrix(1, 0, 0, 1, 1793.045, 609.4507) scale(2.713554794376634, 2.713554794376634)" opacity="1"><g transform="scale(0.36852029009044684)"><path d="M0,0 Q6.7889,-2.2644 9.3329,-4.0545 T13.9271,-7.4554 17.1727,-10.5703 18.4976,-12.9513 18.703,-13.2072 18.2576,-11.6592 17.4329,-8.4944 16.3871,-4.3871 15.2123,0.2697 15.0925,5.2489 16.1528,9.849 18.4681,14.228 22.6473,17.3481 27.9132,19.167 34.3776,19.6603 42.1058,18.2507 49.4406,14.6016 55.4161,9.6448 60.0319,4.4906 63.288,-1.3436 64.054,-8.7044 62.2363,-16.9552 59.4793,-24.0297 56.1748,-29.2862 52.5511,-33.4808 50.4385,-36.4913 50.9041,-37.6813 53.4399,-37.81 57.1826,-37.8851 62.194,-38.4939 67.9429,-39.981 74.732,-42.1535 L78.69,-43.42 " stroke-linecap="round" fill="none" stroke="#ffc034" stroke-width="12.210996574694853" stroke-dasharray="none" stroke-dashoffset="0"/></g></g><g transform="matrix(1, 0, 0, 1, 1703.4977, 793.9724) scale(2.713554794376634, 2.713554794376634)" opacity="1"><g transform="scale(0.36852029009044684)"><path d="M0,0 Q7.919,0 11.3595,-1.1322 T17.373,-3.4895 22.011,-6.561 26.4121,-10.6139 30.6751,-15.8061 33.7255,-22.7947 35.5038,-29.6963 35.9755,-34.8521 34.5533,-37.8579 32.0269,-37.913 29.4219,-36.2479 26.771,-33.5799 24.0934,-28.065 21.4002,-20.3232 19.265,-12.9804 18.0202,-6.4353 18.4267,-0.3573 21.4931,6.0135 26.6752,11.4248 33.0908,14.5796 40.7906,15.2887 49.241,12.8747 56.997,8.073 65.5586,1.2612 L70.55,-2.71 " stroke-linecap="round" fill="none" stroke="#ffc034" stroke-width="12.210996574694853" stroke-dasharray="none" stroke-dashoffset="0"/></g></g><g transform="matrix(1, 0, 0, 1, 1774.0501, 704.4251) scale(2.713554794376634, 2.713554794376634)" opacity="1"><g transform="scale(0.36852029009044684)"><path d="M0,0 Q3.3945,9.0533 4.3839,14.5217 T5.9502,24.3082 6.8634,32.2759 7.3957,42.0148 7.7061,53.9163 8.4521,64.8143 10.0192,72.865 12.0649,76.4262 14.3877,75.108 17.4391,69.8128 20.3502,61.6341 22.9212,50.128 L24.42,43.42 " stroke-linecap="round" fill="none" stroke="#ffc034" stroke-width="12.210996574694853" stroke-dasharray="none" stroke-dashoffset="0"/></g></g><g transform="matrix(1, 0, 0, 1, 1793.045, 690.8574) scale(2.713554794376634, 2.713554794376634)" opacity="1"><g transform="scale(0.36852029009044684)"><path d="M0,0 Q2.2644,14.7121 2.9244,20.1307 T5.0994,33.2349 7.4974,46.5334 8.8955,57.1157 10.8427,66.1145 14.2775,75.7769 L16.28,81.41 " stroke-linecap="round" fill="none" stroke="#ffc034" stroke-width="12.210996574694853" stroke-dasharray="none" stroke-dashoffset="0"/></g></g><g transform="matrix(1, 0, 0, 1, 1814.7535, 753.2691) scale(2.713554794376634, 2.713554794376634)" opacity="1"><g transform="scale(0.36852029009044684)"><path d="M0,0 Q5.6588,2.2644 8.4384,2.3573 T13.9707,1.3743 19.4603,-1.4611 24.358,-4.8113 28.3454,-7.8966 31.8023,-12.5248 34.3826,-18.0523 35.3219,-21.842 34.1722,-24.0513 31.8048,-24.7722 28.7273,-23.4931 25.2339,-21.0502 22.0651,-17.3638 19.6527,-12.3852 17.6812,-6.6533 16.5318,-1.0494 18.124,3.9148 21.3166,7.9411 26.0073,10.8535 32.1364,12.5513 38.539,11.8439 45.099,9.1672 51.1856,5.9094 56.4334,2.313 60.625,-2.046 63.6337,-7.4146 65.3878,-13.3738 65.8453,-19.6774 64.9799,-25.6167 63.9082,-30.7765 63.8506,-34.9147 64.9492,-37.3272 67.8519,-38.7337 74.0708,-40.1208 81.6559,-41.4966 89.4723,-42.2987 99.8057,-43.007 L105.83,-43.42 " stroke-linecap="round" fill="none" stroke="#ffc034" stroke-width="12.210996574694853" stroke-dasharray="none" stroke-dashoffset="0"/></g></g><g transform="matrix(1, 0, 0, 1, 1809.3264, 850.9571) scale(2.713554794376634, 2.713554794376634)" opacity="1"><g transform="scale(0.36852029009044684)"><path d="M0,0 Q4.5246,-3.3945 5.2784,-4.3839 T5.3395,-5.3852 3.1129,-4.8367 0.1176,-2.8198 -3.3259,0.0533 -7.0307,3.4255 -10.3227,7.6538 -13.372,11.816 -15.7147,15.3748 -16.5155,18.5817 -15.8523,21.0163 -13.2033,23.0028 -9.3946,24.7281 -5.477,26.2989 -1.4958,28.3448 1.9574,31.2348 4.5356,35.1839 6.0387,39.7485 5.7828,44.1069 3.3713,48.345 -0.2968,53.0781 -4.6997,56.9696 -8.9637,59.8054 -13.1469,62.0258 -16.7178,62.7532 -19.3646,61.4779 -22.5582,58.6365 L-24.42,56.98 " stroke-linecap="round" fill="none" stroke="#ffc034" stroke-width="12.210996574694853" stroke-dasharray="none" stroke-dashoffset="0"/></g></g><g transform="matrix(1, 0, 0, 1, 1833.7484, 861.8113) scale(2.713554794376634, 2.713554794376634)" opacity="1"><g transform="scale(0.36852029009044684)"><path d="M0,0 Q2.2644,5.6588 2.9244,8.4384 T3.9693,13.9707 5.1435,20.0254 7.5252,25.8196 10.611,29.7647 14.6723,32.0646 19.3043,32.8383 23.1369,31.025 26.5014,27.7056 29.0279,23.5082 30.5008,18.2317 30.7945,13.4583 29.8356,10.6755 28.1444,10.1832 26.5913,11.0284 26.253,12.6533 26.6229,15.2979 27.4036,19.104 29.5559,23.5852 33.6401,29.025 38.2835,34.4607 42.6877,39.894 46.9526,45.3239 50.004,50.7517 51.783,56.7455 52.8201,61.9371 52.8597,67.226 51.7506,73.1388 49.4067,79.4153 45.778,85.3367 41.3982,89.3539 36.5825,91.6958 31.5127,92.4962 26.2927,90.7004 21.5523,86.8242 17.6565,81.1699 14.2531,73.914 10.3913,64.9348 L8.14,59.7 " stroke-linecap="round" fill="none" stroke="#ffc034" stroke-width="12.210996574694853" stroke-dasharray="none" stroke-dashoffset="0"/></g></g><g transform="matrix(1, 0, 0, 1, 1877.1652, 853.6706) scale(2.713554794376634, 2.713554794376634)" opacity="1"><g transform="scale(0.36852029009044684)"><path d="M0,0 Q3.3945,7.919 4.949,10.7945 T7.9769,16.4785 10.8743,22.0546 13.6936,26.4354 16.4694,28.4244 18.6548,27.8867 20.4939,24.7438 22.1311,20.0822 23.0856,15.1022 24.2092,9.9366 25.4314,5.2279 26.1439,2.4828 26.5593,2.0125 26.8014,4.0006 26.9426,7.424 27.59,12.2492 29.0975,17.8917 31.1085,21.1812 33.4131,21.3996 36.4539,18.6976 40.8545,13.7401 L43.42,10.85 " stroke-linecap="round" fill="none" stroke="#ffc034" stroke-width="12.210996574694853" stroke-dasharray="none" stroke-dashoffset="0"/></g></g><g transform="matrix(1, 0, 0, 1, 1926.0092, 791.2589) scale(2.713554794376634, 2.713554794376634)" opacity="1"><g transform="scale(0.36852029009044684)"><path d="M0,2.71 Q2.2644,9.4989 3.4895,13.1772 T5.4288,21.2621 7.1244,30.5 9.2452,40.9774 11.0487,51.0472 13.2302,60.3122 16.1992,68.5431 19.6294,74.4737 23.3265,78.4963 26.6119,79.7093 29.6594,78.1541 32.5683,74.9852 35.3943,70.3084 37.6068,64.7524 38.8967,59.249 39.6487,54.3433 40.0871,51.4833 40.3427,52.6454 40.4917,56.7194 40.5786,61.3568 40.6292,65.7576 40.6587,69.4554 41.2431,72.7413 42.7159,75.2219 45.2718,75.5381 49.2442,74.1053 L51.56,73.27 " stroke-linecap="round" fill="none" stroke="#ffc034" stroke-width="12.210996574694853" stroke-dasharray="none" stroke-dashoffset="0"/></g></g><g transform="matrix(1, 0, 0, 1, 1985.7074, 840.1029) scale(2.713554794376634, 2.713554794376634)" opacity="1"><g transform="scale(0.36852029009044684)"><path d="M0,0 Q5.6588,-6.7889 7.3083,-9.3329 T10.4846,-15.0593 12.9013,-21.2272 13.7452,-25.388 13.105,-26.1165 11.5996,-24.2769 10.1569,-20.375 9.3158,-14.7057 8.8255,-8.0062 9.1047,-1.8381 10.9647,4.0201 16.0106,9.6976 22.914,13.0076 30.333,12.675 38.0527,9.6517 43.6854,5.0597 46.9692,-0.4447 48.8836,-6.481 48.8675,-13.3967 46.5938,-19.6928 43.571,-24.4935 40.6786,-27.8573 38.9924,-29.2533 39.7066,-29.5021 42.3852,-29.6472 46.2091,-29.7318 50.7027,-29.7811 55.5869,-29.8098 61.6154,-29.8352 L65.13,-29.85 " stroke-linecap="round" fill="none" stroke="#ffc034" stroke-width="12.210996574694853" stroke-dasharray="none" stroke-dashoffset="0"/></g></g><g transform="matrix(1, 0, 0, 1, 2058.9734, 848.2435) scale(2.713554794376634, 2.713554794376634)" opacity="1"><g transform="scale(0.36852029009044684)"><path d="M0,0 L5.43,-5.43 " stroke-linecap="round" fill="none" stroke="#ffc034" stroke-width="12.210996574694853" stroke-dasharray="none" stroke-dashoffset="0"/></g></g></svg>