<svg xmlns="http://www.w3.org/2000/svg" direction="ltr" width="673.0775701538512" height="500.1600000000001" viewBox="-396.61856094086085 1647.0699775689425 673.0775701538512 500.1600000000001" stroke-linecap="round" stroke-linejoin="round" style="background-color: transparent;"><defs/><g transform="matrix(1, 0, 0, 1, -81.8352, 1679.07)" opacity="0.25"><g transform="scale(1)"><path d="M1.3806,0 T1.3752,2.4927 1.3702,6.7532 1.3711,10.1336 1.3717,13.275 1.3722,16.5174 1.3757,19.8131 1.3819,23.1368 1.3873,26.7024 1.3922,31.7556 1.1661,37.4316 0.8204,41.5693 0.6095,45.9754 0.4945,51.1737 0.2357,56.2008 -0.1703,61.0586 -0.3826,65.8673 -0.4336,70.7835 -0.6819,75.4252 -1.0858,79.4871 -1.2933,83.2211 -1.3475,87.369 -1.3617,91.6374 -1.3679,95.3662 -1.3702,98.8249 -1.3713,102.4357 -1.372,106.2084 -1.3724,109.7978 -1.3728,113.2179 -1.3765,116.818 -1.3827,120.3608 -1.3891,123.7679 -1.4002,127.7762 -1.0668,131.559 -0.6235,134.6194 -0.4935,137.8762 -0.2514,141.3864 0.1663,145.5979 0.6342,150.1418 1.1111,154.5088 1.3838,158.7399 1.8087,162.9562 2.2838,167.2441 2.4304,171.5133 2.4783,175.8111 2.8381,179.8006 3.291,184.0307 3.4304,188.6401 3.4767,193.2617 3.4952,198.0066 3.717,202.7531 4.1318,207.8867 4.3837,213.1528 4.4521,218.4166 4.4747,223.6866 4.4878,228.9576 4.4973,234.577 4.5032,239.9464 4.5068,244.6715 4.5093,249.4447 4.5114,254.8062 4.5128,260.1039 4.5138,265.1546 4.5145,270.1379 4.515,274.8656 4.5178,279.5209 4.5238,284.0478 4.532,288.5436 4.1892,293.3421 3.7539,297.7922 3.6413,301.9394 3.2558,306.2988 2.5561,310.7732 2.0228,315.0473 1.4173,319.0735 0.901,322.9497 0.7651,326.695 0.7236,330.5044 0.7073,334.331 0.6985,338.1636 0.6931,341.998 0.6893,345.8304 0.6867,349.318 0.6845,353.0566 0.6859,356.9844 0.6902,360.2715 0.6953,363.4879 0.7034,367.2235 0.7117,371.2056 0.7182,375.1805 0.7227,378.6526 0.7258,381.522 0.7283,384.3955 0.7304,387.2724 0.9367,390.5637 1.3488,394.1161 1.6112,397.3364 1.6836,400.438 1.7064,403.7238 1.7136,407.2852 1.4615,411.2408 1.0442,415.4498 0.8264,419.8822 0.5107,424.7484 0.0685,429.2217 -0.1903,432.7225 -0.3094,435.2436 -0.3502,436.1929 A1.5702,1.5702 0 0 1 -3.4898,436.1271 T-3.4907,435.1769 -3.4663,432.5818 -3.2482,428.7737 -2.835,424.3805 -2.5669,419.7561 -2.3181,414.9566 -1.9167,410.8478 -1.7175,407.2885 -1.7202,403.7385 -1.7335,400.4872 -1.7907,397.5011 -1.9952,394.6342 -2.4026,390.9541 -2.6504,387.2724 -2.6483,384.3955 -2.6458,381.522 -2.6427,378.6526 -2.6382,375.1805 -2.6317,371.2056 -2.6234,367.2235 -2.6153,363.4879 -2.6102,360.2715 -2.6059,356.9844 -2.6045,353.0565 -2.6066,349.318 -2.6091,345.8303 -2.6124,341.9975 -2.6161,338.1618 -2.6188,334.3243 -2.6129,330.4804 -2.5746,326.6091 -2.423,322.6459 -1.9043,318.7134 -1.2797,314.5702 -0.7422,310.2211 -0.0829,306.0805 0.2934,301.8642 0.4267,297.5598 0.8774,293.1604 1.228,288.5389 1.2362,284.0478 1.2422,279.5209 1.245,274.8656 1.2455,270.1379 1.2462,265.1546 1.2472,260.1039 1.2486,254.8062 1.2507,249.4448 1.2531,244.6716 1.2565,239.9466 1.2599,235.9967 1.2649,231.7482 1.2717,226.2535 1.2687,220.9914 1.2371,215.7612 1.1205,210.6355 0.6813,205.6256 0.3358,200.4776 0.3386,195.4854 0.3309,190.8083 0.2773,186.4223 0.0701,182.3017 -0.338,178.0767 -0.5924,173.6232 -0.6447,169.419 -0.8618,165.4732 -1.2972,161.1689 -1.6553,156.9068 -2.1291,152.5632 -2.6017,148.1279 -3.05,143.8301 -3.4184,139.5876 -3.54,135.5288 -3.9998,131.7832 -4.3598,127.7946 -4.3709,123.7679 -4.3773,120.3608 -4.3835,116.818 -4.3872,113.2179 -4.3875,109.7978 -4.388,106.2083 -4.3884,102.4354 -4.3888,98.824 -4.3882,95.3634 -4.3843,91.6284 -4.3623,87.3346 -4.2861,83.0965 -4.0239,79.0622 -3.5982,75.091 -3.356,70.7551 -3.2758,65.7732 -3.016,60.7349 -2.5836,55.9392 -2.3199,51.1303 -2.1888,45.8441 -1.9679,41.3388 -1.6202,37.2983 -1.3922,31.755 -1.3873,26.7024 -1.3819,23.1368 -1.3757,19.8131 -1.3722,16.5174 -1.3717,13.275 -1.3711,10.1336 -1.3702,6.7532 -1.3752,2.4927 -1.3806,0 A1.3806,1.3806 0 0 1 1.3806,0 Z" stroke-linecap="round" fill="#f2f2f2"/></g></g><g transform="matrix(1, 0, 0, 1, -364.6186, 1918.7169)" opacity="0.25"><g transform="scale(1)"><path d="M0.2222,-1.5529 T1.8085,-1.3167 4.7741,-0.7092 7.6668,-0.0675 10.7217,0.4784 14.4104,0.9549 18.3067,1.2052 21.6942,1.263 25.053,1.2659 28.6347,1.2508 32.3996,1.2314 36.2152,1.2116 40.0448,1.1923 44.4004,1.4127 48.7303,1.7985 52.5279,1.9932 56.3454,2.0347 60.1749,2.0307 63.8887,2.0158 67.3433,1.9981 70.8457,1.9798 74.5985,1.9658 78.1935,2.31 81.5997,2.7391 85.1859,2.8405 88.9546,2.8642 92.4249,2.8631 95.8118,2.8543 99.5223,2.8436 103.5473,3.088 107.4368,3.4925 111.2849,3.6937 115.4667,3.7516 119.5211,3.764 123.7618,3.7608 128.0561,3.7505 132.3654,3.7381 136.9034,3.7279 141.5051,3.7202 146.2451,3.7143 150.9471,3.495 155.8305,3.0702 160.846,2.8019 165.5847,2.7217 170.3579,2.6958 175.1538,2.3462 180.1838,1.8966 185.3016,1.552 190.5306,1.0989 195.8678,0.8246 200.9264,0.7447 205.9139,0.7193 210.9875,0.7114 215.8599,0.7061 220.4481,0.6989 225.4091,0.6913 230.4749,0.6881 235.6894,0.6998 240.9464,0.7231 245.7872,0.5379 250.7096,0.1482 255.796,-0.2992 260.6588,-0.7602 265.2086,-1.2219 270.1841,-1.6977 275.4611,-1.9782 280.379,-2.0583 285.2064,-2.0858 289.7834,-2.0988 294.2896,-2.1099 299.002,-2.1218 303.7741,-2.1305 308.7886,-2.1394 314.2146,-2.1533 318.4452,-2.1648 321.4713,-1.9345 325.8198,-1.5392 331.3168,-1.0983 335.5465,-0.7028 338.4825,-0.5284 341.3854,-0.4427 344.4485,-0.161 347.6361,0.2045 350.7331,0.3768 353.7376,0.4698 356.9026,0.5168 360.1569,0.5396 363.2348,0.5477 366.5946,0.7816 369.9579,1.1246 373.1618,1.2921 376.4321,1.3806 379.7454,1.4268 383.077,1.4473 386.4205,1.4533 389.9958,1.4539 393.4673,1.4495 396.8837,1.4419 400.271,1.4383 403.643,1.4351 407.234,1.4325 410.7134,1.4335 414.1339,1.4375 417.7505,1.444 421.2434,1.4489 424.671,1.4527 428.2914,1.4559 431.7862,1.4583 435.2149,1.4602 438.8334,1.4617 442.5543,1.463 446.101,1.464 449.4099,1.246 452.9706,0.9 456.3423,0.7072 459.7095,0.6068 463.1496,0.3382 466.5487,-0.0374 470.0825,-0.2526 473.3008,-0.3643 476.3591,-0.4264 480.6885,-0.8141 485.0116,-1.2497 489.0777,-1.72 494.4495,-2.2435 499.8691,-2.4055 504.8235,-2.7999 509.8959,-3.2666 515.1207,-3.4069 520.0296,-3.4513 524.6282,-3.4767 529.3663,-3.5018 534.7171,-3.5298 540.1347,-3.5556 544.2969,-3.3277 548.4416,-2.9326 553.8625,-2.7307 558.3004,-2.4326 562.8645,-2.0043 567.3341,-1.7905 571.8832,-1.4685 576.3216,-1.0531 579.1738,-0.8249 582.2178,-0.4039 586.4069,0.47 590.4428,1.4112 591.9052,1.8024 A2.078,2.078 0 0 1 590.9948,5.8576 T588.2905,5.3731 582.9801,4.5818 578.848,4.2406 575.7241,4.0879 571.4388,3.7441 567.1713,3.4872 563.8665,3.3874 559.3697,2.963 555.1555,2.5874 552.265,2.5319 549.3593,2.4235 546.4202,2.2141 542.6443,1.8574 537.5212,1.6234 531.9825,1.5953 526.9931,1.5722 522.311,1.5592 517.4911,1.5658 512.5917,1.6226 507.8385,1.8323 502.8652,2.2495 497.4326,2.5554 492.3182,2.7927 488.333,3.2565 483.9707,3.7056 479.5685,4.1253 476.4494,4.3881 473.4569,4.4352 470.3545,4.5308 467.0644,4.7089 463.5374,5.0796 458.4535,5.4252 453.418,5.6245 449.7076,5.9646 446.1033,6.196 442.5543,6.197 438.8334,6.1983 435.2149,6.1998 431.7862,6.2017 428.2914,6.2041 424.671,6.2073 421.2434,6.2111 417.7505,6.2159 414.1338,6.2223 410.7132,6.2261 407.2336,6.2268 403.6422,6.2236 400.2695,6.2193 396.8808,6.2135 393.462,6.2018 389.9858,6.1895 386.4003,6.1752 383.0398,6.153 379.673,6.1199 376.2982,6.0645 372.9,5.96 369.4728,5.7614 366.2758,5.4098 363.2096,5.1783 360.1165,5.1559 356.8218,5.1208 353.5825,5.0578 350.4568,4.9422 345.7864,4.4815 341.2256,4.0516 338.1966,3.9298 335.0376,3.7107 330.8957,3.2929 326.8972,2.9471 323.904,2.7428 319.704,2.3847 314.2146,2.1533 308.7886,2.1394 303.7742,2.1305 299.0023,2.1221 294.2906,2.111 289.7866,2.103 285.2174,2.1008 280.4181,2.1123 275.5966,2.1727 270.7367,2.3979 265.788,2.8812 261.1624,3.3765 257.5354,3.8282 253.6757,4.1939 248.7573,4.6547 243.5083,5.0255 238.2415,5.048 233.0008,5.0669 227.8361,5.0717 222.9537,5.0654 218.2704,5.0575 213.4381,5.0526 208.5006,5.0531 203.6183,5.0598 198.5131,5.0865 193.3984,5.1941 188.3468,5.6344 183.0592,6.0321 178.0705,6.2436 174.3246,6.6534 170.3741,6.898 165.6254,6.9081 160.9934,6.9576 156.3379,7.1563 151.3394,7.5509 146.2451,7.7857 141.5051,7.7798 136.9034,7.772 132.3651,7.7616 128.0552,7.7485 123.7583,7.7354 119.5089,7.7221 115.4282,7.6986 111.1268,7.6268 106.8563,7.361 103.0956,6.9459 99.5218,6.7358 95.8098,6.7236 92.4181,6.7096 88.931,6.6895 85.0991,6.6448 81.2655,6.5002 77.9023,6.0434 74.5732,5.6941 70.8454,5.6799 67.3425,5.6609 63.8855,5.6404 60.1635,5.6156 56.3049,5.576 52.387,5.4891 48.2701,5.2218 44.0495,4.7966 40.0447,4.5676 36.2149,4.548 32.3986,4.5273 28.6309,4.5045 25.0368,4.4771 21.6439,4.436 18.1712,4.3351 14.034,4.0142 9.4876,3.3874 5.1105,2.4976 1.3654,1.7707 -0.2222,1.5529 A1.5687,1.5687 0 0 1 0.2222,-1.5529 Z" stroke-linecap="round" fill="#f2f2f2"/></g></g><g transform="matrix(1, 0, 0, 1, -108.6757, 1810.3965)" opacity="1"><g transform="scale(1)"><path d="M1.7953,-0.1499 T2.0657,2.5663 2.4721,7.1877 2.6756,10.5605 2.8164,13.642 2.8897,15.256 A1.9316,1.9316 0 0 1 -0.9697,15.424 T-1.0369,13.8097 -1.1627,10.7656 -1.3246,7.4661 -1.6116,2.8732 -1.7953,0.1499 A1.8015,1.8015 0 0 1 1.7953,-0.1499 Z" stroke-linecap="round" fill="#f76707"/></g></g><g transform="matrix(1, 0, 0, 1, -108.6757, 1809.4379)" opacity="1"><g transform="scale(1)"><path d="M0.3257,1.6253 T-0.7537,1.8661 -3.0153,3.1809 -5.8869,5.6357 -7.5761,7.0165 A1.6476,1.6476 0 0 1 -9.6839,4.4835 T-8.0191,3.0733 -4.5263,0.2322 -1.512,-1.412 -0.3257,-1.6253 A1.6576,1.6576 0 0 1 0.3257,1.6253 Z" stroke-linecap="round" fill="#f76707"/></g></g><g transform="matrix(1, 0, 0, 1, -115.3858, 2023.2029)" opacity="1"><g transform="scale(1)"><path d="M0.2554,-1.5298 T1.6143,-1.3497 4.6925,-1.3467 8.4507,-1.5678 10.4896,-1.6116 A1.6124,1.6124 0 0 1 10.5904,1.6116 T8.5993,1.6939 4.5372,1.9269 1.1055,1.8038 -0.2554,1.5298 A1.551,1.551 0 0 1 0.2554,-1.5298 Z" stroke-linecap="round" fill="#f76707"/></g></g><g transform="matrix(1, 0, 0, 1, -96.214, 2012.6585)" opacity="1"><g transform="scale(1)"><path d="M1.5727,-0.3152 T1.8107,0.8155 2.2687,3.7591 2.3175,7.6776 1.8805,12.6252 1.6147,15.4671 A1.6197,1.6197 0 0 1 -1.6147,15.2129 T-1.5159,13.6485 -1.3148,10.5609 -1.0311,7.4233 -0.9951,4.197 -1.3567,1.4502 -1.5727,0.3152 A1.604,1.604 0 0 1 1.5727,-0.3152 Z" stroke-linecap="round" fill="#f76707"/></g></g><g transform="matrix(1, 0, 0, 1, -99.0898, 2013.6171)" opacity="1"><g transform="scale(1)"><path d="M1.0125,1.0125 T0.1107,1.9223 -1.7965,3.8451 -2.8019,4.8581 A1.454,1.454 0 0 1 -4.8581,2.8019 T-3.8451,1.7965 -1.9223,-0.1107 -1.0125,-1.0125 A1.4319,1.4319 0 0 1 1.0125,1.0125 Z" stroke-linecap="round" fill="#f76707"/></g></g><g transform="matrix(1, 0, 0, 1, -83.261, 1842.273)" opacity="1"><g transform="scale(1)"><path d="M0.2391,-1.5724 T1.5046,-1.4133 4.3118,-1.1272 7.696,-0.6945 11.0513,-0.3478 14.0557,-0.3086 17.0374,-0.3215 20.017,-0.3449 23.2129,-0.3731 26.4399,-0.4031 29.4549,-0.4369 32.44,-0.4695 35.6488,-0.8456 39.201,-1.442 42.5813,-1.7151 46.0926,-2.0358 49.6189,-2.3713 52.7947,-2.4508 56.2735,-2.7577 60.1088,-3.3556 63.6051,-3.9935 67.2399,-4.5984 70.8291,-4.9688 74.3839,-5.1029 78.3959,-5.3855 82.1022,-5.7206 86.0462,-5.8516 89.8989,-6.154 93.0067,-6.4723 96.1137,-6.5453 99.2652,-6.585 102.4521,-6.6111 106.1562,-6.6315 109.6134,-6.6476 112.5597,-6.6612 115.7833,-6.6716 119.0532,-6.6779 122.0749,-6.6811 125.5292,-6.6782 129.3646,-6.6704 133.0999,-6.4172 136.4897,-6.1255 139.6593,-5.8889 143.3302,-5.3853 147.0171,-4.9537 150.1307,-4.818 153.214,-4.8028 156.3178,-4.5898 159.3013,-4.3066 162.5669,-4.208 166.1114,-4.1698 169.54,-4.1511 172.9794,-4.1382 176.4609,-4.128 179.8092,-4.12 182.9215,-4.1139 186.6031,-4.1096 190.3496,-4.1084 193.5801,-4.1067 197.0834,-4.0996 200.4065,-4.089 203.4761,-4.0785 206.4692,-4.0668 209.601,-3.8247 213.1605,-3.5074 216.5829,-3.4019 219.5783,-3.3589 222.878,-3.3178 226.3733,-3.2797 229.5925,-3.2498 232.9405,-3.2227 236.2139,-3.1975 239.4512,-3.1763 242.7637,-3.1592 246.0364,-3.1466 249.4468,-3.3913 252.619,-3.6753 255.9602,-3.7216 259.4189,-3.738 262.9772,-3.7445 266.3797,-3.7521 269.4249,-3.7618 273.3345,-3.7698 277.0772,-3.775 280.3953,-3.7774 284.596,-3.6126 288.4431,-3.3494 292.138,-3.2423 296.456,-3.2403 300.1411,-3.2527 303.3366,-3.2599 306.7138,-3.2621 310.4742,-3.2589 314.3711,-3.2565 317.9933,-3.2549 321.5752,-3.2456 325.3562,-3.3891 327.3132,-3.5396 A2.3846,2.3846 0 0 1 328.1268,1.1596 T327.2396,1.3766 324.8758,1.8161 321.5752,2.0456 317.9933,2.0549 314.3711,2.0565 310.4742,2.0589 306.7137,2.062 303.3361,2.0596 300.1392,2.0515 296.445,2.0327 292.0489,1.9902 287.8086,1.793 284.0411,1.5117 280.3953,1.3974 277.0772,1.395 274.0558,1.391 270.9267,1.3861 267.9125,1.3774 264.4289,1.3679 260.7266,1.363 257.2345,1.3637 253.4505,1.4001 249.6279,1.6877 246.052,1.9466 242.7637,1.9592 239.4512,1.9763 236.2139,1.9975 232.9405,2.0227 228.9763,2.0556 224.8516,2.0954 221.4266,2.1339 218.5073,2.1691 215.4452,2.1938 212.1693,2.1315 208.6779,1.8739 204.9658,1.6927 201.4393,1.7053 198.1366,1.7171 195.0227,1.7249 191.9107,1.7275 188.7247,1.7278 185.0935,1.7304 181.1411,1.7373 177.6855,1.7448 174.1596,1.7545 170.6549,1.7659 167.2912,1.7782 163.6795,1.7822 159.8698,1.7058 156.3583,1.4259 153.1999,1.2181 150.0323,1.2062 146.7497,1.0951 143.3681,0.7277 139.7847,0.2459 136.2717,-0.0312 132.9759,-0.2932 129.3646,-0.4896 125.5292,-0.4818 122.0749,-0.4789 119.0532,-0.4821 115.7833,-0.4884 112.5597,-0.4988 109.6135,-0.5124 106.1566,-0.5283 102.4541,-0.5478 98.7806,-0.5729 95.0494,-0.5839 91.6794,-0.5075 88.3991,-0.2553 84.8005,-0.0809 81.3784,-0.0132 78.1799,0.2317 74.4874,0.3998 70.4394,0.489 66.2371,0.8157 62.6615,1.3008 59.3924,1.8074 55.9832,2.2709 52.8252,2.4656 49.3553,2.4968 45.821,2.7569 42.267,2.9987 38.7963,3.3301 35.5761,3.8488 32.44,4.0495 29.4549,4.0169 26.4399,3.9831 23.2128,3.953 20.0163,3.9245 17.0328,3.899 14.0254,3.8717 10.8699,3.8126 7.4062,3.4877 3.9422,3.1099 1.0307,2.8924 -0.2391,2.7724 A2.1855,2.1855 0 0 1 0.2391,-1.5724 Z" stroke-linecap="round" fill="#f76707"/></g></g><g transform="matrix(1, 0, 0, 1, -82.6651, 1848.8273)" opacity="1"><g transform="scale(1)"><path d="M-1.3282,1.6963 T-2.3095,1.2605 -4.6628,-0.3224 -6.7115,-2.9666 -7.5236,-6.073 -7.4407,-9.3573 -6.4149,-12.2967 -4.0737,-14.3872 -0.816,-15.1105 2.5099,-14.175 5.257,-11.8121 6.8475,-8.6911 7.3396,-5.5274 6.535,-2.1608 3.5661,0.9166 0.401,2.515 -0.6466,2.8295 A1.7272,1.7272 0 0 1 -1.7334,-0.4495 T-0.7053,-0.823 1.7003,-2.1315 3.4515,-4.4726 3.2491,-7.7086 1.5576,-10.5096 -1.0518,-11.5961 -3.3783,-10.2926 -4.08,-6.9225 -2.9016,-3.7447 -0.8629,-2.1072 0.1282,-1.6963 A1.846,1.846 0 0 1 -1.3282,1.6963 Z" stroke-linecap="round" fill="#f76707"/></g></g><g transform="matrix(1, 0, 0, 1, -77.3025, 1960.2508)" opacity="1"><g transform="scale(1)"><path d="M-0.1543,1.5328 T-1.5624,1.377 -4.5397,1.0501 -6.1089,0.879 A1.4865,1.4865 0 0 1 -5.8111,-2.079 T-4.2393,-1.9339 -1.2566,-1.6608 0.1543,-1.5328 A1.5406,1.5406 0 0 1 -0.1543,1.5328 Z" stroke-linecap="round" fill="#f76707"/></g></g><g transform="matrix(1, 0, 0, 1, -79.0901, 2001.3643)" opacity="1"><g transform="scale(1)"><path d="M0.419,1.6795 T-0.7113,1.9524 -3.3622,2.4624 -6.0072,2.5371 -7.1316,2.3748 A1.6825,1.6825 0 0 1 -6.5756,-0.9439 T-4.6232,-1.0217 -1.5449,-1.3895 -0.419,-1.6795 A1.731,1.731 0 0 1 0.419,1.6795 ZM-8.3422,1.4996 T-8.7091,0.7781 -9.2242,-1.5137 -8.6026,-4.6679 -6.3973,-7.3804 -3.2473,-9.1182 -0.0165,-9.4103 2.8313,-7.4532 4.4903,-4.0811 3.9462,-0.9227 0.9814,1.0338 -1.9992,1.5945 -2.8865,1.6248 A1.6275,1.6275 0 0 1 -3.0735,-1.6248 T-2.1886,-1.6964 0.0896,-2.3805 0.9131,-4.3025 -1.169,-5.7241 -3.9442,-5.0281 -5.5667,-2.6522 -5.6455,-0.5764 -5.365,-0.0686 A1.6825,1.6825 0 0 1 -8.3422,1.4996 Z" stroke-linecap="round" fill="#f76707"/></g></g><g transform="matrix(1, 0, 0, 1, -315.6415, 2001.3643)" opacity="1"><g transform="scale(1)"><path d="M0.5693,-1.7047 T1.8317,-1.2668 4.6782,-0.5158 7.9044,0.1069 11.4106,0.5006 14.7145,0.5914 18.2519,0.5903 22.4363,0.5653 26.2021,0.5206 29.5109,0.3538 32.6011,0.0405 35.8572,-0.2083 39.4483,-0.3207 42.8431,-0.3809 45.8815,-0.4226 48.87,-0.4584 52.4617,-0.4932 56.2262,-0.5249 59.8289,-0.5517 63.7642,-0.5726 67.533,-0.5812 71.066,-0.8413 74.39,-1.1313 77.4076,-1.3672 80.4051,-1.6389 83.3707,-1.721 86.3388,-1.7398 89.7082,-1.743 93.3188,-1.7463 96.7848,-1.7538 100.4187,-1.764 104.3331,-1.7758 107.8207,-1.7866 110.7738,-1.7966 113.7451,-1.8089 116.7214,-1.8205 119.698,-1.8236 122.6747,-1.8185 126.0211,-1.9256 129.4646,-2.1722 133.1903,-2.3453 136.8017,-2.3871 140.3844,-2.3963 144.4418,-2.4049 148.3392,-2.4148 152.3551,-2.4282 156.6448,-2.653 160.448,-2.9373 163.5419,-3.0214 167.179,-3.048 171.2494,-3.0619 174.6249,-3.0692 177.77,-3.2774 181.1621,-3.5513 184.6574,-3.6375 187.9858,-3.6602 191.4705,-3.6674 195.4779,-3.6701 198.9782,-3.6711 202.43,-3.6684 206.1126,-3.6617 209.3828,-3.777 212.7211,-4.0183 216.15,-4.3696 219.8763,-4.6825 224.3038,-4.9688 226.6646,-5.1711 A2.2198,2.2198 0 0 1 227.3754,-0.7889 T226.386,-0.5804 223.0766,-0.1448 219.2826,0.2026 216.2778,0.5296 213.2374,0.8423 209.771,1.1132 206.1126,1.2817 202.43,1.2884 198.9783,1.2912 195.4789,1.2907 191.4763,1.2914 188.0081,1.2964 184.737,1.3156 181.0354,1.4327 176.9045,1.7015 172.687,1.8653 168.5793,1.8616 165.0061,1.8683 161.4268,1.9397 157.7,2.2216 153.8543,2.4327 149.6191,2.4191 145.7351,2.4079 141.769,2.4015 138.1996,2.4007 134.6717,2.4216 130.7346,2.555 126.5081,2.8418 122.6747,3.0185 119.698,3.0236 116.7214,3.0205 113.7451,3.0089 110.7738,2.9966 107.8207,2.9866 104.3331,2.9758 100.4187,2.964 96.785,2.9539 93.3198,2.9469 89.7146,2.9472 86.3641,2.9563 82.8412,3.0022 79.0278,3.306 75.2188,3.6131 71.2311,3.9091 67.5542,4.1612 64.3887,4.1552 60.9812,4.1383 57.3916,4.1135 53.7167,4.0838 49.9934,4.0502 46.8697,4.0154 43.8607,3.977 40.6732,3.9334 37.2881,3.8926 33.8741,3.9312 30.0423,4.1271 26.2018,4.2391 22.4346,4.1931 18.2406,4.1587 14.668,4.1243 11.0948,3.9881 7.3657,3.5645 3.8597,2.8905 0.7036,2.1135 -0.5693,1.7047 A1.7972,1.7972 0 0 1 0.5693,-1.7047 Z" stroke-linecap="round" fill="#f76707"/></g></g></svg>