<svg xmlns="http://www.w3.org/2000/svg" width="183.69094848632812" height="222.8009033203125" viewBox="1467.19787717 5779.89814173 183.69094653 222.80089706" stroke-linecap="round" stroke-linejoin="round" style="background-color:transparent"><defs><style>@keyframes animate-svg-stroke-1 {
  0% {
    opacity: 0;
    stroke-dashoffset: 14.223753px;
    stroke-dasharray: 14.223753px;
  }
  0% {
    opacity: 0;
  }
  0% {
    opacity: 1;
    stroke-dashoffset: 14.223753px;
    stroke-dasharray: 14.223753px;
  }
  5.2631578947% {
    stroke-dashoffset: 0;
    stroke-dasharray: 14.223753px;
  }
  100% {
    stroke-dashoffset: 0;
    stroke-dasharray: 14.223753px;
  }
}
.svg-elem-1 {
  -webkit-animation: animate-svg-stroke-1 9s ease-in-out both infinite;
  animation: animate-svg-stroke-1 9s ease-in-out both infinite;
}

@keyframes animate-svg-stroke-2 {
  0% {
    opacity: 0;
    stroke-dashoffset: 15.513005px;
    stroke-dasharray: 15.513005px;
  }
  5.2630578947% {
    opacity: 0;
  }
  5.2631578947% {
    opacity: 1;
    stroke-dashoffset: 15.513005px;
    stroke-dasharray: 15.513005px;
  }
  10.5263157895% {
    stroke-dashoffset: 0;
    stroke-dasharray: 15.513005px;
  }
  100% {
    stroke-dashoffset: 0;
    stroke-dasharray: 15.513005px;
  }
}
.svg-elem-2 {
  -webkit-animation: animate-svg-stroke-2 9s ease-in-out both infinite;
  animation: animate-svg-stroke-2 9s ease-in-out both infinite;
}

@keyframes animate-svg-stroke-3 {
  0% {
    opacity: 0;
    stroke-dashoffset: 162.552703px;
    stroke-dasharray: 162.552703px;
  }
  10.5262157895% {
    opacity: 0;
  }
  10.5263157895% {
    opacity: 1;
    stroke-dashoffset: 162.552703px;
    stroke-dasharray: 162.552703px;
  }
  15.7894736842% {
    stroke-dashoffset: 0;
    stroke-dasharray: 162.552703px;
  }
  100% {
    stroke-dashoffset: 0;
    stroke-dasharray: 162.552703px;
  }
}
.svg-elem-3 {
  -webkit-animation: animate-svg-stroke-3 9s ease-in-out both infinite;
  animation: animate-svg-stroke-3 9s ease-in-out both infinite;
}

@keyframes animate-svg-stroke-4 {
  0% {
    opacity: 0;
    stroke-dashoffset: 161.738764px;
    stroke-dasharray: 161.738764px;
  }
  15.7893736842% {
    opacity: 0;
  }
  15.7894736842% {
    opacity: 1;
    stroke-dashoffset: 161.738764px;
    stroke-dasharray: 161.738764px;
  }
  21.0526315789% {
    stroke-dashoffset: 0;
    stroke-dasharray: 161.738764px;
  }
  100% {
    stroke-dashoffset: 0;
    stroke-dasharray: 161.738764px;
  }
}
.svg-elem-4 {
  -webkit-animation: animate-svg-stroke-4 9s ease-in-out both infinite;
  animation: animate-svg-stroke-4 9s ease-in-out both infinite;
}

@keyframes animate-svg-stroke-5 {
  0% {
    opacity: 0;
    stroke-dashoffset: 67.455955px;
    stroke-dasharray: 67.455955px;
  }
  21.0525315789% {
    opacity: 0;
  }
  21.0526315789% {
    opacity: 1;
    stroke-dashoffset: 67.455955px;
    stroke-dasharray: 67.455955px;
  }
  26.3157894737% {
    stroke-dashoffset: 0;
    stroke-dasharray: 67.455955px;
  }
  100% {
    stroke-dashoffset: 0;
    stroke-dasharray: 67.455955px;
  }
}
.svg-elem-5 {
  -webkit-animation: animate-svg-stroke-5 9s ease-in-out both infinite;
  animation: animate-svg-stroke-5 9s ease-in-out both infinite;
}

@keyframes animate-svg-stroke-6 {
  0% {
    opacity: 0;
    stroke-dashoffset: 26.960852px;
    stroke-dasharray: 26.960852px;
  }
  26.3156894737% {
    opacity: 0;
  }
  26.3157894737% {
    opacity: 1;
    stroke-dashoffset: 26.960852px;
    stroke-dasharray: 26.960852px;
  }
  31.5789473684% {
    stroke-dashoffset: 0;
    stroke-dasharray: 26.960852px;
  }
  100% {
    stroke-dashoffset: 0;
    stroke-dasharray: 26.960852px;
  }
}
.svg-elem-6 {
  -webkit-animation: animate-svg-stroke-6 9s ease-in-out both infinite;
  animation: animate-svg-stroke-6 9s ease-in-out both infinite;
}

@keyframes animate-svg-stroke-7 {
  0% {
    opacity: 0;
    stroke-dashoffset: 4.520265px;
    stroke-dasharray: 4.520265px;
  }
  31.5788473684% {
    opacity: 0;
  }
  31.5789473684% {
    opacity: 1;
    stroke-dashoffset: 4.520265px;
    stroke-dasharray: 4.520265px;
  }
  36.8421052632% {
    stroke-dashoffset: 0;
    stroke-dasharray: 4.520265px;
  }
  100% {
    stroke-dashoffset: 0;
    stroke-dasharray: 4.520265px;
  }
}
.svg-elem-7 {
  -webkit-animation: animate-svg-stroke-7 9s ease-in-out both infinite;
  animation: animate-svg-stroke-7 9s ease-in-out both infinite;
}

@keyframes animate-svg-stroke-8 {
  0% {
    opacity: 0;
    stroke-dashoffset: 243.823647px;
    stroke-dasharray: 243.823647px;
  }
  36.8420052632% {
    opacity: 0;
  }
  36.8421052632% {
    opacity: 1;
    stroke-dashoffset: 243.823647px;
    stroke-dasharray: 243.823647px;
  }
  42.1052631579% {
    stroke-dashoffset: 0;
    stroke-dasharray: 243.823647px;
  }
  100% {
    stroke-dashoffset: 0;
    stroke-dasharray: 243.823647px;
  }
}
.svg-elem-8 {
  -webkit-animation: animate-svg-stroke-8 9s ease-in-out both infinite;
  animation: animate-svg-stroke-8 9s ease-in-out both infinite;
}

@keyframes animate-svg-stroke-9 {
  0% {
    opacity: 0;
    stroke-dashoffset: 25.447034px;
    stroke-dasharray: 25.447034px;
  }
  42.1051631579% {
    opacity: 0;
  }
  42.1052631579% {
    opacity: 1;
    stroke-dashoffset: 25.447034px;
    stroke-dasharray: 25.447034px;
  }
  47.3684210526% {
    stroke-dashoffset: 0;
    stroke-dasharray: 25.447034px;
  }
  100% {
    stroke-dashoffset: 0;
    stroke-dasharray: 25.447034px;
  }
}
.svg-elem-9 {
  -webkit-animation: animate-svg-stroke-9 9s ease-in-out both infinite;
  animation: animate-svg-stroke-9 9s ease-in-out both infinite;
}

@keyframes animate-svg-stroke-10 {
  0% {
    opacity: 0;
    stroke-dashoffset: 33.5734px;
    stroke-dasharray: 33.5734px;
  }
  47.3683210526% {
    opacity: 0;
  }
  47.3684210526% {
    opacity: 1;
    stroke-dashoffset: 33.5734px;
    stroke-dasharray: 33.5734px;
  }
  52.6315789474% {
    stroke-dashoffset: 0;
    stroke-dasharray: 33.5734px;
  }
  100% {
    stroke-dashoffset: 0;
    stroke-dasharray: 33.5734px;
  }
}
.svg-elem-10 {
  -webkit-animation: animate-svg-stroke-10 9s ease-in-out both infinite;
  animation: animate-svg-stroke-10 9s ease-in-out both infinite;
}

@keyframes animate-svg-stroke-11 {
  0% {
    opacity: 0;
    stroke-dashoffset: 4.91px;
    stroke-dasharray: 4.91px;
  }
  52.6314789474% {
    opacity: 0;
  }
  52.6315789474% {
    opacity: 1;
    stroke-dashoffset: 4.91px;
    stroke-dasharray: 4.91px;
  }
  57.8947368421% {
    stroke-dashoffset: 0;
    stroke-dasharray: 4.91px;
  }
  100% {
    stroke-dashoffset: 0;
    stroke-dasharray: 4.91px;
  }
}
.svg-elem-11 {
  -webkit-animation: animate-svg-stroke-11 9s ease-in-out both infinite;
  animation: animate-svg-stroke-11 9s ease-in-out both infinite;
}

@keyframes animate-svg-stroke-12 {
  0% {
    opacity: 0;
    stroke-dashoffset: 18.093094px;
    stroke-dasharray: 18.093094px;
  }
  57.8946368421% {
    opacity: 0;
  }
  57.8947368421% {
    opacity: 1;
    stroke-dashoffset: 18.093094px;
    stroke-dasharray: 18.093094px;
  }
  63.1578947368% {
    stroke-dashoffset: 0;
    stroke-dasharray: 18.093094px;
  }
  100% {
    stroke-dashoffset: 0;
    stroke-dasharray: 18.093094px;
  }
}
.svg-elem-12 {
  -webkit-animation: animate-svg-stroke-12 9s ease-in-out both infinite;
  animation: animate-svg-stroke-12 9s ease-in-out both infinite;
}

@keyframes animate-svg-stroke-13 {
  0% {
    opacity: 0;
    stroke-dashoffset: 9.600073px;
    stroke-dasharray: 9.600073px;
  }
  63.1577947368% {
    opacity: 0;
  }
  63.1578947368% {
    opacity: 1;
    stroke-dashoffset: 9.600073px;
    stroke-dasharray: 9.600073px;
  }
  68.4210526316% {
    stroke-dashoffset: 0;
    stroke-dasharray: 9.600073px;
  }
  100% {
    stroke-dashoffset: 0;
    stroke-dasharray: 9.600073px;
  }
}
.svg-elem-13 {
  -webkit-animation: animate-svg-stroke-13 9s ease-in-out both infinite;
  animation: animate-svg-stroke-13 9s ease-in-out both infinite;
}

@keyframes animate-svg-stroke-14 {
  0% {
    opacity: 0;
    stroke-dashoffset: 9.617095px;
    stroke-dasharray: 9.617095px;
  }
  68.4209526316% {
    opacity: 0;
  }
  68.4210526316% {
    opacity: 1;
    stroke-dashoffset: 9.617095px;
    stroke-dasharray: 9.617095px;
  }
  73.6842105263% {
    stroke-dashoffset: 0;
    stroke-dasharray: 9.617095px;
  }
  100% {
    stroke-dashoffset: 0;
    stroke-dasharray: 9.617095px;
  }
}
.svg-elem-14 {
  -webkit-animation: animate-svg-stroke-14 9s ease-in-out both infinite;
  animation: animate-svg-stroke-14 9s ease-in-out both infinite;
}

@keyframes animate-svg-stroke-15 {
  0% {
    opacity: 0;
    stroke-dashoffset: 18.399087px;
    stroke-dasharray: 18.399087px;
  }
  73.6841105263% {
    opacity: 0;
  }
  73.6842105263% {
    opacity: 1;
    stroke-dashoffset: 18.399087px;
    stroke-dasharray: 18.399087px;
  }
  78.9473684211% {
    stroke-dashoffset: 0;
    stroke-dasharray: 18.399087px;
  }
  100% {
    stroke-dashoffset: 0;
    stroke-dasharray: 18.399087px;
  }
}
.svg-elem-15 {
  -webkit-animation: animate-svg-stroke-15 9s ease-in-out both infinite;
  animation: animate-svg-stroke-15 9s ease-in-out both infinite;
}

/*# sourceMappingURL=styles.css.map */
</style></defs>
  <path d="M1540.1237 5811.8981q-1.3042 1.3042-1.7524 1.9393t-.879 1.1677-.8521 1.1026-.8374 1.0672-.8295.9545-.8252.8909-1.101 1.1367-1.5113 1.5422l-.8221.8389" fill="none" stroke="#f2f2f2" stroke-width="3" class="svg-elem-1"></path>
  <path d="M1531.1196 5812.3074q1.3042.9348 1.8459 1.3737t.9298.8647.9732 1.1248 1.0904 1.4532.967 1.4426 1.2717 1.8108 1.7759 2.4613l.9661 1.3389" fill="none" stroke="#f2f2f2" stroke-width="3" class="svg-elem-2"></path>
  <path d="M1509.4279 5850.7795q.3739 0 .4756.0935t.531.5182.7539.7494.5949.5923.5105.5069.4647.4627.4398.4387.5196.4256.5632.4185.4933.4146.4553.4125.5281.4113.5678.4108.4023.4104.3124.3167.3546.2658.3776.2381.3923.223.4004.3082.4048.4459.4072.4272.3149.3259.2649.3643.331.3851.367.303.2932.2583.2529.2339.1376.1273-.2055-.0242-.3923-.1067-.4004-.058-.4047-.0315-.5007-.0172-.5527-.0094-.4854-.005-.6357-.0028-.7198-.0015-.5785-.0008-.5016-.0005-.5534-.0002-.5814-.0001-.5033-.0001-.5542-.0001-.582 0-.5012 0-.4574 0-.4357 0-.5175-.0935-.562-.1443-.4927-.0785-.5484-.0427-.5788-.0233-.5018-.0126-.46-.0069-.4372-.0037-.5159-.0956-.5589-.1454-.491-.0791-.454-.0431-.434-.1168-.423-.1571-.4171-.0855-.4139-.0464-.4121-.0253-.5046-.0138-.5549-.0075-.4889-.004-.4506-.0023-.4298.0923-.4208.1437-.4159.1716-.3197.2804-.0804.2459.0497.3208.027.5484.0147.6723.0081.7396.0978.6828.1467.6496.0798.7251.0434.7683.0236.7919.0129.8982.007.8625.0038.8409.002.829.0012.825.0006 1.0096.0003 1.0167.0002.8335.0001.7338 0 .7709.0001.6975 0 .6599 0 .7329 0 .7726 0 .8877 0 .9503 0 .8886 0 .855 0 .8391 0 .8304 0 .8256 0 .9166-.0935.966-.1443.8971-.0785.8597-.0427.8416-.0233.8317-.0126.8264-.0069.8235-.0972.8196-.1464.8175-.0796.9122-.0433.9635-.0236.8047-.0128.7181-.007.7646-.0038.7876-.002.8936-.0946.86-.145.8418-.0788.9253-.0429.7838-.0234.8003-.0127.9005-.0069.955-.0037.9869-.0021.9108-.0011.8694-.0006.7534-.0003.6903-.0002.6537-.0001.7272 0 .863-.0001.8434 0 .7393 0 .6826 0 .7452 0 .7771 0 .7943 0 .7126 0 .5746.0935.4061.2378.2209.4098.1201.5011.0654.4573.0356.5292.0193.5683.0105.4961.0058.4569.0031.4355.0017.5173.0009.5619.0005.4926.0003.5484.0001.5765.0001.5918 0 .6024.0936.5146.1443.5604.0785.5853.0427.5054.0233.5554.0126.676.0069.6459.0037.6296.0021.7164.0011.6701.0006.645.0003.7248.0937.7682.1444.7919.0786.7089.1362.6638.1676.735.0911.6803.1431.6505.1713.6344.0932.6255.0507.7142.0276.6689.015.6421.1016.7209.1488.7661.0809.6973.0441.6597.0239.6393.0131.6282.007.6222.0039.6167.0021.6136.0011.5207.0007.5638.0003.5871.0002.5063.0001.4624 0 .532.0001.5699 0 .4969-.0935.5508-.1443.5778-.0785.499-.0427.4584-.0233.4364-.1061.5178-.1512.5621-.0823.4927-.0447.5485-.0244.5789-.0132.5018-.0072.46-.0039.4372-.0022.5159-.0011.5589-.0006.491-.0004.5475-.0002.5783-.0001.5016 0 .4598-.0001.4371 0 .5182 0 .5623 0 .4929 0 .5463 0 .5753 0 .5 0 .4589 0 .4366 0 .518 0 .5622 0 .4928-.0935.5485-.1443.5789.0149.4083.1951.1287.2931-.0235.3464-.1062.4689-.2448.4421-.2266.3339-.2168.3664-.2114.3839-.2085.3959-.2069.4023-.206.4058-.2056.4077-.2053.4088-.2051.4093-.2051.5031-.2986.4606-.2558.4376-.2327.5185-.3136.6537-.3575.7272-.3792.5826-.2974.5039-.2553.461-.3259.4378-.2707.4251-.2408.4183-.2244.5079-.3091.6503-.5043.7679l-.2744.4178" fill="none" stroke="#4f72fc" stroke-width="3" class="svg-elem-3"></path>
  <path d="m1570.4103 5930.998-1.7524-1.7524-.879-.879q-.4308-.4308-.7586-.8521t-.5996-.7439-.6067-.6852-.6104-.6532-.5191-.7292-.4693-.7707-.4423-.6973-.4275-.6576-.6977-.7316-.8447-.7719-.366-.5134.0813-.1858.2289-.0076.3092.0893.4487.1421.5245.0773.5657.1355.6817.1672.6513.091.6348.0495.7192.0269.7629.0146.6932.008.6575.0043.6381.0024.5341.0013.571.0007.6846.0003.6528.0003.5421.0001.573 0 .59.0001.5078 0 .4633 0 .5324 0 .5701 0 .4971 0 .4574 0 .5292 0 .5684 0 .4961 0 .5481 0 .5763 0 .5004 0 .4593 0 .4367 0 .4246-.0935.3244-.2378.1765-.3163.0026-.3591-.0921-.3822-.0501-.5819-.1208-.8752-.1591-.9412-.0866-.8859-.0471-.8559-.0256-.933-.1075-.8814-.1519-.9447-.0826-1.0724-.045-1.1444-.1179-1.1833-.1576-1.1112-.0858-1.1631-.0466-1.1913-.0254-1.2089-.0138-1.2186-.101-1.2238-.1484-1.3178-.0808-1.5559-.1374-1.4073-.1682-1.233-.0915-1.3228-.0498-1.1847-.0271-1.1119-.0147-1.1658-.008-1.1015-.0044-1.1579-.0024-1.3754-.0013-1.3091-.0007-1.0861-.0003-.9648-.0003-.9899-.0001-.9102 0-.7756-.0001-.7958 0-.9003.0935-.8637.1443-.935.0785-1.0672.0427-.9545.0233-.8932.0126-.9533.0069-.8925.0037-.8594.0021-.9327.0011-.9724.0941-.9965.1446-.916.0787-.8722.0428-.9418.0233-1.071.0127-1.0478.0069-1.1308.0037-1.1761.0021-1.0137.0011-.8319.0006-.7307.0003-.7691.0002-.7924.0001-.8049 0-.7183.0935-.4843.0509-.2634-.0658-.0499-.1293.0664-.2573.1296-.3246.2575-.3613.2335-.477.2205-.5399.3069-.4807.2605-.5419.2352-.6687.2214-.6442.2139-.5375.2098-.5728.1142-.5897.0621-.5055.0338-.462.1119-.4383.1543-.5188.0839-.5627.0457-.4931.1161-.5486.1543-.6724.0839-.6463.0457-.6297.0249-.7142.0135-.8559-.0839-.933-.1368-.788-.1679-.7091-.1848-.7597-.1006-.6914-.0546-.6543-.1233-.6364-.1605-.5332-.0873-.6639-.0475-.8286-.0259-.7312-.014-.5847-.0077-.5986-.0041-.6972-.0023-.7509-.0012-.689-.0007-.5617-.0004-.5861-.0002-.5992-.0001-.513 0-.466.0934-.4404.1443-.5201.0785-.5611.0427-.4899.0233-.5469.0126-.578.0069-.5014.0037-.4597.0021-.437.0011-.5182.0006-.5623.0003-.4929.0002-.5486.0001-.5766.0935-.4983.1444-.458.0785-.4362.0427-.5177.0233-.5621.0126-.4927.0069-.5485.0037-.5788.0021-.5018.0011-.46.0006-.4372.0915-.5159.141-.5589.0767-.491.0417-.5475.0227-.5783.0124-.5016.1002-.4598.148-.4371.0805-.5182.0438-.5623.1173-.4929.1573-.5463.0855-.5753.0466-.5.0253-.3654.1072-.2923.1519-.346.0826-.3751.0449-.2976-.1625-.1619-.3689-.088-.3853.0455-.3008.2118-.2572.2087-.3268.207-.3647.393-.4789.4943-.541.4535-.4812.4314-.5422.5152-.5754.5606-.5935.5855-.601.5989-.5116.6063-.4653.5167-.4401.3746-.4264.3908-.4189.3995-.4148.589-.4126.8501-.4516l.4625-.2457" fill="none" stroke="#4f72fc" stroke-width="3" class="svg-elem-4"></path>
  <path d="M1533.5753 5833.5899q-1.6781.7478-2.1345 1.0447t-.7982.5519-.6212.5784-.7119 1.2472-.7611 1.6132-.5076 1.1581-.3696.8169-.2945.7226-.2537.7647-.325.8834-.2703.8545-.2405.8388-.2243.9237-.2155.9676-.2107.9915-.1146.9133-.1536.8707-.1747.7541-.0951.7842-.0517.8005-.0281.7136-.0153.7599-.0084.7873-.0045.8022-.0025.7168-.0013.6704-.0007.7386-.0004.7758-.0002.7936-.0002.8034 0 .7175-.0001.6707.0912.7388.1408.7758.0766.796.1352.7135.167.6662.0908.7341.0494.7733.0269.7946.0147.7127.1014.6681.1486.7374.1744.7728.1883.792.196.6178.2.5231.1089.565.0592.5878.0322.6002.111.5134.1538.5598.0837.6762.1391.5525.2625.2093.3298.0227.2729-.1746.242-.3754.3185-.3912.3603-.4933.383-.7357.3952-.8676.3085-.7525.2591-.594.2321-.5078.2197-.3697.2131-.1077.0224.1261-.0813.2533-.1354.3248-.1649.3636-.1832.4783-.2866.634-.2494.6254-.2291.7142-.3116.7624-.3565.5994-.2874.6042-.2499.6092-.2293.5183-.2183.469-.2122.442-.209.334-.3941.1817-.4948.0988-.4561-.0397-.5263-.1151-.5645-.1561-.5875-.2719-.6001-.3348-.7938-.3691-1.1444-.418l-.6226-.2274" fill="none" stroke="#f2f2f2" stroke-width="3" class="svg-elem-5"></path>
  <path d="M1569.1825 5873.2898q0-1.865-.0935-2.4658t-.2378-1.1146-.3163-.8867-.6372-.202-.7183.3576-.4842.3814-.3569.4857-.1942.5424-.1991.6689-.2018.7379-.1097.6818-.0598.7448-.0324.6857.0758.5599.1347.4916.1667.5455.2755.575.3344.4997.2755.4588.2433.4366.2259.4244.2163.4179.2112.5078.1149.6501.0624.6341-.0594.4385-.2194.3319-.3062.3653-.3513.2899-.3758.2512-.3914.2302-.4933.1252-.6423.0681-.7234.037-.6739.0202-.5536-.0826-.5816-.2295-.5968-.4966-.5939-.7819l-.3231-.4254" fill="none" stroke="#4f72fc" stroke-width="3" class="svg-elem-6"></path>
  <path d="M1568.3639 5877.7919q-1.3042-.187-2.0328-.2378t-1.5979-.1115l-.8693-.0607" fill="none" stroke="#4f72fc" stroke-width="3" class="svg-elem-7"></path>
  <path d="M1540.1237 5899.8929q-1.4911.7478-2.0837.9513t-1.0083.314-1.1095-.4835-1.0709-1.0109-.5826-.9215-.3169-1.0599-.0789-.9505.144-.7041.1718-.5699.187-.4971.2886-.4573.344-.4358.3741-.424.3905-.3241.3994-.2698.4954-.2403.5476-.1307.4849-.0711.5443-.0387.5765-.021.594-.0114.6036-.0063.6088-.0034.6116.0917.5197.1433.5609.1715.6767.2802.6486.3394.5398.3716.4806.3891.4485.3986.4308.4039.4214.5935.4162.6946.3199.656.2675.7308.239.678.13.6492-.0228.7272-.1993.676-.2954.6481-.3477.5396-.4695.4782-.5359.5383-.572.4798-.685.3545-.6509.2863-.6322.2493-.7178.1355-.7645.0738-.6962.0401-.6593.0219-.7325-.0816-.6789-.1379-.6475-.075-.6304-.1343-.5299-.1665-.4753-.1841-.4454-.2871-.4293-.3409-.4206-.4635-.3222-.7196-.2688-.7654-.2397-.6968-.1303-.753-.071-.8747.0549-1.0345.1234-1.0302.0671-.8408.1299-.6444.1642-.5375.1828-.5728.2864-.5921.3428-.509.3734-.4639.4836-.437.5412-.4225.5726-.3232.5919-.2694.6025-.24.6082-.1305.7047-.0711.8508-.0386.8345.0725.7321.1329.6787.1657.6497.1837.5403.1911.481.2887.4485.3439.431.3741.4215.3905.4162.3994.4133.4042.4119.4068.411.5018.4082.6469.4068.817.3148.9096.1712.7752.0932.7957.0506.9002-.0659.7702-.2205.6059-.3047.5166-.3526.468-.3789.4393-.393.4236-.4943.4174-.5493.3206-.5792.2678-.5956.3327-.6044.368-.7005.2936-.7527.1597-.7833.0869-.8001.0473-.8092.0257-.9076-.0795-.8676-.2302-.7502-.3122-.6862-.3568-.6538-.4722-.6361-.5351-.6264-.478-.6213-.5405-.5249-.5745-.4725-.5929-.444-.603-.335-.6085-.2758-.7961-.2434-.8982-.1325-.9561.0214-.9875.1987-.8176.295-.7252.4409-.675.5203-.6476.5635-.6305.5869-.5276.5998-.474.6979-.4448.6578-.429.6383-.4203.7212-.3221.7662-.2687.6973-.2397.6597-.1304.7329-.0709.6768.0549.6463.1234.6321.1605.6242.2743.6201.3362.6177.3699.6165.3881.6158.3959.6155.4935.6129.5489.6117.579.5196.6889.4697.6552.4425.6369.4276.7204.4196.7635.3218.787.2685.7086.2395.6659.1303.7362.0709.7744.0386.7017.021.6621-.0821.6384-.2316.532-.313.5698-.3572.5904-.4747.5082-.6299.4634-.6209.439-.6181.4258-.7102.4186-.8538.4147-.9318.3191-.8809.1735-.9443.1879-.9788.1957-.9999.013-1.0113-.1799-.9241-.2848-.8766-.3419-.8485-.4664-.7398-.5342-.6829-.5711-.6519-.591-.5416-.5998-.4816-.6978-.3554-.6601-.2869-.6396-.2495-.7218-.2292-.7666-.2182-.7909-.1187-.8954.0289-.9522.2027-.8919.2972-.8592.3487-.8413.4701-.8315.5362-.7329.6633-.7703.8259-.7906.7298-.6171.6774-.5227.649-.3778.6335-.299.7185-.3496.856-.2837.9308-.1543.8803-.084.7593-.0456.6935.0686.7511.2243.6891.309.6553.355.637.3801.5311.3938.5671.3989.589.4951.5073.5498.463.5795.4388.5957.4257.6045.4185.7028.4146.6628.4126.6409.3179.7204.2664.67.3319.6449.274.7248.2425.7682.3167.6983.2634.7538.2368.8752.2223.8478.2144.835.2101.8283.2078.8244.2065.8225.1124.8213.1546.9119.1776.9612.0966.8968.0525.9553.0286.987.0155.9109.0085.8672.0046.8434.0025.8327.0014.8269.0007.8238.0004.822.0002.9123-.0933.9614-.1443.897-.0785.8618-.0427.8428-.1167.8324-.1569.9202-.0854.9657-.0465.897.0682.8619.1306.8428.0711.8324.1321.8267.1653.8237.1835.9132.1932.9619.1052.8972.1506.862.1755.9363.1889.9767.2898.903.251.9564.2301.9876.3121.9112.4503.8697.5253.847.564.8324.585.8244.5986.8225.6061.8213.6102.8207.6124.8204.6135.7267.7077.6735.7567.6446.7832.5376.8.5729.7157.592.6697.5091.7383.3704.682.295.558.3474.4905.2825.4538.2472.4316.2279.4194.124.4152.0674.5997.0367.8617.0284l.4688.0154" fill="none" stroke="#f2f2f2" stroke-width="3" class="svg-elem-8"></path>
  <path d="M1574.5031 5952.2805q-1.1218-1.865-1.5181-2.4658t-.7054-1.0211-.5707-.7424-.4974-.5908-.4575-.5084-.4359-.3701-.3306-.2947-.0864-.2539.14-.0446.2631.1627.3301.182.3665.1925.3841.2916.3936.2522.4011.2306.4052.3125.4073.3569.4086.3811.4092.3943.4096.308.4098.3522.4098.4698.3165.536.2656.572.238.4981.1295.5515.0704.6739-.0552.7405-.3104.681-.4494.6486-.5248.6333-.6595.5315-.7326.476-.6768.446-.7398.3361-.9699.2596l-.5276.1413" fill="none" stroke="#f2f2f2" stroke-width="3" class="svg-elem-9"></path>
  <path d="M1597.8319 5956.3733q-.5609-2.052-.8069-2.7036t-.4734-1.0061-.4445-.4539-.3352-.0599-.2736.2478-.3335.5065-.4619 1.1146-.4382 1.4476-.2384 1.1614-.1297 1.1904-.0705 1.2062.0551.9366.1234.79.1607.8037.2743.7176.2427.6708.2233.6454.2126.5357.2092.5697.2072.5903.1128.695-.0322.752-.1109.6896-.1516.6555-.3606.6371-.4766.627-.5397.4346-.6676.3276-.6435.2694-.8175.1466-1.0034.0797-.9174-.0478-.873-.1173-.7554-.1572-.6913-.2725-.75-.4287-.4081-.7006-.0497-.9396l-.027-.5112" fill="none" stroke="#f2f2f2" stroke-width="3" class="svg-elem-10"></path>
  <path d="M1595.3762 5963.7403h-4.91" fill="none" stroke="#f2f2f2" stroke-width="3" class="svg-elem-11"></path>
  <path d="M1606.4268 5952.6898q-1.4911 2.7998-1.9902 3.6549t-.864 1.5071-.7505 1.285-.5952 1.1642-.4173 1.0072-.1335 1.5762.2078 1.8835.3 1.3027.3502.8957.5621.6742.8294.6537l.4512.3556" fill="none" stroke="#f2f2f2" stroke-width="3" class="svg-elem-12"></path>
  <path d="M1613.3845 5958.8289q-1.3042 1.4911-1.8459 2.0837t-.9298 1.0083-.7863.829-.8016.7314-.9035.6784-1.0965.7896l-.5964.4296" fill="none" stroke="#f2f2f2" stroke-width="3" class="svg-elem-13"></path>
  <path d="M1607.6546 5959.2382q1.4911 1.6781 1.9902 2.3215t.864 1.1803.657 1.0161.8248 1.0201 1.1684 1.1865l.6356.6455" fill="none" stroke="#f2f2f2" stroke-width="3" class="svg-elem-14"></path>
  <path d="M1616.2494 5953.099q1.3042 3.1738 1.6589 4.5956t.5477 2.4758.2979 1.9077.0709 1.5987-.1461 1.4283-.173 1.1486-.281 1.1857-.5268 1.2994-.6726 1.2696l-.3659.6906" fill="none" stroke="#f2f2f2" stroke-width="3" class="svg-elem-15"></path>
</svg>