<svg xmlns="http://www.w3.org/2000/svg" viewBox="50 0 300 400">
  <g id="axis-5a13429f" fill="none">
    <path id="yaxis-5a13429f" stroke="#fafafa" stroke-miterlimit="10" stroke-opacity=".9"
      stroke-width="1.5" d="M200 0v400" class="dcg-svg-axis-line" paint-order="fill stroke markers" />
    <path id="xaxis-5a13429f" stroke="#fafafa" stroke-miterlimit="10" stroke-opacity=".9"
      stroke-width="1.5" d="M0 204h400" class="dcg-svg-axis-line" paint-order="fill stroke markers" />
    <text x="261.51543033" y="120.19635899" stroke="#c74440" stroke-miterlimit="2" stroke-width="1.5"
      class="dcg-svg-axis-value" font-family="Arial" font-size="16" text-anchor="middle"
      text-decoration="normal">c</text>
    <text x="120.51543033" y="120.19635899" stroke="#2d70b3" stroke-miterlimit="2" stroke-width="2"
      class="dcg-svg-axis-value" font-family="Arial" font-size="16" text-anchor="middle"
      text-decoration="normal">b</text>
    <text x="211.51543033" y="120.19635899" stroke="#fa7e19" stroke-miterlimit="2" stroke-width="1.5"
      class="dcg-svg-axis-value" font-family="Arial" font-size="16" text-anchor="middle"
      text-decoration="normal">a</text>
    <text x="320.51543033" y="120.19635899" stroke="#388c46" stroke-miterlimit="2" stroke-width="2"
      class="dcg-svg-axis-value" font-family="Arial" font-size="16" text-anchor="middle"
      text-decoration="normal">d</text>
  </g>
  <path id="sketch-5a13429f" fill="none" stroke="#c74440" stroke-linecap="round"
    stroke-linejoin="round" stroke-miterlimit="10" stroke-width="5"
    d="M138.5498204 408h0l1.8798671-15.89393746 2.63671875-20.66661651 2.63671875-19.12793449 2.63671875-17.64665674 2.5390625-15.64666107 2.5390625-14.37756587 2.44140625-12.67548595 2.44140625-11.5950976 2.34375-10.15716438 2.34375-9.24379207 2.34375-8.37073661 2.24609375-7.24001519 2.24609375-6.51071006 2.24609375-5.81688927 2.24609375-5.1585528 2.1484375-4.3509666 2.24609375-3.97313266 2.24609375-3.41970635 2.24609375-2.90176436 2.24609375-2.41930667 2.1484375-1.89539283 2.1484375-1.51749603 2.05078125-1.1245275 2.1484375-.8685455 2.1484375-.58239987 2.24609375-.3366282 2.44140625-.0910847 2.63671875.17197919 3.02734375.4711372 3.80859375.87954642 12.109375 3.0141099 2.9296875.34554719 2.5390625.05116904 2.34375-.2040772 2.24609375-.46032006 2.1484375-.7159692 2.05078125-.96383228 2.05078125-1.26515616 2.05078125-1.5934892 2.05078125-1.94883137 2.1484375-2.45218835 2.24609375-3.04603577 2.24609375-3.57410981 2.1484375-3.94556973 2.1484375-4.4922426 2.1484375-5.06996968 2.1484375-5.67875105 2.1484375-6.31858664 2.24609375-7.32362362 2.24609375-8.0923739 2.24609375-8.89660852 2.34375-10.17924276 2.34375-11.13388497 2.34375-12.12884401 2.44140625-13.7356873 2.44140625-14.90460292 2.5390625-16.78975726 2.5390625-18.15460358 2.63671875-20.3524046 2.63671875-21.93694058L290.49660903-8"
    class="dcg-svg-curve" paint-order="fill stroke markers" />
  <path id="sketch-5a13429f" fill="none" stroke="#2d70b3" stroke-linecap="round"
    stroke-linejoin="round" stroke-miterlimit="10" stroke-width="5"
    d="M78.6696813-8h0l.13891245 1.01461903 2.63671875 17.77240233L83.984375 26.5500821l2.5390625 14.48936534 2.44140625 12.77864725L91.40625 65.51210046 93.75 75.76021531l2.34375 9.33082285 2.34375 8.4538477 2.24609375 7.31598519 2.24609375 6.58308021 2.24609375 5.88565956 2.24609375 5.22372322 2.1484375 4.40993505 2.24609375 4.0312599L114.0625 130.4687627l2.24609375 2.95269186 2.24609375 2.46663433 2.1484375 1.93729428 2.1484375 1.55610383 2.05078125 1.15830795 2.05078125.86628805 2.1484375.62375913 2.24609375.37483656 2.34375.12677602 2.5390625-.12119863 2.9296875-.40862867 3.515625-.7642402 6.0546875-1.63855009 5.078125-1.25655808 3.3203125-.55318589 2.734375-.20001217 2.44140625.07250008 2.24609375.3166873 2.1484375.56077648 2.05078125.79945357 2.05078125 1.08491495 2.05078125 1.39738546 2.05078125 1.73686514 2.05078125 2.10335395 2.1484375 2.62602458 2.24609375 3.2408539 2.1484375 3.60611107 2.1484375 4.13255161 2.1484375 4.6900464 2.1484375 5.27859545 2.1484375 5.89819872 2.1484375 6.54885627 2.24609375 7.575931 2.24609375 8.35650942 2.24609375 9.17257212 2.34375 10.47981547 2.34375 11.44733667 2.44140625 12.99660726 2.44140625 14.1357509 2.44140625 15.32046392 2.5390625 17.23901055 2.5390625 18.62094331 2.63671875 20.85476533 2.63671875 22.45772736 2.734375 25.04399128 2.734375 26.89364696L229.35112841 408"
    class="dcg-svg-curve" paint-order="fill stroke markers" />
  <path id="sketch-5a13429f" fill="none" stroke="#fa7e19" stroke-linecap="round"
    stroke-linejoin="round" stroke-miterlimit="10" stroke-width="5"
    d="M18.49521223 408h0l249.081664-416" class="dcg-svg-curve" paint-order="fill stroke markers" />
  <path id="sketch-5a13429f" fill="none" stroke="#388c46" stroke-linecap="round"
    stroke-linejoin="round" stroke-miterlimit="10" stroke-width="5"
    d="M65.62551646-8h0l2.24557729 12.67856187 5.2734375 28.60202769 5.17578125 26.94328933 5.078125 25.3478634 4.98046875 23.81455526 4.8828125 22.3421704 4.78515625 20.92951421 4.6875 19.57539214 4.58984375 18.2786096 4.4921875 17.037972 4.39453125 15.85228482 4.296875 14.72035343 4.296875 13.94945525 4.19921875 12.88760552 4.1015625 11.87712246 4.00390625 10.91681148 3.90625 10.00547804 3.90625 9.3683721 3.80859375 8.52074923 3.7109375 7.71971475 3.7109375 7.14472664 3.61328125 6.40421722 3.61328125 5.85909346 3.515625 5.17751633 3.515625 4.66146052 3.41796875 4.03722293 3.22265625 3.35975394 3.125 2.84382436 2.9296875 2.2957675 2.83203125 1.87858935 2.734375 1.49605383 2.63671875 1.14696635 2.63671875.85668496 2.5390625.55060215 2.5390625.28142489 2.5390625.01224763 2.5390625-.25692962 2.5390625-.52610688 2.5390625-.79528414 2.63671875-1.1107778 2.63671875-1.4010592 2.734375-1.7595575 2.83203125-2.15150387 2.9296875-2.5780929 3.02734375-3.0405191 3.22265625-3.65717154 3.3203125-4.2215347 3.515625-4.97158121 3.515625-5.48763701 3.61328125-6.1778286 3.61328125-6.72295237 3.61328125-7.26807613 3.7109375-8.0319331 3.80859375-8.84118384 3.80859375-9.44683269 3.90625-10.31820127 4.00390625-11.2373528 4.00390625-11.90671223 4.1015625-12.89116712 4.19921875-13.9257941 4.296875-15.01178776L290.625 201.4861349l4.4921875-17.34265335 4.4921875-18.18522594 4.58984375-19.45080384 4.6875-20.77252668 4.78515625-22.15158906 4.8828125-23.58918555 4.98046875-25.08651071 5.078125-26.64475915 5.17578125-28.2651254L335.19732115-8"
    class="dcg-svg-curve" paint-order="fill stroke markers" />
</svg>