<svg xmlns="http://www.w3.org/2000/svg" direction="ltr" width="916.2518347865166" height="908.5453865339396" viewBox="1126.2481652134834 5121.981373441846 916.2518347865166 908.5453865339396" stroke-linecap="round" stroke-linejoin="round" style="background-color: transparent;"><defs/><g transform="matrix(1, 0, 0, 1, 1282.8894, 5153.9814)" opacity="1"><g transform="scale(1)"><path d="M0,0 Q0.456,0.456 0.58,0.808 T0.5435,1.5796 0.2957,2.4553 0.1609,3.3877 0.0875,4.3509 0.0476,5.3309 0.0259,6.548 0.0141,7.8941 0.0077,9.0824 0.0042,10.1848 0.0023,11.4685 0.0012,12.8509 0.0007,14.0589 0.0004,15.172 0.0002,16.4616 0.0001,17.8471 0.0001,19.0568 0,20.1709 0,21.461 0,22.8468 0,24.2846 0,25.7508 0,27.0045 0,28.3704 0,30.0255 0,31.6099 0,33.1558 0,34.6807 0,35.9663 0,37.3497 0,38.7862 0,40.2517 0,41.7329 0,42.9947 0,44.3651 0,45.7946 0,47.2563 0,48.9634 0,51.0321 0,53.0695 0,54.8618 0,56.5208 0,58.1073 0,59.6544 0,61.18 0,62.6939 0,64.2015 0,65.7056 0,67.2079 0,68.7091 0,70.2097 0,71.7101 0,73.2103 0,74.7104 0,76.2105 0,77.9385 0,79.5625 0,81.13 0,82.6667 0,83.9587 0,85.3455 0,87.012 0,88.6025 0,90.1518 0,91.6786 0,93.1931 0,94.9291 0,96.5574 0,98.1272 0,99.8932 0,101.5379 0,102.8886 0,104.3074 0,105.7632 0,107.2392 0,108.9541 0,110.571 0,111.9066 0,113.3172 0,114.9966 0,116.5941 0,118.1472 0,119.6761 0,121.1918 0,122.7003 0,124.205 0,125.7075 0,127.2089 0,128.7096 0,129.982 0,131.3582 0,132.7909 0,134.2542 0,135.7343 0,137.2235 0,138.9456 0,140.5664 0,142.1321 0,143.8959 0,145.7674 0,147.6974 0,149.6594 0,151.6387 0,153.6275 0,155.6213 0,157.618 0,159.6162 0,161.6152 0,163.6147 0,165.6144 0,167.6142 0,169.6141 0,171.6141 0,173.6141 0,175.6141 0,177.842 0,180.1941 0,182.3856 0,184.4898 0,186.7744 0,189.1573 0,191.3656 0,193.2509 -0.228,195.1885 -0.58,197.3825 -0.7715,199.7161 -0.8757,202.1256 -0.9324,204.3483 -0.9632,206.4695 -0.98,208.7634 -0.9891,211.1513 -0.9941,213.3623 -0.9968,215.4771 -0.9982,217.5395 -0.999,219.5735 -0.9995,221.82 -0.9997,224.1821 -0.9998,226.379 -0.9999,228.4862 -1,230.7725 -1,233.1562 -1,235.365 -1,237.4786 -1,239.5403 -1,241.5739 -1,243.5922 -1,245.6022 -1,247.6076 -1,249.8385 -1,252.1922 -1,254.6125 -1,257.0692 -1,259.5457 -1,262.0328 -1,264.2979 -1,266.67 -1,269.1005 -1,271.1067 -1,272.882 -1,274.7598 -1,276.4653 -1,278.0771 -1,279.866 -1,281.7511 -1,283.6886 -1,285.6546 -1,287.6361 -1,289.626 -1,291.6206 -1,293.3896 -1,295.0359 -1,296.8435 -1.228,298.5109 -1.58,300.1019 -1.7715,301.8794 -1.8757,303.7584 -1.9324,305.6926 -1.9632,307.6568 -1.98,309.6373 -1.9891,311.6267 -1.9941,313.6209 -1.9968,315.6178 -1.9982,317.6161 -1.999,319.6151 -1.7715,321.8426 -1.4197,324.1944 -1.2283,326.3858 -1.1242,328.7178 -1.0676,331.1265 -1.0368,333.3488 -1.02,335.6978 -1.0109,338.1156 -1.0059,340.3429 -1.0032,342.4665 -1.0018,344.5338 -1.001,346.5704 -1.0005,348.8183 -1.0003,351.1811 -1.0002,353.1505 -1.0001,355.1339 -1,357.1248 -1,358.8919 -1,360.7652 -1,362.6963 -1,364.4308 -1,366.0583 -1,367.8557 -1.228,369.7455 -1.58,371.6856 -1.7715,373.4249 -1.8757,374.8272 -1.9324,376.274 -1.9632,377.745 -1.98,379.0013 -1.9891,380.1407 -1.9941,381.2165 -1.9968,382.4858 -1.9982,383.8603 -1.999,385.064 -1.9995,386.1748 -2.2277,387.2351 -2.5799,388.4959 -2.852,390.1177 L-3,391 " stroke-linecap="round" fill="none" stroke="#9398b0" stroke-width="4.5" stroke-dasharray="none" stroke-dashoffset="0"/></g></g><g transform="matrix(1, 0, 0, 1, 1721.5, 5156.5)" opacity="1"><g transform="scale(1)"><path d="M0,0 Q0.456,0.456 0.58,0.808 T0.5435,1.5796 0.2957,2.4553 0.1609,3.3877 0.0875,4.3509 0.0476,5.3309 0.0259,6.548 0.0141,7.8941 0.0077,9.0824 0.0042,10.1848 0.0023,11.4685 0.0012,12.8509 0.0007,14.0589 0.0004,15.172 0.0002,16.4616 0.0001,17.8471 0.0001,19.0568 0,20.1709 0,21.461 0,22.8468 0,24.2846 0,25.7508 0,27.0045 0,28.3704 0,30.0255 0,31.6099 0,33.1558 0,34.6807 0,35.9663 0,37.3497 0,38.7862 0,40.2517 0,41.7329 0,42.9947 0,44.3651 0,45.7946 0,47.2563 0,48.9634 0,51.0321 0,53.0695 0,54.8618 0,56.5208 0,58.1073 0,59.6544 0,61.18 0,62.6939 0,64.2015 0,65.7056 0,67.2079 0,68.7091 0,70.2097 0,71.7101 0,73.2103 0,74.7104 0,76.2105 0,77.9385 0,79.5625 0,81.13 0,82.6667 0,83.9587 0,85.3455 0,87.012 0,88.6025 0,90.1518 0,91.6786 0,93.1931 0,94.9291 0,96.5574 0,98.1272 0,99.8932 0,101.5379 0,102.8886 0,104.3074 0,105.7632 0,107.2392 0,108.9541 0,110.571 0,111.9066 0,113.3172 0,114.9966 0,116.5941 0,118.1472 0,119.6761 0,121.1918 0,122.7003 0,124.205 0,125.7075 0,127.2089 0,128.7096 0,129.982 0,131.3582 0,132.7909 0,134.2542 0,135.7343 0,137.2235 0,138.9456 0,140.5664 0,142.1321 0,143.8959 0,145.7674 0,147.6974 0,149.6594 0,151.6387 0,153.6275 0,155.6213 0,157.618 0,159.6162 0,161.6152 0,163.6147 0,165.6144 0,167.6142 0,169.6141 0,171.6141 0,173.6141 0,175.6141 0,177.842 0,180.1941 0,182.3856 0,184.4898 0,186.7744 0,189.1573 0,191.3656 0,193.2509 -0.228,195.1885 -0.58,197.3825 -0.7715,199.7161 -0.8757,202.1256 -0.9324,204.3483 -0.9632,206.4695 -0.98,208.7634 -0.9891,211.1513 -0.9941,213.3623 -0.9968,215.4771 -0.9982,217.5395 -0.999,219.5735 -0.9995,221.82 -0.9997,224.1821 -0.9998,226.379 -0.9999,228.4862 -1,230.7725 -1,233.1562 -1,235.365 -1,237.4786 -1,239.5403 -1,241.5739 -1,243.5922 -1,245.6022 -1,247.6076 -1,249.8385 -1,252.1922 -1,254.6125 -1,257.0692 -1,259.5457 -1,262.0328 -1,264.2979 -1,266.67 -1,269.1005 -1,271.1067 -1,272.882 -1,274.7598 -1,276.4653 -1,278.0771 -1,279.866 -1,281.7511 -1,283.6886 -1,285.6546 -1,287.6361 -1,289.626 -1,291.6206 -1,293.3896 -1,295.0359 -1,296.8435 -1.228,298.5109 -1.58,300.1019 -1.7715,301.8794 -1.8757,303.7584 -1.9324,305.6926 -1.9632,307.6568 -1.98,309.6373 -1.9891,311.6267 -1.9941,313.6209 -1.9968,315.6178 -1.9982,317.6161 -1.999,319.6151 -1.7715,321.8426 -1.4197,324.1944 -1.2283,326.3858 -1.1242,328.7178 -1.0676,331.1265 -1.0368,333.3488 -1.02,335.6978 -1.0109,338.1156 -1.0059,340.3429 -1.0032,342.4665 -1.0018,344.5338 -1.001,346.5704 -1.0005,348.8183 -1.0003,351.1811 -1.0002,353.1505 -1.0001,355.1339 -1,357.1248 -1,358.8919 -1,360.7652 -1,362.6963 -1,364.4308 -1,366.0583 -1,367.8557 -1.228,369.7455 -1.58,371.6856 -1.7715,373.4249 -1.8757,374.8272 -1.9324,376.274 -1.9632,377.745 -1.98,379.0013 -1.9891,380.1407 -1.9941,381.2165 -1.9968,382.4858 -1.9982,383.8603 -1.999,385.064 -1.9995,386.1748 -2.2277,387.2351 -2.5799,388.4959 -2.852,390.1177 L-3,391 " stroke-linecap="round" fill="none" stroke="#9398b0" stroke-width="4.5" stroke-dasharray="none" stroke-dashoffset="0"/></g></g><g transform="matrix(1, 0, 0, 1, 1281.5, 5606.5)" opacity="1"><g transform="scale(1)"><path d="M0,0 Q0.456,0.456 0.58,0.808 T0.5435,1.5796 0.2957,2.4553 0.1609,3.3877 0.0875,4.3509 0.0476,5.3309 0.0259,6.548 0.0141,7.8941 0.0077,9.0824 0.0042,10.1848 0.0023,11.4685 0.0012,12.8509 0.0007,14.0589 0.0004,15.172 0.0002,16.4616 0.0001,17.8471 0.0001,19.0568 0,20.1709 0,21.461 0,22.8468 0,24.2846 0,25.7508 0,27.0045 0,28.3704 0,30.0255 0,31.6099 0,33.1558 0,34.6807 0,35.9663 0,37.3497 0,38.7862 0,40.2517 0,41.7329 0,42.9947 0,44.3651 0,45.7946 0,47.2563 0,48.9634 0,51.0321 0,53.0695 0,54.8618 0,56.5208 0,58.1073 0,59.6544 0,61.18 0,62.6939 0,64.2015 0,65.7056 0,67.2079 0,68.7091 0,70.2097 0,71.7101 0,73.2103 0,74.7104 0,76.2105 0,77.9385 0,79.5625 0,81.13 0,82.6667 0,83.9587 0,85.3455 0,87.012 0,88.6025 0,90.1518 0,91.6786 0,93.1931 0,94.9291 0,96.5574 0,98.1272 0,99.8932 0,101.5379 0,102.8886 0,104.3074 0,105.7632 0,107.2392 0,108.9541 0,110.571 0,111.9066 0,113.3172 0,114.9966 0,116.5941 0,118.1472 0,119.6761 0,121.1918 0,122.7003 0,124.205 0,125.7075 0,127.2089 0,128.7096 0,129.982 0,131.3582 0,132.7909 0,134.2542 0,135.7343 0,137.2235 0,138.9456 0,140.5664 0,142.1321 0,143.8959 0,145.7674 0,147.6974 0,149.6594 0,151.6387 0,153.6275 0,155.6213 0,157.618 0,159.6162 0,161.6152 0,163.6147 0,165.6144 0,167.6142 0,169.6141 0,171.6141 0,173.6141 0,175.6141 0,177.842 0,180.1941 0,182.3856 0,184.4898 0,186.7744 0,189.1573 0,191.3656 0,193.2509 -0.228,195.1885 -0.58,197.3825 -0.7715,199.7161 -0.8757,202.1256 -0.9324,204.3483 -0.9632,206.4695 -0.98,208.7634 -0.9891,211.1513 -0.9941,213.3623 -0.9968,215.4771 -0.9982,217.5395 -0.999,219.5735 -0.9995,221.82 -0.9997,224.1821 -0.9998,226.379 -0.9999,228.4862 -1,230.7725 -1,233.1562 -1,235.365 -1,237.4786 -1,239.5403 -1,241.5739 -1,243.5922 -1,245.6022 -1,247.6076 -1,249.8385 -1,252.1922 -1,254.6125 -1,257.0692 -1,259.5457 -1,262.0328 -1,264.2979 -1,266.67 -1,269.1005 -1,271.1067 -1,272.882 -1,274.7598 -1,276.4653 -1,278.0771 -1,279.866 -1,281.7511 -1,283.6886 -1,285.6546 -1,287.6361 -1,289.626 -1,291.6206 -1,293.3896 -1,295.0359 -1,296.8435 -1.228,298.5109 -1.58,300.1019 -1.7715,301.8794 -1.8757,303.7584 -1.9324,305.6926 -1.9632,307.6568 -1.98,309.6373 -1.9891,311.6267 -1.9941,313.6209 -1.9968,315.6178 -1.9982,317.6161 -1.999,319.6151 -1.7715,321.8426 -1.4197,324.1944 -1.2283,326.3858 -1.1242,328.7178 -1.0676,331.1265 -1.0368,333.3488 -1.02,335.6978 -1.0109,338.1156 -1.0059,340.3429 -1.0032,342.4665 -1.0018,344.5338 -1.001,346.5704 -1.0005,348.8183 -1.0003,351.1811 -1.0002,353.1505 -1.0001,355.1339 -1,357.1248 -1,358.8919 -1,360.7652 -1,362.6963 -1,364.4308 -1,366.0583 -1,367.8557 -1.228,369.7455 -1.58,371.6856 -1.7715,373.4249 -1.8757,374.8272 -1.9324,376.274 -1.9632,377.745 -1.98,379.0013 -1.9891,380.1407 -1.9941,381.2165 -1.9968,382.4858 -1.9982,383.8603 -1.999,385.064 -1.9995,386.1748 -2.2277,387.2351 -2.5799,388.4959 -2.852,390.1177 L-3,391 " stroke-linecap="round" fill="none" stroke="#9398b0" stroke-width="4.5" stroke-dasharray="none" stroke-dashoffset="0"/></g></g><g transform="matrix(1, 0, 0, 1, 1721.5, 5606.5)" opacity="1"><g transform="scale(1)"><path d="M0,0 Q0.456,0.456 0.58,0.808 T0.5435,1.5796 0.2957,2.4553 0.1609,3.3877 0.0875,4.3509 0.0476,5.3309 0.0259,6.548 0.0141,7.8941 0.0077,9.0824 0.0042,10.1848 0.0023,11.4685 0.0012,12.8509 0.0007,14.0589 0.0004,15.172 0.0002,16.4616 0.0001,17.8471 0.0001,19.0568 0,20.1709 0,21.461 0,22.8468 0,24.2846 0,25.7508 0,27.0045 0,28.3704 0,30.0255 0,31.6099 0,33.1558 0,34.6807 0,35.9663 0,37.3497 0,38.7862 0,40.2517 0,41.7329 0,42.9947 0,44.3651 0,45.7946 0,47.2563 0,48.9634 0,51.0321 0,53.0695 0,54.8618 0,56.5208 0,58.1073 0,59.6544 0,61.18 0,62.6939 0,64.2015 0,65.7056 0,67.2079 0,68.7091 0,70.2097 0,71.7101 0,73.2103 0,74.7104 0,76.2105 0,77.9385 0,79.5625 0,81.13 0,82.6667 0,83.9587 0,85.3455 0,87.012 0,88.6025 0,90.1518 0,91.6786 0,93.1931 0,94.9291 0,96.5574 0,98.1272 0,99.8932 0,101.5379 0,102.8886 0,104.3074 0,105.7632 0,107.2392 0,108.9541 0,110.571 0,111.9066 0,113.3172 0,114.9966 0,116.5941 0,118.1472 0,119.6761 0,121.1918 0,122.7003 0,124.205 0,125.7075 0,127.2089 0,128.7096 0,129.982 0,131.3582 0,132.7909 0,134.2542 0,135.7343 0,137.2235 0,138.9456 0,140.5664 0,142.1321 0,143.8959 0,145.7674 0,147.6974 0,149.6594 0,151.6387 0,153.6275 0,155.6213 0,157.618 0,159.6162 0,161.6152 0,163.6147 0,165.6144 0,167.6142 0,169.6141 0,171.6141 0,173.6141 0,175.6141 0,177.842 0,180.1941 0,182.3856 0,184.4898 0,186.7744 0,189.1573 0,191.3656 0,193.2509 -0.228,195.1885 -0.58,197.3825 -0.7715,199.7161 -0.8757,202.1256 -0.9324,204.3483 -0.9632,206.4695 -0.98,208.7634 -0.9891,211.1513 -0.9941,213.3623 -0.9968,215.4771 -0.9982,217.5395 -0.999,219.5735 -0.9995,221.82 -0.9997,224.1821 -0.9998,226.379 -0.9999,228.4862 -1,230.7725 -1,233.1562 -1,235.365 -1,237.4786 -1,239.5403 -1,241.5739 -1,243.5922 -1,245.6022 -1,247.6076 -1,249.8385 -1,252.1922 -1,254.6125 -1,257.0692 -1,259.5457 -1,262.0328 -1,264.2979 -1,266.67 -1,269.1005 -1,271.1067 -1,272.882 -1,274.7598 -1,276.4653 -1,278.0771 -1,279.866 -1,281.7511 -1,283.6886 -1,285.6546 -1,287.6361 -1,289.626 -1,291.6206 -1,293.3896 -1,295.0359 -1,296.8435 -1.228,298.5109 -1.58,300.1019 -1.7715,301.8794 -1.8757,303.7584 -1.9324,305.6926 -1.9632,307.6568 -1.98,309.6373 -1.9891,311.6267 -1.9941,313.6209 -1.9968,315.6178 -1.9982,317.6161 -1.999,319.6151 -1.7715,321.8426 -1.4197,324.1944 -1.2283,326.3858 -1.1242,328.7178 -1.0676,331.1265 -1.0368,333.3488 -1.02,335.6978 -1.0109,338.1156 -1.0059,340.3429 -1.0032,342.4665 -1.0018,344.5338 -1.001,346.5704 -1.0005,348.8183 -1.0003,351.1811 -1.0002,353.1505 -1.0001,355.1339 -1,357.1248 -1,358.8919 -1,360.7652 -1,362.6963 -1,364.4308 -1,366.0583 -1,367.8557 -1.228,369.7455 -1.58,371.6856 -1.7715,373.4249 -1.8757,374.8272 -1.9324,376.274 -1.9632,377.745 -1.98,379.0013 -1.9891,380.1407 -1.9941,381.2165 -1.9968,382.4858 -1.9982,383.8603 -1.999,385.064 -1.9995,386.1748 -2.2277,387.2351 -2.5799,388.4959 -2.852,390.1177 L-3,391 " stroke-linecap="round" fill="none" stroke="#9398b0" stroke-width="4.5" stroke-dasharray="none" stroke-dashoffset="0"/></g></g><g transform="matrix(1, 0, 0, 1, 1199.8894, 5480.9814)" opacity="1"><g transform="scale(1)"><path d="M0,0 Q2.28,0.456 3.1282,0.58 T4.6657,0.9995 5.9582,1.4557 7.1172,1.7039 8.2038,1.8389 9.0229,2.1404 9.6964,2.5324 10.5189,2.7456 11.4223,2.8616 12.3697,3.1527 13.3411,3.5391 14.3256,3.7493 15.3171,3.8636 16.3125,3.9258 17.31,3.9596 18.3086,3.978 19.3079,3.9881 20.5355,3.9935 21.8873,3.9965 23.0787,3.9981 24.1828,3.999 25.4674,3.9994 26.8503,3.9997 28.2866,3.9998 29.7519,3.9999 31.233,4 32.9508,4 34.7972,4.228 36.7137,4.58 38.4402,4.7715 40.0635,4.8757 41.8585,4.9324 43.747,4.9632 45.6864,4.98 47.6534,4.9891 49.6354,4.9941 51.3977,4.9968 53.0403,4.9982 54.8459,4.771 56.7402,4.4194 58.6827,4.2282 60.6514,4.1241 62.6343,4.0675 64.6251,4.0367 66.62,4.02 68.3893,4.0109 70.2638,4.0059 72.1955,3.7752 73.9304,3.4217 75.7861,3.2294 77.7076,3.1248 79.665,3.0679 81.6417,2.8089 83.6291,2.4401 85.6222,2.2394 87.6185,2.1302 89.6165,2.0708 91.6154,1.8105 93.6148,1.4409 95.6144,1.2399 97.6142,1.1305 99.6142,1.071 101.6141,0.8106 103.3861,0.441 105.262,0.2399 107.1945,0.1305 108.9298,0.071 110.7858,0.0386 112.7075,-0.207 114.6649,-0.5686 116.4137,-0.7653 117.821,-0.8723 119.4987,-0.9305 121.3233,-0.9622 122.9999,-0.9794 124.5959,-0.9888 126.1482,-0.9939 127.6766,-1.2247 129.1921,-1.5782 130.7005,-1.7706 131.9771,-1.8752 133.1275,-1.9321 134.4374,-1.9631 135.8339,-2.2079 137.0497,-2.5691 138.167,-2.7656 139.4589,-2.8725 140.8456,-2.9306 142.056,-2.9623 143.1705,-2.9795 144.4607,-2.9888 145.8466,-2.9939 147.2846,-3.2247 148.7508,-3.5782 150.2324,-3.7706 151.7224,-3.8752 153.217,-3.9321 154.9421,-3.9631 156.7925,-3.9799 158.4831,-3.9891 160.0868,-3.7661 161.8712,-3.4167 163.7539,-3.2267 165.6901,-3.1233 167.6554,-3.0671 169.6366,-3.0365 171.6263,-3.0199 173.6207,-3.0108 175.8457,-3.0059 178.196,-3.0032 180.1586,-3.0017 182.1383,-3.2289 184.3552,-3.5805 186.4732,-3.7718 188.5374,-3.8759 190.3444,-3.9325 192.4673,-3.9633 194.9902,-3.98 197.2747,-3.9891 199.4294,-3.9941 201.5136,-3.9968 203.3314,-3.9982 205.0043,-3.999 207.0543,-3.9995 209.5376,-3.9997 211.8004,-3.9998 213.9434,-3.9999 216.2492,-4 218.4156,-4 220.5061,-4 222.5553,-4 224.8101,-4 227.1767,-4 229.3761,-4 231.2566,-3.772 232.9636,-3.42 235.0322,-3.2285 237.2975,-3.1243 239.4418,-3.0676 241.5204,-3.0368 243.5631,-3.02 245.5863,-3.0109 247.599,-3.0059 249.6058,-3.0032 251.3816,-3.0018 252.8036,-3.001 254.4891,-2.7725 256.3181,-2.4203 258.225,-2.2286 260.4024,-2.1244 262.2709,-2.0677 263.7434,-2.0368 265.4564,-2.02 267.3003,-2.0109 268.9874,-2.0059 270.5891,-2.0032 272.1445,-2.0018 273.6746,-2.001 275.191,-2.0005 276.9279,-2.0003 278.5568,-2.0002 280.1269,-2.0001 281.893,-1.772 283.7658,-1.42 285.6966,-1.2285 287.4309,-1.1243 289.0584,-1.0676 290.8558,-1.0368 292.7455,-1.02 294.6856,-0.7829 296.425,-0.4259 298.2832,-0.2317 300.434,-0.126 302.5161,-0.0686 304.5608,-0.0373 306.5851,0.2077 308.5983,0.569 310.3775,0.7655 312.0293,0.8724 313.84,0.9306 315.5089,0.9623 317.3289,0.9795 319.4589,0.9888 321.3016,0.9939 322.9881,0.9967 324.8175,0.9982 326.7247,0.999 328.9023,0.9995 331.2268,0.9997 333.4034,0.9998 335.2714,0.9999 336.9717,1 338.8086,1 340.7199,1 342.4436,1 344.2933,1 346.2116,1 347.7111,1 349.4388,1 351.7467,1.228 353.9142,1.58 355.7773,1.7715 357.4749,1.8757 359.0823,1.9324 360.6408,1.9632 362.1726,1.98 363.6899,2.2171 364.9713,2.5741 366.1244,2.7683 367.2077,2.874 368.253,2.9314 369.5056,2.9627 371.1211,2.9869 L372,3 " stroke-linecap="round" fill="none" stroke="#9398b0" stroke-width="4.5" stroke-dasharray="none" stroke-dashoffset="0"/></g></g><g transform="matrix(1, 0, 0, 1, 1638.5, 5483.5)" opacity="1"><g transform="scale(1)"><path d="M0,0 Q2.28,0.456 3.1282,0.58 T4.6657,0.9995 5.9582,1.4557 7.1172,1.7039 8.2038,1.8389 9.0229,2.1404 9.6964,2.5324 10.5189,2.7456 11.4223,2.8616 12.3697,3.1527 13.3411,3.5391 14.3256,3.7493 15.3171,3.8636 16.3125,3.9258 17.31,3.9596 18.3086,3.978 19.3079,3.9881 20.5355,3.9935 21.8873,3.9965 23.0787,3.9981 24.1828,3.999 25.4674,3.9994 26.8503,3.9997 28.2866,3.9998 29.7519,3.9999 31.233,4 32.9508,4 34.7972,4.228 36.7137,4.58 38.4402,4.7715 40.0635,4.8757 41.8585,4.9324 43.747,4.9632 45.6864,4.98 47.6534,4.9891 49.6354,4.9941 51.3977,4.9968 53.0403,4.9982 54.8459,4.771 56.7402,4.4194 58.6827,4.2282 60.6514,4.1241 62.6343,4.0675 64.6251,4.0367 66.62,4.02 68.3893,4.0109 70.2638,4.0059 72.1955,3.7752 73.9304,3.4217 75.7861,3.2294 77.7076,3.1248 79.665,3.0679 81.6417,2.8089 83.6291,2.4401 85.6222,2.2394 87.6185,2.1302 89.6165,2.0708 91.6154,1.8105 93.6148,1.4409 95.6144,1.2399 97.6142,1.1305 99.6142,1.071 101.6141,0.8106 103.3861,0.441 105.262,0.2399 107.1945,0.1305 108.9298,0.071 110.7858,0.0386 112.7075,-0.207 114.6649,-0.5686 116.4137,-0.7653 117.821,-0.8723 119.4987,-0.9305 121.3233,-0.9622 122.9999,-0.9794 124.5959,-0.9888 126.1482,-0.9939 127.6766,-1.2247 129.1921,-1.5782 130.7005,-1.7706 131.9771,-1.8752 133.1275,-1.9321 134.4374,-1.9631 135.8339,-2.2079 137.0497,-2.5691 138.167,-2.7656 139.4589,-2.8725 140.8456,-2.9306 142.056,-2.9623 143.1705,-2.9795 144.4607,-2.9888 145.8466,-2.9939 147.2846,-3.2247 148.7508,-3.5782 150.2324,-3.7706 151.7224,-3.8752 153.217,-3.9321 154.9421,-3.9631 156.7925,-3.9799 158.4831,-3.9891 160.0868,-3.7661 161.8712,-3.4167 163.7539,-3.2267 165.6901,-3.1233 167.6554,-3.0671 169.6366,-3.0365 171.6263,-3.0199 173.6207,-3.0108 175.8457,-3.0059 178.196,-3.0032 180.1586,-3.0017 182.1383,-3.2289 184.3552,-3.5805 186.4732,-3.7718 188.5374,-3.8759 190.3444,-3.9325 192.4673,-3.9633 194.9902,-3.98 197.2747,-3.9891 199.4294,-3.9941 201.5136,-3.9968 203.3314,-3.9982 205.0043,-3.999 207.0543,-3.9995 209.5376,-3.9997 211.8004,-3.9998 213.9434,-3.9999 216.2492,-4 218.4156,-4 220.5061,-4 222.5553,-4 224.8101,-4 227.1767,-4 229.3761,-4 231.2566,-3.772 232.9636,-3.42 235.0322,-3.2285 237.2975,-3.1243 239.4418,-3.0676 241.5204,-3.0368 243.5631,-3.02 245.5863,-3.0109 247.599,-3.0059 249.6058,-3.0032 251.3816,-3.0018 252.8036,-3.001 254.4891,-2.7725 256.3181,-2.4203 258.225,-2.2286 260.4024,-2.1244 262.2709,-2.0677 263.7434,-2.0368 265.4564,-2.02 267.3003,-2.0109 268.9874,-2.0059 270.5891,-2.0032 272.1445,-2.0018 273.6746,-2.001 275.191,-2.0005 276.9279,-2.0003 278.5568,-2.0002 280.1269,-2.0001 281.893,-1.772 283.7658,-1.42 285.6966,-1.2285 287.4309,-1.1243 289.0584,-1.0676 290.8558,-1.0368 292.7455,-1.02 294.6856,-0.7829 296.425,-0.4259 298.2832,-0.2317 300.434,-0.126 302.5161,-0.0686 304.5608,-0.0373 306.5851,0.2077 308.5983,0.569 310.3775,0.7655 312.0293,0.8724 313.84,0.9306 315.5089,0.9623 317.3289,0.9795 319.4589,0.9888 321.3016,0.9939 322.9881,0.9967 324.8175,0.9982 326.7247,0.999 328.9023,0.9995 331.2268,0.9997 333.4034,0.9998 335.2714,0.9999 336.9717,1 338.8086,1 340.7199,1 342.4436,1 344.2933,1 346.2116,1 347.7111,1 349.4388,1 351.7467,1.228 353.9142,1.58 355.7773,1.7715 357.4749,1.8757 359.0823,1.9324 360.6408,1.9632 362.1726,1.98 363.6899,2.2171 364.9713,2.5741 366.1244,2.7683 367.2077,2.874 368.253,2.9314 369.5056,2.9627 371.1211,2.9869 L372,3 " stroke-linecap="round" fill="none" stroke="#9398b0" stroke-width="4.5" stroke-dasharray="none" stroke-dashoffset="0"/></g></g><g transform="matrix(1, 0, 0, 1, 1198.5, 5933.5)" opacity="1"><g transform="scale(1)"><path d="M0,0 Q2.28,0.456 3.1282,0.58 T4.6657,0.9995 5.9582,1.4557 7.1172,1.7039 8.2038,1.8389 9.0229,2.1404 9.6964,2.5324 10.5189,2.7456 11.4223,2.8616 12.3697,3.1527 13.3411,3.5391 14.3256,3.7493 15.3171,3.8636 16.3125,3.9258 17.31,3.9596 18.3086,3.978 19.3079,3.9881 20.5355,3.9935 21.8873,3.9965 23.0787,3.9981 24.1828,3.999 25.4674,3.9994 26.8503,3.9997 28.2866,3.9998 29.7519,3.9999 31.233,4 32.9508,4 34.7972,4.228 36.7137,4.58 38.4402,4.7715 40.0635,4.8757 41.8585,4.9324 43.747,4.9632 45.6864,4.98 47.6534,4.9891 49.6354,4.9941 51.3977,4.9968 53.0403,4.9982 54.8459,4.771 56.7402,4.4194 58.6827,4.2282 60.6514,4.1241 62.6343,4.0675 64.6251,4.0367 66.62,4.02 68.3893,4.0109 70.2638,4.0059 72.1955,3.7752 73.9304,3.4217 75.7861,3.2294 77.7076,3.1248 79.665,3.0679 81.6417,2.8089 83.6291,2.4401 85.6222,2.2394 87.6185,2.1302 89.6165,2.0708 91.6154,1.8105 93.6148,1.4409 95.6144,1.2399 97.6142,1.1305 99.6142,1.071 101.6141,0.8106 103.3861,0.441 105.262,0.2399 107.1945,0.1305 108.9298,0.071 110.7858,0.0386 112.7075,-0.207 114.6649,-0.5686 116.4137,-0.7653 117.821,-0.8723 119.4987,-0.9305 121.3233,-0.9622 122.9999,-0.9794 124.5959,-0.9888 126.1482,-0.9939 127.6766,-1.2247 129.1921,-1.5782 130.7005,-1.7706 131.9771,-1.8752 133.1275,-1.9321 134.4374,-1.9631 135.8339,-2.2079 137.0497,-2.5691 138.167,-2.7656 139.4589,-2.8725 140.8456,-2.9306 142.056,-2.9623 143.1705,-2.9795 144.4607,-2.9888 145.8466,-2.9939 147.2846,-3.2247 148.7508,-3.5782 150.2324,-3.7706 151.7224,-3.8752 153.217,-3.9321 154.9421,-3.9631 156.7925,-3.9799 158.4831,-3.9891 160.0868,-3.7661 161.8712,-3.4167 163.7539,-3.2267 165.6901,-3.1233 167.6554,-3.0671 169.6366,-3.0365 171.6263,-3.0199 173.6207,-3.0108 175.8457,-3.0059 178.196,-3.0032 180.1586,-3.0017 182.1383,-3.2289 184.3552,-3.5805 186.4732,-3.7718 188.5374,-3.8759 190.3444,-3.9325 192.4673,-3.9633 194.9902,-3.98 197.2747,-3.9891 199.4294,-3.9941 201.5136,-3.9968 203.3314,-3.9982 205.0043,-3.999 207.0543,-3.9995 209.5376,-3.9997 211.8004,-3.9998 213.9434,-3.9999 216.2492,-4 218.4156,-4 220.5061,-4 222.5553,-4 224.8101,-4 227.1767,-4 229.3761,-4 231.2566,-3.772 232.9636,-3.42 235.0322,-3.2285 237.2975,-3.1243 239.4418,-3.0676 241.5204,-3.0368 243.5631,-3.02 245.5863,-3.0109 247.599,-3.0059 249.6058,-3.0032 251.3816,-3.0018 252.8036,-3.001 254.4891,-2.7725 256.3181,-2.4203 258.225,-2.2286 260.4024,-2.1244 262.2709,-2.0677 263.7434,-2.0368 265.4564,-2.02 267.3003,-2.0109 268.9874,-2.0059 270.5891,-2.0032 272.1445,-2.0018 273.6746,-2.001 275.191,-2.0005 276.9279,-2.0003 278.5568,-2.0002 280.1269,-2.0001 281.893,-1.772 283.7658,-1.42 285.6966,-1.2285 287.4309,-1.1243 289.0584,-1.0676 290.8558,-1.0368 292.7455,-1.02 294.6856,-0.7829 296.425,-0.4259 298.2832,-0.2317 300.434,-0.126 302.5161,-0.0686 304.5608,-0.0373 306.5851,0.2077 308.5983,0.569 310.3775,0.7655 312.0293,0.8724 313.84,0.9306 315.5089,0.9623 317.3289,0.9795 319.4589,0.9888 321.3016,0.9939 322.9881,0.9967 324.8175,0.9982 326.7247,0.999 328.9023,0.9995 331.2268,0.9997 333.4034,0.9998 335.2714,0.9999 336.9717,1 338.8086,1 340.7199,1 342.4436,1 344.2933,1 346.2116,1 347.7111,1 349.4388,1 351.7467,1.228 353.9142,1.58 355.7773,1.7715 357.4749,1.8757 359.0823,1.9324 360.6408,1.9632 362.1726,1.98 363.6899,2.2171 364.9713,2.5741 366.1244,2.7683 367.2077,2.874 368.253,2.9314 369.5056,2.9627 371.1211,2.9869 L372,3 " stroke-linecap="round" fill="none" stroke="#9398b0" stroke-width="4.5" stroke-dasharray="none" stroke-dashoffset="0"/></g></g><g transform="matrix(1, 0, 0, 1, 1638.5, 5933.5)" opacity="1"><g transform="scale(1)"><path d="M0,0 Q2.28,0.456 3.1282,0.58 T4.6657,0.9995 5.9582,1.4557 7.1172,1.7039 8.2038,1.8389 9.0229,2.1404 9.6964,2.5324 10.5189,2.7456 11.4223,2.8616 12.3697,3.1527 13.3411,3.5391 14.3256,3.7493 15.3171,3.8636 16.3125,3.9258 17.31,3.9596 18.3086,3.978 19.3079,3.9881 20.5355,3.9935 21.8873,3.9965 23.0787,3.9981 24.1828,3.999 25.4674,3.9994 26.8503,3.9997 28.2866,3.9998 29.7519,3.9999 31.233,4 32.9508,4 34.7972,4.228 36.7137,4.58 38.4402,4.7715 40.0635,4.8757 41.8585,4.9324 43.747,4.9632 45.6864,4.98 47.6534,4.9891 49.6354,4.9941 51.3977,4.9968 53.0403,4.9982 54.8459,4.771 56.7402,4.4194 58.6827,4.2282 60.6514,4.1241 62.6343,4.0675 64.6251,4.0367 66.62,4.02 68.3893,4.0109 70.2638,4.0059 72.1955,3.7752 73.9304,3.4217 75.7861,3.2294 77.7076,3.1248 79.665,3.0679 81.6417,2.8089 83.6291,2.4401 85.6222,2.2394 87.6185,2.1302 89.6165,2.0708 91.6154,1.8105 93.6148,1.4409 95.6144,1.2399 97.6142,1.1305 99.6142,1.071 101.6141,0.8106 103.3861,0.441 105.262,0.2399 107.1945,0.1305 108.9298,0.071 110.7858,0.0386 112.7075,-0.207 114.6649,-0.5686 116.4137,-0.7653 117.821,-0.8723 119.4987,-0.9305 121.3233,-0.9622 122.9999,-0.9794 124.5959,-0.9888 126.1482,-0.9939 127.6766,-1.2247 129.1921,-1.5782 130.7005,-1.7706 131.9771,-1.8752 133.1275,-1.9321 134.4374,-1.9631 135.8339,-2.2079 137.0497,-2.5691 138.167,-2.7656 139.4589,-2.8725 140.8456,-2.9306 142.056,-2.9623 143.1705,-2.9795 144.4607,-2.9888 145.8466,-2.9939 147.2846,-3.2247 148.7508,-3.5782 150.2324,-3.7706 151.7224,-3.8752 153.217,-3.9321 154.9421,-3.9631 156.7925,-3.9799 158.4831,-3.9891 160.0868,-3.7661 161.8712,-3.4167 163.7539,-3.2267 165.6901,-3.1233 167.6554,-3.0671 169.6366,-3.0365 171.6263,-3.0199 173.6207,-3.0108 175.8457,-3.0059 178.196,-3.0032 180.1586,-3.0017 182.1383,-3.2289 184.3552,-3.5805 186.4732,-3.7718 188.5374,-3.8759 190.3444,-3.9325 192.4673,-3.9633 194.9902,-3.98 197.2747,-3.9891 199.4294,-3.9941 201.5136,-3.9968 203.3314,-3.9982 205.0043,-3.999 207.0543,-3.9995 209.5376,-3.9997 211.8004,-3.9998 213.9434,-3.9999 216.2492,-4 218.4156,-4 220.5061,-4 222.5553,-4 224.8101,-4 227.1767,-4 229.3761,-4 231.2566,-3.772 232.9636,-3.42 235.0322,-3.2285 237.2975,-3.1243 239.4418,-3.0676 241.5204,-3.0368 243.5631,-3.02 245.5863,-3.0109 247.599,-3.0059 249.6058,-3.0032 251.3816,-3.0018 252.8036,-3.001 254.4891,-2.7725 256.3181,-2.4203 258.225,-2.2286 260.4024,-2.1244 262.2709,-2.0677 263.7434,-2.0368 265.4564,-2.02 267.3003,-2.0109 268.9874,-2.0059 270.5891,-2.0032 272.1445,-2.0018 273.6746,-2.001 275.191,-2.0005 276.9279,-2.0003 278.5568,-2.0002 280.1269,-2.0001 281.893,-1.772 283.7658,-1.42 285.6966,-1.2285 287.4309,-1.1243 289.0584,-1.0676 290.8558,-1.0368 292.7455,-1.02 294.6856,-0.7829 296.425,-0.4259 298.2832,-0.2317 300.434,-0.126 302.5161,-0.0686 304.5608,-0.0373 306.5851,0.2077 308.5983,0.569 310.3775,0.7655 312.0293,0.8724 313.84,0.9306 315.5089,0.9623 317.3289,0.9795 319.4589,0.9888 321.3016,0.9939 322.9881,0.9967 324.8175,0.9982 326.7247,0.999 328.9023,0.9995 331.2268,0.9997 333.4034,0.9998 335.2714,0.9999 336.9717,1 338.8086,1 340.7199,1 342.4436,1 344.2933,1 346.2116,1 347.7111,1 349.4388,1 351.7467,1.228 353.9142,1.58 355.7773,1.7715 357.4749,1.8757 359.0823,1.9324 360.6408,1.9632 362.1726,1.98 363.6899,2.2171 364.9713,2.5741 366.1244,2.7683 367.2077,2.874 368.253,2.9314 369.5056,2.9627 371.1211,2.9869 L372,3 " stroke-linecap="round" fill="none" stroke="#9398b0" stroke-width="4.5" stroke-dasharray="none" stroke-dashoffset="0"/></g></g><g transform="matrix(1, 0, 0, 1, 1325.8894, 5435.9814)" opacity="1"><g transform="scale(1)"><path d="M0,0 Q0.912,-1.824 1.1601,-2.5481 T1.5431,-3.8942 1.7514,-5.0824 1.8648,-6.1848 1.9264,-7.2406 1.96,-8.2709 1.9782,-9.2873 1.9882,-10.2963 1.9936,-11.3012 1.9965,-12.3039 1.9981,-13.5333 1.999,-14.8861 1.9994,-16.078 2.2277,-17.1825 2.5799,-18.2393 2.7714,-19.4982 2.8757,-20.867 2.9324,-22.0676 3.1912,-23.1768 3.56,-24.2362 3.7606,-25.4965 3.8698,-26.8661 3.9292,-28.0672 4.1895,-29.1765 4.5591,-30.236 4.7601,-31.4964 4.8695,-32.866 4.929,-34.2951 4.9614,-35.7565 5.207,-37.2356 5.5686,-38.7241 5.7653,-40.2179 5.8723,-41.7146 5.9305,-43.2127 6.1902,-44.7117 6.5595,-46.2112 6.7604,-47.7109 6.8696,-48.9827 7.1571,-50.3586 7.5415,-51.7911 7.9785,-53.2543 8.4443,-54.7344 8.6977,-56.2235 9.0636,-57.9456 9.4906,-59.5664 9.9509,-60.9041 10.4293,-62.3158 10.9175,-63.7678 11.4111,-65.0137 11.9077,-66.1474 12.4058,-67.2202 12.9047,-68.4878 13.4042,-69.8614 13.9039,-71.0646 14.6317,-72.1751 15.2556,-73.2353 15.8231,-74.268 16.3598,-75.2858 16.8797,-76.2955 17.3906,-77.3007 17.8965,-78.3036 18.3997,-79.3052 18.9014,-80.306 19.6304,-81.3065 20.2549,-82.3067 20.8227,-83.3069 21.5875,-84.3069 22.2316,-85.307 22.81,-86.079 23.5806,-86.727 24.2279,-87.5355 24.808,-88.4313 25.5795,-89.3746 26.2273,-90.3438 26.8076,-91.099 27.3514,-91.7379 27.8751,-92.5414 28.6161,-93.4345 29.4751,-94.3764 30.3985,-95.3448 31.3568,-96.3275 32.1061,-97.3182 32.7417,-98.3131 33.5435,-99.3103 34.4357,-100.3088 35.377,-101.308 36.3451,-102.0795 37.3277,-102.7273 38.3183,-103.5356 39.3131,-104.4314 40.3104,-105.3747 41.3088,-106.1158 42.308,-106.747 43.3076,-107.3184 44.0793,-107.8572 44.7271,-108.3783 45.5356,-108.6618 46.4313,-108.816 47.3747,-109.1279 48.3438,-109.5256 49.327,-109.7419 50.3179,-109.8596 51.3129,-110.1516 52.3102,-110.5385 53.5368,-110.7489 54.66,-111.0914 55.499,-111.5057 56.4115,-111.7311 57.3638,-111.8537 58.3379,-111.9204 59.3238,-112.1847 60.3162,-112.5565 61.312,-112.7587 62.3097,-112.8687 63.3085,-112.9286 64.3078,-113.1892 65.3075,-113.5589 66.3073,-113.76 67.3071,-113.8695 68.3071,-114.157 69.3071,-114.5414 70.307,-114.7505 71.307,-114.8643 72.307,-115.1542 73.307,-115.5399 74.307,-115.7497 75.307,-116.0918 76.307,-116.506 77.307,-116.7312 78.079,-117.0818 78.727,-117.5005 79.5355,-117.7283 80.4313,-117.8522 81.3746,-118.1476 82.3438,-118.5363 83.327,-118.7477 84.3179,-119.0908 85.3129,-119.5054 86.3102,-119.9589 87.5368,-120.4337 88.888,-120.6919 90.0791,-121.0604 91.411,-121.7169 92.8196,-122.302 94.0419,-122.6203 95.1628,-123.0214 96.2285,-123.4677 97.2643,-123.7104 98.0558,-124.0705 98.9424,-124.4943 99.8806,-124.9529 100.6191,-125.4304 101.4768,-125.6901 102.3994,-126.0594 103.3573,-126.7163 104.3343,-127.3017 105.3219,-127.8481 106.3151,-128.3734 107.3114,-128.8871 108.0814,-129.6226 108.7283,-130.2507 109.5362,-130.8204 110.4317,-131.5863 111.3748,-132.2309 112.1159,-132.8096 112.7471,-133.5804 113.5464,-134.2278 114.4372,-134.8079 115.3779,-135.5795 116.1176,-136.4552 116.748,-137.1597 117.5469,-137.7709 118.4375,-138.5593 119.15,-139.4443 119.7656,-140.1537 120.5565,-140.7676 121.4427,-141.5576 122.1528,-142.4433 122.7671,-143.3812 123.5573,-144.3474 124.4432,-145.101 125.1531,-145.7389 125.7673,-146.542 126.5574,-147.4348 127.2152,-148.3765 127.8011,-149.3448 128.3478,-150.3276 128.8732,-151.5462 129.615,-152.8931 130.4746,-154.0819 131.3982,-155.1845 132.3566,-156.2404 133.106,-157.2708 133.7417,-158.2873 134.5435,-159.5243 135.4356,-160.8812 136.377,-162.3034 137.1171,-163.761 137.7477,-165.238 138.5467,-166.7255 139.4374,-167.9907 140.15,-169.3629 140.7656,-170.7934 141.5565,-172.2556 142.4427,-173.7351 143.1528,-174.9959 143.7671,-176.3658 144.5573,-177.795 145.4432,-179.0285 146.3811,-180.3835 147.1193,-181.8046 147.7489,-183.0337 148.5474,-184.3863 149.4378,-186.0342 150.1502,-187.6146 150.7657,-189.1583 151.5565,-190.6821 152.2148,-192.1951 152.8008,-193.7021 153.5756,-195.206 154.2252,-196.708 154.5785,-197.9812 154.9987,-199.3578 155.6833,-200.7906 156.2837,-202.2541 156.8383,-203.7342 157.3681,-205.2234 157.8842,-206.7175 158.849,-208.2143 160.2421,-210.0185 L161,-211 " stroke-linecap="round" fill="none" stroke="#e599f7" stroke-width="4.5" stroke-dasharray="none" stroke-dashoffset="0"/></g></g><g transform="matrix(1, 0, 0, 1, 1530.3894, 5189.9814)" opacity="1"><g transform="scale(1)"><path d="M0,0 Q0.912,-1.824 1.1601,-2.5481 T1.5431,-3.8942 1.7514,-5.0824 1.6368,-6.1848 1.3464,-7.2406 1.1884,-8.2709 0.8745,-9.2873 0.4757,-10.2963 0.0308,-11.0732 -0.6672,-11.4958 -1.503,-11.7257 -2.4136,-11.8508 -3.365,-11.6908 -4.1106,-11.1478 -4.7441,-10.3964 -5.3168,-9.5316 -5.8563,-8.6052 -6.3779,-7.1892 -6.8896,-5.5069 -7.3959,-3.9078 -7.6714,-2.3538 -7.8212,-0.8245 -7.9027,0.6915 -7.9471,2.2002 -7.9712,3.9329 -7.7563,6.0155 -7.4115,8.0604 -6.9958,9.6289 -6.5417,11.1661 -6.2947,12.9144 -5.9323,14.5494 -5.5072,15.8949 -5.2759,17.3108 -5.1501,18.7651 -5.0817,20.0122 -5.0444,21.6026 -5.0242,23.3798 -5.0131,25.0306 -5.0072,26.6127 -5.2319,27.9293 -5.8101,29.1015 -6.3527,30.1952 -7.1039,31.0182 -8.4245,31.4659 -9.8269,31.7095 -11.0459,31.6139 -12.1649,31.106 -13.2297,30.3737 -14.265,29.2913 -15.2841,28.0185 -16.2946,26.87 -17.0722,25.5613 -17.6731,23.9024 L-18,23 " stroke-linecap="round" fill="none" stroke="#e599f7" stroke-width="4.5" stroke-dasharray="none" stroke-dashoffset="0"/></g></g><g transform="matrix(1, 0, 0, 1, 1529.3894, 5204.9814)" opacity="1"><g transform="scale(1)"><path d="M0,0 Q-2.28,0 -3.1282,0 T-4.6657,0 -5.9582,0 -7.3452,-0.228 -9.0646,-0.728 L-10,-1 " stroke-linecap="round" fill="none" stroke="#e599f7" stroke-width="4.5" stroke-dasharray="none" stroke-dashoffset="0"/></g></g><g transform="matrix(1, 0, 0, 1, 1841.6849, 5285.7016) scale(0.5739322590732945, 0.5739322590732945)" opacity="1"><g transform="scale(1.742365905019279)"><path d="M-0.57,0 Q-1.8787,-0.7843 -2.3669,-1.1299 T-3.1207,-1.7934 -3.5308,-2.5465 -3.7539,-3.3484 -3.8752,-4.0468 -3.9412,-4.6889 -3.9772,-5.2982 -3.9967,-5.8918 -4.0073,-6.4769 -3.8809,-7.0575 -3.4199,-7.6355 -2.777,-8.2098 -2.0328,-8.6522 -1.2358,-9.0251 -0.4101,-9.3602 0.4313,-9.4103 1.1512,-9.3053 1.675,-9.1182 2.09,-8.6243 2.4457,-7.9634 2.7691,-7.3417 3.075,-6.6113 3.1115,-5.8218 2.8714,-5.1302 2.4786,-4.4917 2.0027,-3.8822 1.4816,-3.4206 0.936,-3.0396 0.247,-2.7023 -0.6522,-2.7788 -1.7194,-3.207 L-2.3,-3.44 " stroke-linecap="round" fill="none" stroke="#f2f2f2" stroke-width="2.582695165829825" stroke-dasharray="none" stroke-dashoffset="0"/></g></g><g transform="matrix(1, 0, 0, 1, 1918.5918, 5363.7564) scale(0.5739322590732945, 0.5739322590732945)" opacity="1"><g transform="scale(1.742365905019279)"><path d="M0,0 Q-0.5244,-1.3087 -0.667,-1.7947 T-0.755,-2.6772 -0.6707,-3.4195 -0.4948,-4.0855 -0.1392,-4.71 0.3164,-5.1797 0.9587,-5.5651 1.7003,-5.9048 2.3637,-6.0896 3.1167,-6.0601 3.7885,-5.7842 4.2862,-5.3719 4.6892,-4.8854 5.0384,-4.3585 5.3583,-3.8097 5.5324,-3.119 5.6271,-2.3511 5.6786,-1.6712 5.7066,-1.0391 5.5919,-0.4353 5.1373,0.1554 4.4956,0.6089 3.7543,0.8557 2.8289,0.9899 1.6712,0.8007 0.2196,0.2821 L-0.57,0 " stroke-linecap="round" fill="none" stroke="#f2f2f2" stroke-width="2.582695165829825" stroke-dasharray="none" stroke-dashoffset="0"/></g></g><g transform="matrix(1, 0, 0, 1, 1319.0501, 5875.8496) scale(1.1051679860690733, 1.1051679860690733)" opacity="1"><g transform="scale(0.9048398185662788)"><path d="M0,0 Q0.5062,-2.5217 0.6438,-3.4584 T0.8564,-5.1577 0.972,-6.8391 1.2858,-8.7616 1.7072,-10.562 1.9365,-12.2962 2.3143,-13.9965 2.7729,-15.4254 3.0224,-16.9574 3.4089,-18.5477 3.87,-20.1698 4.3739,-21.807 4.9011,-23.4522 5.1879,-25.1042 5.5947,-26.5068 6.0668,-28.0244 6.5767,-29.607 7.1072,-31.2249 7.6465,-32.862 8.1908,-34.5095 8.4868,-36.4135 8.9009,-38.4571 9.3793,-40.5765 9.8903,-42.7373 10.4191,-44.9205 10.9599,-46.8628 11.5071,-48.6741 12.0556,-50.6672 12.6048,-52.7593 13.1567,-54.9051 13.7099,-56.8294 14.2617,-58.6331 14.8127,-60.6221 15.3655,-62.7119 15.9193,-64.6057 16.4714,-66.8968 17.2756,-69.6548 17.9662,-71.9098 18.5926,-74.1443 19.1842,-76.3676 19.7591,-78.5849 20.325,-80.7988 20.8836,-83.0109 21.4383,-85.4752 21.9931,-87.8235 22.7988,-90.1087 23.4879,-92.6105 24.1159,-95.2323 24.9613,-97.6685 25.6721,-100.0017 26.3118,-102.2786 27.1637,-104.525 28.131,-106.7549 29.1611,-108.9756 29.9723,-111.1915 30.6666,-113.6555 31.5505,-116.2545 32.5353,-118.6761 33.5748,-121.0012 34.6442,-123.023 35.7299,-124.8798 36.8243,-127.1485 37.9236,-129.6435 39.0255,-131.7577 40.1288,-133.6626 41.2329,-135.7066 42.3374,-137.8262 43.6952,-139.9871 45.1885,-141.9196 46.5047,-143.7278 47.7247,-145.4662 48.8922,-147.1665 50.2843,-148.8485 51.7962,-150.5204 53.1226,-152.1846 54.6012,-153.8446 56.1601,-155.7554 57.7629,-157.5519 59.8957,-159.2861 62.0636,-160.9842 63.7469,-162.4118 65.4196,-163.6946 67.0864,-164.8964 68.4971,-165.8009 70.0192,-166.5461 71.6042,-167.4553 72.9703,-168.2007 74.7212,-168.8593 76.6814,-169.4707 78.5025,-170.054 80.2501,-170.6222 81.7047,-170.9313 82.9999,-171.0994 84.7122,-171.1909 86.9023,-171.2406 89.1014,-171.2677 91.0547,-171.0316 92.6212,-170.6524 93.9773,-170.4461 95.2188,-170.0808 96.3981,-169.629 97.5458,-169.3832 98.674,-168.9987 99.7917,-168.5387 100.9036,-168.0354 102.0123,-167.5086 103.1193,-166.9711 104.2254,-166.428 105.331,-165.8794 106.4364,-165.0748 107.5415,-164.1333 108.6466,-163.3703 109.7517,-162.7021 110.8567,-162.0855 111.9617,-161.7501 112.8137,-161.3169 113.5302,-160.5773 114.4239,-159.9219 115.4139,-159.3145 116.2056,-158.4803 116.887,-157.5225 117.7616,-156.4977 118.7413,-155.4363 119.7781,-154.355 120.846,-153.2629 121.9308,-152.1649 122.774,-151.0637 123.4836,-149.9608 124.3734,-148.8569 125.3614,-147.7525 126.4027,-146.144 127.4731,-144.2612 128.5592,-142.733 129.4032,-141.3978 130.1131,-140.1676 131.0032,-138.7437 131.9935,-137.2121 133.0362,-135.8751 133.8541,-134.6438 134.5522,-133.2171 135.4358,-131.684 136.4204,-130.093 137.4599,-128.4728 138.2762,-127.0876 138.9733,-125.577 139.8565,-124.0006 140.8407,-122.6392 141.8801,-121.1416 142.9494,-119.3191 144.0349,-117.32 144.8763,-115.4777 145.5871,-113.9717 146.4776,-112.6485 147.2129,-111.4248 147.8659,-110.2553 148.4743,-108.8643 149.056,-107.3507 149.6233,-106.0234 150.1849,-104.5467 150.9944,-102.9864 151.6855,-101.6337 152.3145,-100.394 152.9098,-99.2134 153.4845,-98.0673 154.0479,-96.9399 154.6074,-95.5697 155.1649,-94.0696 155.719,-92.7497 156.5243,-91.5277 157.2155,-90.3591 157.8422,-89.2195 158.434,-87.8449 159.009,-86.3401 159.5749,-85.0177 159.8828,-83.5436 160.301,-81.9847 160.7794,-80.6328 161.2926,-79.1427 161.825,-77.5751 162.3653,-75.9654 162.9101,-74.335 163.4595,-72.9442 164.0115,-71.4306 164.3118,-69.8526 164.7282,-68.2372 165.2078,-66.6014 165.7195,-65.2077 166.2487,-63.6925 166.7897,-62.1136 167.337,-60.7508 167.6348,-59.5056 167.7968,-58.0735 168.1357,-56.2866 168.5708,-54.5577 168.8076,-53.1132 168.9364,-51.8235 169.2595,-50.6181 169.6884,-49.4584 169.9217,-48.3237 170.0486,-47.2025 170.3684,-46.0887 170.7932,-44.979 171.0243,-43.6183 171.15,-42.1234 171.2184,-40.8063 171.5087,-39.5859 171.9197,-38.1673 172.1433,-36.6387 172.2649,-35.0501 172.5819,-33.429 173.0051,-31.7901 173.2353,-30.1439 173.3606,-28.7445 173.4287,-27.4793 173.4658,-26.0364 173.4859,-24.4945 173.4969,-22.8987 173.756,-21.5267 174.15,-20.5296 174.3643,-19.4833 174.4809,-18.1571 174.5443,-16.681 174.5788,-15.3741 174.5976,-13.9062 174.6078,-12.353 174.6134,-11.0041 174.8672,-9.7665 175.2561,-8.5893 175.4676,-7.4451 175.5827,-6.0679 175.6716,-4.2882 L175.72,-3.32 " stroke-linecap="round" fill="none" stroke="#4dabf7" stroke-width="4.97325593731083" stroke-dasharray="none" stroke-dashoffset="0"/></g></g><g transform="matrix(1, 0, 0, 1, 1475.984, 5669.1832) scale(1.1051679860690733, 1.1051679860690733)" opacity="1"><g transform="scale(0.9048398185662788)"><path d="M0,0 Q1.0078,3.0233 1.2819,4.0987 T1.7051,6.0099 1.9353,7.5535 2.0606,9.1502 2.1287,10.7735 2.1658,12.4112 2.1859,14.0591 2.1969,15.7125 2.2029,17.6197 2.2061,19.665 2.2079,21.5323 2.2089,23.3028 2.2094,25.0229 2.2097,26.4626 2.2098,27.2457 2.2099,27.1679 2.463,26.6216 2.8538,25.8206 3.3172,24.6279 4.0732,23.2244 4.9883,21.957 5.99,20.7636 7.0388,19.8637 8.1132,19.3741 9.2016,19.1077 10.2975,18.9628 11.3976,19.1348 12.4999,19.7323 13.3527,20.8142 14.0674,22.1575 14.707,23.3921 15.0549,24.8207 15.2442,26.3525 15.3472,27.6897 15.6563,29.1741 16.0775,30.9894 16.4029,33.1077 L16.58,34.26 " stroke-linecap="round" fill="none" stroke="#4dabf7" stroke-width="4.97325593731083" stroke-dasharray="none" stroke-dashoffset="0"/></g></g><g transform="matrix(1, 0, 0, 1, 1337.838, 5802.9085) scale(1.1051679860690733, 1.1051679860690733)" opacity="1"><g transform="scale(0.9048398185662788)"><path d="M-1.11,0 Q-2.1178,-2.5217 -2.1388,-3.2076 T-1.6674,-4.5174 -0.654,-5.4807 0.4012,-5.754 1.4791,-5.3988 2.3185,-4.7017 2.7752,-3.8185 3.0236,-2.5812 2.9057,-1.4042 2.3377,-0.5108 1.5248,0.2283 0.0725,0.6304 -1.7253,0.8491 -3.2071,0.4619 -4.2664,-0.5057 -4.5895,-1.5359 -4.0083,-2.6003 -2.9375,-3.4301 -1.3472,-4.1346 0.528,-4.7709 2.0519,-4.864 3.3849,-4.4107 4.363,-3.4095 4.6421,-2.1078 4.5408,-0.8936 4.2349,0.2709 3.5646,1.1551 1.9392,1.6361 -0.7481,2.0078 L-2.21,2.21 " stroke-linecap="round" fill="none" stroke="#f2f2f2" stroke-width="4.97325593731083" stroke-dasharray="none" stroke-dashoffset="0"/></g></g><g transform="matrix(1, 0, 0, 1, 1484.8253, 5802.9085) scale(1.1051679860690733, 1.1051679860690733)" opacity="1"><g transform="scale(0.9048398185662788)"><path d="M0,0 Q0,-1.0078 0,-1.0311 T-0.2531,-0.814 -0.8946,-0.4428 -1.7475,-0.494 -2.4646,-1.0257 -2.8546,-1.8188 -3.0668,-3.0072 -2.9292,-4.1576 -2.3504,-4.7834 -1.5317,-5.1239 -0.5802,-5.3091 0.4413,-5.1567 1.7517,-4.57 2.9685,-3.7469 3.8834,-2.5422 4.6343,-1.1299 4.5388,0.1423 3.73,1.0852 2.533,1.5981 1.1249,1.8771 -0.145,2.0289 -1.5905,1.8607 -3.4231,1.3745 L-4.42,1.11 " stroke-linecap="round" fill="none" stroke="#f2f2f2" stroke-width="4.97325593731083" stroke-dasharray="none" stroke-dashoffset="0"/></g></g><g transform="matrix(1, 0, 0, 1, 1334.5225, 5926.6874) scale(1.1051679860690733, 1.1051679860690733)" opacity="1"><g transform="scale(0.9048398185662788)"><path d="M0,0 Q0,2.5217 0,3.7115 T0,5.7993 0,7.4389 0,8.3309 0,8.0592 0,6.9036 0,5.5203 0,4.0131 0,2.4362 0,1.0722 0,0.3302 0,0.6835 -0.2531,1.6327 -0.6438,2.906 -0.8564,4.6064 -0.972,6.79 -1.035,9.4895 -1.0836,12.6505 L-1.11,14.37 " stroke-linecap="round" fill="none" stroke="#f2f2f2" stroke-width="4.97325593731083" stroke-dasharray="none" stroke-dashoffset="0"/></g></g><g transform="matrix(1, 0, 0, 1, 1335.6276, 5969.7889) scale(1.1051679860690733, 1.1051679860690733)" opacity="1"><g transform="scale(0.9048398185662788)"><path d="M0,1.11 Q-2.0155,3.1255 -2.8168,3.9245 T-4.3048,5.4113 -5.869,6.9771 -7.4768,8.3327 -9.1085,9.5741 -10.7508,11.0041 -12.3989,12.5366 -14.3879,14.4365 L-15.47,15.47 " stroke-linecap="round" fill="none" stroke="#f2f2f2" stroke-width="4.97325593731083" stroke-dasharray="none" stroke-dashoffset="0"/></g></g><g transform="matrix(1, 0, 0, 1, 1322.3656, 5970.8941) scale(1.1051679860690733, 1.1051679860690733)" opacity="1"><g transform="scale(0.9048398185662788)"><path d="M0,0 Q1.5139,1.5139 2.1765,2.1765 T3.1995,3.4526 4.0091,4.6507 4.9535,6.0571 5.971,7.5792 7.0285,8.9111 8.6115,10.3903 10.9098,12.2489 L12.16,13.26 " stroke-linecap="round" fill="none" stroke="#f2f2f2" stroke-width="4.97325593731083" stroke-dasharray="none" stroke-dashoffset="0"/></g></g><g transform="matrix(1, 0, 0, 1, 1344.469, 5988.5768) scale(1.1051679860690733, 1.1051679860690733)" opacity="1"><g transform="scale(0.9048398185662788)"><path d="M0,0 Q0,3.5294 0,4.9933 T0,8.2036 L0,9.95 " stroke-linecap="round" fill="none" stroke="#f2f2f2" stroke-width="4.97325593731083" stroke-dasharray="none" stroke-dashoffset="0"/></g></g><g transform="matrix(1, 0, 0, 1, 1488.1408, 5925.5822) scale(1.1051679860690733, 1.1051679860690733)" opacity="1"><g transform="scale(0.9048398185662788)"><path d="M0,0 Q0,4.031 0,5.8844 T0,8.9969 0,10.437 -0.2531,10.4657 -0.6438,9.7267 -0.8564,8.5677 -0.972,7.4333 -1.035,6.0615 -1.0692,4.5583 -1.0878,3.9914 -1.0979,4.6907 -1.1034,6.0789 -1.1064,8.0949 -1.1081,10.4525 -1.1093,12.9897 L-1.11,14.37 " stroke-linecap="round" fill="none" stroke="#f2f2f2" stroke-width="4.97325593731083" stroke-dasharray="none" stroke-dashoffset="0"/></g></g><g transform="matrix(1, 0, 0, 1, 1488.1408, 5968.6837) scale(1.1051679860690733, 1.1051679860690733)" opacity="1"><g transform="scale(0.9048398185662788)"><path d="M0,0 Q-1.5139,2.5217 -2.1765,3.2076 T-3.7034,4.7705 -5.291,6.3754 -6.6586,7.7523 -7.9064,9.0053 -9.3421,9.9377 -11.1672,10.6581 L-12.16,11.05 " stroke-linecap="round" fill="none" stroke="#f2f2f2" stroke-width="4.97325593731083" stroke-dasharray="none" stroke-dashoffset="0"/></g></g><g transform="matrix(1, 0, 0, 1, 1474.8788, 5967.5786) scale(1.1051679860690733, 1.1051679860690733)" opacity="1"><g transform="scale(0.9048398185662788)"><path d="M0,0 Q1.5139,1.5139 2.1765,2.1765 T3.1995,3.4526 4.2599,4.6507 5.5938,5.8063 7.0763,6.9389 8.6375,8.0589 10.2415,9.172 12.1965,10.3883 L13.26,11.05 " stroke-linecap="round" fill="none" stroke="#f2f2f2" stroke-width="4.97325593731083" stroke-dasharray="none" stroke-dashoffset="0"/></g></g><g transform="matrix(1, 0, 0, 1, 1490.3511, 5987.4716) scale(1.1051679860690733, 1.1051679860690733)" opacity="1"><g transform="scale(0.9048398185662788)"><path d="M0,0 Q2.5217,0.5062 3.4584,0.6438 T4.9046,1.1072 5.6914,1.8632 5.8686,2.5275 5.4611,3.1397 4.9864,3.9766 4.4773,4.9357 3.6965,5.9614 2.7679,6.7724 1.7588,7.4644 0.7037,8.0917 -0.1233,8.686 -0.0671,9.2624 0.9735,9.5759 2.5474,9.9973 4.1583,10.4773 5.5385,10.7385 7.297,10.8805 9.7277,10.9903 L11.05,11.05 " stroke-linecap="round" fill="none" stroke="#f2f2f2" stroke-width="4.97325593731083" stroke-dasharray="none" stroke-dashoffset="0"/></g></g><g transform="matrix(1, 0, 0, 1, 1283.6847, 5804.0137) scale(1.1051679860690733, 1.1051679860690733)" opacity="1"><g transform="scale(0.9048398185662788)"><path d="M0,0 Q-2.5217,0.5062 -3.4584,0.6438 T-5.1577,0.8564 -6.586,0.972 -8.1177,1.2858 -10.0169,1.8844 L-11.05,2.21 " stroke-linecap="round" fill="none" stroke="#f2f2f2" stroke-width="4.97325593731083" stroke-dasharray="none" stroke-dashoffset="0"/></g></g><g transform="matrix(1, 0, 0, 1, 1168.7473, 5781.9103) scale(1.1051679860690733, 1.1051679860690733)" opacity="1"><g transform="scale(0.9048398185662788)"><path d="M0,1.11 Q0.5062,3.6271 0.6438,4.8157 T0.8564,6.9038 0.972,9.0476 1.035,11.2215 1.0692,13.1611 1.3386,14.9709 1.736,16.4593 1.9521,18.026 2.0697,19.6329 2.1337,20.254 2.4216,19.8372 3.0821,19.1066 3.6922,18.2053 4.2771,17.2111 5.0992,16.1663 6.0503,15.3472 7.0716,14.6485 8.3819,14.0154 9.5985,13.924 10.5135,14.1274 11.2643,14.7419 11.6727,15.8309 11.8949,16.9272 12.0158,18.2805 12.0816,19.7714 12.3681,21.0863 12.7748,22.5586 13.0891,24.4118 L13.26,25.42 " stroke-linecap="round" fill="none" stroke="#f2f2f2" stroke-width="4.97325593731083" stroke-dasharray="none" stroke-dashoffset="0"/></g></g><g transform="matrix(1, 0, 0, 1, 1193.061, 5779.7) scale(1.1051679860690733, 1.1051679860690733)" opacity="1"><g transform="scale(0.9048398185662788)"><path d="M0,0 Q0,2.5217 -0.2531,3.4584 T-0.6438,5.4085 -0.8564,7.2264 -1.2228,8.9722 -1.673,10.9297 -2.1709,13.0024 -2.6949,15.1376 -2.98,17.0539 -3.135,18.8511 -3.2194,20.8365 -3.2653,22.6735 -3.0371,24.4298 -2.4092,26.1399 -1.5637,27.321 -0.5976,28.2166 0.9358,28.9569 3.1924,29.5288 L4.42,29.84 " stroke-linecap="round" fill="none" stroke="#f2f2f2" stroke-width="4.97325593731083" stroke-dasharray="none" stroke-dashoffset="0"/></g></g><g transform="matrix(1, 0, 0, 1, 1208.5333, 5791.8569) scale(1.1051679860690733, 1.1051679860690733)" opacity="1"><g transform="scale(0.9048398185662788)"><path d="M0,0 Q-1.5139,3.0233 -2.1765,4.0987 T-3.4526,6.263 -4.6507,8.1951 -5.8063,10.0008 -7.0587,12.1117 L-7.74,13.26 " stroke-linecap="round" fill="none" stroke="#f2f2f2" stroke-width="4.97325593731083" stroke-dasharray="none" stroke-dashoffset="0"/></g></g><g transform="matrix(1, 0, 0, 1, 1198.5868, 5798.4879) scale(1.1051679860690733, 1.1051679860690733)" opacity="1"><g transform="scale(0.9048398185662788)"><path d="M0,0 Q2.0155,2.0155 2.8168,2.8168 T4.3048,4.054 5.6182,4.7271 6.8365,5.0932 8.254,5.5432 10.0649,6.2471 L11.05,6.63 " stroke-linecap="round" fill="none" stroke="#f2f2f2" stroke-width="4.97325593731083" stroke-dasharray="none" stroke-dashoffset="0"/></g></g><g transform="matrix(1, 0, 0, 1, 1214.0591, 5806.224) scale(1.1051679860690733, 1.1051679860690733)" opacity="1"><g transform="scale(0.9048398185662788)"><path d="M0,0 Q0.5062,3.0233 0.8081,4.8266 L1.11,6.63 " stroke-linecap="round" fill="none" stroke="#f2f2f2" stroke-width="4.97325593731083" stroke-dasharray="none" stroke-dashoffset="0"/></g></g><g transform="matrix(1, 0, 0, 1, 1215.1643, 5779.7) scale(1.1051679860690733, 1.1051679860690733)" opacity="1"><g transform="scale(0.9048398185662788)"><path d="M0,0 Q1.5139,0.5062 2.1765,0.8946 T3.1995,1.9983 4.0091,3.3557 4.7027,4.8511 5.3307,6.9231 6.1763,9.3088 6.8893,11.8675 7.2772,14.7711 7.4883,17.8623 7.6031,20.8047 7.6655,23.4132 7.6995,25.5868 7.4649,27.524 6.8334,28.5778 5.9892,28.6764 L5.53,28.73 " stroke-linecap="round" fill="none" stroke="#f2f2f2" stroke-width="4.97325593731083" stroke-dasharray="none" stroke-dashoffset="0"/></g></g><g transform="matrix(1, 0, 0, 1, 1163.2214, 5847.1153) scale(1.1051679860690733, 1.1051679860690733)" opacity="1"><g transform="scale(0.9048398185662788)"><path d="M0,0 Q3.0233,0 4.3495,-0.2531 T7.2579,-0.8081 L8.84,-1.11 " stroke-linecap="round" fill="none" stroke="#f2f2f2" stroke-width="4.97325593731083" stroke-dasharray="none" stroke-dashoffset="0"/></g></g><g transform="matrix(1, 0, 0, 1, 1166.5369, 5854.8514) scale(1.1051679860690733, 1.1051679860690733)" opacity="1"><g transform="scale(0.9048398185662788)"><path d="M1.11,0 L5.53,0 " stroke-linecap="round" fill="none" stroke="#f2f2f2" stroke-width="4.97325593731083" stroke-dasharray="none" stroke-dashoffset="0"/></g></g><g transform="matrix(1, 0, 0, 1, 1185.3248, 5834.9584) scale(1.1051679860690733, 1.1051679860690733)" opacity="1"><g transform="scale(0.9048398185662788)"><path d="M0,0 Q0,2.5217 0.2531,3.4584 T0.6438,5.4085 0.8564,7.7302 1.2228,10.5049 1.673,13.0221 2.1709,15.1484 2.6949,17.3128 2.98,19.245 3.135,20.2961 3.4702,20.6171 3.9033,20.2878 4.1389,19.3517 4.5202,18.3386 5.2315,17.2836 6.1223,16.2058 7.1108,15.1156 8.4032,14.2694 9.6101,14.0622 10.5198,14.9572 11.2677,16.4519 11.6746,18.2728 11.989,20.7515 L12.16,22.1 " stroke-linecap="round" fill="none" stroke="#f2f2f2" stroke-width="4.97325593731083" stroke-dasharray="none" stroke-dashoffset="0"/></g></g><g transform="matrix(1, 0, 0, 1, 1208.5333, 5830.5377) scale(1.1051679860690733, 1.1051679860690733)" opacity="1"><g transform="scale(0.9048398185662788)"><path d="M0,1.11 Q-1.5139,5.141 -2.1765,6.7414 T-3.1995,9.9669 -4.0091,13.2333 -4.7027,16.271 -5.3307,19.4352 -5.9232,22.6681 -5.9947,25.1816 -5.5297,27.0527 -4.7729,28.3237 -3.3534,29.2659 -1.0673,30.0293 1.7742,30.6191 L3.32,30.94 " stroke-linecap="round" fill="none" stroke="#f2f2f2" stroke-width="4.97325593731083" stroke-dasharray="none" stroke-dashoffset="0"/></g></g><g transform="matrix(1, 0, 0, 1, 1221.7953, 5841.5894) scale(1.1051679860690733, 1.1051679860690733)" opacity="1"><g transform="scale(0.9048398185662788)"><path d="M0,0 Q-1.5139,3.0233 -2.1765,4.3495 T-3.4526,6.901 -4.9038,9.8007 -6.7407,13.4725 L-7.74,15.47 " stroke-linecap="round" fill="none" stroke="#f2f2f2" stroke-width="4.97325593731083" stroke-dasharray="none" stroke-dashoffset="0"/></g></g><g transform="matrix(1, 0, 0, 1, 1212.954, 5844.9049) scale(1.1051679860690733, 1.1051679860690733)" opacity="1"><g transform="scale(0.9048398185662788)"><path d="M0,0 Q1.0078,2.0155 1.535,2.8168 T2.5997,4.5579 3.6829,6.0089 4.776,6.7983 5.8745,7.4785 7.229,8.0994 8.9913,8.579 L9.95,8.84 " stroke-linecap="round" fill="none" stroke="#f2f2f2" stroke-width="4.97325593731083" stroke-dasharray="none" stroke-dashoffset="0"/></g></g><g transform="matrix(1, 0, 0, 1, 1226.216, 5854.8514) scale(1.1051679860690733, 1.1051679860690733)" opacity="1"><g transform="scale(0.9048398185662788)"><path d="M0,0 Q2.5217,0.5062 3.2076,0.8946 T4.2666,1.7475 4.8427,2.7154 4.903,3.7458 4.432,4.8102 3.9249,5.8931 3.396,6.7353 2.6044,7.4442 1.6699,8.0807 1.1615,8.4269 1.3888,8.6153 2.0164,8.7178 3.1147,8.7735 4.4669,8.8038 5.9571,8.8203 7.7756,8.8293 9.8963,8.8362 L11.05,8.84 " stroke-linecap="round" fill="none" stroke="#f2f2f2" stroke-width="4.97325593731083" stroke-dasharray="none" stroke-dashoffset="0"/></g></g><g transform="matrix(1, 0, 0, 1, 1237.2677, 5832.7481) scale(1.1051679860690733, 1.1051679860690733)" opacity="1"><g transform="scale(0.9048398185662788)"><path d="M0,0 Q2.0155,2.0155 2.8168,2.8168 T4.3048,4.3048 5.6182,5.6182 6.8365,7.0896 7.7501,8.8978 8.5002,10.8893 9.1613,13.2312 9.5209,16.0168 9.7166,19.0438 9.5699,22.2022 8.9863,25.1811 8.1649,27.8095 7.465,29.9962 6.5804,31.6897 5.1812,33.3544 L4.42,34.26 " stroke-linecap="round" fill="none" stroke="#f2f2f2" stroke-width="4.97325593731083" stroke-dasharray="none" stroke-dashoffset="0"/></g></g><g transform="matrix(1, 0, 0, 1, 1759.4595, 5681.8926) scale(1.1051679860690733, 1.1051679860690733)" opacity="1"><g transform="scale(0.9048398185662788)"><path d="M0,0 Q1.0078,2.0155 1.2819,2.8168 T1.9582,4.3048 2.5792,5.6182 3.1678,6.8365 3.7388,8.0032 4.3025,8.8909 4.8622,9.6247 5.4175,10.7785 6.2235,11.9101 6.915,12.7787 7.542,13.5043 8.1339,14.1499 8.709,15.0049 9.5257,15.974 10.4738,17.005 11.4935,18.3228 12.5521,19.5436 13.3811,20.4585 14.0828,21.4601 14.9685,22.7619 15.9541,24.2248 16.7411,25.5245 17.4223,26.7354 18.046,27.898 18.6361,28.7836 19.2079,29.5161 19.772,30.1654 20.332,31.0248 20.8874,31.9984 21.4403,32.7789 21.9942,33.7074 22.5486,34.7163 23.101,35.7691 23.9054,36.8457 24.5961,37.9352 25.2226,39.0318 26.0673,40.1322 26.7799,41.2347 27.4183,42.0853 28.2695,42.8011 28.9857,43.6943 29.626,44.6842 30.2252,45.7265 30.8042,46.7974 31.6254,47.8839 32.3252,48.9788 32.9567,50.0783 33.8041,51.1803 34.7689,52.2837 35.5446,53.3878 36.2197,54.2415 37.0908,55.2098 38.0685,56.4913 39.1043,57.6922 40.1717,58.8495 41.2562,59.9829 42.35,61.1033 43.449,62.4675 44.5507,63.7135 45.4031,64.6444 46.1176,65.4039 46.7571,66.0702 47.3581,67.1896 48.1889,68.3024 48.8916,69.1586 49.2739,70.1282 49.735,70.9088 50.2389,71.8373 50.7638,72.8463 51.3001,73.646 51.845,74.8357 52.6453,75.9868 53.3314,76.866 53.7047,77.8482 54.1608,78.6334 54.6621,79.3136 55.1855,80.4405 55.9742,81.8083 56.9071,83.0562 57.6654,84.239 58.331,85.3863 59.1969,86.5143 59.9188,87.6318 60.5646,88.7436 61.169,89.8523 61.7486,90.7086 62.3147,91.4251 62.8757,92.0658 63.434,92.6673 63.9885,93.4985 64.794,94.4545 65.7384,95.7315 66.756,96.9301 67.5604,97.8352 68.251,98.8315 69.1307,99.8773 70.113,100.9501 70.9005,102.0376 71.5797,103.1331 72.2,104.2329 72.7905,105.3351 73.6156,106.4386 74.3153,107.5427 74.949,108.6473 75.7976,109.5012 76.5101,110.2166 77.1507,110.8566 77.7523,111.4578 78.0796,112.2887 78.5084,113.2446 79.2456,114.2685 79.8997,115.3294 80.5063,116.9143 81.3312,119.2107 L81.78,120.46 " stroke-linecap="round" fill="none" stroke="#40c057" stroke-width="4.97325593731083" stroke-dasharray="none" stroke-dashoffset="0"/></g></g><g transform="matrix(1, 0, 0, 1, 1840.1368, 5804.5663) scale(1.1051679860690733, 1.1051679860690733)" opacity="1"><g transform="scale(0.9048398185662788)"><path d="M 0 0 m -0.5, 0 a 0.5,0.5 0 1,0 1,0 a 0.5,0.5 0 1,0 -1,0" stroke-linecap="round" fill="#40c057" stroke="#40c057" stroke-width="4.97325593731083" stroke-dasharray="none" stroke-dashoffset="0"/></g></g><g transform="matrix(1, 0, 0, 1, 1840.1368, 5805.6715) scale(1.1051679860690733, 1.1051679860690733)" opacity="1"><g transform="scale(0.9048398185662788)"><path d="M0,0 Q3.0233,0.5062 3.8456,0.8946 T5.3684,1.4944 6.7006,2.0738 7.9293,2.6421 9.1015,3.202 10.2431,3.7574 11.1172,4.3126 11.8435,4.8678 12.7425,5.4205 13.7354,5.9721 14.7795,6.5252 15.8513,7.0791 17.4422,7.6313 19.3153,8.1825 21.089,8.7354 22.8109,9.54 24.2514,10.2286 25.539,10.6032 26.7433,11.06 27.9023,11.5616 29.0367,12.0853 30.1577,12.6209 31.2737,13.1654 32.3846,13.7147 33.4929,14.2643 34.5996,14.8141 35.7056,15.3663 36.8111,15.9197 37.9164,16.4716 39.0216,17.0226 40.3775,17.5755 42.1228,18.3801 43.8293,19.0686 45.2614,19.6962 46.5444,20.2908 47.7462,20.865 48.9039,21.4281 50.0376,21.9876 51.1582,22.545 52.2716,23.099 53.3813,23.6512 54.7418,24.2047 56.2367,24.7589 57.5538,25.3112 58.7741,25.8624 59.9419,26.4153 61.081,26.9692 62.2046,27.5213 63.3197,28.0725 64.4302,28.3723 65.5405,28.5354 66.3975,28.8772 67.1146,29.3163 68.0085,29.5551 68.7479,29.9358 69.654,30.3937 70.6508,30.8959 71.4439,31.4222 72.3792,31.9615 73.3919,32.508 74.4467,33.0561 75.5243,33.6051 76.3614,34.1568 77.0698,34.71 77.9591,35.2618 78.9468,35.8127 79.9879,36.1124 80.8051,36.5286 81.7535,37.008 82.7734,37.5196 83.5812,38.0488 84.5246,38.5897 85.7925,39.137 86.9861,39.6856 88.1393,40.2348 89.2705,40.7867 90.1389,41.3399 91.1153,41.6409 91.8972,42.0555 92.5756,42.5318 93.4486,42.7909 94.4273,43.1849 95.4637,43.6524 96.5313,44.1574 97.6183,44.683 98.7135,45.222 99.8131,45.7683 100.9152,46.3163 102.2694,47.1182 103.7631,48.0584 105.0795,48.8207 106.2995,49.2353 107.2163,49.714 107.9658,50.2274 108.8775,50.5068 109.6265,50.9095 110.5378,51.3794 112.0413,51.8881 113.3631,52.6687 114.5861,53.3442 116.2591,53.9647 118.2675,54.8036 L119.36,55.26 " stroke-linecap="round" fill="none" stroke="#40c057" stroke-width="4.97325593731083" stroke-dasharray="none" stroke-dashoffset="0"/></g></g><g transform="matrix(1, 0, 0, 1, 1993.7552, 5848.773) scale(1.1051679860690733, 1.1051679860690733)" opacity="1"><g transform="scale(0.9048398185662788)"><path d="M0,0 Q0.5062,2.5217 0.6438,3.4584 T0.8564,5.1577 0.719,6.8391 0.3911,9.0124 0.2128,11.7062 0.1157,14.4326 -0.1901,16.9234 -0.6096,19.2862 -0.8378,21.5793 -0.9619,23.5815 -1.0294,25.1745 -1.0662,26.0411 -1.0862,25.7556 -1.1016,24.8193 L-1.11,24.31 " stroke-linecap="round" fill="none" stroke="#40c057" stroke-width="4.97325593731083" stroke-dasharray="none" stroke-dashoffset="0"/></g></g><g transform="matrix(1, 0, 0, 1, 2007.0172, 5854.2988) scale(1.1051679860690733, 1.1051679860690733)" opacity="1"><g transform="scale(0.9048398185662788)"><path d="M0,0 Q-1.0078,2.0155 -1.535,2.8168 T-2.8528,4.3048 -4.0736,5.6182 -5.2416,6.8365 -6.3809,8.0032 -7.2514,8.8909 -7.9758,9.8778 -8.3699,11.1693 -8.5843,12.3757 -8.4501,13.2851 -7.8732,14.0306 -7.0555,14.9401 -6.1068,15.6879 -5.0868,16.3455 -4.0281,16.954 -2.9482,17.2851 -2.11,17.7182 -1.1478,18.207 0.3145,18.5846 L1.11,18.79 " stroke-linecap="round" fill="none" stroke="#40c057" stroke-width="4.97325593731083" stroke-dasharray="none" stroke-dashoffset="0"/></g></g><g transform="matrix(1, 0, 0, 1, 1936.2864, 5384.6025) scale(1.1051679860690733, 1.1051679860690733)" opacity="1"><g transform="scale(0.9048398185662788)"><path d="M0,0 Q-2.5217,-1.0078 -3.4584,-1.0311 T-5.4085,-0.814 -7.2264,0.0611 -8.7191,1.2941 -9.782,2.4687 -10.3602,3.8624 -10.6748,5.3775 -10.8459,7.2095 -10.6882,9.2138 -9.8477,10.8081 -8.3827,11.9262 -6.8288,12.5344 -4.9757,12.6145 -2.9599,12.4072 -1.3571,12.0414 0.0187,11.3385 1.271,10.4523 2.2054,9.4663 2.7136,8.1752 2.7371,6.7159 2.4967,6.1729 2.366,6.6344 2.5479,7.6424 3.1508,9.1986 3.9826,11.0529 4.939,13.0694 5.9632,15.1741 7.0242,17.3268 8.1053,19.7565 9.1973,22.3368 10.0421,24.7482 10.5017,26.817 10.7517,28.9524 10.6369,31.1219 10.0706,33.0567 9.2587,34.8663 8.0623,36.3545 6.6545,37.668 5.1317,38.6356 3.2955,38.909 1.0358,38.5537 -1.2012,37.8566 -3.1729,36.4697 -5.2532,34.4543 -7.5763,32.1782 L-8.84,30.94 " stroke-linecap="round" fill="none" stroke="#ffc034" stroke-width="4.97325593731083" stroke-dasharray="none" stroke-dashoffset="0"/></g></g><g transform="matrix(1, 0, 0, 1, 1760.5647, 5363.6043) scale(1.1051679860690733, 1.1051679860690733)" opacity="1"><g transform="scale(0.9048398185662788)"><path d="M0,0 Q1.5139,-2.0155 1.9257,-2.8168 T2.8123,-4.3048 3.7985,-5.6182 4.5881,-6.8365 5.2684,-7.7501 5.8893,-8.5002 6.4801,-9.4121 7.3054,-10.4121 8.0052,-11.4599 8.6389,-12.5338 9.4876,-13.6219 10.2,-14.7177 10.8407,-15.8177 11.6931,-16.92 12.6607,-18.0235 13.6909,-19.1277 14.7553,-20.2323 15.8381,-21.337 16.9311,-22.4419 18.0296,-23.7976 19.131,-25.039 19.9833,-25.9674 20.6977,-26.7256 21.5902,-27.3888 22.3288,-28.2535 22.9815,-29.2277 23.8403,-30.2616 24.8115,-31.3302 25.8436,-32.4154 26.909,-33.5096 27.9925,-34.6087 29.0857,-35.9614 30.1844,-37.2011 31.0351,-38.1285 31.751,-39.137 32.6443,-40.1894 33.6341,-41.2658 34.6765,-42.3553 35.7474,-43.4518 36.8339,-44.5522 38.1796,-45.6547 39.4155,-46.7584 40.5918,-47.8626 41.9886,-48.9672 43.2524,-50.072 44.4437,-50.9238 45.5957,-51.6403 46.7263,-52.5339 47.8452,-53.5239 48.9577,-54.5664 50.0668,-55.3843 51.1741,-56.0823 52.2803,-56.7151 53.386,-57.3101 54.2405,-58.1377 54.9562,-58.841 55.8494,-59.4744 56.8392,-60.3228 57.8815,-61.2883 58.9524,-62.3173 60.0389,-63.381 61.1338,-64.4636 62.2333,-65.3055 63.0845,-66.0167 63.7984,-66.9074 64.6906,-67.6427 65.6821,-68.2958 66.4746,-69.155 67.1565,-70.1263 68.0313,-70.9077 68.7603,-71.5837 69.4077,-72.2021 70.0107,-72.7917 70.5918,-73.6163 71.4118,-74.5687 72.3617,-75.34 73.3824,-76.2634 74.5272,-77.6925 L75.15,-78.47 " stroke-linecap="round" fill="none" stroke="#ffc034" stroke-width="4.97325593731083" stroke-dasharray="none" stroke-dashoffset="0"/></g></g><g transform="matrix(1, 0, 0, 1, 1841.242, 5444.2815) scale(1.1051679860690733, 1.1051679860690733)" opacity="1"><g transform="scale(0.9048398185662788)"><path d="M1.11,0 Q2.6194,-2.5217 3.283,-3.4584 T4.3076,-5.1577 5.1158,-6.586 6.0594,-7.6138 7.0765,-8.4261 8.1338,-9.3718 9.2128,-10.3901 10.3036,-11.448 11.4009,-12.2743 12.2487,-12.9768 12.9629,-13.6121 13.8553,-14.2085 14.8447,-15.0368 15.8868,-15.9913 16.9576,-16.7614 17.7932,-17.4333 18.4985,-18.3028 19.3861,-19.2796 20.3728,-20.3149 21.4135,-21.1289 22.2327,-21.8248 22.9292,-22.7073 23.8119,-23.6912 25.0491,-24.7303 26.226,-25.7995 27.117,-26.6342 27.8525,-27.3391 28.5057,-28.2264 29.365,-29.213 30.3363,-30.2536 31.3708,-31.3258 32.4375,-32.413 33.5216,-33.2552 34.3645,-33.9665 35.0738,-34.6065 35.9635,-35.4585 36.9514,-36.6767 37.9927,-37.8433 39.0631,-38.731 40.1492,-39.4647 40.9932,-40.3677 41.7031,-41.112 42.3401,-41.7677 42.9397,-42.6283 43.7697,-43.6004 44.7252,-44.633 45.7488,-45.6987 46.8096,-47.0331 47.8905,-48.516 48.9824,-49.5757 49.8295,-50.403 50.5411,-51.1039 51.179,-51.7382 51.7791,-52.5872 52.6094,-53.5529 53.565,-54.5821 54.5887,-55.6459 55.6495,-56.7285 56.7305,-57.8213 57.5693,-58.9197 58.2787,-60.0211 59.1685,-60.8733 59.9033,-61.5877 60.5562,-62.2272 61.1644,-62.8281 61.7461,-63.6589 62.5664,-64.6147 63.5165,-65.3878 64.2842,-66.0614 64.9549,-66.6809 65.5728,-67.2687 66.162,-67.8393 66.7357,-68.4028 67.2985,-69.2132 67.8555,-70.1579 68.4116,-70.925 69.218,-71.593 69.9075,-72.4603 70.5356,-73.436 71.3812,-74.2176 72.092,-74.8959 72.7318,-75.5179 73.5837,-76.1071 74.551,-77.1823 75.6579,-78.7287 L76.26,-79.57 " stroke-linecap="round" fill="none" stroke="#ffc034" stroke-width="4.97325593731083" stroke-dasharray="none" stroke-dashoffset="0"/></g></g><g transform="matrix(1, 0, 0, 1, 1840.1368, 5447.597) scale(1.1051679860690733, 1.1051679860690733)" opacity="1"><g transform="scale(0.9048398185662788)"><path d="M0,0 Q-1.5139,0.5062 -2.1765,0.3908 T-3.1995,-0.0405 -3.7561,-0.779 -4.0588,-1.9354 -4.2235,-3.3215 -4.0623,-4.3286 -3.7238,-5.1272 -3.2866,-5.8125 -2.2918,-6.4384 -0.7429,-7.0319 0.8567,-7.3548 2.2308,-7.2774 3.2291,-6.7314 4.0252,-6.1835 4.7114,-5.3816 5.0847,-4.1885 5.2877,-3.0355 5.1451,-1.6513 4.5637,-0.3921 3.4927,0.5436 1.9,1.3035 0.5274,1.4661 -0.47,1.0506 -1.2635,0.3185 -1.9482,-0.3329 -2.5737,-0.9381 -2.914,-2.0219 -3.0991,-3.3685 -3.1999,-4.605 -3.2546,-5.7815 -3.0314,-6.9254 -2.1529,-7.7984 -0.6673,-8.2734 1.1486,-8.281 2.6404,-7.7812 3.4519,-7.0055 4.1464,-6.3326 4.7773,-5.4628 5.1205,-4.2326 4.8034,-3.0595 4.127,-1.9174 3.2551,-1.0431 2.0239,-0.5674 0.8479,-0.8126 -0.4202,-1.7176 L-1.11,-2.21 " stroke-linecap="round" fill="none" stroke="#ffc034" stroke-width="4.97325593731083" stroke-dasharray="none" stroke-dashoffset="0"/></g></g></svg>