<svg xmlns="http://www.w3.org/2000/svg" width="100%" height="462.041748046875" viewBox="650.09054517 3985.63112132 1442.86706851 462.04173998" stroke-linecap="round" stroke-linejoin="round" style="background-color:transparent"><defs><style>@keyframes animate-svg-stroke-1 {
  0% {
    stroke-dashoffset: 1073.722097px;
    stroke-dasharray: 1073.722097px;
  }
  0% {
    stroke-dashoffset: 1073.722097px;
    stroke-dasharray: 1073.722097px;
  }
  3.0303030303% {
    stroke-dashoffset: 0;
    stroke-dasharray: 1073.722097px;
  }
  100% {
    stroke-dashoffset: 0;
    stroke-dasharray: 1073.722097px;
  }
}
.svg-elem-1 {
  -webkit-animation: animate-svg-stroke-1 14.5s ease-in-out both infinite;
  animation: animate-svg-stroke-1 14.5s ease-in-out both infinite;
}

@keyframes animate-svg-stroke-2 {
  0% {
    stroke-dashoffset: 17.200278px;
    stroke-dasharray: 17.200278px;
  }
  3.0303030303% {
    stroke-dashoffset: 17.200278px;
    stroke-dasharray: 17.200278px;
  }
  6.0606060606% {
    stroke-dashoffset: 0;
    stroke-dasharray: 17.200278px;
  }
  100% {
    stroke-dashoffset: 0;
    stroke-dasharray: 17.200278px;
  }
}
.svg-elem-2 {
  -webkit-animation: animate-svg-stroke-2 14.5s ease-in-out both infinite;
  animation: animate-svg-stroke-2 14.5s ease-in-out both infinite;
}

@keyframes animate-svg-stroke-3 {
  0% {
    stroke-dashoffset: 14.692697px;
    stroke-dasharray: 14.692697px;
  }
  6.0606060606% {
    stroke-dashoffset: 14.692697px;
    stroke-dasharray: 14.692697px;
  }
  9.0909090909% {
    stroke-dashoffset: 0;
    stroke-dasharray: 14.692697px;
  }
  100% {
    stroke-dashoffset: 0;
    stroke-dasharray: 14.692697px;
  }
}
.svg-elem-3 {
  -webkit-animation: animate-svg-stroke-3 14.5s ease-in-out both infinite;
  animation: animate-svg-stroke-3 14.5s ease-in-out both infinite;
}

@keyframes animate-svg-stroke-4 {
  0% {
    stroke-dashoffset: 15.789954px;
    stroke-dasharray: 15.789954px;
  }
  9.0909090909% {
    stroke-dashoffset: 15.789954px;
    stroke-dasharray: 15.789954px;
  }
  12.1212121212% {
    stroke-dashoffset: 0;
    stroke-dasharray: 15.789954px;
  }
  100% {
    stroke-dashoffset: 0;
    stroke-dasharray: 15.789954px;
  }
}
.svg-elem-4 {
  -webkit-animation: animate-svg-stroke-4 14.5s ease-in-out both infinite;
  animation: animate-svg-stroke-4 14.5s ease-in-out both infinite;
}

@keyframes animate-svg-stroke-5 {
  0% {
    stroke-dashoffset: 484.802614px;
    stroke-dasharray: 484.802614px;
  }
  12.1212121212% {
    stroke-dashoffset: 484.802614px;
    stroke-dasharray: 484.802614px;
  }
  15.1515151515% {
    stroke-dashoffset: 0;
    stroke-dasharray: 484.802614px;
  }
  100% {
    stroke-dashoffset: 0;
    stroke-dasharray: 484.802614px;
  }
}
.svg-elem-5 {
  -webkit-animation: animate-svg-stroke-5 14.5s ease-in-out both infinite;
  animation: animate-svg-stroke-5 14.5s ease-in-out both infinite;
}

@keyframes animate-svg-stroke-6 {
  0% {
    stroke-dashoffset: 88.171643px;
    stroke-dasharray: 88.171643px;
  }
  15.1515151515% {
    stroke-dashoffset: 88.171643px;
    stroke-dasharray: 88.171643px;
  }
  18.1818181818% {
    stroke-dashoffset: 0;
    stroke-dasharray: 88.171643px;
  }
  100% {
    stroke-dashoffset: 0;
    stroke-dasharray: 88.171643px;
  }
}
.svg-elem-6 {
  -webkit-animation: animate-svg-stroke-6 14.5s ease-in-out both infinite;
  animation: animate-svg-stroke-6 14.5s ease-in-out both infinite;
}

@keyframes animate-svg-stroke-7 {
  0% {
    stroke-dashoffset: 21.948606px;
    stroke-dasharray: 21.948606px;
  }
  18.1818181818% {
    stroke-dashoffset: 21.948606px;
    stroke-dasharray: 21.948606px;
  }
  21.2121212121% {
    stroke-dashoffset: 0;
    stroke-dasharray: 21.948606px;
  }
  100% {
    stroke-dashoffset: 0;
    stroke-dasharray: 21.948606px;
  }
}
.svg-elem-7 {
  -webkit-animation: animate-svg-stroke-7 14.5s ease-in-out both infinite;
  animation: animate-svg-stroke-7 14.5s ease-in-out both infinite;
}

@keyframes animate-svg-stroke-8 {
  0% {
    stroke-dashoffset: 22.551971px;
    stroke-dasharray: 22.551971px;
  }
  21.2121212121% {
    stroke-dashoffset: 22.551971px;
    stroke-dasharray: 22.551971px;
  }
  24.2424242424% {
    stroke-dashoffset: 0;
    stroke-dasharray: 22.551971px;
  }
  100% {
    stroke-dashoffset: 0;
    stroke-dasharray: 22.551971px;
  }
}
.svg-elem-8 {
  -webkit-animation: animate-svg-stroke-8 14.5s ease-in-out both infinite;
  animation: animate-svg-stroke-8 14.5s ease-in-out both infinite;
}

@keyframes animate-svg-stroke-9 {
  0% {
    stroke-dashoffset: 60.212415px;
    stroke-dasharray: 60.212415px;
  }
  24.2424242424% {
    stroke-dashoffset: 60.212415px;
    stroke-dasharray: 60.212415px;
  }
  27.2727272727% {
    stroke-dashoffset: 0;
    stroke-dasharray: 60.212415px;
  }
  100% {
    stroke-dashoffset: 0;
    stroke-dasharray: 60.212415px;
  }
}
.svg-elem-9 {
  -webkit-animation: animate-svg-stroke-9 14.5s ease-in-out both infinite;
  animation: animate-svg-stroke-9 14.5s ease-in-out both infinite;
}

@keyframes animate-svg-stroke-10 {
  0% {
    stroke-dashoffset: 10.648763px;
    stroke-dasharray: 10.648763px;
  }
  27.2727272727% {
    stroke-dashoffset: 10.648763px;
    stroke-dasharray: 10.648763px;
  }
  30.303030303% {
    stroke-dashoffset: 0;
    stroke-dasharray: 10.648763px;
  }
  100% {
    stroke-dashoffset: 0;
    stroke-dasharray: 10.648763px;
  }
}
.svg-elem-10 {
  -webkit-animation: animate-svg-stroke-10 14.5s ease-in-out both infinite;
  animation: animate-svg-stroke-10 14.5s ease-in-out both infinite;
}

@keyframes animate-svg-stroke-11 {
  0% {
    stroke-dashoffset: 30.879634px;
    stroke-dasharray: 30.879634px;
  }
  30.303030303% {
    stroke-dashoffset: 30.879634px;
    stroke-dasharray: 30.879634px;
  }
  33.3333333333% {
    stroke-dashoffset: 0;
    stroke-dasharray: 30.879634px;
  }
  100% {
    stroke-dashoffset: 0;
    stroke-dasharray: 30.879634px;
  }
}
.svg-elem-11 {
  -webkit-animation: animate-svg-stroke-11 14.5s ease-in-out both infinite;
  animation: animate-svg-stroke-11 14.5s ease-in-out both infinite;
}

@keyframes animate-svg-stroke-12 {
  0% {
    stroke-dashoffset: 15.753841px;
    stroke-dasharray: 15.753841px;
  }
  33.3333333333% {
    stroke-dashoffset: 15.753841px;
    stroke-dasharray: 15.753841px;
  }
  36.3636363636% {
    stroke-dashoffset: 0;
    stroke-dasharray: 15.753841px;
  }
  100% {
    stroke-dashoffset: 0;
    stroke-dasharray: 15.753841px;
  }
}
.svg-elem-12 {
  -webkit-animation: animate-svg-stroke-12 14.5s ease-in-out both infinite;
  animation: animate-svg-stroke-12 14.5s ease-in-out both infinite;
}

@keyframes animate-svg-stroke-13 {
  0% {
    stroke-dashoffset: 14.83182px;
    stroke-dasharray: 14.83182px;
  }
  36.3636363636% {
    stroke-dashoffset: 14.83182px;
    stroke-dasharray: 14.83182px;
  }
  39.3939393939% {
    stroke-dashoffset: 0;
    stroke-dasharray: 14.83182px;
  }
  100% {
    stroke-dashoffset: 0;
    stroke-dasharray: 14.83182px;
  }
}
.svg-elem-13 {
  -webkit-animation: animate-svg-stroke-13 14.5s ease-in-out both infinite;
  animation: animate-svg-stroke-13 14.5s ease-in-out both infinite;
}

@keyframes animate-svg-stroke-14 {
  0% {
    stroke-dashoffset: 36.190435px;
    stroke-dasharray: 36.190435px;
  }
  39.3939393939% {
    stroke-dashoffset: 36.190435px;
    stroke-dasharray: 36.190435px;
  }
  42.4242424242% {
    stroke-dashoffset: 0;
    stroke-dasharray: 36.190435px;
  }
  100% {
    stroke-dashoffset: 0;
    stroke-dasharray: 36.190435px;
  }
}
.svg-elem-14 {
  -webkit-animation: animate-svg-stroke-14 14.5s ease-in-out both infinite;
  animation: animate-svg-stroke-14 14.5s ease-in-out both infinite;
}

@keyframes animate-svg-stroke-15 {
  0% {
    stroke-dashoffset: 1181.936477px;
    stroke-dasharray: 1181.936477px;
  }
  42.4242424242% {
    stroke-dashoffset: 1181.936477px;
    stroke-dasharray: 1181.936477px;
  }
  45.4545454545% {
    stroke-dashoffset: 0;
    stroke-dasharray: 1181.936477px;
  }
  100% {
    stroke-dashoffset: 0;
    stroke-dasharray: 1181.936477px;
  }
}
.svg-elem-15 {
  -webkit-animation: animate-svg-stroke-15 14.5s ease-in-out both infinite;
  animation: animate-svg-stroke-15 14.5s ease-in-out both infinite;
}

@keyframes animate-svg-stroke-16 {
  0% {
    stroke-dashoffset: 30.325461px;
    stroke-dasharray: 30.325461px;
  }
  45.4545454545% {
    stroke-dashoffset: 30.325461px;
    stroke-dasharray: 30.325461px;
  }
  48.4848484848% {
    stroke-dashoffset: 0;
    stroke-dasharray: 30.325461px;
  }
  100% {
    stroke-dashoffset: 0;
    stroke-dasharray: 30.325461px;
  }
}
.svg-elem-16 {
  -webkit-animation: animate-svg-stroke-16 14.5s ease-in-out both infinite;
  animation: animate-svg-stroke-16 14.5s ease-in-out both infinite;
}

@keyframes animate-svg-stroke-17 {
  0% {
    stroke-dashoffset: 683.308615px;
    stroke-dasharray: 683.308615px;
  }
  48.4848484848% {
    stroke-dashoffset: 683.308615px;
    stroke-dasharray: 683.308615px;
  }
  51.5151515152% {
    stroke-dashoffset: 0;
    stroke-dasharray: 683.308615px;
  }
  100% {
    stroke-dashoffset: 0;
    stroke-dasharray: 683.308615px;
  }
}
.svg-elem-17 {
  -webkit-animation: animate-svg-stroke-17 14.5s ease-in-out both infinite;
  animation: animate-svg-stroke-17 14.5s ease-in-out both infinite;
}

@keyframes animate-svg-stroke-18 {
  0% {
    stroke-dashoffset: 15.845587px;
    stroke-dasharray: 15.845587px;
  }
  51.5151515152% {
    stroke-dashoffset: 15.845587px;
    stroke-dasharray: 15.845587px;
  }
  54.5454545455% {
    stroke-dashoffset: 0;
    stroke-dasharray: 15.845587px;
  }
  100% {
    stroke-dashoffset: 0;
    stroke-dasharray: 15.845587px;
  }
}
.svg-elem-18 {
  -webkit-animation: animate-svg-stroke-18 14.5s ease-in-out both infinite;
  animation: animate-svg-stroke-18 14.5s ease-in-out both infinite;
}

@keyframes animate-svg-stroke-19 {
  0% {
    stroke-dashoffset: 94.585402px;
    stroke-dasharray: 94.585402px;
  }
  54.5454545455% {
    stroke-dashoffset: 94.585402px;
    stroke-dasharray: 94.585402px;
  }
  57.5757575758% {
    stroke-dashoffset: 0;
    stroke-dasharray: 94.585402px;
  }
  100% {
    stroke-dashoffset: 0;
    stroke-dasharray: 94.585402px;
  }
}
.svg-elem-19 {
  -webkit-animation: animate-svg-stroke-19 14.5s ease-in-out both infinite;
  animation: animate-svg-stroke-19 14.5s ease-in-out both infinite;
}

@keyframes animate-svg-stroke-20 {
  0% {
    stroke-dashoffset: 43.103451px;
    stroke-dasharray: 43.103451px;
  }
  57.5757575758% {
    stroke-dashoffset: 43.103451px;
    stroke-dasharray: 43.103451px;
  }
  60.6060606061% {
    stroke-dashoffset: 0;
    stroke-dasharray: 43.103451px;
  }
  100% {
    stroke-dashoffset: 0;
    stroke-dasharray: 43.103451px;
  }
}
.svg-elem-20 {
  -webkit-animation: animate-svg-stroke-20 14.5s ease-in-out both infinite;
  animation: animate-svg-stroke-20 14.5s ease-in-out both infinite;
}

@keyframes animate-svg-stroke-21 {
  0% {
    stroke-dashoffset: 74.14421px;
    stroke-dasharray: 74.14421px;
  }
  60.6060606061% {
    stroke-dashoffset: 74.14421px;
    stroke-dasharray: 74.14421px;
  }
  63.6363636364% {
    stroke-dashoffset: 0;
    stroke-dasharray: 74.14421px;
  }
  100% {
    stroke-dashoffset: 0;
    stroke-dasharray: 74.14421px;
  }
}
.svg-elem-21 {
  -webkit-animation: animate-svg-stroke-21 14.5s ease-in-out both infinite;
  animation: animate-svg-stroke-21 14.5s ease-in-out both infinite;
}

@keyframes animate-svg-stroke-22 {
  0% {
    stroke-dashoffset: 12.824675px;
    stroke-dasharray: 12.824675px;
  }
  63.6363636364% {
    stroke-dashoffset: 12.824675px;
    stroke-dasharray: 12.824675px;
  }
  66.6666666667% {
    stroke-dashoffset: 0;
    stroke-dasharray: 12.824675px;
  }
  100% {
    stroke-dashoffset: 0;
    stroke-dasharray: 12.824675px;
  }
}
.svg-elem-22 {
  -webkit-animation: animate-svg-stroke-22 14.5s ease-in-out both infinite;
  animation: animate-svg-stroke-22 14.5s ease-in-out both infinite;
}

@keyframes animate-svg-stroke-23 {
  0% {
    stroke-dashoffset: 37.789147px;
    stroke-dasharray: 37.789147px;
  }
  66.6666666667% {
    stroke-dashoffset: 37.789147px;
    stroke-dasharray: 37.789147px;
  }
  69.696969697% {
    stroke-dashoffset: 0;
    stroke-dasharray: 37.789147px;
  }
  100% {
    stroke-dashoffset: 0;
    stroke-dasharray: 37.789147px;
  }
}
.svg-elem-23 {
  -webkit-animation: animate-svg-stroke-23 14.5s ease-in-out both infinite;
  animation: animate-svg-stroke-23 14.5s ease-in-out both infinite;
}

@keyframes animate-svg-stroke-24 {
  0% {
    stroke-dashoffset: 20.063669px;
    stroke-dasharray: 20.063669px;
  }
  69.696969697% {
    stroke-dashoffset: 20.063669px;
    stroke-dasharray: 20.063669px;
  }
  72.7272727273% {
    stroke-dashoffset: 0;
    stroke-dasharray: 20.063669px;
  }
  100% {
    stroke-dashoffset: 0;
    stroke-dasharray: 20.063669px;
  }
}
.svg-elem-24 {
  -webkit-animation: animate-svg-stroke-24 14.5s ease-in-out both infinite;
  animation: animate-svg-stroke-24 14.5s ease-in-out both infinite;
}

@keyframes animate-svg-stroke-25 {
  0% {
    stroke-dashoffset: 21.748915px;
    stroke-dasharray: 21.748915px;
  }
  72.7272727273% {
    stroke-dashoffset: 21.748915px;
    stroke-dasharray: 21.748915px;
  }
  75.7575757576% {
    stroke-dashoffset: 0;
    stroke-dasharray: 21.748915px;
  }
  100% {
    stroke-dashoffset: 0;
    stroke-dasharray: 21.748915px;
  }
}
.svg-elem-25 {
  -webkit-animation: animate-svg-stroke-25 14.5s ease-in-out both infinite;
  animation: animate-svg-stroke-25 14.5s ease-in-out both infinite;
}

@keyframes animate-svg-stroke-26 {
  0% {
    stroke-dashoffset: 47.533024px;
    stroke-dasharray: 47.533024px;
  }
  75.7575757576% {
    stroke-dashoffset: 47.533024px;
    stroke-dasharray: 47.533024px;
  }
  78.7878787879% {
    stroke-dashoffset: 0;
    stroke-dasharray: 47.533024px;
  }
  100% {
    stroke-dashoffset: 0;
    stroke-dasharray: 47.533024px;
  }
}
.svg-elem-26 {
  -webkit-animation: animate-svg-stroke-26 14.5s ease-in-out both infinite;
  animation: animate-svg-stroke-26 14.5s ease-in-out both infinite;
}

@keyframes animate-svg-stroke-27 {
  0% {
    stroke-dashoffset: 52.757077px;
    stroke-dasharray: 52.757077px;
  }
  78.7878787879% {
    stroke-dashoffset: 52.757077px;
    stroke-dasharray: 52.757077px;
  }
  81.8181818182% {
    stroke-dashoffset: 0;
    stroke-dasharray: 52.757077px;
  }
  100% {
    stroke-dashoffset: 0;
    stroke-dasharray: 52.757077px;
  }
}
.svg-elem-27 {
  -webkit-animation: animate-svg-stroke-27 14.5s ease-in-out both infinite;
  animation: animate-svg-stroke-27 14.5s ease-in-out both infinite;
}

@keyframes animate-svg-stroke-28 {
  0% {
    stroke-dashoffset: 108.733797px;
    stroke-dasharray: 108.733797px;
  }
  81.8181818182% {
    stroke-dashoffset: 108.733797px;
    stroke-dasharray: 108.733797px;
  }
  84.8484848485% {
    stroke-dashoffset: 0;
    stroke-dasharray: 108.733797px;
  }
  100% {
    stroke-dashoffset: 0;
    stroke-dasharray: 108.733797px;
  }
}
.svg-elem-28 {
  -webkit-animation: animate-svg-stroke-28 14.5s ease-in-out both infinite;
  animation: animate-svg-stroke-28 14.5s ease-in-out both infinite;
}

@keyframes animate-svg-stroke-29 {
  0% {
    stroke-dashoffset: 1345.866182px;
    stroke-dasharray: 1345.866182px;
  }
  84.8484848485% {
    stroke-dashoffset: 1345.866182px;
    stroke-dasharray: 1345.866182px;
  }
  87.8787878788% {
    stroke-dashoffset: 0;
    stroke-dasharray: 1345.866182px;
  }
  100% {
    stroke-dashoffset: 0;
    stroke-dasharray: 1345.866182px;
  }
}
.svg-elem-29 {
  -webkit-animation: animate-svg-stroke-29 14.5s ease-in-out both infinite;
  animation: animate-svg-stroke-29 14.5s ease-in-out both infinite;
}

/*# sourceMappingURL=styles.css.map */
</style></defs>
  <path d="M812.3333 4062.746q-4.5372-5.8961-6.6788-7.9535t-3.986-3.4025-3.5272-2.3046-3.28-1.9354-3.3735-1.7324-3.1963-1.1681-2.872-.8634-4.2824-.9235-5.2776-.728-4.2323-.6241-3.4354-.5675-3.2301-.3087-3.1183-.1679-3.0552-.0914-3.0233.1783-3.0057.325-2.9964.4025-2.9911.4447-2.7604.4699-2.6347.4836-2.7945.2631-2.6557.3689-2.5778.4263-2.5355.46-2.5125.7039-2.2742.8367-1.9189.9088-1.9513.9459-1.969.9683-1.9785 1.2084-1.9838 1.3369-1.9866 1.1809-1.9859 1.3242-1.9855 1.3998-1.7618 1.4409-1.6401 1.6913-1.5717 1.6018-1.3087 1.5508-1.3937 1.7488-1.4376 1.8588-1.2357 2.1466-1.126 2.3032-1.292 2.1604-1.3823 2.3084-1.2056 2.3889-1.3377 2.2071-1.4071 2.3337-1.2191 2.4028-.8913 2.4425-.7105 2.6899-.8403 2.5965-.9108 2.7736-.7212 3.0957-.6203 3.0453-.7912 2.7898-.6562 2.6507-.5849 2.8032-.5462 2.8861-.5228 2.9312-.5102 2.7278-.2775 2.3913-.151 2.2083-.0821 2.1088.181 2.0546.3242 1.7971.4044 1.6571.6737 1.8089 1.0459 1.8915 1.2507 1.7084 1.1341 1.6088 1.2964 1.7826 1.387 1.6515 1.4362 1.3521 1.6888 1.415 1.8238 1.4515 1.8973 1.4713 1.9396 1.7079 1.9626 1.6085 2.2031 1.5544 2.3339 1.7531 2.4028 1.8611 2.4403 1.9199 2.4607 1.9519 2.6997 1.7412 2.8299 1.6267 2.8983 1.7924 2.7098 1.8824 2.6096 1.9315 2.7808 1.9582 2.8739 2.1984 2.9245 2.3291 3.1779 2.4002 3.0899 2.4389 2.8141 2.4622 3.1177 2.4748 3.0572 2.4795 2.7963 2.482 2.8823 2.4834 2.7035 2.7121 2.6038 2.6108 2.5496 2.5535 2.2945 2.7502 2.1556 2.8573 2.0801 3.1412 1.811 3.2958 1.4389 3.154 1.2365 3.0769 1.1264 3.0328 1.0664 3.011.8059 3.2271.4384 3.3424.4665 3.1772.4818 3.0895.262 3.0419-.0854 3.0159-.5002 3.0019-.7258 2.9918-.8486 3.2145-.9153 3.3378-.9517 3.177-1.1971 3.3151-1.5587 3.3903-1.7554 3.4312-1.6343 3.4558-1.5686 3.469-1.7607 3.6998-1.8653 3.5996-1.9221 3.5473-1.9531 3.5166-1.9699 3.5-1.9791 3.4908-1.9841 3.2602-1.7587 3.1347-1.6362 3.2921-1.7976 3.3778-1.6595 3.4244-1.3566 3.6778-1.4174 3.5876-1.4528 3.5385-1.0183 3.7398-.7797 3.8494-.8755 3.9089-.7021 3.9414-.6099 3.9589-.5598 3.9686-.3045 3.7458.0623 3.6245.2619 3.5587.3682 3.5228.6518 3.5033.8083 3.4926 1.1214 3.4892 1.2895 3.4873 1.3809 3.4839 1.6586 3.2542 1.8098 3.1314 1.8919 3.0646 2.1624 3.0284 2.5375 3.0085 2.7416 2.9956 2.8525 2.7627 3.141 2.4104 3.2956 2.2187 3.3796 1.8886 3.4254 1.7092 3.4503 1.8349 3.6919 1.6777 3.5952 1.3664 3.5427 1.197 3.7421 1.1049 3.8506.8268 3.9096.4497 3.9417.2447 4.1849-.0926 4.5429-.5041 4.7399-.728 4.6192-.8497 4.3254-.916 4.3959-.9497 4.4342-1.1961 4.2248-1.3324 4.111-1.4065 4.0512-1.6726 3.7907-1.8174 3.4233-1.896 3.2235-1.9389 3.3404-2.1879 3.6321-2.5492 3.5627-2.7478 3.525-3.084 3.7325-3.4903 3.8454-3.7114 3.6787-3.6081 3.3624-3.324 3.1903-3.3951 2.8687-3.4338 2.468-3.4549 2.4758-3.6943 2.4799-3.8246 2.2566-3.8955 2.135-4.1597 2.0689-4.5292 1.8072-4.7325 1.6648-5.0711 1.5851-5.025 1.316-4.7742.9439-4.8657.5135-4.6876.5051-4.3649.5004-4.4151.2723-4.4425.1481-4.4572-.1451-4.6934-.3047-4.8218-.3938-4.8894-.6679-4.9284-.8171-4.9496-.8982-4.959-.9423-4.9662-.9664-4.9703-1.2051-4.9701-1.3373-4.9724-1.1812-4.9735-1.0963-4.972-1.0501-4.9733-1.025-4.9741-1.0113-4.9722-.7759-4.9735-.6478-4.7462-.5781-4.6225-.5425-4.5575-.5231-4.2942-.2846-4.1487-.1548-4.0694-.0842-4.0287.1822-4.2322.3271-4.3429.4036-4.1774.6711-4.0874.8187-4.0384.8992-4.0118.9428-3.7693 1.1946-3.6374 1.3293-3.7936 1.1769-3.6506 1.094-3.5728 1.0488-3.7585 1.0243-3.6315.7829-3.3367.4259-3.1763.4597-3.3148.4781-3.3901.26-3.2054.1415-3.1049.077-3.0502-.1861-2.7948-.3293-2.6535-.1791-2.8024-.3232-2.6577-.6295-2.5812-.7962-2.5396-.8868-2.5147-.9362-2.5012-.963-2.268-.9776-2.1413-.9855-1.8443-.7641-1.457-.6414-1.2463-.8027-1.3575-.8903-1.1922-.9358-.8765-.9628-.9306-.9775-.9599-.9855-.9759-.9898-.9824-.9921-.9881-.9935-.7655-.9942-.8702-1.2225-.9271-1.3445-.7301-1.4109-.8508-1.6749-.9166-1.8186-.7244-1.8968-.622-1.9393-.7921-1.9624-.6567-1.975-.5852-1.7538-.5463-1.4078-.5229-1.6733-.5102-1.8154-.5056-1.6671-.503-1.8143-.4994-2.1224-.7253-2.062-.6226-2.0292-.3387-2.2393-.41-2.1234-.4488-2.0602-.2441-2.0283-.1328-2.0108.1535-1.7756.3092-1.6476.1682-1.8037.3195-1.6607.4018-1.3549.4444-1.4165.4674-1.4522.2543-1.4718.3663-1.7081.4273-1.8366.2324-1.9066.1264-1.9446.0688-1.7373.0375-1.6246.0203-1.7911.0111-1.6539-.222-1.3534-.3487-1.19-.4155-1.3268-.4517-1.6292-.4737-1.7937-.7115-1.4295-.8384-1.0057-.6819-1.2265-.5989-1.5724-.7795-1.5371-.8778-1.2899-.7055-1.1554-.6096-1.0823-.7853-1.2682-.8809-1.6243-1.0012l-.8836-.5447" fill="none" stroke="#f76707" stroke-width="4.5" class="svg-elem-1"></path>
  <path d="M818.3013 4150.2758q.9074-2.2663 1.608-2.8828t1.3073-.726.937.0587.5097.7137.0515 1.0677-.1977 1.0322-.3355 1.0153-.8643.7803-1.3753.4245-1.6533.0029-1.9219-.3216l-1.0455-.1749" fill="none" stroke="#4dabf7" stroke-width="4.5" class="svg-elem-2"></path>
  <path d="M823.2746 4118.4468q-1.3589 2.2663-1.9565 3.3365t-1.1484 2.334-1.0785 2.1772-1.0404 1.8638-1.1245 2.0845l-.6117 1.134" fill="none" stroke="#4dabf7" stroke-width="4.5" class="svg-elem-3"></path>
  <path d="M813.328 4118.4468q1.3589 1.8149 1.7285 2.5342t1.0244 2.0182 1.4647 2.459 1.9323 2.0195 2.4612 1.8841l1.3389 1.025" fill="none" stroke="#4dabf7" stroke-width="4.5" class="svg-elem-4"></path>
  <path d="M820.4245 4152.3922q2.1751-1.4501 3.1293-2.207t1.838-1.1687 1.7272-.9983 1.6646-.9056 1.6306-.8575 1.9746-1.1938 2.1618-1.0119 2.2658-.913 2.3225-1.2217 1.9884-1.0271 2.1693-.9213 2.6302-1.2262 2.5183-1.0296 2.4599-.5601 2.428-.6672 2.0458-.7255 2.2005-.3947 2.2847-.2147 1.9678-.1168 2.1604-.0635 2.6276-.3971 2.8795-.5785 3.0165-.6795 2.7286-.7345 2.2094-.3995 2.2917-.5799 2.3365-.678 1.9962-.7313 2.1734-.7604 2.2699-.4136 1.9599-.5876 2.156-.6821 2.2627-.7336 2.3185-.7616 2.7113-.4143 2.5626-.5879 2.4838-.6824 2.8036-.3712 2.9752-.5644 2.7061-.6696 2.5597-.7268 2.8448-.7579 2.9999-.4122 3.0821-.5869 2.7642-.6817 2.956-.3709 3.423-.5665 3.3122-.673 3.2519-.3661 3.2214-.1992 3.2048-.4709 3.556-.6186 3.7471-.3366 3.4908-.1831 3.3513-.0996 3.2732-.4167 3.2307-.5892 3.2099-.3205 3.1985-.5369 3.5526-.6546 3.7452-.7186 3.4898-.7535 3.3508-.4098 3.2729-.5855 3.2305-.681 3.5723-.3705 3.7582-.2016 3.8571-.1096 4.2756-.0596 4.1409-.0325 3.7027-.0176 3.8268-.0096 3.8967-.0053 3.5722-.0028 3.3933-.0016 3.2961-.0008 3.2454-.0005 3.5804-.0002 3.7603-.0001 3.4957-.0001 2.9915-.0001 2.7172 0 2.9283 0 3.043 0 2.743 0 2.582 0 2.857 0 3.0043.3625 2.7218.5598 2.5683.3044 2.487.1657 2.4427.4526 2.779.6088 3.3243.3311 3.2608.5427 3.2263.6577 3.5676.3578 3.0284.5572 3.0998.6656 3.8637.7246 3.9144.7568 3.2171.7764 2.8399.7872 2.6347.4282 2.5209.5955 2.4589.6865 2.0627.7359 2.2096.7629 2.2896.7775 2.3354.7855 2.7228.7898 2.5688 1.1548 2.485.9906 2.4394.9015 2.4168.8529 2.4046.8265 2.3957.8121 2.3908.8044 2.3882.8 2.3867.8001 2.3882 1.1625 2.389.995 2.3872.9037 2.3862 1.2167 2.3857 1.3869 2.7501 1.117 2.5859.9702 2.4943.8903 2.807.8468 2.6146 1.1858 2.5121 1.0075 2.4565.9129 2.0613 1.224 1.8465 1.0283 2.092.9219 2.2256 1.2266 1.9358 1.3923 1.7803 1.1199 1.6959.9718 1.6476 1.2537 1.6213 1.0445 1.607.9307 1.5993 1.2314 1.9576 1.3972 2.1524 1.4874 1.8983 1.8967 1.76 2.1193 1.6824 1.5155 1.6403 1.1869 1.6174 1.7333 1.6049 1.6679 1.5981 1.2721 1.5944 1.0569 1.2299-.1524.669-1.1727.364-1.3631.198-1.829.1077-2.0825.4234-2.2228.5951-2.299.3238-1.9757.5386-1.4373.6556-.4194-.006.8617-.3657 1.5586-.1989 1.5729-.4731 1.5807-.6221 1.585-.3384 1.5872-.1842 1.9511-.1001 2.1512-.417 1.8975-.5894 1.7573-.3206 1.6811-.5369 1.6395-1.0172 1.6169-1.6409 1.2422-2.3427.6757-2.3643.3676-2.376.1999-2.3801.1088-2.3539.0841l-1.2805.0457" fill="none" stroke="#4dabf7" stroke-width="4.5" class="svg-elem-5"></path>
  <path d="M1000.2277 4060.1038q.725-2.9002.9223-4.0538t-.0581-2.5063-1.1191-2.4509-1.6964-1.6959-1.2853-.56-1.0618.4204-1.3049.5912-1.0746.6841-.9472 1.0995-.8777 1.688-.8401 2.0058-.8195 2.1787-.4458 2.2728-.2425 1.9614-.1319 2.1569-.0718 2.6257.3235 2.5159.5385 2.0937.2929 1.8641.5219 1.739.6464 1.6711.3517 1.9989.1913 2.1773.104 1.9094-.3059 2.1264-.5289 2.2442-.6503 1.5834-1.0787 1.2239-1.6744 1.3909-2.361 1.4839-2.3742 1.1721-2.0189.6376-2.1858.3468-2.2767-.1761-1.9635-.4606-1.7932-.6131-1.7006-1.0586-1.2876-1.3009-1.063-1.4327-.9408-1.5044-.5117-1.5435-.3955-1.7074l-.2151-.9289" fill="none" stroke="#4dabf7" stroke-width="4.5" class="svg-elem-6"></path>
  <path d="M997.0454 4076.0156q-2.9002-.725-4.0538-.9223t-2.1437-.3044-2.2538.1968-3.0387.4697-3.1031.2554-2.0506-.2235-1.1155-.8467-.6068-1.1856-.4689-1.431l-.2551-.7784" fill="none" stroke="#4dabf7" stroke-width="4.5" class="svg-elem-7"></path>
  <path d="M1241.2626 4190.6572q-1.2677.2554-1.7402.0695t-.7295-.5402-.3969-.6723-.2158-.7464.1379-.6615.4558-.3598.6264-.1958.7215-.1065.7733.0698.8014.2933.5637.4126.432.4776.3604.6405.1961.7293-.0187.6497-.3887.6066-.5922.4576-.7029.249-.8886.1354-.8641-.054-.7255-.2824-.5223-.5344-.2841-.7992-.1546-.8132.1713-.6955.727-.3783 1.0993-.111l.598-.0604" fill="none" stroke="#4dabf7" stroke-width="4.5" class="svg-elem-8"></path>
  <path d="M1270.1723 4185.6536v-3.9283q0-1.1376-.1277-1.884t-.3225-1.5334-.4286-1.3403-.7415-.9822-.7842-.5344-.552-.0376-.5533.2327-.4288.3796-.3586.5873-.3205.7002-.302.8871-.292 1.1164-.2865 1.2412-.2835 1.309-.1543 1.346-.0839 1.366-.0456 1.2493-.0249 1.0604-.0135.9576.1203 1.0271.1932.9395.2327.8918.2543.866.2638.8518.2688.9695.274 1.0336.2767 1.0708.2759 1.2163.2755 1.2932.1499 1.3374.0815 1.3613.0444 1.3744.0241 1.3816-.1123 1.26-.3141 1.1938-.424 1.028-.6114.8123-.7134.6972-.7665.6324-.9255.4694-1.0118.2554-1.0567.1389-1.0809-.0499-.9688-.2801-.9078-.4078-.8723-.4749-.8553-.5115-.8461-.5313-.8387-.7952-1.0075-1.1552l-.5481-.6284" fill="none" stroke="#4dabf7" stroke-width="4.5" class="svg-elem-9"></path>
  <path d="M1270.1723 4197.3287q-2.28.2554-3.2809.3248t-1.6731-.0204-1.2909-.1388-1.4616-.2032-1.8481-.3383l-1.0054-.1841" fill="none" stroke="#4dabf7" stroke-width="4.5" class="svg-elem-10"></path>
  <path d="M1282.9593 4180.094q-2.0292 4.5646-2.7065 6.1869t-1.1735 2.7579-.7661 2.0065-.4167 1.5977-.3544 1.3753-.3205 1.2543-.1743 1.697-.0949 1.9377-.0516 1.688.0997 1.5521.3095 1.3505.2961 1.2431.2865 1.057.4089.8281.6032.8312.8255 1.0018l.4491.5449" fill="none" stroke="#4dabf7" stroke-width="4.5" class="svg-elem-11"></path>
  <path d="M1294.6343 4191.7691q-1.523 1.7738-2.1904 2.6371t-1.9173 2.0944-2.0576 2.1539-1.3724 1.5502-1.1251 1.2241-1.2288 1.3085l-.6684.7118" fill="none" stroke="#4dabf7" stroke-width="4.5" class="svg-elem-12"></path>
  <path d="M1286.295 4191.2132q1.523 2.28 2.0627 3.1555t.9609 1.6049.7759 1.3792.8028 1.2565.8175 1.1896.9508 1.2811 1.2755 1.5306l.6939.8326" fill="none" stroke="#4dabf7" stroke-width="4.5" class="svg-elem-13"></path>
  <path d="M1299.642 4177.3143q1.0123 3.2969 1.4154 4.5744t.7476 2.3509.6598 2.1659.6121 2.0651.4583 2.1358.2493 2.3041.1357 2.1427.0738 2.0525.0401 2.0035-.1036 1.8514-.3094 1.7664-.5491 1.5948-.6794 1.376-.6227 1.2547-.5919 1.1887-.7027 1.2805-.9024 1.5302l-.4909.8324" fill="none" stroke="#4dabf7" stroke-width="4.5" class="svg-elem-14"></path>
  <path d="M1238.2241 4090.3118q-3.6571-3.6571-6.0244-4.6519t-4.1111-1.5358-3.6067-.3795-5.1632 1.1638-6.0099 2.0057-4.6419 2.0076-3.4395 2.0065-2.7854 2.0057-2.4295 2.4637-2.236 2.7106-2.1306 2.8448-2.0733 3.8344-2.0422 4.3728-2.0252 4.2073-1.56 3.6614-1.3047 2.45-1.1657 1.7889-1.0924 2.3434-1.5086 2.6473-1.2767 2.3545-.6945 2.6511-.8361 2.3565-.9131 2.1962-.4967 2.5673.1881 2.7691.5605 2.8767.761 2.9375.87 2.9706.9315 2.5302.965 2.7491.525 3.324.2856 3.1785.1554 2.6435-.3738 2.8105-1.1176 2.8993-1.9806 2.4914-1.9939 2.2719-1.5407 1.6942-2.6668.9217-3.2792.9574-3.1542.9768-3.0884.5314-3.0527.7473-3.4892 1.3209-3.2707 1.6328-2.2376 1.8025-1.6732 1.8949-1.3662 1.9451-1.2015 2.4284-1.1119 2.6936-1.0609 2.3796-1.0331 2.2088-.562 2.5741-.764 2.7729-.8739 2.881-.9315 3.8518-.9626 4.38-.5237 4.2112-.2849 4.1195-.155 4.0696.3717 4.0447.6582 4.0311.8163 3.5632.9024 3.3087.9469 3.6285 1.4294 3.3464 1.6918 3.1931 1.8347 4.0215 1.9146 4.4746 1.9558 3.8067 1.9783 3.4412 2.4487 3.2445 2.7024 2.6793 2.8404 2.3719 2.9177 2.2045 2.9598 2.1136 2.9804 2.064 2.9939 2.0371 3.4595 2.0225 3.7106 2.0145 3.8471 1.5542 3.4631 1.3015 3.7125 1.6222 3.8481 1.7991 3.4637 1.437 3.7151.7817 3.3935.4253 3.6747-.227 4.2859-1.04 3.2457-1.9383 2.2217-2.883 1.6647-2.9387.9055-3.4271.4926-3.693.268-3.3792.1458-3.6669-.3767-3.3673-1.1192-2.7484-1.0671-2.8677-1.0366-2.9303-1.4781-2.5084-1.2624-2.2788-1.1427-2.61-1.536-2.7923-1.2938-2.4334-1.1598-2.694-.631-2.8381.5711-2.4582 1.6832-1.7933 2.7442-1.4338 3.3214-1.2383 3.1771-.6736 3.0987-.3664 3.5142-.1994 3.2843.3499 2.2449 1.1045 1.6796 1.9712 1.3719 2.4449 1.2023 2.7026 1.1101 3.2987 1.0622 3.6231 1.0361 3.7995 1.0196 3.4373 1.0107 3.2424 1.0081 4.0507 1.0066 4.4881.5477 4.7284.2979 4.8591.1621 4.9279.0881 4.9676.048 4.9892.0261 4.9987.0142 4.5479.0077 4.3026.0042 4.1692.0023 4.0988.4572 4.0606.7048 4.0376.8416 3.5667 1.3722 3.3106 1.6607 3.1735 1.8177 3.0989 1.9031 3.0561 1.9496 2.5768 2.4308 2.7744 3.1533 2.8818 3.5462 2.4819 3.7576 2.7205 4.3288 2.8525 5.0977 2.9243 5.0599 2.9611 5.0395 2.5252 5.9426 1.8319 6.4316 1.4526 6.6976 1.2462 6.8447.6779 6.9246.3688 6.9681.2007 6.5335-.3469 6.297-.6447 5.7125-.809 5.3944-1.3544 5.2214-1.651 4.669-2.2708 4.3685-3.0638 4.205-3.4953 3.6578-4.1883 3.3624-4.5652 3.2017-4.7681 3.112-4.8784 3.0655-4.9407 2.5819-4.9745 1.8606-4.993 1.4704-5.4591 1.2582-5.2542 1.1405-4.6869 1.0764-4.3783.5855-4.2125.3186-4.1225.6315-4.5272.8019-4.7474.4362-4.4111.2373-4.2282.1291-4.1287.0702-4.0769.0382-4.0486.0208-4.0311.0113-3.5631.0062-3.3087.0033-3.6284.0018-3.8025.001-3.897.0006-3.9509.0003-4.4361.0001-4.6978.0001-4.3842 0-4.6718.0001-4.8283 0-4.4552 0-4.2521 0-4.1418.456-4.5399 1.1623-4.7566 1.5466-4.8721 2.2117-5.3933 2.5757-5.6791 2.3177-5.3762 2.1751-5.2093 2.0976-5.1184 2.0553-4.6129 2.0324-3.882 1.5639-3.4844 1.3068-3.2681 1.6251-3.1503 1.3424-3.9984 1.1862-4.4597 1.1013-4.7129.5992-5.3089.7842-5.1749.8848-5.0997.4814-5.0588-.1964-4.5806-.5651-4.3204-.7634-4.1788-1.3296-4.1041-1.6376-3.6053-1.3468-3.3315-1.191-3.1849-1.5622-2.6468-1.7641-2.8102-1.8739-2.9013-1.9337-2.4926-1.9685-2.2702-2.4434-2.1493-2.6995-2.0835-2.3829-2.0477-2.6688-1.57-3.2804-.854-3.1548-.4646-3.5447-.2528-4.2152-.1375-3.6657-.0748-2.9084.4153-3.4107.682-4.1422.8292-3.6237 1.3654-2.4273 1.6571-1.7787 1.8157-2.3402 1.902-2.6433 1.949-2.3523 1.9745-2.6522 1.9884-3.2713 1.996-3.6082 2.0001-3.7914 2.0024-3.8911 2.0035-3.9453 2.0042-3.5188 1.5486-3.2868 1.3007-3.6166 1.1658-3.796.6343-3.8935.345-3.9467-.2706-3.5195-1.0638-2.829-1.9512-2.4532-2.89-2.2488-2.9425-2.1376-3.4293-2.0772-3.694-2.0442-3.3799-2.0287-3.6672-2.0178-3.3675-2.468-2.7485-2.7152-2.4095-2.8496-2.225-2.4644-2.1247-2.255-1.6118-3.0552-.8768-3.0324-.477-3.0198-.2595-3.4737-.1412-3.7205.3792-2.9382 1.1206-2.0544 1.5239-2.0319 1.2849-2.0196 1.1573-2.013 1.5462-2.0093 1.7554-1.5491 1.8692-1.301 1.9311-1.622 1.9648-1.3383 2.4414-1.1864 2.6984-1.1037 2.3823-1.0563 2.2102-1.489 2.1166-1.7243 1.6097-1.394 1.3317-1.6749 1.1805-2.742.6421-2.8619.3493-2.0129-.2659-1.5533-.6007-1.7592-.785-1.8713-1.7997-2.0968-2.689l-1.1407-1.4629" fill="none" stroke="#f76707" stroke-width="4.5" class="svg-elem-15"></path>
  <path d="M1241.8551 4191.5391q-1.1993-1.1993-1.5255-1.644t-.5036-.9262-.274-.864-.1491-.7094.0398-.5045.261-.3953.3814-.4545.5677-.4866.7877-.3855.6678-.0889.4842.0724.3842.158.3276.3254.2968.4164.1614.5844.0878.6782.0478.6084.026.6889-.1044.6141-.1754.455-.2162.3683-.3571.3189-.5544.4129-.7827.3455-.7838.1879-.6658.1022-.6015-.0652-.5667-.2749-.5476-.3889-.4165-.451-.3474-.4847-.3099-.5031-.1685-.6317-.0917-.7038-.0499-.6223.2123-.5779.5942-.4353.8021-.2367.6758-.008.4884.2351.3866.7252.2986 1.2404l.1625.6748" fill="none" stroke="#40c057" stroke-width="4.5" class="svg-elem-16"></path>
  <path d="m1245.074 4171.8042 4.4708-4.4708q1.2697-1.2697 1.9604-2.7607t1.4655-2.7011 2.3978-4.2693 2.9049-5.1223 2.3783-3.9858 2.0941-3.3676 1.9395-2.6322 1.8553-2.2322 1.8096-2.4136 1.7824-2.5123 1.7699-2.167 2.1644-1.5801 2.3767-1.2585 2.091-1.4827 1.9377-1.6069 2.2557-1.2754 2.4264-1.0928 2.5192-1.3948 2.971-1.16 2.8155-1.0301 2.731-1.3583 3.0861-1.138 3.2772-1.0203 3.3811-.9563 3.8388-.9193 4.0879-1.3003 3.8244-1.1087 4.08-1.0021 4.2191-.9441 3.8957-.9127 4.1189-.8954 4.2402-.8884 3.905-.8846 3.7225-.4812 3.6257-.6608 3.9719-.7585 4.1603-.4126 4.2627-.2244 4.3185-.1221 3.9498-.4677 4.1483-.6557 4.2562-.3568 4.315-.194 4.3468-.1056 4.3643-.0574 4.3737-.0312 4.3789-.017 4.7807-.4083 4.6002-.6211 4.5021-.3378 4.8477-.1838 4.6367-.1 4.1229-.0544 4.2425-.0296 4.3074-.0161 4.3428-.0088 4.3621-.0047 4.3725-.0026 4.3782-.0014 3.9823-.0008 4.1659-.0004 4.2658.3988 3.9212.6159 4.1327.3351 4.2477.1822 4.3104.0992 4.3443.0539 4.3629.4307 4.772.6355 4.5955.3457 4.4996.5871 4.8462.7184 5.035.3908 5.1376.6139 4.7944.7352 4.6077.4 4.9074.6165 4.6692.7345 4.5396.3995 4.8704.6163 5.0481.7343 4.7457.8007 4.5812.8369 4.4917.8543 4.0441.8637 3.7983.4699 4.0658.6568 4.2113.7587 4.2906.4127 4.3336.2245 4.357.5211 4.3698.6825 4.3767.3713 4.3805.2019 3.9813.5089 4.1654.6758 4.2655.769 3.921.8196 4.1326.8448 4.2477.8586 4.3103.8684 4.3443 1.2726 4.3629 1.0914 4.373.9926 4.3785 1.3403 4.7804 1.5294 4.6001 1.231 4.5021 1.071 4.8476 1.3829 4.6367 1.5502 4.1229 1.2424 4.2425 1.0771 4.3074 1.3862 4.3428 1.1532 4.3621 1.0285 4.3725 1.3599 4.3782 1.1387 3.9823 1.0185 4.1659 1.3543 4.2658 1.138 3.9212 1.0181 3.7314 1.3542 3.6282 1.5369 3.5742 1.2351 3.944 1.0709 3.7461 1.3828 3.2371 1.1535 3.3593 1.0266 3.428 1.3587 3.4654 1.5394 3.4858 1.6354 3.4945 1.2887 3.4993 1.1023 3.5042 1.4 3.5068 1.5618 3.107 1.251 2.8895 1.0795 2.7712 1.3852 2.3077 1.1526 2.457 1.0283 2.9349 1.3596 2.7959 1.54 2.7225 1.638 3.0793 1.6891 2.8745 1.7191 2.3639 1.3365 2.0863 1.126 2.3342 1.4129 2.4691 1.1699 2.1435 1.0354 1.9663.9622 1.87.9225 1.8152 1.3021 1.7878 1.1096 1.7728 1.0027 1.7647 1.3457 1.7603.7321 1.3566-.8034.738-2.0352.4015-2.7055.2184-3.0724.1188-3.2719.0646-2.5802.4342-1.0023.6351.654.7469 1.1538.8075 1.4279.4393 2.3774.239 2.8938.13 3.1748-.3306 2.5274-.5811 1.7739-.7151 1.763-1.187 1.7593-1.446 1.3584-1.5869 1.1379-2.0626 1.0181-2.3213.5538-2.4621.3013-2.9399.1639-2.7986.0891-2.7291.0689l-1.4846.0375" fill="none" stroke="#40c057" stroke-width="4.5" class="svg-elem-17"></path>
  <path d="M1842.1889 4216.8635q-.725-1.0853-.5597-1.5629t.6177-.7374.8787-.2187.8406.4259.6396.7743.348.7815.0069.6053-.3588.3292-.5577-.001-.6659-.5432-.7225-.658-.5731-.5381-.3118-.6552.0105-.719.3659-.3911.5616.1497.4879.6264.377.9989l.2051.5434" fill="none" stroke="#40c057" stroke-width="4.5" class="svg-elem-18"></path>
  <path d="M1872.3522 4214.4822q-1.4501-1.0853-2.0246-1.3805t-1.0672-.6382-1.4858-.5295-1.7134-.2881-1.2946-.1567-1.0667-.0853-.9406-.0464-.8742.1572-.8381.448-.636.6063-.5261.5122-.4664.4587-.2537.6098-.3204.6943-.3567.7402-.194.7651-.1056.7788-.0574.7839-.0312.9691.1654 1.0698.2724.9445.3282.8764.3588.8392.3752.8191.5667.6257.6708.5205.7251.4632.757.252 1.1369.1371 1.3412.0746 1.2722.0406 1.2348-.1581 1.0342-.266.745-.3249.5854-.5393.4986-.6559.2712-.7193.1476-.7538.0802-.7703-.1364-.7816-.0742-.7877.3221-.4285.5378.1294.6527.4329.7177.5958.5728.8667.4917 1.0164.63 1.278.7053 1.5981.5637 1.5921.4868 1.7713.445 1.8687.242 1.7417.1317 1.8526.0716 2.0931.039 2.0438.0212 2.017-.1686 2.0024-.4519 1.812-.7885 1.7086-1.154 1.4743-1.3528.9845-1.6411.5355-1.978.2913-1.9813.1585-2.163-.0962-2.262-.2347-2.1357-.3078-2.2471-.53-2.3077-.6508-2.5537-.7587l-1.3893-.4127" fill="none" stroke="#40c057" stroke-width="4.5" class="svg-elem-19"></path>
  <path d="M1893.7841 4197.0192q-1.4501 1.4501-2.0246 2.2047t-1.0672 1.5278-1.1232 2.8215-1.1537 3.7077-.8077 3.1046-.4394 2.7742-.239 2.4143-.1301 2.0361-.0707 1.8304-.0385 1.7208-.0209 1.6612.1687 1.4463.452 1.3294.6085 1.446.6935 1.5094.9199 1.366 1.043 1.1056.93.9617.8684.8857 1.0151.8443 1.2991.9082l.7068.4941" fill="none" stroke="#40c057" stroke-width="4.5" class="svg-elem-20"></path>
  <path d="M1912.8346 4207.3383q.3602-3.2558.4582-4.5039t-.0288-2.2896-.1958-1.7882-.1065-1.5154-.2381-1.3671-.3096-1.1061-.7134-1.1467-1.1131-.9863-.9658-.1741-.8879.4503-.6654.6074-.5421.6907-.475.7383-.2584.9442-.1406 1.0563-.0765 1.1196-.0416 1.3318-.0226 1.4472.1678 1.5124.4538 1.5478.4293 1.7471.4136 1.8556.5853 1.7322.6809 1.8452.5528 1.909.4809 1.7635.4417 1.8645.4226 1.9194.4124 1.5868.2243 1.4059.122 1.4899.0664 1.5332-.1463 1.5568-.4421 1.3919-.603 1.1196-.6906.9694-.7359.8898-.9429.8466-1.2381.6407-1.2161.5286-1.2042.4677-1.5602.2545-1.754-.0417-1.4968-.2029-1.1767-.2904-.8226-.7006-.6276-.9238-.5215-1.0452-.403-1.3225l-.2192-.7194" fill="none" stroke="#40c057" stroke-width="4.5" class="svg-elem-21"></path>
  <path d="M1915.2197 4216.8635q-2.8956 0-4.0457.1801t-2.1383.2781-2.2486.3337-2.7638.5169l-1.5036.2812" fill="none" stroke="#40c057" stroke-width="4.5" class="svg-elem-22"></path>
  <path d="M1927.1225 4194.6379q-1.4501 4.3457-1.8445 6.0703t-.7891 3.2056-.6094 3.0092-.3315 2.9024-.1804 2.6664-.0981 2.5382.1268 2.466.6116 3.3319.8776 3.4405.84 2.2342.8171 1.758.8873 1.87l.4826 1.0173" fill="none" stroke="#40c057" stroke-width="4.5" class="svg-elem-23"></path>
  <path d="M1945.3793 4206.5445q-1.8103 3.2558-2.6652 4.6863t-1.8627 2.7514-1.736 2.582-1.6672 2.4899-2.0589 2.6946l-1.12 1.4658" fill="none" stroke="#40c057" stroke-width="4.5" class="svg-elem-24"></path>
  <path d="M1935.854 4207.3383q1.8103 3.2558 2.4828 4.5039t1.2208 2.4698 1.0267 2.2487.9187 1.9483.8623 1.965.8316 1.9742.6325 1.7967.4887 1.8999l.2659 1.0335" fill="none" stroke="#40c057" stroke-width="4.5" class="svg-elem-25"></path>
  <path d="M1947.7606 4191.4628q2.1706 4.3457 2.9434 6.0703t1.1931 3.2056.8293 3.0092.6312 3.0848.5235 3.1259.4649 2.9659.2529 2.8812-.4051 4.2828-.9431 4.8629-.8733 3.5506-.8376 2.6566-1.0005 2.1702-1.288 2.1917l-.7007 1.1923" fill="none" stroke="#40c057" stroke-width="4.5" class="svg-elem-26"></path>
  <path d="M1960.4609 4188.2877q1.8103 6.1514 2.4828 8.3696t1.2208 4.1475 1.0267 3.704.7386 3.4628.5819 3.3316.4967 3.2602.09 4.4867-.3112 4.9739-.712 3.7933-.9299 2.9687-.8684 2.3378-.8349 1.8144-.8168 1.5296-.8901 1.6968l-.4842.9231" fill="none" stroke="#40c057" stroke-width="4.5" class="svg-elem-27"></path>
  <path d="M1589.5591 4064.0784q-2.3621-3.5431-4.1856-4.5068t-3.9966-1.488-3.9457-.8095-2.7369.1502-2.0795 1.2627-1.7217 2.4585-.9366 3.6995.081 3.1935 1.2251 1.7373 1.8475 1.5356 2.7766 1.4259 3.8725.7757 3.2877-.759 1.7885-2.1845 1.5635-.5979 2.0316 1.4464 1.6957 1.9678 1.5129 2.2515 1.4136 2.9964 1.3595 3.9922 1.3301 3.9432.7236 3.3262.3936 2.9905-.9669 2.2173-1.707 1.7968-1.5192 1.568-2.598.8529-3.7753.464-4.4159.2525-4.1738.1373-3.4516-.5158-2.4682-1.4617-1.9071-1.9681l-1.0374-1.0706" fill="none" stroke="#40c057" stroke-width="4.5" class="svg-elem-28"></path>
  <path d="M1858.9476 4056.3073q0-4.7242-.5905-6.0091t-1.5023-2.5745-1.9983-2.5816-2.2681-2.5854-3.0054-2.5875-4.5875-2.5887-4.8577-2.5893-4.4142-1.999-4.7634-1.0875-4.9533-.5916-4.4662-.3219-3.6107.4155-3.1475 1.407-2.8955 1.9465-2.7563 2.2399-2.0899 2.3996-1.7274 2.4864-2.1208 2.5336-2.3347 2.5594-1.8606 2.5733-1.6027 1.9904-1.4624 1.6733-1.3861 2.0913-1.3445 2.3187-1.3219 3.033-1.9002 4.012-1.6242 3.954-.8836 3.3321-.4807 2.9937-.2615 3.4001-.1422 3.6212.5131 3.151.8697 2.8952.4731 2.756.2574 2.6803.14 2.6392.0761 2.6167.0415 3.1973.0225 3.5132.0123 3.0922.0066 2.8632.0037 2.7387.0019 2.6708.0011 3.2245.0006 3.5257-.5902 3.099-.9116 2.8669-1.0864 2.7407-1.7721 2.6719-2.145 2.6346-2.3479 2.6142-2.4584 2.6032-2.5183 2.0067-2.5511 1.6821-2.5688 1.5056-3.169 1.4096-4.086 1.9479-4.5848 2.2406-3.6752 2.4-2.5899 2.4866-2.5899 1.9432-2.5899 1.6477-1.9995 2.0773-1.6782 1.7207-1.5035 1.5265-1.4084 2.0115-1.9472 2.2752-2.2403 2.4188-1.8093 2.4969-1.5747 2.5393-2.0378 2.5625-1.699 2.575-1.5148 2.5818-1.4145 2.5856-.7696 2.5876-1.0091 2.5909-1.1395 2.5928-.6199 2.5916-.3372 2.5908-.1835 2.5904-.6903 2.5903-.966 2.5901-.5255 2.5901-.2859 2.59-.1556 2.59-.0846 2.5901-.046 2.59-.025 2.59-.0137 3.1805-.0074 3.5018-.004 3.086-.0022 2.8598-.0012 3.3273-.0006 3.5816-.0004 3.1294-.0002 2.8835-.0001 2.7496 0 2.6769-.0001 2.6372 0 2.6157 0 2.604.5905 2.5976.9118 2.5941.496 2.5923.2698 2.5912.1468 3.1812.0798 3.5021.634 2.4957.9354 1.9482.5088 2.2408.2769 2.4024.1506 2.4901.6724 2.5357.9563 2.5605.5203 2.5739.8735 2.5813 1.0657 2.5852.5798 2.5875.9059 2.5886 1.0833 2.5892 1.1799 2.5896 1.2323 2.5897 1.2609 2.5899 1.867 2.59 1.6062 2.5899 1.4643 1.9995 1.387 1.6782 1.3451 2.094 1.9128 2.3202 2.8121 2.4432 2.7108 2.5101 2.6558 1.9561 3.8068 1.6546 3.8424 1.4906 3.8619.8109 4.4629.4411 4.1994.24 3.4655-1.0505 3.0663-2.343 2.8491-2.4557 2.1404-2.5169 1.7549-2.5502 1.5452-3.1589 1.4311-3.49 1.9596-3.0796 1.6565-2.8563.9011-2.7349 1.0808-2.6688 1.1784-2.6329.6411-2.6133.9393-2.6027 1.692-2.5969 1.5109-2.5938 1.4125-2.592 1.9495-2.5911 2.2415-2.0001 2.4027-1.6809 2.4904-1.5072 3.1263-1.4104 4.0628-1.3578 4.5723-.7386 4.2589-.4018 4.0883.3719 4.5862 1.3856 3.6759 1.9372 2.5902 2.2348 2.5901 2.3968 1.9996 3.0754 1.6783 3.4446 1.5035 3.0549 1.4084 2.8429 1.3567 2.7275 1.3285 3.2554 1.9038 3.5425 2.2167 3.6987 1.7964 3.7836 1.5678 3.8298 2.0339 4.4456 2.2875 4.1899 2.4254 4.0509 2.5005 3.9752 2.5413 3.9341 2.5635 3.9117 2.5756 3.309 2.5821 2.9812 2.5858 3.3933 3.1782 3.6175 3.5005 3.1489 3.0853 2.8941 2.8594 2.7554 2.7366 2.68 3.2625 2.6413 4.7297 2.6201 5.5256 2.6064 5.9585 2.5989 5.6035 2.0044 4.8199 1.0903 5.5746.5932 5.9852.3227 5.618.1755 5.4183-.495 5.3096-.8599 5.2505-.4677 4.6279-.845 4.2891-1.0501 4.1048-1.1619 4.5951-1.8153 4.8618-2.1709 4.4164-2.9525 4.1741-3.3777 4.0445-3.0186 3.9741-3.4136 3.3429-4.2191 3.5902-4.6573 3.7245-4.8956 3.2073-5.0253 2.9257-5.0958 2.7727-5.1343 2.6893-4.5645 2.0536-3.6642 1.7076-3.7649 1.5195-3.8196 1.4171-3.8495 1.952-4.4562 1.6523-4.7862 1.4895-4.9658 1.9912-5.654 2.2643-6.6212 1.8223-6.5568 1.5819-6.5195 2.0415-6.4992 1.7012-5.8976 1.5159-6.1609 1.4152-5.7137.7699-4.8797 1.0093-5.6072 1.7301-6.0029 1.5317-5.6277.8333-5.4235 1.0438-5.3125 1.1583-5.8426.6302-6.131.3427-6.2878.1865-6.3755.1015-6.4231.6457-6.4468.9418-5.8691.5123-5.5549.2787-5.384.1516-5.8814.0825-6.1521.0449-5.7089-.5661-5.4676-.8985-5.9271-.4888-6.1769-.8564-5.7223-1.6469-5.475-1.4865-5.3405-1.3991-4.6768-1.9422-4.9085-2.2376-5.0346-2.3983-3.9199-1.8952-3.3134-1.6215-2.9836-2.0631-3.3946-2.3034-3.6182-2.4341-3.7399-3.0957-3.806-3.4556-3.2516-3.0609-2.9499-2.8462-2.1952-3.3198-1.7847-3.5776-1.5615-3.1273-1.4399-3.4727-1.3738-4.2536-.7474-4.0878.184-3.4047.6905-3.0333.9662-3.4216 1.7067-3.633 2.1095-3.7478 2.3285-3.8105 2.4478-3.2539 2.5127-3.5416 2.5479-3.6983 2.5671-3.1929 2.5775-2.9179 2.5833-3.359 2.5863-4.1893 2.588-4.0506 1.9984-3.975 1.6776-4.5245 1.5032-4.8234.8177-3.805-.1457-2.6605-.6698-2.0377-.9549-1.6991-1.7004-1.5148-2.1062-.8241-2.9172-1.0388-3.3586-1.1557-3.5986-.6286-3.7292-.342-3.2097-.1861-2.9272-.6917-2.7734-.9668-3.2803-.526-3.556-.2861-3.1155-.1556-3.4664-.6752-3.6573-.9578-3.7611-.5211-3.8177-.2834-3.2578-.7448-2.9533-.9956-3.3781-1.1322-4.1998-1.7969-4.0563-2.1586-3.3876-2.3575-3.0239-2.4659-2.2356-2.5225-1.8066-3.1437-1.5733-4.0723-.8559-3.9869-.4656-3.9404-.2533-3.3247.4527-2.3991.8368-2.4862 1.0457-1.9429 1.75-1.6476 1.5425-1.4867 2.0201-1.3993 2.8705-1.3518 2.7426-.7353 2.673-.4001 2.6352-.8081 2.6146-1.0302 3.1939-1.1509 2.9185-1.2166 2.7687-1.2524 2.6872-1.2718 2.0524-1.2823 1.707-1.8787 1.5191-2.7935 1.4169-2.7008.1803-2.0597-1.0829-2.3015-1.7702-2.617-2.2065l-1.4237-1.2003" fill="none" stroke="#f76707" stroke-width="4.5" class="svg-elem-29"></path>
</svg>