<?xml version="1.0" encoding="UTF-8" standalone="no"?>
<svg
   direction="ltr"
   width="735.9586637548625"
   height="336.61138304872054"
   viewBox="-362.10762198933975 767.1740013125108 735.9586637548625 336.61138304872054"
   stroke-linecap="round"
   stroke-linejoin="round"
   style="background-color: transparent;"
   version="1.1"
   id="svg454"
   sodipodi:docname="komposisjoner1.svg"
   inkscape:version="1.2.1 (9c6d41e410, 2022-07-14)"
   xmlns:inkscape="http://www.inkscape.org/namespaces/inkscape"
   xmlns:sodipodi="http://sodipodi.sourceforge.net/DTD/sodipodi-0.dtd"
   xmlns="http://www.w3.org/2000/svg"
   xmlns:svg="http://www.w3.org/2000/svg">
  <sodipodi:namedview
     id="namedview456"
     pagecolor="#505050"
     bordercolor="#ffffff"
     borderopacity="1"
     inkscape:showpageshadow="0"
     inkscape:pageopacity="0"
     inkscape:pagecheckerboard="1"
     inkscape:deskcolor="#505050"
     showgrid="false"
     inkscape:zoom="1.1760153"
     inkscape:cx="125.8487"
     inkscape:cy="113.94409"
     inkscape:window-width="1920"
     inkscape:window-height="1017"
     inkscape:window-x="-8"
     inkscape:window-y="-8"
     inkscape:window-maximized="1"
     inkscape:current-layer="svg454" />
  <defs
     id="defs2" />
  <path
     d="m -253.2704,855.6691 c -6.91635,-4.60909 -14.86576,-8.85614 -23.45203,-7.00794 -10.03115,3.09828 -19.51565,11.09454 -25.51501,19.12803 -0.64332,9.38595 6.3859,17.21428 11.61114,24.38342 5.97435,7.21179 12.82646,15.50342 11.779,25.51597 1.82796,11.91939 -7.96264,21.59244 -18.7379,24.50963 -14.49175,6.58063 -27.05897,19.57329 -29.30983,35.83079 -4.48648,19.70611 6.10094,40.8153 23.59583,50.3988 13.04399,8.237 30.41839,14.5784 45.04933,6.5131 11.83355,-5.1943 22.96425,-15.0137 24.27828,-28.6084 2.18475,-16.58892 -1.15252,-33.5319 2.01632,-50.03509 2.35671,-12.53641 16.70058,-15.67222 24.15672,-24.43977 9.92102,-9.09303 12.61187,-22.64414 17.11018,-34.71703 3.23536,-9.49958 -6.73431,-19.49626 -16.13522,-15.64494 -8.38194,-1.03818 -18.45411,5.79982 -25.49282,-1.17027 -4.85286,-7.14714 -0.3425,-21.26706 -11.3563,-23.48632 -4.60049,3.68603 -12.57888,-2.93402 -4.41087,-4.22499 11.80185,-3.93684 18.70343,10.07475 17.76134,19.93597 2.39968,10.8958 14.07382,4.02462 21.28073,4.29713 10.07652,-1.7934 24.01412,2.08395 23.00043,14.75202 -0.39507,10.62426 -4.93395,20.60699 -8.92137,30.31519 -5.97545,12.80791 -18.37549,20.64258 -29.48289,28.56591 -6.71949,10.47894 -3.70548,23.48205 -4.48731,35.21363 0.37557,14.36826 0.71964,31.10776 -10.7237,41.71676 -11.24481,10.6804 -27.40511,18.5449 -43.1415,14.33 -21.58453,-5.1132 -42.91521,-20.3015 -47.89158,-42.97709 -2.638,-10.94386 -1.01252,-22.65869 2.96453,-33.05391 4.61418,-10.01405 12.74662,-18.32697 22.10299,-23.99947 7.4163,-4.53713 18.17165,-6.04156 21.70948,-14.99694 4.2551,-10.33783 0.045,-22.0718 -7.28505,-29.87624 -5.88303,-8.00672 -12.55098,-16.13531 -14.8697,-25.98466 -0.19994,-10.13459 11.24467,-13.39032 16.82906,-19.96182 11.14191,-9.24644 28.42277,-6.15715 38.27284,3.33864 0.69958,1.31199 -1.78733,1.51656 -2.30512,1.43989 z"
     stroke-linecap="round"
     fill="#e03131"
     id="path4" />
  <path
     d="m -62.743202,868.6624 c -11.652917,1.83494 -24.387335,6.37578 -29.819125,17.75197 -6.003812,14.16689 4.950921,27.72838 14.268587,37.36864 10.542357,10.50633 19.082354,23.00569 25.965594,36.14431 5.690796,11.76007 5.62186,26.52587 -2.829406,36.99908 -8.540215,11.9527 -23.045408,18.6816 -30.139625,31.7475 -5.858508,15.5436 5.617484,34.0769 21.68335,37.2011 12.993232,4.4902 27.255999,5.1731 40.662475,2.3667 14.874013,-6.0718 24.905608,-21.6539 23.94985,-37.7827 2.728923,-12.3399 -7.788115,-19.6987 -16.19765,-26.3101 -10.21553,-6.63535 -10.260754,-21.29516 -0.15685,-27.9983 5.348877,-10.36082 18.806618,-13.1714 27.382325,-4.92657 9.6571,5.94195 18.221941,15.28504 18.7441,27.17352 0.128547,10.97815 2.955592,24.35335 14.940625,28.09415 8.75421,3.7698 20.50695,2.8244 24.86971,-6.8524 9.06912,-13.557 8.00283,-31.49668 0.63234,-45.5419 -6.10538,-12.77579 -14.93016,-24.90966 -26.71342,-32.95615 C 34.884262,936.28688 24.321835,932.55875 17.136067,924.049 7.117898,915.80904 6.670752,901.70111 9.458298,889.994 c 1.890896,-12.08384 1.207572,-26.23827 -8.9759,-34.7251 -13.471621,-14.28841 -40.995625,-12.50526 -50.8327,5.0911 -3.68873,6.22264 -14.885427,9.67199 -18.337955,1.80104 8.084849,1.42466 15.728089,-2.1093 19.679255,-10.51744 14.657359,-14.11098 41.118196,-13.20407 54.286475,2.60875 11.705507,11.60306 10.123232,29.56754 6.982525,44.31132 -2.402622,11.113 4.252631,20.95451 12.8304,27.23203 9.462579,7.99929 23.06931,9.70598 30.96889,19.85922 13.60259,14.72972 25.45953,33.55546 24.70796,54.28458 -1.34443,12.0378 -5.61692,26.399 -17.71915,31.5412 -14.49032,3.2319 -32.823875,-4.8789 -34.9557,-20.8938 -1.424793,-10.88694 -1.86313,-23.60139 -11.7247,-30.6875 -7.689042,-8.90389 -22.815084,-14.16054 -28.927125,-0.67255 -11.0772,6.60957 -5.780042,20.1356 3.797225,25.05065 10.715697,6.2722 15.88144,17.7884 13.432375,29.9849 -0.171264,17.0627 -12.281182,33.4716 -28.612825,38.3631 -17.499771,2.6639 -36.347318,0.7748 -51.79985,-8.3203 -15.257026,-9.2433 -20.470333,-34.1749 -5.81545,-46.3179 10.573559,-11.4458 26.452351,-19.74604 29.519475,-36.38818 2.481578,-15.99 -8.124885,-29.49516 -16.7151,-41.77405 -9.199406,-13.78152 -25.219743,-23.68066 -28.191025,-41.07697 -2.667544,-15.67497 11.724763,-28.50705 26.047725,-31.05227 1.899723,-0.16283 12.067383,-4.13693 8.153675,0.96657 z"
     stroke-linecap="round"
     fill="#e03131"
     id="path40" />
  <path
     d="m 229.9901,863.1963 c -10.0349,-5.02699 -25.97374,-0.10043 -27.8728,11.8774 0.6777,14.11072 6.34862,28.02266 15.91616,38.46047 6.69324,10.05754 10.09201,22.4768 9.79954,34.54063 -0.93002,11.36805 -9.39923,20.09734 -18.71008,25.73182 -8.05057,5.18484 -13.19969,13.3419 -15.95902,22.37018 -4.01573,12.227 -6.67921,25.6608 -3.9173,38.3797 5.46047,12.7442 16.72869,24.5652 31.16492,25.7338 9.3188,-7.5183 -1.08427,-22.2934 8.31678,-29.8928 9.35089,-6.1178 22.93487,0.5592 31.44177,-8.0529 8.29168,-8.5143 4.63324,-20.8806 -1.71157,-29.24643 -5.51667,-10.34731 1.54094,-24.09793 12.7095,-26.72187 10.94435,-4.32784 26.34586,-5.48052 34.1513,5.1266 8.90982,9.7019 11.39025,22.97653 16.27312,34.7622 3.15938,10.5574 19.90208,10.7646 18.02116,-2.1179 0.42679,-15.8197 -10.90182,-27.90944 -18.33006,-40.77333 -7.43044,-8.70236 -16.42251,-15.99707 -22.97362,-25.49437 -8.18105,-12.47096 -1.01873,-29.26541 -9.8704,-41.458 -10.62319,-9.9413 -21.54505,8.28177 -33.19605,3.05202 -12.73539,-5.34863 -2.68639,-20.63413 -7.24975,-29.25462 -3.37442,-4.14052 -21.22443,-0.11164 -13.50944,-6.37431 9.34548,-1.77201 23.40696,3.38805 18.66424,15.25451 -4.35778,9.7496 3.85571,22.30725 14.34747,14.81427 8.83607,-7.31107 24.83841,-6.50342 27.80883,6.36183 4.63655,11.64978 -0.24736,25.45341 7.13932,36.14568 5.86252,8.52931 13.9509,15.03219 20.62668,22.82607 5.65442,8.06624 10.87532,16.48536 15.9274,24.93625 4.47523,9.61525 8.06042,22.6827 0.90035,31.8688 -8.63363,7.9433 -20.77122,-1.6364 -23.49339,-10.8462 -4.61956,-13.00205 -8.14272,-28.40046 -20.79316,-36.0516 -10.25518,-3.24997 -22.51976,-0.99657 -30.95755,5.66375 -10.01337,10.03954 1.43244,20.6959 4.17905,30.73505 2.62115,11.9395 -6.60167,25.3827 -19.2596,25.4967 -9.61597,-0.333 -24.81713,-0.081 -21.2959,14.0121 3.98564,12.3366 -7.88895,24.9282 -19.59057,16.1533 -10.53546,-5.0482 -18.72972,-14.8381 -23.11796,-25.5639 -2.91159,-12.8585 -0.37521,-26.426 3.35143,-38.8615 3.24369,-8.39192 6.337,-17.46343 14.1177,-22.8108 7.99384,-6.38642 18.20363,-11.90501 20.61312,-22.77803 2.12586,-11.55553 -1.66206,-23.56139 -7.09124,-33.7101 -7.31933,-9.29324 -13.88918,-19.56652 -15.96238,-31.44377 -3.92414,-9.93477 0.0344,-21.4645 10.43728,-25.31452 5.90582,-2.48182 18.21403,-4.1439 20.25436,2.31713 l -1.29964,0.14709 v 0 z"
     stroke-linecap="round"
     fill="#f76707"
     id="path226" />
</svg>
