<svg version="1.1" xmlns="http://www.w3.org/2000/svg" xmlns:xlink="http://www.w3.org/1999/xlink"
    width="1200" height="800">
    <defs />
    <g transform="scale(2,2)">

        
        <g id="expressions-870c1e92">
            <g id="sketch-870c1e92">
                <title>Expression 1</title>
                <path fill="#c74440" stroke="none" paint-order="stroke fill markers" d=""
                    fill-opacity="0.4" />
                <g>
                    <path fill="none" stroke="#c74440" class="dcg-svg-curve"
                        paint-order="fill stroke markers"
                        d=" M 55.60923580719348 408 L 55.60923580719348 408 L 57.861328124999886 399.6391108937305 L 65.03906249999989 374.1163114508854 L 72.07031249999989 350.2047867196138 L 78.95507812499989 327.85570198048754 L 85.54687499999989 307.45963458476035 L 91.99218749999989 288.47707637458234 L 98.291015625 270.85352766382675 L 104.44335937499989 254.53333335922116 L 110.44921875 239.46003311416462 L 116.30859374999989 225.5766862233072 L 122.02148437499977 212.82617132026144 L 127.58789062499989 201.15146115969446 L 133.0078124999999 190.4958729561181 L 138.2812499999999 180.80329491651537 L 143.5546874999999 171.77663826076787 L 148.681640625 163.63867754242938 L 153.6621093749999 156.3345031236022 L 158.6425781250001 149.62139340869498 L 163.4765624999999 143.66908633407138 L 168.3105468749999 138.26942633948738 L 172.9980468749999 133.55859240210066 L 177.685546875 129.36195785428208 L 182.2265625 125.78371726507658 L 186.6210937500001 122.7742946062599 L 190.7226562499999 120.36489171330368 L 194.6777343749999 118.40393681535215 L 198.4863281250001 116.84922468218338 L 202.1484375 115.66045057102292 L 205.81054687499977 114.76924708452361 L 209.32617187499977 114.1911666374217 L 212.84179687499977 113.88238314402315 L 216.35742187499977 113.84030096365814 L 219.87304687499977 114.06221211871843 L 223.38867187499977 114.5452977236364 L 227.05078125 115.32307813218767 L 230.712890625 116.37763847188671 L 234.52148437499977 117.76416202168411 L 238.4765625 119.51235075989734 L 242.578125 121.65203457422558 L 246.97265625 124.30750906448975 L 251.513671875 127.43862766033408 L 256.34765625 131.19519218829737 L 261.474609375 135.6456383335376 L 266.89453125 140.85879582778443 L 272.4609375 146.74118713326288 L 278.1738281249998 153.31754951066432 L 284.033203125 160.61038777211343 L 290.0390625 168.63967440419083 L 296.337890625 177.63833044222565 L 302.783203125 187.4304567850736 L 309.521484375 198.2672060527775 L 316.552734375 210.19116080483627 L 324.0234374999998 223.5048580378707 L 331.93359375 238.27125247687263 L 340.283203125 254.53988682922136 L 349.2187499999998 272.6458604920899 L 359.033203125 293.25756862627986 L 369.873046875 316.7648293433176 L 382.470703125 344.8539978611543 L 398.4374999999998 381.2615251354023 L 410.1094570625619 408"
                        stroke-linecap="round" stroke-linejoin="round" stroke-miterlimit="10"
                        stroke-width="5" stroke-dasharray="" />
                </g>
            </g>

            <g id="sketch-870c1e92">
                <title>Expression 5</title>
                <path fill="#388c46" stroke="none" paint-order="stroke fill markers" d=""
                    fill-opacity="0.4" />
                <g>
                    <path fill="none" stroke="#388c46" class="dcg-svg-curve"
                        paint-order="fill stroke markers"
                        d=" M 93.45648542239962 -7.8569961450884875 L 109.01387842635668 7.698309153118544 M 118.914037610693 17.59713979743211 L 134.47143061465007 33.15244509563914 M 144.37158979898638 43.05127573995271 L 159.92898280294344 58.606581038159746 M 169.82914198727974 68.50541168247331 L 185.3865349912368 84.06071698068034 M 195.2866941755731 93.9595476249939 L 210.84408717953016 109.51485292320093 M 220.74424636386647 119.4136835675145 L 236.30163936782353 134.96898886572154 M 246.20179855215983 144.8678195100351 L 261.7591915561169 160.42312480824214 M 271.6593507404532 170.3219554525557 L 287.2167437444103 185.87726075076273 M 297.1169029287466 195.7760913950763 L 312.67429593270367 211.33139669328332 M 322.57445511704 221.2302273375969 L 338.13184812099706 236.78553263580392 M 348.03200730533337 246.68436328011748 L 363.58940030929045 262.23966857832454 M 373.48955949362676 272.13849922263813 L 389.04695249758385 287.69380452084516 M 398.94711168192015 297.59263516515875 L 414.50450468587724 313.1479404633658 M 424.40466387021354 323.0467711076793 L 439.9620568741706 338.60207640588635 M 449.86221605850693 348.50090705019994 L 465.41960906246396 364.056212348407 M 475.31976824680027 373.9550429927205 L 490.87716125075735 389.51034829092754 M 500.77732043509366 399.4091789352411 L 509.3692944895362 408"
                        stroke-linecap="round" stroke-linejoin="round" stroke-miterlimit="10"
                        stroke-width="5" stroke-dasharray="" />
                </g>
            </g>
            <g id="sketch-870c1e92">
                <title>Expression 6</title>
                <path fill="#fa7e19" stroke="none" paint-order="stroke fill markers" d=""
                    fill-opacity="0.4" />
                <g>
                    <path fill="none" stroke="#fa7e19" class="dcg-svg-curve"
                        paint-order="fill stroke markers"
                        d=" M 5.147466077975366 408 L 17.929953683332695 390.09446983139327 M 26.064263977650995 378.7000415422799 L 38.84675158300833 360.7945113736732 M 46.981061877326624 349.4000830845598 L 59.763549482683956 331.4945529159531 M 67.89785977700225 320.1001246268397 L 80.68034738235959 302.194594458233 M 88.81465767667788 290.8001661691196 L 101.59714528203521 272.8946360005129 M 109.73145557635351 261.5002077113995 L 122.51394318171084 243.59467754279277 M 130.64825347602914 232.20024925367937 L 143.43074108138646 214.29471908507261 M 151.56505137570477 202.90029079595922 L 164.3475389810621 184.99476062735246 M 172.4818492753804 173.60033233823907 L 185.26433688073772 155.6948021696323 M 193.39864717505603 144.30037388051892 L 206.18113478041334 126.39484371191216 M 214.31544507473166 115.00041542279877 L 227.09793268008897 97.09488525419201 M 235.23224297440728 85.70045696507862 L 248.0147305797646 67.79492679647187 M 256.1490408740829 56.400498507358485 L 268.93152847944026 38.49496833875173 M 277.06583877375857 27.100540049638347 L 289.84832637911586 9.195009881031602 M 297.9826366734342 -2.1994184080817814 L 302.12358428036714 -8"
                        stroke-linecap="round" stroke-linejoin="round" stroke-miterlimit="10"
                        stroke-width="5" stroke-dasharray="" />
                </g>
            </g>
        </g>
        <g id="labels-870c1e92">
            <g transform="rotate(0,0,0) translate(11,101)">
                <g class="dcg-svg-label">

                    <text fill="rgb(45, 112, 179)" stroke="none" font-family="arial, sans-serif"
                        font-size="22px" font-style="normal" font-weight="400"
                        text-decoration="normal" x="0" y="19.984" text-anchor="start">Toppunktet (c,
                        f(c))</text>
                </g>
            </g>
            <g transform="rotate(0,0,0) translate(106,297)">
                <g class="dcg-svg-label">
                    
                    <text fill="rgb(250, 126, 25)" stroke="none" font-family="arial, sans-serif"
                        font-size="22px" font-style="normal" font-weight="400"
                        text-decoration="normal" x="0" y="19.984" text-anchor="start">Sekanter fra
                        venstre stiger</text>
                </g>
            </g>
            <g transform="rotate(0,0,0) translate(344,209)">
                <g class="dcg-svg-label">
                  
                    <text fill="rgb(56, 140, 70)" stroke="none" font-family="arial, sans-serif"
                        font-size="22px" font-style="normal" font-weight="400"
                        text-decoration="normal" x="0" y="19.984" text-anchor="start">Sekanter fra
                        høyre synker</text>
                </g>
            </g>
        </g>
        <path fill="none" stroke="#2d70b3" class="dcg-svg-point" paint-order="fill stroke markers"
            d=" M 215.05466315792924 113.72586265307419 L 215.05466315792924 113.92586265307418 L 215.25466315792923 113.92586265307418 L 215.25466315792923 113.72586265307419"
            stroke-linecap="round" stroke-linejoin="round" stroke-miterlimit="10" stroke-width="10"
            stroke-dasharray="" />
        <path fill="none" stroke="#fa7e19" class="dcg-svg-point" paint-order="fill stroke markers"
            d=" M 93.35648542239963 284.19795867206983 L 93.35648542239963 284.3979586720699 L 93.55648542239962 284.3979586720699 L 93.55648542239962 284.19795867206983"
            stroke-linecap="round" stroke-linejoin="round" stroke-miterlimit="10" stroke-width="10"
            stroke-dasharray="" />
        <path fill="none" stroke="#388c46" class="dcg-svg-point" paint-order="fill stroke markers"
            d=" M 322.915050585431 221.57076368080598 L 322.915050585431 221.77076368080597 L 323.11505058543105 221.77076368080597 L 323.11505058543105 221.57076368080598"
            stroke-linecap="round" stroke-linejoin="round" stroke-miterlimit="10" stroke-width="10"
            stroke-dasharray="" />
        <g id="labels-870c1e92" />
    </g>
</svg>