<svg xmlns="http://www.w3.org/2000/svg" direction="ltr" width="545.2719306117949" height="427.1800000000003" viewBox="1087.8618295933707 11085.94852361038 545.2719306117949 427.1800000000003" stroke-linecap="round" stroke-linejoin="round" style="background-color: transparent;"><defs/><g transform="matrix(1, 0, 0, 1, 1161.5644, 11434.5529) scale(0.9444542348424863, 0.9444542348424863)" opacity="1"><g transform="scale(1.058812553439159)"><path d="M-1.4737,1.2335 T-1.6808,0.114 -2.0643,-3.1381 -1.692,-7.4659 -0.2836,-11.3247 1.1941,-14.6373 2.5881,-18.2652 4.236,-22.472 6.0153,-27.0276 7.4898,-31.3289 8.8982,-35.6087 10.6287,-40.1226 12.0827,-44.4075 13.51,-48.5125 14.9023,-52.3871 16.2877,-56.2042 17.6803,-60.0016 18.7861,-63.925 20.1219,-68.0316 21.4348,-71.7181 22.8291,-75.2812 24.2506,-78.8327 25.6593,-82.2111 27.0603,-85.5424 28.4545,-88.8621 29.8483,-92.1839 30.9648,-95.1397 32.3504,-98.1437 33.6158,-101.1275 34.6333,-104.083 36.0198,-107.289 37.3504,-110.3694 38.7786,-113.4523 40.6373,-116.9292 42.0923,-120.1647 43.3592,-123.2467 45.115,-126.9408 46.6553,-130.3465 48.1979,-133.571 50.1112,-137.1877 51.8673,-140.1943 53.6946,-143.3519 55.6691,-146.5374 57.5908,-149.533 59.5224,-152.8919 61.4493,-155.4503 63.3973,-157.6599 65.7025,-160.3839 67.9689,-162.9714 70.3611,-165.4855 73.5033,-168.3354 76.3742,-170.7769 79.2867,-172.8624 82.4618,-174.7757 85.3008,-176.203 88.3458,-177.4931 91.7309,-178.913 95.346,-179.7792 98.6951,-180.0032 101.7498,-180.0458 105.0059,-180.0479 108.358,-179.6863 111.5493,-178.9117 115.0828,-177.6023 118.2741,-175.7283 120.9174,-173.7598 123.3255,-171.5872 125.508,-169.7107 127.8368,-167.8393 130.6942,-165.5494 133.759,-163.3604 136.6065,-161.1938 139.8738,-159.4617 143.0347,-158.2663 145.7871,-157.253 148.6651,-156.3981 151.6137,-155.8226 154.4911,-155.2509 157.8043,-154.4189 161.2004,-153.8639 164.5184,-153.6343 166.2734,-153.5156 A2.4062,2.4062 0 0 1 166.1666,-148.7044 T164.3451,-148.6651 160.9947,-148.7394 157.8314,-149.253 154.8028,-149.9108 151.7485,-150.4985 148.066,-151.338 144.6421,-152.3437 141.8705,-153.3934 138.6728,-154.8307 134.8605,-156.8571 131.1603,-159.2544 127.8898,-161.6316 124.965,-164.0052 121.8146,-166.7572 118.9102,-169.2294 116.5634,-171.0182 113.919,-172.7064 110.8948,-173.9975 107.9626,-174.7448 104.9826,-175.0621 101.8027,-175.0382 98.8736,-174.9873 95.9829,-174.8152 93.2312,-174.1414 90.0775,-172.7569 86.804,-171.4053 83.9489,-170.1782 81.2427,-168.3293 78.8212,-166.3344 76.4855,-164.4268 73.9478,-161.9847 71.3082,-159.2085 68.9239,-156.3976 66.4243,-153.5718 64.1043,-151.0777 62.2004,-148.4106 60.3584,-145.2558 58.436,-142.0288 56.5142,-138.7505 54.6809,-135.9009 53.015,-133.2061 51.5422,-130.2302 50.0275,-126.9946 48.3323,-123.0958 46.7436,-119.7528 45.3965,-117.0099 44.0515,-114.0037 42.6225,-111.2272 41.2941,-108.3765 39.8123,-104.8293 38.1569,-100.9334 36.4784,-97.1104 34.8495,-93.5631 33.579,-90.3517 32.1373,-87.0567 30.6983,-83.7593 29.2671,-80.4546 27.8467,-77.1298 26.4585,-73.7355 25.0959,-70.332 23.8418,-66.9686 22.4682,-62.8814 21.187,-58.563 19.7435,-54.7904 18.2945,-51.0113 16.8409,-47.187 15.3806,-43.2057 13.8064,-38.8623 12.002,-34.4142 10.5132,-30.1481 8.9324,-25.7841 7.0709,-21.2448 5.4228,-17.28 3.9272,-13.5905 2.3767,-10.1907 1.1113,-7.0799 0.8172,-3.5027 1.2362,-0.4665 1.4737,0.6465 A1.5027,1.5027 0 0 1 -1.4737,1.2335 Z" stroke-linecap="round" fill="#ff8787"/></g></g><g transform="matrix(1, 0, 0, 1, 1158.4824, 11480.3885) scale(0.7427035966231403, 0.7427035966231403)" opacity="1"><g transform="scale(1.34643214944254)"><path d="M-1.427,0.74 T-1.4216,-0.3124 -1.414,-3.0999 -1.4147,-6.5667 -1.4211,-9.9443 -1.4277,-13.3882 -1.5886,-16.6004 -1.9039,-19.6352 -2.1022,-22.781 -2.1591,-26.0723 -2.187,-29.6697 -2.2068,-33.0821 -2.2189,-36.1749 -2.2299,-39.4487 -2.2496,-43.2149 -2.2761,-47.3864 -2.2984,-51.4954 -2.3132,-55.3198 -2.3237,-58.9824 -2.3314,-62.6805 -2.3375,-66.5658 -2.3415,-69.9745 -2.3425,-73.0687 -2.066,-76.4515 -1.7217,-79.7015 -1.6352,-83.0866 -1.6161,-86.7171 -1.6171,-90.3139 -1.4363,-94.3936 -1.1234,-98.312 -0.9589,-101.2434 -0.9166,-103.924 -0.9086,-106.9852 -0.9096,-110.2494 -0.914,-113.5722 -0.9223,-116.9097 -0.9325,-120.074 -0.9428,-123.098 -0.9508,-126.0842 -0.9557,-129.06 -0.9596,-132.0316 -0.9627,-135.002 -0.9651,-137.9721 -0.967,-140.9422 -0.9685,-143.9146 -0.9698,-147.1548 -0.9708,-150.4671 -1.1242,-153.3393 -1.4388,-156.2814 -1.6428,-159.4378 -1.6986,-162.4614 -1.7171,-165.4464 -1.7244,-168.4206 -1.8882,-171.4075 -2.2051,-174.6437 -2.4021,-178.1186 -2.4552,-181.683 -2.4722,-185.354 -2.4806,-188.8731 -2.7509,-191.9839 -3.1042,-195.2688 -3.215,-198.7003 -3.2479,-201.7984 -3.2584,-204.6193 -3.5231,-207.1664 -3.8686,-210.209 -3.9737,-213.5801 -4.0006,-216.8323 -4.0052,-220.1496 -4.0035,-223.4828 -4.2629,-226.7226 -4.6025,-230.1336 -4.7016,-234.0413 -4.727,-238.2506 -4.7334,-242.1912 -4.7349,-245.7925 -4.735,-249.0326 -4.7365,-251.9853 -4.7407,-255.3941 -4.7453,-259.024 -4.7485,-262.4469 -4.5624,-265.974 -4.251,-269.3763 -4.0916,-272.3966 -4.0486,-275.3716 -4.039,-278.3421 -4.0372,-281.3145 -4.0373,-284.5594 -3.7647,-287.9794 -3.4242,-291.072 -3.3364,-293.971 -3.3112,-297.1872 -3.3072,-300.4952 -3.1086,-303.7702 -2.7921,-307.0878 -2.6432,-310.4814 -2.6086,-314.0187 -2.6124,-317.4164 -2.624,-320.5978 -2.6343,-323.6263 -2.6428,-326.6125 -2.6501,-329.8555 -2.6563,-333.3472 -2.6609,-336.7317 -2.6642,-339.909 -2.4715,-343.4017 -2.1544,-346.6343 -1.9984,-349.305 -1.9563,-352.1751 -1.6715,-355.1488 -1.3287,-358.0195 -1.2321,-360.931 -1.2026,-362.4759 A1.9429,1.9429 0 0 1 2.6826,-362.4041 T2.6544,-360.8264 2.5431,-357.6975 2.1953,-354.8692 1.9178,-352.1066 1.86,-349.1054 1.6561,-346.0839 1.3415,-343.0085 1.1842,-339.909 1.1809,-336.7317 1.1763,-333.3472 1.1701,-329.8554 1.1626,-326.6122 1.1535,-323.6253 1.141,-320.5946 1.1216,-317.4065 1.0897,-313.982 1.0228,-310.3446 0.8067,-306.5631 0.4818,-303.3516 0.3215,-300.4896 0.311,-297.1656 0.2835,-293.8918 0.1815,-290.7948 -0.161,-287.7546 -0.4235,-284.5493 -0.4258,-281.3113 -0.4317,-278.3305 -0.4498,-275.3305 -0.5068,-272.2552 -0.7073,-268.9388 -1.0275,-265.6458 -1.1915,-262.4469 -1.1947,-259.024 -1.1992,-255.3941 -1.2033,-251.9855 -1.2045,-249.033 -1.2036,-245.794 -1.2009,-242.1955 -1.1927,-238.2658 -1.1654,-234.1068 -1.0748,-230.3907 -0.7311,-226.9341 -0.4549,-223.4919 -0.4492,-220.1547 -0.4392,-216.8527 -0.4133,-213.6522 -0.3284,-210.498 0.0102,-207.4172 0.2841,-204.6414 0.2884,-201.8197 0.309,-198.7713 0.3906,-195.5365 0.73,-192.2075 1.0036,-188.8853 1.0028,-185.3625 1.0136,-181.7148 1.0605,-178.2499 1.2236,-175.0732 1.539,-171.7316 1.7274,-168.4237 1.7277,-165.4575 1.737,-162.5013 1.7812,-159.5806 1.9371,-156.7814 2.2542,-153.7276 2.4508,-150.4671 2.4498,-147.1548 2.4485,-143.9146 2.447,-140.9422 2.4451,-137.9721 2.4427,-135.002 2.4396,-132.0316 2.4357,-129.06 2.4308,-126.0842 2.4228,-123.098 2.4124,-120.074 2.4021,-116.9095 2.3932,-113.5714 2.3866,-110.2469 2.3779,-106.9749 2.3581,-103.8829 2.3004,-101.1162 2.1047,-97.9568 1.7847,-94.132 1.6115,-90.3096 1.5958,-86.7008 1.5623,-83.0282 1.4591,-79.4398 1.1205,-76.2305 0.8625,-73.0639 0.8615,-69.9745 0.8575,-66.5658 0.8514,-62.6805 0.8437,-58.9824 0.8332,-55.3198 0.8184,-51.4954 0.7961,-47.3864 0.7696,-43.2149 0.7502,-39.4489 0.7397,-36.1756 0.7297,-33.0844 0.7176,-29.678 0.7175,-26.1047 0.7606,-22.8996 0.9222,-20.0437 1.2386,-16.9163 1.4277,-13.3882 1.4211,-9.9443 1.4147,-6.5667 1.414,-3.0999 1.4216,-0.3124 1.427,0.74 A1.427,1.427 0 0 1 -1.427,0.74 Z" stroke-linecap="round" fill="#9398b0"/></g></g><g transform="matrix(1, 0, 0, 1, 1119.8618, 11360.0705) scale(0.7427035966231403, 0.7427035966231403)" opacity="1"><g transform="scale(1.34643214944254)"><path d="M0,-1.5992 T1.0548,-1.5884 3.4007,-1.5703 5.8556,-1.562 8.3017,-1.6823 10.7782,-2.0001 13.1871,-2.2449 15.6308,-2.3114 18.097,-2.3372 20.8412,-2.6088 24.0291,-2.9675 26.9673,-3.0888 29.3807,-3.1272 31.7527,-3.1459 34.2896,-3.158 36.8722,-3.167 39.4649,-3.1739 42.0629,-3.1806 44.6624,-3.1884 47.7428,-3.4589 50.7404,-3.8091 53.2357,-3.9159 55.8104,-3.9458 58.3128,-3.9555 60.71,-3.9594 63.521,-3.9617 66.8915,-3.9635 70.5096,-3.965 74.1953,-3.966 77.4417,-4.1206 80.2104,-4.4345 82.8692,-4.6357 85.4976,-4.6883 88.2845,-4.7027 90.935,-4.7068 93.549,-4.7105 96.4202,-4.7154 99.3627,-4.7193 102.3251,-4.725 105.293,-4.7334 108.4398,-4.7432 111.7285,-4.754 115.1477,-4.764 118.6884,-4.7734 122.0864,-4.7816 125.4426,-4.7878 128.7883,-4.7925 132.2234,-4.7962 135.7671,-4.7991 139.3411,-4.8013 142.8396,-4.8029 146.0498,-4.804 149.0865,-4.8049 152.083,-4.8062 155.1745,-4.5362 158.1731,-4.2007 160.7709,-4.1194 163.3756,-4.1015 166.3601,-3.8297 169.3286,-3.4946 172.0111,-3.4137 174.6333,-3.3955 177.2344,-3.399 179.8353,-3.4102 182.3431,-3.4212 185.3269,-3.4319 188.3007,-3.4408 190.6851,-3.4464 193.2252,-3.4514 196.1609,-3.456 199.216,-3.4599 202.0346,-3.465 204.8658,-3.2577 207.9044,-2.9164 211.0704,-2.768 214.5235,-2.7475 217.5492,-2.7461 220.0923,-2.7502 223.079,-2.758 226.0827,-2.7658 228.9442,-2.7679 232.0129,-3.0924 235.1549,-3.4708 238.1794,-3.528 241.2914,-3.4977 243.6272,-3.4349 244.3495,-3.4069 A1.9169,1.9169 0 0 1 244.3505,0.4269 T243.6281,0.4553 241.6971,0.5173 239.1845,0.5599 236.4395,0.59 233.8432,0.6602 231.586,0.998 228.9879,1.2879 226.0826,1.2857 223.0784,1.2776 220.0896,1.2687 217.5425,1.2604 214.503,1.2469 210.9785,1.214 207.9001,1.0979 204.9375,0.747 202.0346,0.485 199.216,0.4799 196.1609,0.476 193.2252,0.4714 190.6851,0.4664 188.3007,0.4608 185.8384,0.4536 183.3937,0.4451 181.0165,0.4347 178.5885,0.4213 175.977,0.4054 173.3336,0.3818 170.578,0.322 167.4195,0.1078 164.5555,-0.219 161.9629,-0.3916 159.2544,-0.4519 156.2697,-0.6621 153.3557,-0.981 150.5852,-1.1348 147.5801,-1.1355 144.4834,-1.1365 141.0576,-1.1379 137.4169,-1.1398 133.9695,-1.1422 130.5794,-1.1454 127.059,-1.1498 123.7081,-1.1551 120.3375,-1.1624 116.8918,-1.172 113.5077,-1.1821 110.0173,-1.192 106.7792,-1.2024 103.8103,-1.2112 100.8443,-1.2176 97.8889,-1.2224 94.9714,-1.2265 92.1904,-1.2296 89.5682,-1.229 86.8893,-1.222 84.3348,-1.1965 81.3874,-1.0309 77.8233,-0.6895 74.1953,-0.494 70.5096,-0.495 66.8916,-0.4963 63.5216,-0.4979 60.712,-0.499 58.3193,-0.4989 55.8382,-0.494 53.3281,-0.4712 50.4638,-0.3204 47.3966,0.0123 44.6624,0.2084 42.063,0.2007 39.4651,0.1941 36.8727,0.1874 34.2917,0.1796 31.7597,0.1716 29.404,0.1677 27.0403,0.1829 24.3768,0.2541 21.6655,0.5903 19.2128,0.8693 16.6969,0.8665 13.803,0.899 10.779,1.2432 8.1684,1.5572 5.8556,1.562 3.4007,1.5703 1.0548,1.5884 0,1.5992 A1.5992,1.5992 0 0 1 0,-1.5992 Z" stroke-linecap="round" fill="#9398b0"/></g></g><g transform="matrix(1, 0, 0, 1, 1263.2036, 11257.5774) scale(0.7427035966231403, 0.7427035966231403)" opacity="1"><g transform="scale(1.34643214944254)"><path d="M-1.3712,1.1991 T-1.7145,0.1326 -1.889,-2.6498 -0.5254,-5.5193 2.0603,-5.9508 3.3421,-3.6119 1.9601,-0.8518 0.6874,0.2915 A1.4528,1.4528 0 0 1 -0.639,-2.2936 T0.3169,-3.2002 0.9605,-2.9512 1.0097,-0.7574 1.3712,0.2809 A1.4461,1.4461 0 0 1 -1.3712,1.1991 ZM-0.8913,0.127 T-1.2784,-0.2078 -2.1516,-1.9716 -1.9074,-4.4347 0.0948,-5.3908 2.2971,-3.8944 3.2158,-0.8611 2.2607,1.6543 0.0252,2.7706 -1.2667,2.9865 A1.5131,1.5131 0 0 1 -1.7133,-0.0065 T-0.6937,-0.0533 0.3036,-1.3611 0.6106,-2.3756 0.9397,-2.1291 A1.4528,1.4528 0 0 1 -0.8913,0.127 Z" stroke-linecap="round" fill="#e03131"/></g></g><g transform="matrix(1, 0, 0, 1, 1297.368, 11210.0444) scale(0.7427035966231403, 0.7427035966231403)" opacity="1"><g transform="scale(1.34643214944254)"><path d="M-1.0509,0.3109 T-1.5013,-0.1785 -3.2633,-0.2771 -5.7792,1.3158 -8.373,4.3129 -10.7264,7.8485 -12.5206,11.2734 -13.7714,15.1506 -14.1918,17.3435 A1.4326,1.4326 0 0 1 -17.0082,16.8165 T-16.7903,15.5548 -16.3171,12.9718 -15.2417,9.9666 -13.3082,6.2929 -11.4298,3.2738 -9.1114,0.5791 -5.7485,-2.1558 -2.0485,-3.0734 0.4465,-2.3562 1.0509,-1.7909 A1.4861,1.4861 0 0 1 -1.0509,0.3109 Z" stroke-linecap="round" fill="#e03131"/></g></g><g transform="matrix(1, 0, 0, 1, 1275.8296, 11219.6996) scale(0.7427035966231403, 0.7427035966231403)" opacity="1"><g transform="scale(1.34643214944254)"><path d="M1.6854,0.0172 T2.1995,1.2527 3.5553,4.3416 5.0021,7.3636 6.6086,7.864 8.8313,6.6439 11.2613,5.5811 13.3566,4.7532 14.2435,4.4361 A1.6216,1.6216 0 0 1 15.4565,7.4439 T14.5979,7.8308 12.0602,8.9331 9.3117,10.2943 6.5108,11.3395 3.5816,10.8622 1.7817,8.8504 0.2876,5.8131 -1.1447,2.6869 -1.6854,1.4628 A1.8338,1.8338 0 0 1 1.6854,0.0172 Z" stroke-linecap="round" fill="#e03131"/></g></g><g transform="matrix(1, 0, 0, 1, 1304.795, 11198.9039) scale(0.7427035966231403, 0.7427035966231403)" opacity="1"><g transform="scale(1.34643214944254)"><path d="M1.3313,-0.4998 T1.8684,0.9019 2.717,3.4693 3.2921,6.6993 3.6439,9.4969 3.7322,10.2303 A1.5118,1.5118 0 0 1 0.7278,10.5697 T0.5862,8.8235 0.0744,5.1965 -0.8136,1.9077 -1.3313,0.4998 A1.422,1.422 0 0 1 1.3313,-0.4998 ZM0.7186,10.4322 T0.7125,9.8008 1.2248,7.6489 2.6307,5.036 4.6539,3.3227 7.5482,2.7286 10.3144,3.8921 11.0995,6.9867 10.877,8.9444 A1.5259,1.5259 0 0 1 8.0124,7.8918 T7.7188,6.6163 6.2016,5.8779 4.3407,7.8425 3.7223,9.8188 3.7414,10.3678 A1.5118,1.5118 0 0 1 0.7186,10.4322 ZM8.8025,9.8023 T8.6764,9.7427 8.5503,9.6832 A1.524,1.524 0 0 1 9.8332,6.9183 T9.9601,6.9761 10.0869,7.0339 A1.5259,1.5259 0 0 1 8.8025,9.8023 ZM7.7276,7.8778 T7.8454,7.4886 8.6409,6.0957 10.3781,4.255 13.1627,2.7079 16.2656,1.5772 18.821,1.0611 21.1691,1.9518 22.4306,4.4853 22.2587,7.2207 21.3338,10.0356 20.6715,11.6623 A1.4583,1.4583 0 0 1 17.9485,10.6177 T18.2485,9.7817 18.9908,7.6114 18.8843,5.1169 16.9431,4.3861 14.4383,5.2408 12.0946,6.8174 10.7596,8.3462 10.656,8.7237 A1.524,1.524 0 0 1 7.7276,7.8778 Z" stroke-linecap="round" fill="#e03131"/></g></g><g transform="matrix(1, 0, 0, 1, 1337.474, 11201.8747) scale(0.7427035966231403, 0.7427035966231403)" opacity="1"><g transform="scale(1.34643214944254)"><path d="M-1.3557,0.8127 T-1.8843,-0.0905 -2.4129,-0.9937 A1.5586,1.5586 0 0 1 0.2606,-2.5965 T0.8081,-1.7046 1.3557,-0.8127 A1.5806,1.5806 0 0 1 -1.3557,0.8127 ZM-0.3949,-0.3933 T-0.8824,-0.1746 -1.6603,1.6513 -0.7764,3.5088 1.3483,2.977 3.5033,2.4687 5.9377,3.4219 7.8613,4.3088 8.555,4.5165 A1.4746,1.4746 0 0 1 7.785,7.3635 T7.0811,7.1932 4.823,6.0516 2.114,6.0882 -0.7509,7.2786 -3.6216,6.1063 -4.7976,2.8254 -3.9811,-0.7924 -2.4534,-2.8405 -1.7575,-3.1969 A1.5586,1.5586 0 0 1 -0.3949,-0.3933 Z" stroke-linecap="round" fill="#e03131"/></g></g><g transform="matrix(1, 0, 0, 1, 1349.3572, 11190.7341) scale(0.7427035966231403, 0.7427035966231403)" opacity="1"><g transform="scale(1.34643214944254)"><path d="M1.4629,-0.1822 T1.6393,1.2224 1.9728,4.5135 2.3379,7.8203 2.7479,10.9963 3.2544,13.2931 3.5589,13.8343 A1.5778,1.5778 0 0 1 1.1244,15.842 T0.4591,14.4019 -0.3113,11.5265 -0.6415,8.3425 -0.9911,4.793 -1.2892,1.5872 -1.4629,0.1822 A1.4742,1.4742 0 0 1 1.4629,-0.1822 ZM1.7248,13.3859 T1.9814,13.3093 3.142,12.1221 5.1875,9.8785 6.3289,8.7454 A1.4287,1.4287 0 0 1 8.3673,10.7479 T8.0063,11.129 6.6283,12.6339 4.8322,14.7592 3.5058,16.0256 2.9586,16.2904 A1.5778,1.5778 0 0 1 1.7248,13.3859 ZM8.7335,10.0961 T8.5583,10.7652 8.0269,12.562 8.8456,13.9891 11.5315,13.9412 13.0424,13.5938 A1.2982,1.2982 0 0 1 13.6976,16.1062 T11.9451,16.6099 8.5891,17.1973 6.0263,16.461 4.9472,14.3649 5.2746,11.7458 5.8423,9.9 5.9627,9.3972 A1.4287,1.4287 0 0 1 8.7335,10.0961 Z" stroke-linecap="round" fill="#e03131"/></g></g><g transform="matrix(1, 0, 0, 1, 1370.8956, 11195.933) scale(0.7427035966231403, 0.7427035966231403)" opacity="1"><g transform="scale(1.34643214944254)"><path d="M0.9421,1.9169 T0.061,2.6116 -1.4069,4.1143 -1.9936,4.9223 A1.4752,1.4752 0 0 1 -4.7143,3.7807 T-3.7019,2.382 -1.8158,0.2732 -0.9421,-0.4369 A1.5075,1.5075 0 0 1 0.9421,1.9169 ZM-2.1179,3.5462 T-1.8685,3.9547 -0.4122,5.0201 1.6168,6.9626 1.9806,9.6235 0.363,11.6019 -2.2242,12.3401 -4.3813,12.5025 -5.1108,12.5299 A1.3927,1.3927 0 0 1 -5.2892,9.7501 T-4.5622,9.684 -2.5742,8.6867 -2.5737,7.0105 -4.2121,5.7111 -4.59,5.1568 A1.4752,1.4752 0 0 1 -2.1179,3.5462 Z" stroke-linecap="round" fill="#e03131"/></g></g><g transform="matrix(1, 0, 0, 1, 1377.58, 11201.132) scale(0.7427035966231403, 0.7427035966231403)" opacity="1"><g transform="scale(1.34643214944254)"><path d="M1.1529,-0.1436 T1.3543,1.2579 1.7386,4.7193 1.9878,8.6142 2.0592,11.138 2.0644,11.8267 A1.3404,1.3404 0 0 1 -0.6161,11.8545 T-0.6251,11.1706 -0.6462,8.7006 -0.7569,4.9372 -1.0042,1.5517 -1.1529,0.1436 A1.1619,1.1619 0 0 1 1.1529,-0.1436 ZM1.3602,13.0205 T1.0077,13.1955 0.2628,13.5664 -0.1296,13.7622 A1.2862,1.2862 0 0 1 -1.3504,11.4978 T-0.9712,11.2776 -0.2519,10.8591 0.0881,10.6608 A1.3404,1.3404 0 0 1 1.3602,13.0205 Z" stroke-linecap="round" fill="#e03131"/></g></g><g transform="matrix(1, 0, 0, 1, 1377.58, 11197.4185) scale(0.7427035966231403, 0.7427035966231403)" opacity="1"><g transform="scale(1.34643214944254)"><path d="M-0.3185,-1.5966 T0.562,-1.7575 2.9748,-2.0595 5.7655,-1.9704 8.3711,-0.6631 10.028,1.7222 9.9067,4.4937 8.6845,7.1041 6.0732,8.8346 3.35,9.5171 2.4472,9.6161 A1.4623,1.4623 0 0 1 2.0128,6.7239 T2.9049,6.5534 5.1411,5.5521 6.7504,3.1484 5.8475,1.2563 3.3732,1.0778 1.1928,1.4075 0.3185,1.5966 A1.6281,1.6281 0 0 1 -0.3185,-1.5966 Z" stroke-linecap="round" fill="#e03131"/></g></g><g transform="matrix(1, 0, 0, 1, 1390.2059, 11196.6757) scale(0.7427035966231403, 0.7427035966231403)" opacity="1"><g transform="scale(1.34643214944254)"><path d="M1.2293,0.74 T1.2604,1.9698 1.3199,4.3717 2.0379,6.6552 3.7415,6.8638 5.1591,4.685 5.5134,2.6478 5.4639,1.8868 A1.2792,1.2792 0 0 1 7.8961,1.0932 T8.1143,2.0298 7.923,4.3514 6.7631,7.1911 4.6322,9.5002 1.6842,9.7709 -0.6158,7.3723 -1.3199,4.3785 -1.2604,1.9698 -1.2293,0.74 A1.2293,1.2293 0 0 1 1.2293,0.74 ZM7.9517,1.3516 T7.9916,2.1072 8.3846,4.1662 9.949,6.3155 11.1605,7.1615 A1.2631,1.2631 0 0 1 9.6395,9.1785 T8.892,8.6288 6.9883,6.6442 5.6947,3.7136 5.4827,1.9231 5.4083,1.6284 A1.2792,1.2792 0 0 1 7.9517,1.3516 Z" stroke-linecap="round" fill="#e03131"/></g></g><g transform="matrix(1, 0, 0, 1, 1402.0892, 11197.4185) scale(0.7427035966231403, 0.7427035966231403)" opacity="1"><g transform="scale(1.34643214944254)"><path d="M1.2102,0.5392 T1.4121,1.5896 1.8367,3.5522 2.0592,4.4645 A1.3393,1.3393 0 0 1 -0.0864,6.0679 T-0.5002,4.5635 -1.0621,2 -1.2102,0.9408 A1.2268,1.2268 0 0 1 1.2102,0.5392 ZM-0.0598,4.4301 T0.2355,4.0639 1.1683,2.6233 2.6696,0.3657 4.8165,-1.0887 6.0996,-1.3599 A1.2181,1.2181 0 0 1 5.6172,1.028 T5.561,0.91 4.782,1.7856 3.3389,4.0708 2.3256,5.7323 2.0327,6.1022 A1.3393,1.3393 0 0 1 -0.0598,4.4301 ZM7.0106,-0.5611 T7.2087,0.0043 7.8749,2.2633 8.5154,4.8304 8.6876,5.7039 A1.2796,1.2796 0 0 1 6.1724,6.1761 T6.0161,5.2996 5.4735,2.8941 4.8967,0.7971 4.7062,0.2291 A1.2181,1.2181 0 0 1 7.0106,-0.5611 Z" stroke-linecap="round" fill="#e03131"/></g></g><g transform="matrix(1, 0, 0, 1, 1413.9725, 11183.3071) scale(0.7427035966231403, 0.7427035966231403)" opacity="1"><g transform="scale(1.34643214944254)"><path d="M1.4137,-0.3546 T1.7558,1.0529 2.2931,3.6122 2.4201,6.2023 2.3177,8.8225 2.2658,12.1894 2.3885,15.6509 2.5289,16.9273 A1.5035,1.5035 0 0 1 -0.325,17.8745 T-0.5206,16.1104 -0.6665,12.1247 -0.5672,8.6827 -0.603,5.3105 -1.051,1.7567 -1.4137,0.3546 A1.4575,1.4575 0 0 1 1.4137,-0.3546 ZM1.6256,15.9915 T1.8919,16.092 2.1581,16.1924 A1.5006,1.5006 0 0 1 1.1129,19.0058 T0.8456,18.908 0.5783,18.8103 A1.5035,1.5035 0 0 1 1.6256,15.9915 ZM0.6057,16.5077 T0.9244,16.2132 2.3907,14.767 3.5383,13.6152 A1.4026,1.4026 0 0 1 5.2426,15.8432 T5.0396,15.9755 4.0634,17.0981 2.9778,18.3895 2.6654,18.6906 A1.5006,1.5006 0 0 1 0.6057,16.5077 ZM4.5974,13.342 T4.788,13.3764 4.9786,13.4107 A1.3908,1.3908 0 0 1 4.5682,16.162 T4.3759,16.1392 4.1836,16.1165 A1.4026,1.4026 0 0 1 4.5974,13.342 ZM6.1146,14.4181 T6.2079,14.7902 6.3892,16.7431 6.6001,18.4609 6.7231,18.5978 A1.3447,1.3447 0 0 1 4.3111,19.7876 T4.0546,19.1552 3.7235,17.2014 3.5406,15.5174 3.4322,15.1546 A1.3908,1.3908 0 0 1 6.1146,14.4181 ZM5.5994,17.8505 T6.0512,17.8874 7.0065,17.9648 7.51,18.0052 A1.3072,1.3072 0 0 1 7.35,20.6148 T6.8454,20.5934 5.8878,20.5535 5.4348,20.5349 A1.3447,1.3447 0 0 1 5.5994,17.8505 Z" stroke-linecap="round" fill="#e03131"/></g></g><g transform="matrix(1, 0, 0, 1, 1429.5692, 11176.6228) scale(0.7427035966231403, 0.7427035966231403)" opacity="1"><g transform="scale(1.34643214944254)"><path d="M1.4851,0 T1.4735,1.2298 1.4619,3.6351 1.4719,6.1325 1.5012,8.8534 1.5415,11.6922 1.5772,14.4172 1.7733,16.9818 2.3109,19.4585 3.5856,21.1879 4.504,21.7199 A1.5234,1.5234 0 0 1 2.916,24.3201 T1.4609,23.4024 -0.6244,20.5764 -1.4232,17.1868 -1.5772,14.4188 -1.5415,11.6922 -1.5012,8.8534 -1.4719,6.1325 -1.4619,3.6351 -1.4735,1.2298 -1.4851,0 A1.4851,1.4851 0 0 1 1.4851,0 Z" stroke-linecap="round" fill="#e03131"/></g></g><g transform="matrix(1, 0, 0, 1, 1432.54, 11190.7341) scale(0.7427035966231403, 0.7427035966231403)" opacity="1"><g transform="scale(1.34643214944254)"><path d="M0.4571,1.3682 T-0.5897,1.7465 -3.3724,2.5953 -6.8738,3.3885 -8.6395,3.7112 A1.5057,1.5057 0 0 1 -9.1805,0.7488 T-7.6171,0.4634 -4.3182,-0.2686 -1.5199,-1.0417 -0.4571,-1.3682 A1.4426,1.4426 0 0 1 0.4571,1.3682 Z" stroke-linecap="round" fill="#e03131"/></g></g><g transform="matrix(1, 0, 0, 1, 1439.9671, 11201.132) scale(0.7427035966231403, 0.7427035966231403)" opacity="1"><g transform="scale(1.34643214944254)"><path d="M 0 0 m -2.10316572594003, 0 a 2.10316572594003,2.10316572594003 0 1,1 4.20633145188006,0 a 2.10316572594003,2.10316572594003 0 1,1 -4.20633145188006,0" stroke-linecap="round" fill="#e03131"/></g></g><g transform="matrix(1, 0, 0, 1, 1382.0362, 11227.1266) scale(0.7427035966231403, 0.7427035966231403)" opacity="1"><g transform="scale(1.34643214944254)"><path d="M1.5077,0 T1.5338,1.2302 1.3943,4.244 1.1442,7.4217 0.8041,10.0222 0.2745,13.1347 0.0007,15.0407 A1.5028,1.5028 0 0 1 -2.9807,14.6593 T-2.8635,13.6202 -2.4376,10.593 -2.0287,7.154 -1.7443,4.081 -1.5338,1.2294 -1.5077,0 A1.5077,1.5077 0 0 1 1.5077,0 Z" stroke-linecap="round" fill="#ffc034"/></g></g><g transform="matrix(1, 0, 0, 1, 1380.5508, 11224.8985) scale(0.7427035966231403, 0.7427035966231403)" opacity="1"><g transform="scale(1.34643214944254)"><path d="M0.5039,-1.1871 T1.3788,-1.3874 3.7884,-1.9225 6.5984,-2.5899 9.39,-3.1874 10.9062,-3.4522 A1.2444,1.2444 0 0 1 11.3738,-1.0078 T10.1202,-0.7428 7.4611,-0.0967 4.4004,0.586 1.8608,1.0374 0.9761,1.1871 A1.2104,1.2104 0 0 1 0.5039,-1.1871 Z" stroke-linecap="round" fill="#ffc034"/></g></g><g transform="matrix(1, 0, 0, 1, 1380.5508, 11232.3255) scale(0.7427035966231403, 0.7427035966231403)" opacity="1"><g transform="scale(1.34643214944254)"><path d="M0.74,-1.3041 T1.7948,-1.3309 4.3615,-1.5408 7.6956,-1.8744 9.5178,-2.0249 A1.2927,1.2927 0 0 1 9.8022,0.5449 T8.1009,0.7843 4.6246,1.1907 1.7948,1.3309 0.74,1.3041 A1.3041,1.3041 0 0 1 0.74,-1.3041 Z" stroke-linecap="round" fill="#ffc034"/></g></g><g transform="matrix(1, 0, 0, 1, 1391.6913, 11233.8109) scale(0.7427035966231403, 0.7427035966231403)" opacity="1"><g transform="scale(1.34643214944254)"><path d="M1.2643,0.5601 T1.4716,1.7799 2.9919,3.7027 5.0928,3.5516 6.0645,1.9513 6.2482,1.2052 A1.2156,1.2156 0 0 1 8.6118,1.7748 T8.3876,2.7215 7.4581,4.848 5.3157,6.5396 2.4949,6.6836 0.0662,4.8576 -1.1216,2.1597 -1.2643,0.9199 A1.277,1.277 0 0 1 1.2643,0.5601 ZM8.64,1.6071 T8.5507,1.9244 8.925,3.4288 10.248,5.144 11.1073,5.672 A1.2314,1.2314 0 0 1 9.6927,7.688 T8.4351,6.7306 6.6747,4.426 6.196,2.2258 6.22,1.3729 A1.2156,1.2156 0 0 1 8.64,1.6071 Z" stroke-linecap="round" fill="#ffc034"/></g></g><g transform="matrix(1, 0, 0, 1, 1405.06, 11234.5536) scale(0.7427035966231403, 0.7427035966231403)" opacity="1"><g transform="scale(1.34643214944254)"><path d="M1.1855,-0.2974 T1.5851,1.0956 2.4083,3.7046 2.8319,4.9206 A1.3901,1.3901 0 0 1 0.412,6.2895 T-0.0816,4.7101 -0.8803,1.714 -1.1855,0.2974 A1.2222,1.2222 0 0 1 1.1855,-0.2974 ZM1.9571,4.256 T2.2761,4.3347 2.595,4.4134 A1.3911,1.3911 0 0 1 1.9242,7.1136 T1.6055,7.0339 1.2868,6.9542 A1.3901,1.3901 0 0 1 1.9571,4.256 ZM1.0381,5.0978 T1.2086,4.7909 2.0165,3.4643 3.3319,1.2804 4.9244,-0.8914 5.8389,-1.8989 A1.2827,1.2827 0 0 1 7.3801,0.152 T7.1441,0.2856 6.2446,1.5665 4.6966,4.2618 3.6465,6.1196 3.4811,6.4292 A1.3911,1.3911 0 0 1 1.0381,5.0978 ZM7.5315,-1.7652 T7.9205,-1.3684 8.7924,0.5403 10.0584,3.7187 10.8415,5.3853 A1.3053,1.3053 0 0 1 8.4785,6.4947 T8.0147,5.5355 6.9683,2.6637 6.0365,0.3847 5.6875,0.0183 A1.2827,1.2827 0 0 1 7.5315,-1.7652 Z" stroke-linecap="round" fill="#ffc034"/></g></g><g transform="matrix(1, 0, 0, 1, 1419.9141, 11220.4423) scale(0.7427035966231403, 0.7427035966231403)" opacity="1"><g transform="scale(1.34643214944254)"><path d="M1.6352,0 T1.6309,1.2298 1.6277,3.6357 1.4607,6.4041 1.2173,9.2754 1.0839,12.6371 0.9957,16.5252 1.0714,18.412 1.177,18.4933 A1.6979,1.6979 0 0 1 -1.9403,19.8401 T-2.1772,19.1286 -2.4028,16.5278 -2.3013,12.479 -2.1018,8.966 -1.8107,6.2109 -1.6277,3.6345 -1.6309,1.2298 -1.6352,0 A1.6352,1.6352 0 0 1 1.6352,0 ZM-0.7332,17.5056 T-0.3458,17.4645 1.1482,16.3798 3.2086,14.1881 4.1623,13.04 A1.4691,1.4691 0 0 1 6.1205,15.2306 T5.864,15.4363 4.7491,17.0731 2.7077,19.4606 0.7474,20.6224 -0.0301,20.8278 A1.6979,1.6979 0 0 1 -0.7332,17.5056 ZM6.61,14.0962 T6.6192,14.6014 7.2888,16.2311 9.0067,17.6527 10.0642,17.9498 A1.419,1.419 0 0 1 9.2558,20.6702 T7.7731,20.2126 5.2946,18.658 4.0044,16.4053 3.6913,14.712 3.6728,14.1743 A1.4691,1.4691 0 0 1 6.61,14.0962 Z" stroke-linecap="round" fill="#ffc034"/></g></g><g transform="matrix(1, 0, 0, 1, 1441.4525, 11230.8401) scale(0.7427035966231403, 0.7427035966231403)" opacity="1"><g transform="scale(1.34643214944254)"><path d="M0.7602,0.5246 T-0.1106,1.0628 -1.9346,2.4734 -1.9182,4.1335 -0.3662,6.5488 0.2161,8.1767 A1.5274,1.5274 0 0 1 -2.8149,8.5576 T-3.0713,7.6833 -4.3421,5.5591 -5.2931,2.8797 -3.8789,0.2395 -1.6442,-1.488 -0.7602,-2.0046 A1.4755,1.4755 0 0 1 0.7602,0.5246 ZM-0.8273,9.8198 T-1.2231,9.9495 -2.9959,10.2215 -6.2036,9.5408 -8.0342,8.7179 A1.4226,1.4226 0 0 1 -6.8258,6.1421 T-6.0084,6.5005 -3.8757,7.0137 -2.1659,7.0415 -1.7714,6.9145 A1.5274,1.5274 0 0 1 -0.8273,9.8198 Z" stroke-linecap="round" fill="#ffc034"/></g></g><g transform="matrix(1, 0, 0, 1, 1445.9087, 11234.5536) scale(0.7427035966231403, 0.7427035966231403)" opacity="1"><g transform="scale(1.34643214944254)"><path d="M1.1608,-1.1608 T1.8585,-0.446 3.2157,1.3158 4.5592,3.7839 5.7591,6.2637 6.9029,9.1235 7.6724,12.8717 7.4982,16.1361 5.671,18.5586 2.8329,19.8956 -0.3808,19.4269 -3.687,17.614 -6.1756,15.2329 -7.601,13.2822 -7.9568,12.6002 A1.4659,1.4659 0 0 1 -5.4032,11.1598 T-4.8423,12.1807 -3.1566,14.1271 -0.8186,15.772 1.6646,16.4782 3.6941,15.4517 4.4343,13.2721 3.869,10.4206 2.8143,7.6661 1.2795,4.5687 -0.4537,1.8508 -1.1608,1.1608 A1.6416,1.6416 0 0 1 1.1608,-1.1608 Z" stroke-linecap="round" fill="#ffc034"/></g></g><g transform="matrix(1, 0, 0, 1, 1458.5347, 11234.5536) scale(0.7427035966231403, 0.7427035966231403)" opacity="1"><g transform="scale(1.34643214944254)"><path d="M0.9442,1.2575 T0.2522,1.7755 -1.0355,3.4188 -0.4169,4.6685 1.6483,3.3696 2.7752,1.1333 3.0512,0.3205 A1.4699,1.4699 0 0 1 5.8688,1.1595 T5.6552,1.9909 4.6092,4.6806 2.4189,7.5129 -0.7817,8.3603 -3.7651,6.6635 -4.3569,3.4365 -3.089,0.7979 -1.657,-0.7207 -0.9442,-1.2575 A1.5725,1.5725 0 0 1 0.9442,1.2575 Z" stroke-linecap="round" fill="#ffc034"/></g></g><g transform="matrix(1, 0, 0, 1, 1465.219, 11233.0682) scale(0.7427035966231403, 0.7427035966231403)" opacity="1"><g transform="scale(1.34643214944254)"><path d="M1.2694,0 T1.2703,1.0548 1.3021,3.7601 1.333,5.4107 A1.333,1.333 0 0 1 -1.333,5.4107 T-1.3021,3.7601 -1.2703,1.0548 -1.2694,0 A1.2694,1.2694 0 0 1 1.2694,0 ZM0.7755,4.3265 T0.9513,4.4507 1.127,4.5748 A1.3355,1.3355 0 0 1 -0.427,6.7472 T-0.6012,6.621 -0.7755,6.4948 A1.333,1.333 0 0 1 0.7755,4.3265 ZM-0.8345,5.0442 T-0.4726,4.3628 0.5331,2.6997 1.9682,0.8458 4.1001,-0.5103 6.1397,-0.8724 6.8386,-0.7505 A1.2761,1.2761 0 0 1 6.151,1.7072 T5.0386,2.1037 3.0048,3.8482 1.8091,5.737 1.5345,6.2778 A1.3355,1.3355 0 0 1 -0.8345,5.0442 ZM7.6205,-0.1226 T7.8444,0.2907 8.4014,2.8588 8.689,6.2336 8.6436,7.4537 A1.2138,1.2138 0 0 1 6.2164,7.4063 T6.2185,6.1855 6.0133,3.4371 5.5875,1.4945 5.3691,1.0794 A1.2761,1.2761 0 0 1 7.6205,-0.1226 Z" stroke-linecap="round" fill="#ffc034"/></g></g><g transform="matrix(1, 0, 0, 1, 1474.8741, 11236.039) scale(0.7427035966231403, 0.7427035966231403)" opacity="1"><g transform="scale(1.34643214944254)"><path d="M0.6116,-1.219 T1.2875,-0.8804 2.9305,-1.5 4.3194,-3.6356 4.7414,-4.8129 A1.37,1.37 0 0 1 7.4435,-4.3596 T6.8299,-2.6213 5.089,0.3869 2.4039,1.8041 0.1173,1.5852 -0.6116,1.219 A1.3638,1.3638 0 0 1 0.6116,-1.219 ZM6.6529,-3.3362 T6.2824,-3.2042 5.4478,-1.9885 4.7766,0.3189 6.4538,1.6563 9.6814,1.6734 11.0245,1.5769 A1.3979,1.3979 0 0 1 11.2555,4.3631 T9.9147,4.489 6.351,4.5121 2.9647,2.9715 2.1542,-0.302 3.3954,-3.6731 4.9079,-5.5223 5.532,-5.8363 A1.37,1.37 0 0 1 6.6529,-3.3362 Z" stroke-linecap="round" fill="#ffc034"/></g></g><g transform="matrix(1, 0, 0, 1, 1491.9563, 11230.8401) scale(0.7427035966231403, 0.7427035966231403)" opacity="1"><g transform="scale(1.34643214944254)"><path d="M1.3322,0.9296 T1.1964,2.1649 0.9953,4.2051 0.9301,5.0099 A1.4738,1.4738 0 0 1 -1.9991,4.6817 T-1.8798,3.8403 -1.5464,1.7747 -1.3322,0.5504 A1.3456,1.3456 0 0 1 1.3322,0.9296 ZM0.2796,3.6173 T0.4058,3.7014 0.5319,3.7855 A1.4729,1.4729 0 0 1 -1.0953,6.2412 T-1.2219,6.1578 -1.3486,6.0744 A1.4738,1.4738 0 0 1 0.2796,3.6173 ZM-1.4409,4.1047 T-1.1953,3.7992 0.0269,2.4977 2.4036,0.6118 5.2833,-0.6521 8.1351,-0.1825 9.811,2.1341 10.025,5.4941 9.7746,8.2849 9.6138,9.1889 A1.4705,1.4705 0 0 1 6.7262,8.6311 T7.0717,7.0847 7.3713,4.1366 6.2424,2.3803 4.0945,2.7437 2.1913,4.3809 1.1152,5.611 0.8775,5.922 A1.4729,1.4729 0 0 1 -1.4409,4.1047 Z" stroke-linecap="round" fill="#ffc034"/></g></g><g transform="matrix(1, 0, 0, 1, 1447.3941, 11223.4131) scale(0.7427035966231403, 0.7427035966231403)" opacity="1"><g transform="scale(1.34643214944254)"><path d="M 0 0 m -2.10316572594003, 0 a 2.10316572594003,2.10316572594003 0 1,1 4.20633145188006,0 a 2.10316572594003,2.10316572594003 0 1,1 -4.20633145188006,0" stroke-linecap="round" fill="#ffc034"/></g></g><g transform="matrix(1, 0, 0, 1, 1518.6937, 11219.6996) scale(0.7427035966231403, 0.7427035966231403)" opacity="1"><g transform="scale(1.34643214944254)"><path d="M1.5414,-0.3438 T1.8859,1.2379 2.4255,4.0536 2.7845,7.2034 3.0039,11.0085 2.8047,14.5881 2.056,18.022 1.562,19.7656 A1.6271,1.6271 0 0 1 -1.562,18.8544 T-1.1166,17.377 -0.4072,14.4163 -0.1708,11.1199 -0.3333,7.5391 -0.6445,4.6356 -1.1811,1.9218 -1.5414,0.3438 A1.5792,1.5792 0 0 1 1.5414,-0.3438 ZM-1.5526,18.8234 T-1.2082,17.7529 -0.028,15.1548 1.6233,12.4298 3.5184,10.5994 4.598,9.9665 A1.5567,1.5567 0 0 1 5.6456,12.8982 T5.449,12.9414 4.4682,13.9446 2.8847,16.4717 1.8191,18.9177 1.5526,19.7966 A1.6271,1.6271 0 0 1 -1.5526,18.8234 ZM6.0704,10.1981 T6.4469,10.4842 7.6299,11.9997 8.9286,15.1122 9.5303,19.2117 9.6398,21.4282 A1.474,1.474 0 0 1 6.7002,21.6518 T6.5842,20.5221 6.2619,17.6624 5.4749,14.5799 4.5337,12.947 4.1732,12.6666 A1.5567,1.5567 0 0 1 6.0704,10.1981 Z" stroke-linecap="round" fill="#ffc034"/></g></g><g transform="matrix(1, 0, 0, 1, 1529.8342, 11233.8109) scale(0.7427035966231403, 0.7427035966231403)" opacity="1"><g transform="scale(1.34643214944254)"><path d="M1.1598,-0.3875 T1.5332,0.6602 2.5581,2.8893 3.9647,4.4811 4.7199,4.8916 A1.358,1.358 0 0 1 5.5099,7.4901 T4.2254,7.4143 2.0221,6.5101 0.3031,4.0964 -0.8285,1.4493 -1.1598,0.3875 A1.2228,1.2228 0 0 1 1.1598,-0.3875 ZM3.8891,5.6065 T4.0858,5.1979 4.9037,3.5721 5.9598,0.8823 6.7138,-1.5788 7.0329,-2.5672 A1.186,1.186 0 0 1 9.3071,-1.8928 T9.0358,-0.8903 8.3283,1.8158 7.3099,4.7371 6.5343,6.3651 6.3407,6.7752 A1.358,1.358 0 0 1 3.8891,5.6065 Z" stroke-linecap="round" fill="#ffc034"/></g></g><g transform="matrix(1, 0, 0, 1, 1540.2321, 11235.2963) scale(0.7427035966231403, 0.7427035966231403)" opacity="1"><g transform="scale(1.34643214944254)"><path d="M-0.182,-1.0971 T0.8676,-1.2912 2.993,-1.9992 4.5337,-3.5969 4.9326,-4.8209 4.8665,-4.9612 A1.1806,1.1806 0 0 1 7.2114,-5.2372 T7.2341,-4.6227 6.2858,-2.271 3.8083,0.1258 1.2419,0.9412 0.182,1.0971 A1.1121,1.1121 0 0 1 -0.182,-1.0971 ZM6.3677,-3.9653 T6.0207,-3.8875 4.876,-2.5419 3.6344,0.1889 3.6178,2.9297 5.2567,4.1975 7.7325,3.2237 9.5415,0.8804 10.7806,-2.1284 12.7831,-4.5644 15.5394,-5.5629 18.7494,-6.107 20.5116,-6.4594 A1.292,1.292 0 0 1 21.0884,-3.9406 T19.1437,-3.4442 15.497,-2.6441 13.2417,-0.9737 11.9521,2.0775 9.8502,4.9796 6.7847,6.5267 3.6156,6.205 1.5747,4.2017 1.2678,1.1786 2.1631,-2.2389 3.643,-4.9098 5.1013,-6.0336 5.7102,-6.233 A1.1806,1.1806 0 0 1 6.3677,-3.9653 Z" stroke-linecap="round" fill="#ffc034"/></g></g><g transform="matrix(1, 0, 0, 1, 1561.0278, 11216.7287) scale(0.7427035966231403, 0.7427035966231403)" opacity="1"><g transform="scale(1.34643214944254)"><path d="M1.3497,-0.1921 T1.4933,1.0422 1.7779,4.3899 1.9518,7.7773 2.0101,10.2471 2.0693,13.4689 2.2639,16.9309 2.425,18.367 A1.397,1.397 0 0 1 -0.2402,19.2055 T-0.4398,17.3551 -0.6277,13.4888 -0.6173,10.2887 -0.6372,7.8632 -0.7962,4.6324 -1.1433,1.4174 -1.3497,0.1921 A1.3633,1.3633 0 0 1 1.3497,-0.1921 ZM1.1261,17.3897 T1.4237,17.476 2.4784,16.2383 4.0072,13.7758 4.779,12.6373 A1.2539,1.2539 0 0 1 6.9401,13.9097 T6.559,14.5899 5.4931,16.4274 3.8075,18.8258 1.9328,20.1248 1.0587,20.1828 A1.397,1.397 0 0 1 1.1261,17.3897 ZM7.1099,13.1791 T7.1277,13.6227 6.8435,15.6517 6.5152,18.664 7.6109,19.8223 8.7329,19.5536 A1.2589,1.2589 0 0 1 9.0871,22.0464 T7.5728,22.2018 5.014,21.2682 4.019,18.617 4.3792,15.5374 4.6495,13.694 4.6092,13.3679 A1.2539,1.2539 0 0 1 7.1099,13.1791 Z" stroke-linecap="round" fill="#ffc034"/></g></g><g transform="matrix(1, 0, 0, 1, 1575.1391, 11233.8109) scale(0.7427035966231403, 0.7427035966231403)" opacity="1"><g transform="scale(1.34643214944254)"><path d="M-0.2452,-1.2293 T0.627,-1.4173 2.4271,-2.8755 2.8316,-2.4596 2.5689,0.6201 4.2401,2.4729 7.0747,2.3857 8.4989,1.8392 A1.2032,1.2032 0 0 1 9.3211,4.1008 T7.379,4.778 3.6123,4.9786 0.8541,3.2463 -0.1294,0.3776 0.2791,-2.9214 1.6747,-5.9308 3.9572,-6.964 5.5721,-5.0609 5.4275,-2.2303 3.5118,-0.0535 1.1279,1.0673 0.2452,1.2293 A1.2536,1.2536 0 0 1 -0.2452,-1.2293 Z" stroke-linecap="round" fill="#ffc034"/></g></g><g transform="matrix(1, 0, 0, 1, 1585.537, 11232.3255) scale(0.7427035966231403, 0.7427035966231403)" opacity="1"><g transform="scale(1.34643214944254)"><path d="M1.4837,0 T1.4717,1.0263 1.5748,2.1498 1.69,2.247 A1.4763,1.4763 0 0 1 -0.9899,3.4862 T-1.2248,2.8264 -1.4717,1.0833 -1.4837,0 A1.4837,1.4837 0 0 1 1.4837,0 ZM0.0128,1.4293 T0.4087,1.3709 2.2933,0.097 5.4454,-1.5243 8.6905,-1.8308 11.5518,-0.7532 13.3361,2.119 13.9688,4.863 14.0967,5.7132 A1.4841,1.4841 0 0 1 11.1633,6.1668 T10.9268,4.6463 9.7787,1.9786 7.5926,0.9696 5.2403,1.5902 3.2023,2.9714 1.4648,4.0869 0.6872,4.3038 A1.4763,1.4763 0 0 1 0.0128,1.4293 Z" stroke-linecap="round" fill="#ffc034"/></g></g><g transform="matrix(1, 0, 0, 1, 1399.1184, 11262.7764) scale(0.7427035966231403, 0.7427035966231403)" opacity="1"><g transform="scale(1.34643214944254)"><path d="M1.2107,0.7277 T0.6814,1.6042 -1.0351,3.8008 -3.0911,5.9157 -3.9396,7.2749 -3.9192,7.8394 A1.4177,1.4177 0 0 1 -6.7268,8.2351 T-6.3621,6.5299 -5.0304,3.9105 -3.1625,2.0127 -1.7362,0.1507 -1.2107,-0.7277 A1.4126,1.4126 0 0 1 1.2107,0.7277 ZM-4.5181,6.8702 T-3.962,7.2512 -2.0024,8.3718 0.4438,10.6627 1.1707,13.6507 -0.5018,15.8629 -3.4297,16.8047 -6.526,16.5009 -9.3222,14.828 -10.5931,13.6251 A1.3642,1.3642 0 0 1 -8.7269,11.6349 T-8.1319,12.1545 -6.338,13.3473 -3.4785,13.9403 -1.9632,12.6814 -3.5614,10.74 -5.5711,9.5908 -6.1279,9.2043 A1.4177,1.4177 0 0 1 -4.5181,6.8702 Z" stroke-linecap="round" fill="#ffc034"/></g></g><g transform="matrix(1, 0, 0, 1, 1412.487, 11253.8639) scale(0.7427035966231403, 0.7427035966231403)" opacity="1"><g transform="scale(1.34643214944254)"><path d="M1.5333,0.9944 T1.3478,2.0518 0.672,4.3543 -0.2138,6.6742 -0.9399,9.6189 -1.4457,13.0115 -1.7086,15.6843 -1.79,18.2027 0.1473,19.4555 2.0784,19.34 A1.4679,1.4679 0 0 1 2.3816,22.26 T1.4597,22.3999 -1.4367,22.3643 -4.3482,20.5512 -5.2126,17.7203 -5.0108,15.3169 -4.6448,12.489 -3.9574,8.7737 -2.6845,4.6331 -1.6978,1.5377 -1.5333,0.4856 A1.5543,1.5543 0 0 1 1.5333,0.9944 Z" stroke-linecap="round" fill="#ffc034"/></g></g><g transform="matrix(1, 0, 0, 1, 1412.487, 11266.4899) scale(0.7427035966231403, 0.7427035966231403)" opacity="1"><g transform="scale(1.34643214944254)"><path d="M0.383,1.1465 T-0.6615,1.5293 -3.3845,2.6229 -5.994,3.7257 -6.925,4.1177 A1.2539,1.2539 0 0 1 -7.935,1.8223 T-7.017,1.4008 -4.306,0.2383 -1.448,-0.8245 -0.383,-1.1465 A1.2088,1.2088 0 0 1 0.383,1.1465 Z" stroke-linecap="round" fill="#ffc034"/></g></g><g transform="matrix(1, 0, 0, 1, 1419.9141, 11271.6888) scale(0.7427035966231403, 0.7427035966231403)" opacity="1"><g transform="scale(1.34643214944254)"><path d="M1.0893,-0.2173 T1.4646,1.6367 1.8399,3.4906 A1.1216,1.1216 0 0 1 -0.3599,3.9294 T-0.7246,2.0733 -1.0893,0.2173 A1.1107,1.1107 0 0 1 1.0893,-0.2173 Z" stroke-linecap="round" fill="#ffc034"/></g></g><g transform="matrix(1, 0, 0, 1, 1422.1422, 11256.092) scale(0.7427035966231403, 0.7427035966231403)" opacity="1"><g transform="scale(1.34643214944254)"><path d="M1.0143,-0.1683 T1.1823,0.8877 1.5386,3.1199 1.727,4.2962 A1.0005,1.0005 0 0 1 -0.247,4.6238 T-0.4486,3.4496 -0.8323,1.2219 -1.0143,0.1683 A1.0282,1.0282 0 0 1 1.0143,-0.1683 Z" stroke-linecap="round" fill="#ffc034"/></g></g><g transform="matrix(1, 0, 0, 1, 1432.54, 11266.4899) scale(0.7427035966231403, 0.7427035966231403)" opacity="1"><g transform="scale(1.34643214944254)"><path d="M1.003,1.003 T0.1339,1.8878 -1.7774,4.2636 -3.3764,6.7596 -3.8207,7.8439 -3.708,7.9231 A1.5097,1.5097 0 0 1 -6.7268,7.9779 T-6.6298,7.196 -5.9153,5.273 -4.0362,2.4345 -1.8887,-0.133 -1.003,-1.003 A1.4184,1.4184 0 0 1 1.003,1.003 ZM-4.4068,6.677 T-4.055,6.9007 -2.2449,5.9428 -0.7867,4.7612 A1.4156,1.4156 0 0 1 1.2832,6.6927 T0.6742,7.3828 -1.5003,9.1421 -4.1857,9.9478 -5.6668,9.4542 -6.028,9.2241 A1.5097,1.5097 0 0 1 -4.4068,6.677 ZM1.0512,4.5611 T1.8,5.1165 3.3368,6.9812 4.911,9.9333 6.5816,13.4173 8.0101,16.9838 8.2154,20.5138 6.8714,23.1958 4.2202,24.0704 0.9328,23.1902 -1.6455,21.4429 -3.5563,19.6695 -4.5301,18.7658 A1.2519,1.2519 0 0 1 -2.8899,16.8742 T-0.9936,18.402 2.4158,20.6121 4.7316,20.3008 5.0753,17.7097 3.8392,14.3944 2.3791,11.1623 1.0688,8.5736 -0.0565,7.1961 -0.5546,6.8928 A1.4156,1.4156 0 0 1 1.0512,4.5611 Z" stroke-linecap="round" fill="#ffc034"/></g></g><g transform="matrix(1, 0, 0, 1, 1439.9671, 11271.6888) scale(0.7427035966231403, 0.7427035966231403)" opacity="1"><g transform="scale(1.34643214944254)"><path d="M0,-1.2797 T1.0548,-1.2921 3.4045,-1.762 5.0823,-3.2073 5.4652,-4.1951 A1.3663,1.3663 0 0 1 8.159,-4.654 T7.8782,-3.1368 6.3702,-0.3624 3.6263,1.0995 1.0548,1.2921 0,1.2797 A1.2797,1.2797 0 0 1 0,-1.2797 ZM7.2472,-3.1294 T6.8924,-3.0337 5.3343,-1.8876 3.7737,0.344 4.6092,2.7016 7.2999,3.8678 10.1905,3.5296 12.29,1.9214 12.7755,0.0388 12.5543,-0.5638 A1.5569,1.5569 0 0 1 15.224,-2.1666 T15.6888,-0.5204 15.5461,2.7097 13.6287,5.2616 10.6851,6.5658 7.8545,6.9525 4.9136,6.3911 1.9873,4.2654 1.1306,0.8686 2.2052,-2.2444 4.0405,-4.3637 5.7519,-5.4863 6.3771,-5.7197 A1.3663,1.3663 0 0 1 7.2472,-3.1294 ZM13.0925,-2.7029 T13.756,-3.0758 15.7684,-3.5555 17.8084,-3.6766 18.4994,-3.6907 A1.4625,1.4625 0 0 1 18.6406,-0.7693 T17.0485,-0.6502 15.0711,-0.2793 14.6858,-0.0276 A1.5569,1.5569 0 0 1 13.0925,-2.7029 Z" stroke-linecap="round" fill="#ffc034"/></g></g><g transform="matrix(1, 0, 0, 1, 1474.8741, 11274.6596) scale(0.7427035966231403, 0.7427035966231403)" opacity="1"><g transform="scale(1.34643214944254)"><path d="M0,-1.42 T1.0502,-1.4268 3.3306,-2.1581 4.6374,-3.7201 4.7141,-4.5576 A1.4631,1.4631 0 0 1 7.6391,-4.4772 T7.5368,-3.2843 6.3931,-0.8424 3.7353,0.9201 1.0594,1.4268 0,1.42 A1.42,1.42 0 0 1 0,-1.42 ZM5.636,-3.1579 T5.3083,-3.3182 4.1129,-2.3112 3.6782,0.2078 5.3876,1.5525 8.24,0.9906 10.9226,-0.046 12.0294,-0.5276 A1.4027,1.4027 0 0 1 13.2306,2.0076 T12.1571,2.5591 8.9907,3.9051 5.7039,4.7536 2.7699,3.9724 0.5016,1.2315 0.5693,-2.0672 2.1269,-4.4538 4.4187,-5.8248 6.233,-6.0395 6.7172,-5.8769 A1.4631,1.4631 0 0 1 5.636,-3.1579 Z" stroke-linecap="round" fill="#ffc034"/></g></g><g transform="matrix(1, 0, 0, 1, 1492.699, 11254.6066) scale(0.7427035966231403, 0.7427035966231403)" opacity="1"><g transform="scale(1.34643214944254)"><path d="M1.5765,0 T1.5725,1.4048 1.5703,4.0782 1.4029,6.8174 1.1615,9.6646 0.8785,12.57 0.5686,15.3415 0.4193,17.7577 0.4899,19.852 0.6107,20.773 A1.7191,1.7191 0 0 1 -2.8035,21.1796 T-2.9364,19.9704 -2.9941,17.5167 -2.7797,14.9285 -2.3994,12.2072 -2.046,9.3569 -1.753,6.6138 -1.5703,4.0765 -1.5725,1.4048 -1.5765,0 A1.5765,1.5765 0 0 1 1.5765,0 ZM-1.3693,19.279 T-1.1081,19.249 -0.8469,19.219 A1.6954,1.6954 0 0 1 -0.3087,22.5668 T-0.5661,22.6202 -0.8235,22.6736 A1.7191,1.7191 0 0 1 -1.3693,19.279 ZM-2.1704,20.3116 T-1.8394,19.5355 -1.5083,18.7594 A1.6057,1.6057 0 0 1 1.5083,19.8606 T1.2616,20.6674 1.0148,21.4743 A1.6954,1.6954 0 0 1 -2.1704,20.3116 Z" stroke-linecap="round" fill="#ffc034"/></g></g><g transform="matrix(1, 0, 0, 1, 1496.4126, 11256.092) scale(0.7427035966231403, 0.7427035966231403)" opacity="1"><g transform="scale(1.34643214944254)"><path d="M1.4768,-0.245 T1.6389,0.812 1.9501,3.8645 2.1295,7.1121 2.181,9.549 2.0348,11.9976 1.7491,15.4364 1.5774,18.8624 1.524,20.1133 A1.5253,1.5253 0 0 1 -1.524,19.9867 T-1.4735,18.7357 -1.3763,16.3338 -1.0559,12.9727 -0.7881,9.594 -0.8149,7.2137 -0.9684,4.176 -1.2889,1.2976 -1.4768,0.245 A1.497,1.497 0 0 1 1.4768,-0.245 Z" stroke-linecap="round" fill="#ffc034"/></g></g><g transform="matrix(1, 0, 0, 1, 1499.3834, 11270.9461) scale(0.7427035966231403, 0.7427035966231403)" opacity="1"><g transform="scale(1.34643214944254)"><path d="M0.298,-1.4943 T1.1753,-1.3185 2.4079,-1.5642 2.7633,-1.9855 A1.4558,1.4558 0 0 1 5.5241,-2.9107 T5.2198,-0.8791 3.1863,1.4977 0.5796,1.6686 -0.298,1.4943 A1.5237,1.5237 0 0 1 0.298,-1.4943 ZM4.7117,-1.1076 T4.2207,-0.933 3.4253,0.6159 4.0127,3.198 6.0618,4.5909 8.3532,4.5579 10.0474,3.2284 10.2057,0.3731 9.8039,-1.3706 A1.6319,1.6319 0 0 1 13.0003,-2.0307 T13.3686,-0.6497 13.5505,2.8107 12.0859,6.1713 8.7643,7.7163 4.8349,7.3803 1.7408,5.2499 0.5436,1.7403 1.3583,-1.6808 2.869,-3.4556 3.5757,-3.7885 A1.4558,1.4558 0 0 1 4.7117,-1.1076 ZM10.2292,-2.8353 T10.5608,-3.1612 12.45,-3.9389 15.5853,-4.5627 18.0631,-4.9233 18.963,-5.1118 A1.4441,1.4441 0 0 1 19.657,-2.3082 T17.8344,-1.8025 14.5426,-1.2059 12.8242,-0.8405 12.575,-0.566 A1.6319,1.6319 0 0 1 10.2292,-2.8353 Z" stroke-linecap="round" fill="#ffc034"/></g></g><g transform="matrix(1, 0, 0, 1, 1538.7467, 11267.2326) scale(0.7427035966231403, 0.7427035966231403)" opacity="1"><g transform="scale(1.34643214944254)"><path d="M-1.265,-1.0127 T-0.559,-1.887 0.5189,-3.3203 0.8907,-3.8795 A1.6189,1.6189 0 0 1 3.5693,-2.0605 T3.1159,-1.4045 1.9638,0.1321 1.265,1.0127 A1.6204,1.6204 0 0 1 -1.265,-1.0127 ZM3.5744,-2.0682 T3.1135,-1.3722 1.6976,0.828 0.8131,3.6298 1.5186,5.8799 2.3443,8.542 2.5349,10.2515 A1.6291,1.6291 0 0 1 -0.681,9.7287 T-0.9609,8.6339 -1.9199,6.4516 -2.6295,3.9292 -2.0249,0.9514 -0.7252,-1.5353 0.4126,-3.1755 0.8856,-3.8718 A1.6189,1.6189 0 0 1 3.5744,-2.0682 ZM1.852,11.3311 T1.4561,11.6002 -0.1068,12.454 -2.5298,13.187 -5.1335,12.8046 -7.6529,11.582 -8.8246,10.8902 A1.3935,1.3935 0 0 1 -7.5154,8.4298 T-6.8539,8.747 -4.5792,9.5918 -1.8746,9.659 -0.3907,8.9239 0.0019,8.6491 A1.6291,1.6291 0 0 1 1.852,11.3311 Z" stroke-linecap="round" fill="#ffc034"/></g></g><g transform="matrix(1, 0, 0, 1, 1544.6883, 11268.718) scale(0.7427035966231403, 0.7427035966231403)" opacity="1"><g transform="scale(1.34643214944254)"><path d="M1.5737,0 T1.5718,0.7024 1.5773,2.8582 1.7557,5.597 2.922,7.6923 4.2963,7.3992 4.8028,5.5194 4.93,4.7426 A1.5609,1.5609 0 0 1 7.859,3.6624 T7.831,5.4266 6.9211,8.9889 4.6158,11.2493 1.9607,11.1312 -0.2489,9.0981 -1.4057,5.9784 -1.5773,2.8582 -1.5718,0.7024 -1.5737,0 A1.5737,1.5737 0 0 1 1.5737,0 ZM7.164,5.5606 T7.0555,5.6197 6.9469,5.6788 A1.5568,1.5568 0 0 1 5.4121,2.9698 T5.5186,2.9071 5.6251,2.8444 A1.5609,1.5609 0 0 1 7.164,5.5606 ZM7.7283,4.4818 T7.6677,5.0384 7.9621,7.3023 8.991,10.9303 10.4047,14.9852 11.3762,18.3341 11.6037,21.7391 10.9762,25.7315 8.8012,28.7195 5.5627,30.1671 2.7899,30.0506 0.0552,28.383 -3.0048,25.3196 -4.909,22.2415 -5.8919,19.6178 -6.382,18.2984 A1.2752,1.2752 0 0 1 -4.018,17.3416 T-3.4524,18.6303 -1.9578,21.6753 0.3941,24.6322 3.3481,26.4251 6.1069,26.5296 7.7991,24.7828 8.3018,21.8206 7.8373,18.0531 6.6579,13.9299 5.3956,10.1685 4.6678,6.874 4.5781,4.7244 4.6308,4.1668 A1.5568,1.5568 0 0 1 7.7283,4.4818 Z" stroke-linecap="round" fill="#ffc034"/></g></g><g transform="matrix(1, 0, 0, 1, 1556.5715, 11272.4315) scale(0.7427035966231403, 0.7427035966231403)" opacity="1"><g transform="scale(1.34643214944254)"><path d="M1.3496,-0.3867 T1.7239,0.8371 2.4349,3.8575 2.7716,5.654 A1.5141,1.5141 0 0 1 -0.2278,6.0713 T-0.4582,4.4648 -1.0191,1.6225 -1.3496,0.3867 A1.4039,1.4039 0 0 1 1.3496,-0.3867 ZM0.8606,4.4054 T1.1957,4.3428 2.3776,2.9882 4.0545,0.4618 4.8847,-0.7725 A1.4043,1.4043 0 0 1 7.0493,1.0172 T6.5709,1.651 5.5189,3.289 4.0211,5.5749 2.3901,7.0883 1.6832,7.3198 A1.5141,1.5141 0 0 1 0.8606,4.4054 ZM6.2238,-1.2583 T7.1281,-1.0552 8.7044,0.5649 10.112,3.2485 10.8476,4.5151 A1.371,1.371 0 0 1 8.4724,5.8849 T8.0032,5.1136 7.1246,2.9812 6.2126,1.5615 5.7102,1.5029 A1.4043,1.4043 0 0 1 6.2238,-1.2583 Z" stroke-linecap="round" fill="#ffc034"/></g></g><g transform="matrix(1, 0, 0, 1, 1569.1975, 11259.0629) scale(0.7427035966231403, 0.7427035966231403)" opacity="1"><g transform="scale(1.34643214944254)"><path d="M2.42,-0.2423 T2.592,0.9884 2.8638,3.4493 2.8465,6.6534 2.6751,10.1074 2.4105,13.0039 2.4259,16.2995 2.6512,18.1789 A1.7833,1.7833 0 0 1 -0.7353,19.2977 T-1.1259,17.8919 -1.3893,15.1767 -1.0508,12.6483 -0.7592,9.9102 -0.6266,5.5456 -0.7573,1.4712 -0.94,0.2423 A1.6974,1.6974 0 0 1 2.42,-0.2423 ZM0.3312,17.0688 T0.8301,16.9151 2.4892,15.5074 4.181,13.7039 4.7125,13.1542 A1.5437,1.5437 0 0 1 6.8954,15.3376 T6.1061,16.5268 4.2206,18.7394 2.3546,20.0853 1.5847,20.4078 A1.7833,1.7833 0 0 1 0.3312,17.0688 ZM7.2483,13.7012 T7.5972,14.6544 8.4598,16.7576 9.7636,17.8719 10.5536,17.8362 A1.4818,1.4818 0 0 1 10.2464,20.7838 T9.6306,20.739 7.5428,19.9122 5.499,17.6854 4.6434,15.5155 4.3595,14.7905 A1.5437,1.5437 0 0 1 7.2483,13.7012 Z" stroke-linecap="round" fill="#ffc034"/></g></g><g transform="matrix(1, 0, 0, 1, 1581.8235, 11273.9169) scale(0.7427035966231403, 0.7427035966231403)" opacity="1"><g transform="scale(1.34643214944254)"><path d="M-0.5055,-1.2587 T0.3718,-1.6092 2.1514,-2.6725 2.8501,-4.3876 2.6465,-5.39 A1.3146,1.3146 0 0 1 4.5307,-7.2237 T5.1497,-6.4216 5.4162,-3.6236 3.6621,-0.5387 1.383,0.9044 0.5055,1.2587 A1.3564,1.3564 0 0 1 -0.5055,-1.2587 ZM4.6475,-5.5279 T4.3253,-5.0922 3.5968,-3.4875 3.2373,-0.9649 4.4068,1.1238 6.6761,0.9379 7.7233,-1.6093 8.3787,-4.3397 10.8001,-5.6783 13.8569,-5.9273 16.1533,-5.9344 17.0596,-5.9265 A1.4667,1.4667 0 0 1 17.1004,-2.9935 T15.4016,-2.9288 12.1934,-2.6975 10.7631,-0.9799 10.0956,2.3711 7.5639,4.5296 4.4043,4.3547 1.8251,2.4207 0.6094,-0.9301 1.2435,-4.5451 2.2092,-6.648 2.5296,-7.0858 A1.3146,1.3146 0 0 1 4.6475,-5.5279 Z" stroke-linecap="round" fill="#ffc034"/></g></g><g transform="matrix(1, 0, 0, 1, 1598.9056, 11277.6304) scale(0.7427035966231403, 0.7427035966231403)" opacity="1"><g transform="scale(1.34643214944254)"><path d="M 0 0 m -2.10316572594003, 0 a 2.10316572594003,2.10316572594003 0 1,1 4.20633145188006,0 a 2.10316572594003,2.10316572594003 0 1,1 -4.20633145188006,0" stroke-linecap="round" fill="#ffc034"/></g></g></svg>