<svg xmlns="http://www.w3.org/2000/svg" direction="ltr" width="503.3463372438666" height="626.0217436029379" viewBox="1048.2879292252594 8645.902674397317 503.3463372438666 626.0217436029379" stroke-linecap="round" stroke-linejoin="round" style="background-color: transparent;"><defs/><g transform="matrix(1, 0, 0, 1, 1081.2384, 8921.2771) scale(0.9504656900559846, 0.9504656900559846)" opacity="1"><path d="M0,167.666716844379 a167.68706562459334,167.666716844379,0,1,1,335.3741312491867,0a167.68706562459334,167.666716844379,0,1,1,-335.3741312491867,0 " stroke="#9398b0" stroke-width="2" fill="none"/></g><g transform="matrix(1, 0, 0, 1, 1239.0157, 8920.3266) scale(0.9504656900559846, 0.9504656900559846)" opacity="0.25"><g transform="scale(1.0521158317046644)"><path d="M1.7405,-1.1986 T1.9623,0.3746 2.3749,4.4211 2.9566,8.8702 3.4668,12.8696 3.6191,16.8292 3.8768,20.7326 4.3085,24.8954 4.5761,29.0845 4.6584,32.9998 5.0318,36.9661 5.4908,41.3834 5.9734,46.047 6.4212,49.7225 6.5528,53.3485 6.6282,57.9321 6.6494,62.2962 6.8678,66.2994 7.2806,70.4932 7.534,74.7017 7.6044,78.9681 7.6221,83.2415 7.6216,87.5279 7.2711,91.7921 6.8283,95.7257 6.3538,99.3686 5.8782,102.7654 5.5046,106.8599 5.0563,111.0973 4.8357,114.8283 4.7723,118.609 4.4066,122.519 3.9661,126.6836 3.6106,131.2131 2.9238,135.9554 2.0492,141.0201 1.1303,146.7235 0.4326,152.2923 0.1313,157.3926 0.0531,162.7956 0.0458,167.1675 0.0541,170.3685 0.0654,173.6305 0.0775,176.6977 0.0901,179.6622 0.1072,182.7971 0.1215,186.022 0.1314,190.1897 0.1392,194.1859 0.147,198.0417 -0.0752,203.6269 -0.412,208.2014 -0.5793,211.1068 -0.6681,213.9837 -0.7228,217.9312 -0.751,222.858 -0.7566,227.6564 -0.759,232.1931 -0.4188,236.443 0.0252,240.7114 0.1541,245.0873 0.3823,249.1705 0.789,253.1652 1.0459,257.2419 1.4498,261.2463 1.9062,265.447 2.0418,270.1509 2.0813,274.8908 2.4278,278.9449 2.8719,283.0519 3.009,287.1758 3.0573,291.5249 3.0841,295.8279 3.0999,299.2 3.1116,302.1953 3.3128,305.0388 3.7286,308.5654 4.0066,312.9059 4.4591,316.9978 4.8531,318.8892 A2.0576,2.0576 0 0 1 0.8469,319.8308 T0.2523,317.5163 -0.3842,313.1197 -0.5683,309.275 -0.9636,305.5822 -1.2121,302.1961 -1.2019,299.2026 -1.1914,295.8346 -1.1835,291.5542 -1.2032,287.2592 -1.3111,283.364 -1.7491,279.2143 -2.1084,274.9221 -2.1393,270.2366 -2.2571,265.735 -2.7136,261.5134 -3.1256,257.4271 -3.3359,253.7553 -3.7589,249.6412 -4.0476,245.1711 -4.1622,240.9849 -4.5945,236.6597 -4.939,232.2028 -4.9362,227.6511 -4.923,222.8394 -4.8836,217.8698 -4.8196,213.8493 -4.7178,210.8591 -4.5235,207.7563 -4.1741,203.3422 -3.9469,198.0416 -3.9392,194.1859 -3.9312,190.1896 -3.921,186.0217 -3.9062,182.7966 -3.8883,179.6611 -3.8742,176.6958 -3.8591,173.6271 -3.8422,170.3619 -3.8232,167.1549 -3.8004,164.057 -3.7487,159.9652 -3.6624,156.0383 -3.5242,153.1912 -3.2602,150.3935 -2.7883,147.4521 -2.0225,143.11 -1.3848,138.8987 -0.8071,135.1631 -0.1652,130.792 0.175,126.3868 0.6215,122.2602 0.9792,118.552 1.0498,114.6672 1.3114,110.5626 1.7468,106.3773 2.0849,102.4066 2.5536,98.9988 3.0085,95.4349 3.4416,91.5663 3.7746,87.5114 3.7641,83.2528 3.7462,79.0114 3.688,74.8542 3.4786,70.968 3.0764,67.6331 2.8371,64.3083 2.83,60.2229 2.7961,55.8347 2.6759,51.1441 2.218,46.2948 1.7682,41.6284 1.3405,37.1747 0.9916,33.0532 0.9439,29.2304 0.7435,25.3481 0.3427,21.0921 0.0736,16.918 -0.0532,13.1763 -0.5481,9.2108 -1.1146,4.772 -1.5129,0.8709 -1.7405,-0.7014 A1.7582,1.7582 0 0 1 1.7405,-1.1986 Z" stroke-linecap="round" fill="#9398b0"/></g></g><g transform="matrix(1, 0, 0, 1, 1080.2879, 9081.9058) scale(0.9504656900559846, 0.9504656900559846)" opacity="0.25"><g transform="scale(1.0521158317046644)"><path d="M0,-1.9719 T1.1234,-1.955 4.0616,-1.9253 7.6368,-1.911 11.3779,-1.9185 14.961,-1.9359 18.0417,-1.6045 21.3124,-1.1757 24.6276,-0.7792 28.0521,-0.3384 31.7131,-0.5307 35.5605,-0.9633 39.6039,-1.109 43.1317,-1.1635 46.5134,-1.1893 50.2013,-1.2068 53.9737,-1.2194 57.5146,-1.4278 61.2401,-1.8475 65.2707,-2.1238 68.885,-2.3967 72.9858,-2.8286 77.4666,-3.1052 81.6757,-3.1874 85.9339,-3.2223 90.207,-3.2398 94.4853,-3.2506 98.7612,-3.2602 103.0364,-3.2745 107.0868,-3.293 111.303,-3.311 115.79,-3.3255 120.1239,-3.3359 124.5336,-3.3437 128.8484,-3.3529 133.1442,-3.3628 137.5694,-3.0225 141.5384,-2.5956 145.4648,-2.4935 149.6442,-2.4726 153.6738,-2.4717 157.6279,-2.6744 161.8055,-3.0837 165.9632,-3.3485 170.099,-3.4249 174.3393,-3.4507 178.3801,-3.4612 182.2472,-3.4667 186.2906,-3.4704 190.5036,-3.4732 194.8834,-3.4753 199.1888,-3.4768 203.4786,-3.4772 208.104,-3.1327 212.4803,-2.7067 216.7832,-2.6075 221.2836,-2.5888 225.8464,-2.5902 230.6656,-2.5958 235.4384,-2.601 240.0775,-2.6088 244.5721,-2.6199 248.6834,-2.6309 252.5722,-2.6435 256.4005,-2.6563 260.2096,-2.6661 264.0121,-2.6721 267.8128,-2.6736 271.6154,-2.6733 275.788,-3.0045 279.6879,-3.4405 282.9199,-3.5729 285.999,-3.608 289.7084,-3.6199 294.1931,-3.3593 298.5007,-2.9416 302.2363,-2.44 305.5105,-1.9654 309.0639,-2.1979 312.7615,-2.5836 314.5,-2.611 A2.6129,2.6129 0 0 1 314.7,2.611 T313.8211,2.6652 311.0581,2.886 307.1572,3.2877 303.3768,3.0955 300.0972,2.6142 296.7879,2.3272 293.4694,1.9106 289.7204,1.7271 286.0448,1.734 283.0631,1.7665 279.4311,1.9619 275.4235,2.4026 271.6154,2.6733 267.8128,2.6736 264.0121,2.6721 260.2096,2.6661 256.4005,2.6563 252.5722,2.6435 248.6834,2.6309 244.572,2.6199 240.0774,2.6087 235.4378,2.6005 230.6637,2.5938 225.8396,2.5829 221.2566,2.5628 216.6796,2.5139 212.1515,2.3696 207.8444,1.9189 203.4658,1.5772 199.1888,1.5768 194.8834,1.5753 190.5037,1.5733 186.2909,1.5707 182.2485,1.5678 178.3844,1.5651 174.3529,1.5643 170.1542,1.5742 166.1653,1.626 162.4691,1.8228 158.1326,2.223 153.6658,2.4645 149.6191,2.4466 145.3622,2.3999 141.1652,2.2585 137.2674,1.8087 133.132,1.4628 128.8484,1.4529 124.5336,1.4437 120.1239,1.4359 115.79,1.4255 111.303,1.411 107.0868,1.3931 103.0365,1.3746 98.7615,1.3605 94.4863,1.3517 90.2108,1.3437 85.9464,1.3363 81.7257,1.3378 77.6406,1.3867 73.6398,1.582 69.446,1.9967 65.456,2.3014 61.8878,2.4873 58.0177,2.8786 53.9742,3.12 50.2032,3.1086 46.5209,3.096 43.1562,3.0875 39.6863,3.0952 35.8281,3.1738 31.8425,3.549 28.1716,3.7397 24.7748,3.2668 21.6406,2.8471 18.3709,2.3646 14.9153,1.9359 11.3779,1.9185 7.6368,1.911 4.0616,1.9253 1.1234,1.955 0,1.9719 A1.9719,1.9719 0 0 1 0,-1.9719 Z" stroke-linecap="round" fill="#9398b0"/></g></g><g transform="matrix(1, 0, 0, 1, 1235.8774, 9083.0599) scale(0.7041197214873717, 0.7041197214873717)" opacity="1"><g transform="scale(1.4202130255457344)"><path d="M-0.6496,-0.8682 T0.0223,-1.3605 1.7107,-2.955 3.515,-5.0364 5.0185,-7.0583 6.4354,-9.1542 7.7251,-11.2496 9.0617,-13.4398 10.4828,-16.0924 11.8292,-18.5533 13.2661,-20.9299 14.6987,-23.4463 16.0489,-25.895 17.3929,-28.4611 18.737,-30.8145 19.9161,-33.2383 21.033,-35.9108 22.3807,-38.6093 23.8012,-41.0566 25.2149,-43.2302 26.6416,-45.3209 28.3153,-47.7034 30.0989,-50.0795 31.9006,-52.334 33.6217,-54.5494 34.9861,-56.5203 36.3393,-58.3065 37.8169,-60.1688 39.2306,-62.215 40.9042,-64.5816 42.6099,-66.9685 44.0024,-69.0457 45.4076,-71.1479 46.8145,-73.2583 48.1974,-75.2482 49.5709,-77.2028 50.9884,-79.3951 52.376,-81.7536 53.9828,-84.1609 56.0409,-86.8326 57.9254,-89.3914 59.3456,-91.7784 60.9947,-94.6239 62.7524,-97.5935 64.2482,-100.1799 65.9634,-102.6683 67.6862,-105.1098 69.1564,-107.5816 70.8906,-110.1327 72.6324,-112.6192 74.4113,-115.2157 76.4006,-117.8084 78.1602,-120.138 79.6886,-122.4767 81.4418,-125.084 83.1908,-127.5904 84.9442,-130.072 86.7478,-132.4517 88.4093,-134.7757 90.1392,-137.2033 91.6548,-139.562 93.3834,-142.0523 95.3637,-144.6237 97.146,-147.0702 98.9081,-149.5345 100.6627,-152.0009 102.1827,-154.3671 103.9131,-156.8604 105.6612,-159.3352 107.3615,-161.8956 109.3402,-164.7437 111.1482,-167.2982 112.9575,-169.9655 114.9351,-173.0554 116.7399,-175.9305 118.5676,-178.7218 120.5356,-181.7379 122.5461,-184.9088 124.4349,-187.8771 126.2866,-190.6969 128.3535,-193.5703 130.4261,-196.6282 132.5225,-199.7689 134.5905,-202.7557 136.7473,-205.5348 138.8759,-208.1443 140.8677,-211.0379 142.9361,-214.0781 144.8026,-216.8679 146.6623,-219.4249 148.7252,-221.9707 150.7885,-224.6779 152.8811,-227.4676 154.9829,-230.2811 157.0322,-233.1521 159.0642,-236.0352 160.9089,-238.7749 162.7136,-241.408 164.7648,-244.2309 166.878,-247.1768 169.1743,-250.2292 171.4879,-253.5177 173.2523,-256.0749 174.5929,-257.8583 175.921,-259.7368 177.287,-261.7291 178.6705,-263.7815 180.0649,-265.8648 181.4645,-267.9635 183.1358,-270.0287 184.843,-271.95 186.3032,-273.8355 187.7424,-275.8283 189.1684,-277.879 190.6302,-279.8511 192.0652,-281.7217 193.4866,-283.5393 195.3503,-286.1586 197.1187,-288.8108 198.4805,-290.6078 200.2843,-293.0946 202.2653,-295.9933 204.1907,-298.6858 206.2149,-301.5453 208.0031,-304.3094 209.5751,-306.9111 211.3233,-309.4802 213.0497,-311.8428 214.5569,-314.1371 216.2621,-316.5826 217.9714,-318.9071 219.6661,-321.3931 221.439,-324.0061 223.245,-326.4561 225.3253,-328.9907 227.3705,-331.5686 229.4092,-334.1818 231.501,-336.9122 233.3389,-339.5265 234.9248,-341.8401 236.6956,-344.0862 238.3823,-346.2998 239.7739,-348.4867 241.5177,-350.746 243.3319,-352.9135 245.192,-355.2096 246.8698,-357.4265 248.2116,-359.3301 249.7297,-361.2704 251.5611,-363.5886 253.3485,-365.7628 254.7575,-367.5275 256.1642,-369.2927 257.5596,-371.0503 258.9769,-373.1431 260.7431,-375.6192 262.5064,-378.03 264.17,-380.4075 265.8558,-382.8084 267.6108,-385.1092 269.3935,-387.5846 270.9527,-389.7229 272.4223,-391.6116 273.8579,-393.6645 275.2637,-395.7625 276.6673,-397.9315 278.0719,-400.0623 279.476,-402.1317 281.1043,-403.8357 281.7611,-404.5832 281.4907,-404.6292 A1.9953,1.9953 0 0 1 285.339,-405.6853 T285.3632,-404.6578 284.2159,-402.0144 282.0121,-399.0237 280.2753,-396.5969 278.9006,-394.5286 277.481,-392.1614 275.9847,-389.9585 274.2816,-387.8244 272.6827,-385.5905 271.1864,-383.6903 269.734,-381.7688 268.3574,-379.4603 266.8357,-377.2671 265.1568,-375.0914 263.4847,-372.7993 262.0107,-370.7099 260.5115,-368.5476 258.7871,-366.4019 256.7202,-363.9226 254.8587,-361.5029 253.1205,-359.3234 251.3134,-357.0864 249.8546,-355.0363 248.388,-353.0067 246.5616,-350.7739 244.6503,-348.6209 243.0163,-346.5373 241.3997,-344.0619 239.5893,-341.6813 237.922,-339.578 236.283,-337.223 234.4542,-334.6559 232.498,-332.1629 230.3247,-329.4173 228.1878,-326.7307 226.1933,-324.3231 224.319,-321.7991 222.6234,-319.3237 220.9832,-316.9377 219.2111,-314.5407 217.5352,-312.162 216.0391,-309.8982 214.2689,-307.4775 212.5812,-305.0166 210.9358,-302.3287 209.0847,-299.479 207.1592,-296.7665 205.2266,-294.0641 203.6887,-291.8183 201.8649,-289.3035 199.4218,-286.0002 196.8918,-282.4338 194.1882,-278.7412 192.0593,-275.8648 190.593,-273.7634 189.0752,-271.6738 186.6846,-268.8484 184.3669,-266.0134 182.9584,-263.918 181.5465,-261.8302 180.1359,-259.7643 178.7313,-257.7387 176.7291,-255.0287 174.2942,-251.5755 171.9578,-248.2835 169.7038,-245.3221 167.626,-242.4741 165.5786,-239.7141 163.6003,-236.8869 161.615,-233.9963 159.6485,-231.2485 157.6469,-228.486 155.5263,-225.6828 153.4074,-222.8906 151.2813,-220.141 149.2432,-217.6974 147.3205,-215.1107 145.3505,-212.2008 143.4044,-209.3602 141.8909,-206.9658 140.2312,-204.8683 138.0645,-202.4365 136.0203,-199.6129 134.0446,-196.593 131.9252,-193.4682 129.8078,-190.4394 127.8543,-187.6664 125.8996,-184.8466 123.8687,-181.7389 121.9458,-178.5851 120.1101,-175.732 118.2096,-172.9787 116.3373,-170.0314 114.4428,-166.9721 112.5126,-164.3365 110.6792,-161.7343 108.8977,-158.984 107.1439,-156.5241 105.414,-154.0771 103.7685,-151.6602 101.9988,-149.1979 100.2236,-146.7373 98.4247,-144.2618 96.5489,-141.7617 94.8198,-139.3163 93.1796,-136.9017 91.4278,-134.4583 89.7072,-132.0663 88.0664,-129.8013 86.3019,-127.3407 84.5465,-124.8758 82.8204,-122.4001 81.1068,-119.7466 79.3001,-117.2973 77.476,-115.025 75.723,-112.5355 73.9118,-109.8447 72.1848,-107.3825 70.5773,-104.9103 68.8395,-102.469 67.176,-100.093 65.7181,-97.5607 64.13,-94.8477 62.3896,-91.7943 60.7661,-89.1463 59.1664,-86.9029 57.5762,-84.7513 56.0309,-82.7458 54.4872,-80.446 53.0565,-78.0396 51.6603,-75.8965 50.2195,-73.8526 48.7861,-71.7921 47.377,-69.6816 45.9678,-67.5778 44.5604,-65.4854 43.1481,-63.4363 41.654,-61.4082 40.2022,-59.292 38.55,-57.1156 36.7251,-54.8096 34.9579,-52.4089 33.2658,-50.1464 31.5319,-47.9275 29.9182,-45.8962 28.5614,-43.9406 27.0814,-41.7992 25.6949,-39.6863 24.4301,-37.5089 23.2088,-35.1018 22.2127,-32.7726 21.2555,-30.7457 19.8652,-28.3345 18.3276,-25.7241 17.1281,-23.5533 16.0708,-21.5844 14.8836,-19.3902 13.4782,-16.9486 12.1498,-14.5544 10.8283,-12.2265 9.3342,-9.7482 7.8772,-7.3481 6.3975,-5.2094 4.7049,-3.0865 2.8744,-1.0947 1.3115,0.3624 0.6496,0.8682 A1.0843,1.0843 0 0 1 -0.6496,-0.8682 ZM284.075,-403.2743 T283.364,-403.0459 281.1507,-401.9626 278.5113,-400.6387 276.2936,-399.7901 273.8407,-399.1624 271.8409,-398.6595 271.2134,-398.4048 A1.8884,1.8884 0 0 1 269.9011,-401.9463 T271.3751,-402.3643 274.3363,-403.2285 277.2719,-404.3591 279.7914,-405.6892 281.8086,-406.6875 282.7547,-407.0402 A1.9953,1.9953 0 0 1 284.075,-403.2743 ZM270.4068,-402.058 T271.0005,-402.0809 272.7407,-402.4034 275.2236,-403.0381 278.0819,-403.8169 281.164,-404.8198 282.7242,-405.379 A1.8943,1.8943 0 0 1 283.7442,-401.7302 T282.0995,-401.1592 279.0271,-400.1588 276.2777,-399.3963 273.8655,-398.7852 271.7412,-398.4002 270.7076,-398.2931 A1.8884,1.8884 0 0 1 270.4068,-402.058 ZM284.9823,-404.2843 T285.2226,-403.6905 285.5718,-401.4911 285.7088,-398.5553 285.5707,-395.2443 285.2221,-392.205 285.0399,-391.1465 A2.0095,2.0095 0 0 1 281.0801,-391.8335 T281.2651,-392.8916 281.6106,-395.5795 281.7838,-398.5161 281.7808,-401.0079 281.6256,-402.509 281.4861,-402.8249 A1.8943,1.8943 0 0 1 284.9823,-404.2843 Z" stroke-linecap="round" fill="#40c057"/></g></g><g transform="matrix(1, 0, 0, 1, 1266.8587, 9078.1311) scale(0.7041197214873717, 0.7041197214873717)" opacity="1"><g transform="scale(1.4202130255457344)"><path d="M-0.8788,0.2242 T-1.0471,-0.9412 -1.7511,-3.9983 -3.3381,-7.9443 -5.0162,-11.0758 -6.957,-14.0067 -9.3708,-16.9519 -11.6026,-18.2741 -12.7344,-18.5047 A1.619,1.619 0 0 1 -12.1084,-21.6816 T-11.2477,-21.5091 -8.7689,-20.3476 -6.3564,-18.5601 -4.8764,-16.7899 -3.4675,-14.8184 -2.0815,-12.6484 -0.8336,-10.2917 0.5962,-7.0114 1.6969,-3.7374 2.116,-1.3907 2.2788,-0.2242 A1.5946,1.5946 0 0 1 -0.8788,0.2242 ZM-11.209,-19.0202 T-11.7118,-18.4994 -12.2145,-17.9786 A1.5563,1.5563 0 0 1 -14.5455,-20.0414 T-14.0896,-20.6038 -13.6338,-21.1661 A1.619,1.619 0 0 1 -11.209,-19.0202 Z" stroke-linecap="round" fill="#40c057"/></g></g><g transform="matrix(1, 0, 0, 1, 1279.5328, 9049.2622) scale(0.7041197214873717, 0.7041197214873717)" opacity="1"><g transform="scale(1.4202130255457344)"><path d="M1.1351,-0.1883 T1.3207,0.8064 1.6496,3.2523 1.8371,5.4829 1.8813,6.2623 A1.1838,1.1838 0 0 1 -0.4813,6.4177 T-0.5395,5.6392 -0.7209,3.5258 -0.9896,1.1896 -1.1351,0.1883 A1.1506,1.1506 0 0 1 1.1351,-0.1883 Z" stroke-linecap="round" fill="#40c057"/></g></g><g transform="matrix(1, 0, 0, 1, 1285.1658, 9047.8539) scale(0.7041197214873717, 0.7041197214873717)" opacity="1"><g transform="scale(1.4202130255457344)"><path d="M1.1421,0 T1.1512,0.8325 1.1766,2.9211 1.5092,5.8092 1.8254,7.441 A1.1671,1.1671 0 0 1 -0.4254,8.059 T-0.6193,7.3897 -1.003,5.4489 -1.1766,2.9211 -1.1512,0.8325 -1.1421,0 A1.1421,1.1421 0 0 1 1.1421,0 Z" stroke-linecap="round" fill="#40c057"/></g></g><g transform="matrix(1, 0, 0, 1, 1288.6864, 9045.7416) scale(0.7041197214873717, 0.7041197214873717)" opacity="1"><g transform="scale(1.4202130255457344)"><path d="M0.2052,1.4452 T-0.959,1.6214 -4.3326,2.2139 -7.7298,2.8678 -11.1363,3.5423 -14.6775,4.1296 -16,4.2802 A1.4725,1.4725 0 0 1 -16.38,1.3598 T-14.0014,1.0149 -10.5614,0.3654 -7.1973,-0.2834 -3.7176,-0.8816 -1.3729,-1.2903 -0.2052,-1.4452 A1.4597,1.4597 0 0 1 0.2052,1.4452 Z" stroke-linecap="round" fill="#40c057"/></g></g><g transform="matrix(1, 0, 0, 1, 1291.5029, 9059.1198) scale(0.7041197214873717, 0.7041197214873717)" opacity="1"><g transform="scale(1.4202130255457344)"><path d="M-0.5197,1.2696 T-1.6826,1.4577 -4.0009,1.7616 -6.2669,1.9483 -9.2838,2.0856 -13.1137,1.7368 -15.0375,1.3216 A1.3445,1.3445 0 0 1 -14.5425,-1.3216 T-12.8799,-1.0653 -9.3576,-0.8165 -5.3581,-0.9038 -2.0493,-1.1266 -0.8803,-1.2696 A1.2823,1.2823 0 0 1 -0.5197,1.2696 Z" stroke-linecap="round" fill="#40c057"/></g></g><g transform="matrix(1, 0, 0, 1, 1282.3493, 9064.7528) scale(0.7041197214873717, 0.7041197214873717)" opacity="1"><g transform="scale(1.4202130255457344)"><path d="M1.501,0.5015 T1.1555,1.4965 0.2953,3.8278 0.0075,6.5556 1.1367,8.627 2.9995,8.7438 3.8818,7.6361 3.8037,7.0913 A1.5348,1.5348 0 0 1 6.7118,6.1088 T6.8994,6.8198 6.6908,9.1483 5.1285,11.5287 2.134,12.085 -0.789,11.1069 -2.5272,8.9596 -3.185,5.9919 -2.6715,2.9503 -1.8224,0.4995 -1.501,-0.5015 A1.5826,1.5826 0 0 1 1.501,0.5015 ZM4.6903,8.0261 T4.119,7.7906 2.444,7.5522 0.407,7.6406 -0.5263,7.732 A1.4028,1.4028 0 0 1 -0.8737,4.948 T0.0534,4.8072 2.8211,4.6969 5.2434,4.9507 5.8252,5.174 A1.5348,1.5348 0 0 1 4.6903,8.0261 Z" stroke-linecap="round" fill="#40c057"/></g></g><g transform="matrix(1, 0, 0, 1, 1326.0047, 8946.4607) scale(0.7041197214873717, 0.7041197214873717)" opacity="1"><g transform="scale(1.4202130255457344)"><path d="M-0.4789,-1.9293 T0.3702,-2.0476 2.2587,-1.8018 3.2981,-1.4377 A1.8987,1.8987 0 0 1 1.5164,1.916 T1.4824,1.7098 0.9636,1.7165 0.4789,1.9293 A1.9878,1.9878 0 0 1 -0.4789,-1.9293 ZM4.1297,1.0381 T3.7709,1.7542 1.8338,3.3486 -1.448,3.6302 -3.5265,1.5469 -3.3388,-1.1784 -1.8747,-3.2685 0.4524,-4.1535 3.1036,-3.4265 4.8005,-1.4864 4.7662,1.1069 2.8227,3.2195 -0.1574,3.2903 -2.3508,0.8162 -3.0022,-1.0297 A2.1092,2.1092 0 0 1 1.2066,-1.3154 T0.7587,-0.4769 0.4978,-0.0991 0.6848,-0.5598 A1.8987,1.8987 0 0 1 4.1297,1.0381 ZM-1.6329,-3.1495 T-0.539,-3.547 2.1499,-3.5005 4.7581,-1.8077 5.7713,-0.5589 A2.2414,2.2414 0 0 1 2.0176,1.8915 T1.6545,1.0684 0.5644,0.5248 -0.1627,0.8044 A2.1092,2.1092 0 0 1 -1.6329,-3.1495 ZM5.4428,2.287 T4.7256,2.9809 4.0085,3.6747 A2.2541,2.2541 0 0 1 0.8944,0.415 T1.6203,-0.2696 2.3462,-0.9543 A2.2414,2.2414 0 0 1 5.4428,2.287 ZM1.6833,4.164 T0.8272,3.7924 -0.0289,3.4208 A2.1388,2.1388 0 0 1 1.4289,-0.6008 T2.3243,-0.3375 3.2196,-0.0743 A2.2541,2.2541 0 0 1 1.6833,4.164 Z" stroke-linecap="round" fill="#40c057"/></g></g><g transform="matrix(1, 0, 0, 1, 1333.0459, 8946.4607) scale(0.7041197214873717, 0.7041197214873717)" opacity="1"><g transform="scale(1.4202130255457344)"><path d="M0.889,-1.5228 T2.2262,-1.3792 4.6939,-0.9791 7.7797,-0.5498 11.5613,-0.5596 15.0241,-0.9044 17.6931,-1.2427 18.7256,-1.4189 A1.4471,1.4471 0 0 1 19.2944,1.4189 T17.2411,1.884 13.561,2.4718 10.7302,2.7377 8.425,2.8015 5.2479,2.3099 1.8415,1.7103 0.511,1.5228 A1.5345,1.5345 0 0 1 0.889,-1.5228 Z" stroke-linecap="round" fill="#40c057"/></g></g><g transform="matrix(1, 0, 0, 1, 1370.3643, 8943.6442) scale(0.7041197214873717, 0.7041197214873717)" opacity="1"><g transform="scale(1.4202130255457344)"><path d="M0.2866,-1.4412 T1.1024,-1.2876 0.913,-0.5015 -0.2866,1.8143 -0.106,4.5627 1.5772,6.3034 4.2913,6.6341 6.8058,5.9214 7.9144,5.5536 A1.5799,1.5799 0 0 1 8.9856,8.5264 T7.8971,8.9502 5.5942,9.8063 3.1801,10.2547 0.9027,9.8929 -1.4588,8.1337 -3.1257,5.0262 -3.3008,1.7895 -2.426,-1.166 -0.8273,-3.5564 1.402,-4.8126 3.9122,-4.2434 5.2462,-2.1451 4.7204,0.0577 2.7427,1.4192 0.5626,1.6187 -0.2866,1.4412 A1.4694,1.4694 0 0 1 0.2866,-1.4412 Z" stroke-linecap="round" fill="#40c057"/></g></g><g transform="matrix(1, 0, 0, 1, 1383.7425, 8930.2659) scale(0.7041197214873717, 0.7041197214873717)" opacity="1"><g transform="scale(1.4202130255457344)"><path d="M1.3087,0.2171 T1.1782,1.2208 0.9668,3.6455 0.8709,5.5412 0.8559,6.0159 A1.5038,1.5038 0 0 1 -2.148,5.8682 T-2.1145,5.3575 -1.8954,3.3071 -1.5093,0.7752 -1.3087,-0.2171 A1.3266,1.3266 0 0 1 1.3087,0.2171 ZM0.0624,4.6156 T0.5501,4.8725 1.0378,5.1293 A1.5101,1.5101 0 0 1 -0.3849,7.7934 T-0.8696,7.531 -1.3544,7.2685 A1.5038,1.5038 0 0 1 0.0624,4.6156 ZM-0.1511,5.0288 T0.4458,4.8538 1.707,4.4814 2.3713,4.2842 A1.4187,1.4187 0 0 1 3.2687,6.9758 T2.6189,7.2167 1.3866,7.6757 0.8041,7.8939 A1.5101,1.5101 0 0 1 -0.1511,5.0288 Z" stroke-linecap="round" fill="#40c057"/></g></g><g transform="matrix(1, 0, 0, 1, 1385.1508, 8924.633) scale(0.7041197214873717, 0.7041197214873717)" opacity="1"><g transform="scale(1.4202130255457344)"><path d="M 0.7 0 m -2.023646113142455, 0 a 2.023646113142455,2.023646113142455 0 1,1 4.04729222628491,0 a 2.023646113142455,2.023646113142455 0 1,1 -4.04729222628491,0" stroke-linecap="round" fill="#40c057"/></g></g><g transform="matrix(1, 0, 0, 1, 1396.4167, 8923.9289) scale(0.7041197214873717, 0.7041197214873717)" opacity="1"><g transform="scale(1.4202130255457344)"><path d="M1.301,0 T1.2858,1.1659 1.2566,3.6309 1.2426,4.93 A1.2426,1.2426 0 0 1 -1.2426,4.93 T-1.2566,3.6309 -1.2858,1.1659 -1.301,0 A1.301,1.301 0 0 1 1.301,0 Z" stroke-linecap="round" fill="#40c057"/></g></g><g transform="matrix(1, 0, 0, 1, 1399.2332, 8923.2247) scale(0.7041197214873717, 0.7041197214873717)" opacity="1"><g transform="scale(1.4202130255457344)"><path d="M1.1265,0 T1.1317,0.8325 1.1531,2.9211 1.1701,5.6867 1.1616,7.823 1.1524,8.45 A1.1524,1.1524 0 0 1 -1.1524,8.45 T-1.1616,7.823 -1.1701,5.6867 -1.1531,2.9211 -1.1317,0.8325 -1.1265,0 A1.1265,1.1265 0 0 1 1.1265,0 Z" stroke-linecap="round" fill="#40c057"/></g></g><g transform="matrix(1, 0, 0, 1, 1403.4579, 8921.8165) scale(0.7041197214873717, 0.7041197214873717)" opacity="1"><g transform="scale(1.4202130255457344)"><path d="M0,1.2695 T-0.8325,1.28 -3.1775,1.2979 -6.1741,1.4569 -8.6391,1.7917 -9.6203,1.9748 A1.2971,1.2971 0 0 1 -10.0997,-0.5748 T-9.1191,-0.7606 -6.4143,-1.1258 -3.1775,-1.2979 -0.8325,-1.28 0,-1.2695 A1.2695,1.2695 0 0 1 0,1.2695 Z" stroke-linecap="round" fill="#40c057"/></g></g><g transform="matrix(1, 0, 0, 1, 1401.3455, 8933.0824) scale(0.7041197214873717, 0.7041197214873717)" opacity="1"><g transform="scale(1.4202130255457344)"><path d="M0,1.266 T-1.1659,1.2901 -4.1102,1.1557 -8.0308,0.4178 -10.173,-0.1618 A1.2869,1.2869 0 0 1 -9.547,-2.6582 T-7.3871,-2.1589 -3.7796,-1.4868 -1.1659,-1.2901 0,-1.266 A1.266,1.266 0 0 1 0,1.266 Z" stroke-linecap="round" fill="#40c057"/></g></g><g transform="matrix(1, 0, 0, 1, 1394.3043, 8935.1948) scale(0.7041197214873717, 0.7041197214873717)" opacity="1"><g transform="scale(1.4202130255457344)"><path d="M0.6497,-1.2994 T1.6589,-0.8136 3.6954,0.9523 4.7229,2.2324 A1.5091,1.5091 0 0 1 1.8196,3.0578 T1.5719,2.6908 0.3372,1.8116 -0.6497,1.2994 A1.4528,1.4528 0 0 1 0.6497,-1.2994 ZM3.9885,3.9729 T3.4017,4.2853 2.8149,4.5978 A1.5011,1.5011 0 0 1 1.388,1.9562 T1.971,1.6368 2.554,1.3173 A1.5091,1.5091 0 0 1 3.9885,3.9729 ZM3.5242,2.7985 T3.6255,3.165 4.2757,4.8151 4.3615,7.3119 3.8984,8.5252 A1.5245,1.5245 0 0 1 1.3712,6.8196 T1.2657,5.9379 0.9194,4.4059 0.6786,3.7556 A1.5011,1.5011 0 0 1 3.5242,2.7985 ZM2.3508,9.1702 T1.5649,9.0059 -0.097,8.6607 -0.973,8.4796 A1.4653,1.4653 0 0 1 -0.427,5.6004 T0.4545,5.7526 2.1274,6.0397 2.9188,6.1746 A1.5245,1.5245 0 0 1 2.3508,9.1702 Z" stroke-linecap="round" fill="#40c057"/></g></g></svg>