<svg xmlns="http://www.w3.org/2000/svg" direction="ltr" width="401.5392001360042" height="395.8613127360004" viewBox="1030.4607998639958 8876.063105264255 401.5392001360042 395.8613127360004" stroke-linecap="round" stroke-linejoin="round" style="background-color: transparent;"><defs/><g transform="matrix(1, 0, 0, 1, 1081.2384, 8921.2771) scale(0.9504656900559846, 0.9504656900559846)" opacity="1"><path d="M0,167.666716844379 a167.68706562459334,167.666716844379,0,1,1,335.3741312491867,0a167.68706562459334,167.666716844379,0,1,1,-335.3741312491867,0 " stroke="#9398b0" stroke-width="2" fill="none"/></g><g transform="matrix(1, 0, 0, 1, 1239.0157, 8920.3266) scale(0.9504656900559846, 0.9504656900559846)" opacity="0.25"><g transform="scale(1.0521158317046644)"><path d="M1.7405,-1.1986 T1.9623,0.3746 2.3749,4.4211 2.9566,8.8702 3.4668,12.8696 3.6191,16.8292 3.8768,20.7326 4.3085,24.8954 4.5761,29.0845 4.6584,32.9998 5.0318,36.9661 5.4908,41.3834 5.9734,46.047 6.4212,49.7225 6.5528,53.3485 6.6282,57.9321 6.6494,62.2962 6.8678,66.2994 7.2806,70.4932 7.534,74.7017 7.6044,78.9681 7.6221,83.2415 7.6216,87.5279 7.2711,91.7921 6.8283,95.7257 6.3538,99.3686 5.8782,102.7654 5.5046,106.8599 5.0563,111.0973 4.8357,114.8283 4.7723,118.609 4.4066,122.519 3.9661,126.6836 3.6106,131.2131 2.9238,135.9554 2.0492,141.0201 1.1303,146.7235 0.4326,152.2923 0.1313,157.3926 0.0531,162.7956 0.0458,167.1675 0.0541,170.3685 0.0654,173.6305 0.0775,176.6977 0.0901,179.6622 0.1072,182.7971 0.1215,186.022 0.1314,190.1897 0.1392,194.1859 0.147,198.0417 -0.0752,203.6269 -0.412,208.2014 -0.5793,211.1068 -0.6681,213.9837 -0.7228,217.9312 -0.751,222.858 -0.7566,227.6564 -0.759,232.1931 -0.4188,236.443 0.0252,240.7114 0.1541,245.0873 0.3823,249.1705 0.789,253.1652 1.0459,257.2419 1.4498,261.2463 1.9062,265.447 2.0418,270.1509 2.0813,274.8908 2.4278,278.9449 2.8719,283.0519 3.009,287.1758 3.0573,291.5249 3.0841,295.8279 3.0999,299.2 3.1116,302.1953 3.3128,305.0388 3.7286,308.5654 4.0066,312.9059 4.4591,316.9978 4.8531,318.8892 A2.0576,2.0576 0 0 1 0.8469,319.8308 T0.2523,317.5163 -0.3842,313.1197 -0.5683,309.275 -0.9636,305.5822 -1.2121,302.1961 -1.2019,299.2026 -1.1914,295.8346 -1.1835,291.5542 -1.2032,287.2592 -1.3111,283.364 -1.7491,279.2143 -2.1084,274.9221 -2.1393,270.2366 -2.2571,265.735 -2.7136,261.5134 -3.1256,257.4271 -3.3359,253.7553 -3.7589,249.6412 -4.0476,245.1711 -4.1622,240.9849 -4.5945,236.6597 -4.939,232.2028 -4.9362,227.6511 -4.923,222.8394 -4.8836,217.8698 -4.8196,213.8493 -4.7178,210.8591 -4.5235,207.7563 -4.1741,203.3422 -3.9469,198.0416 -3.9392,194.1859 -3.9312,190.1896 -3.921,186.0217 -3.9062,182.7966 -3.8883,179.6611 -3.8742,176.6958 -3.8591,173.6271 -3.8422,170.3619 -3.8232,167.1549 -3.8004,164.057 -3.7487,159.9652 -3.6624,156.0383 -3.5242,153.1912 -3.2602,150.3935 -2.7883,147.4521 -2.0225,143.11 -1.3848,138.8987 -0.8071,135.1631 -0.1652,130.792 0.175,126.3868 0.6215,122.2602 0.9792,118.552 1.0498,114.6672 1.3114,110.5626 1.7468,106.3773 2.0849,102.4066 2.5536,98.9988 3.0085,95.4349 3.4416,91.5663 3.7746,87.5114 3.7641,83.2528 3.7462,79.0114 3.688,74.8542 3.4786,70.968 3.0764,67.6331 2.8371,64.3083 2.83,60.2229 2.7961,55.8347 2.6759,51.1441 2.218,46.2948 1.7682,41.6284 1.3405,37.1747 0.9916,33.0532 0.9439,29.2304 0.7435,25.3481 0.3427,21.0921 0.0736,16.918 -0.0532,13.1763 -0.5481,9.2108 -1.1146,4.772 -1.5129,0.8709 -1.7405,-0.7014 A1.7582,1.7582 0 0 1 1.7405,-1.1986 Z" stroke-linecap="round" fill="#9398b0"/></g></g><g transform="matrix(1, 0, 0, 1, 1080.2879, 9081.9058) scale(0.9504656900559846, 0.9504656900559846)" opacity="0.25"><g transform="scale(1.0521158317046644)"><path d="M0,-1.9719 T1.1234,-1.955 4.0616,-1.9253 7.6368,-1.911 11.3779,-1.9185 14.961,-1.9359 18.0417,-1.6045 21.3124,-1.1757 24.6276,-0.7792 28.0521,-0.3384 31.7131,-0.5307 35.5605,-0.9633 39.6039,-1.109 43.1317,-1.1635 46.5134,-1.1893 50.2013,-1.2068 53.9737,-1.2194 57.5146,-1.4278 61.2401,-1.8475 65.2707,-2.1238 68.885,-2.3967 72.9858,-2.8286 77.4666,-3.1052 81.6757,-3.1874 85.9339,-3.2223 90.207,-3.2398 94.4853,-3.2506 98.7612,-3.2602 103.0364,-3.2745 107.0868,-3.293 111.303,-3.311 115.79,-3.3255 120.1239,-3.3359 124.5336,-3.3437 128.8484,-3.3529 133.1442,-3.3628 137.5694,-3.0225 141.5384,-2.5956 145.4648,-2.4935 149.6442,-2.4726 153.6738,-2.4717 157.6279,-2.6744 161.8055,-3.0837 165.9632,-3.3485 170.099,-3.4249 174.3393,-3.4507 178.3801,-3.4612 182.2472,-3.4667 186.2906,-3.4704 190.5036,-3.4732 194.8834,-3.4753 199.1888,-3.4768 203.4786,-3.4772 208.104,-3.1327 212.4803,-2.7067 216.7832,-2.6075 221.2836,-2.5888 225.8464,-2.5902 230.6656,-2.5958 235.4384,-2.601 240.0775,-2.6088 244.5721,-2.6199 248.6834,-2.6309 252.5722,-2.6435 256.4005,-2.6563 260.2096,-2.6661 264.0121,-2.6721 267.8128,-2.6736 271.6154,-2.6733 275.788,-3.0045 279.6879,-3.4405 282.9199,-3.5729 285.999,-3.608 289.7084,-3.6199 294.1931,-3.3593 298.5007,-2.9416 302.2363,-2.44 305.5105,-1.9654 309.0639,-2.1979 312.7615,-2.5836 314.5,-2.611 A2.6129,2.6129 0 0 1 314.7,2.611 T313.8211,2.6652 311.0581,2.886 307.1572,3.2877 303.3768,3.0955 300.0972,2.6142 296.7879,2.3272 293.4694,1.9106 289.7204,1.7271 286.0448,1.734 283.0631,1.7665 279.4311,1.9619 275.4235,2.4026 271.6154,2.6733 267.8128,2.6736 264.0121,2.6721 260.2096,2.6661 256.4005,2.6563 252.5722,2.6435 248.6834,2.6309 244.572,2.6199 240.0774,2.6087 235.4378,2.6005 230.6637,2.5938 225.8396,2.5829 221.2566,2.5628 216.6796,2.5139 212.1515,2.3696 207.8444,1.9189 203.4658,1.5772 199.1888,1.5768 194.8834,1.5753 190.5037,1.5733 186.2909,1.5707 182.2485,1.5678 178.3844,1.5651 174.3529,1.5643 170.1542,1.5742 166.1653,1.626 162.4691,1.8228 158.1326,2.223 153.6658,2.4645 149.6191,2.4466 145.3622,2.3999 141.1652,2.2585 137.2674,1.8087 133.132,1.4628 128.8484,1.4529 124.5336,1.4437 120.1239,1.4359 115.79,1.4255 111.303,1.411 107.0868,1.3931 103.0365,1.3746 98.7615,1.3605 94.4863,1.3517 90.2108,1.3437 85.9464,1.3363 81.7257,1.3378 77.6406,1.3867 73.6398,1.582 69.446,1.9967 65.456,2.3014 61.8878,2.4873 58.0177,2.8786 53.9742,3.12 50.2032,3.1086 46.5209,3.096 43.1562,3.0875 39.6863,3.0952 35.8281,3.1738 31.8425,3.549 28.1716,3.7397 24.7748,3.2668 21.6406,2.8471 18.3709,2.3646 14.9153,1.9359 11.3779,1.9185 7.6368,1.911 4.0616,1.9253 1.1234,1.955 0,1.9719 A1.9719,1.9719 0 0 1 0,-1.9719 Z" stroke-linecap="round" fill="#9398b0"/></g></g><g transform="matrix(1, 0, 0, 1, 1233.0033, 9079.2426) scale(0.6624974100316656, 0.6624974100316656)" opacity="1"><g transform="scale(1.5094398632474693)"><path d="M-1.4599,0.6404 T-2.0857,-0.1431 -3.7433,-2.0818 -5.7774,-4.2754 -8.0514,-6.7566 -10.3816,-9.623 -12.1929,-11.8618 -14.3833,-14.326 -16.5132,-16.9184 -17.9758,-18.5986 -19.5338,-20.2641 -21.14,-21.9238 -22.7717,-23.5802 -24.4152,-25.2383 -26.065,-26.894 -27.7515,-28.7379 -29.4231,-30.6505 -31.0877,-32.5993 -32.718,-34.3746 -34.3621,-36.0933 -36.1668,-37.9396 -37.9341,-39.8842 -39.6775,-42.0294 -41.5069,-44.2224 -43.2624,-46.3242 -44.9739,-48.3683 -46.7529,-50.1595 -48.508,-51.9218 -50.2779,-54.0091 -52.1176,-56.171 -53.9999,-58.2183 -55.9324,-60.2355 -57.7352,-62.0852 -59.4675,-63.842 -61.3208,-65.7053 -63.0833,-67.4721 -64.7967,-69.1831 -66.6414,-71.022 -68.3982,-72.7768 -70.1069,-74.4832 -71.7924,-76.1643 -74.0436,-78.5719 -76.2879,-80.8988 -77.8714,-82.5205 -80.0565,-84.907 -82.7797,-87.7409 -85.3439,-90.4963 -87.7341,-93.1749 -89.4578,-95.3796 -91.0265,-97.729 -93.1785,-100.649 -95.4296,-103.3459 -97.3048,-105.4227 -99.0874,-107.3428 -100.917,-109.4613 -102.3489,-111.6307 -102.9691,-112.7331 A1.1004,1.1004 0 0 1 -101.0709,-113.8469 T-100.4761,-112.8785 -99.1726,-110.9649 -97.4107,-108.9303 -95.5392,-106.908 -93.5905,-104.7391 -91.2824,-101.959 -89.0684,-98.9412 -86.9913,-96.0699 -84.8861,-93.3656 -82.484,-90.7049 -79.7731,-87.9229 -77.6803,-85.7082 -76.253,-84.0949 -74.6543,-82.4454 -72.3767,-80.0824 -70.2032,-77.7551 -68.519,-76.0698 -66.8132,-74.3595 -65.062,-72.6015 -63.2209,-70.7547 -61.5126,-69.0354 -59.753,-67.2635 -57.8939,-65.3921 -56.1542,-63.6252 -54.3393,-61.7594 -52.378,-59.7062 -50.444,-57.5929 -48.6052,-55.4233 -46.9583,-53.4557 -45.2098,-51.6885 -43.3113,-49.7532 -41.6079,-47.6969 -39.8633,-45.5902 -38.022,-43.3698 -36.3631,-41.3048 -34.6546,-39.4162 -32.8345,-37.5518 -31.1637,-35.8017 -29.4835,-33.9656 -27.8373,-32.0325 -26.1973,-30.1514 -24.5799,-28.3685 -22.9312,-26.7057 -21.2864,-25.0376 -19.6493,-23.3622 -18.0238,-21.6705 -16.4293,-19.9475 -14.8808,-18.1686 -13.5528,-16.4217 -12.1646,-14.8252 -10.6477,-13.2002 -8.7963,-10.9025 -6.5299,-8.1026 -4.303,-5.6816 -2.1981,-3.4151 -0.4877,-1.4225 0.1399,-0.6404 A1.0246,1.0246 0 0 1 -1.4599,0.6404 Z" stroke-linecap="round" fill="#ffc034"/></g></g><g transform="matrix(1, 0, 0, 1, 1227.0408, 9063.3427) scale(0.6624974100316656, 0.6624974100316656)" opacity="1"><g transform="scale(1.5094398632474693)"><path d="M-1.4322,0 T-1.4214,-0.7895 -0.8826,-2.9704 0.8831,-5.1364 3.5823,-6.2164 6.6493,-6.5981 9.6542,-6.6979 12.5635,-6.5572 15.4543,-6.1023 18.0396,-5.2126 20.534,-3.6942 22.9254,-1.5183 24.9803,1.2125 26.7885,4.1701 28.2653,7.1671 29.4236,10.1773 30.2909,12.5043 30.6217,13.335 A1.5801,1.5801 0 0 1 27.6783,14.485 T27.3583,13.6501 26.4748,11.1648 25.4389,8.3148 24.19,5.7201 22.5274,2.9198 20.6931,0.4183 18.83,-1.3379 16.4069,-2.6901 13.6541,-3.6179 11.0657,-3.8497 8.3088,-3.8202 5.1448,-3.6103 2.4023,-2.4893 1.4214,-0.7761 1.4322,0 A1.4322,1.4322 0 0 1 -1.4322,0 Z" stroke-linecap="round" fill="#ffc034"/></g></g><g transform="matrix(1, 0, 0, 1, 1260.1657, 9034.1928) scale(0.6624974100316656, 0.6624974100316656)" opacity="1"><g transform="scale(1.5094398632474693)"><path d="M1.5351,-1.093 T2.3291,-0.4615 3.9545,1.5669 4.7858,2.9637 A1.4192,1.4192 0 0 1 2.1853,4.1012 T1.7567,3.219 0.5565,1.7149 -0.2151,1.093 A1.4002,1.4002 0 0 1 1.5351,-1.093 ZM4.7686,4.139 T4.581,4.4918 5.3277,6.0336 6.262,7.2227 A1.4009,1.4009 0 0 1 3.8049,8.569 T3.1677,7.5202 2.1589,5.1819 1.9949,3.4092 2.2024,2.9259 A1.4192,1.4192 0 0 1 4.7686,4.139 ZM6.1414,8.7532 T5.8471,9.1116 4.5674,10.0281 1.7844,10.7136 -1.3935,10.2439 -3.1505,9.2558 -3.5273,8.8649 A1.2675,1.2675 0 0 1 -1.7727,7.0351 T-1.3235,7.5739 0.1948,8.1912 2.386,7.9457 3.7168,7.33 3.9256,7.0384 A1.4009,1.4009 0 0 1 6.1414,8.7532 Z" stroke-linecap="round" fill="#ffc034"/></g></g><g transform="matrix(1, 0, 0, 1, 1271.4282, 9036.1803) scale(0.6624974100316656, 0.6624974100316656)" opacity="1"><g transform="scale(1.5094398632474693)"><path d="M1.1155,-0.1855 T1.29,0.7504 1.5894,3.2171 1.7469,5.6541 1.7796,6.5603 A1.1212,1.1212 0 0 1 -0.4596,6.6797 T-0.5235,5.7753 -0.7138,3.4701 -0.9779,1.1274 -1.1155,0.1855 A1.1308,1.1308 0 0 1 1.1155,-0.1855 Z" stroke-linecap="round" fill="#ffc034"/></g></g><g transform="matrix(1, 0, 0, 1, 1275.4032, 9035.5178) scale(0.6624974100316656, 0.6624974100316656)" opacity="1"><g transform="scale(1.5094398632474693)"><path d="M1.004,0.4935 T1.1689,1.4334 1.5057,4.1148 1.6777,5.8564 A1.0229,1.0229 0 0 1 -0.3577,6.0636 T-0.5336,4.3877 -0.8567,1.7692 -1.004,0.8265 A1.0177,1.0177 0 0 1 1.004,0.4935 Z" stroke-linecap="round" fill="#ffc034"/></g></g><g transform="matrix(1, 0, 0, 1, 1280.0406, 9032.8678) scale(0.6624974100316656, 0.6624974100316656)" opacity="1"><g transform="scale(1.5094398632474693)"><path d="M-0.526,1.21 T-1.9328,1.3891 -4.5,1.8044 -7.6661,2.2245 -10.7549,2.4664 -11.8379,2.5246 A1.2074,1.2074 0 0 1 -12.0021,0.1154 T-10.9213,0.0261 -7.9961,-0.2631 -4.8851,-0.7034 -2.2063,-1.0769 -0.794,-1.21 A1.2174,1.2174 0 0 1 -0.526,1.21 Z" stroke-linecap="round" fill="#ffc034"/></g></g><g transform="matrix(1, 0, 0, 1, 1281.3656, 9046.1178) scale(0.6624974100316656, 0.6624974100316656)" opacity="1"><g transform="scale(1.5094398632474693)"><path d="M-0.4594,1.4101 T-1.5573,1.5635 -3.7481,1.8079 -6.9102,1.9798 -10.9922,2.0877 -14.9978,2.102 -18.0991,2.0752 -19.2075,2.0609 A1.4009,1.4009 0 0 1 -19.2125,-0.7409 T-17.1105,-0.7782 -13.0214,-0.8237 -9.0451,-0.8539 -5.0551,-0.9841 -1.9575,-1.2513 -0.8606,-1.4101 A1.4243,1.4243 0 0 1 -0.4594,1.4101 Z" stroke-linecap="round" fill="#ffc034"/></g></g><g transform="matrix(1, 0, 0, 1, 1267.4532, 9049.4302) scale(0.6624974100316656, 0.6624974100316656)" opacity="1"><g transform="scale(1.5094398632474693)"><path d="M1.0844,-0.1803 T1.265,0.7546 1.4468,3.196 2.2272,5.5093 4.1906,6.0977 6.1906,5.6927 7.0064,5.5059 A1.1496,1.1496 0 0 1 7.5736,7.7341 T6.7677,7.9601 4.1222,8.4399 0.7858,7.7685 -0.8282,5.5675 -0.8834,3.179 -0.9529,1.1232 -1.0844,0.1803 A1.0993,1.0993 0 0 1 1.0844,-0.1803 Z" stroke-linecap="round" fill="#ffc034"/></g></g><g transform="matrix(1, 0, 0, 1, 1274.0782, 9052.7427) scale(0.6624974100316656, 0.6624974100316656)" opacity="1"><g transform="scale(1.5094398632474693)"><path d="M1.3618,0.4342 T1.5225,1.3748 1.8321,4.0995 2.021,7.6596 2.0703,10.3372 2.0795,11.2389 A1.4196,1.4196 0 0 1 -0.7595,11.2811 T-0.7771,10.3796 -0.8245,7.7494 -0.9565,4.3952 -1.2104,1.8278 -1.3618,0.8858 A1.3804,1.3804 0 0 1 1.3618,0.4342 Z" stroke-linecap="round" fill="#ffc034"/></g></g><g transform="matrix(1, 0, 0, 1, 1129.6371, 8966.4291) scale(0.6521970623086343, 0.6521970623086343)" opacity="1"><g transform="scale(1.5332789087706402)"><path d="M-1.2307,0.8163 T-1.5253,0.3408 -1.9984,-1.4327 -1.4418,-3.6849 0.8611,-4.7306 3.25,-4.0549 4.3423,-2.078 4.6134,-0.8681 A1.4175,1.4175 0 0 1 1.7966,-0.5474 T1.1933,-1.1335 0.9104,-1.2679 1.2307,-0.8163 A1.4769,1.4769 0 0 1 -1.2307,0.8163 ZM4.2497,0.2502 T3.9497,0.5833 2.6984,1.3798 0.5968,1.7057 -1.1894,0.6619 -1.6895,-1.4004 -0.1303,-3.4702 2.5591,-4.0407 4.6343,-2.8914 5.4783,-0.7699 4.5877,1.3273 2.3611,2.2314 -0.0795,1.8804 -1.219,1.4068 A1.5175,1.5175 0 0 1 -0.081,-1.4068 T0.7508,-1.2271 1.8714,-1.3566 2.1602,-1.6657 A1.4175,1.4175 0 0 1 4.2497,0.2502 Z" stroke-linecap="round" fill="#ffc034"/></g></g><g transform="matrix(1, 0, 0, 1, 1062.4608, 8931.8626) scale(0.6521970623086343, 0.6521970623086343)" opacity="1"><g transform="scale(1.5332789087706402)"><path d="M-0.2567,-1.2875 T0.5114,-1.4527 2.723,-2.0743 4.1665,-2.5309 A1.2953,1.2953 0 0 1 4.9735,-0.0691 T3.3889,0.4669 1.0306,1.1452 0.2567,1.2875 A1.3129,1.3129 0 0 1 -0.2567,-1.2875 Z" stroke-linecap="round" fill="#ffc034"/></g></g><g transform="matrix(1, 0, 0, 1, 1070.9394, 8927.9494) scale(0.6521970623086343, 0.6521970623086343)" opacity="1"><g transform="scale(1.5332789087706402)"><path d="M1.1918,-0.4752 T1.4916,0.2979 2.2852,2.097 3.1188,3.8506 3.4584,4.5782 A1.2938,1.2938 0 0 1 1.2912,5.9921 T0.8425,4.999 -0.0839,3.0094 -0.8767,1.2441 -1.1918,0.4752 A1.283,1.283 0 0 1 1.1918,-0.4752 ZM1.3648,4.4766 T1.5961,4.2253 2.0649,2.5661 2.4006,0.0658 2.5432,-2.2287 2.6063,-4.6183 2.6324,-6.6912 2.6397,-7.5764 A1.2681,1.2681 0 0 1 5.1759,-7.5701 T5.1773,-6.6806 5.1768,-4.579 5.1441,-2.1152 4.8142,0.8615 4.3888,3.7542 3.8238,5.5077 3.3848,6.0937 A1.2938,1.2938 0 0 1 1.3648,4.4766 ZM3.4494,-8.7556 T3.6056,-8.8175 3.7617,-8.8793 A1.2705,1.2705 0 0 1 4.6803,-6.5101 T4.5232,-6.4505 4.3662,-6.3909 A1.2681,1.2681 0 0 1 3.4494,-8.7556 ZM4.9261,-8.7516 T5.4674,-8.3982 7.0936,-7.7763 9.3385,-8.2087 11.4968,-10.0056 12.7354,-11.4498 12.9759,-11.798 A1.4055,1.4055 0 0 1 15.2891,-10.2007 T14.6351,-9.3481 13.0226,-7.532 10.6014,-5.8021 7.9319,-5.1899 5.6082,-5.6579 4.0036,-6.3048 3.5159,-6.6378 A1.2705,1.2705 0 0 1 4.9261,-8.7516 ZM15.2777,-11.8141 T15.4835,-11.5171 15.9676,-10.1333 16.5117,-7.9122 17.1515,-5.5443 17.5255,-4.3106 A1.2894,1.2894 0 0 1 15.0745,-3.5094 T14.8293,-4.2018 14.2592,-6.1133 13.6654,-8.4787 13.1918,-9.9048 12.9872,-10.1845 A1.4055,1.4055 0 0 1 15.2777,-11.8141 Z" stroke-linecap="round" fill="#ffc034"/></g></g><g transform="matrix(1, 0, 0, 1, 1080.7223, 8927.2972) scale(0.6521970623086343, 0.6521970623086343)" opacity="1"><g transform="scale(1.5332789087706402)"><path d="M1.4594,-1.0778 T2.1052,-0.5787 3.2318,1.0743 3.3093,3.3811 2.423,5.0668 1.94,5.5996 A1.3508,1.3508 0 0 1 -0.0166,3.7369 T0.5007,2.8353 0.4293,1.5058 -0.1594,1.0778 A1.3479,1.3479 0 0 1 1.4594,-1.0778 ZM2.1133,3.9622 T2.1966,4.0907 2.2799,4.2192 A1.3585,1.3585 0 0 1 -0.0364,5.6393 T-0.1131,5.5068 -0.1899,5.3743 A1.3508,1.3508 0 0 1 2.1133,3.9622 ZM0.803,3.6087 T1.1539,3.5149 3.0892,3.1861 5.4361,2.7819 6.1987,2.6128 A1.3364,1.3364 0 0 1 6.8413,5.2072 T6.0879,5.4136 3.7405,5.8587 1.7935,6.1736 1.4405,6.2498 A1.3585,1.3585 0 0 1 0.803,3.6087 Z" stroke-linecap="round" fill="#ffc034"/></g></g><g transform="matrix(1, 0, 0, 1, 1089.8531, 8936.428) scale(0.6521970623086343, 0.6521970623086343)" opacity="1"><g transform="scale(1.5332789087706402)"><path d="M1.5353,0.5092 T1.36,1.0038 -0.2374,2.6913 -2.6691,4.1567 -4.7173,4.6934 -7.025,5.1174 -9.4114,5.3594 -11.5833,5.4688 -14.3548,5.6979 -17.093,5.9527 -18.1142,6.0058 A1.4432,1.4432 0 0 1 -18.4058,3.1342 T-16.5712,2.8488 -12.7435,2.3134 -9.7135,2.0039 -7.6075,1.8361 -5.4836,1.4823 -3.1142,0.7964 -1.6675,-0.0767 -1.5353,-0.5092 A1.6175,1.6175 0 0 1 1.5353,0.5092 Z" stroke-linecap="round" fill="#ffc034"/></g></g><g transform="matrix(1, 0, 0, 1, 1076.1569, 8946.2109) scale(0.6521970623086343, 0.6521970623086343)" opacity="1"><g transform="scale(1.5332789087706402)"><path d="M0.2699,-1.6233 T1.1923,-1.4565 3.4129,-1.1715 5.8382,-0.6952 7.4623,0.635 7.854,2.7936 6.902,5.3226 5.3663,7.5946 3.7896,9.303 2.6563,10.289 2.4109,10.4959 A1.6532,1.6532 0 0 1 0.3618,7.9011 T1.2403,7.1861 2.8964,5.4291 4.0728,3.2751 3.0279,2.0338 0.6571,1.7639 -0.2699,1.6233 A1.6456,1.6456 0 0 1 0.2699,-1.6233 ZM2.0109,7.6679 T2.3718,7.8111 3.838,7.9482 6.5272,7.7766 9.2892,7.5232 11.5377,7.3981 14.4323,7.3888 16.2566,7.4167 A1.7138,1.7138 0 0 1 16.3434,10.8433 T14.5492,10.9629 10.7332,11.1958 6.7779,11.4186 3.4716,11.4054 1.4302,11.006 0.7618,10.7292 A1.6532,1.6532 0 0 1 2.0109,7.6679 Z" stroke-linecap="round" fill="#ffc034"/></g></g><g transform="matrix(1, 0, 0, 1, 1103.5492, 8928.6016) scale(0.6521970623086343, 0.6521970623086343)" opacity="1"><g transform="scale(1.5332789087706402)"><path d="M1.5197,-0.2162 T1.694,0.8618 2.1455,3.4987 2.5951,6.5929 2.8192,8.8915 2.8709,9.6548 A1.5759,1.5759 0 0 1 -0.2709,9.9052 T-0.3408,9.1433 -0.5544,7.1168 -0.9757,4.1179 -1.3866,1.2998 -1.5197,0.2162 A1.535,1.535 0 0 1 1.5197,-0.2162 Z" stroke-linecap="round" fill="#ffc034"/></g></g><g transform="matrix(1, 0, 0, 1, 1106.8102, 8932.5148) scale(0.6521970623086343, 0.6521970623086343)" opacity="1"><g transform="scale(1.5332789087706402)"><path d="M-0.3804,1.2174 T-1.776,1.4916 -4.7247,2.0797 -6.2778,2.3936 A1.1201,1.1201 0 0 1 -6.7622,0.2064 T-5.2218,-0.1648 -2.3005,-0.8767 -0.9196,-1.2174 A1.2469,1.2469 0 0 1 -0.3804,1.2174 Z" stroke-linecap="round" fill="#ffc034"/></g></g><g transform="matrix(1, 0, 0, 1, 1112.68, 8916.8621) scale(0.6521970623086343, 0.6521970623086343)" opacity="1"><g transform="scale(1.5332789087706402)"><path d="M1.1997,0.4511 T1.3622,1.3761 2,3.495 2.9546,5.5065 3.4338,6.3243 A1.3051,1.3051 0 0 1 1.8576,8.4049 T1.0276,7.1008 -0.3561,4.2519 -1.0547,1.778 -1.1997,0.8489 A1.2161,1.2161 0 0 1 1.1997,0.4511 ZM2.2515,6.1204 T2.3965,6.0732 2.5414,6.0261 A1.3076,1.3076 0 0 1 3.3311,8.5191 T3.1855,8.5639 3.0398,8.6088 A1.3051,1.3051 0 0 1 2.2515,6.1204 ZM1.6622,6.9785 T1.7386,6.6477 1.8865,4.8003 1.9933,1.791 2.0493,-0.8206 1.811,-3.3909 1.5518,-4.8423 A1.1593,1.1593 0 0 1 3.8579,-5.0835 T3.9735,-4.2757 4.2773,-2.1157 4.4816,0.4945 4.5007,3.1589 4.4337,5.7334 4.287,7.234 4.2103,7.5666 A1.3076,1.3076 0 0 1 1.6622,6.9785 ZM2.4109,-6.0843 T2.8905,-6.1834 4.6905,-6.0746 7.1026,-6.2475 9.0694,-7.4363 10.4269,-8.7166 10.9094,-9.1889 A1.2813,1.2813 0 0 1 13.0726,-7.8149 T12.0521,-6.6666 10.0585,-4.8898 7.4918,-3.8519 4.6774,-3.7287 3.2277,-3.9281 2.9988,-3.8415 A1.1593,1.1593 0 0 1 2.4109,-6.0843 ZM10.8012,-8.0264 T10.6768,-8.3409 10.5524,-8.6554 A1.279,1.279 0 0 1 12.9276,-9.6046 T13.0543,-9.291 13.1809,-8.9774 A1.2813,1.2813 0 0 1 10.8012,-8.0264 ZM13.014,-9.2425 T13.0443,-8.7054 13.0452,-7.1242 13.0058,-4.9897 13.1073,-2.7955 13.3738,-0.9842 13.5289,-0.2765 A1.172,1.172 0 0 1 11.2511,0.2765 T11.0644,-0.4235 10.6838,-2.5141 10.4872,-5.0072 10.5147,-7.3114 10.5054,-8.7653 10.466,-9.0175 A1.279,1.279 0 0 1 13.014,-9.2425 Z" stroke-linecap="round" fill="#ffc034"/></g></g><g transform="matrix(1, 0, 0, 1, 1121.1585, 8918.8187) scale(0.6521970623086343, 0.6521970623086343)" opacity="1"><g transform="scale(1.5332789087706402)"><path d="M-0.7467,-0.9943 T-0.1194,-1.4721 1.0307,-2.1383 1.5535,-2.3265 A1.2672,1.2672 0 0 1 2.2167,0.1196 T2.089,0.1077 1.3539,0.5451 0.7467,0.9943 A1.2434,1.2434 0 0 1 -0.7467,-0.9943 ZM2.6783,-2.0917 T3.0157,-1.8224 3.6753,-0.329 3.4346,1.7927 2.0744,3.6231 1.0285,4.8473 0.7799,5.1386 A1.2744,1.2744 0 0 1 -1.1056,3.4235 T-0.6123,3.0046 0.7995,1.488 1.4049,0.1374 1.0919,-0.1152 A1.2672,1.2672 0 0 1 2.6783,-2.0917 ZM0.9475,3.6554 T0.987,3.7232 1.0265,3.791 A1.2767,1.2767 0 0 1 -1.1981,5.0444 T-1.2356,4.9755 -1.2731,4.9067 A1.2744,1.2744 0 0 1 0.9475,3.6554 ZM0.0802,3.1519 T0.4663,3.197 1.959,3.1419 3.6399,2.8809 4.2143,2.7201 A1.2419,1.2419 0 0 1 4.9257,5.0999 T4.3574,5.2807 2.2214,5.6374 0.201,5.7484 -0.2518,5.6836 A1.2767,1.2767 0 0 1 0.0802,3.1519 Z" stroke-linecap="round" fill="#ffc034"/></g></g><g transform="matrix(1, 0, 0, 1, 1130.2893, 8927.9494) scale(0.6521970623086343, 0.6521970623086343)" opacity="1"><g transform="scale(1.5332789087706402)"><path d="M0.5294,1.2343 T-0.5412,1.7216 -2.6607,2.6331 -5.5238,3.5745 -8.7661,4.6649 -12.0441,5.8357 -13.8942,6.4335 A1.2963,1.2963 0 0 1 -14.8058,4.0065 T-13.0833,3.2624 -9.762,1.8843 -6.4499,0.8198 -3.724,0.0171 -1.6204,-0.7946 -0.5294,-1.2343 A1.3431,1.3431 0 0 1 0.5294,1.2343 Z" stroke-linecap="round" fill="#ffc034"/></g></g><g transform="matrix(1, 0, 0, 1, 1119.8541, 8936.428) scale(0.6521970623086343, 0.6521970623086343)" opacity="1"><g transform="scale(1.5332789087706402)"><path d="M0,-1.655 T0.9299,-1.6354 3.4366,-0.7751 5.4334,1.1461 5.4353,3.4355 4.0147,5.7522 2.2855,7.1962 1.5587,7.5323 A1.4852,1.4852 0 0 1 0.5408,4.7418 T1.0184,4.4412 1.6676,2.8782 0.9196,1.6354 0,1.655 A1.655,1.655 0 0 1 0,-1.655 ZM2.4348,6.6731 T2.346,6.9196 2.2571,7.1661 A1.4974,1.4974 0 0 1 -0.5358,6.0852 T-0.4356,5.8431 -0.3354,5.601 A1.4852,1.4852 0 0 1 2.4348,6.6731 ZM0.9516,5.131 T1.4654,5.1671 3.037,4.9796 5.5314,4.2668 8.7939,3.197 10.6197,2.6162 A1.3766,1.3766 0 0 1 11.5603,5.2038 T9.829,5.916 6.5474,7.2018 3.7786,7.9974 1.6649,8.1699 0.7697,8.1203 A1.4974,1.4974 0 0 1 0.9516,5.131 Z" stroke-linecap="round" fill="#ffc034"/></g></g><g transform="matrix(1, 0, 0, 1, 1135.5069, 8924.0362) scale(0.6521970623086343, 0.6521970623086343)" opacity="1"><g transform="scale(1.5332789087706402)"><path d="M1.3112,0 T1.3338,1.0808 1.5099,3.2246 3.4622,4.1478 5.2609,4.0081 A1.3564,1.3564 0 0 1 6.4791,6.4319 T5.6593,6.8722 2.8283,7.4932 -0.1157,6.3712 -1.2025,3.615 -1.3338,1.0808 -1.3112,0 A1.3112,1.3112 0 0 1 1.3112,0 Z" stroke-linecap="round" fill="#ffc034"/></g></g><g transform="matrix(1, 0, 0, 1, 1134.8547, 8910.3401) scale(0.6521970623086343, 0.6521970623086343)" opacity="1"><g transform="scale(1.5332789087706402)"><path d="M0.5756,-1.1555 T1.8964,-0.5374 3.2173,0.0807 A1.3622,1.3622 0 0 1 2.0027,2.5193 T0.7136,1.8374 -0.5756,1.1555 A1.2909,1.2909 0 0 1 0.5756,-1.1555 Z" stroke-linecap="round" fill="#ffc034"/></g></g></svg>