<svg xmlns="http://www.w3.org/2000/svg" direction="ltr" width="697.1" height="549.5300000000007" viewBox="911.0230812624217 9878.427200768458 697.1 549.5300000000007" stroke-linecap="round" stroke-linejoin="round" style="background-color: transparent;"><defs/><g transform="matrix(1, 0, 0, 1, 1161.6466, 9910.4272) scale(0.9109313594180959, 0.9109313594180959)" opacity="1"><g transform="scale(1.0977775544348383)"><path d="M1.4596,0 T1.4556,1.0761 1.4471,3.5656 1.4333,6.5092 1.4142,9.4286 1.4103,12.1864 1.4213,14.9247 1.4321,17.6602 1.4395,20.391 1.4457,23.1247 1.4551,25.8595 1.4666,28.9195 1.4773,32.0886 1.4851,34.9469 1.493,37.6976 1.5038,40.4306 1.517,43.1646 1.8469,46.0775 2.2828,48.954 2.4347,51.916 2.4847,55.169 2.4952,58.3382 2.8931,61.4566 3.3581,64.8815 3.4405,68.5583 3.4626,71.7138 3.7824,74.4993 4.2277,77.513 4.3786,80.4688 4.4026,83.2391 4.4097,85.9794 4.4137,88.7109 4.4169,91.4434 4.4195,94.1781 4.4216,96.9107 4.4217,99.641 4.4193,102.3754 4.1215,105.4674 3.6817,108.6838 3.5223,111.5199 3.5032,114.2246 3.4976,116.9516 3.2371,120.1524 2.8042,123.8942 2.2641,127.3004 1.8067,130.4153 1.6829,133.8067 1.3065,137.1655 0.8573,140.6709 0.7386,143.9495 0.7206,146.6663 0.719,149.8741 0.7212,153.0469 1.1168,156.1508 1.5683,159.3382 1.6436,162.6077 1.6689,166.2923 1.6774,169.4679 1.6818,172.1786 1.6858,175.381 1.6891,178.5732 1.6938,181.2861 1.7007,184.2278 1.4603,187.4597 1.0748,190.6566 0.8884,193.6224 0.8303,196.7627 0.4785,200.0563 0.0573,203.2606 -0.0501,206.3327 -0.0808,209.7075 -0.0886,213.3901 -0.0903,216.6123 -0.0903,219.6976 -0.09,223.0737 -0.0895,226.6428 -0.0916,229.9528 -0.4294,232.9678 -0.8476,235.882 -0.9574,238.6581 -0.9936,241.6125 -1.0067,244.733 -1.0125,247.9046 -1.0159,250.9758 -1.0193,253.9224 -1.3632,256.9776 -1.8004,260.5251 -1.9094,263.8779 -1.9271,266.7089 -1.9325,269.584 -1.9332,272.3553 -1.9332,275.5752 -1.9331,279.2492 -1.9304,282.4238 -1.9266,285.1303 -1.923,288.3357 -1.6041,291.8422 -1.1785,294.967 -1.0407,298.0452 -1.0021,301.2033 -0.9889,304.3777 -0.9828,307.7792 -0.9767,311.0277 -0.9691,314.2328 -0.9593,317.7556 -0.9483,321.3643 -0.9396,324.9979 -0.9334,328.3111 -0.9301,331.3178 -0.9303,334.4556 -0.9319,337.8463 -0.9348,341.0897 -0.9401,344.2933 -0.9456,347.4871 -0.9516,350.6758 -0.9568,354.1928 -0.9592,357.8022 -0.9611,361.2198 -0.9625,364.4717 -0.9636,367.5655 -0.9644,370.5112 -0.968,373.6321 -0.9738,376.8029 -0.9755,379.9852 -0.9741,383.1695 -0.973,386.1427 -0.9733,388.9438 -0.9764,391.9088 -0.979,395.2515 -0.9781,398.8126 -0.9761,402.102 -0.9719,405.1044 -0.9651,408.5127 -0.6446,411.9793 -0.2244,414.9777 -0.0936,417.7816 -0.0572,420.5302 -0.0433,423.7664 -0.0354,427.4624 -0.0309,430.6205 -0.0291,433.3071 -0.0275,436.1421 -0.0234,439.2311 -0.0197,442.2854 -0.3563,445.374 -0.7869,448.7786 -0.8922,451.8729 -1.1743,454.8669 -1.5688,457.8718 -1.7396,460.5968 -1.8007,463.8457 -1.8162,467.3288 -1.8135,470.9486 -1.8088,474.3085 -1.8081,477.0231 -1.8114,479.7488 -1.8398,482.48 -1.8875,484.6885 -1.909,485.53 A1.731,1.731 0 0 1 -5.371,485.53 T-5.4138,483.9333 -5.4634,480.9721 -5.471,478.2443 -5.4714,475.5224 -5.4679,472.2423 -5.4603,468.607 -5.447,465.0247 -5.4115,461.7284 -5.2833,458.7304 -4.8583,455.1706 -4.5205,451.8089 -4.4527,449.0413 -4.2008,446.297 -3.8118,443.5522 -3.6189,440.6614 -3.6154,437.7422 -3.6126,434.7393 -3.6094,431.8147 -3.6058,428.6444 -3.6023,424.9758 -3.6031,421.7731 -3.6322,418.484 -3.7924,414.8514 -4.2121,411.7774 -4.4949,408.5127 -4.4881,405.1044 -4.4839,402.102 -4.4819,398.8126 -4.481,395.2515 -4.4836,391.9088 -4.4867,388.9438 -4.487,386.1427 -4.4859,383.1695 -4.4845,379.9852 -4.4862,376.8029 -4.492,373.6321 -4.4956,370.5112 -4.4964,367.5655 -4.4975,364.4717 -4.4989,361.2198 -4.5008,357.8022 -4.5032,354.1928 -4.5084,350.6758 -4.5144,347.4871 -4.5199,344.2933 -4.5252,341.0897 -4.5281,337.8463 -4.5297,334.4556 -4.5299,331.3178 -4.5266,328.3111 -4.5204,324.9979 -4.5117,321.3643 -4.5007,317.7556 -4.491,314.2329 -4.4838,311.0282 -4.4791,307.781 -4.478,304.3854 -4.4828,301.228 -4.509,298.1535 -4.6947,294.8815 -5.109,291.6667 -5.357,288.3357 -5.3534,285.1303 -5.3496,282.4238 -5.3468,279.2492 -5.3465,275.5749 -5.3458,272.3541 -5.3438,269.5797 -5.3398,266.6951 -5.3233,263.83 -5.2602,261.0301 -4.8244,257.5035 -4.4406,253.9057 -4.4436,250.9753 -4.4456,247.9024 -4.4464,244.7263 -4.4415,241.5833 -4.4129,238.5507 -4.2894,235.5453 -3.8679,232.6848 -3.5484,229.9233 -3.5504,226.6427 -3.5499,223.0735 -3.5491,219.697 -3.5478,216.6102 -3.5444,213.3847 -3.534,209.6842 -3.4992,206.2507 -3.3707,202.9503 -2.9391,198.9077 -2.5813,195.0173 -2.4535,191.7317 -2.0288,188.6005 -1.7024,185.6229 -1.6975,182.7897 -1.6918,180.0664 -1.688,177.3735 -1.6845,174.1794 -1.6805,170.9618 -1.6768,168.2746 -1.6753,165.1232 -1.7014,161.475 -1.8674,157.8702 -2.276,154.6487 -2.5403,151.8687 -2.5316,148.6637 -2.5208,145.4194 -2.4892,142.6439 -2.3641,139.7595 -1.9369,136.8914 -1.5863,133.7046 -1.4589,130.094 -0.9828,126.1163 -0.4054,122.4603 -0.0274,119.6449 0.1433,116.9501 0.143,114.2144 0.1601,111.4496 0.3069,108.5173 0.7402,105.3622 1.0407,102.3754 1.0383,99.641 1.0384,96.9107 1.0405,94.1781 1.0431,91.4435 1.0461,88.7111 1.0494,85.9809 1.0512,83.2493 1.039,80.5377 0.8692,77.5682 0.4407,74.4952 0.1738,71.7176 0.1772,68.5815 0.1292,65.0433 -0.2965,61.6582 -0.6769,58.3998 -0.6764,55.1853 -0.6951,52.0006 -0.8746,48.8402 -1.2784,45.8938 -1.517,43.1646 -1.5038,40.4306 -1.493,37.6976 -1.4851,34.9469 -1.4773,32.0886 -1.4666,28.9195 -1.4551,25.8595 -1.4457,23.1247 -1.4395,20.391 -1.4321,17.6602 -1.4213,14.9247 -1.4103,12.1864 -1.4142,9.4286 -1.4333,6.5092 -1.4471,3.5656 -1.4556,1.0761 -1.4596,0 A1.4596,1.4596 0 0 1 1.4596,0 Z" stroke-linecap="round" fill="#9398b0"/></g></g><g transform="matrix(1, 0, 0, 1, 943.0231, 10228.3422) scale(0.9109313594180959, 0.9109313594180959)" opacity="1"><g transform="scale(1.0977775544348383)"><path d="M0,-1.4931 T1.0761,-1.4742 3.5656,-1.4373 6.4826,-1.4016 9.3127,-1.7674 12.4759,-2.2245 15.7138,-2.6998 18.5201,-3.1765 21.2949,-3.2717 24.0345,-3.3064 26.7701,-3.3303 29.501,-3.3499 32.2335,-3.3678 34.9681,-3.3801 37.9159,-3.3894 41.6124,-3.4016 45.1453,-3.4139 47.9416,-3.4248 51.2158,-3.2004 54.7583,-2.8265 58.1777,-2.6451 61.7596,-2.5983 65.8878,-2.357 69.7981,-1.9678 73.6669,-1.7705 77.8973,-1.721 81.4963,-1.7116 85.1279,-1.7128 88.7652,-1.7162 92.4081,-1.7194 96.2678,-1.7223 99.8577,-1.7245 103.7026,-1.7262 107.7294,-1.7277 111.2652,-1.7303 114.4495,-1.7351 117.6343,-1.7403 120.7082,-1.7444 123.8659,-1.7477 127.158,-1.7506 130.3764,-1.7528 133.6761,-1.7546 137.1081,-1.7561 140.8074,-1.7574 144.3657,-1.7584 147.6413,-1.757 150.8611,-2.0806 154.0663,-2.5024 157.4668,-2.6249 161.1632,-2.6583 164.8218,-2.6707 168.5714,-2.6793 172.2454,-2.6848 175.6809,-2.6884 178.9378,-2.6911 181.9312,-2.693 185.0642,-2.6962 188.1237,-2.7014 191.164,-2.7069 194.6387,-2.712 198.02,-2.716 201.1497,-2.7188 204.8719,-2.7206 208.7678,-2.3865 212.0536,-1.968 215.419,-1.8557 219.339,-1.8234 223.2985,-1.8192 226.5519,-1.819 229.3749,-1.5392 232.6624,-1.1187 235.8687,-0.9563 239.1283,-0.9315 242.6651,-0.932 245.9008,-0.9396 249.1036,-0.9462 252.4082,-0.9509 255.6264,-0.9546 258.8243,-0.9576 262.2317,-0.9602 265.5918,-0.9622 269.2298,-0.73 272.9763,-0.3428 276.5777,-0.142 280.3226,-0.0823 283.9914,-0.0656 287.6428,-0.0644 291.2896,-0.0689 295.1491,-0.0734 299.1823,-0.0772 303.0461,-0.08 306.6373,-0.082 310.0521,-0.0835 313.6332,-0.0848 317.3622,-0.0858 321.1416,-0.0866 324.9361,-0.0872 328.6226,-0.0877 332.1634,-0.0899 335.7794,-0.095 339.745,-0.1006 343.4754,-0.1077 347.0035,0.1441 350.4768,0.5273 353.885,0.6985 357.3901,0.7542 361.1068,0.7642 365.3137,0.7595 369.3303,0.7539 373.0773,0.7495 377.0793,0.7457 381.1497,0.7427 384.6964,0.7406 388.4275,0.739 392.9689,0.7351 397.2933,0.7288 401.238,0.723 405.5101,0.7182 410.2017,0.7143 414.9081,0.7155 419.5052,0.7204 424.0679,0.7243 428.5327,0.4026 433.0664,-0.0155 437.2735,-0.1352 441.4032,-0.167 445.8325,-0.1754 449.8052,-0.1774 453.9832,-0.1777 458.3202,-0.1775 461.9409,-0.1803 465.7944,-0.1862 469.9331,-0.1907 474.0644,-0.5186 478.4957,-0.944 482.5624,-1.0737 486.5905,-1.3183 490.1738,-1.6637 492.9355,-1.8632 496.2792,-1.9858 500.5528,-2.0589 504.9245,-2.0876 509.2114,-2.1043 513.6922,-2.1188 518.2242,-2.1327 522.9881,-2.1473 527.8762,-1.935 532.4108,-1.5634 536.5766,-1.3733 540.0255,-1.0988 542.8554,-0.7661 546.8291,-0.5798 550.8514,-0.2448 554.706,0.1663 559.2112,0.3788 562.9436,0.6595 566.6189,1.0569 571.198,1.2659 575.0592,1.3178 577.9182,1.5562 581.7088,1.9432 586.5686,2.1395 591.5318,2.1845 596.5297,2.1795 600.5086,2.1617 604.2441,2.1402 609.2702,2.1099 614.0694,2.078 618.1547,2.0522 621.9072,2.3815 625.0605,2.8065 627.9993,3.344 631.3858,3.9689 633.159,4.1414 A2.2394,2.2394 0 0 1 633.041,8.6186 T631.0007,8.6475 627.4962,8.2915 624.4785,7.807 621.4871,7.383 618.1396,7.0477 614.0693,7.0219 609.2697,6.9895 604.2425,6.9578 600.5051,6.9339 596.5184,6.9071 591.4933,6.8672 587.7569,6.8239 583.769,6.6954 578.7405,6.2508 575.0091,5.9032 571.046,5.8365 566.1546,5.5834 562.5633,5.1699 559.0726,4.8973 555.3861,4.7681 551.5823,4.34 546.606,3.8837 541.2228,3.431 536.4422,3.0231 531.9668,2.7707 527.5295,2.3655 522.9881,2.1474 518.2245,2.133 513.6931,2.1198 509.2149,2.108 504.9352,2.1008 500.6038,2.1067 496.4159,2.1579 491.996,2.3514 486.964,2.7328 482.6306,2.9834 478.7322,3.087 474.26,3.5014 469.9408,3.8307 465.7944,3.8262 461.9409,3.8204 458.3203,3.8177 453.9837,3.8182 449.8066,3.8193 445.8376,3.8223 441.4297,3.8319 437.3481,3.8649 433.3055,3.9785 428.7275,4.4002 424.0757,4.7357 419.5052,4.7396 414.9081,4.7445 410.2017,4.7457 406.4507,4.7427 403.1901,4.7394 399.1719,4.7341 394.9536,4.7268 390.8362,4.7219 386.7154,4.7203 382.907,4.7184 379.0402,4.7158 374.9917,4.7123 371.0774,4.7076 367.2377,4.7013 363.2915,4.691 359.3781,4.6737 355.5287,4.6345 351.5196,4.5028 347.3657,4.0759 343.4754,3.7477 339.745,3.7406 335.7794,3.735 332.1634,3.7299 328.6226,3.7277 324.9361,3.7272 321.1416,3.7266 317.3622,3.7258 313.6332,3.7248 310.0521,3.7235 306.6373,3.722 303.0461,3.72 299.1822,3.7171 295.1488,3.7131 291.2887,3.7079 287.6395,3.7007 283.9794,3.6925 280.2805,3.6751 276.4388,3.6118 272.499,3.37 268.8588,2.9805 265.5918,2.7822 262.2317,2.7802 258.8243,2.7776 255.6264,2.7746 252.4081,2.7708 249.1033,2.7659 245.1785,2.7564 241.342,2.743 237.861,2.716 234.4075,2.6441 230.9697,2.2012 227.7326,1.8143 224.5327,1.8181 221.2149,1.8161 217.9109,1.8059 214.7157,1.7704 211.7337,1.6451 208.5166,1.2237 204.8569,0.9006 201.1497,0.8988 198.02,0.896 194.6387,0.892 191.164,0.8869 188.1237,0.8815 185.0642,0.8762 181.9312,0.873 178.9378,0.8711 175.681,0.8686 172.2458,0.8653 168.5731,0.8612 164.8285,0.8576 161.1859,0.8632 157.5516,0.8946 154.3326,1.0053 151.086,1.4233 147.6674,1.757 144.3657,1.7584 140.8074,1.7574 137.1081,1.7561 133.6761,1.7546 130.3764,1.7528 127.158,1.7506 123.8659,1.7477 120.7082,1.7444 117.6343,1.7403 114.4495,1.7351 111.2652,1.7303 107.7294,1.7277 103.7026,1.7262 99.8577,1.7244 96.2677,1.7223 92.4079,1.7191 88.7643,1.7152 85.1241,1.7091 81.4849,1.6984 77.863,1.6734 73.5022,1.5993 69.3127,1.3514 65.5328,0.9543 61.7208,0.7311 58.0383,0.655 54.2597,0.3938 50.8263,-0.0092 47.9416,-0.2152 45.1453,-0.2261 41.6124,-0.2384 37.9159,-0.2506 34.9681,-0.2599 32.2335,-0.2722 29.5011,-0.29 26.7708,-0.3093 24.0393,-0.3303 21.3278,-0.3457 18.4758,-0.2781 15.6645,0.155 12.6783,0.5572 9.5446,0.9906 6.5358,1.4016 3.5656,1.4373 1.0761,1.4742 0,1.4931 A1.4931,1.4931 0 0 1 0,-1.4931 Z" stroke-linecap="round" fill="#9398b0"/></g></g><g transform="matrix(1, 0, 0, 1, 1240.8976, 10224.6985) scale(0.9109313594180959, 0.9109313594180959)" opacity="1"><g transform="scale(1.0977775544348383)"><path d="M1.7642,0 T1.7641,1.0761 1.7666,3.7808 1.7701,7.1762 1.77,10.3915 1.7693,11.84 A1.7693,1.7693 0 0 1 -1.7693,11.84 T-1.77,10.3915 -1.7701,7.1762 -1.7666,3.7808 -1.7641,1.0761 -1.7642,0 A1.7642,1.7642 0 0 1 1.7642,0 ZM-1.7693,11.84 T-1.7699,11.2688 -1.7703,9.0327 -1.7694,6.0104 -1.7584,3.2521 -1.4563,1.0553 -1.1644,0.2594 A1.7643,1.7643 0 0 1 2.0253,1.7682 T1.8867,1.8822 1.7584,3.3245 1.7694,6.0104 1.7703,9.0327 1.7699,11.2688 1.7693,11.84 A1.7693,1.7693 0 0 1 -1.7693,11.84 ZM0.0572,-0.7105 T0.1705,-0.7353 0.2839,-0.76 A1.7647,1.7647 0 0 1 1.0306,2.6894 T0.9172,2.7138 0.8037,2.7381 A1.7643,1.7643 0 0 1 0.0572,-0.7105 ZM2.4086,0.7485 T2.4926,1.545 2.5988,2.9405 2.621,3.5396 A1.714,1.714 0 0 1 -0.801,3.7404 T-0.849,3.1428 -0.9955,1.8631 -1.0941,1.1809 A1.7647,1.7647 0 0 1 2.4086,0.7485 Z" stroke-linecap="round" fill="#9398b0"/></g></g><g transform="matrix(1, 0, 0, 1, 1079.6628, 10222.8767) scale(0.9109313594180959, 0.9109313594180959)" opacity="1"><g transform="scale(1.0977775544348383)"><path d="M1.6491,0 T1.6487,1.0761 1.6476,3.8942 1.2406,7.2942 0.8342,8.9522 A1.6463,1.6463 0 0 1 -2.1487,7.5581 T-1.8979,6.5972 -1.6476,3.8942 -1.6487,1.0761 -1.6491,0 A1.6491,1.6491 0 0 1 1.6491,0 ZM-1.0085,9.8636 T-1.0682,9.8504 -1.128,9.8372 A1.646,1.646 0 0 1 -0.4256,6.621 T-0.3658,6.6339 -0.306,6.6468 A1.6463,1.6463 0 0 1 -1.0085,9.8636 ZM-2.4167,8.3714 T-2.4657,7.7869 -2.5313,5.4657 -2.5521,1.8649 -2.5564,0.0009 A1.6464,1.6464 0 0 1 0.7364,-0.0009 T0.735,1.8593 0.7511,5.379 0.8158,7.5626 0.863,8.0868 A1.646,1.646 0 0 1 -2.4167,8.3714 Z" stroke-linecap="round" fill="#9398b0"/></g></g><g transform="matrix(1, 0, 0, 1, 1000.4118, 10223.7876) scale(0.9109313594180959, 0.9109313594180959)" opacity="1"><g transform="scale(1.0977775544348383)"><path d="M1.6288,0 T1.6153,1.0761 1.5896,3.5656 1.5733,6.5092 1.5695,9.4286 1.5702,11.3289 1.5705,11.84 A1.5705,1.5705 0 0 1 -1.5705,11.84 T-1.5702,11.3289 -1.5695,9.4286 -1.5733,6.5092 -1.5896,3.5656 -1.6153,1.0761 -1.6288,0 A1.6288,1.6288 0 0 1 1.6288,0 ZM-1.5705,11.84 T-1.5719,11.2882 -1.5799,9.1698 -1.5958,6.1452 -1.6166,2.9196 -1.6363,-0.789 -1.6447,-2.73 A1.6447,1.6447 0 0 1 1.6447,-2.73 T1.6363,-0.789 1.6166,2.9196 1.5958,6.1452 1.5799,9.1698 1.5719,11.2882 1.5705,11.84 A1.5705,1.5705 0 0 1 -1.5705,11.84 ZM1.6447,-2.73 T1.6465,-2.1673 1.3903,0.4644 0.9513,3.8922 0.6706,6.3167 0.571,7.3824 A1.4838,1.4838 0 0 1 -2.391,7.1976 T-2.3574,6.1278 -2.1585,3.3224 -1.8208,-0.009 -1.6465,-2.1673 -1.6447,-2.73 A1.6447,1.6447 0 0 1 1.6447,-2.73 Z" stroke-linecap="round" fill="#9398b0"/></g></g><g transform="matrix(1, 0, 0, 1, 1321.0596, 10224.6985) scale(0.9109313594180959, 0.9109313594180959)" opacity="1"><g transform="scale(1.0977775544348383)"><path d="M1.6302,0 T1.6372,1.0761 1.6529,3.996 1.6671,7.5647 1.6785,10.9733 1.4557,13.8531 1.2273,15.049 A1.6938,1.6938 0 0 1 -2.0881,14.3534 T-1.8862,13.4979 -1.6785,10.9659 -1.6671,7.5647 -1.6529,3.996 -1.6372,1.0761 -1.6302,0 A1.6302,1.6302 0 0 1 1.6302,0 ZM-2.0559,15.1773 T-2.2478,14.4914 -2.4935,11.8082 -2.5366,7.8098 -2.5234,4.4819 -2.5219,1.5779 -2.5228,0.0006 A1.6128,1.6128 0 0 1 0.7028,-0.0006 T0.702,1.0453 0.709,3.9458 0.7415,7.7854 0.8262,11.5013 1.0405,13.7286 1.1951,14.225 A1.6938,1.6938 0 0 1 -2.0559,15.1773 ZM0.7028,0 T0.7041,0.5549 0.7088,2.4563 0.713,5.2694 1.027,8.2469 1.4219,11.6574 1.5038,13.5569 A1.5073,1.5073 0 0 1 -1.5038,13.7631 T-1.6746,11.9759 -2.1897,8.4783 -2.533,5.2854 -2.5287,2.4563 -2.5241,0.5549 -2.5228,0 A1.6128,1.6128 0 0 1 0.7028,0 Z" stroke-linecap="round" fill="#9398b0"/></g></g><g transform="matrix(1, 0, 0, 1, 998.9374, 10080.6684) scale(0.9024926709346281, 0.9024926709346281)" opacity="1"><g transform="scale(1.108042239239896)"><path d="M-0.7121,-1.7842 T0.358,-2.2023 3.0035,-3.0068 5.9636,-3.502 8.7069,-3.638 11.4196,-3.6748 14.1287,-3.6908 16.836,-3.7048 19.5429,-3.7198 22.9021,-3.7428 26.4424,-3.7704 29.3818,-3.7924 32.1543,-3.8119 35.4634,-4.1588 38.9835,-4.6078 42.4921,-4.7647 46.0294,-4.8215 49.5704,-4.8449 53.2122,-4.8666 56.6597,-4.874 59.6855,-5.2606 62.4517,-5.7187 65.3028,-5.7965 68.2205,-6.0952 71.3414,-6.5189 74.3055,-6.6643 77.0533,-6.67 79.762,-6.3467 81.5063,-5.9951 81.9012,-5.9606 A2.1304,2.1304 0 0 1 81.1933,-1.7591 T79.8046,-2.0569 77.0666,-2.3439 74.3966,-2.3137 71.6957,-2.1726 68.9515,-1.7312 66.2422,-1.4057 63.2162,-1.3535 60.0464,-0.9277 56.7393,-0.546 53.2125,-0.5531 50.0459,-0.571 47.1058,-0.5841 43.7945,-0.5853 40.5969,-0.5501 37.8912,-0.4275 35.0384,-0.0577 32.1543,0.2119 29.3818,0.1924 26.4425,0.1704 22.9023,0.143 19.5436,0.1204 16.8383,0.1068 14.1369,0.098 11.4493,0.1008 8.1704,0.1602 4.5336,0.566 1.7752,1.3509 0.7121,1.7842 A1.921,1.921 0 0 1 -0.7121,-1.7842 ZM80.0077,-5.3324 T80.7964,-6.0622 81.5851,-6.7921 A1.9995,1.9995 0 0 1 84.4749,-4.0279 T83.7808,-3.2076 83.0867,-2.3873 A2.1304,2.1304 0 0 1 80.0077,-5.3324 Z" stroke-linecap="round" fill="#4dabf7"/></g></g><g transform="matrix(1, 0, 0, 1, 1080.1618, 10159.1852) scale(0.9024926709346281, 0.9024926709346281)" opacity="1"><g transform="scale(1.108042239239896)"><path d="M0.278,-1.6709 T1.5556,-1.4479 4.8537,-1.0563 8.4065,-0.8403 11.6305,-0.7788 15.0498,-0.7698 18.245,-0.7796 21.0816,-0.7897 24.04,-0.8008 27.2731,-0.4296 30.4197,-0.0142 33.5312,0.0174 36.6794,-0.1877 39.5877,-0.5859 42.4999,-0.858 45.4289,-0.9488 48.1737,-0.9781 51.1088,-1.2961 54.2333,-1.7455 57.1639,-1.9107 59.8653,-1.9333 63.0426,-2.3302 66.6608,-2.7829 69.997,-2.8549 73.3634,-2.878 75.9308,-2.8848 76.7081,-2.8853 A1.9853,1.9853 0 0 1 76.7119,1.0853 T75.9346,1.0862 73.3786,1.0896 70.0477,1.1016 66.8475,1.1513 63.2731,1.5628 59.9568,1.9395 57.244,1.9526 54.4834,2.0806 51.7406,2.4977 49.0809,2.7866 46.3726,2.7722 43.6513,2.7836 40.673,2.9663 37.0961,3.3552 33.5034,3.558 30.1861,3.4632 27.0234,2.9979 24.0012,2.6008 21.0814,2.5895 18.2438,2.5787 15.0409,2.5637 11.5894,2.5369 8.2761,2.472 4.4821,2.2503 1.0033,1.8736 -0.278,1.6709 A1.6938,1.6938 0 0 1 0.278,-1.6709 Z" stroke-linecap="round" fill="#4dabf7"/></g></g><g transform="matrix(1, 0, 0, 1, 1239.903, 10359.5386) scale(0.9024926709346281, 0.9024926709346281)" opacity="1"><g transform="scale(1.108042239239896)"><path d="M0,-1.8642 T1.2795,-1.8523 4.6679,-1.8401 8.1915,-2.022 11.2266,-2.412 14.5059,-2.6718 17.5982,-2.7417 21.1753,-2.5208 24.7678,-2.1547 27.7215,-1.9871 31.156,-1.9405 34.9276,-1.9372 38.4721,-1.9458 41.534,-1.9571 44.4152,-1.6293 47.6753,-1.2118 50.8657,-0.8619 54.1739,-0.4466 57.5222,-0.2791 60.9424,-0.2602 64.7101,-0.2674 68.3586,-0.2794 71.6007,-0.6001 74.746,-1.039 78.418,-1.162 81.2511,-1.1505 82.1237,-1.1387 A2.0387,2.0387 0 0 1 82.1363,2.9387 T80.4844,2.9727 77.2582,3.0349 74.0745,3.2358 70.415,3.6436 66.5393,3.8711 62.835,3.8507 59.2869,3.818 55.8882,3.7383 52.6363,3.4527 49.6486,3.0218 46.7016,2.7062 43.4408,2.2772 39.9093,1.9494 36.5422,1.9329 33.041,1.9133 29.4599,1.8685 25.9444,1.7315 22.2058,1.3043 18.9072,0.9824 16.0723,1.0054 12.6362,1.1904 8.7155,1.5963 4.6679,1.8401 1.2795,1.8523 0,1.8642 A1.8642,1.8642 0 0 1 0,-1.8642 Z" stroke-linecap="round" fill="#4dabf7"/></g></g><g transform="matrix(1, 0, 0, 1, 1159.5811, 10299.9741) scale(0.9024926709346281, 0.9024926709346281)" opacity="1"><g transform="scale(1.108042239239896)"><path d="M0.3476,-1.7417 T1.416,-1.5199 4.0946,-0.7919 7.4933,-0.1357 10.869,0.0359 14.0558,0.0525 17.2732,0.032 20.6441,0.003 23.9665,-0.3237 27.1125,-0.7725 30.3095,-1.2344 33.4773,-1.7039 36.7353,-1.871 39.9097,-1.9039 43.2824,-1.9209 46.8974,-1.9347 50.3809,-1.9449 53.9557,-1.9532 57.2309,-1.9591 60.3825,-1.9636 63.4974,-1.96 66.3883,-1.5741 69.5261,-1.1449 72.5593,-1.0937 75.763,-0.8358 78.7212,-0.3224 79.8209,-0.0647 A1.9073,1.9073 0 0 1 79.0191,3.6647 T77.1194,3.2774 73.6523,2.886 70.6993,2.8633 67.7592,2.7071 64.6092,2.2681 61.4905,1.965 58.5478,1.9612 55.5399,1.9562 52.1613,1.9493 48.6181,1.9402 45.2484,1.9293 42.0355,1.917 38.8898,1.9085 35.436,1.95 32.0993,2.3724 28.8925,2.8015 25.4571,3.2311 22.211,3.6049 18.9192,3.5822 15.2965,3.5499 11.8751,3.5173 9.0002,3.4599 6.3191,3.271 3.3947,2.636 0.7173,1.9456 -0.3476,1.7417 A1.7761,1.7761 0 0 1 0.3476,-1.7417 Z" stroke-linecap="round" fill="#4dabf7"/></g></g><g transform="matrix(1, 0, 0, 1, 1081.7447, 10073.6492) scale(0.2659071455009753, 0.2659071455009753)" opacity="1"><g transform="scale(3.760711274290793)"><path d="M-0.7826,-0.3913 T-0.5917,-0.6869 -1.1176,-0.9915 -2.3111,-0.5955 -3.2598,0.4185 -4.1211,1.7504 -4.6942,3.0711 -4.9126,4.3142 -4.7455,5.624 -3.8139,6.5447 -2.4294,6.8269 -1.0053,6.5916 0.522,5.9373 1.857,5.0894 2.8859,3.9947 3.4283,2.5665 3.3897,1.1596 3.0061,-0.0371 2.1765,-1.0352 0.9064,-1.5843 -0.442,-1.5263 -1.0957,-1.3392 A0.8248,0.8248 0 0 1 -1.5643,-2.9208 T-0.6125,-3.2092 1.0283,-3.4255 2.4899,-3.0233 3.8544,-2.092 4.7807,-0.6892 5.2661,1.0045 5.3362,2.633 4.9545,4.1197 4.1449,5.4762 2.9071,6.6301 1.2332,7.6385 -0.6797,8.3878 -2.6447,8.6025 -4.5778,8.1491 -6.043,6.968 -6.6451,5.539 -6.6507,4.0943 -6.3148,2.481 -5.7567,1.149 -4.9398,-0.1252 -3.9213,-1.3516 -2.9347,-2.2022 -1.7826,-2.7093 -0.3564,-2.6124 0.7854,-1.451 0.9701,-0.0699 0.7826,0.3913 A0.875,0.875 0 0 1 -0.7826,-0.3913 Z" stroke-linecap="round" fill="#f2f2f2"/></g></g><g transform="matrix(1, 0, 0, 1, 1080.1493, 10156.0804) scale(0.2659071455009753, 0.2659071455009753)" opacity="1"><g transform="scale(3.760711274290793)"><path d="M0.1588,0.7968 T-0.4682,0.9157 -1.7018,1.4792 -2.6774,2.6335 -2.7295,3.9682 -1.691,4.9068 -0.3294,4.9992 0.6538,4.0587 0.9407,2.5379 0.4186,1.1925 -0.3203,0.3527 -0.5934,0.0569 A0.8346,0.8346 0 0 1 0.5934,-1.1169 T0.8862,-0.8405 1.7791,0.0537 2.6076,1.3896 2.7636,3.0467 2.3605,4.7092 1.4026,6.0087 0.071,6.7452 -1.2343,6.8202 -2.5813,6.3122 -3.8416,5.3982 -4.5028,4.2134 -4.4616,2.8333 -3.8194,1.4527 -2.3933,0.1128 -0.79,-0.665 -0.1588,-0.7968 A0.8124,0.8124 0 0 1 0.1588,0.7968 Z" stroke-linecap="round" fill="#f2f2f2"/></g></g><g transform="matrix(1, 0, 0, 1, 1159.3896, 10155.8145) scale(0.2659071455009753, 0.2659071455009753)" opacity="1"><g transform="scale(3.760711274290793)"><path d="M0.1091,0.9656 T-0.4552,1.0202 -1.7195,1.3788 -2.9949,2.3117 -3.4583,3.562 -2.6711,4.3323 -1.3575,4.448 -0.1695,4.0804 0.5215,3.0624 -0.1846,1.7081 -1.0323,1.0374 A0.9171,0.9171 0 0 1 -0.0277,-0.4974 T0.8319,0.0289 2.1957,1.3098 2.6852,2.8569 2.285,4.4226 1.1646,5.7205 -0.5131,6.3773 -2.3142,6.3868 -4.03,5.7575 -5.2345,4.3866 -5.3761,2.7664 -4.6192,1.2971 -3.2334,0.0683 -1.8203,-0.6333 -0.6753,-0.8925 -0.1091,-0.9656 A0.9717,0.9717 0 0 1 0.1091,0.9656 Z" stroke-linecap="round" fill="#f2f2f2"/></g></g><g transform="matrix(1, 0, 0, 1, 1160.2463, 10297.7254) scale(0.39650933869633165, 0.39650933869633165)" opacity="1"><g transform="scale(2.522008695401382)"><path d="M0.442,1.0327 T-0.2038,1.3056 -1.5286,2.4618 -2.2079,4.2499 -1.2883,5.3505 0.1508,4.8052 0.057,3.5198 -1.4672,2.5508 -2.3786,2.1263 A1.0176,1.0176 0 0 1 -1.5814,0.2537 T-1.0577,0.4566 0.3714,1.0689 2.0542,2.41 2.7827,4.4682 1.9857,6.45 0.3566,7.5434 -1.4197,7.6467 -3.1965,6.9295 -4.4429,5.3936 -4.4331,3.2748 -3.6124,1.4645 -2.4734,0.1834 -1.1111,-0.7428 -0.442,-1.0327 A1.1233,1.1233 0 0 1 0.442,1.0327 Z" stroke-linecap="round" fill="#f2f2f2"/></g></g><g transform="matrix(1, 0, 0, 1, 1241.5307, 10299.708) scale(0.39650933869633165, 0.39650933869633165)" opacity="1"><g transform="scale(2.522008695401382)"><path d="M-0.7004,1.0551 T-0.9791,0.864 -1.2577,0.673 A1.2563,1.2563 0 0 1 0.132,-1.4203 T0.4162,-1.2377 0.7004,-1.0551 A1.2664,1.2664 0 0 1 -0.7004,1.0551 ZM-0.2426,0.8411 T-0.5785,0.9247 -1.6416,1.816 -2.1227,3.4211 -1.0699,4.3397 -0.0515,3.7324 -0.1672,2.241 -0.8215,1.1521 -1.1485,0.8261 A1.1147,1.1147 0 0 1 0.3485,-0.8261 T0.7051,-0.5327 1.7995,0.6687 2.5712,2.5701 2.259,4.5713 1.0296,6.2444 -0.909,6.8735 -2.874,6.2811 -4.3049,4.8575 -4.7003,2.7925 -3.8866,0.4943 -2.3752,-1.0042 -1.2175,-1.4953 -0.8832,-1.5884 A1.2563,1.2563 0 0 1 -0.2426,0.8411 Z" stroke-linecap="round" fill="#f2f2f2"/></g></g><g transform="matrix(1, 0, 0, 1, 1239.9447, 10356.8053) scale(0.39650933869633165, 0.39650933869633165)" opacity="1"><g transform="scale(2.522008695401382)"><path d="M0.2101,1.2498 T-0.3558,1.3267 -1.768,1.7432 -2.9004,3.0423 -2.5442,4.3965 -1.094,4.1677 -0.0102,2.7601 0.0183,1.6444 -0.2288,1.3127 A1.1451,1.1451 0 0 1 1.8088,0.2673 T1.9919,0.5885 2.331,2.0046 1.8825,4.2978 0.431,6.1062 -1.7608,6.9523 -4.0213,6.5257 -5.2322,4.9379 -5.2325,2.7182 -4.1,0.5463 -2.296,-0.678 -0.7699,-1.1375 -0.2101,-1.2498 A1.2674,1.2674 0 0 1 0.2101,1.2498 Z" stroke-linecap="round" fill="#f2f2f2"/></g></g><g transform="matrix(1, 0, 0, 1, 1325.1942, 10358.7879) scale(0.39650933869633165, 0.39650933869633165)" opacity="1"><g transform="scale(2.522008695401382)"><path d="M-0.9623,0.7202 T-1.2234,0.3507 -2.3631,0.444 -3.934,1.6298 -4.0284,2.8702 -2.4864,3.1793 -1.1506,2.193 -0.7339,0.3099 -0.7089,-0.7951 A1.1089,1.1089 0 0 1 1.5089,-0.7849 T1.534,-0.0948 1.5469,1.4184 1.0561,3.2912 -0.4972,5.041 -2.7422,5.7558 -5.0241,5.3342 -6.5798,3.6971 -6.756,1.769 -5.4947,0.017 -3.2467,-1.664 -0.8167,-1.9028 0.6605,-1.1028 0.9623,-0.7202 A1.202,1.202 0 0 1 -0.9623,0.7202 Z" stroke-linecap="round" fill="#f2f2f2"/></g></g></svg>