<svg version="1.1" xmlns="http://www.w3.org/2000/svg" xmlns:xlink="http://www.w3.org/1999/xlink"
    width="800" height="800">
    <defs />
    <g transform="scale(2,2)">

        <g id="graphpaper-0393b1f6">
            <g id="grid-0393b1f6">

            </g>
            <g id="axis-0393b1f6">
                <g id="yaxis-0393b1f6">
                    <title>Y axis</title>
                    <g>
                        <path fill="none" stroke="#9398b0" class="dcg-svg-axis-line"
                            paint-order="fill stroke markers" d=" M 15 0 L 15 400"
                            stroke-opacity="0.9" stroke-miterlimit="10" stroke-width="2"
                            stroke-dasharray="" />
                    </g>
                </g>
                <g id="xaxis-0393b1f6">
                    <title>X axis</title>
                    <g>
                        <path fill="none" stroke="#9398b0" class="dcg-svg-axis-line"
                            paint-order="fill stroke markers" d=" M 0 306 L 400 306"
                            stroke-opacity="0.9" stroke-miterlimit="10" stroke-width="2"
                            stroke-dasharray="" />
                    </g>
                </g>
                
            </g>
        </g>
        <g id="expressions-0393b1f6">
            <g id="sketch-0393b1f6">
                <title>Expression 1</title>
                <path fill="#e599f7" stroke="none" paint-order="stroke fill markers" d=""
                    fill-opacity="0.4" />
                <g>
                    <path fill="none" stroke="#e599f7" class="dcg-svg-curve"
                        paint-order="fill stroke markers"
                        d=" M 49.104780515654085 143.50271250255108 L 49.104780515654085 143.50271250255108 L 55.35250590415393 136.3026691980776 L 61.20974845587253 129.9999643252362 L 66.77412888000518 124.43284009078127 L 72.14326788574726 119.46475037546116 L 77.21954476390334 115.1439876087037 L 82.19820093286415 111.2708856152048 L 86.98161568343434 107.8968177505115 L 91.5697890156139 104.98533959893754 L 96.06034163859817 102.44761709507742 L 100.45327355238712 100.26614724607748 L 104.74858475698076 98.42268725033662 L 109.0438959615744 96.86626678506067 L 113.24158645697273 95.62251275238143 L 117.43927695237105 94.65209515938716 L 121.6369674477694 93.95352781358616 L 125.83465794316771 93.52461145622988 L 130.032348438566 93.36244165279118 L 134.23003893396438 93.46341921346536 L 138.42772942936267 93.82326310630702 L 142.72304063395634 94.45427691775265 L 147.11597254774526 95.36836676969139 L 151.6065251707295 96.57623332943234 L 156.1946985029091 98.08718277425865 L 160.88049254428398 99.90893348210966 L 165.7615280040495 102.0939079234769 L 170.8378048822056 104.66274084352736 L 176.10932317875233 107.63292124733991 L 181.67370360288498 111.08127523444645 L 187.53094615460355 115.03256434316839 L 193.77867154310343 119.57810933867518 L 200.51450047757982 124.81965605173573 L 207.93367437642337 130.9463652616681 L 216.42667607641528 138.33285160185417 L 226.57922983272755 147.5516464662133 L 241.41757763041466 161.4524877966692 L 262.79651294418755 181.44316198281035 L 273.63241166486694 191.16772309823324 L 282.8087583292261 199.03017948325282 L 291.0088979016321 205.69657315135052 L 298.62331321886626 211.53850750625975 L 301.356693076335 213.547282902681"
                        stroke-linecap="round" stroke-linejoin="round" stroke-miterlimit="10"
                        stroke-width="5" stroke-dasharray="" />
                </g>
            </g>
            <g id="sketch-0393b1f6">
                <title>Expression 2</title>
                <path fill="#4dabf7" stroke="none" paint-order="stroke fill markers" d=""
                    fill-opacity="0.4" />
                <g>
                    <path fill="none" stroke="#4dabf7" class="dcg-svg-curve"
                        paint-order="fill stroke markers"
                        d=" M 49.104780515654085 143.50271250255108 L 49.104780515654085 143.50271250255108 L 301.356693076335 213.547282902681"
                        stroke-linecap="round" stroke-linejoin="round" stroke-miterlimit="10"
                        stroke-width="5" stroke-dasharray="" />
                </g>
            </g>
            <g id="sketch-0393b1f6">
                <title>(a, f(a))</title>
                <path fill="none" stroke="#e599f7" class="dcg-svg-point"
                    paint-order="fill stroke markers"
                    d=" M 49.00478051565408 143.40271250255108 L 49.00478051565408 143.60271250255107 L 49.204780515654086 143.60271250255107 L 49.204780515654086 143.40271250255108"
                    stroke-linecap="round" stroke-linejoin="round" stroke-miterlimit="10"
                    stroke-width="15" stroke-dasharray="" />
            </g>
            <g id="sketch-0393b1f6">
                <title>(b, f(b))</title>
                <path fill="none" stroke="#e599f7" class="dcg-svg-point"
                    paint-order="fill stroke markers"
                    d=" M 301.25669307633495 213.447282902681 L 301.25669307633495 213.64728290268098 L 301.456693076335 213.64728290268098 L 301.456693076335 213.447282902681"
                    stroke-linecap="round" stroke-linejoin="round" stroke-miterlimit="10"
                    stroke-width="15" stroke-dasharray="" />
            </g>
            <g id="sketch-0393b1f6">
                <title>Expression 5</title>
                <path fill="#ffc034" stroke="none" paint-order="stroke fill markers" d=""
                    fill-opacity="0.4" />
                <g>
                    <path fill="none" stroke="#ffc034" class="dcg-svg-curve"
                        paint-order="fill stroke markers"
                        d=" M 49.104780515654085 305.7853014316354 L 49.104780515654085 305.7853014316354 L 55.64536803173988 296.443476690101 L 61.99071412943499 287.8979548771121 L 68.14081880873954 280.1267846341371 L 73.99806136045811 273.2133479998107 L 79.56244178459076 267.101075320177 L 84.93158079033284 261.6351057968292 L 90.10547837768428 256.7773468831634 L 95.08413454664509 252.48808117614055 L 99.86754929721525 248.72666817232675 L 104.55334333859014 245.38605135484593 L 109.1415166707697 242.44599504892182 L 113.63206929375397 239.88556910188777 L 118.02500120754289 237.6833678426165 L 122.41793312133186 235.77859777011776 L 126.71324432592553 234.20120468100222 L 131.00855553051912 232.90237740209704 L 135.30386673511276 231.87809715833987 L 139.59917793970638 231.12360135795132 L 143.89448914430002 230.63340148335607 L 148.1898003488937 230.40130370908082 L 152.58273226268264 230.42372883656287 L 157.07328488566685 230.70984741637665 L 161.66145821784644 231.26734203843398 L 166.34725225922134 232.1022209933334 L 171.13066700979152 233.21863177437416 L 176.10932317875233 234.64926168936194 L 181.2832207661038 236.40894525441053 L 186.74998048104112 238.54936629937504 L 192.50960232356442 241.09122875371526 L 198.6597070028689 244.09826533120912 L 205.29791522815003 247.6425339399243 L 212.71708912699359 251.91463942693156 L 221.2100908269855 257.12569041751783 L 231.75312742007895 263.92683321987647 L 269.92282471544513 288.8522509842923 L 278.7086885430231 294.0923655779023 L 286.61596598784314 298.5020959687763 L 293.93751917749137 302.28331099680173 L 300.8685895303584 305.5656665159158 L 301.356693076335 305.7853014316354"
                        stroke-linecap="round" stroke-linejoin="round" stroke-miterlimit="10"
                        stroke-width="5" stroke-dasharray="" />
                </g>
            </g>
            <g id="sketch-0393b1f6">
                <title>Expression 6</title>
                <path fill="#4dabf7" stroke="none" paint-order="stroke fill markers" d=""
                    fill-opacity="0.4" />
                <g>
                    <path fill="none" stroke="#4dabf7" class="dcg-svg-curve"
                        paint-order="fill stroke markers"
                        d=" M -1.4210854715202004e-14 54.46142958842918 L 0.07708345196468538 54.482833827103 M 6.243759609140652 56.1951729210086 L 6.320843061105352 56.216577159682416 M 12.487519218281319 57.928916253588014 L 12.56460267024602 57.95032049226183 M 18.731278827421985 59.66265958616743 L 18.808362279386685 59.684063824841246 M 24.97503843656265 61.396402918746844 L 25.05212188852735 61.41780715742066 M 31.218798045703316 63.13014625132626 L 31.295881497668017 63.151550490000076 M 37.46255765484398 64.86388958390567 L 37.53964110680867 64.8852938225795 M 43.70631726398464 66.5976329164851 L 43.783400715949334 66.61903715515892 M 49.9500768731253 68.33137624906452 L 50.027160325089994 68.35278048773834 M 56.19383648226596 70.06511958164394 L 56.270919934230655 70.08652382031777 M 62.43759609140662 71.79886291422336 L 62.514679543371315 71.82026715289719 M 68.68135570054727 73.53260624680279 L 68.75843915251197 73.55401048547661 M 74.92511530968792 75.26634957938221 L 75.00219876165262 75.28775381805603 M 81.16887491882858 77.00009291196163 L 81.24595837079328 77.02149715063545 M 87.41263452796923 78.73383624454105 L 87.48971797993393 78.75524048321488 M 93.65639413710988 80.46757957712047 L 93.73347758907458 80.4889838157943 M 99.90015374625054 82.2013229096999 L 99.97723719821524 82.22272714837372 M 106.14391335539119 83.93506624227932 L 106.22099680735589 83.95647048095314 M 112.38767296453184 85.66880957485874 L 112.46475641649654 85.69021381353257 M 118.6314325736725 87.40255290743816 L 118.7085160256372 87.42395714611199 M 124.87519218281315 89.13629624001759 L 124.95227563477785 89.15770047869141 M 131.1189517919538 90.87003957259701 L 131.19603524391852 90.89144381127083 M 137.36271140109446 92.60378290517643 L 137.43979485305917 92.62518714385025 M 143.6064710102351 94.33752623775585 L 143.68355446219982 94.35893047642968 M 149.85023061937576 96.07126957033528 L 149.92731407134048 96.0926738090091 M 156.09399022851642 97.80501290291468 L 156.17107368048113 97.82641714158851 M 162.33774983765707 99.5387562354941 L 162.41483328962178 99.56016047416793 M 168.58150944679772 101.27249956807353 L 168.65859289876244 101.29390380674735 M 174.82526905593838 103.00624290065295 L 174.9023525079031 103.02764713932677 M 181.06902866507903 104.73998623323236 L 181.14611211704374 104.76139047190618 M 187.31278827421968 106.47372956581177 L 187.3898717261844 106.49513380448559 M 193.55654788336034 108.20747289839119 L 193.63363133532505 108.22887713706501 M 199.800307492501 109.94121623097061 L 199.8773909444657 109.96262046964443 M 206.04406710164164 111.67495956355002 L 206.12115055360636 111.69636380222384 M 212.2878267107823 113.40870289612943 L 212.364910162747 113.43010713480325 M 218.53158631992295 115.14244622870885 L 218.60866977188766 115.16385046738267 M 224.77534592906363 116.87618956128827 L 224.85242938102834 116.8975937999621 M 231.0191055382043 118.60993289386768 L 231.096188990169 118.6313371325415 M 237.26286514734494 120.3436762264471 L 237.33994859930965 120.36508046512093 M 243.50662475648562 122.07741955902651 L 243.58370820845033 122.09882379770033 M 249.7503843656263 123.81116289160593 L 249.827467817591 123.83256713027976 M 255.99414397476698 125.54490622418535 L 256.0712274267317 125.56631046285918 M 262.23790358390767 127.27864955676476 L 262.3149870358724 127.30005379543859 M 268.48166319304835 129.01239288934417 L 268.55874664501306 129.033797128018 M 274.72542280218903 130.7461362219236 L 274.80250625415374 130.76754046059742 M 280.9691824113297 132.47987955450301 L 281.0462658632944 132.50128379317684 M 287.2129420204704 134.21362288708244 L 287.2900254724351 134.23502712575626 M 293.4567016296111 135.94736621966186 L 293.5337850815758 135.96877045833568 M 299.70046123875176 137.68110955224128 L 299.77754469071647 137.7025137909151 M 305.94422084789244 139.4148528848207 L 306.02130429985715 139.43625712349453 M 312.1879804570331 141.14859621740013 L 312.26506390899783 141.17000045607395 M 318.4317400661738 142.88233954997955 L 318.5088235181385 142.90374378865337 M 324.6754996753145 144.61608288255897 L 324.7525831272792 144.6374871212328 M 330.9192592844551 146.3498262151384 L 330.9963427364198 146.37123045381222 M 337.1630188935958 148.0835695477178 L 337.2401023455605 148.1049737863916 M 343.4067785027364 149.81731288029718 L 343.4838619547011 149.838717118971 M 349.65053811187704 151.5510562128766 L 349.72762156384175 151.57246045155043 M 355.89429772101767 153.284799545456 L 355.9713811729824 153.30620378412982 M 362.13805733015835 155.0185428780354 L 362.21514078212306 155.03994711670921 M 368.381816939299 156.7522862106148 L 368.4589003912637 156.77369044928864 M 374.6255765484396 158.4860295431942 L 374.7026600004043 158.50743378186803 M 380.8693361575802 160.2197728757736 L 380.94641960954493 160.24117711444742 M 387.1130957667209 161.95351620835302 L 387.1901792186856 161.97492044702685 M 393.3568553758615 163.68725954093242 L 393.43393882782624 163.70866377960624 M 399.60061498500215 165.4210028735118 L 399.67769843696686 165.44240711218563"
                        stroke-linecap="round" stroke-linejoin="round" stroke-miterlimit="10"
                        stroke-width="4" stroke-dasharray="" />
                </g>
            </g>
            <g id="sketch-0393b1f6">
                <title>Expression 7</title>
                <path fill="#9398b0" stroke="none" paint-order="stroke fill markers" d=""
                    fill-opacity="0.4" />
                <g>
                    <path fill="none" stroke="#9398b0" class="dcg-svg-curve"
                        paint-order="fill stroke markers"
                        d=" M 150.00056778173362 -7 L 150.00056778173362 -6.92 M 150.00056778173362 -0.5200000000000005 L 150.00056778173362 -0.4400000000000005 M 150.00056778173362 5.959999999999998 L 150.00056778173362 6.039999999999998 M 150.00056778173362 12.439999999999996 L 150.00056778173362 12.519999999999996 M 150.00056778173362 18.919999999999995 L 150.00056778173362 18.999999999999993 M 150.00056778173362 25.399999999999988 L 150.00056778173362 25.479999999999986 M 150.00056778173362 31.87999999999998 L 150.00056778173362 31.95999999999998 M 150.00056778173362 38.35999999999997 L 150.00056778173362 38.43999999999997 M 150.00056778173362 44.83999999999996 L 150.00056778173362 44.91999999999996 M 150.00056778173362 51.31999999999995 L 150.00056778173362 51.39999999999995 M 150.00056778173362 57.79999999999994 L 150.00056778173362 57.87999999999994 M 150.00056778173362 64.27999999999993 L 150.00056778173362 64.35999999999993 M 150.00056778173362 70.75999999999992 L 150.00056778173362 70.83999999999992 M 150.00056778173362 77.23999999999991 L 150.00056778173362 77.31999999999991 M 150.00056778173362 83.7199999999999 L 150.00056778173362 83.7999999999999 M 150.00056778173362 90.19999999999989 L 150.00056778173362 90.27999999999989 M 150.00056778173362 96.67999999999988 L 150.00056778173362 96.75999999999988 M 150.00056778173362 103.15999999999987 L 150.00056778173362 103.23999999999987 M 150.00056778173362 109.63999999999986 L 150.00056778173362 109.71999999999986 M 150.00056778173362 116.11999999999985 L 150.00056778173362 116.19999999999985 M 150.00056778173362 122.59999999999984 L 150.00056778173362 122.67999999999984 M 150.00056778173362 129.0799999999998 L 150.00056778173362 129.15999999999983 M 150.00056778173362 135.5599999999998 L 150.00056778173362 135.63999999999982 M 150.00056778173362 142.0399999999998 L 150.00056778173362 142.1199999999998 M 150.00056778173362 148.51999999999978 L 150.00056778173362 148.5999999999998 M 150.00056778173362 154.99999999999977 L 150.00056778173362 155.07999999999979 M 150.00056778173362 161.47999999999976 L 150.00056778173362 161.55999999999977 M 150.00056778173362 167.95999999999975 L 150.00056778173362 168.03999999999976 M 150.00056778173362 174.43999999999974 L 150.00056778173362 174.51999999999975 M 150.00056778173362 180.91999999999973 L 150.00056778173362 180.99999999999974 M 150.00056778173362 187.39999999999972 L 150.00056778173362 187.47999999999973 M 150.00056778173362 193.8799999999997 L 150.00056778173362 193.95999999999972 M 150.00056778173362 200.3599999999997 L 150.00056778173362 200.4399999999997 M 150.00056778173362 206.8399999999997 L 150.00056778173362 206.9199999999997 M 150.00056778173362 213.31999999999968 L 150.00056778173362 213.3999999999997 M 150.00056778173362 219.79999999999967 L 150.00056778173362 219.87999999999968 M 150.00056778173362 226.27999999999966 L 150.00056778173362 226.35999999999967 M 150.00056778173362 232.75999999999965 L 150.00056778173362 232.83999999999966 M 150.00056778173362 239.23999999999964 L 150.00056778173362 239.31999999999965 M 150.00056778173362 245.71999999999963 L 150.00056778173362 245.79999999999964 M 150.00056778173362 252.19999999999962 L 150.00056778173362 252.27999999999963 M 150.00056778173362 258.6799999999996 L 150.00056778173362 258.7599999999996 M 150.00056778173362 265.15999999999957 L 150.00056778173362 265.23999999999955 M 150.00056778173362 271.63999999999953 L 150.00056778173362 271.7199999999995 M 150.00056778173362 278.1199999999995 L 150.00056778173362 278.1999999999995 M 150.00056778173362 284.59999999999945 L 150.00056778173362 284.67999999999944 M 150.00056778173362 291.0799999999994 L 150.00056778173362 291.1599999999994 M 150.00056778173362 297.5599999999994 L 150.00056778173362 297.63999999999936 M 150.00056778173362 304.03999999999934 L 150.00056778173362 304.1199999999993 M 150.00056778173362 310.51999999999936 L 150.00056778173362 310.59999999999934 M 150.00056778173362 316.9999999999994 L 150.00056778173362 317.07999999999936 M 150.00056778173362 323.47999999999934 L 150.00056778173362 323.5599999999993 M 150.00056778173362 329.95999999999935 L 150.00056778173362 330.03999999999934 M 150.00056778173362 336.4399999999994 L 150.00056778173362 336.51999999999936 M 150.00056778173362 342.9199999999994 L 150.00056778173362 342.9999999999994 M 150.00056778173362 349.3999999999994 L 150.00056778173362 349.4799999999994 M 150.00056778173362 355.8799999999994 L 150.00056778173362 355.9599999999994 M 150.00056778173362 362.3599999999994 L 150.00056778173362 362.4399999999994 M 150.00056778173362 368.8399999999994 L 150.00056778173362 368.9199999999994 M 150.00056778173362 375.3199999999994 L 150.00056778173362 375.3999999999994 M 150.00056778173362 381.79999999999944 L 150.00056778173362 381.8799999999994 M 150.00056778173362 388.2799999999994 L 150.00056778173362 388.3599999999994 M 150.00056778173362 394.7599999999994 L 150.00056778173362 394.8399999999994 M 150.00056778173362 401.23999999999944 L 150.00056778173362 401.3199999999994"
                        stroke-linecap="round" stroke-linejoin="round" stroke-miterlimit="10"
                        stroke-width="4" stroke-dasharray="" />
                </g>
            </g>
            <g id="sketch-0393b1f6">
                <title>Expression 8</title>
                <path fill="#fa7e19" stroke="none" paint-order="stroke fill markers" d=""
                    fill-opacity="0.4" />
                <g>
                    <path fill="none" stroke="#fa7e19" class="dcg-svg-curve"
                        paint-order="fill stroke markers"
                        d=" M -1.4210854715202004e-14 230.37915759803388 L 0.07999999999998579 230.37915759803388 M 6.479999999999984 230.37915759803388 L 6.5599999999999845 230.37915759803388 M 12.959999999999983 230.37915759803388 L 13.039999999999983 230.37915759803388 M 19.43999999999998 230.37915759803388 L 19.51999999999998 230.37915759803388 M 25.919999999999977 230.37915759803388 L 25.999999999999975 230.37915759803388 M 32.39999999999997 230.37915759803388 L 32.47999999999997 230.37915759803388 M 38.87999999999997 230.37915759803388 L 38.959999999999965 230.37915759803388 M 45.35999999999996 230.37915759803388 L 45.439999999999955 230.37915759803388 M 51.83999999999995 230.37915759803388 L 51.919999999999945 230.37915759803388 M 58.319999999999936 230.37915759803388 L 58.399999999999935 230.37915759803388 M 64.79999999999993 230.37915759803388 L 64.87999999999992 230.37915759803388 M 71.27999999999992 230.37915759803388 L 71.35999999999991 230.37915759803388 M 77.7599999999999 230.37915759803388 L 77.8399999999999 230.37915759803388 M 84.2399999999999 230.37915759803388 L 84.3199999999999 230.37915759803388 M 90.71999999999989 230.37915759803388 L 90.79999999999988 230.37915759803388 M 97.19999999999987 230.37915759803388 L 97.27999999999987 230.37915759803388 M 103.67999999999986 230.37915759803388 L 103.75999999999986 230.37915759803388 M 110.15999999999985 230.37915759803388 L 110.23999999999985 230.37915759803388 M 116.63999999999984 230.37915759803388 L 116.71999999999984 230.37915759803388 M 123.11999999999983 230.37915759803388 L 123.19999999999983 230.37915759803388 M 129.59999999999982 230.37915759803388 L 129.67999999999984 230.37915759803388 M 136.0799999999998 230.37915759803388 L 136.15999999999983 230.37915759803388 M 142.5599999999998 230.37915759803388 L 142.63999999999982 230.37915759803388 M 149.0399999999998 230.37915759803388 L 149.1199999999998 230.37915759803388 M 155.51999999999978 230.37915759803388 L 155.5999999999998 230.37915759803388 M 161.99999999999977 230.37915759803388 L 162.07999999999979 230.37915759803388 M 168.47999999999976 230.37915759803388 L 168.55999999999977 230.37915759803388 M 174.95999999999975 230.37915759803388 L 175.03999999999976 230.37915759803388 M 181.43999999999974 230.37915759803388 L 181.51999999999975 230.37915759803388 M 187.91999999999973 230.37915759803388 L 187.99999999999974 230.37915759803388 M 194.39999999999972 230.37915759803388 L 194.47999999999973 230.37915759803388 M 200.8799999999997 230.37915759803388 L 200.95999999999972 230.37915759803388 M 207.3599999999997 230.37915759803388 L 207.4399999999997 230.37915759803388 M 213.8399999999997 230.37915759803388 L 213.9199999999997 230.37915759803388 M 220.31999999999968 230.37915759803388 L 220.3999999999997 230.37915759803388 M 226.79999999999967 230.37915759803388 L 226.87999999999968 230.37915759803388 M 233.27999999999966 230.37915759803388 L 233.35999999999967 230.37915759803388 M 239.75999999999965 230.37915759803388 L 239.83999999999966 230.37915759803388 M 246.23999999999964 230.37915759803388 L 246.31999999999965 230.37915759803388 M 252.71999999999963 230.37915759803388 L 252.79999999999964 230.37915759803388 M 259.19999999999965 230.37915759803388 L 259.27999999999963 230.37915759803388 M 265.6799999999996 230.37915759803388 L 265.7599999999996 230.37915759803388 M 272.15999999999957 230.37915759803388 L 272.23999999999955 230.37915759803388 M 278.63999999999953 230.37915759803388 L 278.7199999999995 230.37915759803388 M 285.1199999999995 230.37915759803388 L 285.1999999999995 230.37915759803388 M 291.59999999999945 230.37915759803388 L 291.67999999999944 230.37915759803388 M 298.0799999999994 230.37915759803388 L 298.1599999999994 230.37915759803388 M 304.55999999999943 230.37915759803388 L 304.6399999999994 230.37915759803388 M 311.0399999999994 230.37915759803388 L 311.1199999999994 230.37915759803388 M 317.5199999999994 230.37915759803388 L 317.5999999999994 230.37915759803388 M 323.99999999999943 230.37915759803388 L 324.0799999999994 230.37915759803388 M 330.47999999999945 230.37915759803388 L 330.55999999999943 230.37915759803388 M 336.95999999999947 230.37915759803388 L 337.03999999999945 230.37915759803388 M 343.4399999999995 230.37915759803388 L 343.51999999999947 230.37915759803388 M 349.91999999999945 230.37915759803388 L 349.99999999999943 230.37915759803388 M 356.39999999999947 230.37915759803388 L 356.47999999999945 230.37915759803388 M 362.8799999999995 230.37915759803388 L 362.95999999999947 230.37915759803388 M 369.35999999999945 230.37915759803388 L 369.43999999999943 230.37915759803388 M 375.83999999999946 230.37915759803388 L 375.91999999999945 230.37915759803388 M 382.3199999999995 230.37915759803388 L 382.39999999999947 230.37915759803388 M 388.7999999999995 230.37915759803388 L 388.8799999999995 230.37915759803388 M 395.27999999999946 230.37915759803388 L 395.35999999999945 230.37915759803388"
                        stroke-linecap="round" stroke-linejoin="round" stroke-miterlimit="10"
                        stroke-width="4" stroke-dasharray="" />
                </g>
            </g>
        </g>
        <g id="labels-0393b1f6">
            <g transform="rotate(0,0,0) translate(64,127)">
                <g class="dcg-svg-label">

                    <text fill="#e599f7" stroke="none" font-family="arial, sans-serif"
                        font-size="22px" font-style="normal" font-weight="400"
                        text-decoration="normal" x="0" y="19.984" text-anchor="start">(a, f(a))</text>
                </g>
            </g>
            <g transform="rotate(0,0,0) translate(160,103)">
                <g class="dcg-svg-label">

                    <text fill="#e599f7" stroke="none" font-family="arial, sans-serif"
                        font-size="22px" font-style="normal" font-weight="400"
                        text-decoration="normal" x="0" y="19.984" text-anchor="start">f</text>
                </g>
            </g>
            <g transform="rotate(0,0,0) translate(311,201)">
                <g class="dcg-svg-label">

                    <text fill="#e599f7" stroke="none" font-family="arial, sans-serif"
                        font-size="22px" font-style="normal" font-weight="400"
                        text-decoration="normal" x="0" y="19.984" text-anchor="start">(b, f(b))</text>
                </g>
            </g>
            <g transform="rotate(0,0,0) translate(160,236)">
                <g class="dcg-svg-label">
                    <text fill="#ffc034" stroke="none" font-family="arial, sans-serif"
                        font-size="22px" font-style="normal" font-weight="400"
                        text-decoration="normal" x="0" y="19.984" text-anchor="start">g</text>
                </g>
            </g>
        </g>
        <g id="labels-0393b1f6" />
    </g>
</svg>