<svg xmlns="http://www.w3.org/2000/svg" direction="ltr" width="664.1823277804033" height="341.43721910954173" viewBox="1440.218756629556 6050.147757044318 664.1823277804033 341.43721910954173" stroke-linecap="round" stroke-linejoin="round" style="background-color: transparent;"><defs/><g transform="matrix(1, 0, 0, 1, 1581.8589, 6141.4943) scale(1.005873239655112, 1.005873239655112)" opacity="1"><g transform="scale(0.9941610538748145)"><path d="M1.94,0.97 T1.4899,1.9344 -0.2057,4.8974 -2.6873,8.1713 -4.9548,10.488 -7.0021,12.5558 -10.0727,14.9487 -13.1444,16.7102 -14.1615,17.1051 A2.2188,2.2188 0 0 1 -16.0185,13.0749 T-15.0574,12.5584 -12.8105,11.038 -10.4774,9.0216 -7.3855,6.1462 -4.1411,2.5937 -2.4406,-0.033 -1.94,-0.97 A2.1689,2.1689 0 0 1 1.94,0.97 Z" stroke-linecap="round" fill="#f2f2f2"/></g></g><g transform="matrix(1, 0, 0, 1, 1569.7885, 6142.5002) scale(1.005873239655112, 1.005873239655112)" opacity="1"><g transform="scale(0.9941610538748145)"><path d="M2.0131,0.0035 T2.4766,0.9617 3.9854,4.0585 6.1468,7.8845 8.4968,11.2262 11.1614,14.1386 12.5922,15.3968 A2.291,2.291 0 0 1 9.5278,18.8032 T8.6623,18.0356 6.3487,15.5924 3.4426,12.0088 1.1329,8.4386 -0.3788,5.3396 -1.5259,2.9598 -2.0131,2.0165 A2.2507,2.2507 0 0 1 2.0131,0.0035 Z" stroke-linecap="round" fill="#f2f2f2"/></g></g><g transform="matrix(1, 0, 0, 1, 1589.9059, 6115.3416) scale(1.005873239655112, 1.005873239655112)" opacity="1"><g transform="scale(0.9941610538748145)"><path d="M-0.3834,-2.2931 T1.0449,-2.5335 4.8292,-2.9705 9.0341,-2.334 11.6965,0.9352 10.8174,5.1231 10.1302,8.0727 11.4022,11.618 11.6237,14.4855 11.5782,15.0056 A2.4022,2.4022 0 0 1 6.7996,14.5078 T6.5899,12.5523 5.4952,9.1285 4.7373,6.2227 5.9204,3.114 5.1085,1.6306 1.812,2.0558 0.3834,2.2931 A2.3249,2.3249 0 0 1 -0.3834,-2.2931 ZM10.1255,16.9688 T9.3788,17.294 5.9646,17.7256 1.303,16.9073 -2.1761,14.2387 -3.661,12.4947 A2.1873,2.1873 0 0 1 -0.359,9.6253 T1.1929,11.0856 4.7558,12.8507 7.5095,12.85 8.2522,12.5446 A2.4022,2.4022 0 0 1 10.1255,16.9688 Z" stroke-linecap="round" fill="#f2f2f2"/></g></g><g transform="matrix(1, 0, 0, 1, 1611.0293, 6138.4767) scale(1.005873239655112, 1.005873239655112)" opacity="1"><g transform="scale(0.9941610538748145)"><path d="M 1.01 0 m -2.6455463976672777, 0 a 2.6455463976672777,2.6455463976672777 0 1,1 5.2910927953345555,0 a 2.6455463976672777,2.6455463976672777 0 1,1 -5.2910927953345555,0" stroke-linecap="round" fill="#f2f2f2"/></g></g><g transform="matrix(1, 0, 0, 1, 1611.0293, 6151.553) scale(1.005873239655112, 1.005873239655112)" opacity="1"><g transform="scale(0.9941610538748145)"><path d="M 0 0 m -2.6455463976672777, 0 a 2.6455463976672777,2.6455463976672777 0 1,1 5.2910927953345555,0 a 2.6455463976672777,2.6455463976672777 0 1,1 -5.2910927953345555,0" stroke-linecap="round" fill="#f2f2f2"/></g></g><g transform="matrix(1, 0, 0, 1, 1647.2407, 6137.4708) scale(1.005873239655112, 1.005873239655112)" opacity="1"><g transform="scale(0.9941610538748145)"><path d="M1.5792,1.2621 T0.638,2.4594 -1.3081,4.8091 -3.4083,6.9009 -5.6831,8.9565 -7.9742,11.1451 -10.6061,13.6719 -13.4358,15.8487 -15.9534,17.1968 -17.1617,17.8223 A1.9749,1.9749 0 0 1 -19.0583,14.3577 T-17.0477,13.227 -13.5418,10.6115 -10.9017,8.0381 -8.468,5.7779 -5.3394,2.8539 -2.5395,-0.0803 -1.5792,-1.2621 A2.0216,2.0216 0 0 1 1.5792,1.2621 Z" stroke-linecap="round" fill="#f2f2f2"/></g></g><g transform="matrix(1, 0, 0, 1, 1634.1643, 6137.4708) scale(1.005873239655112, 1.005873239655112)" opacity="1"><g transform="scale(0.9941610538748145)"><path d="M1.8141,-0.6037 T2.2887,0.8252 3.3421,3.8837 4.6025,6.8519 6.438,10.4705 8.6023,14.4345 10.1768,17.1344 10.7408,18.1505 A1.9441,1.9441 0 0 1 7.3592,20.0695 T6.7761,19.0643 5.118,16.2904 2.9145,12.2244 1.1262,8.5628 -0.1978,5.3292 -1.338,2.0317 -1.8141,0.6037 A1.9119,1.9119 0 0 1 1.8141,-0.6037 Z" stroke-linecap="round" fill="#f2f2f2"/></g></g><g transform="matrix(1, 0, 0, 1, 1653.2759, 6116.3474) scale(1.005873239655112, 1.005873239655112)" opacity="1"><g transform="scale(0.9941610538748145)"><path d="M-0.4039,-2.4151 T1.0284,-2.6321 4.8408,-2.7746 9.4138,-1.7807 11.6066,-0.8611 A2.4078,2.4078 0 0 1 8.9473,3.1536 T8.4025,2.6482 5.5554,2.0182 1.8285,2.1543 0.4039,2.4151 A2.4486,2.4486 0 0 1 -0.4039,-2.4151 ZM12.5515,1.9363 T12.1406,3.0469 10.7704,5.34 8.3985,7.7139 6.1613,9.2827 5.3365,9.6602 A2.3909,2.3909 0 0 1 3.4576,5.263 T4.4004,4.7741 6.4492,3.0364 7.7789,1.0719 8.0025,0.3561 A2.4078,2.4078 0 0 1 12.5515,1.9363 ZM6.7233,8.0137 T6.6419,8.3913 6.5606,8.7688 A2.4069,2.4069 0 0 1 1.8768,7.6571 T1.9738,7.2833 2.0708,6.9094 A2.3909,2.3909 0 0 1 6.7233,8.0137 ZM4.8391,5.8873 T5.8423,6.1367 8.47,6.4646 11.1203,6.5889 12.146,6.6348 A2.4164,2.4164 0 0 1 11.994,11.4652 T10.9675,11.4465 8.0327,11.3384 4.8613,10.8937 3.5982,10.5385 A2.4069,2.4069 0 0 1 4.8391,5.8873 Z" stroke-linecap="round" fill="#f2f2f2"/></g></g><g transform="matrix(1, 0, 0, 1, 1674.3993, 6136.4649) scale(1.005873239655112, 1.005873239655112)" opacity="1"><g transform="scale(0.9941610538748145)"><path d="M1.7871,0 T1.797,1.4285 1.5554,5.2085 1.154,9.3004 0.392,13.7636 -0.22,16.4867 A1.8334,1.8334 0 0 1 -3.8,15.6933 T-3.2642,13.2367 -2.4939,8.6907 -2.0331,4.7291 -1.797,1.4285 -1.7871,0 A1.7871,1.7871 0 0 1 1.7871,0 Z" stroke-linecap="round" fill="#f2f2f2"/></g></g><g transform="matrix(1, 0, 0, 1, 1679.4286, 6144.5119) scale(1.005873239655112, 1.005873239655112)" opacity="1"><g transform="scale(0.9941610538748145)"><path d="M-0.7915,1.7394 T-2.6931,1.999 -6.7095,2.1298 -11.0017,1.8569 -13.179,1.7128 A1.7156,1.7156 0 0 1 -12.981,-1.7128 T-10.8016,-1.6051 -6.8267,-1.4003 -3.1298,-1.5213 -1.2285,-1.7394 A1.7531,1.7531 0 0 1 -0.7915,1.7394 Z" stroke-linecap="round" fill="#f2f2f2"/></g></g><g transform="matrix(1, 0, 0, 1, 1687.4756, 6134.4532) scale(1.005873239655112, 1.005873239655112)" opacity="1"><g transform="scale(0.9941610538748145)"><path d="M-0.4222,-2.1029 T0.7704,-2.327 4.1503,-2.7532 7.8813,-2.7434 11.6706,-2.0769 15.232,-0.5254 16.9928,3.0011 16.5942,7.1634 14.3731,10.4815 11.5951,13.6557 9.0155,16.3609 6.764,18.4196 5.6914,19.3622 A2.2461,2.2461 0 0 1 2.1787,16.5621 T2.8327,15.8379 4.7308,14.134 7.2307,12.0856 9.7189,9.4512 12.2312,5.9701 12.3818,2.9585 8.9045,1.5466 4.6759,1.4133 1.6088,1.8493 0.4222,2.1029 A2.1448,2.1448 0 0 1 -0.4222,-2.1029 ZM5.1638,16.082 T5.5902,16.3707 7.995,17.5061 11.7328,18.478 15.7905,18.5651 19.4336,18.3568 20.7782,18.1868 A1.9632,1.9632 0 0 1 21.4618,22.0532 T20.1403,22.3545 17.4063,22.9514 13.2207,23.1576 8.766,22.5296 5.7375,21.457 3.5484,20.3826 2.7063,19.8423 A2.2461,2.2461 0 0 1 5.1638,16.082 Z" stroke-linecap="round" fill="#f2f2f2"/></g></g><g transform="matrix(1, 0, 0, 1, 1726.7047, 6138.4767) scale(1.005873239655112, 1.005873239655112)" opacity="1"><g transform="scale(0.9941610538748145)"><path d="M1.0723,2.3517 T-0.1049,3.3179 -3.0101,5.8688 -6.0014,8.4389 -9.6089,11.3954 -11.953,13.3666 A1.7179,1.7179 0 0 1 -14.207,10.7734 T-12.9846,9.6783 -10.6284,7.5641 -8.3523,5.6676 -5.3431,3.1645 -2.2743,0.6036 -1.0723,-0.3317 A1.7176,1.7176 0 0 1 1.0723,2.3517 Z" stroke-linecap="round" fill="#f2f2f2"/></g></g><g transform="matrix(1, 0, 0, 1, 1714.6342, 6138.4767) scale(1.005873239655112, 1.005873239655112)" opacity="1"><g transform="scale(0.9941610538748145)"><path d="M1.7879,-1.0735 T2.5144,0.1101 4.1236,3.1777 5.9924,7.3911 7.9453,11.7824 9.4545,15.0033 9.9967,16.1623 A2.1607,2.1607 0 0 1 6.1033,18.0377 T5.5351,16.8912 3.9523,13.6151 2.0167,9.1859 0.3558,5.1755 -1.0859,2.269 -1.7879,1.0735 A2.0854,2.0854 0 0 1 1.7879,-1.0735 Z" stroke-linecap="round" fill="#f2f2f2"/></g></g><g transform="matrix(1, 0, 0, 1, 1744.8104, 6136.4649) scale(1.005873239655112, 1.005873239655112)" opacity="1"><g transform="scale(0.9941610538748145)"><path d="M3.0418,0 T3.0542,1.665 3.0828,5.871 3.0905,9.9914 3.0743,13.3304 3.0666,15.09 A2.0566,2.0566 0 0 1 -1.0466,15.09 T-1.0543,13.3304 -1.0705,9.9914 -1.0628,5.871 -1.0342,1.665 -1.0218,0 A2.0318,2.0318 0 0 1 3.0418,0 Z" stroke-linecap="round" fill="#f2f2f2"/></g></g><g transform="matrix(1, 0, 0, 1, 1749.8398, 6142.5002) scale(1.005873239655112, 1.005873239655112)" opacity="1"><g transform="scale(0.9941610538748145)"><path d="M0.3153,1.5702 T-0.8679,1.8373 -4.874,2.4471 -9.4029,2.7222 -11.1089,2.6546 A1.6453,1.6453 0 0 1 -11.0111,-0.6346 T-9.3041,-0.6007 -5.1522,-0.8579 -1.5113,-1.3596 -0.3153,-1.5702 A1.6016,1.6016 0 0 1 0.3153,1.5702 Z" stroke-linecap="round" fill="#f2f2f2"/></g></g><g transform="matrix(1, 0, 0, 1, 1763.922, 6128.4179) scale(1.005873239655112, 1.005873239655112)" opacity="1"><g transform="scale(0.9941610538748145)"><path d="M0.324,-2.2582 T1.9926,-2.0248 5.9893,-0.8828 9.8816,2.1355 11.6845,5.0736 11.9232,5.9019 A2.3637,2.3637 0 0 1 7.3631,7.1484 T6.735,5.6235 4.5527,3.4227 1.3373,2.5025 -0.324,2.2582 A2.2813,2.2813 0 0 1 0.324,-2.2582 ZM11.6422,7.7865 T11.252,8.3975 9.1265,10.2656 5.779,12.1737 4.1668,12.8248 A2.3303,2.3303 0 0 1 2.7694,8.3786 T3.2555,8.2338 5.3295,7.2596 7.2808,5.847 7.6442,5.2638 A2.3637,2.3637 0 0 1 11.6422,7.7865 ZM5.4929,9.4482 T5.85,10.1144 7.6797,12.0127 10.2525,14.5511 12.0635,17.4036 12.5929,20.4035 11.3574,23.0832 8.4919,25.4666 4.1096,26.9687 -0.3544,26.7766 -3.9231,25.6981 -5.5987,25.1563 A2.0949,2.0949 0 0 1 -4.4613,21.1237 T-1.6023,21.8581 3.6073,22.3338 6.7117,20.103 6.3395,17.0076 3.8476,14.6918 1.9626,12.6273 1.4434,11.7553 A2.3303,2.3303 0 0 1 5.4929,9.4482 Z" stroke-linecap="round" fill="#f2f2f2"/></g></g><g transform="matrix(1, 0, 0, 1, 1791.0806, 6134.4532) scale(1.005873239655112, 1.005873239655112)" opacity="1"><g transform="scale(0.9941610538748145)"><path d="M0,-1.4793 T1.4285,-1.5296 5.303,-1.8282 10.1931,-2.7729 12.6371,-3.4693 A1.5251,1.5251 0 0 1 13.5229,-0.5507 T10.9184,0.2851 5.5854,1.3505 1.4285,1.5296 0,1.4793 A1.4793,1.4793 0 0 1 0,-1.4793 Z" stroke-linecap="round" fill="#f2f2f2"/></g></g><g transform="matrix(1, 0, 0, 1, 1793.0923, 6140.4884) scale(1.005873239655112, 1.005873239655112)" opacity="1"><g transform="scale(0.9941610538748145)"><path d="M0.2726,-0.6366 T1.7024,-0.4452 6.0378,-0.6434 10.8725,-1.3224 12.8017,-1.6118 A1.6357,1.6357 0 0 1 13.3583,1.6118 T11.4437,1.9861 7.7273,2.7165 4.2535,3.1463 1.1545,2.9382 -0.2726,2.6566 A1.6691,1.6691 0 0 1 0.2726,-0.6366 Z" stroke-linecap="round" fill="#f2f2f2"/></g></g><g transform="matrix(1, 0, 0, 1, 1836.3449, 6126.4062) scale(1.005873239655112, 1.005873239655112)" opacity="1"><g transform="scale(0.9941610538748145)"><path d="M1.6569,1.2447 T0.9334,2.1945 -1.5898,5.0329 -4.3764,8.0171 -7.073,10.7788 -10.4616,13.8795 -13.5112,16.2967 -16.5418,18.0758 -18.202,18.8722 A1.9913,1.9913 0 0 1 -20.018,15.3278 T-18.0902,14.3036 -14.8102,12.0724 -11.8264,9.2645 -8.383,5.9607 -4.8192,2.4582 -2.3619,-0.2931 -1.6569,-1.2447 A2.0724,2.0724 0 0 1 1.6569,1.2447 Z" stroke-linecap="round" fill="#4dabf7"/></g></g><g transform="matrix(1, 0, 0, 1, 1822.2626, 6120.3709) scale(1.005873239655112, 1.005873239655112)" opacity="1"><g transform="scale(0.9941610538748145)"><path d="M2.1949,-0.8771 T2.6464,0.3205 3.8799,3.439 5.2681,6.9453 6.6421,9.9947 8.1177,13.0752 10.0979,16.9316 12.3131,21.0882 13.7517,24.0387 14.2476,25.0725 A2.4295,2.4295 0 0 1 9.8924,27.2275 T9.3714,26.2061 8.0551,23.5609 6.3809,20.5948 4.9195,17.9229 3.7264,15.0974 2.2886,11.8706 0.845,8.3639 -0.4839,4.9142 -1.6957,2.0586 -2.1949,0.8771 A2.3637,2.3637 0 0 1 2.1949,-0.8771 Z" stroke-linecap="round" fill="#4dabf7"/></g></g><g transform="matrix(1, 0, 0, 1, 1575.8237, 6183.741) scale(1.005873239655112, 1.005873239655112)" opacity="1"><g transform="scale(0.9941610538748145)"><path d="M1.9708,0.9854 T1.494,1.9365 -0.0771,4.4503 -3.0623,8.0654 -6.006,11.2071 -8.5213,13.7683 -11.8829,16.5829 -13.7822,17.9256 A2.2539,2.2539 0 0 1 -16.3978,14.2544 T-14.821,13.1206 -11.8005,10.5255 -9.2986,7.9994 -6.4528,5.0998 -3.792,2.09 -2.4448,-0.0351 -1.9708,-0.9854 A2.2034,2.2034 0 0 1 1.9708,0.9854 Z" stroke-linecap="round" fill="#4dabf7"/></g></g><g transform="matrix(1, 0, 0, 1, 1562.7473, 6184.7468) scale(1.005873239655112, 1.005873239655112)" opacity="1"><g transform="scale(0.9941610538748145)"><path d="M2.0584,-0.685 T2.5348,0.7416 3.8898,3.6605 6.23,6.874 8.9626,10.5074 11.4039,13.4332 12.5743,14.4468 A2.2345,2.2345 0 0 1 9.5457,17.7332 T7.8934,16.1456 5.3984,13.2127 2.812,9.7133 -0.0207,5.5524 -1.584,2.1153 -2.0584,0.685 A2.1694,2.1694 0 0 1 2.0584,-0.685 Z" stroke-linecap="round" fill="#4dabf7"/></g></g><g transform="matrix(1, 0, 0, 1, 1576.8296, 6166.6411) scale(1.005873239655112, 1.005873239655112)" opacity="1"><g transform="scale(0.9941610538748145)"><path d="M0.2747,-2.1895 T2.1827,-1.9765 5.7102,-1.3894 9.186,0.4512 10.3675,4.2739 8.1815,7.5178 6.6703,8.4054 A2.3076,2.3076 0 0 1 3.7923,4.7974 T5.4833,4.4255 5.3495,3.3863 1.625,2.4542 -0.2747,2.1895 A2.2066,2.2066 0 0 1 0.2747,-2.1895 ZM6.7274,4.8445 T7.6385,5.6331 9.4176,7.5019 10.2856,8.5821 A2.2884,2.2884 0 0 1 6.6842,11.4066 T6.0828,10.6131 4.6082,9.0889 3.7352,8.3582 A2.3076,2.3076 0 0 1 6.7274,4.8445 ZM10.3631,11.3019 T10.0118,11.8071 7.6055,13.5042 3.7155,14.9338 0.4757,14.5937 -1.9243,13.4824 -2.9196,12.9488 A2.0964,2.0964 0 0 1 -1.1004,9.1712 T0.9714,9.8428 4.4929,10.0772 6.2746,9.1635 6.6068,8.6869 A2.2884,2.2884 0 0 1 10.3631,11.3019 Z" stroke-linecap="round" fill="#4dabf7"/></g></g><g transform="matrix(1, 0, 0, 1, 1593.9294, 6187.7644) scale(1.005873239655112, 1.005873239655112)" opacity="1"><g transform="scale(0.9941610538748145)"><path d="M1.7562,0 T1.7772,1.665 1.8285,5.871 1.8479,10.746 1.8369,13.08 A1.8369,1.8369 0 0 1 -1.8369,13.08 T-1.8479,10.746 -1.8285,5.871 -1.7772,1.665 -1.7562,0 A1.7562,1.7562 0 0 1 1.7562,0 Z" stroke-linecap="round" fill="#4dabf7"/></g></g><g transform="matrix(1, 0, 0, 1, 1597.9529, 6193.7997) scale(1.005873239655112, 1.005873239655112)" opacity="1"><g transform="scale(0.9941610538748145)"><path d="M0.525,1.5777 T-0.8993,2.1061 -3.8079,2.7319 -6.8966,2.7865 -10.2817,2.7062 -12.0623,2.6687 A1.6587,1.6587 0 0 1 -12.0777,-0.6487 T-10.2975,-0.7026 -5.9537,-0.7448 -1.9576,-1.1554 -0.525,-1.5777 A1.6628,1.6628 0 0 1 0.525,1.5777 Z" stroke-linecap="round" fill="#4dabf7"/></g></g><g transform="matrix(1, 0, 0, 1, 1604.994, 6183.741) scale(1.005873239655112, 1.005873239655112)" opacity="1"><g transform="scale(0.9941610538748145)"><path d="M1.01,-2.4386 T2.1996,-2.434 5.6656,-2.1383 9.1754,-1.0974 11.9129,1.6194 13.168,5.8737 11.4843,9.8217 8.1478,12.7531 5.0765,14.861 3.9071,15.6981 A2.5011,2.5011 0 0 1 0.3206,12.2111 T2.022,11.0022 5.1267,8.9238 7.5867,6.4791 7.5793,3.8533 4.9522,2.6161 2.1996,2.434 1.01,2.4386 A2.4386,2.4386 0 0 1 1.01,-2.4386 ZM3.0301,11.6274 T3.8288,11.9378 6.6937,12.3078 11.2108,13.1363 14.786,14.3774 15.9103,14.8496 A2.3952,2.3952 0 0 1 14.2697,19.3504 T13.1052,18.9882 10.2433,18.1318 6.1559,17.4693 2.4819,16.7915 1.1977,16.2819 A2.5011,2.5011 0 0 1 3.0301,11.6274 Z" stroke-linecap="round" fill="#4dabf7"/></g></g><g transform="matrix(1, 0, 0, 1, 1638.1878, 6187.7644) scale(1.005873239655112, 1.005873239655112)" opacity="1"><g transform="scale(0.9941610538748145)"><path d="M1.2973,2.6332 T0.1172,3.5964 -2.8612,6.0892 -6.2081,8.7095 -9.6762,11.4619 -12.7025,13.9452 -13.8092,14.7669 A2.1181,2.1181 0 0 1 -16.3708,11.3931 T-14.416,9.8834 -11.3411,7.2713 -9.004,5.3969 -5.7412,2.9441 -2.4964,0.3251 -1.2973,-0.6132 A2.078,2.078 0 0 1 1.2973,2.6332 Z" stroke-linecap="round" fill="#4dabf7"/></g></g><g transform="matrix(1, 0, 0, 1, 1627.1232, 6188.7703) scale(1.005873239655112, 1.005873239655112)" opacity="1"><g transform="scale(0.9941610538748145)"><path d="M1.632,-1.226 T2.3506,-0.2752 3.9151,2.0655 5.7554,4.8277 7.9453,7.8625 9.9499,10.7075 10.7589,11.89 A2.0825,2.0825 0 0 1 7.3411,14.27 T6.5126,13.1011 4.4253,10.1899 2.2537,7.135 0.5644,4.4748 -0.9221,2.1767 -1.632,1.226 A2.0412,2.0412 0 0 1 1.632,-1.226 Z" stroke-linecap="round" fill="#4dabf7"/></g></g><g transform="matrix(1, 0, 0, 1, 1640.1996, 6171.6705) scale(1.005873239655112, 1.005873239655112)" opacity="1"><g transform="scale(0.9941610538748145)"><path d="M1.4049,-2.3576 T2.8445,-2.1184 6.4137,-0.1122 8.5433,1.6549 A2.3775,2.3775 0 0 1 4.6064,4.3216 T4.0234,3.5781 2.0277,2.5961 0.6151,2.3576 A2.3904,2.3904 0 0 1 1.4049,-2.3576 ZM8.4708,4.4228 T8.0911,4.912 6.2681,6.5735 4.0353,8.164 3.2458,8.5821 A2.3551,2.3551 0 0 1 1.216,4.3318 T2.5964,3.4193 4.3279,2.0303 4.6789,1.5537 A2.3775,2.3775 0 0 1 8.4708,4.4228 ZM4.5636,6.7804 T4.5173,7.1579 4.471,7.5355 A2.367,2.367 0 0 1 -0.2182,6.8854 T-0.16,6.5095 -0.1019,6.1335 A2.3551,2.3551 0 0 1 4.5636,6.7804 ZM2.7839,4.9366 T3.4699,5.1241 6.0094,5.4295 9.0238,5.62 10.1847,5.6928 A2.3605,2.3605 0 0 1 9.9353,10.4072 T8.7732,10.3571 5.2274,10.1052 2.1563,9.6939 1.4689,9.4843 A2.367,2.367 0 0 1 2.7839,4.9366 Z" stroke-linecap="round" fill="#4dabf7"/></g></g><g transform="matrix(1, 0, 0, 1, 1657.2994, 6187.7644) scale(1.005873239655112, 1.005873239655112)" opacity="1"><g transform="scale(0.9941610538748145)"><path d="M1.6863,0 T1.751,1.9069 1.4972,6.2856 0.9725,11.4637 0.7662,14.17 A1.7785,1.7785 0 0 1 -2.7862,13.99 T-2.712,11.1611 -2.2267,6.0668 -1.751,1.9007 -1.6863,0 A1.6863,1.6863 0 0 1 1.6863,0 Z" stroke-linecap="round" fill="#4dabf7"/></g></g><g transform="matrix(1, 0, 0, 1, 1661.3229, 6194.8056) scale(1.005873239655112, 1.005873239655112)" opacity="1"><g transform="scale(0.9941610538748145)"><path d="M-1.01,2.0118 T-2.4361,2.0214 -6.4561,1.9855 -9.05,1.9401 A1.9401,1.9401 0 0 1 -9.05,-1.9401 T-6.4561,-1.9855 -2.4361,-2.0214 -1.01,-2.0118 A2.0118,2.0118 0 0 1 -1.01,2.0118 Z" stroke-linecap="round" fill="#4dabf7"/></g></g><g transform="matrix(1, 0, 0, 1, 1672.3875, 6183.741) scale(1.005873239655112, 1.005873239655112)" opacity="1"><g transform="scale(0.9941610538748145)"><path d="M0.8898,-2.0742 T2.5617,-1.355 5.6499,0.414 7.746,3.034 7.473,6.7414 5.2971,9.6902 4.0739,10.5017 A2.3368,2.3368 0 0 1 1.5482,6.5693 T1.9872,5.0311 0.7682,2.7835 -0.8898,2.0742 A2.257,2.257 0 0 1 0.8898,-2.0742 ZM4.2874,6.7242 T4.7372,7.1394 6.3413,8.475 9.1512,10.8133 11.1826,14.2842 10.6447,17.893 8.4799,20.2626 4.6078,21.9855 0.4887,22.7888 -2.2686,21.9492 -4.3896,20.5929 -5.2513,19.9705 A2.231,2.231 0 0 1 -2.7887,16.2495 T-0.9275,17.2042 2.9235,17.5249 5.4612,15.2858 4.573,12.6997 2.2358,11.0327 1.3347,10.3468 A2.3368,2.3368 0 0 1 4.2874,6.7242 Z" stroke-linecap="round" fill="#4dabf7"/></g></g><g transform="matrix(1, 0, 0, 1, 1696.5285, 6191.7879) scale(1.005873239655112, 1.005873239655112)" opacity="1"><g transform="scale(0.9941610538748145)"><path d="M1.4721,0.8839 T0.789,2.093 -0.7761,4.5124 -3.5342,7.6181 -6.7731,10.455 -9.5955,12.4146 -11.0551,13.4328 A1.6992,1.6992 0 0 1 -13.0849,10.7072 T-11.6913,9.6005 -8.1305,6.7448 -4.463,3.2261 -2.2175,0.2862 -1.4721,-0.8839 A1.7171,1.7171 0 0 1 1.4721,0.8839 Z" stroke-linecap="round" fill="#4dabf7"/></g></g><g transform="matrix(1, 0, 0, 1, 1687.4756, 6192.7938) scale(1.005873239655112, 1.005873239655112)" opacity="1"><g transform="scale(0.9941610538748145)"><path d="M1.5819,-0.9498 T2.2979,0.2386 4.0194,3.0574 6.6726,6.6005 9.3625,9.6513 10.4046,10.7897 A1.8639,1.8639 0 0 1 7.6954,13.3503 T6.6176,12.2456 4.5234,10.1002 2.5413,7.6821 0.7094,4.818 -0.8694,2.1406 -1.5819,0.9498 A1.8452,1.8452 0 0 1 1.5819,-0.9498 Z" stroke-linecap="round" fill="#4dabf7"/></g></g><g transform="matrix(1, 0, 0, 1, 1556.7121, 6174.6881) scale(1.005873239655112, 1.005873239655112)" opacity="1"><g transform="scale(0.9941610538748145)"><path d="M1.5617,1.5617 T0.6062,2.5077 -1.7219,4.8223 -4.4971,7.4731 -6.9205,10.0878 -8.9837,13.4337 -10.6707,17.372 -10.9278,20.7732 -9.6065,23.4941 -7.6625,25.6126 -6.6521,26.4866 A2.1805,2.1805 0 0 1 -9.4479,29.8334 T-10.4877,28.9947 -12.7522,27.0039 -14.7865,23.482 -15.374,18.483 -14.164,13.522 -12.3188,9.9316 -10.3566,7.2826 -7.7174,4.4896 -4.8184,1.718 -2.5077,-0.6062 -1.5617,-1.5617 A2.2085,2.2085 0 0 1 1.5617,1.5617 Z" stroke-linecap="round" fill="#4dabf7"/></g></g><g transform="matrix(1, 0, 0, 1, 1704.5755, 6170.6646) scale(1.005873239655112, 1.005873239655112)" opacity="1"><g transform="scale(0.9941610538748145)"><path d="M1.8644,-0.9322 T2.3295,0.0236 3.7829,2.9483 5.8302,7.2225 7.4814,12.2668 8.3887,17.3864 8.8774,21.739 8.9029,25.6317 8.4284,29.3013 7.667,32.5079 6.4305,35.392 3.7321,38.8548 0.6582,41.8936 -0.5192,42.8958 A2.228,2.228 0 0 1 -3.5008,39.5842 T-2.381,38.5181 0.1059,35.9138 2.4395,32.2421 3.7291,28.6073 4.2305,25.571 4.3041,22.1601 3.9863,18.0661 3.3633,13.4768 2.0093,8.9356 0.0861,4.7945 -1.3788,1.8778 -1.8644,0.9322 A2.0845,2.0845 0 0 1 1.8644,-0.9322 Z" stroke-linecap="round" fill="#4dabf7"/></g></g><g transform="matrix(1, 0, 0, 1, 1516.4772, 6191.7879) scale(1.005873239655112, 1.005873239655112)" opacity="1"><g transform="scale(0.9941610538748145)"><path d="M0,-0.4765 T1.665,-0.5019 4.9216,-0.5063 8.2866,-0.4662 10.06,-0.4472 A1.4572,1.4572 0 0 1 10.06,2.4672 T8.2866,2.4862 4.9216,2.5263 1.665,2.5219 0,2.4965 A1.4865,1.4865 0 0 1 0,-0.4765 Z" stroke-linecap="round" fill="#4dabf7"/></g></g><g transform="matrix(1, 0, 0, 1, 1509.4361, 6209.8937) scale(1.005873239655112, 1.005873239655112)" opacity="1"><g transform="scale(0.9941610538748145)"><path d="M0.2359,-1.8805 T2.1366,-1.617 5.7051,-1.2316 9.9178,-1.0234 14.9777,-0.9295 20.1976,-0.6729 24.9231,-0.252 28.9498,-0.0364 32.9676,0.0124 37.5605,0.2651 42.3387,0.6673 46.731,0.8573 50.9852,0.894 55.6704,0.8814 60.4785,0.8482 65.2084,0.8032 69.9161,0.7601 74.1307,0.7315 78.4472,0.7089 82.9143,0.6853 87.1844,0.6632 91.2774,0.6418 95.3213,0.6202 99.4623,0.3857 103.0317,0.0056 106.8087,-0.2698 110.9736,-0.6277 115.0406,-1.0992 119.3524,-1.3909 123.4599,-1.4643 127.508,-1.4827 132.143,-1.4865 136.1964,-1.227 139.6337,-0.8 143.8684,-0.5852 148.3033,-0.5347 152.5702,-0.5321 156.9003,-0.5373 161.9723,-0.547 166.5715,-0.7502 170.8958,-1.1886 175.9344,-1.4935 180.5875,-1.5772 185.0216,-1.604 189.6477,-1.6193 194.3264,-1.6263 199.3719,-1.6064 203.5257,-1.5625 206.9916,-1.9734 210.2895,-2.747 211.5698,-3.085 A2.1805,2.1805 0 0 1 212.9102,1.065 T210.4222,2.0123 206.4629,3.2587 203.5344,3.5826 199.3722,3.6267 194.3277,3.6474 189.6517,3.6433 185.0372,3.6384 180.6413,3.6491 176.13,3.7004 171.7069,3.8819 167.2279,4.2969 161.9713,4.5659 156.896,4.5533 152.5549,4.5377 148.2551,4.5028 143.6774,4.4183 138.9965,4.1473 134.3429,3.7225 129.7714,3.5135 125.5185,3.525 121.5322,3.5629 117.6434,3.684 113.5562,4.1565 109.2795,4.5788 104.8858,4.7717 99.9632,5.1765 95.3213,5.4198 91.2774,5.3982 87.1844,5.3768 82.9143,5.3547 78.4472,5.3311 74.1306,5.3084 69.9158,5.2795 65.2074,5.2357 60.4755,5.1877 55.6576,5.1439 50.9388,5.0932 46.5884,4.9927 41.8145,4.6886 37.1332,4.218 32.922,3.9551 28.7919,3.8672 24.4164,3.591 19.7976,3.1383 14.9077,2.85 9.7285,2.685 5.3405,2.4388 1.671,2.0947 -0.2359,1.8805 A1.8952,1.8952 0 0 1 0.2359,-1.8805 Z" stroke-linecap="round" fill="#4dabf7"/></g></g><g transform="matrix(1, 0, 0, 1, 1522.5124, 6248.1168) scale(1.005873239655112, 1.005873239655112)" opacity="1"><g transform="scale(0.9941610538748145)"><path d="M1.1836,-1.1836 T1.9023,-0.5038 4.6499,0.5558 9.2583,0.6305 11.8378,0.3257 A1.7003,1.7003 0 0 1 12.3022,3.6943 T10.8223,3.94 6.9685,4.2814 2.4153,3.5289 -0.4739,1.9322 -1.1836,1.1836 A1.6739,1.6739 0 0 1 1.1836,-1.1836 Z" stroke-linecap="round" fill="#e599f7"/></g></g><g transform="matrix(1, 0, 0, 1, 1546.6534, 6234.0346) scale(1.005873239655112, 1.005873239655112)" opacity="1"><g transform="scale(0.9941610538748145)"><path d="M0.2717,-2.2148 T1.7029,-2.678 5.7461,-3.342 10.3108,-3.1647 14.3174,-1.0347 16.9668,3.1691 16.3764,7.8648 13.7425,11.4551 10.6407,14.1696 6.9518,16.7434 4.9167,17.9492 A2.2937,2.2937 0 0 1 2.2038,14.25 T4.824,12.5368 8.9353,9.344 11.6211,6.5784 12.2993,3.9196 9.7992,1.802 6.203,1.1484 3.1693,1.7273 1.7483,2.2148 A2.3346,2.3346 0 0 1 0.2717,-2.2148 ZM4.5348,14.0233 T5.1487,14.2857 7.2385,14.8856 10.2276,15.2692 13.942,15.7733 17.3005,16.4266 18.4577,16.6218 A2.5124,2.5124 0 0 1 17.7623,21.5982 T15.402,21.3274 10.9387,20.6825 6.636,19.7024 3.5111,18.6361 2.5856,18.1759 A2.2937,2.2937 0 0 1 4.5348,14.0233 Z" stroke-linecap="round" fill="#e599f7"/></g></g><g transform="matrix(1, 0, 0, 1, 1589.9059, 6240.0699) scale(1.005873239655112, 1.005873239655112)" opacity="1"><g transform="scale(0.9941610538748145)"><path d="M1.529,1.529 T0.6027,2.5041 -2.0306,5.0052 -6.0949,8.1709 -9.9817,10.7617 -13.1927,12.7783 -14.8741,13.8439 A2.1506,2.1506 0 0 1 -17.3059,10.2961 T-15.7054,9.1123 -12.6888,6.8604 -8.8794,4.2695 -4.9827,1.5351 -2.5041,-0.6027 -1.529,-1.529 A2.1624,2.1624 0 0 1 1.529,1.529 Z" stroke-linecap="round" fill="#e599f7"/></g></g><g transform="matrix(1, 0, 0, 1, 1578.8413, 6240.0699) scale(1.005873239655112, 1.005873239655112)" opacity="1"><g transform="scale(0.9941610538748145)"><path d="M1.9585,-0.7826 T2.4611,0.3947 3.8512,2.8719 6.1021,5.5145 8.7249,8.2742 10.823,10.6313 11.6617,11.5713 A2.2003,2.2003 0 0 1 8.4583,14.5887 T7.57,13.6953 5.2542,11.2639 2.4623,8.2733 0.0179,5.0036 -1.5104,1.9845 -1.9585,0.7826 A2.1091,2.1091 0 0 1 1.9585,-0.7826 Z" stroke-linecap="round" fill="#e599f7"/></g></g><g transform="matrix(1, 0, 0, 1, 1601.9764, 6244.0933) scale(1.005873239655112, 1.005873239655112)" opacity="1"><g transform="scale(0.9941610538748145)"><path d="M0.7996,-1.4668 T2.4669,-1.6891 5.9914,-2.1628 7.8486,-2.4142 A1.4185,1.4185 0 0 1 8.2514,0.3942 T6.3985,0.6751 2.883,1.2114 1.2204,1.4668 A1.4818,1.4818 0 0 1 0.7996,-1.4668 Z" stroke-linecap="round" fill="#e599f7"/></g></g><g transform="matrix(1, 0, 0, 1, 1628.1291, 6230.0111) scale(1.005873239655112, 1.005873239655112)" opacity="1"><g transform="scale(0.9941610538748145)"><path d="M1.444,-2.1615 T2.6366,-1.9157 5.7457,-0.7379 8.9277,1.4653 10.927,4.0399 11.137,7.24 8.1417,10.5106 5.6702,11.8847 A2.2463,2.2463 0 0 1 4.2778,7.6133 T5.307,6.1602 4.6427,3.6662 1.7626,2.3935 0.576,2.1615 A2.2046,2.2046 0 0 1 1.444,-2.1615 ZM7.1848,9.351 T7.1976,9.4246 7.2105,9.4982 A2.2455,2.2455 0 0 1 2.7905,10.294 T2.7769,10.2205 2.7632,10.1471 A2.2463,2.2463 0 0 1 7.1848,9.351 ZM6.2578,8.0356 T7.2898,8.7434 9.6643,10.3538 12.224,12.3494 13.9552,15.7557 13.601,19.6681 10.672,22.4827 6.4711,23.9931 2.0472,24.3527 -2.4608,23.7136 -5.4476,22.4513 -6.2102,21.8933 A2.1301,2.1301 0 0 1 -3.8498,18.3467 T-2.0835,19.0472 1.8218,19.6901 6.0888,19.3879 9.2851,18.1342 9.3431,15.969 6.9566,13.8955 4.6619,12.3672 3.7431,11.7566 A2.2455,2.2455 0 0 1 6.2578,8.0356 Z" stroke-linecap="round" fill="#e599f7"/></g></g><g transform="matrix(1, 0, 0, 1, 1664.3405, 6242.0816) scale(1.005873239655112, 1.005873239655112)" opacity="1"><g transform="scale(0.9941610538748145)"><path d="M1.2892,1.6131 T0.101,2.566 -3.2249,5.1302 -7.4006,8.2922 -11.6038,11.2052 -14.8986,13.2244 -16.0285,13.8814 A2.1046,2.1046 0 0 1 -18.1715,10.2586 T-17.0516,9.5848 -14.05,7.7187 -10.0992,5.0044 -5.8506,1.8831 -2.4802,-0.6646 -1.2892,-1.6131 A2.065,2.065 0 0 1 1.2892,1.6131 Z" stroke-linecap="round" fill="#e599f7"/></g></g><g transform="matrix(1, 0, 0, 1, 1650.2583, 6244.0933) scale(1.005873239655112, 1.005873239655112)" opacity="1"><g transform="scale(0.9941610538748145)"><path d="M2.5348,-1.2186 T3.4978,-0.0389 5.8919,2.9928 8.5032,6.7877 10.2783,9.9548 10.8732,11.1791 A2.0293,2.0293 0 0 1 7.2268,12.9609 T6.6265,11.7393 4.9957,8.8105 2.6637,5.3604 0.4236,2.4181 -0.5148,1.2186 A1.9519,1.9519 0 0 1 2.5348,-1.2186 Z" stroke-linecap="round" fill="#e599f7"/></g></g><g transform="matrix(1, 0, 0, 1, 1592.9235, 6222.97) scale(1.005873239655112, 1.005873239655112)" opacity="1"><g transform="scale(0.9941610538748145)"><path d="M1.427,-2.4899 T2.9401,-2.1907 5.8726,-0.839 7.292,0.2134 A2.45,2.45 0 0 1 4.0769,3.911 T3.674,3.3789 1.932,2.6684 0.593,2.4899 A2.5245,2.5245 0 0 1 1.427,-2.4899 ZM7.3016,3.9026 T6.1101,4.9095 3.498,6.7626 2.1325,8.1253 2.1874,8.6419 A2.4056,2.4056 0 0 1 -2.4115,7.2286 T-1.7414,5.7436 0.5366,3.1251 3.1059,1.1066 4.0672,0.2218 A2.45,2.45 0 0 1 7.3016,3.9026 ZM0.6946,5.6689 T1.435,5.915 4.2393,6.3172 7.7433,6.5823 9.1835,6.6913 A2.3624,2.3624 0 0 1 8.9165,11.4087 T7.4733,11.3545 3.2967,11.0321 -0.1777,10.4827 -0.9187,10.2016 A2.4056,2.4056 0 0 1 0.6946,5.6689 Z" stroke-linecap="round" fill="#e599f7"/></g></g><g transform="matrix(1, 0, 0, 1, 1854.4506, 6135.459) scale(1.005873239655112, 1.005873239655112)" opacity="1"><g transform="scale(0.9941610538748145)"><path d="M0.2624,-1.5689 T1.6892,-1.3207 4.7062,-0.7976 6.2963,-0.5228 A1.554,1.554 0 0 1 5.7837,2.5428 T4.1907,2.2853 1.1677,1.7984 -0.2624,1.5689 A1.5907,1.5907 0 0 1 0.2624,-1.5689 Z" stroke-linecap="round" fill="#e599f7"/></g></g><g transform="matrix(1, 0, 0, 1, 1852.4388, 6136.4649) scale(1.005873239655112, 1.005873239655112)" opacity="1"><g transform="scale(0.9941610538748145)"><path d="M0,-1.5193 T1.665,-1.5368 5.871,-1.572 9.736,-1.5914 11.06,-1.5931 A2.6031,2.6031 0 0 1 11.06,3.6131 T9.736,3.6114 5.871,3.592 1.665,3.5568 0,3.5393 A2.5293,2.5293 0 0 1 0,-1.5193 ZM11.06,3.6131 T10.2169,3.6127 7.1765,3.6051 2.5555,3.5866 0.1319,3.5752 A2.5652,2.5652 0 0 1 0.1319,-1.5552 T2.5555,-1.5666 7.1765,-1.5851 10.2169,-1.5927 11.06,-1.5931 A2.6031,2.6031 0 0 1 11.06,3.6131 ZM-0.7251,-1.4078 T0.5367,-1.8426 4.5397,-2.7936 9.5792,-3.4897 11.8775,-3.6696 A2.6666,2.6666 0 0 1 12.2625,1.6496 T11.0914,1.7288 8.142,1.9305 4.4724,2.4457 1.7851,3.1331 0.989,3.4278 A2.5652,2.5652 0 0 1 -0.7251,-1.4078 Z" stroke-linecap="round" fill="#e599f7"/></g></g><g transform="matrix(1, 0, 0, 1, 1881.6092, 6122.3827) scale(1.005873239655112, 1.005873239655112)" opacity="1"><g transform="scale(0.9941610538748145)"><path d="M1.2223,-2.3244 T3.8397,-2.0907 8.227,-1.4794 12.3399,0.4431 15.1859,5.0425 14.61,10.6424 12.1191,15.2872 9.106,19.0423 5.886,22.2116 3.091,24.6815 1.9149,25.6379 A2.4721,2.4721 0 0 1 -1.8692,22.4558 T-1.099,21.6519 1.1006,19.9019 3.9571,17.254 6.7778,14.0996 9.257,10.9213 10.7296,7.5466 10.0359,4.702 7.4904,3.1596 3.4117,2.5684 0.7977,2.3244 A2.334,2.334 0 0 1 1.2223,-2.3244 ZM0.0997,21.576 T0.8091,21.5766 3.6237,21.525 8.0069,21.4212 13.1353,21.6 18.6868,22.0612 21.388,22.2917 A2.8709,2.8709 0 0 1 20.852,28.0083 T19.3539,27.8605 16.3674,27.5577 12.5782,27.1529 7.9877,26.8414 3.5301,26.6922 0.6542,26.5612 -0.0539,26.5178 A2.4721,2.4721 0 0 1 0.0997,21.576 Z" stroke-linecap="round" fill="#e599f7"/></g></g><g transform="matrix(1, 0, 0, 1, 1520.5007, 6292.3753) scale(1.005873239655112, 1.005873239655112)" opacity="1"><g transform="scale(0.9941610538748145)"><path d="M1.01,-2.0479 T2.9115,-2.0136 6.9315,-1.9494 9.05,-1.9197 A1.9197,1.9197 0 0 1 9.05,1.9197 T6.9315,1.9494 2.9115,2.0136 1.01,2.0479 A2.0479,2.0479 0 0 1 1.01,-2.0479 Z" stroke-linecap="round" fill="#e599f7"/></g></g><g transform="matrix(1, 0, 0, 1, 1546.6534, 6280.3048) scale(1.005873239655112, 1.005873239655112)" opacity="1"><g transform="scale(0.9941610538748145)"><path d="M1.01,-2.2933 T2.675,-2.2952 5.9292,-2.3072 10.247,-1.1991 13.4614,1.317 13.3926,4.7511 11.5153,8.5427 9.1631,11.5137 6.8377,13.6606 5.2501,14.9989 4.9583,15.406 A2.3911,2.3911 0 0 1 1.4255,12.183 T2.1944,11.4274 4.3495,9.3796 6.8081,7.1366 7.6996,4.2517 5.9292,2.3072 2.675,2.2952 1.01,2.2933 A2.2933,2.2933 0 0 1 1.01,-2.2933 ZM4.9366,12.1596 T5.3854,12.6996 7.4106,13.705 11.2542,14.7379 14.964,15.5798 16.4065,15.8542 A2.2779,2.2779 0 0 1 15.7735,20.3658 T14.3112,20.2326 10.2631,19.6069 5.6671,18.3899 2.5519,16.5474 1.4471,15.4294 A2.3911,2.3911 0 0 1 4.9366,12.1596 Z" stroke-linecap="round" fill="#e599f7"/></g></g><g transform="matrix(1, 0, 0, 1, 1583.8707, 6287.3459) scale(1.005873239655112, 1.005873239655112)" opacity="1"><g transform="scale(0.9941610538748145)"><path d="M1.6851,1.0118 T0.9844,2.2097 -1.2124,5.3596 -4.2863,8.8972 -7.8775,11.9738 -10.9307,14.1233 -11.9706,14.7817 A2.0314,2.0314 0 0 1 -14.1894,11.3783 T-13.1675,10.6925 -10.6099,8.9084 -7.4387,6.2233 -4.4718,2.9936 -2.4128,0.1695 -1.6851,-1.0118 A1.9655,1.9655 0 0 1 1.6851,1.0118 Z" stroke-linecap="round" fill="#e599f7"/></g></g><g transform="matrix(1, 0, 0, 1, 1571.8002, 6288.3518) scale(1.005873239655112, 1.005873239655112)" opacity="1"><g transform="scale(0.9941610538748145)"><path d="M1.1274,-1.5007 T2.0915,-0.8042 4.6333,1.4567 7.2634,4.7657 9.1295,8.6137 10.4004,12.0611 10.8578,13.405 A1.9297,1.9297 0 0 1 7.2422,14.755 T6.2417,12.3149 4.154,7.6826 1.907,4.2275 -0.1901,2.2327 -1.1274,1.5007 A1.877,1.877 0 0 1 1.1274,-1.5007 Z" stroke-linecap="round" fill="#e599f7"/></g></g><g transform="matrix(1, 0, 0, 1, 1594.9353, 6291.3694) scale(1.005873239655112, 1.005873239655112)" opacity="1"><g transform="scale(0.9941610538748145)"><path d="M0.7074,-1.4147 T2.1583,-0.7544 5.8666,0.3572 9.7261,0.4183 12.4584,-0.2859 13.5885,-0.6 A1.6834,1.6834 0 0 1 14.5715,2.62 T12.3186,3.3578 7.7035,4.0044 3.723,3.4321 0.6986,2.1828 -0.7074,1.4147 A1.5817,1.5817 0 0 1 0.7074,-1.4147 Z" stroke-linecap="round" fill="#e599f7"/></g></g><g transform="matrix(1, 0, 0, 1, 1622.0939, 6274.2695) scale(1.005873239655112, 1.005873239655112)" opacity="1"><g transform="scale(0.9941610538748145)"><path d="M2.0234,1.0117 T1.5421,1.9594 0.007,4.7457 -1.5691,8.0334 -2.7138,11.3713 -2.2319,14.6857 0.3245,16.4864 2.9355,16.9582 4.094,17.0551 A2.0563,2.0563 0 0 1 3.946,21.1649 T2.7835,21.1782 0.1583,21.105 -2.6215,20.3561 -5.3379,18.156 -7.2274,14.5012 -7.0047,10.1783 -5.541,6.0578 -3.8761,2.5194 -2.4928,-0.058 -2.0234,-1.0117 A2.2622,2.2622 0 0 1 2.0234,1.0117 Z" stroke-linecap="round" fill="#e599f7"/></g></g><g transform="matrix(1, 0, 0, 1, 1632.1526, 6275.2754) scale(1.005873239655112, 1.005873239655112)" opacity="1"><g transform="scale(0.9941610538748145)"><path d="M3.3174,0.331 T3.0642,1.995 2.4193,5.1465 1.5209,9.1502 0.3963,13.7175 -0.5606,17.1714 -1.4197,20.9685 -2.186,25.0132 -2.4322,26.6635 A2.4058,2.4058 0 0 1 -7.211,26.1031 T-6.9153,24.0304 -6.095,19.6814 -4.9463,15.0377 -3.5962,10.3558 -2.3083,5.521 -1.5219,1.335 -1.2974,-0.331 A2.331,2.331 0 0 1 3.3174,0.331 ZM-5.4939,24.0734 T-5.0845,23.9864 -4.675,23.8994 A2.3439,2.3439 0 0 1 -3.365,28.4006 T-3.7572,28.5469 -4.1493,28.6932 A2.4058,2.4058 0 0 1 -5.4939,24.0734 Z" stroke-linecap="round" fill="#e599f7"/></g></g><g transform="matrix(1, 0, 0, 1, 1581.8589, 6265.2167) scale(1.005873239655112, 1.005873239655112)" opacity="1"><g transform="scale(0.9941610538748145)"><path d="M-0.3223,-2.2467 T1.347,-2.4558 5.805,-2.5219 9.6406,-1.3875 10.5789,1.6972 8.7337,5.3433 6.9973,6.896 A2.1566,2.1566 0 0 1 4.3576,3.4848 T5.8211,2.5473 5.4641,1.6597 1.983,1.9781 0.3223,2.2467 A2.2697,2.2697 0 0 1 -0.3223,-2.2467 ZM6.5631,3.224 T7.7188,3.7223 10.8505,4.4762 14.0452,4.8823 15.2639,5.0328 A2.0148,2.0148 0 0 1 14.9161,9.0472 T13.6896,8.9858 9.8844,8.6289 6.0487,7.7451 4.7918,7.1568 A2.1566,2.1566 0 0 1 6.5631,3.224 Z" stroke-linecap="round" fill="#e599f7"/></g></g><g transform="matrix(1, 0, 0, 1, 1655.2877, 6289.3576) scale(1.005873239655112, 1.005873239655112)" opacity="1"><g transform="scale(0.9941610538748145)"><path d="M2.577,1.305 T1.4177,2.7608 -0.932,5.339 -4.2716,8.3134 -8.8339,11.4271 -12.8002,13.2523 -14.3534,13.8158 A1.8948,1.8948 0 0 1 -15.8266,10.3242 T-13.2735,9.1044 -8.968,6.5479 -5.1062,3.3543 -1.7769,0.0961 -0.557,-1.305 A2.0392,2.0392 0 0 1 2.577,1.305 Z" stroke-linecap="round" fill="#e599f7"/></g></g><g transform="matrix(1, 0, 0, 1, 1640.1996, 6291.3694) scale(1.005873239655112, 1.005873239655112)" opacity="1"><g transform="scale(0.9941610538748145)"><path d="M1.3626,-1.3626 T2.3122,-0.4061 4.7053,2.1015 8.0095,4.8248 11.6979,7.1078 15.4428,9.9122 17.3599,11.6058 A1.9458,1.9458 0 0 1 14.8201,14.5542 T13.0218,13.0473 9.5138,10.4787 5.6877,7.994 2.0562,4.9118 -0.4107,2.3076 -1.3626,1.3626 A1.927,1.927 0 0 1 1.3626,-1.3626 Z" stroke-linecap="round" fill="#e599f7"/></g></g><g transform="matrix(1, 0, 0, 1, 1666.3523, 6292.3753) scale(1.005873239655112, 1.005873239655112)" opacity="1"><g transform="scale(0.9941610538748145)"><path d="M1.2314,-1.984 T3.3736,-1.7616 7.0826,-1.374 10.4328,-1.0301 12.2161,-0.8513 A1.8671,1.8671 0 0 1 11.9239,2.8713 T10.1345,2.7696 6.7053,2.5812 2.9271,2.2393 0.7886,1.984 A1.9964,1.9964 0 0 1 1.2314,-1.984 Z" stroke-linecap="round" fill="#e599f7"/></g></g><g transform="matrix(1, 0, 0, 1, 1702.5637, 6270.2461) scale(1.005873239655112, 1.005873239655112)" opacity="1"><g transform="scale(0.9941610538748145)"><path d="M1.7132,0.6846 T1.2283,1.8704 -0.5807,5.3938 -3.3594,9.8352 -6.1658,14.5152 -8.0677,19.6654 -8.538,24.291 -7.8213,27.7654 -5.1555,29.8742 -1.3413,30.0416 0.621,27.7866 -0.7083,25.2616 -4.0777,25.3485 -7.0059,26.8975 -8.0711,27.5708 A1.7254,1.7254 0 0 1 -10.0289,24.7292 T-9.0202,23.9737 -5.895,22.0485 -1.5557,20.9198 2.54,22.5786 4.5639,26.2957 3.9212,30.5255 1.5595,33.6267 -2.0264,34.6328 -5.4839,34.2938 -8.834,32.5186 -11.5887,29.0466 -12.4578,24.3016 -12.2045,20.051 -11.4293,16.9703 -9.3155,12.567 -6.2931,7.6646 -3.7661,3.6817 -2.179,0.5088 -1.7132,-0.6846 A1.845,1.845 0 0 1 1.7132,0.6846 Z" stroke-linecap="round" fill="#e599f7"/></g></g><g transform="matrix(1, 0, 0, 1, 1514.4654, 6273.2637) scale(1.005873239655112, 1.005873239655112)" opacity="1"><g transform="scale(0.9941610538748145)"><path d="M1.4931,1.3058 T-0.1703,3.211 -2.9584,6.367 -5.4716,9.6873 -7.6425,13.5832 -9.0025,17.6811 -8.7427,23.1348 -7.0644,28.9517 -6.2235,31.5865 A1.9236,1.9236 0 0 1 -9.8765,32.7935 T-10.7709,30.1764 -12.5267,24.9963 -13.2505,19.5687 -12.3052,14.245 -10.1609,9.5765 -7.9331,6.1619 -5.934,3.7279 -3.1596,0.5967 -1.4931,-1.3058 A1.9836,1.9836 0 0 1 1.4931,1.3058 Z" stroke-linecap="round" fill="#e599f7"/></g></g><g transform="matrix(1, 0, 0, 1, 1711.6166, 6266.2226) scale(1.005873239655112, 1.005873239655112)" opacity="1"><g transform="scale(0.9941610538748145)"><path d="M1.6455,-1.0282 T2.8244,0.8845 4.6979,4.4081 6.5274,8.6705 8.005,12.9226 8.5262,16.0825 8.8091,19.4264 8.7293,23.0115 7.6866,27.1199 6.1891,31.2054 4.9582,34.4472 3.5015,37.3164 1.385,40.7158 -1.0232,44.0675 -3.2144,46.937 -4.2489,48.4493 A2.139,2.139 0 0 1 -7.8311,46.1107 T-7.2781,45.2166 -5.6475,42.8302 -3.5419,39.9747 -1.1169,36.4066 0.8667,32.8268 2.1533,29.6458 3.6288,26.0585 4.6105,22.8327 4.7639,19.717 4.369,15.3871 2.9501,10.1197 1.3143,6.1646 -0.4452,2.9231 -1.6455,1.0282 A1.9403,1.9403 0 0 1 1.6455,-1.0282 Z" stroke-linecap="round" fill="#e599f7"/></g></g><g transform="matrix(1, 0, 0, 1, 1472.2188, 6291.3694) scale(1.005873239655112, 1.005873239655112)" opacity="1"><g transform="scale(0.9941610538748145)"><path d="M0.3406,-1.6965 T1.5366,-1.4905 4.7666,-1.1202 9.2929,-1.3657 11.7851,-1.7755 A1.7982,1.7982 0 0 1 12.3549,1.7755 T10.9398,2.0084 8.0584,2.4608 4.3089,2.4601 0.8426,1.9682 -0.3406,1.6965 A1.7303,1.7303 0 0 1 0.3406,-1.6965 Z" stroke-linecap="round" fill="#e599f7"/></g></g><g transform="matrix(1, 0, 0, 1, 1472.2188, 6314.5045) scale(1.005873239655112, 1.005873239655112)" opacity="1"><g transform="scale(0.9941610538748145)"><path d="M0.1889,-1.6923 T2.3269,-1.4335 6.0408,-1.0465 9.1462,-0.8529 13.1123,-0.7448 17.6755,-0.7056 21.5414,-0.7266 26.1219,-0.7739 30.4404,-0.8168 33.4083,-0.8412 36.3985,-0.8644 39.4027,-0.8894 42.4145,-0.9129 45.4277,-0.935 49.5872,-0.9645 53.6831,-0.9912 56.6001,-1.01 59.5657,-1.0257 62.5515,-1.0385 66.6013,-1.4191 70.6444,-1.8685 74.524,-2.009 79.0391,-2.099 83.4432,-2.1375 87.9351,-2.1578 92.5765,-2.1725 97.7351,-2.1858 102.8009,-2.1972 107.6098,-2.2108 112.3455,-1.856 116.5605,-1.4112 121.1038,-1.3132 125.1303,-1.2971 128.0341,-1.2983 132.125,-1.3032 137.0537,-1.3116 141.819,-1.3187 146.6496,-1.3247 151.4983,-1.3333 156.4779,-1.3458 161.4916,-1.3634 166.2782,-1.3759 170.6464,-1.3795 175.1187,-1.0158 179.6278,-0.561 184.0314,-0.4512 188.5209,-0.4315 193.4022,-0.4424 198.3892,-0.4611 202.8062,-0.4777 207.1765,-0.4986 211.8974,-0.5258 216.4829,-0.5517 220.9384,-0.1944 225.1899,0.0395 229.4792,-0.2763 233.9532,-0.729 238.7141,-1.2456 243.657,-1.5577 247.9092,-2.0746 249.8611,-2.5253 A2.5953,2.5953 0 0 1 251.0589,2.5253 T248.569,3.128 243.8594,3.7771 239.3682,3.9838 234.6024,4.4373 230.0302,4.8768 225.3006,5.1643 220.6225,4.9439 216.4708,4.5717 211.8974,4.5457 207.1764,4.5184 202.8056,4.4971 198.3874,4.479 193.3948,4.4548 188.4964,4.4241 183.9354,4.3727 179.3129,4.2261 174.8673,3.7581 170.6323,3.3995 166.2782,3.3959 161.4916,3.3834 156.4779,3.3658 151.4983,3.3533 146.6494,3.3445 141.8184,3.3381 137.052,3.3295 132.1195,3.3155 128.0218,3.3009 125.1059,3.284 121.0099,3.2337 116.2162,3.0728 112.0678,2.5855 107.5988,2.2108 102.8009,2.1973 97.7354,2.1861 92.5775,2.1737 87.9383,2.1619 83.4562,2.1521 79.0842,2.1515 74.6549,2.1979 69.6466,2.4018 65.5139,2.8146 62.558,3.0585 59.5657,3.0457 56.6001,3.03 53.6831,3.0112 49.5872,2.9845 45.4277,2.9549 42.4143,2.9327 39.4025,2.9091 36.3981,2.8837 33.4076,2.8598 30.439,2.8342 26.1182,2.7862 21.5304,2.7292 17.6406,2.6731 13.0156,2.576 8.9467,2.4445 5.7271,2.2537 1.9537,1.9112 -0.1889,1.6923 A1.7028,1.7028 0 0 1 0.1889,-1.6923 Z" stroke-linecap="round" fill="#e599f7"/></g></g><g transform="matrix(1, 0, 0, 1, 1613.041, 6339.6513) scale(1.005873239655112, 1.005873239655112)" opacity="1"><g transform="scale(0.9941610538748145)"><path d="M1.5468,2.5568 T0.3617,3.7508 -2.3906,6.533 -5.263,9.4296 -7.7315,11.9052 -10.7419,15.0237 -14.9543,17.9276 -17.3195,18.8804 A1.948,1.948 0 0 1 -18.9005,15.3196 T-17.8534,14.7801 -15.3724,13.2615 -13.0028,11.0911 -10.8974,8.739 -8.4196,6.273 -5.523,3.4006 -2.7408,0.6483 -1.5468,-0.5368 A2.1875,2.1875 0 0 1 1.5468,2.5568 Z" stroke-linecap="round" fill="#40c057"/></g></g><g transform="matrix(1, 0, 0, 1, 1599.9647, 6338.6454) scale(1.005873239655112, 1.005873239655112)" opacity="1"><g transform="scale(0.9941610538748145)"><path d="M2.3223,-0.4663 T2.5548,0.7236 3.524,3.8543 5.1271,7.117 6.7617,9.7357 8.978,12.8475 12.1237,16.5905 13.8216,18.5187 A2.3733,2.3733 0 0 1 10.3184,21.7213 T9.3642,20.7134 6.7819,17.8703 3.5241,13.5139 0.8788,9.2951 -0.9841,5.2212 -2.077,1.6556 -2.3223,0.4663 A2.3687,2.3687 0 0 1 2.3223,-0.4663 Z" stroke-linecap="round" fill="#40c057"/></g></g><g transform="matrix(1, 0, 0, 1, 1634.1643, 6336.6337) scale(1.005873239655112, 1.005873239655112)" opacity="1"><g transform="scale(0.9941610538748145)"><path d="M2.7965,0 T2.8272,1.665 2.8948,5.871 2.6731,10.6054 2.1179,15.5372 1.8212,18.2756 A1.8287,1.8287 0 0 1 -1.8212,17.9444 T-1.7124,16.3992 -1.4769,13.2842 -1.1309,10.0633 -0.8748,5.871 -0.8072,1.665 -0.7765,0 A1.7865,1.7865 0 0 1 2.7965,0 Z" stroke-linecap="round" fill="#40c057"/></g></g><g transform="matrix(1, 0, 0, 1, 1641.2055, 6345.6865) scale(1.005873239655112, 1.005873239655112)" opacity="1"><g transform="scale(0.9941610538748145)"><path d="M-1.01,1.4698 T-2.4361,1.5126 -5.328,1.5944 -8.2805,1.6547 -11.6172,0.8379 -13.5584,-0.9017 -13.6497,-1.8034 A1.5932,1.5932 0 0 1 -10.4903,-2.2166 T-10.3187,-1.1083 -9.9571,-0.8379 -8.2805,-1.6547 -5.328,-1.5944 -2.4361,-1.5126 -1.01,-1.4698 A1.4698,1.4698 0 0 1 -1.01,1.4698 Z" stroke-linecap="round" fill="#40c057"/></g></g><g transform="matrix(1, 0, 0, 1, 1661.3229, 6333.6161) scale(1.005873239655112, 1.005873239655112)" opacity="1"><g transform="scale(0.9941610538748145)"><path d="M2.7954,1.2486 T1.8972,2.5157 0.02,5.4198 -2.3752,9.059 -4.8092,13.1413 -6.5488,17.5942 -6.5447,21.4816 -4.1158,23.2863 -0.9511,23.4015 0.6178,21.301 -0.8126,18.9645 -4.0259,18.819 -5.7015,19.0843 A2.013,2.013 0 0 1 -6.3785,15.1157 T-5.3301,14.8983 -1.9056,14.6597 2.4868,16.0271 4.7909,19.1303 4.8009,22.6255 2.9864,26.0778 -0.7656,27.893 -5.5808,27.4328 -9.4147,25.9005 -11.2965,22.937 -11.4562,18.5935 -10.4199,14.873 -8.6645,11.0778 -6.0895,6.7992 -3.5306,2.9632 -1.5574,-0.1132 -0.7754,-1.2486 A2.1787,2.1787 0 0 1 2.7954,1.2486 Z" stroke-linecap="round" fill="#40c057"/></g></g><g transform="matrix(1, 0, 0, 1, 1926.8735, 6123.3886) scale(1.005873239655112, 1.005873239655112)" opacity="1"><g transform="scale(0.9941610538748145)"><path d="M2.0741,-0.3468 T2.3309,1.0788 2.8153,4.967 3.108,9.4551 3.1638,13.7757 3.1545,16.0708 A2.1445,2.1445 0 0 1 -1.1345,16.1092 T-1.1848,13.8303 -1.2769,9.6193 -1.4754,5.4484 -1.8532,1.7782 -2.0741,0.3468 A2.1029,2.1029 0 0 1 2.0741,-0.3468 Z" stroke-linecap="round" fill="#40c057"/></g></g><g transform="matrix(1, 0, 0, 1, 1931.9028, 6129.4238) scale(1.005873239655112, 1.005873239655112)" opacity="1"><g transform="scale(0.9941610538748145)"><path d="M0.6537,1.6358 T-0.5198,2.1609 -3.1977,3.0327 -6.2121,3.4973 -9.3049,3.7377 -10.8878,3.8602 A1.8582,1.8582 0 0 1 -11.2322,0.1598 T-9.6539,-0.0119 -5.5704,-0.4841 -1.8594,-1.2102 -0.6537,-1.6358 A1.7616,1.7616 0 0 1 0.6537,1.6358 Z" stroke-linecap="round" fill="#40c057"/></g></g><g transform="matrix(1, 0, 0, 1, 1976.1612, 6093.2124) scale(1.005873239655112, 1.005873239655112)" opacity="1"><g transform="scale(0.9941610538748145)"><path d="M2.4993,1.493 T1.5489,2.4465 -1.2738,5.5376 -4.1672,8.8456 -6.1986,11.1149 -8.4068,13.6722 -11.133,16.4478 -14.2384,19.128 -15.8151,20.491 A1.8863,1.8863 0 0 1 -18.3849,17.729 T-16.9119,16.2545 -14.2302,13.5507 -11.7356,10.7511 -9.4583,8.1415 -7.493,6.0278 -4.455,2.6782 -1.4351,-0.545 -0.4793,-1.493 A2.1088,2.1088 0 0 1 2.4993,1.493 Z" stroke-linecap="round" fill="#40c057"/></g></g><g transform="matrix(1, 0, 0, 1, 1962.079, 6095.2241) scale(1.005873239655112, 1.005873239655112)" opacity="1"><g transform="scale(0.9941610538748145)"><path d="M2.6396,-1.0846 T3.6127,0.3289 5.5856,3.1908 7.3792,5.9154 9.3871,9.0304 11.8287,12.683 13.8719,15.7487 14.6875,17.0006 A1.9531,1.9531 0 0 1 11.4725,19.2194 T9.8111,16.9558 7.0248,12.9969 4.5215,9.1175 2.1901,5.4524 0.3087,2.528 -0.6196,1.0846 A1.9575,1.9575 0 0 1 2.6396,-1.0846 Z" stroke-linecap="round" fill="#40c057"/></g></g><g transform="matrix(1, 0, 0, 1, 1991.2493, 6093.2124) scale(1.005873239655112, 1.005873239655112)" opacity="1"><g transform="scale(0.9941610538748145)"><path d="M1.4351,-0.1311 T1.7244,2.48 2.1213,7.2089 2.3525,11.6592 2.4761,13.9918 A1.4688,1.4688 0 0 1 -0.4561,14.1682 T-0.613,11.8376 -0.9141,7.4393 -1.2467,2.7513 -1.4351,0.1311 A1.4411,1.4411 0 0 1 1.4351,-0.1311 Z" stroke-linecap="round" fill="#40c057"/></g></g><g transform="matrix(1, 0, 0, 1, 1996.2787, 6100.2535) scale(1.005873239655112, 1.005873239655112)" opacity="1"><g transform="scale(0.9941610538748145)"><path d="M0,1.5927 T-1.6636,1.6494 -4.7949,1.9266 -8.0373,2.4052 -9.8119,2.6632 A1.6717,1.6717 0 0 1 -10.3081,-0.6432 T-8.5359,-0.9175 -5.0483,-1.4489 -1.6664,-1.6494 0,-1.5927 A1.5927,1.5927 0 0 1 0,1.5927 Z" stroke-linecap="round" fill="#40c057"/></g></g><g transform="matrix(1, 0, 0, 1, 2016.3962, 6082.1478) scale(1.005873239655112, 1.005873239655112)" opacity="1"><g transform="scale(0.9941610538748145)"><path d="M1.9156,0.8218 T1.1992,2.4858 -0.614,6.4948 -2.4964,10.7262 -3.6508,14.1895 -4.4877,17.4298 -5.1651,20.5369 -5.1833,23.5863 -3.0937,25.883 0.3806,25.9139 2.3325,23.3719 0.7218,21.6293 -3.7559,22.826 -6.2465,23.8836 A1.9248,1.9248 0 0 1 -7.8335,20.3764 T-6.6336,19.7915 -3.6975,18.2079 -0.614,16.6298 3.0909,16.9404 6.183,19.8994 6.5758,23.9012 4.7425,27.9177 0.6546,30.4347 -3.3535,30.5844 -6.8343,28.657 -9.3972,25.5983 -9.7633,22.7505 -9.3555,19.6194 -8.6153,16.3327 -7.6688,12.8618 -6.3456,9.0114 -4.4242,4.7768 -2.6276,0.8441 -1.9156,-0.8218 A2.0845,2.0845 0 0 1 1.9156,0.8218 Z" stroke-linecap="round" fill="#40c057"/></g></g><g transform="matrix(1, 0, 0, 1, 1946.9909, 6127.4121) scale(1.005873239655112, 1.005873239655112)" opacity="1"><g transform="scale(0.9941610538748145)"><path d="M0.2004,-2.1942 T2.817,-1.9659 7.2649,-1.627 10.7522,-1.467 13.8251,-1.6312 16.8661,-1.9809 20.1451,-2.4329 23.6332,-3.1667 27.5298,-3.8448 32.6536,-4.7175 38.4171,-5.6901 43.5135,-6.2543 47.7129,-6.7959 51.6036,-7.3405 55.4935,-7.6592 60.4987,-8.0911 65.3142,-8.7736 68.6849,-9.3551 73.4285,-10.2808 78.8296,-11.1112 83.7542,-11.3884 86.2661,-11.5415 A2.5034,2.5034 0 0 1 86.7539,-6.5585 T84.2601,-6.2215 79.6864,-5.5687 74.3952,-4.4381 69.6921,-3.447 66.3555,-2.8815 61.0555,-2.1902 55.8953,-1.8191 52.3255,-1.6158 48.38,-1.1696 44.0285,-0.738 39.2178,-0.3617 33.4075,0.4501 28.3095,1.1594 24.5405,1.6792 20.7081,2.3208 17.3214,2.6747 14.0326,2.9478 10.5155,3.0587 6.9103,2.8342 2.4144,2.4437 -0.2004,2.1942 A2.2033,2.2033 0 0 1 0.2004,-2.1942 Z" stroke-linecap="round" fill="#40c057"/></g></g><g transform="matrix(1, 0, 0, 1, 1961.0732, 6151.553) scale(1.005873239655112, 1.005873239655112)" opacity="1"><g transform="scale(0.9941610538748145)"><path d="M2.4405,0.8589 T1.7487,2.0685 -0.4875,5.167 -2.8433,8.2641 -5.03,10.5134 -7.7165,12.4957 -9.0277,13.437 A1.713,1.713 0 0 1 -11.0923,10.703 T-8.8919,8.995 -5.8272,6.0896 -3.4284,3.1862 -1.1572,0.3107 -0.4205,-0.8589 A1.6686,1.6686 0 0 1 2.4405,0.8589 Z" stroke-linecap="round" fill="#40c057"/></g></g><g transform="matrix(1, 0, 0, 1, 1952.0203, 6148.5354) scale(1.005873239655112, 1.005873239655112)" opacity="1"><g transform="scale(0.9941610538748145)"><path d="M2.0743,0.5935 T2.3148,1.7785 3.2875,4.5166 5.0741,7.4008 7.1965,10.0104 9.7539,12.2693 11.2433,13.2495 A2.188,2.188 0 0 1 8.8767,16.9305 T7.0995,15.8105 4.0286,13.1337 1.4198,9.7305 -0.7476,5.8494 -1.8371,2.6207 -2.0743,1.4265 A2.1157,2.1157 0 0 1 2.0743,0.5935 Z" stroke-linecap="round" fill="#40c057"/></g></g><g transform="matrix(1, 0, 0, 1, 1963.0849, 6136.4649) scale(1.005873239655112, 1.005873239655112)" opacity="1"><g transform="scale(0.9941610538748145)"><path d="M0.4259,-2.3365 T2.3312,-2.7975 5.8127,-3.5278 9.0454,-3.6666 11.9022,-2.7875 13.1025,-2.0386 A2.3892,2.3892 0 0 1 10.1068,1.6841 T9.9829,1.3674 7.6242,1.2039 3.4917,1.8468 1.5941,2.3365 A2.4084,2.4084 0 0 1 0.4259,-2.3365 ZM13.8066,0.75 T13.2887,1.9214 11.3707,4.433 9.5906,6.3209 9.2105,6.8687 A2.361,2.361 0 0 1 5.5342,3.9054 T7.12,2.2865 9.0543,-0.2184 9.4027,-1.1044 A2.3892,2.3892 0 0 1 13.8066,0.75 ZM9.2104,3.9053 T9.3671,4.2223 11.0504,4.5312 14.8692,4.6637 17.1614,4.8044 A2.2365,2.2365 0 0 1 17.0386,9.2756 T14.6919,9.2888 9.7455,8.9622 6.34,7.7456 5.5343,6.8688 A2.361,2.361 0 0 1 9.2104,3.9053 Z" stroke-linecap="round" fill="#40c057"/></g></g><g transform="matrix(1, 0, 0, 1, 1988.2317, 6145.5178) scale(1.005873239655112, 1.005873239655112)" opacity="1"><g transform="scale(0.9941610538748145)"><path d="M1.6542,-0.5505 T2.157,0.869 2.8766,4.6557 3.0064,9.3177 2.8696,12.8696 2.8199,14.1265 A1.8105,1.8105 0 0 1 -0.7999,14.0335 T-0.7849,12.7756 -0.689,9.0764 -0.6831,5.0302 -1.2062,1.9879 -1.6542,0.5505 A1.7434,1.7434 0 0 1 1.6542,-0.5505 Z" stroke-linecap="round" fill="#40c057"/></g></g><g transform="matrix(1, 0, 0, 1, 1993.2611, 6152.5589) scale(1.005873239655112, 1.005873239655112)" opacity="1"><g transform="scale(0.9941610538748145)"><path d="M-0.7897,1.9742 T-2.9367,2.1535 -7.4736,2.551 -9.8637,2.7692 A1.7701,1.7701 0 0 1 -10.2563,-0.7492 T-7.877,-1.0632 -3.364,-1.6757 -1.2303,-1.9742 A1.9864,1.9864 0 0 1 -0.7897,1.9742 Z" stroke-linecap="round" fill="#40c057"/></g></g><g transform="matrix(1, 0, 0, 1, 1997.2846, 6142.5002) scale(1.005873239655112, 1.005873239655112)" opacity="1"><g transform="scale(0.9941610538748145)"><path d="M-0.3803,-2.2746 T1.0521,-2.4902 4.6992,-2.8963 9.3719,-2.8568 13.2026,-1.5631 15.6667,1.9311 16.3122,6.8241 14.5528,10.9595 11.622,14.0854 8.1508,16.7147 6.297,17.8909 A2.3321,2.3321 0 0 1 3.3147,14.3049 T5.7831,12.562 9.5252,9.4078 11.5353,6.7261 11.383,3.5501 8.8708,1.5034 5.2384,1.5564 1.8048,2.0125 0.3803,2.2746 A2.3061,2.3061 0 0 1 -0.3803,-2.2746 ZM5.8987,14.0378 T6.3861,14.3051 8.4459,14.5801 12.5815,14.8683 17.4886,16.0824 19.8326,17.0162 A2.2149,2.2149 0 0 1 18.3874,21.2038 T16.2292,20.5838 11.9567,19.7107 7.6547,19.2643 4.59,18.6145 3.713,18.158 A2.3321,2.3321 0 0 1 5.8987,14.0378 Z" stroke-linecap="round" fill="#40c057"/></g></g><g transform="matrix(1, 0, 0, 1, 2033.496, 6145.5178) scale(1.005873239655112, 1.005873239655112)" opacity="1"><g transform="scale(0.9941610538748145)"><path d="M2.6823,1.1158 T1.7412,2.5532 -0.7067,5.8049 -3.4582,9.0287 -6.6206,12.569 -10.724,16.2142 -12.9099,17.7287 A2.0136,2.0136 0 0 1 -15.2501,14.4513 T-14.178,13.6583 -11.4421,11.4965 -8.8221,8.8548 -6.6284,6.2455 -3.9917,3.316 -1.6273,0.3037 -0.6623,-1.1158 A2.0104,2.0104 0 0 1 2.6823,1.1158 Z" stroke-linecap="round" fill="#40c057"/></g></g><g transform="matrix(1, 0, 0, 1, 2021.4255, 6148.5354) scale(1.005873239655112, 1.005873239655112)" opacity="1"><g transform="scale(0.9941610538748145)"><path d="M1.3397,-1.3397 T2.2854,-0.3839 4.5125,2.0983 6.6046,5.1826 8.7179,8.3517 11.6345,11.254 13.2484,12.545 A1.9352,1.9352 0 0 1 10.8916,15.615 T8.933,14.1632 5.7263,11.1554 3.5033,7.6261 1.5501,4.442 -0.3839,2.2854 -1.3397,1.3397 A1.8946,1.8946 0 0 1 1.3397,-1.3397 Z" stroke-linecap="round" fill="#40c057"/></g></g><g transform="matrix(1, 0, 0, 1, 2046.5724, 6140.4884) scale(1.005873239655112, 1.005873239655112)" opacity="1"><g transform="scale(0.9941610538748145)"><path d="M1.7487,-0.3884 T2.2342,1.7498 2.9867,5.5527 3.1659,8.7475 2.9996,12.1337 2.8903,15.0676 2.8594,16.1455 A1.8503,1.8503 0 0 1 -0.8394,16.0345 T-0.7739,13.9629 -0.5293,9.8242 -0.5842,6.2152 -1.2835,2.5308 -1.7487,0.3884 A1.7913,1.7913 0 0 1 1.7487,-0.3884 Z" stroke-linecap="round" fill="#40c057"/></g></g><g transform="matrix(1, 0, 0, 1, 2051.6017, 6149.5413) scale(1.005873239655112, 1.005873239655112)" opacity="1"><g transform="scale(0.9941610538748145)"><path d="M-0.2772,1.6576 T-1.7066,1.4573 -4.6403,1.3812 -8.9366,2.0434 -11.7285,2.5814 A1.608,1.608 0 0 1 -12.4115,-0.5614 T-10.8895,-0.93 -7.8754,-1.6538 -4.4806,-2.1107 -1.1503,-1.935 0.2772,-1.6576 A1.6806,1.6806 0 0 1 -0.2772,1.6576 Z" stroke-linecap="round" fill="#40c057"/></g></g><g transform="matrix(1, 0, 0, 1, 2057.637, 6136.4649) scale(1.005873239655112, 1.005873239655112)" opacity="1"><g transform="scale(0.9941610538748145)"><path d="M0,-2.1831 T2.1421,-2.1676 6.0955,-1.8845 9.2038,-0.822 11.5532,2.1186 12.2264,5.7037 10.1709,8.6586 7.2451,10.8411 5.9953,11.5084 A2.2134,2.2134 0 0 1 3.8904,7.614 T5.0407,6.9841 7.0223,4.8709 6.0655,2.7697 2.1386,2.1676 0,2.1831 A2.1831,2.1831 0 0 1 0,-2.1831 ZM7.1233,9.1803 T7.1428,9.2984 7.1624,9.4166 A2.2113,2.2113 0 0 1 2.8058,10.1777 T2.7841,10.0599 2.7624,9.9421 A2.2134,2.2134 0 0 1 7.1233,9.1803 ZM5.8263,7.7525 T6.5515,8.059 8.8058,9.2762 11.7475,11.27 14.4628,14.2174 16.3516,18.3944 16.3505,22.7576 14.3098,26.2443 11.258,28.5039 7.46,29.7885 3.1752,29.6074 0.1546,28.5558 -0.7811,28.1465 A2.1439,2.1439 0 0 1 0.7811,24.1535 T1.7461,24.4878 4.4974,25.1169 7.6337,24.8771 10.4072,23.5086 12.1099,21.1713 11.7623,18.2114 9.6745,15.3664 6.9027,13.2006 4.8668,12.1326 4.1419,11.8418 A2.2113,2.2113 0 0 1 5.8263,7.7525 Z" stroke-linecap="round" fill="#40c057"/></g></g></svg>