<svg xmlns="http://www.w3.org/2000/svg" direction="ltr" width="515.6365916310119" height="201.80590143619975" viewBox="1497.553531289897 5625.669249909854 515.6365916310119 201.80590143619975" stroke-linecap="round" stroke-linejoin="round" style="background-color: transparent;"><defs/><g transform="matrix(1, 0, 0, 1, 1628.1291, 5702.9335) scale(1.005873239655112, 1.005873239655112)" opacity="1"><g transform="scale(0.9941610538748145)"><path d="M0.6405,1.2358 T-0.0605,2.1943 -2.278,5.0363 -5.3768,8.485 -8.1471,10.9721 -11.6446,13.359 -13.9542,14.8242 A2.0814,2.0814 0 0 1 -16.2258,11.3358 T-15.0664,10.5597 -11.9489,8.3705 -8.3579,5.3825 -5.4154,2.2288 -3.3832,-0.2928 -2.6605,-1.2358 A2.0618,2.0618 0 0 1 0.6405,1.2358 Z" stroke-linecap="round" fill="#f2f2f2"/></g></g><g transform="matrix(1, 0, 0, 1, 1614.0469, 5702.9335) scale(1.005873239655112, 1.005873239655112)" opacity="1"><g transform="scale(0.9941610538748145)"><path d="M1.5607,-1.1724 T2.2726,-0.2257 4.4185,1.9444 7.1634,4.6515 9.4694,7.2563 11.4086,9.6605 13.1136,12.5606 13.8745,14.1776 A2.022,2.022 0 0 1 10.2655,16.0024 T9.8192,15.1759 8.361,12.7591 6.2518,9.8407 4.1584,7.3112 1.5174,4.5959 -0.8441,2.1271 -1.5607,1.1724 A1.952,1.952 0 0 1 1.5607,-1.1724 Z" stroke-linecap="round" fill="#f2f2f2"/></g></g><g transform="matrix(1, 0, 0, 1, 1633.1585, 5676.7808) scale(1.005873239655112, 1.005873239655112)" opacity="1"><g transform="scale(0.9941610538748145)"><path d="M0.7368,-1.9044 T2.4063,-2.1603 5.5328,-2.2673 8.033,-1.3825 9.0763,-0.6464 A1.9813,1.9813 0 0 1 6.4074,2.2825 T5.5057,1.8717 2.9436,1.6826 1.2832,1.9044 A1.9239,1.9239 0 0 1 0.7368,-1.9044 ZM9.6296,1.4198 T9.4596,1.9479 7.7591,3.8587 5.8094,5.5329 5.3903,5.8243 A1.967,1.967 0 0 1 3.2268,2.5387 T4.3784,1.8909 5.6922,0.7297 5.8542,0.2163 A1.9813,1.9813 0 0 1 9.6296,1.4198 ZM6.2542,3.8928 T6.309,4.5529 7.3951,7.0895 7.8535,10.942 4.951,13.8351 1.0914,14.5679 -1.8463,14.1794 -3.254,13.9753 A1.9196,1.9196 0 0 1 -2.786,10.1647 T-0.3669,10.4342 3.3228,9.9287 3.6927,7.9672 2.5774,5.6254 2.3628,4.4702 A1.967,1.967 0 0 1 6.2542,3.8928 Z" stroke-linecap="round" fill="#f2f2f2"/></g></g><g transform="matrix(1, 0, 0, 1, 1648.2466, 5706.957) scale(1.005873239655112, 1.005873239655112)" opacity="1"><g transform="scale(0.9941610538748145)"><path d="M1.01,-1.8114 T2.1904,-1.8576 5.3034,-2.3112 9.4003,-3.2753 11.5645,-3.8319 A1.8908,1.8908 0 0 1 12.5755,-0.1881 T10.1243,0.5358 5.5403,1.5817 2.2088,1.8576 1.01,1.8114 A1.8114,1.8114 0 0 1 1.01,-1.8114 Z" stroke-linecap="round" fill="#f2f2f2"/></g></g><g transform="matrix(1, 0, 0, 1, 1677.4169, 5689.8572) scale(1.005873239655112, 1.005873239655112)" opacity="1"><g transform="scale(0.9941610538748145)"><path d="M2.0832,-0.3484 T2.2991,1.0841 2.7144,4.9846 2.6113,9.7172 1.9834,14.5196 1.4707,18.8818 0.5724,23.1661 -0.1384,25.6258 A1.9312,1.9312 0 0 1 -3.8816,24.6742 T-3.4261,22.5464 -2.7256,18.2504 -2.1552,13.818 -1.5097,9.609 -1.3745,5.4308 -1.8213,1.7728 -2.0832,0.3484 A2.1122,2.1122 0 0 1 2.0832,-0.3484 Z" stroke-linecap="round" fill="#f2f2f2"/></g></g><g transform="matrix(1, 0, 0, 1, 1695.5226, 5693.8807) scale(1.005873239655112, 1.005873239655112)" opacity="1"><g transform="scale(0.9941610538748145)"><path d="M1.2665,-0.3182 T1.7446,1.6986 2.2227,3.7153 A1.2503,1.2503 0 0 1 -0.2027,4.3247 T-0.7346,2.3214 -1.2665,0.3182 A1.3058,1.3058 0 0 1 1.2665,-0.3182 Z" stroke-linecap="round" fill="#f2f2f2"/></g></g><g transform="matrix(1, 0, 0, 1, 1694.5167, 5704.9453) scale(1.005873239655112, 1.005873239655112)" opacity="1"><g transform="scale(0.9941610538748145)"><path d="M 0 0 m -2.6455463976672777, 0 a 2.6455463976672777,2.6455463976672777 0 1,1 5.2910927953345555,0 a 2.6455463976672777,2.6455463976672777 0 1,1 -5.2910927953345555,0" stroke-linecap="round" fill="#f2f2f2"/></g></g><g transform="matrix(1, 0, 0, 1, 1725.6988, 5693.8807) scale(1.005873239655112, 1.005873239655112)" opacity="1"><g transform="scale(0.9941610538748145)"><path d="M1.8363,0.9181 T1.3575,1.8847 -0.2542,4.091 -3.3482,7.3438 -6.5417,10.6055 -8.9996,12.8254 -12.4114,15.4702 -15.7782,17.9357 -16.9588,18.7278 A1.9937,1.9937 0 0 1 -19.2612,15.4722 T-17.1906,13.9273 -12.9843,10.581 -8.6013,6.563 -4.5671,2.649 -2.3083,0.0168 -1.8363,-0.9181 A2.053,2.053 0 0 1 1.8363,0.9181 Z" stroke-linecap="round" fill="#f2f2f2"/></g></g><g transform="matrix(1, 0, 0, 1, 1710.6107, 5694.8866) scale(1.005873239655112, 1.005873239655112)" opacity="1"><g transform="scale(0.9941610538748145)"><path d="M1.8015,-1.3534 T2.4657,-0.3616 3.9491,2.041 5.7154,4.8889 7.6704,7.8042 9.6151,10.9469 11.7242,14.2228 12.8962,15.8343 A2.2302,2.2302 0 0 1 9.2238,18.3657 T8.5432,17.3709 6.5317,14.1168 4.2272,10.3414 2.2936,7.3256 0.5303,4.4993 -1.0373,2.2631 -1.8015,1.3534 A2.2532,2.2532 0 0 1 1.8015,-1.3534 Z" stroke-linecap="round" fill="#f2f2f2"/></g></g><g transform="matrix(1, 0, 0, 1, 1730.7282, 5674.7691) scale(1.005873239655112, 1.005873239655112)" opacity="1"><g transform="scale(0.9941610538748145)"><path d="M-0.323,-1.9318 T1.1645,-2.1901 4.0844,-2.0704 6.9956,-1.0032 8.4747,-0.314 A2.0566,2.0566 0 0 1 5.8398,2.8445 T5.8127,2.6951 4.4237,2.0193 1.6924,1.7124 0.323,1.9318 A1.9586,1.9586 0 0 1 -0.323,-1.9318 ZM9.212,1.3527 T9.1548,2.0996 8.254,4.1573 6.9179,6.1733 6.4255,6.8787 A2.1007,2.1007 0 0 1 2.635,5.0667 T3.8705,3.6783 5.1043,1.7339 5.1025,1.1778 A2.0566,2.0566 0 0 1 9.212,1.3527 ZM5.9786,4.4512 T6.5066,4.9672 8.924,6.3978 10.8134,7.3122 A1.8941,1.8941 0 0 1 9.3066,10.7878 T6.978,9.8736 3.8656,8.2268 3.0819,7.4942 A2.1007,2.1007 0 0 1 5.9786,4.4512 Z" stroke-linecap="round" fill="#f2f2f2"/></g></g><g transform="matrix(1, 0, 0, 1, 1735.7575, 5702.9335) scale(1.005873239655112, 1.005873239655112)" opacity="1"><g transform="scale(0.9941610538748145)"><path d="M0,-1.5922 T1.6672,-1.6585 4.8329,-1.4612 7.8366,-0.9205 9.3419,-0.6434 A1.679,1.679 0 0 1 8.7581,2.6634 T6.0417,2.1941 1.6627,1.6585 0,1.5922 A1.5922,1.5922 0 0 1 0,-1.5922 Z" stroke-linecap="round" fill="#f2f2f2"/></g></g><g transform="matrix(1, 0, 0, 1, 1756.8809, 5693.8807) scale(1.005873239655112, 1.005873239655112)" opacity="1"><g transform="scale(0.9941610538748145)"><path d="M-0.3693,-2.2084 T1.0618,-2.4323 5.2536,-2.2876 9.3904,-1.1572 11.7315,1.1904 12.6521,4.6211 12.1807,8.0087 10.764,10.9203 8.7606,13.3872 6.3459,15.6388 7.2291,16.1132 11.8304,15.4909 14.1476,15.5478 A2.5631,2.5631 0 0 1 14.0124,20.6722 T11.6448,20.6054 6.9378,20.2763 3.2421,19.4217 1.4093,16.9521 2.226,13.7288 4.9001,10.9083 7.152,8.2373 8.2158,5.6054 7.2778,3.1378 4.684,1.9031 1.7951,1.9546 0.3693,2.2084 A2.2391,2.2391 0 0 1 -0.3693,-2.2084 Z" stroke-linecap="round" fill="#f2f2f2"/></g></g><g transform="matrix(1, 0, 0, 1, 1797.1158, 5692.8748) scale(1.005873239655112, 1.005873239655112)" opacity="1"><g transform="scale(0.9941610538748145)"><path d="M0.2339,-1.6301 T1.9144,-1.5 5.7415,-1.5245 10.4686,-2.1976 14.1361,-3.1594 15.2231,-3.6026 A2.0652,2.0652 0 0 1 16.4112,0.3532 T16.0149,0.4723 13.5343,1.1959 9.9438,2.1242 5.7513,2.3867 1.4155,1.9777 -0.2339,1.6301 A1.6467,1.6467 0 0 1 0.2339,-1.6301 ZM14.8502,0.2001 T14.4967,-0.0115 14.1432,-0.2232 A2.0222,2.0222 0 0 1 16.0368,-3.7968 T16.4104,-3.6232 16.7841,-3.4496 A2.0652,2.0652 0 0 1 14.8502,0.2001 Z" stroke-linecap="round" fill="#f2f2f2"/></g></g><g transform="matrix(1, 0, 0, 1, 1797.1158, 5699.9159) scale(1.005873239655112, 1.005873239655112)" opacity="1"><g transform="scale(0.9941610538748145)"><path d="M0,-0.8771 T1.4264,-0.9326 5.4579,-1.4325 10.955,-1.949 15.4495,-1.9929 17.0522,-1.9648 A1.9654,1.9654 0 0 1 17.1478,1.9648 T14.14,2.1765 8.628,2.496 4.4925,2.8059 1.4306,2.9526 0,2.8971 A1.8871,1.8871 0 0 1 0,-0.8771 Z" stroke-linecap="round" fill="#f2f2f2"/></g></g><g transform="matrix(1, 0, 0, 1, 1854.4506, 5687.8454) scale(1.005873239655112, 1.005873239655112)" opacity="1"><g transform="scale(0.9941610538748145)"><path d="M1.518,1.518 T0.5607,2.4622 -2.1296,5.1355 -5.3279,8.5663 -8.33,11.8918 -11.5043,14.943 -14.663,17.5135 -17.0848,19.2181 -17.9851,19.7794 A2.013,2.013 0 0 1 -20.2349,16.4406 T-19.3766,15.8169 -17.2702,14.1612 -14.6349,11.9684 -11.7312,9.2468 -8.5397,5.7742 -5.1355,2.1296 -2.4622,-0.5607 -1.518,-1.518 A2.1468,2.1468 0 0 1 1.518,1.518 Z" stroke-linecap="round" fill="#f2f2f2"/></g></g><g transform="matrix(1, 0, 0, 1, 1837.3507, 5687.8454) scale(1.005873239655112, 1.005873239655112)" opacity="1"><g transform="scale(0.9941610538748145)"><path d="M1.9264,-0.9632 T2.6329,0.4691 4.5269,4.2457 6.2927,7.9617 8.2184,11.4385 11.1344,15.4649 13.6857,18.5544 14.6684,19.7223 A2.1157,2.1157 0 0 1 11.4916,22.5177 T10.4582,21.3944 8.4472,19.2113 5.9855,15.9299 3.1715,11.1178 0.6796,6.1697 -1.2044,2.3878 -1.9264,0.9632 A2.1538,2.1538 0 0 1 1.9264,-0.9632 Z" stroke-linecap="round" fill="#f2f2f2"/></g></g><g transform="matrix(1, 0, 0, 1, 1618.0704, 5743.1685) scale(1.005873239655112, 1.005873239655112)" opacity="1"><g transform="scale(0.9941610538748145)"><path d="M1.7344,2.3129 T1.0476,3.2844 -0.7232,5.8413 -3.2254,9.0633 -6.1675,12.4695 -8.519,14.8287 -9.3464,15.4183 A2.6005,2.6005 0 0 1 -12.1642,11.0468 T-11.8117,10.8758 -10.0196,9.19 -7.1643,6.246 -4.4832,3.192 -2.4761,0.6371 -1.7344,-0.2929 A2.1692,2.1692 0 0 1 1.7344,2.3129 ZM-12.478,15.1806 T-13.0983,14.5575 -13.7186,13.9343 A2.4887,2.4887 0 0 1 -10.4214,10.2057 T-9.727,10.7451 -9.0327,11.2845 A2.6005,2.6005 0 0 1 -12.478,15.1806 Z" stroke-linecap="round" fill="#f2f2f2"/></g></g><g transform="matrix(1, 0, 0, 1, 1605.9999, 5745.1802) scale(1.005873239655112, 1.005873239655112)" opacity="1"><g transform="scale(0.9941610538748145)"><path d="M2.0304,-0.8114 T2.5097,0.3752 3.9401,3.2435 5.6874,6.3257 8.0358,9.0816 9.5881,10.4369 A2.2434,2.2434 0 0 1 6.5119,13.7031 T5.5581,12.8118 3.5039,10.7706 1.6744,8.3218 -0.0711,5.1097 -1.559,2.004 -2.0304,0.8114 A2.1865,2.1865 0 0 1 2.0304,-0.8114 Z" stroke-linecap="round" fill="#f2f2f2"/></g></g><g transform="matrix(1, 0, 0, 1, 1623.0997, 5724.0569) scale(1.005873239655112, 1.005873239655112)" opacity="1"><g transform="scale(0.9941610538748145)"><path d="M0.7603,-1.9027 T2.0384,-1.3558 4.4227,0.6242 5.529,2.0573 A2.0413,2.0413 0 0 1 2.1031,4.2778 T1.7725,3.4941 0.3408,2.3065 -0.7603,1.9027 A2.049,2.049 0 0 1 0.7603,-1.9027 ZM5.2815,4.5886 T4.8515,5.0264 4.4216,5.4642 A2.0335,2.0335 0 0 1 1.502,2.6328 T1.9263,2.1897 2.3507,1.7465 A2.0413,2.0413 0 0 1 5.2815,4.5886 ZM4.7575,3.0943 T5.0071,3.5719 5.7432,5.4101 5.8529,8.7383 3.8136,12.0424 0.4606,13.2415 -2.7813,11.771 -4.3326,10.4382 A1.9105,1.9105 0 0 1 -1.7074,7.6618 T0.0449,8.2782 1.7326,7.413 1.417,5.467 1.1661,5.0027 A2.0335,2.0335 0 0 1 4.7575,3.0943 Z" stroke-linecap="round" fill="#f2f2f2"/></g></g><g transform="matrix(1, 0, 0, 1, 1633.1585, 5746.1861) scale(1.005873239655112, 1.005873239655112)" opacity="1"><g transform="scale(0.9941610538748145)"><path d="M0.3164,-1.8921 T1.7408,-1.6793 5.3105,-1.635 8.7078,-1.8457 9.9599,-1.8879 A1.8905,1.8905 0 0 1 10.1601,1.8879 T7.8278,2.06 4.022,2.3271 1.1161,2.1571 -0.3164,1.8921 A1.9184,1.9184 0 0 1 0.3164,-1.8921 Z" stroke-linecap="round" fill="#f2f2f2"/></g></g><g transform="matrix(1, 0, 0, 1, 1650.2583, 5738.1391) scale(1.005873239655112, 1.005873239655112)" opacity="1"><g transform="scale(0.9941610538748145)"><path d="M0,-1.922 T1.6695,-1.9322 5.7418,-1.213 9.295,1.6329 9.9537,5.6831 8.4929,8.8832 6.5192,11.2192 4.4783,13.2244 3.442,14.1598 A1.9801,1.9801 0 0 1 0.2966,11.7536 T1.9661,10.1692 4.795,7.211 6.1169,4.3628 4.8002,2.4155 1.6605,1.9322 0,1.922 A1.922,1.922 0 0 1 0,-1.922 ZM2.9152,11.2754 T3.3942,11.573 6.4549,12.6578 10.3071,13.8466 11.5775,14.2483 A1.9131,1.9131 0 0 1 10.5425,17.9317 T8.1656,17.3517 4.1312,16.2185 1.6485,15.1517 0.8233,14.638 A1.9801,1.9801 0 0 1 2.9152,11.2754 Z" stroke-linecap="round" fill="#f2f2f2"/></g></g><g transform="matrix(1, 0, 0, 1, 1678.4228, 5741.1567) scale(1.005873239655112, 1.005873239655112)" opacity="1"><g transform="scale(0.9941610538748145)"><path d="M1.8251,0.7293 T1.3656,1.9253 -0.4742,5.3617 -2.9487,9.0127 -5.8602,12.0772 -8.6791,14.6384 -9.6806,15.5457 A2.0127,2.0127 0 0 1 -12.4394,12.6143 T-11.4731,11.6696 -9.0106,9.3665 -6.226,6.4262 -3.8725,3.2408 -2.3163,0.4539 -1.8251,-0.7293 A1.9654,1.9654 0 0 1 1.8251,0.7293 Z" stroke-linecap="round" fill="#f2f2f2"/></g></g><g transform="matrix(1, 0, 0, 1, 1669.3699, 5744.1743) scale(1.005873239655112, 1.005873239655112)" opacity="1"><g transform="scale(0.9941610538748145)"><path d="M1.6864,-0.8432 T2.1592,0.1088 3.6472,3.0132 6.1412,6.9282 7.6199,8.8909 A1.9654,1.9654 0 0 1 4.4601,11.2291 T2.8171,8.9731 0.2219,4.7295 -1.2084,1.7926 -1.6864,0.8432 A1.8855,1.8855 0 0 1 1.6864,-0.8432 Z" stroke-linecap="round" fill="#f2f2f2"/></g></g><g transform="matrix(1, 0, 0, 1, 1594.9353, 5732.1039) scale(1.005873239655112, 1.005873239655112)" opacity="1"><g transform="scale(0.9941610538748145)"><path d="M1.7337,0.577 T1.2342,2.005 -0.0453,4.8642 -1.7779,8.3554 -3.2302,11.8876 -3.9372,15.3615 -3.9425,19.3592 -2.9934,23.4406 -0.6051,27.4375 1.6998,30.2426 2.3636,31.1364 A1.7153,1.7153 0 0 1 -0.3436,33.2436 T-1.0471,32.3808 -3.1337,30.1079 -5.4417,27.0659 -6.8452,23.7672 -7.5206,19.6268 -7.5427,15.5172 -6.8436,12.3759 -5.7899,9.3816 -4.6628,6.4276 -3.3507,3.6217 -2.1849,0.8519 -1.7337,-0.577 A1.8272,1.8272 0 0 1 1.7337,0.577 Z" stroke-linecap="round" fill="#f2f2f2"/></g></g><g transform="matrix(1, 0, 0, 1, 1688.4815, 5726.0686) scale(1.005873239655112, 1.005873239655112)" opacity="1"><g transform="scale(0.9941610538748145)"><path d="M1.8193,-0.6054 T2.288,0.8254 3.3675,4.2128 4.3414,8.662 4.5392,13.7711 3.5564,18.5353 1.7307,22.5861 -0.3509,25.8245 -2.4638,28.2618 -4.5298,30.8692 -6.0132,33.1844 -6.4701,33.994 A1.7727,1.7727 0 0 1 -9.6299,32.386 T-8.8976,30.7714 -6.7634,27.3874 -3.9834,24.0096 -1.7319,20.7775 -0.1378,17.3537 0.7298,13.5129 0.6427,9.4804 -0.2232,5.4731 -1.3373,2.0315 -1.8193,0.6054 A1.9174,1.9174 0 0 1 1.8193,-0.6054 Z" stroke-linecap="round" fill="#f2f2f2"/></g></g><g transform="matrix(1, 0, 0, 1, 1560.7356, 5747.192) scale(1.005873239655112, 1.005873239655112)" opacity="1"><g transform="scale(0.9941610538748145)"><path d="M0,-0.9581 T1.4285,-1.0065 4.5604,-1.1025 7.876,-1.1677 11.6217,-1.1505 14.9227,-1.0959 16.09,-1.0762 A2.0862,2.0862 0 0 1 16.09,3.0962 T14.9227,3.1159 11.6217,3.1705 7.876,3.1877 4.5604,3.1225 1.4285,3.0265 0,2.9781 A1.9681,1.9681 0 0 1 0,-0.9581 Z" stroke-linecap="round" fill="#f2f2f2"/></g></g><g transform="matrix(1, 0, 0, 1, 1529.5535, 5767.3094) scale(1.005873239655112, 1.005873239655112)" opacity="1"><g transform="scale(0.9941610538748145)"><path d="M-0.5682,-0.6891 T0.8659,-1.1547 3.8935,-1.9052 7.5854,-2.4044 11.2614,-3.0346 14.8559,-3.5867 18.8845,-3.7667 22.9077,-3.8355 26.9297,-3.8788 31.1892,-3.918 35.0445,-3.9546 39.3847,-3.9979 44.6945,-4.0434 50.3319,-3.8312 55.8988,-3.4412 60.6765,-3.2454 65.0309,-3.2091 69.1437,-3.2155 73.1904,-3.2291 77.8213,-3.2508 81.8729,-3.2756 85.6664,-3.2984 90.13,-3.318 93.912,-3.3303 97.8696,-3.3439 102.8382,-3.3682 106.9735,-3.3923 109.8997,-3.4094 112.8703,-3.4265 115.8619,-3.4406 118.8645,-3.4522 121.8754,-3.4645 125.6715,-3.4842 130.0506,-3.5107 134.1727,-3.5394 138.5858,-3.5694 143.081,-3.595 147.4824,-3.6191 151.6761,-3.9958 155.6284,-4.4835 159.694,-4.6431 163.8351,-4.6872 165.9564,-4.6963 A2.6863,2.6863 0 0 1 165.9836,0.6763 T164.8689,0.6828 161.7754,0.7016 157.9067,0.7546 154.3619,0.9517 151.2476,1.3603 147.4917,1.5991 143.081,1.575 138.5858,1.5494 134.1727,1.5194 130.0506,1.4907 125.6715,1.4642 121.8754,1.4445 118.8645,1.4322 115.8619,1.4206 112.8703,1.4065 109.8997,1.3894 106.9735,1.3723 102.8382,1.3482 97.8695,1.3239 93.912,1.3103 90.1299,1.2979 85.6663,1.2783 81.8726,1.2552 77.8202,1.2297 73.1864,1.2051 69.13,1.181 64.9846,1.1372 60.5392,1.0384 55.4646,0.7478 49.9994,0.2842 44.6945,0.0235 39.3849,-0.0217 33.8016,-0.0759 28.944,-0.1175 24.9328,-0.1433 20.9447,-0.1514 17.055,-0.1002 13.5522,0.1123 9.9958,0.6574 5.7257,1.3838 1.991,2.2192 0.5682,2.7091 A1.7916,1.7916 0 0 1 -0.5682,-0.6891 Z" stroke-linecap="round" fill="#f2f2f2"/></g></g><g transform="matrix(1, 0, 0, 1, 1590.9118, 5781.3917) scale(1.005873239655112, 1.005873239655112)" opacity="1"><g transform="scale(0.9941610538748145)"><path d="M-0.7408,-2.8639 T0.4541,-3.336 3.1855,-4.1129 6.8694,-4.2716 11.2171,-3.319 14.4859,-0.3479 14.9929,3.447 13.4873,6.1839 10.6765,8.946 7.4737,11.4528 4.9762,12.8823 3.8148,13.4603 A2.041,2.041 0 0 1 2.0247,9.7918 T3.5978,9.077 6.4353,7.4456 9.0503,5.1059 10.3739,2.0036 8.5356,0.0268 4.9168,-0.1921 1.9251,0.3652 0.7408,0.8439 A1.9965,1.9965 0 0 1 -0.7408,-2.8639 ZM3.7668,9.7692 T4.6591,10.1443 7.3396,10.9186 11.01,11.4754 15.0445,11.7753 17.1969,11.9178 A2.1643,2.1643 0 0 1 17.0031,16.2422 T14.7618,16.1877 10.0075,15.7787 5.6415,14.8768 2.9306,13.9062 2.0727,13.483 A2.041,2.041 0 0 1 3.7668,9.7692 Z" stroke-linecap="round" fill="#e599f7"/></g></g><g transform="matrix(1, 0, 0, 1, 1633.1585, 5784.4093) scale(1.005873239655112, 1.005873239655112)" opacity="1"><g transform="scale(0.9941610538748145)"><path d="M1.2255,2.5434 T0.0485,3.5104 -3.3878,5.9447 -6.9662,8.4377 -10.1715,10.5867 -13.0767,12.2688 -14.0959,12.8276 A2.0279,2.0279 0 0 1 -16.0841,9.2924 T-15.0771,8.7118 -12.4912,7.1887 -9.3288,5.0612 -5.6877,2.6109 -2.4277,0.4111 -1.2255,-0.5234 A1.963,1.963 0 0 1 1.2255,2.5434 Z" stroke-linecap="round" fill="#e599f7"/></g></g><g transform="matrix(1, 0, 0, 1, 1622.0939, 5785.4152) scale(1.005873239655112, 1.005873239655112)" opacity="1"><g transform="scale(0.9941610538748145)"><path d="M2.3568,-1.0085 T3.0916,-0.0721 4.6844,2.2362 6.8709,5.1298 10.012,7.584 11.8246,8.5166 A1.7224,1.7224 0 0 1 10.2954,11.6034 T9.1974,11.0971 6.4183,9.5434 3.6546,7.0828 1.8065,4.3041 0.3521,1.9735 -0.3368,1.0085 A1.6826,1.6826 0 0 1 2.3568,-1.0085 Z" stroke-linecap="round" fill="#e599f7"/></g></g><g transform="matrix(1, 0, 0, 1, 1647.2407, 5786.421) scale(1.005873239655112, 1.005873239655112)" opacity="1"><g transform="scale(0.9941610538748145)"><path d="M0.2702,-1.6157 T1.7052,-1.4161 5.272,-1.0827 9.3726,-1.0934 12.5375,-1.4587 13.7337,-1.6796 A1.7149,1.7149 0 0 1 14.4263,1.6796 T13.2403,1.9499 9.6319,2.4468 4.8916,2.4226 1.1518,1.8938 -0.2702,1.6157 A1.6381,1.6381 0 0 1 0.2702,-1.6157 Z" stroke-linecap="round" fill="#e599f7"/></g></g><g transform="matrix(1, 0, 0, 1, 1680.4345, 5774.3505) scale(1.005873239655112, 1.005873239655112)" opacity="1"><g transform="scale(0.9941610538748145)"><path d="M2.1724,-0.4362 T2.4049,0.755 2.602,4.4992 2.1722,9.2283 1.3083,13.4626 0.6325,17.1626 0.3286,20.0502 0.2309,21.296 A2.2478,2.2478 0 0 1 -4.2509,20.944 T-4.1529,19.6982 -3.7524,16.3161 -2.9848,12.1911 -2.1587,8.2715 -1.7398,4.5763 -1.9272,1.6242 -2.1724,0.4362 A2.2158,2.2158 0 0 1 2.1724,-0.4362 Z" stroke-linecap="round" fill="#e599f7"/></g></g><g transform="matrix(1, 0, 0, 1, 1877.5857, 5682.8161) scale(1.005873239655112, 1.005873239655112)" opacity="1"><g transform="scale(0.9941610538748145)"><path d="M2.9933,0 T3.0066,1.1992 2.6689,4.3237 2.2344,8.0993 2.1046,11.7906 2.0352,14.8696 2.0122,16.1076 A2.0123,2.0123 0 0 1 -2.0122,16.0724 T-2.0136,14.8342 -2.005,11.6992 -1.876,7.7507 -1.3784,4.0295 -0.9866,1.18 -0.9733,0 A1.9833,1.9833 0 0 1 2.9933,0 Z" stroke-linecap="round" fill="#e599f7"/></g></g><g transform="matrix(1, 0, 0, 1, 1882.615, 5688.8513) scale(1.005873239655112, 1.005873239655112)" opacity="1"><g transform="scale(0.9941610538748145)"><path d="M0.2572,2.0496 T-1.6441,2.3095 -5.0642,2.7177 -8.2292,3.0229 -9.8753,3.1797 A2.1775,2.1775 0 0 1 -10.2447,-1.1597 T-8.5958,-1.2834 -5.5085,-1.5105 -2.1636,-1.8318 -0.2572,-2.0496 A2.0657,2.0657 0 0 1 0.2572,2.0496 Z" stroke-linecap="round" fill="#e599f7"/></g></g><g transform="matrix(1, 0, 0, 1, 1908.7677, 5662.6986) scale(1.005873239655112, 1.005873239655112)" opacity="1"><g transform="scale(0.9941610538748145)"><path d="M1.01,-2.1601 T2.68,-2.1685 6.955,-1.0944 10.3945,2.3268 10.4346,6.3623 8.5375,9.0388 5.3555,11.3355 2.7681,12.968 2.26,13.2835 A2.1921,2.1921 0 0 1 0.0366,9.505 T0.5591,9.2141 2.865,7.8121 5.9004,5.4353 5.7411,3.1731 2.6699,2.1685 1.01,2.1601 A2.1601,2.1601 0 0 1 1.01,-2.1601 ZM2.9856,10.1987 T3.3845,10.8668 5.9146,11.5535 10.9314,11.6488 15.4722,11.7736 17.1276,11.8215 A2.2587,2.2587 0 0 1 17.0724,16.3385 T15.4164,16.346 12.2606,16.365 9.245,16.3367 5.5931,16.0449 2.0852,15.2139 0.0122,13.6123 -0.689,12.5899 A2.1921,2.1921 0 0 1 2.9856,10.1987 Z" stroke-linecap="round" fill="#e599f7"/></g></g><g transform="matrix(1, 0, 0, 1, 1945.9851, 5664.7104) scale(1.005873239655112, 1.005873239655112)" opacity="1"><g transform="scale(0.9941610538748145)"><path d="M1.1312,2.1412 T0.1859,3.0989 -2.5374,5.4808 -5.9044,8.0375 -8.9548,10.2379 -11.3077,11.8686 -12.1994,12.4313 A1.6297,1.6297 0 0 1 -13.9606,9.6887 T-13.0778,9.112 -10.8547,7.5374 -7.9631,5.4614 -4.7277,3.0748 -2.0874,0.8226 -1.1312,-0.1212 A1.5998,1.5998 0 0 1 1.1312,2.1412 Z" stroke-linecap="round" fill="#e599f7"/></g></g><g transform="matrix(1, 0, 0, 1, 1935.9263, 5665.7162) scale(1.005873239655112, 1.005873239655112)" opacity="1"><g transform="scale(0.9941610538748145)"><path d="M1.273,-0.6365 T1.764,0.3103 2.9081,2.9721 4.6548,6.1855 7.7269,8.7262 9.7053,9.7686 A1.4482,1.4482 0 0 1 8.3947,12.3514 T6.0313,11.1906 2.2469,8.0349 0.2362,4.293 -0.8133,1.5912 -1.273,0.6365 A1.4233,1.4233 0 0 1 1.273,-0.6365 Z" stroke-linecap="round" fill="#e599f7"/></g></g><g transform="matrix(1, 0, 0, 1, 1958.0555, 5671.7515) scale(1.005873239655112, 1.005873239655112)" opacity="1"><g transform="scale(0.9941610538748145)"><path d="M0.2635,-1.5759 T1.6982,-1.3742 5.1058,-1.2104 8.4581,-1.4213 9.8374,-1.5944 A1.6099,1.6099 0 0 1 10.2826,1.5944 T8.9086,1.8057 5.0578,2.0726 1.1587,1.852 -0.2635,1.5759 A1.5977,1.5977 0 0 1 0.2635,-1.5759 Z" stroke-linecap="round" fill="#e599f7"/></g></g><g transform="matrix(1, 0, 0, 1, 1975.1554, 5657.6692) scale(1.005873239655112, 1.005873239655112)" opacity="1"><g transform="scale(0.9941610538748145)"><path d="M2.9649,-0.3237 T3.2004,1.1118 3.3359,4.2422 3.1859,7.3887 2.8541,10.4742 2.102,14.6032 1.3083,19.2622 0.9848,21.4263 A2.0182,2.0182 0 0 1 -3.0048,20.8137 T-2.8196,19.6138 -2.1577,16.2338 -1.2672,11.3652 -0.6616,5.9216 -0.7074,1.7451 -0.9449,0.3237 A1.9815,1.9815 0 0 1 2.9649,-0.3237 Z" stroke-linecap="round" fill="#e599f7"/></g></g><g transform="matrix(1, 0, 0, 1, 1905.7501, 5684.8278) scale(1.005873239655112, 1.005873239655112)" opacity="1"><g transform="scale(0.9941610538748145)"><path d="M0.2723,-2.1704 T2.1765,-1.9351 5.7407,-1.5883 9.3559,-1.1736 13.154,-0.734 17.1538,-0.5315 21.8781,-0.4333 26.7542,-0.3863 31.5828,-0.1243 36.2723,0.2398 40.3016,0.4149 44.0137,0.75 47.3983,1.1469 50.444,1.3287 54.6143,1.4327 58.9505,1.4801 62.2291,1.4925 65.381,1.507 69.5238,1.2087 73.6739,0.7992 75.2341,0.6952 A2.3339,2.3339 0 0 1 75.6459,5.3448 T72.8081,5.6618 68.4546,6.2454 65.3743,6.513 62.2034,6.5097 58.8964,6.4882 54.4572,6.3912 50.1076,6.2213 46.8003,5.9633 43.5419,5.5257 40.0698,5.1747 35.8877,4.9455 31.3148,4.5425 26.6902,4.2555 21.7513,4.1671 16.8804,4.0085 12.6087,3.7236 8.8341,3.2383 5.305,2.7955 1.6311,2.4128 -0.2723,2.1704 A2.1874,2.1874 0 0 1 0.2723,-2.1704 Z" stroke-linecap="round" fill="#e599f7"/></g></g><g transform="matrix(1, 0, 0, 1, 1926.8735, 5705.9512) scale(1.005873239655112, 1.005873239655112)" opacity="1"><g transform="scale(0.9941610538748145)"><path d="M1.5163,0.9104 T0.8125,2.1131 -1.5431,5.0575 -5.0391,8.4328 -9.1041,11.1035 -12.4227,12.474 -13.5205,12.8071 A1.8345,1.8345 0 0 1 -14.6395,9.3129 T-13.5523,8.9464 -10.8079,7.7976 -7.4852,5.6043 -4.3928,2.8179 -2.241,0.2661 -1.5163,-0.9104 A1.7686,1.7686 0 0 1 1.5163,0.9104 Z" stroke-linecap="round" fill="#e599f7"/></g></g><g transform="matrix(1, 0, 0, 1, 1916.8147, 5705.9512) scale(1.005873239655112, 1.005873239655112)" opacity="1"><g transform="scale(0.9941610538748145)"><path d="M2.6781,-0.5551 T3.1654,0.8682 4.6081,4.1523 6.4625,7.2544 8.7588,9.5731 10.1562,10.6504 A1.7997,1.7997 0 0 1 7.9438,13.4896 T6.217,12.1326 3.3891,9.2102 1.2784,5.5336 -0.1947,1.9887 -0.6581,0.5551 A1.758,1.758 0 0 1 2.6781,-0.5551 Z" stroke-linecap="round" fill="#e599f7"/></g></g><g transform="matrix(1, 0, 0, 1, 1930.897, 5698.9101) scale(1.005873239655112, 1.005873239655112)" opacity="1"><g transform="scale(0.9941610538748145)"><path d="M0,-1.8013 T1.6669,-1.8144 4.946,-1.5859 6.5583,-1.3442 A1.8459,1.8459 0 0 1 5.9645,2.2996 T4.6453,2.0636 1.663,1.8144 0,1.8013 A1.8013,1.8013 0 0 1 0,-1.8013 ZM8.0883,0.7417 T8.0344,1.1038 7.9805,1.466 A1.8428,1.8428 0 0 1 4.3328,0.939 T4.3836,0.5764 4.4344,0.2138 A1.8459,1.8459 0 0 1 8.0883,0.7417 ZM7.3264,2.6264 T6.7088,3.1297 5.6411,4.2381 5.1911,4.8431 A1.8562,1.8562 0 0 1 1.8738,3.1767 T2.7565,2.0353 4.3131,0.3363 4.9869,-0.2214 A1.8428,1.8428 0 0 1 7.3264,2.6264 ZM5.0262,2.908 T5.2832,3.3087 7.9272,3.9694 10.3141,4.2296 A1.8282,1.8282 0 0 1 9.8059,7.8504 T8.7451,7.7174 5.3128,6.9077 2.49,5.6714 2.0387,5.1118 A1.8562,1.8562 0 0 1 5.0262,2.908 Z" stroke-linecap="round" fill="#e599f7"/></g></g><g transform="matrix(1, 0, 0, 1, 1950.0085, 5710.9805) scale(1.005873239655112, 1.005873239655112)" opacity="1"><g transform="scale(0.9941610538748145)"><path d="M0.2922,-1.4554 T1.4896,-1.2558 4.1816,-1.1428 8.3111,-1.3692 10.9459,-1.5089 A1.5132,1.5132 0 0 1 11.1741,1.5089 T8.723,1.7536 4.1716,2.005 0.8895,1.7335 -0.2922,1.4554 A1.4844,1.4844 0 0 1 0.2922,-1.4554 Z" stroke-linecap="round" fill="#e599f7"/></g></g><g transform="matrix(1, 0, 0, 1, 1965.0966, 5702.9335) scale(1.005873239655112, 1.005873239655112)" opacity="1"><g transform="scale(0.9941610538748145)"><path d="M0,-1.8777 T1.4318,-1.8768 5.5063,-1.2443 9.9429,0.4403 12.6175,3.3718 12.9553,7.0396 11.4458,10.0113 9.0445,12.3082 5.7792,14.5206 3.2855,16.2826 2.6223,16.9468 A1.9511,1.9511 0 0 1 0.0037,14.0537 T1.035,13.1841 3.6264,11.3971 6.4031,9.5652 8.5831,6.9656 8.2572,4.1491 4.9091,2.4468 1.4252,1.8768 0,1.8777 A1.8777,1.8777 0 0 1 0,-1.8777 ZM1.7283,13.5938 T2.3714,13.7156 4.5743,13.8797 8.1746,14.2891 11.7244,15.282 14.6039,16.5163 15.974,17.1247 A2.1732,2.1732 0 0 1 14.206,21.0953 T11.8879,20.0151 7.7514,18.5101 4.0526,17.9032 1.535,17.5639 0.8977,17.4066 A1.9511,1.9511 0 0 1 1.7283,13.5938 Z" stroke-linecap="round" fill="#e599f7"/></g></g></svg>