<svg xmlns="http://www.w3.org/2000/svg" direction="ltr" width="697.6985212327293" height="376.54852458274127" viewBox="1391.936841126111 6360.739126957248 697.6985212327293 376.54852458274127" stroke-linecap="round" stroke-linejoin="round" style="background-color: transparent;"><defs/><g transform="matrix(1, 0, 0, 1, 1544.6416, 6458.3443) scale(1.005873239655112, 1.005873239655112)" opacity="1"><g transform="scale(0.9941610538748145)"><path d="M2.6353,1.6294 T1.6776,2.5754 -1.2454,5.494 -5.7114,9.6259 -9.5457,12.8095 -12.8027,15.225 -16.8848,17.7823 -19.0434,18.9482 A2.1389,2.1389 0 0 1 -21.1966,15.2518 T-19.2265,14.0126 -15.4828,11.4339 -12.5334,9.2197 -8.9062,6.2805 -4.4835,2.2488 -1.5638,-0.674 -0.6153,-1.6294 A2.3014,2.3014 0 0 1 2.6353,1.6294 Z" stroke-linecap="round" fill="#f2f2f2"/></g></g><g transform="matrix(1, 0, 0, 1, 1528.5477, 6461.362) scale(1.005873239655112, 1.005873239655112)" opacity="1"><g transform="scale(0.9941610538748145)"><path d="M1.8952,-1.1379 T2.6047,0.0527 4.3323,2.4446 6.3846,4.7768 9.0923,7.6461 12.3822,11.3194 14.9214,14.4949 15.844,15.7354 A2.2302,2.2302 0 0 1 12.316,18.4646 T11.3471,17.2599 8.8793,14.3415 5.6908,10.7858 2.9351,7.7104 0.7059,4.9961 -1.1763,2.3265 -1.8952,1.1379 A2.2106,2.2106 0 0 1 1.8952,-1.1379 Z" stroke-linecap="round" fill="#f2f2f2"/></g></g><g transform="matrix(1, 0, 0, 1, 1554.7004, 6436.2151) scale(1.005873239655112, 1.005873239655112)" opacity="1"><g transform="scale(0.9941610538748145)"><path d="M1.8075,0.7223 T1.3706,1.9232 1.0807,4.6433 2.8979,6.8567 5.9628,7.8279 7.3575,8.1048 A1.9808,1.9808 0 0 1 6.7225,12.0152 T5.3119,11.8367 2.2434,11.3523 -1.0862,9.39 -3.1329,6.2813 -3.1716,3.2316 -2.3214,0.456 -1.8075,-0.7223 A1.9465,1.9465 0 0 1 1.8075,0.7223 Z" stroke-linecap="round" fill="#f2f2f2"/></g></g><g transform="matrix(1, 0, 0, 1, 1564.7591, 6434.2034) scale(1.005873239655112, 1.005873239655112)" opacity="1"><g transform="scale(0.9941610538748145)"><path d="M1.908,0 T1.9008,1.1896 1.6462,4.7494 0.9845,9.2428 0.1,13.7934 -0.7497,17.871 -1.1293,19.5212 A1.9349,1.9349 0 0 1 -4.9107,18.6988 T-4.5706,17.04 -3.7355,12.8111 -2.7974,8.257 -2.1239,4.3261 -1.9008,1.1896 -1.908,0 A1.908,1.908 0 0 1 1.908,0 Z" stroke-linecap="round" fill="#f2f2f2"/></g></g><g transform="matrix(1, 0, 0, 1, 1579.8472, 6458.3443) scale(1.005873239655112, 1.005873239655112)" opacity="1"><g transform="scale(0.9941610538748145)"><path d="M1.8228,0.6096 T1.6108,1.33 1.3059,3.8135 1.145,7.6726 1.0376,10.9369 0.9983,12.1053 A2.0086,2.0086 0 0 1 -3.0183,12.0347 T-3.0166,10.8657 -2.9761,7.5183 -2.6458,3.0732 -2.0886,0.0984 -1.8228,-0.6096 A1.922,1.922 0 0 1 1.8228,0.6096 Z" stroke-linecap="round" fill="#f2f2f2"/></g></g><g transform="matrix(1, 0, 0, 1, 1583.8707, 6462.3678) scale(1.005873239655112, 1.005873239655112)" opacity="1"><g transform="scale(0.9941610538748145)"><path d="M0.3924,1.9544 T-0.7933,2.2139 -4.7675,2.7192 -9.2618,3.0538 -10.9676,3.1425 A2.1345,2.1345 0 0 1 -11.1524,-1.1225 T-9.4452,-1.1816 -5.2587,-1.3793 -1.5859,-1.7361 -0.3924,-1.9544 A1.9934,1.9934 0 0 1 0.3924,1.9544 Z" stroke-linecap="round" fill="#f2f2f2"/></g></g><g transform="matrix(1, 0, 0, 1, 1610.0234, 6458.3443) scale(1.005873239655112, 1.005873239655112)" opacity="1"><g transform="scale(0.9941610538748145)"><path d="M2.0674,1.2413 T1.3478,2.4368 -0.3884,4.7211 -3.2796,7.7303 -6.3616,10.8904 -8.6759,13.2634 -11.406,15.7714 -14.7498,18.5975 -16.4704,20.0491 A2.5394,2.5394 0 0 1 -19.7496,16.1709 T-18.0322,14.7155 -14.8524,12.0256 -12.2587,9.6842 -8.9213,6.4153 -5.1002,2.6895 -2.7763,-0.0576 -2.0674,-1.2413 A2.4115,2.4115 0 0 1 2.0674,1.2413 Z" stroke-linecap="round" fill="#f2f2f2"/></g></g><g transform="matrix(1, 0, 0, 1, 1594.9353, 6461.362) scale(1.005873239655112, 1.005873239655112)" opacity="1"><g transform="scale(0.9941610538748145)"><path d="M1.8215,-1.0936 T2.5423,0.0918 4.8122,3.1349 8.1925,6.7832 11.621,10.1739 14.5237,13.8637 15.8292,15.9532 A2.0916,2.0916 0 0 1 12.3308,18.2468 T11.6283,17.2294 9.8028,14.6934 7.0132,11.5135 4.2213,8.8769 1.345,5.6913 -1.1138,2.2874 -1.8215,1.0936 A2.1245,2.1245 0 0 1 1.8215,-1.0936 Z" stroke-linecap="round" fill="#f2f2f2"/></g></g><g transform="matrix(1, 0, 0, 1, 1612.0351, 6437.221) scale(1.005873239655112, 1.005873239655112)" opacity="1"><g transform="scale(0.9941610538748145)"><path d="M0,-2.4626 T1.9038,-2.4179 5.3301,-2.3393 8.5997,-1.5928 10.3467,-0.8802 A2.2902,2.2902 0 0 1 8.4416,3.2852 T7.5595,2.7953 5.2425,2.3393 1.9038,2.4179 0,2.4626 A2.4626,2.4626 0 0 1 0,-2.4626 ZM11.5761,1.8981 T11.1567,3.1388 9.6741,5.533 8.0963,7.923 7.5815,9.1594 A2.3101,2.3101 0 0 1 3.0611,8.2039 T3.7458,6.3438 5.5192,3.518 6.91,1.5297 7.2122,0.5069 A2.2902,2.2902 0 0 1 11.5761,1.8981 ZM6.8392,6.9402 T7.4592,7.4575 9.8435,7.9515 13.2898,7.8854 14.9719,7.8427 A2.2205,2.2205 0 0 1 15.2081,12.2773 T13.531,12.4135 9.9782,12.6394 6.6236,12.1837 4.4741,11.0307 3.8034,10.4231 A2.3101,2.3101 0 0 1 6.8392,6.9402 Z" stroke-linecap="round" fill="#f2f2f2"/></g></g><g transform="matrix(1, 0, 0, 1, 1637.182, 6453.315) scale(1.005873239655112, 1.005873239655112)" opacity="1"><g transform="scale(0.9941610538748145)"><path d="M 1.01 0 m -2.6455463976672777, 0 a 2.6455463976672777,2.6455463976672777 0 1,1 5.2910927953345555,0 a 2.6455463976672777,2.6455463976672777 0 1,1 -5.2910927953345555,0" stroke-linecap="round" fill="#f2f2f2"/></g></g><g transform="matrix(1, 0, 0, 1, 1635.1702, 6468.4031) scale(1.005873239655112, 1.005873239655112)" opacity="1"><g transform="scale(0.9941610538748145)"><path d="M 0 0 m -2.6455463976672777, 0 a 2.6455463976672777,2.6455463976672777 0 1,1 5.2910927953345555,0 a 2.6455463976672777,2.6455463976672777 0 1,1 -5.2910927953345555,0" stroke-linecap="round" fill="#f2f2f2"/></g></g><g transform="matrix(1, 0, 0, 1, 1671.3817, 6459.3502) scale(1.005873239655112, 1.005873239655112)" opacity="1"><g transform="scale(0.9941610538748145)"><path d="M1.4327,0.8817 T-0.4073,4.0144 -3.48,9.0775 -6.5474,12.4212 -10.1911,15.1719 -11.9999,16.5092 A1.7835,1.7835 0 0 1 -14.1601,13.6708 T-12.3891,12.2837 -9.2401,9.8647 -6.615,7.0296 -3.4003,2.1724 -1.4327,-0.8817 A1.6823,1.6823 0 0 1 1.4327,0.8817 Z" stroke-linecap="round" fill="#f2f2f2"/></g></g><g transform="matrix(1, 0, 0, 1, 1659.3112, 6462.3678) scale(1.005873239655112, 1.005873239655112)" opacity="1"><g transform="scale(0.9941610538748145)"><path d="M1.862,-0.7441 T2.3273,0.4482 3.6647,2.9796 6.1732,5.4635 9.8197,7.7767 13.6709,10.7981 15.5121,12.651 A2.0231,2.0231 0 0 1 12.6479,15.509 T11.185,14.0508 7.5529,11.2836 3.3419,8.3243 0.2043,4.8958 -1.3766,1.9309 -1.862,0.7441 A2.0051,2.0051 0 0 1 1.862,-0.7441 Z" stroke-linecap="round" fill="#f2f2f2"/></g></g><g transform="matrix(1, 0, 0, 1, 1675.4052, 6437.221) scale(1.005873239655112, 1.005873239655112)" opacity="1"><g transform="scale(0.9941610538748145)"><path d="M0.602,-2.4109 T2.514,-1.945 6.5763,-0.3499 8.7266,0.7795 A2.5464,2.5464 0 0 1 5.963,5.0571 T4.5761,4.2189 1.2936,2.8958 -0.602,2.4109 A2.4849,2.4849 0 0 1 0.602,-2.4109 ZM9.8547,2.4889 T10.0058,3.6234 9.6417,6.1872 7.7708,8.8226 6.4151,10.0286 A2.5354,2.5354 0 0 1 3.2265,6.0859 T4.2131,5.5318 5.0173,4.1627 4.8349,3.3477 A2.5464,2.5464 0 0 1 9.8547,2.4889 ZM6.8928,6.5961 T7.51,7.4911 9.2804,9.2554 11.3013,12.0817 12.1689,14.0385 A2.5641,2.5641 0 0 1 7.2118,15.3524 T7.1182,14.5802 5.623,12.6878 3.4852,10.543 2.7488,9.5184 A2.5354,2.5354 0 0 1 6.8928,6.5961 ZM11.8086,16.1405 T11.4032,16.7379 9.8168,18.3074 7.0589,19.7207 3.9067,19.6951 1.2572,18.7642 0.183,18.3003 A2.3599,2.3599 0 0 1 1.837,13.8797 T4.334,14.105 7.2016,13.7904 7.5722,13.2505 A2.5641,2.5641 0 0 1 11.8086,16.1405 Z" stroke-linecap="round" fill="#f2f2f2"/></g></g><g transform="matrix(1, 0, 0, 1, 1693.5109, 6455.3267) scale(1.005873239655112, 1.005873239655112)" opacity="1"><g transform="scale(0.9941610538748145)"><path d="M1.5473,-0.2587 T1.8454,1.16 2.336,4.1053 2.5429,7.1572 2.5809,10.3408 2.6046,11.9988 A1.5962,1.5962 0 0 1 -0.5846,12.1412 T-0.7087,10.4877 -1.0104,5.9846 -1.3676,1.6969 -1.5473,0.2587 A1.5688,1.5688 0 0 1 1.5473,-0.2587 Z" stroke-linecap="round" fill="#f2f2f2"/></g></g><g transform="matrix(1, 0, 0, 1, 1697.5344, 6460.3561) scale(1.005873239655112, 1.005873239655112)" opacity="1"><g transform="scale(0.9941610538748145)"><path d="M0.3532,2.1122 T-1.0711,2.368 -4.2981,3.1783 -8.2658,4.3915 -10.4308,5.0502 A2.1255,2.1255 0 0 1 -11.6892,0.9898 T-9.5311,0.3087 -5.2958,-1.0203 -1.7858,-1.8903 -0.3532,-2.1122 A2.1415,2.1415 0 0 1 0.3532,2.1122 Z" stroke-linecap="round" fill="#f2f2f2"/></g></g><g transform="matrix(1, 0, 0, 1, 1722.6812, 6455.3267) scale(1.005873239655112, 1.005873239655112)" opacity="1"><g transform="scale(0.9941610538748145)"><path d="M2.0163,1.2106 T1.3139,2.4084 -0.3068,4.8319 -2.1828,7.1817 -4.0355,9.5199 -5.9488,11.9475 -7.9408,14.4019 -10.0747,16.708 -12.3688,18.7921 -13.5027,19.8108 A2.3265,2.3265 0 0 1 -16.6773,16.4092 T-14.7431,14.547 -11.7914,11.2901 -9.827,8.8188 -7.8503,6.4145 -5.1445,3.1195 -2.7424,-0.0292 -2.0163,-1.2106 A2.3518,2.3518 0 0 1 2.0163,1.2106 Z" stroke-linecap="round" fill="#f2f2f2"/></g></g><g transform="matrix(1, 0, 0, 1, 1710.6107, 6458.3443) scale(1.005873239655112, 1.005873239655112)" opacity="1"><g transform="scale(0.9941610538748145)"><path d="M1.9175,-1.1512 T2.6215,0.0442 4.3692,3.2404 6.614,7.0951 9.7246,10.9778 12.7154,14.3324 13.7967,15.6583 A2.2494,2.2494 0 0 1 10.3433,18.5417 T8.3389,16.1891 5.2377,12.7974 2.6643,9.2326 0.3595,5.1128 -1.193,2.335 -1.9175,1.1512 A2.2365,2.2365 0 0 1 1.9175,-1.1512 Z" stroke-linecap="round" fill="#f2f2f2"/></g></g><g transform="matrix(1, 0, 0, 1, 1722.6812, 6432.1916) scale(1.005873239655112, 1.005873239655112)" opacity="1"><g transform="scale(0.9941610538748145)"><path d="M-0.3083,-2.6365 T0.7137,-3.1051 4.2405,-3.3494 8.3347,-1.1616 9.0309,3.3239 6.6271,6.941 4.0076,8.7546 2.8985,9.473 A2.7034,2.7034 0 0 1 -0.0428,4.9361 T0.8414,4.3623 2.9064,2.7303 3.2078,2.1544 2.3283,2.6365 A2.9477,2.9477 0 0 1 -0.3083,-2.6365 ZM3.1041,5.0835 T3.6591,5.5076 5.9326,6.002 9.0059,5.6561 10.3605,5.2399 A2.8958,2.8958 0 0 1 11.7595,10.8601 T10.8178,11.0898 7.8301,11.4987 3.5841,11.1613 0.5678,9.9851 -0.2484,9.3256 A2.7034,2.7034 0 0 1 3.1041,5.0835 Z" stroke-linecap="round" fill="#f2f2f2"/></g></g><g transform="matrix(1, 0, 0, 1, 1747.828, 6456.3326) scale(1.005873239655112, 1.005873239655112)" opacity="1"><g transform="scale(0.9941610538748145)"><path d="M1.74,0 T1.792,1.4252 2.4282,5.7402 3.3839,10.6828 3.7554,12.7357 A1.7791,1.7791 0 0 1 0.2646,13.4243 T-0.1714,11.3842 -1.2257,6.1037 -1.792,1.4317 -1.74,0 A1.74,1.74 0 0 1 1.74,0 Z" stroke-linecap="round" fill="#f2f2f2"/></g></g><g transform="matrix(1, 0, 0, 1, 1751.8515, 6461.362) scale(1.005873239655112, 1.005873239655112)" opacity="1"><g transform="scale(0.9941610538748145)"><path d="M0.1995,2.8152 T-1.9401,3.0587 -6.4637,3.5711 -8.8478,3.8401 A1.8413,1.8413 0 0 1 -9.2522,0.1799 T-6.8669,-0.0781 -2.3406,-0.5657 -0.1995,-0.7952 A1.8162,1.8162 0 0 1 0.1995,2.8152 Z" stroke-linecap="round" fill="#f2f2f2"/></g></g><g transform="matrix(1, 0, 0, 1, 1766.9396, 6448.2856) scale(1.005873239655112, 1.005873239655112)" opacity="1"><g transform="scale(0.9941610538748145)"><path d="M1.8338,-0.3066 T2.0627,1.1236 2.2534,5.4088 2.1052,10.7164 1.9899,15.5197 1.9832,19.8296 1.9772,23.9762 1.9725,26.1634 A1.9725,1.9725 0 0 1 -1.9725,26.1366 T-1.9475,23.9496 -1.8973,19.7959 -1.8268,15.4317 -1.6139,10.4167 -1.3912,5.4796 -1.585,1.7333 -1.8338,0.3066 A1.8593,1.8593 0 0 1 1.8338,-0.3066 Z" stroke-linecap="round" fill="#f2f2f2"/></g></g><g transform="matrix(1, 0, 0, 1, 1785.0453, 6452.3091) scale(1.005873239655112, 1.005873239655112)" opacity="1"><g transform="scale(0.9941610538748145)"><path d="M1.2397,-1.6012 T2.9147,-1.4326 6.7665,-1.2961 10.3982,-1.4823 11.853,-1.6364 A1.6507,1.6507 0 0 1 12.287,1.6364 T10.8422,1.8667 6.7437,2.1583 2.4352,1.9103 0.7803,1.6012 A1.6175,1.6175 0 0 1 1.2397,-1.6012 Z" stroke-linecap="round" fill="#f2f2f2"/></g></g><g transform="matrix(1, 0, 0, 1, 1786.0512, 6459.3502) scale(1.005873239655112, 1.005873239655112)" opacity="1"><g transform="scale(0.9941610538748145)"><path d="M0,-1.1966 T1.665,-1.2194 6.19,-1.203 9.05,-1.1637 A2.1737,2.1737 0 0 1 9.05,3.1837 T6.19,3.223 1.665,3.2394 0,3.2166 A2.2066,2.2066 0 0 1 0,-1.1966 Z" stroke-linecap="round" fill="#f2f2f2"/></g></g><g transform="matrix(1, 0, 0, 1, 1826.2861, 6448.2856) scale(1.005873239655112, 1.005873239655112)" opacity="1"><g transform="scale(0.9941610538748145)"><path d="M-1.8568,-1.8568 T-0.8372,-2.8472 0.1824,-3.8376 A2.5846,2.5846 0 0 1 3.8376,-0.1824 T2.8472,0.8372 1.8568,1.8568 A2.626,2.626 0 0 1 -1.8568,-1.8568 ZM4.0985,-0.4875 T3.5316,0.2784 1.6339,2.7661 -0.9927,6.1279 -3.853,9.795 -7.2794,13.778 -10.1918,16.7914 -11.2423,17.8488 A2.5437,2.5437 0 0 1 -14.9177,14.3312 T-13.0265,12.2728 -9.6565,8.5152 -6.4854,4.7404 -3.154,0.5631 -0.7967,-2.5356 -0.0785,-3.5325 A2.5846,2.5846 0 0 1 4.0985,-0.4875 Z" stroke-linecap="round" fill="#4dabf7"/></g></g><g transform="matrix(1, 0, 0, 1, 1816.2274, 6444.2621) scale(1.005873239655112, 1.005873239655112)" opacity="1"><g transform="scale(0.9941610538748145)"><path d="M2.508,-0.5036 T2.7338,0.6884 3.7121,4.2161 5.155,8.0319 7.0199,11.9386 9.3796,16.2404 11.3844,19.4257 12.2039,20.7357 A2.5574,2.5574 0 0 1 7.9161,23.5243 T6.2582,21.0778 3.4443,16.4658 1.6874,12.9674 -0.0817,8.6797 -1.6271,4.3014 -2.2561,1.6908 -2.508,0.5036 A2.558,2.558 0 0 1 2.508,-0.5036 Z" stroke-linecap="round" fill="#4dabf7"/></g></g><g transform="matrix(1, 0, 0, 1, 1529.5535, 6518.6967) scale(1.005873239655112, 1.005873239655112)" opacity="1"><g transform="scale(0.9941610538748145)"><path d="M1.9608,1.1773 T1.2525,2.3792 -0.4621,4.6643 -3.3411,7.6716 -7.7968,11.5557 -11.6163,14.4854 -14.2821,16.5927 -15.7112,17.7302 A2.1492,2.1492 0 0 1 -18.4888,14.4498 T-17.1313,13.2278 -14.5094,10.8578 -11.7837,8.5975 -8.4906,5.8971 -5.0299,2.7431 -2.6809,0 -1.9608,-1.1773 A2.2871,2.2871 0 0 1 1.9608,1.1773 Z" stroke-linecap="round" fill="#4dabf7"/></g></g><g transform="matrix(1, 0, 0, 1, 1517.4831, 6519.7026) scale(1.005873239655112, 1.005873239655112)" opacity="1"><g transform="scale(0.9941610538748145)"><path d="M2.0673,-0.8261 T2.5506,0.3594 4.3128,3.6051 6.6243,6.892 8.6416,9.179 11.0041,11.2134 12.3818,12.1876 A2.3083,2.3083 0 0 1 9.7382,15.9724 T8.899,15.4066 6.5961,13.6283 4.0189,11.1386 1.6446,8.0081 -0.3743,4.6842 -1.5998,2.0198 -2.0673,0.8261 A2.2262,2.2262 0 0 1 2.0673,-0.8261 Z" stroke-linecap="round" fill="#4dabf7"/></g></g><g transform="matrix(1, 0, 0, 1, 1532.5712, 6499.5852) scale(1.005873239655112, 1.005873239655112)" opacity="1"><g transform="scale(0.9941610538748145)"><path d="M1.9723,0.6563 T1.5358,2.0968 0.8287,5.648 2.2034,7.7828 5.0784,7.4234 6.3081,7.04 A2.1391,2.1391 0 0 1 7.7719,11.06 T6.5837,11.5571 2.8519,12.3668 -1.06,11.9878 -3.209,9.3272 -3.4952,4.7673 -2.4866,0.7602 -1.9723,-0.6563 A2.0786,2.0786 0 0 1 1.9723,0.6563 Z" stroke-linecap="round" fill="#4dabf7"/></g></g><g transform="matrix(1, 0, 0, 1, 1540.6181, 6499.5852) scale(1.005873239655112, 1.005873239655112)" opacity="1"><g transform="scale(0.9941610538748145)"><path d="M2.1129,-0.2358 T2.3956,1.9029 2.5964,5.8442 2.438,10.0952 2.0704,14.0555 1.4803,17.0487 1.181,18.5301 A2.2309,2.2309 0 0 1 -3.201,17.6899 T-2.9311,16.2029 -2.413,12.3726 -1.9438,7.2744 -1.9179,2.3777 -2.1129,0.2358 A2.1261,2.1261 0 0 1 2.1129,-0.2358 Z" stroke-linecap="round" fill="#4dabf7"/></g></g><g transform="matrix(1, 0, 0, 1, 1546.6534, 6521.7144) scale(1.005873239655112, 1.005873239655112)" opacity="1"><g transform="scale(0.9941610538748145)"><path d="M2.8677,0 T2.8868,1.1896 2.8897,4.5377 2.8469,7.8731 2.8203,9.05 A1.8103,1.8103 0 0 1 -0.8003,9.05 T-0.8269,7.8731 -0.8697,4.5377 -0.8668,1.1896 -0.8477,0 A1.8577,1.8577 0 0 1 2.8677,0 Z" stroke-linecap="round" fill="#4dabf7"/></g></g><g transform="matrix(1, 0, 0, 1, 1551.6827, 6525.7379) scale(1.005873239655112, 1.005873239655112)" opacity="1"><g transform="scale(0.9941610538748145)"><path d="M0.7141,2.0654 T-0.9598,1.8739 -4.3795,1.5075 -8.1601,1.1415 -10.1949,0.9506 A1.9652,1.9652 0 0 1 -9.9251,-2.9706 T-7.8833,-2.881 -3.9286,-2.7147 -0.3549,-2.3517 1.3059,-2.0654 A2.0864,2.0864 0 0 1 0.7141,2.0654 Z" stroke-linecap="round" fill="#4dabf7"/></g></g><g transform="matrix(1, 0, 0, 1, 1569.7885, 6520.7085) scale(1.005873239655112, 1.005873239655112)" opacity="1"><g transform="scale(0.9941610538748145)"><path d="M1.932,0.772 T1.4681,1.9676 -0.3421,5.2407 -3.2721,9.125 -6.3733,12.5414 -9.1241,15.0319 -11.5979,16.7919 -12.8386,17.6713 A2.0104,2.0104 0 0 1 -15.3214,14.5087 T-13.2611,12.7092 -9.6783,9.3872 -6.6297,6.2472 -4.0046,3.1125 -2.4188,0.4116 -1.932,-0.772 A2.0805,2.0805 0 0 1 1.932,0.772 Z" stroke-linecap="round" fill="#4dabf7"/></g></g><g transform="matrix(1, 0, 0, 1, 1559.7297, 6522.7202) scale(1.005873239655112, 1.005873239655112)" opacity="1"><g transform="scale(0.9941610538748145)"><path d="M2.5046,-0.7448 T3.2777,0.6531 5.0817,4.2058 7.5426,7.1945 10.383,8.7652 11.7936,9.5018 A1.7222,1.7222 0 0 1 10.3264,12.6182 T8.86,12.0004 4.9493,9.5918 1.6609,5.7319 0.166,2.2038 -0.4846,0.7448 A1.6699,1.6699 0 0 1 2.5046,-0.7448 Z" stroke-linecap="round" fill="#4dabf7"/></g></g><g transform="matrix(1, 0, 0, 1, 1570.7943, 6500.591) scale(1.005873239655112, 1.005873239655112)" opacity="1"><g transform="scale(0.9941610538748145)"><path d="M-1.0406,-2.0812 T0.3812,-2.8101 4.5332,-3.6983 8.9373,-1.7968 10.6112,0.2639 A2.5027,2.5027 0 0 1 5.9924,2.1927 T4.9516,1.4374 2.4757,1.3816 1.0406,2.0812 A2.3269,2.3269 0 0 1 -1.0406,-2.0812 ZM9.73,3.2834 T8.5041,4.0884 6.5191,5.2452 5.76,5.597 A2.4835,2.4835 0 0 1 3.6241,1.1126 T4.6126,0.632 6.2374,-0.3378 6.8735,-0.8268 A2.5027,2.5027 0 0 1 9.73,3.2834 ZM6.9754,2.3782 T7.2151,3.0366 8.5024,5.0617 9.6527,8.4418 7.7472,12.1366 3.543,14.0337 0.2594,14.2857 -0.8284,14.3221 A2.2594,2.2594 0 0 1 -1.1916,9.8179 T-0.1121,9.6795 3.1304,9.3521 4.3332,7.7765 2.8908,5.3607 2.4086,4.3314 A2.4835,2.4835 0 0 1 6.9754,2.3782 Z" stroke-linecap="round" fill="#4dabf7"/></g></g><g transform="matrix(1, 0, 0, 1, 1586.8883, 6521.7144) scale(1.005873239655112, 1.005873239655112)" opacity="1"><g transform="scale(0.9941610538748145)"><path d="M1.4447,0 T1.5204,2.1403 1.5654,6.1228 1.5078,10.0175 1.481,12.07 A1.481,1.481 0 0 1 -1.481,12.07 T-1.5078,10.0175 -1.5654,6.1228 -1.5204,2.1403 -1.4447,0 A1.4447,1.4447 0 0 1 1.4447,0 Z" stroke-linecap="round" fill="#4dabf7"/></g></g><g transform="matrix(1, 0, 0, 1, 1593.9294, 6527.7496) scale(1.005873239655112, 1.005873239655112)" opacity="1"><g transform="scale(0.9941610538748145)"><path d="M-0.3276,2.6413 T-1.5242,2.4402 -5.7066,1.8123 -10.5318,1.0058 -12.3713,0.6262 A1.6637,1.6637 0 0 1 -11.7687,-2.6462 T-9.9147,-2.3458 -6.475,-1.7954 -3.4635,-1.3601 -0.855,-0.8979 0.3276,-0.6213 A1.6638,1.6638 0 0 1 -0.3276,2.6413 Z" stroke-linecap="round" fill="#4dabf7"/></g></g><g transform="matrix(1, 0, 0, 1, 1615.0528, 6518.6967) scale(1.005873239655112, 1.005873239655112)" opacity="1"><g transform="scale(0.9941610538748145)"><path d="M3.0582,1.3666 T2.1104,2.7987 -0.3104,6.24 -3.0458,9.8108 -5.46,12.6815 -9.01,15.9387 -12.7306,18.487 -14.0529,19.0873 A2.2416,2.2416 0 0 1 -16.1271,15.1127 T-14.16,14.0372 -11.3338,11.7546 -9.3677,9.3248 -7.0409,6.6634 -4.388,3.3539 -1.9966,0.0582 -1.0382,-1.3666 A2.4622,2.4622 0 0 1 3.0582,1.3666 Z" stroke-linecap="round" fill="#4dabf7"/></g></g><g transform="matrix(1, 0, 0, 1, 1600.9705, 6523.7261) scale(1.005873239655112, 1.005873239655112)" opacity="1"><g transform="scale(0.9941610538748145)"><path d="M1.5463,-1.5463 T2.5112,-0.6098 5.1097,1.9042 8.0003,4.9528 10.3748,7.934 12.6993,11.0732 13.9063,12.7023 A2.2957,2.2957 0 0 1 10.2337,15.4577 T9.0072,13.8433 6.714,10.8278 4.5638,8.0844 1.9036,5.1091 -0.6098,2.5112 -1.5463,1.5463 A2.1869,2.1869 0 0 1 1.5463,-1.5463 Z" stroke-linecap="round" fill="#4dabf7"/></g></g><g transform="matrix(1, 0, 0, 1, 1621.088, 6501.5969) scale(1.005873239655112, 1.005873239655112)" opacity="1"><g transform="scale(0.9941610538748145)"><path d="M2.0226,-0.7588 T2.7506,1.1399 4.1135,4.7659 5.1319,8.2627 5.9342,11.8064 6.6017,15.3514 6.753,19.6373 6.3526,24.202 5.6444,28.0722 4.47,31.5408 2.5555,35.5149 0.3426,39.9279 -1.3119,43.161 -1.8988,44.3077 A2.3702,2.3702 0 0 1 -6.1412,42.1923 T-5.0749,39.9918 -2.9335,35.6176 -0.6512,31.1137 0.9472,27.1476 1.6406,23.7029 2.0957,19.7991 2.0663,16.1477 1.4845,12.7538 0.8226,9.4496 -0.0308,6.2797 -1.3221,2.6678 -2.0226,0.7588 A2.1603,2.1603 0 0 1 2.0226,-0.7588 Z" stroke-linecap="round" fill="#4dabf7"/></g></g><g transform="matrix(1, 0, 0, 1, 1512.4537, 6503.6086) scale(1.005873239655112, 1.005873239655112)" opacity="1"><g transform="scale(0.9941610538748145)"><path d="M0.8415,2.1059 T-0.3323,2.573 -2.8575,4.5624 -5.624,8.8121 -7.6263,13.8337 -8.8054,18.4031 -9.6971,22.2659 -9.5417,25.7937 -7.8667,28.8535 -5.7086,30.7488 -4.7701,31.5246 A2.0943,2.0943 0 0 1 -7.3099,34.8554 T-9.3491,33.4011 -12.354,30.8816 -13.9679,28.3068 -14.6811,24.8907 -14.4102,21.2141 -13.4596,17.1517 -12.0495,12.104 -10.3622,7.6898 -8.6048,4.5692 -6.6605,1.8818 -4.4171,-0.2412 -2.0469,-1.6223 -0.8415,-2.1059 A2.2678,2.2678 0 0 1 0.8415,2.1059 Z" stroke-linecap="round" fill="#4dabf7"/></g></g><g transform="matrix(1, 0, 0, 1, 1474.2305, 6525.7379) scale(1.005873239655112, 1.005873239655112)" opacity="1"><g transform="scale(0.9941610538748145)"><path d="M1.3303,-2.2322 T3.0008,-2.0327 7.3392,-1.6401 11.5963,-1.3526 13.1854,-1.2582 A2.2706,2.2706 0 0 1 12.9746,3.2782 T11.3835,3.2248 6.9005,2.98 2.3491,2.5105 0.6897,2.2322 A2.2551,2.2551 0 0 1 1.3303,-2.2322 Z" stroke-linecap="round" fill="#4dabf7"/></g></g><g transform="matrix(1, 0, 0, 1, 1470.207, 6543.8436) scale(1.005873239655112, 1.005873239655112)" opacity="1"><g transform="scale(0.9941610538748145)"><path d="M1.01,-2.5866 T2.4361,-2.5789 6.2111,-2.5712 10.9041,-2.5809 16.0794,-2.6011 20.6227,-2.6212 23.9513,-2.6379 27.1364,-2.656 30.4482,-2.4241 33.6203,-2.0787 37.6381,-1.899 42.5248,-1.8122 47.7492,-1.8137 52.2495,-1.8309 55.6056,-1.8432 59.0416,-1.8541 62.276,-1.8622 66.5591,-2.2333 71.5979,-2.7172 76.0527,-2.8707 80.3818,-2.5502 84.839,-2.1074 89.5303,-1.9967 94.109,-1.9657 98.8879,-1.9674 102.9749,-1.9798 106.7785,-1.9962 111.2502,-2.016 115.6357,-2.0342 120.2478,-2.054 124.9333,-2.0788 129.7678,-1.746 134.379,-1.3159 138.5392,-1.2115 143.4658,-0.9293 148.353,-0.5014 152.8326,-0.2721 157.8213,-0.2607 161.9314,-0.4362 163.5373,-0.5608 A2.6053,2.6053 0 0 1 164.3827,4.5808 T162.8215,4.9769 158.2387,5.7699 152.6065,6.1211 147.6238,5.8537 142.883,5.3997 138.4079,5.133 133.9717,4.981 129.4459,4.4883 124.9173,4.0988 120.2478,4.0739 115.6356,4.0541 111.2498,4.0357 106.7774,4.0151 101.59,3.9898 96.4412,3.9696 91.8476,3.9458 87.0774,3.873 82.0667,3.5877 77.8659,3.1607 74.098,3.0057 69.7095,3.2167 65.6324,3.6351 62.2801,3.8808 59.0397,3.8715 55.6019,3.8584 52.2422,3.8418 47.7202,3.806 42.4311,3.7327 37.3452,3.5606 31.6487,3.051 27.1316,2.656 23.9513,2.6379 20.6227,2.6212 16.0794,2.6011 10.9041,2.5809 6.2111,2.5712 2.4361,2.5789 1.01,2.5866 A2.5866,2.5866 0 0 1 1.01,-2.5866 Z" stroke-linecap="round" fill="#4dabf7"/></g></g><g transform="matrix(1, 0, 0, 1, 1484.2892, 6583.0726) scale(1.005873239655112, 1.005873239655112)" opacity="1"><g transform="scale(0.9941610538748145)"><path d="M0.4525,-2.2298 T2.3507,-2.7208 6.078,-3.4891 9.4426,-4.0817 12.7895,-4.7756 14.601,-5.1542 A2.1896,2.1896 0 0 1 15.579,-0.8858 T13.7834,-0.4379 10.2859,0.4364 6.9805,1.0866 3.4722,1.7701 1.5675,2.2298 A2.2984,2.2984 0 0 1 0.4525,-2.2298 Z" stroke-linecap="round" fill="#e599f7"/></g></g><g transform="matrix(1, 0, 0, 1, 1532.5712, 6575.0256) scale(1.005873239655112, 1.005873239655112)" opacity="1"><g transform="scale(0.9941610538748145)"><path d="M1.7094,1.7094 T0.2819,3.1398 -2.4641,5.6537 -4.9746,7.5628 -7.8423,9.9445 -11.5716,13.4368 -14.7393,16.4438 -17.051,18.4021 -19.451,20.1705 -20.653,21.0514 A2.4394,2.4394 0 0 1 -23.607,17.1686 T-21.5066,15.5131 -18.2848,12.7529 -15.9019,10.4695 -12.8306,7.8421 -8.9325,4.6636 -5.7061,2.0388 -3.1388,-0.2829 -1.7094,-1.7094 A2.4175,2.4175 0 0 1 1.7094,1.7094 Z" stroke-linecap="round" fill="#e599f7"/></g></g><g transform="matrix(1, 0, 0, 1, 1515.4713, 6579.0491) scale(1.005873239655112, 1.005873239655112)" opacity="1"><g transform="scale(0.9941610538748145)"><path d="M1.6946,-1.0174 T2.4154,0.1695 3.9569,2.8839 5.7583,5.795 8.868,9.2126 12.2018,12.4756 13.4066,13.7047 A1.925,1.925 0 0 1 10.7334,16.4753 T9.462,15.3152 7.0536,13.1307 4.5469,10.7553 2.2508,7.9928 0.5225,4.9916 -0.9869,2.2097 -1.6946,1.0174 A1.9766,1.9766 0 0 1 1.6946,-1.0174 Z" stroke-linecap="round" fill="#e599f7"/></g></g><g transform="matrix(1, 0, 0, 1, 1533.577, 6557.9258) scale(1.005873239655112, 1.005873239655112)" opacity="1"><g transform="scale(0.9941610538748145)"><path d="M-0.4511,-2.2467 T0.7394,-2.4827 4.3811,-2.7741 8.1846,-1.6831 9.5369,-0.5366 A2.3008,2.3008 0 0 1 6.047,2.4627 T4.4377,2.1129 1.6398,2.0049 0.4511,2.2467 A2.2916,2.2916 0 0 1 -0.4511,-2.2467 ZM9.5435,2.4549 T9.1929,2.7292 10.2141,3.5735 11.9939,6.5907 11.0642,10.7697 8.2978,13.0817 5.4449,13.8608 2.5762,13.8834 -0.2711,12.9915 -2.8431,11.6124 -4.0125,10.9488 A2.1426,2.1426 0 0 1 -2.0275,7.1512 T-0.0799,8.1345 3.7123,9.1504 6.8065,8.0593 6.9655,5.9762 5.4797,2.9426 5.5623,0.1698 6.0403,-0.5288 A2.3008,2.3008 0 0 1 9.5435,2.4549 Z" stroke-linecap="round" fill="#e599f7"/></g></g><g transform="matrix(1, 0, 0, 1, 1550.6769, 6581.0609) scale(1.005873239655112, 1.005873239655112)" opacity="1"><g transform="scale(0.9941610538748145)"><path d="M1.7805,0 T1.815,1.665 1.8726,5.871 1.871,10.2085 1.8278,13.0424 1.8094,14.08 A1.8094,1.8094 0 0 1 -1.8094,14.08 T-1.8278,13.0424 -1.871,10.2085 -1.8726,5.871 -1.815,1.665 -1.7805,0 A1.7805,1.7805 0 0 1 1.7805,0 Z" stroke-linecap="round" fill="#e599f7"/></g></g><g transform="matrix(1, 0, 0, 1, 1556.7121, 6587.0961) scale(1.005873239655112, 1.005873239655112)" opacity="1"><g transform="scale(0.9941610538748145)"><path d="M-1.01,1.8263 T-2.6775,1.8813 -5.8554,1.6363 -8.8653,1.0263 -10.3648,0.7164 A1.7531,1.7531 0 0 1 -9.7552,-2.7364 T-7.045,-2.3364 -2.6724,-1.8813 -1.01,-1.8263 A1.8263,1.8263 0 0 1 -1.01,1.8263 Z" stroke-linecap="round" fill="#e599f7"/></g></g><g transform="matrix(1, 0, 0, 1, 1583.8707, 6578.0433) scale(1.005873239655112, 1.005873239655112)" opacity="1"><g transform="scale(0.9941610538748145)"><path d="M2.8221,1.3613 T2.1006,2.3118 0.1437,4.402 -3.9308,7.7158 -8.1148,11.0502 -11.8872,13.8164 -15.7271,16.115 -17.1395,16.8078 A1.973,1.973 0 0 1 -19.0805,13.3722 T-17.7582,12.52 -14.462,10.162 -11.045,7.4412 -7.8127,4.8712 -4.1197,2.0285 -1.509,-0.4103 -0.8021,-1.3613 A2.2664,2.2664 0 0 1 2.8221,1.3613 Z" stroke-linecap="round" fill="#e599f7"/></g></g><g transform="matrix(1, 0, 0, 1, 1567.7767, 6582.0668) scale(1.005873239655112, 1.005873239655112)" opacity="1"><g transform="scale(0.9941610538748145)"><path d="M2.5875,-1.2607 T3.5435,-0.0753 5.5135,2.4805 7.3259,5.0794 9.2561,7.7471 11.8664,10.3122 13.3447,11.4383 A2.0784,2.0784 0 0 1 10.7953,14.7217 T9.9272,14.0522 7.5063,11.8847 4.5773,8.3295 2.2622,4.9602 0.378,2.4545 -0.5675,1.2607 A2.0194,2.0194 0 0 1 2.5875,-1.2607 Z" stroke-linecap="round" fill="#e599f7"/></g></g><g transform="matrix(1, 0, 0, 1, 1583.8707, 6559.9375) scale(1.005873239655112, 1.005873239655112)" opacity="1"><g transform="scale(0.9941610538748145)"><path d="M-0.3495,-2.436 T1.3548,-2.6581 4.8765,-2.4905 8.0162,-1.2671 10.0609,0.3521 10.7834,1.1377 A2.4257,2.4257 0 0 1 7.1012,4.2963 T6.8204,3.9124 5.0702,2.7266 1.9751,2.1804 0.3495,2.436 A2.461,2.461 0 0 1 -0.3495,-2.436 ZM11.0923,3.8401 T10.4507,5.0369 8.3601,7.485 6.0281,9.4279 5.1451,10.1195 A2.4206,2.4206 0 0 1 2.1764,6.2954 T4.0037,4.8962 6.3117,2.5455 6.7923,1.5939 A2.4257,2.4257 0 0 1 11.0923,3.8401 ZM4.833,6.0896 T5.7634,6.6259 9.4753,7.5244 12.2566,7.8866 A2.1814,2.1814 0 0 1 11.8834,12.2334 T10.2987,12.1655 7.0883,12.0132 3.9755,11.127 2.4885,10.3252 A2.4206,2.4206 0 0 1 4.833,6.0896 Z" stroke-linecap="round" fill="#e599f7"/></g></g><g transform="matrix(1, 0, 0, 1, 1597.9529, 6587.0961) scale(1.005873239655112, 1.005873239655112)" opacity="1"><g transform="scale(0.9941610538748145)"><path d="M0.3958,-1.5852 T2.3236,-1.2066 6.7993,-0.9118 11.0193,-1.3429 12.6915,-1.6901 A1.7342,1.7342 0 0 1 13.4685,1.6901 T11.8127,2.108 8.3316,2.9176 4.9352,3.0194 1.4841,2.1573 -0.3958,1.5852 A1.6339,1.6339 0 0 1 0.3958,-1.5852 Z" stroke-linecap="round" fill="#e599f7"/></g></g><g transform="matrix(1, 0, 0, 1, 1638.1878, 6577.0374) scale(1.005873239655112, 1.005873239655112)" opacity="1"><g transform="scale(0.9941610538748145)"><path d="M1.583,1.583 T0.4074,2.7866 -2.334,5.5797 -5.1993,8.4832 -7.6783,10.9521 -10.0664,13.0372 -12.7626,14.6891 -15.7208,16.1113 -17.1916,16.8116 A1.9513,1.9513 0 0 1 -19.0284,13.3684 T-17.6276,12.5368 -14.1655,10.2799 -10.9507,7.6768 -8.4832,5.1993 -5.5797,2.334 -2.7866,-0.4074 -1.583,-1.583 A2.2388,2.2388 0 0 1 1.583,1.583 Z" stroke-linecap="round" fill="#e599f7"/></g></g><g transform="matrix(1, 0, 0, 1, 1622.0939, 6581.0609) scale(1.005873239655112, 1.005873239655112)" opacity="1"><g transform="scale(0.9941610538748145)"><path d="M1.7396,-1.3068 T2.4544,-0.3566 4.3009,1.8781 6.7843,4.9942 9.1728,7.84 12.2408,10.5954 15.4108,13.3902 16.5494,14.444 A2.1998,2.1998 0 0 1 13.6306,17.736 T11.4329,15.8765 8.0494,13.0652 5.6354,10.7976 3.2653,7.7984 0.9056,4.6622 -1.026,2.2581 -1.7396,1.3068 A2.1757,2.1757 0 0 1 1.7396,-1.3068 Z" stroke-linecap="round" fill="#e599f7"/></g></g><g transform="matrix(1, 0, 0, 1, 1843.386, 6456.3326) scale(1.005873239655112, 1.005873239655112)" opacity="1"><g transform="scale(0.9941610538748145)"><path d="M0.7495,-1.5555 T2.171,-1.8223 5.7758,-2.2817 9.8002,-2.986 11.6413,-3.4976 A1.5482,1.5482 0 0 1 12.4987,-0.5224 T10.3567,0.1138 6.1733,0.9418 2.7012,1.3446 1.2705,1.5555 A1.5772,1.5772 0 0 1 0.7495,-1.5555 Z" stroke-linecap="round" fill="#e599f7"/></g></g><g transform="matrix(1, 0, 0, 1, 1868.5328, 6438.2269) scale(1.005873239655112, 1.005873239655112)" opacity="1"><g transform="scale(0.9941610538748145)"><path d="M1.939,-0.1947 T2.1759,2.1847 2.5465,6.3195 2.7617,9.7309 2.895,12.9758 3.0082,17.2842 3.098,21.6967 3.153,25.2716 3.1794,27.1534 A2.1694,2.1694 0 0 1 -1.1594,27.1666 T-1.1444,25.2846 -1.111,21.7176 -1.0877,17.3434 -1.1008,13.1015 -1.17,9.9537 -1.3393,6.6557 -1.6982,2.5737 -1.939,0.1947 A1.9487,1.9487 0 0 1 1.939,-0.1947 Z" stroke-linecap="round" fill="#e599f7"/></g></g><g transform="matrix(1, 0, 0, 1, 1865.5152, 6437.221) scale(1.005873239655112, 1.005873239655112)" opacity="1"><g transform="scale(0.9941610538748145)"><path d="M2.5201,1.5101 T1.3424,2.7129 -1.0477,4.8543 -3.5006,6.7451 -4.7411,7.6973 A2.1056,2.1056 0 0 1 -7.3389,4.3827 T-5.121,2.6127 -1.7016,-0.3337 -0.5001,-1.5101 A2.1356,2.1356 0 0 1 2.5201,1.5101 Z" stroke-linecap="round" fill="#e599f7"/></g></g><g transform="matrix(1, 0, 0, 1, 1483.2834, 6633.8692) scale(1.005873239655112, 1.005873239655112)" opacity="1"><g transform="scale(0.9941610538748145)"><path d="M-0.2761,-1.6514 T1.1419,-1.9539 4.0925,-2.4307 7.9379,-2.6753 11.6408,-2.7544 13.0308,-2.7633 A1.754,1.754 0 0 1 13.1292,0.7433 T10.5299,0.8772 5.5423,1.156 1.715,1.4761 0.2761,1.6514 A1.6743,1.6743 0 0 1 -0.2761,-1.6514 Z" stroke-linecap="round" fill="#e599f7"/></g></g><g transform="matrix(1, 0, 0, 1, 1530.5594, 6625.8222) scale(1.005873239655112, 1.005873239655112)" opacity="1"><g transform="scale(0.9941610538748145)"><path d="M1.9226,1.2796 T0.9771,2.712 -0.997,5.463 -3.144,7.8166 -5.973,10.5129 -9.1094,13.3493 -12.5638,16.0437 -15.6919,18.2952 -16.7916,19.0274 A2.3351,2.3351 0 0 1 -19.4284,15.1726 T-18.3473,14.4132 -15.4365,12.2002 -11.5461,8.9809 -7.5889,5.53 -4.7634,2.7072 -2.8785,0.1449 -1.9226,-1.2796 A2.3095,2.3095 0 0 1 1.9226,1.2796 Z" stroke-linecap="round" fill="#e599f7"/></g></g><g transform="matrix(1, 0, 0, 1, 1517.4831, 6629.8457) scale(1.005873239655112, 1.005873239655112)" opacity="1"><g transform="scale(0.9941610538748145)"><path d="M1.5118,-1.1357 T2.2363,-0.1983 4.513,2.3062 7.6312,5.8083 10.2155,9.6042 11.5732,12.4379 11.9126,13.4106 A1.9698,1.9698 0 0 1 8.2074,14.7494 T7.8467,13.7843 6.6835,11.4451 4.4154,8.2105 1.4229,4.7071 -0.8078,2.0998 -1.5118,1.1357 A1.8909,1.8909 0 0 1 1.5118,-1.1357 Z" stroke-linecap="round" fill="#e599f7"/></g></g><g transform="matrix(1, 0, 0, 1, 1529.5535, 6607.7165) scale(1.005873239655112, 1.005873239655112)" opacity="1"><g transform="scale(0.9941610538748145)"><path d="M1.42,-2.0418 T2.6473,-1.8119 5.1491,-0.8117 7.2868,2.4254 7.2265,6.3286 6.3028,7.7649 A2.2263,2.2263 0 0 1 2.8552,4.9472 T2.8795,3.7423 1.7519,2.2896 0.6,2.0418 A2.0826,2.0826 0 0 1 1.42,-2.0418 ZM6.591,5.4031 T6.9009,6.1198 7.6678,7.2717 8.1248,7.7068 A2.1843,2.1843 0 0 1 5.0345,10.7946 T4.2943,10.0316 3.0606,8.2888 2.5669,7.309 A2.2263,2.2263 0 0 1 6.591,5.4031 ZM8.2387,10.6716 T7.7679,11.1652 5.9262,12.1678 2.0564,12.8383 -1.6742,13.0356 -2.9059,13.0714 A2.0147,2.0147 0 0 1 -3.1341,9.0486 T-0.8502,8.8509 2.9149,8.6037 4.6584,8.192 4.9206,7.8298 A2.1843,2.1843 0 0 1 8.2387,10.6716 Z" stroke-linecap="round" fill="#e599f7"/></g></g><g transform="matrix(1, 0, 0, 1, 1542.6299, 6638.8986) scale(1.005873239655112, 1.005873239655112)" opacity="1"><g transform="scale(0.9941610538748145)"><path d="M0.2936,-1.7555 T1.7231,-1.563 5.4229,-1.5908 10.363,-1.8445 13.0327,-1.878 A1.8786,1.8786 0 0 1 13.1273,1.878 T11.7384,1.9297 8.1425,2.0837 4.2483,2.256 1.1338,2.0408 -0.2936,1.7555 A1.7799,1.7799 0 0 1 0.2936,-1.7555 Z" stroke-linecap="round" fill="#e599f7"/></g></g><g transform="matrix(1, 0, 0, 1, 1583.8707, 6630.8516) scale(1.005873239655112, 1.005873239655112)" opacity="1"><g transform="scale(0.9941610538748145)"><path d="M1.6107,0.9671 T0.9215,2.1791 -0.7358,4.4541 -3.1496,6.7828 -5.8642,8.9712 -9.7449,11.2168 -13.8308,13.1544 -15.305,13.7692 A1.8718,1.8718 0 0 1 -16.875,10.3708 T-14.2877,9.0465 -9.4837,6.2839 -5.1781,3.1064 -2.3499,0.2001 -1.6107,-0.9671 A1.8788,1.8788 0 0 1 1.6107,0.9671 Z" stroke-linecap="round" fill="#e599f7"/></g></g><g transform="matrix(1, 0, 0, 1, 1571.8002, 6632.8634) scale(1.005873239655112, 1.005873239655112)" opacity="1"><g transform="scale(0.9941610538748145)"><path d="M2.5351,-1.2189 T3.5049,-0.0446 6.1891,2.9723 9.1009,6.0451 11.9095,8.9562 13.5209,10.637 A2.0392,2.0392 0 0 1 10.6191,13.503 T9.7411,12.6382 7.4897,10.388 4.7229,7.473 2.3388,4.786 0.4166,2.4238 -0.5151,1.2189 A1.9524,1.9524 0 0 1 2.5351,-1.2189 Z" stroke-linecap="round" fill="#e599f7"/></g></g><g transform="matrix(1, 0, 0, 1, 1582.8648, 6610.7341) scale(1.005873239655112, 1.005873239655112)" opacity="1"><g transform="scale(0.9941610538748145)"><path d="M0,-2.3363 T1.9077,-2.2946 5.2653,-1.9765 8.6096,-0.635 10.504,0.4302 A2.2111,2.2111 0 0 1 7.5204,3.6941 T7.3591,3.4605 5.4989,2.7399 1.9,2.2946 0,2.3363 A2.3363,2.3363 0 0 1 0,-2.3363 ZM11.1155,2.7441 T10.8585,3.4902 8.8122,5.9213 5.387,8.2037 3.7511,8.8011 A2.2171,2.2171 0 0 1 2.365,4.5891 T4.4388,3.6424 6.7108,2.038 6.9089,1.3803 A2.2111,2.2111 0 0 1 11.1155,2.7441 ZM5.2618,6.9381 T5.2552,7.02 5.2486,7.1018 A2.222,2.222 0 0 1 0.8314,6.6146 T0.8429,6.5333 0.8543,6.452 A2.2171,2.2171 0 0 1 5.2618,6.9381 ZM3.1744,4.6403 T3.8929,4.6599 6.683,5.0407 10.0483,5.5401 11.3419,5.6783 A2.3884,2.3884 0 0 1 10.7781,10.4217 T9.4881,10.2528 6.2524,9.6464 3.6062,9.1426 2.9057,9.0762 A2.222,2.222 0 0 1 3.1744,4.6403 Z" stroke-linecap="round" fill="#e599f7"/></g></g><g transform="matrix(1, 0, 0, 1, 1600.9705, 6636.8868) scale(1.005873239655112, 1.005873239655112)" opacity="1"><g transform="scale(0.9941610538748145)"><path d="M0,-1.9481 T1.1896,-2.0033 4.7766,-2.1475 9.5305,-2.189 13.4885,-2.089 15.09,-2.0363 A2.0363,2.0363 0 0 1 15.09,2.0363 T13.4885,2.089 9.5305,2.189 4.7766,2.1475 1.1896,2.0033 0,1.9481 A1.9481,1.9481 0 0 1 0,-1.9481 Z" stroke-linecap="round" fill="#e599f7"/></g></g><g transform="matrix(1, 0, 0, 1, 1630.1409, 6622.8046) scale(1.005873239655112, 1.005873239655112)" opacity="1"><g transform="scale(0.9941610538748145)"><path d="M1.7735,-0.7087 T2.2444,0.4847 3.1737,4.0784 3.4148,8.7282 2.7971,13.4071 2.6054,18.8904 2.814,21.9442 A1.8135,1.8135 0 0 1 -0.794,22.3158 T-1.0352,20.5957 -1.5016,17.0967 -1.2561,12.9736 -0.493,8.7716 -0.5072,4.9971 -1.2936,1.8945 -1.7735,0.7087 A1.9099,1.9099 0 0 1 1.7735,-0.7087 Z" stroke-linecap="round" fill="#e599f7"/></g></g><g transform="matrix(1, 0, 0, 1, 1474.2305, 6614.7576) scale(1.005873239655112, 1.005873239655112)" opacity="1"><g transform="scale(0.9941610538748145)"><path d="M1.8462,1.4755 T0.8833,2.6549 -1.4349,5.7378 -4.1719,9.7746 -6.5966,14.2312 -7.8226,18.0379 -8.151,21.0507 -7.5823,24.2366 -5.9519,27.424 -4.2625,29.8606 -3.4894,30.7663 A2.0977,2.0977 0 0 1 -6.5706,33.6137 T-8.3628,31.7342 -11.1793,27.6709 -12.6757,23.9067 -12.9896,20.5377 -11.8849,15.4905 -9.5545,9.6951 -7.3291,5.9819 -5.1054,2.8647 -2.7847,-0.2757 -1.8462,-1.4755 A2.3633,2.3633 0 0 1 1.8462,1.4755 Z" stroke-linecap="round" fill="#e599f7"/></g></g><g transform="matrix(1, 0, 0, 1, 1640.1996, 6610.7341) scale(1.005873239655112, 1.005873239655112)" opacity="1"><g transform="scale(0.9941610538748145)"><path d="M3.0841,-0.8288 T3.5562,0.3621 5.1366,3.4847 7.3836,8.0583 8.9977,13.8721 9.7309,19.4088 9.8914,23.9015 9.4902,27.6941 8.7686,30.7554 7.3382,34.3862 4.5175,38.6698 1.698,41.7396 0.6862,42.76 A2.2776,2.2776 0 0 1 -2.7062,39.72 T-1.8025,38.6028 0.4618,35.7803 2.6526,32.3461 4.1616,28.161 4.992,23.9614 4.9671,19.948 4.4419,14.7654 3.3277,9.9145 1.2277,5.5908 -0.5854,2.0171 -1.0641,0.8288 A2.2335,2.2335 0 0 1 3.0841,-0.8288 Z" stroke-linecap="round" fill="#e599f7"/></g></g><g transform="matrix(1, 0, 0, 1, 1428.9662, 6631.8575) scale(1.005873239655112, 1.005873239655112)" opacity="1"><g transform="scale(0.9941610538748145)"><path d="M0,-0.9507 T1.9038,-1.0124 5.5228,-1.0848 8.8561,-1.0393 12.2771,-0.9325 14.08,-0.8816 A1.8916,1.8916 0 0 1 14.08,2.9016 T12.2771,2.9525 8.8561,3.0593 5.5228,3.1048 1.9038,3.0324 0,2.9707 A1.9607,1.9607 0 0 1 0,-0.9507 Z" stroke-linecap="round" fill="#e599f7"/></g></g><g transform="matrix(1, 0, 0, 1, 1423.9368, 6659.0161) scale(1.005873239655112, 1.005873239655112)" opacity="1"><g transform="scale(0.9941610538748145)"><path d="M0,-1.8523 T2.3784,-1.8326 6.617,-2.0407 10.2694,-2.4088 14.7126,-2.673 20.2766,-2.8666 24.8443,-2.9652 28.2325,-2.7681 31.4467,-2.4454 34.6501,-2.3103 38.0012,-2.2593 41.2008,-2.2507 45.476,-2.2804 49.632,-2.3234 52.5613,-2.3592 55.5311,-2.3956 58.5247,-2.4291 61.5284,-2.4595 65.9424,-2.8584 70.4107,-3.3228 73.5029,-3.4512 77.7131,-3.5456 82.7089,-3.6169 87.4914,-3.6569 92.6923,-3.686 98.0062,-3.7126 103.4735,-3.7377 109.4914,-4.1198 114.2881,-4.5664 118.5155,-4.9282 122.6524,-5.3741 126.9404,-5.6649 131.9773,-5.8377 136.7735,-5.892 141.978,-5.9091 147.0562,-5.9165 151.8617,-5.9183 156.4646,-5.9157 160.6478,-5.9121 165.0779,-5.9092 169.8153,-5.9068 174.6382,-5.905 179.3718,-5.9037 184.0434,-5.6236 188.2516,-5.1796 192.5968,-4.9588 197.3077,-4.8841 201.6526,-4.8625 206.2527,-4.8569 210.4859,-5.0584 214.5638,-5.4894 219.288,-5.7762 223.3171,-5.556 226.3447,-4.9923 227.8014,-4.7086 A2.7395,2.7395 0 0 1 226.8586,0.6886 T225.392,0.4617 221.7601,0.0731 217.4617,-0.0016 213.091,0.4589 208.6149,0.8316 204.034,0.8301 199.3424,0.8229 194.6366,0.7924 189.8844,0.6627 185.6073,0.2071 181.588,-0.1395 176.9591,-0.1357 172.0383,-0.1341 167.4013,-0.1321 162.9264,-0.1295 158.5816,-0.1261 154.2523,-0.1216 149.5803,-0.1201 144.5306,-0.1222 139.421,-0.1218 134.5551,-0.1106 129.6584,-0.0608 124.6107,0.1494 119.1286,0.6175 114.5983,0.9705 111.3949,1.129 108.0767,1.4812 103.479,1.7178 98.0067,1.6932 92.6944,1.6681 87.4996,1.6446 82.7336,1.6245 77.7908,1.6251 73.6741,1.6569 69.3163,1.8354 64.7407,2.2327 61.5322,2.4582 58.5228,2.4266 55.5277,2.3908 52.5547,2.3501 49.6195,2.3062 45.4422,2.2285 41.1298,2.1331 37.8767,2.0361 34.4047,1.8868 30.9795,1.6418 27.9345,1.2433 24.8577,0.9782 20.341,0.9462 14.8973,1.0114 10.6176,1.2016 6.8359,1.5629 2.38,1.8326 0,1.8523 A1.8523,1.8523 0 0 1 0,-1.8523 Z" stroke-linecap="round" fill="#e599f7"/></g></g><g transform="matrix(1, 0, 0, 1, 1515.4713, 6681.1453) scale(1.005873239655112, 1.005873239655112)" opacity="1"><g transform="scale(0.9941610538748145)"><path d="M0,-2.3777 T1.665,-2.3742 5.5167,-2.3798 10.1114,-1.6172 13.7064,1.1241 14.3689,5.0893 12.936,8.5623 11.0907,11.3434 8.5981,14.1042 5.1638,16.9667 3.285,18.3721 A2.411,2.411 0 0 1 0.2865,14.5959 T2.0344,13.3153 4.9416,11.0382 7.0848,8.6448 9.182,5.7923 8.9856,3.3628 5.503,2.3798 1.665,2.3742 0,2.3777 A2.3777,2.3777 0 0 1 0,-2.3777 ZM2.5331,14.1918 T3.0768,14.3542 5.5275,14.4792 9.8279,14.4182 13.6422,14.6738 16.3529,15.2317 17.6426,15.5104 A2.6557,2.6557 0 0 1 16.5574,20.7096 T14.3662,20.2443 9.7584,19.7211 5.0108,19.5022 1.8591,19.0588 1.0383,18.7762 A2.411,2.411 0 0 1 2.5331,14.1918 Z" stroke-linecap="round" fill="#40c057"/></g></g><g transform="matrix(1, 0, 0, 1, 1560.7356, 6683.157) scale(1.005873239655112, 1.005873239655112)" opacity="1"><g transform="scale(0.9941610538748145)"><path d="M2.8563,1.3871 T2.1405,2.3366 -0.1943,4.8747 -3.6958,7.9908 -7.1431,10.9683 -10.0786,13.6694 -12.9883,16.335 -14.5272,17.7494 A2.2795,2.2795 0 0 1 -17.6528,14.4306 T-16.1487,12.9792 -13.2844,10.2071 -10.1105,7.2595 -6.49,4.2237 -3.4724,1.6656 -1.5489,-0.4352 -0.8363,-1.3871 A2.3093,2.3093 0 0 1 2.8563,1.3871 Z" stroke-linecap="round" fill="#40c057"/></g></g><g transform="matrix(1, 0, 0, 1, 1548.6651, 6685.1688) scale(1.005873239655112, 1.005873239655112)" opacity="1"><g transform="scale(0.9941610538748145)"><path d="M2.7397,-1.0351 T3.466,0.1459 5.2528,3.6884 7.9683,8.0818 11.4018,11.2032 13.1802,12.2926 A2.1041,2.1041 0 0 1 10.9598,15.8674 T9.8664,15.2125 7.5365,13.7503 5.308,11.7043 3.3103,8.9042 1.4899,5.3871 -0.0223,2.2333 -0.7197,1.0351 A2.0157,2.0157 0 0 1 2.7397,-1.0351 Z" stroke-linecap="round" fill="#40c057"/></g></g><g transform="matrix(1, 0, 0, 1, 1566.7708, 6669.0748) scale(1.005873239655112, 1.005873239655112)" opacity="1"><g transform="scale(0.9941610538748145)"><path d="M1.01,-2.3285 T2.4361,-2.3087 6.2723,-1.8565 9.5363,0.682 9.4989,4.1412 7.0804,6.8132 5.5531,8.1321 A2.3002,2.3002 0 0 1 2.3789,4.8023 T3.1205,3.5456 2.4361,2.3087 1.01,2.3285 A2.3285,2.3285 0 0 1 1.01,-2.3285 ZM4.6907,4.2842 T5.1682,4.4446 7.321,4.65 11.303,5.3309 13.6098,5.9669 A2.1494,2.1494 0 0 1 12.5502,10.1331 T10.7119,9.7149 6.8261,9.2268 4.01,8.9035 3.2413,8.6502 A2.3002,2.3002 0 0 1 4.6907,4.2842 Z" stroke-linecap="round" fill="#40c057"/></g></g><g transform="matrix(1, 0, 0, 1, 1582.8648, 6696.2334) scale(1.005873239655112, 1.005873239655112)" opacity="1"><g transform="scale(0.9941610538748145)"><path d="M1.2972,-1.7149 T2.7325,-1.5311 5.8467,-1.3836 8.6388,-1.5998 9.7521,-1.7797 A1.8062,1.8062 0 0 1 10.3679,1.7797 T9.2588,1.9843 5.8532,2.2458 2.1397,2.0088 0.7228,1.7149 A1.7388,1.7388 0 0 1 1.2972,-1.7149 Z" stroke-linecap="round" fill="#40c057"/></g></g><g transform="matrix(1, 0, 0, 1, 1624.1056, 6686.1746) scale(1.005873239655112, 1.005873239655112)" opacity="1"><g transform="scale(0.9941610538748145)"><path d="M2.0503,0.6823 T1.5724,2.1153 0.2662,5.0029 -1.8894,7.625 -5.2204,10.6676 -10.2743,14.2754 -15.2815,16.9139 -17.2385,17.8197 A1.9369,1.9369 0 0 1 -18.9815,14.3603 T-17.089,13.3265 -12.7498,10.7853 -9.2417,8.2936 -7.0778,6.3391 -4.4857,3.7673 -2.5232,0.7416 -2.0503,-0.6823 A2.1609,2.1609 0 0 1 2.0503,0.6823 Z" stroke-linecap="round" fill="#40c057"/></g></g><g transform="matrix(1, 0, 0, 1, 1611.0293, 6689.1923) scale(1.005873239655112, 1.005873239655112)" opacity="1"><g transform="scale(0.9941610538748145)"><path d="M1.4545,-0.9681 T2.4134,0.4559 4.4606,3.9407 6.5417,7.667 8.1737,10.8897 10.8578,13.4791 12.9026,14.5112 A1.7849,1.7849 0 0 1 11.2374,17.6688 T9.9335,17.0355 7.1154,15.503 4.9546,12.9983 3.2889,9.5246 1.3502,5.7452 -0.5119,2.4011 -1.4545,0.9681 A1.7472,1.7472 0 0 1 1.4545,-0.9681 Z" stroke-linecap="round" fill="#40c057"/></g></g><g transform="matrix(1, 0, 0, 1, 1640.1996, 6684.1629) scale(1.005873239655112, 1.005873239655112)" opacity="1"><g transform="scale(0.9941610538748145)"><path d="M1.8537,-0.6954 T2.5865,1.2114 3.5244,4.8474 3.8642,9.2721 4.0401,14.5164 4.081,17.0653 A2.0713,2.0713 0 0 1 -0.061,17.1347 T-0.0844,15.7975 -0.1543,11.9265 -0.3317,6.9449 -1.1581,2.5963 -1.8537,0.6954 A1.9798,1.9798 0 0 1 1.8537,-0.6954 Z" stroke-linecap="round" fill="#40c057"/></g></g><g transform="matrix(1, 0, 0, 1, 1647.2407, 6692.2099) scale(1.005873239655112, 1.005873239655112)" opacity="1"><g transform="scale(0.9941610538748145)"><path d="M-0.7544,2.0344 T-2.6505,2.3138 -6.1869,2.8885 -9.7492,3.5411 -11.6713,3.8983 A1.93,1.93 0 0 1 -12.4687,0.1217 T-10.5663,-0.3286 -6.8716,-1.2083 -3.1724,-1.836 -1.2656,-2.0344 A2.0504,2.0504 0 0 1 -0.7544,2.0344 Z" stroke-linecap="round" fill="#40c057"/></g></g><g transform="matrix(1, 0, 0, 1, 1656.2936, 6678.1277) scale(1.005873239655112, 1.005873239655112)" opacity="1"><g transform="scale(0.9941610538748145)"><path d="M2.3263,-0.5167 T2.7652,1.6319 3.4656,5.4563 3.8782,8.7751 3.8786,12.1751 3.6655,15.3977 3.2938,19.495 2.7392,24.7745 2.4939,27.4222 A2.5077,2.5077 0 0 1 -2.4939,26.8978 T-2.3278,25.4286 -1.9863,22.4958 -1.5011,18.8094 -0.8944,13.6898 -0.7106,9.3178 -1.0631,6.3116 -1.8145,2.6487 -2.3263,0.5167 A2.383,2.383 0 0 1 2.3263,-0.5167 Z" stroke-linecap="round" fill="#40c057"/></g></g><g transform="matrix(1, 0, 0, 1, 1897.7031, 6442.7533) scale(1.005873239655112, 1.005873239655112)" opacity="1"><g transform="scale(0.9941610538748145)"><path d="M1.9001,0 T1.9573,1.4285 2.0635,4.8429 2.03,8.3073 1.8706,11.4329 1.7938,13.08 A1.7938,1.7938 0 0 1 -1.7938,13.08 T-1.8706,11.4329 -2.03,8.3073 -2.0635,4.8429 -1.9573,1.4285 -1.9001,0 A1.9001,1.9001 0 0 1 1.9001,0 Z" stroke-linecap="round" fill="#40c057"/></g></g><g transform="matrix(1, 0, 0, 1, 1902.7325, 6446.7768) scale(1.005873239655112, 1.005873239655112)" opacity="1"><g transform="scale(0.9941610538748145)"><path d="M-0.7731,1.8858 T-2.6805,2.0776 -6.7115,2.4947 -8.8352,2.7201 A1.7235,1.7235 0 0 1 -9.2648,-0.7001 T-7.1514,-1.007 -3.1424,-1.5998 -1.2469,-1.8858 A1.9006,1.9006 0 0 1 -0.7731,1.8858 Z" stroke-linecap="round" fill="#40c057"/></g></g><g transform="matrix(1, 0, 0, 1, 1922.85, 6407.5478) scale(1.005873239655112, 1.005873239655112)" opacity="1"><g transform="scale(0.9941610538748145)"><path d="M1.4959,-2.9008 T2.9235,-2.6688 5.9415,-2.0635 9.1605,-0.8759 11.894,1.1432 13.5745,3.7074 13.7878,7.4866 12.0057,11.7436 8.9978,14.8774 5.9097,17.3197 3.1333,19.4419 1.8571,20.4188 A3.0425,3.0425 0 0 1 -1.7905,15.5482 T-0.3532,14.4931 2.2961,12.5029 5.265,10.0041 7.4058,6.7862 5.5816,4.2622 1.9487,3.1466 0.5241,2.9008 A2.9412,2.9412 0 0 1 1.4959,-2.9008 ZM2.4514,16.137 T2.6984,16.5667 4.9292,17.258 9.0819,17.8089 12.7422,18.2621 14.2335,18.4259 A2.6985,2.6985 0 0 1 13.9265,23.8141 T12.4262,23.8074 9.4822,23.7978 5.9711,23.4344 1.6908,22.5655 -1.4533,20.9435 -2.3847,19.8301 A3.0425,3.0425 0 0 1 2.4514,16.137 Z" stroke-linecap="round" fill="#40c057"/></g></g><g transform="matrix(1, 0, 0, 1, 1959.0614, 6415.5947) scale(1.005873239655112, 1.005873239655112)" opacity="1"><g transform="scale(0.9941610538748145)"><path d="M1.8326,1.2197 T0.9254,2.6776 -0.9844,5.4703 -3.6333,8.7307 -7.7858,12.5842 -12.0812,15.6635 -13.8703,16.8148 A2.1124,2.1124 0 0 1 -16.3097,13.3652 T-14.628,12.0621 -10.9406,9.0143 -7.333,5.5455 -4.776,2.6999 -2.8269,0.1793 -1.8326,-1.2197 A2.2014,2.2014 0 0 1 1.8326,1.2197 Z" stroke-linecap="round" fill="#40c057"/></g></g><g transform="matrix(1, 0, 0, 1, 1945.9851, 6416.6006) scale(1.005873239655112, 1.005873239655112)" opacity="1"><g transform="scale(0.9941610538748145)"><path d="M1.7431,-0.8716 T2.2443,0.0653 3.7507,2.532 5.9325,6.2033 8.4346,10.7231 9.76,13.1015 A1.9702,1.9702 0 0 1 6.34,15.0585 T4.961,12.7107 2.3314,8.2624 0.1184,4.4813 -1.2935,1.8362 -1.7431,0.8716 A1.9489,1.9489 0 0 1 1.7431,-0.8716 Z" stroke-linecap="round" fill="#40c057"/></g></g><g transform="matrix(1, 0, 0, 1, 1964.0908, 6394.4714) scale(1.005873239655112, 1.005873239655112)" opacity="1"><g transform="scale(0.9941610538748145)"><path d="M-0.4169,-3.5283 T1.0228,-3.7603 4.0112,-3.8912 7.6633,-2.7323 10.3304,-0.2818 10.4716,2.6979 8.8054,5.4079 6.2146,7.4473 5.1104,8.8473 5.3533,9.3311 A2.5835,2.5835 0 0 1 0.256,8.4855 T1.7008,6.2925 4.6758,2.9106 4.7287,1.374 1.8342,1.2673 0.4169,1.5083 A2.5525,2.5525 0 0 1 -0.4169,-3.5283 ZM3.6711,6.4744 T4.4373,6.7248 7.4865,7.4177 11.2095,8.2513 12.6496,8.6425 A2.486,2.486 0 0 1 11.4904,13.4775 T10.0294,13.1731 6.0175,12.3998 2.7023,11.6366 1.9382,11.3422 A2.5835,2.5835 0 0 1 3.6711,6.4744 Z" stroke-linecap="round" fill="#40c057"/></g></g><g transform="matrix(1, 0, 0, 1, 1975.1554, 6425.6535) scale(1.005873239655112, 1.005873239655112)" opacity="1"><g transform="scale(0.9941610538748145)"><path d="M0,-1.8678 T1.9038,-1.9548 6.1762,-2.0856 11.3124,-2.0183 14.08,-1.9073 A1.9073,1.9073 0 0 1 14.08,1.9073 T11.3124,2.0183 6.1762,2.0856 1.9038,1.9548 0,1.8678 A1.8678,1.8678 0 0 1 0,-1.8678 Z" stroke-linecap="round" fill="#40c057"/></g></g><g transform="matrix(1, 0, 0, 1, 2012.3727, 6416.6006) scale(1.005873239655112, 1.005873239655112)" opacity="1"><g transform="scale(0.9941610538748145)"><path d="M1.8032,0.3621 T1.5584,1.5921 0.3389,4.2796 -2.4249,7.8019 -6.2413,11.7341 -9.6566,14.5422 -12.5402,16.5078 -14.0359,17.5327 A1.7868,1.7868 0 0 1 -16.1441,14.6473 T-14.7133,13.5338 -12.0437,11.4417 -8.955,8.8093 -6.0535,6.0717 -3.6356,3.4622 -2.0362,0.7871 -1.8032,-0.3621 A1.8392,1.8392 0 0 1 1.8032,0.3621 Z" stroke-linecap="round" fill="#40c057"/></g></g><g transform="matrix(1, 0, 0, 1, 1998.2905, 6419.6182) scale(1.005873239655112, 1.005873239655112)" opacity="1"><g transform="scale(0.9941610538748145)"><path d="M2.1491,-1.4253 T3.3486,-0.487 6.1702,1.8342 9.324,4.8988 12.0929,8.3742 14.7983,11.4067 16.2666,12.6456 A1.8552,1.8552 0 0 1 13.9134,15.5144 T12.0683,14.0355 8.9773,10.7897 6.4733,7.5417 3.7228,4.7061 1.0506,2.3884 -0.1291,1.4253 A1.8246,1.8246 0 0 1 2.1491,-1.4253 Z" stroke-linecap="round" fill="#40c057"/></g></g><g transform="matrix(1, 0, 0, 1, 2027.4608, 6414.5889) scale(1.005873239655112, 1.005873239655112)" opacity="1"><g transform="scale(0.9941610538748145)"><path d="M1.6996,-0.4641 T2.4625,2.1385 3.6524,6.6502 4.2774,10.3303 4.6847,13.9857 4.894,15.87 A1.8869,1.8869 0 0 1 1.146,16.31 T0.9133,14.4283 0.4819,10.9374 -0.0427,7.5249 -1.034,3.0929 -1.6996,0.4641 A1.7618,1.7618 0 0 1 1.6996,-0.4641 Z" stroke-linecap="round" fill="#40c057"/></g></g><g transform="matrix(1, 0, 0, 1, 2032.4902, 6422.6358) scale(1.005873239655112, 1.005873239655112)" opacity="1"><g transform="scale(0.9941610538748145)"><path d="M0.2946,1.7615 T-1.1252,2.0513 -3.9332,2.7094 -7.9175,3.8417 -10.5135,4.6057 A1.6773,1.6773 0 0 1 -11.6065,1.4343 T-8.9287,0.3808 -4.7099,-1.0292 -1.7317,-1.5736 -0.2946,-1.7615 A1.7859,1.7859 0 0 1 0.2946,1.7615 Z" stroke-linecap="round" fill="#40c057"/></g></g><g transform="matrix(1, 0, 0, 1, 2046.5724, 6398.4949) scale(1.005873239655112, 1.005873239655112)" opacity="1"><g transform="scale(0.9941610538748145)"><path d="M1.9187,-0.1752 T2.1674,2.4396 2.5736,7.4204 2.8282,12.2305 2.9811,16.9115 3.0718,21.0415 3.1121,24.4114 2.8494,27.3339 2.2352,31.0874 1.8892,33.3952 A1.9003,1.9003 0 0 1 -1.8892,32.9848 T-1.7999,31.716 -1.4257,28.1744 -1.1548,24.4389 -1.1707,21.0954 -1.1868,17.0012 -1.2365,12.3952 -1.3664,7.7055 -1.6897,2.7918 -1.9187,0.1752 A1.9267,1.9267 0 0 1 1.9187,-0.1752 Z" stroke-linecap="round" fill="#40c057"/></g></g><g transform="matrix(1, 0, 0, 1, 1911.7854, 6445.7709) scale(1.005873239655112, 1.005873239655112)" opacity="1"><g transform="scale(0.9941610538748145)"><path d="M0,-1.4402 T1.665,-1.4416 6.1099,-1.4639 11.4927,-1.2456 17.0066,-1.1747 22.3362,-1.4205 27.2277,-1.5381 32.1908,-1.6014 36.705,-1.6405 40.3334,-1.8961 43.9174,-2.28 47.6448,-2.502 51.0314,-2.6188 54.2482,-2.6795 57.4291,-2.9387 60.7638,-3.3182 64.3724,-3.5337 67.9451,-3.6486 71.2503,-3.712 75.3559,-3.7595 80.3634,-3.8019 85.0241,-3.8338 89.4609,-3.8634 94.8016,-3.8976 100.6438,-3.9302 106.3109,-4.1783 111.2031,-4.5479 114.7346,-4.7485 117.8235,-5.0694 120.8623,-5.478 124.3441,-5.7125 127.9126,-6.0523 131.4452,-6.4666 135.5035,-6.9166 139.7023,-7.1229 143.8903,-6.9285 145.9594,-6.8221 A2.8043,2.8043 0 0 1 145.7406,-1.2179 T143.6696,-1.2731 140.0014,-1.3853 136.1437,-1.1052 132.1395,-0.6324 128.4961,-0.2022 123.4547,0.298 118.415,0.7951 115.0583,1.1525 111.7712,1.3327 106.6877,1.6853 100.6438,1.9103 94.8019,1.8779 89.4623,1.8446 85.0287,1.818 80.3797,1.797 75.4019,1.7941 71.3437,1.8159 68.1095,1.8636 64.6946,1.9598 61.3625,2.1447 57.8457,2.5248 54.3443,2.8007 51.1998,2.8488 47.9367,2.9384 44.4672,3.1083 40.7136,3.4677 36.7372,3.7162 32.2421,3.7271 27.326,3.7587 22.4915,3.8211 16.5909,3.917 10.9864,3.7386 6.1099,3.4839 1.665,3.4616 0,3.4602 A2.4502,2.4502 0 0 1 0,-1.4402 Z" stroke-linecap="round" fill="#40c057"/></g></g><g transform="matrix(1, 0, 0, 1, 1937.9381, 6473.9354) scale(1.005873239655112, 1.005873239655112)" opacity="1"><g transform="scale(0.9941610538748145)"><path d="M1.9592,1.0889 T0.7945,3.2475 -1.8149,7.2021 -4.5427,10.199 -6.9034,12.4354 -10.0591,14.8317 -13.1681,16.6105 -14.199,17.0286 A2.1335,2.1335 0 0 1 -15.981,13.1514 T-14.9924,12.6413 -12.6339,11.0781 -10.1449,8.9675 -7.9445,6.9432 -5.6258,4.5659 -3.1737,1.0331 -1.9592,-1.0889 A2.2415,2.2415 0 0 1 1.9592,1.0889 Z" stroke-linecap="round" fill="#40c057"/></g></g><g transform="matrix(1, 0, 0, 1, 1925.8676, 6474.9413) scale(1.005873239655112, 1.005873239655112)" opacity="1"><g transform="scale(0.9941610538748145)"><path d="M1.677,-0.8385 T2.1834,0.0981 3.3829,2.664 5.3298,6.0285 7.88,9.1728 10.2447,11.6081 11.3129,12.6343 A1.913,1.913 0 0 1 8.8071,15.5257 T7.6395,14.6142 4.6641,11.8765 1.5837,7.9903 -0.2386,4.3493 -1.2326,1.8033 -1.677,0.8385 A1.8749,1.8749 0 0 1 1.677,-0.8385 Z" stroke-linecap="round" fill="#40c057"/></g></g><g transform="matrix(1, 0, 0, 1, 1941.9616, 6454.8238) scale(1.005873239655112, 1.005873239655112)" opacity="1"><g transform="scale(0.9941610538748145)"><path d="M-0.2669,-2.1273 T1.6389,-2.3854 5.2423,-2.5633 8.3876,-2.1805 10.8099,-1.3699 11.7844,-0.8619 A2.3213,2.3213 0 0 1 9.4089,3.127 T9.0611,2.8476 6.3919,2.1281 2.1687,1.9076 0.2669,2.1273 A2.1439,2.1439 0 0 1 -0.2669,-2.1273 ZM12.8886,0.7648 T12.9493,1.686 11.7009,4.4259 10.9306,7.9078 11.7007,10.655 11.932,11.739 A2.2699,2.2699 0 0 1 7.4693,12.5724 T7.3781,11.9293 6.4317,10.1029 5.3694,7.1374 6.8919,3.8723 8.4631,1.9449 8.3047,1.5004 A2.3213,2.3213 0 0 1 12.8886,0.7648 ZM11.4235,13.6336 T11.0359,14.0911 8.6573,15.647 4.2393,16.2526 0.1766,14.1424 -1.4589,12.5249 A2.0675,2.0675 0 0 1 1.4589,9.5951 T2.5056,10.649 5.3719,11.643 7.5846,11.1305 7.9778,10.6778 A2.2699,2.2699 0 0 1 11.4235,13.6336 Z" stroke-linecap="round" fill="#40c057"/></g></g><g transform="matrix(1, 0, 0, 1, 1971.1319, 6467.9001) scale(1.005873239655112, 1.005873239655112)" opacity="1"><g transform="scale(0.9941610538748145)"><path d="M1.4234,-0.1588 T1.727,1.9743 2.1947,5.7328 2.6076,8.8342 3.1559,12.0547 3.4555,13.7992 A1.4725,1.4725 0 0 1 0.5645,14.3608 T0.1892,12.6309 -0.5429,9.2587 -0.9875,6.0352 -1.2493,2.3064 -1.4234,0.1588 A1.4322,1.4322 0 0 1 1.4234,-0.1588 Z" stroke-linecap="round" fill="#40c057"/></g></g><g transform="matrix(1, 0, 0, 1, 1976.1612, 6474.9413) scale(1.005873239655112, 1.005873239655112)" opacity="1"><g transform="scale(0.9941610538748145)"><path d="M0,1.9526 T-3.0927,1.9938 -8.1784,2.2549 -12.5186,2.7306 -14.8658,2.9865 A1.9892,1.9892 0 0 1 -15.3142,-0.9665 T-12.9694,-1.2429 -8.4064,-1.7772 -3.0942,-1.9938 0,-1.9526 A1.9526,1.9526 0 0 1 0,1.9526 Z" stroke-linecap="round" fill="#40c057"/></g></g><g transform="matrix(1, 0, 0, 1, 1998.2905, 6469.9119) scale(1.005873239655112, 1.005873239655112)" opacity="1"><g transform="scale(0.9941610538748145)"><path d="M1.6374,0.8187 T0.4903,3.2232 -2.0635,7.5394 -4.6604,10.894 -7.0543,13.421 -10.0395,15.3452 -13.5504,16.9667 -15.2796,17.7482 A1.8456,1.8456 0 0 1 -16.9004,14.4318 T-15.2213,13.5476 -11.2715,11.1535 -7.8269,8.3129 -5.3772,5.4358 -2.8695,1.5352 -1.6374,-0.8187 A1.8307,1.8307 0 0 1 1.6374,0.8187 Z" stroke-linecap="round" fill="#40c057"/></g></g><g transform="matrix(1, 0, 0, 1, 1986.22, 6470.9178) scale(1.005873239655112, 1.005873239655112)" opacity="1"><g transform="scale(0.9941610538748145)"><path d="M1.4782,-1.231 T2.6911,0.1795 5.3825,3.5605 7.6479,6.9203 9.6731,9.9833 11.7623,12.7292 12.6133,13.8016 A2.0181,2.0181 0 0 1 9.5067,16.3784 T7.7318,14.3232 4.7924,10.1975 2.2412,6.1254 -0.3119,2.6775 -1.4782,1.231 A1.9237,1.9237 0 0 1 1.4782,-1.231 Z" stroke-linecap="round" fill="#40c057"/></g></g><g transform="matrix(1, 0, 0, 1, 2003.3198, 6453.8179) scale(1.005873239655112, 1.005873239655112)" opacity="1"><g transform="scale(0.9941610538748145)"><path d="M1.3656,-2.4785 T3.0261,-2.2087 6.8636,-1.4215 9.0407,-0.9041 A2.385,2.385 0 0 1 7.3985,3.5744 T5.6959,3.2344 2.3238,2.6864 0.6544,2.4785 A2.5038,2.5038 0 0 1 1.3656,-2.4785 ZM10.4981,0.6304 T10.686,1.268 10.8738,1.9057 A2.3671,2.3671 0 0 1 6.351,3.3045 T6.146,2.6722 5.9411,2.0399 A2.385,2.385 0 0 1 10.4981,0.6304 ZM10.5985,3.893 T10.205,4.4742 7.97,6.424 5.6216,8.5682 5.1148,9.3438 A2.3215,2.3215 0 0 1 1.448,6.4955 T3.6869,4.4721 6.276,1.883 6.6263,1.3172 A2.3671,2.3671 0 0 1 10.5985,3.893 ZM4.3975,5.884 T4.8797,6.1699 6.7957,6.8871 11.2166,7.6403 14.2036,7.9623 A2.1013,2.1013 0 0 1 13.9564,12.1577 T12.3074,12.1342 9.0525,12.0885 5.8127,11.5413 3.172,10.4858 2.1652,9.9553 A2.3215,2.3215 0 0 1 4.3975,5.884 Z" stroke-linecap="round" fill="#40c057"/></g></g><g transform="matrix(1, 0, 0, 1, 2032.4902, 6465.8884) scale(1.005873239655112, 1.005873239655112)" opacity="1"><g transform="scale(0.9941610538748145)"><path d="M1.4241,-0.2033 T1.9096,3.1252 2.932,10.1627 3.469,13.8717 A1.4738,1.4738 0 0 1 0.551,14.2883 T0.0287,10.5772 -0.9588,3.5347 -1.4241,0.2033 A1.4385,1.4385 0 0 1 1.4241,-0.2033 Z" stroke-linecap="round" fill="#40c057"/></g></g><g transform="matrix(1, 0, 0, 1, 2037.5195, 6473.9354) scale(1.005873239655112, 1.005873239655112)" opacity="1"><g transform="scale(0.9941610538748145)"><path d="M-0.2036,1.6229 T-2.105,1.4438 -5.9618,1.6062 -10.3612,2.3351 -12.8053,2.7224 A1.7343,1.7343 0 0 1 -13.3547,-0.7024 T-10.9122,-1.0991 -6.0393,-1.858 -1.7026,-1.9215 0.2036,-1.6229 A1.6357,1.6357 0 0 1 -0.2036,1.6229 Z" stroke-linecap="round" fill="#40c057"/></g></g><g transform="matrix(1, 0, 0, 1, 2046.5724, 6461.8649) scale(1.005873239655112, 1.005873239655112)" opacity="1"><g transform="scale(0.9941610538748145)"><path d="M1.9582,-0.1405 T2.215,3.1882 2.6252,9.2497 2.6293,14.2526 2.4137,18.5654 2.2646,22.9267 2.1818,25.2454 A2.1839,2.1839 0 0 1 -2.1818,25.0546 T-2.062,22.7376 -1.8267,18.3027 -1.5153,14.1768 -1.4179,9.4859 -1.7373,3.4717 -1.9582,0.1405 A1.9633,1.9633 0 0 1 1.9582,-0.1405 Z" stroke-linecap="round" fill="#40c057"/></g></g></svg>