<svg xmlns="http://www.w3.org/2000/svg" direction="ltr" width="308.3499999999999" height="312.5499999999993" viewBox="1091.2256219525013 11659.638498980774 308.3499999999999 312.5499999999993" stroke-linecap="round" stroke-linejoin="round" style="background-color: transparent;"><defs/><g transform="matrix(1, 0, 0, 1, 1123.2256, 11845.0665) scale(0.7427035966231403, 0.7427035966231403)" opacity="1"><g transform="scale(1.34643214944254)"><path d="M0,-1.5992 T1.0548,-1.5884 3.4007,-1.5703 5.8556,-1.562 8.3017,-1.6823 10.7782,-2.0001 13.1871,-2.2449 15.6308,-2.3114 18.097,-2.3372 20.8412,-2.6088 24.0291,-2.9675 26.9673,-3.0888 29.3807,-3.1272 31.7527,-3.1459 34.2896,-3.158 36.8722,-3.167 39.4649,-3.1739 42.0629,-3.1806 44.6624,-3.1884 47.7428,-3.4589 50.7404,-3.8091 53.2357,-3.9159 55.8104,-3.9458 58.3128,-3.9555 60.71,-3.9594 63.521,-3.9617 66.8915,-3.9635 70.5096,-3.965 74.1953,-3.966 77.4417,-4.1206 80.2104,-4.4345 82.8692,-4.6357 85.4976,-4.6883 88.2845,-4.7027 90.935,-4.7068 93.549,-4.7105 96.4202,-4.7154 99.3627,-4.7193 102.3251,-4.725 105.293,-4.7334 108.4398,-4.7432 111.7285,-4.754 115.1477,-4.764 118.6884,-4.7734 122.0864,-4.7816 125.4426,-4.7878 128.7883,-4.7925 132.2234,-4.7962 135.7671,-4.7991 139.3411,-4.8013 142.8396,-4.8029 146.0498,-4.804 149.0865,-4.8049 152.083,-4.8062 155.1745,-4.5362 158.1731,-4.2007 160.7709,-4.1194 163.3756,-4.1015 166.3601,-3.8297 169.3286,-3.4946 172.0111,-3.4137 174.6333,-3.3955 177.2344,-3.399 179.8353,-3.4102 182.3431,-3.4212 185.3269,-3.4319 188.3007,-3.4408 190.6851,-3.4464 193.2252,-3.4514 196.1609,-3.456 199.216,-3.4599 202.0346,-3.465 204.8658,-3.2577 207.9044,-2.9164 211.0704,-2.768 214.5235,-2.7475 217.5492,-2.7461 220.0923,-2.7502 223.079,-2.758 226.0827,-2.7658 228.9442,-2.7679 232.0129,-3.0924 235.1549,-3.4708 238.1794,-3.528 241.2914,-3.4977 243.6272,-3.4349 244.3495,-3.4069 A1.9169,1.9169 0 0 1 244.3505,0.4269 T243.6281,0.4553 241.6971,0.5173 239.1845,0.5599 236.4395,0.59 233.8432,0.6602 231.586,0.998 228.9879,1.2879 226.0826,1.2857 223.0784,1.2776 220.0896,1.2687 217.5425,1.2604 214.503,1.2469 210.9785,1.214 207.9001,1.0979 204.9375,0.747 202.0346,0.485 199.216,0.4799 196.1609,0.476 193.2252,0.4714 190.6851,0.4664 188.3007,0.4608 185.8384,0.4536 183.3937,0.4451 181.0165,0.4347 178.5885,0.4213 175.977,0.4054 173.3336,0.3818 170.578,0.322 167.4195,0.1078 164.5555,-0.219 161.9629,-0.3916 159.2544,-0.4519 156.2697,-0.6621 153.3557,-0.981 150.5852,-1.1348 147.5801,-1.1355 144.4834,-1.1365 141.0576,-1.1379 137.4169,-1.1398 133.9695,-1.1422 130.5794,-1.1454 127.059,-1.1498 123.7081,-1.1551 120.3375,-1.1624 116.8918,-1.172 113.5077,-1.1821 110.0173,-1.192 106.7792,-1.2024 103.8103,-1.2112 100.8443,-1.2176 97.8889,-1.2224 94.9714,-1.2265 92.1904,-1.2296 89.5682,-1.229 86.8893,-1.222 84.3348,-1.1965 81.3874,-1.0309 77.8233,-0.6895 74.1953,-0.494 70.5096,-0.495 66.8916,-0.4963 63.5216,-0.4979 60.712,-0.499 58.3193,-0.4989 55.8382,-0.494 53.3281,-0.4712 50.4638,-0.3204 47.3966,0.0123 44.6624,0.2084 42.063,0.2007 39.4651,0.1941 36.8727,0.1874 34.2917,0.1796 31.7597,0.1716 29.404,0.1677 27.0403,0.1829 24.3768,0.2541 21.6655,0.5903 19.2128,0.8693 16.6969,0.8665 13.803,0.899 10.779,1.2432 8.1684,1.5572 5.8556,1.562 3.4007,1.5703 1.0548,1.5884 0,1.5992 A1.5992,1.5992 0 0 1 0,-1.5992 Z" stroke-linecap="round" fill="#9398b0"/></g></g><g transform="matrix(1, 0, 0, 1, 1162.9892, 11931.8167) scale(0.24572622450863993, 0.24572622450863993)" opacity="1"><g transform="scale(4.069569709133098)"><path d="M-0.6255,-0.1556 T-0.5032,-0.6197 -0.2206,-1.8431 0.0741,-3.177 0.3406,-4.6093 0.6144,-6.3269 0.8765,-7.8985 1.0929,-9.3986 1.2397,-10.854 1.3956,-12.1271 1.6184,-13.3937 1.9235,-14.8189 2.3356,-16.3745 2.8915,-18.027 3.4832,-19.7297 3.9898,-21.427 4.5757,-23.1624 5.1795,-24.9231 5.6865,-26.7171 6.2688,-28.5702 6.8606,-30.5033 7.4279,-32.527 8.0251,-34.4712 8.4851,-36.2611 8.8628,-38.1008 9.2972,-39.9959 9.7697,-41.9273 10.1526,-43.9385 10.5182,-46.0533 10.9802,-48.1807 11.3691,-50.2237 11.7415,-52.2142 12.2009,-54.162 12.6763,-56.1215 13.0872,-58.1243 13.3487,-59.7268 13.6594,-61.426 13.9966,-63.1339 14.2638,-64.8273 14.5231,-66.5332 14.8698,-68.2716 15.2274,-69.9988 15.4714,-71.1972 15.7196,-72.4121 15.9666,-73.6323 16.4041,-75.4236 16.8626,-77.2294 17.1428,-78.4856 17.4113,-79.7398 17.6681,-80.9813 17.9883,-82.2058 18.536,-83.9986 19.0451,-85.7687 19.4101,-86.9867 19.7735,-88.2094 20.1395,-89.3901 20.7132,-91.1556 21.2329,-92.9088 21.5948,-94.1686 21.9571,-95.4727 22.3272,-96.7537 22.6967,-98.0083 23.0648,-99.2475 23.4354,-100.483 23.8061,-101.7158 24.2447,-102.9823 24.6402,-104.1962 25.0283,-105.3722 25.4764,-106.5493 25.9442,-107.6941 26.5702,-109.3494 27.182,-111.0216 27.6411,-112.1895 28.2622,-113.8956 28.8785,-115.6094 29.3491,-116.7747 29.9799,-118.443 30.834,-120.636 31.5439,-122.2659 32.1721,-123.8526 32.7831,-125.4879 33.2522,-126.6366 33.8785,-128.2555 34.498,-129.8658 35.1143,-131.4668 35.731,-133.0655 36.4513,-134.6434 37.3339,-136.5694 38.2138,-138.3978 39.2708,-140.2489 40.3648,-142.0053 41.3859,-143.6975 42.3883,-145.3361 43.468,-146.9234 44.5641,-148.5185 45.6655,-150.1162 46.874,-151.7339 48.0097,-153.2852 49.1048,-154.801 50.2305,-156.2615 51.3593,-157.6257 52.5352,-159.0438 53.6458,-160.4801 54.671,-161.9053 55.7751,-163.3856 56.9645,-164.9105 58.0796,-166.4671 59.2091,-168.023 60.3927,-169.6292 61.5902,-171.2441 62.7392,-172.7376 63.9629,-174.2331 65.2914,-175.6705 66.5809,-176.9835 67.9305,-178.2497 69.2845,-179.4291 70.6726,-180.5231 72.1392,-181.5505 73.6582,-182.518 75.1428,-183.4104 76.6206,-184.2808 78.1464,-185.1131 79.6342,-185.8761 81.0868,-186.5759 82.5861,-187.227 84.1103,-187.8882 85.6762,-188.5228 87.2471,-189.0298 88.673,-189.4306 90.075,-189.8518 91.4458,-190.3159 92.839,-190.7237 94.3528,-191.0705 95.7221,-191.4161 97.0441,-191.7425 98.4058,-192.0253 99.6841,-192.2755 101.0982,-192.4776 102.7741,-192.6631 104.3928,-192.7969 106.0123,-192.8339 107.7811,-192.8418 109.2532,-192.8404 110.4712,-192.8373 111.9548,-192.8339 113.6298,-192.8319 115.07,-192.7418 116.4327,-192.6251 117.8322,-192.5228 119.3278,-192.3316 120.8732,-192.1619 122.4086,-191.99 124.0935,-191.7812 125.7967,-191.5736 127.3631,-191.3092 128.9416,-190.9532 130.5391,-190.585 132.1356,-190.2134 133.8194,-189.7625 135.4175,-189.2797 136.9122,-188.791 138.3675,-188.294 139.6813,-187.8175 140.8455,-187.3548 142.2537,-186.8611 143.6804,-186.3585 144.8124,-185.8789 145.9254,-185.3919 147.0771,-184.8985 148.1973,-184.4097 149.5557,-183.7987 150.9093,-183.1873 152.1937,-182.5671 153.4894,-181.9417 154.6357,-181.4203 155.7954,-180.9351 157.1063,-180.3538 158.5561,-179.7347 159.9634,-179.1107 161.3736,-178.3879 162.7401,-177.6742 164.074,-177.0583 165.3912,-176.4366 166.6687,-175.7064 167.8851,-175.0799 169.2057,-174.4715 170.6021,-173.746 171.9361,-173.1298 173.3529,-172.533 174.8426,-171.8081 176.3231,-171.0733 177.8256,-170.355 179.1489,-169.7485 180.3799,-169.2161 181.7768,-168.5918 183.2063,-168.003 184.6383,-167.5184 186.1075,-167.0327 187.6076,-166.5602 189.1322,-166.1656 190.4902,-165.8772 191.7777,-165.6235 193.2428,-165.3602 194.8518,-165.0813 196.6737,-164.7079 198.2782,-164.2683 199.5558,-163.8355 200.215,-163.6144 A0.7212,0.7212 0 0 1 199.825,-162.2256 T199.1471,-162.3799 197.8877,-162.6595 196.4056,-162.9198 194.6625,-163.1574 193.0225,-163.369 191.52,-163.5976 190.2031,-163.8411 188.6527,-164.1774 186.8857,-164.6523 185.3185,-165.1627 183.844,-165.6607 182.3605,-166.1806 181.0757,-166.7306 179.9515,-167.233 178.6011,-167.8123 177.2561,-168.4328 175.9373,-169.0659 174.4639,-169.8052 173.0065,-170.5309 171.6348,-171.1737 170.2724,-171.8036 168.8508,-172.4955 167.4994,-173.1189 166.1392,-173.7923 164.8167,-174.5459 163.6435,-175.1852 162.2923,-175.8135 160.8791,-176.5041 159.648,-177.1915 158.2902,-177.8052 156.8064,-178.4375 155.4226,-179.0841 154.1877,-179.5971 152.8698,-180.1874 151.3884,-180.9191 149.8813,-181.644 148.5328,-182.2623 147.1812,-182.8795 145.5563,-183.6068 143.8693,-184.3389 142.4639,-184.912 141.3263,-185.2843 140.1832,-185.6865 138.8407,-186.2146 137.5167,-186.6973 136.2209,-187.1401 134.7465,-187.6265 133.2642,-188.0733 131.9478,-188.4088 130.674,-188.7243 129.0804,-189.0912 127.5071,-189.4519 125.9824,-189.7478 124.415,-189.9565 123.0634,-190.0788 121.7082,-190.211 120.1322,-190.4315 118.5141,-190.6541 116.9123,-190.7729 115.2536,-190.8875 113.6271,-190.9881 111.9548,-190.986 110.4714,-190.9825 109.2539,-190.979 107.7857,-190.9748 106.0411,-190.9625 104.524,-190.9285 103.2324,-190.8042 101.9666,-190.6722 100.7203,-190.515 99.4129,-190.2681 98.0936,-190.0122 96.8313,-189.7251 95.5112,-189.4359 94.0486,-189.0915 92.7021,-188.7107 91.3706,-188.2987 89.8773,-187.8314 88.4585,-187.4572 87.0444,-187.0543 85.62,-186.5053 84.1427,-185.8756 82.591,-185.1778 81.1586,-184.5314 79.748,-183.8746 78.2992,-183.1195 76.8259,-182.2602 75.3582,-181.3973 73.9149,-180.5203 72.4738,-179.5378 71.125,-178.56 69.8162,-177.4503 68.5486,-176.2775 67.2794,-175.043 65.991,-173.6968 64.8081,-172.3124 63.6406,-170.8454 62.4666,-169.3475 61.3116,-167.739 60.1914,-166.1613 59.0665,-164.5636 57.8893,-162.9588 56.7675,-161.5199 55.7032,-160.0584 54.5817,-158.5824 53.415,-157.1079 52.2919,-155.742 51.175,-154.409 50.0895,-152.9379 49.0059,-151.3993 47.831,-149.7753 46.6944,-148.2185 45.5932,-146.6279 44.5046,-145.0503 43.4961,-143.5581 42.4839,-141.9 41.3992,-140.1843 40.3714,-138.476 39.4734,-136.6903 38.6124,-134.8159 37.7345,-132.853 37.08,-131.2947 36.4612,-129.6919 35.8386,-128.0878 35.1996,-126.4635 34.5412,-124.8092 34.0975,-123.6756 33.4461,-122.0657 32.7678,-120.4375 32.1025,-118.8601 31.2478,-116.7044 30.59,-114.9668 30.1523,-113.8124 29.7482,-112.681 29.3157,-111.5233 28.6432,-109.8552 27.779,-107.6396 26.9266,-105.3979 26.3191,-103.6515 25.9152,-102.4041 25.5011,-101.2083 25.1334,-99.9764 24.7668,-98.7432 24.4004,-97.5059 24.0313,-96.26 23.6641,-94.9954 23.2916,-93.6769 22.9142,-92.3927 22.5413,-91.188 21.9739,-89.4812 21.4328,-87.7144 21.0659,-86.4904 20.7003,-85.2734 20.339,-84.0688 19.8152,-82.3738 19.3545,-80.6302 19.093,-79.3777 18.818,-78.1077 18.5155,-76.782 18.0615,-75.0031 17.647,-73.2951 17.4036,-72.0718 17.1609,-70.8577 16.9224,-69.6552 16.5784,-67.9436 16.249,-66.2443 15.9891,-64.5187 15.7108,-62.7881 15.3676,-61.1135 14.9768,-58.9214 14.5543,-56.765 14.0543,-54.7414 13.5761,-52.8116 13.153,-50.8783 12.7674,-48.8616 12.3428,-46.8008 11.9165,-44.732 11.5235,-42.6574 11.0773,-40.613 10.6018,-38.6511 10.2,-36.785 9.743,-34.9622 9.1205,-33.0938 8.5117,-31.1215 7.9327,-29.1408 7.3157,-27.2455 6.7465,-25.4442 6.1713,-23.6079 5.5623,-21.8309 5.0008,-20.146 4.4316,-18.4049 3.8428,-16.7444 3.3537,-15.2559 3.0268,-13.8481 2.7335,-12.2972 2.4985,-10.6877 2.3448,-9.1945 2.1293,-7.7494 1.8832,-6.3826 1.6281,-4.9259 1.3137,-3.2009 0.9889,-1.5294 0.735,-0.3121 0.6255,0.1556 A0.6446,0.6446 0 0 1 -0.6255,-0.1556 Z" stroke-linecap="round" fill="#ff8787"/></g></g><g transform="matrix(1, 0, 0, 1, 1285.3609, 11740.8874) scale(0.24572622450863993, 0.24572622450863993)" opacity="1"><g transform="scale(4.069569709133098)"><path d="M0.1499,0.7374 T-0.2542,0.765 -1.0853,0.5509 -1.5124,0.3092 A0.7344,0.7344 0 0 1 -0.5876,-0.8317 T-0.5465,-0.6939 -0.3276,-0.6467 -0.1499,-0.7374 A0.7525,0.7525 0 0 1 0.1499,0.7374 ZM-1.7134,-0.576 T-1.5345,-0.8677 -0.4881,-1.1696 0.6396,-0.6079 0.6739,0.52 -0.1657,1.1529 -1.1021,0.549 -1.0207,-0.7864 -0.1154,-1.559 0.3854,-1.6771 A0.724,0.724 0 0 1 0.5573,-0.2393 T0.0705,-0.147 -0.4014,-0.0006 -0.3865,0.0535 A0.7344,0.7344 0 0 1 -1.7134,-0.576 ZM1.0799,-1.3505 T1.3036,-0.9942 1.315,0.1125 0.9469,1.0355 0.791,1.208 A0.7154,0.7154 0 0 1 -0.291,0.272 T-0.0704,0.0666 0.0065,-0.3523 -0.1372,-0.566 A0.724,0.724 0 0 1 1.0799,-1.3505 Z" stroke-linecap="round" fill="#40c057"/></g></g><g transform="matrix(1, 0, 0, 1, 1288.5553, 11840.6523) scale(0.24572622450863993, 0.24572622450863993)" opacity="1"><g transform="scale(4.069569709133098)"><path d="M0.6317,0 T0.6312,0.2318 0.6309,1.2463 0.6327,2.6234 0.6349,3.5738 0.6353,3.93 A0.6353,0.6353 0 0 1 -0.6353,3.93 T-0.6349,3.5738 -0.6327,2.6234 -0.6309,1.2463 -0.6312,0.2318 -0.6317,0 A0.6317,0.6317 0 0 1 0.6317,0 ZM-0.6353,3.93 T-0.633,3.6183 -0.557,2.7247 -0.4389,1.6084 -0.3943,1.0742 A0.6088,0.6088 0 0 1 0.8212,1.1459 T0.8045,1.437 0.7093,2.5173 0.633,3.6183 0.6353,3.93 A0.6353,0.6353 0 0 1 -0.6353,3.93 ZM-0.1034,1.6299 T-0.1538,1.599 -0.2042,1.5681 A0.6085,0.6085 0 0 1 0.4291,0.5289 T0.4797,0.5596 0.5302,0.5902 A0.6088,0.6088 0 0 1 -0.1034,1.6299 ZM0.7126,1.1491 T0.6865,1.3078 0.6451,2.2225 0.6311,3.9004 0.4872,5.7672 0.342,6.7122 A0.5976,0.5976 0 0 1 -0.842,6.5478 T-0.736,5.6833 -0.6212,3.8911 -0.5771,2.1146 -0.5148,1.1069 -0.4877,0.948 A0.6085,0.6085 0 0 1 0.7126,1.1491 Z" stroke-linecap="round" fill="#40c057"/></g></g><g transform="matrix(1, 0, 0, 1, 1280.9378, 11856.3787) scale(0.24572622450863993, 0.24572622450863993)" opacity="1"><g transform="scale(4.069569709133098)"><path d="M0.4792,0.401 T0.1954,0.7546 -0.5954,1.7428 -1.7142,2.9843 -2.8856,3.9998 -3.7651,4.581 -4.0849,4.7536 A0.6643,0.6643 0 0 1 -4.7551,3.6064 T-4.0313,3.0929 -2.7382,2.0622 -1.622,0.9137 -0.7772,-0.0593 -0.4792,-0.401 A0.6249,0.6249 0 0 1 0.4792,0.401 Z" stroke-linecap="round" fill="#40c057"/></g></g><g transform="matrix(1, 0, 0, 1, 1277.0062, 11857.3616) scale(0.24572622450863993, 0.24572622450863993)" opacity="1"><g transform="scale(4.069569709133098)"><path d="M0.5929,-0.2227 T0.7732,0.2412 1.2396,1.3509 1.7784,2.527 2.2993,3.7433 2.5676,4.4291 A0.6444,0.6444 0 0 1 1.3724,4.9109 T1.1071,4.2728 0.5813,3.0864 0.0337,1.8483 -0.4231,0.6906 -0.5929,0.2227 A0.6334,0.6334 0 0 1 0.5929,-0.2227 Z" stroke-linecap="round" fill="#40c057"/></g></g><g transform="matrix(1, 0, 0, 1, 1285.6066, 11857.3616) scale(0.24572622450863993, 0.24572622450863993)" opacity="1"><g transform="scale(4.069569709133098)"><path d="M0.6115,-0.0692 T0.6809,0.4523 0.741,1.9254 0.679,3.4304 0.6264,3.9838 A0.6287,0.6287 0 0 1 -0.6264,3.8762 T-0.5838,3.3219 -0.5276,1.9422 -0.5627,0.593 -0.6115,0.0692 A0.6154,0.6154 0 0 1 0.6115,-0.0692 Z" stroke-linecap="round" fill="#40c057"/></g></g><g transform="matrix(1, 0, 0, 1, 1286.8352, 11859.5732) scale(0.24572622450863993, 0.24572622450863993)" opacity="1"><g transform="scale(4.069569709133098)"><path d="M0,0.6399 T-0.4068,0.6472 -1.4929,0.6554 -2.5611,0.6516 -2.95,0.6472 A0.6472,0.6472 0 0 1 -2.95,-0.6472 T-2.5611,-0.6516 -1.4929,-0.6554 -0.4068,-0.6472 0,-0.6399 A0.6399,0.6399 0 0 1 0,0.6399 Z" stroke-linecap="round" fill="#40c057"/></g></g><g transform="matrix(1, 0, 0, 1, 1289.784, 11855.6416) scale(0.24572622450863993, 0.24572622450863993)" opacity="1"><g transform="scale(4.069569709133098)"><path d="M0.7167,-0.1783 T0.8316,0.288 1.0522,1.4719 1.1995,2.9301 0.9843,4.686 0.7275,5.7015 A0.7837,0.7837 0 0 1 -0.7275,5.1185 T-0.5048,4.4047 -0.3017,3.018 -0.4021,1.7272 -0.5998,0.6438 -0.7167,0.1783 A0.7385,0.7385 0 0 1 0.7167,-0.1783 ZM-0.701,5.0596 T-0.5429,4.7446 0.0949,3.8511 1.2313,2.9022 2.6863,2.5855 3.8718,3.1918 4.4353,4.6289 4.7633,6.2405 4.9148,6.9674 A0.7526,0.7526 0 0 1 3.4452,7.2926 T3.3505,6.8906 3.1437,5.8065 2.5001,4.5845 1.495,4.5809 0.8612,5.4387 0.701,5.7604 A0.7837,0.7837 0 0 1 -0.701,5.0596 Z" stroke-linecap="round" fill="#40c057"/></g></g><g transform="matrix(1, 0, 0, 1, 1211.1354, 11781.6106) scale(0.2008504461138938, 0.2008504461138938)" opacity="1"><g transform="scale(4.978828871671722)"><path d="M-0.2613,0.6533 T-0.5107,0.5428 -1.1133,-0.0211 -1.2141,-1.1494 -0.3613,-1.869 0.621,-1.2837 0.6602,0.006 -0.101,0.7636 -0.5196,0.8616 A0.6796,0.6796 0 0 1 -0.6574,-0.4906 T-0.4216,-0.6506 0.0377,-0.732 0.2613,-0.6533 A0.7036,0.7036 0 0 1 -0.2613,0.6533 ZM-1.2443,0.3637 T-1.3287,0.0401 -1.2648,-0.9005 -0.5728,-1.8602 -0.0291,-2.2031 A0.676,0.676 0 0 1 0.3944,-0.9191 T0.1625,-0.6945 -0.001,-0.2313 0.0673,0.0073 A0.6796,0.6796 0 0 1 -1.2443,0.3637 ZM0.6888,-2.0091 T0.9166,-1.7547 1.2876,-1.0066 1.4308,-0.513 A0.7,0.7 0 0 1 0.0463,-0.3049 T0.0296,-0.5159 -0.1553,-0.92 -0.3236,-1.113 A0.676,0.676 0 0 1 0.6888,-2.0091 ZM1.1619,0.1485 T0.8895,0.3489 0.6171,0.5493 A0.6897,0.6897 0 0 1 -0.2171,-0.5493 T0.049,-0.7579 0.3152,-0.9665 A0.7,0.7 0 0 1 1.1619,0.1485 Z" stroke-linecap="round" fill="#4dabf7"/></g></g><g transform="matrix(1, 0, 0, 1, 1211.1354, 11839.8573) scale(0.2008504461138938, 0.2008504461138938)" opacity="1"><g transform="scale(4.978828871671722)"><path d="M-0.8271,0 T-0.8214,-0.2365 -0.8157,-0.473 A0.8157,0.8157 0 0 1 0.8157,-0.473 T0.8214,-0.2365 0.8271,0 A0.8271,0.8271 0 0 1 -0.8271,0 ZM-0.4373,0.2156 T-0.4841,0.1848 -0.5309,0.1539 A0.8138,0.8138 0 0 1 0.3417,-1.2201 T0.3895,-1.1908 0.4373,-1.1616 A0.8157,0.8157 0 0 1 -0.4373,0.2156 ZM0.7122,-0.4261 T0.6739,-0.1596 0.6293,0.7297 0.6331,2.0429 0.6369,3.2769 0.6305,3.8205 A0.8305,0.8305 0 0 1 -1.0305,3.8195 T-1.0363,3.2753 -1.0282,2.0343 -0.9957,0.6564 -0.9392,-0.3323 -0.9014,-0.64 A0.8138,0.8138 0 0 1 0.7122,-0.4261 Z" stroke-linecap="round" fill="#4dabf7"/></g></g><g transform="matrix(1, 0, 0, 1, 1211.9388, 11853.3142) scale(0.2008504461138938, 0.2008504461138938)" opacity="1"><g transform="scale(4.978828871671722)"><path d="M0.6279,0.4719 T0.3386,0.8503 -0.4414,1.7996 -1.3436,2.8811 -2.1575,3.9026 -2.9284,4.8147 -3.8562,5.5567 -4.4155,5.8973 A0.7889,0.7889 0 0 1 -5.2245,4.5427 T-4.9784,4.3904 -4.2511,3.8043 -3.357,2.8671 -2.517,1.849 -1.642,0.8144 -0.9109,-0.0888 -0.6279,-0.4719 A0.7855,0.7855 0 0 1 0.6279,0.4719 Z" stroke-linecap="round" fill="#4dabf7"/></g></g><g transform="matrix(1, 0, 0, 1, 1207.721, 11854.3185) scale(0.2008504461138938, 0.2008504461138938)" opacity="1"><g transform="scale(4.978828871671722)"><path d="M0.5041,-0.3041 T0.7931,-0.019 1.535,0.8003 2.493,1.8995 3.5299,2.9789 4.4384,3.8916 5.2123,4.5327 5.6097,4.7757 A0.753,0.753 0 0 1 4.8303,6.0643 T4.2609,5.7226 3.2936,4.9581 2.3792,4.0133 1.3984,2.9339 0.4985,1.8275 -0.2208,0.9914 -0.5041,0.7041 A0.7129,0.7129 0 0 1 0.5041,-0.3041 Z" stroke-linecap="round" fill="#4dabf7"/></g></g><g transform="matrix(1, 0, 0, 1, 1210.7337, 11782.2132) scale(0.2008504461138938, 0.2008504461138938)" opacity="1"><g transform="scale(4.978828871671722)"><path d="M-0.1917,-0.58 T0.0952,-0.6725 0.9145,-0.8941 2.0209,-1.2742 3.1017,-1.7618 4.1584,-2.3967 5.2232,-3.1451 6.2332,-3.8092 7.2375,-4.4236 8.3214,-5.1122 9.3918,-5.7266 10.4763,-6.3162 11.753,-7.0867 12.942,-7.7349 14.152,-8.2895 15.5616,-8.9105 16.7605,-9.4224 17.894,-9.919 19.2078,-10.5226 20.4848,-11.1871 21.5504,-11.7996 22.6748,-12.4296 23.8492,-13.1088 25.0438,-13.8073 26.2963,-14.5331 27.3492,-15.1584 28.3105,-15.757 29.2901,-16.3682 30.2989,-16.9637 31.319,-17.5554 32.3264,-18.1568 33.373,-18.7406 34.4084,-19.3033 35.3563,-19.9046 36.3959,-20.561 37.4863,-21.2009 38.4741,-21.7685 39.641,-22.446 40.9691,-23.1767 42.243,-23.9043 43.3044,-24.6392 44.1918,-25.2558 45.3301,-25.9217 46.6194,-26.6081 47.6958,-27.1875 48.8535,-27.856 50.011,-28.5235 51.2202,-29.1684 52.662,-29.9431 53.8397,-30.62 54.8452,-31.1362 55.8621,-31.6376 56.832,-32.1574 57.9218,-32.6914 59.033,-33.2494 60.114,-33.8264 61.2092,-34.423 62.2525,-34.9618 63.266,-35.4759 64.2388,-35.998 65.298,-36.5486 66.3756,-37.1478 67.399,-37.737 68.4693,-38.3083 69.5855,-38.8803 70.6303,-39.4302 71.6597,-39.9551 72.7537,-40.4718 73.8554,-40.9779 74.9775,-41.5177 76.0608,-42.094 77.1412,-42.6557 78.2293,-43.2009 79.3768,-43.7625 80.6512,-44.3425 81.8843,-44.9007 83.1282,-45.4227 84.3788,-45.961 85.5696,-46.5385 86.8559,-47.1428 88.1554,-47.747 89.3536,-48.3105 90.6612,-48.8458 92.0113,-49.4339 93.2724,-50.058 94.5788,-50.7362 95.9698,-51.4836 97.3305,-52.1732 98.4865,-52.7414 99.6329,-53.2761 101.0641,-53.9417 102.4464,-54.624 103.5157,-55.1772 104.5547,-55.7008 105.6223,-56.1903 106.7758,-56.7058 107.9085,-57.2064 109.0168,-57.7057 110.1907,-58.2222 111.3387,-58.6995 111.9277,-58.953 A0.7863,0.7863 0 0 1 112.6323,-57.547 T112.0693,-57.2232 110.9497,-56.6676 109.7476,-56.128 108.4166,-55.5222 107.0111,-54.916 105.5762,-54.2689 104.3019,-53.6386 103.1653,-53.0552 102.0336,-52.4718 100.9238,-51.9669 99.806,-51.4563 98.6588,-50.921 97.4103,-50.3763 96.069,-49.6658 94.6898,-48.8999 93.323,-48.2322 91.9766,-47.6354 90.6467,-47.0611 89.427,-46.5456 88.1978,-46.008 86.9079,-45.414 85.659,-44.8273 84.3928,-44.2456 83.0929,-43.6811 81.8536,-43.1702 80.6684,-42.6573 79.5306,-42.0724 78.3901,-41.481 77.2939,-40.9751 76.2257,-40.448 75.0845,-39.8649 73.9365,-39.2982 72.8543,-38.8019 71.8196,-38.3015 70.7899,-37.7737 69.5322,-37.1486 68.2258,-36.4443 67.1515,-35.8302 66.0828,-35.2437 64.973,-34.672 63.8831,-34.0941 62.6409,-33.4762 61.3571,-32.8362 60.2511,-32.2448 58.9162,-31.5654 57.5827,-30.8789 56.483,-30.2982 55.2264,-29.6918 54.0231,-29.0968 53.027,-28.5138 51.8786,-27.8844 50.5189,-27.1596 49.1154,-26.3643 47.7413,-25.6058 46.455,-24.9251 45.3719,-24.3185 44.2933,-23.6004 43.2115,-22.8867 42.0644,-22.218 40.7725,-21.4905 39.6648,-20.869 38.665,-20.2874 37.6224,-19.6764 36.6026,-19.0513 35.6082,-18.4406 34.3528,-17.7514 33.0987,-17.0529 32.0805,-16.4471 31.0346,-15.8388 30.0114,-15.2343 29.0642,-14.6455 27.8862,-13.8926 26.5556,-13.1135 25.4766,-12.5189 24.4829,-11.9299 23.3618,-11.2858 22.2691,-10.6765 21.3171,-10.1085 20.1871,-9.5203 18.8637,-8.9196 17.7172,-8.4182 16.5195,-7.9215 15.117,-7.3192 13.7391,-6.704 12.5862,-6.1105 11.4758,-5.4305 10.176,-4.7337 8.9316,-4.0522 7.837,-3.3663 6.7033,-2.6778 5.6376,-1.9544 4.6423,-1.2572 3.5042,-0.5999 2.4037,-0.1033 1.3287,0.2411 0.4772,0.4833 0.1917,0.58 A0.6109,0.6109 0 0 1 -0.1917,-0.58 Z" stroke-linecap="round" fill="#40c057"/></g></g><g transform="matrix(1, 0, 0, 1, 1211.738, 11782.2132) scale(0.2008504461138938, 0.2008504461138938)" opacity="1"><g transform="scale(4.978828871671722)"><path d="M0.3236,0.6526 T0.0336,0.7872 -0.8645,1.1409 -2.0611,1.4987 -3.2906,1.9404 -4.4084,2.5245 -5.3922,3.1014 -6.5028,3.6309 -7.6912,4.1543 -9.0405,4.7623 -10.3162,5.2806 -11.372,5.7529 -12.4447,6.2557 -13.4825,6.6986 -14.7672,7.2812 -16.0775,7.8783 -17.1958,8.3254 -18.3205,8.6869 -19.6369,9.1079 -20.9971,9.5914 -22.1775,9.9986 -23.2882,10.4003 -24.4094,10.8012 -25.635,11.2444 -26.9287,11.6777 -28.2787,12.0638 -29.5667,12.4554 -30.7842,12.8547 -31.991,13.2588 -33.2758,13.6717 -34.5189,14.1094 -35.7238,14.5938 -37.067,15.1823 -37.8938,15.8018 -38.0231,16.0899 A0.8481,0.8481 0 0 1 -39.4969,15.2501 T-39.1175,14.6455 -38.1649,13.7075 -37.0042,13.1627 -35.77,12.6696 -34.4702,12.1859 -33.1788,11.7901 -31.9315,11.3993 -30.7034,11.005 -29.4229,10.6113 -28.0986,10.2345 -26.8267,9.8367 -25.6081,9.4179 -24.4214,9.0319 -23.2718,8.6427 -22.1102,8.2443 -20.976,7.8639 -19.8603,7.4859 -18.5196,7.0803 -17.236,6.6613 -16.222,6.2496 -15.1291,5.7671 -14.0361,5.2893 -13.0266,4.8725 -11.955,4.386 -10.8578,3.9143 -9.6165,3.4353 -8.2947,2.8623 -7.1341,2.3736 -6.0627,1.8791 -5.0285,1.2916 -3.9109,0.7229 -2.6785,0.2566 -1.4717,-0.1416 -0.6059,-0.5034 -0.3236,-0.6526 A0.7284,0.7284 0 0 1 0.3236,0.6526 Z" stroke-linecap="round" fill="#40c057"/></g></g><g transform="matrix(1, 0, 0, 1, 1212.5414, 11782.0123) scale(0.2008504461138938, 0.2008504461138938)" opacity="1"><g transform="scale(4.978828871671722)"><path d="M0,-0.7765 T0.2862,-0.7697 1.1782,-0.8171 2.4624,-0.9671 3.7917,-1.0942 5.1074,-1.1996 6.3791,-1.306 7.6483,-1.4166 8.8731,-1.5266 10.1725,-1.6373 11.6129,-1.8219 12.8673,-1.9975 14.1013,-2.1325 15.5105,-2.2101 16.9194,-2.3115 18.1675,-2.4161 19.2933,-2.4363 20.5098,-2.4438 21.7977,-2.4487 23.0596,-2.5438 24.299,-2.729 25.5551,-2.8371 26.7687,-2.9384 28.003,-3.1231 29.3088,-3.2388 30.617,-3.3496 31.8903,-3.4526 33.204,-3.4625 34.6244,-3.466 35.9712,-3.4679 37.2534,-3.4687 38.509,-3.4693 39.7464,-3.4698 41.0283,-3.4691 42.305,-3.4664 43.487,-3.4633 44.7275,-3.4612 46.0704,-3.4605 47.3162,-3.5282 48.479,-3.626 49.6204,-3.7182 50.7739,-3.8182 51.9779,-3.9187 53.1398,-4.0187 54.2169,-4.1495 55.3643,-4.2514 56.6476,-4.2601 57.8666,-4.2599 58.9967,-4.2585 60.2035,-4.2568 61.4286,-4.2553 62.581,-4.2542 63.6916,-4.2534 64.8423,-4.3164 66.0763,-4.4185 67.2854,-4.459 68.4962,-4.4608 69.6953,-4.4578 70.8578,-4.3235 71.4572,-4.1922 A0.7978,0.7978 0 0 1 71.1428,-2.6278 T70.6974,-2.7065 69.5316,-2.7822 68.2338,-2.7788 67.0406,-2.7743 65.8257,-2.6718 64.6328,-2.5702 63.4417,-2.5665 62.2129,-2.5654 61.0064,-2.5642 59.8764,-2.5628 58.7695,-2.5612 57.6168,-2.5599 56.3891,-2.5589 55.1342,-2.5388 53.7467,-2.4233 52.4386,-2.2428 51.2138,-2.1451 49.9345,-2.0446 48.7397,-1.9352 47.5981,-1.8363 46.4628,-1.7595 45.325,-1.7595 44.054,-1.758 42.7213,-1.7548 41.4288,-1.7518 40.1359,-1.7504 38.9139,-1.7505 37.6822,-1.7511 36.3893,-1.7518 35.1665,-1.753 34.0688,-1.7546 32.8173,-1.7545 31.4335,-1.7353 30.1981,-1.6374 28.9904,-1.5191 27.7154,-1.3929 26.5184,-1.2326 25.3821,-1.1379 24.2874,-1.0338 23.1047,-0.8607 21.8084,-0.7713 20.5112,-0.7755 19.3051,-0.7788 18.0762,-0.7611 16.82,-0.6688 15.6934,-0.5948 14.4808,-0.5592 13.0525,-0.431 11.5403,-0.2391 10.1301,-0.0825 8.837,0.0063 7.6102,0.0962 6.3887,0.1884 5.1117,0.2784 3.8241,0.3636 2.5395,0.5044 1.2318,0.6894 0.2862,0.7697 0,0.7765 A0.7765,0.7765 0 0 1 0,-0.7765 Z" stroke-linecap="round" fill="#e599f7"/></g></g><g transform="matrix(1, 0, 0, 1, 1285.2492, 11740.838) scale(0.2008504461138938, 0.2008504461138938)" opacity="1"><g transform="scale(4.978828871671722)"><path d="M0.7113,0.2708 T0.66,0.7457 0.5688,1.8239 0.5161,3.1368 0.5033,4.5011 0.5047,5.768 0.5081,7.0542 0.5154,8.4286 0.529,9.8932 0.5436,11.3923 0.5546,12.6782 0.5646,13.9805 0.6467,15.4675 0.7559,17.021 0.8372,18.5153 0.9356,19.7317 1.0426,20.9354 1.152,22.1631 1.2223,23.4663 1.3188,25.0375 1.4266,26.5548 1.4632,27.8548 1.5108,29.0665 1.6108,30.4305 1.6801,31.7741 1.7796,32.8972 1.8855,34.1422 1.9063,35.4679 1.9826,36.7554 2.1357,38.0024 2.2165,38.5889 A0.8244,0.8244 0 0 1 0.6035,38.9311 T0.4122,38.1724 0.1546,36.7556 0.0888,35.4771 0.0805,34.211 -0.0115,32.9704 -0.0978,31.8133 -0.1318,30.6469 -0.2176,29.2583 -0.2725,27.8723 -0.2906,26.6558 -0.3795,25.3413 -0.4525,23.9859 -0.4871,22.6349 -0.582,21.1474 -0.7257,19.6192 -0.8066,18.0932 -0.8374,16.5991 -0.9192,15.3135 -0.9646,13.9805 -0.9546,12.6782 -0.9436,11.3923 -0.929,9.8932 -0.9154,8.4286 -0.908,7.054 -0.904,5.7669 -0.8984,4.495 -0.8826,3.0984 -0.8341,1.7207 -0.7546,0.605 -0.7113,0.1292 A0.7148,0.7148 0 0 1 0.7113,0.2708 Z" stroke-linecap="round" fill="#e599f7"/></g></g><g transform="matrix(1, 0, 0, 1, 1283.2407, 11778.7987) scale(0.2008504461138938, 0.2008504461138938)" opacity="1"><g transform="scale(4.978828871671722)"><path d="M0.0895,-0.8306 T0.4247,-0.7956 1.3666,-0.7343 2.6933,-0.6859 3.4132,-0.6638 A0.6638,0.6638 0 0 1 3.4068,0.6638 T2.6668,0.6705 1.2504,0.6135 0.2423,0.4902 -0.0895,0.4306 A0.637,0.637 0 0 1 0.0895,-0.8306 Z" stroke-linecap="round" fill="#e599f7"/></g></g><g transform="matrix(1, 0, 0, 1, 1298.9071, 11762.329) scale(0.2008504461138938, 0.2008504461138938)" opacity="1"><g transform="scale(4.978828871671722)"><path d="M0.5466,0.2716 T0.3628,0.655 -0.0138,1.5737 -0.39,2.6631 -0.6344,3.8057 -0.4791,4.9647 0.0777,5.827 0.4182,6.1189 A0.6604,0.6604 0 0 1 -0.4182,7.1411 T-0.8836,6.7738 -1.6675,5.8616 -2.0052,4.5817 -1.9239,3.3181 -1.6357,2.2873 -1.1919,1.1349 -0.7412,0.1065 -0.5466,-0.2716 A0.6104,0.6104 0 0 1 0.5466,0.2716 Z" stroke-linecap="round" fill="#e599f7"/></g></g><g transform="matrix(1, 0, 0, 1, 1302.5224, 11764.94) scale(0.2008504461138938, 0.2008504461138938)" opacity="1"><g transform="scale(4.978828871671722)"><path d="M0.5121,0.2829 T0.2858,0.7167 -0.308,1.7705 -1.0942,2.8183 -1.7629,3.4532 -2.013,3.6605 A0.6005,0.6005 0 0 1 -2.807,2.7595 T-2.2602,2.2076 -1.3595,1.1088 -0.7588,0.1395 -0.5121,-0.2829 A0.5851,0.5851 0 0 1 0.5121,0.2829 Z" stroke-linecap="round" fill="#e599f7"/></g></g><g transform="matrix(1, 0, 0, 1, 1300.313, 11765.9443) scale(0.2008504461138938, 0.2008504461138938)" opacity="1"><g transform="scale(4.978828871671722)"><path d="M0.4347,-0.4347 T0.7231,-0.1505 1.4026,0.6456 2.2568,1.8038 2.7199,2.4501 A0.6242,0.6242 0 0 1 1.7001,3.1699 T1.3618,2.6993 0.5783,1.6199 -0.1508,0.7228 -0.4347,0.4347 A0.6147,0.6147 0 0 1 0.4347,-0.4347 Z" stroke-linecap="round" fill="#e599f7"/></g></g><g transform="matrix(1, 0, 0, 1, 1305.736, 11766.1452) scale(0.2008504461138938, 0.2008504461138938)" opacity="1"><g transform="scale(4.978828871671722)"><path d="M0.5508,-0.1217 T0.6512,0.3051 0.9404,1.609 1.129,2.4861 A0.5433,0.5433 0 0 1 0.071,2.7339 T-0.1512,1.8572 -0.462,0.5511 -0.5508,0.1217 A0.564,0.564 0 0 1 0.5508,-0.1217 Z" stroke-linecap="round" fill="#e599f7"/></g></g><g transform="matrix(1, 0, 0, 1, 1307.1419, 11767.5511) scale(0.2008504461138938, 0.2008504461138938)" opacity="1"><g transform="scale(4.978828871671722)"><path d="M-0.0899,0.5438 T-0.3745,0.4989 -1.2145,0.4898 -1.7698,0.5257 A0.5272,0.5272 0 0 1 -1.8502,-0.5257 T-1.1678,-0.5844 -0.1978,-0.5935 0.0899,-0.5438 A0.5512,0.5512 0 0 1 -0.0899,0.5438 Z" stroke-linecap="round" fill="#e599f7"/></g></g><g transform="matrix(1, 0, 0, 1, 1308.1462, 11763.7349) scale(0.2008504461138938, 0.2008504461138938)" opacity="1"><g transform="scale(4.978828871671722)"><path d="M0.5614,-0.0697 T0.6131,0.3105 0.7138,1.3055 0.8545,2.4525 0.981,3.5239 1.0957,4.4229 1.1757,4.7828 A0.6478,0.6478 0 0 1 -0.0966,5.0268 T-0.1851,4.0742 -0.3474,2.5478 -0.4484,1.4031 -0.5185,0.451 -0.5614,0.0697 A0.5658,0.5658 0 0 1 0.5614,-0.0697 ZM-0.0773,4.707 T0.0168,4.4345 0.4741,3.7072 1.5231,3.1056 2.644,3.5142 3.1302,4.6884 3.1919,5.6547 3.2026,6.0022 A0.5932,0.5932 0 0 1 2.0174,6.0578 T1.6391,5.3968 1.2085,4.9193 1.1564,5.1026 A0.6478,0.6478 0 0 1 -0.0773,4.707 Z" stroke-linecap="round" fill="#e599f7"/></g></g><g transform="matrix(1, 0, 0, 1, 1311.5606, 11762.329) scale(0.2008504461138938, 0.2008504461138938)" opacity="1"><g transform="scale(4.978828871671722)"><path d="M0.6714,-0.2502 T0.8078,0.1326 1.1691,1.1258 1.6168,2.3956 1.9417,3.809 2.1438,5.2807 2.2236,6.6705 1.8128,8.1101 1.2212,9.0241 1.0203,9.1705 A0.6768,0.6768 0 0 1 0.1797,8.1095 T0.4605,7.876 0.7852,6.8886 0.738,5.4054 0.5808,4.0668 0.3117,2.8575 -0.134,1.6327 -0.524,0.6289 -0.6714,0.2502 A0.7165,0.7165 0 0 1 0.6714,-0.2502 Z" stroke-linecap="round" fill="#e599f7"/></g></g><g transform="matrix(1, 0, 0, 1, 1316.5819, 11766.346) scale(0.2008504461138938, 0.2008504461138938)" opacity="1"><g transform="scale(4.978828871671722)"><path d="M-0.1005,-0.7083 T0.606,-0.7982 1.3124,-0.8881 A0.695,0.695 0 0 1 1.5076,0.4881 T0.804,0.5982 0.1005,0.7083 A0.7154,0.7154 0 0 1 -0.1005,-0.7083 Z" stroke-linecap="round" fill="#e599f7"/></g></g><g transform="matrix(1, 0, 0, 1, 1293.4841, 11760.7222) scale(0.2008504461138938, 0.2008504461138938)" opacity="1"><g transform="scale(4.978828871671722)"><path d="M0.7338,-0.0912 T0.7836,0.2893 0.8801,1.3653 0.9466,2.8832 0.9052,4.5404 0.8297,5.9981 0.7699,7.4288 0.7243,8.2366 A0.7243,0.7243 0 0 1 -0.7243,8.2234 T-0.7551,7.4034 -0.7616,5.9325 -0.66,4.4987 -0.584,2.919 -0.6147,1.4878 -0.689,0.4722 -0.7338,0.0912 A0.7395,0.7395 0 0 1 0.7338,-0.0912 Z" stroke-linecap="round" fill="#e599f7"/></g></g><g transform="matrix(1, 0, 0, 1, 1296.296, 11758.5128) scale(0.2008504461138938, 0.2008504461138938)" opacity="1"><g transform="scale(4.978828871671722)"><path d="M0.1714,0.8897 T-0.2076,0.9915 -1.2795,1.2631 -2.5813,1.5627 -3.7736,1.7384 -4.9623,1.8577 -5.8648,2.0266 -6.162,2.1222 A0.7609,0.7609 0 0 1 -6.698,0.6978 T-6.4115,0.5738 -5.5101,0.3106 -4.135,0.1522 -2.7927,0.036 -1.5736,-0.188 -0.5539,-0.4023 -0.1714,-0.4897 A0.7107,0.7107 0 0 1 0.1714,0.8897 Z" stroke-linecap="round" fill="#e599f7"/></g></g><g transform="matrix(1, 0, 0, 1, 1294.89, 11770.5639) scale(0.2008504461138938, 0.2008504461138938)" opacity="1"><g transform="scale(4.978828871671722)"><path d="M0,0.8516 T-0.617,0.8583 -2.0639,0.9448 -3.7424,1.0463 -4.5911,1.068 A0.8684,0.8684 0 0 1 -4.6489,-0.668 T-3.8275,-0.7018 -2.1205,-0.8004 -0.6175,-0.8583 0,-0.8516 A0.8516,0.8516 0 0 1 0,0.8516 Z" stroke-linecap="round" fill="#e599f7"/></g></g><g transform="matrix(1, 0, 0, 1, 1324.4151, 11761.5256) scale(0.2008504461138938, 0.2008504461138938)" opacity="1"><g transform="scale(4.978828871671722)"><path d="M0.8331,0.2 T0.8346,0.7227 0.8413,2.1937 0.8519,4.0841 0.8584,5.8198 0.7442,7.473 0.6286,8.3325 A0.835,0.835 0 0 1 -1.0286,8.1275 T-0.9442,7.3698 -0.8584,5.819 -0.8519,4.0841 -0.8413,2.1937 -0.8346,0.7227 -0.8331,0.2 A0.8331,0.8331 0 0 1 0.8331,0.2 Z" stroke-linecap="round" fill="#e599f7"/></g></g><g transform="matrix(1, 0, 0, 1, 1327.0261, 11760.3205) scale(0.2008504461138938, 0.2008504461138938)" opacity="1"><g transform="scale(4.978828871671722)"><path d="M0.2962,0.7441 T-0.1773,0.938 -1.5242,1.4943 -3.2308,2.0766 -4.6872,2.4301 -6.1574,2.391 -7.0044,2.2184 A0.827,0.827 0 0 1 -6.6556,0.6016 T-6.0977,0.7321 -4.9575,0.7441 -3.6656,0.458 -2.1033,-0.0423 -0.7734,-0.5596 -0.2962,-0.7441 A0.8009,0.8009 0 0 1 0.2962,0.7441 Z" stroke-linecap="round" fill="#e599f7"/></g></g><g transform="matrix(1, 0, 0, 1, 1326.8253, 11771.769) scale(0.2008504461138938, 0.2008504461138938)" opacity="1"><g transform="scale(4.978828871671722)"><path d="M0,0.8569 T-0.6173,0.8619 -2.1639,0.875 -3.7511,0.9964 -4.8319,1.1887 -5.2548,1.2675 A0.8831,0.8831 0 0 1 -5.5852,-0.4675 T-5.1628,-0.5496 -3.9179,-0.7574 -2.1649,-0.875 -0.6173,-0.8619 0,-0.8569 A0.8569,0.8569 0 0 1 0,0.8569 Z" stroke-linecap="round" fill="#e599f7"/></g></g><g transform="matrix(1, 0, 0, 1, 1330.2397, 11762.5298) scale(0.2008504461138938, 0.2008504461138938)" opacity="1"><g transform="scale(4.978828871671722)"><path d="M0.7464,0.4124 T0.509,0.8399 -0.0151,1.9571 -0.4656,3.3589 -0.6744,4.7771 -0.6424,6.0977 -0.1799,7.0282 0.2058,7.3444 A0.7967,0.7967 0 0 1 -0.6058,8.7156 T-1.1361,8.3955 -2.0063,7.4227 -2.3841,6.0843 -2.3646,4.6003 -2.1026,2.9345 -1.5578,1.2559 -0.982,0.0163 -0.7464,-0.4124 A0.8527,0.8527 0 0 1 0.7464,0.4124 Z" stroke-linecap="round" fill="#e599f7"/></g></g><g transform="matrix(1, 0, 0, 1, 1334.2567, 11765.7435) scale(0.2008504461138938, 0.2008504461138938)" opacity="1"><g transform="scale(4.978828871671722)"><path d="M0.4933,0.5843 T0.1689,1.0194 -0.7186,2.1299 -1.6068,3.1976 -1.9318,3.5899 A0.6107,0.6107 0 0 1 -2.8882,2.8301 T-2.5795,2.4248 -1.7246,1.3386 -0.8359,0.2367 -0.4933,-0.1843 A0.6253,0.6253 0 0 1 0.4933,0.5843 Z" stroke-linecap="round" fill="#e599f7"/></g></g><g transform="matrix(1, 0, 0, 1, 1332.6499, 11765.1409) scale(0.2008504461138938, 0.2008504461138938)" opacity="1"><g transform="scale(4.978828871671722)"><path d="M0.6272,-0.2337 T0.7737,0.1453 1.1577,1.0447 1.7195,2.1974 2.5012,3.5106 2.9585,4.1916 A0.696,0.696 0 0 1 1.8615,5.0484 T1.6344,4.7773 1.0637,3.991 0.4136,2.8078 -0.1227,1.5693 -0.4899,0.6162 -0.6272,0.2337 A0.6693,0.6693 0 0 1 0.6272,-0.2337 Z" stroke-linecap="round" fill="#e599f7"/></g></g><g transform="matrix(1, 0, 0, 1, 1335.0601, 11762.9315) scale(0.2008504461138938, 0.2008504461138938)" opacity="1"><g transform="scale(4.978828871671722)"><path d="M0.6869,-0.5677 T0.9148,-0.2743 1.483,0.5403 2.0579,1.6496 2.4284,2.8449 2.6086,4.1377 2.6676,5.4742 2.5523,6.7758 2.0221,8.2211 1.4157,9.2193 1.2099,9.4232 A0.8438,0.8438 0 0 1 -0.0099,8.2568 T0.3083,7.9048 0.7749,6.8454 0.9188,5.5105 0.8901,4.2928 0.7326,3.0251 0.2012,1.7367 -0.4418,0.8466 -0.6869,0.5677 A0.8911,0.8911 0 0 1 0.6869,-0.5677 Z" stroke-linecap="round" fill="#e599f7"/></g></g><g transform="matrix(1, 0, 0, 1, 1212.1397, 11782.8157) scale(0.2008504461138938, 0.2008504461138938)" opacity="0.1"><g transform="scale(4.978828871671722)"><path d="M0.6836,-0.252 T0.8673,0.0378 1.6337,0.7638 2.8554,1.483 4.0235,1.9474 5.1222,2.2311 6.3354,2.4354 7.695,2.6256 9.0122,2.8084 10.2173,2.9994 11.5217,3.1332 12.8658,3.1717 14.1543,3.1707 15.446,3.0974 16.7468,2.9628 17.9579,2.8476 19.1722,2.7079 20.4251,2.5553 21.623,2.3965 22.8252,2.2032 24.0732,1.9702 25.2602,1.6882 26.4195,1.4263 27.739,1.2434 29.2068,1.0978 30.675,0.9951 32.0562,1.0532 33.3178,1.3154 34.5263,1.7759 35.6794,2.3672 36.7495,3.1972 37.673,4.2598 38.2699,5.512 38.5148,6.8041 38.3488,7.7914 38.1567,8.1975 A0.8294,0.8294 0 0 1 36.7716,7.2845 T36.7909,6.79 36.5408,5.6914 35.802,4.6005 34.8513,3.8344 33.6927,3.288 32.3424,2.8812 31.105,2.7157 29.9171,2.7794 28.7171,2.8834 27.5444,3.0004 26.3784,3.2171 25.2603,3.4511 24.0164,3.7359 22.7141,3.9997 21.4765,4.1919 20.2372,4.3229 18.9129,4.4463 17.4714,4.6179 16.0272,4.7881 14.6328,4.8698 13.2782,4.8617 11.9696,4.8378 10.7367,4.7153 9.5326,4.5081 8.349,4.3042 7.0728,4.098 5.7192,3.887 4.5109,3.6904 3.3655,3.3806 2.2633,2.9419 1.284,2.4611 0.2579,1.7087 -0.4889,0.9345 -0.6836,0.652 A0.8196,0.8196 0 0 1 0.6836,-0.252 ZM36.7315,8.1299 T36.5946,7.8391 36.4775,6.9497 36.778,5.6621 37.5865,4.4549 38.6122,3.7005 39.8003,3.2136 41.1286,2.8708 42.3893,2.7417 43.5707,2.7747 44.6805,2.875 45.7814,2.9952 47.049,3.0982 48.4768,3.1864 49.7802,3.2826 50.9739,3.3064 52.2489,3.3091 53.5495,3.3075 54.7816,3.3034 55.9906,3.2997 57.2869,3.2139 58.7469,3.0459 60.0704,2.8975 61.2159,2.7708 62.4285,2.6098 63.7361,2.3408 65.0087,2.0659 66.1276,1.8645 67.1914,1.7009 68.385,1.4155 69.6441,0.9989 70.6851,0.4926 71.5487,-0.1597 72.2285,-1.0137 72.5638,-2.2892 72.6417,-3.0555 A0.6699,0.6699 0 0 1 73.9783,-2.9645 T73.951,-2.269 73.7089,-0.9097 73.0885,0.2729 72.162,1.1899 71.1315,1.8809 70.0276,2.3696 68.7964,2.7863 67.5681,3.0894 66.4052,3.2762 65.2772,3.479 64.1697,3.6875 62.9957,3.9012 61.811,4.0933 60.6541,4.276 59.444,4.4597 58.2919,4.5696 57.174,4.6659 55.9906,4.7403 54.7815,4.7366 53.5492,4.7323 52.2467,4.7295 50.9594,4.7242 49.6893,4.6933 48.3948,4.5954 47.1717,4.5174 45.8873,4.4142 44.6508,4.2892 43.4165,4.1953 42.1347,4.2342 40.9312,4.4016 39.6684,4.7873 38.5878,5.5755 38.0926,6.5735 38.114,7.2291 38.1968,7.3521 A0.8294,0.8294 0 0 1 36.7315,8.1299 Z" stroke-linecap="round" fill="#e599f7"/></g></g><g transform="matrix(1, 0, 0, 1, 1247.4893, 11796.2727) scale(0.2008504461138938, 0.2008504461138938)" opacity="1"><g transform="scale(4.978828871671722)"><path d="M0.6738,0 T0.6766,0.4754 0.6832,1.5723 0.6912,2.7774 0.6464,3.9448 0.5599,5.056 0.5223,5.5831 A0.7097,0.7097 0 0 1 -0.8914,5.4549 T-0.8704,5.2394 -0.7724,4.1924 -0.6912,2.7774 -0.6832,1.5723 -0.6766,0.4754 -0.6738,0 A0.6738,0.6738 0 0 1 0.6738,0 ZM-0.726,5.0601 T-0.5312,4.8324 0.0791,4.1754 1.0797,3.3911 2.2114,2.853 3.4899,2.6077 4.5976,2.9362 5.1895,4.0703 5.4864,5.4751 5.6306,6.5272 5.6938,6.9182 A0.683,0.683 0 0 1 4.3462,7.1418 T4.2798,6.7513 4.1369,5.7075 3.9334,4.4028 3.2733,3.9079 2.2052,4.3419 1.2154,5.0583 0.5587,5.7376 0.3569,5.9778 A0.7097,0.7097 0 0 1 -0.726,5.0601 Z" stroke-linecap="round" fill="#e599f7"/></g></g><g transform="matrix(1, 0, 0, 1, 1160.4389, 11940.5385) scale(0.35204400474870046, 0.35204400474870046)" opacity="1"><g transform="scale(2.840553983340321)"><path d="M-0.8013,-0.35 T-0.7974,-1.0997 -0.7906,-2.8298 -0.6905,-4.6509 -0.5405,-6.2119 -0.4713,-7.6464 -0.452,-9.0676 -0.4496,-10.4855 -0.3256,-11.896 -0.1732,-13.3008 -0.1388,-15.0576 -0.2855,-17.1404 -0.4629,-18.9793 -0.4967,-20.5623 -0.5113,-22.0626 -0.5194,-23.498 -0.5265,-24.9127 -0.5346,-26.6519 -0.5427,-28.4061 -0.5514,-30.1446 -0.6826,-32.0492 -0.8515,-33.6655 -0.911,-35.4405 -0.9321,-37.2479 -0.9397,-38.733 -0.9465,-40.2467 -0.9551,-42.0179 -0.9654,-44.1051 -0.9727,-45.9179 -0.9773,-47.3685 -0.9844,-48.9574 -0.9927,-50.6263 -0.9019,-52.5678 -0.7456,-54.5277 -0.6776,-56.1374 -0.6712,-57.6234 -0.6724,-59.18 -0.6771,-60.8397 -0.6829,-62.5283 -0.6876,-64.1857 -0.6912,-65.708 -0.6953,-67.148 -0.7017,-68.6915 -0.7088,-70.3477 -0.713,-71.9525 -0.839,-73.7125 -1.0053,-75.5136 -1.0591,-77.076 -1.1516,-78.7934 -1.3084,-80.5786 -1.406,-82.2072 -1.4339,-83.8509 -1.4457,-85.5372 -1.4537,-87.1935 -1.4624,-88.881 -1.4719,-90.5337 -1.4798,-92.1375 -1.4867,-93.8541 -1.4926,-95.7284 -1.4974,-97.6074 -1.5006,-99.2326 -1.503,-100.7 -1.5051,-102.2938 -1.5088,-104.1756 -1.5137,-106.2222 -1.5192,-108.3158 -1.4354,-110.5139 -1.2901,-112.651 -1.2174,-114.6796 -1.1999,-116.6843 -1.1993,-118.6385 -1.2035,-120.5361 -1.2075,-122.3793 -1.2117,-124.1624 -1.217,-125.8024 -1.2231,-127.4014 -1.2299,-129.0719 -1.237,-130.807 -1.2432,-132.4773 -1.2479,-134.086 -1.1546,-135.8111 -1.0075,-137.4305 -0.9392,-138.8931 -0.9196,-140.3637 -0.917,-141.7865 -0.9184,-143.2827 -0.9208,-144.843 -0.923,-146.4199 -0.9248,-148.0014 -1.0468,-149.6424 -1.2095,-151.4612 -1.2617,-153.4351 -1.2753,-155.5018 -1.2795,-157.4337 -1.281,-159.2414 -1.2817,-160.9276 -1.283,-162.667 -1.2857,-164.6765 -1.3645,-166.6583 -1.5198,-168.7335 -1.6206,-170.8081 -1.6506,-172.6559 -1.6608,-174.4411 -1.6654,-176.2517 -1.6688,-177.943 -1.6725,-179.5576 -1.6765,-181.36 -1.6795,-183.0881 -1.6819,-184.8416 -1.6841,-186.855 -1.6858,-188.7726 -1.6878,-190.5764 -1.6907,-192.2613 -1.5953,-193.9346 -1.4497,-195.662 -1.3848,-197.2249 -1.3642,-198.6836 -1.3584,-200.1059 -1.3566,-201.6065 -1.3569,-203.2944 -1.3587,-204.9459 -1.2458,-206.8019 -1.0859,-208.8784 -1.0314,-210.5613 -1.0204,-212.0546 -1.0179,-213.6965 -1.0177,-215.6125 -1.0181,-217.4987 -1.0185,-219.188 -1.0188,-220.7629 -1.0191,-222.2623 -1.0193,-223.9063 -1.0209,-225.8425 -1.0239,-227.6514 -1.0269,-229.0889 -1.0294,-230.5053 -1.0338,-231.9171 -1.043,-233.6781 -1.053,-235.4384 -1.0678,-237.1984 -1.0842,-238.9584 -1.0937,-240.7184 -0.9964,-242.6433 -0.8359,-244.4282 -0.7643,-246.5454 -0.7487,-248.326 -0.7452,-248.9049 A1.4452,1.4452 0 0 1 2.1452,-248.8951 T2.1444,-247.7922 2.1331,-245.9666 2.0819,-244.4761 1.9194,-242.7409 1.7937,-240.7184 1.7842,-238.9584 1.7678,-237.1984 1.753,-235.4384 1.743,-233.6781 1.7338,-231.9171 1.7294,-230.5053 1.7269,-229.0889 1.7239,-227.6514 1.7209,-225.8425 1.7193,-223.9063 1.7191,-222.2623 1.7188,-220.7628 1.7185,-219.188 1.718,-217.4985 1.717,-215.6115 1.7152,-213.6922 1.7108,-212.0361 1.6969,-210.4948 1.6465,-208.927 1.4837,-207.2088 1.3596,-205.5839 1.3571,-204.0488 1.3555,-202.4939 1.3545,-200.8673 1.351,-199.2734 1.3366,-197.8003 1.285,-196.1802 1.1186,-194.1699 0.9907,-192.2613 0.9878,-190.5764 0.9858,-188.7726 0.9841,-186.855 0.9819,-184.8416 0.9795,-183.0881 0.9765,-181.36 0.9726,-179.5577 0.9692,-177.9436 0.9669,-176.2536 0.9658,-174.4474 0.9687,-172.6782 0.9861,-170.8821 1.0554,-168.9907 1.199,-166.8588 1.2857,-164.6765 1.283,-162.6671 1.2819,-160.9278 1.2818,-159.2425 1.2822,-157.4369 1.2849,-155.5125 1.2962,-153.4766 1.3564,-151.4524 1.5166,-149.6004 1.6248,-148.0014 1.6228,-146.4198 1.6204,-144.8425 1.617,-143.2805 1.6119,-141.7785 1.6015,-140.3362 1.5738,-138.8067 1.4023,-136.8501 1.2495,-134.8511 1.2456,-133.2567 1.2402,-131.6267 1.233,-129.8798 1.226,-128.167 1.2197,-126.577 1.2136,-124.9653 1.2091,-123.2757 1.2048,-121.4713 1.1985,-119.5514 1.1893,-117.6798 1.1709,-115.6833 1.1185,-113.5271 0.9521,-111.4288 0.8224,-109.3691 0.8166,-107.2665 0.8114,-105.1875 0.807,-103.1978 0.8042,-101.5254 0.8021,-100.0851 0.7994,-98.5617 0.7953,-96.739 0.7897,-94.7532 0.7832,-92.9333 0.7757,-91.2557 0.7668,-89.6352 0.7588,-88.0796 0.7528,-86.4592 0.75,-84.7473 0.7585,-83.1589 0.8348,-81.2896 0.9946,-79.0029 1.0936,-77.1278 1.1295,-75.6705 1.2857,-74.2015 1.413,-72.7264 1.4109,-71.1245 1.4054,-69.502 1.3988,-67.9389 1.3933,-66.4327 1.3895,-64.9658 1.3852,-63.3426 1.3795,-61.6199 1.3733,-59.9943 1.3664,-58.4198 1.3547,-56.869 1.3244,-55.4068 1.2203,-53.9541 1.0674,-52.3325 0.9927,-50.6263 0.9844,-48.9574 0.9773,-47.3685 0.9727,-45.9179 0.9654,-44.1051 0.9552,-42.018 0.9469,-40.2473 0.9411,-38.7349 0.9372,-37.2538 0.9371,-35.7395 0.9708,-34.0778 1.1303,-32.4604 1.2535,-30.7941 1.2463,-29.1246 1.2395,-27.6756 1.2316,-25.9268 1.2239,-24.2069 1.2184,-22.7855 1.2147,-21.3341 1.2174,-19.7767 1.2823,-17.9797 1.4303,-16.1981 1.5043,-14.6724 1.4486,-13.1839 1.2755,-11.4471 1.14,-9.7664 1.1234,-8.3272 1.0732,-6.8175 0.911,-4.9228 0.7906,-2.8298 0.7974,-1.0997 0.8013,-0.35 A0.8013,0.8013 0 0 1 -0.8013,-0.35 Z" stroke-linecap="round" fill="#9398b0"/></g></g></svg>