<svg xmlns="http://www.w3.org/2000/svg" direction="ltr" width="632.6217757378249" height="690.5775632205732" viewBox="1241.1725129900904 13226.424225971296 632.6217757378249 690.5775632205732" stroke-linecap="round" stroke-linejoin="round" style="background-color: transparent;"><defs/><g transform="matrix(1, 0, 0, 1, 1561.0616, 13281.0018)" opacity="1"><g transform="scale(1)"><path d="M1.9513,0 T1.9385,2.2633 1.9167,7.2345 1.9052,12.4852 1.905,17.3493 1.9131,21.8256 1.9222,26.11 1.9323,30.368 1.9485,34.6235 1.9659,38.8785 1.9799,43.0002 1.9866,47.2595 1.5422,51.968 1.0378,56.7184 0.9699,61.1888 0.5039,65.6534 -0.0086,70.2436 -0.0722,74.7063 -0.5297,79.0768 -1.0304,83.3278 -1.0863,87.4974 -1.0915,91.7367 -1.0946,95.9894 -1.0961,100.2441 -1.0959,104.499 -1.0916,109.522 -0.8872,114.5942 -0.3932,119.2956 -0.0605,124.2016 -0.0146,128.8143 -0.0055,133.1885 -0.002,137.4598 0.3765,142.5031 0.8946,147.9723 1.0574,152.7253 1.0826,156.9927 1.0878,161.7512 1.3021,166.5573 1.7963,171.0907 2.115,176.1991 2.1574,181.2381 2.1656,185.7453 2.1698,190.0363 2.1739,194.2959 2.1811,198.5492 2.1898,202.8027 2.1969,207.0568 2.1995,211.5836 1.7442,216.0053 1.2325,220.7852 0.8637,225.6004 0.3565,229.9357 0.1451,234.4279 -0.2744,238.9915 -0.7921,243.891 -0.9144,248.5507 -0.923,252.7858 -0.9227,257.0373 -0.9186,261.2894 -0.915,265.5427 -0.9147,269.7968 -0.9145,274.0493 -0.91,278.5534 -0.9016,283.6538 -0.8908,288.6183 -0.8799,293.0028 -0.875,297.2755 -0.8739,301.5331 -0.8716,305.7885 -0.8658,310.0435 -0.8584,314.2955 -0.8509,318.5488 -0.8418,322.8036 -0.8319,327.0555 -0.8226,331.3088 -0.4607,335.9498 0.0549,341.0457 0.2352,345.8102 0.6251,350.6588 1.1366,355.6785 1.3199,360.5502 1.3666,365.3248 1.3766,369.7282 1.0933,374.7777 0.5934,380.6203 0.348,386.4034 0.3133,391.7863 0.3099,396.7897 0.3052,401.5006 0.2891,406.8458 0.2765,412.0395 0.2759,416.2536 0.2801,420.4876 0.6662,424.7261 1.1898,429.3595 1.3558,434.0625 1.3879,438.3893 1.4007,443.2885 1.409,448.0463 1.4146,452.3236 1.4195,456.8274 1.4234,461.1885 1.4265,465.4566 1.429,469.7123 1.4312,473.9668 1.4317,478.2193 1.0114,482.7343 0.4742,487.8307 0.3429,492.6503 0.3262,497.0193 0.3238,501.291 0.3172,505.5484 0.3069,509.9358 0.3054,514.2102 0.3094,518.9901 0.3128,523.844 0.3128,528.1843 0.3089,532.4505 0.3081,536.7065 0.3113,540.9593 0.3139,545.2127 0.3162,549.7175 0.3183,554.8159 0.3172,559.6467 0.3122,564.0145 0.755,568.8968 1.2696,573.7668 1.3461,578.1557 1.3547,582.9308 1.357,587.9674 1.3634,593.6279 1.0502,599.2897 0.4138,603.0744 0.0956,604.4528 A2.2711,2.2711 0 0 1 -4.3556,603.5472 T-3.9219,600.2153 -3.4834,593.628 -3.4776,587.968 -3.4785,582.9373 -3.4924,578.2023 -3.6258,573.5595 -4.1582,568.6489 -4.5722,564.0145 -4.5772,559.6467 -4.5783,554.8159 -4.5762,549.7175 -4.5739,545.2127 -4.5713,540.9593 -4.5681,536.7065 -4.5689,532.4505 -4.5728,528.1843 -4.5728,523.844 -4.5694,518.9901 -4.5654,514.2102 -4.5669,509.9358 -4.5771,505.5482 -4.5833,501.2901 -4.5824,497.0141 -4.5766,492.6152 -4.5055,488.2588 -3.9956,483.1931 -3.5517,478.2193 -3.5512,473.9668 -3.549,469.7123 -3.5465,465.4566 -3.5434,461.1885 -3.5395,456.8274 -3.5347,452.3237 -3.5292,448.0465 -3.5218,443.2898 -3.5152,438.3989 -3.5257,434.1256 -3.6505,429.7032 -4.1534,425.0272 -4.5401,420.4997 -4.5359,416.2536 -4.5365,412.0395 -4.5461,407.9316 -4.5585,403.7304 -4.5661,398.733 -4.5647,393.3209 -4.5383,388.1792 -4.4581,383.3566 -4.1694,378.8376 -3.7197,374.2406 -3.4987,369.7317 -3.5004,365.3457 -3.5347,360.6524 -3.7161,355.8716 -4.1982,350.7756 -4.5446,345.8719 -4.6524,341.6253 -5.1552,337.3397 -5.5601,332.7875 -5.551,328.2827 -5.5404,324.0293 -5.5306,319.7768 -5.5234,315.5227 -5.5165,311.2693 -5.5098,307.0166 -5.5064,302.7614 -5.5053,298.5051 -5.5007,294.2407 -5.4918,289.9175 -5.4827,285.6634 -5.475,281.3985 -5.4685,277.0755 -5.4654,272.8236 -5.4652,268.5688 -5.4649,264.3155 -5.461,260.0635 -5.456,255.808 -5.4508,251.5501 -5.4267,247.2666 -5.2588,242.8008 -4.7403,237.8503 -4.3269,232.8121 -3.78,227.903 -3.2537,222.9063 -3.0793,218.2818 -2.5654,214.1771 -2.2013,210.0836 -2.195,205.8288 -2.1874,201.5755 -2.1783,197.3233 -2.172,193.0672 -2.1694,188.8041 -2.1674,184.4854 -2.1775,179.7695 -2.2452,174.7076 -2.7567,169.8625 -3.2087,164.8699 -3.2076,159.9509 -3.2134,155.7092 -3.249,151.5394 -3.4713,146.9162 -3.9609,142.0246 -4.2583,137.4601 -4.2565,133.1908 -4.2591,128.8286 -4.2932,124.3365 -4.5072,120.085 -4.9915,115.261 -5.2884,109.522 -5.2841,104.499 -5.2839,100.244 -5.2848,95.9888 -5.2846,91.7324 -5.2676,87.4678 -5.1712,83.1282 -4.6313,78.8573 -4.1614,74.6363 -4.0713,69.9918 -3.5334,65.3991 -3.0639,61.1337 -2.9799,56.5419 -2.4471,51.7663 -1.9866,47.2058 -1.9799,43.0002 -1.9659,38.8785 -1.9485,34.6235 -1.9323,30.368 -1.9222,26.11 -1.9131,21.8256 -1.905,17.3493 -1.9052,12.4852 -1.9167,7.2345 -1.9385,2.2633 -1.9513,0 A1.9513,1.9513 0 0 1 1.9513,0 Z" stroke-linecap="round" fill="#9398b0"/></g></g><g transform="matrix(1, 0, 0, 1, 1279.2643, 13559.6089)" opacity="1"><g transform="scale(1)"><path d="M0.3714,-2.6065 T2.128,-2.3358 6.5588,-1.8018 11.5436,-1.0003 16.4388,-0.0526 21.22,0.5123 25.7831,1.1391 30.4814,1.6222 35.0576,1.6113 39.7181,1.563 44.7751,1.5098 49.6886,1.4591 53.9495,1.4187 58.395,1.0338 63.3011,0.4706 68.1556,0.2456 72.8501,0.1988 77.221,0.1646 81.4227,0.1344 85.6251,0.4499 89.7289,0.9227 93.8709,1.0897 98.5013,1.1062 103.1134,0.7303 107.6854,0.1985 112.592,0.0038 117.1673,-0.0354 121.334,-0.5061 125.6061,-1.0502 130.5502,-1.1487 135.66,-1.173 140.7208,-1.1883 145.5037,-1.1922 150.1114,-0.7159 154.9088,-0.2137 159.3705,-0.1872 163.8888,-0.1995 168.6545,-0.2174 173.188,-0.2339 177.3851,-0.2464 181.635,-0.2569 186.3502,-0.2665 191.3805,-0.2733 196.552,-0.7161 201.4398,-1.2329 206.2228,-1.3257 211.4268,-1.3558 216.7342,-1.3808 221.5758,-1.8419 226.1136,-2.3815 230.5383,-2.4689 235.0968,-2.9798 239.9372,-3.5415 244.5393,-3.5984 249.3119,-3.6133 254.4007,-4.1089 259.2091,-4.6436 263.5888,-4.6959 267.8507,-4.7067 272.1927,-5.0455 276.9423,-5.5735 281.6369,-5.7777 286.3794,-5.7901 291.1612,-5.7934 295.4928,-5.8016 300.207,-5.8147 304.9872,-5.8265 309.3185,-5.8351 313.5788,-5.8456 317.8315,-5.8578 322.085,-5.8644 326.3393,-5.8664 330.5915,-5.8662 334.7655,-5.4207 339.4178,-4.8899 344.2723,-4.7993 348.9092,-4.7958 353.5851,-4.7973 358.008,-4.3642 362.3975,-3.8413 366.7646,-3.7466 370.9237,-3.7374 375.1713,-3.7297 379.7535,-3.721 384.5229,-3.709 389.056,-3.6889 393.7067,-3.659 398.4813,-3.6283 402.8885,-3.6053 407.076,-3.5872 411.3251,-3.5692 415.6373,-3.5381 419.9185,-3.0605 424.5754,-2.5342 429.3278,-2.4538 433.7274,-2.4388 437.9933,-2.4302 442.7022,-2.4229 447.5838,-2.7515 452.6736,-3.2539 457.6047,-3.4216 461.7902,-2.9567 466.3397,-2.4274 470.9669,-2.3571 475.2121,-2.354 479.4651,-2.3528 483.6002,-1.912 487.8697,-1.3766 492.1208,-0.8407 496.0568,0.1069 500.1372,1.136 504.4029,2.239 508.9616,2.8843 513.4286,2.9466 517.6667,2.936 521.9951,2.9161 526.2546,2.8924 530.5092,2.8693 534.7615,2.8501 538.9426,2.8505 543.0181,2.3678 547.1564,1.3414 551.63,0.3104 557.0117,-0.7346 561.2144,-1.3025 562.3909,-1.3217 A3.4545,3.4545 0 0 1 562.6691,5.5817 T559.8992,5.8192 554.7011,6.5271 550.172,7.5175 545.8906,8.5686 541.363,9.5129 536.8893,9.9182 532.635,9.9007 528.3814,9.8797 524.1274,9.8563 519.8512,9.833 515.3146,9.8121 510.4759,9.7743 506.0243,9.5344 501.5047,8.5902 497.0316,7.1628 492.5696,5.9924 487.7312,5.4329 482.9635,4.9113 478.4014,4.4737 474.1475,4.4732 469.8727,4.4682 465.3681,4.3846 460.5332,3.8757 455.5725,3.4884 450.7375,4.0217 446.2334,4.5268 441.5688,4.5443 436.9278,4.5517 432.6471,4.5594 428.0692,4.5579 423.5031,4.4834 418.8953,3.9803 413.8957,3.5582 408.9785,3.5792 404.2089,3.5993 399.623,3.6219 395.3472,3.6474 391.1691,3.6756 386.8676,3.6997 382.6205,3.7149 378.4327,3.7244 374.0319,3.7317 369.2521,3.7366 364.5437,3.7163 360.3736,3.518 355.7613,3.0092 350.3601,2.6757 345.3857,2.67 341.0697,2.6447 336.9805,2.4427 332.7968,1.935 328.465,1.6073 324.2115,1.6055 319.9593,1.6013 315.7049,1.592 311.4497,1.5806 307.1759,1.5711 302.6416,1.561 297.8739,1.5481 293.3483,1.5363 288.8186,1.5316 284.0649,1.5341 279.686,1.57 275.4977,2.0807 271.1174,2.5739 266.7908,2.5857 262.5546,2.5835 257.9841,2.687 252.5313,3.2017 247.2493,3.61 242.5742,3.6081 237.7582,3.6998 232.4565,4.2012 227.5582,4.6432 223.1898,5.155 218.1374,5.637 213.3792,5.6263 209.2651,5.6092 204.8252,5.6186 200.1849,5.824 195.9064,6.3344 191.3805,6.6533 186.3502,6.6465 181.635,6.6369 177.3851,6.6264 173.188,6.6139 168.6544,6.5973 163.8874,6.579 159.3518,6.5604 154.7357,6.5057 149.8426,5.9542 145.3908,5.4523 141.265,5.4498 136.8824,5.4368 132.5576,5.4304 128.4257,5.4396 124.1022,5.5985 119.1635,6.0859 114.213,6.4224 109.8819,6.4692 105.1777,6.9589 99.9455,7.3879 95.1518,7.3461 90.4708,7.1651 85.7597,6.6366 81.4228,6.2457 77.2216,6.2157 72.8537,6.1833 68.2149,6.1589 63.7672,6.2637 58.8047,6.7377 53.4071,7.076 48.4711,7.0288 43.4418,6.9763 38.1382,6.9182 32.987,6.8503 28.3211,6.7128 23.5486,6.1138 18.8669,5.1088 14.5022,4.5271 9.8318,3.9473 5.2881,3.2557 1.3911,2.8372 -0.3714,2.6065 A2.6328,2.6328 0 0 1 0.3714,-2.6065 Z" stroke-linecap="round" fill="#9398b0"/></g></g><g transform="matrix(1, 0, 0, 1, 1603.597, 13552.1652)" opacity="1"><g transform="scale(1)"><path d="M1.8141,-0.3014 T2.0787,1.2129 1.9014,6.0299 1.0966,11.2125 0.7339,13.0925 A1.8245,1.8245 0 0 1 -2.8539,12.4275 T-2.5188,10.5424 -1.7621,5.9827 -1.5773,1.8048 -1.8141,0.3014 A1.8389,1.8389 0 0 1 1.8141,-0.3014 Z" stroke-linecap="round" fill="#4dabf7"/></g></g><g transform="matrix(1, 0, 0, 1, 1640.8156, 13551.1019)" opacity="1"><g transform="scale(1)"><path d="M1.9837,1.06 T1.9268,4.0777 1.825,10.4577 1.7801,13.82 A1.7801,1.7801 0 0 1 -1.7801,13.82 T-1.825,10.4577 -1.9268,4.0777 -1.9837,1.06 A1.9837,1.9837 0 0 1 1.9837,1.06 Z" stroke-linecap="round" fill="#4dabf7"/></g></g><g transform="matrix(1, 0, 0, 1, 1680.1608, 13550.0385)" opacity="1"><g transform="scale(1)"><path d="M1.8858,0 T1.933,2.2633 2.2057,7.7249 2.6892,12.7631 2.9473,14.603 A1.909,1.909 0 0 1 -0.8273,15.177 T-1.1278,13.3435 -1.7043,8.0183 -1.933,2.2633 -1.8858,0 A1.8858,1.8858 0 0 1 1.8858,0 Z" stroke-linecap="round" fill="#4dabf7"/></g></g><g transform="matrix(1, 0, 0, 1, 1673.7805, 13581.94)" opacity="1"><g transform="scale(1)"><path d="M-0.397,-2.3894 T1.1212,-2.663 5.1496,-2.2565 8.5621,0.5917 8.0641,4.7203 8.5149,7.7274 11.548,11.2584 11.9625,16.5433 9.2454,20.2451 5.0188,21.2817 1.4142,21.4477 0.0863,21.4781 A2.3397,2.3397 0 0 1 -0.0863,16.8019 T1.2402,16.7343 5.3009,16.1757 7.1855,13.47 4.5333,9.6175 3.0634,4.9567 1.8965,2.1616 0.397,2.3894 A2.4221,2.4221 0 0 1 -0.397,-2.3894 Z" stroke-linecap="round" fill="#4dabf7"/></g></g><g transform="matrix(1, 0, 0, 1, 1558.9348, 13556.4188)" opacity="1"><g transform="scale(1)"><path d="M0,0 Q1.938,0.4834 2.7091,0.6148 T4.1413,0.8178 5.6478,0.9283 7.1947,0.9883 8.5195,1.021 9.7258,1.0388 10.8677,1.0485 11.9723,1.2977 13.0588,1.6772 14.1355,1.8837 15.2046,1.996 16.2718,2.0571 17.338,2.0903 18.4014,2.1084 19.7072,2.1183 21.1449,2.1236 22.4126,2.1265 23.5879,2.1281 24.7106,2.3707 25.807,2.7443 26.8891,2.9475 27.9611,3.0581 29.0299,3.1182 30.097,3.151 31.1608,3.1688 32.2252,3.1784 33.2899,3.1837 34.3547,3.1866 35.4196,3.1881 36.4823,3.189 37.546,3.1894 38.6103,3.1897 39.6726,3.1898 40.7362,3.1899 41.8004,3.19 42.8627,3.19 43.9262,3.19 44.9904,3.19 46.0527,3.19 47.1162,3.19 48.1804,3.19 49.2427,3.19 50.3062,3.19 51.3704,3.19 52.4327,3.19 53.4962,3.19 54.5604,3.19 55.6227,3.4317 56.6862,3.8048 57.7504,4.0078 58.8127,4.1183 60.1179,4.1783 61.5553,4.211 62.8228,4.2288 63.998,4.2385 65.1207,4.2437 66.2171,4.2466 67.2991,4.2481 68.3711,4.249 69.4399,4.2495 70.507,4.2497 71.5708,4.2498 72.8769,4.2499 74.3147,4.25 75.5825,4.25 76.7579,4.25 77.8806,4.25 78.977,4.25 80.0591,4.0083 81.1311,3.6352 82.1999,3.4322 83.267,3.3217 84.3308,3.2617 85.3952,3.229 86.4599,3.2112 87.5224,3.2015 88.5861,3.1963 89.6503,3.1934 90.7127,3.1919 91.7762,3.191 92.8404,3.1905 93.9027,2.9486 94.9662,2.5753 96.0304,2.3723 97.0927,2.2618 98.1562,2.2017 99.2204,2.169 100.285,2.1512 101.3498,2.1415 102.4123,2.1363 103.476,2.1334 104.5403,2.1319 105.6027,2.131 106.6662,2.1305 107.7304,2.1303 108.7927,2.1302 109.8562,2.1301 110.9204,2.13 111.9827,2.13 113.2879,2.13 114.7253,2.13 115.9928,2.13 117.168,2.13 118.2907,2.13 119.3871,2.13 120.2274,1.886 120.9263,1.5094 121.7898,1.3045 122.7452,1.193 123.9923,1.1323 125.6424,1.0855 L126.54,1.06 " stroke-linecap="round" fill="none" stroke="#4dabf7" stroke-width="4.5" stroke-dasharray="9 9" stroke-dashoffset="0"/></g></g><g transform="matrix(1, 0, 0, 1, 1564.2518, 13520.2637)" opacity="1"><g transform="scale(1)"><path d="M0,0 Q-2.4259,0 -3.3275,0 T-5.2051,-0.2417 -7.3456,-0.7717 L-8.51,-1.06 " stroke-linecap="round" fill="none" stroke="#4dabf7" stroke-width="4.5" stroke-dasharray="none" stroke-dashoffset="0"/></g></g><g transform="matrix(1, 0, 0, 1, 1564.2518, 13483.0451)" opacity="1"><g transform="scale(1)"><path d="M0,0 Q-3.3926,-0.4834 -5.4163,-0.7717 L-7.44,-1.06 " stroke-linecap="round" fill="none" stroke="#4dabf7" stroke-width="4.5" stroke-dasharray="none" stroke-dashoffset="0"/></g></g><g transform="matrix(1, 0, 0, 1, 1564.2518, 13439.4463)" opacity="1"><g transform="scale(1)"><path d="M0,0 Q-2.9093,0.4834 -3.9423,0.8588 T-6.2076,1.6821 L-7.44,2.13 " stroke-linecap="round" fill="none" stroke="#4dabf7" stroke-width="4.5" stroke-dasharray="none" stroke-dashoffset="0"/></g></g><g transform="matrix(1, 0, 0, 1, 1562.125, 13397.9743)" opacity="1"><g transform="scale(1)"><path d="M0,0 Q-2.4259,0.4834 -3.3275,0.8588 T-5.4467,1.4385 -8.1172,1.8863 L-9.57,2.13 " stroke-linecap="round" fill="none" stroke="#4dabf7" stroke-width="4.5" stroke-dasharray="none" stroke-dashoffset="0"/></g></g><g transform="matrix(1, 0, 0, 1, 1527.0332, 13392.6573)" opacity="1"><g transform="scale(1)"><path d="M0,0 Q0.4834,2.4259 0.6148,3.3275 T1.0618,4.9611 1.7906,6.0915 2.6704,6.7064 3.8763,7.0409 5.4979,7.2994 L6.38,7.44 " stroke-linecap="round" fill="none" stroke="#4dabf7" stroke-width="4.5" stroke-dasharray="none" stroke-dashoffset="0"/></g></g><g transform="matrix(1, 0, 0, 1, 1535.5403, 13391.5939)" opacity="1"><g transform="scale(1)"><path d="M0,0 Q0,2.4259 0,3.5691 T0,5.8199 0,8.7429 0,12.7242 L0,14.89 " stroke-linecap="round" fill="none" stroke="#4dabf7" stroke-width="4.5" stroke-dasharray="none" stroke-dashoffset="0"/></g></g><g transform="matrix(1, 0, 0, 1, 1680.1608, 13559.6089)" opacity="1"><g transform="scale(1)"><path d="M0,0 Q0,-3.8806 0,-5.4194 T0,-8.2811 0,-10.8091 0,-12.9117 0,-14.7828 0,-16.528 0,-18.2047 0,-19.8442 0.2417,-21.2194 0.6148,-22.6948 0.8178,-24.4687 0.9283,-26.4028 0.9883,-28.1822 1.265,-29.6358 1.6594,-31.1539 1.874,-32.9511 1.9907,-34.8977 2.0542,-36.684 2.0888,-38.1414 2.1076,-39.6615 2.1178,-41.2158 2.1234,-42.7886 2.1264,-44.3716 2.128,-45.7161 2.1289,-46.9331 2.1294,-48.3225 2.1297,-49.8056 2.1298,-51.3398 2.1299,-52.9017 2.1299,-54.237 2.13,-55.6907 2.13,-57.2089 2.13,-58.5181 2.13,-59.9577 2.13,-61.4681 2.13,-62.7754 2.13,-64.2139 2.13,-65.7238 2.13,-67.0308 2.13,-68.4691 2.13,-69.9789 2.13,-71.2835 2.13,-72.7206 2.13,-74.2297 2.13,-76.0196 2.13,-77.9646 2.13,-79.994 2.13,-82.3087 2.13,-84.5368 2.13,-86.7202 2.13,-88.877 1.886,-90.7776 1.5094,-92.2972 1.3045,-93.8511 1.193,-95.4238 1.1323,-97.0067 1.0994,-98.5951 1.0814,-99.9448 1.0716,-101.4064 1.0663,-102.9288 1.0634,-104.2426 1.0619,-105.6847 1.061,-107.1965 1.0606,-108.5022 1.0603,-109.9399 1.0602,-111.4493 1.0601,-113.2394 1.06,-115.1845 1.06,-116.7283 1.06,-118.2954 0.8183,-119.6336 0.4452,-120.6032 0.2422,-121.6141 0.1317,-122.8913 0.0717,-124.3134 0.039,-125.5727 0.0212,-126.7434 0.0115,-128.1076 0.0063,-129.577 0.0034,-131.1037 0.0019,-132.6615 0.001,-133.9923 0.0005,-135.4436 0.0003,-136.9605 0.0002,-138.2712 0.0001,-139.7116 0,-141.2225 0,-142.5301 0,-143.9687 0,-145.4787 0,-146.7834 0,-148.4622 0,-150.7924 L0,-152.06 " stroke-linecap="round" fill="none" stroke="#4dabf7" stroke-width="4.5" stroke-dasharray="9 9" stroke-dashoffset="0"/></g></g><g transform="matrix(1, 0, 0, 1, 1678.0341, 13402.2278)" opacity="1"><g transform="scale(1)"><path d="M0,0 Q-0.9713,-2.4259 -0.9915,-3.0858 T-0.7811,-4.1046 -0.1832,-4.6588 0.6277,-4.7164 1.3127,-4.262 1.9271,-3.7732 2.503,-3.2656 2.8163,-2.5038 2.745,-1.6037 2.2206,-0.8724 1.4497,-0.7163 0.5469,-0.873 -0.1858,-1.2022 -0.5844,-1.867 -0.5596,-2.4703 -0.3044,-3.0402 0.0761,-3.5918 0.7687,-3.892 1.6311,-4.0552 2.342,-3.9024 2.7287,-3.3358 2.939,-2.3003 3.0535,-1.0097 3.1157,0.178 2.664,1.0681 1.6251,1.7559 L1.06,2.13 " stroke-linecap="round" fill="none" stroke="#f76707" stroke-width="4.5" stroke-dasharray="none" stroke-dashoffset="0"/></g></g><g transform="matrix(1, 0, 0, 1, 1686.5412, 13370.3262)" opacity="1"><g transform="scale(1)"><path d="M1.06,0 Q3.9693,-0.4834 5.0046,-0.6148 T6.8447,-0.8178 8.3291,-0.9283 9.3783,-0.7467 9.9491,0.0795 10.0179,1.0145 9.8137,1.7649 9.4609,2.4147 8.7833,3.0099 7.9291,3.5754 7.2227,4.127 6.5967,4.671 6.2562,5.2086 6.5544,5.9845 7.2022,6.6482 7.7985,7.2532 8.3646,8.068 9.156,8.9946 9.8281,9.9843 10.1938,11.0083 10.3927,12.2927 10.2592,13.4771 9.9449,14.3631 9.5323,15.0867 8.8222,15.4804 7.7085,15.6945 6.3754,15.811 5.1645,15.8744 4.0225,15.6672 2.9155,15.0688 1.8277,14.2577 0.7526,13.3331 -0.3179,12.3444 -1.4915,11.234 L-2.13,10.63 " stroke-linecap="round" fill="none" stroke="#f76707" stroke-width="4.5" stroke-dasharray="none" stroke-dashoffset="0"/></g></g><g transform="matrix(1, 0, 0, 1, 1713.1258, 13369.2628)" opacity="1"><g transform="scale(1)"><path d="M0,0 Q0,2.4259 0,3.5691 T0,5.8199 0,7.7716 0,9.5607 0,11.6328 L0,12.76 " stroke-linecap="round" fill="none" stroke="#f76707" stroke-width="4.5" stroke-dasharray="none" stroke-dashoffset="0"/></g></g><g transform="matrix(1, 0, 0, 1, 1718.4427, 13376.7065)" opacity="1"><g transform="scale(1)"><path d="M0,0 Q-2.9093,0 -4.6446,0 L-6.38,0 " stroke-linecap="round" fill="none" stroke="#f76707" stroke-width="4.5" stroke-dasharray="none" stroke-dashoffset="0"/></g></g><g transform="matrix(1, 0, 0, 1, 1725.8864, 13362.8825)" opacity="1"><g transform="scale(1)"><path d="M0,0 Q-0.4834,2.4259 -0.6148,3.3275 T-1.0618,4.7194 -1.5489,5.7183 -1.8139,6.989 -1.958,8.4076 -1.7925,9.421 -1.2168,9.9723 -0.1763,10.2722 1.1171,10.4354 2.304,10.5241 3.4353,10.5724 4.5364,10.5987 5.6188,10.613 6.6932,10.379 7.8699,9.8551 L8.51,9.57 " stroke-linecap="round" fill="none" stroke="#f76707" stroke-width="4.5" stroke-dasharray="none" stroke-dashoffset="0"/></g></g><g transform="matrix(1, 0, 0, 1, 1735.4569, 13360.7557)" opacity="1"><g transform="scale(1)"><path d="M0,0 Q0,2.9093 0,4.1862 T-0.2417,6.6412 -0.6148,10.4004 -0.9032,16.0608 L-1.06,19.14 " stroke-linecap="round" fill="none" stroke="#f76707" stroke-width="4.5" stroke-dasharray="none" stroke-dashoffset="0"/></g></g><g transform="matrix(1, 0, 0, 1, 1747.1542, 13373.5164)" opacity="1"><g transform="scale(1)"><path d="M0,0 Q-0.9713,2.9093 -0.9915,3.7006 T-0.2954,4.9224 1.2754,5.8664 L2.13,6.38 " stroke-linecap="round" fill="none" stroke="#f76707" stroke-width="4.5" stroke-dasharray="none" stroke-dashoffset="0"/></g></g><g transform="matrix(1, 0, 0, 1, 1748.2175, 13365.0093)" opacity="1"><g transform="scale(1)"><path d="M 0 0 m -0.5, 0 a 0.5,0.5 0 1,0 1,0 a 0.5,0.5 0 1,0 -1,0" stroke-linecap="round" fill="#f76707" stroke="#f76707" stroke-width="4.5" stroke-dasharray="none" stroke-dashoffset="0"/></g></g><g transform="matrix(1, 0, 0, 1, 1599.3435, 13641.4897)" opacity="1"><g transform="scale(1)"><path d="M0,0 L0,-1.06 " stroke-linecap="round" fill="none" stroke="#e599f7" stroke-width="4.5" stroke-dasharray="none" stroke-dashoffset="0"/></g></g><g transform="matrix(1, 0, 0, 1, 1608.914, 13658.5038)" opacity="1"><g transform="scale(1)"><path d="M0,0 Q0,2.9093 0,4.1862 T0,6.8852 0,10.0036 L0,11.7 " stroke-linecap="round" fill="none" stroke="#e599f7" stroke-width="4.5" stroke-dasharray="none" stroke-dashoffset="0"/></g></g><g transform="matrix(1, 0, 0, 1, 1623.8014, 13659.5672)" opacity="1"><g transform="scale(1)"><path d="M0,0 L7.44,0 " stroke-linecap="round" fill="none" stroke="#e599f7" stroke-width="4.5" stroke-dasharray="none" stroke-dashoffset="0"/></g></g><g transform="matrix(1, 0, 0, 1, 1668.4636, 13659.5672)" opacity="1"><g transform="scale(1)"><path d="M0,1.06 Q0,3.4859 0.2417,4.1458 T1.1005,4.9229 2.4538,5.1801 L3.19,5.32 " stroke-linecap="round" fill="none" stroke="#e599f7" stroke-width="4.5" stroke-dasharray="none" stroke-dashoffset="0"/></g></g><g transform="matrix(1, 0, 0, 1, 1671.6537, 13648.9334)" opacity="1"><g transform="scale(1)"><path d="M 0 0 m -0.5, 0 a 0.5,0.5 0 1,0 1,0 a 0.5,0.5 0 1,0 -1,0" stroke-linecap="round" fill="#e599f7" stroke="#e599f7" stroke-width="4.5" stroke-dasharray="none" stroke-dashoffset="0"/></g></g><g transform="matrix(1, 0, 0, 1, 1562.125, 13600.0176)" opacity="1"><g transform="scale(1)"><path d="M0,0 Q-1.938,-0.4834 -2.7091,-0.6148 T-4.1413,-0.8178 -5.4039,-0.9283 -6.5763,-0.9883 -7.9414,-1.021 -9.6827,-1.0463 L-10.63,-1.06 " stroke-linecap="round" fill="none" stroke="#e599f7" stroke-width="4.5" stroke-dasharray="none" stroke-dashoffset="0"/></g></g><g transform="matrix(1, 0, 0, 1, 1561.0616, 13641.4897)" opacity="1"><g transform="scale(1)"><path d="M0,0 Q-1.938,-0.4834 -2.7091,-0.6148 T-4.1413,-0.8178 -5.6478,-0.9283 -7.5016,-1.0136 L-8.51,-1.06 " stroke-linecap="round" fill="none" stroke="#e599f7" stroke-width="4.5" stroke-dasharray="none" stroke-dashoffset="0"/></g></g><g transform="matrix(1, 0, 0, 1, 1642.9423, 13644.6798)" opacity="1"><g transform="scale(1)"><path d="M0,0 Q2.4259,0 3.8131,0 T5.9549,0.2417 7.3617,0.6148 8.3687,1.3035 8.9165,2.4054 9.2145,3.4905 9.3766,4.8081 9.4648,6.2522 9.5128,7.5234 9.5389,8.9423 9.3114,10.4415 8.946,11.7404 8.7472,12.9327 8.3951,14.0669 7.9595,15.1673 7.481,16.2515 6.9789,17.327 6.4641,18.3954 5.6984,19.2183 5.038,19.9099 4.437,20.7718 3.6267,21.4823 2.9442,22.1106 2.8146,22.694 3.2275,23.0114 3.9377,23.184 4.8097,23.2779 6.0114,23.329 7.3924,23.3568 8.871,23.372 10.4027,23.3802 11.7193,23.3847 13.1629,23.3871 14.968,23.389 L15.95,23.39 " stroke-linecap="round" fill="none" stroke="#e599f7" stroke-width="4.5" stroke-dasharray="none" stroke-dashoffset="0"/></g></g><g transform="matrix(1, 0, 0, 1, 1667.4002, 13656.3771)" opacity="1"><g transform="scale(1)"><path d="M0,0 Q-0.9713,1.938 -1.2355,2.7091 T-1.6434,4.1413 -1.8653,5.4039 -1.742,6.5763 -1.1893,7.4581 -0.4053,7.9377 0.5068,8.1987 1.4887,8.5823 2.5062,9.0327 3.5453,9.2777 4.8379,9.1693 6.5232,8.7423 L7.44,8.51 " stroke-linecap="round" fill="none" stroke="#e599f7" stroke-width="4.5" stroke-dasharray="none" stroke-dashoffset="0"/></g></g><g transform="matrix(1, 0, 0, 1, 1671.6537, 13645.7432)" opacity="1"><g transform="scale(1)"><path d="M0,0 L-1.06,1.06 " stroke-linecap="round" fill="none" stroke="#e599f7" stroke-width="4.5" stroke-dasharray="none" stroke-dashoffset="0"/></g></g><g transform="matrix(1, 0, 0, 1, 1600.4069, 13639.3629)" opacity="1"><g transform="scale(1)"><path d="M0,0 Q-0.9713,1.4546 -1.4771,1.8503 T-2.4999,2.4612 -3.5419,2.5519 -4.3527,2.1155 -4.7938,1.3925 -5.2754,0.5159 -5.7791,-0.4467 -5.8114,-1.456 -5.5873,-2.4884 -5.2215,-3.2917 -4.5368,-3.7287 -3.681,-3.9664 -2.7298,-4.0957 -1.7267,-3.9244 -0.6976,-3.5895 0.1038,-3.1657 0.7838,-2.6934 1.3977,-1.9508 1.7316,-0.8196 1.9133,0.2815 2.0121,1.6078 1.8219,3.0566 1.2328,4.3304 0.429,5.265 -0.25,6.0151 -0.8633,6.6649 -1.6826,7.0183 -2.37,6.9689 -2.9856,6.7004 -3.8061,6.3126 -4.4964,5.616 -5.1137,4.7514 -5.6911,3.7977 -6.0052,2.7933 -5.9345,1.5196 -5.4103,0.3433 -4.6395,-0.5406 -3.7369,-1.2654 -2.7602,-1.6596 -1.7432,-1.8741 -0.7066,-1.9908 0.3429,-2.0543 1.1578,-1.6032 1.6011,-0.6304 1.8423,0.3844 1.7295,1.1804 1.4242,1.8551 1.0165,2.4638 0.3113,2.7949 -0.558,3.2168 -1.5165,3.6879 -2.5213,3.9442 -3.5535,3.842 -4.6007,3.303 -5.4121,2.5242 -6.0951,1.8565 -6.7084,1.0099 -7.042,-0.1779 -6.9818,-1.0681 -6.4657,-1.794 -5.6993,-2.4306 -4.7967,-2.7769 -3.8224,-2.9653 -2.8067,-3.0677 -1.7685,-3.1235 -0.9621,-2.9121 -0.5234,-2.3115 -0.043,-1.4991 0.4599,-0.5739 0.7336,0.4151 0.8824,1.4388 0.48,2.479 -0.5174,3.626 L-1.06,4.25 " stroke-linecap="round" fill="none" stroke="#e599f7" stroke-width="4.5" stroke-dasharray="none" stroke-dashoffset="0"/></g></g><g transform="matrix(1, 0, 0, 1, 1440.899, 13322.4738)" opacity="1"><g transform="scale(1)"><path d="M0,0 Q-1.938,-0.9713 -2.4651,-1.4771 T-3.279,-2.4999 -3.4801,-3.2979 -3.1061,-3.7321 -2.4171,-3.9683 -1.5566,-4.0967 -0.6051,-4.1666 0.1542,-3.963 0.8112,-3.6105 1.4126,-3.1771 1.7397,-2.214 1.6737,-0.9627 1.1522,-0.0404 0.3851,0.4614 -0.5178,0.7344 -1.4947,0.8829 -2.2677,0.722 -2.93,0.3927 -3.7759,-0.028 -4.48,-0.7426 -4.863,-1.6169 -5.0714,-2.8199 -5.1848,-4.2016 -5.0025,-5.195 -4.4177,-5.977 -3.6162,-6.6441 -2.6945,-6.7654 -1.7075,-6.5896 -0.6872,-6.2524 0.3535,-5.5832 1.1636,-4.7336 1.6043,-3.788 2.0857,-2.5463 2.3476,-1.1435 2.0044,-0.1387 1.3321,0.4079 0.483,0.7053 -0.4646,0.3837 -1.224,-0.5186 -1.6371,-1.4951 -1.8619,-2.5096 -1.7402,-3.3032 -1.1883,-3.735 -0.4048,-3.9698 0.0215,-3.6142 0.0076,-2.6529 L0,-2.13 " stroke-linecap="round" fill="none" stroke="#40c057" stroke-width="4.5" stroke-dasharray="none" stroke-dashoffset="0"/></g></g><g transform="matrix(1, 0, 0, 1, 1520.6529, 13555.3554)" opacity="1"><g transform="scale(1)"><path d="M0,0 Q0,2.4259 -0.2417,3.3275 T-0.6148,5.2051 -0.8178,7.1955 -0.9747,9.4199 L-1.06,10.63 " stroke-linecap="round" fill="none" stroke="#40c057" stroke-width="4.5" stroke-dasharray="none" stroke-dashoffset="0"/></g></g><g transform="matrix(1, 0, 0, 1, 1475.9907, 13559.6089)" opacity="1"><g transform="scale(1)"><path d="M0,0 Q0.4834,-0.9713 0.6148,-0.9915 T0.8178,-0.5394 0.6866,1.8885 0.2419,6.177 L0,8.51 " stroke-linecap="round" fill="none" stroke="#40c057" stroke-width="4.5" stroke-dasharray="none" stroke-dashoffset="0"/></g></g><g transform="matrix(1, 0, 0, 1, 1439.8356, 13558.5456)" opacity="1"><g transform="scale(1)"><path d="M0,0 Q0,2.9093 0,4.1862 T0,6.3996 0,8.3309 0,10.3506 0,12.5976 L0,13.82 " stroke-linecap="round" fill="none" stroke="#40c057" stroke-width="4.5" stroke-dasharray="none" stroke-dashoffset="0"/></g></g><g transform="matrix(1, 0, 0, 1, 1551.4911, 13359.6924)" opacity="1"><g transform="scale(1)"><path d="M0,0 Q2.9093,-0.4834 4.1862,-0.6148 T6.6412,-0.5761 8.7041,-0.3134 10.5536,-0.1705 12.6691,-0.0601 L13.82,0 " stroke-linecap="round" fill="none" stroke="#40c057" stroke-width="4.5" stroke-dasharray="none" stroke-dashoffset="0"/></g></g><g transform="matrix(1, 0, 0, 1, 1554.6813, 13319.2837)" opacity="1"><g transform="scale(1)"><path d="M0,0 Q1.938,0.4834 2.7091,0.6148 T4.1413,0.8178 6.1312,0.6866 9.0449,0.2419 L10.63,0 " stroke-linecap="round" fill="none" stroke="#40c057" stroke-width="4.5" stroke-dasharray="none" stroke-dashoffset="0"/></g></g><g transform="matrix(1, 0, 0, 1, 1402.6171, 13278.875)" opacity="1"><g transform="scale(1)"><path d="M0,0 Q4.3639,0.4834 6.967,0.7717 L9.57,1.06 " stroke-linecap="round" fill="none" stroke="#40c057" stroke-width="4.5" stroke-dasharray="none" stroke-dashoffset="0"/></g></g><g transform="matrix(1, 0, 0, 1, 1423.8848, 13273.5581)" opacity="1"><g transform="scale(1)"><path d="M0,0 Q2.9093,0 3.9423,0 T5.7812,0.2417 7.0255,0.8588 7.7025,2.1658 7.8267,3.6041 7.4087,4.6282 6.6979,5.6687 5.8256,6.4764 4.8655,7.1598 3.8598,7.7755 3.3127,8.3521 3.4984,8.9075 4.0851,9.2096 4.8899,9.3739 6.055,9.705 7.4162,10.1268 8.64,10.6002 9.7914,11.1017 10.6617,11.6162 11.3769,12.1378 12.0076,12.6632 12.3507,13.4347 12.2956,14.0983 11.7801,14.701 11.014,15.5122 9.8699,16.1952 8.5202,16.8107 7.0586,17.3895 5.2945,17.7044 3.6075,17.8757 1.9625,17.7249 0.3403,17.3989 -1.0278,16.7382 -2.4282,15.5412 L-3.19,14.89 " stroke-linecap="round" fill="none" stroke="#40c057" stroke-width="4.5" stroke-dasharray="none" stroke-dashoffset="0"/></g></g><g transform="matrix(1, 0, 0, 1, 1448.3427, 13275.6849)" opacity="1"><g transform="scale(1)"><path d="M0,0 Q0.9713,2.4259 1.2355,3.5691 T1.6434,5.5782 2.107,7.1568 2.6008,8.7429 2.9824,10.6581 L3.19,11.7 " stroke-linecap="round" fill="none" stroke="#40c057" stroke-width="4.5" stroke-dasharray="none" stroke-dashoffset="0"/></g></g><g transform="matrix(1, 0, 0, 1, 1455.7864, 13281.0018)" opacity="1"><g transform="scale(1)"><path d="M0,0 Q-4.8473,0 -7.7386,0 L-10.63,0 " stroke-linecap="round" fill="none" stroke="#40c057" stroke-width="4.5" stroke-dasharray="none" stroke-dashoffset="0"/></g></g><g transform="matrix(1, 0, 0, 1, 1468.547, 13265.051)" opacity="1"><g transform="scale(1)"><path d="M0,0 Q-0.4834,1.938 -0.8588,2.7091 T-1.6801,4.383 -2.6103,6.021 -3.358,7.6393 -4.0087,9.247 -4.6067,11.3346 -4.9319,13.6809 -5.1089,15.4429 -5.2052,16.8871 -5.0136,18.1561 -4.4237,19.3321 -3.6195,20.2158 -2.6963,20.6965 -1.7085,21.1997 -0.6877,21.7151 0.3532,21.9955 1.4051,22.148 2.4607,22.231 3.5206,22.0345 4.5828,21.4419 5.644,20.8756 6.7069,20.3258 7.5291,19.5434 7.9764,18.6321 8.2197,17.6508 8.1081,16.6335 7.5618,15.5945 6.7812,14.7853 5.8709,14.3451 4.8901,14.1057 4.1149,13.7337 3.4514,13.2897 2.6049,13.0482 1.9004,13.1584 1.2755,13.4601 0.4522,13.8682 -0.4813,14.5758 -1.2331,15.6881 -1.814,17.2373 L-2.13,18.08 " stroke-linecap="round" fill="none" stroke="#40c057" stroke-width="4.5" stroke-dasharray="none" stroke-dashoffset="0"/></g></g><g transform="matrix(1, 0, 0, 1, 1485.5612, 13274.6215)" opacity="1"><g transform="scale(1)"><path d="M0,0 Q0,1.938 -0.2417,2.9508 T-0.6148,5.0001 -0.8178,6.8423 -0.6866,8.0861 -0.1318,8.7628 0.8973,9.1309 2.1844,9.0894 3.3703,8.8252 4.501,8.4375 5.8435,7.4993 7.5705,6.0878 L8.51,5.32 " stroke-linecap="round" fill="none" stroke="#40c057" stroke-width="4.5" stroke-dasharray="none" stroke-dashoffset="0"/></g></g><g transform="matrix(1, 0, 0, 1, 1486.6246, 13262.9242)" opacity="1"><g transform="scale(1)"><path d="M 0 1.06 m -0.5, 0 a 0.5,0.5 0 1,0 1,0 a 0.5,0.5 0 1,0 -1,0" stroke-linecap="round" fill="#40c057" stroke="#40c057" stroke-width="4.5" stroke-dasharray="none" stroke-dashoffset="0"/></g></g><g transform="matrix(1, 0, 0, 1, 1480.2443, 13483.0451)" opacity="1"><g transform="scale(1)"><path d="M0,0 Q0.4834,-2.9093 0.8588,-3.7006 T1.6801,-4.6807 2.3686,-4.7283 2.7432,-4.0268 2.7052,-2.9179 2.199,-2.0707 1.4379,-1.6098 0.7822,-1.6031 0.1839,-2.085 -0.6273,-2.8306 -1.3125,-3.7218 -1.6853,-4.6923 -1.6441,-5.4619 -1.1361,-5.8805 -0.618,-5.8666 -0.3362,-5.1317 -0.1185,-3.8741 L0,-3.19 " stroke-linecap="round" fill="none" stroke="#e03131" stroke-width="4.5" stroke-dasharray="none" stroke-dashoffset="0"/></g></g><g transform="matrix(1, 0, 0, 1, 1481.3076, 13481.9818)" opacity="1"><g transform="scale(1)"><path d="M0,0 Q-1.938,-2.4259 -2.7091,-3.3275 T-3.8997,-4.9611 -4.0617,-6.0915 -3.4225,-6.7064 -2.5892,-7.0409 -1.6502,-7.2229 -0.8977,-7.0802 -0.2467,-6.5192 0.5931,-5.9724 1.2939,-5.4309 1.6752,-4.6508 1.8826,-3.499 1.7514,-2.3868 1.1945,-1.5401 0.4081,-0.8378 -0.5053,-0.4558 -1.4878,-0.2479 -2.5057,-0.3766 -3.3011,-0.9322 -3.7338,-1.7201 -3.9692,-2.632 -3.8556,-3.6138 -3.3104,-4.6335 -2.5282,-5.4299 -1.617,-5.8631 -0.638,-6.0988 0.3803,-5.9854 1.4198,-5.682 2.227,-5.2729 2.6661,-4.5648 2.905,-3.4523 3.035,-2.1197 2.864,-0.9114 2.2853,-0.0125 1.7266,0.7205 1.1809,1.3633 0.4008,1.7129 -0.5093,1.9031 -1.49,1.7626 -2.591,1.3075 L-3.19,1.06 " stroke-linecap="round" fill="none" stroke="#e03131" stroke-width="4.5" stroke-dasharray="none" stroke-dashoffset="0"/></g></g><g transform="matrix(1, 0, 0, 1, 1415.3777, 13464.9676)" opacity="1"><g transform="scale(1)"><path d="M0,0 Q2.9093,-0.4834 3.9423,-0.6148 T5.7812,-0.8178 7.5089,-1.1722 9.5303,-1.7925 L10.63,-2.13 " stroke-linecap="round" fill="none" stroke="#e03131" stroke-width="4.5" stroke-dasharray="none" stroke-dashoffset="0"/></g></g><g transform="matrix(1, 0, 0, 1, 1433.4553, 13454.3337)" opacity="1"><g transform="scale(1)"><path d="M0,0 Q2.4259,-1.4546 3.3275,-1.8503 T4.9611,-2.4612 6.5771,-2.0662 7.9419,-0.6384 8.6843,0.8657 9.0882,2.6529 9.3079,4.5941 9.1857,6.1358 8.6336,7.4601 8.0893,8.6639 7.5516,9.5604 6.7756,10.2921 5.8679,10.9341 5.3741,11.2834 5.5911,11.4733 6.1925,11.5767 7.0053,11.6329 7.9331,11.6635 8.9212,11.6802 10.1861,11.6892 11.8531,11.6962 L12.76,11.7 " stroke-linecap="round" fill="none" stroke="#e03131" stroke-width="4.5" stroke-dasharray="none" stroke-dashoffset="0"/></g></g><g transform="matrix(1, 0, 0, 1, 1453.6596, 13455.3971)" opacity="1"><g transform="scale(1)"><path d="M0,0 Q2.4259,-0.4834 3.3275,-0.8588 T4.9611,-1.4385 6.5771,-1.9955 8.5155,-2.7691 L9.57,-3.19 " stroke-linecap="round" fill="none" stroke="#e03131" stroke-width="4.5" stroke-dasharray="none" stroke-dashoffset="0"/></g></g><g transform="matrix(1, 0, 0, 1, 1465.3569, 13444.7632)" opacity="1"><g transform="scale(1)"><path d="M0,0 Q1.938,-0.9713 2.7091,-1.2355 T4.1413,-1.6434 5.8895,-1.8653 7.8095,-1.986 9.3396,-1.8077 10.4159,-1.2251 11.0015,-0.4248 11.32,0.7379 11.4933,2.0978 11.3436,3.3231 11.0182,4.4754 10.5995,5.5856 9.8884,6.6752 9.2598,7.7535 8.6739,8.5818 8.3552,9.0324 8.6675,9.5192 9.3207,10.0258 10.4034,10.3013 11.7197,10.4512 12.9214,10.5327 14.0608,10.3354 15.4079,9.9864 17.1385,9.7167 L18.08,9.57 " stroke-linecap="round" fill="none" stroke="#e03131" stroke-width="4.5" stroke-dasharray="none" stroke-dashoffset="0"/></g></g><g transform="matrix(1, 0, 0, 1, 1490.8781, 13439.4463)" opacity="1"><g transform="scale(1)"><path d="M0,0 Q0,2.4259 0.2417,3.3275 T2.0695,4.7194 4.7624,5.235 7.1896,5.29 L8.51,5.32 " stroke-linecap="round" fill="none" stroke="#e03131" stroke-width="4.5" stroke-dasharray="none" stroke-dashoffset="0"/></g></g><g transform="matrix(1, 0, 0, 1, 1489.8147, 13429.8758)" opacity="1"><g transform="scale(1)"><path d="M0,0 Q0.9713,0 0.9915,0 T0.5394,0 -0.4965,0 L-1.06,0 " stroke-linecap="round" fill="none" stroke="#e03131" stroke-width="4.5" stroke-dasharray="none" stroke-dashoffset="0"/></g></g><g transform="matrix(1, 0, 0, 1, 1518.5262, 13680.835)" opacity="1"><g transform="scale(1)"><path d="M0,-1.06 Q1.938,-2.0313 2.7091,-2.2955 T3.8997,-2.4617 4.5473,-1.8248 4.8997,-0.751 4.8474,0.0748 4.3333,0.768 3.5703,1.3891 2.6695,1.7269 1.6939,1.9107 0.6798,1.7668 -0.1135,1.2028 -0.7891,0.4126 -1.4005,-0.5028 -1.7332,-1.4865 -1.6702,-2.505 -1.1503,-3.3007 -0.6257,-3.9775 -0.0987,-4.5897 0.6736,-4.9227 1.5794,-5.1039 2.5555,-4.7168 3.3282,-3.7789 3.7485,-2.5414 3.7355,-1.1408 3.2451,0.1067 2.4926,1.0293 1.5977,1.5312 0.6275,1.8043 -0.386,1.9528 -1.4229,1.7896 -2.2287,1.2152 -2.9087,0.4194 -3.5204,-0.4992 -3.8531,-1.7262 -3.7924,-3.121 -3.276,-4.1237 -2.5095,-4.9109 -1.6068,-5.5808 -0.6324,-5.7036 0.3833,-5.5287 1.4215,-5.4335 2.4696,-4.8961 3.5254,-4.1181 4.3437,-3.4532 4.7889,-2.6059 4.7871,-1.901 4.3005,-1.2758 3.3085,-0.694 1.7998,-0.3776 -0.0524,-0.133 L-1.06,0 " stroke-linecap="round" fill="none" stroke="#ffc034" stroke-width="4.5" stroke-dasharray="none" stroke-dashoffset="0"/></g></g><g transform="matrix(1, 0, 0, 1, 1451.5328, 13719.1169)" opacity="1"><g transform="scale(1)"><path d="M0,0 Q2.4259,0 3.5691,0 T5.5782,0 7.6424,0 10.2704,0 L11.7,0 " stroke-linecap="round" fill="none" stroke="#ffc034" stroke-width="4.5" stroke-dasharray="none" stroke-dashoffset="0"/></g></g><g transform="matrix(1, 0, 0, 1, 1474.9273, 13705.2928)" opacity="1"><g transform="scale(1)"><path d="M0,0 Q0,4.3639 0,6.2782 T0,9.7196 0,12.8046 -0.2417,15.4519 -0.6148,17.6193 -0.9032,19.9837 L-1.06,21.27 " stroke-linecap="round" fill="none" stroke="#ffc034" stroke-width="4.5" stroke-dasharray="none" stroke-dashoffset="0"/></g></g><g transform="matrix(1, 0, 0, 1, 1483.4344, 13718.0535)" opacity="1"><g transform="scale(1)"><path d="M0,0 Q2.4259,0 3.873,0 L5.32,0 " stroke-linecap="round" fill="none" stroke="#ffc034" stroke-width="4.5" stroke-dasharray="none" stroke-dashoffset="0"/></g></g><g transform="matrix(1, 0, 0, 1, 1500.4486, 13709.5464)" opacity="1"><g transform="scale(1)"><path d="M0,0 Q2.4259,-0.4834 3.3275,-0.6148 T4.9611,-0.8178 7.0628,-0.4449 9.1773,0.4853 10.3277,1.477 10.7095,2.7437 10.4316,4.1602 9.797,5.1724 8.9662,5.9648 8.0286,6.6375 7.0351,7.0034 6.0091,7.2025 5.4509,7.5548 5.6329,7.9904 6.2153,8.2273 7.0177,8.3562 7.9399,8.668 8.9249,9.0793 9.9464,9.5448 10.9877,10.0396 12.0376,10.5528 13.0943,11.5593 13.9131,12.8341 13.873,14.0133 13.1238,15.1381 12.2306,15.9917 11.0173,16.456 9.63,16.7086 8.148,16.8461 6.6145,16.9208 5.0529,16.9615 3.4761,16.9836 2.1327,16.754 0.9185,15.9017 -0.3629,14.5535 L-1.06,13.82 " stroke-linecap="round" fill="none" stroke="#ffc034" stroke-width="4.5" stroke-dasharray="none" stroke-dashoffset="0"/></g></g><g transform="matrix(1, 0, 0, 1, 1525.9699, 13713.7999)" opacity="1"><g transform="scale(1)"><path d="M0,1.06 Q-1.938,4.9406 -2.2235,6.2378 T-2.4225,8.2406 -1.8035,9.3302 -0.2538,9.6812 1.9766,9.6092 L3.19,9.57 " stroke-linecap="round" fill="none" stroke="#ffc034" stroke-width="4.5" stroke-dasharray="none" stroke-dashoffset="0"/></g></g><g transform="matrix(1, 0, 0, 1, 1524.9065, 13698.9125)" opacity="1"><g transform="scale(1)"><path d="M 0 0 m -0.5, 0 a 0.5,0.5 0 1,0 1,0 a 0.5,0.5 0 1,0 -1,0" stroke-linecap="round" fill="#ffc034" stroke="#ffc034" stroke-width="4.5" stroke-dasharray="none" stroke-dashoffset="0"/></g></g><g transform="matrix(1, 0, 0, 1, 1278.2009, 13800.9976)" opacity="1"><g transform="scale(1)"><path d="M-0.4856,-2.182 Q-0.9713,-4.3639 -0.9915,-5.5509 T-0.7811,-7.3836 -0.1832,-8.3806 0.6277,-8.923 2.04,-8.7324 3.7774,-7.9014 5.2059,-6.9659 6.2246,-5.9714 7.0228,-4.9448 7.701,-3.9029 8.0699,-2.8505 8.2706,-1.5507 8.1358,0.1254 7.5768,1.5229 6.7894,2.5248 5.8754,3.3115 4.8925,3.7394 3.8745,3.9723 2.835,4.0989 1.5423,4.1678 0.1117,4.2053 -0.9105,3.984 -1.7083,3.6219 -2.6256,3.1833 -3.3663,2.459 -3.7693,1.3377 -3.9885,0.0004 -4.1077,-1.4544 -4.1726,-2.9732 -3.9662,-4.285 -3.3706,-5.726 -2.5609,-6.9955 -1.6348,-7.6861 -0.6477,-8.3035 0.375,-8.881 1.417,-9.1952 2.4671,-9.1244 3.5241,-8.6003 4.343,-7.8295 4.7885,-6.9269 5.0309,-5.7085 5.1627,-4.3184 5.2344,-3.0765 5.0295,-1.9153 4.4324,-0.8002 3.8658,0.292 3.316,1.3718 2.5312,2.2009 1.377,2.6519 0.0218,2.8973 -1.2011,3.0308 -2.1081,2.8617 -2.8431,2.0424 -3.7286,0.8694 -4.4543,-0.7377 -4.849,-2.5833 -4.8198,-4.0729 -4.56,-5.3666 -4.177,-6.3121 -3.4852,-7.0704 -2.6233,-7.7268 -1.6687,-8.084 -0.6661,-8.2782 0.365,-8.14 1.4115,-7.5791 2.2225,-6.7906 2.9054,-5.6344 3.5185,-4.2781 3.8521,-3.0546 4.0335,-1.6617 3.8906,-0.4206 3.3294,0.2546 2.2968,0.3802 0.8093,0.1339 0,0 -0.4856,-2.182 Z" stroke-linecap="round" fill="none" stroke="#ae3ec9" stroke-width="4.5" stroke-dasharray="none" stroke-dashoffset="0"/></g></g><g transform="matrix(1, 0, 0, 1, 1276.0741, 13769.096)" opacity="1"><g transform="scale(1)"><path d="M0,-1.06 Q4.3639,-1.06 6.0365,-1.06 T9.1024,-0.8183 11.4976,-0.4452 13.5279,-0.0005 15.7831,0.6864 L17.01,1.06 " stroke-linecap="round" fill="none" stroke="#ae3ec9" stroke-width="4.5" stroke-dasharray="none" stroke-dashoffset="0"/></g></g><g transform="matrix(1, 0, 0, 1, 1296.2785, 13756.3354)" opacity="1"><g transform="scale(1)"><path d="M0,0 Q3.3926,0.9713 4.5594,1.2355 T6.8442,1.6434 9.0562,2.107 11.2308,2.6008 13.3827,3.1112 15.2807,3.6305 17.7679,4.3986 20.5755,5.5438 22.1029,6.4085 22.4481,7.1228 22.3943,7.997 22.1233,8.956 21.4902,9.9633 20.6602,11.2386 19.7253,12.6597 18.7311,14.1601 17.7046,15.9453 16.6628,17.6437 15.6105,19.295 14.5523,20.9207 13.4933,22.5323 12.1899,24.1364 10.4931,25.719 L9.57,26.58 " stroke-linecap="round" fill="none" stroke="#ae3ec9" stroke-width="4.5" stroke-dasharray="none" stroke-dashoffset="0"/></g></g><g transform="matrix(1, 0, 0, 1, 1317.5462, 13776.5397)" opacity="1"><g transform="scale(1)"><path d="M0,0 Q-1.4546,-1.4546 -3.3049,-1.6086 T-6.4035,-1.6024 -9.0581,-1.3551 -12.1422,-1.164 L-13.82,-1.06 " stroke-linecap="round" fill="none" stroke="#ae3ec9" stroke-width="4.5" stroke-dasharray="none" stroke-dashoffset="0"/></g></g><g transform="matrix(1, 0, 0, 1, 1331.3702, 13769.096)" opacity="1"><g transform="scale(1)"><path d="M0,0 Q1.938,0.4834 2.7091,0.6148 T4.1413,0.8178 6.3751,0.9283 9.2866,0.9883 12.2228,1.0347 L13.82,1.06 " stroke-linecap="round" fill="none" stroke="#ae3ec9" stroke-width="4.5" stroke-dasharray="none" stroke-dashoffset="0"/></g></g><g transform="matrix(1, 0, 0, 1, 1364.3352, 13755.272)" opacity="1"><g transform="scale(1)"><path d="M0,0 Q-3.3926,6.3019 -4.3154,8.26 T-5.9842,12.0106 -7.136,15.0199 -7.7625,17.1404 -8.1034,19.0212 -7.5615,21.2573 -6.2954,23.4428 -5.121,24.8734 -3.7548,25.8955 -2.2843,26.6956 -0.757,27.1308 0.8011,27.3676 2.3761,27.4963 3.9602,27.3225 5.3053,26.7422 6.5227,25.9432 7.4289,25.0229 7.9219,23.7949 8.1901,22.3996 8.336,21.1549 7.9297,19.9944 6.9813,18.8775 5.9798,18.0259 4.9493,17.5627 3.9054,17.3106 2.8519,17.1736 1.5514,17.099 0.1166,17.0584 -1.3912,17.522 -3.2427,18.5699 L-4.25,19.14 " stroke-linecap="round" fill="none" stroke="#ae3ec9" stroke-width="4.5" stroke-dasharray="none" stroke-dashoffset="0"/></g></g><g transform="matrix(1, 0, 0, 1, 1385.6029, 13769.096)" opacity="1"><g transform="scale(1)"><path d="M0,0 Q-2.4259,1.938 -3.3275,2.7091 T-4.7194,4.1413 -5.4766,5.6478 -4.6756,7.1947 -2.2996,8.0361 0.2037,8.0083 2.2928,7.5075 4.1565,6.7517 6.2831,5.8244 L7.44,5.32 " stroke-linecap="round" fill="none" stroke="#ae3ec9" stroke-width="4.5" stroke-dasharray="none" stroke-dashoffset="0"/></g></g><g transform="matrix(1, 0, 0, 1, 1385.6029, 13754.2086)" opacity="1"><g transform="scale(1)"><path d="M 0 0 m -0.5, 0 a 0.5,0.5 0 1,0 1,0 a 0.5,0.5 0 1,0 -1,0" stroke-linecap="round" fill="#ae3ec9" stroke="#ae3ec9" stroke-width="4.5" stroke-dasharray="none" stroke-dashoffset="0"/></g></g></svg>