<svg xmlns="http://www.w3.org/2000/svg" direction="ltr" width="970.153853304149" height="923.760744123563" viewBox="29.34614669585101 114 970.153853304149 923.760744123563" stroke-linecap="round" stroke-linejoin="round" style="background-color: transparent;"><defs/><g transform="matrix(1, 0, 0, 1, 98, 182)" opacity="1"><g transform="scale(1)"><path d="M-0.4962,2.4812 T-1.6582,2.2252 -4.6335,2.1331 -8.0484,3.183 -11.162,5.2602 -12.9479,8.3061 -12.4055,11.4238 -10.211,13.175 -6.7958,14.2112 -2.9473,14.904 0.9675,14.3419 3.0707,13.6348 A2.5412,2.5412 0 0 1 4.9293,18.3652 T3.9748,18.8111 0.8259,19.9754 -3.6188,20.504 -8.0549,19.6574 -11.7767,18.4886 -15.2001,16.212 -17.6827,12.037 -17.8029,7.3663 -15.767,3.2405 -11.9975,0.0292 -7.2983,-2.0089 -3.3586,-2.8081 -0.7068,-2.6982 0.4962,-2.4812 A2.5303,2.5303 0 0 1 -0.4962,2.4812 Z" stroke-linecap="round" fill="#9398b0"/></g></g><g transform="matrix(1, 0, 0, 1, 121, 182)" opacity="1"><g transform="scale(1)"><path d="M1.3098,1.8769 T0.1883,2.6444 -1.9828,4.7175 -3.6217,7.3394 -2.6291,9.847 1.3708,10.7955 5.8325,9.3914 8.8396,6.7119 8.9425,3.6597 6.0122,1.7189 2.8828,1.1638 1.8234,1.0154 A2.0231,2.0231 0 0 1 2.1766,-3.0154 T4.2994,-2.9367 8.7168,-2.2174 12.4845,0.055 14.3694,3.0627 13.8394,7.0815 11.8793,10.842 9.3252,13.0836 6.3208,14.6777 2.8109,15.5366 -0.7503,15.7099 -3.784,15.0065 -6.5505,13.5219 -8.1707,9.922 -7.5012,5.1955 -5.156,1.4985 -2.5788,-0.9761 -1.3098,-1.8769 A2.2887,2.2887 0 0 1 1.3098,1.8769 Z" stroke-linecap="round" fill="#9398b0"/></g></g><g transform="matrix(1, 0, 0, 1, 148, 178)" opacity="1"><g transform="scale(1)"><path d="M1.6063,1.6063 T1.005,2.2003 0.4005,4.3528 1.7148,6.461 4.9409,7.9623 8.376,10.2136 10.1768,13.7105 8.7588,17.7542 5.774,20.2627 2.0573,21.4684 -2.5131,22.1079 -5.7837,22.2229 -6.9083,22.2421 A2.244,2.244 0 0 1 -7.0917,17.7579 T-5.9692,17.6853 -2.9442,17.4695 0.7091,17.01 4.2658,15.2283 4.4893,12.8631 1.0867,11.0561 -2.6292,8.4631 -4.5279,4.3852 -3.6624,0.7947 -2.2003,-1.005 -1.6063,-1.6063 A2.2717,2.2717 0 0 1 1.6063,1.6063 Z" stroke-linecap="round" fill="#9398b0"/></g></g><g transform="matrix(1, 0, 0, 1, 172, 164)" opacity="1"><g transform="scale(1)"><path d="M2.1547,1.2928 T1.4347,2.469 -0.6934,6.0442 -3.201,11.1014 -4.7964,15.2002 -5.4816,18.1278 -5.6128,22.052 -4.8842,26.5101 -3.1858,30.2052 -1.1213,32.2494 -0.0846,32.6192 A2.5507,2.5507 0 0 1 -1.9154,37.3808 T-3.9618,36.5652 -7.3083,34.2611 -9.5377,30.374 -10.8059,26.5421 -11.2816,23.374 -11.2359,20.1793 -10.6704,16.7662 -9.6968,13.316 -8.4719,10.3209 -7.0972,7.3215 -4.9548,3.4525 -2.8537,-0.104 -2.1547,-1.2928 A2.5128,2.5128 0 0 1 2.1547,1.2928 Z" stroke-linecap="round" fill="#9398b0"/></g></g><g transform="matrix(1, 0, 0, 1, 190, 179)" opacity="1"><g transform="scale(1)"><path d="M1.9824,1.1328 T1.0742,2.8107 -0.8446,5.9601 -2.8032,8.8482 -5.5229,12.5285 -9.4684,16.2999 -11.6421,17.8078 A2.261,2.261 0 0 1 -14.3579,14.1922 T-13.3527,13.3677 -10.8915,11.2473 -8.6473,8.6822 -6.837,5.9927 -4.8824,3.3528 -2.9662,0.5003 -1.9824,-1.1328 A2.2833,2.2833 0 0 1 1.9824,1.1328 Z" stroke-linecap="round" fill="#9398b0"/></g></g><g transform="matrix(1, 0, 0, 1, 178, 181)" opacity="1"><g transform="scale(1)"><path d="M2.1928,-1.0964 T2.8662,0.3402 4.6925,3.6948 6.9123,7.2036 9.4975,9.859 11.7896,11.1244 12.5634,11.3252 A2.5247,2.5247 0 0 1 11.0511,16.1427 T9.134,15.3005 5.4688,12.8865 2.6937,9.641 0.4827,5.9333 -1.4472,2.4978 -2.1928,1.0964 A2.4516,2.4516 0 0 1 2.1928,-1.0964 ZM10.2413,11.7536 T10.7883,11.3794 11.9424,10.5855 12.5496,10.1658 A2.3384,2.3384 0 0 1 15.4504,13.8342 T14.902,14.3283 13.8634,15.2683 13.3732,15.7142 A2.5247,2.5247 0 0 1 10.2413,11.7536 Z" stroke-linecap="round" fill="#9398b0"/></g></g><g transform="matrix(1, 0, 0, 1, 191, 163)" opacity="1"><g transform="scale(1)"><path d="M1.3824,-1.7279 T2.549,-0.7578 4.7151,1.3184 6.5831,4.1183 8.1348,7.6219 9.2309,11.4549 9.8915,15.7386 10.5277,20.231 11.1562,24.7063 11.5284,29.0882 11.493,33.2497 10.9564,36.8812 10.1204,39.8502 8.7609,42.5781 7.0357,45.1534 6.2031,46.3609 A2.5896,2.5896 0 0 1 1.7969,43.6391 T2.9934,41.4846 4.8534,36.995 5.7276,33.0622 5.8901,29.4259 5.7403,25.2938 5.3784,20.7939 5.0328,16.3333 4.7279,12.6037 3.9919,9.3091 2.2449,5.6308 -0.184,2.6498 -1.3824,1.7279 A2.2128,2.2128 0 0 1 1.3824,-1.7279 Z" stroke-linecap="round" fill="#9398b0"/></g></g><g transform="matrix(1, 0, 0, 1, 240, 177)" opacity="1"><g transform="scale(1)"><path d="M-0.3953,-2.3718 T1.0208,-2.6254 4.0739,-3.2467 7.4234,-3.833 10.7564,-4.1598 13.9401,-4.3021 17.8372,-4.6398 21.4569,-5.0301 22.7429,-5.1165 A2.1321,2.1321 0 0 1 23.2571,-0.8835 T20.9481,-0.4657 17.1621,0.2618 14.1917,0.6434 11.2111,0.8074 8.2321,1.0618 4.9898,1.5784 1.8172,2.1524 0.3953,2.3718 A2.4045,2.4045 0 0 1 -0.3953,-2.3718 Z" stroke-linecap="round" fill="#9398b0"/></g></g><g transform="matrix(1, 0, 0, 1, 243, 188)" opacity="1"><g transform="scale(1)"><path d="M-1.051,-1.5764 T-0.3482,-2.0834 2.7715,-3.1881 8.0012,-3.9409 12.2814,-4.1123 15.1866,-3.8601 18.1049,-3.4076 21.3605,-3.0189 23.1354,-2.8141 A1.8192,1.8192 0 0 1 22.8646,0.8141 T21.0789,0.7531 16.542,0.4533 12.3589,0.2364 8.2938,0.3149 4.072,0.5349 1.7672,1.1374 1.051,1.5764 A1.8946,1.8946 0 0 1 -1.051,-1.5764 Z" stroke-linecap="round" fill="#9398b0"/></g></g><g transform="matrix(1, 0, 0, 1, 317, 171)" opacity="1"><g transform="scale(1)"><path d="M0.4594,2.2969 T-0.7219,2.5161 -3.4497,3.4232 -6.662,4.6553 -8.9925,6.223 -9.6572,7.2465 A2.2467,2.2467 0 0 1 -13.3028,4.6198 T-11.8319,2.919 -8.6189,0.6024 -4.8518,-0.9013 -1.6431,-2.0431 -0.4594,-2.2969 A2.3424,2.3424 0 0 1 0.4594,2.2969 ZM-9.4311,5.0114 T-9.3163,5.2631 -9.2015,5.5149 A2.2495,2.2495 0 0 1 -13.3044,7.3606 T-13.4166,7.1077 -13.5288,6.8548 A2.2467,2.2467 0 0 1 -9.4311,5.0114 ZM-10.3844,4.3627 T-9.208,4.8579 -6.1661,5.862 -2.6129,7.2912 0.0157,10.05 0.867,14.0132 -0.4745,18.1993 -3.6854,21.6439 -8.0319,23.6601 -12.5179,24.0926 -15.5691,23.6125 -16.5219,23.3328 A2.3905,2.3905 0 0 1 -15.4781,18.6672 T-13.361,18.8474 -9.7876,18.7775 -6.8522,17.628 -4.4781,15.5101 -4.0431,12.8232 -5.964,10.8425 -8.8494,9.8053 -11.1976,8.8967 -12.1215,8.5128 A2.2495,2.2495 0 0 1 -10.3844,4.3627 Z" stroke-linecap="round" fill="#9398b0"/></g></g><g transform="matrix(1, 0, 0, 1, 330, 182)" opacity="1"><g transform="scale(1)"><path d="M1.5728,-0.6291 T2.0807,0.5399 2.8068,3.9243 2.8957,7.1701 2.7664,8.2005 A1.7777,1.7777 0 0 1 -0.7664,7.7995 T-0.7315,5.4103 -1.1347,1.8251 -1.5728,0.6291 A1.6939,1.6939 0 0 1 1.5728,-0.6291 Z" stroke-linecap="round" fill="#9398b0"/></g></g><g transform="matrix(1, 0, 0, 1, 329, 146)" opacity="1"><g transform="scale(1)"><path d="M1.8765,-0.5361 T2.3406,1.1219 3.324,4.6267 3.8431,6.4734 A1.9169,1.9169 0 0 1 0.1569,7.5266 T-0.378,5.6843 -1.3946,2.1891 -1.8765,0.5361 A1.9516,1.9516 0 0 1 1.8765,-0.5361 Z" stroke-linecap="round" fill="#9398b0"/></g></g><g transform="matrix(1, 0, 0, 1, 342, 173)" opacity="1"><g transform="scale(1)"><path d="M2.3472,-0.6706 T2.8065,0.9893 3.5544,4.1036 4.098,7.9788 3.9836,12.5744 3.6142,14.7492 A2.5637,2.5637 0 0 1 -1.1039,12.7417 T-0.8509,12.4662 -0.6755,10.4151 -1.0635,6.306 -1.8605,2.3217 -2.3472,0.6706 A2.4411,2.4411 0 0 1 2.3472,-0.6706 ZM-1.2811,13.3714 T-1.1024,12.2639 0.2969,8.9298 3.8498,4.6999 8.7277,1.9571 12.6995,1.3574 15.3616,2.2151 18.1348,4.8521 20.2837,8.7354 21.0498,11.6397 21.2045,12.58 A2.2441,2.2441 0 0 1 16.7955,13.42 T16.485,11.896 15.4882,9.0902 13.449,6.7585 10.4155,6.1733 7.1503,8.0735 4.7886,10.9643 3.9014,13.2696 3.7914,14.1196 A2.5637,2.5637 0 0 1 -1.2811,13.3714 Z" stroke-linecap="round" fill="#9398b0"/></g></g><g transform="matrix(1, 0, 0, 1, 392, 149)" opacity="1"><g transform="scale(1)"><path d="M1.5687,1.5687 T0.6158,2.5023 -1.1752,4.7211 -2.9863,7.4789 -4.6041,10.5116 -5.8241,13.8457 -6.9249,17.5044 -7.6857,21.1966 -8.0515,24.4543 -8.2274,27.8023 -8.0584,31.2574 -7.7212,34.254 -7.1645,37.9304 -6.7307,40.1675 A2.6344,2.6344 0 0 1 -11.9503,40.8861 T-12.0881,39.9054 -12.6197,36.1537 -13.1842,31.4384 -13.233,27.44 -12.9246,23.8252 -12.3714,20.1536 -11.3885,16.0824 -10.0779,12.19 -8.5173,8.3758 -6.6539,5.0248 -4.5519,1.952 -2.5078,-0.6103 -1.5687,-1.5687 A2.2184,2.2184 0 0 1 1.5687,1.5687 ZM-7.9372,38.2973 T-7.4047,38.6792 -6.2775,39.4841 -5.6826,39.9071 A2.473,2.473 0 0 1 -8.3174,44.0929 T-8.956,43.7395 -10.1692,43.0712 -10.7438,42.7563 A2.6344,2.6344 0 0 1 -7.9372,38.2973 Z" stroke-linecap="round" fill="#9398b0"/></g></g><g transform="matrix(1, 0, 0, 1, 405, 155)" opacity="1"><g transform="scale(1)"><path d="M2.1482,-0.358 T2.4005,1.0584 2.8756,4.8089 3.151,9.3675 3.2149,12.7769 3.2261,13.9618 A2.2264,2.2264 0 0 1 -1.2261,14.0382 T-1.2555,12.8536 -1.338,9.526 -1.5489,5.2922 -1.9275,1.7796 -2.1482,0.358 A2.1778,2.1778 0 0 1 2.1482,-0.358 Z" stroke-linecap="round" fill="#9398b0"/></g></g><g transform="matrix(1, 0, 0, 1, 413, 152)" opacity="1"><g transform="scale(1)"><path d="M1.7983,-0.7193 T2.2773,0.4608 3.5665,3.9132 4.6153,8.3924 4.9267,11.7295 4.9998,12.8598 A2.0047,2.0047 0 0 1 1.0002,13.1402 T0.9149,12.0108 0.6558,9.0066 -0.191,5.1105 -1.3313,1.9042 -1.7983,0.7193 A1.9369,1.9369 0 0 1 1.7983,-0.7193 Z" stroke-linecap="round" fill="#9398b0"/></g></g><g transform="matrix(1, 0, 0, 1, 422, 148)" opacity="1"><g transform="scale(1)"><path d="M-0.3483,2.4384 T-2.0086,2.2368 -5.3949,1.9506 -9.0712,2.0407 -12.7327,2.515 -15.8944,3.3712 -19.6312,5.405 -23.2738,7.8442 -24.6297,8.8064 A2.2674,2.2674 0 0 1 -27.3703,5.1936 T-26.0783,4.1471 -23.5206,2.0781 -20.7161,0.1264 -17.2715,-1.5363 -13.4018,-2.6232 -9.1063,-3.1436 -4.8639,-3.1459 -1.3024,-2.7098 0.3483,-2.4384 A2.4632,2.4632 0 0 1 -0.3483,2.4384 Z" stroke-linecap="round" fill="#9398b0"/></g></g><g transform="matrix(1, 0, 0, 1, 422, 174)" opacity="1"><g transform="scale(1)"><path d="M0,2.0494 T-1.418,2.0975 -4.6326,2.4065 -8.0619,3.0226 -12.3069,4.0086 -17.1516,5.2794 -19.384,5.9195 A2.0159,2.0159 0 0 1 -20.616,2.0805 T-19.3955,1.647 -15.8717,0.575 -12.089,-0.5254 -8.7889,-1.3544 -4.904,-1.9335 -1.42,-2.0975 0,-2.0494 A2.0494,2.0494 0 0 1 0,2.0494 Z" stroke-linecap="round" fill="#9398b0"/></g></g><g transform="matrix(1, 0, 0, 1, 407, 185)" opacity="1"><g transform="scale(1)"><path d="M0.5149,-2.5744 T1.6924,-2.3133 4.6286,-1.431 8.004,0.4646 10.0251,3.1476 10.2037,6.5356 8.9999,9.9883 6.6987,12.5722 4.4843,14.6617 3.5933,15.6406 A2.6225,2.6225 0 0 1 -0.4332,12.2794 T0.517,11.1848 2.9973,8.7145 4.8178,5.7001 3.4843,3.5298 0.6726,2.7863 -0.5149,2.5744 A2.6254,2.6254 0 0 1 0.5149,-2.5744 ZM2.6322,11.5578 T3.2653,11.8673 5.4802,12.1857 9.1915,12.242 12.6662,12.3338 14.0114,12.3782 A2.6218,2.6218 0 0 1 13.9886,17.6218 T12.6429,17.6545 9.1212,17.704 5.1302,17.6199 1.9216,16.9405 0.5278,16.3622 A2.6225,2.6225 0 0 1 2.6322,11.5578 Z" stroke-linecap="round" fill="#9398b0"/></g></g><g transform="matrix(1, 0, 0, 1, 449, 176)" opacity="1"><g transform="scale(1)"><path d="M0.5103,-2.0412 T1.4628,-1.8318 4.4335,-1.6979 8.1989,-1.9587 11.9384,-2.1571 13.9306,-2.1699 A2.171,2.171 0 0 1 14.0694,2.1699 T13.0413,2.2285 10.3658,2.3995 6.8289,2.7987 3.154,2.827 0.4292,2.3048 -0.5103,2.0412 A2.104,2.104 0 0 1 0.5103,-2.0412 Z" stroke-linecap="round" fill="#9398b0"/></g></g><g transform="matrix(1, 0, 0, 1, 491, 166)" opacity="1"><g transform="scale(1)"><path d="M1.7264,0 T1.7211,1.2105 1.1895,3.8398 -0.1255,6.4662 -1.7559,8.9363 -3.5176,11.5729 -5.4514,14.2013 -7.5544,16.4251 -10.86,18.8553 -13.0767,20.3158 A1.6074,1.6074 0 0 1 -14.9233,17.6842 T-13.8451,16.8778 -11.0131,14.639 -8.3544,12.0654 -6.5238,9.5478 -4.7325,6.9076 -2.7915,3.9764 -1.7211,1.1545 -1.7264,0 A1.7264,1.7264 0 0 1 1.7264,0 Z" stroke-linecap="round" fill="#9398b0"/></g></g><g transform="matrix(1, 0, 0, 1, 478, 170)" opacity="1"><g transform="scale(1)"><path d="M1.3174,-1.0978 T2.4464,0.3657 4.6498,3.0306 6.7791,5.3215 9.2656,8.4624 11.9033,12.3587 14.5841,15.48 16.0589,16.7561 A1.6335,1.6335 0 0 1 13.9411,19.2439 T12.1379,17.7294 9.1144,14.3011 6.6888,10.5003 4.437,7.4705 2.2725,5.0871 -0.0814,2.4723 -1.3174,1.0978 A1.7149,1.7149 0 0 1 1.3174,-1.0978 Z" stroke-linecap="round" fill="#9398b0"/></g></g><g transform="matrix(1, 0, 0, 1, 494, 151)" opacity="1"><g transform="scale(1)"><path d="M0.6304,-1.576 T1.7974,-1.0616 5.0114,1.1131 8.0826,4.0392 9.9445,6.7543 11.5274,10.2136 12.921,14.1793 13.9793,18.4692 14.6197,23.4585 14.7519,28.796 14.1002,33.9727 12.767,38.7454 11.0365,42.8049 9.0626,46.0342 6.5556,48.6014 3.6898,50.7036 2.3079,51.687 A2.1346,2.1346 0 0 1 -0.3079,48.313 T1.9091,46.4746 4.9724,43.4453 6.6201,40.8224 8.1716,37.367 9.476,33.2652 10.2388,28.7825 10.3627,23.8689 10.0898,19.2792 9.4149,15.2654 7.7693,10.2987 5.7124,6.0945 3.2901,3.6814 0.5676,2.0076 -0.6304,1.576 A1.6974,1.6974 0 0 1 0.6304,-1.576 Z" stroke-linecap="round" fill="#9398b0"/></g></g><g transform="matrix(1, 0, 0, 1, 83, 347)" opacity="1"><g transform="scale(1)"><path d="M-1.7394,1.3045 T-2.4262,0.382 -4.7415,-0.4548 -7.6238,0.3996 -9.5401,2.4507 -10.4282,5.2695 -9.4372,7.8963 -6.7959,9.0626 -3.4151,7.6691 -0.4084,4.0946 1.1742,0.6494 2.0894,-3.319 2.5633,-7.6064 2.7192,-11.092 2.8291,-14.5946 2.9062,-17.8621 2.9634,-21.0021 2.816,-24.514 2.3456,-27.6911 2.0478,-28.9045 A1.8934,1.8934 0 0 1 5.2968,-30.8499 T5.8498,-29.1433 6.6932,-24.9855 6.9963,-20.979 7.0174,-17.8193 7.0259,-14.5181 7.0056,-10.9415 6.9145,-7.277 6.68,-3.9167 6.1735,-0.7078 5.2575,2.3838 4.0262,5.2641 1.6007,8.8977 -2.3867,12.3269 -6.9674,13.4418 -11.0645,12.1258 -13.8673,8.8836 -14.6225,4.5431 -13.0419,0.0622 -9.5676,-3.3653 -4.7492,-4.7153 -0.9301,-4.0254 1.0072,-2.274 1.7394,-1.3045 A2.1742,2.1742 0 0 1 -1.7394,1.3045 ZM5.4822,-29.3208 T5.2608,-28.6764 4.728,-25.7124 4.3129,-21.9028 4.4018,-18.7911 4.722,-15.237 5.1744,-11.2172 5.9145,-7.0991 6.7951,-3.0582 7.7014,0.3706 9.4104,3.1568 10.678,4.5245 A2.2345,2.2345 0 0 1 7.322,7.4755 T6.5027,6.5789 4.7273,4.4858 3.2761,1.6016 2.3673,-2.1748 1.5984,-6.4208 1.0039,-10.8472 0.7187,-14.9629 0.5371,-18.7686 0.571,-22.442 1.0375,-26.3598 1.5982,-29.4984 1.8624,-30.4336 A1.8934,1.8934 0 0 1 5.4822,-29.3208 Z" stroke-linecap="round" fill="#ffc034"/></g></g><g transform="matrix(1, 0, 0, 1, 120, 372)" opacity="1"><g transform="scale(1)"><path d="M0.4078,2.4468 T-1.0075,2.7092 -4.4764,3.1533 -8.7733,3.4514 -13.4891,3.8768 -18.8124,4.3628 -24.8216,4.6369 -31.1693,4.514 -37.2305,3.8996 -42.7919,2.9967 -47.7354,2.1481 -52.5939,1.4668 -55.1985,1.1254 A2.1347,2.1347 0 0 1 -54.8015,-3.1254 T-52.1787,-2.9785 -47.118,-2.7333 -42.057,-2.312 -36.7125,-1.7029 -31.0546,-1.2432 -25.0376,-1.1231 -19.2526,-1.2853 -13.8638,-1.6273 -9.0235,-1.8755 -5.0602,-1.9581 -1.8305,-2.2362 -0.4078,-2.4468 A2.4806,2.4806 0 0 1 0.4078,2.4468 Z" stroke-linecap="round" fill="#ffc034"/></g></g><g transform="matrix(1, 0, 0, 1, 73, 403)" opacity="1"><g transform="scale(1)"><path d="M0,2.1524 T-1.4152,2.1648 -4.6571,2.8797 -7.6508,5.0112 -9.1788,8.5138 -8.6402,12.0111 -5.4762,12.6443 -2.2327,10.5002 -0.5186,7.3884 0.909,3.7197 1.9699,-0.0354 2.5607,-3.7948 2.6791,-7.3227 2.3315,-11.1033 1.7108,-13.5053 1.3333,-13.7397 A1.6259,1.6259 0 0 1 3.5625,-16.1071 T4.3497,-15.2447 5.5897,-11.7952 6.2149,-7.2957 6.2381,-3.3007 5.7508,0.9319 4.7659,5.1617 3.2092,9.4645 1.0555,13.4009 -1.7666,16.4494 -4.89,18.1228 -8.8607,17.1862 -12.089,14.6194 -13.1636,10.4764 -13.0625,6.0863 -11.8425,3.069 -9.7681,0.6726 -7.1311,-0.9505 -4.2834,-1.9162 -1.4228,-2.1648 0,-2.1524 A2.1524,2.1524 0 0 1 0,2.1524 ZM4.0546,-14.6742 T3.8996,-13.707 4.0989,-10.1558 4.7786,-5.8962 5.5222,-2.6522 6.413,0.7132 7.3622,4.1355 8.8513,8.5462 9.8637,11.3314 A1.98,1.98 0 0 1 6.1363,12.6686 T5.6015,11.1635 4.5669,8.2429 3.6042,5.1269 2.7281,1.6045 1.9503,-1.9252 1.3231,-5.4822 0.7823,-10.1332 0.6727,-14.0538 0.8412,-15.1726 A1.6259,1.6259 0 0 1 4.0546,-14.6742 Z" stroke-linecap="round" fill="#ffc034"/></g></g><g transform="matrix(1, 0, 0, 1, 108, 398)" opacity="1"><g transform="scale(1)"><path d="M1.9324,-0.9662 T2.4052,0.0317 2.9632,2.5421 2.2059,5.5772 0.1578,8.2862 -2.3928,10.5378 -5.2746,12.4581 -9.926,14.3159 -14.8137,15.6303 -16.5868,15.9419 A1.9854,1.9854 0 0 1 -17.4132,12.0581 T-14.3845,11.3185 -8.96,9.2689 -5.3518,7.0324 -2.5628,4.4301 -1.4592,1.8603 -1.9324,0.9662 A2.1605,2.1605 0 0 1 1.9324,-0.9662 Z" stroke-linecap="round" fill="#ffc034"/></g></g><g transform="matrix(1, 0, 0, 1, 96, 402)" opacity="1"><g transform="scale(1)"><path d="M1.4595,-1.7027 T3.0751,-0.2373 6.2313,2.4162 9.2217,5.0295 12.0214,7.5296 15.0802,9.7258 17.8849,11.3586 18.9808,11.8701 A2.3449,2.3449 0 0 1 17.0192,16.1299 T15.9181,15.6298 12.6073,13.6198 8.9514,10.813 6.3415,8.2355 3.5546,5.7014 0.2359,3.0753 -1.4595,1.7027 A2.2426,2.2426 0 0 1 1.4595,-1.7027 Z" stroke-linecap="round" fill="#ffc034"/></g></g><g transform="matrix(1, 0, 0, 1, 152, 366)" opacity="1"><g transform="scale(1)"><path d="M-2.5375,-0.8458 T-2.288,-1.551 -2.0385,-2.2562 A2.6473,2.6473 0 0 1 2.9845,-0.5818 T2.761,0.132 2.5375,0.8458 A2.6748,2.6748 0 0 1 -2.5375,-0.8458 ZM-1.4639,0.3856 T-1.8087,0.0084 -2.1534,-0.3689 A2.6375,2.6375 0 0 1 1.706,-3.9647 T2.058,-3.5942 2.4099,-3.2236 A2.6473,2.6473 0 0 1 -1.4639,0.3856 ZM0.2962,0.4189 T-1.0301,0.6743 -3.7531,2.0914 -6.2093,5.121 -7.9732,8.9627 -7.3004,12.6077 -4.0944,15.0114 -0.1141,15.8923 3.3933,15.947 4.7493,15.8535 A2.1611,2.1611 0 0 1 5.2507,20.1465 T3.9098,20.368 1.0794,20.7955 -1.9876,20.8656 -5.1999,20.3033 -8.2606,19.0511 -10.7198,17.1822 -12.5463,14.7717 -13.6666,11.6859 -13.617,8.5136 -11.9236,4.5384 -8.5353,-0.2678 -5.2287,-3.3146 -2.3686,-4.4144 -0.7437,-4.7525 A2.6375,2.6375 0 0 1 0.2962,0.4189 Z" stroke-linecap="round" fill="#ffc034"/></g></g><g transform="matrix(1, 0, 0, 1, 179, 369)" opacity="1"><g transform="scale(1)"><path d="M-1.2691,-1.6922 T-0.3165,-2.3806 0.9644,-3.5064 1.2926,-3.9437 A2.0613,2.0613 0 0 1 4.4856,-1.3359 T3.8167,-0.5524 2.2085,0.9616 1.2691,1.6922 A2.1152,2.1152 0 0 1 -1.2691,-1.6922 ZM0.9601,-1.9132 T0.8805,-2.3233 -0.6973,-2.5 -4.2146,-1.0983 -7.4959,2.0202 -8.681,6.1138 -6.9081,9.3885 -3.7684,10.7671 0.1059,10.2981 4.6309,7.475 7.4324,3.4066 7.2447,0.1909 5.5498,-1.7835 4.7492,-2.5039 A1.9501,1.9501 0 0 1 7.2508,-5.4961 T9.0489,-4.0495 11.6403,-0.09 12.0396,4.0132 10.8899,6.9892 8.8751,9.7863 6.0813,12.4547 2.5694,14.5536 -1.3024,15.4271 -5.128,15.0208 -8.8453,13.6025 -11.7145,10.9663 -13.1163,7.4173 -13.0662,3.8892 -11.923,0.6595 -9.8766,-2.2078 -7.2725,-4.3323 -4.3746,-5.8037 -1.3505,-6.563 2.1221,-5.7408 4.4771,-4.0727 4.8181,-3.3665 A2.0613,2.0613 0 0 1 0.9601,-1.9132 Z" stroke-linecap="round" fill="#ffc034"/></g></g><g transform="matrix(1, 0, 0, 1, 209, 366)" opacity="1"><g transform="scale(1)"><path d="M-1.4219,-1.5855 T-0.2001,-2.6536 1.0217,-3.7216 A2.0885,2.0885 0 0 1 3.8105,-0.612 T2.6162,0.4868 1.4219,1.5855 A2.1297,2.1297 0 0 1 -1.4219,-1.5855 ZM1.6366,-0.2292 T1.0871,-0.4794 1.873,1.0984 5.7354,3.915 9.4008,5.8034 11.5517,8.8793 10.8968,13.3253 6.7197,16.5764 1.855,17.7711 -2.9363,17.479 -5.3726,16.9734 A2.0083,2.0083 0 0 1 -4.6274,13.0266 T-3.4721,13.2041 -0.5728,13.4215 3.0834,13.1377 6.3227,11.4149 5.9656,8.9586 1.633,6.8272 -2.709,4.2267 -4.5143,0.9805 -3.6842,-2.1441 -0.7198,-4.1782 2.2493,-4.456 3.1956,-4.1044 A2.0885,2.0885 0 0 1 1.6366,-0.2292 Z" stroke-linecap="round" fill="#ffc034"/></g></g><g transform="matrix(1, 0, 0, 1, 239, 347)" opacity="1"><g transform="scale(1)"><path d="M1.8003,1.3503 T1.0902,2.2958 -0.4418,4.4228 -2.1587,6.9489 -3.9035,10.0727 -5.4093,13.6935 -6.3734,17.3149 -6.8483,20.749 -7.1002,23.9666 -6.741,27.9238 -4.927,30.7492 -1.9358,30.9964 -0.3143,30.8118 A2.2106,2.2106 0 0 1 0.3143,35.1882 T-2.0743,35.5797 -6.8621,35.1352 -10.2198,33.0946 -11.5861,30.3471 -12.1625,27.0035 -12.1995,23.5056 -11.8227,19.9669 -11.1049,15.9656 -9.8057,11.7609 -7.9144,7.7118 -5.9056,4.3596 -4.09,1.7773 -2.5092,-0.4038 -1.8003,-1.3503 A2.2504,2.2504 0 0 1 1.8003,1.3503 Z" stroke-linecap="round" fill="#ffc034"/></g></g><g transform="matrix(1, 0, 0, 1, 257, 361)" opacity="1"><g transform="scale(1)"><path d="M-1.9059,-1.2706 T-1.4294,-1.9778 -0.9529,-2.685 A2.2822,2.2822 0 0 1 2.8449,-0.153 T2.3754,0.5588 1.9059,1.2706 A2.2906,2.2906 0 0 1 -1.9059,-1.2706 ZM3.2095,-1.7107 T3.2226,-1.6117 3.2357,-1.5126 A2.2828,2.2828 0 0 1 -1.2926,-0.929 T-1.305,-1.0282 -1.3175,-1.1273 A2.2822,2.2822 0 0 1 3.2095,-1.7107 ZM2.6787,0.2947 T2.2188,0.8256 0.2687,3.1727 -2.1826,6.1061 -4.127,8.2834 -6.4463,10.4449 -8.9992,12.354 -12.56,14.4838 -14.9039,15.806 A2.1126,2.1126 0 0 1 -17.0961,12.194 T-15.9378,11.4407 -12.7916,9.308 -9.7101,6.9995 -6.7994,4.0793 -3.3317,0.1954 -1.2083,-2.2168 -0.7356,-2.7364 A2.2828,2.2828 0 0 1 2.6787,0.2947 Z" stroke-linecap="round" fill="#ffc034"/></g></g><g transform="matrix(1, 0, 0, 1, 246, 362)" opacity="1"><g transform="scale(1)"><path d="M1.4268,-1.4268 T2.3372,-0.4452 4.618,1.8872 7.1956,4.7467 9.3115,7.6191 10.9046,9.859 11.5888,10.7353 A2.0307,2.0307 0 0 1 8.4112,13.2647 T7.7107,12.4014 6.1129,10.1727 4.2234,7.3946 1.8838,4.6146 -0.4452,2.3372 -1.4268,1.4268 A2.0179,2.0179 0 0 1 1.4268,-1.4268 Z" stroke-linecap="round" fill="#ffc034"/></g></g><g transform="matrix(1, 0, 0, 1, 257, 345)" opacity="1"><g transform="scale(1)"><path d="M0.5671,-1.9848 T2.2151,-1.4682 5.3927,-0.1371 9.1051,2.5201 12.228,6.0614 13.9135,9.8559 15.2978,13.9513 16.3307,18.0767 16.9332,22.0297 17.2585,25.5399 17.4265,28.8316 16.8242,33.0055 15.2685,36.7142 13.6056,38.7041 12.8453,39.551 A2.4105,2.4105 0 0 1 9.1547,36.449 T10.2694,35.1344 11.8555,32.1872 12.2901,29.0192 12.2038,25.8942 12.0465,22.6138 11.7332,19.0666 11.0285,15.2429 10.013,11.4347 8.1602,7.4165 4.7913,4.0414 1.0959,2.4142 -0.5671,1.9848 A2.0642,2.0642 0 0 1 0.5671,-1.9848 Z" stroke-linecap="round" fill="#ffc034"/></g></g><g transform="matrix(1, 0, 0, 1, 309, 353)" opacity="1"><g transform="scale(1)"><path d="M1.7146,-1.286 T2.4488,-0.3682 4.6685,0.0645 7.9827,-1.2878 11.9146,-3.0852 14.0178,-4.0153 A2.242,2.242 0 0 1 15.9822,0.0153 T13.933,1.1089 9.91,3.1 5.8122,4.6221 1.6716,4.2405 -1.0298,2.2602 -1.7146,1.286 A2.1433,2.1433 0 0 1 1.7146,-1.286 Z" stroke-linecap="round" fill="#ffc034"/></g></g><g transform="matrix(1, 0, 0, 1, 312, 361)" opacity="1"><g transform="scale(1)"><path d="M1.3182,-1.7576 T2.2234,-1.107 5.68,-1.0112 9.8646,-1.922 11.4978,-2.278 A2.3327,2.3327 0 0 1 12.5022,2.278 T10.8707,2.6417 6.3904,3.5032 2.0984,3.6478 -0.3314,2.526 -1.3182,1.7576 A2.197,2.197 0 0 1 1.3182,-1.7576 Z" stroke-linecap="round" fill="#ffc034"/></g></g><g transform="matrix(1, 0, 0, 1, 376, 351)" opacity="1"><g transform="scale(1)"><path d="M-0.7951,2.3854 T-2.2105,1.905 -5.4953,1.5588 -8.7748,2.6803 -10.9444,5.5086 -11.7201,9.1566 -9.831,11.5944 -5.8648,10.7396 -2.5274,7.739 0.194,4.2293 2.856,0.0939 4.6848,-4.1689 5.6709,-8.5802 6.2667,-13.0317 6.3787,-16.9191 5.9894,-20.2419 4.9126,-23.1206 4.1163,-24.4021 A2.0025,2.0025 0 0 1 6.9342,-27.248 T8.3036,-24.9084 10.0129,-20.7591 10.5231,-16.9025 10.5469,-12.552 10.0779,-7.6546 9.0436,-2.4038 7.0385,2.6924 4.2204,7.3403 1.0311,11.5223 -2.2867,14.6963 -5.9047,16.6942 -9.739,17.3082 -13.1949,16.1783 -15.8242,13.5626 -17.0217,10.3267 -16.4446,5.9016 -14.8442,1.6181 -12.6484,-1.0329 -9.9637,-2.7367 -6.7475,-3.556 -3.4695,-3.6065 -0.6275,-2.851 0.7951,-2.3854 A2.5144,2.5144 0 0 1 -0.7951,2.3854 ZM7.5139,-25.59 T7.3386,-24.0462 7.3849,-19.5876 8.0027,-14.4966 8.867,-9.9924 9.8359,-5.2582 10.8483,-0.6652 11.8536,3.3477 12.7731,6.5672 13.7104,9.6057 14.2217,11.2507 A2.3447,2.3447 0 0 1 9.7783,12.7493 T9.1889,11.1305 8.0375,7.9757 6.992,4.5022 6.0637,0.3025 5.202,-4.4054 4.4098,-9.2422 3.7274,-13.9239 3.2744,-19.4709 3.3325,-24.3937 3.5366,-26.06 A2.0025,2.0025 0 0 1 7.5139,-25.59 Z" stroke-linecap="round" fill="#ffc034"/></g></g><g transform="matrix(1, 0, 0, 1, 340, 386)" opacity="1"><g transform="scale(1)"><path d="M0.5327,-2.6634 T1.7124,-2.417 5.2068,-2.272 9.5469,-2.5224 13.9003,-3.0084 19.3889,-3.7854 26.0061,-4.925 33.3773,-6.03 40.6483,-6.8711 47.0612,-7.5503 52.6801,-7.8974 57.3051,-8.0299 60.9297,-8.0158 64.2151,-7.9383 65.9385,-7.904 A2.9047,2.9047 0 0 1 66.0615,-2.096 T64.3411,-1.9887 61.0918,-1.7729 57.5556,-1.569 53.0802,-1.3416 47.7135,-1.0057 41.3588,-0.3888 34.2757,0.3318 26.9749,1.2929 20.1121,2.2785 14.3824,2.8417 10.0142,3.1036 6.4885,3.2818 3.3141,3.2729 0.6526,2.89 -0.5327,2.6634 A2.7162,2.7162 0 0 1 0.5327,-2.6634 Z" stroke-linecap="round" fill="#ffc034"/></g></g><g transform="matrix(1, 0, 0, 1, 352, 416)" opacity="1"><g transform="scale(1)"><path d="M-2.326,1.163 T-2.745,0.2767 -4.3524,0.989 -6.1646,4.271 -4.2097,5.2482 -0.2779,3.17 2.2542,0.2125 4.2947,-2.8725 5.8476,-6.0383 6.8936,-9.4251 7.4512,-12.7767 7.7532,-15.9649 7.392,-18.988 6.4529,-21.3997 5.9737,-22.3453 A1.9655,1.9655 0 0 1 9.492,-24.0986 T10.021,-23.0208 11.12,-19.6216 11.5831,-15.6361 11.2894,-12.1834 10.7166,-8.319 9.6175,-4.2957 7.9978,-0.581 5.8132,3.1072 3.0207,6.7194 0.0162,9.6582 -3.2233,11.857 -6.6267,12.8577 -10.1092,11.1811 -11.9364,7.088 -10.8982,2.173 -8.2046,-2.3154 -3.836,-4.6767 0.0737,-4.1359 1.799,-2.1687 2.326,-1.163 A2.6006,2.6006 0 0 1 -2.326,1.163 ZM9.6483,-22.7814 T9.4049,-21.7473 9.104,-18.0776 9.0532,-13.684 9.309,-10.1812 9.7257,-6.199 10.2167,-2.2257 10.9266,1.1197 11.5171,4.1465 12.7904,7.2143 13.8593,8.8647 A2.1785,2.1785 0 0 1 10.1407,11.1353 T9.4799,10.0793 7.8736,6.3887 6.5249,1.9903 5.8448,-1.7459 5.4936,-5.8248 5.2095,-9.9418 5.0331,-13.7296 5.1561,-18.3173 5.5315,-22.395 5.8173,-23.6625 A1.9655,1.9655 0 0 1 9.6483,-22.7814 Z" stroke-linecap="round" fill="#ffc034"/></g></g><g transform="matrix(1, 0, 0, 1, 390, 404)" opacity="1"><g transform="scale(1)"><path d="M2.2923,0 T2.296,1.22 1.7573,3.9729 0.1436,7.0399 -1.9387,9.7989 -3.9738,12.1352 -6.1348,14.1595 -8.3914,15.9549 -9.5108,16.8376 A2.3652,2.3652 0 0 1 -12.4892,13.1624 T-11.3938,12.2501 -8.4943,9.5915 -5.7449,6.7673 -3.5497,3.9896 -2.296,1.145 -2.2923,0 A2.2923,2.2923 0 0 1 2.2923,0 Z" stroke-linecap="round" fill="#ffc034"/></g></g><g transform="matrix(1, 0, 0, 1, 380, 409)" opacity="1"><g transform="scale(1)"><path d="M1.8111,-1.5093 T2.9578,-0.06 5.0359,2.6711 7.5759,5.7624 10.7173,8.6051 13.2812,10.2926 14.3123,10.9467 A2.4368,2.4368 0 0 1 11.6877,15.0533 T9.6446,13.731 5.8601,10.7144 2.3723,6.6534 -0.5928,2.898 -1.8111,1.5093 A2.3576,2.3576 0 0 1 1.8111,-1.5093 Z" stroke-linecap="round" fill="#ffc034"/></g></g><g transform="matrix(1, 0, 0, 1, 453, 350)" opacity="1"><g transform="scale(1)"><path d="M1.4534,1.2717 T-0.1895,3.1747 -3.1855,6.5768 -6.101,9.2359 -8.9276,11.2038 -11.6283,13.1049 -13.134,14.6575 -13.203,15.1169 A2.0342,2.0342 0 0 1 -16.9845,13.6161 T-15.6177,11.763 -12.1327,8.5037 -8.7399,6.2349 -6.1274,3.9313 -3.1215,0.6093 -1.4534,-1.2717 A1.9312,1.9312 0 0 1 1.4534,1.2717 ZM-14.6811,12.3746 T-13.6847,12.5903 -10.5484,13.2321 -5.9862,14.398 -2.0822,16.8554 -0.6007,18.573 A2.2193,2.2193 0 0 1 -4.7036,20.2661 T-4.9182,19.6687 -7.0219,18.3799 -10.9962,17.2653 -14.2938,16.6003 -15.5063,16.3585 A2.0342,2.0342 0 0 1 -14.6811,12.3746 ZM-0.6851,20.4471 T-0.9826,21.0704 -3.3685,23.7247 -6.5675,26.7494 -9.1856,28.6703 -13.508,30.4664 -17.5487,31.397 -18.7747,31.4588 A2.4691,2.4691 0 0 1 -19.2253,26.5412 T-17.3893,26.3702 -13.2446,24.9955 -9.6295,22.7816 -6.8112,20.679 -4.9593,18.9893 -4.6192,18.3921 A2.2193,2.2193 0 0 1 -0.6851,20.4471 Z" stroke-linecap="round" fill="#ffc034"/></g></g><g transform="matrix(1, 0, 0, 1, 464, 361)" opacity="1"><g transform="scale(1)"><path d="M1.9044,-0.2721 T2.1821,1.3833 2.383,4.6079 1.4468,8.5382 -0.4707,11.5741 -1.5288,12.2491 A2.1996,2.1996 0 0 1 -3.4421,8.2878 T-2.9214,8.0525 -1.9572,5.7003 -1.7091,1.9277 -1.9044,0.2721 A1.9237,1.9237 0 0 1 1.9044,-0.2721 ZM-3.4761,12.2323 T-4.0592,11.9094 -5.293,11.2286 -5.9437,10.8708 A2.0953,2.0953 0 0 1 -4.0563,7.1292 T-3.3818,7.4398 -2.101,8.0275 -1.4948,8.3046 A2.1996,2.1996 0 0 1 -3.4761,12.2323 Z" stroke-linecap="round" fill="#ffc034"/></g></g><g transform="matrix(1, 0, 0, 1, 464, 322)" opacity="1"><g transform="scale(1)"><path d="M1.3489,-0.6745 T2.0734,0.7411 3.2448,3.7597 3.9262,6.9284 4.4785,10.1722 4.9721,13.2851 5.3367,16.2609 5.5255,17.802 A1.5383,1.5383 0 0 1 2.4745,18.198 T2.0807,15.3307 1.324,10.6923 0.5006,6.2202 -0.6544,2.0969 -1.3489,0.6745 A1.5082,1.5082 0 0 1 1.3489,-0.6745 Z" stroke-linecap="round" fill="#ffc034"/></g></g><g transform="matrix(1, 0, 0, 1, 475, 365)" opacity="1"><g transform="scale(1)"><path d="M2.4146,-0.5557 T2.7433,1.0209 3.072,2.5976 A2.4112,2.4112 0 0 1 -1.6275,3.6791 T-2.021,2.1174 -2.4146,0.5557 A2.4777,2.4777 0 0 1 2.4146,-0.5557 ZM-0.9349,1.3869 T-0.0293,0.5125 2.0238,-1.8812 4.4729,-4.5405 7.1272,-6.3835 10.6302,-7.6193 12.7804,-8.1518 A2.5213,2.5213 0 0 1 13.7022,-3.1942 T12.1762,-2.8764 8.7672,-1.3397 5.5951,1.4907 3.3427,3.996 2.3794,4.8898 A2.4112,2.4112 0 0 1 -0.9349,1.3869 ZM14.7025,-7.7277 T15.6017,-7.0961 18.1352,-4.4491 20.3926,-1.0658 21.6068,1.6335 22.1979,2.965 A2.4294,2.4294 0 0 1 17.8021,5.035 T16.6614,2.7336 14.529,-0.9603 12.6588,-2.9856 11.7801,-3.6183 A2.5213,2.5213 0 0 1 14.7025,-7.7277 Z" stroke-linecap="round" fill="#ffc034"/></g></g><g transform="matrix(1, 0, 0, 1, 515, 330)" opacity="1"><g transform="scale(1)"><path d="M-0.8758,-2.6275 T-0.1657,-2.862 0.5445,-3.0964 A2.7653,2.7653 0 0 1 2.2935,2.1504 T1.5847,2.389 0.8758,2.6275 A2.7696,2.7696 0 0 1 -0.8758,-2.6275 ZM4.1841,-0.4329 T4.1594,1.5704 3.5546,5.647 2.4384,9.25 1.2329,13.5461 -0.2702,19.5197 -1.7483,25.759 -2.7023,31.4678 -3.2034,36.4926 -3.5085,40.5084 -2.9751,44.105 -2.3282,46.0342 A2.841,2.841 0 0 1 -7.6718,47.9658 T-8.2157,46.7008 -9.3422,43.7242 -9.8348,40.1743 -9.5505,35.8276 -8.9332,30.3693 -7.7649,24.264 -6.1135,17.9585 -4.371,11.7957 -3.0077,7.4233 -1.9423,4.4503 -1.3748,1.1618 -1.3461,-0.5131 A2.7653,2.7653 0 0 1 4.1841,-0.4329 Z" stroke-linecap="round" fill="#ffc034"/></g></g><g transform="matrix(1, 0, 0, 1, 529, 329)" opacity="1"><g transform="scale(1)"><path d="M1.6405,-0.5965 T2.6595,1.9785 4.2368,6.1903 4.9916,10.3428 5.0444,14.0184 4.9005,15.1785 A1.9089,1.9089 0 0 1 1.0995,14.8215 T1.1741,13.655 1.1159,10.7487 0.5443,7.4307 -0.7675,3.2245 -1.6405,0.5965 A1.7456,1.7456 0 0 1 1.6405,-0.5965 Z" stroke-linecap="round" fill="#ffc034"/></g></g><g transform="matrix(1, 0, 0, 1, 537, 327)" opacity="1"><g transform="scale(1)"><path d="M1.6336,-1.2252 T2.362,-0.2566 3.6509,2.4819 4.658,5.6827 5.5227,9.6794 6.0423,14.559 6.1439,16.8727 A2.1477,2.1477 0 0 1 1.8561,17.1273 T1.6893,14.9214 1.2429,10.5236 0.3554,5.7019 -0.943,2.1486 -1.6336,1.2252 A2.042,2.042 0 0 1 1.6336,-1.2252 Z" stroke-linecap="round" fill="#ffc034"/></g></g><g transform="matrix(1, 0, 0, 1, 549, 317)" opacity="1"><g transform="scale(1)"><path d="M1.6759,2.0949 T0.5019,3.0522 -2.5424,5.3276 -6.3711,7.8197 -10.0107,10.0356 -13.2816,11.7309 -16.1935,13.0433 -20.2176,14.8874 -22.9192,16.0726 A2.3375,2.3375 0 0 1 -25.0808,11.9274 T-22.5879,10.4039 -17.3921,7.5444 -12.9514,5.1347 -9.3768,3.0158 -5.7989,0.8725 -2.8669,-1.1602 -1.6759,-2.0949 A2.6828,2.6828 0 0 1 1.6759,2.0949 Z" stroke-linecap="round" fill="#ffc034"/></g></g><g transform="matrix(1, 0, 0, 1, 548, 349)" opacity="1"><g transform="scale(1)"><path d="M1.2745,2.1242 T0.0954,2.8623 -2.7053,4.1371 -6.3983,5.3619 -10.2917,6.6302 -15.0009,8.2421 -19.9407,10.183 -21.9932,11.0922 A2.3218,2.3218 0 0 1 -24.0068,6.9078 T-22.0156,5.8711 -16.8833,3.4981 -11.9092,1.5628 -6.8612,0.1008 -2.4604,-1.4433 -1.2745,-2.1242 A2.4772,2.4772 0 0 1 1.2745,2.1242 Z" stroke-linecap="round" fill="#ffc034"/></g></g><g transform="matrix(1, 0, 0, 1, 531, 367)" opacity="1"><g transform="scale(1)"><path d="M1.7671,-2.3561 T2.6685,-1.6343 5.1252,-0.5676 8.5654,0.2338 12.0965,2.2424 13.8882,5.2671 12.6859,8.8389 9.4799,12.0081 9.0593,12.5326 13.5684,11.7547 16.6398,11.5223 A2.5038,2.5038 0 0 1 17.3602,16.4777 T15.6431,16.8412 11.4035,17.5639 6.9301,17.792 3.0218,16.2312 1.6911,12.285 3.8116,8.7226 6.4414,6.6396 5.5201,5.2518 1.8383,4.3258 -0.7765,3.0533 -1.7671,2.3561 A2.9452,2.9452 0 0 1 1.7671,-2.3561 Z" stroke-linecap="round" fill="#ffc034"/></g></g><g transform="matrix(1, 0, 0, 1, 570, 356)" opacity="1"><g transform="scale(1)"><path d="M0.6262,-1.2524 T1.5832,-0.8 4.0294,0.3075 7.6189,0.7709 9.7191,0.5795 A1.448,1.448 0 0 1 10.2809,3.4205 T9.3525,3.6239 6.5356,3.862 2.9454,3.0681 0.3088,1.746 -0.6262,1.2524 A1.4002,1.4002 0 0 1 0.6262,-1.2524 Z" stroke-linecap="round" fill="#ffc034"/></g></g><g transform="matrix(1, 0, 0, 1, 610, 341)" opacity="1"><g transform="scale(1)"><path d="M1.8675,0 T1.8618,1.2004 1.3414,4.0334 -0.1928,7.4809 -2.2922,10.5575 -4.5557,13.3253 -7.7309,16.4545 -11.2479,19.1042 -14.1783,20.7201 -16.9725,21.8743 -18.3618,22.4394 A1.5745,1.5745 0 0 1 -19.6382,19.5606 T-17.2317,18.4087 -13.4777,16.2138 -10.4656,13.7638 -6.6578,9.8574 -3.1854,4.8436 -1.8618,1.1646 -1.8675,0 A1.8675,1.8675 0 0 1 1.8675,0 Z" stroke-linecap="round" fill="#ffc034"/></g></g><g transform="matrix(1, 0, 0, 1, 595, 347)" opacity="1"><g transform="scale(1)"><path d="M1.3097,-1.5716 T2.6844,-0.3359 5.2956,2.0321 7.9698,4.7532 10.6049,7.5778 13.6977,10.9356 17.3075,15.2637 19.8344,18.6534 20.6468,19.8369 A2.0162,2.0162 0 0 1 17.3532,22.1631 T15.8165,20.0458 13.2777,16.787 10.5939,13.5727 7.7377,10.1836 5.2952,7.4089 2.822,4.8903 0.1536,2.7009 -1.3097,1.5716 A2.0458,2.0458 0 0 1 1.3097,-1.5716 Z" stroke-linecap="round" fill="#ffc034"/></g></g><g transform="matrix(1, 0, 0, 1, 624, 318)" opacity="1"><g transform="scale(1)"><path d="M1.9446,-0.8643 T2.8698,1.2749 4.6075,6.0786 6.0859,11.0333 7.6336,16.4141 9.264,22.3266 10.4435,27.4221 11.1479,32.3789 11.6033,38.1282 11.6532,43.4434 10.9692,48.4148 9.8575,52.876 8.4075,56.2345 6.0495,59.1844 1.8321,61.3239 -1.9275,62.1071 -2.9371,62.0811 A3.0818,3.0818 0 0 1 -3.0629,55.9189 T-1.3534,55.6563 1.7264,53.9209 3.6119,51.0738 4.7165,47.4122 5.5456,43.2529 5.7739,38.4227 5.6703,32.9986 5.3141,28.4212 4.4808,23.5032 3.1896,17.595 1.886,12.2135 0.6466,7.5168 -0.9778,2.9821 -1.9446,0.8643 A2.1281,2.1281 0 0 1 1.9446,-0.8643 Z" stroke-linecap="round" fill="#ffc034"/></g></g><g transform="matrix(1, 0, 0, 1, 530, 405)" opacity="1"><g transform="scale(1)"><path d="M1.7101,-1.1401 T2.1729,-0.4189 3.1454,1.8015 4.1511,5.5633 5.1259,9.2909 6.5047,12.3942 8.419,15.3325 11.2015,17.191 14.5676,18.2508 18.1475,18.0932 21.2806,16.017 23.7931,13.4435 26.4795,11.4286 29.3748,9.5055 32.8375,8.1117 36.29,8.0853 39.1279,9.3385 41.4825,11.9993 43.4737,15.5329 44.762,19.1418 45.5753,22.978 46.1866,26.3681 46.3584,27.7079 A2.3764,2.3764 0 0 1 41.6416,28.2921 T41.4002,26.5907 40.8006,23.1838 39.8993,19.5624 38.667,16.2251 36.9176,13.5636 34.0672,12.5142 30.642,13.7712 27.7705,15.7185 25.3752,17.837 22.6533,20.3008 19.4871,22.2807 16.0648,22.8533 12.5676,22.1373 9.523,21.0129 6.4615,19.0483 4.0939,16.2491 2.5414,13.2011 1.1868,10.0691 0.2882,7.0301 -0.4395,4.0175 -1.2269,1.8379 -1.7101,1.1401 A2.0553,2.0553 0 0 1 1.7101,-1.1401 ZM41.7751,27.1653 T42.1373,26.2835 43.2686,23.9715 44.9308,21.0387 46.7815,18.032 48.7204,15.023 50.8732,11.6434 52.5759,8.9766 53.1072,8.1844 A2.5699,2.5699 0 0 1 57.3748,11.0488 T56.5655,12.2069 54.9207,14.7619 53.0869,17.6398 51.1186,20.566 49.3031,23.3261 47.4396,26.3923 46.3232,28.4892 46.2249,28.8347 A2.3764,2.3764 0 0 1 41.7751,27.1653 ZM56.2565,7.2558 T57.3006,7.7231 59.8529,9.1629 62.738,11.0252 65.7296,12.4229 69.331,13.0689 73.3068,12.3564 76.6582,9.9448 79.1222,6.2953 80.629,2.3504 81.2785,-0.9125 81.5227,-2.3187 A2.4977,2.4977 0 0 1 86.4773,-1.6813 T86.3577,-0.2591 86.0964,2.6482 84.967,6.6021 83.1593,10.5195 81.356,13.0967 77.5783,15.8856 72.9654,18.014 68.6287,18.2152 63.6099,16.9992 59.7744,15.1912 57.0319,13.4375 54.9249,12.2601 54.2256,11.9774 A2.5699,2.5699 0 0 1 56.2565,7.2558 Z" stroke-linecap="round" fill="#e599f7"/></g></g><g transform="matrix(1, 0, 0, 1, 505, 499)" opacity="1"><g transform="scale(1)"><path d="M2.3735,0.7912 T1.8939,2.2077 0.8371,6.18 0.0868,10.2281 -0.1753,13.2037 0.1657,16.3601 1.3467,18.5382 2.0975,19.0431 A2.5254,2.5254 0 0 1 -0.6743,23.2653 T-1.4893,22.6814 -3.6011,19.7897 -5.0891,15.9306 -5.165,12.7505 -4.8351,9.4021 -3.9634,4.8671 -2.8399,0.6303 -2.3735,-0.7912 A2.5019,2.5019 0 0 1 2.3735,0.7912 ZM0.0553,18.7156 T1.0572,18.4528 3.4437,17.2331 6.1768,14.5877 8.6588,11.0249 10.4418,7.2925 11.1785,4.1697 11.2655,2.9052 A2.1397,2.1397 0 0 1 15.5337,2.5954 T15.5849,3.9103 15.0555,7.0387 13.5431,11.1335 11.2308,15.6144 7.952,19.6543 4.7374,22.2606 2.3944,23.3097 1.3679,23.5928 A2.5254,2.5254 0 0 1 0.0553,18.7156 ZM14.5335,4.5649 T14.4387,4.6234 14.3439,4.682 A2.1385,2.1385 0 0 1 12.0773,1.0548 T12.1715,0.9953 12.2657,0.9358 A2.1397,2.1397 0 0 1 14.5335,4.5649 ZM15.3224,2.5317 T15.4165,3.3081 15.7077,5.5924 16.6105,9.5636 17.7786,13.486 19.0225,16.1961 20.8226,19.1482 21.8413,20.8492 A2.1714,2.1714 0 0 1 18.1587,23.1508 T17.0762,21.4898 14.889,18.0624 13.3609,14.7218 12.5841,11.6163 11.8916,7.8812 11.3255,4.4413 11.0987,3.2052 A2.1385,2.1385 0 0 1 15.3224,2.5317 Z" stroke-linecap="round" fill="#e599f7"/></g></g><g transform="matrix(1, 0, 0, 1, 536, 502)" opacity="1"><g transform="scale(1)"><path d="M0.7463,-1.4927 T1.7069,-1.0512 4.6575,-0.3042 8.8453,0.1213 11.0428,0.2413 A1.7592,1.7592 0 0 1 10.9572,3.7587 T10.0771,3.7652 7.0019,3.6439 2.9617,3.0089 0.1851,1.9972 -0.7463,1.4927 A1.6689,1.6689 0 0 1 0.7463,-1.4927 Z" stroke-linecap="round" fill="#e599f7"/></g></g><g transform="matrix(1, 0, 0, 1, 540, 507)" opacity="1"><g transform="scale(1)"><path d="M1.034,-1.7233 T2.2417,-1.0656 5.0789,-0.0044 8.624,0.1565 10.5397,-0.0859 A2.1361,2.1361 0 0 1 11.4603,4.0859 T10.5474,4.3109 7.6489,4.6294 3.4718,3.9844 0.1233,2.4846 -1.034,1.7233 A2.0097,2.0097 0 0 1 1.034,-1.7233 Z" stroke-linecap="round" fill="#e599f7"/></g></g><g transform="matrix(1, 0, 0, 1, 580, 484)" opacity="1"><g transform="scale(1)"><path d="M2.3169,-0.3861 T2.5545,1.0328 3.027,4.6557 3.3479,8.9511 3.8896,13.182 4.3453,15.3215 A2.4415,2.4415 0 0 1 -0.3453,16.6785 T-0.6251,15.7512 -1.2101,12.986 -1.5349,9.1836 -1.7004,5.2216 -2.0815,1.8052 -2.3169,0.3861 A2.3488,2.3488 0 0 1 2.3169,-0.3861 Z" stroke-linecap="round" fill="#e599f7"/></g></g><g transform="matrix(1, 0, 0, 1, 591, 477)" opacity="1"><g transform="scale(1)"><path d="M2.1138,-1.0569 T2.5884,-0.1003 3.4139,2.3436 3.9339,5.2987 4.1986,8.2427 4.3522,12.3346 4.4181,16.458 4.4259,17.9655 A2.4262,2.4262 0 0 1 -0.4259,18.0345 T-0.4943,15.1942 -0.6256,9.794 -0.9298,5.0808 -1.6424,1.9923 -2.1138,1.0569 A2.3633,2.3633 0 0 1 2.1138,-1.0569 Z" stroke-linecap="round" fill="#e599f7"/></g></g><g transform="matrix(1, 0, 0, 1, 600, 475)" opacity="1"><g transform="scale(1)"><path d="M0.8759,2.6277 T-1.235,3.39 -5.4462,4.8287 -9.7391,6.3056 -14.6818,7.796 -19.7598,9.0524 -24.9517,10.4822 -29.5041,11.8157 -31.1925,12.2861 A2.4245,2.4245 0 0 1 -32.8075,7.7139 T-31.1984,7.0194 -28.174,5.6902 -25.155,4.4217 -21.2294,3.1908 -16.4247,1.973 -11.5901,0.5634 -7.2032,-0.7698 -3.022,-1.971 -0.8759,-2.6277 A2.7699,2.7699 0 0 1 0.8759,2.6277 Z" stroke-linecap="round" fill="#e599f7"/></g></g><g transform="matrix(1, 0, 0, 1, 601, 507)" opacity="1"><g transform="scale(1)"><path d="M0.3192,2.8727 T-1.7998,3.1376 -5.4574,3.9503 -8.9522,5.0781 -12.5997,6.1812 -16.185,7.2074 -20.772,8.396 -24.9843,9.2912 -26.5038,9.5008 A2.5496,2.5496 0 0 1 -27.4962,4.4992 T-24.9561,3.8362 -21.0445,2.5854 -17.8659,1.472 -14.3167,0.4154 -10.7088,-0.6386 -6.719,-1.809 -2.4572,-2.6646 -0.3192,-2.8727 A2.8904,2.8904 0 0 1 0.3192,2.8727 Z" stroke-linecap="round" fill="#e599f7"/></g></g><g transform="matrix(1, 0, 0, 1, 580, 528)" opacity="1"><g transform="scale(1)"><path d="M-0.43,-2.5797 T0.9982,-2.762 4.914,-3.11 9.6019,-2.5213 12.9109,0.4535 13.9122,4.2443 13.1543,7.2929 11.3447,10.4571 8.657,13.4381 8.9149,13.8384 13.8583,12.7471 19.3552,12.3286 21.6952,12.1065 A2.9095,2.9095 0 0 1 22.3048,17.8935 T19.9698,18.1638 14.019,18.6208 8.1332,18.4741 4.1783,16.739 3.0823,13.0891 5.3349,9.3175 7.9051,6.4487 8.2173,3.3359 5.4363,1.7833 1.8398,2.289 0.43,2.5797 A2.6153,2.6153 0 0 1 -0.43,-2.5797 Z" stroke-linecap="round" fill="#e599f7"/></g></g><g transform="matrix(1, 0, 0, 1, 629, 504)" opacity="1"><g transform="scale(1)"><path d="M0.5018,-2.0072 T1.4562,-1.8053 4.1838,-1.8437 8.2888,-2.578 12.3126,-3.1411 14.9522,-3.2148 15.9,-3.2192 A2.2215,2.2215 0 0 1 16.1,1.2192 T15.1558,1.3001 12.0529,1.6224 7.5462,2.2042 3.2857,2.547 0.4358,2.2783 -0.5018,2.0072 A2.069,2.069 0 0 1 0.5018,-2.0072 Z" stroke-linecap="round" fill="#e599f7"/></g></g><g transform="matrix(1, 0, 0, 1, 675, 495)" opacity="1"><g transform="scale(1)"><path d="M2.1739,0.5435 T1.9493,1.5189 0.7626,4.0717 -1.084,7.0019 -2.9037,9.7857 -5.2094,12.6003 -8.8298,16.0037 -12.4117,18.9034 -13.7438,19.7832 A2.1813,2.1813 0 0 1 -16.2562,16.2168 T-14.0786,14.6203 -10.9593,11.7997 -8.9637,9.5176 -6.937,7.0528 -4.3175,3.4678 -2.4223,0.3731 -2.1739,-0.5435 A2.2408,2.2408 0 0 1 2.1739,0.5435 Z" stroke-linecap="round" fill="#e599f7"/></g></g><g transform="matrix(1, 0, 0, 1, 661, 494)" opacity="1"><g transform="scale(1)"><path d="M1.6273,-2.0341 T2.7811,-1.0521 5.0776,0.9441 7.4455,2.8762 9.8958,4.8133 12.2529,6.8342 15.2706,9.0583 19.0776,11.3806 22.101,13.116 23.2029,13.7514 A2.5501,2.5501 0 0 1 20.7971,18.2486 T18.6028,17.1676 14.2466,14.786 10.9437,12.6057 8.7754,10.7361 6.6704,8.7811 3.1939,5.8349 -0.4161,2.9441 -1.6273,2.0341 A2.6049,2.6049 0 0 1 1.6273,-2.0341 Z" stroke-linecap="round" fill="#e599f7"/></g></g><g transform="matrix(1, 0, 0, 1, 718, 498)" opacity="1"><g transform="scale(1)"><path d="M1.0997,-2.5659 T2.7433,-1.8328 6.4173,-0.6037 10.6517,-0.0034 14.3089,0.1009 17.7073,0.0684 21.6278,0.0012 25.7702,0.1856 30.0722,0.4918 34.2899,0.626 38.1781,0.7024 41.4221,0.5255 44.2863,0.1981 47.232,-0.2517 47.1255,-0.9173 43.8983,-2.6735 39.9652,-5.9268 36.5501,-8.7762 33.4159,-11.5263 31.3643,-13.2608 A2.6937,2.6937 0 0 1 34.9628,-17.2701 T37.0969,-15.6178 41.2791,-12.2628 44.5688,-9.7365 47.7562,-7.3368 51.1523,-4.4344 53.1492,-0.5907 52.3568,3.5689 49.6104,5.7472 45.944,6.4678 41.7782,6.8817 38.0217,7.0701 34.0113,6.9424 29.524,6.6891 25.3859,6.2602 21.5905,5.947 17.6293,5.8335 14.1494,5.7129 11.0962,5.5719 7.4088,5.1412 3.7537,4.3657 0.5677,3.2518 -1.0997,2.5659 A2.7916,2.7916 0 0 1 1.0997,-2.5659 ZM35.4568,-13.8523 T35.4169,-13.7903 35.377,-13.7283 A2.6908,2.6908 0 0 1 30.7954,-16.5515 T30.8329,-16.615 30.8703,-16.6785 A2.6937,2.6937 0 0 1 35.4568,-13.8523 ZM35.1122,-16.9107 T35.644,-16.2827 37.6089,-14.1759 41.1901,-10.8876 44.5371,-8.1581 47.0814,-6.2671 49.7939,-3.9154 52.9098,-0.2226 55.1374,3.4486 55.6222,6.7888 55.0148,10.2802 53.5435,13.006 50.0811,15.8764 45.8839,18.1676 42.7205,19.3183 39.4494,20.4023 37.7494,20.9721 A2.1096,2.1096 0 0 1 36.2506,17.0279 T37.8999,16.3248 40.9844,14.9936 43.8389,13.7318 46.9226,12.1647 49.5762,9.8396 50.4051,6.5595 48.8653,2.8632 46.4502,-0.0229 43.9965,-2.1036 40.2008,-5.0404 36.5643,-7.9826 33.784,-10.5114 31.6614,-12.7008 31.0602,-13.3691 A2.6908,2.6908 0 0 1 35.1122,-16.9107 Z" stroke-linecap="round" fill="#e599f7"/></g></g><g transform="matrix(1, 0, 0, 1, 822, 491)" opacity="1"><g transform="scale(1)"><path d="M-1.9753,-1.1852 T-1.2313,-2.3455 -0.4917,-4.998 -1.595,-7.4231 -4.27,-8.3068 -7.3362,-7.2257 -9.7585,-4.0973 -11.0488,-0.0554 -10.9983,4.1835 -8.9455,7.3763 -5.8803,7.348 -3.3739,5.3205 -1.2786,2.7727 0.4718,-0.2951 1.8917,-3.3315 2.8552,-6.2046 3.3113,-9.8411 3.5753,-13.9171 3.7086,-17.5152 3.5355,-20.9206 2.937,-24.7932 2.117,-28.1157 1.681,-29.2692 A2.1675,2.1675 0 0 1 5.7376,-30.7979 T6.2488,-29.438 7.1856,-25.5931 7.8152,-21.1014 7.9567,-17.3462 7.7897,-13.6396 7.4838,-9.24 6.8584,-4.8716 5.7697,-1.5304 4.1931,1.84 2.0527,5.5439 -0.5424,8.6655 -5.1788,11.3208 -10.5113,11.5806 -13.7039,9.207 -15.2211,6.3574 -15.7648,3.0761 -15.4055,-1.232 -14.3023,-5.1376 -12.9859,-7.8341 -10.1749,-10.7846 -6.4764,-12.7214 -2.7705,-12.6365 1.0129,-10.9104 3.4816,-7.5866 3.7911,-3.4134 2.6503,-0.0195 1.9753,1.1852 A2.3036,2.3036 0 0 1 -1.9753,-1.1852 ZM3.8117,-27.8684 T3.6439,-27.8613 3.4761,-27.8542 A2.1659,2.1659 0 0 1 3.2715,-32.1811 T3.4392,-32.1899 3.6069,-32.1987 A2.1675,2.1675 0 0 1 3.8117,-27.8684 ZM5.5123,-29.6742 T5.3863,-28.9218 5.2311,-26.2017 5.4418,-22.6761 5.8524,-18.9514 6.3475,-14.8437 7.0937,-10.9399 7.7585,-7.1124 8.3474,-3.7166 9.0989,-0.6826 10.4011,2.3955 11.2978,3.9708 A2.4441,2.4441 0 0 1 7.0822,6.4453 T5.8554,4.2991 4.1963,0.5023 3.4178,-2.9084 2.8983,-6.3563 2.3575,-10.1297 1.7136,-14.3662 1.3661,-18.5247 1.0753,-22.4075 0.9015,-26.3934 1.0913,-29.4326 1.2354,-30.3611 A2.1659,2.1659 0 0 1 5.5123,-29.6742 ZM7.6799,3.2862 T8.3832,2.8133 9.8662,1.8086 10.6459,1.2768 A2.1916,2.1916 0 0 1 13.3541,4.7232 T12.6529,5.3551 11.326,6.5584 10.7001,7.1298 A2.4441,2.4441 0 0 1 7.6799,3.2862 Z" stroke-linecap="round" fill="#e599f7"/></g></g><g transform="matrix(1, 0, 0, 1, 843, 479)" opacity="1"><g transform="scale(1)"><path d="M2.0137,-1.0069 T2.7363,0.4085 3.9151,3.2144 4.9083,6.3584 6.2212,9.585 7.2264,11.1711 7.4555,11.284 A2.3851,2.3851 0 0 1 4.4203,14.9641 T3.1573,13.3756 1.0952,9.6681 -0.1623,5.7006 -1.3173,2.4295 -2.0137,1.0069 A2.2514,2.2514 0 0 1 2.0137,-1.0069 ZM5.116,10.885 T5.8322,10.6309 7.8772,9.0552 9.4567,6.0478 9.5607,3.738 9.4141,3.1142 A2.1095,2.1095 0 0 1 13.554,2.3014 T13.7688,3.5183 13.7769,6.5563 12.684,10.0374 10.0111,13.2526 7.492,15.0856 6.7598,15.3631 A2.3851,2.3851 0 0 1 5.116,10.885 ZM13.5312,3.2167 T13.3768,3.823 13.4141,5.9083 14.0187,9.2787 15.0173,12.9614 16.1892,15.8815 16.7754,17.0103 A2.0326,2.0326 0 0 1 13.2246,18.9897 T12.5727,17.8975 11.0816,14.6156 9.8287,10.3861 9.2307,6.0726 9.2417,2.9989 9.4369,2.1988 A2.1095,2.1095 0 0 1 13.5312,3.2167 Z" stroke-linecap="round" fill="#e599f7"/></g></g><g transform="matrix(1, 0, 0, 1, 872, 508)" opacity="1"><g transform="scale(1)"><path d="M0.8597,2.0059 T-0.789,2.7406 -5.3867,4.199 -10.4522,5.5141 -16.1882,6.7139 -24.364,7.6601 -32.6299,8.4109 -39.7968,9.0628 -46.1534,9.6414 -51.8715,10.1581 -56.9897,10.6421 -61.4487,11.2809 -65.5748,11.7822 -70.5215,12.5137 -73.5014,13.0759 A2.1349,2.1349 0 0 1 -74.4986,8.9241 T-72.8894,8.4593 -69.6948,7.5384 -66.3294,6.8181 -62.2919,6.0631 -57.5427,5.2157 -52.3684,4.6744 -46.6338,4.1433 -40.2339,3.631 -33.0679,3.1105 -24.907,2.5343 -17.1704,1.8598 -11.5603,0.8819 -6.7642,-0.1401 -2.522,-1.3216 -0.8597,-2.0059 A2.1824,2.1824 0 0 1 0.8597,2.0059 Z" stroke-linecap="round" fill="#e599f7"/></g></g><g transform="matrix(1, 0, 0, 1, 816, 550)" opacity="1"><g transform="scale(1)"><path d="M-2.1778,-0.5445 T-1.9329,-1.4335 -2.8773,-1.1479 -4.8881,2.0611 -5.9191,5.7209 -4.7404,6.9622 -1.6433,5.1705 1.0945,2.7566 3.3513,-0.8842 4.8637,-5.0337 5.322,-8.5297 5.4113,-13.2955 5.0136,-17.5605 4.1106,-20.8213 3.3589,-22.6709 3.1968,-22.7396 A2.0638,2.0638 0 0 1 6.3683,-25.3812 T6.9085,-24.6067 8.1203,-21.8741 9.148,-18.2349 9.6031,-13.3515 9.5157,-7.9384 8.9309,-3.7767 7.8589,-0.2501 6.2281,3.0773 4.233,5.8777 1.9193,8.1516 -0.7397,10.1492 -3.8676,11.2658 -7.9503,10.0529 -10.4485,7.0635 -10.3024,4.1797 -8.7314,-0.0824 -5.7271,-4.2094 -1.5154,-5.3414 1.7953,-3.3091 2.4059,-0.4585 2.1778,0.5445 A2.2448,2.2448 0 0 1 -2.1778,-0.5445 ZM4.9415,-22.0028 T4.7563,-21.9904 4.571,-21.9779 A2.06,2.06 0 0 1 4.2538,-26.0858 T4.4387,-26.1019 4.6236,-26.1181 A2.0638,2.0638 0 0 1 4.9415,-22.0028 ZM6.4135,-23.5426 T6.2819,-23.0516 6.4925,-20.5828 7.1676,-16.81 7.6924,-13.5821 8.4278,-9.0635 9.31,-4.5076 10.4506,-0.7554 13.0803,2.792 14.9077,4.0578 A2.1439,2.1439 0 0 1 13.0923,7.9422 T11.9987,7.4956 9.4864,6.2501 6.9191,3.1209 5.3418,-0.6431 4.6058,-3.7989 4.1931,-7.0722 3.7881,-10.1478 3.1281,-14.1512 2.6352,-18.397 2.2906,-21.6151 2.245,-23.7938 2.4113,-24.5211 A2.06,2.06 0 0 1 6.4135,-23.5426 Z" stroke-linecap="round" fill="#e599f7"/></g></g><g transform="matrix(1, 0, 0, 1, 853, 535)" opacity="1"><g transform="scale(1)"><path d="M1.6604,0.8302 T1.436,1.3087 0.493,3.702 -0.943,6.9518 -3.1044,10.7103 -5.462,14.5618 -6.3757,15.9896 A1.902,1.902 0 0 1 -9.6243,14.0104 T-8.7743,12.5436 -7.1943,9.8029 -5.1682,6.2761 -3.0149,2.0641 -1.909,-0.3627 -1.6604,-0.8302 A1.8564,1.8564 0 0 1 1.6604,0.8302 Z" stroke-linecap="round" fill="#e599f7"/></g></g><g transform="matrix(1, 0, 0, 1, 845, 537)" opacity="1"><g transform="scale(1)"><path d="M1.7601,-1.1734 T2.7013,0.2499 4.7805,4.0553 7.0784,8.3763 9.8702,11.846 11.5023,13.3769 A2.2116,2.2116 0 0 1 8.4977,16.6231 T6.4891,14.7844 3.1685,10.5172 0.999,6.0457 -0.8093,2.5881 -1.7601,1.1734 A2.1154,2.1154 0 0 1 1.7601,-1.1734 Z" stroke-linecap="round" fill="#e599f7"/></g></g><g transform="matrix(1, 0, 0, 1, 895.5, 497)" opacity="1"><g transform="scale(1)"><path d="M-1.9697,-1.3132 T-1.5081,-2.055 0.5202,-4.0065 3.647,-5.729 7.2592,-6.7767 9.3112,-7.3114 A2.4119,2.4119 0 0 1 10.6888,-2.6886 T8.4849,-1.955 4.6097,-0.6313 2.4541,0.636 1.9697,1.3132 A2.3673,2.3673 0 0 1 -1.9697,-1.3132 Z" stroke-linecap="round" fill="#e599f7"/></g></g><g transform="matrix(1, 0, 0, 1, 896.5, 502)" opacity="1"><g transform="scale(1)"><path d="M0.9285,-1.8569 T1.8902,-1.4269 5.2556,-1.101 9.4387,-1.4281 12.3398,-1.8919 13.4616,-2.1327 A2.1996,2.1996 0 0 1 14.5384,2.1327 T12.2004,2.7801 7.9554,3.4719 3.4903,3.2026 0.0018,2.3729 -0.9285,1.8569 A2.0761,2.0761 0 0 1 0.9285,-1.8569 Z" stroke-linecap="round" fill="#e599f7"/></g></g><g transform="matrix(1, 0, 0, 1, 935.5, 496)" opacity="1"><g transform="scale(1)"><path d="M0.2734,-1.6405 T1.7015,-1.4593 5.1557,-1.1659 8.8103,-1.0431 12.1337,-0.6268 15.4886,-0.0193 17.1486,0.1827 A1.8234,1.8234 0 0 1 16.8514,3.8173 T14.9771,3.7302 11.705,3.2971 8.6021,2.8561 4.7217,2.4926 1.1365,1.9323 -0.2734,1.6405 A1.6631,1.6631 0 0 1 0.2734,-1.6405 Z" stroke-linecap="round" fill="#e599f7"/></g></g><g transform="matrix(1, 0, 0, 1, 965.5, 475)" opacity="1"><g transform="scale(1)"><path d="M2.0174,-0.6725 T2.4762,0.7515 3.3556,4.3461 3.8692,8.3157 4.0265,11.9805 4.1357,15.537 4.2354,19.5402 4.3129,23.5423 4.1776,28.1137 4.0195,30.9958 A2.0195,2.0195 0 0 1 -0.0195,31.0042 T-0.1895,28.1253 -0.3474,23.5599 -0.3008,19.5758 -0.2599,15.6054 -0.2621,12.1094 -0.3162,8.6748 -0.7023,5.2819 -1.5302,2.0865 -2.0174,0.6725 A2.1265,2.1265 0 0 1 2.0174,-0.6725 Z" stroke-linecap="round" fill="#e599f7"/></g></g><g transform="matrix(1, 0, 0, 1, 963.5, 475)" opacity="1"><g transform="scale(1)"><path d="M-0.852,1.704 T-1.3316,1.4807 -1.8112,1.2574 A1.9346,1.9346 0 0 1 -0.0808,-2.2034 T0.3856,-1.9537 0.852,-1.704 A1.9051,1.9051 0 0 1 -0.852,1.704 ZM0.2715,1.0305 T-0.4409,1.6355 -2.8877,4.3653 -5.4963,7.7809 -6.3707,9.0718 A1.9503,1.9503 0 0 1 -9.6293,6.9282 T-8.0451,4.441 -5.0443,0.5533 -2.8956,-1.4118 -2.1635,-1.9765 A1.9346,1.9346 0 0 1 0.2715,1.0305 Z" stroke-linecap="round" fill="#e599f7"/></g></g><g transform="matrix(1, 0, 0, 1, 317.5, 641)" opacity="1"><g transform="scale(1)"><path d="M0.4436,-2.218 T1.6266,-1.9843 4.2452,-1.5897 7.8627,-1.3937 12.1816,-1.3518 16.4823,-1.2943 19.8238,-1.2077 21.0015,-1.1717 A2.1717,2.1717 0 0 1 20.9985,3.1717 T18.7629,3.2412 14.2084,3.3249 10.0387,3.3107 6.717,3.2091 3.5833,2.9163 0.7384,2.4573 -0.4436,2.218 A2.262,2.262 0 0 1 0.4436,-2.218 Z" stroke-linecap="round" fill="#ffc034"/></g></g><g transform="matrix(1, 0, 0, 1, 313.5, 660)" opacity="1"><g transform="scale(1)"><path d="M0,-3.4905 T1.419,-3.5062 5.1752,-3.5551 9.3695,-3.6131 13.0623,-3.6424 17.0561,-3.5777 20.1071,-3.4661 21,-3.4238 A3.4238,3.4238 0 0 1 21,3.4238 T20.1071,3.4661 17.0561,3.5777 13.0623,3.6424 9.3695,3.6131 5.1752,3.5551 1.419,3.5062 0,3.4905 A3.4905,3.4905 0 0 1 0,-3.4905 Z" stroke-linecap="round" fill="#ffc034"/></g></g><g transform="matrix(1, 0, 0, 1, 383.5, 651)" opacity="1"><g transform="scale(1)"><path d="M-2.5721,0.8574 T-2.8001,0.1518 -4.7777,-0.1059 -7.4089,1.9738 -8.6055,5.5409 -6.7442,7.1926 -3.3303,5.6226 -0.9408,2.9573 1.2145,-0.1798 2.989,-3.764 4.4175,-7.6817 5.6881,-12.0601 6.6148,-16.6254 7.1126,-20.8348 7.4001,-24.712 7.5663,-28.159 7.3375,-31.2986 7.0458,-32.9378 A2.2262,2.2262 0 0 1 11.4534,-33.5673 T11.8108,-31.5595 12.1401,-28.0054 12.0427,-24.4196 11.8302,-20.3372 11.379,-15.7256 10.5051,-10.733 9.2565,-5.9505 7.6998,-1.4602 5.6049,2.8322 3.1106,6.5634 0.2672,9.7506 -2.9001,12.4904 -6.1434,14.1861 -9.2975,14.5879 -12.045,13.4763 -13.843,9.6801 -13.835,4.0413 -12.6019,-0.0943 -10.1909,-3.3951 -6.9411,-5.8947 -3.3989,-6.084 0.3602,-4.0031 2.3271,-1.5708 2.5721,-0.8574 A2.7112,2.7112 0 0 1 -2.5721,0.8574 ZM8.1068,-31.3421 T7.8134,-31.5224 7.52,-31.7028 A2.2178,2.2178 0 0 1 9.797,-35.5093 T10.0947,-35.3362 10.3924,-35.163 A2.2262,2.2262 0 0 1 8.1068,-31.3421 ZM10.8395,-33.2038 T10.6034,-32.017 10.0614,-27.4237 9.6527,-22.1199 9.5194,-18.0458 9.726,-13.6558 10.1114,-9.2162 10.5545,-5.0055 11.0095,-1.1536 12.162,3.4396 13.1542,6.1651 A2.3103,2.3103 0 0 1 8.8458,7.8349 T8.18,6.261 6.8297,2.9423 5.9981,-0.5648 5.5625,-4.538 5.213,-8.8929 4.992,-13.5265 4.9456,-18.2756 5.2296,-22.5677 5.6614,-26.422 5.9606,-29.7337 6.238,-32.6161 6.4775,-34.0083 A2.2178,2.2178 0 0 1 10.8395,-33.2038 Z" stroke-linecap="round" fill="#ffc034"/></g></g><g transform="matrix(1, 0, 0, 1, 424.5, 675)" opacity="1"><g transform="scale(1)"><path d="M0,2.9388 T-2.3657,2.9524 -7.3078,2.7707 -12.7386,2.5064 -18.7617,2.4194 -25.0221,2.3785 -31.3973,2.3344 -37.5948,2.2718 -42.9904,2.1829 -47.724,2.0607 -51.6996,2.1353 -54.9585,2.3328 -58.1416,2.4426 -59.7894,2.5044 A2.5132,2.5132 0 0 1 -60.2106,-2.5044 T-57.1647,-2.9184 -52.0468,-3.6532 -47.7169,-4.0435 -42.9734,-4.1502 -37.5661,-4.2097 -31.3426,-4.2166 -24.9188,-4.155 -18.5608,-3.9954 -12.3079,-3.7016 -7.0099,-3.2437 -2.3643,-2.9524 0,-2.9388 A2.9388,2.9388 0 0 1 0,2.9388 Z" stroke-linecap="round" fill="#ffc034"/></g></g><g transform="matrix(1, 0, 0, 1, 370.5, 718)" opacity="1"><g transform="scale(1)"><path d="M-2.5836,-0.4306 T-2.331,-1.8331 -2.4421,-4.6166 -4.5099,-4.5733 -6.977,-1.1787 -7.7413,2.8717 -6.3411,5.8581 -3.0971,5.9204 0.5781,2.6244 3.1496,-1.4276 4.5456,-4.8071 5.5366,-8.3389 6.0627,-11.9596 6.3602,-15.5313 6.5566,-19.7939 6.461,-23.4841 6.2741,-24.6148 A2.2648,2.2648 0 0 1 10.7462,-25.3348 T10.9885,-23.7994 11.1645,-19.6194 11.0075,-15.1818 10.7374,-11.3156 10.1866,-7.1055 9.1342,-2.9584 7.55,1.0528 5.4252,4.8425 2.6266,8.1969 -0.6055,10.5111 -4.1388,11.5634 -7.6251,11.3467 -10.3683,9.8151 -12.2144,7.2517 -13.0881,4.166 -13.0611,1.086 -11.8288,-3.169 -9.8988,-7.2742 -7.6445,-9.7583 -3.8945,-10.8341 0.3055,-9.2026 2.5735,-5.0115 2.804,-1.0049 2.5836,0.4306 A2.6192,2.6192 0 0 1 -2.5836,-0.4306 ZM8.3985,-22.7128 T8.2779,-22.7207 8.1574,-22.7286 A2.2609,2.2609 0 0 1 8.3803,-27.2449 T8.5011,-27.2409 8.6218,-27.2369 A2.2648,2.2648 0 0 1 8.3985,-22.7128 ZM10.5245,-24.8332 T10.4141,-23.444 10.2725,-18.927 10.2488,-13.9559 10.506,-10.3338 11.1421,-6.4133 11.9574,-2.4817 12.8369,0.6635 14.7091,2.8782 16.131,3.7376 A2.2662,2.2662 0 0 1 15.869,8.2624 T13.7382,7.9598 10.1327,5.5742 8.1863,1.9338 7.2914,-1.5652 6.535,-5.7534 5.9837,-10.0601 5.7829,-13.9718 5.8119,-17.5411 5.8347,-20.7349 5.9294,-23.6755 6.0132,-25.1402 A2.2609,2.2609 0 0 1 10.5245,-24.8332 Z" stroke-linecap="round" fill="#ffc034"/></g></g><g transform="matrix(1, 0, 0, 1, 405.5, 704)" opacity="1"><g transform="scale(1)"><path d="M2.0917,0.5229 T1.8975,1.4959 1.0186,3.7677 -0.4227,6.3391 -2.1323,8.8313 -4.1186,11.173 -6.7381,13.0902 -9.6831,14.4751 -11.0417,15.0649 A2.2764,2.2764 0 0 1 -12.9583,10.9351 T-10.8061,9.9546 -6.9816,6.9594 -3.9793,3.1299 -2.3705,0.3961 -2.0917,-0.5229 A2.156,2.156 0 0 1 2.0917,0.5229 Z" stroke-linecap="round" fill="#ffc034"/></g></g><g transform="matrix(1, 0, 0, 1, 396.5, 705)" opacity="1"><g transform="scale(1)"><path d="M1.7538,-1.2527 T2.9105,0.421 5.143,3.3719 7.1064,5.8843 9.5265,8.4382 12.8642,10.3084 14.6696,10.86 A2.2423,2.2423 0 0 1 13.3304,15.14 T11.0225,14.4046 7.4989,12.8425 4.5897,9.6853 1.7794,5.941 -0.5455,2.89 -1.7538,1.2527 A2.1552,2.1552 0 0 1 1.7538,-1.2527 Z" stroke-linecap="round" fill="#ffc034"/></g></g><g transform="matrix(1, 0, 0, 1, 462.5, 644)" opacity="1"><g transform="scale(1)"><path d="M1.8169,1.8169 T0.6364,3.0022 -1.9618,5.3806 -4.96,7.5185 -8.7394,9.8855 -12.1148,12.3868 -13.2915,13.4658 A2.6839,2.6839 0 0 1 -17.6889,10.3874 T-15.8922,8.7042 -12.8276,6.1097 -9.1206,3.8697 -5.4336,1.5417 -3.0014,-0.6372 -1.8169,-1.8169 A2.5694,2.5694 0 0 1 1.8169,1.8169 ZM-13.6313,9.9906 T-13.1784,10.4765 -10.5207,11.4322 -6.4907,12.4389 -3.127,14.4957 -2.1923,18.4307 -4.6221,22.6819 -8.3981,26.0989 -13.2066,28.4948 -16.0652,29.3098 A2.584,2.584 0 0 1 -17.1125,24.249 T-15.2388,23.7774 -11.5362,21.8644 -8.6358,18.7919 -9.409,16.758 -13.4542,15.8713 -16.502,14.6249 -17.3491,13.8626 A2.6839,2.6839 0 0 1 -13.6313,9.9906 ZM-18.6135,28.385 T-19.2707,27.457 -19.9279,26.529 A2.4606,2.4606 0 0 1 -16.0721,23.471 T-15.3181,24.3224 -14.5642,25.1737 A2.584,2.584 0 0 1 -18.6135,28.385 Z" stroke-linecap="round" fill="#ffc034"/></g></g><g transform="matrix(1, 0, 0, 1, 472.5, 654)" opacity="1"><g transform="scale(1)"><path d="M2.095,0 T2.1208,1.1825 2.1744,4.7484 2.2055,8.5659 2.2087,10 A2.2087,2.2087 0 0 1 -2.2087,10 T-2.2055,8.5659 -2.1744,4.7484 -2.1208,1.1825 -2.095,0 A2.095,2.095 0 0 1 2.095,0 Z" stroke-linecap="round" fill="#ffc034"/></g></g><g transform="matrix(1, 0, 0, 1, 473.5, 622)" opacity="1"><g transform="scale(1)"><path d="M1.1438,-1.1438 T2.1222,-0.2126 4.1336,3.3103 5.1595,8.6173 4.9172,13.729 4.6822,16.1253 A1.6868,1.6868 0 0 1 1.3178,15.8747 T1.4472,13.3786 1.6195,8.7684 1.1729,4.8598 -0.2302,2.1046 -1.1438,1.1438 A1.6176,1.6176 0 0 1 1.1438,-1.1438 Z" stroke-linecap="round" fill="#ffc034"/></g></g><g transform="matrix(1, 0, 0, 1, 484.5, 655)" opacity="1"><g transform="scale(1)"><path d="M1.9874,-1.1924 T2.6811,0.001 4.1096,3.3227 5.0672,6.9298 5.3744,9.6413 5.459,10.8739 A2.4622,2.4622 0 0 1 0.541,11.1261 T0.4092,8.774 -0.1297,4.9788 -1.2621,2.364 -1.9874,1.1924 A2.3177,2.3177 0 0 1 1.9874,-1.1924 ZM0.5383,11.0519 T0.5266,10.0971 1.1979,7.2763 3.1697,2.8442 5.407,-0.8747 8.4124,-3.4996 11.9057,-5.038 14.5811,-4.367 16.4943,-2.2552 17.5214,1.3586 17.6712,5.081 17.251,7.9336 17.0336,9.3033 A2.0561,2.0561 0 0 1 12.9664,8.6967 T13.1582,7.3232 13.4302,4.0826 12.9173,0.5315 11.1094,-0.1852 8.6004,2.6714 6.3618,7.1027 5.4396,10.2965 5.4617,10.9481 A2.4622,2.4622 0 0 1 0.5383,11.0519 Z" stroke-linecap="round" fill="#ffc034"/></g></g><g transform="matrix(1, 0, 0, 1, 518.5, 625)" opacity="1"><g transform="scale(1)"><path d="M2.1443,0.3574 T1.9206,1.7814 1.0779,5.0911 -0.5609,9.3855 -2.2747,14.0944 -3.8083,19.0987 -5.2902,24.3456 -6.2574,28.8593 -6.7712,32.5449 -7.1522,36.5494 -6.6657,38.8428 -5.9868,38.8466 A2.3798,2.3798 0 0 1 -8.0132,43.1534 T-9.7414,42.1479 -11.9135,38.8913 -12.2647,35.1688 -11.971,31.8028 -11.356,27.7228 -10.1812,22.886 -8.4959,17.5704 -6.7125,12.4048 -4.8245,7.6891 -3.2192,3.9725 -2.3936,1.0566 -2.1443,-0.3574 A2.1739,2.1739 0 0 1 2.1443,0.3574 Z" stroke-linecap="round" fill="#ffc034"/></g></g><g transform="matrix(1, 0, 0, 1, 521.5, 645)" opacity="1"><g transform="scale(1)"><path d="M2.3515,-0.3919 T2.5681,1.0306 2.9891,5.1624 3.2386,9.3223 3.522,12.4644 4.9784,12.6079 7.0663,8.9017 8.3334,4.8272 8.8739,1.8961 9.017,0.8815 A1.9109,1.9109 0 0 1 12.8171,1.2881 T12.7447,2.2891 12.5582,4.885 11.7551,8.5613 10.4617,12.2621 8.8864,15.1401 6.6087,17.4359 2.8359,17.9131 -0.5243,15.1064 -1.4522,10.4794 -1.6624,5.661 -2.0951,1.8074 -2.3515,0.3919 A2.3839,2.3839 0 0 1 2.3515,-0.3919 ZM12.8272,1.0305 T12.8579,1.7114 13.3318,4.2978 14.1903,8.3351 15.2286,12.4619 16.4304,15.1279 17.0092,15.7989 A2.3813,2.3813 0 0 1 13.1333,18.5666 T12.1945,17.112 10.7175,13.4978 9.9124,9.0042 9.3347,4.6027 9.0155,1.8371 9.007,1.1391 A1.9109,1.9109 0 0 1 12.8272,1.0305 ZM12.944,16.1124 T13.5386,15.083 14.5741,13.1188 15.015,12.184 A2.1461,2.1461 0 0 1 18.985,13.816 T18.641,14.7906 17.7478,17.0092 17.1985,18.253 A2.3813,2.3813 0 0 1 12.944,16.1124 Z" stroke-linecap="round" fill="#ffc034"/></g></g><g transform="matrix(1, 0, 0, 1, 538.5, 624)" opacity="1"><g transform="scale(1)"><path d="M1.3771,-1.7214 T2.5513,-0.7606 4.7249,1.2987 6.5604,3.7944 8.0987,6.9211 9.6283,10.6425 11.2122,14.9618 12.6333,19.6901 13.9126,24.5337 14.8973,29.5757 15.4641,34.2383 15.7584,38.1182 15.6493,41.6168 14.9736,44.6531 13.1577,47.2498 10.756,49.2517 9.7006,50.0108 A2.6335,2.6335 0 0 1 6.2994,45.9892 T7.6533,44.8148 9.399,41.9145 9.7291,38.47 9.5634,34.8 9.2574,30.5216 8.5858,25.778 7.6199,21.0285 6.5756,16.5289 5.2765,12.3131 4.028,8.8145 2.2675,5.4743 -0.1863,2.6526 -1.3771,1.7214 A2.2045,2.2045 0 0 1 1.3771,-1.7214 Z" stroke-linecap="round" fill="#ffc034"/></g></g><g transform="matrix(1, 0, 0, 1, 564.5, 646)" opacity="1"><g transform="scale(1)"><path d="M1.0304,-1.7174 T2.2313,-1.038 4.9134,0.4587 7.9766,1.2678 10.5579,1.0911 11.5573,0.9226 A2.124,2.124 0 0 1 12.4427,5.0774 T10.2319,5.5799 6.2766,5.6864 2.915,4.2435 0.1337,2.457 -1.0304,1.7174 A2.0028,2.0028 0 0 1 1.0304,-1.7174 Z" stroke-linecap="round" fill="#ffc034"/></g></g><g transform="matrix(1, 0, 0, 1, 565.5, 655)" opacity="1"><g transform="scale(1)"><path d="M1.6369,-1.6369 T2.3373,-0.9589 4.7441,0.0135 7.9009,0.1825 10.418,-0.1547 11.4847,-0.3663 A2.4217,2.4217 0 0 1 12.5153,4.3663 T10.1794,4.8705 5.8243,5.1431 1.8027,4.0152 -0.9183,2.3779 -1.6369,1.6369 A2.3149,2.3149 0 0 1 1.6369,-1.6369 Z" stroke-linecap="round" fill="#ffc034"/></g></g><g transform="matrix(1, 0, 0, 1, 625.5, 640)" opacity="1"><g transform="scale(1)"><path d="M-2.229,0.5573 T-2.3945,-0.272 -3.8562,-0.3841 -5.7817,1.9601 -6.3463,5.1855 -4.7839,7.129 -2.4602,6.2332 -0.9105,4.1234 -0.1868,3.2544 A2.359,2.359 0 0 1 3.3395,6.3889 T2.9616,6.7593 1.3174,8.7424 -1.8207,11.2482 -5.5708,11.7849 -9.0652,9.8293 -10.9073,6.2489 -10.8435,2.4847 -9.5778,-1.0481 -7.2911,-3.7379 -4.0135,-5.1096 -0.2161,-4.112 1.9215,-1.62 2.229,-0.5573 A2.2976,2.2976 0 0 1 -2.229,0.5573 ZM2.4916,2.6474 T2.5916,2.6901 2.6915,2.7328 A2.3579,2.3579 0 0 1 0.862,7.0792 T0.7616,7.0376 0.6612,6.9959 A2.359,2.359 0 0 1 2.4916,2.6474 ZM-0.2782,3.7499 T0.1152,3.0702 1.275,0.4408 2.8559,-4.4419 4.1612,-9.3117 5.1603,-13.0122 5.9037,-16.2637 6.6095,-20.5496 7.3237,-25.2614 7.3343,-27.5671 7.1014,-27.9595 A2.2508,2.2508 0 0 1 11.3479,-29.4534 T11.6995,-28.1847 11.7978,-24.6439 11.1249,-19.6965 10.4213,-15.2653 9.6613,-11.8112 8.7052,-8.1731 7.7292,-4.2607 6.3893,-0.231 4.9293,3.4967 4.0725,5.6145 3.8318,6.0621 A2.3579,2.3579 0 0 1 -0.2782,3.7499 ZM10.898,-27.2011 T10.6402,-27.0008 9.9793,-24.7212 9.4906,-20.8533 9.1379,-17.6519 8.7272,-13.5439 8.5759,-9.2263 8.7985,-5.4615 9.4025,-1.7546 10.6055,1.698 12.441,4.7482 13.4472,5.9103 A2.5419,2.5419 0 0 1 10.5528,10.0897 T9.8607,9.6591 7.842,7.4832 5.5772,3.3406 4.3014,-0.7443 3.782,-5.0749 3.6679,-9.3814 4.0074,-14.1259 4.5804,-19.2532 5.1802,-23.4198 5.8882,-27.093 6.9246,-29.4288 7.5514,-30.2118 A2.2508,2.2508 0 0 1 10.898,-27.2011 Z" stroke-linecap="round" fill="#ffc034"/></g></g><g transform="matrix(1, 0, 0, 1, 658.5, 629)" opacity="1"><g transform="scale(1)"><path d="M1.3324,2.2049 T0.483,2.6757 -1.9102,3.4715 -1.8102,4.761 1.3113,7.2572 3.4688,10.4628 4.0056,13.7022 3.1062,16.5409 0.7679,19.3146 -2.37,21.2939 -6.2386,21.0976 -9.3447,18.6043 -10.1384,16.7859 A2.2782,2.2782 0 0 1 -5.8616,15.2141 T-4.8494,15.9194 -2.5081,15.4306 -1.6108,12.5327 -3.5679,9.8948 -6.8139,7.8249 -8.5313,4.5781 -6.9412,0.7677 -3.6892,-1.3169 -1.6783,-1.9534 -1.3324,-2.2049 A2.5762,2.5762 0 0 1 1.3324,2.2049 Z" stroke-linecap="round" fill="#ffc034"/></g></g><g transform="matrix(1, 0, 0, 1, 668.5, 639)" opacity="1"><g transform="scale(1)"><path d="M1.3867,-0.9245 T2.3234,0.5047 3.8504,3.2903 4.5885,7.007 4.7364,9.3671 A1.7747,1.7747 0 0 1 1.2636,8.6329 T1.5022,8.0331 1.1323,5.5878 -0.4314,2.3333 -1.3867,0.9245 A1.6666,1.6666 0 0 1 1.3867,-0.9245 ZM1.2305,8.8633 T1.3071,8.3854 0.9062,6.8029 0.4286,5.6983 A1.7195,1.7195 0 0 1 3.5714,4.3017 T4.209,5.7066 4.808,8.1241 4.7695,9.1367 A1.7747,1.7747 0 0 1 1.2305,8.8633 Z" stroke-linecap="round" fill="#ffc034"/></g></g><g transform="matrix(1, 0, 0, 1, 670.5, 614)" opacity="1"><g transform="scale(1)"><path d="M0.693,-1.386 T1.6705,-0.9496 3.8223,1.1489 5.2931,4.7772 5.5897,6.7432 A1.6103,1.6103 0 0 1 2.4103,7.2568 T2.2388,6.3045 1.6016,3.8788 0.2215,1.8956 -0.693,1.386 A1.5495,1.5495 0 0 1 0.693,-1.386 Z" stroke-linecap="round" fill="#ffc034"/></g></g><g transform="matrix(1, 0, 0, 1, 680.5, 635)" opacity="1"><g transform="scale(1)"><path d="M1.9331,-0.9666 T2.3823,-0.0031 3.378,3.0742 3.9245,5.188 A2.1291,2.1291 0 0 1 -0.233,6.108 T-0.5862,4.4658 -1.4363,1.8951 -1.9331,0.9666 A2.1613,2.1613 0 0 1 1.9331,-0.9666 ZM-0.0576,4.694 T0.2853,4.0001 1.8316,1.3266 4.5389,-2.0817 7.4247,-3.9473 10.8199,-3.3469 13.4632,-0.8228 14.488,3.0464 15.0036,6.5931 15.1243,7.7577 A2.1381,2.1381 0 0 1 10.8757,8.2423 T10.6157,6.1368 9.8473,1.8708 7.9805,0.8153 5.6764,3.2918 4.2399,5.6327 3.7491,6.602 A2.1291,2.1291 0 0 1 -0.0576,4.694 Z" stroke-linecap="round" fill="#ffc034"/></g></g><g transform="matrix(1, 0, 0, 1, 709.5, 610)" opacity="1"><g transform="scale(1)"><path d="M2.2426,0 T2.242,0.95 1.9909,3.3211 1.1473,6.9038 0.051,11.2902 -0.7049,15.1088 -1.2992,19.2194 -1.8056,23.7188 -2.1017,28.564 -1.2627,32.8565 -0.2924,34.2863 A2.4192,2.4192 0 0 1 -3.7076,37.7137 T-4.3897,37.1018 -5.9849,35.3801 -7.2054,32.7705 -7.3136,28.2279 -6.8685,23.0777 -6.185,18.4191 -5.4187,14.1273 -4.4905,10.0801 -3.0661,4.8286 -2.242,0.942 -2.2426,0 A2.2426,2.2426 0 0 1 2.2426,0 Z" stroke-linecap="round" fill="#ffc034"/></g></g><g transform="matrix(1, 0, 0, 1, 721.5, 625)" opacity="1"><g transform="scale(1)"><path d="M1.7196,-0.2457 T1.9972,1.404 2.5182,5.4071 2.8265,9.4531 3.8475,9.9465 5.355,7.3677 6.0715,4.4548 6.3074,1.4309 6.3781,-0.0596 A1.623,1.623 0 0 1 9.6219,0.0596 T9.5819,1.5814 9.4195,5.0081 8.8122,8.4082 7.6959,11.4141 5.7655,14.0451 2.5767,14.7395 -0.1429,12.9162 -1.0135,9.7723 -1.1916,5.7969 -1.5242,1.907 -1.7196,0.2457 A1.7371,1.7371 0 0 1 1.7196,-0.2457 ZM9.6228,0.028 T9.5969,0.7818 10.2363,3.1165 11.7491,6.5042 13.5328,9.5165 15.1327,11.0848 15.7966,11.4476 A1.7448,1.7448 0 0 1 14.2034,14.5524 T12.5841,13.5822 10.1911,11.3303 8.58,8.0194 7.0551,4.0098 6.3724,1.0008 6.3772,-0.028 A1.623,1.623 0 0 1 9.6228,0.028 Z" stroke-linecap="round" fill="#ffc034"/></g></g><g transform="matrix(1, 0, 0, 1, 736.5, 612)" opacity="1"><g transform="scale(1)"><path d="M1.4867,-1.4867 T2.1728,-0.7632 4.0793,1.0919 6.4494,4.1027 9.2601,8.7305 11.7751,14.3879 12.7939,19.1318 12.7963,22.5899 11.9931,25.7559 10.4894,28.585 8.5541,30.8886 5.9379,32.5455 2.5919,33.3843 -0.9642,33.7591 -2.7181,33.9344 A1.9548,1.9548 0 0 1 -3.2819,30.0656 T-1.5509,29.733 2.3067,28.9185 5.7938,26.8823 7.8154,23.3024 8.3881,19.6314 7.7603,15.75 6.4118,11.9777 4.8516,9.2056 3.1566,6.3801 1.0958,3.834 -0.7538,2.1822 -1.4867,1.4867 A2.1024,2.1024 0 0 1 1.4867,-1.4867 Z" stroke-linecap="round" fill="#ffc034"/></g></g><g transform="matrix(1, 0, 0, 1, 759.5, 654)" opacity="1"><g transform="scale(1)"><path d="M0,2.7311 T-1.6555,2.7098 -4.8929,2.6806 -8.8186,2.6787 -13.5118,2.7101 -17.3379,2.4901 -20.4629,2.096 -23.7596,1.9155 -27.3352,1.8865 -31.1978,2.5013 -35.6416,3.6837 -39.5317,4.6671 -44.5588,6.0882 -50.8688,7.6121 -56.4878,8.4182 -62.2805,9.0831 -67.6718,9.6727 -74.4561,10.0032 -82.7817,10.1792 -90.7927,10.0299 -98.5611,9.7127 -105.1632,9.5409 -111.7128,9.4228 -118.7026,9.3249 -124.6272,9.4604 -129.8686,9.7126 -134.1634,9.8144 -137.4149,10.0328 -140.8852,10.5512 -144.0791,11.1802 -145.2668,11.48 A2.5861,2.5861 0 0 1 -146.7332,6.52 T-145.5735,6.1258 -142.1105,5.1534 -137.9891,4.2247 -134.4228,3.7767 -130.2684,3.5114 -124.8623,3.0672 -118.661,2.7787 -111.6165,2.7736 -104.9987,2.8318 -98.2831,2.9945 -90.6536,3.3121 -82.9094,3.4697 -74.8023,3.3306 -68.3554,3.0632 -63.0006,2.5182 -57.3778,1.9276 -52.1056,1.249 -47.3942,0.4182 -43.9301,-0.4215 -41.0245,-1.2841 -37.2975,-2.07 -33.4515,-2.8967 -29.7485,-3.5943 -25.727,-3.8013 -21.699,-3.6145 -17.7472,-3.1077 -13.5022,-2.7101 -8.8186,-2.6787 -4.8929,-2.6806 -1.6555,-2.7098 0,-2.7311 A2.7311,2.7311 0 0 1 0,2.7311 Z" stroke-linecap="round" fill="#ffc034"/></g></g><g transform="matrix(1, 0, 0, 1, 636.5, 710)" opacity="1"><g transform="scale(1)"><path d="M-2.2058,-0.8272 T-1.5042,-2.7213 -0.3031,-6.8912 -0.0371,-10.613 -1.4636,-13.2434 -2.6565,-14.4278 A2.4559,2.4559 0 0 1 -1.1931,-19.1165 T0.1534,-18.6116 2.7239,-16.4455 4.3254,-12.9301 4.5942,-8.6052 4.0631,-4.5436 2.9232,-1.0627 2.2058,0.8272 A2.3558,2.3558 0 0 1 -2.2058,-0.8272 ZM-0.33,-14.9045 T-0.8261,-14.4917 -2.2122,-12.4706 -3.2929,-8.5416 -3.3543,-4.5416 -1.8511,-1.7044 1.6518,-0.6461 5.4082,-2.6378 7.9621,-6.0381 9.8636,-10.2165 11.0687,-14.7344 11.4554,-18.3462 11.6991,-21.7429 11.6581,-25.543 11.5297,-27.7105 A1.9993,1.9993 0 0 1 15.4761,-28.3538 T15.6802,-25.7739 15.8239,-21.4921 15.6395,-17.9194 14.7457,-12.4394 13.3912,-7.0341 11.8012,-3.5081 9.6752,-0.2755 6.7797,2.541 3.5545,4.1594 0.2474,4.3526 -3.6432,2.7564 -6.7081,-0.1911 -7.9654,-4.0519 -7.9607,-9.2133 -7.3081,-13.4426 -5.6886,-16.3487 -4.0051,-18.2143 -3.5196,-18.6397 A2.4559,2.4559 0 0 1 -0.33,-14.9045 ZM13.6304,-26.0369 T13.5113,-26.0312 13.3923,-26.0255 A1.9955,1.9955 0 0 1 13.1378,-30.0084 T13.2566,-30.0179 13.3754,-30.0273 A1.9993,1.9993 0 0 1 13.6304,-26.0369 ZM15.2359,-27.7045 T15.1425,-27.1673 15.0259,-24.9891 15.3985,-20.685 16.5629,-14.866 17.7856,-10.3371 18.7299,-6.9931 20.2429,-4.3989 21.2657,-3.7756 A2.1805,2.1805 0 0 1 18.7343,-0.2244 T16.9549,-1.5986 14.477,-5.299 13.3433,-9.209 12.568,-12.7005 11.8499,-17.3255 11.2551,-21.7085 11.0682,-25.1815 11.1961,-27.6591 11.2941,-28.3294 A1.9955,1.9955 0 0 1 15.2359,-27.7045 Z" stroke-linecap="round" fill="#ffc034"/></g></g><g transform="matrix(1, 0, 0, 1, 669.5, 692)" opacity="1"><g transform="scale(1)"><path d="M2.3767,-0.3961 T2.6015,1.0249 3.0392,4.5338 3.8851,8.5699 6.2309,9.7844 8.6517,7.2504 9.6215,3.9508 9.9956,1.6274 10.1078,0.8035 A1.9024,1.9024 0 0 1 13.8922,1.1965 T13.7818,2.8191 13.2688,6.583 11.7491,10.99 8.3854,14.8683 4.6983,16.303 1.5246,14.0532 -0.8768,9.4699 -1.7126,5.0943 -2.1285,1.8131 -2.3767,0.3961 A2.4095,2.4095 0 0 1 2.3767,-0.3961 ZM13.9024,1.0146 T13.8928,1.8607 14.4494,4.5436 17.0049,7.8037 18.9941,9.2271 A2.0326,2.0326 0 0 1 17.0059,12.7729 T15.8408,12.1174 13.2904,10.4442 11.2731,7.8332 10.3657,4.493 10.094,1.8658 10.0976,0.9854 A1.9024,1.9024 0 0 1 13.9024,1.0146 Z" stroke-linecap="round" fill="#ffc034"/></g></g><g transform="matrix(1, 0, 0, 1, 792.5, 648)" opacity="1"><g transform="scale(1)"><path d="M 0 0 m -2.633441917710341, 0 a 2.633441917710341,2.633441917710341 0 1,1 5.266883835420682,0 a 2.633441917710341,2.633441917710341 0 1,1 -5.266883835420682,0" stroke-linecap="round" fill="#ffc034"/></g></g><g transform="matrix(1, 0, 0, 1, 845.5, 618)" opacity="1"><g transform="scale(1)"><path d="M-1.4649,1.9533 T-2.4101,1.2478 -5.1939,0.8601 -7.7385,2.6224 -8.9652,5.4129 -9.402,8.9636 -7.8359,11.6571 -3.7432,10.0442 0.1068,6.3239 2.2243,3.0043 3.8363,-0.5244 5.2095,-4.8971 6.1955,-9.2678 6.4951,-13.3366 6.4284,-17.5672 5.9002,-22.0858 5.3914,-24.6166 A1.6536,1.6536 0 0 1 8.6086,-25.3834 T8.9015,-24.1384 9.469,-21.2558 9.7927,-17.6445 9.9245,-13.0899 9.7032,-8.5662 8.8031,-3.8125 7.495,1.0508 5.8142,5.1748 3.4787,9.1962 0.3784,12.9321 -2.9937,15.6808 -7.0172,16.5252 -11.7608,14.3373 -14.4524,10.3227 -14.4429,6.6845 -13.5384,3.5317 -12.1835,0.4339 -9.4542,-2.6747 -5.8512,-4.5247 -2.3069,-4.1426 0.5181,-2.6668 1.4649,-1.9533 A2.4416,2.4416 0 0 1 -1.4649,1.9533 ZM8.6457,-25.1613 T8.6734,-23.9857 8.7205,-21.0257 8.7604,-17.2963 8.8207,-12.6676 9.1264,-7.7184 9.7735,-3.3278 10.565,0.5889 12.2958,4.728 13.6161,7.0751 A1.862,1.862 0 0 1 10.3839,8.9249 T9.5813,7.5815 7.9523,4.775 6.6843,1.3758 5.9046,-2.817 5.3651,-7.5317 5.2145,-12.6797 5.3064,-17.3382 5.4808,-21.6414 5.4841,-24.4074 5.3543,-24.8387 A1.6536,1.6536 0 0 1 8.6457,-25.1613 Z" stroke-linecap="round" fill="#ffc034"/></g></g><g transform="matrix(1, 0, 0, 1, 866.5, 612)" opacity="1"><g transform="scale(1)"><path d="M1.8936,0 T1.8891,1.1825 1.9064,4.5063 2.3098,8.5652 3.1256,11.0865 3.5598,11.6903 A2.0126,2.0126 0 0 1 0.6764,14.499 T-0.2852,12.7485 -1.5875,8.8339 -1.9064,4.5174 -1.8891,1.1825 -1.8936,0 A1.8936,1.8936 0 0 1 1.8936,0 ZM2.0691,11.0826 T2.945,11.0669 5.4394,9.429 7.7515,5.9557 8.9382,2.3566 9.4313,0.6086 A1.6168,1.6168 0 0 1 12.5687,1.3914 T12.1468,3.3101 10.9367,7.6205 8.4691,11.9246 5.4387,14.4428 3.1274,15.0777 2.1672,15.1067 A2.0126,2.0126 0 0 1 2.0691,11.0826 ZM12.6134,1.1038 T12.5755,1.5378 12.5732,3.7814 13.2049,7.372 14.5993,10.7251 16.622,12.9006 17.8462,13.5039 A1.7188,1.7188 0 0 1 16.1538,16.4961 T14.3483,15.3859 11.5608,12.2889 9.9653,7.9685 9.3366,3.929 9.354,1.5597 9.3866,0.8962 A1.6168,1.6168 0 0 1 12.6134,1.1038 Z" stroke-linecap="round" fill="#ffc034"/></g></g><g transform="matrix(1, 0, 0, 1, 897.5, 638)" opacity="1"><g transform="scale(1)"><path d="M0.2677,2.4091 T-1.8591,2.661 -6.2305,3.2993 -11.3488,4.1538 -17.639,5.1182 -24.7452,6.1228 -32.0269,7.1071 -39.2571,7.8167 -45.988,8.1476 -51.6605,8.204 -56.5483,8.0874 -61.4123,7.9697 -63.9683,7.9275 A1.9278,1.9278 0 0 1 -64.0317,4.0725 T-61.4786,3.9462 -56.6479,3.6689 -51.8389,3.3336 -46.2918,2.9751 -39.8109,2.5184 -32.7415,1.7337 -25.4548,0.7801 -18.3799,-0.0976 -12.1218,-0.9096 -6.892,-1.631 -2.3979,-2.188 -0.2677,-2.4091 A2.424,2.424 0 0 1 0.2677,2.4091 Z" stroke-linecap="round" fill="#ffc034"/></g></g><g transform="matrix(1, 0, 0, 1, 840.5, 682)" opacity="1"><g transform="scale(1)"><path d="M-1.6944,-1.3555 T-0.7522,-2.5387 0.474,-5.5468 -0.6773,-6.5227 -3.0186,-3.572 -4.2207,0.2523 -3.2463,3.3981 -0.3329,4.8388 2.927,3.8733 5.8625,1.4621 8.0482,-1.5305 9.6405,-4.8414 10.7427,-8.3408 11.3463,-11.9606 11.6984,-15.5264 11.5837,-19.9392 10.8642,-23.6964 10.3847,-24.74 A1.8358,1.8358 0 0 1 13.3408,-26.9176 T13.869,-26.1209 14.8388,-22.73 15.4804,-18.5645 15.5833,-15.2003 15.2907,-11.3405 14.6709,-7.1529 13.4517,-3.0177 11.5366,0.9783 8.862,4.6702 6.0929,7.28 3.2126,8.755 0.0425,9.3366 -3.9436,7.9373 -7.6592,4.0118 -8.4214,-0.8857 -6.9895,-5.5209 -4.1936,-9.6621 -0.2934,-11.6255 3.1558,-10.6009 4.846,-7.6851 4.3726,-3.441 2.6442,0.1737 1.6944,1.3555 A2.1699,2.1699 0 0 1 -1.6944,-1.3555 ZM13.523,-25.0456 T13.3178,-24.6185 13.0216,-22.0261 12.9493,-18.2487 13.6186,-13.616 14.7023,-9.2334 15.8635,-6.1281 18.5022,-2.4115 20.4125,-0.4382 A2.0158,2.0158 0 0 1 17.5875,2.4382 T16.4141,1.3575 14.0078,-0.9089 11.8738,-4.3812 10.5568,-8.2403 9.8334,-11.7273 9.3143,-15.1522 9.1936,-19.2019 9.5408,-23.7386 9.9996,-26.1741 10.2025,-26.6121 A1.8358,1.8358 0 0 1 13.523,-25.0456 Z" stroke-linecap="round" fill="#ffc034"/></g></g><g transform="matrix(1, 0, 0, 1, 880.5, 667)" opacity="1"><g transform="scale(1)"><path d="M2.0912,0.2987 T1.8852,1.9614 0.6166,6.5572 -1.3128,11.1035 -3.4819,14.2006 -6.3249,16.708 -9.3603,18.6939 -10.8551,19.6563 A2.0134,2.0134 0 0 1 -13.1449,16.3437 T-10.6334,14.4953 -7.1382,11.5869 -5.3762,9.108 -3.6115,5.3435 -2.3582,1.3496 -2.0912,-0.2987 A2.1124,2.1124 0 0 1 2.0912,0.2987 Z" stroke-linecap="round" fill="#ffc034"/></g></g><g transform="matrix(1, 0, 0, 1, 870.5, 672)" opacity="1"><g transform="scale(1)"><path d="M1.6676,-1.1118 T2.5961,0.3186 4.4564,2.8962 6.3551,5.107 8.4744,7.1104 11.2825,9.0229 13.9817,10.5919 15.0252,11.1883 A2.0817,2.0817 0 0 1 12.9748,14.8117 T11.9263,14.2243 8.8877,12.4283 5.593,10.0369 3.285,7.685 1.2707,5.2215 -0.7041,2.5194 -1.6676,1.1118 A2.0042,2.0042 0 0 1 1.6676,-1.1118 Z" stroke-linecap="round" fill="#ffc034"/></g></g><g transform="matrix(1, 0, 0, 1, 824.5, 680)" opacity="1"><g transform="scale(1)"><path d="M2.0048,-0.6683 T2.4594,0.7571 3.3276,4.3516 3.5953,8.5164 3.3263,12.4657 3.1815,16.6753 3.1615,20.6384 3.5101,23.8292 5.9798,25.2804 9.4312,24.685 12.8488,23.5102 17.0881,22.1323 21.3991,20.704 25.915,19.4411 30.5564,18.5093 34.7558,18.012 38.8837,17.7589 42.7213,17.6275 46.2502,17.3333 51.1421,16.4416 55.6953,15.4862 58.666,14.8021 61.7051,14.1978 65.4736,13.7935 69.3021,13.5804 72.8749,13.5324 76.3425,13.1869 79.5533,12.3936 81.8413,10.1487 82.5161,6.8573 82.5146,3.3819 82.492,-1.2907 82.4633,-6.8287 82.4582,-12.3492 82.4787,-17.3871 82.5235,-21.4611 82.5903,-24.5886 82.6234,-26.0004 A2.3766,2.3766 0 0 1 87.3766,-25.9996 T87.4092,-24.5879 87.475,-21.4603 87.5184,-17.3858 87.5364,-12.347 87.5264,-6.8244 87.4884,-1.2807 87.4482,3.4068 87.4134,6.9219 87.3243,10.4151 86.7049,13.8208 83.974,16.0455 80.2683,17.2692 77.3341,18.0825 74.1953,18.4824 70.927,18.5386 67.6856,18.6523 63.6649,19.0172 58.4375,19.9635 52.164,21.352 46.6397,22.344 42.8894,22.6577 39.1974,22.7823 35.3204,23.0151 31.5103,23.4396 27.2364,24.257 22.9128,25.4158 18.5284,26.7876 14.3457,28.0304 10.7576,29.1359 6.3466,29.8911 2.2726,29.5072 0.1807,27.2742 -0.8293,23.1897 -1.0811,18.8909 -0.9295,14.3258 -0.5722,9.3743 -0.6744,5.2765 -1.5134,2.0809 -2.0048,0.6683 A2.1133,2.1133 0 0 1 2.0048,-0.6683 Z" stroke-linecap="round" fill="#e599f7"/></g></g><g transform="matrix(1, 0, 0, 1, 317.5, 843)" opacity="1"><g transform="scale(1)"><path d="M1.7317,-1.7317 T2.1828,-1.3156 4.2821,-1.4454 8.0163,-2.3373 12.31,-3.0594 14.5177,-3.4355 A2.4828,2.4828 0 0 1 15.4823,1.4355 T13.2979,1.9292 7.9745,3.1637 2.0469,3.348 -1.2368,2.2616 -1.7317,1.7317 A2.449,2.449 0 0 1 1.7317,-1.7317 Z" stroke-linecap="round" fill="#ffc034"/></g></g><g transform="matrix(1, 0, 0, 1, 319.5, 824)" opacity="1"><g transform="scale(1)"><path d="M0.9268,-2.7476 T1.738,-2.5077 4.7147,-2.8473 8.5525,-3.6532 12.9364,-4.4562 17.4778,-5.3874 19.3077,-5.7418 A2.8278,2.8278 0 0 1 20.6923,-0.2582 T18.9136,0.2986 15.5484,1.3728 11.0835,2.3861 6.5522,3.1772 3.3163,3.5923 0.4032,3.2299 -0.9268,2.7476 A2.8997,2.8997 0 0 1 0.9268,-2.7476 Z" stroke-linecap="round" fill="#ffc034"/></g></g><g transform="matrix(1, 0, 0, 1, 406.5, 819)" opacity="1"><g transform="scale(1)"><path d="M1.3955,2.7911 T0.1962,3.3675 -2.4557,5.1972 -5.4161,8.1107 -7.6161,11.2792 -6.3668,13.6606 -2.4192,14.2119 2.2637,12.8298 4.9404,11.7696 A2.4693,2.4693 0 0 1 7.0596,16.2304 T5.6096,17.0354 2.6129,18.6704 -0.3451,19.9097 -3.4966,20.4983 -6.7773,20.4764 -9.9344,19.613 -12.59,17.8627 -13.9233,13.7955 -12.9934,8.4044 -9.8739,3.9378 -5.8784,0.1651 -2.5867,-2.1722 -1.3955,-2.7911 A3.1205,3.1205 0 0 1 1.3955,2.7911 Z" stroke-linecap="round" fill="#ffc034"/></g></g><g transform="matrix(1, 0, 0, 1, 433.5, 819)" opacity="1"><g transform="scale(1)"><path d="M0.9412,2.3784 T-0.0228,2.7319 -2.2229,4.3936 -4.1347,7.5046 -4.7909,10.4401 -4.7715,11.5731 A2.5953,2.5953 0 0 1 -9.8923,12.4218 T-10.0322,11.0811 -9.5691,7.4906 -8.2241,3.8672 -5.6382,0.6502 -2.3678,-1.7859 -0.9412,-2.3784 A2.5579,2.5579 0 0 1 0.9412,2.3784 ZM-5.9949,9.773 T-5.2353,10.2371 -2.63,10.474 0.7541,9.6517 3.7752,8.3085 6.7708,6.0426 8.3957,3.1006 6.9827,1.3578 5.4578,1.0392 A2.1101,2.1101 0 0 1 6.5422,-3.0392 T8.5578,-2.5414 11.9993,0.0459 13.3719,3.598 12.7198,6.3831 11.1665,8.8264 8.9021,11.0141 5.8662,12.9672 2.2827,14.5642 -1.4924,15.6343 -5.2229,15.5908 -7.8525,14.705 -8.6689,14.2219 A2.5953,2.5953 0 0 1 -5.9949,9.773 Z" stroke-linecap="round" fill="#ffc034"/></g></g><g transform="matrix(1, 0, 0, 1, 464.5, 812)" opacity="1"><g transform="scale(1)"><path d="M2.2245,1.1122 T1.7256,2.065 0.035,4.2915 0.1712,6.1921 3.2718,7.7668 6.5764,10.0525 8.4004,13.4645 6.4405,17.5391 1.658,20.5501 -3.4497,21.7764 -7.4384,22.0316 -8.8501,22.0709 A2.0764,2.0764 0 0 1 -9.1499,17.9291 T-6.5945,17.6205 -2.2722,16.8764 1.1189,14.749 0.8338,12.005 -2.8914,9.5507 -5.1655,6.1338 -4.3714,2.4425 -2.6716,-0.173 -2.2245,-1.1122 A2.487,2.487 0 0 1 2.2245,1.1122 Z" stroke-linecap="round" fill="#ffc034"/></g></g><g transform="matrix(1, 0, 0, 1, 487.5, 794)" opacity="1"><g transform="scale(1)"><path d="M2.4977,-0.2604 T2.5966,1.2711 2.059,4.2329 0.6342,7.0338 -0.6844,9.8578 -2.0201,13.1806 -3.4229,16.8508 -4.5623,20.5478 -5.3566,24.0297 -5.7396,27.1321 -5.3022,30.4911 -3.3909,33.5325 -0.0787,34.6892 1.8904,34.6465 A2.356,2.356 0 0 1 2.1096,39.3535 T0.8125,39.4916 -3.4583,39.1304 -8.0802,36.784 -10.4162,33.3964 -11.2546,29.9858 -11.211,26.3853 -10.6521,22.7719 -9.6591,18.8955 -8.3046,14.9125 -6.7703,11.19 -5.2253,7.6652 -3.3427,3.9257 -2.3473,1.1194 -2.4977,0.2604 A2.5112,2.5112 0 0 1 2.4977,-0.2604 Z" stroke-linecap="round" fill="#ffc034"/></g></g><g transform="matrix(1, 0, 0, 1, 495.5, 811)" opacity="1"><g transform="scale(1)"><path d="M2.2082,-0.8833 T2.6656,0.3079 3.5685,3.6569 4.3267,7.6111 5.6018,11.2058 7.9965,13.0139 10.5811,11.2455 12.1579,7.5182 12.7833,3.2133 12.6681,-0.226 12.3518,-1.3093 A1.8214,1.8214 0 0 1 15.2294,-3.5429 T16.0257,-1.2793 16.7715,3.532 16.2391,8.7831 15.0935,12.8212 12.4268,15.8925 7.9042,17.5608 3.6307,16.1724 1.0105,12.8583 -0.2278,8.7106 -0.9153,4.8939 -1.7196,2.0571 -2.2082,0.8833 A2.3783,2.3783 0 0 1 2.2082,-0.8833 ZM15.2607,-1.351 T15.1032,-1.2115 15.1673,0.7314 16.1845,4.2671 18.1024,7.7388 20.4424,10.6321 23.4208,12.9707 25.1819,14.1556 A2.1906,2.1906 0 0 1 22.8181,17.8444 T21.8092,17.2294 18.8323,15.1832 15.4399,11.74 13.1698,7.6641 11.754,3.3835 11.3388,-0.5258 11.907,-2.86 12.3204,-3.5013 A1.8214,1.8214 0 0 1 15.2607,-1.351 Z" stroke-linecap="round" fill="#ffc034"/></g></g><g transform="matrix(1, 0, 0, 1, 516.5, 792)" opacity="1"><g transform="scale(1)"><path d="M0.6687,-2.006 T2.08,-1.5059 5.9038,0.2993 9.5437,2.5189 12.058,4.3194 14.678,6.5028 17.2529,9.4877 19.588,12.695 21.6187,16.138 23.0982,20.1614 23.9231,24.3253 24.3518,27.9418 24.0878,31.8508 22.908,36.0176 21.1913,39.2856 19.2411,41.9803 15.8146,44.8079 12.1513,46.8208 10.9108,47.2433 A2.4211,2.4211 0 0 1 9.0892,42.7567 T10.8681,42.0159 14.0658,39.4382 16.8221,35.3107 18.5744,31.4389 18.9048,28.4278 18.6663,25.1957 18.2252,21.7494 17.3023,18.5124 15.6719,15.3589 13.7527,12.3319 11.8449,9.7696 8.5359,6.91 4.1973,4.0223 0.758,2.4519 -0.6687,2.006 A2.1145,2.1145 0 0 1 0.6687,-2.006 Z" stroke-linecap="round" fill="#ffc034"/></g></g><g transform="matrix(1, 0, 0, 1, 565.5, 809)" opacity="1"><g transform="scale(1)"><path d="M-1.9484,0 T-1.9494,-0.2365 -1.9504,-0.473 A1.9504,1.9504 0 0 1 1.9504,-0.473 T1.9494,-0.2365 1.9484,0 A1.9484,1.9484 0 0 1 -1.9484,0 ZM-0.5918,-2.3314 T0.0024,-2.5325 0.5966,-2.7336 A1.973,1.973 0 0 1 1.794,1.0264 T1.1929,1.2059 0.5918,1.3854 A1.9504,1.9504 0 0 1 -0.5918,-2.3314 ZM2.4755,-2.3549 T3.1935,-1.7698 3.9116,-1.1847 A2.0144,2.0144 0 0 1 1.2974,1.8808 T0.6062,1.2643 -0.0849,0.6477 A1.973,1.973 0 0 1 2.4755,-2.3549 ZM3.5306,2.137 T2.8646,2.4577 0.6653,2.8717 -0.868,2.965 A1.9694,1.9694 0 0 1 -1.132,-0.965 T0.0296,-1.0528 1.4348,-1.2907 1.6784,-1.4409 A2.0144,2.0144 0 0 1 3.5306,2.137 Z" stroke-linecap="round" fill="#ffc034"/></g></g><g transform="matrix(1, 0, 0, 1, 595.5, 799)" opacity="1"><g transform="scale(1)"><path d="M-1.0248,2.0495 T-1.4979,1.8133 -1.971,1.5771 A2.2921,2.2921 0 0 1 0.079,-2.5231 T0.5519,-2.2863 1.0248,-2.0495 A2.2915,2.2915 0 0 1 -1.0248,2.0495 ZM-3.2261,-0.2394 T-3.2456,-0.3633 -3.2651,-0.4873 A2.3056,2.3056 0 0 1 1.322,-0.9573 T1.3281,-0.832 1.3341,-0.7066 A2.2921,2.2921 0 0 1 -3.2261,-0.2394 ZM-1.166,-3.0196 T0.0578,-3.1848 3.0813,-3.6685 7.4428,-4.2477 12.0274,-4.5079 15.7221,-4.8799 17.3942,-5.2523 A2.3323,2.3323 0 0 1 18.6058,-0.7477 T16.4029,-0.0778 12.2444,0.7025 8.1226,0.9485 3.7359,1.2941 0.3691,1.5396 -0.7771,1.5751 A2.3056,2.3056 0 0 1 -1.166,-3.0196 Z" stroke-linecap="round" fill="#e599f7"/></g></g><g transform="matrix(1, 0, 0, 1, 623.5, 779)" opacity="1"><g transform="scale(1)"><path d="M2.1524,-1.2915 T2.8519,-0.0962 4.2898,3.927 5.1689,8.4864 5.4552,13.4907 5.6428,18.4735 5.4653,23.5619 5.2459,26.9402 A2.7454,2.7454 0 0 1 -0.2018,26.2534 T0.0228,23.2427 0.259,18.5386 0.2491,13.694 0.1606,9.0257 -0.3099,5.5697 -1.4329,2.4612 -2.1524,1.2915 A2.5101,2.5101 0 0 1 2.1524,-1.2915 ZM3.2251,29.2506 T2.8602,29.3272 2.4952,29.4038 A2.7065,2.7065 0 0 1 1.109,24.1712 T1.464,24.0571 1.819,23.9429 A2.7454,2.7454 0 0 1 3.2251,29.2506 ZM-0.7259,27.7543 T-1.0214,26.7358 -1.3803,25.0725 -1.4436,24.4277 A2.4807,2.4807 0 0 1 3.4436,23.5723 T3.6031,24.2002 4.0463,25.3244 4.3301,25.8207 A2.7065,2.7065 0 0 1 -0.7259,27.7543 Z" stroke-linecap="round" fill="#e599f7"/></g></g><g transform="matrix(1, 0, 0, 1, 623.5, 774)" opacity="1"><g transform="scale(1)"><path d="M-1.2092,2.4183 T-1.8764,1.9508 -3.8414,3.5613 -6.3246,7.3456 -9.3776,10.6054 -11.2453,12.1588 A2.782,2.782 0 0 1 -14.7547,7.8412 T-13.8929,7.1347 -11.9696,5.3573 -9.4724,2.419 -6.0936,-1.244 -2.6954,-3.2075 -0.0156,-2.8968 1.2092,-2.4183 A2.7038,2.7038 0 0 1 -1.2092,2.4183 Z" stroke-linecap="round" fill="#e599f7"/></g></g><g transform="matrix(1, 0, 0, 1, 318.5, 900)" opacity="1"><g transform="scale(1)"><path d="M0.7974,-1.9936 T2.0066,-1.5886 4.7496,-0.9617 8.2826,-0.6771 11.7358,-0.5362 14.1025,-0.3927 15.0152,-0.3272 A2.3273,2.3273 0 0 1 14.9848,4.3272 T13.2401,4.4337 9.9834,4.507 7.0305,4.3141 3.5519,3.615 0.3584,2.5346 -0.7974,1.9936 A2.1471,2.1471 0 0 1 0.7974,-1.9936 Z" stroke-linecap="round" fill="#ffc034"/></g></g><g transform="matrix(1, 0, 0, 1, 318.5, 911)" opacity="1"><g transform="scale(1)"><path d="M0.9033,-1.8067 T1.873,-1.3923 4.4774,-0.7883 8.3459,-0.5141 12.8094,-0.2981 15.0392,-0.1666 A2.167,2.167 0 0 1 14.9608,4.1666 T12.6938,4.2168 7.9624,4.1401 3.2197,3.4416 0.019,2.3383 -0.9033,1.8067 A2.0199,2.0199 0 0 1 0.9033,-1.8067 Z" stroke-linecap="round" fill="#ffc034"/></g></g><g transform="matrix(1, 0, 0, 1, 393.5, 907)" opacity="1"><g transform="scale(1)"><path d="M0.6427,3.2135 T-0.5463,3.418 -3.3293,3.9795 -6.5275,5.3824 -8.9096,8.0649 -10.0209,11.3977 -8.6226,13.2692 -4.2059,13.3287 0.2254,12.6935 4.083,11.5112 6.194,10.848 A2.298,2.298 0 0 1 7.806,15.152 T5.7788,16.0387 1.784,17.7974 -2.3232,19.2274 -6.0669,19.7634 -9.4741,19.5234 -12.9131,18.5492 -15.5128,16.3991 -16.4395,12.2827 -15.9466,8.1624 -14.7017,5.2969 -11.7612,1.8789 -8.2797,-0.8773 -4.9722,-2.1799 -1.8187,-2.945 -0.6427,-3.2135 A3.2772,3.2772 0 0 1 0.6427,3.2135 Z" stroke-linecap="round" fill="#ffc034"/></g></g><g transform="matrix(1, 0, 0, 1, 420.5, 908)" opacity="1"><g transform="scale(1)"><path d="M-2.7193,-0.6798 T-2.4765,-1.6243 -2.2338,-2.5687 A2.7901,2.7901 0 0 1 3.1798,-1.2153 T2.9495,-0.2677 2.7193,0.6798 A2.8029,2.8029 0 0 1 -2.7193,-0.6798 ZM-1.2042,0.3378 T-1.5543,0.0779 -1.9043,-0.1819 A2.7957,2.7957 0 0 1 1.4568,-4.6503 T1.8035,-4.386 2.1502,-4.1218 A2.7901,2.7901 0 0 1 -1.2042,0.3378 ZM1.0466,0.0743 T0.3935,0.4153 -1.9042,1.8863 -4.7685,4.5296 -6.7581,7.7622 -7.4089,10.0122 -7.2899,10.5429 A2.8668,2.8668 0 0 1 -13.0109,10.9224 T-13.0269,9.4182 -11.9542,5.4408 -8.8919,0.686 -4.8662,-2.9222 -2.1541,-4.5776 -1.494,-4.9065 A2.7957,2.7957 0 0 1 1.0466,0.0743 ZM-8.4758,8.4058 T-7.794,8.927 -5.1,9.4634 -1.5943,9.2518 2.2209,7.6907 5.6667,5.415 7.4309,3.0037 7.0834,0.6714 6.0957,-0.1909 A2.0225,2.0225 0 0 1 7.9043,-3.8091 T8.6778,-3.4756 11.1074,-1.1986 12.2226,3.1062 10.8644,6.769 8.8546,9.1684 6.0698,11.5135 2.6509,13.4977 -0.9477,14.5732 -4.3499,15.0082 -8.0943,14.6334 -11.0167,13.6108 -11.825,13.0595 A2.8668,2.8668 0 0 1 -8.4758,8.4058 Z" stroke-linecap="round" fill="#ffc034"/></g></g><g transform="matrix(1, 0, 0, 1, 445.5, 903)" opacity="1"><g transform="scale(1)"><path d="M0.944,2.5061 T-0.0295,2.8252 -1.1284,3.9578 -1.2539,4.7713 A2.6468,2.6468 0 0 1 -6.2864,3.1294 T-5.7248,1.7626 -3.9977,-0.6521 -1.888,-2.103 -0.944,-2.5061 A2.678,2.678 0 0 1 0.944,2.5061 ZM-1.7995,2.1834 T-0.951,3.1446 1.163,4.8715 4.2711,7.2748 6.851,11.0541 6.3788,15.4028 3.541,18.5429 -0.063,19.8981 -4.1622,19.6074 -6.8717,18.3618 -7.458,17.829 A2.339,2.339 0 0 1 -4.542,14.171 T-3.9628,14.8323 -1.9506,15.1204 1.1012,13.8409 1.2534,11.5395 -2.0739,8.9231 -4.8377,6.7096 -5.7407,5.7173 A2.6468,2.6468 0 0 1 -1.7995,2.1834 Z" stroke-linecap="round" fill="#ffc034"/></g></g><g transform="matrix(1, 0, 0, 1, 471.5, 883)" opacity="1"><g transform="scale(1)"><path d="M2.5665,0.5669 T2.2999,1.728 1.287,4.1438 -0.6267,8.3705 -2.6461,13.2268 -4.3669,17.2382 -5.6416,20.8288 -6.4838,24.2477 -7.1298,27.8386 -6.9482,31.8944 -5.5806,35.5937 -2.769,37.6014 -0.9336,38.3299 A2.8752,2.8752 0 0 1 -3.0664,43.6701 T-4.3519,43.2258 -7.3045,42.0419 -10.0684,40.0874 -11.9471,37.2907 -13.0494,34.1165 -13.4326,30.5605 -13.1825,26.6743 -12.3137,22.6477 -11.1791,18.7925 -9.6003,14.863 -7.7015,10.8875 -6.0354,7.4726 -4.1237,3.6243 -2.7729,0.4133 -2.5665,-0.5669 A2.6283,2.6283 0 0 1 2.5665,0.5669 Z" stroke-linecap="round" fill="#ffc034"/></g></g><g transform="matrix(1, 0, 0, 1, 492.6772, 882.1722) scale(0.8494029733528035, 0.8494029733528035)" opacity="1"><g transform="scale(1.1772975035073787)"><path d="M1.6562,-0.276 T1.8977,0.9235 2.3542,4.1975 2.7587,7.8054 3.145,10.4315 3.3418,11.5242 A1.6821,1.6821 0 0 1 0.0582,12.2558 T-0.2275,11.1828 -0.8156,8.2997 -1.2266,4.5956 -1.4957,1.4888 -1.6562,0.276 A1.679,1.679 0 0 1 1.6562,-0.276 Z" stroke-linecap="round" fill="#ffc034"/></g></g><g transform="matrix(1, 0, 0, 1, 502.87, 878.7746) scale(0.8494029733528035, 0.8494029733528035)" opacity="1"><g transform="scale(1.1772975035073787)"><path d="M1.5661,-0.522 T1.9926,0.6891 2.4911,3.1849 2.5689,6.7261 2.561,10.4344 2.5474,11.8861 A1.6974,1.6974 0 0 1 -0.8474,11.8939 T-0.8677,10.4423 -0.9096,7.6911 -0.8709,4.6579 -1.1885,1.7232 -1.5661,0.522 A1.6509,1.6509 0 0 1 1.5661,-0.522 Z" stroke-linecap="round" fill="#ffc034"/></g></g><g transform="matrix(1, 0, 0, 1, 511.364, 873.6781) scale(0.8494029733528035, 0.8494029733528035)" opacity="1"><g transform="scale(1.1772975035073787)"><path d="M0.2182,2.3973 T-1.9881,2.6256 -6.0814,3.1704 -9.5287,3.8467 -13.369,5.0863 -16.907,6.3142 -20.5383,7.6172 -22.9116,8.572 A1.9733,1.9733 0 0 1 -24.6484,5.028 T-23.3932,4.3033 -19.9533,2.5498 -16.3409,0.8267 -13.547,-0.2954 -10.4603,-1.0891 -6.6906,-1.7524 -2.4297,-2.2236 -0.2182,-2.3973 A2.4072,2.4072 0 0 1 0.2182,2.3973 Z" stroke-linecap="round" fill="#ffc034"/></g></g><g transform="matrix(1, 0, 0, 1, 509.6652, 897.4614) scale(0.8494029733528035, 0.8494029733528035)" opacity="1"><g transform="scale(1.1772975035073787)"><path d="M0.3799,1.8971 T-1.6199,2.3415 -5.5629,3.0359 -9.1335,3.4117 -12.087,3.7852 -15.6754,4.2241 -19.6302,5.1361 -21.3225,5.8571 A1.7766,1.7766 0 0 1 -22.8375,2.6429 T-21.8252,2.093 -19.5696,0.9531 -16.242,0.136 -12.6077,-0.3631 -9.516,-0.7327 -6.1932,-1.004 -2.3959,-1.5374 -0.3799,-1.8971 A1.9347,1.9347 0 0 1 0.3799,1.8971 Z" stroke-linecap="round" fill="#ffc034"/></g></g><g transform="matrix(1, 0, 0, 1, 493.5266, 908.5037) scale(0.8494029733528035, 0.8494029733528035)" opacity="1"><g transform="scale(1.1772975035073787)"><path d="M1.0836,-2.1673 T1.8739,-1.7353 3.9989,-0.3268 6.3931,1.8098 7.554,5.3734 6.8499,9.4495 4.9335,11.9431 3.2918,13.1729 2.7609,13.5818 A2.3267,2.3267 0 0 1 -0.0237,9.8537 T1.3507,8.8507 3.1989,6.2983 2.1124,3.8302 -0.2657,2.5394 -1.0836,2.1673 A2.4231,2.4231 0 0 1 1.0836,-2.1673 ZM2.8097,9.8911 T3.3446,10.3112 5.1896,10.8673 8.4311,11.1476 11.5762,11.368 12.7899,11.4442 A2.1464,2.1464 0 0 1 12.6901,15.7358 T11.4742,15.7555 8.1598,15.7727 3.905,15.3775 0.8381,14.2647 -0.0725,13.5444 A2.3267,2.3267 0 0 1 2.8097,9.8911 Z" stroke-linecap="round" fill="#ffc034"/></g></g><g transform="matrix(1, 0, 0, 1, 527.5027, 898.3108) scale(0.8494029733528035, 0.8494029733528035)" opacity="1"><g transform="scale(1.1772975035073787)"><path d="M0.85,-1.5469 T2.0561,-1.5941 4.9396,-1.6712 8.8284,-1.6421 11.04,-1.5831 A1.5831,1.5831 0 0 1 11.04,1.5831 T8.8284,1.6421 4.9396,1.6712 2.0561,1.5941 0.85,1.5469 A1.5469,1.5469 0 0 1 0.85,-1.5469 Z" stroke-linecap="round" fill="#ffc034"/></g></g><g transform="matrix(1, 0, 0, 1, 560.6294, 892.365) scale(0.8494029733528035, 0.8494029733528035)" opacity="1"><g transform="scale(1.1772975035073787)"><path d="M2.1574,0 T2.1387,0.8795 1.4014,3.2662 -0.098,5.835 -2.1018,8.2846 -4.5617,10.9862 -8.2708,14.3551 -12.1039,17.034 -14.7839,18.244 -16.1033,18.8306 A2.0431,2.0431 0 0 1 -17.8767,15.1494 T-15.6225,13.9823 -11.2441,10.9774 -7.9056,7.8768 -5.5522,5.4023 -3.2666,2.824 -2.1387,0.7287 -2.1574,0 A2.1574,2.1574 0 0 1 2.1574,0 Z" stroke-linecap="round" fill="#ffc034"/></g></g><g transform="matrix(1, 0, 0, 1, 548.7378, 894.0638) scale(0.8494029733528035, 0.8494029733528035)" opacity="1"><g transform="scale(1.1772975035073787)"><path d="M1.5094,-0.7547 T2.3117,0.8545 3.785,3.9435 5.0037,6.5596 7.056,9.6514 9.6088,12.8933 10.657,14.1797 A1.7225,1.7225 0 0 1 8.023,16.4003 T6.9323,15.1496 4.7978,12.7002 3.0196,10.3462 1.7724,7.9966 0.6809,5.3858 -0.7035,2.3619 -1.5094,0.7547 A1.6876,1.6876 0 0 1 1.5094,-0.7547 Z" stroke-linecap="round" fill="#ffc034"/></g></g><g transform="matrix(1, 0, 0, 1, 569.9728, 872.8287) scale(0.8494029733528035, 0.8494029733528035)" opacity="1"><g transform="scale(1.1772975035073787)"><path d="M1.9625,-0.9812 T2.7661,0.6269 4.7626,4.4592 6.5062,8.1925 7.5645,11.2879 8.3928,14.8674 8.8987,19.3174 9.1831,23.4377 9.3586,27.0035 9.2884,31.0484 8.8542,35.1428 8.1741,38.4608 6.4715,42.0393 4.4293,45.0303 3.6972,45.8093 A2.5838,2.5838 0 0 1 -0.2972,42.5307 T0.6558,41.2543 2.2836,38.0827 3.265,34.4334 3.7904,30.8415 4.0152,27.1585 3.9877,23.6806 3.8867,19.7754 3.6616,15.8539 3.1027,12.6941 1.8342,8.8099 0.3067,5.3171 -1.1579,2.5895 -1.9625,0.9812 A2.1941,2.1941 0 0 1 1.9625,-0.9812 Z" stroke-linecap="round" fill="#ffc034"/></g></g><g transform="matrix(1, 0, 0, 1, 358.4715, 915.2989) scale(0.8494029733528035, 0.8494029733528035)" opacity="1"><g transform="scale(1.1772975035073787)"><path d="M1.2452,-0.8103 T2.0671,-0.2355 4.3944,0.6683 7.2711,1.1105 8.6423,1.2237 A2.1816,2.1816 0 0 1 8.3377,5.5763 T7.5961,5.5374 5.0599,5.312 1.7964,4.4493 -0.4589,3.1417 -1.2452,2.5103 A2.0754,2.0754 0 0 1 1.2452,-0.8103 ZM9.246,5.4465 T8.9556,5.5015 7.2187,5.9032 4.0126,6.6605 0.8657,7.4346 -1.308,8.0981 -2.0946,8.3982 A2.1977,2.1977 0 0 1 -4.3886,4.6489 T-2.2276,4.027 1.7049,2.9819 4.8289,2.2952 6.9577,1.6925 7.734,1.3535 A2.1816,2.1816 0 0 1 9.246,5.4465 ZM-3.4722,4.338 T-2.7063,4.2332 -0.1231,3.5969 3.4971,2.4223 7.0002,1.1551 9.0156,0.226 9.3309,-0.079 A2.602,2.602 0 0 1 12.2889,4.2024 T11.2429,4.8379 8.5212,6.0253 4.642,7.195 0.8654,8.1634 -1.8593,8.6116 -3.0109,8.7091 A2.1977,2.1977 0 0 1 -3.4722,4.338 ZM11.2932,4.6183 T10.2725,4.7844 7.2838,5.4512 3.2454,6.1519 1.175,6.3519 A2.1269,2.1269 0 0 1 0.525,2.1481 T1.5245,1.9296 4.3336,1.2003 7.3898,0.2839 9.4815,-0.3084 10.3266,-0.495 A2.602,2.602 0 0 1 11.2932,4.6183 Z" stroke-linecap="round" fill="#ffc034"/></g></g><g transform="matrix(1, 0, 0, 1, 321.5225, 992.1698) scale(0.8494029733528035, 0.8494029733528035)" opacity="1"><g transform="scale(1.1772975035073787)"><path d="M0.281,-1.6859 T1.5025,-1.5771 4.5023,-1.4139 8.6836,-1.1653 11.0865,-0.9711 A1.8217,1.8217 0 0 1 10.9935,2.6711 T8.5253,2.7409 4.0789,2.5416 0.9098,1.9792 -0.281,1.6859 A1.7091,1.7091 0 0 1 0.281,-1.6859 Z" stroke-linecap="round" fill="#ffc034"/></g></g><g transform="matrix(1, 0, 0, 1, 321.5225, 1000.6639) scale(0.8494029733528035, 0.8494029733528035)" opacity="1"><g transform="scale(1.1772975035073787)"><path d="M0.5969,-1.5375 T1.4061,-1.3612 4.2869,-1.5305 7.9059,-2.03 10.9638,-2.3213 12.4742,-2.4587 A2.4731,2.4731 0 0 1 13.0058,2.4587 T11.5008,2.6473 7.6849,3.2696 3.1875,3.6962 0.2021,3.4633 -0.5969,3.2375 A2.461,2.461 0 0 1 0.5969,-1.5375 Z" stroke-linecap="round" fill="#ffc034"/></g></g><g transform="matrix(1, 0, 0, 1, 355.4986, 989.6216) scale(0.8494029733528035, 0.8494029733528035)" opacity="1"><g transform="scale(1.1772975035073787)"><path d="M0.9432,-1.8863 T1.7227,-1.5395 3.8122,-1.3506 6.9511,-1.9372 10.0442,-2.6832 11.3083,-3.0006 A2.2278,2.2278 0 0 1 12.4717,1.3006 T11.2199,1.6637 7.5427,2.605 2.9157,2.9919 -0.1145,2.3436 -0.9432,1.8863 A2.109,2.109 0 0 1 0.9432,-1.8863 Z" stroke-linecap="round" fill="#ffc034"/></g></g><g transform="matrix(1, 0, 0, 1, 394.5711, 979.4288) scale(0.8494029733528035, 0.8494029733528035)" opacity="1"><g transform="scale(1.1772975035073787)"><path d="M1.4076,1.7595 T0.4078,2.5701 -3.0555,5.304 -4.1489,8.1576 -1.1119,10.9029 0.5982,14.0687 0.0747,16.5786 -2.0716,19.3603 -4.8396,21.6374 -7.4264,22.6442 -10.1205,23.1027 -13.0838,22.3034 -14.7514,21.3981 A2.1912,2.1912 0 0 1 -12.4286,17.6819 T-11.8825,18.1603 -9.7993,18.2746 -6.9063,17.1265 -4.92,14.8833 -5.96,12.9746 -8.8452,11.8127 -10.5588,9.7662 -10.6649,7.1131 -9.2379,4.6151 -6.7982,2.4896 -4.4106,0.6894 -2.418,-0.9619 -1.4076,-1.7595 A2.2533,2.2533 0 0 1 1.4076,1.7595 Z" stroke-linecap="round" fill="#ffc034"/></g></g><g transform="matrix(1, 0, 0, 1, 405.6134, 991.3204) scale(0.8494029733528035, 0.8494029733528035)" opacity="1"><g transform="scale(1.1772975035073787)"><path d="M1.3018,-0.1448 T1.5807,1.6934 1.1626,5.4243 0.4656,7.317 A1.4136,1.4136 0 0 1 -2.1656,6.283 T-1.6106,4.9894 -1.1786,1.9203 -1.3018,0.1448 A1.3098,1.3098 0 0 1 1.3018,-0.1448 Z" stroke-linecap="round" fill="#ffc034"/></g></g><g transform="matrix(1, 0, 0, 1, 405.6134, 959.8925) scale(0.8494029733528035, 0.8494029733528035)" opacity="1"><g transform="scale(1.1772975035073787)"><path d="M1.1345,-0.3782 T1.5309,0.8304 2.3613,4.3077 2.7953,6.5763 A1.1179,1.1179 0 0 1 0.6047,7.0237 T0.1428,4.9046 -0.7268,1.5819 -1.1345,0.3782 A1.1959,1.1959 0 0 1 1.1345,-0.3782 Z" stroke-linecap="round" fill="#ffc034"/></g></g><g transform="matrix(1, 0, 0, 1, 417.505, 987.0734) scale(0.8494029733528035, 0.8494029733528035)" opacity="1"><g transform="scale(1.1772975035073787)"><path d="M1.8973,-0.9486 T2.4792,0.2735 3.4598,2.9316 3.9632,6.5939 3.9586,10.0366 3.8491,11.253 A2.1597,2.1597 0 0 1 -0.4491,10.827 T-0.1779,9.0603 -0.2778,5.3113 -1.2731,2.1388 -1.8973,0.9486 A2.1212,2.1212 0 0 1 1.8973,-0.9486 ZM-0.4574,10.9402 T-0.424,10.186 -0.3906,9.4318 A2.1627,2.1627 0 0 1 3.9302,9.6318 T3.8938,10.3858 3.8574,11.1398 A2.1597,2.1597 0 0 1 -0.4574,10.9402 ZM-0.0874,8.4235 T0.2922,7.7739 1.7752,5.4811 4.6498,2.4677 8.4693,0.5128 10.5175,-0.0719 A2.1306,2.1306 0 0 1 11.2566,4.1246 T10.0119,4.3885 7.5238,5.5752 5.3451,7.9265 4.0184,9.9975 3.6269,10.6401 A2.1627,2.1627 0 0 1 -0.0874,8.4235 ZM12.2407,0.381 T12.894,0.9202 14.331,2.6438 15.2782,5.5327 15.4806,8.6507 15.5195,10.0643 A1.9335,1.9335 0 0 1 11.6605,10.3157 T11.5157,8.9091 11.0773,6.0996 10.1587,4.1843 9.5335,3.6717 A2.1306,2.1306 0 0 1 12.2407,0.381 Z" stroke-linecap="round" fill="#ffc034"/></g></g><g transform="matrix(1, 0, 0, 1, 452.3305, 964.1396) scale(0.8494029733528035, 0.8494029733528035)" opacity="1"><g transform="scale(1.1772975035073787)"><path d="M2.2229,0.3176 T2.0487,1.7317 1.3533,4.8938 0.2062,8.6785 -1.1455,12.8342 -2.4364,16.6448 -3.4593,20.146 -4.3527,24.2715 -5.0398,28.7413 -5.2755,32.2687 -3.9105,34.5046 -2.5611,35.3669 A2.1717,2.1717 0 0 1 -4.2389,39.3731 T-5.1932,39.0465 -7.473,37.9668 -9.5652,35.5932 -10.456,32.1489 -10.3339,27.9374 -9.5794,23.0537 -8.5001,18.5766 -7.2965,14.8999 -5.8796,11.1845 -4.3818,7.1625 -3.1734,3.8216 -2.4507,1.0826 -2.2229,-0.3176 A2.2455,2.2455 0 0 1 2.2229,0.3176 Z" stroke-linecap="round" fill="#ffc034"/></g></g><g transform="matrix(1, 0, 0, 1, 472.7162, 978.5794) scale(0.8494029733528035, 0.8494029733528035)" opacity="1"><g transform="scale(1.1772975035073787)"><path d="M1.7538,1.0961 T0.7768,2.7219 -1.1097,5.8307 -3.2142,8.6499 -6.1809,12.1188 -9.0359,15.1129 -11.1984,16.8232 -12.2779,17.6723 A2.0173,2.0173 0 0 1 -14.9021,14.6077 T-13.1091,12.9309 -10.3698,10.1718 -8.5644,7.9952 -6.7168,5.9064 -4.7743,3.4985 -2.7871,0.4945 -1.7538,-1.0961 A2.0682,2.0682 0 0 1 1.7538,1.0961 Z" stroke-linecap="round" fill="#ffc034"/></g></g><g transform="matrix(1, 0, 0, 1, 459.1257, 978.5794) scale(0.8494029733528035, 0.8494029733528035)" opacity="1"><g transform="scale(1.1772975035073787)"><path d="M1.6287,-1.0858 T2.387,0.1506 4.808,3.5261 7.2084,6.973 8.6829,9.4643 10.2164,11.8718 11.6543,14.1891 13.8668,16.5664 15.4378,17.8508 A1.9619,1.9619 0 0 1 13.4422,21.2292 T11.6832,20.152 8.7316,17.1798 6.7522,13.9963 4.6816,10.3041 2.6027,6.7719 0.9394,4.5404 -0.7788,2.2617 -1.6287,1.0858 A1.9575,1.9575 0 0 1 1.6287,-1.0858 Z" stroke-linecap="round" fill="#ffc034"/></g></g><g transform="matrix(1, 0, 0, 1, 470.168, 962.4407) scale(0.8494029733528035, 0.8494029733528035)" opacity="1"><g transform="scale(1.1772975035073787)"><path d="M0,-1.8734 T1.61,-1.8392 4.6193,-1.5899 7.3408,-0.7898 10.1129,1.2509 12.5787,4.5709 14.3508,8.8777 15.7236,13.9905 16.5013,19.6354 16.5475,25.3926 15.961,30.7724 14.525,35.52 12.0957,39.4665 9.191,43.0016 7.7511,44.7405 A2.2939,2.2939 0 0 1 4.1489,41.8995 T5.5044,40.094 7.9041,36.9035 9.702,33.921 10.9559,30.098 11.6591,25.3092 11.8638,20.1539 11.4165,15.0099 10.4647,10.3221 9.3517,6.7036 7.8687,4.1308 5.1043,2.4229 1.6064,1.8392 0,1.8734 A1.8734,1.8734 0 0 1 0,-1.8734 Z" stroke-linecap="round" fill="#ffc034"/></g></g></svg>