<svg xmlns="http://www.w3.org/2000/svg" direction="ltr" width="3522.3466929312226" height="3275.88497124724" viewBox="468.29744486594115 22307.83823800067 3522.3466929312226 3275.88497124724" stroke-linecap="round" stroke-linejoin="round" style="background-color: transparent;"><defs/><g transform="matrix(1, 0, 0, 1, 1274.9368, 22339.8382) scale(4.232983838485414, 4.232983838485414)" opacity="1"><g transform="scale(0.2362399759026261)"><path d="M7.8816,0 T7.8717,12.0142 7.8759,34.3638 7.8997,54.15 7.9316,71.5848 7.9882,87.7804 8.0806,110.19 8.2096,140.0202 7.3127,167.2632 5.8552,187.6789 5.112,204.0961 4.6636,225.3979 4.4542,246.6107 5.3878,266.0345 6.9344,285.3441 9.5209,304.2809 13.6191,327.1199 16.3965,349.6614 18.777,371.1948 21.04,393.5058 21.7633,417.9967 21.9954,444.6564 20.5372,472.3113 18.6241,499.3193 17.1266,521.2911 14.1483,544.8229 10.2161,574.803 6.0329,604.5279 1.7532,633.2952 -1.4367,661.0803 -2.6768,682.4825 -2.9891,698.0253 -3.1774,720.047 -3.2468,741.6655 -3.1928,762.9537 -3.085,790.6302 -2.9781,818.1897 -2.9152,839.2755 -1.3516,861.0829 1.6039,888.6521 3.7073,909.8981 5.8861,931.0694 8.0772,952.2405 10.2822,974.5075 12.4549,996.1685 13.4829,1011.4908 14.9762,1026.9856 16.7833,1043.1477 17.7995,1061.3282 18.3282,1079.9105 18.6063,1097.683 19.7178,1114.4633 21.3186,1132.3526 22.2046,1151.3801 22.6787,1169.382 22.9488,1186.8838 24.0773,1203.5083 25.7096,1220.2769 26.6247,1237.7328 27.0933,1254.9448 27.3439,1273.0327 27.4791,1291.5746 27.5354,1309.3485 27.5626,1327.7279 27.575,1346.4247 27.5801,1364.288 26.5529,1383.2613 25.0163,1402.2868 24.2363,1419.7782 23.8194,1437.9803 23.5973,1456.5804 23.4792,1474.3992 23.4166,1492.7942 23.3833,1511.4986 23.3488,1529.3632 24.2753,1546.1791 25.7655,1564.083 26.5802,1583.1267 26.9946,1602.1501 27.2071,1621.1896 27.3157,1639.2264 27.3702,1657.7463 27.3967,1676.5151 27.4092,1695.416 27.4143,1715.3883 27.416,1734.9216 27.4163,1753.2258 27.4159,1771.8829 27.4152,1790.7235 27.4145,1809.6631 27.4138,1829.6554 27.4132,1849.1996 27.4128,1868.51 27.4124,1888.6976 27.4121,1908.3472 27.4119,1927.7131 27.4117,1947.93 27.4115,1968.5954 27.4292,1988.4969 26.4164,2008.5166 24.8939,2029.0702 24.14,2048.4049 23.7427,2067.606 23.5186,2087.719 23.3987,2107.3355 23.3539,2126.6846 23.3351,2146.8905 23.3283,2166.5506 23.3267,2184.9197 23.3279,2203.6104 23.3474,2222.4711 23.3815,2241.419 23.4089,2260.4128 23.4302,2279.4332 23.4671,2299.4679 23.5152,2320.0373 23.5524,2340.8884 23.5796,2360.8903 22.5726,2380.9819 21.0544,2401.5726 20.2872,2421.8934 19.8787,2441.6263 18.6298,2461.579 16.9788,2482.0898 15.0838,2502.8841 13.0639,2523.8582 12.0326,2543.4256 10.4297,2562.3484 8.5917,2581.2845 7.6664,2600.6709 6.1194,2620.5055 4.3063,2638.9897 3.3938,2657.1421 2.9028,2675.7086 1.6064,2695.0618 -0.0544,2714.2853 -0.8535,2732.8734 -1.2513,2751.6655 -2.4929,2770.2042 -4.1123,2787.9836 -4.8941,2804.7502 -5.3031,2820.5994 -5.5112,2835.9529 -5.611,2852.0365 -5.6624,2874.3822 -5.6824,2900.6582 -5.7107,2924.7685 -4.858,2946.8001 -3.2128,2968.2031 -2.5732,2990.2381 -2.6981,3000.8963 A10.0062,10.0062 0 0 1 -22.7019,3001.4837 T-23.4458,2991.0656 -25.0348,2970.6385 -26.9985,2948.7001 -28.1396,2924.7598 -28.1428,2900.6312 -28.0721,2874.302 -27.9643,2851.8592 -27.8087,2835.6007 -27.532,2819.9747 -27.0211,2803.633 -26.0573,2785.9193 -24.3645,2768.6707 -23.1175,2751.1329 -22.5898,2731.8591 -21.6327,2712.412 -19.961,2693.6586 -18.7305,2675.1361 -18.2231,2656.0284 -17.2413,2636.8887 -15.4597,2618.797 -13.9912,2599.6182 -13.0001,2579.1712 -11.2017,2560.5148 -9.7009,2542.3004 -8.6393,2521.7985 -6.688,2500.9265 -4.8442,2480.3092 -3.1971,2460.2327 -1.9933,2441.1622 -1.5532,2421.0433 -0.7104,2399.931 0.8266,2379.8938 1.8205,2360.8849 1.8477,2340.8884 1.8851,2320.0372 1.9333,2299.4677 1.9706,2279.4327 1.9927,2260.412 2.0214,2241.4174 2.0583,2222.4682 2.0827,2203.6049 2.0935,2184.9092 2.1101,2166.5322 2.1378,2146.8561 2.1845,2126.6161 2.2639,2107.2104 2.3796,2087.4842 2.6027,2067.1393 3.0539,2047.5537 3.9101,2027.4856 5.4428,2007.4668 6.4308,1988.4917 6.4485,1968.5954 6.4483,1947.93 6.4481,1927.7131 6.4479,1908.3472 6.4476,1888.6977 6.4471,1868.51 6.4465,1849.1997 6.4457,1829.6556 6.4447,1809.6635 6.4432,1790.7243 6.4411,1771.8844 6.438,1753.2287 6.4333,1734.9267 6.4256,1715.3978 6.4125,1695.4353 6.3906,1676.5513 6.3519,1657.8178 6.2826,1639.3631 6.1562,1621.4354 5.923,1602.6303 5.4915,1584.0296 4.7012,1565.8761 3.1457,1547.3932 2.0896,1529.351 2.0895,1511.4617 2.1216,1492.7214 2.1829,1474.2597 2.3001,1456.3286 2.5244,1437.4829 2.9545,1418.8261 3.7818,1400.5726 5.2952,1382.1614 6.2588,1364.2933 6.245,1346.445 6.2213,1327.7682 6.1803,1309.4261 6.1072,1291.7157 5.9966,1273.3154 5.781,1255.5003 5.365,1238.7813 4.6014,1222.2423 3.0484,1204.8949 1.9292,1187.1736 1.7308,1169.9027 1.3159,1152.3215 0.515,1134.2195 -1.0852,1115.8414 -2.2511,1097.999 -2.4978,1080.4734 -2.9651,1062.4668 -3.8388,1045.4147 -5.6177,1028.9176 -7.6853,1006.1069 -9.745,983.6825 -11.7637,961.6071 -13.7853,940.4249 -15.7933,919.1866 -17.7924,897.9115 -19.7111,876.3356 -21.4679,854.4603 -22.4837,839.289 -22.4185,818.1877 -22.3026,790.6225 -22.1627,762.9282 -22.0524,741.6054 -21.9187,719.8822 -21.7217,697.6542 -21.022,674.5422 -18.3245,645.2231 -15.4572,623.4743 -13.3725,608.6593 -11.3035,593.8403 -9.2419,579.0241 -7.204,564.2108 -5.2281,549.4052 -3.3668,534.5979 -1.6971,519.8156 -0.4856,504.968 0.5288,484.0674 2.3366,457.9161 3.2421,431.6801 3.007,406.2559 2.0576,384.3253 -0.0179,363.0459 -2.2816,341.3995 -5.2026,318.8711 -8.9616,293.8034 -11.7312,267.4706 -12.6517,246.4667 -12.3325,224.9948 -11.778,203.2936 -10.9112,186.4391 -9.3135,166.5177 -8.2096,140.0173 -8.0806,110.19 -7.9882,87.7804 -7.9316,71.5848 -7.8997,54.15 -7.8759,34.3638 -7.8717,12.0142 -7.8816,0 A7.8816,7.8816 0 0 1 7.8816,0 Z" stroke-linecap="round" fill="#e599f7"/></g></g><g transform="matrix(1, 0, 0, 1, 661.1541, 24976.9872) scale(4.232983838485414, 4.232983838485414)" opacity="1"><g transform="scale(0.2362399759026261)"><path d="M0,-8.6339 T12.0142,-8.6368 32.3607,-8.6574 50.9289,-8.6728 72.6688,-8.6994 95.3949,-7.2253 119.209,-4.2961 143.7712,-2.1025 179.4745,-0.1798 215.2834,1.4985 237.6791,2.311 256.4376,2.7364 273.3111,2.9379 289.1976,3.0348 304.5762,3.0783 320.685,3.0776 337.1854,3.0348 353.8915,2.9623 370.7036,2.8848 388.5741,2.7991 407.0026,2.711 425.7227,2.6223 444.5965,2.5169 463.5536,2.4163 482.5547,2.3195 501.5789,2.226 521.6157,2.1298 542.1861,2.0349 562.0394,1.9646 583.0017,2.9322 605.0658,4.4208 626.7234,6.189 649.1176,8.081 671.9249,10.0458 695.4235,13.0946 718.3474,15.6172 740.5165,17.8976 763.1584,20.0547 785.5935,21.1477 807.4538,21.7296 828.9758,22.0115 850.3257,22.1514 871.5888,22.2379 894.3006,23.3275 917.2916,24.9035 938.9291,25.7331 961.3254,26.2026 984.1386,26.4408 1006.1789,26.5277 1027.8035,26.5266 1049.2101,26.4924 1070.4998,26.4202 1091.176,25.3458 1111.051,23.7334 1131.0946,22.7981 1151.124,21.3165 1171.6887,19.5446 1192.0952,18.5855 1212.8726,18.0878 1233.8457,17.8267 1253.8956,17.6899 1274.4792,17.6175 1295.3369,17.5792 1316.3396,17.5589 1337.4191,17.548 1357.5385,17.5422 1377.1497,17.5207 1397.496,17.4673 1418.2295,17.4073 1438.1667,17.3459 1457.6842,17.2817 1476.9783,17.1983 1496.1569,17.0985 1516.275,17.0168 1535.8856,16.9722 1554.2306,16.9738 1572.9091,17.01 1591.7609,17.0719 1610.7065,17.1558 1630.7019,17.2428 1650.2477,17.326 1668.5586,17.4037 1687.2191,17.448 1706.0615,17.4503 1724.9982,17.4165 1743.3257,16.4085 1760.9803,14.8593 1779.973,13.9771 1800.0127,13.4888 1819.5626,13.2387 1837.8707,13.1202 1856.535,13.0578 1875.3801,13.0416 1894.3212,13.055 1914.3147,13.0713 1933.8592,13.0858 1953.1697,13.0979 1973.3575,13.1085 1993.0071,13.0996 2012.3731,13.0746 2032.59,13.0544 2052.255,13.0564 2071.6267,13.0764 2091.8467,13.0926 2111.5132,13.1049 2130.8858,13.1141 2150.1058,13.1213 2169.2453,13.1088 2188.3402,13.0821 2207.4138,13.0615 2226.4763,13.0453 2245.5328,13.0149 2264.5831,12.9743 2283.0013,11.9721 2301.6936,10.4261 2321.1967,9.5705 2340.5043,9.1207 2358.6732,8.8833 2377.2681,8.7731 2396.0763,8.734 2414.3636,7.7519 2432.9904,6.2151 2451.4398,5.3524 2470.2049,4.8985 2489.1093,4.6573 2508.0757,4.5279 2527.0816,4.4573 2545.1032,4.4186 2562.6118,4.3969 2580.8499,4.3841 2599.4698,4.3764 2617.2901,4.3717 2635.6921,4.3686 2653.4002,4.3519 2669.7399,4.3087 2687.3616,4.2556 2704.6504,4.1994 2719.9956,3.1886 2736.1002,1.6105 2753.3691,0.6954 2770.476,0.2054 2787.4987,-0.0801 2803.4727,-0.258 2818.9022,-0.3665 2835.0484,-0.4391 2858.426,-0.5275 2881.7573,-0.6224 2905.0517,-0.721 2928.3392,-0.8147 2950.6209,-0.8967 2972.3744,-0.9621 2994.7032,-0.9976 3023.2068,-1.0323 3049.9959,-1.0665 3075.7818,-1.1225 3101.2889,-1.1933 3126.3652,-0.1322 3149.1856,1.6846 3171.1452,2.6917 3193.4904,3.1189 3215.5272,3.3746 3238.7467,4.7403 3259.0052,6.8717 3277.7431,9.8958 3293.6039,12.9119 3298.9496,13.7851 A11.7063,11.7063 0 0 1 3296.0304,37.0149 T3290.6349,36.5382 3275.4133,34.6943 3255.6083,32.5952 3236.1548,31.1036 3215.4609,30.4244 3193.2631,30.5214 3170.2262,30.3772 3146.0874,29.3271 3124.0097,27.533 3101.2889,26.5933 3075.7818,26.5225 3049.996,26.4665 3023.2068,26.4323 2994.7033,26.3977 2972.3746,26.3623 2950.6214,26.2974 2928.3404,26.2163 2905.0552,26.1258 2881.7653,26.033 2858.4496,25.9596 2835.1021,25.9121 2819.0093,25.9049 2803.6637,25.9205 2787.8439,25.9784 2771.1305,26.14 2754.6127,26.4986 2738.4682,27.1936 2721.5601,28.6707 2704.6619,29.6608 2687.3618,29.6048 2669.7405,29.5521 2653.4012,29.5097 2635.694,29.4944 2617.2937,29.494 2599.4763,29.4944 2580.8628,29.4963 2562.6367,29.502 2545.1491,29.5151 2527.1639,29.5426 2508.2358,29.5976 2489.4086,29.7066 2470.7942,29.9176 2452.562,30.3218 2434.9951,31.0874 2415.6792,32.6404 2396.1648,33.7247 2377.4303,33.8101 2358.9825,33.9361 2341.0576,34.1469 2322.2667,34.5476 2303.6726,35.3059 2284.2702,36.8224 2264.5895,37.8257 2245.5328,37.7851 2226.4763,37.7547 2207.4138,37.7385 2188.3402,37.7179 2169.2453,37.6912 2150.1058,37.6787 2130.8858,37.6859 2111.5132,37.6951 2091.8467,37.7074 2071.6268,37.7237 2052.2551,37.7438 2032.5903,37.746 2012.3736,37.7262 1993.008,37.702 1973.3592,37.6945 1953.173,37.7077 1933.8652,37.7249 1914.326,37.749 1894.344,37.7835 1875.4228,37.8314 1856.6189,37.8806 1838.03,37.9424 1819.8452,38.0595 1800.5478,38.2566 1781.0605,38.6168 1763.0422,39.3447 1744.6631,40.8507 1725.006,41.8435 1706.0615,41.8097 1687.2191,41.812 1668.5586,41.8563 1650.2477,41.934 1630.7019,42.0172 1610.7065,42.1042 1591.7609,42.1881 1572.9091,42.25 1554.2306,42.2862 1535.8856,42.2878 1516.2751,42.2433 1496.1569,42.1617 1476.9784,42.0619 1457.6845,41.9788 1438.1672,41.915 1418.2304,41.8545 1397.4978,41.7961 1377.1533,41.7457 1357.545,41.73 1337.431,41.7352 1316.3624,41.7452 1295.3805,41.7644 1274.5633,41.8011 1254.06,41.8711 1234.1389,42.0044 1213.4615,42.2559 1193.1984,42.7307 1173.7219,43.6172 1152.794,45.3473 1132.0826,46.7143 1112.8118,47.3878 1092.2823,48.828 1070.4856,49.7406 1049.1742,49.6333 1027.7365,49.5324 1006.0551,49.4048 983.9135,49.2515 960.8826,49.034 938.0772,48.6389 915.7323,47.8277 893.2577,46.2904 871.4862,45.2779 850.139,45.1809 828.627,44.9729 806.8095,44.5947 784.4245,43.9238 760.8951,42.6397 738.1069,40.2862 715.8603,37.804 692.4963,35.0861 669.9512,31.9876 647.1873,29.8896 624.8977,27.8779 603.5554,26.0351 582.0184,24.4686 562.0354,23.4354 542.1861,23.3651 521.6157,23.2701 501.5788,23.1739 482.5546,23.0803 463.5534,22.9832 444.5961,22.8822 425.7219,22.776 407.001,22.6858 388.571,22.5948 370.6975,22.5036 353.88,22.4156 337.1634,22.3234 320.6424,22.243 304.4916,22.1711 289.0468,22.0794 273.0389,21.9198 255.9857,21.6344 236.961,21.1361 214.2556,20.1959 178.4302,18.2119 141.6787,15.7706 116.7665,13.2606 94.5533,10.2805 72.6379,8.6994 50.9289,8.6728 32.3607,8.6574 12.0142,8.6368 0,8.6339 A8.6339,8.6339 0 0 1 0,-8.6339 Z" stroke-linecap="round" fill="#e599f7"/></g></g><g transform="matrix(1, 0, 0, 1, 1744.798, 24993.9191) scale(4.232983838485414, 4.232983838485414)" opacity="1"><g transform="scale(0.2362399759026261)"><path d="M7.6242,-1.5241 T9.7118,9.0614 11.7994,19.6468 A7.7192,7.7192 0 0 1 -3.3394,22.6732 T-5.4818,12.0986 -7.6242,1.5241 A7.7751,7.7751 0 0 1 7.6242,-1.5241 ZM-3.4617,21.8108 T-3.8055,13.2046 -3.89,-2.866 -1.8421,-22.7106 2.0047,-44.7177 4.8091,-61.4147 5.5554,-68.4851 A7.1843,7.1843 0 0 1 19.8446,-66.9749 T19.0639,-59.5965 16.3701,-42.8885 12.9476,-21.7138 10.8489,0.0419 11.0907,15.2307 11.9217,20.5092 A7.7192,7.7192 0 0 1 -3.4617,21.8108 ZM19.8233,-68.6643 T20.2582,-63.838 22.1845,-48.2356 24.1081,-24.4989 24.7357,0.7323 26.4405,22.5577 28.448,41.1936 28.9463,50.2749 A7.804,7.804 0 0 1 13.3737,51.3251 T12.6814,42.7523 10.4021,23.6464 8.8628,0.8895 8.8104,-23.9209 8.2853,-44.4572 6.7185,-59.6012 5.5767,-66.7957 A7.1843,7.1843 0 0 1 19.8233,-68.6643 Z" stroke-linecap="round" fill="#e599f7"/></g></g><g transform="matrix(1, 0, 0, 1, 1727.8661, 25171.7044) scale(4.232983838485414, 4.232983838485414)" opacity="1"><g transform="scale(0.2362399759026261)"><path d="M0.7882,-8.6756 T11.8077,-7.7099 30.2083,-5.1533 46.8881,0.684 56.9205,22.1651 53.7522,47.3803 45.5955,61.7365 35.4087,73.1206 21.1822,84.0026 7.9583,91.869 3.0288,93.8617 A8.6265,8.6265 0 0 1 -2.9109,77.6634 T-0.1855,76.8491 10.5102,70.2716 26.226,56.0028 37.2957,40.8468 41.0812,25.563 31.3807,13.8378 10.2152,9.7107 -0.7882,8.6756 A8.7113,8.7113 0 0 1 0.7882,-8.6756 ZM8.6839,85.925 T8.6774,86.6648 8.6709,87.4046 A8.6413,8.6413 0 0 1 -8.6087,87.079 T-8.5874,86.3395 -8.566,85.6 A8.6265,8.6265 0 0 1 8.6839,85.925 ZM1.0429,78.6599 T5.8817,79.1402 20.5114,79.5479 43.3733,77.7277 70.4129,75.656 91.8199,80.4398 99.2581,85.5474 A9.7493,9.7493 0 0 1 87.0019,100.7126 T78.804,98.0036 57.9531,95.8181 37.7196,97.1959 19.8372,97.6472 4.2772,96.5339 -0.9808,95.8237 A8.6413,8.6413 0 0 1 1.0429,78.6599 Z" stroke-linecap="round" fill="#e599f7"/></g></g><g transform="matrix(1, 0, 0, 1, 1753.264, 22716.5738) scale(4.232983838485414, 4.232983838485414)" opacity="1"><g transform="scale(0.2362399759026261)"><path d="M-3.7327,-7.4653 T8.8634,-14.0231 21.4595,-20.5809 A8.8112,8.8112 0 0 1 29.3405,-4.8191 T16.5366,1.3231 3.7327,7.4653 A8.3465,8.3465 0 0 1 -3.7327,-7.4653 ZM29.9606,-5.1609 T20.588,0.4814 1.7174,7.442 -7.7805,8.7601 A8.7872,8.7872 0 0 1 -9.1595,-8.7601 T-3.8559,-8.6069 11.1435,-14.3464 20.8394,-20.2391 A8.8112,8.8112 0 0 1 29.9606,-5.1609 Z" stroke-linecap="round" fill="#e599f7"/></g></g><g transform="matrix(1, 0, 0, 1, 1338.4316, 22741.9717) scale(4.232983838485414, 4.232983838485414)" opacity="1"><g transform="scale(0.2362399759026261)"><path d="M-1.7068,8.1087 T-20.7809,4.3817 -55.2884,-0.3064 -84.0563,-1.8905 -108.0303,-2.028 -131.0408,-0.9334 -143.4118,-0.3243 A8.1615,8.1615 0 0 1 -144.4282,-16.6157 T-132.0775,-17.5491 -108.1779,-19.3813 -83.0553,-19.7337 -52.8567,-17.9287 -17.2625,-12.3895 1.7068,-8.1087 A8.2864,8.2864 0 0 1 -1.7068,8.1087 Z" stroke-linecap="round" fill="#e599f7"/></g></g><g transform="matrix(1, 0, 0, 1, 978.6279, 22678.4769) scale(4.232983838485414, 4.232983838485414)" opacity="1"><g transform="scale(0.2362399759026261)"><path d="M1.8741,-13.1279 T8.8844,-12.1472 24.5402,-10.4749 43.0702,-9.6749 65.1069,-8.5819 87.4425,-3.749 97.6256,0.0993 A13.7934,13.7934 0 0 1 87.2513,25.6612 T80.8389,22.7742 63.47,18.7848 42.0186,17.3438 21.8296,16.0866 5.1306,14.148 -1.8741,13.1279 A13.261,13.261 0 0 1 1.8741,-13.1279 ZM106.0777,14.9372 T105.0766,20.8898 100.4063,35.2046 90.8073,52.4404 80.6177,70.571 73.4809,88.8881 69.8595,105.9128 70.8588,121.2721 72.6023,128.6669 A13.358,13.358 0 0 1 47.7778,138.5403 T44.9119,130.0309 42.5795,111.9224 45.2828,91.2621 51.9722,69.6506 62.0269,48.5743 72.6757,28.4696 78.2944,14.8572 78.7993,10.8233 A13.7934,13.7934 0 0 1 106.0777,14.9372 ZM52.3684,122.7751 T54.0964,121.6914 55.8245,120.6076 A13.0913,13.0913 0 0 1 71.1555,141.8324 T69.5836,143.1323 68.0117,144.4322 A13.358,13.358 0 0 1 52.3684,122.7751 Z" stroke-linecap="round" fill="#e599f7"/></g></g><g transform="matrix(1, 0, 0, 1, 1088.6855, 22771.6026) scale(4.232983838485414, 4.232983838485414)" opacity="1"><g transform="scale(0.2362399759026261)"><path d="M0,9.859 T-5.0043,10.0566 -20.714,11.579 -42.9368,13.9474 -63.3057,13.7731 -81.0577,11.2929 -89.9583,10.0306 A10.0873,10.0873 0 0 1 -87.8217,-10.0306 T-71.6699,-8.9 -45.2923,-8.3358 -22.5376,-9.5782 -5.0043,-10.0566 0,-9.859 A9.859,9.859 0 0 1 0,9.859 Z" stroke-linecap="round" fill="#e599f7"/></g></g><g transform="matrix(1, 0, 0, 1, 1744.798, 22708.1078) scale(4.232983838485414, 4.232983838485414)" opacity="1"><g transform="scale(0.2362399759026261)"><path d="M-2.4923,-10.4303 T4.2299,-8.9556 16.8341,1.8142 19.2841,20.0435 15.8521,28.9775 A10.2882,10.2882 0 0 1 -0.665,16.7068 T1.971,14.0947 -0.6804,10.9564 -5.9677,10.4303 A10.574,10.574 0 0 1 -2.4923,-10.4303 ZM-2.1526,26.1372 T-3.8463,20.6727 -4.5919,6.3223 0.4303,-9.8714 14.4478,-21.7888 31.2355,-19.4892 38.8808,-4.3847 37.081,13.9831 26.7845,30.2083 7.1329,35.9164 -4.8229,35.5718 A10.1891,10.1891 0 0 1 -3.6371,15.2282 T4.943,16.0743 16.0765,7.7715 16.8073,6.0566 16.1622,16.5189 17.3398,19.547 A10.2882,10.2882 0 0 1 -2.1526,26.1372 Z" stroke-linecap="round" fill="#e599f7"/></g></g><g transform="matrix(1, 0, 0, 1, 847.4054, 22725.0398) scale(4.232983838485414, 4.232983838485414)" opacity="1"><g transform="scale(0.2362399759026261)"><path d="M2.0899,7.3109 T-4.8713,9.4821 -22.4232,14.31 -43.3382,18.6999 -53.6626,20.4332 A7.8532,7.8532 0 0 1 -56.3974,4.9668 T-47.1042,3.2312 -27.0042,-1.0726 -9.1436,-5.4758 -2.0899,-7.3109 A7.6038,7.6038 0 0 1 2.0899,7.3109 Z" stroke-linecap="round" fill="#e599f7"/></g></g><g transform="matrix(1, 0, 0, 1, 847.4054, 22771.6026) scale(4.232983838485414, 4.232983838485414)" opacity="1"><g transform="scale(0.2362399759026261)"><path d="M3.6053,7.2192 T1.5709,8.2684 -12.11,12.1959 -28.1113,15.8052 -32.4661,16.5362 A8.1858,8.1858 0 0 1 -35.2539,0.4038 T-30.9064,-0.3691 -17.0539,-3.229 -5.5772,-6.2676 -3.6053,-7.2192 A8.0694,8.0694 0 0 1 3.6053,7.2192 Z" stroke-linecap="round" fill="#e599f7"/></g></g><g transform="matrix(1, 0, 0, 1, 580.7274, 22729.2728) scale(4.232983838485414, 4.232983838485414)" opacity="1"><g transform="scale(0.2362399759026261)"><path d="M-4.2513,7.6548 T-13.2511,2.685 -29.3852,4.6177 -34.5143,21.4418 -26.9775,43.7029 -17.45,64.9152 -7.7227,85.9276 2.6505,107.5647 9.5644,128.7275 11.3672,150.8195 5.4851,169.783 -10.2788,183.3522 -29.8676,191.038 -48.5244,194.3958 -70.6311,190.5041 -83.3185,185.908 A8.6165,8.6165 0 0 1 -77.5415,169.672 T-71.613,171.5614 -58.1728,174.5861 -43.0906,174.5998 -24.3465,169.232 -9.3975,158.1261 -6.4339,142.5171 -10.343,124.754 -18.5179,105.2147 -26.7236,87.9308 -33.8909,72.2021 -45.2729,42.9416 -52.5151,10.4336 -46.5904,-10.3584 -27.2789,-18.3326 -4.7702,-12.6937 4.2513,-7.6548 A8.7561,8.7561 0 0 1 -4.2513,7.6548 Z" stroke-linecap="round" fill="#e599f7"/></g></g><g transform="matrix(1, 0, 0, 1, 576.4945, 22822.3984) scale(4.232983838485414, 4.232983838485414)" opacity="1"><g transform="scale(0.2362399759026261)"><path d="M2.6557,7.0804 T-5.3124,10.1846 -24.1992,18.0729 -41.5741,25.3836 -48.0303,27.9102 A7.2963,7.2963 0 0 1 -53.5697,14.4098 T-47.1996,11.6735 -29.7903,3.8313 -10.7034,-4.1775 -2.6557,-7.0804 A7.562,7.562 0 0 1 2.6557,7.0804 Z" stroke-linecap="round" fill="#e599f7"/></g></g><g transform="matrix(1, 0, 0, 1, 618.8243, 22712.3408) scale(4.232983838485414, 4.232983838485414)" opacity="1"><g transform="scale(0.2362399759026261)"><path d="M9.2029,1.0217 T8.1571,10.0287 5.5221,27.1661 3.2053,42.9562 2.1133,58.6654 1.5339,74.6833 7.9446,93.9723 19.1681,113.1188 32.9313,128.1184 42.0969,135.2922 A9.5086,9.5086 0 0 1 34.1031,152.5478 T29.7863,150.7152 15.9269,139.9041 1.7149,122.6094 -10.1076,98.7804 -17.028,74.5148 -16.3098,57.2773 -14.9393,40.2737 -12.5836,24.3808 -10.1579,7.9926 -9.2029,-1.0217 A9.2594,9.2594 0 0 1 9.2029,1.0217 Z" stroke-linecap="round" fill="#e599f7"/></g></g><g transform="matrix(1, 0, 0, 1, 652.6882, 22767.3696) scale(4.232983838485414, 4.232983838485414)" opacity="1"><g transform="scale(0.2362399759026261)"><path d="M-6.3193,-7.3717 T0.6833,-13.3902 16.8961,-24.9886 29.5925,-31.7399 33.0788,-32.9113 A9.9163,9.9163 0 0 1 38.9585,-13.9703 T36.7801,-13.3833 27.4729,-8.7079 13.3317,1.376 6.3193,7.3717 A9.7096,9.7096 0 0 1 -6.3193,-7.3717 ZM44.2185,-29.017 T47.0513,-24.3421 48.521,-9.2591 44.2445,10.3444 37.7487,28.3413 34.1116,40.0769 34.0569,43.0112 A9.9504,9.9504 0 0 1 14.5008,46.6996 T14.1564,41.9553 16.6983,29.3633 21.9895,13.8999 27.8323,-3.7617 29.5445,-15.8362 27.8187,-17.8646 A9.9163,9.9163 0 0 1 44.2185,-29.017 ZM29.5248,36.4002 T31.7932,37.7447 44.1071,38.2139 59.7293,31.9601 65.3061,26.5817 A9.8614,9.8614 0 0 1 78.6139,41.1383 T75.4911,44.2352 62.8304,52.8895 45.7742,59.3102 30.9078,58.2094 21.2963,54.7779 19.0328,53.3107 A9.9504,9.9504 0 0 1 29.5248,36.4002 Z" stroke-linecap="round" fill="#e599f7"/></g></g><g transform="matrix(1, 0, 0, 1, 703.484, 22691.1759) scale(4.232983838485414, 4.232983838485414)" opacity="1"><g transform="scale(0.2362399759026261)"><path d="M6.876,-6.876 T15.8691,2.1631 31.0918,19.4872 41.8491,36.5496 49.7787,54.0155 56.0308,71.2951 60.533,88.9826 63.0579,106.9241 63.3311,123.1628 59.7151,143.0747 54.0905,162.0418 51.4823,168.4902 A9.7636,9.7636 0 0 1 33.1777,161.6898 T37.0837,150.6401 41.9207,128.567 42.2535,109.5121 40.5163,93.7568 36.9311,77.903 31.6337,61.9272 25.2498,46.6803 16.4488,32.0598 2.1522,15.8582 -6.876,6.876 A9.7242,9.7242 0 0 1 6.876,-6.876 Z" stroke-linecap="round" fill="#e599f7"/></g></g><g transform="matrix(1, 0, 0, 1, 3353.3319, 24964.2882) scale(4.232983838485414, 4.232983838485414)" opacity="1"><g transform="scale(0.2362399759026261)"><path d="M-10.174,-1.271 T-9.1426,-9.3034 -6.3272,-22.6368 -4.5432,-27.9379 A10.2156,10.2156 0 0 1 14.6647,-20.9743 T13.3887,-17.8351 11.1434,-6.7124 10.174,1.271 A10.2531,10.2531 0 0 1 -10.174,-1.271 ZM2.3349,-34.3013 T3.1414,-34.524 3.9478,-34.7466 A10.2144,10.2144 0 0 1 9.3988,-15.0585 T8.5926,-14.8347 7.7865,-14.6109 A10.2156,10.2156 0 0 1 2.3349,-34.3013 ZM16.8766,-25.3792 T17.656,-11.3478 18.66,12.0569 16.7875,33.1041 14.6904,44.778 A10.7431,10.7431 0 0 1 -6.2304,39.882 T-4.3505,30.765 -2.482,12.3609 -3.0117,-10.676 -3.5299,-24.426 A10.2144,10.2144 0 0 1 16.8766,-25.3792 ZM-6.4702,41.3708 T-5.9822,40.08 -5.856,30.1122 -6.1859,12.6824 -5.0467,-2.919 -3.9393,-9.7674 A10.3244,10.3244 0 0 1 16.4353,-6.4138 T15.6259,2.3484 14.9675,21.9971 15.0243,38.0864 14.9302,43.2892 A10.7431,10.7431 0 0 1 -6.4702,41.3708 ZM4.5104,-18.2677 T5.0356,-18.3594 5.5608,-18.4511 A10.3283,10.3283 0 0 1 9.0372,1.9109 T8.5114,1.9987 7.9855,2.0865 A10.3244,10.3244 0 0 1 4.5104,-18.2677 ZM16.9185,-12.0303 T19.1613,-6.2849 23.0382,8.2241 25.9155,26.5767 27.5873,40.9364 28.0157,45.7071 A11.1185,11.1185 0 0 1 5.8443,47.4129 T5.5379,42.6328 4.5638,30.1969 2.446,13.2497 -0.6623,-0.2757 -2.3205,-4.5098 A10.3283,10.3283 0 0 1 16.9185,-12.0303 Z" stroke-linecap="round" fill="#e599f7"/></g></g><g transform="matrix(1, 0, 0, 1, 3332.1669, 25142.0735) scale(4.232983838485414, 4.232983838485414)" opacity="1"><g transform="scale(0.2362399759026261)"><path d="M6.8853,0.4915 T5.8451,14.5036 3.6616,44.1287 2.5182,59.7417 A6.7653,6.7653 0 0 1 -10.9782,58.7783 T-9.8924,43.1612 -7.8459,13.5264 -6.8853,-0.4915 A6.9028,6.9028 0 0 1 6.8853,0.4915 Z" stroke-linecap="round" fill="#e599f7"/></g></g><g transform="matrix(1, 0, 0, 1, 3395.6617, 25163.2385) scale(4.232983838485414, 4.232983838485414)" opacity="1"><g transform="scale(0.2362399759026261)"><path d="M11.1946,0 T11.087,4.0039 10.8186,16.1775 15.7368,33.2401 26.2538,36.3328 32.187,22.7968 25.6399,5.6351 12.7183,-8.7017 6.839,-13.6127 A9.5558,9.5558 0 0 1 18.561,-28.7073 T24.7749,-24.2271 41.2193,-9.0449 53.7051,12.5602 52.7813,33.7315 41.2056,51.9445 19.1711,58.5041 0.7435,51.0003 -7.352,34.8386 -10.8186,16.4017 -11.087,4.0039 -11.1946,0 A11.1946,11.1946 0 0 1 11.1946,0 Z" stroke-linecap="round" fill="#e599f7"/></g></g><g transform="matrix(1, 0, 0, 1, 1249.5389, 25285.995) scale(4.232983838485414, 4.232983838485414)" opacity="1"><g transform="scale(0.2362399759026261)"><path d="M9.392,-1.5641 T10.3904,4.4445 12.2587,22.4033 13.3532,46.3608 13.6368,69.8637 13.7311,93.1964 14.7981,118.8997 16.4093,143.3458 18.2486,161.977 20.2217,177.8124 21.5262,199.5201 22.2559,223.9815 19.8659,245.1895 17.3373,255.8597 A9.0643,9.0643 0 0 1 -0.3973,252.1003 T0.503,246.9474 2.0137,233.3629 2.3668,212.9071 1.149,186.9041 -1.1116,163.9205 -2.892,144.5208 -4.3529,119.5907 -5.3322,93.2461 -5.3965,70.024 -5.6843,46.9857 -6.647,24.4677 -8.3897,7.5697 -9.392,1.5641 A9.5213,9.5213 0 0 1 9.392,-1.5641 Z" stroke-linecap="round" fill="#e599f7"/></g></g><g transform="matrix(1, 0, 0, 1, 1283.4028, 25446.8484) scale(4.232983838485414, 4.232983838485414)" opacity="1"><g transform="scale(0.2362399759026261)"><path d="M-2.2874,9.1549 T-6.3054,8.2268 -17.7607,6.7516 -31.2672,7.0581 -37.3365,7.9118 A10.0313,10.0313 0 0 1 -39.5681,-12.0263 T-31.7564,-12.7262 -14.8185,-12.3632 -1.7025,-10.2276 2.2874,-9.1549 A9.4363,9.4363 0 0 1 -2.2874,9.1549 ZM-35.2577,-11.5662 T-29.7569,-9.839 -14.3119,-7.2662 0.1544,-6.0298 4.6765,-5.639 A9.8791,9.8791 0 0 1 3.7835,14.099 T-5.0607,14.0635 -22.8983,12.4993 -36.7693,9.2112 -41.6469,7.4517 A10.0313,10.0313 0 0 1 -35.2577,-11.5662 Z" stroke-linecap="round" fill="#e599f7"/></g></g><g transform="matrix(1, 0, 0, 1, 987.0939, 25438.3824) scale(4.232983838485414, 4.232983838485414)" opacity="1"><g transform="scale(0.2362399759026261)"><path d="M1.5432,-9.2558 T13.6308,-7.6933 33.8798,-5.3283 52.8642,-3.9222 75.5877,-4.5713 87.4882,-5.8238 A10.151,10.151 0 0 1 90.2918,14.2838 T76.468,16.6179 50.9944,17.8565 30.8415,15.4522 10.3976,11.6996 -1.5432,9.2558 A9.3836,9.3836 0 0 1 1.5432,-9.2558 Z" stroke-linecap="round" fill="#e599f7"/></g></g><g transform="matrix(1, 0, 0, 1, 1118.3164, 25387.5866) scale(4.232983838485414, 4.232983838485414)" opacity="1"><g transform="scale(0.2362399759026261)"><path d="M6.5378,-6.5378 T9.6792,-3.381 16.5578,12.1721 21.0042,45.1765 21.8974,81.4952 22.0815,97.2059 A9.3827,9.3827 0 0 1 3.3185,97.5141 T2.9863,81.8059 2.0207,46.7857 0.2905,19.8561 -3.6721,9.3881 -6.5378,6.5378 A9.2459,9.2459 0 0 1 6.5378,-6.5378 Z" stroke-linecap="round" fill="#e599f7"/></g></g><g transform="matrix(1, 0, 0, 1, 1118.3164, 25370.6547) scale(4.232983838485414, 4.232983838485414)" opacity="1"><g transform="scale(0.2362399759026261)"><path d="M2.1492,8.6018 T-1.8178,9.6624 -15.5261,15.761 -29.6512,22.948 -34.0349,25.097 A9.1228,9.1228 0 0 1 -42.1651,8.763 T-33.8925,4.5793 -17.9254,-3.1629 -6.1901,-7.6616 -2.1492,-8.6018 A8.8662,8.8662 0 0 1 2.1492,8.6018 Z" stroke-linecap="round" fill="#e599f7"/></g></g><g transform="matrix(1, 0, 0, 1, 3361.7978, 25446.8484) scale(4.232983838485414, 4.232983838485414)" opacity="1"><g transform="scale(0.2362399759026261)"><path d="M-1.464,10.2548 T-8.9894,8.9423 -22.5332,2.8813 -31.8456,-15.0703 -26.9651,-36.6132 -12.0103,-48.7765 7.3304,-52.0146 27.8767,-45.3307 40.8726,-29.9198 46.2571,-11.1431 39.8183,6.843 21.0369,17.9928 -2.4217,13.9977 -19.9267,0.447 -28.8389,-17.6126 -24.2468,-39.2202 -5.3696,-50.8397 14.3103,-48.0969 29.3024,-35.9396 37.9068,-16.2758 33.6879,4.4179 16.4884,17.2273 -1.9005,18.7341 -16.7702,11.6678 -29.2074,-5.202 -34.0879,-17.0083 A14.1315,14.1315 0 0 1 -6.5112,-23.1988 T-4.6022,-17.6856 4.4308,-9.9456 9.8465,-15.1289 0.2832,-26.0884 -4.8956,-22.7146 4.0215,-9.6291 17.8866,-6.1966 22.6934,-16.8929 14.2726,-29.9035 1.3201,-32.129 -8.7721,-20.4709 -5.0256,-10.9431 1.464,-10.2548 A10.3587,10.3587 0 0 1 -1.464,10.2548 ZM-29.163,-31.1098 T-26.2508,-33.4535 -11.6276,-39.1323 10.7196,-41.9186 30.6798,-34.3139 38.3793,-13.057 36.755,1.1441 A14.7723,14.7723 0 0 1 12.0094,-14.997 T11.9319,-14.7396 2.8923,-13.9521 -8.7529,-11.2596 -11.436,-9.0973 A14.1315,14.1315 0 0 1 -29.163,-31.1098 ZM18.0002,6.3961 T17.2421,6.0227 16.4841,5.6493 A14.7538,14.7538 0 0 1 29.2321,-20.9624 T29.9981,-20.6057 30.7642,-20.249 A14.7723,14.7723 0 0 1 18.0002,6.3961 ZM8.2906,-5.3193 T8.0594,-11.103 19.2069,-27.7592 30.5855,-38.6316 A14.9123,14.9123 0 0 1 42.57,-11.3209 T39.0025,-12.518 36.4302,-11.8544 37.4256,-9.9938 A14.7538,14.7538 0 0 1 8.2906,-5.3193 ZM51.2856,-27.4371 T52.5625,-19.0609 46.7973,-0.1076 32.5794,12.3111 16.9629,11.7708 2.1574,7.0956 -4.2076,4.8027 A13.9237,13.9237 0 0 1 4.2076,-21.7427 T13.9158,-17.6322 22.7469,-18.0186 21.8699,-22.5154 A14.9123,14.9123 0 0 1 51.2856,-27.4371 Z" stroke-linecap="round" fill="#e599f7"/></g></g><g transform="matrix(1, 0, 0, 1, 1744.798, 22716.5738) scale(4.232983838485414, 4.232983838485414)" opacity="1"><g transform="scale(0.2362399759026261)"><path d="M12.2761,4.0936 T10.1533,10.3351 -3.7509,22.8285 -25.7069,19.848 -36.9384,-4.3639 -35.8972,-29.4782 -28.6295,-47.5003 -16.251,-60.0481 6.3934,-64.0848 32.0613,-55.0783 46.5207,-35.5181 48.3016,-13.0499 33.8132,5.5421 10.1183,12.8238 -12.9501,7.5364 -32.3058,-8.4077 -38.6675,-32.2202 -31.1891,-51.1803 -18.0984,-59.6098 2.0904,-62.7723 27.506,-57.9661 47.1687,-41.7514 52.8161,-17.5257 45.2259,1.8292 28.7691,12.7928 4.7522,18.0634 -20.7728,12.4297 -39.3847,-2.834 -44.7548,-25.3419 -34.7202,-48.1575 -13.8285,-62.818 10.538,-68.0307 30.1531,-64.5286 42.5888,-53.82 51.9355,-33.5038 55.9646,-12.743 52.8101,2.1632 42.377,18.7865 27.1486,31.1105 11.8919,34.3608 -3.0911,31.49 -21.2462,18.5343 -36.5063,3.1547 -41.031,-2.2323 A15.4776,15.4776 0 0 1 -18.229,-23.1677 T-13.2471,-18.2004 -1.8797,-7.6971 11.8517,-3.5712 20.6464,-13.6185 17.8475,-29.8919 3.8022,-34.7946 -8.0492,-24.6744 -0.94,-16.1113 14.3151,-21.0391 12.6241,-30.5721 -1.3313,-28.9839 0.2108,-20.3157 14.4699,-20.4424 17.021,-30.8089 5.1273,-38.177 -7.2166,-29.3387 -13.8518,-6.1346 -14.1596,1.6791 -12.2761,-4.0936 A12.9406,12.9406 0 0 1 12.2761,4.0936 Z" stroke-linecap="round" fill="#4dabf7"/></g></g><g transform="matrix(1, 0, 0, 1, 3361.7978, 25425.6835) scale(4.232983838485414, 4.232983838485414)" opacity="1"><g transform="scale(0.2362399759026261)"><path d="M-3.7699,10.051 T-11.7969,6.805 -25.6681,-1.2968 -33.694,-17.6324 -24.6631,-36.7194 -2.3937,-38.8522 14.8676,-28.0099 25.2624,-14.3604 29.6745,6.4433 29.8961,18.9656 A11.5052,11.5052 0 0 1 7.3059,14.588 T8.0454,12.2465 7.3972,1.3769 -3.099,-11.3621 -4.2189,-12.8121 3.7699,-10.051 A10.7348,10.7348 0 0 1 -3.7699,10.051 ZM24.5207,26.6423 T19.888,28.928 4.0937,28.8875 -15.9365,17.1936 -27.035,0.3776 -27.6742,-14.3124 -16.302,-28.1127 4.7104,-33.0833 23.7298,-27.6665 38.5979,-19.4924 50.345,-3.3848 51.057,15.1508 38.6598,28.0274 18.3142,41.2495 -1.109,50.3752 -17.8496,52.2798 -36.1921,48.2029 -52.764,40.4883 -60.2148,36.7481 A12.4764,12.4764 0 0 1 -49.8452,14.0519 T-37.6587,19.4766 -15.6459,24.1517 4.6733,17.557 23.4161,8.8652 22.1411,0.3353 3.9868,-5.0897 1.8545,2.833 10.5165,8.7044 12.6813,6.9113 A11.5052,11.5052 0 0 1 24.5207,26.6423 Z" stroke-linecap="round" fill="#4dabf7"/></g></g><g transform="matrix(1, 0, 0, 1, 690.785, 25396.0526) scale(4.232983838485414, 4.232983838485414)" opacity="1"><g transform="scale(0.2362399759026261)"><path d="M-7.8997,5.5296 T-14.9669,-4.3463 -26.5487,-6.6963 -31.5483,12.6845 -29.835,34.6157 -19.0622,56.3037 -3.3145,77.7576 6.455,97.7506 5.3326,118.3612 -4.523,136.8959 -20.2605,152.4309 -40.711,163.0003 -60.8622,165.6229 -78.1945,158.1352 -87.848,148.0018 -89.4707,144.8697 A10.4194,10.4194 0 0 1 -71.3893,134.5103 T-66.463,139.4338 -51.3852,142.3667 -33.5935,134.7645 -19.5342,121.208 -13.6679,105.7352 -20.5216,89.2557 -33.5169,71.1738 -45.0827,50.1614 -50.7845,24.8451 -50.6472,-1.1975 -47.5753,-21.0644 -33.7088,-32.7492 -13.9711,-31.4987 0.9519,-15.6758 7.8997,-5.5296 A9.6427,9.6427 0 0 1 -7.8997,5.5296 Z" stroke-linecap="round" fill="#e599f7"/></g></g><g transform="matrix(1, 0, 0, 1, 703.484, 25468.0133) scale(4.232983838485414, 4.232983838485414)" opacity="1"><g transform="scale(0.2362399759026261)"><path d="M0.9281,8.3594 T-8.0546,9.6121 -28.7736,12.6674 -49.8944,19.5802 -59.2789,24.6906 A8.8295,8.8295 0 0 1 -67.7011,9.1694 T-56.2359,2.9662 -31.8879,-5.0502 -9.9667,-7.6113 -0.9281,-8.3594 A8.4107,8.4107 0 0 1 0.9281,8.3594 Z" stroke-linecap="round" fill="#e599f7"/></g></g><g transform="matrix(1, 0, 0, 1, 762.7457, 25366.4217) scale(4.232983838485414, 4.232983838485414)" opacity="1"><g transform="scale(0.2362399759026261)"><path d="M8.9127,7.4249 T3.8902,13.4104 -5.367,25.9965 -12.6117,39.5906 -18.1802,55.0666 -21.996,71.6171 -23.9124,88.825 -16.5905,114.4679 -3.2032,136.891 9.0577,150.2756 15.9119,157.74 A10.4597,10.4597 0 0 1 1.0281,172.44 T-6.3505,165.4935 -21.0969,151.5332 -37.6357,129.6843 -47.4733,105.4721 -47.233,85.9471 -44.6127,66.2594 -39.8201,46.9861 -32.8592,28.6813 -23.9313,12.3712 -13.8988,-1.3962 -8.9127,-7.4249 A11.6002,11.6002 0 0 1 8.9127,7.4249 Z" stroke-linecap="round" fill="#e599f7"/></g></g><g transform="matrix(1, 0, 0, 1, 771.2117, 25455.3143) scale(4.232983838485414, 4.232983838485414)" opacity="1"><g transform="scale(0.2362399759026261)"><path d="M4.7089,-6.2774 T8.7971,-3.4572 20.7662,0.3863 32.7544,0.8846 36.8616,0.3595 A8.2045,8.2045 0 0 1 39.3384,16.5805 T30.0029,17.8786 11.899,15.914 -0.7892,9.4643 -4.7089,6.2774 A7.8473,7.8473 0 0 1 4.7089,-6.2774 Z" stroke-linecap="round" fill="#e599f7"/></g></g><g transform="matrix(1, 0, 0, 1, 783.9107, 25391.8196) scale(4.232983838485414, 4.232983838485414)" opacity="1"><g transform="scale(0.2362399759026261)"><path d="M10.5591,-0.8792 T11.4989,11.1401 12.9765,32.6312 13.8488,51.1584 14.38,67.9735 16.3308,86.5095 18.7842,105.3462 19.4832,113.4067 A11.0485,11.0485 0 0 1 -2.5432,115.1733 T-3.1124,107.421 -5.2253,87.9244 -6.8654,68.5261 -7.1827,52.0783 -7.9205,34.091 -9.4982,12.8883 -10.5591,0.8792 A10.5956,10.5956 0 0 1 10.5591,-0.8792 ZM-2.489,115.6937 T-3.6415,106.7021 -5.5248,86.9179 -6.4321,63.4454 -6.6693,39.6036 -6.7676,22.2372 -6.8052,16.0327 A11.0464,11.0464 0 0 1 15.2876,15.9808 T15.2791,22.1726 15.3148,39.4377 15.56,62.8451 16.3899,84.6177 18.2238,103.4712 19.429,112.8863 A11.0485,11.0485 0 0 1 -2.489,115.6937 ZM14.7805,12.6981 T16.5885,18.4108 20.5735,34.7594 24.4841,57.0337 27.5121,82.0251 29.1532,106.7733 29.4999,118.1685 A12.5749,12.5749 0 0 1 4.3601,118.8715 T3.972,107.7859 2.967,84.9889 0.9988,60.7249 -2.079,37.7602 -5.0518,23.3319 -6.2981,19.3155 A11.0464,11.0464 0 0 1 14.7805,12.6981 ZM4.3551,118.52 T4.3925,114.29 4.4299,110.06 A12.5001,12.5001 0 0 1 29.4301,110.06 T29.4675,114.29 29.5049,118.52 A12.5749,12.5749 0 0 1 4.3551,118.52 Z" stroke-linecap="round" fill="#e599f7"/></g></g><g transform="matrix(1, 0, 0, 1, 830.4735, 25442.6154) scale(4.232983838485414, 4.232983838485414)" opacity="1"><g transform="scale(0.2362399759026261)"><path d="M11.5364,-1.9212 T12.4091,4.1086 14.8755,22.3888 23.8432,46.4769 36.0252,47.736 40.6045,25.9252 36.8626,7.0736 26.6006,-4.0012 19.8518,-7.4567 A10.9784,10.9784 0 0 1 30.9482,-26.4033 T35.7257,-23.8335 49.5557,-11.8283 62.505,11.423 64.8215,39.7829 60.3264,62.295 51.464,75.3618 38.012,81.2134 22.392,77.934 4.5201,56.4935 -7.2583,26.4877 -10.4083,7.9056 -11.5364,1.9212 A11.6953,11.6953 0 0 1 11.5364,-1.9212 Z" stroke-linecap="round" fill="#e599f7"/></g></g><g transform="matrix(1, 0, 0, 1, 864.3374, 25370.6547) scale(4.232983838485414, 4.232983838485414)" opacity="1"><g transform="scale(0.2362399759026261)"><path d="M9.1681,-7.3336 T17.1822,2.6778 30.8727,21.4832 39.9295,38.6774 45.9847,55.2498 51.0481,70.5083 54.9928,86.2939 57.3631,103.5673 58.614,119.6214 58.1658,139.7854 52.1874,159.9474 47.0939,167.4256 A12.8201,12.8201 0 0 1 26.4538,152.2136 T29.6302,145.9721 32.4562,126.9598 30.7872,99.7034 27.2729,77.9846 20.7257,56.8179 11.6047,35.1197 -1.1664,17.3443 -9.1681,7.3336 A11.7403,11.7403 0 0 1 9.1681,-7.3336 ZM27.5327,168.7053 T24.2138,164.7472 20.8948,160.7892 A12.1181,12.1181 0 0 1 38.3652,143.9908 T42.1901,147.4624 46.015,150.9339 A12.8201,12.8201 0 0 1 27.5327,168.7053 Z" stroke-linecap="round" fill="#e599f7"/></g></g><g transform="matrix(1, 0, 0, 1, 927.8321, 25425.6835) scale(4.232983838485414, 4.232983838485414)" opacity="1"><g transform="scale(0.2362399759026261)"><path d="M-1.8146,-6.3478 T5.2086,-8.2962 20.0538,-12.4256 27.8758,-14.6067 A6.3825,6.3825 0 0 1 31.3842,-2.3333 T23.5912,-0.0507 8.8064,4.2899 1.8146,6.3478 A6.6021,6.6021 0 0 1 -1.8146,-6.3478 Z" stroke-linecap="round" fill="#e599f7"/></g></g><g transform="matrix(1, 0, 0, 1, 936.2981, 25455.3143) scale(4.232983838485414, 4.232983838485414)" opacity="1"><g transform="scale(0.2362399759026261)"><path d="M0,-9.1266 T7.0075,-9.331 21.8225,-9.7252 29.63,-9.915 A9.915,9.915 0 0 1 29.63,9.915 T21.8225,9.7252 7.0075,9.331 0,9.1266 A9.1266,9.1266 0 0 1 0,-9.1266 Z" stroke-linecap="round" fill="#e599f7"/></g></g></svg>