<svg xmlns="http://www.w3.org/2000/svg" direction="ltr" width="1012.0536507035833" height="1125.133975123834" viewBox="123 563 1012.0536507035833 1125.133975123834" stroke-linecap="round" stroke-linejoin="round" style="background-color: transparent;"><defs/><g transform="matrix(1, 0, 0, 1, 328, 604)" opacity="1"><g transform="scale(1)"><path d="M0,0 Q0,2.28 0,3.1282 T0,4.6657 0,6.1862 0,7.6973 0,9.4313 0,11.5146 0,13.788 0,16.3927 0,19.1776 -0.228,22.0606 -0.58,24.769 -0.7715,27.1543 -0.9195,29.645 L-1,31 " stroke-linecap="round" fill="none" stroke="#4dabf7" stroke-width="3" stroke-dasharray="none" stroke-dashoffset="0"/></g></g><g transform="matrix(1, 0, 0, 1, 355, 619)" opacity="1"><g transform="scale(1)"><path d="M0,0 L3,1 " stroke-linecap="round" fill="none" stroke="#4dabf7" stroke-width="3" stroke-dasharray="none" stroke-dashoffset="0"/></g></g><g transform="matrix(1, 0, 0, 1, 356, 652)" opacity="1"><g transform="scale(1)"><path d="M0,0 Q-2.28,0.912 -3.5842,1.1601 T-6.7378,1.7711 -10.9614,2.3315 -15.995,2.8643 -21.4693,3.6102 -27.1833,4.4719 -33.0277,5.3967 -38.7151,6.3558 -43.861,7.1056 -48.4844,7.7414 -52.8235,8.3153 -56.78,8.8555 -60.3003,9.3774 -63.9918,9.7806 L-66,10 " stroke-linecap="round" fill="none" stroke="#4dabf7" stroke-width="3" stroke-dasharray="none" stroke-dashoffset="0"/></g></g><g transform="matrix(1, 0, 0, 1, 298, 684)" opacity="1"><g transform="scale(1)"><path d="M0,0 Q0,2.736 0,4.1642 T0,7.0533 0.228,9.993 0.58,12.7322 0.7715,15.3623 0.9195,18.366 L1,20 " stroke-linecap="round" fill="none" stroke="#4dabf7" stroke-width="3" stroke-dasharray="none" stroke-dashoffset="0"/></g></g><g transform="matrix(1, 0, 0, 1, 316, 691)" opacity="1"><g transform="scale(1)"><path d="M0,0 Q1.368,0.456 1.9681,0.58 T3.1226,0.7715 4.2067,0.8757 5.4805,0.9324 6.8574,0.9632 8.0624,0.98 9.4019,0.7611 11.0427,0.414 12.958,0.1459 L14,0 " stroke-linecap="round" fill="none" stroke="#4dabf7" stroke-width="3" stroke-dasharray="none" stroke-dashoffset="0"/></g></g><g transform="matrix(1, 0, 0, 1, 355, 681)" opacity="1"><g transform="scale(1)"><path d="M0,0 Q0,2.736 -0.228,3.9362 T-1.036,6.4733 -2.6156,9.2215 -4.6149,11.8565 -6.6145,14.2019 -8.6143,16.1618 -10.6142,17.456 -12.8071,18.456 L-14,19 " stroke-linecap="round" fill="none" stroke="#4dabf7" stroke-width="3" stroke-dasharray="none" stroke-dashoffset="0"/></g></g><g transform="matrix(1, 0, 0, 1, 344, 686)" opacity="1"><g transform="scale(1)"><path d="M0,0 Q1.824,3.192 2.7761,4.5162 T4.7022,7.0168 6.662,9.0612 8.4121,10.6293 10.0482,11.7103 11.8502,12.2984 13.8902,12.7528 L15,13 " stroke-linecap="round" fill="none" stroke="#4dabf7" stroke-width="3" stroke-dasharray="none" stroke-dashoffset="0"/></g></g><g transform="matrix(1, 0, 0, 1, 393, 646)" opacity="1"><g transform="scale(1)"><path d="M0,0 Q2.28,1.368 3.1282,1.7401 T4.6657,2.3146 5.9582,2.3991 7.1172,2.2171 8.2038,1.8901 9.2509,1.2562 10.2765,0.6834 11.2904,0.1438 12.3977,-0.597 L13,-1 " stroke-linecap="round" fill="none" stroke="#4dabf7" stroke-width="3" stroke-dasharray="none" stroke-dashoffset="0"/></g></g><g transform="matrix(1, 0, 0, 1, 391, 657)" opacity="1"><g transform="scale(1)"><path d="M0,0 Q1.824,0.456 2.3201,0.352 T3.5421,0.1915 5.1189,-0.1238 7.1167,-0.5234 9.1155,-0.7407 10.8868,-0.8589 12.9031,-0.9503 L14,-1 " stroke-linecap="round" fill="none" stroke="#4dabf7" stroke-width="3" stroke-dasharray="none" stroke-dashoffset="0"/></g></g><g transform="matrix(1, 0, 0, 1, 441, 644)" opacity="1"><g transform="scale(1)"><path d="M0,0 Q-1.368,-1.368 -1.9681,-1.5121 T-3.3506,-1.5066 -5.0148,-0.5916 -6.604,1.2742 -8.1526,3.8852 -9.451,6.6735 -10.1573,9.3304 -10.5416,11.9157 -10.2946,14.0062 -9.0203,15.3714 -7.187,15.658 -5.0497,14.902 -2.9751,13.8067 -0.9344,12.0708 1.0877,9.7585 2.4157,7.8166 3.1381,6.0763 3.5311,5.1295 3.7449,5.2984 3.8612,5.8464 4.1525,7.2844 4.767,9.6627 5.5572,12.0965 6.6711,14.3325 7.9611,16.0049 9.8028,17.1427 12.5212,18.3456 L14,19 " stroke-linecap="round" fill="none" stroke="#4dabf7" stroke-width="3" stroke-dasharray="none" stroke-dashoffset="0"/></g></g><g transform="matrix(1, 0, 0, 1, 624, 595)" opacity="1"><g transform="scale(1)"><path d="M0,0 Q0,2.28 0,3.3562 T0,5.9298 0,9.6098 0,14.8037 0,21.2772 -0.228,28.4468 -0.58,35.7671 -0.9995,43.3973 -1.4557,50.0561 -1.9319,55.0465 -2.419,59.3573 -2.7953,63.6596 L-3,66 " stroke-linecap="round" fill="none" stroke="#4dabf7" stroke-width="3" stroke-dasharray="none" stroke-dashoffset="0"/></g></g><g transform="matrix(1, 0, 0, 1, 321, 685)" opacity="1"><g transform="scale(1)"><path d="M0,0 Q0.456,1.824 0.58,2.7761 T0.9995,4.7022 1.4557,6.89 1.7039,9.2202 1.8389,11.6278 1.9433,14.4595 L2,16 " stroke-linecap="round" fill="none" stroke="#4dabf7" stroke-width="3" stroke-dasharray="none" stroke-dashoffset="0"/></g></g><g transform="matrix(1, 0, 0, 1, 653, 631)" opacity="1"><g transform="scale(1)"><path d="M0,0 Q0.456,-1.368 0.58,-1.9681 T0.7715,-2.6666 1.1037,-2.5907 1.6842,-2.2081 L2,-2 " stroke-linecap="round" fill="none" stroke="#4dabf7" stroke-width="3" stroke-dasharray="none" stroke-dashoffset="0"/></g></g><g transform="matrix(1, 0, 0, 1, 676, 607)" opacity="1"><g transform="scale(1)"><path d="M0,0 Q-0.912,2.28 -1.3881,3.5842 T-2.3511,6.2818 -3.331,9.3453 -4.3201,13.0638 -5.0861,17.3667 -5.5028,22.4435 -5.7295,27.2573 -5.8529,31.016 -5.692,34.4287 -5.3764,37.4252 -4.9768,39.7393 -4.3441,41.8512 L-4,43 " stroke-linecap="round" fill="none" stroke="#4dabf7" stroke-width="3" stroke-dasharray="none" stroke-dashoffset="0"/></g></g><g transform="matrix(1, 0, 0, 1, 687, 619)" opacity="1"><g transform="scale(1)"><path d="M0,0 Q0.456,3.192 0.58,5.2002 T0.7715,9.2129 0.8757,12.7638 0.9324,15.8355 0.9632,18.8745 0.752,21.4397 0.265,23.7456 L0,25 " stroke-linecap="round" fill="none" stroke="#4dabf7" stroke-width="3" stroke-dasharray="none" stroke-dashoffset="0"/></g></g><g transform="matrix(1, 0, 0, 1, 705, 626)" opacity="1"><g transform="scale(1)"><path d="M0,0 Q0.912,3.192 1.1601,4.5162 T1.5431,7.0168 1.7514,9.2892 1.6368,11.4373 1.2244,13.7447 L1,15 " stroke-linecap="round" fill="none" stroke="#4dabf7" stroke-width="3" stroke-dasharray="none" stroke-dashoffset="0"/></g></g><g transform="matrix(1, 0, 0, 1, 710, 631)" opacity="1"><g transform="scale(1)"><path d="M0,0 Q-2.736,0.456 -3.9362,0.58 T-6.4733,0.5435 -9.4051,0.1915 L-11,0 " stroke-linecap="round" fill="none" stroke="#4dabf7" stroke-width="3" stroke-dasharray="none" stroke-dashoffset="0"/></g></g><g transform="matrix(1, 0, 0, 1, 730, 624)" opacity="1"><g transform="scale(1)"><path d="M0,0 Q0.912,0.456 0.9321,1.036 T0.507,2.3876 -0.6362,4.0349 -2.1701,5.843 -3.9165,7.5106 -5.7786,8.8738 -7.865,10.2509 L-9,11 " stroke-linecap="round" fill="none" stroke="#4dabf7" stroke-width="3" stroke-dasharray="none" stroke-dashoffset="0"/></g></g><g transform="matrix(1, 0, 0, 1, 719, 626)" opacity="1"><g transform="scale(1)"><path d="M0,0 Q2.28,2.736 3.3562,3.9362 T5.2458,6.0173 6.5017,7.6054 7.6409,8.9253 9.1688,10.269 L10,11 " stroke-linecap="round" fill="none" stroke="#4dabf7" stroke-width="3" stroke-dasharray="none" stroke-dashoffset="0"/></g></g><g transform="matrix(1, 0, 0, 1, 733, 614)" opacity="1"><g transform="scale(1)"><path d="M0,0 Q1.824,2.736 2.5481,4.1642 T3.8942,7.2813 4.8544,11.029 5.3768,15.3478 5.661,19.7492 5.5876,23.7396 5.0916,27.2783 4.3659,30.1154 3.287,32.1148 2.0161,33.6584 0.7104,35.175 L0,36 " stroke-linecap="round" fill="none" stroke="#4dabf7" stroke-width="3" stroke-dasharray="none" stroke-dashoffset="0"/></g></g><g transform="matrix(1, 0, 0, 1, 262, 661)" opacity="1"><g transform="scale(1)"><path d="M0,0 L0,2 " stroke-linecap="round" fill="none" stroke="#4dabf7" stroke-width="3" stroke-dasharray="none" stroke-dashoffset="0"/></g></g><g transform="matrix(1, 0, 0, 1, 179, 638)" opacity="1"><g transform="scale(1)"><path d="M0,0 Q-0.912,3.192 -1.6161,4.7442 T-2.9311,8.0529 -4.1025,11.6768 -4.9678,15.7002 -5.4385,20.1689 -5.6945,24.6519 -5.6058,28.6866 -5.1016,32.0215 -4.3713,34.7477 -3.29,36.6868 -1.8068,38.185 L-1,39 " stroke-linecap="round" fill="none" stroke="#4dabf7" stroke-width="3" stroke-dasharray="none" stroke-dashoffset="0"/></g></g><g transform="matrix(1, 0, 0, 1, 192, 651)" opacity="1"><g transform="scale(1)"><path d="M0,0 Q0.912,2.28 1.1601,3.3562 T1.5431,5.7018 1.7514,8.3458 1.8648,11.3801 1.9264,14.3988 1.96,16.9529 1.7502,19.0264 1.2643,20.9523 L1,22 " stroke-linecap="round" fill="none" stroke="#4dabf7" stroke-width="3" stroke-dasharray="none" stroke-dashoffset="0"/></g></g><g transform="matrix(1, 0, 0, 1, 211, 654)" opacity="1"><g transform="scale(1)"><path d="M0,0 Q0.912,1.824 1.3881,2.7761 T2.1231,4.7022 2.523,6.662 2.7405,8.8681 2.8588,10.9803 2.9232,12.5853 2.7302,13.9144 2.2573,15.2652 L2,16 " stroke-linecap="round" fill="none" stroke="#4dabf7" stroke-width="3" stroke-dasharray="none" stroke-dashoffset="0"/></g></g><g transform="matrix(1, 0, 0, 1, 216, 663)" opacity="1"><g transform="scale(1)"><path d="M0,0 Q-2.28,0.456 -3.64,0.728 L-5,1 " stroke-linecap="round" fill="none" stroke="#4dabf7" stroke-width="3" stroke-dasharray="none" stroke-dashoffset="0"/></g></g><g transform="matrix(1, 0, 0, 1, 236, 657)" opacity="1"><g transform="scale(1)"><path d="M0,0 Q0,1.824 -0.456,3.0041 T-1.8441,5.2822 -3.7392,7.4335 -5.4541,9.5158 -7.299,11.3326 -9.696,13.0602 L-11,14 " stroke-linecap="round" fill="none" stroke="#4dabf7" stroke-width="3" stroke-dasharray="none" stroke-dashoffset="0"/></g></g><g transform="matrix(1, 0, 0, 1, 226, 655)" opacity="1"><g transform="scale(1)"><path d="M0,0 Q1.368,2.28 1.9681,3.3562 T3.1226,5.2458 4.2067,6.9577 5.0245,8.801 5.6973,10.4877 6.5193,12.0893 7.4225,13.6446 8.4442,15.1701 L9,16 " stroke-linecap="round" fill="none" stroke="#4dabf7" stroke-width="3" stroke-dasharray="none" stroke-dashoffset="0"/></g></g><g transform="matrix(1, 0, 0, 1, 239, 647)" opacity="1"><g transform="scale(1)"><path d="M0,0 Q3.192,0.912 4.5162,1.3881 T6.7888,2.5791 8.7091,4.367 10.4378,6.7077 11.6061,9.805 12.4697,13.5419 12.9395,17.3988 12.7391,21.3209 11.9461,24.8226 10.3747,27.6395 8.1518,30.0839 5.3466,31.8696 1.8838,33.2494 L0,34 " stroke-linecap="round" fill="none" stroke="#4dabf7" stroke-width="3" stroke-dasharray="none" stroke-dashoffset="0"/></g></g><g transform="matrix(1, 0, 0, 1, 462, 650)" opacity="1"><g transform="scale(1)"><path d="M0,0 L1,3 " stroke-linecap="round" fill="none" stroke="#4dabf7" stroke-width="3" stroke-dasharray="none" stroke-dashoffset="0"/></g></g><g transform="matrix(1, 0, 0, 1, 488, 628)" opacity="1"><g transform="scale(1)"><path d="M0,0 Q-1.368,3.192 -1.9681,4.5162 T-3.3506,7.4728 -5.0148,11.5892 -6.604,16.3365 -7.6966,20.2871 -8.2909,23.8042 -8.6143,27.3135 -8.5622,30.8185 -8.0778,33.8653 -7.3583,35.9787 -6.4786,37.9355 L-6,39 " stroke-linecap="round" fill="none" stroke="#4dabf7" stroke-width="3" stroke-dasharray="none" stroke-dashoffset="0"/></g></g><g transform="matrix(1, 0, 0, 1, 496, 640)" opacity="1"><g transform="scale(1)"><path d="M0,0 Q0.456,2.28 0.58,3.5842 T0.7715,6.9658 0.8757,11.0854 0.9324,14.4664 0.9632,17.4457 0.987,21.0431 L1,23 " stroke-linecap="round" fill="none" stroke="#4dabf7" stroke-width="3" stroke-dasharray="none" stroke-dashoffset="0"/></g></g><g transform="matrix(1, 0, 0, 1, 510, 645)" opacity="1"><g transform="scale(1)"><path d="M0,0 Q1.368,0.912 1.7401,1.6161 T2.3146,3.3871 2.6271,5.7186 2.7972,8.5829 2.8897,11.2811 2.94,13.4329 2.9789,15.7432 L3,17 " stroke-linecap="round" fill="none" stroke="#4dabf7" stroke-width="3" stroke-dasharray="none" stroke-dashoffset="0"/></g></g><g transform="matrix(1, 0, 0, 1, 518, 654)" opacity="1"><g transform="scale(1)"><path d="M0,0 Q-2.736,0 -3.7082,0 T-5.6653,0 -7.6419,0 -9.8168,0 L-11,0 " stroke-linecap="round" fill="none" stroke="#4dabf7" stroke-width="3" stroke-dasharray="none" stroke-dashoffset="0"/></g></g><g transform="matrix(1, 0, 0, 1, 533, 645)" opacity="1"><g transform="scale(1)"><path d="M0,0 Q0,1.368 -0.456,2.1961 T-1.6161,4.1587 -3.1591,6.3663 -5.1386,8.7073 -7.3554,10.8928 -9.2453,12.5377 -11.0294,14.1324 L-12,15 " stroke-linecap="round" fill="none" stroke="#4dabf7" stroke-width="3" stroke-dasharray="none" stroke-dashoffset="0"/></g></g><g transform="matrix(1, 0, 0, 1, 523, 649)" opacity="1"><g transform="scale(1)"><path d="M0,0 Q1.824,2.736 2.5481,3.9362 T3.8942,6.0173 4.8544,7.6054 5.6048,8.9253 6.5084,10.269 L7,11 " stroke-linecap="round" fill="none" stroke="#4dabf7" stroke-width="3" stroke-dasharray="none" stroke-dashoffset="0"/></g></g><g transform="matrix(1, 0, 0, 1, 535, 634)" opacity="1"><g transform="scale(1)"><path d="M0,0 Q1.824,2.28 2.5481,3.3562 T4.1222,6.1578 5.6625,9.5058 6.7284,13.6072 7.3082,18.1183 7.6237,22.1684 7.5673,25.9676 6.6246,29.4024 4.5158,32.6389 2.0006,35.3116 -0.5905,37.7004 L-2,39 " stroke-linecap="round" fill="none" stroke="#4dabf7" stroke-width="3" stroke-dasharray="none" stroke-dashoffset="0"/></g></g><g transform="matrix(1, 0, 0, 1, 252, 631)" opacity="1"><g transform="scale(1)"><path d="M0,0 Q-2.28,2.28 -4.4962,4.0402 T-9.9699,8.3538 -17.5076,14.1205 -27.3082,20.9055 -38.5676,27.7886 -49.9368,33.813 -60.9096,38.6863 -70.7548,42.4773 -79.0746,45.4517 -86.1086,47.7537 -93.1626,49.8562 L-97,51 " stroke-linecap="round" fill="none" stroke="#4dabf7" stroke-width="3" stroke-dasharray="none" stroke-dashoffset="0"/></g></g><g transform="matrix(1, 0, 0, 1, 545, 620)" opacity="1"><g transform="scale(1)"><path d="M0,0 L2,2 " stroke-linecap="round" fill="none" stroke="#4dabf7" stroke-width="3" stroke-dasharray="none" stroke-dashoffset="0"/></g></g><g transform="matrix(1, 0, 0, 1, 367, 673)" opacity="1"><g transform="scale(1)"><path d="M0,0 Q-2.28,1.368 -4.2682,2.6521 T-9.1619,5.7747 -15.7001,9.7535 -23.1328,14.1979 -30.5963,18.6676 -37.8484,23.1512 -44.7575,27.4143 -51.0241,30.8734 -56.7131,33.8951 -61.6319,36.6789 -65.4478,38.8773 -68.4356,40.3013 -71.3918,41.4015 L-73,42 " stroke-linecap="round" fill="none" stroke="#4dabf7" stroke-width="3" stroke-dasharray="none" stroke-dashoffset="0"/></g></g><g transform="matrix(1, 0, 0, 1, 326, 809)" opacity="1"><g transform="scale(1)"><path d="M0,0 Q0.456,-0.912 0.58,-0.9321 T0.7715,-0.507 0.8757,0.8642 0.9324,2.9781 0.9632,5.7241 0.752,9.2699 0.4091,13.4788 0.2225,17.5925 0.1211,20.9703 -0.1621,23.2638 -0.5442,24.0555 -0.8394,24.0196 L-1,24 " stroke-linecap="round" fill="none" stroke="#4dabf7" stroke-width="3" stroke-dasharray="none" stroke-dashoffset="0"/></g></g><g transform="matrix(1, 0, 0, 1, 365, 815)" opacity="1"><g transform="scale(1)"><path d="M0,0 Q1.368,0.912 1.9681,0.9321 T3.1226,0.963 4.4347,0.7519 5.8325,0.181 7.0489,-0.3575 8.1666,-0.8785 9.354,-1.6049 L10,-2 " stroke-linecap="round" fill="none" stroke="#4dabf7" stroke-width="3" stroke-dasharray="none" stroke-dashoffset="0"/></g></g><g transform="matrix(1, 0, 0, 1, 365, 824)" opacity="1"><g transform="scale(1)"><path d="M0,0 Q1.368,0.456 1.9681,0.58 T3.5786,0.5435 5.5948,0.2957 7.6036,0.1609 9.8363,0.0875 12.533,0.0308 L14,0 " stroke-linecap="round" fill="none" stroke="#4dabf7" stroke-width="3" stroke-dasharray="none" stroke-dashoffset="0"/></g></g><g transform="matrix(1, 0, 0, 1, 412, 817)" opacity="1"><g transform="scale(1)"><path d="M0,0 Q-1.368,0.456 -2.1961,1.036 T-3.7027,2.1596 -4.9783,3.4548 -5.9002,5.0714 -6.4017,6.8629 -6.6745,8.5214 -6.8229,9.8796 -6.6757,10.8465 -5.9116,11.3725 -4.5839,11.4306 -3.1776,11.0063 -1.9566,10.3194 -0.6084,9.0338 0.809,7.1944 1.8081,5.9657 2.5796,5.7534 3.2273,6.3218 3.5797,7.3151 3.9993,8.5394 4.6836,9.8894 5.7399,11.0799 6.9985,11.9554 8.3672,12.4318 10.0724,12.7998 L11,13 " stroke-linecap="round" fill="none" stroke="#4dabf7" stroke-width="3" stroke-dasharray="none" stroke-dashoffset="0"/></g></g><g transform="matrix(1, 0, 0, 1, 443, 802)" opacity="1"><g transform="scale(1)"><path d="M0,0 Q-0.456,0.456 -0.808,1.036 T-1.5796,2.3876 -2.6833,4.7189 -3.7397,8.2671 -4.5424,12.4773 -5.2071,16.8196 -5.3406,20.5499 -4.9573,23.9471 -4.0648,27.1632 -2.8952,29.5968 -1.575,31.1487 0.0552,31.9929 1.9625,32.6452 L3,33 " stroke-linecap="round" fill="none" stroke="#4dabf7" stroke-width="3" stroke-dasharray="none" stroke-dashoffset="0"/></g></g><g transform="matrix(1, 0, 0, 1, 461, 809)" opacity="1"><g transform="scale(1)"><path d="M0,0 Q0.456,3.192 0.58,4.7442 T0.7715,7.3689 0.8757,9.9367 0.9324,12.9295 0.9762,16.2135 L1,18 " stroke-linecap="round" fill="none" stroke="#4dabf7" stroke-width="3" stroke-dasharray="none" stroke-dashoffset="0"/></g></g><g transform="matrix(1, 0, 0, 1, 479, 809)" opacity="1"><g transform="scale(1)"><path d="M0,0 Q0.456,3.648 0.58,5.0963 T0.7715,7.7884 0.8757,10.1649 0.9324,12.3697 1.1912,14.2531 1.715,16.0322 L2,17 " stroke-linecap="round" fill="none" stroke="#4dabf7" stroke-width="3" stroke-dasharray="none" stroke-dashoffset="0"/></g></g><g transform="matrix(1, 0, 0, 1, 484, 815)" opacity="1"><g transform="scale(1)"><path d="M0,0 Q-0.912,0.912 -1.3881,1.1601 T-2.8071,1.7711 -4.7191,2.3315 -6.4432,2.6363 -8.0651,2.8022 -9.9659,2.9303 L-11,3 " stroke-linecap="round" fill="none" stroke="#4dabf7" stroke-width="3" stroke-dasharray="none" stroke-dashoffset="0"/></g></g><g transform="matrix(1, 0, 0, 1, 502, 811)" opacity="1"><g transform="scale(1)"><path d="M0,0 Q1.368,0.456 1.7401,0.808 T2.0866,2.0356 1.3631,4.2993 -0.1705,7.1268 -1.6887,9.577 -3.1987,11.8219 -4.9321,13.7271 -6.559,14.9915 -8.14,16.2924 L-9,17 " stroke-linecap="round" fill="none" stroke="#4dabf7" stroke-width="3" stroke-dasharray="none" stroke-dashoffset="0"/></g></g><g transform="matrix(1, 0, 0, 1, 494, 812)" opacity="1"><g transform="scale(1)"><path d="M0,0 Q1.824,2.736 2.7761,4.1642 T4.7022,7.2813 6.662,10.573 8.6401,13.5037 10.6282,16.238 12.6218,19.0935 14.8462,22.0149 17.5365,25.2436 L19,27 " stroke-linecap="round" fill="none" stroke="#4dabf7" stroke-width="3" stroke-dasharray="none" stroke-dashoffset="0"/></g></g><g transform="matrix(1, 0, 0, 1, 513, 801)" opacity="1"><g transform="scale(1)"><path d="M0,0 Q1.824,1.368 2.5481,1.9681 T4.1222,4.0346 5.6625,6.7548 7.4124,10.5146 9.0483,15.068 10.1663,19.825 11.0025,25.8328 11.2293,31.609 10.8968,36.1193 10.0318,39.7129 8.1933,42.1238 5.4774,43.9866 L4,45 " stroke-linecap="round" fill="none" stroke="#4dabf7" stroke-width="3" stroke-dasharray="none" stroke-dashoffset="0"/></g></g><g transform="matrix(1, 0, 0, 1, 327, 891)" opacity="1"><g transform="scale(1)"><path d="M0,0 Q0,1.824 0,2.5481 T0,3.8942 0,5.5384 0,7.5729 0,9.5917 0,11.8299 0,14.1874 0,16.154 0,17.9078 0,19.9105 L0,21 " stroke-linecap="round" fill="none" stroke="#4dabf7" stroke-width="3" stroke-dasharray="none" stroke-dashoffset="0"/></g></g><g transform="matrix(1, 0, 0, 1, 354, 896)" opacity="1"><g transform="scale(1)"><path d="M0,0 Q1.824,0.456 2.5481,0.58 T3.8942,0.5435 5.0824,0.2957 6.1848,0.1609 7.2406,-0.1405 8.4989,-0.5324 10.1188,-0.8353 L11,-1 " stroke-linecap="round" fill="none" stroke="#4dabf7" stroke-width="3" stroke-dasharray="none" stroke-dashoffset="0"/></g></g><g transform="matrix(1, 0, 0, 1, 357, 902)" opacity="1"><g transform="scale(1)"><path d="M0,0 Q1.368,0.456 1.9681,0.58 T3.3506,0.7715 4.7868,0.8757 6.252,0.9324 8.0318,0.9762 L9,1 " stroke-linecap="round" fill="none" stroke="#4dabf7" stroke-width="3" stroke-dasharray="none" stroke-dashoffset="0"/></g></g><g transform="matrix(1, 0, 0, 1, 405, 897)" opacity="1"><g transform="scale(1)"><path d="M0,0 Q-0.456,-1.368 -0.808,-1.7401 T-1.5796,-2.3146 -2.4553,-2.6271 -3.3877,-2.5692 -4.5789,-1.8536 -5.9109,-0.7804 -7.0915,0.4875 -8.1898,1.8612 -9.0152,3.2925 -9.4643,4.7551 -9.7086,6.0068 -9.6135,7.1437 -9.1057,7.9902 -8.1455,8.6787 -6.9392,9.2812 -5.5989,9.609 -4.1858,9.5593 -2.7331,9.0762 -1.2588,8.5855 -0.2288,8.0905 0.5595,7.3652 1.2164,6.5147 1.5737,5.596 1.7681,4.6402 1.8738,3.6643 1.9314,3.1334 1.9627,3.3006 2.2077,4.0755 2.797,5.1811 3.5736,6.4665 4.68,7.8498 5.9659,9.0583 7.3495,10.1717 8.7861,10.7774 10.22,10.9216 L11,11 " stroke-linecap="round" fill="none" stroke="#4dabf7" stroke-width="3" stroke-dasharray="none" stroke-dashoffset="0"/></g></g><g transform="matrix(1, 0, 0, 1, 437, 892)" opacity="1"><g transform="scale(1)"><path d="M0,0 Q0.456,2.28 0.58,3.8122 T0.7715,6.4058 0.8757,8.7288 0.9562,11.4951 L1,13 " stroke-linecap="round" fill="none" stroke="#4dabf7" stroke-width="3" stroke-dasharray="none" stroke-dashoffset="0"/></g></g><g transform="matrix(1, 0, 0, 1, 442, 897)" opacity="1"><g transform="scale(1)"><path d="M0,0 Q-2.28,0.456 -3.1282,0.58 T-4.8937,0.7715 -6.9056,0.9195 L-8,1 " stroke-linecap="round" fill="none" stroke="#4dabf7" stroke-width="3" stroke-dasharray="none" stroke-dashoffset="0"/></g></g><g transform="matrix(1, 0, 0, 1, 472, 892)" opacity="1"><g transform="scale(1)"><path d="M0,0 Q-1.368,-0.456 -1.9681,-0.352 T-3.3506,0.0365 -4.7868,0.7039 -6.252,1.7509 -7.7331,3.2325 -8.9948,4.9505 -10.1372,6.5691 -10.9866,8.1336 -11.4487,9.6687 -11.4721,10.9598 -10.5728,11.8901 -8.9436,12.3962 -7.3733,12.6715 -6.0631,12.5933 -4.4383,11.8668 -2.6424,10.5595 -1.2095,9.1644 -0.202,7.9494 0.5741,6.8325 1.2243,5.7689 1.578,4.7343 1.5425,3.9434 1.2951,3.7412 1.1605,4.0872 1.0873,4.9595 1.0475,6.1179 1.2538,7.4322 1.8221,9.0591 2.8152,10.6281 4.2675,11.9377 6.0372,13.2734 L7,14 " stroke-linecap="round" fill="none" stroke="#4dabf7" stroke-width="3" stroke-dasharray="none" stroke-dashoffset="0"/></g></g><g transform="matrix(1, 0, 0, 1, 502, 892)" opacity="1"><g transform="scale(1)"><path d="M0,0 Q0,0.912 -0.228,1.6161 T-1.036,3.6151 -2.3876,6.0706 -3.8069,8.3184 -5.0349,10.2252 -6.159,11.7185 -7.2265,12.7589 -8.2632,13.0968 -9.3881,13.0341 L-10,13 " stroke-linecap="round" fill="none" stroke="#4dabf7" stroke-width="3" stroke-dasharray="none" stroke-dashoffset="0"/></g></g><g transform="matrix(1, 0, 0, 1, 492, 892)" opacity="1"><g transform="scale(1)"><path d="M0,0 Q1.824,1.824 2.5481,2.7761 T4.1222,4.7022 5.6625,6.662 6.9564,8.4121 8.3443,10.0482 10.0113,11.8502 11.6021,13.5145 13.1516,14.8759 14.9964,16.2516 L16,17 " stroke-linecap="round" fill="none" stroke="#4dabf7" stroke-width="3" stroke-dasharray="none" stroke-dashoffset="0"/></g></g><g transform="matrix(1, 0, 0, 1, 506.1635, 889.8501) scale(0.6498652836054536, 0.6498652836054536)" opacity="1"><g transform="scale(1.5387804599316315)"><path d="M0,0 Q0.5928,2.0748 0.754,2.9355 T1.003,4.5609 1.1384,5.8897 1.2121,6.909 1.269,7.9071 L1.3,8.45 " stroke-linecap="round" fill="none" stroke="#4dabf7" stroke-width="1.9495958508163609" stroke-dasharray="none" stroke-dashoffset="0"/></g></g><g transform="matrix(1, 0, 0, 1, 657.9918, 894.3074) scale(1.361033765555772, 1.361033765555772)" opacity="1"><g transform="scale(0.7347356291279478)"><path d="M0,0 Q3.1054,1.2403 4.5702,1.5777 T7.1419,2.0986 9.1611,2.3819 11.4999,2.226 14.0125,1.8311 16.3119,1.3062 18.9726,0.4602 L20.42,0 " stroke-linecap="round" fill="none" stroke="#4dabf7" stroke-width="4.083101296667316" stroke-dasharray="none" stroke-dashoffset="0"/></g></g><g transform="matrix(1, 0, 0, 1, 636.2153, 865.7257) scale(1.361033765555772, 1.361033765555772)" opacity="1"><g transform="scale(0.7347356291279478)"><path d="M0,0 Q0.6202,4.9658 0.7888,6.9367 T1.0493,12.4626 1.191,19.5021 1.268,26.4346 1.6201,32.6888 2.1216,37.6415 2.3945,42.1985 2.6053,47.4845 L2.72,50.36 " stroke-linecap="round" fill="none" stroke="#4dabf7" stroke-width="4.083101296667316" stroke-dasharray="none" stroke-dashoffset="0"/></g></g><g transform="matrix(1, 0, 0, 1, 702.9059, 892.9463) scale(1.361033765555772, 1.361033765555772)" opacity="1"><g transform="scale(0.7347356291279478)"><path d="M0,0 Q1.8605,-3.1054 2.0565,-3.95 T2.0489,-4.9418 1.4247,-4.5488 0.465,-3.0947 -0.6773,-1.0634 -1.6088,1.282 -2.4256,3.8005 -3.18,6.4131 -3.5904,8.7647 -3.5036,10.0439 -2.5261,10.1196 -1.0641,9.5407 0.3514,8.2932 2.0516,6.6821 3.9091,5.8056 5.542,5.9512 7.0504,6.6529 8.8013,8.2749 10.9941,10.3977 13.1172,12.1726 15.198,13.9844 L16.33,14.97 " stroke-linecap="round" fill="none" stroke="#4dabf7" stroke-width="4.083101296667316" stroke-dasharray="none" stroke-dashoffset="0"/></g></g><g transform="matrix(1, 0, 0, 1, 279.6244, 975.9694) scale(1.361033765555772, 1.361033765555772)" opacity="1"><g transform="scale(0.7347356291279478)"><path d="M0,0 Q1.2403,-1.8605 1.5777,-2.0565 T2.0986,-1.7389 2.3819,-0.3258 2.5361,1.6833 2.62,4.3288 2.6656,7.6308 2.3803,10.9775 1.9151,14.0384 1.3519,17.2562 0.4763,21.067 L0,23.14 " stroke-linecap="round" fill="none" stroke="#4dabf7" stroke-width="4.083101296667316" stroke-dasharray="none" stroke-dashoffset="0"/></g></g><g transform="matrix(1, 0, 0, 1, 295.9568, 984.1356) scale(1.361033765555772, 1.361033765555772)" opacity="1"><g transform="scale(0.7347356291279478)"><path d="M0,0 Q2.4806,0.6202 3.7778,0.7888 T6.7109,1.0493 9.8569,1.191 13.1685,1.3004 L14.97,1.36 " stroke-linecap="round" fill="none" stroke="#4dabf7" stroke-width="4.083101296667316" stroke-dasharray="none" stroke-dashoffset="0"/></g></g><g transform="matrix(1, 0, 0, 1, 328.6216, 982.7746) scale(1.361033765555772, 1.361033765555772)" opacity="1"><g transform="scale(0.7347356291279478)"><path d="M0,0 Q2.4806,0 3.4677,-0.3101 T5.3019,-1.0989 6.2997,-2.1482 6.22,-2.719 5.2442,-2.4094 3.7831,-1.6208 2.3681,-0.2615 0.9781,1.4081 -0.088,2.9366 -0.9781,4.3905 -1.7724,6.114 -1.8944,7.9817 -1.3407,9.3079 -0.1092,10.0293 1.8011,10.1117 3.7728,9.2263 5.7779,7.502 7.7989,5.6315 9.5185,3.9938 10.7641,2.4827 11.4417,1.9707 12.1203,2.6225 12.7996,3.5972 13.4792,4.7499 14.159,5.9994 15.149,7.2993 16.9301,8.3165 19.1904,9.1024 L20.42,9.53 " stroke-linecap="round" fill="none" stroke="#4dabf7" stroke-width="4.083101296667316" stroke-dasharray="none" stroke-dashoffset="0"/></g></g><g transform="matrix(1, 0, 0, 1, 366.7306, 975.9694) scale(1.361033765555772, 1.361033765555772)" opacity="1"><g transform="scale(0.7347356291279478)"><path d="M1.36,0 Q4.4654,0 5.9302,0 T9.1425,0 L10.89,0 " stroke-linecap="round" fill="none" stroke="#4dabf7" stroke-width="4.083101296667316" stroke-dasharray="none" stroke-dashoffset="0"/></g></g><g transform="matrix(1, 0, 0, 1, 368.0916, 984.1356) scale(1.361033765555772, 1.361033765555772)" opacity="1"><g transform="scale(0.7347356291279478)"><path d="M1.36,0 Q5.7057,0 8.2978,0 L10.89,0 " stroke-linecap="round" fill="none" stroke="#4dabf7" stroke-width="4.083101296667316" stroke-dasharray="none" stroke-dashoffset="0"/></g></g><g transform="matrix(1, 0, 0, 1, 415.7278, 978.6915) scale(1.361033765555772, 1.361033765555772)" opacity="1"><g transform="scale(0.7347356291279478)"><path d="M0,0 Q1.8605,-1.2403 2.3665,-1.8878 T2.8378,-3.1975 2.474,-4.2201 1.3459,-4.4663 -0.1981,-3.9801 -1.9682,-2.7853 -4.1738,-0.585 -6.3061,2.1647 -7.7762,5.2132 -8.2659,8.422 -7.5997,10.7877 -5.9947,12.0747 -3.8813,12.4647 -1.4913,11.7466 0.7392,10.4258 2.5727,8.7747 4.1925,6.944 5.0737,6.2605 5.2408,6.8211 5.3316,8.0564 5.6934,9.6586 6.5126,11.1504 8.1986,12.582 10.8226,14.1286 L12.25,14.97 " stroke-linecap="round" fill="none" stroke="#4dabf7" stroke-width="4.083101296667316" stroke-dasharray="none" stroke-dashoffset="0"/></g></g><g transform="matrix(1, 0, 0, 1, 456.5588, 971.8863) scale(1.361033765555772, 1.361033765555772)" opacity="1"><g transform="scale(0.7347356291279478)"><path d="M0,0 Q0,1.8605 -0.6202,2.989 T-2.1978,5.3515 -3.9886,8.1871 -5.8953,11.2801 -8.1729,13.8929 -10.6522,15.9345 -13.4487,17.9523 L-14.97,19.05 " stroke-linecap="round" fill="none" stroke="#4dabf7" stroke-width="4.083101296667316" stroke-dasharray="none" stroke-dashoffset="0"/></g></g><g transform="matrix(1, 0, 0, 1, 442.9485, 975.9694) scale(1.361033765555772, 1.361033765555772)" opacity="1"><g transform="scale(0.7347356291279478)"><path d="M0,0 Q3.1054,1.8605 4.2601,2.989 T6.3531,5.0414 8.4219,7.0882 10.4776,9.1319 12.5261,10.8638 14.8809,12.4262 17.0943,13.5862 19.2483,14.4824 L20.42,14.97 " stroke-linecap="round" fill="none" stroke="#4dabf7" stroke-width="4.083101296667316" stroke-dasharray="none" stroke-dashoffset="0"/></g></g><g transform="matrix(1, 0, 0, 1, 457.9198, 1011.3563) scale(1.361033765555772, 1.361033765555772)" opacity="1"><g transform="scale(0.7347356291279478)"><path d="M-1.36,0 Q-5.7057,0 -7.8179,0 T-12.3219,0 -17.2549,0 -22.1091,0 -26.6125,0 -30.9251,0 -35.1317,0 -38.9704,0 -42.3013,0.3101 -45.666,1.0989 -49.587,2.1488 L-51.72,2.72 " stroke-linecap="round" fill="none" stroke="#4dabf7" stroke-width="4.083101296667316" stroke-dasharray="none" stroke-dashoffset="0"/></g></g><g transform="matrix(1, 0, 0, 1, 432.0602, 1031.7718) scale(1.361033765555772, 1.361033765555772)" opacity="1"><g transform="scale(0.7347356291279478)"><path d="M0,0 Q1.2403,-1.8605 1.2676,-2.3665 T0.9997,-2.8378 -0.0763,-2.474 -1.902,-1.6559 -3.8277,-0.5907 -5.4977,0.919 -7.0264,2.6705 -8.4781,4.5558 -9.888,6.824 -10.655,8.9882 -10.4521,10.7857 -9.4114,12.0736 -7.6027,12.7742 -5.6863,12.8452 -4.0236,12.5738 -2.4989,12.1161 -1.0493,10.9368 0.3594,9.0527 1.7459,7.0952 3.1203,6.3427 4.4905,6.8659 5.5482,8.0807 6.4336,9.6718 7.5355,11.1576 9.0652,12.586 11.1279,14.13 L12.25,14.97 " stroke-linecap="round" fill="none" stroke="#4dabf7" stroke-width="4.083101296667316" stroke-dasharray="none" stroke-dashoffset="0"/></g></g><g transform="matrix(1, 0, 0, 1, 361.2864, 1009.9952) scale(1.361033765555772, 1.361033765555772)" opacity="1"><g transform="scale(0.7347356291279478)"><path d="M0,0 Q-2.4806,-0.6202 -4.398,-0.7888 T-8.2886,-0.7392 -12.888,-0.4021 -18.4931,0.0913 -24.6454,0.6698 -31.4054,0.9846 -38.496,1.1558 -45.4564,1.2489 -52.3459,0.9895 -59.1969,0.5383 -65.4068,0.2928 -70.6477,0.1593 -75.3592,0.0867 -79.475,0.0471 -82.024,0.3357 -83.5499,0.9991 L-84.38,1.36 " stroke-linecap="round" fill="none" stroke="#4dabf7" stroke-width="4.083101296667316" stroke-dasharray="none" stroke-dashoffset="0"/></g></g><g transform="matrix(1, 0, 0, 1, 319.0944, 1033.1328) scale(1.361033765555772, 1.361033765555772)" opacity="1"><g transform="scale(0.7347356291279478)"><path d="M0,0 Q0,-1.2403 -0.3101,-1.2676 T-1.409,-1.3097 -3.2494,-1.0226 -5.4932,-0.2462 -7.6441,0.7963 -9.4343,2.2937 -11.0283,4.3508 -12.2056,6.4025 -12.5359,8.1387 -11.7854,9.7034 -10.1368,10.8646 -7.9973,11.4964 -5.5909,11.84 -3.3515,11.7169 -1.5131,11.0297 0.1071,10.0358 1.6087,8.8749 2.7356,7.6209 3.3486,7.2489 3.9922,7.979 4.9648,8.9963 6.1163,10.1699 7.983,11.4285 10.2388,12.7334 12.4222,14.182 L13.61,14.97 " stroke-linecap="round" fill="none" stroke="#4dabf7" stroke-width="4.083101296667316" stroke-dasharray="none" stroke-dashoffset="0"/></g></g><g transform="matrix(1, 0, 0, 1, 426.6161, 962.3591) scale(1.361033765555772, 1.361033765555772)" opacity="1"><g transform="scale(0.7347356291279478)"><path d="M0,0 Q0,2.4806 -0.3101,4.0879 T-1.409,7.4997 -3.2494,11.2163 -5.4932,15.1008 -7.9541,19.0768 -10.5332,23.1002 -13.1765,27.1516 -16.0998,31.6065 L-17.69,34.03 " stroke-linecap="round" fill="none" stroke="#4dabf7" stroke-width="4.083101296667316" stroke-dasharray="none" stroke-dashoffset="0"/></g></g><g transform="matrix(1, 0, 0, 1, 437.5043, 1020.8835) scale(1.361033765555772, 1.361033765555772)" opacity="1"><g transform="scale(0.7347356291279478)"><path d="M0,0 Q-1.2403,5.586 -2.1978,8.3457 T-4.2987,13.8493 -6.6842,19.3262 -9.2222,24.4762 -11.8432,28.8304 -14.1993,32.1317 -16.4601,35.1228 L-17.69,36.75 " stroke-linecap="round" fill="none" stroke="#4dabf7" stroke-width="4.083101296667316" stroke-dasharray="none" stroke-dashoffset="0"/></g></g><g transform="matrix(1, 0, 0, 1, 334.0658, 1142.0155) scale(1.361033765555772, 1.361033765555772)" opacity="1"><g transform="scale(0.7347356291279478)"><path d="M0,0 Q-1.8605,1.8605 -2.6766,2.989 T-4.5592,5.0414 -6.8259,7.0882 -9.2993,9.1319 -11.8851,10.8638 -14.2221,12.7362 -16.736,14.375 -20.0028,15.6412 L-21.78,16.33 " stroke-linecap="round" fill="none" stroke="#4dabf7" stroke-width="4.083101296667316" stroke-dasharray="none" stroke-dashoffset="0"/></g></g><g transform="matrix(1, 0, 0, 1, 317.7333, 1137.9324) scale(1.361033765555772, 1.361033765555772)" opacity="1"><g transform="scale(0.7347356291279478)"><path d="M0,0 Q1.2403,1.8605 1.8878,2.989 T3.1975,5.0414 4.2201,7.0882 5.0887,9.442 6.4938,11.6527 8.1884,13.4755 10.0405,15.0872 12.5984,16.5842 15.5426,18.0209 18.7015,19.5747 L20.42,20.42 " stroke-linecap="round" fill="none" stroke="#4dabf7" stroke-width="4.083101296667316" stroke-dasharray="none" stroke-dashoffset="0"/></g></g><g transform="matrix(1, 0, 0, 1, 359.9254, 1137.9324) scale(1.361033765555772, 1.361033765555772)" opacity="1"><g transform="scale(0.7347356291279478)"><path d="M0,1.36 Q3.1054,1.9802 4.8803,2.1488 T7.9308,2.4093 10.2104,2.2409 12.4122,1.6704 L13.61,1.36 " stroke-linecap="round" fill="none" stroke="#4dabf7" stroke-width="4.083101296667316" stroke-dasharray="none" stroke-dashoffset="0"/></g></g><g transform="matrix(1, 0, 0, 1, 358.5644, 1151.5427) scale(1.361033765555772, 1.361033765555772)" opacity="1"><g transform="scale(0.7347356291279478)"><path d="M0,0 Q2.4806,-0.6202 3.7778,-0.7888 T6.7109,-1.0493 9.5468,-1.191 12.0198,-1.268 14.8114,-1.3276 L16.33,-1.36 " stroke-linecap="round" fill="none" stroke="#4dabf7" stroke-width="4.083101296667316" stroke-dasharray="none" stroke-dashoffset="0"/></g></g><g transform="matrix(1, 0, 0, 1, 432.0602, 1109.3507) scale(1.361033765555772, 1.361033765555772)" opacity="1"><g transform="scale(0.7347356291279478)"><path d="M1.36,0 Q1.36,3.1054 1.36,4.8803 T1.0499,8.5509 0.5712,12.4083 0.3107,16.6795 0.1095,21.7446 L0,24.5 " stroke-linecap="round" fill="none" stroke="#4dabf7" stroke-width="4.083101296667316" stroke-dasharray="none" stroke-dashoffset="0"/></g></g><g transform="matrix(1, 0, 0, 1, 452.4757, 1120.239) scale(1.361033765555772, 1.361033765555772)" opacity="1"><g transform="scale(0.7347356291279478)"><path d="M0,0 Q4.3457,0.6202 6.1479,0.7888 T9.5506,1.0493 12.642,1.191 16.1865,1.268 20.6901,1.3276 L23.14,1.36 " stroke-linecap="round" fill="none" stroke="#4dabf7" stroke-width="4.083101296667316" stroke-dasharray="none" stroke-dashoffset="0"/></g></g><g transform="matrix(1, 0, 0, 1, 500.1119, 1116.1559) scale(1.361033765555772, 1.361033765555772)" opacity="1"><g transform="scale(0.7347356291279478)"><path d="M0,0 Q1.8605,-2.4806 2.0565,-2.5352 T1.7389,-1.9993 0.6359,-0.4675 -0.5843,1.6062 -1.5582,3.9768 -2.3981,6.8192 -2.8549,9.6057 -2.1732,11.4317 -0.5621,11.8048 1.5547,11.0776 3.6388,9.7517 5.0848,8.0979 6.1816,6.5758 7.0883,5.7478 7.8916,5.9198 8.9488,6.9459 10.1441,8.7444 11.4145,10.653 12.7257,12.3115 14.3693,13.8339 16.1936,15.2822 18.0436,16.8416 L19.05,17.69 " stroke-linecap="round" fill="none" stroke="#4dabf7" stroke-width="4.083101296667316" stroke-dasharray="none" stroke-dashoffset="0"/></g></g><g transform="matrix(1, 0, 0, 1, 531.4157, 1144.7376) scale(1.361033765555772, 1.361033765555772)" opacity="1"><g transform="scale(0.7347356291279478)"><path d="M0,0 Q-0.6202,1.2403 -1.7191,1.5777 T-4.6584,2.0986 -8.7403,2.692 -14.064,3.3249 -20.9956,3.6692 -28.7998,4.1666 -37.0786,4.7473 -45.9279,5.0632 -54.7753,5.5474 -62.6913,6.1231 -69.4805,6.7464 -75.3445,7.3956 -80.3972,8.3689 -85.6257,10.0017 L-88.47,10.89 " stroke-linecap="round" fill="none" stroke="#4dabf7" stroke-width="4.083101296667316" stroke-dasharray="none" stroke-dashoffset="0"/></g></g><g transform="matrix(1, 0, 0, 1, 479.6964, 1177.4024) scale(1.361033765555772, 1.361033765555772)" opacity="1"><g transform="scale(0.7347356291279478)"><path d="M0,0 Q1.8605,-3.7255 2.0565,-4.7389 T2.0489,-6.3035 1.1146,-7.1546 -0.634,-7.3075 -2.8278,-6.4582 -4.9538,-5.0637 -7.0405,-3.3748 -9.106,-1.2157 -10.8497,0.889 -12.1084,3.2766 -12.7931,5.8181 -12.8555,7.8208 -11.9593,9.2204 -10.2314,9.6716 -8.0488,9.297 -5.6189,8.473 -3.3667,7.0922 -1.2113,5.4086 0.5813,3.8725 1.8667,2.4167 3.186,1.0046 4.2138,0.5465 4.773,1.5376 5.0771,3.3194 5.555,5.5313 6.1273,7.9748 6.7487,10.5445 8.017,12.8726 9.8777,15.1118 L10.89,16.33 " stroke-linecap="round" fill="none" stroke="#4dabf7" stroke-width="4.083101296667316" stroke-dasharray="none" stroke-dashoffset="0"/></g></g><g transform="matrix(1, 0, 0, 1, 558.6363, 1282.202) scale(1.361033765555772, 1.361033765555772)" opacity="1"><g transform="scale(0.7347356291279478)"><path d="M0,0 Q-17.3782,6.2062 -24.898,8.2043 T-39.3017,11.5995 -53.0334,13.7566 -67.0196,15.2402 -81.1444,16.3573 -95.3445,16.965 -110.5159,16.9855 -126.838,16.6866 -144.0962,16.524 -162.4839,16.4355 -181.4859,16.3874 -200.8222,16.3612 -221.2728,16.6571 -241.7072,17.1281 -261.2002,17.3843 -280.4935,17.5237 -299.0579,17.5995 -316.9135,17.6408 -332.5231,17.6632 -347.2296,17.6806 L-355.23,17.69 " stroke-linecap="round" fill="none" stroke="#4dabf7" stroke-width="4.083101296667316" stroke-dasharray="none" stroke-dashoffset="0"/></g></g><g transform="matrix(1, 0, 0, 1, 227.9051, 1351.6147) scale(1.361033765555772, 1.361033765555772)" opacity="1"><g transform="scale(0.7347356291279478)"><path d="M0,0 Q3.7255,0 4.7389,0.6202 T6.3035,2.1978 7.1546,4.2987 7.6176,7.3043 7.5594,11.42 6.9053,16.1419 5.9271,21.1935 4.7747,26.1144 3.5277,30.3441 1.9191,33.5753 -0.2047,36.5123 L-1.36,38.11 " stroke-linecap="round" fill="none" stroke="#4dabf7" stroke-width="4.083101296667316" stroke-dasharray="none" stroke-dashoffset="0"/></g></g><g transform="matrix(1, 0, 0, 1, 257.8479, 1348.8926) scale(1.361033765555772, 1.361033765555772)" opacity="1"><g transform="scale(0.7347356291279478)"><path d="M0,0 Q0,8.0666 0,11.8134 T-0.3101,18.5288 -1.0989,24.0424 -2.1482,28.9045 -3.3392,32.7921 -4.6998,36.2364 L-5.44,38.11 " stroke-linecap="round" fill="none" stroke="#4dabf7" stroke-width="4.083101296667316" stroke-dasharray="none" stroke-dashoffset="0"/></g></g><g transform="matrix(1, 0, 0, 1, 255.1258, 1374.7523) scale(1.361033765555772, 1.361033765555772)" opacity="1"><g transform="scale(0.7347356291279478)"><path d="M0,0 Q-3.7255,0.6202 -5.359,0.7888 T-8.8114,1.0493 -12.55,1.191 -16.7598,1.3004 L-19.05,1.36 " stroke-linecap="round" fill="none" stroke="#4dabf7" stroke-width="4.083101296667316" stroke-dasharray="none" stroke-dashoffset="0"/></g></g><g transform="matrix(1, 0, 0, 1, 264.653, 1370.6692) scale(1.361033765555772, 1.361033765555772)" opacity="1"><g transform="scale(0.7347356291279478)"><path d="M0,0 Q3.1054,0.6202 3.95,1.409 T5.5642,3.2494 6.7525,5.4932 7.3989,8.2642 8.0606,11.3221 8.7306,13.9158 9.7153,15.6368 11.4913,16.263 13.3877,15.6734 15.3495,14.1123 17.3493,12.0228 19.0596,9.6435 20.6102,7.1065 22.2487,4.2655 L23.14,2.72 " stroke-linecap="round" fill="none" stroke="#4dabf7" stroke-width="4.083101296667316" stroke-dasharray="none" stroke-dashoffset="0"/></g></g><g transform="matrix(1, 0, 0, 1, 300.0399, 1382.9185) scale(1.361033765555772, 1.361033765555772)" opacity="1"><g transform="scale(0.7347356291279478)"><path d="M0,0 Q2.4806,-0.6202 3.4677,-1.0989 T5.3019,-2.1482 6.2997,-3.3392 6.5324,-3.9871 6.3466,-3.7194 5.6231,-2.9536 4.9195,-1.9168 4.2266,-0.4226 3.2295,1.6306 2.377,3.9901 1.9133,6.5163 1.3509,8.8208 0.7349,11.0047 0.3998,13.1229 0.8376,14.2753 2.0568,14.7252 L2.72,14.97 " stroke-linecap="round" fill="none" stroke="#4dabf7" stroke-width="4.083101296667316" stroke-dasharray="none" stroke-dashoffset="0"/></g></g><g transform="matrix(1, 0, 0, 1, 308.2061, 1352.9757) scale(1.361033765555772, 1.361033765555772)" opacity="1"><g transform="scale(0.7347356291279478)"><path d="M0,0 L4.08,1.36 " stroke-linecap="round" fill="none" stroke="#4dabf7" stroke-width="4.083101296667316" stroke-dasharray="none" stroke-dashoffset="0"/></g></g><g transform="matrix(1, 0, 0, 1, 332.7047, 1373.3913) scale(1.361033765555772, 1.361033765555772)" opacity="1"><g transform="scale(0.7347356291279478)"><path d="M0,0 Q3.7255,-1.8605 4.4288,-2.0565 T4.8922,-1.7389 4.2117,-0.6359 3.2214,0.8944 1.7525,2.9695 0.0231,5.0308 -1.2278,6.7724 -1.9082,8.65 -2.2784,10.6017 -2.4798,12.2836 -1.9692,13.8187 -0.4511,15.2739 1.6151,16.6857 3.3593,18.0762 3.6879,19.4551 2.3163,20.5152 -0.2903,21.092 -3.8812,21.4057 -8.4206,21.6481 L-10.89,21.78 " stroke-linecap="round" fill="none" stroke="#4dabf7" stroke-width="4.083101296667316" stroke-dasharray="none" stroke-dashoffset="0"/></g></g><g transform="matrix(1, 0, 0, 1, 407.5616, 1374.7523) scale(1.361033765555772, 1.361033765555772)" opacity="1"><g transform="scale(0.7347356291279478)"><path d="M0,0 Q1.8605,-3.7255 1.7464,-4.7389 T0.95,-5.9934 -0.7235,-6.0534 -2.8765,-5.4636 -5.2903,-4.2125 -7.8438,-1.9815 -10.1631,0.7825 -11.7349,3.8389 -12.5899,7.0542 -12.745,10.0436 -11.8991,12.6001 -10.1986,14.301 -8.031,15.2262 -5.2991,15.4195 -2.5726,14.5943 -0.4693,12.9052 1.2951,10.7459 2.565,8.3287 3.2559,6.0812 3.6317,4.8586 4.1462,5.126 5.0485,6.8241 6.1618,9.2983 7.3876,11.8846 8.6746,14.2218 9.9949,16.1134 11.6434,17.1424 13.4704,17.082 15.3225,16.595 L16.33,16.33 " stroke-linecap="round" fill="none" stroke="#4dabf7" stroke-width="4.083101296667316" stroke-dasharray="none" stroke-dashoffset="0"/></g></g><g transform="matrix(1, 0, 0, 1, 433.4212, 1374.7523) scale(1.361033765555772, 1.361033765555772)" opacity="1"><g transform="scale(0.7347356291279478)"><path d="M0,0 Q4.9658,0.6202 6.9367,0.7888 T10.2898,1.0493 13.0441,0.8809 16.0531,0.3104 L17.69,0 " stroke-linecap="round" fill="none" stroke="#4dabf7" stroke-width="4.083101296667316" stroke-dasharray="none" stroke-dashoffset="0"/></g></g><g transform="matrix(1, 0, 0, 1, 434.7823, 1382.9185) scale(1.361033765555772, 1.361033765555772)" opacity="1"><g transform="scale(0.7347356291279478)"><path d="M0,0 Q3.1054,1.2403 4.5702,1.5777 T7.452,1.7885 10.2601,1.283 13.3105,0.4521 L14.97,0 " stroke-linecap="round" fill="none" stroke="#4dabf7" stroke-width="4.083101296667316" stroke-dasharray="none" stroke-dashoffset="0"/></g></g><g transform="matrix(1, 0, 0, 1, 476.9743, 1359.7809) scale(1.361033765555772, 1.361033765555772)" opacity="1"><g transform="scale(0.7347356291279478)"><path d="M0,0 Q3.1054,0 3.6377,0.3101 T4.1494,1.409 3.8077,3.2494 3.0016,5.1831 1.943,7.1653 0.7469,9.1738 -0.5239,11.1967 -1.5253,13.2274 -1.76,14.9523 -0.9575,16.5108 0.7195,17.6687 2.8743,18.6109 5.2891,19.7459 7.8431,20.9835 10.1627,22.5871 11.7347,24.3896 12.2798,25.9903 11.9561,27.4813 10.8498,28.9125 9.0054,30.3113 6.7594,31.3823 4.2973,31.9649 1.7176,31.9718 -0.9261,31.0453 -3.8496,29.4486 L-5.44,28.58 " stroke-linecap="round" fill="none" stroke="#4dabf7" stroke-width="4.083101296667316" stroke-dasharray="none" stroke-dashoffset="0"/></g></g><g transform="matrix(1, 0, 0, 1, 482.4184, 1355.6978) scale(1.361033765555772, 1.361033765555772)" opacity="1"><g transform="scale(0.7347356291279478)"><path d="M0,0 Q4.3457,-0.6202 6.4579,-0.7888 T10.0294,-1.0493 12.9025,-1.191 15.3957,-1.268 17.6845,-1.31 19.8621,-1.6429 21.9851,-2.3405 L23.14,-2.72 " stroke-linecap="round" fill="none" stroke="#4dabf7" stroke-width="4.083101296667316" stroke-dasharray="none" stroke-dashoffset="0"/></g></g><g transform="matrix(1, 0, 0, 1, 530.0546, 1365.225) scale(1.361033765555772, 1.361033765555772)" opacity="1"><g transform="scale(0.7347356291279478)"><path d="M0,0 Q4.3457,-0.6202 6.768,-0.7888 T11.4384,-1.0493 15.8418,-1.5011 20.1,-2.0569 23.6568,-2.3593 25.5917,-2.5238 26.0241,-2.3032 25.9178,-1.6923 L25.86,-1.36 " stroke-linecap="round" fill="none" stroke="#4dabf7" stroke-width="4.083101296667316" stroke-dasharray="none" stroke-dashoffset="0"/></g></g><g transform="matrix(1, 0, 0, 1, 530.0546, 1373.3913) scale(1.361033765555772, 1.361033765555772)" opacity="1"><g transform="scale(0.7347356291279478)"><path d="M0,1.36 Q3.1054,0.7398 4.8803,0.5712 T9.4812,0.0006 14.7771,-0.6198 19.2107,-0.9573 22.863,-1.451 26.0901,-2.0297 29.4644,-2.4768 L31.3,-2.72 " stroke-linecap="round" fill="none" stroke="#4dabf7" stroke-width="4.083101296667316" stroke-dasharray="none" stroke-dashoffset="0"/></g></g><g transform="matrix(1, 0, 0, 1, 554.5532, 1352.9757) scale(1.361033765555772, 1.361033765555772)" opacity="1"><g transform="scale(0.7347356291279478)"><path d="M0,0 Q2.4806,-1.2403 3.4677,-1.5777 T5.612,-2.0986 7.7087,-2.3819 9.7795,-2.226 12.4565,-1.521 15.4654,-0.5174 18.6549,0.9589 22.2505,2.6922 25.7569,4.5676 28.907,6.5204 31.5532,8.2029 33.6128,10.0484 35.0434,11.9825 35.5115,13.965 35.4561,15.9737 34.4934,18.309 32.4171,21.1321 30.0472,23.9082 27.8278,26.6587 26.0002,29.0852 24.0758,31.3378 22.0964,33.4957 20.1233,35.6034 L19.05,36.75 " stroke-linecap="round" fill="none" stroke="#4dabf7" stroke-width="4.083101296667316" stroke-dasharray="none" stroke-dashoffset="0"/></g></g><g transform="matrix(1, 0, 0, 1, 675.6852, 1362.503) scale(1.361033765555772, 1.361033765555772)" opacity="1"><g transform="scale(0.7347356291279478)"><path d="M0,0 Q-1.2403,4.9658 -1.8878,6.6266 T-4.13,10.1211 -7.5227,13.5725 -10.9186,16.3826 -14.6288,18.5337 -19.2604,20.6362 L-21.78,21.78 " stroke-linecap="round" fill="none" stroke="#4dabf7" stroke-width="4.083101296667316" stroke-dasharray="none" stroke-dashoffset="0"/></g></g><g transform="matrix(1, 0, 0, 1, 653.9087, 1370.6692) scale(1.361033765555772, 1.361033765555772)" opacity="1"><g transform="scale(0.7347356291279478)"><path d="M0,0 Q3.7255,2.4806 5.359,3.7778 T8.8114,6.7109 12.2399,9.8569 15.9677,13.4311 19.8584,17.2382 22.9052,20.2395 25.1828,22.4924 27.3831,24.6735 L28.58,25.86 " stroke-linecap="round" fill="none" stroke="#4dabf7" stroke-width="4.083101296667316" stroke-dasharray="none" stroke-dashoffset="0"/></g></g><g transform="matrix(1, 0, 0, 1, 716.5162, 1367.9471) scale(1.361033765555772, 1.361033765555772)" opacity="1"><g transform="scale(0.7347356291279478)"><path d="M0,0 Q4.3457,0 5.8378,0 T8.7618,0 11.2826,-0.3101 13.6708,-0.9901 L14.97,-1.36 " stroke-linecap="round" fill="none" stroke="#4dabf7" stroke-width="4.083101296667316" stroke-dasharray="none" stroke-dashoffset="0"/></g></g><g transform="matrix(1, 0, 0, 1, 717.8773, 1378.8354) scale(1.361033765555772, 1.361033765555772)" opacity="1"><g transform="scale(0.7347356291279478)"><path d="M0,0 Q3.7255,1.2403 5.359,1.5777 T8.8114,1.4784 12.2399,0.4942 15.0352,-0.6614 17.1783,-1.6001 19.2779,-2.3254 L20.42,-2.72 " stroke-linecap="round" fill="none" stroke="#4dabf7" stroke-width="4.083101296667316" stroke-dasharray="none" stroke-dashoffset="0"/></g></g><g transform="matrix(1, 0, 0, 1, 781.8459, 1343.4485) scale(1.361033765555772, 1.361033765555772)" opacity="1"><g transform="scale(0.7347356291279478)"><path d="M0,0 Q0.6202,3.7255 0.7888,5.359 T1.0493,9.1215 1.191,13.6512 1.268,19.8386 1.3276,28.1426 L1.36,32.66 " stroke-linecap="round" fill="none" stroke="#4dabf7" stroke-width="4.083101296667316" stroke-dasharray="none" stroke-dashoffset="0"/></g></g><g transform="matrix(1, 0, 0, 1, 803.6224, 1354.3368) scale(1.361033765555772, 1.361033765555772)" opacity="1"><g transform="scale(0.7347356291279478)"><path d="M0,0 Q3.1054,0.6202 4.5702,0.7888 T7.452,0.7392 10.2601,0.0921 13.3105,-0.8484 L14.97,-1.36 " stroke-linecap="round" fill="none" stroke="#4dabf7" stroke-width="4.083101296667316" stroke-dasharray="none" stroke-dashoffset="0"/></g></g><g transform="matrix(1, 0, 0, 1, 834.9262, 1339.3654) scale(1.361033765555772, 1.361033765555772)" opacity="1"><g transform="scale(0.7347356291279478)"><path d="M0,0 Q2.4806,0 2.8453,0.3101 T3.4083,1.409 3.4045,2.9371 2.7823,4.7008 1.8237,6.9029 0.9921,9.6513 0.8498,12.3867 1.3925,14.4949 2.618,16.262 4.2172,17.8457 5.7096,19.6397 6.5215,21.5459 6.653,23.2031 6.1022,24.4146 4.2498,25.0737 1.4973,25.583 L0,25.86 " stroke-linecap="round" fill="none" stroke="#4dabf7" stroke-width="4.083101296667316" stroke-dasharray="none" stroke-dashoffset="0"/></g></g><g transform="matrix(1, 0, 0, 1, 830.8431, 1338.0044) scale(1.361033765555772, 1.361033765555772)" opacity="1"><g transform="scale(0.7347356291279478)"><path d="M0,0 Q4.3457,0.6202 5.8378,0.7888 T9.3819,1.3594 13.1704,1.9798 16.784,2.3173 21.2327,2.1909 25.8234,1.812 30.2513,1.5193 L32.66,1.36 " stroke-linecap="round" fill="none" stroke="#4dabf7" stroke-width="4.083101296667316" stroke-dasharray="none" stroke-dashoffset="0"/></g></g><g transform="matrix(1, 0, 0, 1, 849.8976, 1391.0847) scale(1.361033765555772, 1.361033765555772)" opacity="1"><g transform="scale(0.7347356291279478)"><path d="M0,0 Q-1.8605,-1.2403 -3.9192,-1.8878 T-8.3382,-2.5773 -12.915,-2.6424 -19.4404,-1.7475 -27.9537,-0.0204 -35.378,1.5393 -42.2098,3.3203 -49.6495,5.5318 -56.4897,7.665 -62.0713,9.4457 -66.348,11.0345 -70.0928,12.7026 L-72.13,13.61 " stroke-linecap="round" fill="none" stroke="#4dabf7" stroke-width="4.083101296667316" stroke-dasharray="none" stroke-dashoffset="0"/></g></g><g transform="matrix(1, 0, 0, 1, 806.3445, 1419.6664) scale(1.361033765555772, 1.361033765555772)" opacity="1"><g transform="scale(0.7347356291279478)"><path d="M0,0 Q1.2403,3.1054 1.2676,4.5702 T0.9997,7.1419 0.5438,9.4712 0.916,11.6686 2.0487,13.174 3.2851,14.3031 4.8901,15.5374 7.0059,17.1414 8.7771,18.9465 9.7406,20.5487 10.2647,22.3505 10.2398,24.2609 9.2959,25.9203 7.5399,27.4432 5.342,28.5818 2.9061,29.2011 0.0305,28.6078 -3.5126,26.8281 L-5.44,25.86 " stroke-linecap="round" fill="none" stroke="#4dabf7" stroke-width="4.083101296667316" stroke-dasharray="none" stroke-dashoffset="0"/></g></g><g transform="matrix(1, 0, 0, 1, 806.3445, 1419.6664) scale(1.361033765555772, 1.361033765555772)" opacity="1"><g transform="scale(0.7347356291279478)"><path d="M0,0 Q3.1054,0 4.5702,0 T7.452,0 10.2601,0 13.028,0 15.7763,0 18.514,-0.3101 21.2436,-1.0989 24.2335,-2.1488 L25.86,-2.72 " stroke-linecap="round" fill="none" stroke="#4dabf7" stroke-width="4.083101296667316" stroke-dasharray="none" stroke-dashoffset="0"/></g></g><g transform="matrix(1, 0, 0, 1, 907.061, 1388.3626) scale(1.361033765555772, 1.361033765555772)" opacity="1"><g transform="scale(0.7347356291279478)"><path d="M0,0 Q5.586,1.2403 7.4155,1.2676 T10.8603,0.9997 14.4029,0.3522 L16.33,0 " stroke-linecap="round" fill="none" stroke="#4dabf7" stroke-width="4.083101296667316" stroke-dasharray="none" stroke-dashoffset="0"/></g></g><g transform="matrix(1, 0, 0, 1, 908.422, 1396.5288) scale(1.361033765555772, 1.361033765555772)" opacity="1"><g transform="scale(0.7347356291279478)"><path d="M0,0 Q1.2403,1.8605 1.8878,2.6766 T3.1975,3.9367 4.8425,4.6222 6.98,4.685 9.3831,4.0991 11.9307,3.1601 14.78,1.9942 L16.33,1.36 " stroke-linecap="round" fill="none" stroke="#4dabf7" stroke-width="4.083101296667316" stroke-dasharray="none" stroke-dashoffset="0"/></g></g><g transform="matrix(1, 0, 0, 1, 950.6141, 1362.503) scale(1.361033765555772, 1.361033765555772)" opacity="1"><g transform="scale(0.7347356291279478)"><path d="M0,0 Q3.1054,0 4.2601,0 T6.3531,0 8.732,-0.3101 11.5765,-1.0989 14.6552,-2.1488 L16.33,-2.72 " stroke-linecap="round" fill="none" stroke="#4dabf7" stroke-width="4.083101296667316" stroke-dasharray="none" stroke-dashoffset="0"/></g></g><g transform="matrix(1, 0, 0, 1, 980.5568, 1340.7264) scale(1.361033765555772, 1.361033765555772)" opacity="1"><g transform="scale(0.7347356291279478)"><path d="M1.36,0 Q1.36,3.1054 1.36,4.5702 T1.0499,7.452 0.5712,10.2601 0.3107,13.028 0.169,15.4639 0.402,17.4115 1.1489,19.0935 2.1754,20.3185 3.6664,21.295 5.72,22.1363 8.0775,22.2839 10.6003,21.7441 12.903,20.8279 14.7758,19.7071 16.6632,18.4007 L17.69,17.69 " stroke-linecap="round" fill="none" stroke="#4dabf7" stroke-width="4.083101296667316" stroke-dasharray="none" stroke-dashoffset="0"/></g></g><g transform="matrix(1, 0, 0, 1, 999.6113, 1336.6433) scale(1.361033765555772, 1.361033765555772)" opacity="1"><g transform="scale(0.7347356291279478)"><path d="M0,0 Q1.2403,3.1054 1.5777,4.8803 T1.7885,8.5509 1.5931,12.7206 1.1767,17.1618 0.6401,21.4383 0.3482,25.6251 0.1894,29.4555 0.1031,32.7818 0.0363,36.2327 L0,38.11 " stroke-linecap="round" fill="none" stroke="#4dabf7" stroke-width="4.083101296667316" stroke-dasharray="none" stroke-dashoffset="0"/></g></g><g transform="matrix(1, 0, 0, 1, 1017.3047, 1387.0016) scale(1.361033765555772, 1.361033765555772)" opacity="1"><g transform="scale(0.7347356291279478)"><path d="M0,0 Q-2.4806,-1.2403 -4.0879,-1.5777 T-9.0524,-1.7885 -14.8562,-1.283 -20.8042,-0.0778 -28.0732,1.8182 -35.7531,4.0922 -43.034,6.2617 -49.1654,8.3722 -54.0535,10.4506 -58.7145,12.4968 L-61.25,13.61 " stroke-linecap="round" fill="none" stroke="#4dabf7" stroke-width="4.083101296667316" stroke-dasharray="none" stroke-dashoffset="0"/></g></g><g transform="matrix(1, 0, 0, 1, 975.1127, 1412.8612) scale(1.361033765555772, 1.361033765555772)" opacity="1"><g transform="scale(0.7347356291279478)"><path d="M0,0 Q0.6202,3.7255 0.4788,5.0489 T0.2604,7.7125 0.1417,10.0917 0.3872,11.696 1.4509,12.8789 3.2722,14.1425 5.5056,15.14 7.9609,15.9927 10.2268,17.0768 12.0796,18.599 13.3976,20.6697 14.1146,22.7264 14.1946,24.7755 13.3079,27.1305 11.5852,29.3419 9.4054,31.1673 6.977,32.4727 4.1056,33.1828 0.9931,33.2568 -1.9427,32.3645 -4.4722,30.9488 -6.8672,29.4146 L-8.17,28.58 " stroke-linecap="round" fill="none" stroke="#4dabf7" stroke-width="4.083101296667316" stroke-dasharray="none" stroke-dashoffset="0"/></g></g><g transform="matrix(1, 0, 0, 1, 973.7516, 1408.7781) scale(1.361033765555772, 1.361033765555772)" opacity="1"><g transform="scale(0.7347356291279478)"><path d="M0,0 Q4.3457,0 6.1479,-0.3101 T10.4808,-0.7888 15.0108,-1.0493 19.0278,-1.191 23.0735,-1.5781 27.4472,-2.4089 31.9994,-3.481 36.3362,-4.6867 41.0084,-6.0619 L43.55,-6.81 " stroke-linecap="round" fill="none" stroke="#4dabf7" stroke-width="4.083101296667316" stroke-dasharray="none" stroke-dashoffset="0"/></g></g><g transform="matrix(1, 0, 0, 1, 351.7592, 1471.3857) scale(1.361033765555772, 1.361033765555772)" opacity="1"><g transform="scale(0.7347356291279478)"><path d="M0,0 Q-0.6202,2.4806 -0.7888,3.7778 T-1.3594,6.0907 -1.9798,8.5893 -2.3173,11.4989 -2.501,14.6344 -2.6008,18.2029 -2.9653,22.0046 -3.4736,25.6231 -3.7501,29.1443 -3.9005,32.6125 -4.0168,36.1731 L-4.08,38.11 " stroke-linecap="round" fill="none" stroke="#4dabf7" stroke-width="4.083101296667316" stroke-dasharray="none" stroke-dashoffset="0"/></g></g><g transform="matrix(1, 0, 0, 1, 406.2005, 1528.5491) scale(1.361033765555772, 1.361033765555772)" opacity="1"><g transform="scale(0.7347356291279478)"><path d="M0,0 Q-3.7255,1.8605 -5.9792,2.3665 T-11.0115,3.1479 -17.1623,3.5729 -24.2315,3.8041 -32.1128,3.9299 -40.4335,3.9984 -48.6832,4.0356 -56.5842,4.0558 -64.2955,4.0669 -71.9037,4.0729 -78.8355,4.0761 -85.0893,4.0779 -90.6642,4.0788 -95.5597,4.3895 -100.0834,4.8685 -103.7846,5.4415 -107.0847,6.3278 L-108.88,6.81 " stroke-linecap="round" fill="none" stroke="#4dabf7" stroke-width="4.083101296667316" stroke-dasharray="none" stroke-dashoffset="0"/></g></g><g transform="matrix(1, 0, 0, 1, 304.123, 1569.3801) scale(1.361033765555772, 1.361033765555772)" opacity="1"><g transform="scale(0.7347356291279478)"><path d="M0,0 Q0,4.3457 0,6.1479 T0,9.2405 0,11.8532 0,14.5148 0,16.8952 0,18.8126 -0.3101,20.7859 -0.7888,23.0997 -1.3594,25.5987 -2.2406,28.4104 L-2.72,29.94 " stroke-linecap="round" fill="none" stroke="#4dabf7" stroke-width="4.083101296667316" stroke-dasharray="none" stroke-dashoffset="0"/></g></g><g transform="matrix(1, 0, 0, 1, 334.0658, 1574.8242) scale(1.361033765555772, 1.361033765555772)" opacity="1"><g transform="scale(0.7347356291279478)"><path d="M0,0 Q0,4.9658 0,6.9367 T0,10.2898 -0.3101,13.0441 -0.9901,16.0531 L-1.36,17.69 " stroke-linecap="round" fill="none" stroke="#4dabf7" stroke-width="4.083101296667316" stroke-dasharray="none" stroke-dashoffset="0"/></g></g><g transform="matrix(1, 0, 0, 1, 338.1489, 1580.2684) scale(1.361033765555772, 1.361033765555772)" opacity="1"><g transform="scale(0.7347356291279478)"><path d="M1.36,0 Q-1.7408,0 -3.2067,0 T-6.0901,0 -9.5192,0 -13.9303,0 L-16.33,0 " stroke-linecap="round" fill="none" stroke="#4dabf7" stroke-width="4.083101296667316" stroke-dasharray="none" stroke-dashoffset="0"/></g></g><g transform="matrix(1, 0, 0, 1, 353.1202, 1559.8529) scale(1.361033765555772, 1.361033765555772)" opacity="1"><g transform="scale(0.7347356291279478)"><path d="M0,1.36 Q2.4806,1.9802 3.4677,2.1488 T5.6324,2.5188 L6.81,2.72 " stroke-linecap="round" fill="none" stroke="#4dabf7" stroke-width="4.083101296667316" stroke-dasharray="none" stroke-dashoffset="0"/></g></g><g transform="matrix(1, 0, 0, 1, 377.6188, 1547.6036) scale(1.361033765555772, 1.361033765555772)" opacity="1"><g transform="scale(0.7347356291279478)"><path d="M0,0 Q-0.6202,2.4806 -1.0989,3.4677 T-1.8381,5.612 -2.5503,7.7087 -3.2479,9.7795 -2.6971,11.5262 -1.1571,12.4764 0.3008,12.6833 2.0241,12.4857 4.2365,12.333 L5.44,12.25 " stroke-linecap="round" fill="none" stroke="#4dabf7" stroke-width="4.083101296667316" stroke-dasharray="none" stroke-dashoffset="0"/></g></g><g transform="matrix(1, 0, 0, 1, 387.1461, 1546.2425) scale(1.361033765555772, 1.361033765555772)" opacity="1"><g transform="scale(0.7347356291279478)"><path d="M0,0 Q0.6202,2.4806 0.4788,3.7778 T0.2604,6.0907 -0.1684,8.2792 -1.0218,10.71 -1.7962,12.9627 -2.5275,15.1183 -3.2355,17.5336 -3.7824,20.2839 L-4.08,21.78 " stroke-linecap="round" fill="none" stroke="#4dabf7" stroke-width="4.083101296667316" stroke-dasharray="none" stroke-dashoffset="0"/></g></g><g transform="matrix(1, 0, 0, 1, 400.7564, 1570.7411) scale(1.361033765555772, 1.361033765555772)" opacity="1"><g transform="scale(0.7347356291279478)"><path d="M0,0 Q-3.1054,0.6202 -4.8803,0.7888 T-9.1711,1.3594 -14.6084,1.9798 -20.3593,2.6274 -25.9707,3.2898 -31.5062,3.9602 -36.0679,4.635 -39.1697,5.3144 -42.0067,6.2831 L-43.55,6.81 " stroke-linecap="round" fill="none" stroke="#4dabf7" stroke-width="4.083101296667316" stroke-dasharray="none" stroke-dashoffset="0"/></g></g><g transform="matrix(1, 0, 0, 1, 373.5357, 1585.7125) scale(1.361033765555772, 1.361033765555772)" opacity="1"><g transform="scale(0.7347356291279478)"><path d="M0,0 Q0,2.4806 -0.6202,3.4677 T-1.8878,5.3019 -2.8874,7.2299 -2.8111,8.8989 -1.5292,10.1169 0.0983,11.3997 1.6039,12.7177 3.3554,14.0548 4.9307,15.7125 5.7877,17.8568 5.6314,19.9559 4.3038,21.7179 2.3413,23.2966 -0.2767,24.4655 -3.2536,24.7913 -6.1157,24.0383 -9.2078,22.5757 L-10.89,21.78 " stroke-linecap="round" fill="none" stroke="#4dabf7" stroke-width="4.083101296667316" stroke-dasharray="none" stroke-dashoffset="0"/></g></g><g transform="matrix(1, 0, 0, 1, 373.5357, 1589.7956) scale(1.361033765555772, 1.361033765555772)" opacity="1"><g transform="scale(0.7347356291279478)"><path d="M0,0 Q3.1054,0 4.5702,0 T7.452,0 10.5701,0 13.8168,0 17.2062,0 L19.05,0 " stroke-linecap="round" fill="none" stroke="#4dabf7" stroke-width="4.083101296667316" stroke-dasharray="none" stroke-dashoffset="0"/></g></g><g transform="matrix(1, 0, 0, 1, 447.0316, 1517.6608) scale(1.361033765555772, 1.361033765555772)" opacity="1"><g transform="scale(0.7347356291279478)"><path d="M0,1.36 Q3.1054,1.36 4.5702,1.0499 T7.452,0.5712 10.5701,0.0006 14.1292,-0.9299 18.2035,-2.0893 L20.42,-2.72 " stroke-linecap="round" fill="none" stroke="#4dabf7" stroke-width="4.083101296667316" stroke-dasharray="none" stroke-dashoffset="0"/></g></g><g transform="matrix(1, 0, 0, 1, 448.3926, 1528.5491) scale(1.361033765555772, 1.361033765555772)" opacity="1"><g transform="scale(0.7347356291279478)"><path d="M0,0 Q2.4806,1.8605 3.4677,2.0565 T5.3019,2.359 7.2299,2.5236 9.5191,2.6132 12.6249,2.3518 16.7862,1.7094 L19.05,1.36 " stroke-linecap="round" fill="none" stroke="#4dabf7" stroke-width="4.083101296667316" stroke-dasharray="none" stroke-dashoffset="0"/></g></g><g transform="matrix(1, 0, 0, 1, 573.6077, 1461.8584) scale(1.361033765555772, 1.361033765555772)" opacity="1"><g transform="scale(0.7347356291279478)"><path d="M0,0 Q-0.6202,2.4806 -0.7888,4.398 T-1.0493,8.2886 -1.191,14.1283 -1.268,21.3384 -1.31,27.7437 -1.3328,33.401 -1.3504,39.0933 L-1.36,42.19 " stroke-linecap="round" fill="none" stroke="#4dabf7" stroke-width="4.083101296667316" stroke-dasharray="none" stroke-dashoffset="0"/></g></g><g transform="matrix(1, 0, 0, 1, 647.1035, 1527.1881) scale(1.361033765555772, 1.361033765555772)" opacity="1"><g transform="scale(0.7347356291279478)"><path d="M0,0 Q-1.2403,0 -2.5102,0 T-5.4012,0.3101 -8.5242,1.0989 -13.3263,2.1482 -20.282,3.3392 -28.0992,4.2972 -36.3874,5.1307 -43.6891,5.8964 -51.6946,6.313 -60.7053,6.5396 -68.0901,6.6629 -75.5206,6.73 -83.5961,7.0766 -91.4023,7.5752 -99.0621,8.1565 -105.4018,8.7828 -110.0932,9.1235 -113.8857,9.619 -117.1891,10.5086 -119.9164,11.3027 -122.0225,11.7347 -124.0934,12.0684 L-125.22,12.25 " stroke-linecap="round" fill="none" stroke="#4dabf7" stroke-width="4.083101296667316" stroke-dasharray="none" stroke-dashoffset="0"/></g></g><g transform="matrix(1, 0, 0, 1, 543.665, 1555.7698) scale(1.361033765555772, 1.361033765555772)" opacity="1"><g transform="scale(0.7347356291279478)"><path d="M0,0 Q-0.6202,0.6202 -0.7888,1.0989 T-1.0493,2.4583 -1.191,4.1303 -1.268,5.6623 -0.9999,7.1159 -0.2339,8.8369 0.803,10.7034 2.2973,12.3389 4.0427,14.1588 5.3046,16.0791 6.3011,18.0563 6.8433,20.0644 6.5157,21.7769 5.405,23.3287 3.8706,24.483 2.1056,25.1109 -0.0949,25.1424 -2.2222,24.5394 -4.3063,23.6331 L-5.44,23.14 " stroke-linecap="round" fill="none" stroke="#4dabf7" stroke-width="4.083101296667316" stroke-dasharray="none" stroke-dashoffset="0"/></g></g><g transform="matrix(1, 0, 0, 1, 543.665, 1554.4087) scale(1.361033765555772, 1.361033765555772)" opacity="1"><g transform="scale(0.7347356291279478)"><path d="M0,0 Q3.1054,0 4.2601,-0.3101 T6.6632,-0.7888 9.2108,-1.0493 12.1471,-1.5011 15.6072,-2.0569 19.6051,-2.4864 L21.78,-2.72 " stroke-linecap="round" fill="none" stroke="#4dabf7" stroke-width="4.083101296667316" stroke-dasharray="none" stroke-dashoffset="0"/></g></g><g transform="matrix(1, 0, 0, 1, 580.4129, 1566.658) scale(1.361033765555772, 1.361033765555772)" opacity="1"><g transform="scale(0.7347356291279478)"><path d="M0,0 Q2.4806,0 3.4677,0 T5.6324,0 L6.81,0 " stroke-linecap="round" fill="none" stroke="#4dabf7" stroke-width="4.083101296667316" stroke-dasharray="none" stroke-dashoffset="0"/></g></g><g transform="matrix(1, 0, 0, 1, 611.7166, 1548.9646) scale(1.361033765555772, 1.361033765555772)" opacity="1"><g transform="scale(0.7347356291279478)"><path d="M0,0 Q0.6202,1.8605 0.1687,2.989 T-0.5284,5.3515 -1.2177,7.567 -2.2128,9.7024 -3.0643,12.1044 -3.2174,14.3414 -2.3704,15.8684 -0.9794,16.699 1.64,17.1509 4.9278,17.0867 7.9085,16.5966 L9.53,16.33 " stroke-linecap="round" fill="none" stroke="#4dabf7" stroke-width="4.083101296667316" stroke-dasharray="none" stroke-dashoffset="0"/></g></g><g transform="matrix(1, 0, 0, 1, 625.327, 1548.9646) scale(1.361033765555772, 1.361033765555772)" opacity="1"><g transform="scale(0.7347356291279478)"><path d="M0,0 Q1.2403,1.8605 1.2676,3.6091 T0.9997,7.2393 0.2337,11.0746 -0.493,14.7136 -0.8884,17.9359 -1.1034,20.9291 -1.2696,24.1227 L-1.36,25.86 " stroke-linecap="round" fill="none" stroke="#4dabf7" stroke-width="4.083101296667316" stroke-dasharray="none" stroke-dashoffset="0"/></g></g><g transform="matrix(1, 0, 0, 1, 645.7425, 1587.0736) scale(1.361033765555772, 1.361033765555772)" opacity="1"><g transform="scale(0.7347356291279478)"><path d="M0,0 Q-1.8605,2.4806 -3.6091,3.1554 T-7.8594,4.5095 -13.5848,5.5585 -20.735,6.1292 -28.0378,6.4396 -36.354,6.6085 -46.1539,7.0105 -55.2083,7.5392 -63.2369,7.8269 -69.7774,8.2934 -75.5082,8.8573 -81.1087,9.164 -86.0159,9.3309 -90.2357,9.4217 -94.3771,9.4918 L-96.63,9.53 " stroke-linecap="round" fill="none" stroke="#4dabf7" stroke-width="4.083101296667316" stroke-dasharray="none" stroke-dashoffset="0"/></g></g><g transform="matrix(1, 0, 0, 1, 573.6077, 1610.2111) scale(1.361033765555772, 1.361033765555772)" opacity="1"><g transform="scale(0.7347356291279478)"><path d="M0,0 Q3.1054,1.2403 3.95,1.8878 T5.2542,3.1975 5.9636,4.8425 6.0372,6.6699 5.4548,8.9044 4.5178,11.3602 3.698,13.3164 3.5621,15.0007 4.1084,16.227 5.0279,17.2042 6.1506,18.0459 7.6916,18.8161 9.4602,19.8576 11.0424,21.0443 12.2132,22.31 12.5401,23.6187 12.0977,24.9508 10.9268,25.9856 9.0473,26.8585 6.7822,27.6435 3.9996,28.0706 0.9355,27.9928 -2.2841,27.3303 -6.0962,26.378 L-8.17,25.86 " stroke-linecap="round" fill="none" stroke="#4dabf7" stroke-width="4.083101296667316" stroke-dasharray="none" stroke-dashoffset="0"/></g></g><g transform="matrix(1, 0, 0, 1, 572.2467, 1608.8501) scale(1.361033765555772, 1.361033765555772)" opacity="1"><g transform="scale(0.7347356291279478)"><path d="M0,0 Q2.4806,-0.6202 3.4677,-0.7888 T5.612,-0.7392 7.7087,-0.4021 9.7795,0.0913 12.4565,0.6698 15.4654,0.9846 18.6549,1.1558 22.5606,1.2489 27.34,1.3209 L29.94,1.36 " stroke-linecap="round" fill="none" stroke="#4dabf7" stroke-width="4.083101296667316" stroke-dasharray="none" stroke-dashoffset="0"/></g></g><g transform="matrix(1, 0, 0, 1, 689.2956, 1517.6608) scale(1.361033765555772, 1.361033765555772)" opacity="1"><g transform="scale(0.7347356291279478)"><path d="M0,0 Q3.1054,0.6202 4.2601,0.7888 T6.9733,1.0493 9.9996,1.191 13.2188,1.3004 L14.97,1.36 " stroke-linecap="round" fill="none" stroke="#4dabf7" stroke-width="4.083101296667316" stroke-dasharray="none" stroke-dashoffset="0"/></g></g><g transform="matrix(1, 0, 0, 1, 690.6566, 1528.5491) scale(1.361033765555772, 1.361033765555772)" opacity="1"><g transform="scale(0.7347356291279478)"><path d="M0,0 Q0.6202,1.8605 1.0989,2.3665 T2.7707,3.1479 5.2328,3.2628 8.1225,3.0153 11.6766,2.824 L13.61,2.72 " stroke-linecap="round" fill="none" stroke="#4dabf7" stroke-width="4.083101296667316" stroke-dasharray="none" stroke-dashoffset="0"/></g></g><g transform="matrix(1, 0, 0, 1, 806.3445, 1486.3571) scale(1.361033765555772, 1.361033765555772)" opacity="1"><g transform="scale(0.7347356291279478)"><path d="M-1.36,0 Q-1.9802,5.586 -2.1488,7.7256 T-2.4093,12.2716 -2.551,17.5377 -2.628,22.573 -2.6876,27.3444 L-2.72,29.94 " stroke-linecap="round" fill="none" stroke="#4dabf7" stroke-width="4.083101296667316" stroke-dasharray="none" stroke-dashoffset="0"/></g></g><g transform="matrix(1, 0, 0, 1, 852.6196, 1532.6322) scale(1.361033765555772, 1.361033765555772)" opacity="1"><g transform="scale(0.7347356291279478)"><path d="M0,0 Q-3.7255,0.6202 -5.9792,0.7888 T-11.0115,0.7392 -17.4723,0.4021 -25.3304,0.2188 -33.0184,0.119 -41.544,0.0647 -49.9075,0.0352 -57.5603,0.0192 -65.1366,0.3205 -70.8108,0.7945 -75.448,1.0524 -80.3521,1.2516 L-83.02,1.36 " stroke-linecap="round" fill="none" stroke="#4dabf7" stroke-width="4.083101296667316" stroke-dasharray="none" stroke-dashoffset="0"/></g></g><g transform="matrix(1, 0, 0, 1, 809.0665, 1554.4087) scale(1.361033765555772, 1.361033765555772)" opacity="1"><g transform="scale(0.7347356291279478)"><path d="M0,-1.36 Q0,2.3655 0,4.3091 T0,7.9302 0,11.7605 0,15.7069 0,19.6403 L0,21.78 " stroke-linecap="round" fill="none" stroke="#4dabf7" stroke-width="4.083101296667316" stroke-dasharray="none" stroke-dashoffset="0"/></g></g><g transform="matrix(1, 0, 0, 1, 839.0093, 1591.1567) scale(1.361033765555772, 1.361033765555772)" opacity="1"><g transform="scale(0.7347356291279478)"><path d="M0,0 Q-2.4806,1.2403 -5.0181,1.5777 T-10.7988,2.0986 -17.3566,2.3819 -23.4047,2.5361 -30.108,2.62 -37.4802,2.6656 -43.6635,3.0005 -48.5776,3.8028 -52.1811,4.8617 -55.4058,6.1236 L-57.16,6.81 " stroke-linecap="round" fill="none" stroke="#4dabf7" stroke-width="4.083101296667316" stroke-dasharray="none" stroke-dashoffset="0"/></g></g><g transform="matrix(1, 0, 0, 1, 806.3445, 1621.0994) scale(1.361033765555772, 1.361033765555772)" opacity="1"><g transform="scale(0.7347356291279478)"><path d="M0,0 Q0,4.9658 -0.3101,6.6266 T-1.0989,9.501 -2.1482,11.6848 -3.3392,13.4929 -3.9871,15.0967 -3.7194,16.5893 -2.6435,17.7114 -1.128,18.6342 0.9368,19.7586 3.3026,20.9904 5.2121,21.9706 6.871,23.124 8.0835,24.9918 8.433,26.9381 8.003,28.9271 7.1466,30.9417 6.0583,32.35 3.9159,33.4261 0.5798,34.3217 -3.0977,34.8088 -6.9611,34.7638 -10.3031,34.1168 -13.0513,32.8323 -16.0557,30.9591 L-17.69,29.94 " stroke-linecap="round" fill="none" stroke="#4dabf7" stroke-width="4.083101296667316" stroke-dasharray="none" stroke-dashoffset="0"/></g></g><g transform="matrix(1, 0, 0, 1, 800.9003, 1623.8215) scale(1.361033765555772, 1.361033765555772)" opacity="1"><g transform="scale(0.7347356291279478)"><path d="M0,0 Q5.586,0.6202 7.7256,0.7888 T11.3391,1.0493 14.5475,0.5708 18.3509,-0.6797 L20.42,-1.36 " stroke-linecap="round" fill="none" stroke="#4dabf7" stroke-width="4.083101296667316" stroke-dasharray="none" stroke-dashoffset="0"/></g></g><g transform="matrix(1, 0, 0, 1, 780.4848, 1553.0477) scale(1.361033765555772, 1.361033765555772)" opacity="1"><g transform="scale(0.7347356291279478)"><path d="M0,0 Q-1.8605,3.1054 -2.6766,4.5702 T-5.1793,8.3823 -8.0935,12.9389 -11.2292,18.5209 -14.4854,24.3482 -17.1893,29.691 -19.5927,35.7029 -21.5204,42.0765 -23.1892,49.577 -24.4071,57.0704 -25.0696,63.3197 -25.1199,69.2022 -24.2171,75.1953 -22.4833,80.9385 -20.2597,86.6972 L-19.05,89.83 " stroke-linecap="round" fill="none" stroke="#4dabf7" stroke-width="4.083101296667316" stroke-dasharray="none" stroke-dashoffset="0"/></g></g><g transform="matrix(1, 0, 0, 1, 848.5365, 1565.297) scale(1.361033765555772, 1.361033765555772)" opacity="1"><g transform="scale(0.7347356291279478)"><path d="M0,0 Q2.4806,2.4806 3.4677,4.0879 T5.3019,7.8098 6.9198,12.9376 8.7302,20.693 10.3352,29.2553 11.2084,37.6364 11.3733,46.5415 10.5327,55.109 8.5228,63.183 5.5666,70.0581 2.4081,75.6586 -0.5505,80.258 -3.4025,83.3825 -5.8866,85.3923 -8.2463,87.3856 L-9.53,88.47 " stroke-linecap="round" fill="none" stroke="#4dabf7" stroke-width="4.083101296667316" stroke-dasharray="none" stroke-dashoffset="0"/></g></g><g transform="matrix(1, 0, 0, 1, 885.2844, 1595.2398) scale(1.361033765555772, 1.361033765555772)" opacity="1"><g transform="scale(0.7347356291279478)"><path d="M0,0 L0,-2.72 " stroke-linecap="round" fill="none" stroke="#4dabf7" stroke-width="4.083101296667316" stroke-dasharray="none" stroke-dashoffset="0"/></g></g><g transform="matrix(1, 0, 0, 1, 911.1441, 1582.9905) scale(1.361033765555772, 1.361033765555772)" opacity="1"><g transform="scale(0.7347356291279478)"><path d="M0,0 Q0,2.4806 -0.3101,3.4677 T-1.0989,5.3019 -2.1482,6.9198 -3.3392,8.4201 -4.2972,10.1666 -4.5082,11.7368 -3.6928,12.901 -2.0089,13.8445 0.1475,14.6678 2.8732,16.0459 5.5986,17.7281 8.0115,19.5758 9.9443,22.1313 10.9957,25.0719 11.2576,27.9119 10.4698,30.3894 8.7986,32.3596 6.6469,34.0515 4.2361,35.282 1.6843,35.6413 -0.9442,35.2167 -3.3067,34.3632 -5.5757,33.2601 L-6.81,32.66 " stroke-linecap="round" fill="none" stroke="#4dabf7" stroke-width="4.083101296667316" stroke-dasharray="none" stroke-dashoffset="0"/></g></g><g transform="matrix(1, 0, 0, 1, 904.3389, 1584.3515) scale(1.361033765555772, 1.361033765555772)" opacity="1"><g transform="scale(0.7347356291279478)"><path d="M0,0 Q3.1054,0 4.5702,0.3101 T7.452,0.7888 10.2601,0.7392 13.028,0.4021 16.0864,-0.0913 19.3028,-1.29 22.2929,-2.5622 24.8497,-3.5644 27.2657,-4.7792 L28.58,-5.44 " stroke-linecap="round" fill="none" stroke="#4dabf7" stroke-width="4.083101296667316" stroke-dasharray="none" stroke-dashoffset="0"/></g></g><g transform="matrix(1, 0, 0, 1, 845.8145, 1494.5233) scale(1.361033765555772, 1.361033765555772)" opacity="1"><g transform="scale(0.7347356291279478)"><path d="M0,0 L1.36,2.72 " stroke-linecap="round" fill="none" stroke="#4dabf7" stroke-width="4.083101296667316" stroke-dasharray="none" stroke-dashoffset="0"/></g></g><g transform="matrix(1, 0, 0, 1, 883.9234, 1479.5519) scale(1.361033765555772, 1.361033765555772)" opacity="1"><g transform="scale(0.7347356291279478)"><path d="M0,0 Q1.2403,3.1054 1.2676,4.2601 T0.9997,6.3531 0.2337,8.4219 -0.493,10.4776 -1.1984,11.906 -1.8923,13.3032 -1.9596,14.9935 -1.3761,16.2231 -0.1284,17.2021 1.7906,18.3571 3.7671,19.6079 5.7748,20.9084 7.7973,22.5462 9.5176,24.3674 10.7636,26.5984 10.8212,29.0524 9.2999,30.6975 7.2297,31.5924 5.1733,31.7691 2.5042,31.2451 -0.4982,30.3399 -3.6988,29.2001 L-5.44,28.58 " stroke-linecap="round" fill="none" stroke="#4dabf7" stroke-width="4.083101296667316" stroke-dasharray="none" stroke-dashoffset="0"/></g></g><g transform="matrix(1, 0, 0, 1, 882.5624, 1483.635) scale(1.361033765555772, 1.361033765555772)" opacity="1"><g transform="scale(0.7347356291279478)"><path d="M0,0 Q4.3457,0 5.8378,0 T8.7618,0 11.5927,0 14.3731,0 17.4383,0 20.6584,-0.3101 24.8931,-0.7888 29.6797,-1.3594 34.2589,-2.2406 L36.75,-2.72 " stroke-linecap="round" fill="none" stroke="#4dabf7" stroke-width="4.083101296667316" stroke-dasharray="none" stroke-dashoffset="0"/></g></g><g transform="matrix(1, 0, 0, 1, 822.6769, 1536.7153) scale(1.361033765555772, 1.361033765555772)" opacity="1"><g transform="scale(0.7347356291279478)"><path d="M0,0 Q3.1054,-0.6202 4.2601,-0.7888 T6.6632,-1.0493 9.2108,-1.191 11.837,-1.268 14.506,-1.31 17.2005,-1.3328 19.9089,-1.3452 22.6226,-1.3519 25.3392,-1.3556 28.0573,-1.6677 30.7786,-2.1475 33.8116,-2.7187 37.3221,-3.3394 40.7845,-3.6771 44.5307,-3.8608 48.4292,-3.9608 51.7903,-4.0151 55.1714,-4.0447 59.1836,-4.0608 62.9166,-4.0696 66.1877,-4.0743 69.8299,-4.0769 73.674,-4.0783 77.6257,-4.3892 81.6382,-4.8683 85.6837,-5.129 89.745,-5.2708 93.507,-5.6603 97.1062,-6.1846 100.6146,-6.4698 104.2062,-6.6901 L106.16,-6.81 " stroke-linecap="round" fill="none" stroke="#4dabf7" stroke-width="4.083101296667316" stroke-dasharray="none" stroke-dashoffset="0"/></g></g><g transform="matrix(1, 0, 0, 1, 935.6427, 1544.8815) scale(1.361033765555772, 1.361033765555772)" opacity="1"><g transform="scale(0.7347356291279478)"><path d="M0,0 Q-5.586,3.7255 -8.9682,5.9792 T-15.4305,10.079 -22.6693,14.4821 -31.8831,19.9805 -43.7217,27.005 -55.4356,34.2394 -67.0838,41.5881 -79.3166,49.3113 -91.8673,57.5484 -104.2808,65.7526 -114.757,72.3862 -124.1816,77.8576 -132.1016,82.0767 -138.8907,85.6122 -144.4467,88.4658 -148.7118,90.6383 -151.9623,92.1302 -154.3507,93.2519 -155.65,93.862 -155.7366,93.2638 -154.8535,91.698 -153.2904,89.6073 L-152.44,88.47 " stroke-linecap="round" fill="none" stroke="#4dabf7" stroke-width="4.083101296667316" stroke-dasharray="none" stroke-dashoffset="0"/></g></g><g transform="matrix(1, 0, 0, 1, 996.8892, 1548.9646) scale(1.361033765555772, 1.361033765555772)" opacity="1"><g transform="scale(0.7347356291279478)"><path d="M0,0 Q3.1054,0.6202 4.2601,0.7888 T6.6632,1.0493 9.2108,1.191 12.1471,0.958 15.2971,0.5211 18.2533,0.2835 20.7917,0.1542 23.1029,0.0839 25.7694,0.0296 L27.22,0 " stroke-linecap="round" fill="none" stroke="#4dabf7" stroke-width="4.083101296667316" stroke-dasharray="none" stroke-dashoffset="0"/></g></g><g transform="matrix(1, 0, 0, 1, 1005.0554, 1561.2139) scale(1.361033765555772, 1.361033765555772)" opacity="1"><g transform="scale(0.7347356291279478)"><path d="M0,0 Q2.4806,0.6202 3.7778,0.4788 T6.0907,0.2604 8.2792,0.1417 10.71,-0.233 13.5828,-0.7469 17.1237,-1.144 L19.05,-1.36 " stroke-linecap="round" fill="none" stroke="#4dabf7" stroke-width="4.083101296667316" stroke-dasharray="none" stroke-dashoffset="0"/></g></g><g transform="matrix(1, 0, 0, 1, 1060.8578, 1539.4374) scale(1.361033765555772, 1.361033765555772)" opacity="1"><g transform="scale(0.7347356291279478)"><path d="M0,0 Q2.4806,0.6202 2.8453,1.0989 T3.0982,2.4583 2.3056,4.4404 0.9442,6.7613 -0.7267,9.2641 -2.5659,11.5559 -4.1888,13.7329 -5.3841,15.8474 -5.7219,17.3078 -4.9732,18.4146 -3.0155,19.6391 -0.4001,20.9255 2.2653,22.2454 4.6477,23.5836 6.564,25.2418 7.9165,27.3842 8.3422,29.4799 7.6412,31.2424 6.0173,32.5135 3.8936,33.205 1.1879,33.5812 -1.8367,33.7859 -4.4146,33.5848 -6.8469,32.9858 L-8.17,32.66 " stroke-linecap="round" fill="none" stroke="#4dabf7" stroke-width="4.083101296667316" stroke-dasharray="none" stroke-dashoffset="0"/></g></g><g transform="matrix(1, 0, 0, 1, 1055.4137, 1536.7153) scale(1.361033765555772, 1.361033765555772)" opacity="1"><g transform="scale(0.7347356291279478)"><path d="M0,0 Q4.3457,0.6202 6.1479,0.7888 T9.8607,1.0493 13.7432,0.8809 17.7181,0.1691 21.7409,-0.8382 26.4122,-2.0064 31.4363,-3.262 36.9624,-4.8776 43.878,-7.01 L47.64,-8.17 " stroke-linecap="round" fill="none" stroke="#4dabf7" stroke-width="4.083101296667316" stroke-dasharray="none" stroke-dashoffset="0"/></g></g></svg>