<svg xmlns="http://www.w3.org/2000/svg" direction="ltr" width="1904.3781340011428" height="1158.43735402961" viewBox="247.75953075559585 2991.578270155177 1904.3781340011428 1158.43735402961" stroke-linecap="round" stroke-linejoin="round" style="background-color: transparent;"><defs/><g transform="matrix(1, 0, 0, 1, 799.0959, 3187.9656) scale(1.6971776312717215, 1.6971776312717215)" opacity="1"><g transform="scale(0.5892135163546107)"><path d="M0,0 Q1.5458,3.8714 1.581,5.6974 T1.6353,9.6772 1.6648,14.1632 1.6808,18.5394 1.6896,22.8557 1.6943,27.1372 1.6969,31.0145 1.6983,34.6718 1.6991,38.2096 1.6995,42.0698 1.6997,46.1032 1.6999,49.8455 1.6999,53.817 1.7,57.911 1.7,61.6862 1.7,65.2881 1.7,68.7956 1.7,72.2518 1.3124,75.6778 0.7139,79.0897 0.3884,82.8815 0.2113,86.8776 0.1149,90.5997 0.0625,94.5602 0.034,98.6504 0.0185,102.4236 0.0101,106.0221 0.0055,109.5278 0.003,112.983 0.0016,116.4107 0.0009,119.8236 -0.3871,123.2283 -0.9858,126.6285 -1.3115,130.4117 -1.4886,134.4055 -1.585,138.1262 -1.6375,141.6961 -1.666,145.5739 -1.6815,149.6191 -1.6899,153.3656 -1.6945,157.3393 -1.697,161.4368 -2.0837,165.5993 -2.6794,169.7994 -3.0034,174.0199 -3.1797,178.637 -3.2756,183.0821 -3.3278,187.4359 -3.3561,192.1277 -3.3716,197.0011 -3.7676,201.5857 -4.3706,206.0131 -4.6986,210.3574 -4.8771,214.6564 -4.9742,219.3161 -5.027,223.7867 -5.0557,228.1544 -5.0714,232.4639 -5.0799,236.7417 -5.0845,241.3921 -5.087,246.2453 -5.0884,251.2064 -5.0891,256.2263 -5.0895,261.2782 -5.0897,266.3475 -5.0899,271.4262 -5.0899,276.5123 -5.09,281.6025 -5.09,286.6926 -5.09,291.7827 -5.09,297.2603 -5.09,302.9488 -5.09,308.3643 -5.09,313.6314 -5.09,318.8201 -5.09,324.3513 -5.09,330.069 -5.09,335.5027 -4.7024,341.1673 -4.1039,346.9574 -3.7784,352.4283 -3.6013,357.7255 -3.5049,362.9282 -3.4525,368.0796 -3.424,373.5905 -3.4085,378.9118 -3.4001,383.7423 -3.3955,389.0787 -3.393,394.3028 -3.3916,399.0781 -3.3909,403.9969 -3.3905,408.9961 -3.3903,414.039 -3.3901,419.1033 -3.3901,423.7918 -3.39,428.2757 -3.39,433.0383 -3.39,437.5649 -3.39,441.5732 -3.39,445.6894 -3.39,449.8644 -3.39,454.069 -3.39,458.292 -3.39,462.525 -3.39,467.1489 -3.39,471.9853 -3.39,476.552 -3.39,480.972 -3.39,485.6975 -3.39,490.2017 -3.39,494.5853 -3.0047,498.9058 -2.4097,503.1918 -2.0861,507.4569 -1.91,511.7128 -1.8143,516.3513 -1.7622,521.1957 -1.7338,526.1521 -1.7184,531.1694 -1.71,536.2199 -1.7054,541.2907 -1.703,546.3725 -1.7016,551.458 -1.7009,556.5456 -1.7005,561.6343 -1.7003,566.3383 -1.7001,570.8329 -2.0854,575.5991 -2.6803,580.1253 -3.0039,584.521 -3.18,588.848 -3.2757,593.1376 -3.3278,597.4068 -3.3562,601.665 -3.3716,605.9149 -3.38,610.1603 -3.3846,614.7909 -3.387,619.2456 -3.3884,623.6047 -3.3891,627.9095 -3.3895,632.187 -3.3897,636.4497 -3.3899,640.3144 -3.3899,643.965 -3.39,647.8866 -3.39,651.9534 -3.39,656.1014 -3.0047,660.2937 -2.4097,664.1224 -2.0861,668.141 -1.91,672.2605 -1.8143,676.0496 -1.7622,680.0466 -1.7338,684.1544 -1.7184,687.9372 -1.71,691.5432 -1.7054,695.4382 -1.703,699.4929 -1.7016,703.6343 -1.7009,707.8207 -1.7005,712.0315 -1.7003,716.258 -1.7001,720.4929 -2.0854,725.1177 -2.6803,729.9546 -3.0039,734.5216 -3.18,738.9418 -3.2757,743.6674 -3.7154,748.1716 -4.3422,752.5576 -4.6832,757.2669 -4.8687,761.7622 -4.9696,766.1411 -5.0245,770.4589 -5.0544,774.7435 -5.0706,779.0078 -5.0795,782.8757 -5.0843,786.9155 -5.0869,791.0466 -5.0883,794.8421 -5.0891,798.4549 -5.0895,801.9684 -5.0897,805.8155 -5.0899,809.8418 -5.0899,813.5802 -5.09,817.162 -5.09,820.6586 -5.09,824.4965 -5.09,828.9053 -5.09,833.2372 -5.09,837.5271 -5.09,842.1842 -5.09,847.041 -5.09,851.6165 -5.09,856.039 -5.09,860.7659 -5.09,865.6606 -5.09,870.6467 -5.09,875.6802 -5.09,880.7394 -5.09,885.8127 -5.09,890.8936 -5.09,895.9809 -5.09,901.0717 -5.09,906.1622 -5.09,910.8648 -5.4776,915.3565 -6.0761,919.7357 -6.7892,923.2808 -7.9501,925.9822 -9.3943,928.6168 L-10.18,930.05 " stroke-linecap="round" fill="none" stroke="#9398b0" stroke-width="5.091532893815165" stroke-dasharray="none" stroke-dashoffset="0"/></g></g><g transform="matrix(1, 0, 0, 1, 279.7595, 3675.0556) scale(1.6971776312717215, 1.6971776312717215)" opacity="1"><g transform="scale(0.5892135163546107)"><path d="M0,0 Q0.7752,1.5458 1.759,1.9663 T4.0531,2.6155 6.8493,2.9687 9.9162,3.1608 13.1327,3.2653 16.4306,3.3222 20.1582,3.3531 24.1216,3.7575 27.8259,4.3651 31.7767,5.0833 35.8617,5.8615 39.6298,6.2849 43.6153,6.9028 47.7192,7.6266 51.4975,8.0203 55.101,8.2345 58.9971,8.7363 63.05,9.3946 66.8029,9.7528 70.3926,9.9476 73.5059,10.0536 76.36,10.1112 79.8484,10.1426 83.6818,10.1596 87.313,10.1689 90.8365,9.7887 94.3014,9.1965 97.7345,8.8743 101.1501,8.6991 104.5564,8.2161 107.9575,7.5658 111.7412,7.212 115.7352,7.0196 119.4561,6.9149 123.0283,6.8579 126.9074,6.827 130.951,6.8101 134.6989,6.8009 138.2858,6.796 142.1706,6.7932 146.2196,6.7918 150.358,6.791 154.5427,6.7905 158.3673,6.7903 162.3836,6.7902 166.5019,6.7901 170.6757,6.79 174.882,6.79 179.1059,6.79 183.3372,6.79 187.5747,6.79 191.8156,6.79 196.0561,6.79 200.2987,6.79 204.5424,6.79 208.7844,6.79 213.0255,6.79 217.6536,6.79 222.1071,6.4024 226.4655,5.8039 231.1575,5.4784 235.6457,5.3013 240.023,5.2049 244.7253,5.1525 249.2167,5.124 253.5958,4.7209 257.9138,4.114 262.1962,3.7839 266.4615,3.6043 270.33,3.5066 274.3679,3.4534 278.5002,3.4245 282.2963,3.4088 286.2948,3.4002 290.4057,3.3956 294.5778,3.393 298.7808,3.3916 303.0007,3.3909 307.2321,3.3905 311.0821,3.7779 315.1099,4.3762 319.2367,4.7017 323.4175,4.8788 327.6252,4.9751 331.85,5.0275 336.4715,5.056 340.9191,5.0715 345.272,5.4675 349.5757,6.0706 353.8527,6.3986 358.5004,6.5771 363.3498,6.6742 367.9236,6.727 372.3474,6.7557 376.6874,6.7714 380.9818,6.7799 385.2537,6.7845 389.1257,6.787 393.1656,6.7884 397.2989,6.7891 401.0956,6.7895 405.0945,6.7897 409.2055,6.4023 412.9901,5.8039 416.597,5.4783 420.4949,5.3013 424.5488,5.2049 428.3022,5.1525 432.2798,5.124 436.3771,5.1085 440.1541,4.7125 443.7569,4.1094 447.265,3.7814 451.1091,3.6029 455.1337,3.5058 458.8712,3.453 462.8401,3.039 466.9327,2.4284 470.7071,2.0962 474.3086,1.9156 478.2012,1.8173 482.2545,1.7638 486.3952,1.7347 490.5812,1.7189 494.4065,1.7103 498.4232,1.7056 502.5417,1.703 506.3303,1.3141 510.327,0.7148 514.4346,0.3889 518.6049,0.2115 522.8093,0.1151 527.0299,0.0626 531.2616,0.0341 535.4994,0.0185 539.7382,-0.3775 543.9775,-0.9806 548.2195,-1.3086 552.4628,-1.4871 556.7046,-1.5842 560.9456,-2.0223 565.1884,-2.646 569.0446,-2.9853 573.0758,-3.1698 577.5921,-3.2702 581.9847,-3.3248 586.3077,-3.3546 590.9805,-3.3707 595.8458,-3.3795 600.4282,-3.3843 604.8545,-3.3869 609.5835,-3.3883 614.0917,-3.0038 618.4799,-2.4092 623.1882,-2.0858 628.0705,-1.9099 632.6622,-1.8142 637.0958,-1.7621 641.0535,-1.3462 645.1399,-0.7323 649.6863,-0.3984 654.0952,-0.2167 658.4271,-0.1179 662.3318,-0.0641 666.3917,-0.0349 670.5337,-0.019 674.7226,0.3773 678.9372,0.9804 683.1633,1.3086 687.398,1.4871 691.6374,1.5842 695.8771,1.637 700.117,1.6657 704.3591,1.6814 708.215,1.6899 712.246,1.6945 716.3747,1.697 720.5563,1.6984 724.7646,1.6991 728.9896,1.6995 733.2238,1.6997 737.4606,1.6999 741.7011,1.6999 745.9437,1.7 750.5727,1.7 755.0243,1.7 759.3794,2.0853 764.0719,2.6803 768.948,3.0039 773.534,3.18 777.9622,3.2757 782.6922,3.3278 787.201,3.3562 791.5896,3.3716 796.298,3.38 801.1804,3.3846 805.7721,3.387 810.2058,3.3884 814.5511,3.3891 818.8507,3.3895 823.513,3.3897 827.9827,3.3899 832.3477,3.3899 837.0432,3.39 841.5334,3.39 845.9117,3.39 850.227,3.39 854.5102,3.39 859.1636,3.39 863.6285,3.39 867.9908,3.39 872.6872,3.39 877.1778,3.39 881.5541,3.39 886.2559,3.39 890.7494,3.39 894.7419,3.7776 898.8473,4.3761 903.0164,4.7016 907.2201,4.8787 911.4403,4.9751 915.6696,5.0275 920.2936,5.056 924.7448,5.0715 928.7121,5.0799 932.806,5.0845 936.9688,5.087 940.7815,5.0884 944.7914,5.0891 948.9061,5.0895 952.6927,5.0897 956.6883,5.0899 960.7954,5.0899 964.963,5.09 969.166,5.09 973.0005,4.7024 976.6346,4.1039 980.1597,3.7784 983.6231,3.6013 987.0554,3.5049 990.8582,3.4525 994.8604,3.424 998.5858,3.4085 1002.1605,3.4001 1005.6532,3.3955 1009.1014,3.393 1012.5253,3.3916 1015.9361,3.3909 1019.3396,3.3905 1022.7393,3.3903 1026.1345,3.3901 1029.1421,3.3901 1031.941,3.39 1035.0117,3.39 1038.228,3.39 1041.5258,3.39 1044.8679,3.39 1048.6195,3.39 1052.596,3.39 1056.3074,3.39 1060.2598,3.39 1064.3457,3.39 1068.1165,3.39 1071.7159,3.39 1075.2221,3.39 1079.063,3.39 1083.0881,3.39 1086.8259,3.39 1090.7927,3.39 1094.8863,3.39 1098.6614,3.39 1102.2632,3.39 1105.7706,3.39 1109.2268,3.39 1112.6551,3.39 1116.0659,3.39 1119.4696,3.39 1122.8692,3.39 1126.6521,3.39 1131.0333,3.39 1135.3524,3.39 1138.8625,3.39 1141.9325,3.0047 1145.4024,2.1597 L1147.29,1.7 " stroke-linecap="round" fill="none" stroke="#9398b0" stroke-width="5.091532893815165" stroke-dasharray="none" stroke-dashoffset="0"/></g></g><g transform="matrix(1, 0, 0, 1, 315.4003, 3201.543) scale(1.6971776312717215, 1.6971776312717215)" opacity="1"><g transform="scale(0.5892135163546107)"><path d="M0,0 Q3.0962,2.321 4.326,2.9524 T6.6101,4.3147 8.6256,5.8311 10.4972,7.4289 12.6759,9.071 15.0216,10.7395 17.0729,12.8077 19.3493,15.0933 21.7482,17.1119 23.8261,19.3705 26.117,21.7597 28.526,24.22 30.6095,26.7189 32.5158,28.8535 34.328,31.1752 36.0891,33.5987 37.82,35.6924 39.5346,37.9918 41.2425,40.4032 42.9445,42.488 44.6433,44.395 46.3427,46.2076 48.0423,47.9688 49.7399,49.3146 51.4363,50.432 53.1343,51.8127 54.8309,53.3391 56.9144,54.9423 59.2106,56.5874 61.2327,58.2576 63.1056,59.9413 64.8997,62.0178 66.6486,64.3079 68.3729,66.3267 70.0861,68.5854 71.7933,70.9769 73.495,73.4385 75.1936,76.3234 76.8928,79.0533 78.9777,81.3135 81.2725,83.3183 83.296,85.1818 85.1697,86.9685 86.9619,89.101 88.7121,91.4216 90.4371,93.4592 92.1484,95.3428 93.8546,97.1405 95.5579,98.8913 97.2575,100.6189 98.9549,102.7193 100.6536,105.0224 102.3528,107.0505 104.4377,108.9267 106.7324,111.1079 108.7537,113.4573 110.6262,115.8958 112.42,118.3829 114.171,120.1235 115.5112,121.8433 116.6256,123.9394 118.0047,125.8549 119.5302,127.6698 121.1329,129.4301 122.7778,131.1628 124.4477,133.266 126.1314,135.9582 128.2078,139.3585 130.8833,142.7541 133.4992,145.7618 135.6975,148.5608 138.0539,151.244 140.8839,153.8642 143.9715,156.0625 147.5846,158.4189 151.8712,160.8635 156.1388,163.354 160.3961,165.8693 164.6455,168.0105 168.5053,170.3359 172.1532,172.7637 175.6857,175.2449 178.7702,177.7552 181.6087,180.2814 184.6987,182.8161 187.9278,185.3555 191.2325,187.8975 194.1908,190.4431 196.9606,192.9885 200.0155,195.5336 203.2255,198.0787 206.1323,200.6238 208.8741,203.1711 211.9137,205.7174 215.1154,208.6484 218.4053,211.791 221.7431,215.0486 225.107,218.3689 228.485,221.7233 231.8685,225.0962 235.2573,228.0916 238.6489,230.8816 242.042,233.9475 245.436,237.1634 248.8305,240.461 252.2252,243.803 255.62,247.5568 259.0149,251.5323 262.4076,255.2431 265.8013,258.8099 269.1956,262.2961 272.5903,265.7407 275.9851,269.1626 279.38,272.1847 282.7749,274.9892 286.1676,278.063 289.1737,281.2833 291.9719,284.5832 295.0422,287.9265 298.2583,291.2934 301.5559,294.6731 304.898,298.0575 308.6518,301.4467 312.6296,304.8386 316.3393,308.2319 320.2932,311.6259 324.3798,315.0204 328.1487,318.4152 331.7471,321.81 334.8675,325.2049 337.7255,328.2123 340.4407,331.0088 343.0784,333.6906 345.6737,336.3101 348.2462,338.8956 350.8061,341.0773 352.9739,343.4246 355.3137,345.8621 357.747,348.3486 359.846,350.8618 362.1483,353.3895 364.5613,355.9251 366.6469,358.0797 368.5544,360.4122 370.3673,362.8417 372.1287,364.9385 373.8598,366.8521 375.9621,369.0536 378.2662,371.4141 380.2926,373.8586 382.5577,376.349 384.9505,378.8643 387.4127,381.3931 389.9149,383.544 392.049,385.8746 394.3705,388.303 396.7939,390.7846 398.8852,393.295 400.798,395.8213 402.9991,398.356 405.357,400.8978 407.8003,403.8286 410.6775,406.5835 413.7908,409.2426 417.0326,412.2374 419.9567,415.4146 422.7079,418.3035 425.7526,421.0356 428.9571,424.07 432.2485,427.2689 435.1995,430.5549 437.9654,433.503 441.0181,436.2695 444.2269,439.3227 447.1331,442.1441 449.8745,444.8395 452.914,447.4663 455.7302,449.6705 458.4228,452.03 461.0481,454.8618 463.6368,457.5628 466.5931,460.5779 469.7495,463.7663 472.6271,466.6636 475.353,469.7878 478.384,473.0333 481.581,476.3469 484.866,479.3123 488.2012,482.086 491.5637,485.1408 494.5533,487.963 497.3403,490.6612 500.4045,493.6771 503.6195,496.8636 506.529,500.1451 509.2723,503.4784 512.3128,506.8399 515.5149,510.2166 518.805,513.6017 522.1429,516.9913 525.5069,519.9957 528.885,522.7907 532.2708,525.8592 535.6608,529.0767 539.0508,532.3751 542.4431,535.7175 545.8366,539.0816 549.2308,542.4599 552.6253,545.8457 556.0201,548.8482 559.0274,551.642 561.8239,554.71 564.8933,557.9271 568.1111,561.2253 571.0222,564.5676 573.7663,567.934 576.4196,571.3134 579.0236,574.3123 581.9882,577.1043 584.7615,579.7836 587.4307,582.4017 590.4309,584.9864 593.6111,587.5531 596.5016,590.1098 599.2369,592.6635 602.273,595.6008 605.4705,598.7468 608.3704,602.0064 611.1108,605.3254 614.1497,608.2915 617.3487,611.0679 620.637,614.1263 623.5887,617.336 626.3549,620.2425 629.4056,622.9865 632.6133,625.6397 635.9064,628.2436 639.246,631.2082 642.6108,634.3691 645.9894,637.6368 649.3755,640.9602 652.7633,644.3163 655.7669,647.6901 658.5636,651.4589 661.6331,655.4448 664.851,659.1613 668.1497,663.1188 671.4901,667.2074 674.8553,670.9774 678.2341,674.964 681.6203,679.0685 685.0105,682.8471 688.4029,686.8384 691.7965,690.9454 695.1885,694.3402 698.5818,697.3474 701.9759,700.5315 705.3704,703.4241 709.1527,706.5436 713.1438,710.1763 716.863,713.7006 720.822,717.5512 724.9091,721.9693 729.0682,726.6961 733.6541,731.5885 738.0823,736.1834 741.6517,740.6187 744.3687,744.5797 747.0185,748.1874 L748.46,750.15 " stroke-linecap="round" fill="none" stroke="#e599f7" stroke-width="5.091532893815165" stroke-dasharray="none" stroke-dashoffset="0"/></g></g><g transform="matrix(1, 0, 0, 1, 1124.954, 3960.1814) scale(1.6971776312717215, 1.6971776312717215)" opacity="1"><g transform="scale(0.5892135163546107)"><path d="M1.7,0 Q6.3421,0 8.7652,0 T12.8942,0 16.635,0 L18.67,0 " stroke-linecap="round" fill="none" stroke="#e599f7" stroke-width="5.091532893815165" stroke-dasharray="none" stroke-dashoffset="0"/></g></g><g transform="matrix(1, 0, 0, 1, 1192.8411, 3944.9068) scale(1.6971776312717215, 1.6971776312717215)" opacity="1"><g transform="scale(0.5892135163546107)"><path d="M0,0 Q0,3.0962 -0.7729,4.7113 T-2.3539,8.3656 -5.1497,13.4497 -8.9916,18.9241 -12.2422,23.0627 -15.1733,26.0893 -18.539,28.9784 L-20.37,30.55 " stroke-linecap="round" fill="none" stroke="#e599f7" stroke-width="5.091532893815165" stroke-dasharray="none" stroke-dashoffset="0"/></g></g><g transform="matrix(1, 0, 0, 1, 1174.1721, 3943.2097) scale(1.6971776312717215, 1.6971776312717215)" opacity="1"><g transform="scale(0.5892135163546107)"><path d="M0,0 Q3.0962,4.6421 4.326,6.6799 T6.6101,10.9869 9.0132,15.6509 11.8686,20.8968 14.97,26.4592 19.3659,32.9667 24.0782,39.603 28.2698,45.8316 L30.55,49.22 " stroke-linecap="round" fill="none" stroke="#e599f7" stroke-width="5.091532893815165" stroke-dasharray="none" stroke-dashoffset="0"/></g></g><g transform="matrix(1, 0, 0, 1, 807.5818, 3557.9503) scale(1.6971776312717215, 1.6971776312717215)" opacity="1"><g transform="scale(0.5892135163546107)"><path d="M0,0 Q-3.0962,0 -4.7113,0 T-7.9802,0.3876 -11.3067,0.9861 -14.6643,1.3116 -18.039,1.4887 -21.0354,1.9704 -23.4383,2.6177 -25.5185,2.9699 -26.65,2.7761 -25.7175,2.2854 -23.6644,1.6309 -21.3869,0.8872 -18.9852,0.4826 -16.9058,0.2626 -15.7745,0.1428 -15.9321,0.0777 -16.6043,0.0274 L-16.97,0 " stroke-linecap="round" fill="none" stroke="#4dabf7" stroke-width="5.091532893815165" stroke-dasharray="none" stroke-dashoffset="0"/></g></g><g transform="matrix(1, 0, 0, 1, 824.5536, 3505.3378) scale(1.6971776312717215, 1.6971776312717215)" opacity="1"><g transform="scale(0.5892135163546107)"><path d="M0,0 Q1.5458,2.321 1.9663,3.7276 T2.2302,7.8327 1.9884,12.7745 1.4693,16.238 0.5177,18.9142 L0,20.37 " stroke-linecap="round" fill="none" stroke="#4dabf7" stroke-width="5.091532893815165" stroke-dasharray="none" stroke-dashoffset="0"/></g></g><g transform="matrix(1, 0, 0, 1, 827.9479, 3498.5491) scale(1.6971776312717215, 1.6971776312717215)" opacity="1"><g transform="scale(0.5892135163546107)"><path d="M0,0 Q-2.321,0.7752 -3.7276,0.9861 T-6.2846,1.6969 -9.2214,2.469 -13.1389,3.0655 L-15.27,3.39 " stroke-linecap="round" fill="none" stroke="#4dabf7" stroke-width="5.091532893815165" stroke-dasharray="none" stroke-dashoffset="0"/></g></g><g transform="matrix(1, 0, 0, 1, 586.9487, 3177.7826) scale(1.6971776312717215, 1.6971776312717215)" opacity="1"><g transform="scale(0.5892135163546107)"><path d="M0,1.7 Q0,5.5669 0.3876,8.1668 T0.9861,13.3416 1.3116,18.0924 1.4887,22.2249 1.9704,25.6336 2.6177,29.036 3.3575,32.435 4.1475,35.4446 4.5773,38.6299 5.1987,42.2985 5.9243,46.2276 6.3191,49.9132 6.5338,53.0787 6.6506,55.9612 7.1018,59.0774 7.7348,62.3207 8.0792,65.2456 8.6518,67.9973 9.3487,70.657 10.1154,73.2644 10.92,75.8434 11.7454,78.0192 12.582,79.9758 13.0371,82.203 13.67,84.9627 14.7872,88.0098 15.7825,90.828 16.7116,93.5239 17.9922,96.5385 19.0765,99.339 20.0517,101.6377 20.9675,104.0487 21.8533,106.5208 22.7227,108.6386 23.5833,110.5635 24.4391,112.7735 25.2899,115.1363 26.1381,117.5821 26.9871,120.0732 28.2242,122.9765 29.6724,126.104 30.8478,128.9658 31.8725,131.6832 33.2029,134.322 34.7018,136.9203 35.9048,139.4943 36.9469,142.055 38.2867,144.221 39.7884,146.5598 40.993,148.995 42.0359,151.4802 43.3761,153.9927 44.8781,156.52 46.4704,159.0553 47.7242,161.5951 48.7939,164.1373 50.1487,166.2954 51.6587,168.2423 52.8677,170.462 53.913,172.8323 55.2545,174.8946 56.7573,177.5647 58.35,180.5653 59.9916,183.3582 61.6575,186.038 63.3367,189.044 65.0254,192.2273 66.717,195.1196 68.4101,198.2411 70.1064,201.4873 71.8044,204.4138 73.1156,206.7787 74.2143,209.2257 75.5849,211.7174 76.7181,214.2357 77.7222,216.7662 79.0413,218.9157 80.5318,220.8602 81.7303,223.0786 82.7698,225.4459 84.1105,227.8942 85.6128,230.3866 87.203,232.903 88.8432,235.82 90.5084,238.5697 92.1872,241.226 93.8757,243.8316 95.5694,246.0242 96.8784,247.9899 97.9758,250.2198 99.3457,252.5934 100.8662,254.6575 102.0809,256.5556 103.1293,258.3634 104.4725,260.5073 105.9762,262.8341 107.5694,265.2605 109.209,267.7409 110.8738,270.2508 112.5547,272.7767 114.2443,274.9259 115.5511,276.8681 116.6473,278.6975 118.0165,280.8555 119.5366,283.19 120.7511,285.2329 121.7971,287.1194 122.7515,288.9186 123.6582,290.6703 124.9267,292.786 126.392,295.0975 127.962,297.5154 129.2014,299.9913 130.2632,302.1111 131.6161,304.0395 133.125,306.249 134.7187,308.6116 136.3609,311.0596 138.0294,313.5518 139.7101,315.6805 141.0096,317.6137 142.1042,319.4383 143.4748,321.2038 144.9934,322.9394 146.5924,324.6588 147.8499,326.3671 148.9215,328.0693 150.2797,329.7705 151.7915,331.8565 153.3868,334.5394 155.4152,337.1594 157.2915,339.3576 158.6999,341.3286 160.2412,343.5614 161.8549,346.3241 163.5057,348.6022 165.1766,350.6145 166.8608,352.8696 168.5499,354.8694 170.2417,357.1177 171.9373,359.5036 173.6348,361.5745 175.3312,363.474 177.027,365.2825 178.7247,367.0392 180.4234,368.7678 182.1205,370.4834 183.8166,371.8042 185.5145,372.9104 187.5986,373.8997 189.5053,374.8233 190.9302,375.711 192.4805,376.5815 194.0968,377.4426 195.749,378.2987 197.423,379.152 199.1065,379.6162 200.7953,380.2541 202.4892,380.9864 204.5712,381.3847 206.8643,381.6015 209.2723,381.7194 211.7428,381.7835 213.8619,381.8184 216.1752,381.8374 218.5942,381.8477 221.0707,381.8533 223.5784,381.8564 226.1053,381.858 228.6405,381.8589 231.1802,381.8594 233.7223,381.8597 235.8781,381.4745 238.2137,380.8797 240.6448,380.1685 242.7402,379.394 244.6553,378.585 246.4723,377.7574 248.6213,376.9218 250.9509,376.0819 252.9911,375.2375 254.8739,374.0029 256.6733,372.556 258.8127,371.3814 261.1371,370.357 263.1767,369.0269 265.4468,367.5281 267.8423,365.9398 269.9206,364.3028 271.8241,362.6371 273.6326,360.9558 275.7769,359.2682 278.1039,357.5773 280.145,355.8822 282.0306,353.7996 283.8292,351.5061 285.5806,349.4832 287.3086,347.2223 289.4091,344.8318 291.7123,342.3709 293.7405,339.8716 295.6167,337.7368 297.4103,335.4149 299.1612,332.9913 300.8866,330.5124 302.5982,327.6157 304.3044,324.4918 306.0079,321.6318 307.7074,318.9155 309.0173,315.8897 310.1175,313.0832 311.8788,310.3959 313.6121,307.3859 314.9404,304.5879 316.4359,301.9053 318.0247,298.8978 319.6619,295.7137 321.3254,292.048 323.0056,288.1182 324.6948,284.4323 326.3866,280.4937 328.0799,276.4154 329.7763,272.6486 331.472,268.6661 333.1674,264.5639 334.8649,260.7841 336.5636,256.7945 338.2605,252.6885 339.9566,248.519 341.6545,243.9298 342.9657,239.1123 344.0643,234.1682 345.4349,229.1553 346.9557,224.4948 348.5582,220.0261 350.2029,215.6594 351.8705,211.3482 353.5529,206.6819 355.2411,201.8223 356.5447,196.8577 357.6415,191.8359 359.0134,186.7807 360.1473,181.7074 361.1517,176.6265 362.0857,171.1538 362.9792,165.8556 363.8505,161.04 364.7121,155.7116 365.5684,150.4897 366.4219,145.3256 367.6591,139.8077 369.105,134.0974 370.2792,128.2823 371.3056,122.4102 372.2515,116.5072 373.1537,110.9749 374.4174,105.6443 375.4902,100.4234 376.4614,95.2622 377.3773,90.1312 377.8756,85.0166 378.5342,79.9132 379.2801,74.4284 380.0712,68.7359 380.8869,62.9306 381.3306,57.0639 381.9596,51.1638 382.6894,44.8578 383.474,38.7188 384.2884,33.0581 385.1191,27.27 385.9585,21.4127 386.8005,15.9053 387.6439,10.5882 388.4903,5.3747 389.3383,0.2152 390.1872,-4.9149 391.0367,-10.0267 391.4987,-14.741 392.1377,-18.8536 392.8729,-22.6391 393.2729,-26.2465 393.8758,-29.757 394.5891,-33.6002 394.9771,-37.6266 395.1882,-41.3651 395.3513,-45.3514 L395.44,-47.52 " stroke-linecap="round" fill="none" stroke="#4dabf7" stroke-width="5.091532893815165" stroke-dasharray="none" stroke-dashoffset="0"/></g></g><g transform="matrix(1, 0, 0, 1, 1062.1584, 3072.5575) scale(1.6971776312717215, 1.6971776312717215)" opacity="1"><g transform="scale(0.5892135163546107)"><path d="M0,1.7 Q-3.0962,2.4706 -4.7113,3.0679 T-8.7532,5.9257 -13.2752,10.189 -17.2834,14.0563 -21.0096,18.0959 -24.1972,21.8392 -26.7065,24.6485 -28.8467,26.952 -31.0509,29.2823 L-32.25,30.55 " stroke-linecap="round" fill="none" stroke="#4dabf7" stroke-width="5.091532893815165" stroke-dasharray="none" stroke-dashoffset="0"/></g></g><g transform="matrix(1, 0, 0, 1, 1033.3064, 3067.466) scale(1.6971776312717215, 1.6971776312717215)" opacity="1"><g transform="scale(0.5892135163546107)"><path d="M0,0 Q3.0962,2.321 4.326,3.34 T6.6101,5.6861 8.6256,8.8958 10.8825,12.9653 13.6584,17.5023 16.7166,22.2916 19.5408,26.8303 21.8524,30.4599 23.8828,33.2096 25.3726,34.7055 26.5238,35.3107 L27.15,35.64 " stroke-linecap="round" fill="none" stroke="#4dabf7" stroke-width="5.091532893815165" stroke-dasharray="none" stroke-dashoffset="0"/></g></g><g transform="matrix(1, 0, 0, 1, 1060.4612, 3030.1281) scale(1.6971776312717215, 1.6971776312717215)" opacity="1"><g transform="scale(0.5892135163546107)"><path d="M0,0 Q3.0962,-2.321 4.7113,-2.9524 T7.5926,-4.3147 10.7082,-5.4435 14.7241,-6.0575 18.4569,-6.3915 21.2627,-6.1856 23.1767,-4.9131 23.8303,-3.0603 23.4106,-0.8919 22.4094,1.4482 20.7042,3.8841 18.6138,6.3697 16.7037,8.8824 14.8917,11.7974 13.5184,14.9313 13.1589,17.7967 14.1238,20.1284 15.8093,21.7844 17.5014,23.0729 19.5824,24.1614 22.2603,24.7536 25.2652,25.0757 28.688,25.3246 L30.55,25.46 " stroke-linecap="round" fill="none" stroke="#4dabf7" stroke-width="5.091532893815165" stroke-dasharray="none" stroke-dashoffset="0"/></g></g><g transform="matrix(1, 0, 0, 1, 1101.1935, 3069.1632) scale(1.6971776312717215, 1.6971776312717215)" opacity="1"><g transform="scale(0.5892135163546107)"><path d="M0,0 Q3.0962,3.0962 3.9384,5.0989 T5.2387,8.964 5.9461,13.0023 6.3309,17.5225 6.5403,21.9149 6.702,26.4066 L6.79,28.85 " stroke-linecap="round" fill="none" stroke="#4dabf7" stroke-width="5.091532893815165" stroke-dasharray="none" stroke-dashoffset="0"/></g></g><g transform="matrix(1, 0, 0, 1, 1113.0737, 3084.4378) scale(1.6971776312717215, 1.6971776312717215)" opacity="1"><g transform="scale(0.5892135163546107)"><path d="M0,0 Q-2.321,-1.5458 -3.7276,-1.9663 T-6.6722,-2.6155 -9.8199,-2.9687 -12.6927,-3.1608 -15.8037,-3.2653 -19.0442,-3.3222 -22.0985,-3.3661 L-23.76,-3.39 " stroke-linecap="round" fill="none" stroke="#4dabf7" stroke-width="5.091532893815165" stroke-dasharray="none" stroke-dashoffset="0"/></g></g><g transform="matrix(1, 0, 0, 1, 1133.4399, 3060.6773) scale(1.6971776312717215, 1.6971776312717215)" opacity="1"><g transform="scale(0.5892135163546107)"><path d="M0,0 Q2.321,4.6421 2.9524,7.8404 T3.5395,14.7122 3.086,21.5466 2.454,27.5879 1.7226,33.1954 0.6069,39.1763 L0,42.43 " stroke-linecap="round" fill="none" stroke="#4dabf7" stroke-width="5.091532893815165" stroke-dasharray="none" stroke-dashoffset="0"/></g></g><g transform="matrix(1, 0, 0, 1, 328.9777, 3199.8459) scale(1.6971776312717215, 1.6971776312717215)" opacity="1"><g transform="scale(0.5892135163546107)"><path d="M0,0 Q1.5458,1.5458 2.3539,2.3539 T3.9892,3.9892 5.6539,5.6539 7.3325,7.3325 9.0186,9.0186 10.711,10.711 12.4046,12.4046 14.0988,14.0988 15.7957,15.7957 17.494,17.494 19.1908,19.1908 20.8867,20.8867 22.5845,22.5845 24.2811,24.2811 25.9769,25.9769 27.6746,27.6746 29.3734,29.3734 31.0705,31.0705 32.7666,32.7666 34.4645,34.4645 36.1633,36.1633 37.8604,38.248 39.5565,40.5426 41.2544,42.5638 42.5657,44.4362 43.6643,46.23 45.0349,47.9811 46.5557,49.7065 48.1582,51.4181 49.8029,53.5097 51.4705,55.8081 53.1529,57.446 54.4558,58.7246 55.5498,60.5807 56.9179,62.7509 58.4373,64.7068 60.0391,66.9312 61.6834,69.3019 63.3508,71.3667 65.0331,73.2629 66.7212,75.4549 68.4124,77.8079 70.1076,79.8609 71.805,82.1405 73.5013,84.5411 75.197,86.62 76.8947,88.5261 78.5912,90.3359 80.287,92.0934 81.9847,93.8246 83.6834,95.927 85.3805,98.6187 87.0766,101.6312 88.7745,104.4305 90.471,106.7285 92.1669,109.1391 93.8646,111.6111 95.5634,113.731 97.2604,115.6571 98.9566,117.4779 100.2669,119.2436 101.3672,120.977 103.1264,122.6929 104.8563,124.4016 106.5725,126.1063 108.2814,127.8066 109.5963,129.5045 111.0846,131.2033 112.6694,132.9004 114.3067,134.5965 115.585,136.2944 116.6657,137.9933 118.0266,139.6904 119.542,141.3865 121.1394,143.4698 122.7813,145.7635 124.4497,147.7866 126.1324,150.0476 127.8208,152.4381 129.5122,154.5138 131.2075,156.4159 133.2903,158.2235 135.1962,159.9821 136.6207,161.7139 138.5561,163.429 140.3819,165.1349 141.7627,166.8381 143.2891,168.5376 145.2799,170.235 147.5235,171.9336 149.5192,173.6328 151.3778,175.3301 153.1617,177.0264 155.2927,179.112 157.6125,181.407 159.6497,183.4285 161.5331,185.3033 163.3306,187.0962 165.0814,188.8444 166.809,190.5706 168.9093,192.2849 171.2124,193.9904 173.2405,195.6911 175.1167,197.3915 177.2979,199.0894 179.6473,200.786 181.6982,202.4841 183.5869,204.1831 185.3895,205.8803 187.5306,207.5765 189.856,209.6597 191.8961,211.9535 193.7789,213.9766 195.576,215.8523 197.3289,217.6456 199.0554,219.3941 200.7675,221.1205 203.247,222.8325 206.144,224.9244 208.4951,226.8376 210.5471,228.266 212.4362,229.8159 214.6268,231.432 216.9789,233.0864 219.0314,234.7593 220.9232,236.4422 222.7252,238.133 224.866,239.8279 227.1934,241.5229 229.2325,243.2179 231.1146,244.9152 232.5261,246.6137 233.6816,248.3106 235.0831,250.3943 236.6184,252.6883 238.2288,254.7091 239.8801,256.5837 241.5513,258.3786 243.2333,260.128 244.9236,262.2402 246.6183,264.5498 248.3131,266.5791 250.3956,268.4582 253.0766,270.2557 255.6956,272.0064 257.8955,273.7317 260.2528,275.4455 262.6957,277.1507 265.1851,278.8513 267.6999,280.5516 269.8432,282.2517 271.782,283.9495 273.6096,286.0337 275.3791,287.9426 277.1146,289.754 278.8316,291.9 280.5409,293.8425 282.2459,295.2869 283.9464,296.458 285.6444,298.2555 287.7286,300.0086 290.0229,301.7352 292.0462,303.4474 293.9221,304.7664 296.1031,306.6445 298.4501,308.8267 300.4998,310.4014 302.7753,312.0332 305.176,314.4691 307.6425,316.9547 309.7572,319.0798 311.2952,321.0088 312.9071,322.8333 314.5568,324.9864 316.6148,327.3182 318.8949,329.3619 320.9082,331.2466 323.1662,333.4324 325.9427,335.7843 328.999,337.8366 332.2097,340.1136 335.1191,342.5128 337.8624,344.5909 340.5152,346.8842 342.7313,349.2922 344.7097,351.3751 346.5612,353.2834 348.7289,355.0945 351.0687,356.8526 353.1167,358.5842 355.0038,360.6867 356.8033,362.991 358.945,364.6322 361.2706,365.9125 363.3086,367.382 365.1925,368.9543 366.9903,370.5848 368.7412,372.247 370.4689,373.9242 372.5693,375.6095 374.8724,377.6868 376.9005,379.9774 378.7767,381.9987 380.5703,383.8734 382.3212,385.6662 384.0489,387.802 385.7617,390.1267 387.4664,392.5518 389.1689,395.0316 390.8703,397.1536 392.5688,399.0808 394.2656,400.9044 395.9639,402.6717 397.6607,404.406 399.3567,406.51 401.0545,408.4298 403.1387,409.8594 405.0454,411.4101 406.4702,413.0288 408.0205,414.2971 409.6368,415.3746 411.289,416.7336 412.963,418.2459 414.6488,420.2291 416.3388,422.0809 418.0311,423.4758 419.7269,425.3975 421.4224,427.2181 422.73,428.5938 423.829,430.1151 425.202,431.3303 426.3365,432.379 427.3413,433.7224 428.6608,435.2261 430.1516,436.8193 431.7377,438.4612 433.3735,439.742 435.0363,440.8241 436.7161,442.1857 438.4051,443.7016 440.0968,445.2991 441.79,446.9411 443.4863,448.6096 445.182,450.2924 446.8774,451.9808 448.5749,454.0598 450.2736,456.3536 451.9705,458.3743 453.6666,459.8589 454.9769,461.0541 456.0773,462.4795 457.4511,464.4155 458.9713,466.6291 460.1837,468.6086 461.2308,470.073 462.5904,471.2045 L463.33,471.82 " stroke-linecap="round" fill="none" stroke="#40c057" stroke-width="5.091532893815165" stroke-dasharray="none" stroke-dashoffset="0"/></g></g><g transform="matrix(1, 0, 0, 1, 792.3072, 3673.3584) scale(1.6971776312717215, 1.6971776312717215)" opacity="1"><g transform="scale(0.5892135163546107)"><path d="M0,0 Q2.321,-3.0962 2.9524,-4.326 T3.1542,-6.2248 2.1035,-6.4825 0.7567,-5.4599 -0.7489,-3.7431 -2.3408,-1.2633 -3.9821,2.0214 -5.2625,5.744 -5.959,8.9296 -5.9504,11.4355 -5.1704,13.5716 -3.9732,15.5089 -2.549,16.9504 -0.9991,17.7345 0.617,18.5487 2.2691,19.3792 4.3306,19.831 6.6126,20.0768 8.6269,19.8229 10.4979,19.2972 11.9034,18.6236 13.0532,17.4819 14.0641,15.3128 14.614,12.1993 14.9131,8.5721 15.0759,4.6632 15.1644,1.3763 14.8272,-1.5723 13.8709,-4.3392 12.5754,-6.6173 11.0978,-8.2419 9.521,-9.5133 7.8881,-10.5925 6.2246,-11.1796 4.5467,-11.1114 2.861,-10.6867 1.1688,-10.0703 -0.5247,-8.9621 -2.2189,-7.1964 -3.9157,-4.6878 -5.614,-2.1625 -6.9254,0.3717 -7.6389,3.2984 -8.027,6.4387 -8.2381,9.6929 -7.9654,12.6236 -7.0418,14.9932 -5.7642,17.0574 -4.2962,18.9533 -2.7248,20.3699 -1.0947,21.1406 0.9526,21.5599 3.6145,21.7879 6.6106,21.1391 9.4011,20.0132 11.692,18.6255 13.3236,15.9349 14.2111,12.5377 14.694,9.1416 14.5713,5.7459 13.7317,2.3529 12.4997,-0.6535 11.0566,-3.0641 9.4986,-5.1507 7.8759,-6.6734 5.8326,-7.5018 3.5605,-7.9524 1.2545,-8.3006 L0,-8.49 " stroke-linecap="round" fill="none" stroke="#40c057" stroke-width="5.091532893815165" stroke-dasharray="none" stroke-dashoffset="0"/></g></g><g transform="matrix(1, 0, 0, 1, 809.279, 3534.1899) scale(1.6971776312717215, 1.6971776312717215)" opacity="1"><g transform="scale(0.5892135163546107)"><path d="M0,0 Q-3.0962,0 -4.7113,0 T-7.9802,0 -10.9191,0.3876 -13.2907,0.9861 -15.7437,1.3116 -18.74,1.5632 L-20.37,1.7 " stroke-linecap="round" fill="none" stroke="#40c057" stroke-width="5.091532893815165" stroke-dasharray="none" stroke-dashoffset="0"/></g></g><g transform="matrix(1, 0, 0, 1, 790.61, 3534.1899) scale(1.6971776312717215, 1.6971776312717215)" opacity="1"><g transform="scale(0.5892135163546107)"><path d="M0,0 Q0.7752,3.0962 0.9861,4.326 T1.3116,6.9977 1.4887,9.997 1.5851,13.1767 1.6375,16.4545 1.666,19.7858 1.6815,23.1462 1.6899,26.5223 1.3069,30.2947 0.711,34.2803 0.3868,37.9965 0.2104,41.5663 0.1145,44.2812 0.4499,45.7581 1.4052,46.5615 2.6979,47.3862 4.1763,48.2224 6.1411,48.6773 8.3704,48.9248 10.3584,49.0594 12.6004,49.1326 14.9805,49.1725 17.4358,49.1941 20.4308,49.2109 L22.06,49.22 " stroke-linecap="round" fill="none" stroke="#40c057" stroke-width="5.091532893815165" stroke-dasharray="none" stroke-dashoffset="0"/></g></g><g transform="matrix(1, 0, 0, 1, 790.61, 3554.556) scale(1.6971776312717215, 1.6971776312717215)" opacity="1"><g transform="scale(0.5892135163546107)"><path d="M0,0 Q0.7752,2.321 1.759,2.9524 T3.6655,3.9271 5.8632,4.4574 8.2193,4.7459 10.2762,4.9028 12.168,4.9882 13.9701,4.647 15.7257,4.0738 17.8412,3.762 20.1526,3.5924 22.5705,3.1148 25.0463,2.4696 26.7808,1.7311 28.4996,0.9417 30.5951,0.1247 32.508,-1.0927 34.3238,-2.5279 36.0868,-3.6962 37.8188,-4.7194 39.5339,-5.6636 41.2421,-6.5648 42.9443,-7.828 44.6432,-8.9005 46.3426,-9.8716 48.0423,-11.175 49.7399,-12.2717 51.4362,-13.2536 53.1343,-14.5607 54.8309,-16.0469 56.5268,-17.243 57.837,-18.2813 58.9373,-19.6191 60.3111,-21.5073 61.8314,-23.6951 63.4313,-25.6581 65.0769,-27.8888 66.745,-30.6504 68.4253,-33.3133 70.1147,-35.5371 71.4213,-37.5197 72.5196,-39.3712 73.8901,-41.5389 75.4085,-43.8787 77.0098,-46.3143 78.6537,-48.7998 80.321,-51.3125 82.0032,-54.2275 83.6935,-56.5861 85.0006,-58.2569 86.097,-59.9409 87.4664,-61.63 88.9865,-63.3218 90.5864,-65.0173 91.842,-66.7126 92.9127,-68.4077 94.2704,-70.1051 95.3965,-72.189 96.3967,-74.8707 97.7138,-77.4901 99.2032,-80.0756 100.7886,-83.0302 102.4263,-86.5709 104.0901,-90.0452 105.3805,-93.098 106.4701,-95.9193 107.4505,-98.6146 108.3714,-101.2436 109.2599,-103.4467 110.1287,-105.4181 110.9865,-107.6511 111.8408,-110.0264 113.0808,-112.4813 114.1429,-114.9773 115.1083,-117.4957 116.0211,-120.4138 116.9029,-123.1617 118.1556,-126.2047 119.6122,-129.4083 120.7923,-132.3115 121.8195,-135.0514 123.1513,-138.09 124.6509,-141.2911 125.8543,-144.193 126.8966,-147.3198 128.2365,-150.9565 129.3507,-154.8683 130.3445,-158.1568 131.2727,-161.1063 132.1652,-163.8714 133.0384,-166.5361 133.8987,-169.1462 134.752,-172.1142 135.6038,-176.0521 136.8424,-180.1301 137.9038,-183.8943 138.4812,-187.4902 139.1829,-191.3821 140.3375,-195.8203 141.7386,-200.5557 142.8883,-204.6799 143.9014,-208.4716 145.2255,-212.47 146.331,-216.5808 147.3201,-220.7506 148.2457,-224.567 149.1369,-228.5789 150.0093,-232.6948 150.8714,-236.0944 151.7281,-239.1043 152.1941,-241.9022 152.8329,-244.9723 153.5657,-248.9635 153.9644,-253.0705 154.5689,-257.2404 155.2853,-261.4423 155.675,-265.2762 156.2747,-268.5246 156.9885,-271.8399 157.7621,-275.5769 158.5683,-278.7703 159.0068,-282.0556 159.2454,-285.7763 159.7628,-289.3485 160.4318,-293.2274 160.7958,-297.2711 160.9938,-301.0189 161.4891,-304.9934 162.1462,-309.0913 162.8912,-312.4811 163.6841,-315.8709 164.5007,-319.6508 165.3303,-323.2551 165.7816,-326.764 166.0271,-330.2209 166.5483,-333.262 167.2194,-336.4645 167.5845,-340.5277 168.1707,-344.6738 168.8772,-348.865 169.2615,-353.0784 169.4706,-356.5311 169.9696,-359.5698 170.6264,-363.1563 170.9837,-367.4307 171.5657,-372.0793 172.2699,-376.5416 172.653,-380.1296 173.249,-383.6296 173.9608,-387.4693 174.348,-391.4938 174.9463,-395.6166 175.6593,-399.7928 176.0472,-403.6128 176.2583,-406.8514 176.3731,-410.1613 176.4355,-413.51 176.4695,-416.4923 176.488,-419.2751 176.498,-422.3371 176.5035,-425.5509 176.5077,-429.1319 L176.51,-431.08 " stroke-linecap="round" fill="none" stroke="#40c057" stroke-width="5.091532893815165" stroke-dasharray="none" stroke-dashoffset="0"/></g></g><g transform="matrix(1, 0, 0, 1, 897.5322, 3133.6559) scale(1.6971776312717215, 1.6971776312717215)" opacity="1"><g transform="scale(0.5892135163546107)"><path d="M0,0 Q0,-5.4173 -0.3876,-7.2784 T-1.3714,-10.5372 -2.6795,-12.6954 -4.1663,-13.8694 -5.7503,-14.5081 -7.7725,-14.8555 -9.6455,-14.2716 -11.052,-12.7934 -12.5901,-10.8288 -13.8121,-7.8266 -14.4769,-4.2577 -14.8386,-0.768 -15.0353,2.6784 -15.1423,6.489 -14.8152,10.4954 -13.8644,14.223 -12.5719,17.799 -11.0959,21.2901 -9.52,25.125 -8.2751,29.1469 -7.5979,32.883 -7.2295,36.0759 -7.4167,38.5858 -8.2914,40.7263 -9.5402,42.6637 -11.3801,44.103 -13.9291,44.8859 -16.8639,45.3119 -20.0085,45.1583 -23.2673,44.3018 -26.5882,43.0606 -29.5553,41.6126 -32.3299,40.0519 -34.6145,38.4277 -36.3797,36.6222 L-37.34,35.64 " stroke-linecap="round" fill="none" stroke="#40c057" stroke-width="5.091532893815165" stroke-dasharray="none" stroke-dashoffset="0"/></g></g><g transform="matrix(1, 0, 0, 1, 892.4407, 3159.1136) scale(1.6971776312717215, 1.6971776312717215)" opacity="1"><g transform="scale(0.5892135163546107)"><path d="M0,0 Q-2.321,-1.5458 -3.7276,-1.9663 T-7.0598,-2.6155 -10.8059,-2.9687 -14.3919,-3.1608 -18.2637,-3.3092 L-20.37,-3.39 " stroke-linecap="round" fill="none" stroke="#40c057" stroke-width="5.091532893815165" stroke-dasharray="none" stroke-dashoffset="0"/></g></g><g transform="matrix(1, 0, 0, 1, 907.7153, 3130.2616) scale(1.6971776312717215, 1.6971776312717215)" opacity="1"><g transform="scale(0.5892135163546107)"><path d="M0,0 Q3.0962,0 3.5508,0.3876 T3.4798,1.3714 2.2806,3.0671 0.4677,5.5376 -1.679,8.4298 -3.622,11.5512 -5.4542,15.1827 -6.8385,19.0939 -7.5916,23.1574 -8.0013,26.916 -7.8365,30.1212 -6.9717,33.0254 -5.7261,35.3805 -3.8879,37.0492 -1.3421,37.957 1.7227,38.6584 L3.39,39.04 " stroke-linecap="round" fill="none" stroke="#40c057" stroke-width="5.091532893815165" stroke-dasharray="none" stroke-dashoffset="0"/></g></g><g transform="matrix(1, 0, 0, 1, 928.0814, 3145.5362) scale(1.6971776312717215, 1.6971776312717215)" opacity="1"><g transform="scale(0.5892135163546107)"><path d="M0,0 Q-0.7752,0.7752 -1.3714,1.759 T-3.0671,4.0531 -5.1523,6.8493 -7.4472,10.3038 -10.2415,14.1188 -13.4983,18.1675 L-15.27,20.37 " stroke-linecap="round" fill="none" stroke="#40c057" stroke-width="5.091532893815165" stroke-dasharray="none" stroke-dashoffset="0"/></g></g><g transform="matrix(1, 0, 0, 1, 912.8068, 3143.839) scale(1.6971776312717215, 1.6971776312717215)" opacity="1"><g transform="scale(0.5892135163546107)"><path d="M0,0 Q4.6421,5.4173 6.2923,7.2784 T8.8403,10.9248 10.614,14.069 12.3518,16.5547 14.0701,19.0674 15.7801,21.2072 17.6518,22.8606 L18.67,23.76 " stroke-linecap="round" fill="none" stroke="#40c057" stroke-width="5.091532893815165" stroke-dasharray="none" stroke-dashoffset="0"/></g></g><g transform="matrix(1, 0, 0, 1, 928.0814, 3131.9588) scale(1.6971776312717215, 1.6971776312717215)" opacity="1"><g transform="scale(0.5892135163546107)"><path d="M0,0 Q3.0962,2.321 4.326,3.34 T6.6101,6.0737 8.6256,9.4943 10.4972,13.2908 11.903,17.6794 12.6677,22.3879 13.0837,27.2703 12.9224,32.2474 12.0595,36.8907 10.0419,40.9647 7.0109,44.3415 4.2015,46.9537 1.4803,49.5226 L0,50.92 " stroke-linecap="round" fill="none" stroke="#40c057" stroke-width="5.091532893815165" stroke-dasharray="none" stroke-dashoffset="0"/></g></g><g transform="matrix(1, 0, 0, 1, 1342.1927, 3274.5217) scale(1.6971776312717215, 1.6971776312717215)" opacity="1"><g transform="scale(0.5892135163546107)"><path d="M0,0 Q-0.7752,-7.7383 -1.3714,-10.2307 T-3.0671,-14.4666 -5.1523,-17.1586 -7.0596,-18.2354 -8.8701,-17.273 -10.6302,-14.8138 -12.3606,-11.9279 -13.6873,-8.0369 -14.7966,-3.2115 -15.7877,2.895 -16.3268,9.3132 -15.8472,15.5133 -14.4258,21.9825 -12.8773,27.825 -11.6473,32.9367 -10.9782,37.651 -10.2289,42.1513 -9.8213,46.1475 -10.3725,49.482 -11.4475,52.4565 -13.1928,55.6227 -15.6904,58.508 -19.3702,60.4651 -24.4659,61.5298 -29.5613,61.3338 -34.2689,60.0644 -38.7633,58.2133 -42.3687,55.6605 -44.7177,52.7236 -45.9956,49.9632 -46.9829,47.2798 L-47.52,45.82 " stroke-linecap="round" fill="none" stroke="#40c057" stroke-width="5.091532893815165" stroke-dasharray="none" stroke-dashoffset="0"/></g></g><g transform="matrix(1, 0, 0, 1, 1337.1012, 3306.7681) scale(1.6971776312717215, 1.6971776312717215)" opacity="1"><g transform="scale(0.5892135163546107)"><path d="M-1.7,0 Q-5.5669,-0.7752 -7.7792,-0.9861 T-11.9702,-1.6969 -16.3094,-2.7935 L-18.67,-3.39 " stroke-linecap="round" fill="none" stroke="#40c057" stroke-width="5.091532893815165" stroke-dasharray="none" stroke-dashoffset="0"/></g></g><g transform="matrix(1, 0, 0, 1, 1367.6504, 3262.6414) scale(1.6971776312717215, 1.6971776312717215)" opacity="1"><g transform="scale(0.5892135163546107)"><path d="M0,0 Q0.7752,3.8714 0.2109,5.6974 T-1.0458,9.6772 -3.6629,15.3237 -7.4099,22.2646 -10.6088,29.5243 -12.7343,36.5698 -13.8906,43.1112 -14.5196,49.3784 -14.8618,54.7234 -14.6626,59.1793 -13.7813,62.7638 -12.1414,65.4866 -10.0888,67.3532 -7.9523,68.7954 L-6.79,69.58 " stroke-linecap="round" fill="none" stroke="#40c057" stroke-width="5.091532893815165" stroke-dasharray="none" stroke-dashoffset="0"/></g></g><g transform="matrix(1, 0, 0, 1, 1399.8968, 3289.7963) scale(1.6971776312717215, 1.6971776312717215)" opacity="1"><g transform="scale(0.5892135163546107)"><path d="M0,0 Q-3.0962,6.1925 -5.0989,8.6498 T-9.3516,12.8314 -13.6008,16.2667 -17.4605,18.9085 -21.106,20.7332 -25.0205,22.6935 L-27.15,23.76 " stroke-linecap="round" fill="none" stroke="#40c057" stroke-width="5.091532893815165" stroke-dasharray="none" stroke-dashoffset="0"/></g></g><g transform="matrix(1, 0, 0, 1, 1381.2278, 3289.7963) scale(1.6971776312717215, 1.6971776312717215)" opacity="1"><g transform="scale(0.5892135163546107)"><path d="M0,0 Q3.8714,6.1925 5.3098,8.6498 T7.9182,13.219 10.1124,17.2528 12.0789,20.6077 13.9217,23.2057 16.4722,25.3919 20.0912,27.6316 L22.06,28.85 " stroke-linecap="round" fill="none" stroke="#40c057" stroke-width="5.091532893815165" stroke-dasharray="none" stroke-dashoffset="0"/></g></g><g transform="matrix(1, 0, 0, 1, 1415.1714, 3266.0358) scale(1.6971776312717215, 1.6971776312717215)" opacity="1"><g transform="scale(0.5892135163546107)"><path d="M0,0 Q3.8714,6.9631 5.3098,10.0199 T7.5306,16.2854 8.7387,23.1754 9.3959,30.795 9.7535,38.4239 9.5627,45.6679 8.2983,52.3174 6.4477,57.8704 4.2805,62.0517 1.941,65.0993 -0.4922,67.5301 -3.4701,69.9588 L-5.09,71.28 " stroke-linecap="round" fill="none" stroke="#40c057" stroke-width="5.091532893815165" stroke-dasharray="none" stroke-dashoffset="0"/></g></g><g transform="matrix(1, 0, 0, 1, 1454.2065, 3284.7047) scale(1.6971776312717215, 1.6971776312717215)" opacity="1"><g transform="scale(0.5892135163546107)"><path d="M0,0 Q3.8714,0 6.085,0 T10.2756,0 14.1035,0 18.1621,0 L20.37,0 " stroke-linecap="round" fill="none" stroke="#40c057" stroke-width="5.091532893815165" stroke-dasharray="none" stroke-dashoffset="0"/></g></g><g transform="matrix(1, 0, 0, 1, 1454.2065, 3299.9793) scale(1.6971776312717215, 1.6971776312717215)" opacity="1"><g transform="scale(0.5892135163546107)"><path d="M0,0 Q3.0962,1.5458 5.4865,2.3539 T9.5625,3.6016 12.9403,4.2803 16.326,4.6495 20.0397,4.9348 L22.06,5.09 " stroke-linecap="round" fill="none" stroke="#40c057" stroke-width="5.091532893815165" stroke-dasharray="none" stroke-dashoffset="0"/></g></g><g transform="matrix(1, 0, 0, 1, 1564.523, 3180.3283) scale(1.6971776312717215, 1.6971776312717215)" opacity="1"><g transform="scale(0.5892135163546107)"><path d="M0,0 Q0,-4.6421 -0.3876,-7.0652 T-2.1466,-12.3547 -4.6516,-17.1679 -6.7872,-20.5615 -9.1095,-23.1805 -11.5334,-24.9906 -14.4001,-25.9753 -17.5077,-26.511 -19.9711,-26.417 -22.0865,-25.593 -24.0101,-23.9842 -25.8295,-21.9486 -27.2068,-19.6783 -28.3437,-16.8952 -29.7374,-13.8354 -30.8831,-11.0103 -31.5064,-7.9253 -31.8455,-4.699 -32.03,-2.1686 -32.1303,0.756 -32.1849,3.8951 -32.2146,6.7633 -32.2307,9.8694 -32.2395,13.4949 -32.2443,17.0153 -32.2469,20.4762 -31.8607,24.6822 -31.263,29.2937 -30.9379,33.3504 -30.3734,37.1054 -29.6787,41.4691 -28.9132,45.3911 -28.1092,48.6852 -27.6718,52.023 -27.0485,55.3869 -26.3242,58.3797 -25.9301,61.1683 -25.3281,64.2311 -24.6131,67.4454 -23.8365,70.3568 -23.0264,73.1011 -22.5857,76.1398 -22.346,79.341 -22.2156,83.0182 -22.1446,86.952 -22.106,90.6401 -22.085,94.1946 -22.0736,97.6763 -22.0674,101.1185 -22.4516,104.5392 -23.0482,107.9482 -23.7604,110.9632 -24.9207,113.7638 -26.7125,116.4479 -29.2353,118.2957 -31.7682,119.3008 -34.309,119.4601 -36.8516,118.7738 -39.0078,117.6275 -40.9559,116.2287 -42.7886,114.6926 -44.1709,112.6964 -44.15,111.2252 -42.9781,111.5853 -41.5676,112.9418 -40.0274,114.8402 -38.4144,117.0335 -36.7617,119.3871 -35.0897,122.2156 -33.4072,125.3025 -31.7167,128.5298 -30.4095,132.2212 -29.6984,136.1628 -29.3115,139.8551 -29.1011,143.4119 -28.9866,146.8949 -28.9243,150.3377 -29.278,153.7565 -30.2456,157.1644 -31.9325,160.954 -34.0107,164.949 -36.3018,169.058 -39.0963,173.6167 -41.777,178.4176 -44.3958,183.3503 -47.3685,188.3548 -50.1463,193.0129 -52.0449,197.4827 -53.4654,202.6229 -54.6257,208.1278 -55.257,213.0559 -55.6003,218.0578 -55.3995,223.4875 -54.1298,228.7623 -52.2785,234.3404 -49.7233,240.0858 -46.3976,245.5346 -42.265,250.4322 -37.3083,254.6447 -31.9032,257.7114 -25.4813,259.3797 -18.1186,259.8997 -10.2441,259.0198 -1.4137,257.2388 L3.39,256.27 " stroke-linecap="round" fill="none" stroke="#40c057" stroke-width="5.091532893815165" stroke-dasharray="none" stroke-dashoffset="0"/></g></g><g transform="matrix(1, 0, 0, 1, 1575.135, 3234.1467) scale(1.4260110615884531, 1.4260110615884531)" opacity="1"><g transform="scale(0.7012568323881628)"><path d="M0,0 Q1.2996,1.2996 1.9791,1.6531 T3.6781,2.1989 6.5518,2.4958 10.618,2.7252 L12.83,2.85 " stroke-linecap="round" fill="none" stroke="#40c057" stroke-width="4.278033184765359" stroke-dasharray="none" stroke-dashoffset="0"/></g></g><g transform="matrix(1, 0, 0, 1, 1635.0275, 3221.3126) scale(1.4260110615884531, 1.4260110615884531)" opacity="1"><g transform="scale(0.7012568323881628)"><path d="M0,0 Q0,1.9517 -1.2996,3.4584 T-3.6322,6.1085 -6.8528,8.8497 -10.8803,11.3168 -14.9151,13.223 L-17.11,14.26 " stroke-linecap="round" fill="none" stroke="#40c057" stroke-width="4.278033184765359" stroke-dasharray="none" stroke-dashoffset="0"/></g></g><g transform="matrix(1, 0, 0, 1, 1615.0633, 3218.4606) scale(1.4260110615884531, 1.4260110615884531)" opacity="1"><g transform="scale(0.7012568323881628)"><path d="M0,0 Q3.9034,4.5509 5.2888,6.4385 T8.0778,10.3289 11.5467,15.0467 15.0594,19.5649 18.596,23.3247 22.4715,26.6696 26.3889,29.7139 L28.52,31.37 " stroke-linecap="round" fill="none" stroke="#40c057" stroke-width="4.278033184765359" stroke-dasharray="none" stroke-dashoffset="0"/></g></g><g transform="matrix(1, 0, 0, 1, 1587.9691, 3363.9137) scale(1.4260110615884531, 1.4260110615884531)" opacity="1"><g transform="scale(0.7012568323881628)"><path d="M0,0 Q-1.9517,4.5509 -2.8063,6.1148 T-5.4277,9.5052 -8.8054,12.6492 -11.9425,15.3331 -14.6249,17.443 -17.06,18.9168 -19.3605,20.0446 -21.6011,20.916 L-22.82,21.39 " stroke-linecap="round" fill="none" stroke="#40c057" stroke-width="4.278033184765359" stroke-dasharray="none" stroke-dashoffset="0"/></g></g><g transform="matrix(1, 0, 0, 1, 1566.579, 3363.9137) scale(1.4260110615884531, 1.4260110615884531)" opacity="1"><g transform="scale(0.7012568323881628)"><path d="M0,0 Q3.2513,3.9034 5.1115,6.5907 T8.3074,11.3898 10.6957,15.6261 12.6471,19.2303 14.3584,21.8408 15.9392,23.5869 17.6236,24.9361 L18.54,25.67 " stroke-linecap="round" fill="none" stroke="#40c057" stroke-width="4.278033184765359" stroke-dasharray="none" stroke-dashoffset="0"/></g></g><g transform="matrix(1, 0, 0, 1, 1592.2472, 3332.5415) scale(1.4260110615884531, 1.4260110615884531)" opacity="1"><g transform="scale(0.7012568323881628)"><path d="M0,0 Q5.8505,-1.9517 7.7679,-2.1565 T11.0543,-2.4727 13.1682,-2.321 14.3181,-0.9389 14.6177,1.1149 13.8048,3.208 11.7369,5.6462 9.3101,7.9485 7.3401,9.8507 6.2685,11.5353 6.6613,12.7778 8.1769,13.7797 10.301,14.6508 12.7561,15.1247 15.3913,15.7062 17.8007,16.3463 20.1254,16.8409 L21.39,17.11 " stroke-linecap="round" fill="none" stroke="#40c057" stroke-width="4.278033184765359" stroke-dasharray="none" stroke-dashoffset="0"/></g></g><g transform="matrix(1, 0, 0, 1, 1630.7495, 3362.4877) scale(1.4260110615884531, 1.4260110615884531)" opacity="1"><g transform="scale(0.7012568323881628)"><path d="M0,0 Q1.2996,2.5992 1.9791,3.9583 T3.0283,6.7065 3.5991,9.8271 3.9096,13.1504 4.0785,16.2579 4.1704,19.2479 4.2414,22.4811 L4.28,24.24 " stroke-linecap="round" fill="none" stroke="#40c057" stroke-width="4.278033184765359" stroke-dasharray="none" stroke-dashoffset="0"/></g></g><g transform="matrix(1, 0, 0, 1, 1639.3055, 3375.3218) scale(1.4260110615884531, 1.4260110615884531)" opacity="1"><g transform="scale(0.7012568323881628)"><path d="M0,0 Q-2.5992,-0.6521 -3.9583,-0.8294 T-6.7065,-1.1033 -9.8271,-1.2523 -12.8243,-1.0073 -15.4284,-0.548 -17.8209,0.028 -20.1325,0.936 L-21.39,1.43 " stroke-linecap="round" fill="none" stroke="#40c057" stroke-width="4.278033184765359" stroke-dasharray="none" stroke-dashoffset="0"/></g></g><g transform="matrix(1, 0, 0, 1, 1657.8437, 3359.6357) scale(1.4260110615884531, 1.4260110615884531)" opacity="1"><g transform="scale(0.7012568323881628)"><path d="M0,0 Q2.5992,3.9034 3.3062,6.2647 T4.3978,11.2101 4.6678,16.502 4.491,21.9822 4.0687,26.9128 3.513,30.897 3.0836,34.9015 L2.85,37.08 " stroke-linecap="round" fill="none" stroke="#40c057" stroke-width="4.278033184765359" stroke-dasharray="none" stroke-dashoffset="0"/></g></g><g transform="matrix(1, 0, 0, 1, 1656.2008, 3240.7962) scale(1.9246327887911587, 1.9246327887911587)" opacity="1"><g transform="scale(0.5195796340080485)"><path d="M0,0 Q0,3.5112 -0.4378,4.904 T-1.1137,7.4945 -1.9214,9.7816 -3.2386,12.3413 -4.833,15.0516 -6.6899,17.7708 L-7.7,19.25 " stroke-linecap="round" fill="none" stroke="#40c057" stroke-width="5.773898366373476" stroke-dasharray="none" stroke-dashoffset="0"/></g></g><g transform="matrix(1, 0, 0, 1, 1790.9251, 3211.9267) scale(1.9246327887911587, 1.9246327887911587)" opacity="1"><g transform="scale(0.5195796340080485)"><path d="M0,0 Q1.7556,6.1423 2.2331,8.6908 T2.9704,13.5035 3.3715,17.4395 3.1497,20.4584 2.5889,22.9763 2.7239,23.9082 3.2374,22.6619 3.9545,19.7882 5.2224,15.5915 6.79,11.1152 8.5205,7.3622 10.7797,4.4428 13.7644,2.4169 16.7036,1.7525 18.7403,2.7067 20.2883,4.9814 21.5704,8.4144 22.2679,12.4776 22.6473,16.8814 22.4137,21.0304 21.8466,24.1652 21.4084,27.2123 L21.17,28.87 " stroke-linecap="round" fill="none" stroke="#40c057" stroke-width="5.773898366373476" stroke-dasharray="none" stroke-dashoffset="0"/></g></g><g transform="matrix(1, 0, 0, 1, 1837.1163, 3219.6253) scale(1.9246327887911587, 1.9246327887911587)" opacity="1"><g transform="scale(0.5195796340080485)"><path d="M0,0 Q3.5112,-1.7556 3.5884,-2.6709 T3.2677,-3.6463 2.2154,-3.2992 0.7674,-1.7947 -0.8981,0.3392 -2.2442,2.3779 -2.9764,5.2425 -3.3748,8.5565 -3.5915,11.2371 -2.8316,13.5731 -0.2248,15.2817 2.9489,15.3334 5.5531,13.6059 7.8477,10.9105 9.5359,8.1287 10.4543,5.2998 11.3917,3.7609 12.3394,4.6793 12.855,6.9346 13.5755,9.477 14.8452,12.1756 16.4138,14.0837 18.2507,14.9362 L19.25,15.4 " stroke-linecap="round" fill="none" stroke="#40c057" stroke-width="5.773898366373476" stroke-dasharray="none" stroke-dashoffset="0"/></g></g><g transform="matrix(1, 0, 0, 1, 1873.6843, 3235.0223) scale(1.9246327887911587, 1.9246327887911587)" opacity="1"><g transform="scale(0.5195796340080485)"><path d="M0,0 Q1.7556,-0.8755 1.7931,-1.9915 T1.4132,-4.1545 0.331,-6.6491 -0.6954,-9.3216 -1.6939,-12.0911 -1.7993,-14.9155 -0.101,-16.892 2.5785,-17.5272 5.7917,-17.4327 9.733,-16.9436 14.6469,-15.9438 L17.32,-15.4 " stroke-linecap="round" fill="none" stroke="#40c057" stroke-width="5.773898366373476" stroke-dasharray="none" stroke-dashoffset="0"/></g></g><g transform="matrix(1, 0, 0, 1, 1835.1917, 3173.4341) scale(1.9246327887911587, 1.9246327887911587)" opacity="1"><g transform="scale(0.5195796340080485)"><path d="M0,0 Q5.2668,-0.8755 7.1371,-1.1137 T10.465,-1.0436 12.7153,0.3101 13.9395,2.8021 13.7277,5.4733 12.2946,7.3642 9.7594,8.3928 5.9321,9.1876 L3.85,9.62 " stroke-linecap="round" fill="none" stroke="#40c057" stroke-width="5.773898366373476" stroke-dasharray="none" stroke-dashoffset="0"/></g></g><g transform="matrix(1, 0, 0, 1, 1998.7854, 3208.0775) scale(1.9246327887911587, 1.9246327887911587)" opacity="1"><g transform="scale(0.5195796340080485)"><path d="M0,0 Q-0.8755,3.5112 -1.5537,5.344 T-3.4786,9.4895 -6.2814,13.938 -9.5617,18.1136 -13.9795,22.5785 -19.8866,27.8968 L-23.1,30.79 " stroke-linecap="round" fill="none" stroke="#40c057" stroke-width="5.773898366373476" stroke-dasharray="none" stroke-dashoffset="0"/></g></g><g transform="matrix(1, 0, 0, 1, 1973.7652, 3211.9267) scale(1.9246327887911587, 1.9246327887911587)" opacity="1"><g transform="scale(0.5195796340080485)"><path d="M0,0 Q2.6311,3.5112 4.2246,5.344 T7.1249,9.0518 10.0206,12.8244 13.3514,16.6323 16.4789,20.4571 19.9336,23.8533 23.5686,26.1409 27.0021,27.9085 L28.87,28.87 " stroke-linecap="round" fill="none" stroke="#40c057" stroke-width="5.773898366373476" stroke-dasharray="none" stroke-dashoffset="0"/></g></g><g transform="matrix(1, 0, 0, 1, 2048.8259, 3194.605) scale(1.9246327887911587, 1.9246327887911587)" opacity="1"><g transform="scale(0.5195796340080485)"><path d="M0,0 Q-2.6311,2.6311 -3.7868,4.2246 T-6.8868,8.0027 -10.7665,11.8136 -14.195,15.2023 -16.9378,18.3636 -19.3077,20.9612 -21.4748,23.2498 -23.0914,25.3725 -23.5331,27.4051 -22.0178,29.3887 -18.56,31.3455 -14.9234,33.2878 -11.6273,35.2223 -8.5186,36.7124 -5.5119,37.963 -2.1207,39.5212 1.7463,41.3468 L3.85,42.34 " stroke-linecap="round" fill="none" stroke="#40c057" stroke-width="5.773898366373476" stroke-dasharray="none" stroke-dashoffset="0"/></g></g><g transform="matrix(1, 0, 0, 1, 2087.3186, 3200.3789) scale(1.9246327887911587, 1.9246327887911587)" opacity="1"><g transform="scale(0.5195796340080485)"><path d="M0,0 Q-1.7556,-2.6311 -2.6709,-3.3468 T-5.4019,-3.1362 -9.0832,-0.8283 -11.9637,2.1828 -14.4084,8.2098 -16.1762,16.7531 -16.26,24.0317 -14.55,29.7469 -10.9864,34.6115 -5.9766,38.1357 -1.0579,39.6151 4.689,38.6643 10.8888,35.9514 15.5793,31.4045 19.4465,25.8597 21.5503,19.7723 21.8169,13.8273 19.7663,7.9598 16.0174,2.1368 12.2224,-1.4687 8.0434,-4.2545 L5.77,-5.77 " stroke-linecap="round" fill="none" stroke="#40c057" stroke-width="5.773898366373476" stroke-dasharray="none" stroke-dashoffset="0"/></g></g><g transform="matrix(1, 0, 0, 1, 1779.3773, 3369.7466) scale(1.9246327887911587, 1.9246327887911587)" opacity="1"><g transform="scale(0.5195796340080485)"><path d="M0,0 Q0,5.2668 -0.4378,7.5772 T-1.1137,11.5821 -1.9214,15.0764 -2.8008,18.2951 -3.2793,20.9239 -3.5395,21.4762 -3.2411,19.1432 -1.7631,15.2407 0.3564,10.9243 2.8273,6.8206 5.927,2.8326 8.9289,-0.6524 11.8774,-2.986 14.7993,-3.8178 17.2666,-2.9547 19.4866,-0.7295 21.1343,1.7965 22.0307,4.9263 22.5183,8.3844 22.7835,11.5813 22.4878,14.6382 21.4491,17.1789 20.4463,18.1211 19.6715,17.6022 L19.25,17.32 " stroke-linecap="round" fill="none" stroke="#40c057" stroke-width="5.773898366373476" stroke-dasharray="none" stroke-dashoffset="0"/></g></g><g transform="matrix(1, 0, 0, 1, 1823.6439, 3369.7466) scale(1.9246327887911587, 1.9246327887911587)" opacity="1"><g transform="scale(0.5195796340080485)"><path d="M0,0 Q4.3867,-0.8755 5.5799,-1.5537 T6.5444,-2.6008 5.7535,-2.7304 4.4455,-1.4853 2.8561,0.5075 1.116,2.9095 -0.2684,5.9718 -1.0216,8.9532 -0.9935,11.8907 0.3373,13.9287 2.3769,13.7218 4.8019,12.2914 7.439,10.1955 9.7514,7.7397 11.4471,5.5259 12.8096,4.3217 13.9908,4.9844 14.6334,7.1005 14.983,10.0073 15.1731,12.9041 15.7143,15.3578 16.8866,17.5704 18.4021,18.7741 20.1948,19.0823 L21.17,19.25 " stroke-linecap="round" fill="none" stroke="#40c057" stroke-width="5.773898366373476" stroke-dasharray="none" stroke-dashoffset="0"/></g></g><g transform="matrix(1, 0, 0, 1, 1862.1365, 3385.1437) scale(1.9246327887911587, 1.9246327887911587)" opacity="1"><g transform="scale(0.5195796340080485)"><path d="M0,0 Q1.7556,0 1.7931,-0.4378 T1.4132,-1.5537 0.7688,-3.4786 -0.0195,-5.8413 -0.8862,-8.4422 -0.9198,-11.1749 -0.0626,-13.5393 2.1593,-15.2633 5.5637,-16.2012 9.609,-16.7114 14.003,-16.9889 18.6448,-17.2033 L21.17,-17.32 " stroke-linecap="round" fill="none" stroke="#40c057" stroke-width="5.773898366373476" stroke-dasharray="none" stroke-dashoffset="0"/></g></g><g transform="matrix(1, 0, 0, 1, 1825.5685, 3323.5554) scale(1.9246327887911587, 1.9246327887911587)" opacity="1"><g transform="scale(0.5195796340080485)"><path d="M0,0 Q4.3867,-0.8755 6.0199,-0.6759 T9.4195,0.5101 12.5843,2.4709 14.306,4.4153 14.3648,6.3509 13.519,7.8416 11.7434,8.6526 9.0218,8.6559 5.6722,8.0368 L3.85,7.7 " stroke-linecap="round" fill="none" stroke="#40c057" stroke-width="5.773898366373476" stroke-dasharray="none" stroke-dashoffset="0"/></g></g><g transform="matrix(1, 0, 0, 1, 2000.7101, 3352.4249) scale(1.9246327887911587, 1.9246327887911587)" opacity="1"><g transform="scale(0.5195796340080485)"><path d="M0,0 Q-2.6311,4.3867 -4.2246,6.4577 T-7.5627,10.5331 -11.5743,14.5057 -15.5122,17.9847 -19.4077,20.755 -24.2861,23.5173 L-26.94,25.02 " stroke-linecap="round" fill="none" stroke="#40c057" stroke-width="5.773898366373476" stroke-dasharray="none" stroke-dashoffset="0"/></g></g><g transform="matrix(1, 0, 0, 1, 1973.7652, 3354.3496) scale(1.9246327887911587, 1.9246327887911587)" opacity="1"><g transform="scale(0.5195796340080485)"><path d="M0,0 Q4.3867,4.3867 6.0199,6.0199 T9.8572,9.4195 13.7003,12.5843 17.9843,16.0616 22.9459,19.7089 26.9628,22.5685 30.6916,25.3998 L32.72,26.94 " stroke-linecap="round" fill="none" stroke="#40c057" stroke-width="5.773898366373476" stroke-dasharray="none" stroke-dashoffset="0"/></g></g><g transform="matrix(1, 0, 0, 1, 2021.881, 3344.7264) scale(1.9246327887911587, 1.9246327887911587)" opacity="1"><g transform="scale(0.5195796340080485)"><path d="M1.92,0 Q7.1868,6.1423 9.4972,8.2531 T13.9422,11.9498 17.6781,14.8387 21.1897,17.6957 L23.1,19.25 " stroke-linecap="round" fill="none" stroke="#40c057" stroke-width="5.773898366373476" stroke-dasharray="none" stroke-dashoffset="0"/></g></g><g transform="matrix(1, 0, 0, 1, 2048.8259, 3362.0481) scale(1.9246327887911587, 1.9246327887911587)" opacity="1"><g transform="scale(0.5195796340080485)"><path d="M0,0 Q-2.6311,3.5112 -4.2246,5.7818 T-7.1249,9.7277 -10.0206,12.752 -13.5047,15.7106 L-15.4,17.32 " stroke-linecap="round" fill="none" stroke="#40c057" stroke-width="5.773898366373476" stroke-dasharray="none" stroke-dashoffset="0"/></g></g><g transform="matrix(1, 0, 0, 1, 2050.7505, 3381.2944) scale(1.9246327887911587, 1.9246327887911587)" opacity="1"><g transform="scale(0.5195796340080485)"><path d="M0,0 Q-3.5112,3.5112 -6.2218,5.7818 T-12.1662,10.7612 L-15.4,13.47 " stroke-linecap="round" fill="none" stroke="#40c057" stroke-width="5.773898366373476" stroke-dasharray="none" stroke-dashoffset="0"/></g></g><g transform="matrix(1, 0, 0, 1, 2100.791, 3344.7264) scale(1.9246327887911587, 1.9246327887911587)" opacity="1"><g transform="scale(0.5195796340080485)"><path d="M0,0 Q-5.2668,1.7556 -7.5772,3.1109 T-12.0222,6.5191 -15.3181,10.1288 -17.5488,13.4102 -19.6401,18.7043 -20.7778,25.0932 -20.0788,31.2021 -17.943,36.721 -12.3944,41.0412 -5.427,44.2691 0.5589,45.1473 6.8864,43.4294 12.0842,40.2992 15.7895,35.5253 18.243,29.8571 19.14,24.1402 18.7501,18.3968 15.9046,13.079 11.2855,8.8706 4.8238,6.1412 -4.531,3.4072 L-9.62,1.92 " stroke-linecap="round" fill="none" stroke="#40c057" stroke-width="5.773898366373476" stroke-dasharray="none" stroke-dashoffset="0"/></g></g></svg>