<svg xmlns="http://www.w3.org/2000/svg" direction="ltr" width="703.8842573082925" height="416.29814604746025" viewBox="626.8336346392107 11125.223310857105 703.8842573082925 416.29814604746025" stroke-linecap="round" stroke-linejoin="round" style="background-color: transparent;"><defs/><g transform="matrix(1, 0, 0, 1, 940.8336, 11254.6091)" opacity="1"><g transform="scale(1)"><path d="M0,0 Q2.28,0 3.1282,0 T4.6657,0 5.9582,0 7.1172,0 8.2038,0 9.4789,0 10.8565,0 12.0619,0 13.1737,0 14.2345,0 15.2676,0 16.2856,0 17.2953,0 18.3007,0 19.3036,0 20.3051,0 21.306,0 22.3065,0 23.5347,0 24.8869,0 26.0785,0 27.1827,0 28.2394,0 29.2702,0 30.287,0 31.2961,0 32.3011,0 33.3038,0 34.3053,0 35.5341,0 36.8865,0 38.0783,0.228 39.1826,0.58 40.2393,0.7715 41.2702,0.8757 42.287,0.9324 43.2961,0.9632 44.3011,0.98 45.3038,0.9891 46.3053,0.9941 47.3061,0.9968 48.3065,0.9982 49.3067,0.999 50.3069,0.9995 51.3069,0.9997 52.307,0.9998 53.307,0.9999 54.307,1 55.307,1 56.307,1 57.307,1 58.307,1 59.307,1 60.307,1 61.307,1 62.307,1 63.307,1 64.307,1 65.307,1 66.307,1 67.307,1 68.307,1 69.307,1 70.307,1 71.307,1 72.307,1 73.307,1 74.307,1 75.307,1 76.307,1 77.307,1 78.307,1 79.307,1 80.307,1 81.079,0.772 81.727,0.42 82.5355,0.2285 83.4313,0.1243 84.3746,0.0676 85.3438,0.0368 86.327,0.02 87.3179,0.0109 88.3129,0.0059 89.3102,0.0032 90.3088,0.0018 91.536,0.001 93.1318,0.0003 L94,0 " stroke-linecap="round" fill="none" stroke="#ffc034" stroke-width="4.5" stroke-dasharray="0.1 9" stroke-dashoffset="0"/></g></g><g transform="matrix(1, 0, 0, 1, 920, 11200)" opacity="1"><path d="M0,118.96112429634468 a120.79198175314752,118.96112429634468,0,1,1,241.58396350629505,0a120.79198175314752,118.96112429634468,0,1,1,-241.58396350629505,0 " stroke="#f2f2f2" stroke-width="3.5" fill="none"/></g><g transform="matrix(1, 0, 0, 1, 878.1698, 11318.6654)" opacity="1"><g transform="scale(1)"><path d="M0,0 Q2.7269,0.456 3.6966,0.58 T5.6475,0.5435 7.6163,0.2957 9.369,0.1609 11.0042,-0.1405 12.8012,-0.5324 14.4605,-0.7456 16.0449,-0.8616 17.8165,-0.9247 19.462,-0.9591 21.0388,-0.9777 22.8064,-0.9879 24.4496,-0.9934 26.0253,-0.9964 27.7899,-0.998 29.4315,-0.9989 31.0063,-0.9994 32.7727,-0.9997 34.4154,-0.9998 35.9907,-0.9999 37.7574,-0.9999 39.4002,-1 40.9756,-1 42.74,-1 44.3816,-1 45.9564,-1 47.7205,-1 49.3618,-1 50.9365,-1 52.7028,-1 54.3454,-1 55.9207,-1 57.6874,-1 59.3302,-1 60.9056,-1 62.4443,-1 63.9631,-1 65.6968,-1 67.5496,-1 69.2393,-1 70.8402,-1 72.6208,-1 74.7249,-1 76.7769,-1 78.575,-1 80.2348,-1 82.0452,-1 84.3935,-1 86.8087,-1 88.8043,-1 90.5716,-1 92.2148,-0.772 93.7904,-0.42 95.3292,-0.2285 97.0738,-0.1243 99.1605,-0.0676 100.9774,0.1912 102.6453,0.56 104.4623,0.7607 106.3605,0.8698 108.3006,0.9292 110.0377,0.9615 111.6644,0.979 113.459,0.9886 115.345,0.9938 117.2785,1.2223 119.24,1.5724 121.2167,1.7628 123.1995,1.8664 125.1879,1.9228 127.1793,1.9534 129.3981,1.9701 131.7405,1.9792 133.9222,1.9841 135.7908,1.9868 137.489,2.2163 139.3226,2.5691 141.2298,2.761 143.1747,2.8654 144.9145,2.9222 146.5426,2.9531 148.3381,2.9699 150.2245,2.9791 152.1582,2.9841 153.8918,2.9868 155.5166,2.9882 157.3102,2.989 159.4237,2.9895 161.7088,2.9897 164.0874,2.7618 166.5168,2.4099 168.5201,2.2184 170.2916,2.1143 172.1628,1.8319 174.0904,1.4525 176.0487,1.2462 177.7958,0.9059 179.6559,0.4928 181.8033,0.2681 183.6531,0.1458 185.7949,-0.1487 188.5492,-0.5369 191.1852,-0.7481 193.529,-0.8629 195.4834,-0.9254 197.2283,-0.9594 199.0873,-1.2037 201.006,-1.5622 202.9595,-1.7573 204.9319,-1.8634 206.6867,-1.9211 208.5509,-1.9525 210.9286,-1.9696 213.3574,-1.9789 215.5862,-1.984 217.7083,-1.9867 219.7725,-1.9882 221.8028,-1.989 223.8148,-1.9895 226.0447,-1.9897 228.3955,-1.9898 230.5841,-1.9899 232.6821,-1.99 234.7331,-1.99 236.7586,-1.7643 238.7679,-1.4158 240.7707,-1.2262 242.7699,-1.123 244.765,-1.0669 246.76,-0.8084 248.755,-0.4398 250.9757,-0.2392 253.3192,-0.1301 255.5015,-0.0708 257.5984,-0.0385 259.6489,-0.021 261.446,-0.0114 263.1054,-0.0062 264.9155,-0.0034 266.81,-0.0018 268.7503,-0.001 270.4875,-0.0005 272.1143,-0.0003 273.9067,-0.0002 276.0172,-0.0001 278.5288,0 281.0328,0 283.3047,0.228 285.448,0.58 287.5214,0.7715 289.5591,0.8757 291.8053,0.9324 294.3907,0.9632 296.9326,0.98 299.4508,0.9891 301.9562,0.9941 304.2288,1.2225 306.3748,1.5725 308.4497,1.7629 310.2602,1.8664 311.9268,2.1508 313.7408,2.5335 315.6374,2.7416 317.5789,2.8549 319.5425,2.9165 321.5204,2.95 323.5061,2.9682 325.7218,2.9782 328.0625,2.9836 330.4713,2.9865 332.9194,2.9881 335.3889,2.989 337.8678,2.7614 340.1237,2.4097 342.4864,2.2183 344.6814,2.1142 347.0109,1.8318 349.6416,1.2245 352.2104,0.6661 354.7433,0.1344 357.0286,-0.6086 359.1816,-1.2385 361.2625,-1.5812 363.53,-1.7676 365.6732,-1.869 367.5208,-1.9242 369.4334,-1.9542 371.3835,-1.7448 373.3541,-1.4052 375.5616,-1.2204 377.8978,-0.8919 379.8505,-0.4852 381.5945,-0.2639 383.2249,-0.1436 384.5656,-0.0781 385.9766,-0.0425 387.7146,-0.015 L388.66,0 " stroke-linecap="round" fill="none" stroke="#f2f2f2" stroke-width="4.5" stroke-dasharray="none" stroke-dashoffset="0"/></g></g><g transform="matrix(1, 0, 0, 1, 1267.8233, 11313.6826)" opacity="1"><g transform="scale(1)"><path d="M0,0 Q-2.7269,-1.3634 -4.3783,-2.188 T-7.3818,-3.6892 -10.347,-5.1729 L-11.96,-5.98 " stroke-linecap="round" fill="none" stroke="#f2f2f2" stroke-width="4.5" stroke-dasharray="none" stroke-dashoffset="0"/></g></g><g transform="matrix(1, 0, 0, 1, 1267.8233, 11316.6723)" opacity="1"><g transform="scale(1)"><path d="M0,0 Q-0.456,2.7269 -0.8058,3.9223 T-1.8018,6.4498 -3.0253,8.7344 -4.3727,10.887 -5.7873,12.9655 -7.0106,14.7778 -8.1321,16.6735 -9.3224,18.7826 L-9.97,19.93 " stroke-linecap="round" fill="none" stroke="#f2f2f2" stroke-width="4.5" stroke-dasharray="none" stroke-dashoffset="0"/></g></g><g transform="matrix(1, 0, 0, 1, 1296.7235, 11313.6826)" opacity="1"><g transform="scale(1)"><path d="M0,-1 Q-1.8194,0.3634 -2.768,0.9623 T-5.3681,3.2504 -8.146,6.3122 -10.1132,8.4316 -11.6371,10.0406 -13.1351,11.9314 L-13.95,12.96 " stroke-linecap="round" fill="none" stroke="#f2f2f2" stroke-width="4.5" stroke-dasharray="none" stroke-dashoffset="0"/></g></g><g transform="matrix(1, 0, 0, 1, 1286.7579, 11311.6895)" opacity="1"><g transform="scale(1)"><path d="M0,0 Q1.3634,2.7269 1.9623,3.9223 T3.1126,6.2241 4.1922,8.3859 5.2354,10.4694 7.1664,12.7383 10.2711,15.4596 L11.96,16.94 " stroke-linecap="round" fill="none" stroke="#f2f2f2" stroke-width="4.5" stroke-dasharray="none" stroke-dashoffset="0"/></g></g><g transform="matrix(1, 0, 0, 1, 1038.6154, 11158.2199)" opacity="1"><g transform="scale(1)"><path d="M0,0 Q0.456,2.7269 0.352,3.9223 T0.1915,6.2241 0.1042,8.3859 0.0567,10.4694 0.0308,12.5103 -0.2112,15.212 -0.5709,18.5011 -0.7666,21.4258 -0.873,23.9243 -0.9309,26.1932 -1.1881,28.3372 -1.5538,30.411 -1.7527,32.4489 -1.8609,34.4672 -1.9198,36.4726 -1.9518,38.4732 -1.9692,40.6993 -1.9787,43.0458 -1.9838,45.2297 -1.9867,47.3251 -1.9882,49.3748 -1.989,51.3995 -1.9895,53.4084 -2.2177,55.411 -2.5699,57.4101 -2.7615,59.4051 -2.8657,61.4 -2.9224,63.395 -2.9532,65.3877 -2.97,67.3815 -2.9791,69.3758 -2.9841,71.3682 -2.9868,73.3594 -3.2162,75.3524 -3.5691,77.3463 -3.761,79.3384 -3.8654,81.3319 -3.9222,83.326 -3.9531,85.3183 -3.9699,87.3118 -3.9791,89.306 -3.9841,91.2982 -3.9868,93.2918 -3.9882,95.286 -3.761,97.2782 -3.4094,99.2718 -3.2182,101.266 -3.1141,103.2582 -3.0575,105.4775 -3.0267,107.8202 -3.01,110.0043 -3.0009,112.1022 -2.9959,113.9252 -2.9932,115.5986 -2.9918,117.4164 -2.991,119.315 -2.9905,121.2576 -2.9903,123.2218 -2.9902,125.2 -2.9901,127.1859 -2.99,129.1736 -2.99,131.1647 -2.99,133.1576 -2.99,135.1491 -2.99,137.14 -2.99,139.1327 -2.99,141.1265 -2.99,143.1185 -2.99,145.1119 -2.99,147.106 -2.99,149.0983 -2.99,151.0918 -2.762,153.086 -2.41,155.0782 -2.2185,157.0718 -2.1143,159.066 -2.0576,161.0582 -2.0268,163.0495 -1.7843,165.0424 -1.4267,167.2643 -1.2321,169.6085 -1.1263,171.7911 -0.8407,173.8882 -0.4573,175.9387 -0.2488,177.9617 -0.1353,180.1976 -0.0736,182.5517 0.1879,184.742 0.5582,186.841 0.7597,189.1182 0.8693,191.4948 0.9289,193.6974 0.9613,195.803 1.2047,198.0839 1.5628,200.4602 1.7576,202.8883 1.8636,205.3469 1.9212,207.8221 1.9526,210.3041 1.9696,212.5617 1.9789,214.9253 1.984,217.3488 1.9867,219.8049 1.9882,222.5022 1.989,225.105 1.9895,227.6586 2.2177,230.4112 2.5699,233.044 2.7615,235.6118 2.8657,238.372 2.9224,241.0091 2.9532,243.3533 2.97,245.7663 3.2071,248.2144 3.5641,250.4537 3.7583,252.8072 3.864,255.223 3.9214,257.4469 3.9527,259.5664 3.9697,261.6269 3.979,263.6575 3.984,265.6719 3.9867,267.6751 3.9882,269.6746 3.989,271.6721 3.9895,273.6661 3.9897,275.6606 3.9898,277.6553 3.9899,279.8759 3.99,282.2193 3.99,284.4016 3.99,286.4985 3.99,288.5489 3.99,290.5718 3.99,292.8076 3.99,295.1617 3.99,297.352 3.99,299.451 3.99,301.5025 3.99,303.5283 3.99,305.5378 3.99,307.7663 3.99,310.1164 3.99,312.3046 3.99,314.6304 3.99,317.031 3.99,319.2444 3.99,321.584 3.99,323.9944 3.99,326.2154 3.99,328.1053 3.99,329.8152 3.99,331.6528 3.99,333.5622 3.762,335.2826 3.41,337.1259 3.2185,339.4921 3.1143,341.9171 3.0576,343.918 3.0268,345.9139 3.003,348.4243 L2.99,349.79 " stroke-linecap="round" fill="none" stroke="#f2f2f2" stroke-width="4.5" stroke-dasharray="none" stroke-dashoffset="0"/></g></g><g transform="matrix(1, 0, 0, 1, 1040.6085, 11508.0111)" opacity="1"><g transform="scale(1)"><path d="M0,0 Q1.3634,-1.8194 1.9623,-2.54 T3.1126,-4.1087 4.1922,-5.8717 5.4611,-8.1943 6.8332,-10.8212 8.2171,-13.4953 L8.97,-14.95 " stroke-linecap="round" fill="none" stroke="#f2f2f2" stroke-width="4.5" stroke-dasharray="none" stroke-dashoffset="0"/></g></g><g transform="matrix(1, 0, 0, 1, 1041.605, 11505.0215)" opacity="1"><g transform="scale(1)"><path d="M0,0 Q-2.2709,-0.9074 -3.3446,-1.836 T-5.228,-3.7257 -7.0039,-5.8334 L-7.97,-6.98 " stroke-linecap="round" fill="none" stroke="#f2f2f2" stroke-width="4.5" stroke-dasharray="none" stroke-dashoffset="0"/></g></g><g transform="matrix(1, 0, 0, 1, 1033.6326, 11164.1992)" opacity="1"><g transform="scale(1)"><path d="M0,0 Q-4.0903,4.5463 -6.5302,7.2582 L-8.97,9.97 " stroke-linecap="round" fill="none" stroke="#f2f2f2" stroke-width="4.5" stroke-dasharray="none" stroke-dashoffset="0"/></g></g><g transform="matrix(1, 0, 0, 1, 1038.6154, 11157.2233)" opacity="1"><g transform="scale(1)"><path d="M0,0 Q1.8194,2.2709 2.54,3.3446 T3.8807,5.228 5.066,6.9344 6.1645,8.5443 7.2158,10.1019 8.2437,11.8589 9.3618,13.8609 L9.97,14.95 " stroke-linecap="round" fill="none" stroke="#f2f2f2" stroke-width="4.5" stroke-dasharray="none" stroke-dashoffset="0"/></g></g><g transform="matrix(1, 0, 0, 1, 1063.5293, 11162.2061)" opacity="1"><g transform="scale(1)"><path d="M0,0 Q0,1.3634 0.228,2.8697 T0.8058,5.4235 1.5738,7.0407 2.4476,8.1485 3.6046,8.9791 4.9158,9.2029 6.0828,9.0967 7.1714,8.8109 7.9915,7.9737 8.6657,6.8366 9.2605,5.5363 9.8097,4.1472 10.3343,2.7098 10.3939,1.7021 10.2006,1.8357 10.0954,2.59 10.264,3.6821 10.8094,5.1837 11.562,6.6822 12.4252,8.1792 13.3485,9.6752 14.3045,11.1708 15.2783,12.8918 16.264,14.5098 17.0283,16.2997 17.444,18.1831 17.4422,19.6614 16.5315,21.1473 15.1286,22.6374 13.6837,23.6737 11.988,24.2375 10.1581,24.5441 7.7991,24.4852 4.6844,24.1192 L2.99,23.92 " stroke-linecap="round" fill="none" stroke="#f2f2f2" stroke-width="4.5" stroke-dasharray="none" stroke-dashoffset="0"/></g></g><g transform="matrix(1, 0, 0, 1, 1162.1884, 11317.6689)" opacity="1"><g transform="scale(1)"><path d="M0,0 Q0.456,-2.2709 0.352,-3.3446 T0.1915,-5.228 0.1042,-6.9344 0.0567,-8.5443 -0.1972,-9.8739 -0.5633,-11.2789 -0.7624,-12.9506 -1.0965,-14.9955 -1.5039,-17.2456 -1.7256,-19.1514 -2.0742,-20.8699 -2.4918,-22.4865 -2.719,-23.8196 -3.0706,-25.2265 -3.4898,-26.9016 -3.7179,-28.4946 -4.0677,-30.0429 -4.4837,-31.5669 -4.71,-32.8497 -5.0611,-34.2292 -5.4801,-35.6614 -5.9361,-37.1223 -6.4121,-38.8267 -6.8968,-40.4356 -7.3862,-41.9926 -7.6524,-43.5213 -8.0252,-44.8066 -8.456,-45.9596 -8.6904,-47.2685 -9.0459,-48.6623 -9.4673,-50.1022 -9.6965,-51.5672 -10.047,-53.0459 -10.6913,-54.5321 -11.2698,-55.7942 -11.8125,-56.9369 -12.3358,-58.0122 -12.8461,-59.0509 -13.5775,-60.0719 -14.2034,-61.0811 -14.7695,-62.3118 -15.5313,-63.663 -16.4017,-65.0798 -17.3289,-66.3065 -18.059,-67.1996 -18.6842,-68.1391 -19.4803,-69.1063 -20.3671,-70.0861 -21.3032,-71.3008 -22.2685,-72.4177 -23.0216,-73.2509 -23.657,-74.1579 -24.4564,-74.8794 -25.3472,-75.4975 -26.0598,-76.2875 -26.6732,-76.9453 -27.4606,-77.5311 -28.345,-78.3035 -29.0541,-79.1774 -29.6655,-80.1088 -30.4519,-81.0693 -31.3357,-82.0454 -32.2702,-83.0325 -33.2322,-84.0231 -34.2116,-85.2438 -35.1981,-86.3638 -36.1885,-86.9731 -36.9553,-87.5303 -37.6004,-88.0591 -38.405,-88.5748 -39.2965,-89.3113 -40.2375,-90.1657 -41.2031,-90.8562 -42.1821,-91.4599 -43.1706,-92.2443 -44.1621,-93.1247 -45.1552,-94.0573 -46.1492,-94.7927 -47.1437,-95.4208 -48.1406,-96.2161 -49.1367,-96.8745 -50.1323,-97.4607 -51.1299,-98.0076 -52.1263,-98.3051 -53.1221,-98.6949 -54.3455,-99.3607 -55.9352,-100.1957 L-56.8,-100.65 " stroke-linecap="round" fill="none" stroke="#4dabf7" stroke-width="4.5" stroke-dasharray="none" stroke-dashoffset="0"/></g></g><g transform="matrix(1, 0, 0, 1, 1102.395, 11219.0098)" opacity="1"><g transform="scale(1)"><path d="M0,0 Q0,3.1829 0,4.7303 T0,7.5733 0,10.4144 L0,11.96 " stroke-linecap="round" fill="none" stroke="#4dabf7" stroke-width="4.5" stroke-dasharray="none" stroke-dashoffset="0"/></g></g><g transform="matrix(1, 0, 0, 1, 1102.395, 11217.0167)" opacity="1"><g transform="scale(1)"><path d="M1,0 Q3.7269,-0.456 5.3534,-0.728 L6.98,-1 " stroke-linecap="round" fill="none" stroke="#4dabf7" stroke-width="4.5" stroke-dasharray="none" stroke-dashoffset="0"/></g></g><g transform="matrix(1, 0, 0, 1, 1169.1642, 11250.8996)" opacity="1"><g transform="scale(1)"><path d="M0,1 Q-1.3634,4.1783 -1.7343,5.4988 T-2.3069,7.9914 -2.8464,10.4828 -3.1399,12.9736 -2.8435,15.0103 -2.2286,16.5719 -1.2124,17.6472 0.0222,18.2322 1.3755,18.3247 3.0688,18.0755 L3.99,17.94 " stroke-linecap="round" fill="none" stroke="#4dabf7" stroke-width="4.5" stroke-dasharray="none" stroke-dashoffset="0"/></g></g><g transform="matrix(1, 0, 0, 1, 1171.1574, 11259.8686)" opacity="1"><g transform="scale(1)"><path d="M0,0 Q-2.2709,0.456 -3.3446,0.58 T-5.6991,0.852 L-6.98,1 " stroke-linecap="round" fill="none" stroke="#4dabf7" stroke-width="4.5" stroke-dasharray="none" stroke-dashoffset="0"/></g></g><g transform="matrix(1, 0, 0, 1, 1157.8336, 11317.6091)" opacity="1"><g transform="scale(1)"><path d="M0,0 Q0.456,-2.28 0.58,-3.8122 T0.7715,-6.4058 0.8757,-8.5008 0.9324,-10.3244 0.7352,-11.7725 0.4,-13.0162 0.2176,-14.1488 0.1184,-15.221 -0.1636,-16.2602 -0.545,-17.2816 -0.7525,-18.2932 -1.0934,-19.2995 -1.5068,-20.5309 -1.7317,-21.8848 -2.082,-23.0773 -2.5006,-24.1821 -2.9563,-25.239 -3.4323,-26.27 -3.6911,-27.5149 -4.06,-28.8761 -4.4886,-30.0726 -4.7218,-31.1795 -5.0767,-32.2376 -5.4977,-33.2693 -5.9548,-34.2865 -6.4314,-35.2958 -6.6907,-36.3009 -7.0597,-37.3037 -7.4885,-38.3052 -7.9497,-39.306 -8.4287,-40.3065 -8.9172,-41.0787 -9.411,-41.7268 -9.6796,-42.5354 -10.0537,-43.4313 -10.4852,-44.3746 -10.9479,-45.3438 -11.4277,-46.327 -11.9167,-47.3179 -12.4107,-48.3129 -12.6794,-49.3102 -13.0536,-50.3088 -13.4852,-51.308 -13.7199,-52.3075 -14.0756,-53.0793 -14.4971,-53.7271 -14.9544,-54.5356 -15.4312,-55.4313 -15.6906,-56.3747 -16.0597,-57.1158 -16.4885,-57.747 -16.9497,-58.5464 -17.4287,-59.4372 -17.9172,-60.1499 -18.4109,-60.7655 -18.9076,-61.3284 -19.4057,-61.8627 -19.9047,-62.6093 -20.4042,-63.4715 -20.9039,-64.1685 -21.4037,-64.7756 -21.9036,-65.562 -22.4036,-66.4457 -22.6755,-67.3825 -23.0515,-68.1201 -23.484,-68.7493 -23.7193,-69.5476 -24.0753,-70.2099 -24.497,-70.7982 -24.9543,-71.5742 -25.4312,-72.4524 -25.9186,-73.1581 -26.4117,-73.77 -26.908,-74.3309 -27.4059,-74.864 -27.9048,-75.382 -28.6322,-75.8918 -29.4839,-76.6251 -30.4033,-77.4801 -31.1314,-78.4012 -31.7555,-79.1302 -32.551,-79.7548 -33.4397,-80.3226 -34.1512,-80.8595 -34.7663,-81.3796 -35.3288,-81.8905 -35.8629,-82.3964 -36.6094,-82.6717 -37.2435,-83.0494 -37.8165,-83.4829 -38.3562,-83.9467 -38.8778,-84.427 -39.3895,-84.9163 -39.8959,-85.4105 -40.3994,-85.9073 -40.9013,-86.4056 -41.4023,-86.9046 -41.9028,-87.4041 -42.4031,-87.9038 -42.9033,-88.4037 -43.4034,-88.9036 -43.9035,-89.4036 -44.4035,-89.9035 -44.9035,-90.4035 -45.6315,-90.9035 -46.4835,-91.4035 -47.403,-91.6755 -48.1313,-92.0515 -48.7554,-92.484 -49.3229,-92.9473 -49.8597,-93.4273 -50.6077,-93.6885 -51.2426,-94.0585 -51.816,-94.4878 -52.3559,-94.9494 -52.8776,-95.4285 -53.3894,-95.9171 -53.8958,-96.4109 -54.6273,-96.9075 -55.4813,-97.4057 -56.4018,-97.6767 -57.1306,-98.0521 -57.755,-98.4844 -58.5507,-98.7195 -59.4396,-99.0754 -60.3791,-99.497 -61.3463,-99.9544 -62.3284,-100.4312 -63.3186,-100.9186 -64.3133,-101.4117 -65.3105,-101.68 -66.0809,-102.0539 -66.728,-102.4853 -67.536,-102.72 -68.4316,-102.8477 -69.1468,-103.1451 -69.7639,-103.535 -70.5555,-103.747 -71.4422,-103.8624 -72.3806,-103.9251 -73.347,-103.9593 -74.1008,-104.2058 -74.7388,-104.568 -75.5419,-104.765 -76.4348,-104.8721 -77.3765,-104.9304 -78.3448,-104.9622 -79.0996,-105.2074 -79.7382,-105.5688 -80.5416,-105.7654 -81.4346,-105.8724 -82.1484,-106.1586 -82.7647,-106.5423 -83.556,-106.751 -84.4425,-107.0925 -85.3807,-107.5063 -86.3471,-107.7315 -87.3288,-108.0819 -88.3189,-108.5006 -89.3135,-108.7283 -90.3105,-108.8522 -91.3089,-108.9196 -92.3081,-108.9563 -93.3076,-108.9762 -94.3073,-108.9871 -95.3072,-108.993 -96.3071,-108.9962 -97.3071,-108.9979 -98.307,-108.9989 -99.307,-108.9994 -100.307,-108.9997 -101.307,-108.9998 -102.307,-108.9999 -103.307,-108.9999 -104.307,-109 -105.307,-109 -106.307,-109 -107.307,-109 -108.307,-109 -109.307,-109 -110.307,-109 -111.307,-109 -112.307,-109 -113.307,-109 -114.307,-109 -115.307,-109 -116.307,-109 -117.307,-109 -118.307,-109 -119.307,-109 -120.307,-109 -121.307,-109 -122.307,-109 -123.307,-109 -124.307,-109.228 -125.307,-109.58 -126.307,-109.7715 -127.307,-109.8757 -128.307,-109.9324 -129.307,-109.9632 -130.307,-109.98 -131.307,-109.9891 -132.307,-109.9941 -133.307,-109.9968 -134.307,-109.9982 -135.307,-109.999 -136.307,-109.9995 -137.079,-109.7717 -137.727,-109.4198 -138.5355,-109.2284 -139.4313,-109.1242 -140.3746,-108.8396 -141.3438,-108.4567 -142.327,-108.2485 -143.3179,-107.9072 -144.3129,-107.4935 -145.3102,-107.2685 -146.3088,-107.146 -147.308,-106.8514 -148.3075,-106.4632 -149.3073,-106.252 -150.3072,-106.1371 -151.3071,-105.8466 -152.3071,-105.4605 -153.307,-105.2505 -154.307,-104.9083 -155.307,-104.4941 -156.307,-104.2688 -157.307,-103.9182 -158.307,-103.4995 -159.307,-103.2717 -160.079,-102.9198 -160.727,-102.5004 -161.5355,-102.2722 -162.4313,-101.9201 -163.3746,-101.5005 -164.3438,-101.2723 -165.099,-100.9201 -165.7379,-100.5005 -166.5414,-100.2723 -167.4345,-100.1481 -168.1484,-99.8526 -168.7647,-99.4638 -169.556,-99.2523 -170.4425,-99.1373 -171.3807,-98.8467 -172.3471,-98.4606 -173.3288,-98.0226 -174.3189,-97.5563 -175.3135,-97.0746 -176.3105,-96.5846 -177.3089,-96.09 -178.3081,-95.593 -179.0796,-95.0946 -179.7273,-94.5954 -180.5356,-94.3239 -181.2034,-93.9482 -181.7946,-93.5158 -182.5723,-93.0526 -183.4513,-92.5726 -184.3855,-92.0835 -185.3497,-91.5894 -186.3302,-91.3206 -187.0917,-90.9464 -187.7339,-90.5149 -188.5392,-90.2801 -189.4333,-89.9244 -190.3757,-89.5029 -191.1164,-89.0456 -191.7473,-88.5688 -192.3185,-88.0814 -192.8573,-87.3603 -193.3784,-86.512 -193.8898,-85.8225 -194.3961,-85.2195 -194.6715,-84.4354 -195.0493,-83.7808 -195.4828,-83.1968 -195.9466,-82.651 -196.427,-82.1262 -196.9163,-81.6126 -197.4105,-81.1053 -197.9073,-80.6013 -198.4056,-80.0991 -198.9046,-79.5979 -199.4041,-79.0973 -199.9038,-78.5969 -200.4037,-78.0967 -200.9036,-77.5966 -201.4036,-77.0966 -201.9035,-76.5965 -202.4035,-76.0965 -202.9035,-75.5965 -203.4035,-75.0965 -203.6755,-74.3685 -204.0515,-73.7445 -204.484,-73.177 -204.7193,-72.4123 -205.0753,-71.7683 -205.497,-71.1899 -205.9543,-70.4193 -206.4312,-69.5441 -206.9186,-68.84 -207.4117,-68.229 -207.908,-67.6686 -208.4059,-67.1357 -208.9048,-66.6178 -209.4042,-66.1081 -209.9039,-65.6028 -210.4037,-65.5559 -210.6756,-65.9864 -210.8235,-66.6766 -210.904,-67.5081 -210.9478,-68.4164 -210.9716,-69.3665 -210.9845,-70.3394 -210.9916,-71.3246 -210.9954,-72.3166 -210.9975,-73.3122 -210.9986,-74.3099 -210.9993,-75.3086 -210.9996,-76.3079 -210.9998,-77.3075 -210.9999,-78.3073 -210.9999,-79.3072 -211,-80.3071 -211,-81.3071 -211,-82.307 -211,-82.851 -211,-82.691 -211,-82.1479 -211,-81.3964 -211,-80.5317 -210.772,-79.6052 -210.42,-78.6452 -210.2285,-77.667 -210.1243,-76.6789 -210.0676,-75.4573 -210.0368,-74.1088 -210.02,-72.9192 -210.0109,-71.816 -210.0059,-70.5319 -210.0032,-69.1494 -210.0018,-67.9413 -210.001,-66.828 -209.7725,-65.9945 -209.1923,-65.541 -208.4206,-65.2943 -207.5448,-65.1601 -206.6124,-65.0871 -205.4211,-65.0474 -204.0891,-65.0258 -202.6805,-65.014 -201.2302,-65.2356 -199.9852,-65.5842 -198.624,-65.7738 -196.9245,-65.9203 L-196,-66 " stroke-linecap="round" fill="none" stroke="#40c057" stroke-width="4.5" stroke-dasharray="none" stroke-dashoffset="0"/></g></g><g transform="matrix(1, 0, 0, 1, 967.8336, 11249.6091)" opacity="1"><g transform="scale(1)"><path d="M0,0 Q0.456,2.28 0.58,3.1282 T0.9995,4.6657 1.4557,5.9582 1.7039,7.1172 2.0669,7.9758 2.7204,8.2148 3.7599,7.6609 4.7814,6.4475 5.5651,5.1034 6.4474,3.9163 7.1554,2.8145 7.7685,1.9871 8.5581,1.081 9.492,-0.2668 L10,-1 " stroke-linecap="round" fill="none" stroke="#40c057" stroke-width="4.5" stroke-dasharray="none" stroke-dashoffset="0"/></g></g><g transform="matrix(1, 0, 0, 1, 940.8336, 11252.6091)" opacity="1"><g transform="scale(1)"><path d="M0,0 Q-2.28,-0.456 -2.9002,-0.808 T-4.0857,-1.5796 -4.7306,-2.4553 -4.6255,-3.1597 -4.1122,-3.5429 -3.3771,-3.7513 -2.5211,-4.0927 -1.5995,-4.5064 -0.6421,-4.7315 0.3347,-4.6259 1.3221,-4.3405 2.0872,-3.9572 2.5034,-3.2927 2.7299,-2.4752 2.853,-1.5745 2.6921,-0.6285 2.1485,0.3421 1.3968,1.0981 0.5318,1.5094 -0.3947,1.7331 -1.3547,1.6268 -2.105,1.113 -2.5131,0.3775 -2.7351,-0.4787 -2.6279,-1.4004 -2.1136,-2.1298 -1.3778,-2.5266 -0.5215,-2.7425 0.4003,-2.8599 1.1298,-2.6958 1.7546,-2.1505 2.3225,-1.3979 2.6314,-0.5324 2.5715,0.3943 2.0829,1.3545 1.3611,2.3329 0.2844,3.0931 -1.1951,3.6805 L-2,4 " stroke-linecap="round" fill="none" stroke="#f76707" stroke-width="4.5" stroke-dasharray="none" stroke-dashoffset="0"/></g></g><g transform="matrix(1, 0, 0, 1, 901.8336, 11230.6091)" opacity="1"><g transform="scale(1)"><path d="M0,0 Q0,5.472 0,7.4164 T0,10.8745 -0.228,13.8957 -0.728,17.2016 L-1,19 " stroke-linecap="round" fill="none" stroke="#f76707" stroke-width="4.5" stroke-dasharray="none" stroke-dashoffset="0"/></g></g><g transform="matrix(1, 0, 0, 1, 900.8336, 11225.6091)" opacity="1"><g transform="scale(1)"><path d="M0,0 Q2.736,-0.456 3.9362,-0.58 T6.0173,-0.7715 7.8334,-0.8757 9.5054,-0.9324 11.0989,-0.9632 12.6498,-0.98 14.1775,-0.5331 15.6926,0.166 16.9728,0.7743 17.8972,1.5612 18.4001,2.4453 18.6736,3.3822 18.8225,4.3479 18.6754,5.3293 18.3674,6.3191 17.9719,7.3136 17.3007,8.3106 16.4796,9.309 15.5769,10.0801 14.4018,10.7276 13.0786,11.3078 11.6748,11.8514 10.2271,12.3752 8.7555,12.6601 6.9709,12.8802 L6,13 " stroke-linecap="round" fill="none" stroke="#f76707" stroke-width="4.5" stroke-dasharray="none" stroke-dashoffset="0"/></g></g><g transform="matrix(1, 0, 0, 1, 910.8336, 11252.6091)" opacity="1"><g transform="scale(1)"><path d="M0,0 Q0.912,1.824 1.1601,2.7761 T1.5431,4.4742 1.7514,5.854 2.0928,7.2886 2.7345,8.525 3.5396,9.1976 4.2055,9.3355 4.7958,8.9545 5.5729,8.2913 6.2237,7.4744 6.8057,6.5741 7.5783,5.8563 8.4546,5.0098 9.4555,3.7081 L10,3 " stroke-linecap="round" fill="none" stroke="#f76707" stroke-width="4.5" stroke-dasharray="none" stroke-dashoffset="0"/></g></g><g transform="matrix(1, 0, 0, 1, 941.8336, 11255.6091)" opacity="1"><g transform="scale(1)"><path d="M0,0 Q1.824,0.456 2.3201,0.808 T3.3141,1.3516 4.0829,1.8753 4.7291,2.6161 5.5366,3.4752 6.4319,4.3985 7.375,5.3568 8.344,6.3341 9.0991,7.3217 9.7379,8.087 10.3134,8.7313 10.8545,9.3099 11.3769,9.8526 11.889,10.3758 12.3956,10.8884 12.8992,11.3953 13.4012,11.899 13.9022,12.4011 14.4028,12.9022 14.9031,13.4028 15.6313,13.6751 16.2554,14.0513 16.823,14.4839 17.5877,14.9472 18.4597,15.4273 19.1621,15.9164 19.7722,16.4105 20.5601,16.9073 21.4447,17.4056 22.1539,17.9046 22.7677,18.4041 23.5576,18.9038 24.4434,19.6317 25.3812,20.4836 26.3474,21.4031 27.329,22.1313 28.319,22.7554 29.3135,23.3229 30.3106,23.8597 31.3089,24.6077 32.3081,25.2426 33.3076,25.816 34.3073,26.5839 35.3072,27.2296 36.3071,27.8089 37.3071,28.3521 38.307,28.8755 39.307,29.6163 40.307,30.4753 41.307,31.3985 42.307,32.1288 43.307,32.7541 44.307,33.5502 45.307,34.4393 46.307,35.151 47.079,35.7661 47.727,36.5568 48.5355,37.2149 49.2033,37.8009 49.7946,38.3477 50.5723,38.8731 51.4513,39.387 52.3855,39.8945 53.3497,40.3986 54.3302,40.9008 55.3197,41.4021 56.3139,41.6747 57.0828,42.051 57.729,42.4838 58.5366,42.7192 59.2039,43.0752 59.7949,43.4969 60.5724,43.9543 61.4514,44.6592 62.3856,45.2706 63.1217,45.8312 63.7502,46.3642 64.5481,46.8821 65.4382,47.3919 66.3784,47.8972 67.3458,48.4001 68.3281,48.9016 69.3185,49.4025 70.3133,49.675 71.0824,50.0512 71.7288,50.4838 72.5365,50.7192 73.2038,51.0752 73.7949,51.4969 74.3444,51.9543 74.8714,52.4312 75.614,52.6905 76.246,53.0597 76.8178,53.4885 77.5849,53.9497 78.4582,54.4286 79.3893,54.9172 80.3518,55.4109 81.3314,55.6796 82.0923,56.0537 82.7342,56.4852 83.5394,56.7199 84.2054,57.0757 84.7958,57.4972 85.5729,57.7265 86.2237,58.0792 86.8057,58.4991 87.5783,58.9555 88.4546,59.4318 89.3873,59.6909 90.1227,60.0598 90.7507,60.4886 91.5484,60.9498 92.4383,61.4287 93.3785,61.9172 94.3459,62.411 95.1002,62.9076 95.9665,63.4057 97.2835,63.7906 L98,64 " stroke-linecap="round" fill="none" stroke="#9398b0" stroke-width="4.5" stroke-dasharray="9 9" stroke-dashoffset="0"/></g></g><g transform="matrix(1, 0, 0, 1, 940.8336, 11256.6091)" opacity="1"><g transform="scale(1)"><path d="M0,0 Q-0.456,2.28 -0.58,3.1282 T-0.9995,5.1217 -1.4557,7.3462 -1.7039,9.2403 -1.8389,10.9547 -1.9124,12.5714 -1.9523,14.1348 -1.9741,15.6693 -1.9859,16.9601 -1.9923,18.1183 -1.9958,19.2044 -1.9977,20.2512 -1.9988,21.2766 -1.9993,22.5185 -1.9996,23.8781 -1.9998,25.0737 -1.7719,26.1801 -1.4199,27.466 -1.2284,28.8495 -1.1243,30.0581 -1.0676,31.1716 -1.0368,32.4614 -1.02,33.847 -1.0109,35.0568 -1.0059,36.1709 -0.7752,37.461 -0.4217,38.8468 -0.2294,40.0566 -0.1248,41.1708 -0.0679,42.2329 -0.0369,43.2667 -0.0201,44.5131 -0.0109,45.8751 0.2221,47.0721 0.5768,48.1792 0.7698,49.2375 0.8748,50.2692 0.9319,51.2864 0.9629,52.2958 0.9798,53.3009 0.989,54.3037 0.994,55.3052 0.9968,56.306 0.9982,57.3065 0.999,58.3067 0.9995,59.3069 0.9997,60.3069 0.9998,61.307 0.9999,62.307 1,63.535 1,65.1315 L1,66 " stroke-linecap="round" fill="none" stroke="#ffc034" stroke-width="4.5" stroke-dasharray="0.1 9" stroke-dashoffset="0"/></g></g><g transform="matrix(1, 0, 0, 1, 791.8336, 11227.6091)" opacity="1"><g transform="scale(1)"><path d="M0,0 Q-3.192,0.456 -4.2882,0.808 T-6.2088,1.3516 -7.7096,1.6473 -8.982,1.8081 -9.9022,2.1236 -10.1748,2.5232 -9.8671,2.9686 -9.2437,3.6669 -8.2206,4.2748 -6.98,4.8335 -5.8491,5.5934 -4.7779,6.2348 -3.7392,6.8117 -2.9461,7.5816 -2.2867,8.4564 -1.7,9.3883 -1.3808,10.3512 -1.2071,11.3311 -1.3407,12.0921 -1.8693,12.7341 -2.6129,13.3114 -3.4734,13.6254 -4.3975,13.7962 -5.5843,13.8891 -7.1418,13.9397 -8.6732,13.9672 -10.1902,13.9822 -11.6995,13.7623 -12.9765,13.4147 -14.1272,12.9976 -15.2092,12.0867 -16.369,10.7352 L-17,10 " stroke-linecap="round" fill="none" stroke="#f76707" stroke-width="4.5" stroke-dasharray="none" stroke-dashoffset="0"/></g></g><g transform="matrix(1, 0, 0, 1, 798.8336, 11234.6091)" opacity="1"><g transform="scale(1)"><path d="M0,0 Q0.912,1.368 0.9321,1.9681 T0.963,3.1226 0.2959,4.4347 -1.1911,6.0962 L-2,7 " stroke-linecap="round" fill="none" stroke="#f76707" stroke-width="4.5" stroke-dasharray="none" stroke-dashoffset="0"/></g></g><g transform="matrix(1, 0, 0, 1, 802.8336, 11214.6091)" opacity="1"><g transform="scale(1)"><path d="M 0 0 m -0.5, 0 a 0.5,0.5 0 1,0 1,0 a 0.5,0.5 0 1,0 -1,0" stroke-linecap="round" fill="#f76707" stroke="#f76707" stroke-width="4.5" stroke-dasharray="none" stroke-dashoffset="0"/></g></g><g transform="matrix(1, 0, 0, 1, 808.8336, 11238.6091)" opacity="1"><g transform="scale(1)"><path d="M0,0 Q-0.456,2.736 -0.808,3.7082 T-1.3516,5.4373 -1.6473,6.1499 -1.5801,5.8535 -1.0876,5.2363 -0.1356,4.4446 1.0662,3.5578 2.176,2.6195 3.2358,1.653 4.2683,0.6712 5.5139,-0.0909 6.8756,-0.7334 8.0723,-1.311 9.1793,-1.6252 10.2376,-1.7961 11.0412,-1.6611 11.7064,-1.3596 12.2963,-0.9676 12.6172,-0.2984 12.7917,0.5217 12.6587,1.4238 12.3583,2.3705 11.7389,3.3416 10.6127,4.4157 L10,5 " stroke-linecap="round" fill="none" stroke="#f76707" stroke-width="4.5" stroke-dasharray="none" stroke-dashoffset="0"/></g></g><g transform="matrix(1, 0, 0, 1, 839.8336, 11221.6091)" opacity="1"><g transform="scale(1)"><path d="M0,0 Q-1.824,1.824 -2.5481,2.7761 T-4.3502,5.1582 -6.4705,7.8221 -8.308,9.9552 -9.7635,11.7996 -11.0114,13.715 -11.9182,15.441 -12.4115,17.0639 -12.4519,18.6308 -12.0178,19.9391 -11.0977,21.1069 -9.7391,22.333 L-9,23 " stroke-linecap="round" fill="none" stroke="#f76707" stroke-width="4.5" stroke-dasharray="none" stroke-dashoffset="0"/></g></g><g transform="matrix(1, 0, 0, 1, 841.8336, 11231.6091)" opacity="1"><g transform="scale(1)"><path d="M0,0 Q0,3.648 0,5.0963 T0,7.5604 0,9.3568 0,10.7901 0,12.0258 0.228,12.698 0.808,12.6077 1.3516,12.1026 1.8753,11.5998 2.8441,11.0983 3.8272,10.3695 4.59,9.517 5.461,8.5972 6.3908,7.8689 7.1246,7.2447 7.7518,6.4491 8.777,5.3323 10.2168,3.8217 L11,3 " stroke-linecap="round" fill="none" stroke="#f76707" stroke-width="4.5" stroke-dasharray="none" stroke-dashoffset="0"/></g></g><g transform="matrix(1, 0, 0, 1, 857.8336, 11222.6091)" opacity="1"><g transform="scale(1)"><path d="M0,0 Q0.456,2.736 0.58,3.7082 T0.7715,5.4373 0.8757,6.8339 0.9324,9.1896 0.9632,12.2952 0.752,15.1246 0.4091,17.8038 -0.0055,20.1732 -0.687,22.3742 -1.5137,24.4836 -2.4195,26.3151 -3.5962,27.5394 -5.1531,28.4854 L-6,29 " stroke-linecap="round" fill="none" stroke="#f76707" stroke-width="4.5" stroke-dasharray="none" stroke-dashoffset="0"/></g></g><g transform="matrix(1, 0, 0, 1, 760.8336, 11244.6091)" opacity="1"><g transform="scale(1)"><path d="M0,0 Q1.824,0.456 1.8641,1.036 T1.6981,2.3876 1.1518,3.8069 -0.2854,5.7189 -2.6912,8.4916 L-4,10 " stroke-linecap="round" fill="none" stroke="#f76707" stroke-width="4.5" stroke-dasharray="none" stroke-dashoffset="0"/></g></g><g transform="matrix(1, 0, 0, 1, 685.8336, 11226.6091)" opacity="1"><g transform="scale(1)"><path d="M0,0 Q-2.736,1.368 -3.7082,1.9681 T-5.4373,2.8946 -7.0619,3.6267 -8.6297,4.4809 -9.9385,5.1736 -11.3346,6.2344 -12.55,7.9515 -13.2112,9.5696 -13.1149,10.9059 -11.9225,12.0888 -10.1338,12.9603 -8.2488,13.6624 -6.3114,14.2723 -4.3454,14.6042 -2.3639,14.7847 -0.1852,14.9241 L1,15 " stroke-linecap="round" fill="none" stroke="#f76707" stroke-width="4.5" stroke-dasharray="none" stroke-dashoffset="0"/></g></g><g transform="matrix(1, 0, 0, 1, 703.8336, 11233.6091)" opacity="1"><g transform="scale(1)"><path d="M0,0 Q-2.736,0.912 -3.7082,1.1601 T-5.6653,1.7711 -7.1859,2.5595 -8.2411,3.2163 -9.0432,3.8017 -9.4795,4.5761 -8.5768,5.9094 -6.4898,7.5467 -4.6705,8.6654 -2.9967,9.274 -1.1742,9.605 0.5012,9.7851 1.8687,9.6551 2.8406,9.1284 3.5973,8.3858 4.2369,7.5259 4.5849,6.6021 4.7742,5.4155 4.9204,3.8511 L5,3 " stroke-linecap="round" fill="none" stroke="#f76707" stroke-width="4.5" stroke-dasharray="none" stroke-dashoffset="0"/></g></g><g transform="matrix(1, 0, 0, 1, 722.8336, 11232.6091)" opacity="1"><g transform="scale(1)"><path d="M0,0 Q-1.824,1.368 -2.3201,2.1961 T-2.8581,3.4747 -2.6948,4.3982 -2.15,5.3566 -1.3976,6.334 -0.5323,7.3217 0.3944,8.087 1.1266,8.7313 1.5249,9.5378 1.5135,10.2046 0.8234,10.7953 -0.2361,11.3446 -1.4964,11.6435 -3.0941,11.8061 -4.8752,11.6665 -6.5281,11.3626 -8.1113,10.7412 -9.9822,9.6135 L-11,9 " stroke-linecap="round" fill="none" stroke="#f76707" stroke-width="4.5" stroke-dasharray="none" stroke-dashoffset="0"/></g></g><g transform="matrix(1, 0, 0, 1, 740.8336, 11222.6091)" opacity="1"><g transform="scale(1)"><path d="M0,0 Q-1.368,2.28 -1.9681,3.1282 T-3.3506,4.8937 -4.7868,6.5382 -6.024,7.8888 -7.8371,9.9915 -9.7354,12.7314 -10.768,14.9059 -11.3298,16.7728 -11.6354,18.4724 -11.5737,19.853 -11.3121,21.06 -10.7138,22.1727 -9.4763,23.2339 -7.8725,24.3778 L-7,25 " stroke-linecap="round" fill="none" stroke="#f76707" stroke-width="4.5" stroke-dasharray="none" stroke-dashoffset="0"/></g></g><g transform="matrix(1, 0, 0, 1, 737.8336, 11234.6091)" opacity="1"><g transform="scale(1)"><path d="M0,0 Q0.912,1.824 1.3881,2.5481 T2.1231,4.3502 2.751,6.2425 3.3205,7.7279 3.8584,8.992 4.607,9.9076 5.4702,10.1778 6.1678,9.8687 6.7753,9.2446 7.3337,8.449 7.8656,7.5603 8.6109,6.6208 9.4723,5.4257 10.4617,3.8547 L11,3 " stroke-linecap="round" fill="none" stroke="#f76707" stroke-width="4.5" stroke-dasharray="none" stroke-dashoffset="0"/></g></g><g transform="matrix(1, 0, 0, 1, 757.8336, 11221.6091)" opacity="1"><g transform="scale(1)"><path d="M0,0 Q0,2.736 0,3.7082 T0,5.4373 0,7.0619 0,8.6297 0,10.6225 0,13.0747 -0.228,15.0926 -0.808,16.8744 -1.5796,18.5277 -2.2273,20.111 -2.8076,21.6564 -3.5794,22.9531 -4.4552,24.1145 -5.6156,24.9743 -7.1599,25.6386 L-8,26 " stroke-linecap="round" fill="none" stroke="#f76707" stroke-width="4.5" stroke-dasharray="none" stroke-dashoffset="0"/></g></g><g transform="matrix(1, 0, 0, 1, 861.8336, 11209.6091)" opacity="1"><g transform="scale(1)"><path d="M0,0 Q0.912,2.736 1.3881,3.7082 T2.1231,5.4373 2.751,6.8339 3.3205,8.2776 3.8584,9.747 4.835,12.1424 5.8222,15.0415 6.3593,17.3026 6.6515,19.4446 6.8104,21.2939 6.8969,22.7559 6.9439,24.2352 6.9695,25.9519 6.7554,27.5699 6.4109,29.134 5.9955,30.8969 5.5416,32.7679 5.0666,34.4697 4.3522,36.0795 3.7356,37.8673 3.1722,39.5238 2.6377,41.1089 2.1189,42.6553 1.3807,43.9525 0.7511,45.1141 0.1806,46.2021 -0.3578,47.2499 -0.8786,48.276 -1.39,49.2901 -1.8961,50.2978 -2.3995,51.53 -2.7884,53.1297 L-3,54 " stroke-linecap="round" fill="none" stroke="#f76707" stroke-width="4.5" stroke-dasharray="none" stroke-dashoffset="0"/></g></g><g transform="matrix(1, 0, 0, 1, 877.8336, 11235.6091)" opacity="1"><g transform="scale(1)"><path d="M0,0 Q3.648,0 4.8683,-0.228 T7.2083,-0.58 9.6641,-0.852 L11,-1 " stroke-linecap="round" fill="none" stroke="#f76707" stroke-width="4.5" stroke-dasharray="none" stroke-dashoffset="0"/></g></g><g transform="matrix(1, 0, 0, 1, 878.8336, 11240.6091)" opacity="1"><g transform="scale(1)"><path d="M0,0 Q2.736,0 3.9362,-0.228 T6.5682,-0.728 L8,-1 " stroke-linecap="round" fill="none" stroke="#f76707" stroke-width="4.5" stroke-dasharray="none" stroke-dashoffset="0"/></g></g><g transform="matrix(1, 0, 0, 1, 668.8336, 11206.6091)" opacity="1"><g transform="scale(1)"><path d="M0,0 Q-0.912,1.824 -1.3881,2.3201 T-2.1231,3.3141 -2.523,4.3109 -2.9685,5.0811 -3.4389,5.7281 -3.6947,6.5361 -4.0619,7.2036 -4.4897,7.7948 -4.9504,8.5724 -5.429,9.4514 -5.9174,10.3855 -6.4111,11.3497 -6.6796,12.3303 -7.0537,13.3197 -7.4852,14.3139 -7.72,15.3108 -7.8477,16.3091 -8.1451,17.0801 -8.5349,17.7276 -8.747,18.5358 -8.8624,19.4315 -8.9251,20.3747 -8.9593,21.3439 -8.9778,22.3271 -9.2159,23.3179 -9.5735,24.3129 -9.768,25.3102 -9.8738,26.3088 -9.9313,27.308 -9.9626,28.3075 -9.9797,29.3073 -9.9889,30.3072 -9.994,31.3071 -9.9967,32.3071 -9.9982,33.307 -9.999,34.307 -9.9995,35.307 -9.9997,36.307 -9.9998,37.307 -9.9999,38.307 -10,39.307 -9.772,40.307 -9.42,41.307 -9.2285,42.307 -8.8963,43.079 -8.4876,43.727 -8.0372,44.5355 -7.5643,45.4313 -7.079,46.1466 -6.587,46.9918 -6.2068,48.2924 L-6,49 " stroke-linecap="round" fill="none" stroke="#f76707" stroke-width="4.5" stroke-dasharray="none" stroke-dashoffset="0"/></g></g></svg>