<svg xmlns="http://www.w3.org/2000/svg" direction="ltr" width="597.136001503407" height="399.13897975280764" viewBox="358.8507248704908 78.76058602101433 597.136001503407 399.13897975280764" stroke-linecap="round" stroke-linejoin="round" data-color-mode="dark" class="tl-container tl-theme__force-sRGB tl-theme__dark" style="background-color: transparent;"><defs/><g transform="matrix(1, 0, 0, 1, 537.5623, 142.4677) scale(1.1285618971108877, 1.1285618971108877)" opacity="1"><g transform="scale(0.8860834328715107)"><path d="M0,-1.7915 T1.3339,-1.8284 4.6837,-1.9138 8.8496,-1.9862 13.3997,-1.9503 15.8,-1.8905 A1.8905,1.8905 0 0 1 15.8,1.8905 T13.3997,1.9503 8.8496,1.9862 4.6837,1.9138 1.3339,1.8284 0,1.7915 A1.7915,1.7915 0 0 1 0,-1.7915 Z" stroke-linecap="round" fill="#9398b0"/></g></g><g transform="matrix(1, 0, 0, 1, 568.0335, 131.1821) scale(1.1285618971108877, 1.1285618971108877)" opacity="1"><g transform="scale(0.8860834328715107)"><path d="M2.1851,0 T2.2081,1.3339 2.2626,4.8245 2.3175,9.0737 2.0205,12.7457 1.3722,15.8405 1.0443,17.3556 A2.2156,2.2156 0 0 1 -3.3043,16.5044 T-2.8226,13.8268 -2.3175,9.0653 -2.2626,4.8245 -2.2081,1.3339 -2.1851,0 A2.1851,2.1851 0 0 1 2.1851,0 Z" stroke-linecap="round" fill="#9398b0"/></g></g><g transform="matrix(1, 0, 0, 1, 566.9049, 127.7964) scale(1.1285618971108877, 1.1285618971108877)" opacity="1"><g transform="scale(0.8860834328715107)"><path d="M1.2616,1.6784 T0.2202,2.5136 -2.4996,4.5198 -6.1329,6.5966 -8.0878,7.5026 A2.0873,2.0873 0 0 1 -9.9722,3.7774 T-8.0976,2.7462 -4.8342,0.7865 -2.3535,-0.9102 -1.2616,-1.6784 A2.0997,2.0997 0 0 1 1.2616,1.6784 Z" stroke-linecap="round" fill="#9398b0"/></g></g><g transform="matrix(1, 0, 0, 1, 389.7207, 160.5247) scale(1.1285618971108877, 1.1285618971108877)" opacity="1"><g transform="scale(0.8860834328715107)"><path d="M0.7249,-2.022 T2.0631,-2.2679 5.2543,-2.7244 8.7452,-2.9906 12.4043,-3.0678 16.0055,-3.0985 19.4378,-3.1173 23.0282,-2.7146 26.6934,-2.2088 30.569,-2.1138 34.0679,-2.3599 37.2475,-2.8698 40.5827,-3.2143 44.1118,-3.7324 47.8084,-4.3124 51.8383,-4.5095 56.2228,-4.5911 60.2829,-4.6356 64.1103,-5.0666 68.4439,-5.6169 72.3341,-6.0115 76.272,-6.5448 80.6555,-7.1239 84.7055,-7.7075 88.6995,-8.0637 92.4093,-8.1674 96.1585,-8.205 100.4453,-7.8955 104.8648,-7.3802 108.9567,-7.1576 112.5692,-7.1207 116.4973,-7.1118 120.7852,-7.1141 124.5174,-7.1194 128.0064,-7.1148 131.7822,-6.6437 135.6608,-6.1208 139.491,-6.0608 143.2204,-6.0674 146.8718,-6.0829 150.9746,-6.0978 154.8175,-6.1031 158.161,-5.6894 162.3408,-5.1733 166.6975,-5.0594 170.3235,-5.0503 174.0419,-5.0524 177.7866,-5.0542 181.6798,-5.057 185.983,-4.7458 190.0246,-4.2664 193.6341,-4.0489 197.4953,-3.9857 201.8255,-3.9735 206.2887,-3.9766 210.7894,-3.9856 215.6302,-3.6895 220.2362,-3.2117 224.4468,-2.9811 228.8744,-2.9161 233.374,-2.9042 238.2945,-2.4953 243.3259,-1.9863 247.982,-1.8582 252.9356,-1.8262 258.2447,-1.8211 263.3887,-1.8223 268.6262,-1.8247 274.1556,-1.827 279.7685,-1.8287 284.9952,-1.83 289.9728,-1.8308 295.0243,-1.8315 300.0952,-1.8344 305.1703,-1.8408 309.9817,-1.8489 314.9858,-1.8595 320.0448,-1.8694 324.7108,-1.8762 329.2654,-1.8812 333.7914,-1.8851 338.3095,-1.888 342.9225,-2.1254 347.7303,-2.6107 352.2233,-2.925 356.7347,-3.0073 361.6517,-3.0272 366.2346,-3.4316 371.1886,-3.9647 376.8151,-4.1325 382.1631,-4.583 387.3149,-5.1218 392.5608,-5.2815 397.6888,-5.569 401.9,-5.9836 406.6001,-6.2695 411.2037,-6.4199 416.024,-6.8706 420.9689,-7.3819 424.4318,-7.5154 427.8578,-7.5876 432.2846,-7.6354 437.799,-7.6615 443.0013,-7.6703 448.114,-7.6739 452.565,-7.6721 456.0297,-7.6709 459.4567,-7.667 463.1311,-7.657 466.9359,-7.6456 470.5421,-7.634 475.0925,-7.8591 480.9397,-8.3144 486.6211,-8.5895 491.8511,-9.0429 496.9753,-9.5543 502.0888,-9.5657 506.2607,-9.3635 507.83,-9.2597 A2.4898,2.4898 0 0 1 507.87,-4.2803 T504.9115,-4.0198 499.6903,-3.6796 495.0998,-3.3847 491.0635,-2.8582 486.8293,-2.4792 481.606,-2.2047 475.6092,-1.6954 470.5421,-1.386 466.9359,-1.3743 463.1312,-1.3629 459.4568,-1.3529 456.0299,-1.3488 452.5654,-1.3474 448.1155,-1.3448 443.0065,-1.3451 437.8175,-1.3416 432.3388,-1.324 427.9728,-1.2951 424.6498,-1.2439 419.837,-1.0173 414.7953,-0.5329 409.8552,-0.1908 404.0434,0.0527 398.2669,0.5461 392.6859,0.8753 387.7198,1.0114 382.5068,1.5378 376.9488,1.9843 371.6536,2.107 366.6267,2.6199 361.6855,3.0435 356.8078,3.066 352.4573,3.1363 348.5256,3.3716 343.5443,3.8509 338.3095,4.148 333.7914,4.1451 329.2654,4.1412 324.7108,4.1362 320.0448,4.1294 314.9858,4.1195 309.9817,4.1089 305.1703,4.1008 300.0952,4.0944 295.0243,4.0915 289.9728,4.0908 284.9952,4.0899 279.7684,4.0887 274.1554,4.0868 268.6254,4.084 263.3864,4.08 258.2359,4.0725 252.9008,4.0552 247.8585,4.0065 242.9366,3.844 238.7822,3.5408 235.2728,3.1272 231.0812,2.8769 226.5203,2.8265 221.842,2.6636 217.3697,2.1351 213.0339,1.729 208.5334,1.7177 204.0384,1.7048 199.595,1.6857 195.3162,1.6345 191.1947,1.4683 186.4757,0.9397 181.6793,0.5366 177.785,0.5329 174.035,0.5278 170.2987,0.514 166.6224,0.4807 162.6567,0.3818 158.6335,-0.0086 154.9181,-0.4994 150.9743,-0.6824 146.87,-0.6982 143.2139,-0.7171 139.4387,-0.7467 135.3814,-0.8471 131.4449,-1.4202 127.9011,-1.9052 124.5171,-1.9008 120.7836,-1.9071 116.4875,-1.9159 112.5286,-1.9302 108.7756,-1.9736 105.1113,-2.1327 101.9029,-2.6573 98.1769,-3.0579 94.383,-3.0561 90.9221,-3.0285 87.3003,-2.9117 83.2902,-2.372 79.0703,-1.8297 74.8257,-1.3121 70.7274,-0.8399 66.815,-0.623 62.5026,-0.1664 58.2059,0.1122 54.0724,0.0991 49.9933,0.1356 46.4698,0.3377 42.9258,0.8282 38.8668,1.3453 34.6177,1.8169 30.5085,2.0611 26.2506,1.8491 22.035,1.2693 18.1213,0.8556 14.0413,0.8513 9.7061,0.9305 5.8385,1.2253 2.8646,1.7334 1.5351,2.022 A2.0622,2.0622 0 0 1 0.7249,-2.022 Z" stroke-linecap="round" fill="#9398b0"/></g></g><g transform="matrix(1, 0, 0, 1, 519.4597, 177.1471) scale(1.0536960911355293, 1.0536960911355293)" opacity="1"><g transform="scale(0.9490402483341633)"><path d="M1.9738,1.05 T2.0235,2.7954 2.1434,7.4546 2.1667,11.9037 2.0763,15.1495 2.0329,16.86 A2.0329,2.0329 0 0 1 -2.0329,16.86 T-2.0763,15.1495 -2.1667,11.9037 -2.1434,7.4546 -2.0235,2.7954 -1.9738,1.05 A1.9738,1.9738 0 0 1 1.9738,1.05 Z" stroke-linecap="round" fill="#9398b0"/></g></g><g transform="matrix(1, 0, 0, 1, 523.6744, 184.523) scale(1.0536960911355293, 1.0536960911355293)" opacity="1"><g transform="scale(0.9490402483341633)"><path d="M0,2.8948 T-1.7454,2.9578 -5.156,3.0716 -8.2955,3.3334 -11.585,3.7985 -13.4005,4.0527 A1.9656,1.9656 0 0 1 -13.9995,0.1673 T-12.1919,-0.1371 -8.6065,-0.732 -5.1597,-0.9716 -1.7454,-0.8578 0,-0.7948 A1.8448,1.8448 0 0 1 0,2.8948 Z" stroke-linecap="round" fill="#9398b0"/></g></g><g transform="matrix(1, 0, 0, 1, 649.0643, 177.1471) scale(1.0536960911355293, 1.0536960911355293)" opacity="1"><g transform="scale(0.9490402483341633)"><path d="M2.1048,-1.05 T2.1311,-0.0543 1.9421,3.6184 1.5645,8.5696 1.278,13.3601 1.1538,15.8766 A2.2048,2.2048 0 0 1 -3.2538,15.7434 T-3.2243,13.1748 -2.9574,7.9796 -2.4387,3.1472 -2.1311,-0.0543 -2.1048,-1.05 A2.1048,2.1048 0 0 1 2.1048,-1.05 Z" stroke-linecap="round" fill="#9398b0"/></g></g><g transform="matrix(1, 0, 0, 1, 654.3328, 181.3619) scale(1.0536960911355293, 1.0536960911355293)" opacity="1"><g transform="scale(0.9490402483341633)"><path d="M0.2723,1.9142 T-1.4688,2.1931 -4.9365,2.6362 -8.1714,3.1093 -11.4902,3.7793 -13.3009,4.1403 A2.0691,2.0691 0 0 1 -14.0991,0.0797 T-12.2866,-0.2716 -8.7305,-0.9532 -5.3792,-1.3811 -2.0219,-1.6965 -0.2723,-1.9142 A1.9334,1.9334 0 0 1 0.2723,1.9142 Z" stroke-linecap="round" fill="#9398b0"/></g></g><g transform="matrix(1, 0, 0, 1, 799.7428, 172.9324) scale(1.0536960911355293, 1.0536960911355293)" opacity="1"><g transform="scale(0.9490402483341633)"><path d="M1.6277,0 T1.6863,1.7454 1.8127,6.1502 2.4402,11.1866 3.3759,14.9589 3.7518,16.3543 A1.7179,1.7179 0 0 1 0.4682,17.3657 T-0.467,14.6628 -1.6413,10.3897 -1.8127,6.1552 -1.6863,1.7454 -1.6277,0 A1.6277,1.6277 0 0 1 1.6277,0 Z" stroke-linecap="round" fill="#9398b0"/></g></g><g transform="matrix(1, 0, 0, 1, 803.9576, 181.3619) scale(1.0536960911355293, 1.0536960911355293)" opacity="1"><g transform="scale(0.9490402483341633)"><path d="M-1.05,2.1181 T-3.2944,2.1038 -8.0394,2.0781 -10.54,2.0668 A2.0668,2.0668 0 0 1 -10.54,-2.0668 T-8.0394,-2.0781 -3.2944,-2.1038 -1.05,-2.1181 A2.1181,2.1181 0 0 1 -1.05,2.1181 Z" stroke-linecap="round" fill="#9398b0"/></g></g><g transform="matrix(1, 0, 0, 1, 501.5468, 109.7106) scale(1.0536960911355293, 1.0536960911355293)" opacity="1"><g transform="scale(0.9490402483341633)"><path d="M1.6126,1.05 T1.6001,2.547 1.586,5.5804 1.5849,9.861 1.3243,15.1864 0.8899,20.2207 0.6754,24.879 0.6387,29.5964 0.6575,34.5792 0.6835,39.3905 0.703,44.1504 0.7189,49.1442 0.721,54.7167 0.7127,59.267 0.7084,62.3855 0.7039,66.7192 0.7023,72.1568 0.7078,76.3172 0.7187,80.517 0.7331,85.636 0.4823,89.5643 0.0415,93.3255 -0.1893,97.9501 -0.2527,102.6537 -0.5354,106.4792 -0.9948,110.2105 -1.2422,114.571 -1.3131,119.0668 -1.3295,123.7384 -1.3309,128.2119 -1.3294,132.4985 -1.6001,136.9426 -2.0486,141.223 -2.2786,145.2447 -2.3465,149.4042 -2.3653,153.6037 -2.3701,157.8144 -2.3711,162.0282 -2.3719,166.2487 -2.7634,170.8065 -3.2599,175.874 -3.3967,180.7461 -3.4376,185.1427 -3.4508,189.4071 -3.4557,193.6334 -3.4582,198.232 -3.4597,202.9351 -3.4607,207.2856 -3.4589,211.7866 -3.4493,216.4626 -3.4348,221.8134 -3.041,227.3868 -2.5375,232.2397 -2.3829,236.7298 -2.3298,241.4054 -2.3077,246.1279 -2.2968,250.4836 -2.2895,255.2367 -2.284,260.362 -2.2803,265.0927 -2.2777,269.6993 -2.2757,274.4022 -2.2743,278.8849 -2.2772,283.1871 -2.6705,287.3984 -3.45,291.9691 -4.0343,296.4502 -4.2872,300.2342 -4.3555,304.4482 -4.7476,309.1478 -5.2229,313.248 -5.6054,317.667 -6.0723,322.6831 -5.9333,327.4368 -4.6085,332.6348 -3.6002,335.4914 A1.7878,1.7878 0 0 1 -6.9398,336.7686 T-7.6135,335.1645 -8.9623,331.8572 -9.9638,327.5196 -10.0513,322.1442 -9.5454,317.1578 -9.1561,312.9629 -8.6406,308.913 -8.2219,304.3856 -8.1274,300.0305 -7.7942,295.7465 -7.2105,291.2161 -6.5151,287.157 -6.1428,283.1613 -6.1457,278.8849 -6.1443,274.4022 -6.1423,269.6993 -6.1397,265.0927 -6.1362,260.3621 -6.1324,256.2962 -6.1281,252.6184 -6.1227,248.3315 -6.1188,243.857 -6.1254,239.1816 -6.1809,234.6711 -6.4106,230.2516 -6.8524,226.4198 -7.1052,221.8185 -7.0907,216.4626 -7.0811,211.7866 -7.0793,207.2856 -7.0801,202.935 -7.0812,198.2315 -7.0821,193.6317 -7.0812,189.401 -7.0733,185.1211 -7.0388,180.6761 -6.9039,175.6362 -6.4221,170.6104 -6.0478,166.2369 -6.0477,162.0273 -6.0457,157.8111 -6.0396,153.5919 -6.019,149.3615 -5.945,145.0915 -5.6643,140.6847 -5.2162,136.5239 -4.9894,132.4976 -4.9849,128.2088 -4.9752,123.7285 -4.9518,119.0266 -4.8792,114.4263 -4.6101,109.763 -4.1572,104.9986 -3.8827,100.1389 -3.7313,95.2904 -3.2279,90.5118 -2.8331,85.6306 -2.8187,80.517 -2.8078,76.3172 -2.8023,72.1568 -2.8039,66.7192 -2.8084,62.3855 -2.8126,59.267 -2.8209,54.7166 -2.8185,49.144 -2.8019,44.1496 -2.7792,39.388 -2.7423,34.5698 -2.6841,29.5603 -2.5791,24.7588 -2.2829,19.7965 -1.8209,14.8538 -1.5849,9.861 -1.586,5.5804 -1.6001,2.547 -1.6126,1.05 A1.6126,1.6126 0 0 1 1.6126,1.05 Z" stroke-linecap="round" fill="#9398b0"/></g></g><g transform="matrix(1, 0, 0, 1, 511.0301, 238.2615) scale(1.0536960911355293, 1.0536960911355293)" opacity="1"><g transform="scale(0.9490402483341633)"><path d="M0,-1.1452 T1.4947,-1.1459 5.2025,-1.1553 9.6705,-1.1746 12.8127,-1.1877 13.7,-1.1903 A2.2403,2.2403 0 0 1 13.7,3.2903 T12.8127,3.2877 9.6705,3.2746 5.2025,3.2553 1.4947,3.2459 0,3.2452 A2.1952,2.1952 0 0 1 0,-1.1452 ZM13.7,3.2903 T12.4069,3.29 9.404,3.2836 4.9792,3.3476 0.5309,3.2358 -1.2024,3.054 A2.0098,2.0098 0 0 1 -0.8976,-0.954 T0.8433,-0.8716 5.1257,-0.9833 9.3905,-1.1836 12.4069,-1.19 13.7,-1.1903 A2.2403,2.2403 0 0 1 13.7,3.2903 Z" stroke-linecap="round" fill="#e599f7"/></g></g><g transform="matrix(1, 0, 0, 1, 631.1514, 239.3152) scale(1.0536960911355293, 1.0536960911355293)" opacity="1"><g transform="scale(0.9490402483341633)"><path d="M0,-1.0964 T1.2464,-1.0865 5.005,-1.0789 9.7446,-1.3113 14.8307,-1.8529 17.6895,-2.1644 A2.1756,2.1756 0 0 1 18.1305,2.1644 T15.5589,2.4062 10.2523,2.9147 5.005,3.1789 1.2464,3.1865 0,3.1964 A2.1464,2.1464 0 0 1 0,-1.0964 ZM18.0084,2.1733 T16.7975,2.1808 13.5532,2.1873 9.7738,2.1772 6.1179,2.1592 4.2081,2.1504 A2.1504,2.1504 0 0 1 4.2119,-2.1504 T5.2189,-2.1537 7.9003,-2.1606 11.4883,-2.1582 15.0296,-2.0893 17.2344,-2.0998 17.8116,-2.1733 A2.1756,2.1756 0 0 1 18.0084,2.1733 ZM4.21,-2.1504 T5.265,-2.1325 6.32,-2.1147 A2.1147,2.1147 0 0 1 6.32,2.1147 T5.265,2.1325 4.21,2.1504 A2.1504,2.1504 0 0 1 4.21,-2.1504 Z" stroke-linecap="round" fill="#e599f7"/></g></g><g transform="matrix(1, 0, 0, 1, 721.7693, 229.8319) scale(1.0536960911355293, 1.0536960911355293)" opacity="1"><g transform="scale(0.9490402483341633)"><path d="M0,2.1716 T-1.4947,2.1632 -4.8851,2.3376 -8.3248,4.0465 -10.3022,7.0051 -8.9329,10.2696 -5.164,13.267 -0.7933,15.4377 3.16,16.4722 6.4408,15.2882 8.8061,12.0796 7.0171,8.442 3.3097,5.9144 2.0249,5.029 A2.1867,2.1867 0 0 1 4.2951,1.291 T6.8317,2.6206 11.3974,5.1615 14.1207,8.7727 14.0826,13.3739 11.9033,17.5011 7.8234,20.6432 3.6725,21.8953 -0.3577,20.9528 -4.2771,19.2881 -7.8953,17.0871 -11.8712,13.6475 -14.3717,9.19 -14.5605,5.1836 -12.8091,2.5247 -9.8273,-0.0938 -5.5199,-1.841 -1.4947,-2.1632 0,-2.1716 A2.1716,2.1716 0 0 1 0,2.1716 Z" stroke-linecap="round" fill="#e599f7"/></g></g><g transform="matrix(1, 0, 0, 1, 787.0985, 239.3152) scale(1.0536960911355293, 1.0536960911355293)" opacity="1"><g transform="scale(0.9490402483341633)"><path d="M1.05,-2.2554 T2.7954,-2.2762 7.2039,-2.3295 13.009,-2.3931 17.5604,-2.4248 18.97,-2.4255 A2.4255,2.4255 0 0 1 18.97,2.4255 T17.5604,2.4248 13.009,2.3931 7.2039,2.3295 2.7954,2.2762 1.05,2.2554 A2.2554,2.2554 0 0 1 1.05,-2.2554 ZM18.97,2.4255 T18.3336,2.4207 14.9343,2.7363 9.8303,3.1274 7.0594,3.3972 6.6295,3.5962 A2.2192,2.2192 0 0 1 5.1227,-0.5788 T7.1309,-0.974 11.1818,-1.5352 15.461,-2.0586 18.3336,-2.4207 18.97,-2.4255 A2.4255,2.4255 0 0 1 18.97,2.4255 ZM7.6615,0.1906 T7.7663,0.3329 7.8712,0.4752 A2.2189,2.2189 0 0 1 4.3009,3.111 T4.1958,2.9689 4.0907,2.8268 A2.2192,2.2192 0 0 1 7.6615,0.1906 ZM6.3833,-0.4058 T6.9373,-0.3304 9.3178,-0.1779 13.4872,-0.0164 15.8301,0.068 A2.0421,2.0421 0 0 1 15.7899,4.152 T13.4284,4.19 8.9826,4.1845 6.3435,4.0665 5.7888,3.992 A2.2189,2.2189 0 0 1 6.3833,-0.4058 Z" stroke-linecap="round" fill="#e599f7"/></g></g><g transform="matrix(1, 0, 0, 1, 508.9227, 284.6241) scale(1.0536960911355293, 1.0536960911355293)" opacity="1"><g transform="scale(0.9490402483341633)"><path d="M-0.3128,-3.2275 T1.4335,-3.4721 5.8105,-3.9284 11.0878,-4.214 16.3724,-4.314 21.3955,-4.3226 25.0588,-4.2904 26.3372,-4.2757 A2.1657,2.1657 0 0 1 26.3428,0.0557 T25.0645,0.0737 21.407,0.1179 16.4119,0.149 11.2303,0.1922 6.2331,0.4222 2.0572,0.8707 0.3128,1.1275 A2.1998,2.1998 0 0 1 -0.3128,-3.2275 Z" stroke-linecap="round" fill="#f76707"/></g></g><g transform="matrix(1, 0, 0, 1, 637.4736, 271.9798) scale(1.0536960911355293, 1.0536960911355293)" opacity="1"><g transform="scale(0.9490402483341633)"><path d="M1.8118,0 T1.8171,1.4947 1.8416,4.5244 1.8959,8.5557 1.9638,13.6437 2.4017,18.4615 2.8066,20.6877 A1.7978,1.7978 0 0 1 -0.7066,21.4523 T-1.3517,18.8535 -1.9638,13.6534 -1.8959,8.5557 -1.8416,4.5244 -1.8171,1.4947 -1.8118,0 A1.8118,1.8118 0 0 1 1.8118,0 Z" stroke-linecap="round" fill="#f76707"/></g></g><g transform="matrix(1, 0, 0, 1, 642.7421, 284.6241) scale(1.0536960911355293, 1.0536960911355293)" opacity="1"><g transform="scale(0.9490402483341633)"><path d="M-1.05,1.883 T-2.7954,1.9121 -7.0086,2.2008 -10.9903,2.6145 -15.3437,2.3263 -18.1831,1.884 A1.9037,1.9037 0 0 1 -17.6369,-1.884 T-16.2542,-1.7122 -12.5647,-1.5037 -7.3993,-1.7042 -2.7954,-1.9121 -1.05,-1.883 A1.883,1.883 0 0 1 -1.05,1.883 Z" stroke-linecap="round" fill="#f76707"/></g></g><g transform="matrix(1, 0, 0, 1, 796.5817, 275.1409) scale(1.0536960911355293, 1.0536960911355293)" opacity="1"><g transform="scale(0.9490402483341633)"><path d="M2,1.4485 T1.7588,2.6959 1.3498,6.0717 0.8292,10.3585 0.209,14.8122 -0.0586,17.1073 A2.0663,2.0663 0 0 1 -4.1614,16.6127 T-3.8277,13.9202 -3.2342,9.5845 -2.7427,5.5417 -2.2555,1.8968 -2,0.6515 A2.0393,2.0393 0 0 1 2,1.4485 Z" stroke-linecap="round" fill="#f76707"/></g></g><g transform="matrix(1, 0, 0, 1, 800.7965, 281.463) scale(1.0536960911355293, 1.0536960911355293)" opacity="1"><g transform="scale(0.9490402483341633)"><path d="M0,2.9909 T-1.7454,3.044 -5.1579,3.1374 -9.5236,2.4906 -13.0219,1.2391 -13.8217,0.6745 A2.0906,2.0906 0 0 1 -11.4583,-2.7745 T-10.6431,-2.2324 -8.3265,-1.3839 -5.1579,-1.0374 -1.7454,-0.944 0,-0.8909 A1.9409,1.9409 0 0 1 0,2.9909 Z" stroke-linecap="round" fill="#f76707"/></g></g><g transform="matrix(1, 0, 0, 1, 620.6145, 344.6848) scale(1.0536960911355293, 1.0536960911355293)" opacity="1"><g transform="scale(0.9490402483341633)"><path d="M0,-3.065 T2.242,-3.1064 6.1646,-3.1581 10.4586,-3.1482 14.441,-3.1147 15.81,-3.1013 A2.0513,2.0513 0 0 1 15.81,1.0013 T14.441,1.0147 10.4586,1.0482 6.1646,1.0581 2.242,1.0064 0,0.965 A2.015,2.015 0 0 1 0,-3.065 Z" stroke-linecap="round" fill="#9398b0"/></g></g><g transform="matrix(1, 0, 0, 1, 715.4471, 336.2552) scale(1.0536960911355293, 1.0536960911355293)" opacity="1"><g transform="scale(0.9490402483341633)"><path d="M0,2.974 T-1.4927,2.9638 -5.5653,3.5368 -9.5703,4.9308 -12.0841,7.6324 -12.1843,10.7148 -9.7005,12.9186 -6.2214,14.4535 -2.1956,15.208 1.6256,14.9342 4.4291,13.0971 4.7795,10.4384 2.0316,7.7241 -1.0758,5.6639 -2.1091,4.9908 A2.115,2.115 0 0 1 0.0091,1.3292 T1.1077,1.8894 4.2592,3.657 7.7678,6.7183 9.5585,10.9048 8.3963,15.4716 4.7672,18.6204 1.0354,19.7122 -3.051,19.4833 -7.9398,18.2447 -11.8875,16.2762 -15.1301,13.4824 -16.6821,9.8194 -15.6483,6.152 -13.0619,3.003 -8.865,0.6001 -4.6797,-0.5848 -1.4967,-0.8638 0,-0.874 A1.924,1.924 0 0 1 0,2.974 Z" stroke-linecap="round" fill="#9398b0"/></g></g><g transform="matrix(1, 0, 0, 1, 797.6354, 232.993) scale(1.0536960911355293, 1.0536960911355293)" opacity="1"><g transform="scale(0.9490402483341633)"><path d="M1.691,0 T1.6894,1.2486 1.4309,4.0468 0.7043,7.7114 0.016,11.7544 -0.5869,14.5426 -0.971,15.403 A1.7373,1.7373 0 0 1 -4.0338,13.7621 T-3.7339,12.4383 -2.9391,9.0823 -2.0659,4.7692 -1.6894,1.2441 -1.691,0 A1.691,1.691 0 0 1 1.691,0 ZM-2.0737,16.2661 T-2.2292,16.3057 -2.3847,16.3453 A1.7373,1.7373 0 0 1 -3.2422,12.9782 T-3.0866,12.9386 -2.9311,12.899 A1.7373,1.7373 0 0 1 -2.0737,16.2661 ZM-4.5258,14.9553 T-4.598,14.4045 -4.3646,12.1743 -3.5784,7.9275 -2.592,2.8297 -2.2078,-0.9847 -2.3293,-2.2685 A1.7284,1.7284 0 0 1 1.1183,-2.5194 T1.2104,-0.8686 0.7888,3.2514 0.0891,7.4114 -0.6907,11.3297 -1.1928,13.9627 -1.1011,14.3682 A1.7373,1.7373 0 0 1 -4.5258,14.9553 ZM0.5459,-1.105 T0.2086,-0.8118 -0.5884,1.0482 -1.1656,4.4474 -1.3025,8.0702 -1.3091,11.7456 -1.5754,15.5433 -2.136,18.4609 -2.4174,19.4654 A1.8598,1.8598 0 0 1 -6.0026,18.4746 T-5.515,16.803 -5.0011,13.3882 -4.9306,9.9231 -4.7874,6.1034 -4.3197,1.8863 -3.2283,-1.6153 -2.1312,-3.3404 -1.757,-3.6829 A1.7284,1.7284 0 0 1 0.5459,-1.105 Z" stroke-linecap="round" fill="#e599f7"/></g></g><g transform="matrix(1, 0, 0, 1, 789.2059, 335.2015) scale(1.0536960911355293, 1.0536960911355293)" opacity="1"><g transform="scale(0.9490402483341633)"><path d="M2.1363,1.05 T2.1505,2.547 2.1881,5.584 1.958,8.6353 1.522,12.9325 1.2467,17.3946 1.154,19.071 A2.2063,2.2063 0 0 1 -3.254,18.869 T-3.193,17.1912 -3.0766,13.9565 -2.6163,9.7545 -2.1881,5.5767 -2.1505,2.547 -2.1363,1.05 A2.1363,2.1363 0 0 1 2.1363,1.05 Z" stroke-linecap="round" fill="#9398b0"/></g></g><g transform="matrix(1, 0, 0, 1, 793.4206, 342.5774) scale(1.0536960911355293, 1.0536960911355293)" opacity="1"><g transform="scale(0.9490402483341633)"><path d="M0.6465,1.9365 T-0.8462,2.4441 -5.0054,3.4182 -10.2192,4.0162 -15.3205,4.1839 -17.8744,4.2201 A2.1104,2.1104 0 0 1 -17.9456,-0.0001 T-15.4172,-0.0497 -10.5255,-0.1908 -5.9009,-0.619 -2.1431,-1.4461 -0.6465,-1.9365 A2.0416,2.0416 0 0 1 0.6465,1.9365 Z" stroke-linecap="round" fill="#9398b0"/></g></g><g transform="matrix(1, 0, 0, 1, 553.1779, 415.2825) scale(1.0536960911355293, 1.0536960911355293)" opacity="1"><g transform="scale(0.9490402483341633)"><path d="M1.9667,0 T1.9598,1.9937 1.9634,5.5403 1.726,8.5898 1.3306,12.2814 1.1598,16.7467 0.5344,20.9266 -0.0678,22.8363 A2.1609,2.1609 0 0 1 -4.1522,21.4237 T-3.6238,19.1988 -2.9459,14.4229 -2.3851,9.4762 -1.9634,5.5339 -1.9598,1.9937 -1.9667,0 A1.9667,1.9667 0 0 1 1.9667,0 ZM-4.041,21.1599 T-3.4967,20.1121 -2.9524,19.0643 A2.1289,2.1289 0 0 1 0.8524,20.9757 T0.3367,22.0379 -0.179,23.1001 A2.1609,2.1609 0 0 1 -4.041,21.1599 Z" stroke-linecap="round" fill="#9398b0"/></g></g><g transform="matrix(1, 0, 0, 1, 564.7686, 416.3361) scale(1.0536960911355293, 1.0536960911355293)" opacity="1"><g transform="scale(0.9490402483341633)"><path d="M1.3386,2.7216 T0.0808,3.7012 -2.8571,6.251 -5.3148,9.1872 -4.6731,12.5029 -2.0079,15.7182 -0.0902,17.8702 0.5817,18.7563 A2.0638,2.0638 0 0 1 -2.6817,21.2837 T-3.3716,20.4115 -5.4059,18.1259 -7.8101,15.4216 -9.4277,11.9095 -9.1877,7.7302 -7.1184,4.7461 -4.8277,2.5658 -2.5735,0.3949 -1.3386,-0.6216 A2.1415,2.1415 0 0 1 1.3386,2.7216 Z" stroke-linecap="round" fill="#9398b0"/></g></g><g transform="matrix(1, 0, 0, 1, 573.1982, 418.4435) scale(1.0536960911355293, 1.0536960911355293)" opacity="1"><g transform="scale(0.9490402483341633)"><path d="M1.9787,0 T1.9583,1.4947 1.9469,4.5244 1.9878,8.8063 1.7655,13.221 1.2414,16.5663 0.9716,18.2437 A2.0489,2.0489 0 0 1 -3.0716,17.5763 T-2.5456,14.5603 -1.9878,8.8019 -1.9469,4.5244 -1.9583,1.4947 -1.9787,0 A1.9787,1.9787 0 0 1 1.9787,0 Z" stroke-linecap="round" fill="#9398b0"/></g></g><g transform="matrix(1, 0, 0, 1, 574.2519, 412.1214) scale(1.0536960911355293, 1.0536960911355293)" opacity="1"><g transform="scale(0.9490402483341633)"><path d="M0,-3.1182 T1.2464,-3.1091 4.4555,-2.7928 8.2372,-1.5427 11.4647,0.9474 13.3345,4.493 12.4917,8.1876 9.0416,10.8795 5.8417,12.1795 4.7878,12.4838 A2.0278,2.0278 0 0 1 3.6322,8.5962 T5.3756,8.0985 8.4757,6.4024 8.27,3.6412 4.6001,1.5391 1.2464,1.0091 0,1.0182 A2.0682,2.0682 0 0 1 0,-3.1182 Z" stroke-linecap="round" fill="#9398b0"/></g></g><g transform="matrix(1, 0, 0, 1, 612.1849, 404.7455) scale(1.0536960911355293, 1.0536960911355293)" opacity="1"><g transform="scale(0.9490402483341633)"><path d="M1.7202,-1.0315 T2.4562,0.2229 4.015,3.0872 6.0564,5.7129 8.8319,8.2234 11.7001,10.7744 14.7102,12.9229 18.0258,15.0771 21.2349,17.1885 24.2533,19.7496 26.7185,22.4256 29.4322,25.9525 31.1069,28.3151 A1.9965,1.9965 0 0 1 27.8931,30.6849 T26.998,29.5201 24.8001,26.7662 21.9322,23.366 18.7852,20.4947 15.6094,18.3709 12.3712,16.2242 9.171,13.8524 6.1233,11.1022 3.091,8.2302 0.6738,5.164 -0.9615,2.2698 -1.7202,1.0315 A2.0057,2.0057 0 0 1 1.7202,-1.0315 Z" stroke-linecap="round" fill="#9398b0"/></g></g><g transform="matrix(1, 0, 0, 1, 644.8495, 432.1416) scale(1.0536960911355293, 1.0536960911355293)" opacity="1"><g transform="scale(0.9490402483341633)"><path d="M1.8433,0.6125 T1.5977,1.3607 1.3522,2.109 A1.9482,1.9482 0 0 1 -2.3455,0.8804 T-2.0944,0.1339 -1.8433,-0.6125 A1.9424,1.9424 0 0 1 1.8433,0.6125 ZM-2.4447,1.4725 T-2.3937,0.1178 -2.227,-2.7887 -2.0661,-5.9358 -2.0208,-7.5312 A1.9847,1.9847 0 0 1 1.948,-7.4584 T1.8985,-5.7759 1.6235,-2.0696 1.4247,0.7356 1.4514,1.5168 A1.9482,1.9482 0 0 1 -2.4447,1.4725 ZM-1.409,-6.0612 T-1.7066,-6.4552 -2.0158,-6.6521 -2.0272,-6.455 A1.977,1.977 0 0 1 -2.0343,-10.409 T-1.0322,-10.2137 0.653,-9.4734 1.3361,-8.9285 A1.9847,1.9847 0 0 1 -1.409,-6.0612 ZM-0.2874,-7.4998 T-0.5507,-7.0144 -0.9614,-4.4436 -0.9234,-0.4697 -0.5262,3.6861 -0.9757,8.104 -3.5127,11.1511 -8.385,11.6599 -12.8425,10.7425 -14.3033,10.2128 A1.8821,1.8821 0 0 1 -13.0967,6.6472 T-10.6619,7.4817 -6.1449,7.9157 -4.1905,5.8518 -4.6945,1.9411 -5.011,-2.5687 -4.6334,-6.5842 -4.0449,-8.8506 -3.7742,-9.3642 A1.977,1.977 0 0 1 -0.2874,-7.4998 Z" stroke-linecap="round" fill="#9398b0"/></g></g><g transform="matrix(1, 0, 0, 1, 692.2658, 414.2288) scale(1.0536960911355293, 1.0536960911355293)" opacity="1"><g transform="scale(0.9490402483341633)"><path d="M2.5165,1.05 T2.5173,2.7954 2.526,6.4562 2.5424,10.1309 2.5638,13.5644 2.5757,17.8437 2.5635,21.5936 2.552,22.7386 A2.552,2.552 0 0 1 -2.552,22.7386 T-2.5635,21.5936 -2.5757,17.8437 -2.5638,13.5644 -2.5424,10.1309 -2.526,6.4562 -2.5173,2.7954 -2.5165,1.05 A2.5165,2.5165 0 0 1 2.5165,1.05 ZM0.989,20.3861 T1.4975,20.6461 2.006,20.9061 A2.4667,2.4667 0 0 1 0.094,25.4539 T-0.4475,25.2725 -0.989,25.0911 A2.552,2.552 0 0 1 0.989,20.3861 Z" stroke-linecap="round" fill="#9398b0"/></g></g><g transform="matrix(1, 0, 0, 1, 711.2323, 413.1751) scale(1.0536960911355293, 1.0536960911355293)" opacity="1"><g transform="scale(0.9490402483341633)"><path d="M2.0916,2.0958 T1.5715,3.0844 -0.0375,5.8082 -3.1331,9.2449 -6.4064,12.0074 -9.1665,14.5992 -9.2055,17.7208 -6.3522,20.1235 -2.8165,22.7421 -0.6797,24.5487 A2.2923,2.2923 0 0 1 -3.5403,28.1313 T-5.5019,26.6654 -9.3682,23.9135 -12.2673,21.4748 -14.0795,18.6871 -14.1427,14.602 -11.9868,10.9446 -9.1344,8.524 -6.3347,6.2923 -4.0167,3.6466 -2.5695,1.0117 -2.0916,0.0042 A2.3385,2.3385 0 0 1 2.0916,2.0958 Z" stroke-linecap="round" fill="#9398b0"/></g></g><g transform="matrix(1, 0, 0, 1, 717.5545, 416.3361) scale(1.0536960911355293, 1.0536960911355293)" opacity="1"><g transform="scale(0.9490402483341633)"><path d="M2.0991,-0.3487 T2.323,1.1501 2.7536,5.2301 2.6492,10.179 1.8769,14.7327 0.9896,18.9927 0.3317,21.7879 0.1,22.5092 A2.119,2.119 0 0 1 -3.9541,21.2742 T-3.7099,20.4334 -3.13,17.9358 -2.3172,14.1925 -1.5039,10.0644 -1.3606,5.6762 -1.8263,1.8392 -2.0991,0.3487 A2.1279,2.1279 0 0 1 2.0991,-0.3487 ZM-4.0419,22.0242 T-4.0481,21.3309 -4.0642,19.8653 -4.0741,19.093 A1.9679,1.9679 0 0 1 -0.1459,18.847 T-0.0594,19.6145 0.1075,21.0706 0.1878,21.7593 A2.119,2.119 0 0 1 -4.0419,22.0242 Z" stroke-linecap="round" fill="#9398b0"/></g></g><g transform="matrix(1, 0, 0, 1, 718.6082, 416.3361) scale(1.0536960911355293, 1.0536960911355293)" opacity="1"><g transform="scale(0.9490402483341633)"><path d="M-1.3178,-2.8057 T-0.2945,-3.5347 2.9599,-5.0132 7.1797,-5.1906 10.5715,-3.1116 12.4861,-0.1592 13.0072,3.6599 11.6753,7.8962 8.4859,10.8275 4.3451,12.3331 0.9883,12.7112 -0.0756,12.6521 A2.1134,2.1134 0 0 1 0.0756,8.4279 T1.647,8.5499 4.5928,8.0581 7.5503,5.8313 8.9513,2.6231 7.6351,-0.2093 4.8776,-1.1361 2.2859,-0.06 1.3178,0.7057 A2.1953,2.1953 0 0 1 -1.3178,-2.8057 Z" stroke-linecap="round" fill="#9398b0"/></g></g><g transform="matrix(1, 0, 0, 1, 755.4876, 437.4101) scale(1.0536960911355293, 1.0536960911355293)" opacity="1"><g transform="scale(0.9490402483341633)"><path d="M-1.5691,-1.5691 T-0.8128,-2.3042 1.0271,-4.6918 3.9529,-8.5479 7.3768,-12.8347 10.6124,-16.9725 13.8914,-20.7987 16.7719,-24.0185 19.1468,-26.6452 21.7123,-28.8292 21.5804,-28.5837 17.3393,-27.2203 13.1607,-27.0751 11.6455,-27.0422 A2.4584,2.4584 0 0 1 11.5345,-31.9578 T13.0497,-31.9932 16.9461,-32.0943 20.9223,-32.464 24.4087,-32.1588 26.4365,-29.1668 25.1264,-25.6362 22.6038,-23.3823 20.3636,-20.9786 17.5843,-18.003 14.1727,-14.1782 10.7134,-9.9346 7.4271,-5.9664 4.4248,-2.0223 2.3075,0.8096 1.5691,1.5691 A2.219,2.219 0 0 1 -1.5691,-1.5691 ZM11.5646,-31.9583 T12.5831,-31.9644 15.5042,-31.9624 20.082,-31.6768 24.9541,-30.8116 28.3852,-28.6301 29.9877,-25.5289 30.1872,-21.5457 29.2392,-16.782 27.9805,-13.1924 27.5008,-11.8907 A2.3343,2.3343 0 0 1 23.0792,-13.3893 T23.8582,-15.9195 24.9408,-20.0714 25.0335,-23.842 23.3442,-26.3006 19.6316,-26.8333 15.3274,-27.0618 12.4366,-27.0546 11.6154,-27.0417 A2.4584,2.4584 0 0 1 11.5646,-31.9583 Z" stroke-linecap="round" fill="#9398b0"/></g></g><g transform="matrix(1, 0, 0, 1, 464.9449, 175.3035) scale(0.7935461437264657, 0.7935461437264657)" opacity="1"><g transform="scale(1.2601661641300832)"><path d="M0.9982,1.3296 T0.2486,1.883 -1.2649,3.4963 -2.7244,6.2531 -4.2297,9.714 -5.4471,13.2172 -6.2583,16.5863 -6.7075,19.4381 -5.9843,21.8826 -4.0824,23.8666 -1.3308,25.0885 1.5447,25.7095 3.9715,25.4263 5.2287,23.6527 4.6922,20.9083 2.5199,19.0761 -0.1723,19.0314 -2.8693,20.6514 -4.4225,21.8985 A1.6972,1.6972 0 0 1 -6.6775,19.3615 T-5.3714,18.1087 -2.7699,16.1633 -0.0175,15.2516 2.9569,15.374 5.6604,16.4586 7.6181,18.6197 8.5947,21.7515 8.5966,24.7865 7.2722,27.5222 4.2831,29.1531 0.85,29.1393 -2.0513,28.5353 -4.7595,27.4674 -7.0986,25.73 -8.9743,23.311 -9.9948,20.1293 -9.7013,16.7132 -8.8672,13.3841 -8.0021,10.4413 -7.0229,7.9364 -6.0287,5.4705 -4.9486,3.0909 -3.4086,0.8556 -1.748,-0.7573 -0.9982,-1.3296 A1.6626,1.6626 0 0 1 0.9982,1.3296 Z" stroke-linecap="round" fill="#9398b0"/></g></g><g transform="matrix(1, 0, 0, 1, 472.8804, 226.884) scale(0.7935461437264657, 0.7935461437264657)" opacity="1"><g transform="scale(1.2601661641300832)"><path d="M1.3012,1.3012 T0.5409,2.0403 -1.8684,4.2156 -4.695,6.9835 -7.111,9.7895 -9.5277,12.6347 -11.6165,15.1222 -13.0494,16.9757 -13.5719,17.7125 A1.8391,1.8391 0 0 1 -16.5881,15.6075 T-16.0767,14.8629 -14.5051,12.8007 -12.3717,10.278 -9.9014,7.4623 -7.0999,4.328 -4.2376,1.5119 -2.0403,-0.5409 -1.3012,-1.3012 A1.8401,1.8401 0 0 1 1.3012,1.3012 Z" stroke-linecap="round" fill="#e599f7"/></g></g><g transform="matrix(1, 0, 0, 1, 458.5965, 228.471) scale(0.7935461437264657, 0.7935461437264657)" opacity="1"><g transform="scale(1.2601661641300832)"><path d="M1.4091,-1.1252 T2.1535,-0.1817 3.9928,2.288 6.2844,5.3065 8.4961,7.9687 10.4604,10.1479 12.6797,12.5031 13.9496,13.849 A1.7541,1.7541 0 0 1 11.4504,16.311 T10.109,15.0063 7.7701,12.6615 5.6217,10.2568 3.349,7.4475 1.1642,4.4983 -0.6541,2.0595 -1.4091,1.1252 A1.8032,1.8032 0 0 1 1.4091,-1.1252 Z" stroke-linecap="round" fill="#e599f7"/></g></g><g transform="matrix(1, 0, 0, 1, 432.4095, 264.1806) scale(0.7935461437264657, 0.7935461437264657)" opacity="1"><g transform="scale(1.2601661641300832)"><path d="M1.2934,0.8614 T0.5292,1.9775 -1.3667,4.5261 -3.1213,7.3911 -4.4011,10.0263 -5.5039,13.061 -6.1116,16.6532 -6.2806,20.1223 -6.2601,23.8506 -5.9307,27.0995 -5.2282,30.2683 -4.4249,33.6319 -3.3905,35.5917 -2.759,36.1271 A1.6859,1.6859 0 0 1 -5.181,38.4729 T-5.6572,38.0199 -6.9478,35.9636 -8.1453,32.9706 -8.8116,30.1985 -9.3694,27.362 -9.6195,24.5168 -9.5685,21.9229 -9.4965,19.4849 -9.3263,16.9102 -8.8239,14.1767 -8.0898,11.2973 -6.9501,8.2194 -5.4917,5.3465 -3.7902,2.7377 -2.0286,0.274 -1.2934,-0.8614 A1.554,1.554 0 0 1 1.2934,0.8614 Z" stroke-linecap="round" fill="#f76707"/></g></g><g transform="matrix(1, 0, 0, 1, 445.1063, 281.6386) scale(0.7935461437264657, 0.7935461437264657)" opacity="1"><g transform="scale(1.2601661641300832)"><path d="M1.2664,1.2664 T0.3493,2.2265 -1.3561,4.1936 -2.9866,6.1794 -4.6518,8.0521 -7.1437,10.5565 -9.757,13.0209 -10.7013,13.8747 A1.6783,1.6783 0 0 1 -13.0987,11.5253 T-11.5278,9.697 -8.3462,6.2153 -5.9103,3.6738 -4.1365,1.6774 -2.2272,-0.3487 -1.2664,-1.2664 A1.791,1.791 0 0 1 1.2664,1.2664 Z" stroke-linecap="round" fill="#f76707"/></g></g><g transform="matrix(1, 0, 0, 1, 434.7902, 284.8128) scale(0.7935461437264657, 0.7935461437264657)" opacity="1"><g transform="scale(1.2601661641300832)"><path d="M1.4586,-0.7316 T1.8422,0.0143 2.9743,2.0274 4.5733,4.776 6.4981,7.6045 8.4684,10.3622 9.3643,11.7728 A1.6995,1.6995 0 0 1 6.5157,13.6272 T6.0604,12.9537 4.85,11.3031 3.2159,9.1176 1.6086,6.5354 0.0793,3.7001 -1.0902,1.4851 -1.4586,0.7316 A1.6318,1.6318 0 0 1 1.4586,-0.7316 Z" stroke-linecap="round" fill="#f76707"/></g></g><g transform="matrix(1, 0, 0, 1, 441.9321, 266.5613) scale(0.7935461437264657, 0.7935461437264657)" opacity="1"><g transform="scale(1.2601661641300832)"><path d="M-0.6384,-1.9112 T0.496,-2.262 3.1556,-2.9383 6.1663,-2.9733 8.2527,-1.5218 8.6167,1.1653 7.263,3.9525 5.2407,6.3007 4.3351,7.3879 A1.8761,1.8761 0 0 1 1.3341,5.1354 T2.371,3.8723 4.3758,1.5793 4.1082,0.829 1.7555,1.5099 0.6384,1.9112 A2.015,2.015 0 0 1 -0.6384,-1.9112 ZM3.7151,4.605 T4.1695,4.8419 6.5202,5.3799 9.212,5.9499 10.0077,6.2188 A1.789,1.789 0 0 1 9.0323,9.6612 T7.6943,9.3427 4.8945,8.8687 2.6934,8.3158 1.9542,7.9183 A1.8761,1.8761 0 0 1 3.7151,4.605 Z" stroke-linecap="round" fill="#f76707"/></g></g><g transform="matrix(1, 0, 0, 1, 451.4546, 288.7806) scale(0.7935461437264657, 0.7935461437264657)" opacity="1"><g transform="scale(1.2601661641300832)"><path d="M0.2652,-1.3327 T1.2133,-1.1884 3.7115,-0.6503 7.0427,-0.0606 8.8236,0.1352 A1.4578,1.4578 0 0 1 8.6364,3.0448 T7.9059,3.0232 5.8654,2.8812 3.0748,2.2761 0.6646,1.562 -0.2652,1.3327 A1.3588,1.3588 0 0 1 0.2652,-1.3327 Z" stroke-linecap="round" fill="#f76707"/></g></g><g transform="matrix(1, 0, 0, 1, 470.4997, 278.4645) scale(0.7935461437264657, 0.7935461437264657)" opacity="1"><g transform="scale(1.2601661641300832)"><path d="M1.4619,0 T1.4611,1.3126 1.2746,4.777 0.9705,8.365 0.5335,11.3214 0.2761,14.0465 0.4756,16.2288 0.6141,17.2062 A1.4268,1.4268 0 0 1 -2.1941,17.7138 T-2.4066,16.7499 -2.7527,14.0783 -2.5436,10.9559 -2.0186,7.9443 -1.6483,4.4863 -1.4611,1.3126 -1.4619,0 A1.4619,1.4619 0 0 1 1.4619,0 Z" stroke-linecap="round" fill="#f76707"/></g></g><g transform="matrix(1, 0, 0, 1, 476.8481, 266.5613) scale(0.7935461437264657, 0.7935461437264657)" opacity="1"><g transform="scale(1.2601661641300832)"><path d="M1.3081,-0.327 T1.8632,1.9266 2.7269,5.9791 3.3694,9.0165 4.0126,12.3474 4.6963,16.1071 5.1913,19.4663 5.1449,22.9449 4.5646,26.2962 3.5226,29.5996 2.1278,32.7087 0.4117,35.2047 -1.0754,36.6531 -1.6123,36.9757 A1.4803,1.4803 0 0 1 -3.1477,34.4443 T-2.2056,33.5535 -0.5558,31.4309 0.7106,28.7591 1.7158,25.7071 2.317,22.6887 2.3895,19.7373 1.9502,16.4588 1.3503,12.8328 0.7549,9.5829 0.1178,6.5256 -0.7374,2.5764 -1.3081,0.327 A1.3483,1.3483 0 0 1 1.3081,-0.327 Z" stroke-linecap="round" fill="#f76707"/></g></g><g transform="matrix(1, 0, 0, 1, 481.6094, 259.4193) scale(0.7935461437264657, 0.7935461437264657)" opacity="1"><g transform="scale(1.2601661641300832)"><path d="M-0.2975,-1.7928 T0.885,-1.9732 3.3668,-1.79 4.6659,-1.4265 A1.8002,1.8002 0 0 1 3.4608,1.9663 T2.948,1.6862 1.3664,1.5995 0.2975,1.7928 A1.8173,1.8173 0 0 1 -0.2975,-1.7928 ZM5.7698,0.8431 T5.4688,1.6631 4.3711,3.5288 3.5285,4.9778 3.4825,5.3811 A1.8027,1.8027 0 0 1 0.1196,4.0813 T1.0934,2.3962 2.212,0.2038 2.3568,-0.3033 A1.8002,1.8002 0 0 1 5.7698,0.8431 ZM2.3809,3.0243 T3.1306,3.2646 5.1879,3.6279 6.4957,3.7511 A1.8048,1.8048 0 0 1 6.2043,7.3489 T4.704,7.2447 2.2124,6.7893 1.2212,6.4381 A1.8027,1.8027 0 0 1 2.3809,3.0243 Z" stroke-linecap="round" fill="#f76707"/></g></g><g transform="matrix(1, 0, 0, 1, 522.0802, 276.0838) scale(0.7935461437264657, 0.7935461437264657)" opacity="1"><g transform="scale(1.2601661641300832)"><path d="M2.0538,0.3409 T1.865,1.466 1.5477,4.7959 1.3906,8.8675 1.1424,11.9485 0.6991,14.3174 0.4754,15.4719 A2.1022,2.1022 0 0 1 -3.6554,14.6881 T-3.2666,12.6719 -2.8228,8.7356 -2.7069,5.6012 -2.5348,3.1494 -2.2387,0.7855 -2.0538,-0.3409 A2.0819,2.0819 0 0 1 2.0538,0.3409 Z" stroke-linecap="round" fill="#f76707"/></g></g><g transform="matrix(1, 0, 0, 1, 862.5115, 120.5488) scale(0.7935461437264657, 0.7935461437264657)" opacity="1"><g transform="scale(1.2601661641300832)"><path d="M1.6081,-0.6441 T1.9694,0.3012 2.6749,2.861 3.115,6.0052 3.2443,9.0096 3.1033,12.8519 2.8039,17.2713 2.6453,20.7532 2.3945,23.2461 2.1773,24.3089 A1.7953,1.7953 0 0 1 -1.3268,23.5256 T-1.129,22.0505 -0.8392,18.8407 -0.6314,15.8789 -0.3247,12.5901 -0.1469,9.0881 -0.2323,6.2977 -0.5656,3.7284 -1.2173,1.5766 -1.6081,0.6441 A1.7323,1.7323 0 0 1 1.6081,-0.6441 ZM-1.2003,24.6792 T-1.2925,24.4607 -1.3848,24.2422 A1.7768,1.7768 0 0 1 1.833,22.734 T1.9419,22.9446 2.0508,23.1553 A1.7953,1.7953 0 0 1 -1.2003,24.6792 ZM-1.5278,23.1917 T-1.2671,22.0685 -0.8774,19.9379 -0.7485,18.9305 A1.5432,1.5432 0 0 1 2.3285,19.1695 T2.3002,20.1848 2.124,22.4924 1.976,23.7846 A1.7768,1.7768 0 0 1 -1.5278,23.1917 Z" stroke-linecap="round" fill="#9398b0"/></g></g><g transform="matrix(1, 0, 0, 1, 862.5115, 122.1359) scale(0.7935461437264657, 0.7935461437264657)" opacity="1"><g transform="scale(1.2601661641300832)"><path d="M1.097,1.3739 T0.1632,2.1299 -2.1306,4.1176 -4.5029,6.1344 -6.5753,7.7373 -7.6353,8.555 A1.7891,1.7891 0 0 1 -9.8247,5.725 T-7.8787,4.219 -4.4588,1.413 -2.041,-0.6305 -1.097,-1.3739 A1.7581,1.7581 0 0 1 1.097,1.3739 Z" stroke-linecap="round" fill="#9398b0"/></g></g><g transform="matrix(1, 0, 0, 1, 724.4345, 126.8971) scale(0.7935461437264657, 0.7935461437264657)" opacity="1"><g transform="scale(1.2601661641300832)"><path d="M-1.2712,1.015 T-2.0183,0.0741 -4.2907,-0.9114 -6.889,0.7114 -8.5004,3.7207 -9.3998,6.663 -9.6633,9.9714 -8.5646,12.9329 -5.6651,14.938 -1.5342,15.6899 2.4465,14.9043 5.5654,12.8693 7.6627,10.0411 8.4863,7.1009 7.7929,4.5863 5.8537,2.9206 3.3334,2.2051 0.9207,1.8852 -0.1208,1.7682 A1.7723,1.7723 0 0 1 0.1208,-1.7682 T2.2069,-1.7136 5.9437,-1.2564 9.4132,0.4234 11.9524,3.2226 12.7154,6.5584 12.1284,10.2388 10.7257,13.3007 8.9343,15.5062 5.8438,17.5973 2.3744,19.1358 -0.6452,19.6419 -3.7046,19.4053 -6.8511,18.2948 -9.8054,16.3322 -11.991,13.5969 -13.0879,10.3335 -12.8698,7.3087 -12.0705,4.123 -10.7654,0.7462 -8.6898,-2.2652 -5.6549,-4.4353 -2.0246,-4.0165 0.5189,-1.9519 1.2712,-1.015 A1.6267,1.6267 0 0 1 -1.2712,1.015 Z" stroke-linecap="round" fill="#9398b0"/></g></g><g transform="matrix(1, 0, 0, 1, 854.5761, 280.8451) scale(0.7935461437264657, 0.7935461437264657)" opacity="1"><g transform="scale(1.2601661641300832)"><path d="M-1.6569,0.4129 T-1.8445,-0.3366 -2.032,-1.0861 A1.7091,1.7091 0 0 1 1.2847,-1.9127 T1.4708,-1.1628 1.6569,-0.4129 A1.7076,1.7076 0 0 1 -1.6569,0.4129 ZM-1.0605,0.0656 T-1.4724,-0.1331 -3.0263,0.2639 -5.1605,1.6449 -7.064,3.5554 -8.787,5.8275 -9.4331,8.4129 -7.9871,11.1694 -5.0829,13.2617 -1.7646,14.2657 1.9507,14.5615 5.4672,14.2053 8.7356,12.8469 11.4771,10.9384 12.9941,8.5517 13.2825,5.8603 11.998,3.892 9.807,2.7084 7.0067,1.9889 5.3728,1.7616 A1.7705,1.7705 0 0 1 5.7272,-1.7616 T7.7227,-1.6239 11.066,-1.029 13.8425,0.3024 16.3643,2.7708 17.5351,6.2219 17.0593,9.7253 15.3471,12.6874 12.3655,15.2346 9.3609,17.0367 6.024,18.0755 1.7073,18.4166 -1.791,18.1253 -4.9819,17.2126 -7.8912,15.8881 -10.3389,13.8978 -12.3999,11.1031 -13.0591,8.2211 -12.3144,5.3263 -10.6288,2.6713 -8.2935,-0.0037 -5.6059,-2.1414 -2.5326,-3.1831 -0.224,-3.2822 0.3132,-3.0644 A1.7091,1.7091 0 0 1 -1.0605,0.0656 Z" stroke-linecap="round" fill="#f76707"/></g></g><g transform="matrix(1, 0, 0, 1, 907.7437, 234.8194) scale(0.7935461437264657, 0.7935461437264657)" opacity="1"><g transform="scale(1.2601661641300832)"><path d="M1.9578,-0.3896 T2.1437,0.5498 2.5062,3.524 2.7404,7.5522 2.8141,11.1548 2.8224,14.314 2.8145,15.8642 A2.0245,2.0245 0 0 1 -1.2345,15.8758 T-1.2514,14.332 -1.2751,11.1951 -1.3081,7.6823 -1.4582,4.0144 -1.77,1.328 -1.9578,0.3896 A1.9962,1.9962 0 0 1 1.9578,-0.3896 Z" stroke-linecap="round" fill="#e599f7"/></g></g><g transform="matrix(1, 0, 0, 1, 913.2985, 241.1678) scale(0.7935461437264657, 0.7935461437264657)" opacity="1"><g transform="scale(1.2601661641300832)"><path d="M-0.79,1.7245 T-2.1049,1.739 -5.1394,1.774 -8.9844,1.7805 -11.11,1.7665 A1.7665,1.7665 0 0 1 -11.11,-1.7665 T-8.9844,-1.7805 -5.1394,-1.774 -2.1049,-1.739 -0.79,-1.7245 A1.7245,1.7245 0 0 1 -0.79,1.7245 Z" stroke-linecap="round" fill="#e599f7"/></g></g><g transform="matrix(1, 0, 0, 1, 909.3308, 279.258) scale(0.7935461437264657, 0.7935461437264657)" opacity="1"><g transform="scale(1.2601661641300832)"><path d="M1.5455,0 T1.5538,0.9389 1.5858,3.4854 1.3471,6.8795 0.8089,10.403 0.1256,13.7546 -0.6,16.2417 -0.9178,17.1142 A1.5311,1.5311 0 0 1 -3.8422,16.2058 T-3.6097,15.3067 -3.0627,12.8333 -2.487,9.7663 -1.9177,6.6756 -1.5858,3.4777 -1.5538,0.9389 -1.5455,0 A1.5455,1.5455 0 0 1 1.5455,0 Z" stroke-linecap="round" fill="#f76707"/></g></g><g transform="matrix(1, 0, 0, 1, 912.5049, 287.987) scale(0.7935461437264657, 0.7935461437264657)" opacity="1"><g transform="scale(1.2601661641300832)"><path d="M-0.5924,1.5881 T-2.0891,1.8163 -4.9849,2.1635 -7.6338,2.1066 -10.0934,1.7456 -11.3032,1.5605 A1.5724,1.5724 0 0 1 -10.9168,-1.5605 T-8.7685,-1.3509 -5.3108,-1.2192 -2.4944,-1.4426 -0.9876,-1.5881 A1.6003,1.6003 0 0 1 -0.5924,1.5881 Z" stroke-linecap="round" fill="#f76707"/></g></g><g transform="matrix(1, 0, 0, 1, 912.5049, 177.6841) scale(0.7935461437264657, 0.7935461437264657)" opacity="1"><g transform="scale(1.2601661641300832)"><path d="M1.7395,-0.2887 T1.9398,0.8349 2.3239,4.1037 2.5612,8.0951 2.1842,11.904 1.7537,13.8667 A1.7937,1.7937 0 0 1 -1.7537,13.1133 T-1.4263,11.5472 -1.1289,8.2036 -1.2758,4.4852 -1.5661,1.4166 -1.7395,0.2887 A1.7633,1.7633 0 0 1 1.7395,-0.2887 Z" stroke-linecap="round" fill="#9398b0"/></g></g><g transform="matrix(1, 0, 0, 1, 915.6791, 182.4454) scale(0.7935461437264657, 0.7935461437264657)" opacity="1"><g transform="scale(1.2601661641300832)"><path d="M0,1.5933 T-1.3126,1.6327 -4.6815,1.8483 -7.9951,2.2132 -9.2524,2.4019 A1.6339,1.6339 0 0 1 -9.7876,-0.8219 T-8.5367,-1.0495 -4.9555,-1.4746 -1.3126,-1.6327 0,-1.5933 A1.5933,1.5933 0 0 1 0,1.5933 Z" stroke-linecap="round" fill="#9398b0"/></g></g><g transform="matrix(1, 0, 0, 1, 434.7902, 333.2191) scale(0.7935461437264657, 0.7935461437264657)" opacity="1"><g transform="scale(1.2601661641300832)"><path d="M-1.5715,-0.3127 T-1.3676,-1.2482 -2.4224,-1.4661 -4.1899,0.4708 -4.46,3.3875 -3.836,6.2446 -3.0303,8.9133 -2.4653,11.8595 -2.3012,14.5648 -2.8952,17.094 -4.7228,19.5249 -7.4025,21.047 -10.5747,21.2781 -13.8105,20.7969 -16.3089,19.5045 -17.9631,17.7774 -18.6481,16.983 A1.628,1.628 0 0 1 -16.2719,14.757 T-15.2068,15.933 -12.3418,17.5412 -9.0895,17.8165 -6.7687,16.7509 -5.7972,14.6387 -5.8475,11.9083 -6.3304,9.0952 -7.0292,6.5714 -7.6236,3.7606 -7.6067,0.7363 -6.5636,-1.8958 -4.6382,-4.474 -2.2649,-6.2753 0.3721,-5.7305 1.8356,-3.1766 1.7413,-0.6296 1.5715,0.3127 A1.6023,1.6023 0 0 1 -1.5715,-0.3127 Z" stroke-linecap="round" fill="#9398b0"/></g></g><g transform="matrix(1, 0, 0, 1, 431.616, 342.7417) scale(0.7935461437264657, 0.7935461437264657)" opacity="1"><g transform="scale(1.2601661641300832)"><path d="M0.2633,1.5862 T-0.8617,1.7779 -3.2401,2.1822 -4.4936,2.3948 A1.6268,1.6268 0 0 1 -5.0264,-0.8148 T-3.7713,-1.0185 -1.3898,-1.4042 -0.2633,-1.5862 A1.6079,1.6079 0 0 1 0.2633,1.5862 Z" stroke-linecap="round" fill="#9398b0"/></g></g><g transform="matrix(1, 0, 0, 1, 441.1385, 322.1095) scale(0.7935461437264657, 0.7935461437264657)" opacity="1"><g transform="scale(1.2601661641300832)"><path d="M1.1846,-0.1686 T1.3931,1.1409 1.7698,4.3139 1.9784,7.8268 2.0188,9.4764 A1.2296,1.2296 0 0 1 -0.4388,9.5636 T-0.514,7.9577 -0.7217,4.5758 -1.0194,1.4842 -1.1846,0.1686 A1.1965,1.1965 0 0 1 1.1846,-0.1686 Z" stroke-linecap="round" fill="#9398b0"/></g></g><g transform="matrix(1, 0, 0, 1, 450.6611, 324.4901) scale(0.7935461437264657, 0.7935461437264657)" opacity="1"><g transform="scale(1.2601661641300832)"><path d="M1.697,0.2817 T1.4989,1.4084 0.6169,4.2928 -0.4998,7.5873 -1.6135,11.1765 -2.5394,15.319 -2.8587,19.5264 -2.7998,23.2649 -1.9125,26.2067 -1.1585,27.5271 A1.6061,1.6061 0 0 1 -3.6015,29.6129 T-4.7177,28.2368 -6.1609,25.3086 -6.4432,21.6404 -6.3415,18.3141 -6.1724,15.8744 -5.8308,13.3822 -4.8784,10.051 -3.6703,6.352 -2.6164,3.3447 -1.8726,0.8431 -1.697,-0.2817 A1.7203,1.7203 0 0 1 1.697,0.2817 Z" stroke-linecap="round" fill="#9398b0"/></g></g><g transform="matrix(1, 0, 0, 1, 468.1191, 335.5998) scale(0.7935461437264657, 0.7935461437264657)" opacity="1"><g transform="scale(1.2601661641300832)"><path d="M1.4613,0.9732 T0.7045,2.0943 -1.1775,4.6722 -3.3928,7.3323 -5.3543,9.616 -7.3376,11.9681 -9.1272,13.9632 -9.8049,14.6867 A1.7707,1.7707 0 0 1 -12.4151,12.2933 T-11.753,11.5556 -10.1454,9.7165 -8.135,7.341 -6.0412,4.9812 -3.9794,2.5916 -2.2039,0.1572 -1.4613,-0.9732 A1.7557,1.7557 0 0 1 1.4613,0.9732 Z" stroke-linecap="round" fill="#9398b0"/></g></g><g transform="matrix(1, 0, 0, 1, 459.3901, 335.5998) scale(0.7935461437264657, 0.7935461437264657)" opacity="1"><g transform="scale(1.2601661641300832)"><path d="M1.6842,-0.2397 T1.8704,1.0729 2.3815,3.9891 3.3454,7.1035 4.8445,10.0483 6.6548,12.8294 8.7936,15.6981 9.9823,17.2194 A1.6219,1.6219 0 0 1 7.4777,19.2806 T6.0843,17.6646 3.7704,14.79 1.8177,11.7717 0.0924,8.2773 -0.955,4.7036 -1.4967,1.5522 -1.6842,0.2397 A1.7012,1.7012 0 0 1 1.6842,-0.2397 Z" stroke-linecap="round" fill="#9398b0"/></g></g><g transform="matrix(1, 0, 0, 1, 472.8804, 323.6966) scale(0.7935461437264657, 0.7935461437264657)" opacity="1"><g transform="scale(1.2601661641300832)"><path d="M1.6299,-0.6507 T2.372,1.2305 3.5375,4.5547 4.7343,7.95 6.0548,11.8922 6.8787,16.0206 7.0331,20.6217 6.276,25.2864 4.8207,29.1779 2.9875,31.7183 1.104,33.2073 0.2332,33.8452 A1.6585,1.6585 0 0 1 -1.8132,31.2348 T-0.986,30.5415 0.7002,28.7663 2.1985,25.9959 3.2465,22.4501 3.5464,18.5512 3.0023,14.6251 2.0012,11.0052 1.0269,8.1184 0.2515,5.6831 -0.8726,2.5251 -1.6299,0.6507 A1.755,1.755 0 0 1 1.6299,-0.6507 Z" stroke-linecap="round" fill="#9398b0"/></g></g><g transform="matrix(1, 0, 0, 1, 513.3512, 345.1223) scale(0.7935461437264657, 0.7935461437264657)" opacity="1"><g transform="scale(1.2601661641300832)"><path d="M0.2393,-1.4416 T1.3715,-1.2953 4.3851,-1.0507 8.2889,-0.8779 11.5156,-0.7503 12.7198,-0.6973 A1.4874,1.4874 0 0 1 12.6802,2.2773 T10.3813,2.3225 6.2549,2.2704 3.2132,2.0347 0.88,1.6689 -0.2393,1.4416 A1.4613,1.4613 0 0 1 0.2393,-1.4416 Z" stroke-linecap="round" fill="#9398b0"/></g></g><g transform="matrix(1, 0, 0, 1, 574.4543, 274.4967) scale(0.7935461437264657, 0.7935461437264657)" opacity="1"><g transform="scale(1.2601661641300832)"><path d="M-1.1321,1.1321 T-1.6586,0.5824 -3.5845,-0.0364 -6.2607,0.9294 -8.6574,3.3102 -10.3185,5.7261 -11.2681,7.9494 -11.2919,10.2438 -9.3508,12.4231 -6.189,14.1703 -2.9947,15.4068 -0.1097,16.056 2.6251,16.033 5.259,15.0825 7.197,13.0996 7.679,10.2558 6.2162,7.1988 3.9037,4.6412 1.8878,2.6724 -0.4,0.9723 -1.7825,0.0737 A1.9373,1.9373 0 0 1 0.2025,-3.2537 T0.999,-2.817 3.3534,-1.4158 5.9191,0.5426 8.0738,2.7546 10.2551,5.3636 11.8264,8.2275 12.1691,11.3515 11.425,14.2226 9.9111,16.4716 7.7477,18.31 4.6367,19.6371 1.1176,20.0392 -2.3992,19.4997 -6.1754,18.2173 -9.5265,16.4922 -12.1044,14.7267 -13.8927,12.7424 -14.7673,10.4156 -14.5091,7.9322 -13.4649,5.2825 -12.1762,2.8261 -10.5393,0.6753 -8.5636,-1.2233 -6.4564,-2.5831 -3.8717,-3.1798 -1.2197,-2.7487 0.5329,-1.7081 1.1321,-1.1321 A1.601,1.601 0 0 1 -1.1321,1.1321 Z" stroke-linecap="round" fill="#f76707"/></g></g><g transform="matrix(1, 0, 0, 1, 905.363, 330.045) scale(0.7935461437264657, 0.7935461437264657)" opacity="1"><g transform="scale(1.2601661641300832)"><path d="M1.7023,0 T1.7053,0.9389 1.7294,3.58 1.7873,7.0902 1.8577,10.834 1.8225,14.6415 1.6788,17.7816 1.6039,19.05 A1.6039,1.6039 0 0 1 -1.6039,19.05 T-1.6788,17.7816 -1.8225,14.6415 -1.8577,10.834 -1.7873,7.0902 -1.7294,3.58 -1.7053,0.9389 -1.7023,0 A1.7023,1.7023 0 0 1 1.7023,0 Z" stroke-linecap="round" fill="#9398b0"/></g></g><g transform="matrix(1, 0, 0, 1, 912.5049, 339.5675) scale(0.7935461437264657, 0.7935461437264657)" opacity="1"><g transform="scale(1.2601661641300832)"><path d="M0.2881,1.7356 T-0.8352,1.9383 -3.9036,2.3331 -7.4359,2.8704 -11.2011,3.3185 -13.3793,3.4213 A1.8347,1.8347 0 0 1 -13.6007,-0.2413 T-11.5733,-0.3928 -7.8123,-0.8603 -4.3117,-1.285 -1.4163,-1.5646 -0.2881,-1.7356 A1.7593,1.7593 0 0 1 0.2881,1.7356 Z" stroke-linecap="round" fill="#9398b0"/></g></g><g transform="matrix(1, 0, 0, 1, 514.9383, 404.6383) scale(0.7935461437264657, 0.7935461437264657)" opacity="1"><g transform="scale(1.2601661641300832)"><path d="M1.8,0.0691 T2.1685,1.011 3.2869,3.6112 4.8212,6.867 6.6421,9.9756 8.5608,12.7933 10.5547,15.4286 12.5103,17.9227 14.1633,20.2706 15.8443,22.9401 17.4408,26.0656 18.3368,27.9243 18.5084,28.1445 A1.9687,1.9687 0 0 1 15.2008,30.2806 T14.378,28.7399 13.0323,26.0826 11.722,23.7901 10.1568,21.4828 8.6535,19.3961 7.0279,17.2833 5.2623,14.8273 3.276,11.8485 1.3606,8.5289 -0.2333,5.1361 -1.4165,2.4468 -1.8,1.5109 A1.939,1.939 0 0 1 1.8,0.0691 ZM17.0615,27.2548 T17.3913,27.2912 17.7211,27.3275 A1.9656,1.9656 0 0 1 17.3081,31.2371 T16.9779,31.2037 16.6478,31.1704 A1.9687,1.9687 0 0 1 17.0615,27.2548 ZM15.6261,28.7371 T15.8744,27.9335 16.2123,25.3922 16.1663,22.4254 15.6893,20.6185 15.3479,20.0408 A1.8782,1.8782 0 0 1 18.6431,18.2375 T19.3923,20.2431 20.1305,23.6776 20.0441,26.431 19.686,28.7915 19.4031,29.8276 A1.9656,1.9656 0 0 1 15.6261,28.7371 ZM18.8398,19.4943 T18.7282,20.0299 19.033,21.9759 19.9518,24.6943 20.8884,27.2087 21.164,29.699 20.1281,32.2519 17.7294,34.1604 14.9897,35.2374 11.6942,35.7759 8.2045,34.9399 6.7919,34.0031 A1.8597,1.8597 0 0 1 9.0881,31.0769 T10.237,31.5494 12.608,31.9174 14.9907,31.4131 16.9327,30.055 17.187,27.6591 16.0055,24.5191 15.1204,21.523 15.0205,19.5066 15.1512,18.784 A1.8782,1.8782 0 0 1 18.8398,19.4943 Z" stroke-linecap="round" fill="#9398b0"/></g></g><g transform="matrix(1, 0, 0, 1, 829.9761, 411.7802) scale(0.7935461437264657, 0.7935461437264657)" opacity="1"><g transform="scale(1.2601661641300832)"><path d="M2.0472,-0.2914 T2.2283,1.022 2.5744,5.2048 2.773,9.3493 2.8348,12.4312 2.8762,15.7489 2.9047,19.7362 2.9199,22.2127 A2.1299,2.1299 0 0 1 -1.3399,22.2273 T-1.3416,19.7541 -1.3453,15.7764 -1.3478,12.493 -1.3695,9.4576 -1.5263,5.5579 -1.8546,1.6031 -2.0472,0.2914 A2.0678,2.0678 0 0 1 2.0472,-0.2914 Z" stroke-linecap="round" fill="#9398b0"/></g></g><g transform="matrix(1, 0, 0, 1, 849.0212, 413.3673) scale(0.7935461437264657, 0.7935461437264657)" opacity="1"><g transform="scale(1.2601661641300832)"><path d="M1.3175,1.3175 T0.5542,2.0544 -1.2457,3.6207 -3.9955,5.7293 -7.1547,8.0602 -9.7376,10.2607 -11.7464,12.4881 -13.4,14.7667 -14.1816,15.9667 A1.9071,1.9071 0 0 1 -17.5584,14.1933 T-16.9337,13.077 -15.4375,11.0135 -13.3757,8.9051 -10.8509,6.4698 -7.8516,3.9629 -4.4882,1.4688 -2.0536,-0.555 -1.3175,-1.3175 A1.8632,1.8632 0 0 1 1.3175,1.3175 ZM-17.57,14.2159 T-17.2402,13.5893 -16.9103,12.9627 A1.8867,1.8867 0 0 1 -13.5464,14.6726 T-13.8582,15.3084 -14.17,15.9441 A1.9071,1.9071 0 0 1 -17.57,14.2159 ZM-15.0702,11.9376 T-14.0182,12.0661 -11.6805,12.8984 -9.1145,14.7037 -6.3854,17.445 -4.1566,20.0951 -3.3767,21.1053 A1.7765,1.7765 0 0 1 -6.1433,23.3347 T-7.6246,21.5717 -10.232,18.7506 -12.795,16.7036 -14.8093,15.7063 -15.3865,15.6978 A1.8867,1.8867 0 0 1 -15.0702,11.9376 Z" stroke-linecap="round" fill="#9398b0"/></g></g><g transform="matrix(1, 0, 0, 1, 857.7503, 412.5738) scale(0.7935461437264657, 0.7935461437264657)" opacity="1"><g transform="scale(1.2601661641300832)"><path d="M1.7462,-0.4027 T2.3276,2.0338 3.2266,6.1727 3.7192,9.1726 4.0307,12.4562 3.7277,15.5673 3.2882,16.6923 A1.9056,1.9056 0 0 1 -0.1343,15.0154 T0.1325,14.6987 0.2842,12.6588 0.0315,9.7314 -0.3818,6.9098 -1.2019,2.8476 -1.7462,0.4027 A1.792,1.792 0 0 1 1.7462,-0.4027 ZM1.6161,17.7591 T1.2221,17.7441 0.8282,17.7292 A1.8596,1.8596 0 0 1 0.7518,14.0108 T1.1448,13.9797 1.5378,13.9486 A1.9056,1.9056 0 0 1 1.6161,17.7591 Z" stroke-linecap="round" fill="#9398b0"/></g></g><g transform="matrix(1, 0, 0, 1, 860.1309, 405.4318) scale(0.7935461437264657, 0.7935461437264657)" opacity="1"><g transform="scale(1.2601661641300832)"><path d="M0,-1.924 T1.1277,-1.9097 3.5598,-1.6909 6.7229,-1.1307 10.3664,0.2231 13.6593,3.1681 15.378,7.0737 14.2568,10.7051 11.1657,13.2406 8.2072,14.5641 5.6901,14.6806 3.4729,13.9648 2.5737,13.593 A1.7949,1.7949 0 0 1 3.7663,10.207 T5.2245,10.6149 7.9304,10.5095 10.4507,9.1797 11.4942,6.9203 10.0142,4.4396 7.3461,2.9193 4.0883,2.1661 1.1238,1.9097 0,1.924 A1.924,1.924 0 0 1 0,-1.924 Z" stroke-linecap="round" fill="#9398b0"/></g></g><g transform="matrix(1, 0, 0, 1, 892.6663, 437.9672) scale(0.7935461437264657, 0.7935461437264657)" opacity="1"><g transform="scale(1.2601661641300832)"><path d="M-1.489,-1.118 T-0.9174,-1.8608 0.5881,-3.9618 2.2632,-6.5095 4.3969,-9.5103 7.2722,-13.2139 10.2837,-16.9384 12.6272,-19.7228 14.7659,-22.1079 17.0248,-24.6792 18.7943,-26.9924 20.7659,-29.4264 22.8316,-31.7595 24.1854,-33.2845 24.6107,-33.736 A1.9994,1.9994 0 0 1 27.5139,-30.9862 T26.7094,-30.126 24.8567,-27.9805 22.8925,-25.6121 20.9967,-23.2487 18.7849,-20.6989 16.1986,-17.9196 14.0033,-15.3454 11.6713,-12.6183 9.3931,-9.9308 7.4402,-7.4899 5.3569,-4.605 3.5183,-1.7657 2.0432,0.3613 1.489,1.118 A1.862,1.862 0 0 1 -1.489,-1.118 ZM24.4196,-31.2213 T24.2605,-31.4503 24.1014,-31.6794 A1.9997,1.9997 0 0 1 27.3872,-33.9594 T27.5461,-33.7302 27.705,-33.5009 A1.9994,1.9994 0 0 1 24.4196,-31.2213 ZM25.9979,-30.8359 T25.1705,-30.7342 23.1236,-30.3203 20.0261,-29.6456 15.9729,-29.3575 13.7979,-29.4321 A1.9484,1.9484 0 0 1 14.2772,-33.2993 T15.932,-33.2453 19.4759,-33.5753 22.6767,-34.281 24.7396,-34.7028 25.4907,-34.8029 A1.9997,1.9997 0 0 1 25.9979,-30.8359 ZM12.4022,-32.425 T12.4602,-32.5131 12.5181,-32.6012 A1.947,1.947 0 0 1 15.7863,-30.4842 T15.7296,-30.3953 15.6728,-30.3064 A1.9484,1.9484 0 0 1 12.4022,-32.425 ZM13.9995,-33.4837 T14.5928,-33.5285 16.6667,-33.6105 19.7996,-33.9383 23.2527,-34.3104 26.8199,-34.1163 30.2134,-32.679 32.5112,-30.1812 33.0984,-27.0934 32.7725,-23.6049 31.8631,-20.1159 31.1963,-18.3638 A1.9603,1.9603 0 0 1 27.5237,-19.7362 T27.8427,-20.6136 28.5948,-22.7469 29.2435,-25.9257 28.7915,-28.9484 26.6404,-30.3042 23.5095,-30.4754 20.0507,-30.0826 16.8651,-29.7367 14.8978,-29.6503 14.3049,-29.6018 A1.947,1.947 0 0 1 13.9995,-33.4837 Z" stroke-linecap="round" fill="#9398b0"/></g></g><g transform="matrix(1, 0, 0, 1, 430.8224, 417.335) scale(0.7935461437264657, 0.7935461437264657)" opacity="1"><g transform="scale(1.2601661641300832)"><path d="M-1.7567,0.2185 T-1.9463,-1.281 -2.5583,-4.3586 -3.2591,-4.3243 -3.9242,-1.4153 -3.8216,1.1494 -2.5112,3.7086 -1.2532,6.5034 -0.4387,9.3929 -0.1482,12.3872 -0.7749,15.227 -2.3954,17.3623 -4.904,18.7181 -7.8656,19.2802 -11.2079,19.2263 -14.5541,18.7052 -17.491,17.4582 -19.7075,15.1601 -20.3018,11.9234 -20.0787,10.0947 A1.8425,1.8425 0 0 1 -16.4213,10.5453 T-16.2022,12.0565 -14.917,14.1911 -12.4329,15.1139 -9.5693,15.4081 -6.9288,15.3141 -4.791,14.1918 -3.8437,11.7181 -4.2518,8.6509 -5.3773,5.8598 -6.835,2.9545 -7.5406,-0.4797 -7.1361,-3.5651 -6.0181,-6.3241 -3.5806,-8.4011 -0.7096,-7.957 0.9325,-5.0145 1.5726,-1.7226 1.7567,-0.2185 A1.7702,1.7702 0 0 1 -1.7567,0.2185 Z" stroke-linecap="round" fill="#9398b0"/></g></g><g transform="matrix(1, 0, 0, 1, 430.0289, 426.8576) scale(0.7935461437264657, 0.7935461437264657)" opacity="1"><g transform="scale(1.2601661641300832)"><path d="M-0.2735,1.6482 T-1.4026,1.4824 -4.9071,1.1012 -7.2827,0.8858 A1.6819,1.6819 0 0 1 -6.9973,-2.4658 T-5.7085,-2.3637 -3.1956,-2.1627 -0.8489,-1.856 0.2735,-1.6482 A1.6707,1.6707 0 0 1 -0.2735,1.6482 Z" stroke-linecap="round" fill="#9398b0"/></g></g><g transform="matrix(1, 0, 0, 1, 453.0417, 407.0189) scale(0.7935461437264657, 0.7935461437264657)" opacity="1"><g transform="scale(1.2601661641300832)"><path d="M1.7333,1.0391 T1.1656,1.9761 -0.1435,3.8779 -2.0402,6.6191 -4.1167,10.2045 -5.6237,14.0528 -6.3736,18.1171 -6.4184,21.9252 -5.775,24.899 -4.1584,27.5786 -2.4612,29.8074 -1.8562,30.5474 A1.7743,1.7743 0 0 1 -4.4838,32.9326 T-5.162,32.259 -6.948,30.3684 -8.8529,27.684 -10.1793,24.1718 -10.6064,19.9714 -10.3661,16.5535 -9.9455,13.9733 -9.2023,11.4949 -8.2155,9.1997 -6.4643,6.1265 -4.0443,2.5152 -2.2913,-0.0983 -1.7333,-1.0391 A2.0209,2.0209 0 0 1 1.7333,1.0391 Z" stroke-linecap="round" fill="#9398b0"/></g></g><g transform="matrix(1, 0, 0, 1, 469.7062, 421.3028) scale(0.7935461437264657, 0.7935461437264657)" opacity="1"><g transform="scale(1.2601661641300832)"><path d="M1.1037,2.1134 T-0.0083,3.0691 -2.1364,4.7654 -4.7791,6.9502 -7.7406,9.6306 -9.8784,11.6157 -10.6815,12.3648 A1.7491,1.7491 0 0 1 -13.1185,9.8552 T-11.6415,8.3583 -8.6477,5.4777 -5.2567,2.7024 -2.2432,0.3887 -1.1037,-0.5334 A1.7232,1.7232 0 0 1 1.1037,2.1134 Z" stroke-linecap="round" fill="#9398b0"/></g></g><g transform="matrix(1, 0, 0, 1, 459.3901, 422.0963) scale(0.7935461437264657, 0.7935461437264657)" opacity="1"><g transform="scale(1.2601661641300832)"><path d="M1.2362,-0.4423 T1.9895,0.3077 4.057,2.6444 6.6032,5.812 9.1389,8.6952 11.7282,11.0642 13.0138,12.1308 A1.7572,1.7572 0 0 1 10.7862,14.8492 T9.2198,13.5788 6.3671,11.0144 3.8861,8.1425 1.4736,5.0475 -0.4901,2.7764 -1.2362,2.0223 A1.7454,1.7454 0 0 1 1.2362,-0.4423 Z" stroke-linecap="round" fill="#9398b0"/></g></g><g transform="matrix(1, 0, 0, 1, 474.4675, 409.3996) scale(0.7935461437264657, 0.7935461437264657)" opacity="1"><g transform="scale(1.2601661641300832)"><path d="M1.5808,-1.0528 T2.3121,0.0851 4.1291,2.8163 5.723,5.4938 6.8218,8.3703 8.0213,12.4309 8.7524,15.9161 8.9823,19.2475 8.9231,22.8357 8.4702,25.6611 7.6146,28.4184 6.3572,31.1217 4.8806,33.5392 2.2208,36.076 -0.6227,37.8858 -1.5953,38.279 A1.9443,1.9443 0 0 1 -3.1647,34.721 T-1.7223,34.1298 0.8554,31.9864 3.0775,28.2692 4.6167,23.78 5.0193,19.4619 4.7642,15.4615 3.8932,11.5276 2.6638,7.9813 1.0278,4.8211 -0.8127,2.1663 -1.5808,1.0528 A1.8993,1.8993 0 0 1 1.5808,-1.0528 Z" stroke-linecap="round" fill="#9398b0"/></g></g></svg>