<svg xmlns="http://www.w3.org/2000/svg" direction="ltr" width="701.2741685167101" height="552.2658479648162" viewBox="906.8489127457116 10995.973192328223 701.2741685167101 552.2658479648162" stroke-linecap="round" stroke-linejoin="round" style="background-color: transparent;"><defs/><g transform="matrix(1, 0, 0, 1, 1161.6466, 11027.9732) scale(0.9109313594180959, 0.9109313594180959)" opacity="1"><g transform="scale(1.0977775544348383)"><path d="M1.4596,0 T1.4556,1.0761 1.4471,3.5656 1.4333,6.5092 1.4142,9.4286 1.4103,12.1864 1.4213,14.9247 1.4321,17.6602 1.4395,20.391 1.4457,23.1247 1.4551,25.8595 1.4666,28.9195 1.4773,32.0886 1.4851,34.9469 1.493,37.6976 1.5038,40.4306 1.517,43.1646 1.8469,46.0775 2.2828,48.954 2.4347,51.916 2.4847,55.169 2.4952,58.3382 2.8931,61.4566 3.3581,64.8815 3.4405,68.5583 3.4626,71.7138 3.7824,74.4993 4.2277,77.513 4.3786,80.4688 4.4026,83.2391 4.4097,85.9794 4.4137,88.7109 4.4169,91.4434 4.4195,94.1781 4.4216,96.9107 4.4217,99.641 4.4193,102.3754 4.1215,105.4674 3.6817,108.6838 3.5223,111.5199 3.5032,114.2246 3.4976,116.9516 3.2371,120.1524 2.8042,123.8942 2.2641,127.3004 1.8067,130.4153 1.6829,133.8067 1.3065,137.1655 0.8573,140.6709 0.7386,143.9495 0.7206,146.6663 0.719,149.8741 0.7212,153.0469 1.1168,156.1508 1.5683,159.3382 1.6436,162.6077 1.6689,166.2923 1.6774,169.4679 1.6818,172.1786 1.6858,175.381 1.6891,178.5732 1.6938,181.2861 1.7007,184.2278 1.4603,187.4597 1.0748,190.6566 0.8884,193.6224 0.8303,196.7627 0.4785,200.0563 0.0573,203.2606 -0.0501,206.3327 -0.0808,209.7075 -0.0886,213.3901 -0.0903,216.6123 -0.0903,219.6976 -0.09,223.0737 -0.0895,226.6428 -0.0916,229.9528 -0.4294,232.9678 -0.8476,235.882 -0.9574,238.6581 -0.9936,241.6125 -1.0067,244.733 -1.0125,247.9046 -1.0159,250.9758 -1.0193,253.9224 -1.3632,256.9776 -1.8004,260.5251 -1.9094,263.8779 -1.9271,266.7089 -1.9325,269.584 -1.9332,272.3553 -1.9332,275.5752 -1.9331,279.2492 -1.9304,282.4238 -1.9266,285.1303 -1.923,288.3357 -1.6041,291.8422 -1.1785,294.967 -1.0407,298.0452 -1.0021,301.2033 -0.9889,304.3777 -0.9828,307.7792 -0.9767,311.0277 -0.9691,314.2328 -0.9593,317.7556 -0.9483,321.3643 -0.9396,324.9979 -0.9334,328.3111 -0.9301,331.3178 -0.9303,334.4556 -0.9319,337.8463 -0.9348,341.0897 -0.9401,344.2933 -0.9456,347.4871 -0.9516,350.6758 -0.9568,354.1928 -0.9592,357.8022 -0.9611,361.2198 -0.9625,364.4717 -0.9636,367.5655 -0.9644,370.5112 -0.968,373.6321 -0.9738,376.8029 -0.9755,379.9852 -0.9741,383.1695 -0.973,386.1427 -0.9733,388.9438 -0.9764,391.9088 -0.979,395.2515 -0.9781,398.8126 -0.9761,402.102 -0.9719,405.1044 -0.9651,408.5127 -0.6446,411.9793 -0.2244,414.9777 -0.0936,417.7816 -0.0572,420.5302 -0.0433,423.7664 -0.0354,427.4624 -0.0309,430.6205 -0.0291,433.3071 -0.0275,436.1421 -0.0234,439.2311 -0.0197,442.2854 -0.3563,445.374 -0.7869,448.7786 -0.8922,451.8729 -1.1743,454.8669 -1.5688,457.8718 -1.7396,460.5968 -1.8007,463.8457 -1.8162,467.3288 -1.8135,470.9486 -1.8088,474.3085 -1.8081,477.0231 -1.8114,479.7488 -1.8398,482.48 -1.8875,484.6885 -1.909,485.53 A1.731,1.731 0 0 1 -5.371,485.53 T-5.4138,483.9333 -5.4634,480.9721 -5.471,478.2443 -5.4714,475.5224 -5.4679,472.2423 -5.4603,468.607 -5.447,465.0247 -5.4115,461.7284 -5.2833,458.7304 -4.8583,455.1706 -4.5205,451.8089 -4.4527,449.0413 -4.2008,446.297 -3.8118,443.5522 -3.6189,440.6614 -3.6154,437.7422 -3.6126,434.7393 -3.6094,431.8147 -3.6058,428.6444 -3.6023,424.9758 -3.6031,421.7731 -3.6322,418.484 -3.7924,414.8514 -4.2121,411.7774 -4.4949,408.5127 -4.4881,405.1044 -4.4839,402.102 -4.4819,398.8126 -4.481,395.2515 -4.4836,391.9088 -4.4867,388.9438 -4.487,386.1427 -4.4859,383.1695 -4.4845,379.9852 -4.4862,376.8029 -4.492,373.6321 -4.4956,370.5112 -4.4964,367.5655 -4.4975,364.4717 -4.4989,361.2198 -4.5008,357.8022 -4.5032,354.1928 -4.5084,350.6758 -4.5144,347.4871 -4.5199,344.2933 -4.5252,341.0897 -4.5281,337.8463 -4.5297,334.4556 -4.5299,331.3178 -4.5266,328.3111 -4.5204,324.9979 -4.5117,321.3643 -4.5007,317.7556 -4.491,314.2329 -4.4838,311.0282 -4.4791,307.781 -4.478,304.3854 -4.4828,301.228 -4.509,298.1535 -4.6947,294.8815 -5.109,291.6667 -5.357,288.3357 -5.3534,285.1303 -5.3496,282.4238 -5.3468,279.2492 -5.3465,275.5749 -5.3458,272.3541 -5.3438,269.5797 -5.3398,266.6951 -5.3233,263.83 -5.2602,261.0301 -4.8244,257.5035 -4.4406,253.9057 -4.4436,250.9753 -4.4456,247.9024 -4.4464,244.7263 -4.4415,241.5833 -4.4129,238.5507 -4.2894,235.5453 -3.8679,232.6848 -3.5484,229.9233 -3.5504,226.6427 -3.5499,223.0735 -3.5491,219.697 -3.5478,216.6102 -3.5444,213.3847 -3.534,209.6842 -3.4992,206.2507 -3.3707,202.9503 -2.9391,198.9077 -2.5813,195.0173 -2.4535,191.7317 -2.0288,188.6005 -1.7024,185.6229 -1.6975,182.7897 -1.6918,180.0664 -1.688,177.3735 -1.6845,174.1794 -1.6805,170.9618 -1.6768,168.2746 -1.6753,165.1232 -1.7014,161.475 -1.8674,157.8702 -2.276,154.6487 -2.5403,151.8687 -2.5316,148.6637 -2.5208,145.4194 -2.4892,142.6439 -2.3641,139.7595 -1.9369,136.8914 -1.5863,133.7046 -1.4589,130.094 -0.9828,126.1163 -0.4054,122.4603 -0.0274,119.6449 0.1433,116.9501 0.143,114.2144 0.1601,111.4496 0.3069,108.5173 0.7402,105.3622 1.0407,102.3754 1.0383,99.641 1.0384,96.9107 1.0405,94.1781 1.0431,91.4435 1.0461,88.7111 1.0494,85.9809 1.0512,83.2493 1.039,80.5377 0.8692,77.5682 0.4407,74.4952 0.1738,71.7176 0.1772,68.5815 0.1292,65.0433 -0.2965,61.6582 -0.6769,58.3998 -0.6764,55.1853 -0.6951,52.0006 -0.8746,48.8402 -1.2784,45.8938 -1.517,43.1646 -1.5038,40.4306 -1.493,37.6976 -1.4851,34.9469 -1.4773,32.0886 -1.4666,28.9195 -1.4551,25.8595 -1.4457,23.1247 -1.4395,20.391 -1.4321,17.6602 -1.4213,14.9247 -1.4103,12.1864 -1.4142,9.4286 -1.4333,6.5092 -1.4471,3.5656 -1.4556,1.0761 -1.4596,0 A1.4596,1.4596 0 0 1 1.4596,0 Z" stroke-linecap="round" fill="#9398b0"/></g></g><g transform="matrix(1, 0, 0, 1, 943.0231, 11345.8882) scale(0.9109313594180959, 0.9109313594180959)" opacity="1"><g transform="scale(1.0977775544348383)"><path d="M0,-1.4931 T1.0761,-1.4742 3.5656,-1.4373 6.4826,-1.4016 9.3127,-1.7674 12.4759,-2.2245 15.7138,-2.6998 18.5201,-3.1765 21.2949,-3.2717 24.0345,-3.3064 26.7701,-3.3303 29.501,-3.3499 32.2335,-3.3678 34.9681,-3.3801 37.9159,-3.3894 41.6124,-3.4016 45.1453,-3.4139 47.9416,-3.4248 51.2158,-3.2004 54.7583,-2.8265 58.1777,-2.6451 61.7596,-2.5983 65.8878,-2.357 69.7981,-1.9678 73.6669,-1.7705 77.8973,-1.721 81.4963,-1.7116 85.1279,-1.7128 88.7652,-1.7162 92.4081,-1.7194 96.2678,-1.7223 99.8577,-1.7245 103.7026,-1.7262 107.7294,-1.7277 111.2652,-1.7303 114.4495,-1.7351 117.6343,-1.7403 120.7082,-1.7444 123.8659,-1.7477 127.158,-1.7506 130.3764,-1.7528 133.6761,-1.7546 137.1081,-1.7561 140.8074,-1.7574 144.3657,-1.7584 147.6413,-1.757 150.8611,-2.0806 154.0663,-2.5024 157.4668,-2.6249 161.1632,-2.6583 164.8218,-2.6707 168.5714,-2.6793 172.2454,-2.6848 175.6809,-2.6884 178.9378,-2.6911 181.9312,-2.693 185.0642,-2.6962 188.1237,-2.7014 191.164,-2.7069 194.6387,-2.712 198.02,-2.716 201.1497,-2.7188 204.8719,-2.7206 208.7678,-2.3865 212.0536,-1.968 215.419,-1.8557 219.339,-1.8234 223.2985,-1.8192 226.5519,-1.819 229.3749,-1.5392 232.6624,-1.1187 235.8687,-0.9563 239.1283,-0.9315 242.6651,-0.932 245.9008,-0.9396 249.1036,-0.9462 252.4082,-0.9509 255.6264,-0.9546 258.8243,-0.9576 262.2317,-0.9602 265.5918,-0.9622 269.2298,-0.73 272.9763,-0.3428 276.5777,-0.142 280.3226,-0.0823 283.9914,-0.0656 287.6428,-0.0644 291.2896,-0.0689 295.1491,-0.0734 299.1823,-0.0772 303.0461,-0.08 306.6373,-0.082 310.0521,-0.0835 313.6332,-0.0848 317.3622,-0.0858 321.1416,-0.0866 324.9361,-0.0872 328.6226,-0.0877 332.1634,-0.0899 335.7794,-0.095 339.745,-0.1006 343.4754,-0.1077 347.0035,0.1441 350.4768,0.5273 353.885,0.6985 357.3901,0.7542 361.1068,0.7642 365.3137,0.7595 369.3303,0.7539 373.0773,0.7495 377.0793,0.7457 381.1497,0.7427 384.6964,0.7406 388.4275,0.739 392.9689,0.7351 397.2933,0.7288 401.238,0.723 405.5101,0.7182 410.2017,0.7143 414.9081,0.7155 419.5052,0.7204 424.0679,0.7243 428.5327,0.4026 433.0664,-0.0155 437.2735,-0.1352 441.4032,-0.167 445.8325,-0.1754 449.8052,-0.1774 453.9832,-0.1777 458.3202,-0.1775 461.9409,-0.1803 465.7944,-0.1862 469.9331,-0.1907 474.0644,-0.5186 478.4957,-0.944 482.5624,-1.0737 486.5905,-1.3183 490.1738,-1.6637 492.9355,-1.8632 496.2792,-1.9858 500.5528,-2.0589 504.9245,-2.0876 509.2114,-2.1043 513.6922,-2.1188 518.2242,-2.1327 522.9881,-2.1473 527.8762,-1.935 532.4108,-1.5634 536.5766,-1.3733 540.0255,-1.0988 542.8554,-0.7661 546.8291,-0.5798 550.8514,-0.2448 554.706,0.1663 559.2112,0.3788 562.9436,0.6595 566.6189,1.0569 571.198,1.2659 575.0592,1.3178 577.9182,1.5562 581.7088,1.9432 586.5686,2.1395 591.5318,2.1845 596.5297,2.1795 600.5086,2.1617 604.2441,2.1402 609.2702,2.1099 614.0694,2.078 618.1547,2.0522 621.9072,2.3815 625.0605,2.8065 627.9993,3.344 631.3858,3.9689 633.159,4.1414 A2.2394,2.2394 0 0 1 633.041,8.6186 T631.0007,8.6475 627.4962,8.2915 624.4785,7.807 621.4871,7.383 618.1396,7.0477 614.0693,7.0219 609.2697,6.9895 604.2425,6.9578 600.5051,6.9339 596.5184,6.9071 591.4933,6.8672 587.7569,6.8239 583.769,6.6954 578.7405,6.2508 575.0091,5.9032 571.046,5.8365 566.1546,5.5834 562.5633,5.1699 559.0726,4.8973 555.3861,4.7681 551.5823,4.34 546.606,3.8837 541.2228,3.431 536.4422,3.0231 531.9668,2.7707 527.5295,2.3655 522.9881,2.1474 518.2245,2.133 513.6931,2.1198 509.2149,2.108 504.9352,2.1008 500.6038,2.1067 496.4159,2.1579 491.996,2.3514 486.964,2.7328 482.6306,2.9834 478.7322,3.087 474.26,3.5014 469.9408,3.8307 465.7944,3.8262 461.9409,3.8204 458.3203,3.8177 453.9837,3.8182 449.8066,3.8193 445.8376,3.8223 441.4297,3.8319 437.3481,3.8649 433.3055,3.9785 428.7275,4.4002 424.0757,4.7357 419.5052,4.7396 414.9081,4.7445 410.2017,4.7457 406.4507,4.7427 403.1901,4.7394 399.1719,4.7341 394.9536,4.7268 390.8362,4.7219 386.7154,4.7203 382.907,4.7184 379.0402,4.7158 374.9917,4.7123 371.0774,4.7076 367.2377,4.7013 363.2915,4.691 359.3781,4.6737 355.5287,4.6345 351.5196,4.5028 347.3657,4.0759 343.4754,3.7477 339.745,3.7406 335.7794,3.735 332.1634,3.7299 328.6226,3.7277 324.9361,3.7272 321.1416,3.7266 317.3622,3.7258 313.6332,3.7248 310.0521,3.7235 306.6373,3.722 303.0461,3.72 299.1822,3.7171 295.1488,3.7131 291.2887,3.7079 287.6395,3.7007 283.9794,3.6925 280.2805,3.6751 276.4388,3.6118 272.499,3.37 268.8588,2.9805 265.5918,2.7822 262.2317,2.7802 258.8243,2.7776 255.6264,2.7746 252.4081,2.7708 249.1033,2.7659 245.1785,2.7564 241.342,2.743 237.861,2.716 234.4075,2.6441 230.9697,2.2012 227.7326,1.8143 224.5327,1.8181 221.2149,1.8161 217.9109,1.8059 214.7157,1.7704 211.7337,1.6451 208.5166,1.2237 204.8569,0.9006 201.1497,0.8988 198.02,0.896 194.6387,0.892 191.164,0.8869 188.1237,0.8815 185.0642,0.8762 181.9312,0.873 178.9378,0.8711 175.681,0.8686 172.2458,0.8653 168.5731,0.8612 164.8285,0.8576 161.1859,0.8632 157.5516,0.8946 154.3326,1.0053 151.086,1.4233 147.6674,1.757 144.3657,1.7584 140.8074,1.7574 137.1081,1.7561 133.6761,1.7546 130.3764,1.7528 127.158,1.7506 123.8659,1.7477 120.7082,1.7444 117.6343,1.7403 114.4495,1.7351 111.2652,1.7303 107.7294,1.7277 103.7026,1.7262 99.8577,1.7244 96.2677,1.7223 92.4079,1.7191 88.7643,1.7152 85.1241,1.7091 81.4849,1.6984 77.863,1.6734 73.5022,1.5993 69.3127,1.3514 65.5328,0.9543 61.7208,0.7311 58.0383,0.655 54.2597,0.3938 50.8263,-0.0092 47.9416,-0.2152 45.1453,-0.2261 41.6124,-0.2384 37.9159,-0.2506 34.9681,-0.2599 32.2335,-0.2722 29.5011,-0.29 26.7708,-0.3093 24.0393,-0.3303 21.3278,-0.3457 18.4758,-0.2781 15.6645,0.155 12.6783,0.5572 9.5446,0.9906 6.5358,1.4016 3.5656,1.4373 1.0761,1.4742 0,1.4931 A1.4931,1.4931 0 0 1 0,-1.4931 Z" stroke-linecap="round" fill="#9398b0"/></g></g><g transform="matrix(1, 0, 0, 1, 1240.8976, 11342.2445) scale(0.9109313594180959, 0.9109313594180959)" opacity="1"><g transform="scale(1.0977775544348383)"><path d="M1.7642,0 T1.7641,1.0761 1.7666,3.7808 1.7701,7.1762 1.77,10.3915 1.7693,11.84 A1.7693,1.7693 0 0 1 -1.7693,11.84 T-1.77,10.3915 -1.7701,7.1762 -1.7666,3.7808 -1.7641,1.0761 -1.7642,0 A1.7642,1.7642 0 0 1 1.7642,0 ZM-1.7693,11.84 T-1.7699,11.2688 -1.7703,9.0327 -1.7694,6.0104 -1.7584,3.2521 -1.4563,1.0553 -1.1644,0.2594 A1.7643,1.7643 0 0 1 2.0253,1.7682 T1.8867,1.8822 1.7584,3.3245 1.7694,6.0104 1.7703,9.0327 1.7699,11.2688 1.7693,11.84 A1.7693,1.7693 0 0 1 -1.7693,11.84 ZM0.0572,-0.7105 T0.1705,-0.7353 0.2839,-0.76 A1.7647,1.7647 0 0 1 1.0306,2.6894 T0.9172,2.7138 0.8037,2.7381 A1.7643,1.7643 0 0 1 0.0572,-0.7105 ZM2.4086,0.7485 T2.4926,1.545 2.5988,2.9405 2.621,3.5396 A1.714,1.714 0 0 1 -0.801,3.7404 T-0.849,3.1428 -0.9955,1.8631 -1.0941,1.1809 A1.7647,1.7647 0 0 1 2.4086,0.7485 Z" stroke-linecap="round" fill="#9398b0"/></g></g><g transform="matrix(1, 0, 0, 1, 1079.6628, 11340.4226) scale(0.9109313594180959, 0.9109313594180959)" opacity="1"><g transform="scale(1.0977775544348383)"><path d="M1.6491,0 T1.6487,1.0761 1.6476,3.8942 1.2406,7.2942 0.8342,8.9522 A1.6463,1.6463 0 0 1 -2.1487,7.5581 T-1.8979,6.5972 -1.6476,3.8942 -1.6487,1.0761 -1.6491,0 A1.6491,1.6491 0 0 1 1.6491,0 ZM-1.0085,9.8636 T-1.0682,9.8504 -1.128,9.8372 A1.646,1.646 0 0 1 -0.4256,6.621 T-0.3658,6.6339 -0.306,6.6468 A1.6463,1.6463 0 0 1 -1.0085,9.8636 ZM-2.4167,8.3714 T-2.4657,7.7869 -2.5313,5.4657 -2.5521,1.8649 -2.5564,0.0009 A1.6464,1.6464 0 0 1 0.7364,-0.0009 T0.735,1.8593 0.7511,5.379 0.8158,7.5626 0.863,8.0868 A1.646,1.646 0 0 1 -2.4167,8.3714 Z" stroke-linecap="round" fill="#9398b0"/></g></g><g transform="matrix(1, 0, 0, 1, 1000.4118, 11341.3336) scale(0.9109313594180959, 0.9109313594180959)" opacity="1"><g transform="scale(1.0977775544348383)"><path d="M1.6288,0 T1.6153,1.0761 1.5896,3.5656 1.5733,6.5092 1.5695,9.4286 1.5702,11.3289 1.5705,11.84 A1.5705,1.5705 0 0 1 -1.5705,11.84 T-1.5702,11.3289 -1.5695,9.4286 -1.5733,6.5092 -1.5896,3.5656 -1.6153,1.0761 -1.6288,0 A1.6288,1.6288 0 0 1 1.6288,0 ZM-1.5705,11.84 T-1.5719,11.2882 -1.5799,9.1698 -1.5958,6.1452 -1.6166,2.9196 -1.6363,-0.789 -1.6447,-2.73 A1.6447,1.6447 0 0 1 1.6447,-2.73 T1.6363,-0.789 1.6166,2.9196 1.5958,6.1452 1.5799,9.1698 1.5719,11.2882 1.5705,11.84 A1.5705,1.5705 0 0 1 -1.5705,11.84 ZM1.6447,-2.73 T1.6465,-2.1673 1.3903,0.4644 0.9513,3.8922 0.6706,6.3167 0.571,7.3824 A1.4838,1.4838 0 0 1 -2.391,7.1976 T-2.3574,6.1278 -2.1585,3.3224 -1.8208,-0.009 -1.6465,-2.1673 -1.6447,-2.73 A1.6447,1.6447 0 0 1 1.6447,-2.73 Z" stroke-linecap="round" fill="#9398b0"/></g></g><g transform="matrix(1, 0, 0, 1, 1321.0596, 11342.2445) scale(0.9109313594180959, 0.9109313594180959)" opacity="1"><g transform="scale(1.0977775544348383)"><path d="M1.6302,0 T1.6372,1.0761 1.6529,3.996 1.6671,7.5647 1.6785,10.9733 1.4557,13.8531 1.2273,15.049 A1.6938,1.6938 0 0 1 -2.0881,14.3534 T-1.8862,13.4979 -1.6785,10.9659 -1.6671,7.5647 -1.6529,3.996 -1.6372,1.0761 -1.6302,0 A1.6302,1.6302 0 0 1 1.6302,0 ZM-2.0559,15.1773 T-2.2478,14.4914 -2.4935,11.8082 -2.5366,7.8098 -2.5234,4.4819 -2.5219,1.5779 -2.5228,0.0006 A1.6128,1.6128 0 0 1 0.7028,-0.0006 T0.702,1.0453 0.709,3.9458 0.7415,7.7854 0.8262,11.5013 1.0405,13.7286 1.1951,14.225 A1.6938,1.6938 0 0 1 -2.0559,15.1773 ZM0.7028,0 T0.7041,0.5549 0.7088,2.4563 0.713,5.2694 1.027,8.2469 1.4219,11.6574 1.5038,13.5569 A1.5073,1.5073 0 0 1 -1.5038,13.7631 T-1.6746,11.9759 -2.1897,8.4783 -2.533,5.2854 -2.5287,2.4563 -2.5241,0.5549 -2.5228,0 A1.6128,1.6128 0 0 1 0.7028,0 Z" stroke-linecap="round" fill="#9398b0"/></g></g><g transform="matrix(1, 0, 0, 1, 938.8489, 11516.239) scale(1.0349607102834357, 1.0349607102834357)" opacity="1"><g transform="scale(0.9662202536424196)"><path d="M-1.2393,-0.4962 T-0.738,-1.715 0.5165,-4.7096 1.5031,-8.565 2.1496,-12.3957 3.4113,-16.2725 4.7623,-19.8936 5.7761,-22.927 6.7965,-26.0157 7.8182,-29.1199 8.8813,-32.0617 10.0088,-35.0115 11.4174,-38.6609 12.9213,-42.8975 14.17,-47.0858 15.2688,-51.0246 16.3144,-54.593 17.6518,-58.0108 19.01,-61.4752 20.1965,-65.2466 21.3938,-69.161 22.4755,-72.6595 23.4247,-75.9788 24.3233,-79.0795 25.3465,-81.8612 26.4792,-84.5696 27.5885,-87.6097 28.9192,-91.4353 30.3421,-95.0674 31.5228,-98.663 32.625,-102.4208 33.6608,-106.0659 34.6542,-110.0203 35.6336,-113.878 36.3324,-117.3609 36.9587,-120.5033 37.8716,-123.7884 38.877,-127.1128 39.8881,-130.267 40.9416,-133.2882 41.9599,-136.2634 43.362,-139.713 44.8561,-143.0054 46.3519,-146.136 47.9194,-149.6393 49.4459,-153.2648 50.8657,-157.1634 51.9506,-160.5829 53.0688,-163.4196 54.1411,-166.3828 55.2227,-169.5752 56.6553,-173.0825 58.417,-176.8713 59.9636,-180.263 61.5798,-183.5157 63.5524,-186.9699 65.5769,-190.1979 67.6271,-193.3471 69.6611,-196.3552 71.6633,-199.3544 73.6801,-202.7904 75.7452,-205.995 77.8643,-208.8508 79.8102,-211.5879 81.7928,-214.1942 83.9666,-216.725 86.1011,-219.3234 88.185,-221.9238 90.2518,-224.5165 92.6164,-227.1049 95.2177,-229.4014 98.0816,-231.6655 101.4189,-234.0988 104.5567,-236.6925 107.7736,-239.3555 111.1637,-241.8165 114.3813,-244.0006 117.3539,-245.8827 120.4639,-247.4798 123.9135,-248.8806 127.9427,-250.0274 132.0847,-251.0798 135.9129,-251.7555 139.7289,-251.6337 143.7183,-250.587 147.5325,-249.5327 150.4463,-248.6159 153.1173,-247.3516 155.6758,-245.5098 158.441,-242.897 161.5751,-240.1406 164.5764,-237.5794 167.6769,-235.0021 170.6334,-232.5824 173.1961,-230.1761 175.5553,-227.8073 178.2001,-225.1886 180.7979,-222.1664 182.8219,-219.5814 185.4789,-216.8083 188.0738,-213.7683 190.0796,-211.2837 192.1337,-208.7023 194.2501,-205.9935 196.1146,-203.493 197.879,-200.7126 200.1328,-197.4391 202.4028,-194.6166 205.0252,-192.2773 208.1682,-189.1946 210.8242,-185.742 212.9701,-182.5262 215.0027,-179.5196 217.0259,-176.5387 218.8607,-173.6363 220.6782,-170.7348 222.5164,-167.8364 224.0903,-165.1966 225.8545,-162.4159 227.6952,-159.5655 229.2873,-156.9496 230.8348,-153.9469 232.7231,-150.9424 234.8687,-148.1412 237.3249,-144.7645 239.8099,-141.3785 241.946,-138.6164 244.033,-135.9499 246.0924,-133.3733 248.1008,-130.9232 250.0822,-128.5187 252.6337,-126.2359 255.5142,-124.1112 258.1071,-122.0169 260.9972,-119.5132 264.0114,-117.0488 266.9125,-114.8258 269.5994,-112.7056 272.0802,-110.7553 275.1228,-108.6952 278.6043,-106.5826 282.5103,-104.5428 286.7155,-102.4566 290.1748,-100.9369 293.0942,-99.9328 296.6447,-98.8851 300.9566,-98.1862 305.1918,-97.9853 308.8396,-97.9455 312.705,-97.9394 316.369,-97.9307 319.887,-98.3636 323.5617,-99.1966 327.2031,-100.0969 330.902,-101.2072 334.2129,-102.3474 337.224,-103.7702 340.6528,-105.7708 344.2307,-108.1586 347.3841,-110.6028 349.9967,-113.085 352.7052,-115.8662 355.2788,-118.5314 357.804,-121.5244 360.3475,-124.9119 362.2928,-127.7204 364.3492,-130.3069 366.3716,-133.3951 368.41,-136.7097 370.426,-140.0104 372.4001,-143.4486 373.387,-145.1815 A2.6552,2.6552 0 0 1 377.993,-142.5385 T376.899,-140.645 374.9925,-137.3426 373.1787,-134.3949 371.2609,-131.3613 368.8098,-127.6183 366.1881,-124.0784 363.6949,-120.8676 360.798,-117.0998 358.1782,-114.053 355.8618,-111.6331 353.5939,-109.0629 351.0641,-106.6845 348.3881,-104.4292 345.8069,-102.4373 342.4645,-100.4706 338.5732,-98.4037 335.1464,-97.0218 332.105,-95.9405 329.1666,-94.9071 325.9727,-93.968 322.6359,-93.4028 319.5196,-92.9122 316.4191,-92.51 312.6989,-92.5051 308.8052,-92.5124 305.0442,-92.5645 300.9045,-92.7585 297.3613,-93.3512 293.6921,-94.4384 289.9255,-95.6211 286.8642,-96.7601 283.2632,-98.3988 279.4325,-100.2237 276.086,-101.7829 273.1679,-103.6732 270.4449,-105.6621 267.6249,-107.6194 264.5946,-109.8449 261.3693,-112.3979 257.9012,-115.325 254.8378,-117.9929 252.1946,-120.16 249.2362,-122.3479 246.6233,-124.6805 244.4711,-127.2818 242.1038,-130.4342 239.5171,-133.6071 237.2063,-136.6074 234.9118,-139.7702 232.3427,-142.9788 230.0544,-146.0229 227.9844,-149.1812 225.9077,-152.8156 223.8402,-156.398 221.7879,-159.491 219.9479,-162.6366 217.8055,-166.3113 215.5098,-169.9152 213.4713,-173.0691 211.4604,-176.0477 209.4255,-179.0648 207.4078,-181.9275 205.6564,-184.4675 203.3364,-187.2649 200.7518,-189.8661 198.5449,-192.099 196.1208,-194.8068 193.875,-197.7777 192.1228,-200.7805 189.9719,-203.8822 187.6548,-206.745 185.5993,-209.2793 183.2766,-212.0475 181.0011,-214.6655 178.5448,-217.2813 176.0865,-220.2485 173.8813,-222.7934 171.6834,-224.966 169.1546,-227.3296 166.1672,-229.8147 163.4085,-232.1275 160.9393,-234.1444 158.3605,-236.3047 155.6716,-238.9393 153.2397,-241.3451 150.4862,-243.2809 146.5116,-244.6966 142.6121,-245.6975 138.8931,-246.4685 135.2462,-246.3201 132.0969,-245.691 128.9548,-245.2146 125.7015,-244.2674 122.1671,-242.7658 118.378,-240.62 114.9674,-238.2121 112.3513,-236.1573 109.6964,-234.2091 106.9028,-232.174 104.2654,-230.0317 101.4461,-227.8646 98.8297,-225.8235 96.2674,-223.5603 93.8407,-220.9755 91.7459,-218.3738 89.1152,-215.2398 86.229,-211.7919 83.5813,-208.4941 81.3901,-205.485 79.3796,-202.7869 77.0053,-199.2472 74.9193,-195.5174 72.7921,-192.4922 70.4128,-189.5036 68.3721,-186.4469 66.6263,-183.6168 65.0397,-180.4958 63.2763,-177.076 61.6391,-173.954 60.3011,-170.7298 59.141,-167.4599 58.043,-164.32 56.4799,-160.7151 55.0328,-157.2518 53.9536,-154.1332 52.7554,-150.8824 51.3769,-147.5484 49.7992,-144.4574 48.2906,-141.4343 46.7166,-138.2213 45.3409,-134.7616 44.0716,-131.1325 42.8183,-127.8918 41.7713,-124.7839 40.7832,-121.5349 39.9344,-118.0016 39.0196,-114.1451 37.9493,-110.0967 36.9036,-106.3213 35.849,-102.6852 34.7527,-98.9717 33.6239,-95.6222 32.3755,-92.275 31.145,-88.5037 29.9748,-84.9812 28.4609,-81.4041 26.8245,-77.4471 25.765,-73.7356 24.9027,-70.2856 23.7523,-66.4708 22.3549,-62.2198 20.8826,-58.443 19.679,-55.1998 18.6511,-51.9051 17.596,-48.4297 16.3896,-44.1588 14.832,-39.6837 13.3158,-35.7487 11.9797,-32.502 10.7436,-29.6719 9.6987,-26.5767 8.6516,-23.4832 7.6068,-20.4106 6.5656,-17.4125 5.4141,-14.0073 4.496,-10.4246 3.9804,-7.2893 2.9736,-3.8794 1.7171,-0.7304 1.2393,0.4962 A1.335,1.335 0 0 1 -1.2393,-0.4962 Z" stroke-linecap="round" fill="#f76707"/></g></g><g transform="matrix(1, 0, 0, 1, 1314.54, 11372.38) scale(1.0349607102834357, 1.0349607102834357)" opacity="1"><g transform="scale(0.9662202536424196)"><path d="M-1.5687,-1.3014 T-0.8136,-2.7603 1.1752,-6.6258 3.1757,-11.1025 4.6417,-14.8002 6.0987,-18.4643 7.7068,-21.7859 9.6729,-25.0237 11.7761,-29.4885 13.8006,-34.6185 15.3428,-38.6746 16.9201,-42.6353 19.0388,-47.364 21.4466,-52.2009 23.9103,-57.3914 26.4196,-62.7619 28.4243,-66.9311 29.9675,-69.7577 32.3495,-74.1915 34.4383,-78.7215 35.9949,-82.006 37.5074,-85.3826 39.025,-88.8766 40.5868,-92.2581 41.7978,-95.5248 43.2005,-99.3006 44.6939,-103.0765 46.2116,-106.7813 47.7177,-110.6334 49.2665,-114.4421 50.7905,-118.3544 52.321,-122.3699 53.8751,-126.2532 55.3977,-130.2012 56.9583,-134.0611 58.5167,-137.812 60.326,-142.019 61.9522,-146.2882 63.5656,-150.5582 65.1507,-154.7657 66.7509,-158.7631 68.3208,-162.5734 69.8541,-166.4767 71.7403,-170.4737 73.4024,-174.1377 75.013,-177.7852 76.5975,-181.4131 78.1359,-185.2113 79.7015,-189.1758 81.3023,-193.0389 82.8819,-196.7805 84.4303,-200.6404 85.9962,-204.637 87.5599,-208.698 89.1443,-212.6053 90.7243,-216.3741 92.3,-220.0746 93.9122,-223.5587 95.5047,-226.8557 96.774,-229.8924 97.9544,-232.947 99.0925,-236.0149 100.2138,-239.0895 101.3469,-241.9925 102.6623,-245.4278 103.6962,-249.0428 104.1619,-251.6831 104.3323,-252.7783 A2.2813,2.2813 0 0 1 108.8677,-252.2817 T108.7181,-250.0546 108.0278,-245.9768 106.7064,-241.4985 105.421,-237.2937 104.3926,-234.1332 103.3093,-230.9436 102.1325,-227.6979 100.7868,-224.3534 99.2751,-221.1157 97.7794,-217.7736 96.2491,-214.0947 94.7267,-210.3679 93.2066,-206.5505 91.6617,-202.4515 90.12,-198.3958 88.5634,-194.4079 87.0332,-190.6895 85.5155,-186.9042 83.9551,-182.8628 82.353,-178.901 80.7608,-175.2356 79.1256,-171.5419 77.4203,-167.774 75.7079,-164.1758 74.1286,-160.1742 72.5745,-156.4161 71.0292,-152.5503 69.437,-148.3354 67.8128,-144.0551 66.0776,-139.5315 64.2911,-135.4098 62.7421,-131.7128 61.1977,-127.9471 59.6196,-123.9325 58.0725,-120.138 56.5007,-116.0828 54.9293,-112.1122 53.3958,-108.3945 51.8355,-104.4631 50.3169,-100.8302 48.8403,-97.1894 47.3985,-93.399 45.9943,-89.7401 44.4516,-86.4782 42.8696,-82.9399 41.2828,-79.4795 39.741,-76.2887 38.1539,-72.865 35.7954,-68.5387 33.5711,-64.3391 31.5945,-60.2771 29.712,-56.2694 27.7095,-52.3009 25.7704,-48.4749 24.1866,-44.9651 22.1607,-40.534 20.6266,-36.7406 19.0368,-32.6388 17.4216,-28.5659 15.6538,-24.6257 13.1985,-20.2579 11.1856,-16.3008 9.5078,-11.8181 8.0148,-7.9623 6.2465,-4.0869 4.3447,-0.177 3.6287,1.3014 A2.9064,2.9064 0 0 1 -1.5687,-1.3014 Z" stroke-linecap="round" fill="#f76707"/></g></g></svg>