<svg xmlns="http://www.w3.org/2000/svg" direction="ltr" width="1879.9173136548793" height="1676.1100000000001" viewBox="-764.9957309289654 685.452524771891 1879.9173136548793 1676.1100000000001" stroke-linecap="round" stroke-linejoin="round" style="background-color: transparent;"><defs/><g transform="matrix(1, 0, 0, 1, -3.4645, 714.9025) scale(2.550805817293658, 2.550805817293658)" opacity="1"><g transform="scale(0.39203297766545603)"><path d="M0,2.55 Q0,8.364 0,10.5291 T0,15.0348 0,20.3929 0,26.7961 0,32.605 0,37.5093 0,41.9237 0,46.0716 0,50.0723 0,53.9928 0,58.4512 0,62.6208 -0.5814,66.6332 -1.4791,70.5602 -1.9674,75.0243 -2.2331,80.3621 -2.3776,85.0101 -2.4562,89.2828 -2.499,93.9327 -2.5222,98.7879 -3.1163,103.1733 -4.0209,107.3054 -4.513,111.8812 -4.7806,116.696 -4.9263,122.2223 -5.0055,128.717 -5.0486,135.7407 -5.072,143.0524 -5.0848,149.9369 -5.6731,156.0077 -6.5746,162.2172 -7.065,169.0858 -7.3317,175.1502 -7.4769,180.1935 -7.5558,185.2626 -7.5988,190.9272 -7.6221,196.3344 -7.6348,201.0223 -7.6418,206.4819 -7.6455,211.7775 -7.6476,216.4025 -7.6487,221.2441 -7.6493,226.2035 -7.6496,230.6456 -7.6498,234.8086 -7.6499,239.4012 -7.6499,244.2251 -7.65,249.1749 -7.0686,254.1932 -6.1709,259.2488 -5.6826,264.3269 -5.4169,269.4173 -5.2724,274.512 -5.1938,279.6092 -5.151,284.7076 -5.1278,289.2254 -4.5337,292.8459 -3.6291,296.5619 -3.137,300.9113 -2.8694,305.6029 -2.7237,309.8994 -2.6445,313.9809 -2.6014,318.5268 -2.578,323.3254 -2.5652,328.2637 -2.5583,333.278 -2.5545,338.3314 -2.5524,343.9874 -2.5513,349.9713 -2.5507,354.9708 -2.5504,360.0183 -2.5502,365.6735 -2.5501,371.0755 -2.5501,376.3398 -2.55,382.1106 -2.55,387.5755 -2.55,392.2949 -2.55,396.6087 -2.55,401.281 -2.55,406.7297 -2.55,412.6009 -2.55,418.1203 -2.55,423.4508 -2.55,428.6785 -2.55,433.8479 -2.55,438.9857 -2.55,444.1063 -2.55,449.8011 -2.55,455.8084 -2.55,462.5648 -2.55,468.5658 -2.55,474.156 -2.55,479.5227 -2.55,484.77 -2.55,489.9524 -2.55,494.5159 -3.1314,498.7426 -4.0291,502.2047 -4.5174,506.4137 -4.7831,512.1941 -4.9276,517.6665 -5.0062,522.9691 -5.049,528.1793 -5.0722,533.3393 -5.0849,539.6347 -5.0918,545.385 -5.0955,550.841 -5.0976,557.2998 -5.0987,563.139 -5.0993,568.6411 -5.0996,574.5412 -5.0998,580.6602 -5.0999,587.4796 -5.0999,594.6777 -5.1,600.9191 -5.1,606.6423 -5.1,612.665 -5.1,618.267 -5.6814,623.64 -6.5791,629.47 -7.0674,636.1299 -7.3331,643.2435 -7.4776,649.4412 -7.5562,654.557 -7.599,660.247 -7.6222,666.8307 -7.6349,673.9029 -8.2232,681.2409 -9.1246,688.7212 -9.615,695.6974 -9.8818,701.8181 -10.0269,706.8943 -10.1058,711.4022 -10.1488,716.1801 -10.1721,721.1048 -10.1848,726.1095 -10.1918,731.1577 -10.1955,736.2317 -10.1976,741.3199 -10.1987,746.4135 -10.1993,751.51 -10.1996,756.6081 -10.1998,762.2884 -10.1999,768.2878 -10.7813,773.8794 -11.679,779.2468 -12.1674,784.4922 -12.4331,789.6714 -12.5776,794.8144 -12.6562,799.9401 -12.699,806.2192 -12.7222,813.1234 -12.7349,819.7863 -12.7418,826.3179 -12.7455,832.199 -12.7476,837.7262 -13.3301,843.0586 -14.2284,848.8664 -14.717,854.9328 -14.9829,860.5586 -15.1275,865.9469 -15.2061,871.7874 -15.2489,877.8716 -15.2722,883.507 -15.2849,889.4797 -15.2918,895.6381 -15.2955,901.8976 -15.2976,908.2097 -15.2987,913.9691 -15.2993,920.0092 -15.2996,926.2043 -15.2998,931.9024 -15.2999,937.9091 -15.2999,944.0837 -15.3,949.7684 -15.3,955.7701 -15.3,961.9443 -15.3,968.21 -15.3,974.5256 -15.3,980.2869 -15.3,986.3303 -15.3,992.5272 -15.3,998.8053 -15.3,1005.1276 -15.3,1011.4739 -15.3,1018.417 -15.3,1025.6847 -15.3,1033.1268 -15.3,1040.0822 -14.7186,1046.1916 -13.8209,1052.4244 -13.3326,1059.3057 -13.0669,1065.9561 -12.9224,1072.481 -12.8438,1078.9375 -12.801,1085.3591 -12.7778,1091.7618 -12.7651,1098.1518 -12.7582,1104.535 -12.7545,1110.9144 -12.7524,1117.2941 -12.7513,1123.674 -12.7507,1130.0516 -12.7504,1136.428 -12.7502,1142.8038 -12.7501,1148.6001 -12.7501,1154.6626 -12.75,1160.8676 -12.75,1167.1501 -12.75,1173.4748 -12.75,1179.8247 -12.75,1186.1883 -12.75,1191.9757 -12.75,1197.4497 -12.75,1203.3345 -12.75,1209.4451 -12.75,1215.0972 -12.75,1220.4975 -12.75,1225.7609 -12.1686,1230.9498 -11.2709,1237.2609 -10.7826,1244.1849 -10.5169,1250.2794 -10.3724,1255.9204 -10.2938,1261.3147 -10.251,1267.1562 -9.6464,1273.2432 -8.736,1278.8825 -8.2408,1284.2758 -7.9714,1290.1168 -7.2434,1296.7827 -6.266,1303.316 -5.7343,1309.7793 -5.4451,1316.7861 -4.7063,1323.5047 -3.723,1330.0667 -3.1881,1336.5457 -2.8971,1342.3981 -2.7388,1347.9075 -2.6527,1352.6487 -2.6059,1357.5536 -1.999,1363.7102 -1.0875,1369.9687 -0.5916,1375.7012 -0.3218,1381.7267 -0.1751,1387.9116 -0.0952,1393.6017 -0.0518,1399.0228 -0.0282,1404.8811 -0.0153,1410.9773 -0.0083,1416.6193 -0.0045,1422.0141 -0.0025,1427.8559 -0.0013,1433.3617 -0.0007,1438.1033 -0.0004,1443.5898 -0.0002,1450.0628 -0.0001,1457.0725 -0.0001,1464.3765 0,1471.8405 0,1479.3894 0,1486.9843 0,1494.6067 0,1502.2439 0,1509.887 0,1517.5332 0,1524.0183 0,1529.2927 -0.5814,1533.9085 -1.4791,1538.1637 -1.9674,1542.2227 -2.2331,1546.7564 -2.3776,1552.7111 -2.4562,1558.8598 -3.0804,1565.1139 -4.0013,1571.4232 -4.5023,1577.7624 -4.7749,1583.5365 -4.9231,1589.0056 -5.0038,1594.3086 -5.6291,1598.9376 -6.5506,1603.2 -7.0519,1607.263 -7.4393,1612.0538 L-7.65,1614.66 " stroke-linecap="round" fill="none" stroke="#9398b0" stroke-width="7.652417451880974" stroke-dasharray="none" stroke-dashoffset="0"/></g></g><g transform="matrix(1, 0, 0, 1, -735.5457, 1444.433) scale(2.550805817293658, 2.550805817293658)" opacity="1"><g transform="scale(0.39203297766545603)"><path d="M2.55,0 Q8.364,1.1628 10.5291,1.4791 T15.0348,2.5488 19.8115,3.7122 24.1542,4.345 27.6794,5.2707 31.3414,6.3557 35.0777,6.9459 38.273,7.8484 41.7578,8.9207 45.3999,10.0855 49.1255,11.3005 52.8964,11.9615 56.692,12.9024 60.5009,13.9957 64.3172,14.5905 68.7189,14.914 73.4413,15.09 78.3381,15.1858 83.3276,15.2379 88.3675,15.2662 93.4348,15.2816 98.517,15.29 103.0259,15.2946 106.6439,14.7156 110.3585,13.8193 114.7049,13.3317 119.3949,12.485 123.6905,11.4431 127.7714,10.8762 131.7357,10.5679 135.6387,10.4001 139.5085,10.3089 143.3578,10.2592 147.7774,10.2322 152.5073,10.2175 157.406,10.2095 162.3965,10.2052 167.4392,10.2028 173.0917,9.6201 178.4922,8.7218 183.1743,8.233 188.047,7.9672 193.0233,7.8225 197.4746,7.1625 201.0612,6.222 204.7588,5.7104 209.0959,5.432 213.1995,5.2806 217.1761,5.1983 221.0835,4.5721 224.9533,3.65 228.8027,3.1484 232.6433,2.8755 236.479,2.7271 240.3099,2.0649 244.1381,1.1233 247.9648,0.6111 252.3721,0.3324 256.5139,0.1808 259.9298,0.0984 263.5346,0.0535 267.8235,0.0291 271.9008,0.0158 275.8631,0.0086 279.7628,0.0047 283.6284,0.0025 288.0569,0.0014 292.2102,0.0008 296.2161,0.0004 300.1417,-0.5812 304.0215,-1.479 307.8763,-1.9674 311.7175,-2.233 315.5513,-2.3776 319.3811,-2.4562 323.7901,-3.0804 327.9351,-4.0013 331.9365,-4.5023 335.8574,-4.7749 339.7346,-4.9231 343.588,-5.0038 347.4284,-5.0477 351.8432,-5.0715 357.1542,-5.0845 362.3712,-5.0916 366.9534,-5.0954 371.1904,-5.0975 374.6581,-5.0986 378.2887,-5.0993 382.008,-5.0996 385.7755,-5.0998 389.5692,-5.0999 393.9608,-5.0999 399.2592,-5.1 404.4671,-5.1 409.6258,-5.1 415.3391,-5.1 420.775,-5.1 425.4787,-5.1 430.363,-5.1 435.9271,-5.1 441.2796,-5.1 446.5169,-5.1 452.8567,-5.1 459.7963,-5.1 467.0598,-5.1 473.9181,-5.1 480.5583,-5.1 486.4985,-5.1 492.0555,-5.1 498.567,-5.1 505.5976,-5.1 512.9129,-5.1 519.2204,-5.1 524.9772,-5.1 530.4345,-5.1 535.1475,-5.1 540.037,-5.1 545.6061,-5.1 552.1264,-5.1 557.999,-5.1 563.5194,-5.1 570.0108,-5.1 575.8678,-5.1 580.8004,-5.1 586.3931,-5.1 591.7611,-5.1 595.8441,-5.1 599.8094,-5.1 604.2922,-5.6814 609.6401,-6.5791 616.04,-7.0674 623.01,-7.3331 629.1272,-7.4776 634.7806,-7.5562 641.3467,-7.599 647.2466,-7.6222 652.7817,-7.6349 658.1184,-7.6418 662.7658,-7.6455 667.0381,-7.6476 670.5251,-8.2301 674.7499,-9.1284 679.3761,-9.617 684.2183,-9.8829 689.1781,-10.0275 693.6204,-10.1061 697.7812,-10.1489 701.7889,-10.1722 706.297,-10.1849 711.6586,-10.1918 717.4824,-10.1955 723.5575,-10.1976 729.7694,-10.1987 736.0579,-10.1993 742.9695,-10.1996 749.0551,-10.1998 754.6912,-10.1999 761.2457,-10.1999 767.1369,-10.2 772.0882,-10.2 776.5282,-10.2 780.6877,-10.2 785.8575,-10.2 792.1583,-10.2 797.9115,-10.2 803.3691,-10.2 809.2474,-10.2 815.3521,-10.2 821.5801,-10.2 826.7123,-9.6186 831.8322,-8.7209 838.108,-8.2326 844.4291,-7.9669 850.1933,-7.8224 855.0733,-7.7438 860.0536,-7.701 866.2536,-7.6778 872.5356,-7.6651 878.2787,-7.6582 883.1471,-7.0731 887.5397,-6.1733 892.2549,-5.6839 896.5664,-5.4176 900.6584,-5.2728 904.6286,-5.194 908.5326,-5.1511 913.5634,-5.1278 919.2071,-5.1151 924.6029,-5.1082 930.4475,-5.1045 936.5362,-5.1024 942.1741,-5.1013 946.9853,-5.1007 951.3468,-5.1004 956.6287,-5.1002 962.4114,-4.5187 968.4642,-3.621 974.6639,-3.1326 980.3621,-2.8669 986.9526,-2.7224 994.6099,-2.6438 1001.6825,-2.601 1008.437,-2.5778 1015.5999,-2.5651 1022.9871,-2.5582 1029.3337,-2.5545 1034.5304,-2.5524 1039.683,-2.5513 1044.2302,-2.5507 1049.0295,-2.5504 1053.9682,-2.5502 1058.9828,-2.5501 1065.1991,-2.5501 1072.0691,-1.9686 1078.132,-1.0709 1083.1745,-0.5826 1088.8268,-0.3169 1094.2296,-0.1724 1099.4943,-0.0938 1104.6839,-0.051 1109.8326,-0.0278 1115.5428,-0.0151 1121.5585,-0.0082 1128.3194,-0.0045 1134.9043,-0.0024 1140.2307,0.5801 1145.4561,1.4784 1151.7895,1.967 1158.7232,2.2329 1164.8207,2.3775 1170.4634,2.4561 1176.44,2.4989 1182.0192,2.5222 1187.9635,2.5349 1194.6856,2.5418 1201.8309,2.5455 1208.0435,2.5476 1213.1696,2.5487 1217.7047,2.5493 1222.4974,2.5496 1227.4302,2.5498 1232.4393,2.5499 1237.4898,2.5499 1242.5652,2.55 1247.6541,2.55 1251.5852,2.55 1256.0494,2.55 1261.3848,2.55 1266.613,2.55 1272.3663,2.55 1277.824,2.55 1283.1186,2.55 1288.3245,2.55 1292.9007,2.55 1297.7157,2.55 1302.0793,2.55 1306.781,2.55 1312.8294,2.55 1319.6081,2.55 1325.6213,2.55 1330.0553,2.55 1334.793,2.55 1340.2796,2.55 1346.1736,2.55 1351.7055,2.55 1356.4591,2.55 1361.3706,2.55 1365.7867,2.55 1370.5169,2.55 1375.9994,2.55 1381.8889,2.55 1387.4184,2.55 1392.7521,2.55 1398.5606,2.55 1404.0483,2.55 1408.7801,2.55 1413.6798,2.55 1419.2522,2.55 1424.6092,2.55 1430.4327,2.55 1437.0913,2.55 1443.6206,2.55 1449.4982,2.55 1455.6026,2.55 1461.8304,2.55 1467.5462,1.9686 1472.402,1.0709 1477.9506,0.5826 1484.4575,0.3169 1490.3228,0.1724 1496.4228,0.0938 1502.6505,0.051 1508.3639,0.0278 1514.43,0.0098 L1517.73,0 " stroke-linecap="round" fill="none" stroke="#9398b0" stroke-width="7.652417451880974" stroke-dasharray="none" stroke-dashoffset="0"/></g></g><g transform="matrix(1, 0, 0, 1, 1.6372, 1120.4806) scale(2.550805817293658, 2.550805817293658)" opacity="1"><g transform="scale(0.39203297766545603)"><path d="M0,0 Q4.6512,0 5.3349,0 T5.2278,0 2.8439,0 -0.7785,0 -5.0747,0 -9.7397,0 -15.1868,0 -21.6384,0.5814 -27.4736,1.4791 -30.648,1.386 -32.2749,0.4883 L-33.16,0 " stroke-linecap="round" fill="none" stroke="#9398b0" stroke-width="7.652417451880974" stroke-dasharray="none" stroke-dashoffset="0"/></g></g><g transform="matrix(1, 0, 0, 1, 55.2041, 1115.379) scale(2.550805817293658, 2.550805817293658)" opacity="1"><g transform="scale(0.39203297766545603)"><path d="M0,2.55 Q-3.4884,8.364 -4.4372,10.5291 T-5.9023,15.0348 -5.5364,19.2301 -3.5932,21.5123 -0.7919,21.5911 2.4762,20.4711 5.8271,18.78 L7.65,17.86 " stroke-linecap="round" fill="none" stroke="#9398b0" stroke-width="7.652417451880974" stroke-dasharray="none" stroke-dashoffset="0"/></g></g><g transform="matrix(1, 0, 0, 1, 60.3057, 1084.7694) scale(2.550805817293658, 2.550805817293658)" opacity="1"><g transform="scale(0.39203297766545603)"><path d="M0,-2.55 L5.1,-5.1 " stroke-linecap="round" fill="none" stroke="#9398b0" stroke-width="7.652417451880974" stroke-dasharray="none" stroke-dashoffset="0"/></g></g><g transform="matrix(1, 0, 0, 1, 6.7388, 1755.6313) scale(2.550805817293658, 2.550805817293658)" opacity="1"><g transform="scale(0.39203297766545603)"><path d="M0,0 Q-8.1442,2.3256 -11.5222,2.9582 T-17.9006,3.9348 -23.1147,3.8848 -27.6954,3.2761 -30.1872,2.945 -29.7986,2.1835 -27.2616,1.1878 -22.9722,0.6462 -18.8923,0.3515 -14.9286,0.7726 -11.0282,1.5831 -9.4877,2.024 -10.9753,2.2639 -14.1125,2.3943 -18.1469,2.4653 -22.6673,2.5039 -26.8706,2.5249 -30.9013,1.3736 -35.6673,-1.1676 L-38.26,-2.55 " stroke-linecap="round" fill="none" stroke="#9398b0" stroke-width="7.652417451880974" stroke-dasharray="none" stroke-dashoffset="0"/></g></g><g transform="matrix(1, 0, 0, 1, 47.5517, 1768.3853) scale(2.550805817293658, 2.550805817293658)" opacity="1"><g transform="scale(0.39203297766545603)"><path d="M0,0 Q-2.3256,1.1628 -4.121,2.6419 T-6.893,5.507 -8.9824,8.8098 -10.119,12.353 -8.9931,14.8642 -6.6365,16.8117 -3.6102,18.4525 0.3616,18.7637 4.2665,17.7679 7.5536,16.0612 10.9191,13.9166 L12.75,12.75 " stroke-linecap="round" fill="none" stroke="#9398b0" stroke-width="7.652417451880974" stroke-dasharray="none" stroke-dashoffset="0"/></g></g><g transform="matrix(1, 0, 0, 1, 47.5517, 1737.7757) scale(2.550805817293658, 2.550805817293658)" opacity="1"><g transform="scale(0.39203297766545603)"><path d="M0,0 L7.65,-2.55 " stroke-linecap="round" fill="none" stroke="#9398b0" stroke-width="7.652417451880974" stroke-dasharray="none" stroke-dashoffset="0"/></g></g><g transform="matrix(1, 0, 0, 1, 4.188, 1773.4869) scale(2.550805817293658, 2.550805817293658)" opacity="1"><g transform="scale(0.39203297766545603)"><path d="M0,2.55 Q4.6512,2.55 6.4977,1.9686 T10.5471,0.6936 L12.75,0 " stroke-linecap="round" fill="none" stroke="#9398b0" stroke-width="7.652417451880974" stroke-dasharray="none" stroke-dashoffset="0"/></g></g><g transform="matrix(1, 0, 0, 1, 315.3863, 1416.3741) scale(2.550805817293658, 2.550805817293658)" opacity="1"><g transform="scale(0.39203297766545603)"><path d="M0,2.55 Q-1.1628,8.364 -1.4791,11.1105 T-1.9674,16.5139 -2.2331,22.3603 -2.3776,27.285 -2.4562,28.8012 -2.499,27.3004 -2.5222,24.1584 -1.9535,20.1212 -1.0627,16.1786 -0.5781,12.8709 -0.3145,11.653 0.4103,13.8997 1.386,19.194 2.1399,26.5878 L2.55,30.61 " stroke-linecap="round" fill="none" stroke="#9398b0" stroke-width="7.652417451880974" stroke-dasharray="none" stroke-dashoffset="0"/></g></g><g transform="matrix(1, 0, 0, 1, 317.9371, 1515.8556) scale(2.550805817293658, 2.550805817293658)" opacity="1"><g transform="scale(0.39203297766545603)"><path d="M0,0 Q1.1628,8.1442 1.4791,11.5222 T1.9674,17.9006 2.2331,24.2775 1.7962,31.2349 0.6329,39.088 L0,43.36 " stroke-linecap="round" fill="none" stroke="#9398b0" stroke-width="7.652417451880974" stroke-dasharray="none" stroke-dashoffset="0"/></g></g><g transform="matrix(1, 0, 0, 1, 315.3863, 1508.2031) scale(2.550805817293658, 2.550805817293658)" opacity="1"><g transform="scale(0.39203297766545603)"><path d="M0,0 Q-4.6512,4.6512 -6.4977,6.4977 T-9.9302,9.9302 -14.1253,12.9625 -18.7353,15.7772 -23.1231,18.7777 L-25.51,20.41 " stroke-linecap="round" fill="none" stroke="#9398b0" stroke-width="7.652417451880974" stroke-dasharray="none" stroke-dashoffset="0"/></g></g><g transform="matrix(1, 0, 0, 1, 662.2959, 1490.3475) scale(2.550805817293658, 2.550805817293658)" opacity="1"><g transform="scale(0.39203297766545603)"><path d="M0,0 Q5.814,0 7.9768,0 T11.8999,0 15.7805,1.1628 19.0543,4.121 20.2539,8.0558 19.7437,11.9428 18.301,15.2225 15.7698,18.7508 12.6486,22.4144 11.532,24.9888 12.6688,26.3893 15.0337,27.1511 18.0667,28.147 21.4608,29.2701 26.2143,29.8811 31.7071,30.7949 37.6028,32.3267 L40.81,33.16 " stroke-linecap="round" fill="none" stroke="#9398b0" stroke-width="7.652417451880974" stroke-dasharray="none" stroke-dashoffset="0"/></g></g><g transform="matrix(1, 0, 0, 1, -324.866, 1418.9249) scale(2.550805817293658, 2.550805817293658)" opacity="1"><g transform="scale(0.39203297766545603)"><path d="M0,0 Q1.1628,9.307 1.4791,13.0013 T1.9674,19.2866 2.2331,22.1245 2.3776,21.3427 2.4562,18.0081 3.0804,12.7034 4.0013,6.9107 4.5023,3.7594 4.7749,4.3707 4.9231,7.0289 5.0038,11.3842 4.4663,16.6628 3.5924,21.8599 2.9173,27.5271 L2.55,30.61 " stroke-linecap="round" fill="none" stroke="#9398b0" stroke-width="7.652417451880974" stroke-dasharray="none" stroke-dashoffset="0"/></g></g><g transform="matrix(1, 0, 0, 1, -386.0853, 1500.5507) scale(2.550805817293658, 2.550805817293658)" opacity="1"><g transform="scale(0.39203297766545603)"><path d="M0,0 Q4.6512,0 7.0791,0.5814 T12.4035,1.8564 L15.3,2.55 " stroke-linecap="round" fill="none" stroke="#9398b0" stroke-width="7.652417451880974" stroke-dasharray="none" stroke-dashoffset="0"/></g></g><g transform="matrix(1, 0, 0, 1, -327.4168, 1497.9999) scale(2.550805817293658, 2.550805817293658)" opacity="1"><g transform="scale(0.39203297766545603)"><path d="M0,0 Q3.4884,0 3.8558,0.5814 T4.4232,2.6419 4.1504,7.2535 3.4206,13.8342 3.0236,20.3212 2.2262,26.7571 1.2111,32.5838 0.0774,36.9164 -1.1207,38.1105 -1.7724,35.853 -2.127,32.2994 -1.7385,26.8756 -0.9457,20.4343 -0.5145,14.0233 -0.2799,7.0473 -0.1523,0.3453 -0.6642,-5.0448 -2.1055,-7.9769 -4.0524,-8.4093 -6.2743,-8.063 -8.0644,-7.2933 -9.6196,-5.7118 -11.6285,-3.6886 -13.8864,-1.4252 -16.2797,0.9689 -18.7445,2.8527 -21.8296,4.4589 -25.8648,6.5257 L-28.06,7.65 " stroke-linecap="round" fill="none" stroke="#9398b0" stroke-width="7.652417451880974" stroke-dasharray="none" stroke-dashoffset="0"/></g></g><g transform="matrix(1, 0, 0, 1, 167.4395, 827.138) scale(2.550805817293658, 2.550805817293658)" opacity="1"><g transform="scale(0.39203297766545603)"><path d="M2.55,0 Q7.2012,0 9.6314,0.5814 T13.965,1.4791 17.4853,2.5488 21.1446,3.7122 25.4608,4.9264 29.553,6.7498 32.942,8.3231 35.9484,9.7604 39.3281,11.1236 42.3294,12.4467 44.5459,13.7478 46.9167,14.4556 49.9506,15.4243 53.3452,16.535 56.9361,17.7206 60.6338,18.947 64.3895,20.1955 68.7582,22.0375 72.879,24.2024 76.2858,25.9614 78.7227,27.4998 80.6298,28.918 83.4115,30.271 86.6689,32.1698 89.6038,33.7841 92.3631,35.2437 95.6084,36.6191 99.1181,37.3674 102.7715,38.3558 106.5055,40.0563 109.7018,41.5628 112.6034,42.9637 115.9261,44.3072 120.0592,45.6218 124.0519,46.9206 127.9681,48.2085 132.4241,50.0719 137.176,52.2485 142.0889,54.5953 147.0872,57.0348 152.1318,59.5246 156.0389,62.0419 158.7458,63.9927 161.9625,65.6354 165.4566,67.6918 168.5202,69.9732 171.3519,72.3772 174.0574,74.2663 177.2734,75.8754 180.1857,77.9158 182.3514,80.1909 185.2737,82.5913 188.6077,85.06 191.5841,87.5657 194.3661,90.0916 197.0423,93.2099 200.2447,96.6505 203.7332,99.6849 206.7938,102.4985 209.6215,105.1919 212.3226,107.8221 214.9548,110.4181 217.5496,112.9931 220.1239,115.5567 222.6871,117.5327 225.8257,119.189 229.2773,121.2529 232.9015,123.5384 236.6195,126.5259 239.8049,129.3139 243.2819,131.412 246.3363,133.7162 249.1606,136.1324 251.8598,138.612 253.9096,140.5445 256.7689,142.1772 259.4872,144.2282 262.1287,146.5067 265.3122,148.9091 267.6277,151.3787 269.4687,153.3036 271.633,154.9322 273.9732,156.9809 276.9905,159.2582 279.7946,161.6599 282.4829,164.1292 285.1082,166.6353 287.1177,168.58 288.7923,170.2193 290.866,172.2762 293.7384,174.5602 296.466,177.5469 299.1149,180.3345 301.7187,182.4323 304.298,184.7363 306.8639,187.7339 310.004,191.1088 312.875,194.1076 315.0182,196.9017 317.3469,199.5845 319.7765,202.209 322.8424,204.8018 326.2545,207.3751 328.692,209.9378 330.6017,212.4947 332.8057,215.0484 335.1675,217.6005 337.0337,220.1516 338.6303,222.7022 340.6616,225.2525 342.9295,228.3841 345.326,231.2505 347.2111,233.3912 348.818,235.7208 350.855,238.1532 353.1259,241.2206 355.524,244.6335 357.9914,248.2343 360.4988,251.9373 363.0279,255.1146 365.5665,259.1686 368.1103,263.1182 370.0755,265.8505 371.726,269.0833 373.7867,273.1676 376.0705,277.1336 377.8943,280.4539 379.4678,284.0044 381.4866,288.2614 383.7476,292.9051 386.1404,297.7592 388.6049,302.7254 391.1084,307.1712 393.0517,310.7525 394.6925,314.445 396.7502,318.7793 399.0324,322.8813 400.8553,326.2756 402.4284,329.8686 404.4469,334.1511 406.7078,338.8064 409.1005,343.083 410.9836,346.5723 412.5893,350.2147 414.6257,354.5218 416.8963,358.6113 418.7128,362.5825 420.2825,367.0684 422.2991,371.2529 423.9776,374.6921 425.4744,378.3072 427.4537,382.5995 429.6933,386.0972 431.493,389.1628 433.0534,392.577 435.0651,396.1808 436.7409,399.8854 438.2339,403.6449 440.2089,408.5971 442.4461,414.1981 444.2445,418.9893 445.8042,423.3421 447.8156,428.038 450.0725,432.9181 451.8817,437.3171 453.4473,441.4543 455.464,445.4492 457.1448,449.3666 458.6406,453.8256 460.0357,457.9977 461.376,462.5929 462.6865,467.4184 463.9809,472.369 465.2664,477.9691 465.9657,483.9249 466.9276,490.0741 468.0322,495.7449 468.6331,501.1554 468.96,505.8429 469.1378,510.7185 469.816,516.2801 470.7663,521.0521 471.2833,525.9737 471.5645,532.1394 471.7175,537.8191 472.3821,542.6531 473.3251,548.1921 473.838,554.1146 474.1171,559.662 474.2689,565.0054 474.3515,570.2378 474.3964,575.4099 474.4208,580.5513 474.4341,585.6762 474.4414,590.7897 474.4453,595.897 474.4474,601.001 474.4486,606.1032 474.4492,610.6253 474.4496,614.8317 474.4498,619.4457 474.4499,624.2812 474.4499,629.2374 474.45,634.2591 474.45,639.3166 474.45,644.3957 474.45,649.4866 474.45,654.5817 474.45,659.679 474.45,664.7775 474.45,669.2953 473.8686,673.4995 472.9709,678.1145 472.4826,682.9506 472.2169,687.907 472.0724,692.9289 471.4124,697.4051 470.4719,701.5843 469.9603,705.602 469.682,709.5341 469.5306,714.001 469.4483,718.7566 468.8221,723.0879 467.9,727.1883 467.3984,731.7445 467.1255,735.9673 466.9771,740.011 466.8963,743.9572 466.271,747.8482 465.3494,752.2904 464.8481,757.0326 464.5754,761.3566 463.8456,765.453 462.8672,769.4257 461.7536,773.3333 460.5663,777.2055 459.3368,781.6376 458.0843,786.3743 456.8215,790.6952 455.5531,794.79 454.2817,798.7618 453.0087,802.6689 451.7348,806.5408 449.879,810.9728 448.288,815.1279 446.8411,818.5512 444.8912,822.1576 442.6677,825.8637 440.8766,829.624 439.3209,833.4161 437.8932,836.6441 436.5352,840.1443 435.215,843.7926 433.9154,847.5215 432.0456,850.7128 430.4471,853.6117 428.9938,857.5143 427.0381,861.3815 424.8114,864.648 423.0187,867.5901 421.462,870.9371 419.4524,874.5021 417.1964,878.1856 414.8063,881.9336 412.3433,885.1354 409.8406,888.6213 407.3164,892.8433 404.7804,896.8865 402.238,900.8325 399.6899,904.7233 397.1386,908.5841 394.5879,912.4286 392.619,915.6828 390.9664,918.6159 388.9047,921.9557 386.6203,925.5167 384.2147,928.6167 381.7433,931.4682 379.8175,934.1845 378.1884,937.4064 376.1394,940.9033 373.862,944.5498 371.4602,948.8591 368.9909,953.5289 366.4825,957.8135 363.9528,961.3094 361.4139,964.9577 358.8699,968.6865 356.3232,971.8778 353.775,974.7767 351.2259,977.5165 348.6765,980.1697 346.1268,983.3573 343.5769,986.8355 341.027,990.4742 338.4771,993.6187 335.9248,996.4921 333.3713,999.7994 330.8194,1003.3428 328.2683,1006.4332 325.7178,1009.2772 323.1675,1012.5685 320.6173,1015.5218 318.0672,1018.8726 315.5172,1022.4396 312.9671,1025.5451 310.4171,1028.3996 307.8671,1031.1153 305.3171,1034.3368 302.7648,1037.2521 300.2113,1039.4194 297.6594,1042.3426 295.1083,1045.6771 292.5578,1048.6538 290.0075,1051.436 287.4573,1054.1122 284.3258,1056.7332 280.8781,1059.3241 277.8397,1061.8964 275.024,1064.4585 272.3272,1067.015 269.6951,1069.5686 266.519,1072.1206 263.047,1074.6716 260.5769,1077.2222 258.6517,1079.7725 256.4416,1081.7413 254.0765,1083.3937 251.6271,1086.0368 249.1318,1088.6375 246.6116,1090.6359 244.0778,1092.8881 241.5343,1094.6947 238.4042,1096.8403 234.9572,1099.1703 231.9192,1101.0193 228.5224,1103.7693 224.9303,1106.4281 221.232,1108.4559 218.0573,1110.7218 215.7489,1113.1173 213.3303,1115.0018 210.8518,1116.6084 208.3384,1118.6452 205.2247,1120.9182 201.7866,1123.3199 198.7535,1125.7892 195.3592,1128.2953 191.7686,1130.8214 188.0711,1133.3584 184.3154,1135.9013 180.5259,1138.4475 176.7179,1140.9954 173.4835,1143.5443 169.9798,1146.0936 166.911,1148.6433 164.6602,1150.6117 161.6915,1152.2662 158.3324,1154.3313 154.7608,1156.6176 150.4923,1159.0241 146.4237,1161.496 142.4639,1164.0036 138.5656,1166.5305 135.2821,1169.0679 132.3331,1171.0297 129.5661,1172.6782 126.3166,1174.7379 122.2233,1177.0211 118.2523,1179.426 114.3456,1181.8971 110.4739,1184.4064 107.2049,1186.3552 104.2637,1187.9967 101.501,1189.4711 98.2538,1190.8545 94.1617,1192.77 90.1915,1194.9747 86.2852,1196.7555 81.8322,1198.3057 77.6657,1199.7304 73.6548,1201.0868 69.1474,1202.9875 64.3697,1205.1843 60.0264,1206.9607 56.5009,1208.5085 53.4202,1209.9319 50.5792,1210.7062 47.2873,1211.7089 43.1708,1212.8357 38.6059,1214.0301 34.3784,1215.2613 30.3344,1216.5147 25.8089,1217.7802 21.6005,1219.0501 17.5647,1220.3223 13.625,1221.0144 9.1562,1221.9723 3.8182,1223.0747 -0.8299,1224.2559 -5.1027,1225.4799 -9.1713,1226.1457 -13.131,1227.0893 -17.0316,1228.184 -20.8978,1228.7795 -24.7452,1229.6849 -28.5823,1230.7588 -32.9953,1231.343 -37.1402,1231.6609 -41.1415,1232.4151 -45.6461,1233.4069 -49.8408,1233.9464 -53.8669,1234.8213 -58.9641,1235.8786 -64.0626,1236.4538 -68.5804,1237.3481 -72.7822,1238.416 -76.2331,1238.997 -79.8569,1239.8944 -84.1538,1240.964 -88.2356,1241.5458 -92.2002,1242.4438 -96.1012,1243.5137 -99.9675,1244.0957 -104.3987,1244.4123 -109.1371,1244.5845 -113.459,1244.6782 -117.5544,1245.3106 -121.5264,1246.236 -125.4314,1246.7394 -129.2999,1247.0133 -133.1486,1247.1623 -136.9888,1247.2433 -140.8243,1247.2874 -144.655,1247.3114 -148.4831,1247.3244 -152.3098,1246.7501 -156.1357,1245.8563 -159.9612,1245.3701 -163.7865,1245.1056 -167.6117,1244.9617 -171.439,1244.8834 -175.849,1244.8408 -180.5736,1244.8176 -184.888,1244.805 -188.9792,1244.7982 -192.9491,1244.7944 -196.8529,1244.7924 -200.723,1244.7913 -204.5748,1244.7907 -208.4144,1244.7904 -211.666,1245.3716 -215.0041,1246.6465 L-216.82,1247.34 " stroke-linecap="round" fill="none" stroke="#4dabf7" stroke-width="7.652417451880974" stroke-dasharray="none" stroke-dashoffset="0"/></g></g><g transform="matrix(1, 0, 0, 1, 175.0919, 829.6888) scale(2.550805817293658, 2.550805817293658)" opacity="1"><g transform="scale(0.39203297766545603)"><path d="M2.55,0 Q-2.1012,-1.1628 -4.5291,-1.4791 T-8.8592,-1.9674 -12.3799,-2.2331 -15.4602,-2.959 -18.2987,-4.5167 -21.0057,-5.9455 -24.2224,-7.3041 -27.1352,-9.2061 -29.8825,-10.8221 -33.1212,-11.7012 -36.0459,-12.1795 -39.3811,-13.021 -42.942,-14.0602 -46.6256,-14.6256 -50.3736,-14.9331 -54.1568,-15.1004 -57.959,-15.1914 -61.7716,-15.2409 -65.5899,-15.2679 -69.4112,-15.2825 -73.2342,-15.2905 -77.0604,-14.7134 -80.8883,-13.8181 -84.7149,-13.331 -88.5408,-13.0661 -92.3663,-12.922 -96.1915,-12.8435 -100.0167,-12.8009 -103.8418,-12.7777 -107.0877,-13.3465 -110.5999,-14.2373 -114.2548,-14.7219 -117.9873,-14.9855 -121.7619,-15.1289 -125.5595,-15.2069 -129.3696,-15.833 -133.1865,-16.7573 -137.0094,-17.2602 -140.8355,-17.5337 -144.6611,-17.6825 -148.4864,-18.3448 -152.3116,-19.2865 -156.1367,-19.7988 -159.9618,-20.0775 -163.7868,-20.2291 -167.6118,-20.3116 -171.4391,-20.3565 -175.2676,-20.3809 -179.0946,-20.3942 -183.502,-20.4014 -188.2252,-20.4053 -192.5389,-20.4074 -196.0483,-20.4086 -199.7039,-20.9906 -203.4391,-21.8887 -207.2152,-22.3772 -211.0136,-22.643 -214.8241,-23.3689 -219.2226,-24.3453 -223.3596,-25.4578 -227.3544,-26.6444 -231.2717,-27.2899 -235.1492,-27.6411 -239.005,-27.8321 -242.8468,-27.936 -247.2624,-27.9926 -251.99,-28.0233 -256.306,-28.04 -260.3982,-28.0491 -264.3708,-27.4727 -268.2783,-26.5777 -272.1483,-26.0908 -275.4163,-25.826 -278.9383,-25.1005 -282.5985,-24.1244 -286.3338,-23.012 -290.6914,-21.2441 -294.8085,-19.701 -298.2132,-18.8615 -301.8096,-17.8211 -306.0916,-16.6715 -310.1652,-15.4647 -314.1255,-14.2268 -318.6055,-12.972 -322.7868,-11.1266 -326.8079,-9.5412 -331.3232,-8.0974 -335.5238,-6.7306 -339.5531,-5.4056 -343.4893,-3.5221 -347.3747,-1.916 -351.2326,-0.4609 -354.4941,0.9121 -358.0148,2.2404 -362.258,4.1258 -366.3105,5.7328 -370.2592,7.1884 -374.1515,8.5617 -377.4318,9.3088 -380.9604,10.2966 -385.2056,11.4153 -389.2592,12.0239 -392.6294,12.9364 -396.2093,14.0142 -399.9009,14.6005 -403.072,15.5032 -406.5412,16.5779 -410.1727,17.7439 -413.8924,18.9597 -418.2416,20.2024 -422.354,22.0413 -426.3376,23.623 -430.2489,25.0649 -433.5394,26.4307 -437.0737,27.755 -440.7405,29.0569 -444.4795,30.3465 -448.8391,32.2109 -453.5386,34.3879 -457.8416,36.1536 -461.9266,37.6955 -466.4745,39.6971 -471.2741,41.9488 -475.0479,44.3388 -477.6823,46.2226 -480.8596,47.8288 -484.3322,49.8654 -487.3864,51.5547 -490.213,53.0551 -492.9134,54.4527 -495.5453,55.7944 -498.1398,57.6871 -500.714,59.8795 -503.2772,61.6536 -505.8343,63.2001 -508.9696,65.2042 -512.4194,67.4572 -515.4589,69.8456 -518.2775,72.3077 -520.9759,74.8099 -524.188,77.3362 -527.0982,79.8756 -529.2627,81.8384 -531.603,83.4876 -534.039,85.5475 -536.5269,87.8309 -539.6246,90.2359 -543.0539,92.707 -546.0822,95.2141 -548.8925,97.7407 -551.5863,99.6966 -554.2168,101.3421 -556.8106,102.8186 -558.8031,104.2032 -560.4683,105.5378 -562.5371,106.8452 -564.8252,108.7216 -567.8142,110.9074 -570.603,113.2593 -572.7015,115.7015 -575.5873,118.1928 -578.32,120.7109 -580.3879,122.6622 -582.678,124.8865 -585.0889,127.2593 -588.1446,129.1315 -591.5511,131.3128 -594.567,133.6622 -597.3705,136.1031 -600.0584,138.596 -602.6834,141.1172 -605.2742,143.6516 -607.8464,145.6117 -610.4085,147.2593 -612.9673,149.3185 -615.5244,151.0201 -618.0783,152.5271 -620.6304,154.5097 -623.1815,156.7511 -625.7322,159.1332 -628.2825,162.1733 -630.8327,164.9899 -633.3828,167.1035 -635.9328,169.4161 -638.4829,171.8392 -641.0329,174.3225 -643.5829,176.8362 -646.1352,179.3665 -648.6887,182.4871 -651.2406,185.9289 -653.7917,188.3827 -656.3422,190.299 -658.8925,192.5042 -661.4427,194.8666 -663.9928,197.3146 -665.9614,199.8091 -667.6138,202.3312 -669.6755,204.8683 -671.9598,207.4113 -674.3653,209.9575 -676.839,212.5054 -678.7683,215.0542 -680.3993,218.185 -682.4493,221.6324 -684.7274,224.6705 -687.1294,227.4861 -689.5989,230.1806 -692.1051,232.8091 -694.0499,235.4042 -695.6893,238.5623 -697.7439,242.0246 -700.0244,245.6523 -702.4278,249.9513 -704.898,254.0342 -707.4047,257.9995 -709.9333,262.4845 -712.474,266.6708 -714.4375,270.111 -716.0871,273.1452 -718.1473,275.9586 -719.8494,279.2333 -721.3567,283.3404 -723.3396,287.9002 -725.581,292.7086 -727.9631,297.0709 -730.4218,301.1882 -732.9222,305.1722 -735.4451,309.0837 -737.9804,313.5371 -740.5247,318.2854 -743.0739,322.6127 -745.042,326.1295 -746.6941,329.7891 -748.7556,334.1078 -751.0399,338.2014 -752.8639,342.1725 -754.4376,346.077 -756.4565,349.3639 -758.1362,352.8961 -759.6313,355.9804 -761.0261,358.8234 -762.3662,362.1164 -764.2581,365.0707 -765.8686,368.422 -767.3262,371.9893 -768.7005,375.6741 -770.0295,380.0042 -771.9153,384.104 -773.5226,388.0785 -774.9806,392.5685 -776.3574,396.7575 -777.6878,400.7806 -778.993,405.2947 -779.703,409.4946 -780.6706,413.5235 -781.7784,417.4595 -782.9625,420.7634 -784.188,424.3073 -785.4361,428.563 -787.2778,432.6223 -788.8611,435.9934 -790.3039,439.5714 -792.2515,443.8435 -793.8924,447.9117 -794.7851,451.2876 -795.8521,454.2892 -797.0139,457.6685 -798.2274,461.8325 -799.4689,465.8419 -800.1443,469.7672 -801.0931,474.2281 -802.1906,478.9805 -802.7877,483.8937 -803.1125,488.3129 -803.8706,492.4612 -804.8644,496.462 -805.405,500.3827 -805.6991,504.2598 -806.4428,508.1131 -807.4311,511.9535 -807.9687,515.7891 -808.2611,520.2036 -808.4202,524.9307 -809.0881,529.2464 -810.0329,533.3384 -810.5469,537.89 -810.8265,542.6917 -810.9786,547.048 -811.6427,550.5829 -812.5854,554.2524 -813.0982,558.5742 -813.3772,563.2508 -813.5289,568.1205 -813.6115,573.0952 -813.6564,578.1294 -813.6809,583.1958 -813.6941,588.2776 -813.7014,593.3676 -813.7053,598.4622 -813.7074,603.5593 -813.7086,608.0763 -813.7092,611.6986 -814.291,615.4157 -815.1889,619.7633 -815.6773,623.8726 -815.943,627.8523 -816.0876,632.3429 -816.1662,637.1113 -816.209,642.0332 -815.6508,646.4572 -814.7658,650.6081 -814.2844,654.6104 -814.0225,658.5318 -813.88,662.9907 -813.8025,667.7419 -813.7603,672.0707 -813.7374,676.1721 -813.1435,680.7312 -812.239,685.5369 -811.1656,690.4768 -810.0002,695.4897 -809.3663,699.9609 -808.4377,703.5561 -807.3489,707.2583 -806.7566,711.0188 -805.853,714.8087 -804.78,718.6146 -803.6149,722.4292 -802.3997,726.2486 -801.1573,730.0705 -799.8999,733.8938 -798.6346,737.7202 -797.3648,741.5482 -796.0927,745.3749 -794.8192,749.7822 -794.1264,753.9239 -793.1682,757.9213 -792.0655,761.84 -790.8842,765.716 -789.6602,769.5687 -788.413,773.4111 -787.1531,777.2478 -785.8863,781.0792 -784.0343,785.4891 -781.8641,790.2137 -779.5184,794.528 -777.6586,798.0379 -776.0655,801.11 -774.6175,804.5277 -773.2484,808.1334 -771.3407,811.2577 -769.7216,814.7016 -768.2594,818.9006 -766.8826,823.5105 -765.5521,828.3439 -763.6656,832.7197 -762.0579,836.8466 -760.602,840.8359 -759.2285,844.7502 -758.4813,849.2053 -757.4935,853.373 -756.3747,857.3844 -755.1847,861.3108 -753.9559,865.1933 -752.7061,869.0518 -751.4447,872.8951 -750.1772,877.3114 -748.3248,881.4581 -746.7357,885.4581 -745.2876,889.3783 -743.9161,892.6737 -742.5887,895.6292 -741.2851,898.402 -739.9946,901.6569 -738.1297,905.7532 -735.9525,909.7258 -733.6052,913.0497 -731.1655,916.0207 -728.6755,919.3811 -726.1582,922.9533 -723.6259,926.0595 -721.667,928.912 -720.0199,932.2102 -717.9611,936.3324 -715.676,940.319 -713.2679,943.6505 -711.3765,947.2071 -709.7661,950.8861 -707.7273,954.0502 -705.4554,957.5157 -703.0566,961.7288 -700.5889,965.7672 -698.0837,969.1269 -695.5581,972.1174 -693.6027,974.907 -691.9576,977.006 -690.4812,979.3106 -689.0967,982.3085 -687.1807,985.6836 -684.9756,989.2638 -682.611,992.958 -680.1595,996.7141 -677.6631,999.9202 -675.1423,1003.4085 -672.6082,1007.0503 -670.0668,1010.1943 -667.5215,1013.0674 -665.5555,1015.7932 -663.9045,1017.8574 -661.8436,1020.1432 -659.5597,1023.1308 -657.1544,1025.3375 -654.6832,1027.703 -652.1737,1030.7363 -649.6435,1033.5492 -647.1043,1036.2423 -644.5601,1038.8701 -641.4319,1041.4624 -638.5674,1044.0354 -636.4276,1046.598 -634.1008,1049.1548 -631.6723,1051.7085 -629.1883,1054.2605 -626.6742,1056.8139 -624.1438,1059.368 -621.6044,1061.9202 -619.0579,1064.4714 -616.5076,1067.0221 -613.3759,1069.5725 -610.5096,1072.1227 -608.3688,1074.6728 -606.0415,1077.2228 -603.6126,1079.1915 -601.7099,1080.8438 -600.0934,1082.9055 -598.0513,1085.1898 -595.7775,1087.0139 -593.3778,1088.5876 -590.9096,1090.6088 -588.4018,1092.8734 -585.291,1095.2681 -581.8546,1098.3151 -578.8224,1101.1354 -576.0101,1103.2511 -573.3174,1104.9834 -570.6897,1106.5072 -568.0975,1108.4989 -565.5245,1110.1638 -562.962,1111.6509 -560.4052,1113.6227 -557.8492,1115.8581 -554.7123,1118.237 -551.2616,1120.6962 -548.2216,1123.1991 -545.4051,1125.1421 -542.7101,1126.7804 -540.0812,1128.8345 -537.4883,1131.1147 -534.915,1132.9366 -532.3523,1134.5091 -529.7953,1136.5273 -527.2416,1138.2066 -524.6873,1139.7016 -522.1326,1141.6776 -518.9987,1143.334 -516.1311,1144.8164 -513.4083,1146.2043 -510.7643,1147.5407 -508.7445,1148.8491 -505.9016,1150.1423 -502.6108,1152.0108 -499.0764,1153.611 -495.9909,1155.0629 -493.7288,1156.4341 -491.333,1157.1801 -488.867,1158.1673 -486.3626,1159.2857 -483.8375,1160.4756 -481.301,1161.7042 -478.1769,1162.954 -474.1519,1164.7967 -470.218,1166.9619 -466.9152,1168.7212 -463.372,1170.2597 -459.698,1172.2594 -456.5366,1173.9286 -453.0725,1175.4181 -450.0253,1177.3912 -447.2048,1179.0459 -443.9263,1180.5275 -440.3985,1181.9149 -436.7352,1183.251 -432.9959,1184.5593 -429.2153,1185.8546 -425.4144,1187.143 -421.0211,1188.4253 -415.9751,1190.2418 L-413.23,1191.23 " stroke-linecap="round" fill="none" stroke="#4dabf7" stroke-width="7.652417451880974" stroke-dasharray="none" stroke-dashoffset="0"/></g></g><g transform="matrix(1, 0, 0, 1, -238.14, 2020.92) scale(2.550805817293658, 2.550805817293658)" opacity="1"><g transform="scale(0.39203297766545603)"><path d="M0,0 Q5.8186,2.3256 7.9826,2.9582 T12.4867,4.5162 16.6811,5.9452 20.7071,7.304 24.6414,9.206 28.5259,10.8221 32.3832,12.2826 36.2281,13.6585 40.0662,14.9884 43.8983,16.2933 47.7272,17.5846 51.5543,18.8684 55.3805,20.1482 59.2061,21.4258 63.0314,22.7022 66.8566,23.978 70.684,25.2534 74.5126,26.5287 79.5023,27.8038 84.5423,29.0789 88.4469,30.3562 91.7338,31.6347 95.2661,32.9116 98.9318,34.1877 102.6725,35.4633 106.4539,37.32 110.2551,38.9114 114.6486,40.3586 118.7829,41.7272 122.7761,43.0532 126.6927,44.3559 129.986,45.0646 133.5241,46.0315 137.7767,47.7203 141.8343,49.2204 145.7859,50.0365 149.6797,50.4804 153.5422,50.7219 157.9689,50.8533 162.705,50.9247 167.0279,50.9636 171.1237,50.9848 175.0961,50.9963 179.0012,51.0025 182.8698,51.0059 186.7185,51.0078 190.5564,51.0088 194.3907,51.0093 198.2231,51.0096 202.0521,51.0098 205.8793,50.4285 209.6621,49.1536 L211.72,48.46 " stroke-linecap="round" fill="none" stroke="#4dabf7" stroke-width="7.652417451880974" stroke-dasharray="none" stroke-dashoffset="0"/></g></g><g transform="matrix(1, 0, 0, 1, 699.089, 1048.9793) scale(2.097428658321803, 2.097428658321803)" opacity="1"><g transform="scale(0.4767742616810247)"><path d="M0,-2.1 Q-3.8258,-2.1 -6.7794,-2.1 T-12.295,-1.6212 -17.2084,-0.4031 -23.2306,1.6936 -29.8537,4.2684 -35.3696,7.1032 -39.8044,10.0794 -43.651,13.1349 -47.18,16.2312 -50.0551,19.3497 -53.0532,23.9167 -56.1206,29.2693 -58.7446,33.6153 -61.1274,36.9371 -62.9024,39.7018 -64.3468,42.1611 -66.0902,44.9331 -67.9939,47.8774 -69.9848,49.958 -71.5467,51.5663 -72.3964,52.4412 -72.8586,51.9619 -73.5888,50.7435 -74.4649,49.1231 -75.418,47.2863 -76.413,45.3317 -76.9543,43.3109 -77.2487,41.2539 -77.8877,38.222 -78.7141,34.1832 -79.1637,30.552 -79.4082,27.619 -79.5413,25.0659 -79.6137,23.6769 -79.653,24.3578 -79.6744,26.1623 -79.6861,28.578 -79.6924,31.8051 -79.6959,35.4736 -79.6978,38.9056 -79.6988,42.6856 -79.2205,47.1313 -78.0051,50.9839 -75.9097,54.0373 -73.3357,56.656 -70.0226,58.5593 -65.3497,59.5948 -59.7022,60.3948 L-56.63,60.83 " stroke-linecap="round" fill="none" stroke="#4dabf7" stroke-width="6.292285974965409" stroke-dasharray="none" stroke-dashoffset="0"/></g></g><g transform="matrix(1, 0, 0, 1, 757.817, 998.641) scale(2.097428658321803, 2.097428658321803)" opacity="1"><g transform="scale(0.4767742616810247)"><path d="M0,0 Q-2.8682,5.7365 -4.606,8.7332 T-8.2444,15.7496 -12.6132,25.3053 -16.9027,34.8082 -20.1938,42.3672 -23.4183,49.3498 -26.6065,55.0613 -28.8197,58.1684 -30.0237,58.9033 -30.9539,58.791 L-31.46,58.73 " stroke-linecap="round" fill="none" stroke="#4dabf7" stroke-width="6.292285974965409" stroke-dasharray="none" stroke-dashoffset="0"/></g></g><g transform="matrix(1, 0, 0, 1, 755.7196, 1000.7384) scale(2.097428658321803, 2.097428658321803)" opacity="1"><g transform="scale(0.4767742616810247)"><path d="M0,0 Q2.8682,1.9106 3.6484,3.3879 T4.853,7.103 5.0295,11.9922 4.6467,18.9566 3.9619,27.0499 3.1129,33.8443 2.651,39.9322 2.3997,45.6335 2.2631,50.1691 2.6652,53.1153 3.3605,54.2392 3.7388,53.8953 3.9445,52.2741 3.5799,49.9557 2.4263,47.2604 0.3646,44.3601 -2.1911,41.8247 -5.0178,39.9666 -7.9896,38.9558 -10.5616,38.8848 -11.9608,39.3249 -12.3618,39.665 L-12.58,39.85 " stroke-linecap="round" fill="none" stroke="#4dabf7" stroke-width="6.292285974965409" stroke-dasharray="none" stroke-dashoffset="0"/></g></g><g transform="matrix(1, 0, 0, 1, 780.8887, 1004.9333) scale(2.097428658321803, 2.097428658321803)" opacity="1"><g transform="scale(0.4767742616810247)"><path d="M0,0 Q0,4.7834 -0.4788,7.5187 T-1.6946,14.1335 -2.8325,21.0791 -3.9303,27.2469 -5.0063,33.9492 -5.5917,39.987 -5.9101,44.2292 -5.6045,46.5369 -4.9595,46.8347 -4.4611,46.3848 L-4.19,46.14 " stroke-linecap="round" fill="none" stroke="#4dabf7" stroke-width="6.292285974965409" stroke-dasharray="none" stroke-dashoffset="0"/></g></g><g transform="matrix(1, 0, 0, 1, 795.5707, 998.641) scale(2.097428658321803, 2.097428658321803)" opacity="1"><g transform="scale(0.4767742616810247)"><path d="M0,0 Q0,4.7834 -0.4788,6.5611 T-1.2181,10.7421 -2.0967,16.3659 -3.0513,23.2511 -4.0493,30.3437 -5.5499,37.0703 -6.845,43.1213 -7.5495,47.8471 -7.9328,51.3733 -8.1413,53.2916 -8.3024,54.0937 L-8.39,54.53 " stroke-linecap="round" fill="none" stroke="#4dabf7" stroke-width="6.292285974965409" stroke-dasharray="none" stroke-dashoffset="0"/></g></g><g transform="matrix(1, 0, 0, 1, 797.6681, 1036.3947) scale(2.097428658321803, 2.097428658321803)" opacity="1"><g transform="scale(0.4767742616810247)"><path d="M0,0 Q1.9106,2.8682 2.9091,3.6484 T4.9296,3.8977 6.5075,2.5991 7.8447,0.9351 9.051,-1.4042 9.7072,-4.1109 9.5853,-5.5834 9.0403,-4.9503 7.7861,-2.2164 6.1463,1.1837 5.2542,4.9463 4.7689,8.9061 4.9837,12.4966 6.537,15.4074 9.7737,16.9909 13.4474,17.8523 16.88,18.321 20.8891,18.683 L23.07,18.88 " stroke-linecap="round" fill="none" stroke="#4dabf7" stroke-width="6.292285974965409" stroke-dasharray="none" stroke-dashoffset="0"/></g></g><g transform="matrix(1, 0, 0, 1, 887.8576, 1000.7384) scale(2.097428658321803, 2.097428658321803)" opacity="1"><g transform="scale(0.4767742616810247)"><path d="M0,0 Q-1.9106,5.7365 -2.4303,8.7332 T-3.7115,14.7943 -5.3661,21.4385 -7.2238,28.8788 -8.7132,35.7946 -9.5234,41.9485 -9.4854,47.6879 -8.5071,52.2443 -7.0173,55.2018 -5.2515,56.8107 -3.3356,57.6859 -1.1752,58.3621 L0,58.73 " stroke-linecap="round" fill="none" stroke="#4dabf7" stroke-width="6.292285974965409" stroke-dasharray="none" stroke-dashoffset="0"/></g></g><g transform="matrix(1, 0, 0, 1, 889.955, 1034.2973) scale(2.097428658321803, 2.097428658321803)" opacity="1"><g transform="scale(0.4767742616810247)"><path d="M-2.1,0 Q-6.8789,0 -8.6575,0 T-11.8826,0 -15.0545,0 L-16.78,0 " stroke-linecap="round" fill="none" stroke="#4dabf7" stroke-width="6.292285974965409" stroke-dasharray="none" stroke-dashoffset="0"/></g></g><g transform="matrix(1, 0, 0, 1, 915.1241, 1038.4921) scale(2.097428658321803, 2.097428658321803)" opacity="1"><g transform="scale(0.4767742616810247)"><path d="M0,0 Q-2.8682,-0.9576 -4.1272,-0.7393 T-6.071,0.0766 -7.6073,1.9546 -8.9218,4.8891 -9.1581,7.9197 -7.8502,10.0448 -5.2259,11.2008 -2.8429,11.3532 -1.0677,10.4808 0.3768,9.0486 1.1626,7.3119 1.59,5.4118 2.2991,4.3781 3.1613,5.7287 3.6304,8.3764 4.8432,10.772 7.1403,13.3031 L8.39,14.68 " stroke-linecap="round" fill="none" stroke="#4dabf7" stroke-width="6.292285974965409" stroke-dasharray="none" stroke-dashoffset="0"/></g></g><g transform="matrix(1, 0, 0, 1, 946.5856, 998.641) scale(2.097428658321803, 2.097428658321803)" opacity="1"><g transform="scale(0.4767742616810247)"><path d="M0,0 Q0,7.6517 0,10.6883 T-0.4788,16.8131 -1.6946,23.4944 -3.3113,30.9548 -4.6696,38.3603 -5.4085,45.2572 -5.8105,50.922 -6.0291,54.9612 -6.1481,57.1586 -5.734,57.3964 -4.734,56.9 L-4.19,56.63 " stroke-linecap="round" fill="none" stroke="#4dabf7" stroke-width="6.292285974965409" stroke-dasharray="none" stroke-dashoffset="0"/></g></g><g transform="matrix(1, 0, 0, 1, 954.9753, 1007.0307) scale(2.097428658321803, 2.097428658321803)" opacity="1"><g transform="scale(0.4767742616810247)"><path d="M0,0 Q0.9576,6.6941 1.2181,9.949 T1.1414,16.8875 0.6209,24.0114 -0.141,30.2785 -1.0343,35.6007 -1.9968,39.9301 -3.4173,43.9521 L-4.19,46.14 " stroke-linecap="round" fill="none" stroke="#4dabf7" stroke-width="6.292285974965409" stroke-dasharray="none" stroke-dashoffset="0"/></g></g><g transform="matrix(1, 0, 0, 1, 1026.2879, 1021.7127) scale(2.097428658321803, 2.097428658321803)" opacity="1"><g transform="scale(0.4767742616810247)"><path d="M0,0 Q0.9576,-2.8682 0.7393,-3.1696 T-0.0766,-3.1584 -1.9546,-2.197 -4.4103,-0.7163 -6.2251,1.5232 -8.1676,4.1757 -10.1797,6.5762 -11.2742,9.3162 -11.8697,12.2409 -11.7171,14.7895 -10.6787,17.1313 -9.6351,19.3605 -8.5885,22.0097 -7.5404,24.8849 -7.449,27.4043 -8.8334,29.2537 -11.0207,30.2598 -13.1681,30.8071 -15.7705,31.1048 -19.138,31.3349 L-20.97,31.46 " stroke-linecap="round" fill="none" stroke="#4dabf7" stroke-width="6.292285974965409" stroke-dasharray="none" stroke-dashoffset="0"/></g></g><g transform="matrix(1, 0, 0, 1, 1026.2879, 1053.1741) scale(2.097428658321803, 2.097428658321803)" opacity="1"><g transform="scale(0.4767742616810247)"><path d="M0,0 L4.19,2.1 " stroke-linecap="round" fill="none" stroke="#4dabf7" stroke-width="6.292285974965409" stroke-dasharray="none" stroke-dashoffset="0"/></g></g><g transform="matrix(1, 0, 0, 1, 1064.0416, 1030.1024) scale(2.097428658321803, 2.097428658321803)" opacity="1"><g transform="scale(0.4767742616810247)"><path d="M0,0 Q-0.9576,0 -1.6946,0.9553 T-3.3113,3.3879 -5.1484,6.1477 -6.6266,9.0831 -7.9095,12.5929 -9.0862,15.9363 -9.7263,18.7105 -9.5958,21.1772 -8.5671,22.9979 -7.05,23.9884 -5.2693,24.5272 -2.8665,23.8627 -0.1253,22.0671 2.3213,19.6562 4.131,16.4317 5.5943,12.7647 6.8691,9.3334 8.0415,7.4668 9.158,7.8878 10.2419,10.0297 11.3081,12.629 12.3669,15.4772 13.9005,18.4607 15.6923,21.0414 17.7569,23.7153 L18.88,25.17 " stroke-linecap="round" fill="none" stroke="#4dabf7" stroke-width="6.292285974965409" stroke-dasharray="none" stroke-dashoffset="0"/></g></g><g transform="matrix(1, 0, 0, 1, 751.5247, 1130.779) scale(2.097428658321803, 2.097428658321803)" opacity="1"><g transform="scale(0.4767742616810247)"><path d="M0,2.1 Q-0.9576,18.3564 -1.6946,24.6911 T-3.3113,34.9506 -4.6696,41.4894 -5.7191,47.2216 L-6.29,50.34 " stroke-linecap="round" fill="none" stroke="#4dabf7" stroke-width="6.292285974965409" stroke-dasharray="none" stroke-dashoffset="0"/></g></g><g transform="matrix(1, 0, 0, 1, 762.0119, 1149.6558) scale(2.097428658321803, 2.097428658321803)" opacity="1"><g transform="scale(0.4767742616810247)"><path d="M 2.1 0 m -0.5, 0 a 0.5,0.5 0 1,0 1,0 a 0.5,0.5 0 1,0 -1,0" stroke-linecap="round" fill="#4dabf7" stroke="#4dabf7" stroke-width="6.292285974965409" stroke-dasharray="none" stroke-dashoffset="0"/></g></g><g transform="matrix(1, 0, 0, 1, 766.2067, 1147.5584) scale(2.097428658321803, 2.097428658321803)" opacity="1"><g transform="scale(0.4767742616810247)"><path d="M0,0 Q3.8258,0 5.3453,0 T8.6466,0 12.3554,0.4788 16.286,1.2181 19.8583,1.6202 22.7592,1.839 25.7715,1.958 28.8442,2.0228 31.4734,2.058 32.9037,2.5537 32.7242,3.7786 31.1924,5.4026 28.925,7.7202 26.2551,10.4151 23.8451,12.8387 21.5787,16.07 18.4329,19.7408 15.764,22.6953 13.8356,25.7367 12.31,29.3041 11.4801,32.6789 11.0286,35.4701 11.7383,37.9462 14.0373,39.7719 17.2009,41.2439 20.8348,42.5235 24.2458,43.2196 27.0567,43.1195 29.9086,42.362 L31.46,41.95 " stroke-linecap="round" fill="none" stroke="#4dabf7" stroke-width="6.292285974965409" stroke-dasharray="none" stroke-dashoffset="0"/></g></g><g transform="matrix(1, 0, 0, 1, 795.5707, 1174.825) scale(2.097428658321803, 2.097428658321803)" opacity="1"><g transform="scale(0.4767742616810247)"><path d="M0,0 Q-1.9106,-1.9106 -3.3879,-2.4303 T-6.1477,-3.7115 -9.5619,-4.8873 -13.3322,-5.5269 -16.3385,-5.8749 -18.9293,-6.0642 -21.6111,-6.2104 L-23.07,-6.29 " stroke-linecap="round" fill="none" stroke="#4dabf7" stroke-width="6.292285974965409" stroke-dasharray="none" stroke-dashoffset="0"/></g></g><g transform="matrix(1, 0, 0, 1, 818.6424, 1137.0713) scale(2.097428658321803, 2.097428658321803)" opacity="1"><g transform="scale(0.4767742616810247)"><path d="M0,0 Q0.9576,5.7365 0.7393,8.7332 T-0.0766,15.2731 -0.9993,22.6566 -1.9777,30.4991 -3.4653,37.6336 -4.7534,43.9042 -5.7486,50.7862 L-6.29,54.53 " stroke-linecap="round" fill="none" stroke="#4dabf7" stroke-width="6.292285974965409" stroke-dasharray="none" stroke-dashoffset="0"/></g></g><g transform="matrix(1, 0, 0, 1, 839.6167, 1153.8507) scale(2.097428658321803, 2.097428658321803)" opacity="1"><g transform="scale(0.4767742616810247)"><path d="M0,0 Q3.8258,1.9106 5.8218,2.4303 T10.1989,3.57 L12.58,4.19 " stroke-linecap="round" fill="none" stroke="#4dabf7" stroke-width="6.292285974965409" stroke-dasharray="none" stroke-dashoffset="0"/></g></g><g transform="matrix(1, 0, 0, 1, 837.5193, 1164.3378) scale(2.097428658321803, 2.097428658321803)" opacity="1"><g transform="scale(0.4767742616810247)"><path d="M0,2.1 Q2.8682,4.0106 4.1272,4.5303 T7.0264,5.3327 10.6233,5.9527 L12.58,6.29 " stroke-linecap="round" fill="none" stroke="#4dabf7" stroke-width="6.292285974965409" stroke-dasharray="none" stroke-dashoffset="0"/></g></g><g transform="matrix(1, 0, 0, 1, 866.8833, 1149.6558) scale(2.097428658321803, 2.097428658321803)" opacity="1"><g transform="scale(0.4767742616810247)"><path d="M0,0 Q4.7834,0 6.5611,0 T10.2633,0.4788 13.7137,1.6946 16.0695,3.7901 17.8276,7.3218 18.784,11.1559 18.8278,14.1993 17.894,17.7678 15.9496,21.622 13.4578,24.674 10.6681,27.2896 7.7163,29.6701 4.6765,31.9227 2.0652,33.6269 0.6447,34.554 0.3507,35.5349 1.1461,36.545 3.4917,37.0945 7.1595,37.3934 11.5464,37.556 15.8459,38.1233 19.6189,38.9107 22.629,39.339 25.6348,39.67 L27.27,39.85 " stroke-linecap="round" fill="none" stroke="#4dabf7" stroke-width="6.292285974965409" stroke-dasharray="none" stroke-dashoffset="0"/></g></g></svg>