<svg xmlns="http://www.w3.org/2000/svg" direction="ltr" width="629.3934806629833" height="564.7098320742812" viewBox="-495.80662983425407 3195.6740331491715 629.3934806629833 564.7098320742812" stroke-linecap="round" stroke-linejoin="round" style="background-color: transparent;"><defs/><g transform="matrix(1, 0, 0, 1, -416.116, 3255.8287)" opacity="1"><g transform="scale(1)"><path d="M1.6746,1.3021 T0.7188,2.5209 -1.6578,5.718 -4.2936,9.4897 -6.6996,12.8557 -9.2108,15.7938 -11.8752,18.45 -14.2398,20.6608 -15.26,21.5811 A2.0308,2.0308 0 0 1 -18.06,18.6389 T-17.5351,18.1133 -15.7312,16.4251 -12.9015,13.5801 -10.1953,10.3925 -7.7867,7.0719 -5.0498,3.2038 -2.6203,-0.0755 -1.6746,-1.3021 A2.1212,2.1212 0 0 1 1.6746,1.3021 Z" stroke-linecap="round" fill="#9398b0"/></g></g><g transform="matrix(1, 0, 0, 1, -432.2044, 3260.4254)" opacity="1"><g transform="scale(1)"><path d="M2.0268,-1.2645 T2.6879,-0.1656 4.3689,2.6339 6.4047,5.5589 8.704,8.3168 11.0606,11.1885 13.8719,13.9274 15.6098,15.328 A2.2842,2.2842 0 0 1 13.1102,19.152 T12.313,18.6687 9.9786,16.9187 7.4202,14.328 5.1339,11.4275 2.6529,8.3291 0.4015,5.1128 -1.3304,2.3414 -2.0268,1.2645 A2.3889,2.3889 0 0 1 2.0268,-1.2645 Z" stroke-linecap="round" fill="#9398b0"/></g></g><g transform="matrix(1, 0, 0, 1, -412.0939, 3234.5691)" opacity="1"><g transform="scale(1)"><path d="M-0.9224,-1.8448 T0.1638,-2.3922 3.0066,-3.7562 6.3995,-4.9373 9.5141,-4.9349 11.8691,-3.084 12.685,-0.1548 11.7459,2.912 9.6583,5.5818 7.689,7.1159 6.9291,7.6019 A2.0784,2.0784 0 0 1 4.7371,4.07 T6.1346,3.0198 6.9553,0.6218 4.7401,0.0189 2.012,1.3043 0.9224,1.8448 A2.0626,2.0626 0 0 1 -0.9224,-1.8448 ZM7.8704,5.4247 T7.8612,5.649 9.8958,5.7183 13.8541,6.3723 15.7686,7.1812 A2.173,2.173 0 0 1 14.1114,11.1988 T12.1641,10.4299 8.5024,9.5331 5.5108,8.6401 4.0146,7.061 3.7958,6.2472 A2.0784,2.0784 0 0 1 7.8704,5.4247 Z" stroke-linecap="round" fill="#9398b0"/></g></g><g transform="matrix(1, 0, 0, 1, -395.4309, 3266.1713)" opacity="1"><g transform="scale(1)"><path d="M0.5488,-1.4678 T1.6454,-1.0846 4.4482,-0.8081 7.1414,-1.2236 8.1285,-1.5325 A1.6094,1.6094 0 0 1 9.1115,1.5325 T7.0331,2.183 3.2821,2.581 0.5304,1.8982 -0.5488,1.4678 A1.567,1.567 0 0 1 0.5488,-1.4678 Z" stroke-linecap="round" fill="#9398b0"/></g></g><g transform="matrix(1, 0, 0, 1, -369, 3253.5304)" opacity="1"><g transform="scale(1)"><path d="M1.7084,1.3691 T1.165,2.0459 1.3211,4.1133 3.3947,6.7839 5.6229,9.9402 6.1383,13.3506 4.7468,16.5153 2.224,19.1453 -0.6857,20.8141 -3.6471,21.9016 -6.8133,22.3772 -9.8084,21.5223 -11.6373,18.933 -12.1838,16.522 -12.2517,15.7883 A1.9318,1.9318 0 0 1 -8.4283,15.2317 T-8.0883,16.6776 -6.2723,17.8649 -3.017,16.9329 0.113,15.1694 1.5794,12.5069 0.4773,9.8257 -2.0087,7.6461 -3.9109,4.9483 -3.6713,1.6567 -2.2529,-0.6884 -1.7084,-1.3691 A2.1893,2.1893 0 0 1 1.7084,1.3691 Z" stroke-linecap="round" fill="#9398b0"/></g></g><g transform="matrix(1, 0, 0, 1, -372.4475, 3252.9558)" opacity="1"><g transform="scale(1)"><path d="M0,-2.0214 T1.4947,-2.0831 5.6963,-2.2091 10.4734,-2.7814 14.8145,-4.0416 17.0854,-4.7941 A2.056,2.056 0 0 1 18.5346,-0.9459 T17.314,-0.4324 13.7629,0.8804 9.9283,1.9766 5.7068,2.2091 1.4947,2.0831 0,2.0214 A2.0214,2.0214 0 0 1 0,-2.0214 Z" stroke-linecap="round" fill="#9398b0"/></g></g><g transform="matrix(1, 0, 0, 1, -339.1215, 3263.8729)" opacity="1"><g transform="scale(1)"><path d="M1.4424,1.2605 T0.5106,2.3656 -1.5154,4.5396 -4.5977,7.6682 -8.3525,11.211 -12.3722,13.8037 -14.6253,14.9134 A1.9106,1.9106 0 0 1 -16.3947,11.5266 T-15.3543,10.9336 -12.787,9.2244 -9.3484,6.4911 -5.4092,2.8775 -2.412,-0.1898 -1.4424,-1.2605 A1.9156,1.9156 0 0 1 1.4424,1.2605 Z" stroke-linecap="round" fill="#9398b0"/></g></g><g transform="matrix(1, 0, 0, 1, -351.7624, 3265.5967)" opacity="1"><g transform="scale(1)"><path d="M1.1078,-1.3316 T1.9316,-0.6624 4.0768,1.0431 6.6005,2.9629 9.0513,4.539 12.36,6.0611 14.4201,6.8909 A1.8404,1.8404 0 0 1 13.1599,10.3491 T11.1468,9.6525 7.3881,7.9646 4.4417,6.0019 1.8746,3.8693 -0.2998,2.0199 -1.1078,1.3316 A1.7322,1.7322 0 0 1 1.1078,-1.3316 Z" stroke-linecap="round" fill="#9398b0"/></g></g><g transform="matrix(1, 0, 0, 1, -314.989, 3254.6796)" opacity="1"><g transform="scale(1)"><path d="M1.7192,-0.3128 T1.987,1.1828 2.504,5.3575 2.6897,10.4307 2.4922,14.7997 2.3579,16.7747 A1.7916,1.7916 0 0 1 -1.2179,16.5453 T-1.0932,14.4842 -0.8791,10.3373 -0.9784,5.7759 -1.4431,1.8066 -1.7192,0.3128 A1.7474,1.7474 0 0 1 1.7192,-0.3128 Z" stroke-linecap="round" fill="#9398b0"/></g></g><g transform="matrix(1, 0, 0, 1, -309.2431, 3264.4475)" opacity="1"><g transform="scale(1)"><path d="M-0.8132,1.6292 T-2.1887,0.9825 -5.8141,-0.3064 -10.7357,-1.3014 -13.4074,-1.6541 A1.8056,1.8056 0 0 1 -13.0326,-5.2459 T-11.561,-5.1311 -7.3081,-4.5893 -3.201,-3.6066 -0.5311,-2.34 0.8132,-1.6292 A1.8208,1.8208 0 0 1 -0.8132,1.6292 Z" stroke-linecap="round" fill="#9398b0"/></g></g><g transform="matrix(1, 0, 0, 1, -289.1326, 3250.0829)" opacity="1"><g transform="scale(1)"><path d="M-0.2932,1.7747 T-1.0124,1.6199 -2.9137,2.886 -5.0363,6.195 -6.6961,10.3729 -7.5969,14.8617 -7.4062,18.6405 -5.5447,20.9999 -2.1988,21.9388 1.3602,21.9509 1.9885,20.353 -0.3167,18.6125 -1.5475,18.3227 A1.7096,1.7096 0 0 1 -0.7525,14.9973 T0.0236,15.1667 2.3249,15.9111 5.0559,17.3944 6.986,19.5637 7.2895,22.4369 5.0782,24.7985 1.3464,25.7018 -2.8865,25.617 -7.0793,24.3963 -10.1116,21.295 -11.2495,16.7901 -10.7756,11.8023 -9.2718,6.7758 -6.8835,2.3076 -3.5252,-0.8705 -0.6195,-1.8896 0.2932,-1.7747 A1.7987,1.7987 0 0 1 -0.2932,1.7747 Z" stroke-linecap="round" fill="#9398b0"/></g></g><g transform="matrix(1, 0, 0, 1, -255.8066, 3258.7017)" opacity="1"><g transform="scale(1)"><path d="M0.3828,-1.5313 T1.4803,-1.2991 4.2303,-0.9298 7.3541,-0.8511 10.3615,-1.0206 11.8977,-1.1317 A1.7104,1.7104 0 0 1 12.2423,2.2717 T11.0032,2.4416 7.6536,2.6838 3.6585,2.4555 0.6955,1.8431 -0.3828,1.5313 A1.5784,1.5784 0 0 1 0.3828,-1.5313 Z" stroke-linecap="round" fill="#9398b0"/></g></g><g transform="matrix(1, 0, 0, 1, -255.232, 3266.1713)" opacity="1"><g transform="scale(1)"><path d="M0.3558,-1.5995 T1.5851,-1.3582 4.7109,-0.9485 8.3697,-0.9049 11.347,-1.0576 12.562,-1.0855 A1.6574,1.6574 0 0 1 12.718,2.2255 T11.5058,2.312 8.3194,2.5709 4.2109,2.4741 0.8603,1.9022 -0.3558,1.5995 A1.6386,1.6386 0 0 1 0.3558,-1.5995 Z" stroke-linecap="round" fill="#9398b0"/></g></g><g transform="matrix(1, 0, 0, 1, -213.8619, 3256.4033)" opacity="1"><g transform="scale(1)"><path d="M-1.6322,0.6984 T-1.9653,-0.1724 -4.1475,-0.0269 -7.265,2.5252 -9.1649,5.678 -9.1392,8.656 -7.0969,10.5914 -3.3958,11.364 1.3978,11.1334 6.0108,9.7985 9.3101,7.679 9.2845,5.0284 7.1998,2.8576 6.3044,2.1242 A1.9427,1.9427 0 0 1 8.6356,-0.9842 T9.5904,-0.3301 12.3304,2.0492 14.358,5.9623 13.2812,9.9191 9.7833,12.8155 6.2006,14.3869 3.2204,15.1413 -1.2827,15.3482 -6.8428,14.4551 -11.0382,12.1134 -12.8886,8.4172 -12.2913,4.1473 -9.7522,0.0857 -5.9175,-3.0394 -1.5326,-3.4943 1.1517,-1.7291 1.6322,-0.6984 A1.7754,1.7754 0 0 1 -1.6322,0.6984 Z" stroke-linecap="round" fill="#9398b0"/></g></g><g transform="matrix(1, 0, 0, 1, -93.7735, 3246.0608)" opacity="1"><g transform="scale(1)"><path d="M1.9049,0.1888 T1.7866,1.5503 1.6279,4.3923 1.5591,8.2443 1.183,13.4652 0.8353,16.3148 A1.998,1.998 0 0 1 -3.1353,15.8652 T-2.859,13.2052 -2.4968,8.1163 -2.3092,4.1076 -2.0562,1.1695 -1.9049,-0.1888 A1.9143,1.9143 0 0 1 1.9049,0.1888 Z" stroke-linecap="round" fill="#9398b0"/></g></g><g transform="matrix(1, 0, 0, 1, -95.4972, 3244.9116)" opacity="1"><g transform="scale(1)"><path d="M0.1985,-1.6018 T1.2902,-1.498 3.8701,-1.461 7.2913,-2.7309 10.1276,-4.6184 11.0311,-5.3029 A1.6508,1.6508 0 0 1 13.1089,-2.7371 T11.389,-1.2592 7.7263,1.0903 3.8766,1.9476 0.8856,1.7676 -0.1985,1.6018 A1.614,1.614 0 0 1 0.1985,-1.6018 Z" stroke-linecap="round" fill="#9398b0"/></g></g><g transform="matrix(1, 0, 0, 1, -94.9227, 3253.5304)" opacity="1"><g transform="scale(1)"><path d="M0.3653,-1.4611 T1.4601,-1.2387 4.5102,-1.3451 7.3455,-1.8806 8.2254,-2.0873 A1.5678,1.5678 0 0 1 9.0146,0.9473 T7.3072,1.4333 3.6983,2.0117 0.7157,1.7826 -0.3653,1.4611 A1.5061,1.5061 0 0 1 0.3653,-1.4611 Z" stroke-linecap="round" fill="#9398b0"/></g></g><g transform="matrix(1, 0, 0, 1, -80.558, 3252.9558)" opacity="1"><g transform="scale(1)"><path d="M1.7592,0.218 T1.6156,1.3049 1.1605,4.488 2.3655,7.1869 4.9028,6.4925 6.1877,4.4424 6.4518,3.6893 A1.7542,1.7542 0 0 1 9.9415,4.0509 T9.6108,5.2363 8.5172,7.807 6.2891,10.2489 3.022,11.4894 -0.2231,10.7509 -2.1631,8.0236 -2.3356,4.0893 -1.8852,0.8709 -1.7592,-0.218 A1.7727,1.7727 0 0 1 1.7592,0.218 ZM9.9406,4.0592 T9.8717,4.5958 10.7062,6.2562 12.3123,7.9017 13.0151,8.4235 A1.6451,1.6451 0 0 1 11.1249,11.1165 T9.5515,10.0177 7.1505,6.9962 6.3878,4.3773 6.4527,3.681 A1.7542,1.7542 0 0 1 9.9406,4.0592 Z" stroke-linecap="round" fill="#9398b0"/></g></g><g transform="matrix(1, 0, 0, 1, -65.0442, 3240.8895)" opacity="1"><g transform="scale(1)"><path d="M1.4792,-0.1129 T1.6198,1.6534 1.851,4.9146 2.0142,8.1575 2.0036,11.4429 1.9484,14.8189 2.0574,17.7243 2.1383,18.7909 A1.5774,1.5774 0 0 1 -0.9983,19.1291 T-1.2868,16.9794 -1.3444,12.4015 -1.1159,8.2651 -1.1697,5.102 -1.3502,1.88 -1.4792,0.1129 A1.4835,1.4835 0 0 1 1.4792,-0.1129 Z" stroke-linecap="round" fill="#9398b0"/></g></g><g transform="matrix(1, 0, 0, 1, -61.0221, 3236.8674)" opacity="1"><g transform="scale(1)"><path d="M1.9184,0.4643 T2.0363,2.913 2.3721,7.4229 2.7146,11.0262 2.9693,15.623 2.8489,21.4998 2.5985,24.3218 A2.0375,2.0375 0 0 1 -1.4585,23.9382 T-1.1968,21.3436 -0.9817,15.7984 -1.123,11.3544 -1.4165,7.7152 -1.7667,3.1225 -1.9184,0.6757 A1.9213,1.9213 0 0 1 1.9184,0.4643 Z" stroke-linecap="round" fill="#9398b0"/></g></g><g transform="matrix(1, 0, 0, 1, -42.6354, 3242.6133)" opacity="1"><g transform="scale(1)"><path d="M-1.8916,-0.4715 T-1.4766,-2.0991 -1.4756,-4.6788 -1.8896,-5.6308 A1.9665,1.9665 0 0 1 -0.0262,-9.0943 T1.0424,-8.2946 2.3998,-5.1478 2.2902,-1.1646 1.8916,0.4715 A1.9495,1.9495 0 0 1 -1.8916,-0.4715 ZM0.3411,-5.8861 T-0.2451,-5.3672 -1.5232,-3.43 -2.9548,-0.0281 -3.9813,3.5343 -4.431,6.8868 -4.5465,10.2063 -4.3469,13.2385 -3.7679,17.2521 -3.341,19.7797 A1.8585,1.8585 0 0 1 -6.999,20.4403 T-7.5091,17.7796 -8.1873,13.492 -8.4045,10.0894 -8.2786,6.3596 -7.7495,2.5195 -6.631,-1.4363 -4.6543,-5.6543 -2.8494,-8.3208 -2.2568,-8.839 A1.9665,1.9665 0 0 1 0.3411,-5.8861 Z" stroke-linecap="round" fill="#9398b0"/></g></g><g transform="matrix(1, 0, 0, 1, -52.4033, 3254.105)" opacity="1"><g transform="scale(1)"><path d="M0.4143,-1.4484 T1.373,-1.2082 4.1776,-0.7966 8.1284,-0.8024 10.2333,-0.9796 A1.5532,1.5532 0 0 1 10.4467,2.1196 T9.6176,2.1901 7.2889,2.4246 3.6303,2.3222 0.5285,1.7521 -0.4143,1.4484 A1.5065,1.5065 0 0 1 0.4143,-1.4484 Z" stroke-linecap="round" fill="#9398b0"/></g></g><g transform="matrix(1, 0, 0, 1, -37.4641, 3254.6796)" opacity="1"><g transform="scale(1)"><path d="M-1.7354,-0.5751 T-1.5983,-0.9811 -1.4612,-1.3871 A1.8233,1.8233 0 0 1 2.0004,-0.24 T1.8679,0.1676 1.7354,0.5751 A1.8282,1.8282 0 0 1 -1.7354,-0.5751 ZM-1.1532,0.3267 T-1.2164,0.2466 -1.2796,0.1666 A1.8219,1.8219 0 0 1 1.5638,-2.112 T1.6281,-2.0329 1.6925,-1.9538 A1.8233,1.8233 0 0 1 -1.1532,0.3267 ZM1.4629,0.2822 T1.1502,0.5935 0.078,2.3811 0.0712,5.1395 2.0105,5.2281 3.3998,2.412 3.5549,-0.1053 3.5075,-1.0003 A1.6692,1.6692 0 0 1 6.8325,-1.2997 T6.9457,-0.4106 7.0047,2.4158 6.0504,6.0436 3.4077,8.8279 -0.2267,9.535 -3.1694,7.4299 -4.0208,3.8936 -2.976,0.4428 -1.6546,-1.7089 -1.1787,-2.2276 A1.8219,1.8219 0 0 1 1.4629,0.2822 Z" stroke-linecap="round" fill="#9398b0"/></g></g><g transform="matrix(1, 0, 0, 1, -26.547, 3260.4254)" opacity="1"><g transform="scale(1)"><path d="M-1.3735,-0.4552 T-1.248,-0.8201 -1.7491,-2.7221 -1.6796,-5.6936 0.6614,-7.4847 4.0316,-7.7072 7.4048,-7.5024 11.1424,-7.3525 13.2321,-7.2731 A1.5231,1.5231 0 0 1 13.2079,-4.2269 T12.1019,-4.2045 9.1303,-4.1566 5.526,-4.2153 2.2604,-4.179 1.1976,-2.2503 1.5176,0.0065 1.3735,0.4552 A1.447,1.447 0 0 1 -1.3735,-0.4552 Z" stroke-linecap="round" fill="#9398b0"/></g></g><g transform="matrix(1, 0, 0, 1, -34.5912, 3248.9337)" opacity="1"><g transform="scale(1)"><path d="M1.6179,0.3236 T1.3633,1.6866 0.9318,5.7406 0.6821,11.1175 0.5587,16.6784 0.508,19.5534 A1.6581,1.6581 0 0 1 -2.808,19.5266 T-2.8089,18.0075 -2.8015,13.8135 -2.7558,9.6923 -2.6302,6.7905 -2.3694,3.8624 -1.9073,1.0332 -1.6179,-0.3236 A1.6499,1.6499 0 0 1 1.6179,0.3236 Z" stroke-linecap="round" fill="#9398b0"/></g></g><g transform="matrix(1, 0, 0, 1, 13.674, 3232.2707)" opacity="1"><g transform="scale(1)"><path d="M-0.8265,1.6675 T-1.0967,1.5291 -1.3668,1.3906 A1.853,1.853 0 0 1 0.2789,-1.9298 T0.5527,-1.7987 0.8265,-1.6675 A1.8611,1.8611 0 0 1 -0.8265,1.6675 ZM1.2595,0.1558 T1.1131,0.7627 0.6681,3.2461 0.3314,7.0182 0.2814,10.7472 0.2567,14.091 0.2318,17.3455 0.6033,21.9525 1.3063,26.5986 1.6256,28.3814 A1.6625,1.6625 0 0 1 -1.6256,29.0786 T-2.0653,27.3216 -2.9296,23.8747 -3.4879,20.6285 -3.6166,17.3163 -3.5919,14.0383 -3.5226,10.6589 -3.3942,6.7822 -2.9717,2.6424 -2.4876,-0.0865 -2.3474,-0.695 A1.853,1.853 0 0 1 1.2595,0.1558 Z" stroke-linecap="round" fill="#9398b0"/></g></g><g transform="matrix(1, 0, 0, 1, 21.7182, 3247.2099)" opacity="1"><g transform="scale(1)"><path d="M1.6898,1.1198 T0.7402,2.0717 -1.7197,4.4052 -4.3065,6.8058 -3.7464,8.6987 -0.433,9.9138 2.4324,10.4045 3.6209,10.5539 A1.5257,1.5257 0 0 1 3.2791,13.5861 T2.0871,13.4672 -1.0339,12.9916 -4.5096,11.9999 -7.2215,10.0763 -7.9316,7.1368 -6.3594,4.386 -3.8479,2.0329 -1.5017,-0.1702 -0.5498,-1.1198 A1.5836,1.5836 0 0 1 1.6898,1.1198 Z" stroke-linecap="round" fill="#9398b0"/></g></g><g transform="matrix(1, 0, 0, 1, 25.7403, 3252.9558)" opacity="1"><g transform="scale(1)"><path d="M1.4013,-0.8743 T2.0707,0.2198 3.751,3.0586 5.6871,6.0361 7.5825,5.0916 9.2252,0.7735 10.2753,-2.6039 10.6528,-3.8404 A1.4699,1.4699 0 0 1 13.4872,-3.0596 T12.9014,-0.6603 11.6214,3.9791 9.4992,8.285 6.2297,10.0396 3.226,8.1755 1.0193,4.8302 -0.7132,1.956 -1.4013,0.8743 A1.6516,1.6516 0 0 1 1.4013,-0.8743 Z" stroke-linecap="round" fill="#9398b0"/></g></g><g transform="matrix(1, 0, 0, 1, 42.9779, 3253.5304)" opacity="1"><g transform="scale(1)"><path d="M-0.4777,0.8293 T-1.0301,0.1386 -1.5825,-0.5521 A1.3451,1.3451 0 0 1 0.527,-2.2217 T1.0724,-1.5255 1.6177,-0.8293 A1.3362,1.3362 0 0 1 -0.4777,0.8293 ZM0.2326,-0.2772 T-0.04,-0.0884 -0.9083,1.5092 -1.5735,4.4097 -1.2146,6.3733 -0.7862,6.8453 A1.4921,1.4921 0 0 1 -2.117,9.5163 T-3.3189,7.9471 -4.5106,4.8845 -3.9908,1.8775 -2.676,-0.8688 -1.5794,-2.299 -1.288,-2.4965 A1.3451,1.3451 0 0 1 0.2326,-0.2772 ZM-1.9465,6.7731 T-1.4896,6.6185 -0.0269,4.7239 1.0893,2.6294 1.1998,2.275 A1.4323,1.4323 0 0 1 3.937,3.1197 T3.27,4.8596 1.3225,7.9124 -0.4573,9.4068 -0.9567,9.5884 A1.4921,1.4921 0 0 1 -1.9465,6.7731 ZM3.2799,1.4543 T3.3508,1.4958 3.4218,1.5373 A1.4307,1.4307 0 0 1 2.0003,4.0207 T1.9286,3.9806 1.8569,3.9404 A1.4323,1.4323 0 0 1 3.2799,1.4543 ZM4.1372,2.6653 T4.188,3.3958 5.5239,5.949 6.809,7.7717 A1.3568,1.3568 0 0 1 4.691,9.4683 T4.0999,8.7517 2.4609,6.1737 1.3489,3.6025 1.2848,2.8927 A1.4307,1.4307 0 0 1 4.1372,2.6653 Z" stroke-linecap="round" fill="#9398b0"/></g></g><g transform="matrix(1, 0, 0, 1, 57.9171, 3254.6796)" opacity="1"><g transform="scale(1)"><path d="M-0.7139,1.4319 T-1.4636,1.0241 -3.0186,2.1105 -3.0472,4.9297 -0.7618,4.4819 1.7403,0.358 3.2454,-3.6539 4.1623,-7.2168 4.7796,-11.0388 5.1054,-15.1887 5.1364,-19.0918 4.807,-22.6065 4.3695,-24.5377 4.179,-24.6274 A1.4544,1.4544 0 0 1 6.451,-26.4437 T6.9022,-25.7307 7.6441,-22.9569 8.0089,-19.0875 7.973,-14.966 7.6511,-10.5935 7.0395,-6.4924 6.1449,-2.7576 4.6113,1.4755 2.8428,5.4847 0.4906,8.0503 -2.8331,8.996 -5.6113,7.5577 -6.7087,4.4921 -5.9672,1.0726 -3.1279,-1.4063 -0.1683,-1.8377 0.7139,-1.4319 A1.6,1.6 0 0 1 -0.7139,1.4319 ZM6.5865,-24.8294 T6.1888,-24.1665 5.6844,-21.266 5.5472,-16.3229 5.5137,-12.0291 5.6454,-8.7074 6.1119,-5.155 6.96,-0.7751 7.8702,3.2922 8.264,4.7987 A1.4136,1.4136 0 0 1 5.536,5.5413 T5.1118,4.0431 4.1089,-0.1323 3.177,-4.7806 2.6912,-8.602 2.5687,-12.0472 2.6204,-16.3953 2.8152,-21.6739 3.5059,-25.2205 4.0435,-26.2417 A1.4544,1.4544 0 0 1 6.5865,-24.8294 Z" stroke-linecap="round" fill="#9398b0"/></g></g><g transform="matrix(1, 0, 0, 1, 70.558, 3260.4254)" opacity="1"><g transform="scale(1)"><path d="M-0.735,0 T-0.7676,-1.6314 -1.1722,-5.6208 -1.5953,-9.1238 -1.6463,-10.2689 A1.4739,1.4739 0 0 1 1.3003,-10.3557 T1.311,-9.4088 1.6309,-5.8632 1.9076,-1.6323 1.875,0 A1.305,1.305 0 0 1 -0.735,0 ZM0.3132,-11.7038 T1.2041,-11.3706 3.5279,-9.7768 4.9608,-8.5161 A1.4069,1.4069 0 0 1 3.0792,-6.4239 T1.8186,-7.4815 -0.0506,-8.73 -0.6592,-8.9208 A1.4739,1.4739 0 0 1 0.3132,-11.7038 Z" stroke-linecap="round" fill="#9398b0"/></g></g><g transform="matrix(1, 0, 0, 1, 82.6243, 3252.9558)" opacity="1"><g transform="scale(1)"><path d="M-1.3635,-0.2708 T-1.1963,-0.7931 -1.3486,-1.2864 -1.6679,-1.2573 A1.387,1.387 0 0 1 -0.9314,-3.9317 T0.3185,-2.6657 1.4659,-0.5644 1.3635,0.2708 A1.3901,1.3901 0 0 1 -1.3635,-0.2708 ZM-0.5263,-1.4432 T-1.0349,-1.102 -2.2745,0.8908 -2.7853,4.1714 -1.4281,4.4989 -0.2445,2.6921 -0.1983,2.1866 A1.3531,1.3531 0 0 1 2.4983,2.4134 T2.3453,4.068 1.5011,7.2087 -0.6915,9.1139 -3.6936,8.1446 -5.5337,5.1737 -5.6987,2.0423 -4.3071,-1.2841 -2.5815,-3.4037 -2.0731,-3.7458 A1.387,1.387 0 0 1 -0.5263,-1.4432 ZM2.5031,2.3063 T2.4997,3.0044 3.4034,4.9926 5.9776,4.7072 7.6446,3.1316 A1.3193,1.3193 0 0 1 9.5954,4.9084 T8.2975,6.3471 5.2345,8.3381 2.2333,8.0478 0.3939,5.4638 -0.2062,3.0081 -0.2031,2.2937 A1.3531,1.3531 0 0 1 2.5031,2.3063 Z" stroke-linecap="round" fill="#9398b0"/></g></g><g transform="matrix(1, 0, 0, 1, 95.2652, 3227.674)" opacity="1"><g transform="scale(1)"><path d="M2.0326,0 T2.0188,1.9015 2.0023,5.4861 2.0007,9.0071 2.0167,12.6293 2.0391,16.0329 2.0638,19.4557 2.2176,22.6852 2.6857,26.5186 3.3364,30.3928 3.6554,31.8593 A1.3928,1.3928 0 0 1 0.9446,32.5007 T0.5727,31.0467 -0.2323,26.9903 -0.8033,22.8243 -0.9238,19.4563 -0.8991,16.0329 -0.8767,12.6293 -0.8607,9.0071 -0.8623,5.4861 -0.8788,1.9015 -0.8926,0 A1.4626,1.4626 0 0 1 2.0326,0 Z" stroke-linecap="round" fill="#9398b0"/></g></g><g transform="matrix(1, 0, 0, 1, 92.9669, 3246.0608)" opacity="1"><g transform="scale(1)"><path d="M0.8927,-1.0731 T1.7156,-0.4031 3.8953,1.2777 7.0179,2.7356 8.7838,3.1827 A1.4268,1.4268 0 0 1 8.4562,6.0173 T7.6433,5.9352 5.1088,5.1951 2.0562,3.4926 -0.0838,1.7606 -0.8927,1.0731 A1.3959,1.3959 0 0 1 0.8927,-1.0731 Z" stroke-linecap="round" fill="#9398b0"/></g></g><g transform="matrix(1, 0, 0, 1, -446.5691, 3316.1602)" opacity="1"><g transform="scale(1)"><path d="M1.3509,1.1593 T0.5341,2.1094 -1.7841,4.69 -4.5373,7.7564 -6.9539,10.6346 -9.1591,13.3484 -11.3639,15.7058 -12.5283,16.7919 A1.7986,1.7986 0 0 1 -15.0517,14.2281 T-14.4661,13.6215 -12.4849,11.4016 -9.864,8.3345 -7.2658,5.3605 -4.437,2.292 -2.166,-0.2079 -1.3509,-1.1593 A1.7802,1.7802 0 0 1 1.3509,1.1593 Z" stroke-linecap="round" fill="#9398b0"/></g></g><g transform="matrix(1, 0, 0, 1, -458.0608, 3316.7348)" opacity="1"><g transform="scale(1)"><path d="M1.8275,-0.4569 T2.0892,0.6318 3.0693,3.3338 4.7178,6.5005 6.7013,9.5275 9.3479,12.5383 11.5702,14.6689 12.1993,15.2622 A1.8949,1.8949 0 0 1 9.6407,18.0578 T8.4447,16.9967 5.9737,14.6521 3.5511,11.7 1.3898,8.2551 -0.4435,4.555 -1.5453,1.544 -1.8275,0.4569 A1.8838,1.8838 0 0 1 1.8275,-0.4569 Z" stroke-linecap="round" fill="#9398b0"/></g></g><g transform="matrix(1, 0, 0, 1, -448.8674, 3294.326)" opacity="1"><g transform="scale(1)"><path d="M0.4907,-1.9627 T1.5819,-1.705 4.2143,-1.2747 7.2011,-1.0549 9.6462,-0.8387 10.6457,-0.6696 A2.1096,2.1096 0 0 1 9.8982,3.4828 T9.2125,3.3485 6.9565,3.1398 3.5324,2.8003 0.5939,2.249 -0.4907,1.9627 A2.0231,2.0231 0 0 1 0.4907,-1.9627 ZM12.1418,2.3834 T11.5563,3.4269 9.7872,5.6945 10.2239,8.2328 12.8002,9.8501 13.7563,10.1534 A1.9902,1.9902 0 0 1 12.6837,13.9866 T10.79,13.5272 7.4911,12.6772 4.9197,11.422 3.6077,8.8396 4.5667,5.5858 6.7247,2.9147 8.0901,1.1046 8.4022,0.4299 A2.1096,2.1096 0 0 1 12.1418,2.3834 Z" stroke-linecap="round" fill="#9398b0"/></g></g><g transform="matrix(1, 0, 0, 1, -433.9282, 3321.3315)" opacity="1"><g transform="scale(1)"><path d="M0.4826,-1.2906 T1.5737,-0.8992 5.1839,-0.0738 7.7028,0.3602 A1.3796,1.3796 0 0 1 7.2372,3.0798 T4.4619,2.6074 0.6021,1.7128 -0.4826,1.2906 A1.3779,1.3779 0 0 1 0.4826,-1.2906 Z" stroke-linecap="round" fill="#9398b0"/></g></g><g transform="matrix(1, 0, 0, 1, -407.4972, 3317.884)" opacity="1"><g transform="scale(1)"><path d="M-1.2776,-1.5358 T-0.4459,-2.1956 1.9489,-3.7605 5.2749,-5.1273 8.9193,-5.726 12.6015,-5.2327 15.1803,-3.1242 15.9473,-0.105 15.2036,2.846 13.185,5.6549 10.506,8.2273 7.7144,10.2699 5.2683,11.3999 4.2209,11.6606 A1.8553,1.8553 0 0 1 3.4706,8.0267 T4.5268,7.6283 6.8342,6.3017 9.5566,3.8892 11.5876,0.8946 10.8071,-1.2735 7.9137,-1.7689 4.6192,-0.733 2.0778,0.8381 1.2776,1.5358 A1.9977,1.9977 0 0 1 -1.2776,-1.5358 ZM5.5962,9.229 T5.639,9.3458 5.6819,9.4626 A1.8587,1.8587 0 0 1 2.1744,10.6943 T2.1348,10.5763 2.0952,10.4584 A1.8553,1.8553 0 0 1 5.5962,9.229 ZM4.2241,8.2435 T4.768,8.321 7.0979,8.65 11.0265,8.9821 14.0615,9.0994 14.954,9.1362 A1.7839,1.7839 0 0 1 14.926,12.7038 T13.2239,12.7498 10.0861,12.7715 6.7688,12.4418 4.2596,12.0248 3.6322,11.9134 A1.8587,1.8587 0 0 1 4.2241,8.2435 Z" stroke-linecap="round" fill="#9398b0"/></g></g><g transform="matrix(1, 0, 0, 1, -381.6409, 3323.0552)" opacity="1"><g transform="scale(1)"><path d="M 0 0 m -2.633441917710341, 0 a 2.633441917710341,2.633441917710341 0 1,1 5.266883835420682,0 a 2.633441917710341,2.633441917710341 0 1,1 -5.266883835420682,0" stroke-linecap="round" fill="#9398b0"/></g></g><g transform="matrix(1, 0, 0, 1, -360.3812, 3312.1381)" opacity="1"><g transform="scale(1)"><path d="M1.49,1.0638 T0.8028,2.0107 -0.7221,4.1 -1.5598,5.2424 A1.7947,1.7947 0 0 1 -4.7277,3.5545 T-3.7791,2.1999 -2.1603,-0.1092 -1.49,-1.0638 A1.8308,1.8308 0 0 1 1.49,1.0638 ZM-2.5442,2.7068 T-1.8716,2.9582 0.7194,3.6837 4.2972,5.0818 6.8915,7.6111 6.9666,11.1535 4.181,14.2387 0.6539,15.9053 -2.7308,16.4234 -5.9758,15.3653 -7.8574,13.7294 -8.2776,13.1517 A1.7515,1.7515 0 0 1 -5.5224,10.9883 T-5.0608,11.5336 -3.1916,12.4222 0.077,12.1491 3.1609,10.3967 2.923,8.3786 -0.2408,7.0992 -2.8436,6.396 -3.7433,6.0901 A1.7947,1.7947 0 0 1 -2.5442,2.7068 Z" stroke-linecap="round" fill="#9398b0"/></g></g><g transform="matrix(1, 0, 0, 1, -360.3812, 3310.989)" opacity="1"><g transform="scale(1)"><path d="M-0.2134,-1.722 T0.8715,-1.8818 3.9308,-2.1919 7.9225,-2.595 12.3039,-3.161 14.668,-3.4743 A1.7752,1.7752 0 0 1 15.212,0.0343 T12.7117,0.4753 8.1357,1.1427 4.2276,1.4357 1.3043,1.6122 0.2134,1.722 A1.7351,1.7351 0 0 1 -0.2134,-1.722 Z" stroke-linecap="round" fill="#9398b0"/></g></g><g transform="matrix(1, 0, 0, 1, -349.4641, 3333.9724)" opacity="1"><g transform="scale(1)"><path d="M0,1.5467 T-1.9017,1.5643 -5.5509,1.4632 -9.7794,1.2541 -14.196,0.914 -17.9995,0.2471 -19.8673,-0.17 A1.5842,1.5842 0 0 1 -19.2127,-3.27 T-17.5082,-2.9329 -13.9802,-2.3663 -9.5984,-2.0103 -5.4213,-1.7328 -1.9013,-1.5643 0,-1.5467 A1.5467,1.5467 0 0 1 0,1.5467 Z" stroke-linecap="round" fill="#9398b0"/></g></g><g transform="matrix(1, 0, 0, 1, -363.8287, 3340.2928)" opacity="1"><g transform="scale(1)"><path d="M0.9932,-1.592 T2.0728,-0.8967 4.2919,1.0006 5.4184,3.6599 4.0222,6.6564 1.4166,9.062 -0.2224,10.5718 -0.6391,11.2151 A1.7483,1.7483 0 0 1 -3.9742,10.1646 T-3.4401,9.0189 -1.5797,6.9236 0.4729,4.4453 0.103,2.2542 -0.9932,1.592 A1.8764,1.8764 0 0 1 0.9932,-1.592 ZM-1.6311,9.0774 T-1.0721,9.3129 1.0577,9.8485 4.9101,10.0046 8.1237,9.8073 9.0558,9.754 A1.7411,1.7411 0 0 1 9.3242,13.226 T7.6263,13.3923 4.1401,13.6576 0.5051,13.3719 -2.1618,12.6447 -2.9822,12.3024 A1.7483,1.7483 0 0 1 -1.6311,9.0774 Z" stroke-linecap="round" fill="#9398b0"/></g></g><g transform="matrix(1, 0, 0, 1, -324.1823, 3319.6077)" opacity="1"><g transform="scale(1)"><path d="M0.9972,1.1208 T-0.2018,2.2354 -3.3533,5.2762 -7.2603,8.6094 -10.7478,11.0953 -12.2811,12.1744 A1.5669,1.5669 0 0 1 -14.1589,9.6656 T-13.3506,9.0237 -10.9652,7.2854 -7.5265,4.5647 -4.5775,1.971 -2.2437,-0.0596 -0.9972,-1.1208 A1.5002,1.5002 0 0 1 0.9972,1.1208 Z" stroke-linecap="round" fill="#9398b0"/></g></g><g transform="matrix(1, 0, 0, 1, -335.0994, 3321.3315)" opacity="1"><g transform="scale(1)"><path d="M1.2753,-1.2753 T2.233,-0.3316 4.6587,2.0478 7.3321,4.4512 10.0024,6.5636 11.4672,7.7083 A1.8617,1.8617 0 0 1 9.2128,10.6717 T7.6118,9.4841 4.7482,7.2126 2.049,4.6598 -0.3316,2.233 -1.2753,1.2753 A1.8036,1.8036 0 0 1 1.2753,-1.2753 Z" stroke-linecap="round" fill="#9398b0"/></g></g><g transform="matrix(1, 0, 0, 1, -372.4475, 3363.8508)" opacity="1"><g transform="scale(1)"><path d="M0.6453,-1.9359 T1.458,-1.6571 4.2965,-1.1782 8.3836,-0.7577 13.0561,-0.6196 17.9014,-0.8638 21.4197,-1.1692 22.7037,-1.3129 A1.903,1.903 0 0 1 23.2563,2.4529 T21.9851,2.6842 18.3584,3.2083 14.4841,3.6152 10.4049,3.5691 6.1186,3.2059 2.6929,2.7345 0.1738,2.201 -0.6453,1.9359 A2.0406,2.0406 0 0 1 0.6453,-1.9359 Z" stroke-linecap="round" fill="#e599f7"/></g></g><g transform="matrix(1, 0, 0, 1, -302.3481, 3316.1602)" opacity="1"><g transform="scale(1)"><path d="M1.3844,-0.1249 T1.556,1.3665 1.8609,4.9883 2.0014,9.0033 2.0086,10.8879 A1.439,1.439 0 0 1 -0.8686,10.9521 T-0.9448,9.098 -1.1047,5.1823 -1.2864,1.6229 -1.3844,0.1249 A1.39,1.39 0 0 1 1.3844,-0.1249 Z" stroke-linecap="round" fill="#e599f7"/></g></g><g transform="matrix(1, 0, 0, 1, -298.326, 3321.3315)" opacity="1"><g transform="scale(1)"><path d="M-0.3913,1.4421 T-1.4785,1.5825 -4.207,1.956 -6.7996,2.3752 -7.7509,2.5613 A1.4406,1.4406 0 0 1 -8.3291,-0.2613 T-7.3813,-0.4643 -4.6797,-0.9255 -1.8373,-1.3129 -0.7487,-1.4421 A1.4531,1.4531 0 0 1 -0.3913,1.4421 Z" stroke-linecap="round" fill="#e599f7"/></g></g><g transform="matrix(1, 0, 0, 1, -277.6409, 3303.5193)" opacity="1"><g transform="scale(1)"><path d="M1.7471,0.433 T1.6083,0.9891 0.6638,2.8365 1.2991,5.0095 4.0173,6.8486 5.623,9.5724 4.6454,12.6452 1.4363,14.3555 -2.7676,13.925 -6.1149,12.4001 -7.1615,11.7096 A1.6075,1.6075 0 0 1 -5.4785,8.9704 T-3.2008,10.1057 0.2751,10.1915 -0.2249,8.4406 -3.0127,6.7948 -3.8306,4.4463 -2.7838,1.8364 -1.8779,0.0988 -1.7471,-0.433 A1.8,1.8 0 0 1 1.7471,0.433 Z" stroke-linecap="round" fill="#e599f7"/></g></g><g transform="matrix(1, 0, 0, 1, -278.2155, 3300.6464)" opacity="1"><g transform="scale(1)"><path d="M0.2724,-1.3619 T1.6365,-1.1238 5.0348,-1.2097 7.9494,-1.7461 8.8297,-1.9584 A1.4344,1.4344 0 0 1 9.5503,0.8184 T7.8417,1.2919 4.286,1.8695 1.0833,1.6677 -0.2724,1.3619 A1.3889,1.3889 0 0 1 0.2724,-1.3619 Z" stroke-linecap="round" fill="#e599f7"/></g></g><g transform="matrix(1, 0, 0, 1, -270.1713, 3326.5028)" opacity="1"><g transform="scale(1)"><path d="M0.3646,1.639 T-0.8554,1.9245 -4.2074,2.4679 -8.8188,2.8088 -13.789,2.5783 -16.2799,2.2649 A1.7055,1.7055 0 0 1 -15.9001,-1.1249 T-13.6311,-0.905 -8.9877,-0.7238 -4.7144,-0.9423 -1.59,-1.3805 -0.3646,-1.639 A1.6791,1.6791 0 0 1 0.3646,1.639 Z" stroke-linecap="round" fill="#e599f7"/></g></g><g transform="matrix(1, 0, 0, 1, -282.8122, 3339.7182)" opacity="1"><g transform="scale(1)"><path d="M0.7222,-1.6906 T2.2203,-1.556 5.5435,-0.885 8.2274,1.0702 8.3504,4.0801 6.1966,6.6689 3.4991,8.6812 2.2196,9.6959 A1.6893,1.6893 0 0 1 -0.2655,7.4069 T1.3051,6.1249 3.1428,3.4018 1.9138,1.8256 0.4178,1.6906 A1.6974,1.6974 0 0 1 0.7222,-1.6906 ZM2.0701,7.2633 T2.6183,7.7395 4.7627,8.5918 7.9108,9.0862 10.5033,9.2708 11.5437,9.3371 A1.5838,1.5838 0 0 1 11.4363,12.5029 T9.4178,12.4957 5.8334,12.2864 2.8824,11.6356 0.6906,10.513 -0.116,9.8394 A1.6893,1.6893 0 0 1 2.0701,7.2633 Z" stroke-linecap="round" fill="#e599f7"/></g></g><g transform="matrix(1, 0, 0, 1, -288.558, 3310.4144)" opacity="1"><g transform="scale(1)"><path d="M1.3936,0.6328 T0.7009,2.1212 -0.878,5.7947 -2.6366,9.9741 -3.9813,14.1252 -4.7518,17.7893 -5.0206,21.1899 -4.5724,25.6426 -3.5499,29.992 -2.2201,33.0997 0.0291,35.9566 1.552,37.4958 A1.4045,1.4045 0 0 1 -0.412,39.5042 T-2.1965,37.8093 -4.8682,34.5526 -6.4627,30.8891 -7.5575,26.9335 -8.0659,22.864 -7.7867,18.2165 -6.8189,13.3656 -5.382,8.9389 -3.618,4.6502 -2.0584,0.8682 -1.3936,-0.6328 A1.5305,1.5305 0 0 1 1.3936,0.6328 Z" stroke-linecap="round" fill="#e599f7"/></g></g><g transform="matrix(1, 0, 0, 1, -263.8508, 3311.5635)" opacity="1"><g transform="scale(1)"><path d="M1.6989,-0.7066 T2.3547,0.9347 4.0628,5.3645 5.6784,9.5939 6.7518,13.2691 7.5008,17.2346 7.8778,20.5897 8.0995,24.1691 7.9499,28.2404 7.2995,32.0584 6.3639,35.1189 4.8053,38.2779 2.9899,40.6201 2.2144,41.1617 A1.9739,1.9739 0 0 1 0.1178,37.8166 T0.716,37.3042 2.1241,34.7746 3.3145,31.3085 3.9423,28.051 4.1536,24.3688 4.0283,20.9725 3.7464,17.7956 3.1744,14.2387 2.2527,10.8558 0.7076,6.6634 -0.9972,2.329 -1.6989,0.7066 A1.84,1.84 0 0 1 1.6989,-0.7066 ZM0.1889,41.2042 T-0.6595,40.6752 -1.5079,40.1462 A1.8946,1.8946 0 0 1 0.3679,36.8538 T1.2556,37.3139 2.1432,37.774 A1.9739,1.9739 0 0 1 0.1889,41.2042 Z" stroke-linecap="round" fill="#e599f7"/></g></g><g transform="matrix(1, 0, 0, 1, -259.2541, 3296.6243)" opacity="1"><g transform="scale(1)"><path d="M0.4589,-1.604 T1.4168,-1.3394 3.555,0.0262 4.2204,2.7367 2.6052,5.5729 3.0134,7.0764 6.5848,7.4562 8.6476,7.5592 A1.631,1.631 0 0 1 8.5924,10.8208 T7.4943,10.836 4.5229,10.8476 1.0164,10.5714 -1.5918,8.5631 -1.6601,5.5128 0.3375,3.1805 0.4846,1.8833 -0.4589,1.604 A1.6684,1.6684 0 0 1 0.4589,-1.604 Z" stroke-linecap="round" fill="#e599f7"/></g></g><g transform="matrix(1, 0, 0, 1, -237.4199, 3313.2873)" opacity="1"><g transform="scale(1)"><path d="M1.5093,-0.2746 T1.8139,1.2163 2.1636,4.1769 2.0306,7.8108 1.6315,11.6899 1.2175,14.3211 1.0246,15.2374 A1.6221,1.6221 0 0 1 -2.1646,14.6426 T-1.8947,13.0047 -1.5003,9.5193 -1.2032,5.4717 -1.27,1.7731 -1.5093,0.2746 A1.5341,1.5341 0 0 1 1.5093,-0.2746 Z" stroke-linecap="round" fill="#9398b0"/></g></g><g transform="matrix(1, 0, 0, 1, -232.2486, 3321.3315)" opacity="1"><g transform="scale(1)"><path d="M-0.57,1.5809 T-1.7955,1.5801 -5.8962,1.249 -8.7715,0.9186 A1.4963,1.4963 0 0 1 -8.4685,-2.0586 T-5.7439,-1.819 -1.7947,-1.5801 -0.57,-1.5809 A1.5809,1.5809 0 0 1 -0.57,1.5809 Z" stroke-linecap="round" fill="#9398b0"/></g></g><g transform="matrix(1, 0, 0, 1, -215.5856, 3309.2652)" opacity="1"><g transform="scale(1)"><path d="M1.4164,1.1013 T0.4499,2.3109 -1.8713,5.6187 -3.9544,9.2751 -5.2389,13.0412 -5.8191,16.871 -4.2115,19.5943 -1.1576,20.586 1.0821,19.2895 0.5623,17.1964 -1.986,16.4493 -3.1967,16.6086 A1.6877,1.6877 0 0 1 -3.7033,13.2714 T-2.949,13.1279 0.0728,13.15 3.4723,14.3191 5.0732,17.1073 4.9448,20.429 2.6967,23.0456 -1.2284,24.2073 -5.6862,23.2684 -8.6463,20.5412 -9.3599,16.74 -8.5679,11.9837 -6.9706,7.5487 -4.6943,3.5727 -2.3513,0.1345 -1.4164,-1.1013 A1.7942,1.7942 0 0 1 1.4164,1.1013 Z" stroke-linecap="round" fill="#9398b0"/></g></g><g transform="matrix(1, 0, 0, 1, -195.4751, 3321.3315)" opacity="1"><g transform="scale(1)"><path d="M0,-1.6343 T1.2218,-1.6534 4.5637,-1.9663 6.6837,-2.2603 A1.704,1.704 0 0 1 7.1163,1.1203 T4.7817,1.3963 1.2236,1.6534 0,1.6343 A1.6343,1.6343 0 0 1 0,-1.6343 Z" stroke-linecap="round" fill="#9398b0"/></g></g><g transform="matrix(1, 0, 0, 1, -196.0497, 3327.0773)" opacity="1"><g transform="scale(1)"><path d="M0.1953,-1.576 T1.2818,-1.4486 4.5894,-1.4438 6.8106,-1.5663 A1.5688,1.5688 0 0 1 6.9894,1.5663 T4.4864,1.7134 0.894,1.7182 -0.1953,1.576 A1.588,1.588 0 0 1 0.1953,-1.576 Z" stroke-linecap="round" fill="#9398b0"/></g></g><g transform="matrix(1, 0, 0, 1, -162.1492, 3314.4365)" opacity="1"><g transform="scale(1)"><path d="M-1.3629,1.1338 T-2.0103,0.3389 -4.454,0.2548 -7.2702,2.0228 -8.9441,4.54 -9.8366,7.6957 -10.0211,11.0445 -9.3922,14.0738 -7.3501,16.5413 -3.6693,17.552 -0.0497,16.7846 2.4918,14.9337 3.8519,12.1656 3.0427,8.9899 1.5367,6.7861 1.0642,6.1538 A1.5796,1.5796 0 0 1 3.5358,4.1862 T4.8682,5.8921 6.9209,9.4904 7.174,13.5338 5.7308,16.8974 3.0633,19.2144 -0.9276,20.88 -5.4241,21.144 -9.1473,19.7571 -11.7105,16.9903 -13.2365,13.163 -13.5505,8.907 -12.7112,4.6962 -10.8487,0.9287 -8.3545,-1.7909 -5.4192,-3.435 -1.9187,-3.415 0.6528,-1.9708 1.3629,-1.1338 A1.7729,1.7729 0 0 1 -1.3629,1.1338 Z" stroke-linecap="round" fill="#9398b0"/></g></g><g transform="matrix(1, 0, 0, 1, -143.1878, 3313.8619)" opacity="1"><g transform="scale(1)"><path d="M1.3246,-0.5667 T1.7487,0.3786 2.454,3.4283 2.7284,7.1266 2.6766,10.6828 2.6314,12.6451 A1.4814,1.4814 0 0 1 -0.3314,12.6349 T-0.363,10.6648 -0.3662,7.0758 -0.4418,3.9679 -0.9352,1.5228 -1.3246,0.5667 A1.4407,1.4407 0 0 1 1.3246,-0.5667 Z" stroke-linecap="round" fill="#9398b0"/></g></g><g transform="matrix(1, 0, 0, 1, -138.0166, 3319.6077)" opacity="1"><g transform="scale(1)"><path d="M0,2.1585 T-1.2227,2.1668 -4.9577,2.1613 -7.47,2.1475 A1.5775,1.5775 0 0 1 -7.47,-1.0075 T-4.9577,-1.0213 -1.2227,-1.0268 0,-1.0185 A1.5885,1.5885 0 0 1 0,2.1585 Z" stroke-linecap="round" fill="#9398b0"/></g></g><g transform="matrix(1, 0, 0, 1, -115.6077, 3301.221)" opacity="1"><g transform="scale(1)"><path d="M 0 0 m -2.633441917710341, 0 a 2.633441917710341,2.633441917710341 0 1,1 5.266883835420682,0 a 2.633441917710341,2.633441917710341 0 1,1 -5.266883835420682,0" stroke-linecap="round" fill="#e599f7"/></g></g><g transform="matrix(1, 0, 0, 1, -117.3315, 3301.221)" opacity="1"><g transform="scale(1)"><path d="M1.1582,-1.5056 T2.0124,-0.7656 3.0574,1.9683 2.9148,5.3407 2.5816,6.719 A1.9148,1.9148 0 0 1 -1.052,5.5098 T-0.717,3.7234 -0.7701,1.7213 -1.1582,1.5056 A1.8996,1.8996 0 0 1 1.1582,-1.5056 ZM1.0228,4.2171 T1.509,4.2915 3.7521,5.1234 6.4465,7.6708 7.1204,11.4535 5.3522,14.9092 2.5171,16.9607 -0.3659,17.56 -3.4119,16.3769 -5.4408,14.4509 -5.9763,13.7184 A1.7485,1.7485 0 0 1 -3.2237,11.5616 T-2.2572,12.7112 0.2456,13.538 2.7809,12.0253 2.749,9.4976 1.1124,8.0859 0.5068,8.0117 A1.9148,1.9148 0 0 1 1.0228,4.2171 Z" stroke-linecap="round" fill="#e599f7"/></g></g><g transform="matrix(1, 0, 0, 1, -116.1823, 3300.6464)" opacity="1"><g transform="scale(1)"><path d="M-0.1843,-1.672 T1.0359,-1.8295 3.825,-2.1274 7.0431,-2.9114 9.3246,-3.9472 9.9568,-4.3396 A1.7571,1.7571 0 0 1 11.8832,-1.4004 T10.5138,-0.4957 7.3935,0.8518 4.1387,1.3712 1.4095,1.5599 0.1843,1.672 A1.6821,1.6821 0 0 1 -0.1843,-1.672 Z" stroke-linecap="round" fill="#e599f7"/></g></g><g transform="matrix(1, 0, 0, 1, -104.6906, 3289.7293)" opacity="1"><g transform="scale(1)"><path d="M-0.4178,-1.8783 T0.8059,-2.1457 3.7814,-2.6513 6.7542,-2.5677 7.9754,-2.2458 A1.927,1.927 0 0 1 6.7747,1.4164 T6.2666,1.1713 4.3098,1.1257 1.6395,1.6018 0.4178,1.8783 A1.9242,1.9242 0 0 1 -0.4178,-1.8783 ZM9.2825,-0.1408 T9.0993,0.7966 7.5579,3.195 4.9616,5.5633 3.369,7.1343 3.0146,7.7981 A1.8653,1.8653 0 0 1 -0.1711,5.8567 T0.1915,5.2693 1.7589,3.4909 4.1978,1.268 5.4498,-0.2263 5.4676,-0.6887 A1.927,1.927 0 0 1 9.2825,-0.1408 ZM2.7499,5.5176 T3.2119,6.0103 5.4178,7.3342 7.1616,8.1654 A1.8119,1.8119 0 0 1 5.4784,11.3746 T3.5415,10.4978 0.849,8.879 0.0936,8.1371 A1.8653,1.8653 0 0 1 2.7499,5.5176 Z" stroke-linecap="round" fill="#e599f7"/></g></g><g transform="matrix(1, 0, 0, 1, -103.5414, 3329.9503)" opacity="1"><g transform="scale(1)"><path d="M0.1795,1.9906 T-1.3158,2.1189 -5.7247,2.3755 -11.2843,2.682 -16.0104,3.1024 -19.846,3.5899 -22.6829,4.0179 -23.7641,4.2009 A1.9358,1.9358 0 0 1 -24.4959,0.3991 T-23.424,0.1676 -20.5724,-0.376 -16.5782,-0.953 -11.5508,-1.3742 -5.9527,-1.6194 -1.6736,-1.8493 -0.1795,-1.9906 A1.9987,1.9987 0 0 1 0.1795,1.9906 Z" stroke-linecap="round" fill="#e599f7"/></g></g><g transform="matrix(1, 0, 0, 1, -121.3536, 3342.5912)" opacity="1"><g transform="scale(1)"><path d="M0.8401,-1.6802 T1.9231,-1.1215 4.2908,0.5731 6.0196,3.2249 6.0513,6.1148 4.3254,9.2315 1.4093,12.2177 -1.0223,14.328 -1.8511,15.1947 A1.8585,1.8585 0 0 1 -4.4704,12.5573 T-3.3465,11.4692 -0.9683,9.4348 1.2435,7.3217 1.7732,4.4467 0.2527,2.2094 -0.8401,1.6802 A1.8785,1.8785 0 0 1 0.8401,-1.6802 ZM-1.9758,12.4442 T-1.6902,12.6792 0.505,13.5963 4.2874,14.8301 7.6484,15.3362 9.1367,15.2906 A1.9501,1.9501 0 0 1 9.2433,19.1894 T8.281,19.2441 5.5909,19.1041 1.783,18.1346 -1.8531,16.7228 -3.8773,15.6967 -4.3456,15.3078 A1.8585,1.8585 0 0 1 -1.9758,12.4442 Z" stroke-linecap="round" fill="#e599f7"/></g></g><g transform="matrix(1, 0, 0, 1, -108.7127, 3337.4199)" opacity="1"><g transform="scale(1)"><path d="M0.8172,-1.4284 T1.7579,-0.8623 3.7226,0.8002 4.6317,3.4387 3.1389,6.1699 3.216,7.159 5.5398,7.0081 6.4088,7.0571 A1.5654,1.5654 0 0 1 6.2312,10.1829 T4.4833,10.0765 0.9627,9.3344 -0.5283,6.8978 0.4288,3.7844 0.1435,1.9502 -0.8172,1.4284 A1.6457,1.6457 0 0 1 0.8172,-1.4284 Z" stroke-linecap="round" fill="#e599f7"/></g></g><g transform="matrix(1, 0, 0, 1, -463.8066, 3348.337)" opacity="1"><g transform="scale(1)"><path d="M1.6143,0 T1.6088,1.2227 1.5964,4.3237 1.5847,7.7592 2.0147,10.8031 3.2641,13.5963 5.3426,16.266 8.0302,18.6569 10.9108,20.5922 13.9161,22.3803 16.9397,23.8044 20.1482,25.1763 23.448,26.6554 26.8838,27.8252 30.5264,28.7107 34.1035,29.6003 37.4217,30.4361 40.8864,31.0391 44.6173,31.3957 48.2621,31.4603 51.8456,31.4496 55.1764,31.4347 58.7055,31.4253 62.1701,31.4203 65.1853,31.416 68.1702,31.4098 71.1445,31.4061 74.0446,31.4058 77.0615,31.4055 80.2745,31.5516 83.4466,31.7905 86.8071,32.0614 90.1907,32.5008 93.3117,33.0451 96.2636,33.8639 99.1206,35.195 101.9271,36.8232 104.4625,38.51 107.1821,40.905 109.4516,43.671 110.5759,46.531 111.3385,50.0977 111.7252,52.0295 A1.9923,1.9923 0 0 1 107.7748,52.5505 T107.5986,51.4014 107.0714,48.55 105.8428,45.454 103.5895,42.8506 100.4776,40.5405 97.4355,38.7151 94.4415,37.3826 91.1471,36.5059 88.0437,36.0147 84.7988,35.7301 80.8433,35.461 77.0615,35.2545 74.0446,35.2542 71.1445,35.2539 68.1702,35.2502 65.1853,35.244 62.1701,35.2397 58.7054,35.2346 55.1752,35.2246 51.8396,35.2056 48.2182,35.1672 44.3626,35.0427 40.4161,34.6276 36.4754,33.8519 33.1163,32.9631 29.7739,32.1104 25.992,31.1559 22.2676,29.8351 18.7147,28.2233 15.3469,26.7075 12.1735,25.1496 9.1792,23.3194 6.0538,21.1663 3.3212,18.7799 1.2725,16.3502 -0.2095,13.6606 -1.1716,10.7658 -1.5847,7.7659 -1.5964,4.3237 -1.6088,1.2227 -1.6143,0 A1.6143,1.6143 0 0 1 1.6143,0 ZM107.758,52.3216 T107.7532,51.7453 108.4009,49.2607 109.7605,45.7694 111.536,42.3569 114.17,38.6583 117.1099,35.5468 120.1899,33.3348 123.219,31.8236 126.1214,31.0529 129.6788,30.5637 133.6762,30.2152 137.1931,30.2728 140.8488,30.5141 144.6569,30.7764 148.4094,31.0606 152.0432,31.1925 155.2607,31.4166 158.5674,31.6753 161.8848,31.7359 165.2974,31.7482 168.7358,31.7473 172.1802,31.7406 175.6263,31.7252 179.4451,31.389 183.7221,30.0085 187.6204,27.9294 190.9696,25.906 194.1803,23.7653 196.6457,21.4387 198.0501,19.0555 198.5667,17.8573 A2.0343,2.0343 0 0 1 202.4933,18.9227 T202.343,19.5909 201.2977,21.9536 198.9708,25.2035 196.1952,27.7458 193.2704,29.7184 189.8162,31.8318 186.0886,33.8942 182.5806,35.3155 179.1386,35.9436 175.6259,36.0745 172.1788,36.0582 168.7308,36.0482 165.2795,36.0359 161.8202,36.0067 158.33,35.9179 154.3369,35.6313 150.4116,35.3784 146.5278,35.0866 142.7704,34.7939 139.123,34.5166 135.1492,34.3074 131.3535,34.6069 127.7196,34.9862 124.4012,35.7061 121.3522,37.378 118.5727,39.7675 116.1219,42.688 114.1399,45.9219 112.5027,49.4358 111.7301,51.785 111.742,52.2584 A1.9923,1.9923 0 0 1 107.758,52.3216 Z" stroke-linecap="round" fill="#e599f7"/></g></g><g transform="matrix(1, 0, 0, 1, -419.5635, 3435.0994)" opacity="1"><g transform="scale(1)"><path d="M0,1.887 T-0.1348,1.8881 -0.2696,1.8892 A1.8892,1.8892 0 0 1 -0.2696,-1.8892 T-0.1348,-1.8881 0,-1.887 A1.887,1.887 0 0 1 0,1.887 ZM1.1891,1.2005 T0.7211,1.7758 -0.441,3.6158 -1.9363,6.79 -3.1284,10.307 -3.845,13.5774 -3.4898,16.8145 -1.0874,19.7244 1.3714,21.5757 2.1091,22.0912 A1.7542,1.7542 0 0 1 0.1909,25.0288 T-0.5777,24.5608 -2.6135,23.3181 -5.349,20.9428 -7.3177,17.9372 -7.7632,14.7784 -7.312,11.0325 -6.3227,7.3997 -5.1188,4.4248 -3.5555,1.4699 -2.1658,-0.6756 -1.7283,-1.2005 A1.8892,1.8892 0 0 1 1.1891,1.2005 Z" stroke-linecap="round" fill="#9398b0"/></g></g><g transform="matrix(1, 0, 0, 1, -399.453, 3441.9945)" opacity="1"><g transform="scale(1)"><path d="M1.3938,1.3938 T0.4441,2.3456 -2.0808,4.9007 -5.1512,8.1007 -8.3507,11.0486 -11.0679,13.0739 -12.0807,13.7479 A2.0281,2.0281 0 0 1 -14.3593,10.3921 T-13.3592,9.6993 -10.8927,7.8355 -7.9657,5.1607 -4.9012,2.0813 -2.3456,-0.4441 -1.3938,-1.3938 A1.9712,1.9712 0 0 1 1.3938,1.3938 Z" stroke-linecap="round" fill="#9398b0"/></g></g><g transform="matrix(1, 0, 0, 1, -410.9448, 3440.2707)" opacity="1"><g transform="scale(1)"><path d="M1.5836,-1.1306 T2.2779,-0.1898 4.0343,2.3908 6.3573,5.404 8.9732,7.6469 11.9446,9.3844 13.5611,10.2523 A2.0378,2.0378 0 0 1 11.7189,13.8877 T9.8334,12.981 6.2214,10.8696 3.1121,8.0422 0.736,4.7357 -0.9204,2.0913 -1.5836,1.1306 A1.9457,1.9457 0 0 1 1.5836,-1.1306 Z" stroke-linecap="round" fill="#9398b0"/></g></g><g transform="matrix(1, 0, 0, 1, -383.3646, 3446.5912)" opacity="1"><g transform="scale(1)"><path d="M0.809,-2.1717 T2.0344,-2.0409 5.9977,-1.7483 8.7357,-1.5864 A2.1595,2.1595 0 0 1 8.5043,2.7264 T5.6424,2.5879 1.5558,2.3105 0.331,2.1717 A2.1848,2.1848 0 0 1 0.809,-2.1717 Z" stroke-linecap="round" fill="#9398b0"/></g></g><g transform="matrix(1, 0, 0, 1, -355.2099, 3431.0773)" opacity="1"><g transform="scale(1)"><path d="M2.0024,0.8567 T1.5918,1.8064 2.8162,3.6355 5.7383,5.2469 7.4656,7.7557 6.987,11.126 4.79,13.7547 1.771,15.2459 -2.0742,15.02 -4.9723,13.7372 -5.766,13.1362 A2.0173,2.0173 0 0 1 -3.434,9.8438 T-2.6037,10.3931 -0.3017,11.064 1.7639,9.6845 0.4795,7.8652 -2.6386,6.4091 -3.3433,3.1589 -2.4054,0.095 -2.0024,-0.8567 A2.178,2.178 0 0 1 2.0024,0.8567 Z" stroke-linecap="round" fill="#9398b0"/></g></g><g transform="matrix(1, 0, 0, 1, -356.3591, 3430.5028)" opacity="1"><g transform="scale(1)"><path d="M0.3658,-1.6445 T1.5985,-1.4186 4.589,-1.1807 8.397,-1.8161 11.8299,-2.9169 13.2127,-3.3703 A1.7483,1.7483 0 0 1 14.3673,-0.0697 T13.0034,0.4377 9.1228,1.7643 4.3328,2.432 0.8469,1.9626 -0.3658,1.6445 A1.6847,1.6847 0 0 1 0.3658,-1.6445 Z" stroke-linecap="round" fill="#9398b0"/></g></g><g transform="matrix(1, 0, 0, 1, -344.8674, 3451.1878)" opacity="1"><g transform="scale(1)"><path d="M0.4028,2.0139 T-0.9494,2.3266 -3.7924,2.8426 -7.7278,3.3512 -12.3539,3.8244 -16.1257,3.9827 -18.6094,3.9561 -19.5027,3.9391 A2.2194,2.2194 0 0 1 -19.5773,-0.4991 T-17.905,-0.5906 -14.6453,-0.7751 -10.6318,-1.0934 -5.6718,-1.4351 -1.7703,-1.7826 -0.4028,-2.0139 A2.0537,2.0537 0 0 1 0.4028,2.0139 Z" stroke-linecap="round" fill="#9398b0"/></g></g><g transform="matrix(1, 0, 0, 1, -360.3812, 3459.8066)" opacity="1"><g transform="scale(1)"><path d="M0.4927,-2.2149 T1.7111,-1.9226 4.5725,-1.1998 7.5315,-0.1587 9.6331,1.6508 9.8936,4.4957 8.2982,7.1187 5.963,8.945 3.3397,10.6483 1.9814,11.5021 A2.2649,2.2649 0 0 1 -1.3359,8.4176 T0.5187,7.183 3.8668,4.7522 3.6607,3.1372 0.7343,2.4666 -0.4927,2.2149 A2.269,2.269 0 0 1 0.4927,-2.2149 ZM2.3291,8.909 T2.4933,9.3143 4.4336,9.9235 8.1072,10.2076 12.0561,10.1347 14.1076,9.9815 A2.1037,2.1037 0 0 1 14.6124,14.1585 T13.4606,14.3502 10.1541,14.7289 5.9204,14.8083 1.6373,13.83 -1.1252,11.9849 -1.6836,11.0107 A2.2649,2.2649 0 0 1 2.3291,8.909 Z" stroke-linecap="round" fill="#9398b0"/></g></g><g transform="matrix(1, 0, 0, 1, -335.674, 3427.0552)" opacity="1"><g transform="scale(1)"><path d="M2.2276,-0.4455 T2.4844,0.9173 3.3874,4.3732 4.7479,8.6061 6.1115,13.1811 7.0504,18.1912 7.2609,22.2318 6.7659,26.2693 5.4233,31.4102 3.3911,36.2772 1.3008,40.3043 -0.146,43.4527 -0.6079,44.872 A2.3487,2.3487 0 0 1 -5.1321,43.608 T-4.9267,42.69 -3.9728,39.8734 -2.1609,36.1453 -0.1179,32.1268 1.4569,27.7842 2.3421,23.3594 2.4443,18.8801 1.6964,14.3602 0.4889,10.0297 -0.9061,5.5851 -1.9405,1.8024 -2.2276,0.4455 A2.2717,2.2717 0 0 1 2.2276,-0.4455 Z" stroke-linecap="round" fill="#9398b0"/></g></g><g transform="matrix(1, 0, 0, 1, -328.779, 3414.989)" opacity="1"><g transform="scale(1)"><path d="M0,-2.4965 T1.2257,-2.4666 3.9415,-2.2006 6.9637,-0.7489 8.3897,2.2432 7.4101,5.2781 5.614,7.6694 4.3872,9.421 4.0827,10.0398 A2.298,2.298 0 0 1 0.0518,7.8319 T0.6503,6.802 1.8441,4.1044 1.2197,2.4666 0,2.4965 A2.4965,2.4965 0 0 1 0,-2.4965 ZM3.6068,7.2299 T3.8932,7.5391 5.8479,8.1581 9.2422,8.5514 10.9682,8.635 A2.2855,2.2855 0 0 1 10.8718,13.205 T9.9368,13.2094 7.4903,13.1783 4.0906,12.5972 1.365,11.3467 0.5276,10.6418 A2.298,2.298 0 0 1 3.6068,7.2299 Z" stroke-linecap="round" fill="#9398b0"/></g></g><g transform="matrix(1, 0, 0, 1, -305.7956, 3433.3757)" opacity="1"><g transform="scale(1)"><path d="M1.6558,0 T1.6777,1.0879 1.7414,4.0792 1.8154,7.7571 1.8219,11.4053 1.762,14.3944 1.7277,15.51 A1.7277,1.7277 0 0 1 -1.7277,15.51 T-1.762,14.3944 -1.8219,11.4053 -1.8154,7.7571 -1.7414,4.0792 -1.6777,1.0879 -1.6558,0 A1.6558,1.6558 0 0 1 1.6558,0 Z" stroke-linecap="round" fill="#9398b0"/></g></g><g transform="matrix(1, 0, 0, 1, -300.0497, 3443.1436)" opacity="1"><g transform="scale(1)"><path d="M-0.57,1.7774 T-1.9299,1.7973 -5.2945,1.9339 -8.4167,2.1857 -9.5342,2.3209 A1.7667,1.7667 0 0 1 -10.0058,-1.1809 T-8.8923,-1.3461 -5.5343,-1.6642 -1.9299,-1.7973 -0.57,-1.7774 A1.7774,1.7774 0 0 1 -0.57,1.7774 Z" stroke-linecap="round" fill="#9398b0"/></g></g><g transform="matrix(1, 0, 0, 1, -277.0663, 3428.2044)" opacity="1"><g transform="scale(1)"><path d="M1.6494,1.2371 T0.8124,2.3091 -1.3329,5.3266 -3.4158,9.1223 -4.6415,12.8134 -5.0703,16.2677 -4.6609,19.2886 -3.2001,21.6383 -0.4841,22.494 2.6968,21.8275 2.979,20.339 -0.3399,19.2157 -2.4021,19.0008 A1.7638,1.7638 0 0 1 -2.1979,15.4792 T-0.3344,15.5367 2.9825,15.9899 5.8679,17.8584 7.6204,20.7236 6.4808,23.7837 3.4496,25.9884 -0.3486,26.6805 -4.2918,25.9786 -7.1314,23.5432 -8.6933,20.1147 -9.0922,16.1238 -8.4697,11.7991 -6.9426,7.4286 -4.6185,3.1061 -2.4442,-0.1333 -1.6494,-1.2371 A2.0618,2.0618 0 0 1 1.6494,1.2371 Z" stroke-linecap="round" fill="#9398b0"/></g></g><g transform="matrix(1, 0, 0, 1, -199.4972, 3433.3757)" opacity="1"><g transform="scale(1)"><path d="M-0.389,-1.9448 T0.977,-2.1862 3.8638,-2.7023 5.3846,-2.9769 A1.863,1.863 0 0 1 6.1154,0.6769 T4.6059,1.0083 1.7427,1.6423 0.389,1.9448 A1.9833,1.9833 0 0 1 -0.389,-1.9448 Z" stroke-linecap="round" fill="#9398b0"/></g></g><g transform="matrix(1, 0, 0, 1, -200.0718, 3440.2707)" opacity="1"><g transform="scale(1)"><path d="M0,-1.9708 T1.0859,-1.9924 3.7877,-2.2172 6.353,-2.4998 7.3025,-2.5792 A2.0162,2.0162 0 0 1 7.6375,1.4392 T6.6879,1.5181 3.959,1.8055 1.0899,1.9924 0,1.9708 A1.9708,1.9708 0 0 1 0,-1.9708 Z" stroke-linecap="round" fill="#9398b0"/></g></g><g transform="matrix(1, 0, 0, 1, -170.768, 3420.7348)" opacity="1"><g transform="scale(1)"><path d="M-0.4435,-1.9937 T0.7751,-2.2848 3.8683,-2.6911 7.0741,-2.2161 9.0231,0.1995 8.717,3.6417 6.5231,6.2623 4.0261,8.3022 4.3377,9.2688 7.7294,9.4792 10.371,9.8607 11.1596,9.9622 A2.1213,2.1213 0 0 1 10.6804,14.1778 T9.889,14.0997 7.2666,13.7743 3.6338,13.0983 0.1562,11.3686 -0.8515,8.2353 1.3392,5.0878 4.4259,2.7725 4.4435,1.6301 1.6703,1.7408 0.4435,1.9937 A2.0424,2.0424 0 0 1 -0.4435,-1.9937 Z" stroke-linecap="round" fill="#9398b0"/></g></g><g transform="matrix(1, 0, 0, 1, -148.9337, 3415.5635)" opacity="1"><g transform="scale(1)"><path d="M2.3501,1.014 T1.7944,1.9567 0.5647,4.5763 1.1453,7.1467 4.1104,9.4091 5.9905,12.7085 4.9441,16.1258 1.7742,18.0635 -0.1797,18.5143 A1.8949,1.8949 0 0 1 -0.9603,14.8057 T0.7521,13.929 1.2383,12.1735 -1.3101,10.6367 -3.4067,8.5784 -3.9372,5.6828 -2.9791,2.5455 -1.7375,-0.0552 -1.2101,-1.014 A2.0486,2.0486 0 0 1 2.3501,1.014 Z" stroke-linecap="round" fill="#9398b0"/></g></g><g transform="matrix(1, 0, 0, 1, -150.0829, 3417.2873)" opacity="1"><g transform="scale(1)"><path d="M0.2212,-2.0067 T1.4477,-1.8901 4.1943,-1.4858 7.2597,-0.9415 10.5201,-0.7517 14.4002,-0.9741 17.9169,-1.2617 19.2685,-1.3938 A1.9825,1.9825 0 0 1 19.8115,2.5338 T18.4747,2.7734 14.8965,3.3033 10.4576,3.6331 6.6491,3.3407 3.6273,2.6609 0.9977,2.1597 -0.2212,2.0067 A2.0188,2.0188 0 0 1 0.2212,-2.0067 Z" stroke-linecap="round" fill="#9398b0"/></g></g><g transform="matrix(1, 0, 0, 1, -143.1878, 3444.2928)" opacity="1"><g transform="scale(1)"><path d="M0,2.4637 T-1.6318,2.4657 -4.8024,2.4775 -7.8309,2.4977 -10.7837,2.5218 -14.8706,2.7477 -19.5801,3.1968 -23.1312,3.7555 -26.1863,4.7422 -27.7759,5.407 A2.1772,2.1772 0 0 1 -29.6841,1.493 T-28.8061,1.0015 -26.0869,-0.3012 -22.2603,-1.424 -17.7063,-1.9972 -13.6937,-2.3971 -10.785,-2.5218 -7.8309,-2.4977 -4.8024,-2.4775 -1.6318,-2.4657 0,-2.4637 A2.4637,2.4637 0 0 1 0,2.4637 Z" stroke-linecap="round" fill="#9398b0"/></g></g><g transform="matrix(1, 0, 0, 1, -166.1713, 3452.9116)" opacity="1"><g transform="scale(1)"><path d="M1.8671,-0.2058 T2.01,1.016 2.2856,3.7541 2.8982,6.6593 5.0522,8.2588 8.6878,7.6843 10.6492,6.8991 A1.9153,1.9153 0 0 1 12.3308,10.3409 T10.5937,11.2445 7.0497,12.4813 3.5442,12.3874 0.6712,10.9261 -0.9652,8.1681 -1.5204,4.5487 -1.7404,1.4294 -1.8671,0.2058 A1.8784,1.8784 0 0 1 1.8671,-0.2058 Z" stroke-linecap="round" fill="#9398b0"/></g></g><g transform="matrix(1, 0, 0, 1, -157.5525, 3455.2099)" opacity="1"><g transform="scale(1)"><path d="M2.047,-0.4094 T2.306,0.9534 2.9314,4.8052 3.6326,9.6419 4.2614,13.924 4.7623,16.9147 4.9689,17.971 A2.1403,2.1403 0 0 1 0.7711,18.809 T0.5563,17.7544 0.0513,14.6972 -0.5171,10.3505 -1.1362,5.5649 -1.762,1.7664 -2.047,0.4094 A2.0875,2.0875 0 0 1 2.047,-0.4094 Z" stroke-linecap="round" fill="#9398b0"/></g></g><g transform="matrix(1, 0, 0, 1, -260.4033, 3441.9945)" opacity="1"><g transform="scale(1)"><path d="M0.8923,-2.2786 T2.9026,-1.9601 4.9128,-1.6417 A2.2337,2.2337 0 0 1 4.2872,2.7817 T2.2674,2.5301 0.2477,2.2786 A2.3013,2.3013 0 0 1 0.8923,-2.2786 Z" stroke-linecap="round" fill="#9398b0"/></g></g><g transform="matrix(1, 0, 0, 1, -231.0994, 3424.1823)" opacity="1"><g transform="scale(1)"><path d="M1.6526,0.5874 T0.6971,1.9414 -1.6327,5.7769 -3.8207,10.681 -4.9048,15.3587 -4.824,19.19 -3.4128,22.0385 -0.8157,24.0167 2.0129,23.5592 3.0624,20.7735 0.7985,19.3519 -1.2231,19.5525 A1.8119,1.8119 0 0 1 -2.2169,16.0675 T-0.2622,15.5652 3.3641,15.6106 5.9347,17.4686 7.1006,20.6103 6.7951,24.0579 4.3595,27.1785 0.2198,28.6 -3.7324,27.3569 -6.9138,24.1418 -8.8474,19.6674 -8.9084,14.6001 -8.1116,10.5292 -7.1436,7.7726 -5.8825,5.0262 -4.3519,2.3041 -2.5985,-0.3664 -1.6526,-1.7274 A2.0176,2.0176 0 0 1 1.6526,0.5874 Z" stroke-linecap="round" fill="#9398b0"/></g></g><g transform="matrix(1, 0, 0, 1, -121.3536, 3439.6961)" opacity="1"><g transform="scale(1)"><path d="M0.6597,-1.5418 T1.6265,-1.1753 4.7232,-0.7078 6.853,-0.6068 A1.7575,1.7575 0 0 1 6.947,2.9068 T6.0376,2.9444 3.1689,2.7089 0.275,1.9889 -0.6597,1.5418 A1.677,1.677 0 0 1 0.6597,-1.5418 Z" stroke-linecap="round" fill="#9398b0"/></g></g><g transform="matrix(1, 0, 0, 1, -93.1989, 3424.1823)" opacity="1"><g transform="scale(1)"><path d="M1.8568,1.1141 T1.0318,2.4683 -0.4592,5.147 -1.7454,7.8487 -2.9612,10.6308 -4.16,14.5386 -4.4682,18.836 -3.3819,22.0223 -1.0247,24.0727 1.7919,23.8532 1.4227,22.692 -1.5588,22.315 -2.9204,22.2209 A2.1115,2.1115 0 0 1 -2.8196,17.9991 T-2.0784,17.9851 0.705,18.0278 4.327,18.7829 6.7737,20.9352 7.2491,24.2218 5.3032,27.4174 1.5262,29.1069 -2.7037,28.5323 -6.1776,25.8433 -8.3974,21.593 -9.1275,17.6912 -8.8193,14.8205 -8.0287,11.8634 -6.8986,8.8949 -5.61,6.0007 -4.2084,3.0833 -2.6637,0.2515 -1.8568,-1.1141 A2.1654,2.1654 0 0 1 1.8568,1.1141 Z" stroke-linecap="round" fill="#9398b0"/></g></g><g transform="matrix(1, 0, 0, 1, -220.7569, 3410.9669)" opacity="1"><g transform="scale(1)"><path d="M1.3601,1.5127 T-0.0078,2.7267 -2.9562,5.1821 -6.4234,7.8915 -10.667,11.1131 -15.7354,14.89 -21.044,19.0494 -26.4101,23.311 -31.8267,27.5075 -36.6697,31.3457 -40.8269,34.7311 -44.68,37.7853 -48.0902,40.3696 -50.9494,42.5298 -54.3414,44.9535 -56.8901,46.8426 -57.3872,47.3197 A2.634,2.634 0 0 1 -60.9728,43.4603 T-60.1303,42.6929 -57.3795,40.6125 -54.1194,38.2923 -51.2334,36.1551 -47.8613,33.6817 -44.0058,30.7466 -39.7286,27.4072 -34.76,23.637 -29.2957,19.5892 -23.8068,15.4322 -18.3098,11.3447 -13.187,7.7211 -8.9256,4.6369 -5.5438,2.0853 -2.7119,-0.2813 -1.3601,-1.5127 A2.0342,2.0342 0 0 1 1.3601,1.5127 ZM-60.5313,43.129 T-59.2507,42.4409 -56.6662,40.9168 -55.3623,40.0809 A2.2989,2.2989 0 0 1 -52.6577,43.7991 T-54.1304,44.9828 -56.7159,46.9087 -57.8287,47.651 A2.634,2.634 0 0 1 -60.5313,43.129 Z" stroke-linecap="round" fill="#9398b0"/></g></g><g transform="matrix(1, 0, 0, 1, -360.9558, 3502.9006)" opacity="1"><g transform="scale(1)"><path d="M1.6046,0.8907 T0.9208,2.1106 -0.4569,4.856 -1.7065,7.8306 -2.8921,11.3495 -3.682,15.3787 -3.8627,19.3434 -3.5901,22.9201 -2.8793,26.1963 -2.0938,29.2121 -1.7259,30.5227 A1.7972,1.7972 0 0 1 -5.1741,31.5373 T-5.6881,29.7777 -6.7478,26.1584 -7.4448,22.8123 -7.5566,19.2557 -7.4139,15.6525 -6.9731,12.6428 -6.1612,9.5904 -5.1369,6.6043 -3.7694,3.3772 -2.2783,0.3348 -1.6046,-0.8907 A1.8352,1.8352 0 0 1 1.6046,0.8907 Z" stroke-linecap="round" fill="#9398b0"/></g></g><g transform="matrix(1, 0, 0, 1, -340.2707, 3513.2431)" opacity="1"><g transform="scale(1)"><path d="M1.4466,1.6089 T0.0717,2.8149 -2.4122,5.057 -5.4005,8.1438 -8.8604,11.9824 -11.7941,15.0875 -13.9297,17.0461 -14.7122,17.6874 A2.1095,2.1095 0 0 1 -17.4678,14.4926 T-16.1598,13.3123 -13.523,10.5967 -10.3624,7.1905 -7.4712,4.1658 -5.2742,1.9409 -2.7915,-0.3695 -1.4466,-1.6089 A2.1636,2.1636 0 0 1 1.4466,1.6089 Z" stroke-linecap="round" fill="#9398b0"/></g></g><g transform="matrix(1, 0, 0, 1, -354.0608, 3517.2652)" opacity="1"><g transform="scale(1)"><path d="M1.2425,-1.4936 T2.0694,-0.828 4.31,1.0836 6.9128,3.248 9.566,5.3413 11.7707,6.9709 12.511,7.4258 A2.0384,2.0384 0 0 1 10.469,10.9542 T9.7057,10.5389 7.143,8.7377 4.1294,6.3357 1.6414,4.0984 -0.4375,2.1855 -1.2425,1.4936 A1.9429,1.9429 0 0 1 1.2425,-1.4936 Z" stroke-linecap="round" fill="#9398b0"/></g></g><g transform="matrix(1, 0, 0, 1, -320.7348, 3519.5635)" opacity="1"><g transform="scale(1)"><path d="M0.6404,-1.5981 T1.3312,-1.3537 3.8189,-0.6839 7.2888,-0.4326 8.9618,-0.6066 A1.7713,1.7713 0 0 1 9.4182,2.9066 T8.4498,3.0628 5.6911,3.3111 2.2968,2.8001 0.0263,1.8976 -0.6404,1.5981 A1.7217,1.7217 0 0 1 0.6404,-1.5981 Z" stroke-linecap="round" fill="#9398b0"/></g></g><g transform="matrix(1, 0, 0, 1, -291.4309, 3502.9006)" opacity="1"><g transform="scale(1)"><path d="M1.9696,0.9848 T1.416,2.0679 0.0254,4.6582 -1.1167,6.9287 -1.4217,7.6919 A2.1625,2.1625 0 0 1 -5.6778,6.9224 T-5.0825,5.4054 -3.7627,2.5446 -2.5039,0.1079 -1.9696,-0.9848 A2.2021,2.2021 0 0 1 1.9696,0.9848 ZM-2.4996,5.4167 T-1.7945,5.815 0.3115,7.0467 2.733,9.0462 4.0128,11.6532 3.4572,14.8796 1.1378,17.7882 -2.1598,19.3117 -6.1102,18.9682 -8.9974,17.6905 -9.7269,17.1569 A1.9843,1.9843 0 0 1 -7.5131,13.8631 T-6.0347,14.6606 -3.0363,15.0543 -0.9666,13.1057 -1.7668,10.7847 -3.8584,9.603 -4.6,9.1976 A2.1625,2.1625 0 0 1 -2.4996,5.4167 Z" stroke-linecap="round" fill="#9398b0"/></g></g><g transform="matrix(1, 0, 0, 1, -293.1547, 3502.326)" opacity="1"><g transform="scale(1)"><path d="M0.4372,-1.7488 T1.5342,-1.5141 4.3419,-0.9914 8.0532,-0.5719 11.9953,-0.2183 15.1397,0.212 16.3424,0.4203 A1.8966,1.8966 0 0 1 15.8376,4.1797 T13.6471,3.9736 9.9447,3.7161 6.7609,3.4355 3.4048,2.7867 0.6416,2.058 -0.4372,1.7488 A1.8026,1.8026 0 0 1 0.4372,-1.7488 Z" stroke-linecap="round" fill="#9398b0"/></g></g><g transform="matrix(1, 0, 0, 1, -282.2376, 3527.6077)" opacity="1"><g transform="scale(1)"><path d="M0.1624,2.6619 T-1.6018,2.8305 -4.8701,3.1077 -7.8547,3.2884 -11.6897,3.4087 -15.5946,3.8202 -18.2899,4.5126 -19.4348,4.8417 A2.0841,2.0841 0 0 1 -20.7852,0.8983 T-19.679,0.4565 -16.3334,-0.5947 -11.7748,-1.2172 -8.0239,-1.2344 -5.1465,-1.2745 -1.9315,-1.4162 -0.1624,-1.5219 A2.0982,2.0982 0 0 1 0.1624,2.6619 Z" stroke-linecap="round" fill="#9398b0"/></g></g><g transform="matrix(1, 0, 0, 1, -298.326, 3536.2265)" opacity="1"><g transform="scale(1)"><path d="M1.0434,-2.4388 T1.9965,-2.0415 4.346,-1.2218 7.0832,-0.2315 9.7475,1.604 11.2637,4.5624 9.9883,7.8979 7.0338,10.2784 4.1493,11.583 2.3758,12.7189 2.0005,13.2861 A2.7124,2.7124 0 0 1 -1.9469,9.5651 T-0.6834,8.3938 1.9696,6.6048 4.9845,5.8033 5.24,4.9521 2.3617,3.778 -0.0951,2.855 -1.0434,2.4388 A2.6526,2.6526 0 0 1 1.0434,-2.4388 ZM1.32,9.0413 T1.9581,9.3853 4.5702,9.7926 8.8523,9.5435 14.1728,8.4975 17.1853,7.7639 A2.1011,2.1011 0 0 1 18.4347,11.7761 T16.8597,12.3669 13.7868,13.5282 10.6956,14.5275 6.7101,15.0968 2.2429,14.9145 -0.5493,14.2009 -1.2664,13.8098 A2.7124,2.7124 0 0 1 1.32,9.0413 Z" stroke-linecap="round" fill="#9398b0"/></g></g><g transform="matrix(1, 0, 0, 1, -269.0221, 3498.8785)" opacity="1"><g transform="scale(1)"><path d="M2.0232,-0.8682 T2.8328,1.036 4.3429,4.4619 5.7228,7.6603 6.9264,10.9488 8.0024,14.1639 9.0375,17.8201 9.7993,21.9626 10.3665,26.0185 10.836,30.0602 10.9831,34.1468 10.6443,37.9111 9.8836,41.176 8.2269,44.8368 5.3633,48.2982 2.6539,49.8773 1.6067,50.144 A2.8605,2.8605 0 0 1 0.3909,44.5537 T1.326,44.143 3.1308,42.334 4.7159,38.4415 5.5326,34.218 5.5502,30.5632 5.2535,26.6201 4.8872,22.7405 4.3983,19.0412 3.5718,15.5543 2.659,12.4401 1.6326,9.391 0.3247,6.236 -1.201,2.7669 -2.0232,0.8682 A2.2016,2.2016 0 0 1 2.0232,-0.8682 ZM-1.2339,49.137 T-1.9398,48.0947 -2.6457,47.0524 A2.6594,2.6594 0 0 1 1.5057,43.7276 T2.3686,44.6441 3.2315,45.5607 A2.8605,2.8605 0 0 1 -1.2339,49.137 Z" stroke-linecap="round" fill="#9398b0"/></g></g><g transform="matrix(1, 0, 0, 1, -261.5525, 3490.2597)" opacity="1"><g transform="scale(1)"><path d="M-0.8232,-2.4745 T0.4146,-2.8374 3.7644,-3.4272 7.3417,-3.1571 9.9073,-1.4351 11.0958,1.2977 10.3278,4.3053 8.2431,6.9054 8.4963,7.4814 11.23,6.9227 12.482,6.8885 A2.3069,2.3069 0 0 1 12.798,11.4915 T11.553,11.6286 8.0897,11.7042 4.4214,10.7358 2.7039,8.251 3.3829,5.226 5.2567,2.6194 4.7113,1.5164 2.0308,2.0238 0.8232,2.4745 A2.6078,2.6078 0 0 1 -0.8232,-2.4745 Z" stroke-linecap="round" fill="#9398b0"/></g></g><g transform="matrix(1, 0, 0, 1, -219.0331, 3517.8398)" opacity="1"><g transform="scale(1)"><path d="M0.1936,-1.562 T1.2877,-1.4778 4.0135,-1.2983 6.5937,-1.1399 7.5423,-1.0766 A1.6482,1.6482 0 0 1 7.3977,2.2166 T6.4472,2.1964 3.7332,2.0545 0.8881,1.7474 -0.1936,1.562 A1.574,1.574 0 0 1 0.1936,-1.562 Z" stroke-linecap="round" fill="#9398b0"/></g></g><g transform="matrix(1, 0, 0, 1, -218.4586, 3525.3094)" opacity="1"><g transform="scale(1)"><path d="M0.4375,-1.7499 T1.5351,-1.5171 4.5366,-1.2015 7.4268,-1.2127 8.4133,-1.3066 A1.888,1.888 0 0 1 8.8267,2.4466 T6.747,2.6808 3.193,2.6436 0.6407,2.0611 -0.4375,1.7499 A1.8038,1.8038 0 0 1 0.4375,-1.7499 Z" stroke-linecap="round" fill="#9398b0"/></g></g><g transform="matrix(1, 0, 0, 1, -179.9613, 3506.3481)" opacity="1"><g transform="scale(1)"><path d="M-0.5218,-1.8241 T0.4309,-2.0906 3.0972,-2.4568 5.9846,-1.6898 7.7653,0.4733 8.3882,3.2078 7.7123,6.7703 5.6373,10.6333 3.0544,13.144 1.1578,14.3114 0.4609,14.707 A1.8853,1.8853 0 0 1 -1.3961,11.4254 T0.1662,10.4717 2.7494,8.2076 4.3189,5.1689 3.6435,2.3549 1.4706,1.5466 0.5218,1.8241 A1.8973,1.8973 0 0 1 -0.5218,-1.8241 ZM0.4939,11.4445 T0.7063,11.5964 2.4874,12.1848 5.7845,12.5586 8.311,12.2343 9.1093,11.9728 A1.9336,1.9336 0 0 1 10.4307,15.6072 T8.5848,16.2574 4.7399,16.6646 1.3252,15.9257 -0.7598,15.0588 -1.4291,14.6879 A1.8853,1.8853 0 0 1 0.4939,11.4445 Z" stroke-linecap="round" fill="#9398b0"/></g></g><g transform="matrix(1, 0, 0, 1, -162.1492, 3504.0497)" opacity="1"><g transform="scale(1)"><path d="M1.697,-0.2103 T1.8418,0.8764 2.2246,3.5844 3.7019,7.0455 5.5411,10.8664 5.4665,14.7372 3.2705,17.0867 0.3139,16.7543 -1.6469,15.5108 -2.1725,15.0595 A1.6301,1.6301 0 0 1 -0.1275,12.5205 T1.1442,12.039 1.6784,10.2758 0.0395,7.5888 -1.1546,4.286 -1.5721,1.2994 -1.697,0.2103 A1.71,1.71 0 0 1 1.697,-0.2103 Z" stroke-linecap="round" fill="#9398b0"/></g></g><g transform="matrix(1, 0, 0, 1, -164.4475, 3504.0497)" opacity="1"><g transform="scale(1)"><path d="M0,-1.4564 T1.3599,-1.511 4.2919,-1.6186 7.4837,-1.8085 10.5435,-2.3432 12.9603,-2.9819 13.9369,-3.2229 A1.5613,1.5613 0 0 1 14.7831,-0.2171 T13.8243,0.0868 11.3277,0.8985 7.827,1.5389 4.2919,1.6186 1.3599,1.511 0,1.4564 A1.4564,1.4564 0 0 1 0,-1.4564 Z" stroke-linecap="round" fill="#9398b0"/></g></g><g transform="matrix(1, 0, 0, 1, -150.0829, 3513.8177)" opacity="1"><g transform="scale(1)"><path d="M0,-1.6209 T1.0869,-1.6345 3.718,-1.8606 7.0653,-2.4278 8.8683,-2.7824 A1.6638,1.6638 0 0 1 9.5117,0.4824 T7.5681,0.8661 3.9012,1.4489 1.0889,1.6345 0,1.6209 A1.6209,1.6209 0 0 1 0,-1.6209 Z" stroke-linecap="round" fill="#9398b0"/></g></g><g transform="matrix(1, 0, 0, 1, -133.4199, 3503.4751)" opacity="1"><g transform="scale(1)"><path d="M0.1999,-1.813 T1.4228,-1.6738 4.5806,-0.7936 7.3808,1.4089 8.1294,4.7707 7.107,8.3462 4.8651,11.4939 2.2374,14.0663 0.4053,15.7285 -0.1353,16.2907 A1.8216,1.8216 0 0 1 -2.7389,13.7423 T-2.0232,13.0209 -0.14,11.2926 2.0693,9.1655 3.9488,6.0258 3.5158,3.0401 1.0226,1.9434 -0.1999,1.813 A1.824,1.824 0 0 1 0.1999,-1.813 ZM-0.9993,13.2482 T-0.3884,13.3906 1.8297,13.539 5.5697,13.5057 10.1725,13.4715 12.6423,13.4767 A2.0333,2.0333 0 0 1 12.6377,17.5433 T10.1659,17.5429 5.5328,17.4886 1.5773,17.3238 -1.046,16.9988 -1.8749,16.7847 A1.8216,1.8216 0 0 1 -0.9993,13.2482 Z" stroke-linecap="round" fill="#9398b0"/></g></g><g transform="matrix(1, 0, 0, 1, -116.7569, 3501.1768)" opacity="1"><g transform="scale(1)"><path d="M1.4138,0.7886 T1.1097,1.3316 0.473,3.2883 1.2782,6.1052 4.1287,7.6775 7.8594,6.6913 9.8775,5.5361 A1.7167,1.7167 0 0 1 11.9625,8.2639 T10.3767,9.5042 7.2368,11.1362 4.0483,11.379 0.9259,10.712 -1.6193,9.1862 -2.9022,6.1618 -2.6529,2.3651 -1.7957,-0.1016 -1.4138,-0.7886 A1.6189,1.6189 0 0 1 1.4138,0.7886 Z" stroke-linecap="round" fill="#9398b0"/></g></g><g transform="matrix(1, 0, 0, 1, -108.1381, 3498.8785)" opacity="1"><g transform="scale(1)"><path d="M1.7636,0 T1.7821,1.9015 1.8301,6.5634 2.212,11.4573 3.027,15.5292 3.76,18.5503 4.0305,19.6331 A1.795,1.795 0 0 1 0.5695,20.5869 T0.2472,19.5183 -0.6338,16.3372 -1.526,11.776 -1.8301,6.5653 -1.7821,1.9015 -1.7636,0 A1.7636,1.7636 0 0 1 1.7636,0 Z" stroke-linecap="round" fill="#9398b0"/></g></g><g transform="matrix(1, 0, 0, 1, -155.8287, 3532.2044)" opacity="1"><g transform="scale(1)"><path d="M0,2.0168 T-2.8546,2.039 -7.8922,2.0846 -11.7698,2.1214 -15.9929,2.1447 -20.3817,1.9759 -23.9291,2.0454 -25.6163,2.2937 A1.9061,1.9061 0 0 1 -27.2437,-1.1537 T-26.6669,-1.4593 -23.7981,-2.0507 -20.0139,-2.2455 -15.9929,-2.1447 -11.7698,-2.1214 -7.8922,-2.0846 -2.8546,-2.039 0,-2.0168 A2.0168,2.0168 0 0 1 0,2.0168 Z" stroke-linecap="round" fill="#9398b0"/></g></g><g transform="matrix(1, 0, 0, 1, -177.663, 3543.1215)" opacity="1"><g transform="scale(1)"><path d="M1.6702,0.207 T1.5698,1.301 1.3842,3.9379 2.7233,6.1224 5.9693,6.861 9.3193,6.4087 10.8478,5.8595 A1.7339,1.7339 0 0 1 12.1322,9.0805 T11.2413,9.4816 8.3387,10.436 4.6237,10.7682 1.2425,9.8908 -1.3442,7.9832 -2.131,4.3442 -1.8394,0.8748 -1.6702,-0.207 A1.6829,1.6829 0 0 1 1.6702,0.207 Z" stroke-linecap="round" fill="#9398b0"/></g></g><g transform="matrix(1, 0, 0, 1, -167.895, 3542.547)" opacity="1"><g transform="scale(1)"><path d="M1.6949,-0.1869 T1.8483,1.0338 2.1627,4.4689 2.4065,8.8269 2.6365,12.4972 3.5669,14.5174 4.3498,15.0111 A1.8784,1.8784 0 0 1 2.5502,18.3089 T1.9604,18.0142 0.1313,16.235 -1.2518,12.8807 -1.3731,8.9098 -1.4065,4.7225 -1.5787,1.4116 -1.6949,0.1869 A1.7052,1.7052 0 0 1 1.6949,-0.1869 Z" stroke-linecap="round" fill="#9398b0"/></g></g><g transform="matrix(1, 0, 0, 1, -133.4199, 3529.3315)" opacity="1"><g transform="scale(1)"><path d="M0,-2.2924 T1.4947,-2.2766 5.6892,-2.1278 10.4172,-1.9108 13.9752,-1.824 18.3052,-2.1574 22.6347,-2.6125 26.4177,-2.8177 30.6933,-2.8147 32.7149,-2.7254 A2.1557,2.1557 0 0 1 32.7851,1.5854 T31.7295,1.6638 28.7365,1.8517 24.2744,2.104 20.2136,2.4439 17.0626,2.7571 13.8506,2.8366 10.0764,2.667 5.4443,2.3974 1.4947,2.2766 0,2.2924 A2.2924,2.2924 0 0 1 0,-2.2924 Z" stroke-linecap="round" fill="#9398b0"/></g></g><g transform="matrix(1, 0, 0, 1, -119.6298, 3537.3757)" opacity="1"><g transform="scale(1)"><path d="M1.6358,0.1803 T1.4858,1.4028 0.8414,4.2725 0.1702,6.999 -0.0066,8.078 A1.6495,1.6495 0 0 1 -3.2739,7.6211 T-3.141,6.7895 -2.4416,4.1118 -1.7554,1.0427 -1.6358,-0.1803 A1.6457,1.6457 0 0 1 1.6358,0.1803 ZM-0.5964,6.5723 T-0.2007,6.8787 2.2072,7.5387 6.0813,7.5672 8.8148,6.8953 9.6864,6.5485 A1.6284,1.6284 0 0 1 10.9936,9.5315 T9.1991,10.3627 5.7043,11.3215 2.4981,11.2781 -0.4658,10.4446 -2.304,9.4545 -2.6841,9.1269 A1.6495,1.6495 0 0 1 -0.5964,6.5723 Z" stroke-linecap="round" fill="#9398b0"/></g></g><g transform="matrix(1, 0, 0, 1, -111.011, 3539.0994)" opacity="1"><g transform="scale(1)"><path d="M1.728,0 T1.7442,1.3599 1.6589,5.0875 1.4958,9.5341 1.6158,13.1607 2.0564,15.7239 2.3153,16.7394 A1.8157,1.8157 0 0 1 -1.1753,17.7406 T-1.494,16.7423 -2.11,13.6072 -2.252,9.2462 -1.9285,4.8709 -1.7442,1.3599 -1.728,0 A1.728,1.728 0 0 1 1.728,0 Z" stroke-linecap="round" fill="#9398b0"/></g></g><g transform="matrix(1, 0, 0, 1, -84.5801, 3521.2873)" opacity="1"><g transform="scale(1)"><path d="M0,-1.5319 T1.0879,-1.5642 3.9631,-1.728 6.7809,-1.9975 7.8114,-2.1355 A1.5821,1.5821 0 0 1 8.2686,0.9955 T7.2416,1.1579 4.1953,1.4584 1.0879,1.5642 0,1.5319 A1.5319,1.5319 0 0 1 0,-1.5319 Z" stroke-linecap="round" fill="#9398b0"/></g></g><g transform="matrix(1, 0, 0, 1, -84.5801, 3527.0331)" opacity="1"><g transform="scale(1)"><path d="M0.3335,-1.4992 T1.5626,-1.2561 4.2925,-0.815 6.7046,-0.524 7.6159,-0.4309 A1.5876,1.5876 0 0 1 7.3241,2.7309 T6.4112,2.6557 3.7987,2.3407 0.8828,1.8 -0.3335,1.4992 A1.5358,1.5358 0 0 1 0.3335,-1.4992 Z" stroke-linecap="round" fill="#9398b0"/></g></g><g transform="matrix(1, 0, 0, 1, -51.8287, 3501.1768)" opacity="1"><g transform="scale(1)"><path d="M1.7903,-0.3581 T2.099,0.9946 2.6907,4.5805 3.0486,8.7008 3.0784,12.7537 3.0332,14.9196 A1.8833,1.8833 0 0 1 -0.7332,14.9604 T-0.8251,12.8212 -0.9637,8.8985 -1.1651,5.1035 -1.5551,1.7251 -1.7903,0.3581 A1.8258,1.8258 0 0 1 1.7903,-0.3581 Z" stroke-linecap="round" fill="#9398b0"/></g></g><g transform="matrix(1, 0, 0, 1, -40.337, 3523.5856)" opacity="1"><g transform="scale(1)"><path d="M0,1.966 T-1.3599,1.9807 -4.6591,2.0313 -8.1645,2.0805 -11.8855,2.2249 -15.8697,2.444 -19.3002,2.7758 -20.9015,3.0195 A1.9036,1.9036 0 0 1 -21.6185,-0.7195 T-19.7597,-1.1392 -16.2369,-1.6879 -12.1517,-1.9553 -8.1645,-2.0805 -4.6591,-2.0313 -1.3599,-1.9807 0,-1.966 A1.966,1.966 0 0 1 0,1.966 Z" stroke-linecap="round" fill="#9398b0"/></g></g><g transform="matrix(1, 0, 0, 1, -57.5746, 3533.3536)" opacity="1"><g transform="scale(1)"><path d="M1.8962,0.7787 T1.7698,2.0019 2.0207,4.6681 4.2006,6.6833 6.0032,7.2556 A1.9509,1.9509 0 0 1 5.4968,11.1244 T4.7035,11.0303 1.9753,10.0691 -0.8284,7.9081 -1.9399,4.7147 -2.0394,1.5882 -1.8962,0.3613 A1.9076,1.9076 0 0 1 1.8962,0.7787 Z" stroke-linecap="round" fill="#9398b0"/></g></g><g transform="matrix(1, 0, 0, 1, -50.6796, 3535.0773)" opacity="1"><g transform="scale(1)"><path d="M1.8227,-0.2259 T1.9529,0.8627 2.2067,4.2807 2.3838,8.4292 3.1999,12.4413 3.9626,14.6341 A1.8792,1.8792 0 0 1 0.6374,16.3859 T0.1717,15.518 -0.8189,12.4677 -1.3504,8.5088 -1.4505,4.5663 -1.6833,1.3131 -1.8227,0.2259 A1.8366,1.8366 0 0 1 1.8227,-0.2259 Z" stroke-linecap="round" fill="#9398b0"/></g></g><g transform="matrix(1, 0, 0, 1, -30.5691, 3517.2652)" opacity="1"><g transform="scale(1)"><path d="M0.1299,-1.31 T1.4891,-1.1691 4.363,-0.8724 5.8775,-0.7166 A1.2929,1.2929 0 0 1 5.6225,1.8566 T4.1068,1.712 1.2306,1.4387 -0.1299,1.31 A1.3164,1.3164 0 0 1 0.1299,-1.31 Z" stroke-linecap="round" fill="#9398b0"/></g></g><g transform="matrix(1, 0, 0, 1, -31.1436, 3523.5856)" opacity="1"><g transform="scale(1)"><path d="M0.7007,-1.6377 T1.6412,-1.2466 4.5176,-0.7287 6.4534,-0.6021 A1.7571,1.7571 0 0 1 6.1866,2.9021 T3.7039,2.6923 0.2603,2.0601 -0.7007,1.6377 A1.7813,1.7813 0 0 1 0.7007,-1.6377 Z" stroke-linecap="round" fill="#9398b0"/></g></g><g transform="matrix(1, 0, 0, 1, -0.116, 3500.6022)" opacity="1"><g transform="scale(1)"><path d="M1.5272,-0.1083 T1.674,1.7923 1.9079,5.1193 2.0741,8.6684 1.9502,12.6063 1.6581,15.5897 1.5691,16.758 A1.5722,1.5722 0 0 1 -1.5691,16.562 T-1.452,14.2502 -1.2273,10.3271 -1.2007,6.3144 -1.4044,2.0106 -1.5272,0.1083 A1.531,1.531 0 0 1 1.5272,-0.1083 Z" stroke-linecap="round" fill="#9398b0"/></g></g><g transform="matrix(1, 0, 0, 1, 6.779, 3523.011)" opacity="1"><g transform="scale(1)"><path d="M0.2525,1.515 T-1.3716,1.835 -4.7312,2.3327 -8.8688,3.0324 -12.5709,3.9522 -13.8709,4.3498 A1.5586,1.5586 0 0 1 -14.8491,1.3902 T-12.2808,0.4888 -8.2336,-0.6309 -5.1433,-0.9581 -1.8921,-1.2911 -0.2525,-1.515 A1.5359,1.5359 0 0 1 0.2525,1.515 Z" stroke-linecap="round" fill="#9398b0"/></g></g><g transform="matrix(1, 0, 0, 1, -8.1602, 3537.3757)" opacity="1"><g transform="scale(1)"><path d="M0.2489,-2.2577 T1.4742,-2.1038 4.2171,-1.2643 6.4213,0.9527 6.7878,4.0241 5.6369,6.8036 3.7419,9.1975 2.6779,10.352 A2.1074,2.1074 0 0 1 -0.5149,7.6006 T0.372,6.6664 1.7252,4.1107 0.9713,2.3734 -0.2489,2.2577 A2.2714,2.2714 0 0 1 0.2489,-2.2577 ZM1.8321,7.0071 T2.4524,7.2623 4.6514,7.5491 7.8435,7.3939 9.4567,7.2071 A2.0075,2.0075 0 0 1 10.0833,11.1729 T8.1328,11.5491 4.4139,11.8577 1.4881,11.3678 0.3309,10.9455 A2.1074,2.1074 0 0 1 1.8321,7.0071 Z" stroke-linecap="round" fill="#9398b0"/></g></g><g transform="matrix(1, 0, 0, 1, 2.7569, 3532.779)" opacity="1"><g transform="scale(1)"><path d="M-0.4693,-1.6406 T0.4858,-1.9263 3.1372,-1.7231 4.8333,-1.2342 A1.7557,1.7557 0 0 1 2.5865,1.4644 T2.4742,1.2943 1.4156,1.3823 0.4693,1.6406 A1.7064,1.7064 0 0 1 -0.4693,-1.6406 ZM5.3084,0.8413 T5.0041,1.4746 3.8615,3.2891 3.023,4.4704 A1.791,1.791 0 0 1 -0.1707,2.8483 T0.8126,1.5025 1.9536,-0.2273 2.1114,-0.6111 A1.7557,1.7557 0 0 1 5.3084,0.8413 ZM2.3226,2.1088 T2.7025,2.3472 4.3293,2.4449 5.5763,2.3044 A1.7244,1.7244 0 0 1 5.9237,5.7356 T4.0219,5.9138 1.3249,5.651 0.5297,5.2099 A1.791,1.791 0 0 1 2.3226,2.1088 Z" stroke-linecap="round" fill="#9398b0"/></g></g><g transform="matrix(1, 0, 0, 1, -384.5138, 3516.6906)" opacity="1"><g transform="scale(1)"><path d="M2.0618,-0.2273 T2.1858,0.9966 2.4183,4.4485 2.4283,9.2036 2.2567,14.324 2.1723,18.4867 2.3499,22.8461 2.7877,27.8973 3.0364,30.1587 A1.9088,1.9088 0 0 1 -0.7364,30.7413 T-0.9791,29.5084 -1.5244,25.7547 -1.9534,21.6216 -2.0548,18.4132 -1.9025,14.073 -1.6645,9.0723 -1.6622,4.743 -1.9162,1.4488 -2.0618,0.2273 A2.0743,2.0743 0 0 1 2.0618,-0.2273 Z" stroke-linecap="round" fill="#9398b0"/></g></g><g transform="matrix(1, 0, 0, 1, -382.7901, 3546.5691)" opacity="1"><g transform="scale(1)"><path d="M-1.5333,-0.8512 T-0.8463,-2.0686 0.5127,-5.4119 1.7308,-10.0667 2.7084,-13.9915 3.6258,-16.9117 4.6304,-20.0554 5.6743,-23.4651 6.7427,-27.1522 7.6876,-30.8223 8.4357,-34.2202 9.0963,-37.3807 9.6445,-41.0698 10.1517,-45.0035 10.8793,-48.4006 11.734,-51.8068 12.4813,-55.0788 13.4011,-58.0251 15.2774,-60.6119 16.581,-61.7348 A1.8665,1.8665 0 0 1 19.039,-58.9252 T18.1456,-58.1298 16.84,-55.5638 15.9662,-52.1055 14.965,-48.3504 14.1401,-44.5792 13.5599,-40.4853 12.9219,-36.5486 12.1987,-33.3539 11.3532,-29.8445 10.3062,-26.0801 9.1478,-22.3646 8.0305,-18.9438 6.5813,-14.5765 5.1127,-9.3024 3.7136,-4.1959 2.2038,-0.3768 1.5333,0.8512 A1.7538,1.7538 0 0 1 -1.5333,-0.8512 Z" stroke-linecap="round" fill="#9398b0"/></g></g><g transform="matrix(1, 0, 0, 1, -362.6796, 3486.2376)" opacity="1"><g transform="scale(1)"><path d="M0,-2.1491 T1.0879,-2.1245 4.7261,-2.2863 9.2041,-2.5423 12.9134,-2.6419 16.6008,-2.543 20.3206,-2.3291 24.0191,-2.2267 27.8081,-2.4194 31.7733,-3.0273 36.1333,-3.7653 40.2672,-4.5945 44.3065,-5.6452 48.7303,-6.7836 53.294,-7.7451 58.0093,-8.5329 62.4871,-9.2571 66.7793,-9.6745 71.1653,-9.7942 75.2802,-9.9475 79.3249,-10.1928 83.5713,-10.3462 87.5209,-10.3965 91.3165,-10.4101 95.2448,-10.2562 99.2937,-9.9742 102.9368,-9.8075 106.1768,-9.7291 109.4785,-9.8457 112.742,-10.1923 115.4183,-10.4375 116.4541,-10.4916 A1.8808,1.8808 0 0 1 116.8259,-6.7484 T115.7997,-6.5977 113.1158,-6.1056 109.6572,-5.5104 106.1618,-5.2265 102.8551,-5.1885 99.6762,-5.2332 96.5968,-5.4799 93.2415,-5.6665 89.4917,-5.6562 85.6836,-5.6448 81.6952,-5.5814 77.4921,-5.3107 73.2912,-5.0811 69.1871,-5.025 65.153,-4.8462 60.9969,-4.3848 56.4757,-3.5855 51.9872,-2.7036 47.739,-1.7255 43.4872,-0.6289 39.0793,0.3495 34.5886,1.1226 30.2334,1.6709 25.9386,2.0144 21.9175,2.0615 18.2416,1.7793 14.717,1.5595 11.2021,1.5696 7.5518,1.6725 3.9282,1.929 1.0879,2.1245 0,2.1491 A2.1491,2.1491 0 0 1 0,-2.1491 Z" stroke-linecap="round" fill="#9398b0"/></g></g><g transform="matrix(1, 0, 0, 1, -245.4641, 3477.6188)" opacity="1"><g transform="scale(1)"><path d="M1.3476,-0.4031 T1.768,0.9534 2.4452,5.1301 2.3373,10.3252 1.6453,14.6507 1.0866,17.6431 0.8552,18.6848 A1.4554,1.4554 0 0 1 -1.9952,18.0952 T-1.7942,17.0471 -1.308,14.0678 -0.6637,10.0178 -0.433,5.5143 -0.9544,1.7664 -1.3476,0.4031 A1.4066,1.4066 0 0 1 1.3476,-0.4031 Z" stroke-linecap="round" fill="#9398b0"/></g></g><g transform="matrix(1, 0, 0, 1, -201.221, 3517.8398)" opacity="1"><g transform="scale(1)"><path d="M1.8111,-0.339 T2.2371,1.8311 2.908,6.031 3.2856,10.094 3.6291,14.2252 3.9665,18.439 4.1623,22.4855 4.2775,26.2513 4.3497,30.2947 4.5229,32.7121 4.67,32.9212 A2.1029,2.1029 0 0 1 0.7435,34.4285 T0.466,33.5317 0.1684,30.3936 0.1366,26.343 0.085,22.6453 -0.0359,18.7224 -0.2992,14.5186 -0.575,10.4137 -0.8521,6.5854 -1.4235,2.5158 -1.8111,0.339 A1.8426,1.8426 0 0 1 1.8111,-0.339 ZM0.6069,33.5607 T0.6813,32.5052 0.8108,29.3766 1.0595,24.5534 1.349,20.3216 1.5061,16.9718 1.6073,13.0272 1.8068,8.5834 2.1853,3.484 2.6559,-2.0485 3.1684,-7.8174 3.701,-13.7104 4.2444,-19.1451 4.6528,-23.8783 4.8613,-27.9521 4.7805,-32.1198 5.0351,-36.0556 6.8494,-38.1896 9.934,-38.3118 13.3016,-37.623 16.6154,-37.2989 20.4209,-37.288 25.0517,-37.6589 29.1576,-38.136 32.4012,-38.4613 35.7342,-38.7847 39.3538,-38.9745 43.163,-39.0815 46.9341,-39.1432 50.6447,-39.0416 54.2331,-38.8573 57.6621,-38.7629 61.0977,-38.7106 64.5399,-38.6831 67.8489,-38.6657 70.9521,-38.6558 75.0176,-38.9751 80.0474,-39.576 84.6318,-40.207 88.6042,-40.6534 92.6545,-40.7416 96.9189,-40.4268 100.0482,-38.6085 101.4178,-35.6594 101.8328,-31.823 102.071,-27.9886 102.2814,-25.0288 102.3502,-21.747 102.368,-18.0612 102.3808,-16.1342 A1.8313,1.8313 0 0 1 98.7192,-16.0458 T98.639,-17.9712 98.4804,-21.5955 98.3074,-24.7244 98.0292,-29.0337 97.7521,-33.3528 96.2627,-35.5176 92.7629,-36.1692 89.0251,-35.9886 85.3342,-35.504 80.7815,-34.803 76.8386,-34.26 73.9268,-33.8997 70.941,-33.7617 67.8271,-33.7676 64.4997,-33.7802 61.0217,-33.8094 57.5189,-33.8648 53.9659,-33.9748 50.49,-34.1784 46.9886,-34.3012 43.2678,-34.277 39.5653,-34.2211 36.1474,-34.1019 32.8312,-33.8389 29.6415,-33.563 26.6755,-33.2694 22.6711,-32.9757 18.2196,-32.9685 13.9433,-33.4845 9.8513,-34.8 8.221,-34.1623 8.4229,-31.1467 8.4321,-27.7612 8.1858,-23.5626 7.7313,-18.7827 7.158,-13.3912 6.6037,-7.5102 6.0861,-1.7616 5.6339,3.7276 5.2937,8.709 5.1616,13.081 5.1451,17.0961 5.0789,20.6015 4.9388,24.7552 4.8712,29.4439 4.8501,32.677 4.8066,33.7891 A2.1029,2.1029 0 0 1 0.6069,33.5607 Z" stroke-linecap="round" fill="#9398b0"/></g></g><g transform="matrix(1, 0, 0, 1, -68.4917, 3523.011)" opacity="1"><g transform="scale(1)"><path d="M1.5354,0.1385 T1.412,1.6341 1.2343,4.8305 1.1543,8.2483 1.1178,11.6859 0.9018,16.689 0.4965,22.1046 0.2964,24.2376 A1.4504,1.4504 0 0 1 -2.5964,24.0224 T-2.4786,21.8832 -2.26,16.5566 -2.1304,11.6323 -2.0525,8.1483 -1.9156,4.625 -1.6816,1.3552 -1.5354,-0.1385 A1.5416,1.5416 0 0 1 1.5354,0.1385 Z" stroke-linecap="round" fill="#9398b0"/></g></g><g transform="matrix(1, 0, 0, 1, -69.6409, 3552.8895)" opacity="1"><g transform="scale(1)"><path d="M-1.5095,-0.4108 T-1.0916,-1.9025 -0.0167,-6.2449 0.932,-10.8127 1.4963,-14.5051 1.8941,-18.5599 2.209,-22.8777 2.6396,-26.8688 3.1249,-31.2527 3.6475,-35.7425 4.0585,-39.8378 4.4092,-43.7626 4.7351,-47.3302 5.074,-52.255 5.5879,-57.2584 6.6563,-61.319 7.8613,-64.0709 8.2812,-64.7206 A1.7611,1.7611 0 0 1 11.2588,-62.8394 T10.8525,-62.1813 9.9244,-60.0213 9.1487,-56.7199 8.7337,-53.4072 8.5134,-50.4473 8.3368,-46.9897 8.0091,-43.4128 7.6402,-39.4532 7.2063,-35.2921 6.6373,-30.8196 6.0836,-26.4456 5.5745,-22.5872 5.1387,-18.2034 4.6326,-13.9948 3.9933,-10.2555 2.9871,-5.5575 1.9052,-1.0869 1.5095,0.4108 A1.5644,1.5644 0 0 1 -1.5095,-0.4108 Z" stroke-linecap="round" fill="#9398b0"/></g></g><g transform="matrix(1, 0, 0, 1, -60.4475, 3490.8343)" opacity="1"><g transform="scale(1)"><path d="M-0.5941,-2.0767 T0.3625,-2.3283 3.0723,-3.0136 6.8912,-3.5924 11.3166,-3.798 15.3372,-3.8843 18.822,-3.9374 22.4207,-3.9847 27.6058,-4.031 34.3169,-4.071 39.4556,-4.0812 43.0785,-4.0749 48.1432,-4.0577 53.1229,-4.0348 56.3971,-4.0172 60.7785,-3.8494 66.07,-3.5629 70.4846,-3.5434 73.4956,-3.6714 74.5764,-3.691 A1.9749,1.9749 0 0 1 74.8236,0.251 T73.7487,0.3666 70.5506,0.7251 65.8006,0.8791 60.5728,0.679 56.3971,0.5772 53.1229,0.5948 48.1433,0.6178 43.0786,0.6351 39.4559,0.6416 34.3175,0.6323 27.6085,0.5957 22.4267,0.5554 18.8338,0.5177 15.368,0.4827 11.4173,0.4739 7.3686,0.5697 4.0543,1.0763 1.539,1.7844 0.5941,2.0767 A2.16,2.16 0 0 1 -0.5941,-2.0767 Z" stroke-linecap="round" fill="#9398b0"/></g></g><g transform="matrix(1, 0, 0, 1, 16.547, 3485.663)" opacity="1"><g transform="scale(1)"><path d="M1.5762,-0.2868 T1.8628,1.2052 2.4084,5.37 2.7476,10.6557 2.5132,15.0225 1.8692,18.5677 1.5398,20.359 A1.5598,1.5598 0 0 1 -1.5398,19.861 T-1.2877,18.0572 -0.8286,14.7804 -0.6627,10.7594 -0.8828,5.7464 -1.3189,1.7841 -1.5762,0.2868 A1.602,1.602 0 0 1 1.5762,-0.2868 Z" stroke-linecap="round" fill="#9398b0"/></g></g><g transform="matrix(1, 0, 0, 1, -324.7569, 3596.558)" opacity="1"><g transform="scale(1)"><path d="M1.7327,1.3473 T0.7761,2.5655 -1.1245,4.8823 -3.8556,7.9075 -7.2405,11.4912 -10.1935,14.5209 -13.6248,16.9235 -15.7009,17.9535 A2.0958,2.0958 0 0 1 -17.6191,14.2265 T-15.6254,12.8977 -12.1052,10.0475 -8.845,6.7564 -5.3669,3.0469 -2.6776,-0.1201 -1.7327,-1.3473 A2.1949,2.1949 0 0 1 1.7327,1.3473 Z" stroke-linecap="round" fill="#9398b0"/></g></g><g transform="matrix(1, 0, 0, 1, -340.2707, 3600.0055)" opacity="1"><g transform="scale(1)"><path d="M1.4887,-1.4887 T2.4398,-0.5387 5.0381,1.8007 8.2507,4.3213 11.221,6.4263 14.2622,9.0646 16.5383,11.6038 17.1782,12.4786 A2.1219,2.1219 0 0 1 13.8418,15.1014 T13.1428,14.2732 11.1099,12.2242 8.4706,10.0497 5.4651,7.759 2.0885,4.907 -0.5383,2.4402 -1.4887,1.4887 A2.1054,2.1054 0 0 1 1.4887,-1.4887 Z" stroke-linecap="round" fill="#9398b0"/></g></g><g transform="matrix(1, 0, 0, 1, -310.3923, 3608.6243)" opacity="1"><g transform="scale(1)"><path d="M-0.3773,-1.6962 T0.8419,-1.9844 3.9869,-2.4801 6.9057,-2.7501 7.8988,-2.8125 A1.6685,1.6685 0 0 1 8.1812,0.5125 T7.1917,0.6185 4.516,0.9545 1.6035,1.4404 0.3773,1.6962 A1.7376,1.7376 0 0 1 -0.3773,-1.6962 Z" stroke-linecap="round" fill="#9398b0"/></g></g><g transform="matrix(1, 0, 0, 1, -285.1105, 3592.5359)" opacity="1"><g transform="scale(1)"><path d="M1.9344,0.8277 T1.5171,1.7789 0.6463,3.6675 0.1929,4.6048 A2.0568,2.0568 0 0 1 -3.8091,3.6529 T-3.268,2.3628 -2.3307,0.1226 -1.9344,-0.8277 A2.1041,2.1041 0 0 1 1.9344,0.8277 ZM-1.1641,2.1755 T-0.1963,2.5112 2.4188,3.4536 5.055,5.4349 5.853,8.8827 4.4912,12.0158 1.8551,13.4903 -1.1926,13.8117 -3.5529,13.5701 -4.3307,13.4216 A1.9564,1.9564 0 0 1 -3.7093,9.5584 T-1.9865,9.7012 0.9048,8.6873 0.6927,7.0805 -1.57,6.3564 -2.4521,6.0822 A2.0568,2.0568 0 0 1 -1.1641,2.1755 Z" stroke-linecap="round" fill="#9398b0"/></g></g><g transform="matrix(1, 0, 0, 1, -287.9834, 3590.8122)" opacity="1"><g transform="scale(1)"><path d="M0,-1.6471 T1.2227,-1.6866 4.1166,-1.7815 7.9416,-2.0975 11.5184,-2.52 14.7064,-2.8079 16.4713,-2.9337 A1.7937,1.7937 0 0 1 16.8487,0.6337 T15.9814,0.7591 13.5698,1.1732 10.5041,1.5444 7.3853,1.732 4.1166,1.7815 1.2227,1.6866 0,1.6471 A1.6471,1.6471 0 0 1 0,-1.6471 Z" stroke-linecap="round" fill="#9398b0"/></g></g><g transform="matrix(1, 0, 0, 1, -275.3425, 3612.6464)" opacity="1"><g transform="scale(1)"><path d="M0.4899,1.8001 T-0.9886,2.2662 -5.1461,3.3834 -9.9559,4.2191 -13.9061,4.2508 -16.6335,3.9173 -17.5418,3.7368 A2.0393,2.0393 0 0 1 -16.9382,-0.2968 T-14.6306,-0.165 -10.3931,-0.1466 -5.9874,-0.6826 -2.0007,-1.4527 -0.4899,-1.8001 A1.8655,1.8655 0 0 1 0.4899,1.8001 Z" stroke-linecap="round" fill="#9398b0"/></g></g><g transform="matrix(1, 0, 0, 1, -289.7072, 3623.5635)" opacity="1"><g transform="scale(1)"><path d="M1.7576,-1.7576 T2.4147,-1.0737 4.7579,0.3734 7.7211,2.3464 9.2192,5.2013 8.3414,8.4588 5.4406,11.1794 2.3682,13.0055 1.0977,13.7233 A2.4598,2.4598 0 0 1 -1.5248,9.5609 T0.2898,8.6008 2.6136,6.293 1.383,4.025 -1.0572,2.4312 -1.7576,1.7576 A2.4857,2.4857 0 0 1 1.7576,-1.7576 ZM1.4286,9.8106 T1.8638,10.1954 3.7595,10.7354 7.098,11.0311 11.2574,11.3233 14.8268,11.5579 16.1148,11.6408 A2.1494,2.1494 0 0 1 16.0652,15.9392 T13.6056,16.0487 8.7109,16.1573 4.5663,15.8754 1.1753,15.1443 -1.181,14.0839 -1.8557,13.4735 A2.4598,2.4598 0 0 1 1.4286,9.8106 Z" stroke-linecap="round" fill="#9398b0"/></g></g><g transform="matrix(1, 0, 0, 1, -254.0829, 3599.4309)" opacity="1"><g transform="scale(1)"><path d="M0.7124,-1.4289 T1.5252,-1.0544 4.7289,-1.1382 7.1198,-1.5965 A1.6344,1.6344 0 0 1 7.8202,1.5965 T6.6552,1.8685 3.208,2.2237 0.1066,1.868 -0.7124,1.4289 A1.5967,1.5967 0 0 1 0.7124,-1.4289 Z" stroke-linecap="round" fill="#9398b0"/></g></g><g transform="matrix(1, 0, 0, 1, -255.232, 3606.9006)" opacity="1"><g transform="scale(1)"><path d="M0.5671,-1.9823 T1.5223,-1.7278 4.5907,-1.267 7.7084,-1.0084 8.7129,-0.956 A2.108,2.108 0 0 1 8.5271,3.256 T6.5485,3.1825 2.9477,2.8351 0.3791,2.2717 -0.5671,1.9823 A2.0619,2.0619 0 0 1 0.5671,-1.9823 Z" stroke-linecap="round" fill="#9398b0"/></g></g><g transform="matrix(1, 0, 0, 1, -223.0552, 3587.3646)" opacity="1"><g transform="scale(1)"><path d="M2.1031,-0.2319 T2.263,0.9881 2.5183,4.5819 2.6235,8.3316 2.6332,9.7074 A2.0641,2.0641 0 0 1 -1.4932,9.8326 T-1.5669,8.4587 -1.7621,4.8838 -1.9933,1.4573 -2.1031,0.2319 A2.1158,2.1158 0 0 1 2.1031,-0.2319 Z" stroke-linecap="round" fill="#9398b0"/></g></g><g transform="matrix(1, 0, 0, 1, -217.3094, 3594.2597)" opacity="1"><g transform="scale(1)"><path d="M0,1.855 T-1.0879,1.8472 -3.7887,1.9661 -7.1123,2.2277 -9.8325,2.411 -10.8419,2.4595 A1.8911,1.8911 0 0 1 -10.9981,-1.3195 T-9.988,-1.3544 -7.5012,-1.4715 -4.1001,-1.6965 -1.0879,-1.8472 0,-1.855 A1.855,1.855 0 0 1 0,1.855 Z" stroke-linecap="round" fill="#9398b0"/></g></g><g transform="matrix(1, 0, 0, 1, -227.6519, 3610.9227)" opacity="1"><g transform="scale(1)"><path d="M0.2839,-2.2914 T2.5749,-1.9336 4.8659,-1.5757 A2.1622,2.1622 0 0 1 4.3341,2.7157 T2.0251,2.5036 -0.2839,2.2914 A2.309,2.309 0 0 1 0.2839,-2.2914 Z" stroke-linecap="round" fill="#9398b0"/></g></g><g transform="matrix(1, 0, 0, 1, -198.9227, 3610.3481)" opacity="1"><g transform="scale(1)"><path d="M1.4811,0 T1.5205,2.3106 1.58,6.2457 1.6126,10.0718 1.5912,14.1817 1.5574,16.09 A1.5574,1.5574 0 0 1 -1.5574,16.09 T-1.5912,14.1817 -1.6126,10.0718 -1.58,6.2457 -1.5205,2.3106 -1.4811,0 A1.4811,1.4811 0 0 1 1.4811,0 Z" stroke-linecap="round" fill="#9398b0"/></g></g><g transform="matrix(1, 0, 0, 1, -199.4972, 3628.7348)" opacity="1"><g transform="scale(1)"><path d="M-1.5012,-0.6005 T-0.9429,-1.9546 0.3861,-5.5096 1.7688,-10.1631 2.8134,-14.108 3.7353,-17.1998 4.5921,-20.3979 5.2861,-23.5334 5.9182,-26.5618 6.6569,-30.5627 7.5751,-35.4077 8.4038,-39.7905 9.0832,-43.4633 9.6537,-46.0015 9.8885,-46.914 A1.6446,1.6446 0 0 1 13.0915,-46.166 T12.8978,-45.2438 12.4371,-42.7199 11.8347,-39.017 11.039,-34.7699 10.0867,-29.9796 9.2624,-25.8331 8.5667,-22.7717 7.7733,-19.5123 6.8309,-16.2484 5.8826,-13.2623 4.7943,-9.3033 3.3512,-4.4487 2.0308,-0.7651 1.5012,0.6005 A1.6168,1.6168 0 0 1 -1.5012,-0.6005 Z" stroke-linecap="round" fill="#9398b0"/></g></g><g transform="matrix(1, 0, 0, 1, -173.6409, 3587.9392)" opacity="1"><g transform="scale(1)"><path d="M1.494,-0.1347 T1.6322,1.3607 1.6553,5.1796 1.4849,8.6596 1.4297,9.8163 A1.4305,1.4305 0 0 1 -1.4297,9.7237 T-1.41,8.566 -1.3108,5.2653 -1.3626,1.6286 -1.494,0.1347 A1.5,1.5 0 0 1 1.494,-0.1347 Z" stroke-linecap="round" fill="#9398b0"/></g></g><g transform="matrix(1, 0, 0, 1, -166.1713, 3605.1768)" opacity="1"><g transform="scale(1)"><path d="M0,1.4518 T-1.2227,1.4869 -4.6667,1.5847 -8.5438,1.6795 -11.7274,1.755 -13.757,2.5528 -14.2589,3.3071 A1.6061,1.6061 0 0 1 -16.7611,1.2929 T-15.6287,0.0168 -12.3479,-1.4854 -8.5438,-1.6795 -4.6667,-1.5847 -1.2227,-1.4869 0,-1.4518 A1.4518,1.4518 0 0 1 0,1.4518 Z" stroke-linecap="round" fill="#9398b0"/></g></g><g transform="matrix(1, 0, 0, 1, -179.3867, 3613.7956)" opacity="1"><g transform="scale(1)"><path d="M1.531,-0.2171 T1.6895,0.7303 2.0036,3.1232 3.5788,4.92 5.8167,4.783 6.6349,4.2948 A1.6778,1.6778 0 0 1 8.3051,7.2052 T6.9087,7.9878 3.7894,8.8469 0.6158,7.5684 -1.0718,4.1694 -1.4199,1.1712 -1.531,0.2171 A1.5464,1.5464 0 0 1 1.531,-0.2171 Z" stroke-linecap="round" fill="#9398b0"/></g></g><g transform="matrix(1, 0, 0, 1, -173.0663, 3614.9448)" opacity="1"><g transform="scale(1)"><path d="M1.8245,-0.4561 T2.0933,0.6331 2.6128,3.9245 2.5818,8.4602 1.8033,13.334 1.3064,15.8743 A1.9115,1.9115 0 0 1 -2.4464,15.1457 T-1.9585,12.6145 -1.1854,8.2353 -1.0871,4.5083 -1.5493,1.5427 -1.8245,0.4561 A1.8807,1.8807 0 0 1 1.8245,-0.4561 Z" stroke-linecap="round" fill="#9398b0"/></g></g><g transform="matrix(1, 0, 0, 1, -187.4309, 3584.4917)" opacity="1"><g transform="scale(1)"><path d="M-0.6796,-1.5885 T0.2657,-2.0106 3.0268,-2.8587 6.6511,-3.0584 9.9628,-2.7551 13.1691,-2.7636 16.7043,-3.1877 18.5365,-3.5261 A1.8551,1.8551 0 0 1 19.3835,0.0861 T17.5495,0.6073 14.2077,1.261 11.074,1.2802 7.8635,0.8546 4.4354,0.6739 1.6358,1.197 0.6796,1.5885 A1.7278,1.7278 0 0 1 -0.6796,-1.5885 Z" stroke-linecap="round" fill="#9398b0"/></g></g><g transform="matrix(1, 0, 0, 1, -166.7459, 3582.768)" opacity="1"><g transform="scale(1)"><path d="M2.2029,-0.3782 T2.6454,1.3808 3.7469,5.7077 4.738,9.6741 5.0702,11.0725 A1.6731,1.6731 0 0 1 1.8298,11.9075 T1.4448,10.5227 0.3742,6.5325 -0.6871,2.1526 -1.0629,0.3782 A1.6761,1.6761 0 0 1 2.2029,-0.3782 Z" stroke-linecap="round" fill="#9398b0"/></g></g><g transform="matrix(1, 0, 0, 1, -156.4033, 3598.2818)" opacity="1"><g transform="scale(1)"><path d="M0.3127,-1.4058 T2.9036,-0.8572 5.4945,-0.3087 A1.4943,1.4943 0 0 1 4.8455,2.6087 T2.2664,2.0072 -0.3127,1.4058 A1.4402,1.4402 0 0 1 0.3127,-1.4058 Z" stroke-linecap="round" fill="#9398b0"/></g></g><g transform="matrix(1, 0, 0, 1, -156.9779, 3604.6022)" opacity="1"><g transform="scale(1)"><path d="M0.1852,-1.4944 T1.2762,-1.3851 4.3995,-1.1235 6.4317,-0.9712 A1.5453,1.5453 0 0 1 6.2083,2.1112 T4.0963,1.9631 0.8996,1.6547 -0.1852,1.4944 A1.5058,1.5058 0 0 1 0.1852,-1.4944 Z" stroke-linecap="round" fill="#9398b0"/></g></g><g transform="matrix(1, 0, 0, 1, -130.547, 3587.3646)" opacity="1"><g transform="scale(1)"><path d="M1.4487,-0.3222 T1.7533,0.8932 2.313,3.6546 2.8932,7.0502 3.2185,8.8999 A1.5263,1.5263 0 0 1 0.2215,9.4801 T0.0099,8.4784 -0.5859,5.1295 -1.2094,1.5522 -1.4487,0.3222 A1.4841,1.4841 0 0 1 1.4487,-0.3222 Z" stroke-linecap="round" fill="#9398b0"/></g></g><g transform="matrix(1, 0, 0, 1, -125.9503, 3594.2597)" opacity="1"><g transform="scale(1)"><path d="M-0.3737,1.6802 T-1.5969,1.4115 -4.5934,1.0731 -7.439,1.065 -8.5113,1.1267 A1.7001,1.7001 0 0 1 -8.7287,-2.2667 T-7.6574,-2.3424 -4.3284,-2.3244 -0.8485,-1.9554 0.3737,-1.6802 A1.7212,1.7212 0 0 1 -0.3737,1.6802 Z" stroke-linecap="round" fill="#9398b0"/></g></g><g transform="matrix(1, 0, 0, 1, -133.4199, 3606.326)" opacity="1"><g transform="scale(1)"><path d="M0,-1.5962 T1.0879,-1.6178 4.2479,-1.6466 6.32,-1.6538 A1.6538,1.6538 0 0 1 6.32,1.6538 T4.2479,1.6466 1.0879,1.6178 0,1.5962 A1.5962,1.5962 0 0 1 0,-1.5962 Z" stroke-linecap="round" fill="#9398b0"/></g></g><g transform="matrix(1, 0, 0, 1, -97.7956, 3584.4917)" opacity="1"><g transform="scale(1)"><path d="M1.7077,-0.154 T1.8643,1.3387 2.1407,4.832 2.2683,9.1458 2.2763,11.459 A1.7065,1.7065 0 0 1 -1.1363,11.521 T-1.2117,9.2413 -1.3845,5.0545 -1.5947,1.6507 -1.7077,0.154 A1.7146,1.7146 0 0 1 1.7077,-0.154 Z" stroke-linecap="round" fill="#9398b0"/></g></g><g transform="matrix(1, 0, 0, 1, -87.453, 3603.453)" opacity="1"><g transform="scale(1)"><path d="M0.1366,1.6536 T-1.4918,1.8304 -4.6888,2.1178 -8.7908,2.4665 -13.2832,2.9603 -16.6206,4.0814 -17.9991,4.9468 A1.7787,1.7787 0 0 1 -19.9209,1.9532 T-17.9854,0.6911 -13.925,-0.8374 -9.1125,-1.2544 -4.9161,-1.4365 -1.7719,-1.5608 -0.1366,-1.6536 A1.6593,1.6593 0 0 1 0.1366,1.6536 Z" stroke-linecap="round" fill="#9398b0"/></g></g><g transform="matrix(1, 0, 0, 1, -104.6906, 3617.2431)" opacity="1"><g transform="scale(1)"><path d="M0.5195,-2.0781 T1.6059,-1.8003 4.2037,-1.1653 7.4363,0.1698 9.8284,2.4417 10.4219,5.1789 9.3575,8.0126 7.0959,10.747 7.3055,12.6176 10.5091,12.9253 13.3906,12.5361 14.5528,12.366 A2.0312,2.0312 0 0 1 15.3272,16.354 T14.1859,16.6312 10.8376,17.3321 7.1546,17.6632 3.9866,16.9817 1.4627,14.6817 1.7043,11.0544 3.9441,7.8889 4.8543,4.9753 3.1288,2.9606 0.5699,2.3443 -0.5195,2.0781 A2.1421,2.1421 0 0 1 0.5195,-2.0781 Z" stroke-linecap="round" fill="#9398b0"/></g></g><g transform="matrix(1, 0, 0, 1, -299.3499, 3680.8785)" opacity="1"><g transform="scale(1)"><path d="M1.973,0.9865 T1.4701,1.9785 -0.6508,4.9046 -3.8677,8.6846 -7.4535,12.6017 -11.4747,16.2685 -14.6069,18.501 -15.705,19.1381 A1.9731,1.9731 0 0 1 -17.875,15.8419 T-16.8557,15.0851 -14.2489,12.9267 -10.7012,9.5239 -7.0332,5.6005 -4.1396,2.3406 -2.4634,0.0081 -1.973,-0.9865 A2.2059,2.2059 0 0 1 1.973,0.9865 Z" stroke-linecap="round" fill="#f2f2f2"/></g></g><g transform="matrix(1, 0, 0, 1, -311.9445, 3678.0797)" opacity="1"><g transform="scale(1)"><path d="M2.9376,-1.1188 T3.5935,0.2086 5.6163,3.9864 8.3503,8.6421 10.8103,12.485 12.9656,15.824 14.028,17.5253 A2.5364,2.5364 0 0 1 9.752,20.2547 T8.7608,18.7388 6.5727,15.3912 3.96,11.1829 1.8793,7.5399 0.5068,5.0175 -0.8691,2.4402 -1.5376,1.1188 A2.5017,2.5017 0 0 1 2.9376,-1.1188 Z" stroke-linecap="round" fill="#f2f2f2"/></g></g><g transform="matrix(1, 0, 0, 1, -281.1578, 3680.8785)" opacity="1"><g transform="scale(1)"><path d="M0.4679,-1.4037 T1.4682,-1.0979 4.5064,-0.5674 7.8797,-0.2217 9.215,-0.1006 A1.5051,1.5051 0 0 1 8.985,2.9006 T7.6468,2.8168 3.9066,2.4247 0.5184,1.7601 -0.4679,1.4037 A1.4797,1.4797 0 0 1 0.4679,-1.4037 Z" stroke-linecap="round" fill="#f2f2f2"/></g></g><g transform="matrix(1, 0, 0, 1, -278.359, 3687.8755)" opacity="1"><g transform="scale(1)"><path d="M0.4047,-1.6189 T1.7291,-1.2878 4.5291,-0.5878 6.0047,-0.2189 A1.6688,1.6688 0 0 1 5.1953,3.0189 T3.7197,2.65 0.9197,1.95 -0.4047,1.6189 A1.6688,1.6688 0 0 1 0.4047,-1.6189 Z" stroke-linecap="round" fill="#f2f2f2"/></g></g><g transform="matrix(1, 0, 0, 1, -239.1759, 3668.284)" opacity="1"><g transform="scale(1)"><path d="M1.6315,0.4079 T1.3223,1.7379 0.1111,5.3124 -1.3586,8.7149 -1.9262,9.873 A1.7534,1.7534 0 0 1 -5.0738,8.327 T-4.5042,7.1699 -3.1362,4.1212 -1.9845,0.9109 -1.6315,-0.4079 A1.6817,1.6817 0 0 1 1.6315,0.4079 Z" stroke-linecap="round" fill="#f2f2f2"/></g></g><g transform="matrix(1, 0, 0, 1, -241.9747, 3680.1788)" opacity="1"><g transform="scale(1)"><path d="M0,-1.483 T0.9933,-1.4623 3.7236,-1.4124 7.1353,-0.5069 9.702,2.1934 10.6378,6.15 9.3209,10.1236 6.6001,12.7982 3.7652,14.1627 0.4471,14.9938 -2.8797,15.3495 -6.2588,14.2296 -8.5991,10.6467 -8.9632,7.2419 -8.8827,6.2445 A1.8835,1.8835 0 0 1 -5.1173,6.3555 T-5.0653,8.2595 -3.3901,10.5608 0.273,10.5445 3.8549,9.4283 6.1263,7.4077 6.1307,4.4365 3.6962,2.8124 0.9933,2.8623 0,2.883 A2.183,2.183 0 0 1 0,-1.483 Z" stroke-linecap="round" fill="#f2f2f2"/></g></g><g transform="matrix(1, 0, 0, 1, -240.5753, 3668.9837)" opacity="1"><g transform="scale(1)"><path d="M0.2723,-1.6337 T1.2691,-1.4901 4.4302,-1.4823 8.7397,-1.9943 10.8849,-2.3704 A1.6999,1.6999 0 0 1 11.5151,0.9704 T10.344,1.2076 7.3482,1.7217 3.6153,2.0036 0.7175,1.8212 -0.2723,1.6337 A1.6563,1.6563 0 0 1 0.2723,-1.6337 Z" stroke-linecap="round" fill="#f2f2f2"/></g></g><g transform="matrix(1, 0, 0, 1, -227.281, 3701.1698)" opacity="1"><g transform="scale(1)"><path d="M0.6609,1.9828 T-1.3272,2.6446 -5.3228,3.7044 -9.1341,4.4744 -12.636,5.0655 -16.9666,5.4583 -21.6924,5.9148 -25.0924,6.3016 -26.3991,6.4056 A2.2138,2.2138 0 0 1 -26.7809,1.9944 T-25.4757,1.8723 -21.9841,1.4451 -17.3155,1.0174 -13.2944,0.7454 -9.9306,0.2692 -6.3683,-0.3577 -2.646,-1.3202 -0.6609,-1.9828 A2.0901,2.0901 0 0 1 0.6609,1.9828 Z" stroke-linecap="round" fill="#f2f2f2"/></g></g><g transform="matrix(1, 0, 0, 1, -248.9717, 3713.0646)" opacity="1"><g transform="scale(1)"><path d="M0.6364,-2.2274 T1.7908,-1.8756 4.6214,-0.7651 8.0999,1.192 10.3296,4.0773 9.9349,7.4132 7.6439,10.2581 4.7422,12.2725 5.3131,13.0098 9.8109,12.817 13.7872,12.6775 15.2694,12.6498 A2.0437,2.0437 0 0 1 15.5106,16.7302 T12.7782,17.0127 7.4278,17.4805 2.7605,17.3989 -0.592,16.5486 -2.2254,14.0011 -0.7185,10.5435 2.8824,8.0202 4.5249,5.5302 3.0469,3.4591 0.5269,2.5378 -0.6364,2.2274 A2.3166,2.3166 0 0 1 0.6364,-2.2274 Z" stroke-linecap="round" fill="#f2f2f2"/></g></g><g transform="matrix(1, 0, 0, 1, -205.5904, 3673.8816)" opacity="1"><g transform="scale(1)"><path d="M1.6423,-0.2737 T2.0161,1.7058 2.6974,6.186 3.0754,11.3036 3.1459,13.9205 A1.7473,1.7473 0 0 1 -0.3459,14.0595 T-0.4803,11.5304 -0.8401,6.6312 -1.3539,2.2674 -1.6423,0.2737 A1.665,1.665 0 0 1 1.6423,-0.2737 Z" stroke-linecap="round" fill="#f2f2f2"/></g></g><g transform="matrix(1, 0, 0, 1, -197.194, 3682.2779)" opacity="1"><g transform="scale(1)"><path d="M0,1.1495 T-1.4892,1.1762 -5.4899,1.6482 -10.3363,2.5744 -14.0987,3.4716 -15.5262,3.8878 A1.8747,1.8747 0 0 1 -16.6538,0.3122 T-15.2458,-0.1658 -12.3919,-1.1171 -8.5218,-1.9516 -4.5395,-2.4579 -1.4907,-2.5762 0,-2.5495 A1.8495,1.8495 0 0 1 0,1.1495 Z" stroke-linecap="round" fill="#f2f2f2"/></g></g><g transform="matrix(1, 0, 0, 1, -211.8877, 3703.9686)" opacity="1"><g transform="scale(1)"><path d="M0.3544,-1.7722 T1.178,-1.6305 3.9651,-1.6422 8.0539,-2.1586 10.1792,-2.5217 A1.8497,1.8497 0 0 1 10.8208,1.1217 T8.4495,1.5506 3.6938,2.0653 0.4775,1.9616 -0.3544,1.7722 A1.8073,1.8073 0 0 1 0.3544,-1.7722 Z" stroke-linecap="round" fill="#f2f2f2"/></g></g><g transform="matrix(1, 0, 0, 1, -167.107, 3664.7855)" opacity="1"><g transform="scale(1)"><path d="M1.512,0.1008 T1.4078,2.5881 1.2379,6.8645 1.1371,10.0868 0.9988,14.1704 0.8956,16.8207 A1.5959,1.5959 0 0 1 -2.2956,16.7593 T-2.2963,14.0857 -2.2403,9.9516 -2.0746,6.6744 -1.7389,2.3784 -1.512,-0.1008 A1.5153,1.5153 0 0 1 1.512,0.1008 Z" stroke-linecap="round" fill="#f2f2f2"/></g></g><g transform="matrix(1, 0, 0, 1, -160.8097, 3689.9746)" opacity="1"><g transform="scale(1)"><path d="M0,2.2287 T-1.8206,2.283 -5.1773,2.53 -8.2633,2.8392 -12.2453,3.2688 -16.4808,4.2807 -18.2843,4.9797 A1.5989,1.5989 0 0 1 -19.4957,2.0203 T-17.2719,1.0709 -12.5325,-0.2116 -8.5377,-0.6025 -5.3507,-0.7989 -1.8215,-0.883 0,-0.8287 A1.5287,1.5287 0 0 1 0,2.2287 Z" stroke-linecap="round" fill="#f2f2f2"/></g></g><g transform="matrix(1, 0, 0, 1, -175.5034, 3704.6683)" opacity="1"><g transform="scale(1)"><path d="M1.4781,-1.4781 T2.1311,-0.8117 4.2625,0.7974 7.159,3.1329 8.6847,6.7418 7.8069,10.5494 5.4578,13.3604 2.9014,15.3986 3.6729,16.3347 7.6206,16.5886 10.7778,16.8038 11.9514,16.8825 A2.0085,2.0085 0 0 1 11.8286,20.8975 T10.6524,20.9043 7.2248,20.8607 3.3766,20.4681 0.0994,19.5097 -2.1947,16.9623 -1.8055,13.933 0.8931,11.6559 3.8237,8.6326 3.7886,5.6494 1.1915,3.6524 -0.8067,2.1361 -1.4781,1.4781 A2.0904,2.0904 0 0 1 1.4781,-1.4781 Z" stroke-linecap="round" fill="#f2f2f2"/></g></g></svg>