<svg xmlns="http://www.w3.org/2000/svg" direction="ltr" width="922.9385507193954" height="667.1700000000001" viewBox="1088.1198917038232 10981.833223936028 922.9385507193954 667.1700000000001" stroke-linecap="round" stroke-linejoin="round" style="background-color: transparent;"><defs/><g transform="matrix(1, 0, 0, 1, 1360.6009, 11013.8332) scale(1.3141039137881114, 1.3141039137881114)" opacity="1"><g transform="scale(0.7609748281757586)"><path d="M2.0288,0 T2.0204,1.5538 2.0013,5.6176 1.9886,10.8029 1.9898,15.401 1.9991,19.2818 2.0119,23.209 2.0257,27.866 2.0419,32.8802 2.061,37.5409 2.0802,42.1498 1.6899,46.2074 1.0951,50.1679 0.8532,54.3032 1.364,58.1407 2.0134,62.1113 2.118,66.0062 2.1357,69.941 2.1474,74.3552 2.1586,78.9268 2.1667,83.2329 2.1727,87.2278 2.1775,91.1788 2.1815,95.1235 2.185,99.5385 2.1881,104.1114 2.1902,108.2331 2.1919,112.201 2.1933,116.1469 2.1957,120.0908 2.2013,124.0338 2.2081,127.9754 2.2159,132.3924 2.2262,136.9656 2.2375,141.0862 2.2463,145.0533 2.2523,149.0003 2.2571,152.9437 2.2612,156.8854 2.2645,160.8269 2.2672,164.7702 2.2707,168.7137 2.2771,172.6554 2.8366,177.1068 3.4758,181.4896 3.5889,185.861 3.619,190.5776 4.192,195.2393 4.8583,199.8884 4.9693,204.1366 4.9911,208.127 4.9947,212.0757 4.9884,216.4943 4.5626,221.5534 3.9221,226.3751 3.6787,230.522 3.6499,234.4238 3.6433,238.3612 3.6404,242.3038 3.6384,246.2455 3.6381,250.1869 3.6349,254.5679 4.1947,258.9933 4.8551,263.126 4.9693,267.5507 4.9881,272.4382 4.9899,277.6383 4.99,282.8859 4.9899,287.8313 4.9898,291.9791 4.9898,296.4268 4.9897,301.6699 4.9896,306.4489 4.9896,311.0727 4.9896,315.6762 4.9896,319.6176 4.9895,323.8713 4.9895,328.6053 4.9895,332.9127 4.6208,336.9207 4.0119,340.8975 3.7342,345.1396 3.2829,350.1377 2.675,354.7846 2.4406,358.9174 2.3953,363.1514 2.3903,367.1343 1.9652,371.5884 1.3539,375.8989 1.1225,379.954 1.0662,384.1803 1.0495,388.6358 1.0405,393.2146 1.0347,397.3361 1.0338,401.3033 1.0365,405.2503 1.0388,409.1937 1.0407,413.1354 1.0423,417.0776 1.0435,421.0209 1.0446,424.7814 1.0454,428.6964 1.0461,432.6307 1.0468,437.0459 1.0523,442.3799 1.0601,446.9761 1.0652,450.7897 1.0713,454.5314 1.0832,458.9656 1.0967,463.5196 1.1065,467.3942 1.113,472.0377 1.1143,476.6485 1.1139,481.2501 1.1161,486.5615 1.1187,491.1155 1.1205,494.9918 1.122,498.9141 1.1194,503.0137 1.1136,507.1649 1.5679,512.0777 2.1669,517.0738 2.3453,521.3442 2.3906,525.8542 2.4016,530.4312 2.4037,535.0239 2.4035,539.4576 2.405,543.5346 2.4103,547.9894 2.4167,553.0234 2.4216,557.9072 2.4253,562.5848 2.4282,567.5161 2.4307,572.6848 2.4327,578.3926 2.4343,584.2464 2.4354,589.6677 2.4339,594.4958 2.949,599.6121 3.4661,602.5653 A2.2393,2.2393 0 0 1 -0.8461,603.7747 T-1.2369,602.5568 -2.0299,598.9989 -2.4339,594.4958 -2.4354,589.6677 -2.4343,584.2464 -2.4327,578.3926 -2.4307,572.6848 -2.4282,567.5161 -2.4253,562.5848 -2.4216,557.9072 -2.4168,553.0234 -2.4103,547.9894 -2.4052,543.5348 -2.4043,539.4583 -2.4065,535.0268 -2.4116,530.4406 -2.4264,525.8935 -2.4744,521.4769 -2.7429,516.6564 -3.3529,511.5599 -3.7336,507.1649 -3.7394,503.0137 -3.742,498.9141 -3.7405,494.9918 -3.7387,491.1155 -3.7361,486.5615 -3.7339,481.2501 -3.7343,476.6485 -3.733,472.0377 -3.7265,467.3942 -3.7167,463.5196 -3.7032,458.9656 -3.6913,454.5314 -3.6852,450.7897 -3.6801,446.9761 -3.6723,442.3799 -3.6668,437.0459 -3.6661,432.6307 -3.6654,428.6964 -3.6646,424.7814 -3.6635,421.0209 -3.6623,417.0776 -3.6607,413.1354 -3.6588,409.1937 -3.6565,405.2503 -3.6537,401.3033 -3.6546,397.336 -3.6602,393.2141 -3.6671,388.632 -3.6693,384.1545 -3.6267,379.8203 -3.4222,375.6523 -2.8242,371.4526 -2.3878,367.1302 -2.3782,363.1253 -2.3244,358.7838 -2.1134,354.6013 -1.5024,350.8778 -1.0291,346.5146 -0.8196,341.6915 -0.1834,337.1523 0.2705,332.9127 0.2705,328.6053 0.2705,323.8713 0.2704,319.6176 0.2704,315.6762 0.2704,311.0727 0.2704,306.4489 0.2703,301.6699 0.2702,296.4268 0.2702,291.9791 0.2701,287.8313 0.2699,282.886 0.2694,277.639 0.2671,272.4433 0.2583,267.6004 0.1834,263.4667 -0.4479,259.3595 -1.0149,254.6386 -1.0181,250.1869 -1.0184,246.2454 -1.0202,242.3035 -1.0219,238.3591 -1.0209,234.4094 -0.9972,230.4241 -0.7884,226.1964 -0.1626,221.46 0.2729,217.1526 0.2664,213.3909 0.2643,209.4474 0.263,205.5036 0.2244,201.5335 -0.0025,197.3833 -0.6049,192.6197 -1.0164,188.1914 -1.0518,184.149 -1.2696,180.0721 -1.8664,176.4234 -2.2771,172.6554 -2.2707,168.7137 -2.2672,164.7702 -2.2645,160.8269 -2.2612,156.8854 -2.2571,152.9437 -2.2523,149.0003 -2.2463,145.0533 -2.2375,141.0862 -2.2262,136.9656 -2.2159,132.3924 -2.2081,127.9754 -2.2013,124.0338 -2.1957,120.0908 -2.1933,116.1469 -2.1919,112.201 -2.1902,108.2331 -2.1881,104.1114 -2.185,99.5385 -2.1815,95.1235 -2.1775,91.1788 -2.1727,87.2278 -2.1668,83.233 -2.159,78.9272 -2.1489,74.3571 -2.1445,69.9515 -2.1646,65.4152 -2.3981,60.7697 -2.992,56.0443 -3.1963,51.141 -2.5554,46.5774 -2.0802,42.1498 -2.061,37.5409 -2.0419,32.8802 -2.0257,27.866 -2.0119,23.209 -1.9991,19.2818 -1.9898,15.401 -1.9886,10.8029 -2.0013,5.6176 -2.0204,1.5538 -2.0288,0 A2.0288,2.0288 0 0 1 2.0288,0 Z" stroke-linecap="round" fill="#9398b0"/></g></g><g transform="matrix(1, 0, 0, 1, 1120.1199, 11486.9106) scale(1.3141039137881114, 1.3141039137881114)" opacity="1"><g transform="scale(0.7609748281757586)"><path d="M-0.4352,-1.7475 T0.8121,-2.0447 3.966,-2.6024 8.3902,-2.9436 13.2062,-3.0347 17.5257,-3.0506 21.9985,-3.066 26.4681,-2.7363 31.0647,-2.155 35.7314,-1.3992 40.3273,-0.751 44.7611,-0.6078 48.6445,-0.6063 52.8809,-0.6268 57.6408,-0.6537 61.9755,-0.6762 66.4452,-0.6939 71.3264,-1.1717 76.1163,-1.7888 80.7605,-1.982 85.3655,-2.0441 89.9679,-2.0692 94.5683,-2.0866 99.3976,-2.3853 104.5335,-2.9602 109.9992,-3.3256 115.3172,-3.4351 120.5911,-3.4789 125.5974,-3.7876 129.7394,-4.2771 134.4606,-4.6196 139.8869,-5.0933 145.1912,-5.7143 150.7135,-6.0942 156.0405,-6.2058 161.1737,-6.7128 165.9225,-7.3385 170.7071,-7.5259 175.8403,-7.5805 180.2827,-7.8675 184.8436,-8.4355 189.7346,-8.8055 194.4089,-8.9048 199.195,-8.9362 203.8449,-8.948 208.2936,-8.9537 212.8514,-8.9572 217.4307,-8.9608 221.8736,-9.4322 226.9151,-10.0485 231.7874,-10.2368 236.4628,-10.2921 241.2483,-10.3094 245.8972,-10.314 250.8209,-10.3181 255.8283,-9.9727 260.5364,-9.4223 264.8504,-9.1588 269.3753,-9.0831 274.4259,-9.0675 279.1519,-9.0671 283.7856,-9.0744 288.868,-9.0861 293.9142,-9.0953 298.6381,-9.1021 303.4347,-9.1074 308.5624,-9.1165 313.3077,-9.1272 317.948,-9.1377 322.5592,-9.1461 327.1623,-9.1502 331.7632,-9.1557 336.0513,-9.1637 340.5646,-9.1721 345.1406,-9.179 349.7339,-9.1844 354.6418,-9.189 359.8005,-9.1927 365.0311,-9.1956 369.8062,-9.2015 374.4548,-9.2124 379.0784,-9.2236 383.8506,-8.7493 388.6652,-8.1488 393.1536,-7.9929 398.0187,-7.9531 402.6944,-7.9521 407.3155,-7.9619 411.9213,-7.9717 416.5229,-7.9821 422.0731,-7.9968 427.8845,-8.0108 433.294,-8.0203 438.5943,-8.0299 443.8631,-8.0417 449.1219,-8.0528 454.3803,-8.0634 459.6363,-8.0715 464.8916,-8.0755 470.1503,-8.0832 475.7335,-7.7431 481.0823,-7.1846 485.567,-6.9109 490.1315,-6.8362 494.8829,-6.8211 499.5255,-6.8213 504.4454,-6.8277 509.6074,-6.8382 515.3133,-6.8495 521.1702,-6.8584 526.1193,-6.8641 530.5041,-6.8679 534.7321,-6.8709 539.2276,-6.8715 544.7562,-6.4384 548.9492,-5.6048 550.0764,-5.2035 A2.6881,2.6881 0 0 1 548.5236,-0.0565 T547.3625,-0.3456 543.946,-0.822 539.2276,-1.0085 534.7321,-1.0091 530.5041,-1.0121 526.1193,-1.0159 521.1702,-1.0216 515.3132,-1.0306 509.607,-1.0422 504.4438,-1.0538 499.5189,-1.0639 494.8624,-1.0779 490.0566,-1.1123 485.3201,-1.2159 480.2408,-1.5842 475.0791,-2.1525 470.1503,-2.4368 464.8916,-2.4445 459.6363,-2.4485 454.3803,-2.4566 449.1219,-2.4672 443.8631,-2.4783 438.5943,-2.4901 433.294,-2.4997 427.8845,-2.5093 422.0731,-2.5232 416.5227,-2.5381 411.9205,-2.5491 407.3127,-2.5609 402.6848,-2.5779 397.9839,-2.6028 393.0041,-2.6562 388.2015,-2.8361 383.4889,-3.4445 379.0583,-3.9164 374.4548,-3.9276 369.8062,-3.9385 365.0311,-3.9444 359.8005,-3.9473 354.6418,-3.951 349.7339,-3.9556 345.1406,-3.961 340.5646,-3.9679 336.0513,-3.9763 331.7632,-3.9843 327.1623,-3.9898 322.5592,-3.9939 317.948,-4.0023 313.3077,-4.0128 308.5623,-4.0235 303.4347,-4.0326 298.6381,-4.038 293.9141,-4.0448 288.8677,-4.0543 283.7842,-4.067 279.1472,-4.0781 274.4094,-4.0914 269.3103,-4.1249 264.6315,-4.2262 259.7318,-4.5998 255.1908,-5.1674 250.8216,-5.4411 245.9002,-5.4433 241.2574,-5.4406 236.4961,-5.432 231.8983,-5.3941 227.307,-5.2466 222.1994,-4.6539 217.4489,-4.179 212.8518,-4.1824 208.2949,-4.1849 203.8503,-4.1867 199.2119,-4.1848 194.4712,-4.1669 189.9444,-4.0887 185.6144,-3.8196 180.8998,-3.262 175.8703,-2.903 170.8244,-2.8625 166.3077,-2.7076 161.4914,-2.101 156.11,-1.6033 150.9107,-1.5307 145.8731,-1.2474 140.4879,-0.656 134.7578,-0.1712 128.9111,0.4175 123.2371,0.8829 117.9843,0.8774 112.7618,0.9045 107.6351,1.0457 102.3759,1.6321 97.0838,2.0966 92.1704,2.0838 87.5799,2.0776 83.0188,2.0884 78.5437,2.1601 74.3329,2.4424 69.8249,2.9913 64.7591,3.3078 59.5885,3.2835 54.9023,3.2546 50.7993,3.2246 46.8643,3.1864 42.9416,3.1104 39.0421,2.8897 35.2637,2.2163 31.3724,1.5551 26.8836,0.9276 22.6596,0.4494 18.8738,0.4375 14.7463,0.4385 10.1315,0.4904 5.283,0.8193 1.6759,1.4251 0.4352,1.7475 A1.8009,1.8009 0 0 1 -0.4352,-1.7475 Z" stroke-linecap="round" fill="#9398b0"/></g></g><g transform="matrix(1, 0, 0, 1, 1400.024, 11251.686) scale(1.3141039137881114, 1.3141039137881114)" opacity="1"><g transform="scale(0.7609748281757586)"><path d="M-1.6668,-0.8334 T-1.0362,-2.0718 0.4425,-5.147 2.0858,-8.7403 4.277,-12.718 6.7381,-16.9781 9.1821,-21.1191 11.6867,-24.8267 14.0644,-28.313 16.6054,-32.1449 19.1894,-36.0641 21.7553,-40.4332 24.3475,-44.9801 27.3487,-49.7281 30.473,-55.2423 33.6866,-61.0623 36.9151,-66.7603 39.7948,-72.0389 42.5279,-77.0707 45.5594,-82.385 48.7586,-87.6714 51.6005,-92.795 54.8338,-97.6969 58.4911,-102.5429 62.1904,-107.7034 65.7227,-112.5964 69.1741,-117.2153 72.5568,-121.4395 76.0593,-124.9126 79.4077,-127.8074 82.9964,-130.3901 87.3094,-133.0353 91.3847,-135.1957 95.4767,-136.7094 99.9178,-137.6916 104.8182,-137.5545 109.3373,-136.4004 112.979,-134.4441 116.0823,-132.0129 118.8235,-129.3801 121.642,-126.064 124.4214,-121.3286 126.7887,-116.1443 128.737,-111.6779 131.1195,-107.2677 133.8557,-102.8087 136.3724,-98.8106 139.0001,-95.0979 141.6919,-91.3016 144.3426,-87.4048 146.93,-83.3989 149.4936,-79.3695 152.1575,-75.5002 155.0768,-72.2889 158.2914,-69.0177 161.191,-65.6276 164.2738,-62.4406 167.505,-59.1918 170.5785,-56.4341 174.6844,-53.806 178.7723,-51.6888 182.1002,-50.2769 185.4549,-48.9142 188.9695,-47.5846 192.7056,-46.4121 196.789,-45.6255 201.5096,-45.3285 206.1369,-45.281 210.7046,-45.2712 215.737,-46.279 220.7032,-48.5154 225.3253,-51.142 229.3735,-53.872 232.8141,-56.0166 236.2013,-57.9742 239.858,-60.4478 243.1239,-62.9491 246.4653,-65.4879 250.3553,-68.1897 254.2119,-70.9083 258.0558,-73.632 261.9646,-76.2904 265.6455,-79.0631 269.2767,-82.3458 273.2213,-86.0309 277.7145,-90.0037 282.7492,-94.1297 287.468,-98.2951 291.6141,-102.1371 295.6948,-105.9432 299.6506,-110.183 303.0274,-114.2621 306.5001,-117.9729 309.6094,-120.716 310.7478,-121.7121 A2.9317,2.9317 0 0 1 314.7722,-117.4479 T313.7121,-116.3691 311.266,-113.9927 308.3824,-110.519 304.7828,-105.8248 300.7057,-101.2253 297.4618,-97.827 294.1909,-95.0972 290.9875,-92.2829 287.2672,-88.9496 282.5542,-85.2075 278.1232,-81.3605 273.8608,-77.4084 269.6195,-73.6941 265.4474,-70.5906 261.5903,-67.992 257.9911,-65.458 254.365,-62.9248 250.6301,-60.379 247.0185,-57.6854 243.5112,-55.0262 239.8665,-52.5886 236.2985,-50.5337 232.9746,-48.4859 229.3249,-46.0582 224.8382,-43.579 219.7448,-41.0888 215.2615,-39.3495 210.7657,-38.8345 206.1037,-38.8419 201.3121,-38.9119 196.5575,-39.1772 192.7382,-39.9403 189.007,-40.9556 184.6391,-42.4472 180.299,-44.2485 176.1436,-46.0233 171.8587,-48.0437 168.3023,-50.33 164.8664,-53.2976 161.5883,-56.609 158.3374,-59.9571 155.1628,-63.3884 152.3929,-66.5219 149.1013,-70.0149 145.8722,-73.9656 143.0913,-77.9481 140.5676,-82.1424 138.0772,-86.1756 135.5318,-89.9171 132.873,-93.5091 130.3117,-96.9857 127.8238,-101.2525 125.263,-105.9392 123.2867,-109.7781 121.3807,-114.2834 119.5287,-118.7666 117.6454,-122.1592 115.0421,-125.3277 112.2031,-128.1119 108.8548,-130.6059 104.6939,-132.2084 100.3388,-132.4058 95.8823,-131.4208 91.3179,-129.4136 86.6701,-126.8176 82.7279,-124.0732 79.496,-121.389 76.3916,-118.4366 73.0715,-114.3633 69.4749,-109.6157 65.8915,-104.7093 62.2409,-99.6965 58.7603,-95.2446 55.6093,-90.5848 52.5503,-85.2064 49.3573,-80.0205 46.4593,-74.9775 43.7435,-70.0492 41.5606,-65.9545 38.9426,-61.5998 35.6849,-56.146 32.4024,-50.4186 29.2021,-45.1163 26.5436,-40.553 23.8656,-36.0371 21.1438,-31.7032 18.5095,-27.8344 15.919,-24.0961 13.2855,-20.2698 10.4741,-16.073 7.6635,-11.5904 5.3736,-7.213 3.6662,-3.3969 2.2802,-0.4162 1.6668,0.8334 A1.8635,1.8635 0 0 1 -1.6668,-0.8334 Z" stroke-linecap="round" fill="#e599f7"/></g></g><g transform="matrix(1, 0, 0, 1, 1702.2679, 11121.5897) scale(1.3141039137881114, 1.3141039137881114)" opacity="1"><g transform="scale(0.7609748281757586)"><path d="M0.9946,-1.9891 T2.2375,-1.3628 5.2306,0.2342 8.2716,2.4812 11.3926,5.1159 15.4104,7.3465 18.8358,9.7477 19.9177,13.9281 19.0925,18.4299 17.0356,22.4552 14.8578,25.7595 14.0676,26.8888 A2.3628,2.3628 0 0 1 10.5993,23.6789 T11.053,23.2656 12.461,21.2459 14.3197,18.0274 15.7635,14.3405 14.3047,11.496 10.1962,9.2514 6.6085,6.4771 3.3133,4.2011 0.2505,2.6068 -0.9946,1.9891 A2.2239,2.2239 0 0 1 0.9946,-1.9891 ZM10.0754,25.9797 T9.8529,25.1538 9.6303,24.3279 A2.3018,2.3018 0 0 1 14.0297,22.9721 T14.3106,23.7801 14.5915,24.588 A2.3628,2.3628 0 0 1 10.0754,25.9797 Z" stroke-linecap="round" fill="#e599f7"/></g></g><g transform="matrix(1, 0, 0, 1, 1699.6397, 11121.5897) scale(1.3141039137881114, 1.3141039137881114)" opacity="1"><g transform="scale(0.7609748281757586)"><path d="M1.3218,1.7646 T0.0596,2.6721 -2.6059,4.5948 -4.0092,5.6099 A2.0864,2.0864 0 0 1 -6.5108,2.2701 T-5.1421,1.2089 -2.5476,-0.8085 -1.3218,-1.7646 A2.2048,2.2048 0 0 1 1.3218,1.7646 Z" stroke-linecap="round" fill="#e599f7"/></g></g><g transform="matrix(1, 0, 0, 1, 1702.2679, 11121.5897) scale(1.3141039137881114, 1.3141039137881114)" opacity="1"><g transform="scale(0.7609748281757586)"><path d="M1.6871,-1.6871 T2.6063,-0.7536 5.5599,1.2237 9.722,3.5496 13.2529,6.1213 15.979,9.166 18.6758,12.9567 20.3493,16.5486 20.649,18.1051 A2.4044,2.4044 0 0 1 15.8665,18.6078 T15.0254,16.6258 12.7536,12.7361 9.5256,9.2084 5.9323,6.5867 2.1691,4.5662 -0.7427,2.6172 -1.6871,1.6871 A2.3859,2.3859 0 0 1 1.6871,-1.6871 ZM20.3813,19.4841 T19.9365,20.2273 18.4082,22.4479 15.8104,25.7308 13.8029,28.1179 13.3098,28.6996 A2.4709,2.4709 0 0 1 9.6679,25.3593 T11.0723,23.6987 13.8997,20.4922 15.7283,18.0877 16.1341,17.2289 A2.4044,2.4044 0 0 1 20.3813,19.4841 ZM9.9867,28.9913 T9.7545,28.815 9.5222,28.6387 A2.4733,2.4733 0 0 1 12.5295,24.7112 T12.7602,24.8894 12.991,25.0676 A2.4709,2.4709 0 0 1 9.9867,28.9913 ZM9.9355,24.455 T10.1253,24.3608 10.3151,24.2666 A2.475,2.475 0 0 1 12.4973,28.7097 T12.3068,28.8023 12.1162,28.8949 A2.4733,2.4733 0 0 1 9.9355,24.455 ZM9.0223,25.8227 T9.1205,25.4631 9.2186,25.1034 A2.4793,2.4793 0 0 1 13.9947,26.4367 T13.8924,26.7951 13.7901,27.1536 A2.475,2.475 0 0 1 9.0223,25.8227 ZM9.7831,24.0902 T10.2313,23.6858 12.7066,21.3932 16.328,17.5582 18.6238,14.5628 19.3252,13.5142 A2.5877,2.5877 0 0 1 24.0341,15.6617 T22.6499,17.6401 20.0297,21.1526 16.7713,24.2705 14.0895,26.6521 13.4302,27.4499 A2.4793,2.4793 0 0 1 9.7831,24.0902 ZM21.547,17.1722 T20.4601,17.1179 17.4565,16.0432 13.5622,13.4448 10.0632,10.2388 7.2594,7.3216 4.2168,4.5084 2.4568,2.9845 A2.8533,2.8533 0 0 1 5.5219,-1.8292 T6.7535,-1.0315 9.6427,1.5961 12.5646,4.7612 15.0064,7.7113 17.9575,10.61 20.7716,11.9488 21.8123,12.0037 A2.5877,2.5877 0 0 1 21.547,17.1722 ZM4.8818,3.2879 T3.9357,3.5911 1.4473,4.9569 -1.0141,6.8002 -1.9333,7.5808 A2.9148,2.9148 0 0 1 -5.6855,3.1193 T-3.7238,1.849 0.0074,-0.5512 2.4368,-1.9068 3.0969,-2.1325 A2.8533,2.8533 0 0 1 4.8818,3.2879 ZM-5.4642,7.7495 T-5.4952,7.7284 -5.5262,7.7073 A2.9152,2.9152 0 0 1 -2.2161,2.9077 T-2.1854,2.9291 -2.1546,2.9506 A2.9148,2.9148 0 0 1 -5.4642,7.7495 ZM-6.4171,3.8875 T-5.9525,3.167 -3.7739,0.3369 -2.06,-1.7728 A2.9633,2.9633 0 0 1 2.659,1.8127 T1.0987,3.3832 -0.8934,5.8406 -1.3252,6.7275 A2.9152,2.9152 0 0 1 -6.4171,3.8875 ZM0.2628,2.983 T-0.1179,2.9779 -0.4985,2.9729 A2.9626,2.9626 0 0 1 -0.4251,-2.9518 T-0.0445,-2.9475 0.3362,-2.9431 A2.9633,2.9633 0 0 1 0.2628,2.983 ZM1.329,2.3706 T0.7065,2.8347 0.084,3.2987 A2.9494,2.9494 0 0 1 -3.4816,-1.4005 T-2.8671,-1.8751 -2.2526,-2.3496 A2.9626,2.9626 0 0 1 1.329,2.3706 ZM-0.066,-1.5072 T0.5942,-1.0115 3.3531,0.7003 7.0046,3.021 10.2985,5.5223 13.4239,8.5949 16.324,11.9734 19.1858,16.0896 20.8268,18.8783 21.1222,19.2536 A2.8984,2.8984 0 0 1 16.3197,22.5001 T14.9519,20.032 12.3211,16.1602 9.6846,13.0057 6.9339,10.1271 3.8972,7.8526 0.6905,5.8215 -2.094,4.1712 -3.3316,3.4053 A2.9494,2.9494 0 0 1 -0.066,-1.5072 ZM16.5099,19.0027 T17.0316,18.4423 17.5534,17.882 A2.8271,2.8271 0 0 1 21.8666,21.538 T21.3993,22.1445 20.9319,22.751 A2.8984,2.8984 0 0 1 16.5099,19.0027 Z" stroke-linecap="round" fill="#e599f7"/></g></g><g transform="matrix(1, 0, 0, 1, 1392.1394, 11238.545) scale(1.3141039137881114, 1.3141039137881114)" opacity="1"><g transform="scale(0.7609748281757586)"><path d="M2.7374,1.3687 T2.0889,2.5973 0.5474,5.6835 -0.3455,7.541 A2.9243,2.9243 0 0 1 -5.3839,4.5709 T-4.6561,2.8604 -3.3329,-0.1093 -2.7374,-1.3687 A3.0605,3.0605 0 0 1 2.7374,1.3687 ZM-0.2433,4.7597 T0.1268,5.5076 2.3814,7.9939 6.8136,11.0191 11.4745,13.5893 14.9927,16.1579 17.3466,18.5234 18.2956,19.6037 A3.0479,3.0479 0 0 1 13.671,23.5751 T12.3205,22.1027 9.51,19.3555 5.7684,17.0187 1.7877,14.9351 -1.3948,12.8916 -3.8169,10.3502 -5.1208,8.0914 -5.4861,7.3522 A2.9243,2.9243 0 0 1 -0.2433,4.7597 ZM14.1926,19.1229 T14.7699,18.7266 16.439,16.2377 18.3218,12.8907 19.1129,11.6362 A3.072,3.072 0 0 1 24.3037,14.9232 T23.1838,16.5768 20.7581,20.5111 18.6131,23.4238 17.7739,24.0558 A3.0479,3.0479 0 0 1 14.1926,19.1229 ZM21.0449,10.2802 T21.1941,10.2461 21.3433,10.2121 A3.074,3.074 0 0 1 22.6709,16.2151 T22.5213,16.2472 22.3717,16.2793 A3.072,3.072 0 0 1 21.0449,10.2802 ZM24.9897,13.9577 T24.6494,15.101 23.1335,18.24 19.3892,22.5738 16.8204,24.9118 A3.0986,3.0986 0 0 1 14.5046,19.1635 T14.876,19.3317 16.1892,17.9416 18.0389,14.803 18.9856,12.8461 19.0245,12.4695 A3.074,3.074 0 0 1 24.9897,13.9577 ZM14.3047,24.8229 T13.6009,24.3912 11.385,22.8849 7.9153,20.5212 3.9935,17.9989 0.6241,15.4673 -2.1747,12.3246 -4.5359,8.2251 -4.7163,3.255 -3.2195,-0.4968 -2.5099,-1.5339 A2.9415,2.9415 0 0 1 2.5099,1.5339 T1.9106,2.6385 1.5138,5.5894 3.3091,9.1198 6.3136,12.0728 9.7817,14.7447 13.6401,17.4039 16.2313,18.9564 17.0204,19.2524 A3.0986,3.0986 0 0 1 14.3047,24.8229 Z" stroke-linecap="round" fill="#e599f7"/></g></g><g transform="matrix(1, 0, 0, 1, 1400.8582, 11254.0017) scale(0.926601032570734, 0.926601032570734)" opacity="1"><g transform="scale(1.079213129328844)"><path d="M-2.7896,0 T-2.7491,-1.1507 -2.0359,-3.6733 -1.363,-5.0452 A1.7684,1.7684 0 0 1 1.7262,-3.3231 T1.2875,-2.7009 0.8891,-1.0393 0.9296,0 A1.8596,1.8596 0 0 1 -2.7896,0 ZM1.1446,-5.6674 T1.7452,-5.2732 2.3457,-4.8791 A1.7613,1.7613 0 0 1 0.4275,-1.9245 T-0.1769,-2.3127 -0.7814,-2.701 A1.7684,1.7684 0 0 1 1.1446,-5.6674 ZM2.8385,-2.4047 T2.2327,-1.621 0.6813,-0.2533 -0.2644,0.3306 A1.7681,1.7681 0 0 1 -1.6067,-2.941 T-0.9999,-3.3329 -0.2292,-4.0618 -0.0653,-4.3989 A1.7613,1.7613 0 0 1 2.8385,-2.4047 ZM-2.6093,-0.7354 T-2.9532,-1.963 -2.7662,-4.4837 -2.2355,-5.7768 A1.7815,1.7815 0 0 1 0.8853,-4.0576 T0.4951,-3.6789 0.4216,-2.5876 0.7383,-1.875 A1.7681,1.7681 0 0 1 -2.6093,-0.7354 ZM0.1886,-6.4753 T1.0508,-5.9091 1.943,-3.6678 1.2195,-1.2453 0.4659,-0.498 A1.8057,1.8057 0 0 1 -1.8299,-3.2857 T-1.3872,-3.246 -1.2416,-3.2827 -1.5387,-3.3591 A1.7815,1.7815 0 0 1 0.1886,-6.4753 ZM-1.3859,-0.2291 T-1.8818,-0.4397 -2.3777,-0.6504 A1.8043,1.8043 0 0 1 -0.971,-3.9735 T-0.4746,-3.7641 0.0219,-3.5547 A1.8057,1.8057 0 0 1 -1.3859,-0.2291 ZM-3.4717,-2.1542 T-3.5343,-2.8767 -3.5969,-3.5992 A1.8025,1.8025 0 0 1 -0.0056,-3.9145 T0.0587,-3.1922 0.123,-2.4698 A1.8043,1.8043 0 0 1 -3.4717,-2.1542 ZM-3.0765,-5.0308 T-2.6156,-5.4808 -1.1821,-6.3554 -0.2094,-6.78 A1.8173,1.8173 0 0 1 0.959,-3.3384 T0.6076,-3.3136 -0.1348,-2.8858 -0.526,-2.483 A1.8025,1.8025 0 0 1 -3.0765,-5.0308 ZM1.6013,-6.4002 T1.9544,-6.0857 2.3074,-5.7712 A1.8297,1.8297 0 0 1 -0.1623,-3.0709 T-0.507,-3.3946 -0.8517,-3.7182 A1.8173,1.8173 0 0 1 1.6013,-6.4002 ZM2.7361,-3.6591 T2.2316,-2.7473 0.34,-1.166 -2.482,0.1067 -3.9169,0.7099 A1.7883,1.7883 0 0 1 -5.3431,-2.5699 T-4.5568,-2.9241 -2.2191,-3.9571 -0.6293,-4.9095 -0.591,-5.183 A1.8297,1.8297 0 0 1 2.7361,-3.6591 Z" stroke-linecap="round" fill="#4dabf7"/></g></g><g transform="matrix(1, 0, 0, 1, 1399.9316, 11255.8549) scale(0.926601032570734, 0.926601032570734)" opacity="1"><g transform="scale(1.079213129328844)"><path d="M0.5538,0.4937 T0.0992,1.8028 -0.9745,4.8083 -1.8426,8.4578 -2.1172,12.3246 -1.9292,16.4058 -1.3732,19.998 -0.4289,22.9553 0.9102,25.9252 2.5184,29.2905 4.4603,33.001 6.5499,36.4051 8.7535,39.7288 11.0515,43.2661 13.3406,46.6091 15.8288,49.8314 18.4966,53.3229 21.1871,56.645 23.9281,59.9259 26.9063,63.3944 29.9735,66.6998 33.0805,69.7081 36.2983,72.8719 39.4748,75.7995 42.8083,78.3393 46.3754,81.0434 50.0092,83.7821 53.6791,86.5387 57.2982,89.0386 60.7157,91.217 63.8772,93.2729 66.8563,95.2338 69.6386,96.8689 72.4174,98.3965 76.0589,100.4771 80.0854,102.3717 83.4543,103.6251 85.885,104.6032 86.7858,104.999 A1.6781,1.6781 0 0 1 85.5542,108.121 T83.8868,107.5382 80.491,106.4333 76.4926,105.0038 73.017,103.4433 70.4483,102.0068 67.5599,100.4407 64.5786,98.7008 61.6114,96.7526 58.4798,94.7117 54.9464,92.4461 51.1918,89.8433 47.5207,87.0729 43.8843,84.3143 40.3069,81.5773 36.7341,78.7826 33.4653,75.7436 30.2779,72.5757 27.0469,69.3944 23.9036,65.9451 20.922,62.4123 18.1792,59.059 15.4543,55.6173 12.8364,52.0992 10.2851,48.6713 8.0017,45.2114 5.7791,41.6647 3.5602,38.2063 1.4136,34.566 -0.5274,30.7255 -2.1225,27.2481 -3.532,23.8934 -4.7032,19.4201 -5.2102,14.3291 -5.0784,10.2502 -4.6453,6.8694 -3.7796,3.6746 -2.8342,0.8271 -2.4138,-0.4937 A1.5637,1.5637 0 0 1 0.5538,0.4937 Z" stroke-linecap="round" fill="#4dabf7"/></g></g><g transform="matrix(1, 0, 0, 1, 1486.1055, 11362.414) scale(0.926601032570734, 0.926601032570734)" opacity="1"><g transform="scale(1.079213129328844)"><path d="M-1.741,-0.6388 T-1.9694,-1.9495 -2.883,-4.8797 -4.3334,-7.6055 -5.8718,-9.7161 -6.645,-10.7204 A1.8072,1.8072 0 0 1 -4.2894,-13.4616 T-3.2374,-12.1801 -1.2068,-9.4202 0.5449,-5.9007 1.5295,-2.5404 1.741,-1.2212 A1.7651,1.7651 0 0 1 -1.741,-0.6388 ZM-3.6682,-11.9191 T-3.6909,-11.6895 -3.7136,-11.46 A1.8056,1.8056 0 0 1 -7.3085,-11.8035 T-7.2874,-12.0332 -7.2662,-12.263 A1.8072,1.8072 0 0 1 -3.6682,-11.9191 ZM-4.0916,-12.7477 T-3.6473,-12.1183 -1.8001,-9.7581 0.808,-6.3507 2.6267,-3.065 3.1854,0.5618 2.3533,4.3224 0.0307,7.5833 -3.3205,10.6859 -6.9651,13.7192 -10.8196,16.3481 -12.8358,17.5283 A2.0724,2.0724 0 0 1 -14.9642,13.9717 T-13.0891,12.8231 -9.4129,10.2938 -5.9534,7.5405 -3.0135,5.102 -0.9696,2.4648 -0.3119,-0.5163 -1.4145,-3.3614 -3.2448,-5.9784 -5.3119,-8.6578 -6.7385,-10.3357 -6.9306,-10.5158 A1.8056,1.8056 0 0 1 -4.0916,-12.7477 Z" stroke-linecap="round" fill="#4dabf7"/></g></g><g transform="matrix(1, 0, 0, 1, 1499.0779, 11357.781) scale(0.926601032570734, 0.926601032570734)" opacity="1"><g transform="scale(1.079213129328844)"><path d="M1.6753,0.93 T1.6766,2.025 1.0676,5.2861 0.4573,7.4522 A1.6883,1.6883 0 0 1 -2.3173,5.5278 T-1.9976,4.3239 -1.6766,2.025 -1.6753,0.93 A1.6753,1.6753 0 0 1 1.6753,0.93 ZM-2.2833,5.4806 T-1.7442,4.7776 -0.3079,2.9588 2.0308,0.3751 5.8881,-1.6324 9.7491,-0.7107 11.2443,2.6568 11.1408,5.2634 10.9873,5.9639 A1.7641,1.7641 0 0 1 7.5527,5.1561 T7.7275,4.4607 7.3358,2.4814 5.3529,2.1538 2.8241,4.4213 1.0676,6.6159 0.4233,7.4994 A1.6883,1.6883 0 0 1 -2.2833,5.4806 ZM8.0114,4.3238 T8.5844,3.7349 10.3752,1.5452 12.9437,-1.1069 16.3393,-3.1114 20.3099,-3.8262 22.9858,-2.0903 23.8804,0.8511 24.0733,4.1377 24.1369,7.1519 24.1516,8.3235 A1.9117,1.9117 0 0 1 20.3284,8.3565 T20.3229,7.1849 20.3133,4.2575 19.7936,0.9157 17.8937,-0.0517 14.9641,1.8953 12.5303,4.4487 11.0853,6.2349 10.5286,6.7962 A1.7641,1.7641 0 0 1 8.0114,4.3238 Z" stroke-linecap="round" fill="#4dabf7"/></g></g><g transform="matrix(1, 0, 0, 1, 1528.7292, 11362.414) scale(0.926601032570734, 0.926601032570734)" opacity="1"><g transform="scale(1.079213129328844)"><path d="M1.3365,1.1985 T1.1227,2.2947 0.6695,4.6121 0.4302,5.8332 A1.3874,1.3874 0 0 1 -2.2902,5.2868 T-2.0394,4.0679 -1.5625,1.7553 -1.3365,0.6615 A1.3632,1.3632 0 0 1 1.3365,1.1985 Z" stroke-linecap="round" fill="#4dabf7"/></g></g><g transform="matrix(1, 0, 0, 1, 1528.7292, 11329.983) scale(0.926601032570734, 0.926601032570734)" opacity="1"><g transform="scale(1.079213129328844)"><path d="M1.2292,0.7757 T1.4277,2.5309 1.8526,6.2409 2.079,8.1958 A1.158,1.158 0 0 1 -0.219,8.4842 T-0.4827,6.534 -0.9878,2.834 -1.2292,1.0843 A1.2389,1.2389 0 0 1 1.2292,0.7757 Z" stroke-linecap="round" fill="#4dabf7"/></g></g><g transform="matrix(1, 0, 0, 1, 1537.9952, 11356.8544) scale(0.926601032570734, 0.926601032570734)" opacity="1"><g transform="scale(1.079213129328844)"><path d="M1.5446,0.93 T1.5775,2.2449 1.4084,5.728 0.9738,8.8084 0.7415,9.7207 A1.7311,1.7311 0 0 1 -2.6015,8.8193 T-2.3437,7.9139 -1.8482,5.2842 -1.5775,2.2449 -1.5446,0.93 A1.5446,1.5446 0 0 1 1.5446,0.93 ZM-2.4789,8.4968 T-2.2186,7.9818 -0.7316,5.7146 1.6882,2.6758 4.8707,0.4768 8.1819,0.7906 9.7076,3.5189 9.7097,6.7301 9.3164,9.902 9.1247,11.3645 A1.7321,1.7321 0 0 1 5.6953,10.8755 T6.1369,8.7799 5.9134,5.1603 4.2136,4.8052 2.1503,7.4987 0.8703,9.5332 0.6189,10.0432 A1.7311,1.7311 0 0 1 -2.4789,8.4968 Z" stroke-linecap="round" fill="#4dabf7"/></g></g><g transform="matrix(1, 0, 0, 1, 1553.7474, 11362.414) scale(0.926601032570734, 0.926601032570734)" opacity="1"><g transform="scale(1.079213129328844)"><path d="M1.2187,0.3055 T0.7399,2.157 0.2612,4.0086 A1.228,1.228 0 0 1 -2.1212,3.4114 T-1.6699,1.553 -1.2187,-0.3055 A1.2564,1.2564 0 0 1 1.2187,0.3055 Z" stroke-linecap="round" fill="#4dabf7"/></g></g><g transform="matrix(1, 0, 0, 1, 1555.6006, 11329.983) scale(0.926601032570734, 0.926601032570734)" opacity="1"><g transform="scale(1.079213129328844)"><path d="M1.3989,0.5784 T1.8395,2.4345 2.28,4.2907 A1.392,1.392 0 0 1 -0.42,4.9693 T-0.9095,3.1255 -1.3989,1.2816 A1.4424,1.4424 0 0 1 1.3989,0.5784 Z" stroke-linecap="round" fill="#4dabf7"/></g></g><g transform="matrix(1, 0, 0, 1, 1563.0134, 11357.781) scale(0.926601032570734, 0.926601032570734)" opacity="1"><g transform="scale(1.079213129328844)"><path d="M1.8265,0.93 T1.8319,2.025 1.8523,4.8892 1.8699,7.2761 1.8725,7.8937 A1.8725,1.8725 0 0 1 -1.8725,7.8937 T-1.8699,7.2761 -1.8523,4.8892 -1.8319,2.025 -1.8265,0.93 A1.8265,1.8265 0 0 1 1.8265,0.93 ZM-1.0828,6.366 T-0.5772,6.0305 1.1684,4.564 3.9076,2.0909 6.4302,0.7738 7.4536,0.7987 A1.7227,1.7227 0 0 1 6.6571,4.1508 T6.5275,3.9018 5.6367,4.7897 3.5804,7.225 1.6841,8.9724 1.0828,9.4214 A1.8725,1.8725 0 0 1 -1.0828,6.366 ZM8.5351,1.5927 T8.8742,2.2121 9.2478,4.3872 9.2824,5.9431 A1.8039,1.8039 0 0 1 5.6782,5.7796 T5.8954,4.9682 5.8441,3.7569 5.5756,3.3568 A1.7227,1.7227 0 0 1 8.5351,1.5927 ZM8.5451,4.4052 T8.7494,4.5525 8.9536,4.6999 A1.8072,1.8072 0 0 1 6.8202,7.6174 T6.6178,7.4674 6.4154,7.3175 A1.8039,1.8039 0 0 1 8.5451,4.4052 ZM6.5299,4.9652 T6.9337,4.5081 8.8156,3.0795 12.09,1.2369 16.4106,0.0162 18.9347,-0.3335 A1.7487,1.7487 0 0 1 18.3368,3.1124 T17.6972,2.8553 15.3465,3.5038 11.803,5.4656 9.6072,6.9369 9.244,7.3521 A1.8072,1.8072 0 0 1 6.5299,4.9652 ZM20.3305,0.9584 T20.5432,1.7409 20.6819,3.8844 20.5194,6.8078 20.3921,9.315 20.3532,10.26 A1.8245,1.8245 0 0 1 16.7068,10.12 T16.7724,8.2893 17.0667,4.8899 17.1181,2.5709 16.941,1.8206 A1.7487,1.7487 0 0 1 20.3305,0.9584 Z" stroke-linecap="round" fill="#4dabf7"/></g></g><g transform="matrix(1, 0, 0, 1, 1588.0316, 11357.781) scale(0.926601032570734, 0.926601032570734)" opacity="1"><g transform="scale(1.079213129328844)"><path d="M1.5714,-0.1972 T1.8442,1.5487 2.2745,4.8946 3.6619,7.6434 5.7819,7.4001 7.0973,4.7375 7.5227,3.467 A1.6575,1.6575 0 0 1 10.7082,4.3844 T10.2321,5.956 8.462,9.4703 5.3855,11.7786 1.8354,10.8841 -0.5104,8.2316 -1.1629,5.2773 -1.4044,1.9563 -1.5714,0.1972 A1.5837,1.5837 0 0 1 1.5714,-0.1972 ZM10.7705,3.8358 T10.8331,4.8649 11.4353,7.2017 13.0507,8.5466 14.1266,8.5837 A1.6222,1.6222 0 0 1 13.6734,11.7963 T12.8868,11.712 10.193,10.2885 7.9221,7.5088 7.5094,5.042 7.4604,4.0156 A1.6575,1.6575 0 0 1 10.7705,3.8358 Z" stroke-linecap="round" fill="#4dabf7"/></g></g><g transform="matrix(1, 0, 0, 1, 1606.5636, 11360.5608) scale(0.926601032570734, 0.926601032570734)" opacity="1"><g transform="scale(1.079213129328844)"><path d="M1.597,-0.6381 T2.0578,0.4697 2.6298,3.531 2.4902,7.0708 2.2395,8.657 A1.8759,1.8759 0 0 1 -1.2678,7.3248 T-1.0896,6.4192 -0.84,4.1581 -1.1828,1.7203 -1.597,0.6381 A1.7197,1.7197 0 0 1 1.597,-0.6381 ZM1.6452,6.5161 T1.7504,6.5984 1.8555,6.6808 A1.8764,1.8764 0 0 1 -0.4636,9.6312 T-0.5685,9.5485 -0.6734,9.4657 A1.8759,1.8759 0 0 1 1.6452,6.5161 ZM-0.8465,7.0875 T-0.5725,6.6937 0.9528,4.6175 3.8468,1.4377 7.2109,-0.8399 8.9324,-1.6199 A1.7831,1.7831 0 0 1 9.4422,1.9096 T9.3112,1.8567 7.758,2.798 5.3503,4.9783 3.5735,7.3002 2.5103,8.8303 2.2384,9.2245 A1.8764,1.8764 0 0 1 -0.8465,7.0875 ZM10.7807,-0.6554 T11.2218,0.2626 11.5857,3.1268 11.4416,5.6584 11.3747,6.2437 A1.9106,1.9106 0 0 1 7.5948,5.6827 T7.8775,3.838 7.877,1.4692 7.5938,0.9451 A1.7831,1.7831 0 0 1 10.7807,-0.6554 ZM10.6282,4.4325 T10.7965,4.5549 10.9649,4.6774 A1.916,1.916 0 0 1 8.6717,7.7474 T8.5065,7.6206 8.3413,7.4939 A1.9106,1.9106 0 0 1 10.6282,4.4325 ZM8.1536,5.2639 T8.2404,5.1091 8.3273,4.9542 A1.9184,1.9184 0 0 1 11.661,6.8534 T11.572,7.0071 11.4831,7.1608 A1.916,1.916 0 0 1 8.1536,5.2639 ZM9.6777,4.0117 T10.1464,3.937 11.9471,2.963 15.3122,1.6227 19.2623,2.2744 21.6248,5.0335 22.1623,8.4121 22.2767,11.056 22.2988,11.9875 A1.9099,1.9099 0 0 1 18.4812,12.1125 T18.4085,10.381 18.0399,6.7663 15.8718,5.4502 12.6589,6.8188 10.8143,7.708 10.3105,7.7959 A1.9184,1.9184 0 0 1 9.6777,4.0117 Z" stroke-linecap="round" fill="#4dabf7"/></g></g><g transform="matrix(1, 0, 0, 1, 1487.9587, 11114.0849) scale(0.926601032570734, 0.926601032570734)" opacity="1"><g transform="scale(1.079213129328844)"><path d="M0.93,-1.8043 T2.025,-1.7925 4.9945,-1.7719 8.8417,-1.7604 12.7021,-1.7626 16.6577,-1.5343 20.6438,-1.1632 24.7445,-0.973 26.9272,-0.9206 A1.8514,1.8514 0 0 1 26.8128,2.7806 T24.5904,2.6968 20.1367,2.397 16.2476,1.9742 12.7021,1.7626 8.8417,1.7604 4.9945,1.7719 2.025,1.7925 0.93,1.8043 A1.8043,1.8043 0 0 1 0.93,-1.8043 ZM26.8457,2.7813 T26.1537,2.7708 23.3677,2.7836 19.5107,2.8153 15.7006,2.8266 11.6307,2.8267 6.9641,2.5897 4.3204,2.3557 A1.8841,1.8841 0 0 1 4.8484,-1.3755 T7.228,-1.1697 11.6304,-0.967 15.6997,-0.9676 19.5069,-0.959 23.2532,-0.9465 26.0665,-0.9307 26.8943,-0.9213 A1.8514,1.8514 0 0 1 26.8457,2.7813 ZM2.7084,0.3156 T2.719,0.1996 2.7296,0.0837 A1.8845,1.8845 0 0 1 6.4823,0.4329 T6.4714,0.5488 6.4604,0.6646 A1.8841,1.8841 0 0 1 2.7084,0.3156 ZM4.4749,-1.6216 T5.8439,-1.7291 9.0614,-1.8886 12.7631,-1.9743 16.8031,-2.0339 21.0516,-2.0772 25.2591,-2.3069 27.4049,-2.5191 A2.1126,2.1126 0 0 1 28.1523,1.6394 T25.6333,1.8675 21.0535,2.0792 16.8099,2.041 12.7876,1.9997 9.1494,1.9802 6.0438,2.0591 4.737,2.1382 A1.8845,1.8845 0 0 1 4.4749,-1.6216 ZM25.668,-0.5319 T25.6729,-0.6479 25.6777,-0.7638 A2.113,2.113 0 0 1 29.8997,-0.5795 T29.8944,-0.4636 29.8892,-0.3477 A2.1126,2.1126 0 0 1 25.668,-0.5319 ZM27.611,1.4338 T26.5438,1.3449 23.6587,1.2336 19.1801,1.5373 15.0243,1.9242 11.8618,2.0132 8.6617,2.0553 5.6631,2.0756 2.7658,2.0822 -0.4075,1.8527 -2.1494,1.6232 A2.0847,2.0847 0 0 1 -1.5911,-2.5086 T-0.1324,-2.3058 2.7492,-2.112 5.6276,-2.1321 8.5983,-2.1625 11.7346,-2.2166 14.7799,-2.3102 17.6213,-2.4707 20.4511,-2.8019 23.7719,-3.0019 26.8234,-2.8748 27.9665,-2.7772 A2.113,2.113 0 0 1 27.611,1.4338 ZM-2.3293,-2.4762 T-1.4337,-2.6775 1.6693,-2.9653 6.7017,-3.1073 11.3646,-2.953 15.1104,-2.6584 18.9122,-2.5274 22.4634,-2.461 25.6493,-2.4297 28.6405,-2.4139 31.2765,-2.3992 32.4501,-2.3892 A2.3892,2.3892 0 0 1 32.4099,2.3892 T31.242,2.3795 28.6001,2.3568 25.5782,2.3214 22.3446,2.2555 18.7048,2.1374 14.6865,1.9184 11.0788,1.5488 6.7374,1.2953 1.9275,1.2782 -0.7479,1.4401 -1.4112,1.5908 A2.0847,2.0847 0 0 1 -2.3293,-2.4762 ZM32.4284,2.3892 T31.2962,2.3782 27.9833,2.3511 24.3025,2.3275 21.3532,2.3141 18.1122,2.0726 14.6575,1.7242 11.2374,1.5485 7.8934,1.4483 4.8125,1.3901 1.7102,1.1233 -0.6616,0.7557 -1.4249,0.6339 A2.2448,2.2448 0 0 1 -0.7315,-3.8018 T1.3224,-3.4776 4.887,-3.1405 8.0166,-3.1005 11.467,-3.0141 15.1144,-2.8359 18.4198,-2.5127 21.3557,-2.3145 24.302,-2.3282 27.9804,-2.353 31.2953,-2.3797 32.4316,-2.3892 A2.3892,2.3892 0 0 1 32.4284,2.3892 ZM-3.0392,-2.6766 T-3.0039,-2.7394 -2.9687,-2.8022 A2.2444,2.2444 0 0 1 0.9525,-0.6174 T0.9176,-0.5544 0.8827,-0.4914 A2.2448,2.2448 0 0 1 -3.0392,-2.6766 ZM-1.0918,-3.9526 T0.2857,-4.0024 4.2857,-4.0526 8.5018,-3.7929 11.6381,-3.3553 14.9951,-2.9857 16.8094,-2.7937 A1.8682,1.8682 0 0 1 16.5506,0.9337 T14.7272,0.8732 9.9094,0.5937 4.3326,0.4023 0.4129,0.4815 -0.9245,0.533 A2.2444,2.2444 0 0 1 -1.0918,-3.9526 Z" stroke-linecap="round" fill="#ffc034"/></g></g><g transform="matrix(1, 0, 0, 1, 1508.3439, 11095.5529) scale(0.926601032570734, 0.926601032570734)" opacity="1"><g transform="scale(1.079213129328844)"><path d="M-1.93,-1.5722 T-1.4773,-2.8872 -0.2623,-5.5196 1.8373,-9.2418 3.9926,-12.8855 5.7276,-15.2913 8.4649,-18.2692 12.5027,-21.6293 15.9912,-24.0481 18.7043,-25.6614 21.5692,-27.0112 24.3998,-28.156 27.7825,-29.4779 31.4912,-30.9268 34.2767,-32.0111 35.3287,-32.4299 A2.02,2.02 0 0 1 36.9513,-28.7301 T35.9308,-28.2399 32.9233,-26.8859 29.1549,-25.3018 26.0349,-24.077 23.4037,-23.0346 20.895,-21.9034 18.4018,-20.4695 15.9539,-18.8505 12.9764,-16.743 9.6746,-13.6402 6.6773,-9.6806 3.9748,-5.206 2.3524,-1.6027 1.93,-0.2878 A2.0341,2.0341 0 0 1 -1.93,-1.5722 Z" stroke-linecap="round" fill="#ffc034"/></g></g><g transform="matrix(1, 0, 0, 1, 1505.5641, 11092.7731) scale(0.926601032570734, 0.926601032570734)" opacity="1"><g transform="scale(1.079213129328844)"><path d="M-1.9317,1.2531 T-2.1538,-0.0584 -2.8898,-3.179 -3.8878,-6.8481 -4.8366,-10.5658 -5.3907,-13.1818 -5.4801,-13.9399 A1.9741,1.9741 0 0 1 -1.5602,-14.4127 T-1.4792,-13.7583 -0.9261,-11.258 0.0165,-7.5749 0.9915,-3.8838 1.7139,-0.7115 1.9317,0.6069 A1.9585,1.9585 0 0 1 -1.9317,1.2531 ZM-1.5619,-13.9264 T-1.6234,-13.4646 -1.3532,-10.937 -0.6893,-6.8757 0.1868,-3.4696 1.6504,-0.908 3.6875,1.0449 6.1491,2.2177 8.8729,2.112 11.2161,1.2737 12.1798,0.9118 A2.0285,2.0285 0 0 1 13.7602,4.6482 T11.9202,5.5151 8.0045,6.7993 3.9297,6.2674 0.5908,4.2221 -1.6737,1.9296 -3.14,-0.6042 -4.3218,-4.2757 -5.044,-8.2498 -5.3778,-11.5451 -5.5541,-13.8134 -5.4784,-14.4262 A1.9741,1.9741 0 0 1 -1.5619,-13.9264 Z" stroke-linecap="round" fill="#ffc034"/></g></g><g transform="matrix(1, 0, 0, 1, 1556.5272, 11055.7091) scale(0.926601032570734, 0.926601032570734)" opacity="1"><g transform="scale(1.079213129328844)"><path d="M1.6955,0.2836 T1.5213,1.606 1.1973,5.0989 1.0476,7.2694 A1.9169,1.9169 0 0 1 -2.7641,6.8593 T-2.6642,6.0138 -2.3956,3.7499 -1.9612,1.0239 -1.6955,-0.2836 A1.7191,1.7191 0 0 1 1.6955,0.2836 ZM-2.3415,5.8502 T-1.8677,5.2985 -0.1247,3.3377 2.1657,0.8884 5.0543,-1.134 6.9215,-2.1162 A1.839,1.839 0 0 1 8.0302,1.3907 T6.9009,1.8836 4.8175,3.3944 2.83,5.6025 1.2109,7.5356 0.625,8.2786 A1.9169,1.9169 0 0 1 -2.3415,5.8502 ZM8.5509,-1.8548 T9.0058,-1.5375 9.8968,0.7615 10.333,2.7432 A1.9277,1.9277 0 0 1 6.5868,1.8315 T6.8876,1.7745 6.7946,1.4234 6.4008,1.1292 A1.839,1.839 0 0 1 8.5509,-1.8548 ZM9.4616,0.6403 T9.6543,0.7549 9.847,0.8695 A1.9322,1.9322 0 0 1 7.8391,4.1712 T7.6487,4.0528 7.4582,3.9344 A1.9277,1.9277 0 0 1 9.4616,0.6403 ZM7.7892,0.9009 T8.4329,0.48 11.0075,-0.8538 14.9764,-2.1571 18.7731,-1.5549 21.3955,1.215 22.6303,3.8834 23.0015,4.7745 A1.865,1.865 0 0 1 19.6185,6.3455 T18.7536,4.3746 16.2381,2.0898 13.0113,2.4596 10.666,3.6414 9.8969,4.1398 A1.9322,1.9322 0 0 1 7.7892,0.9009 Z" stroke-linecap="round" fill="#ffc034"/></g></g><g transform="matrix(1, 0, 0, 1, 1592.6646, 11055.7091) scale(0.926601032570734, 0.926601032570734)" opacity="1"><g transform="scale(1.079213129328844)"><path d="M0.3439,1.7121 T-0.7465,1.9379 -3.2893,3.2133 -4.7761,5.0932 -4.8103,5.9235 A1.8545,1.8545 0 0 1 -8.4526,5.2237 T-7.2391,2.8075 -4.2844,-0.4463 -1.4435,-1.498 -0.3439,-1.7121 A1.7463,1.7463 0 0 1 0.3439,1.7121 ZM-5.8594,3.8875 T-5.3872,4.099 -3.2039,4.242 -0.6085,3.7645 0.276,3.3555 A1.8124,1.8124 0 0 1 1.7791,6.654 T-0.6353,7.4359 -4.7521,7.9607 -6.9291,7.4817 -7.4035,7.2597 A1.8545,1.8545 0 0 1 -5.8594,3.8875 ZM2.7611,4.4761 T3.0446,5.4959 5.1485,7.132 6.9689,7.7482 A1.5954,1.5954 0 0 1 6.0111,10.7918 T4.9751,10.5127 1.9271,8.8115 -0.3955,6.4614 -0.706,5.5335 A1.8124,1.8124 0 0 1 2.7611,4.4761 Z" stroke-linecap="round" fill="#ffc034"/></g></g><g transform="matrix(1, 0, 0, 1, 1602.8572, 11040.8835) scale(0.926601032570734, 0.926601032570734)" opacity="1"><g transform="scale(1.079213129328844)"><path d="M2.1583,-0.4335 T2.362,0.6651 2.7593,4.1319 2.7833,9.1542 2.2779,13.1374 1.4853,16.7708 1.2973,19.9774 1.5661,20.8798 A2.2591,2.2591 0 0 1 -2.6757,22.4361 T-2.9918,21.4532 -3.0302,18.1073 -2.2307,13.3825 -1.5372,8.8709 -1.5256,4.6688 -1.9221,1.5249 -2.1583,0.4335 A2.2014,2.2014 0 0 1 2.1583,-0.4335 ZM-0.0233,19.4622 T0.4694,19.6118 2.4832,18.7834 5.193,17.0416 6.3818,16.2777 A2.0464,2.0464 0 0 1 8.1467,19.9705 T7.3726,20.5436 5.2409,22.0855 2.0432,23.5797 -0.4415,23.9794 -1.0862,23.8537 A2.2591,2.2591 0 0 1 -0.0233,19.4622 ZM9.1903,17.4325 T9.2241,17.5288 9.2579,17.625 A2.045,2.045 0 0 1 5.4085,19.0072 T5.3734,18.9114 5.3382,18.8157 A2.0464,2.0464 0 0 1 9.1903,17.4325 ZM9.1761,19.2025 T8.9315,19.673 8.385,21.5308 8.1992,23.1292 8.3153,23.3402 A2.0431,2.0431 0 0 1 4.2696,23.914 T4.2084,22.8748 4.4544,20.4283 5.1259,18.2253 5.4903,17.4296 A2.045,2.045 0 0 1 9.1761,19.2025 ZM7.4416,21.9379 T7.7942,22.2408 9.5858,22.3785 11.0247,22.2134 A1.879,1.879 0 0 1 11.2153,25.9666 T10.2002,26.0538 7.7801,26.0845 5.7592,25.6722 5.1433,25.3163 A2.0431,2.0431 0 0 1 7.4416,21.9379 Z" stroke-linecap="round" fill="#ffc034"/></g></g><g transform="matrix(1, 0, 0, 1, 1628.8021, 11055.7091) scale(0.926601032570734, 0.926601032570734)" opacity="1"><g transform="scale(1.079213129328844)"><path d="M0.6833,1.7102 T-0.3704,2.1212 -0.5368,4.2113 -0.48,7.7611 -2.8145,10.5432 -5.6918,11.8349 -7.7612,12.4041 -8.4572,12.593 A1.8764,1.8764 0 0 1 -9.4429,8.972 T-8.1555,8.4985 -5.4559,6.8507 -4.665,4.1988 -4.1211,0.9695 -1.8196,-1.2461 -0.6833,-1.7102 A1.8416,1.8416 0 0 1 0.6833,1.7102 ZM-10.023,12.3218 T-10.5212,11.9427 -11.5759,11.1429 -12.1322,10.7222 A1.7702,1.7702 0 0 1 -10.1078,7.8178 T-9.5206,8.1942 -8.4053,8.9069 -7.8771,9.2431 A1.8764,1.8764 0 0 1 -10.023,12.3218 Z" stroke-linecap="round" fill="#ffc034"/></g></g><g transform="matrix(1, 0, 0, 1, 1634.3617, 11061.2687) scale(0.926601032570734, 0.926601032570734)" opacity="1"><g transform="scale(1.079213129328844)"><path d="M1.1949,0 T1.2017,1.39 1.2085,2.78 A1.2085,1.2085 0 0 1 -1.2085,2.78 T-1.2017,1.39 -1.1949,0 A1.1949,1.1949 0 0 1 1.1949,0 ZM-1.2085,2.78 T-1.2053,1.7365 -1.1986,0.3465 -1.1952,0 A1.1952,1.1952 0 0 1 1.1952,0 T1.1986,0.3465 1.2053,1.7365 1.2085,2.78 A1.2085,1.2085 0 0 1 -1.2085,2.78 Z" stroke-linecap="round" fill="#ffc034"/></g></g><g transform="matrix(1, 0, 0, 1, 1634.3617, 11039.0303) scale(0.926601032570734, 0.926601032570734)" opacity="1"><g transform="scale(1.079213129328844)"><path d="M 0 0 m -2.482169982240431, 0 a 2.482169982240431,2.482169982240431 0 1,1 4.964339964480862,0 a 2.482169982240431,2.482169982240431 0 1,1 -4.964339964480862,0" stroke-linecap="round" fill="#ffc034"/></g></g><g transform="matrix(1, 0, 0, 1, 1642.7011, 11053.8559) scale(0.926601032570734, 0.926601032570734)" opacity="1"><g transform="scale(1.079213129328844)"><path d="M2.1359,1.2873 T1.938,2.6057 1.44,6.5972 1.14,9.2701 A2.2469,2.2469 0 0 1 -3.3152,8.683 T-2.9675,5.9393 -2.3779,1.8841 -2.1359,0.5727 A2.1656,2.1656 0 0 1 2.1359,1.2873 ZM-2.4173,7.1654 T-1.8541,6.7727 0.2587,4.8432 3.2388,2.6045 4.6695,1.9026 A2.1154,2.1154 0 0 1 6.4531,5.739 T5.0164,6.5088 2.573,8.5262 0.9043,10.2807 0.2421,10.7878 A2.2469,2.2469 0 0 1 -2.4173,7.1654 ZM7.6288,3.3733 T7.9303,4.6645 8.2318,5.9557 A2.1584,2.1584 0 0 1 4.0127,6.8689 T3.7532,5.5686 3.4938,4.2683 A2.1154,2.1154 0 0 1 7.6288,3.3733 ZM5.54,4.3339 T5.9957,4.2442 8.0645,3.0815 11.2434,1.7161 12.8094,1.4237 A2.0724,2.0724 0 0 1 13.2609,5.5439 T12.5776,5.4981 10.2137,6.6774 7.6188,8.1966 6.7045,8.4908 A2.1584,2.1584 0 0 1 5.54,4.3339 ZM14.9482,2.6869 T15.1575,3.1788 15.9982,5.6444 16.6296,7.618 A1.939,1.939 0 0 1 13.0304,9.062 T12.276,7.1615 11.3219,4.7708 11.1221,4.2807 A2.0724,2.0724 0 0 1 14.9482,2.6869 Z" stroke-linecap="round" fill="#ffc034"/></g></g><g transform="matrix(1, 0, 0, 1, 1662.1597, 11055.7091) scale(0.926601032570734, 0.926601032570734)" opacity="1"><g transform="scale(1.079213129328844)"><path d="M2.673,0 T2.6906,1.095 2.9376,4.1872 3.1671,6.1844 A1.8339,1.8339 0 0 1 -0.4368,6.8659 T-0.6425,4.5279 -0.8306,1.095 -0.813,0 A1.743,1.743 0 0 1 2.673,0 ZM1.8449,4.7551 T2.6173,4.9592 4.7963,4.9316 6.7702,3.6022 7.3374,2.5046 A1.6761,1.6761 0 0 1 10.5587,3.432 T9.9889,4.7982 7.8924,7.3791 4.3975,8.6589 1.6573,8.5096 0.8854,8.2952 A1.8339,1.8339 0 0 1 1.8449,4.7551 ZM10.578,2.5779 T10.7153,3.1439 12.3539,4.9127 13.8551,6.1154 A1.5683,1.5683 0 0 1 12.0849,8.7046 T11.1924,8.137 8.9042,5.8688 7.4133,3.7636 7.3181,3.3587 A1.6761,1.6761 0 0 1 10.578,2.5779 Z" stroke-linecap="round" fill="#ffc034"/></g></g><g transform="matrix(1, 0, 0, 1, 1680.6917, 11056.6357) scale(0.926601032570734, 0.926601032570734)" opacity="1"><g transform="scale(1.079213129328844)"><path d="M1.8853,0.93 T1.9006,2.009 2.2157,3.7905 2.5156,4.4931 A1.9457,1.9457 0 0 1 -1.1722,5.7353 T-1.544,4.4437 -1.9006,2.041 -1.8853,0.93 A1.8853,1.8853 0 0 1 1.8853,0.93 ZM-0.4068,3.4948 T0.096,3.1699 2.2887,1.6024 5.9977,-0.1198 8.0167,-0.5995 A1.8222,1.8222 0 0 1 8.5334,3.008 T6.6855,3.6033 3.7883,5.1268 2.2446,6.3943 1.7503,6.7336 A1.9457,1.9457 0 0 1 -0.4068,3.4948 ZM9.4329,-0.2028 T9.9044,0.1804 11.8495,0.6395 14.8717,0.1479 18.3252,0.1862 21.0579,2.9772 21.955,6.6023 22.0914,9.5272 22.1587,11.0125 A1.772,1.772 0 0 1 18.6213,11.2275 T18.4153,8.5212 17.6805,4.4729 15.8255,3.6704 12.3671,4.5914 9.1103,4.1543 7.5515,2.9735 7.1173,2.6113 A1.8222,1.8222 0 0 1 9.4329,-0.2028 Z" stroke-linecap="round" fill="#ffc034"/></g></g><g transform="matrix(1, 0, 0, 1, 1405.4912, 11250.2953) scale(0.926601032570734, 0.926601032570734)" opacity="1"><g transform="scale(1.079213129328844)"><path d="M-1.4724,-1.4199 T-1.0288,-2.7395 0.1033,-5.5451 1.6817,-8.818 3.4238,-12.0164 5.2654,-14.6867 7.1595,-17.5996 8.6665,-20.498 10.0593,-23.4025 11.8092,-26.5232 13.7016,-29.2509 15.9608,-31.9762 18.151,-34.8996 19.8923,-37.6978 21.6717,-40.4087 23.5148,-43.3417 25.3122,-46.466 26.8272,-49.2121 28.2604,-51.7149 29.9016,-54.4184 31.6884,-57.3484 33.1293,-60.2586 34.2518,-62.9211 35.5399,-65.9291 37.1268,-69.3139 39.1216,-72.8239 41.0737,-75.9779 42.8477,-79.0621 44.5063,-82.6415 46.2741,-86.3182 48.3136,-89.9379 50.0342,-92.985 51.9413,-95.5207 54.0093,-98.07 55.6714,-100.8731 57.3703,-103.4569 59.6258,-105.9664 62.0219,-108.5248 63.8834,-110.8344 66.07,-113.4584 68.8131,-116.2391 71.5756,-119.0493 74.3797,-121.9347 77.6459,-124.5713 81.3262,-126.7581 84.8724,-128.6282 88.0257,-130.3711 91.1539,-132.09 94.4545,-133.5208 97.4162,-133.917 99.6326,-133.5603 100.4958,-133.3573 A2.7406,2.7406 0 0 1 99.6442,-127.9427 T98.1223,-127.9846 94.6886,-127.1108 91.0412,-125.2116 87.6572,-123.3947 84.223,-121.6603 80.8398,-119.6837 78.1042,-117.5417 75.6814,-115.1691 73.3838,-112.7302 71.0018,-110.4073 68.6861,-108.1897 66.7285,-106.1299 64.373,-103.4715 61.7079,-100.4498 59.1694,-97.3027 56.8181,-94.1004 54.6531,-91.1905 52.7549,-88.3893 51.0103,-85.2597 49.3958,-82.2045 47.8844,-79.4031 46.2086,-76.1828 44.2444,-73.128 42.3741,-70.2306 40.7734,-67.3113 39.3749,-64.6225 37.9261,-61.5248 36.4242,-58.2465 34.8624,-55.3316 33.0674,-52.5816 31.1196,-49.4118 29.1509,-46.0977 27.3141,-43.2201 25.3972,-40.1143 23.4994,-37.0767 21.4874,-34.119 19.1555,-30.9666 16.9209,-28.0278 14.8233,-25.2054 13.2004,-22.522 11.9082,-19.9713 10.2067,-17.1483 8.0413,-13.6411 6.0554,-10.3824 4.5009,-7.5876 3.0227,-4.566 1.9038,-1.7504 1.4724,-0.4401 A1.5518,1.5518 0 0 1 -1.4724,-1.4199 Z" stroke-linecap="round" fill="#40c057"/></g></g><g transform="matrix(1, 0, 0, 1, 1448.1149, 11208.5982) scale(0.926601032570734, 0.926601032570734)" opacity="1"><g transform="scale(1.079213129328844)"><path d="M1.7596,-0.8798 T2.3945,0.4464 4.0542,3.6406 6.5238,7.1277 9.0496,9.8428 11.2143,12.2424 13.5164,15.0836 15.9967,18.0241 18.7519,20.7569 21.9169,23.4413 25.1905,26.2063 28.6287,28.9178 32.3682,31.5996 36.1581,34.3551 40.0895,37.0656 44.3894,40.019 48.8647,43.091 53.3546,45.9586 58.0958,48.7367 63.0175,51.4935 68.0335,54.2411 73.1872,56.6975 78.4538,58.8108 83.9547,61.0412 89.491,63.2958 94.8472,65.0597 100.4912,66.6226 106.4214,68.3403 112.2969,69.8636 118.4349,71.309 124.5443,72.7315 130.5123,73.8934 136.7038,74.9409 142.8319,75.9324 148.911,76.8914 155.167,77.83 161.3271,78.7632 167.1029,79.4599 172.9841,80.0471 178.7203,80.5826 184.0436,80.8644 189.4663,81.0268 194.8701,81.3611 199.9123,81.7936 204.4133,82.0605 208.5366,82.254 212.458,82.4095 216.2772,82.5691 219.9806,82.9598 223.4015,83.7115 226.6974,84.6232 228.384,85.0853 A2.0631,2.0631 0 0 1 227.496,89.1147 T225.7714,88.825 222.5945,88.31 219.6393,87.9412 216.2341,87.8661 212.3804,87.9675 208.3931,88.0127 204.1601,87.9968 199.4555,87.8663 194.5151,87.5448 189.2967,87.2831 183.7185,87.1491 178.1476,86.8686 172.3576,86.3371 166.348,85.7344 160.3759,85.0077 154.2244,84.066 147.9252,83.1071 141.8215,82.1352 135.6474,81.1231 129.3014,80.029 123.1201,78.7966 116.9911,77.3364 110.7217,75.8068 104.6945,74.1801 98.8454,72.4157 92.9531,70.7011 87.2341,68.732 81.7353,66.3983 76.2775,64.0869 70.7299,61.7374 65.3438,59.0463 60.332,56.182 55.3714,53.2803 50.5155,50.3115 45.9404,47.2643 41.5258,44.1032 37.2767,41.0541 33.3064,38.1996 29.5879,35.3856 25.7309,32.4893 22.2398,29.6066 19.0245,26.7465 15.6926,23.7476 12.7705,20.6863 10.3028,17.6227 8.2063,14.8868 6.18,12.5199 3.4852,9.4458 0.7407,5.5116 -1.0796,2.1835 -1.7596,0.8798 A1.9673,1.9673 0 0 1 1.7596,-0.8798 Z" stroke-linecap="round" fill="#40c057"/></g></g><g transform="matrix(1, 0, 0, 1, 1680.6917, 11293.8455) scale(0.926601032570734, 0.926601032570734)" opacity="1"><g transform="scale(1.079213129328844)"><path d="M-1.4097,-0.1229 T-2.291,-1.6532 -4.0681,-4.622 -5.7009,-7.5596 -7.5589,-11.5905 -9.2507,-15.5625 -9.8213,-17.0026 A1.601,1.601 0 0 1 -6.8587,-18.2174 T-6.2541,-16.7911 -4.5489,-12.9376 -2.7969,-9.1501 -1.2414,-6.2983 0.5362,-3.2719 1.4097,-1.7371 A1.6244,1.6244 0 0 1 -1.4097,-0.1229 Z" stroke-linecap="round" fill="#40c057"/></g></g><g transform="matrix(1, 0, 0, 1, 1679.7651, 11292.9189) scale(0.926601032570734, 0.926601032570734)" opacity="1"><g transform="scale(1.079213129328844)"><path d="M1.9053,1.6913 T1.4719,2.788 0.3932,5.5863 -1.0317,9.1262 -2.2531,11.9463 -2.695,12.9282 A2.125,2.125 0 0 1 -6.565,11.1718 T-6.1168,10.1927 -4.9592,7.6212 -3.5192,4.1921 -2.3469,1.262 -1.9053,0.1687 A2.0518,2.0518 0 0 1 1.9053,1.6913 Z" stroke-linecap="round" fill="#40c057"/></g></g><g transform="matrix(1, 0, 0, 1, 1705.71, 11265.1209) scale(0.926601032570734, 0.926601032570734)" opacity="1"><g transform="scale(1.079213129328844)"><path d="M3.2855,0 T3.2808,1.7525 3.2784,5.0859 3.2878,8.159 3.0773,11.4692 2.7596,14.7555 2.3382,18.9212 1.2054,24.1873 -0.2676,28.1126 -0.9293,29.4697 A1.9968,1.9968 0 0 1 -4.6307,27.9703 T-4.1614,26.5353 -3.2226,22.9025 -2.4481,18.2827 -2.0112,14.2609 -1.6572,11.1534 -1.4278,8.1563 -1.4184,5.0859 -1.4208,1.7525 -1.4255,0 A2.3555,2.3555 0 0 1 3.2855,0 Z" stroke-linecap="round" fill="#40c057"/></g></g><g transform="matrix(1, 0, 0, 1, 1711.2696, 11283.6529) scale(0.926601032570734, 0.926601032570734)" opacity="1"><g transform="scale(1.079213129328844)"><path d="M1.6391,-0.2742 T1.882,1.037 2.6534,4.301 3.182,6.2538 A1.7963,1.7963 0 0 1 -0.1365,7.6306 T-0.6908,5.271 -1.4421,1.5928 -1.6391,0.2742 A1.6619,1.6619 0 0 1 1.6391,-0.2742 ZM0.3248,5.6036 T0.9004,5.115 2.8871,3.4997 5.5478,1.4207 8.0154,-0.2841 9.2334,-1.0364 A1.7283,1.7283 0 0 1 10.6738,2.1057 T10.3227,2.2431 8.3208,3.6911 5.4677,5.9236 3.4931,7.563 2.7207,8.2807 A1.7963,1.7963 0 0 1 0.3248,5.6036 ZM11.2238,-0.6373 T11.8863,0.0778 13.0716,2.395 13.7209,5.6824 13.8145,9.2291 13.7817,11.0905 A1.7319,1.7319 0 0 1 10.3183,11.1495 T10.2695,10.178 10.1624,7.5604 10.0136,4.4853 9.3033,2.3815 8.6834,1.7066 A1.7283,1.7283 0 0 1 11.2238,-0.6373 Z" stroke-linecap="round" fill="#40c057"/></g></g><g transform="matrix(1, 0, 0, 1, 1735.3612, 11286.4327) scale(0.926601032570734, 0.926601032570734)" opacity="1"><g transform="scale(1.079213129328844)"><path d="M1.4322,-0.2139 T0.7874,1.1077 -0.6576,4.1527 -0.6427,7.0115 1.3051,6.9776 2.6954,4.2074 2.9532,2.6067 A1.5644,1.5644 0 0 1 6.0556,3.0127 T6.0043,3.444 5.5296,5.771 4.1637,9.0032 1.2294,10.8503 -2.4109,10.4284 -4.3455,7.173 -3.7021,2.9102 -2.1024,-0.3379 -1.4322,-1.6461 A1.6012,1.6012 0 0 1 1.4322,-0.2139 ZM4.446,4.373 T4.2582,4.3646 4.0704,4.3563 A1.5617,1.5617 0 0 1 4.1869,1.235 T4.3749,1.2407 4.5628,1.2463 A1.5644,1.5644 0 0 1 4.446,4.373 ZM5.6724,3.0319 T5.5339,3.9452 6.0963,6.9377 7.4711,10.5942 8.975,13.6447 10.3146,17.1239 10.7078,21.0912 9.8066,24.749 7.5002,27.7034 4.022,29.2792 -0.3025,28.7371 -4.4853,26.0946 -7.5339,22.3455 -8.7676,20.3788 A1.6393,1.6393 0 0 1 -6.0524,18.5412 T-5.3622,19.485 -3.5112,21.858 -0.3077,24.4629 3.7048,25.0365 6.4646,22.8562 7.1304,19.723 6.407,16.7854 5.0118,13.5237 3.7993,10.0631 2.8199,6.5826 2.421,3.6214 2.5849,2.5593 A1.5617,1.5617 0 0 1 5.6724,3.0319 Z" stroke-linecap="round" fill="#40c057"/></g></g><g transform="matrix(1, 0, 0, 1, 1746.4804, 11290.1391) scale(0.926601032570734, 0.926601032570734)" opacity="1"><g transform="scale(1.079213129328844)"><path d="M0.3394,-1.6898 T1.4384,-1.491 3.9082,-1.3534 6.0301,-2.9397 6.4564,-4.3754 6.1318,-4.2863 A1.827,1.827 0 0 1 7.5057,-7.6721 T8.433,-7.1353 9.8039,-4.9018 9.4648,-1.4559 7.4325,1.2079 4.0127,2.1473 0.7516,1.9309 -0.3394,1.6898 A1.7236,1.7236 0 0 1 0.3394,-1.6898 ZM7.7774,-4.424 T7.2572,-4.1122 5.6622,-2.654 3.9028,-0.2155 3.2698,2.4816 5.405,3.9971 8.7503,4.011 10.0121,3.9145 A1.6551,1.6551 0 0 1 10.3679,7.2055 T9.1146,7.3808 5.3972,7.4925 1.1222,5.5658 -0.4002,1.6935 0.8248,-2.0204 3.2955,-5.3033 5.345,-7.2081 5.8601,-7.5344 A1.827,1.827 0 0 1 7.7774,-4.424 Z" stroke-linecap="round" fill="#40c057"/></g></g><g transform="matrix(1, 0, 0, 1, 1764.0858, 11285.5061) scale(0.926601032570734, 0.926601032570734)" opacity="1"><g transform="scale(1.079213129328844)"><path d="M1.6197,-0.2709 T1.8592,1.0409 2.4634,3.8436 2.828,5.3345 A1.7653,1.7653 0 0 1 -0.37,6.8303 T-0.7944,4.8687 -1.4193,1.589 -1.6197,0.2709 A1.6422,1.6422 0 0 1 1.6197,-0.2709 ZM0.124,4.7058 T0.7674,4.2013 2.5721,2.4767 5.2552,-0.0997 8.9721,-1.7468 12.589,0.2473 14.2213,3.9082 14.6264,7.7102 14.8965,11.518 14.9721,12.8999 A2.0034,2.0034 0 0 1 10.9679,13.0401 T10.9345,10.4512 10.7537,5.6292 9.5348,2.4416 7.3634,2.5894 5.2155,4.8276 3.2508,6.7112 2.3341,7.459 A1.7653,1.7653 0 0 1 0.124,4.7058 Z" stroke-linecap="round" fill="#40c057"/></g></g><g transform="matrix(1, 0, 0, 1, 1801.1499, 11271.6071) scale(0.926601032570734, 0.926601032570734)" opacity="1"><g transform="scale(1.079213129328844)"><path d="M2.0875,0 T2.0553,1.3149 2.0063,4.796 1.7791,9.6278 1.4535,14.6605 1.5202,19.1353 1.7021,21.2429 A2.1967,2.1967 0 0 1 -2.6424,21.8972 T-2.8405,20.4146 -2.8937,16.6901 -2.5986,13.0294 -2.219,9.2863 -2.0063,4.796 -2.0553,1.3149 -2.0875,0 A2.0875,2.0875 0 0 1 2.0875,0 ZM-1.771,19.7999 T-1.2169,19.4716 0.5827,17.8091 2.8669,15.2634 5.307,12.8547 6.7083,11.6574 A1.7767,1.7767 0 0 1 8.8468,14.4953 T7.8022,15.4851 5.6189,17.9748 3.5477,20.6729 1.723,22.6057 0.8306,23.3403 A2.1967,2.1967 0 0 1 -1.771,19.7999 ZM9.5057,12.6638 T9.7168,13.5813 10.0093,16.0766 10.105,19.3704 11.3525,21.281 12.5858,21.4756 A1.7771,1.7771 0 0 1 11.5142,24.8644 T9.7029,24.0963 7.1991,21.173 6.4732,17.0377 6.2445,14.2732 6.0494,13.4889 A1.7767,1.7767 0 0 1 9.5057,12.6638 Z" stroke-linecap="round" fill="#40c057"/></g></g><g transform="matrix(1, 0, 0, 1, 1818.7553, 11286.4327) scale(0.926601032570734, 0.926601032570734)" opacity="1"><g transform="scale(1.079213129328844)"><path d="M1.278,-0.2567 T1.5362,0.8308 2.0248,3.7007 4.1495,4.9682 7.0694,2.4921 8.0028,0.3339 7.9106,0.1371 A1.3663,1.3663 0 0 1 10.6294,-0.1371 T10.6366,0.6523 9.9367,3.3191 7.9058,6.5596 4.557,8.4971 0.9322,7.5253 -0.7911,4.2203 -1.0963,1.3592 -1.278,0.2567 A1.3036,1.3036 0 0 1 1.278,-0.2567 ZM10.6353,-0.0528 T10.6443,0.4166 10.6859,2.6765 11.123,5.9385 11.5274,7.4099 A1.5305,1.5305 0 0 1 9.2219,9.4233 T8.5164,8.306 7.8202,5.8251 7.8858,2.5015 7.9234,0.2972 7.9047,0.0528 A1.3663,1.3663 0 0 1 10.6353,-0.0528 ZM10.3296,6.8868 T10.9436,6.8766 12.2417,6.8543 12.9258,6.8422 A1.4984,1.4984 0 0 1 13.0142,9.8378 T12.3306,9.8661 11.0334,9.9203 10.4198,9.9463 A1.5305,1.5305 0 0 1 10.3296,6.8868 Z" stroke-linecap="round" fill="#40c057"/></g></g><g transform="matrix(1, 0, 0, 1, 1839.1405, 11270.6805) scale(0.926601032570734, 0.926601032570734)" opacity="1"><g transform="scale(1.079213129328844)"><path d="M1.6692,0 T1.6788,1.7525 1.7072,4.8684 1.7533,7.8254 1.8067,10.9163 1.8613,13.8601 1.7761,17.8483 1.6624,20.39 A1.6624,1.6624 0 0 1 -1.6624,20.39 T-1.7761,17.8483 -1.8613,13.8601 -1.8067,10.9163 -1.7533,7.8254 -1.7072,4.8684 -1.6788,1.7525 -1.6692,0 A1.6692,1.6692 0 0 1 1.6692,0 Z" stroke-linecap="round" fill="#40c057"/></g></g><g transform="matrix(1, 0, 0, 1, 1844.7001, 11266.0475) scale(0.926601032570734, 0.926601032570734)" opacity="1"><g transform="scale(1.079213129328844)"><path d="M1.9376,0.6868 T2.1489,2.4405 2.4883,6.0546 2.4679,9.8857 2.2581,13.6552 2.1725,17.0627 2.3161,20.871 2.7083,24.3196 2.9329,25.5685 A2.037,2.037 0 0 1 -1.0729,26.3115 T-1.3111,25.0651 -1.7506,21.1894 -1.8877,16.9156 -1.7175,13.3926 -1.4422,9.8364 -1.3767,6.4172 -1.709,2.9245 -1.9376,1.1732 A1.9528,1.9528 0 0 1 1.9376,0.6868 Z" stroke-linecap="round" fill="#40c057"/></g></g><g transform="matrix(1, 0, 0, 1, 1855.8193, 11279.0199) scale(0.926601032570734, 0.926601032570734)" opacity="1"><g transform="scale(1.079213129328844)"><path d="M 0 0 m -2.482169982240431, 0 a 2.482169982240431,2.482169982240431 0 1,1 4.964339964480862,0 a 2.482169982240431,2.482169982240431 0 1,1 -4.964339964480862,0" stroke-linecap="round" fill="#40c057"/></g></g><g transform="matrix(1, 0, 0, 1, 1855.8193, 11286.4327) scale(0.926601032570734, 0.926601032570734)" opacity="1"><g transform="scale(1.079213129328844)"><path d="M 0 0 m -2.482169982240431, 0 a 2.482169982240431,2.482169982240431 0 1,1 4.964339964480862,0 a 2.482169982240431,2.482169982240431 0 1,1 -4.964339964480862,0" stroke-linecap="round" fill="#40c057"/></g></g><g transform="matrix(1, 0, 0, 1, 1732.5814, 11340.1756) scale(0.926601032570734, 0.926601032570734)" opacity="1"><g transform="scale(1.079213129328844)"><path d="M-1.07,1.6079 T-1.6452,1.1904 -2.6841,2.1227 -3.2922,4.9773 -3.0413,7.2135 -2.6461,7.9448 A2.0033,2.0033 0 0 1 -6.171,9.8494 T-6.7668,8.0442 -7.0897,4.2566 -5.769,0.3897 -2.5653,-2.0089 0.3303,-2.0655 1.07,-1.6079 A1.9314,1.9314 0 0 1 -1.07,1.6079 ZM-4.1197,6.9148 T-3.5613,7.0084 -1.9396,5.5308 -0.0171,2.9586 0.8421,1.9575 A1.8081,1.8081 0 0 1 3.6157,4.2779 T3.0418,4.9898 1.3885,7.3643 -1.5424,10.0359 -4.0457,10.9622 -4.6975,10.8795 A2.0033,2.0033 0 0 1 -4.1197,6.9148 ZM4.0013,2.76 T4.1877,3.8295 4.4224,6.3541 4.898,8.3159 5.3253,8.8227 A1.7238,1.7238 0 0 1 3.3046,11.6161 T2.4864,10.8562 1.2739,7.6884 0.6681,4.378 0.4566,3.4754 A1.8081,1.8081 0 0 1 4.0013,2.76 ZM3.6254,8.6395 T4.1466,8.4308 5.2482,7.9882 5.8284,7.7544 A1.6537,1.6537 0 0 1 7.1516,10.7856 T6.5856,11.0521 5.5121,11.5589 5.0045,11.7992 A1.7238,1.7238 0 0 1 3.6254,8.6395 Z" stroke-linecap="round" fill="#40c057"/></g></g><g transform="matrix(1, 0, 0, 1, 1747.407, 11324.4234) scale(0.926601032570734, 0.926601032570734)" opacity="1"><g transform="scale(1.079213129328844)"><path d="M1.9232,-0.3217 T2.127,0.9962 2.4502,3.741 2.6409,6.5757 2.7593,9.3842 2.6216,12.5356 2.3543,15.7361 2.2346,18.6032 2.157,21.6379 2.0735,25.081 2.0304,26.9068 A2.0307,2.0307 0 0 1 -2.0304,26.8332 T-2.0073,25.007 -1.9652,21.5201 -1.8706,18.378 -1.6636,15.3405 -1.311,12.3269 -1.1071,9.512 -1.2878,5.5502 -1.6871,1.6337 -1.9232,0.3217 A1.9499,1.9499 0 0 1 1.9232,-0.3217 Z" stroke-linecap="round" fill="#40c057"/></g></g><g transform="matrix(1, 0, 0, 1, 1753.8932, 11325.35) scale(0.926601032570734, 0.926601032570734)" opacity="1"><g transform="scale(1.079213129328844)"><path d="M1.8364,-0.3072 T2.055,1.0082 2.4027,3.7474 2.6038,6.5801 2.4907,9.7388 2.2229,12.9411 2.1001,16.0266 1.9856,19.1807 1.8375,22.4118 1.7641,24.1216 A1.7643,1.7643 0 0 1 -1.7641,24.0584 T-1.7763,22.3471 -1.8081,19.0867 -1.7635,15.8391 -1.5841,12.5931 -1.2785,9.5973 -1.2409,5.5426 -1.6151,1.6216 -1.8364,0.3072 A1.8619,1.8619 0 0 1 1.8364,-0.3072 Z" stroke-linecap="round" fill="#40c057"/></g></g><g transform="matrix(1, 0, 0, 1, 1756.673, 11344.8086) scale(0.926601032570734, 0.926601032570734)" opacity="1"><g transform="scale(1.079213129328844)"><path d="M0.6287,-1.5733 T1.7058,-1.1462 4.1018,-1.1143 5.703,-2.2988 5.9852,-3.0881 A1.6759,1.6759 0 0 1 9.2837,-3.6831 T8.939,-1.739 7.4242,1.1522 3.9256,2.2842 0.4842,2.0212 -0.6287,1.5733 A1.6943,1.6943 0 0 1 0.6287,-1.5733 ZM7.903,-1.7313 T7.5042,-1.7176 6.0226,-0.131 5.8479,2.7166 8.7094,4.4769 12.8376,4.7188 16.5051,4.0685 17.9979,3.6621 A1.9711,1.9711 0 0 1 19.0621,7.4579 T17.5756,7.8868 14.4143,8.7338 11.3361,9.0019 7.4321,8.0301 3.3491,5.4427 1.9523,1.7289 2.8422,-1.5681 4.5887,-3.7865 6.4983,-4.848 7.366,-5.0398 A1.6759,1.6759 0 0 1 7.903,-1.7313 Z" stroke-linecap="round" fill="#40c057"/></g></g><g transform="matrix(1, 0, 0, 1, 1791.8839, 11340.1756) scale(0.926601032570734, 0.926601032570734)" opacity="1"><g transform="scale(1.079213129328844)"><path d="M1.9937,0.4878 T2.4508,2.4558 3.3873,6.3179 4.3701,9.8196 4.8736,11.4272 A2.1898,2.1898 0 0 1 1.0085,13.4866 T0.347,11.3411 -0.7361,7.2607 -1.5757,3.349 -1.9937,1.3722 A2.0421,2.0421 0 0 1 1.9937,0.4878 ZM1.417,10.8845 T2.0818,10.308 3.868,7.0974 5.6008,3.0532 6.7885,0.4222 8.1721,-2.1437 9.8247,-4.9047 10.67,-6.3207 A1.5758,1.5758 0 0 1 13.43,-4.7993 T12.684,-3.3285 10.8525,0.5889 9.2291,4.56 8.085,7.5703 6.9668,10.5103 5.4601,12.9969 4.4651,14.0292 A2.1898,2.1898 0 0 1 1.417,10.8845 Z" stroke-linecap="round" fill="#40c057"/></g></g><g transform="matrix(1, 0, 0, 1, 1804.8563, 11346.6618) scale(0.926601032570734, 0.926601032570734)" opacity="1"><g transform="scale(1.079213129328844)"><path d="M0,-1.5961 T1.0468,-1.5969 3.4163,-3.0346 4.5345,-5.0181 4.33,-5.5648 A1.6419,1.6419 0 0 1 7.5945,-5.9197 T6.9334,-3.4931 4.2793,0.2657 1.1432,1.5969 0,1.5961 A1.5961,1.5961 0 0 1 0,-1.5961 ZM6.5838,-4.2226 T6.0086,-4.0115 4.4023,-2.0557 3.1107,1.2544 3.1515,4.2806 5.1476,7.024 8.1656,8.0151 10.4822,6.8148 12.188,4.3474 12.96,0.8639 13.2149,-2.1509 13.4101,-3.2411 A2.0357,2.0357 0 0 1 17.4082,-2.4725 T17.2974,-1.9713 17.335,-0.1252 17.2795,2.6383 15.806,6.4858 12.4559,10.3231 7.8602,11.8041 3.2698,10.5118 0.2997,7.0154 -0.3551,2.62 0.6516,-1.5959 2.5572,-5.0445 4.5185,-6.9015 5.3407,-7.262 A1.6419,1.6419 0 0 1 6.5838,-4.2226 ZM14.4035,-4.6268 T15.1718,-5.0216 17.2667,-5.6881 19.7699,-6.1558 20.9463,-6.352 A1.76,1.76 0 0 1 21.6737,-2.908 T19.7521,-2.4413 17.1227,-1.5308 16.4147,-1.0869 A2.0357,2.0357 0 0 1 14.4035,-4.6268 Z" stroke-linecap="round" fill="#40c057"/></g></g><g transform="matrix(1, 0, 0, 1, 1837.2873, 11344.8086) scale(0.926601032570734, 0.926601032570734)" opacity="1"><g transform="scale(1.079213129328844)"><path d="M-1.0749,1.4344 T-1.9063,0.7832 -3.8408,1.5915 -5.5383,5.3349 -4.2586,6.6035 -1.2488,3.5297 0.8938,-0.7504 2.2614,-4.698 3.1226,-8.8402 3.7905,-13.3237 4.0308,-17.0833 4.1037,-18.7755 A1.43,1.43 0 0 1 6.9633,-18.7293 T6.9674,-16.9973 6.8909,-13.068 6.6672,-9.4929 6.1396,-5.9604 4.982,-1.5804 3.0617,3.0107 1.1247,6.6956 -1.7073,9.8064 -6.1002,11.3475 -8.9987,9.0786 -8.8396,4.4263 -6.6711,-0.2464 -2.9906,-2.5235 0.1515,-2.0982 1.0749,-1.4344 A1.7925,1.7925 0 0 1 -1.0749,1.4344 ZM4.6518,-17.6266 T4.4399,-17.7962 4.228,-17.9658 A1.4243,1.4243 0 0 1 5.9844,-20.2084 T6.1998,-20.0433 6.4152,-19.8782 A1.43,1.43 0 0 1 4.6518,-17.6266 ZM6.4618,-18.6501 T6.3472,-18.3065 6.1702,-16.4241 5.7845,-12.4667 5.432,-7.4337 5.4081,-2.6439 5.7336,1.3774 6.5655,5.0921 7.0776,6.961 A1.5826,1.5826 0 0 1 4.0424,7.859 T3.3749,5.7407 2.378,1.5706 2.1094,-2.6912 2.2385,-6.27 2.4076,-8.9891 2.9,-12.6657 3.4105,-16.9028 3.6398,-19.169 3.7506,-19.5241 A1.4243,1.4243 0 0 1 6.4618,-18.6501 Z" stroke-linecap="round" fill="#40c057"/></g></g><g transform="matrix(1, 0, 0, 1, 1849.3331, 11350.3682) scale(0.926601032570734, 0.926601032570734)" opacity="1"><g transform="scale(1.079213129328844)"><path d="M 0 0 m -2.482169982240431, 0 a 2.482169982240431,2.482169982240431 0 1,1 4.964339964480862,0 a 2.482169982240431,2.482169982240431 0 1,1 -4.964339964480862,0" stroke-linecap="round" fill="#40c057"/></g></g><g transform="matrix(1, 0, 0, 1, 1853.9661, 11320.717) scale(0.926601032570734, 0.926601032570734)" opacity="1"><g transform="scale(1.079213129328844)"><path d="M1.3497,0 T1.3526,0.6575 1.3585,2.0475 1.3614,2.78 A1.3614,1.3614 0 0 1 -1.3614,2.78 T-1.3585,2.0475 -1.3526,0.6575 -1.3497,0 A1.3497,1.3497 0 0 1 1.3497,0 Z" stroke-linecap="round" fill="#40c057"/></g></g><g transform="matrix(1, 0, 0, 1, 1854.8927, 11345.7352) scale(0.926601032570734, 0.926601032570734)" opacity="1"><g transform="scale(1.079213129328844)"><path d="M0,-1.5289 T1.0484,-1.537 3.1918,-2.6963 4.3221,-4.7853 4.3573,-5.7231 A1.5901,1.5901 0 0 1 7.5229,-6.0278 T7.5815,-4.9389 6.8462,-2.1904 4.1677,0.5072 1.1416,1.537 0,1.5289 A1.5289,1.5289 0 0 1 0,-1.5289 ZM6.6321,-4.4438 T6.0477,-4.1881 4.6547,-2.5212 3.7224,0.5922 4.0319,3.618 5.813,4.9184 8.3824,4.3097 10.964,2.5387 12.808,0.0769 13.734,-3.2417 14.1758,-5.2842 A2.0281,2.0281 0 0 1 18.0818,-4.1908 T17.7274,-2.2711 16.708,1.3139 15.0361,4.1456 12.7397,6.2388 9.5462,7.8652 5.4598,8.2839 2.0068,6.2727 0.6561,2.1737 1.1019,-2.0862 2.641,-5.2302 4.4511,-6.8951 5.2481,-7.3071 A1.5901,1.5901 0 0 1 6.6321,-4.4438 ZM16.2097,-6.764 T17.1631,-6.7032 18.8091,-6.6084 19.5019,-6.5744 A1.9449,1.9449 0 0 1 19.4181,-2.6856 T18.7245,-2.6815 17.0394,-2.6942 16.0479,-2.7111 A2.0281,2.0281 0 0 1 16.2097,-6.764 Z" stroke-linecap="round" fill="#40c057"/></g></g><g transform="matrix(1, 0, 0, 1, 1896.5898, 11339.249) scale(0.926601032570734, 0.926601032570734)" opacity="1"><g transform="scale(1.079213129328844)"><path d="M1.6741,0 T1.7154,1.095 1.8102,3.8445 1.9006,7.8446 1.9374,10.19 A1.9374,1.9374 0 0 1 -1.9374,10.19 T-1.9006,7.8446 -1.8102,3.8445 -1.7154,1.095 -1.6741,0 A1.6741,1.6741 0 0 1 1.6741,0 ZM-1.9374,10.19 T-1.9283,9.3116 -1.2526,6.8935 0.3305,3.8146 2.2472,0.9458 4.6323,-1.0454 6.0174,-1.7069 A1.7743,1.7743 0 0 1 7.2136,1.6339 T6.5324,1.7123 4.7016,3.5879 2.7356,6.9835 1.9283,9.386 1.9374,10.19 A1.9374,1.9374 0 0 1 -1.9374,10.19 ZM8.2506,-0.7251 T8.4473,-0.2797 8.8859,1.5566 9.3233,3.2399 9.5188,3.5323 A1.8827,1.8827 0 0 1 6.0584,5.0166 T5.6985,3.2812 5.1594,1.099 4.9803,0.6522 A1.7743,1.7743 0 0 1 8.2506,-0.7251 ZM7.567,2.4049 T8.0534,2.3875 10.292,1.2722 13.8038,-0.5508 16.5497,-1.2173 17.536,-1.1587 A1.8973,1.8973 0 0 1 16.9135,2.5846 T16.1932,2.627 13.8661,3.4047 11.1536,4.981 9.0289,5.9831 8.0102,6.1441 A1.8827,1.8827 0 0 1 7.567,2.4049 ZM18.829,-0.3001 T19.1472,0.1829 20.1797,2.9645 21.1001,6.6519 21.3061,8.0407 A1.8702,1.8702 0 0 1 17.6139,8.6393 T17.3706,7.2566 16.6731,4.2946 15.9197,2.2207 15.6205,1.726 A1.8973,1.8973 0 0 1 18.829,-0.3001 Z" stroke-linecap="round" fill="#40c057"/></g></g><g transform="matrix(1, 0, 0, 1, 1919.7548, 11343.882) scale(0.926601032570734, 0.926601032570734)" opacity="1"><g transform="scale(1.079213129328844)"><path d="M0,-1.6998 T1.3093,-1.7164 4.177,-2.6514 6.0707,-4.4235 6.4061,-5.277 A1.8099,1.8099 0 0 1 10.0095,-4.9331 T9.8103,-3.9377 8.1306,-1.237 4.6458,1.1006 1.3206,1.7164 0,1.6998 A1.6998,1.6998 0 0 1 0,-1.6998 ZM7.0719,-3.6961 T6.8384,-3.9752 5.5282,-2.5608 3.8742,0.6153 4.7972,3.2251 7.9817,3.8189 10.8227,2.5015 13.4356,0.7328 14.8916,-0.252 A1.4608,1.4608 0 0 1 16.6084,2.112 T15.2213,3.1918 12.4394,5.3409 9.66,7.022 5.7883,7.5848 1.5853,6.0695 0.0055,2.5351 0.7915,-1.1106 2.6347,-4.3951 6.0069,-6.684 8.7647,-6.8901 9.3438,-6.5141 A1.8099,1.8099 0 0 1 7.0719,-3.6961 Z" stroke-linecap="round" fill="#40c057"/></g></g><g transform="matrix(1, 0, 0, 1, 1939.2134, 11315.1574) scale(0.926601032570734, 0.926601032570734)" opacity="1"><g transform="scale(1.079213129328844)"><path d="M1.7382,0 T1.7233,1.7525 1.707,5.0859 1.7208,8.3776 1.7551,11.8679 1.5767,15.5696 1.305,19.4856 0.9809,23.5229 0.6096,26.9965 0.5871,30.1908 0.686,31.9548 A2.0523,2.0523 0 0 1 -3.3339,32.7837 T-3.4339,30.4043 -3.3614,26.5166 -2.8817,23.1358 -2.4166,19.157 -2.0166,15.3475 -1.7551,11.8663 -1.7208,8.3776 -1.707,5.0859 -1.7233,1.7525 -1.7382,0 A1.7382,1.7382 0 0 1 1.7382,0 ZM-1.2299,30.3192 T-0.9172,30.3417 -0.6044,30.3642 A2.0359,2.0359 0 0 1 -0.791,34.4318 T-1.1045,34.4256 -1.418,34.4194 A2.0523,2.0523 0 0 1 -1.2299,30.3192 ZM-2.5595,31.5741 T-2.1249,30.7262 -1.2124,28.9308 -0.7344,27.9834 A1.8201,1.8201 0 0 1 2.5944,29.4566 T2.2146,30.4475 1.4994,32.3301 1.164,33.2219 A2.0359,2.0359 0 0 1 -2.5595,31.5741 Z" stroke-linecap="round" fill="#40c057"/></g></g><g transform="matrix(1, 0, 0, 1, 1945.6996, 11315.1574) scale(0.926601032570734, 0.926601032570734)" opacity="1"><g transform="scale(1.079213129328844)"><path d="M1.8295,-0.306 T2.0387,1.0111 2.378,3.9817 2.5844,7.3734 2.4926,11.0192 2.2626,14.9046 2.1762,18.5923 2.1437,21.8575 2.1384,24.8886 2.2833,28.4589 2.6259,31.7676 2.8264,32.9817 A1.9338,1.9338 0 0 1 -0.9664,33.7383 T-1.2471,32.5401 -1.8022,28.8326 -2.0449,24.8316 -1.9663,21.7597 -1.8395,18.4343 -1.6237,14.6066 -1.2803,10.8821 -1.1188,7.5732 -1.2664,4.4189 -1.5988,1.6188 -1.8295,0.306 A1.8549,1.8549 0 0 1 1.8295,-0.306 Z" stroke-linecap="round" fill="#40c057"/></g></g><g transform="matrix(1, 0, 0, 1, 1955.8922, 11340.1756) scale(0.926601032570734, 0.926601032570734)" opacity="1"><g transform="scale(1.079213129328844)"><path d="M0.5367,1.6042 T-0.0856,1.812 -1.7823,4.0868 -1.8076,4.3857 -0.7585,2.6175 A1.6963,1.6963 0 0 1 2.6185,2.9425 T2.5654,3.8402 2.2315,6.6075 0.5856,9.9167 -2.8773,11.1205 -5.8714,8.8158 -5.9007,4.6735 -3.4779,0.7301 -1.2293,-1.3721 -0.5367,-1.6042 A1.6916,1.6916 0 0 1 0.5367,1.6042 Z" stroke-linecap="round" fill="#40c057"/></g></g><g transform="matrix(1, 0, 0, 1, 1962.3784, 11338.3224) scale(0.926601032570734, 0.926601032570734)" opacity="1"><g transform="scale(1.079213129328844)"><path d="M1.8704,0.93 T1.8873,2.025 1.7029,5.3273 0.7766,10.2216 0.0515,12.9086 A2.0864,2.0864 0 0 1 -3.7515,11.1914 T-3.0665,8.9267 -2.1428,4.891 -1.8873,2.025 -1.8704,0.93 A1.8704,1.8704 0 0 1 1.8704,0.93 ZM-3.7345,11.1546 T-3.2996,10.2522 -1.544,7.2692 1.1944,3.5546 4.8635,0.8829 7.115,-0.1548 A1.9301,1.9301 0 0 1 8.0327,3.5948 T7.3398,3.705 5.4014,4.8007 3.0667,7.3889 1.3335,10.2664 0.362,12.2433 0.0345,12.9454 A2.0864,2.0864 0 0 1 -3.7345,11.1546 ZM9.3751,1.0265 T9.5632,1.5007 9.9908,3.7393 10.0179,7.1231 9.8054,8.7424 A2.0643,2.0643 0 0 1 5.9325,7.3121 T6.0929,7.1236 6.1872,5.1415 5.9469,2.8806 5.7726,2.4135 A1.9301,1.9301 0 0 1 9.3751,1.0265 ZM6.2124,9.259 T6.1026,9.114 5.9928,8.9689 A2.0674,2.0674 0 0 1 9.3109,6.5017 T9.4182,6.6486 9.5255,6.7955 A2.0643,2.0643 0 0 1 6.2124,9.259 ZM5.6807,7.1117 T5.855,6.5926 6.8158,4.7274 9.1437,2.0854 12.4222,0.6962 14.1593,0.603 A1.94,1.94 0 0 1 13.1887,4.3596 T12.4292,4.364 10.7976,5.8538 9.7743,7.8491 9.623,8.3588 A2.0674,2.0674 0 0 1 5.6807,7.1117 ZM15.3825,1.5622 T15.6637,2.0671 16.8065,5.039 18.1205,9.0283 18.5728,10.5507 A1.9766,1.9766 0 0 1 14.7872,11.6893 T14.3247,10.1699 13.1794,6.5369 12.2311,3.9118 11.9655,3.4005 A1.94,1.94 0 0 1 15.3825,1.5622 Z" stroke-linecap="round" fill="#40c057"/></g></g></svg>