<svg xmlns="http://www.w3.org/2000/svg" direction="ltr" width="545.5186790549801" height="566.6437570601665" viewBox="2159.113144635262 29241.87376950334 545.5186790549801 566.6437570601665" stroke-linecap="round" stroke-linejoin="round" data-color-mode="dark" class="tl-container tl-theme__force-sRGB tl-theme__dark" style="background-color: transparent;"><defs/><g transform="matrix(1, 0, 0, 1, 2191.1131, 29590.6114) scale(0.2503887994196496, 0.2503887994196496)" opacity="1"><g transform="scale(3.9937888688223953)"><path d="M0.2478,-1.2432 T1.6469,-0.9603 5.2313,-0.4581 9.569,-0.1791 13.7668,-0.1043 17.6615,-0.0878 21.8667,-0.0883 26.7323,-0.097 30.7315,-0.1068 33.5674,-0.1119 36.3197,0.1783 40.062,0.674 44.9193,1.23 48.8196,1.7208 52.7474,1.9783 57.7084,2.129 61.5912,2.1656 65.512,1.9104 70.7977,1.4107 74.9944,1.1294 78.8713,1.0516 83.7935,1.0022 87.6717,0.9852 91.739,0.9776 96.7646,0.9716 100.6687,0.9687 103.4908,0.9672 107.3361,0.9612 112.243,0.9503 115.9995,1.2388 119.602,1.7348 124.1917,1.9897 128.8833,2.054 133.6143,2.0661 138.3626,2.065 143.1097,2.0621 146.833,2.3584 150.6966,2.8604 155.7744,3.1207 160.7597,3.19 165.5791,3.2058 170.3519,3.2075 174.191,3.2064 178.2474,3.2047 183.2682,3.2031 188.0802,3.2018 192.8353,3.2009 197.5904,3.2003 202.3454,3.1998 207.0847,3.1995 211.8173,3.1992 216.5492,3.199 221.281,3.1989 225.1207,3.1988 227.9323,3.1988 231.7588,3.1987 236.9276,3.1987 240.9482,3.1991 243.7157,3.4987 246.558,3.9317 250.5483,4.1791 254.6291,4.3116 257.4922,4.3401 261.633,4.3561 265.7729,4.3632 268.6859,4.3642 271.7734,4.6584 275.9917,5.1619 280.023,5.4113 284.1469,5.4832 288.2859,5.521 292.151,5.5316 296.0059,5.271 298.7558,4.8503 302.7112,4.5727 307.6869,4.4172 312.4899,4.3747 316.8236,4.363 320.85,4.1007 325.3928,3.5935 329.8283,3.2816 334.0511,3.1994 338.3641,3.1769 342.5518,3.1706 346.7172,3.1689 351.3096,3.1684 355.3655,3.1683 358.2127,3.1683 361.9143,3.1682 366.3484,3.1661 370.5701,3.1607 374.7328,3.155 378.7652,3.1509 383.3195,3.1474 387.3541,3.1458 391.2368,2.7223 394.965,2.2179 397.8503,2.0948 400.7708,2.0305 404.6594,1.9908 408.8917,1.9649 412.7807,1.9549 416.5933,1.5308 419.7888,0.9811 423.5068,0.8178 428.5323,0.7714 432.7675,0.7585 436.4873,0.4927 440.9449,-0.0158 445.0737,-0.3261 449.3546,-0.4067 453.5795,-0.8502 457.0518,-1.623 460.5323,-2.2803 464.6271,-2.6698 468.8096,-2.4125 473.0993,-1.8016 475.3279,-1.5246 A1.5361,1.5361 0 0 1 474.9521,1.5246 T473.6533,1.3833 470.9616,1.0538 468.1959,0.681 464.8454,0.5631 461.3235,0.8325 457.8529,1.4883 453.8111,2.3752 449.4358,2.8286 445.2342,2.909 441.422,3.1784 436.8464,3.6891 432.7728,3.9922 428.5556,4.001 423.6212,4.0386 420.1248,4.178 416.8678,4.7182 412.8171,5.1498 408.9028,5.1522 404.6922,5.1705 400.8385,5.2085 396.7235,5.3431 391.4154,5.8854 387.3671,6.3142 383.3195,6.3126 378.7652,6.3091 374.7328,6.305 370.5701,6.2993 366.3484,6.2939 361.9143,6.2918 358.2128,6.2918 355.3656,6.2918 351.3099,6.292 346.7181,6.2924 342.5554,6.2941 338.3753,6.3003 334.0922,6.3225 329.965,6.4011 325.8682,6.6685 322.3398,7.1779 318.8502,7.4832 314.598,7.4899 310.1337,7.5117 305.3584,7.5896 300.4424,7.8622 296.2949,8.3652 292.147,8.6514 288.2674,8.6403 284.0885,8.6003 279.8965,8.5245 276.9546,8.4004 272.809,7.8949 268.677,7.4701 265.7677,7.4659 261.6168,7.4513 257.4572,7.426 253.2651,7.3437 249.0563,7.1941 246.0767,6.9507 242.0437,6.5246 236.9276,6.2613 231.7588,6.2613 227.9323,6.2612 225.1207,6.2612 221.281,6.2611 216.5492,6.261 211.8173,6.2608 207.0847,6.2605 202.3454,6.2602 197.5904,6.2597 192.8353,6.2591 188.0802,6.2581 183.2681,6.2567 178.2471,6.2546 173.0031,6.2508 167.9655,6.2436 163.1639,6.2267 158.2476,6.1767 154.3997,6.0944 150.2761,5.8048 145.3038,5.2987 140.7344,5.0341 135.977,5.0248 131.2217,5.0047 126.466,4.9505 121.6495,4.7803 116.9262,4.2227 112.2344,3.7897 107.3362,3.7789 103.4909,3.7731 100.6689,3.7718 96.7652,3.7697 91.7411,3.7671 86.4822,3.7666 81.3902,3.7796 76.3677,3.8519 71.1612,4.1187 67.1412,4.6173 64.3915,4.905 60.3615,4.879 55.1572,4.7847 51.2757,4.6233 47.2915,4.0703 42.2085,3.4734 37.3225,2.907 33.5606,2.4716 30.7313,2.4663 26.7318,2.4556 22.8582,2.446 19.6775,2.4383 15.9346,2.4198 11.7061,2.3728 7.3271,2.2185 3.9025,1.9459 1.1532,1.5184 -0.2478,1.2432 A1.2676,1.2676 0 0 1 0.2478,-1.2432 Z" stroke-linecap="round" fill="#f2f2f2"/></g></g><g transform="matrix(1, 0, 0, 1, 2432.8211, 29276.628) scale(0.2503887994196496, 0.2503887994196496)" opacity="1"><g transform="scale(3.9937888688223953)"><path d="M0,-1.201 T0.2791,-1.2003 0.5581,-1.1996 A1.1996,1.1996 0 0 1 0.5581,1.1996 T0.2791,1.2003 0,1.201 A1.201,1.201 0 0 1 0,-1.201 ZM-0.5263,0.5129 T-0.6571,0.2333 -0.9336,-0.3579 -1.0794,-0.6694 A1.1941,1.1941 0 0 1 1.0794,-1.6906 T1.2278,-1.3802 1.5094,-0.7914 1.6426,-0.5129 A1.1996,1.1996 0 0 1 -0.5263,0.5129 Z" stroke-linecap="round" fill="#f2f2f2"/></g></g><g transform="matrix(1, 0, 0, 1, 2431.6362, 29275.4432) scale(0.2503887994196496, 0.2503887994196496)" opacity="1"><g transform="scale(3.9937888688223953)"><path d="M1.2379,0.7423 T0.3924,2.139 -1.8403,5.6475 -4.5246,9.4384 -6.6458,12.2786 -8.5247,14.8149 -10.7291,17.4208 -12.9811,20.0257 -15.3197,22.8878 -17.6696,25.8226 -19.9499,28.96 -22.2912,32.402 -24.6279,36.3202 -26.7879,39.5353 -29.0755,42.5699 -31.9341,46.9334 -34.179,50.6495 -35.8679,53.4098 -37.6018,56.2703 -39.3534,59.1751 -41.1477,61.8813 -42.6041,64.3381 -44.2871,66.8537 -46.0082,69.2975 -47.7084,71.9206 -49.7852,74.8021 -51.6968,77.4213 -53.5056,80.1443 -55.2704,83.1969 -57.0761,86.2617 -58.8959,89.0502 -60.6591,91.8665 -62.7688,94.8406 -64.6967,97.4951 -66.5079,100.2371 -68.3025,103.0778 -70.1287,105.7652 -72.2415,108.6242 -74.1449,111.4391 -75.985,114.3253 -78.1332,117.3335 -80.4308,120.0921 -82.7139,122.8821 -84.6594,125.8918 -86.5694,128.9373 -88.7467,132.021 -91.016,135.0538 -93.328,138.0622 -95.6682,141.0483 -98.0193,144.0195 -100.334,147.2089 -103.0202,150.6381 -105.8452,154.1262 -108.4014,157.5776 -110.8675,161.0739 -113.3231,164.3759 -115.7401,167.5227 -118.1395,170.5814 -120.52,173.5923 -122.8914,176.5795 -125.2585,179.5533 -127.5874,182.7433 -129.98,185.8749 -132.4168,188.7018 -134.8378,191.315 -137.2351,193.8091 -139.565,196.4672 -141.9122,199.273 -143.9801,201.853 -145.9147,204.3355 -148.1218,206.8391 -150.4053,209.2714 -152.3831,211.5919 -154.2683,213.9381 -156.519,216.159 -159.1566,219.1318 -161.671,222.1103 -164.4424,225.1657 -167.599,229.0317 -170.0965,231.7802 -172.5278,234.4354 -174.8566,237.1544 -177.5442,239.9459 -180.6973,243.4195 -183.1477,246.0281 -185.9312,248.732 -189.0161,252.41 -191.3983,255.286 -193.8265,258.0338 -196.7993,261.4836 -199.8217,264.6336 -203.2968,267.8661 -206.7724,271.2911 -209.5067,274.3076 -212.1231,277.4203 -214.5582,280.4239 -216.7865,283.2396 -219.1085,286.1518 -221.0147,288.66 -223.3112,291.7465 -225.8533,294.6438 -227.7888,297.1342 -229.9543,299.7553 -231.8365,302.1248 -233.5431,305.5349 -235.095,308.7872 -235.6501,309.894 A1.482,1.482 0 0 1 -238.3099,308.586 T-237.2929,306.4732 -235.515,302.8332 -234.0266,300.0424 -231.9413,297.1557 -229.2342,294.2017 -226.8605,291.7686 -224.9954,289.3634 -223.3444,286.7694 -221.3939,284.2184 -219.0616,281.3003 -216.8496,278.5102 -214.9993,276.1074 -212.9377,273.5729 -210.3534,270.856 -207.0842,267.6413 -203.5739,264.2813 -200.3368,260.9955 -197.3978,257.8371 -194.4356,254.5433 -192.0354,251.5874 -189.5531,248.6833 -186.1326,245.1627 -182.9102,241.5516 -179.6466,237.9256 -176.3753,234.4277 -173.1454,230.9166 -169.9287,227.1925 -167.4391,224.1781 -164.802,221.2711 -162.3334,218.2631 -159.5892,215.1382 -156.6343,212.0388 -154.7075,209.6343 -152.6379,207.1855 -150.4276,204.8133 -148.3529,202.4455 -146.408,199.9295 -144.3006,197.2791 -141.9115,194.4054 -139.4993,191.6359 -137.1435,189.18 -134.7998,186.6459 -132.4855,183.9597 -130.144,180.8756 -127.7353,177.5755 -125.3667,174.6067 -122.9974,171.6308 -120.6276,168.6311 -118.2585,165.5889 -115.8725,162.4723 -113.4685,159.2385 -110.9585,155.6823 -108.318,152.124 -105.5273,148.6834 -102.9069,145.3375 -100.5103,142.0433 -98.167,139.0844 -95.8448,136.1223 -93.5551,133.1481 -91.3376,130.187 -89.2555,127.2465 -87.3283,124.1652 -85.1791,120.8625 -82.8785,118.0471 -80.7238,115.4736 -78.6689,112.6092 -76.7787,109.6654 -74.7901,106.7313 -72.7487,103.9857 -70.9823,101.3874 -69.1462,98.4886 -67.2542,95.644 -65.3327,93.0113 -63.324,90.1979 -61.5268,87.3368 -59.7768,84.6655 -57.9949,81.6244 -56.1384,78.3956 -54.253,75.5627 -52.3411,72.953 -50.3487,70.2024 -48.5728,67.4879 -46.8842,65.1168 -45.2833,62.7414 -43.7397,60.1624 -42.0043,57.5676 -40.2446,54.6589 -38.5018,51.7924 -36.7799,48.9988 -35.1235,46.3692 -33.6434,44.1361 -32.2903,41.8088 -30.0193,38.8446 -27.2479,34.815 -24.8521,30.8302 -22.4633,27.3494 -20.0133,24.025 -17.6324,21.0897 -15.238,18.2022 -12.8789,15.4838 -10.9119,13.2334 -9.03,10.7146 -6.8418,7.7843 -4.2844,4.1747 -2.0716,0.6611 -1.2379,-0.7423 A1.4434,1.4434 0 0 1 1.2379,0.7423 Z" stroke-linecap="round" fill="#f2f2f2"/></g></g><g transform="matrix(1, 0, 0, 1, 2435.1907, 29275.4432) scale(0.2503887994196496, 0.2503887994196496)" opacity="1"><g transform="scale(3.9937888688223953)"><path d="M1.2361,-0.8252 T1.7874,0.0202 3.4329,2.1839 5.3151,4.7939 6.7534,7.305 8.0678,10.0929 9.7111,13.4095 11.4113,16.5232 13.0241,19.3782 14.8578,22.3917 16.8301,25.493 18.5981,28.3849 20.0364,31.3038 21.5087,34.3609 23.4531,37.6286 26.0456,41.4145 28.539,44.6941 30.8539,47.6143 33.2904,50.9514 35.8965,54.7826 38.0913,58.0971 39.7708,60.3938 41.4985,62.7209 43.2495,65.0653 45.2225,67.3171 47.1914,69.7205 49.127,72.4681 51.1952,75.2361 53.3522,77.7444 55.6612,80.5311 58.0024,83.3994 60.3014,85.9598 62.6283,88.4243 64.8939,90.4848 67.0169,92.4929 69.1193,95.0968 71.2639,97.7791 73.4556,100.2372 75.74,102.6634 78.1356,105.4205 80.3127,108.3674 82.2917,111.3152 84.3852,114.1727 86.5584,116.7356 88.6557,119.6492 90.6479,122.9229 92.704,125.8866 94.9061,128.8532 97.1836,131.83 99.503,134.8092 101.63,137.8698 103.5864,140.8796 105.6779,143.7664 107.9168,146.6868 110.2215,149.6303 112.3374,152.6729 114.3378,156.0124 116.4476,159.356 118.6429,162.4689 120.875,165.1774 122.9978,168.1586 124.962,171.1181 127.0581,173.9781 129.3301,177.2313 131.6033,180.2799 133.7081,183.377 135.6667,186.3959 137.7167,188.9449 139.7543,191.8612 141.6717,194.8065 143.6753,197.3189 145.896,200.1161 148.1859,202.9953 150.5089,205.9123 152.8511,208.8485 154.9454,211.5388 156.8876,214.0693 158.9535,216.4247 160.9644,218.884 162.6693,221.4056 164.3297,223.7585 166.046,226.1254 167.5995,228.6057 168.983,231.0334 171.2413,234.0843 174.0989,237.3998 176.6111,240.626 179.0088,243.653 181.4304,246.5405 183.7247,250.0826 185.562,253.2149 187.3209,255.8638 189.5812,258.8801 191.9148,261.8548 194.1604,265.0623 196.5367,268.126 198.3817,270.5726 200.35,273.2233 202.6467,275.9052 204.9221,278.2677 207.0129,280.6613 208.75,283.2622 210.8701,285.6412 212.9323,287.8662 214.9674,290.2833 217.1781,292.5626 219.3294,294.7647 221.6587,297.0891 223.6865,299.5376 225.4224,302.1708 227.6158,305.0438 230.047,307.7428 232.3553,310.2384 234.094,312.0497 234.6562,312.554 A1.8731,1.8731 0 0 1 232.2038,315.386 T231.1782,314.5263 229.2531,312.6511 227.1797,310.46 224.8583,307.9997 222.5246,304.9582 220.0958,301.525 217.6929,298.663 215.4092,296.2971 213.29,293.7581 210.9739,290.9556 208.473,288.6123 206.0861,285.9513 203.6612,282.6097 201.1317,279.8749 198.7778,277.3523 196.5928,274.2592 194.2554,271.2444 191.8484,268.1724 189.3941,264.688 187.0168,261.6955 185.2072,259.2239 183.3682,256.5693 181.5207,253.4632 179.7192,250.2798 177.3866,247.4363 174.8911,244.5835 172.4156,241.4553 169.8484,238.0892 166.7832,234.0143 164.4141,230.5855 163.0091,228.3098 160.5794,224.7607 158.0846,221.2167 156.1634,218.857 153.9541,216.3135 152.0295,213.7933 149.9726,211.1541 147.6239,208.2228 145.2913,205.3104 142.9923,202.4416 140.7507,199.6451 138.5323,196.8477 136.6926,193.9988 134.7873,191.2696 132.5417,188.4196 130.6395,185.4479 128.6403,182.482 126.3125,179.3304 124.0991,176.1318 121.9296,173.1218 120.0537,170.2474 118.0761,167.4627 115.7049,164.5439 113.4105,161.2688 111.2554,157.8403 109.4082,154.7021 107.4094,151.8255 105.0928,148.8505 102.8077,145.8538 100.6051,142.8169 98.7034,139.8909 96.696,137.0014 94.3562,134.0037 92.0382,130.9882 89.7654,127.9336 87.5756,124.7763 85.7565,121.7396 83.8078,119.0516 81.4899,116.2986 79.3068,113.3143 77.416,110.4816 75.4365,107.7732 73.1309,105.1124 70.7849,102.6075 68.4804,99.9987 65.5702,96.3771 62.5334,93.086 60.0755,90.8301 57.6937,88.2904 55.3033,85.6004 52.9914,82.7513 50.7164,80.0023 48.4204,77.3111 46.2931,74.4579 44.5131,71.8975 42.6176,69.578 39.7583,66.0026 36.311,61.311 33.1012,56.7209 30.4266,52.7745 28.1598,49.6404 25.8409,46.6658 23.6165,43.6937 21.4177,40.4089 19.5606,37.2562 17.9356,34.1534 16.3453,31.1525 14.94,28.6164 13.1341,25.3721 11.0374,22.0017 9.3082,19.2445 7.8496,16.4389 6.1639,12.9644 4.516,9.3735 3.0513,6.5726 1.1217,3.9408 -0.6664,1.6589 -1.2361,0.8252 A1.4862,1.4862 0 0 1 1.2361,-0.8252 Z" stroke-linecap="round" fill="#f2f2f2"/></g></g><g transform="matrix(1, 0, 0, 1, 2432.8211, 29282.5523) scale(0.2503887994196496, 0.2503887994196496)" opacity="1"><g transform="scale(3.9937888688223953)"><path d="M1.2963,0 T1.2946,1.4062 0.8607,5.0032 0.317,9.4277 0.1863,13.1083 0.1475,17.1415 -0.1714,21.0918 -0.6817,24.7513 -0.932,28.4907 -1.0029,32.5179 -1.04,36.6022 -1.0454,39.4554 -1.0389,43.3264 -1.025,48.2528 -1.0097,53.0386 -0.998,56.8814 -0.9891,60.9388 -0.9818,65.0353 -0.9779,67.8921 -0.974,71.7585 -0.9701,76.6843 -0.9678,80.5686 -0.9664,83.6556 -0.9653,86.6801 -0.9645,89.6718 -0.9637,92.6485 -0.963,96.8568 -0.9624,101.0328 -0.957,105.2009 -0.9498,109.3675 -0.9462,112.2847 -0.9431,115.2198 -0.9407,118.1643 -0.9387,121.1162 -0.9371,124.0719 -0.9357,127.0272 -0.9378,129.9824 -0.9425,133.2308 -0.9462,136.3522 -0.949,139.3949 -0.9512,142.3985 -0.953,145.3815 -0.9545,148.3512 -0.9611,152.556 -0.9691,156.7302 -0.9732,159.6462 -0.9767,162.5829 -0.9794,165.5425 -0.9817,168.5118 -0.984,172.4349 -0.9814,177.6607 -0.9761,181.6938 -0.9733,184.5773 -0.9682,187.4946 -0.9644,190.4349 -1.254,193.5225 -1.7565,197.0706 -2.0303,201.3567 -2.1088,206.2331 -2.1295,210.4558 -2.1321,213.4693 -2.4248,216.3231 -2.9261,220.1265 -3.1937,224.4291 -3.269,228.6267 -3.2883,233.4955 -3.2924,238.6942 -3.2907,243.7016 -3.5934,248.2694 -4.102,252.9473 -4.3679,257.6469 -4.4476,261.9679 -4.4702,266.4326 -4.4768,271.0921 -4.4787,275.3764 -4.4766,278.6929 -4.7642,282.6042 -5.264,287.1387 -5.5309,290.9802 -5.5994,294.6052 -5.6104,297.8961 -5.6083,301.0926 -5.6107,304.5415 -5.649,308.3449 -5.7095,311.5926 -5.736,312.79 A1.364,1.364 0 0 1 -8.464,312.79 T-8.4904,311.5925 -8.5506,308.3446 -8.588,304.5404 -8.587,301.0882 -8.5726,297.8837 -8.5393,294.5651 -8.4484,290.8465 -8.1414,286.7466 -7.6337,282.3146 -7.3629,277.6599 -7.3595,273.1638 -7.3565,268.7463 -7.3451,264.1406 -7.3029,259.8625 -7.1471,255.2573 -6.8559,251.1633 -6.4291,247.8955 -6.168,243.701 -6.1628,238.692 -6.1583,234.6538 -6.1456,230.8797 -6.0998,226.3643 -5.9394,221.982 -5.3877,217.3284 -4.9571,213.4583 -4.9501,210.4472 -4.9412,207.3781 -4.9023,203.5705 -4.7445,198.9141 -4.1977,194.2975 -3.7756,190.4294 -3.7718,187.4946 -3.7667,184.5773 -3.7639,181.6938 -3.7586,177.6607 -3.756,172.4349 -3.7583,168.5118 -3.7606,165.5425 -3.7633,162.5829 -3.7668,159.6462 -3.7709,156.7302 -3.7789,152.556 -3.7855,148.3512 -3.787,145.3815 -3.7888,142.3985 -3.791,139.3949 -3.7938,136.3522 -3.7975,133.2308 -3.8022,129.9824 -3.8043,127.0272 -3.8029,124.0719 -3.8013,121.1162 -3.7993,118.1643 -3.7969,115.2198 -3.7938,112.2847 -3.7902,109.3675 -3.783,105.2009 -3.7776,101.0328 -3.777,96.8568 -3.7763,92.6485 -3.7755,89.6718 -3.7747,86.6801 -3.7736,83.6556 -3.7722,80.5686 -3.7698,76.6843 -3.766,71.7585 -3.762,67.8921 -3.7581,65.0353 -3.7508,60.9388 -3.7417,56.8813 -3.7296,53.0382 -3.7124,48.2516 -3.6919,43.3223 -3.6739,39.4469 -3.6483,35.3188 -3.6061,31.2028 -3.4553,27.1368 -2.8943,22.057 -2.4462,17.109 -2.4073,13.0436 -2.2583,9.2101 -1.713,4.819 -1.2946,1.394 -1.2963,0 A1.2963,1.2963 0 0 1 1.2963,0 Z" stroke-linecap="round" fill="#9398b0"/></g></g><g transform="matrix(1, 0, 0, 1, 2425.712, 29564.5448) scale(0.2503887994196496, 0.2503887994196496)" opacity="1"><g transform="scale(3.9937888688223953)"><path d="M0.4098,-1.6429 T1.5332,-1.3659 4.5207,-0.4481 8.0874,0.7107 12.1068,1.7346 16.375,2.5127 20.1963,2.6584 23.3102,2.298 24.5543,2.0641 A1.5233,1.5233 0 0 1 25.2257,5.0359 T24.0019,5.3595 21.4563,5.9993 18.0816,6.1588 13.633,5.4311 9.7893,4.6042 6.9917,3.9445 3.7301,2.873 0.7041,1.9241 -0.4098,1.6429 A1.6932,1.6932 0 0 1 0.4098,-1.6429 Z" stroke-linecap="round" fill="#9398b0"/></g></g><g transform="matrix(1, 0, 0, 1, 2449.4088, 29569.2842) scale(0.2503887994196496, 0.2503887994196496)" opacity="1"><g transform="scale(3.9937888688223953)"><path d="M1.5424,0 T1.5306,1.4001 1.5148,4.9111 1.2108,9.093 0.7221,12.8338 0.4727,16.6811 0.0839,20.1822 -0.5818,22.7916 -0.9196,24.0772 A1.4962,1.4962 0 0 1 -3.8204,23.3428 T-3.2482,21.0621 -2.612,16.523 -2.2876,12.3091 -1.7689,8.6878 -1.5148,4.9111 -1.5306,1.4001 -1.5424,0 A1.5424,1.5424 0 0 1 1.5424,0 Z" stroke-linecap="round" fill="#9398b0"/></g></g><g transform="matrix(1, 0, 0, 1, 2571.6716, 29386.741) scale(1.0414700600473332, 1.0414700600473332)" opacity="1"><g transform="scale(0.9601812268655631)"><path d="M0.9794,1.6354 T-0.2548,2.3696 -2.9927,4.2452 -5.6208,6.4001 -7.0205,9.2269 -6.209,12.0343 -4.0364,14.0892 -1.2886,16.6595 0.7613,20.1204 -0.3794,23.6326 -3.6039,25.5139 -7.0376,25.8971 -10.472,25.3645 -13.675,24.177 -15.1814,23.5848 A1.8172,1.8172 0 0 1 -13.9786,20.1552 T-11.3892,20.9991 -7.2515,21.779 -4.4368,20.7688 -4.4192,18.8592 -6.7336,16.8293 -9.1678,14.2927 -10.7132,10.9699 -10.1614,6.9447 -8.1586,3.6066 -5.1621,1.1442 -2.2096,-0.8938 -0.9794,-1.6354 A1.9062,1.9062 0 0 1 0.9794,1.6354 Z" stroke-linecap="round" fill="#ffc034"/></g></g><g transform="matrix(1, 0, 0, 1, 2321.7188, 29366.953) scale(1.0414700600473332, 1.0414700600473332)" opacity="1"><g transform="scale(0.9601812268655631)"><path d="M1.1092,1.4825 T0.1148,2.2253 -3.0887,3.9098 -6.994,5.7656 -9.6848,8.0625 -10.0528,11.1344 -7.9325,13.949 -5.2406,16.1563 -3.3305,18.7944 -3.2459,22.1378 -5.3439,24.9213 -9.27,26.3704 -14.0132,26.9102 -18.6112,25.9507 -21.9374,24.2012 -22.9537,23.4984 A1.956,1.956 0 0 1 -20.7863,20.2416 T-18.5728,21.5546 -14.2305,22.7792 -10.4223,22.5112 -8.2653,20.6668 -8.9007,18.0019 -11.8555,15.6938 -14.324,12.5773 -14.3484,9.0875 -12.2226,5.4959 -8.7464,2.527 -4.9295,0.726 -2.0872,-0.7495 -1.1092,-1.4825 A1.8515,1.8515 0 0 1 1.1092,1.4825 Z" stroke-linecap="round" fill="#ffc034"/></g></g><g transform="matrix(1, 0, 0, 1, 2437.3219, 29428.3998) scale(1.0414700600473332, 1.0414700600473332)" opacity="1"><g transform="scale(0.9601812268655631)"><path d="M1.5373,-0.7668 T2.0251,0.2259 2.9809,3.2399 3.5681,6.9872 3.717,10.3264 3.7565,13.5147 3.7727,16.6575 3.7848,20.047 3.2357,23.7044 2.6807,25.5401 A1.7273,1.7273 0 0 1 -0.6007,24.4599 T-0.1162,23.1378 0.3728,20.0225 0.379,16.6666 0.3735,13.547 0.335,10.4406 0.2029,7.3688 -0.2215,4.2864 -1.0413,1.7465 -1.5373,0.7668 A1.7179,1.7179 0 0 1 1.5373,-0.7668 ZM-0.4911,24.2004 T-0.2183,23.6824 0.8845,21.8731 3.2183,19.0934 6.7017,17.8556 9.252,19.7389 10.1299,22.963 11.7862,25.5037 13.1351,26.453 A1.7155,1.7155 0 0 1 13.9449,29.787 T11.8978,30.0866 8.4709,27.9698 6.302,23.3808 4.3413,22.9265 2.8704,25.2221 2.5711,25.7996 A1.7273,1.7273 0 0 1 -0.4911,24.2004 Z" stroke-linecap="round" fill="#4dabf7"/></g></g><g transform="matrix(1, 0, 0, 1, 2425.8658, 29591.9106) scale(1.0414700600473332, 1.0414700600473332)" opacity="1"><g transform="scale(0.9601812268655631)"><path d="M2.6138,0 T2.6076,1.2322 2.597,4.453 2.8111,8.1791 4.1808,11.6243 6.861,14.3787 10.1668,15.9475 13.3993,16.7133 16.7501,17.326 20.2896,17.8733 24.2815,18.1108 28.7889,18.1789 33.0518,18.1849 37.6204,18.1765 42.2754,18.1668 46.5766,18.1595 50.7794,18.1538 55.144,18.4134 59.3674,18.8488 63.3665,19.0726 67.8113,19.5148 72.4304,20.0066 76.7724,20.1319 81.9149,20.5296 87.4863,20.9942 92.6435,21.3683 97.3593,22.2393 101.4147,23.7056 104.7208,25.6428 107.2092,27.7555 109.3207,30.0664 110.983,32.7991 111.8677,35.9326 111.7828,39.3129 110.9055,41.6713 110.3155,42.3082 A1.8052,1.8052 0 0 1 107.9462,39.584 T108.0928,39.5801 108.3112,37.9588 107.7696,34.6812 105.9964,31.7005 103.2152,29.0165 100.131,26.9623 96.6279,25.6897 92.258,24.8388 87.2975,24.4485 81.7573,23.932 76.6941,23.5015 72.1994,23.3493 67.5977,22.8424 63.2186,22.3929 58.8806,22.1109 54.7657,21.6585 50.7793,21.4261 46.5763,21.4202 42.2746,21.4119 37.6173,21.3989 33.0406,21.3784 28.7513,21.341 24.1285,21.2528 19.6315,20.9274 16.0398,20.3816 12.6723,19.763 8.902,18.8091 5.4846,17.3287 2.9562,15.2355 0.9697,12.34 -0.2391,8.559 -0.517,4.453 -0.5276,1.2322 -0.5338,0 A1.5738,1.5738 0 0 1 2.6138,0 ZM108.4643,42.6237 T108.2704,42.546 108.0765,42.4684 A1.804,1.804 0 0 1 109.4086,39.1153 T109.603,39.1919 109.7973,39.2685 A1.8052,1.8052 0 0 1 108.4643,42.6237 ZM106.9707,41.1307 T106.8698,40.5952 106.6694,37.9326 106.9463,34.2733 108.2016,31.1086 110.2168,28.3283 113.1065,26.436 116.7676,25.5393 120.3132,25.3447 123.6703,25.2855 127.5055,25.6437 131.8217,26.1074 135.8876,26.6043 140.0179,27.1133 144.8391,27.5084 149.5807,27.9904 153.7359,28.2311 157.8899,28.298 162.1846,28.3146 166.3852,28.3175 170.7751,28.588 175.3733,29.0322 179.8218,29.2611 184.4478,29.3347 189.1153,29.3598 193.6674,29.3692 198.3126,29.3786 202.63,29.0195 206.6361,28.3316 210.6612,27.5483 214.3779,26.5973 217.8346,25.4425 221.1378,24.3894 224.1942,23.5188 227.6318,22.4893 231.5443,21.4196 235.3062,19.6709 238.6227,16.9506 241.3015,14.0009 243.4497,11.01 244.6898,7.99 243.6455,4.28 242.4047,2.0548 A1.6455,1.6455 0 0 1 244.9953,0.0252 T246.4734,1.8447 248.1875,5.9337 247.6762,10.2747 245.8158,13.9557 243.7303,16.8259 241.6631,19.1368 239.3308,21.2554 236.4135,23.3408 232.7395,24.8727 229.0136,25.8692 225.6783,26.8611 221.7136,28.0179 217.2963,29.4802 213.3389,30.8038 209.2785,31.7521 205.1478,32.373 200.7775,32.827 195.9042,33.1037 191.2851,33.1067 186.8383,33.101 182.1294,33.0699 177.3773,32.935 172.789,32.4531 168.4658,32.0796 164.2831,32.0749 160.0341,32.061 155.5608,32.0172 151.2162,31.8668 146.7842,31.362 142.0992,30.914 137.4414,30.5954 133.3311,30.0725 129.4385,29.5861 125.5847,29.1352 122.0867,28.9144 118.6797,28.9752 115.5538,29.2116 112.661,30.9218 110.7085,34.144 110.212,37.6118 110.4107,39.9186 110.5144,40.453 A1.804,1.804 0 0 1 106.9707,41.1307 Z" stroke-linecap="round" fill="#40c057"/></g></g><g transform="matrix(1, 0, 0, 1, 2540.4275, 29651.2743) scale(1.0414700600473332, 1.0414700600473332)" opacity="1"><g transform="scale(0.9601812268655631)"><path d="M1.4028,0.8401 T0.663,2.0776 -1.3197,4.6105 -4.3343,7.7019 -7.9155,10.9303 -11.6543,13.887 -14.6735,16.1492 -15.7631,16.8872 A1.5524,1.5524 0 0 1 -17.5569,14.3528 T-15.6341,12.9329 -11.9885,9.9911 -8.4293,6.8713 -4.7339,3.4435 -2.1387,0.3867 -1.4028,-0.8401 A1.6351,1.6351 0 0 1 1.4028,0.8401 Z" stroke-linecap="round" fill="#40c057"/></g></g><g transform="matrix(1, 0, 0, 1, 2527.9298, 29653.3573) scale(1.0414700600473332, 1.0414700600473332)" opacity="1"><g transform="scale(0.9601812268655631)"><path d="M2.438,-1.119 T3.4243,0.1135 6.0846,3.5566 9.701,7.825 13.4945,11.948 16.5988,15.2028 17.852,16.3923 A1.7694,1.7694 0 0 1 15.468,19.0077 T14.1679,17.8698 10.8789,14.6113 7.881,11.4086 5.8913,9.2132 3.2625,5.8413 0.6281,2.3509 -0.358,1.119 A1.7907,1.7907 0 0 1 2.438,-1.119 Z" stroke-linecap="round" fill="#40c057"/></g></g><g transform="matrix(1, 0, 0, 1, 2235.7687, 29730.7565) scale(0.9781228438056534, 0.9781228438056534)" opacity="1"><g transform="scale(1.0223664709733469)"><path d="M2.2364,0 T2.2155,1.3883 2.1936,5.0614 2.2118,9.626 1.9994,14.5063 1.3333,19.5893 0.556,23.5097 0.2133,24.9477 A2.2296,2.2296 0 0 1 -4.1333,23.9523 T-3.8161,22.5085 -3.0969,18.6828 -2.4629,14.1032 -2.2118,9.626 -2.1936,5.0614 -2.2155,1.3883 -2.2364,0 A2.2364,2.2364 0 0 1 2.2364,0 Z" stroke-linecap="round" fill="#ffc034"/></g></g><g transform="matrix(1, 0, 0, 1, 2234.7905, 29730.7565) scale(0.9781228438056534, 0.9781228438056534)" opacity="1"><g transform="scale(1.0223664709733469)"><path d="M0.1187,-1.7256 T1.5196,-2.3979 5.2874,-3.8838 9.8113,-4.8623 13.6481,-4.2235 16.5341,-2.4319 18.973,0.7015 20.5685,4.2892 20.4719,8.2637 18.5709,12.0629 15.7748,13.7553 12.2811,14.3702 7.5419,14.5319 4.9419,14.5039 A1.7847,1.7847 0 0 1 4.8381,10.9361 T6.1849,10.8458 9.6208,10.591 13.1936,10.2512 15.7268,9.1051 16.7373,6.3819 15.9289,2.9902 13.7757,0.2361 10.6952,-1.0552 6.7954,-0.4667 3.2169,1.012 1.8413,1.7256 A1.9287,1.9287 0 0 1 0.1187,-1.7256 Z" stroke-linecap="round" fill="#ffc034"/></g></g><g transform="matrix(1, 0, 0, 1, 2259.2436, 29744.4502) scale(0.9781228438056534, 0.9781228438056534)" opacity="1"><g transform="scale(1.0223664709733469)"><path d="M1.4658,-0.5875 T1.9225,0.5721 2.7969,3.6519 4.1775,7.0597 6.7392,9.2048 9.1843,7.933 9.8728,5.4867 9.7152,4.9697 A1.5084,1.5084 0 0 1 12.6419,4.2378 T12.7829,6.28 12.071,10.4002 9.4884,12.7249 6.0609,12.4058 3.0439,10.5598 0.9281,7.6583 -0.1967,4.4655 -0.9954,1.7408 -1.4658,0.5875 A1.5791,1.5791 0 0 1 1.4658,-0.5875 ZM12.0301,5.8488 T11.9303,5.9154 11.8306,5.9819 A1.5057,1.5057 0 0 1 10.1306,3.4963 T10.2288,3.4275 10.327,3.3587 A1.5084,1.5084 0 0 1 12.0301,5.8488 ZM12.4781,4.8956 T12.4232,5.3944 12.8466,7.6356 14.3146,10.6344 16.5362,13.8012 18.8615,17.9434 20.2861,21.6601 20.2601,25.7562 18.6248,30.2391 15.2227,32.8684 10.5183,33.5415 6.6477,32.7994 3.3796,30.2945 0.6844,26.8511 -0.6979,23.7001 -1.3629,22.1454 A1.4996,1.4996 0 0 1 1.3629,20.8946 T2.6561,23.5741 5.5011,27.6421 8.6678,29.6565 12.0613,30.0801 15.1975,28.6831 16.9378,25.6291 16.6682,21.4758 15.0172,17.3504 12.7571,13.8069 10.6704,10.5041 9.6146,7.2475 9.4336,5.0823 9.4831,4.5827 A1.5057,1.5057 0 0 1 12.4781,4.8956 Z" stroke-linecap="round" fill="#ffc034"/></g></g><g transform="matrix(1, 0, 0, 1, 2283.6967, 29722.9315) scale(0.9781228438056534, 0.9781228438056534)" opacity="1"><g transform="scale(1.0223664709733469)"><path d="M2.9245,0.3897 T2.6798,1.5437 2.0561,4.0617 1.2527,6.8343 0.382,9.6766 -0.6155,13.9533 -1.3987,19.3269 -1.1827,23.3238 0.9303,25.2916 3.6765,24.9119 4.758,24.0308 A1.7872,1.7872 0 0 1 6.982,26.8292 T5.2196,28.2084 1.3233,29.564 -2.1334,28.8527 -4.4225,26.2195 -5.4524,21.6284 -5.2898,17.4131 -4.7077,14.4673 -4.0712,11.5139 -3.3375,8.5279 -2.1432,4.5237 -1.1834,0.7692 -0.9645,-0.3897 A1.9832,1.9832 0 0 1 2.9245,0.3897 Z" stroke-linecap="round" fill="#ffc034"/></g></g><g transform="matrix(1, 0, 0, 1, 2285.6529, 29736.6252) scale(0.9781228438056534, 0.9781228438056534)" opacity="1"><g transform="scale(1.0223664709733469)"><path d="M0.2454,2.695 T-1.3711,2.952 -5.8106,3.4796 -8.6337,3.7502 A1.7979,1.7979 0 0 1 -8.9663,0.1698 T-6.2294,-0.0761 -1.8689,-0.5285 -0.2454,-0.735 A1.7325,1.7325 0 0 1 0.2454,2.695 Z" stroke-linecap="round" fill="#ffc034"/></g></g><g transform="matrix(1, 0, 0, 1, 2304.2373, 29733.6908) scale(0.9781228438056534, 0.9781228438056534)" opacity="1"><g transform="scale(1.0223664709733469)"><path d="M 0 0 m -2.5883540932353504, 0 a 2.5883540932353504,2.5883540932353504 0 1,1 5.176708186470701,0 a 2.5883540932353504,2.5883540932353504 0 1,1 -5.176708186470701,0" stroke-linecap="round" fill="#ffc034"/></g></g><g transform="matrix(1, 0, 0, 1, 2301.3029, 29746.4064) scale(0.9781228438056534, 0.9781228438056534)" opacity="1"><g transform="scale(1.0223664709733469)"><path d="M 0 0 m -2.5883540932353504, 0 a 2.5883540932353504,2.5883540932353504 0 1,1 5.176708186470701,0 a 2.5883540932353504,2.5883540932353504 0 1,1 -5.176708186470701,0" stroke-linecap="round" fill="#ffc034"/></g></g><g transform="matrix(1, 0, 0, 1, 2388.3558, 29739.5596) scale(0.9781228438056534, 0.9781228438056534)" opacity="1"><g transform="scale(1.0223664709733469)"><path d="M0.9291,1.2399 T0.0027,1.9309 -2.8744,3.7678 -4.9432,5.5301 -5.0614,6.1465 A1.5225,1.5225 0 0 1 -7.9863,5.2999 T-7.2564,3.8657 -4.6507,1.2906 -1.8521,-0.545 -0.9291,-1.2399 A1.5494,1.5494 0 0 1 0.9291,1.2399 ZM-5.2973,4.8213 T-4.8657,5.4198 -3.1729,7.3364 -0.8618,9.9537 0.6931,12.6558 1.0525,15.8906 -0.7008,19.2125 -4.8543,21.2654 -9.4665,20.9388 -12.9419,18.1156 -14.74,15.2519 -15.1292,14.3223 A1.572,1.572 0 0 1 -12.2508,13.0577 T-11.1302,15.0789 -7.8981,17.714 -4.2894,17.7538 -2.3853,15.5404 -3.0223,12.3306 -5.4041,9.3668 -7.2463,7.2993 -7.7504,6.6252 A1.5225,1.5225 0 0 1 -5.2973,4.8213 Z" stroke-linecap="round" fill="#ffc034"/></g></g><g transform="matrix(1, 0, 0, 1, 2392.2683, 29725.8659) scale(0.9781228438056534, 0.9781228438056534)" opacity="1"><g transform="scale(1.0223664709733469)"><path d="M1.3875,-2.0336 T2.5436,-1.7793 5.6098,-0.0906 7.8494,2.1013 8.179,2.8589 A1.9974,1.9974 0 0 1 4.4798,4.367 T3.683,3.4095 1.7293,2.2428 0.5725,2.0336 A2.074,2.074 0 0 1 1.3875,-2.0336 ZM8.0134,4.6869 T7.6693,5.2191 6.3252,7.2914 5.3253,8.8316 A1.9816,1.9816 0 0 1 2.0765,6.5617 T3.0242,5.0858 4.3087,3.0744 4.6453,2.539 A1.9974,1.9974 0 0 1 8.0134,4.6869 ZM4.7238,5.9994 T5.2167,6.2991 7.4894,7.0777 10.1258,7.6556 10.9824,7.7546 A2.0376,2.0376 0 0 1 10.5376,11.8054 T8.7504,11.6057 5.6501,10.8972 3.5075,9.8911 2.6781,9.3938 A1.9816,1.9816 0 0 1 4.7238,5.9994 Z" stroke-linecap="round" fill="#ffc034"/></g></g><g transform="matrix(1, 0, 0, 1, 2414.7651, 29746.4064) scale(0.9781228438056534, 0.9781228438056534)" opacity="1"><g transform="scale(1.0223664709733469)"><path d="M0.1785,-1.4246 T2.0295,-1.205 5.9423,-0.7378 8.0042,-0.4901 A1.4816,1.4816 0 0 1 7.6358,2.4501 T5.5765,2.1814 1.6694,1.6686 -0.1785,1.4246 A1.4357,1.4357 0 0 1 0.1785,-1.4246 Z" stroke-linecap="round" fill="#f2f2f2"/></g></g><g transform="matrix(1, 0, 0, 1, 2415.7433, 29754.2314) scale(0.9781228438056534, 0.9781228438056534)" opacity="1"><g transform="scale(1.0223664709733469)"><path d="M0.6237,-1.556 T1.7883,-1.1172 4.8418,-0.3739 7.8745,0.0755 9.0181,0.2203 A1.7533,1.7533 0 0 1 8.5819,3.6997 T7.4378,3.5577 3.9834,2.9741 0.5247,2.0443 -0.6237,1.556 A1.6764,1.6764 0 0 1 0.6237,-1.556 Z" stroke-linecap="round" fill="#f2f2f2"/></g></g><g transform="matrix(1, 0, 0, 1, 2463.6713, 29748.3627) scale(0.9781228438056534, 0.9781228438056534)" opacity="1"><g transform="scale(1.0223664709733469)"><path d="M1.0557,2.3003 T-0.0896,3.2395 -3.4234,5.5901 -7.2539,8.0724 -10.8798,10.2112 -12.8638,11.2793 A1.7118,1.7118 0 0 1 -14.5162,8.2807 T-12.6097,7.205 -9.058,5.0529 -5.4019,2.7284 -2.2234,0.57 -1.0557,-0.3403 A1.6905,1.6905 0 0 1 1.0557,2.3003 Z" stroke-linecap="round" fill="#40c057"/></g></g><g transform="matrix(1, 0, 0, 1, 2451.9338, 29749.3408) scale(0.9781228438056534, 0.9781228438056534)" opacity="1"><g transform="scale(1.0223664709733469)"><path d="M2.0876,-1.3853 T3.2402,-0.4556 6.197,2.0701 9.3375,4.9257 12.1616,7.1142 14.6198,8.6241 15.5902,9.2048 A1.807,1.807 0 0 1 13.7498,12.3152 T12.7737,11.7442 9.9735,9.9868 6.8586,7.5397 3.8804,4.7519 1.0328,2.3051 -0.1276,1.3853 A1.7736,1.7736 0 0 1 2.0876,-1.3853 Z" stroke-linecap="round" fill="#40c057"/></g></g><g transform="matrix(1, 0, 0, 1, 2466.6057, 29730.7565) scale(0.9781228438056534, 0.9781228438056534)" opacity="1"><g transform="scale(1.0223664709733469)"><path d="M0.3487,-2.0887 T1.7307,-1.8199 5.0171,-1.0514 6.9215,-0.5517 A1.9957,1.9957 0 0 1 5.4335,3.1519 T3.9369,2.815 1.0458,2.2834 -0.3487,2.0887 A2.1176,2.1176 0 0 1 0.3487,-2.0887 ZM8.173,1.2731 T8.1181,2.4334 7.1746,4.8253 4.8658,7.5197 5.7835,9.2855 9.4917,9.6689 10.8622,9.7493 A1.9933,1.9933 0 0 1 10.6578,13.7307 T7.9883,13.612 3.0811,12.7484 0.2764,10.3588 1.0974,6.5947 3.4108,3.3817 4.2591,1.8076 4.182,1.3271 A1.9957,1.9957 0 0 1 8.173,1.2731 Z" stroke-linecap="round" fill="#40c057"/></g></g><g transform="matrix(1, 0, 0, 1, 2501.8181, 29743.4721) scale(0.9781228438056534, 0.9781228438056534)" opacity="1"><g transform="scale(1.0223664709733469)"><path d="M1.5394,0 T1.5508,1.8494 1.3216,6.1671 0.8341,10.7695 0.5872,12.9035 A1.5779,1.5779 0 0 1 -2.5472,12.5365 T-2.2776,10.2609 -1.7851,5.8421 -1.5508,1.8494 -1.5394,0 A1.5394,1.5394 0 0 1 1.5394,0 Z" stroke-linecap="round" fill="#f2f2f2"/></g></g><g transform="matrix(1, 0, 0, 1, 2504.7525, 29748.3627) scale(0.9781228438056534, 0.9781228438056534)" opacity="1"><g transform="scale(1.0223664709733469)"><path d="M-0.685,1.4719 T-1.8398,1.7135 -5.3231,2.2056 -7.6516,2.4561 A1.4857,1.4857 0 0 1 -7.9884,-0.4961 T-5.7899,-0.7621 -2.4332,-1.25 -1.275,-1.4719 A1.5011,1.5011 0 0 1 -0.685,1.4719 Z" stroke-linecap="round" fill="#f2f2f2"/></g></g><g transform="matrix(1, 0, 0, 1, 2519.4243, 29733.6908) scale(0.9781228438056534, 0.9781228438056534)" opacity="1"><g transform="scale(1.0223664709733469)"><path d="M1.4872,-0.4966 T1.9489,0.893 2.8183,4.4667 3.0942,8.7904 2.8205,12.3966 2.3784,15.8636 1.8202,19.7791 1.5622,21.6941 A1.5719,1.5719 0 0 1 -1.5622,21.3459 T-1.27,19.2044 -0.7269,15.3617 -0.3024,11.9755 -0.0043,8.7027 -0.2181,5.1926 -1.0219,1.8835 -1.4872,0.4966 A1.5679,1.5679 0 0 1 1.4872,-0.4966 ZM-1.57,21.4434 T-1.5041,20.851 -1.1467,18.5565 0.4364,15.7243 3.1161,14.0604 6.1698,14.4597 8.7384,16.8966 10.253,20.514 11.0885,23.8988 11.3125,25.1697 A1.5545,1.5545 0 0 1 8.2475,25.6903 T7.9037,23.4428 7.0763,19.8001 5.144,17.6346 2.6474,18.1733 1.5846,20.5394 1.57,21.5966 A1.5719,1.5719 0 0 1 -1.57,21.4434 Z" stroke-linecap="round" fill="#4dabf7"/></g></g><g transform="matrix(1, 0, 0, 1, 2531.1618, 29725.8659) scale(0.9781228438056534, 0.9781228438056534)" opacity="1"><g transform="scale(1.0223664709733469)"><path d="M0,-1.6414 T1.4234,-1.6333 4.1706,-1.0603 6.6377,1.2498 7.4216,5.1957 6.5081,8.5177 5.954,9.6392 A1.6616,1.6616 0 0 1 2.7564,8.7343 T3.1064,7.7557 4.0915,5.4361 3.7163,2.8601 1.3531,1.6333 0,1.6414 A1.6414,1.6414 0 0 1 0,-1.6414 ZM5.5522,8.0343 T5.8997,8.3886 8.1043,8.9488 9.9614,9.1547 A1.6155,1.6155 0 0 1 9.5986,12.3653 T8.5778,12.2665 5.7266,11.6433 3.5272,10.729 3.1582,10.3392 A1.6616,1.6616 0 0 1 5.5522,8.0343 Z" stroke-linecap="round" fill="#4dabf7"/></g></g></svg>