<svg xmlns="http://www.w3.org/2000/svg" direction="ltr" width="1159.6108020631216" height="639.9176350721627" viewBox="843.274379452009 14801.739477343806 1159.6108020631216 639.9176350721627" stroke-linecap="round" stroke-linejoin="round" style="background-color: transparent;"><defs/><g transform="matrix(1, 0, 0, 1, 1005.2744, 14897.776)" opacity="1"><g transform="scale(1)"><path d="M2.4617,3.9387 T0.5588,5.1026 -4.0235,8.1528 -8.8702,11.6618 -13.0609,14.8265 -16.6182,17.8121 -19.8484,20.4888 -22.2111,22.303 -22.8774,22.8842 A4.6597,4.6597 0 0 1 -29.0262,15.8812 T-27.8639,14.8568 -24.7157,12.3772 -20.692,9.204 -16.5096,5.9296 -11.9164,2.6248 -7.846,-0.3299 -4.3428,-2.7376 -2.4617,-3.9387 A4.6447,4.6447 0 0 1 2.4617,3.9387 ZM-27.5496,23.7598 T-27.7898,23.6482 -28.03,23.5366 A4.6147,4.6147 0 0 1 -24.8651,14.8667 T-24.6095,14.9361 -24.3539,15.0055 A4.6597,4.6597 0 0 1 -27.5496,23.7598 ZM-30.9698,18.2823 T-30.6236,17.2064 -30.2773,16.1304 A4.3648,4.3648 0 0 1 -21.7227,17.8696 T-21.824,18.9953 -21.9253,20.121 A4.6147,4.6147 0 0 1 -30.9698,18.2823 Z" stroke-linecap="round" fill="#e599f7"/></g></g><g transform="matrix(1, 0, 0, 1, 980.2744, 14897.776)" opacity="1"><g transform="scale(1)"><path d="M2.4506,-2.0422 T3.6547,-0.641 7.0402,3.4095 11.5185,8.0852 15.8692,12.3538 19.9658,16.5188 22.0085,18.4415 A3.2527,3.2527 0 0 1 17.9915,23.5585 T17.0495,22.8765 14.3051,20.5294 10.8062,16.9989 6.6028,12.772 1.9835,7.6632 -1.2897,3.479 -2.4506,2.0422 A3.1899,3.1899 0 0 1 2.4506,-2.0422 Z" stroke-linecap="round" fill="#e599f7"/></g></g><g transform="matrix(1, 0, 0, 1, 1022.2744, 14910.776)" opacity="1"><g transform="scale(1)"><path d="M0.3932,-2.7527 T2.0614,-2.6056 6.1402,-2.3739 10.6372,-1.8407 14.9571,-1.1375 17.1907,-0.883 A2.8893,2.8893 0 0 1 16.8093,4.883 T15.537,4.8571 11.2229,4.4139 5.5368,3.7005 1.2496,3.0786 -0.3932,2.7527 A2.7807,2.7807 0 0 1 0.3932,-2.7527 Z" stroke-linecap="round" fill="#e599f7"/></g></g><g transform="matrix(1, 0, 0, 1, 1065.2744, 14891.776)" opacity="1"><g transform="scale(1)"><path d="M3.375,-0.3375 T3.6223,2.0265 4.0198,6.6546 4.2492,11.0638 4.3766,15.2871 4.4549,20.6359 3.248,27.0307 2.0109,30.155 A3.2248,3.2248 0 0 1 -4.0109,27.845 T-3.2694,25.8113 -2.5535,20.6304 -2.6001,15.4547 -2.6733,11.3684 -2.8245,7.1901 -3.1493,2.7035 -3.375,0.3375 A3.3918,3.3918 0 0 1 3.375,-0.3375 Z" stroke-linecap="round" fill="#e599f7"/></g></g><g transform="matrix(1, 0, 0, 1, 1063.2744, 14888.776)" opacity="1"><g transform="scale(1)"><path d="M1.5057,2.409 T-0.3523,3.646 -3.8717,6.0147 -8.4228,9.048 -12.9195,11.8106 -14.5265,12.6717 A3.0511,3.0511 0 0 1 -17.4735,7.3283 T-15.8879,6.4286 -11.5817,3.7485 -7.1095,0.9077 -3.4317,-1.281 -1.5057,-2.409 A2.8409,2.8409 0 0 1 1.5057,2.409 Z" stroke-linecap="round" fill="#e599f7"/></g></g><g transform="matrix(1, 0, 0, 1, 1121.2744, 14880.776)" opacity="1"><g transform="scale(1)"><path d="M2.3121,0 T2.31,1.419 2.3048,5.1752 2.2995,9.8425 2.2952,14.389 2.2958,18.6654 2.3021,22.9787 2.0456,27.6764 1.6215,32.2225 1.4071,36.7215 1.345,41.5912 1.3366,46.6804 1.3519,52.0663 1.3763,57.4099 1.3989,62.2688 1.423,66.9932 1.4496,71.792 1.4805,76.6114 1.5189,81.5663 1.1964,86.6733 0.7789,91.6988 0.6911,96.5863 0.6773,101.6793 0.6798,106.705 0.689,111.5872 0.7069,116.5546 0.7285,121.6702 0.7459,126.8269 0.7639,131.8704 0.7822,136.8787 1.1504,141.734 1.6257,146.6972 1.7794,151.8338 1.8336,156.7479 1.8592,161.3628 1.877,166.0191 1.888,170.5627 1.8941,175.0748 1.8972,179.5781 1.8976,183.7179 1.8979,187.9932 2.0983,192.6955 2.5298,197.3754 2.821,201.6608 2.8979,205.9788 2.9242,210.428 2.939,214.6759 2.9507,219.1062 2.9634,223.5869 2.71,228.386 2.2648,233.3133 2.0607,237.979 2.0509,242.7774 2.0728,247.7479 2.0944,252.8684 2.1044,258.1225 1.8397,264.3519 1.4086,270.0504 1.1938,274.4481 1.1287,278.6866 1.1069,282.7485 1.097,287.0017 1.0957,291.6696 1.1038,296.5774 1.1184,301.3154 0.8658,306.3217 0.4479,311.3244 0.2415,315.8826 0.178,320.3991 0.1628,325.0304 0.1651,330.1632 0.1719,335.4367 0.1779,340.6374 0.1744,345.6932 0.1627,350.584 0.1531,355.6783 0.1453,360.8292 0.1393,365.871 0.1342,370.8869 -0.237,376.2644 -0.6972,381.7317 -0.8134,387.0844 -0.8413,392.4135 -0.8456,397.8676 -0.8465,403.4793 -1.1075,408.9296 -1.5358,414.0623 -1.7532,419.1765 -1.8177,424.5625 -1.8358,429.7979 -1.8406,434.8624 -1.8465,440.1168 -1.8553,445.785 -1.862,451.4564 -1.8669,457.004 -1.8709,462.7537 -1.8743,468.6872 -2.2432,474.7973 -2.7068,480.5952 -2.8309,486.048 -2.8669,491.7644 -2.8801,497.326 -2.8923,502.4821 -2.5586,508.1569 -2.094,514.0701 -1.6197,518.8751 -0.9863,523.1505 -0.4671,526.2425 -0.2305,527.0918 A2.9146,2.9146 0 0 1 -5.7695,528.9082 T-6.4369,526.9371 -7.2968,522.94 -7.8192,518.0261 -8.3467,512.6753 -8.8219,507.6137 -9.1055,502.4799 -9.1123,497.3187 -9.1057,491.7379 -9.0706,485.9416 -8.9384,480.251 -8.4791,474.5326 -8.1257,468.6812 -8.1291,462.7537 -8.133,457.004 -8.1379,451.4563 -8.1444,445.7847 -8.1524,440.1155 -8.1554,434.8577 -8.1498,429.7812 -8.1303,424.509 -8.0598,418.9648 -7.7907,413.3304 -7.3649,408.3683 -7.1514,403.4772 -7.1468,397.8598 -7.1313,392.3862 -7.0881,386.9757 -6.9479,381.3686 -6.4853,375.9804 -6.1342,370.8784 -6.1393,365.871 -6.1453,360.8291 -6.1531,355.6783 -6.1627,350.584 -6.1743,345.6931 -6.1776,340.6371 -6.1708,335.4356 -6.1611,330.1585 -6.1483,325.0117 -6.126,320.3395 -6.0544,315.6607 -5.7745,310.516 -5.3388,305.6904 -5.1183,301.3153 -5.1035,296.5771 -5.0945,291.6683 -5.093,286.9964 -5.0925,282.7288 -5.0768,278.619 -5.0068,274.2395 -4.7352,269.3093 -4.3127,263.7672 -4.1044,258.1224 -4.0941,252.8679 -4.0709,247.7447 -4.0379,242.7534 -3.9723,237.8129 -3.6607,232.5595 -3.1831,227.7771 -2.9638,223.5872 -2.9518,219.1076 -2.943,214.6809 -2.9386,210.4439 -2.9644,205.0706 -3.1721,199.2051 -3.627,194.2723 -3.8996,189.8884 -3.8977,185.7433 -3.8975,181.6697 -3.8971,177.4045 -3.8939,172.8984 -3.8853,168.3763 -3.8733,163.797 -3.8637,159.0117 -3.8646,154.3315 -3.9107,149.6307 -4.1175,144.8559 -4.5328,139.7847 -4.7744,134.5332 -4.756,129.5102 -4.7383,124.4276 -4.718,119.13 -4.6954,113.9099 -4.6786,108.9689 -4.663,104.1829 -4.6272,99.0985 -4.5303,93.7944 -4.2228,88.5639 -3.7514,83.6442 -3.4959,78.9237 -3.461,74.0188 -3.4356,69.3614 -3.4121,64.743 -3.3862,59.817 -3.3608,54.6347 -3.3352,49.4272 -3.3084,44.1269 -3.266,38.8965 -3.1282,33.909 -2.6627,28.3242 -2.3021,22.9787 -2.2958,18.6654 -2.2952,14.389 -2.2995,9.8425 -2.3048,5.1752 -2.31,1.419 -2.3121,0 A2.3121,2.3121 0 0 1 2.3121,0 Z" stroke-linecap="round" fill="#f2f2f2"/></g></g><g transform="matrix(1, 0, 0, 1, 875.2744, 15117.776)" opacity="1"><g transform="scale(1)"><path d="M1.0338,-2.5845 T2.21,-2.0975 5.6646,-1.167 10.0114,-0.6688 14.2791,-0.3456 19.0262,0.3153 24.2708,1.1736 29.7089,2.0981 34.8111,2.7632 40.0239,3.2841 45.4292,3.7502 50.9922,4.2846 57.0071,5.1016 63.1318,5.8839 69.0401,6.4018 74.4081,6.6161 79.9932,6.6628 86.2364,6.6606 92.7767,6.6444 99.5247,6.6176 106.4531,6.5853 113.4328,6.196 120.7934,5.7078 128.2547,5.5501 135.5038,5.4848 142.9346,5.4378 150.4155,5.3904 157.6737,5.3476 164.7454,5.3125 171.6407,5.285 178.2505,5.2579 184.9056,5.2129 191.4487,5.1595 197.5995,5.1173 203.6414,5.084 210.0142,5.0525 216.4788,5.016 222.3665,4.9773 227.7991,4.5842 233.5227,4.0825 239.621,3.9152 245.6474,3.8619 251.6547,3.8341 257.3299,3.5975 263.2381,3.152 269.7793,2.8597 276.2916,2.7573 282.5551,2.7005 288.629,2.6536 294.6496,2.612 300.6553,2.5814 306.6569,2.5581 312.6573,2.5384 318.6575,2.5144 325.0095,2.7511 331.1091,3.1528 336.785,3.3413 342.6931,3.3816 348.6674,3.3833 354.6603,3.3847 360.6583,3.3788 366.4212,3.3609 372.1189,3.3451 377.9103,3.3348 383.9642,3.3291 390.3403,3.3288 396.5694,3.3262 402.633,3.3108 409.0118,3.2821 415.7147,3.2528 422.5075,3.2362 429.5746,3.2314 436.9544,3.2301 444.7423,3.4818 452.4452,3.8977 458.4816,4.3467 464.3808,4.8297 470.1219,5.3204 475.4607,5.8089 481.9834,6.0765 488.47,6.2113 494.6059,6.3627 500.6431,6.5875 506.3933,6.5052 509.1355,6.2871 A3.8122,3.8122 0 0 1 510.8645,13.7129 T508.2978,14.4352 503.1858,15.2905 497.6182,15.5289 491.5161,15.6859 485.1552,15.7324 478.2978,15.6055 471.1322,15.0606 463.586,14.3984 455.8326,13.8317 448.3341,13.1388 440.757,12.7702 433.3233,12.7692 426.0515,12.7678 418.9241,12.7556 412.3172,12.7336 405.8811,12.7037 399.6111,12.6795 393.4903,12.6699 387.0556,12.6696 380.7907,12.6693 375.1371,12.6631 369.5328,12.6493 363.6571,12.6306 357.656,12.6162 351.6523,12.6077 345.6387,12.5879 339.5901,12.5323 333.4168,12.3703 327.4653,11.8806 321.6532,11.4986 315.6574,11.4732 309.6572,11.4512 303.6566,11.4286 297.6541,11.405 291.6452,11.371 285.613,11.3302 279.4965,11.3003 273.0802,11.2992 266.8809,11.3917 260.8367,11.8339 254.665,12.1837 248.6701,12.1686 242.703,12.1697 236.8219,12.2125 231.2621,12.3909 225.6127,12.778 219.5633,13.0032 213.3185,12.9645 206.8855,12.9317 200.6269,12.8992 194.5475,12.8604 188.2613,12.8136 181.6795,12.764 174.8852,12.7279 168.1769,12.7025 161.3758,12.6743 154.2404,12.637 146.753,12.591 139.2983,12.5547 131.9628,12.5415 124.6015,12.58 117.5895,12.785 110.2357,13.1811 102.8234,13.395 95.9544,13.3632 89.4266,13.3348 83.2752,13.3025 77.1661,13.2324 71.2094,13.0312 65.4096,12.4181 59.2655,11.6316 53.1251,10.812 47.4429,9.9517 42.2069,9.1689 36.8054,8.575 31.263,7.8807 26.0835,6.849 20.7702,5.845 15.031,4.9719 9.2026,4.5446 3.8505,4.0007 0.155,3.0435 -1.0338,2.5845 A2.7836,2.7836 0 0 1 1.0338,-2.5845 Z" stroke-linecap="round" fill="#f2f2f2"/></g></g><g transform="matrix(1, 0, 0, 1, 1117.2744, 15158.776)" opacity="1"><g transform="scale(1)"><path d="M2.6251,0.8595 T2.3743,1.5771 2.1235,2.2947 A2.7322,2.7322 0 0 1 -3.0695,0.5943 T-2.8473,-0.1326 -2.6251,-0.8595 A2.7622,2.7622 0 0 1 2.6251,0.8595 ZM-1.4349,4.0018 T-1.8585,3.8328 -2.2822,3.6638 A2.7141,2.7141 0 0 1 -0.3711,-1.4169 T0.0589,-1.2648 0.4889,-1.1127 A2.7322,2.7322 0 0 1 -1.4349,4.0018 ZM-3.8649,2.0846 T-4.0963,1.4379 -4.3277,0.7912 A2.689,2.689 0 0 1 0.7018,-1.1132 T0.9567,-0.4754 1.2116,0.1624 A2.7141,2.7141 0 0 1 -3.8649,2.0846 ZM-2.1563,-2.828 T-0.4961,-2.842 3.1805,-0.4718 5.1967,1.9125 A2.6952,2.6952 0 0 1 0.2138,3.9687 T-0.3989,3.0082 -1.2406,2.2769 -1.4697,2.506 A2.689,2.689 0 0 1 -2.1563,-2.828 ZM3.623,5.4748 T2.2676,5.9484 0.9122,6.422 A2.6629,2.6629 0 0 1 -0.9012,1.4145 T0.4432,0.9105 1.7875,0.4064 A2.6952,2.6952 0 0 1 3.623,5.4748 ZM-2.2382,5.3524 T-2.5987,4.7825 -2.9591,4.2127 A2.6565,2.6565 0 0 1 1.5176,1.3514 T1.8834,1.9178 2.2492,2.4842 A2.6629,2.6629 0 0 1 -2.2382,5.3524 ZM-2.1367,0.5344 T-1.051,-0.0643 2.182,-0.668 4.3293,-0.6732 A2.6934,2.6934 0 0 1 3.6707,4.6732 T2.9078,4.3095 1.4201,4.4877 0.6952,5.0297 A2.6565,2.6565 0 0 1 -2.1367,0.5344 Z" stroke-linecap="round" fill="#e599f7"/></g></g><g transform="matrix(1, 0, 0, 1, 1157.2744, 15126.776)" opacity="1"><g transform="scale(1)"><path d="M-3.0892,0 T-3.0018,-1.4317 -1.9696,-4.3991 -1.0247,-5.9348 A3.1148,3.1148 0 0 1 3.678,-1.8493 T3.2962,-1.858 3.0018,-0.9333 3.0892,0 A3.0892,3.0892 0 0 1 -3.0892,0 ZM3.6256,-5.9936 T4.4728,-5.0821 6.0588,-1.4974 4.7809,3.0151 2.7642,4.8544 A3.1294,3.1294 0 0 1 1.0955,-1.1779 T0.896,-0.5561 -0.1379,-0.8624 -0.9723,-1.7905 A3.1148,3.1148 0 0 1 3.6256,-5.9936 ZM-0.9601,3.0387 T-1.3529,2.0816 -1.7457,1.1245 A3.1205,3.1205 0 0 1 4.0179,-1.2697 T4.4188,-0.3159 4.8198,0.6378 A3.1294,3.1294 0 0 1 -0.9601,3.0387 ZM-0.0467,-2.9602 T1.2844,-3.4717 3.692,-4.0738 4.7686,-4.1645 A3.2066,3.2066 0 0 1 5.1047,2.2399 T4.3135,2.2472 2.9206,2.5348 2.3189,2.8151 A3.1205,3.1205 0 0 1 -0.0467,-2.9602 ZM7.2345,1.2743 T6.7521,1.7417 6.2697,2.2092 A3.1673,3.1673 0 0 1 1.7303,-2.2092 T2.1846,-2.704 2.6389,-3.1989 A3.2066,3.2066 0 0 1 7.2345,1.2743 Z" stroke-linecap="round" fill="#e599f7"/></g></g><g transform="matrix(1, 0, 0, 1, 1198.2744, 15082.776)" opacity="1"><g transform="scale(1)"><path d="M3.6639,0 T3.6639,1 3.6639,2 A3.6639,3.6639 0 0 1 -3.6639,2 T-3.6639,1 -3.6639,0 A3.6639,3.6639 0 0 1 3.6639,0 Z" stroke-linecap="round" fill="#e599f7"/></g></g><g transform="matrix(1, 0, 0, 1, 1242.2744, 15040.776)" opacity="1"><g transform="scale(1)"><path d="M0,2.2943 T-1,2.2985 -2,2.3027 A2.3027,2.3027 0 0 1 -2,-2.3027 T-1,-2.2985 0,-2.2943 A2.2943,2.2943 0 0 1 0,2.2943 ZM-2,-2.3027 T-0.5,-2.3146 1,-2.3264 A2.3264,2.3264 0 0 1 1,2.3264 T-0.5,2.3146 -2,2.3027 A2.3027,2.3027 0 0 1 -2,-2.3027 Z" stroke-linecap="round" fill="#e599f7"/></g></g><g transform="matrix(1, 0, 0, 1, 1279.2744, 14997.776)" opacity="1"><g transform="scale(1)"><path d="M 0 0 m -3.663919189857866, 0 a 3.663919189857866,3.663919189857866 0 1,1 7.327838379715732,0 a 3.663919189857866,3.663919189857866 0 1,1 -7.327838379715732,0" stroke-linecap="round" fill="#e599f7"/></g></g><g transform="matrix(1, 0, 0, 1, 956.2744, 15328.776)" opacity="1"><g transform="scale(1)"><path d="M-2.1542,-1.7234 T-1.1795,-2.8829 1.4333,-5.5753 4.5711,-8.4369 7.5866,-11.2459 10.9638,-14.2471 14.2901,-17.249 17.7711,-20.7438 21.4452,-24.73 24.5464,-28.2025 27.436,-31.2944 30.4859,-34.5931 33.4748,-38.1288 36.3514,-41.4805 39.2828,-44.5034 42.2722,-47.6244 45.5667,-51.148 48.9628,-55.0835 52.1322,-59.4869 55.1279,-63.8811 58.0412,-67.882 60.8289,-71.5098 63.8186,-75.5785 67.0262,-79.6772 70.0286,-82.8102 73.3681,-85.9207 76.872,-89.1795 80.3488,-92.6795 83.7043,-96.0877 87.1285,-99.2138 90.6414,-102.3055 94.2157,-105.3427 98.19,-108.4131 101.8149,-111.1771 105.2482,-114.1322 108.6822,-117.1065 111.6746,-120.0933 114.4921,-123.3062 117.4753,-126.3469 120.4923,-129.3867 123.9374,-132.4639 127.3705,-135.9316 130.2811,-139.3464 132.7378,-142.6249 135.2876,-146.3758 138.2826,-150.3724 141.1693,-154.007 143.6909,-157.2996 146.8214,-160.9885 150.6612,-164.5178 154.1968,-167.5247 157.8799,-170.6432 161.3666,-173.6685 164.8478,-176.641 168.8377,-179.784 173.1526,-183.7067 177.0895,-187.5785 180.759,-190.6944 184.2469,-193.6993 187.2497,-196.3897 190.7418,-199.4136 194.165,-202.6504 197.0042,-205.827 200.078,-208.9621 203.4778,-211.642 207.4754,-214.7099 211.6901,-218.3925 215.2173,-221.8464 218.2407,-225.2176 221.093,-228.4189 224.0747,-231.4822 227.4965,-235.6421 231.0166,-239.7099 234.1122,-242.7262 236.9141,-245.8644 239.8803,-249.3104 243.0465,-252.634 246.0752,-255.683 249.0879,-258.6929 252.625,-261.7869 256.506,-265.2716 259.9763,-268.6665 263.1053,-271.6495 266.0311,-274.9563 269.4085,-278.9181 272.9974,-282.5873 276.1344,-285.6099 279.059,-288.9286 281.9958,-292.6703 285.0896,-296.3055 288.17,-299.5531 291.1808,-302.5839 294.7239,-305.752 298.2335,-309.1941 301.1576,-312.3876 304.1345,-315.4411 307.2237,-318.3738 310.7271,-321.4265 314.1499,-324.6648 317.2038,-327.4221 320.4294,-330.3751 323.7972,-333.6214 327.3936,-336.9632 331.0008,-340.4956 334.6414,-344.1831 338.6591,-347.8251 343.0782,-351.0632 347.342,-353.9686 350.8137,-356.6224 353.87,-359.2847 357.3935,-362.4482 360.3101,-365.0031 361.2286,-365.7857 A3.9295,3.9295 0 0 1 366.7714,-360.2143 T365.2761,-358.4681 361.9385,-354.8253 358.364,-351.3051 354.6197,-348.1687 349.7177,-344.6247 344.9754,-341.0763 341.2304,-337.6495 337.1792,-333.5002 332.3108,-328.9636 327.5451,-324.475 323.8058,-320.9551 320.5762,-318.1071 317.256,-314.952 313.8414,-312.016 310.7787,-309.2216 307.3556,-305.7253 303.198,-301.6847 299.5673,-298.1657 296.6053,-295.192 293.7018,-292.2485 290.738,-288.765 287.4191,-284.7596 284.3639,-281.2099 281.4836,-278.06 278.2812,-275.1194 274.677,-271.2582 271.3935,-267.1822 268.5051,-264.0192 265.2606,-261.0468 262.2217,-258.0247 259.0003,-254.9846 255.6838,-252.0778 252.6965,-249.0819 249.7252,-246.0912 246.5003,-242.6669 242.9655,-238.6596 239.6575,-235.0871 236.4203,-232.2047 233.4839,-228.7484 230.843,-225.1853 227.4685,-221.7337 223.4314,-217.7147 219.7068,-213.6535 216.0457,-210.1135 212.3222,-207.0252 208.7077,-204.0039 204.9625,-200.5942 201.5943,-197.1406 198.4094,-194.0484 194.9168,-191.0657 191.5501,-188.1609 188.2931,-185.0976 184.5787,-181.967 180.7224,-178.5193 176.8051,-174.9189 173.0482,-171.8261 169.0352,-168.5996 164.8046,-165.2765 161.189,-162.2411 157.3219,-159.3264 153.6251,-156.4173 150.7306,-153.0604 147.797,-149.1466 144.7432,-145.0332 141.9372,-141.2364 139.3665,-137.7015 136.5456,-133.9833 133.5241,-130.4669 130.0582,-126.9878 126.4498,-123.4745 123.0935,-120.1167 119.7249,-116.7395 116.7677,-113.553 113.5729,-110.4685 110.0069,-107.4516 106.3965,-104.4601 102.4843,-101.5221 98.5101,-98.5725 94.5599,-95.6153 91.077,-92.6592 88.0627,-89.7142 85.0121,-86.7857 81.9579,-83.9101 78.6786,-81.0893 75.4173,-78.2405 72.4391,-75.2934 69.7627,-72.1282 67.1297,-68.606 64.5497,-65.1143 61.8772,-61.492 59.0886,-57.7893 56.5341,-54.3843 53.6689,-51.0707 50.0998,-47.1316 46.6007,-43.306 43.6645,-40.3586 40.6622,-37.3915 37.5354,-33.943 34.4799,-30.4695 31.429,-27.291 28.3947,-24.2266 25.3648,-20.999 22.226,-17.9236 19.1641,-15.1918 16.1024,-12.2192 12.5819,-8.8703 9.0343,-5.5035 5.7008,-2.3196 3.0715,0.5179 2.1542,1.7234 A2.7587,2.7587 0 0 1 -2.1542,-1.7234 Z" stroke-linecap="round" fill="#e599f7"/></g></g><g transform="matrix(1, 0, 0, 1, 1535.7744, 14862.276)" opacity="1"><g transform="scale(1)"><path d="M2.2411,1.8676 T1.0841,3.3077 -2.4286,7.7503 -7.2804,13.4507 -11.6423,18.3705 -15.386,22.2248 -18.2606,24.5583 -19.2571,25.2595 A2.8536,2.8536 0 0 1 -22.7429,20.7405 T-20.4711,18.6173 -16.2783,14.1219 -11.9183,9.2061 -7.0682,3.7953 -3.4491,-0.4697 -2.2411,-1.8676 A2.9172,2.9172 0 0 1 2.2411,1.8676 Z" stroke-linecap="round" fill="#4dabf7"/></g></g><g transform="matrix(1, 0, 0, 1, 1513.7744, 14863.276)" opacity="1"><g transform="scale(1)"><path d="M1.9574,-2.237 T3.8478,-0.5785 7.3337,2.7529 11.4132,7.1781 15.7229,11.925 19.3806,15.9 21.2125,17.8803 A3.064,3.064 0 0 1 16.7875,22.1197 T14.8373,20.1523 10.9757,16.0118 6.7917,11.1813 3.1744,7.033 -0.0638,3.8895 -1.9574,2.237 A2.9724,2.9724 0 0 1 1.9574,-2.237 Z" stroke-linecap="round" fill="#4dabf7"/></g></g><g transform="matrix(1, 0, 0, 1, 1541.7744, 14838.276)" opacity="1"><g transform="scale(1)"><path d="M-2.4844,-1.6563 T-1.9445,-2.4298 0.6539,-4.3254 5.0309,-5.4079 9.938,-4.1659 13.6449,-0.7432 13.7362,3.8688 10.6902,8.516 7.8515,12.0995 7.0315,13.4278 A2.9736,2.9736 0 0 1 2.0106,10.2404 T3.8172,7.8913 6.7013,3.198 5.5376,0.6097 2.8905,1.0108 2.4844,1.6563 A2.9859,2.9859 0 0 1 -2.4844,-1.6563 ZM5.668,9.0906 T6.4269,9.4053 9.7992,9.7696 14.7781,9.8491 18.5788,9.9116 20.014,9.9443 A3.0558,3.0558 0 0 1 19.986,16.0557 T17.2533,16.0955 12.1831,16.072 7.8651,15.8205 4.6294,15.105 3.3741,14.5776 A2.9736,2.9736 0 0 1 5.668,9.0906 Z" stroke-linecap="round" fill="#4dabf7"/></g></g><g transform="matrix(1, 0, 0, 1, 1760.2962, 14835.6967)" opacity="1"><g transform="scale(1)"><path d="M2.3564,0 T2.3432,1.3947 1.9599,5.2018 1.4974,9.799 1.382,14.7171 1.3633,20.5655 1.3798,26.7881 1.4061,33.236 1.4333,39.8594 1.4566,46.5279 1.4776,53.3311 1.5037,60.5269 1.533,68.1844 1.5596,75.7407 1.5837,82.9126 1.6031,89.7335 1.623,96.4581 1.6432,103.0451 1.6601,109.2424 1.6776,115.2105 1.6877,121.1113 1.6873,126.9935 1.6817,133.228 1.4176,140.096 0.969,146.9542 0.7176,153.2756 0.6303,158.6841 0.9503,163.2445 1.4007,167.9338 1.5376,173.4829 1.5757,179.6205 1.577,185.6909 1.5655,191.6239 1.7771,197.3174 2.1997,202.8988 2.4704,208.5394 2.9114,214.1303 3.4037,220.0462 3.5558,226.0449 3.6048,231.836 3.6297,237.6872 3.6529,243.204 3.673,248.2753 3.6876,252.9875 3.6968,257.6 3.7025,262.4201 3.7096,267.5297 3.7176,272.7161 3.7237,277.692 3.724,282.7352 3.7198,287.7948 3.9215,292.4665 4.335,297.3002 4.5978,302.6861 4.6621,308.0723 4.6725,313.4543 4.669,318.7206 4.6636,324.076 4.6537,329.575 4.6414,334.7599 4.6326,339.3851 4.6257,343.8548 4.6201,348.2778 4.6159,352.3339 4.6119,357.2732 4.6079,363.162 4.6049,369.039 4.6062,374.9166 4.6086,381.0257 4.3442,386.6253 3.9215,391.211 3.7124,395.3862 3.3793,399.6795 2.9393,404.045 2.7306,408.4934 2.6641,412.9251 2.2807,417.4838 1.8167,422.1557 1.6906,426.4945 1.6499,431.0096 1.6352,435.6787 1.6287,440.1585 1.625,444.3526 1.6149,449.3304 1.6007,454.3742 1.9458,459.5573 2.4106,465.3595 2.5583,470.5734 2.6098,475.9027 2.6349,480.8137 2.2757,485.2867 1.4477,489.603 0.5533,493.602 -0.2328,496.9101 -0.5862,498.1545 A2.4229,2.4229 0 0 1 -5.2938,497.0055 T-4.836,494.7775 -3.852,489.7921 -2.9856,484.9622 -2.6423,480.8105 -2.6366,475.9263 -2.6549,470.6576 -2.7584,465.73 -3.1981,461.023 -3.5564,456.7481 -3.5679,451.5343 -3.5814,446.3613 -3.5855,442.2984 -3.5875,437.8509 -3.5866,433.2937 -3.5731,428.7915 -3.5104,424.0434 -3.2544,419.2866 -2.8332,414.9329 -2.5892,410.6856 -2.455,405.9827 -1.9938,401.4118 -1.6125,397.2789 -1.4831,392.9769 -1.0342,387.456 -0.6886,381.0257 -0.6862,374.9166 -0.6849,369.039 -0.6879,363.162 -0.6919,357.2732 -0.6959,352.3339 -0.7001,348.2778 -0.7057,343.8548 -0.7126,339.3851 -0.7214,334.7599 -0.734,329.5753 -0.7447,324.077 -0.7529,318.7241 -0.7666,313.4681 -0.793,308.1188 -0.8611,302.8741 -1.0749,297.9909 -1.498,293.0045 -1.7598,287.7948 -1.764,282.7352 -1.7637,277.692 -1.7576,272.7161 -1.7496,267.5297 -1.7425,262.4201 -1.7368,257.6 -1.7278,252.9877 -1.7136,248.2758 -1.695,243.2058 -1.6774,237.6935 -1.6727,231.8589 -1.6963,226.1311 -1.8056,220.3412 -2.2545,214.3945 -2.6537,208.7093 -2.8598,203.4269 -3.2741,197.7132 -3.5275,191.6255 -3.5443,185.6965 -3.5622,179.6394 -3.5931,173.5642 -3.7045,168.2456 -4.1483,163.4914 -4.4994,158.6555 -4.4543,153.143 -4.2292,146.4815 -3.8412,139.7255 -3.6417,133.228 -3.6473,126.9935 -3.6477,121.1113 -3.6376,115.2105 -3.6201,109.2424 -3.6032,103.0451 -3.583,96.4581 -3.5631,89.7335 -3.5437,82.9126 -3.5196,75.7407 -3.493,68.1844 -3.4637,60.5269 -3.4375,53.3311 -3.4164,46.5278 -3.3927,39.859 -3.364,33.2346 -3.3323,26.7834 -3.2965,20.5464 -3.2455,14.6385 -3.1096,9.479 -2.6677,4.9368 -2.3432,1.3866 -2.3564,0 A2.3564,2.3564 0 0 1 2.3564,0 Z" stroke-linecap="round" fill="#f2f2f2"/></g></g><g transform="matrix(1, 0, 0, 1, 1554.6052, 15082.5258)" opacity="1"><g transform="scale(1)"><path d="M1.4951,-3.6058 T3.1135,-3.3467 7.0499,-2.8926 11.4029,-2.6394 15.6457,-2.5692 20.0063,-2.5619 24.9382,-2.9303 30.085,-3.4321 34.8701,-3.634 39.4953,-3.741 44.0845,-3.8254 49.1273,-3.8995 53.9544,-4.1568 59.1928,-4.6174 65.232,-4.9268 71.3457,-5.3838 78.2357,-5.8994 85.8409,-6.0829 93.4761,-6.5148 99.2822,-7.1905 103.5202,-7.6664 107.8437,-8.1556 112.4538,-8.6529 116.9428,-9.1517 121.3958,-9.6594 126.0567,-9.9577 132.502,-10.5042 138.9115,-11.0467 143.1557,-11.2019 147.4858,-11.2966 151.8547,-11.3557 157.8866,-11.4029 164.9415,-11.6489 171.7445,-12.0851 178.9015,-12.3583 185.3033,-12.776 191.686,-13.2392 198.2359,-13.3629 204.113,-13.7271 208.9639,-14.1334 214.737,-14.2186 221.9704,-14.2276 229.237,-13.9414 236.3616,-13.226 242.9677,-12.3003 249.2301,-11.3427 255.3785,-10.3847 261.1271,-9.7164 266.4727,-9.1138 271.4894,-8.6134 276.4267,-8.1482 281.5496,-7.6905 286.6292,-7.599 291.5864,-7.5809 296.1426,-7.584 300.9996,-7.5961 306.9644,-7.264 312.3513,-6.8087 316.8863,-6.6542 321.3376,-6.2493 326.2049,-5.7842 331.7979,-5.3916 336.8114,-4.9229 341.8567,-4.7109 347.5265,-4.6622 353.6045,-4.645 359.1491,-4.6359 364.3082,-4.6297 369.6254,-4.6222 374.7998,-4.9559 380.4875,-5.392 386.8606,-5.2448 392.8754,-4.8241 398.4365,-4.5663 404.1014,-4.3891 409.9184,-4.1118 414.612,-3.8395 416.2833,-3.7493 A3.7493,3.7493 0 0 1 416.2767,3.7493 T413.1036,3.925 406.8123,4.2377 400.9553,4.3922 395.1471,4.3341 389.3468,3.9437 383.7744,3.6912 378.326,3.9178 372.6129,4.3536 366.8845,4.6271 361.6183,4.6326 356.6609,4.6389 351.4109,4.6461 345.5445,4.6478 339.6932,4.5799 334.0344,4.0912 328.1902,3.5986 322.115,3.1016 316.6239,2.6475 311.9995,2.5018 307.7016,2.0532 302.9416,1.7184 298.2906,1.705 293.7837,1.6856 289.0294,1.6496 283.7975,1.5494 278.137,1.2139 273.204,0.6797 268.2047,0.1209 262.8576,-0.5204 257.3368,-1.3812 251.1103,-2.3926 244.8576,-3.3836 238.5012,-4.3006 232.1387,-5.0549 225.6496,-5.341 218.6692,-5.2478 211.407,-5.0737 204.5307,-4.5856 198.3748,-4.1766 192.1726,-4.0389 185.7457,-3.5607 179.1399,-3.1377 172.5673,-2.9325 165.5899,-2.5257 157.9178,-2.2849 151.9227,-2.2913 147.6191,-2.2847 143.4091,-2.2549 139.3645,-2.174 135.2322,-1.9975 130.8863,-1.5925 126.5582,-1.2301 122.347,-1.0149 117.881,-0.548 113.3533,-0.0772 106.8086,0.519 98.2967,1.3754 91.9397,2.0185 85.9445,2.2634 78.6419,2.3414 71.7271,2.7669 65.4672,3.1501 60.06,3.3175 54.6412,3.6938 49.1303,3.9016 44.0963,3.8328 39.5321,3.7678 34.9991,3.7305 29.8209,3.8595 24.5677,4.2591 19.9874,4.5078 15.5702,4.4783 11.1452,4.4161 6.3463,4.1928 2.0913,3.8102 0.4649,3.6058 A3.6424,3.6424 0 0 1 1.4951,-3.6058 Z" stroke-linecap="round" fill="#f2f2f2"/></g></g><g transform="matrix(1, 0, 0, 1, 1761.2757, 15073.7105)" opacity="1"><g transform="scale(1)"><path d="M0.3592,-1.796 T2.8041,-1.2805 5.249,-0.765 A1.7796,1.7796 0 0 1 4.551,2.725 T2.0959,2.2605 -0.3592,1.796 A1.8315,1.8315 0 0 1 0.3592,-1.796 Z" stroke-linecap="round" fill="#4dabf7"/></g></g><g transform="matrix(1, 0, 0, 1, 1760.2962, 15075.6695)" opacity="1"><g transform="scale(1)"><path d="M-0.4389,-2.0926 T1.1872,-2.2981 5.2241,-3.0234 9.5889,-4.4996 13.6756,-6.9822 17.605,-9.8004 21.0753,-12.3617 24.8846,-15.3871 28.3854,-18.6674 30.8134,-21.9066 33.1371,-25.8156 35.5514,-29.7445 38.0036,-33.7748 40.443,-37.9356 42.9917,-42.0648 45.2891,-46.2976 47.1694,-50.1352 49.2284,-54.1671 50.8977,-58.2287 52.3679,-62.0274 54.1709,-66.4526 56.0294,-71.1138 57.9898,-75.8478 59.9242,-80.5704 61.81,-85.019 63.7486,-89.597 65.6953,-93.899 67.701,-98.4519 69.7063,-103.2325 71.5226,-107.7944 72.982,-112.0428 74.4782,-116.2829 76.3124,-121.5203 77.7813,-126.4874 78.8592,-130.6964 80.269,-135.7181 81.6162,-140.7846 82.353,-145.1346 83.2954,-150.1965 84.516,-155.7529 85.863,-161.6532 87.3692,-168.1134 88.4517,-174.4119 89.3468,-180.5486 90.0022,-186.5765 90.5855,-193.2765 91.3179,-200.5624 92.0937,-207.9982 92.7454,-215.1347 93.031,-221.6172 93.1425,-227.5509 93.2538,-232.8526 93.4974,-238.6589 93.6721,-241.9321 A3.2979,3.2979 0 0 1 100.2679,-241.9279 T100.3523,-240.202 100.5617,-235.7431 100.7185,-230.3737 100.7236,-224.6104 100.5511,-217.8731 99.9236,-210.6767 99.2746,-205.0747 98.7487,-199.7099 98.2087,-194.3656 97.6441,-189.1175 96.7585,-182.6618 95.7877,-176.4988 94.8778,-170.0668 93.5112,-163.3051 91.8508,-157.1257 90.5069,-151.6391 89.5236,-146.4498 88.6002,-141.3962 87.3979,-136.5823 86.1198,-131.4134 84.7917,-126.5052 83.0931,-121.4689 81.0851,-115.5199 79.3221,-110.2013 77.8227,-105.8553 76.2094,-101.6198 74.2478,-97.2864 72.0097,-92.4442 69.8466,-87.3424 67.7302,-82.4439 65.5946,-77.5752 63.7634,-73.1978 61.9792,-68.8684 60.1723,-64.4418 58.4204,-59.9162 56.5264,-55.1086 54.6119,-50.6712 52.6167,-46.5282 50.5664,-42.44 48.5711,-38.7077 46.2302,-34.9169 43.6789,-30.8283 41.238,-26.9011 39.0118,-23.2888 36.76,-19.6481 34.0783,-15.8913 31.0437,-12.7372 27.5286,-9.9342 23.8459,-6.9407 19.9563,-3.9152 15.4055,-0.8626 10.5052,1.5822 5.8696,3.0186 2.0576,3.7946 0.4389,4.0526 A3.1038,3.1038 0 0 1 -0.4389,-2.0926 Z" stroke-linecap="round" fill="#4dabf7"/></g></g><g transform="matrix(1, 0, 0, 1, 1655.4917, 14837.6556)" opacity="1"><g transform="scale(1)"><path d="M2.7839,0.98 T2.7745,3.0621 3.1035,8.4777 3.5443,14.9593 3.8969,20.8951 4.3724,26.5438 4.668,32.2145 5.1141,37.8097 5.8104,43.0102 6.3793,48.2193 6.7045,53.8054 7.0265,58.8855 7.5103,63.8252 8.0332,68.7198 8.5618,73.3645 9.3068,78.7773 10.2254,84.2926 11.1132,89.3522 12.0643,94.0001 13.2961,98.409 14.5498,102.6584 15.5637,106.9441 16.5592,111.3162 17.8715,115.7609 19.3119,120.1692 21.1658,124.4819 23.1128,128.8593 24.5394,133.0582 25.6737,137.3623 26.9122,141.7037 28.4823,145.9657 30.2031,150.5266 32.1176,155.0888 33.8332,159.4351 35.8083,164.6183 38.0219,170.0451 40.025,174.5748 42.1353,179.0545 45.022,184.3931 48.0613,189.4884 50.8236,193.6839 53.3377,197.6139 55.5162,201.3261 58.2764,205.0929 61.8408,209.1292 65.6197,212.9484 69.188,215.9742 72.8898,218.8363 76.4011,221.9641 79.4444,224.9292 83.0995,228.0441 87.0413,230.6071 90.8882,232.5793 95.2048,234.8388 99.4583,235.9238 104.1765,236.2313 109.0065,236.4705 112.7295,236.2703 114.3325,236.2568 A3.7228,3.7228 0 0 1 114.8675,243.6832 T112.1169,244.0685 106.7626,244.6138 101.897,244.3553 97.5093,243.6886 92.5063,242.0937 87.4381,239.5752 83.3252,237.3645 78.9693,234.544 75.0733,231.2889 72.1556,228.3603 68.7974,225.1693 65.1634,222.073 61.5495,218.7979 57.56,214.7186 54.0247,210.6482 50.7912,206.5197 48.0297,202.3894 45.892,198.5934 42.8984,194.1517 40.0617,189.7569 38.0261,186.2028 36.1134,182.5151 34.309,178.4557 32.3451,173.9562 30.2184,168.9169 28.2569,163.8619 26.4105,159.1546 24.4857,154.3717 22.6014,149.3088 20.6579,143.9296 19.0941,138.2161 17.7064,133.1898 15.7723,128.765 13.755,123.6822 11.9771,118.8728 10.6524,114.8267 9.6732,110.6231 8.7077,106.3382 7.6751,101.7939 6.5827,97.3782 5.5551,93.0005 4.6203,87.8718 3.8193,82.8066 3.0519,78.331 2.4861,74.1495 2.0425,69.4453 1.6135,64.495 1.2184,59.447 0.9243,54.0256 0.7001,48.9544 0.1707,43.8164 -0.5392,38.1004 -0.9387,32.4073 -1.1391,27.1367 -1.5699,21.3989 -1.9321,15.2242 -2.3957,8.6841 -2.7745,3.065 -2.7839,0.98 A2.7839,2.7839 0 0 1 2.7839,0.98 Z" stroke-linecap="round" fill="#4dabf7"/></g></g></svg>