<svg xmlns="http://www.w3.org/2000/svg" direction="ltr" width="2886.6206932602117" height="2106.2177318886315" viewBox="1251.5134438044015 8909.89320859292 2886.6206932602117 2106.2177318886315" stroke-linecap="round" stroke-linejoin="round" style="background-color: transparent;"><defs/><g transform="matrix(1, 0, 0, 1, 2555.4676, 8967.2309) scale(5.067546377726014, 5.067546377726014)" opacity="1"><g transform="scale(0.19733415847863145)"><path d="M5.8714,-2.3495 T8.2327,3.6598 12.6619,18.2446 13.4545,33.5814 11.8783,47.6126 11.5026,63.7181 11.4236,79.8591 11.4448,94.6855 10.0757,109.772 7.965,123.742 7.0595,139.2316 6.8526,156.3491 6.8682,171.4659 6.9385,184.8107 7.0239,200.2611 7.0913,215.4867 8.9158,228.0649 11.3301,242.5837 12.1305,259.4791 12.4059,276.9462 14.3434,294.1017 16.79,312.9164 17.5829,333.2738 17.8874,354.7645 18.0737,378.4013 18.2288,403.264 18.3635,428.4714 18.4701,452.5742 18.5352,470.543 18.5997,488.3442 18.6741,510.0952 18.7339,530.7765 18.7945,551.1607 18.8467,571.4625 18.8847,591.7413 19.9923,611.0069 22.1807,630.9884 23.5904,652.1843 24.005,672.7208 24.1644,693.0656 24.255,713.3565 24.3011,733.6324 24.3315,753.904 24.3608,774.1745 24.3674,790.5769 24.3641,807.9442 24.3944,829.4471 24.4355,846.1646 24.4647,862.4192 24.4991,881.8083 24.5243,901.2017 24.5353,919.3997 24.5428,936.0666 24.5333,953.5049 24.4977,970.5269 24.4539,988.0651 24.4224,1007.5474 26.2135,1027.0346 28.5584,1047.1152 29.247,1067.8966 29.4421,1084.4356 30.6424,1100.8298 32.542,1117.9273 33.6695,1130.9017 34.2577,1143.6762 34.6826,1163.1664 34.989,1187.3366 35.11,1205.326 35.163,1218.8663 35.212,1231.9784 36.3868,1244.0271 38.2437,1257.5982 39.3101,1271.556 39.961,1290.3176 42.1539,1313.5673 44.4424,1331.2213 45.133,1349.4972 46.5881,1370.3297 48.502,1386.6768 49.8238,1405.1457 50.5601,1427.1756 50.8077,1449.1613 50.9101,1470.5407 50.9574,1489.9176 50.9689,1509.3092 50.9601,1528.136 50.938,1546.1755 50.8994,1563.9963 50.8549,1581.7551 50.8141,1598.8672 50.7852,1614.6006 50.7688,1630.5819 50.7697,1647.8311 50.7778,1664.8017 50.7837,1681.1277 49.4444,1699.7465 47.3027,1717.1381 46.2694,1731.6762 45.9909,1748.4777 45.9582,1768.9785 45.9901,1792.3463 46.0195,1811.651 46.0508,1826.0296 46.1236,1841.9959 46.2113,1858.8011 46.2787,1876.0485 46.3459,1893.5266 46.394,1909.9271 46.4142,1925.7522 47.5505,1940.4498 49.345,1954.1067 50.296,1968.1405 52.1562,1988.0449 54.1851,2008.3021 54.6384,2015.9185 A9.0795,9.0795 0 0 1 36.5816,2017.8415 T35.4208,2010.3003 33.2476,1996.5988 30.6253,1983.4626 28.6338,1969.745 27.655,1956.8487 25.7876,1942.1486 24.5259,1925.7721 24.5462,1909.927 24.5944,1893.5264 24.6618,1876.0482 24.7297,1858.8006 24.8182,1841.9947 24.8927,1826.0273 24.9273,1811.6462 24.9702,1792.3311 25.0549,1768.9111 25.2125,1748.1958 25.6187,1730.6577 27.0513,1713.7959 29.2375,1697.1962 30.2963,1681.1277 30.3022,1664.8017 30.3103,1647.8311 30.3112,1630.5819 30.2948,1614.6006 30.2659,1598.8672 30.2251,1581.7552 30.1805,1563.9964 30.1418,1546.1758 30.119,1528.1369 30.108,1509.3121 30.1117,1489.9294 30.1305,1470.5731 30.1411,1454.3781 30.1018,1437.8821 29.8179,1417.2085 28.7262,1395.5666 26.4765,1372.8482 24.8222,1350.2165 23.6956,1327.9227 21.4887,1309.9069 19.91,1291.0353 19.3579,1272.971 18.4927,1260.1977 16.6846,1245.7799 15.4551,1232.0129 15.4926,1218.8824 15.5237,1205.3609 15.5514,1187.4314 15.4947,1163.4899 15.2824,1144.4759 14.3255,1126.4858 12.2226,1102.9006 10.8846,1079.5368 10.5784,1058.3602 9.4736,1039.1014 7.3069,1023.6783 5.9776,1007.6054 5.9461,988.0651 5.9023,970.5269 5.8667,953.5049 5.8572,936.0666 5.8647,919.3997 5.8757,901.2017 5.9009,881.8083 5.9353,862.4192 5.9645,846.1646 6.0056,829.4471 6.0359,807.9443 6.0325,790.577 6.0387,774.1748 6.0669,753.9053 6.0933,733.6369 6.1247,713.3728 6.1626,693.1237 6.1322,672.9285 5.8633,652.9249 4.8121,633.5804 2.6811,613.0206 1.3953,591.7413 1.4333,571.4625 1.4855,551.1607 1.5461,530.7765 1.6059,510.0952 1.6801,488.3442 1.7445,470.5432 1.809,452.5747 1.9135,428.473 2.0405,403.2699 2.1675,378.4231 2.2471,359.8911 2.25,343.6031 2.0249,323.7736 1.0178,305.1473 -1.0941,287.2315 -2.4288,268.7988 -2.6639,252.1162 -3.6607,238.1615 -5.772,223.6902 -7.0659,208.8553 -6.9782,193.5165 -6.8571,177.816 -6.7022,163.7868 -6.4135,148.521 -5.615,130.9095 -3.1682,115.35 -1.2944,101.3356 -1.2277,86.3883 -1.1154,71.8164 -0.8129,54.4444 1.0009,36.3643 0.7902,21.4276 -3.4365,8.3261 -5.8714,2.3495 A6.3241,6.3241 0 0 1 5.8714,-2.3495 Z" stroke-linecap="round" fill="#9398b0"/></g></g><g transform="matrix(1, 0, 0, 1, 1283.5134, 9950.3349) scale(5.067546377726014, 5.067546377726014)" opacity="1"><g transform="scale(0.19733415847863145)"><path d="M0,-7.6574 T8.3887,-7.6411 23.5962,-7.6408 36.4045,-7.6911 53.1502,-6.4255 71.3076,-4.6757 85.9862,-2.6466 99.957,-0.3818 113.7868,0.6586 128.9304,2.4285 144.1109,4.4703 158.654,5.4076 173.5065,5.8547 189.2092,7.2933 204.6789,9.1723 219.3282,10.0334 234.7854,9.242 251.3024,7.5352 267.8281,6.5593 284.3211,4.8527 301.3719,2.6855 317.4367,0.323 334.3795,-2.1703 352.4164,-3.581 369.6281,-5.452 388.3243,-7.6616 408.4065,-8.9117 428.5645,-9.5813 448.7722,-9.9576 469.0083,-10.2 489.2604,-10.3592 510.721,-10.4914 532.8173,-10.6467 554.0488,-10.8056 574.8258,-10.952 595.363,-11.0905 615.7739,-11.2068 637.3148,-11.3073 659.4513,-11.3967 680.7005,-11.461 700.8257,-12.6515 721.0189,-14.4766 741.9082,-15.4804 762.5051,-16.018 782.2716,-17.4892 802.2778,-19.5173 823.0836,-20.6649 842.9525,-22.4322 862.3267,-25.7263 881.5265,-28.7454 900.7383,-30.4173 919.825,-32.4244 939.4562,-34.6914 959.4063,-37.0677 979.506,-39.4865 1000.381,-40.8075 1020.2802,-42.6343 1040.3546,-44.8001 1061.2107,-46.0151 1081.7871,-46.6933 1101.5172,-48.241 1120.2467,-50.3226 1139.2176,-51.5247 1158.1264,-53.3153 1176.4128,-55.4927 1193.9565,-56.7146 1210.8618,-58.4906 1228.1312,-60.6441 1244.2962,-62.9293 1261.3121,-65.3532 1278.6918,-67.8335 1294.9486,-70.3305 1312.8308,-71.7596 1329.7913,-73.6009 1345.8594,-75.7665 1362.4008,-76.9839 1379.5498,-77.601 1396.099,-79.0391 1411.9711,-81.0082 1428.4059,-82.1237 1445.5023,-82.6947 1462.9027,-82.9606 1480.4465,-83.0449 1498.084,-83.0719 1515.7646,-83.0741 1533.4721,-83.0513 1551.1918,-83.0456 1568.9215,-83.0384 1586.6559,-83.0319 1604.3906,-83.0406 1622.1254,-83.0783 1639.8604,-83.1357 1656.4056,-83.1885 1674.3236,-82.0079 1692.188,-80.2298 1707.9813,-79.3611 1722.514,-80.0656 1737.3581,-81.6701 1753.3021,-82.5803 1767.9373,-84.1608 1782.8413,-86.2184 1798.8534,-87.3955 1814.4927,-87.983 1829.9252,-88.2842 1845.248,-88.4266 1860.5152,-88.4838 1875.7649,-88.4932 1891.9546,-87.2053 1906.5645,-85.3218 1919.2672,-84.3792 1933.0474,-83.8571 1947.5258,-83.5598 1961.1624,-83.392 1974.3614,-83.3062 1988.4858,-81.951 2006.924,-79.8044 2029.2622,-78.7499 2050.7573,-78.4663 2071.3499,-78.4077 2089.8771,-78.4055 2107.8319,-78.4154 2128.9125,-77.0577 2149.4413,-74.8865 2164.7799,-72.5067 2181.8028,-70.0316 2199.0939,-67.5508 2217.9403,-63.6275 2243.7704,-58.8893 2271.3144,-54.0439 2292.5753,-49.3806 2305.9739,-46.2895 2320.0008,-43.5312 2340.1001,-38.8592 2361.7571,-34.8516 2381.7925,-32.5198 2392.4143,-31.402 A11.1448,11.1448 0 0 1 2391.3457,-9.138 T2385.5836,-9.1128 2368.6877,-9.5266 2346.5316,-12.4507 2328.6977,-15.9336 2315.078,-18.6001 2300.2662,-21.5693 2286.2363,-24.7958 2272.5822,-28.3257 2258.28,-30.9112 2245.1364,-33.4314 2226.2918,-37.3999 2202.3608,-41.9408 2184.8272,-44.4596 2171.6704,-45.7696 2155.2335,-48.2147 2136.6539,-51.55 2117.5006,-53.346 2098.4805,-53.3613 2080.2977,-53.3959 2060.9535,-53.4764 2039.7151,-53.7059 2022.8551,-54.0788 2009.9636,-54.6742 1992.0717,-56.904 1974.1777,-58.7582 1960.9166,-58.82 1947.0788,-58.9322 1932.167,-59.1662 1917.4725,-59.6523 1903.4285,-60.6229 1890.029,-62.3696 1875.8135,-63.4287 1860.6534,-63.3499 1845.5108,-63.24 1830.4242,-63.0652 1815.4388,-62.7646 1800.6441,-62.21 1786.2006,-61.2199 1770.6082,-59.1653 1754.6605,-57.4842 1739.8572,-56.747 1723.6515,-55.2256 1706.5601,-54.549 1689.6305,-55.6101 1672.6872,-57.4937 1656.392,-58.711 1639.861,-58.7633 1622.1267,-58.8196 1604.393,-58.8555 1586.6604,-58.8608 1568.93,-58.8476 1551.2084,-58.8279 1533.5027,-58.7983 1515.8247,-58.7304 1498.1957,-58.6469 1480.6677,-58.5113 1463.3191,-58.287 1446.3456,-57.9673 1430.0519,-57.4271 1414.9722,-56.4342 1398.3387,-54.4024 1380.4923,-52.7991 1364.2101,-52.1956 1349.1503,-51.097 1332.5478,-48.8678 1314.8088,-46.9203 1298.6831,-45.7105 1282.2444,-43.2002 1264.8771,-40.7294 1247.804,-38.3089 1231.1194,-35.9433 1213.3407,-33.8133 1195.5765,-32.0116 1179.1692,-30.9951 1160.3265,-28.9253 1140.626,-27.207 1122.7205,-26.3014 1103.3113,-24.3837 1082.5074,-22.8931 1062.5553,-22.3563 1042.8931,-21.2659 1022.4689,-19.0571 1001.9065,-17.1245 982.3902,-15.8535 962.2322,-13.3539 942.178,-10.9478 922.2856,-8.6905 902.7609,-6.663 885.0924,-5.2297 866.1459,-2.3567 844.972,0.9794 824.2853,2.7009 804.5217,3.632 783.941,5.5483 763.0876,7.0111 742.9928,7.4906 723.0542,8.4168 702.1611,10.2537 680.7097,11.4616 659.4519,11.3979 637.3159,11.3096 615.776,11.211 595.3669,11.0985 574.833,10.9673 554.062,10.8345 532.8409,10.7016 510.7678,10.5956 489.3522,10.5569 469.1817,10.5751 449.1006,10.6693 429.191,10.9319 409.6112,11.4745 390.6757,12.5247 371.7203,14.6798 353.873,16.5406 337.2286,17.6605 320.207,19.9693 303.6587,22.1682 286.1101,24.106 268.7851,25.6473 252.9755,26.2931 235.4293,27.6632 218.0948,28.1599 202.3563,26.9147 187.4492,24.7972 172.805,23.2025 157.3671,22.4444 141.7181,21.0948 126.8932,18.797 112.3945,16.8741 97.271,15.4487 83.587,13.0346 68.5332,10.7357 50.9989,8.8236 36.4045,7.6911 23.5962,7.6408 8.3887,7.6411 0,7.6574 A7.6574,7.6574 0 0 1 0,-7.6574 Z" stroke-linecap="round" fill="#9398b0"/></g></g><g transform="matrix(1, 0, 0, 1, 3209.1811, 9884.4568) scale(5.067546377726014, 5.067546377726014)" opacity="1"><g transform="scale(0.19733415847863145)"><path d="M6.1143,0 T6.1775,11.9858 6.2756,29.7208 6.3105,35.47 A6.3105,6.3105 0 0 1 -6.3105,35.47 T-6.2756,29.7208 -6.1775,11.9858 -6.1143,0 A6.1143,6.1143 0 0 1 6.1143,0 ZM-6.3105,35.47 T-6.3158,31.6907 -5.0571,20.7544 -3.1721,6.805 -2.1906,-7.1761 -1.1505,-23.8599 3.4576,-36.4001 11.0816,-32.5867 16.3877,-18.8778 20.0655,-4.8976 23.2869,11.3495 25.0004,27.5608 26.1706,42.4049 26.7815,50.1551 A6.5326,6.5326 0 0 1 13.7585,51.2049 T13.1201,43.4569 11.9196,28.8926 10.384,13.8997 7.4402,-1.7701 6.3039,-18.2313 8.4834,-28.3166 10.1574,-21.6195 10.1805,-6.3416 9.2321,8.4811 7.4552,21.894 6.3158,31.7088 6.3105,35.47 A6.3105,6.3105 0 0 1 -6.3105,35.47 Z" stroke-linecap="round" fill="#9398b0"/></g></g><g transform="matrix(1, 0, 0, 1, 2053.7805, 9919.9297) scale(5.067546377726014, 5.067546377726014)" opacity="1"><g transform="scale(0.19733415847863145)"><path d="M-6.4712,-1.2947 T-5.2483,-7.2565 -4.32,-16.6775 -4.6146,-20.1368 A6.5543,6.5543 0 0 1 8.4742,-20.8569 T8.6479,-15.8052 7.6464,-4.7294 6.4712,1.2947 A6.5994,6.5994 0 0 1 -6.4712,-1.2947 ZM8.3732,-19.2962 T7.9193,-16.8354 5.2842,-6.39 2.5549,10.7231 1.7295,26.3408 6.514,37.4645 13.6955,51.4282 16.328,70.5039 16.9293,90.7521 17.0183,101.2537 A6.879,6.879 0 0 1 3.2617,101.4463 T3.0579,91.0383 2.6054,71.4444 0.0027,53.1528 -6.8414,39.0597 -11.2696,26.6758 -10.5348,9.3067 -7.6466,-8.7439 -4.9724,-19.2595 -4.5135,-21.6975 A6.5543,6.5543 0 0 1 8.3732,-19.2962 Z" stroke-linecap="round" fill="#9398b0"/></g></g><g transform="matrix(1, 0, 0, 1, 2525.0623, 9286.4864) scale(5.067546377726014, 5.067546377726014)" opacity="1"><g transform="scale(0.19733415847863145)"><path d="M-6.321,-6.321 T-1.4197,-11.0281 13.3632,-20.6259 33.1851,-28.6064 53.7329,-32.7188 68.2573,-33.9384 72.174,-34.1357 A9.129,9.129 0 0 1 72.8704,-15.8909 T69.1062,-15.795 55.996,-15.1092 37.4591,-11.8047 21.9811,-6.2651 11.0075,1.4404 6.321,6.321 A8.9392,8.9392 0 0 1 -6.321,-6.321 ZM64.8551,-29.9685 T65.6922,-31.2369 66.5292,-32.5053 A9.0999,9.0999 0 0 1 81.8146,-22.6266 T81.002,-21.3424 80.1894,-20.0582 A9.129,9.129 0 0 1 64.8551,-29.9685 ZM70.7028,-19.1533 T65.2442,-21.5334 51.382,-26.4593 35.3163,-30.3149 23.4909,-32.1855 19.3275,-32.7463 A7.8505,7.8505 0 0 1 21.2125,-48.3337 T25.3897,-47.8859 39.0451,-46.1246 57.7556,-42.4623 72.3144,-38.046 77.6411,-35.9786 A9.0999,9.0999 0 0 1 70.7028,-19.1533 ZM23.6427,-47.6291 T26.4066,-46.3103 36.5883,-44.5663 56.8766,-46.1072 69.7472,-48.0734 A7.6288,7.6288 0 0 1 72.1528,-33.0066 T64.9558,-31.7716 50.4625,-29.3689 32.6188,-29.5991 19.4844,-32.2239 16.8973,-33.4509 A7.8505,7.8505 0 0 1 23.6427,-47.6291 Z" stroke-linecap="round" fill="#9398b0"/></g></g><g transform="matrix(1, 0, 0, 1, 2545.3325, 10492.5624) scale(5.067546377726014, 5.067546377726014)" opacity="1"><g transform="scale(0.19733415847863145)"><path d="M1.9173,-5.7499 T9.157,-3.5039 29.0899,1.3988 41.7831,4.0554 A6.2103,6.2103 0 0 1 39.2969,16.2246 T32.3966,14.8563 18.9337,12.1691 5.2269,8.3001 -1.9173,5.7499 A6.0612,6.0612 0 0 1 1.9173,-5.7499 Z" stroke-linecap="round" fill="#9398b0"/></g></g><g transform="matrix(1, 0, 0, 1, 2560.5351, 9271.2837) scale(5.067546377726014, 5.067546377726014)" opacity="1"><g transform="scale(0.19733415847863145)"><path d="M-5.4884,-7.3191 T-0.5782,-10.8353 10.4566,-16.8104 25.1427,-19.2407 42.5184,-17.7227 60.945,-14.3014 79.8154,-9.9411 98.038,-4.9824 114.6417,-1.6154 128.0742,0.7777 143.9827,4.6396 161.3819,7.9572 176.8372,11.1427 192.7814,15.71 209.4704,22.1869 226.3014,31.0709 241.358,38.7272 256.0656,46.776 270.8378,56.8009 284.5835,66.3991 297.9698,76.6833 311.8062,87.0653 327.62,98.2708 343.9273,110.3075 356.5679,120.2686 369.2672,130.3868 381.3087,141.0709 392.9019,151.5673 404.4031,161.3513 412.8425,170.6244 423.4861,183.1735 438.3156,198.437 453.6678,212.138 468.0235,224.8204 481.5284,237.8614 493.6062,251.6964 505.4439,265.8612 518.0735,280.4455 529.6063,294.3707 539.905,307.7462 550.037,320.5812 559.823,334.2396 570.2359,349.6518 581.1709,365.8917 590.104,383.285 597.8373,398.7432 605.1636,412.2519 611.0095,426.0687 617.4731,441.5233 624.7274,457.9293 631.3401,474.6324 636.0819,490.5298 639.992,505.1387 644.6275,519.0918 649.8074,536.3708 653.1956,553.4091 655.892,568.2043 658.5528,585.2152 659.4329,602.2553 659.7397,617.3924 659.8852,630.7512 659.9823,643.6103 660.059,656.3347 658.5792,671.6268 656.3202,689.3017 653.5457,706.1002 649.5037,723.0136 646.7872,737.7901 642.2635,752.7668 635.8646,768.7332 630.4352,782.8138 625.1867,796.7977 620.2969,811.3543 615.0058,825.6182 607.6847,841.3745 598.2497,858.2692 590.748,872.2137 582.8747,885.7463 572.795,900.338 563.2933,913.9187 553.387,928.6999 541.7281,946.2515 529.6107,963.0078 518.1302,977.7036 505.1283,992.4626 492.3267,1005.7874 481.9588,1018.1246 471.7884,1030.7334 461.1876,1042.0979 448.7944,1053.352 436.6809,1065.1798 426.2222,1076.8993 414.8439,1086.6857 404.5084,1094.7605 393.3564,1106.0283 380.6065,1118.7732 369.5549,1129.1748 359.517,1139.0634 346.5496,1148.5002 333.8509,1156.6483 323.9703,1165.0853 313.1739,1173.4691 302.1788,1180.0218 288.8226,1186.9621 272.5188,1194.6604 257.1747,1201.9619 243.8417,1209.0798 229.867,1215.9339 214.1433,1221.9841 198.5221,1227.1613 179.8512,1231.6717 162.9715,1235.6765 147.3268,1238.5039 130.3737,1241.207 114.1449,1243.7722 95.8515,1244.5626 76.7559,1243.3282 59.7199,1241.184 43.1131,1238.2821 22.2341,1234.2456 4.4287,1230.2122 -8.4339,1225.8398 -20.5068,1220.8701 -35.7759,1213.186 -54.3282,1205.0423 -72.3165,1197.2569 -88.4502,1189.3599 -105.2526,1181.3212 -123.784,1171.9767 -138.2469,1163.0953 -151.7812,1153.1046 -169.0529,1139.9156 -185.8467,1126.8393 -200.6291,1115.9712 -212.2042,1105.8748 -222.7625,1095.776 -236.9988,1083.1093 -248.43,1070.7545 -258.4581,1060.4314 -272.7982,1047.8703 -287.7076,1035.1385 -298.4869,1024.7173 -308.7805,1014.5107 -321.7792,1001.5657 -334.5191,988.8043 -347.1615,976.0766 -360.4976,961.3653 -373.2844,946.2615 -384.5306,930.5958 -394.3588,913.6042 -403.4241,896.872 -411.287,884.188 -420.3137,871.3825 -429.9399,858.6698 -437.0321,848.3726 -445.0365,833.8699 -453.8145,815.6451 -462.4408,799.072 -468.9915,785.2847 -474.5802,772.3846 -479.9811,759.5337 -484.6244,743.3495 -489.4709,723.7788 -492.4371,707.0534 -494.0011,693.7275 -496.7453,677.5507 -499.511,660.48 -500.5078,640.8702 -501.1095,621.0283 -501.333,607.7277 -501.495,594.727 -501.6206,581.8583 -500.4234,567.7619 -496.9291,547.4678 -492.2462,524.4735 -487.3439,503.3528 -482.832,486.6745 -478.3565,474.1667 -473.0344,457.5907 -465.9791,440.349 -456.6341,422.3222 -448.7866,405.6684 -439.4934,388.0101 -429.8024,370.2688 -423.9552,359.4163 -417.0265,347.2464 -409.7629,334.8071 -403.8181,323.9299 -393.1162,307.5441 -378.2581,287.5284 -363.4901,270.1945 -347.623,252.9339 -332.639,235.7405 -317.9121,219.181 -305.4413,206.227 -291.8566,193.8524 -275.4535,178.9887 -260.9001,165.346 -248.3764,152.6401 -237.6544,141.5958 -224.1861,130.5338 -206.2536,118.4274 -188.4796,107.818 -175.507,97.4804 -165.4264,88.159 -150.4729,78.4089 -132.221,67.7694 -117.364,60.8605 -102.6121,55.5876 -86.1296,49.2164 -70.4686,41.5522 -55.1364,32.7393 -38.1653,23.5846 -22.7157,16.1281 -9.7757,11.7844 5.9928,8.8167 19.5443,7.2265 23.9637,7.0467 A13.2947,13.2947 0 0 1 26.7163,33.4933 T17.7512,35.1938 -0.6745,39.8052 -16.5823,45.4383 -30.8565,54.0047 -47.2443,64.5833 -65.7701,74.4737 -83.7173,81.9638 -99.1688,87.2507 -116.5202,95.8162 -133.9116,106.1366 -147.3364,115.9235 -162.8504,128.5668 -181.2171,140.8572 -197.033,150.6401 -210.2217,160.8206 -223.7443,174.4844 -235.5902,187.2266 -246.8463,196.8516 -258.4696,207.5758 -270.238,218.813 -285.8088,233.5824 -301.5958,250.2394 -316.1767,265.8337 -331.7192,283.2978 -346.7269,300.7161 -357.6081,313.8355 -366.8663,326.6425 -375.1454,339.654 -381.5538,351.2814 -388.6387,363.3523 -395.2854,374.9479 -401.5554,386.4477 -410.9582,403.4297 -419.7031,419.8245 -425.1061,430.826 -431.3918,443.7229 -439.0739,458.7571 -446.9747,478.3821 -454.2254,500.4467 -460.2544,520.878 -465.1454,541.5872 -469.3769,563.9804 -471.2852,581.8429 -471.3621,594.6177 -471.4318,607.5332 -471.4802,620.6656 -471.3365,639.7387 -470.4021,662.0428 -468.0753,678.9599 -465.7299,696.1784 -462.9161,717.4135 -458.314,737.589 -453.013,754.7126 -447.2871,770.5773 -439.2925,787.3998 -429.9039,806.2114 -421.981,823.1326 -413.2785,837.7739 -403.2259,850.8965 -392.999,865.3372 -383.6236,880.4139 -376.6231,893.7124 -369.0682,909.23 -359.3303,924.5769 -348.7193,938.6328 -336.4203,952.6221 -323.7136,965.2164 -310.9841,977.8388 -298.1839,990.4801 -287.2807,1000.1166 -277.0279,1010.0417 -264.4806,1022.516 -249.2256,1035.4549 -236.2384,1046.0313 -225.6331,1056.9874 -212.9981,1069.9216 -200.9846,1080.5523 -191.1089,1089.7543 -178.1365,1100.6076 -164.9146,1110.3716 -152.5184,1119.8771 -140.2704,1128.7679 -127.7976,1138.1226 -110.9937,1149.1298 -94.8068,1157.4876 -81.9265,1162.9502 -68.11,1169.4288 -53.2865,1177.4469 -35.0122,1185.3078 -15.0974,1193.9967 5.1305,1202.3637 27.2488,1207.975 46.4221,1211.6906 64.5057,1214.8812 80.1242,1216.9471 94.9955,1217.7123 111.3108,1217.0851 127.4336,1214.5461 145.5623,1211.5489 164.5168,1208.3644 181.4835,1203.5843 196.9215,1198.4744 212.194,1193.4592 225.565,1187.8752 237.905,1182.0849 253.7191,1174.4568 269.6713,1167.5246 282.9202,1160.7893 295.2498,1153.1213 306.5106,1145.0635 319.3629,1134.5375 333.7188,1124.642 345.9404,1115.056 356.2247,1105.0489 367.7193,1095.4772 377.8095,1085.3172 387.2585,1074.6484 399.8841,1064.1701 412.1839,1053.0329 421.9618,1042.3719 431.729,1033.1659 442.0328,1023.7553 451.8063,1013.4287 462.2813,1000.6505 473.5353,987.4785 485.8711,974.8371 497.48,961.9925 505.7073,951.1973 515.3423,938.8799 526.6236,923.8455 537.4354,906.7746 547.6646,891.9847 557.0253,879.5505 565.4747,866.273 573.0118,853.0501 581.2153,839.0728 588.4632,824.1821 594.7881,810.1596 600.658,796.5542 605.9178,781.8806 611.3219,767.0164 618.2863,750.1144 624.045,731.8411 627.0561,716.287 630.452,703.0764 633.0345,688.3189 635.4538,671.3572 637.2377,656.3393 637.306,643.6294 637.3727,630.8085 637.4087,617.6034 637.3213,602.9938 636.7821,587.4442 634.3323,570.7212 631.5081,553.6629 628.0815,535.4537 622.7951,518.5684 617.2859,501.327 611.5899,483.1166 604.5219,465.2522 597.5224,449.4376 592.1928,436.5888 586.4709,423.0303 578.516,408.404 570.757,393 563.4373,378.3462 553.9623,364.666 546.2025,352.152 538.4309,340.59 527.6967,328.3634 517.2271,315.0535 507.0698,301.4644 494.6858,286.9915 481.9208,272.9261 471.2602,260.1937 459.074,247.1833 445.7285,234.6915 431.7685,221.5992 418.8249,209.9817 409.4971,201.4519 399.3657,189.4068 386.1789,175.3458 371.5076,161.8347 355.6407,148.3299 338.1852,134.9648 321.7406,121.7315 306.8532,110.2344 292.1286,99.7546 277.4653,89.1748 264.5276,79.4415 251.9631,70.0724 238.3793,61.6426 223.1232,53.8017 207.4928,45.5047 193.075,38.9866 178.1232,34.1685 163.573,30.1629 147.94,26.0084 129.8475,21.2791 109.7735,17.1951 91.0463,12.8887 74.3168,7.9542 55.5146,3.0629 39.1753,-0.4568 23.9849,-0.7806 10.1659,3.6457 5.4884,7.3191 A9.1483,9.1483 0 0 1 -5.4884,-7.3191 Z" stroke-linecap="round" fill="#9398b0"/></g></g><g transform="matrix(1, 0, 0, 1, 3371.3426, 9022.974) scale(5.067546377726014, 5.067546377726014)" opacity="1"><g transform="scale(0.19733415847863145)"><path d="M10.5678,-1.1747 T12.2077,9.5634 14.8178,31.0505 16.3845,52.2767 17.2251,71.8654 17.4082,88.2679 15.7891,101.1009 14.2308,106.6427 A12.198,12.198 0 0 1 -9.1043,99.5265 T-8.362,97.5241 -7.8654,88.4977 -8.2182,72.5223 -8.3947,53.4163 -8.7577,33.0536 -9.8096,12.0101 -10.5678,1.1747 A10.6329,10.6329 0 0 1 10.5678,-1.1747 ZM7.4474,114.2621 T3.5201,115.6767 -0.4071,117.0912 A11.6455,11.6455 0 0 1 -9.7329,95.7488 T-6.0268,93.8279 -2.3208,91.907 A12.198,12.198 0 0 1 7.4474,114.2621 Z" stroke-linecap="round" fill="#4dabf7"/></g></g><g transform="matrix(1, 0, 0, 1, 3351.0724, 8992.5687) scale(5.067546377726014, 5.067546377726014)" opacity="1"><g transform="scale(0.19733415847863145)"><path d="M0,-12.893 T5.9329,-12.7486 18.6522,-14.3637 40.7406,-14.3356 63.3094,-10.1344 77.8286,-3.5821 94.6739,9.0691 107.2712,23.9003 112.9575,40.9578 113.8441,57.5737 107.4477,68.8545 97.8067,77.8026 86.4864,83.6072 71.3853,88.7477 54.5485,94.093 39.7502,98.2398 32.9681,99.9215 A12.4543,12.4543 0 0 1 24.2882,76.5741 T32.133,74.1062 47.6573,68.7676 63.4837,62.7497 78.8106,56.2521 85.1197,46.8634 81.3862,35.1572 70.0542,23.463 55.3891,15.1097 43.0532,10.5798 30.4802,9.0793 18.0766,11.1929 6.0529,12.7486 0,12.893 A12.893,12.893 0 0 1 0,-12.893 ZM37.9698,80.0111 T41.5354,84.1013 51.4095,91.6969 63.1806,99.3074 77.7174,108.7066 94.684,119.9172 108.6727,131.7262 114.7689,137.6189 A12.5284,12.5284 0 0 1 98.0711,156.3011 T91.962,151.2849 79.7394,141.5507 68.4363,133.7432 54.2147,123.8824 36.243,111.2977 23.2948,100.9843 19.2864,96.4845 A12.4543,12.4543 0 0 1 37.9698,80.0111 Z" stroke-linecap="round" fill="#4dabf7"/></g></g><g transform="matrix(1, 0, 0, 1, 3518.3014, 9088.8521) scale(5.067546377726014, 5.067546377726014)" opacity="1"><g transform="scale(0.19733415847863145)"><path d="M-4.7601,-9.5156 T0.1041,-11.6122 5.9201,-15.7896 6.872,-17.8705 A9.6193,9.6193 0 0 1 25.7448,-21.6041 T25.8929,-16.6082 20.1241,-3.7479 9.4837,6.816 4.7601,9.5156 A10.6398,10.6398 0 0 1 -4.7601,-9.5156 ZM15.8529,-10.1288 T13.4167,-10.2759 8.9707,-3.5543 4.5343,11.6266 6.7658,13.7964 16.1215,1.5796 20.8189,-4.4947 A9.545,9.545 0 0 1 36.8517,5.8679 T32.3649,12.4326 22.1841,26.1262 11.3579,36.7787 0.1179,39.9151 -10.9455,34.7639 -17.1096,23.445 -15.4536,7.6579 -8.6638,-10.8245 3.1331,-24.8152 13.8843,-29.4507 16.7638,-29.3458 A9.6193,9.6193 0 0 1 15.8529,-10.1288 ZM37.0121,-4.2376 T39.8553,0.9244 45.8889,12.0857 53.1023,23.3999 60.8045,30.3933 64.4837,32.0719 A9.2306,9.2306 0 0 1 57.1363,49.0081 T48.2848,44.6073 36.1953,34.162 28.7567,19.6596 22.6073,8.4063 20.6585,5.6107 A9.545,9.545 0 0 1 37.0121,-4.2376 Z" stroke-linecap="round" fill="#4dabf7"/></g></g><g transform="matrix(1, 0, 0, 1, 3629.7874, 9098.9871) scale(5.067546377726014, 5.067546377726014)" opacity="1"><g transform="scale(0.19733415847863145)"><path d="M-6.017,-8.024 T-1.2761,-11.4448 2.1808,-21.7894 -2.9957,-23.4845 -7.9534,-11.1706 -9.4744,5.1898 -8.99,16.7816 -8.0498,19.0984 A10.0414,10.0414 0 0 1 -27.323,24.7434 T-28.6144,19.441 -29.4464,3.808 -26.7562,-17.3151 -19.3051,-35.6204 -8.2418,-45.6839 3.8909,-46.9298 16.0522,-38.937 22.6102,-21.7883 19.5037,-5.4205 10.8638,4.2552 6.017,8.024 A10.0294,10.0294 0 0 1 -6.017,-8.024 ZM-13.3413,12.8683 T-9.397,14.7931 0.861,13.4082 14.2004,-3.3238 23.2056,-24.7798 27.7179,-42.3997 31.5531,-62.3678 32.4414,-83.795 30.7687,-104.1899 28.839,-121.3118 26.1073,-134.8071 24.0468,-140.5302 A8.7784,8.7784 0 0 1 40.5432,-146.5389 T43.3849,-138.8032 47.1056,-123.6856 49.6678,-105.9988 51.9681,-83.0866 51.2942,-58.7232 47.6147,-37.2799 42.418,-17.2481 34.9222,1.6701 24.7159,18.3886 11.2873,31.0435 -4.9057,35.3539 -17.6101,33.064 -22.0315,30.9736 A10.0414,10.0414 0 0 1 -13.3413,12.8683 ZM40.963,-142.1469 T40.4419,-139.3774 40.6258,-125.3524 43.1191,-105.6156 47.1202,-87.8591 50.7348,-68.4035 54.1156,-48.6224 58.2988,-30.5001 61.7534,-14.5563 65.0302,-1.8901 67.0565,3.3536 A9.2235,9.2235 0 0 1 54.5635,16.9264 T49.0065,6.4601 42.4442,-10.6839 39.3627,-26.4949 35.6849,-45.8851 33.2412,-65.4496 30.354,-84.2676 26.5684,-102.7505 23.8569,-125.5227 23.2565,-142.1224 23.627,-144.9222 A8.7784,8.7784 0 0 1 40.963,-142.1469 Z" stroke-linecap="round" fill="#4dabf7"/></g></g><g transform="matrix(1, 0, 0, 1, 3721.0033, 9083.7845) scale(5.067546377726014, 5.067546377726014)" opacity="1"><g transform="scale(0.19733415847863145)"><path d="M6.7798,-1.9382 T9.4122,6.3839 13.5229,20.7563 13.8253,32.2844 12.6494,37.7621 A7.9184,7.9184 0 0 1 -2.5094,33.1779 T-2.4808,26.0133 -4.616,10.3934 -6.7798,1.9382 A7.0514,7.0514 0 0 1 6.7798,-1.9382 ZM-2.8484,35.47 T-2.7778,30.405 -2.7073,25.34 A7.7773,7.7773 0 0 1 12.8473,25.34 T12.9178,30.405 12.9884,35.47 A7.9184,7.9184 0 0 1 -2.8484,35.47 Z" stroke-linecap="round" fill="#4dabf7"/></g></g><g transform="matrix(1, 0, 0, 1, 3721.0033, 8941.8932) scale(5.067546377726014, 5.067546377726014)" opacity="1"><g transform="scale(0.19733415847863145)"><path d="M4.1052,-4.1052 T8.9875,0.6625 16.9676,11.0419 25.3167,27.2715 30.568,37.8894 A5.8616,5.8616 0 0 1 20.112,43.1906 T17.2418,37.6557 9.8386,22.933 0.6002,8.9252 -4.1052,4.1052 A5.8056,5.8056 0 0 1 4.1052,-4.1052 Z" stroke-linecap="round" fill="#4dabf7"/></g></g><g transform="matrix(1, 0, 0, 1, 3771.6787, 9058.4468) scale(5.067546377726014, 5.067546377726014)" opacity="1"><g transform="scale(0.19733415847863145)"><path d="M5.2884,-7.9274 T9.0562,-5.2753 16.0959,2.5873 21.4104,16.5158 23.9952,33.7646 24.6544,45.4573 24.7716,48.6191 A9.7462,9.7462 0 0 1 5.2852,49.1053 T5.2484,46.0941 4.9068,35.3832 3.0785,19.9495 -1.8666,10.0715 -5.2884,7.9274 A9.5295,9.5295 0 0 1 5.2884,-7.9274 ZM21.0071,41.1652 T24.2609,43.8123 31.4455,41.5376 38.9909,29.1461 45.1249,12.3708 47.6445,3.0654 A8.34,8.34 0 0 1 63.8355,7.0746 T62.6342,12.5109 57.9583,28.4226 47.3576,48.5626 34.8906,61.2513 23.3215,63.4216 13.0714,59.5635 9.0497,56.5592 A9.7462,9.7462 0 0 1 21.0071,41.1652 ZM64.0778,5.2626 T63.9741,9.4527 65.8645,21.5034 71.3387,37.8309 79.2623,50.3785 83.8001,53.6685 83.8944,52.8779 A9.1925,9.1925 0 0 1 87.4287,70.9199 T78.2386,68.7826 63.5779,60.0811 54.4689,42.722 49.0137,23.148 47.2995,9.6231 47.4022,4.8774 A8.34,8.34 0 0 1 64.0778,5.2626 ZM77.4246,57.8179 T78.8412,55.2151 81.8268,49.708 83.396,46.8036 A8.7316,8.7316 0 0 1 99.044,54.5564 T97.6839,57.5644 95.1111,63.2761 93.8985,65.9799 A9.1925,9.1925 0 0 1 77.4246,57.8179 Z" stroke-linecap="round" fill="#4dabf7"/></g></g><g transform="matrix(1, 0, 0, 1, 3893.2998, 9053.3792) scale(5.067546377726014, 5.067546377726014)" opacity="1"><g transform="scale(0.19733415847863145)"><path d="M-2.0812,-10.4018 T4.0731,-11.465 15.1792,-11.9874 20.1309,-11.4465 A10.3456,10.3456 0 0 1 16.4738,8.9189 T15.109,8.3254 7.9127,9.0669 2.0812,10.4018 A10.6079,10.6079 0 0 1 -2.0812,-10.4018 ZM28.4395,-3.3299 T29.2138,0.7469 28.3576,12.6833 28.3352,27.2247 33.9957,38.459 42.8266,51.4619 49.0371,67.0936 44.8007,84.0617 29.9391,97.2371 14.4657,100.9222 1.9121,101.4857 -4.3615,101.7528 A10.5566,10.5566 0 0 1 -5.7785,80.6872 T5.4372,79.6519 22.8413,77.2125 27.6381,69.5404 21.9281,57.4961 12.902,45.3078 6.8307,30.9935 7.4629,14.8428 8.812,3.6983 8.1652,0.8023 A10.3456,10.3456 0 0 1 28.4395,-3.3299 Z" stroke-linecap="round" fill="#4dabf7"/></g></g><g transform="matrix(1, 0, 0, 1, 4090.9341, 9002.7038) scale(5.067546377726014, 5.067546377726014)" opacity="1"><g transform="scale(0.19733415847863145)"><path d="M9.4212,-3.5324 T13.176,6.0086 19.2452,26.194 22.8025,48.5416 24.7437,72.372 25.8346,94.4467 26.4485,113.2502 26.6567,129.3348 26.6435,136.5633 A11.4464,11.4464 0 0 1 3.7565,137.0767 T3.4177,129.7875 3.008,113.7738 2.7751,95.2794 2.2592,73.8651 1.1513,51.5596 -1.0771,31.85 -5.9864,13.1668 -9.4212,3.5324 A10.0617,10.0617 0 0 1 9.4212,-3.5324 ZM3.7539,136.896 T3.89,129.9728 4.2578,119.727 4.4894,116.4044 A10.7116,10.7116 0 0 1 25.9106,116.6956 T26.0518,120.0233 26.4196,130.0475 26.6461,136.744 A11.4464,11.4464 0 0 1 3.7539,136.896 Z" stroke-linecap="round" fill="#4dabf7"/></g></g><g transform="matrix(1, 0, 0, 1, 4090.9341, 8987.5011) scale(5.067546377726014, 5.067546377726014)" opacity="1"><g transform="scale(0.19733415847863145)"><path d="M8.9329,5.9543 T4.2829,13.2422 -5.1427,28.0392 -17.8786,44.0221 -33.3531,56.9815 -48.0402,65.5996 -55.2132,69.7322 A10.5323,10.5323 0 0 1 -66.4068,51.8878 T-59.5641,47.2286 -47.656,39.1639 -35.7728,29.2589 -23.8817,15.4986 -13.8706,1.1418 -8.9329,-5.9543 A10.7355,10.7355 0 0 1 8.9329,5.9543 Z" stroke-linecap="round" fill="#4dabf7"/></g></g><g transform="matrix(1, 0, 0, 1, 3219.3162, 9894.5919) scale(5.067546377726014, 5.067546377726014)" opacity="1"><g transform="scale(0.19733415847863145)"><path d="M-5.153,7.7244 T-8.6678,5.2389 -18.4149,-0.9771 -27.5203,-11.2672 -27.7816,-27.3124 -16.2572,-38.6242 -1.197,-35.009 8.2058,-23.6327 10.9002,-12.8969 10.3391,-8.0963 A9.151,9.151 0 0 1 -7.2944,-12.9976 T-10.3589,-15.1942 -7.81,-14.8684 1.4782,-10.0351 5.153,-7.7244 A9.2854,9.2854 0 0 1 -5.153,7.7244 ZM5.4123,-2.2639 T2.6274,-0.9909 -8.6932,0.2687 -23.0745,-2.9578 -31.1076,-12.5317 -33.2951,-18.8925 A8.9165,8.9165 0 0 1 -15.7104,-21.8578 T-11.7704,-19.0263 -5.099,-17.5124 -2.3676,-18.83 A9.151,9.151 0 0 1 5.4123,-2.2639 ZM-29.4005,-27.8261 T-25.7218,-30.1713 -14.5742,-33.4568 0.5673,-32.1855 11.3346,-20.7936 14.4292,-11.6132 A9.9237,9.9237 0 0 1 -5.2342,-8.9163 T-3.7361,-12.4719 -9.1449,-15.7166 -17.8284,-14.165 -19.6051,-12.9243 A8.9165,8.9165 0 0 1 -29.4005,-27.8261 ZM8.7614,-1.2569 T3.6844,1.0041 -7.7837,3.8379 -22.1279,-0.3946 -32.3541,-7.2401 -34.6274,-9.2803 A9.6945,9.6945 0 0 1 -21.6817,-23.7144 T-13.6639,-20.0025 -2.6063,-17.7816 0.4336,-19.2726 A9.9237,9.9237 0 0 1 8.7614,-1.2569 ZM-31.7473,-25.5015 T-27.3275,-26.9872 -19.8226,-28.8654 -16.7374,-29.2579 A9.1185,9.1185 0 0 1 -13.6626,-11.2821 T-16.7029,-10.6268 -22.1524,-8.7324 -24.5618,-7.4932 A9.6945,9.6945 0 0 1 -31.7473,-25.5015 Z" stroke-linecap="round" fill="#ffc034"/></g></g><g transform="matrix(1, 0, 0, 1, 3204.1135, 9879.3893) scale(5.067546377726014, 5.067546377726014)" opacity="1"><g transform="scale(0.19733415847863145)"><path d="M-9.0492,-1.8106 T-7.7508,-7.7832 -5.4591,-21.1403 -4.1182,-36.5211 -5.8901,-51.6882 -10.5467,-66.3788 -15.4315,-81.0229 -20.6017,-93.9183 -25.7712,-106.5743 -30.9829,-119.3115 -37.9131,-131.6011 -44.856,-143.5811 -51.4477,-155.2935 -59.1231,-170.0288 -68.0102,-186.4309 -76.7855,-200.5906 -83.5934,-213.8176 -89.8373,-226.9703 -95.9021,-238.6386 -103.4925,-251.4242 -113.5979,-266.9373 -124.0201,-282.705 -133.0207,-296.5891 -141.2666,-309.9468 -148.773,-322.4007 -156.3863,-334.9475 -164.9123,-348.0531 -173.0991,-358.6348 -181.3268,-367.6619 -189.8547,-378.0699 -201.7795,-390.4108 -214.803,-402.1524 -226.6188,-412.9248 -237.1412,-422.7949 -246.2434,-432.2633 -257.8703,-443.49 -270.665,-453.4237 -281.9218,-460.0099 -295.9711,-467.8671 -309.8738,-476.3881 -320.8968,-484.4223 -329.068,-490.8334 -331.3027,-492.828 A11.2824,11.2824 0 0 1 -317.3373,-510.552 T-313.64,-507.9505 -304.3262,-500.2506 -290.1076,-491.2335 -275.9925,-484.3398 -264.8683,-477.9755 -253.0743,-468.8287 -240.671,-458.3369 -229.4614,-448.4773 -219.1677,-436.9318 -208.0099,-426.3948 -195.7557,-415.938 -181.6722,-400.9748 -169.1836,-387.2756 -160.3363,-376.2869 -150.1508,-363.2036 -139.3667,-349.405 -131.8149,-336.6444 -124.3384,-323.9306 -117.1567,-311.4218 -109.4954,-297.8145 -99.7776,-283.7248 -91.9055,-270.7537 -83.7336,-255.9853 -75.9231,-242.2117 -68.5417,-227.3288 -59.4616,-210.3359 -51.8716,-197.4778 -44.1681,-183.7179 -36.8228,-169.08 -29.8006,-156.5256 -22.0139,-143.9184 -17.0365,-131.5468 -12.5654,-119.56 -7.5574,-106.7494 -2.2752,-92.2559 3.4017,-77.1539 8.259,-61.4942 12.1659,-46.3018 13.3926,-32.963 12.1852,-18.532 10.1489,-4.2026 9.0492,1.8106 A9.2286,9.2286 0 0 1 -9.0492,-1.8106 Z" stroke-linecap="round" fill="#ffc034"/></g></g><g transform="matrix(1, 0, 0, 1, 2874.723, 9382.7697) scale(5.067546377726014, 5.067546377726014)" opacity="1"><g transform="scale(0.19733415847863145)"><path d="M-9.0582,0 T-9.0197,-2.3981 -8.9812,-4.7962 A8.9812,8.9812 0 0 1 8.9812,-4.7962 T9.0197,-2.3981 9.0582,0 A9.0582,9.0582 0 0 1 -9.0582,0 ZM-0.2929,-13.7727 T2.7383,-13.8361 5.7694,-13.8995 A8.9102,8.9102 0 0 1 6.3506,3.9115 T3.3218,4.0459 0.2929,4.1802 A8.9812,8.9812 0 0 1 -0.2929,-13.7727 ZM11.0473,-12.3777 T12.7262,-11.0458 20.1227,-7.9431 32.7596,-1.4224 45.3758,5.7916 58.0322,13.2427 69.7766,21.9049 80.7528,29.8193 92.0761,38.8745 102.3173,48.6582 112.5349,58.6344 124.8757,68.9998 136.0542,79.5384 146.3818,90.6875 157.9783,104.0315 168.6006,115.4715 178.739,125.635 189.1636,138.1815 198.3149,150.0875 205.6496,161.511 213.0779,173.5813 220.6388,186.0086 227.462,197.6129 234.5047,207.3667 242.163,217.5832 250.9464,229.5616 259.9545,243.4242 267.2314,257.2231 273.7027,268.8186 280.3065,280.8543 288.0442,296.1988 294.7128,311.7298 300.6994,324.5831 307.0179,338.4767 312.3968,352.1563 316.694,365.0412 321.7449,378.0007 326.8386,390.804 331.9058,403.4839 336.9832,416.156 341.1775,429.257 344.0789,442.192 346.7335,457.4817 349.2925,472.7188 352.4096,489.8035 354.9263,500.2304 A10.8142,10.8142 0 0 1 333.4397,502.7024 T333.4717,498.9434 330.9253,487.969 327.6489,472.8389 325.0806,457.7017 322.5042,442.9029 319.5316,429.3697 314.4921,416.736 309.4306,404.0533 304.3315,391.2906 298.7326,376.5456 293.0541,361.6558 287.4505,347.5902 280.5693,332.0252 273.6969,316.4745 266.2471,300.6088 258.5735,285.388 250.3568,270.3702 240.2357,253.1498 230.7206,238.01 222.8065,225.7856 215.4517,215.632 207.9617,204.5006 199.5239,190.7122 189.8487,175.6643 180.1017,160.3799 169.8914,145.9128 158.5429,132.754 146.1906,119.6102 136.1331,107.2325 126.1328,95.7607 114.7116,85.8882 104.2394,77.18 94.184,67.0137 84.3136,57.1182 75.0005,48.1039 65.6832,39.7409 54.7579,31.7179 42.4256,24.2887 30.0572,16.9901 16.188,10.1211 4.7341,4.6649 1.0728,2.3898 A8.9102,8.9102 0 0 1 11.0473,-12.3777 ZM349.3909,491.9888 T349.4879,492.0402 349.585,492.0916 A10.8176,10.8176 0 0 1 339.1661,511.0527 T339.0706,510.9983 338.9752,510.944 A10.8142,10.8142 0 0 1 349.3909,491.9888 ZM333.5616,501.2918 T333.6015,498.3644 331.806,486.107 326.638,466.7959 320.8867,448.8256 316.0777,433.313 311.2224,418.2342 306.2562,403.1115 300.3244,388.6712 293.7394,375.4161 287.5566,361.7135 279.425,345.0638 269.1318,325.6022 258.1268,306.1873 248.6068,289.8344 242.0067,277.0689 236.3804,265.9747 228.2026,252.7828 218.7106,238.1547 208.5271,223.4426 198.7424,210.2218 191.9874,199.6386 181.7731,184.598 171.5971,169.5457 161.6014,156.5532 147.5482,140.8946 132.4569,125.9099 115.1877,111.1172 98.5171,97.6551 86.6596,87.7919 75.1247,78.0329 63.528,67.4897 52.9303,57.3192 39.8908,45.7915 29.9357,37.7529 26.9769,35.9823 A12.5715,12.5715 0 0 1 40.0473,14.5036 T46.2228,18.7073 57.226,27.4129 66.8579,35.6133 77.0417,45.7175 90.6595,58.9008 106.1372,72.1965 121.0897,85.7589 134.018,96.1012 144.5326,103.5155 157.5682,115.9097 172.3363,133.0537 184.2304,147.0212 194.8098,161.5782 204.8917,176.6863 214.8585,191.2854 224.7492,205.3115 234.5381,219.5681 247.4056,239.3577 257.4646,255.3721 262.9991,266.4709 268.4759,277.6245 275.3309,288.9667 284.6311,304.919 294.8215,324.8048 302.9282,340.1073 308.6176,352.2105 314.4657,365.2581 321.6085,380.0188 328.0832,395.996 333.0164,411.3064 337.8443,426.6905 342.3176,441.6882 346.5386,454.8647 350.5475,469.8388 353.9239,487.337 355.3045,498.805 355.1894,501.8525 A10.8176,10.8176 0 0 1 333.5616,501.2918 ZM40.2305,35.8686 T35.9322,38.1164 31.6338,40.3642 A11.7771,11.7771 0 0 1 19.0462,20.4558 T22.9199,17.5365 26.7937,14.6173 A12.5715,12.5715 0 0 1 40.2305,35.8686 Z" stroke-linecap="round" fill="#ffc034"/></g></g><g transform="matrix(1, 0, 0, 1, 2580.8053, 9894.5919) scale(5.067546377726014, 5.067546377726014)" opacity="1"><g transform="scale(0.19733415847863145)"><path d="M-7.3984,-7.3984 T-3.7821,-10.9683 4.9492,-20.8792 13.8598,-32.8207 23.7943,-47.2874 35.4359,-65.0304 46.0816,-81.9249 55.8278,-98.2715 65.3197,-116.3062 74.0716,-132.5928 80.9529,-144.7029 86.519,-156.3204 91.7804,-168.4222 99.8155,-183.8197 110.4522,-202.3345 120.8821,-219.5553 130.7982,-234.4035 138.7527,-247.1603 146.6257,-262.725 154.226,-279.5949 161.5631,-296.1093 171.4995,-312.995 181.5379,-326.822 189.1668,-338.7827 196.9304,-354.1001 204.4186,-371.0446 212.0902,-386.7892 221.9529,-402.8542 229.5105,-416.5757 237.4513,-430.065 248.0982,-443.3395 258.4487,-458.053 268.8207,-475.0822 280.7009,-488.9226 291.7325,-498.1206 296.1831,-501.5444 A12.7192,12.7192 0 0 1 311.9169,-481.5556 T309.2535,-479.377 299.8777,-471.1852 289.3177,-458.867 282.281,-446.4756 273.5458,-433.1676 263.7859,-420.9808 256.0438,-409.7839 248.3798,-396.476 239.6359,-382.0848 231.5582,-368.3428 226.2359,-355.9917 220.8841,-343.256 212.7601,-327.57 202.7219,-311.5174 193.2277,-298.9967 185.5495,-286.905 177.6272,-269.5329 169.8136,-252.0928 161.7424,-236.3814 151.8173,-220.1511 141.4356,-205.1451 131.4951,-189.3897 121.5005,-172.7959 113.7001,-158.572 107.8057,-145.7801 101.3042,-132.9043 94.3878,-121.281 85.5236,-105.5911 74.6768,-86.2973 63.9058,-69.1166 53.3915,-53.003 41.5585,-35.5225 30.6674,-20.1575 20.4133,-6.8766 10.9717,3.7787 7.3984,7.3984 A10.4629,10.4629 0 0 1 -7.3984,-7.3984 Z" stroke-linecap="round" fill="#ffc034"/></g></g><g transform="matrix(1, 0, 0, 1, 2590.9404, 9914.8621) scale(5.067546377726014, 5.067546377726014)" opacity="1"><g transform="scale(0.19733415847863145)"><path d="M0,-11.4137 T4.7124,-11.2219 15.3357,-12.6496 27.5278,-14.853 41.057,-15.6203 54.8459,-17.6835 69.101,-20.2792 83.1872,-21.2483 98.0528,-21.699 113.0003,-22.0024 125.359,-24.0293 138.0288,-26.6351 152.1034,-27.5443 165.4896,-29.6879 177.9455,-33.147 195.2336,-36.1928 214.6006,-38.0984 232.1743,-36.9976 249.1498,-34.8809 266.167,-34.1488 281.412,-34.034 296.474,-34.0264 313.5543,-36.1588 329.3449,-38.6103 345.1803,-38.9459 360.4292,-41.1447 374.5301,-43.6471 387.6784,-44.0684 400.4068,-44.1953 413.104,-44.2419 425.7776,-44.2617 440.6531,-46.3816 456.4629,-48.8246 473.4789,-49.2097 489.1162,-49.2629 501.7899,-49.2595 517.1352,-46.847 536.87,-42.4496 556.2467,-39.8732 573.2743,-39.1781 591.2569,-37.4023 608.2062,-33.6422 623.8401,-28.3745 635.3873,-23.1037 638.8661,-21.0103 A12.1493,12.1493 0 0 1 628.0139,0.7303 T624.2498,-0.7917 614.2593,-3.9973 598.5782,-8.7058 579.7765,-11.7305 563.152,-11.8828 549.58,-12.7597 534.1409,-15.4994 516.6762,-19.5966 501.8116,-21.6698 489.1831,-21.6387 473.9414,-21.4945 457.3738,-21.3675 441.1524,-18.9549 422.9015,-16.5508 406.4482,-16.5565 390.8267,-16.4941 374.8747,-16.0261 361.029,-13.6356 346.1749,-11.498 329.3387,-10.8951 313.4578,-8.4848 296.747,-6.5314 281.2894,-6.5773 265.3583,-6.8285 247.371,-7.7219 231.441,-10.0569 215.9796,-11.4917 200.4092,-10.5628 181.6222,-7.7625 162.1885,-4.007 144.4612,-1.9866 127.7244,0.1055 113.4245,1.7618 98.2843,1.5607 83.8916,1.4787 68.8692,2.3074 51.1611,4.5267 33.9487,6.4491 17.6152,8.9877 4.8753,11.2219 0,11.4137 A11.4137,11.4137 0 0 1 0,-11.4137 Z" stroke-linecap="round" fill="#ffc034"/></g></g><g transform="matrix(1, 0, 0, 1, 3202.941, 9445.2268) scale(2.4242877368875444, 2.4242877368875444)" opacity="1"><g transform="scale(0.41249228991434156)"><path d="M7.3318,1.9615 T6.1739,4.8225 3.8704,10.8436 0.8356,17.7343 -2.4009,25.2685 -4.9984,34.393 -7.4904,47.0691 -9.3835,59.9771 -9.7986,70.3878 -7.588,81.1308 -3.4056,89.5556 2.1154,92.8234 8.8447,93.1479 14.9782,91.7244 17.695,90.7044 A4.2026,4.2026 0 0 1 21.085,98.3956 T18.4992,99.7128 9.8838,102.3516 -1.6362,102.353 -9.7953,98.9607 -14.0577,94.1249 -17.3304,87.3423 -19.7488,79.5161 -20.6784,69.9822 -20.1573,58.4213 -18.1019,44.8685 -15.2735,31.2716 -12.1286,21.0045 -8.8215,13.4988 -5.9649,7.0818 -3.6232,0.9102 -2.4918,-1.9615 A5.2889,5.2889 0 0 1 7.3318,1.9615 Z" stroke-linecap="round" fill="#ffc034"/></g></g><g transform="matrix(1, 0, 0, 1, 3217.4867, 9493.7126) scale(2.4242877368875444, 2.4242877368875444)" opacity="1"><g transform="scale(0.41249228991434156)"><path d="M-1.0568,5.2926 T-3.9346,4.7855 -11.2668,4.5075 -23.1856,5.1184 -35.86,5.6021 -41.0699,5.7042 A5.7059,5.7059 0 0 1 -41.3501,-5.7042 T-36.1414,-5.858 -24.3522,-6.2954 -14.7468,-6.9871 -8.1876,-6.9815 -1.7982,-5.9301 1.0568,-5.2926 A5.397,5.397 0 0 1 -1.0568,5.2926 Z" stroke-linecap="round" fill="#ffc034"/></g></g><g transform="matrix(1, 0, 0, 1, 3190.754, 9875.7809) scale(3.1015929246858067, 3.1015929246858067)" opacity="1"><g transform="scale(0.32241497329998603)"><path d="M-5.175,0 T-5.1528,-2.935 -5.1114,-10.055 -6.1646,-18.2949 -8.6668,-26.5557 -11.5752,-34.3779 -14.6889,-42.8733 -17.9652,-53.3848 -21.1423,-64.1588 -24.8949,-73.3449 -28.8656,-81.5654 -32.6419,-89.5474 -37.141,-97.6802 -42.0472,-107.2527 -46.8001,-116.5839 -50.8166,-125.07 -54.7894,-134.8854 -59.3572,-144.3583 -64.0712,-153.6998 -68.1755,-163.7143 -72.0237,-172.3366 -76.3726,-179.7709 -81.0166,-187.4921 -85.937,-196.9732 -91.2913,-206.7132 -96.637,-215.3068 -101.325,-223.0503 -105.7069,-230.3282 -110.5089,-237.0728 -116.1705,-243.2344 -121.3992,-249.7483 -126.1933,-255.9829 -131.5651,-262.6532 -137.7921,-270.3906 -144.2006,-277.3491 -149.4186,-283.8062 -154.0662,-290.8976 -159.7762,-298.3636 -165.8839,-305.9798 -172.1076,-313.6871 -178.8829,-321.8031 -185.0566,-329.3751 -190.8603,-335.8338 -196.9285,-342.0824 -202.9767,-349.123 -209.387,-356.9598 -215.7797,-363.8895 -221.8327,-370.0346 -227.1984,-376.5807 -232.4245,-384.0711 -238.3178,-390.9195 -245.4159,-396.7821 -253.8286,-403.2873 -261.5326,-409.9441 -269.3739,-416.4167 -277.1699,-422.6978 -283.7507,-428.817 -290.0519,-434.9902 -296.2495,-441.1468 -304.0889,-447.0546 -312.154,-453.4177 -320.5143,-459.7257 -329.327,-465.7192 -337.5454,-472.1632 -346.2625,-478.1862 -354.4464,-483.826 -361.7241,-488.7775 -369.0515,-494.5815 -377.3684,-500.5465 -385.301,-504.5127 -394.2011,-509.0238 -403.2934,-513.3741 -411.6211,-516.768 -420.2321,-520.2068 -428.3766,-523.4353 -438.2424,-528.0337 -447.9412,-532.6696 -455.8231,-535.5373 -463.9796,-538.3892 -471.8312,-541.3805 -479.0768,-544.5511 -487.8736,-548.4558 -497.7382,-551.4913 -508.0401,-553.8674 -518.1179,-555.7329 -527.9237,-557.4527 -539.0152,-559.0174 -550.445,-559.3473 -560.7445,-558.3591 -569.9344,-556.8839 -578.3695,-555.9209 -588.2636,-554.4251 -600.7413,-552.1169 -610.8911,-549.4256 -618.437,-547.4919 -625.6891,-544.5886 -632.4435,-540.1105 -639.2555,-536.2607 -648.4724,-531.9129 -658.4181,-527.7354 -666.851,-524.1208 -676.5982,-519.2374 -686.9033,-514.4858 -695.5029,-508.9656 -704.1905,-501.9062 -712.399,-496.5873 -718.9631,-492.6835 -726.715,-488.0774 -734.9352,-483.299 -742.4339,-478.6766 -750.866,-473.1887 -759.8553,-467.1574 -768.3521,-461.3834 -777.7497,-455.0127 -786.4464,-448.4486 -794.0856,-442.3453 -801.7634,-436.2205 -808.2083,-428.9206 -814.2784,-421.454 -820.4179,-413.7869 -826.6187,-404.6796 -833.341,-395.8565 -841.1862,-387.6818 -848.4882,-380.6443 -854.636,-374.5369 -860.7843,-368.4143 -866.9592,-360.9363 -873.1997,-353.1945 -879.4251,-346.7434 -885.5882,-340.5374 -891.7801,-333.0321 -898.0307,-325.2924 -904.2101,-317.8447 -910.3744,-310.2157 -916.6071,-302.1907 -922.2604,-294.3403 -928.2436,-286.8202 -934.4177,-279.3626 -940.7486,-271.3991 -947.546,-263.3475 -954.9578,-255.4595 -962.865,-247.4324 -969.5032,-241.056 -975.5643,-233.7324 -981.736,-226.0861 -987.9276,-218.3498 -994.1294,-210.5962 -1000.3256,-202.8514 -1006.1942,-194.3512 -1012.3111,-185.5007 -1017.2663,-177.1568 -1021.9719,-167.9394 -1027.5151,-157.6888 -1032.0088,-149.5522 -1037.2749,-141.3905 -1041.9122,-133.2669 -1046.462,-124.3096 -1051.2609,-114.4991 -1054.525,-106.3357 -1058.3501,-97.0721 -1061.4035,-87.1714 -1063.8277,-76.5098 -1067.0105,-65.4603 -1070.152,-56.022 -1073.2966,-45.2945 -1076.43,-34.4781 -1079.8263,-24.2219 -1082.9409,-13.4178 -1084.4894,-3.3645 -1084.8159,6.6275 -1084.8954,16.5991 -1084.9291,25.9943 -1084.9526,34.6088 -1086.7997,44.3038 -1088.6363,50.0493 A9.9693,9.9693 0 0 1 -1107.2837,42.9907 T-1106.0202,40.5464 -1104.7719,32.8254 -1104.7949,22.861 -1104.797,13.2872 -1104.7397,4.6241 -1104.4627,-3.555 -1102.7875,-12.4197 -1100.7856,-20.8262 -1098.7454,-29.44 -1095.7629,-38.6982 -1093.0568,-47.395 -1090.2776,-56.2576 -1087.2003,-65.6265 -1084.2908,-74.6325 -1082.4077,-82.9809 -1080.4787,-91.6725 -1077.7074,-100.4461 -1074.4323,-109.8247 -1070.6004,-120.2769 -1065.9294,-130.1289 -1061.1812,-139.5294 -1056.0847,-149.0424 -1050.511,-158.3012 -1045.1563,-168.084 -1040.1817,-177.0657 -1035.2806,-186.5817 -1030.196,-196.1283 -1025.3854,-202.8688 -1019.8198,-210.1283 -1014.5011,-217.8347 -1008.2945,-225.5836 -1002.0846,-233.3372 -995.8406,-241.1147 -989.5108,-248.9101 -983.9507,-255.6036 -977.6606,-261.7 -971.5268,-267.8907 -965.4848,-274.229 -959.6533,-280.351 -953.4121,-287.0864 -947.2037,-294.9537 -941.1869,-303.6133 -934.8432,-311.5946 -927.7442,-320.4954 -921.3536,-329.5223 -916.0284,-336.1616 -909.9046,-342.7745 -903.4791,-350.6582 -897.1656,-358.066 -891.1911,-364.1425 -885.0941,-370.7015 -878.6414,-378.5901 -872.2593,-386.0186 -866.0368,-392.2185 -859.7607,-398.4125 -852.8317,-404.5923 -845.5849,-412.4197 -839.5206,-421.1728 -834.5928,-428.7414 -828.3037,-436.5148 -821.8406,-444.3137 -815.7255,-451.0994 -807.8697,-457.367 -799.9737,-463.5796 -791.3747,-469.9982 -782.2816,-475.1874 -773.2821,-481.1231 -763.7379,-488.2105 -754.3491,-494.3332 -744.672,-499.9054 -735.6703,-505.012 -726.69,-510.1832 -717.5151,-515.6704 -709.7106,-521.9241 -701.1667,-528.5644 -692.1425,-533.0332 -684.3669,-535.6997 -674.5995,-540.1693 -664.3066,-544.733 -656.0697,-547.9951 -646.2443,-552.5697 -635.3637,-558.4885 -625.1395,-562.7109 -614.9514,-565.7711 -605.043,-568.8471 -594.5942,-570.3787 -584.044,-571.8225 -573.5886,-573.2096 -562.1217,-574.6194 -550.1661,-575.6752 -539.3885,-575.3622 -529.8618,-574.3421 -520.698,-572.7187 -511.7747,-570.8861 -503.5925,-568.9438 -495.0497,-566.4979 -485.9292,-563.5288 -476.9043,-560.506 -468.8153,-557.0766 -459.8652,-553.1548 -450.5842,-549.9649 -441.4134,-546.3303 -431.9522,-541.6299 -424.3681,-537.8961 -416.166,-534.6005 -406.2375,-530.6722 -396.2088,-526.4466 -387.6047,-522.2678 -378.4018,-517.4986 -369.431,-512.5892 -362.3627,-507.2831 -354.7386,-501.6422 -346.1585,-495.8782 -337.5803,-489.9296 -329.909,-484.9244 -323.3584,-479.8181 -317.2653,-474.5812 -309.622,-469.5537 -300.5716,-463.0053 -292.7197,-456.8384 -286.1401,-451.427 -279.9312,-445.2399 -273.8177,-439.2247 -267.9714,-433.7321 -261.705,-428.92 -255.0786,-423.5748 -248.661,-417.5643 -240.7644,-411.3151 -231.4705,-404.0738 -224.0039,-396.0565 -218.0011,-387.4471 -211.7638,-379.8413 -205.6362,-373.579 -199.5447,-367.0112 -193.3084,-359.3054 -186.9686,-351.8068 -180.6497,-345.2316 -174.1086,-337.7734 -168.1072,-330.2918 -162.4518,-323.4729 -156.2913,-315.6716 -150.1406,-307.8371 -144.0508,-299.7938 -137.758,-290.8376 -131.527,-283.2425 -125.3248,-275.4342 -119.1327,-267.6603 -112.9148,-259.8634 -106.6306,-252.0086 -100.3834,-244.966 -94.3597,-235.6063 -88.6949,-226.0455 -84.0756,-218.2634 -79.259,-209.536 -73.3962,-199.3578 -68.6973,-190.2656 -63.8961,-181.4792 -58.2294,-170.8688 -53.84,-160.9474 -50.3767,-152.5875 -45.7473,-142.9472 -41.2993,-133.524 -38.0343,-125.1167 -33.5317,-115.323 -28.8794,-105.8544 -25.3247,-98.2273 -21.0624,-89.9506 -16.7563,-80.8892 -13.4748,-73.1995 -10.4957,-63.8052 -7.472,-53.1729 -4.5651,-44.6581 -1.6582,-36.8733 1.3278,-28.6258 3.9256,-19.3611 5.1114,-10.1139 5.1528,-2.935 5.175,0 A5.175,5.175 0 0 1 -5.175,0 Z" stroke-linecap="round" fill="#e599f7"/></g></g><g transform="matrix(1, 0, 0, 1, 2164.1268, 9255.4623) scale(3.1015929246858067, 3.1015929246858067)" opacity="1"><g transform="scale(0.32241497329998603)"><path d="M4.1568,-4.1568 T7.1407,-1.2652 12.7233,4.9113 17.4541,11.4257 22.1163,18.3849 31.7212,30.3263 44.0933,44.3988 53.8012,55.7076 61.8706,65.2818 68.453,73.3586 74.1193,80.4991 79.3533,87.2323 85.6237,96.1007 92.3913,105.0668 97.6088,112.2864 102.3686,118.662 107.8281,124.4632 113.1722,128.9149 115.5873,130.3624 A7.8665,7.8665 0 0 1 107.0574,143.5823 T103.3147,141.0567 96.4622,135.2913 90.2799,128.4907 83.6751,119.7171 76.8121,109.5692 69.4316,98.9733 62.3647,89.6373 56.905,82.4498 50.7228,74.4773 42.927,64.7357 33.6683,53.304 21.1802,38.1464 11.4533,25.2464 5.3136,15.7334 -1.2708,7.1352 -4.1568,4.1568 A5.8786,5.8786 0 0 1 4.1568,-4.1568 ZM119.175,136.507 T119.2463,137.855 119.3176,139.203 A7.8493,7.8493 0 0 1 103.6465,140.1317 T103.5581,138.7847 103.4696,137.4377 A7.8665,7.8665 0 0 1 119.175,136.507 ZM117.1073,145.1416 T116.3987,145.8347 115.6902,146.5278 A7.8004,7.8004 0 0 1 104.5097,135.6474 T105.1832,134.9203 105.8568,134.1931 A7.8493,7.8493 0 0 1 117.1073,145.1416 ZM107.1575,148.3118 T103.9199,146.8859 94.8506,142.7655 85.5821,138.4709 75.2053,133.7697 64.6676,130.3314 61.07,129.9942 A6.7151,6.7151 0 0 1 58.8615,116.7468 T61.918,116.4809 69.0758,117.133 77.3061,119.6088 87.8425,123.8832 100.5927,129.0952 109.9888,132.7269 113.0424,133.8634 A7.8004,7.8004 0 0 1 107.1575,148.3118 ZM66.6064,124.3674 T66.3736,126.001 66.1409,127.6345 A6.7397,6.7397 0 0 1 52.8108,125.6335 T53.0679,124.0036 53.325,122.3737 A6.7151,6.7151 0 0 1 66.6064,124.3674 ZM64.638,122.3009 T65.9918,123.8798 70.4043,127.939 77.7434,133.3312 86.2336,137.8904 94.8871,139.2335 105.0905,135.1212 113.9237,128.7515 121.0887,123.0689 129.4987,116.7885 137.2054,110.7123 143.8002,104.7935 150.6749,99.0739 159.574,92.6392 164.805,88.9223 A9.2578,9.2578 0 0 1 176.375,103.3777 T173.7449,105.7207 165.6504,112.3322 156.4965,119.7437 148.6739,126.0558 140.1526,132.0496 131.6902,137.5431 123.5423,143.0634 115.1173,148.2537 106.0768,152.5185 92.8593,153.7331 79.3882,150.698 69.9724,145.0669 61.2273,137.9706 55.6343,132.5743 54.3136,130.9671 A6.7397,6.7397 0 0 1 64.638,122.3009 Z" stroke-linecap="round" fill="#e599f7"/></g></g><g transform="matrix(1, 0, 0, 1, 2055.571, 9137.6018) scale(3.1015929246858067, 3.1015929246858067)" opacity="1"><g transform="scale(0.32241497329998603)"><path d="M4.2493,-5.0987 T8.7434,-1.5416 17.9738,6.1459 27.431,14.6288 36.3267,23.7108 43.9626,32.181 49.9465,38.6752 52.469,41.4288 A7.5367,7.5367 0 0 1 41.4697,51.7352 T38.8218,48.9708 32.6067,42.2587 25.4506,34.0256 17.4162,25.3331 8.6691,16.7917 0.0591,8.8779 -4.2493,5.0987 A6.6373,6.6373 0 0 1 4.2493,-5.0987 ZM41.2026,41.7296 T42.6411,40.2396 44.0796,38.7497 A7.2539,7.2539 0 0 1 55.1804,48.0903 T53.9582,49.7624 52.7361,51.4344 A7.5367,7.5367 0 0 1 41.2026,41.7296 Z" stroke-linecap="round" fill="#e599f7"/></g></g><g transform="matrix(1, 0, 0, 1, 2080.3838, 9094.1795) scale(3.1015929246858067, 3.1015929246858067)" opacity="1"><g transform="scale(0.32241497329998603)"><path d="M1.0831,-6.5018 T5.4929,-5.7559 13.622,-3.7051 21.4797,0.96 29.2741,9.2125 36.295,19.521 44.2358,31.9526 51.9983,44.3064 56.954,53.4469 59.7244,58.352 60.7256,59.4553 A7.1212,7.1212 0 0 1 49.9814,68.8047 T46.233,63.0212 39.3926,52.0854 31.7453,39.6062 24.3661,27.184 19.0199,18.1732 12.1,11.1 3.3096,7.2222 -1.0831,6.5018 A6.5914,6.5914 0 0 1 1.0831,-6.5018 ZM51.7478,57.9891 T53.6031,57.0534 55.4585,56.1177 A6.8561,6.8561 0 0 1 62.4015,67.9423 T60.6804,69.1066 58.9592,70.2709 A7.1212,7.1212 0 0 1 51.7478,57.9891 Z" stroke-linecap="round" fill="#e599f7"/></g></g><g transform="matrix(1, 0, 0, 1, 2105.1965, 9044.554) scale(3.1015929246858067, 3.1015929246858067)" opacity="1"><g transform="scale(0.32241497329998603)"><path d="M7.0861,2.3608 T5.7536,6.8213 1.4238,17.3673 -6.0538,30.3866 -16.4825,45.4634 -33.0496,65.4988 -52.0771,86.5172 -67.4024,102.0581 -80.1197,113.736 -90.5971,123.0905 -98.5436,130.0026 -105.4352,136.0141 -109.0567,139.2051 A8.1594,8.1594 0 0 1 -120.4633,127.5349 T-117.1903,123.9872 -110.9992,117.2117 -103.7978,109.381 -93.8876,99.1169 -81.8396,87.4885 -66.8749,72.7166 -47.9118,52.9187 -31.3611,34.4836 -20.71,21.1058 -13.2381,10.7466 -8.6862,1.9812 -7.0861,-2.3608 A7.469,7.469 0 0 1 7.0861,2.3608 Z" stroke-linecap="round" fill="#e599f7"/></g></g></svg>