<svg xmlns="http://www.w3.org/2000/svg" direction="ltr" width="579.5734152515956" height="645.521823773779" viewBox="3130.2612013774374 30685.4585200077 579.5734152515956 645.521823773779" stroke-linecap="round" stroke-linejoin="round" style="background-color: transparent;"><defs/><g transform="matrix(1, 0, 0, 1, 3163.4399, 31040.4083)" opacity="1"><g transform="scale(1)"><path d="M-0.8007,-1.0654 T0.3192,-1.8974 3.9792,-4.0165 8.2222,-6.0198 11.845,-7.936 15.5969,-10.3344 19.2103,-12.719 22.2905,-15.0476 24.9401,-17.4133 27.551,-19.7129 29.8278,-22.0124 31.9697,-24.4205 34.2565,-26.7898 36.5952,-29.1613 39.0025,-31.1494 41.7964,-33.6106 44.6323,-36.3858 47.1038,-38.6593 49.4296,-41.3625 51.7694,-44.2514 54.1693,-46.823 56.5327,-49.2454 59.2755,-51.7239 62.0555,-54.3025 64.5503,-57.0572 67.0388,-59.7771 69.7594,-62.716 72.5509,-65.8437 75.507,-69.0345 78.1731,-71.8789 80.9277,-74.8456 84.1307,-78.601 87.3457,-81.984 90.3531,-85.0525 93.216,-88.2117 96.4751,-91.5581 99.1465,-94.3936 101.6805,-97.4011 104.8086,-101.2623 107.8543,-104.5305 110.3971,-107.2536 112.796,-110.1315 115.6065,-113.5078 118.1491,-116.5528 120.9199,-119.6289 124.0963,-123.2403 127.2075,-126.7492 130.2834,-130.0998 132.8798,-132.9282 135.6403,-135.8993 138.4344,-139.0217 140.9926,-141.9645 143.8357,-145.224 147.0875,-148.7429 150.1019,-151.9717 152.6417,-155.1177 155.2138,-158.0254 157.6041,-160.5178 159.8958,-163.2695 162.3396,-166.0117 164.7198,-169.0513 167.0829,-172.0376 169.4424,-174.4327 171.8004,-176.8058 174.1565,-179.1707 176.9103,-181.6398 179.8758,-184.5859 182.3528,-187.2133 184.6526,-189.5207 187.0011,-192.4427 189.5116,-195.4592 192.3294,-197.9652 194.7032,-199.8143 195.6327,-200.59 A1.8422,1.8422 0 0 1 198.0273,-197.79 T197.1167,-196.9921 194.9739,-195.2932 192.4304,-192.9981 189.9043,-189.9177 187.5624,-187.0008 184.6996,-184.1211 181.8148,-181.1481 179.3313,-178.7539 176.8146,-176.5115 174.452,-174.1605 172.0949,-171.8024 169.3037,-169.0428 166.3633,-165.4963 163.8995,-162.2905 161.5022,-159.3862 158.5714,-156.2586 155.6093,-153.0294 152.7019,-149.4986 149.4113,-146.0141 146.3377,-142.6972 143.7498,-139.7296 141.0119,-136.6282 138.0533,-133.3312 135.4445,-130.5157 132.9664,-127.8264 130.0198,-124.6444 126.7903,-121.008 123.5126,-117.2785 120.079,-113.2708 116.9416,-109.5662 114.2369,-106.3357 111.622,-103.3503 108.7605,-100.7009 105.8283,-97.4224 103.5242,-94.302 100.6967,-91.1057 97.2292,-87.3315 94.3109,-84.2792 91.3352,-81.2913 88.2667,-78.1649 85.9316,-75.5856 83.3263,-72.603 79.7871,-68.7002 76.4297,-64.9669 73.3846,-62.0534 70.6235,-59.1954 68.1639,-56.3467 65.5739,-53.3895 62.617,-50.5727 59.8817,-48.2768 57.5269,-45.9189 55.1874,-43.5219 52.8845,-40.9825 50.4392,-38.0932 47.8304,-35.3302 45.1329,-33.0865 42.8699,-30.8806 40.3004,-28.4382 37.4252,-25.9874 35.1124,-23.6639 32.5754,-20.9637 29.7281,-18.1083 26.8295,-15.4901 23.9831,-12.9633 20.7908,-10.5639 17.1369,-8.1735 13.1086,-5.6371 9.3161,-3.636 5.3541,-1.7914 1.9086,0.223 0.8007,1.0654 A1.3327,1.3327 0 0 1 -0.8007,-1.0654 Z" stroke-linecap="round" fill="#4dabf7"/></g></g><g transform="matrix(1, 0, 0, 1, 3162.2612, 31038.051)" opacity="1"><g transform="scale(1)"><path d="M-0.1344,-1.4777 T2.9333,-1.7508 8.3925,-2.4468 12.6712,-3.1026 16.1218,-3.4615 20.2798,-4.1103 25.3835,-4.7954 33.2946,-5.0083 42.9255,-5.0898 49.9385,-5.1403 55.0277,-5.1728 59.1056,-5.1926 62.3687,-5.204 66.7478,-5.214 72.4662,-4.9246 77.6113,-4.4246 82.2714,-4.1597 87.0682,-3.6531 91.8013,-3.0922 95.5237,-2.9586 99.2593,-2.9285 103.7461,-2.9179 108.2488,-2.923 113.1049,-2.6272 117.8607,-2.1278 122.385,-1.8733 126.6347,-1.801 130.7456,-1.3563 134.3697,-0.8585 138.6829,-0.732 144.4732,-0.6667 149.6345,-0.6579 153.9154,-0.6596 158.0833,-0.6636 162.2201,-0.6693 166.3484,-0.6776 170.3273,-0.6857 174.135,-0.6934 177.8928,-0.7027 181.7687,-0.712 186.3784,-0.7201 191.6765,-1.1493 196.8383,-1.6971 201.3408,-2.4277 204.4814,-3.479 205.5313,-3.922 A1.7236,1.7236 0 0 1 206.9887,-0.798 T205.9746,-0.2781 202.9967,1.0934 199.2381,2.0168 194.6985,2.2884 190.4488,2.7861 186.3871,3.0801 181.7687,3.072 177.8928,3.0627 174.135,3.0534 170.3273,3.0457 166.3484,3.0375 162.2198,3.0289 158.0821,3.0223 153.9117,3.0148 149.6247,3.0007 144.4407,2.9648 138.5641,2.8688 134.0682,2.7124 130.4977,2.1916 126.5625,1.7396 122.237,1.6525 117.3406,1.3328 112.6996,0.824 108.2455,0.5581 103.7325,0.5402 99.2221,0.5047 95.4361,0.454 91.5214,0.2965 86.8098,-0.2759 82.1233,-0.7809 77.1447,-1.0897 72.1081,-1.5964 66.7493,-1.8629 62.3718,-1.8691 59.1102,-1.8743 55.0347,-1.8823 49.9481,-1.8924 42.9385,-1.9006 32.1878,-1.8595 23.2794,-1.5679 19.4089,-0.9629 16.4195,-0.4944 13.1039,-0.1674 8.7798,0.4782 3.2015,1.1927 0.1344,1.4777 A1.4838,1.4838 0 0 1 -0.1344,-1.4777 Z" stroke-linecap="round" fill="#4dabf7"/></g></g><g transform="matrix(1, 0, 0, 1, 3220.015, 30993.2624)" opacity="1"><g transform="scale(1)"><path d="M1.6763,-1.1179 T3.9513,2.1987 7.8067,8.7948 10.462,14.2712 12.1659,18.3297 13.1424,22.0983 13.6645,25.5628 13.6407,28.7482 12.8863,32.9009 10.9344,36.6141 8.3685,38.6151 7.1987,39.4272 A2.1511,2.1511 0 0 1 4.5813,36.0128 T6.3001,34.7293 8.3405,31.5566 8.729,27.2261 8.5628,23.1962 7.8565,20.0131 6.3674,16.1758 4.0229,10.897 0.5091,4.4895 -1.6763,1.1179 A2.0149,2.0149 0 0 1 1.6763,-1.1179 Z" stroke-linecap="round" fill="#4dabf7"/></g></g><g transform="matrix(1, 0, 0, 1, 3257.7318, 30985.0118)" opacity="1"><g transform="scale(1)"><path d="M1.8887,0.6291 T0.8239,3.9894 -0.7617,9.6069 -1.5375,13.8241 -1.9225,17.372 -1.9485,20.5173 0.1426,21.7041 5.0319,20.9443 7.9344,20.5549 A1.862,1.862 0 0 1 8.5656,24.2251 T5.6998,24.8277 -0.3106,25.8204 -4.8611,24.8526 -6.4539,20.9996 -6.4448,16.8097 -5.8851,12.9545 -4.868,8.4105 -3.0518,2.6988 -1.8887,-0.6291 A1.9907,1.9907 0 0 1 1.8887,0.6291 Z" stroke-linecap="round" fill="#4dabf7"/></g></g><g transform="matrix(1, 0, 0, 1, 3261.2677, 30996.7983)" opacity="1"><g transform="scale(1)"><path d="M0.6067,1.8176 T-1.0514,2.418 -5.242,3.5445 -10.0021,3.6229 -12.2298,3.1753 A2.0432,2.0432 0 0 1 -11.3502,-0.8153 T-9.7917,-0.4283 -6.1059,-0.4136 -2.2927,-1.3017 -0.6067,-1.8176 A1.9162,1.9162 0 0 1 0.6067,1.8176 Z" stroke-linecap="round" fill="#4dabf7"/></g></g><g transform="matrix(1, 0, 0, 1, 3359.0956, 30842.3953)" opacity="1"><g transform="scale(1)"><path d="M1.5753,0 T1.6105,5.5743 1.6712,14.6444 1.7239,21.0964 1.7734,26.1687 1.8054,29.958 1.8221,33.0713 1.8474,37.0769 1.8873,46.1551 1.9198,56.9371 1.9389,64.2912 1.9525,69.5599 1.9677,73.4527 1.9839,76.6205 2.0017,80.6601 2.0224,85.6621 2.0393,89.5513 2.0511,93.1846 2.0605,97.3747 2.0712,101.5178 2.0828,106.3517 2.0921,111.5259 2.3277,115.7843 2.8271,120.2517 3.1567,125.4748 3.6541,130.3232 4.1793,134.1574 4.337,138.3159 4.8419,142.8063 5.4142,146.9069 5.5854,151.3114 5.6318,155.6547 5.6455,159.8439 5.6478,164.4123 5.6444,168.9397 5.64,172.8973 5.6404,177.402 5.6407,181.9115 5.6367,186.1433 5.6262,190.4226 6.0907,193.7127 6.5639,194.9745 A1.9765,1.9765 0 0 1 2.8561,196.3455 T2.1593,194.443 1.4538,190.4675 1.4433,186.1433 1.4393,181.9115 1.4396,177.402 1.4398,172.8975 1.4349,168.9403 1.4296,164.4149 1.4251,159.8523 1.4146,155.6879 1.3734,151.4084 1.2293,147.2796 0.6666,143.1692 0.1533,138.4912 -0.1131,133.4551 -0.6362,129.5531 -1.0173,125.6388 -1.2617,120.9788 -1.7696,116.3945 -2.0921,111.5259 -2.0828,106.3517 -2.0712,101.5178 -2.0605,97.3747 -2.0511,93.1846 -2.0393,89.5513 -2.0224,85.6621 -2.0017,80.6601 -1.9839,76.6205 -1.9677,73.4527 -1.9525,69.5599 -1.9389,64.2912 -1.9198,56.9371 -1.8873,46.1551 -1.8474,37.0769 -1.8221,33.0713 -1.8054,29.958 -1.7734,26.1687 -1.7239,21.0964 -1.6712,14.6444 -1.6105,5.5743 -1.5753,0 A1.5753,1.5753 0 0 1 1.5753,0 Z" stroke-linecap="round" fill="#4dabf7"/></g></g><g transform="matrix(1, 0, 0, 1, 3348.4877, 30857.7177)" opacity="0.25"><g transform="scale(1)"><path d="M-0.9869,-1.2341 T0.4067,-2.3473 3.5862,-5.0351 8.0527,-9.5266 12.0405,-14.1793 14.3525,-17.1541 16.8845,-20.1163 19.7561,-23.3882 22.187,-26.3732 24.4914,-29.1322 26.8932,-31.6751 29.2545,-34.0916 31.6088,-36.475 33.9721,-38.8535 36.4383,-41.2562 38.8068,-43.6286 40.9428,-46.1211 43.1771,-48.7397 45.6599,-51.0815 48.4985,-53.7403 51.1535,-56.4526 53.2826,-58.6064 55.4391,-60.8077 58.2153,-63.4598 61.5124,-66.1736 64.404,-68.5194 66.8231,-70.8157 69.4632,-73.4423 72.3113,-76.3109 74.9438,-78.9681 77.3709,-81.419 79.7338,-83.8078 82.0046,-86.5242 84.3306,-89.4191 86.75,-92.012 89.053,-94.792 91.4841,-97.3688 93.9116,-99.4317 96.1193,-101.6916 98.3579,-104.3817 100.7336,-107.1837 103.2106,-110.2998 105.6513,-113.7921 107.9814,-116.7894 110.1457,-119.4108 112.5229,-121.9392 114.9955,-124.2314 117.8082,-126.5776 120.6998,-128.9299 123.1309,-131.7378 125.3759,-134.7813 127.5173,-137.0442 129.6375,-138.7323 130.6398,-139.4982 A2.1052,2.1052 0 0 1 133.3802,-136.3018 T132.4701,-135.4282 130.2735,-132.994 127.6195,-129.8944 125.0363,-126.8789 122.2893,-124.1488 119.4451,-121.8759 116.5186,-119.5199 113.6519,-116.604 111.4263,-113.9542 109.6517,-111.6166 107.8478,-109.2475 106.0009,-106.8495 103.9762,-104.2956 101.3697,-101.3079 98.9774,-98.4952 96.7599,-96.2591 93.9403,-93.7244 91.0723,-90.7285 88.6199,-87.9127 86.3631,-85.4164 83.9458,-82.5168 81.4388,-79.7341 79.0247,-77.3492 76.4994,-74.8516 73.5742,-71.9646 70.7415,-69.1879 68.2481,-66.8077 65.4586,-64.3687 62.6057,-62.0938 59.6221,-59.7626 56.8827,-57.3653 54.4745,-54.6834 51.7648,-51.9677 48.8424,-49.3064 46.1663,-46.566 43.7659,-43.8044 41.4893,-41.1836 39.0553,-38.7927 36.4788,-36.3104 34.1232,-33.9685 31.7609,-31.6137 29.4061,-29.2445 27.0755,-26.8219 24.5984,-23.9506 22.0878,-20.9309 19.4156,-17.9166 16.9491,-15.0961 14.5595,-12.1025 10.3289,-7.2738 5.6382,-2.6238 2.3793,0.1194 0.9869,1.2341 A1.5802,1.5802 0 0 1 -0.9869,-1.2341 Z" stroke-linecap="round" fill="#4dabf7"/></g></g><g transform="matrix(1, 0, 0, 1, 3350.845, 31038.051)" opacity="0.25"><g transform="scale(1)"><path d="M-0.1403,-1.8215 T3.4818,-2.1141 9.3009,-2.5639 13.2294,-2.8051 17.6278,-2.9687 21.9069,-3.0727 29.1106,-3.1402 38.4803,-3.2171 44.8084,-3.2794 49.2597,-3.3245 52.7196,-3.3546 56.663,-3.3833 61.692,-3.4153 67.0524,-3.4467 72.0925,-3.4759 76.3396,-3.5028 79.9266,-3.5235 83.0499,-3.5366 86.3258,-3.5446 89.7889,-3.5503 93.451,-3.5584 97.3016,-3.5701 101.0713,-3.579 105.0976,-3.5845 109.0482,-3.5856 112.848,-3.5829 116.8827,-3.5807 120.8356,-3.579 124.6337,-3.581 128.6679,-3.5861 132.5612,-3.5753 136.2344,-4.4963 138.1101,-5.4304 A2.1247,2.1247 0 0 1 140.0499,-1.6496 T138.8699,-0.965 136.1457,0.4609 132.6825,1.2153 128.6679,1.2261 124.6337,1.221 120.8356,1.219 116.8827,1.2207 112.848,1.2229 109.0482,1.2256 105.0976,1.2245 101.0713,1.219 97.3016,1.2101 93.451,1.1984 89.7889,1.1903 86.3258,1.1846 83.0499,1.1766 79.9266,1.1635 76.3396,1.1428 72.0925,1.116 67.0525,1.0868 61.6924,1.0557 56.6639,1.0247 52.7213,0.9976 49.2621,0.9701 44.8115,0.9302 38.4842,0.8775 29.1265,0.8188 21.949,0.786 17.7413,0.8293 13.4402,0.9455 9.5688,1.1535 3.7645,1.556 0.1403,1.8215 A1.8269,1.8269 0 0 1 -0.1403,-1.8215 Z" stroke-linecap="round" fill="#4dabf7"/></g></g><g transform="matrix(1, 0, 0, 1, 3475.7818, 30725.7091)" opacity="0.25"><g transform="scale(1)"><path d="M 0 0 m -2.633441917710341, 0 a 2.633441917710341,2.633441917710341 0 1,1 5.266883835420682,0 a 2.633441917710341,2.633441917710341 0 1,1 -5.266883835420682,0" stroke-linecap="round" fill="#4dabf7"/></g></g><g transform="matrix(1, 0, 0, 1, 3478.1391, 30717.4585)" opacity="0.25"><g transform="scale(1)"><path d="M1.668,0.1392 T1.3838,3.4829 0.6828,10.0282 0.0632,15.4236 -0.2352,19.5895 -0.3771,23.1615 -0.7336,26.578 -1.1773,30.043 -1.3755,33.3967 -1.4386,44.064 -1.4282,58.3268 -1.6881,67.3375 -2.0903,74.0448 -2.2917,79.1822 -2.3901,83.2774 -2.4306,87.0964 -2.445,90.5013 -2.4457,93.69 -2.4344,97.0409 -2.416,100.4791 -2.3968,103.9632 -2.3777,107.4736 -2.6523,111.1809 -3.0672,114.8059 -3.2678,117.9365 -3.374,120.9775 -3.4367,125.5363 -3.4696,131.1797 -3.4756,135.3687 -3.473,139.511 -3.7799,144.8432 -4.2849,150.1492 -4.5403,155.4574 -4.6174,160.7693 -4.639,165.7994 -4.6445,169.6942 -4.6436,173.7552 -4.6345,178.7693 -4.6217,183.5673 -4.6123,188.3054 -4.6059,192.6006 -4.6013,196.7729 -4.5983,201.3294 -4.1788,205.849 -3.6319,210.5172 -3.2262,215.0867 -2.6815,219.7579 -2.1074,224.464 -1.5206,229.176 -1.1681,234.1706 -0.8533,238.3184 -0.328,242.1552 0.2593,246.119 0.848,250.0572 1.202,254.4209 1.7076,258.4476 2.2367,261.6807 2.3951,265.436 2.8862,269.4193 3.7019,273.5448 4.3942,278.1442 4.7798,282.6603 4.8904,287.0581 4.9306,291.4039 4.951,295.8716 4.9629,300.3707 4.9706,304.5995 4.975,308.7447 5.3971,313.1399 5.9407,317.3421 6.2365,320.9929 6.672,323.5874 6.9347,324.5638 A2.3465,2.3465 0 0 1 2.4853,326.0562 T1.6962,323.9105 0.8287,319.707 0.5582,315.7822 0.0548,312.4599 -0.2551,308.762 -0.251,304.5999 -0.2444,300.3722 -0.2365,295.878 -0.2303,291.4289 -0.241,287.1336 -0.3142,282.9321 -0.59,278.9998 -1.1612,275.77 -1.7049,272.4367 -2.2504,268.2644 -2.718,263.4513 -3.2815,258.9063 -3.8001,254.7137 -4.0653,250.9375 -4.6469,247.0313 -5.2048,243.1462 -5.7342,239.1184 -6.1484,234.3944 -6.411,229.9592 -6.9889,225.2415 -7.5653,220.5187 -8.0904,216.9288 -8.4752,213.1806 -8.7279,208.7281 -9.2315,205.1277 -9.5417,201.345 -9.5387,196.7729 -9.5341,192.6006 -9.5276,188.3053 -9.5181,183.5671 -9.5048,178.7687 -9.4939,173.7533 -9.4899,169.6894 -9.484,165.7846 -9.4613,160.7231 -9.4214,156.5736 -9.275,152.378 -8.9784,148.0819 -8.5569,144.2987 -8.3023,139.5075 -8.2937,135.3602 -8.2781,131.1566 -8.2269,125.4588 -8.142,120.7933 -8.0113,117.6153 -7.7624,114.2402 -7.3242,110.8073 -7.0392,107.4673 -7.0174,103.9597 -6.9928,100.4725 -6.9645,97.0281 -6.9343,93.6645 -6.899,90.4579 -6.8453,87.0228 -6.7565,83.1492 -6.6094,78.993 -6.345,73.7686 -5.8634,67.1596 -5.4964,58.3068 -5.3466,43.9594 -5.1452,33.1249 -4.8413,29.5331 -4.3324,26.1734 -3.9402,22.9853 -3.7207,19.3114 -3.3332,15.0234 -2.6514,9.6636 -1.942,3.2053 -1.668,-0.1392 A1.6738,1.6738 0 0 1 1.668,0.1392 Z" stroke-linecap="round" fill="#4dabf7"/></g></g><g transform="matrix(1, 0, 0, 1, 3373.2394, 30887.184)" opacity="1"><g transform="scale(1)"><path d="M1.959,0.9785 T0.8703,3.2212 -2.0534,9.1269 -4.0371,13.0147 -4.3841,13.4226 -4.8185,13.7356 -5.3153,13.9354 -5.8454,14.0106 -6.3782,13.9568 -6.8826,13.777 -7.3292,13.4817 -7.6923,13.0881 -7.9506,12.619 -8.0891,12.1018 -8.0998,11.5664 -7.9821,11.0441 -4.1284,7.7989 1.4753,4.5443 4.892,4.9627 7.1923,7.4225 7.1261,11.1004 6.3358,13 A2.3188,2.3188 0 0 1 2.5179,10.3675 T3.0194,9.4991 2.0839,8.8751 -1.6207,10.9547 -4.0371,13.0147 -4.3841,13.4226 -4.8185,13.7356 -5.3153,13.9354 -5.8454,14.0106 -6.3782,13.9568 -6.8826,13.777 -7.3292,13.4817 -7.6923,13.0881 -7.9506,12.619 -8.0891,12.1018 -8.0998,11.5664 -7.9821,11.0441 -6.0644,7.1234 -3.0981,1.2392 -1.959,-0.9785 A2.1897,2.1897 0 0 1 1.959,0.9785 ZM4.5614,9.3689 T5.1804,9.4064 8.0913,9.4481 12.5748,9.9227 15.6576,11.6282 16.146,15.1063 14.1412,18.9164 11.6369,21.1252 10.7345,21.7666 A2.164,2.164 0 0 1 8.1255,18.3134 T8.9891,17.6206 10.1106,15.5196 8.0322,14.0942 4.9942,14.0378 4.2924,13.9986 A2.3188,2.3188 0 0 1 4.5614,9.3689 Z" stroke-linecap="round" fill="#e599f7"/></g></g><g transform="matrix(1, 0, 0, 1, 3399.9317, 30912.6901)" opacity="1"><g transform="scale(1)"><path d="M-0.6524,1.7388 T-2.1112,1.1814 -4.5703,1.7747 -5.0302,4.4507 -2.7943,6.5753 -0.2136,5.2585 1.035,1.857 1.3985,0.3717 A1.7596,1.7596 0 0 1 4.8215,1.1883 T4.6286,2.1412 3.807,4.7373 2.1591,8.091 -0.2365,10.329 -3.369,10.3472 -6.8577,8.3232 -8.8318,4.3195 -8.1904,-0.185 -4.806,-2.5143 -0.8261,-2.2835 0.6524,-1.7388 A1.8571,1.8571 0 0 1 -0.6524,1.7388 Z" stroke-linecap="round" fill="#e599f7"/></g></g><g transform="matrix(1, 0, 0, 1, 3417.0095, 30916.5714)" opacity="1"><g transform="scale(1)"><path d="M-0.8299,1.3052 T-2.8658,0.0466 -7.1638,-2.6244 -9.4258,-4.0368 A1.651,1.651 0 0 1 -7.6542,-6.8232 T-5.4156,-5.374 -1.1736,-2.6149 0.8299,-1.3052 A1.5467,1.5467 0 0 1 -0.8299,1.3052 Z" stroke-linecap="round" fill="#e599f7"/></g></g><g transform="matrix(1, 0, 0, 1, 3420.1145, 30905.7037)" opacity="1"><g transform="scale(1)"><path d="M1.4103,1.5656 T-0.4271,3.2164 -3.5864,6.0987 -5.9646,8.3437 -8.2267,10.7138 -8.1169,13.5559 -4.6924,17.3864 -2.5837,19.7314 A1.786,1.786 0 0 1 -5.1763,22.1886 T-7.405,19.9573 -11.6914,15.4309 -13.2907,11.2887 -11.3898,7.8618 -8.8622,5.2577 -6.4268,2.9894 -3.2434,0.0899 -1.4103,-1.5656 A2.1072,2.1072 0 0 1 1.4103,1.5656 Z" stroke-linecap="round" fill="#e599f7"/></g></g><g transform="matrix(1, 0, 0, 1, 3255.5463, 31053.1941)" opacity="1"><g transform="scale(1)"><path d="M2.3413,0.1569 T2.1799,2.9119 1.5695,8.5284 0.9052,13.162 0.365,16.3778 -0.7129,20.1743 -1.4657,22.5274 A2.5394,2.5394 0 0 1 -6.2943,20.9526 T-5.2775,17.6078 -3.9871,12.4169 -3.2349,7.9577 -2.5488,2.5938 -2.3413,-0.1569 A2.3466,2.3466 0 0 1 2.3413,0.1569 ZM-5.9808,20.3133 T-4.1387,17.6761 -1.1582,14.1107 2.5755,11.9818 7.4917,10.4729 11.436,10.3714 13.0592,10.5781 A2.4922,2.4922 0 0 1 12.2959,15.5037 T10.2812,15.3751 6.5103,15.5684 2.9904,17.2404 -0.2763,20.8786 -1.7792,23.1667 A2.5394,2.5394 0 0 1 -5.9808,20.3133 ZM14.8893,11.8924 T15.2042,12.4793 15.9086,14.6282 16.1071,17.6353 15.2845,20.6936 14.268,23.2084 13.883,24.1102 A2.3883,2.3883 0 0 1 9.397,22.4698 T10.1018,20.4538 10.9326,16.904 10.7622,14.7798 10.4657,14.1894 A2.4922,2.4922 0 0 1 14.8893,11.8924 Z" stroke-linecap="round" fill="#40c057"/></g></g><g transform="matrix(1, 0, 0, 1, 3283.4919, 31069.4957)" opacity="1"><g transform="scale(1)"><path d="M0.4346,1.7329 T-0.2636,1.9168 -0.8896,1.4737 0.8292,2.9289 3.9728,4.267 5.0147,1.7293 4.5595,-0.0644 A1.7989,1.7989 0 0 1 7.8605,-1.4956 T8.7024,0.4998 9.3201,4.285 7.8919,7.7868 4.2484,9.5937 0.4951,8.5279 -2.6112,4.5566 -3.1919,0.1918 -1.2074,-1.5478 -0.4346,-1.7329 A1.7866,1.7866 0 0 1 0.4346,1.7329 Z" stroke-linecap="round" fill="#40c057"/></g></g><g transform="matrix(1, 0, 0, 1, 3306.7798, 31065.6143)" opacity="1"><g transform="scale(1)"><path d="M1.7857,1.34 T0.6392,2.765 0.6551,6.3515 2.5191,10.0233 2.351,13.6602 0.1692,16.5077 -3.5288,16.9469 -7.1089,16.2483 -8.3029,15.8316 A1.9391,1.9391 0 0 1 -7.2171,12.1084 T-5.9863,12.3988 -3.0588,11.9784 -3.1556,8.9116 -4.4251,4.1202 -2.8433,0.1724 -1.7857,-1.34 A2.2326,2.2326 0 0 1 1.7857,1.34 Z" stroke-linecap="round" fill="#40c057"/></g></g><g transform="matrix(1, 0, 0, 1, 3232.2584, 30895.6122)" opacity="1"><g transform="scale(1)"><path d="M2.0508,-0.5479 T2.8351,2.1924 4.2601,8.5017 5.2361,14.2832 5.821,16.9864 6.0707,17.4771 A2.3705,2.3705 0 0 1 1.722,19.3651 T1.2863,18.2771 0.5853,15.0059 -0.1786,9.4506 -1.364,3.3133 -2.0508,0.5479 A2.1228,2.1228 0 0 1 2.0508,-0.5479 ZM4.5219,16.1346 T4.7019,16.1861 4.8819,16.2376 A2.3662,2.3662 0 0 1 3.6332,20.8022 T3.452,20.7549 3.2708,20.7075 A2.3705,2.3705 0 0 1 4.5219,16.1346 ZM2.4661,16.9741 T3.0993,16.2554 4.8613,14.0757 7.8583,11.5478 11.8018,10.9932 14.9157,13.3067 16.4016,17.0099 17.2409,20.8356 17.6327,22.7592 A2.1687,2.1687 0 0 1 13.4273,23.8208 T13.1109,22.7663 12.4087,20.01 10.7095,17.0148 8.3051,17.2032 6.6316,19.3754 6.049,20.0657 A2.3662,2.3662 0 0 1 2.4661,16.9741 Z" stroke-linecap="round" fill="#ffc034"/></g></g><g transform="matrix(1, 0, 0, 1, 3254.77, 30904.9274)" opacity="1"><g transform="scale(1)"><path d="M1.8367,0.1846 T1.6855,2.0232 1.4671,5.3472 0.9356,7.7204 1.6628,6.9785 4.925,3.9677 6.9957,2.5867 A1.8891,1.8891 0 0 1 7.4941,6.332 T6.5608,7.2004 2.9603,10.3692 -1.1167,9.6254 -2.3994,5.0302 -2.0545,1.6473 -1.8367,-0.1846 A1.846,1.846 0 0 1 1.8367,0.1846 ZM9.1021,4.1135 T9.2964,5.1785 9.9799,7.6323 11.1829,10.8297 12.6451,14.2928 13.8057,18.1168 14.1266,22.5233 13.0067,26.6538 10.0975,29.8322 5.7868,31.4335 1.0209,30.9003 -2.3587,29.0689 -4.7807,26.143 -6.895,23.0915 -7.6311,21.9843 A1.7518,1.7518 0 0 1 -4.7889,19.9357 T-3.9712,20.9842 -1.8823,23.6037 0.6601,26.1602 3.3433,27.4009 6.1389,27.1152 8.7291,25.2826 10.0428,22.3806 9.9483,19.1772 8.9847,15.7813 7.5294,12.1009 6.2896,8.4469 5.5655,5.7378 5.3877,4.8052 A1.8891,1.8891 0 0 1 9.1021,4.1135 Z" stroke-linecap="round" fill="#ffc034"/></g></g><g transform="matrix(1, 0, 0, 1, 3269.5191, 30902.5986)" opacity="1"><g transform="scale(1)"><path d="M1.6271,-0.1299 T2.0828,4.4536 2.5365,10.9719 2.5333,14.9881 2.5319,17.0696 A1.7519,1.7519 0 0 1 -0.9719,17.0904 T-0.998,15.0091 -1.0481,11.1262 -1.3496,4.7273 -1.6271,0.1299 A1.6322,1.6322 0 0 1 1.6271,-0.1299 Z" stroke-linecap="round" fill="#ffc034"/></g></g><g transform="matrix(1, 0, 0, 1, 3269.5191, 30898.7173)" opacity="1"><g transform="scale(1)"><path d="M-0.9985,-1.9969 T0.8349,-2.9188 5.0209,-4.5162 9.3763,-4.0273 10.6894,0.383 8.7085,5.5323 6.1266,8.3158 2.5876,9.5833 0.3393,9.9707 A2.2366,2.2366 0 0 1 -0.3393,5.5493 T1.0719,5.375 3.9873,3.7947 6.18,-0.0298 7.304,-1.5762 6.2061,-0.267 2.8356,1.0835 0.9985,1.9969 A2.2326,2.2326 0 0 1 -0.9985,-1.9969 Z" stroke-linecap="round" fill="#ffc034"/></g></g><g transform="matrix(1, 0, 0, 1, 3203.5365, 31134.7019)" opacity="1"><g transform="scale(1)"><path d="M0.4448,2.0059 T-1.2054,2.3846 -4.718,3.4642 -8.2067,4.905 -9.9722,4.6009 -8.4656,5.6319 -5.6448,9.5039 -3.8883,13.796 -4.569,18.1681 -7.4698,20.8309 -11.2475,22.0037 -15.7383,21.9803 -19.9073,20.8363 -23.245,18.6482 -25.1184,14.9204 -25.4714,12.6472 A2.1932,2.1932 0 0 1 -21.1086,12.1928 T-21.1088,13.308 -19.6604,15.3382 -16.7502,16.7704 -13.809,17.3711 -10.5543,17.018 -8.473,15.1017 -9.1806,11.9735 -12.0013,7.954 -12.8344,3.7667 -10.0954,1.1482 -6.0436,-0.4756 -2.1009,-1.6514 -0.4448,-2.0059 A2.0546,2.0546 0 0 1 0.4448,2.0059 Z" stroke-linecap="round" fill="#e599f7"/></g></g><g transform="matrix(1, 0, 0, 1, 3209.7467, 31143.2408)" opacity="1"><g transform="scale(1)"><path d="M1.3437,0.288 T0.7927,2.8588 -0.3723,8.2938 -0.9863,11.158 A1.3743,1.3743 0 0 1 -3.6737,10.582 T-3.0598,7.7177 -1.8948,2.2827 -1.3437,-0.288 A1.3743,1.3743 0 0 1 1.3437,0.288 Z" stroke-linecap="round" fill="#e599f7"/></g></g><g transform="matrix(1, 0, 0, 1, 3212.8517, 31119.1766)" opacity="1"><g transform="scale(1)"><path d="M 0 0 m -2.633441917710341, 0 a 2.633441917710341,2.633441917710341 0 1,1 5.266883835420682,0 a 2.633441917710341,2.633441917710341 0 1,1 -5.266883835420682,0" stroke-linecap="round" fill="#e599f7"/></g></g><g transform="matrix(1, 0, 0, 1, 3219.8381, 31145.5696)" opacity="1"><g transform="scale(1)"><path d="M2.4309,0.7493 T1.7192,3.1419 -0.1197,5.1681 0.8234,3.0909 4.8882,0.6144 9.4453,0.151 12.7844,2.7143 13.3274,6.6633 12.7911,10.1288 12.4882,11.906 A2.4129,2.4129 0 0 1 7.6918,11.374 T7.7481,10.3217 8.1978,6.9177 7.0825,5.0812 1.6879,7.7165 -3.0738,6.9236 -3.1902,1.6306 -2.4309,-0.7493 A2.5438,2.5438 0 0 1 2.4309,0.7493 Z" stroke-linecap="round" fill="#e599f7"/></g></g><g transform="matrix(1, 0, 0, 1, 3256.3226, 31123.058)" opacity="1"><g transform="scale(1)"><path d="M1.5527,0.8625 T-0.28,4.1678 -3.4407,9.7914 -5.8307,13.8943 -7.8167,17.1777 -9.8556,21.1402 -11.8625,25.5756 -13.1423,29.5193 -13.53,31.4914 A2.0482,2.0482 0 0 1 -17.53,30.6086 T-17.2665,29.4641 -16.2585,26.1894 -14.4655,21.7562 -12.6838,18.0548 -11.0132,15.199 -8.9961,12.0082 -6.5725,8.0086 -3.3905,2.44 -1.5527,-0.8625 A1.7761,1.7761 0 0 1 1.5527,0.8625 Z" stroke-linecap="round" fill="#e599f7"/></g></g><g transform="matrix(1, 0, 0, 1, 3267.9666, 31130.0443)" opacity="1"><g transform="scale(1)"><path d="M2.3082,0.7691 T0.5618,6.3067 -2.0708,15.0912 -3.3957,20.3719 -3.6555,23.9592 -3.2983,25.5128 -3.1201,25.5129 A2.8581,2.8581 0 0 1 -7.0331,29.6798 T-7.9288,28.6713 -9.2654,26.1231 -9.5602,22.8226 -8.8333,18.9168 -7.2045,13.4798 -4.2323,4.7095 -2.3082,-0.7691 A2.433,2.433 0 0 1 2.3082,0.7691 ZM-5.4196,24.7589 T-4.5777,24.7228 -2.7987,24.6402 -1.8614,24.5938 A2.595,2.595 0 0 1 -1.2386,29.7462 T-2.1598,29.9245 -3.9073,30.2682 -4.7335,30.4337 A2.8581,2.8581 0 0 1 -5.4196,24.7589 Z" stroke-linecap="round" fill="#e599f7"/></g></g><g transform="matrix(1, 0, 0, 1, 3267.1903, 31146.3459)" opacity="1"><g transform="scale(1)"><path d="M-0.1504,1.4962 T-1.9875,1.3299 -5.8709,0.9739 -7.9172,0.7841 A1.572,1.572 0 0 1 -7.6028,-2.3441 T-5.5596,-2.1228 -1.683,-1.6989 0.1504,-1.4962 A1.5038,1.5038 0 0 1 -0.1504,1.4962 Z" stroke-linecap="round" fill="#e599f7"/></g></g><g transform="matrix(1, 0, 0, 1, 3278.8343, 31125.3867)" opacity="1"><g transform="scale(1)"><path d="M2.1839,-1.0086 T3.2996,1.3714 5.2067,5.593 6.4549,8.8711 7.2985,12.8019 7.7931,17.4733 6.0433,24.5107 3.0501,31.9077 0.6286,36.3017 -1.9579,40.0112 -3.2587,41.8633 A2.6352,2.6352 0 0 1 -7.6013,38.8767 T-6.3372,36.9994 -4.0566,33.6321 -1.8899,29.7273 1.0124,22.5997 2.6274,15.9142 1.9761,11.6433 0.7275,7.5694 -1.0954,3.4012 -2.1839,1.0086 A2.4056,2.4056 0 0 1 2.1839,-1.0086 Z" stroke-linecap="round" fill="#e599f7"/></g></g><g transform="matrix(1, 0, 0, 1, 3257.8751, 31123.8342)" opacity="1"><g transform="scale(1)"><path d="M1.7445,1.7445 T-0.6372,4.1353 -4.4526,7.976 -7.4295,11.271 -9.9122,16.9029 -10.8859,22.7054 -10.7938,26.8716 -9.9219,30.5639 -7.3402,33.3212 -4.527,35.0419 -3.55,35.5471 A2.7289,2.7289 0 0 1 -5.77,40.5329 T-7.9027,39.7087 -11.6348,37.7063 -14.1266,35.2266 -15.7121,31.8787 -16.4618,27.1342 -16.3279,22.0346 -15.0415,15.789 -12.7121,10.1171 -10.4529,7.0883 -7.9767,4.4532 -4.1353,0.6372 -1.7445,-1.7445 A2.467,2.467 0 0 1 1.7445,1.7445 Z" stroke-linecap="round" fill="#e599f7"/></g></g><g transform="matrix(1, 0, 0, 1, 3301.346, 31138.5833)" opacity="1"><g transform="scale(1)"><path d="M0.1796,-1.7864 T2.0302,-1.7554 5.366,-1.7076 8.7568,-1.749 11.7687,-1.9186 12.8751,-2.03 A2.0558,2.0558 0 0 1 13.5249,2.03 T12.4391,2.2695 8.9579,2.6633 5.0113,2.6399 1.6403,2.1244 -0.1796,1.7864 A1.7954,1.7954 0 0 1 0.1796,-1.7864 Z" stroke-linecap="round" fill="#e599f7"/></g></g><g transform="matrix(1, 0, 0, 1, 3300.5697, 31145.5696)" opacity="1"><g transform="scale(1)"><path d="M1.425,-2.2594 T2.7076,-1.9733 6.4828,-1.7703 12.1913,-1.9475 15.4071,-2.0416 A2.0453,2.0453 0 0 1 15.6529,2.0416 T12.449,2.3339 5.9758,2.8898 1.4208,2.7064 0.135,2.2594 A2.3497,2.3497 0 0 1 1.425,-2.2594 Z" stroke-linecap="round" fill="#e599f7"/></g></g><g transform="matrix(1, 0, 0, 1, 3335.5016, 31119.1766)" opacity="1"><g transform="scale(1)"><path d="M2.3555,0.1821 T2.2127,2.5721 1.7949,6.7019 1.2182,10.6054 0.9165,12.769 A2.4911,2.4911 0 0 1 -4.0165,12.071 T-3.6958,9.8355 -3.0914,6.0915 -2.5816,2.2005 -2.3555,-0.1821 A2.3625,2.3625 0 0 1 2.3555,0.1821 ZM-3.788,11.3261 T-2.1147,8.0018 0.753,3.3193 4.2871,0.3596 8.0757,-1.0966 10.7773,0.5123 12.1655,4.3833 12.3009,6.7906 A2.6432,2.6432 0 0 1 7.0348,6.328 T7.5908,4.7739 6.8592,4.1902 4.5668,6.2983 2.1249,10.4749 0.688,13.5139 A2.4911,2.4911 0 0 1 -3.788,11.3261 ZM10.6109,9.0285 T10.3453,9.1335 10.0798,9.2385 A2.6499,2.6499 0 0 1 8.189,4.2875 T8.4569,4.1887 8.7249,4.09 A2.6432,2.6432 0 0 1 10.6109,9.0285 ZM6.5739,6.0804 T6.9454,4.8384 8.3233,2.4269 10.8538,0.0882 14.571,-1.6795 19.0755,-1.5298 22.3917,1.192 23.5823,4.634 23.262,8.1431 22.4453,11.0136 22.1349,11.8432 A2.8934,2.8934 0 0 1 16.6851,9.8968 T17.3223,8.1525 17.7715,4.7187 15.8989,3.3415 13.1057,4.8312 11.846,6.7271 11.6949,7.4456 A2.6499,2.6499 0 0 1 6.5739,6.0804 Z" stroke-linecap="round" fill="#e599f7"/></g></g><g transform="matrix(1, 0, 0, 1, 3369.6573, 31123.8342)" opacity="1"><g transform="scale(1)"><path d="M-2.5371,-0.6363 T-2.3404,-1.3688 -2.1436,-2.1012 A2.5904,2.5904 0 0 1 2.8815,-0.8409 T2.7093,-0.1023 2.5371,0.6363 A2.6157,2.6157 0 0 1 -2.5371,-0.6363 ZM-1.1821,0.6036 T-1.4507,0.3963 -1.7194,0.189 A2.58,2.58 0 0 1 1.3704,-3.9437 T1.6452,-3.7447 1.92,-3.5457 A2.5904,2.5904 0 0 1 -1.1821,0.6036 ZM0.8663,0.4835 T0.6247,0.1807 0.7283,1.7956 2.3816,4.3495 4.2621,3.3912 4.4605,-0.7201 4.0867,-3.237 A2.2185,2.2185 0 0 1 8.3333,-4.523 T8.7619,-3.3816 9.6283,-0.7608 9.7115,2.8724 8.4208,6.7517 5.4415,9.5422 0.9443,10.1061 -2.4147,8.3815 -3.7397,5.458 -3.8083,0.6633 -2.3361,-3.3347 -1.2153,-4.2381 A2.58,2.58 0 0 1 0.8663,0.4835 Z" stroke-linecap="round" fill="#e599f7"/></g></g><g transform="matrix(1, 0, 0, 1, 3392.169, 31102.8751)" opacity="1"><g transform="scale(1)"><path d="M2.1349,0.7395 T0.5509,5.536 -1.8298,13.1786 -2.6232,17.7485 -0.9223,19.9329 2.6716,19.7022 4.568,19.0108 A2.1313,2.1313 0 0 1 6.292,22.9092 T4.5045,23.8469 0.3924,25.6334 -4.3099,24.7633 -7.2628,21.2365 -7.6545,17.0153 -6.5252,11.6799 -3.8572,4.0092 -2.1349,-0.7395 A2.2594,2.2594 0 0 1 2.1349,0.7395 Z" stroke-linecap="round" fill="#e599f7"/></g></g><g transform="matrix(1, 0, 0, 1, 3395.2741, 31114.519)" opacity="1"><g transform="scale(1)"><path d="M0,1.839 T-2.5708,1.9685 -7.0473,2.1071 -11.8516,2.0712 -14.75,2.0263 A2.0263,2.0263 0 0 1 -14.75,-2.0263 T-11.8516,-2.0712 -7.0473,-2.1071 -2.5708,-1.9685 0,-1.839 A1.839,1.839 0 0 1 0,1.839 Z" stroke-linecap="round" fill="#e599f7"/></g></g><g transform="matrix(1, 0, 0, 1, 3403.813, 31138.5833)" opacity="1"><g transform="scale(1)"><path d="M0.2771,2.0751 T-5.2171,2.9152 -15.3107,4.2525 -23.0649,5.0378 -28.8178,5.5015 -33.525,5.7849 -37.4839,5.9586 -41.2295,6.069 -50.6764,6.2883 -66.706,6.731 -75.1847,6.9986 A2.3414,2.3414 0 0 1 -75.4153,2.3214 T-66.9514,1.7537 -50.832,0.6112 -41.3036,0.0493 -37.6114,0.0683 -33.7216,0.0688 -29.1094,0.0234 -23.452,-0.1367 -15.8287,-0.5352 -5.7991,-1.4441 -0.2771,-2.0751 A2.0936,2.0936 0 0 1 0.2771,2.0751 Z" stroke-linecap="round" fill="#e599f7"/></g></g><g transform="matrix(1, 0, 0, 1, 3349.4744, 31156.4374)" opacity="1"><g transform="scale(1)"><path d="M2.4545,0.1073 T2.3438,4.332 2.1848,11.1442 0.7855,13.3418 0.7893,11.9812 4.0107,10.8225 7.2413,11.2309 9.4413,13.0633 10.7854,15.7239 11.7756,17.9238 12.2577,18.6991 A2.6252,2.6252 0 0 1 7.9223,21.6609 T7.3754,20.9299 5.6617,17.9708 1.8645,17.0216 -2.0147,15.9148 -3.1171,10.9293 -2.7127,4.111 -2.4545,-0.1073 A2.4569,2.4569 0 0 1 2.4545,0.1073 Z" stroke-linecap="round" fill="#e599f7"/></g></g><g transform="matrix(1, 0, 0, 1, 3367.3285, 31166.5288)" opacity="1"><g transform="scale(1)"><path d="M2.1813,0.3133 T2.0089,1.6002 1.4313,4.8588 0.145,7.5734 1.349,6.5952 5.2391,4.2508 9.129,4.8769 12.0677,7.8832 13.8885,11.5982 16.1128,15.5187 18.4708,19.6641 19.8453,23.3373 19.7647,27.2114 17.5245,31.3984 13.0668,33.8033 7.4055,34.124 1.7228,32.7728 -2.1596,31.02 -3.4484,30.3373 A2.6363,2.6363 0 0 1 -1.2116,25.5627 T1.1518,26.5264 5.4737,28.1208 9.4917,28.623 13.0475,27.7395 14.575,25.301 13.7275,21.7112 11.7007,17.8318 9.6189,13.7391 7.4442,10.0036 3.5573,10.5273 -0.8926,11.4767 -3.0833,8.2233 -3.0222,4.2047 -2.3778,0.9682 -2.1813,-0.3133 A2.2036,2.2036 0 0 1 2.1813,0.3133 Z" stroke-linecap="round" fill="#e599f7"/></g></g><g transform="matrix(1, 0, 0, 1, 3388.2877, 31170.4101)" opacity="1"><g transform="scale(1)"><path d="M1.7194,-0.246 T2.615,4.8729 3.8403,13.1377 4.3186,18.1027 4.4673,19.9216 A2.1528,2.1528 0 0 1 0.1927,20.4384 T-0.1113,18.5126 -0.4919,13.5806 -1.1439,5.4101 -1.7194,0.246 A1.7369,1.7369 0 0 1 1.7194,-0.246 Z" stroke-linecap="round" fill="#e599f7"/></g></g><g transform="matrix(1, 0, 0, 1, 3389.8402, 31164.9763)" opacity="1"><g transform="scale(1)"><path d="M-1.3073,-2.3958 T0.725,-3.4847 4.255,-5.0696 8.2087,-5.4499 11.8964,-4.3721 13.6597,-0.6926 14.0811,3.5827 13.279,6.6346 11.0942,9.1167 7.4962,10.5848 3.0531,10.6475 -0.1474,9.8172 -1.0098,9.4041 A2.6168,2.6168 0 0 1 1.0098,4.5759 T2.7624,5.0081 6.4148,4.9625 8.4744,2.0625 6.9778,-0.0973 3.3144,1.2805 1.3073,2.3958 A2.7292,2.7292 0 0 1 -1.3073,-2.3958 Z" stroke-linecap="round" fill="#e599f7"/></g></g><g transform="matrix(1, 0, 0, 1, 3492.3072, 31126.9393)" opacity="1"><g transform="scale(1)"><path d="M0.2437,2.4247 T-1.5913,2.6043 -5.3418,3.3281 -8.4795,3.2277 -7.5931,5.135 -4.2208,8.8321 -0.944,10.7604 2.5488,11.5671 5.2568,11.3675 6.485,11.1444 A2.1167,2.1167 0 0 1 7.495,15.2556 T6.3032,15.627 2.3891,16.1769 -1.8039,15.9215 -4.831,14.6227 -7.926,12.3159 -11.2733,8.5168 -11.8545,3.1752 -8.7356,-0.6303 -5.3795,-1.7487 -2.0792,-2.2353 -0.2437,-2.4247 A2.4369,2.4369 0 0 1 0.2437,2.4247 Z" stroke-linecap="round" fill="#40c057"/></g></g><g transform="matrix(1, 0, 0, 1, 3514.0426, 31130.0443)" opacity="1"><g transform="scale(1)"><path d="M0.3389,2.3589 T-0.9446,2.5416 -3.9577,3.2748 -7.0629,3.3984 -6.1049,4.2894 -2.099,6.4318 1.1013,7.3659 1.935,5.902 0.0563,3.5734 -1.1282,2.8184 A2.3298,2.3298 0 0 1 1.1282,-1.2584 T2.8068,-0.4124 5.9912,1.554 8.0925,4.3824 8.3362,7.7371 6.3873,10.848 2.5928,12.536 -1.2063,12.3191 -4.6783,10.8425 -9.5465,7.5946 -11.6155,3.2039 -8.9947,0.1908 -5.1058,-1.315 -1.6238,-2.1727 -0.3389,-2.3589 A2.3832,2.3832 0 0 1 0.3389,2.3589 Z" stroke-linecap="round" fill="#40c057"/></g></g><g transform="matrix(1, 0, 0, 1, 3535.7781, 31129.2681)" opacity="1"><g transform="scale(1)"><path d="M0.262,2.348 T-1.3873,2.5594 -4.0494,2.0953 -3.0954,2.8666 0.4126,6.0806 2.679,9.151 3.6458,11.5873 3.8872,12.7205 A2.6057,2.6057 0 0 1 -1.2697,13.4731 T-1.6305,12.3101 -3.2583,9.5912 -7.1869,5.2677 -6.7122,0.2335 -1.919,-2.1905 -0.262,-2.348 A2.3626,2.3626 0 0 1 0.262,2.348 ZM3.0846,15.0037 T2.1161,15.8987 -0.7887,17.3496 -4.8209,17.484 -8.5854,16.3406 -11.8106,14.2067 -13.7084,10.8059 -14.0494,8.8172 A2.4253,2.4253 0 0 1 -9.2306,8.2628 T-8.6401,9.5226 -6.6408,11.3906 -3.5595,12.2623 -1.177,11.8579 -0.4671,11.1899 A2.6057,2.6057 0 0 1 3.0846,15.0037 Z" stroke-linecap="round" fill="#40c057"/></g></g><g transform="matrix(1, 0, 0, 1, 3557.5135, 31116.8478)" opacity="1"><g transform="scale(1)"><path d="M1.3919,1.6717 T-0.811,3.5062 -4.606,7.1301 -7.2301,10.2346 -9.5677,13.3755 -10.1768,18.3645 -8.588,23.4211 -6.215,27.1526 -2.8954,29.4069 -1.0563,29.8232 A2.0666,2.0666 0 0 1 -2.0437,33.8368 T-3.3128,33.5991 -7.1114,31.8936 -10.8487,28.8659 -13.0634,24.9456 -14.2741,17.5373 -13.1084,10.6344 -10.5993,7.3699 -7.6313,3.9805 -3.5973,0.1643 -1.3919,-1.6717 A2.1753,2.1753 0 0 1 1.3919,1.6717 Z" stroke-linecap="round" fill="#40c057"/></g></g><g transform="matrix(1, 0, 0, 1, 3567.6049, 31120.7292)" opacity="1"><g transform="scale(1)"><path d="M2.2698,1.0806 T0.4458,4.9407 -2.2896,11.1339 -3.4314,15.5256 -1.9562,18.2268 1.0336,18.4294 2.3176,17.9896 A2.3293,2.3293 0 0 1 3.9024,22.3704 T2.9884,22.7843 -0.5234,23.4779 -4.9565,22.6712 -7.8013,19.8571 -8.8242,16.698 -8.4231,13.4061 -6.9857,9.0822 -4.1163,2.7692 -2.2698,-1.0806 A2.5139,2.5139 0 0 1 2.2698,1.0806 Z" stroke-linecap="round" fill="#40c057"/></g></g><g transform="matrix(1, 0, 0, 1, 3566.0524, 31131.5969)" opacity="1"><g transform="scale(1)"><path d="M0.6652,2.3305 T-0.6098,2.7296 -3.9631,3.5062 -7.1587,4.0191 -8.2761,4.1545 A2.6178,2.6178 0 0 1 -8.8039,-1.0545 T-7.682,-1.146 -4.906,-1.45 -1.9586,-1.9965 -0.6652,-2.3305 A2.4236,2.4236 0 0 1 0.6652,2.3305 Z" stroke-linecap="round" fill="#40c057"/></g></g><g transform="matrix(1, 0, 0, 1, 3580.0252, 31118.4004)" opacity="1"><g transform="scale(1)"><path d="M2.5334,-0.4213 T2.9047,1.782 3.6526,5.6267 4.384,9.9258 4.8264,14.8597 2.8098,20.8084 -1.4185,27.9225 -3.5427,31.3641 A2.1815,2.1815 0 0 1 -7.3173,29.1759 T-5.3862,25.6223 -1.9194,19.4626 -0.465,14.947 -0.7993,10.7135 -1.431,6.6105 -2.1715,2.6264 -2.5334,0.4213 A2.5682,2.5682 0 0 1 2.5334,-0.4213 Z" stroke-linecap="round" fill="#40c057"/></g></g><g transform="matrix(1, 0, 0, 1, 3591.6692, 31126.9393)" opacity="1"><g transform="scale(1)"><path d="M-0.2265,-1.4747 T2.1403,-1.9668 6.062,-2.8416 10.1674,-3.9369 12.718,-4.6495 A1.6132,1.6132 0 0 1 13.682,-1.5705 T11.0534,-0.6616 6.7315,0.62 2.6323,1.2337 0.2265,1.4747 A1.492,1.492 0 0 1 -0.2265,-1.4747 Z" stroke-linecap="round" fill="#40c057"/></g></g><g transform="matrix(1, 0, 0, 1, 3593.2217, 31130.8206)" opacity="1"><g transform="scale(1)"><path d="M0.16,-1.752 T2.1851,-1.6264 6.7194,-1.3578 10.4773,-1.1562 11.7258,-1.0976 A1.8795,1.8795 0 0 1 11.5542,2.6576 T9.1639,2.5512 5.3211,2.3417 1.8543,1.9953 -0.16,1.752 A1.7593,1.7593 0 0 1 0.16,-1.752 Z" stroke-linecap="round" fill="#40c057"/></g></g><g transform="matrix(1, 0, 0, 1, 3623.496, 31108.3089)" opacity="1"><g transform="scale(1)"><path d="M2.4405,0.4059 T2.0872,2.6122 1.557,6.3006 0.9528,9.9785 -0.0945,13.9119 -0.7143,15.6494 A2.5589,2.5589 0 0 1 -5.5057,13.8506 T-5.0094,12.615 -4.0661,9.2631 -3.4097,5.5725 -2.8203,1.7961 -2.4405,-0.4059 A2.474,2.474 0 0 1 2.4405,0.4059 ZM-5.5236,13.9 T-5.2006,13.0148 -3.8645,10.3789 -1.2946,7.2425 1.5162,5.0517 5.1171,3.8865 9.2183,4.877 11.3735,8.0299 11.4726,12.1088 11.1709,14.3852 A2.6635,2.6635 0 0 1 5.9091,13.5548 T6.0764,12.5342 5.3142,10.4152 3.0263,10.1217 0.8417,12.2206 -0.3404,14.5574 -0.6964,15.6 A2.5589,2.5589 0 0 1 -5.5236,13.9 Z" stroke-linecap="round" fill="#40c057"/></g></g><g transform="matrix(1, 0, 0, 1, 3645.2315, 31116.0716)" opacity="1"><g transform="scale(1)"><path d="M2.0818,0.3462 T1.806,2.5481 2.6002,3.3584 2.402,1.0492 1.1338,0.1317 A2.0638,2.0638 0 0 1 3.5262,-3.2317 T5.0079,-2.2734 7.4197,0.5806 8.0142,4.4254 6.6381,7.9533 3.6741,10.0795 0.3839,10.1375 -1.8271,8.4281 -2.8339,5.6375 -2.5392,1.8603 -2.0818,-0.3462 A2.1104,2.1104 0 0 1 2.0818,0.3462 Z" stroke-linecap="round" fill="#40c057"/></g></g><g transform="matrix(1, 0, 0, 1, 3666.9669, 31109.8614)" opacity="1"><g transform="scale(1)"><path d="M1.3448,1.882 T0.0498,2.7845 -2.5223,3.2776 -2.3364,3.8364 0.2216,5.9801 1.8108,9.3577 0.9274,13.2239 -2.3351,15.455 -6.0686,16.1213 -10.0863,15.3231 -12.9435,13.8837 -13.6318,13.3416 A2.089,2.089 0 0 1 -11.2082,9.9384 T-9.6324,10.7544 -6.5273,11.4753 -4.2632,9.9305 -5.4321,7.0459 -5.6137,2.7973 -2.6182,-0.9493 -1.3448,-1.882 A2.3131,2.3131 0 0 1 1.3448,1.882 Z" stroke-linecap="round" fill="#40c057"/></g></g><g transform="matrix(1, 0, 0, 1, 3677.8346, 31129.2681)" opacity="1"><g transform="scale(1)"><path d="M0.4432,2.0391 T-3.7675,3.0067 -11.8928,4.7085 -18.7519,6.0204 -24.248,6.9236 -28.7777,7.6023 -32.6438,8.1601 -36.337,8.6491 -39.9429,9.0994 -43.4328,9.3508 -49.7101,9.3515 -59.3544,9.2182 -64.4105,9.1694 A2.1795,2.1795 0 0 1 -64.4495,4.8106 T-59.395,4.6715 -49.8539,4.3668 -43.7758,4.1327 -40.5419,3.9384 -36.9627,3.543 -33.2959,3.1274 -29.4608,2.6688 -24.9511,2.1188 -19.5683,1.3906 -12.749,0.2981 -4.6756,-1.1714 -0.4432,-2.0391 A2.0867,2.0867 0 0 1 0.4432,2.0391 Z" stroke-linecap="round" fill="#40c057"/></g></g><g transform="matrix(1, 0, 0, 1, 3624.2723, 31147.1222)" opacity="1"><g transform="scale(1)"><path d="M2.1648,-0.3087 T2.6058,2.2529 3.0972,6.5062 3.1875,11.468 3.1936,15.0309 3.0562,15.6004 2.7865,16.1204 2.4002,16.5608 1.9198,16.8959 1.3731,17.1064 0.7919,17.1798 0.2101,17.1121 -0.3387,16.907 -0.8224,16.5766 -1.213,16.14 -1.4877,15.6227 -1.6307,15.0546 0.0558,11.6306 3.17,7.6272 6.8512,5.9996 10.1635,5.2912 11.1853,5.3383 A2.282,2.282 0 0 1 10.7164,9.8782 T9.7042,9.9607 6.8011,11.0557 4.069,13.403 3.1936,15.0309 3.0562,15.6004 2.7865,16.1204 2.4002,16.5608 1.9198,16.8959 1.3731,17.1064 0.7919,17.1798 0.2101,17.1121 -0.3387,16.907 -0.8224,16.5766 -1.213,16.14 -1.4877,15.6227 -1.6307,15.0546 -1.6636,12.6735 -1.6201,8.0268 -1.8727,2.8886 -2.1648,0.3087 A2.1866,2.1866 0 0 1 2.1648,-0.3087 ZM12.9146,6.4458 T13.262,7.0366 14.0364,9.3756 14.9896,12.2103 15.5159,13.2969 A2.1217,2.1217 0 0 1 12.4241,16.2031 T11.3078,14.8247 9.9368,11.6916 9.3347,9.3538 8.9872,8.7707 A2.282,2.282 0 0 1 12.9146,6.4458 Z" stroke-linecap="round" fill="#40c057"/></g></g><g transform="matrix(1, 0, 0, 1, 3645.2315, 31153.3323)" opacity="1"><g transform="scale(1)"><path d="M1.8568,0.2072 T1.7189,1.8655 1.5931,5.2237 1.1142,6.8002 1.7792,5.6129 3.9039,3.9674 4.8726,3.3859 A1.9192,1.9192 0 0 1 6.8623,6.6684 T6.1324,7.1165 3.3352,9.1454 -0.4655,9.3568 -2.2589,5.538 -2.0878,1.4408 -1.8568,-0.2072 A1.8683,1.8683 0 0 1 1.8568,0.2072 ZM6.8846,3.3997 T7.391,3.7489 8.6348,5.8131 9.9515,9.7921 11.0989,14.0466 12.2466,17.8959 13.1535,21.9573 13.0522,26.2375 11.2265,30.1502 7.7794,33.0022 3.1827,34.2718 -1.951,33.8483 -6.5594,31.3529 -9.2552,27.294 -10.1042,23.9496 -10.2787,22.8448 A1.7706,1.7706 0 0 1 -6.8013,22.1752 T-6.5531,23.2658 -5.421,26.3658 -2.8984,29.233 0.7746,30.1563 4.8849,29.602 8.0469,27.355 9.1832,24.2879 8.7621,20.9527 7.8855,17.0798 6.832,13.2168 5.9057,9.2034 5.2391,6.8649 4.8503,6.6546 A1.9192,1.9192 0 0 1 6.8846,3.3997 Z" stroke-linecap="round" fill="#40c057"/></g></g><g transform="matrix(1, 0, 0, 1, 3661.533, 31154.1086)" opacity="1"><g transform="scale(1)"><path d="M1.5215,-0.2076 T2.2141,3.8126 3.3092,10.3344 3.7221,14.2932 3.6799,16.4678 3.6274,17.1854 A2.08,2.08 0 0 1 -0.5274,16.9746 T-0.4366,15.1387 -0.5242,10.8139 -1.112,4.2663 -1.5215,0.2076 A1.5356,1.5356 0 0 1 1.5215,-0.2076 ZM-0.53,17.08 T-0.5072,16.305 -0.4843,15.53 A2.0343,2.0343 0 0 1 3.5843,15.53 T3.6072,16.305 3.63,17.08 A2.08,2.08 0 0 1 -0.53,17.08 Z" stroke-linecap="round" fill="#40c057"/></g></g><g transform="matrix(1, 0, 0, 1, 3663.8618, 31151.0035)" opacity="1"><g transform="scale(1)"><path d="M-0.6017,-2.8537 T2.8863,-3.5942 8.3898,-4.5604 11.9638,-4.4402 14.671,-3.1258 16.0883,0.1373 15.5372,3.9103 13.4996,6.4557 10.443,8.4309 6.9913,9.8254 3.2008,9.9249 0.2873,9.1504 -0.449,8.7628 A2.8332,2.8332 0 0 1 2.009,3.6572 T3.6033,4.0122 6.8122,3.7297 9.6642,2.0619 9.2404,1.2121 4.0904,2.1231 0.6017,2.8537 A2.9164,2.9164 0 0 1 -0.6017,-2.8537 Z" stroke-linecap="round" fill="#40c057"/></g></g><g transform="matrix(1, 0, 0, 1, 3193.4451, 31213.1047)" opacity="1"><g transform="scale(1)"><path d="M1.9679,1.2513 T0.6908,3.2755 -1.4285,6.7084 -3.3983,10.1512 -5.4538,13.7826 -6.2763,19.3628 -5.7658,25.1774 -4.6756,28.7134 -2.5645,31.5653 0.6936,32.9208 4.6579,32.3354 6.7896,31.5423 A2.0782,2.0782 0 0 1 8.7304,35.2177 T7.8201,35.7699 4.5749,37.1595 -0.0354,37.7848 -3.8436,36.7136 -6.9915,34.2743 -9.4799,30.3549 -10.7265,25.9722 -11.3768,20.0798 -11.0073,14.52 -9.5222,11.3739 -7.4972,7.812 -5.4307,4.2323 -3.2592,0.7639 -1.9679,-1.2513 A2.3321,2.3321 0 0 1 1.9679,1.2513 Z" stroke-linecap="round" fill="#ffc034"/></g></g><g transform="matrix(1, 0, 0, 1, 3192.6688, 31230.9588)" opacity="1"><g transform="scale(1)"><path d="M0,2.3194 T-3.1218,2.384 -8.8064,2.4989 -13.0864,2.5641 -16.7168,2.592 -18.63,2.605 A2.605,2.605 0 0 1 -18.63,-2.605 T-16.7168,-2.592 -13.0864,-2.5641 -8.8064,-2.4989 -3.1218,-2.384 0,-2.3194 A2.3194,2.3194 0 0 1 0,2.3194 Z" stroke-linecap="round" fill="#ffc034"/></g></g><g transform="matrix(1, 0, 0, 1, 3214.4043, 31234.8402)" opacity="1"><g transform="scale(1)"><path d="M0.2093,2.2916 T-1.8032,2.4859 -6.0482,3.5053 -9.2432,5.7524 -10.7093,6.3703 -8.1205,5.4889 -3.2149,5.2884 -0.0515,4.2877 1.2989,3.4103 A2.1415,2.1415 0 0 1 4.2495,6.5148 T3.1452,7.4802 0.5345,9.0048 -3.0156,9.7766 -9.2847,9.8589 -13.9616,7.4229 -13.2871,3.3179 -9.8915,0.2964 -5.9425,-1.434 -2.2362,-2.117 -0.2093,-2.2916 A2.3011,2.3011 0 0 1 0.2093,2.2916 ZM4.9027,4.7276 T5.0417,5.8707 5.6514,8.3679 7.8438,10.5409 10.7853,11.5835 12.0051,11.8073 A2.1933,2.1933 0 0 1 11.2749,16.1327 T10.0493,15.9437 6.4065,14.9043 2.663,12.3547 1.0948,8.9808 0.7492,6.2519 0.6457,5.1975 A2.1415,2.1415 0 0 1 4.9027,4.7276 Z" stroke-linecap="round" fill="#ffc034"/></g></g><g transform="matrix(1, 0, 0, 1, 3236.1397, 31233.2876)" opacity="1"><g transform="scale(1)"><path d="M2.1841,0.2565 T1.8904,3.3848 1.6926,8.482 1.7885,10.4507 A2.3798,2.3798 0 0 1 -2.9684,10.6096 T-3.0158,8.2918 -2.6236,2.8588 -2.1841,-0.2565 A2.1991,2.1991 0 0 1 2.1841,0.2565 ZM-1.8295,8.4986 T-1.0566,8.0433 3.6669,6.2668 9.8645,4.8371 13.4923,5.2457 15.7889,6.9483 16.7252,10.4594 16.1477,15.2091 15.5498,17.6332 A2.4141,2.4141 0 0 1 10.8502,16.5268 T11.1357,15.2565 11.7425,11.7293 10.5299,9.4631 5.7726,10.412 1.5993,11.9659 0.6495,12.5616 A2.3798,2.3798 0 0 1 -1.8295,8.4986 Z" stroke-linecap="round" fill="#ffc034"/></g></g><g transform="matrix(1, 0, 0, 1, 3272.236, 31224.7487)" opacity="1"><g transform="scale(1)"><path d="M1.5985,1.2792 T0.1506,3.1311 -2.5991,6.6853 -4.9045,9.9529 -6.9243,13.5105 -7.5421,18.4721 -6.0901,23.0711 -3.6656,26.9797 -2.2945,29.2585 A1.8807,1.8807 0 0 1 -5.4655,31.2815 T-6.9542,29.0777 -9.9561,24.4804 -11.2694,16.8785 -10.2979,10.4127 -8.4001,7.4597 -5.9257,4.0611 -3.088,0.5394 -1.5985,-1.2792 A2.0474,2.0474 0 0 1 1.5985,1.2792 Z" stroke-linecap="round" fill="#ffc034"/></g></g><g transform="matrix(1, 0, 0, 1, 3285.4325, 31225.525)" opacity="1"><g transform="scale(1)"><path d="M2.181,1.1737 T0.905,3.5644 -1.2184,7.5787 -2.9412,10.5437 -4.8459,13.9616 -4.6593,17.9154 -1.3576,22.4488 0.7282,25.1049 A1.9814,1.9814 0 0 1 -2.2882,27.6751 T-4.5796,25.1941 -9.039,19.9691 -10.3279,14.4558 -7.9823,9.2631 -5.6408,5.2148 -3.4734,1.2082 -2.181,-1.1737 A2.4768,2.4768 0 0 1 2.181,1.1737 Z" stroke-linecap="round" fill="#ffc034"/></g></g><g transform="matrix(1, 0, 0, 1, 3284.6563, 31241.0503)" opacity="1"><g transform="scale(1)"><path d="M0,1.7597 T-2.7529,1.8266 -8.5729,1.9416 -11.64,1.9897 A1.9897,1.9897 0 0 1 -11.64,-1.9897 T-8.5729,-1.9416 -2.7529,-1.8266 0,-1.7597 A1.7597,1.7597 0 0 1 0,1.7597 Z" stroke-linecap="round" fill="#ffc034"/></g></g><g transform="matrix(1, 0, 0, 1, 3300.9578, 31224.7487)" opacity="1"><g transform="scale(1)"><path d="M2.6083,-0.6023 T3.1654,1.7828 4.0401,6.0636 4.889,10.3327 5.5938,14.6352 5.8207,18.2371 5.8977,21.502 5.6444,24.9508 4.8092,28.8395 3.4948,32.8877 2.0022,36.6597 0.3365,39.9183 -1.5538,42.9994 -2.5147,44.5775 A2.4143,2.4143 0 0 1 -6.8053,42.3625 T-6.0753,40.6652 -4.7571,37.531 -3.4166,34.3627 -1.9958,30.9875 -0.6905,26.9196 0.1166,23.0276 0.278,20.0035 0.2132,16.8688 -0.0628,13.4971 -0.6374,10.262 -1.2551,7.0988 -2.0633,2.9898 -2.6083,0.6023 A2.6769,2.6769 0 0 1 2.6083,-0.6023 Z" stroke-linecap="round" fill="#ffc034"/></g></g><g transform="matrix(1, 0, 0, 1, 3327.3509, 31241.0503)" opacity="1"><g transform="scale(1)"><path d="M-0.1419,-1.9774 T2.4242,-2.2275 6.9155,-2.6047 11.2873,-3.2412 15.1557,-4.081 16.5776,-4.4112 A2.141,2.141 0 0 1 17.5824,-0.2488 T14.8229,0.4416 10.5645,1.3684 7.1792,1.6724 2.7174,1.8586 0.1419,1.9774 A1.9825,1.9825 0 0 1 -0.1419,-1.9774 Z" stroke-linecap="round" fill="#ffc034"/></g></g><g transform="matrix(1, 0, 0, 1, 3327.3509, 31250.3655)" opacity="1"><g transform="scale(1)"><path d="M0,-2.0625 T2.2042,-2.1679 5.9365,-2.3318 9.8053,-2.4362 14.2229,-2.3901 16.3,-2.298 A2.298,2.298 0 0 1 16.3,2.298 T14.2229,2.3901 9.8053,2.4362 5.9365,2.3318 2.2042,2.1679 0,2.0625 A2.0625,2.0625 0 0 1 0,-2.0625 Z" stroke-linecap="round" fill="#ffc034"/></g></g><g transform="matrix(1, 0, 0, 1, 3366.1641, 31220.0911)" opacity="1"><g transform="scale(1)"><path d="M2.3251,0.1797 T2.1908,2.5699 1.9927,6.743 1.7012,9.9988 0.7866,14.2934 0.0998,17.1151 A2.5628,2.5628 0 0 1 -4.7598,15.4849 T-4.289,14.1689 -3.4369,10.5532 -2.925,6.4194 -2.5597,2.2027 -2.3251,-0.1797 A2.3321,2.3321 0 0 1 2.3251,0.1797 ZM-4.5821,15.0768 T-3.0719,12.3807 -0.5221,8.3055 2.137,5.2197 5.6055,2.4708 9.8754,1.4112 13.4356,2.2869 15.3478,4.8859 15.7892,8.7021 14.6996,12.4395 13.1911,14.8877 12.4411,15.7087 A2.7043,2.7043 0 0 1 8.5995,11.9014 T9.52,10.546 10.476,7.5121 8.728,6.4839 5.7,8.4818 3.5445,11.0962 1.2778,14.943 -0.0779,17.5232 A2.5628,2.5628 0 0 1 -4.5821,15.0768 ZM8.1695,12.4683 T8.7701,11.4585 10.3905,9.0656 12.669,6.2394 15.816,3.7924 20.0195,2.5048 24.1496,2.4098 27.5821,4.6606 29.317,8.9062 29.1525,12.8246 28.3314,15.8085 27.7921,17.0575 A2.8201,2.8201 0 0 1 22.5856,14.889 T23.2187,12.5831 23.9606,8.8167 22.429,7.4381 19.1195,8.0739 16.4827,9.819 14.5782,12.3522 13.2563,14.418 12.8711,15.1418 A2.7043,2.7043 0 0 1 8.1695,12.4683 ZM24.2125,13.3276 T24.831,13.1545 25.4495,12.9815 A2.7165,2.7165 0 0 1 27.3305,18.0785 T26.7478,18.3487 26.1652,18.6189 A2.8201,2.8201 0 0 1 24.2125,13.3276 Z" stroke-linecap="round" fill="#ffc034"/></g></g><g transform="matrix(1, 0, 0, 1, 3408.8587, 31228.63)" opacity="1"><g transform="scale(1)"><path d="M0.3326,2.3153 T-0.9507,2.499 -4.0033,3.6768 -6.08,3.8236 -3.867,4.1301 0.1812,5.7864 2.7823,5.1618 3.5271,2.462 2.3766,0.1069 1.5545,-0.6756 A2.2708,2.2708 0 0 1 4.6655,-3.9844 T6.0573,-2.6855 8.1589,0.4123 8.5536,4.4713 6.3557,8.5284 2.6295,10.7358 -1.4403,10.4173 -6.878,7.8047 -8.7824,2.9826 -5.189,-0.9504 -1.6176,-2.1301 -0.3326,-2.3153 A2.339,2.339 0 0 1 0.3326,2.3153 Z" stroke-linecap="round" fill="#ffc034"/></g></g><g transform="matrix(1, 0, 0, 1, 3434.4755, 31207.6709)" opacity="1"><g transform="scale(1)"><path d="M1.9083,1.1273 T-0.4276,5.196 -4.0951,12.2452 -6.0848,17.2789 -6.7504,21.2895 -5.6989,24.3441 -0.9704,24.8922 2.699,24.3431 A2.0877,2.0877 0 0 1 3.521,28.4369 T1.3056,29.061 -4.7586,29.7177 -10.1478,27.8529 -11.9669,23.54 -11.9279,19.3808 -10.7484,15.3774 -8.3341,10.0053 -4.3449,2.8829 -1.9083,-1.1273 A2.2164,2.2164 0 0 1 1.9083,1.1273 Z" stroke-linecap="round" fill="#ffc034"/></g></g><g transform="matrix(1, 0, 0, 1, 3432.9229, 31220.8674)" opacity="1"><g transform="scale(1)"><path d="M0.1098,1.5295 T-2.4467,1.9138 -7.8659,2.2992 -13.8769,2.3367 -17.0251,2.3731 A1.5941,1.5941 0 0 1 -17.1349,-0.8131 T-13.9915,-0.9933 -8.0641,-1.3669 -2.6948,-1.5448 -0.1098,-1.5295 A1.5334,1.5334 0 0 1 0.1098,1.5295 Z" stroke-linecap="round" fill="#ffc034"/></g></g><g transform="matrix(1, 0, 0, 1, 3450.0008, 31244.9316)" opacity="1"><g transform="scale(1)"><path d="M0.0865,1.8199 T-7.6149,2.3655 -21.4116,3.2521 -31.636,3.8069 -38.7792,4.3382 -44.5652,4.8506 -49.5336,5.1612 -53.627,5.346 -57.4455,5.4662 -65.9897,5.9025 -76.5177,6.4873 -82.7991,6.5965 -86.5452,6.3079 -87.9153,6.1097 A3.006,3.006 0 0 1 -87.5247,0.1103 T-86.2381,0.0851 -82.8516,0.1246 -76.8643,-0.0076 -66.2033,-0.5719 -57.5354,-0.9248 -53.7797,-0.911 -49.7653,-0.9282 -44.9228,-1.0008 -39.066,-1.2156 -31.7814,-1.3642 -21.5937,-1.3994 -7.8049,-1.6324 -0.0865,-1.8199 A1.8219,1.8219 0 0 1 0.0865,1.8199 Z" stroke-linecap="round" fill="#ffc034"/></g></g><g transform="matrix(1, 0, 0, 1, 3375.4793, 31259.6806)" opacity="1"><g transform="scale(1)"><path d="M2.7437,0.1378 T2.6234,3.8139 2.2682,10.416 1.9144,15.1866 1.5222,18.7062 0.5161,22.6911 -0.2166,25.0009 A3.0425,3.0425 0 0 1 -6.0034,23.1191 T-5.1214,19.8365 -4.064,14.6581 -3.5647,9.9818 -2.9923,3.5317 -2.7437,-0.1378 A2.7472,2.7472 0 0 1 2.7437,0.1378 ZM-5.5923,22.3007 T-3.5295,19.5671 -0.0204,15.6432 3.0154,13.4055 5.9483,11.7392 9.8575,11.4141 13.6555,13.3809 15.1179,17.1756 15.0235,20.7978 14.5086,23.7458 14.3182,25.1931 A2.7013,2.7013 0 0 1 8.9618,24.4869 T9.0655,23.5547 9.6422,20.4591 8.8711,17.5639 6.3411,17.7369 3.8359,19.7645 0.9946,23.3533 -0.6277,25.8193 A3.0425,3.0425 0 0 1 -5.5923,22.3007 Z" stroke-linecap="round" fill="#ffc034"/></g></g><g transform="matrix(1, 0, 0, 1, 3407.3062, 31275.2059)" opacity="1"><g transform="scale(1)"><path d="M1.0629,2.1278 T-1.5132,3.398 -5.4946,5.6307 -8.0877,7.7386 -6.2383,7.7888 -1.4584,5.9864 0.7914,3.2408 1.2987,1.2023 A1.8599,1.8599 0 0 1 4.9213,0.3577 T5.1654,1.22 4.9807,4.647 3.2994,8.2372 -0.0383,10.2078 -6.3877,11.9524 -11.9543,11.7279 -13.2427,8.5468 -11.3798,4.5581 -7.8622,1.5976 -3.6283,-0.8296 -1.0629,-2.1278 A2.3785,2.3785 0 0 1 1.0629,2.1278 Z" stroke-linecap="round" fill="#ffc034"/></g></g><g transform="matrix(1, 0, 0, 1, 3429.0416, 31272.8771)" opacity="1"><g transform="scale(1)"><path d="M1.0342,2.4101 T-0.2545,2.9506 -2.4733,2.6683 -1.293,3.8198 1.446,8.1581 1.8025,12.0373 -0.3423,15.1796 -4.555,16.8959 -9.0611,15.8352 -11.2273,14.6851 A2.5346,2.5346 0 0 1 -8.9527,10.1549 T-7.9763,10.571 -5.332,11.4292 -3.4419,10.4502 -5.6703,6.5084 -5.8571,1.3504 -2.3138,-1.8485 -1.0342,-2.4101 A2.6227,2.6227 0 0 1 1.0342,2.4101 Z" stroke-linecap="round" fill="#ffc034"/></g></g><g transform="matrix(1, 0, 0, 1, 3471.0056, 31237.3153)" opacity="1"><g transform="scale(1)"><path d="M-0.2398,-1.669 T0.9565,-1.8775 4.0567,-2.2762 7.4445,-2.7841 11.7605,-3.4303 16.9571,-4.0919 19.3214,-4.4251 A1.5486,1.5486 0 0 1 19.8586,-1.3749 T17.5228,-0.8802 12.3119,0.1379 7.8077,0.9406 4.4157,1.3077 1.4464,1.5322 0.2398,1.669 A1.6861,1.6861 0 0 1 -0.2398,-1.669 Z" stroke-linecap="round" fill="#ffc034"/></g></g><g transform="matrix(1, 0, 0, 1, 3471.0056, 31247.4713)" opacity="1"><g transform="scale(1)"><path d="M-0.233,-1.6323 T2.1555,-2.0744 6.0751,-2.908 9.2249,-3.5421 13.005,-3.9921 16.314,-4.1107 17.4615,-4.0217 A1.8424,1.8424 0 0 1 17.3585,-0.3383 T16.2079,-0.3136 13.1988,-0.0171 9.8912,0.3845 6.7547,0.8296 2.6501,1.3886 0.233,1.6323 A1.6488,1.6488 0 0 1 -0.233,-1.6323 Z" stroke-linecap="round" fill="#ffc034"/></g></g><g transform="matrix(1, 0, 0, 1, 3534.1176, 31214.8271)" opacity="1"><g transform="scale(1)"><path d="M0.1207,1.9204 T-2.6243,2.0975 -6.8927,2.531 -10.1593,3.1195 -11.7386,2.7513 -9.9518,3.9677 -7.1175,7.6781 -5.3672,11.0687 -5.2028,14.4809 -6.929,17.8554 -9.9876,20.0826 -14.2958,20.6758 -18.8123,19.9914 -22.0607,18.566 -24.803,16.0725 -26.2115,14.3944 A2.0464,2.0464 0 0 1 -23.1085,11.7256 T-22.4198,12.4834 -20.4591,14.2955 -17.7145,15.8679 -14.8045,16.5265 -11.8397,16.2896 -9.5791,14.6675 -9.5616,11.7532 -11.714,8.2033 -14.2609,4.7141 -14.2766,1.4602 -11.109,-0.6181 -7.325,-1.3179 -2.8672,-1.7522 -0.1207,-1.9204 A1.9241,1.9241 0 0 1 0.1207,1.9204 Z" stroke-linecap="round" fill="#ffc034"/></g></g><g transform="matrix(1, 0, 0, 1, 3538.4702, 31223.5322)" opacity="1"><g transform="scale(1)"><path d="M1.7732,0.5061 T1.1654,2.9312 -0.1506,8.0495 -0.8588,10.7426 A2.1227,2.1227 0 0 1 -4.9412,9.5774 T-4.1211,6.9162 -2.5371,1.8744 -1.7732,-0.5061 A1.844,1.844 0 0 1 1.7732,0.5061 Z" stroke-linecap="round" fill="#ffc034"/></g></g><g transform="matrix(1, 0, 0, 1, 3544.2736, 31198.8678)" opacity="1"><g transform="scale(1)"><path d="M 0 -0.73 m -2.633441917710341, 0 a 2.633441917710341,2.633441917710341 0 1,1 5.266883835420682,0 a 2.633441917710341,2.633441917710341 0 1,1 -5.266883835420682,0" stroke-linecap="round" fill="#ffc034"/></g></g><g transform="matrix(1, 0, 0, 1, 3547.1753, 31221.356)" opacity="1"><g transform="scale(1)"><path d="M2.0413,0.6278 T1.3815,2.866 0.1896,6.6695 -1.2087,10.4076 -2.4938,13.8948 -2.9126,15.2093 A2.2774,2.2774 0 0 1 -7.2474,13.8107 T-6.751,12.2887 -5.3959,8.7629 -4.0011,5.2878 -2.7532,1.5944 -2.0413,-0.6278 A2.1357,2.1357 0 0 1 2.0413,0.6278 ZM-6.7643,12.9771 T-3.9723,9.9441 0.5572,5.6578 4.3252,3.6805 6.3558,2.9563 A2.2741,2.2741 0 0 1 6.8063,7.4822 T5.8539,7.7753 3.3613,9.1547 -0.7873,13.1419 -3.3957,16.0429 A2.2774,2.2774 0 0 1 -6.7643,12.9771 ZM8.3306,3.7664 T9.0941,4.6711 10.3454,7.3185 10.95,10.5831 11.4298,13.7875 11.7929,15.4698 A2.4132,2.4132 0 0 1 7.0671,16.4502 T6.6506,14.3746 6.125,10.2133 5.4238,7.3999 4.8315,6.6721 A2.2741,2.2741 0 0 1 8.3306,3.7664 Z" stroke-linecap="round" fill="#ffc034"/></g></g><g transform="matrix(1, 0, 0, 1, 3579.094, 31205.3966)" opacity="1"><g transform="scale(1)"><path d="M1.8248,1.1534 T-0.2004,4.4343 -3.9539,10.6364 -6.9417,15.6363 -8.9893,19.2457 -10.8167,23.2581 -10.3858,28.9847 -6.8602,35.9178 -4.805,39.6059 A2.001,2.001 0 0 1 -8.255,41.6341 T-10.4781,38.0448 -14.8253,30.5967 -16.1474,24.0502 -14.6856,19.9475 -13.1279,16.8722 -10.9366,13.1829 -7.8286,8.2372 -3.9194,2.0836 -1.8248,-1.1534 A2.1588,2.1588 0 0 1 1.8248,1.1534 Z" stroke-linecap="round" fill="#ffc034"/></g></g><g transform="matrix(1, 0, 0, 1, 3590.7008, 31210.4746)" opacity="1"><g transform="scale(1)"><path d="M2.1246,1.0616 T0.4384,4.5074 -2.2803,10.2556 -4.0057,14.4012 -5.2367,17.7505 -6.1465,21.1029 -3.6459,23.9248 -0.7736,24.9003 A2.0542,2.0542 0 0 1 -2.1264,28.7797 T-4.1338,28.2164 -8.3209,26.7095 -11.0746,23.9605 -11.1185,19.8205 -10.0064,15.9509 -8.6375,12.4354 -6.7307,8.1142 -3.8676,2.3559 -2.1246,-1.0616 A2.3751,2.3751 0 0 1 2.1246,1.0616 Z" stroke-linecap="round" fill="#ffc034"/></g></g><g transform="matrix(1, 0, 0, 1, 3588.5245, 31227.8848)" opacity="1"><g transform="scale(1)"><path d="M0,1.9495 T-1.3717,1.989 -5.3204,2.058 -9.3887,2.087 -10.88,2.0867 A2.0867,2.0867 0 0 1 -10.88,-2.0867 T-9.3887,-2.087 -5.3204,-2.058 -1.3717,-1.989 0,-1.9495 A1.9495,1.9495 0 0 1 0,1.9495 Z" stroke-linecap="round" fill="#ffc034"/></g></g><g transform="matrix(1, 0, 0, 1, 3602.3076, 31209.0237)" opacity="1"><g transform="scale(1)"><path d="M2.2864,-0.1534 T2.4898,2.4177 2.8129,7.0553 3.1539,10.6024 3.5109,13.6803 3.7558,17.8683 1.1798,24.8804 -3.9879,32.2887 -6.4703,35.2757 A1.9135,1.9135 0 0 1 -9.4897,32.9243 T-7.2017,29.7859 -3.0106,23.6116 -1.1832,18.1116 -1.3535,14.1956 -1.6629,11.0409 -1.9403,7.3209 -2.1445,2.7286 -2.2864,0.1534 A2.2915,2.2915 0 0 1 2.2864,-0.1534 Z" stroke-linecap="round" fill="#ffc034"/></g></g><g transform="matrix(1, 0, 0, 1, 3611.7382, 31253.2747)" opacity="1"><g transform="scale(1)"><path d="M0.199,1.8914 T-6.3124,2.6628 -17.1316,3.8673 -24.5814,4.5599 -30.4217,4.9855 -35.4037,5.2591 -39.7527,5.4403 -43.9375,5.5718 -48.032,5.6733 -51.734,5.7515 -62.547,5.1212 -77.7103,4.1076 -87.504,3.5601 -93.684,3.2483 -97.6363,3.2275 -100.7323,3.2392 -104.0781,3.0905 -105.8168,3.023 A2.2949,2.2949 0 0 1 -106.0032,-1.563 T-104.2756,-1.7713 -101.0442,-2.1872 -97.7286,-2.5417 -93.419,-2.6022 -87.1799,-2.3341 -77.3122,-1.7812 -62.3296,-0.7068 -51.7513,0.0222 -48.0623,0.0767 -43.9931,0.1333 -39.8493,0.1797 -35.5569,0.1994 -30.6577,0.1663 -24.9102,0.0102 -17.5343,-0.4011 -6.7282,-1.2911 -0.199,-1.8914 A1.9019,1.9019 0 0 1 0.199,1.8914 Z" stroke-linecap="round" fill="#ffc034"/></g></g><g transform="matrix(1, 0, 0, 1, 3523.2362, 31277.2138)" opacity="1"><g transform="scale(1)"><path d="M1.1364,2.5252 T-2.289,4.0724 -7.6312,7.0135 -10.6756,9.5879 -8.283,11.1663 -0.6796,12.7295 3.4033,13.8947 A2.1257,2.1257 0 0 1 2.3967,18.0253 T-1.7646,17.1813 -10.1884,15.3956 -15.7937,12.5323 -16.2243,8.2378 -14.0481,4.8168 -10.3981,2.1634 -4.5742,-0.9837 -1.1364,-2.5252 A2.7691,2.7691 0 0 1 1.1364,2.5252 Z" stroke-linecap="round" fill="#ffc034"/></g></g><g transform="matrix(1, 0, 0, 1, 3539.1956, 31283.0172)" opacity="1"><g transform="scale(1)"><path d="M-0.4632,2.3032 T-1.3066,2.1352 -3.6288,2.9812 -5.6402,3.0974 -2.7911,2.8689 2.6895,3.846 4.7998,2.6682 4.8114,1.1827 A2.0862,2.0862 0 0 1 8.2486,-1.1827 T9.3848,0.3848 10.5827,3.8141 8.9618,7.0947 5.7194,8.7151 1.8103,8.5828 -4.9517,7.0457 -9.0521,3.3478 -7.3246,-0.3404 -3.5967,-2.0958 -0.4104,-2.4805 0.4632,-2.3032 A2.3493,2.3493 0 0 1 -0.4632,2.3032 Z" stroke-linecap="round" fill="#ffc034"/></g></g><g transform="matrix(1, 0, 0, 1, 3568.2126, 31280.1155)" opacity="1"><g transform="scale(1)"><path d="M0.6528,2.2872 T-1.7485,2.9746 -3.5268,6.2425 -2.4428,10.5031 -2.7796,14.5969 -5.4738,17.9466 -9.5422,18.8692 -13.4381,18.1711 -16.4675,15.4845 -17.9946,12.5091 -18.2163,11.5355 A2.3496,2.3496 0 0 1 -13.7037,10.2245 T-12.289,11.925 -9.0624,13.6476 -7.3901,12.2296 -8.8883,7.6814 -9.3334,2.4608 -6.9408,-0.2851 -3.0572,-1.6029 -0.6528,-2.2872 A2.3785,2.3785 0 0 1 0.6528,2.2872 Z" stroke-linecap="round" fill="#ffc034"/></g></g><g transform="matrix(1, 0, 0, 1, 3588.5245, 31270.6849)" opacity="1"><g transform="scale(1)"><path d="M1.635,1.635 T-0.9415,4.2033 -5.2755,9.0722 -8.1399,12.9485 -9.9795,16.3658 -9.1432,20.032 -4.8728,23.0876 -2.1714,24.3187 A1.9431,1.9431 0 0 1 -3.6286,27.9213 T-6.4262,26.9282 -12.184,24.5848 -15.5026,20.9428 -15.2309,16.5152 -13.8796,13.0429 -11.9523,10.0827 -8.7602,5.9899 -4.2047,0.9429 -1.635,-1.635 A2.3122,2.3122 0 0 1 1.635,1.635 Z" stroke-linecap="round" fill="#ffc034"/></g></g><g transform="matrix(1, 0, 0, 1, 3599.4059, 31272.8612)" opacity="1"><g transform="scale(1)"><path d="M1.9203,0.8528 T0.6017,3.9636 -1.3327,9.4341 -2.1773,14.1857 -1.0183,17.8273 0.3697,19.0771 A2.25,2.25 0 0 1 -1.8297,23.0029 T-3.6295,21.9991 -6.2189,19.6504 -6.9968,16.0382 -6.7074,12.1337 -5.5999,7.8884 -3.3451,2.2138 -1.9203,-0.8528 A2.1011,2.1011 0 0 1 1.9203,0.8528 Z" stroke-linecap="round" fill="#ffc034"/></g></g><g transform="matrix(1, 0, 0, 1, 3599.4059, 31283.0172)" opacity="1"><g transform="scale(1)"><path d="M0.3488,1.7439 T-1.3407,2.2128 -5.46,2.8191 -9.0928,2.8218 -10.2956,2.6872 A1.9619,1.9619 0 0 1 -10.0244,-1.2272 T-8.8145,-1.1946 -5.7165,-1.236 -2.0886,-1.527 -0.3488,-1.7439 A1.7784,1.7784 0 0 1 0.3488,1.7439 Z" stroke-linecap="round" fill="#ffc034"/></g></g><g transform="matrix(1, 0, 0, 1, 3610.2873, 31271.4103)" opacity="1"><g transform="scale(1)"><path d="M2.4037,-0.9253 T3.2696,1.3021 4.7755,5.2354 5.8012,8.4959 6.7617,12.5861 7.0241,17.6601 4.6651,22.546 0.6818,26.9438 -1.2549,28.9942 A2.176,2.176 0 0 1 -4.5451,26.1458 T-2.7931,23.9354 0.3857,19.4751 1.7767,15.5461 1.125,11.305 -0.0961,7.0672 -1.5526,3.1583 -2.4037,0.9253 A2.5756,2.5756 0 0 1 2.4037,-0.9253 Z" stroke-linecap="round" fill="#ffc034"/></g></g></svg>