<svg xmlns="http://www.w3.org/2000/svg" direction="ltr" width="925.6852472121132" height="940.0816870002527" viewBox="1352.5743603687743 18504.283213217142 925.6852472121132 940.0816870002527" stroke-linecap="round" stroke-linejoin="round" style="background-color: transparent;"><defs/><g transform="matrix(1, 0, 0, 1, 1506.202, 18574.4944)" opacity="1"><g transform="scale(1)"><path d="M3.0583,1.7463 T2.175,3.296 -0.648,7.7453 -4.2006,12.6764 -7.0429,16.3731 -10.7711,20.8671 -14.6823,25.208 -16.0945,26.7198 A3.5429,3.5429 0 0 1 -21.3255,21.9402 T-19.947,20.3977 -16.3229,16.2628 -12.744,11.9289 -9.8392,8.2767 -6.5487,3.8583 -3.944,-0.1979 -3.0583,-1.7463 A3.5217,3.5217 0 0 1 3.0583,1.7463 Z" stroke-linecap="round" fill="#f2f2f2"/></g></g><g transform="matrix(1, 0, 0, 1, 1489.3613, 18577.3012)" opacity="1"><g transform="scale(1)"><path d="M3.0809,-1.3217 T3.7749,0.2147 5.9935,4.6032 9.4065,10.4317 12.9367,15.7005 15.988,20.0195 18.8154,24.0509 20.2334,26.0556 A3.1744,3.1744 0 0 1 15.3266,30.0844 T13.4159,28.035 9.9648,24.0107 6.7527,19.6723 3.1809,14.0824 -0.2648,7.6505 -2.4457,2.8834 -3.0809,1.3217 A3.3525,3.3525 0 0 1 3.0809,-1.3217 Z" stroke-linecap="round" fill="#f2f2f2"/></g></g><g transform="matrix(1, 0, 0, 1, 1506.202, 18537.0705)" opacity="1"><g transform="scale(1)"><path d="M0.8321,-3.7466 T2.8133,-3.2506 7.6259,-1.3838 11.3241,2.9263 11.2237,7.6362 8.7634,10.7455 6.6726,12.6425 6.0749,13.2009 A3.5237,3.5237 0 0 1 -0.8001,11.6518 T0.0068,10.0475 1.9922,6.4834 1.1693,4.1351 -0.8321,3.7466 A3.8378,3.8378 0 0 1 0.8321,-3.7466 ZM4.1718,9.2543 T5.2977,9.778 9.8284,10.6445 14.8478,11.3367 16.4625,11.6861 A3.3301,3.3301 0 0 1 15.3575,18.2539 T13.7174,18.0557 9.6279,17.6623 4.9301,16.9355 1.8922,16.0011 1.1029,15.5984 A3.5237,3.5237 0 0 1 4.1718,9.2543 Z" stroke-linecap="round" fill="#f2f2f2"/></g></g><g transform="matrix(1, 0, 0, 1, 1536.1411, 18571.6876)" opacity="1"><g transform="scale(1)"><path d="M2.5336,-0.2314 T2.8118,2.1967 3.6735,8.2375 4.6157,14.4194 5.2331,20.0506 5.4916,23.1126 A2.6959,2.6959 0 0 1 0.1284,23.6674 T-0.0627,22.1289 -0.7025,17.7999 -1.3639,12.1185 -1.8887,7.1685 -2.3672,2.6705 -2.5336,0.2314 A2.5441,2.5441 0 0 1 2.5336,-0.2314 Z" stroke-linecap="round" fill="#f2f2f2"/></g></g><g transform="matrix(1, 0, 0, 1, 1540.8191, 18582.9148)" opacity="1"><g transform="scale(1)"><path d="M-0.3009,2.3942 T-2.0766,2.2262 -7.2795,1.8616 -12.8754,1.5321 -15.0441,1.3993 A2.3405,2.3405 0 0 1 -14.8959,-3.2793 T-12.7231,-3.2745 -6.887,-3.1086 -1.4614,-2.6709 0.3009,-2.3942 A2.413,2.413 0 0 1 -0.3009,2.3942 Z" stroke-linecap="round" fill="#f2f2f2"/></g></g><g transform="matrix(1, 0, 0, 1, 1559.5311, 18574.4944)" opacity="1"><g transform="scale(1)"><path d="M2.7923,-0.5579 T3.2769,1.6476 4.4046,7.5394 5.5358,14.2659 6.3579,19.1274 6.6918,20.9487 A3.0066,3.0066 0 0 1 0.7882,22.0913 T0.4184,20.277 -0.4586,15.4046 -1.4792,8.6741 -2.3924,2.7797 -2.7923,0.5579 A2.8475,2.8475 0 0 1 2.7923,-0.5579 Z" stroke-linecap="round" fill="#f2f2f2"/></g></g><g transform="matrix(1, 0, 0, 1, 1595.0838, 18568.8808)" opacity="1"><g transform="scale(1)"><path d="M1.8349,-1.1017 T2.5542,0.1335 1.9661,3.9721 -0.6439,6.4813 -1.9465,6.3873 A2.2486,2.2486 0 0 1 -0.6666,2.0761 T-0.6409,2.5673 -1.2251,2.0801 -1.8349,1.1017 A2.1403,2.1403 0 0 1 1.8349,-1.1017 ZM-2.9843,2.7347 T-2.6324,2.3347 -2.2805,1.9347 A2.256,2.256 0 0 1 1.0862,4.9386 T0.7287,5.3337 0.3713,5.7287 A2.2486,2.2486 0 0 1 -2.9843,2.7347 ZM0.4181,1.422 T0.9967,1.7258 2.2203,2.3673 2.8652,2.7052 A2.2114,2.2114 0 0 1 0.8748,6.6548 T0.2195,6.3374 -1.0241,5.7357 -1.6125,5.4513 A2.256,2.256 0 0 1 0.4181,1.422 Z" stroke-linecap="round" fill="#f2f2f2"/></g></g><g transform="matrix(1, 0, 0, 1, 1598.8262, 18590.3995)" opacity="1"><g transform="scale(1)"><path d="M1.1308,1.9804 T-0.4799,2.8753 -3.8049,3.9492 -5.5192,4.1281 A2.2599,2.2599 0 0 1 -5.7008,-0.3881 T-4.9033,-0.3101 -2.6183,-1.1063 -1.1308,-1.9804 A2.2805,2.2805 0 0 1 1.1308,1.9804 ZM-5.3933,-0.3795 T-5.1014,-0.3239 -2.7599,0.339 -0.7102,0.9462 A2.3385,2.3385 0 0 1 -3.6005,4.6232 T-3.8768,4.4245 -4.9899,4.1726 -5.8267,4.1195 A2.2599,2.2599 0 0 1 -5.3933,-0.3795 ZM-0.948,4.7874 T-1.7479,5.2525 -2.5479,5.7175 A2.3091,2.3091 0 0 1 -4.9321,1.7625 T-4.1474,1.2722 -3.3627,0.782 A2.3385,2.3385 0 0 1 -0.948,4.7874 Z" stroke-linecap="round" fill="#f2f2f2"/></g></g><g transform="matrix(1, 0, 0, 1, 1646.5416, 18565.1384)" opacity="1"><g transform="scale(1)"><path d="M2.7892,0.9308 T2.1274,2.9263 0.3744,7.0797 -2.2429,11.3544 -5.4562,15.4577 -8.6932,19.1437 -11.7232,22.4064 -15.3957,25.8439 -20.2538,29.1566 -22.9195,30.5952 A2.8924,2.8924 0 0 1 -25.7405,25.5448 T-23.6742,24.3403 -19.6457,21.4155 -16.2315,18.1821 -13.2791,15.0531 -10.1996,11.6456 -6.3722,6.4489 -3.4565,1.0564 -2.7892,-0.9308 A2.9404,2.9404 0 0 1 2.7892,0.9308 Z" stroke-linecap="round" fill="#f2f2f2"/></g></g><g transform="matrix(1, 0, 0, 1, 1625.9585, 18568.8808)" opacity="1"><g transform="scale(1)"><path d="M2.5209,-1.6796 T3.8476,0.3115 7.3634,5.1747 11.5158,10.4918 15.7828,14.1928 21.1837,16.7059 24.2807,17.9629 A2.7645,2.7645 0 0 1 22.4993,23.1971 T20.7223,22.6964 15.6484,20.9841 10.3839,18.2998 6.4607,14.2576 2.3189,8.6753 -1.1941,3.6711 -2.5209,1.6796 A3.0292,3.0292 0 0 1 2.5209,-1.6796 Z" stroke-linecap="round" fill="#f2f2f2"/></g></g><g transform="matrix(1, 0, 0, 1, 1657.7688, 18578.2368)" opacity="1"><g transform="scale(1)"><path d="M0.6685,-2.1736 T3.5616,-1.3452 9.6064,0.148 14.518,1.0929 16.2779,1.3732 A2.3952,2.3952 0 0 1 15.5421,6.1068 T13.7802,5.8397 8.5336,4.8136 2.1901,3.1142 -0.6685,2.1736 A2.2741,2.2741 0 0 1 0.6685,-2.1736 Z" stroke-linecap="round" fill="#f2f2f2"/></g></g><g transform="matrix(1, 0, 0, 1, 1689.5791, 18567.0096)" opacity="1"><g transform="scale(1)"><path d="M2.7251,-1.0237 T3.4029,0.7441 4.5183,4.563 5.1809,8.5879 5.5894,14.1627 5.7673,19.9856 5.7619,24.6505 5.7619,27.0936 A2.9521,2.9521 0 0 1 -0.1419,27.1664 T-0.2021,24.724 -0.3218,20.1187 -0.4949,14.5597 -1.0155,7.864 -2.0738,2.794 -2.7251,1.0237 A2.911,2.911 0 0 1 2.7251,-1.0237 Z" stroke-linecap="round" fill="#f2f2f2"/></g></g><g transform="matrix(1, 0, 0, 1, 1731.681, 18570.752)" opacity="1"><g transform="scale(1)"><path d="M0.1832,-2.1886 T2.842,-2.0013 7.9673,-1.7347 13.7584,-1.5961 19.4687,-1.5117 25.4303,-1.3682 29.0062,-1.2498 A2.1898,2.1898 0 0 1 28.9938,3.1298 T25.4047,3.228 19.4001,3.299 13.6002,3.1425 7.6692,2.8583 2.4698,2.4459 -0.1832,2.1886 A2.1963,2.1963 0 0 1 0.1832,-2.1886 Z" stroke-linecap="round" fill="#f2f2f2"/></g></g><g transform="matrix(1, 0, 0, 1, 1734.4878, 18582.9148)" opacity="1"><g transform="scale(1)"><path d="M0.5016,-2.0063 T2.2826,-1.611 6.7608,-0.6011 12.1143,0.4116 18.0442,1.0821 23.796,1.5088 26.2743,1.663 A2.0784,2.0784 0 0 1 26.1257,5.817 T23.6428,5.7939 17.4098,5.5819 11.1684,4.965 5.8448,3.7608 1.2555,2.4955 -0.5016,2.0063 A2.068,2.068 0 0 1 0.5016,-2.0063 Z" stroke-linecap="round" fill="#f2f2f2"/></g></g><g transform="matrix(1, 0, 0, 1, 1813.078, 18566.074)" opacity="1"><g transform="scale(1)"><path d="M1.1609,1.7994 T-0.1628,3.351 -3.5892,7.7459 -7.1467,12.4919 -10.7134,16.8617 -14.9586,21.398 -18.4868,24.5011 -19.8819,25.535 A2.699,2.699 0 0 1 -23.1581,21.245 T-21.7934,20.1713 -18.7416,17.3642 -15.0598,13.2976 -11.6506,9.1329 -7.9684,4.2975 -4.3708,-0.2529 -3.0409,-1.7994 A2.7662,2.7662 0 0 1 1.1609,1.7994 Z" stroke-linecap="round" fill="#f2f2f2"/></g></g><g transform="matrix(1, 0, 0, 1, 1791.5592, 18567.9452)" opacity="1"><g transform="scale(1)"><path d="M2.39,-1.5933 T3.2655,-0.2664 5.7131,2.8386 9.0117,6.8602 12.051,10.6765 15.4993,14.6111 19.283,19.0268 21.8254,22.3402 22.7192,23.5996 A2.708,2.708 0 0 1 18.4408,26.9204 T17.4425,25.742 14.8503,22.7996 10.9988,18.5332 7.3819,14.3367 4.3565,10.3653 1.0438,6.1673 -1.4965,2.9199 -2.39,1.5933 A2.8724,2.8724 0 0 1 2.39,-1.5933 Z" stroke-linecap="round" fill="#f2f2f2"/></g></g><g transform="matrix(1, 0, 0, 1, 1502.4596, 18639.9862)" opacity="1"><g transform="scale(1)"><path d="M2.1939,2.1939 T0.2035,4.1865 -3.5677,7.7575 -6.9631,10.6305 -11.4974,14.4004 -17.3922,18.5975 -22.119,21.1924 -23.8708,22.0656 A2.7865,2.7865 0 0 1 -26.6492,17.2344 T-23.6571,15.2449 -18.1572,11.4423 -12.5611,7.1127 -7.8256,3.1912 -4.1862,-0.2039 -2.1939,-2.1939 A3.1026,3.1026 0 0 1 2.1939,2.1939 Z" stroke-linecap="round" fill="#f2f2f2"/></g></g><g transform="matrix(1, 0, 0, 1, 1481.8765, 18637.1794)" opacity="1"><g transform="scale(1)"><path d="M1.799,-2.3987 T3.5822,-1.0907 8.0535,2.4431 12.8791,6.6343 16.6347,10.762 20.1485,15.8957 22.0443,18.8671 A2.9439,2.9439 0 0 1 17.2557,22.2929 T16.079,20.8073 12.6852,16.3087 8.4909,11.3422 4.1122,7.2392 -0.0442,3.7442 -1.799,2.3987 A2.9983,2.9983 0 0 1 1.799,-2.3987 Z" stroke-linecap="round" fill="#f2f2f2"/></g></g><g transform="matrix(1, 0, 0, 1, 1501.524, 18618.4675)" opacity="1"><g transform="scale(1)"><path d="M0,-3.0813 T1.7722,-3.0967 7.3835,-2.0247 13.9777,1.6423 17.1239,6.4011 17.5151,8.5803 A3.2644,3.2644 0 0 1 11.0085,9.1184 T9.8449,7.0312 6.1065,4.0281 1.7658,3.0967 0,3.0813 A3.0813,3.0813 0 0 1 0,-3.0813 ZM15.5592,11.8449 T14.1053,12.4286 11.9015,13.3287 11.1516,13.645 A3.1986,3.1986 0 0 1 6.6952,9.0555 T8.8811,7.9114 12.0157,6.3106 12.9645,5.8538 A3.2644,3.2644 0 0 1 15.5592,11.8449 ZM12.0268,10.5758 T12.1286,10.99 12.2304,11.4042 A3.1956,3.1956 0 0 1 6.0294,12.9516 T5.9247,12.5381 5.82,12.1247 A3.1986,3.1986 0 0 1 12.0268,10.5758 ZM10.7022,9.3959 T11.7649,10.0256 15.8312,10.9548 18.8348,11.2543 A2.7785,2.7785 0 0 1 18.5852,16.8057 T16.171,16.8215 11.5513,16.3748 8.4517,15.4361 7.5576,14.9599 A3.1956,3.1956 0 0 1 10.7022,9.3959 Z" stroke-linecap="round" fill="#f2f2f2"/></g></g><g transform="matrix(1, 0, 0, 1, 1519.3004, 18647.471)" opacity="1"><g transform="scale(1)"><path d="M1.2215,-2.5219 T3.2185,-2.3498 8.0662,-2.0302 14.3728,-1.7026 17.8286,-1.5225 A2.463,2.463 0 0 1 17.7314,3.4025 T14.2098,3.445 7.6591,3.2772 2.6442,2.7944 0.6585,2.5219 A2.5375,2.5375 0 0 1 1.2215,-2.5219 Z" stroke-linecap="round" fill="#f2f2f2"/></g></g><g transform="matrix(1, 0, 0, 1, 1570.7583, 18638.115)" opacity="1"><g transform="scale(1)"><path d="M2.0672,1.477 T0.9931,3.0499 -1.3634,6.2072 -3.9829,9.2962 -6.6938,12.2531 -9.9191,15.5634 -14.4608,19.6937 -18.4995,23.1279 -19.8479,24.2899 A2.4862,2.4862 0 0 1 -23.1921,20.6101 T-21.9069,19.3786 -18.1413,15.8733 -12.517,10.3445 -6.8597,4.3316 -3.2068,0.0483 -2.0672,-1.477 A2.5406,2.5406 0 0 1 2.0672,1.477 Z" stroke-linecap="round" fill="#f2f2f2"/></g></g><g transform="matrix(1, 0, 0, 1, 1553.9175, 18639.0506)" opacity="1"><g transform="scale(1)"><path d="M2.3848,-1.1924 T3.2737,0.5744 5.5904,4.7068 8.4738,9.4328 11.4474,13.3062 14.9553,15.519 18.5872,16.6292 20.2296,17.0395 A2.674,2.674 0 0 1 19.0704,22.2605 T17.4087,21.9372 12.5005,20.4061 7.2752,17.1213 3.895,12.6137 0.9346,7.4588 -1.5047,2.9636 -2.3848,1.1924 A2.6663,2.6663 0 0 1 2.3848,-1.1924 Z" stroke-linecap="round" fill="#f2f2f2"/></g></g><g transform="matrix(1, 0, 0, 1, 1436.9678, 18649.3422)" opacity="1"><g transform="scale(1)"><path d="M0.6621,-2.2111 T2.4329,-2.4199 6.1762,-2.8635 8.1488,-3.0984 A2.1753,2.1753 0 0 1 8.6912,1.2184 T6.7219,1.4789 2.9852,1.9753 1.2179,2.2111 A2.2285,2.2285 0 0 1 0.6621,-2.2111 Z" stroke-linecap="round" fill="#f2f2f2"/></g></g><g transform="matrix(1, 0, 0, 1, 1475.3273, 18618.4675)" opacity="1"><g transform="scale(1)"><path d="M2.2388,0.6721 T1.5641,2.8828 -0.2207,8.2585 -2.6627,14.3875 -4.9767,20.6202 -6.4126,26.465 -7.1076,31.2656 -7.4767,35.532 -7.0062,40.5911 -5.3816,45.7553 -1.9079,50.2954 0.5397,52.6885 A2.1585,2.1585 0 0 1 -2.4197,55.8315 T-3.8471,54.5454 -7.5737,50.669 -10.9694,44.841 -12.2198,39.4383 -12.2311,35.1181 -11.8174,30.5798 -11.0269,25.3866 -9.4037,19.0667 -6.9994,12.7318 -4.6234,6.8339 -2.8933,1.5445 -2.2388,-0.6721 A2.3375,2.3375 0 0 1 2.2388,0.6721 Z" stroke-linecap="round" fill="#f2f2f2"/></g></g><g transform="matrix(1, 0, 0, 1, 1576.3718, 18616.5963)" opacity="1"><g transform="scale(1)"><path d="M1.7507,-1.533 T3.2901,0.2467 5.963,3.7549 8.6118,8.8905 10.518,14.2543 11.3095,18.2421 11.9446,22.5643 12.3062,28.2917 12.4988,34.4024 12.1347,39.5963 10.7732,45.5654 7.1256,51.6787 2.7551,55.2503 1.1002,56.158 A2.1938,2.1938 0 0 1 -1.1002,52.362 T0.5101,51.3771 3.6956,48.9688 6.1206,44.4037 7.3645,39.212 7.7088,34.5227 7.567,28.5931 7.2942,23.2312 6.7255,19.1125 5.4984,13.9263 3.013,7.9184 -0.192,3.2913 -1.7507,1.533 A2.3271,2.3271 0 0 1 1.7507,-1.533 Z" stroke-linecap="round" fill="#f2f2f2"/></g></g><g transform="matrix(1, 0, 0, 1, 1402.3507, 18687.7017)" opacity="1"><g transform="scale(1)"><path d="M0.8158,-2.7173 T3.0196,-2.0212 7.9173,-0.8132 12.8523,-0.1742 18.3982,-0.0449 24.801,-0.2824 31.3241,-0.7523 37.7286,-1.055 43.2253,-1.1512 48.2494,-1.185 53.3628,-1.2011 58.9414,-1.2121 64.8845,-1.2283 71.0436,-1.2569 77.4802,-1.2871 83.5348,-1.6424 89.3864,-2.0889 95.192,-2.2235 100.7467,-2.2648 106.3433,-2.2801 111.9531,-2.2825 117.5667,-2.2709 123.5171,-2.2454 129.7835,-2.2141 136.4737,-2.1741 143.9848,-2.4664 151.8155,-2.8679 159.4867,-2.9697 166.8016,-2.9917 173.9023,-2.9958 181.3419,-2.7519 188.66,-2.0819 195.0343,-1.4168 200.7925,-1.073 206.5827,-1.6748 209.5416,-2.3815 A2.5709,2.5709 0 0 1 211.4784,2.3815 T208.7541,3.4764 203.3345,4.5923 197.5916,4.5233 191.2373,4.0312 184.54,3.3092 177.5,2.9958 170.4458,3.0085 163.2977,3.0322 155.8033,3.1091 148.2735,3.3547 142.2705,3.7851 136.4756,4.0541 129.7835,4.0942 123.5173,4.1255 117.5672,4.1515 111.9551,4.1645 106.3506,4.1672 100.7733,4.1703 95.2916,4.1952 89.72,4.2989 83.7947,4.7107 77.4852,5.0271 71.0437,4.997 64.8848,4.9686 58.9425,4.9531 53.3671,4.9448 48.2639,4.9383 43.2716,4.9392 37.8794,4.9677 31.8378,5.114 25.1794,5.4172 18.2665,5.5189 12.3543,5.2687 6.7351,4.5411 1.4077,3.3503 -0.8158,2.7173 A2.8371,2.8371 0 0 1 0.8158,-2.7173 Z" stroke-linecap="round" fill="#f2f2f2"/></g></g><g transform="matrix(1, 0, 0, 1, 1487.4901, 18722.3188)" opacity="1"><g transform="scale(1)"><path d="M1.3625,1.5146 T-0.8345,3.5245 -4.8339,7.2453 -8.9495,10.9966 -12.91,14.5129 -16.0995,17.3999 -19.3723,20.4053 -21.1032,21.9996 A1.9568,1.9568 0 0 1 -23.7968,19.1604 T-22.1137,17.5158 -18.9085,14.3752 -15.7326,11.3519 -11.8061,7.8449 -7.6782,4.148 -3.5928,0.4582 -1.3625,-1.5146 A2.0373,2.0373 0 0 1 1.3625,1.5146 Z" stroke-linecap="round" fill="#f2f2f2"/></g></g><g transform="matrix(1, 0, 0, 1, 1467.8425, 18721.3832)" opacity="1"><g transform="scale(1)"><path d="M1.9019,-1.6655 T3.439,0.1144 7.0296,4.4419 11.0891,8.8854 16.1669,12.6607 21.3746,15.4528 25.5717,17.9863 27.6329,19.6072 A2.39,2.39 0 0 1 24.7671,23.4328 T22.2333,21.7893 16.5469,18.7038 11.5715,15.9827 7.485,12.4846 3.2209,7.7237 -0.3408,3.4236 -1.9019,1.6655 A2.5281,2.5281 0 0 1 1.9019,-1.6655 Z" stroke-linecap="round" fill="#f2f2f2"/></g></g><g transform="matrix(1, 0, 0, 1, 1523.0428, 18721.3832)" opacity="1"><g transform="scale(1)"><path d="M2.0654,0 T2.0764,1.5508 1.7587,5.9066 0.9958,10.8634 0.3928,15.4659 0.2241,17.9166 A2.0985,2.0985 0 0 1 -3.9641,17.6434 T-3.802,15.0226 -3.214,10.3504 -2.4376,5.6969 -2.0764,1.5474 -2.0654,0 A2.0654,2.0654 0 0 1 2.0654,0 Z" stroke-linecap="round" fill="#f2f2f2"/></g></g><g transform="matrix(1, 0, 0, 1, 1529.592, 18727.9324)" opacity="1"><g transform="scale(1)"><path d="M1.1971,2.0484 T-0.5697,2.3077 -4.9539,2.7974 -9.5567,3.0051 -13.7092,2.9658 -15.8764,2.9492 A2.0094,2.0094 0 0 1 -15.9436,-1.0692 T-11.8751,-1.2461 -5.3378,-1.5504 -1.0931,-1.8631 0.6829,-2.0484 A2.0644,2.0644 0 0 1 1.1971,2.0484 Z" stroke-linecap="round" fill="#f2f2f2"/></g></g><g transform="matrix(1, 0, 0, 1, 1552.0463, 18714.834)" opacity="1"><g transform="scale(1)"><path d="M2.2578,0.2063 T2.0459,2.6411 1.4953,7.1153 0.6807,12.758 -0.0441,19.9959 -0.4174,25.8991 -0.5418,28.1677 A2.2703,2.2703 0 0 1 -5.0782,27.9723 T-5.0071,25.7014 -4.8729,21.3316 -4.3037,15.7991 -3.2604,8.512 -2.4905,2.2261 -2.2578,-0.2063 A2.2672,2.2672 0 0 1 2.2578,0.2063 Z" stroke-linecap="round" fill="#f2f2f2"/></g></g><g transform="matrix(1, 0, 0, 1, 1833.6611, 18578.2368)" opacity="1"><g transform="scale(1)"><path d="M0,-2.0487 T1.769,-2.0903 7.384,-2.1126 11.23,-2.0931 A2.0931,2.0931 0 0 1 11.23,2.0931 T7.384,2.1126 1.769,2.0903 0,2.0487 A2.0487,2.0487 0 0 1 0,-2.0487 Z" stroke-linecap="round" fill="#f2f2f2"/></g></g><g transform="matrix(1, 0, 0, 1, 1838.3391, 18573.5588)" opacity="1"><g transform="scale(1)"><path d="M1.9778,-0.1529 T2.2365,2.7212 2.3826,7.9027 2.1446,12.6388 2.0191,15.0674 A2.0214,2.0214 0 0 1 -2.0191,14.8726 T-1.9103,12.4432 -1.7037,7.961 -1.7919,3.0305 -1.9778,0.1529 A1.9837,1.9837 0 0 1 1.9778,-0.1529 Z" stroke-linecap="round" fill="#f2f2f2"/></g></g><g transform="matrix(1, 0, 0, 1, 1865.4714, 18563.2672)" opacity="1"><g transform="scale(1)"><path d="M2.3591,-0.1975 T2.6122,2.4572 2.7877,7.553 2.6542,13.4805 2.087,19.1944 1.0457,23.6174 0.5157,25.8129 A2.4489,2.4489 0 0 1 -4.2557,24.7071 T-3.3619,20.7805 -2.3548,13.31 -2.1088,7.639 -2.1676,2.8546 -2.3591,0.1975 A2.3674,2.3674 0 0 1 2.3591,-0.1975 Z" stroke-linecap="round" fill="#f2f2f2"/></g></g><g transform="matrix(1, 0, 0, 1, 1864.5358, 18562.3316)" opacity="1"><g transform="scale(1)"><path d="M-2.4359,-0.3496 T-2.2149,-1.8146 -2.2682,-3.5375 -2.5424,-3.7954 A2.5127,2.5127 0 0 1 2.1218,-5.6663 T2.5025,-4.2915 2.6596,-1.2836 2.4359,0.3496 A2.4609,2.4609 0 0 1 -2.4359,-0.3496 ZM0.4688,-2.3117 T-0.3466,-2.0685 -2.5885,-0.1469 -5.3883,3.1011 -7.584,5.5344 -8.4063,6.3981 A2.5495,2.5495 0 0 1 -12.1737,2.9619 T-11.3892,2.0638 -8.7718,-1.1309 -4.7682,-5.0633 -1.7436,-6.9246 -0.8894,-7.1501 A2.5127,2.5127 0 0 1 0.4688,-2.3117 Z" stroke-linecap="round" fill="#f2f2f2"/></g></g><g transform="matrix(1, 0, 0, 1, 1482.8121, 18773.7766)" opacity="1"><g transform="scale(1)"><path d="M2.0785,1.3004 T0.9852,3.0788 -1.4072,6.5738 -4.0587,9.8661 -6.7865,12.9411 -10.795,16.816 -15.4986,20.146 -19.5093,21.9315 -21.4493,22.7623 A2.4008,2.4008 0 0 1 -23.4507,18.3977 T-21.5552,17.4698 -17.1109,14.8244 -11.9221,10.5765 -6.8007,5.1326 -3.1989,0.4593 -2.0785,-1.3004 A2.4517,2.4517 0 0 1 2.0785,1.3004 Z" stroke-linecap="round" fill="#f2f2f2"/></g></g><g transform="matrix(1, 0, 0, 1, 1461.2934, 18774.7122)" opacity="1"><g transform="scale(1)"><path d="M1.1998,-2.3953 T2.5202,-1.7181 6.105,0.4651 10.0502,3.4374 13.8255,7.0036 18.0239,10.8947 21.9616,13.8608 25.0904,15.7513 26.3854,16.467 A2.5095,2.5095 0 0 1 24.1346,20.953 T21.3904,19.6894 16.5308,16.7556 11.865,12.6929 7.0568,8.1196 3.1327,4.819 0.1333,3.0472 -1.1998,2.3953 A2.679,2.679 0 0 1 1.1998,-2.3953 Z" stroke-linecap="round" fill="#f2f2f2"/></g></g><g transform="matrix(1, 0, 0, 1, 1503.3952, 18780.3258)" opacity="1"><g transform="scale(1)"><path d="M0.419,-1.8867 T2.4215,-1.4935 7.3213,-0.4749 12.6057,0.3261 18.2787,0.6562 21.5647,0.8108 A1.9997,1.9997 0 0 1 21.4753,4.8092 T18.1233,4.8153 12.1437,4.6106 6.5287,3.6347 1.5612,2.378 -0.419,1.8867 A1.9326,1.9326 0 0 1 0.419,-1.8867 Z" stroke-linecap="round" fill="#f2f2f2"/></g></g><g transform="matrix(1, 0, 0, 1, 1541.7547, 18771.9054)" opacity="1"><g transform="scale(1)"><path d="M1.8478,-1.0271 T2.9815,0.9529 4.8005,4.8134 6.3543,9.546 7.4487,14.9988 7.7377,19.0236 7.801,20.4476 A2.195,2.195 0 0 1 3.419,20.7124 T3.217,18.0892 2.6726,13.1931 1.3211,7.9764 -0.7679,3.0298 -1.8478,1.0271 A2.1141,2.1141 0 0 1 1.8478,-1.0271 Z" stroke-linecap="round" fill="#f2f2f2"/></g></g><g transform="matrix(1, 0, 0, 1, 1422.9339, 18783.1326)" opacity="1"><g transform="scale(1)"><path d="M0.4141,-1.8644 T2.4086,-1.4582 8.2881,-1.0139 12.173,-0.9758 A1.9159,1.9159 0 0 1 12.147,2.8558 T9.9922,2.8573 5.6997,2.8399 1.574,2.3427 -0.4141,1.8644 A1.9099,1.9099 0 0 1 0.4141,-1.8644 Z" stroke-linecap="round" fill="#f2f2f2"/></g></g><g transform="matrix(1, 0, 0, 1, 1451.9374, 18765.3563)" opacity="1"><g transform="scale(1)"><path d="M1.9594,1.1744 T0.641,3.3919 -1.5311,7.5439 -3.3173,11.4652 -5.2408,17.0018 -6.6507,24.4126 -6.4124,31.5519 -4.0225,36.6446 -1.0117,39.5156 0.2664,40.5719 A1.9469,1.9469 0 0 1 -2.1464,43.6281 T-3.4705,42.63 -7.3162,38.9387 -10.4857,34.3349 -11.3918,30.3507 -11.2338,23.9614 -10.3941,17.5693 -9.2128,13.4806 -7.5316,9.5246 -5.6189,5.4129 -3.2945,1.0354 -1.9594,-1.1744 A2.2844,2.2844 0 0 1 1.9594,1.1744 Z" stroke-linecap="round" fill="#f2f2f2"/></g></g><g transform="matrix(1, 0, 0, 1, 1555.7887, 18758.8071)" opacity="1"><g transform="scale(1)"><path d="M1.8352,-1.2843 T3.3967,0.9215 6.2889,5.4931 8.7633,10.2186 10.9491,14.9326 12.8044,19.972 14.0421,25.018 14.4495,30.3131 13.9241,35.5804 12.3664,39.7557 9.7917,43.2271 6.7206,46.4769 5.1751,48.0976 A1.9482,1.9482 0 0 1 2.3049,45.4624 T4.9806,42.453 8.7954,36.3268 9.9387,30.6949 9.5637,26.0795 8.4729,21.5645 6.7537,16.8625 4.6785,12.3275 2.4246,7.9036 -0.2986,3.5058 -1.8352,1.2843 A2.2399,2.2399 0 0 1 1.8352,-1.2843 Z" stroke-linecap="round" fill="#f2f2f2"/></g></g><g transform="matrix(1, 0, 0, 1, 1422.9339, 18813.0717)" opacity="1"><g transform="scale(1)"><path d="M0.3858,-3.0699 T2.1539,-2.8461 7.8067,-2.5612 15.3458,-2.4888 22.4732,-2.4867 29.7658,-2.5148 37.7208,-2.7706 46.3992,-3.5708 56.2447,-4.8551 67.3901,-6.6047 79.4779,-8.6143 91.8833,-10.5258 103.9413,-12.3624 115.2052,-13.9424 125.3925,-15.1612 134.3633,-15.9814 142.1256,-16.172 148.5699,-15.7971 154.019,-14.5971 159.202,-12.7608 161.7682,-11.834 A2.6154,2.6154 0 0 1 160.0718,-6.886 T157.4768,-7.7286 152.8663,-9.2498 148.25,-10.1383 142.3083,-10.3694 134.9684,-10.0319 126.1966,-9.0149 116.1527,-7.5826 104.9854,-5.8104 92.9506,-3.808 80.6326,-1.7917 68.4785,0.295 57.1394,2.1178 46.9916,3.4119 37.8818,4.1476 29.7193,4.2841 22.3866,4.1566 15.1982,3.9701 7.3302,3.6847 1.3841,3.2907 -0.3858,3.0699 A3.0941,3.0941 0 0 1 0.3858,-3.0699 Z" stroke-linecap="round" fill="#f2f2f2"/></g></g><g transform="matrix(1, 0, 0, 1, 1542.6903, 18832.7193)" opacity="1"><g transform="scale(1)"><path d="M-0.9378,-2.4748 T1.0958,-3.2272 5.7844,-3.5496 10.2874,-1.3243 12.6352,3.2936 12.1828,9.1457 9.2165,14.9007 4.5898,19.4635 -0.0032,22.3071 -1.9834,23.3134 A2.6779,2.6779 0 0 1 -4.0032,18.353 T-3.4052,18.13 -0.8287,16.7087 3.0904,13.7035 6.1581,9.898 7.5392,5.7801 5.8961,2.4696 2.4684,1.8766 0.9378,2.4748 A2.6465,2.6465 0 0 1 -0.9378,-2.4748 ZM-0.406,20.1425 T-0.3602,20.3043 -0.3143,20.4661 A2.6831,2.6831 0 0 1 -5.4989,21.8501 T-5.5398,21.687 -5.5807,21.5239 A2.6779,2.6779 0 0 1 -0.406,20.1425 ZM-2.5751,18.4956 T-1.8862,18.5669 1.1117,18.6278 6.566,18.539 13.1701,18.3825 19.7899,18.5129 22.951,18.7216 A3.2845,3.2845 0 0 1 21.8406,25.1959 T19.2314,24.9618 13.1536,24.6387 6.5053,24.4333 0.7297,24.1685 -2.5522,23.9205 -3.2382,23.8206 A2.6831,2.6831 0 0 1 -2.5751,18.4956 ZM25.6605,21.5987 T25.6809,21.845 25.7013,22.0914 A3.271,3.271 0 0 1 19.1987,22.8086 T19.1649,22.5637 19.1312,22.3188 A3.2845,3.2845 0 0 1 25.6605,21.5987 Z" stroke-linecap="round" fill="#f2f2f2"/></g></g><g transform="matrix(1, 0, 0, 1, 1899.153, 18567.0096)" opacity="1"><g transform="scale(1)"><path d="M2.5013,0.94 T2.5337,2.4888 2.2612,6.6711 1.8295,12.218 1.6229,16.9455 1.5429,18.7596 A2.4834,2.4834 0 0 1 -3.4229,18.6604 T-3.4303,16.8446 -3.3759,11.8591 -2.9401,6.3593 -2.5337,2.4846 -2.5013,0.94 A2.5013,2.5013 0 0 1 2.5013,0.94 Z" stroke-linecap="round" fill="#f2f2f2"/></g></g><g transform="matrix(1, 0, 0, 1, 1904.7665, 18575.43)" opacity="1"><g transform="scale(1)"><path d="M0.8654,2.5932 T-1.1235,3.2767 -5.7244,4.3475 -10.9862,5.1087 -13.6361,5.4826 A2.7015,2.7015 0 0 1 -14.4239,0.1374 T-11.7788,-0.2692 -6.9933,-0.9887 -2.8591,-1.9475 -0.8654,-2.5932 A2.7338,2.7338 0 0 1 0.8654,2.5932 Z" stroke-linecap="round" fill="#f2f2f2"/></g></g><g transform="matrix(1, 0, 0, 1, 1949.6752, 18538.9417)" opacity="1"><g transform="scale(1)"><path d="M-0.7168,-3.4506 T0.8316,-3.8975 5.6375,-4.2823 11.2529,-2.5156 14.5797,2.1771 14.5072,7.3438 11.1031,11.4207 6.8582,14.06 3.1527,15.6071 1.3294,16.4134 A2.6488,2.6488 0 0 1 -1.2488,11.7855 T0.3326,10.9535 3.8572,9.4696 7.7473,7.1436 9.3224,3.4797 6.3836,1.0926 2.2666,1.133 0.7168,1.5706 A2.6109,2.6109 0 0 1 -0.7168,-3.4506 ZM2.6885,14.1584 T2.6885,14.5868 2.6885,15.0152 A2.6679,2.6679 0 0 1 -2.646,14.8965 T-2.6269,14.4685 -2.6079,14.0405 A2.6488,2.6488 0 0 1 2.6885,14.1584 ZM1.7046,12.8861 T2.7322,13.6728 5.7043,14.942 9.8078,15.5272 14.9005,15.7513 17.8342,15.8727 A2.8378,2.8378 0 0 1 17.7258,21.5473 T14.7384,21.5556 9.1761,21.3723 3.6617,20.1219 -0.4699,18.0443 -1.6622,17.0256 A2.6679,2.6679 0 0 1 1.7046,12.8861 Z" stroke-linecap="round" fill="#f2f2f2"/></g></g><g transform="matrix(1, 0, 0, 1, 2010.4891, 18567.0096)" opacity="1"><g transform="scale(1)"><path d="M0.2774,2.3597 T-3.4841,2.813 -9.9248,3.5096 -15.3782,3.9054 -21.0395,3.9277 -26.8959,3.7498 -32.9806,3.6907 -39.0659,3.6838 -44.9265,3.6906 -50.5646,3.9186 -56.4178,4.2553 -62.2606,4.3974 -68.5542,4.7614 -75.2339,5.8136 -80.4814,7.1235 -82.606,7.714 A2.2063,2.2063 0 0 1 -83.934,3.506 T-81.8553,2.77 -77.7791,1.3261 -72.6715,0.1246 -67.3394,-0.661 -62.4219,-1.0405 -56.7248,-1.2423 -50.7597,-1.558 -44.8953,-1.7333 -39.0089,-1.6571 -32.874,-1.5324 -26.6846,-1.3417 -21.0082,-1.0455 -15.6995,-0.9584 -10.4163,-1.2744 -4.0413,-1.9285 -0.2774,-2.3597 A2.376,2.376 0 0 1 0.2774,2.3597 Z" stroke-linecap="round" fill="#f2f2f2"/></g></g><g transform="matrix(1, 0, 0, 1, 1947.804, 18587.5928)" opacity="1"><g transform="scale(1)"><path d="M1.2279,1.6371 T-0.5175,2.9952 -3.7983,5.6856 -8.0176,9.2289 -12.2128,12.5925 -13.7243,13.7449 A2.0159,2.0159 0 0 1 -16.2157,10.5751 T-14.7387,9.3787 -10.6957,5.9633 -6.4714,2.349 -3.0205,-0.3417 -1.2279,-1.6371 A2.0464,2.0464 0 0 1 1.2279,1.6371 Z" stroke-linecap="round" fill="#f2f2f2"/></g></g><g transform="matrix(1, 0, 0, 1, 1931.8989, 18587.5928)" opacity="1"><g transform="scale(1)"><path d="M1.9145,-1.2756 T3.2392,0.7172 6.2201,5.1575 10.4061,9.2282 12.9359,10.8512 A2.3789,2.3789 0 0 1 11.3841,15.3488 T10.327,14.9999 6.6045,12.5058 2.3411,7.808 -0.5857,3.2655 -1.9145,1.2756 A2.3005,2.3005 0 0 1 1.9145,-1.2756 Z" stroke-linecap="round" fill="#f2f2f2"/></g></g><g transform="matrix(1, 0, 0, 1, 1954.3532, 18594.1419)" opacity="1"><g transform="scale(1)"><path d="M0,-2.1037 T1.5491,-2.1334 5.1252,-2.1818 9.6561,-2.1574 12.16,-2.1143 A2.1143,2.1143 0 0 1 12.16,2.1143 T9.6561,2.1574 5.1252,2.1818 1.5491,2.1334 0,2.1037 A2.1037,2.1037 0 0 1 0,-2.1037 Z" stroke-linecap="round" fill="#f2f2f2"/></g></g><g transform="matrix(1, 0, 0, 1, 1980.5499, 18582.9148)" opacity="1"><g transform="scale(1)"><path d="M2.5439,-1.2719 T3.3596,0.5334 4.9209,5.4845 5.9151,11.5823 6.353,17.5212 6.5421,20.508 A2.803,2.803 0 0 1 0.9379,20.652 T0.975,17.7186 0.8655,12.145 0.0407,7.121 -1.5906,3.0046 -2.5439,1.2719 A2.8441,2.8441 0 0 1 2.5439,-1.2719 Z" stroke-linecap="round" fill="#f2f2f2"/></g></g><g transform="matrix(1, 0, 0, 1, 1384.5744, 18930.957)" opacity="1"><g transform="scale(1)"><path d="M0.5387,-2.0886 T7.3998,-0.3295 18.7672,2.5585 26.7367,4.4954 33.1284,5.9335 38.7072,7.1039 43.9693,7.8938 49.3823,8.4958 54.8905,9.0114 60.568,9.2542 66.7491,9.5862 72.889,9.9723 78.9064,10.169 85.3929,10.2565 92.2236,10.5084 98.9216,10.8477 105.7662,11.2376 112.9114,11.6534 120.216,12.0837 127.8262,12.5157 135.512,12.733 143.1063,12.8445 151.0917,12.9063 161.2724,12.9619 172.4515,13.2346 182.3297,13.6105 191.5275,14.0381 200.5757,14.4895 209.4794,14.7217 218.1558,14.8397 226.9296,14.8896 235.7559,14.8952 244.3903,14.8866 253.1454,14.8769 261.9642,14.868 270.7448,14.6401 279.7975,14.2892 288.7689,13.8828 297.7027,13.4524 306.6148,13.0093 315.4455,12.3424 324.3042,11.5515 333.1768,10.7 342.2852,9.8166 351.4447,8.7058 360.6974,7.4647 370.135,6.5836 379.5338,5.9069 389.0724,5.1234 398.5862,4.4965 408.0246,3.9357 417.6488,3.4006 427.2067,3.0945 436.6024,2.6924 445.9788,2.2404 455.5686,1.7601 465.2686,1.2646 474.8017,0.7815 484.2519,0.3139 493.7294,0.0695 503.0787,-0.2662 512.431,-0.6513 522.0129,-1.0639 531.639,-1.7096 540.9757,-2.2712 550.1697,-2.5734 559.446,-2.7368 568.6892,-3.0492 578.2071,-3.4381 587.9395,-3.6463 597.2709,-3.7562 606.394,-3.8146 615.6276,-3.8518 624.9184,-3.8848 634.462,-3.9116 644.1387,-3.9294 653.7335,-3.7115 663.2853,-3.1438 672.7443,-2.406 682.1554,-1.587 691.5432,-0.7218 700.7039,0.168 709.8083,1.3013 719.0951,2.7888 728.132,4.2318 736.8889,5.6701 745.2704,7.117 752.8292,8.5936 759.6949,10.0843 766.0928,11.3541 771.6074,12.2924 776.829,12.8668 782.8213,13.3623 786.0229,13.6148 A2.2985,2.2985 0 0 1 785.7771,18.2052 T782.5668,18.1144 776.3922,17.9583 770.8176,17.6397 765.0815,16.8835 758.523,15.7818 751.7173,14.4596 744.2574,13.1209 735.8978,11.7387 727.1588,10.3218 718.111,8.8691 709.0398,7.3837 700.1021,6.2328 690.9765,5.3105 681.6235,4.4153 672.2752,3.5722 662.9303,2.8347 653.5942,2.2812 644.1413,2.059 634.4672,2.0499 624.9284,2.0396 615.6465,2.0378 606.4304,2.0598 597.3376,2.1138 588.0617,2.2171 578.4443,2.4135 568.8819,2.7924 559.5473,3.0933 550.3642,3.2499 541.333,3.5548 532.0446,4.1453 522.2783,4.8421 512.6898,5.2984 503.3024,5.7275 493.8853,6.0929 484.5456,6.3353 475.0915,6.7916 465.5459,7.2267 455.8363,7.6388 446.2322,8.0371 436.8241,8.4086 427.3686,8.7344 417.9483,8.9749 408.3537,9.4768 398.9604,10.0401 389.5421,10.7026 379.9494,11.5311 370.6734,12.2349 361.4676,13.1295 352.1459,14.4141 342.8527,15.5741 333.7393,16.4863 324.8281,17.3638 315.8909,18.1754 306.9114,18.8708 297.9861,19.3253 289.031,19.7544 280.0157,20.1442 270.8872,20.4695 261.9611,20.681 253.1392,20.6623 244.3786,20.634 235.7344,20.59 226.8885,20.5283 218.0781,20.4507 209.3368,20.3269 200.3043,20.1001 191.2763,19.6805 182.132,19.299 172.3197,18.9834 161.2502,18.7786 151.0412,18.7629 143.0083,18.6895 135.3306,18.5443 127.4735,18.2744 119.8613,17.7821 112.5607,17.302 105.428,16.8342 98.6159,16.391 91.9923,15.9932 85.2935,15.6811 78.7088,15.5332 72.5244,15.283 66.4251,14.8212 60.2958,14.3881 54.3716,14.0226 48.7792,13.3838 43.2079,12.6303 37.7059,11.6826 32.0954,10.3995 25.6558,8.8605 17.6694,6.8267 6.3172,3.8675 -0.5387,2.0886 A2.1569,2.1569 0 0 1 0.5387,-2.0886 Z" stroke-linecap="round" fill="#f76707"/></g></g><g transform="matrix(1, 0, 0, 1, 1476.2629, 19016.0964)" opacity="1"><g transform="scale(1)"><path d="M2.1695,1.8581 T0.8535,3.418 -1.9303,6.3709 -5.5596,9.8949 -9.654,13.9852 -13.9005,18.3665 -17.8155,22.5282 -19.417,24.2677 A2.7797,2.7797 0 0 1 -23.623,20.6323 T-22.1336,18.7958 -19.2394,15.2176 -15.8847,11.5776 -11.8403,7.6804 -7.2952,3.4499 -3.507,-0.3198 -2.1695,-1.8581 A2.8564,2.8564 0 0 1 2.1695,1.8581 Z" stroke-linecap="round" fill="#f76707"/></g></g><g transform="matrix(1, 0, 0, 1, 1454.7442, 19015.1608)" opacity="1"><g transform="scale(1)"><path d="M2.2154,-2.2154 T3.3468,-1.1312 6.2564,1.998 9.6469,5.8877 13.2218,10.5 16.5795,15.952 18.7685,20.2859 19.5623,21.9354 A3.0865,3.0865 0 0 1 14.1177,24.8446 T13.1877,23.268 10.8482,19.3427 7.767,14.5503 4.5815,10.262 1.5085,6.4459 -1.1332,3.3448 -2.2154,2.2154 A3.133,3.133 0 0 1 2.2154,-2.2154 Z" stroke-linecap="round" fill="#f76707"/></g></g><g transform="matrix(1, 0, 0, 1, 1480.9409, 18980.5437)" opacity="1"><g transform="scale(1)"><path d="M-1.5098,-3.0143 T-0.1435,-3.6795 4.2107,-4.4565 9.5678,-3.2785 13.1606,0.421 13.6368,5.2008 11.0479,8.7704 8.105,10.4894 7.0034,11.0086 A3.3408,3.3408 0 0 1 4.1014,4.9901 T6.101,4.4402 6.0925,2.7884 2.7971,2.3504 1.5098,3.0143 A3.3712,3.3712 0 0 1 -1.5098,-3.0143 ZM8.5252,6.475 T8.9305,7.3333 10.7219,9.9016 12.7311,13.5833 13.1722,17.5512 10.6639,21.8419 5.7695,24.904 0.8394,25.4952 -3.6677,24.0247 -6.6843,22.0063 -7.5558,21.2823 A3.2253,3.2253 0 0 1 -3.6642,16.1377 T-2.1958,17.1682 1.4396,18.4382 5.1192,17.2712 5.3685,14.1137 3.3423,10.9432 2.5796,9.5237 A3.3408,3.3408 0 0 1 8.5252,6.475 Z" stroke-linecap="round" fill="#f76707"/></g></g><g transform="matrix(1, 0, 0, 1, 1495.9105, 19023.5812)" opacity="1"><g transform="scale(1)"><path d="M0.3131,-2.4916 T2.0845,-2.3093 6.5794,-2.1569 12.5655,-2.2344 15.828,-2.282 A2.2835,2.2835 0 0 1 15.992,2.282 T12.7345,2.4687 6.3486,2.8359 1.4536,2.7539 -0.3131,2.4916 A2.5112,2.5112 0 0 1 0.3131,-2.4916 Z" stroke-linecap="round" fill="#f76707"/></g></g><g transform="matrix(1, 0, 0, 1, 1542.6903, 19003.9336)" opacity="1"><g transform="scale(1)"><path d="M1.948,1.5568 T1.049,2.652 -1.0732,5.3278 -3.9081,8.8013 -6.384,12.5606 -8.3,16.1737 -9.5062,20.4463 -9.4938,25.1658 -7.7622,28.6412 -4.0673,31.2017 0.4695,33.0452 4.5289,32.0444 6.8703,27.8572 5.8244,24.0267 1.7745,22.6101 -2.7429,23.6752 -5.7658,25.6797 -6.5865,26.4114 A2.7738,2.7738 0 0 1 -10.2535,22.2486 T-9.4242,21.5268 -6.7964,19.496 -2.6857,17.6054 1.96,17.2602 6.9223,18.714 10.886,21.56 12.3998,25.3571 11.6241,30.2071 9.1229,35.1695 4.7776,38.0009 -0.2501,37.9765 -5.0035,36.1322 -9.5038,33.5826 -12.7877,30.42 -14.3191,25.6564 -14.3436,20.4096 -12.829,15.0866 -10.3352,9.8367 -7.742,5.8689 -5.0073,2.437 -2.818,-0.4384 -1.948,-1.5568 A2.4937,2.4937 0 0 1 1.948,1.5568 Z" stroke-linecap="round" fill="#f76707"/></g></g><g transform="matrix(1, 0, 0, 1, 1585.7278, 19022.6456)" opacity="1"><g transform="scale(1)"><path d="M1.5449,1.5449 T0.2489,2.903 -3.7769,6.7612 -8.9894,11.489 -13.5987,15.3362 -18.524,18.3862 -21.3226,19.8166 A2.3278,2.3278 0 0 1 -23.5774,15.7434 T-21.2779,14.3517 -16.8069,11.3633 -12.2119,7.7213 -7.0242,3.361 -2.9025,-0.2495 -1.5449,-1.5449 A2.1849,2.1849 0 0 1 1.5449,1.5449 Z" stroke-linecap="round" fill="#f76707"/></g></g><g transform="matrix(1, 0, 0, 1, 1565.1447, 19022.6456)" opacity="1"><g transform="scale(1)"><path d="M2.0696,-0.8879 T2.7528,0.6508 4.7617,4.0886 8.577,7.9328 12.8971,11.2411 16.5706,14.3186 18.4136,16.0328 A2.3514,2.3514 0 0 1 15.2664,19.5272 T14.2958,18.6819 11.7684,16.5406 7.9022,13.3914 3.942,10.1618 0.7567,6.3961 -1.4237,2.4473 -2.0696,0.8879 A2.252,2.252 0 0 1 2.0696,-0.8879 Z" stroke-linecap="round" fill="#f76707"/></g></g><g transform="matrix(1, 0, 0, 1, 1585.7278, 18992.7064)" opacity="1"><g transform="scale(1)"><path d="M-1.1268,-2.6266 T0.4214,-3.2974 4.9313,-4.6225 10.8326,-4.4424 14.999,-1.8437 15.8654,2.076 14.2589,5.9662 11.2172,9.496 9.4217,11.2911 A2.9305,2.9305 0 0 1 5.4061,7.0219 T6.4477,6.0538 8.0693,2.7826 6.438,0.8946 2.6767,1.9683 1.1268,2.6266 A2.8581,2.8581 0 0 1 -1.1268,-2.6266 ZM9.5628,7.164 T10.1147,7.7489 13.7444,9.2813 16.8223,10.2287 A3.0127,3.0127 0 0 1 14.9977,15.9713 T13.6264,15.5311 9.3795,13.7983 5.8844,11.8274 5.2649,11.149 A2.9305,2.9305 0 0 1 9.5628,7.164 Z" stroke-linecap="round" fill="#f76707"/></g></g><g transform="matrix(1, 0, 0, 1, 1622.2161, 19015.1608)" opacity="1"><g transform="scale(1)"><path d="M2.269,0 T2.3082,1.9913 2.3892,6.9287 2.0934,12.2881 1.5825,17.6907 1.4091,20.6798 A2.3512,2.3512 0 0 1 -3.2891,20.4802 T-3.2014,17.3267 -2.7724,12.0166 -2.3892,6.9214 -2.3082,1.9913 -2.269,0 A2.269,2.269 0 0 1 2.269,0 Z" stroke-linecap="round" fill="#f76707"/></g></g><g transform="matrix(1, 0, 0, 1, 1627.8297, 19026.388)" opacity="1"><g transform="scale(1)"><path d="M-0.6453,2.0503 T-2.1875,2.3044 -6.7581,2.2428 -11.2531,1.4626 -12.7196,0.9983 A2.0175,2.0175 0 0 1 -11.6004,-2.8783 T-10.112,-2.4894 -6.4804,-1.885 -2.7859,-1.8598 -1.2347,-2.0503 A2.0713,2.0713 0 0 1 -0.6453,2.0503 Z" stroke-linecap="round" fill="#f76707"/></g></g><g transform="matrix(1, 0, 0, 1, 1638.1213, 19008.6116)" opacity="1"><g transform="scale(1)"><path d="M2.341,-0.2613 T2.5912,1.727 2.9899,5.7084 3.0339,11.165 2.5753,17.0084 1.8355,22.0219 1.45,24.6555 A2.412,2.412 0 0 1 -3.33,24.0045 T-2.9973,21.3638 -2.1842,15.014 -1.828,7.7775 -2.1466,2.2557 -2.341,0.2613 A2.3555,2.3555 0 0 1 2.341,-0.2613 Z" stroke-linecap="round" fill="#f76707"/></g></g><g transform="matrix(1, 0, 0, 1, 1655.8976, 19011.4184)" opacity="1"><g transform="scale(1)"><path d="M2.289,0.9058 T1.7319,2.2444 0.0086,5.9577 -1.9033,10.3312 -1.3562,14.2685 2.4866,16.5182 7.6566,16.4075 12.0603,14.5496 14.4364,10.7109 13.065,6.1346 11.101,3.961 A2.3439,2.3439 0 0 1 13.219,-0.221 T15.9271,1.268 19.4094,4.7995 20.0107,8.894 19.239,12.8423 17.2262,16.8948 13.534,19.9597 7.9018,21.2941 1.019,21.0551 -4.6515,18.4608 -7.0661,13.8099 -6.4822,8.7306 -4.2847,3.63 -2.6164,-0.0092 -2.289,-0.9058 A2.4617,2.4617 0 0 1 2.289,0.9058 Z" stroke-linecap="round" fill="#f76707"/></g></g><g transform="matrix(1, 0, 0, 1, 1691.4503, 19017.032)" opacity="1"><g transform="scale(1)"><path d="M2.3721,0.2981 T2.1674,2.1046 1.0614,5.7144 -1.1922,9.4697 -4.0765,12.8271 -8.5944,16.5145 -11.5802,18.7965 A2.4774,2.4774 0 0 1 -14.6198,14.8835 T-13.0978,13.6817 -9.1096,10.4811 -4.7477,5.8236 -2.6121,1.4335 -2.3721,-0.2981 A2.3907,2.3907 0 0 1 2.3721,0.2981 Z" stroke-linecap="round" fill="#f76707"/></g></g><g transform="matrix(1, 0, 0, 1, 1681.1588, 19021.71)" opacity="1"><g transform="scale(1)"><path d="M1.9469,-1.2181 T3.083,0.5325 5.7322,4.0134 9.7951,7.2253 14.0362,9.3199 15.7275,9.9328 A2.3525,2.3525 0 0 1 14.2125,14.3872 T10.6497,13.1993 5.4719,10.6426 2.0326,7.0334 -0.8693,3.0055 -1.9469,1.2181 A2.2965,2.2965 0 0 1 1.9469,-1.2181 Z" stroke-linecap="round" fill="#f76707"/></g></g><g transform="matrix(1, 0, 0, 1, 1709.2267, 19021.71)" opacity="1"><g transform="scale(1)"><path d="M0.3715,-1.8595 T2.5908,-1.4627 8.4919,-1.0175 12.1737,-0.9691 A1.9091,1.9091 0 0 1 12.1463,2.8491 T10.1086,2.8536 6.0577,2.8466 1.8365,2.3472 -0.3715,1.8595 A1.8962,1.8962 0 0 1 0.3715,-1.8595 Z" stroke-linecap="round" fill="#f76707"/></g></g><g transform="matrix(1, 0, 0, 1, 1736.359, 19007.676)" opacity="1"><g transform="scale(1)"><path d="M0.2477,-2.4662 T2.4615,-2.246 7.7335,-1.6222 12.7302,0.1865 15.2243,3.9773 14.536,8.2417 15.2179,11.893 18.3452,15.6939 19.5895,19.7216 18.33,23.4488 15.2352,26.2953 10.9413,27.9741 5.5054,28.6289 -0.7514,28.2088 -4.0737,27.6936 A2.4563,2.4563 0 0 1 -3.4063,22.8264 T-1.7532,23.0155 2.6838,23.3077 8.1784,23.1315 12.9179,21.5981 13.701,18.2797 10.8472,14.8446 8.8178,10.8914 9.0276,6.006 6.919,3.3092 1.9658,2.6907 -0.2477,2.4662 A2.4786,2.4786 0 0 1 0.2477,-2.4662 Z" stroke-linecap="round" fill="#f76707"/></g></g><g transform="matrix(1, 0, 0, 1, 1774.7185, 19008.6116)" opacity="1"><g transform="scale(1)"><path d="M0,-2.7125 T2.34,-2.6824 4.68,-2.6524 A2.6524,2.6524 0 0 1 4.68,2.6524 T2.34,2.6824 0,2.7125 A2.7125,2.7125 0 0 1 0,-2.7125 Z" stroke-linecap="round" fill="#f76707"/></g></g><g transform="matrix(1, 0, 0, 1, 1775.6541, 19023.5812)" opacity="1"><g transform="scale(1)"><path d="M 0 0 m -3.663919189857866, 0 a 3.663919189857866,3.663919189857866 0 1,1 7.327838379715732,0 a 3.663919189857866,3.663919189857866 0 1,1 -7.327838379715732,0" stroke-linecap="round" fill="#f76707"/></g></g><g transform="matrix(1, 0, 0, 1, 1823.3696, 19005.8048)" opacity="1"><g transform="scale(1)"><path d="M1.9855,1.9855 T0.0131,3.996 -3.937,7.8007 -7.5564,11.1545 -10.7261,14.1946 -14.6136,17.9724 -19.7952,22.4113 -22.6172,24.5529 A2.7121,2.7121 0 0 1 -26.0428,20.3471 T-23.5896,18.192 -18.763,13.7016 -14.8138,9.8678 -11.5122,6.7978 -7.8962,3.5926 -3.9958,-0.0133 -1.9855,-1.9855 A2.8079,2.8079 0 0 1 1.9855,1.9855 Z" stroke-linecap="round" fill="#f76707"/></g></g><g transform="matrix(1, 0, 0, 1, 1801.8508, 19009.5472)" opacity="1"><g transform="scale(1)"><path d="M1.6321,-1.6321 T2.7639,-0.5487 5.5469,2.697 9.0255,6.9689 12.7004,10.2698 16.9142,12.0333 19.2802,12.6055 A2.4323,2.4323 0 0 1 18.1398,17.3345 T14.8834,16.5508 9.423,14.2758 5.1216,10.1928 1.7781,5.7468 -0.5502,2.7624 -1.6321,1.6321 A2.3082,2.3082 0 0 1 1.6321,-1.6321 Z" stroke-linecap="round" fill="#f76707"/></g></g><g transform="matrix(1, 0, 0, 1, 1834.5967, 19017.032)" opacity="1"><g transform="scale(1)"><path d="M0.2385,-2.3747 T2.4558,-2.189 7.934,-1.797 13.1237,-1.4824 15.0525,-1.374 A2.3154,2.3154 0 0 1 14.8875,3.254 T12.956,3.2249 7.6029,3.0441 1.9715,2.6336 -0.2385,2.3747 A2.3867,2.3867 0 0 1 0.2385,-2.3747 Z" stroke-linecap="round" fill="#f76707"/></g></g><g transform="matrix(1, 0, 0, 1, 1864.5358, 18998.32)" opacity="1"><g transform="scale(1)"><path d="M-0.332,-2.9741 T1.6658,-3.1773 6.6138,-3.2184 11.6243,-2.659 15.7219,-1.4304 19.3093,1.6337 20.5385,6.2652 18.5108,10.3836 14.3141,13.1429 11.8239,14.1824 A2.9813,2.9813 0 0 1 9.5611,8.6658 T10.8572,8.1219 13.0598,5.8043 11.624,3.4199 6.7917,2.6503 2.3168,2.7327 0.332,2.9741 A2.9926,2.9926 0 0 1 -0.332,-2.9741 ZM13.5914,12.1204 T13.4941,12.5162 13.3967,12.912 A2.9769,2.9769 0 0 1 7.6075,11.5216 T7.7006,11.1247 7.7936,10.7279 A2.9813,2.9813 0 0 1 13.5914,12.1204 ZM12.6638,10.1701 T13.6917,11.2544 16.8746,14.0912 20.3626,17.4664 22.2646,21.6328 21.6125,26.4617 18.124,30.1722 12.4664,31.666 6.6564,30.4916 2.3164,27.5208 -0.7316,24.6766 -1.8597,23.56 A2.7605,2.7605 0 0 1 1.8597,19.48 T3.0757,20.5002 5.9455,22.828 9.5888,25.2188 14.0041,25.3201 15.6795,22.2959 12.6889,18.3731 9.3945,15.3781 8.3404,14.2636 A2.9769,2.9769 0 0 1 12.6638,10.1701 Z" stroke-linecap="round" fill="#f76707"/></g></g><g transform="matrix(1, 0, 0, 1, 1912.2513, 19003.9336)" opacity="1"><g transform="scale(1)"><path d="M0.7079,-2.541 T3.1394,-2.786 7.7885,-3.1054 12.4227,-3.2682 14.8394,-3.3566 A2.4201,2.4201 0 0 1 15.1006,1.4766 T12.6885,1.6492 8.1599,1.9818 3.6077,2.3414 1.1721,2.541 A2.5516,2.5516 0 0 1 0.7079,-2.541 Z" stroke-linecap="round" fill="#f76707"/></g></g><g transform="matrix(1, 0, 0, 1, 1911.3157, 19015.1608)" opacity="1"><g transform="scale(1)"><path d="M0,-2.705 T1.9913,-2.7519 7.2514,-2.8012 12.745,-2.7877 14.97,-2.7716 A2.7716,2.7716 0 0 1 14.97,2.7716 T12.745,2.7877 7.2514,2.8012 1.9913,2.7519 0,2.705 A2.705,2.705 0 0 1 0,-2.705 Z" stroke-linecap="round" fill="#f76707"/></g></g><g transform="matrix(1, 0, 0, 1, 1965.5804, 19000.1912)" opacity="1"><g transform="scale(1)"><path d="M2.1547,1.0773 T1.1281,3.3328 -1.1824,7.599 -4.9762,12.4373 -9.7638,16.9245 -13.3136,19.2999 -14.5856,20.0158 A2.5986,2.5986 0 0 1 -17.2344,15.5442 T-15.9955,14.7727 -13.0268,12.6362 -9.1199,8.9156 -5.7358,4.9131 -3.3417,1.0944 -2.1547,-1.0773 A2.409,2.409 0 0 1 2.1547,1.0773 Z" stroke-linecap="round" fill="#f76707"/></g></g><g transform="matrix(1, 0, 0, 1, 1947.804, 19001.1268)" opacity="1"><g transform="scale(1)"><path d="M2.0387,-1.7462 T3.3769,-0.2069 6.8958,3.6106 11.0441,7.8332 15.4314,10.8904 20.0442,12.3921 23.876,13.0107 25.5146,13.2404 A2.6817,2.6817 0 0 1 25.0054,18.5796 T21.6679,18.3955 15.4968,17.2677 10.7735,15.1142 6.9324,11.8343 2.7866,7.314 -0.7234,3.305 -2.0387,1.7462 A2.6843,2.6843 0 0 1 2.0387,-1.7462 Z" stroke-linecap="round" fill="#f76707"/></g></g><g transform="matrix(1, 0, 0, 1, 1969.3228, 18975.8657)" opacity="1"><g transform="scale(1)"><path d="M0,-3.6465 T1.9913,-3.6055 6.962,-3.5357 12.9314,-2.2651 16.6056,2.132 15.446,6.9447 11.3717,9.5251 10.8417,9.2898 16.0501,8.4545 19.558,8.7772 A3.3841,3.3841 0 0 1 19.742,15.5428 T18.1772,15.6484 14.5968,15.7597 10.1957,14.9438 5.9566,12.276 4.964,7.645 7.8093,4.1836 6.888,3.5357 1.9913,3.6055 0,3.6465 A3.6465,3.6465 0 0 1 0,-3.6465 Z" stroke-linecap="round" fill="#f76707"/></g></g><g transform="matrix(1, 0, 0, 1, 1464.1001, 19076.9102)" opacity="1"><g transform="scale(1)"><path d="M1.8225,1.5959 T0.3365,3.4213 -3.843,7.6936 -8.6134,12.0663 -13.9891,16.0201 -17.2879,18.048 A2.5678,2.5678 0 0 1 -20.1321,13.772 T-17.3643,11.7648 -12.3011,7.7572 -7.5263,3.7931 -3.4347,0.1167 -1.8225,-1.5959 A2.4224,2.4224 0 0 1 1.8225,1.5959 Z" stroke-linecap="round" fill="#f76707"/></g></g><g transform="matrix(1, 0, 0, 1, 1442.5814, 19072.2322)" opacity="1"><g transform="scale(1)"><path d="M2.616,-1.8691 T3.7141,-0.3178 7.2431,3.2127 14.1128,7.7805 20.5812,11.6695 24.2148,14.1888 27.508,18.467 29.5867,22.9032 29.9761,24.2799 A3.0101,3.0101 0 0 1 24.2839,26.2401 T23.4876,24.1729 20.8146,20.3583 16.9418,17.291 12.5179,14.3665 7.9992,11.6115 4.1677,9.1705 1.0211,6.4214 -1.5005,3.416 -2.616,1.8691 A3.2151,3.2151 0 0 1 2.616,-1.8691 Z" stroke-linecap="round" fill="#f76707"/></g></g><g transform="matrix(1, 0, 0, 1, 1469.7137, 19051.6491)" opacity="1"><g transform="scale(1)"><path d="M0.2934,-2.9218 T2.5088,-2.7082 7.8478,-1.6534 13.1811,1.9932 15.3909,4.7985 A3.1053,3.1053 0 0 1 9.8374,7.5787 T9.2136,6.1141 6.3601,4.0167 1.9184,3.1529 -0.2934,2.9218 A2.9365,2.9365 0 0 1 0.2934,-2.9218 ZM15.1188,8.0241 T14.4816,8.856 11.4345,10.804 7.2885,12.1216 5.5525,12.3232 A3.1119,3.1119 0 0 1 4.8517,6.1389 T7.0185,5.9141 9.6474,5.0212 10.1095,4.353 A3.1053,3.1053 0 0 1 15.1188,8.0241 ZM7.9932,10.6072 T7.8661,10.8558 7.739,11.1044 A3.1038,3.1038 0 0 1 2.1713,8.3595 T2.2911,8.1072 2.4109,7.855 A3.1119,3.1119 0 0 1 7.9932,10.6072 ZM7.469,7.9116 T8.2111,8.9609 10.8493,11.6467 14.1834,15.2568 15.4343,19.9648 12.9885,23.9921 8.7492,25.4458 4.3519,24.933 -0.6394,22.7417 -3.2137,21.2241 A2.8506,2.8506 0 0 1 -0.5263,16.1959 T2.4932,17.5088 7.8297,19.5386 8.8729,18.6422 5.8699,15.4396 3.291,12.7013 2.4412,11.5523 A3.1038,3.1038 0 0 1 7.469,7.9116 Z" stroke-linecap="round" fill="#f76707"/></g></g><g transform="matrix(1, 0, 0, 1, 1496.8461, 19082.5238)" opacity="1"><g transform="scale(1)"><path d="M0.4255,-2.4819 T2.1992,-2.3007 7.3534,-1.8764 12.9022,-1.4822 15.0704,-1.3311 A3.2027,3.2027 0 0 1 14.8696,5.0711 T12.6962,5.0861 6.813,4.9902 1.3389,4.6206 -0.4255,4.3619 A3.4483,3.4483 0 0 1 0.4255,-2.4819 Z" stroke-linecap="round" fill="#f76707"/></g></g><g transform="matrix(1, 0, 0, 1, 1531.4632, 19071.2966)" opacity="1"><g transform="scale(1)"><path d="M-0.4335,-3.0206 T1.1152,-3.2472 5.7381,-3.6916 12.0038,-3.6113 17.1486,-0.5282 18.2813,4.6798 15.574,8.4956 12.2443,10.6344 10.8013,11.3804 A3.1724,3.1724 0 0 1 7.9094,5.7329 T8.8989,5.2332 11.5278,3.5663 11.1228,2.3517 6.3054,2.4446 1.983,2.8026 0.4335,3.0206 A3.0516,3.0516 0 0 1 -0.4335,-3.0206 ZM12.5278,8.5481 T12.5264,8.9581 12.525,9.368 A3.1674,3.1674 0 0 1 6.1902,9.385 T6.1866,8.9751 6.183,8.5651 A3.1724,3.1724 0 0 1 12.5278,8.5481 ZM11.0192,6.6799 T12.0251,7.3103 15.1709,9.0772 19.6416,12.6841 21.9168,17.1399 20.576,20.9409 17.0457,24.0419 12.4147,25.8801 7.6882,26.2415 2.687,24.1112 0.0265,22.172 A3.124,3.124 0 0 1 3.7135,17.128 T5.6081,18.5133 9.6329,19.6217 13.077,17.5986 11.8298,14.4368 8.4823,12.5472 7.6959,12.0731 A3.1674,3.1674 0 0 1 11.0192,6.6799 Z" stroke-linecap="round" fill="#f76707"/></g></g><g transform="matrix(1, 0, 0, 1, 1578.243, 19075.039)" opacity="1"><g transform="scale(1)"><path d="M2.6172,0.3756 T2.4169,1.9418 0.7498,6.4485 -3.6458,12.1564 -9.6451,17.2299 -14.5192,20.6679 -16.3229,21.7998 A2.597,2.597 0 0 1 -19.2371,17.5002 T-17.5175,16.2441 -13.0715,12.7623 -7.8516,8.4003 -4.232,4.4761 -2.8616,1.1563 -2.6172,-0.3756 A2.644,2.644 0 0 1 2.6172,0.3756 Z" stroke-linecap="round" fill="#f76707"/></g></g><g transform="matrix(1, 0, 0, 1, 1562.3379, 19080.6526)" opacity="1"><g transform="scale(1)"><path d="M1.8639,-1.8639 T3.2001,-0.5477 6.5808,2.6504 11.1826,6.436 14.7524,9.1953 15.765,10.0508 A2.7311,2.7311 0 0 1 12.295,14.2692 T10.4498,12.7864 6.5738,9.738 2.6569,6.3555 -0.5466,3.2012 -1.8639,1.8639 A2.6359,2.6359 0 0 1 1.8639,-1.8639 Z" stroke-linecap="round" fill="#f76707"/></g></g><g transform="matrix(1, 0, 0, 1, 1575.4362, 19059.1339)" opacity="1"><g transform="scale(1)"><path d="M0.94,-3.3872 T2.7112,-3.3827 8.3756,-2.5823 12.2687,-1.7864 A3.3853,3.3853 0 0 1 10.4475,4.7347 T7.4605,4.0564 2.7068,3.3827 0.94,3.3872 A3.3872,3.3872 0 0 1 0.94,-3.3872 ZM14.2606,-0.2682 T14.4489,0.0485 14.6372,0.3653 A3.3822,3.3822 0 0 1 8.8376,3.8467 T8.6466,3.5316 8.4556,3.2165 A3.3853,3.3853 0 0 1 14.2606,-0.2682 ZM14.7635,3.6166 T14.2182,4.6319 11.3224,7.4238 11.3046,10.3035 16.2561,11.6693 18.875,11.9321 A3.0424,3.0424 0 0 1 18.545,18.0079 T15.7256,17.9753 10.2267,17.4331 5.3401,15.5888 2.2801,11.5423 2.7274,6.8378 6.1036,3.3299 8.4455,1.2049 8.7113,0.5954 A3.3822,3.3822 0 0 1 14.7635,3.6166 Z" stroke-linecap="round" fill="#f76707"/></g></g><g transform="matrix(1, 0, 0, 1, 1394.8659, 19078.7814)" opacity="1"><g transform="scale(1)"><path d="M1.0607,-2.388 T3.0764,-1.5584 7.6598,0.2018 12.3972,1.3695 17.1666,1.7624 19.7662,1.9183 A2.7641,2.7641 0 0 1 19.5338,7.4417 T16.7973,7.3731 11.3394,6.9575 5.7456,5.4387 0.9062,3.3274 -1.0607,2.388 A2.6129,2.6129 0 0 1 1.0607,-2.388 Z" stroke-linecap="round" fill="#f76707"/></g></g><g transform="matrix(1, 0, 0, 1, 1439.7746, 19056.3271)" opacity="1"><g transform="scale(1)"><path d="M1.8445,2.213 T-0.8056,4.4328 -5.1942,8.4072 -8.2552,11.725 -11.3692,16.2095 -14.2768,22.4914 -15.4443,28.1426 -14.2467,32.9353 -11.9386,37.0659 -10.8793,38.6944 A2.6999,2.6999 0 0 1 -15.3207,41.7656 T-16.4704,40.1997 -18.8374,36.8743 -20.8112,32.7472 -21.4591,27.2102 -20.7349,22.1303 -19.3701,18.3054 -17.5978,14.4687 -15.32,10.9707 -12.5619,7.7014 -9.1132,4.1049 -4.5062,-0.0055 -1.8445,-2.213 A2.8808,2.8808 0 0 1 1.8445,2.213 Z" stroke-linecap="round" fill="#f76707"/></g></g><g transform="matrix(1, 0, 0, 1, 1602.5686, 19056.3271)" opacity="1"><g transform="scale(1)"><path d="M2.6373,-1.5807 T3.9764,0.626 6.536,5.1969 8.7217,10.5473 10.1902,16.2762 10.9587,21.8342 10.9006,27.3118 9.9178,32.3133 8.0953,36.7748 4.266,41.2889 -0.9493,45.2597 -5.8107,47.866 -10.5048,49.9509 -12.8865,51.0086 A2.6212,2.6212 0 0 1 -15.1735,46.2914 T-12.8678,45.0767 -8.6673,42.8495 -4.6951,40.3807 0.1052,35.8295 3.7123,28.957 4.4039,22.6492 3.8465,17.754 2.7989,12.8832 1.054,8.1997 -1.3228,3.8013 -2.6373,1.5807 A3.0747,3.0747 0 0 1 2.6373,-1.5807 Z" stroke-linecap="round" fill="#f76707"/></g></g><g transform="matrix(1, 0, 0, 1, 1389.2523, 19113.3985)" opacity="1"><g transform="scale(1)"><path d="M0.3725,-2.2325 T4.3584,-1.5881 11.4872,-0.6171 17.1618,-0.1235 22.2239,0.3621 26.9942,1.0751 31.3044,1.8946 37.9279,3.0899 44.6292,4.1268 48.9063,4.7721 55.2136,5.4152 61.8373,5.9518 66.5611,6.3539 71.3649,6.5453 76.239,6.8619 80.8017,7.228 85.2875,7.3891 89.6454,7.462 95.6426,7.4871 103.5625,7.4608 110.0117,7.4149 115.0647,7.3777 120.6036,7.3348 126.6208,7.282 132.4478,7.2279 137.51,7.1834 143.6063,7.1329 150.7904,7.0775 156.2128,7.2729 162.5394,7.6451 169.9921,8.0557 176.2115,8.4444 182.4724,8.6557 189.0932,8.7828 195.904,8.8544 202.5929,8.9012 208.7717,8.9449 214.2393,8.9874 219.334,9.0256 224.0102,9.069 228.2435,9.1163 233.9413,9.204 239.689,9.1438 244.2637,8.8525 246.7485,8.6869 A2.5555,2.5555 0 0 1 247.2515,13.7731 T244.7825,14.0974 239.9574,14.736 233.9419,15.1148 228.2418,15.201 224.0072,15.2459 219.3287,15.2847 214.2299,15.3142 208.7558,15.3402 202.5643,15.3525 195.8507,15.3399 188.9872,15.2986 182.2622,15.2116 175.8001,15.0165 169.635,14.6341 164.2245,14.3143 157.9796,13.884 150.7874,13.5024 143.6062,13.4469 137.5097,13.3962 132.4474,13.3514 126.6202,13.2965 120.6023,13.2424 115.062,13.197 110.0058,13.1551 105.451,13.1119 99.4897,13.039 93.6369,12.9571 89.5118,12.8717 85.0443,12.7236 80.341,12.4654 75.8589,12.0356 71.1275,11.6768 66.1054,11.4214 61.429,10.9757 56.7299,10.5722 52.2205,10.2283 48.1437,9.6277 43.7956,8.9266 38.9917,8.0508 34.4636,7.2522 30.3978,6.58 26.2731,5.7702 21.7517,5.0698 16.7393,4.5518 10.8548,3.9758 3.6069,2.9173 -0.3725,2.2325 A2.2634,2.2634 0 0 1 0.3725,-2.2325 Z" stroke-linecap="round" fill="#f76707"/></g></g><g transform="matrix(1, 0, 0, 1, 1532.3988, 19148.9512)" opacity="1"><g transform="scale(1)"><path d="M-0.3925,-3.1235 T1.3812,-3.3598 6.2657,-3.2089 11.9756,-1.5903 16.0552,2.5456 16.4475,8.581 13.7948,13.6034 10.8403,16.8403 9.4503,18.1857 A3.1765,3.1765 0 0 1 3.8869,15.1184 T6.1878,12.4951 9.8278,8.2373 9.5228,5.0334 5.8999,3.0854 2.1569,2.9152 0.3925,3.1235 A3.1481,3.1481 0 0 1 -0.3925,-3.1235 ZM9.0469,14.5464 T9.8602,15.498 12.8255,17.9441 16.6035,20.615 19.221,23.6548 20.2126,25.5181 A3.1078,3.1078 0 0 1 14.4873,27.9378 T13.8205,26.7713 11.4467,24.3728 7.9113,21.9286 5.1866,19.7371 4.2903,18.7576 A3.1765,3.1765 0 0 1 9.0469,14.5464 ZM19.6314,28.8383 T18.5114,30.0446 15.5627,32.3761 11.1581,34.5674 5.4915,36.1126 -0.2465,36.4373 -5.1626,34.2392 -7.8427,31.2462 -8.254,30.297 A2.945,2.945 0 0 1 -2.966,27.703 T-1.6809,29.0146 1.9151,30.1476 6.4672,29.3674 11.0791,27.571 14.2591,25.4969 15.0685,24.6176 A3.1078,3.1078 0 0 1 19.6314,28.8383 Z" stroke-linecap="round" fill="#f76707"/></g></g><g transform="matrix(1, 0, 0, 1, 1494.9749, 19170.47)" opacity="1"><g transform="scale(1)"><path d="M0.3232,-2.2521 T1.879,-2.078 6.6415,-2.1684 12.1996,-2.8396 14.551,-3.2462 A2.344,2.344 0 0 1 15.389,1.3662 T13.0449,1.8128 6.7311,2.5262 1.2191,2.5226 -0.3232,2.2521 A2.2752,2.2752 0 0 1 0.3232,-2.2521 Z" stroke-linecap="round" fill="#f76707"/></g></g><g transform="matrix(1, 0, 0, 1, 1587.599, 19163.9208)" opacity="1"><g transform="scale(1)"><path d="M1.8198,1.8198 T0.0892,3.6272 -3.2144,7.0557 -6.569,10.2607 -9.8842,13.2859 -14.3313,17.2455 -19.0095,21.1739 -20.7742,22.5838 A2.6122,2.6122 0 0 1 -24.1258,18.5762 T-22.426,17.0887 -17.9863,13.0976 -13.6318,9.1185 -10.3466,6.2149 -7.0553,3.2141 -3.6272,-0.0892 -1.8198,-1.8198 A2.5735,2.5735 0 0 1 1.8198,1.8198 Z" stroke-linecap="round" fill="#f76707"/></g></g><g transform="matrix(1, 0, 0, 1, 1567.9515, 19167.6632)" opacity="1"><g transform="scale(1)"><path d="M2.0021,-1.7532 T3.5424,0.0235 7.3265,3.976 11.2383,7.7766 14.833,10.6735 18.0228,12.8 19.2859,13.6543 A2.7122,2.7122 0 0 1 16.2741,18.1657 T15.0008,17.3266 11.5798,15.0432 7.7574,11.9065 3.5981,7.745 -0.4443,3.5145 -2.0021,1.7532 A2.6612,2.6612 0 0 1 2.0021,-1.7532 Z" stroke-linecap="round" fill="#f76707"/></g></g><g transform="matrix(1, 0, 0, 1, 1588.5346, 19143.3376)" opacity="1"><g transform="scale(1)"><path d="M-0.3512,-2.7944 T1.4184,-3.013 6.1871,-3.4367 11.1502,-3.3105 14.8678,-0.3418 15.5367,4.2864 12.6011,7.5901 8.779,9.5998 6.3139,10.6085 5.8201,10.9204 A2.8772,2.8772 0 0 1 2.886,5.9703 T3.777,5.4613 7.0402,3.4946 6.6502,2.1896 2.1196,2.5684 0.3512,2.7944 A2.8164,2.8164 0 0 1 -0.3512,-2.7944 ZM6.7866,6.9106 T7.0482,7.4617 9.4534,8.4228 13.6726,9.0172 17.2797,9.3068 18.811,9.4119 A2.75,2.75 0 0 1 18.609,14.9081 T15.5998,14.8924 10.3618,14.5267 5.8853,13.3042 2.7785,11.206 1.9194,9.9802 A2.8772,2.8772 0 0 1 6.7866,6.9106 Z" stroke-linecap="round" fill="#f76707"/></g></g><g transform="matrix(1, 0, 0, 1, 1614.7313, 19162.9852)" opacity="1"><g transform="scale(1)"><path d="M2.4776,0.495 T2.0881,2.7189 1.4179,8.0392 0.9609,14.9693 0.7845,18.803 A2.6561,2.6561 0 0 1 -4.5245,18.617 T-4.4272,14.6377 -3.8987,7.285 -2.9726,1.7084 -2.4776,-0.495 A2.5266,2.5266 0 0 1 2.4776,0.495 Z" stroke-linecap="round" fill="#f76707"/></g></g><g transform="matrix(1, 0, 0, 1, 1620.3449, 19172.3412)" opacity="1"><g transform="scale(1)"><path d="M0.5151,2.3192 T-1.4572,2.8489 -7.2181,3.8268 -14.0281,2.7734 -17.0494,1.2719 A2.4881,2.4881 0 0 1 -14.7706,-3.1519 T-12.8682,-2.1171 -7.7508,-1.3459 -2.5254,-1.9644 -0.5151,-2.3192 A2.3757,2.3757 0 0 1 0.5151,2.3192 Z" stroke-linecap="round" fill="#f76707"/></g></g><g transform="matrix(1, 0, 0, 1, 1636.2501, 19155.5004)" opacity="1"><g transform="scale(1)"><path d="M2.7329,0.3922 T2.5286,1.9437 1.9567,6.4961 1.1745,12.3673 0.5936,17.3263 0.2179,21.9698 0.0087,24.5245 A2.8254,2.8254 0 0 1 -5.6287,24.1355 T-5.485,21.5762 -5.1909,16.5156 -4.5571,11.2039 -3.6437,5.5473 -2.9732,1.1545 -2.7329,-0.3922 A2.7609,2.7609 0 0 1 2.7329,0.3922 Z" stroke-linecap="round" fill="#f76707"/></g></g><g transform="matrix(1, 0, 0, 1, 1654.0264, 19157.3716)" opacity="1"><g transform="scale(1)"><path d="M1.9799,1.9799 T0.4405,3.525 -2.6024,7.6167 -5.1788,12.2143 -6.0839,16.3426 -4.3601,19.7563 -0.4609,21.2684 3.9922,20.4894 7.4759,17.7844 9.2748,13.9563 9.5026,9.65 6.9503,5.3883 4.595,3.355 A2.6196,2.6196 0 0 1 6.625,-1.475 T7.7727,-1.0398 11.3955,1.3547 14.8057,6.3139 15.35,12.6375 13.3262,19.0717 8.7365,24.1886 3.8408,26.6761 -0.1609,27.0791 -4.1296,26.3437 -8.5895,22.9931 -11.6636,18.2634 -11.7034,13.9828 -10.0583,9.5012 -6.9956,4.195 -3.5387,-0.4269 -1.9799,-1.9799 A2.8,2.8 0 0 1 1.9799,1.9799 Z" stroke-linecap="round" fill="#f76707"/></g></g><g transform="matrix(1, 0, 0, 1, 1687.7079, 19162.9852)" opacity="1"><g transform="scale(1)"><path d="M2.0423,1.0212 T1.2218,2.8233 -1.5029,7.4327 -5.2063,11.7153 -10.3785,15.103 -13.7517,17.0154 A2.3807,2.3807 0 0 1 -16.1883,12.9246 T-14.5369,11.8867 -10.1668,8.932 -5.6938,4.7329 -2.9908,0.7147 -2.0423,-1.0212 A2.2834,2.2834 0 0 1 2.0423,1.0212 Z" stroke-linecap="round" fill="#f76707"/></g></g><g transform="matrix(1, 0, 0, 1, 1673.674, 19162.9852)" opacity="1"><g transform="scale(1)"><path d="M1.9862,-1.4191 T3.1119,0.1164 6.2398,4.2701 9.8885,8.6712 13.4484,11.6238 15.3617,12.7934 A2.5517,2.5517 0 0 1 12.6983,17.1466 T10.1887,15.61 5.9487,12.098 2.204,7.3334 -0.8983,2.9817 -1.9862,1.4191 A2.4411,2.4411 0 0 1 1.9862,-1.4191 Z" stroke-linecap="round" fill="#f76707"/></g></g><g transform="matrix(1, 0, 0, 1, 1704.5487, 19168.5988)" opacity="1"><g transform="scale(1)"><path d="M0,-2.8908 T2.2117,-2.9246 7.4328,-3.2552 12.127,-3.6521 13.8118,-3.7522 A2.8207,2.8207 0 0 1 14.2482,1.8722 T12.5681,2.0332 7.6595,2.5763 2.2155,2.9246 0,2.8908 A2.8908,2.8908 0 0 1 0,-2.8908 Z" stroke-linecap="round" fill="#f76707"/></g></g><g transform="matrix(1, 0, 0, 1, 1736.359, 19149.8868)" opacity="1"><g transform="scale(1)"><path d="M-0.334,-2.9918 T1.6551,-3.2343 6.4273,-3.354 11.2078,-1.4891 13.8775,2.8508 13.45,8.2011 13.6399,13.4338 16.3357,17.3808 18.6349,20.9798 18.3272,26.1841 14.9631,30.539 9.5488,32.1459 2.497,31.4797 -3.4289,29.7817 -5.5538,29.0742 A3.0041,3.0041 0 0 1 -3.8062,23.3258 T0.1019,24.3991 6.9227,25.7426 11.4685,24.5586 11.267,21.0637 7.7647,17.6794 4.812,14.1407 4.6653,9.8474 7.1571,6.1183 6.4159,3.5373 2.3276,2.7897 0.334,2.9918 A3.0104,3.0104 0 0 1 -0.334,-2.9918 Z" stroke-linecap="round" fill="#f76707"/></g></g><g transform="matrix(1, 0, 0, 1, 1995.5195, 19010.4828)" opacity="1"><g transform="scale(1)"><path d="M0,-3.4199 T1.769,-3.469 6.0828,-3.5631 10.7436,-3.9671 14.4771,-4.7834 16.0945,-5.2405 A2.5422,2.5422 0 0 1 17.5855,-0.3795 T15.9898,0.1488 11.5109,1.2026 6.0828,1.6831 1.769,1.589 0,1.5399 A2.4799,2.4799 0 0 1 0,-3.4199 Z" stroke-linecap="round" fill="#f76707"/></g></g><g transform="matrix(1, 0, 0, 1, 2029.201, 18993.642)" opacity="1"><g transform="scale(1)"><path d="M1.8352,-2.6856 T3.1764,-2.2467 6.8924,-0.3315 10.823,2.714 13.4546,7.2361 14.5301,10.1888 A2.9699,2.9699 0 0 1 8.5908,10.1141 T8.8301,9.8458 7.5466,7.7807 4.3466,4.7803 1.3571,3.1312 0.0448,2.6856 A2.8309,2.8309 0 0 1 1.8352,-2.6856 ZM12.705,12.892 T11.1908,13.5108 11.4296,16.0312 14.6091,20.2133 15.1192,24.917 11.9658,28.0713 7.2129,28.9181 2.112,28.408 -2.6429,26.597 -5.9619,24.5211 -7.1108,23.6304 A2.5896,2.5896 0 0 1 -4.1092,19.4096 T-2.2611,20.6996 2.0733,22.5999 6.6477,22.4751 6.4876,20.2266 2.9916,16.6879 2.6504,12.5931 5.5822,9.5674 9.0116,8.011 10.4159,7.411 A2.9699,2.9699 0 0 1 12.705,12.892 Z" stroke-linecap="round" fill="#f76707"/></g></g><g transform="matrix(1, 0, 0, 1, 2072.2385, 19000.1912)" opacity="1"><g transform="scale(1)"><path d="M2.2625,0.5656 T1.8635,2.3468 -0.0259,6.9989 -3.2963,12.5849 -6.5472,17.0244 -9.6411,19.9529 -12.8476,22.2998 -14.4312,23.4423 A2.4253,2.4253 0 0 1 -17.3888,19.5977 T-15.8783,18.3601 -11.9374,14.7048 -7.5949,9.602 -4.4582,4.9325 -2.748,1.1912 -2.2625,-0.5656 A2.3321,2.3321 0 0 1 2.2625,0.5656 Z" stroke-linecap="round" fill="#f76707"/></g></g><g transform="matrix(1, 0, 0, 1, 2057.2689, 19005.8048)" opacity="1"><g transform="scale(1)"><path d="M1.1875,-2.768 T2.7462,-2.0808 6.1514,0.0502 9.4483,3.2288 12.2916,6.9584 14.92,11.2018 17.4326,15.8007 18.7099,18.1509 A3.1759,3.1759 0 0 1 13.1101,21.1491 T11.8623,18.7831 9.5834,14.4328 7.3323,10.6114 4.0018,6.4131 0.352,3.4099 -1.1875,2.768 A3.012,3.012 0 0 1 1.1875,-2.768 Z" stroke-linecap="round" fill="#f76707"/></g></g><g transform="matrix(1, 0, 0, 1, 1492.1681, 19228.477)" opacity="1"><g transform="scale(1)"><path d="M1.0205,-2.3788 T2.5624,-1.7296 6.3536,-0.7588 11.4763,0.0071 14.3495,0.4513 A2.3802,2.3802 0 0 1 13.7105,5.1687 T10.8226,4.8325 5.0134,4.1175 0.5358,3.0588 -1.0205,2.3788 A2.5885,2.5885 0 0 1 1.0205,-2.3788 Z" stroke-linecap="round" fill="#f76707"/></g></g><g transform="matrix(1, 0, 0, 1, 1531.4632, 19218.1854)" opacity="1"><g transform="scale(1)"><path d="M0.864,-3.2412 T4.1816,-2.3533 9.5932,-0.7452 14.3845,1.8668 17.2549,6.5988 15.9729,10.8914 12.5374,13.4951 9.7537,14.9936 8.9502,15.3409 A3.4036,3.4036 0 0 1 6.1875,9.1194 T8.888,8.2154 8.6809,6.1574 2.4546,4.1223 -0.864,3.2412 A3.3544,3.3544 0 0 1 0.864,-3.2412 ZM10.8943,11.5049 T10.9019,11.9652 13.2052,14.0624 16.6961,18.7195 16.3218,24.1674 12.3614,27.3963 7.3712,28.3509 2.0749,28.2695 -3.128,26.6652 -7.3305,22.8554 -9.027,20.4153 A3.0072,3.0072 0 0 1 -4.073,17.0047 T-3.0494,18.5157 0.1864,20.9555 4.6603,21.8187 9.2948,21.766 10.2118,20.2018 6.8726,17.0743 4.6163,14.2397 4.2434,12.9553 A3.4036,3.4036 0 0 1 10.8943,11.5049 Z" stroke-linecap="round" fill="#f76707"/></g></g><g transform="matrix(1, 0, 0, 1, 1583.8566, 19224.7346)" opacity="1"><g transform="scale(1)"><path d="M2.0454,1.6346 T0.3279,3.8905 -3.0494,7.9045 -6.3841,10.9095 -11.3338,14.0391 -16.5849,16.7188 -18.5612,17.5158 A2.7688,2.7688 0 0 1 -20.7388,12.4242 T-17.3951,10.9538 -11.4029,7.5554 -7.2204,4.1677 -3.866,0.5368 -2.0454,-1.6346 A2.6183,2.6183 0 0 1 2.0454,1.6346 Z" stroke-linecap="round" fill="#f76707"/></g></g><g transform="matrix(1, 0, 0, 1, 1566.0803, 19226.6058)" opacity="1"><g transform="scale(1)"><path d="M1.9689,-1.3126 T2.8867,-0.0081 6.1696,3.0615 11.4638,6.4546 16.1732,10.5567 18.1907,14.1422 18.4278,15.2535 A2.602,2.602 0 0 1 13.3922,16.5665 T13.1811,15.1141 10.9803,12.537 6.3608,9.7243 1.7323,6.0235 -1.1177,2.6617 -1.9689,1.3126 A2.3664,2.3664 0 0 1 1.9689,-1.3126 Z" stroke-linecap="round" fill="#f76707"/></g></g><g transform="matrix(1, 0, 0, 1, 1586.6634, 19204.1515)" opacity="1"><g transform="scale(1)"><path d="M-0.987,-2.9576 T1.0168,-3.6167 6.2443,-4.3165 11.76,-3.1724 15.4752,0.7729 15.7527,6.0519 12.276,9.5853 7.3679,10.9737 2.4633,11.4581 0.1356,11.5692 A3.1522,3.1522 0 0 1 -0.1356,5.2708 T3.0688,5.0639 7.7853,3.5374 7.1211,1.9177 2.9659,2.2876 0.987,2.9576 A3.1179,3.1179 0 0 1 -0.987,-2.9576 ZM-0.0638,5.2685 T1.0789,5.2769 5.0328,6.2917 10.6132,7.8136 16.298,8.6834 20.915,9.2158 22.6164,9.394 A2.771,2.771 0 0 1 22.2836,14.926 T20.5731,14.899 15.4183,14.6924 8.8606,13.9412 3.4317,12.4283 0.59,11.5293 0.0638,11.5715 A3.1522,3.1522 0 0 1 -0.0638,5.2685 Z" stroke-linecap="round" fill="#f76707"/></g></g><g transform="matrix(1, 0, 0, 1, 1619.4093, 19220.9922)" opacity="1"><g transform="scale(1)"><path d="M2.1406,0 T2.2297,1.9913 2.3248,7.4844 2.2797,12.9781 2.2287,14.97 A2.2287,2.2287 0 0 1 -2.2287,14.97 T-2.2797,12.9781 -2.3248,7.4844 -2.2297,1.9913 -2.1406,0 A2.1406,2.1406 0 0 1 2.1406,0 Z" stroke-linecap="round" fill="#f76707"/></g></g><g transform="matrix(1, 0, 0, 1, 1625.9585, 19227.5414)" opacity="1"><g transform="scale(1)"><path d="M0,3.2776 T-1.769,3.314 -7.0132,3.1052 -12.4065,2.5736 -14.3246,2.2872 A2.3061,2.3061 0 0 1 -13.7354,-2.2872 T-11.8073,-2.0782 -6.7086,-1.6698 -1.769,-1.434 0,-1.3976 A2.3376,2.3376 0 0 1 0,3.2776 Z" stroke-linecap="round" fill="#f76707"/></g></g><g transform="matrix(1, 0, 0, 1, 1654.0264, 19211.6362)" opacity="1"><g transform="scale(1)"><path d="M-2.29,1.5239 T-2.6688,0.917 -5.4617,1.8233 -9.3215,5.2629 -9.4736,8.8193 -5.6901,11.0695 -2.206,9.8006 -1.2119,7.9114 A2.5353,2.5353 0 0 1 3.848,7.5814 T3.909,9.0976 3.0788,12.5465 -0.0401,15.6786 -5.3669,16.4715 -10.9586,14.8487 -14.7478,11.7313 -15.8659,7.2552 -14.3842,2.7326 -10.5491,-1.1566 -6.0239,-3.8932 -1.3759,-3.8285 1.7842,-2.2462 2.29,-1.5239 A2.7507,2.7507 0 0 1 -2.29,1.5239 ZM3.8045,8.2416 T3.6832,8.801 3.1456,11.9621 2.363,16.8512 1.9238,21.4597 2.0028,25.5607 2.1546,27.3406 A2.7009,2.7009 0 0 1 -3.0986,28.5991 T-3.3305,26.0991 -3.416,21.0708 -2.8465,16.3838 -1.9476,11.5498 -1.3201,8.0628 -1.1684,7.2512 A2.5353,2.5353 0 0 1 3.8045,8.2416 ZM-0.3566,25.2714 T0.8125,25.366 1.9816,25.4606 A2.6118,2.6118 0 0 1 1.7584,30.6794 T0.5855,30.6738 -0.5873,30.6683 A2.7009,2.7009 0 0 1 -0.3566,25.2714 Z" stroke-linecap="round" fill="#f76707"/></g></g><g transform="matrix(1, 0, 0, 1, 1683.9655, 19220.0566)" opacity="1"><g transform="scale(1)"><path d="M1.9555,1.9555 T0.409,3.508 -3.8627,7.2341 -8.7933,11.1402 -12.9606,14.7169 -16.3683,17.7785 -17.8142,18.9959 A2.8317,2.8317 0 0 1 -21.4858,14.6841 T-20.0535,13.4507 -16.4546,10.2096 -12.1212,6.5494 -7.5066,3.0163 -3.5072,-0.4099 -1.9555,-1.9555 A2.7655,2.7655 0 0 1 1.9555,1.9555 Z" stroke-linecap="round" fill="#f76707"/></g></g><g transform="matrix(1, 0, 0, 1, 1666.1892, 19223.799)" opacity="1"><g transform="scale(1)"><path d="M1.9619,-1.4018 T3.0897,0.1324 5.8946,3.956 9.057,8.215 12.7458,11.3969 14.9493,12.6093 A2.5333,2.5333 0 0 1 13.1107,17.3307 T11.9859,16.9193 8.6672,15.0027 5.002,11.4525 1.8702,6.9686 -0.8761,2.9658 -1.9619,1.4018 A2.4113,2.4113 0 0 1 1.9619,-1.4018 Z" stroke-linecap="round" fill="#f76707"/></g></g><g transform="matrix(1, 0, 0, 1, 1476.2629, 19206.0227)" opacity="1"><g transform="scale(1)"><path d="M1.567,1.9608 T0.4445,2.8257 -2.4456,5.7434 -5.509,9.7425 -7.4828,15.1316 -7.8194,21.1358 -6.3226,25.7743 -3.301,29.7221 -0.3404,32.7232 0.7537,33.8533 A2.3973,2.3973 0 0 1 -2.6337,37.2467 T-3.7657,36.1546 -7.1421,32.8328 -10.8882,27.6411 -12.706,21.269 -12.6904,15.8088 -10.9645,10.2638 -8.2841,5.0068 -5.3736,1.5461 -2.6582,-1.0567 -1.567,-1.9608 A2.51,2.51 0 0 1 1.567,1.9608 Z" stroke-linecap="round" fill="#f76707"/></g></g><g transform="matrix(1, 0, 0, 1, 1696.1283, 19197.6023)" opacity="1"><g transform="scale(1)"><path d="M2.819,-1.1264 T3.7153,1.0826 5.5336,5.5568 8.1041,12.8764 10.8385,21.697 12.5263,28.6788 13.4394,34.7405 13.4546,40.0618 11.9532,46.1558 7.6132,52.0558 2.8755,55.0807 1.2722,55.8247 A2.8004,2.8004 0 0 1 -1.2722,50.8353 T0.2715,49.9745 3.9927,47.0445 6.7851,41.6009 7.1236,35.6306 6.3341,30.1152 4.7911,23.5209 2.2386,14.9814 -0.1788,7.8399 -1.9462,3.3447 -2.819,1.1264 A3.0357,3.0357 0 0 1 2.819,-1.1264 Z" stroke-linecap="round" fill="#f76707"/></g></g><g transform="matrix(1, 0, 0, 1, 1416.3847, 19225.6702)" opacity="1"><g transform="scale(1)"><path d="M0.3258,-2.1183 T3.2162,-1.7709 9.4664,-1.1529 14.8191,-0.9892 19.8543,-1.6696 22.8968,-2.2431 A2.2967,2.2967 0 0 1 23.8832,2.2431 T22.2705,2.6455 17.7996,3.6408 12.1602,4.0033 7.3879,3.4827 2.5355,2.6554 -0.3258,2.1183 A2.1432,2.1432 0 0 1 0.3258,-2.1183 Z" stroke-linecap="round" fill="#f76707"/></g></g><g transform="matrix(1, 0, 0, 1, 1601.633, 19135.8529)" opacity="1"><g transform="scale(1)"><path d="M1.0986,1.6482 T-6.851,6.9812 -20.5026,16.4429 -31.0134,23.8833 -39.8836,30.0357 -47.3898,35.4581 -53.7654,40.284 -59.4081,44.3819 -64.8919,48.0515 -70.7283,51.9035 -73.7928,53.9394 A1.8757,1.8757 0 0 1 -75.9072,50.8406 T-72.8938,48.7296 -67.1974,44.7127 -61.9191,40.9547 -56.376,36.837 -49.9183,31.9524 -42.3173,26.5062 -33.435,20.4269 -22.8523,13.0492 -9.0797,3.6377 -1.0986,-1.6482 A1.9808,1.9808 0 0 1 1.0986,1.6482 Z" stroke-linecap="round" fill="#f76707"/></g></g><g transform="matrix(1, 0, 0, 1, 1595.0838, 19191.0531)" opacity="1"><g transform="scale(1)"><path d="M0.9486,1.6601 T-12.9594,9.6801 -36.2001,23.0182 -52.4677,32.0334 -64.562,38.7475 -73.8242,44.0116 -80.7386,47.8472 -86.6921,51.2318 -89.834,53.0278 A1.8158,1.8158 0 0 1 -91.666,49.8922 T-88.5585,48.0371 -82.6533,44.4936 -75.8283,40.5124 -66.5766,35.1444 -54.4631,28.406 -38.2318,19.4522 -14.9192,6.2505 -0.9486,-1.6601 A1.912,1.912 0 0 1 0.9486,1.6601 Z" stroke-linecap="round" fill="#f76707"/></g></g><g transform="matrix(1, 0, 0, 1, 1487.4901, 19057.2627)" opacity="1"><g transform="scale(1)"><path d="M1.2899,1.9366 T-1.3596,3.7154 -6.7825,7.1447 -12.4811,10.731 -18.2935,14.588 -23.7726,18.3771 -28.834,22.1141 -33.7223,25.8389 -39.4934,29.982 -45.2747,33.8832 -49.3981,36.736 -53.0226,39.402 -54.9527,40.8291 A1.9359,1.9359 0 0 1 -57.3273,37.7709 T-55.4667,36.2545 -51.8982,33.3351 -47.8507,30.2205 -42.328,26.1638 -36.7196,21.92 -31.7726,18.1226 -26.5722,14.3084 -20.98,10.4914 -15.0199,6.6291 -9.2939,3.1251 -3.9522,-0.1773 -1.2899,-1.9366 A2.3269,2.3269 0 0 1 1.2899,1.9366 Z" stroke-linecap="round" fill="#f76707"/></g></g><g transform="matrix(1, 0, 0, 1, 1486.5545, 18970.2521)" opacity="1"><g transform="scale(1)"><path d="M1.6228,1.1898 T-3.2302,7.839 -12.2341,19.3805 -20.1353,28.3786 -27.1792,36.1693 -33.3479,42.9085 -38.159,48.1852 -42.2737,52.9246 -44.4527,55.4417 A1.8224,1.8224 0 0 1 -47.2273,53.0783 T-45.0889,50.5267 -41.0112,45.6483 -36.2727,40.2564 -30.1908,33.4652 -23.2241,25.6607 -15.4628,16.8243 -6.5041,5.4381 -1.6228,-1.1898 A2.0123,2.0123 0 0 1 1.6228,1.1898 Z" stroke-linecap="round" fill="#f76707"/></g></g><g transform="matrix(1, 0, 0, 1, 1670.8672, 19280.8705)" opacity="1"><g transform="scale(1)"><path d="M1.3537,3.1083 T-0.4031,4.2323 -5.4041,7.577 -11.6045,12.5223 -16.3182,16.5168 -19.9905,19.1897 -21.9054,20.5926 A2.3975,2.3975 0 0 1 -24.8746,16.8274 T-23.0638,15.2924 -18.2363,11.2228 -13.4695,7.0515 -8.3178,3.1782 -3.1349,-0.1434 -1.3537,-1.2283 A2.5562,2.5562 0 0 1 1.3537,3.1083 Z" stroke-linecap="round" fill="#f76707"/></g></g><g transform="matrix(1, 0, 0, 1, 1651.2196, 19278.9993)" opacity="1"><g transform="scale(1)"><path d="M2.4865,-1.2432 T3.5754,0.9794 6.3218,6.2376 9.8592,11.6505 14.2345,16.1873 18.5614,19.7396 20.3929,21.1325 A2.8157,2.8157 0 0 1 17.0271,25.6475 T15.1693,24.2901 10.4128,20.4621 5.3186,15.0241 1.4431,8.8548 -1.3617,3.4479 -2.4865,1.2432 A2.78,2.78 0 0 1 2.4865,-1.2432 Z" stroke-linecap="round" fill="#f76707"/></g></g><g transform="matrix(1, 0, 0, 1, 1694.2571, 19291.162)" opacity="1"><g transform="scale(1)"><path d="M0.2552,-2.5408 T2.4742,-2.3727 7.735,-2.0662 13.0724,-2.0492 16.8396,-2.3642 18.3112,-2.5577 A2.5886,2.5886 0 0 1 19.1088,2.5577 T17.6481,2.8214 13.3705,3.3088 7.3574,3.3132 1.953,2.8173 -0.2552,2.5408 A2.5536,2.5536 0 0 1 0.2552,-2.5408 Z" stroke-linecap="round" fill="#f76707"/></g></g><g transform="matrix(1, 0, 0, 1, 1734.4878, 19273.3857)" opacity="1"><g transform="scale(1)"><path d="M0.5182,-2.3333 T4.5176,-1.5045 10.8679,0.2728 15.4383,4.0985 17.2857,9.6003 14.1844,14.0121 9.4123,15.7993 7.3691,15.7996 A2.7019,2.7019 0 0 1 7.5909,10.4004 T9.9006,10.2295 11.6588,8.0044 9.2605,5.082 3.4477,3.2735 -0.5182,2.3333 A2.3901,2.3901 0 0 1 0.5182,-2.3333 ZM7.5347,10.3987 T8.2319,10.4833 10.8207,11.204 14.5973,13.0468 18.1316,16.064 20.8725,20.032 21.7774,24.5023 19.4924,28.5253 14.7972,31.2803 8.9428,32.5579 2.4975,31.7906 -2.2309,30.1092 -3.772,29.4282 A2.4914,2.4914 0 0 1 -1.848,24.8318 T0.8747,25.9277 5.8586,27.3482 10.4608,27.0314 14.583,24.4481 14.8484,20.4532 11.4354,17.0517 8.4816,15.7522 7.4253,15.8013 A2.7019,2.7019 0 0 1 7.5347,10.3987 Z" stroke-linecap="round" fill="#f76707"/></g></g><g transform="matrix(1, 0, 0, 1, 2104.9844, 19002.998)" opacity="1"><g transform="scale(1)"><path d="M2.1058,0 T2.1438,1.9913 1.9847,7.2266 1.0188,13.8795 0.25,17.2885 A2.1669,2.1669 0 0 1 -3.99,16.3915 T-3.3334,13.0622 -2.4293,6.8577 -2.1438,1.9913 -2.1058,0 A2.1058,2.1058 0 0 1 2.1058,0 Z" stroke-linecap="round" fill="#f76707"/></g></g><g transform="matrix(1, 0, 0, 1, 2108.7268, 19010.4828)" opacity="1"><g transform="scale(1)"><path d="M0,2.1192 T-1.5503,2.1629 -6.782,1.605 -12.4384,0.5795 -14.4134,0.1557 A2.0617,2.0617 0 0 1 -13.6466,-3.8957 T-11.6532,-3.5683 -6.3778,-2.7238 -1.5479,-2.1629 0,-2.1192 A2.1192,2.1192 0 0 1 0,2.1192 Z" stroke-linecap="round" fill="#f76707"/></g></g><g transform="matrix(1, 0, 0, 1, 2128.3743, 18991.7708)" opacity="1"><g transform="scale(1)"><path d="M2.6088,-0.1248 T2.8708,4.5205 3.2785,12.2898 3.5058,17.7322 3.6736,22.6176 3.7598,25.1844 A2.8208,2.8208 0 0 1 -1.8798,25.3356 T-1.9312,22.7678 -2.0245,17.9102 -2.1549,12.5217 -2.4262,4.7739 -2.6088,0.1248 A2.6117,2.6117 0 0 1 2.6088,-0.1248 Z" stroke-linecap="round" fill="#f76707"/></g></g><g transform="matrix(1, 0, 0, 1, 1663.3824, 19333.2639)" opacity="1"><g transform="scale(1)"><path d="M1.4891,1.5722 T-2.6712,5.6021 -9.5028,12.0191 -14.6896,15.7505 -19.7642,18.4339 -22.3233,19.7729 A2.2604,2.2604 0 0 1 -24.4567,15.7871 T-21.9231,14.4003 -17.3342,11.9113 -12.6336,8.5539 -5.7388,2.3632 -1.4891,-1.5722 A2.1654,2.1654 0 0 1 1.4891,1.5722 Z" stroke-linecap="round" fill="#f76707"/></g></g><g transform="matrix(1, 0, 0, 1, 1643.7349, 19335.1351)" opacity="1"><g transform="scale(1)"><path d="M1.9583,-1.3047 T3.2707,0.696 6.7175,5.2834 10.6446,10.0254 14.404,13.5328 16.3707,14.885 A2.405,2.405 0 0 1 13.5693,18.795 T11.0691,16.9469 6.8873,13.0371 2.9649,8.1221 -0.6171,3.2867 -1.9583,1.3047 A2.3531,2.3531 0 0 1 1.9583,-1.3047 Z" stroke-linecap="round" fill="#f76707"/></g></g><g transform="matrix(1, 0, 0, 1, 1680.2232, 19341.6843)" opacity="1"><g transform="scale(1)"><path d="M0.3794,-1.8945 T3.6982,-1.2334 10.7144,0.1656 14.4118,0.9035 A1.9444,1.9444 0 0 1 13.6482,4.7165 T9.9518,3.9735 2.938,2.5625 -0.3794,1.8945 A1.9321,1.9321 0 0 1 0.3794,-1.8945 Z" stroke-linecap="round" fill="#f76707"/></g></g><g transform="matrix(1, 0, 0, 1, 1727.9386, 19326.7147)" opacity="1"><g transform="scale(1)"><path d="M0.1944,-2.902 T3.5121,-2.6663 9.159,-2.0778 14.3632,-0.3635 18.4516,3.594 18.4394,8.5228 15.0509,11.8619 10.5053,13.1489 8.1223,13.4293 A3.0018,3.0018 0 0 1 7.4796,7.4603 T10.7898,6.6879 12.3285,4.939 8.4999,3.6412 3.1241,3.111 -0.1944,2.902 A2.9085,2.9085 0 0 1 0.1944,-2.902 ZM10.013,8.4156 T10.6322,9.1067 13.0665,10.7943 17.7013,13.5204 22.9512,17.7219 25.3815,20.1939 A3.0766,3.0766 0 0 1 20.5172,23.9622 T18.7766,22.0615 14.4045,18.5117 9.3934,15.4288 6.3014,13.2346 5.5889,12.474 A3.0018,3.0018 0 0 1 10.013,8.4156 ZM24.9754,24.3933 T23.547,25.6153 18.3352,27.4237 12.2033,28.0494 7.2978,28.0607 1.7466,27.7368 -3.5263,27.0399 -8.2281,26.2179 -10.6512,25.7968 A2.4337,2.4337 0 0 1 -9.9288,20.9832 T-7.4889,21.2919 -2.9628,21.8547 1.8893,22.2119 7.1588,22.21 11.8718,21.9975 16.5692,21.6709 19.9902,20.6072 20.9233,19.7627 A3.0766,3.0766 0 0 1 24.9754,24.3933 Z" stroke-linecap="round" fill="#f76707"/></g></g><g transform="matrix(1, 0, 0, 1, 1441.6458, 19254.6737)" opacity="1"><g transform="scale(1)"><path d="M0.2569,-2.3783 T8.4528,-1.5699 22.2639,-0.3655 32.149,0.2073 40.2037,0.4462 47.7483,0.5106 55.9198,0.49 64.7924,0.2136 74.1182,-0.2032 85.4736,-0.6954 96.9754,-1.2091 105.9598,-1.5099 113.358,-1.7 119.9195,-1.8246 126.0363,-1.9064 131.9169,-1.9582 137.8921,-1.9933 144.2336,-2.2286 151.1189,-2.5715 158.2964,-2.9689 165.3925,-3.395 172.1207,-3.6239 178.325,-3.7529 184.0316,-3.8319 189.423,-3.6467 194.4823,-3.3305 199.4079,-3.1777 204.6555,-3.0987 210.079,-3.0494 215.4358,-3.2248 220.9165,-3.5177 226.6167,-3.6561 232.3589,-3.9228 238.2583,-4.2664 244.1591,-4.4409 249.5487,-4.7312 254.5964,-5.0954 259.6249,-5.2864 264.4927,-5.3709 269.3406,-5.617 273.8636,-5.96 279.1829,-6.3387 285.5428,-7.1445 292.2118,-8.212 299.78,-9.4203 307.9035,-10.889 316.328,-12.7058 325.1535,-14.928 333.6789,-16.9471 340.9014,-18.4055 346.7721,-19.357 352.9538,-19.8926 358.2621,-20.1642 360.0578,-20.2273 A2.452,2.452 0 0 1 360.3622,-15.3327 T358.5724,-15.1728 353.4927,-14.6417 347.7488,-13.8769 342.1408,-12.7406 335.1394,-11.0812 326.7448,-8.8623 317.7439,-6.3997 309.1349,-4.371 300.8859,-2.7433 293.345,-1.4328 286.4673,-0.2427 277.7449,0.8474 269.7332,1.5604 264.658,1.8738 259.9316,2.0074 255.156,2.2301 250.0009,2.651 244.4222,3.0156 238.7459,3.2493 232.7569,3.6802 226.8543,4.0394 221.3722,4.245 215.7134,4.6049 210.0119,4.8244 204.5222,4.7795 199.1408,4.6798 193.9771,4.4933 189.127,4.1658 184.1161,3.9732 178.4759,4.0212 172.3848,4.1329 165.8615,4.3609 158.7262,4.8017 151.5006,5.2056 144.4917,5.5394 137.9045,5.7535 131.9394,5.7367 126.0769,5.7194 119.9901,5.7031 113.4742,5.7028 106.1369,5.7486 97.2306,5.8955 85.6982,6.2312 74.3388,6.5071 64.9124,6.7042 55.8386,6.7578 47.5929,6.5288 39.9434,6.1979 31.7679,5.6866 21.7699,4.8358 7.9225,3.3389 -0.2569,2.3783 A2.3921,2.3921 0 0 1 0.2569,-2.3783 Z" stroke-linecap="round" fill="#f76707"/></g></g><g transform="matrix(1, 0, 0, 1, 1603.5042, 19345.4267)" opacity="1"><g transform="scale(1)"><path d="M0.2852,-2.2694 T2.0565,-2.0668 8.0549,-1.5239 12.282,-1.1834 A2.1269,2.1269 0 0 1 12.038,3.0634 T9.7634,2.9808 5.3685,2.8259 1.4815,2.5115 -0.2852,2.2694 A2.2872,2.2872 0 0 1 0.2852,-2.2694 Z" stroke-linecap="round" fill="#f76707"/></g></g><g transform="matrix(1, 0, 0, 1, 1632.5077, 19329.5215)" opacity="1"><g transform="scale(1)"><path d="M1.5219,2.1301 T-0.0285,3.2304 -3.6887,6.6776 -7.0112,11.7673 -8.2676,16.7467 -7.2657,20.7778 -4.8813,25.2291 -3.5424,27.886 A2.3486,2.3486 0 0 1 -7.6776,30.114 T-9.1601,27.5346 -12.1294,22.05 -12.715,14.2211 -10.8342,7.483 -7.236,2.8826 -3.0696,-1.0168 -1.5219,-2.1301 A2.6179,2.6179 0 0 1 1.5219,2.1301 Z" stroke-linecap="round" fill="#f76707"/></g></g><g transform="matrix(1, 0, 0, 1, 1760.6845, 19321.1011)" opacity="1"><g transform="scale(1)"><path d="M2.8873,-0.9636 T3.5543,1.0267 4.9947,4.849 6.6456,8.8081 8.2635,13.2892 9.6054,17.729 10.5596,21.9732 10.8617,27.0068 10.2767,32.0506 7.8781,37.1551 3.5313,41.6895 -0.2294,43.9063 -1.5076,44.5248 A2.7524,2.7524 0 0 1 -4.1124,39.6752 T-2.8908,38.9511 0.4091,36.5025 3.4565,32.2335 4.2436,25.6106 3.5088,19.5015 2.3504,15.3704 0.9024,11.145 -0.7515,6.9842 -2.2252,2.956 -2.8873,0.9636 A3.0439,3.0439 0 0 1 2.8873,-0.9636 Z" stroke-linecap="round" fill="#f76707"/></g></g><g transform="matrix(1, 0, 0, 1, 1585.7278, 19377.237)" opacity="1"><g transform="scale(1)"><path d="M-0.1401,-2.1929 T10.2513,-2.9735 28.1302,-4.2073 41.7883,-4.9309 53.3708,-5.59 64.1284,-6.206 74.5036,-6.5702 84.3986,-6.7881 93.82,-6.9189 104.7611,-7.0052 116.5014,-7.0603 126.8921,-7.0846 136.5732,-7.0886 145.5754,-7.2815 153.9912,-7.7799 161.7283,-8.434 168.8967,-9.1559 175.0651,-9.9111 179.6652,-10.8426 183.9557,-12.0732 186.3243,-12.7561 A2.5913,2.5913 0 0 1 187.9157,-7.8239 T185.5947,-6.9936 180.9864,-5.3528 175.9126,-4.0274 169.6032,-3.0221 162.3303,-2.0818 154.422,-1.2601 145.7427,-0.6367 136.5771,-0.3792 126.8987,-0.3722 116.5123,-0.3758 104.7855,-0.3915 93.8685,-0.4031 84.4852,-0.3921 74.6558,-0.341 64.3962,-0.1946 53.6262,0.1581 41.9958,0.5026 28.4085,0.8485 10.5465,1.6444 0.1401,2.1929 A2.1974,2.1974 0 0 1 -0.1401,-2.1929 Z" stroke-linecap="round" fill="#f76707"/></g></g><g transform="matrix(1, 0, 0, 1, 1724.1962, 19397.8201)" opacity="1"><g transform="scale(1)"><path d="M0,2.814 T-2.2128,2.7928 -7.803,3.4734 -13.2812,5.331 -13.9077,8.1088 -8.8396,10.4734 -3.1304,11.3502 2.238,10.5702 6.0639,6.6737 6.6368,3.6916 A2.8623,2.8623 0 0 1 12.0832,1.9284 T12.5504,3.1699 13.0868,7.7884 10.4497,13.3715 5.7706,16.2665 1.1502,17.2801 -3.8661,17.3576 -8.6129,16.6502 -13.3116,15.2942 -17.2649,13.0793 -19.741,9.7273 -19.898,5.3028 -16.036,0.9314 -10.8485,-1.6665 -6.6328,-2.5281 -2.2145,-2.7928 0,-2.814 A2.814,2.814 0 0 1 0,2.814 Z" stroke-linecap="round" fill="#f76707"/></g></g><g transform="matrix(1, 0, 0, 1, 2164.8626, 18990.8353)" opacity="1"><g transform="scale(1)"><path d="M2.1524,-0.1966 T2.4625,2.229 3.0263,7.7802 3.2498,14.3198 3.2194,17.7336 A2.2799,2.2799 0 0 1 -1.3394,17.8264 T-1.5073,14.4793 -1.7793,8.106 -2.0178,2.6382 -2.1524,0.1966 A2.1613,2.1613 0 0 1 2.1524,-0.1966 Z" stroke-linecap="round" fill="#f76707"/></g></g><g transform="matrix(1, 0, 0, 1, 2173.283, 18998.32)" opacity="1"><g transform="scale(1)"><path d="M0,2.2791 T-1.9913,2.3175 -7.145,2.355 -12.1686,2.3443 -14.03,2.3345 A2.3345,2.3345 0 0 1 -14.03,-2.3345 T-12.1686,-2.3443 -7.145,-2.355 -1.9913,-2.3175 0,-2.2791 A2.2791,2.2791 0 0 1 0,2.2791 Z" stroke-linecap="round" fill="#f76707"/></g></g><g transform="matrix(1, 0, 0, 1, 2215.3849, 18958.0893)" opacity="1"><g transform="scale(1)"><path d="M1.524,2.4358 T-0.2664,3.5077 -4.3674,6.5707 -7.6602,10.3761 -8.3202,14.1685 -6.3167,17.6336 -2.6022,19.521 1.5082,19.2095 4.6403,16.4538 5.5329,12.045 3.7384,8.4802 0.9531,6.615 -0.2003,5.9497 A2.4866,2.4866 0 0 1 2.0803,1.5303 T4.6122,2.7294 9.0174,5.9194 11.4408,10.6341 11.3369,16.1251 8.8144,21.2713 3.9635,24.8643 -1.9013,25.5762 -7.8304,23.1862 -12.0026,19.6433 -13.4218,14.1882 -12.1463,7.588 -7.7983,2.3177 -3.2716,-1.2941 -1.524,-2.4358 A2.8733,2.8733 0 0 1 1.524,2.4358 Z" stroke-linecap="round" fill="#f76707"/></g></g><g transform="matrix(1, 0, 0, 1, 2246.2596, 18993.642)" opacity="1"><g transform="scale(1)"><path d="M0,2.5377 T-3.7627,2.5755 -11.0551,2.6651 -18.2161,2.7661 -25.2173,3.0824 -31.5534,3.4834 -36.9698,3.6891 -41.4533,3.9901 -46.0465,4.3336 -52.1698,3.9492 -57.2313,2.9337 -58.7292,2.4168 A2.5216,2.5216 0 0 1 -57.2908,-2.4168 T-55.7539,-2.0306 -51.5667,-1.4726 -46.5407,-1.4528 -41.8688,-1.8803 -37.1635,-2.2077 -31.8573,-2.3598 -25.4041,-2.6378 -18.2165,-2.7661 -11.0551,-2.6651 -3.7627,-2.5755 0,-2.5377 A2.5377,2.5377 0 0 1 0,2.5377 Z" stroke-linecap="round" fill="#f76707"/></g></g><g transform="matrix(1, 0, 0, 1, 2199.4797, 19013.2896)" opacity="1"><g transform="scale(1)"><path d="M1.6871,1.0844 T-0.2623,4.2096 -3.7261,9.4668 -6.8499,13.0646 -10.087,15.9838 -11.7149,17.4371 A2.0617,2.0617 0 0 1 -14.4851,14.3829 T-11.5883,11.7383 -7.2226,7.0757 -3.7204,1.9867 -1.6871,-1.0844 A2.0055,2.0055 0 0 1 1.6871,1.0844 Z" stroke-linecap="round" fill="#f76707"/></g></g><g transform="matrix(1, 0, 0, 1, 2188.2526, 19015.1608)" opacity="1"><g transform="scale(1)"><path d="M2.0683,-1.1496 T3.202,0.8268 5.845,5.523 9.1771,9.8016 12.5242,12.0367 14.0485,12.713 A2.4482,2.4482 0 0 1 12.1515,17.227 T10.6017,16.6115 7.2029,15.0944 4.1112,12.3977 1.48,7.8824 -0.9884,3.1559 -2.0683,1.1496 A2.3663,2.3663 0 0 1 2.0683,-1.1496 Z" stroke-linecap="round" fill="#f76707"/></g></g><g transform="matrix(1, 0, 0, 1, 2207.9001, 19019.8388)" opacity="1"><g transform="scale(1)"><path d="M0.4796,-1.9185 T2.2639,-1.5373 6.9405,-0.7705 11.057,-0.2854 12.281,-0.1858 A2.0594,2.0594 0 0 1 12.039,3.9258 T9.6157,3.8338 5.1102,3.3334 1.2742,2.4218 -0.4796,1.9185 A1.9776,1.9776 0 0 1 0.4796,-1.9185 Z" stroke-linecap="round" fill="#f76707"/></g></g><g transform="matrix(1, 0, 0, 1, 2227.5477, 19011.4184)" opacity="1"><g transform="scale(1)"><path d="M-0.4866,-2.904 T0.8458,-3.0939 4.282,-3.4632 9.1352,-2.9984 13.4406,-0.4585 14.6768,3.6441 12.5837,7.6262 12.2452,11.091 14.6741,15.145 15.6681,17.5094 A2.9451,2.9451 0 0 1 9.9709,19.0053 T9.8405,18.0766 8.3448,15.098 6.1598,10.6467 7.0596,5.3264 5.954,2.4009 1.8077,2.6493 0.4866,2.904 A2.9445,2.9445 0 0 1 -0.4866,-2.904 ZM14.799,20.438 T14.0137,21.1457 10.3194,22.7998 5.7765,23.9277 4.1425,24.1094 A2.6205,2.6205 0 0 1 3.3375,18.9306 T6.2814,18.2417 10.0326,16.8147 10.84,16.0767 A2.9451,2.9451 0 0 1 14.799,20.438 Z" stroke-linecap="round" fill="#f76707"/></g></g></svg>