<svg xmlns="http://www.w3.org/2000/svg" direction="ltr" width="423.36061878654664" height="226.55805515173415" viewBox="645.862599635547 10046.536121278825 423.36061878654664 226.55805515173415" stroke-linecap="round" stroke-linejoin="round" style="background-color: transparent;"><defs/><g transform="matrix(1, 0, 0, 1, 678.1768, 10200.4661)" opacity="0.5"><g transform="scale(1)"><path d="M-1.1548,-1.4445 T-0.2652,-2.1452 2.7916,-4.3502 6.8805,-7.0304 10.9769,-9.6405 14.9312,-12.6489 18.8831,-16.0066 23.0697,-19.3038 26.8086,-22.1374 30.9995,-25.2094 35.802,-28.5639 40.2066,-31.7391 43.9221,-34.5958 47.8248,-37.4909 51.7766,-40.2693 55.8829,-43.3166 60.6079,-47.1296 65.194,-50.9357 69.2778,-54.0321 73.3447,-57.0766 77.4334,-60.6128 80.9334,-63.8996 84.2352,-66.6396 87.8025,-69.261 91.7569,-72.4053 95.7815,-75.7129 99.7425,-78.8853 103.6504,-81.86 107.3221,-84.8851 110.7886,-87.8616 114.7205,-90.8726 118.7846,-93.7043 122.2096,-96.2215 125.5241,-98.7039 129.3604,-101.5705 133.0682,-104.5722 136.2437,-107.2324 139.5403,-110.1424 142.9245,-112.9518 146.2258,-115.5156 149.6298,-117.824 153.0009,-120.097 156.079,-122.6253 157.5153,-123.8936 A2.6737,2.6737 0 0 1 161.1447,-119.9664 T160.3552,-119.1995 157.6788,-116.9317 153.9107,-114.2733 150.0872,-111.626 146.1254,-108.6637 142.5532,-105.6769 139.4475,-102.8766 136.3194,-100.3781 132.9807,-97.9532 128.8348,-94.865 124.7925,-91.7059 121.3418,-89.3226 117.6575,-86.853 114.0265,-84.1563 110.2942,-81.0526 106.6567,-78.136 102.9916,-75.4183 99.3868,-72.4983 96.0185,-69.8991 92.728,-67.3085 89.1957,-64.7065 85.3032,-61.6729 81.5209,-58.4351 77.3543,-55.0001 73.434,-51.877 69.4681,-48.8522 64.7752,-45.1581 60.7504,-42.0779 57.3245,-39.4236 53.7896,-36.8613 50.0592,-34.3007 46.3673,-31.5905 42.4929,-28.653 37.991,-25.4622 33.1515,-22.1497 28.9345,-19.1096 25.3758,-16.4558 21.2984,-13.2926 17.0226,-9.7351 12.7539,-6.5147 8.6682,-3.8956 4.8549,-1.3601 2.0342,0.731 1.1548,1.4445 A1.8494,1.8494 0 0 1 -1.1548,-1.4445 Z" stroke-linecap="round" fill="#9398b0"/></g></g><g transform="matrix(1, 0, 0, 1, 677.8626, 10200.1998)" opacity="0.5"><g transform="scale(1)"><path d="M-1.1046,-1.6548 T-0.173,-2.2617 2.6664,-4.1016 6.3561,-6.5997 9.814,-9.1439 13.4126,-11.7273 17.3921,-14.4303 21.3591,-17.2239 25.3952,-20.0423 29.0966,-22.6728 32.2317,-25.1159 35.5699,-27.605 39.0971,-30.3235 42.658,-33.2213 46.217,-35.9863 49.513,-38.5633 52.8716,-41.0826 56.2331,-43.6357 59.3794,-46.1009 62.9485,-48.6604 66.9461,-51.4405 70.7965,-54.3938 74.1535,-57.2225 77.4104,-59.5871 80.3843,-61.6508 81.6308,-62.6327 A2.6059,2.6059 0 0 1 84.9892,-58.6473 T84.4767,-58.1967 82.0877,-56.4978 78.4271,-53.9636 74.9991,-51.337 71.486,-48.6738 67.9522,-46.1301 64.2943,-43.7167 60.227,-40.9703 56.314,-37.9886 52.8119,-35.374 49.3019,-32.7977 45.5129,-29.9907 41.6965,-27.0649 37.7233,-24.0451 33.9219,-21.2708 30.3996,-18.787 26.6528,-16.1947 22.7155,-13.4344 18.9786,-10.8863 15.4977,-8.5363 12.1567,-6.1345 8.7142,-3.5771 4.8994,-0.9154 2.0224,1.0272 1.1046,1.6548 A1.9896,1.9896 0 0 1 -1.1046,-1.6548 Z" stroke-linecap="round" fill="#ff8787"/></g></g><g transform="matrix(1, 0, 0, 1, 678.1768, 10201.2141)" opacity="0.5"><g transform="scale(1)"><path d="M-0.3498,-2.4442 T0.893,-2.597 4.1313,-2.8795 8.4632,-3.0456 13.5977,-3.0988 19.4032,-3.4005 24.5673,-3.7745 29.217,-3.9038 34.2339,-4.2834 39.2005,-4.6878 43.7406,-4.7738 48.3582,-4.8173 53.0436,-4.8614 57.8425,-4.9099 63.1211,-4.9642 67.9626,-5.0122 72.396,-5.0506 76.7835,-5.0819 81.0812,-5.1071 85.314,-5.1276 89.8909,-5.1456 94.7124,-5.1613 99.702,-5.1741 104.9011,-5.1849 109.5863,-5.1928 114.0556,-5.1973 118.6331,-5.1971 123.1821,-5.1892 127.7108,-5.1787 132.2486,-5.1716 136.6954,-5.1627 141.1839,-5.1514 145.7751,-5.1413 150.2635,-5.1395 154.8255,-5.1373 158.9819,-5.073 160.82,-5.0137 A2.7737,2.7737 0 0 1 160.82,0.5337 T158.9819,0.593 154.8255,0.6573 150.2635,0.6595 145.7751,0.6613 141.1839,0.6714 136.6954,0.6827 132.2486,0.6916 127.7108,0.6987 123.1821,0.7092 118.6331,0.7171 114.0556,0.7173 109.5863,0.7128 104.9011,0.7049 99.702,0.6941 94.7124,0.6813 89.8909,0.6656 85.314,0.6476 81.0812,0.6271 76.7835,0.6019 72.396,0.5706 67.9626,0.5322 63.1211,0.4842 57.8425,0.4299 53.044,0.3816 48.3633,0.3398 43.7693,0.3124 39.362,0.3347 34.3927,0.6701 29.297,0.9778 24.8017,1.0411 20.6622,1.3662 15.4986,1.6188 10.2025,1.6371 5.3959,1.8533 1.5855,2.2423 0.3498,2.4442 A2.4691,2.4691 0 0 1 -0.3498,-2.4442 Z" stroke-linecap="round" fill="#9398b0"/></g></g><g transform="matrix(1, 0, 0, 1, 677.8626, 10200.5718)" opacity="0.5"><g transform="scale(1)"><path d="M-0.1993,-2.7363 T1.0042,-2.7954 4.1935,-2.9099 8.8981,-3.0982 14.0933,-3.2814 18.7541,-3.5132 23.1159,-3.7115 27.3771,-3.7461 31.5617,-3.787 35.9526,-3.8363 40.5764,-3.8841 45.1701,-3.923 49.7324,-3.9544 54.1085,-3.9793 58.5188,-3.999 63.2333,-4.0094 67.7878,-4.0105 72.1146,-4.0072 76.4198,-4.0033 81.3323,-3.9514 84.09,-3.9002 A2.7902,2.7902 0 0 1 84.09,1.6802 T81.3323,1.7314 76.4198,1.7833 72.1146,1.7872 67.7878,1.7905 63.2333,1.7894 58.5188,1.779 54.1085,1.7593 49.7324,1.7344 45.1701,1.703 40.5764,1.6641 35.9526,1.6163 31.5617,1.567 27.378,1.5265 23.1591,1.5068 18.8171,1.6764 14.2981,1.8964 9.6895,2.1018 4.9959,2.3819 1.3986,2.6204 0.1993,2.7363 A2.7435,2.7435 0 0 1 -0.1993,-2.7363 Z" stroke-linecap="round" fill="#ff8787"/></g></g><g transform="matrix(1, 0, 0, 1, 839.7469, 10080.0366)" opacity="0.5"><g transform="scale(1)"><path d="M2.3051,0 T2.2892,1.769 2.2608,5.8557 2.2466,10.6867 2.252,15.4843 2.2647,20.0186 2.2751,24.5121 2.2876,29.0002 2.3019,33.4887 2.3096,37.9773 2.3187,42.4664 2.3343,46.9532 2.3538,51.4404 2.3739,55.9288 2.3884,60.2399 2.4025,64.3836 2.4198,68.6795 2.4428,73.5673 2.4684,78.4332 2.4943,82.8679 2.5236,87.6582 2.322,92.7076 1.9915,97.6717 1.8751,102.3516 1.8773,106.8028 1.897,111.6876 1.8814,116.2615 1.851,118.19 A2.601,2.601 0 0 1 -3.351,118.19 T-3.3813,116.2614 -3.3963,111.6865 -3.3722,106.7948 -3.3401,102.2962 -3.2052,97.7272 -2.8162,92.8115 -2.5236,87.6582 -2.4943,82.8679 -2.4684,78.4332 -2.4428,73.5673 -2.4198,68.6795 -2.4025,64.3836 -2.3884,60.2399 -2.3739,55.9288 -2.3538,51.4404 -2.3343,46.9532 -2.3187,42.4664 -2.3096,37.9773 -2.3019,33.4887 -2.2876,29.0002 -2.2751,24.5121 -2.2647,20.0186 -2.252,15.4843 -2.2466,10.6867 -2.2608,5.8557 -2.2892,1.769 -2.3051,0 A2.3051,2.3051 0 0 1 2.3051,0 Z" stroke-linecap="round" fill="#9398b0"/></g></g><g transform="matrix(1, 0, 0, 1, 762.3487, 10140.3071)" opacity="0.5"><g transform="scale(1)"><path d="M2.4458,0 T2.432,1.0572 2.3992,4.3032 2.3749,8.7834 2.3675,13.3078 2.3634,17.7721 2.3653,22.2337 2.3776,26.6969 2.3931,30.9909 2.4111,35.1373 2.438,39.4032 2.4715,43.6114 2.3194,47.7331 2.158,52.029 2.1506,56.5053 2.135,58.7801 A2.525,2.525 0 0 1 -2.915,58.7799 T-2.9302,56.5042 -2.9218,51.9786 -2.6935,47.6838 -2.4715,43.6114 -2.438,39.4032 -2.4111,35.1373 -2.3931,30.9909 -2.3776,26.6969 -2.3653,22.2337 -2.3634,17.7721 -2.3675,13.3078 -2.3749,8.7834 -2.3992,4.3032 -2.432,1.0572 -2.4458,0 A2.4458,2.4458 0 0 1 2.4458,0 Z" stroke-linecap="round" fill="#ff8787"/></g></g><g transform="matrix(1, 0, 0, 1, 854.7071, 10132.7712)" opacity="1"><g transform="scale(1)"><path d="M2.2125,1.305 T1.874,2.7231 1.0815,6.2251 0.268,9.1343 -0.0914,9.9595 A2.3613,2.3613 0 0 1 -4.3886,8.0005 T-4.1385,7.4887 -3.4215,4.9964 -2.5835,1.6055 -2.2125,0.195 A2.2811,2.2811 0 0 1 2.2125,1.305 ZM-4.1577,7.6022 T-3.7489,7.0428 -1.9716,4.5152 0.673,0.9657 4.2041,-1.7277 8.1565,-1.6131 10.1468,1.5697 10.4397,3.5256 A2.2819,2.2819 0 0 1 5.8915,3.9032 T5.9682,2.8131 4.7554,3.2743 2.0993,6.848 0.2051,9.6141 -0.3223,10.3578 A2.3613,2.3613 0 0 1 -4.1577,7.6022 ZM9.0092,1.5941 T9.0244,1.6002 9.0396,1.6063 A2.2818,2.2818 0 0 1 7.3526,5.8467 T7.3373,5.8407 7.3221,5.8347 A2.2819,2.2819 0 0 1 9.0092,1.5941 ZM6.2773,2.4916 T6.79,1.7121 9.0776,-0.6822 13.0937,-2.9666 15.3348,-3.6364 A2.231,2.231 0 0 1 15.9162,0.7876 T15.2348,0.8552 12.7377,2.2979 10.5184,4.3173 10.1149,4.9614 A2.2818,2.2818 0 0 1 6.2773,2.4916 ZM17.4925,-2.6458 T18.1792,-1.5495 19.1405,1.9264 19.0606,6.4656 18.7063,8.6251 A2.2808,2.2808 0 0 1 14.2137,7.8349 T14.3916,6.8221 14.6145,3.4452 14.209,0.4391 13.7585,-0.2029 A2.231,2.231 0 0 1 17.4925,-2.6458 Z" stroke-linecap="round" fill="#e599f7"/></g></g><g transform="matrix(1, 0, 0, 1, 889.1155, 10134.2673)" opacity="1"><g transform="scale(1)"><path d="M-2.2095,1.6553 T-2.7113,0.9392 -4.3713,1.8803 -3.4007,4.5894 0.7935,5.3888 1.8632,3.184 0.8674,1.2315 A2.4105,2.4105 0 0 1 3.6126,-2.7315 T4.3905,-2.2371 6.8931,0.5381 8.2725,5.0149 5.4731,8.7892 0.8109,10.5605 -3.9279,10.3936 -8.3278,8.0308 -10.1626,3.4964 -8.812,-0.8522 -5.1459,-3.7509 -0.8508,-3.942 1.6518,-2.3535 2.2095,-1.6553 A2.7607,2.7607 0 0 1 -2.2095,1.6553 Z" stroke-linecap="round" fill="#e599f7"/></g></g><g transform="matrix(1, 0, 0, 1, 909.3118, 10117.811)" opacity="1"><g transform="scale(1)"><path d="M2.3782,1.357 T1.6467,2.5826 -0.618,6.1213 -3.181,10.7058 -3.7567,15.1552 -0.9492,16.6152 1.4042,15.8972 A2.594,2.594 0 0 1 4.5758,20.0028 T2.5137,21.4014 -1.776,22.714 -6.16,21.269 -9.0323,16.8169 -9.1386,11.4869 -7.485,7.3134 -5.0923,3.2629 -3.061,-0.1041 -2.3782,-1.357 A2.7382,2.7382 0 0 1 2.3782,1.357 Z" stroke-linecap="round" fill="#e599f7"/></g></g><g transform="matrix(1, 0, 0, 1, 907.8158, 10126.0392)" opacity="1"><g transform="scale(1)"><path d="M0.3283,2.2935 T-0.908,2.4927 -4.722,2.8617 -7.2997,3.0315 A2.2886,2.2886 0 0 1 -7.6603,-1.5315 T-5.2365,-1.757 -1.5705,-2.138 -0.3283,-2.2935 A2.3168,2.3168 0 0 1 0.3283,2.2935 Z" stroke-linecap="round" fill="#e599f7"/></g></g><g transform="matrix(1, 0, 0, 1, 931.0041, 10127.5352)" opacity="1"><g transform="scale(1)"><path d="M1.067,2.1387 T0.0257,2.637 0.3236,5.1229 2.2651,9.1964 1.8831,13.5145 -1.2593,16.4888 -3.4174,17.2309 A2.3445,2.3445 0 0 1 -3.9156,12.5684 T-2.8738,11.8042 -2.9247,9.1517 -4.8869,5.1073 -4.4941,0.9674 -2.1494,-1.5775 -1.067,-2.1387 A2.3901,2.3901 0 0 1 1.067,2.1387 ZM-5.2677,16.6122 T-6.0233,15.9122 -8.5108,12.7386 -10.6377,9.3419 -11.0327,8.4188 A2.2572,2.2572 0 0 1 -6.9273,6.5412 T-6.4874,7.4437 -4.7873,10.0768 -2.7962,12.4972 -2.0653,13.1871 A2.3445,2.3445 0 0 1 -5.2677,16.6122 Z" stroke-linecap="round" fill="#e599f7"/></g></g><g transform="matrix(1, 0, 0, 1, 948.9563, 10113.323)" opacity="1"><g transform="scale(1)"><path d="M2.3011,1.4391 T1.3903,2.8369 -0.666,6.1951 -2.788,10.4697 -4.3957,15.6567 -3.4126,19.9555 -1.7985,21.3817 A2.5757,2.5757 0 0 1 -1.2015,26.4983 T-2.2112,26.6455 -5.3816,26.6041 -8.9114,24.8376 -10.2833,20.5408 -9.4249,14.3075 -7.4653,8.2165 -5.1921,3.5311 -3.1593,-0.0084 -2.3011,-1.4391 A2.7141,2.7141 0 0 1 2.3011,1.4391 Z" stroke-linecap="round" fill="#e599f7"/></g></g><g transform="matrix(1, 0, 0, 1, 946.7123, 10125.2911)" opacity="1"><g transform="scale(1)"><path d="M0.3254,1.9481 T-0.7386,2.1563 -4.3429,2.1774 -6.8833,1.9903 A1.9962,1.9962 0 0 1 -6.5767,-1.9903 T-4.5109,-1.8227 -1.3852,-1.8016 -0.3254,-1.9481 A1.9751,1.9751 0 0 1 0.3254,1.9481 Z" stroke-linecap="round" fill="#e599f7"/></g></g><g transform="matrix(1, 0, 0, 1, 960.1765, 10131.2752)" opacity="1"><g transform="scale(1)"><path d="M0.3502,2.4467 T-0.8648,2.6102 -3.2503,4.4576 -3.1151,4.8434 -1.8094,3.5453 A2.3968,2.3968 0 0 1 2.8227,4.7794 T2.3658,6.3193 0.5515,9.3394 -3.1748,10.9128 -7.3613,8.8887 -8.5668,4.3549 -5.4158,-0.0629 -1.6137,-2.2555 -0.3502,-2.4467 A2.4716,2.4716 0 0 1 0.3502,2.4467 ZM2.886,3.8734 T2.998,4.8104 4.0982,5.8307 5.0864,5.9138 A2.3213,2.3213 0 0 1 5.3936,10.5462 T3.2992,10.5077 -0.2383,8.2339 -1.777,5.2249 -1.8727,4.4514 A2.3968,2.3968 0 0 1 2.886,3.8734 Z" stroke-linecap="round" fill="#e599f7"/></g></g><g transform="matrix(1, 0, 0, 1, 958.6805, 10118.5591)" opacity="1"><g transform="scale(1)"><path d="M0.8412,-1.9679 T2.1053,-1.4309 4.7827,0.9416 5.6728,4.6963 4.1218,7.2138 3.0938,7.812 A2.2077,2.2077 0 0 1 1.3807,3.7424 T1.4841,3.3777 0.3732,2.4904 -0.8412,1.9679 A2.1401,2.1401 0 0 1 0.8412,-1.9679 ZM0.7311,7.3914 T0.033,6.7233 -1.4438,5.3117 -2.2224,4.5681 A2.1584,2.1584 0 0 1 0.7224,1.4119 T1.5181,2.1372 3.0285,3.5127 3.7433,4.1629 A2.2077,2.2077 0 0 1 0.7311,7.3914 Z" stroke-linecap="round" fill="#e599f7"/></g></g><g transform="matrix(1, 0, 0, 1, 972.1446, 10129.7792)" opacity="1"><g transform="scale(1)"><path d="M0,-1.9204 T1.004,-1.9217 1.1971,0.9356 1.4073,6.0801 5.1604,7.9219 7.8924,7.4778 A2.4921,2.4921 0 0 1 10.0676,11.9622 T9.0048,12.5257 5.1067,13.5288 0.4758,13.003 -2.828,9.7124 -4.3464,4.8123 -3.2227,-0.2616 -0.3133,-4.6034 3.977,-6.3249 7.3486,-4.4011 7.2513,-0.5709 4.2684,2.4399 1.1198,3.4217 0,3.4204 A2.6704,2.6704 0 0 1 0,-1.9204 Z" stroke-linecap="round" fill="#e599f7"/></g></g><g transform="matrix(1, 0, 0, 1, 983.3648, 10129.7792)" opacity="1"><g transform="scale(1)"><path d="M2.7219,0 T2.7382,2.1233 2.9384,6.1983 3.1224,8.1499 A2.7778,2.7778 0 0 1 -2.4129,8.6243 T-2.5836,6.4363 -2.7382,2.1242 -2.7219,0 A2.7219,2.7219 0 0 1 2.7219,0 ZM-1.2368,6.1105 T-0.8844,5.9244 0.7846,3.9974 3.6909,0.0184 5.2805,-2.2196 A2.6049,2.6049 0 0 1 9.5113,0.8206 T8.1192,2.9131 5.1615,7.1977 2.7711,10.0268 1.9463,10.6637 A2.7778,2.7778 0 0 1 -1.2368,6.1105 ZM9.8592,-1.5467 T10.2105,-0.4964 10.429,2.9803 10.5462,7.4023 10.7962,9.3978 A2.5864,2.5864 0 0 1 5.6638,10.0422 T5.4943,8.8362 5.3799,4.5904 5.1838,0.8491 4.9326,0.1477 A2.6049,2.6049 0 0 1 9.8592,-1.5467 Z" stroke-linecap="round" fill="#e599f7"/></g></g><g transform="matrix(1, 0, 0, 1, 1002.813, 10128.2832)" opacity="1"><g transform="scale(1)"><path d="M-2.7151,0.681 T-2.8848,-0.028 -3.0545,-0.7371 A2.7834,2.7834 0 0 1 2.345,-2.0915 T2.5301,-1.3863 2.7151,-0.681 A2.7992,2.7992 0 0 1 -2.7151,0.681 ZM-1.4715,1.1353 T-1.9157,0.9364 -2.36,0.7374 A2.7754,2.7754 0 0 1 -0.133,-4.3471 T0.3145,-4.1555 0.762,-3.9639 A2.7834,2.7834 0 0 1 -1.4715,1.1353 ZM0.8116,0.0572 T-0.0683,0.9805 -1.6176,4.4009 -0.1655,6.2524 2.9734,3.7189 4.749,-0.3249 5.9986,-5.1127 6.7022,-9.8043 6.9885,-13.8747 6.9324,-16.4726 6.8018,-17.0598 A2.5886,2.5886 0 0 1 11.8868,-18.0328 T12.0831,-16.9112 12.2271,-13.6442 11.93,-8.9928 11.1968,-3.6832 9.8709,1.588 7.862,6.2826 4.807,9.9979 0.4598,11.7868 -3.9388,11.2744 -6.5937,7.4118 -6.398,1.6006 -4.3934,-2.414 -3.3046,-3.6668 A2.7754,2.7754 0 0 1 0.8116,0.0572 ZM8.4624,-15.1125 T8.2006,-15.2125 7.9387,-15.3125 A2.579,2.579 0 0 1 9.6958,-20.162 T9.9609,-20.071 10.2261,-19.98 A2.5886,2.5886 0 0 1 8.4624,-15.1125 ZM11.2183,-16.7959 T10.83,-15.8431 9.7924,-11.8801 8.953,-6.3177 8.7468,-0.6199 8.8788,4.6637 9.5959,7.4285 10.1652,8.0553 A2.7623,2.7623 0 0 1 5.5859,11.1457 T4.4285,8.1646 3.3531,2.2293 3.6106,-3.8983 4.2986,-9.8176 5.223,-14.5871 6.0256,-17.6446 6.4161,-18.6786 A2.579,2.579 0 0 1 11.2183,-16.7959 ZM6.2281,7.3832 T7.1717,6.7268 8.1154,6.0704 A2.6905,2.6905 0 0 1 11.3246,10.3896 T10.4238,11.1037 9.5229,11.8177 A2.7623,2.7623 0 0 1 6.2281,7.3832 Z" stroke-linecap="round" fill="#e599f7"/></g></g><g transform="matrix(1, 0, 0, 1, 1017.7732, 10129.7792)" opacity="1"><g transform="scale(1)"><path d="M0,-2.6259 T1.4098,-2.6179 2.8968,-0.4702 3.6068,3.8242 6.2852,6.3783 10.6019,6.3828 15.5214,4.6168 18.1697,3.2457 A2.3699,2.3699 0 0 1 20.7303,7.2343 T19.6053,8.01 15.9969,9.9412 10.586,11.5141 4.857,11.1883 0.4822,8.4989 -1.3948,3.3887 -0.5905,-1.9198 2.652,-5.5378 6.985,-5.8964 8.2975,-2.0587 5.1244,1.6372 1.4187,2.6179 0,2.6259 A2.6259,2.6259 0 0 1 0,-2.6259 Z" stroke-linecap="round" fill="#e599f7"/></g></g><g transform="matrix(1, 0, 0, 1, 681.1688, 10155.2115)" opacity="1"><g transform="scale(1)"><path d="M2.6378,-1.1807 T3.5391,0.223 6.0606,3.9007 8.7309,7.597 9.7809,9.0193 A2.3318,2.3318 0 0 1 6.5984,12.4282 T4.8081,9.9178 1.8078,5.7189 -0.2701,2.6055 -1.1378,1.1807 A2.2267,2.2267 0 0 1 2.6378,-1.1807 ZM6.1302,9.6301 T6.338,9.2845 6.6059,6.446 7.6413,1.8542 11.1235,-0.6044 15.7473,0.87 18.7032,3.5322 19.5423,4.3603 A2.2713,2.2713 0 0 1 16.3577,7.5997 T13.8059,6.5982 11.1147,7.9777 10.6122,11.088 10.249,11.8174 A2.3318,2.3318 0 0 1 6.1302,9.6301 Z" stroke-linecap="round" fill="#4dabf7"/></g></g><g transform="matrix(1, 0, 0, 1, 699.8691, 10149.9755)" opacity="1"><g transform="scale(1)"><path d="M1.7231,-1.0776 T2.6127,0.3306 5.3839,3.5663 8.3008,3.2875 8.7114,-0.2554 8.0866,-1.6919 A2.0863,2.0863 0 0 1 11.3534,-4.2881 T12.1786,-2.7257 13.3946,1.1956 13.0954,5.6486 10.5857,8.7133 5.9298,8.5475 1.5645,5.6646 -0.8437,2.498 -1.7231,1.0776 A2.0323,2.0323 0 0 1 1.7231,-1.0776 ZM11.5079,-4.0653 T11.9306,-3.2834 13.9881,-0.9037 17.1114,2.1848 19.7964,5.7045 21.2337,9.8981 20.6374,13.971 18.1333,17.1391 14.032,19.1113 8.6393,19.5013 5.681,19.1788 A2.0012,2.0012 0 0 1 6.279,15.2212 T7.3989,15.3682 10.8587,15.4137 15.1319,14.1019 17.0137,10.6721 15.5558,6.7937 12.6663,3.6387 9.7739,0.3944 8.1483,-1.6343 7.9321,-1.9147 A2.0863,2.0863 0 0 1 11.5079,-4.0653 Z" stroke-linecap="round" fill="#4dabf7"/></g></g><g transform="matrix(1, 0, 0, 1, 717.0733, 10141.7474)" opacity="1"><g transform="scale(1)"><path d="M2.3502,-1.0856 T3.4212,1.2094 5.5733,6.3054 7.368,11.0564 8.6184,14.1726 9.1551,15.3385 A2.6719,2.6719 0 0 1 4.3049,17.5815 T3.7641,16.4175 2.472,13.1639 0.7381,8.3824 -1.2974,3.3881 -2.3502,1.0856 A2.5888,2.5888 0 0 1 2.3502,-1.0856 Z" stroke-linecap="round" fill="#4dabf7"/></g></g><g transform="matrix(1, 0, 0, 1, 715.5773, 10138.0073)" opacity="1"><g transform="scale(1)"><path d="M-1.3275,-1.6605 T-0.4461,-2.3743 2.3789,-4.1992 6.3879,-4.9342 9.6141,-2.7901 10.98,1.6121 10.1969,6.4542 7.4038,9.7751 5.5989,10.888 A2.2069,2.2069 0 0 1 3.3811,7.072 T5.0132,4.9718 4.8741,1.5657 2.2151,0.9601 1.3275,1.6605 A2.1259,2.1259 0 0 1 -1.3275,-1.6605 Z" stroke-linecap="round" fill="#4dabf7"/></g></g><g transform="matrix(1, 0, 0, 1, 733.5295, 10128.2832)" opacity="1"><g transform="scale(1)"><path d="M1.4295,1.3966 T0.3955,2.0586 -1.0515,4.6871 0.754,6.503 3.3837,4.2587 2.5041,0.3816 1.2134,-1.4019 A2.3829,2.3829 0 0 1 4.7666,-4.5781 T5.5412,-3.7769 7.5754,-0.9192 8.7421,4.1614 6.8321,9.1361 3.0902,11.6256 -0.9571,11.6345 -4.6596,9.4205 -6.1933,5.2435 -4.8781,0.6794 -2.5193,-2.1443 -1.4295,-2.8966 A2.579,2.579 0 0 1 1.4295,1.3966 Z" stroke-linecap="round" fill="#4dabf7"/></g></g><g transform="matrix(1, 0, 0, 1, 742.5056, 10102.8509)" opacity="1"><g transform="scale(1)"><path d="M2.366,-0.2637 T2.5486,1.3274 2.9022,5.5357 3.483,10.7477 4.8728,15.4922 7.8511,17.6894 9.8497,17.7368 A2.5401,2.5401 0 0 1 11.0903,22.6632 T8.3431,23.2717 3.3232,21.938 0.0031,17.2937 -1.4185,11.4619 -1.9072,5.8902 -2.1939,1.8559 -2.366,0.2637 A2.3807,2.3807 0 0 1 2.366,-0.2637 Z" stroke-linecap="round" fill="#4dabf7"/></g></g><g transform="matrix(1, 0, 0, 1, 749.2377, 10111.827)" opacity="1"><g transform="scale(1)"><path d="M1.5883,1.9068 T0.534,2.8004 -2.7726,5.305 -5.9535,7.5 -6.8821,8.084 A2.4988,2.4988 0 0 1 -9.5779,3.876 T-8.6592,3.2765 -5.7338,1.2606 -2.6578,-1.0314 -1.5883,-1.9068 A2.4817,2.4817 0 0 1 1.5883,1.9068 Z" stroke-linecap="round" fill="#4dabf7"/></g></g><g transform="matrix(1, 0, 0, 1, 755.2218, 10111.079)" opacity="1"><g transform="scale(1)"><path d="M-1.4067,-2.8198 T-0.4135,-3.2764 1.5719,-1.5317 4.0808,2.0495 7.6687,1.2695 9.7401,-0.8905 A2.7683,2.7683 0 0 1 14.1999,2.3905 T13.4981,3.4342 11.0373,6.2653 6.5382,8.5823 1.912,8.1836 -1.2777,5.4405 -3.0222,1.442 -3.1332,-2.7983 -1.1993,-6.8995 3.2157,-8.1126 6.3694,-5.2732 5.19,-0.8256 2.5373,2.2169 1.4067,2.8198 A3.1512,3.1512 0 0 1 -1.4067,-2.8198 Z" stroke-linecap="round" fill="#4dabf7"/></g></g><g transform="matrix(1, 0, 0, 1, 765.6939, 10100.6068)" opacity="1"><g transform="scale(1)"><path d="M1.9605,-0.6525 T2.542,0.9218 3.9145,4.735 5.3215,8.183 5.9374,9.3921 A2.4128,2.4128 0 0 1 1.5377,11.3739 T0.8699,9.7332 -0.4012,5.9814 -1.4825,2.2615 -1.9605,0.6525 A2.0662,2.0662 0 0 1 1.9605,-0.6525 ZM1.4626,9.5793 T1.6739,9.0292 1.9997,5.8867 3.0828,0.4386 5.9479,-3.0322 9.3193,-1.9499 11.4163,2.1233 12.3735,5.6834 12.7086,6.8675 A2.3209,2.3209 0 0 1 8.2314,8.0925 T7.917,6.9027 7.4137,3.0969 7.0157,2.7698 6.7417,7.1345 6.3447,10.1984 6.0125,11.1867 A2.4128,2.4128 0 0 1 1.4626,9.5793 Z" stroke-linecap="round" fill="#4dabf7"/></g></g><g transform="matrix(1, 0, 0, 1, 778.4101, 10091.6307)" opacity="1"><g transform="scale(1)"><path d="M2.2651,-0.2271 T2.4699,1.539 3.2646,5.746 4.8549,9.1687 5.8553,10.1506 A2.5191,2.5191 0 0 1 2.5742,13.974 T0.8918,11.7931 -1.3779,6.6916 -2.1152,1.999 -2.2651,0.2271 A2.2765,2.2765 0 0 1 2.2651,-0.2271 ZM2.8268,9.96 T3.8978,9.2609 5.4087,6.1567 5.4976,1.3095 5.1465,-1.1326 A2.3622,2.3622 0 0 1 9.8135,-1.8674 T10.0394,-0.5008 10.5342,3.8818 9.6581,9.5624 7.0579,13.1958 5.6027,14.1646 A2.5191,2.5191 0 0 1 2.8268,9.96 ZM9.8371,-1.6546 T9.8283,-0.5908 11.2012,2.32 13.6627,4.5712 14.7423,4.9753 A2.5141,2.5141 0 0 1 14.8109,10.0031 T12.5449,9.3702 8.7702,6.9566 6.3207,2.6758 5.2514,-0.5849 5.1229,-1.3454 A2.3622,2.3622 0 0 1 9.8371,-1.6546 ZM12.7638,5.9828 T13.1806,5.4648 14.0607,4.3689 14.5239,3.791 A2.4183,2.4183 0 0 1 18.3961,6.689 T17.9722,7.2964 17.1689,8.4497 16.7895,8.9957 A2.5141,2.5141 0 0 1 12.7638,5.9828 Z" stroke-linecap="round" fill="#4dabf7"/></g></g><g transform="matrix(1, 0, 0, 1, 796.3623, 10078.9145)" opacity="1"><g transform="scale(1)"><path d="M2.481,0.3112 T2.3119,1.7202 4.0079,3.9189 7.6004,5.9085 9.7549,9.2968 9.2184,13.5872 5.7172,16.8687 3.1795,18.0482 A2.5199,2.5199 0 0 1 1.3005,13.3718 T2.4355,11.2093 1.1656,8.1789 -2.0458,4.9194 -2.6667,1.1083 -2.481,-0.3112 A2.5004,2.5004 0 0 1 2.481,0.3112 Z" stroke-linecap="round" fill="#4dabf7"/></g></g><g transform="matrix(1, 0, 0, 1, 705.8532, 10210.5643)" opacity="1"><g transform="scale(1)"><path d="M2.2858,0.75 T2.2954,2.519 2.3168,7.1518 2.1297,11.0752 1.9309,12.1349 A2.3389,2.3389 0 0 1 -2.6404,11.1428 T-2.4845,10.5679 -2.3168,7.1405 -2.2954,2.519 -2.2858,0.75 A2.2858,2.2858 0 0 1 2.2858,0.75 ZM1.2413,9.9291 T1.3248,10.0078 1.4083,10.0865 A2.3378,2.3378 0 0 1 -1.7822,13.5044 T-1.8665,13.4265 -1.9508,13.3485 A2.3389,2.3389 0 0 1 1.2413,9.9291 ZM-2.0248,10.3507 T-1.4741,9.6579 0.5693,7.4445 4.3297,5.2325 8.4857,5.5462 11.5566,8.7576 13.0521,11.819 13.365,12.6741 A2.2845,2.2845 0 0 1 9.075,14.2459 T8.7614,13.3911 6.9597,10.8671 4.0421,10.5997 2.1317,12.6209 1.6509,13.2403 A2.3378,2.3378 0 0 1 -2.0248,10.3507 Z" stroke-linecap="round" fill="#40c057"/></g></g><g transform="matrix(1, 0, 0, 1, 729.0415, 10217.2963)" opacity="1"><g transform="scale(1)"><path d="M0.6708,2.008 T-0.3902,2.3612 -2.8389,4.1554 -2.1812,5.3729 1.648,4.894 3.4319,4.6383 A2.3257,2.3257 0 0 1 5.3043,8.8962 T3.0827,9.3043 -1.533,9.5185 -6.026,7.7379 -7.162,3.5797 -4.4977,-0.1436 -1.7335,-1.6517 -0.6708,-2.008 A2.1171,2.1171 0 0 1 0.6708,2.008 ZM2.0436,6.6923 T2.1038,5.7999 2.2285,3.9134 2.2929,2.9191 A2.1982,2.1982 0 0 1 6.6871,3.0609 T6.6873,4.0573 6.69,5.948 6.6926,6.8423 A2.3257,2.3257 0 0 1 2.0436,6.6923 Z" stroke-linecap="round" fill="#40c057"/></g></g><g transform="matrix(1, 0, 0, 1, 749.2377, 10215.0523)" opacity="1"><g transform="scale(1)"><path d="M1.2509,1.8784 T0.2031,2.5599 -0.9842,3.544 -1.1236,3.8467 A2.2274,2.2274 0 0 1 -4.7491,1.2581 T-4.076,0.4227 -2.3268,-1.1456 -1.2509,-1.8784 A2.2568,2.2568 0 0 1 1.2509,1.8784 ZM-2.3925,0.3924 T-1.8221,0.5552 1.0705,1.4918 4.1273,4.1893 3.8561,7.9563 0.8689,10.9967 -2.7087,12.4145 -4.3048,12.6352 A2.2851,2.2851 0 0 1 -4.6487,8.0779 T-3.1512,6.6059 -2.567,4.9231 -3.4802,4.7124 A2.2274,2.2274 0 0 1 -2.3925,0.3924 ZM-6.0452,12.0184 T-6.574,11.5112 -7.6923,10.439 -8.2817,9.8741 A2.2607,2.2607 0 0 1 -5.1783,6.5859 T-4.5803,7.1417 -3.4453,8.1961 -2.9083,8.6947 A2.2851,2.2851 0 0 1 -6.0452,12.0184 Z" stroke-linecap="round" fill="#40c057"/></g></g><g transform="matrix(1, 0, 0, 1, 760.4579, 10208.3202)" opacity="1"><g transform="scale(1)"><path d="M2.4112,0.2418 T2.2398,2.0114 1.7442,6.4895 1.0741,11.6022 0.4647,15.4564 0.201,16.9064 A2.4815,2.4815 0 0 1 -4.681,16.0136 T-4.4144,14.5641 -3.7789,10.6709 -3.0939,5.7612 -2.5946,1.5267 -2.4112,-0.2418 A2.4233,2.4233 0 0 1 2.4112,0.2418 Z" stroke-linecap="round" fill="#40c057"/></g></g><g transform="matrix(1, 0, 0, 1, 765.6939, 10219.5404)" opacity="1"><g transform="scale(1)"><path d="M1.9923,0 T2.0193,2.62 2.0463,5.24 A2.0463,2.0463 0 0 1 -2.0463,5.24 T-2.0193,2.62 -1.9923,0 A1.9923,1.9923 0 0 1 1.9923,0 Z" stroke-linecap="round" fill="#40c057"/></g></g><g transform="matrix(1, 0, 0, 1, 767.938, 10205.3282)" opacity="1"><g transform="scale(1)"><path d="M 0 0 m -3.663919189857866, 0 a 3.663919189857866,3.663919189857866 0 1,1 7.327838379715732,0 a 3.663919189857866,3.663919189857866 0 1,1 -7.327838379715732,0" stroke-linecap="round" fill="#40c057"/></g></g><g transform="matrix(1, 0, 0, 1, 779.1581, 10216.5483)" opacity="1"><g transform="scale(1)"><path d="M1.2021,1.8052 T0.1396,2.5044 -2.2457,4.7129 -2.4538,5.0786 -1.3391,3.935 A2.1616,2.1616 0 0 1 2.8391,5.045 T2.3786,6.6222 -0.4272,9.5945 -5.0863,10.0289 -7.1796,6.3052 -5.1418,1.5836 -2.2634,-1.0901 -1.2021,-1.8052 A2.1688,2.1688 0 0 1 1.2021,1.8052 ZM2.9024,4.6894 T2.8258,4.8749 3.8614,7.1252 6.2663,11.3569 7.9539,15.994 7.1759,20.3783 3.7702,22.9566 -0.9864,23.3169 -5.4852,21.4091 -8.2683,18.7982 -9.0762,17.7912 A2.0784,2.0784 0 0 1 -5.8838,15.1288 T-5.0382,16.1044 -2.5119,18.2218 1.4606,18.7733 3.499,16.1012 1.8489,12.2718 -0.4988,8.3039 -1.4261,5.1872 -1.4024,4.2906 A2.1616,2.1616 0 0 1 2.9024,4.6894 Z" stroke-linecap="round" fill="#40c057"/></g></g><g transform="matrix(1, 0, 0, 1, 795.6143, 10216.5483)" opacity="1"><g transform="scale(1)"><path d="M0.8202,1.9187 T-0.3956,2.4397 -1.1522,3.0361 -0.693,3.1115 A2.0874,2.0874 0 0 1 3.1838,4.6605 T2.6879,5.7761 -0.1882,8.0523 -4.3663,8.3023 -6.365,4.9735 -4.9557,0.8568 -2.0829,-1.3802 -0.8202,-1.9187 A2.0867,2.0867 0 0 1 0.8202,1.9187 ZM3.3062,3.5539 T3.404,4.2137 3.9119,6.8575 5.0021,10.7288 6.3371,14.7207 6.8825,19.0535 5.332,23.3193 1.5197,26.0406 -2.8951,26.2748 -6.8841,24.2549 -9.6602,21.7947 -10.491,20.9049 A2.0976,2.0976 0 0 1 -7.469,17.9951 T-5.5119,19.8385 -1.5141,21.9183 1.7495,20.4933 2.4422,16.6074 1.1738,12.3176 -0.1037,7.7164 -0.7293,4.6994 -0.8154,4.2181 A2.0874,2.0874 0 0 1 3.3062,3.5539 Z" stroke-linecap="round" fill="#40c057"/></g></g><g transform="matrix(1, 0, 0, 1, 800.1024, 10221.7844)" opacity="1"><g transform="scale(1)"><path d="M-0.2887,-2.3021 T1.1232,-2.4791 3.1848,-0.504 6.2079,1.7696 10.6035,1.0669 12.6256,0.2426 A2.1647,2.1647 0 0 1 14.2944,4.2374 T11.8239,5.2899 6.7707,6.412 2.3112,5.3212 0.126,1.0775 1.1616,-4.079 4.917,-6.5474 8.253,-4.9985 8.0464,-1.3233 5.0187,1.1773 1.7054,2.1243 0.2887,2.3021 A2.3201,2.3201 0 0 1 -0.2887,-2.3021 Z" stroke-linecap="round" fill="#40c057"/></g></g><g transform="matrix(1, 0, 0, 1, 814.3146, 10218.7924)" opacity="1"><g transform="scale(1)"><path d="M2.1273,0 T2.1391,1.413 2.3302,4.0081 2.5096,5.1902 A2.1741,2.1741 0 0 1 -1.8001,5.7671 T-1.9755,4.2991 -2.1391,1.4155 -2.1273,0 A2.1273,2.1273 0 0 1 2.1273,0 ZM-0.5338,3.4944 T-0.1123,3.3278 1.899,1.6525 6.0285,-0.9403 9.7032,-0.1792 10.9398,3.8552 11.0779,7.4879 11.1143,8.9315 A2.1349,2.1349 0 0 1 6.8457,9.0285 T6.6296,6.1527 4.5841,5.0094 1.999,7.1023 1.2433,7.4629 A2.1741,2.1741 0 0 1 -0.5338,3.4944 Z" stroke-linecap="round" fill="#40c057"/></g></g><g transform="matrix(1, 0, 0, 1, 833.7628, 10216.5483)" opacity="1"><g transform="scale(1)"><path d="M-0.2884,2.2111 T-0.5947,2.0861 -1.4129,4.4018 0.7607,6.0241 4.425,2.9238 5.5137,-1.575 4.9051,-4.7151 4.1871,-5.6383 A2.0823,2.0823 0 0 1 6.3758,-9.1814 T8.1553,-6.8414 10.019,-2.4397 9.5641,1.925 7.871,6.352 4.9003,10.1234 0.9185,12.0598 -3.082,11.467 -5.6467,8.4238 -5.7957,3.7349 -3.5905,-0.5639 -0.8387,-2.2731 0.2884,-2.2111 A2.2299,2.2299 0 0 1 -0.2884,2.2111 ZM7.2901,-6.861 T7.0185,-5.9476 6.9433,-2.7967 7.5249,2.473 8.6914,7.6243 9.4726,9.7433 A2.121,2.121 0 0 1 5.4874,11.1967 T5.0186,9.9505 3.9918,6.2728 3.211,1.8372 2.8304,-2.884 2.9728,-6.7799 3.2728,-7.9586 A2.0823,2.0823 0 0 1 7.2901,-6.861 Z" stroke-linecap="round" fill="#40c057"/></g></g><g transform="matrix(1, 0, 0, 1, 846.479, 10221.0364)" opacity="1"><g transform="scale(1)"><path d="M-0.6299,-2.5113 T0.7786,-2.831 2.9324,-4.061 3.6776,-4.9714 A2.4575,2.4575 0 0 1 7.9308,-2.5079 T5.7003,-0.3881 2.0499,2.1215 0.6299,2.5113 A2.5891,2.5891 0 0 1 -0.6299,-2.5113 ZM3.84,-2.2627 T3.7093,-2.4422 3.5786,-2.6217 A2.4507,2.4507 0 0 1 7.4961,-5.5674 T7.6323,-5.392 7.7684,-5.2166 A2.4575,2.4575 0 0 1 3.84,-2.2627 ZM6.2507,-1.75 T5.3265,-1.4876 6.1541,0.1592 9.9799,0.1836 12.0539,-1.1765 A2.385,2.385 0 0 1 14.8661,2.6765 T12.6778,4.2777 8.2316,6.3248 3.9293,6.357 0.2047,3.4744 -0.8527,-1.0059 1.2136,-4.3797 3.7405,-6.0906 4.824,-6.4391 A2.4507,2.4507 0 0 1 6.2507,-1.75 Z" stroke-linecap="round" fill="#40c057"/></g></g><g transform="matrix(1, 0, 0, 1, 718.5693, 10199.3441)" opacity="1"><g transform="scale(1)"><path d="M-2.22,-0.5569 T-1.8839,-1.9752 -1.3168,-5.5277 -1.4017,-10.0819 -3.138,-14.338 -6.3585,-19.1374 -8.5613,-23.4096 -8.964,-24.7186 A2.3445,2.3445 0 0 1 -4.496,-26.1414 T-4.0676,-24.8406 -2.468,-21.6397 0.3278,-18.1225 2.7117,-14.3055 3.559,-9.6564 3.3067,-4.7355 2.5934,-0.8534 2.22,0.5569 A2.2888,2.2888 0 0 1 -2.22,-0.5569 Z" stroke-linecap="round" fill="#f2f2f2"/></g></g><g transform="matrix(1, 0, 0, 1, 730.5375, 10171.6677)" opacity="1"><g transform="scale(1)"><path d="M2.1855,0.1825 T2.0322,2.3089 1.4856,7.0867 1.5495,11.9075 3.2248,13.2932 4.4428,12.5097 A2.2922,2.2922 0 0 1 7.5172,15.9103 T5.6814,17.406 1.5856,18.3387 -2.0097,15.7208 -3.4006,11.4152 -3.0223,6.6121 -2.387,1.9387 -2.1855,-0.1825 A2.1931,2.1931 0 0 1 2.1855,0.1825 Z" stroke-linecap="round" fill="#f2f2f2"/></g></g><g transform="matrix(1, 0, 0, 1, 733.5295, 10179.1478)" opacity="1"><g transform="scale(1)"><path d="M0.6699,2.3402 T-1.974,3.0065 -4.618,3.6729 A2.2601,2.2601 0 0 1 -5.862,-0.6729 T-3.266,-1.5065 -0.6699,-2.3402 A2.4342,2.4342 0 0 1 0.6699,2.3402 Z" stroke-linecap="round" fill="#f2f2f2"/></g></g><g transform="matrix(1, 0, 0, 1, 711.0892, 10176.1558)" opacity="1"><g transform="scale(1)"><path d="M2.1729,1.1134 T1.8041,3.2324 1.0275,7.713 0.6195,10.0744 A2.149,2.149 0 0 1 -3.6195,9.3656 T-3.237,6.9998 -2.5136,2.5104 -2.1729,0.3866 A2.203,2.203 0 0 1 2.1729,1.1134 Z" stroke-linecap="round" fill="#f2f2f2"/></g></g><g transform="matrix(1, 0, 0, 1, 711.8372, 10174.6598)" opacity="1"><g transform="scale(1)"><path d="M1.1243,-1.6883 T2.2068,-1.0138 5.7759,0.7393 8.2625,1.8178 A2.0753,2.0753 0 0 1 6.6975,5.6622 T5.6677,5.2625 2.7981,4.0153 -0.083,2.428 -1.1243,1.6883 A2.0284,2.0284 0 0 1 1.1243,-1.6883 Z" stroke-linecap="round" fill="#f2f2f2"/></g></g></svg>