<svg xmlns="http://www.w3.org/2000/svg" direction="ltr" width="729.9761411825225" height="515.7621650237616" viewBox="1366.0617348628725 14479.999489824371 729.9761411825225 515.7621650237616" stroke-linecap="round" stroke-linejoin="round" style="background-color: transparent;"><defs/><g transform="matrix(1, 0, 0, 1, 1560.6142, 14558.8617)" opacity="1"><g transform="scale(1)"><path d="M0.99,0 Q0.99,2.695 0.99,3.8771 T0.99,7.7248 0.99,12.9621 0.99,17.382 0.99,20.9105 0.99,24.1775 0.99,27.3023 0.99,30.3519 0.7643,32.9092 0.4158,35.1987 0.2262,37.5682 0.123,39.7555 0.0669,41.6181 0.0364,43.3039 0.0198,45.1193 0.0108,47.0052 0.0059,49.1551 0.2289,51.6722 0.576,53.9398 0.7648,56.074 0.8675,58.5824 0.9233,60.8454 0.9537,62.9747 0.9703,65.2548 0.9793,67.1701 0.9842,69.1103 0.9868,71.5133 0.9883,73.9446 0.9891,76.1655 0.9895,78.272 0.9897,80.3162 0.9898,82.3266 0.9899,84.3186 0.99,86.5263 0.99,88.8513 0.99,90.7887 0.99,92.5153 0.99,94.3528 0.99,96.2508 0.99,98.1816 0.99,100.1303 0.99,102.0887 0.99,104.0524 0.99,106.0189 0.99,107.9871 0.99,109.956 0.99,111.702 0.7643,113.3268 0.4158,115.3346 0.2262,117.551 0.123,119.655 0.0669,121.6979 0.0364,123.7075 0.0198,125.6991 0.0108,127.6808 0.0059,129.4315 0.0032,131.0564 0.0017,132.6153 0.2267,134.1382 0.5747,135.6393 0.7641,137.3542 0.8671,139.4111 0.9231,141.2027 0.9536,142.8499 0.9702,144.6443 0.9792,146.5211 0.9841,148.4426 0.9868,150.3863 0.9883,152.3419 0.9891,154.0784 0.9895,155.6957 0.9897,157.4738 0.9898,159.3394 0.9899,161.4783 0.99,163.5402 0.7643,165.3345 0.4158,167.2089 0.2262,169.1269 0.123,171.2943 0.0669,173.5974 0.0364,175.5252 0.0198,177.2488 -0.2149,179.0847 -0.5684,180.9818 -0.7606,182.9121 -0.8652,184.8606 -0.9221,186.8188 -0.9531,188.7824 -0.9699,190.5232 -0.9791,191.9194 -1.2075,193.3538 -1.5552,194.8067 -1.7443,196.4954 -1.8472,198.5381 -1.9032,200.5476 -1.9337,202.5392 -1.9502,204.7466 -1.9592,207.0715 -1.9642,209.2345 -1.9668,211.3095 -1.9683,213.3367 -1.9691,215.3377 -1.9695,217.3247 -1.9697,219.3039 -1.9698,221.2789 -1.9699,223.2516 -1.97,224.9973 -1.7465,226.6196 -1.4016,228.4005 -1.2139,230.2676 -1.1118,232.1816 -1.0563,234.1234 -1.026,236.0804 -1.0096,237.8176 -0.7749,239.4352 -0.4216,240.9901 -0.2293,242.7342 -0.1248,244.8048 -0.0679,246.6061 -0.0369,248.4843 -0.0201,250.6278 -0.0109,252.6922 -0.0059,254.7136 -0.0032,256.7115 -0.0018,258.9224 -0.001,261.2492 -0.0005,263.639 -0.0003,266.0631 -0.0002,268.0544 0.2256,269.8103 0.5742,271.6638 0.7638,273.5704 0.8669,275.5059 0.9231,277.4572 0.9536,279.1936 0.7445,281.0365 0.405,283.1608 0.2203,285.4404 0.1199,288.028 0.0652,290.334 0.0355,292.4891 0.0193,294.7854 0.0105,296.933 0.0057,298.9996 0.0031,301.0221 0.0017,303.0207 0.0009,305.0063 0.0005,307.2082 0.0003,309.5278 0.0001,311.6879 0.0001,313.7614 0,315.5642 0,317.2199 0,319.0188 0,320.8958 0,322.5895 -0.2257,324.1857 -0.5742,325.9547 -0.7638,327.8153 -0.867,329.7258 -0.9231,331.6634 -0.9536,333.6158 -0.9702,335.5763 -0.9792,337.541 -0.9841,339.5082 -0.7611,341.2509 -0.414,342.8716 -0.2252,344.6515 -0.1225,346.5182 -0.0667,348.4319 -0.0363,350.3713 -0.0197,352.327 -0.0107,354.0657 -0.0058,355.6842 -0.0032,357.463 -0.0017,359.3289 -0.0009,361.2423 -0.0005,363.1816 -0.0003,365.1348 -0.0002,367.0957 -0.0001,369.0607 0,371.028 0,372.9966 0.2257,374.9658 0.5742,376.9353 0.7638,378.6817 0.867,380.3065 0.9231,382.0888 0.9536,383.9567 0.9702,385.8711 0.9792,387.8109 0.9841,389.7644 0.9868,391.7255 0.9883,393.6906 0.9891,395.658 0.9895,397.6265 0.9897,399.5958 0.9898,401.5653 0.9899,403.7251 L0.99,404.9 " stroke-linecap="round" fill="none" stroke="#9398b0" stroke-width="4.5" stroke-dasharray="none" stroke-dashoffset="0"/></g></g><g transform="matrix(1, 0, 0, 1, 1398.0617, 14760.8208)" opacity="1"><g transform="scale(1)"><path d="M0,0 Q2.695,0.4514 4.552,0.5742 T7.6428,0.7638 9.9968,0.867 11.9522,0.9231 13.6908,0.9536 15.3093,0.9702 16.8623,0.9792 18.382,0.9841 19.8836,0.9868 21.5988,0.9883 23.2045,0.9891 24.5271,0.9895 25.6958,1.2132 27.0041,1.5583 28.3908,1.746 29.5965,1.8482 30.7016,2.1294 31.752,2.5082 32.9982,2.7142 34.3488,2.8263 35.7561,2.8873 37.1966,2.9204 38.655,2.9385 40.1211,2.9483 41.3677,2.9536 42.4951,2.7308 43.781,2.3839 45.3788,2.1952 46.9229,2.0925 48.4378,2.0366 49.9345,2.0062 51.4213,1.9897 52.905,1.9807 54.1613,1.9758 55.2938,1.7497 56.3591,1.4033 57.6135,1.2148 58.9708,1.1123 60.3818,1.0565 61.8242,1.0262 63.058,0.784 64.4019,0.4265 65.8078,0.232 67.2475,0.1262 68.7033,0.0687 70.1678,0.0374 71.6394,0.0203 73.1148,0.0111 74.5901,0.006 76.0652,0.0033 77.9917,0.0018 80.1638,0.001 82.2437,0.0005 84.4969,0.0003 86.621,0.0002 88.2279,0.0001 89.777,-0.2257 91.518,-0.5742 93.1377,-0.7638 94.6914,-0.867 96.2115,-0.9231 97.7134,-0.9536 99.4287,-0.9702 101.2601,-0.9792 102.929,-0.9841 104.5095,-0.9868 106.4933,-1.2117 108.4709,-1.5575 110.2192,-1.7456 111.8452,-1.8479 113.1789,-1.9036 114.5771,-1.9339 116.2382,-1.9503 118.0425,-1.9593 119.9224,-1.9642 121.6176,-1.9668 122.989,-1.9683 124.4099,-1.9691 125.8555,-1.9695 127.3144,-1.9697 129.0065,-1.9698 131.051,-1.9699 133.5106,-1.97 135.747,-1.97 137.8619,-1.97 139.9108,-1.97 141.7002,-1.97 143.3463,-1.97 144.6909,-1.97 146.0972,-1.97 147.5372,-1.97 148.9954,-1.97 150.4613,-1.97 151.9313,-1.97 153.4059,-1.97 154.8829,-1.97 156.359,-1.97 157.8346,-1.97 159.3122,-1.97 160.7909,-1.97 162.2679,-1.97 163.5206,-1.97 164.8769,-1.97 166.2874,-1.97 167.7272,-1.97 169.1854,-1.97 170.6536,-1.97 172.3505,-1.97 173.9463,-1.97 175.7127,-1.97 178.0234,-1.97 180.4044,-1.97 182.5981,-1.7466 184.464,-1.4016 186.1516,-1.2139 187.9681,-1.1118 189.6311,-1.0563 191.2106,-1.026 192.9682,-1.0096 194.8227,-1.0007 196.7298,-0.9958 198.6656,-0.9932 200.617,-0.9917 202.5769,-0.9909 204.5414,-0.9905 206.285,-0.9903 207.9083,-0.9902 209.6898,-0.9901 211.7806,-0.99 214.0398,-0.99 216.1671,-0.99 218.2227,-0.99 220.2393,-0.99 222.2346,-0.99 224.4441,-0.99 226.9936,-0.99 229.2788,-0.99 231.1968,-0.99 233.1385,-0.99 235.0932,-0.99 237.0548,-0.99 239.0203,-0.99 240.7643,-0.99 242.388,-0.99 243.9439,-0.99 245.4629,-0.99 246.9641,-0.99 248.4556,-0.99 250.3888,-0.99 252.5622,-0.99 254.6428,-0.99 256.4496,-0.99 258.1073,-0.99 259.9075,-0.99 261.5593,-0.99 263.1306,-0.99 264.6602,-0.99 266.1672,-0.99 267.6619,-0.99 269.3733,-0.99 271.4261,-0.99 273.6668,-0.99 276.0098,-0.99 278.1827,-0.99 280.0374,-0.99 281.719,-0.99 283.532,-0.99 285.1932,-1.2134 286.9952,-1.5584 289.323,-1.7461 291.7134,-1.8482 293.912,-1.9037 295.783,-1.934 297.4757,-1.9504 299.0691,-2.1851 300.6085,-2.5384 302.1208,-2.7307 303.6184,-2.8352 305.5549,-2.8921 307.9558,-2.9231 310.6093,-2.9399 313.1746,-2.7234 315.245,-2.3798 317.0462,-2.1929 318.6987,-2.0913 320.2702,-2.036 322.0234,-2.0059 324.1012,-1.9895 326.1321,-1.9806 327.9118,-1.9758 330.0018,-1.9731 332.037,-1.9717 333.5933,-1.9709 335.1126,-1.9705 336.6139,-1.9703 338.1055,-1.9701 339.5896,-1.9701 341.0695,-1.97 342.9986,-1.97 344.9464,-1.97 346.6785,-1.97 348.7449,-2.1957 350.7673,-2.5442 352.3166,-2.7338 353.8344,-2.837 355.3349,-2.8931 356.8261,-3.147 358.3099,-3.5086 360.0154,-3.7053 362.2917,-3.8573 L363.53,-3.94 " stroke-linecap="round" fill="none" stroke="#9398b0" stroke-width="4.5" stroke-dasharray="none" stroke-dashoffset="0"/></g></g><g transform="matrix(1, 0, 0, 1, 1673.9084, 14584.476)" opacity="1"><g transform="scale(1)"><path d="M0,0 Q-1.3498,-1.7966 -1.042,-2.7345 T-0.3411,-4.1825 0.4893,-4.5211 1.1645,-3.807 1.5318,-2.5201 1.5082,-1.1452 0.8205,-0.1716 -0.2286,0.1324 -1.0227,-0.3771 -1.2312,-1.3292 -0.8955,-2.0728 -0.038,-2.4774 0.8777,-2.4717 1.3758,-1.7938 1.7606,-0.632 L1.97,0 " stroke-linecap="round" fill="none" stroke="#f2f2f2" stroke-width="4.5" stroke-dasharray="none" stroke-dashoffset="0"/></g></g><g transform="matrix(1, 0, 0, 1, 1559.6291, 14760.8208)" opacity="1"><g transform="scale(1)"><path d="M0.99,0 Q1.8883,-2.2481 2.3561,-3.3087 T4.875,-7.4156 8.2676,-12.5681 10.7881,-16.2694 12.8319,-19.407 14.6162,-22.2378 16.2618,-24.6761 17.8319,-27.1266 19.5844,-29.8072 21.2103,-32.3871 22.7674,-34.9147 24.5128,-37.4137 26.3606,-39.8949 28.2664,-42.3665 29.978,-44.835 31.5818,-47.302 33.3525,-49.5423 35.2141,-51.6594 36.9017,-53.7094 38.2689,-55.7229 39.6853,-57.7166 41.1307,-59.6995 42.3661,-61.453 43.4874,-63.3053 44.7722,-65.4347 46.1438,-67.4914 47.339,-69.5086 48.4384,-71.2808 49.4857,-72.9197 50.5045,-74.7097 51.5079,-76.356 52.503,-77.9242 53.7169,-79.6756 55.0521,-81.5267 56.2276,-83.432 57.3163,-85.3668 58.3599,-87.3199 59.3768,-89.283 60.3792,-91.2493 61.3736,-93.2173 62.3638,-95.1861 63.3516,-97.1555 64.3381,-99.1252 65.3239,-100.8693 66.3094,-102.4907 67.2946,-104.2711 68.2798,-106.1379 69.0414,-108.0518 69.6792,-109.7678 70.4753,-111.3762 71.3575,-113.1495 72.2866,-115.0125 73.2412,-116.7008 73.9839,-118.2942 74.6137,-120.0593 75.4055,-121.6921 76.2853,-123.0295 77.2131,-124.6554 78.167,-126.6616 79.1351,-128.4279 80.1109,-129.8379 81.0909,-131.5032 82.0732,-133.3075 83.0567,-134.9617 84.0409,-136.5364 85.0254,-138.0679 86.0102,-139.7994 86.9951,-141.4139 87.98,-142.9648 88.9672,-144.4834 89.9535,-145.7586 90.9391,-147.1273 91.9245,-148.7724 92.9097,-150.3399 93.8948,-151.6418 94.8798,-152.7992 95.8649,-154.1015 96.8499,-155.259 97.6115,-156.1145 98.2492,-157.029 99.0453,-158.1991 99.9275,-159.5105 100.8566,-160.8988 101.8112,-162.3266 102.7796,-163.776 103.7556,-165.2393 104.7358,-166.4845 105.7181,-167.8345 106.7016,-169.2438 107.6859,-170.6853 108.6704,-172.3678 109.6552,-173.9557 110.6401,-175.4944 111.7216,-177.3244 L112.31,-178.32 " stroke-linecap="round" fill="none" stroke="#f2f2f2" stroke-width="4.5" stroke-dasharray="none" stroke-dashoffset="0"/></g></g><g transform="matrix(1, 0, 0, 1, 1592.1396, 14650.4822)" opacity="1"><g transform="scale(1)"><path d="M0,0.99 Q1.3498,3.2335 1.9403,4.0695 T3.3013,5.5836 4.4909,6.4073 4.9146,6.1828 4.6959,5.1624 4.1278,3.7089 3.3695,2.0177 2.5079,0.197 1.59,-1.6917 0.865,-3.6176 0.6963,-5.1143 1.2794,-6.152 2.2692,-7.1657 3.4802,-8.1663 4.8139,-9.1598 5.9886,-10.1494 7.526,-11.3604 9.6724,-12.934 L10.84,-13.79 " stroke-linecap="round" fill="none" stroke="#40c057" stroke-width="4.5" stroke-dasharray="none" stroke-dashoffset="0"/></g></g><g transform="matrix(1, 0, 0, 1, 1602.9764, 14756.8801)" opacity="1"><g transform="scale(1)"><path d="M0,0 Q0.8983,-2.695 1.1427,-3.8771 T1.2965,-5.9282 1.1567,-7.7188 0.1801,-11.1621 -1.4752,-15.7303 -2.8249,-19.3394 -4.234,-21.9754 -5.6731,-24.0819 -7.1286,-25.9028 -8.5953,-27.3425 -9.8423,-28.5748 -10.9699,-29.4709 -12.2581,-29.9584 -13.6315,-30.2236 -15.0513,-30.3679 -16.7219,-30.4464 -18.6507,-30.507 L-19.7,-30.54 " stroke-linecap="round" fill="none" stroke="#40c057" stroke-width="4.5" stroke-dasharray="none" stroke-dashoffset="0"/></g></g><g transform="matrix(1, 0, 0, 1, 1621.6946, 14715.5031)" opacity="1"><g transform="scale(1)"><path d="M-0.8983,-0.4492 Q-1.7966,-0.8983 -2.511,-0.6935 T-4.0632,-0.1515 -5.5802,0.8182 -7.3038,3.8149 -8.9163,8.1401 -9.7935,11.6171 -10.045,14.1811 -9.7326,16.0251 -9.1136,17.4774 -7.8785,18.4909 -5.8591,19.0423 -3.6365,19.3422 -1.5291,19.2819 0.5157,18.8 2.5263,18.0886 4.295,17.2525 5.932,16.3485 7.4952,15.1841 8.569,13.6523 9.3788,12.1442 10.0451,10.6489 10.1819,8.9371 10.0305,7.1076 9.7248,5.4397 9.1093,3.8598 8.3253,2.3255 7.0005,1.0393 5.1557,0.114 3.0924,-0.601 0.985,-0.495 -0.8983,-0.4492 Z" stroke-linecap="round" fill="none" stroke="#40c057" stroke-width="4.5" stroke-dasharray="none" stroke-dashoffset="0"/></g></g><g transform="matrix(1, 0, 0, 1, 1626.6204, 14722.3993)" opacity="1"><g transform="scale(1)"><path d="M0,0 Q-3.1464,0.8983 -4.2257,1.3684 T-6.3412,2.3176 -8.1669,3.2831 -9.6093,4.0341 -11.0665,4.6661 -12.8304,5.4717 L-13.79,5.91 " stroke-linecap="round" fill="none" stroke="#40c057" stroke-width="4.5" stroke-dasharray="none" stroke-dashoffset="0"/></g></g><g transform="matrix(1, 0, 0, 1, 1673.9084, 14582.5057)" opacity="1"><g transform="scale(1)"><path d="M0,0 Q0.8983,1.3498 0.4678,1.9403 T-0.4204,2.6287 -1.127,2.3306 -1.5114,1.2679 -1.7205,-0.2109 -1.3851,-1.4645 -0.3044,-2.1464 0.9585,-2.2917 2.0946,-1.9216 2.9361,-1.0453 3.1704,-0.1172 2.6253,0.6111 1.4282,1.2308 0.102,1.3444 -1.0685,0.9571 -1.931,0.0715 -2.4002,-1.0851 -2.4298,-2.1635 -1.771,-2.9736 -0.5142,-3.4143 0.8443,-3.4306 2.0325,-2.9903 2.9023,-2.0759 3.1521,-0.9036 2.8388,0.1833 2.2192,1.2238 0.9838,2.0155 -0.9293,2.6272 L-1.97,2.96 " stroke-linecap="round" fill="none" stroke="#9398b0" stroke-width="4.5" stroke-dasharray="none" stroke-dashoffset="0"/></g></g><g transform="matrix(1, 0, 0, 1, 1674.8936, 14584.476)" opacity="1"><g transform="scale(1)"><path d="M0,0 Q0,3.1464 -0.2257,5.7989 T-0.5742,10.3434 -0.7638,13.714 -0.867,16.6693 -0.9231,19.3988 -1.177,21.7819 -1.5386,23.9767 -1.7353,26.2947 -1.8423,28.6797 -1.9006,30.8755 -1.9322,32.9683 -1.9494,35.0051 -1.9588,37.0115 -2.1896,39.227 -2.5409,41.5562 -2.732,43.7217 -2.836,46.0214 -2.8925,48.3943 -3.1467,50.36 -3.5085,52.3276 -3.7052,54.7455 -3.8123,57.4106 -3.8705,59.7587 -3.9022,61.9344 -3.9194,64.242 -3.9288,66.3957 -4.1596,68.2399 -4.5109,70.1415 -4.702,72.3 -4.806,74.5959 -4.8625,76.9667 -4.8933,78.9313 -4.91,80.6749 -4.9191,82.296 -4.9241,83.8505 -5.1502,85.5945 -5.4967,87.4438 -5.6852,89.5739 -5.7877,91.8544 -5.8435,93.9933 -5.8738,96.0552 -5.8903,98.0752 -5.8993,100.2981 -6.1299,102.6314 -6.4811,105.0225 -6.6721,107.445 -6.776,109.8869 -6.8326,112.3393 -6.8633,114.346 -6.88,116.336 -6.8891,118.5426 -6.8941,120.6413 -6.8968,122.6813 -6.8983,124.4659 -7.1225,126.1117 -7.4679,127.9053 -7.6558,129.7793 -7.758,131.6971 -7.8137,133.6387 -7.8439,135.8167 -7.8604,138.1233 -7.8693,140.0529 -7.8742,141.7776 -7.8768,143.6141 -7.8783,145.5115 -7.8791,147.442 -7.8795,149.3905 -7.8797,151.3488 -7.8798,153.3124 -7.8799,155.279 -7.88,157.2471 -7.88,159.216 -7.88,161.1855 -7.88,163.1552 -7.88,164.9016 -7.88,166.5265 -7.88,168.3088 -7.88,170.1767 -7.88,172.3145 -7.88,174.9217 L-7.88,176.34 " stroke-linecap="round" fill="none" stroke="#9398b0" stroke-width="4.5" stroke-dasharray="0.1 9" stroke-dashoffset="0"/></g></g><g transform="matrix(1, 0, 0, 1, 1561.5994, 14762.7911)" opacity="1"><g transform="scale(1)"><path d="M0,0 Q2.695,0.4514 3.6537,0.7977 T5.5832,1.3323 7.3054,1.6231 8.9149,2.007 10.9145,2.4416 12.9006,2.678 14.4302,2.8066 15.9372,2.8765 17.4296,2.9146 18.9141,2.9353 20.8456,2.9466 22.7948,2.9527 24.5277,2.956 26.1453,2.9578 27.7001,2.9588 29.2208,2.9594 30.9464,2.9597 33.0069,2.9598 34.8027,2.9599 36.2287,2.9599 37.6771,2.96 39.1399,2.96 40.3848,2.96 41.7347,2.96 43.1439,2.96 44.5853,2.96 46.2678,2.96 47.8557,2.96 49.3921,2.96 50.9028,2.96 52.3995,2.96 53.8863,2.7343 55.1443,2.3858 56.5035,2.1962 57.9178,2.093 59.362,2.0369 60.8203,2.0064 62.0628,1.9898 63.1878,1.7573 64.249,1.4074 65.5012,1.2171 66.855,1.1135 68.264,1.0572 69.7054,1.0266 71.1644,1.0099 72.6307,1.0008 73.8776,0.7702 75.2307,0.419 76.6394,0.2279 78.0784,0.124 79.536,0.0674 81.0039,0.0367 82.475,0.02 83.9479,0.0109 85.424,0.0059 86.9019,0.0032 88.3808,0.0017 89.8601,0.001 91.3375,0.0005 92.5904,0.226 93.9468,0.5744 95.3573,0.9873 96.7972,1.4354 98.2554,1.6792 99.7235,1.8118 101.1948,1.8839 102.6678,1.9232 104.1439,1.9445 105.8453,1.7327 108.1152,1.2517 L109.35,0.99 " stroke-linecap="round" fill="none" stroke="#9398b0" stroke-width="4.5" stroke-dasharray="0.1 9" stroke-dashoffset="0"/></g></g><g transform="matrix(1, 0, 0, 1, 1691.6414, 14662.3042)" opacity="1"><g transform="scale(1)"><path d="M0,0 Q0,4.0447 0.2257,5.3683 T0.5742,7.6377 0.7638,8.6488 0.867,8.3005 0.9231,7.2127 0.9536,5.4969 0.9702,3.2138 0.9792,0.8477 0.9841,-1.3378 1.2103,-2.9758 2.0059,-3.6412 3.1135,-3.7775 4.391,-3.6281 5.7585,-3.3235 7.1751,-3.1577 8.844,-3.0676 10.6502,-3.0185 12.5311,-2.9918 14.4526,-2.9773 16.5753,-2.9661 L17.73,-2.96 " stroke-linecap="round" fill="none" stroke="#f2f2f2" stroke-width="4.5" stroke-dasharray="none" stroke-dashoffset="0"/></g></g><g transform="matrix(1, 0, 0, 1, 1719.2261, 14663.2893)" opacity="1"><g transform="scale(1)"><path d="M 0 0 m -0.5, 0 a 0.5,0.5 0 1,0 1,0 a 0.5,0.5 0 1,0 -1,0" stroke-linecap="round" fill="#f2f2f2" stroke="#f2f2f2" stroke-width="4.5" stroke-dasharray="none" stroke-dashoffset="0"/></g></g><g transform="matrix(1, 0, 0, 1, 1746.8107, 14655.408)" opacity="1"><g transform="scale(1)"><path d="M0,0 Q-3.1464,0 -4.2257,0.2257 T-6.3412,1.0234 -8.8395,3.7031 -11.0969,7.181 -12.1015,9.5221 -11.9754,11.2448 -11.232,12.6311 -10.1526,13.8345 -8.4437,14.7125 -6.3923,15.1902 -4.378,15.45 -2.3816,15.5914 -0.1979,15.7006 L0.99,15.76 " stroke-linecap="round" fill="none" stroke="#f2f2f2" stroke-width="4.5" stroke-dasharray="none" stroke-dashoffset="0"/></g></g><g transform="matrix(1, 0, 0, 1, 1763.5586, 14662.3042)" opacity="1"><g transform="scale(1)"><path d="M-0.6749,-0.6749 Q-1.3498,-1.3498 -1.9403,-1.4912 T-3.0779,-1.7095 -5.0442,-0.0317 -7.0122,3.1269 -6.2862,5.9692 -3.6431,8.1903 -1.0813,9.3986 1.4342,9.8301 3.9243,9.6158 6.1773,8.8265 8.0777,7.4989 9.3373,5.6526 10.0226,3.5242 10.1696,1.9171 9.5747,0.8172 8.3528,-0.0069 6.7707,-0.6436 2.955,-0.495 -0.6749,-0.6749 Z" stroke-linecap="round" fill="none" stroke="#f2f2f2" stroke-width="4.5" stroke-dasharray="none" stroke-dashoffset="0"/></g></g><g transform="matrix(1, 0, 0, 1, 1795.0839, 14655.408)" opacity="1"><g transform="scale(1)"><path d="M0,0 Q-1.7966,1.7966 -2.511,2.2853 T-3.8375,3.2656 -5.0083,4.248 -5.4218,5.455 -4.7484,6.5608 -3.7071,7.3881 -2.4658,8.0638 -0.8923,8.6549 0.6387,9.4256 1.9206,10.0706 3.0672,10.8706 3.9166,12.2041 4.153,13.3787 3.8324,14.2411 2.9854,14.9337 1.8498,15.5362 0.5571,16.0897 -1.0444,16.3908 -2.5905,16.5546 -4.1065,16.6437 -6.2786,16.243 -9.2329,15.2955 L-10.84,14.78 " stroke-linecap="round" fill="none" stroke="#f2f2f2" stroke-width="4.5" stroke-dasharray="none" stroke-dashoffset="0"/></g></g><g transform="matrix(1, 0, 0, 1, 1824.6389, 14656.3932)" opacity="1"><g transform="scale(1)"><path d="M-1.7966,0 Q-3.5933,0 -4.7964,0.4492 T-7.1031,1.3684 -9.0306,2.5433 -10.5283,3.8551 -11.5687,5.2413 -12.1348,6.8937 -12.2169,8.4675 -9.341,10.222 -4.4066,11.849 -0.3748,12.7341 3.1659,12.9921 6.2161,12.6834 8.5481,12.0662 10.2658,11.2813 11.4259,10.1795 12.0571,8.6818 12.4004,6.9687 12.5872,5.1384 12.4631,3.4702 11.7207,1.8878 10.4185,0.3521 8.8118,-0.9325 7.0394,-1.857 5.1769,-2.36 3.0999,-2.7486 0.985,-1.48 -1.7966,0 Z" stroke-linecap="round" fill="none" stroke="#f2f2f2" stroke-width="4.5" stroke-dasharray="none" stroke-dashoffset="0"/></g></g><g transform="matrix(1, 0, 0, 1, 1833.5054, 14662.3042)" opacity="1"><g transform="scale(1)"><path d="M0,0 Q-2.695,0 -3.8771,0 T-6.1516,0 -8.513,0 -11.296,0 L-12.81,0 " stroke-linecap="round" fill="none" stroke="#f2f2f2" stroke-width="4.5" stroke-dasharray="none" stroke-dashoffset="0"/></g></g><g transform="matrix(1, 0, 0, 1, 1601.0061, 14785.45)" opacity="1"><g transform="scale(1)"><path d="M0,0 Q0,4.943 0.2257,6.9601 T0.5742,10.5237 0.7638,13.1372 0.867,12.988 0.9231,10.661 0.9536,8.4968 0.9702,6.1955 0.9792,3.8195 0.9841,2.0778 1.2103,1.1303 2.0059,0.8406 3.1135,1.1322 4.391,1.5142 5.7585,1.7221 7.1751,1.8351 9.5189,1.6732 12.3671,1.3617 15.2058,1.1209 L16.75,0.99 " stroke-linecap="round" fill="none" stroke="#f2f2f2" stroke-width="4.5" stroke-dasharray="none" stroke-dashoffset="0"/></g></g><g transform="matrix(1, 0, 0, 1, 1627.6056, 14791.361)" opacity="1"><g transform="scale(1)"><path d="M 0 0 m -0.5, 0 a 0.5,0.5 0 1,0 1,0 a 0.5,0.5 0 1,0 -1,0" stroke-linecap="round" fill="#f2f2f2" stroke="#f2f2f2" stroke-width="4.5" stroke-dasharray="none" stroke-dashoffset="0"/></g></g><g transform="matrix(1, 0, 0, 1, 1653.2199, 14782.4945)" opacity="1"><g transform="scale(1)"><path d="M0,0 Q-4.0447,2.2481 -5.1449,3.3087 T-6.6178,4.9463 -5.8459,6.2864 -3.855,7.6879 -2.0971,8.8996 -0.6894,10.2336 0.0764,11.6319 0.2673,13.0651 -0.5295,14.5197 -1.8612,15.7602 -3.2583,16.6584 -4.6932,17.3728 -6.1487,17.9871 -7.613,18.3213 -9.0822,18.5031 -10.5564,18.1529 -12.016,17.2443 L-12.81,16.75 " stroke-linecap="round" fill="none" stroke="#f2f2f2" stroke-width="4.5" stroke-dasharray="none" stroke-dashoffset="0"/></g></g><g transform="matrix(1, 0, 0, 1, 1665.0419, 14788.4055)" opacity="1"><g transform="scale(1)"><path d="M0,0 Q-0.8983,4.4916 -1.4342,7.1708 L-1.97,9.85 " stroke-linecap="round" fill="none" stroke="#f2f2f2" stroke-width="4.5" stroke-dasharray="none" stroke-dashoffset="0"/></g></g><g transform="matrix(1, 0, 0, 1, 1664.0567, 14762.7911)" opacity="1"><g transform="scale(1)"><path d="M0,0 Q0.8983,5.3899 1.4342,8.605 L1.97,11.82 " stroke-linecap="round" fill="none" stroke="#f2f2f2" stroke-width="4.5" stroke-dasharray="none" stroke-dashoffset="0"/></g></g><g transform="matrix(1, 0, 0, 1, 1672.9232, 14785.45)" opacity="1"><g transform="scale(1)"><path d="M0,0 Q-0.4514,5.8414 -0.7977,7.4302 T-1.1088,9.4342 0.0694,7.8295 2.0601,4.4849 3.8179,2.4398 5.4468,1.3273 6.7821,0.9477 7.9576,1.4162 9.0463,2.5693 9.8642,4.0949 10.3092,5.8232 10.5512,7.8851 10.7383,10.4336 L10.84,11.82 " stroke-linecap="round" fill="none" stroke="#f2f2f2" stroke-width="4.5" stroke-dasharray="none" stroke-dashoffset="0"/></g></g><g transform="matrix(1, 0, 0, 1, 1714.3002, 14786.4351)" opacity="1"><g transform="scale(1)"><path d="M-0.2257,-1.5732 Q-0.4514,-3.1464 -1.0234,-3.7765 T-2.3556,-4.5259 -3.9787,-4.4845 -5.5343,-3.787 -6.8296,-2.5093 -7.9835,0.4316 -8.6112,4.5029 -8.28,7.8418 -6.9759,10.3307 -5.1423,12.1339 -3.2466,13.564 -1.0913,14.5653 0.9795,15.1101 2.7787,15.183 4.4323,14.5501 5.5576,13.3074 6.1697,11.5074 6.5027,9.4042 6.6839,7.1382 6.3333,4.7838 5.2442,2.8281 3.7648,0.9964 1.48,0 -0.2257,-1.5732 Z" stroke-linecap="round" fill="none" stroke="#f2f2f2" stroke-width="4.5" stroke-dasharray="none" stroke-dashoffset="0"/></g></g><g transform="matrix(1, 0, 0, 1, 1717.2557, 14792.3461)" opacity="1"><g transform="scale(1)"><path d="M0,0 Q-0.8983,0 -1.5918,0 T-3.1118,0 -4.9241,0 L-5.91,0 " stroke-linecap="round" fill="none" stroke="#f2f2f2" stroke-width="4.5" stroke-dasharray="none" stroke-dashoffset="0"/></g></g><g transform="matrix(1, 0, 0, 1, 1677.8491, 14582.5057)" opacity="1"><g transform="scale(1)"><path d="M0,0 Q-2.2481,-0.4514 -2.8596,-0.7977 T-3.578,-1.7814 -3.2939,-2.9914 -2.4668,-3.8754 -1.5676,-4.3563 -0.6271,-4.1688 0.3338,-3.3918 1.0799,-2.2943 1.2623,-1.0224 0.9124,0.1187 0.0472,1.1886 -1.0984,1.5472 -2.1707,1.0674 -2.9775,0.3549 -3.193,-0.2583 -2.6376,-0.8154 -1.6606,-1.3419 -0.6776,-1.6283 0.3063,-1.335 1.0649,-0.2771 1.2542,0.9733 0.6823,2.1027 -0.4008,3.2927 L-0.99,3.94 " stroke-linecap="round" fill="none" stroke="#e599f7" stroke-width="4.5" stroke-dasharray="none" stroke-dashoffset="0"/></g></g><g transform="matrix(1, 0, 0, 1, 1704.4486, 14547.0397)" opacity="1"><g transform="scale(1)"><path d="M0,0 Q0,4.0447 0,5.8175 T0,8.7804 0,9.7196 0,8.883 0,7.753 0,6.24 0,4.0694 0,1.7646 0,-0.3875 0.2257,-2.0075 1.0234,-2.6653 2.1299,-2.7997 3.181,-2.6471 4.4277,-2.3383 5.7785,-2.1704 7.186,-1.8556 9.0756,-1.4609 11.4943,-1.1559 L12.81,-0.99 " stroke-linecap="round" fill="none" stroke="#e599f7" stroke-width="4.5" stroke-dasharray="none" stroke-dashoffset="0"/></g></g><g transform="matrix(1, 0, 0, 1, 1734.0036, 14544.0842)" opacity="1"><g transform="scale(1)"><path d="M0,0 Q-3.1464,1.3498 -4.2257,1.9403 T-6.1178,3.0779 -7.5962,4.3716 -8.6239,5.748 -8.2847,7.6185 -6.7527,9.5344 -5.0209,10.5766 -2.9548,11.1436 -0.3999,11.5817 L0.99,11.82 " stroke-linecap="round" fill="none" stroke="#e599f7" stroke-width="4.5" stroke-dasharray="none" stroke-dashoffset="0"/></g></g><g transform="matrix(1, 0, 0, 1, 1750.7514, 14546.0545)" opacity="1"><g transform="scale(1)"><path d="M0,0 Q-2.2481,1.3498 -3.083,2.1661 T-4.5978,3.6499 -5.6476,5.3554 -4.8712,7.4072 -2.4265,8.9726 0.0275,9.5984 2.2607,9.4897 4.374,8.9814 6.1984,7.8066 7.6401,6.0457 8.6478,4.4129 8.9726,3.0755 8.7001,1.8988 7.6535,1.0329 5.8896,0.3639 L4.93,0 " stroke-linecap="round" fill="none" stroke="#e599f7" stroke-width="4.5" stroke-dasharray="none" stroke-dashoffset="0"/></g></g><g transform="matrix(1, 0, 0, 1, 1776.3657, 14542.1138)" opacity="1"><g transform="scale(1)"><path d="M0,0 Q-2.2481,1.3498 -3.083,1.9403 T-4.5978,3.3013 -4.7493,4.9401 -3.7077,6.5064 -2.6918,7.5842 -1.6901,8.394 -0.6937,9.2836 0.0741,10.2168 0.266,11.1736 -0.081,12.1432 -1.1681,12.8942 -3.107,13.5284 -5.5092,14.0991 -8.3206,14.5401 L-9.85,14.78 " stroke-linecap="round" fill="none" stroke="#e599f7" stroke-width="4.5" stroke-dasharray="none" stroke-dashoffset="0"/></g></g><g transform="matrix(1, 0, 0, 1, 1803.9504, 14542.1138)" opacity="1"><g transform="scale(1)"><path d="M-1.124,-1.124 Q-2.2481,-2.2481 -3.3087,-2.8596 T-5.3955,-3.578 -7.429,-3.5196 -9.2079,-2.8153 -10.8482,-1.3081 -10.6187,2.8817 -8.4738,8.0816 -6.4087,11.1361 -4.3869,12.7977 -2.3865,13.7016 -0.3976,13.7442 1.3569,13.0925 2.7605,11.8396 3.7498,10.0363 4.288,8.157 4.355,6.2363 3.7166,4.5166 2.6967,2.9062 1.5913,1.0239 0.495,0 -1.124,-1.124 Z" stroke-linecap="round" fill="none" stroke="#e599f7" stroke-width="4.5" stroke-dasharray="none" stroke-dashoffset="0"/></g></g><g transform="matrix(1, 0, 0, 1, 1804.9356, 14548.0248)" opacity="1"><g transform="scale(1)"><path d="M0,0 Q-3.1464,0 -5.0232,0 L-6.9,0 " stroke-linecap="round" fill="none" stroke="#e599f7" stroke-width="4.5" stroke-dasharray="none" stroke-dashoffset="0"/></g></g><g transform="matrix(1, 0, 0, 1, 1823.6537, 14540.1435)" opacity="1"><g transform="scale(1)"><path d="M0,0 Q0.4514,6.2882 0.7207,10.0391 L0.99,13.79 " stroke-linecap="round" fill="none" stroke="#e599f7" stroke-width="4.5" stroke-dasharray="none" stroke-dashoffset="0"/></g></g><g transform="matrix(1, 0, 0, 1, 1827.5944, 14545.0693)" opacity="1"><g transform="scale(1)"><path d="M0,0 Q-2.695,0.4514 -3.8771,0.5742 T-6.4697,0.8435 L-7.88,0.99 " stroke-linecap="round" fill="none" stroke="#e599f7" stroke-width="4.5" stroke-dasharray="none" stroke-dashoffset="0"/></g></g><g transform="matrix(1, 0, 0, 1, 1837.4461, 14543.099)" opacity="1"><g transform="scale(1)"><path d="M0,0 Q-0.8983,4.943 -0.6935,6.2875 T0.0719,8.3635 1.3866,9.267 3.0001,9.3094 4.8848,9.0248 L5.91,8.87 " stroke-linecap="round" fill="none" stroke="#e599f7" stroke-width="4.5" stroke-dasharray="none" stroke-dashoffset="0"/></g></g><g transform="matrix(1, 0, 0, 1, 1838.4312, 14529.3067)" opacity="1"><g transform="scale(1)"><path d="M 0 0 m -0.5, 0 a 0.5,0.5 0 1,0 1,0 a 0.5,0.5 0 1,0 -1,0" stroke-linecap="round" fill="#e599f7" stroke="#e599f7" stroke-width="4.5" stroke-dasharray="none" stroke-dashoffset="0"/></g></g><g transform="matrix(1, 0, 0, 1, 1867.0011, 14537.188)" opacity="1"><g transform="scale(1)"><path d="M0,0 Q-5.3899,3.1464 -6.6325,4.0022 T-8.102,5.3236 -8.003,6.0424 -6.6017,6.6569 -4.0405,8.113 -1.9723,10.0291 -1.7478,11.7463 -2.7497,13.3531 -3.9674,14.4507 -5.3024,15.0477 -7.1527,15.5982 -9.5067,16.1234 -11.6856,16.4092 -13.3201,16.1154 -14.9003,15.2505 L-15.76,14.78 " stroke-linecap="round" fill="none" stroke="#e599f7" stroke-width="4.5" stroke-dasharray="none" stroke-dashoffset="0"/></g></g><g transform="matrix(1, 0, 0, 1, 1872.912, 14548.0248)" opacity="1"><g transform="scale(1)"><path d="M0,0 L-0.99,6.9 " stroke-linecap="round" fill="none" stroke="#e599f7" stroke-width="4.5" stroke-dasharray="none" stroke-dashoffset="0"/></g></g><g transform="matrix(1, 0, 0, 1, 1873.8972, 14516.4995)" opacity="1"><g transform="scale(1)"><path d="M0,0 Q0.4514,3.5933 0.7207,5.7366 L0.99,7.88 " stroke-linecap="round" fill="none" stroke="#e599f7" stroke-width="4.5" stroke-dasharray="none" stroke-dashoffset="0"/></g></g><g transform="matrix(1, 0, 0, 1, 1879.8082, 14545.0693)" opacity="1"><g transform="scale(1)"><path d="M0,0 Q0.4514,4.4916 0.3485,5.7133 T0.1896,7.3762 1.0015,6.035 2.5672,2.8339 4.0938,0.4176 5.5969,-1.1226 7.0871,-2.1839 8.5727,-2.7612 9.83,-2.6262 10.7375,-1.8778 11.2311,-0.5724 11.4996,1.2618 11.4223,3.8328 11.0452,7.0952 L10.84,8.87 " stroke-linecap="round" fill="none" stroke="#e599f7" stroke-width="4.5" stroke-dasharray="none" stroke-dashoffset="0"/></g></g><g transform="matrix(1, 0, 0, 1, 1916.2594, 14533.2473)" opacity="1"><g transform="scale(1)"><path d="M-2.0224,1.124 Q-4.0447,2.2481 -5.3683,3.5322 T-7.6377,5.9639 -9.0979,8.1851 -9.8923,10.2918 -10.3245,12.3361 -7.6389,13.8974 -2.5823,14.2976 1.0667,13.617 3.7244,12.3484 5.8451,10.5365 7.2244,8.6525 7.9748,6.9528 7.9339,5.1298 7.0133,3.4655 5.6141,2.3367 3.8951,1.4645 1.48,0.495 -2.0224,1.124 Z" stroke-linecap="round" fill="none" stroke="#e599f7" stroke-width="4.5" stroke-dasharray="none" stroke-dashoffset="0"/></g></g><g transform="matrix(1, 0, 0, 1, 1920.2, 14540.1435)" opacity="1"><g transform="scale(1)"><path d="M0,0 Q-4.0447,0.8983 -6.4574,1.4342 L-8.87,1.97 " stroke-linecap="round" fill="none" stroke="#e599f7" stroke-width="4.5" stroke-dasharray="none" stroke-dashoffset="0"/></g></g><g transform="matrix(1, 0, 0, 1, 1938.9182, 14531.277)" opacity="1"><g transform="scale(1)"><path d="M0,0 L5.91,0.99 " stroke-linecap="round" fill="none" stroke="#e599f7" stroke-width="4.5" stroke-dasharray="none" stroke-dashoffset="0"/></g></g><g transform="matrix(1, 0, 0, 1, 1936.9479, 14539.1583)" opacity="1"><g transform="scale(1)"><path d="M0,0 Q3.5933,0 5.7366,0 L7.88,0 " stroke-linecap="round" fill="none" stroke="#e599f7" stroke-width="4.5" stroke-dasharray="none" stroke-dashoffset="0"/></g></g><g transform="matrix(1, 0, 0, 1, 1678.8342, 14541.1287)" opacity="1"><g transform="scale(1)"><path d="M0,0 Q2.695,0.4514 3.6537,0.3485 T5.3575,0.1896 6.9569,0.1031 8.8307,0.0363 L9.85,0 " stroke-linecap="round" fill="none" stroke="#e599f7" stroke-width="4.5" stroke-dasharray="none" stroke-dashoffset="0"/></g></g><g transform="matrix(1, 0, 0, 1, 1675.8787, 14549.01)" opacity="1"><g transform="scale(1)"><path d="M0,0 Q3.5933,0 5.7366,0 L7.88,0 " stroke-linecap="round" fill="none" stroke="#e599f7" stroke-width="4.5" stroke-dasharray="none" stroke-dashoffset="0"/></g></g><g transform="matrix(1, 0, 0, 1, 1642.3831, 14534.2325)" opacity="1"><g transform="scale(1)"><path d="M0,0 Q3.5933,0.4514 5.0198,0.5742 T7.8973,0.7638 10.8101,0.867 13.293,1.1465 14.6436,1.7477 15.1527,2.524 15.2062,3.3954 14.7861,4.5443 14.1085,6.0677 13.2906,7.569 12.3966,9.0583 11.4611,10.7668 10.503,12.5945 9.5326,14.2637 8.779,15.8466 8.1456,17.606 7.8011,19.0123 8.2862,20.0008 9.4485,20.7619 10.7556,21.176 11.9158,21.1778 13.2196,20.9554 14.6038,20.8344 16.0316,20.5428 17.7728,19.997 L18.72,19.7 " stroke-linecap="round" fill="none" stroke="#e599f7" stroke-width="4.5" stroke-dasharray="none" stroke-dashoffset="0"/></g></g><g transform="matrix(1, 0, 0, 1, 1658.1457, 14545.0693)" opacity="1"><g transform="scale(1)"><path d="M0,0 Q-3.1464,0 -5.0232,0 L-6.9,0 " stroke-linecap="round" fill="none" stroke="#e599f7" stroke-width="4.5" stroke-dasharray="none" stroke-dashoffset="0"/></g></g><g transform="matrix(1, 0, 0, 1, 1975.3694, 14533.2473)" opacity="1"><g transform="scale(1)"><path d="M0,-0.99 Q-2.695,-0.99 -3.8771,-0.7643 T-6.1516,-0.19 -8.0638,0.7972 -9.3297,2.2326 -10.0184,3.9118 -10.3931,5.947 -10.3711,8.1759 -9.9101,10.0633 -9.2101,11.3158 -8.1544,11.9972 -6.6818,12.3678 -3.8583,10.7728 -0.5257,7.6593 1.2872,5.2907 2.05,4.2256 2.465,4.5445 2.9141,5.3929 3.6077,6.5293 4.4341,7.5967 5.3328,8.4007 6.2709,9.2873 7.6795,10.2188 9.7265,11.2558 L10.84,11.82 " stroke-linecap="round" fill="none" stroke="#e599f7" stroke-width="4.5" stroke-dasharray="none" stroke-dashoffset="0"/></g></g><g transform="matrix(1, 0, 0, 1, 2008.865, 14528.3215)" opacity="1"><g transform="scale(1)"><path d="M0,0 Q0,5.8414 0.2257,7.8794 T0.7207,12.3487 L0.99,14.78 " stroke-linecap="round" fill="none" stroke="#e599f7" stroke-width="4.5" stroke-dasharray="none" stroke-dashoffset="0"/></g></g><g transform="matrix(1, 0, 0, 1, 2016.7464, 14535.2177)" opacity="1"><g transform="scale(1)"><path d="M0,0 Q-3.1464,0 -4.4514,0 T-6.9154,-0.2257 -9.6034,-1.0234 -12.9561,-2.2777 L-14.78,-2.96 " stroke-linecap="round" fill="none" stroke="#e599f7" stroke-width="4.5" stroke-dasharray="none" stroke-dashoffset="0"/></g></g><g transform="matrix(1, 0, 0, 1, 2030.5387, 14517.4847)" opacity="1"><g transform="scale(1)"><path d="M0,0 Q-0.8983,10.7798 -1.3684,14.1611 T-2.3176,19.1584 -3.0574,21.4277 -2.7873,20.6399 -1.742,18.1912 -0.4985,16.41 0.8529,14.9918 2.2629,13.9969 3.7025,13.4557 5.1583,13.3847 6.6251,14.0187 7.8722,15.2619 8.9998,16.8365 9.8389,18.5914 10.0697,20.4444 9.7461,22.1273 9.1209,23.492 8.1059,24.6835 6.6554,25.5574 4.7446,26.0328 2.581,26.0657 0.2682,25.7706 L-0.99,25.61 " stroke-linecap="round" fill="none" stroke="#e599f7" stroke-width="4.5" stroke-dasharray="none" stroke-dashoffset="0"/></g></g><g transform="matrix(1, 0, 0, 1, 2055.1679, 14532.2622)" opacity="1"><g transform="scale(1)"><path d="M0,0 Q-0.8983,3.5933 -1.1427,4.7964 T-1.0708,6.8774 -0.3568,8.2329 2.054,8.7469 6.4685,8.8266 L8.87,8.87 " stroke-linecap="round" fill="none" stroke="#e599f7" stroke-width="4.5" stroke-dasharray="none" stroke-dashoffset="0"/></g></g><g transform="matrix(1, 0, 0, 1, 2058.1234, 14516.4995)" opacity="1"><g transform="scale(1)"><path d="M 0 0 m -0.5, 0 a 0.5,0.5 0 1,0 1,0 a 0.5,0.5 0 1,0 -1,0" stroke-linecap="round" fill="#e599f7" stroke="#e599f7" stroke-width="4.5" stroke-dasharray="none" stroke-dashoffset="0"/></g></g></svg>