<svg xmlns="http://www.w3.org/2000/svg" direction="ltr" width="3421.8099999999995" height="3656.234042885393" viewBox="2230.506396467472 12691.83659394702 3421.8099999999995 3656.234042885393" stroke-linecap="round" stroke-linejoin="round" style="background-color: transparent;"><defs/><g transform="matrix(1, 0, 0, 1, 3201.0535, 12723.8366) scale(4.556053754307035, 4.556053754307035)" opacity="1"><g transform="scale(0.21948819173932194)"><path d="M0,0 Q0,27.2892 0,37.3042 T0,55.1559 0,70.4273 0,84.1489 0,96.9394 0,109.1707 0,120.1576 0,133.1243 0,147.2803 0,160.3318 0,172.7198 0,183.7989 0,194.0917 0,203.9142 0,213.4541 0,222.8224 0,231.1791 0,238.9282 0,247.2207 0,255.8396 0,265.5651 0,275.9552 0.9104,285.8362 2.3678,295.4113 3.2432,304.8007 3.769,314.9889 4.0849,325.6571 4.2746,335.703 4.3886,345.3752 4.457,354.8249 4.4981,364.141 4.5228,373.3748 4.5377,382.5591 4.5466,391.7138 4.5519,400.8526 4.5552,409.9819 3.6467,419.1035 2.1905,428.2205 1.3158,437.3366 0.7904,446.4524 0.4748,456.4762 0.2852,467.0456 0.1713,477.0322 0.1029,487.5793 0.0618,498.4629 0.0371,508.6383 0.0223,518.3882 0.0134,528.7931 0.008,539.5913 0.0048,549.7174 0.0029,558.5294 0.0017,566.5499 0.001,575.0074 0.0006,583.7275 -0.9101,592.6033 -2.3675,601.5726 -3.243,610.6001 -3.7689,619.6625 -4.0848,628.7439 -4.2746,637.8368 -4.3885,646.028 -4.457,652.7672 -4.4981,659.5447 -4.5228,666.3452 -4.5377,673.1574 -4.5466,680.8892 -4.5519,689.1733 -4.5552,696.8768 -4.5571,705.1419 -4.5583,714.6548 -4.559,724.9173 -4.5594,735.63 -4.5596,746.6132 -4.5598,757.7608 -4.5599,767.1863 -4.5599,776.4858 -4.56,786.6201 -4.56,797.2558 -4.56,807.2843 -4.56,816.946 -3.6496,827.2979 -2.1922,836.2454 -1.3168,845.2578 -0.791,855.2196 -0.4751,863.9328 -0.2854,872.8065 -0.1714,883.5934 -0.103,893.7107 -0.0619,903.4277 -0.0372,914.7233 -0.0223,925.1461 -0.0134,935.0447 -0.0081,945.5388 -0.0048,955.4822 -0.0029,964.1844 -0.0017,971.2306 -0.001,978.1924 -0.0006,985.1036 -0.0004,991.9844 -0.0002,999.7553 -0.0001,1007.1525 -0.0001,1014.3252 0,1021.361 0,1028.3167 0,1035.2242 0,1042.1007 0,1048.9607 0,1056.7211 0,1065.9309 0,1075.1008 0,1085.1572 0,1095.7462 0,1105.7466 0,1114.483 0,1122.4581 0,1130.8884 0,1139.5921 0,1148.4581 0,1157.4215 0,1166.4434 0,1174.5921 0,1182.2162 0,1191.344 0,1202.2857 0,1213.4063 0,1223.7241 0,1232.6512 0,1241.6533 0,1250.6984 0,1258.8611 0,1267.404 0,1276.1734 0,1284.1703 0,1290.7928 0,1297.4982 0,1304.2553 0,1311.0436 0,1317.8505 0,1325.579 0,1334.7697 0,1343.0176 0,1350.7014 0,1358.0462 0,1365.1855 0,1372.2033 0,1378.2396 0,1385.5033 0,1394.4147 0,1402.497 0,1410.9896 0,1421.5497 0,1431.5327 0,1441.1671 0,1450.5921 0,1458.9829 -0.9104,1466.7524 -2.3678,1473.2383 -3.2432,1478.9532 -3.769,1486.0258 -4.0849,1494.8224 -4.2746,1502.8357 -4.3886,1510.3785 -4.457,1518.5471 -4.4981,1526.1832 -4.5228,1533.4993 -4.5377,1542.4423 -4.5466,1552.3623 -4.5519,1561.0485 -4.5552,1568.9955 -4.5571,1576.4984 -4.5583,1583.7326 -4.559,1590.8075 -4.5594,1597.7865 -4.5596,1605.6185 -4.5598,1613.9628 -4.5599,1623.5233 -4.5599,1633.8143 -4.56,1644.5442 -4.56,1656.4461 -4.56,1668.1436 -4.56,1678.8099 -4.56,1688.8547 -4.56,1699.4367 -4.56,1710.3413 -4.56,1720.5293 -4.56,1730.2869 -4.56,1739.7878 -4.56,1749.1347 -4.56,1759.2974 -4.56,1769.9502 -4.56,1779.9869 -4.56,1788.7451 -4.56,1796.7354 -4.56,1805.1727 -4.56,1813.8787 -4.56,1822.748 -4.56,1831.7154 -4.56,1840.7398 -4.56,1849.7983 -4.56,1857.969 -4.56,1865.6063 -4.56,1873.8317 -4.56,1881.5018 -4.56,1888.8385 -4.56,1897.7938 -4.56,1907.7212 -4.56,1917.3223 -4.56,1927.6377 -4.56,1938.3822 -4.56,1948.476 -4.56,1957.2685 -4.56,1965.2774 -4.56,1973.7279 -4.56,1981.5334 -4.56,1989.8597 -4.56,1999.4095 -4.56,2008.7836 -4.56,2018.0543 -4.56,2027.2628 -4.56,2036.4319 -4.56,2045.5775 -4.56,2054.7088 -4.56,2062.9232 -4.56,2070.5868 -4.56,2078.8279 -4.56,2088.3265 -4.56,2098.5803 -4.56,2108.3794 -4.56,2117.9053 -4.56,2128.1756 -4.56,2138.893 -5.4684,2148.0601 -6.9226,2156.2959 -7.796,2164.8808 -8.3207,2173.6754 -8.6359,2182.5959 -8.8252,2190.6837 -8.9389,2198.2712 -9.0072,2206.4667 -9.0483,2215.0293 -9.0729,2223.8125 -9.0877,2232.7262 -9.0966,2240.8099 -9.102,2248.3949 -9.1052,2256.5889 -9.1071,2265.1487 -9.1083,2273.9301 -9.109,2283.7532 -9.1094,2294.202 -9.1096,2305.0266 -9.1098,2316.077 -9.1099,2327.263 -9.1099,2338.5305 -9.11,2348.9385 -9.11,2357.9177 -9.11,2366.0407 -9.11,2374.5598 -9.11,2382.4044 -9.11,2389.8459 -9.11,2397.9556 -9.11,2407.3752 -9.11,2417.5816 -9.11,2427.3502 -9.11,2436.8558 -9.11,2447.1139 -9.11,2456.9155 -9.11,2465.5325 -9.11,2474.3464 -9.11,2484.189 -9.11,2495.5599 -9.11,2506.9384 -9.11,2517.4111 -9.11,2526.4312 -9.11,2535.4892 -9.11,2544.5679 -9.11,2551.8403 -9.11,2558.938 -9.11,2565.9308 -9.11,2571.9502 -9.11,2578.2932 -9.11,2584.8327 -9.11,2591.4902 -9.11,2600.0375 -9.11,2608.8114 -9.11,2617.7216 -9.11,2626.7115 -9.11,2633.9305 -9.11,2640.9962 -9.11,2647.9698 -9.11,2653.9776 -9.11,2660.3137 -9.11,2666.849 -9.11,2672.5955 -10.0204,2678.7767 -11.4778,2685.217 -12.3532,2691.8149 -12.879,2698.5074 -13.1949,2705.2549 -13.3846,2712.0373 -12.5881,2717.9323 -10.4152,2724.8966 L-9.11,2729.08 " stroke-linecap="round" fill="none" stroke="#40c057" stroke-width="13.668161262921105" stroke-dasharray="none" stroke-dashoffset="0"/></g></g><g transform="matrix(1, 0, 0, 1, 2262.5064, 15361.7917) scale(4.556053754307035, 4.556053754307035)" opacity="1"><g transform="scale(0.21948819173932194)"><path d="M0,0 Q16.3719,-1.8209 23.11,-2.3678 T35.7144,-3.2432 46.9234,-3.769 58.2047,-4.9933 70.4398,-6.6372 82.3375,-7.6246 93.122,-8.2177 103.2379,-8.574 112.954,-8.7881 123.3386,-8.9166 135.0331,-8.9938 146.606,-9.0402 158.1059,-9.0681 170.4723,-9.0848 181.5404,-9.0949 191.8266,-9.1009 202.5536,-8.1961 212.6368,-6.7442 223.2419,-5.872 235.0709,-5.3481 246.7245,-5.0334 257.3625,-4.8444 267.3903,-4.7308 277.0516,-4.6626 287.4032,-4.6216 298.1695,-4.597 308.2763,-4.5822 317.9872,-4.5734 327.458,-4.568 336.7848,-4.5648 346.0251,-4.5629 355.2153,-4.5617 365.2839,-4.561 376.7886,-4.5606 390.9768,-4.5604 406.777,-4.5602 421.7266,-4.5601 435.2547,-4.5601 447.9291,-4.56 459.1822,-5.4685 470.4899,-6.9226 483.6494,-7.7961 496.1023,-8.3207 508.1307,-8.6359 519.9042,-8.8252 531.5246,-8.9389 543.9634,-9.0072 556.8919,-9.0483 569.206,-9.0729 581.1531,-9.0877 593.7862,-9.0966 607.7418,-9.102 623.4022,-9.1052 638.2658,-9.1071 651.7424,-8.1998 665.2962,-6.7464 678.8964,-5.8733 691.614,-5.3489 703.8015,-5.0339 716.581,-3.9342 729.7141,-2.3632 743.0596,-1.4196 755.6262,-0.8527 767.723,-0.5122 780.446,-0.3077 792.6367,-0.1848 804.5076,-0.111 817.097,-0.0667 829.2074,-0.0401 841.0302,-0.0241 853.5906,-0.0145 865.6836,-0.0087 877.4959,-0.0052 889.1396,0.9073 899.7715,2.3659 909.7957,3.242 920.3653,3.7683 931.2645,4.0844 941.4512,4.2743 952.1184,4.3884 963.0743,4.4569 974.2035,4.4981 985.4368,4.5228 996.7327,4.5377 1008.9746,4.5466 1020.8764,4.5519 1032.5738,4.5552 1045.0568,5.4655 1057.1034,6.9208 1068.8879,7.795 1081.4252,8.3201 1093.5044,8.6355 1105.3084,8.825 1117.8575,8.9388 1130.8542,9.0072 1144.1198,9.0482 1157.5448,9.0729 1171.0657,9.0877 1184.6461,9.0966 1198.2623,10.0124 1211.9,11.4729 1225.5486,12.3503 1239.2037,12.8772 1252.8648,13.1938 1266.5295,13.384 1281.1047,13.4982 1296.2269,13.5668 1310.7692,13.608 1324.9632,13.6328 1339.8564,13.6476 1356.9884,13.6566 1374.5569,13.6619 1390.5687,13.6652 1406.5538,13.6671 1425.2522,13.6683 1446.4909,13.6689 1466.5262,13.6694 1484.0197,13.6696 1499.9844,12.7593 1514.1224,11.3021 1529.8924,10.4268 1547.5512,9.901 1564.5256,9.5851 1581.0889,9.3954 1596.4969,9.2814 1611.2109,9.213 1624.5976,9.1719 1637.187,9.1472 1650.2079,9.1323 1664.3964,9.1234 1680.1967,9.1181 1696.0548,9.1148 1712.8561,9.1129 1731.1363,9.1117 1747.5756,8.2026 1761.0882,6.7481 1773.7532,5.8743 1786.8195,5.3495 1799.2164,5.0342 1810.3009,4.8449 1821.5073,4.7311 1832.787,4.6628 1844.1108,4.6217 1855.461,4.5971 1865.9187,4.5823 1875.8402,4.5734 1887.2565,4.568 1899.5708,4.5648 1910.6076,4.5629 1921.7854,4.5617 1933.0479,4.561 1944.3633,4.5606 1955.7085,4.5604 1967.0716,4.5602 1978.4455,4.5601 1989.8258,4.5601 2001.2099,4.56 2011.686,4.56 2023.4354,4.56 2037.7707,4.56 2051.8403,4.56 2063.9294,4.56 2075.7394,4.56 2088.2921,4.56 2100.3805,4.56 2112.1901,4.56 2122.9236,4.56 2133.9193,4.56 2145.9809,4.56 2158.6848,4.56 2171.7744,4.56 2183.2749,4.56 2194.7313,4.56 2207.9801,4.56 2223.2159,4.56 2238.7349,4.56 2255.3345,4.56 2272.5831,4.56 2286.5819,4.56 2299.5389,4.56 2314.5995,4.56 2330.0153,4.56 2344.7319,4.56 2358.1202,4.56 2370.7105,4.56 2383.73,4.56 2397.0092,4.56 2412.2634,3.6496 2428.7038,2.1922 2443.1276,1.3168 2456.3399,0.791 2469.735,0.4751 2482.3294,0.2854 2494.4428,0.1714 2506.2674,0.103 2517.9185,0.0619 2529.4653,0.0372 2540.9495,0.0223 2554.2149,0.0134 2566.7315,0.0081 2577.8898,0.0048 2590.049,0.0029 2602.8095,0.0017 2615.9332,0.001 2629.275,0.0006 2642.7479,0.0004 2655.3891,0.0002 2667.5306,0.0001 2680.2825,0.0001 2692.4906,0 2704.372,0 2716.0571,0 2727.6244,0 2739.121,0 2750.5749,0 2762.0034,0 2773.4164,0 2785.7307,0 2797.676,0 2809.3995,0 2821.8982,0 2833.9543,0 2845.7443,0 2857.3747,0 2868.0006,0 2878.9316,0 2890.0459,0 2901.2703,0 2912.5608,0 2923.8911,0 2935.2452,0 2946.6136,0 2957.9906,0 2969.3729,0 2980.7582,0 2992.1454,0 3003.5337,0 3014.9227,0 3026.3121,0.9104 3036.7913,2.3678 3047.6342,3.2432 3058.6955,3.769 3068.9777,4.0849 3079.7022,4.2746 3091.6029,4.3886 3104.2101,5.3655 3117.2417,6.8607 3130.5283,7.7589 3143.0575,8.2984 3154.2213,8.6225 3165.4755,8.8172 3176.7839,9.8445 3187.2145,11.3721 3197.1177,12.2897 3206.7062,12.8409 3216.1056,13.172 3225.3894,13.3708 3234.6039,13.4903 3243.7766,13.5621 3252.9263,13.6052 3262.0621,13.6311 3271.1876,13.6466 3280.3069,13.6559 3290.333,13.6616 3300.9036,13.6649 3310.8931,13.667 3320.5333,13.6682 3329.9618,13.6689 3338.3547,13.6693 3345.2151,12.7592 3353.0835,10.4794 L3357.81,9.11 " stroke-linecap="round" fill="none" stroke="#40c057" stroke-width="13.668161262921105" stroke-dasharray="none" stroke-dashoffset="0"/></g></g><g transform="matrix(1, 0, 0, 1, 3519.9772, 15357.2357) scale(4.556053754307035, 4.556053754307035)" opacity="1"><g transform="scale(0.21948819173932194)"><path d="M0,2.7293 Q0,5.4586 0,8.917 T0,15.3631 -0.9104,21.0541 -2.3678,27.1999 -3.2432,33.6209 -3.769,36.5695 -4.0849,35.6114 -4.2746,31.396 -4.3886,23.4073 -4.457,14.9709 -4.4981,8.0823 -4.5228,5.7634 -4.5461,7.8541 -2.28,4.555 0,2.7293 Z" stroke-linecap="round" fill="none" stroke="#40c057" stroke-width="13.668161262921105" stroke-dasharray="none" stroke-dashoffset="0"/></g></g><g transform="matrix(1, 0, 0, 1, 4970.8799, 15365.1911) scale(5.626520916200785, 5.626520916200785)" opacity="1"><g transform="scale(0.17772972230861864)"><path d="M0,0 Q-2.0887,-2.0887 -2.7456,-3.7881 T-3.8157,-7.6009 -4.4888,-12.0878 -4.9122,-18.0413 -6.221,-24.9173 -8.0868,-29.2423 -9.2603,-29.874 -9.9985,-28.1845 -10.4628,-25.0349 -10.7549,-19.9225 -10.9386,-13.5756 -11.0541,-6.4522 -11.1268,3.2466 -11.2024,18.5218 L-11.25,28.13 " stroke-linecap="round" fill="none" stroke="#40c057" stroke-width="16.879562748602353" stroke-dasharray="none" stroke-dashoffset="0"/></g></g><g transform="matrix(1, 0, 0, 1, 4920.2412, 15488.9745) scale(5.626520916200785, 5.626520916200785)" opacity="1"><g transform="scale(0.17772972230861864)"><path d="M0,5.63 Q-2.0887,20.24 -2.7456,25.8792 T-4.8582,40.2836 -7.2296,55.6064 -9.6976,73.282 L-11.25,84.4 " stroke-linecap="round" fill="none" stroke="#40c057" stroke-width="16.879562748602353" stroke-dasharray="none" stroke-dashoffset="0"/></g></g><g transform="matrix(1, 0, 0, 1, 4976.5065, 15505.8541) scale(5.626520916200785, 5.626520916200785)" opacity="1"><g transform="scale(0.17772972230861864)"><path d="M0,3.1312 Q0,6.2625 -1.0444,9.2764 T-3.7881,16.2729 -7.6009,23.805 -11.0434,31.6739 -12.1644,42.8841 -10.7827,55.1534 -6.7823,63.9152 -1.1348,69.4263 5.5487,72.8928 12.8838,74.0289 19.5845,71.6122 24.8436,66.9628 29.196,60.907 32.978,52.9224 35.3568,44.7688 35.8088,36.5089 34.0043,28.1822 30.7824,20.8579 26.669,14.164 20.6598,5.4691 8.44,0 0,3.1312 Z" stroke-linecap="round" fill="none" stroke="#40c057" stroke-width="16.879562748602353" stroke-dasharray="none" stroke-dashoffset="0"/></g></g><g transform="matrix(1, 0, 0, 1, 3161.9535, 12968.2932) scale(5.626520916200785, 5.626520916200785)" opacity="1"><g transform="scale(0.17772972230861864)"><path d="M0,0 Q8.3512,0 14.1089,1.0444 T24.5307,3.7881 34.2173,6.5565 44.4857,8.2978 54.0739,9.3931 62.1918,10.082 66.2554,10.5153 65.6802,9.7454 62.1872,8.2186 55.8163,6.2138 48.6778,3.9085 42.0989,2.4585 36.9164,0.502 35.7454,-1.773 38.1401,-3.2039 42.7775,-4.104 49.8701,-4.6701 57.4607,-5.0263 64.3221,-4.2059 73.1913,-1.624 L78.77,0 " stroke-linecap="round" fill="none" stroke="#40c057" stroke-width="16.879562748602353" stroke-dasharray="none" stroke-dashoffset="0"/></g></g><g transform="matrix(1, 0, 0, 1, 3178.833, 15382.0706) scale(5.626520916200785, 5.626520916200785)" opacity="1"><g transform="scale(0.17772972230861864)"><path d="M0,0 Q2.0887,2.0887 2.7456,3.7881 T3.8157,7.6009 4.4888,12.0878 4.9122,16.9969 5.1785,23.216 5.346,30.2591 5.4514,37.8204 5.5176,45.7077 5.5593,52.7557 5.5855,59.2758 5.602,65.4638 5.6124,71.4447 5.6189,77.2937 5.623,84.1039 5.6256,91.5187 5.6272,99.3139 5.6283,107.3483 5.6289,114.4888 5.6293,121.069 5.6296,127.2947 5.6297,133.2976 5.6298,139.1621 5.6299,145.9822 5.6299,153.4032 5.63,161.2023 5.63,169.2392 6.6725,176.3812 8.3707,182.9605 9.439,189.1857 10.1108,195.1882 10.5335,201.0525 10.7993,207.8724 10.9665,215.2934 11.0717,223.0924 11.1378,232.1717 11.1795,241.0139 11.2056,248.6643 10.1796,255.5633 8.4917,261.9897 7.43,269.1631 6.7622,276.8064 6.3422,284.7453 6.0779,292.8701 5.9118,300.0693 5.8072,306.6845 5.7415,312.9323 5.7001,318.9491 4.6297,324.8205 2.9121,331.6449 1.8317,339.0686 1.1521,346.8694 0.7247,354.9073 0.4558,362.0519 0.2867,368.6328 0.1803,374.859 0.1134,380.864 0.0714,386.728 1.0892,393.5477 2.7739,400.9686 3.8335,408.7675 4.5,416.8043 4.9192,424.9907 5.1829,433.2711 6.3913,440.5664 8.1939,449.3308 9.3277,459.0173 10.0409,468.2414 10.4895,477.1745 10.7716,484.8804 10.9491,492.8586 12.1051,501.0081 13.8766,508.2229 14.9909,515.8923 15.6917,523.8475 16.1326,531.9826 16.4099,540.2308 16.5843,547.5058 17.7384,554.1687 19.5086,560.4483 20.6221,566.4851 21.3225,572.3691 21.7631,579.2014 22.0402,586.6302 22.2145,594.4341 22.3241,603.5165 22.3931,612.3606 22.4365,621.0548 22.4637,629.6546 22.4809,638.1952 22.4917,646.6984 23.541,655.1782 25.2435,663.6432 26.3144,671.0565 26.988,678.8506 27.4117,686.8844 27.6782,694.0245 27.8458,701.645 27.9512,709.5696 28.0176,717.6854 28.0593,725.9214 28.0855,734.2332 28.102,743.6368 28.1124,752.683 28.1189,761.5043 28.123,770.1841 28.1256,777.7306 28.1272,785.6085 28.1283,793.695 28.1289,801.9127 28.1293,810.2128 28.1296,819.6092 28.1297,830.7376 28.1298,841.9112 28.1299,852.0706 27.0874,861.5921 25.3892,870.7123 24.321,878.5377 22.6048,885.5468 20.4809,893.0867 19.145,902.0049 17.2603,909.7013 15.0305,916.6293 12.7097,927.2927 L11.25,934 " stroke-linecap="round" fill="none" stroke="#40c057" stroke-width="16.879562748602353" stroke-dasharray="none" stroke-dashoffset="0"/></g></g><g transform="matrix(1, 0, 0, 1, 3229.4717, 16012.241) scale(5.626520916200785, 5.626520916200785)" opacity="1"><g transform="scale(0.17772972230861864)"><path d="M0,0 Q-10.4362,0 -15.8072,0 T-26.6433,0 -37.6329,0 -47.6767,1.0444 -56.0811,2.7456 -63.4543,4.8582 -72.8562,8.782 L-78.77,11.25 " stroke-linecap="round" fill="none" stroke="#40c057" stroke-width="16.879562748602353" stroke-dasharray="none" stroke-dashoffset="0"/></g></g><g transform="matrix(1, 0, 0, 1, 2909.0643, 16005.1805) scale(4.3316923899978965, 4.3316923899978965)" opacity="1"><g transform="scale(0.23085665138850858)"><path d="M0,0 Q8.8262,0 12.3232,0 T19.6567,0 31.0616,-0.8822 49.635,-3.0472 L60.64,-4.33 " stroke-linecap="round" fill="none" stroke="#40c057" stroke-width="12.995077169993689" stroke-dasharray="none" stroke-dashoffset="0"/></g></g><g transform="matrix(1, 0, 0, 1, 4966.8022, 16005.7245) scale(4.583113492505327, 4.583113492505327)" opacity="1"><g transform="scale(0.21819228383396566)"><path d="M-2.7385,-3.6507 Q-5.477,-7.3014 -7.1247,-10.4121 T-8.8516,-15.3943 -8.0643,-18.392 -5.7642,-19.2815 -3.4681,-17.0781 -2.9989,-13.0139 -4.5428,-9.6544 -6.386,-9.4595 -7.4949,-12.0807 -6.3358,-14.57 -2.8999,-16.0677 0.0796,-16.0567 2.7864,-14.2257 5.3292,-11.2977 6.8591,-7.7097 6.8654,-3.7265 4.1307,-0.4178 -0.2532,1.573 -4.7172,1.8586 -8.3152,-0.7081 -11.7084,-5.9913 -6.875,-4.585 -2.7385,-3.6507 Z" stroke-linecap="round" fill="none" stroke="#40c057" stroke-width="13.749340477515982" stroke-dasharray="none" stroke-dashoffset="0"/></g></g><g transform="matrix(1, 0, 0, 1, 3527.7046, 12971.7033) scale(4.583113492505327, 4.583113492505327)" opacity="1"><g transform="scale(0.21819228383396566)"><path d="M0,0 Q-3.6527,1.8243 -5.6637,1.461 T-9.7969,-0.0331 -13.1959,-3.6706 -14.3288,-8.5977 -12.2719,-13.3885 -7.3836,-17.1852 -2.6182,-18.5554 1.1632,-16.6413 4.3526,-11.8389 6.2715,-6.2109 5.5997,-0.9984 1.5428,3.052 -5.4629,5.489 -13.3288,6.0411 -22.1765,5.1288 L-27.5,4.58 " stroke-linecap="round" fill="none" stroke="#e599f7" stroke-width="13.749340477515982" stroke-dasharray="none" stroke-dashoffset="0"/></g></g><g transform="matrix(1, 0, 0, 1, 2716.4935, 12921.2891) scale(4.583113492505327, 4.583113492505327)" opacity="1"><g transform="scale(0.21819228383396566)"><path d="M0,0 Q-1.8243,-12.7784 -4.1995,-17.5348 T-8.9159,-23.3286 -13.58,-23.1638 -18.2126,-18.4999 -21.912,-10.2167 -24.1379,0.2441 -24.5649,10.1888 -22.9955,17.9965 -20.2249,24.5186 -16.7336,30.269 -12.8066,35.5552 -8.6176,40.5602 -4.2728,47.2222 0.1677,54.8832 3.7536,62.2311 5.9111,69.3906 6.2951,75.5246 4.6997,81.0397 2.8277,86.1842 -0.125,90.1937 -4.6401,92.6061 -10.0952,94.9698 -16.1158,97.3041 -22.4748,98.7085 -30.8637,98.6414 -40.4759,96.7747 -48.9978,92.913 -58.4643,86.4117 L-64.16,82.5 " stroke-linecap="round" fill="none" stroke="#e599f7" stroke-width="13.749340477515982" stroke-dasharray="none" stroke-dashoffset="0"/></g></g><g transform="matrix(1, 0, 0, 1, 2730.2428, 12976.2864) scale(4.583113492505327, 4.583113492505327)" opacity="1"><g transform="scale(0.21819228383396566)"><path d="M-4.58,0 Q-13.7097,0 -18.2806,0.9122 T-26.5158,2.3732 -35.7151,3.751 L-41.25,4.58 " stroke-linecap="round" fill="none" stroke="#e599f7" stroke-width="13.749340477515982" stroke-dasharray="none" stroke-dashoffset="0"/></g></g><g transform="matrix(1, 0, 0, 1, 2776.074, 12898.3735) scale(4.583113492505327, 4.583113492505327)" opacity="1"><g transform="scale(0.21819228383396566)"><path d="M0,4.58 Q-3.6527,15.5341 -5.6637,20.6558 T-8.8847,30.6834 -11.7349,44.9323 -14.3619,61.721 -15.9425,75.4729 -15.9813,86.4856 -13.2662,95.8501 -8.8941,104.2229 -2.6128,110.1728 7.6033,115.7839 L13.75,119.16 " stroke-linecap="round" fill="none" stroke="#e599f7" stroke-width="13.749340477515982" stroke-dasharray="none" stroke-dashoffset="0"/></g></g><g transform="matrix(1, 0, 0, 1, 2844.8207, 12898.3735) scale(4.583113492505327, 4.583113492505327)" opacity="1"><g transform="scale(0.21819228383396566)"><path d="M0,0 Q7.3014,5.477 10.4121,8.0369 T16.3065,13.9633 21.6774,21.1797 26.7332,29.1723 30.6874,38.5461 33.9806,49.663 36.8762,61.8288 37.7043,78.2763 36.3761,96.3878 34.6649,110.0235 32.7231,118.2277 29.4621,124.535 L27.5,128.33 " stroke-linecap="round" fill="none" stroke="#e599f7" stroke-width="13.749340477515982" stroke-dasharray="none" stroke-dashoffset="0"/></g></g><g transform="matrix(1, 0, 0, 1, 2927.3167, 12953.3709) scale(4.583113492505327, 4.583113492505327)" opacity="1"><g transform="scale(0.21819228383396566)"><path d="M4.58,0 Q11.8854,-1.8243 17.4027,-3.2022 L22.92,-4.58 " stroke-linecap="round" fill="none" stroke="#e599f7" stroke-width="13.749340477515982" stroke-dasharray="none" stroke-dashoffset="0"/></g></g><g transform="matrix(1, 0, 0, 1, 2936.483, 12976.2864) scale(4.583113492505327, 4.583113492505327)" opacity="1"><g transform="scale(0.21819228383396566)"><path d="M0,0 L18.33,4.58 " stroke-linecap="round" fill="none" stroke="#e599f7" stroke-width="13.749340477515982" stroke-dasharray="none" stroke-dashoffset="0"/></g></g><g transform="matrix(1, 0, 0, 1, 2597.3326, 15982.8089) scale(4.583113492505327, 4.583113492505327)" opacity="1"><g transform="scale(0.21819228383396566)"><path d="M0,0 Q3.6527,-9.1297 4.7515,-12.7884 T7.4237,-19.5607 9.9437,-27.286 10.5477,-34.6726 9.9989,-40.0291 7.8424,-44.1641 3.8064,-45.7399 -1.3605,-43.9494 -7.2078,-40.1337 -11.6381,-35.1013 -15.2178,-28.4228 -19.198,-21.666 -22.5049,-14.8621 -24.4946,-6.2036 -25.6918,3.5708 -25.4999,13.1025 -23.5581,21.574 -21.4756,29.4095 -19.3104,37.7766 -17.0955,45.5494 -15.7629,52.9645 -14.0489,60.1645 -12.1055,67.2351 -11.8484,74.2277 -13.518,80.2593 -17.2611,85.7147 -24.0781,89.9112 -32.7425,92.4361 -41.6063,93.9553 -51.5043,93.9552 -61.1103,92.1288 -68.7163,89.2055 -75.1189,85.6204 -79.8834,80.7247 -84.3766,73.2483 L-87.08,68.75 " stroke-linecap="round" fill="none" stroke="#e599f7" stroke-width="13.749340477515982" stroke-dasharray="none" stroke-dashoffset="0"/></g></g><g transform="matrix(1, 0, 0, 1, 2597.3326, 16019.4738) scale(4.583113492505327, 4.583113492505327)" opacity="1"><g transform="scale(0.21819228383396566)"><path d="M-4.58,0 Q-11.8854,0 -17.7338,0 T-28.9253,0 -42.3392,0 L-50.41,0 " stroke-linecap="round" fill="none" stroke="#e599f7" stroke-width="13.749340477515982" stroke-dasharray="none" stroke-dashoffset="0"/></g></g><g transform="matrix(1, 0, 0, 1, 2661.4961, 15936.9777) scale(4.583113492505327, 4.583113492505327)" opacity="1"><g transform="scale(0.21819228383396566)"><path d="M0,0 Q-3.6527,10.9541 -5.6637,15.1616 T-8.8847,22.8129 -11.7349,30.1549 -15.2761,38.2251 -19.233,45.8192 -22.526,53.1269 -25.4195,61.1744 -28.0726,70.5792 -28.7567,84.4533 -27.3439,99.1902 -24.6676,109.8833 -20.7107,121.4005 L-18.33,128.33 " stroke-linecap="round" fill="none" stroke="#e599f7" stroke-width="13.749340477515982" stroke-dasharray="none" stroke-dashoffset="0"/></g></g><g transform="matrix(1, 0, 0, 1, 2693.5779, 15973.6427) scale(4.583113492505327, 4.583113492505327)" opacity="1"><g transform="scale(0.21819228383396566)"><path d="M0,0 Q0,9.1297 0,12.7884 T0,20.4728 0,27.8348 0,35.0028 -0.9122,42.9663 -3.2022,53.339 L-4.58,59.58 " stroke-linecap="round" fill="none" stroke="#e599f7" stroke-width="13.749340477515982" stroke-dasharray="none" stroke-dashoffset="0"/></g></g><g transform="matrix(1, 0, 0, 1, 2734.826, 15982.8089) scale(4.583113492505327, 4.583113492505327)" opacity="1"><g transform="scale(0.21819228383396566)"><path d="M-2.7385,-0.9293 Q-5.477,2.7214 -8.9511,9.4808 T-14.5153,22.1334 -17.8631,32.4846 -18.9633,41.4512 -15.9725,49.5846 -9.6102,54.4782 -3.0437,54.6841 2.7336,52.0694 8.0339,47.7577 13.0493,40.6007 16.9811,30.8194 20.689,17.3026 11.46,2.295 -2.7385,-0.9293 Z" stroke-linecap="round" fill="none" stroke="#e599f7" stroke-width="13.749340477515982" stroke-dasharray="none" stroke-dashoffset="0"/></g></g><g transform="matrix(1, 0, 0, 1, 2776.074, 15936.9777) scale(4.583113492505327, 4.583113492505327)" opacity="1"><g transform="scale(0.21819228383396566)"><path d="M0,0 Q7.3014,14.6028 10.4121,20.8221 T16.3065,32.6098 21.6774,42.4407 25.8211,51.0941 28.3142,59.9513 29.8142,68.9311 30.7167,78.8989 30.3476,89.459 27.387,99.4635 21.0408,110.0477 13.5718,118.2422 8.1658,121.3463 3.0675,122.8408 L0,123.74 " stroke-linecap="round" fill="none" stroke="#e599f7" stroke-width="13.749340477515982" stroke-dasharray="none" stroke-dashoffset="0"/></g></g><g transform="matrix(1, 0, 0, 1, 2835.6545, 15987.392) scale(4.583113492505327, 4.583113492505327)" opacity="1"><g transform="scale(0.21819228383396566)"><path d="M0,0 L18.33,4.58 " stroke-linecap="round" fill="none" stroke="#e599f7" stroke-width="13.749340477515982" stroke-dasharray="none" stroke-dashoffset="0"/></g></g><g transform="matrix(1, 0, 0, 1, 2835.6545, 16019.4738) scale(4.583113492505327, 4.583113492505327)" opacity="1"><g transform="scale(0.21819228383396566)"><path d="M0,0 L18.33,-4.58 " stroke-linecap="round" fill="none" stroke="#e599f7" stroke-width="13.749340477515982" stroke-dasharray="none" stroke-dashoffset="0"/></g></g><g transform="matrix(1, 0, 0, 1, 4939.3036, 16014.8907) scale(4.583113492505327, 4.583113492505327)" opacity="1"><g transform="scale(0.21819228383396566)"><path d="M1.8263,-4.5649 Q3.6527,-9.1297 5.6637,-12.7884 T9.7969,-19.5607 15.0222,-24.5475 21.8168,-27.5479 28.6435,-28.441 33.665,-26.2398 37.5985,-23.0891 40.8774,-20.2812 42.8501,-16.7675 43.1249,-12.827 41.4639,-8.6298 38.6382,-5.1923 36.0259,-2.2119 32.6298,0.4935 27.8479,2.1213 22.2323,2.1885 17.0292,0.4046 12.9845,-2.4951 8.7246,-5.1539 5.2493,-8.578 3.1584,-14.2888 1.9003,-21.3756 1.1433,-28.378 1.6001,-34.4175 3.7012,-38.9634 6.7918,-42.6107 12.302,-45.7174 19.268,-47.5866 25.2835,-47.7991 30.7293,-46.1026 34.92,-42.3433 38.3536,-37.343 41.3317,-31.5959 43.1235,-25.3995 43.2894,-20.7592 42.477,-17.055 41.0741,-13 38.4037,-9.6461 34.0604,-6.7159 26.8843,-4.0408 18.914,-2.4312 12.2922,-2.375 6.4837,-4.1675 2.0767,-7.0723 -0.5749,-11.5586 -2.1702,-16.9963 -3.1301,-22.0924 -2.7955,-26.9829 -1.682,-31.7518 0.8144,-35.5352 4.1427,-38.7237 7.9695,-41.5544 13.0106,-43.2575 18.7821,-44.2822 24.0791,-43.9866 28.1783,-42.8965 31.5568,-40.4143 33.5895,-36.1823 34.8126,-30.8976 35.5485,-24.9794 35.9912,-19.5942 35.3454,-14.5278 34.0447,-9.6531 31.4378,-4.8958 27.1307,-1.1213 21.8008,1.1497 15.8554,2.5161 10.4519,2.426 5.3764,0.5475 1.4105,-3.3213 -0.9757,-9.3017 -2.4114,-15.6384 -2.363,-21.2754 1.3167,-26.4914 7.1814,-30.5418 13.4486,-32.9789 19.9579,-32.6208 24.7865,-29.6689 27.6917,-25.1543 29.4397,-18.7853 30.4914,-12.2147 30.212,-6.4371 28.2196,-1.1345 25.1944,2.9701 20.6358,5.4397 15.1545,6.9256 10.0302,6.9054 6.0349,3.2406 3.631,-2.6151 2.1847,-8.8768 1.3144,-15.3828 0.7909,-21.1216 1.388,-26.3988 4.4858,-30.4862 9.0882,-32.9454 13.6836,-34.425 19.1871,-34.4031 24.3227,-32.5656 28.3248,-28.7215 31.645,-23.6701 33.6426,-17.8923 34.8445,-11.6774 34.6555,-6.1138 32.7174,-1.8541 28.8128,1.6229 23.725,4.6292 18.8395,5.5237 14.0737,4.2356 10.2921,1.6363 7.1046,-1.754 4.2746,-7.4465 3.4841,-14.5222 5.747,-20.6038 11.6733,-26.0873 19.8019,-30.2987 28.3433,-31.0083 35.3088,-27.7845 39.4997,-22.1941 41.1091,-15.1799 41.1652,-8.2211 39.3726,-1.2957 34.6434,6.5238 29.0595,13.0549 23.8734,16.9844 18.9288,17.5224 12.8359,15.1671 4.585,6.875 1.8263,-4.5649 Z" stroke-linecap="round" fill="none" stroke="#e599f7" stroke-width="13.749340477515982" stroke-dasharray="none" stroke-dashoffset="0"/></g></g><g transform="matrix(1, 0, 0, 1, 3509.3721, 12971.7033) scale(4.583113492505327, 4.583113492505327)" opacity="1"><g transform="scale(0.21819228383396566)"><path d="M0,0 Q-7.3014,3.6527 -9.4979,3.8374 T-13.9301,2.3088 -17.5111,-3.1737 -17.8393,-9.2109 -13.4719,-12.8433 -6.2793,-15.0288 0.7868,-15.4316 6.8626,-13.8496 12.3446,-9.2471 16.5571,-1.913 19.0916,5.2382 19.7024,11.3672 17.3314,16.8812 13.1663,21.111 7.9218,23.6559 1.1156,25.1871 -5.718,26.1084 -11.6559,25.7505 -16.1427,23.7089 -19.7545,20.6541 -22.8397,15.1655 -24.6961,7.2983 -24.9008,-0.1737 -23.1976,-6.4937 -19.4343,-12.1226 -14.4316,-16.4235 -8.6831,-19.0113 -2.4858,-20.5682 3.0692,-19.6787 8.2359,-14.5786 12.2566,-7.8593 14.6758,-1.078 16.1314,5.7406 15.1828,11.6695 10.9614,16.1509 5.683,18.8472 0.6808,20.4695 -4.1553,20.5315 -8.8893,18.7424 -12.6498,14.0153 -14.9124,7.5204 -16.2737,1.7863 -16.1806,-3.4901 -14.3003,-8.4891 -10.4304,-12.409 -3.5371,-14.7675 4.261,-15.2744 10.7793,-13.755 16.5275,-10.1023 21.8103,-3.3398 25.901,4.3798 27.4501,11.7629 25.6437,18.9436 20.9061,25.0884 14.4049,29.6977 7.7548,31.5588 1.9273,31.7664 -3.4052,30.067 -8.438,25.3938 -12.3783,18.9294 -14.749,11.3893 -14.3511,4.1141 -10.461,-2.0895 -5.3819,-6.7342 0.4126,-8.6167 6.6374,-7.9229 12.2091,-5.6792 16.4756,-0.6785 19.0426,5.981 20.5871,12.7263 21.5163,19.5233 20.2491,25.4372 14.9218,29.9076 8.0658,31.6851 2.1145,30.9302 -3.2926,28.6517 -7.4581,23.6301 -9.9644,16.0439 -10.5601,8.7409 -8.1801,2.5207 -2.1832,-2.1361 5.0756,-4.9379 11.2694,-5.7095 16.8224,-3.4352 21.0756,2.496 23.6346,10.6295 24.2621,18.2617 22.8134,24.6781 19.2032,29.4508 13.3803,32.3225 7.1384,33.1381 1.5564,31.8044 -2.7162,27.3513 -5.287,21.0213 -6.8337,14.4743 -6.8501,8.7087 -4.1215,4.3276 0.2587,0.7795 4.7205,-0.4432 9.2294,0.6455 12.8544,4.0391 14.1233,8.8194 13.8902,14.7573 L13.75,18.33 " stroke-linecap="round" fill="none" stroke="#e599f7" stroke-width="13.749340477515982" stroke-dasharray="none" stroke-dashoffset="0"/></g></g><g transform="matrix(1, 0, 0, 1, 3069.3932, 15936.9777) scale(4.583113492505327, 4.583113492505327)" opacity="1"><g transform="scale(0.21819228383396566)"><path d="M0,0 Q1.8243,9.1297 2.3732,13.7006 T3.2522,27.4109 2.8689,43.8755 1.7262,57.4344 1.0386,69.2431 0.6249,79.9988 -0.5362,87.3843 -2.147,90.0016 -3.1161,88.8378 -3.6992,85.3991 -4.0501,80.5916 -4.2612,74.0484 -4.3882,66.4589 -4.4646,59.154 -4.5106,52.0203 -4.5382,44.0775 -4.5549,36.562 -4.5649,29.3017 -4.5709,20.3685 -4.5745,11.3429 -4.5767,4.0862 -5.4922,-3.0185 -7.8693,-9.1175 -11.124,-12.7871 -14.9085,-14.0828 -19.9241,-13.0381 -25.6783,-10.5831 -30.9668,-7.2797 -35.9751,-3.4678 -41.7269,1.5642 -50.0139,9.1724 L-55,13.75 " stroke-linecap="round" fill="none" stroke="#40c057" stroke-width="13.749340477515982" stroke-dasharray="none" stroke-dashoffset="0"/></g></g><g transform="matrix(1, 0, 0, 1, 3468.1241, 15602.4105) scale(4.583113492505327, 4.583113492505327)" opacity="1"><g transform="scale(0.21819228383396566)"><path d="M0,0 Q5.477,-7.3014 8.0369,-10.4121 T13.9633,-15.3943 20.2675,-18.392 27.7113,-19.2815 34.9285,-17.0781 39.2709,-13.0139 41.8836,-8.7423 42.5434,-4.3478 41.114,1.0348 38.4277,7.0118 34.987,12.4343 31.0926,17.5233 26.923,22.4095 21.6758,27.1737 15.7802,30.9524 12.233,33.2259 11.9251,35.508 15.3905,37.7952 22.9526,40.0835 32.0653,43.2847 40.2867,47.0371 47.0596,50.2089 52.959,53.0295 59.9523,57.1193 L64.16,59.58 " stroke-linecap="round" fill="none" stroke="#40c057" stroke-width="13.749340477515982" stroke-dasharray="none" stroke-dashoffset="0"/></g></g><g transform="matrix(1, 0, 0, 1, 3023.5621, 12907.5397) scale(4.583113492505327, 4.583113492505327)" opacity="1"><g transform="scale(0.21819228383396566)"><path d="M0,0 Q5.477,-1.8243 11.6876,-2.3732 T22.549,-3.2522 31.8225,-3.7811 40.1406,-4.0993 47.8839,-4.2908 54.3671,-3.4938 57.3558,-1.19 57.3296,2.0226 55.4875,5.7818 53.465,9.8679 51.3359,15.065 48.2306,21.8425 44.5358,28.6589 41.3987,34.5865 39.5111,40.8915 37.4633,47.4235 35.3189,54.0921 33.1166,60.843 30.8793,67.6433 29.5333,75.3855 27.8112,82.7823 25.8629,86.3205 24.0255,86.7947 L22.92,87.08 " stroke-linecap="round" fill="none" stroke="#40c057" stroke-width="13.749340477515982" stroke-dasharray="none" stroke-dashoffset="0"/></g></g><g transform="matrix(1, 0, 0, 1, 3064.8101, 12971.7033) scale(4.583113492505327, 4.583113492505327)" opacity="1"><g transform="scale(0.21819228383396566)"><path d="M0,-4.58 Q-10.9541,-4.58 -19.227,-4.58 L-27.5,-4.58 " stroke-linecap="round" fill="none" stroke="#40c057" stroke-width="13.749340477515982" stroke-dasharray="none" stroke-dashoffset="0"/></g></g><g transform="matrix(1, 0, 0, 1, 2789.8233, 12944.2046) scale(4.583113492505327, 4.583113492505327)" opacity="1"><g transform="scale(0.21819228383396566)"><path d="M0,-4.58 Q5.477,-8.2327 8.0369,-8.4194 T13.0511,-6.892 17.8943,-3.2346 21.7206,0.7924 24.9349,5.9538 27.781,11.7978 28.5812,17.1402 27.2384,22.179 25.5182,27.035 23.5691,32.6953 20.57,37.9272 16.9412,41.9873 14.7579,46.2565 16.1828,49.7393 19.7786,51.8348 23.7664,53.0956 28.9043,53.8542 34.7341,54.3106 40.9803,55.4974 49.7335,58.0464 L55,59.58 " stroke-linecap="round" fill="none" stroke="#e599f7" stroke-width="13.749340477515982" stroke-dasharray="none" stroke-dashoffset="0"/></g></g></svg>