<svg xmlns="http://www.w3.org/2000/svg" direction="ltr" width="403" height="390" viewBox="73 127.5 403 390" stroke-linecap="round" stroke-linejoin="round" style="background-color: transparent;"><defs/><g transform="matrix(1, 0, 0, 1, 241, 165.5)" opacity="1"><g transform="scale(1)"><path d="M0,0 Q-0.456,3.192 -0.58,4.2882 T-0.7715,6.2088 -1.1037,7.9376 -1.5124,9.562 -1.7348,10.9018 -1.8557,12.3146 -1.9215,13.7671 -1.9573,15.2413 -1.9768,16.9553 -2.2154,18.5717 -2.5732,20.135 -2.7678,21.8974 -2.8737,23.7682 -2.9313,25.6979 -2.9626,27.6597 -2.9797,29.6389 -2.9889,31.3995 -2.994,33.0413 -2.9967,34.8465 -2.9982,36.5125 -2.999,37.8748 -2.9995,39.2999 -2.9997,40.7591 -2.7718,42.237 -2.4199,43.7249 -2.2284,45.2184 -2.1243,46.9428 -2.0676,48.5649 -2.0368,50.1313 -2.02,51.8954 -2.0109,53.7671 -2.0059,55.4693 -2.0032,57.0793 -2.0018,58.8671 -2.001,60.7517 -2.0005,62.6889 -2.0003,64.6548 -2.0002,66.6362 -2.0001,68.6261 -2,70.6206 -2,72.8456 -2,75.196 -2,77.1586 -2,78.9103 -2,80.7752 -2,82.7017 -2,84.6617 -2,86.64 -2,88.8561 -2,91.2017 -2,93.3897 -2,95.72 -2,98.1277 -2,100.3495 -2,102.4701 -2,104.5357 -2,106.5714 -2,108.5909 -2,110.6014 -2,112.6072 -2,114.6103 -2,116.84 -2,119.193 -2,121.157 -2,123.1374 -2,125.1267 -1.772,126.8929 -1.42,128.7658 -1.2285,130.6966 -1.1243,132.6589 -1.0676,134.6385 -1.0368,136.6273 -1.02,138.6213 -1.0109,140.39 -1.0059,142.0361 -1.0032,143.8437 -1.0018,145.739 -1.001,147.682 -1.0005,149.651 -1.0003,151.6341 -1.0002,153.625 -1.0001,155.62 -1,157.8453 -1,159.9678 -1,161.8065 -1,163.7187 -1,165.671 -1,167.417 -1,169.0509 -1,170.8517 -1,172.7433 -1,174.6844 -1,176.6523 -1,178.6348 -1,180.6254 -1,182.6202 -1,184.3894 -1,186.0358 -1,187.8435 -1,189.5109 -1,191.1019 -1,192.8794 -1,194.7584 -1,196.6926 -1,198.4288 -1,200.0572 -1,201.8551 -1,203.7452 -1,205.6854 -1,207.4249 -1,209.0551 -1,210.854 -1,212.5166 -1,214.105 -1,215.8811 -1,217.5313 -1,219.113 -1,220.6575 -1,222.1817 -1,223.6948 -1,225.202 -1,226.7059 -1,227.98 -1,229.1291 -1,230.4382 -1,231.8344 -1,233.0499 -1,234.3952 -1,235.811 -1,237.2652 -1,238.9682 -1,240.5787 -1,242.1388 -1,243.6715 -1,245.1893 -1,246.699 -1,248.2042 -1,249.7071 -1,250.9807 -1,252.1295 -1,253.2104 -1,254.4825 -1,255.8585 -1,257.291 -0.772,258.9823 -0.42,260.5864 -0.2285,261.915 -0.1243,263.3218 -0.0676,264.771 -0.0368,266.0154 -0.02,267.1484 -0.0109,268.4487 -0.0059,269.8401 -0.0032,271.053 -0.0018,272.1688 -0.001,273.2319 -0.0005,274.2661 -0.0003,275.2848 -0.0002,276.5229 -0.0001,277.8805 0,279.075 0,280.1808 0,281.4663 0,282.8497 0,284.2862 0,285.7517 0,287.2329 0,288.7227 0,289.9892 0,291.3621 0,292.793 0,294.0274 0,295.3829 0,296.8043 0,298.2615 0,299.9663 0,301.8057 0.228,303.7183 0.58,305.6707 0.7715,307.6449 0.8757,309.6308 0.9324,311.6232 0.9632,313.619 0.98,315.3887 0.9891,317.0355 0.9962,318.9555 L1,320 " stroke-linecap="round" fill="none" stroke="#9398b0" stroke-width="3" stroke-dasharray="none" stroke-dashoffset="0"/></g></g><g transform="matrix(1, 0, 0, 1, 105, 318.5)" opacity="1"><g transform="scale(1)"><path d="M0,0 Q1.368,0.456 1.9681,0.58 T3.1226,0.7715 4.2067,0.8757 5.4805,0.9324 6.8574,0.9632 8.0624,0.98 9.1739,0.9891 10.2346,0.9941 11.4956,0.9968 13.0936,0.9982 14.6469,0.999 16.1759,0.9995 17.9197,0.9997 19.7803,0.9998 21.7045,0.9999 23.6632,1 25.4128,1 27.0486,1.228 28.8504,1.58 30.5146,1.7715 32.104,1.8757 34.1086,1.9324 36.3391,2.1912 38.4644,2.56 40.5327,2.7607 42.7978,2.8698 45.17,2.9292 47.3725,2.9615 49.4826,3.207 51.5425,3.5686 53.5751,3.7653 55.5929,3.8723 57.6025,4.1586 59.6078,4.5423 61.6106,4.751 63.6122,4.8645 65.613,4.9263 67.6135,4.9599 69.6137,4.9782 71.6139,4.9881 73.6139,4.9935 75.614,4.9965 77.386,4.9981 79.034,4.999 80.8425,4.9994 82.7383,4.9997 84.6816,4.9998 86.6508,5.2279 88.634,5.58 90.3969,5.7715 92.0399,5.8757 93.8457,5.9324 95.7401,5.9632 97.4546,5.98 99.0713,5.9891 100.8628,5.9941 102.7494,5.9968 104.6877,5.9982 106.6541,5.999 108.6358,5.9995 110.6259,5.9997 112.6205,5.9998 114.6175,5.9999 116.3879,6 118.035,6 119.8431,6 121.7386,6 123.4538,6 125.0709,6 126.8626,6 128.7492,6 130.9156,6 133.2341,6 135.4073,6 137.7296,6 140.1329,6 142.3523,6 144.6996,6 147.1166,6 149.3434,6 151.6948,6 154.114,6 156.342,6 158.4661,6 160.7615,6 163.1503,5.772 165.3617,5.42 167.4768,5.2285 169.5394,5.1243 171.8014,5.0676 174.172,5.0368 176.3736,5.02 178.4832,5.0109 180.5429,5.0059 182.5753,5.0032 184.593,5.0018 186.6026,5.001 188.6078,5.0005 190.6106,5.0003 192.6122,4.7722 194.841,4.4201 197.1935,4.2285 199.3853,4.1243 201.4896,4.0676 203.5463,4.0368 205.5772,4.02 207.594,4.0109 209.6031,3.7779 211.6081,3.4232 213.6108,3.2302 215.6123,3.1252 217.6131,2.8401 219.6135,2.457 221.6138,2.2486 223.6139,1.9073 225.614,1.4935 227.386,1.2685 229.034,1.1461 230.6145,1.0795 232.1583,1.0432 233.9101,0.7955 235.7751,0.4328 237.7017,0.2354 239.4337,0.1281 241.0599,0.0697 242.8566,0.0379 244.518,0.0206 246.1058,0.0112 247.8815,0.0061 249.5316,0.0033 251.1132,0.0018 252.6576,0.001 254.1817,0.0005 255.9229,0.0003 257.554,0.0002 258.8974,0.0001 260.5402,0.228 262.3459,0.5801 264.0121,0.7716 265.6026,0.8757 266.9238,0.9324 268.3266,0.9632 270.0016,1.208 271.5969,1.5691 273.1487,1.7656 274.6769,1.8725 276.1922,1.9306 277.9286,1.9623 279.7851,1.9795 281.4791,1.9888 282.8566,1.9939 284.29,1.9967 285.9818,1.9982 287.5861,1.999 289.1428,1.9995 290.6737,1.9997 292.1905,1.9998 293.9276,1.9999 295.5566,2 297.1268,2 298.893,2 300.5378,2 302.1166,2 303.8874,2 305.7627,2 307.6949,2.228 309.43,2.58 311.0579,2.7715 312.8555,2.8757 314.5174,2.9324 315.8775,2.9632 317.3013,2.98 318.9879,2.9891 320.8174,2.9941 322.7247,2.9968 324.4462,2.9982 326.0667,2.999 327.8603,3.2275 329.748,3.5797 331.4589,3.7714 332.8457,3.8756 334.284,4.1603 335.7505,4.5432 337.0043,4.5235 338.2968,4.1845 L339,4 " stroke-linecap="round" fill="none" stroke="#9398b0" stroke-width="3" stroke-dasharray="none" stroke-dashoffset="0"/></g></g><g transform="matrix(1, 0, 0, 1, 152, 189.5)" opacity="1"><g transform="scale(1)"><path d="M0,0 Q0,1.824 0.228,2.3201 T0.58,3.3141 0.7715,4.3109 0.8757,5.3091 0.9324,6.3082 0.9632,7.3076 0.98,8.3074 1.2171,9.3072 1.5741,10.3071 1.7683,11.3071 2.102,12.307 2.5115,13.307 2.7342,14.307 2.8554,15.307 3.1494,16.079 3.5372,16.727 3.7483,17.5355 4.0911,18.4313 4.5055,19.3746 4.731,20.3438 4.8537,21.327 5.1484,22.3179 5.5367,23.3129 5.748,24.3102 5.8629,25.3088 6.1534,26.308 6.5395,27.3075 6.9775,28.3073 7.4437,29.3072 7.9254,30.3071 8.4154,31.5351 8.91,32.8871 9.407,34.0786 9.9054,35.1827 10.4046,36.2394 10.6761,37.2702 11.0518,38.287 11.7122,39.2961 12.2994,40.3011 12.8469,41.3038 13.3727,42.3053 13.8868,43.3061 14.6224,44.3065 15.2506,45.3067 15.5923,46.3069 16.0062,47.3069 16.4594,48.307 16.9339,49.079 17.42,49.727 17.6845,50.5355 18.0564,51.4313 18.4867,52.3746 18.9487,53.3438 19.4281,54.327 19.9169,55.3179 20.4108,56.3129 20.9075,57.3102 21.6337,58.3088 22.2567,59.308 22.8237,60.5355 23.5881,61.8873 24.4599,63.0787 25.1622,64.4108 25.7722,65.8195 26.5601,67.0418 27.4447,68.1627 28.1539,69.2285 28.7677,70.2643 29.5576,71.2838 30.2154,72.2944 30.8012,73.3001 31.5758,74.3033 32.2253,75.305 32.8065,76.3059 33.5788,77.3064 34.2268,78.3067 34.8074,79.3068 35.5792,80.3069 36.2271,81.307 36.8075,82.307 37.5793,83.307 38.2271,84.307 38.8076,85.307 39.5793,86.307 40.2271,87.307 40.8076,88.307 41.3513,89.307 41.8751,90.079 42.3881,90.727 42.8951,91.5355 43.3989,92.4313 43.901,93.1466 44.6302,93.7638 45.2548,94.5555 45.8226,95.4422 46.5875,96.3805 47.2316,97.347 47.81,98.3288 48.5806,99.0909 49.2279,99.7334 49.808,100.539 50.5795,101.4332 51.4553,102.3757 52.3877,103.3444 53.3509,104.3273 54.3309,105.3181 55.32,106.313 56.3141,107.3103 57.3109,108.3088 58.3091,109.308 59.3082,110.3075 60.3076,111.3073 61.3074,112.3072 62.3072,113.3071 63.3071,114.3071 64.3071,115.079 65.079,115.727 65.727,116.3075 66.5355,116.6233 67.2033,117.0231 67.7946,117.4685 68.5723,117.9389 69.2233,118.6508 69.8055,119.266 70.3502,119.8287 70.8745,120.3628 71.3877,120.8814 71.8949,121.3915 72.3988,121.897 72.901,122.3999 73.4021,122.9016 73.9028,123.4025 74.6311,123.9029 75.4833,124.4032 76.4029,124.6753 77.1312,125.0514 77.7554,125.484 78.5509,125.7193 79.2117,126.0753 79.7992,126.497 80.5747,126.7263 81.2247,127.0791 81.8062,127.499 82.5786,127.7275 83.2267,128.0797 83.8074,128.4994 84.5792,128.9557 85.4551,129.4319 86.1596,129.9189 86.7708,130.4119 87.5593,130.6801 88.4443,131.054 89.3817,131.4854 90.3476,131.72 91.3291,131.8477 92.091,131.6891 92.7335,131.3749 93.539,131.2039 94.2052,130.8829 94.7956,130.4803 95.3448,130.0333 95.8716,129.5621 96.3861,129.0778 96.8941,128.5863 97.6264,128.091 98.2527,127.3655 98.8215,126.7428 99.5869,126.1761 100.4593,125.4118 101.1618,124.54 101.772,123.6098 102.56,122.6477 103.4446,121.6684 104.3819,120.6796 105.1197,119.6857 105.7491,118.689 106.5475,117.4628 107.2099,116.1118 107.7982,114.9208 108.5742,113.8169 109.2244,112.7604 109.8061,111.7297 110.5785,110.7129 111.4547,109.4758 112.1594,108.1189 112.7707,106.6967 113.5593,105.239 114.2162,103.99 114.8016,102.8546 115.5761,101.5529 116.2254,100.1608 116.8066,98.9475 117.5788,97.6034 118.2269,96.1883 118.8074,94.7344 119.5792,93.2595 120.2271,91.7732 120.8075,90.0526 121.5793,88.2046 122.4551,86.5153 123.1596,84.9123 123.7708,83.3563 124.5593,81.8258 125.2163,80.3093 125.8017,78.8002 126.5761,77.0673 127.4534,75.4406 128.1586,73.8717 128.7703,72.3342 129.559,70.8138 130.2161,69.0747 130.8016,67.4446 131.5761,65.8739 132.2254,64.1074 132.8066,62.2344 133.5788,60.3035 134.4549,58.3411 135.1594,56.3616 135.7707,54.3727 136.5593,52.1507 137.2162,50.03 137.8016,48.1923 138.5761,46.2806 139.2254,44.5567 139.8066,42.9348 140.5788,41.3685 141.2269,39.8325 141.8074,38.0849 142.5792,36.2222 143.2271,34.2969 143.8075,32.3375 144.5793,30.3596 145.2271,28.5996 145.8076,26.9582 146.5793,25.1533 147.2271,23.2594 147.8076,21.3171 148.5793,19.1205 149.2271,16.7856 149.8076,14.6033 150.3513,12.2762 150.8751,9.8703 151.3881,7.4214 151.8951,4.9493 152.3989,2.4644 152.901,-0.0274 153.4022,-2.0669 153.6748,-3.8604 154.0511,-5.7481 154.4838,-7.4589 154.7192,-9.0737 154.8472,-10.6361 154.9169,-12.17 154.9548,-13.6885 155.2034,-15.1985 155.5667,-16.704 155.7643,-17.979 155.8718,-19.3566 155.9302,-20.79 156.19,-22.0257 156.5594,-23.154 156.7603,-24.2238 156.8696,-25.4897 156.9291,-27.0904 156.975,-28.9749 L157,-30 " stroke-linecap="round" fill="none" stroke="#4dabf7" stroke-width="3" stroke-dasharray="none" stroke-dashoffset="0"/></g></g></svg>