<svg xmlns="http://www.w3.org/2000/svg" direction="ltr" width="3437.693452140554" height="3152.9649173224534" viewBox="1696.6083779424648 24687.51533991631 3437.693452140554 3152.9649173224534" stroke-linecap="round" stroke-linejoin="round" style="background-color: transparent;"><defs/><g transform="matrix(1, 0, 0, 1, 1761.046, 26250.6539) scale(4.325250268446951, 4.325250268446951)" opacity="1"><g transform="scale(0.23120049429164374)"><path d="M-4.4904,-5.6143 T0.6344,-9.6941 13.678,-19.8383 28.2208,-32.1535 43.0751,-45.0356 55.7205,-54.3927 68.54,-63.2782 83.7652,-75.742 103.3619,-94.6468 126.2324,-116.2777 142.2608,-131.786 153.532,-143.9278 163.7149,-154.6454 176.0211,-167.4232 187.5555,-179.3445 198.4921,-190.5607 209.8485,-201.056 220.4706,-211.601 230.6294,-222.8837 238.8157,-231.3768 247.1992,-239.9624 255.6863,-248.5975 264.2302,-257.2596 272.8007,-265.9307 283.8907,-278.6987 294.823,-291.6046 303.1584,-300.4946 311.6181,-309.286 319.764,-318.6311 328.1048,-328.6951 336.9405,-338.5409 345.6864,-347.852 355.8155,-357.265 368.9451,-370.3768 380.5433,-383.0494 389.0622,-391.8386 399.0882,-400.9733 409.0518,-410.5115 417.9445,-420.2586 428.5748,-430.2875 438.8802,-440.3079 447.9503,-450.3246 457.199,-460.1114 467.1784,-470.4275 477.5339,-480.9998 487.0553,-490.6801 497.5972,-500.3108 507.801,-510.1315 518.227,-520.4697 530.2139,-531.4802 540.7997,-542.6665 551.8784,-554.1234 564.1589,-565.7313 575.2926,-576.6351 585.2285,-586.5225 596.0077,-596.3061 606.7698,-605.6226 616.0219,-614.2204 624.9469,-622.8528 634.3867,-631.0734 643.3905,-638.4811 650.9925,-646.3825 659.0967,-655.6776 667.972,-665.2288 679.2048,-678.4578 693.2309,-695.3558 704.2503,-707.3581 712.141,-715.069 721.1077,-722.8344 732.1003,-733.4973 744.5988,-748.5684 758.1272,-764.9025 769.5211,-779.4601 778.4246,-792.6608 787.4927,-803.9088 796.502,-814.2319 804.6518,-823.9794 813.1953,-834.508 822.6007,-844.9118 831.4176,-854.0624 839.3388,-863.2311 846.7706,-870.9623 857.386,-881.7434 868.0864,-892.5177 877.4236,-903.3596 887.3614,-916.7382 896.0536,-928.7717 905.5499,-943.1315 913.5241,-956.4432 923.7357,-968.7413 935.3775,-979.4165 939.4028,-982.2636 A11.9907,11.9907 0 0 1 955.0572,-964.0964 T951.6465,-960.536 944.2779,-952.0179 937.5026,-942.0671 931.6738,-932.2246 923.5248,-918.9821 914.4253,-905.7415 905.1087,-893.5491 896.008,-881.3132 888.3032,-872.4393 877.7127,-861.736 867.3325,-851.1766 858.0932,-841.3737 848.7192,-830.89 840.3585,-822.0647 832.4965,-813.0889 823.7703,-802.458 812.7926,-790.4229 802.4996,-777.4627 794.9044,-766.007 785.6578,-754.6801 772.7039,-739.3068 762.4774,-725.8452 755.2915,-717.1822 743.8182,-706.1147 731.7488,-694.7915 720.805,-684.676 710.5908,-673.7381 703.6251,-664.858 696.2634,-655.8161 688.1334,-646.3344 679.6643,-637.3904 670.384,-627.1174 656.7098,-614.5411 643.4891,-603.3343 634.02,-594.48 623.896,-585.4238 613.4186,-576.7685 603.3089,-567.9771 593.0211,-558.1455 581.307,-547.159 569.6465,-536.643 558.5875,-525.5325 546.5709,-513.3015 535.0826,-503.1675 524.2546,-492.7972 513.5331,-482.7362 503.782,-474.0546 494.2105,-464.5139 483.8638,-454.1412 473.9737,-444.118 464.9331,-434.715 454.8259,-423.8458 444.2691,-413.6481 434.7173,-404.7261 424.7187,-394.0406 414.3715,-384.2209 405.2709,-376.037 396.901,-367.4909 388.7923,-359.0273 380.3314,-349.8599 370.9214,-340.94 361.7239,-332.5953 353.2016,-323.7381 344.7975,-314.636 335.9616,-304.2731 327.0503,-294.2711 318.6709,-285.7643 310.5808,-277.3579 303.0521,-269.1566 295.7043,-260.2997 287.5998,-251.1755 278.947,-242.5926 270.3366,-234.0419 261.8,-225.5426 253.4079,-217.1423 245.2981,-208.9315 237.7325,-201.1074 226.6636,-190.5159 212.2113,-176.8515 201.0518,-165.923 189.2775,-154.3441 176.7597,-141.9431 166.429,-131.5852 154.3115,-119.2628 137.6087,-103.8771 110.5771,-79.9935 85.5016,-57.9461 72.7571,-47.6229 60.171,-39.0366 44.8112,-28.0281 33.5469,-17.972 22.2288,-8.2833 9.5966,1.5112 4.4904,5.6143 A7.1892,7.1892 0 0 1 -4.4904,-5.6143 Z" stroke-linecap="round" fill="#4dabf7"/></g></g><g transform="matrix(1, 0, 0, 1, 1748.0702, 26242.0034) scale(4.325250268446951, 4.325250268446951)" opacity="1"><g transform="scale(0.23120049429164374)"><path d="M1.0409,-8.3175 T9.2241,-7.2959 22.6468,-5.7666 38.0627,-4.9305 58.8789,-4.6029 75.5822,-4.6475 87.9072,-4.7335 116.4809,-6.9732 153.6009,-11.3661 178.5133,-14.7734 196.0687,-16.6395 210.6097,-17.6645 223.461,-18.2325 234.5259,-19.4987 245.4228,-21.231 261.8489,-22.4344 280.843,-23.099 295.3189,-23.2899 308.0397,-23.397 319.8887,-23.4501 331.2863,-22.3392 345.6153,-20.4987 364.5067,-18.4234 380.4002,-16.5699 396.3601,-15.6628 412.991,-15.1958 424.2814,-15.124 435.3659,-15.1078 447.3577,-13.9943 458.7356,-12.4495 469.8838,-10.5863 485.6681,-8.3285 501.0666,-7.3595 517.2841,-7.142 538.7423,-7.1001 560.3202,-7.1636 581.9343,-7.2021 602.5359,-7.2163 621.2925,-7.2346 635.9358,-8.0862 650.9556,-9.9511 669.1218,-11.2368 686.6447,-11.5771 704.0082,-11.6908 721.3257,-11.7425 738.6306,-11.783 755.9518,-11.8269 771.0653,-10.7266 786.1857,-8.8754 802.8081,-9.4567 819.8792,-11.1609 838.2648,-13.2041 853.7437,-15.1894 866.2886,-15.6938 879.0099,-15.9632 892.8872,-16.1069 907.3327,-15.0703 920.0245,-13.5231 935.6057,-12.6055 952.0246,-10.9283 967.5426,-8.8444 982.8441,-6.6142 999.1067,-3.2349 1009.0205,-1.2275 A9.9551,9.9551 0 0 1 1006.5395,18.5275 T1000.9617,18.2107 989.8874,17.5822 974.6934,15.984 959.529,14.0762 944.411,12.3467 929.2473,10.9726 912.0926,9.1978 893.0869,7.7333 879.4763,7.8467 867.2069,8.0653 851.0754,8.912 831.1721,10.9936 813.4134,12.9853 794.5761,14.2538 774.1231,13.3815 755.9137,11.8282 738.6365,11.7879 721.3469,11.7599 704.0843,11.7533 686.9193,11.802 670.1259,12.0465 654.7395,12.8667 638.9304,14.6979 621.2915,15.8937 602.5328,15.873 581.9237,15.8504 560.2824,15.7814 538.608,15.6082 521.9549,15.3936 511.0052,15.1587 499.9041,14.7798 488.6158,14.1096 472.5787,11.6322 451.4588,7.9635 435.1924,6.2956 424.0436,6.1753 412.55,5.9879 400.4028,5.6849 389.0879,5.1633 372.7463,3.1744 352.4578,1.0621 334.2185,-0.918 319.9059,-2.4291 308.1539,-2.4095 295.5046,-2.379 281.2537,-2.3085 267.8573,-2.1278 252.9681,-1.2211 236.6691,0.7012 224.2142,1.9772 211.8495,2.347 197.9469,3.1013 180.9345,4.6116 155.7804,7.6109 117.3114,11.4977 87.8616,13.3189 75.4854,13.1658 58.5854,12.8361 36.9859,12.0539 20.7576,10.9421 7.1417,9.344 -1.0409,8.3175 A8.3823,8.3823 0 0 1 1.0409,-8.3175 Z" stroke-linecap="round" fill="#4dabf7"/></g></g><g transform="matrix(1, 0, 0, 1, 2716.9263, 25268.8221) scale(4.325250268446951, 4.325250268446951)" opacity="1"><g transform="scale(0.23120049429164374)"><path d="M6.5591,-0.2345 T7.8554,28.3981 10.9293,76.0373 13.7289,109.3226 16.3522,134.89 19.8485,156.1488 22.8524,174.8096 25.533,191.7421 28.0524,208.937 32.5523,249.9599 38.0241,308.3496 40.9646,352.6159 41.512,384.511 40.781,408.5946 40.3901,429.1504 40.1873,448.1423 40.0825,465.3139 40.0145,482.5386 39.9631,498.7781 39.933,513.4738 39.9279,528.3763 39.9512,543.391 40.0055,557.4411 40.0937,570.9826 40.1843,584.2585 40.2655,597.3921 40.3581,611.4723 40.4383,625.0406 39.4132,638.131 37.6198,654.8555 36.7391,669.9823 35.3882,686.9781 33.4333,708.62 32.4893,728.3361 32.255,746.8437 32.2157,761.1355 32.2146,776.0387 32.2218,794.4399 32.2393,808.7188 32.2762,823.6161 32.3162,838.6282 32.3702,854.7567 32.4682,876.1398 32.61,897.6976 32.74,914.5751 33.7673,926.0454 35.3585,937.1282 36.2625,949.0048 36.6573,961.4978 36.7685,973.1576 37.5152,986.8548 39.0684,1005.2227 39.8837,1015.2451 A9.6766,9.6766 0 0 1 20.6763,1017.6149 T19.161,1008.7472 16.2085,989.3581 14.6226,973.5912 14.2772,962.3089 13.3402,945.6546 11.5361,927.869 10.52,914.5984 10.65,897.6976 10.7919,876.1397 10.89,854.7566 10.9442,838.6278 10.9852,823.6148 11.0239,808.7157 11.0477,794.43 11.0796,776.0076 11.1621,756.6012 11.377,737.3652 11.7097,722.8328 12.2228,711.6207 13.1884,700.1534 14.8952,684.8098 16.4416,664.0312 17.5089,647.5188 19.0988,636.4489 20.1219,625.0187 20.2023,611.472 20.2953,597.3915 20.3772,584.2575 20.4692,570.9808 20.56,557.4377 20.6191,543.3851 20.6518,528.3647 20.6642,513.4521 20.6676,498.7411 20.6796,482.4712 20.7319,465.1855 20.8555,447.9274 21.0861,428.7648 21.5174,407.976 22.3467,384.6612 21.9774,353.7939 19.301,310.021 14.1148,251.8215 10.0316,211.3676 7.9055,194.2989 5.6572,177.2698 3.1949,158.6643 0.196,136.3866 -1.7417,110.3967 -3.7104,76.9049 -5.8073,28.8869 -6.5591,0.2345 A6.5633,6.5633 0 0 1 6.5591,-0.2345 Z" stroke-linecap="round" fill="#4dabf7"/></g></g><g transform="matrix(1, 0, 0, 1, 1929.7308, 26103.5954) scale(4.325250268446951, 4.325250268446951)" opacity="1"><g transform="scale(0.23120049429164374)"><path d="M7.9254,-5.4493 T19.4852,10.708 37.5164,37.8085 47.7273,58.158 53.4448,74.7085 56.0021,93.908 54.9341,111.1328 48.7304,125.04 44.1742,133.7777 A10.383,10.383 0 0 1 25.0258,125.7423 T26.5597,121.0156 30.2686,109.8037 32.4206,95.4458 31.0812,81.4632 27.2544,67.3734 19.3546,48.9957 3.0201,22.0236 -7.9254,5.4493 A9.6181,9.6181 0 0 1 7.9254,-5.4493 Z" stroke-linecap="round" fill="#4dabf7"/></g></g><g transform="matrix(1, 0, 0, 1, 2059.4883, 26060.3429) scale(4.325250268446951, 4.325250268446951)" opacity="1"><g transform="scale(0.23120049429164374)"><path d="M8.6173,2.5862 T5.7397,12.8728 0.2946,30.8599 -3.3573,44.9031 -4.9957,57.576 -5.827,69.3186 -10.3455,77.7417 -3.5749,80.091 13.6567,77.5216 28.052,73.055 36.2275,70.4964 A7.8344,7.8344 0 0 1 41.6325,85.2036 T33.7459,88.548 17.6627,95.2825 -2.9911,100.292 -21.3909,92.8116 -27.0537,78.5093 -26.2787,67.5082 -24.8713,54.5388 -22.2615,39.7336 -17.8526,24.9271 -11.8793,7.5845 -8.6173,-2.5862 A8.997,8.997 0 0 1 8.6173,2.5862 Z" stroke-linecap="round" fill="#4dabf7"/></g></g><g transform="matrix(1, 0, 0, 1, 2076.7893, 26107.9207) scale(4.325250268446951, 4.325250268446951)" opacity="1"><g transform="scale(0.23120049429164374)"><path d="M0,8.6689 T-7.1612,8.9983 -20.1421,9.5282 -34.2509,9.7316 -47.22,9.6492 -51.9,9.5641 A9.5641,9.5641 0 0 1 -51.9,-9.5641 T-47.22,-9.6492 -34.2509,-9.7316 -20.1421,-9.5282 -7.1612,-8.9983 0,-8.6689 A8.6689,8.6689 0 0 1 0,8.6689 Z" stroke-linecap="round" fill="#4dabf7"/></g></g><g transform="matrix(1, 0, 0, 1, 2665.0233, 25346.6766) scale(4.325250268446951, 4.325250268446951)" opacity="1"><g transform="scale(0.23120049429164374)"><path d="M-9.8663,-3.3223 T-6.8077,-8.4453 14.0742,-31.3699 40.4096,-58.109 55.5121,-73.9362 67.8575,-85.769 77.0705,-94.8521 84.6613,-103.5429 94.1071,-116.3051 103.4764,-128.6682 111.3283,-136.6077 121.9924,-147.8506 132.6823,-158.9269 143.1804,-169.1187 156.3538,-182.2534 167.2513,-192.19 177.7382,-202.6259 188.3009,-213.3247 199.4527,-223.6526 212.6315,-236.9617 225.3296,-250.355 235.3813,-261.5359 243.8009,-269.7408 255.1213,-280.286 268.4028,-293.6359 281.4021,-306.8242 295.5544,-320.7002 307.9685,-331.5744 316.6186,-338.5799 324.6635,-345.8599 333.0232,-353.8091 342.1007,-361.5795 350.9387,-368.7397 359.0891,-376.1207 368.0864,-383.6073 376.8752,-390.6306 384.9801,-397.9281 393.3701,-405.8814 402.4803,-413.6548 411.3399,-420.8158 419.497,-428.1784 429.3822,-436.5648 439.7002,-445.119 448.7608,-453.3424 457.6059,-461.7623 466.3422,-470.2998 475.0104,-478.9051 486.124,-491.6111 497.0776,-504.4799 508.1687,-516.1601 521.4199,-531.3349 531.8182,-543.7238 542.5077,-556.5543 553.2478,-569.4595 564.617,-581.9766 579.0672,-595.6971 591.2418,-605.4785 600.7224,-613.7028 612.2918,-624.3033 619.3421,-630.7682 A11.1345,11.1345 0 0 1 634.9779,-614.9118 T631.4833,-611.2266 622.5123,-601.8631 611.795,-591.3683 600.3974,-582.0041 588.3692,-572.2636 578.9359,-562.2093 571.5331,-553.2098 564.3054,-545.1597 557.3364,-536.4024 546.6038,-523.6863 535.9192,-511.1478 525.5866,-499.5049 514.8502,-488.3613 507.3381,-480.1874 499.8884,-471.2868 491.5962,-462.0724 482.7236,-453.4159 473.7029,-444.7258 464.3809,-435.9831 454.4962,-427.1673 444.392,-418.9163 434.9301,-410.9415 422.0004,-400.0591 409.146,-389.1138 400.2371,-380.7724 387.2303,-369.9874 374.2407,-359.1996 361.322,-348.3437 348.4937,-337.4205 339.6449,-329.106 326.8673,-318.4529 314.3074,-307.9248 303.0259,-298.0652 289.3715,-285.7223 276.0154,-272.6361 262.0017,-259.0293 251.2262,-248.1965 244.0127,-239.8371 233.1588,-229.3839 219.2091,-216.9068 205.0489,-203.5107 194.09,-192.9126 183.1122,-182.4872 169.0783,-169.3414 155.4811,-156.259 141.3369,-143.3745 130.6267,-132.6362 120.2738,-121.9003 110.501,-111.1015 103.9999,-101.8882 96.2989,-92.9517 87.7254,-83.8934 77.916,-74.8244 65.8159,-63.8629 50.0593,-48.0872 24.205,-22.9508 4.2872,-1.7856 1.2063,3.3223 A6.4567,6.4567 0 0 1 -9.8663,-3.3223 Z" stroke-linecap="round" fill="#ffc034"/></g></g><g transform="matrix(1, 0, 0, 1, 2712.6011, 26242.0034) scale(4.325250268446951, 4.325250268446951)" opacity="1"><g transform="scale(0.23120049429164374)"><path d="M3.1183,-7.0171 T12.3219,-2.9346 28.9105,3.06 43.1329,5.9461 55.6267,7.4358 67.2447,8.1596 78.4191,8.4483 98.5888,8.4191 123.525,8.1999 139.7847,8.0191 151.4152,7.8959 164.7111,7.7655 177.9645,8.8034 189.4787,10.5401 203.218,12.2916 216.2543,13.9352 232.2352,14.8014 248.7415,16.3509 262.3469,18.2841 280.2587,20.3542 298.6277,22.4027 312.5187,22.5064 326.1967,20.9411 343.0337,19.7421 360.2582,19.4253 375.4398,19.3306 391.8276,17.7897 408.6271,14.9589 425.5267,12.5308 441.6558,9.6443 456.0492,7.303 468.9876,5.883 479.9456,4.1857 493.4946,2.8473 507.7753,0.7517 519.6795,-1.234 534.3628,-1.8597 551.6342,-0.5636 564.5867,2.4839 575.4453,6.7282 581.3134,9.4644 A10.7151,10.7151 0 0 1 574.5201,29.7893 T570.9401,28.6349 561.9825,25.0826 550.2007,21.2341 535.1346,20.0347 519.6321,21.0029 503.8667,23.1535 488.1955,25.1426 473.2477,27.1718 458.4647,29.0909 444.4075,31.4149 429.4694,34.0655 413.2546,36.4367 397.2336,39.6408 383.1457,41.2644 368.9856,41.3042 352.1454,41.4151 336.4764,41.8451 322.3578,43.6257 305.0524,44.5296 287.0646,42.2892 269.5488,40.0204 251.3449,37.7177 236.1153,35.7402 224.9002,35.1005 213.5349,33.9775 196.65,31.664 179.1678,28.4855 164.6153,26.798 151.3566,26.6213 139.7065,26.4237 123.4317,26.1019 98.2737,25.615 77.7335,25.0779 66.0051,24.4028 53.5782,23.2977 39.8594,21.3171 23.7562,17.6182 6.092,11.1175 -3.1183,7.0171 A7.6788,7.6788 0 0 1 3.1183,-7.0171 ZM587.7953,23.7775 T586.216,26.8337 584.6368,29.8898 A10.1708,10.1708 0 0 1 565.8832,22.0102 T566.9608,18.7432 568.0383,15.4762 A10.7151,10.7151 0 0 1 587.7953,23.7775 Z" stroke-linecap="round" fill="#ffc034"/></g></g><g transform="matrix(1, 0, 0, 1, 3300.8351, 24719.5153) scale(4.325250268446951, 4.325250268446951)" opacity="1"><g transform="scale(0.23120049429164374)"><path d="M5.6012,0 T5.8669,27.6185 6.3553,72.8616 6.7855,105.9117 7.1734,132.5337 7.5147,152.7007 7.7845,169.4682 7.9808,184.442 7.1632,219.0833 5.8383,266.0183 4.1811,300.1363 2.3409,325.3193 1.4505,344.4334 1.035,360.5803 0.8611,375.1993 -0.2443,390.648 -1.7894,405.9772 -2.5047,420.6018 -2.8255,435.4442 -2.9279,451.4535 -2.9355,468.067 -2.9033,483.9971 -3.923,501.1776 -5.4571,518.4106 -6.2161,534.0695 -6.6202,548.4672 -6.8156,563.1859 -6.9114,578.0985 -6.9568,593.1228 -6.9615,609.2207 -6.9436,625.8885 -6.8986,642.8556 -6.8254,658.9588 -6.7444,674.6063 -6.6536,691.0353 -6.5639,706.8629 -7.5708,722.1203 -9.0865,736.3109 -9.799,749.1536 -10.172,762.0397 -10.3611,774.9645 -10.453,787.9115 -10.4809,801.8904 -10.4745,816.419 -10.4637,830.2153 -10.4518,843.6226 -10.4405,856.8276 -10.4205,869.9343 -11.4716,883.8457 -12.9981,897.3114 -13.7063,909.6798 -14.085,921.3307 -14.2706,932.5781 -14.3468,944.6161 -14.3862,956.083 -14.4112,967.2419 -14.4225,984.008 -14.4159,1001.0277 -14.3979,1012.4068 -14.3631,1028.1058 -14.3007,1049.2439 -14.2368,1069.7097 -14.1909,1085.0201 -14.1514,1100.2074 -14.1144,1118.7678 -14.0796,1137.4419 -14.043,1155.1235 -14.0095,1168.2734 -13.9658,1181.8366 -13.8878,1199.7708 -13.7986,1217.7326 -13.7338,1234.1947 -13.7011,1250.1498 -12.177,1264.1194 -10.1675,1277.9509 -9.5481,1296.2031 -9.3969,1312.749 -9.356,1327.2162 -9.3265,1342.6977 -9.3064,1355.3494 -9.2724,1368.235 -9.2189,1384.3106 -9.1736,1400.2488 -9.1443,1414.0467 -9.1232,1426.7119 -9.1069,1439.0611 -9.1027,1451.8624 -9.2058,1472.49 -9.3677,1493.093 -9.4999,1505.9737 -9.6898,1520.2072 -9.8768,1533.8882 -9.9439,1539.79 A11.6861,11.6861 0 0 1 -33.3161,1539.79 T-33.3832,1533.8882 -33.5702,1520.2072 -33.7601,1505.9737 -33.8923,1493.093 -34.0542,1472.49 -34.1573,1451.8624 -34.1531,1439.0611 -34.1368,1426.7119 -34.1157,1414.0468 -34.0865,1400.2489 -34.0414,1384.3111 -33.989,1368.2377 -33.9584,1355.3571 -33.9508,1342.7209 -33.9663,1327.2788 -34.0044,1312.8859 -34.1377,1296.8809 -34.6255,1280.2966 -36.6028,1266.0601 -38.1989,1250.3307 -38.1662,1234.1947 -38.1014,1217.7326 -38.0122,1199.7708 -37.9342,1181.8366 -37.8905,1168.2734 -37.857,1155.1235 -37.8204,1137.4419 -37.7856,1118.7678 -37.7486,1100.2073 -37.709,1085.02 -37.663,1069.7095 -37.5986,1049.2433 -37.5343,1028.1033 -37.4964,1012.4017 -37.4732,1001.0181 -37.4535,989.1231 -37.4388,978.1993 -37.4143,967.1719 -37.3724,955.9587 -37.2849,944.3875 -37.1203,932.1146 -36.849,920.5222 -36.3607,908.2475 -35.4238,894.6299 -33.8287,882.0772 -32.8337,869.9088 -32.8086,856.8193 -32.7875,843.6072 -32.7569,830.187 -32.7108,816.3683 -32.6375,801.7873 -32.5382,787.7073 -32.3889,774.5799 -32.1201,761.3188 -31.6244,747.816 -30.6886,733.876 -29.0764,720.5364 -28.0345,706.8455 -27.9433,691.0335 -27.8498,674.6027 -27.7636,658.9524 -27.6805,642.8441 -27.6167,625.8663 -27.5631,609.1772 -27.5002,593.0339 -27.4172,577.9339 -27.2695,562.8622 -27.0028,547.8618 -26.53,533.0348 -25.6251,516.5301 -24.0018,499.9087 -22.9077,483.9041 -22.7418,467.9191 -22.4956,451.1498 -22.1166,434.8689 -21.5238,419.4941 -20.5055,403.9579 -18.761,389.2333 -17.5107,374.8312 -17.1008,359.9755 -16.4084,343.4844 -15.1967,323.9578 -13.0482,299.1097 -11.0138,265.4693 -9.2113,218.7716 -7.9808,184.4418 -7.7845,169.4682 -7.5147,152.7007 -7.1734,132.5337 -6.7855,105.9117 -6.3553,72.8616 -5.8669,27.6185 -5.6012,0 A5.6012,5.6012 0 0 1 5.6012,0 ZM-33.3161,1539.79 T-33.0659,1533.3 -32.8156,1526.81 A11.1856,11.1856 0 0 1 -10.4444,1526.81 T-10.1941,1533.3 -9.9439,1539.79 A11.6861,11.6861 0 0 1 -33.3161,1539.79 Z" stroke-linecap="round" fill="#ffc034"/></g></g><g transform="matrix(1, 0, 0, 1, 2210.872, 25351.0019) scale(4.325250268446951, 4.325250268446951)" opacity="1"><g transform="scale(0.23120049429164374)"><path d="M6.3183,-9.7448 T12.6478,-2.7473 26.7097,14.2651 39.8893,34.096 50.0135,51.6218 60.4199,69.7589 62.9718,86.4636 61.9562,87.6025 66.1965,76.3096 69.6788,62.8583 74.8731,46.304 78.6635,37.0466 A9.9273,9.9273 0 0 1 96.8348,45.0471 T93.8913,51.6327 89.3225,67.3693 86.0116,81.8434 77.0525,99.3374 58.7544,100.746 42.4547,79.7271 32.6169,61.2233 23.7318,44.1627 12.4905,25.542 -0.3734,8.4097 -6.3183,1.0848 A8.3212,8.3212 0 0 1 6.3183,-9.7448 ZM94.1858,33.489 T96.5054,35.4578 103.5534,44.7973 112.6816,57.9033 120.3168,67.8901 128.6369,74.8633 140.5914,73.3833 150.5409,66.2466 153.6203,63.3119 A8.7036,8.7036 0 0 1 166.4397,75.0881 T161.4915,81.3108 151.412,92.3718 136.0753,97.1747 120.6192,94.745 108.9564,85.3705 96.588,70.2266 87.9259,57.0043 83.2662,50.2752 81.3125,48.6046 A9.9273,9.9273 0 0 1 94.1858,33.489 Z" stroke-linecap="round" fill="#ffc034"/></g></g><g transform="matrix(1, 0, 0, 1, 2366.581, 25346.6766) scale(4.325250268446951, 4.325250268446951)" opacity="1"><g transform="scale(0.23120049429164374)"><path d="M7.1841,-3.592 T11.3347,4.5613 18.7108,19.0431 25.4076,30.2463 33.8713,39.648 41.0706,35.8972 38.0186,21.1526 30.6055,11.923 28.4514,9.1601 A7.8189,7.8189 0 0 1 40.7486,-0.5001 T43.1791,2.5731 52.2291,16.0676 58.6981,31.8113 54.4481,46.94 40.9309,57.9734 26.4954,56.067 18.2862,48.7813 11.1226,38.7107 4.0155,26.4047 -3.1518,11.8045 -7.1841,3.592 A8.032,8.032 0 0 1 7.1841,-3.592 ZM40.2448,-1.0803 T42.2281,0.9723 50.8789,7.9188 67.165,18.6023 82.2983,28.1021 93.1113,36.0304 105.3992,46.5936 117.3941,58.6696 125.5853,71.4684 130.318,85.5137 132.6223,98.1416 133.7766,110.1167 132.0734,123.3713 126.4945,136.0142 117.6279,147.1628 104.591,156.8112 90.0636,163.9593 74.6647,168.6291 57.0497,169.9342 41.0311,168.056 29.1225,164.5819 19.3738,160.5539 14.6088,158.5507 A7.6591,7.6591 0 0 1 19.9912,144.2093 T28.5942,147.0687 42.8572,150.7745 55.5403,151.67 69.0967,150.4747 81.7917,146.5137 93.4053,141.1709 102.7944,134.8809 110.9261,124.0886 114.238,106.6223 110.7543,86.2325 104.0447,71.2397 93.5104,60.1587 82.4532,50.0718 72.2588,42.1067 62.5786,34.8694 52.8093,28.4239 40.2679,19.7929 31.1669,12.0645 28.9552,9.7403 A7.8189,7.8189 0 0 1 40.2448,-1.0803 Z" stroke-linecap="round" fill="#ffc034"/></g></g><g transform="matrix(1, 0, 0, 1, 2461.7365, 25303.4241) scale(4.325250268446951, 4.325250268446951)" opacity="1"><g transform="scale(0.23120049429164374)"><path d="M5.3488,-4.0114 T20.9471,16.2577 44.8838,48.3455 58.3963,66.2289 65.0305,77.0549 66.4906,81.8159 A7.7763,7.7763 0 0 1 51.3181,85.2339 T51.3012,83.4384 45.892,75.2664 32.6654,57.1008 9.7412,24.6615 -5.3488,4.0114 A6.6859,6.6859 0 0 1 5.3488,-4.0114 ZM64.6962,88.7139 T63.2894,90.144 61.8826,91.5742 A7.5893,7.5893 0 0 1 50.5774,81.4458 T51.8449,79.8909 53.1124,78.3359 A7.7763,7.7763 0 0 1 64.6962,88.7139 Z" stroke-linecap="round" fill="#ffc034"/></g></g><g transform="matrix(1, 0, 0, 1, 2448.7608, 25290.4484) scale(4.325250268446951, 4.325250268446951)" opacity="1"><g transform="scale(0.23120049429164374)"><path d="M-6.586,-6.586 T-0.2172,-12.7116 15.9204,-23.0492 33.7652,-29.2419 48.3522,-32.2637 61.974,-31.6748 76.1437,-22.1509 72.7693,-1.5326 53.6469,18.3963 35.9351,33.1324 26.9125,40.6641 A8.0423,8.0423 0 0 1 16.3475,28.5359 T25.0454,20.6313 40.9589,6.0765 56.2801,-10.2614 60.633,-17.2706 51.429,-13.8366 39.1181,-11.6529 25.3279,-7.9681 12.4916,0.4372 6.586,6.586 A9.314,9.314 0 0 1 -6.586,-6.586 Z" stroke-linecap="round" fill="#ffc034"/></g></g><g transform="matrix(1, 0, 0, 1, 3383.0148, 25519.6866) scale(4.325250268446951, 4.325250268446951)" opacity="1"><g transform="scale(0.23120049429164374)"><path d="M9.2807,0 T9.2944,11.2527 9.4208,33.5486 9.6248,51.4358 9.7732,65.9048 9.8304,73.53 A9.8304,9.8304 0 0 1 -9.8304,73.53 T-9.7732,65.9048 -9.6248,51.4358 -9.4208,33.5486 -9.2944,11.2527 -9.2807,0 A9.2807,9.2807 0 0 1 9.2807,0 ZM-9.8304,73.53 T-9.6881,70.1704 1.3511,49.4793 19.2988,24.4896 32.6862,14.0043 47.9614,14.2234 58.9074,24.3237 61.3609,35.0701 61.8069,38.7622 A10.7139,10.7139 0 0 1 40.4798,40.8362 T40.3514,35.996 34.4448,37.269 19.1061,56.0596 9.6881,71.1336 9.8304,73.53 A9.8304,9.8304 0 0 1 -9.8304,73.53 ZM42.3058,33.7424 T44.5465,30.359 49.905,22.2139 61.1253,10.2334 74.6236,0.7162 89.7362,-2.5425 105.1345,-0.5135 115.0316,6.7366 121.8787,16.3343 127.5464,30.7949 131.5685,44.5833 132.5546,49.2482 A11.7478,11.7478 0 0 1 109.6654,54.5518 T107.8207,46.9018 103.6569,32.8278 97.7421,21.9748 86.9142,20.0529 75.4579,26.1013 68.0047,34.3653 62.3782,42.4721 59.9809,45.856 A10.7139,10.7139 0 0 1 42.3058,33.7424 Z" stroke-linecap="round" fill="#ffc034"/></g></g><g transform="matrix(1, 0, 0, 1, 3556.0249, 25554.2886) scale(4.325250268446951, 4.325250268446951)" opacity="1"><g transform="scale(0.23120049429164374)"><path d="M-7.1418,-5.4989 T-1.9754,-12.3321 3.191,-19.1652 A9.1638,9.1638 0 0 1 17.7128,-7.984 T12.4273,-1.2426 7.1418,5.4989 A9.0135,9.0135 0 0 1 -7.1418,-5.4989 ZM13.7291,-5.0168 T11.3542,-4.218 13.1716,5.3372 23.1275,15.983 34.7515,16.254 45.6982,10.2683 49.5443,-3.7435 45.7637,-18.0784 38.7378,-29.4483 31.6681,-39.6359 29.084,-43.1441 A7.0784,7.0784 0 0 1 40.116,-52.0159 T42.9881,-48.7393 51.678,-38.3837 61.3365,-25.3205 67.935,-11.9355 70.7719,1.4729 68.624,12.846 62.0612,22.9491 50.7918,30.9116 33.2805,34.9917 12.8016,30.789 -4.3145,13.4575 -6.2723,-8.7956 3.0799,-20.4537 7.1748,-22.1324 A9.1638,9.1638 0 0 1 13.7291,-5.0168 Z" stroke-linecap="round" fill="#ffc034"/></g></g><g transform="matrix(1, 0, 0, 1, 3681.4571, 25415.8806) scale(4.325250268446951, 4.325250268446951)" opacity="1"><g transform="scale(0.23120049429164374)"><path d="M6.5887,0.2128 T6.2212,31.9435 6.7709,81.1606 9.2293,108.4736 14.7317,124.1324 27.5414,128.1118 36.3897,126.259 A8.2232,8.2232 0 0 1 41.4703,141.901 T37.6141,143.35 24.5147,146.3108 6.8167,141.3568 -4.725,127.9218 -8.8294,110.043 -9.8984,81.1495 -8.2693,31.4764 -6.5887,-0.2128 A6.5922,6.5922 0 0 1 6.5887,0.2128 Z" stroke-linecap="round" fill="#ffc034"/></g></g><g transform="matrix(1, 0, 0, 1, 3698.7581, 25493.7351) scale(4.325250268446951, 4.325250268446951)" opacity="1"><g transform="scale(0.23120049429164374)"><path d="M-3.4817,5.2232 T-12.9474,-0.4366 -32.4002,-9.0303 -54.5995,-15.6755 -66.8117,-19.3867 A6.8416,6.8416 0 0 1 -62.9483,-32.5133 T-50.6728,-29.0174 -26.406,-21.987 -5.4665,-11.8378 3.4817,-5.2232 A6.2773,6.2773 0 0 1 -3.4817,5.2232 Z" stroke-linecap="round" fill="#ffc034"/></g></g><g transform="matrix(1, 0, 0, 1, 2331.979, 26354.4599) scale(4.325250268446951, 4.325250268446951)" opacity="1"><g transform="scale(0.23120049429164374)"><path d="M6.8325,-0.5061 T9.6319,27.0566 14.0855,73.3001 16.7533,102.8342 18.1933,118.3143 18.6199,122.9411 A10.6587,10.6587 0 0 1 -2.6543,124.2981 T-2.8265,119.5364 -3.1217,103.9266 -3.7465,74.4666 -5.5404,28.1804 -6.8325,0.5061 A6.8512,6.8512 0 0 1 6.8325,-0.5061 ZM11.6133,113.5983 T12.7986,114.0169 13.9839,114.4355 A10.679,10.679 0 0 1 6.709,134.5164 T5.5307,134.0787 4.3523,133.6409 A10.6587,10.6587 0 0 1 11.6133,113.5983 ZM1.1035,119.1271 T2.7519,116.2742 7.8449,109.1573 22.9527,96.0156 42.5567,83.2778 56.4801,79.3147 62.4628,79.2116 A10.8694,10.8694 0 0 1 60.2421,100.8367 T59.1813,100.0102 52.6961,101.7149 35.0712,114.2048 21.2301,126.9941 19.5894,129.8248 A10.679,10.679 0 0 1 1.1035,119.1271 ZM70.7986,84.6469 T72.7076,87.8772 78.3924,100.186 82.9922,118.7323 83.8849,132.945 83.9537,137.6901 A10.4485,10.4485 0 0 1 63.1063,139.1299 T62.5221,134.4205 61.0637,122.3545 57.8508,108.4901 53.7092,98.6918 51.9063,95.4013 A10.8694,10.8694 0 0 1 70.7986,84.6469 Z" stroke-linecap="round" fill="#ffc034"/></g></g><g transform="matrix(1, 0, 0, 1, 2466.0618, 26445.2902) scale(4.325250268446951, 4.325250268446951)" opacity="1"><g transform="scale(0.23120049429164374)"><path d="M-9.387,-4.6989 T-8.3852,-6.7558 -7.3833,-8.8126 A10.547,10.547 0 0 1 11.4794,0.6297 T10.4332,2.6643 9.387,4.6989 A10.4975,10.4975 0 0 1 -9.387,-4.6989 ZM5.4138,5.9041 T3.0726,6.7154 -4.7045,5.288 -0.53,10.2933 17.1351,17.5497 30.7938,17.0654 34.2649,11.2281 28.1178,4.6435 24.1039,3.3997 A7.9471,7.9471 0 0 1 27.7961,-12.0597 T36.7315,-10.3452 50.4189,-5.6845 58.1316,2.8792 60.5352,15.206 55.3861,27.7479 44.5623,35.7167 30.8885,38.488 10.6226,37.3965 -12.7945,27.9733 -22.1699,10.1501 -14.3645,-5.9672 -4.5472,-13.0225 -1.3176,-14.087 A10.547,10.547 0 0 1 5.4138,5.9041 Z" stroke-linecap="round" fill="#ffc034"/></g></g><g transform="matrix(1, 0, 0, 1, 2574.193, 26423.6639) scale(4.325250268446951, 4.325250268446951)" opacity="1"><g transform="scale(0.23120049429164374)"><path d="M0,-12.5433 T2.0457,-12.5291 4.0915,-12.5148 A12.5148,12.5148 0 0 1 4.0915,12.5148 T2.0457,12.5291 0,12.5433 A12.5433,12.5433 0 0 1 0,-12.5433 ZM16.6036,-0.2599 T16.62,3.6784 28.6189,15.2568 44.7804,29.4252 50.0314,41.6884 51.1033,47.4233 A12.9139,12.9139 0 0 1 25.3795,49.7392 T24.9624,45.9972 17.5481,36.4292 5.4122,27.7334 -3.9178,16.9193 -8.2648,4.6173 -8.4207,0.2599 A12.5148,12.5148 0 0 1 16.6036,-0.2599 ZM44.5626,59.8424 T38.4284,63.2306 23.1009,67.6771 8.0575,67.582 -3.3436,64.4662 -14.6424,60.492 -20.3898,58.4802 A11.3297,11.3297 0 0 1 -14.2102,36.6798 T-8.2619,37.9834 5.0605,40.9158 18.4698,42.0687 28.2126,39.4564 31.9202,37.3202 A12.9139,12.9139 0 0 1 44.5626,59.8424 Z" stroke-linecap="round" fill="#ffc034"/></g></g><g transform="matrix(1, 0, 0, 1, 1864.852, 26799.9607) scale(4.325250268446951, 4.325250268446951)" opacity="1"><g transform="scale(0.23120049429164374)"><path d="M2.5581,10.2324 T-5.6003,12.3715 -19.7039,16.5741 -34.6865,22.0767 -51.622,37.118 -58.0992,55.9072 -51.3614,65.0906 -37.443,69.4061 -22.7155,72.6792 -8.0274,74.4848 0.5344,75.3366 A11.1862,11.1862 0 0 1 -0.5344,97.6834 T-5.2124,97.6817 -19.0114,97.3792 -35.1826,95.208 -47.4116,92.5384 -59.3362,89.4323 -73.1069,79.1775 -81.8613,63.9108 -81.8445,47.1796 -73.4701,26.9597 -62.5414,12.1563 -50.423,5.4036 -37.5603,0.3003 -25.7439,-4.1869 -10.7655,-8.28 -2.5581,-10.2324 A10.5473,10.5473 0 0 1 2.5581,10.2324 Z" stroke-linecap="round" fill="#ffc034"/></g></g><g transform="matrix(1, 0, 0, 1, 1972.9833, 26838.888) scale(4.325250268446951, 4.325250268446951)" opacity="1"><g transform="scale(0.23120049429164374)"><path d="M-8.1786,4.0893 T-9.5257,0.6119 -18.1458,-0.4941 -32.9116,7.308 -44.5539,16.4568 -53.9095,20.1041 -41.2497,24.757 -11.2492,32.3851 8.2238,36.8142 18.2133,30.3741 15.7543,15.6123 7.0047,5.2922 3.365,1.7692 A8.0704,8.0704 0 0 1 13.935,-10.4292 T17.9401,-7.328 26.2827,-0.6839 33.9997,7.6127 39.1142,20.7517 40.8518,34.9782 38.1731,45.993 30.2869,54.4431 18.2717,58.0225 3.7499,56.6476 -16.4986,51.7979 -50.221,41.8191 -70.3011,25.0447 -65.2636,10.4462 -56.6286,1.7833 -46.874,-6.0278 -35.9557,-12.9492 -24.4391,-17.4204 -13.221,-18.9305 -2.4815,-16.306 5.4343,-8.7948 8.1786,-4.0893 A9.1439,9.1439 0 0 1 -8.1786,4.0893 Z" stroke-linecap="round" fill="#ffc034"/></g></g><g transform="matrix(1, 0, 0, 1, 2102.7408, 26817.2617) scale(4.325250268446951, 4.325250268446951)" opacity="1"><g transform="scale(0.23120049429164374)"><path d="M3.806,8.5647 T-5.3637,12.7371 -19.4993,19.4147 -23.7709,22.7162 -23.0766,23.5125 A9.8551,9.8551 0 0 1 -41.4451,16.3649 T-38.6513,11.7658 -29.0759,3.3116 -13.0502,-4.5542 -3.806,-8.5647 A9.3723,9.3723 0 0 1 3.806,8.5647 ZM-26.405,12.0121 T-22.3217,14.9538 -8.4183,27.608 5.9041,44.4466 10.8433,58.6579 8.3647,71.4636 1.1711,81.1607 -9.7344,87.6575 -21.8194,91.9843 -32.9662,94.8409 -43.862,96.2872 -55.0571,95.6538 -68.9477,90.2311 -79.8495,83.6482 -82.8489,81.4583 A9.3727,9.3727 0 0 1 -72.8511,65.6017 T-67.3844,68.5362 -56.5684,72.8059 -42.8162,72.7324 -25.8796,69.2575 -13.1067,64.0257 -11.4383,56.3333 -21.4965,43.284 -33.5504,31.3135 -38.1166,27.8654 A9.8551,9.8551 0 0 1 -26.405,12.0121 Z" stroke-linecap="round" fill="#ffc034"/></g></g><g transform="matrix(1, 0, 0, 1, 2206.5468, 26756.7082) scale(4.325250268446951, 4.325250268446951)" opacity="1"><g transform="scale(0.23120049429164374)"><path d="M6.2383,6.2383 T0.1134,12.3877 -11.2645,23.8443 -21.2736,34.0486 -30.216,44.2905 -37.2926,55.0961 -44.0022,67.0233 -50.6848,78.7216 -48.2601,100.1688 -38.6682,125.4331 -30.678,139.62 -18.6375,153.0712 -10.2833,161.3845 A10.1222,10.1222 0 0 1 -24.3167,175.9755 T-29.2358,171.4301 -39.1978,162.1271 -49.2303,150.5737 -58.6149,134.0683 -69.2092,105.7063 -73.3203,80.4872 -67.9835,68.4784 -60.8335,57.0114 -52.9365,44.3953 -43.9464,31.92 -34.0518,21.2768 -23.8443,11.2645 -12.3877,-0.1134 -6.2383,-6.2383 A8.8223,8.8223 0 0 1 6.2383,6.2383 Z" stroke-linecap="round" fill="#ffc034"/></g></g><g transform="matrix(1, 0, 0, 1, 2284.4013, 26774.0092) scale(4.325250268446951, 4.325250268446951)" opacity="1"><g transform="scale(0.23120049429164374)"><path d="M7.4987,3.088 T0.6545,20.6084 -10.6738,50.4008 -17.2548,71.7515 -20.4001,87.5739 -21.9765,99.5481 -11.4307,108.3485 12.7635,112.3862 25.8841,112.854 A8.2563,8.2563 0 0 1 26.0159,129.366 T12.9043,130.0431 -14.6272,130.2966 -34.4799,123.7919 -41.7402,110.3967 -42.6916,96.7804 -40.2003,83.1018 -35.6273,65.7745 -27.5623,43.627 -14.977,14.1713 -7.4987,-3.088 A8.1096,8.1096 0 0 1 7.4987,3.088 Z" stroke-linecap="round" fill="#ffc034"/></g></g><g transform="matrix(1, 0, 0, 1, 2293.0518, 26838.888) scale(4.325250268446951, 4.325250268446951)" opacity="1"><g transform="scale(0.23120049429164374)"><path d="M0,7.1445 T-12.2743,7.5204 -38.2243,8.1642 -51.9,8.4322 A8.4322,8.4322 0 0 1 -51.9,-8.4322 T-38.2243,-8.1642 -12.2743,-7.5204 0,-7.1445 A7.1445,7.1445 0 0 1 0,7.1445 Z" stroke-linecap="round" fill="#ffc034"/></g></g><g transform="matrix(1, 0, 0, 1, 2357.9305, 26748.0577) scale(4.325250268446951, 4.325250268446951)" opacity="1"><g transform="scale(0.23120049429164374)"><path d="M7.5283,-4.5177 T10.5846,0.6059 18.4806,13.4531 27.3072,29.8472 35.3238,46.7093 42.733,62.519 48.9961,77.2422 53.6453,92.3633 48.0101,123.0392 34.4868,157.9882 21.0646,178.5857 13.7649,186.8942 A11.8158,11.8158 0 0 1 -3.9687,171.2744 T1.4699,165.1208 12.7288,148.2007 26.0467,120.2225 32.5252,97.4877 29.1061,85.0196 23.9456,70.6823 17.4417,54.6487 10.6988,38.2643 3.1688,22.6268 -4.4451,9.6251 -7.5283,4.5177 A8.7798,8.7798 0 0 1 7.5283,-4.5177 ZM-6.8664,180.1846 T-6.8762,177.1218 -6.8859,174.059 A11.2649,11.2649 0 0 1 15.5459,171.961 T16.1043,174.9725 16.6626,177.984 A11.8158,11.8158 0 0 1 -6.8664,180.1846 Z" stroke-linecap="round" fill="#ffc034"/></g></g><g transform="matrix(1, 0, 0, 1, 2483.3628, 26804.286) scale(4.325250268446951, 4.325250268446951)" opacity="1"><g transform="scale(0.23120049429164374)"><path d="M3.7519,-7.5037 T7.9354,-5.6547 17.7576,-2.8396 32.5722,-1.4308 46.974,-0.6324 52.2,-0.2766 A8.9316,8.9316 0 0 1 51.6,17.5766 T41.5348,17.6061 26.0234,17.1386 12.4121,14.315 0.2475,9.7461 -3.7519,7.5037 A8.3894,8.3894 0 0 1 3.7519,-7.5037 Z" stroke-linecap="round" fill="#ffc034"/></g></g><g transform="matrix(1, 0, 0, 1, 2479.0375, 26851.8637) scale(4.325250268446951, 4.325250268446951)" opacity="1"><g transform="scale(0.23120049429164374)"><path d="M0.463,-6.4745 T14.8021,-5.7167 45.1098,-4.009 61.0784,-3.0591 A7.408,7.408 0 0 1 60.0216,11.7191 T44.0803,10.3871 13.838,7.7648 -0.463,6.4745 A6.491,6.491 0 0 1 0.463,-6.4745 Z" stroke-linecap="round" fill="#ffc034"/></g></g><g transform="matrix(1, 0, 0, 1, 3041.3201, 26821.587) scale(4.325250268446951, 4.325250268446951)" opacity="1"><g transform="scale(0.23120049429164374)"><path d="M2.9556,9.8484 T-7.194,13.1949 -32.4583,19.7371 -61.8214,24.7456 -89.7617,27.6029 -116.3046,30.2819 -142.5793,32.9119 -170.2634,34.4634 -198.1626,35.228 -225.1333,35.5457 -279.7992,32.589 -345.5998,27.7633 -383.493,25.7915 -412.4766,25.475 -428.0337,25.3706 A12.3917,12.3917 0 0 1 -428.3663,0.5894 T-412.8177,0.0674 -382.7774,-1.0415 -343.6628,-0.213 -278.8655,4.1613 -225.4637,7.0119 -198.7772,6.6992 -171.4509,6.2675 -144.8022,5.5491 -118.447,3.8718 -91.7138,2.2641 -65.1428,0.8732 -37.6511,-2.1791 -13.2633,-7.0553 -2.9556,-9.8484 A10.2823,10.2823 0 0 1 2.9556,9.8484 Z" stroke-linecap="round" fill="#ffc034"/></g></g><g transform="matrix(1, 0, 0, 1, 2738.5526, 26925.393) scale(4.325250268446951, 4.325250268446951)" opacity="1"><g transform="scale(0.23120049429164374)"><path d="M8.8022,0.4196 T8.3983,21.9305 7.9156,55.7897 6.7928,77.324 5.0909,90.2561 4.433,94.0024 A11.7727,11.7727 0 0 1 -18.6655,89.4371 T-17.9467,86.2183 -15.6598,75.0827 -13.0912,54.8248 -10.4464,21.0321 -8.8022,-0.4196 A8.8122,8.8122 0 0 1 8.8022,0.4196 ZM-16.0522,84.0553 T-14.5309,82.3442 -7.6818,73.6313 1.4045,62.1315 10.7087,53.4719 26.9024,49.7245 43.8703,53.9172 53.9537,62.9214 59.5075,73.4505 63.1011,85.467 64.9044,92.1803 A12.0716,12.0716 0 0 1 42.2655,100.5691 T39.9029,93.0486 34.9436,79.4169 27.7807,70.886 20.2312,74.0939 12.0731,86.5299 4.3589,96.3612 1.8198,99.3843 A11.7727,11.7727 0 0 1 -16.0522,84.0553 ZM51.511,84.4826 T55.0463,84.1778 58.5816,83.8729 A11.4574,11.4574 0 0 1 62.5184,106.4471 T59.0887,107.3569 55.6589,108.2668 A12.0716,12.0716 0 0 1 51.511,84.4826 Z" stroke-linecap="round" fill="#ffc034"/></g></g><g transform="matrix(1, 0, 0, 1, 2842.3586, 26977.296) scale(4.325250268446951, 4.325250268446951)" opacity="1"><g transform="scale(0.23120049429164374)"><path d="M9.3086,-1.8634 T10.4074,3.3016 11.1756,14.5889 10.6361,29.3514 5.448,37.0931 8.5131,34.6441 20.8222,29.3963 27.0797,22.1843 29.0722,18.6693 A9.3872,9.3872 0 0 1 45.6356,27.5085 T43.5295,31.674 37.0804,41.5711 26.5873,50.0011 10.142,54.7091 -4.7789,42.4808 -8.4075,20.1193 -8.3593,6.9294 -9.3086,1.8634 A9.4933,9.4933 0 0 1 9.3086,-1.8634 ZM45.9474,19.311 T47.2173,22.3364 50.745,31.454 56.9898,46.2464 64.0055,59.8893 70.0535,71.1742 75.5748,82.5914 79.8195,94.563 83.2891,107.2766 86.1295,120.131 86.7638,133.9024 84.8397,146.4424 81.2756,156.9284 75.0802,166.1317 65.0575,174.211 49.7983,179.7524 32.15,181.5215 16.2309,179.9408 1.5993,175.3716 -11.8193,168.2018 -23.5222,157.891 -31.516,144.3487 -36.2834,130.7217 -38.3895,124.2914 A8.7112,8.7112 0 0 1 -22.1705,117.9286 T-19.3425,124.0756 -11.6762,137.7484 3.045,150.3532 18.9136,156.4411 30.6604,157.8598 42.2092,157.5568 54.4295,151.4709 62.6683,138.1667 63.8004,124.6821 60.6467,107.9968 55.8147,91.5787 51.1574,80.7373 45.655,69.1992 40.4795,58.447 35.5426,44.4841 30.6723,31.0787 28.7605,26.8668 A9.3872,9.3872 0 0 1 45.9474,19.311 Z" stroke-linecap="round" fill="#ffc034"/></g></g><g transform="matrix(1, 0, 0, 1, 2941.8393, 26990.2717) scale(4.325250268446951, 4.325250268446951)" opacity="1"><g transform="scale(0.23120049429164374)"><path d="M8.5211,-2.8408 T13.9272,12.4093 22.4438,40.2522 28.197,62.1042 32.4004,79.8906 34.7529,93.8985 34.846,105.7537 32.0988,116.4027 30.0501,120.6772 A11.0118,11.0118 0 0 1 10.6737,110.2084 T11.3732,109.3964 12.1376,100.2367 11.1889,84.2816 7.9332,66.9584 3.4099,45.4799 -3.6962,18.279 -8.5211,2.8408 A8.9822,8.9822 0 0 1 8.5211,-2.8408 ZM12.6018,123.2557 T10.0681,120.2667 4.6835,113.9757 1.8326,110.6738 A9.6741,9.6741 0 0 1 15.4674,96.9462 T18.7886,99.7747 25.1159,105.1166 28.122,107.6299 A11.0118,11.0118 0 0 1 12.6018,123.2557 Z" stroke-linecap="round" fill="#ffc034"/></g></g><g transform="matrix(1, 0, 0, 1, 2946.1646, 26981.6212) scale(4.325250268446951, 4.325250268446951)" opacity="1"><g transform="scale(0.23120049429164374)"><path d="M-3.3676,-7.695 T4.1419,-14.9915 23.7097,-26.3549 44.8892,-30.1396 62.3605,-27.3889 76.905,-21.0163 87.6401,-12.5968 93.7038,3.6972 74.2213,22.212 38.0624,29.7164 7.4838,31.2258 -7.9412,31.9669 A10.3612,10.3612 0 0 1 -9.3588,11.2931 T6.0229,9.9217 33.9009,7.4225 62.3313,1.6694 76.1227,2.7913 68.4388,2.8205 57.4477,-5.1494 46.5823,-8.3119 33.4055,-7.7898 18.8358,0.669 12.0276,7.695 A10.8842,10.8842 0 0 1 -3.3676,-7.695 Z" stroke-linecap="round" fill="#ffc034"/></g></g><g transform="matrix(1, 0, 0, 1, 2667.1859, 26635.6012) scale(4.325250268446951, 4.325250268446951)" opacity="1"><g transform="scale(0.23120049429164374)"><path d="M9.9584,0 T10.1382,7.1556 11.5015,21.4905 13.4529,37.2347 14.6812,54.4021 15.4136,71.63 15.868,87.8639 16.1521,102.5545 13.962,123.5363 11.67,137.4359 A12.143,12.143 0 0 1 -11.67,130.7241 T-9.7247,120.2514 -7.7609,102.7496 -7.718,88.1934 -7.7213,72.2213 -7.8575,55.5148 -8.2774,39.3449 -9.4534,22.8852 -10.1382,7.1668 -9.9584,0 A9.9584,9.9584 0 0 1 9.9584,0 ZM-11.6743,130.7392 T-8.9516,121.5032 -1.7621,104.162 7.1898,89.8377 16.6542,78.7788 27.265,70.8727 42.3376,64.065 57.3106,60.6397 67.8695,63.1148 76.6977,70.0342 81.9158,79.7729 84.1794,93.7235 83.6274,113.4957 80.7049,130.0969 79.1812,135.8984 A10.1455,10.1455 0 0 1 59.2188,132.2616 T60.2346,122.1476 60.9718,104.2533 58.6619,89.7863 49.959,85.8898 36.9869,93.0314 27.0047,102.5179 20.0564,113.3205 14.2321,128.2044 11.6743,137.4208 A12.143,12.143 0 0 1 -11.6743,130.7392 Z" stroke-linecap="round" fill="#ffc034"/></g></g><g transform="matrix(1, 0, 0, 1, 2805.5939, 26713.4557) scale(4.325250268446951, 4.325250268446951)" opacity="1"><g transform="scale(0.23120049429164374)"><path d="M8.9317,2.9795 T7.9706,6.0716 3.2331,16.8602 -4.0567,22.3658 4.5422,20.7486 23.8967,19.9851 37.0087,14.8152 40.6504,5.1485 33.5963,-6.0601 28.7704,-11.4351 A8.2693,8.2693 0 0 1 40.4296,-23.1649 T45.8247,-18.3805 56.6555,-5.0575 62.062,9.4495 59.3107,20.6819 52.5543,29.2602 41.5296,35.8116 24.6733,40.3132 -1.6657,39.3238 -17.6624,25.6279 -14.1458,8.6506 -10.0187,0.0679 -8.9317,-2.9795 A9.4156,9.4156 0 0 1 8.9317,2.9795 Z" stroke-linecap="round" fill="#ffc034"/></g></g><g transform="matrix(1, 0, 0, 1, 2939.6767, 26696.1547) scale(4.325250268446951, 4.325250268446951)" opacity="1"><g transform="scale(0.23120049429164374)"><path d="M6.736,6.736 T2.7271,10.864 6.8045,23.1832 20.5613,37.8171 27.0351,50.4608 24.5855,62.0719 16.2419,70.1746 0.4461,72.8778 -18.5289,71.6264 -26.7986,70.3644 A9.851,9.851 0 0 1 -25.1014,50.7356 T-20.4569,50.8569 -6.2606,50.1989 -9.352,39.7839 -22.6543,22.4235 -19.1986,8.0363 -10.91,-2.6811 -6.736,-6.736 A9.5262,9.5262 0 0 1 6.736,6.736 Z" stroke-linecap="round" fill="#ffc034"/></g></g><g transform="matrix(1, 0, 0, 1, 1845.3884, 27440.0978) scale(4.325250268446951, 4.325250268446951)" opacity="1"><g transform="scale(0.23120049429164374)"><path d="M2.1631,5.7605 T-12.1402,8.9003 -34.5401,14.6551 -47.5414,19.4991 -57.3872,25.5274 -61.0446,30.3752 -59.7608,31.4236 A11.0058,11.0058 0 0 1 -81.7662,31.9451 T-80.6621,25.411 -75.6616,14.5451 -66.5182,6.1636 -55.0987,-0.4849 -39.8816,-5.7524 -16.5,-11.4207 -2.1631,-14.4205 A10.3198,10.3198 0 0 1 2.1631,5.7605 ZM-64.3543,22.7373 T-51.1004,32.0802 -31.6999,47.4225 -22.3632,60.3399 -18.7906,72.8782 -18.408,78.4986 A11.8078,11.8078 0 0 1 -42.023,78.3107 T-42.1689,73.6564 -47.2116,63.9455 -64.6405,49.7602 -77.1727,40.6314 A11.0058,11.0058 0 0 1 -64.3543,22.7373 ZM-22.0682,86.9514 T-25.1928,90.0094 -35.7398,96.8571 -57.5467,101.5768 -80.2613,101.6195 -95.4369,98.9463 -108.2776,93.1447 -117.6598,83.7934 -123.1559,74.3101 -125.265,70.1624 A9.9949,9.9949 0 0 1 -108.295,59.5976 T-102.143,66.6751 -90.8784,74.9071 -79.1687,76.8682 -58.5079,76.5856 -41.4035,72.6771 -38.3628,69.8579 A11.8078,11.8078 0 0 1 -22.0682,86.9514 Z" stroke-linecap="round" fill="#4dabf7"/></g></g><g transform="matrix(1, 0, 0, 1, 1897.2914, 27487.6755) scale(4.325250268446951, 4.325250268446951)" opacity="1"><g transform="scale(0.23120049429164374)"><path d="M8.1467,2.445 T5.5491,12.8141 1.6463,30.3153 -1.724,43.8196 -5.9451,56.8163 -8.1011,63.4405 A9.6423,9.6423 0 0 1 -26.4989,57.6595 T-24.4784,50.9926 -20.7746,38.7689 -17.1609,25.4717 -11.6886,7.6431 -8.1467,-2.445 A8.5057,8.5057 0 0 1 8.1467,2.445 Z" stroke-linecap="round" fill="#4dabf7"/></g></g><g transform="matrix(1, 0, 0, 1, 1914.5924, 27323.316) scale(4.325250268446951, 4.325250268446951)" opacity="1"><g transform="scale(0.23120049429164374)"><path d="M5.395,0 T5.577,8.65 5.7591,17.3 A5.7591,5.7591 0 0 1 -5.7591,17.3 T-5.577,8.65 -5.395,0 A5.395,5.395 0 0 1 5.395,0 Z" stroke-linecap="round" fill="#4dabf7"/></g></g><g transform="matrix(1, 0, 0, 1, 1940.5439, 27483.3503) scale(4.325250268446951, 4.325250268446951)" opacity="1"><g transform="scale(0.23120049429164374)"><path d="M10.4566,2.6152 T7.3543,14.8813 2.702,34.4781 0.2584,45.1184 -0.6352,48.428 A10.8797,10.8797 0 0 1 -21.5252,42.3382 T-20.7137,39.7986 -18.2166,29.6045 -13.4939,9.6674 -10.4566,-2.6152 A10.7787,10.7787 0 0 1 10.4566,2.6152 ZM-3.7842,37.3123 T-3.1994,37.8207 -2.6145,38.3291 A10.9099,10.9099 0 0 1 -17.2469,54.5154 T-17.8116,53.9846 -18.3762,53.4539 A10.8797,10.8797 0 0 1 -3.7842,37.3123 ZM-18.2158,39.3241 T-14.0841,34.3075 8.9197,16.6775 40.6293,-0.8514 62.314,-5.1247 77.0637,-0.6708 86.3902,9.8483 90.1203,23.1568 89.0879,34.7795 83.774,46.7517 79.7987,53.7026 A12.24,12.24 0 0 1 58.6013,41.4574 T60.3462,38.3446 64.5896,29.8367 63.5137,20.0742 49.9105,19.1383 23.1277,33.5589 2.3641,49.0341 -1.6456,53.5203 A10.9099,10.9099 0 0 1 -18.2158,39.3241 Z" stroke-linecap="round" fill="#4dabf7"/></g></g><g transform="matrix(1, 0, 0, 1, 2152.4811, 27396.8453) scale(4.325250268446951, 4.325250268446951)" opacity="1"><g transform="scale(0.23120049429164374)"><path d="M5.8028,5.3198 T-5.0997,17.903 -22.2095,40.6965 -33.4802,63.0959 -42.2315,85.8557 -47.6418,105.5239 -50.258,122.4411 -51.587,137.3359 -45.7149,154.6705 -31.3921,174.4672 -23.3765,184.0046 A9.3496,9.3496 0 0 1 -37.1835,196.6154 T-45.9574,187.7706 -63.9785,168.4831 -74.1665,150.3506 -74.3619,134.9322 -72.2702,118.5732 -68.3957,99.4762 -61.4897,77.9837 -50.7565,53.6944 -36.7048,29.521 -17.4056,6.6457 -5.8028,-5.3198 A7.8723,7.8723 0 0 1 5.8028,5.3198 Z" stroke-linecap="round" fill="#4dabf7"/></g></g><g transform="matrix(1, 0, 0, 1, 2238.9862, 27396.8453) scale(4.325250268446951, 4.325250268446951)" opacity="1"><g transform="scale(0.23120049429164374)"><path d="M6.7701,3.1597 T-0.2461,18.571 -11.7852,46.0106 -19.6468,67.5234 -24.4772,85.5085 -26.7326,101.5432 -27.8791,115.0846 -28.4556,126.2483 -24.5576,136.2971 -11.9994,142.7365 -3.5327,144.2837 A7.1409,7.1409 0 0 1 -5.1273,158.4763 T-13.7262,158.1061 -31.5744,156.2802 -44.4069,142.6155 -47.6358,124.9503 -46.6248,113.1269 -44.7591,98.5769 -41.2988,80.7118 -35.2833,61.5392 -26.4509,39.7215 -14.0763,12.1173 -6.7701,-3.1597 A7.4711,7.4711 0 0 1 6.7701,3.1597 Z" stroke-linecap="round" fill="#4dabf7"/></g></g><g transform="matrix(1, 0, 0, 1, 2247.6367, 27504.9765) scale(4.325250268446951, 4.325250268446951)" opacity="1"><g transform="scale(0.23120049429164374)"><path d="M-2.7094,7.2222 T-10.9178,4.2278 -25.0905,-0.1877 -41.6611,-2.5698 -57.6247,-1.731 -66.5743,1.621 -70.1667,3.1733 A8.2226,8.2226 0 0 1 -76.8933,-11.8333 T-69.2497,-15.2542 -56.3716,-19.5511 -44.8654,-19.8157 -32.8514,-18.1728 -20.3573,-15.3269 -5.448,-10.3674 2.7094,-7.2222 A7.7137,7.7137 0 0 1 -2.7094,7.2222 Z" stroke-linecap="round" fill="#4dabf7"/></g></g><g transform="matrix(1, 0, 0, 1, 2308.1902, 27357.918) scale(4.325250268446951, 4.325250268446951)" opacity="1"><g transform="scale(0.23120049429164374)"><path d="M6.5217,-0.4081 T7.7114,15.945 11.7448,46.6338 17.2166,71.601 21.4669,92.3532 24.0494,110.8934 25.5914,126.9332 24.3699,142.9898 20.5985,158.5435 6.1066,180.0027 -13.0126,199.9535 -22.1767,207.5667 -24.7452,209.5711 A8.3717,8.3717 0 0 1 -35.8148,197.0089 T-33.7792,194.9562 -26.4433,187.1074 -11.0935,170.1345 0.9933,152.5844 4.9512,140.6985 6.7555,127.9877 6.2753,112.7313 5.0205,95.177 1.9896,74.6158 -2.4778,48.3581 -5.6633,16.7866 -6.5217,0.4081 A6.5344,6.5344 0 0 1 6.5217,-0.4081 Z" stroke-linecap="round" fill="#4dabf7"/></g></g><g transform="matrix(1, 0, 0, 1, 2429.2972, 27453.0735) scale(4.325250268446951, 4.325250268446951)" opacity="1"><g transform="scale(0.23120049429164374)"><path d="M2.4527,-6.1331 T7.62,-4.2347 20.4408,-2.0526 33.7572,-1.9723 45.508,-2.3964 51.596,-2.6172 A6.9538,6.9538 0 0 1 52.204,11.2772 T46.12,11.589 34.7741,12.1755 23.8787,12.8441 12.96,11.8787 2.611,8.3262 -2.4527,6.1331 A6.6054,6.6054 0 0 1 2.4527,-6.1331 Z" stroke-linecap="round" fill="#4dabf7"/></g></g><g transform="matrix(1, 0, 0, 1, 2424.9719, 27496.326) scale(4.325250268446951, 4.325250268446951)" opacity="1"><g transform="scale(0.23120049429164374)"><path d="M0.4375,-5.2438 T12.7164,-4.2744 38.6743,-2.2036 52.3532,-1.1023 A5.4511,5.4511 0 0 1 51.4468,9.7623 T37.7744,8.5817 11.8323,6.3225 -0.4375,5.2438 A5.262,5.262 0 0 1 0.4375,-5.2438 Z" stroke-linecap="round" fill="#4dabf7"/></g></g><g transform="matrix(1, 0, 0, 1, 2649.8849, 27349.2675) scale(4.325250268446951, 4.325250268446951)" opacity="1"><g transform="scale(0.23120049429164374)"><path d="M10.7129,-0.6703 T12.0545,15.6792 13.1418,43.3186 12.7731,61.2201 12.4642,75.2414 12.2696,82.6512 A12.2787,12.2787 0 0 1 -12.2696,81.7088 T-11.8954,74.306 -11.1249,60.2199 -10.0144,43.4856 -10.0064,17.0524 -10.7129,0.6703 A10.7338,10.7338 0 0 1 10.7129,-0.6703 ZM-10.818,76.3716 T-2.3634,60.8567 13.9942,35.581 29.6487,19.1524 41.9514,9.7719 46.5026,7.059 A12.033,12.033 0 0 1 58.2687,28.0526 T55.4922,29.4466 46.5625,35.8524 33.5687,49.3789 18.7731,72.941 10.818,87.9884 A12.2787,12.2787 0 0 1 -10.818,76.3716 ZM56.1161,6.1157 T59.332,7.1877 68.7202,16.5531 75.9166,32.0757 76.0192,45.8267 71.2742,59.7393 67.4507,67.1302 A13.0078,13.0078 0 0 1 45.0093,53.9698 T48.4064,47.3864 52.9233,35.7545 51.3491,29.851 48.6552,28.9959 A12.033,12.033 0 0 1 56.1161,6.1157 ZM46.0046,52.5099 T49.6684,47.9122 60.1709,34.8253 73.1003,20.6919 84.6764,10.9956 97.4192,4.2278 115.8504,1.5033 131.4948,5.524 138.451,17.6201 141.5125,32.5251 143.2325,47.8435 144.3763,56.3235 A12.7887,12.7887 0 0 1 119.1476,60.5329 T118.0117,53.1926 116.847,39.9056 117.9656,28.25 111.8047,24.5774 100.2875,29.8573 91.5379,37.4141 80.7627,49.9633 70.4918,63.3947 66.4554,68.5901 A13.0078,13.0078 0 0 1 46.0046,52.5099 ZM126.9224,46.5906 T131.3491,45.2892 139.1325,42.8831 142.4892,41.7784 A11.1058,11.1058 0 0 1 151.6308,62.0216 T148.5826,63.8093 141.0679,67.9314 136.6015,70.2658 A12.7887,12.7887 0 0 1 126.9224,46.5906 Z" stroke-linecap="round" fill="#4dabf7"/></g></g><g transform="matrix(1, 0, 0, 1, 2866.1474, 27379.5443) scale(4.325250268446951, 4.325250268446951)" opacity="1"><g transform="scale(0.23120049429164374)"><path d="M-7.7503,-7.7503 T-3.4041,-12.0541 0.9421,-16.3579 A10.9007,10.9007 0 0 1 16.3579,-0.9421 T12.0541,3.4041 7.7503,7.7503 A10.9605,10.9605 0 0 1 -7.7503,-7.7503 ZM15.0768,0.1546 T10.8984,3.1773 3.4687,10.49 -3.4438,21.0303 -11.7133,25.9907 0.0257,22.2988 25.5149,14.3966 37.5738,2.9261 36.3537,-8.065 28.6859,-16.176 25.1552,-19.2658 A8.4227,8.4227 0 0 1 35.4048,-32.6342 T39.3052,-30.0265 47.471,-24.3994 55.2979,-16.6464 59.9771,-6.5782 59.6361,6.1349 51.9099,20.582 32.5878,34.6649 -2.3514,43.6196 -26.866,34.7457 -25.5824,16.0039 -16.8343,1.7654 -8.2936,-8.4871 -1.1822,-14.9416 2.2232,-17.4546 A10.9007,10.9007 0 0 1 15.0768,0.1546 Z" stroke-linecap="round" fill="#4dabf7"/></g></g><g transform="matrix(1, 0, 0, 1, 3000.2302, 27262.7625) scale(4.325250268446951, 4.325250268446951)" opacity="1"><g transform="scale(0.23120049429164374)"><path d="M9.3296,1.5549 T7.4462,13.8563 3.7925,40.7469 1.206,65.9457 0.0282,86.1122 -0.4884,102.7476 -5.1525,112.2768 -0.8479,113.4842 18.1219,110.46 28.2781,108.6792 A8.3444,8.3444 0 0 1 32.2819,124.8808 T22.4654,128.0358 3.5364,134.3773 -13.8279,129.3533 -23.0125,115.0475 -23.4851,101.6334 -22.2186,84.316 -20.0131,63.3471 -16.1797,37.6582 -11.5376,10.6924 -9.3296,-1.5549 A9.4583,9.4583 0 0 1 9.3296,1.5549 Z" stroke-linecap="round" fill="#4dabf7"/></g></g><g transform="matrix(1, 0, 0, 1, 3026.1817, 27331.9665) scale(4.325250268446951, 4.325250268446951)" opacity="1"><g transform="scale(0.23120049429164374)"><path d="M-0.4117,6.5793 T-16.8108,6.0876 -45.8181,5.1286 -65.2085,6.0934 -80.6397,9.3029 -89.2887,11.0804 A6.9241,6.9241 0 0 1 -92.3713,-2.4204 T-83.8079,-4.5729 -66.5778,-8.8209 -45.0823,-10.3042 -15.9208,-8.1356 0.4117,-6.5793 A6.5922,6.5922 0 0 1 -0.4117,6.5793 Z" stroke-linecap="round" fill="#4dabf7"/></g></g><g transform="matrix(1, 0, 0, 1, 3082.41, 27470.3745) scale(4.325250268446951, 4.325250268446951)" opacity="1"><g transform="scale(0.23120049429164374)"><path d="M0.4258,7.2388 T-34.3008,10.188 -98.5023,15.9589 -149.5111,21.4371 -189.5049,26.6539 -224.4469,32.619 -257.119,38.9601 -287.9085,44.4963 -318.5228,49.5622 -351.8294,55.3412 -403.0719,64.2289 -457.0662,72.5252 -488.2702,75.1806 -505.6934,73.6663 -517.0072,67.7645 -522.0584,63.311 A10.2121,10.2121 0 0 1 -507.3416,49.149 T-503.9839,50.5775 -490.8459,50.7556 -461.3733,46.1016 -408.0042,36.6507 -356.4577,27.3899 -322.8237,22.0225 -292.4115,17.5787 -261.7469,12.8336 -228.2761,7.4293 -192.0644,2.7481 -151.3873,-0.5866 -99.7796,-3.5718 -35.2586,-6.0965 -0.4258,-7.2388 A7.2513,7.2513 0 0 1 0.4258,7.2388 Z" stroke-linecap="round" fill="#4dabf7"/></g></g><g transform="matrix(1, 0, 0, 1, 2671.5112, 27587.1563) scale(4.325250268446951, 4.325250268446951)" opacity="1"><g transform="scale(0.23120049429164374)"><path d="M9.3864,0 T9.8062,19.4356 10.6333,53.2051 11.354,76.1172 11.7278,88.1918 11.7882,91.6884 A11.7882,11.7882 0 0 1 -11.7882,91.6884 T-11.7278,88.1918 -11.354,76.1172 -10.6333,53.2051 -9.8062,19.4356 -9.3864,0 A9.3864,9.3864 0 0 1 9.3864,0 ZM7.3738,82.4913 T8.4037,83.305 9.4336,84.1187 A11.807,11.807 0 0 1 -5.3375,102.5423 T-6.3556,101.714 -7.3738,100.8856 A11.7882,11.7882 0 0 1 7.3738,82.4913 ZM-8.1116,87.3152 T-6.5442,84.6674 -1.4889,77.803 12.0593,66.6395 30.8188,58.0429 46.5926,59.4649 59.3054,71.1653 67.1368,81.9789 69.3302,84.1635 A10.9972,10.9972 0 0 1 69.0698,106.1565 T61.4292,105.3784 48.1949,95.9208 38.4945,83.1559 24.8532,86.5817 13.7631,96.7194 12.2078,99.3458 A11.807,11.807 0 0 1 -8.1116,87.3152 Z" stroke-linecap="round" fill="#4dabf7"/></g></g><g transform="matrix(1, 0, 0, 1, 2779.6424, 27639.0593) scale(4.325250268446951, 4.325250268446951)" opacity="1"><g transform="scale(0.23120049429164374)"><path d="M5.8423,-4.7802 T9.595,5.7666 21.7062,10.8937 36.36,3.3442 42.6553,1.2144 A7.6064,7.6064 0 0 1 47.2558,15.715 T42.8483,16.9808 30.9605,23.4719 8.8189,16.7387 -5.8423,4.7802 A7.5487,7.5487 0 0 1 5.8423,-4.7802 ZM52.2471,6.2988 T52.8784,8.3977 54.2843,18.2383 57.2115,33.7624 63.1526,49.8464 70.1422,62.2036 77.3907,71.8035 84.7403,82.4831 91.0626,93.7787 95.9349,106.9435 98.7166,119.6611 99.1172,131.5753 97.1325,143.2106 87.0886,158.8306 70.6978,172.7455 56.2419,178.3756 41.1574,179.1465 26.0979,174.8249 14.0288,167.6203 3.4056,157.7217 -4.7874,144.6308 -8.8687,130.3996 -10.9199,116.5475 -11.9005,109.7212 A7.7359,7.7359 0 0 1 3.2405,106.5388 T5.0911,113.1822 10.2231,128.9739 17.4718,142.0192 29.3897,150.977 45.4716,155.9814 62.8845,151.4665 74.7174,140.9604 77.4803,126.7238 76.7708,113.4061 73.6063,103.0643 68.5557,93.0462 62.0887,82.6868 54.7699,71.7784 47.438,57.1345 41.5492,37.2783 39.1085,20.7514 38.274,12.7109 37.664,10.6307 A7.6064,7.6064 0 0 1 52.2471,6.2988 Z" stroke-linecap="round" fill="#4dabf7"/></g></g><g transform="matrix(1, 0, 0, 1, 2909.3999, 27630.4088) scale(4.325250268446951, 4.325250268446951)" opacity="1"><g transform="scale(0.23120049429164374)"><path d="M8.6639,-3.095 T14.1058,11.1086 23.5945,37.0238 29.9748,58.389 33.5959,76.3702 35.5362,91.1486 36.7183,105.422 37.2476,113.2448 A11.6466,11.6466 0 0 1 13.979,114.3137 T13.6325,106.9582 12.8506,93.6145 11.6378,80.1144 9.2756,63.85 4.3026,43.5327 -3.8748,17.5315 -8.6639,3.095 A9.2001,9.2001 0 0 1 8.6639,-3.095 ZM27.642,125.2478 T23.5525,125.5185 14.9156,126.1408 10.3681,126.4925 A9.8632,9.8632 0 0 1 6.9319,107.0675 T11.3241,105.8378 19.6504,103.4594 23.5845,102.3108 A11.6466,11.6466 0 0 1 27.642,125.2478 Z" stroke-linecap="round" fill="#4dabf7"/></g></g><g transform="matrix(1, 0, 0, 1, 2931.0262, 27613.1078) scale(4.325250268446951, 4.325250268446951)" opacity="1"><g transform="scale(0.23120049429164374)"><path d="M-4.9286,-8.8705 T4.2789,-13.9978 21.0449,-22.1788 35.7561,-26.0152 49.125,-25.9932 60.7729,-23.6339 71.2093,-20.1815 81.6136,-9.3283 79.8043,11.9182 64.7373,31.342 48.9482,42.347 33.3394,47.8904 17.8248,49.0592 2.7307,47.9376 -4.5265,47.3185 A8.3908,8.3908 0 0 1 -4.1335,30.5415 T3.1447,30.2629 15.6322,29.7874 26.2688,27.9644 36.9832,23.9533 47.852,16.8284 60.0785,1.85 67.3547,-3.3643 59.9727,-1.3666 43.8872,-5.2029 29.5784,-3.6749 14.135,3.7668 4.9286,8.8705 A10.1477,10.1477 0 0 1 -4.9286,-8.8705 Z" stroke-linecap="round" fill="#4dabf7"/></g></g><g transform="matrix(1, 0, 0, 1, 2783.9677, 27608.7825) scale(4.325250268446951, 4.325250268446951)" opacity="1"><g transform="scale(0.23120049429164374)"><path d="M9.7698,0 T9.8056,6.1372 9.8601,17.5103 11.401,28.6935 20.2945,37.9666 33.6098,39.2053 40.3896,33.3089 41.2253,29.4996 A10.0315,10.0315 0 0 1 49.8417,11.3811 T54.5531,14.3184 61.867,22.8382 61.5821,37.33 53.0023,51.0775 42.3966,57.7236 30.1956,60.2466 9.8358,53.6004 -5.3977,39.6339 -8.719,27.9757 -9.8601,17.5985 -9.8056,6.1372 -9.7698,0 A9.7698,9.7698 0 0 1 9.7698,0 ZM53.4001,26.6651 T51.6598,28.6931 52.0422,36.2972 56.3874,47.88 62.2746,59.3402 68.918,71.5503 74.957,83.9607 80.855,98.9488 86.0608,117.3169 89.257,135.3916 89.1422,150.5519 84.1002,165.2172 72.0356,180.2166 55.285,189.7936 36.1768,195.3573 19.6555,198.2401 8.2596,198.8652 -6.4142,197.8342 -15.89,196.6206 A13.1862,13.1862 0 0 1 -9.6742,170.9911 T-7.4053,171.6698 3.1428,171.8933 20.3733,170.4581 34.8849,167.9186 47.8046,164.7011 59.0403,157.2919 63.7006,144.1125 63.6776,129.9347 61.3142,117.7478 57.9034,105.1742 53.4727,92.8651 48.7034,81.8487 42.8033,69.8461 37.2731,57.7341 33.5109,46.1677 31.5903,31.3845 34.6376,18.2152 37.6669,14.2156 A10.0315,10.0315 0 0 1 53.4001,26.6651 ZM-24.1641,190.4637 T-26.0647,186.7742 -30.1075,178.9884 -32.2498,174.8921 A12.3032,12.3032 0 0 1 -11.0102,162.4679 T-8.4896,166.3429 -3.6846,173.6829 -1.4001,177.1479 A13.1862,13.1862 0 0 1 -24.1641,190.4637 Z" stroke-linecap="round" fill="#4dabf7"/></g></g><g transform="matrix(1, 0, 0, 1, 4678.4273, 26622.6255) scale(4.325250268446951, 4.325250268446951)" opacity="1"><g transform="scale(0.23120049429164374)"><path d="M-10.3961,0 T-10.2008,-9.2069 -10.0026,-22.1819 -9.9998,-25.95 A9.9998,9.9998 0 0 1 9.9998,-25.95 T10.0026,-22.1819 10.2008,-9.2069 10.3961,0 A10.3961,10.3961 0 0 1 -10.3961,0 ZM9.9998,-25.95 T10.0073,-21.8701 11.6689,-7.7011 13.7187,8.9826 14.3509,21.0758 14.817,36.9907 15.0467,47.4072 A10.7181,10.7181 0 0 1 -6.3867,47.7528 T-6.491,37.4568 -6.6586,21.8327 -6.8951,10.3193 -7.4156,-1.4137 -8.8891,-12.3078 -10.0073,-21.8021 -9.9998,-25.95 A9.9998,9.9998 0 0 1 9.9998,-25.95 ZM-6.2444,45.8303 T-3.9787,33.0323 1.7937,13.029 7.928,-0.4028 13.1731,-12.3745 22.3143,-24.7064 34.3837,-33.8808 49.5776,-32.9173 62.3796,-21.3583 65.042,-3.4978 60.4612,15.1842 56.3719,24.0136 A11.0621,11.0621 0 0 1 38.7881,10.5864 T40.5265,9.3365 43.4869,2.4372 43.5376,-9.5603 38.1392,-12.6231 31.6576,-4.1138 26.6715,7.9341 21.1552,20.6755 16.6374,37.9614 14.9044,49.3297 A10.7181,10.7181 0 0 1 -6.2444,45.8303 ZM38.0292,11.7186 T39.3553,9.7294 43.8776,3.2775 52.7246,-7.2385 62.1455,-17.14 71.4352,-25.483 85.7149,-34.9067 101.0956,-40.5447 116.4407,-35.7144 127.367,-25.0278 130.5016,-13.9126 132.085,1.6342 132.874,16.7161 134.3739,29.157 135.7357,36.0946 A10.6886,10.6886 0 0 1 115.1243,41.7654 T113.5908,37.5337 110.4356,28.0535 108.7751,17.459 108.4149,3.5347 106.0629,-12.4226 97.4719,-16.1728 86.3548,-8.9441 78.0977,-1.5957 67.9623,8.4753 59.3291,18.8396 57.1308,22.8814 A11.0621,11.0621 0 0 1 38.0292,11.7186 Z" stroke-linecap="round" fill="#e599f7"/></g></g><g transform="matrix(1, 0, 0, 1, 4916.3161, 26609.6497) scale(4.325250268446951, 4.325250268446951)" opacity="1"><g transform="scale(0.23120049429164374)"><path d="M-3.9478,7.8865 T-5.923,6.9018 -14.6322,5.5856 -20.7254,19.7386 -13.7599,42.2872 -2.5227,54.575 7.6779,56.9945 15.2742,49.0881 17.5274,37.1553 15.6732,24.834 7.4682,15.2495 1.0623,12.1557 A8.4805,8.4805 0 0 1 7.5977,-3.4957 T11.4094,-2.2019 20.1767,1.293 29.6779,10.8496 36.6101,27.842 38.2509,42.7302 32.6981,58.5336 23.2954,72.9546 11.2119,78.0646 -3.3451,76.5902 -16.8661,67.7648 -30.7946,50.1108 -40.8109,19.7506 -37.4639,-4.8411 -21.4067,-11.2986 -5.7606,-10.9969 1.8315,-8.9499 3.9478,-7.8865 A8.8194,8.8194 0 0 1 -3.9478,7.8865 Z" stroke-linecap="round" fill="#e599f7"/></g></g><g transform="matrix(1, 0, 0, 1, 5028.7726, 26488.5427) scale(4.325250268446951, 4.325250268446951)" opacity="1"><g transform="scale(0.23120049429164374)"><path d="M6.9168,-3.0328 T4.1557,13.3933 -0.9524,43.6341 -5.4026,69.8776 -8.4428,92.62 -9.7949,112.3917 -10.3644,129.8862 -9.6131,143.3685 -1.6665,152.1688 16.3926,158.0942 27.4104,160.6651 A8.1469,8.1469 0 0 1 24.4896,176.6949 T13.2731,175.2145 -9.8664,170.97 -25.7077,159.9023 -30.3961,144.3413 -30.6134,128.7791 -29.1344,110.5745 -26.5997,89.7834 -22.2643,66.611 -16.6056,40.6616 -10.2953,10.6831 -6.9168,-5.6272 A7.0374,7.0374 0 0 1 6.9168,-3.0328 Z" stroke-linecap="round" fill="#e599f7"/></g></g><g transform="matrix(1, 0, 0, 1, 5063.3746, 26592.3487) scale(4.325250268446951, 4.325250268446951)" opacity="1"><g transform="scale(0.23120049429164374)"><path d="M-0.8605,7.3145 T-18.3065,5.747 -48.8774,3.3371 -72.9543,2.0938 -96.4318,2.2303 -118.5689,3.7002 -139.2761,5.875 -150.372,7.1174 A7.1885,7.1885 0 0 1 -152.388,-7.1174 T-141.3836,-9.0051 -120.1549,-12.7697 -96.4583,-15.5537 -71.7833,-15.7254 -47.1937,-13.6762 -16.4732,-9.8385 0.8605,-7.3145 A7.3649,7.3649 0 0 1 -0.8605,7.3145 Z" stroke-linecap="round" fill="#e599f7"/></g></g><g transform="matrix(1, 0, 0, 1, 5085.0008, 26765.3587) scale(4.325250268446951, 4.325250268446951)" opacity="1"><g transform="scale(0.23120049429164374)"><path d="M-0.4111,4.9335 T-49.5936,1.8348 -133.8297,-2.659 -194.6754,-5.6649 -241.0251,-8.0415 -278.5241,-9.1316 -309.4911,-9.6459 -336.0091,-9.9262 -359.1743,-10.0768 -378.543,-10.205 -403.6861,-13.0621 -437.7165,-18.667 -455.2996,-21.4828 A8.872,8.872 0 0 1 -453.0004,-39.0772 T-435.2841,-37.2801 -402.3327,-34.1319 -378.3796,-32.7561 -358.9322,-32.6162 -335.611,-32.2579 -308.8605,-31.5725 -277.576,-30.2544 -239.6554,-27.8675 -193.3531,-23.6463 -132.7344,-18.0191 -48.606,-10.0177 0.4111,-4.9335 A4.9506,4.9506 0 0 1 -0.4111,4.9335 Z" stroke-linecap="round" fill="#e599f7"/></g></g><g transform="matrix(1, 0, 0, 1, 4669.7768, 26808.6112) scale(4.325250268446951, 4.325250268446951)" opacity="1"><g transform="scale(0.23120049429164374)"><path d="M8.5109,0.3408 T7.8744,25.9291 7.0029,67.0279 5.6255,93.2435 3.8137,110.4523 -0.4173,123.8425 -3.9788,130.7289 A10.4451,10.4451 0 0 1 -21.9812,120.1311 T-19.6789,117.0567 -16.6695,107.6598 -14.4926,91.59 -12.1784,66.3082 -9.9225,25.2164 -8.5109,-0.3408 A8.5177,8.5177 0 0 1 8.5109,0.3408 ZM-21.2333,119.0281 T-10.4505,105.3917 9.5002,84.1845 26.3297,73.3498 38.7728,68.6133 43.5544,67.1407 A9.8259,9.8259 0 0 1 49.318,85.9283 T45.3094,87.1524 36.1689,90.2295 23.6926,98.1078 5.8107,117.9824 -4.7267,131.8319 A10.4451,10.4451 0 0 1 -21.2333,119.0281 ZM53.4478,69.6507 T55.8038,72.0466 61.9208,81.1202 66.5104,101.2647 67.0144,120.3763 66.3263,132.4636 65.9629,138.906 A9.7455,9.7455 0 0 1 46.4971,137.914 T46.7905,131.4681 47.3486,119.0992 48.2528,107.533 46.4348,94.9765 41.7011,85.7409 39.4247,83.4183 A9.8259,9.8259 0 0 1 53.4478,69.6507 Z" stroke-linecap="round" fill="#e599f7"/></g></g><g transform="matrix(1, 0, 0, 1, 4799.5343, 26908.092) scale(4.325250268446951, 4.325250268446951)" opacity="1"><g transform="scale(0.23120049429164374)"><path d="M2.2566,9.0159 T-1.7164,9.9994 -9.8313,9.8808 -4.7926,15.5316 10.6999,22.3649 20.8719,21.3856 24.732,20.3261 A9.6856,9.6856 0 0 1 34.0739,37.2959 T30.0875,39.1669 20.432,41.6614 4.2796,40.3592 -17.2517,29.73 -25.6246,11.4088 -16.813,-2.5479 -6.4665,-7.9513 -2.2566,-9.0159 A9.294,9.294 0 0 1 2.2566,9.0159 ZM19.7453,28.0751 T20.0723,25.362 19.204,17.3045 18.0087,11.9602 A8.6036,8.6036 0 0 1 33.8913,5.3398 T35.117,7.861 37.7895,17.233 39.1484,26.8153 39.0606,29.5468 A9.6856,9.6856 0 0 1 19.7453,28.0751 Z" stroke-linecap="round" fill="#e599f7"/></g></g><g transform="matrix(1, 0, 0, 1, 4933.6171, 26890.791) scale(4.325250268446951, 4.325250268446951)" opacity="1"><g transform="scale(0.23120049429164374)"><path d="M8.1149,6.0885 T5.0078,10.1523 -2.8964,20.7225 -7.8943,30.1714 -8.0953,33.1138 A10.1936,10.1936 0 0 1 -28.0794,29.0801 T-26.4415,22.9124 -19.4917,9.4472 -11.1473,-1.9694 -8.1149,-6.0885 A10.145,10.145 0 0 1 8.1149,6.0885 ZM-14.0364,21.7429 T-9.7087,23.5664 5.5523,33.5538 20.0363,51.1787 22.4697,66.9945 17.7146,78.2343 9.8242,86.5001 0.2695,91.9968 -10.1407,94.9987 -20.3332,95.1503 -32.9406,92.2438 -43.7197,88.5708 -46.976,87.0703 A9.9447,9.9447 0 0 1 -39.524,68.6297 T-34.5355,70.5106 -20.9882,72.6413 -7.4631,70.5656 -0.1922,62.2901 -5.7853,50.2771 -17.9106,42.3325 -22.1383,40.451 A10.1936,10.1936 0 0 1 -14.0364,21.7429 Z" stroke-linecap="round" fill="#e599f7"/></g></g><g transform="matrix(1, 0, 0, 1, 4514.0678, 26674.5285) scale(4.325250268446951, 4.325250268446951)" opacity="1"><g transform="scale(0.23120049429164374)"><path d="M0.594,6.5273 T-10.6226,7.9486 -30.9543,9.9548 -48.4194,9.5051 -65.4514,7.4211 -74.1333,6.3718 A6.4003,6.4003 0 0 1 -72.9267,-6.3718 T-64.2021,-5.773 -48.2045,-4.7295 -32.0515,-4.7793 -11.8828,-5.9005 -0.594,-6.5273 A6.5543,6.5543 0 0 1 0.594,6.5273 Z" stroke-linecap="round" fill="#e599f7"/></g></g><g transform="matrix(1, 0, 0, 1, 4522.7183, 26735.082) scale(4.325250268446951, 4.325250268446951)" opacity="1"><g transform="scale(0.23120049429164374)"><path d="M0.6082,7.2899 T-11.6306,8.7403 -33.514,10.7849 -53.7839,12.0141 -64.4093,12.6493 A8.3326,8.3326 0 0 1 -65.3507,-3.9893 T-54.7215,-4.5567 -34.6601,-5.6093 -12.9181,-6.6922 -0.6082,-7.2899 A7.3152,7.3152 0 0 1 0.6082,7.2899 Z" stroke-linecap="round" fill="#e599f7"/></g></g><g transform="matrix(1, 0, 0, 1, 3843.654, 26592.3487) scale(4.325250268446951, 4.325250268446951)" opacity="1"><g transform="scale(0.23120049429164374)"><path d="M6.6187,2.3487 T-3.8606,34.3325 -19.5779,87.0079 -25.1863,122.7849 -23.7778,147.1777 -19.4676,161.3694 -7.4836,167.7489 11.1792,168.6019 20.3893,167.9595 A9.4622,9.4622 0 0 1 22.8707,186.7205 T13.8104,188.4947 -6.1748,191.6563 -23.1706,190.107 -34.0754,181.8136 -42.0261,168.2059 -46.3177,148.2242 -45.704,119.422 -37.2931,81.4369 -18.6447,29.0873 -6.6187,-2.3487 A7.0231,7.0231 0 0 1 6.6187,2.3487 Z" stroke-linecap="round" fill="#e599f7"/></g></g><g transform="matrix(1, 0, 0, 1, 3835.0035, 26696.1547) scale(4.325250268446951, 4.325250268446951)" opacity="1"><g transform="scale(0.23120049429164374)"><path d="M-1.3248,7.9395 T-7.5267,7.3104 -19.6882,6.4668 -31.0878,7.1996 -43.1651,9.3648 -53.5919,11.7549 -57.3815,12.9271 A9.1624,9.1624 0 0 1 -63.7185,-4.2671 T-60.0745,-5.8346 -47.613,-9.4226 -31.4564,-11.9752 -17.4687,-11.6424 -4.7476,-9.3585 1.3248,-7.9395 A8.0493,8.0493 0 0 1 -1.3248,7.9395 Z" stroke-linecap="round" fill="#e599f7"/></g></g><g transform="matrix(1, 0, 0, 1, 3956.1105, 26704.8052) scale(4.325250268446951, 4.325250268446951)" opacity="1"><g transform="scale(0.23120049429164374)"><path d="M5.1951,7.2727 T-1.9215,12.4497 -14.5663,22.2576 -23.5856,30.9541 -29.2677,41.2854 -33.4163,45.6036 -25.5265,37.9857 -9.1037,28.319 1.9334,22.641 6.3953,20.9596 A8.385,8.385 0 0 1 12.0681,36.7409 T9.2885,37.6626 -0.657,43.4044 -24.0495,55.4071 -45.1284,53.9758 -48.5115,39.4588 -44.1219,28.0714 -36.5153,17.5634 -25.718,7.6875 -12.401,-2.2187 -5.1951,-7.2727 A8.9376,8.9376 0 0 1 5.1951,7.2727 ZM14.0979,22.0218 T16.0513,23.4313 23.3945,32.2312 33.0613,46.2072 42.1284,56.659 51.4846,63.4187 56.0507,66.312 A8.3263,8.3263 0 0 1 47.7493,80.748 T42.9519,78.2568 30.2347,69.5152 18.0552,55.9191 10.9434,43.4362 6.2284,36.9889 4.3655,35.6787 A8.385,8.385 0 0 1 14.0979,22.0218 Z" stroke-linecap="round" fill="#e599f7"/></g></g><g transform="matrix(1, 0, 0, 1, 4038.2903, 26722.1062) scale(4.325250268446951, 4.325250268446951)" opacity="1"><g transform="scale(0.23120049429164374)"><path d="M8.2921,-3.3168 T12.4403,6.4715 27.4839,12.9766 46.8773,10.1425 61.2228,13.777 70.4603,21.7916 75.1296,31.6527 77.3079,40.9414 78.207,45.1981 A9.3166,9.3166 0 0 1 60.193,49.9619 T58.8703,45.8173 55.1064,35.979 47.5389,29.665 26.9449,31.2674 5.6271,29.0724 -4.2574,13.9858 -8.2921,3.3168 A8.9308,8.9308 0 0 1 8.2921,-3.3168 Z" stroke-linecap="round" fill="#e599f7"/></g></g><g transform="matrix(1, 0, 0, 1, 4206.975, 26592.3487) scale(4.325250268446951, 4.325250268446951)" opacity="1"><g transform="scale(0.23120049429164374)"><path d="M6.3981,2.2848 T-3.1385,31.1711 -17.2872,83.0241 -23.0872,124.8402 -24.8806,156.8996 -24.7304,177.2954 -21.3542,191.592 -11.149,199.7338 7.8812,203.9006 19.3266,207.0366 A9.4435,9.4435 0 0 1 15.2734,225.4834 T3.5676,223.5325 -21.3322,218.0469 -38.4911,208.3274 -44.9968,194.2131 -47.8195,177.3962 -46.7896,155.1067 -43.0274,121.6968 -34.4082,78.1009 -17.3187,26.1139 -6.3981,-2.2848 A6.7938,6.7938 0 0 1 6.3981,2.2848 Z" stroke-linecap="round" fill="#e599f7"/></g></g><g transform="matrix(1, 0, 0, 1, 4289.1548, 26626.9507) scale(4.325250268446951, 4.325250268446951)" opacity="1"><g transform="scale(0.23120049429164374)"><path d="M7.7377,2.3806 T4.0625,15.8044 -2.2199,45.0799 -6.057,73.3196 -7.8105,95.2455 -8.5943,111.7995 -6.3623,125.2247 5.3669,128.4377 14.6038,125.2412 A9.2408,9.2408 0 0 1 19.9962,142.9188 T13.1245,145.6876 -2.7875,150.3877 -18.102,148.2797 -27.6072,137.9809 -31.5845,124.5517 -31.6603,110.0542 -29.7467,92.8104 -26.3817,70.0085 -20.5063,40.5441 -12.2454,10.7924 -7.7377,-2.3806 A8.0957,8.0957 0 0 1 7.7377,2.3806 Z" stroke-linecap="round" fill="#e599f7"/></g></g><g transform="matrix(1, 0, 0, 1, 4293.48, 26730.7567) scale(4.325250268446951, 4.325250268446951)" opacity="1"><g transform="scale(0.23120049429164374)"><path d="M-0.6538,6.5307 T-10.8851,6.0389 -27.4841,6.901 -42.1535,9.8534 -50.4553,11.452 A7.267,7.267 0 0 1 -53.3447,-2.792 T-45.0762,-4.5546 -28.3029,-7.9803 -9.5721,-8.087 0.6538,-6.5307 A6.5633,6.5633 0 0 1 -0.6538,6.5307 Z" stroke-linecap="round" fill="#e599f7"/></g></g><g transform="matrix(1, 0, 0, 1, 4341.0578, 26605.3245) scale(4.325250268446951, 4.325250268446951)" opacity="1"><g transform="scale(0.23120049429164374)"><path d="M8.1066,-4.0533 T14.5107,8.0999 24.7115,31.4655 31.496,51.1914 36.3506,69.0369 40.2925,91.2139 43.5608,115.1507 45.4322,135.2919 39.5072,167.1334 25.9665,213.1961 19.0288,236.4666 A10.7781,10.7781 0 0 1 -1.7288,230.6534 T4.4288,207.1643 15.7368,164.4991 20.5769,136.8453 19.5842,117.8516 17.4181,94.7059 14.9252,74.1243 11.4469,57.416 6.3058,38.7519 -2.2363,16.4488 -8.1066,4.0533 A9.0634,9.0634 0 0 1 8.1066,-4.0533 Z" stroke-linecap="round" fill="#e599f7"/></g></g><g transform="matrix(1, 0, 0, 1, 4527.0435, 27120.0292) scale(4.325250268446951, 4.325250268446951)" opacity="1"><g transform="scale(0.23120049429164374)"><path d="M1.3968,9.7682 T-5.7515,10.8846 -18.9497,12.645 -33.3566,15.2987 -49.9709,19.5065 -65.8483,20.6165 -80.4237,18.3618 -87.3788,17.1951 A8.5892,8.5892 0 0 1 -85.6412,0.1049 T-78.5936,0.3619 -63.2844,0.3207 -46.8792,-2.1099 -32.8298,-5.6381 -21.3346,-7.4695 -8.571,-8.8365 -1.3968,-9.7682 A9.8675,9.8675 0 0 1 1.3968,9.7682 Z" stroke-linecap="round" fill="#e599f7"/></g></g><g transform="matrix(1, 0, 0, 1, 4518.393, 27167.607) scale(4.325250268446951, 4.325250268446951)" opacity="1"><g transform="scale(0.23120049429164374)"><path d="M0,13.9309 T-8.1725,14.2994 -21.8591,15.8068 -36.3336,19.4832 -55.8638,24.5121 -66.4336,27.0034 A10.0901,10.0901 0 0 1 -71.9664,7.5966 T-66.3459,5.7352 -51.826,1.4125 -36.8587,-2.6239 -23.5887,-5.1034 -8.1933,-5.6394 0,-5.2709 A9.6009,9.6009 0 0 1 0,13.9309 Z" stroke-linecap="round" fill="#e599f7"/></g></g><g transform="matrix(1, 0, 0, 1, 4682.7526, 27068.1262) scale(4.325250268446951, 4.325250268446951)" opacity="1"><g transform="scale(0.23120049429164374)"><path d="M4.591,7.6505 T-0.5121,10.741 -10.4731,16.5583 -21.8461,24.2964 -28.2632,30.4461 -28.1651,31.5845 A9.0307,9.0307 0 0 1 -45.086,25.2683 T-42.9196,20.8657 -32.4252,10.0074 -19.472,0.9997 -9.7188,-4.6015 -4.591,-7.6505 A8.9224,8.9224 0 0 1 4.591,7.6505 ZM-33.1876,20.0757 T-29.6505,21.5454 -20.1849,25.4737 -8.8874,32.1773 0.8923,41.8122 5.4064,56.1837 -0.0931,70.9692 -10.4337,80.1351 -20.5409,85.6641 -36.4289,90.9641 -53.6756,93.2766 -65.4243,88.4101 -71.9959,77.4205 -73.5469,70.4769 A8.7605,8.7605 0 0 1 -56.2131,67.9231 T-53.2454,71.2478 -41.3927,72.0484 -25.0978,65.9452 -14.4151,58.0886 -17.097,48.6839 -28.0018,41.6173 -36.5077,38.2275 -40.0635,36.7771 A9.0307,9.0307 0 0 1 -33.1876,20.0757 Z" stroke-linecap="round" fill="#e599f7"/></g></g><g transform="matrix(1, 0, 0, 1, 4730.3303, 27098.403) scale(4.325250268446951, 4.325250268446951)" opacity="1"><g transform="scale(0.23120049429164374)"><path d="M6.4888,-1.299 T7.7352,3.7741 9.7792,14.9535 10.9578,30.5721 11.3347,45.8913 11.3307,51.6985 A7.0036,7.0036 0 0 1 -2.6707,52.1015 T-3.0087,46.3042 -3.8343,31.4809 -4.6037,17.035 -5.6871,6.4569 -6.4888,1.299 A6.6175,6.6175 0 0 1 6.4888,-1.299 Z" stroke-linecap="round" fill="#e599f7"/></g></g><g transform="matrix(1, 0, 0, 1, 4730.3303, 27024.8737) scale(4.325250268446951, 4.325250268446951)" opacity="1"><g transform="scale(0.23120049429164374)"><path d="M-4.724,-5.9071 T-2.5686,-12.3953 -0.4132,-18.8835 A5.0006,5.0006 0 0 1 9.0732,-15.7165 T6.8986,-9.2347 4.724,-2.7529 A4.9803,4.9803 0 0 1 -4.724,-5.9071 Z" stroke-linecap="round" fill="#e599f7"/></g></g><g transform="matrix(1, 0, 0, 1, 4764.9323, 27098.403) scale(4.325250268446951, 4.325250268446951)" opacity="1"><g transform="scale(0.23120049429164374)"><path d="M9.8296,-7.33 T14.0078,-4.1498 21.4755,3.9547 26.3728,13.8858 29.1154,27.0426 30.6798,45.5724 31.1095,55.9523 A9.4836,9.4836 0 0 1 12.1505,56.5077 T11.877,46.7677 10.9093,30.4869 8.5274,18.5974 2.8351,10.2894 -1.1696,7.33 A9.1637,9.1637 0 0 1 9.8296,-7.33 ZM13.1699,51.9446 T20.7108,37.4949 33.459,17.0524 42.3905,6.9895 54.7215,1.2532 67.8955,3.6988 74.9426,16.6359 79.8884,35.4514 83.8341,51.8903 85.3141,58.3391 A7.7846,7.7846 0 0 1 70.3859,62.7609 T68.115,56.5464 63.6795,44.5924 60.2678,33.291 59.0648,21.3072 55.7083,18.8053 47.8728,28.0077 36.764,46.9028 30.0901,60.5154 A9.4836,9.4836 0 0 1 13.1699,51.9446 Z" stroke-linecap="round" fill="#e599f7"/></g></g><g transform="matrix(1, 0, 0, 1, 4916.3161, 27037.8495) scale(4.325250268446951, 4.325250268446951)" opacity="1"><g transform="scale(0.23120049429164374)"><path d="M8.2405,2.0625 T7.2026,6.1507 4.5659,15.6535 1.0409,26.1912 -4.0722,37.4312 -9.6391,49.2624 -14.1202,62.3384 -11.337,83.0489 -0.5249,104.4456 9.6145,116.6345 26.6265,121.9435 39.4268,123.1116 A6.667,6.667 0 0 1 38.4332,136.4084 T30.5813,136.2378 13.7005,135.1878 -2.2292,128.6949 -16.5248,112.6201 -28.7791,84.2716 -30.9377,57.1708 -25.3915,41.6328 -17.9275,25.7548 -11.7848,11.1642 -9.2506,2.0322 -8.2405,-2.0625 A8.4947,8.4947 0 0 1 8.2405,2.0625 Z" stroke-linecap="round" fill="#e599f7"/></g></g><g transform="matrix(1, 0, 0, 1, 4989.8453, 27059.4757) scale(4.325250268446951, 4.325250268446951)" opacity="1"><g transform="scale(0.23120049429164374)"><path d="M11.9119,1.2651 T9.9916,13.5611 6.0528,35.6215 3.0723,53.1668 1.6086,67.0851 0.8281,78.404 5.9455,87.9811 11.3417,92.3766 A7.5963,7.5963 0 0 1 5.9583,106.5834 T2.7522,105.5482 -7.378,98.7431 -15.3904,87.8809 -16.1426,77.2241 -15.141,65.1696 -13.2232,50.2722 -9.7872,32.5526 -5.4278,10.9876 -3.2519,-1.2651 A7.6867,7.6867 0 0 1 11.9119,1.2651 Z" stroke-linecap="round" fill="#e599f7"/></g></g><g transform="matrix(1, 0, 0, 1, 5002.8211, 27133.005) scale(4.325250268446951, 4.325250268446951)" opacity="1"><g transform="scale(0.23120049429164374)"><path d="M-0.4487,4.9303 T-11.7013,3.9062 -35.4913,1.7412 -48.0287,0.6003 A4.9506,4.9506 0 0 1 -47.1313,-9.2603 T-34.594,-8.1193 -10.804,-5.9543 0.4487,-4.9303 A4.9506,4.9506 0 0 1 -0.4487,4.9303 Z" stroke-linecap="round" fill="#e599f7"/></g></g><g transform="matrix(1, 0, 0, 1, 5033.0978, 27042.1747) scale(4.325250268446951, 4.325250268446951)" opacity="1"><g transform="scale(0.23120049429164374)"><path d="M7.9725,-2.3927 T11.169,7.8003 16.2545,26.8477 19.145,42.4505 20.7068,55.9823 20.5336,70.1357 18.2924,84.5597 8.7454,103.3304 -7.3683,126.5801 -15.4428,138.1132 A7.3857,7.3857 0 0 1 -27.8172,130.0468 T-20.5238,118.0045 -7.4763,96.5192 -0.357,81.1473 1.8495,69.603 2.3522,57.7806 1.3103,45.3136 -0.7399,30.9873 -5.0295,12.6569 -7.9725,2.3927 A8.3238,8.3238 0 0 1 7.9725,-2.3927 Z" stroke-linecap="round" fill="#e599f7"/></g></g><g transform="matrix(1, 0, 0, 1, 5102.3018, 27219.51) scale(4.325250268446951, 4.325250268446951)" opacity="1"><g transform="scale(0.23120049429164374)"><path d="M0.3871,7.3476 T-19.0287,8.7469 -55.9262,11.0174 -101.2559,11.5888 -152.0154,10.2203 -194.964,8.6628 -230.6766,7.9753 -307.441,10.5258 -406.0938,14.5094 -466.5366,16.2778 -502.5006,16.8472 -524.5562,16.7433 -543.4805,16.5842 -553.4343,16.5639 A7.9163,7.9163 0 0 1 -553.8257,0.7361 T-543.8851,0.2238 -525.0592,-0.8691 -503.1405,-2.2526 -467.3028,-4.1115 -407.0267,-6.9506 -307.6752,-11.7102 -229.9976,-14.1 -193.9204,-12.512 -151.1138,-9.7516 -101.268,-6.8132 -56.6236,-5.8419 -19.8425,-6.6988 -0.3871,-7.3476 A7.3578,7.3578 0 0 1 0.3871,7.3476 Z" stroke-linecap="round" fill="#e599f7"/></g></g><g transform="matrix(1, 0, 0, 1, 4639.5001, 27297.3645) scale(4.325250268446951, 4.325250268446951)" opacity="1"><g transform="scale(0.23120049429164374)"><path d="M11.5855,6.3496 T4.5395,14.6333 -7.255,28.3338 -14.8084,40.6336 -18.1173,49.8465 -18.6212,52.1763 A10.3833,10.3833 0 0 1 -38.8091,47.3073 T-36.2914,39.661 -30.4736,26.1707 -22.3259,15.0707 -10.2019,1.7325 -2.9255,-6.3496 A9.6416,9.6416 0 0 1 11.5855,6.3496 ZM-20.0313,44.0493 T-18.4179,46.5562 -6.5191,52.9217 11.4577,59.1348 19.149,61.4892 A7.9294,7.9294 0 0 1 15.451,76.9108 T7.5284,75.5212 -8.0114,72.8615 -20.7209,69.653 -29.8682,64.1799 -35.6611,58.0397 -37.399,55.4344 A10.3833,10.3833 0 0 1 -20.0313,44.0493 Z" stroke-linecap="round" fill="#e599f7"/></g></g><g transform="matrix(1, 0, 0, 1, 4734.6556, 27336.2918) scale(4.325250268446951, 4.325250268446951)" opacity="1"><g transform="scale(0.23120049429164374)"><path d="M5.1485,3.2185 T0.5456,11.5533 -5.2662,31.4423 -7.0564,43.7157 -8.3738,44.9943 -9.959,45.9204 -11.7198,46.4403 -13.5538,46.5236 -15.3544,46.1656 -17.0171,45.3871 -18.4451,44.2333 -19.5555,42.7713 -20.2837,41.086 -20.5874,39.2754 -20.449,37.4447 -19.8765,35.7004 -10.8065,22.8921 5.6571,5.177 13.4428,-0.5672 A6.2339,6.2339 0 0 1 21.1572,9.2272 T13.7488,15.4504 -0.0674,32.335 -7.0564,43.7157 -8.3738,44.9943 -9.959,45.9204 -11.7198,46.4403 -13.5538,46.5236 -15.3544,46.1656 -17.0171,45.3871 -18.4451,44.2333 -19.5555,42.7713 -20.2837,41.086 -20.5874,39.2754 -20.449,37.4447 -19.8765,35.7004 -17.9446,23.8532 -10.7766,4.8125 -5.1485,-3.2185 A6.0717,6.0717 0 0 1 5.1485,3.2185 Z" stroke-linecap="round" fill="#e599f7"/></g></g><g transform="matrix(1, 0, 0, 1, 4816.8353, 27323.316) scale(4.325250268446951, 4.325250268446951)" opacity="1"><g transform="scale(0.23120049429164374)"><path d="M-8.128,-4.0687 T-7.1175,-6.1212 -6.1071,-8.1737 A9.1198,9.1198 0 0 1 10.2032,-0.0092 T9.1656,2.0298 8.128,4.0687 A9.0895,9.0895 0 0 1 -8.128,-4.0687 ZM1.0999,-13.1619 T2.2404,-13.2854 3.3809,-13.409 A9.1284,9.1284 0 0 1 5.2791,4.749 T4.1377,4.864 2.9963,4.979 A9.1198,9.1198 0 0 1 1.0999,-13.1619 ZM8.0553,4.0037 T6.0843,4.8787 -1.0699,10.5039 -8.2079,10.788 -1.2558,10.5135 14.3588,18.6121 25.6171,27.5189 32.0739,39.9336 30.5696,52.9561 21.2964,62.344 9.8978,67.9854 -1.9284,70.5363 -14.351,71.8429 -20.4836,72.4598 A7.666,7.666 0 0 1 -22.7764,57.3002 T-16.7357,56.076 -2.5127,52.6145 8.4049,44.4903 5.1242,34.9992 -12.2429,25.2202 -19.0763,8.3649 -9.736,-6.2502 -2.1542,-11.4243 0.6047,-12.6637 A9.1284,9.1284 0 0 1 8.0553,4.0037 Z" stroke-linecap="round" fill="#e599f7"/></g></g><g transform="matrix(1, 0, 0, 1, 4738.9808, 27331.9665) scale(4.325250268446951, 4.325250268446951)" opacity="1"><g transform="scale(0.23120049429164374)"><path d="M-3.8732,9.6852 T-8.9794,7.6228 -19.8234,7.4512 -19.3412,18.8014 -6.4279,30.8941 3.3537,28.5197 3.6116,16.3866 -4.8374,5.2684 -15.6408,-1.5131 -29.6268,-2.1105 -38.4282,0.0807 A9.9737,9.9737 0 0 1 -48.0718,-17.3807 T-44.3794,-19.8533 -31.0898,-25.0991 -13.4357,-25.7012 -0.282,-20.6256 11.2175,-12.8982 22.4546,0.2798 28.6061,13.81 29.3043,26.5539 23.7016,41.702 13.1834,52.7001 1.7329,56.6587 -11.1463,55.1322 -24.2786,48.1224 -38.8341,30.9155 -46.6805,12.3043 -43.8916,0.9153 -33.4879,-9.8579 -15.8546,-14.6667 -1.2516,-11.7142 3.8732,-9.6852 A10.431,10.431 0 0 1 -3.8732,9.6852 Z" stroke-linecap="round" fill="#e599f7"/></g></g><g transform="matrix(1, 0, 0, 1, 4920.6413, 27262.7625) scale(4.325250268446951, 4.325250268446951)" opacity="1"><g transform="scale(0.23120049429164374)"><path d="M6.1207,2.4482 T-3.4978,28.2643 -17.9902,70.5093 -24.1924,100.0306 -25.3207,121.6748 -19.4359,135.1485 -7.0503,144.4732 -0.3493,148.8761 A7.9088,7.9088 0 0 1 -8.3107,162.5439 T-15.4463,158.8872 -30.6714,150.1874 -41.5659,138.0356 -44.3014,120.807 -41.9223,96.1132 -33.7053,64.8749 -16.9594,22.8812 -6.1207,-2.4482 A6.5922,6.5922 0 0 1 6.1207,2.4482 Z" stroke-linecap="round" fill="#e599f7"/></g></g><g transform="matrix(1, 0, 0, 1, 4989.8453, 27293.0392) scale(4.325250268446951, 4.325250268446951)" opacity="1"><g transform="scale(0.23120049429164374)"><path d="M5.8013,5.077 T-1.2942,13.3056 -13.6382,30.494 -21.217,50.5355 -23.8216,69.2915 -22.402,84.0673 -14.9327,92.1987 -3.0646,92.5933 3.0279,91.9581 A7.6338,7.6338 0 0 1 5.6321,107.0019 T-0.3195,108.4515 -17.6908,108.3527 -33.2663,102.924 -39.2858,93.7947 -41.8071,82.1472 -41.5544,66.5467 -36.8406,44.167 -26.6461,21.0933 -13.0283,3.0602 -5.8013,-5.077 A7.7091,7.7091 0 0 1 5.8013,5.077 Z" stroke-linecap="round" fill="#e599f7"/></g></g><g transform="matrix(1, 0, 0, 1, 4981.1948, 27362.2433) scale(4.325250268446951, 4.325250268446951)" opacity="1"><g transform="scale(0.23120049429164374)"><path d="M-0.9709,4.8545 T-11.1995,2.8088 -32.8245,-1.5162 -44.2209,-3.7955 A4.9506,4.9506 0 0 1 -42.2791,-13.5045 T-30.8827,-11.2252 -9.2577,-6.9002 0.9709,-4.8545 A4.9506,4.9506 0 0 1 -0.9709,4.8545 Z" stroke-linecap="round" fill="#e599f7"/></g></g><g transform="matrix(1, 0, 0, 1, 5028.7726, 27280.0635) scale(4.325250268446951, 4.325250268446951)" opacity="1"><g transform="scale(0.23120049429164374)"><path d="M7.5988,-4.56 T10.7295,0.5677 16.0456,12.4835 20.2133,25.2359 24.5948,44.3374 21.99,83.1453 13.2624,122.7793 4.5693,144.7661 -5.2441,160.5792 -10.0878,168.3687 A8.2514,8.2514 0 0 1 -24.5122,160.3513 T-20.4541,152.1252 -13.376,137.548 -6.6825,117.884 2.1456,82.3705 5.6758,48.4564 1.2352,25.7548 -4.59,9.6633 -7.5988,4.56 A8.862,8.862 0 0 1 7.5988,-4.56 Z" stroke-linecap="round" fill="#e599f7"/></g></g></svg>