<svg xmlns="http://www.w3.org/2000/svg" direction="ltr" width="1382.3387934535745" height="832.9570775491957" viewBox="1229.2452728928743 16822.55780440626 1382.3387934535745 832.9570775491957" stroke-linecap="round" stroke-linejoin="round" style="background-color: transparent;"><defs/><g transform="matrix(1, 0, 0, 1, 1601.5754, 16882.0852)" opacity="1"><g transform="scale(1)"><path d="M2.3026,0 T2.28,2.0907 2.2379,6.7836 2.2173,12.1058 2.2282,17.4374 2.2619,22.7703 2.3108,28.242 2.3637,33.7475 2.8045,39.155 3.36,44.6512 3.5556,50.2774 4.0384,55.8378 4.8391,61.1451 5.5028,67.0065 6.1135,73.139 6.7031,79.235 7.0423,85.8332 7.382,92.2327 7.889,98.7972 8.1915,105.2219 8.277,111.3965 8.3048,117.9017 8.5537,123.9752 9.031,130.0573 9.3281,136.2562 9.4065,142.3609 9.429,148.4463 9.6796,153.8827 10.1575,159.1065 10.4531,164.1303 10.5354,169.2594 10.5633,174.6756 10.5785,179.6456 10.5891,184.2187 10.5968,188.6813 10.5999,193.132 10.1929,197.3563 9.6705,201.974 9.1258,206.8353 8.5897,211.5031 8.0407,216.3774 7.4886,221.3242 6.9372,226.905 6.3804,232.7086 6.2306,238.9855 5.7843,246.0308 5.2634,253.0316 5.134,258.5827 5.0966,264.5163 5.0766,270.5177 5.0708,276.5758 5.0677,282.6443 5.0669,286.9324 5.0664,291.2829 5.0661,295.6662 5.0727,301.8725 5.0822,308.0167 5.0887,314.1146 5.0949,321.7091 5.0989,328.7441 5.1016,335.4866 5.1036,342.1478 5.1051,348.7865 5.1062,355.679 5.107,362.7805 5.1076,369.9422 4.8293,377.3358 4.3547,384.7103 4.1011,392.1263 4.0369,397.9313 4.0278,402.0402 4.0256,408.0801 4.0304,415.9019 4.0362,423.661 4.0376,429.6459 4.0388,435.6959 4.0397,441.7577 4.0403,446.0442 4.0407,450.3938 4.0411,454.7767 4.0414,459.1772 4.0417,463.5869 4.0419,468.0014 4.0461,472.4177 4.3084,476.9426 4.7125,481.403 4.9398,485.7385 5.0659,490.3946 5.3893,495.0339 5.8299,499.5638 6.0775,504.2073 6.2083,508.4819 6.2828,512.5646 6.3294,516.811 6.3579,521.1387 6.3874,527.3101 6.6697,535.0076 7.0888,540.9257 7.3292,545.3493 7.4874,551.576 7.8325,559.3013 8.2584,565.2268 8.5266,571.1979 8.6691,577.9934 8.7009,583.8766 8.7034,589.6395 8.6996,595.6292 8.6951,601.6842 8.6884,607.756 8.3949,613.9625 7.9082,619.8238 7.6478,625.1714 7.2658,630.9367 6.7506,636.9157 6.4927,642.925 6.4109,649.3968 5.9818,656.1092 5.4572,663.1562 5.3033,670.1765 5.2496,677.0563 5.2142,683.7552 5.1591,690.0032 5.0619,695.4666 4.9655,699.2217 4.9317,700.5401 A2.7217,2.7217 0 0 1 -0.5117,700.5399 T-0.5787,698.0381 -0.6932,692.8954 -0.7646,686.9866 -0.7945,680.5742 -0.7916,673.7805 -0.7329,666.5661 -0.6086,661.0139 -0.1399,655.8372 0.2679,649.3415 0.3393,642.7397 0.6327,636.1606 1.1063,630.2843 1.3979,624.9606 1.6725,619.1177 2.1247,613.4236 2.3514,607.7562 2.3442,601.6848 2.338,595.6316 2.328,589.6479 2.3083,583.9052 2.2602,578.0855 2.1146,571.4799 1.8772,565.8543 1.47,559.7481 1.1446,551.7141 1.0393,545.6612 0.8564,541.5317 0.4705,535.4109 0.2155,527.3211 0.2233,521.1635 0.217,516.859 0.1609,510.7154 0.0397,504.5081 -0.164,500.1182 -0.5797,495.4413 -0.894,490.5444 -0.9905,486.0357 -1.1857,481.9113 -1.5834,477.2566 -1.8461,472.4194 -1.8419,468.0014 -1.8417,463.5869 -1.8414,459.1772 -1.8411,454.7767 -1.8407,450.3938 -1.8403,446.0441 -1.8397,441.7576 -1.8386,435.6957 -1.8372,429.6456 -1.8349,423.6602 -1.826,415.8991 -1.8096,408.0701 -1.7915,402.017 -1.7475,396.0338 -1.5977,388.2669 -1.3318,382.3005 -0.9343,376.9033 -0.6876,369.9422 -0.687,362.7805 -0.6862,355.679 -0.6851,348.7865 -0.6836,342.1478 -0.6816,335.4866 -0.6789,328.7441 -0.6749,321.7091 -0.6687,314.1146 -0.6622,308.0167 -0.6526,301.8724 -0.6457,295.666 -0.6456,291.2824 -0.6454,286.9315 -0.6449,282.6426 -0.6423,276.5706 -0.6372,270.5056 -0.6181,264.4798 -0.5416,256.5366 -0.2521,248.9914 0.2371,242.2301 0.5617,235.5955 0.8782,229.1365 1.429,223.561 1.9897,218.2809 2.5329,213.3541 3.0776,208.5137 3.629,203.3147 4.3887,198.0484 4.86,193.0944 4.8629,188.6817 4.8696,184.2201 4.8771,179.6502 4.8808,174.6888 4.8674,169.3192 4.8009,164.3493 4.5606,159.7639 4.0962,154.3742 3.815,148.459 3.7957,142.4086 3.724,136.4233 3.4803,130.7051 3.0069,124.4967 2.719,117.9142 2.7045,111.444 2.638,105.3832 2.3929,99.3595 1.9156,92.7082 1.5719,86.0071 1.3238,79.9192 0.7948,73.8254 0.2648,67.6816 -0.3011,61.9513 -1.0668,56.1318 -1.464,50.3657 -1.5503,44.9425 -2.01,39.391 -2.3637,33.7567 -2.3108,28.242 -2.2619,22.7703 -2.2282,17.4374 -2.2173,12.1058 -2.2379,6.7836 -2.28,2.0907 -2.3026,0 A2.3026,2.3026 0 0 1 2.3026,0 Z" stroke-linecap="round" fill="#f2f2f2"/></g></g><g transform="matrix(1, 0, 0, 1, 1263.4586, 17279.8698)" opacity="1"><g transform="scale(1)"><path d="M0.8341,-2.1368 T2.9275,-2.3754 8.0999,-2.8143 13.2464,-3.0754 17.4893,-3.1618 21.865,-3.2016 26.6698,-3.2241 31.5939,-3.24 36.5547,-3.2591 41.9865,-3.0109 47.3475,-2.5793 52.3698,-2.3692 57.4922,-2.3288 62.5012,-2.3334 67.4858,-2.352 72.4633,-2.3722 77.0382,-2.3899 81.5012,-2.4082 86.8883,-2.8186 92.0986,-3.3479 96.1829,-3.5185 100.3896,-3.5783 105.2868,-3.2079 110.2454,-2.7283 114.833,-2.2151 119.294,-1.6971 124.1106,-1.1777 129.5316,-0.3709 134.5,0.2142 139.6476,0.7601 144.9075,1.2917 149.6872,1.5318 154.7506,1.5951 159.7461,1.6027 164.3216,1.3554 169.1677,0.8709 174.1067,0.5613 179.0794,0.4672 183.8852,0.0451 188.0903,-0.6924 192.6157,-1.3256 197.6589,-1.7003 202.9114,-1.8128 207.9261,-2.2556 213.0541,-2.8034 218.9002,-2.9823 224.7749,-3.0411 230.5318,-3.0659 236.5198,-3.08 242.8346,-3.0896 249.377,-3.0966 256.2224,-2.8259 262.9121,-2.3667 269.3177,-2.1291 275.8843,-2.0676 282.7542,-2.0553 289.726,-2.4391 296.5907,-2.9369 303.4091,-3.0798 310.0926,-3.1262 317.1372,-3.1513 324.2819,-3.1675 331.0548,-3.1773 337.7245,-3.1927 344.6257,-3.2221 351.4694,-3.2572 358.0369,-3.2874 364.5112,-3.3064 370.9596,-3.3062 377.9377,-3.2918 385.0616,-3.2842 392.3089,-3.0232 399.5171,-2.5833 406.4855,-2.3639 413.6014,-2.3147 420.9943,-2.0363 428.4961,-1.5873 435.9357,-1.0894 443.3278,-0.5896 448.8908,-0.0895 454.4238,0.435 461.6307,0.6998 468.8227,0.7819 476.1459,0.8127 481.9252,0.8231 486.0283,0.8267 491.8012,0.824 499.2874,0.8165 506.5547,0.811 513.759,0.8072 521.2059,0.8008 528.7238,0.7803 536.1603,0.5009 543.5391,0.0009 549.3144,-0.2852 555.968,-0.3833 562.8678,-0.4436 568.6577,-0.699 576.0965,-1.1695 583.8791,-1.4488 591.3618,-1.5044 598.4994,-1.7455 605.9367,-2.2157 613.4524,-2.5126 620.4606,-2.6025 627.5967,-2.6422 634.766,-2.6673 641.8389,-2.4022 648.9852,-1.9563 655.8641,-1.7497 662.8689,-1.4329 669.6037,-0.9785 676.2702,-0.4635 682.911,0.0744 688.12,0.5968 693.5667,1.1502 700.3474,1.8543 707.1132,2.7579 712.9519,3.4255 718.5182,2.8977 721.5464,2.1295 A3.5625,3.5625 0 0 1 723.7336,8.9105 T722.4535,9.3885 718.11,10.6415 711.8919,11.166 705.8955,10.5623 699.7721,9.7489 692.7544,9.0311 685.5731,8.411 678.9401,7.6174 672.3172,7.0526 665.6998,6.5024 659.1159,6.0345 652.0908,5.8457 646.3848,5.5427 641.2512,5.1284 634.7703,4.8718 627.6126,4.8583 620.5166,4.8605 613.6344,4.9214 606.6072,5.1675 599.0433,5.6565 591.4115,5.9819 584.0563,6.0758 576.7715,6.3347 569.2026,6.8147 562.8916,7.0999 557.8633,7.1003 551.3493,7.1408 544.1694,7.3666 536.6367,7.8141 528.7238,8.0597 521.2059,8.0392 513.759,8.0328 506.5546,8.0289 499.287,8.0231 491.8001,8.0145 486.0257,8.01 481.9199,8.0108 476.1289,8.0087 468.7662,7.9914 463.2018,7.951 457.5523,7.7802 451.7669,7.446 446.2505,6.8777 440.7455,6.3192 435.2568,5.8209 429.8149,5.4113 424.1275,4.9087 417.0669,4.4815 409.854,4.422 402.5619,4.2449 395.4371,3.7017 388.4621,3.2875 381.5762,3.2875 374.5026,3.2999 367.7058,3.3094 361.4203,3.2998 355.0858,3.2751 348.0807,3.2413 341.0453,3.2063 334.3946,3.1843 327.69,3.1742 320.7912,3.165 313.6923,3.1553 306.8087,3.1631 300.2006,3.2348 293.6344,3.492 286.4246,3.9655 279.1606,4.2269 272.4978,4.1776 265.7504,4.0218 259.1579,3.5013 252.6724,3.0993 246.094,3.0938 239.6311,3.0864 233.6024,3.0785 227.7038,3.0718 221.7767,3.0761 216.2391,3.1267 211.1837,3.337 205.7866,3.7874 200.2152,4.0938 194.6432,4.345 189.191,4.9822 184.2597,5.7964 179.1578,6.2104 174.3331,6.2659 169.8715,6.4951 164.8461,6.9547 159.7284,7.2199 154.6854,7.1821 149.4799,7.0822 144.1487,6.7347 138.8535,6.1464 133.7456,5.5467 128.6515,4.8849 123.6912,4.0627 118.8522,3.4768 114.3974,2.9018 109.8721,2.3403 105.008,1.8107 100.4132,1.4084 95.5014,1.4586 90.7142,1.6788 86.2109,2.1329 81.5011,2.4082 77.0378,2.3896 72.4622,2.371 67.4818,2.3476 62.4878,2.3175 57.4439,2.2717 52.2198,2.1635 46.8345,1.8386 41.5854,1.3313 36.555,1.0594 31.5949,1.0412 26.6735,1.0285 21.8787,1.0175 17.54,1.0189 13.3951,1.0811 8.4691,1.355 3.4538,1.8551 1.3659,2.1368 A2.1533,2.1533 0 0 1 0.8341,-2.1368 Z" stroke-linecap="round" fill="#f2f2f2"/></g></g><g transform="matrix(1, 0, 0, 1, 1604.8903, 17280.9747)" opacity="1"><g transform="scale(1)"><path d="M-1.3639,-2.4639 T-0.3137,-3.4998 1.9965,-6.0753 4.881,-9.5935 8.0644,-13.0452 11.4899,-16.5461 14.8909,-20.6009 17.5033,-24.5127 20.1572,-28.1688 22.9598,-31.5015 25.8181,-34.5397 28.9128,-37.5349 32.138,-40.7493 35.9606,-44.6275 39.3263,-48.7182 42.4857,-52.4761 46.135,-56.1625 49.3638,-59.4891 52.3155,-62.4212 55.3288,-65.3048 58.1931,-68.2865 61.0064,-71.5727 64.3239,-74.9658 67.6242,-78.0728 70.759,-81.1431 74.0024,-84.2201 77.4786,-87.2577 81.1019,-90.4934 84.4374,-93.9436 87.9035,-97.798 91.6522,-101.5173 95.0847,-104.5213 98.1755,-107.2836 101.3892,-110.4477 104.6481,-113.8722 107.9977,-117.6945 111.3143,-121.5706 114.5839,-125.4476 117.8862,-129.3192 121.1753,-132.7074 124.4636,-136.0276 128.1011,-139.8127 131.4379,-143.7136 134.7384,-147.6447 138.3866,-151.522 141.9056,-154.9549 145.1654,-158.2101 148.8305,-161.5379 152.9712,-165.1094 156.9199,-168.6115 160.6667,-171.844 163.9338,-174.5976 167.7313,-178.0661 172.1572,-181.939 175.9196,-185.3025 179.3164,-188.5504 182.7727,-192.1873 185.9902,-195.6197 189.2852,-198.4623 192.6498,-201.6118 195.9713,-204.8339 199.2427,-207.6826 203.106,-210.8164 207.331,-214.5738 211.195,-218.3293 214.7972,-221.9336 218.4805,-225.6371 222.1499,-230.0591 225.0335,-234.2638 227.6782,-238.2408 230.3516,-242.1314 233.2827,-245.656 236.5401,-249.4831 239.8263,-253.2819 243.1891,-256.5213 246.5324,-259.8902 249.7106,-263.3314 253.2341,-266.5949 257.0013,-269.9541 260.6619,-273.0013 264.2585,-276.0401 267.6047,-278.8417 270.827,-281.9893 274.0478,-285.6766 277.8153,-289.6219 281.7129,-293.5567 285.1713,-296.5248 288.5398,-299.4316 292.3972,-302.7576 296.0194,-306.0358 299.3948,-309.3211 303.1235,-312.7828 307.0009,-316.3221 310.4699,-319.4088 313.7173,-322.3984 317.1856,-325.6491 320.2057,-328.8384 322.9826,-332.0129 326.077,-335.5275 329.317,-339.2926 332.4323,-343.0455 335.2849,-346.4778 338.2249,-350.1537 341.4881,-354.4916 344.777,-359.034 348.1034,-363.1677 349.7863,-364.9746 A3.7056,3.7056 0 0 1 355.1737,-359.8854 T352.9971,-357.5764 349.6571,-353.5676 347.0672,-349.9488 344.336,-346.2544 341.4377,-342.6896 338.6193,-339.3201 335.8022,-335.7303 332.0964,-331.4334 328.6401,-327.6376 325.0605,-323.5895 321.0449,-319.3096 317.2592,-315.9154 313.3945,-312.5224 309.463,-308.7239 305.4085,-305.0162 301.9493,-301.944 298.934,-298.9631 295.2827,-295.8462 290.8878,-292.2152 286.933,-288.547 283.6185,-285.2337 280.351,-281.8586 277.2226,-278.5212 273.2794,-274.637 269.0808,-270.7541 265.4733,-267.7256 262.153,-265.001 258.5304,-261.8373 254.9501,-258.6343 251.9829,-255.6502 248.2462,-251.883 244.2747,-247.8332 241.1991,-244.3783 238.346,-241.1427 235.4441,-237.4978 232.8584,-233.8222 230.3696,-230.3503 227.834,-226.7309 224.825,-223.1817 221.5063,-219.9077 218.2466,-216.6903 214.3935,-212.9519 210.5149,-209.0819 206.9041,-205.6632 203.2737,-202.6403 199.6094,-199.4122 195.8714,-195.8944 192.0483,-192.6175 188.6013,-189.5459 185.6802,-186.223 182.0152,-182.561 177.52,-178.4885 173.2643,-174.8972 169.5087,-171.8017 165.7669,-168.3309 161.9223,-165.0853 158.2129,-162.2041 154.8684,-159.4439 151.5797,-156.6897 148.2406,-153.3997 144.6549,-149.9556 141.0471,-146.7766 138.0996,-143.3865 135.02,-139.7513 131.6184,-135.8641 128.3282,-132.2205 125.0101,-128.9125 121.8311,-125.6747 119.0722,-122.3829 116.2854,-119.0777 113.0795,-115.636 109.6419,-111.7196 106.2917,-108.04 102.9386,-104.7569 99.3142,-101.6718 95.453,-98.3242 91.8094,-94.5726 88.7341,-91.1073 85.6413,-87.9512 82.4766,-85.1486 79.3862,-82.4456 75.8574,-79.4919 72.4825,-76.2038 69.0352,-72.8689 65.6282,-69.6494 62.6754,-66.5713 59.4747,-63.2299 56.1441,-59.736 52.5962,-56.3389 49.3314,-53.065 46.1365,-50.0709 43.1287,-46.8493 40.4086,-43.3362 37.2497,-39.9616 33.799,-36.896 30.3423,-33.6659 27.2308,-30.5244 24.1828,-27.1482 21.1936,-23.1864 18.1749,-19.0393 14.9393,-14.9093 11.6915,-11.3154 8.2534,-7.6821 4.9677,-3.7623 2.4044,-0.7909 1.3639,0.2639 A1.9289,1.9289 0 0 1 -1.3639,-2.4639 Z" stroke-linecap="round" fill="#e599f7"/></g></g><g transform="matrix(1, 0, 0, 1, 1978.3658, 16957.2223)" opacity="1"><g transform="scale(1)"><path d="M1.2589,2.6093 T-0.2724,3.9587 -4.4609,7.9577 -9.4134,12.605 -14.7168,16.4281 -17.725,18.2536 A1.9869,1.9869 0 0 1 -19.835,14.8864 T-17.3331,13.2592 -12.4014,9.4948 -7.2198,4.7405 -2.8635,0.857 -1.2589,-0.4093 A1.9654,1.9654 0 0 1 1.2589,2.6093 Z" stroke-linecap="round" fill="#e599f7"/></g></g><g transform="matrix(1, 0, 0, 1, 1959.5815, 16956.1173)" opacity="1"><g transform="scale(1)"><path d="M2.0639,-1.3759 T3.1136,0.189 5.9327,4.1585 9.7966,9.0324 13.93,13.652 17.6364,17.6965 20.0588,20.6289 20.8137,21.6671 A2.5467,2.5467 0 0 1 16.7463,24.7329 T15.9561,23.7213 13.8025,21.2567 10.3084,17.5225 5.8507,12.3637 1.7709,7.002 -1.0229,2.947 -2.0639,1.3759 A2.4805,2.4805 0 0 1 2.0639,-1.3759 Z" stroke-linecap="round" fill="#e599f7"/></g></g><g transform="matrix(1, 0, 0, 1, 1605.9953, 17276.5549)" opacity="0.25"><g transform="scale(1)"><path d="M2.0186,1.2585 T1.2966,2.3943 -0.9255,4.8667 -4.3355,8.7844 -8.0336,13.3059 -11.4413,17.049 -14.7073,20.5497 -18.5002,24.7353 -23.0281,29.3847 -27.1709,33.5847 -30.6446,37.3908 -34.0071,40.8429 -37.2071,44.4987 -40.3156,48.1764 -43.6164,52.1616 -46.9116,56.0769 -50.166,59.8437 -53.451,63.6997 -56.663,67.1063 -59.799,70.5725 -62.9713,74.131 -66.3502,77.8191 -69.7382,81.4794 -72.9892,84.694 -76.3729,87.6869 -80.1973,90.8712 -83.8906,94.1344 -87.2888,97.309 -90.5406,100.6064 -93.7631,104.0939 -97.2845,107.4481 -101.3035,111.3479 -105.194,115.5723 -108.4929,119.1835 -111.5869,122.6378 -114.7019,126.4997 -118.0151,130.4567 -121.7102,134.5248 -125.385,138.8685 -128.7116,143.1925 -132.0868,147.2734 -135.0102,151.0191 -137.8649,154.7704 -140.8377,158.2058 -143.8342,161.9754 -147.162,166.4219 -150.238,170.1504 -153.3866,173.647 -156.8425,178.0446 -160.2596,182.03 -163.6338,185.5974 -167.0436,189.3612 -170.2799,193.2077 -172.9923,196.9089 -175.8644,199.9056 -179.2267,202.8731 -182.5101,206.5234 -185.7891,209.919 -189.1573,212.8505 -192.2991,216.1071 -195.5734,219.8845 -199.0781,223.7287 -202.6867,227.3956 -206.4036,230.8353 -209.893,233.5461 -213.76,236.8554 -217.7151,240.5521 -221.1663,243.7832 -224.4936,247.0763 -227.8075,250.3906 -231.0774,253.3663 -234.8752,256.3518 -238.7076,259.9075 -242.4843,263.8802 -246.268,268.0814 -249.7043,272.1369 -253.6553,275.9701 -257.3721,279.3235 -260.8187,282.5646 -264.6345,286.0615 -268.468,289.3318 -272.0051,292.6384 -275.299,295.9035 -278.6494,299.0574 -281.9186,302.2122 -285.296,305.0954 -289.2068,308.1609 -292.8513,311.2813 -296.1332,313.9581 -300.1611,316.9844 -304.1146,320.2066 -307.6127,322.9827 -311.085,325.5659 -314.4641,328.3448 -317.6927,331.2657 -321.3906,334.0201 -325.336,336.5923 -328.7515,339.1915 -332.654,341.9754 -336.9217,344.786 -340.9427,347.832 -342.944,349.4661 A3.0891,3.0891 0 0 1 -346.556,344.4539 T-345.7167,343.835 -342.9024,341.6382 -339.3251,338.8783 -335.5601,336.2016 -331.7947,333.4586 -328.5652,331.0523 -324.7414,328.383 -320.4933,325.2787 -316.5895,322.26 -312.5383,318.8051 -308.2177,314.9501 -304.2656,311.656 -300.2995,308.7662 -296.7669,305.8158 -293.5155,302.788 -289.6459,299.619 -285.8432,296.2929 -282.2966,292.931 -278.4588,289.459 -275.0967,286.1569 -271.7817,282.8091 -267.9646,279.5265 -264.2209,276.456 -260.4869,273.1326 -257.0943,269.7539 -253.9657,266.3687 -251.1324,262.9619 -248.1924,259.5042 -244.8021,256.0877 -241.3056,252.9305 -237.524,249.8236 -233.8108,246.587 -230.4897,243.2756 -227.1278,239.9363 -223.5116,236.473 -219.5399,232.9586 -215.6379,229.6438 -211.6156,226.2789 -207.5258,222.5829 -203.9785,219.0112 -200.8467,215.6555 -197.4468,211.778 -193.6562,207.8353 -189.9344,204.5261 -186.851,201.3303 -183.7267,197.923 -179.7938,194.2053 -176.7312,190.4759 -174.0579,187.0261 -170.7071,183.6052 -167.466,180.1054 -164.3704,176.8032 -161.659,173.597 -159.0799,170.2312 -156.2033,167.0318 -153.2266,163.8079 -150.0261,159.8511 -146.4459,155.2472 -143.049,151.2123 -139.9394,147.2092 -136.7395,143.1364 -133.4354,139.1951 -129.9547,134.7626 -126.3352,130.5673 -122.8819,126.879 -119.5886,123.0113 -116.1584,118.802 -112.9275,115.1883 -110.055,111.9216 -106.7284,108.4884 -103.1568,104.9792 -99.8761,101.5206 -96.6219,98.1118 -93.2199,94.6809 -89.5976,91.4656 -85.8667,88.2365 -81.4987,84.4314 -77.2889,80.7366 -73.9106,77.4832 -70.6705,74.1096 -67.427,70.7098 -63.9962,66.9767 -60.5992,63.3043 -57.0115,59.5069 -53.667,55.668 -50.2759,51.8777 -46.9534,48.0327 -44.2052,44.7915 -41.5469,41.672 -38.6622,38.4292 -35.3057,35.1048 -31.8573,31.5667 -27.8148,27.5586 -23.9903,23.7983 -20.9198,20.3975 -17.7902,16.9565 -14.7183,13.6666 -11.5604,10.2017 -8.4099,6.4019 -5.0834,2.5664 -2.6161,-0.2778 -2.0186,-1.2585 A2.3788,2.3788 0 0 1 2.0186,1.2585 Z" stroke-linecap="round" fill="#e599f7"/></g></g><g transform="matrix(1, 0, 0, 1, 1602.6804, 17280.9747)" opacity="1"><g transform="scale(1)"><path d="M-1.5336,1.228 T-2.5708,-0.084 -5.1439,-3.4321 -8.3302,-6.9461 -11.5607,-9.8026 -14.6349,-12.6832 -18.3028,-15.2317 -22.4639,-17.9325 -26.0108,-21.3892 -29.059,-24.7632 -32.3205,-28.0225 -35.9251,-31.2822 -39.9268,-34.46 -44.4654,-37.8198 -48.8183,-40.9338 -52.7255,-43.6663 -56.5154,-46.7822 -59.9865,-49.984 -63.4506,-53.1224 -67.398,-56.7486 -71.2431,-60.8904 -74.3013,-64.9848 -76.9924,-68.3181 -79.9909,-71.2863 -82.9859,-74.3849 -85.9496,-77.5571 -88.9766,-80.7998 -91.8212,-84.1346 -94.9876,-87.5797 -98.2388,-90.8597 -101.362,-94.0411 -104.2356,-97.3817 -107.2446,-100.7758 -110.4846,-104.0309 -113.7153,-107.6346 -117.4955,-111.7664 -121.238,-115.7153 -124.7614,-119.6694 -128.5975,-123.606 -131.9319,-127.1171 -134.7749,-130.3739 -137.9887,-133.6262 -140.8834,-136.9802 -143.3783,-140.4052 -146.0593,-143.6613 -149.1115,-146.8274 -152.1803,-150.0367 -154.9645,-153.2447 -157.8501,-156.3524 -161.0865,-159.1963 -164.9237,-162.2357 -169.1374,-165.4815 -172.7,-168.5681 -176.2017,-171.9309 -180.4998,-175.8545 -184.9677,-179.5734 -188.8082,-182.8752 -192.5647,-186.3118 -196.4361,-189.8105 -199.8913,-193.1801 -203.1584,-196.2699 -206.4873,-199.5432 -209.9006,-203.0585 -213.2338,-206.3928 -216.2748,-209.84 -219.0794,-213.1674 -222.2794,-216.7973 -225.6599,-220.4854 -229.2879,-223.888 -233.4383,-227.3271 -237.3551,-230.6726 -241.0951,-234.6888 -244.4683,-238.5768 -247.4506,-241.8279 -250.4252,-245.2641 -253.2246,-248.8819 -256.3164,-252.6372 -259.7858,-256.621 -263.087,-260.4607 -266.2534,-263.8877 -269.6382,-267.0828 -273.3103,-270.3321 -277.0484,-273.7695 -280.1393,-277.0344 -283.4408,-281.1824 -287.0046,-285.4907 -290.2187,-288.8056 -293.2226,-292.1404 -296.693,-296.0953 -300.3191,-299.9866 -303.5663,-303.5006 -307.5246,-306.9976 -311.8514,-310.3488 -316.1244,-313.7036 -319.999,-317.7285 -322.0539,-321.0167 -322.3698,-321.9315 A2.0592,2.0592 0 0 1 -318.5102,-323.3685 T-316.9481,-321.0103 -313.1898,-317.0245 -309.3132,-314.0437 -305.4031,-311.2148 -301.4091,-307.9637 -298.2553,-304.7109 -294.7734,-300.8591 -290.4514,-295.9929 -286.6105,-291.9849 -283.3022,-288.5715 -280.0313,-284.8812 -276.9779,-281.0179 -273.8061,-277.3479 -270.3663,-274.1535 -266.5347,-270.7606 -262.7655,-267.2422 -259.3092,-263.4688 -256.0296,-259.6594 -252.9016,-256.1251 -249.627,-252.169 -246.376,-248.1221 -243.0045,-244.3039 -239.8999,-240.674 -236.5799,-236.8919 -232.8777,-233.2084 -229.5512,-230.4519 -226.1424,-227.6922 -222.1257,-223.8956 -218.3999,-219.9354 -215.2704,-216.41 -211.9539,-212.5524 -208.5987,-208.7942 -205.2279,-205.3655 -201.8161,-201.6372 -198.0294,-197.8519 -194.2745,-194.3738 -190.7216,-190.9754 -186.6864,-187.2214 -182.8272,-183.9118 -179.6384,-181.1205 -176.5376,-178.4297 -173.0458,-175.5321 -169.0898,-171.8599 -164.5872,-168.0615 -159.6958,-164.1447 -155.7766,-160.6526 -152.8579,-157.8921 -149.9146,-154.7321 -146.7982,-151.2563 -143.5329,-147.8758 -140.2571,-143.9409 -136.9361,-139.5663 -133.6203,-135.734 -130.3804,-132.332 -126.9761,-128.6782 -123.6007,-124.851 -120.3254,-121.1864 -116.846,-117.3357 -113.4887,-113.6775 -110.3928,-110.3182 -107.0956,-106.4266 -103.303,-102.4428 -99.5968,-98.4553 -96.2901,-94.703 -93.0047,-91.376 -89.6384,-87.6431 -86.2986,-83.7633 -83.0515,-80.3018 -79.7793,-77.0067 -76.5717,-73.4909 -73.1463,-69.6736 -70.2354,-65.9885 -67.7463,-62.4957 -64.4059,-59.2124 -60.8831,-56.2018 -57.1043,-52.702 -53.313,-49.2178 -49.7506,-46.4173 -45.861,-43.6277 -41.6494,-40.6713 -37.7882,-38.0542 -34.3266,-35.2171 -30.8642,-31.9013 -27.3907,-28.3573 -23.6976,-24.4778 -20.1588,-21.0719 -16.5012,-18.6018 -12.6787,-16.0207 -9.0969,-12.8383 -5.4284,-9.4387 -2.0394,-5.738 0.4801,-2.527 1.5336,-1.228 A1.9646,1.9646 0 0 1 -1.5336,1.228 Z" stroke-linecap="round" fill="#4dabf7"/></g></g><g transform="matrix(1, 0, 0, 1, 1309.8668, 16937.3331)" opacity="1"><g transform="scale(1)"><path d="M-0.7447,1.8601 T-2.061,1.3658 -4.7608,0.9224 -6.1443,0.9733 A2.1295,2.1295 0 0 1 -7.1157,-3.1733 T-4.4802,-3.0678 -0.5499,-2.4112 0.7447,-1.8601 A2.0037,2.0037 0 0 1 -0.7447,1.8601 ZM-6.809,-3.2219 T-5.6235,-3.2577 -1.6309,-2.8094 3.5264,-2.2436 7.3674,-2.1109 8.8583,-2.06 A2.0601,2.0601 0 0 1 8.8217,2.06 T5.9773,2.1103 1.0072,2.097 -3.3367,1.4256 -6.0029,0.9198 -6.451,1.0219 A2.1295,2.1295 0 0 1 -6.809,-3.2219 Z" stroke-linecap="round" fill="#4dabf7"/></g></g><g transform="matrix(1, 0, 0, 1, 1343.0155, 16929.5984)" opacity="1"><g transform="scale(1)"><path d="M1.1906,2.0822 T-0.6187,3.1602 -4.3549,5.5464 -9.5252,8.827 -14.5971,11.9089 -16.4256,13.0184 A2.3341,2.3341 0 0 1 -18.9344,9.0816 T-17.1563,7.8928 -12.2221,4.6827 -6.9752,1.3023 -3.0376,-1.0695 -1.1906,-2.0822 A2.3985,2.3985 0 0 1 1.1906,2.0822 Z" stroke-linecap="round" fill="#4dabf7"/></g></g><g transform="matrix(1, 0, 0, 1, 1325.3362, 16925.1786)" opacity="1"><g transform="scale(1)"><path d="M1.2267,-2.4572 T2.7966,-1.6553 6.587,1.036 10.7254,5.0173 14.4494,8.6443 17.9051,12.0483 21.1647,15.2951 22.7748,16.673 A2.7613,2.7613 0 0 1 19.2052,20.887 T18.2083,20.0742 14.7945,16.8071 10.3069,12.4258 6.6934,8.7336 3.5281,5.4764 0.3394,3.2209 -1.2267,2.4572 A2.7464,2.7464 0 0 1 1.2267,-2.4572 Z" stroke-linecap="round" fill="#4dabf7"/></g></g><g transform="matrix(1, 0, 0, 1, 1603.7854, 17278.7648)" opacity="0.25"><g transform="scale(1)"><path d="M1.5165,-1.5165 T2.8172,-0.205 5.8825,3.2883 9.4526,7.4074 12.6312,11.1526 15.4533,14.5233 18.5354,17.7281 21.9368,21.128 25.5353,24.7033 28.9401,28.0772 32.2203,30.9214 35.8796,33.9941 39.9851,37.4969 44.153,40.9282 48.1281,44.2058 51.789,47.3895 55.164,50.6574 58.2747,53.8683 61.2655,57.2545 64.7518,60.6648 68.844,63.9011 72.3943,67.0766 75.8599,71.1338 79.6171,75.587 83.1084,79.6419 86.6232,83.297 90.0904,86.4926 93.2905,89.8689 96.3276,93.3794 99.417,96.7058 102.2729,99.887 105.6033,103.7343 109.3439,107.7289 112.6358,111.0591 116.0952,114.8132 120.1658,119.2031 123.9893,123.0977 127.7769,127.0609 132.1111,131.4269 135.8747,135.193 139.3682,139.0902 143.0905,143.5958 146.6817,147.9179 150.3721,151.9309 153.932,155.5817 157.7149,159.3847 161.9451,164.2985 166.0112,169.6327 169.994,174.3512 173.8619,178.1423 177.6852,181.6813 181.4687,185.3963 184.7818,188.9847 188.1376,192.6831 191.3385,196.0961 194.8331,199.7889 199.1812,203.7989 203.7235,207.8484 207.8004,211.6562 211.3232,215.0976 215.1389,219.0111 219.0007,222.8998 222.2079,226.1138 225.878,229.6473 229.6953,233.4137 232.7714,236.5992 236.0224,239.8751 239.6486,243.5016 243.2103,247.0585 246.5636,250.4069 249.8869,253.7248 253.6103,257.0547 257.1988,260.516 260.3231,264.139 263.6731,267.6364 267.2927,271.1382 271.1405,274.5581 275.2784,278.1425 279.3125,282.2782 282.8491,286.1283 286.0909,289.3145 289.4991,292.576 292.9256,295.5901 297.1982,298.9495 301.5589,302.5842 305.6519,306.0909 310.0492,310.1014 313.6799,313.2506 317.1595,316.0939 320.323,320.1295 321.6484,322.4749 A2.6459,2.6459 0 0 1 317.0116,325.0251 T316.2387,323.5556 313.8308,320.5899 309.9394,317.3903 306.1454,314.1336 302.0479,310.447 297.938,306.9392 294.7678,304.304 291.1828,301.5529 287.3276,298.4426 283.4611,294.8993 280.2184,291.4071 277.1895,287.9462 273.6645,284.3129 270.1606,281.0365 266.8317,278.2102 263.4114,275.1125 259.9298,271.7406 256.8449,268.5498 253.8837,265.0444 250.5539,261.7738 247.0954,258.7265 243.779,255.4071 240.4474,252.0705 237.006,248.6216 233.7871,245.393 230.4902,242.0678 227.2426,238.7405 224.4609,235.6727 221.4397,232.7142 218.3735,229.9347 215.1671,226.7105 211.2873,222.7861 207.3317,218.6963 203.8785,215.3145 200.0796,211.7967 195.4898,207.7075 190.9426,203.5124 187.2883,199.6548 183.8814,196.0015 180.6869,192.4951 177.6572,189.2574 173.9545,185.6364 169.9382,181.8939 165.7074,177.6963 161.6462,172.8763 158.5441,168.7936 155.5765,165.1789 151.8669,161.2103 148.121,157.4124 144.1973,153.2923 140.3936,148.8194 137.0102,144.5106 133.674,140.6964 130.2617,136.9897 126.121,132.809 122.1895,128.7772 118.8481,125.0638 115.3753,121.6665 112.0163,118.2346 108.8457,114.8263 105.508,111.444 102.1037,107.8766 98.8115,104.0604 95.5799,100.3947 92.221,96.7321 88.5308,92.5805 85.0843,89.0477 81.6237,85.499 78.0155,81.6069 74.9837,78.2163 72.2489,74.8622 69.0263,71.065 65.3653,67.5933 62.0291,64.7268 58.5908,61.2765 54.4643,56.9321 50.6771,52.9975 47.1248,49.6002 43.7083,46.4185 40.3859,43.6293 36.6284,40.6511 32.8928,37.3395 29.2618,34.1835 25.87,31.1522 22.4936,27.7432 18.9175,24.1378 15.512,20.6868 12.2542,17.2454 9.4412,13.8753 6.3303,10.2333 2.7625,6.156 -0.2063,2.816 -1.5165,1.5165 A2.1446,2.1446 0 0 1 1.5165,-1.5165 Z" stroke-linecap="round" fill="#4dabf7"/></g></g><g transform="matrix(1, 0, 0, 1, 1287.7677, 16957.2223)" opacity="1"><g transform="scale(1)"><path d="M3.1397,-1.6333 T4.1688,-0.3148 6.6357,2.6688 9.767,6.4498 12.9193,10.0438 15.9882,13.2352 19.4203,16.6642 22.9857,19.7896 26.4595,22.8783 29.8662,26.212 33.186,29.825 36.5743,33.6761 40.1402,37.5146 43.9458,41.297 47.6469,44.8009 51.4606,48.0542 54.9613,51.2448 58.2127,54.4638 61.9436,57.8187 65.2989,61.1312 68.2506,64.4875 71.3128,67.8602 74.7567,71.5736 78.5866,75.3887 82.2896,78.7491 85.2877,82.1358 88.0824,85.4341 90.8218,88.6451 93.154,91.9261 95.4501,95.1966 98.105,98.9414 100.8333,102.9175 103.5714,106.419 106.2911,109.794 109.0392,113.0951 112.3943,116.8034 116.1408,120.5682 119.8154,123.914 123.6618,127.6814 127.5508,131.5056 131.4608,135.3292 134.9632,138.8904 137.9073,142.2193 140.8977,145.9901 143.7989,150.0083 146.4965,153.6657 149.3912,157.4374 152.5076,161.3153 155.5816,164.6611 158.8453,167.9767 162.3866,171.1551 166.1089,173.8837 169.9708,176.6482 173.5726,179.9202 176.6962,183.3643 179.8791,186.508 183.3102,189.4555 187.6413,193.2853 192.3393,197.3652 196.141,200.723 199.5296,203.9085 203.2155,207.2932 207.1795,210.9198 210.745,214.0334 213.9943,217.1561 217.6717,220.6426 222.0671,224.4398 226.4885,228.6976 230.5947,233.2346 234.8515,237.849 238.5185,241.5794 242.3512,245.4298 246.6648,249.4488 250.2343,253.1134 253.6517,257.029 257.184,260.7084 260.5123,264.0769 264.0369,267.9443 267.6329,271.7001 270.7699,275.0059 273.7934,278.2509 277.0153,281.539 280.6865,285.4798 284.2943,289.6246 287.9418,293.9065 291.9532,298.1733 295.5462,301.8704 299.2526,305.2673 303.0691,308.5995 306.4852,311.3995 309.7291,314.2237 313.4266,317.3902 315.5045,318.8794 A3.1544,3.1544 0 0 1 312.1155,324.2006 T311.2133,323.6411 308.4991,321.7367 305.2359,318.8784 302.0923,316.1781 298.8773,313.5891 295.5061,310.7818 291.9617,307.7101 288.4265,304.2351 284.9686,300.8173 281.9278,297.7053 279.0794,294.409 276.0854,291.0363 272.8617,287.5465 269.5303,284.2188 266.213,280.7971 262.8367,277.3546 259.5587,274.0098 256.3463,270.4469 252.9909,267.0988 249.4488,263.4936 245.9112,259.6799 242.5944,256.0626 238.719,252.1278 234.8507,248.2622 231.0241,244.3986 226.6418,239.8706 222.8862,235.9725 219.6905,232.5222 216.4256,229.4246 213.0662,226.8578 209.5883,223.5244 205.8941,219.9452 202.1116,216.6987 197.8477,212.7937 193.9102,209.1887 190.2476,205.7631 186.2679,202.1582 182.9168,199.2547 179.3425,196.0028 175.0643,192.143 171.0116,188.0924 167.7484,184.5655 164.3102,181.5571 160.4201,178.7476 156.3532,175.6267 152.4883,172.0659 149.0849,168.5688 145.7053,164.5594 142.4717,160.2906 139.213,156.3098 136.3593,152.2774 133.4203,148 130.0942,144.1199 126.4894,140.2937 122.6717,136.3883 119.4024,133.0715 116.2357,129.8927 112.748,126.5002 109.4689,123.1663 106.3572,119.8752 103.0502,116.3658 99.668,112.3357 96.3285,107.8833 93.4793,103.8676 90.5739,99.8779 87.1859,95.2723 84.023,91.1806 80.9162,87.2886 77.6784,83.5623 74.2897,80.5091 70.9487,77.0408 67.7809,73.37 64.4729,69.5441 60.6383,65.1201 56.7052,61.1711 52.8831,57.2765 49.1187,53.4886 45.2893,50.1042 41.4353,46.552 38.0065,43.284 34.8335,39.9391 31.6959,35.9528 28.4045,32.09 25.1148,28.7805 21.786,25.5152 18.5589,22.5346 15.3579,19.6402 12.0093,16.4811 8.6716,12.8898 5.6755,9.3332 2.7501,5.9762 0.1218,2.9258 -0.9397,1.6333 A2.6131,2.6131 0 0 1 3.1397,-1.6333 Z" stroke-linecap="round" fill="#ffc034"/></g></g><g transform="matrix(1, 0, 0, 1, 1600.4705, 17282.0797)" opacity="1"><g transform="scale(1)"><path d="M-2.2848,-1.5232 T-1.2286,-3.0849 1.2466,-6.3701 5.1643,-10.4373 9.578,-14.5184 13.6067,-18.0753 17.8929,-21.6039 21.7791,-24.9336 25.2341,-28.4259 28.6977,-31.96 32.0825,-35.2955 35.3857,-38.641 38.5153,-42.0773 41.7405,-45.8518 44.9967,-49.7195 47.8613,-53.1994 50.6525,-56.3642 54.3698,-60.3587 58.0847,-64.5861 61.1997,-68.1501 64.3228,-72.0827 67.5973,-76.2903 70.632,-80.013 73.4609,-83.4637 76.399,-86.783 79.8261,-90.629 83.4858,-95.1029 86.3215,-98.8573 89.3126,-102.3857 92.5471,-105.7847 95.8735,-109.0436 99.3403,-112.512 102.647,-115.8416 105.6778,-119.3717 108.7635,-123.0262 112.0139,-126.2441 115.1627,-129.4125 118.6579,-132.6797 122.2788,-135.5527 126.0484,-138.8772 129.5742,-142.2633 132.6855,-145.1417 136.4313,-148.4593 140.332,-152.1439 143.8297,-155.6121 147.2049,-158.8781 150.7804,-162.4473 154.3064,-166.3978 157.6666,-170.3052 161.4875,-174.3057 165.0721,-177.9586 168.5885,-181.5135 172.6111,-185.5679 177.1689,-190.1582 181.6188,-194.6349 185.2423,-197.9979 189.6229,-202.3149 194.0208,-206.6812 197.8105,-210.3076 201.7935,-214.5427 205.462,-218.4466 208.8827,-221.9487 212.3907,-225.0782 215.9914,-228.198 219.2111,-231.3169 222.1086,-234.1927 225.3998,-237.9635 229.068,-242.4249 232.7568,-246.6817 236.3373,-250.586 240.3934,-254.8666 244.052,-258.9916 247.5707,-262.5134 251.2183,-266.1719 254.7743,-270.1395 258.7964,-274.2738 263.5998,-278.3712 268.527,-282.2967 272.7492,-286.1411 277.5263,-290.7919 281.7317,-294.6872 285.2344,-297.8118 289.2048,-301.4695 293.2855,-304.9602 297.6521,-308.9637 301.4439,-312.8937 305.0743,-316.4538 309.1088,-320.2246 312.9111,-323.9394 316.7679,-327.7492 320.1698,-331.3357 323.3165,-335.1253 326.2466,-339.1648 329.3957,-342.9339 332.9717,-346.817 336.9463,-350.8634 340.7476,-354.6459 343.9492,-357.747 347.1725,-361.0003 349.3982,-363.8763 350.0523,-364.7809 A4.2475,4.2475 0 0 1 357.1277,-360.0791 T356.5471,-359.1257 354.7264,-356.4525 351.763,-352.9941 348.3894,-349.4664 345.113,-346.179 341.9132,-343.0746 338.607,-339.4978 335.4064,-335.9795 332.3055,-331.9276 328.8828,-327.2115 325.3232,-323.2124 321.4648,-319.3304 317.5799,-315.4708 313.6022,-311.6481 309.7908,-307.8704 306.5726,-304.8035 303.2086,-301.4965 299.1037,-297.5455 294.7503,-293.8598 290.9823,-290.4818 286.7177,-286.5323 281.6833,-281.7923 276.7947,-277.1108 272.0296,-273.1094 267.5391,-269.4375 263.3576,-265.4313 259.5575,-261.4607 255.8044,-257.4775 252.3046,-253.9862 248.7236,-250.1628 244.9572,-246.008 241.6894,-242.61 238.2125,-238.6183 234.7343,-234.618 231.6154,-230.9905 228.6294,-227.6245 225.6505,-224.7088 222.0929,-221.3301 217.7882,-217.5515 213.8746,-214.016 210.493,-210.5507 206.6252,-206.3081 201.6494,-201.3754 197.3734,-197.38 192.9153,-193.004 188.0039,-188.2477 183.5289,-183.799 178.9409,-179.2417 174.8959,-175.2224 171.3659,-171.7093 167.8087,-168.142 164.144,-164.3746 160.6805,-160.4416 156.8788,-156.2908 153.1855,-152.6834 149.5212,-149.2246 145.9015,-145.7214 142.4136,-142.5343 138.6887,-139.348 135.0033,-136.0501 131.7237,-132.9767 127.9503,-129.7704 124.0897,-126.8376 121.0313,-124.0873 117.8251,-120.9408 114.4485,-117.6589 111.3273,-114.0451 108.141,-110.4179 104.7613,-107.0698 101.2129,-103.5821 97.2483,-99.8911 93.2309,-95.5896 90.0091,-91.408 87.2313,-88.1441 83.9099,-84.3955 80.5238,-80.3095 77.6953,-76.9552 74.7764,-73.4835 71.4275,-69.5059 67.8907,-65.3863 64.5355,-61.6209 61.4486,-58.3823 58.412,-55.0163 54.974,-51.1959 51.5342,-47.2601 48.405,-43.6601 45.0224,-39.8546 41.5792,-36.0927 38.1854,-32.7971 34.6931,-29.4636 31.1085,-26.2486 27.3813,-22.6231 23.3908,-18.7758 19.2741,-15.4047 15.3446,-12.0325 11.2547,-8.4166 6.6973,-4.0897 3.3193,-0.0511 2.2848,1.5232 A2.746,2.746 0 0 1 -2.2848,-1.5232 Z" stroke-linecap="round" fill="#ffc034"/></g></g><g transform="matrix(1, 0, 0, 1, 2321.5872, 16896.5181)" opacity="1"><g transform="scale(1)"><path d="M1.5381,2.1533 T-0.6339,3.728 -4.4037,6.9418 -7.955,10.2234 -12.4962,13.9099 -17.1663,17.3382 -21.4843,20.2234 -23.7199,21.7246 A2.3624,2.3624 0 0 1 -26.4601,17.8754 T-24.3098,16.2544 -20.3054,13.2152 -15.9389,9.7085 -11.635,6.1596 -7.8893,2.82 -3.7366,-0.6062 -1.5381,-2.1533 A2.6462,2.6462 0 0 1 1.5381,2.1533 Z" stroke-linecap="round" fill="#ffc034"/></g></g><g transform="matrix(1, 0, 0, 1, 2297.8218, 16896.5181)" opacity="1"><g transform="scale(1)"><path d="M2.2124,-1.8436 T3.7395,0.0575 6.6936,3.5193 9.599,6.9183 12.6231,10.1255 16.0274,13.2451 21.4965,17.3121 27.7426,21.1156 30.3782,22.6032 A2.8193,2.8193 0 0 1 27.7218,27.5768 T25.0198,26.2135 19.6589,23.4961 15.312,20.7676 11.852,17.6212 8.2908,14.0868 5.2062,10.5915 2.4439,7.196 -0.6177,3.6886 -2.2124,1.8436 A2.8799,2.8799 0 0 1 2.2124,-1.8436 Z" stroke-linecap="round" fill="#ffc034"/></g></g><g transform="matrix(1, 0, 0, 1, 2382.3208, 16901.7993)" opacity="1"><g transform="scale(1)"><path d="M2.4663,-0.4111 T2.818,1.4551 3.9917,7.2317 5.1072,13.2466 5.4006,15.3511 A2.8036,2.8036 0 0 1 -0.1206,16.3289 T-0.2826,15.3896 -0.7309,11.3424 -1.469,6.2027 -2.1936,2.291 -2.4663,0.4111 A2.5003,2.5003 0 0 1 2.4663,-0.4111 ZM-0.1604,15.9741 T-0.1714,14.8617 0.7987,11.8537 3.4792,7.2613 7.4857,2.8831 9.7927,1.2014 A2.685,2.685 0 0 1 11.9477,6.1201 T11.3053,6.2761 9.2339,7.9549 6.5517,11.9927 5.3695,15.1069 5.4404,15.7059 A2.8036,2.8036 0 0 1 -0.1604,15.9741 ZM11.9591,1.2064 T12.831,1.5782 15.5941,4.0321 17.9733,8.8419 19.0409,14.7337 19.6206,17.898 A2.5285,2.5285 0 0 1 14.6994,19.062 T13.7089,15.5878 12.1042,9.5085 10.6357,6.5092 9.7813,6.115 A2.685,2.685 0 0 1 11.9591,1.2064 Z" stroke-linecap="round" fill="#ffc034"/></g></g><g transform="matrix(1, 0, 0, 1, 2417.9688, 16905.7602)" opacity="1"><g transform="scale(1)"><path d="M2.2367,2.4383 T1.3325,4.3276 -0.3314,8.2756 -1.0912,10.3343 A2.6411,2.6411 0 0 1 -6.3277,9.6409 T-5.2511,6.7782 -3.2056,2.0586 -2.2367,0.2017 A2.5007,2.5007 0 0 1 2.2367,2.4383 ZM-2.0697,7.9172 T-1.5056,8.366 -0.9414,8.8147 A2.638,2.638 0 0 1 -4.217,12.9507 T-4.7831,12.5044 -5.3492,12.058 A2.6411,2.6411 0 0 1 -2.0697,7.9172 ZM-3.6034,8.4517 T-2.6799,8.0755 -0.0134,5.4938 1.7296,3.2883 A2.4757,2.4757 0 0 1 5.718,6.2224 T5.1033,7.0938 2.3876,10.2387 -0.6343,12.9129 -1.5551,13.3138 A2.638,2.638 0 0 1 -3.6034,8.4517 ZM4.5147,2.4094 T4.8824,2.5345 5.2501,2.6595 A2.4736,2.4736 0 0 1 3.6697,7.3475 T3.3013,7.2244 2.9329,7.1013 A2.4757,2.4757 0 0 1 4.5147,2.4094 ZM6.8411,4.3339 T7.0385,5.0227 8.2214,7.5102 11.0613,10.2015 12.9159,11.094 A2.3469,2.3469 0 0 1 10.8441,15.306 T8.1808,13.9762 3.9885,9.8505 2.2691,6.3639 2.0786,5.6731 A2.4736,2.4736 0 0 1 6.8411,4.3339 Z" stroke-linecap="round" fill="#ffc034"/></g></g><g transform="matrix(1, 0, 0, 1, 2440.4138, 16920.2834)" opacity="1"><g transform="scale(1)"><path d="M-0.9607,0.5702 T-1.5731,-1.9376 -1.2544,-7.5657 2.4788,-11.588 8.3068,-12.6541 12.8812,-12.865 14.4294,-12.9118 A2.3536,2.3536 0 0 1 14.6106,-8.2082 T13.0633,-8.1358 8.8613,-7.9175 4.2674,-6.6579 2.9644,-3.0572 3.6007,-0.5702 A2.3508,2.3508 0 0 1 -0.9607,0.5702 Z" stroke-linecap="round" fill="#ffc034"/></g></g><g transform="matrix(1, 0, 0, 1, 2416.6485, 16880.6745)" opacity="1"><g transform="scale(1)"><path d="M-0.3596,-2.5171 T1.8368,-2.838 7.1091,-2.0338 11.1308,2.0062 12.0766,4.9211 A2.7161,2.7161 0 0 1 6.657,4.5521 T5.6824,3.2312 2.5337,2.2137 0.3596,2.5171 A2.5426,2.5426 0 0 1 -0.3596,-2.5171 ZM10.8841,6.9894 T10.2354,7.4374 7.1514,8.9066 1.5375,9.5609 -1.6411,9.1939 A2.6137,2.6137 0 0 1 -0.9989,4.0061 T0.4529,4.1617 4.2171,3.834 7.1896,2.9172 7.8496,2.4838 A2.7161,2.7161 0 0 1 10.8841,6.9894 Z" stroke-linecap="round" fill="#ffc034"/></g></g><g transform="matrix(1, 0, 0, 1, 2511.7098, 16899.1587)" opacity="1"><g transform="scale(1)"><path d="M1.7226,1.5073 T-0.4178,4.0449 -4.7248,8.62 -9.2886,12.6631 -14.9855,16.6387 -21.797,20.7353 -25.3085,22.8617 A2.0608,2.0608 0 0 1 -27.5115,19.3783 T-24.0852,17.1171 -17.7319,12.8879 -12.5035,9.0071 -8.1926,5.2508 -3.9528,0.95 -1.7226,-1.5073 A2.289,2.289 0 0 1 1.7226,1.5073 Z" stroke-linecap="round" fill="#ffc034"/></g></g><g transform="matrix(1, 0, 0, 1, 2489.2648, 16901.7993)" opacity="1"><g transform="scale(1)"><path d="M1.5998,-1.9998 T3.1623,-0.7478 6.9367,2.8815 11.1503,8.0642 15.2943,13.1407 18.8024,16.6245 20.1682,17.8373 A2.5889,2.5889 0 0 1 16.7918,21.7627 T15.3884,20.5936 11.2954,16.6858 6.9403,11.3825 3.3969,6.6543 -0.0405,3.2453 -1.5998,1.9998 A2.561,2.561 0 0 1 1.5998,-1.9998 Z" stroke-linecap="round" fill="#ffc034"/></g></g><g transform="matrix(1, 0, 0, 1, 2519.6316, 16896.5181)" opacity="1"><g transform="scale(1)"><path d="M1.1917,-1.7876 T4.0354,0.0346 9.0417,3.5149 13.5472,6.9716 15.8902,8.7701 A2.2542,2.2542 0 0 1 13.1498,12.3499 T10.8021,10.5575 6.4068,7.2003 1.5838,3.7115 -1.1917,1.7876 A2.1484,2.1484 0 0 1 1.1917,-1.7876 Z" stroke-linecap="round" fill="#ffc034"/></g></g><g transform="matrix(1, 0, 0, 1, 2532.8346, 16909.721)" opacity="1"><g transform="scale(1)"><path d="M1.9629,2.1051 T1.3687,3.6829 -1.0279,8.2605 -5.626,14.189 -10.1125,18.5772 -11.8032,20.0367 A2.0915,2.0915 0 0 1 -14.5968,16.9233 T-12.9632,15.4 -9.0345,11.4177 -5.0056,6.2908 -2.6174,2.0789 -1.9629,0.5349 A2.1141,2.1141 0 0 1 1.9629,2.1051 Z" stroke-linecap="round" fill="#ffc034"/></g></g><g transform="matrix(1, 0, 0, 1, 2534.1549, 16921.6037)" opacity="1"><g transform="scale(1)"><path d="M2.103,0.5258 T1.5237,3.0366 -0.0449,7.9818 -2.3083,12.1439 -4.8483,15.5345 -6.114,17.1972 A2.2591,2.2591 0 0 1 -9.726,14.4828 T-7.5014,11.5336 -4.3594,6.5133 -2.7724,1.9582 -2.103,-0.5258 A2.1677,2.1677 0 0 1 2.103,0.5258 Z" stroke-linecap="round" fill="#ffc034"/></g></g><g transform="matrix(1, 0, 0, 1, 2551.3187, 16903.1196)" opacity="1"><g transform="scale(1)"><path d="M0.4116,1.7316 T-1.1564,3.2528 -3.6481,6.8129 -4.7473,11.6042 -4.5352,17.0252 -1.2254,20.5754 4.3723,20.3576 8.6567,16.5999 10.9791,12.0257 11.1964,6.9756 8.7395,1.9703 4.871,-0.9425 2.9631,-1.9841 A2.2131,2.2131 0 0 1 4.9569,-5.9359 T6.9284,-5.0202 11.1131,-2.8738 14.5022,0.3452 16.3532,4.7136 16.8918,9.4878 16.0185,13.9115 14.1775,18.3415 11.2447,22.3383 7.425,24.8343 2.9827,26.0282 -1.6576,25.6432 -6.5983,21.6226 -9.4967,16.1095 -9.2471,10.4318 -7.5051,4.1977 -4.6054,-0.131 -3.0516,-1.7316 A2.4488,2.4488 0 0 1 0.4116,1.7316 Z" stroke-linecap="round" fill="#ffc034"/></g></g><g transform="matrix(1, 0, 0, 1, 2266.1347, 16990.2591)" opacity="1"><g transform="scale(1)"><path d="M0.3729,-2.2375 T2.2544,-1.9769 6.8066,-1.5365 12.6935,-1.2 15.9097,-1.0432 A2.3642,2.3642 0 0 1 15.7703,3.6832 T12.4385,3.6468 6.2315,3.2877 1.4917,2.6012 -0.3729,2.2375 A2.2684,2.2684 0 0 1 0.3729,-2.2375 Z" stroke-linecap="round" fill="#ffc034"/></g></g><g transform="matrix(1, 0, 0, 1, 2318.9466, 16978.3765)" opacity="1"><g transform="scale(1)"><path d="M1.8405,1.5337 T0.3133,3.435 -2.6679,7.0029 -5.5133,10.1823 -9.5606,14.2766 -15.2335,19.2589 -18.2505,21.6594 A2.4204,2.4204 0 0 1 -21.3495,17.9406 T-18.7437,15.6556 -13.4061,10.7542 -9.2919,6.7032 -6.4696,3.7124 -3.4351,0.3112 -1.8405,-1.5337 A2.3958,2.3958 0 0 1 1.8405,1.5337 Z" stroke-linecap="round" fill="#ffc034"/></g></g><g transform="matrix(1, 0, 0, 1, 2297.8218, 16979.6968)" opacity="1"><g transform="scale(1)"><path d="M1.8715,-1.8715 T3.4465,-0.3247 7.4034,3.5546 12.3753,8.4174 17.5039,13.039 21.4833,16.4338 22.9241,17.7373 A2.7404,2.7404 0 0 1 19.3159,21.8627 T17.8321,20.6082 13.6505,17.162 8.4199,12.3777 3.5546,7.4034 -0.3247,3.4465 -1.8715,1.8715 A2.6468,2.6468 0 0 1 1.8715,-1.8715 Z" stroke-linecap="round" fill="#ffc034"/></g></g><g transform="matrix(1, 0, 0, 1, 2379.6802, 16979.6968)" opacity="1"><g transform="scale(1)"><path d="M2.3381,-0.334 T2.7098,1.8431 3.3052,6.8298 3.6752,13.2815 3.847,18.2663 3.8724,19.609 A2.5816,2.5816 0 0 1 -1.289,19.75 T-1.3371,18.401 -1.5037,13.5019 -1.7274,7.3363 -2.0854,2.5274 -2.3381,0.334 A2.3618,2.3618 0 0 1 2.3381,-0.334 ZM-0.9845,18.4615 T-0.6633,17.899 0.1932,15.0127 1.9372,9.9435 4.9003,5.6102 7.546,3.7208 8.4374,3.4193 A2.3855,2.3855 0 0 1 9.7881,7.9951 T8.6108,8.5972 6.4195,11.6751 4.8033,16.8949 3.8845,20.2683 3.5679,20.8976 A2.5816,2.5816 0 0 1 -0.9845,18.4615 ZM10.6026,3.8441 T11.2909,4.3843 13.6564,7.7278 15.9688,13.8836 16.759,19.0427 16.9138,20.8492 A2.409,2.409 0 0 1 12.1262,21.3908 T11.8735,19.5954 11.1964,15.3395 9.8181,10.7311 8.2435,8.0767 7.623,7.5703 A2.3855,2.3855 0 0 1 10.6026,3.8441 Z" stroke-linecap="round" fill="#ffc034"/></g></g><g transform="matrix(1, 0, 0, 1, 2408.7267, 16988.9388)" opacity="1"><g transform="scale(1)"><path d="M2.006,0.7522 T1.1778,3.2825 0.1753,7.7328 0.0008,9.6527 A2.4474,2.4474 0 0 1 -4.8548,9.0342 T-4.4753,6.6056 -3.0509,1.7124 -2.006,-0.7522 A2.1424,2.1424 0 0 1 2.006,0.7522 ZM-2.5552,6.8994 T-1.8424,6.8784 -1.1296,6.8573 A2.4147,2.4147 0 0 1 -0.8766,11.6801 T-1.5877,11.7338 -2.2988,11.7875 A2.4474,2.4474 0 0 1 -2.5552,6.8994 ZM-3.0675,8.0161 T-2.3701,6.9185 -1.6727,5.821 A2.361,2.361 0 0 1 2.3642,8.2707 T1.7128,9.396 1.0613,10.5214 A2.4147,2.4147 0 0 1 -3.0675,8.0161 ZM0.6559,4.7053 T2.1624,4.9662 5.3252,6.9415 8.9226,10.8058 10.8638,12.9559 A2.2546,2.2546 0 0 1 7.6162,16.0841 T6.5095,15.0026 3.4941,11.6952 0.8105,9.4278 0.0356,9.3864 A2.361,2.361 0 0 1 0.6559,4.7053 Z" stroke-linecap="round" fill="#ffc034"/></g></g><g transform="matrix(1, 0, 0, 1, 2427.2109, 17000.8215)" opacity="1"><g transform="scale(1)"><path d="M-2.3041,0 T-2.307,-0.6244 -2.4187,-4.0887 0.2519,-8.3536 4.6535,-9.9941 6.2758,-10.2097 A2.3125,2.3125 0 0 1 6.9242,-5.6303 T4.244,-5.5245 1.9369,-3.3337 2.307,-0.6244 2.3041,0 A2.3041,2.3041 0 0 1 -2.3041,0 Z" stroke-linecap="round" fill="#ffc034"/></g></g><g transform="matrix(1, 0, 0, 1, 2406.0861, 16965.1735)" opacity="1"><g transform="scale(1)"><path d="M0,-2.1371 T1.8731,-2.1922 6.7909,-1.3663 10.4458,0.642 11.056,1.7694 A2.4143,2.4143 0 0 1 6.4739,3.2929 T5.11,2.7701 1.8731,2.1922 0,2.1371 A2.1371,2.1371 0 0 1 0,-2.1371 ZM10.8431,3.7601 T10.6452,4.0991 10.4473,4.4382 A2.4188,2.4188 0 0 1 6.2833,1.9758 T6.485,1.639 6.6868,1.3022 A2.4143,2.4143 0 0 1 10.8431,3.7601 ZM8.9388,5.5568 T8.2068,5.7336 5.1631,6.0704 2.8512,6.2305 A2.2803,2.2803 0 0 1 2.4288,1.6895 T4.3829,1.4528 7.0644,1.0366 7.7918,0.8572 A2.4188,2.4188 0 0 1 8.9388,5.5568 Z" stroke-linecap="round" fill="#ffc034"/></g></g><g transform="matrix(1, 0, 0, 1, 2493.2257, 16981.0171)" opacity="1"><g transform="scale(1)"><path d="M1.6345,1.868 T-0.8248,4.0968 -4.8804,7.7991 -8.9998,11.2436 -14.2685,15.4049 -17.0142,17.5952 A2.2868,2.2868 0 0 1 -19.9458,14.0848 T-17.3011,11.7736 -12.3414,7.393 -8.366,3.8696 -4.17,0.2737 -1.6345,-1.868 A2.4822,2.4822 0 0 1 1.6345,1.868 Z" stroke-linecap="round" fill="#ffc034"/></g></g><g transform="matrix(1, 0, 0, 1, 2477.3821, 16975.7359)" opacity="1"><g transform="scale(1)"><path d="M1.4812,-1.8515 T3.054,-0.6175 6.1441,1.9144 10.0914,5.8498 13.8624,10.1415 18.7933,14.1072 22.3831,16.4187 A2.4175,2.4175 0 0 1 19.8569,20.5413 T17.6856,19.3118 13.2058,16.6785 8.5406,12.2877 3.9003,6.8395 0.0678,3.115 -1.4812,1.8515 A2.3711,2.3711 0 0 1 1.4812,-1.8515 Z" stroke-linecap="round" fill="#ffc034"/></g></g><g transform="matrix(1, 0, 0, 1, 2526.2331, 16969.1344)" opacity="1"><g transform="scale(1)"><path d="M1.7768,3.0968 T0.1888,4.6291 -3.41,8.5814 -7.55,13.3941 -8.5196,17.4605 -4.685,20.4821 0.4065,23.8574 2.8228,25.8848 A2.3798,2.3798 0 0 1 -0.1828,29.5752 T-2.3264,27.8888 -6.4825,25.2888 -10.7033,22.6902 -14.0665,19.0344 -13.979,14.7136 -10.8697,10.1661 -6.9235,5.3455 -3.3106,1.1327 -1.7768,-0.4568 A2.5128,2.5128 0 0 1 1.7768,3.0968 Z" stroke-linecap="round" fill="#ffc034"/></g></g><g transform="matrix(1, 0, 0, 1, 2551.3187, 16977.0562)" opacity="1"><g transform="scale(1)"><path d="M-1.3213,1.982 T-2.1508,1.3752 -3.9092,3.2988 -5.313,7.9158 -4.8665,12.8819 -0.7351,17.4424 4.7474,18.9179 8.5247,17.0352 10.1238,12.447 9.9089,6.9226 9.5995,4.3093 A2.3071,2.3071 0 0 1 14.1605,3.6107 T14.6474,6.1969 14.9303,13.4702 11.8443,20.9936 4.6761,23.8866 -2.2355,22.675 -6.5413,19.7244 -9.2716,15.6497 -10.3177,11.1134 -9.7213,6.538 -7.8229,1.195 -3.6413,-2.4911 0.2777,-2.6239 1.3213,-1.982 A2.3821,2.3821 0 0 1 -1.3213,1.982 Z" stroke-linecap="round" fill="#ffc034"/></g></g><g transform="matrix(1, 0, 0, 1, 2247.6506, 16866.1513)" opacity="1"><g transform="scale(1)"><path d="M-2.2343,0.6384 T-2.8495,-1.5481 -5.014,-5.7226 -8.8217,-8.5405 -12.0924,-7.2253 -13.7404,-2.9298 -14.524,1.2582 -14.703,6.37 -14.4559,11.6122 -13.6122,16.1692 -12.223,20.8776 -10.8929,25.1271 -9.7636,29.0197 -8.7165,33.2771 -7.7046,38.6552 -6.473,44.631 -5.6269,51.3287 -5.6866,58.7969 -6.5493,65.2182 -9.0348,70.3059 -13.7985,73.708 -19.0842,74.6216 -23.4857,73.0381 -26.1157,69.5923 -26.7507,67.5715 A2.7614,2.7614 0 0 1 -21.3149,66.5957 T-20.3131,68.1203 -17.0432,69.266 -13.1633,66.545 -11.0965,61.3487 -10.714,55.0594 -11.0513,48.5148 -11.9169,42.2046 -13.1846,35.8901 -14.4783,30.7334 -15.8447,25.5591 -17.5898,19.5655 -19.0665,14.2679 -19.4969,8.9037 -19.3467,3.4911 -18.8024,-1.7001 -17.6686,-6.7734 -15.5063,-10.7405 -11.3964,-12.8847 -6.1734,-12.3239 -1.3148,-8.1132 1.6008,-2.8225 2.2343,-0.6384 A2.3237,2.3237 0 0 1 -2.2343,0.6384 ZM-24.9878,64.4926 T-24.2983,64.2326 -21.2408,63.6691 -16.4335,63.7286 -12.3318,65.9673 -9.3711,70.8578 -7.9086,76.6116 -8.1788,82.0258 -9.5527,88.3179 -11.0758,93.8389 -12.2725,97.6845 -13.7986,102.8848 -15.4254,109.2413 -16.5984,114.4289 -17.5983,118.8132 -18.3848,123.0859 -19.109,127.2647 -19.9115,132.4846 -20.3215,137.7446 -20.1526,142.2278 -18.9534,146.7974 -16.406,151.5216 -12.6278,155.8026 -8.1749,158.9365 -2.4134,160.3315 1.0707,160.4761 A3.2534,3.2534 0 0 1 1.5693,166.9639 T0.0309,167.1317 -5.2208,166.9449 -10.7393,165.7067 -14.8931,162.9056 -19.7018,158.2362 -23.7809,152.4432 -26.2184,146.2168 -26.9591,140.1475 -26.6565,134.4908 -25.7037,127.9591 -24.6412,121.9086 -23.3086,115.5609 -21.5287,108.2495 -19.7073,101.3769 -17.4518,94.0092 -15.3532,87.1234 -14.0672,80.7185 -13.9192,75.0477 -15.4379,70.7735 -19.2012,69.04 -22.3896,69.4268 -23.0778,69.6746 A2.7614,2.7614 0 0 1 -24.9878,64.4926 Z" stroke-linecap="round" fill="#ffc034"/></g></g><g transform="matrix(1, 0, 0, 1, 2052.2467, 16903.1196)" opacity="1"><g transform="scale(1)"><path d="M3.3339,-0.5557 T3.6285,1.3208 4.103,5.2531 4.3897,9.6491 4.5741,14.4652 4.7454,21.1316 4.8798,27.765 4.9652,33.0561 5.0312,38.0291 5.0779,42.8371 4.7587,48.1164 3.8558,52.781 2.7292,56.9152 2.1609,58.9805 A3.593,3.593 0 0 1 -4.8009,57.1995 T-3.913,53.4592 -2.7464,47.6167 -2.4442,42.8374 -2.4032,38.0369 -2.348,33.0706 -2.283,27.7948 -2.2355,21.2157 -2.2291,14.6585 -2.4586,8.2713 -3.0041,2.4254 -3.3339,0.5557 A3.3799,3.3799 0 0 1 3.3339,-0.5557 Z" stroke-linecap="round" fill="#ffc034"/></g></g><g transform="matrix(1, 0, 0, 1, 2098.4571, 16926.8849)" opacity="1"><g transform="scale(1)"><path d="M2.8584,0.5717 T2.5446,2.1789 0.6344,6.3743 -2.3038,11.0018 -6.0216,15.8346 -10.2453,20.6697 -13.7036,24.4128 -17.9511,28.3362 -22.0086,31.5461 -23.4293,32.5343 A2.728,2.728 0 0 1 -26.7507,28.2057 T-25.4284,27.0892 -21.9789,23.9057 -18.2878,20.1715 -14.9171,16.5229 -10.9215,12.0709 -6.1061,6.0289 -3.1689,0.9429 -2.8584,-0.5717 A2.915,2.915 0 0 1 2.8584,0.5717 Z" stroke-linecap="round" fill="#ffc034"/></g></g><g transform="matrix(1, 0, 0, 1, 2077.3323, 16930.8458)" opacity="1"><g transform="scale(1)"><path d="M2.1815,-2.1815 T3.7425,-0.6188 6.5653,2.5252 9.6712,7.0081 12.9516,12.0774 16.0998,16.8093 19.7755,21.0952 21.7396,22.8167 A2.9883,2.9883 0 0 1 17.8604,27.3633 T16.6507,26.3798 13.1926,23.0506 9.3053,18.0482 6.1338,12.9469 2.7707,7.9011 -0.6207,3.7406 -2.1815,2.1815 A3.0852,3.0852 0 0 1 2.1815,-2.1815 Z" stroke-linecap="round" fill="#ffc034"/></g></g><g transform="matrix(1, 0, 0, 1, 2119.5818, 16908.4008)" opacity="1"><g transform="scale(1)"><path d="M2.9253,-0.5851 T3.5617,2.5348 4.5872,8.6716 4.9062,15.0204 4.8043,20.5855 4.7979,26.1575 4.5452,32.9896 4.1344,39.421 3.6081,45.3465 2.6202,51.4295 1.3945,57.9202 0.7629,61.3153 A3.4529,3.4529 0 0 1 -6.0429,60.1447 T-5.5039,56.7337 -4.5081,50.3097 -3.6363,44.6164 -3.0031,38.8585 -2.3984,32.5983 -1.9091,26.0105 -1.6921,20.3346 -1.3702,15.2192 -1.4317,9.6034 -2.313,3.7088 -2.9253,0.5851 A2.9832,2.9832 0 0 1 2.9253,-0.5851 Z" stroke-linecap="round" fill="#ffc034"/></g></g><g transform="matrix(1, 0, 0, 1, 2160.511, 16934.8067)" opacity="1"><g transform="scale(1)"><path d="M1.32,-3.0914 T3.8174,-3.1631 10.0514,-3.2731 16.6386,-2.8722 22.4564,-1.9844 25.4235,-1.5358 A2.8752,2.8752 0 0 1 24.7565,4.1758 T21.766,3.9288 16.279,3.4966 10.0488,3.2731 3.8174,3.1631 1.32,3.0914 A3.0914,3.0914 0 0 1 1.32,-3.0914 Z" stroke-linecap="round" fill="#ffc034"/></g></g><g transform="matrix(1, 0, 0, 1, 2165.7922, 16948.0096)" opacity="1"><g transform="scale(1)"><path d="M1.6007,-2.4011 T3.5293,-1.2379 7.6275,0.6276 13.0932,1.2196 19.9742,0.9966 23.559,0.8841 A3.0831,3.0831 0 0 1 23.981,7.0359 T20.5523,7.4044 14.8314,7.9937 10.334,7.9494 5.0816,6.377 0.2169,3.7354 -1.6007,2.4011 A2.8857,2.8857 0 0 1 1.6007,-2.4011 Z" stroke-linecap="round" fill="#ffc034"/></g></g><g transform="matrix(1, 0, 0, 1, 2575.0841, 16930.8458)" opacity="1"><g transform="scale(1)"><path d="M2.57,1.9275 T0.5083,4.5062 -1.5534,7.0849 A3.0082,3.0082 0 0 1 -6.3666,3.4751 T-4.4683,0.7738 -2.57,-1.9275 A3.2125,3.2125 0 0 1 2.57,1.9275 Z" stroke-linecap="round" fill="#ffc034"/></g></g></svg>