<svg xmlns="http://www.w3.org/2000/svg" direction="ltr" width="370.21911879060895" height="429.20829718996174" viewBox="1620.5506761310642 15495.210172752768 370.21911879060895 429.20829718996174" stroke-linecap="round" stroke-linejoin="round" style="background-color: transparent;"><defs/><g transform="matrix(1, 0, 0, 1, 1768.132, 15527.2102)" opacity="1"><g transform="scale(1)"><path d="M3.0073,1.8044 T2.2732,2.9532 -0.4567,6.1527 -5.1198,10.2911 -10.4701,14.5187 -15.7116,19.1262 -20.8746,23.9659 -25.0427,28.0887 -29.1278,31.5124 -32.915,34.0601 -34.1806,34.9349 A3.3285,3.3285 0 0 1 -38.2994,29.7051 T-35.9692,27.639 -31.9675,24.1922 -28.1691,20.8682 -23.4013,16.4518 -19.2365,12.6231 -14.7722,9.0582 -9.5419,5.1405 -5.7863,1.9827 -3.6638,-0.6355 -3.0073,-1.8044 A3.5071,3.5071 0 0 1 3.0073,1.8044 Z" stroke-linecap="round" fill="#9398b0"/></g></g><g transform="matrix(1, 0, 0, 1, 1733.8502, 15527.2102)" opacity="1"><g transform="scale(1)"><path d="M2.1197,-2.5436 T3.4752,-1.3425 6.2927,1.2366 10.2133,5.205 15.3057,10.4746 19.2489,14.6645 23.0171,18.7226 27.9328,23.726 32.0539,28.1445 34.4474,31.1374 35.1767,32.1677 A3.5529,3.5529 0 0 1 29.4633,36.3923 T28.1652,34.6932 24.8857,30.9505 20.4424,26.2476 15.5819,20.6561 11.8277,16.246 8.1968,12.1287 3.3266,7.1331 -0.694,3.6602 -2.1197,2.5436 A3.311,3.311 0 0 1 2.1197,-2.5436 Z" stroke-linecap="round" fill="#9398b0"/></g></g><g transform="matrix(1, 0, 0, 1, 1686.8351, 15582.0611)" opacity="1"><g transform="scale(1)"><path d="M2.8849,-1.9049 T4.2561,-0.4949 7.0455,2.3525 10.8754,6.4182 15.7086,11.4781 19.9623,15.8434 23.7663,20.0506 26.2529,23.1952 26.7677,24.0663 A2.6755,2.6755 0 0 1 22.2123,26.8737 T21.6656,26.0223 19.448,23.3752 15.901,19.525 11.6192,14.9472 6.9878,9.9546 3.3286,6.0663 0.4851,3.2761 -0.9249,1.9049 A2.6939,2.6939 0 0 1 2.8849,-1.9049 Z" stroke-linecap="round" fill="#4dabf7"/></g></g><g transform="matrix(1, 0, 0, 1, 1712.3016, 15612.425)" opacity="1"><g transform="scale(1)"><path d="M-1.6474,2.6696 T-3.5003,2.2039 -8.3779,1.3985 -14.7,0.9629 -21.0381,0.8465 -26.8112,0.8208 -32.0716,0.8089 -37.0712,0.7888 -41.9988,0.7611 -47.2442,0.6676 -51.9519,0.5185 -53.87,0.4482 A2.4082,2.4082 0 0 1 -53.87,-4.3682 T-51.9518,-4.4385 -47.2441,-4.5875 -41.9982,-4.6804 -37.0689,-4.7066 -32.0637,-4.721 -26.787,-4.7125 -20.9594,-4.6647 -14.4163,-4.5164 -7.4898,-3.9987 -2.168,-3.131 -0.3126,-2.6696 A2.7517,2.7517 0 0 1 -1.6474,2.6696 Z" stroke-linecap="round" fill="#4dabf7"/></g></g><g transform="matrix(1, 0, 0, 1, 1657.4507, 15614.384)" opacity="1"><g transform="scale(1)"><path d="M2.8587,0.6227 T3.0849,2.4776 3.7143,7.4916 4.3896,14.1031 4.7367,20.9849 4.585,28.1629 4.1975,35.2336 4.0006,42.1814 3.9595,49.6478 3.6099,56.9127 3.1853,63.525 2.8456,68.7278 2.3957,73.8453 2.1431,79.9211 2.0668,86.1953 2.0442,92.5393 1.6774,98.6697 1.2192,104.2668 0.7267,109.3742 -0.1434,114.6006 -1.1189,119.7266 -1.7688,125.161 -1.9533,130.4069 -2.094,135.4165 -2.2026,138.1175 A2.6974,2.6974 0 0 1 -7.5974,138.1025 T-7.6909,135.3913 -7.7775,130.3186 -7.6981,125.8372 -7.3478,121.261 -6.6178,116.3098 -5.7437,111.1172 -5.0735,106.1274 -4.623,100.9615 -4.2053,95.3221 -3.9836,89.4129 -3.9454,83.0299 -3.8195,76.6089 -3.3389,70.0079 -2.8338,63.232 -2.344,56.671 -1.95,49.6095 -1.8623,42.0433 -1.5957,34.7365 -1.1936,27.814 -1.0508,21.1594 -1.3127,14.7689 -1.9507,8.3761 -2.6214,3.1907 -2.8587,1.3373 A2.8809,2.8809 0 0 1 2.8587,0.6227 Z" stroke-linecap="round" fill="#4dabf7"/></g></g><g transform="matrix(1, 0, 0, 1, 1652.5533, 15751.5113)" opacity="1"><g transform="scale(1)"><path d="M0.4803,-3.3623 T2.0956,-3.0817 6.0416,-2.5843 10.6393,-2.3122 15.9231,-2.0135 21.6406,-1.645 26.6659,-1.7161 31.2936,-2.3203 36.5213,-3.3579 42.7616,-4.1898 49.467,-4.4634 54.9427,-4.3145 60.3543,-3.9402 66.8482,-3.7363 73.1399,-3.6693 79.1291,-3.6463 84.3274,-3.6358 88.7234,-3.6198 93.5742,-3.5714 99.1673,-3.4679 104.0508,-3.3533 108.4275,-2.9048 112.7929,-2.021 116.3658,-0.9518 117.8723,-0.3658 A3.1804,3.1804 0 0 1 115.4322,5.5083 T112.6917,4.7141 106.8624,3.6382 100.9068,3.4276 96.048,3.5346 91.4051,3.5962 86.5965,3.6281 81.7675,3.634 76.2777,3.6288 70.118,3.6012 63.2315,3.4734 56.2996,3.0066 49.6134,2.6639 43.3747,2.8077 37.783,3.4788 32.6435,4.4246 27.098,4.9854 20.9537,4.891 15.3416,4.3861 10.4155,4.0889 5.3971,3.8844 1.1491,3.5452 -0.4803,3.3623 A3.3965,3.3965 0 0 1 0.4803,-3.3623 ZM119.6244,3.7032 T118.9914,5.2925 116.8007,9.2824 113.01,14.5583 109.5374,19.1133 106.3978,23.283 102.9185,27.8721 100.5414,31.1128 99.7439,32.2545 A3.3591,3.3591 0 0 1 94.1961,28.4655 T94.9694,27.3072 97.3688,24.0256 100.9912,19.3578 104.2544,15.1481 107.6904,10.8003 111.4091,5.7983 113.3194,2.459 113.6802,1.4393 A3.1804,3.1804 0 0 1 119.6244,3.7032 ZM94.1474,28.539 T94.7386,27.7222 95.8413,26.2692 96.3529,25.633 A3.1418,3.1418 0 0 1 101.5071,29.227 T101.0869,29.927 100.2297,31.404 99.7926,32.181 A3.3591,3.3591 0 0 1 94.1474,28.539 Z" stroke-linecap="round" fill="#4dabf7"/></g></g><g transform="matrix(1, 0, 0, 1, 1832.7778, 15781.8752)" opacity="1"><g transform="scale(1)"><path d="M-1.775,1.775 T-3.1758,0.3946 -6.0131,-2.4052 -10.394,-6.6293 -15.964,-11.8031 -20.5266,-16.0694 -24.2856,-19.6438 -26.9506,-21.9376 -27.7935,-22.5545 A2.3561,2.3561 0 0 1 -25.1065,-26.4255 T-22.6968,-24.644 -18.796,-21.4498 -14.9836,-17.8759 -9.7621,-12.8807 -5.3437,-8.7487 -2.4058,-6.0137 0.3946,-3.1758 1.775,-1.775 A2.5103,2.5103 0 0 1 -1.775,1.775 Z" stroke-linecap="round" fill="#4dabf7"/></g></g><g transform="matrix(1, 0, 0, 1, 1808.2907, 15755.4292)" opacity="1"><g transform="scale(1)"><path d="M0.98,-2.8655 T2.6024,-2.8557 6.9299,-2.8394 12.5098,-2.8357 18.1843,-2.8501 23.6509,-2.8729 28.9453,-2.8851 34.1841,-3.2211 38.3544,-3.68 39.9133,-3.8041 A2.8349,2.8349 0 0 1 40.4067,1.8441 T38.8499,1.9922 34.4402,2.5133 28.9526,2.8851 23.6509,2.8729 18.1843,2.8501 12.5098,2.8357 6.9299,2.8394 2.6024,2.8557 0.98,2.8655 A2.8655,2.8655 0 0 1 0.98,-2.8655 Z" stroke-linecap="round" fill="#4dabf7"/></g></g><g transform="matrix(1, 0, 0, 1, 1848.4495, 15754.4497)" opacity="1"><g transform="scale(1)"><path d="M-1.545,0.2806 T-1.7773,-1.8055 -2.1527,-6.4559 -2.5959,-11.3991 -3.0723,-16.3093 -3.5622,-20.9609 -4.0556,-25.7414 -4.3283,-31.1851 -4.6945,-36.4729 -5.1282,-42.0448 -5.5868,-48.2487 -6.0542,-54.5193 -6.5253,-60.8361 -7.2146,-67.0787 -8.012,-73.1441 -8.8474,-79.1248 -9.9119,-84.721 -11.1174,-89.9793 -12.1915,-94.9144 -13.4464,-100.9065 -14.3684,-108.2 -14.5833,-114.921 -14.6469,-120.7975 -14.9231,-126.0465 -15.4017,-131.0274 -16.8453,-135.5819 -18.0627,-137.6494 A2.0177,2.0177 0 0 1 -15.2373,-140.5306 T-13.7298,-138.9784 -11.8148,-134.4984 -11.0815,-128.6936 -10.7591,-123.445 -10.7261,-118.0751 -10.5296,-111.9092 -9.9236,-105.4265 -8.9133,-100.1829 -7.7572,-95.9607 -6.5235,-91.1083 -5.109,-85.7108 -3.8318,-79.8831 -2.8534,-73.8529 -1.9684,-67.6732 -1.2243,-61.2355 -0.7347,-54.9166 -0.2587,-48.6359 0.1932,-42.4579 0.6077,-36.8401 0.9714,-31.441 1.2041,-26.2813 1.6697,-21.4966 2.12,-16.7845 2.548,-11.8343 2.9413,-6.8629 3.2738,-2.3664 3.505,-0.2806 A2.5406,2.5406 0 0 1 -1.545,0.2806 Z" stroke-linecap="round" fill="#4dabf7"/></g></g><g transform="matrix(1, 0, 0, 1, 1831.7983, 15617.3224)" opacity="1"><g transform="scale(1)"><path d="M-1.7063,2.9052 T-3.563,2.4549 -8.6402,1.6946 -14.7713,1.5163 -21.1891,1.8061 -27.7901,1.9853 -34.2216,1.997 -40.9611,1.9713 -47.6615,1.9388 -54.1221,1.8942 -60.2856,1.8377 -66.1441,1.4146 -71.2312,0.5202 -76.2132,-0.7457 -78.9648,-1.5119 A2.4828,2.4828 0 0 1 -77.7552,-6.3281 T-75.22,-5.7665 -70.5711,-4.8003 -65.8673,-4.0825 -60.2806,-3.7979 -54.1228,-3.8551 -47.6642,-3.9022 -40.971,-3.9433 -34.2596,-4 -27.9236,-4.1003 -21.6761,-4.3242 -14.9373,-4.6062 -7.691,-4.2948 -2.1053,-3.382 -0.2537,-2.9052 A2.9946,2.9946 0 0 1 -1.7063,2.9052 Z" stroke-linecap="round" fill="#4dabf7"/></g></g><g transform="matrix(1, 0, 0, 1, 1756.3782, 15615.3635)" opacity="1"><g transform="scale(1)"><path d="M-3.0621,-1.8549 T-2.5908,-3.4751 -0.88,-8.5552 1.2157,-13.92 2.9465,-17.9263 5.0323,-22.4179 7.3143,-26.934 9.5019,-30.7995 12.3434,-35.0774 15.046,-38.8906 16.0239,-40.1654 A3.2482,3.2482 0 0 1 21.1961,-36.2346 T19.4643,-33.9487 15.9761,-28.8783 13.1298,-23.9629 10.9099,-19.6624 8.0182,-13.5453 5.1151,-6.476 3.5179,-1.7297 3.0621,-0.1051 A3.1846,3.1846 0 0 1 -3.0621,-1.8549 Z" stroke-linecap="round" fill="#4dabf7"/></g></g><g transform="matrix(1, 0, 0, 1, 1740.7066, 15581.0816)" opacity="1"><g transform="scale(1)"><path d="M1.2972,1.1386 T0.3518,2.9848 -2.2946,7.719 -5.1651,12.9394 -6.9562,17.2283 -8.0932,21.1404 -9.0985,25.0549 -10.0759,30.4047 -10.7824,36.7329 -11.0284,42.3071 -10.8492,47.4335 -10.2465,51.8689 -9.3876,55.7693 -8.2285,60.4603 -7.0316,65.3555 -5.5429,69.9461 -3.204,74.613 -1.8537,76.8479 A2.5604,2.5604 0 0 1 -5.9863,79.8721 T-6.6573,78.9919 -8.7852,75.6072 -11.0486,70.6916 -12.3264,66.2578 -13.4057,61.784 -14.4913,57.3217 -15.4073,53.1703 -16.0919,47.9702 -16.2871,42.1964 -16.0955,37.3792 -15.5204,32.8406 -14.7525,27.9111 -13.8999,23.444 -12.8113,19.4482 -11.5063,15.2499 -9.5931,10.7255 -6.745,5.4809 -4.166,0.7235 -3.2572,-1.1386 A2.546,2.546 0 0 1 1.2972,1.1386 Z" stroke-linecap="round" fill="#9398b0"/></g></g><g transform="matrix(1, 0, 0, 1, 1737.7681, 15662.3785)" opacity="1"><g transform="scale(1)"><path d="M-1.8537,-0.9269 T-1.165,-2.3212 0.7827,-6.5631 3.8554,-12.1404 5.6691,-14.8702 A2.1648,2.1648 0 0 1 8.8917,-11.9788 T8.3023,-11.3708 6.4721,-8.3817 4.2444,-3.9238 2.5556,-0.46 1.8537,0.9269 A2.0725,2.0725 0 0 1 -1.8537,-0.9269 ZM9.3847,-13.9329 T9.5873,-12.9227 9.448,-9.7581 9.0523,-5.2791 9.0009,-0.481 7.8722,4.7075 4.1555,7.9006 -0.8243,7.3278 -5.9593,4.9749 -11.4898,2.6176 -15.8859,0.9613 -17.4925,0.3604 A2.4686,2.4686 0 0 1 -15.8075,-4.2804 T-14.1895,-3.7105 -9.6139,-2.0306 -3.9863,0.4767 1.4958,2.8337 4.525,1.573 4.7711,-3.5675 5.1898,-9.0391 5.3777,-12.2534 5.1761,-12.9162 A2.1648,2.1648 0 0 1 9.3847,-13.9329 Z" stroke-linecap="round" fill="#9398b0"/></g></g><g transform="matrix(1, 0, 0, 1, 1810.2497, 15646.7068)" opacity="1"><g transform="scale(1)"><path d="M-2.107,-0.7023 T-1.6359,-2.0738 -2.3135,-5.1017 -4.2744,-6.7827 -5.0866,-6.8072 A2.192,2.192 0 0 1 -5.5583,-11.1657 T-3.2514,-10.7523 0.801,-8.6278 2.7827,-4.5169 2.563,-0.7075 2.107,0.7023 A2.221,2.221 0 0 1 -2.107,-0.7023 ZM-3.5462,-7.702 T-3.9101,-7.199 -5.1715,-4.0259 -6.2532,0.6489 -6.284,4.6577 -5.4158,8.9093 -3.8073,13.647 -1.9444,18.5047 0.3163,24.0574 1.8536,29.5443 1.5173,33.9735 -0.4522,37.8584 -3.9664,40.7095 -8.2457,42.1057 -12.5412,42.2043 -16.5764,41.037 -19.4729,37.5771 -20.6585,33.9004 -20.8396,32.7206 A2.2654,2.2654 0 0 1 -16.3804,31.9194 T-16.1395,33.0884 -14.2506,35.9411 -10.0774,37.4296 -5.4592,35.8397 -2.9499,32.3077 -3.2737,27.3436 -5.0202,22.2642 -7.0091,17.6349 -8.8607,12.5838 -10.3304,7.1917 -10.7958,2.2545 -10.2077,-2.0591 -8.79,-6.7092 -7.462,-9.768 -7.0987,-10.2708 A2.192,2.192 0 0 1 -3.5462,-7.702 Z" stroke-linecap="round" fill="#e599f7"/></g></g><g transform="matrix(1, 0, 0, 1, 1810.2497, 15665.317)" opacity="1"><g transform="scale(1)"><path d="M0.3044,3.4156 T-1.5454,3.6832 -7.4978,4.12 -11.6004,4.2893 A2.3341,2.3341 0 0 1 -11.8996,-0.3693 T-7.9605,-0.7165 -2.1629,-1.2596 -0.3044,-1.4556 A2.4545,2.4545 0 0 1 0.3044,3.4156 Z" stroke-linecap="round" fill="#e599f7"/></g></g><g transform="matrix(1, 0, 0, 1, 1743.645, 15705.4757)" opacity="1"><g transform="scale(1)"><path d="M0.8579,2.2878 T-1.0029,2.9704 -6.1382,4.2735 -12.1533,4.433 -16.8887,2.5943 -19.8776,-1.4991 -19.971,-6.9548 -16.9751,-12.0182 -12.2591,-15.9071 -7.1236,-18.6279 -2.1639,-20.3391 2.7193,-20.7916 7.2923,-19.8287 11.2225,-17.5492 14.337,-13.9112 15.7725,-8.608 14.7868,-2.7304 11.503,2.4453 6.6323,6.4042 0.8694,8.9813 -5.5191,10.0056 -11.7166,8.9058 -16.8875,5.9355 -21.146,1.5939 -24.2766,-3.61 -25.494,-8.855 -24.2062,-13.4055 -20.6743,-16.5551 -16.3454,-18.4835 -11.1905,-19.7296 -5.1931,-20.0425 0.7984,-18.7502 6.4889,-15.809 11.3422,-11.5961 14.3879,-6.254 15.2303,-0.4512 14.0399,5.2396 10.9307,10.044 5.9852,13.3151 -0.1122,14.824 -6.3726,13.9924 -12.2331,11.1067 -16.9697,6.8893 -20.3418,1.6381 -21.7864,-4.0934 -20.3089,-9.3959 -16.3615,-13.3504 -11.4773,-15.6596 -6.1139,-16.4465 -0.7205,-15.2538 3.8947,-12.0696 7.2301,-7.655 8.8345,-2.7753 7.7649,2.703 4.0043,7.7301 -1.7576,10.7193 -8.5282,11.6648 -15.2579,10.0549 -21.0376,6.0103 -24.7189,0.2647 -25.4139,-6.8013 -23.03,-13.4216 -18.3743,-18.059 -12.0947,-20.1017 -5.1516,-18.8964 1.7432,-15.2714 8.0196,-10.75 13.0382,-5.5843 16.3398,0.1871 17.0192,5.9453 13.7828,10.6283 8.3379,12.8062 3.5146,12.8858 -1.3259,11.7123 -5.6403,9.3888 -7.783,6.0757 -7.5547,1.886 -5.7355,-2.1013 -3.1864,-5.5365 0.4764,-8.7415 4.7696,-11.0315 9.7833,-12.1084 15.0482,-12.1094 19.1328,-10.7116 22.1352,-8.0796 24.4679,-4.5001 26.1868,-0.1792 27.7561,4.7606 29.6329,10.3105 31.6242,16.1016 33.1451,21.048 34.5482,25.3941 36.247,30.3253 37.4249,34.9036 38.288,39.7514 39.2108,45.4359 40.1095,51.4559 41.0754,57.7765 41.8773,62.9661 42.6201,67.072 43.3624,71.7383 44.2684,76.374 45.3927,80.9446 46.9035,85.9139 49.1763,90.7171 51.8529,95.6139 54.711,100.5084 57.9509,105.2456 61.724,109.8513 66.1253,114.9386 70.9425,120.6604 76.1891,125.9236 82.0032,130.4526 86.6273,133.9743 91.1007,137.4088 97.0117,141.8289 102.4195,145.9723 106.8801,148.9137 110.9217,151.6078 115.2299,154.8185 117.6132,156.4719 A3.7812,3.7812 0 0 1 113.5468,162.8481 T112.6114,162.2597 110.0444,160.5137 106.869,158.0497 102.5979,155.2148 97.5075,151.8709 92.3169,147.8852 86.4156,143.4249 80.4281,138.844 75.8925,135.3297 72.5536,132.7023 69.3123,129.9129 65.3676,125.6305 61.6081,121.2291 58.0059,117.0794 53.8215,111.9531 50.0673,106.8753 46.6853,101.8119 43.7481,96.6694 40.9865,91.1363 38.8021,85.4904 37.4503,80.2319 36.4085,74.477 35.4305,68.9206 34.4774,63.4815 33.5194,56.98 32.5567,50.6923 31.6651,44.6552 30.7626,39.012 29.6811,34.1429 28.1234,29.2912 26.3437,24.2067 24.8848,19.3116 23.2943,14.1235 21.4887,8.7877 20.0446,4.0452 18.2341,-0.7179 14.975,-4.1758 10.7928,-4.9583 6.523,-4.0158 2.6135,-1.3209 1.0594,3.0822 4.147,5.7276 8.5382,4.4911 8.9462,0.9914 5.6796,-3.278 1.0544,-7.4998 -4.3728,-11.0899 -9.2477,-13.1788 -13.5137,-12.9326 -17.1586,-10.2698 -18.7563,-5.4735 -18.0047,-0.6465 -15.07,2.5759 -11.0243,4.5074 -6.5155,4.808 -2.3386,3.5546 0.7426,0.5288 1.2896,-3.5684 -1.2976,-7.4347 -5.3942,-9.6258 -10.1527,-9.3458 -14.2885,-7.3237 -15.6696,-3.5559 -13.9773,0.8896 -10.8538,4.4604 -7.1416,7.1792 -2.1083,8.5683 2.815,8.1412 6.6364,5.4891 8.8733,0.5699 8.3398,-4.9785 5.5368,-9.2868 1.2356,-12.1188 -3.0722,-13.9844 -7.5676,-14.4995 -12.2917,-13.742 -17.2845,-11.7785 -19.928,-8.2014 -18.4646,-4.0817 -15.3954,-0.3515 -11.9236,2.6508 -8.1061,4.2372 -3.5733,4.2934 1.0687,2.8119 5.3181,0.2783 8.761,-3.6469 10.1886,-8.5012 8.4866,-12.5115 4.8277,-14.9852 0.1945,-15.4332 -4.8125,-14.0525 -9.36,-11.824 -13.6144,-8.3054 -15.2149,-3.6299 -12.404,-0.5736 -7.306,-0.3732 -2.7054,-1.5798 -0.8579,-2.2878 A2.4434,2.4434 0 0 1 0.8579,2.2878 ZM112.6623,162.0651 T111.5251,160.5971 109.4668,157.2941 107.6321,153.5217 105.2963,148.6883 103.4987,145.1591 103.1234,144.526 A3.2424,3.2424 0 0 1 108.658,141.1467 T109.2616,142.1169 110.8587,144.8267 112.8724,148.4485 115.2845,152.7764 117.587,156.2385 118.4977,157.2549 A3.7812,3.7812 0 0 1 112.6623,162.0651 ZM103.6712,140.4727 T103.8785,140.2815 104.0858,140.0903 A3.2373,3.2373 0 0 1 108.5179,144.8101 T108.3141,145.005 108.1102,145.1999 A3.2424,3.2424 0 0 1 103.6712,140.4727 ZM108.1981,139.8264 T109.3638,140.6865 112.4814,142.9911 117.0069,147.1004 121.083,151.7781 123.372,156.9772 123.7773,163.5061 122.2996,168.5525 118.2626,172.7017 113.4514,175.9422 108.0947,177.3236 101.6189,177.5583 98.6289,177.2067 A2.8725,2.8725 0 0 1 99.2311,171.4933 T100.6377,171.604 104.3105,171.6117 109.2379,170.648 113.9414,168.216 116.9601,163.8348 117.0837,158.2643 114.9963,153.7482 112.0436,150.6194 108.4701,147.9406 105.5102,145.8546 104.4057,145.074 A3.2373,3.2373 0 0 1 108.1981,139.8264 Z" stroke-linecap="round" fill="#9398b0"/></g></g><g transform="matrix(1, 0, 0, 1, 1904.2799, 15855.3363)" opacity="1"><g transform="scale(1)"><path d="M-2.1004,-0.4667 T-1.6568,-2.5519 -1.4482,-6.7806 -3.2236,-6.9224 -5.0701,-2.8019 -5.2638,1.5879 -4.4372,6.4389 -2.8044,11.8648 -1.2371,17.7014 -0.4824,23.793 -1.7999,29.9089 -5.1986,35.0923 -9.5848,38.1903 -14.5096,39.3485 -19.6385,38.5668 -23.6395,35.1317 -25.3563,31.3494 -25.6875,29.9915 A2.2617,2.2617 0 0 1 -21.3325,28.7685 T-20.9084,30.1004 -18.8762,33.0096 -15.1843,34.4575 -10.9369,33.3386 -7.318,30.4056 -5.2463,26.4503 -5.1524,21.5545 -6.3376,15.9059 -7.8685,10.2665 -9.31,4.5736 -9.6886,-1.0731 -8.785,-6.4188 -6.363,-11.1492 -2.5714,-13.5665 1.0969,-11.8242 2.877,-6.7923 2.5838,-1.6199 2.1004,0.4667 A2.1516,2.1516 0 0 1 -2.1004,-0.4667 Z" stroke-linecap="round" fill="#e599f7"/></g></g><g transform="matrix(1, 0, 0, 1, 1904.2799, 15874.9259)" opacity="1"><g transform="scale(1)"><path d="M-0.2664,2.1309 T-2.1236,1.9239 -6.7839,1.5166 -11.2053,1.2246 -12.8236,1.1329 A2.115,2.115 0 0 1 -12.6364,-3.0929 T-11.0163,-3.0412 -6.416,-2.8167 -1.5847,-2.3875 0.2664,-2.1309 A2.1475,2.1475 0 0 1 -0.2664,2.1309 Z" stroke-linecap="round" fill="#e599f7"/></g></g><g transform="matrix(1, 0, 0, 1, 1922.89, 15852.3978)" opacity="1"><g transform="scale(1)"><path d="M2.1451,2.5122 T0.9775,4.1269 -1.8834,8.7145 -4.4978,14.3114 -5.6744,19.6291 -4.9999,24.3197 -2.4478,28.2368 1.1893,31.0574 4.8489,32.422 6.4935,32.8864 A2.4516,2.4516 0 0 1 5.2665,37.6336 T3.6028,37.2429 -1.1316,35.5284 -6.4791,31.5458 -10.0015,25.4693 -10.9002,18.8471 -9.3061,12.3204 -6.252,5.8531 -3.2952,1.0779 -2.1451,-0.5522 A2.6361,2.6361 0 0 1 2.1451,2.5122 Z" stroke-linecap="round" fill="#e599f7"/></g></g><g transform="matrix(1, 0, 0, 1, 1943.4591, 15862.1926)" opacity="1"><g transform="scale(1)"><path d="M1.7659,1.0606 T0.4105,3.3971 -2.1379,7.6766 -4.757,11.2494 -9.1683,15.1962 -13.8835,18.4726 -15.6136,19.4319 A2.0787,2.0787 0 0 1 -17.6864,15.8281 T-14.7087,14.0949 -9.3741,9.8328 -5.8174,5.4158 -3.1918,1.2335 -1.7659,-1.0606 A2.06,2.06 0 0 1 1.7659,1.0606 Z" stroke-linecap="round" fill="#e599f7"/></g></g><g transform="matrix(1, 0, 0, 1, 1929.7464, 15867.09)" opacity="1"><g transform="scale(1)"><path d="M1.4315,-2.004 T3.067,-0.8634 7.0608,2.1913 11.4368,5.648 15.2658,8.3965 17.0769,9.6022 A2.5675,2.5675 0 0 1 14.2631,13.8978 T12.2092,12.5717 8.0986,9.6321 3.9144,6.1884 0.1778,3.1811 -1.4315,2.004 A2.4628,2.4628 0 0 1 1.4315,-2.004 Z" stroke-linecap="round" fill="#e599f7"/></g></g><g transform="matrix(1, 0, 0, 1, 1946.3975, 15851.4184)" opacity="1"><g transform="scale(1)"><path d="M1.8298,-2.0912 T3.6684,-0.4499 7.0475,2.847 9.7666,6.4901 11.7879,10.4755 13.3178,14.4546 14.4154,18.5613 14.9178,24.5814 13.9348,31.6857 11.0194,37.3787 9.1789,39.8622 A2.8531,2.8531 0 0 1 4.5411,36.5378 T5.3964,35.2887 7.4025,32.2466 8.9989,27.6664 9.0485,21.5385 7.4182,14.6864 4.0468,8.2365 0.0399,3.6946 -1.8298,2.0912 A2.7787,2.7787 0 0 1 1.8298,-2.0912 Z" stroke-linecap="round" fill="#e599f7"/></g></g></svg>