<svg xmlns="http://www.w3.org/2000/svg" direction="ltr" width="697.0999999999999" height="549.5300000000007" viewBox="911.0230812624218 10446.616139515761 697.0999999999999 549.5300000000007" stroke-linecap="round" stroke-linejoin="round" style="background-color: transparent;"><defs/><g transform="matrix(1, 0, 0, 1, 1161.6466, 10478.6161) scale(0.9109313594180959, 0.9109313594180959)" opacity="1"><g transform="scale(1.0977775544348383)"><path d="M1.4596,0 T1.4556,1.0761 1.4471,3.5656 1.4333,6.5092 1.4142,9.4286 1.4103,12.1864 1.4213,14.9247 1.4321,17.6602 1.4395,20.391 1.4457,23.1247 1.4551,25.8595 1.4666,28.9195 1.4773,32.0886 1.4851,34.9469 1.493,37.6976 1.5038,40.4306 1.517,43.1646 1.8469,46.0775 2.2828,48.954 2.4347,51.916 2.4847,55.169 2.4952,58.3382 2.8931,61.4566 3.3581,64.8815 3.4405,68.5583 3.4626,71.7138 3.7824,74.4993 4.2277,77.513 4.3786,80.4688 4.4026,83.2391 4.4097,85.9794 4.4137,88.7109 4.4169,91.4434 4.4195,94.1781 4.4216,96.9107 4.4217,99.641 4.4193,102.3754 4.1215,105.4674 3.6817,108.6838 3.5223,111.5199 3.5032,114.2246 3.4976,116.9516 3.2371,120.1524 2.8042,123.8942 2.2641,127.3004 1.8067,130.4153 1.6829,133.8067 1.3065,137.1655 0.8573,140.6709 0.7386,143.9495 0.7206,146.6663 0.719,149.8741 0.7212,153.0469 1.1168,156.1508 1.5683,159.3382 1.6436,162.6077 1.6689,166.2923 1.6774,169.4679 1.6818,172.1786 1.6858,175.381 1.6891,178.5732 1.6938,181.2861 1.7007,184.2278 1.4603,187.4597 1.0748,190.6566 0.8884,193.6224 0.8303,196.7627 0.4785,200.0563 0.0573,203.2606 -0.0501,206.3327 -0.0808,209.7075 -0.0886,213.3901 -0.0903,216.6123 -0.0903,219.6976 -0.09,223.0737 -0.0895,226.6428 -0.0916,229.9528 -0.4294,232.9678 -0.8476,235.882 -0.9574,238.6581 -0.9936,241.6125 -1.0067,244.733 -1.0125,247.9046 -1.0159,250.9758 -1.0193,253.9224 -1.3632,256.9776 -1.8004,260.5251 -1.9094,263.8779 -1.9271,266.7089 -1.9325,269.584 -1.9332,272.3553 -1.9332,275.5752 -1.9331,279.2492 -1.9304,282.4238 -1.9266,285.1303 -1.923,288.3357 -1.6041,291.8422 -1.1785,294.967 -1.0407,298.0452 -1.0021,301.2033 -0.9889,304.3777 -0.9828,307.7792 -0.9767,311.0277 -0.9691,314.2328 -0.9593,317.7556 -0.9483,321.3643 -0.9396,324.9979 -0.9334,328.3111 -0.9301,331.3178 -0.9303,334.4556 -0.9319,337.8463 -0.9348,341.0897 -0.9401,344.2933 -0.9456,347.4871 -0.9516,350.6758 -0.9568,354.1928 -0.9592,357.8022 -0.9611,361.2198 -0.9625,364.4717 -0.9636,367.5655 -0.9644,370.5112 -0.968,373.6321 -0.9738,376.8029 -0.9755,379.9852 -0.9741,383.1695 -0.973,386.1427 -0.9733,388.9438 -0.9764,391.9088 -0.979,395.2515 -0.9781,398.8126 -0.9761,402.102 -0.9719,405.1044 -0.9651,408.5127 -0.6446,411.9793 -0.2244,414.9777 -0.0936,417.7816 -0.0572,420.5302 -0.0433,423.7664 -0.0354,427.4624 -0.0309,430.6205 -0.0291,433.3071 -0.0275,436.1421 -0.0234,439.2311 -0.0197,442.2854 -0.3563,445.374 -0.7869,448.7786 -0.8922,451.8729 -1.1743,454.8669 -1.5688,457.8718 -1.7396,460.5968 -1.8007,463.8457 -1.8162,467.3288 -1.8135,470.9486 -1.8088,474.3085 -1.8081,477.0231 -1.8114,479.7488 -1.8398,482.48 -1.8875,484.6885 -1.909,485.53 A1.731,1.731 0 0 1 -5.371,485.53 T-5.4138,483.9333 -5.4634,480.9721 -5.471,478.2443 -5.4714,475.5224 -5.4679,472.2423 -5.4603,468.607 -5.447,465.0247 -5.4115,461.7284 -5.2833,458.7304 -4.8583,455.1706 -4.5205,451.8089 -4.4527,449.0413 -4.2008,446.297 -3.8118,443.5522 -3.6189,440.6614 -3.6154,437.7422 -3.6126,434.7393 -3.6094,431.8147 -3.6058,428.6444 -3.6023,424.9758 -3.6031,421.7731 -3.6322,418.484 -3.7924,414.8514 -4.2121,411.7774 -4.4949,408.5127 -4.4881,405.1044 -4.4839,402.102 -4.4819,398.8126 -4.481,395.2515 -4.4836,391.9088 -4.4867,388.9438 -4.487,386.1427 -4.4859,383.1695 -4.4845,379.9852 -4.4862,376.8029 -4.492,373.6321 -4.4956,370.5112 -4.4964,367.5655 -4.4975,364.4717 -4.4989,361.2198 -4.5008,357.8022 -4.5032,354.1928 -4.5084,350.6758 -4.5144,347.4871 -4.5199,344.2933 -4.5252,341.0897 -4.5281,337.8463 -4.5297,334.4556 -4.5299,331.3178 -4.5266,328.3111 -4.5204,324.9979 -4.5117,321.3643 -4.5007,317.7556 -4.491,314.2329 -4.4838,311.0282 -4.4791,307.781 -4.478,304.3854 -4.4828,301.228 -4.509,298.1535 -4.6947,294.8815 -5.109,291.6667 -5.357,288.3357 -5.3534,285.1303 -5.3496,282.4238 -5.3468,279.2492 -5.3465,275.5749 -5.3458,272.3541 -5.3438,269.5797 -5.3398,266.6951 -5.3233,263.83 -5.2602,261.0301 -4.8244,257.5035 -4.4406,253.9057 -4.4436,250.9753 -4.4456,247.9024 -4.4464,244.7263 -4.4415,241.5833 -4.4129,238.5507 -4.2894,235.5453 -3.8679,232.6848 -3.5484,229.9233 -3.5504,226.6427 -3.5499,223.0735 -3.5491,219.697 -3.5478,216.6102 -3.5444,213.3847 -3.534,209.6842 -3.4992,206.2507 -3.3707,202.9503 -2.9391,198.9077 -2.5813,195.0173 -2.4535,191.7317 -2.0288,188.6005 -1.7024,185.6229 -1.6975,182.7897 -1.6918,180.0664 -1.688,177.3735 -1.6845,174.1794 -1.6805,170.9618 -1.6768,168.2746 -1.6753,165.1232 -1.7014,161.475 -1.8674,157.8702 -2.276,154.6487 -2.5403,151.8687 -2.5316,148.6637 -2.5208,145.4194 -2.4892,142.6439 -2.3641,139.7595 -1.9369,136.8914 -1.5863,133.7046 -1.4589,130.094 -0.9828,126.1163 -0.4054,122.4603 -0.0274,119.6449 0.1433,116.9501 0.143,114.2144 0.1601,111.4496 0.3069,108.5173 0.7402,105.3622 1.0407,102.3754 1.0383,99.641 1.0384,96.9107 1.0405,94.1781 1.0431,91.4435 1.0461,88.7111 1.0494,85.9809 1.0512,83.2493 1.039,80.5377 0.8692,77.5682 0.4407,74.4952 0.1738,71.7176 0.1772,68.5815 0.1292,65.0433 -0.2965,61.6582 -0.6769,58.3998 -0.6764,55.1853 -0.6951,52.0006 -0.8746,48.8402 -1.2784,45.8938 -1.517,43.1646 -1.5038,40.4306 -1.493,37.6976 -1.4851,34.9469 -1.4773,32.0886 -1.4666,28.9195 -1.4551,25.8595 -1.4457,23.1247 -1.4395,20.391 -1.4321,17.6602 -1.4213,14.9247 -1.4103,12.1864 -1.4142,9.4286 -1.4333,6.5092 -1.4471,3.5656 -1.4556,1.0761 -1.4596,0 A1.4596,1.4596 0 0 1 1.4596,0 Z" stroke-linecap="round" fill="#9398b0"/></g></g><g transform="matrix(1, 0, 0, 1, 943.0231, 10796.5312) scale(0.9109313594180959, 0.9109313594180959)" opacity="1"><g transform="scale(1.0977775544348383)"><path d="M0,-1.4931 T1.0761,-1.4742 3.5656,-1.4373 6.4826,-1.4016 9.3127,-1.7674 12.4759,-2.2245 15.7138,-2.6998 18.5201,-3.1765 21.2949,-3.2717 24.0345,-3.3064 26.7701,-3.3303 29.501,-3.3499 32.2335,-3.3678 34.9681,-3.3801 37.9159,-3.3894 41.6124,-3.4016 45.1453,-3.4139 47.9416,-3.4248 51.2158,-3.2004 54.7583,-2.8265 58.1777,-2.6451 61.7596,-2.5983 65.8878,-2.357 69.7981,-1.9678 73.6669,-1.7705 77.8973,-1.721 81.4963,-1.7116 85.1279,-1.7128 88.7652,-1.7162 92.4081,-1.7194 96.2678,-1.7223 99.8577,-1.7245 103.7026,-1.7262 107.7294,-1.7277 111.2652,-1.7303 114.4495,-1.7351 117.6343,-1.7403 120.7082,-1.7444 123.8659,-1.7477 127.158,-1.7506 130.3764,-1.7528 133.6761,-1.7546 137.1081,-1.7561 140.8074,-1.7574 144.3657,-1.7584 147.6413,-1.757 150.8611,-2.0806 154.0663,-2.5024 157.4668,-2.6249 161.1632,-2.6583 164.8218,-2.6707 168.5714,-2.6793 172.2454,-2.6848 175.6809,-2.6884 178.9378,-2.6911 181.9312,-2.693 185.0642,-2.6962 188.1237,-2.7014 191.164,-2.7069 194.6387,-2.712 198.02,-2.716 201.1497,-2.7188 204.8719,-2.7206 208.7678,-2.3865 212.0536,-1.968 215.419,-1.8557 219.339,-1.8234 223.2985,-1.8192 226.5519,-1.819 229.3749,-1.5392 232.6624,-1.1187 235.8687,-0.9563 239.1283,-0.9315 242.6651,-0.932 245.9008,-0.9396 249.1036,-0.9462 252.4082,-0.9509 255.6264,-0.9546 258.8243,-0.9576 262.2317,-0.9602 265.5918,-0.9622 269.2298,-0.73 272.9763,-0.3428 276.5777,-0.142 280.3226,-0.0823 283.9914,-0.0656 287.6428,-0.0644 291.2896,-0.0689 295.1491,-0.0734 299.1823,-0.0772 303.0461,-0.08 306.6373,-0.082 310.0521,-0.0835 313.6332,-0.0848 317.3622,-0.0858 321.1416,-0.0866 324.9361,-0.0872 328.6226,-0.0877 332.1634,-0.0899 335.7794,-0.095 339.745,-0.1006 343.4754,-0.1077 347.0035,0.1441 350.4768,0.5273 353.885,0.6985 357.3901,0.7542 361.1068,0.7642 365.3137,0.7595 369.3303,0.7539 373.0773,0.7495 377.0793,0.7457 381.1497,0.7427 384.6964,0.7406 388.4275,0.739 392.9689,0.7351 397.2933,0.7288 401.238,0.723 405.5101,0.7182 410.2017,0.7143 414.9081,0.7155 419.5052,0.7204 424.0679,0.7243 428.5327,0.4026 433.0664,-0.0155 437.2735,-0.1352 441.4032,-0.167 445.8325,-0.1754 449.8052,-0.1774 453.9832,-0.1777 458.3202,-0.1775 461.9409,-0.1803 465.7944,-0.1862 469.9331,-0.1907 474.0644,-0.5186 478.4957,-0.944 482.5624,-1.0737 486.5905,-1.3183 490.1738,-1.6637 492.9355,-1.8632 496.2792,-1.9858 500.5528,-2.0589 504.9245,-2.0876 509.2114,-2.1043 513.6922,-2.1188 518.2242,-2.1327 522.9881,-2.1473 527.8762,-1.935 532.4108,-1.5634 536.5766,-1.3733 540.0255,-1.0988 542.8554,-0.7661 546.8291,-0.5798 550.8514,-0.2448 554.706,0.1663 559.2112,0.3788 562.9436,0.6595 566.6189,1.0569 571.198,1.2659 575.0592,1.3178 577.9182,1.5562 581.7088,1.9432 586.5686,2.1395 591.5318,2.1845 596.5297,2.1795 600.5086,2.1617 604.2441,2.1402 609.2702,2.1099 614.0694,2.078 618.1547,2.0522 621.9072,2.3815 625.0605,2.8065 627.9993,3.344 631.3858,3.9689 633.159,4.1414 A2.2394,2.2394 0 0 1 633.041,8.6186 T631.0007,8.6475 627.4962,8.2915 624.4785,7.807 621.4871,7.383 618.1396,7.0477 614.0693,7.0219 609.2697,6.9895 604.2425,6.9578 600.5051,6.9339 596.5184,6.9071 591.4933,6.8672 587.7569,6.8239 583.769,6.6954 578.7405,6.2508 575.0091,5.9032 571.046,5.8365 566.1546,5.5834 562.5633,5.1699 559.0726,4.8973 555.3861,4.7681 551.5823,4.34 546.606,3.8837 541.2228,3.431 536.4422,3.0231 531.9668,2.7707 527.5295,2.3655 522.9881,2.1474 518.2245,2.133 513.6931,2.1198 509.2149,2.108 504.9352,2.1008 500.6038,2.1067 496.4159,2.1579 491.996,2.3514 486.964,2.7328 482.6306,2.9834 478.7322,3.087 474.26,3.5014 469.9408,3.8307 465.7944,3.8262 461.9409,3.8204 458.3203,3.8177 453.9837,3.8182 449.8066,3.8193 445.8376,3.8223 441.4297,3.8319 437.3481,3.8649 433.3055,3.9785 428.7275,4.4002 424.0757,4.7357 419.5052,4.7396 414.9081,4.7445 410.2017,4.7457 406.4507,4.7427 403.1901,4.7394 399.1719,4.7341 394.9536,4.7268 390.8362,4.7219 386.7154,4.7203 382.907,4.7184 379.0402,4.7158 374.9917,4.7123 371.0774,4.7076 367.2377,4.7013 363.2915,4.691 359.3781,4.6737 355.5287,4.6345 351.5196,4.5028 347.3657,4.0759 343.4754,3.7477 339.745,3.7406 335.7794,3.735 332.1634,3.7299 328.6226,3.7277 324.9361,3.7272 321.1416,3.7266 317.3622,3.7258 313.6332,3.7248 310.0521,3.7235 306.6373,3.722 303.0461,3.72 299.1822,3.7171 295.1488,3.7131 291.2887,3.7079 287.6395,3.7007 283.9794,3.6925 280.2805,3.6751 276.4388,3.6118 272.499,3.37 268.8588,2.9805 265.5918,2.7822 262.2317,2.7802 258.8243,2.7776 255.6264,2.7746 252.4081,2.7708 249.1033,2.7659 245.1785,2.7564 241.342,2.743 237.861,2.716 234.4075,2.6441 230.9697,2.2012 227.7326,1.8143 224.5327,1.8181 221.2149,1.8161 217.9109,1.8059 214.7157,1.7704 211.7337,1.6451 208.5166,1.2237 204.8569,0.9006 201.1497,0.8988 198.02,0.896 194.6387,0.892 191.164,0.8869 188.1237,0.8815 185.0642,0.8762 181.9312,0.873 178.9378,0.8711 175.681,0.8686 172.2458,0.8653 168.5731,0.8612 164.8285,0.8576 161.1859,0.8632 157.5516,0.8946 154.3326,1.0053 151.086,1.4233 147.6674,1.757 144.3657,1.7584 140.8074,1.7574 137.1081,1.7561 133.6761,1.7546 130.3764,1.7528 127.158,1.7506 123.8659,1.7477 120.7082,1.7444 117.6343,1.7403 114.4495,1.7351 111.2652,1.7303 107.7294,1.7277 103.7026,1.7262 99.8577,1.7244 96.2677,1.7223 92.4079,1.7191 88.7643,1.7152 85.1241,1.7091 81.4849,1.6984 77.863,1.6734 73.5022,1.5993 69.3127,1.3514 65.5328,0.9543 61.7208,0.7311 58.0383,0.655 54.2597,0.3938 50.8263,-0.0092 47.9416,-0.2152 45.1453,-0.2261 41.6124,-0.2384 37.9159,-0.2506 34.9681,-0.2599 32.2335,-0.2722 29.5011,-0.29 26.7708,-0.3093 24.0393,-0.3303 21.3278,-0.3457 18.4758,-0.2781 15.6645,0.155 12.6783,0.5572 9.5446,0.9906 6.5358,1.4016 3.5656,1.4373 1.0761,1.4742 0,1.4931 A1.4931,1.4931 0 0 1 0,-1.4931 Z" stroke-linecap="round" fill="#9398b0"/></g></g><g transform="matrix(1, 0, 0, 1, 1240.8976, 10792.8875) scale(0.9109313594180959, 0.9109313594180959)" opacity="1"><g transform="scale(1.0977775544348383)"><path d="M1.7642,0 T1.7641,1.0761 1.7666,3.7808 1.7701,7.1762 1.77,10.3915 1.7693,11.84 A1.7693,1.7693 0 0 1 -1.7693,11.84 T-1.77,10.3915 -1.7701,7.1762 -1.7666,3.7808 -1.7641,1.0761 -1.7642,0 A1.7642,1.7642 0 0 1 1.7642,0 ZM-1.7693,11.84 T-1.7699,11.2688 -1.7703,9.0327 -1.7694,6.0104 -1.7584,3.2521 -1.4563,1.0553 -1.1644,0.2594 A1.7643,1.7643 0 0 1 2.0253,1.7682 T1.8867,1.8822 1.7584,3.3245 1.7694,6.0104 1.7703,9.0327 1.7699,11.2688 1.7693,11.84 A1.7693,1.7693 0 0 1 -1.7693,11.84 ZM0.0572,-0.7105 T0.1705,-0.7353 0.2839,-0.76 A1.7647,1.7647 0 0 1 1.0306,2.6894 T0.9172,2.7138 0.8037,2.7381 A1.7643,1.7643 0 0 1 0.0572,-0.7105 ZM2.4086,0.7485 T2.4926,1.545 2.5988,2.9405 2.621,3.5396 A1.714,1.714 0 0 1 -0.801,3.7404 T-0.849,3.1428 -0.9955,1.8631 -1.0941,1.1809 A1.7647,1.7647 0 0 1 2.4086,0.7485 Z" stroke-linecap="round" fill="#9398b0"/></g></g><g transform="matrix(1, 0, 0, 1, 1079.6628, 10791.0656) scale(0.9109313594180959, 0.9109313594180959)" opacity="1"><g transform="scale(1.0977775544348383)"><path d="M1.6491,0 T1.6487,1.0761 1.6476,3.8942 1.2406,7.2942 0.8342,8.9522 A1.6463,1.6463 0 0 1 -2.1487,7.5581 T-1.8979,6.5972 -1.6476,3.8942 -1.6487,1.0761 -1.6491,0 A1.6491,1.6491 0 0 1 1.6491,0 ZM-1.0085,9.8636 T-1.0682,9.8504 -1.128,9.8372 A1.646,1.646 0 0 1 -0.4256,6.621 T-0.3658,6.6339 -0.306,6.6468 A1.6463,1.6463 0 0 1 -1.0085,9.8636 ZM-2.4167,8.3714 T-2.4657,7.7869 -2.5313,5.4657 -2.5521,1.8649 -2.5564,0.0009 A1.6464,1.6464 0 0 1 0.7364,-0.0009 T0.735,1.8593 0.7511,5.379 0.8158,7.5626 0.863,8.0868 A1.646,1.646 0 0 1 -2.4167,8.3714 Z" stroke-linecap="round" fill="#9398b0"/></g></g><g transform="matrix(1, 0, 0, 1, 1000.4118, 10791.9765) scale(0.9109313594180959, 0.9109313594180959)" opacity="1"><g transform="scale(1.0977775544348383)"><path d="M1.6288,0 T1.6153,1.0761 1.5896,3.5656 1.5733,6.5092 1.5695,9.4286 1.5702,11.3289 1.5705,11.84 A1.5705,1.5705 0 0 1 -1.5705,11.84 T-1.5702,11.3289 -1.5695,9.4286 -1.5733,6.5092 -1.5896,3.5656 -1.6153,1.0761 -1.6288,0 A1.6288,1.6288 0 0 1 1.6288,0 ZM-1.5705,11.84 T-1.5719,11.2882 -1.5799,9.1698 -1.5958,6.1452 -1.6166,2.9196 -1.6363,-0.789 -1.6447,-2.73 A1.6447,1.6447 0 0 1 1.6447,-2.73 T1.6363,-0.789 1.6166,2.9196 1.5958,6.1452 1.5799,9.1698 1.5719,11.2882 1.5705,11.84 A1.5705,1.5705 0 0 1 -1.5705,11.84 ZM1.6447,-2.73 T1.6465,-2.1673 1.3903,0.4644 0.9513,3.8922 0.6706,6.3167 0.571,7.3824 A1.4838,1.4838 0 0 1 -2.391,7.1976 T-2.3574,6.1278 -2.1585,3.3224 -1.8208,-0.009 -1.6465,-2.1673 -1.6447,-2.73 A1.6447,1.6447 0 0 1 1.6447,-2.73 Z" stroke-linecap="round" fill="#9398b0"/></g></g><g transform="matrix(1, 0, 0, 1, 1321.0596, 10792.8875) scale(0.9109313594180959, 0.9109313594180959)" opacity="1"><g transform="scale(1.0977775544348383)"><path d="M1.6302,0 T1.6372,1.0761 1.6529,3.996 1.6671,7.5647 1.6785,10.9733 1.4557,13.8531 1.2273,15.049 A1.6938,1.6938 0 0 1 -2.0881,14.3534 T-1.8862,13.4979 -1.6785,10.9659 -1.6671,7.5647 -1.6529,3.996 -1.6372,1.0761 -1.6302,0 A1.6302,1.6302 0 0 1 1.6302,0 ZM-2.0559,15.1773 T-2.2478,14.4914 -2.4935,11.8082 -2.5366,7.8098 -2.5234,4.4819 -2.5219,1.5779 -2.5228,0.0006 A1.6128,1.6128 0 0 1 0.7028,-0.0006 T0.702,1.0453 0.709,3.9458 0.7415,7.7854 0.8262,11.5013 1.0405,13.7286 1.1951,14.225 A1.6938,1.6938 0 0 1 -2.0559,15.1773 ZM0.7028,0 T0.7041,0.5549 0.7088,2.4563 0.713,5.2694 1.027,8.2469 1.4219,11.6574 1.5038,13.5569 A1.5073,1.5073 0 0 1 -1.5038,13.7631 T-1.6746,11.9759 -2.1897,8.4783 -2.533,5.2854 -2.5287,2.4563 -2.5241,0.5549 -2.5228,0 A1.6128,1.6128 0 0 1 0.7028,0 Z" stroke-linecap="round" fill="#9398b0"/></g></g><g transform="matrix(1, 0, 0, 1, 1159.2645, 10797.3098) scale(0.8679266528152506, 0.8679266528152506)" opacity="1"><g transform="scale(1.152171092748851)"><path d="M1.3291,-2.1991 T1.5389,-1.9974 1.7488,-1.7958 A1.8912,1.8912 0 0 1 -0.9258,0.8788 T-1.1274,0.6689 -1.3291,0.4591 A1.8796,1.8796 0 0 1 1.3291,-2.1991 ZM-0.1481,-2.265 T0.514,-2.4779 1.176,-2.6908 A1.9062,1.9062 0 0 1 2.304,0.9508 T1.6376,1.1494 0.9711,1.348 A1.8912,1.8912 0 0 1 -0.1481,-2.265 ZM1.9219,1.0275 T1.0409,1.0754 -1.2487,1.1084 -2.6572,1.0934 A1.9642,1.9642 0 0 1 -2.5428,-2.8334 T-0.8033,-2.7341 1.2471,-2.7011 1.5581,-2.7675 A1.9062,1.9062 0 0 1 1.9219,1.0275 ZM-2.5764,-2.8341 T-1.9408,-2.8276 0.212,-2.7871 1.7293,-2.7532 A1.8832,1.8832 0 0 1 1.7507,1.0132 T0.32,1.0638 -1.8671,1.1043 -2.6236,1.0941 A1.9642,1.9642 0 0 1 -2.5764,-2.8341 Z" stroke-linecap="round" fill="#40c057"/></g></g><g transform="matrix(1, 0, 0, 1, 1279.0384, 10798.1777) scale(0.8679266528152506, 0.8679266528152506)" opacity="1"><g transform="scale(1.152171092748851)"><path d="M0,1.7355 T-1.2322,1.7161 -3.8372,1.6942 -5.21,1.6917 A1.6917,1.6917 0 0 1 -5.21,-1.6917 T-3.8372,-1.6942 -1.2322,-1.7161 0,-1.7355 A1.7355,1.7355 0 0 1 0,1.7355 ZM-5.21,-1.6917 T-4.4172,-1.6916 -1.5768,-1.6971 1.9704,-1.7116 3.47,-1.7205 A1.7205,1.7205 0 0 1 3.47,1.7205 T1.9704,1.7116 -1.5768,1.6971 -4.4172,1.6916 -5.21,1.6917 A1.6917,1.6917 0 0 1 -5.21,-1.6917 ZM3.47,1.7205 T2.7966,1.7218 0.1794,1.7255 -3.2144,1.7277 -5.3723,1.7282 -6.08,1.7288 A1.7288,1.7288 0 0 1 -6.08,-1.7288 T-5.3723,-1.7282 -3.2144,-1.7277 0.1794,-1.7255 2.7966,-1.7218 3.47,-1.7205 A1.7205,1.7205 0 0 1 3.47,1.7205 ZM-6.08,-1.7288 T-5.6066,-1.7298 -3.6835,-1.425 -0.7071,-1.0586 1.7428,-0.972 2.666,-0.946 A1.8172,1.8172 0 0 1 2.534,2.686 T0.7517,2.6054 -3.1115,2.1278 -5.6362,1.7298 -6.08,1.7288 A1.7288,1.7288 0 0 1 -6.08,-1.7288 Z" stroke-linecap="round" fill="#40c057"/></g></g><g transform="matrix(1, 0, 0, 1, 1227.8307, 10721.8002) scale(0.8679266528152506, 0.8679266528152506)" opacity="1"><g transform="scale(1.152171092748851)"><path d="M 0 0 m -2.361244752649674, 0 a 2.361244752649674,2.361244752649674 0 1,1 4.722489505299348,0 a 2.361244752649674,2.361244752649674 0 1,1 -4.722489505299348,0" stroke-linecap="round" fill="#40c057"/></g></g><g transform="matrix(1, 0, 0, 1, 1099.3776, 10934.4422) scale(0.8679266528152506, 0.8679266528152506)" opacity="1"><g transform="scale(1.152171092748851)"><path d="M-1.2095,-0.4849 T-0.7892,-1.5075 0.2563,-4.4414 1.4062,-7.8265 2.6926,-10.8844 3.8463,-13.8431 4.7027,-16.441 6.014,-19.4519 7.2834,-22.4465 8.2331,-25.2025 9.4278,-28.394 10.5711,-31.3824 11.4747,-34.3298 12.3403,-37.3472 13.2892,-40.0165 14.5017,-43.0063 15.7286,-45.9894 16.686,-48.4829 17.5081,-51.0196 18.4232,-53.6965 19.7111,-57.1591 21.2235,-61.2242 22.5656,-65.0372 23.6417,-68.4509 24.5707,-71.4305 25.4532,-74.0368 26.6242,-77.0375 27.857,-80.3344 28.828,-83.0883 30.0239,-86.1692 31.2754,-89.5047 32.6419,-92.7262 33.9412,-95.7631 35.0989,-98.4363 36.6081,-101.4366 37.9839,-104.32 39.0903,-106.8223 40.1139,-109.2785 41.3512,-112.0804 42.9635,-115.4405 44.5687,-118.6588 46.1115,-121.9414 47.4409,-125.0838 48.8568,-128.2308 50.543,-131.9156 52.3634,-135.3 54.1363,-138.6441 55.7203,-142.1361 56.9281,-145.1689 58.0795,-148.2756 59.8551,-151.6015 61.6382,-154.5253 63.204,-157.3828 65.0185,-160.6528 66.8351,-163.6719 68.7431,-166.8983 70.9495,-170.5247 72.8661,-173.5557 74.6587,-176.215 76.8775,-179.3049 78.9699,-182.6326 80.6892,-185.218 82.4728,-187.532 84.6772,-190.1431 87.1141,-192.9128 89.2958,-195.2688 91.9949,-197.9346 94.5376,-200.7704 96.673,-202.9926 99.2643,-205.3077 102.3489,-207.6051 105.3613,-209.4734 108.0108,-210.8941 110.8518,-212.1868 113.6647,-213.3219 116.9076,-214.3627 120.9097,-215.3752 124.5535,-215.8976 127.9795,-215.736 131.3528,-215.1126 134.1909,-214.2883 137.3911,-213.0009 140.7932,-211.2796 143.5535,-209.5886 145.75,-207.7028 147.7441,-205.6747 149.8797,-203.5127 152.3021,-201.0266 154.565,-198.3775 156.7528,-195.471 158.8732,-192.8836 160.7161,-190.1658 162.5491,-186.7054 164.1298,-183.5181 165.567,-180.6497 167.0434,-177.3476 168.4597,-174.0319 169.8157,-170.6238 171.0434,-167.3309 172.2741,-164.0871 173.5796,-160.8325 174.9113,-157.6994 176.2094,-154.4792 177.5494,-151.6836 178.8687,-148.9056 180.1382,-145.6635 181.4688,-142.0885 182.9283,-138.2521 184.5612,-134.3316 185.8681,-131.0328 186.8041,-128.0248 188.1007,-124.07 189.8226,-119.1832 191.4965,-115.016 192.8906,-111.4705 194.1065,-107.7011 195.312,-104.6404 196.4404,-101.7158 197.5775,-98.4313 199.0344,-94.732 200.5029,-91.1065 201.7841,-87.7447 203.0808,-84.3004 204.4967,-81.0775 205.8751,-77.5474 207.3,-73.3305 208.9016,-69.1333 210.2276,-65.4412 211.2179,-62.1016 212.3753,-59.0937 213.6711,-55.7538 214.7141,-52.2745 215.9146,-48.5573 217.1706,-44.6272 218.2843,-41.1197 219.4562,-37.5847 220.4098,-34.4 221.6166,-31.0162 222.8884,-27.5595 224.1009,-24.5078 225.3983,-21.0987 226.5774,-17.8833 227.6763,-15.0546 228.5538,-12.0846 229.5958,-8.4503 231.0628,-4.6138 232.3352,-1.506 233.4359,1.2512 234.7641,4.7154 235.9185,8.1531 236.4457,9.6414 A2.2451,2.2451 0 0 1 232.2343,11.1986 T231.9019,10.3464 231.1856,8.2004 230.3029,5.6928 229.0701,2.8123 227.9459,-0.3539 226.6111,-3.5801 225.2195,-6.5608 224.3215,-9.3386 223.4482,-12.3004 222.591,-15.0547 221.711,-17.6708 220.7414,-20.3777 219.439,-23.4256 218.2092,-26.7602 216.9192,-30.2615 215.6744,-33.5533 214.7472,-36.5854 213.6721,-39.64 212.6097,-42.9432 211.3103,-46.9523 210.0803,-50.7123 209.1595,-53.8449 207.9005,-57.0357 206.621,-60.2659 205.6072,-63.6015 204.2426,-67.3608 202.7128,-71.1451 201.5414,-74.4206 200.4854,-77.4778 199.1127,-80.8205 197.8127,-84.2687 196.524,-87.6518 195.3016,-90.7835 194.0732,-93.9 192.7396,-96.9212 191.7545,-99.7349 190.5214,-102.9561 189.214,-106.229 188.1695,-109.4788 186.7215,-113.1416 184.9236,-117.5643 183.6337,-121.2259 182.75,-123.7553 181.8775,-126.5115 180.6412,-130.1363 178.9853,-134.4318 177.366,-138.6316 176.1366,-142.1887 174.9151,-145.2324 173.5773,-148.0123 172.2167,-151.0321 170.9959,-154.2532 169.7352,-157.4493 168.3704,-160.7347 167.061,-163.9974 165.5279,-167.7601 164.3206,-171.1218 162.965,-174.28 161.6114,-177.3675 160.3629,-180.2566 158.7043,-183.5975 156.9616,-186.9094 155.2234,-189.4641 153.4962,-191.6187 151.7599,-193.7812 150.0237,-195.9166 147.865,-198.3829 145.511,-201.019 143.2543,-203.4422 140.8334,-205.3731 138.4031,-206.8841 135.4742,-208.37 132.4625,-209.5893 129.4229,-210.4926 126.3317,-210.9667 123.1171,-210.809 119.54,-210.2276 116.5593,-209.3399 113.3805,-208.0041 109.73,-206.1785 106.7303,-204.5676 104.2213,-202.9693 101.8337,-201.1025 99.7072,-199.2247 97.4297,-197.0295 94.8176,-194.2079 92.2875,-191.3885 90.1603,-189.1032 87.935,-186.7652 85.8271,-184.3196 84.1104,-182.116 82.0995,-179.3473 79.8986,-175.9791 77.9176,-172.9561 75.9034,-170.0794 74.079,-167.3841 72.6096,-165.0115 71.166,-162.6445 69.5167,-159.7262 67.7432,-156.6225 66.0829,-153.7662 64.3339,-151.0832 62.6537,-148.269 61.2601,-145.2064 60.1715,-142.4808 58.845,-139.552 57.1793,-136.1012 55.6258,-133.2006 54.3707,-130.8096 52.9686,-127.7428 51.2527,-124.1492 49.7478,-120.992 48.2471,-118.0696 46.5363,-114.7366 45.0419,-111.5615 43.9069,-108.7585 42.7388,-106.2383 41.3191,-103.2874 39.7164,-99.8653 38.1352,-96.8049 36.8946,-94.0299 35.7278,-91.3638 34.4994,-88.5025 33.4251,-85.4699 32.2398,-82.5457 30.9802,-79.368 29.686,-76.0349 28.5457,-73.221 27.6568,-70.6393 26.7067,-67.7075 25.5421,-64.1491 24.1224,-60.2233 22.6232,-56.319 21.311,-52.8626 20.0271,-49.476 18.8212,-46.2907 17.7535,-43.4892 16.6223,-40.3523 15.5047,-37.5783 14.4902,-34.9716 13.5544,-31.9207 12.4969,-28.8537 11.2179,-25.7562 10.0622,-22.8669 9.1292,-20.377 7.8189,-17.4127 6.5607,-14.3171 5.6812,-11.7336 4.5888,-8.7658 3.3339,-5.7564 2.3715,-3.0346 1.6122,-0.5453 1.2095,0.4849 A1.3031,1.3031 0 0 1 -1.2095,-0.4849 Z" stroke-linecap="round" fill="#40c057"/></g></g></svg>