<svg xmlns="http://www.w3.org/2000/svg" direction="ltr" width="314.26722004276576" height="270.0271888082989" viewBox="847.7508379779772 10327.162591153914 314.26722004276576 270.0271888082989" stroke-linecap="round" stroke-linejoin="round" style="background-color: transparent;"><defs/><g transform="matrix(1, 0, 0, 1, 879.7508, 10519.6826)" opacity="1"><g transform="scale(1)"><path d="M-0.9752,-1.9504 T0.8221,-2.8365 4.6646,-5.0981 8.6857,-7.796 12.5807,-10.4027 16.4,-12.9587 20.1933,-15.5001 24.4113,-18.4778 28.2353,-21.5249 31.7073,-24.7875 35.6276,-28.1216 39.8745,-31.4458 44.1981,-35.1425 48.5892,-38.9486 53.4514,-42.8932 58.4636,-46.7224 63.3248,-50.6977 67.642,-54.3865 71.4401,-57.7707 74.7843,-60.8879 78.1784,-63.6094 82.0314,-66.8101 86.389,-70.6865 90.7896,-74.5151 94.6366,-77.6432 98.4194,-80.8072 102.2071,-83.9782 105.8319,-86.6689 109.6664,-89.7712 113.4703,-92.9277 117.2542,-96.0931 121.6702,-99.9001 125.7122,-103.3826 129.372,-106.454 133.5031,-109.929 136.8084,-113.3832 139.3288,-116.4583 143.0796,-120.0731 147.5167,-124.0059 151.5023,-127.1848 155.18,-129.888 158.8782,-132.9297 162.6407,-136.0664 166.27,-138.7657 170.6439,-141.936 174.7581,-145.1898 178.2654,-147.8977 182.4211,-151.0022 186.3502,-153.8307 189.6404,-156.2624 192.9769,-159.0144 195.4445,-161.3068 196.1785,-162.2228 A2.8308,2.8308 0 0 1 200.7015,-158.8172 T199.1169,-156.7005 195.6786,-153.2818 191.7263,-150.6117 187.3248,-147.4918 183.1469,-144.477 179.6211,-142.0111 176.3067,-139.3868 172.8924,-136.5785 169.3687,-133.9603 165.4604,-130.9533 161.6586,-127.8199 157.8488,-124.7667 153.8243,-121.715 150.295,-118.9882 146.6647,-115.8851 142.8662,-112.1214 139.4799,-108.2728 136.1905,-105.0322 132.7424,-102.2253 129.0443,-99.1615 124.9919,-95.7233 121.4296,-92.6377 117.6217,-89.4831 113.795,-86.324 110.5631,-83.7805 107.1745,-81.2057 103.3676,-78.0569 99.5486,-74.9108 95.6159,-71.7356 91.7136,-68.7499 88.099,-65.6609 84.6258,-62.4049 81.3827,-59.8247 77.9652,-57.1207 74.3591,-53.8449 70.7076,-50.6464 67.1821,-47.6253 63.6223,-44.7758 60.1969,-42.2039 56.9142,-39.6567 53.6554,-37.2913 49.9736,-34.1947 46.3104,-30.9374 42.5848,-27.8792 38.6167,-24.8437 34.7233,-21.5775 31.0722,-18.1824 27.0612,-15.0063 22.7808,-12.0125 18.9734,-9.4885 15.1466,-6.9482 11.2409,-4.3469 6.9045,-1.4432 2.7632,1.0438 0.9752,1.9504 A2.1807,2.1807 0 0 1 -0.9752,-1.9504 Z" stroke-linecap="round" fill="#e599f7"/></g></g><g transform="matrix(1, 0, 0, 1, 882.2787, 10519.6826)" opacity="1"><g transform="scale(1)"><path d="M-0.4322,-2.1678 T1.066,-2.4497 5.1025,-2.9824 10.0434,-3.7489 14.6321,-4.4257 20.0407,-5.0879 25.2181,-5.9887 29.5019,-6.7199 33.869,-7.1478 38.9001,-7.2971 44.2506,-7.3749 49.348,-7.4252 54.9549,-7.148 60.2075,-6.6468 65.9882,-6.4142 72.1557,-6.3827 77.9722,-6.4 83.7003,-6.8809 88.6404,-7.4914 93.5156,-7.6819 99.2881,-7.7523 105.4566,-7.7902 110.6796,-7.8103 115.3265,-7.827 120.1099,-7.8468 125.0895,-7.8655 129.8324,-7.8793 134.5569,-7.4127 139.636,-6.8324 144.3327,-6.6903 148.5537,-6.6523 153.1569,-6.6539 158.0861,-6.667 162.5677,-6.6826 167.7678,-6.7037 173.559,-6.7306 179.2638,-6.7541 184.5587,-6.7723 188.932,-6.7887 193.1855,-6.7749 196.9282,-6.7331 198.44,-6.7119 A2.9219,2.9219 0 0 1 198.44,-0.8681 T196.9282,-0.8469 192.0972,-0.8086 186.6405,-0.7995 181.4591,-0.8176 175.4656,-0.8422 169.7223,-0.8685 164.8886,-0.8883 160.4331,-0.9051 155.8978,-0.9219 151.0638,-0.9446 146.241,-0.9817 141.4737,-1.0767 136.4522,-1.422 132.0863,-1.9657 127.7977,-2.2434 122.7825,-2.2625 117.8709,-2.2827 113.3324,-2.2982 108.4893,-2.3122 102.5599,-2.3271 96.5736,-2.3286 91.4875,-2.2695 86.7115,-2.0116 81.1075,-1.5025 74.7651,-1.2291 68.7618,-1.321 62.4444,-1.5493 56.7523,-2.1828 51.4128,-2.6752 46.3442,-2.7183 42.0158,-2.7509 37.0787,-2.7417 31.3931,-2.4539 26.1207,-1.7239 21.4848,-0.7814 16.1785,-0.146 10.5866,0.5473 5.7052,1.3108 1.9233,1.8537 0.4322,2.1678 A2.2104,2.2104 0 0 1 -0.4322,-2.1678 Z" stroke-linecap="round" fill="#e599f7"/></g></g><g transform="matrix(1, 0, 0, 1, 1078.1913, 10361.6886)" opacity="1"><g transform="scale(1)"><path d="M2.4414,-0.4058 T2.7276,1.3888 3.259,5.8039 3.5709,10.985 4.2027,16.4151 4.8609,21.974 4.9714,27.3587 4.9936,32.1219 5.0022,36.8353 5.0106,42.027 5.0267,47.2603 5.3011,52.5353 5.8562,57.8785 6.2219,62.7673 6.3216,67.9264 6.3553,73.7101 6.3697,79.0294 6.3829,84.1232 6.3975,89.1839 6.4147,93.783 6.4204,98.3558 6.9712,103.1276 7.6166,107.558 7.7242,112.5934 7.7412,118.1062 7.7416,122.8337 7.7458,127.4805 7.7605,132.3923 7.7818,136.7926 7.3762,141.3422 6.8035,146.1252 6.6144,151.311 6.5817,154.2177 A2.7918,2.7918 0 0 1 0.9983,154.1823 T1.0172,151.2235 1.2445,145.7671 1.8901,141.0538 2.3382,136.7926 2.3595,132.3924 2.3742,127.4806 2.3781,122.8342 2.3764,118.1093 2.3714,113.278 2.2952,108.5194 1.6929,103.5172 1.1596,98.466 1.1653,93.783 1.1824,89.1839 1.1969,84.1235 1.2091,79.0311 1.2161,73.7198 1.1997,67.9993 1.1224,63.0299 0.8754,58.7655 0.3492,54.2656 0.0255,49.1191 0.0462,43.6699 0.0547,38.5435 0.0596,33.971 0.0627,29.7708 0.046,25.3324 -0.1101,20.614 -0.7342,15.9068 -1.2865,11.22 -1.5875,6.366 -2.1317,2.1965 -2.4414,0.4058 A2.4749,2.4749 0 0 1 2.4414,-0.4058 Z" stroke-linecap="round" fill="#e599f7"/></g></g><g transform="matrix(1, 0, 0, 1, 969.4915, 10390.7595)" opacity="1"><g transform="scale(1)"><path d="M2.2772,-1.1341 T2.5847,-0.5231 3.2729,2.5442 3.2803,7.7903 2.8198,12.8314 2.6665,17.6721 2.6003,20.2613 A2.6006,2.6006 0 0 1 -2.6003,20.1787 T-2.591,18.8033 -2.531,14.9235 -2.2424,10.0426 -1.8524,4.9859 -1.9887,1.7198 -2.2772,1.1341 A2.5439,2.5439 0 0 1 2.2772,-1.1341 Z" stroke-linecap="round" fill="#e599f7"/></g></g><g transform="matrix(1, 0, 0, 1, 966.9635, 10386.9676)" opacity="1"><g transform="scale(1)"><path d="M1.8933,2.3648 T0.4005,3.5645 -3.5132,6.5013 -7.3712,9.6414 -9.7943,11.795 -10.7804,12.5454 A3.0642,3.0642 0 0 1 -14.4996,7.6746 T-12.101,5.5436 -7.2944,1.7176 -3.3899,-1.1712 -1.8933,-2.3648 A3.0293,3.0293 0 0 1 1.8933,2.3648 Z" stroke-linecap="round" fill="#e599f7"/></g></g><g transform="matrix(1, 0, 0, 1, 1121.1657, 10397.0792)" opacity="1"><g transform="scale(1)"><path d="M1.9635,-0.1631 T2.3287,3.4207 2.5876,9.3485 2.3947,14.1814 2.2024,19.0989 2.0968,21.5273 A2.0971,2.0971 0 0 1 -2.0968,21.4527 T-2.1152,18.9799 -1.9934,13.9602 -1.6776,9.3798 -1.7327,3.7547 -1.9635,0.1631 A1.9703,1.9703 0 0 1 1.9635,-0.1631 Z" stroke-linecap="round" fill="#e599f7"/></g></g><g transform="matrix(1, 0, 0, 1, 1130.0134, 10426.1501)" opacity="1"><g transform="scale(1)"><path d="M0,2.3086 T-2.391,2.3424 -8.2182,2.4086 -13.6801,2.4151 -17.9629,2.3651 -20.22,2.3411 A2.3411,2.3411 0 0 1 -20.22,-2.3411 T-17.9629,-2.3651 -13.6801,-2.4151 -8.2182,-2.4086 -2.391,-2.3424 0,-2.3086 A2.3086,2.3086 0 0 1 0,2.3086 Z" stroke-linecap="round" fill="#e599f7"/></g></g><g transform="matrix(1, 0, 0, 1, 1112.3181, 10440.0536)" opacity="1"><g transform="scale(1)"><path d="M-0.5346,-3.2161 T1.2811,-3.4771 6.5946,-2.3181 10.0925,-0.898 A3.0727,3.0727 0 0 1 6.0664,3.7451 T5.0701,3.1456 2.3042,2.8812 0.5346,3.2161 A3.2603,3.2603 0 0 1 -0.5346,-3.2161 ZM11.1154,1.8977 T10.9097,3.0156 9.594,6.0686 8.1049,9.1565 7.7259,10.3093 A3.0141,3.0141 0 0 1 1.7354,9.6359 T3.2344,6.4846 4.8884,2.1414 5.0435,0.9494 A3.0727,3.0727 0 0 1 11.1154,1.8977 ZM5.8071,7.1572 T6.9945,7.5876 10.4815,8.1118 14.896,7.7474 17.0108,7.289 A2.9039,2.9039 0 0 1 18.3892,12.931 T15.5399,13.6854 9.6437,14.2001 5.1255,13.3741 3.6542,12.7879 A3.0141,3.0141 0 0 1 5.8071,7.1572 Z" stroke-linecap="round" fill="#e599f7"/></g></g><g transform="matrix(1, 0, 0, 1, 998.5624, 10538.6419)" opacity="1"><g transform="scale(1)"><path d="M1.9826,1.5874 T0.8009,3.0935 -2.4938,7.1712 -6.6529,11.7877 -11.3438,16.1743 -16.9093,20.942 -19.8302,23.3683 A2.5066,2.5066 0 0 1 -23.1498,19.6117 T-20.2741,16.9157 -14.9498,12.0903 -10.3734,7.9274 -6.3258,3.6365 -3.1943,-0.1041 -1.9826,-1.5874 A2.5398,2.5398 0 0 1 1.9826,1.5874 Z" stroke-linecap="round" fill="#e599f7"/></g></g><g transform="matrix(1, 0, 0, 1, 983.3949, 10541.1698)" opacity="1"><g transform="scale(1)"><path d="M2.5079,-1.8784 T3.4057,-0.6824 6.2508,3.7468 10.0003,9.7608 13.3933,14.8845 16.4335,19.7939 17.883,22.3605 A3.1803,3.1803 0 0 1 12.457,25.6795 T10.9819,23.4647 7.9251,18.8775 4.4173,13.2955 0.8864,7.1795 -1.6131,3.0758 -2.5079,1.8784 A3.1333,3.1333 0 0 1 2.5079,-1.8784 Z" stroke-linecap="round" fill="#e599f7"/></g></g></svg>