<svg xmlns="http://www.w3.org/2000/svg" direction="ltr" width="397.8599999999999" height="396.8600000000006" viewBox="1362.5707279628275 15010.373111738341 397.8599999999999 396.8600000000006" stroke-linecap="round" stroke-linejoin="round" style="background-color: transparent;"><defs/><g transform="matrix(1, 0, 0, 1, 1561.502, 15042.3731)" opacity="1"><g transform="scale(1)"><path d="M0,0 Q-0.4606,3.2102 -0.5858,4.5417 T-0.7793,6.8278 -0.8845,9.9068 -0.9417,13.6452 -0.9729,16.5954 -0.9898,19.3449 -0.999,21.9875 -1.004,24.3439 -1.0067,26.7703 -1.0082,29.4651 -1.009,32.0779 -1.0095,34.1879 -1.0097,36.0242 -1.0098,37.7095 -1.0099,39.3149 -1.01,41.107 -1.01,42.9985 -1.01,44.7137 -1.01,46.3331 -1.01,48.3609 -1.01,50.3828 -1.01,52.1713 -1.01,54.2911 -1.01,56.3609 -1.01,58.1731 -1.01,60.0755 -1.01,62.0269 -1.01,63.7771 -1.01,65.4177 -1.01,66.9988 -1.01,68.5475 -1.01,70.0762 -1.01,71.5964 -1.01,73.3423 -1.01,75.2085 -1.01,76.9101 -1.01,78.522 -1.01,80.0875 -1.01,81.6276 -1.01,83.154 -1.01,84.6729 -1.01,86.1855 -1.01,87.6946 -1.01,89.2042 -1.01,90.7139 -1.01,92.2238 -1.01,93.7337 -1.01,95.4716 -1.01,97.3337 -1.01,99.0351 -1.01,100.6493 -1.01,102.2137 -1.01,103.751 -1.01,105.2759 -1.01,106.794 -1.01,108.5364 -1.01,110.4008 -1.01,112.1036 -1.01,113.7185 -1.01,115.2855 -1.01,116.8266 -1.01,118.3512 -1.01,119.8668 -1.01,121.3799 -1.01,122.6636 -1.01,124.0505 -1.01,125.7215 -1.01,127.5471 -1.01,129.4568 -1.01,131.1842 -1.01,132.8125 -1.238,134.3846 -1.59,135.926 -1.7815,137.4532 -1.8857,138.9725 -1.9424,140.4875 -1.9732,142.0003 -1.99,143.7398 -1.9991,145.6027 -2.0041,147.3046 -2.0068,148.919 -2.0082,150.4835 -2.009,152.0209 -2.0095,153.5458 -2.0097,155.0639 -2.0098,156.5783 -2.0099,158.0907 -2.01,159.5998 -1.782,161.1069 -1.43,162.8457 -1.2385,164.4801 -1.1343,166.0556 -1.0776,167.6011 -1.0468,169.1305 -1.03,170.6488 -1.0209,172.1632 -1.0159,173.906 -1.0132,175.7706 -1.0118,177.7015 -1.011,179.4404 -1.0105,180.8447 -1.0103,182.2949 -1.0102,184.0004 -1.0101,185.6167 -1.01,187.1846 -1.01,188.7261 -1.01,190.4812 -1.01,192.5805 -1.01,194.8694 -1.01,197.2614 -1.01,199.4792 -1.01,201.3742 -1.01,203.0937 -1.01,204.7177 -1.01,206.2896 -1.01,207.8311 -1.01,209.1279 -1.238,210.7499 -1.59,212.7792 -1.7815,215.0299 -1.8857,217.1709 -1.9424,219.0241 -1.9732,220.7208 -1.99,222.3324 -1.9991,223.8954 -2.0041,225.4319 -1.7788,226.9564 -1.4282,228.4742 -1.2375,230.2165 -1.1338,232.0809 -1.0773,233.7836 -1.0466,235.6288 -1.0299,237.7794 -1.0208,239.6356 -1.0159,241.3316 -1.0132,242.9428 -1.0117,244.2776 -1.2389,245.6923 -1.5905,247.1505 -1.7818,248.63 -1.8859,250.1234 -1.9425,251.6244 -1.9733,253.1272 -1.99,254.6333 -1.9991,256.1411 -2.0041,257.6477 -2.0068,259.1558 -2.0082,260.6648 -2.009,262.1743 -2.0095,263.684 -2.0097,265.4218 -2.0098,267.2837 -2.0099,268.9829 -2.01,270.5958 -2.01,272.1618 -2.01,273.472 -2.01,274.8733 -2.01,276.5521 -2.01,278.382 -1.782,280.294 -1.43,282.0227 -1.2385,283.6517 -1.1343,285.2241 -1.0776,286.7681 -1.0468,288.2966 -1.03,289.8143 -1.0209,291.3286 -1.0159,292.8409 -1.0132,294.3498 -1.0118,295.8593 -0.7807,297.369 -0.4247,298.8765 -0.231,300.6132 -0.1257,302.4768 -0.0684,304.1791 -0.0372,305.7915 -0.0202,307.3572 -0.011,308.8975 -0.006,310.4217 -0.0033,312.1674 -0.0018,314.2639 -0.001,316.321 -0.2308,318.3588 -0.5861,320.3863 -0.7794,322.4058 -0.8846,324.1907 -0.9418,325.8479 -0.9729,327.438 -0.9898,329.2219 -1.0029,331.5782 L-1.01,332.86 " stroke-linecap="round" fill="none" stroke="#9398b0" stroke-width="4.5" stroke-dasharray="none" stroke-dashoffset="0"/></g></g><g transform="matrix(1, 0, 0, 1, 1394.5707, 15241.4839)" opacity="1"><g transform="scale(1)"><path d="M0,0 Q3.6662,0 5.124,0 T7.8331,0 10.2234,0 12.4403,0 14.5628,0 16.6341,0 18.6774,0 20.7055,-0.2303 22.7276,-0.5858 24.7465,-0.7793 26.7613,-0.8845 28.774,-0.9417 30.7854,-0.9729 32.7962,-0.9898 34.5786,-0.999 36.0065,-1.232 37.2416,-1.5868 38.602,-1.7798 40.0307,-1.8848 41.2661,-1.9419 42.6245,-1.9729 44.052,-1.9898 45.2868,-1.999 46.6449,-2.004 48.0722,-2.0068 49.3092,-2.0082 50.6708,-2.009 52.0977,-2.0095 53.3322,-2.0097 54.6924,-2.0098 56.3488,-2.0099 58.1665,-2.01 60.0719,-2.01 62.025,-2.01 64.0063,-2.01 66.003,-2.01 68.0058,-2.01 70.0118,-2.01 72.0197,-2.01 74.0285,-2.01 76.0379,-2.01 78.0475,-2.01 79.8293,-2.01 81.2592,-1.782 82.7256,-1.43 84.2096,-1.2385 85.4752,-1.1343 86.8522,-1.0776 88.2876,-1.0468 89.5267,-1.03 90.8894,-1.0209 92.3192,-1.0159 93.5553,-1.0132 94.6861,-0.7815 95.9897,-0.4251 97.6155,-0.2313 99.1885,-0.1258 100.9607,-0.0684 102.8414,-0.0372 104.7833,-0.0203 106.7563,-0.011 108.7461,-0.006 110.9755,-0.0033 113.1048,-0.0018 115.1797,-0.001 116.997,-0.0005 118.9022,-0.0003 120.8551,-0.0002 122.6061,-0.0001 124.7055,0 126.9944,0 128.9258,0 130.6651,0 132.2998,0 133.8754,0 135.421,0 136.9504,0 138.699,0 140.3388,0 141.9194,0 143.4655,0 144.7649,0 146.1603,0 147.608,0 149.312,0 151.6139,0 154.013,0 156.0066,0 158.0077,0 160.2409,0 162.1443,0 164.0986,0 166.0783,0 167.8415,0 169.9475,0 172.2401,0 174.1758,0 175.9173,0 177.7813,0 179.7119,0 181.6787,0 183.8954,0 186.7065,0 189.8408,0 192.6927,0 194.9327,0 196.8398,0 198.7939,0 201.0014,0 203.5772,0 205.8972,0 207.8479,0 209.5953,0 211.2322,0 212.8112,-0.2303 214.3588,-0.5858 215.8892,-0.7793 217.6383,-0.8845 219.7367,-0.9417 222.025,-0.9729 224.6447,-0.7595 227.2167,-0.4132 229.3044,-0.2248 231.1287,-0.1223 233.0376,-0.0665 234.7624,-0.0362 236.6172,-0.0197 239.0034,-0.0107 241.6763,-0.0058 244.2772,-0.0032 246.3806,-0.0017 248.4415,-0.0009 250.9374,-0.0005 253.9003,-0.0003 257.1172,-0.0002 260.0141,-0.0001 262.2786,0 264.427,0 266.7426,0.2303 268.9188,0.5858 270.7912,0.7792 272.7264,0.8845 274.9237,0.9417 276.8076,0.9729 278.7512,0.9898 280.9554,0.999 282.8408,1.004 284.5527,1.0067 286.1726,1.0082 287.9726,1.237 290.0986,1.5895 292.1718,1.7813 294.2161,1.8856 296.2448,1.9423 298.037,1.9732 299.7005,1.99 301.2917,1.9991 302.6156,2.0041 304.0244,2.0068 305.7073,2.0082 307.5394,2.009 309.2246,2.0095 311.0602,2.0097 313.4336,1.7818 315.8693,1.4299 317.8828,1.2384 319.6668,1.1343 321.3258,1.0776 322.9169,1.0468 324.4687,1.03 326.2295,1.0209 328.1061,1.0159 330.0436,1.0132 332.5154,1.0111 L333.86,1.01 " stroke-linecap="round" fill="none" stroke="#9398b0" stroke-width="4.5" stroke-dasharray="none" stroke-dashoffset="0"/></g></g><g transform="matrix(1, 0, 0, 1, 1599.7152, 15235.4502)" opacity="1"><g transform="scale(1)"><path d="M0,0 Q-0.4606,4.5874 -0.5858,6.5214 T-0.7793,9.7378 -0.8845,11.9459 -0.9417,12.9168 -0.9859,13.016 L-1.01,13.07 " stroke-linecap="round" fill="none" stroke="#4dabf7" stroke-width="4.5" stroke-dasharray="none" stroke-dashoffset="0"/></g></g><g transform="matrix(1, 0, 0, 1, 1642.9564, 15237.4615)" opacity="1"><g transform="scale(1)"><path d="M0,2.0634 Q0,4.1268 0,5.4796 T0,7.7962 0.2303,6.9931 0.7353,3.118 0.505,0.505 0,2.0634 Z" stroke-linecap="round" fill="none" stroke="#4dabf7" stroke-width="4.5" stroke-dasharray="none" stroke-dashoffset="0"/></g></g><g transform="matrix(1, 0, 0, 1, 1681.1696, 15236.4558)" opacity="1"><g transform="scale(1)"><path d="M0.2303,2.0634 Q0.4606,4.1268 0.5858,5.7076 T0.549,8.6066 0.2986,10.8722 0.3927,10.7298 0.9022,8.3587 1.4074,5.922 1.7977,3.3883 1.005,1.005 0.2303,2.0634 Z" stroke-linecap="round" fill="none" stroke="#4dabf7" stroke-width="4.5" stroke-dasharray="none" stroke-dashoffset="0"/></g></g><g transform="matrix(1, 0, 0, 1, 1554.4627, 15201.2595)" opacity="1"><g transform="scale(1)"><path d="M0,0 Q1.8331,0.4606 2.79,0.5858 T5.4143,0.549 7.5305,0.2986 7.7651,0.1625 7.2955,0.0572 L7.04,0 " stroke-linecap="round" fill="none" stroke="#4dabf7" stroke-width="4.5" stroke-dasharray="none" stroke-dashoffset="0"/></g></g><g transform="matrix(1, 0, 0, 1, 1556.4739, 15162.0407)" opacity="1"><g transform="scale(1)"><path d="M0,0 Q2.7497,0.4606 3.7279,0.5858 T4.7799,0.7793 4.4357,0.8845 3.3318,0.9417 1.8125,0.9729 0.5255,1.2178 -0.4027,1.579 -0.6774,1.7756 -0.1382,1.8825 0.8437,1.9406 2.2944,1.9723 4.2281,1.7615 6.4269,1.4188 8.7799,1.154 L10.06,1.01 " stroke-linecap="round" fill="none" stroke="#4dabf7" stroke-width="4.5" stroke-dasharray="none" stroke-dashoffset="0"/></g></g><g transform="matrix(1, 0, 0, 1, 1554.4627, 15119.8051)" opacity="1"><g transform="scale(1)"><path d="M0,0 Q4.5874,-0.4606 6.0631,-0.8138 T7.8834,-1.3593 7.9571,-1.656 7.3086,-1.8174 6.4976,-1.6772 5.3701,-1.1427 3.848,-0.4026 L3.02,0 " stroke-linecap="round" fill="none" stroke="#4dabf7" stroke-width="4.5" stroke-dasharray="none" stroke-dashoffset="0"/></g></g><g transform="matrix(1, 0, 0, 1, 1596.6983, 15264.6129)" opacity="1"><g transform="scale(1)"><path d="M0,0 Q0,4.5874 0,6.0631 T0.2303,8.8 0.7353,11.5655 L1.01,13.07 " stroke-linecap="round" fill="none" stroke="#e599f7" stroke-width="4.5" stroke-dasharray="none" stroke-dashoffset="0"/></g></g><g transform="matrix(1, 0, 0, 1, 1594.6871, 15263.6073)" opacity="1"><g transform="scale(1)"><path d="M-1.01,0 Q-3.2991,1.8331 -4.38,2.79 T-6.7505,4.8884 L-8.04,6.03 " stroke-linecap="round" fill="none" stroke="#e599f7" stroke-width="4.5" stroke-dasharray="none" stroke-dashoffset="0"/></g></g><g transform="matrix(1, 0, 0, 1, 1597.7039, 15178.1305)" opacity="1"><g transform="scale(1)"><path d="M0,0 Q-0.9166,1.8331 -1.3961,2.1037 T-1.9063,1.6027 -1.4953,0.4113 -0.5832,-0.2368 0.3713,-0.1288 1.1186,0.6185 1.0668,1.4833 0.35,1.9538 -0.0399,1.5211 -0.014,0.5359 L0,0 " stroke-linecap="round" fill="none" stroke="#e599f7" stroke-width="4.5" stroke-dasharray="none" stroke-dashoffset="0"/></g></g><g transform="matrix(1, 0, 0, 1, 1614.7993, 15155.0014)" opacity="1"><g transform="scale(1)"><path d="M0,0 Q0.4606,6.4205 0.5858,8.6251 T0.8606,13.4599 L1.01,16.09 " stroke-linecap="round" fill="none" stroke="#e599f7" stroke-width="4.5" stroke-dasharray="none" stroke-dashoffset="0"/></g></g><g transform="matrix(1, 0, 0, 1, 1628.8779, 15156.007)" opacity="1"><g transform="scale(1)"><path d="M0,0 Q1.3771,5.9599 2.1986,9.515 L3.02,13.07 " stroke-linecap="round" fill="none" stroke="#e599f7" stroke-width="4.5" stroke-dasharray="none" stroke-dashoffset="0"/></g></g><g transform="matrix(1, 0, 0, 1, 1634.9115, 15162.0407)" opacity="1"><g transform="scale(1)"><path d="M0,0 Q-3.2102,0 -5.1251,0 L-7.04,0 " stroke-linecap="round" fill="none" stroke="#e599f7" stroke-width="4.5" stroke-dasharray="none" stroke-dashoffset="0"/></g></g><g transform="matrix(1, 0, 0, 1, 1638.934, 15161.0351)" opacity="1"><g transform="scale(1)"><path d="M0,0 Q0.9166,1.8331 1.1659,2.1037 T1.5508,2.0633 1.7602,0.8944 1.8741,-1.1186 1.9361,-3.3605 1.9698,-5.7269 1.9881,-8.3891 1.9981,-10.7539 2.2338,-12.0403 2.8203,-12.2818 3.8256,-12.1852 5.0611,-12.1327 6.1915,-12.1041 7.495,-12.0886 9.1229,-12.0801 10.9251,-12.3035 12.5917,-12.653 13.9567,-13.0734 15.1597,-13.5324 16.2725,-14.0101 17.3361,-14.498 18.373,-14.9937 19.1651,-15.7239 19.596,-15.8908 20.0606,-15.2931 20.5437,-14.2816 20.8065,-13.0429 21.1775,-11.6804 21.7879,-9.9768 L22.12,-9.05 " stroke-linecap="round" fill="none" stroke="#e599f7" stroke-width="4.5" stroke-dasharray="none" stroke-dashoffset="0"/></g></g><g transform="matrix(1, 0, 0, 1, 1646.9788, 15158.0183)" opacity="1"><g transform="scale(1)"><path d="M0,0 Q2.7497,-0.9166 3.7279,-0.9379 T5.2382,-0.7405 5.8295,0.744 5.693,3.1567 5.1604,5.1555 4.6404,6.7011 4.1295,8.0025 3.6236,8.9407 3.5763,9.2208 4.2369,9.1429 5.2848,9.1006 6.7738,9.0775 8.5003,9.065 10.5841,9.0581 13.4959,9.0529 L15.08,9.05 " stroke-linecap="round" fill="none" stroke="#e599f7" stroke-width="4.5" stroke-dasharray="none" stroke-dashoffset="0"/></g></g><g transform="matrix(1, 0, 0, 1, 1672.1191, 15157.0127)" opacity="1"><g transform="scale(1)"><path d="M1.01,0 Q0.0889,2.2937 -0.1617,3.1456 T-0.5485,4.6911 0.6182,5.9902 3.0882,6.6969 5.3485,6.3951 7.7459,5.511 L9.05,5.03 " stroke-linecap="round" fill="none" stroke="#e599f7" stroke-width="4.5" stroke-dasharray="none" stroke-dashoffset="0"/></g></g><g transform="matrix(1, 0, 0, 1, 1673.1247, 15142.9341)" opacity="1"><g transform="scale(1)"><path d="M0,0 L-1.01,1.01 " stroke-linecap="round" fill="none" stroke="#e599f7" stroke-width="4.5" stroke-dasharray="none" stroke-dashoffset="0"/></g></g><g transform="matrix(1, 0, 0, 1, 1596.1551, 15182.3615)" opacity="1"><g transform="scale(1)"><path d="M0,0 Q-1.4866,2.3074 -1.973,3.0193 T-2.8882,4.3648 -3.6323,5.5095 -4.2012,6.4628 -4.6772,7.3097 -5.1026,8.101 -5.4981,8.862 -6.2081,10.1835 -7.089,11.8098 -7.7324,13.0229 -8.2466,13.929 -8.6928,14.6705 -9.1019,15.4044 -9.4066,16.132 -9.6544,16.7763 -9.9533,17.3754 -10.2801,17.9475 -10.54,18.4229 -10.7634,18.8479 -10.9671,19.2456 -11.1622,19.6261 -11.4348,19.9972 -11.6652,20.3633 -11.8726,20.7266 -12.1496,21.0907 -12.4644,21.5372 -12.7178,22.0264 -12.9399,22.5411 -13.1452,23.0695 -13.3389,23.6033 -13.5264,24.1399 -13.7104,24.5959 -13.8926,25.0105 -14.1559,25.4024 -14.4633,25.7798 -14.7126,26.1492 -14.9303,26.5144 -15.1331,26.8772 -15.3278,27.241 -15.5157,27.6874 -15.7822,28.1765 -16.0913,28.6911 -16.3415,29.2196 -16.5597,29.7533 -16.8425,30.3719 -17.0785,30.957 -17.2912,31.5238 -17.5734,32.0784 -17.809,32.5442 -18.0192,32.9618 -18.2977,33.3554 -18.5313,33.8181 -18.7405,34.316 -18.9363,34.751 -19.1272,35.1541 -19.3155,35.5398 -19.4999,35.9959 -19.6824,36.4903 -19.8637,36.9233 -20.1265,37.3254 -20.3515,37.7105 -20.556,38.0842 -20.7494,38.4516 -20.9366,38.8978 -21.1206,39.389 -21.305,39.8227 -21.5718,40.2227 -21.799,40.6045 -22.0046,40.9764 -22.2807,41.3451 -22.595,41.7121 -22.8481,42.076 -23.0701,42.438 -23.2753,42.7992 -23.4689,43.1598 -23.7385,43.5224 -23.9672,43.8861 -24.1737,44.2481 -24.4501,44.6092 -24.6826,44.9698 -24.8912,45.3301 -25.1711,45.6926 -25.4077,46.0562 -25.6185,46.4182 -25.8974,46.7792 -26.1311,47.1398 -26.3404,47.5024 -26.6184,47.8661 -26.9337,48.2281 -27.2718,48.5892 -27.6221,48.9498 -27.9768,49.3101 -28.2519,49.6726 -28.5657,50.0362 -28.9849,50.3982 -29.3794,50.7592 -29.7581,51.1198 -30.1283,51.4801 -30.4939,51.9247 -30.8569,52.415 -31.2208,52.8459 -31.5853,53.3289 -31.9477,53.8401 -32.309,54.2824 -32.7518,54.9357 -33.327,55.91 L-33.64,56.44 " stroke-linecap="round" fill="none" stroke="#e599f7" stroke-width="4.5" stroke-dasharray="none" stroke-dashoffset="0"/></g></g><g transform="matrix(1, 0, 0, 1, 1597.9639, 15180.5526)" opacity="1"><g transform="scale(1)"><path d="M0,0 Q0.1642,3.6298 0.2088,4.9477 T0.2778,7.3108 0.3153,9.3374 0.3357,11.2652 0.3468,13.0572 0.3528,15.929 0.3561,19.3882 0.3579,21.9312 0.3588,23.8915 0.3594,25.5347 0.4417,27.0054 0.5686,28.3003 0.6377,29.4173 0.6752,30.4377 0.6956,31.4876 0.7067,32.5534 0.7128,33.628 0.7161,34.6253 0.7179,35.5805 0.7188,36.5949 0.7194,37.6414 0.7197,38.7055 0.7198,39.6971 0.7199,40.5671 0.7199,41.371 0.72,42.1366 0.6379,42.7994 0.5112,43.4084 0.4422,44.0703 0.4047,44.7587 0.3843,45.4638 0.3732,46.2601 0.3672,47.1059 0.3639,47.8967 0.2801,48.6551 0.1523,49.3984 0.0829,50.1333 0.0451,50.8614 0.0245,51.5881 0.0133,52.314 0.0073,53.0395 0.0039,53.6827 0.0021,54.2788 0.0832,55.18 0.2625,56.4624 L0.36,57.16 " stroke-linecap="round" fill="none" stroke="#e599f7" stroke-width="4.5" stroke-dasharray="none" stroke-dashoffset="0"/></g></g></svg>