<svg xmlns="http://www.w3.org/2000/svg" direction="ltr" width="2615.4578587407473" height="6016.1414766160115" viewBox="36.99165702199514 5103.986485315639 2615.4578587407473 6016.1414766160115" stroke-linecap="round" stroke-linejoin="round" style="background-color: transparent;"><defs/><g transform="matrix(1, 0, 0, 1, 646.4955, 5135.9865) scale(3.7019475924508543, 3.7019475924508543)" opacity="1"><g transform="scale(0.2701280812400576)"><path d="M0,0 Q0,21.9743 -0.6863,30.9462 T-2.4908,46.934 -4.3121,60.4239 -6.1459,73.7154 -7.9876,86.882 -9.146,99.972 -10.561,113.7001 -12.1374,127.8278 -12.4426,142.2067 -11.9482,157.4319 -10.949,173.8758 -9.6323,191.0862 -8.1178,209.4651 -5.7924,228.579 -3.6434,248.1552 -1.6054,268.7104 1.0493,289.8813 3.4054,310.7514 5.5756,331.4323 7.6289,352.6805 8.9204,373.5991 9.7327,394.3105 10.2437,415.5779 11.2514,437.8832 12.5717,460.8414 13.4021,483.5219 13.9244,506.7143 14.253,530.2304 14.4596,553.9501 14.5896,578.4825 14.6714,603.5278 14.7228,628.8957 14.7552,653.7784 14.7755,677.6695 14.102,700.9388 12.9919,724.5033 12.2937,748.938 11.8546,773.2337 11.5783,797.4438 10.7164,822.2864 9.486,846.8387 8.7121,871.8965 8.2253,897.2723 7.9191,922.16 7.7265,947.4288 7.6054,972.251 6.8428,996.7904 5.6768,1021.8402 4.9434,1046.5246 4.4821,1070.291 4.192,1094.1663 4.0094,1118.112 3.8946,1142.102 3.8224,1166.1179 3.777,1189.4639 3.7484,1212.3884 3.7305,1235.736 3.7192,1259.3498 3.7121,1282.4428 3.7076,1305.2082 3.7048,1327.7675 3.703,1350.1991 3.7019,1372.5503 3.7012,1394.8492 3.7007,1417.115 3.7005,1439.3602 3.7003,1461.5923 3.7002,1483.818 3.7001,1506.7262 3.7001,1529.3753 3.7,1551.1751 3.7,1573.1272 3.7,1595.1749 3.7,1617.2847 3.0137,1640.1198 1.8956,1663.4094 1.1923,1685.6121 0.75,1707.1312 0.4717,1728.9066 0.2967,1750.8451 -0.4997,1772.1998 -1.687,1793.1855 -2.4338,1813.9391 -2.9036,1834.5466 -3.1991,1855.0623 -3.3849,1874.8339 -3.5018,1894.1374 -3.5753,1912.4602 -3.6216,1930.1661 -3.6507,1947.4821 -3.669,1963.8666 -3.6805,1979.6669 -3.6877,1995.0998 -3.6923,2010.3016 -3.6951,2026.0425 -3.6969,2042.1226 -3.6981,2057.7315 -3.6988,2073.0439 -3.6992,2088.17 -3.6995,2102.4906 -3.6997,2116.3046 -3.6998,2129.8017 -3.6999,2142.4114 -3.6999,2154.4628 -3.7,2165.4767 -4.3863,2175.1499 -6.2363,2187.4888 L-7.4,2195.25 " stroke-linecap="round" fill="none" stroke="#9398b0" stroke-width="16.658764166028845" stroke-dasharray="none" stroke-dashoffset="0"/></g></g><g transform="matrix(1, 0, 0, 1, 98.6072, 6724.122) scale(3.7019475924508543, 3.7019475924508543)" opacity="1"><g transform="scale(0.2701280812400576)"><path d="M0,0 Q10.989,0 15.8178,0 T24.3701,-0.6863 31.8105,-1.8044 39.2377,-2.5077 47.3431,-2.95 56.5613,-3.2283 66.4795,-3.4033 76.838,-3.5134 87.4735,-2.8963 98.9713,-1.8217 111.6961,-1.1459 125.1927,-0.0344 139.1765,1.3511 153.4669,2.9089 167.95,4.5751 182.5526,5.6231 197.2302,6.2823 211.957,7.3852 226.7146,8.7671 242.178,9.6363 258.0835,10.1831 273.5808,10.527 289.5094,10.7433 306.3957,10.8793 323.8844,11.6513 341.752,12.8231 359.8579,13.5603 377.4274,14.0239 394.6594,14.3156 411.6793,14.499 428.5656,14.6144 445.3661,14.687 462.1126,14.7326 478.8271,14.7613 495.5213,14.093 512.8892,12.9863 530.6808,11.602 547.3662,10.0431 564.7286,8.3761 583.8894,5.9549 602.1224,3.7457 619.7718,1.6697 637.7405,-1.0088 655.9101,-4.0682 674.2059,-7.367 692.5812,-10.8147 711.0065,-13.6697 728.0886,-15.4654 747.0732,-17.2813 769.3153,-19.7962 790.8592,-22.0644 811.9638,-24.1793 833.4785,-26.1978 854.5649,-27.4675 876.0699,-28.9524 897.8384,-30.5728 919.0843,-31.592 941.3742,-32.2331 963.6345,-32.6363 985.1898,-32.89 1007.6762,-32.3632 1030.0619,-31.3454 1051.6961,-30.7053 1073.5439,-29.6145 1095.526,-28.2401 1116.9064,-26.6893 1137.9082,-25.0275 1157.2992,-23.2958 1177.0497,-20.8339 1198.399,-18.5991 1218.6949,-16.507 1239.0165,-14.5047 1259.3541,-12.5571 1279.0138,-10.6438 1298.9332,-8.754 1319.0161,-6.879 1338.5155,-5.0132 1356.2732,-3.1533 1374.9964,-1.2971 1395.7014,0.5568 1415.592,2.4093 1434.9705,4.2608 1454.0267,6.1137 1472.8803,7.9673 1491.6064,9.1333 1510.2523,9.8666 1528.8479,10.3279 1545.3507,10.6181 1561.91,10.8006 1580.5658,10.9154 1599.1674,10.2994 1617.7351,9.2237 1636.2813,8.5471 1654.8141,8.1215 1672.6521,7.8538 1690.0531,7.6855 1707.8655,6.8932 1723.8758,5.7085 1740.1272,4.9634 1758.591,4.4947 1777.072,4.1998 1795.5638,4.0144 1813.3741,3.8978 1830.7558,4.5107 1847.8697,5.5827 1864.8152,6.2569 1881.6548,6.681 1897.0533,6.9477 1912.9197,7.8037 1929.7669,9.0304 1946.5428,9.8019 1963.2757,10.2872 1979.2952,10.5925 1995.5524,10.7845 2011.2726,10.9052 2026.6533,11.6676 2042.5068,12.8334 2056.6004,13.5667 2070.2735,14.028 2085.0528,15.0045 2099.8417,16.305 2113.952,17.1231 2127.6356,17.6376 2141.0489,17.9613 2153.6058,18.1648 2165.624,18.2929 2177.3035,18.3734 2188.0834,18.4241 2198.2977,18.456 2208.156,18.476 2217.1041,18.4886 2226.1661,17.8102 2239.0046,15.9685 L2247.08,14.81 " stroke-linecap="round" fill="none" stroke="#9398b0" stroke-width="16.658764166028845" stroke-dasharray="none" stroke-dashoffset="0"/></g></g><g transform="matrix(1, 0, 0, 1, 650.1974, 5928.2033) scale(3.7019475924508543, 3.7019475924508543)" opacity="1"><g transform="scale(0.2701280812400576)"><path d="M0,0 Q12.3617,0 18.3085,0 T28.6841,0 37.2712,0 44.7316,0 51.485,0 57.7939,0 63.8212,0 69.6714,0 75.4121,0 81.0839,0 86.7105,0 92.3087,0 97.8909,0 104.1493,0 110.8331,0 118.4709,0 126.0204,0 132.83,0 139.1741,0 145.2236,0 151.0896,0 156.8403,0 163.2028,0 169.9521,0 176.2583,-0.6863 182.284,-1.8044 188.8214,-2.5077 194.9943,-2.95 200.9361,-3.2283 206.7326,-4.0896 212.4395,-5.3178 218.09,-6.0903 223.0169,-6.5762 228.1768,-6.8818 234.1696,-7.0741 239.9982,-7.195 245.7252,-7.271 252.7612,-7.3189 259.9322,-7.349 266.5036,-7.3679 272.698,-7.3798 279.3415,-7.3873 286.9539,-7.392 295.1756,-7.395 303.0944,-7.3968 310.1343,-7.398 316.6215,-7.3987 322.0765,-7.3992 327.5686,-7.3995 333.7685,-7.3997 340.4155,-7.3998 347.3438,-7.3999 354.447,-7.3999 360.9759,-7.4 367.1434,-7.4 373.0819,-7.4 378.878,-7.4 384.5848,-7.4 390.2333,-7.4 396.5335,-7.4 403.2436,-7.4 410.2096,-7.4 417.3385,-7.4 424.5699,-7.4 431.8656,-7.4 439.2019,-8.0882 446.5619,-9.2093 453.9385,-9.9145 460.6393,-10.358 466.9132,-10.637 472.9203,-10.8125 478.7598,-10.9229 485.8645,-10.9923 493.0806,-11.036 499.6805,-10.3752 505.8908,-9.2714 512.5444,-8.5771 520.1631,-8.1404 527.0143,-7.8657 533.3846,-7.6929 539.4525,-7.5843 544.6419,-7.5159 549.9669,-6.7865 556.7499,-5.6414 564.45,-4.9212 571.3543,-4.4681 578.4425,-4.1831 589.2267,-3.8866 L596.01,-3.7 " stroke-linecap="round" fill="none" stroke="#f76707" stroke-width="16.658764166028845" stroke-dasharray="none" stroke-dashoffset="0"/></g></g><g transform="matrix(1, 0, 0, 1, 1279.5285, 5954.1169) scale(3.7019475924508543, 3.7019475924508543)" opacity="1"><g transform="scale(0.2701280812400576)"><path d="M-7.1336,-2.7473 Q-10.5672,-5.4945 -14.1015,-9.2816 T-19.8589,-17.5116 -24.1666,-26.1219 -27.5625,-33.5987 -29.0122,-39.6762 -27.8631,-44.1852 -24.3931,-47.7078 -20.1514,-50.6098 -16.1089,-52.4352 -11.5052,-52.897 -6.5504,-52.5012 -0.6866,-51.5658 5.0626,-49.6029 10.0516,-46.9937 15.2487,-43.9798 19.8923,-40.7114 24.1876,-37.2828 27.5757,-33.0654 29.0205,-27.6653 27.182,-21.5214 23.2783,-15.596 18.0757,-9.8099 12.056,-4.7977 4.8359,-0.9587 -7.2242,4.1725 -9.255,3.7 -7.1336,-2.7473 Z" stroke-linecap="round" fill="none" stroke="#f2f2f2" stroke-width="16.658764166028845" stroke-dasharray="none" stroke-dashoffset="0"/></g></g><g transform="matrix(1, 0, 0, 1, 1286.9324, 6698.2084) scale(3.7019475924508543, 3.7019475924508543)" opacity="1"><g transform="scale(0.2701280812400576)"><path d="M0,0 Q5.4945,-8.2399 7.9089,-12.2059 T12.5282,-20.0392 16.8065,-26.3391 20.1839,-30.9881 22.9965,-35.285 25.4538,-39.3623 27.6858,-43.3014 30.4625,-47.8382 33.5817,-52.7509 36.9163,-57.9019 40.3884,-62.5164 43.2605,-66.1053 46.4398,-70.4218 50.4986,-75.1959 53.738,-79.5734 56.4619,-83.7013 58.8615,-87.6705 61.7455,-92.2262 65.6204,-97.1527 69.4304,-101.6259 73.1996,-105.8123 76.9432,-109.8183 80.6724,-114.3989 84.3926,-120.0274 88.7917,-125.6267 93.6178,-131.2096 98.0279,-136.7822 102.1765,-141.66 106.1586,-146.1009 110.0361,-150.2669 113.8477,-154.9482 117.6198,-160.64 121.367,-166.9674 125.0966,-172.3219 128.129,-176.3762 130.7226,-180.2991 133.7268,-184.1393 136.9909,-187.9275 140.4186,-192.3711 143.9473,-197.2271 147.5396,-202.3406 151.1718,-207.616 154.8311,-212.3088 157.8209,-216.6351 161.0743,-220.729 165.1796,-225.3632 169.8228,-231.0253 174.8043,-237.3341 179.9967,-244.0495 185.3218,-250.3344 189.3576,-255.6603 192.5843,-260.383 195.9885,-264.7263 199.5024,-269.5192 203.7717,-274.5947 208.5162,-279.8463 213.5613,-285.8969 218.7957,-292.4499 224.1471,-299.319 229.574,-306.3869 234.3622,-313.578 238.7466,-320.1622 242.8771,-325.6781 246.8479,-329.834 250.72,-333.8208 254.5302,-339.0757 258.2995,-343.7556 262.0431,-348.072 265.7705,-352.846 269.4896,-357.2216 273.2034,-362.0347 276.9122,-367.1231 280.6177,-372.3827 284.3211,-377.7501 288.0251,-382.5007 291.7295,-386.8634 295.4323,-390.9802 298.4477,-394.9424 301.717,-399.4956 305.8344,-404.4204 309.7987,-408.8908 313.665,-413.0754 317.4696,-417.0802 321.2354,-421.6601 324.9787,-427.2881 328.7077,-432.8872 332.426,-437.7836 335.4511,-442.238 338.0403,-446.4125 341.0416,-451.0973 344.3039,-456.1049 348.4169,-461.3157 353.0629,-467.3386 358.0444,-473.8743 363.925,-480.0461 368.9984,-485.3009 372.8759,-489.9789 376.6876,-494.9822 380.4579,-500.1902 384.8903,-506.2115 389.7391,-512.7461 394.1618,-518.2309 398.3163,-523.0536 402.3041,-527.4597 405.5006,-531.6039 408.1975,-536.2715 411.2666,-541.9547 414.5698,-547.5884 418.0202,-552.5066 421.565,-557.6611 425.1693,-562.2759 428.1227,-566.5513 430.6668,-570.6133 432.9533,-573.8565 435.0779,-577.271 437.1006,-580.7914 439.0593,-585.0648 441.6658,-590.5 445.5174,-598.4313 L447.94,-603.42 " stroke-linecap="round" fill="none" stroke="#f76707" stroke-width="16.658764166028845" stroke-dasharray="none" stroke-dashoffset="0"/></g></g><g transform="matrix(1, 0, 0, 1, 1742.272, 6109.5987) scale(3.7019475924508543, 3.7019475924508543)" opacity="1"><g transform="scale(0.2701280812400576)"><path d="M-7.1336,-4.12 Q-10.5672,-8.2399 -12.7269,-12.8923 T-16.2452,-21.8437 -17.7718,-30.9077 -16.673,-38.6699 -13.9209,-44.2386 -9.4426,-48.4277 -3.1921,-51.0627 3.4867,-52.72 9.7467,-53.0762 15.0569,-51.2393 19.7716,-48.023 23.4254,-43.9409 25.7236,-39.3142 27.8555,-33.6567 29.8828,-25.9764 30.4717,-17.7119 28.7811,-10.4544 24.9706,-5.2031 20.5146,-1.9001 15.651,-0.5088 8.3146,-0.1965 0,0 -7.1336,-4.12 Z" stroke-linecap="round" fill="none" stroke="#f2f2f2" stroke-width="16.658764166028845" stroke-dasharray="none" stroke-dashoffset="0"/></g></g><g transform="matrix(1, 0, 0, 1, 1775.5895, 6713.0162) scale(3.7019475924508543, 3.7019475924508543)" opacity="1"><g transform="scale(0.2701280812400576)"><path d="M0,0 Q8.2399,1.3727 11.5177,1.8044 T18.2318,3.194 25.2022,4.7544 31.6457,5.7359 37.7595,6.3533 45.0387,6.0553 52.3646,5.1815 59.0335,4.6318 65.9736,3.5998 73.0862,2.2643 80.3073,1.4242 87.5947,0.2095 94.9258,-1.2409 100.9116,-2.8396 106.0493,-4.5315 111.34,-6.2839 116.7288,-8.0744 122.1792,-9.887 127.6666,-11.7134 133.8654,-13.5486 139.8254,-16.0756 145.6332,-19.0378 152.72,-22.2756 161.2994,-26.3731 169.4431,-31.0094 176.6245,-35.2984 183.2006,-39.3707 189.398,-43.3068 195.357,-47.1552 201.1642,-50.9486 206.1897,-54.7074 211.4117,-59.1325 218.1298,-64.6632 224.4146,-70.201 230.4287,-75.7452 236.2724,-81.2935 242.0072,-86.8423 247.6753,-93.0798 253.3014,-99.0641 258.8993,-104.8873 263.793,-110.6091 268.2458,-115.5827 273.7938,-120.772 280.0289,-126.7815 286.0117,-133.3087 291.8358,-140.1615 297.5581,-146.531 303.2184,-151.912 308.8397,-158.0439 314.4345,-165.3345 320.0145,-172.6675 324.8989,-180.0253 330.0302,-188.087 336.0033,-197.2778 341.8212,-206.4924 347.5416,-215.722 353.1987,-224.961 358.1298,-233.5196 362.606,-243.0229 368.1688,-253.8087 373.7268,-264.7128 378.5955,-274.317 384.4052,-284.4779 390.8067,-296.3637 396.206,-307.2734 400.2885,-316.8829 404.2309,-327.0491 408.7716,-337.5636 413.0004,-347.6089 417.033,-357.3611 420.9441,-366.9288 424.7787,-376.3804 428.5634,-386.4474 432.3167,-396.8994 436.0502,-407.5937 439.7731,-418.4404 443.4894,-428.0102 447.1996,-437.4632 450.906,-448.9018 454.6101,-460.2166 459.0008,-470.7673 463.1372,-481.5236 466.4253,-492.4092 469.8662,-502.6899 473.4032,-512.5901 476.3144,-522.9391 478.8337,-532.8822 481.7929,-543.2564 485.027,-554.5899 487.7475,-565.8387 490.1451,-577.0341 493.0259,-588.196 496.2106,-600.7094 499.5883,-616.134 502.4011,-630.6442 504.1704,-642.5183 505.9696,-653.4208 507.7876,-665.0847 509.6175,-675.855 511.4549,-684.6903 513.297,-693.6814 515.142,-703.4567 516.3025,-713.039 517.7188,-723.1862 519.296,-733.6888 520.9762,-743.0421 523.4077,-751.6727 525.6234,-759.1622 527.7035,-765.2458 529.6982,-771.1314 530.9528,-776.8925 532.4284,-782.5772 534.0428,-788.9 535.0583,-795.6244 536.3834,-801.2286 537.9032,-806.1263 539.485,-813.4951 L540.48,-818.13 " stroke-linecap="round" fill="none" stroke="#f76707" stroke-width="16.658764166028845" stroke-dasharray="none" stroke-dashoffset="0"/></g></g><g transform="matrix(1, 0, 0, 1, 2319.7758, 5894.8857) scale(3.7019475924508543, 3.7019475924508543)" opacity="1"><g transform="scale(0.2701280812400576)"><path d="M0,0 Q-8.2399,4.1218 -12.2059,6.1045 T-19.3529,9.3342 -23.1601,10.6794 -23.494,10.1509 -21.6449,8.444 -18.4228,5.9976 -15.0216,3.0862 -11.5076,-0.1179 -7.9246,-2.8195 -2.9237,-5.2071 2.9692,-6.0225 8.0485,-4.4745 12.616,-0.7536 16.8618,5.0205 20.9069,11.3978 25.5121,19.5291 32.5765,32.5376 L37.02,40.72 " stroke-linecap="round" fill="none" stroke="#f76707" stroke-width="16.658764166028845" stroke-dasharray="none" stroke-dashoffset="0"/></g></g><g transform="matrix(1, 0, 0, 1, 1779.2914, 6720.4201) scale(3.7019475924508543, 3.7019475924508543)" opacity="1"><g transform="scale(0.2701280812400576)"><path d="M0,0 Q-1.3727,6.8672 -3.8653,9.7133 T-9.2985,14.3496 -15.4632,16.5794 -22.0881,15.2348 -27.6278,10.9554 -30.426,5.5182 -30.8133,0.0374 -29.6824,-4.7847 -26.2238,-9.1904 -19.9284,-12.648 -13.2213,-14.8228 -6.9435,-14.818 -0.9339,-11.3815 2.1599,-5.7862 2.0449,-0.2059 -0.0865,3.9923 -5.547,6.633 -13.1036,7.6057 -19.9175,6.8431 -25.5762,4.3043 -29.8218,0.6483 -31.806,-3.0258 -31.6813,-6.7114 -28.8557,-10.4023 -23.6447,-13.4103 -17.6198,-15.3023 -11.7692,-15.806 -7.4028,-14.7501 -5.3427,-11.3387 -5.4196,-7.1321 -8.2152,-3.7997 -13.4073,-1.7037 -18.0458,-3.1325 -20.9634,-7.4649 -22.1123,-11.5626 -21.4622,-14.8264 -18.9942,-17.5657 -14.6946,-19.2888 -9.9293,-19.6862 -5.5592,-18.5635 -1.4377,-15.7964 1.8411,-11.3086 4.5917,-5.7404 6.3218,1.1956 5.3491,8.3056 1.9919,13.4641 -2.8671,16.0225 -7.9842,14.8845 -11.8893,10.0487 -14.3456,4.2616 -15.2042,-0.7531 -14.3716,-5.2818 -11.787,-8.8168 -7.414,-11.0403 -2.6044,-11.7525 2.4818,-8.7669 7.7419,-1.3944 11.7369,7.3628 13.5634,14.932 12.6513,21.0676 9.3304,25.6133 3.8079,27.7861 -1.7266,27.7783 -7.2669,25.7124 -16.4401,21.2911 L-22.21,18.51 " stroke-linecap="round" fill="none" stroke="#f76707" stroke-width="16.658764166028845" stroke-dasharray="none" stroke-dashoffset="0"/></g></g><g transform="matrix(1, 0, 0, 1, 639.0916, 7514.4878) scale(3.7019475924508543, 3.7019475924508543)" opacity="1"><g transform="scale(0.2701280812400576)"><path d="M0,0 Q0,10.989 0,16.5041 T0,26.8628 0,36.1256 0,45.3855 0,54.6436 0,63.8987 0,73.1538 0,82.4088 0,92.3502 0,102.7252 0,113.3709 0,124.1871 0,135.1104 0,146.1011 0,157.1361 0,168.1971 0,179.9607 0.6864,192.1663 1.8044,203.9636 2.5077,215.506 2.95,226.886 3.2283,238.164 3.4033,250.0661 3.5134,262.3588 3.5826,274.2108 3.6262,286.4739 3.6536,298.9937 3.6708,310.9886 3.6816,323.3416 3.6884,335.9179 3.0064,347.9483 1.891,359.6355 1.1894,370.4203 0.7482,380.6375 -0.2158,391.1841 -1.5084,401.9379 -2.3215,412.8219 -2.8329,424.4762 -3.1546,436.613 -3.3569,447.6807 -3.4842,458.0758 -3.5643,468.7344 -3.6146,479.5585 -3.6463,490.4869 -3.6662,501.4826 -3.6788,512.5189 -3.6866,523.5807 -3.6916,534.6585 -3.6947,545.7464 -3.6967,557.5288 -3.6979,569.7463 -3.6987,581.551 -3.6992,593.098 -3.6995,604.481 -3.6997,615.7609 -3.6998,626.9759 -4.3862,638.1501 -5.5043,649.9868 -6.2076,662.2384 -6.65,674.0646 -6.9282,685.6233 -7.1033,697.7 -7.2134,710.1044 -7.2826,722.7149 -7.3262,735.4532 -7.3536,747.5856 -7.3708,760.0231 -7.3816,772.6527 -7.3884,784.7185 -7.3927,796.4278 -7.3954,807.9129 -7.3971,819.257 -8.0864,830.5124 -9.2082,841.7139 -9.9137,852.8795 -10.3576,864.0227 -10.6367,875.1517 -10.8123,886.2718 -10.9227,897.3863 -10.9922,908.4973 -11.0359,919.6079 -11.0634,930.7164 -11.0807,941.8236 -11.0916,952.2437 -11.0984,962.9178 -10.4145,973.7518 -9.2961,984 -7.9063,994.568 -6.3458,1004.6488 -4.6778,1014.4232 -2.9424,1024.6913 -1.1644,1035.2699 0.6403,1046.0438 1.7754,1056.9405 3.1758,1067.9145 4.743,1078.2507 5.7287,1087.4995 7.037,1097.4369 9.2344,1108.4957 11.303,1119.5717 12.6041,1130.6584 14.1088,1141.7519 15.7417,1152.8496 16.7687,1163.2637 18.1011,1173.2478 19.6255,1183.6478 20.5843,1192.9366 21.1875,1202.2128 21.5668,1212.8539 21.8054,1223.669 21.9555,1234.5916 22.0499,1245.5819 22.1093,1256.6147 22.1467,1267.6743 21.4838,1278.7526 20.3805,1289.8409 19.6866,1300.9353 19.2501,1312.0336 18.9755,1323.1345 18.1164,1334.2368 16.8898,1346.0265 16.1182,1358.2504 15.6328,1370.0592 14.6412,1382.2932 13.3311,1394.7966 12.5071,1406.7811 11.9888,1418.4394 11.6627,1429.8942 11.4577,1441.2193 11.3287,1452.4627 11.2476,1463.6548 11.1965,1474.8145 11.1644,1485.2676 10.456,1495.2762 9.3222,1505.0053 8.6091,1514.5584 8.1605,1524.0009 7.8784,1532.6876 7.7009,1540.8987 7.5893,1548.8089 7.519,1556.5317 7.4749,1564.1366 6.7607,1571.6673 5.6252,1579.8377 4.911,1588.4105 4.4617,1596.5501 4.1791,1604.4152 4.0014,1612.1097 3.2032,1619.6968 2.0148,1627.2144 1.2673,1634.0039 0.7971,1640.3354 0.5014,1647.0634 -0.371,1653.3561 -1.606,1659.3752 -3.0692,1665.9066 -4.676,1672.7621 -6.3748,1680.5078 -8.1315,1688.8134 -9.9229,1696.785 -11.736,1703.8581 -12.8765,1710.368 -13.5938,1716.5236 -12.6705,1720.3955 -9.4351,1723.2896 L-7.4,1725.11 " stroke-linecap="round" fill="none" stroke="#9398b0" stroke-width="16.658764166028845" stroke-dasharray="none" stroke-dashoffset="0"/></g></g><g transform="matrix(1, 0, 0, 1, 68.9917, 8799.0636) scale(3.7019475924508543, 3.7019475924508543)" opacity="1"><g transform="scale(0.2701280812400576)"><path d="M0,0 Q9.6126,0 14.0103,0 T21.8606,0 28.1711,0 34.2013,0 40.7415,0 46.9144,0 53.5444,0 60.4619,0 66.8721,0 73.6513,0 79.9764,0 86.0139,0 92.5587,0 98.7364,0 103.9948,0 109.3614,0 115.4842,-0.6863 121.3964,-1.8044 127.1742,-2.5077 132.8693,-2.95 138.5125,-3.2283 144.1211,-3.4033 149.7098,-3.5134 155.9724,-3.5826 161.9706,-3.6262 167.1161,-3.6536 172.4136,-3.6708 177.8066,-3.6816 183.2578,-3.6884 189.4339,-3.6927 196.7523,-3.6954 204.7892,-3.6971 213.9643,-3.6982 223.8554,-3.6989 232.8242,-3.6993 241.2128,-3.6995 249.2365,-3.6997 256.3424,-4.3862 263.5593,-5.5043 272.2187,-6.2076 280.4127,-6.65 288.314,-6.9282 296.0293,-7.1033 302.9432,-7.2134 309.3529,-7.2826 315.4436,-7.3262 321.3356,-7.3536 327.1026,-7.3708 332.7891,-7.3816 338.4267,-7.3884 344.0338,-7.3927 350.9923,-7.3954 360.1756,-7.3971 370.0736,-7.3982 380.4195,-7.3989 389.6724,-7.3993 396.8671,-7.3995 403.4534,-7.3997 410.3416,-7.3998 418.1079,-7.3999 426.4265,-7.3999 434.4062,-7.4 441.4863,-7.4 447.9987,-7.4 454.1559,-7.4 460.0897,-7.4 466.5675,-7.4 474.0756,-7.4 482.9182,-7.4 491.9137,-7.4 500.3192,-7.4 509.0399,-7.4 517.2724,-7.4 525.1979,-7.4 534.303,-7.4 542.7755,-7.4 550.1657,-7.4 557.5613,-7.4 565.6468,-7.4 574.1661,-7.4 582.2721,-7.4 590.1179,-7.4 597.7984,-7.4 605.3767,-7.4 612.2043,-7.4 618.5579,-7.4 625.3016,-7.4 632.977,-7.4 642.6111,-7.4 652.791,-7.4 661.9413,-7.4 670.4441,-7.4 677.8515,-7.4 685.9443,-7.4 694.4683,-7.4 701.8908,-7.4 710.6813,-7.4 720.3305,-7.4 729.1453,-7.4 737.437,-7.4 745.3998,-7.4 754.5283,-7.4 764.3901,-7.4 773.3405,-7.4 781.7175,-7.4 790.4202,-7.4 799.3278,-7.4 807.6761,-7.4 815.6745,-7.4 824.8272,-7.4 835.3906,-7.4 844.7804,-7.4 854.1202,-7.4 864.1167,-7.4 873.1518,-7.4 881.5802,-7.4 889.629,-7.4 897.4389,-7.4 905.0968,-7.4 914.0335,-7.4 923.7765,-7.4 931.9658,-8.0882 939.1759,-9.2093 946.4583,-9.9145 953.7862,-10.358 960.4545,-10.637 966.7097,-10.8125 973.3915,-10.9229 981.028,-10.9923 989.2649,-11.036 996.505,-11.7498 1003.8063,-12.8851 1012.5188,-13.5993 1022.1188,-14.0484 1031.5909,-14.331 1040.2961,-14.5087 1047.8325,-14.6205 1054.632,-14.6908 1062.3425,-15.4214 1071.3124,-16.5673 1080.388,-17.288 1089.5302,-17.7414 1098.7142,-18.0265 1108.6128,-18.2059 1118.9589,-18.3187 1128.2121,-18.3897 1136.7796,-18.4343 1144.9157,-18.4624 1152.7807,-18.4801 1160.475,-18.4912 1168.0601,-18.4982 1175.5784,-18.5025 1183.0546,-18.5053 1191.1908,-18.5071 1199.742,-18.5081 1207.8662,-18.5088 1216.4099,-18.5093 1224.5311,-18.5095 1231.7003,-18.5097 1238.9569,-18.5098 1246.2668,-18.5099 1253.6119,-18.5099 1260.9793,-18.51 1268.3606,-17.8236 1275.7507,-16.7056 1283.1445,-16.0023 1291.2288,-15.56 1301.1219,-15.2817 1312.151,-15.1067 1321.8356,-14.9966 1329.9881,-14.241 1338.5478,-13.0794 1347.3654,-12.3488 1356.3453,-11.8892 1365.4273,-10.9119 1373.8871,-9.609 1381.2674,-8.7895 1387.9705,-8.274 1394.934,-7.9497 1402.7476,-7.7458 1411.096,-7.6175 1419.0944,-6.8505 1426.8726,-5.6816 1435.1987,-4.9464 1444.5558,-4.484 1453.875,-4.1931 1462.4841,-4.0102 1470.6446,-3.8951 1478.5248,-3.8227 1486.2287,-3.0908 1493.8198,-1.9441 1501.3419,-1.2229 1508.8206,-0.7692 1516.9582,-0.4838 1525.5104,-0.3043 1533.637,-0.1914 1541.4959,-0.1204 1549.1845,-0.0757 1556.768,-0.0476 1564.9715,-0.03 1574.2515,0.6675 1582.8359,1.7926 1590.2964,2.5002 1597.7363,2.9453 1605.1614,3.2253 1612.579,3.4014 1619.992,3.5122 1627.4001,3.5819 1634.8071,4.312 1642.2133,5.4577 1649.6191,6.1783 1657.0246,6.6315 1664.4281,6.9166 1672.5184,7.096 1681.0409,7.2088 1689.1488,6.5934 1696.9959,5.5199 1704.679,4.8447 1712.2589,4.42 1719.772,4.1529 1728.6178,3.9849 1738.3036,3.8792 1747.1432,3.8127 1755.4487,3.7709 1764.1065,3.7446 1772.9858,3.728 1781.3182,3.7176 1789.3065,3.7111 1797.0765,3.707 1805.3975,3.7044 1814.065,3.7028 1822.9504,3.7017 1831.973,3.7011 1840.3954,3.7007 1849.1268,3.7004 1858.7387,3.7003 1868.2182,3.7002 1877.6145,3.7001 1887.6447,3.7001 1897.3872,3.7 1906.2626,3.7 1914.5924,3.7 1922.5792,3.7 1930.3482,3.0137 1937.2958,1.8956 1944.4132,1.1923 1951.6354,0.75 1956.1781,-0.901 1959.7704,-4.8906 L1962.03,-7.4 " stroke-linecap="round" fill="none" stroke="#9398b0" stroke-width="16.658764166028845" stroke-dasharray="none" stroke-dashoffset="0"/></g></g><g transform="matrix(1, 0, 0, 1, 1675.6369, 5589.4751) scale(3.7019475924508543, 3.7019475924508543)" opacity="1"><g transform="scale(0.2701280812400576)"><path d="M0,0 Q-2.7454,-12.3617 -4.297,-16.2495 T-7.511,-23.9553 -10.9053,-30.8614 -15.0993,-35.8916 -19.7983,-38.3693 -24.1285,-38.5551 -28.9112,-34.5519 -33.2923,-27.2277 -36.048,-19.8735 -38.4676,-11.8141 -40.676,-1.9384 -42.065,10.4543 -42.2524,25.1165 -40.9975,39.1471 -38.8355,50.7197 -36.1029,60.7442 -33.0095,70.4833 -30.3756,80.7291 -29.4071,90.6073 -30.1724,98.8816 -32.7129,106.1452 -36.3699,112.0867 -41.4174,116.5121 -48.0259,119.9839 -56.9889,122.854 -68.8075,124.6593 -79.675,124.4202 -87.8834,122.8953 -95.1074,120.5635 -101.7121,116.3495 -106.5529,110.2653 -111.591,101.6617 L-114.76,96.25 " stroke-linecap="round" fill="none" stroke="#f76707" stroke-width="16.658764166028845" stroke-dasharray="none" stroke-dashoffset="0"/></g></g><g transform="matrix(1, 0, 0, 1, 1657.1272, 5652.4082) scale(3.7019475924508543, 3.7019475924508543)" opacity="1"><g transform="scale(0.2701280812400576)"><path d="M0,0 Q-9.6126,0 -15.383,-0.6863 T-30.2776,-3.179 -54.8708,-8.0476 L-70.34,-11.11 " stroke-linecap="round" fill="none" stroke="#f76707" stroke-width="16.658764166028845" stroke-dasharray="none" stroke-dashoffset="0"/></g></g><g transform="matrix(1, 0, 0, 1, 1298.0383, 6677.8477) scale(3.7019475924508543, 3.7019475924508543)" opacity="1"><g transform="scale(0.2701280812400576)"><path d="M0,0 Q-4.1218,6.8672 -7.4772,9.0269 T-15.004,10.4843 -21.7992,7.9673 -26.0734,4.3251 -28.7619,-0.0268 -29.0784,-4.825 -27.2166,-8.5294 -23.3001,-10.8595 -18.0894,-11.6388 -13.4373,-10.7544 -9.1384,-8.1372 -5.0617,-4.432 -1.8111,-0.0405 -0.4528,4.7827 -1.6575,9.1892 -6.5352,12.6472 -16.1576,16.2462 L-22.21,18.51 " stroke-linecap="round" fill="none" stroke="#f76707" stroke-width="16.658764166028845" stroke-dasharray="none" stroke-dashoffset="0"/></g></g><g transform="matrix(1, 0, 0, 1, 1290.6344, 6677.8477) scale(3.7019475924508543, 3.7019475924508543)" opacity="1"><g transform="scale(0.2701280812400576)"><path d="M-3.7,0 Q-3.7,8.2399 -5.0746,11.5177 T-8.0001,16.8573 -11.2129,19.5295 -15.2928,19.1512 -19.2318,16.8543 -21.7094,12.6623 -23.2678,6.5919 -23.5617,0.7127 -20.313,-4.3599 -14.1496,-8.2369 -7.5274,-9.9892 -0.6148,-8.3441 5.1078,-4.5621 8.7073,-0.1223 10.2851,4.7312 9.2166,9.1568 5.7972,13.3132 0.8992,17.3003 -5.6153,20.4945 -13.8328,22.5036 -21.7489,23.7674 -26.7281,23.876 -27.1128,22.5715 -24.6075,20.3784 -20.9726,17.6261 -15.2527,14.5205 -8.9076,11.8788 -3.5438,10.9053 0.5163,12.354 2.3838,16.0106 0.1249,20.3715 -6.1023,23.8027 -12.7646,25.9609 -18.3298,26.6302 -22.5184,24.304 -23.7786,20.0954 -20.4494,16.7618 -14.2354,14.665 -8.2677,14.0324 -3.1413,15.0073 1.4577,17.6795 4.3505,21.4212 4.1092,24.463 1.212,26.3762 -4.7303,26.2051 -11.9016,23.3502 -17.7869,19.4955 -22.8634,15.6962 -26.7428,11.932 -27.122,8.8779 -23.927,6.9569 -19.17,6.4349 -13.4306,7.4812 -7.7615,9.5138 -2.8229,13.5378 0.9698,19.5024 1.2963,25.3151 -2.6182,29.6576 -7.8277,32.3891 -13.1635,33.4208 -18.5807,33.3834 -23.3626,32.6735 -27.7432,30.1661 -31.1849,25.8417 -33.3497,21.0626 -34.7114,15.9956 -34.8815,10.7476 -32.9276,6.0739 -29.6377,1.7614 -24.1348,-1.6375 -17.2398,-3.089 -11.5302,-2.6293 -6.5662,0.4071 -2.7574,5.7505 -0.3617,11.857 -0.2275,18.4452 -2.2022,24.6501 -5.5051,29.2393 -10.3299,32.8123 -16.112,35.7461 -22.4962,36.905 -29.2572,34.8868 -38.5652,29.3762 L-44.42,25.91 " stroke-linecap="round" fill="none" stroke="#f76707" stroke-width="16.658764166028845" stroke-dasharray="none" stroke-dashoffset="0"/></g></g><g transform="matrix(1, 0, 0, 1, 1161.0662, 7510.7859) scale(3.7019475924508543, 3.7019475924508543)" opacity="1"><g transform="scale(0.2701280812400576)"><path d="M0,0 Q0,-8.2399 -0.6863,-11.5177 T-3.179,-16.8573 -6.8077,-18.8431 -10.4629,-16.6586 -13.4484,-11.1646 -15.3262,-3.5889 -16.5074,5.9843 -17.2504,16.1259 -17.7177,27.9975 -17.3253,42.332 -15.7058,56.1547 -13.3125,68.2828 -10.4326,79.345 -7.9348,89.7367 -5.6774,99.7067 -3.5711,108.7251 -2.2462,117.1449 -2.7856,125.8746 -6.5584,133.4264 -12.3652,138.8629 -20.1375,142.2824 -28.46,144.4333 -37.1284,145.0999 -46.7027,144.8328 -56.1585,143.9766 -65.5379,141.3772 -77.5711,136.4004 L-85.14,133.27 " stroke-linecap="round" fill="none" stroke="#40c057" stroke-width="16.658764166028845" stroke-dasharray="none" stroke-dashoffset="0"/></g></g><g transform="matrix(1, 0, 0, 1, 1168.4701, 7584.8248) scale(3.7019475924508543, 3.7019475924508543)" opacity="1"><g transform="scale(0.2701280812400576)"><path d="M0,-3.7 Q-10.989,0.4181 -15.8178,2.4014 T-25.0565,5.6323 -36.9432,8.9949 L-44.42,11.11 " stroke-linecap="round" fill="none" stroke="#40c057" stroke-width="16.658764166028845" stroke-dasharray="none" stroke-dashoffset="0"/></g></g><g transform="matrix(1, 0, 0, 1, 1190.6818, 7429.343) scale(3.7019475924508543, 3.7019475924508543)" opacity="1"><g transform="scale(0.2701280812400576)"><path d="M0,0 Q2.7454,10.989 4.297,16.5041 T6.8246,26.8628 9.1009,38.1865 12.6056,55.6534 L14.81,66.64 " stroke-linecap="round" fill="none" stroke="#40c057" stroke-width="16.658764166028845" stroke-dasharray="none" stroke-dashoffset="0"/></g></g><g transform="matrix(1, 0, 0, 1, 665.0052, 8799.0636) scale(3.7019475924508543, 3.7019475924508543)" opacity="1"><g transform="scale(0.2701280812400576)"><path d="M-3.4336,-1.3727 Q-6.8672,-2.7454 -8.3406,-4.297 T-10.0544,-6.8246 -9.7578,-9.1009 -6.824,-11.219 -2.2333,-11.8649 2.0289,-10.2103 5.398,-6.4223 6.8289,-1.9805 6.3544,2.1878 4.6833,6.1843 2.2594,9.3844 -0.6379,11.3973 -4.5212,11.9771 -8.3383,10.9672 -10.7393,8.9574 -11.5632,6.3206 -10.7069,3.9756 -8.7937,2.5007 -5.5312,2.2593 0.1356,3.1437 1.85,1.85 -3.4336,-1.3727 Z" stroke-linecap="round" fill="none" stroke="#40c057" stroke-width="16.658764166028845" stroke-dasharray="none" stroke-dashoffset="0"/></g></g><g transform="matrix(1, 0, 0, 1, 665.0052, 8799.0636) scale(3.7019475924508543, 3.7019475924508543)" opacity="1"><g transform="scale(0.2701280812400576)"><path d="M0,0 Q9.6126,0 14.0103,0 T21.8606,0.6864 28.8574,1.8044 35.3193,2.5077 41.4448,2.95 47.3568,3.2283 53.1363,3.4033 58.8325,3.5134 64.4745,2.8963 70.0823,1.8217 75.6706,1.1459 81.2465,0.7208 86.8128,0.4534 92.3731,0.2852 97.9314,0.1794 103.4884,0.1128 109.7311,0.071 117.0913,0.0446 124.4663,0.0281 131.1661,0.0177 137.4411,0.0111 144.1336,0.007 150.404,0.0044 156.409,0.0028 162.2452,0.0017 167.9771,0.0011 173.6433,0.0007 179.2665,0.6868 184.8625,1.8047 190.4432,2.5078 196.0145,2.9501 202.2642,3.2283 208.9425,3.4033 215.204,3.5134 221.888,3.5826 228.8394,2.9398 235.9591,1.8491 242.4965,1.1631 248.6694,0.7316 255.9857,0.4602 264.0213,0.2895 271.823,0.1821 279.4774,0.1145 287.0394,0.072 294.5412,0.0453 301.3208,-0.6579 306.9597,-1.7865 311.8793,-2.4964 317.0327,-3.6293 323.0215,-5.0282 328.8494,-5.9082 334.5741,-7.1498 340.2359,-8.6191 345.8581,-9.5432 351.4535,-10.1245 357.032,-11.1765 362.6018,-12.5245 368.1662,-13.3724 373.7252,-14.5921 379.2827,-16.0456 384.8393,-16.9599 390.3934,-17.535 395.946,-17.8967 401.4995,-18.1243 407.0536,-18.2674 412.6061,-18.3574 418.1596,-18.414 423.0272,-19.136 428.1481,-20.2764 434.1163,-20.9938 439.9313,-22.1314 445.6479,-23.5332 451.3027,-24.415 456.9205,-24.9697 462.515,-25.3185 468.093,-25.538 473.6624,-26.3642 479.2265,-27.5721 484.7854,-28.3319 490.341,-28.1216 495.8963,-27.3011 500.7652,-26.785 505.2004,-25.774 509.3629,-24.4518 514.042,-23.6201 519.046,-23.0969 524.2526,-22.7679 529.5866,-22.5609 535.0026,-22.4307 540.4702,-22.3488 545.9683,-22.2973 551.4876,-22.2649 557.0201,-22.2445 562.5591,-22.2317 567.4158,-22.2237 572.5316,-21.5322 578.4967,-19.7246 584.3078,-17.9013 590.0239,-16.0681 598.2474,-13.0244 L603.42,-11.11 " stroke-linecap="round" fill="none" stroke="#40c057" stroke-width="16.658764166028845" stroke-dasharray="none" stroke-dashoffset="0"/></g></g><g transform="matrix(1, 0, 0, 1, 1290.6344, 8758.3422) scale(3.7019475924508543, 3.7019475924508543)" opacity="1"><g transform="scale(0.2701280812400576)"><path d="M-2.0609,-1.3727 Q-4.1218,-2.7454 -6.7908,-2.9225 T-12.5113,-2.5246 -19.5431,0.4729 -26.7134,5.1056 -32.5962,10.765 -37.671,17.072 -42.2377,24.4727 -45.7964,32.5614 -47.3485,39.0237 -46.9502,44.4612 -45.3252,49.2541 -41.5576,52.9551 -36.4405,55.9695 -31.161,58.5518 -25.7811,60.8643 -18.9636,63.0071 -11.2417,64.3549 -5.012,64.5145 0.2811,62.5539 4.9849,57.2008 9.3164,49.7137 12.7272,42.9453 14.8726,35.9407 16.2221,28.7876 16.3846,22.2273 15.8004,16.04 14.0584,10.0892 10.9018,4.287 7.5436,-0.7371 4.0586,-5.2718 0.4938,-8.8105 -3.8094,-11.0363 -9.9497,-12.4363 -17.2455,-11.9424 -24.5818,-8.8845 -31.9437,-4.2156 -38.6351,1.4683 -43.5304,7.1044 -46.6096,12.7086 -47.86,19.6672 -46.5856,27.4778 -43.7231,34.4516 -39.8636,40.899 -35.375,46.3271 -30.4908,50.4277 -25.3596,53.6934 -20.0711,56.4338 -14.6838,58.8439 -9.2361,59.6735 -3.7505,58.8226 1.7609,56.2283 6.6021,51.163 10.3336,43.855 13.367,36.5111 14.5887,29.8327 13.9845,23.5729 11.5435,16.2019 7.2609,7.4437 0.5323,-3.9459 -1.85,-5.555 -2.0609,-1.3727 Z" stroke-linecap="round" fill="none" stroke="#f2f2f2" stroke-width="16.658764166028845" stroke-dasharray="none" stroke-dashoffset="0"/></g></g><g transform="matrix(1, 0, 0, 1, 1279.5285, 8314.1085) scale(3.7019475924508543, 3.7019475924508543)" opacity="1"><g transform="scale(0.2701280812400576)"><path d="M-4.12,2.7473 Q-8.2399,5.4945 -11.5177,7.9089 T-17.5455,12.5282 -22.7115,16.8065 -26.6472,21.5585 -27.7483,27.2947 -25.6936,32.9618 -22.3421,37.2128 -17.4868,41.2612 -10.3128,45.1822 -1.6805,47.6486 7.1829,49.1999 15.5052,49.4893 22.8008,48.2968 28.7625,44.7995 33.1987,38.4797 35.3028,31.0709 35.2535,23.6636 33.8498,16.9434 29.5333,11.3438 22.6964,6.4489 14.9624,2.6836 6.6641,0.3153 -4.247,-2.1496 -5.555,-1.85 -4.12,2.7473 Z" stroke-linecap="round" fill="none" stroke="#f2f2f2" stroke-width="16.658764166028845" stroke-dasharray="none" stroke-dashoffset="0"/></g></g><g transform="matrix(1, 0, 0, 1, 1320.2499, 8347.426) scale(3.7019475924508543, 3.7019475924508543)" opacity="1"><g transform="scale(0.2701280812400576)"><path d="M0,0 Q9.6126,-1.3727 13.324,-1.8044 T20.0562,-2.5077 25.6634,-3.6364 31.2494,-5.0327 37.5102,-5.911 43.5092,-6.4634 49.3416,-6.8109 55.7575,-7.0294 63.2266,-7.1669 70.6701,-7.2534 77.413,-7.3078 85.0879,-7.342 94.0353,-7.3635 103.7851,-7.3771 112.6649,-7.3856 120.9958,-7.3909 129.6695,-7.3943 137.1861,-8.0846 143.9732,-9.207 150.9894,-9.913 158.15,-10.3571 164.713,-10.6364 170.2156,-11.4985 175.7377,-12.7271 181.9565,-13.4998 188.6154,-13.9859 194.8648,-14.2916 200.8546,-14.484 206.6813,-14.6049 212.4072,-14.681 218.0697,-14.7289 223.6905,-14.759 229.2868,-14.7779 234.8678,-14.7898 241.1237,-14.7973 247.8059,-14.802 254.0699,-14.805 260.069,-14.8068 265.9033,-14.808 271.6341,-14.8087 277.2977,-14.8092 282.9211,-14.8095 288.5191,-14.1233 294.0993,-13.0054 299.6682,-12.3022 305.232,-11.8599 310.7926,-11.5817 316.3492,-11.4067 321.9052,-11.2966 327.4609,-11.2274 333.0144,-11.1838 338.5685,-11.1564 344.1229,-11.1392 349.6757,-11.1284 355.2275,-11.1216 360.7804,-11.1173 366.3341,-10.4264 371.2001,-9.3036 376.3199,-8.5974 382.2875,-8.1531 388.7883,-7.8737 395.6246,-7.698 403.3583,-7.5874 411.6563,-6.8315 422.5671,-4.9092 L429.43,-3.7 " stroke-linecap="round" fill="none" stroke="#40c057" stroke-width="16.658764166028845" stroke-dasharray="none" stroke-dashoffset="0"/></g></g><g transform="matrix(1, 0, 0, 1, 1771.8875, 8332.6182) scale(3.7019475924508543, 3.7019475924508543)" opacity="1"><g transform="scale(0.2701280812400576)"><path d="M0.6864,-4.8063 Q1.3727,-9.6126 1.1181,-11.9494 T0.0169,-15.7561 -2.0484,-17.4641 -4.7221,-17.1658 -7.7783,-15.6055 -11.7598,-13.2494 -16.3232,-10.3929 -20.5681,-6.5372 -24.6127,-1.3646 -27.8431,3.9498 -29.875,9.3516 -31.1531,15.4966 -31.2707,21.4228 -29.2837,27.2093 -25.2867,32.9081 -20.0253,37.8672 -13.9686,41.6747 -6.7253,44.0696 1.2643,44.2015 8.3488,42.2235 13.4913,38.9203 16.7259,34.0953 18.7605,28.3132 20.0403,21.2426 20.8452,13.3616 20.6652,5.6572 19.1793,-1.9361 15.4974,-8.7714 8.2553,-17.021 1.85,-11.105 0.6864,-4.8063 Z" stroke-linecap="round" fill="none" stroke="#f2f2f2" stroke-width="16.658764166028845" stroke-dasharray="none" stroke-dashoffset="0"/></g></g><g transform="matrix(1, 0, 0, 1, 1261.0188, 6651.934) scale(3.7019475924508543, 3.7019475924508543)" opacity="1"><g transform="scale(0.2701280812400576)"><path d="M-3.7,0 Q-5.0727,12.3617 -4.8181,18.3085 T-3.0306,28.6841 0.841,35.8985 5.3372,40.4364 10.2243,43.2907 15.3573,44.3979 19.9606,43.7197 23.5442,41.9205 26.4847,39.4161 29.0206,36.4681 29.9293,32.5529 29.1264,28.7157 27.2467,25.6157 24.0054,22.9795 19.2194,21.3213 14.148,20.2783 9.5855,20.3086 5.3429,22.3886 1.3016,26.4441 -1.2403,31.0541 -0.0938,36.0147 4.0609,41.1958 9.4215,45.8275 14.8524,49.4271 20.3293,51.6913 25.8352,52.4291 30.6711,50.8323 34.3993,47.767 36.0579,43.7798 36.4148,39.2129 35.2667,34.9657 32.4835,30.9197 29.3584,27.6884 25.3336,25.6559 19.3685,24.3775 12.8691,24.2597 7.4083,25.5602 3.2871,28.4391 -1.0021,33.7067 L-3.7,37.02 " stroke-linecap="round" fill="none" stroke="#4dabf7" stroke-width="16.658764166028845" stroke-dasharray="none" stroke-dashoffset="0"/></g></g><g transform="matrix(1, 0, 0, 1, 1012.9883, 5926.3523) scale(3.7019475924508543, 3.7019475924508543)" opacity="1"><g transform="scale(0.2701280812400576)"><path d="M-4.12,-3.7 Q-8.2399,-3.7 -11.5177,-5.0746 T-16.8573,-8.0001 -19.5295,-11.2129 -17.7767,-13.9201 -11.1815,-14.2503 -3.5996,-11.7107 1.1695,-8.0524 1.4219,-4.3786 -1.8529,-1.3814 -6.66,1.1901 -13.9344,5.0022 -9.255,1.85 -4.12,-3.7 Z" stroke-linecap="round" fill="none" stroke="#4dabf7" stroke-width="16.658764166028845" stroke-dasharray="none" stroke-dashoffset="0"/></g></g><g transform="matrix(1, 0, 0, 1, 861.2084, 5704.2354) scale(3.7019475924508543, 3.7019475924508543)" opacity="1"><g transform="scale(0.2701280812400576)"><path d="M0,0 Q6.8672,0 9.7133,0.6864 T15.0359,3.179 19.7584,6.8077 24.1034,11.1493 28.2091,16.6274 32.8507,23.5067 38.5174,31.9537 44.8291,42.0751 51.5464,54.6204 57.8325,66.6314 63.8455,77.6199 70.373,89.338 77.9125,102.8895 85.4021,116.2197 91.4857,127.3517 96.6869,138.4755 102.0193,150.2787 107.4324,162.5092 112.8982,174.324 119.0835,186.5618 125.033,198.3793 130.8362,208.5598 137.2336,219.0833 143.3167,229.8225 149.2038,240.6975 154.9678,250.9714 159.966,260.8673 164.4825,270.5254 168.6961,280.7204 173.4074,294.0002 179.1181,308.534 184.0828,321.7958 188.5801,334.2574 192.7835,345.5293 196.8001,356.053 201.3856,366.106 205.6426,375.8629 209.693,386.12 213.6152,396.0053 218.1432,406.345 223.0503,416.9686 227.5096,427.7708 232.3754,438.6853 236.8106,448.9841 240.973,459.5839 245.6502,470.3712 250.6531,481.9626 255.8608,494.06 261.1955,506.4755 266.6119,519.093 272.0797,531.1494 277.578,542.8528 283.0974,555.7088 287.9436,568.6015 292.3646,580.8309 297.2044,594.7041 301.6214,608.2367 305.7742,620.8686 309.7609,633.6223 312.9549,645.7642 316.3366,657.5215 319.8364,669.0368 322.7241,680.3999 325.915,691.669 329.2967,704.2519 333.4828,719.72 337.4886,734.2558 340.6945,746.8324 344.0856,758.863 347.5932,771.2366 350.4858,782.4532 352.9916,791.5693 355.9405,800.737 358.4816,810.6234 360.7664,820.2756 364.2644,830.4667 367.8392,840.3106 370.7741,849.2496 373.9929,857.6195 377.3902,866.3178 380.8998,876.5953 384.4819,886.4935 388.1095,895.4667 391.7641,905.2308 395.4355,916.8669 399.8057,928.9923 404.6154,941.4255 409.0135,953.366 413.1525,962.9374 417.1287,972.3915 421.0043,982.458 424.8166,990.8508 428.5872,999.5634 432.3316,1011.2245 436.7478,1024.052 440.9001,1035.5541 444.1983,1046.2226 447.6455,1056.3666 451.1865,1065.4945 454.1002,1073.9813 456.6192,1082.7531 459.5782,1091.0178 462.814,1099.65 465.5357,1109.8877 467.9339,1119.7609 470.8151,1129.4047 474.0001,1139.5906 477.378,1149.4312 481.5636,1159.7408 488.1912,1175.0135 L492.36,1184.62 " stroke-linecap="round" fill="none" stroke="#4dabf7" stroke-width="16.658764166028845" stroke-dasharray="none" stroke-dashoffset="0"/></g></g><g transform="matrix(1, 0, 0, 1, 1168.4701, 5937.4581) scale(3.7019475924508543, 3.7019475924508543)" opacity="1"><g transform="scale(0.2701280812400576)"><path d="M4.12,-2.7473 Q8.2399,-5.4945 10.8314,-5.848 T15.0528,-5.7374 17.0218,-2.9225 16.2012,0.9072 13.6242,3.316 9.9423,4.8312 3.839,6.4081 0,3.7 4.12,-2.7473 Z" stroke-linecap="round" fill="none" stroke="#4dabf7" stroke-width="16.658764166028845" stroke-dasharray="none" stroke-dashoffset="0"/></g></g><g transform="matrix(1, 0, 0, 1, 1112.9409, 5645.0043) scale(3.7019475924508543, 3.7019475924508543)" opacity="1"><g transform="scale(0.2701280812400576)"><path d="M0,0 Q4.1218,8.2399 6.1045,11.5177 T9.3342,18.9182 12.0521,27.0066 14.448,36.2143 16.6413,45.4394 18.7073,54.6757 20.6932,63.9189 23.3168,74.5392 26.3416,87.4002 28.9306,98.9234 31.2454,110.2914 34.0741,124.3091 36.5398,138.6208 38.777,153.1173 40.8705,167.7283 42.8756,181.7249 45.5113,195.3369 48.5419,209.3934 51.1345,223.7276 53.4516,236.8637 56.2817,250.6209 58.7482,264.0804 60.9879,277.3528 63.7712,291.882 66.8946,305.829 70.2319,320.0962 73.0174,334.5629 75.4558,349.1551 78.3623,363.8281 81.565,378.5519 84.2678,393.3059 86.6541,408.0788 88.8415,422.8654 90.9037,436.9744 92.8872,451.3416 94.8211,465.8712 97.4103,481.1912 100.4134,496.322 102.9906,509.9592 105.298,524.0297 108.1221,539.7472 111.2711,555.1281 114.6245,568.9226 118.1084,582.4056 120.9879,595.6946 123.4855,608.8615 125.7429,621.9498 127.8491,635.675 130.5466,651.8618 132.9297,668.2241 135.115,683.3241 137.1759,697.6283 139.1604,712.8047 141.7832,729.9061 144.1193,746.8437 145.5887,761.6174 146.513,775.03 147.0944,786.9001 147.46,798.4864 147.69,810.5805 147.8347,822.3095 148.6121,833.1206 149.7874,842.6662 150.5266,852.7904 150.9916,863.2802 151.2841,873.9983 151.4681,884.86 151.5838,895.8119 151.6566,907.507 151.7024,918.2968 151.7312,928.5172 151.7493,939.0676 151.7607,951.1983 151.7678,965.0076 151.7724,977.1272 151.7752,988.184 151.777,999.2587 151.7781,1010.3465 151.7788,1022.8134 151.7792,1035.4614 151.7795,1046.8506 151.7797,1057.448 152.4662,1068.2337 154.2706,1079.1379 156.092,1089.4302 157.2377,1100.024 158.6465,1112.1821 160.2208,1124.6376 161.8974,1135.2194 163.6384,1143.9344 164.7334,1152.1634 166.1086,1159.4004 167.6599,1166.0114 168.6357,1172.9171 169.9358,1180.008 171.4399,1187.8999 173.0053,1199.5206 L173.99,1206.83 " stroke-linecap="round" fill="none" stroke="#4dabf7" stroke-width="16.658764166028845" stroke-dasharray="none" stroke-dashoffset="0"/></g></g><g transform="matrix(1, 0, 0, 1, 1279.5285, 6707.4632) scale(3.7019475924508543, 3.7019475924508543)" opacity="1"><g transform="scale(0.2701280812400576)"><path d="M-2.0609,0 Q-4.1218,0 -6.1045,-0.6863 T-10.0206,-3.179 -13.1701,-6.8077 -14.4649,-11.1493 -13.2184,-16.6274 -9.6871,-21.4476 -4.0323,-25.1659 3.6446,-27.5047 11.2187,-27.6013 16.6692,-25.6011 18.0385,-22.9703 16.0566,-20.2322 7.405,-9.255 -2.0609,0 Z" stroke-linecap="round" fill="none" stroke="#e599f7" stroke-width="16.658764166028845" stroke-dasharray="none" stroke-dashoffset="0"/></g></g><g transform="matrix(1, 0, 0, 1, 1472.0298, 6444.625) scale(3.7019475924508543, 3.7019475924508543)" opacity="1"><g transform="scale(0.2701280812400576)"><path d="M0,0 Q-5.4945,6.8672 -7.9089,10.3996 T-12.5282,16.8422 -14.0611,20.8946 -11.5917,21.3826 -6.6048,19.6305 -2.0954,19.2148 -1.318,21.7006 -2.7802,26.5621 L-3.7,29.62 " stroke-linecap="round" fill="none" stroke="#e599f7" stroke-width="16.658764166028845" stroke-dasharray="none" stroke-dashoffset="0"/></g></g><g transform="matrix(1, 0, 0, 1, 1638.6174, 6255.8256) scale(3.7019475924508543, 3.7019475924508543)" opacity="1"><g transform="scale(0.2701280812400576)"><path d="M0,0 Q-10.989,9.6126 -15.1314,14.6967 T-22.5657,23.665 -29.9892,33.426 -40.153,47.1192 -51.3524,61.9131 -60.4558,73.9658 -68.241,83.6059 -76.5714,93.7895 -84.5585,104.3168 -91.6433,113.6858 -98.1606,121.6379 -104.3189,130.0733 -110.2516,138.8129 -116.0442,146.3709 -122.435,153.8722 -129.202,161.3359 -137.5784,169.4642 -146.9672,178.0105 -154.9336,185.447 -162.6917,192.8718 -170.3188,200.2874 -177.1754,207.6991 -183.5471,215.1083 -189.6159,222.516 -195.4941,230.609 -200.5641,237.7585 -205.8122,244.3165 -211.8606,251.1887 -217.7259,257.5704 -223.4742,263.6454 -229.1508,269.5274 -234.0959,275.2863 -239.2655,281.6559 -245.2644,288.4096 -251.0986,294.7168 -256.141,300.7449 -261.3717,307.2838 -267.4091,314.8304 -273.2675,322.3244 -279.0115,330.4718 -285.3718,341.0892 -291.4332,351.1992 -297.305,361.6784 -303.0592,372.3916 -308.0532,381.8775 -313.2534,391.9641 -318.5834,401.7421 -323.3105,409.9516 -327.6585,417.1762 -331.766,424.4678 -336.4087,432.4878 -341.3899,440.2796 -346.5839,447.2397 -351.91,454.3649 -356.6328,460.2212 -361.6644,465.2775 -367.5765,470.5169 -373.3543,475.1871 -379.7357,480.1855 -387.8696,486.7613 -397.1058,495.0174 -405.6626,502.9578 -413.7921,510.6995 -423.0255,520.3772 -432.2669,531.2708 -440.1407,540.8683 -446.466,549.6523 -451.8173,557.9248 -456.5578,565.189 -462.6304,575.0239 L-466.45,581.21 " stroke-linecap="round" fill="none" stroke="#e599f7" stroke-width="16.658764166028845" stroke-dasharray="none" stroke-dashoffset="0"/></g></g><g transform="matrix(1, 0, 0, 1, 1760.7817, 8784.2558) scale(3.7019475924508543, 3.7019475924508543)" opacity="1"><g transform="scale(0.2701280812400576)"><path d="M-4.8063,3.4336 Q-9.6126,6.8672 -12.6358,9.7133 T-18.9351,15.7241 -24.2719,22.2522 -28.3151,29.1038 -30.8583,35.4743 -30.397,40.8559 -26.6733,45.6136 -20.2111,49.2926 -12.0264,51.6067 -3.4447,51.6895 4.0142,49.6807 10.0785,47.0427 14.5793,43.3243 18.0966,38.2381 20.309,32.978 21.0143,28.2967 20.7715,23.9795 19.2462,19.8913 16.914,15.9452 12.6998,12.7749 7.3018,10.7808 1.8456,8.1538 -6.1075,3.1484 -5.555,0 -4.8063,3.4336 Z" stroke-linecap="round" fill="none" stroke="#40c057" stroke-width="16.658764166028845" stroke-dasharray="none" stroke-dashoffset="0"/></g></g><g transform="matrix(1, 0, 0, 1, 1757.0798, 8787.9578) scale(3.7019475924508543, 3.7019475924508543)" opacity="1"><g transform="scale(0.2701280812400576)"><path d="M3.7,0 Q-1.7945,-2.7454 -4.2089,-2.9225 T-8.8282,-2.5246 -13.7929,-0.2153 -19.6629,3.9846 -24.7297,8.6871 -29.2894,14.3923 -33.5301,20.7281 -36.1976,26.0861 -36.5027,30.8289 -34.6356,34.4985 -30.0275,36.8067 -21.6346,38.2585 -11.5472,39.1717 -1.7687,39.0598 6.441,37.6167 12.9777,34.6481 18.4638,30.0335 22.6027,24.3856 25.2061,18.0858 26.8437,12.0623 27.1855,6.9008 26.7123,1.5934 25.7283,-3.1196 23.0503,-6.7704 19.3068,-9.7531 14.2049,-11.6292 8.2485,-12.8093 2.4411,-12.8652 -4.6454,-11.5258 -11.8482,-9.9951 -17.7534,-8.346 -22.8422,-5.936 -26.7295,-3.0474 -29.8609,0.1422 -32.5169,4.2094 -34.1876,8.8286 -35.2384,14.4813 -35.213,20.7841 -34.5107,26.8076 -32.6944,32.6555 -28.8047,37.7083 -23.6127,42.2611 -18.286,45.8112 -12.1882,48.0442 -5.6073,48.7624 -0.0934,47.8395 5.4358,44.5118 13.4617,37.6415 L18.51,33.32 " stroke-linecap="round" fill="none" stroke="#f2f2f2" stroke-width="16.658764166028845" stroke-dasharray="none" stroke-dashoffset="0"/></g></g><g transform="matrix(1, 0, 0, 1, 1775.9906, 8787.9066) scale(4.628207057853488, 4.628207057853488)" opacity="1"><g transform="scale(0.21606639190939506)"><path d="M0,0 Q6.8672,-6.8672 9.8858,-9.8858 T15.662,-15.662 21.0129,-20.1541 25.2375,-23.8384 28.7537,-27.8736 32.6812,-32.1277 36.8675,-36.5193 40.3595,-40.9994 43.4149,-45.5351 47.0544,-50.1058 51.0614,-54.6966 55.2977,-58.4413 58.8194,-61.6555 61.8933,-64.5361 65.5446,-67.2069 69.559,-70.6046 73.8017,-74.4594 78.1882,-78.6018 82.6631,-82.9233 87.1937,-88.2163 91.7612,-94.1221 96.3519,-98.6958 100.9571,-102.4314 105.5716,-107.3559 110.19,-113.0282 114.8108,-118.3137 119.435,-123.3561 124.0614,-128.2455 128.6891,-133.0368 133.3158,-137.7664 137.083,-142.459 140.3114,-147.1284 144.0599,-150.9243 148.1353,-154.1708 152.4166,-158.7876 157.6842,-164.2663 163.5723,-170.289 168.9936,-175.795 174.1213,-180.9742 179.9214,-187.6655 186.1444,-195.3097 190.9175,-202.6946 195.6376,-209.0555 200.3242,-214.7725 204.131,-220.0861 208.2431,-224.2873 212.5456,-228.6475 216.9677,-233.9649 221.4669,-239.0254 226.0147,-243.9261 230.5929,-248.7265 235.1885,-253.4636 239.795,-258.161 245.2691,-263.6904 251.2889,-269.7431 256.7931,-275.268 261.9711,-280.4609 266.944,-285.4449 271.7896,-290.2958 276.5552,-295.0628 281.2706,-299.7791 285.9542,-305.3221 290.6161,-311.3835 295.2643,-316.0531 299.9058,-320.708 304.543,-326.2125 309.1775,-331.3926 313.8085,-336.3686 318.4373,-341.2144 323.0665,-345.9782 327.696,-350.6925 332.3257,-355.3754 336.9555,-360.0387 341.5836,-364.6878 346.2105,-369.328 350.8385,-373.9644 355.4673,-378.5984 360.0965,-383.2309 363.8672,-387.8625 367.9548,-393.3505 373.1006,-399.3772 378.0551,-404.0269 382.8892,-408.6693 387.6476,-414.1659 392.3565,-419.3392 397.0342,-424.309 401.6943,-430.0117 406.3432,-435.3163 410.9851,-439.5119 415.6225,-444.7256 420.2554,-450.5797 424.8853,-455.9797 429.5153,-461.0941 434.1453,-466.8857 438.7752,-473.9623 443.4034,-480.99 448.0303,-487.1282 452.6584,-492.705 457.2872,-498.7875 462.7754,-506.0489 467.9451,-513.1929 472.9128,-520.2612 479.471,-527.282 486.1728,-534.2746 492.9629,-541.2477 499.8086,-548.2085 505.8323,-554.3046 511.339,-558.9979 516.5204,-563.6677 521.4953,-568.3228 525.4816,-572.9667 528.8478,-577.6035 532.6829,-583.0967 536.8129,-589.1286 541.1284,-594.6403 545.5587,-599.8231 550.0613,-604.7989 554.6111,-609.6464 559.1907,-615.2721 564.6479,-621.3854 569.7981,-626.9465 574.7535,-632.1622 579.5863,-637.1606 583.4851,-642.0224 587.6551,-646.7981 591.9957,-651.5179 596.4438,-656.2026 600.9574,-660.8669 605.5124,-665.5186 610.9541,-670.1622 616.9535,-674.7989 622.443,-679.4312 627.6118,-684.9216 632.5807,-690.9516 638.2827,-697.3192 644.4459,-704.7581 650.0384,-711.1548 655.2719,-716.0372 659.4227,-720.826 663.7513,-725.554 669.9075,-731.1027 676.3546,-737.1694 682.1275,-742.7031 687.4764,-747.9015 692.5586,-752.8872 697.473,-757.7391 702.28,-762.5086 707.0196,-767.2264 711.7184,-771.0527 716.3918,-775.1772 721.049,-780.3463 725.6943,-785.3135 730.3321,-790.1556 734.1081,-794.919 737.3421,-799.6329 741.094,-804.3139 744.3128,-808.974 748.0551,-813.623 752.9838,-818.265 758.6587,-822.9025 763.9459,-827.5372 768.1305,-832.1683 772.4803,-836.7972 776.934,-840.5676 781.4513,-843.798 786.0086,-847.5477 790.5928,-851.624 795.194,-855.0468 799.8059,-858.0568 804.4227,-861.666 809.0425,-864.795 813.6661,-867.622 818.292,-871.1179 822.0606,-875.0346 822.7134,-878.3571 819.6903,-880.4469 814.3552,-881.7614 808.4229,-881.7293 802.1166,-880.8503 795.5753,-879.4385 789.7431,-877.6917 783.498,-876.5929 776.9933,-875.9018 771.1859,-875.467 767.5331,-875.1936 767.8102,-875.0216 770.5611,-874.9134 774.0091,-874.8454 779.6115,-874.8026 786.5691,-874.7756 793.522,-874.7587 800.4701,-874.7481 808.274,-873.8825 817.477,-872.4792 824.9835,-870.7376 830.562,-867.9263 834.9279,-863.5833 837.6741,-857.416 839.4014,-850.9621 840.4879,-842.6101 841.1713,-830.4877 841.6012,-818.5701 842.7305,-806.7816 843.4407,-797.6507 842.7589,-790.9897 L842.33,-786.8 " stroke-linecap="round" fill="none" stroke="#40c057" stroke-width="20.826931760340695" stroke-dasharray="none" stroke-dashoffset="0"/></g></g><g transform="matrix(1, 0, 0, 1, 635.1376, 9533.048) scale(4.628207057853488, 4.628207057853488)" opacity="1"><g transform="scale(0.21606639190939506)"><path d="M0,0 Q3.4355,-15.4521 4.5159,-19.4548 T5.4171,-24.2575 5.1251,-23.8429 4.9414,-19.2897 4.8259,-11.2743 3.8943,2.3523 2.4495,21.2242 0.6819,40.8226 -1.2888,61.7367 -2.5284,84.3356 -4.167,107.994 -6.0565,133.1779 -7.245,157.6034 -8.8496,180.6932 -10.7159,204.6605 -11.8898,228.3208 -12.6281,250.9293 -13.0926,274.5938 -14.2436,298.9225 -15.8264,322.8103 -16.822,347.2795 -17.4483,371.2574 -17.8422,394.0675 -18.0899,416.9999 -19.1046,439.1505 -20.6018,460.8093 -21.5434,483.0176 -22.9946,505.5716 -24.7663,528.3448 -26.7395,551.256 -28.8396,573.3932 -30.1605,594.1847 -30.9913,614.9886 -32.3728,635.8022 -34.1006,655.7631 -35.1874,675.1856 -35.871,694.2696 -37.158,714.0014 -38.8245,734.1406 -39.8728,753.6754 -40.5321,772.83 -41.8057,791.7473 -43.4657,810.5153 -44.5098,830.0465 -45.1665,850.0577 -45.5796,868.6549 -45.8395,886.3628 -46.0029,905.2271 -46.9646,924.8207 -48.4283,944.0141 -49.349,962.954 -49.9281,981.7344 -50.2924,1000.4163 -50.5215,1019.0363 -50.6657,1035.8996 -51.6152,1053.3757 -53.0713,1072.0943 -53.9872,1089.8766 -54.5633,1107.9307 -54.9256,1125.297 -56.0124,1142.2287 -57.5549,1158.8889 -58.5251,1174.5195 -59.1354,1190.3596 -59.5192,1207.192 -59.7607,1223.7898 -59.9125,1239.3811 -60.008,1254.3394 -60.0681,1268.8995 -60.1059,1283.2092 -60.1297,1297.3613 -59.2858,1311.4143 -57.8961,1325.4031 -57.022,1339.3534 -56.4722,1353.2795 -55.2675,1367.1903 -53.6508,1381.0916 -52.634,1394.9868 -51.9944,1409.7371 -51.5921,1425.8822 -51.339,1442.0477 -51.1799,1457.3672 -51.0797,1473.0133 -51.8756,1488.006 -53.2351,1501.7289 -54.0902,1517.2297 -54.9802,1540.465 L-55.54,1555.08 " stroke-linecap="round" fill="none" stroke="#9398b0" stroke-width="20.826931760340695" stroke-dasharray="none" stroke-dashoffset="0"/></g></g><g transform="matrix(1, 0, 0, 1, 195.4579, 10940.0229) scale(4.628207057853488, 4.628207057853488)" opacity="1"><g transform="scale(0.21606639190939506)"><path d="M0,0 Q13.7381,1.7177 18.9158,1.3991 T29.0679,0.0212 38.8891,-1.7044 48.5002,-2.7898 58.838,-4.3314 69.633,-6.1599 79.8566,-7.31 92.2975,-7.1746 106.133,-6.2306 118.2692,-5.6368 129.3364,-5.2632 139.7332,-5.0283 150.5652,-4.8805 161.671,-4.7876 172.0902,-4.7291 182.9363,-4.6923 194.9098,-4.6692 207.5925,-3.7958 220.7213,-1.5287 234.1306,1.615 248.5753,5.3083 264.5282,9.3473 280.5727,12.7467 296.675,15.7437 313.6705,19.3466 331.2297,22.4717 349.1436,25.2962 368.1374,27.9317 386.9537,29.5895 404.7993,30.6322 422.8913,31.288 441.1385,31.7006 458.6261,31.9601 474.7772,32.1233 491.8034,32.2259 508.5231,32.2905 526.7677,31.4723 548.5463,30.0987 569.9711,29.2348 589.4574,28.6913 610.2993,28.3495 632.8527,28.9934 654.7666,30.2572 676.2766,31.0522 697.5325,31.5522 719.4873,31.0079 741.8819,29.8066 763.696,28.1922 783.4273,25.459 802.7054,22.022 825.9929,18.1443 851.8023,13.9894 876.6214,9.6582 898.2427,5.2161 920.4275,0.7044 945.5414,-2.9924 969.923,-6.1747 992.1281,-9.0334 1015.5389,-10.8315 1041.4258,-11.9625 1066.2955,-12.6739 1088.8057,-13.1213 1113.2655,-13.4028 1138.9534,-13.5798 1161.9801,-13.6912 1188.4824,-13.7612 1217.1728,-13.8053 1242.0881,-13.833 1265.4859,-12.9934 1293.0806,-11.6083 1323.315,-9.8782 1349.2015,-7.9311 1374.928,-6.7064 1403.1284,-5.0772 1428.5944,-3.1936 1449.7639,-2.0087 1469.9467,-1.2635 1490.3696,-1.6536 1515.8886,-3.4807 L1531.94,-4.63 " stroke-linecap="round" fill="none" stroke="#9398b0" stroke-width="20.826931760340695" stroke-dasharray="none" stroke-dashoffset="0"/></g></g><g transform="matrix(1, 0, 0, 1, 584.2273, 10967.7921) scale(4.628207057853488, 4.628207057853488)" opacity="1"><g transform="scale(0.21606639190939506)"><path d="M0,0 Q1.7177,-3.4355 3.1168,-3.657 T7.1118,-4.018 13.0583,-3.3862 19.3752,-2.1299 25.0663,-1.3397 31.2207,-0.8427 37.6666,-0.53 44.2976,-0.3334 51.0433,-0.2097 57.0022,-0.1319 62.4681,-0.9418 67.6238,-2.3101 72.5845,-3.1708 77.4225,-3.7122 83.0404,-4.0527 89.1488,-4.2669 95.5675,-4.4016 102.1815,-3.6275 108.0576,-2.2817 114.3284,-1.4352 120.8493,-0.9027 127.5257,-0.5678 133.441,0.5017 138.0207,2.0333 142.619,2.9967 148.0879,3.6026 154.1044,3.9838 160.4636,4.2235 167.0382,4.3743 172.8914,4.4692 179.1478,4.5288 185.6578,4.5664 191.4703,4.59 197.703,3.746 204.2,2.3562 210.0024,1.4821 215.368,0.0733 220.4607,-1.6716 225.3818,-2.7692 231.0519,-3.4595 238.9108,-4.7526 247.2895,-6.4249 255.1345,-7.4767 263.5026,-8.1383 273.0604,-8.5545 282.5059,-9.6732 291.0219,-11.2339 298.955,-12.2156 305.6627,-12.8331 312.4566,-14.0804 319.3046,-15.7238 325.3298,-16.7575 330.8374,-18.2665 336.0194,-20.0746 340.9947,-21.2118 345.8401,-21.9272 351.4644,-22.3771 357.5787,-22.6602 363.1405,-23.697 369.2136,-25.2081 376.469,-26.1586 383.6093,-26.7564 389.8164,-27.1325 396.2954,-27.369 402.9473,-27.5178 409.7079,-27.6113 416.5351,-27.6702 422.5453,-27.7072 428.9022,-27.7305 435.4774,-27.7452 442.1879,-27.7544 448.9835,-27.7602 454.9757,-27.7638 459.6037,-28.625 464.2324,-30.0255 469.7186,-30.9064 474.8853,-31.4606 479.8529,-31.8091 485.5541,-32.8872 492.5737,-34.4242 499.5638,-35.3909 505.6784,-35.999 511.2421,-36.3815 516.4594,-37.4791 521.457,-39.0265 526.3164,-39.9998 531.0906,-41.4709 535.8114,-43.2551 540.4984,-44.3773 546.0214,-45.0832 552.07,-45.5272 558.4512,-44.9476 567.9348,-42.9233 L573.9,-41.65 " stroke-linecap="round" fill="none" stroke="#e599f7" stroke-width="20.826931760340695" stroke-dasharray="none" stroke-dashoffset="0"/></g></g><g transform="matrix(1, 0, 0, 1, 1190.5224, 10926.1383) scale(4.628207057853488, 4.628207057853488)" opacity="1"><g transform="scale(0.21606639190939506)"><path d="M4.63,0 Q6.3477,-8.5849 7.745,-12.1438 T10.8799,-18.8 13.7107,-24.7044 16.3501,-30.1342 18.8692,-35.2654 21.3125,-39.3518 23.7082,-42.7811 26.074,-46.6558 29.2798,-50.8107 32.1551,-55.9989 34.8207,-60.9781 37.3544,-64.9689 39.8069,-70.0557 43.0673,-75.8319 46.8358,-81.181 50.9239,-85.4026 54.3542,-88.9169 56.5119,-92.8451 58.726,-97.0336 61.8346,-101.386 65.5077,-104.9825 68.6769,-108.9605 71.5292,-113.1786 74.1821,-116.6906 76.7097,-119.7586 80.0173,-122.5472 83.8136,-126.0189 87.9174,-129.9204 92.2164,-134.0903 96.6382,-139.2879 101.1372,-144.2749 105.6849,-149.1295 110.2612,-154.7596 114.8556,-160.8757 119.4632,-166.4386 123.2202,-170.7965 126.4423,-175.2554 130.1867,-179.7777 134.2578,-185.197 139.3932,-191.1805 145.2,-197.5207 150.5703,-204.0853 155.6658,-209.9303 160.5868,-215.3227 165.398,-221.2911 170.142,-227.6218 174.8437,-233.3197 179.5188,-238.6195 183.3183,-243.6709 186.5652,-248.5659 190.3233,-252.5037 194.4049,-256.6984 197.8312,-261.9115 200.8451,-266.9065 204.4586,-271.766 208.4492,-276.5404 212.6752,-281.2612 217.0492,-285.9484 221.5182,-290.6124 226.0469,-295.262 230.6132,-300.7632 236.0602,-306.8 242.061,-313.1719 247.5533,-318.8958 252.7257,-323.3549 257.6968,-327.8774 262.5396,-332.4398 267.3015,-337.0273 272.0145,-342.4876 276.6967,-348.4968 281.3595,-353.9944 286.0102,-359.17 290.6513,-364.1414 295.2865,-368.1254 299.9197,-372.3491 304.5518,-377.5824 309.183,-382.5919 313.812,-387.4605 318.4395,-393.0977 323.0679,-399.2182 327.6969,-404.7857 332.3263,-410.0054 336.9559,-414.1475 341.5838,-417.6117 346.2106,-421.5066 350.8386,-425.6723 355.4673,-430.0103 360.0966,-434.4566 364.7242,-438.9711 369.3509,-443.5266 373.9788,-448.9667 378.6075,-454.9651 383.2366,-460.4559 387.8661,-466.4843 392.4939,-472.8509 396.2618,-478.5733 399.4907,-483.8903 403.2394,-488.9525 407.3151,-493.8525 411.5964,-498.6504 415.1482,-503.3861 418.2411,-508.0826 421.9025,-511.8955 425.9214,-516.0115 430.1669,-520.3183 433.6963,-523.8842 436.7751,-527.8431 440.4294,-532.0509 444.4439,-537.2743 448.6848,-543.9934 453.0701,-550.7944 457.5462,-556.79 462.0794,-562.2789 466.6485,-568.3062 471.2383,-574.6721 475.8412,-580.394 479.5953,-585.7108 482.8154,-590.7728 486.5587,-595.6745 490.6309,-601.3325 494.9082,-607.466 499.3145,-613.9006 503.8038,-619.6657 508.3453,-624.149 512.0607,-628.6848 515.2566,-632.3968 518.1257,-636.4493 520.7892,-640.716 523.3234,-644.2587 525.7745,-648.2048 529.0321,-653.2616 532.7988,-659.8759 538.1402,-669.6022 L541.5,-675.72 " stroke-linecap="round" fill="none" stroke="#e599f7" stroke-width="20.826931760340695" stroke-dasharray="none" stroke-dashoffset="0"/></g></g><g transform="matrix(1, 0, 0, 1, 1736.6509, 10241.1636) scale(4.628207057853488, 4.628207057853488)" opacity="1"><g transform="scale(0.21606639190939506)"><path d="M4.63,0 Q16.6504,-1.7177 21.2878,-2.258 T29.7011,-3.138 37.5696,-3.6915 45.0955,-4.0397 52.404,-4.2587 58.7169,-5.2553 63.5466,-6.7411 68.3022,-7.6756 73.8701,-8.2634 79.9471,-8.6331 85.4853,-8.8657 91.5455,-9.012 97.9339,-9.104 104.527,-9.1619 111.2488,-9.1983 117.1945,-9.2212 123.511,-9.2356 130.0588,-9.2446 136.7521,-9.2503 143.5387,-9.2539 149.5253,-9.2562 155.8656,-9.2576 162.4284,-10.1155 169.1329,-11.5121 175.9267,-13.2495 181.9159,-15.2011 187.3989,-16.4287 192.5655,-18.0597 197.533,-19.9445 202.3753,-21.9889 207.9958,-24.1337 214.1059,-25.4828 218.808,-27.1902 223.4833,-29.123 228.1419,-31.1977 231.9309,-33.3615 236.0301,-34.7225 239.4655,-36.4356 242.4853,-38.3701 246.1024,-40.4458 250.0953,-43.4692 255.1835,-46.2297 260.1016,-48.825 264.0522,-51.3162 268.253,-53.7421 272.613,-56.1269 277.0731,-58.4839 281.5963,-61.6823 286.1591,-64.553 290.745,-67.2175 295.3454,-69.7524 299.9568,-72.2057 304.5751,-74.6076 309.1977,-76.9773 313.8212,-80.1856 318.4453,-83.0625 323.9304,-85.7291 329.0983,-89.1222 333.2077,-92.1154 338.3673,-94.8569 344.1875,-98.2991 349.566,-102.1819 355.5258,-106.342 360.9922,-110.6745 365.2875,-115.1156 369.7052,-118.7679 374.2017,-121.924 378.7476,-125.627 383.3248,-129.6738 387.9216,-133.9352 392.5288,-138.3315 397.1426,-141.9556 401.7625,-145.094 406.3861,-148.7858 411.012,-152.8257 415.6395,-157.0845 420.2661,-161.4792 424.892,-166.8182 429.5195,-171.8941 434.1479,-176.8046 438.7769,-181.6111 443.4044,-185.4913 448.031,-189.6479 451.8,-193.9801 455.0296,-198.4228 458.7787,-203.7938 462.8546,-209.747 467.1361,-215.2074 471.545,-220.3597 476.0341,-225.3182 479.7166,-230.1549 482.8918,-234.913 486.6067,-238.7629 489.8022,-242.0433 492.6711,-245.8244 496.1915,-249.9205 500.1217,-255.0735 504.3115,-260.8895 507.8058,-266.2636 510.8625,-271.3617 514.5029,-276.2861 518.5105,-281.1013 522.7471,-286.7047 527.1279,-293.6629 531.6011,-299.7574 535.2736,-304.4496 538.4424,-309.1188 542.1534,-314.6305 546.2035,-319.8132 549.608,-323.9319 552.6082,-328.2404 555.3543,-332.6681 557.9404,-337.1709 561.2848,-341.719 564.2473,-346.2957 566.9696,-350.8921 569.5408,-356.3599 572.0169,-362.3738 575.2903,-367.8725 578.2062,-373.9077 580.8992,-380.2805 583.452,-386.0067 585.9166,-391.3244 588.3256,-396.385 590.6998,-402.1448 593.9109,-408.3443 596.7895,-414.8185 599.459,-420.6067 601.997,-425.9651 604.4504,-431.0534 606.8506,-435.1127 609.2192,-440.2408 612.4268,-446.0411 616.1621,-452.2661 620.2293,-460.474 624.5035,-469.9293 628.9078,-479.3122 633.3959,-487.7887 637.0777,-494.8363 640.2525,-501.8459 643.9671,-510.5474 648.0214,-519.4542 652.2874,-527.6332 655.8277,-536.2114 658.9134,-545.0407 662.5721,-553.1709 665.7322,-561.7184 668.5788,-570.5284 671.2282,-578.6465 673.7535,-588.0452 676.2008,-597.3906 678.5972,-604.9866 680.9615,-611.4822 683.3075,-619.0016 686.5009,-628.0237 690.2273,-637.1341 693.43,-646.2981 696.3034,-655.4959 698.9696,-663.8579 701.5056,-672.5512 704.8165,-681.4529 707.7561,-689.6287 710.464,-698.2048 713.0261,-706.174 715.4966,-714.6202 717.9093,-723.3664 720.2858,-732.3033 722.6395,-742.217 724.9789,-751.0275 727.3092,-760.0048 729.6319,-769.944 731.95,-778.7704 733.408,-786.8989 735.184,-794.5883 737.1599,-802.8585 738.4028,-812.3529 740.0434,-820.9015 741.9343,-828.8534 743.9825,-837.2887 746.1296,-845.171 748.3391,-852.7038 750.5877,-860.0167 752.002,-866.3342 753.7506,-872.0256 755.7092,-878.1803 757.7982,-884.6263 759.9692,-891.2574 761.3348,-898.862 763.0526,-906.2201 764.992,-914.2837 767.0707,-922.7912 769.2371,-930.7172 771.4586,-939.9951 773.7148,-950.1234 775.1339,-959.9276 776.8855,-970.387 778.846,-981.2584 780.0792,-990.6731 780.8549,-999.1716 782.2017,-1007.9507 783.9076,-1017.7653 784.9807,-1027.3722 785.6557,-1035.9897 786.9372,-1045.7045 788.6003,-1056.1075 790.5053,-1066.0846 792.5624,-1076.6527 793.8563,-1087.5925 795.529,-1097.9091 797.44,-1107.8318 798.6421,-1118.3657 799.3981,-1129.284 799.8737,-1140.444 800.1728,-1151.7562 800.361,-1163.164 800.4793,-1173.775 800.5538,-1183.8829 800.6006,-1194.5332 800.6301,-1204.6659 800.6486,-1215.3318 800.6602,-1226.335 800.6676,-1237.5485 800.6722,-1248.0354 800.6751,-1257.2082 801.5358,-1266.4115 802.936,-1275.634 804.6756,-1284.8686 806.6287,-1295.8284 808.6614,-1312.9196 L809.94,-1323.67 " stroke-linecap="round" fill="none" stroke="#e599f7" stroke-width="20.826931760340695" stroke-dasharray="none" stroke-dashoffset="0"/></g></g></svg>