<svg xmlns="http://www.w3.org/2000/svg" direction="ltr" width="517.5747819881101" height="456.1063932266261" viewBox="-41.682162512242456 -154.5355105975143 517.5747819881101 456.1063932266261" stroke-linecap="round" stroke-linejoin="round" data-color-mode="dark" class="tl-container tl-theme__force-sRGB tl-theme__dark" style="background-color: transparent;"><defs/><g transform="matrix(1, 0, 0, 1, -5.1826, -75.2682) scale(1.027622776751141, 1.027622776751141)" opacity="1"><g transform="scale(0.9731197309206485)"><path d="M0.7871,-1.4526 T2.245,-1.6903 5.6438,-2.3419 9.6237,-3.2468 13.6085,-4.0343 17.2999,-4.6282 21.1893,-5.1767 25.104,-5.6939 28.8074,-6.2321 32.3689,-6.9292 36.0123,-7.873 39.7414,-8.5329 43.1969,-9.0821 47.01,-9.6225 51.5125,-9.8017 56.1008,-9.8714 59.9718,-9.9069 63.645,-9.9333 67.2641,-9.9573 70.8682,-9.9808 74.5941,-10.0034 78.2703,-9.7318 81.884,-9.3104 85.4431,-9.1282 89.6123,-8.7085 94.117,-8.2353 98.7088,-7.7442 103.3213,-7.2528 107.367,-7.1338 111.3197,-6.8335 115.2536,-6.391 119.5265,-6.1667 124.0543,-6.1029 128.5744,-6.0978 132.7983,-6.0987 136.568,-6.1005 140.5835,-6.106 144.9063,-6.1109 148.6655,-5.7226 151.6803,-5.2555 155.1548,-5.154 159.2341,-5.1272 163.707,-5.1288 167.7904,-5.1379 171.3941,-5.1472 174.9939,-5.1582 178.7209,-5.1685 182.5962,-5.1772 187.013,-5.1869 191.5801,-5.1984 195.4451,-5.2075 199.4871,-5.2149 203.9502,-5.2212 208.043,-5.2257 211.5339,-5.2287 214.7317,-5.2308 217.8467,-5.2353 220.9365,-5.2418 224.0204,-5.2499 227.7183,-5.2609 232.2065,-5.0051 236.4247,-4.5871 240.5556,-4.3893 245.0411,-4.3419 249.018,-4.3355 252.8491,-4.3357 256.6378,-4.3373 260.4631,-4.3392 264.122,-4.3409 267.7264,-4.3423 271.8625,-4.3435 275.4433,-4.3444 278.743,-4.3451 282.256,-4.3457 285.9566,-4.3461 289.5809,-4.3465 293.1853,-4.3468 296.6581,-4.3486 300.284,-4.3536 303.8876,-4.3604 306.902,-4.3669 310.4372,-4.8177 314.0403,-5.3332 317.7326,-5.4343 321.8542,-5.4823 325.7745,-5.5088 330.3951,-5.9003 335.1306,-6.3965 339.0967,-6.5502 343.055,-6.603 346.7487,-6.6275 350.5699,-6.6453 354.9718,-6.6667 358.9652,-6.6863 362.7992,-6.7008 366.589,-6.7139 370.7265,-6.7241 375.2161,-6.7297 379.188,-6.7286 382.7616,-6.7247 386.1095,-6.7232 389.8794,-6.7181 393.895,-6.706 397.4928,-6.6943 401.2051,-6.6848 405.5647,-6.8937 410.2336,-7.3234 414.5017,-7.593 418.3758,-8.0114 421.9404,-8.503 425.0766,-8.658 428.1644,-8.6935 431.2372,-8.6985 434.5279,-9.0486 438.5473,-9.4995 443.0667,-10.0402 445.3267,-10.4821 A2.3573,2.3573 0 0 1 446.6533,-5.9579 T445.698,-5.6492 442.8724,-4.9823 438.9696,-4.518 434.8748,-4.0259 431.2679,-3.6335 428.2035,-3.6177 425.2222,-3.5783 421.9746,-3.3621 418.355,-2.8629 414.722,-2.4944 410.9023,-2.263 406.0731,-1.8135 401.2051,-1.5352 397.4928,-1.5257 393.895,-1.514 389.8794,-1.5019 386.1095,-1.4968 382.7616,-1.4953 379.188,-1.4914 375.2161,-1.4903 370.7265,-1.4959 366.589,-1.5061 362.7993,-1.5192 358.9653,-1.5336 354.9722,-1.553 350.5724,-1.5728 346.7577,-1.5847 343.0872,-1.5888 339.2285,-1.5683 335.5007,-1.4579 331.428,-1.0005 327.4787,-0.642 323.9476,-0.6593 319.6176,-0.677 315.5938,-0.67 312.3578,-0.5003 308.681,-0.0483 305.2391,0.2444 301.6373,0.2356 298.026,0.2298 294.9825,0.2269 291.6238,0.2267 288.011,0.2264 284.3604,0.2259 280.565,0.2254 277.1256,0.2248 274.0954,0.2241 270.532,0.2232 266.3724,0.2218 262.7595,0.2202 259.0426,0.218 255.009,0.2144 251.0399,0.2081 246.9834,0.1891 242.6058,0.1341 237.9931,-0.0264 233.896,-0.5163 229.853,-0.8924 225.9666,-0.9039 222.6386,-0.9135 219.5511,-0.9209 216.4526,-0.9266 213.3105,-0.9301 210.0116,-0.9325 206.1519,-0.9362 201.6122,-0.9419 197.2945,-0.9489 193.3136,-0.9573 189.2063,-0.9685 184.691,-0.9791 180.4611,-0.9873 176.7964,-0.9966 172.9551,-1.009 169.3547,-1.0201 165.741,-1.0308 161.6722,-1.0475 157.2995,-1.0777 153.0983,-1.161 149.1371,-1.6664 144.8666,-2.1091 140.5833,-2.1142 136.5674,-2.1201 132.7965,-2.1235 128.5678,-2.1301 124.0305,-2.1457 120.1712,-2.1895 116.5439,-2.3378 112.8314,-2.8276 109.2658,-3.2233 105.3392,-3.3141 100.5107,-3.6324 95.9082,-4.163 91.3544,-4.6823 87.0034,-5.1722 83.4087,-5.5441 78.9839,-6.0453 74.5941,-6.4365 70.8684,-6.459 67.2647,-6.482 63.6469,-6.5043 59.9781,-6.5246 56.121,-6.5379 51.5907,-6.5277 47.3074,-6.4193 43.5329,-5.9242 39.5267,-5.3415 35.9941,-4.7437 32.7923,-3.8934 29.525,-3.3232 25.8059,-2.8226 21.6936,-2.2777 17.8628,-1.7599 14.2181,-1.1928 10.4867,-0.4695 6.3066,0.4883 2.7287,1.2032 1.2729,1.4526 A1.4728,1.4728 0 0 1 0.7871,-1.4526 Z" stroke-linecap="round" fill="#9398b0"/></g></g><g transform="matrix(1, 0, 0, 1, -3.1274, -115.3455) scale(1.027622776751141, 1.027622776751141)" opacity="1"><g transform="scale(0.9731197309206485)"><path d="M1.03,-1.4954 T2.4868,-1.4819 5.9752,-1.4557 10.1616,-1.8063 13.9208,-2.2848 17.2801,-2.6574 20.9227,-3.1477 24.7776,-3.8207 28.4536,-4.3921 31.9019,-4.9343 35.2247,-5.6727 38.8552,-6.2823 43.0361,-7.0118 47.1516,-7.5893 50.6863,-8.1175 54.5227,-8.6465 58.797,-8.8171 63.3164,-8.8791 67.9152,-8.9135 72.532,-8.9355 77.1537,-8.9548 81.1621,-8.971 84.8756,-8.984 88.5059,-8.9975 92.2259,-9.0103 96.4688,-9.0284 100.8725,-9.0518 104.8228,-9.0729 108.3894,-9.0928 112.3484,-9.1158 116.7872,-9.1399 120.9886,-9.1627 125.1252,-9.1856 129.4874,-9.208 134.0382,-9.2316 138.6413,-9.2535 143.4834,-9.0047 147.5686,-8.5777 150.7072,-8.3622 154.5319,-8.3118 158.9334,-8.3155 163.1256,-8.3302 167.0172,-8.3464 170.6969,-8.3624 174.3258,-8.3738 178.0754,-8.0056 181.945,-7.5458 185.8429,-7.4357 189.8968,-7.4093 193.9926,-7.4066 198.0986,-7.4095 201.964,-7.4129 205.6364,-7.4158 209.2553,-7.4182 212.8569,-7.4202 216.6973,-7.4218 221.1044,-7.4233 225.6689,-7.4282 230.1679,-7.1652 234.3889,-6.737 238.2671,-6.5291 242.6811,-6.4701 247.2475,-6.4554 251.1142,-6.4529 254.4138,-6.4533 257.876,-6.1692 261.7895,-5.7347 265.6619,-5.5347 269.3516,-5.4718 272.9659,-5.4577 276.5687,-5.4593 280.4102,-5.4655 284.6893,-5.4757 289.217,-5.4858 293.9421,-5.4938 298.2242,-5.5013 302.0113,-5.5096 305.6596,-5.5248 309.2694,-5.5466 312.8709,-5.5705 316.8421,-5.6001 321.0419,-5.6309 325.0484,-5.6572 329.1297,-5.6797 332.9894,-5.6973 336.6591,-5.7123 340.2749,-5.727 344.1193,-5.7426 347.9143,-5.7549 351.587,-5.761 355.263,-5.3833 359.0906,-4.9119 363.3078,-4.7889 367.2143,-4.7484 371.1177,-5.0951 375.2784,-5.558 379.0102,-6.053 382.5368,-6.5628 386.4494,-6.4098 390.4804,-6.0003 394.0362,-5.809 397.409,-5.7325 400.7046,-5.8932 404.1988,-6.3114 408.0106,-6.6048 412.0334,-7.0262 415.8383,-7.5114 419.463,-8.1094 423.0941,-8.6519 426.2551,-8.7362 429.235,-8.7621 432.6052,-8.7705 436.7272,-8.77 440.5226,-8.7647 443.9434,-8.465 446.7843,-7.8937 447.7306,-7.6197 A2.5795,2.5795 0 0 1 446.3094,-2.6603 T444.1791,-3.119 440.5227,-3.5752 436.7284,-3.5695 432.6111,-3.5655 429.2578,-3.5619 425.6498,-3.5268 421.753,-3.3494 417.5241,-2.7542 413.2987,-1.9025 409.8472,-1.4688 406.7068,-1.3423 403.3003,-0.8618 399.469,-0.4755 395.6406,-0.4961 391.7397,-0.6171 388.0487,-1.0653 384.621,-1.354 381.4263,-1.128 377.9359,-0.6147 373.8995,-0.0965 370.4033,0.3407 367.1925,0.6005 363.2067,0.5683 358.6296,0.43 353.8998,-0.039 349.8279,-0.3999 346.1275,-0.4105 342.1575,-0.4249 338.5515,-0.4397 334.9172,-0.4545 331.1803,-0.4713 327.0831,-0.4931 323.0276,-0.5162 319.1139,-0.5411 314.8334,-0.5743 310.9914,-0.6029 307.3886,-0.6241 303.7655,-0.6428 300.0693,-0.6544 296.1098,-0.6621 291.6733,-0.6686 286.8582,-0.6783 282.4173,-0.6901 278.4468,-0.6998 274.8392,-0.7107 271.2065,-0.7269 267.491,-0.768 263.4817,-0.9122 258.6089,-1.3959 254.4125,-1.7679 251.11,-1.7713 247.2338,-1.7795 242.628,-1.8034 238.0727,-1.8835 233.7114,-2.1766 229.6423,-2.6276 225.6689,-2.8518 221.1044,-2.8567 216.6973,-2.8582 212.8569,-2.8598 209.2552,-2.8618 205.6362,-2.8643 201.9633,-2.8677 198.0965,-2.8727 193.9849,-2.8813 189.869,-2.8989 185.742,-2.9458 181.5696,-3.0997 177.7584,-3.5905 174.3049,-3.9663 170.6965,-3.9779 167.016,-3.9948 163.1219,-4.0139 158.9205,-4.0392 154.4769,-4.0811 150.5098,-4.1685 146.9699,-4.4492 143.037,-4.8928 138.6413,-5.1265 134.0382,-5.1484 129.4874,-5.172 125.1252,-5.1944 120.9886,-5.2173 116.7872,-5.2401 112.3484,-5.2642 108.3894,-5.2872 104.8228,-5.3071 100.8725,-5.3282 96.4688,-5.3516 92.2259,-5.3697 88.5059,-5.3825 84.8757,-5.3959 81.1623,-5.4089 77.1541,-5.4245 72.5339,-5.4421 67.9207,-5.4581 63.3416,-5.4706 58.8705,-5.4539 54.8296,-5.3408 51.0271,-4.8486 47.5098,-4.3526 44.18,-3.8523 41.0179,-3.341 37.6782,-2.8059 34.1994,-2.2093 30.6831,-1.7212 27.474,-1.2634 24.5472,-0.7759 21.4246,-0.2506 17.708,0.2117 13.5082,0.681 9.6879,1.1531 5.9752,1.4557 2.4868,1.4819 1.03,1.4954 A1.4954,1.4954 0 0 1 1.03,-1.4954 Z" stroke-linecap="round" fill="#9398b0"/></g></g><g transform="matrix(1, 0, 0, 1, 320.5738, -93.7654) scale(1.027622776751141, 1.027622776751141)" opacity="1"><g transform="scale(0.9731197309206485)"><path d="M-0.8769,1.7495 T-1.8374,1.2497 -4.2645,0.4236 -7.6558,0.7683 -10.5958,2.7928 -11.2013,5.7467 -8.9748,8.6121 -4.9565,9.9997 -1.0417,9.7186 1.9786,7.2432 2.8701,3.5869 0.6227,0.8058 -2.8473,-0.5182 -5.983,-0.3405 -9.0131,1.333 -10.4805,4.3233 -9.4059,7.1692 -6.6819,8.895 -3.0856,8.3176 0.0193,6.1756 1.5656,3.7646 1.8888,2.4165 A2.3182,2.3182 0 0 1 6.3312,3.7435 T6.0983,4.7879 4.9266,7.5861 2.078,10.8626 -1.6054,13.3158 -5.611,14.1332 -9.2175,13.4598 -11.9213,11.7145 -14.2013,8.9364 -15.2838,5.1799 -14.6413,1.138 -12.7246,-1.7622 -9.6453,-3.7709 -5.9465,-5.0169 -2.5127,-5.0763 0.6219,-4.2318 3.3057,-2.7103 5.625,-0.4233 7.303,2.7527 7.2318,6.5464 5.4491,10.2322 2.9801,12.8416 -0.6921,14.0442 -5.1706,14.0731 -8.7522,13.1855 -11.7921,11.1695 -14.0235,8.4884 -14.7578,4.79 -13.5164,0.5863 -10.2173,-2.159 -6.7455,-3.3414 -3.1583,-3.1565 -0.1066,-2.2241 0.8769,-1.7495 A1.9569,1.9569 0 0 1 -0.8769,1.7495 Z" stroke-linecap="round" fill="#9398b0"/></g></g><g transform="matrix(1, 0, 0, 1, 365.7892, -93.7654) scale(1.027622776751141, 1.027622776751141)" opacity="1"><g transform="scale(0.9731197309206485)"><path d="M0,2.2132 T-1.4522,2.1807 -4.8029,2.4774 -8.0776,3.4144 -9.8029,5.4885 -8.5603,7.7205 -5.5229,9.5111 -2.2347,11.116 0.4834,10.3283 1.4697,7.3714 0.2232,4.3608 -2.9625,2.7318 -6.2529,2.903 -8.9342,4.8945 -8.6437,7.8631 -5.2005,9.8209 -1.7674,9.8197 0.1015,7.6797 0.4709,6.1427 A2.4327,2.4327 0 0 1 5.2832,6.8601 T5.0013,8.4369 3.2626,12.2264 -0.7652,14.9469 -5.5539,14.7577 -9.5537,13.0785 -13.0702,10.2915 -14.5097,6.26 -12.8616,2.1472 -9.9858,-0.7278 -6.4869,-1.9708 -2.1947,-1.944 1.4392,-0.8906 4.2622,1.1488 6.085,4.255 6.2059,7.7692 5.3538,10.9035 3.7521,13.5822 0.7643,15.4995 -2.9023,15.5667 -6.7137,13.6479 -10.4694,11.5172 -13.321,8.9281 -14.1763,4.9312 -12.4805,1.506 -9.2331,-0.4935 -5.0936,-1.7334 -1.4662,-2.1807 0,-2.2132 A2.2132,2.2132 0 0 1 0,2.2132 ZM0.9517,7.9884 T0.5497,7.396 -0.3031,6.1457 -0.754,5.4879 A2.2541,2.2541 0 0 1 2.814,2.7321 T3.3365,3.3345 4.3307,4.4757 4.8024,5.0143 A2.4327,2.4327 0 0 1 0.9517,7.9884 Z" stroke-linecap="round" fill="#9398b0"/></g></g><g transform="matrix(1, 0, 0, 1, 303.1042, -81.434) scale(1.027622776751141, 1.027622776751141)" opacity="1"><g transform="scale(0.9731197309206485)"><path d="M-0.8191,1.6342 T-1.7846,1.1367 -4.1923,-0.0311 -6.865,-1.8558 -8.4374,-4.6518 -8.8573,-8.2228 -8.9584,-11.9222 -8.6904,-15.6301 -6.7606,-18.7152 -2.9536,-20.1208 1.2846,-20.4399 5.4665,-20.8739 9.0031,-21.7506 11.8186,-22.7629 15.4443,-23.4704 19.1871,-23.9868 21.4529,-25.6186 23.315,-27.9241 25.2963,-30.0474 26.1732,-31.179 A2.1153,2.1153 0 0 1 29.8288,-29.0494 T28.4321,-27.1775 25.6693,-23.8006 22.6993,-21.1763 19.4539,-19.7188 15.9545,-19.2574 12.5418,-18.7541 9.3931,-17.7342 6.249,-16.78 2.6714,-16.4827 -1.2148,-16.4476 -4.2217,-15.0593 -5.3545,-11.9819 -5.2812,-8.4609 -4.5339,-5.2308 -2.4913,-3.1842 -0.1594,-2.1111 0.8191,-1.6342 A1.828,1.828 0 0 1 -0.8191,1.6342 ZM28.2675,-32.2126 T29.1169,-32.1177 32.1469,-31.7022 36.0163,-31.2485 39.1744,-31.1054 42.703,-31.1089 46.2835,-31.1374 49.9121,-31.1605 53.9753,-29.652 56.3099,-26.0043 58.1422,-23.0205 61.4599,-22.1044 65.1734,-21.6399 68.8064,-21.1451 71.3896,-21.0415 72.1893,-21.0318 A2.5098,2.5098 0 0 1 72.1285,-16.0126 T70.6268,-16.0412 67.617,-16.2193 63.9927,-16.7308 59.6454,-17.303 55.5145,-18.5361 52.7297,-21.4581 51.2306,-24.862 48.5237,-26.3854 44.9243,-26.4223 41.305,-26.4831 37.628,-26.6043 34.3927,-26.9763 31.1652,-27.5106 28.6716,-27.8837 27.7344,-28.0157 A2.1153,2.1153 0 0 1 28.2675,-32.2126 ZM74.0436,-20.1796 T74.4984,-19.6456 75.5622,-17.1756 76.6447,-13.3354 77.2059,-10.6958 77.2937,-9.9604 A2.4621,2.4621 0 0 1 72.4034,-9.3829 T72.2928,-10.4071 71.6395,-13.6972 70.6855,-16.4139 70.2742,-16.8647 A2.5098,2.5098 0 0 1 74.0436,-20.1796 ZM76.0619,-7.5293 T74.9568,-6.9237 72.1525,-6.1001 68.6309,-6.12 66.8085,-6.3579 A2.4485,2.4485 0 0 1 68.0719,-11.0892 T68.5496,-10.9083 70.5852,-10.8278 72.8891,-11.3711 73.6352,-11.814 A2.4621,2.4621 0 0 1 76.0619,-7.5293 ZM65.6002,-10.339 T65.981,-10.7726 66.3619,-11.2062 A2.4483,2.4483 0 0 1 70.0416,-7.9758 T69.6609,-7.542 69.2802,-7.1082 A2.4485,2.4485 0 0 1 65.6002,-10.339 ZM65.9611,-8.6042 T65.6657,-9.3014 63.8273,-10.8008 60.4708,-12.1792 57.1614,-12.8629 53.8594,-12.7125 51.1825,-11.2776 50.0864,-8.466 48.1852,-5.108 44.2157,-3.0527 40.3967,-2.6848 36.7738,-2.6328 32.719,-2.2665 29.1781,-1.7936 25.7594,-2.0181 22.7471,-4.2427 20.9892,-7.8398 18.8885,-10.1413 15.324,-10.7918 11.7073,-10.0731 9.516,-7.8786 7.8819,-4.6364 5.3378,-1.9176 2.1192,-0.8773 -1.2074,-1.0927 -4.5279,-2.3579 -6.2111,-3.2513 A2.4601,2.4601 0 0 1 -3.9572,-7.625 T-2.9107,-6.9287 0.2549,-5.9966 3.2794,-6.9248 4.9281,-9.7992 7.3483,-12.817 11.0212,-14.9724 14.6137,-15.8136 17.7189,-15.6893 21.1499,-14.5854 24.3168,-12.175 25.8591,-8.7016 27.9939,-6.7645 31.5712,-7.271 35.3869,-7.6677 39.5743,-7.6962 43.3495,-7.5897 45.329,-9.5038 46.5434,-12.9338 48.756,-15.7486 51.8526,-17.9298 55.5657,-18.2167 59.1898,-17.5809 62.3489,-16.8485 65.386,-15.612 68.237,-13.7807 69.9795,-11.6021 70.4423,-10.5777 A2.4483,2.4483 0 0 1 65.9611,-8.6042 ZM-7.5372,-5.251 T-7.5496,-5.4242 -7.562,-5.5973 A2.4585,2.4585 0 0 1 -2.6592,-5.9713 T-2.6452,-5.7983 -2.6312,-5.6253 A2.4601,2.4601 0 0 1 -7.5372,-5.251 ZM-6.4196,-7.8654 T-5.9177,-8.1694 -3.7884,-10.1481 -1.1168,-13.3296 -0.0726,-14.8365 A2.4279,2.4279 0 0 1 4.289,-12.702 T3.2891,-10.9928 1.1027,-8.3101 -1.2347,-5.9769 -3.0936,-4.1602 -3.8016,-3.7032 A2.4585,2.4585 0 0 1 -6.4196,-7.8654 ZM3.3851,-11.7042 T2.86,-11.3881 0.8997,-9.5966 -1.4888,-7.2807 -2.4422,-6.4402 A2.4121,2.4121 0 0 1 -5.6685,-10.0268 T-4.3187,-11.115 -1.8096,-13.5521 0.0905,-15.3676 0.8313,-15.8343 A2.4279,2.4279 0 0 1 3.3851,-11.7042 ZM-6.3201,-9.0636 T-5.9724,-9.9057 -4.1857,-12.3169 -1.6818,-14.8344 -0.6169,-15.7827 A2.3259,2.3259 0 0 1 2.4929,-12.3233 T1.5644,-11.4797 -0.4773,-9.3991 -1.6906,-7.7827 -1.7906,-7.4033 A2.4121,2.4121 0 0 1 -6.3201,-9.0636 ZM2.9038,-12.8099 T2.2307,-11.769 0.2194,-9.1016 -1.1188,-7.475 A2.3355,2.3355 0 0 1 -4.0473,-11.1139 T-3.017,-12.4232 -1.5073,-14.5143 -1.0278,-15.2961 A2.3259,2.3259 0 0 1 2.9038,-12.8099 ZM-4.4746,-10.6644 T-3.9816,-11.3275 -2.0667,-13.4401 1.7325,-15.4795 4.11,-16.0694 A2.2722,2.2722 0 0 1 2.9231,-11.6827 T2.7637,-11.6882 1.3283,-10.3403 -0.3196,-8.4557 -0.6916,-7.9245 A2.3355,2.3355 0 0 1 -4.4746,-10.6644 ZM5.7032,-13.2586 T5.601,-12.8927 5.4988,-12.5268 A2.2743,2.2743 0 0 1 1.1213,-13.7628 T1.2256,-14.1281 1.3298,-14.4935 A2.2722,2.2722 0 0 1 5.7032,-13.2586 ZM3.4372,-15.4155 T3.9396,-15.3095 5.9365,-16.2699 8.9009,-18.3202 11.9534,-19.9285 13.5362,-20.553 A2.2528,2.2528 0 0 1 15.1264,-16.3373 T13.1828,-15.4695 9.8825,-13.6747 7.1609,-11.8157 4.4894,-10.8788 3.1829,-10.874 A2.2743,2.2743 0 0 1 3.4372,-15.4155 ZM16.5827,-18.5253 T16.6065,-17.8864 16.4578,-15.7197 16.2853,-14.1917 A2.2932,2.2932 0 0 1 11.7058,-13.9387 T11.9115,-15.5992 12.0985,-17.8123 12.0799,-18.365 A2.2528,2.2528 0 0 1 16.5827,-18.5253 ZM12.565,-15.8575 T13.1441,-16.2754 14.6283,-17.8804 17.096,-20.4951 19.7794,-22.9839 21.6738,-24.5008 22.4474,-24.9564 A2.1999,2.1999 0 0 1 24.5098,-21.0699 T24.2231,-20.9628 22.8044,-19.7479 20.4808,-17.6148 18.2874,-15.2175 16.3558,-13.0592 15.4261,-12.2729 A2.2932,2.2932 0 0 1 12.565,-15.8575 ZM24.189,-25.0951 T24.4693,-25.0023 24.7495,-24.9094 A2.2051,2.2051 0 0 1 23.3253,-20.7354 T23.0467,-20.8333 22.7682,-20.9311 A2.1999,2.1999 0 0 1 24.189,-25.0951 ZM26.1097,-22.0687 T25.6619,-20.8366 24.1085,-17.5477 23.003,-15.491 A2.3001,2.3001 0 0 1 18.9287,-17.6267 T20.1205,-19.7051 21.6387,-22.6798 21.9651,-23.5762 A2.2051,2.2051 0 0 1 26.1097,-22.0687 ZM21.5979,-14.3473 T21.3898,-14.2883 21.1818,-14.2293 A2.2992,2.2992 0 0 1 19.9182,-18.6507 T20.1261,-18.7105 20.3339,-18.7704 A2.3001,2.3001 0 0 1 21.5979,-14.3473 ZM18.7075,-17.8152 T19.286,-18.5594 21.2805,-20.9521 24.1464,-24.2004 26.8146,-26.9263 28.033,-28.0525 A2.1513,2.1513 0 0 1 31.0058,-24.9422 T29.7403,-23.7351 27.2537,-21.0842 24.9261,-18.3393 23.106,-16.0516 22.3925,-15.0648 A2.2992,2.2992 0 0 1 18.7075,-17.8152 ZM31.5515,-27.2036 T31.6194,-27.0132 31.6873,-26.8228 A2.1545,2.1545 0 0 1 27.617,-25.4082 T27.5522,-25.5996 27.4873,-25.7911 A2.1513,2.1513 0 0 1 31.5515,-27.2036 ZM31.5368,-25.0714 T31.0002,-24.0723 29.4728,-20.9831 27.6306,-17.1435 26.6097,-14.8112 26.4401,-14.2283 A2.3733,2.3733 0 0 1 21.9446,-15.7516 T22.7682,-17.5571 24.3351,-20.6425 25.8399,-23.5191 27.1844,-26.1377 27.7675,-27.1596 A2.1545,2.1545 0 0 1 31.5368,-25.0714 ZM26.0641,-16.4491 T26.1747,-16.3072 26.2854,-16.1654 A2.3735,2.3735 0 0 1 22.5416,-13.2469 T22.4311,-13.3889 22.3206,-13.5308 A2.3733,2.3733 0 0 1 26.0641,-16.4491 ZM22.6066,-16.2451 T23.5921,-17.3848 25.6314,-19.8044 28.1733,-22.625 30.8838,-25.5197 32.8822,-27.3814 33.6585,-27.8891 A2.1875,2.1875 0 0 1 35.8978,-24.1306 T35.6043,-24.0009 34.2544,-22.6453 31.8305,-19.9434 29.2524,-16.9043 27.1312,-14.2542 26.2205,-13.1673 A2.3735,2.3735 0 0 1 22.6066,-16.2451 ZM36.927,-25.6007 T36.7108,-24.4757 35.6873,-21.4724 33.9532,-17.5789 32.0646,-13.503 29.984,-9.6448 28.8651,-7.8473 A2.563,2.563 0 0 1 24.5749,-10.6527 T25.614,-12.1553 27.7094,-15.6607 29.7647,-19.5914 31.5424,-23.1495 32.4752,-25.5994 32.6292,-26.419 A2.1875,2.1875 0 0 1 36.927,-25.6007 ZM24.9465,-11.1004 T25.4722,-11.5972 27.0729,-13.7255 29.1091,-16.5101 31.0738,-18.7434 33.0242,-21.0136 35.7073,-24.1432 37.7917,-26.6683 38.14,-27.2542 A2.2567,2.2567 0 0 1 41.9786,-24.8803 T41.3929,-23.9558 39.2476,-21.194 36.6689,-17.9804 33.9855,-14.6014 31.0177,-10.5912 29.1039,-7.9916 28.4935,-7.3996 A2.563,2.563 0 0 1 24.9465,-11.1004 ZM40.8283,-28.1888 T41.0751,-28.1014 41.3219,-28.014 A2.2605,2.2605 0 0 1 39.7812,-23.7636 T39.5357,-23.8546 39.2903,-23.9456 A2.2567,2.2567 0 0 1 40.8283,-28.1888 ZM42.6163,-24.9685 T42.2002,-24.0118 41.2459,-21.6949 39.8974,-18.4099 38.1157,-14.7884 36.9131,-11.77 36.682,-10.4484 A2.5096,2.5096 0 0 1 31.7457,-11.3562 T32.3049,-13.4073 33.8134,-16.9709 35.5208,-20.1041 36.9711,-23.3665 38.0752,-25.9086 38.4868,-26.8091 A2.2605,2.2605 0 0 1 42.6163,-24.9685 ZM32.3059,-12.5325 T33.0014,-13.3337 35.5064,-16.0826 38.9702,-19.8994 41.9955,-23.4506 43.4721,-25.3997 43.5778,-25.6669 A2.292,2.292 0 0 1 47.5445,-23.3692 T47.0408,-22.5844 45.4735,-20.3768 42.6385,-16.824 39.2931,-12.9306 36.9205,-10.2198 36.1219,-9.2722 A2.5096,2.5096 0 0 1 32.3059,-12.5325 ZM47.3744,-25.92 T47.5364,-25.7135 47.6985,-25.507 A2.2958,2.2958 0 0 1 44.066,-22.6984 T43.9069,-22.9072 43.7479,-23.116 A2.292,2.292 0 0 1 47.3744,-25.92 ZM48.1028,-23.5198 T47.947,-22.9112 46.9728,-20.7174 45.5488,-17.6836 44.0933,-14.1092 42.8059,-10.3724 42.3685,-8.7611 A2.5574,2.5574 0 0 1 37.2926,-9.3902 T37.5708,-10.8969 38.7345,-13.9902 40.3341,-17.5507 42.1974,-21.5205 43.5042,-24.101 43.6617,-24.6856 A2.2958,2.2958 0 0 1 48.1028,-23.5198 ZM38.0475,-10.9089 T38.9813,-11.8082 41.3021,-14.5552 44.1536,-18.2025 47.9232,-21.733 50.2284,-23.4639 A2.4061,2.4061 0 0 1 52.6037,-19.2788 T51.6007,-18.7653 49.1982,-16.6338 46.4431,-13.4102 44.308,-10.4636 42.571,-8.1826 41.6136,-7.2424 A2.5574,2.5574 0 0 1 38.0475,-10.9089 ZM53.702,-20.6206 T53.4158,-19.7441 52.3056,-17.0972 50.1029,-13.2463 46.916,-8.8747 45.1077,-6.5836 A2.5439,2.5439 0 0 1 41.2123,-9.8564 T42.8457,-11.8376 45.7784,-15.6519 47.8769,-19.1171 48.903,-21.4357 49.13,-22.122 A2.4061,2.4061 0 0 1 53.702,-20.6206 ZM41.2971,-9.9523 T42.2628,-10.9541 44.5849,-13.8826 47.0367,-17.3426 49.3175,-20.4317 50.503,-21.9876 A2.3882,2.3882 0 0 1 54.317,-19.1124 T53.7346,-18.3315 52.0979,-15.9638 49.8773,-12.6979 47.5147,-9.4865 45.6706,-7.2209 45.0229,-6.4877 A2.5439,2.5439 0 0 1 41.2971,-9.9523 ZM54.7968,-20.4683 T54.7809,-19.9372 54.765,-19.4061 A2.3927,2.3927 0 0 1 49.9823,-19.5698 T50.0028,-20.1007 50.0232,-20.6317 A2.3882,2.3882 0 0 1 54.7968,-20.4683 ZM54.0632,-17.7937 T53.5916,-17.3159 52.3338,-15.4607 50.5894,-11.9964 49.6312,-9.9094 A2.5043,2.5043 0 0 1 45.0253,-11.8768 T46.1611,-14.2046 48.5049,-18.3806 50.1985,-20.7055 50.6841,-21.1823 A2.3927,2.3927 0 0 1 54.0632,-17.7937 ZM46.3881,-13.2142 T47.1814,-13.5101 49.6128,-14.9447 52.9106,-17.2811 56.2196,-19.4616 59.0317,-20.6551 60.1943,-20.8659 A2.4186,2.4186 0 0 1 60.3738,-16.032 T59.5928,-15.6592 57.3714,-14.4444 54.4138,-12.5612 51.7176,-10.5312 49.4034,-9.0572 48.2684,-8.572 A2.5043,2.5043 0 0 1 46.3881,-13.2142 ZM62.6911,-18.2129 T62.5454,-16.8013 62.2781,-14.3392 62.1565,-13.2888 A2.4541,2.4541 0 0 1 57.2916,-13.9389 T57.4927,-15.3029 57.7854,-17.6759 57.877,-18.6849 A2.4186,2.4186 0 0 1 62.6911,-18.2129 ZM60.3863,-15.9769 T60.6001,-15.9152 60.8138,-15.8535 A2.4506,2.4506 0 0 1 59.4913,-11.1341 T59.2766,-11.1925 59.0619,-11.2508 A2.4541,2.4541 0 0 1 60.3863,-15.9769 ZM58.9735,-15.6421 T60.0266,-16.2075 62.7177,-17.5171 64.3558,-18.2614 A2.4167,2.4167 0 0 1 65.6682,-13.6096 T64.5053,-13.0419 62.337,-11.9099 61.3317,-11.3455 A2.4506,2.4506 0 0 1 58.9735,-15.6421 ZM66.5924,-17.7639 T67.0179,-17.4014 67.4433,-17.0388 A2.4247,2.4247 0 0 1 64.2721,-13.3701 T63.8519,-13.7387 63.4316,-14.1072 A2.4167,2.4167 0 0 1 66.5924,-17.7639 ZM68.2815,-15.1379 T68.2292,-14.1076 68.8381,-13.468 69.4992,-13.8586 A2.4426,2.4426 0 0 1 69.1237,-8.9879 T67.4899,-9.2876 64.634,-11.1529 63.4229,-13.9947 63.434,-15.2711 A2.4247,2.4247 0 0 1 68.2815,-15.1379 ZM66.9678,-12.1112 T67.3226,-13.0589 67.6775,-14.0066 A2.2955,2.2955 0 0 1 72.0825,-12.7134 T71.8688,-11.7243 71.6551,-10.7353 A2.4426,2.4426 0 0 1 66.9678,-12.1112 Z" stroke-linecap="round" fill="#4dabf7"/></g></g><g transform="matrix(1, 0, 0, 1, 364.7616, -98.9035) scale(1.027622776751141, 1.027622776751141)" opacity="1"><g transform="scale(0.9731197309206485)"><path d="M0,-2.7094 T1.2156,-2.7059 4.0227,-2.6974 7.1707,-2.6895 10.272,-2.6883 13.887,-2.6942 16.5288,-2.9005 17.1001,-3.1023 A2.7073,2.7073 0 0 1 18.5008,2.1279 T17.2529,2.4133 13.9108,2.6942 10.272,2.6883 7.1707,2.6895 4.0227,2.6974 1.2156,2.7059 0,2.7094 A2.7094,2.7094 0 0 1 0,-2.7094 ZM20.0948,-1.9243 T20.9231,-0.4912 21.9328,2.5888 22.4864,6.3296 22.0909,10.1987 19.743,12.8011 16.2191,14.1298 12.3145,14.7977 8.3966,15.0137 4.7654,15.0779 3.091,15.0926 A2.7626,2.7626 0 0 1 3.069,9.5674 T4.7257,9.5688 8.2451,9.5424 11.8888,9.3744 15.2339,7.8227 16.6575,4.3769 16.0117,1.6463 15.5061,0.9499 A2.7073,2.7073 0 0 1 20.0948,-1.9243 ZM2.1069,9.7445 T2.4618,9.6554 4.2793,9.1393 7.4091,7.9124 10.428,6.2409 11.7796,5.3692 A2.7365,2.7365 0 0 1 14.6674,10.0183 T12.4953,11.2485 8.1292,13.2985 4.9941,14.5169 4.0531,14.9155 A2.7626,2.7626 0 0 1 2.1069,9.7445 ZM10.5823,6.9781 T10.6153,6.8592 10.6483,6.7403 A2.7349,2.7349 0 0 1 15.9278,8.1707 T15.8963,8.29 15.8647,8.4094 A2.7365,2.7365 0 0 1 10.5823,6.9781 ZM13.0161,10.1768 T12.1009,10.0806 9.9085,10.0672 8.6313,10.1502 A2.7096,2.7096 0 0 1 8.027,4.7649 T9.7903,4.654 12.5569,4.6387 13.5601,4.7341 A2.7349,2.7349 0 0 1 13.0161,10.1768 ZM5.8202,8.4808 T5.7948,8.4174 5.7694,8.3539 A2.7087,2.7087 0 0 1 10.7856,6.3081 T10.8118,6.3712 10.8381,6.4343 A2.7096,2.7096 0 0 1 5.8202,8.4808 ZM6.5309,5.2606 T7.5645,4.3995 8.5981,3.5383 A2.6921,2.6921 0 0 1 12.07,7.6537 T11.0471,8.5275 10.0241,9.4013 A2.7087,2.7087 0 0 1 6.5309,5.2606 ZM7.6607,5.9129 T7.6483,5.8051 7.6359,5.6972 A2.6913,2.6913 0 0 1 12.9811,5.0634 T12.9943,5.1712 13.0075,5.279 A2.6921,2.6921 0 0 1 7.6607,5.9129 ZM10.0753,8.0615 T9.1147,7.9695 6.0792,7.3904 1.8745,6.1357 -0.2553,5.3682 A2.3024,2.3024 0 0 1 0.2553,0.7918 T2.6478,1.0155 6.7559,1.8875 9.5066,2.6175 10.5417,2.6991 A2.6913,2.6913 0 0 1 10.0753,8.0615 Z" stroke-linecap="round" fill="#4dabf7"/></g></g><g transform="matrix(1, 0, 0, 1, 397.6455, -94.7931) scale(1.027622776751141, 1.027622776751141)" opacity="1"><g transform="scale(0.9731197309206485)"><path d="M0.4072,-2.0318 T1.6205,-1.7786 4.9022,-1.3429 9.2592,-1.1169 14.3234,-1.4421 19.5545,-2.2894 20.9581,-4.0509 18.0044,-6.3717 14.9657,-8.0819 13.8287,-8.7545 A2.1589,2.1589 0 0 1 15.5188,-12.7278 T16.874,-11.947 20.2868,-10.0202 23.734,-7.6745 25.9737,-5.0322 25.8796,-1.5463 22.8231,1.114 17.6936,2.1512 13.088,2.8105 9.1072,2.9843 4.3718,2.7093 0.8107,2.2658 -0.4072,2.0318 A2.0722,2.0722 0 0 1 0.4072,-2.0318 ZM16.5125,-9.6097 T16.4462,-9.5002 16.3799,-9.3906 A2.1609,2.1609 0 0 1 12.6992,-11.6555 T12.7671,-11.764 12.8351,-11.8726 A2.1589,2.1589 0 0 1 16.5125,-9.6097 ZM15.643,-12.3809 T16.2988,-11.9885 18.6742,-10.7796 22.1583,-8.8939 25.1827,-5.5637 26.6494,-1.8386 26.1135,1.4217 24.0879,4.3835 20.9511,6.5184 18.2498,7.8566 17.4023,8.2251 A2.2692,2.2692 0 0 1 15.4777,4.1149 T16.3034,3.6999 18.9362,2.3427 21.3542,-0.3363 21.0648,-3.5758 18.5961,-6.0017 15.6919,-7.5246 13.8962,-8.3948 13.4361,-8.6651 A2.1609,2.1609 0 0 1 15.643,-12.3809 Z" stroke-linecap="round" fill="#4dabf7"/></g></g><g transform="matrix(1, 0, 0, 1, 36.9499, -50.6053) scale(1.027622776751141, 1.027622776751141)" opacity="1"><g transform="scale(0.9731197309206485)"><path d="M0.7669,-2.297 T2.2248,-1.8065 5.4895,-0.9792 9.2298,-0.5511 13.5548,-0.4375 17.8233,-0.6191 21.9757,-1.0306 25.4086,-1.2993 26.5661,-1.3605 A2.3955,2.3955 0 0 1 26.8739,3.4205 T25.7181,3.5082 22.6707,3.7759 18.3405,4.2222 13.4434,4.4505 8.8223,4.2859 4.407,3.7121 0.6937,2.7809 -0.7669,2.297 A2.4216,2.4216 0 0 1 0.7669,-2.297 Z" stroke-linecap="round" fill="#e599f7"/></g></g><g transform="matrix(1, 0, 0, 1, 61.6129, -48.55) scale(1.027622776751141, 1.027622776751141)" opacity="1"><g transform="scale(0.9731197309206485)"><path d="M-1.7426,-0.2909 T-1.4676,-1.7477 -0.5993,-5.2476 0.4082,-9.4118 1.0047,-13.6553 1.2034,-18.3619 1.1886,-23.5147 0.9148,-27.5472 0.394,-30.8018 0.1157,-32.5925 A1.9654,1.9654 0 0 1 4.0043,-33.1675 T4.2561,-31.3728 4.7412,-27.8241 4.9065,-23.4743 4.7228,-18.2177 4.3134,-13.086 3.6361,-8.6403 2.7097,-4.6489 1.9548,-1.1707 1.7426,0.2909 A1.7667,1.7667 0 0 1 -1.7426,-0.2909 Z" stroke-linecap="round" fill="#e599f7"/></g></g><g transform="matrix(1, 0, 0, 1, 337.0158, -73.213) scale(1.027622776751141, 1.027622776751141)" opacity="1"><g transform="scale(0.9731197309206485)"><path d="M1.143,2.173 T0.4085,2.8953 -1.5353,4.8119 -3.8215,7.0774 -6.2964,9.2866 -8.8386,11.3968 -11.403,13.7502 -14.3117,16.3553 -17.2027,18.8182 -20.2105,21.3647 -23.3088,24.1142 -26.3195,27.0815 -29.2681,30.308 -32.2443,33.6532 -35.4108,36.8275 -38.921,40.0013 -42.391,43.1755 -45.6398,46.1096 -48.7805,49.058 -52.1162,52.6356 -55.6822,56.2955 -59.3071,59.597 -62.8953,62.7509 -66.424,66.1892 -69.9479,70.0749 -73.5628,73.8166 -77.4836,77.5734 -81.5878,81.4013 -85.6808,85.0741 -89.7785,88.7055 -93.873,92.3243 -97.9686,95.9436 -102.0599,99.5619 -106.0902,103.0016 -110.5692,106.3295 -115.0758,109.8221 -119.3773,113.5109 -123.8681,117.2209 -128.6548,121.0813 -132.268,124.0624 -134.4713,126.0328 -136.9415,128.1248 -139.4569,130.2085 -142.1197,132.1203 -146.061,135.1762 -149.6132,138.3332 -152.192,140.4614 -155.1007,142.6313 -157.7554,144.6751 -160.3658,146.7301 -162.9527,148.7872 -165.4244,151.0015 -167.9389,153.38 -170.5833,155.6983 -173.1933,157.8965 -175.7856,160.0265 -178.3615,162.1239 -180.9311,164.2033 -183.4023,166.424 -186.0347,168.6626 -190.0307,171.854 -193.6255,175.0625 -195.9162,177.2615 -198.0904,179.3928 -200.2026,181.4919 -202.2804,183.5781 -204.6934,185.7525 -207.3216,187.7449 -210.5744,190.3561 -214.6208,194.0789 -217.8323,196.941 -220.7182,199.3537 -224.4154,202.5221 -227.9895,205.682 -231.0598,208.5281 -234.0648,211.3447 -237.3025,214.2501 -240.4976,217.1065 -243.113,219.9019 -245.6795,222.6334 -248.3254,225.3276 -250.6144,227.7655 -253.1816,230.0992 -256.5934,233.1741 -259.7028,236.1021 -261.9445,238.2051 -264.4885,240.4325 -267.5795,243.0359 -270.7328,245.9526 -273.827,249.0015 -276.9151,252.0792 -279.4997,254.6534 -282.4733,257.2181 -285.9426,260.2252 -288.2501,262.3692 -289.0186,263.0357 A2.7033,2.7033 0 0 1 -292.6214,259.0043 T-291.8731,258.3153 -289.836,256.3323 -287.3986,253.9484 -284.8318,251.7838 -281.8771,249.1676 -278.7941,246.0818 -276.2048,243.4992 -274.081,241.4118 -271.7858,239.2614 -268.7442,236.7043 -265.7966,234.1652 -263.3535,231.8936 -260.6553,229.3102 -257.9833,226.9719 -255.6563,224.9827 -253.5693,222.8261 -251.0528,220.0664 -248.4095,217.3487 -245.6622,214.7523 -242.4819,211.7383 -239.3078,208.7117 -236.1444,205.6429 -233.088,202.9427 -229.8503,200.1314 -226.3295,196.8668 -222.5913,193.6254 -219.5367,190.9877 -217.4122,188.9552 -215.2207,186.9423 -211.8299,184.2559 -208.3781,181.639 -206.1521,179.6771 -204.0407,177.6033 -201.8924,175.4977 -199.6713,173.3391 -197.3106,171.087 -194.6582,168.6388 -190.7881,165.5871 -186.9819,162.4162 -184.314,160.0237 -181.7454,157.9628 -179.1845,155.8927 -176.6341,153.8035 -174.0988,151.6845 -171.5933,149.4996 -168.9489,147.0221 -166.2447,144.6352 -163.6237,142.5748 -160.9651,140.5055 -158.2261,138.4123 -155.5133,136.4209 -152.963,134.3416 -150.4304,132.2357 -146.5503,129.266 -142.7147,126.2407 -140.2412,124.2219 -137.8493,122.2182 -135.4399,120.1058 -132.8991,118.0929 -130.3911,116.1057 -127.9509,114.1715 -124.685,111.6573 -121.5435,109.0202 -119.3077,106.9904 -116.9175,104.9836 -113.4719,102.5174 -109.2429,99.462 -105.05,95.9633 -100.9191,92.3902 -96.7955,88.8146 -92.6733,85.2347 -88.5625,81.6535 -84.4773,78.0549 -80.5118,74.4168 -76.7537,70.9317 -73.1724,67.296 -69.501,63.3172 -65.8376,59.8243 -62.2375,56.7291 -58.6873,53.5669 -55.1169,49.9902 -51.4558,46.2103 -48.119,43.1285 -45.0059,40.3792 -41.598,37.372 -38.1267,34.3348 -34.8709,31.1746 -31.684,27.7486 -28.4704,24.3855 -25.3224,21.4089 -22.2824,18.7856 -19.2341,16.2695 -16.3482,13.8708 -13.5689,11.414 -10.7743,8.9088 -8.2955,6.8749 -6.0498,4.8515 -3.7819,2.5653 -1.8653,0.6215 -1.143,-0.113 A1.6165,1.6165 0 0 1 1.143,2.173 Z" stroke-linecap="round" fill="#f76707"/></g></g><g transform="matrix(1, 0, 0, 1, 32.8394, -78.3511) scale(1.027622776751141, 1.027622776751141)" opacity="1"><g transform="scale(0.9731197309206485)"><path d="M2.2505,0 T2.2347,1.4592 2.2083,5.0766 2.1955,9.1901 2.2011,12.9291 2.2187,16.5653 2.2422,20.4166 2.2704,24.9134 2.2999,29.5028 2.3304,34.1158 2.7195,38.5934 3.2131,42.3421 3.3781,46.1248 3.4466,49.7808 3.4915,53.1503 3.5372,56.8115 3.9317,60.797 4.4447,64.5039 4.6314,67.7619 4.6889,70.8572 5.1565,74.3576 5.6791,77.8392 5.7693,80.862 5.7999,83.9227 6.1761,87.7461 6.6614,91.7722 6.8132,95.8571 6.857,100.0914 6.8711,103.6181 7.0978,107.4319 7.537,111.7924 7.8141,115.9838 7.8906,119.9 7.9068,124.3248 7.9061,129.0215 7.9037,133.0508 7.9015,136.5252 7.8978,140.1208 8.3327,144.7422 8.8265,149.2014 8.8976,152.8707 8.9116,156.5914 9.2782,160.068 9.7588,163.6419 9.9012,167.2567 10.3854,171.2552 10.9076,175.2203 10.9923,178.3856 11.4608,182.0527 11.978,185.8216 12.0592,188.9966 12.5303,192.5145 13.0581,196.6272 13.1519,200.5724 13.1817,204.2503 13.4034,207.82 13.8396,211.515 14.1302,215.5263 14.2059,219.2616 14.2136,223.1303 14.2143,227.3016 14.2098,231.4525 13.824,235.2835 13.3364,239.0198 13.2116,243.1081 13.1904,246.671 13.1861,250.2623 13.1842,253.86 13.1865,257.4577 13.1821,261.6319 12.7502,265.3046 12.1397,267.761 11.9538,268.6444 A2.7385,2.7385 0 0 1 6.5462,267.7756 T6.9657,265.6701 7.378,261.5484 7.3736,257.4576 7.3761,253.8594 7.3758,250.2586 7.3773,246.6559 7.396,243.0177 7.4723,239.2673 7.9633,235.5504 8.3899,231.3938 8.3846,227.3034 8.3795,223.1406 8.3661,219.3203 8.2983,215.7846 8.0724,212.3142 7.6355,209.2534 7.3644,205.8434 7.3611,202.2233 7.3394,198.5729 7.2001,194.7439 6.732,191.0879 6.362,187.7771 6.1929,184.2954 5.7197,180.3225 5.3729,176.8417 5.1771,173.4134 4.6929,169.5341 4.334,165.9439 4.1697,162.5318 3.7327,158.8332 3.4018,154.7272 3.3655,150.9461 3.2536,147.5847 2.7773,143.986 2.3821,140.1459 2.3782,136.5257 2.3751,133.0522 2.3697,129.026 2.3583,124.341 2.3358,119.9661 2.2731,116.2535 2.0488,112.5137 1.6072,107.9396 1.3411,103.6305 1.3348,100.1254 1.3051,95.994 1.1063,91.5142 0.6379,87.3803 0.3453,83.9442 0.3374,80.9424 0.2365,77.5807 -0.2254,74.1146 -0.5971,70.9742 -0.613,67.9381 -0.7733,64.6753 -1.2113,60.8308 -1.4793,56.8146 -1.4394,53.1603 -1.4148,49.8124 -1.4196,46.2431 -1.5186,42.7256 -1.9755,38.8965 -2.3304,34.1294 -2.2999,29.5028 -2.2704,24.9134 -2.2422,20.4166 -2.2187,16.5653 -2.2011,12.9291 -2.1955,9.1901 -2.2083,5.0766 -2.2347,1.4592 -2.2505,0 A2.2505,2.2505 0 0 1 2.2505,0 Z" stroke-linecap="round" fill="#e599f7"/></g></g><g transform="matrix(1, 0, 0, 1, 30.7842, -77.3235) scale(1.027622776751141, 1.027622776751141)" opacity="1"><g transform="scale(0.9731197309206485)"><path d="M0.6068,-2.112 T1.8263,-2.3379 5.3941,-2.7623 9.8856,-3.0186 13.7362,-3.1019 17.4031,-3.1513 21.1483,-3.198 24.7862,-3.2459 28.3956,-3.2942 31.997,-3.3432 35.8373,-3.3964 40.3306,-3.4531 44.6754,-3.5008 48.0842,-3.7425 51.8712,-4.2158 55.7627,-4.5211 59.4923,-5.0609 63.3162,-5.6208 66.928,-5.7324 70.5327,-5.7952 74.1285,-5.8451 77.9679,-5.8906 81.6319,-5.9303 85.59,-5.6866 89.819,-5.2855 93.4634,-4.7207 97.2486,-4.1847 100.9082,-3.6821 104.409,-3.214 108.2704,-3.1176 112.2878,-2.7142 116.0917,-2.2477 119.7897,-2.1444 124.6066,-1.8477 129.2878,-1.4077 133.6131,-1.1976 138.3013,-0.8504 142.1991,-0.407 145.6254,-0.2186 148.9431,-0.1612 151.9707,0.1309 155.0686,0.5708 158.5019,0.7706 162.1261,0.8196 166.4791,0.8284 170.7887,0.8275 174.5846,0.8249 178.2353,0.8222 182.2177,0.8196 186.6643,0.8173 190.497,0.8142 194.1593,0.8046 197.9013,0.79 201.5372,0.7774 205.6307,0.7682 210.1081,0.7635 214.2073,0.7628 217.9447,0.7653 221.8228,0.7689 225.8684,0.775 230.3301,0.4264 234.9122,-0.0412 238.9074,-0.182 242.8567,-0.2153 247.1508,-0.2205 250.8451,-0.5743 254.2307,-1.0457 257.9944,-1.1943 261.7665,-1.2368 265.9063,-1.2508 270.283,-1.2567 274.4696,-1.2598 278.1006,-1.2616 281.2065,-1.2641 284.2949,-1.2671 287.9412,-1.2669 292.1103,-1.264 295.6751,-1.2629 299.2664,-1.266 303.3745,-1.559 305.3916,-1.8493 A2.9989,2.9989 0 0 1 307.0684,3.9093 T306.1596,4.2609 303.3041,5.0006 299.2664,5.386 295.6751,5.3829 292.1103,5.384 287.9413,5.3869 284.295,5.3871 281.2066,5.3841 278.1009,5.3817 274.4706,5.3804 270.2865,5.3789 265.9171,5.3785 261.8088,5.3848 258.1839,5.415 254.8424,5.5282 251.3428,5.9997 247.1997,6.3884 242.9063,6.4035 239.0666,6.4436 235.4691,6.5667 231.568,7.0463 227.6842,7.4393 223.8341,7.4479 219.8463,7.4528 216.1763,7.4566 212.3155,7.4576 207.7683,7.4551 203.4234,7.4482 199.8069,7.437 196.1344,7.4244 192.2603,7.4109 188.5377,7.4035 184.4915,7.4016 180.2049,7.399 176.3363,7.3958 172.6331,7.3914 168.6548,7.3836 164.1371,7.3635 159.9105,7.312 156.3037,7.1525 152.4567,6.6578 148.8259,6.2671 145.3296,6.1837 141.1827,5.8651 137.4523,5.3987 133.3816,5.1227 128.471,4.8261 123.9441,4.3661 119.6619,4.1006 115.5774,3.934 111.8124,3.4286 108.1143,3.0113 103.8178,2.8314 99.5634,2.2847 95.9021,1.7292 91.7876,1.0786 87.9562,0.4034 84.9047,0.0091 81.6323,-0.2294 77.9695,-0.2682 74.1351,-0.3106 70.5533,-0.3495 67.0126,-0.3725 63.595,-0.3407 59.8819,0.1182 56.1139,0.5937 52.6588,0.7893 48.7007,1.1953 44.6754,1.4408 40.3306,1.3931 35.8374,1.3364 31.9971,1.2833 28.396,1.2345 24.7876,1.1871 21.1526,1.1422 17.4184,1.1061 13.786,1.0954 10.0536,1.1512 5.9399,1.3959 2.665,1.8507 1.4532,2.112 A2.154,2.154 0 0 1 0.6068,-2.112 Z" stroke-linecap="round" fill="#40c057"/></g></g><g transform="matrix(1, 0, 0, 1, 180.3695, -63.5501) scale(0.7753355164227579, 0.7753355164227579)" opacity="1"><g transform="scale(1.2897642102270754)"><path d="M1.4087,1.0588 T0.8664,1.7982 -0.5025,3.9687 -2.4148,6.816 -4.3637,9.3393 -6.1231,11.5217 -8.4083,13.6036 -9.7973,14.6102 A1.7758,1.7758 0 0 1 -11.9027,11.7498 T-11.2686,11.2616 -9.4706,9.5645 -7.3042,7.0858 -5.4003,4.707 -3.5136,1.9966 -1.9684,-0.3319 -1.4087,-1.0588 A1.7622,1.7622 0 0 1 1.4087,1.0588 Z" stroke-linecap="round" fill="#40c057"/></g></g><g transform="matrix(1, 0, 0, 1, 169.5148, -64.3254) scale(0.7753355164227579, 0.7753355164227579)" opacity="1"><g transform="scale(1.2897642102270754)"><path d="M2.1392,-1.3592 T2.8718,-0.6237 4.7934,1.7874 7.1111,4.9841 9.3151,7.7645 11.5889,10.1243 13.5638,11.8391 14.3401,12.4535 A1.9014,1.9014 0 0 1 12.0199,15.4665 T11.2276,14.873 8.9454,12.9387 6.222,10.1266 3.8544,7.0951 1.8043,4.1779 0.1545,2.09 -0.5792,1.3592 A1.9222,1.9222 0 0 1 2.1392,-1.3592 Z" stroke-linecap="round" fill="#40c057"/></g></g><g transform="matrix(1, 0, 0, 1, 207.5062, 76.7856) scale(0.7753355164227579, 0.7753355164227579)" opacity="1"><g transform="scale(1.2897642102270754)"><path d="M0.2997,1.7865 T-0.8014,1.9464 -3.2522,2.9466 -4.6308,5.1614 -3.3764,7.684 -1.2777,9.7899 0.0694,11.8811 0.7641,14.4013 0.0515,17.3928 -2.4944,19.8557 -6.0602,20.399 -9.1485,19.3553 -11.0191,18.2221 -11.697,17.8174 A1.7553,1.7553 0 0 1 -10.003,14.7426 T-9.2987,15.0994 -6.8885,16.2718 -3.9288,16.5195 -2.7595,14.6659 -3.806,12.2473 -5.7247,10.2762 -7.3899,7.895 -8.0383,4.8516 -6.8717,1.7328 -4.1307,-0.627 -1.398,-1.5774 -0.2997,-1.7865 A1.8114,1.8114 0 0 1 0.2997,1.7865 Z" stroke-linecap="round" fill="#f76707"/></g></g><g transform="matrix(1, 0, 0, 1, 22.201, 39.5695) scale(0.7753355164227579, 0.7753355164227579)" opacity="1"><g transform="scale(1.2897642102270754)"><path d="M1.0551,1.0551 T0.3417,1.8094 -1.8979,3.8679 -4.748,6.4387 -8.0001,9.101 -9.9281,10.4967 A1.5106,1.5106 0 0 1 -11.7719,8.1033 T-10.066,6.6997 -6.9669,4.0048 -4.0674,1.5412 -1.808,-0.3431 -1.0551,-1.0551 A1.4922,1.4922 0 0 1 1.0551,1.0551 Z" stroke-linecap="round" fill="#e599f7"/></g></g><g transform="matrix(1, 0, 0, 1, 13.6723, 40.3449) scale(0.7753355164227579, 0.7753355164227579)" opacity="1"><g transform="scale(1.2897642102270754)"><path d="M1.6698,0.2234 T2.0509,1.317 3.1609,3.8036 4.7883,6.0411 6.8538,7.9921 8.581,9.7741 9.1414,10.4495 A1.8247,1.8247 0 0 1 6.3586,12.8105 T5.7835,12.1476 4.1133,10.5018 1.815,8.2 -0.177,5.2146 -1.3178,2.4424 -1.6698,1.3366 A1.7601,1.7601 0 0 1 1.6698,0.2234 Z" stroke-linecap="round" fill="#e599f7"/></g></g><g transform="matrix(1, 0, 0, 1, 36.1571, 190.7599) scale(0.7753355164227579, 0.7753355164227579)" opacity="1"><g transform="scale(1.2897642102270754)"><path d="M1.1436,1.1436 T0.3997,1.8674 -1.6527,3.778 -4.1035,6.1719 -6.2168,8.3715 -7.9292,10.2888 -9.5933,12.2876 -11.9375,14.6644 -13.981,16.3946 -14.6034,16.8221 A1.5949,1.5949 0 0 1 -16.4166,14.1979 T-15.7966,13.767 -14.0828,12.3519 -12.1068,10.3894 -10.3097,8.3001 -8.4341,6.2113 -6.3908,4.0771 -3.9483,1.6311 -1.866,-0.4011 -1.1436,-1.1436 A1.6173,1.6173 0 0 1 1.1436,1.1436 Z" stroke-linecap="round" fill="#e03131"/></g></g><g transform="matrix(1, 0, 0, 1, 35.3817, 189.2093) scale(0.7753355164227579, 0.7753355164227579)" opacity="1"><g transform="scale(1.2897642102270754)"><path d="M1.1112,-1.1112 T1.8508,-0.3845 3.5103,1.0894 5.3916,2.6046 7.6096,4.0766 10.3297,5.4804 12.7912,6.6172 13.7893,7.0542 A1.5967,1.5967 0 0 1 12.5707,10.0058 T10.5664,9.2245 6.9635,7.4712 4.0411,5.541 1.5299,3.5866 -0.3845,1.8508 -1.1112,1.1112 A1.5715,1.5715 0 0 1 1.1112,-1.1112 Z" stroke-linecap="round" fill="#e03131"/></g></g><g transform="matrix(1, 0, 0, 1, 47.7871, 196.1873) scale(0.7753355164227579, 0.7753355164227579)" opacity="1"><g transform="scale(1.2897642102270754)"><path d="M1.28,0.9621 T0.7198,1.6884 -0.9881,3.7081 -3.612,6.2376 -6.3513,8.591 -8.7956,10.8579 -11.4427,13.1733 -13.9606,15.4521 -16.5096,17.8152 -18.5976,19.4937 -19.1886,19.9221 A1.6326,1.6326 0 0 1 -21.1314,17.2979 T-20.1822,16.6135 -17.8916,14.6872 -15.5555,12.4897 -13.5012,10.739 -11.1998,8.7633 -8.5566,6.3608 -5.788,4.0114 -3.3922,1.701 -1.8219,-0.2221 -1.28,-0.9621 A1.6012,1.6012 0 0 1 1.28,0.9621 Z" stroke-linecap="round" fill="#e03131"/></g></g><g transform="matrix(1, 0, 0, 1, 19.875, 206.2667) scale(0.7753355164227579, 0.7753355164227579)" opacity="1"><g transform="scale(1.2897642102270754)"><path d="M1.3983,-0.5586 T1.7769,0.3532 2.8358,2.3004 4.6059,4.548 6.7814,6.5116 7.8671,7.263 A1.5467,1.5467 0 0 1 6.0929,9.797 T5.4546,9.3552 3.7223,7.9907 1.8068,6.1033 0.1481,3.772 -1.0438,1.4821 -1.3983,0.5586 A1.5057,1.5057 0 0 1 1.3983,-0.5586 Z" stroke-linecap="round" fill="#e03131"/></g></g><g transform="matrix(1, 0, 0, 1, 36.9324, 197.738) scale(0.7753355164227579, 0.7753355164227579)" opacity="1"><g transform="scale(1.2897642102270754)"><path d="M0.9832,1.519 T0.4242,2.2459 -1.2996,4.3721 -3.5734,7.1213 -5.6709,9.8817 -6.6593,11.2922 A1.1982,1.1982 0 0 1 -8.5901,9.8729 T-7.5194,8.3953 -5.2704,5.4831 -3.0807,2.7842 -1.5263,0.7804 -0.9832,0.041 A1.2299,1.2299 0 0 1 0.9832,1.519 ZM-8.0233,9.4526 T-7.723,9.3579 -6.2278,7.8677 -3.7139,5.1408 -1.0915,2.5041 1.2271,0.176 2.2422,-0.8467 A1.2068,1.2068 0 0 1 3.9514,0.8576 T3.5982,1.2084 2.007,2.7956 -0.6507,5.4628 -3.1547,8.0102 -5.359,10.2766 -6.8525,11.5695 -7.2261,11.7125 A1.1982,1.1982 0 0 1 -8.0233,9.4526 ZM4.3036,0.0004 T4.3056,0.1836 4.3075,0.3668 A1.2092,1.2092 0 0 1 1.8891,0.3768 T1.8895,0.1936 1.89,0.0104 A1.2068,1.2068 0 0 1 4.3036,0.0004 ZM3.8306,1.3341 T3.4712,1.6098 2.2597,2.9683 0.2672,5.3686 -2.2381,8.3023 -4.8816,11.4613 -7.196,14.1729 -8.2319,15.342 A1.3728,1.3728 0 0 1 -10.1526,13.38 T-9.7068,12.9606 -8.1481,11.1353 -5.5652,8.1696 -3.3297,5.7061 -1.5033,3.6058 0.5888,1.191 1.9931,-0.3089 2.3661,-0.5905 A1.2092,1.2092 0 0 1 3.8306,1.3341 ZM-10.2494,13.4852 T-9.8779,13.0384 -8.3386,11.1084 -5.6151,8.082 -2.5303,5.035 0.5476,2.309 2.0965,1.0868 A1.2968,1.2968 0 0 1 3.5402,3.2414 T2.9005,3.6609 0.7935,5.3899 -1.497,7.6533 -3.6371,9.9347 -6.0689,12.6735 -7.6594,14.6608 -8.1351,15.2368 A1.3728,1.3728 0 0 1 -10.2494,13.4852 ZM3.5883,3.2076 T3.2966,3.4224 2.1362,4.5597 -0.0432,6.7373 -2.828,9.4781 -5.5993,12.1923 -7.9446,14.5753 -8.9929,15.7298 A1.4769,1.4769 0 0 1 -11.1671,13.7302 T-10.1304,12.6177 -7.6877,10.2314 -4.7574,7.4935 -1.8086,4.7251 0.5239,2.4986 1.7402,1.3485 2.0484,1.1207 A1.2968,1.2968 0 0 1 3.5883,3.2076 ZM-11.1439,13.7056 T-10.4257,12.9698 -8.4178,10.6298 -5.7285,7.423 -3.306,4.8829 -1.1935,3.0989 1.0246,1.4466 3.2968,-0.1437 5.2258,-1.7237 6.0108,-2.5195 A1.3709,1.3709 0 0 1 7.9492,-0.5805 T6.9891,0.3776 4.9155,2.1255 2.7289,3.7051 -0.1928,6.0626 -2.818,8.6196 -4.8818,10.9724 -6.9987,13.4181 -8.4221,15.1274 -9.0161,15.7544 A1.4769,1.4769 0 0 1 -11.1439,13.7056 ZM8.1609,-0.8537 T7.9421,-0.5015 6.5752,1.2241 4.0206,4.0672 1.121,7.0798 -1.8891,10.189 -5.1995,13.1563 -6.9931,14.5574 A1.5717,1.5717 0 0 1 -8.5069,11.8026 T-7.0323,10.7078 -3.9972,8.091 -0.912,5.0712 2.0116,2.1566 4.3002,-0.2181 5.4946,-1.7111 5.7991,-2.2463 A1.3709,1.3709 0 0 1 8.1609,-0.8537 ZM-8.7825,11.9951 T-8.4233,11.6915 -6.9169,10.0342 -4.5798,7.0721 -2.1393,3.9482 -0.028,1.3938 0.833,0.3547 A1.4612,1.4612 0 0 1 3.0912,2.2097 T2.3043,3.1768 0.245,5.7583 -2.1615,8.9712 -4.4829,12.0018 -6.1939,13.8993 -6.7175,14.3649 A1.5717,1.5717 0 0 1 -8.7825,11.9951 ZM2.6972,2.545 T1.9839,2.9586 -0.0483,4.3392 -2.3134,6.0092 -5.1698,8.0581 -8.4648,10.5815 -10.9601,12.1248 -12.0704,12.4906 A1.6196,1.6196 0 0 1 -12.9428,9.3711 T-11.6464,8.7937 -8.5951,6.984 -5.0497,4.3717 -1.8945,2.0185 0.3486,0.5324 1.227,0.0194 A1.4612,1.4612 0 0 1 2.6972,2.545 ZM-13.9985,10.3004 T-13.5221,9.21 -12.0482,6.6884 -9.9498,3.8786 -7.3234,1.0824 -4.2077,-1.8789 -2.6177,-3.4225 A1.5275,1.5275 0 0 1 -0.4823,-1.2375 T-2.0743,0.3287 -4.9939,3.1335 -7.4319,5.8075 -9.4472,8.5814 -10.6834,10.7407 -11.0148,11.5614 A1.6196,1.6196 0 0 1 -13.9985,10.3004 ZM-0.4733,-1.2464 T-0.9068,-0.8131 -2.5039,0.8034 -4.9206,3.2606 -7.3481,5.7362 -9.7341,7.9686 -10.9455,8.9993 A1.6498,1.6498 0 0 1 -12.8674,6.3173 T-11.8417,5.485 -9.6114,3.4733 -7.1355,1.0452 -4.6894,-1.3699 -3.0707,-2.975 -2.6267,-3.4136 A1.5275,1.5275 0 0 1 -0.4733,-1.2464 ZM-13.4024,6.9629 T-13.0953,6.3191 -11.7974,4.5614 -9.696,2.1304 -7.7096,-0.2857 -5.8179,-2.252 -4.8021,-3.1192 A1.5549,1.5549 0 0 1 -3.1959,-0.4563 T-3.818,0.0868 -5.4306,1.8891 -7.3091,4.2631 -9.0422,6.2865 -10.1489,7.7745 -10.4104,8.3538 A1.6498,1.6498 0 0 1 -13.4024,6.9629 ZM-2.6086,-2.4838 T-2.5803,-2.4276 -2.552,-2.3714 A1.5552,1.5552 0 0 1 -5.3334,-0.9791 T-5.3614,-1.0354 -5.3894,-1.0917 A1.5549,1.5549 0 0 1 -2.6086,-2.4838 ZM-2.51,-1.0704 T-2.6763,-0.6738 -3.7168,1.1421 -5.4215,3.7068 -7.3911,6.2173 -8.9601,8.5318 -9.3901,9.4811 A1.6455,1.6455 0 0 1 -12.3775,8.1003 T-11.6762,6.7705 -9.9507,4.2763 -8.0108,1.8827 -6.4034,-0.4175 -5.5436,-1.8844 -5.3755,-2.2802 A1.5552,1.5552 0 0 1 -2.51,-1.0704 ZM-11.9491,7.5366 T-11.2168,6.9228 -9.2781,5.2274 -6.9046,2.7648 -4.4321,0.0291 -1.9791,-2.0861 -0.8315,-2.8466 A1.5403,1.5403 0 0 1 0.8315,-0.2534 T-0.0427,0.2827 -2.1498,2.1448 -4.6217,4.9829 -7.2582,7.7677 -9.2371,9.5427 -9.8185,10.0449 A1.6455,1.6455 0 0 1 -11.9491,7.5366 ZM0.9938,-0.3732 T0.5207,-0.0369 -0.8419,1.7505 -2.8329,4.602 -4.7036,7.0312 -5.4726,8.06 A1.6364,1.6364 0 0 1 -8.1983,6.2482 T-7.2799,5.0899 -5.4187,2.8167 -3.5563,0.2444 -1.8153,-1.9698 -0.9938,-2.7268 A1.5403,1.5403 0 0 1 0.9938,-0.3732 ZM-7.6783,5.7515 T-7.3531,5.5623 -5.9514,4.3402 -3.3922,2.1407 -0.2748,-0.0742 2.9424,-1.7975 4.525,-2.4725 A1.5827,1.5827 0 0 1 5.1776,0.6249 T4.085,1.1137 1.587,2.5067 -1.2108,4.5268 -3.7999,6.7941 -5.4946,8.2512 -5.9925,8.5567 A1.6364,1.6364 0 0 1 -7.6783,5.7515 ZM6.0585,0.0997 T5.4984,0.7367 3.7729,2.4916 1.1604,5.0544 -1.2878,7.3184 -3.8791,9.8895 -6.5105,12.5443 -8.0654,13.8857 -8.5791,14.3244 A1.739,1.739 0 0 1 -10.815,11.6603 T-10.2938,11.2305 -8.8502,10.0554 -7.1091,8.4612 -4.4408,5.8912 -1.1096,2.7276 1.6896,0.0681 3.3257,-1.5481 3.6441,-1.9473 A1.5827,1.5827 0 0 1 6.0585,0.0997 ZM-11.15,13.9479 T-11.2401,13.8099 -11.3302,13.6718 A1.7379,1.7379 0 0 1 -8.4261,11.762 T-8.3351,11.8994 -8.244,12.0368 A1.739,1.739 0 0 1 -11.15,13.9479 ZM-11.18,11.5656 T-10.5634,10.886 -8.6466,8.7947 -6.1064,6.0373 -3.7519,3.3826 -1.7086,0.9385 -0.6017,-0.6056 -0.4235,-1.0148 A1.5764,1.5764 0 0 1 2.4481,0.287 T2.1436,0.9423 0.8055,2.9134 -1.4486,5.6929 -3.7768,8.4249 -6.0044,10.9421 -7.8502,13.0296 -8.5763,13.8682 A1.7379,1.7379 0 0 1 -11.18,11.5656 ZM0.4129,1.0942 T0.1738,0.995 -0.0653,0.8959 A1.5749,1.5749 0 0 1 1.1322,-2.0173 T1.3719,-1.9196 1.6116,-1.822 A1.5764,1.5764 0 0 1 0.4129,1.0942 ZM1.6584,0.5414 T1.3481,0.8588 -0.1383,2.3677 -2.7525,5.0163 -5.6993,8.0062 -8.2329,10.8588 -9.8567,12.6366 -10.4556,13.0946 A1.6818,1.6818 0 0 1 -12.3846,10.3393 T-12.095,10.1753 -10.6739,8.611 -8.0088,5.7005 -5.0208,2.7519 -2.3899,0.1422 -0.9024,-1.346 -0.5915,-1.6628 A1.5749,1.5749 0 0 1 1.6584,0.5414 ZM-12.0637,13.2707 T-12.1132,13.2498 -12.1627,13.2289 A1.681,1.681 0 0 1 -10.8761,10.1227 T-10.8263,10.143 -10.7765,10.1632 A1.6818,1.6818 0 0 1 -12.0637,13.2707 ZM-12.7677,10.5499 T-12.4236,10.1781 -11.1568,8.6128 -9.0517,6.031 -6.7469,3.1043 -5.0121,0.4272 -4.3996,-0.7113 A1.4816,1.4816 0 0 1 -1.8004,0.7113 T-2.5497,2.0607 -4.3266,4.9222 -6.5543,7.9685 -8.6759,10.7691 -9.9343,12.4187 -10.2711,12.8017 A1.681,1.681 0 0 1 -12.7677,10.5499 ZM-1.788,0.6883 T-2.1015,1.2459 -3.2015,3.061 -5.0533,5.6838 -7.2476,8.5109 -9.2032,10.8914 -10.03,11.81 A1.6732,1.6732 0 0 1 -12.6081,9.6767 T-12.1359,9.1265 -10.6614,7.6887 -8.5898,5.2363 -6.3998,2.3581 -4.8456,0.1782 -4.412,-0.6883 A1.4816,1.4816 0 0 1 -1.788,0.6883 ZM-12.7514,9.8787 T-12.1545,8.9135 -10.7789,6.9347 -9.0842,4.4948 -7.0066,1.1933 -5.8451,-0.6819 A1.376,1.376 0 0 1 -3.4549,0.6819 T-4.0246,1.7678 -5.168,3.932 -6.5087,6.3435 -8.1061,8.8319 -9.4116,10.7976 -9.8866,11.6081 A1.6732,1.6732 0 0 1 -12.7514,9.8787 Z" stroke-linecap="round" fill="#e03131"/></g></g><g transform="matrix(1, 0, 0, 1, 34.6064, 196.9626) scale(0.7753355164227579, 0.7753355164227579)" opacity="1"><g transform="scale(1.2897642102270754)"><path d="M 0 0 m -2.1704186293401233, 0 a 2.1704186293401233,2.1704186293401233 0 1,1 4.340837258680247,0 a 2.1704186293401233,2.1704186293401233 0 1,1 -4.340837258680247,0" stroke-linecap="round" fill="#e03131"/></g></g><g transform="matrix(1, 0, 0, 1, 42.3597, 178.3546) scale(0.7753355164227579, 0.7753355164227579)" opacity="1"><g transform="scale(1.2897642102270754)"><path d="M-0.6283,-1.5728 T0.3019,-1.912 3.1146,-2.571 6.3065,-2.691 8.9959,-1.7865 11.5647,-0.4234 13.844,1.3058 15.4578,3.7871 16.1341,5.9109 16.287,6.6242 A1.5971,1.5971 0 0 1 13.173,7.3358 T12.9195,6.1884 11.8812,4.01 9.6015,1.979 6.7196,0.6117 3.8854,0.5147 1.5333,1.1788 0.6283,1.5728 A1.6937,1.6937 0 0 1 -0.6283,-1.5728 Z" stroke-linecap="round" fill="#e03131"/></g></g><g transform="matrix(1, 0, 0, 1, 41.5844, 165.9492) scale(0.7753355164227579, 0.7753355164227579)" opacity="1"><g transform="scale(1.2897642102270754)"><path d="M-0.7106,-1.7788 T0.2105,-2.1335 2.6167,-3.0917 5.5749,-4.0338 8.5778,-4.607 12.0876,-4.7097 15.5186,-3.8552 17.961,-2.3199 19.9984,-0.7818 22.0991,0.9923 24.1598,2.9314 26.0172,4.632 27.7039,6.8178 29.4144,10.3316 30.4834,13.3835 30.6775,14.297 A2.0341,2.0341 0 0 1 26.7025,15.163 T26.4522,13.7572 25.3957,10.757 23.5277,7.9498 21.5779,5.9243 19.2425,3.7287 16.7105,1.5365 14.461,-0.0426 11.913,-0.9384 9.3496,-0.9171 6.6352,-0.4237 3.82,0.4721 1.6247,1.4003 0.7106,1.7788 A1.9155,1.9155 0 0 1 -0.7106,-1.7788 Z" stroke-linecap="round" fill="#e03131"/></g></g><g transform="matrix(1, 0, 0, 1, 43.1351, 148.1165) scale(0.7753355164227579, 0.7753355164227579)" opacity="1"><g transform="scale(1.2897642102270754)"><path d="M-0.3891,-1.9355 T0.5283,-2.102 2.8316,-2.6828 5.8616,-3.236 9.2671,-3.4231 13.3586,-3.3115 17.8686,-2.837 22.1565,-1.8557 26.0943,-0.0817 29.3259,2.5413 31.6454,5.3814 33.4592,8.223 35.1296,10.9489 36.4272,13.4787 37.5605,16.7287 38.3246,20.5988 38.5237,23.6209 38.5685,24.7018 A2.1313,2.1313 0 0 1 34.3115,24.9182 T34.2465,23.8383 34.0502,21.1716 33.5006,18.2007 32.2623,14.998 30.6132,11.8405 28.9502,9.2734 27.264,6.7854 25.3913,4.4882 22.7349,2.7712 19.2811,1.5627 16.2565,0.914 13.0625,0.608 9.3935,0.4395 6.3486,0.5551 3.605,1.0918 1.3069,1.733 0.3891,1.9355 A1.9742,1.9742 0 0 1 -0.3891,-1.9355 Z" stroke-linecap="round" fill="#e03131"/></g></g><g transform="matrix(1, 0, 0, 1, 46.2364, 128.7331) scale(0.7753355164227579, 0.7753355164227579)" opacity="1"><g transform="scale(1.2897642102270754)"><path d="M-0.5889,-1.7668 T0.5147,-2.1241 3.8157,-2.8201 8.032,-3.2588 12.4451,-3.2114 17.3418,-2.7664 21.1681,-2.1632 23.7448,-1.5156 26.3384,-0.5853 29.7307,1.161 33.5466,3.8096 36.8704,6.5039 40.0409,9.2154 42.9884,12.3098 45.4563,15.6034 47.2489,19.2645 48.1709,22.8511 48.4944,25.2998 48.5567,26.116 A2.0513,2.0513 0 0 1 44.4833,26.604 T44.2516,25.197 43.5549,22.2224 42.5261,19.4064 40.7766,16.6619 38.3476,13.7868 35.6474,11.1037 32.539,8.4422 29.3911,5.8978 25.8871,3.7256 22.7074,2.3946 20.3496,1.7398 17.9201,1.192 15.4653,0.8403 12.2037,0.5561 8.2611,0.4486 4.5748,0.7638 1.6847,1.391 0.5889,1.7668 A1.8624,1.8624 0 0 1 -0.5889,-1.7668 Z" stroke-linecap="round" fill="#e03131"/></g></g><g transform="matrix(1, 0, 0, 1, 32.2804, 214.7954) scale(0.7753355164227579, 0.7753355164227579)" opacity="1"><g transform="scale(1.2897642102270754)"><path d="M-1.8249,0 T-1.8185,-0.551 -1.8122,-1.1021 A1.8122,1.8122 0 0 1 1.8122,-1.1021 T1.8185,-0.551 1.8249,0 A1.8249,1.8249 0 0 1 -1.8249,0 ZM-0.9024,-2.6736 T-0.7172,-2.7783 -0.5321,-2.883 A1.8093,1.8093 0 0 1 1.2699,0.2551 T1.0862,0.3623 0.9024,0.4694 A1.8122,1.8122 0 0 1 -0.9024,-2.6736 ZM1.5677,-2.6691 T2.1736,-2.0731 3.6554,-0.2629 5.5601,1.9588 7.5845,4.6126 9.3281,7.5734 10.0763,8.8881 A1.8512,1.8512 0 0 1 6.9119,10.81 T6.1392,9.4662 4.5338,6.6878 2.6779,4.2187 0.6595,1.7712 -0.5827,0.1998 -0.8298,0.0412 A1.8093,1.8093 0 0 1 1.5677,-2.6691 ZM8.7351,11.6844 T8.1355,11.7347 6.1058,12.4675 3.2903,13.5477 1.905,13.9455 A1.8625,1.8625 0 0 1 1.2132,10.2852 T2.6428,9.9813 5.4917,8.962 7.5821,8.1301 8.2531,8.0136 A1.8512,1.8512 0 0 1 8.7351,11.6844 ZM0.3854,13.5615 T-0.024,13.2075 -1.1372,11.3928 -2.2751,8.4251 -3.5452,5.4747 -5.354,2.735 -6.3269,1.4389 A1.8312,1.8312 0 0 1 -3.6903,-1.1031 T-2.7095,0.1691 -0.8658,2.8423 0.6836,5.8122 1.7234,8.7807 2.4048,10.4247 2.7328,10.6691 A1.8625,1.8625 0 0 1 0.3854,13.5615 ZM-3.2094,-0.173 T-3.0713,0.5421 -1.9936,2.2725 0.0643,4.1096 1.1827,4.9314 A1.9298,1.9298 0 0 1 -0.9506,8.1478 T-2.3044,7.1014 -4.5225,5.1784 -5.9764,3.0574 -6.6869,1.1608 -6.8078,0.5087 A1.8312,1.8312 0 0 1 -3.2094,-0.173 ZM-0.7628,4.8216 T-0.6046,4.7437 -0.4463,4.6657 A1.9244,1.9244 0 0 1 1.3065,8.0923 T1.1507,8.175 0.9949,8.2577 A1.9298,1.9298 0 0 1 -0.7628,4.8216 ZM-1.491,6.4916 T-1.5019,5.665 -1.7717,3.565 -2.2602,1.8311 -2.4898,1.3706 A1.7917,1.7917 0 0 1 0.7265,-0.2092 T1.0968,0.5516 1.8038,2.634 2.2459,5.111 2.3512,6.2663 A1.9244,1.9244 0 0 1 -1.491,6.4916 ZM-0.3697,2.2977 T-0.5274,2.346 -0.6851,2.3943 A1.7942,1.7942 0 0 1 -1.7105,-1.0444 T-1.552,-1.0903 -1.3936,-1.1362 A1.7917,1.7917 0 0 1 -0.3697,2.2977 ZM0.5774,0.9354 T0.4759,1.7225 0.7993,3.795 2.1645,5.9905 3.1047,6.9008 A1.9745,1.9745 0 0 1 0.6977,10.0314 T-0.3959,8.965 -2.1633,6.5794 -3.0579,3.7843 -3.1258,1.3615 -2.973,0.4145 A1.7942,1.7942 0 0 1 0.5774,0.9354 ZM-0.0388,8.099 T0.0684,7.5647 -0.2647,5.7121 -0.7051,4.3938 A1.8769,1.8769 0 0 1 2.1484,1.9549 T2.9431,3.0842 3.8851,5.9857 3.9368,8.2956 3.8413,8.8332 A1.9745,1.9745 0 0 1 -0.0388,8.099 ZM2.3336,4.1357 T2.1546,4.2259 2.6688,5.342 3.7032,6.9907 4.0445,7.6136 A1.9441,1.9441 0 0 1 0.6155,9.4464 T0.0141,8.2879 -1.0811,5.4549 -1.2326,2.9966 -0.8903,2.2129 A1.8769,1.8769 0 0 1 2.3336,4.1357 Z" stroke-linecap="round" fill="#e03131"/></g></g><g transform="matrix(1, 0, 0, 1, 14.06, 192.6983) scale(0.7753355164227579, 0.7753355164227579)" opacity="1"><g transform="scale(1.2897642102270754)"><path d="M0,0.865 T-1.2804,0.8568 -3.7329,1.2414 -5.918,2.3459 -7.741,4.0298 -9.2778,6.4678 -10.5602,9.2148 -11.5385,11.9205 -11.6283,14.4745 -10.5649,17.2182 -8.3261,19.2817 -5.6178,19.606 -3.045,18.738 -0.7513,17.2417 1.1717,15.2874 2.9676,12.9957 4.1899,10.3908 4.6823,7.5514 4.4777,4.7898 3.5306,2.1028 1.3584,0.2216 -1.6228,0.0037 -3.1104,0.4166 A2.1118,2.1118 0 0 1 -4.6496,-3.5166 T-3.8315,-3.8711 -0.7347,-4.4057 3.0474,-3.9792 5.4928,-2.5906 7.2438,-0.4307 8.3853,2.5045 8.8222,6.0512 8.6088,9.76 7.8203,12.6352 6.3884,15.073 4.1765,17.7844 1.9863,20.0719 -0.5084,21.6943 -3.8371,22.9569 -7.2126,23.3042 -10.5105,22.3779 -12.9286,20.2156 -14.1142,17.7253 -14.9232,14.6773 -14.7938,11.1502 -13.6718,8.0839 -12.1225,4.861 -10.2142,1.927 -7.7118,-0.2986 -4.3958,-1.8691 -1.288,-2.4168 0,-2.425 A1.645,1.645 0 0 1 0,0.865 Z" stroke-linecap="round" fill="#9398b0"/></g></g><g transform="matrix(1, 0, 0, 1, 9.408, 215.183) scale(0.7753355164227579, 0.7753355164227579)" opacity="1"><g transform="scale(1.2897642102270754)"><path d="M1.5562,-0.589 T1.8589,0.2466 2.2647,2.5731 2.3959,5.3077 2.1484,8.0227 1.7694,10.2838 1.6657,11.0736 A1.6807,1.6807 0 0 1 -1.6657,10.6264 T-1.5574,9.8372 -1.1784,7.2834 -0.9713,3.7068 -1.2955,1.2418 -1.5562,0.589 A1.664,1.664 0 0 1 1.5562,-0.589 Z" stroke-linecap="round" fill="#9398b0"/></g></g><g transform="matrix(1, 0, 0, 1, 7.8573, 226.8131) scale(0.7753355164227579, 0.7753355164227579)" opacity="1"><g transform="scale(1.2897642102270754)"><path d="M2.3027,1.0184 T1.5438,2.1026 -0.3467,4.5896 -2.1711,6.762 -2.8641,7.5314 A1.7014,1.7014 0 0 1 -5.4083,5.2716 T-4.7649,4.5365 -3.1442,2.5068 -1.4548,0.0969 -0.7427,-1.0184 A1.8319,1.8319 0 0 1 2.3027,1.0184 ZM-3.6743,4.7639 T-3.0413,4.9433 -1.1812,5.1563 1.5151,5.1877 4.6962,5.1716 8.2815,5.1399 11.5734,4.8379 14.7285,4.1883 17.8775,3.5541 20.8798,2.9411 24.029,2.3677 25.5885,2.1386 A1.9035,1.9035 0 0 1 26.013,5.9219 T24.7898,6.0837 21.8872,6.6171 18.6119,7.287 15.2811,7.932 11.8573,8.5575 8.2854,8.8157 4.6801,8.7725 1.4518,8.7153 -1.4776,8.5984 -3.7495,8.2776 -4.598,8.039 A1.7014,1.7014 0 0 1 -3.6743,4.7639 ZM24.6957,5.5802 T24.5947,5.4991 24.4936,5.4179 A1.8887,1.8887 0 0 1 26.6864,2.3421 T26.7961,2.4112 26.9058,2.4803 A1.9035,1.9035 0 0 1 24.6957,5.5802 Z" stroke-linecap="round" fill="#9398b0"/></g></g><g transform="matrix(1, 0, 0, 1, 9.408, 226.8131) scale(0.7753355164227579, 0.7753355164227579)" opacity="1"><g transform="scale(1.2897642102270754)"><path d="M0.4201,-1.6694 T1.1521,-1.4835 3.2456,-1.1757 6.5788,-1.3014 10.1198,-1.7822 13.2321,-2.3512 16.2829,-3.5443 17.7906,-4.4015 A1.5379,1.5379 0 0 1 19.4294,-1.7985 T18.5855,-1.2042 15.8507,0.2961 12.254,1.5218 8.7781,1.9558 5.6995,2.2278 2.7197,2.2105 0.3142,1.8525 -0.4201,1.6694 A1.7215,1.7215 0 0 1 0.4201,-1.6694 Z" stroke-linecap="round" fill="#9398b0"/></g></g><g transform="matrix(1, 0, 0, 1, 7.082, 227.5884) scale(0.7753355164227579, 0.7753355164227579)" opacity="1"><g transform="scale(1.2897642102270754)"><path d="M1.27,-0.1824 T1.4756,1.0988 1.8667,4.3952 2.0691,8.6131 2.0861,10.8158 A1.3066,1.3066 0 0 1 -0.5261,10.8842 T-0.6233,8.7248 -0.8319,4.6611 -1.1066,1.4696 -1.27,0.1824 A1.283,1.283 0 0 1 1.27,-0.1824 Z" stroke-linecap="round" fill="#9398b0"/></g></g><g transform="matrix(1, 0, 0, 1, 7.082, 235.3417) scale(0.7753355164227579, 0.7753355164227579)" opacity="1"><g transform="scale(1.2897642102270754)"><path d="M1.2643,0.5252 T1.4688,1.4366 1.8711,4.2906 2.1266,7.7035 2.1928,10.714 1.7583,14.0377 1.3152,15.8213 A1.3516,1.3516 0 0 1 -1.3152,15.1987 T-0.9871,13.7243 -0.6733,10.7395 -0.7124,7.8031 -0.8363,4.6251 -1.0998,1.9539 -1.2643,1.0348 A1.2897,1.2897 0 0 1 1.2643,0.5252 Z" stroke-linecap="round" fill="#9398b0"/></g></g><g transform="matrix(1, 0, 0, 1, 6.3066, 247.7471) scale(0.7753355164227579, 0.7753355164227579)" opacity="1"><g transform="scale(1.2897642102270754)"><path d="M1.4887,0.5947 T1.107,1.5063 -0.1002,4.0088 -1.9462,7.1815 -4.314,10.7073 -6.4253,13.6013 -7.9076,15.5444 -9.9567,18.21 -12.5706,21.1562 -15.0206,23.1673 -16.1872,23.9048 A1.6709,1.6709 0 0 1 -17.9328,21.0552 T-17.0667,20.5475 -14.9175,18.7662 -12.4573,16.0358 -9.7928,12.6966 -7.022,9.057 -4.6571,5.646 -2.8837,2.6223 -1.8402,0.3289 -1.4887,-0.5947 A1.603,1.603 0 0 1 1.4887,0.5947 ZM-17.862,21.0142 T-17.0375,20.5995 -14.8141,18.8763 -13.4153,17.5678 A1.448,1.448 0 0 1 -11.4047,19.6522 T-12.1269,20.4138 -14.0804,22.2653 -15.7849,23.6505 -16.258,23.9458 A1.6709,1.6709 0 0 1 -17.862,21.0142 Z" stroke-linecap="round" fill="#9398b0"/></g></g><g transform="matrix(1, 0, 0, 1, 5.5313, 250.0731) scale(0.7753355164227579, 0.7753355164227579)" opacity="1"><g transform="scale(1.2897642102270754)"><path d="M1.4989,-1.1976 T2.2146,-0.264 3.6861,2.3806 4.9243,5.9629 5.9548,9.2551 7.1525,11.9028 8.8746,14.1815 9.9473,15.2336 A1.9122,1.9122 0 0 1 7.1459,17.837 T6.5631,17.2353 4.8087,15.2044 2.9389,12.0849 1.8375,8.7081 0.7182,5.0113 -0.7483,2.0993 -1.4989,1.1976 A1.9185,1.9185 0 0 1 1.4989,-1.1976 ZM7.4838,14.9457 T8.2775,14.4735 9.0713,14.0014 A1.8147,1.8147 0 0 1 11.0887,17.0186 T10.3491,17.5717 9.6095,18.1249 A1.9122,1.9122 0 0 1 7.4838,14.9457 Z" stroke-linecap="round" fill="#9398b0"/></g></g></svg>