<svg xmlns="http://www.w3.org/2000/svg" direction="ltr" width="570.72" height="399.08000000000004" viewBox="358.8507248704908 78.76058602101433 570.72 399.08000000000004" stroke-linecap="round" stroke-linejoin="round" data-color-mode="dark" class="tl-container tl-theme__force-sRGB tl-theme__dark" style="background-color: transparent;"><defs/><g transform="matrix(1, 0, 0, 1, 448.4059, 176.3246) scale(1.1285618971108877, 1.1285618971108877)" opacity="1"><g transform="scale(0.8860834328715107)"><path d="M0,-2.5438 T2.4028,-2.5379 7.7186,-2.2299 13.0442,-1.1564 16.5721,1.3924 17.6152,5.2474 15.9822,9.6206 12.9492,12.9685 10.0229,14.3999 8.5686,14.7791 A2.5371,2.5371 0 0 1 7.3801,9.846 T9.5111,8.8774 12.1248,5.6525 11.0069,3.1964 7.106,2.7644 2.4028,2.5379 0,2.5438 A2.5438,2.5438 0 0 1 0,-2.5438 ZM8.1118,9.7792 T8.7302,9.8113 10.8984,10.262 13.7823,12.0497 16.0343,15.4229 16.5152,19.3771 14.2656,22.3911 10.531,24.133 6.4789,24.9967 1.8982,24.7259 -0.5525,24.2696 A2.6505,2.6505 0 0 1 1.0008,19.2014 T3.3113,19.4007 7.2855,19.5102 10.3318,18.3837 10.4543,16.1348 8.5155,14.8842 7.8369,14.846 A2.5371,2.5371 0 0 1 8.1118,9.7792 ZM-2.1158,22.9803 T-2.4026,22.3605 -3.0113,21.0514 -3.3334,20.3622 A2.4957,2.4957 0 0 1 1.0734,18.0178 T1.465,18.6701 2.2104,19.9065 2.5641,20.4907 A2.6505,2.6505 0 0 1 -2.1158,22.9803 Z" stroke-linecap="round" fill="#9398b0"/></g></g><g transform="matrix(1, 0, 0, 1, 425.8347, 211.31) scale(1.1285618971108877, 1.1285618971108877)" opacity="1"><g transform="scale(0.8860834328715107)"><path d="M2.4114,0.9663 T1.8648,2.2953 0.1759,6.1092 -2.0981,10.9186 -3.9928,15.277 -4.9468,19.1024 -4.9561,22.6231 -4.0733,25.9585 -1.5591,29.1953 0.2542,30.8259 A2.3541,2.3541 0 0 1 -2.5142,34.6341 T-4.4928,33.2974 -7.602,30.5034 -9.2937,27.3661 -10.0746,23.0438 -10.0078,18.2084 -8.7633,13.5057 -6.6947,8.717 -4.5201,4.0743 -2.9338,0.3724 -2.4114,-0.9663 A2.5978,2.5978 0 0 1 2.4114,0.9663 Z" stroke-linecap="round" fill="#e599f7"/></g></g><g transform="matrix(1, 0, 0, 1, 448.4059, 221.4671) scale(1.1285618971108877, 1.1285618971108877)" opacity="1"><g transform="scale(0.8860834328715107)"><path d="M1.6773,1.3413 T0.6137,2.6776 -2.2906,6.1017 -6.2732,10.4098 -9.5236,13.7507 -11.759,15.988 -14.1379,18.3485 -15.3899,19.5922 A2.1724,2.1724 0 0 1 -18.4701,16.5278 T-17.2328,15.2694 -13.7855,11.7699 -9.4571,7.3692 -5.5777,3.2657 -2.747,-0.0098 -1.6773,-1.3413 A2.1477,2.1477 0 0 1 1.6773,1.3413 Z" stroke-linecap="round" fill="#e599f7"/></g></g><g transform="matrix(1, 0, 0, 1, 434.8632, 224.8527) scale(1.1285618971108877, 1.1285618971108877)" opacity="1"><g transform="scale(0.8860834328715107)"><path d="M1.4805,-1.4805 T2.2864,-0.683 4.4233,1.4175 6.9416,3.8774 10.1199,6.1369 14.0923,9.0214 16.0737,10.8035 A2.1334,2.1334 0 0 1 13.2663,14.0165 T12.2417,13.1506 9.8118,11.169 6.7398,9.1105 3.8968,6.9609 1.4175,4.4233 -0.683,2.2864 -1.4805,1.4805 A2.0938,2.0938 0 0 1 1.4805,-1.4805 Z" stroke-linecap="round" fill="#e599f7"/></g></g><g transform="matrix(1, 0, 0, 1, 456.3059, 229.367) scale(1.1285618971108877, 1.1285618971108877)" opacity="1"><g transform="scale(0.8860834328715107)"><path d="M0,-1.5494 T1.3339,-1.5756 5.2839,-1.5565 7.9,-1.5112 A1.5112,1.5112 0 0 1 7.9,1.5112 T5.2839,1.5565 1.3339,1.5756 0,1.5494 A1.5494,1.5494 0 0 1 0,-1.5494 Z" stroke-linecap="round" fill="#e599f7"/></g></g><g transform="matrix(1, 0, 0, 1, 474.3629, 216.9528) scale(1.1285618971108877, 1.1285618971108877)" opacity="1"><g transform="scale(0.8860834328715107)"><path d="M2.038,0 T2.0566,1.3339 2.1214,5.4999 2.2021,10.7473 2.2416,14.8028 1.5908,18.6763 0.9352,20.9096 A2.1505,2.1505 0 0 1 -3.1952,19.7104 T-2.7208,18.0518 -2.2416,14.7779 -2.2021,10.7473 -2.1214,5.4999 -2.0566,1.3339 -2.038,0 A2.038,2.038 0 0 1 2.038,0 Z" stroke-linecap="round" fill="#e599f7"/></g></g><g transform="matrix(1, 0, 0, 1, 478.8771, 210.1814) scale(1.1285618971108877, 1.1285618971108877)" opacity="1"><g transform="scale(0.8860834328715107)"><path d="M1.845,-1.3868 T2.6238,-0.3031 4.7458,2.6577 7.0807,6.125 8.8241,9.8269 9.8187,14.5626 9.4077,20.0455 7.6722,25.1803 5.7418,29.1772 3.0234,32.1935 1.1539,33.4889 A2.2135,2.2135 0 0 1 -1.1539,29.7111 T0.1051,28.4164 2.3648,25.3606 4.1817,21.4753 5.1886,17.0834 5.1542,13.1032 3.6574,9.1631 1.0949,5.2106 -1.0204,2.4363 -1.845,1.3868 A2.3081,2.3081 0 0 1 1.845,-1.3868 Z" stroke-linecap="round" fill="#e599f7"/></g></g><g transform="matrix(1, 0, 0, 1, 423.5776, 257.581) scale(1.1285618971108877, 1.1285618971108877)" opacity="1"><g transform="scale(0.8860834328715107)"><path d="M-2.2093,-0.7364 T-1.9315,-1.5347 -1.6538,-2.3329 A2.3066,2.3066 0 0 1 2.7227,-0.8741 T2.466,-0.0688 2.2093,0.7364 A2.3289,2.3289 0 0 1 -2.2093,-0.7364 ZM-1.2543,-0.1472 T-1.3797,-0.3033 -1.5051,-0.4593 A2.3041,2.3041 0 0 1 2.0685,-3.3687 T2.1959,-3.2142 2.3233,-3.0597 A2.3066,2.3066 0 0 1 -1.2543,-0.1472 ZM2.45,-1.135 T2.3823,-0.95 2.3145,-0.765 A2.3016,2.3016 0 0 1 -2.0176,-2.3214 T-1.9522,-2.5072 -1.8867,-2.6931 A2.3041,2.3041 0 0 1 2.45,-1.135 ZM1.6901,0.1659 T1.4819,0.2462 0.2819,2.0648 -1.3583,5.7876 -2.4985,9.7172 -3.1061,13.4369 -3.2511,16.9145 -3.2932,20.4819 -1.3183,23.723 0.6696,25.0997 A2.0999,2.0999 0 0 1 -0.6696,29.0803 T-2.7722,28.3466 -6.0734,26.2279 -7.6194,23.0045 -7.9374,19.0649 -7.8236,15.0941 -7.4094,10.858 -6.6785,6.9711 -5.6426,3.8465 -3.9157,0.2477 -2.1084,-2.4996 -1.3932,-3.2522 A2.3016,2.3016 0 0 1 1.6901,0.1659 Z" stroke-linecap="round" fill="#f76707"/></g></g><g transform="matrix(1, 0, 0, 1, 443.8917, 264.3524) scale(1.1285618971108877, 1.1285618971108877)" opacity="1"><g transform="scale(0.8860834328715107)"><path d="M2.0087,0.8049 T1.4748,2.1573 -0.0312,4.768 -2.6839,8.0177 -5.6554,11.653 -8.4817,14.8978 -10.9883,17.4736 -11.9596,18.4487 A2.1918,2.1918 0 0 1 -15.1204,15.4113 T-13.3688,13.517 -10.4026,10.2449 -7.5631,7.158 -4.5086,3.6373 -2.5438,0.5105 -2.0087,-0.8049 A2.164,2.164 0 0 1 2.0087,0.8049 Z" stroke-linecap="round" fill="#f76707"/></g></g><g transform="matrix(1, 0, 0, 1, 433.7346, 266.6095) scale(1.1285618971108877, 1.1285618971108877)" opacity="1"><g transform="scale(0.8860834328715107)"><path d="M0.822,-1.6404 T1.9136,-1.1246 4.8155,1.0228 7.9822,4.3426 10.4312,7.8768 12.9863,10.736 14.4489,11.7491 A2.0083,2.0083 0 0 1 12.6311,15.3309 T10.6145,14.2391 7.3144,10.9342 4.9031,7.1222 2.5183,4.135 0.2196,2.1936 -0.822,1.6404 A1.8348,1.8348 0 0 1 0.822,-1.6404 Z" stroke-linecap="round" fill="#f76707"/></g></g><g transform="matrix(1, 0, 0, 1, 457.4344, 266.6095) scale(1.1285618971108877, 1.1285618971108877)" opacity="1"><g transform="scale(0.8860834328715107)"><path d="M1.6928,-0.3392 T1.9889,0.989 2.5534,4.1527 2.5679,7.7212 2.0443,11.066 1.7748,12.6779 A1.7949,1.7949 0 0 1 -1.7748,12.1421 T-1.6546,11.179 -1.2136,8.279 -1.0543,4.6802 -1.4544,1.6787 -1.6928,0.3392 A1.7265,1.7265 0 0 1 1.6928,-0.3392 Z" stroke-linecap="round" fill="#f76707"/></g></g><g transform="matrix(1, 0, 0, 1, 460.8201, 272.2523) scale(1.1285618971108877, 1.1285618971108877)" opacity="1"><g transform="scale(0.8860834328715107)"><path d="M0,2.2869 T-1.6011,2.2785 -4.9861,2.2622 -6.77,2.2544 A2.2544,2.2544 0 0 1 -6.77,-2.2544 T-4.9861,-2.2622 -1.6011,-2.2785 0,-2.2869 A2.2869,2.2869 0 0 1 0,2.2869 Z" stroke-linecap="round" fill="#f76707"/></g></g><g transform="matrix(1, 0, 0, 1, 472.1057, 262.0953) scale(1.1285618971108877, 1.1285618971108877)" opacity="1"><g transform="scale(0.8860834328715107)"><path d="M2.0501,-1.0273 T2.5691,0.0487 3.6116,2.9305 3.9883,6.7629 3.708,10.3766 3.2228,14.1657 2.5502,17.5203 2.2292,18.6729 A2.3119,2.3119 0 0 1 -2.2292,17.4471 T-1.6748,15.5167 -1.0046,11.7567 -0.5233,8.3104 -0.554,4.9178 -1.5001,2.0846 -2.0501,1.0273 A2.2931,2.2931 0 0 1 2.0501,-1.0273 Z" stroke-linecap="round" fill="#f76707"/></g></g><g transform="matrix(1, 0, 0, 1, 482.2628, 250.8097) scale(1.1285618971108877, 1.1285618971108877)" opacity="1"><g transform="scale(0.8860834328715107)"><path d="M2.006,-1.0052 T2.5187,0.0712 4.0122,2.528 5.6421,6.3079 6.8298,10.8539 7.5485,15.3592 7.8008,20.0087 7.6145,23.915 6.7582,28.0435 5.1524,32.6246 2.1996,36.1894 -0.6163,37.9617 -1.4871,38.2374 A2.2634,2.2634 0 0 1 -3.0329,33.9826 T-1.7001,33.5108 0.5981,31.2904 2.1926,27.1112 3.0849,22.4 3.2992,17.9452 3.0325,13.8017 2.1862,9.1625 0.3319,4.8058 -1.4497,2.062 -2.006,1.0052 A2.2437,2.2437 0 0 1 2.006,-1.0052 Z" stroke-linecap="round" fill="#f76707"/></g></g><g transform="matrix(1, 0, 0, 1, 537.5623, 142.4677) scale(1.1285618971108877, 1.1285618971108877)" opacity="1"><g transform="scale(0.8860834328715107)"><path d="M0,-1.7915 T1.3339,-1.8284 4.6837,-1.9138 8.8496,-1.9862 13.3997,-1.9503 15.8,-1.8905 A1.8905,1.8905 0 0 1 15.8,1.8905 T13.3997,1.9503 8.8496,1.9862 4.6837,1.9138 1.3339,1.8284 0,1.7915 A1.7915,1.7915 0 0 1 0,-1.7915 Z" stroke-linecap="round" fill="#9398b0"/></g></g><g transform="matrix(1, 0, 0, 1, 568.0335, 131.1821) scale(1.1285618971108877, 1.1285618971108877)" opacity="1"><g transform="scale(0.8860834328715107)"><path d="M2.1851,0 T2.2081,1.3339 2.2626,4.8245 2.3175,9.0737 2.0205,12.7457 1.3722,15.8405 1.0443,17.3556 A2.2156,2.2156 0 0 1 -3.3043,16.5044 T-2.8226,13.8268 -2.3175,9.0653 -2.2626,4.8245 -2.2081,1.3339 -2.1851,0 A2.1851,2.1851 0 0 1 2.1851,0 Z" stroke-linecap="round" fill="#9398b0"/></g></g><g transform="matrix(1, 0, 0, 1, 566.9049, 127.7964) scale(1.1285618971108877, 1.1285618971108877)" opacity="1"><g transform="scale(0.8860834328715107)"><path d="M1.2616,1.6784 T0.2202,2.5136 -2.4996,4.5198 -6.1329,6.5966 -8.0878,7.5026 A2.0873,2.0873 0 0 1 -9.9722,3.7774 T-8.0976,2.7462 -4.8342,0.7865 -2.3535,-0.9102 -1.2616,-1.6784 A2.0997,2.0997 0 0 1 1.2616,1.6784 Z" stroke-linecap="round" fill="#9398b0"/></g></g><g transform="matrix(1, 0, 0, 1, 728.2893, 132.3107) scale(1.1285618971108877, 1.1285618971108877)" opacity="1"><g transform="scale(0.8860834328715107)"><path d="M1.9638,-0.3935 T2.2702,0.9326 2.8695,4.4012 3.2713,8.3789 3.1205,12.2719 2.6211,16.8334 2.3814,19.3369 A2.3859,2.3859 0 0 1 -2.3814,19.0431 T-2.2116,16.9235 -1.627,12.5582 -1.2227,8.584 -1.3704,4.9662 -1.7357,1.7351 -1.9638,0.3935 A2.0029,2.0029 0 0 1 1.9638,-0.3935 ZM-2.3859,19.19 T-2.3626,18.06 -2.3393,16.93 A2.3393,2.3393 0 0 1 2.3393,16.93 T2.3626,18.06 2.3859,19.19 A2.3859,2.3859 0 0 1 -2.3859,19.19 Z" stroke-linecap="round" fill="#9398b0"/></g></g><g transform="matrix(1, 0, 0, 1, 727.1607, 132.3107) scale(1.1285618971108877, 1.1285618971108877)" opacity="1"><g transform="scale(0.8860834328715107)"><path d="M-1.8221,1.2147 T-2.2096,0.52 -4.3144,0.9187 -7.4325,2.8931 -9.6884,4.0688 -10.5437,4.3638 A2.2322,2.2322 0 0 1 -12.0363,0.1562 T-10.8427,-0.1439 -8.2144,-1.5722 -4.944,-3.4713 -1.3246,-3.6371 1.1406,-2.1234 1.8221,-1.2147 A2.1899,2.1899 0 0 1 -1.8221,1.2147 Z" stroke-linecap="round" fill="#9398b0"/></g></g><g transform="matrix(1, 0, 0, 1, 389.7207, 160.5247) scale(1.1285618971108877, 1.1285618971108877)" opacity="1"><g transform="scale(0.8860834328715107)"><path d="M0.7249,-2.022 T2.0631,-2.2679 5.2543,-2.7244 8.7452,-2.9906 12.4043,-3.0678 16.0055,-3.0985 19.4378,-3.1173 23.0282,-2.7146 26.6934,-2.2088 30.569,-2.1138 34.0679,-2.3599 37.2475,-2.8698 40.5827,-3.2143 44.1118,-3.7324 47.8084,-4.3124 51.8383,-4.5095 56.2228,-4.5911 60.2829,-4.6356 64.1103,-5.0666 68.4439,-5.6169 72.3341,-6.0115 76.272,-6.5448 80.6555,-7.1239 84.7055,-7.7075 88.6995,-8.0637 92.4093,-8.1674 96.1585,-8.205 100.4453,-7.8955 104.8648,-7.3802 108.9567,-7.1576 112.5692,-7.1207 116.4973,-7.1118 120.7852,-7.1141 124.5174,-7.1194 128.0064,-7.1148 131.7822,-6.6437 135.6608,-6.1208 139.491,-6.0608 143.2204,-6.0674 146.8718,-6.0829 150.9746,-6.0978 154.8175,-6.1031 158.161,-5.6894 162.3408,-5.1733 166.6975,-5.0594 170.3235,-5.0503 174.0419,-5.0524 177.7866,-5.0542 181.6798,-5.057 185.983,-4.7458 190.0246,-4.2664 193.6341,-4.0489 197.4953,-3.9857 201.8255,-3.9735 206.2887,-3.9766 210.7894,-3.9856 215.6302,-3.6895 220.2362,-3.2117 224.4468,-2.9811 228.8744,-2.9161 233.374,-2.9042 238.2945,-2.4953 243.3259,-1.9863 247.982,-1.8582 252.9356,-1.8262 258.2447,-1.8211 263.3887,-1.8223 268.6262,-1.8247 274.1556,-1.827 279.7685,-1.8287 284.9952,-1.83 289.9728,-1.8308 295.0243,-1.8315 300.0952,-1.8344 305.1703,-1.8408 309.9817,-1.8489 314.9858,-1.8595 320.0448,-1.8694 324.7108,-1.8762 329.2654,-1.8812 333.7914,-1.8851 338.3095,-1.888 342.9225,-2.1254 347.7303,-2.6107 352.2233,-2.925 356.7347,-3.0073 361.6517,-3.0272 366.2346,-3.4316 371.1886,-3.9647 376.8151,-4.1325 382.1631,-4.583 387.3149,-5.1218 392.5608,-5.2815 397.6888,-5.569 401.9,-5.9836 406.6001,-6.2695 411.2037,-6.4199 416.024,-6.8706 420.9689,-7.3819 424.4318,-7.5154 427.8578,-7.5876 432.2846,-7.6354 437.799,-7.6615 443.0013,-7.6703 448.114,-7.6739 452.565,-7.6721 456.0297,-7.6709 459.4567,-7.667 463.1311,-7.657 466.9359,-7.6456 470.5421,-7.634 475.0925,-7.8591 480.9397,-8.3144 486.6211,-8.5895 491.8511,-9.0429 496.9753,-9.5543 502.0888,-9.5657 506.2607,-9.3635 507.83,-9.2597 A2.4898,2.4898 0 0 1 507.87,-4.2803 T504.9115,-4.0198 499.6903,-3.6796 495.0998,-3.3847 491.0635,-2.8582 486.8293,-2.4792 481.606,-2.2047 475.6092,-1.6954 470.5421,-1.386 466.9359,-1.3743 463.1312,-1.3629 459.4568,-1.3529 456.0299,-1.3488 452.5654,-1.3474 448.1155,-1.3448 443.0065,-1.3451 437.8175,-1.3416 432.3388,-1.324 427.9728,-1.2951 424.6498,-1.2439 419.837,-1.0173 414.7953,-0.5329 409.8552,-0.1908 404.0434,0.0527 398.2669,0.5461 392.6859,0.8753 387.7198,1.0114 382.5068,1.5378 376.9488,1.9843 371.6536,2.107 366.6267,2.6199 361.6855,3.0435 356.8078,3.066 352.4573,3.1363 348.5256,3.3716 343.5443,3.8509 338.3095,4.148 333.7914,4.1451 329.2654,4.1412 324.7108,4.1362 320.0448,4.1294 314.9858,4.1195 309.9817,4.1089 305.1703,4.1008 300.0952,4.0944 295.0243,4.0915 289.9728,4.0908 284.9952,4.0899 279.7684,4.0887 274.1554,4.0868 268.6254,4.084 263.3864,4.08 258.2359,4.0725 252.9008,4.0552 247.8585,4.0065 242.9366,3.844 238.7822,3.5408 235.2728,3.1272 231.0812,2.8769 226.5203,2.8265 221.842,2.6636 217.3697,2.1351 213.0339,1.729 208.5334,1.7177 204.0384,1.7048 199.595,1.6857 195.3162,1.6345 191.1947,1.4683 186.4757,0.9397 181.6793,0.5366 177.785,0.5329 174.035,0.5278 170.2987,0.514 166.6224,0.4807 162.6567,0.3818 158.6335,-0.0086 154.9181,-0.4994 150.9743,-0.6824 146.87,-0.6982 143.2139,-0.7171 139.4387,-0.7467 135.3814,-0.8471 131.4449,-1.4202 127.9011,-1.9052 124.5171,-1.9008 120.7836,-1.9071 116.4875,-1.9159 112.5286,-1.9302 108.7756,-1.9736 105.1113,-2.1327 101.9029,-2.6573 98.1769,-3.0579 94.383,-3.0561 90.9221,-3.0285 87.3003,-2.9117 83.2902,-2.372 79.0703,-1.8297 74.8257,-1.3121 70.7274,-0.8399 66.815,-0.623 62.5026,-0.1664 58.2059,0.1122 54.0724,0.0991 49.9933,0.1356 46.4698,0.3377 42.9258,0.8282 38.8668,1.3453 34.6177,1.8169 30.5085,2.0611 26.2506,1.8491 22.035,1.2693 18.1213,0.8556 14.0413,0.8513 9.7061,0.9305 5.8385,1.2253 2.8646,1.7334 1.5351,2.022 A2.0622,2.0622 0 0 1 0.7249,-2.022 Z" stroke-linecap="round" fill="#9398b0"/></g></g><g transform="matrix(1, 0, 0, 1, 519.4597, 177.1471) scale(1.0536960911355293, 1.0536960911355293)" opacity="1"><g transform="scale(0.9490402483341633)"><path d="M1.9738,1.05 T2.0235,2.7954 2.1434,7.4546 2.1667,11.9037 2.0763,15.1495 2.0329,16.86 A2.0329,2.0329 0 0 1 -2.0329,16.86 T-2.0763,15.1495 -2.1667,11.9037 -2.1434,7.4546 -2.0235,2.7954 -1.9738,1.05 A1.9738,1.9738 0 0 1 1.9738,1.05 Z" stroke-linecap="round" fill="#9398b0"/></g></g><g transform="matrix(1, 0, 0, 1, 523.6744, 184.523) scale(1.0536960911355293, 1.0536960911355293)" opacity="1"><g transform="scale(0.9490402483341633)"><path d="M0,2.8948 T-1.7454,2.9578 -5.156,3.0716 -8.2955,3.3334 -11.585,3.7985 -13.4005,4.0527 A1.9656,1.9656 0 0 1 -13.9995,0.1673 T-12.1919,-0.1371 -8.6065,-0.732 -5.1597,-0.9716 -1.7454,-0.8578 0,-0.7948 A1.8448,1.8448 0 0 1 0,2.8948 Z" stroke-linecap="round" fill="#9398b0"/></g></g><g transform="matrix(1, 0, 0, 1, 649.0643, 177.1471) scale(1.0536960911355293, 1.0536960911355293)" opacity="1"><g transform="scale(0.9490402483341633)"><path d="M2.1048,-1.05 T2.1311,-0.0543 1.9421,3.6184 1.5645,8.5696 1.278,13.3601 1.1538,15.8766 A2.2048,2.2048 0 0 1 -3.2538,15.7434 T-3.2243,13.1748 -2.9574,7.9796 -2.4387,3.1472 -2.1311,-0.0543 -2.1048,-1.05 A2.1048,2.1048 0 0 1 2.1048,-1.05 Z" stroke-linecap="round" fill="#9398b0"/></g></g><g transform="matrix(1, 0, 0, 1, 654.3328, 181.3619) scale(1.0536960911355293, 1.0536960911355293)" opacity="1"><g transform="scale(0.9490402483341633)"><path d="M0.2723,1.9142 T-1.4688,2.1931 -4.9365,2.6362 -8.1714,3.1093 -11.4902,3.7793 -13.3009,4.1403 A2.0691,2.0691 0 0 1 -14.0991,0.0797 T-12.2866,-0.2716 -8.7305,-0.9532 -5.3792,-1.3811 -2.0219,-1.6965 -0.2723,-1.9142 A1.9334,1.9334 0 0 1 0.2723,1.9142 Z" stroke-linecap="round" fill="#9398b0"/></g></g><g transform="matrix(1, 0, 0, 1, 799.7428, 172.9324) scale(1.0536960911355293, 1.0536960911355293)" opacity="1"><g transform="scale(0.9490402483341633)"><path d="M1.6277,0 T1.6863,1.7454 1.8127,6.1502 2.4402,11.1866 3.3759,14.9589 3.7518,16.3543 A1.7179,1.7179 0 0 1 0.4682,17.3657 T-0.467,14.6628 -1.6413,10.3897 -1.8127,6.1552 -1.6863,1.7454 -1.6277,0 A1.6277,1.6277 0 0 1 1.6277,0 Z" stroke-linecap="round" fill="#9398b0"/></g></g><g transform="matrix(1, 0, 0, 1, 803.9576, 181.3619) scale(1.0536960911355293, 1.0536960911355293)" opacity="1"><g transform="scale(0.9490402483341633)"><path d="M-1.05,2.1181 T-3.2944,2.1038 -8.0394,2.0781 -10.54,2.0668 A2.0668,2.0668 0 0 1 -10.54,-2.0668 T-8.0394,-2.0781 -3.2944,-2.1038 -1.05,-2.1181 A2.1181,2.1181 0 0 1 -1.05,2.1181 Z" stroke-linecap="round" fill="#9398b0"/></g></g><g transform="matrix(1, 0, 0, 1, 501.5468, 109.7106) scale(1.0536960911355293, 1.0536960911355293)" opacity="1"><g transform="scale(0.9490402483341633)"><path d="M1.6126,1.05 T1.6001,2.547 1.586,5.5804 1.5849,9.861 1.3243,15.1864 0.8899,20.2207 0.6754,24.879 0.6387,29.5964 0.6575,34.5792 0.6835,39.3905 0.703,44.1504 0.7189,49.1442 0.721,54.7167 0.7127,59.267 0.7084,62.3855 0.7039,66.7192 0.7023,72.1568 0.7078,76.3172 0.7187,80.517 0.7331,85.636 0.4823,89.5643 0.0415,93.3255 -0.1893,97.9501 -0.2527,102.6537 -0.5354,106.4792 -0.9948,110.2105 -1.2422,114.571 -1.3131,119.0668 -1.3295,123.7384 -1.3309,128.2119 -1.3294,132.4985 -1.6001,136.9426 -2.0486,141.223 -2.2786,145.2447 -2.3465,149.4042 -2.3653,153.6037 -2.3701,157.8144 -2.3711,162.0282 -2.3719,166.2487 -2.7634,170.8065 -3.2599,175.874 -3.3967,180.7461 -3.4376,185.1427 -3.4508,189.4071 -3.4557,193.6334 -3.4582,198.232 -3.4597,202.9351 -3.4607,207.2856 -3.4589,211.7866 -3.4493,216.4626 -3.4348,221.8134 -3.041,227.3868 -2.5375,232.2397 -2.3829,236.7298 -2.3298,241.4054 -2.3077,246.1279 -2.2968,250.4836 -2.2895,255.2367 -2.284,260.362 -2.2803,265.0927 -2.2777,269.6993 -2.2757,274.4022 -2.2743,278.8849 -2.2772,283.1871 -2.6705,287.3984 -3.45,291.9691 -4.0343,296.4502 -4.2872,300.2342 -4.3555,304.4482 -4.7476,309.1478 -5.2229,313.248 -5.6054,317.667 -6.0723,322.6831 -5.9333,327.4368 -4.6085,332.6348 -3.6002,335.4914 A1.7878,1.7878 0 0 1 -6.9398,336.7686 T-7.6135,335.1645 -8.9623,331.8572 -9.9638,327.5196 -10.0513,322.1442 -9.5454,317.1578 -9.1561,312.9629 -8.6406,308.913 -8.2219,304.3856 -8.1274,300.0305 -7.7942,295.7465 -7.2105,291.2161 -6.5151,287.157 -6.1428,283.1613 -6.1457,278.8849 -6.1443,274.4022 -6.1423,269.6993 -6.1397,265.0927 -6.1362,260.3621 -6.1324,256.2962 -6.1281,252.6184 -6.1227,248.3315 -6.1188,243.857 -6.1254,239.1816 -6.1809,234.6711 -6.4106,230.2516 -6.8524,226.4198 -7.1052,221.8185 -7.0907,216.4626 -7.0811,211.7866 -7.0793,207.2856 -7.0801,202.935 -7.0812,198.2315 -7.0821,193.6317 -7.0812,189.401 -7.0733,185.1211 -7.0388,180.6761 -6.9039,175.6362 -6.4221,170.6104 -6.0478,166.2369 -6.0477,162.0273 -6.0457,157.8111 -6.0396,153.5919 -6.019,149.3615 -5.945,145.0915 -5.6643,140.6847 -5.2162,136.5239 -4.9894,132.4976 -4.9849,128.2088 -4.9752,123.7285 -4.9518,119.0266 -4.8792,114.4263 -4.6101,109.763 -4.1572,104.9986 -3.8827,100.1389 -3.7313,95.2904 -3.2279,90.5118 -2.8331,85.6306 -2.8187,80.517 -2.8078,76.3172 -2.8023,72.1568 -2.8039,66.7192 -2.8084,62.3855 -2.8126,59.267 -2.8209,54.7166 -2.8185,49.144 -2.8019,44.1496 -2.7792,39.388 -2.7423,34.5698 -2.6841,29.5603 -2.5791,24.7588 -2.2829,19.7965 -1.8209,14.8538 -1.5849,9.861 -1.586,5.5804 -1.6001,2.547 -1.6126,1.05 A1.6126,1.6126 0 0 1 1.6126,1.05 Z" stroke-linecap="round" fill="#9398b0"/></g></g><g transform="matrix(1, 0, 0, 1, 421.4659, 328.8794) scale(1.0536960911355293, 1.0536960911355293)" opacity="1"><g transform="scale(0.9490402483341633)"><path d="M-1.5756,-0.526 T-1.066,-2.0164 -0.435,-5.3636 -0.3766,-7.9921 -0.4395,-8.7638 A1.6263,1.6263 0 0 1 2.8028,-9.0231 T2.858,-8.3169 2.7329,-5.0414 2.064,-0.9729 1.5756,0.526 A1.6611,1.6611 0 0 1 -1.5756,-0.526 ZM0.2161,-7.5848 T-0.3127,-7.9729 -0.8415,-8.3609 A1.6297,1.6297 0 0 1 1.0936,-10.9836 T1.6204,-10.5929 2.1472,-10.2021 A1.6263,1.6263 0 0 1 0.2161,-7.5848 ZM0.9175,-8.2477 T0.3899,-7.9543 -0.9837,-6.0495 -2.072,-2.7206 -2.3893,0.9988 -2.2507,4.8827 -1.6099,8.4004 -0.8661,12.5021 -0.7493,17.3243 -3.1881,21.3767 -7.6394,23.4409 -11.8442,23.5802 -15.3224,21.3676 -17.1517,18.4584 -17.4953,17.5332 A1.8148,1.8148 0 0 1 -14.1247,16.1868 T-13.5842,17.6087 -11.6153,19.5108 -8.42,19.7607 -5.3253,18.5001 -4.0939,15.1577 -4.6601,10.9328 -5.4964,7.0261 -5.8059,2.9046 -5.5547,-1.38 -4.713,-5.4939 -2.8955,-8.9795 -1.1954,-10.8026 -0.6654,-11.0969 A1.6297,1.6297 0 0 1 0.9175,-8.2477 Z" stroke-linecap="round" fill="#9398b0"/></g></g><g transform="matrix(1, 0, 0, 1, 421.4659, 336.2552) scale(1.0536960911355293, 1.0536960911355293)" opacity="1"><g transform="scale(0.9490402483341633)"><path d="M0,2.6956 T-1.4947,2.7327 -5.4627,2.1075 -8.6791,0.875 -9.4223,0.3048 A1.6793,1.6793 0 0 1 -7.4377,-2.4048 T-6.6699,-1.8683 -4.4457,-1.0008 -1.4947,-0.6327 0,-0.5956 A1.6456,1.6456 0 0 1 0,2.6956 Z" stroke-linecap="round" fill="#9398b0"/></g></g><g transform="matrix(1, 0, 0, 1, 430.9492, 307.8055) scale(1.0536960911355293, 1.0536960911355293)" opacity="1"><g transform="scale(0.9490402483341633)"><path d="M1.3442,1.05 T1.348,2.2964 1.3582,5.9376 1.3524,10.4862 1.3402,12.64 A1.3402,1.3402 0 0 1 -1.3402,12.64 T-1.3524,10.4862 -1.3582,5.9376 -1.348,2.2964 -1.3442,1.05 A1.3442,1.3442 0 0 1 1.3442,1.05 Z" stroke-linecap="round" fill="#9398b0"/></g></g><g transform="matrix(1, 0, 0, 1, 441.4861, 318.3424) scale(1.0536960911355293, 1.0536960911355293)" opacity="1"><g transform="scale(0.9490402483341633)"><path d="M1.7819,1.644 T1.2796,3.14 0.0233,7.0123 -1.3127,11.7816 -2.4426,16.157 -3.4015,20.4929 -4.0435,25.3719 -4.1493,29.4769 -2.9385,32.3843 -1.8528,33.7122 A1.6816,1.6816 0 0 1 -4.4672,35.8278 T-5.1843,35.0007 -6.9832,31.8455 -7.9494,27.2908 -7.6602,23.5279 -7.0963,19.7151 -6.1573,15.5125 -4.9985,11.0673 -3.5809,6.0002 -2.2776,1.9541 -1.7819,0.456 A1.8783,1.8783 0 0 1 1.7819,1.644 Z" stroke-linecap="round" fill="#9398b0"/></g></g><g transform="matrix(1, 0, 0, 1, 458.3453, 330.9868) scale(1.0536960911355293, 1.0536960911355293)" opacity="1"><g transform="scale(0.9490402483341633)"><path d="M1.3111,2.0318 T0.5775,3.0398 -1.3646,5.877 -3.6692,9.3655 -5.8717,12.3553 -8.6203,15.7802 -10.2624,17.8746 A1.6709,1.6709 0 0 1 -12.9176,15.8454 T-11.5291,13.9742 -8.8528,10.5019 -6.4532,7.2702 -4.0873,3.842 -2.0721,1.0563 -1.3111,0.0682 A1.6379,1.6379 0 0 1 1.3111,2.0318 Z" stroke-linecap="round" fill="#9398b0"/></g></g><g transform="matrix(1, 0, 0, 1, 449.9157, 334.1479) scale(1.0536960911355293, 1.0536960911355293)" opacity="1"><g transform="scale(0.9490402483341633)"><path d="M1.2735,0.0327 T2.2875,1.2724 4.4233,4.5946 6.5201,7.8946 8.6592,10.9614 9.8233,12.8107 A1.6529,1.6529 0 0 1 7.0367,14.5893 T5.9743,12.9502 3.7786,9.8863 1.6632,6.5174 -0.2962,3.3204 -1.2735,2.0673 A1.6299,1.6299 0 0 1 1.2735,0.0327 Z" stroke-linecap="round" fill="#9398b0"/></g></g><g transform="matrix(1, 0, 0, 1, 466.7749, 317.2887) scale(1.0536960911355293, 1.0536960911355293)" opacity="1"><g transform="scale(0.9490402483341633)"><path d="M1.6618,-0.6654 T2.1436,0.5914 2.9261,3.415 3.8276,7.7748 4.616,12.9507 4.8619,17.5243 4.948,22.2277 4.718,27.1624 4.0001,31.7859 2.7409,36.4634 1.2862,40.3915 0.6304,41.8438 A1.8417,1.8417 0 0 1 -2.7304,40.3362 T-1.5678,37.8003 0.0804,33.1819 0.9431,29.044 1.3246,24.683 1.3193,20.0119 1.2377,15.4993 0.8929,11.0317 -0.0047,5.9243 -1.1456,1.9013 -1.6618,0.6654 A1.7901,1.7901 0 0 1 1.6618,-0.6654 Z" stroke-linecap="round" fill="#9398b0"/></g></g><g transform="matrix(1, 0, 0, 1, 511.0301, 238.2615) scale(1.0536960911355293, 1.0536960911355293)" opacity="1"><g transform="scale(0.9490402483341633)"><path d="M0,-1.1452 T1.4947,-1.1459 5.2025,-1.1553 9.6705,-1.1746 12.8127,-1.1877 13.7,-1.1903 A2.2403,2.2403 0 0 1 13.7,3.2903 T12.8127,3.2877 9.6705,3.2746 5.2025,3.2553 1.4947,3.2459 0,3.2452 A2.1952,2.1952 0 0 1 0,-1.1452 ZM13.7,3.2903 T12.4069,3.29 9.404,3.2836 4.9792,3.3476 0.5309,3.2358 -1.2024,3.054 A2.0098,2.0098 0 0 1 -0.8976,-0.954 T0.8433,-0.8716 5.1257,-0.9833 9.3905,-1.1836 12.4069,-1.19 13.7,-1.1903 A2.2403,2.2403 0 0 1 13.7,3.2903 Z" stroke-linecap="round" fill="#e599f7"/></g></g><g transform="matrix(1, 0, 0, 1, 631.1514, 239.3152) scale(1.0536960911355293, 1.0536960911355293)" opacity="1"><g transform="scale(0.9490402483341633)"><path d="M0,-1.0964 T1.2464,-1.0865 5.005,-1.0789 9.7446,-1.3113 14.8307,-1.8529 17.6895,-2.1644 A2.1756,2.1756 0 0 1 18.1305,2.1644 T15.5589,2.4062 10.2523,2.9147 5.005,3.1789 1.2464,3.1865 0,3.1964 A2.1464,2.1464 0 0 1 0,-1.0964 ZM18.0084,2.1733 T16.7975,2.1808 13.5532,2.1873 9.7738,2.1772 6.1179,2.1592 4.2081,2.1504 A2.1504,2.1504 0 0 1 4.2119,-2.1504 T5.2189,-2.1537 7.9003,-2.1606 11.4883,-2.1582 15.0296,-2.0893 17.2344,-2.0998 17.8116,-2.1733 A2.1756,2.1756 0 0 1 18.0084,2.1733 ZM4.21,-2.1504 T5.265,-2.1325 6.32,-2.1147 A2.1147,2.1147 0 0 1 6.32,2.1147 T5.265,2.1325 4.21,2.1504 A2.1504,2.1504 0 0 1 4.21,-2.1504 Z" stroke-linecap="round" fill="#e599f7"/></g></g><g transform="matrix(1, 0, 0, 1, 721.7693, 229.8319) scale(1.0536960911355293, 1.0536960911355293)" opacity="1"><g transform="scale(0.9490402483341633)"><path d="M0,2.1716 T-1.4947,2.1632 -4.8851,2.3376 -8.3248,4.0465 -10.3022,7.0051 -8.9329,10.2696 -5.164,13.267 -0.7933,15.4377 3.16,16.4722 6.4408,15.2882 8.8061,12.0796 7.0171,8.442 3.3097,5.9144 2.0249,5.029 A2.1867,2.1867 0 0 1 4.2951,1.291 T6.8317,2.6206 11.3974,5.1615 14.1207,8.7727 14.0826,13.3739 11.9033,17.5011 7.8234,20.6432 3.6725,21.8953 -0.3577,20.9528 -4.2771,19.2881 -7.8953,17.0871 -11.8712,13.6475 -14.3717,9.19 -14.5605,5.1836 -12.8091,2.5247 -9.8273,-0.0938 -5.5199,-1.841 -1.4947,-2.1632 0,-2.1716 A2.1716,2.1716 0 0 1 0,2.1716 Z" stroke-linecap="round" fill="#e599f7"/></g></g><g transform="matrix(1, 0, 0, 1, 787.0985, 239.3152) scale(1.0536960911355293, 1.0536960911355293)" opacity="1"><g transform="scale(0.9490402483341633)"><path d="M1.05,-2.2554 T2.7954,-2.2762 7.2039,-2.3295 13.009,-2.3931 17.5604,-2.4248 18.97,-2.4255 A2.4255,2.4255 0 0 1 18.97,2.4255 T17.5604,2.4248 13.009,2.3931 7.2039,2.3295 2.7954,2.2762 1.05,2.2554 A2.2554,2.2554 0 0 1 1.05,-2.2554 ZM18.97,2.4255 T18.3336,2.4207 14.9343,2.7363 9.8303,3.1274 7.0594,3.3972 6.6295,3.5962 A2.2192,2.2192 0 0 1 5.1227,-0.5788 T7.1309,-0.974 11.1818,-1.5352 15.461,-2.0586 18.3336,-2.4207 18.97,-2.4255 A2.4255,2.4255 0 0 1 18.97,2.4255 ZM7.6615,0.1906 T7.7663,0.3329 7.8712,0.4752 A2.2189,2.2189 0 0 1 4.3009,3.111 T4.1958,2.9689 4.0907,2.8268 A2.2192,2.2192 0 0 1 7.6615,0.1906 ZM6.3833,-0.4058 T6.9373,-0.3304 9.3178,-0.1779 13.4872,-0.0164 15.8301,0.068 A2.0421,2.0421 0 0 1 15.7899,4.152 T13.4284,4.19 8.9826,4.1845 6.3435,4.0665 5.7888,3.992 A2.2189,2.2189 0 0 1 6.3833,-0.4058 Z" stroke-linecap="round" fill="#e599f7"/></g></g><g transform="matrix(1, 0, 0, 1, 508.9227, 284.6241) scale(1.0536960911355293, 1.0536960911355293)" opacity="1"><g transform="scale(0.9490402483341633)"><path d="M-0.3128,-3.2275 T1.4335,-3.4721 5.8105,-3.9284 11.0878,-4.214 16.3724,-4.314 21.3955,-4.3226 25.0588,-4.2904 26.3372,-4.2757 A2.1657,2.1657 0 0 1 26.3428,0.0557 T25.0645,0.0737 21.407,0.1179 16.4119,0.149 11.2303,0.1922 6.2331,0.4222 2.0572,0.8707 0.3128,1.1275 A2.1998,2.1998 0 0 1 -0.3128,-3.2275 Z" stroke-linecap="round" fill="#f76707"/></g></g><g transform="matrix(1, 0, 0, 1, 563.7149, 279.3557) scale(1.0536960911355293, 1.0536960911355293)" opacity="1"><g transform="scale(0.9490402483341633)"><path d="M0,0.9756 T-1.9917,0.9619 -6.5539,1.5182 -10.4761,3.2244 -12.6321,6.0559 -12.4997,9.2051 -9.9523,11.6494 -6.2293,13.3061 -1.6224,14.5117 2.3787,14.943 5.7693,14.1572 7.9345,11.8945 8.5179,8.3653 8.2555,4.9923 6.2415,2.0236 4.7924,0.4836 A2.1646,2.1646 0 0 1 7.8476,-2.5836 T9.8387,-0.6968 12.6065,2.6166 13.4855,6.7008 12.889,11.9314 11.3726,15.9102 8.6569,18.4275 4.6448,19.8277 -0.0563,19.7009 -5.273,18.4871 -10.2771,16.388 -14.4945,13.2668 -16.8623,9.2789 -16.5677,4.8433 -14.2631,1.294 -11.5403,-0.8329 -8.8528,-2.0971 -5.6972,-2.7821 -1.9957,-3.0619 0,-3.0756 A2.0256,2.0256 0 0 1 0,0.9756 Z" stroke-linecap="round" fill="#f76707"/></g></g><g transform="matrix(1, 0, 0, 1, 637.4736, 271.9798) scale(1.0536960911355293, 1.0536960911355293)" opacity="1"><g transform="scale(0.9490402483341633)"><path d="M1.8118,0 T1.8171,1.4947 1.8416,4.5244 1.8959,8.5557 1.9638,13.6437 2.4017,18.4615 2.8066,20.6877 A1.7978,1.7978 0 0 1 -0.7066,21.4523 T-1.3517,18.8535 -1.9638,13.6534 -1.8959,8.5557 -1.8416,4.5244 -1.8171,1.4947 -1.8118,0 A1.8118,1.8118 0 0 1 1.8118,0 Z" stroke-linecap="round" fill="#f76707"/></g></g><g transform="matrix(1, 0, 0, 1, 642.7421, 284.6241) scale(1.0536960911355293, 1.0536960911355293)" opacity="1"><g transform="scale(0.9490402483341633)"><path d="M-1.05,1.883 T-2.7954,1.9121 -7.0086,2.2008 -10.9903,2.6145 -15.3437,2.3263 -18.1831,1.884 A1.9037,1.9037 0 0 1 -17.6369,-1.884 T-16.2542,-1.7122 -12.5647,-1.5037 -7.3993,-1.7042 -2.7954,-1.9121 -1.05,-1.883 A1.883,1.883 0 0 1 -1.05,1.883 Z" stroke-linecap="round" fill="#f76707"/></g></g><g transform="matrix(1, 0, 0, 1, 796.5817, 275.1409) scale(1.0536960911355293, 1.0536960911355293)" opacity="1"><g transform="scale(0.9490402483341633)"><path d="M2,1.4485 T1.7588,2.6959 1.3498,6.0717 0.8292,10.3585 0.209,14.8122 -0.0586,17.1073 A2.0663,2.0663 0 0 1 -4.1614,16.6127 T-3.8277,13.9202 -3.2342,9.5845 -2.7427,5.5417 -2.2555,1.8968 -2,0.6515 A2.0393,2.0393 0 0 1 2,1.4485 Z" stroke-linecap="round" fill="#f76707"/></g></g><g transform="matrix(1, 0, 0, 1, 800.7965, 281.463) scale(1.0536960911355293, 1.0536960911355293)" opacity="1"><g transform="scale(0.9490402483341633)"><path d="M0,2.9909 T-1.7454,3.044 -5.1579,3.1374 -9.5236,2.4906 -13.0219,1.2391 -13.8217,0.6745 A2.0906,2.0906 0 0 1 -11.4583,-2.7745 T-10.6431,-2.2324 -8.3265,-1.3839 -5.1579,-1.0374 -1.7454,-0.944 0,-0.8909 A1.9409,1.9409 0 0 1 0,2.9909 Z" stroke-linecap="round" fill="#f76707"/></g></g><g transform="matrix(1, 0, 0, 1, 521.5671, 335.2015) scale(1.0536960911355293, 1.0536960911355293)" opacity="1"><g transform="scale(0.9490402483341633)"><path d="M1.6812,0.2793 T1.4532,1.7773 1.0654,5.6521 0.4808,10.3046 -0.0812,15.0004 -0.2854,18.7511 -0.3522,20.0818 A1.7589,1.7589 0 0 1 -3.8678,19.9582 T-3.841,18.6261 -3.7081,14.6832 -3.1501,9.9387 -2.4584,5.2542 -1.9499,1.2121 -1.6812,-0.2793 A1.7042,1.7042 0 0 1 1.6812,0.2793 Z" stroke-linecap="round" fill="#9398b0"/></g></g><g transform="matrix(1, 0, 0, 1, 523.6744, 345.7385) scale(1.0536960911355293, 1.0536960911355293)" opacity="1"><g transform="scale(0.9490402483341633)"><path d="M0,3.1221 T-1.4947,3.1588 -5.4499,3.248 -10.6099,3.7704 -13.3095,4.2405 A2.166,2.166 0 0 1 -14.0905,-0.0205 T-12.5704,-0.32 -9.487,-0.91 -5.4565,-1.148 -1.4947,-1.0588 0,-1.0221 A2.0721,2.0721 0 0 1 0,3.1221 Z" stroke-linecap="round" fill="#9398b0"/></g></g><g transform="matrix(1, 0, 0, 1, 562.6612, 339.4163) scale(1.0536960911355293, 1.0536960911355293)" opacity="1"><g transform="scale(0.9490402483341633)"><path d="M-0.3433,0.9966 T-1.8253,0.7375 -5.4664,1.2199 -8.5452,3.3784 -9.5947,6.3926 -8.3454,9.3166 -4.9551,11.6141 -0.7488,12.8992 3.944,13.2947 7.7959,11.8129 9.4468,8.6843 9.6298,5.3965 8.0542,2.5193 5.3803,0.6682 4.1679,-0.0278 A2.3559,2.3559 0 0 1 6.3721,-4.1922 T7.6293,-3.5811 11.2458,-1.2433 14.2979,2.8124 14.6124,7.778 12.9646,12.7664 9.017,16.5866 3.638,17.8901 -1.8817,17.1538 -6.0566,15.9484 -9.3908,13.9413 -12.5732,10.4352 -13.3829,5.5669 -12.1885,1.4829 -9.3942,-1.2295 -5.0356,-3.087 -1.164,-3.3389 0.3433,-3.0966 A2.0752,2.0752 0 0 1 -0.3433,0.9966 Z" stroke-linecap="round" fill="#9398b0"/></g></g><g transform="matrix(1, 0, 0, 1, 620.6145, 344.6848) scale(1.0536960911355293, 1.0536960911355293)" opacity="1"><g transform="scale(0.9490402483341633)"><path d="M0,-3.065 T2.242,-3.1064 6.1646,-3.1581 10.4586,-3.1482 14.441,-3.1147 15.81,-3.1013 A2.0513,2.0513 0 0 1 15.81,1.0013 T14.441,1.0147 10.4586,1.0482 6.1646,1.0581 2.242,1.0064 0,0.965 A2.015,2.015 0 0 1 0,-3.065 Z" stroke-linecap="round" fill="#9398b0"/></g></g><g transform="matrix(1, 0, 0, 1, 715.4471, 336.2552) scale(1.0536960911355293, 1.0536960911355293)" opacity="1"><g transform="scale(0.9490402483341633)"><path d="M0,2.974 T-1.4927,2.9638 -5.5653,3.5368 -9.5703,4.9308 -12.0841,7.6324 -12.1843,10.7148 -9.7005,12.9186 -6.2214,14.4535 -2.1956,15.208 1.6256,14.9342 4.4291,13.0971 4.7795,10.4384 2.0316,7.7241 -1.0758,5.6639 -2.1091,4.9908 A2.115,2.115 0 0 1 0.0091,1.3292 T1.1077,1.8894 4.2592,3.657 7.7678,6.7183 9.5585,10.9048 8.3963,15.4716 4.7672,18.6204 1.0354,19.7122 -3.051,19.4833 -7.9398,18.2447 -11.8875,16.2762 -15.1301,13.4824 -16.6821,9.8194 -15.6483,6.152 -13.0619,3.003 -8.865,0.6001 -4.6797,-0.5848 -1.4967,-0.8638 0,-0.874 A1.924,1.924 0 0 1 0,2.974 Z" stroke-linecap="round" fill="#9398b0"/></g></g><g transform="matrix(1, 0, 0, 1, 797.6354, 232.993) scale(1.0536960911355293, 1.0536960911355293)" opacity="1"><g transform="scale(0.9490402483341633)"><path d="M1.691,0 T1.6894,1.2486 1.4309,4.0468 0.7043,7.7114 0.016,11.7544 -0.5869,14.5426 -0.971,15.403 A1.7373,1.7373 0 0 1 -4.0338,13.7621 T-3.7339,12.4383 -2.9391,9.0823 -2.0659,4.7692 -1.6894,1.2441 -1.691,0 A1.691,1.691 0 0 1 1.691,0 ZM-2.0737,16.2661 T-2.2292,16.3057 -2.3847,16.3453 A1.7373,1.7373 0 0 1 -3.2422,12.9782 T-3.0866,12.9386 -2.9311,12.899 A1.7373,1.7373 0 0 1 -2.0737,16.2661 ZM-4.5258,14.9553 T-4.598,14.4045 -4.3646,12.1743 -3.5784,7.9275 -2.592,2.8297 -2.2078,-0.9847 -2.3293,-2.2685 A1.7284,1.7284 0 0 1 1.1183,-2.5194 T1.2104,-0.8686 0.7888,3.2514 0.0891,7.4114 -0.6907,11.3297 -1.1928,13.9627 -1.1011,14.3682 A1.7373,1.7373 0 0 1 -4.5258,14.9553 ZM0.5459,-1.105 T0.2086,-0.8118 -0.5884,1.0482 -1.1656,4.4474 -1.3025,8.0702 -1.3091,11.7456 -1.5754,15.5433 -2.136,18.4609 -2.4174,19.4654 A1.8598,1.8598 0 0 1 -6.0026,18.4746 T-5.515,16.803 -5.0011,13.3882 -4.9306,9.9231 -4.7874,6.1034 -4.3197,1.8863 -3.2283,-1.6153 -2.1312,-3.3404 -1.757,-3.6829 A1.7284,1.7284 0 0 1 0.5459,-1.105 Z" stroke-linecap="round" fill="#e599f7"/></g></g><g transform="matrix(1, 0, 0, 1, 789.2059, 335.2015) scale(1.0536960911355293, 1.0536960911355293)" opacity="1"><g transform="scale(0.9490402483341633)"><path d="M2.1363,1.05 T2.1505,2.547 2.1881,5.584 1.958,8.6353 1.522,12.9325 1.2467,17.3946 1.154,19.071 A2.2063,2.2063 0 0 1 -3.254,18.869 T-3.193,17.1912 -3.0766,13.9565 -2.6163,9.7545 -2.1881,5.5767 -2.1505,2.547 -2.1363,1.05 A2.1363,2.1363 0 0 1 2.1363,1.05 Z" stroke-linecap="round" fill="#9398b0"/></g></g><g transform="matrix(1, 0, 0, 1, 793.4206, 342.5774) scale(1.0536960911355293, 1.0536960911355293)" opacity="1"><g transform="scale(0.9490402483341633)"><path d="M0.6465,1.9365 T-0.8462,2.4441 -5.0054,3.4182 -10.2192,4.0162 -15.3205,4.1839 -17.8744,4.2201 A2.1104,2.1104 0 0 1 -17.9456,-0.0001 T-15.4172,-0.0497 -10.5255,-0.1908 -5.9009,-0.619 -2.1431,-1.4461 -0.6465,-1.9365 A2.0416,2.0416 0 0 1 0.6465,1.9365 Z" stroke-linecap="round" fill="#9398b0"/></g></g><g transform="matrix(1, 0, 0, 1, 509.9764, 439.5175) scale(1.0536960911355293, 1.0536960911355293)" opacity="1"><g transform="scale(0.9490402483341633)"><path d="M-1.6224,-0.9728 T-0.8688,-2.2157 1.1947,-5.1965 3.6508,-8.2012 5.8735,-10.5811 7.9447,-13.0729 10.0403,-15.6737 12.5856,-18.1114 15.2787,-20.5247 17.4539,-22.9204 19.4039,-25.6008 21.7475,-28.2651 23.4877,-29.8011 23.9078,-30.1555 A2.0251,2.0251 0 0 1 26.4251,-26.9825 T24.9938,-25.819 22.4465,-23.1096 20.0407,-20.0742 17.49,-17.3995 15.0671,-15.2619 12.8967,-13.2042 10.7668,-10.5849 8.5893,-7.9861 6.4717,-5.7419 4.2572,-3.0546 2.3635,-0.277 1.6224,0.9728 A1.8917,1.8917 0 0 1 -1.6224,-0.9728 ZM23.1452,-28.6944 T23.1606,-29.1661 23.1761,-29.6379 A2.0528,2.0528 0 0 1 27.2737,-29.3836 T27.2307,-28.9136 27.1877,-28.4435 A2.0251,2.0251 0 0 1 23.1452,-28.6944 ZM24.5592,-27.5689 T23.6294,-27.869 20.7566,-28.5023 17.0734,-29.3606 14.8925,-29.9872 14.4517,-30.0885 A2.2719,2.2719 0 0 1 15.682,-34.4626 T17.7911,-33.7893 21.6144,-32.742 24.6096,-31.9103 25.8906,-31.4526 A2.0528,2.0528 0 0 1 24.5592,-27.5689 ZM14.6612,-34.5109 T15.5375,-34.6588 17.9819,-34.8382 21.3163,-34.4825 24.9628,-33.0844 28.0574,-30.222 30.2273,-25.1524 31.5004,-20.1147 31.8181,-18.2952 A2.3499,2.3499 0 0 1 27.1819,-17.5248 T26.8941,-19.3493 25.987,-23.6449 24.4778,-27.6544 22.1279,-29.5926 18.7239,-30.1461 16.1263,-30.17 15.4726,-30.0402 A2.2719,2.2719 0 0 1 14.6612,-34.5109 Z" stroke-linecap="round" fill="#9398b0"/></g></g><g transform="matrix(1, 0, 0, 1, 553.1779, 415.2825) scale(1.0536960911355293, 1.0536960911355293)" opacity="1"><g transform="scale(0.9490402483341633)"><path d="M1.9667,0 T1.9598,1.9937 1.9634,5.5403 1.726,8.5898 1.3306,12.2814 1.1598,16.7467 0.5344,20.9266 -0.0678,22.8363 A2.1609,2.1609 0 0 1 -4.1522,21.4237 T-3.6238,19.1988 -2.9459,14.4229 -2.3851,9.4762 -1.9634,5.5339 -1.9598,1.9937 -1.9667,0 A1.9667,1.9667 0 0 1 1.9667,0 ZM-4.041,21.1599 T-3.4967,20.1121 -2.9524,19.0643 A2.1289,2.1289 0 0 1 0.8524,20.9757 T0.3367,22.0379 -0.179,23.1001 A2.1609,2.1609 0 0 1 -4.041,21.1599 Z" stroke-linecap="round" fill="#9398b0"/></g></g><g transform="matrix(1, 0, 0, 1, 564.7686, 416.3361) scale(1.0536960911355293, 1.0536960911355293)" opacity="1"><g transform="scale(0.9490402483341633)"><path d="M1.3386,2.7216 T0.0808,3.7012 -2.8571,6.251 -5.3148,9.1872 -4.6731,12.5029 -2.0079,15.7182 -0.0902,17.8702 0.5817,18.7563 A2.0638,2.0638 0 0 1 -2.6817,21.2837 T-3.3716,20.4115 -5.4059,18.1259 -7.8101,15.4216 -9.4277,11.9095 -9.1877,7.7302 -7.1184,4.7461 -4.8277,2.5658 -2.5735,0.3949 -1.3386,-0.6216 A2.1415,2.1415 0 0 1 1.3386,2.7216 Z" stroke-linecap="round" fill="#9398b0"/></g></g><g transform="matrix(1, 0, 0, 1, 573.1982, 418.4435) scale(1.0536960911355293, 1.0536960911355293)" opacity="1"><g transform="scale(0.9490402483341633)"><path d="M1.9787,0 T1.9583,1.4947 1.9469,4.5244 1.9878,8.8063 1.7655,13.221 1.2414,16.5663 0.9716,18.2437 A2.0489,2.0489 0 0 1 -3.0716,17.5763 T-2.5456,14.5603 -1.9878,8.8019 -1.9469,4.5244 -1.9583,1.4947 -1.9787,0 A1.9787,1.9787 0 0 1 1.9787,0 Z" stroke-linecap="round" fill="#9398b0"/></g></g><g transform="matrix(1, 0, 0, 1, 574.2519, 412.1214) scale(1.0536960911355293, 1.0536960911355293)" opacity="1"><g transform="scale(0.9490402483341633)"><path d="M0,-3.1182 T1.2464,-3.1091 4.4555,-2.7928 8.2372,-1.5427 11.4647,0.9474 13.3345,4.493 12.4917,8.1876 9.0416,10.8795 5.8417,12.1795 4.7878,12.4838 A2.0278,2.0278 0 0 1 3.6322,8.5962 T5.3756,8.0985 8.4757,6.4024 8.27,3.6412 4.6001,1.5391 1.2464,1.0091 0,1.0182 A2.0682,2.0682 0 0 1 0,-3.1182 Z" stroke-linecap="round" fill="#9398b0"/></g></g><g transform="matrix(1, 0, 0, 1, 612.1849, 404.7455) scale(1.0536960911355293, 1.0536960911355293)" opacity="1"><g transform="scale(0.9490402483341633)"><path d="M1.7202,-1.0315 T2.4562,0.2229 4.015,3.0872 6.0564,5.7129 8.8319,8.2234 11.7001,10.7744 14.7102,12.9229 18.0258,15.0771 21.2349,17.1885 24.2533,19.7496 26.7185,22.4256 29.4322,25.9525 31.1069,28.3151 A1.9965,1.9965 0 0 1 27.8931,30.6849 T26.998,29.5201 24.8001,26.7662 21.9322,23.366 18.7852,20.4947 15.6094,18.3709 12.3712,16.2242 9.171,13.8524 6.1233,11.1022 3.091,8.2302 0.6738,5.164 -0.9615,2.2698 -1.7202,1.0315 A2.0057,2.0057 0 0 1 1.7202,-1.0315 Z" stroke-linecap="round" fill="#9398b0"/></g></g><g transform="matrix(1, 0, 0, 1, 644.8495, 432.1416) scale(1.0536960911355293, 1.0536960911355293)" opacity="1"><g transform="scale(0.9490402483341633)"><path d="M1.8433,0.6125 T1.5977,1.3607 1.3522,2.109 A1.9482,1.9482 0 0 1 -2.3455,0.8804 T-2.0944,0.1339 -1.8433,-0.6125 A1.9424,1.9424 0 0 1 1.8433,0.6125 ZM-2.4447,1.4725 T-2.3937,0.1178 -2.227,-2.7887 -2.0661,-5.9358 -2.0208,-7.5312 A1.9847,1.9847 0 0 1 1.948,-7.4584 T1.8985,-5.7759 1.6235,-2.0696 1.4247,0.7356 1.4514,1.5168 A1.9482,1.9482 0 0 1 -2.4447,1.4725 ZM-1.409,-6.0612 T-1.7066,-6.4552 -2.0158,-6.6521 -2.0272,-6.455 A1.977,1.977 0 0 1 -2.0343,-10.409 T-1.0322,-10.2137 0.653,-9.4734 1.3361,-8.9285 A1.9847,1.9847 0 0 1 -1.409,-6.0612 ZM-0.2874,-7.4998 T-0.5507,-7.0144 -0.9614,-4.4436 -0.9234,-0.4697 -0.5262,3.6861 -0.9757,8.104 -3.5127,11.1511 -8.385,11.6599 -12.8425,10.7425 -14.3033,10.2128 A1.8821,1.8821 0 0 1 -13.0967,6.6472 T-10.6619,7.4817 -6.1449,7.9157 -4.1905,5.8518 -4.6945,1.9411 -5.011,-2.5687 -4.6334,-6.5842 -4.0449,-8.8506 -3.7742,-9.3642 A1.977,1.977 0 0 1 -0.2874,-7.4998 Z" stroke-linecap="round" fill="#9398b0"/></g></g><g transform="matrix(1, 0, 0, 1, 692.2658, 414.2288) scale(1.0536960911355293, 1.0536960911355293)" opacity="1"><g transform="scale(0.9490402483341633)"><path d="M2.5165,1.05 T2.5173,2.7954 2.526,6.4562 2.5424,10.1309 2.5638,13.5644 2.5757,17.8437 2.5635,21.5936 2.552,22.7386 A2.552,2.552 0 0 1 -2.552,22.7386 T-2.5635,21.5936 -2.5757,17.8437 -2.5638,13.5644 -2.5424,10.1309 -2.526,6.4562 -2.5173,2.7954 -2.5165,1.05 A2.5165,2.5165 0 0 1 2.5165,1.05 ZM0.989,20.3861 T1.4975,20.6461 2.006,20.9061 A2.4667,2.4667 0 0 1 0.094,25.4539 T-0.4475,25.2725 -0.989,25.0911 A2.552,2.552 0 0 1 0.989,20.3861 Z" stroke-linecap="round" fill="#9398b0"/></g></g><g transform="matrix(1, 0, 0, 1, 711.2323, 413.1751) scale(1.0536960911355293, 1.0536960911355293)" opacity="1"><g transform="scale(0.9490402483341633)"><path d="M2.0916,2.0958 T1.5715,3.0844 -0.0375,5.8082 -3.1331,9.2449 -6.4064,12.0074 -9.1665,14.5992 -9.2055,17.7208 -6.3522,20.1235 -2.8165,22.7421 -0.6797,24.5487 A2.2923,2.2923 0 0 1 -3.5403,28.1313 T-5.5019,26.6654 -9.3682,23.9135 -12.2673,21.4748 -14.0795,18.6871 -14.1427,14.602 -11.9868,10.9446 -9.1344,8.524 -6.3347,6.2923 -4.0167,3.6466 -2.5695,1.0117 -2.0916,0.0042 A2.3385,2.3385 0 0 1 2.0916,2.0958 Z" stroke-linecap="round" fill="#9398b0"/></g></g><g transform="matrix(1, 0, 0, 1, 717.5545, 416.3361) scale(1.0536960911355293, 1.0536960911355293)" opacity="1"><g transform="scale(0.9490402483341633)"><path d="M2.0991,-0.3487 T2.323,1.1501 2.7536,5.2301 2.6492,10.179 1.8769,14.7327 0.9896,18.9927 0.3317,21.7879 0.1,22.5092 A2.119,2.119 0 0 1 -3.9541,21.2742 T-3.7099,20.4334 -3.13,17.9358 -2.3172,14.1925 -1.5039,10.0644 -1.3606,5.6762 -1.8263,1.8392 -2.0991,0.3487 A2.1279,2.1279 0 0 1 2.0991,-0.3487 ZM-4.0419,22.0242 T-4.0481,21.3309 -4.0642,19.8653 -4.0741,19.093 A1.9679,1.9679 0 0 1 -0.1459,18.847 T-0.0594,19.6145 0.1075,21.0706 0.1878,21.7593 A2.119,2.119 0 0 1 -4.0419,22.0242 Z" stroke-linecap="round" fill="#9398b0"/></g></g><g transform="matrix(1, 0, 0, 1, 718.6082, 416.3361) scale(1.0536960911355293, 1.0536960911355293)" opacity="1"><g transform="scale(0.9490402483341633)"><path d="M-1.3178,-2.8057 T-0.2945,-3.5347 2.9599,-5.0132 7.1797,-5.1906 10.5715,-3.1116 12.4861,-0.1592 13.0072,3.6599 11.6753,7.8962 8.4859,10.8275 4.3451,12.3331 0.9883,12.7112 -0.0756,12.6521 A2.1134,2.1134 0 0 1 0.0756,8.4279 T1.647,8.5499 4.5928,8.0581 7.5503,5.8313 8.9513,2.6231 7.6351,-0.2093 4.8776,-1.1361 2.2859,-0.06 1.3178,0.7057 A2.1953,2.1953 0 0 1 -1.3178,-2.8057 Z" stroke-linecap="round" fill="#9398b0"/></g></g><g transform="matrix(1, 0, 0, 1, 755.4876, 437.4101) scale(1.0536960911355293, 1.0536960911355293)" opacity="1"><g transform="scale(0.9490402483341633)"><path d="M-1.5691,-1.5691 T-0.8128,-2.3042 1.0271,-4.6918 3.9529,-8.5479 7.3768,-12.8347 10.6124,-16.9725 13.8914,-20.7987 16.7719,-24.0185 19.1468,-26.6452 21.7123,-28.8292 21.5804,-28.5837 17.3393,-27.2203 13.1607,-27.0751 11.6455,-27.0422 A2.4584,2.4584 0 0 1 11.5345,-31.9578 T13.0497,-31.9932 16.9461,-32.0943 20.9223,-32.464 24.4087,-32.1588 26.4365,-29.1668 25.1264,-25.6362 22.6038,-23.3823 20.3636,-20.9786 17.5843,-18.003 14.1727,-14.1782 10.7134,-9.9346 7.4271,-5.9664 4.4248,-2.0223 2.3075,0.8096 1.5691,1.5691 A2.219,2.219 0 0 1 -1.5691,-1.5691 ZM11.5646,-31.9583 T12.5831,-31.9644 15.5042,-31.9624 20.082,-31.6768 24.9541,-30.8116 28.3852,-28.6301 29.9877,-25.5289 30.1872,-21.5457 29.2392,-16.782 27.9805,-13.1924 27.5008,-11.8907 A2.3343,2.3343 0 0 1 23.0792,-13.3893 T23.8582,-15.9195 24.9408,-20.0714 25.0335,-23.842 23.3442,-26.3006 19.6316,-26.8333 15.3274,-27.0618 12.4366,-27.0546 11.6154,-27.0417 A2.4584,2.4584 0 0 1 11.5646,-31.9583 Z" stroke-linecap="round" fill="#9398b0"/></g></g></svg>