<svg xmlns="http://www.w3.org/2000/svg" direction="ltr" width="319.65736202914934" height="301.10962348875364" viewBox="888.0000000000001 11168.406312551968 319.65736202914934 301.10962348875364" stroke-linecap="round" stroke-linejoin="round" style="background-color: transparent;"><defs/><g transform="matrix(1, 0, 0, 1, 920, 11200)" opacity="1"><path d="M0,118.96112429634468 a120.79198175314752,118.96112429634468,0,1,1,241.58396350629505,0a120.79198175314752,118.96112429634468,0,1,1,-241.58396350629505,0 " stroke="#f2f2f2" stroke-width="3.5" fill="none"/></g><g transform="matrix(1, 0, 0, 1, 1162.1884, 11317.6689)" opacity="1"><g transform="scale(1)"><path d="M0,0 Q0.456,-2.2709 0.352,-3.3446 T0.1915,-5.228 0.1042,-6.9344 0.0567,-8.5443 -0.1972,-9.8739 -0.5633,-11.2789 -0.7624,-12.9506 -1.0965,-14.9955 -1.5039,-17.2456 -1.7256,-19.1514 -2.0742,-20.8699 -2.4918,-22.4865 -2.719,-23.8196 -3.0706,-25.2265 -3.4898,-26.9016 -3.7179,-28.4946 -4.0677,-30.0429 -4.4837,-31.5669 -4.71,-32.8497 -5.0611,-34.2292 -5.4801,-35.6614 -5.9361,-37.1223 -6.4121,-38.8267 -6.8968,-40.4356 -7.3862,-41.9926 -7.6524,-43.5213 -8.0252,-44.8066 -8.456,-45.9596 -8.6904,-47.2685 -9.0459,-48.6623 -9.4673,-50.1022 -9.6965,-51.5672 -10.047,-53.0459 -10.6913,-54.5321 -11.2698,-55.7942 -11.8125,-56.9369 -12.3358,-58.0122 -12.8461,-59.0509 -13.5775,-60.0719 -14.2034,-61.0811 -14.7695,-62.3118 -15.5313,-63.663 -16.4017,-65.0798 -17.3289,-66.3065 -18.059,-67.1996 -18.6842,-68.1391 -19.4803,-69.1063 -20.3671,-70.0861 -21.3032,-71.3008 -22.2685,-72.4177 -23.0216,-73.2509 -23.657,-74.1579 -24.4564,-74.8794 -25.3472,-75.4975 -26.0598,-76.2875 -26.6732,-76.9453 -27.4606,-77.5311 -28.345,-78.3035 -29.0541,-79.1774 -29.6655,-80.1088 -30.4519,-81.0693 -31.3357,-82.0454 -32.2702,-83.0325 -33.2322,-84.0231 -34.2116,-85.2438 -35.1981,-86.3638 -36.1885,-86.9731 -36.9553,-87.5303 -37.6004,-88.0591 -38.405,-88.5748 -39.2965,-89.3113 -40.2375,-90.1657 -41.2031,-90.8562 -42.1821,-91.4599 -43.1706,-92.2443 -44.1621,-93.1247 -45.1552,-94.0573 -46.1492,-94.7927 -47.1437,-95.4208 -48.1406,-96.2161 -49.1367,-96.8745 -50.1323,-97.4607 -51.1299,-98.0076 -52.1263,-98.3051 -53.1221,-98.6949 -54.3455,-99.3607 -55.9352,-100.1957 L-56.8,-100.65 " stroke-linecap="round" fill="none" stroke="#4dabf7" stroke-width="4.5" stroke-dasharray="none" stroke-dashoffset="0"/></g></g><g transform="matrix(1, 0, 0, 1, 1102.395, 11219.0098)" opacity="1"><g transform="scale(1)"><path d="M0,0 Q0,3.1829 0,4.7303 T0,7.5733 0,10.4144 L0,11.96 " stroke-linecap="round" fill="none" stroke="#4dabf7" stroke-width="4.5" stroke-dasharray="none" stroke-dashoffset="0"/></g></g><g transform="matrix(1, 0, 0, 1, 1102.395, 11217.0167)" opacity="1"><g transform="scale(1)"><path d="M1,0 Q3.7269,-0.456 5.3534,-0.728 L6.98,-1 " stroke-linecap="round" fill="none" stroke="#4dabf7" stroke-width="4.5" stroke-dasharray="none" stroke-dashoffset="0"/></g></g><g transform="matrix(1, 0, 0, 1, 1169.1642, 11250.8996)" opacity="1"><g transform="scale(1)"><path d="M0,1 Q-1.3634,4.1783 -1.7343,5.4988 T-2.3069,7.9914 -2.8464,10.4828 -3.1399,12.9736 -2.8435,15.0103 -2.2286,16.5719 -1.2124,17.6472 0.0222,18.2322 1.3755,18.3247 3.0688,18.0755 L3.99,17.94 " stroke-linecap="round" fill="none" stroke="#4dabf7" stroke-width="4.5" stroke-dasharray="none" stroke-dashoffset="0"/></g></g><g transform="matrix(1, 0, 0, 1, 1171.1574, 11259.8686)" opacity="1"><g transform="scale(1)"><path d="M0,0 Q-2.2709,0.456 -3.3446,0.58 T-5.6991,0.852 L-6.98,1 " stroke-linecap="round" fill="none" stroke="#4dabf7" stroke-width="4.5" stroke-dasharray="none" stroke-dashoffset="0"/></g></g><g transform="matrix(1, 0, 0, 1, 1039.4057, 11319.9948)" opacity="1"><g transform="scale(1)"><path d="M0,-0.93 Q1.6963,-3.055 2.3698,-4.057 T3.6239,-5.8163 4.7325,-7.1974 5.5476,-8.3728 6.203,-9.4363 6.9837,-10.4389 7.8325,-11.4084 8.7183,-12.5719 9.6242,-13.8433 10.5411,-14.9613 11.464,-16.2056 12.3901,-17.5186 13.318,-18.869 14.0349,-20.2397 14.6391,-21.6215 15.3942,-23.0094 16.229,-24.4027 17.1073,-26.0112 18.0091,-27.5223 18.9238,-28.9804 19.8455,-30.4098 20.7709,-31.8235 21.6985,-33.2287 22.6271,-34.4194 23.5564,-35.7056 24.4883,-37.0414 25.4216,-38.1922 26.1413,-39.2423 26.7449,-40.4496 27.4974,-41.7426 28.3308,-43.082 29.2082,-44.4491 30.1096,-45.8312 30.812,-47.2192 31.4062,-48.3983 32.1535,-49.6759 32.9841,-51.007 33.648,-52.1552 34.2212,-53.416 34.9594,-54.7402 35.7873,-55.8869 36.6618,-57.1469 37.3495,-58.4684 37.9357,-59.8235 38.6787,-61.1967 39.5069,-62.3679 40.1695,-63.6411 40.742,-65.1841 41.4775,-66.662 42.3017,-68.102 42.9621,-69.5215 43.5334,-70.7178 44.0563,-71.7927 44.5527,-72.8015 45.2492,-73.7744 45.8423,-74.7277 46.3771,-75.6704 47.092,-76.8216 47.9051,-78.0863 48.5594,-79.1983 49.1274,-80.2274 49.8605,-81.2113 50.4713,-82.1706 51.0156,-83.3285 51.5238,-84.5946 52.0123,-85.9217 52.7021,-87.2821 53.5014,-88.4462 54.1483,-89.5036 54.7122,-90.5029 55.4454,-91.4706 56.0585,-92.4211 56.6041,-93.3622 57.325,-94.0862 58.1412,-94.6922 58.7973,-95.4459 59.3663,-96.2799 60.0998,-96.9457 60.923,-97.7343 61.8602,-98.9491 L62.37,-99.61 " stroke-linecap="round" fill="none" stroke="#4dabf7" stroke-width="4.5" stroke-dasharray="none" stroke-dashoffset="0"/></g></g><g transform="matrix(1, 0, 0, 1, 1039.4057, 11319.0639)" opacity="1"><g transform="scale(1)"><path d="M0,0.93 Q2.549,0.0818 4.5146,-0.3609 T8.1856,-1.2565 11.2451,-1.9558 13.7599,-2.3362 15.9761,-2.5431 18.0299,-2.6557 20.2073,-2.7169 22.6664,-2.9623 25.0666,-3.3078 27.4325,-3.4958 29.9918,-3.8101 32.6586,-4.1931 35.3838,-4.4014 38.1386,-4.7291 40.6974,-5.1217 43.1519,-5.3352 45.5496,-5.4514 47.7021,-5.5146 49.7212,-5.549 51.6678,-5.5677 53.5772,-5.5779 55.4663,-5.5834 57.3421,-5.5864 59.2108,-5.588 61.2875,-5.5889 63.4774,-5.5894 65.3072,-5.5897 66.9409,-5.5898 68.6779,-5.5899 70.4709,-5.5899 72.2945,-5.59 74.1347,-5.59 76.1982,-5.59 78.5953,-5.59 81.1716,-5.59 83.4212,-5.59 85.2834,-5.59 86.9349,-5.3757 88.2573,-5.0448 89.8249,-4.8648 91.5258,-4.7668 92.8752,-4.5015 94.0334,-4.1451 95.2995,-3.9513 96.8387,-3.8458 98.3145,-3.7884 99.5414,-3.5452 100.6329,-3.2008 102.0748,-3.0135 103.9194,-2.9116 105.559,-2.8561 107.3014,-2.826 109.0997,-2.8096 110.7141,-2.8006 112.4404,-2.7958 114.2278,-2.7932 115.8362,-2.7917 117.1375,-2.7909 118.4839,-2.7905 119.8524,-2.7903 121.233,-2.7902 122.902,-2.7901 L123.81,-2.79 " stroke-linecap="round" fill="none" stroke="#4dabf7" stroke-width="4.5" stroke-dasharray="none" stroke-dashoffset="0"/></g></g><g transform="matrix(1, 0, 0, 1, 1098.8336, 11328.6091)" opacity="1"><g transform="scale(1)"><path d="M0,0 Q0,2.28 0,4.0402 T-0.228,7.2138 -0.58,9.8523 -0.7715,11.9717 -0.8757,13.8086 -1.1604,15.4919 -1.5433,16.8636 -1.7515,17.6098 -1.8648,17.5597 -1.9265,17.0765 -1.96,16.3576 -1.9782,15.5105 -1.9882,14.5937 -1.9936,13.639 -1.9965,12.4356 -1.9981,11.097 -1.999,9.9128 -1.9994,8.8125 -1.9997,7.758 -1.7718,6.5004 -1.4199,5.1322 -1.2284,3.9319 -1.1243,2.823 -1.0676,1.7637 -1.0368,0.7314 -1.02,-0.2861 -1.0109,-1.2956 -1.2339,-2.0728 -1.8113,-2.2676 -2.5813,-2.1456 -3.2282,-1.8512 -3.8082,-1.2351 -4.5796,-0.6719 -5.4553,-0.1375 -6.3877,0.6092 -7.5789,1.6994 -9.147,3.1894 L-10,4 " stroke-linecap="round" fill="none" stroke="#4dabf7" stroke-width="4.5" stroke-dasharray="none" stroke-dashoffset="0"/></g></g></svg>