<svg xmlns="http://www.w3.org/2000/svg" direction="ltr" width="889.2664470094408" height="432.81097329036857" viewBox="1159.3537075955524 6279.983488660512 889.2664470094408 432.81097329036857" stroke-linecap="round" stroke-linejoin="round" style="background-color: transparent;"><defs/><g transform="matrix(1, 0, 0, 1, 1195.793, 6562.6872) scale(1.223977937952355, 1.223977937952355)" opacity="1"><g transform="scale(0.8170081902562253)"><path d="M0,0 Q3.347,-1.1172 4.5379,-1.4211 T6.9351,-1.8903 9.076,-2.1455 10.7969,-2.0039 12.2917,-1.6464 13.6635,-1.452 15.2465,-1.3462 17.2249,-1.2887 19.1378,-1.2573 21.0153,-1.2403 23.1538,-1.2311 25.1539,-1.5065 27.0787,-1.9367 29.243,-2.1708 31.2572,-2.2981 32.9115,-2.3674 34.6482,-2.405 36.7078,-2.4255 38.6673,-2.7149 40.5701,-3.1504 42.7201,-3.3873 44.7287,-3.5162 46.38,-3.5864 48.1151,-3.6245 50.4543,-3.6452 53.1222,-3.6565 55.6885,-3.6627 57.9213,-3.666 59.6945,-3.6678 61.7741,-3.6688 64.0226,-3.6694 65.8044,-3.6697 67.6104,-3.6698 69.4297,-3.6699 70.9779,-3.6699 72.3788,-3.67 74.2558,-3.67 76.3941,-3.67 78.1159,-3.67 79.8893,-3.67 81.9713,-3.67 83.9406,-3.67 85.8487,-3.67 88.0039,-3.3918 90.0131,-2.9624 91.6647,-2.7287 93.3999,-2.6016 95.1806,-2.5325 96.7079,-2.4949 98.0974,-2.4744 99.9705,-2.4633 102.1043,-2.4572 103.8238,-2.4539 105.3177,-2.4521 107.2454,-2.4512 109.4112,-2.4506 111.148,-2.4503 113.2078,-2.4502 115.4455,-2.4501 117.78,-2.4501 120.1649,-2.45 122.0208,-2.45 123.5891,-2.45 125.279,-2.45 127.3155,-2.45 129.5383,-2.45 131.8624,-2.45 133.9657,-2.45 135.9467,-2.45 137.8611,-2.45 139.7416,-2.45 141.6014,-2.45 143.728,-2.45 146.0021,-2.45 148.0759,-2.45 150.0409,-2.45 151.9488,-2.45 154.1017,-2.45 156.1096,-2.45 158.3191,-2.45 160.636,-2.45 162.7331,-2.45 164.9912,-2.45 167.6149,-2.45 170.1572,-2.45 172.3769,-2.45 174.4235,-2.45 176.0954,-2.45 177.8417,-2.45 179.9089,-2.45 181.8702,-2.45 184.0521,-2.45 186.6344,-2.45 189.1563,-2.45 191.6455,-2.45 194.3949,-2.45 197.286,-2.45 199.9737,-2.45 202.5507,-2.45 205.0698,-2.45 207.5574,-2.45 210.0278,-2.45 212.4866,-2.45 214.661,-2.45 216.6829,-2.45 218.8977,-2.45 221.498,-2.45 224.3079,-2.45 226.9514,-2.45 229.5066,-2.45 232.0139,-2.45 234.495,-2.45 236.9597,-2.45 239.1372,-2.45 241.1609,-2.45 243.3766,-2.45 245.6969,-2.45 248.0764,-2.45 250.488,-2.45 252.6367,-2.45 254.9205,-2.45 257.2801,-2.45 259.1223,-2.45 261.2394,-2.45 263.5082,-2.45 265.3011,-2.45 266.8351,-2.45 268.5063,-2.45 270.2522,-2.45 271.7605,-2.45 273.1397,-2.45 274.4486,-2.45 276.2755,-2.45 278.6647,-2.45 280.8012,-2.45 282.8002,-2.45 284.7244,-2.45 286.8884,-2.45 289.461,-2.45 291.6972,-2.45 293.4723,-2.45 295.5529,-2.45 297.8019,-2.45 299.584,-2.45 301.1121,-2.45 302.7801,-2.45 304.8024,-2.45 307.0197,-2.45 309.3432,-2.45 311.4439,-2.1696 313.1453,-1.7366 314.9076,-1.501 316.9812,-1.3729 318.9483,-1.3032 321.1356,-1.2652 323.4404,-1.2446 325.8091,-1.2334 328.4931,-1.2273 330.7922,-1.224 332.8797,-1.2222 335.1302,-1.2212 337.7498,-1.2206 340.5703,-1.2203 342.9436,-1.2202 345.0715,-1.2201 347.6244,-1.2201 350.1304,-1.22 352.3304,-1.22 354.6444,-1.22 357.8572,-1.22 362.3957,-1.5004 367.3749,-1.9334 372.0353,-2.169 376.2463,-2.2971 380.2129,-2.3668 383.7638,-2.4048 387.0909,-2.4254 390.2962,-2.4366 393.1548,-2.4427 396.6638,-2.446 400.5267,-2.726 403.7453,-3.1565 407.1697,-3.3906 410.7061,-3.518 414.0253,-3.5873 417.5067,-3.625 420.796,-3.6455 423.7002,-3.6567 426.3974,-3.6628 428.9818,-3.9465 432.0613,-4.3813 435.1318,-4.6178 437.9194,-4.7465 440.8313,-5.0947 443.8106,-5.5622 446.8268,-5.8166 449.8629,-5.9549 452.6295,-6.0302 455.2517,-6.0711 458.0736,-6.3716 461.004,-6.8132 463.9936,-7.0534 466.4566,-7.1841 469.1919,-7.2552 472.6338,-7.2939 475.9016,-7.3149 478.7942,-7.3263 481.485,-7.3326 483.7855,-7.336 486.1542,-7.3378 488.56,-7.3388 490.9836,-7.3393 493.9756,-7.3396 496.9986,-7.3398 500.0385,-7.3399 503.3657,-7.3399 506.5711,-7.34 509.7101,-7.34 513.0936,-7.34 516.3296,-7.34 519.2048,-7.34 522.4448,-7.34 525.8831,-7.0618 528.8685,-6.6324 531.3293,-6.3987 534.0633,-6.2716 537.5046,-6.2025 540.772,-6.1649 544.223,-6.1444 547.7762,-6.1333 550.8263,-6.1272 553.6005,-6.1239 556.2245,-6.1221 558.7692,-6.1212 561.2707,-5.8425 563.7488,-5.4127 566.2117,-5.1789 568.6665,-5.0517 571.1191,-4.9825 573.5705,-4.9449 576.0213,-4.9244 578.4694,-4.6328 580.9161,-4.1938 583.3643,-3.9549 585.8134,-3.825 588.2628,-3.7543 590.7103,-3.7159 593.1566,-3.4168 595.6046,-2.9759 598.0535,-2.7361 600.5029,-2.6056 602.9503,-2.5347 605.1184,-2.4961 607.1347,-2.4751 609.3464,-2.1832 611.6668,-1.744 614.0463,-1.505 616.458,-1.3751 618.8848,-1.3044 621.3199,-1.2659 623.7618,-1.245 626.2074,-0.9554 628.655,-0.5197 631.1015,-0.2827 633.8277,-0.1538 636.7061,-0.0837 639.3869,-0.0455 641.9624,-0.0248 644.4807,-0.0135 646.9679,-0.0073 649.4358,-0.004 651.8933,0.276 654.3473,0.7065 656.7996,0.9406 659.2508,1.068 661.6991,1.1373 664.146,1.175 666.5942,1.1955 669.0433,1.2067 671.4928,1.2128 673.9402,1.2161 676.1084,1.2179 678.1269,1.2188 680.3399,1.2194 682.3806,1.2197 684.3297,1.5003 686.505,1.9333 689.0837,2.1689 691.8818,2.2971 694.519,2.3668 697.0708,2.4048 699.2957,2.4254 701.3428,2.4366 703.5737,2.4427 705.624,2.446 707.5761,2.4478 709.4771,2.4488 711.348,2.4494 713.2026,2.1692 715.0505,1.7364 717.4511,1.5009 720.4306,1.3728 723.7249,1.3031 726.9124,1.2652 729.4831,1.2446 731.7184,1.2334 733.7711,0.9491 735.4464,0.5163 737.475,0.2809 739.6934,0.1528 741.737,0.0831 743.6878,0.0452 745.5858,0.0246 747.455,0.0134 749.3109,0.0073 751.4355,0.004 753.428,-0.276 755.3509,-0.7065 757.5119,-0.9406 759.5243,-1.068 761.4581,-1.1373 763.3468,-1.175 764.9306,-1.1955 766.3508,-1.4871 767.9624,-1.9262 769.6758,-2.1651 771.4447,-2.295 773.2438,-2.3657 775.0592,-2.4041 777.164,-2.1446 779.5837,-1.5458 L780.9,-1.22 " stroke-linecap="round" fill="none" stroke="#9398b0" stroke-width="5.507900720785598" stroke-dasharray="none" stroke-dashoffset="0"/></g></g><g transform="matrix(1, 0, 0, 1, 1439.885, 6557.5567) scale(0.897605362710306, 0.897605362710306)" opacity="1"><g transform="scale(1.114075340392926)"><path d="M0,0 Q0.8208,1.2266 0.8389,2.1759 T0.8667,4.0496 0.8819,5.8875 0.8902,7.7058 0.8965,9.6904 L0.9,10.77 " stroke-linecap="round" fill="none" stroke="#9398b0" stroke-width="4.039224132196377" stroke-dasharray="none" stroke-dashoffset="0"/></g></g><g transform="matrix(1, 0, 0, 1, 1440.7826, 6588.9729) scale(0.897605362710306, 0.897605362710306)" opacity="1"><g transform="scale(1.114075340392926)"><path d="M0.9,0 Q0.9,2.8637 0.9,4.2582 T0.9,6.8195 0.9,9.0313 0.9,11.0531 0.9,12.561 0.9,13.1762 0.9,12.8975 0.9,12.1025 L0.9,11.67 " stroke-linecap="round" fill="none" stroke="#9398b0" stroke-width="4.039224132196377" stroke-dasharray="none" stroke-dashoffset="0"/></g></g><g transform="matrix(1, 0, 0, 1, 1439.885, 6588.9729) scale(0.897605362710306, 0.897605362710306)" opacity="1"><g transform="scale(1.114075340392926)"><path d="M0,0 Q-2.4578,0.8208 -3.3293,1.4522 T-5.0852,2.427 -7.0248,3.1802 L-8.08,3.59 " stroke-linecap="round" fill="none" stroke="#9398b0" stroke-width="4.039224132196377" stroke-dasharray="none" stroke-dashoffset="0"/></g></g><g transform="matrix(1, 0, 0, 1, 1600.3353, 6549.3389) scale(1.217207148981476, 1.217207148981476)" opacity="1"><g transform="scale(0.8215528481218429)"><path d="M0,0 Q0,3.8851 0,5.7741 T0,9.2469 -0.2782,11.9684 -0.7076,14.281 -1.0395,16.8581 L-1.22,18.26 " stroke-linecap="round" fill="none" stroke="#9398b0" stroke-width="5.477432170416642" stroke-dasharray="none" stroke-dashoffset="0"/></g></g><g transform="matrix(1, 0, 0, 1, 1590.5977, 6595.5928) scale(1.217207148981476, 1.217207148981476)" opacity="1"><g transform="scale(0.8215528481218429)"><path d="M1.22,0 Q3.9925,-0.5563 5.3029,-0.7076 T7.6021,-0.6631 9.1287,0.1933 9.6834,1.7696 9.1529,3.7374 8.0321,5.6401 6.8683,7.2315 5.4008,8.6513 3.7702,9.9776 3.1614,11.2555 3.6623,12.2288 4.7671,13.0365 6.2002,13.754 7.5362,14.4202 9.0952,15.3367 11.0866,16.4399 L12.17,17.04 " stroke-linecap="round" fill="none" stroke="#9398b0" stroke-width="5.477432170416642" stroke-dasharray="none" stroke-dashoffset="0"/></g></g><g transform="matrix(1, 0, 0, 1, 1758.5722, 6550.5561) scale(1.217207148981476, 1.217207148981476)" opacity="1"><g transform="scale(0.8215528481218429)"><path d="M0,0 Q0.5563,2.777 0.7076,4.0864 T0.6631,6.9403 0.2336,10.3274 L0,12.17 " stroke-linecap="round" fill="none" stroke="#9398b0" stroke-width="5.477432170416642" stroke-dasharray="none" stroke-dashoffset="0"/></g></g><g transform="matrix(1, 0, 0, 1, 1976.4523, 6561.511) scale(1.217207148981476, 1.217207148981476)" opacity="1"><g transform="scale(0.8215528481218429)"><path d="M0,0 Q-2.2207,-2.777 -3.1029,-3.8083 T-4.7409,-5.6787 -6.186,-7.2525 -7.5285,-8.6627 -8.5369,-9.9838 -9.0855,-10.7026 -9.1058,-10.8154 -8.5605,-10.6009 -7.7098,-9.9302 -6.693,-9.2871 -5.5836,-8.6592 -4.4237,-7.7635 -3.2387,-6.7222 -2.04,-5.5995 -0.8316,-4.4323 0.1039,-3.2434 0.8887,-1.7644 1.5916,-0.1276 2.252,1.3168 2.8895,2.6589 2.9581,4.2212 2.7173,5.9033 2.3104,7.0965 1.535,8.0238 0.5569,9.3604 -0.8074,11.1979 -2.6485,13.4078 L-3.65,14.61 " stroke-linecap="round" fill="none" stroke="#9398b0" stroke-width="5.477432170416642" stroke-dasharray="none" stroke-dashoffset="0"/></g></g><g transform="matrix(1, 0, 0, 1, 2016.6202, 6551.7733) scale(1.217207148981476, 1.217207148981476)" opacity="1"><g transform="scale(0.8215528481218429)"><path d="M0,0 Q-1.1081,2.777 -1.9658,3.8083 T-3.5683,5.9568 -4.9941,7.9578 -6.3237,9.8786 -7.8793,11.7579 -9.5577,13.6125 -11.0271,15.4536 -12.6586,16.7333 -14.7061,17.7221 L-15.82,18.26 " stroke-linecap="round" fill="none" stroke="#9398b0" stroke-width="5.477432170416642" stroke-dasharray="none" stroke-dashoffset="0"/></g></g><g transform="matrix(1, 0, 0, 1, 2002.0137, 6554.2077) scale(1.217207148981476, 1.217207148981476)" opacity="1"><g transform="scale(0.8215528481218429)"><path d="M0,0 Q1.6644,3.3288 2.3953,4.5124 T3.8019,6.618 5.1212,8.3175 6.3929,10.0743 7.641,11.8644 8.874,13.9486 10.2186,16.741 L10.95,18.26 " stroke-linecap="round" fill="none" stroke="#9398b0" stroke-width="5.477432170416642" stroke-dasharray="none" stroke-dashoffset="0"/></g></g><g transform="matrix(1, 0, 0, 1, 1750.0518, 6589.5067) scale(1.217207148981476, 1.217207148981476)" opacity="1"><g transform="scale(0.8215528481218429)"><path d="M0,0 Q3.3288,0 4.5124,0 T6.618,0 8.3175,0 9.5179,0.554 9.8951,1.6876 9.5462,2.8606 8.8001,3.7769 7.8402,4.5535 7.0421,5.53 6.8838,6.3371 7.3518,7.0544 8.1626,8.0009 9.1578,9.0698 9.975,10.4835 10.4196,12.3629 10.3856,13.9393 9.813,14.7969 8.9453,15.5416 7.9191,16.2249 6.2506,16.5966 3.9544,16.7988 1.5971,16.3547 -1.0111,15.2247 L-2.43,14.61 " stroke-linecap="round" fill="none" stroke="#9398b0" stroke-width="5.477432170416642" stroke-dasharray="none" stroke-dashoffset="0"/></g></g><g transform="matrix(1, 0, 0, 1, 1280.2098, 6682.0145) scale(1.217207148981476, 1.217207148981476)" opacity="1"><g transform="scale(0.8215528481218429)"><path d="M0,-1.22 Q0,-3.9925 0,-5.3029 T0,-7.6021 0,-9.6851 0,-11.9286 0,-14.8134 0,-18.6035 0,-22.332 0,-25.7488 0,-29.2719 0,-32.5748 0,-35.2037 0,-37.7442 0,-40.5148 0,-42.8542 0,-45.2371 0,-48.2002 0,-51.4765 0,-54.9231 0,-58.1844 0,-61.0689 0,-63.7484 0,-66.3164 0,-68.8238 0.2782,-71.574 0.7076,-74.7368 0.9413,-77.8459 1.0684,-80.6453 1.1375,-83.0004 1.1751,-85.1161 1.1956,-87.3773 1.4826,-89.4397 1.9146,-91.6719 2.1496,-93.9967 2.2775,-96.0935 2.347,-98.3445 2.3849,-100.4013 2.4054,-102.6283 2.4166,-105.2283 2.4227,-107.753 2.426,-110.2368 2.4278,-112.4202 2.4288,-114.4402 2.4294,-116.6494 2.4297,-118.6835 2.1539,-120.9003 1.7281,-123.4948 1.4964,-126.0166 1.3704,-128.4988 1.3018,-130.6813 1.2645,-132.7008 1.2442,-134.9097 1.2332,-136.9436 1.2272,-138.8823 1.2239,-141.0472 1.2221,-143.3353 1.2212,-145.6904 1.2206,-147.8038 1.2203,-149.5075 0.942,-150.9906 0.5125,-152.6297 0.2788,-154.6317 0.1517,-156.8311 0.0825,-158.8598 0.0449,-160.7956 0.0244,-162.9591 0.0133,-164.9682 0.0072,-166.8933 0.0039,-169.051 0.0021,-171.0569 0.0012,-172.9826 0.2788,-175.1406 0.708,-177.1467 0.9415,-179.0703 1.0685,-181.227 1.1376,-183.7888 1.1752,-186.2905 0.9174,-188.4836 0.4991,-191.0652 0.2715,-193.8558 0.1477,-196.4843 0.0803,-199.0245 0.0437,-201.2386 0.0238,-203.2776 0.0129,-205.219 0.2852,-207.1073 0.7115,-209.2449 0.9434,-211.5181 1.0695,-214.1432 1.1381,-216.6794 1.1755,-219.1694 1.1958,-221.9125 1.2068,-224.5129 1.2128,-227.0378 1.2161,-229.2458 1.2179,-231.0011 1.2188,-233.0663 1.2194,-235.3001 1.2197,-237.6234 1.2198,-240.2758 1.2199,-242.829 1.2199,-245.3283 1.22,-247.5202 1.22,-249.5447 1.22,-251.7565 1.22,-253.7918 1.22,-255.7336 1.22,-257.9002 1.22,-259.9111 1.22,-261.8372 1.22,-263.9953 1.22,-266.0016 1.22,-268.2011 1.22,-270.7861 1.22,-273.3027 1.22,-276.058 1.22,-278.9454 1.22,-281.6265 1.22,-284.1954 1.22,-286.7032 1.22,-288.8997 1.22,-290.9267 1.22,-292.8617 1.22,-294.7487 1.22,-297.1638 1.22,-299.5857 1.22,-301.7354 1.22,-304.0152 1.22,-306.0876 1.22,-308.0495 1.22,-310.2271 1.22,-312.798 1.22,-315.5851 1.22,-317.9334 1.22,-320.0432 1.22,-322.3012 1.22,-324.3618 1.22,-326.3149 0.9418,-328.4878 0.5124,-331.0584 0.2787,-333.843 0.1516,-336.19 0.0825,-338.3013 0.0449,-340.5602 0.0244,-342.6212 0.0133,-344.5746 -0.2709,-346.4695 -0.7037,-348.3325 -0.9391,-350.4563 -1.0672,-352.722 -1.1369,-355.0649 -1.1748,-357.4498 -1.1954,-359.5794 -1.2066,-361.5701 -1.4886,-363.4853 -1.9179,-365.0834 -2.7077,-366.231 -3.9719,-366.5771 -5.2136,-365.9309 -6.4432,-364.469 -7.6684,-362.5657 -8.8889,-360.698 -9.8288,-359.1257 -10.6182,-357.7141 -11.0477,-356.668 -10.7273,-356.3771 -9.9989,-356.7751 -9.0464,-357.548 -7.9741,-358.8006 -6.8368,-360.3143 -5.3836,-362.5262 -3.7609,-364.8399 -2.6022,-366.6525 -1.6938,-368.4708 -0.6433,-369.1818 0.4823,-368.4582 1.3704,-366.9542 2.1318,-365.0257 3.3804,-362.5903 4.616,-360.1551 5.8422,-357.9982 7.3414,-355.9926 8.9892,-354.0694 11.0493,-351.7965 L12.17,-350.56 " stroke-linecap="round" fill="none" stroke="#9398b0" stroke-width="5.477432170416642" stroke-dasharray="none" stroke-dashoffset="0"/></g></g><g transform="matrix(1, 0, 0, 1, 1289.9475, 6402.0568) scale(1.217207148981476, 1.217207148981476)" opacity="1"><g transform="scale(0.8215528481218429)"><path d="M0,-1.22 Q-2.777,-1.7718 -4.0864,-1.9218 T-6.3863,-1.8777 -8.4696,-1.5778 -10.7133,-1.6905 -13.2371,-2.1695 L-14.61,-2.43 " stroke-linecap="round" fill="none" stroke="#9398b0" stroke-width="5.477432170416642" stroke-dasharray="none" stroke-dashoffset="0"/></g></g><g transform="matrix(1, 0, 0, 1, 1242.4764, 6387.4503) scale(1.217207148981476, 1.217207148981476)" opacity="1"><g transform="scale(0.8215528481218429)"><path d="M0,1.22 Q0,5.1051 0,7.5481 T0,11.8764 0.2782,15.8977 0.8882,20.5818 L1.22,23.13 " stroke-linecap="round" fill="none" stroke="#9398b0" stroke-width="5.477432170416642" stroke-dasharray="none" stroke-dashoffset="0"/></g></g><g transform="matrix(1, 0, 0, 1, 1238.8248, 6386.2331) scale(1.217207148981476, 1.217207148981476)" opacity="1"><g transform="scale(0.8215528481218429)"><path d="M0,0 Q-3.3288,0.5563 -4.5124,0.7076 T-6.8939,1.2172 -9.0216,2.0484 -11.0136,3.335 -13.3429,5.1193 L-14.61,6.09 " stroke-linecap="round" fill="none" stroke="#9398b0" stroke-width="5.477432170416642" stroke-dasharray="none" stroke-dashoffset="0"/></g></g><g transform="matrix(1, 0, 0, 1, 1313.0744, 6311.9835) scale(1.217207148981476, 1.217207148981476)" opacity="1"><g transform="scale(0.8215528481218429)"><path d="M0,0 Q-1.1081,2.777 -1.4095,4.0864 T-1.8748,6.6622 -1.8521,8.8956 -1.2857,10.3887 -0.4213,11.4791 0.603,12.3505 1.9924,12.8245 3.5828,13.0824 5.0019,13.2227 6.328,12.7426 7.3276,11.6493 8.1495,10.2223 8.8748,8.3357 8.9911,7.0335 8.7763,7.1573 8.9376,8.0569 9.5794,9.3784 10.2044,10.9295 11.1007,12.6055 12.4228,14.6277 13.696,16.5622 14.9427,18.7249 15.8991,21.0095 16.6975,23.6386 17.1318,27.0113 16.8118,30.2347 16.0837,32.8226 15.1335,34.5086 13.5063,35.7017 11.2325,36.6266 9.1634,37.1297 7.2056,37.4035 5.3061,37.5524 3.4406,37.3575 1.5935,36.4193 -0.2287,34.9042 L-1.22,34.08 " stroke-linecap="round" fill="none" stroke="#9398b0" stroke-width="5.477432170416642" stroke-dasharray="none" stroke-dashoffset="0"/></g></g><g transform="matrix(1, 0, 0, 1, 1436.0123, 6409.3601) scale(1.217207148981476, 1.217207148981476)" opacity="1"><g transform="scale(0.8215528481218429)"><path d="M-1.22,0 Q-2.8844,-2.2207 -3.3371,-3.657 T-4.0361,-6.4285 -4.4164,-9.0466 -4.6232,-11.3054 -4.4576,-13.3663 -3.8112,-15.0415 -2.9055,-16.231 -1.8587,-17.1562 -0.4571,-17.6595 1.1376,-17.6552 2.5614,-17.3747 3.8923,-17.2221 5.4485,-16.8609 6.8491,-16.1104 7.611,-15.148 8.3037,-14.0682 8.9586,-12.9245 9.5908,-11.7482 10.2106,-10.2762 10.5478,-8.365 10.4553,-6.4931 10.1291,-4.9185 9.6735,-3.7837 8.8694,-2.8906 7.8779,-2.1288 6.7844,-1.7144 5.6333,-1.4889 4.1749,-1.3663 2.8274,-1.8536 1.7864,-3.0171 L1.22,-3.65 " stroke-linecap="round" fill="none" stroke="#f2f2f2" stroke-width="5.477432170416642" stroke-dasharray="none" stroke-dashoffset="0"/></g></g><g transform="matrix(1, 0, 0, 1, 1757.355, 6560.2937) scale(1.217207148981476, 1.217207148981476)" opacity="1"><g transform="scale(0.8215528481218429)"><path d="M0,1.22 Q-2.777,0.6637 -3.5324,0.2342 T-4.9745,-0.7048 -6.035,-2.0478 -6.6118,-3.6129 -6.9256,-5.2965 -7.0963,-7.3205 -7.1892,-9.2537 -6.9638,-10.8617 -6.2872,-12.2928 -5.3628,-13.6253 -4.3036,-14.9042 -3.1734,-15.8781 -2.0045,-16.408 -0.8123,-16.6962 0.3903,-16.853 1.8767,-16.9382 3.5198,-16.9846 4.9677,-16.7317 6.3094,-16.0401 7.5956,-15.1098 8.8493,-13.7693 9.8072,-11.9296 10.3283,-10.0967 10.6118,-8.2674 10.766,-6.1618 10.8499,-4.1842 10.6197,-2.5544 9.9404,-1.3896 8.7386,-0.4778 6.9745,0.2964 5.1804,0.7176 3.3722,0.9467 1.1881,1.1237 L0,1.22 " stroke-linecap="round" fill="none" stroke="#f2f2f2" stroke-width="5.477432170416642" stroke-dasharray="none" stroke-dashoffset="0"/></g></g><g transform="matrix(1, 0, 0, 1, 1759.7894, 6399.6224) scale(1.217207148981476, 1.217207148981476)" opacity="1"><g transform="scale(0.8215528481218429)"><path d="M-1.1104,-0.2782 Q-2.2207,-0.5563 -2.5466,-0.7076 T-2.7716,-0.9413 -2.3399,-1.0684 -1.5511,-1.1375 -0.5656,-0.897 0.2486,0.0661 0.6916,1.4222 0.6544,2.4381 0.0778,2.9907 -0.7899,3.0132 -1.5378,2.4714 -2.2228,1.3444 -2.8736,-0.379 -2.9495,-1.8706 -2.7126,-2.9602 -2.3079,-3.831 -1.5336,-4.3048 -0.5561,-4.5625 0.5297,-4.1464 1.3962,-2.8097 1.8676,-0.9744 1.8482,0.8561 1.2836,2.1301 0.4201,2.2692 -0.6037,1.2344 -1.4365,-0.1607 -1.6136,-1.4736 -1.156,-2.4661 -0.6289,-3.2841 0.2119,-4.0073 1.2234,-3.8444 1.7736,-2.6454 2.0729,-0.885 1.9599,0.6266 1.3443,1.7271 0.4532,2.604 -0.5857,3.081 -1.7049,3.0623 -2.5918,2.4981 -3.0744,1.0831 -3.3369,-0.797 -3.2015,-2.3762 -2.5738,-3.5133 -1.6783,-4.132 -0.359,-4.4685 0.9128,-4.0953 1.6046,-2.7819 1.981,-0.9593 1.9099,1.1425 1.039,3.1204 -0.4241,5.0437 -0.61,3.045 -1.1104,-0.2782 Z" stroke-linecap="round" fill="none" stroke="#e03131" stroke-width="5.477432170416642" stroke-dasharray="none" stroke-dashoffset="0"/></g></g><g transform="matrix(1, 0, 0, 1, 1440.8812, 6562.7282) scale(1.217207148981476, 1.217207148981476)" opacity="1"><g transform="scale(0.8215528481218429)"><path d="M0,0 Q-3.3288,0.5563 -4.2342,0.4295 T-5.9104,-0.3204 -7.1004,-1.8387 -7.4696,-3.4991 -6.8382,-4.9564 -5.3844,-6.0251 -3.7613,-6.0524 -2.6025,-5.2351 -1.9721,-3.9582 -1.6291,-2.1533 -1.9966,-0.6151 -3.3069,0.2217 -4.8519,0.1206 -5.9682,-0.7666 -6.5755,-2.0814 -6.9059,-3.6312 -6.8097,-4.7524 -6.2034,-5.6382 -5.039,-6.396 -3.5734,-6.8082 -2.2221,-6.7566 -0.9307,-6.4526 0.3259,-6.0091 1.5635,-5.2115 2.515,-3.9454 3.0325,-2.1463 3.0359,-0.3354 2.4838,0.9256 1.6293,1.8898 0.6082,2.6924 -1.0577,3.1291 -3.5268,3.4665 L-4.87,3.65 " stroke-linecap="round" fill="none" stroke="#e03131" stroke-width="5.477432170416642" stroke-dasharray="none" stroke-dashoffset="0"/></g></g><g transform="matrix(1, 0, 0, 1, 1191.3537, 6647.9327) scale(1.217207148981476, 1.217207148981476)" opacity="1"><g transform="scale(0.8215528481218429)"><path d="M0,-1.22 Q1.6644,-2.8844 2.1171,-3.6153 T3.3724,-5.0196 4.6116,-6.3376 5.5617,-7.611 6.6325,-8.8577 7.7714,-10.0899 8.9449,-11.0384 10.1374,-12.1108 11.3424,-13.2504 12.5543,-14.1463 13.7676,-15.1876 14.9816,-16.3105 16.1984,-17.4776 17.6925,-18.6666 19.3375,-19.8674 20.7887,-21.077 22.1322,-22.289 23.4171,-23.5024 24.6724,-24.7188 25.9116,-25.9369 27.1398,-27.1536 28.362,-28.0913 29.305,-28.8796 30.0962,-29.8647 31.0806,-30.9547 32.1702,-32.1017 33.3192,-33.282 34.5006,-34.2022 35.6973,-34.9809 36.9024,-36.2368 38.1143,-37.474 39.3298,-38.4252 40.2693,-39.499 41.0562,-40.3613 42.0383,-41.3844 43.1289,-42.495 44.2763,-43.6533 45.4544,-44.8374 46.6517,-45.7597 47.8593,-46.8178 49.0703,-47.9497 50.2831,-49.1195 51.4992,-50.588 52.7148,-51.9432 53.9301,-52.9564 55.1476,-54.0615 56.3662,-55.2191 57.5832,-56.4051 59.0774,-57.6043 60.7225,-59.0889 62.1714,-60.7287 63.516,-61.8967 64.8037,-62.8102 66.0583,-64.1416 67.573,-65.6981 69.2315,-67.0989 70.4118,-68.4172 71.3298,-69.6907 72.3833,-70.9376 73.5127,-72.1699 74.6811,-73.3966 75.8708,-74.6179 77.0742,-75.8364 78.2853,-76.7774 79.4981,-77.5675 80.7119,-78.5536 82.2045,-79.6441 83.5704,-80.7913 84.5917,-81.6936 85.7035,-82.4626 86.8647,-83.435 88.3286,-84.518 89.9572,-85.6635 91.3971,-86.8429 92.7345,-88.0386 94.2965,-89.2431 95.9785,-90.4546 97.4475,-91.6678 98.803,-92.6036 99.8185,-93.3908 100.6491,-94.3754 101.655,-95.4673 102.7562,-96.6154 103.9116,-97.794 105.0942,-98.7133 106.0134,-99.4915 106.7916,-100.4712 107.7713,-101.5582 108.8605,-102.7036 110.0071,-103.883 111.1849,-105.0786 112.382,-106.2831 113.5872,-107.4946 114.7969,-108.71 116.0113,-109.6494 117.2282,-110.7144 118.4443,-112.126 119.6598,-113.1721 120.8774,-114.2952 122.0961,-115.7383 123.3131,-116.8016 124.5292,-117.6581 125.7471,-118.6781 126.9637,-119.7871 128.1795,-120.9466 129.3973,-122.1338 130.616,-123.3336 131.8331,-124.5404 133.0492,-125.7532 134.2671,-126.967 135.7618,-128.1813 137.4071,-129.3982 138.8585,-130.6166 140.2021,-131.8334 141.4871,-132.7712 142.7424,-133.5595 143.9793,-134.8206 145.2063,-136.3388 146.4301,-137.4429 147.6521,-138.3216 148.8709,-139.356 150.088,-140.7509 151.3065,-142.3419 152.5256,-143.7615 153.7428,-145.3659 154.9591,-147.0732 156.177,-148.556 157.3936,-149.9167 158.6095,-151.4914 159.8272,-153.1803 161.046,-154.653 162.2631,-156.0105 163.4792,-157.0272 164.4189,-157.8561 165.4842,-158.8611 166.6177,-159.9641 167.5125,-160.8423 168.5556,-161.8741 169.6794,-163.2676 170.8447,-164.582 172.0327,-165.851 173.5135,-167.0954 174.8753,-168.3287 175.8921,-169.5559 176.9992,-170.7776 178.1578,-172.2744 179.3421,-173.9231 180.5404,-175.374 181.7486,-176.4392 182.9622,-177.2969 184.1764,-178.5956 185.391,-179.8562 186.6081,-181.0982 187.8242,-182.3302 189.0398,-183.2786 190.2574,-184.3486 191.4761,-185.4847 192.6931,-186.659 193.9092,-187.8519 195.1271,-189.0549 196.3437,-190.2656 197.2814,-191.4806 198.0696,-192.6956 199.0548,-193.9105 200.147,-195.1278 201.2952,-196.3441 202.4739,-197.5597 203.6714,-198.7774 204.8792,-200.272 206.3684,-201.9172 207.7326,-203.3686 208.7528,-204.7144 209.8619,-206.0006 211.0193,-207.2543 212.2052,-208.4927 213.4067,-209.7204 214.6143,-210.9423 215.8253,-212.4415 217.0404,-213.8134 218.2555,-214.8356 219.1923,-215.9457 219.9801,-217.1059 221.2432,-218.2911 222.4866,-219.4899 223.4389,-220.6983 224.511,-221.6339 225.3724,-222.421 226.1191,-223.4032 227.0794,-224.4916 228.1558,-225.64 229.2977,-226.8188 230.4752,-227.7359 231.394,-228.513 232.1696,-229.492 233.1456,-230.5809 234.2329,-231.7273 235.3807,-232.905 236.5591,-233.8239 237.4761,-234.6019 238.2531,-235.5814 239.2321,-236.3924 240.3187,-237.3877 241.5501,-238.9436 L242.22,-239.79 " stroke-linecap="round" fill="none" stroke="#e03131" stroke-width="5.477432170416642" stroke-dasharray="none" stroke-dashoffset="0"/></g></g><g transform="matrix(1, 0, 0, 1, 1600.3353, 6404.4912) scale(1.217207148981476, 1.217207148981476)" opacity="1"><g transform="scale(0.8215528481218429)"><path d="M0,-1.22 Q0.5563,-3.9925 0.9835,-4.7466 T1.9213,-5.6351 2.7096,-5.5644 3.1384,-4.6914 3.0935,-3.6602 2.5151,-3.3774 1.9245,-4.058 1.6033,-5.5386 1.7044,-6.8981 2.3134,-7.6377 2.9229,-7.2078 2.9763,-5.3096 2.6225,-2.6609 L2.43,-1.22 " stroke-linecap="round" fill="none" stroke="#e03131" stroke-width="5.477432170416642" stroke-dasharray="none" stroke-dashoffset="0"/></g></g><g transform="matrix(1, 0, 0, 1, 1439.664, 6565.1626) scale(1.217207148981476, 1.217207148981476)" opacity="1"><g transform="scale(0.8215528481218429)"><path d="M0,0 Q2.2207,-2.2207 2.8248,-3.1029 T4.0355,-4.7409 5.2483,-6.186 6.462,-7.5285 7.6786,-8.8128 8.8945,-10.3437 10.11,-12.011 11.6057,-13.7502 13.5297,-15.8067 15.4085,-17.7576 16.987,-19.6511 18.3997,-21.2375 19.7222,-22.3763 20.998,-23.8281 22.5242,-25.4523 24.1867,-27.1681 25.6474,-28.6555 26.9961,-29.7428 28.2838,-31.1665 29.5406,-32.4951 30.7784,-33.496 32.0058,-34.8726 33.2298,-36.1756 34.452,-37.1626 35.6709,-38.534 37.1661,-40.1122 38.8141,-41.803 40.2646,-43.279 41.6077,-44.3579 42.8947,-45.4989 44.1488,-46.6759 45.3851,-47.5943 46.614,-48.648 47.8388,-50.0534 49.0592,-51.0961 50.2771,-51.9415 51.4959,-52.9554 52.713,-54.061 53.9292,-55.2188 55.1471,-56.4049 56.3659,-57.3284 57.583,-58.1066 58.7992,-59.084 60.0171,-60.4479 61.2336,-61.7439 62.4495,-63.0052 63.6672,-64.2477 64.886,-65.4777 66.1031,-66.7008 67.3192,-67.6444 68.5371,-68.714 69.7559,-69.8522 70.973,-71.0254 72.1892,-72.2176 73.4071,-73.4226 74.6236,-74.9102 75.8395,-76.2736 77.0572,-77.2934 78.276,-78.6804 79.4931,-79.9889 80.7092,-80.9789 81.9271,-82.0738 83.1437,-83.2235 84.3595,-84.4029 85.5773,-85.6009 86.796,-86.5307 88.0131,-87.3147 89.2292,-88.5734 90.4471,-90.0903 91.6637,-91.4696 92.8795,-93.0521 94.0973,-94.7475 95.316,-96.2238 96.5331,-97.5809 97.7492,-98.8755 98.9671,-100.1361 100.1859,-101.3759 101.403,-102.6044 102.6192,-103.8291 103.8371,-105.3274 105.0536,-106.9748 106.2695,-108.4272 107.4872,-109.7714 108.706,-111.0567 109.9231,-112.3122 111.1392,-113.5492 112.0789,-114.7762 112.8683,-115.7219 113.8518,-116.7926 114.9408,-118.2073 116.0896,-119.5309 117.2708,-120.8073 118.4674,-122.058 119.6724,-123.5705 120.8843,-124.9474 122.0999,-125.9746 123.3152,-127.0874 124.5303,-128.525 125.7477,-129.8634 126.964,-130.8696 128.1797,-131.971 129.3974,-133.1242 130.6161,-134.3079 131.8331,-135.5059 133.0492,-136.9897 134.2671,-138.3533 135.4837,-139.3732 136.6995,-140.4821 137.9173,-141.9176 139.136,-143.2547 140.3531,-144.2581 141.291,-145.3579 142.0794,-146.5125 143.0647,-147.697 144.1547,-148.6195 145.3017,-149.3972 146.4819,-150.3743 147.6803,-151.4622 148.8863,-152.6103 150.0964,-153.7889 151.5892,-154.9841 152.9575,-156.1907 153.9778,-157.1252 154.8087,-157.9094 155.5389,-158.8901 156.4924,-160.258 157.8434,-162.1126 159.6741,-164.3324 L160.67,-165.54 " stroke-linecap="round" fill="none" stroke="#e03131" stroke-width="5.477432170416642" stroke-dasharray="none" stroke-dashoffset="0"/></g></g><g transform="matrix(1, 0, 0, 1, 1600.3353, 6400.8396) scale(1.217207148981476, 1.217207148981476)" opacity="1"><g transform="scale(0.8215528481218429)"><path d="M0,0 Q2.2207,1.6644 3.1029,2.3953 T4.7409,4.0778 6.186,5.8253 7.5285,7.6081 8.8128,9.4102 10.0655,10.9468 11.3033,12.3391 12.533,13.6505 13.756,14.9179 15.2535,16.4419 17.1785,18.3813 19.0579,20.2686 20.9125,22.1274 23.0318,24.249 25.0191,26.2353 26.6543,27.8699 28.0978,29.5914 29.4395,31.36 30.7234,32.8785 31.9758,34.2609 33.2135,35.5669 34.4431,36.5533 35.666,37.368 36.8854,38.3676 38.105,39.4676 39.3248,40.6201 40.5424,41.8011 42.037,43.2758 43.6822,44.9102 45.1313,46.3556 46.7541,47.6983 48.4691,48.9827 49.956,50.2355 51.8753,51.4733 54.0298,52.7007 56.034,53.9225 57.9565,55.1434 59.8345,56.3639 61.4102,57.5819 62.5456,58.7986 63.7195,60.0167 65.1903,61.2335 66.8227,62.4494 68.267,63.6672 69.609,64.886 71.1713,66.1031 72.8533,67.3192 74.3224,68.5371 75.6756,69.7559 76.9681,70.973 78.2275,72.1892 79.4667,73.4071 80.6948,74.6236 81.9193,75.8395 83.1394,77.0572 84.3572,78.5519 85.576,79.919 86.7953,80.9409 88.2909,82.0531 89.9366,83.2122 91.386,84.3968 92.7284,85.5975 94.0151,86.5289 95.2713,87.3137 96.7869,88.2947 98.4436,89.3824 99.9012,90.5304 101.2481,91.709 102.5349,92.626 103.7912,93.403 105.0287,94.382 106.2559,95.471 107.4799,96.3415 108.702,97.3691 109.9209,98.4821 111.138,99.3658 112.3564,100.4028 113.5733,101.521 114.7893,102.9615 116.0071,104.3015 117.226,105.5844 118.443,107.1146 119.6592,108.5033 120.8771,109.5369 122.0959,110.3751 123.0371,111.3851 123.825,112.4908 124.8077,113.6464 125.8986,114.8291 127.0461,116.0288 127.9462,117.2377 128.714,118.4495 129.688,119.3845 130.7742,120.1713 131.9191,121.1557 133.096,122.2475 134.2925,123.1196 135.2216,123.8699 136.0029,124.8321 136.982,125.9119 138.0709,127.0533 139.2196,127.9501 140.3986,128.438 141.3158,128.9815 142.0929,129.8336 143.072,130.8534 144.1586,131.9622 145.3038,133.1194 146.7613,134.3053 148.1105,135.7826 149.1203,137.4185 150.2237,138.5865 151.3802,139.776 152.6689,141.482 L153.37,142.41 " stroke-linecap="round" fill="none" stroke="#e03131" stroke-width="5.477432170416642" stroke-dasharray="none" stroke-dashoffset="0"/></g></g><g transform="matrix(1, 0, 0, 1, 1770.7443, 6546.9045) scale(1.217207148981476, 1.217207148981476)" opacity="1"><g transform="scale(0.8215528481218429)"><path d="M0,-1.22 Q1.6644,-3.4407 2.3953,-4.3206 T3.8019,-5.9574 5.1212,-7.4041 6.3929,-8.7451 7.641,-10.0287 9.1522,-11.2833 10.5283,-12.5221 11.8332,-13.7501 13.0994,-14.9721 14.0641,-16.1932 15.143,-17.4138 16.2862,-18.6319 17.7403,-19.8485 19.0854,-21.0667 20.0952,-22.0076 21.2009,-22.7953 22.3565,-23.7778 23.5391,-24.8687 24.7388,-26.0184 25.9477,-27.1979 27.1595,-28.3936 28.3727,-29.6003 29.589,-30.8109 30.8047,-31.7453 32.0201,-32.5317 33.2376,-33.5159 34.4562,-34.6076 35.6732,-35.7555 36.8892,-36.9341 38.1071,-37.8533 39.3259,-38.6316 40.543,-39.6113 41.7592,-40.6982 42.9771,-41.8436 44.4718,-43.023 45.839,-44.2186 47.139,-45.4231 48.6785,-46.6346 50.07,-47.85 51.3833,-49.0653 52.6517,-50.2804 53.8958,-51.4977 55.1289,-52.4381 56.3561,-53.2256 57.5777,-54.208 58.7962,-55.0206 60.0155,-55.7408 61.2328,-56.9648 62.449,-58.4628 63.667,-59.8341 64.8859,-60.8582 66.103,-61.6912 67.3192,-62.6984 68.5371,-63.8027 69.7559,-64.9597 70.973,-66.1432 72.1892,-67.341 73.4071,-68.2708 74.6236,-69.0547 75.5613,-70.0375 76.3496,-71.1262 77.3347,-72.2725 78.427,-73.4524 79.8534,-74.6483 81.1833,-75.8529 82.4609,-77.0645 83.7099,-78.28 84.6676,-79.4952 85.7448,-80.9885 87.1631,-82.6331 88.7668,-84.0818 89.9174,-85.4262 90.8215,-86.7138 91.8673,-87.9684 92.9903,-88.9267 94.1575,-89.7262 95.3488,-90.7175 96.5509,-91.8107 97.7589,-92.9595 98.9724,-94.1408 100.1888,-95.3397 101.4046,-96.2701 102.62,-97.3302 103.8375,-98.461 105.0539,-99.6325 106.2696,-100.8261 107.4873,-101.7513 108.4279,-102.8086 109.2177,-103.662 110.2015,-104.4043 111.2906,-105.6404 112.4395,-106.8669 113.6185,-107.8122 114.5357,-108.8828 115.3129,-109.7434 116.292,-110.4874 117.3809,-111.4462 118.5273,-112.5241 119.705,-113.6645 120.902,-115.1171 122.3854,-116.7418 123.7464,-118.1796 124.7649,-119.5159 125.8753,-120.7991 127.0334,-122.0535 128.2175,-123.29 129.4179,-124.5166 130.6273,-125.4621 131.8392,-126.2546 133.0525,-127.2397 134.2689,-128.3297 135.4846,-129.479 136.7,-130.3823 137.9175,-131.1519 139.1362,-132.1246 140.3532,-133.2078 141.5692,-134.3534 142.7871,-135.5306 144.0037,-136.725 145.2195,-137.9311 146.1591,-139.1436 146.9484,-140.3572 148.21,-141.5714 149.9716,-142.9047 L150.93,-143.63 " stroke-linecap="round" fill="none" stroke="#e03131" stroke-width="5.477432170416642" stroke-dasharray="none" stroke-dashoffset="0"/></g></g><g transform="matrix(1, 0, 0, 1, 1557.6862, 6342.9769) scale(0.7471064724772452, 0.7471064724772452)" opacity="1"><g transform="scale(1.3384973050550801)"><path d="M0,0 Q-1.0214,-0.6794 -1.2993,-0.5245 T-1.7282,0.0544 -1.9616,1.051 -2.0886,2.2749 -2.1576,3.7912 -2.1952,5.4687 -2.0446,6.8943 -1.7917,8.1805 -1.4854,9.391 -0.9791,10.2204 -0.1929,10.6717 0.7455,10.9172 1.769,11.0507 2.8365,10.9523 3.7569,10.7278 4.5997,10.4347 5.3978,9.9355 6.1717,9.3242 6.9347,8.8207 7.5208,8.3758 8.0106,7.7917 8.4481,6.9633 8.6861,5.8332 8.8156,4.7077 8.886,4.2641 9.093,4.7046 9.5454,5.4549 10.1334,6.3738 10.7931,7.5554 11.4916,8.8799 12.2136,10.4531 12.9484,12.1594 13.8589,13.9381 14.6939,15.7584 15.3191,17.6014 15.8302,19.6254 16.1083,21.5769 16.0885,23.3202 15.7358,24.9503 15.2042,26.5188 14.4043,27.8828 13.2874,28.9645 11.9981,29.895 10.615,30.5721 9.0122,30.7695 7.1188,30.5349 5.0651,30.0675 3.0951,29.3026 1.173,28.2047 -1.0375,26.8739 L-2.24,26.15 " stroke-linecap="round" fill="none" stroke="#e03131" stroke-width="4.4826388348634705" stroke-dasharray="none" stroke-dashoffset="0"/></g></g><g transform="matrix(1, 0, 0, 1, 1586.8233, 6340.7355) scale(0.7471064724772452, 0.7471064724772452)" opacity="1"><g transform="scale(1.3384973050550801)"><path d="M0,0 Q1.7054,0.6794 2.338,0.6955 T3.6568,0.5494 4.8849,0.2989 5.8927,-0.0084 6.7829,-0.3466 7.778,-0.6993 9.0293,-1.2114 L9.71,-1.49 " stroke-linecap="round" fill="none" stroke="#e03131" stroke-width="4.4826388348634705" stroke-dasharray="none" stroke-dashoffset="0"/></g></g><g transform="matrix(1, 0, 0, 1, 1588.3175, 6348.2066) scale(0.7471064724772452, 0.7471064724772452)" opacity="1"><g transform="scale(1.3384973050550801)"><path d="M0,0.75 Q2.7269,0.408 3.8083,0.144 T6.1799,-0.435 L7.47,-0.75 " stroke-linecap="round" fill="none" stroke="#e03131" stroke-width="4.4826388348634705" stroke-dasharray="none" stroke-dashoffset="0"/></g></g><g transform="matrix(1, 0, 0, 1, 1613.7192, 6340.7355) scale(0.7471064724772452, 0.7471064724772452)" opacity="1"><g transform="scale(1.3384973050550801)"><path d="M0,0 Q1.3634,-2.0429 1.3923,-2.5985 T1.2681,-3.2878 0.8609,-3.323 0.1286,-2.8291 -0.7805,-2.0498 -1.617,-1.1151 -2.4141,0.2461 -3.0187,2.008 -3.1766,3.6483 -2.9205,4.8803 -2.2705,5.8902 -1.2351,6.6106 0.0098,7.0025 1.3688,7.0447 2.6188,6.7279 3.6385,6.2159 4.5352,5.4266 5.3628,4.3155 5.9817,3.1981 6.1496,2.4192 6.0723,2.3375 6.0302,2.806 6.176,3.5716 6.5951,4.6676 7.165,5.9455 7.9858,7.3224 8.943,8.9219 9.9745,10.6447 11.2173,12.4346 12.5751,14.2588 13.8245,15.9329 14.6752,17.6963 15.3089,19.677 15.8247,21.605 16.1053,23.5065 16.0869,25.5647 15.7349,27.5347 15.0327,29.2882 14.14,30.9238 13.1436,32.3242 11.7512,33.4258 9.97,34.3648 7.9773,35.0466 5.8718,35.2465 3.705,34.8445 1.6758,33.9464 -0.1098,32.7761 -1.7629,31.2868 -3.1729,29.4551 -4.5052,27.3145 L-5.23,26.15 " stroke-linecap="round" fill="none" stroke="#e03131" stroke-width="4.4826388348634705" stroke-dasharray="none" stroke-dashoffset="0"/></g></g><g transform="matrix(1, 0, 0, 1, 1636.8795, 6320.5637) scale(0.7471064724772452, 0.7471064724772452)" opacity="1"><g transform="scale(1.3384973050550801)"><path d="M0,0 Q-1.3634,2.3849 -1.9053,3.5443 T-3.0816,6.5269 -4.2323,10.0235 -5.0292,13.2892 -5.4628,16.0871 -5.6986,18.2909 -5.6559,20.1715 -5.4617,21.874 -5.0163,23.3108 -4.2633,24.6055 -3.5117,25.6518 -2.5921,26.3897 -1.4101,26.9598 -0.2564,27.27 0.882,27.27 2.2473,27.0304 L2.99,26.9 " stroke-linecap="round" fill="none" stroke="#e03131" stroke-width="4.4826388348634705" stroke-dasharray="none" stroke-dashoffset="0"/></g></g><g transform="matrix(1, 0, 0, 1, 1654.81, 6325.0463) scale(0.7471064724772452, 0.7471064724772452)" opacity="1"><g transform="scale(1.3384973050550801)"><path d="M0,0 Q-2.0429,2.7269 -2.9405,3.9793 T-4.6663,6.4238 -6.2868,8.775 -7.679,10.9068 -8.9472,12.5772 -10.4127,14.1075 L-11.21,14.94 " stroke-linecap="round" fill="none" stroke="#e03131" stroke-width="4.4826388348634705" stroke-dasharray="none" stroke-dashoffset="0"/></g></g><g transform="matrix(1, 0, 0, 1, 1642.8563, 6328.0347) scale(0.7471064724772452, 0.7471064724772452)" opacity="1"><g transform="scale(1.3384973050550801)"><path d="M0,0 Q1.3634,1.7054 2.074,2.338 T3.3421,3.6568 4.374,4.8849 5.4461,6.0637 6.711,7.218 7.9098,8.3566 9.0727,9.3158 10.8977,10.0085 13.5158,10.7867 L14.94,11.21 " stroke-linecap="round" fill="none" stroke="#e03131" stroke-width="4.4826388348634705" stroke-dasharray="none" stroke-dashoffset="0"/></g></g><g transform="matrix(1, 0, 0, 1, 1657.0513, 6317.5752) scale(0.7471064724772452, 0.7471064724772452)" opacity="1"><g transform="scale(1.3384973050550801)"><path d="M0,0 Q2.3849,2.0429 3.2046,2.9405 T4.6389,4.8373 5.7589,6.8905 6.5391,9.0289 7.1346,11.2137 7.6296,13.5946 7.8988,16.2533 8.0453,18.892 7.9539,21.3489 7.7333,23.5382 7.4422,25.4109 6.9442,26.9404 5.9938,28.2831 4.5341,29.8031 L3.74,30.63 " stroke-linecap="round" fill="none" stroke="#e03131" stroke-width="4.4826388348634705" stroke-dasharray="none" stroke-dashoffset="0"/></g></g></svg>