<svg xmlns="http://www.w3.org/2000/svg" direction="ltr" width="1540.4114802657461" height="950.2275954250363" viewBox="1371.9811654432044 17530.29834334226 1540.4114802657461 950.2275954250363" stroke-linecap="round" stroke-linejoin="round" style="background-color: transparent;"><defs/><g transform="matrix(1, 0, 0, 1, 1880.6082, 17676.1531)" opacity="1"><g transform="scale(1)"><path d="M2.1509,0 T2.1442,2.8096 2.1336,7.7243 2.1282,13.101 2.1335,19.1918 2.1576,25.1773 2.1994,31.9188 2.2501,39.032 2.7715,45.8187 3.4214,52.3109 3.6278,58.5227 3.7042,64.7045 3.7465,70.717 3.7782,76.2003 3.8074,82.0136 4.1266,88.142 4.7175,94.4475 5.5551,100.9341 6.2778,107.6634 6.9775,114.787 7.6667,121.8487 7.8763,128.3751 7.9476,134.6448 7.9835,141.4679 8.0072,148.6064 8.0225,155.8361 8.0298,162.9268 8.034,168.525 7.7063,174.5964 7.1445,182.1878 6.5336,188.0481 5.8888,193.9688 5.5442,201.3407 5.4446,208.1554 5.4169,214.3351 5.4094,220.5063 5.4076,227.2991 5.4072,234.4293 5.4072,241.6569 5.4073,249.2237 5.4074,256.7334 5.4074,264.0628 5.4103,270.8654 5.4177,277.2133 5.0942,282.4457 4.5401,287.7197 4.2503,294.1334 4.1694,300.2028 3.6642,306.4954 3.0486,313.0044 2.8827,318.9605 2.3465,324.5984 1.7207,329.9719 1.5476,335.4212 1.4846,341.0612 1.4534,346.9204 1.4303,353.0024 1.4144,358.193 1.4026,363.4482 1.3925,369.198 1.3852,374.6108 1.3821,379.9313 1.8484,385.8772 2.4696,392.3052 2.6713,398.2031 2.7365,404.1221 2.7725,410.3694 2.8062,416.3944 2.8334,422.0494 3.1277,427.1113 3.7019,432.8144 4.0682,439.0123 4.1653,444.5401 4.1945,449.891 4.2048,455.6677 4.2097,462.0414 4.2183,468.5821 4.2367,475.4791 4.5427,482.3626 5.1236,489.2007 5.4915,495.6626 5.603,501.5893 5.6486,507.5308 5.6743,513.6383 5.6903,519.6264 5.6983,525.103 5.7015,530.4376 5.7069,536.2095 5.3654,542.4445 4.8089,548.4608 4.5335,554.0863 4.452,559.4717 4.4314,564.7786 4.0693,570.4209 3.4922,575.804 3.1997,580.7659 2.6049,585.889 1.9634,590.6281 1.8017,595.8238 1.3965,601.9122 0.8068,607.8907 0.5091,613.0313 0.4105,617.3263 0.3726,621.6851 0.3505,626.2321 0.3355,631.309 0.3307,636.8447 0.3306,641.8756 0.7983,646.5928 1.4135,651.2442 1.6049,655.5806 1.6651,659.6522 1.6938,663.8082 1.7202,668.464 1.7481,674.1952 1.7753,680.8661 1.8006,687.6464 2.2866,693.6402 2.9092,699.1234 3.0947,704.6429 3.1422,710.469 2.8036,716.728 2.2477,723.0469 1.9762,729.2259 1.8951,734.6358 1.8745,739.1595 1.8705,743.2732 1.8455,748.2685 1.8207,751.2506 A3.1407,3.1407 0 0 1 -4.4607,751.2494 T-4.4724,749.6775 -4.495,745.7936 -4.5017,741.4311 -4.4854,737.1489 -4.433,732.0347 -4.2489,725.6546 -3.6336,719.2836 -3.1687,713.5299 -3.1946,707.7118 -3.2782,702.1773 -3.5551,697.0676 -4.1055,691.2131 -4.4287,684.4936 -4.4015,677.542 -4.3772,671.4011 -4.3551,666.4546 -4.3411,661.7859 -4.3713,656.6236 -4.5219,651.7387 -5.1248,646.9892 -5.6105,641.8961 -5.6102,636.8443 -5.614,631.3074 -5.6251,626.2268 -5.6333,621.663 -5.6211,617.2471 -5.5394,612.7927 -5.1876,607.027 -4.6232,601.1984 -4.3063,595.6784 -4.1159,589.9979 -3.4897,585.3036 -2.9524,580.4904 -2.6019,574.8901 -2.0483,569.7052 -1.7724,564.7587 -1.7435,559.4018 -1.6467,553.8533 -1.2801,547.5988 -0.7097,541.7611 -0.4269,536.2095 -0.4216,530.4377 -0.4187,525.1034 -0.4118,519.6277 -0.3996,513.6433 -0.3877,507.547 -0.3916,501.6532 -0.4584,495.8778 -0.7324,489.9154 -1.2784,482.9139 -1.5968,475.4792 -1.5787,468.5825 -1.5712,462.0427 -1.5701,455.6727 -1.5735,449.9095 -1.5939,444.6053 -1.6751,439.2301 -1.9508,433.6333 -2.5035,427.7632 -2.8342,422.0501 -2.8089,416.3966 -2.7825,410.3776 -2.7726,404.1544 -2.8014,398.3154 -2.938,392.7725 -3.5335,387.5976 -4.0193,382.5974 -4.0222,377.2758 -4.0285,371.9234 -4.0369,366.3957 -4.0477,360.8163 -4.0602,355.5826 -4.077,349.8768 -4.0895,343.6541 -4.0808,337.8237 -4.0011,332.2799 -3.6417,326.6669 -3.0575,321.3382 -2.6927,315.8831 -2.3437,309.4253 -1.7652,303.1175 -1.4236,296.9777 -1.241,290.5572 -0.9171,285.4257 -0.4368,280.4214 -0.1331,274.2022 -0.1275,267.4955 -0.1274,260.5111 -0.1273,253.1195 -0.1272,245.3856 -0.1269,238.1402 -0.1264,230.9457 -0.125,223.9301 -0.1205,217.5497 -0.105,211.1477 -0.05,204.6805 0.0468,199.4753 0.205,195.4233 0.852,189.5152 1.4854,183.6422 1.7551,179.604 2.2293,174.1438 2.5272,166.736 2.5332,159.2533 2.5443,152.3198 2.559,145.1246 2.5705,138.1065 2.5642,131.7191 2.4896,125.2888 2.1878,118.6724 1.5475,111.796 0.9022,104.8755 0.1998,98.1565 -0.7304,91.6981 -1.1856,85.3803 -1.1545,79.1907 -1.1279,73.4942 -1.108,67.8376 -1.1021,61.8002 -1.1582,55.5256 -1.429,49.4579 -1.9616,44.5719 -2.2501,39.0377 -2.1994,31.9188 -2.1576,25.1773 -2.1335,19.1918 -2.1282,13.101 -2.1336,7.7243 -2.1442,2.8096 -2.1509,0 A2.1509,2.1509 0 0 1 2.1509,0 Z" stroke-linecap="round" fill="#f2f2f2"/></g></g><g transform="matrix(1, 0, 0, 1, 1418.5044, 18122.4133)" opacity="1"><g transform="scale(1)"><path d="M-0.3639,-2.1831 T1.5123,-2.4785 5.3987,-2.9424 10.4324,-3.2415 16.3722,-3.4183 22.3206,-3.4938 28.5778,-3.5495 35.559,-3.6136 43.2182,-3.699 51.0658,-3.8076 58.968,-3.9409 65.2165,-4.0553 71.6058,-4.6299 77.7804,-5.2789 83.5484,-6.2572 89.7331,-7.4383 94.4476,-7.9181 100.7089,-8.6837 106.9432,-9.6995 111.4163,-10.3587 116.1651,-10.7393 121.1808,-10.9466 125.9995,-11.0632 130.722,-11.1338 135.5094,-11.4857 140.2041,-11.9965 145.0688,-12.2903 150.1473,-12.4503 155.3198,-12.5342 160.5421,-12.5811 165.7915,-12.608 171.0563,-12.6239 176.8197,-12.3176 182.3714,-11.8522 187.3027,-11.6285 192.8767,-11.2053 198.3365,-10.6916 203.2165,-10.4508 208.2646,-10.3366 213.6366,-9.9614 218.9652,-9.4627 224.0582,-9.2216 229.2398,-9.0909 234.6813,-8.6918 240.0489,-8.1734 245.3766,-7.5842 250.3898,-6.9658 255.5056,-6.341 260.7034,-5.7116 265.6622,-5.0754 270.7468,-4.4518 275.4017,-4.1624 280.0034,-3.6701 284.5888,-3.1169 288.9253,-2.8603 293.1002,-2.7175 297.475,-2.6484 301.9643,-2.6153 306.2064,-2.5962 310.3106,-2.5869 316.1817,-3.0565 322.0883,-3.6236 327.7018,-3.7994 335.103,-3.9112 342.5718,-4.2421 348.31,-4.7308 354.0237,-5.0594 361.4811,-5.2383 367.6196,-5.2837 372.0313,-5.2947 376.2307,-5.3041 380.317,-5.3137 384.3436,-5.3207 388.651,-5.3224 393.4184,-5.3156 398.116,-5.3062 402.777,-5.2946 407.7324,-5.2806 413.0771,-4.9427 418.3909,-4.4531 423.455,-4.2079 428.316,-4.0737 433.3062,-3.671 438.7215,-3.1508 443.841,-2.8939 448.7408,-2.7483 453.809,-2.665 458.9789,-2.6183 464.2035,-2.587 469.4568,-2.5588 474.4108,-2.5319 479.2068,-2.5128 484.2315,-2.4976 489.0649,-2.4862 493.7973,-2.482 498.4765,-2.4788 503.1252,-2.4762 509.7202,-2.9483 516.0066,-3.5147 520.2388,-3.9396 524.6445,-4.4703 531.3414,-5.2833 538.3219,-6.0121 542.9185,-6.4722 547.5334,-7.0296 552.4046,-7.3465 557.1509,-7.5052 561.9314,-7.882 566.948,-8.3908 571.9939,-8.6701 576.9498,-9.1076 582.0481,-9.6454 587.1212,-9.9381 592.0946,-10.3811 597.2137,-10.9271 602.9488,-11.2311 608.7782,-11.3902 614.3393,-11.4775 619.769,-11.5243 625.1284,-11.5497 630.4489,-11.5636 635.5369,-11.8709 641.0431,-12.3495 646.9672,-12.6153 652.5744,-12.7519 658.3436,-12.8183 664.1939,-12.8469 669.7729,-12.8604 675.2108,-12.8661 680.5753,-12.868 686.4036,-12.5461 692.2919,-12.0657 697.7052,-11.8275 703.0501,-11.7057 708.673,-11.6481 714.4459,-11.6252 719.9886,-11.6156 725.6182,-11.288 731.0855,-10.8078 736.4681,-10.2331 742.0983,-9.6161 747.3629,-9.3134 752.3365,-9.153 757.6604,-8.7416 762.9638,-8.2219 768.0377,-7.9712 773.2111,-7.8381 778.4372,-7.769 783.3797,-7.7336 788.4017,-7.3884 793.5394,-6.8951 798.2091,-6.6464 803.089,-6.179 807.8524,-5.6224 812.0104,-5.3561 816.3669,-5.2223 820.8472,-5.158 825.3996,-5.1316 829.9826,-5.1219 834.5839,-5.116 839.1937,-5.1106 843.8085,-5.1037 848.4256,-5.0914 853.0442,-5.0778 857.6634,-5.0631 862.2854,-5.0431 866.9107,-5.0151 871.7649,-4.6442 876.5149,-4.0878 880.6615,-3.7505 885.607,-3.7017 890.2361,-4.0486 891.9596,-4.309 A3.041,3.041 0 0 1 893.0804,1.669 T891.3796,2.0506 886.0488,2.8305 880.2581,3.1906 875.788,3.0254 871.2961,2.6284 866.9066,2.3748 862.285,2.4025 857.6626,2.422 853.0427,2.4357 848.4229,2.4475 843.8031,2.4565 839.1837,2.4568 834.5644,2.4498 829.9465,2.4323 825.329,2.3973 820.7164,2.3392 816.1078,2.2431 811.5202,2.0724 806.9997,1.761 802.4036,1.2214 797.8169,0.7934 792.8165,0.5278 787.8983,0.0453 783.3166,-0.2765 778.329,-0.3218 773.0057,-0.406 767.6482,-0.5639 762.2263,-0.8653 757.0914,-1.3932 752.0863,-1.7849 746.9381,-1.9637 741.2895,-2.3045 735.6897,-2.9087 730.4255,-3.4664 725.1772,-3.9504 719.9605,-4.2674 714.3999,-4.2964 708.5818,-4.3469 702.8733,-4.4284 697.3791,-4.5705 691.7026,-4.8332 686.0258,-5.3032 680.5805,-5.5999 675.2246,-5.591 669.7983,-5.5762 664.2399,-5.5506 658.4348,-5.5052 652.75,-5.431 647.2856,-5.301 641.679,-5.0609 635.9767,-4.5794 630.4682,-4.2497 625.1593,-4.2398 619.827,-4.2199 614.4468,-4.1807 608.9736,-4.1047 603.3431,-3.954 597.9954,-3.6704 592.7562,-3.1011 587.5613,-2.6126 582.8176,-2.3226 577.5813,-1.7546 572.4051,-1.2786 567.7028,-1.0092 562.5151,-0.4769 557.4107,-0.0628 552.878,0.0943 548.444,0.3768 543.7043,0.9568 538.8433,1.4701 534.2948,1.7796 529.8681,2.4225 525.5517,3.048 518.9992,3.6905 512.4991,4.3034 508.0335,4.7834 503.1302,5.1159 498.4762,5.1183 493.7966,5.121 489.0635,5.1243 484.229,5.134 479.2018,5.146 474.4019,5.159 469.4406,5.1743 464.1725,5.1805 458.9194,5.17 453.6942,5.1376 448.5156,5.0705 443.4495,4.9309 437.9515,4.6466 432.6978,4.1399 428.1059,3.7787 423.0778,3.6482 417.6702,3.3909 412.6005,2.9271 407.7291,2.6407 402.7772,2.6549 398.1164,2.6667 393.4191,2.6765 388.6525,2.6842 384.3466,2.6841 380.3226,2.6801 376.2409,2.6762 372.0498,2.6775 365.7363,2.6995 357.9269,2.7848 350.8701,3.0769 343.2105,3.6366 335.1682,3.9792 327.9227,4.0445 320.7186,4.3221 314.6419,4.8738 310.2947,5.1996 306.1642,5.1843 301.8892,5.1569 297.3257,5.1015 292.8155,5.003 288.4239,4.8276 281.6965,4.1208 274.8698,3.3909 269.7877,2.988 264.6894,2.2976 259.8036,1.6255 254.6141,0.9571 249.4978,0.3038 244.5732,-0.3183 239.3367,-0.898 234.1454,-1.413 229.0379,-1.7902 223.6804,-1.9477 218.253,-2.2534 213.0969,-2.7923 208.0517,-3.2013 202.8107,-3.3905 197.6448,-3.7252 192.3355,-4.3035 186.9614,-4.7678 181.7902,-5.0435 176.4653,-5.5257 171.0679,-5.8327 165.8173,-5.8276 160.5914,-5.8146 155.4145,-5.7858 150.332,-5.7262 145.4385,-5.6138 140.8675,-5.3907 135.9511,-4.9206 130.7943,-4.5962 126.1254,-4.568 121.4167,-4.4972 116.6469,-4.349 112.3055,-4.0548 105.9255,-3.2583 99.331,-2.2584 95.0032,-1.7439 90.8238,-1.4177 86.6206,-0.7077 82.3191,0.1478 76.1626,0.6845 69.8625,1.1622 63.2399,1.3805 55.0126,1.2344 47.131,1.1104 39.349,1.0132 31.9262,0.943 25.2046,0.8976 19.2885,0.889 13.4547,0.9619 7.245,1.2755 2.2339,1.8542 0.3639,2.1831 A2.2132,2.2132 0 0 1 -0.3639,-2.1831 Z" stroke-linecap="round" fill="#f2f2f2"/></g></g><g transform="matrix(1, 0, 0, 1, 1877.9676, 18123.7336)" opacity="0.5"><g transform="scale(1)"><path d="M0,-2.4127 T0.6058,-2.4037 3.6362,-3.1815 8.5228,-4.6097 13.035,-6.2796 17.6252,-8.1889 21.9681,-9.9468 25.8668,-12.1021 29.7432,-14.4566 33.7351,-16.7507 37.7458,-18.9805 42.0468,-21.7516 46.3549,-24.6295 50.1874,-27.5712 54.0263,-30.8419 58.4475,-34.287 63.2048,-38.1398 67.1812,-41.4422 71.1359,-44.7472 74.9051,-48.2151 78.1207,-51.3916 80.9969,-54.7221 84.0927,-58.5805 87.6701,-62.8547 90.9001,-67.0696 94.2943,-71.5165 98.2224,-76.3973 101.5644,-81.2019 104.8687,-86.4557 108.6411,-91.9523 112.4438,-97.3635 116.3414,-103.3198 120.1612,-109.9269 123.9877,-117.0469 127.4895,-123.1379 130.1007,-127.6534 132.8191,-133.0377 135.9168,-139.1889 138.6885,-144.7072 141.0187,-149.3506 143.1389,-153.5825 145.1608,-157.9281 147.1942,-162.1635 149.1697,-166.5188 150.7883,-170.6047 152.2887,-174.3751 154.3912,-179.4504 156.7291,-185.2103 158.5724,-189.674 161.2493,-195.3279 163.7964,-201.1589 165.3197,-205.3438 167.1528,-209.6471 169.048,-213.7928 170.5989,-217.6964 172.4656,-221.558 174.9557,-226.8608 177.0783,-232.2236 179.257,-237.6823 181.3424,-243.0539 182.6557,-247.106 183.9523,-251.6909 185.2712,-256.349 186.6034,-260.7277 187.9295,-264.9121 189.2517,-268.9918 190.5718,-273.0156 191.8736,-277.2661 193.1817,-281.6883 194.668,-287.8842 196.0779,-293.9669 197.2909,-298.0483 198.5384,-302.3278 199.9609,-308.8419 201.3364,-315.7158 202.5555,-320.4298 203.9795,-326.4078 205.3425,-332.3276 206.5415,-336.3722 207.4328,-340.4534 208.2003,-345.0607 209.256,-350.4535 210.0953,-355.6509 210.8607,-360.3344 212.0444,-366.3898 212.9466,-372.1655 213.6202,-376.2217 214.2864,-380.5247 215.1513,-387.1944 215.9397,-393.582 216.4522,-398.3781 217.0349,-403.3973 217.3294,-407.766 217.8159,-412.417 218.7072,-417.8107 219.4654,-422.9989 220.1869,-427.6717 220.8718,-431.996 221.736,-438.1564 222.8274,-444.9958 223.4772,-450.1364 224.1384,-455.0594 224.807,-459.5396 225.4951,-463.5256 226.7073,-468.3136 228.1474,-473.5759 229.36,-477.4005 229.8727,-478.8018 A2.6386,2.6386 0 0 1 234.8673,-477.0982 T234.0661,-474.5887 232.6542,-469.7708 231.4121,-464.2109 230.5408,-458.6953 229.8881,-454.2674 229.2267,-449.3955 228.5517,-444.2431 227.4383,-437.5634 226.488,-431.1033 225.7906,-426.7926 225.0739,-422.1888 224.2879,-416.8828 223.4335,-411.8504 222.9771,-407.389 222.6672,-402.7599 222.1029,-397.8139 221.6238,-393.1786 220.8493,-386.6901 219.5312,-377.9667 218.6076,-371.2093 217.6634,-365.1401 216.5286,-359.3909 215.7585,-354.7448 214.8691,-349.3475 213.8291,-344.1144 212.9894,-339.2213 212.0158,-334.7532 210.4003,-328.9951 208.4371,-321.1476 206.9241,-314.558 205.8751,-309.4999 205.0244,-305.0262 204.0114,-300.7266 202.7546,-296.4208 201.5851,-292.5043 200.5483,-288.6276 199.6818,-284.4495 198.6365,-280.0722 197.3043,-275.5912 195.9654,-271.2409 194.6442,-267.2376 193.3241,-263.1941 192.0057,-259.0728 190.6893,-254.7998 189.3519,-250.1494 187.9775,-245.3644 186.5921,-241.1146 184.4678,-235.6641 182.2125,-230.0746 180.516,-226.0605 178.0561,-220.9001 175.687,-215.6469 174.0121,-211.5116 172.1557,-207.5116 170.4242,-203.4667 168.7378,-198.9191 166.8623,-194.7456 164.4119,-189.683 161.8117,-183.3969 159.3551,-177.3744 156.4818,-170.5725 153.9936,-164.3171 151.9692,-159.8729 149.9666,-155.704 147.8846,-151.2108 145.1034,-145.6336 142.0904,-139.5947 139.2074,-133.8444 136.7946,-129.0647 134.719,-125.0015 132.0885,-120.4654 128.6086,-114.4781 125.5205,-108.9639 122.4627,-103.9549 119.462,-98.8781 116.5737,-94.3247 112.9377,-89.1409 109.3646,-83.9516 105.6584,-78.1918 102.1074,-73.0517 98.3804,-68.4029 94.8083,-63.7518 91.3042,-59.2641 87.7988,-55.0745 84.8043,-51.3031 81.7312,-47.7582 78.4415,-44.5279 75.2038,-41.49 71.2253,-38.1951 67.2231,-34.8987 63.8448,-32.2487 60.3209,-29.5712 56.4039,-26.3097 52.6039,-23.0958 49.0554,-20.523 45.3738,-17.9241 40.9336,-15.1066 36.224,-12.6086 31.8532,-10.2263 26.8129,-7.4202 21.6724,-4.7729 17.2065,-2.7662 12.4441,-0.8787 7.4652,0.7654 3.2731,1.8856 0.6429,2.4037 0,2.4127 A2.4127,2.4127 0 0 1 0,-2.4127 Z" stroke-linecap="round" fill="#e599f7"/></g></g><g transform="matrix(1, 0, 0, 1, 1881.9285, 18122.4133)" opacity="0.5"><g transform="scale(1)"><path d="M0.3602,2.5213 T-1.8269,2.8208 -7.622,3.3857 -14.7946,3.7299 -21.1047,3.3478 -26.0623,2.285 -30.8703,0.5972 -35.9,-2.21 -41.0008,-5.7203 -46.2436,-9.5284 -51.607,-13.9612 -57.086,-18.9388 -62.5468,-24.5303 -66.8098,-28.8717 -69.9199,-32.0212 -72.9197,-35.3478 -75.7494,-38.6654 -78.7961,-42.2705 -81.9593,-46.0341 -84.9706,-50.0051 -87.7339,-53.5596 -90.4514,-56.9905 -94.742,-62.0634 -98.9863,-67.3584 -101.8006,-71.2076 -104.7548,-74.9682 -107.7257,-79.3515 -110.5521,-83.8434 -113.3,-88.3852 -116.0564,-93.3524 -118.7199,-98.0681 -121.6166,-102.6056 -124.7612,-107.5678 -127.7911,-113.1845 -130.6052,-118.5665 -133.3098,-123.516 -136.3069,-128.9436 -139.4498,-134.6084 -142.3894,-140.1497 -145.4701,-145.824 -148.6604,-151.6209 -151.6614,-157.6066 -154.7408,-163.4431 -157.9008,-168.9446 -160.9252,-174.8463 -163.7722,-180.7701 -166.2489,-186.4739 -168.4942,-191.9763 -170.8912,-197.5981 -173.1596,-203.5275 -175.2675,-209.0821 -177.5986,-214.7215 -179.8367,-220.6603 -181.9407,-226.216 -183.9979,-231.6441 -185.777,-237.1764 -187.6021,-242.4104 -189.5363,-248.0271 -191.2527,-253.9767 -192.7718,-259.5558 -194.2072,-264.994 -195.3159,-270.222 -196.2208,-275.1543 -197.2954,-280.0714 -198.2167,-285.3875 -199.0256,-290.6855 -199.773,-295.9738 -200.4948,-301.2551 -201.1973,-306.536 -201.897,-312.1585 -202.8658,-317.3486 -203.7293,-322.4684 -204.5173,-327.7022 -205.5281,-332.7242 -206.4097,-337.7595 -207.1824,-342.5898 -208.1545,-347.0629 -209.0127,-351.5166 -209.7835,-356.0963 -210.4894,-360.6953 -211.4214,-367.163 -212.7585,-375.2892 -214.0975,-382.4046 -215.6345,-387.8674 -217.2821,-392.98 -218.7479,-398.4128 -220.4848,-403.5449 -222.367,-408.7928 -223.8621,-413.7206 -224.9583,-418.543 -225.0407,-423.2055 -224.3231,-426.7785 -223.9564,-428.3727 A3.5167,3.5167 0 0 1 -217.0236,-427.1873 T-217.224,-423.8316 -216.739,-418.2065 -215.2981,-413.5927 -213.7043,-408.9124 -211.7483,-403.5272 -209.9358,-397.8686 -208.4695,-392.7096 -207.026,-387.1433 -205.6872,-380.3716 -204.3514,-372.5601 -203.2049,-366.2277 -202.501,-361.9343 -201.5225,-355.5368 -200.1819,-348.8063 -199.1044,-343.8636 -198.3574,-339.1203 -197.54,-334.2825 -196.5116,-328.8633 -195.7998,-323.7713 -195.002,-318.7847 -194.0122,-313.0907 -193.3738,-307.5382 -192.7221,-302.2769 -192.0589,-297.0318 -191.363,-291.8241 -190.618,-286.6833 -189.7752,-281.6784 -188.6874,-276.4982 -187.8584,-271.7484 -186.8619,-266.8975 -185.487,-261.5038 -184.0432,-256.0069 -182.5069,-250.4174 -180.6384,-244.8009 -178.802,-239.3823 -177.1876,-234.1879 -175.175,-228.7489 -173.1105,-223.1615 -170.9929,-217.434 -168.6133,-211.5988 -166.5215,-206.0427 -164.375,-200.3673 -161.9488,-194.6311 -159.7811,-189.253 -157.438,-183.7978 -154.6936,-178.0249 -151.8469,-172.3942 -148.6056,-166.6755 -145.4707,-160.6992 -142.6127,-154.9322 -139.4243,-149.0909 -136.325,-143.3531 -133.4616,-137.9111 -130.332,-132.2128 -127.3505,-126.741 -124.6343,-121.6713 -121.9012,-116.3348 -119.1441,-111.0907 -116.0466,-106.1068 -113.0223,-101.2584 -110.3745,-96.4659 -107.7915,-91.6845 -105.1465,-87.2057 -102.4877,-82.874 -99.7981,-78.8076 -95.7544,-73.1745 -91.4285,-67.6201 -88.3706,-64.1379 -85.6983,-60.73 -82.9854,-57.2502 -80.1833,-53.6153 -77.3732,-49.8679 -74.2289,-46.0941 -71.2306,-42.505 -68.5137,-39.2799 -65.7273,-36.1152 -61.3907,-31.3513 -55.8062,-25.5851 -50.6504,-20.5517 -45.459,-16.0496 -40.4554,-11.9577 -35.4478,-8.2851 -30.0751,-5.0153 -25.2674,-2.789 -20.7899,-1.7298 -14.9182,-1.3367 -8.0869,-1.6346 -2.5436,-2.1964 -0.3602,-2.5213 A2.5469,2.5469 0 0 1 0.3602,2.5213 Z" stroke-linecap="round" fill="#e599f7"/></g></g><g transform="matrix(1, 0, 0, 1, 1712.9305, 17956.0559)" opacity="0.5"><g transform="scale(1)"><path d="M1.5656,-1.5656 T2.8006,-0.3032 5.8203,2.7621 9.0506,6.0178 12.2472,8.75 15.3843,11.6239 18.8996,14.9763 23.4789,18.6509 27.4605,21.939 30.8214,24.8334 34.7155,28.1232 38.9136,31.8726 43.4409,35.7399 47.5133,38.8662 50.9418,41.518 54.7013,44.3526 58.5406,46.9656 61.8012,49.5692 64.8771,52.7509 68.6545,56.1196 72.5744,59.5817 76.1986,63.7418 79.5467,67.716 82.9819,71.3339 87.0041,75.7811 90.6151,79.818 93.7404,83.5367 97.1078,88.0008 100.452,92.6312 103.4833,96.6665 106.827,100.2988 110.699,104.2198 114.9331,108.3015 118.9431,112.276 122.649,116.1195 126.0564,120.1122 128.9513,123.5667 132.2944,126.8906 135.6543,130.1575 139.2445,133.5937 143.4668,137.3535 147.6309,141.0605 151.6989,145.0376 155.6875,148.9866 159.6661,152.9404 163.1362,156.7474 166.0571,160.2014 169.5413,164.2727 172.8089,168.578 175.9607,173.0782 179.7146,177.8597 182.9844,182.0597 186.2633,186.0325 190.0584,189.9197 193.9961,193.8682 197.9547,197.83 202.0901,202.3174 206.2951,206.661 209.9629,210.0172 213.7668,213.4151 217.6778,216.7372 221.6279,220.0453 225.5857,223.3463 228.7598,226.1422 232.2233,229.4996 236.2284,233.4723 239.8949,236.6668 243.2986,239.7977 247.0342,243.6659 250.7478,247.0738 254.6736,250.4044 258.7331,254.2916 262.4828,258.1148 266.4434,261.7879 270.3224,265.2496 273.6348,268.2599 276.8287,271.1343 280.2454,274.4319 283.5919,277.4947 286.9546,280.6482 290.5767,284.7031 294.4473,288.8313 298.6995,292.8197 303.1166,297.1509 307.081,300.9165 310.4854,303.7829 313.8136,306.4815 317.2436,309.7322 321.1814,314.0919 325.6285,318.4509 329.7736,322.1118 333.6629,325.5925 337.1852,328.7013 340.1791,331.5872 343.4333,335.1097 347.1599,338.7668 350.5425,341.834 353.4123,344.7756 356.5317,348.0523 360.2773,351.3068 364.2038,355.1688 368.1722,359.2017 371.6734,362.8276 374.5486,366.5633 377.8351,370.533 381.1291,374.7481 383.8026,378.7017 386.883,381.9821 389.8017,385.353 392.4304,389.0149 395.386,392.3668 398.7238,395.9506 402.1581,399.6142 405.3132,402.8311 408.515,406.2274 411.959,410.245 415.4969,413.6123 418.7913,416.8286 422.0959,420.1105 425.5335,423.2354 428.9694,426.5748 432.0772,429.4777 435.1699,432.5088 438.4152,435.7326 442.0622,439.3692 446.1225,443.4229 450.2551,447.8981 454.1117,452.1836 457.832,455.616 461.8874,459.2464 465.9362,463.2298 469.4293,467.0516 472.7677,470.9874 476.2721,474.3111 479.4672,476.9304 483.3422,480.4603 487.4392,484.4631 490.7265,488.5885 492.2597,490.8477 A2.9215,2.9215 0 0 1 487.4003,494.0923 T486.6759,493.0098 484.1658,489.792 480.3776,485.7508 476.3324,481.9249 472.3593,478.5172 469.0332,475.4879 466.4211,472.2616 463.2273,468.5951 459.2702,464.6476 455.2746,460.8134 451.4508,457.1161 447.529,453.0229 443.43,448.7714 439.4218,444.7589 435.9454,441.2795 432.6895,438.0249 428.8441,434.2235 425.2583,430.8175 421.918,427.5601 418.13,424.0965 414.1164,420.2403 410.2113,416.3863 406.8844,413.0648 403.5133,409.2213 399.5772,405.2751 395.754,401.356 392.0136,397.1685 388.8579,393.4702 386.1748,389.7396 382.6169,385.8952 379.282,382.3931 376.7772,378.9376 374.2187,375.3395 371.4517,371.7307 368.1499,367.7507 364.5987,363.7731 361.1932,360.3146 357.6382,356.8464 354.1899,353.6341 350.7779,350.4631 347.4652,347.4558 344.68,344.5311 340.863,340.7697 336.8317,336.7645 333.3447,333.3747 329.6376,330.1567 326.2518,327.2617 322.9628,324.1259 319.2157,320.479 315.7113,317.2068 312.3017,313.4928 307.6706,309.1303 302.9269,305.2751 299.035,301.5582 295.6737,298.2773 292.4535,295.3673 288.7775,291.5963 285.2832,287.7735 281.8886,284.0686 277.7991,279.893 273.9975,276.474 270.2771,273.2161 266.549,269.7375 262.4132,265.9647 258.1121,261.9383 254.9596,258.6351 251.7835,255.5847 247.8019,252.2168 243.7457,248.6113 239.8965,244.6521 236.0555,240.9718 232.1609,237.5663 228.1912,233.6189 224.1674,229.7617 220.2123,226.4608 216.2476,223.1555 212.2734,219.8323 208.2406,216.3581 204.5232,212.8387 201.1913,209.7162 197.6572,205.9839 193.8646,201.917 189.9072,197.9499 185.9527,193.9759 182.017,189.9258 178.669,185.8605 175.8866,182.2919 173.2178,178.8972 170.5076,175.2361 167.8198,171.5132 164.7909,167.5549 161.4479,163.692 158.0619,159.7887 154.2643,155.6984 150.313,151.7266 146.364,147.7608 142.3856,143.8457 138.3871,139.9212 134.3508,136.0244 130.3844,132.1802 125.9509,128.0174 122.1791,124.194 119.4955,120.9354 116.1228,117.2361 112.1698,113.2747 108.1841,109.3631 104.2266,105.3711 100.3182,101.2114 96.9497,96.9222 94.35,92.9225 91.7784,89.2283 88.8133,85.439 84.7309,81.0164 80.3932,76.4264 76.6761,72.257 73.2362,68.4285 69.9048,64.5047 66.2352,60.7067 62.3576,57.0465 58.1712,53.0303 53.4534,49.4291 48.7658,45.9691 44.0085,42.087 39.6137,38.6277 35.8436,35.2827 32.1424,31.9967 28.855,29.2346 25.2372,25.9465 21.2943,22.6277 17.3428,19.3039 13.295,15.3751 9.3955,11.9393 6.0224,9.0553 2.7621,5.8203 -0.3032,2.8006 -1.5656,1.5656 A2.2141,2.2141 0 0 1 1.5656,-1.5656 Z" stroke-linecap="round" fill="#ffc034"/></g></g><g transform="matrix(1, 0, 0, 1, 1720.8523, 17966.6183)" opacity="0.5"><g transform="scale(1)"><path d="M-2.1155,1.5866 T-3.0342,0.3204 -5.0267,-2.7868 -7.8722,-6.6185 -11.4185,-10.4027 -14.8875,-14.0425 -19.0576,-18.2029 -24.1401,-23.0486 -29.3918,-28.1767 -33.4637,-32.4987 -37.6885,-36.9054 -42.017,-40.9689 -45.1899,-43.6095 -48.5428,-46.6541 -51.8846,-49.8046 -55.1053,-52.6007 -58.4809,-55.728 -61.8322,-58.9318 -65.1704,-62.1696 -68.506,-65.4283 -71.8367,-68.6934 -75.166,-71.9626 -78.1816,-74.9201 -81.2261,-77.6017 -84.5229,-80.6776 -87.6445,-83.9623 -90.542,-87.2572 -94.7514,-92.3747 -100.0447,-98.5113 -104.0278,-103.1604 -107.9949,-107.7888 -113.1563,-113.3187 -117.0082,-117.9746 -120.4626,-122.6041 -123.8316,-127.2363 -126.9803,-132.0523 -130.0618,-136.5845 -133.2872,-141.1843 -136.5393,-145.8029 -139.9787,-150.2547 -144.84,-155.694 -149.906,-160.4743 -155.0407,-164.5919 -160.0442,-168.8309 -164.6736,-172.9547 -169.4347,-176.8207 -174.6027,-181.3841 -179.4744,-185.8851 -183.8418,-189.8278 -188.4808,-194.3456 -193.1807,-199.4974 -197.5825,-204.3529 -201.8334,-208.5745 -205.6845,-212.1094 -209.0424,-215.0786 -212.346,-217.8465 -215.2054,-220.8606 -217.6468,-224.7406 -219.7117,-228.1994 -220.4419,-229.4982 A3.021,3.021 0 0 1 -215.2581,-232.6018 T-213.8079,-230.328 -211.1421,-226.0947 -207.9814,-222.7336 -204.5713,-219.9653 -200.9198,-216.7322 -196.6971,-212.8506 -192.5003,-208.7172 -188.2927,-204.0865 -183.7748,-199.1209 -179.2541,-194.6983 -174.6706,-190.4967 -170.1586,-186.27 -165.5691,-182.2535 -160.4115,-178.0714 -155.6052,-173.8141 -150.6732,-169.6575 -145.2743,-165.3274 -139.8924,-160.2874 -135.9101,-156.037 -133.2703,-152.925 -129.9587,-148.3143 -126.6568,-143.6944 -123.3989,-139.0431 -120.1944,-134.3459 -116.8777,-129.7723 -112.7672,-123.8949 -108.0463,-118.1589 -104.0119,-113.9448 -101.2788,-110.8819 -98.6749,-107.6991 -96.0891,-104.6245 -93.3511,-101.5074 -90.7202,-98.2137 -88.0785,-94.9415 -85.4204,-91.7055 -82.7194,-88.5406 -79.9566,-85.4911 -76.8265,-82.4718 -73.5998,-79.5109 -70.639,-76.5008 -67.3668,-73.185 -64.0949,-69.8787 -60.8254,-66.5917 -57.5631,-63.3415 -54.3223,-60.1668 -51.113,-57.1143 -47.7621,-54.1078 -44.558,-50.9868 -39.9761,-46.7073 -34.9921,-42.3808 -31.891,-39.2875 -28.0319,-34.8973 -22.9433,-29.4485 -17.8931,-24.3952 -13.0957,-19.7734 -9.3396,-15.8558 -6.2628,-12.399 -3.2624,-9.1157 -0.8511,-5.7956 1.1611,-2.8178 2.1155,-1.5866 A2.6443,2.6443 0 0 1 -2.1155,1.5866 Z" stroke-linecap="round" fill="#ffc034"/></g></g><g transform="matrix(1, 0, 0, 1, 1403.9812, 18039.2346)" opacity="0.5"><g transform="scale(1)"><path d="M0.312,-2.1839 T2.4939,-1.8485 7.9221,-1.2591 14.3709,-0.4696 19.8422,-0.0847 24.5154,-0.7439 30.5543,-1.6145 37.2432,-2.0792 43.0697,-1.8696 48.3168,-1.3874 53.8862,-1.1817 59.9134,-1.1504 66.0468,-1.1726 72.3552,-1.2101 78.7098,-1.2502 85.4062,-1.2853 91.0479,-1.5635 95.9614,-2.1264 101.3459,-2.4966 106.8118,-2.1067 112.3003,-1.0538 117.7815,0.0344 122.959,0.7654 127.9048,1.0653 133.0869,1.1474 138.3393,1.168 144.2569,0.698 150.195,0.0709 155.4846,-0.1277 160.5923,-0.6545 165.832,-1.2878 171.7534,-1.4811 177.6884,-1.5399 183.6256,-1.5746 190.0418,-1.6118 196.4285,-1.6459 202.5427,-1.962 208.6797,-2.5403 215.1059,-2.892 221.5109,-2.9922 227.5785,-3.0284 233.2502,-3.0495 239.1051,-2.5892 245.0236,-2.0035 250.4962,-1.8634 255.8221,-1.8352 261.1141,-1.8316 266.3974,-1.8306 271.6783,-1.8317 277.4352,-1.8332 283.3244,-1.8345 289.2539,-1.8355 295.5067,-1.8364 301.8458,-1.837 308.3733,-1.8375 314.9532,-1.8379 321.7121,-1.8382 328.8353,-1.8384 335.8964,-1.8385 342.6258,-1.8386 349.2617,-1.8387 355.8716,-1.8388 362.6389,-1.8388 369.2854,-1.8388 375.4252,-1.8389 381.2728,-2.1105 387.6637,-2.6539 394.5219,-2.9911 401.1937,-3.0739 408.1259,-3.1043 415.1304,-3.1296 421.7124,-3.4282 428.7984,-3.9846 436.6211,-4.3171 444.5036,-4.3964 452.4123,-4.4333 460.3959,-4.1356 467.8709,-3.5913 475.1266,-3.3035 482.8517,-3.2252 490.7213,-3.2073 496.8975,-2.8776 502.6023,-2.3221 509.7312,-2.0367 516.7798,-1.9642 523.9836,-1.9465 531.3923,-1.9449 538.6936,-1.9536 545.9651,-1.9757 552.9197,-2.0027 559.934,-2.0191 566.9612,-2.0283 573.6799,-2.0346 580.3128,-2.0424 586.922,-2.0568 593.5245,-2.0809 599.8166,-2.1056 606.0226,-2.1235 612.3486,-2.1321 618.7149,-2.1324 625.4099,-1.6489 631.731,-1.0423 636.5844,-0.5538 641.5697,0.0472 647.8038,0.3527 654.2968,0.4446 660.7071,0.0087 667.4219,-0.5796 674.4102,-1.0318 681.4285,-1.648 688.5903,-2.0328 695.5454,-2.4429 701.0124,-2.9503 706.6252,-3.2777 713.8737,-3.9214 719.6078,-4.5227 723.6446,-4.6697 727.6444,-4.7445 731.6274,-4.7828 735.6019,-4.8022 741.5508,-4.82 749.4759,-4.8366 757.394,-4.8447 765.1682,-5.3202 771.0343,-5.8883 775.1019,-6.034 779.1214,-6.1118 783.1096,-6.1575 788.9204,-6.6724 794.7949,-7.2712 798.8643,-7.4259 802.8795,-7.5098 808.3639,-8.0327 815.7003,-8.6737 823.4767,-8.8677 831.3546,-8.9294 838.9502,-8.9542 846.3034,-8.9688 853.9017,-8.9838 861.7288,-9 868.9825,-9.4859 876.2503,-10.1155 883.8422,-10.3129 891.1925,-10.3806 898.3151,-10.4134 905.2243,-10.4307 912.3905,-10.4419 919.4636,-10.4495 926.3595,-10.4574 933.5184,-10.4724 940.5858,-10.4859 947.4801,-10.4865 954.6461,-10.481 960.5521,-10.1407 966.5333,-9.2095 973.9479,-7.9889 980.9066,-7.0537 986.2511,-6.3281 991.4625,-5.2456 997.0229,-4.2677 1001.74,-3.2783 1005.348,-2.3317 1006.6397,-2.0615 A3.4292,3.4292 0 0 1 1005.5003,4.7015 T1004.1914,4.5335 1000.8051,3.9027 995.633,3.083 989.6418,2.1648 983.4685,1.1533 976.3669,0.0609 969.1399,-1.1834 963.6422,-1.967 958.0493,-2.4335 951.1482,-2.7164 944.0785,-2.714 936.92,-2.7222 930.0255,-2.7377 922.9575,-2.7476 915.7963,-2.7537 908.8965,-2.7615 901.8228,-2.7715 894.6487,-2.7814 887.696,-2.7762 880.4215,-2.7092 873.1451,-2.4411 865.7111,-1.8963 857.8035,-1.5685 850.0541,-1.5833 842.7483,-1.5936 835.3233,-1.5956 827.4697,-1.5836 819.7987,-1.5035 812.7566,-1.1986 807.2284,-0.6154 801.0742,-0.2103 793.4125,0.0678 785.4321,0.6268 777.3006,1.0283 769.63,1.3166 763.616,1.8756 757.402,2.2062 749.4805,2.2023 741.5672,2.2005 733.6714,2.2233 725.8524,2.3213 718.3153,2.646 710.7564,3.3076 703.4897,3.9526 696.1887,4.5298 688.8193,4.9296 682.1909,5.2125 675.0948,5.8159 667.8389,6.3223 661.0268,6.9374 654.2449,7.4016 647.5659,7.3014 640.7098,6.9154 634.3167,6.2529 627.8854,5.6127 621.4174,5.0513 615.2866,4.7726 609.1432,4.7683 603.063,4.7556 596.6229,4.7338 590.0192,4.7073 583.4144,4.6864 576.797,4.6769 570.1345,4.6715 563.3093,4.6639 556.4909,4.6502 549.7016,4.6278 542.4327,4.6018 535.1494,4.5849 527.8053,4.5769 520.2407,4.5573 513.0133,4.4971 505.8902,4.3049 498.4835,3.6778 490.7015,3.1883 482.8014,3.1567 474.9394,3.0571 467.2661,2.704 459.9419,2.1253 452.4258,1.8123 444.5526,1.825 436.804,1.9241 429.5392,2.2338 422.3097,2.8053 415.1344,3.1349 408.1425,3.1234 401.2556,3.1425 394.7461,3.238 388.4715,3.5428 381.9049,4.1261 375.4252,4.4789 369.2854,4.4788 362.6389,4.4788 355.8716,4.4788 349.2617,4.4787 342.6258,4.4786 335.8964,4.4785 328.8353,4.4784 321.7121,4.4782 314.9532,4.4779 308.3733,4.4775 301.8458,4.477 295.5067,4.4764 289.2538,4.4755 283.3243,4.4744 277.435,4.4729 271.6774,4.4709 266.3944,4.4678 261.1034,4.4615 255.7843,4.4391 250.3661,4.3734 244.6157,4.1755 238.7806,3.5441 233.237,3.0548 227.5945,3.0474 221.5709,3.0607 215.3357,3.1389 209.393,3.4292 204.5955,3.9834 199.3829,4.2997 193.2018,4.27 187.0142,4.2382 180.7762,4.217 174.8835,4.2274 169.1306,4.3071 163.8579,4.585 158.5307,5.1637 153.0992,5.586 148.5221,5.8264 143.7046,6.3742 138.318,6.7294 133.0104,6.6914 127.6325,6.5621 122.0188,6.101 116.6378,5.2768 111.5644,4.1978 106.5217,3.1287 101.5568,2.7434 96.8637,3.0153 91.7692,3.5791 85.4059,3.9249 78.7088,3.8888 72.3515,3.8449 66.0325,3.7941 59.8688,3.7237 53.7253,3.5813 47.5524,3.162 42.4788,2.5783 37.4219,2.3831 31.3233,2.7087 25.6475,3.4993 20.099,4.2033 14.0065,3.8162 7.4915,3.0102 1.8767,2.4729 -0.312,2.1839 A2.206,2.206 0 0 1 0.312,-2.1839 Z" stroke-linecap="round" fill="#e03131"/></g></g><g transform="matrix(1, 0, 0, 1, 1797.4295, 18113.1712)" opacity="1"><g transform="scale(1)"><path d="M2.2695,1.32 T2.3283,3.8176 2.2598,8.8993 2.1324,11.4833 A2.4667,2.4667 0 0 1 -2.7905,11.1598 T-2.5888,8.7371 -2.3283,3.8173 -2.2695,1.32 A2.2695,2.2695 0 0 1 2.2695,1.32 ZM-2.5487,10.2454 T-2.1382,9.4509 -1.7277,8.6564 A2.4212,2.4212 0 0 1 2.6296,10.7688 T2.2601,11.5832 1.8906,12.3976 A2.4667,2.4667 0 0 1 -2.5487,10.2454 ZM-0.06,7.3459 T0.4582,7.2364 0.9764,7.1268 A2.4167,2.4167 0 0 1 1.9964,11.8513 T1.4791,11.9653 0.9619,12.0793 A2.4212,2.4212 0 0 1 -0.06,7.3459 ZM3.7915,8.7633 T4.2399,10.2903 4.8381,13.0109 4.9879,14.2045 A2.369,2.369 0 0 1 0.2921,14.8355 T0.1215,13.6447 -0.4339,11.3344 -0.8187,10.2148 A2.4167,2.4167 0 0 1 3.7915,8.7633 Z" stroke-linecap="round" fill="#40c057"/></g></g><g transform="matrix(1, 0, 0, 1, 1771.0236, 18163.3425)" opacity="1"><g transform="scale(1)"><path d="M1.4692,-1.959 T2.7584,-1.0989 6.3985,0.1486 12.3711,1.6535 18.2208,3.488 20.449,4.2051 A2.4813,2.4813 0 0 1 19.151,8.9949 T16.8656,8.4888 11.2024,7.1037 4.386,5.1049 -0.2609,2.972 -1.4692,1.959 A2.4487,2.4487 0 0 1 1.4692,-1.959 Z" stroke-linecap="round" fill="#40c057"/></g></g><g transform="matrix(1, 0, 0, 1, 1804.031, 18158.0613)" opacity="1"><g transform="scale(1)"><path d="M-1.7765,-2.6414 T0.1619,-3.8769 2.1002,-5.1124 A3.0701,3.0701 0 0 1 5.527,-0.0173 T3.6517,1.312 1.7765,2.6414 A3.1832,3.1832 0 0 1 -1.7765,-2.6414 ZM6.809,-3.2381 T7.1705,-1.697 7.8919,3.7087 8.6604,11.2378 9.2596,16.9857 10.737,22.8923 12.0236,26.7157 A2.9627,2.9627 0 0 1 6.4564,28.7443 T5.587,26.5723 3.6691,20.212 2.2498,11.9635 1.6807,4.551 1.1503,-0.3465 0.8182,-1.8917 A3.0701,3.0701 0 0 1 6.809,-3.2381 Z" stroke-linecap="round" fill="#40c057"/></g></g><g transform="matrix(1, 0, 0, 1, 1714.2508, 18110.5306)" opacity="1"><g transform="scale(1)"><path d="M1.9504,-0.2786 T2.313,1.8995 2.989,7.5125 2.8547,14.0559 2.2055,19.2184 2.0042,21.2724 A2.01,2.01 0 0 1 -2.0042,20.9676 T-1.8925,18.9068 -1.4149,13.9924 -1.2379,7.9012 -1.6886,2.471 -1.9504,0.2786 A1.9702,1.9702 0 0 1 1.9504,-0.2786 Z" stroke-linecap="round" fill="#40c057"/></g></g><g transform="matrix(1, 0, 0, 1, 1686.5246, 18162.0222)" opacity="1"><g transform="scale(1)"><path d="M0.7126,-2.1377 T2.5986,-1.5554 7.7585,-0.3232 11.0323,0.3268 A2.361,2.361 0 0 1 10.0877,4.9532 T6.5477,4.2119 1.1476,2.8041 -0.7126,2.1377 A2.2533,2.2533 0 0 1 0.7126,-2.1377 Z" stroke-linecap="round" fill="#40c057"/></g></g><g transform="matrix(1, 0, 0, 1, 1707.6493, 18162.0222)" opacity="1"><g transform="scale(1)"><path d="M-2.1814,-1.636 T-1.2047,-2.9048 2.4208,-5.6061 8.637,-6.5651 14.7267,-4.292 18.2744,0.4775 18.6271,6.448 16.3699,12.097 12.7067,17.1127 8.5173,21.1837 5.5142,23.9408 4.6216,24.9941 A2.7815,2.7815 0 0 1 -0.1481,22.1312 T0.5154,21.1505 2.9535,18.6187 6.5071,15.4557 10.0913,11.6715 12.9282,6.9478 13.1246,2.1633 10.3851,-0.8166 6.2274,-1.1925 3.0778,0.4073 2.1814,1.636 A2.7267,2.7267 0 0 1 -2.1814,-1.636 ZM4.6163,22.1225 T5.0469,22.7804 8.498,24.3072 13.6952,25.3776 18.9328,25.1915 21.9938,24.8039 A2.9615,2.9615 0 0 1 22.9062,30.6561 T21.1142,31.0024 17.3356,31.6812 12.4324,31.5556 7.1795,30.4081 2.7347,28.0497 0.2417,25.6917 -0.1429,25.0028 A2.7815,2.7815 0 0 1 4.6163,22.1225 Z" stroke-linecap="round" fill="#40c057"/></g></g><g transform="matrix(1, 0, 0, 1, 1503.0034, 17743.4882)" opacity="1"><g transform="scale(1)"><path d="M1.9696,-1.5757 T3.2079,-0.0065 6.3504,3.4233 10.0222,6.8598 13.3824,10.3074 16.5911,14.3337 19.5289,18.5806 22.6261,22.6625 26.2549,26.5465 30.0824,30.3965 34.0419,34.3226 38.1642,38.7503 42.2796,43.2014 45.7348,46.8106 48.4322,50.2119 51.5038,54.0083 54.9408,58.5464 58.3818,63.0236 61.7238,66.5244 65.0413,70.514 68.5888,75.2946 71.9887,79.8475 75.7085,84.312 79.567,88.2755 83.5576,92.279 88.0913,96.851 92.246,100.6691 96.1257,104.1549 100.2288,108.09 103.7206,112.1134 107.0392,116.0627 110.8374,119.9419 114.409,123.3619 117.765,126.6725 120.9616,130.3402 124.1961,133.6286 127.9878,137.0696 131.9852,141.0106 135.9576,144.9606 139.429,148.7655 142.6989,152.0801 146.5896,155.3516 150.4252,158.5683 154.3899,161.869 158.0898,165.093 161.0344,167.9048 164.5596,170.7253 168.3501,173.4893 171.8991,175.9596 175.8287,178.3312 179.7213,180.8913 183.227,183.8662 187.0603,187.6483 190.6152,191.8615 193.123,196.0928 195.5317,199.6971 199.0906,203.1582 202.3897,207.0543 205.0125,210.7364 207.9621,214.0867 211.4615,218.1868 214.2574,221.7449 214.982,222.8289 A2.9062,2.9062 0 0 1 210.158,226.0711 T208.2856,223.5645 204.4821,218.971 201.3237,215.2678 198.6227,211.4969 195.4091,207.7868 191.9612,204.6118 188.9849,200.819 186.369,196.6831 183.7117,192.8874 180.3387,189.159 175.6235,185.3776 170.6922,182.1811 166.8433,179.5549 162.7701,176.7712 158.6418,174.0029 155.1161,170.6909 151.3682,167.2259 147.4364,163.9386 143.5165,160.6318 139.8261,157.421 136.5082,154.0713 133.074,150.479 129.1283,146.5201 125.1921,142.5936 121.3749,138.9048 118.0653,135.5441 114.6603,131.8846 110.715,127.9287 106.7383,124.0168 102.8008,119.9764 99.5938,116.3402 96.9409,113.1186 93.6094,109.6053 89.5479,106.0155 86.155,102.6554 82.852,99.0643 78.2974,94.9701 74.473,91.3046 71.7209,88.3369 69.0053,84.9209 66.4179,81.204 63.2901,77.1472 59.7857,72.5787 56.4404,68.5278 53.3036,65.3535 50.7103,62.2263 48.1398,58.6976 45.306,55.1639 42.8469,51.6431 39.7972,47.8529 35.7386,43.579 31.6744,39.325 27.7395,35.3448 23.838,31.3578 20.109,27.0886 16.892,22.635 14.1174,18.5289 10.6047,14.3373 6.8021,10.6064 2.8563,6.9103 -0.7105,3.1283 -1.9696,1.5757 A2.5223,2.5223 0 0 1 1.9696,-1.5757 Z" stroke-linecap="round" fill="#40c057"/></g></g><g transform="matrix(1, 0, 0, 1, 1712.9305, 17974.5401)" opacity="1"><g transform="scale(1)"><path d="M-1.903,1.3593 T-3.433,-0.8489 -5.6671,-6.6277 -4.3912,-11.7334 0.8592,-13.2755 6.1686,-11.6016 9.4114,-7.6201 9.9953,-2.6584 7.8529,1.3249 3.6532,3.0398 -1.5185,2.0305 -4.6017,-2.1977 -3.8928,-6.9492 -0.6904,-9.8935 4.207,-10.3855 8.8613,-7.5679 9.5339,-2.5629 6.0371,1.5267 0.6295,2.8977 -4.5266,1.2279 -7.6474,-2.4865 -7.2322,-7.0484 -4.0998,-11.0223 0.3066,-13.2127 5.4902,-12.6597 9.4544,-9.5272 9.6802,-4.9211 5.7664,-1.3347 1.6832,-0.3196 0.405,-0.1349 A2.5376,2.5376 0 0 1 -0.405,-5.1451 T2.0281,-6.4477 2.4642,-8.0338 -1.6436,-6.9039 -2.4758,-3.7177 1.3206,-1.9747 3.9614,-4.3062 1.9994,-5.8629 0.3048,-3.1554 3.3193,-1.9956 5.2812,-4.9381 2.9602,-8.1851 0.0106,-7.4881 0.3112,-3.5216 1.903,-1.3593 A2.3386,2.3386 0 0 1 -1.903,1.3593 Z" stroke-linecap="round" fill="#40c057"/></g></g><g transform="matrix(1, 0, 0, 1, 1719.532, 18040.5549)" opacity="1"><g transform="scale(1)"><path d="M 0 0 m -3.663919189857866, 0 a 3.663919189857866,3.663919189857866 0 1,1 7.327838379715732,0 a 3.663919189857866,3.663919189857866 0 1,1 -7.327838379715732,0" stroke-linecap="round" fill="#40c057"/></g></g><g transform="matrix(1, 0, 0, 1, 1724.8132, 18029.9925)" opacity="1"><g transform="scale(1)"><path d="M1.6664,1.6664 T0.4139,2.8872 -2.0186,6.2006 -3.6116,10.9361 -3.7691,16.1838 -2.8348,20.6696 -1.4114,23.8947 -0.6669,25.2388 A2.2945,2.2945 0 0 1 -4.6131,27.5812 T-6.3291,24.6983 -8.4698,19.0814 -8.6937,13.5244 -7.7787,8.2425 -5.6104,3.3352 -2.9113,-0.3898 -1.6664,-1.6664 A2.3567,2.3567 0 0 1 1.6664,1.6664 Z" stroke-linecap="round" fill="#40c057"/></g></g><g transform="matrix(1, 0, 0, 1, 1719.532, 18040.5549)" opacity="1"><g transform="scale(1)"><path d="M0,-2.7981 T1.5478,-2.7737 5.2851,-3.1957 10.169,-3.7826 15.2,-3.9664 19.9362,-4.0314 24.5829,-4.0689 29.0265,-4.5708 34.4979,-5.7204 40.1521,-6.573 44.7705,-7.2924 49.7304,-8.0051 55.1118,-8.2551 60.4183,-8.3567 65.2324,-8.4127 69.91,-8.4574 75.3979,-8.1427 80.739,-7.6134 85.6614,-7.3747 90.3632,-7.321 95.0053,-7.321 99.8104,-7.3345 104.7039,-6.8668 109.6977,-6.2866 114.68,-6.1603 119.8795,-6.1387 125.1372,-6.1449 130.4218,-6.153 135.9175,-5.6651 140.8617,-5.0311 145.6296,-4.2959 150.6711,-3.6328 155.6158,-3.5367 160.4995,-3.51 165.1928,-3.5107 170.1558,-3.5179 175.5638,-3.0335 180.8686,-2.4321 185.4654,-2.2882 190.078,-2.2578 195.1725,-2.2645 200.4051,-2.2789 205.6732,-2.2965 210.4732,-2.3139 215.1432,-2.3273 220.2537,-2.3416 226.0683,-2.8161 231.9792,-3.4408 237.33,-3.6433 242.6275,-3.6989 247.9156,-3.7159 253.1978,-3.7205 258.0017,-3.7182 263.1128,-3.3484 268.7613,-2.3843 273.7153,-1.5365 278.7148,-0.7049 284.6314,0.0509 290.3906,-0.1916 295.5733,-0.7616 300.7798,-0.948 305.7102,-0.9928 310.4158,-1.0061 315.6854,-1 320.3583,-0.9768 322.1494,-0.9637 A3.6037,3.6037 0 0 1 322.1506,6.2437 T318.7524,6.2715 312.8519,6.2971 308.2036,6.2989 303.4826,6.3247 298.5134,6.4089 293.245,7.0156 287.722,7.5352 282.727,7.3429 277.8524,6.6229 272.3181,5.6808 266.8061,4.7599 262.233,3.973 258.0027,3.719 253.2013,3.7233 247.9283,3.7259 242.6735,3.735 237.4988,3.7733 231.7614,4.0089 225.7177,4.6024 220.2537,4.9816 215.1431,4.9673 210.4729,4.9537 205.6722,4.9357 200.4016,4.9161 195.1599,4.8945 190.0291,4.8616 185.3038,4.798 180.3079,4.6036 175.1028,3.9865 170.1314,3.5164 165.1843,3.505 160.4732,3.4895 155.5248,3.4629 150.3084,3.3669 145.0343,2.6659 140.1222,1.9225 135.4601,1.3378 130.3968,0.8702 125.1252,0.8548 119.8366,0.8225 114.5251,0.7501 109.1236,0.5378 103.2383,-0.1051 97.5162,-0.6021 92.538,-0.6388 87.771,-0.7146 82.6288,-0.9307 77.4204,-1.5779 72.4322,-2.0804 67.485,-2.1184 62.776,-2.1519 57.8474,-2.1711 52.721,-2.1281 48.0137,-1.8871 43.3999,-1.2664 38.8014,-0.6417 34.2998,0.0332 29.4288,0.9802 24.6192,1.439 19.9785,1.4275 15.3301,1.4565 10.6261,1.6111 5.6728,2.2423 1.574,2.7737 0,2.7981 A2.7981,2.7981 0 0 1 0,-2.7981 Z" stroke-linecap="round" fill="#40c057"/></g></g><g transform="matrix(1, 0, 0, 1, 1958.5057, 18111.8509)" opacity="1"><g transform="scale(1)"><path d="M2.2494,-0.7498 T2.9242,1.1076 4.2038,6.2906 4.8779,11.7349 5.0219,16.1114 5.0965,18.3692 A2.459,2.459 0 0 1 0.1835,18.5908 T-0.0589,14.4037 -0.7015,7.3719 -1.6755,2.6386 -2.2494,0.7498 A2.371,2.371 0 0 1 2.2494,-0.7498 Z" stroke-linecap="round" fill="#40c057"/></g></g><g transform="matrix(1, 0, 0, 1, 1959.8259, 18156.741)" opacity="1"><g transform="scale(1)"><path d="M2.4117,-0.2412 T2.7763,2.8754 3.3456,8.6168 3.668,13.5688 4.4741,19.5873 5.1627,23.2786 A2.5701,2.5701 0 0 1 0.1173,24.2614 T-0.3031,22.2185 -1.1277,18.1411 -1.5878,13.8395 -1.7678,9.0339 -2.1519,3.3682 -2.4117,0.2412 A2.4237,2.4237 0 0 1 2.4117,-0.2412 Z" stroke-linecap="round" fill="#40c057"/></g></g><g transform="matrix(1, 0, 0, 1, 2035.0828, 18109.2103)" opacity="1"><g transform="scale(1)"><path d="M2.3316,-0.7772 T2.9924,1.0861 4.0333,5.057 4.8261,9.7311 5.72,15.1774 6.201,18.0573 A2.2805,2.2805 0 0 1 1.719,18.9027 T1.118,16.0454 -0.3193,8.8655 -1.7436,2.6601 -2.3316,0.7772 A2.4577,2.4577 0 0 1 2.3316,-0.7772 Z" stroke-linecap="round" fill="#40c057"/></g></g><g transform="matrix(1, 0, 0, 1, 2023.2002, 18158.0613)" opacity="1"><g transform="scale(1)"><path d="M0,-3.0172 T2.1853,-3.0143 7.4171,-3.0259 13.6086,-0.3599 16.7164,4.4831 15.8328,8.7102 13.009,13.437 10.2651,18.0731 9.4985,20.0472 A3.1814,3.1814 0 0 1 3.2461,18.867 T4.5846,15.7599 7.6433,10.4442 9.8688,5.638 7.3722,3.0259 2.1853,3.0143 0,3.0172 A3.0172,3.0172 0 0 1 0,-3.0172 ZM7.2991,16.4137 T9.066,16.9221 13.2666,17.5517 18.7591,17.7889 23.4707,17.9608 25.1234,18.0167 A3.1035,3.1035 0 0 1 25.0566,24.2233 T23.403,24.2436 18.5793,24.2872 12.6048,24.0982 7.623,23.1932 5.4456,22.5005 A3.1814,3.1814 0 0 1 7.2991,16.4137 Z" stroke-linecap="round" fill="#40c057"/></g></g><g transform="matrix(1, 0, 0, 1, 2041.6843, 18033.9534)" opacity="1"><g transform="scale(1)"><path d="M2.3585,0 T2.3759,2.1884 2.075,6.3585 1.5461,11.6813 1.2459,17.4599 1.1563,19.8974 A2.4783,2.4783 0 0 1 -3.7963,19.7026 T-3.593,15.578 -2.8915,7.9089 -2.3759,2.1821 -2.3585,0 A2.3585,2.3585 0 0 1 2.3585,0 ZM-3.7979,19.7589 T-3.7669,18.2526 -3.7464,14.5096 -3.4028,8.877 -2.7201,2.6249 -2.3915,-0.2311 A2.4026,2.4026 0 0 1 2.3915,0.2311 T2.0286,3.3452 1.4062,9.3541 1.175,14.3146 1.1806,18.1107 1.1579,19.8411 A2.4783,2.4783 0 0 1 -3.7979,19.7589 ZM2.4012,0.0832 T2.3513,1.3851 2.3811,5.5357 2.4964,10.4626 2.2257,15.0538 1.5876,20.1781 1.2555,22.7894 A2.5978,2.5978 0 0 1 -3.8955,22.1106 T-3.5397,19.5024 -2.8727,14.7226 -2.5393,10.4878 -2.5104,5.7891 -2.4525,1.5352 -2.4012,-0.0832 A2.4026,2.4026 0 0 1 2.4012,0.0832 Z" stroke-linecap="round" fill="#40c057"/></g></g><g transform="matrix(1, 0, 0, 1, 2037.7234, 17930.9703)" opacity="1"><g transform="scale(1)"><path d="M-2.2447,-1.1224 T-1.5705,-2.4455 0.2973,-4.7308 1.4909,-5.693 A2.5495,2.5495 0 0 1 4.265,-1.4146 T3.8294,-1.3204 2.8192,-0.052 2.2447,1.1224 A2.5097,2.5097 0 0 1 -2.2447,-1.1224 ZM5.317,-4.2964 T5.5776,-3.4574 6.1281,-1.6834 6.4181,-0.7484 A2.5695,2.5695 0 0 1 1.5019,0.7484 T1.2216,-0.1895 0.6902,-1.9693 0.439,-2.8112 A2.5495,2.5495 0 0 1 5.317,-4.2964 Z" stroke-linecap="round" fill="#40c057"/></g></g><g transform="matrix(1, 0, 0, 1, 2041.6843, 17933.6109)" opacity="1"><g transform="scale(1)"><path d="M-1.4504,-0.9235 T-0.8167,-2.7954 1.1902,-7.459 3.4739,-12.1817 5.561,-16.4076 7.962,-20.509 10.4241,-25.1003 12.5983,-30.1291 14.6867,-35.3714 16.4957,-40.9616 18.0031,-45.6552 19.9584,-50.4828 21.7309,-55.4742 23.0792,-59.8655 24.3931,-64.429 25.6469,-69.6801 27.0604,-75.2868 28.5447,-80.313 29.889,-85.032 31.1181,-90.1051 32.3166,-96.1078 33.6599,-102.8044 35.027,-109.3466 36.2294,-115.3193 37.0343,-120.6753 37.8397,-126.6102 38.8355,-131.9292 39.9505,-136.7051 40.877,-141.6942 41.5706,-146.8597 42.2328,-152.2953 43.0256,-157.2103 44.0605,-162.7912 45.1452,-169.0397 46.0335,-174.2198 46.7972,-178.8568 47.8628,-183.6602 49.0788,-188.7094 49.9689,-194.021 50.7673,-198.9904 51.9555,-204.39 53.1278,-209.8697 54.2516,-215.3475 55.077,-220.9773 55.7249,-227.5639 56.3565,-235.1257 57.0028,-242.2594 57.6396,-248.4195 57.9203,-253.5323 58.3463,-259.2578 58.9311,-264.8835 59.2133,-270.0374 59.7613,-276.2725 60.4857,-281.9545 60.7229,-284.2068 A3.9822,3.9822 0 0 1 68.6571,-283.5132 T68.5697,-282.3946 68.1032,-278.968 67.5401,-274.6814 67.2741,-269.6412 66.8994,-263.7821 66.3037,-258.4015 65.9119,-253.1447 65.496,-247.2404 64.8093,-241.1946 64.3386,-236.3368 64.0122,-232.1949 63.3907,-226.6027 62.5591,-219.6659 61.4905,-213.1792 60.4121,-208.1734 59.336,-203.3686 57.9881,-196.6434 56.6232,-190.0875 55.3287,-184.5887 54.1112,-178.6457 53.1289,-172.8136 52.1392,-167.2791 51.0796,-161.3478 50.0749,-156.2174 49.2044,-151.0998 48.4957,-145.6524 47.6855,-140.2964 46.6303,-134.8642 45.3758,-128.8387 44.2587,-122.2384 43.1389,-116.5469 41.8163,-110.1949 40.4725,-103.3083 39.2728,-97.8839 38.3308,-93.0157 37.5052,-88.3396 36.3908,-83.768 34.9779,-78.9747 33.4002,-73.7802 31.8391,-67.8006 30.4328,-62.2384 29.0342,-57.6036 27.4816,-52.9223 25.6748,-48.0913 23.8557,-43.8305 22.0978,-38.7664 20.2261,-33.2524 18.1751,-28.2237 15.7437,-22.6694 13.1056,-17.8114 10.8743,-14.1932 8.8285,-10.0531 6.5299,-5.25 4.7054,-0.9508 4.0904,0.9235 A2.9203,2.9203 0 0 1 -1.4504,-0.9235 Z" stroke-linecap="round" fill="#40c057"/></g></g><g transform="matrix(1, 0, 0, 1, 2231.807, 17672.1922)" opacity="1"><g transform="scale(1)"><path d="M-0.5054,3.0327 T-2.3715,2.6786 -7.0259,1.6903 -13.0216,0.8101 -18.5882,0.9661 -23.6576,2.202 -28.3281,4.186 -33.0254,7.29 -37.4965,10.5071 -41.1931,13.5371 -44.7537,16.6713 -49.0757,19.0121 -51.7994,19.9854 A3.0007,3.0007 0 0 1 -53.8206,14.3346 T-52.1647,13.7414 -48.7676,11.6265 -45.0152,8.3343 -41.3521,5.3922 -38.1129,3.005 -33.8024,0.2268 -28.3416,-2.5875 -23.6386,-4.2217 -18.8205,-4.9773 -12.0397,-4.9544 -5.6831,-4.0658 -1.3747,-3.3029 0.5054,-3.0327 A3.0745,3.0745 0 0 1 -0.5054,3.0327 Z" stroke-linecap="round" fill="#40c057"/></g></g><g transform="matrix(1, 0, 0, 1, 2176.3546, 17681.4343)" opacity="1"><g transform="scale(1)"><path d="M3.1899,2.596 T2.5283,4.1385 0.8824,8.1231 -0.4595,12.888 1.5856,15.5241 7.3985,16.2181 10.8087,16.5987 A3.2109,3.2109 0 0 1 10.3113,23.0013 T8.3402,22.9187 3.1277,22.3816 -2.5772,20.6012 -5.9556,16.0738 -6.2622,10.0143 -5.0091,5.1795 -3.777,1.6233 -3.1899,0.044 A3.4356,3.4356 0 0 1 3.1899,2.596 Z" stroke-linecap="round" fill="#40c057"/></g></g><g transform="matrix(1, 0, 0, 1, 2267.455, 17655.0284)" opacity="1"><g transform="scale(1)"><path d="M-2.6594,-1.3297 T-1.7082,-3.1611 -1.3003,-7.4296 -1.8436,-9.8668 A2.8988,2.8988 0 0 1 3.5029,-12.1088 T4.3107,-9.4102 4.8109,-4.6058 3.5813,-0.5851 2.6594,1.3297 A2.9733,2.9733 0 0 1 -2.6594,-1.3297 ZM2.1338,-8.399 T1.317,-7.9838 -1.0374,-5.556 -3.4112,-1.0208 -4.4699,4.7381 -4.4505,11.0075 -3.2434,16.7318 -1.614,21.539 -0.6903,27.4647 -1.4717,34.3146 -4.3606,39.9499 -8.9729,43.9215 -14.9744,45.8353 -21.028,44.8456 -24.6802,39.9681 -25.361,35.3755 -25.2064,34.1332 A2.7634,2.7634 0 0 1 -19.6936,34.5268 T-19.2025,36.9333 -16.6254,39.316 -12.6479,38.5381 -9.5703,36.1399 -7.6157,32.5712 -6.9369,28.0627 -7.5729,23.5712 -9.1899,18.3416 -10.5478,12.9582 -10.653,7.3648 -9.7985,0.2915 -7.5725,-6.1709 -4.071,-10.9227 -1.2988,-13.1651 -0.4744,-13.5767 A2.8988,2.8988 0 0 1 2.1338,-8.399 Z" stroke-linecap="round" fill="#40c057"/></g></g><g transform="matrix(1, 0, 0, 1, 2271.4159, 17674.8328)" opacity="1"><g transform="scale(1)"><path d="M0.7655,2.2966 T-1.0921,2.9671 -6.5166,4.6886 -12.2783,5.5786 -16.5619,5.2251 -18.6509,5.0329 A2.399,2.399 0 0 1 -18.3091,0.2471 T-14.6534,0.4607 -7.7702,-0.2329 -2.6541,-1.7183 -0.7655,-2.2966 A2.4209,2.4209 0 0 1 0.7655,2.2966 Z" stroke-linecap="round" fill="#40c057"/></g></g><g transform="matrix(1, 0, 0, 1, 2287.2595, 17652.3878)" opacity="1"><g transform="scale(1)"><path d="M2.6179,1.8699 T1.0479,4.0479 -2.184,9.1343 -5.2855,15.3747 -7.4585,21.0146 -8.5419,25.3457 -9.1772,30.997 -8.1198,36.2125 -5.6725,38.7541 -4.5678,39.7084 A3.2542,3.2542 0 0 1 -8.6322,44.7916 T-9.8062,43.9239 -13.3759,40.3895 -15.9474,34.1497 -15.8555,28.3266 -15.0761,23.6414 -13.6625,18.6087 -11.0975,12.4042 -7.5778,5.6562 -4.1697,0.3227 -2.6179,-1.8699 A3.2171,3.2171 0 0 1 2.6179,1.8699 Z" stroke-linecap="round" fill="#40c057"/></g></g><g transform="matrix(1, 0, 0, 1, 2304.4233, 17668.2313)" opacity="1"><g transform="scale(1)"><path d="M2.253,2.6074 T1.0621,4.8258 -1.4112,9.1855 -5.135,14.0816 -10.1312,19.7489 -12.686,22.6614 A2.3957,2.3957 0 0 1 -16.354,19.5786 T-13.9246,16.5607 -9.4631,10.9749 -6.1485,6.3719 -3.5595,2.1848 -2.253,0.0326 A2.5949,2.5949 0 0 1 2.253,2.6074 Z" stroke-linecap="round" fill="#40c057"/></g></g><g transform="matrix(1, 0, 0, 1, 2289.9, 17672.1922)" opacity="1"><g transform="scale(1)"><path d="M2.6307,-1.3153 T3.5988,0.5419 6.7256,5.9134 10.684,11.7243 14.4759,14.91 17.9605,16.3624 19.4529,16.9258 A3.0344,3.0344 0 0 1 17.5071,22.6742 T14.272,21.6509 9.252,19.4227 5.4982,15.5601 1.3543,8.9978 -1.7257,3.2042 -2.6307,1.3153 A2.9412,2.9412 0 0 1 2.6307,-1.3153 Z" stroke-linecap="round" fill="#40c057"/></g></g><g transform="matrix(1, 0, 0, 1, 2317.6263, 17655.0284)" opacity="1"><g transform="scale(1)"><path d="M2.9547,-1.4773 T4.2017,1.021 6.4262,5.4601 8.0304,9.2892 9.7412,17.4202 10.7563,26.9783 9.991,33.5325 8.5632,38.8213 6.3478,43.9286 2.4247,49.3136 -0.0147,51.6415 A3.8321,3.8321 0 0 1 -5.2653,46.0585 T-3.037,43.596 0.4765,38.0268 2.4729,32.4107 3.4163,27.0485 3.5165,20.4978 2.4282,13.5754 0.5092,8.4107 -1.7042,3.9739 -2.9547,1.4773 A3.3034,3.3034 0 0 1 2.9547,-1.4773 Z" stroke-linecap="round" fill="#40c057"/></g></g><g transform="matrix(1, 0, 0, 1, 2348.7961, 17660.7859)" opacity="1"><g transform="scale(1)"><path d="M0.4165,-2.9087 T2.3786,-2.6645 7.058,-2.6414 11.3377,-2.9294 12.9,-2.9964 A3.0002,3.0002 0 0 1 13.2,2.9964 T11.6388,3.0857 6.7991,3.3606 1.5521,3.2274 -0.4165,2.9087 A2.9383,2.9383 0 0 1 0.4165,-2.9087 Z" stroke-linecap="round" fill="#40c057"/></g></g><g transform="matrix(1, 0, 0, 1, 2347.6095, 17673.8385)" opacity="1"><g transform="scale(1)"><path d="M0,-2.6731 T1.9653,-2.7555 7.9003,-2.8747 11.87,-2.9116 A2.9116,2.9116 0 0 1 11.87,2.9116 T7.9003,2.8747 1.9653,2.7555 0,2.6731 A2.6731,2.6731 0 0 1 0,-2.6731 Z" stroke-linecap="round" fill="#40c057"/></g></g><g transform="matrix(1, 0, 0, 1, 2419.9919, 17591.9633)" opacity="1"><g transform="scale(1)"><path d="M-1.2384,-0.6926 T-0.6722,-2.6557 0.3036,-7.4002 0.402,-12.4854 -1.0454,-17.063 -4.1862,-20.9376 -8.3138,-22.7291 -11.4024,-20.8982 -13.0704,-15.9922 -14.3089,-10.8776 -14.9577,-5.9955 -15.0972,-0.8633 -15.1179,4.4461 -15.1058,9.9237 -15.091,15.0207 -15.0711,20.5721 -14.796,26.1096 -14.2647,31.3515 -13.686,36.2019 -13.0799,41.5829 -12.7036,48.3965 -12.593,55.125 -12.8639,61.3079 -13.6753,66.5992 -15.3093,71.5144 -18.2266,75.9846 -23.0475,78.4192 -28.1692,77.3522 -30.933,72.9316 -31.6016,70.0965 A2.9289,2.9289 0 0 1 -25.7936,70.8588 T-24.7108,72.0664 -22.1563,71.4977 -19.9166,67.4006 -18.7364,63.0769 -18.3266,58.257 -18.3505,51.9801 -18.4818,45.3398 -19.0472,39.4526 -19.6069,34.6006 -20.1321,29.4869 -20.5407,23.4743 -20.5164,17.7362 -20.4947,12.5208 -20.4637,7.0951 -20.4053,1.4414 -20.2783,-4.0022 -19.8558,-9.1954 -19.0755,-13.9763 -17.5394,-19.4195 -15.0392,-24.559 -11.3172,-27.3827 -6.2748,-27.5516 -1.3387,-25.2828 2.106,-21.8569 4.2319,-17.6394 5.4153,-12.4637 5.2205,-6.4569 4.1732,-1.2749 3.6184,0.6926 A2.5252,2.5252 0 0 1 -1.2384,-0.6926 ZM-29.3046,67.6124 T-27.3566,67.2706 -23.1225,68.737 -19.9427,72.7935 -18.8086,77.7765 -18.5028,82.9975 -18.737,88.1007 -19.6504,93.2131 -21.233,98.6136 -22.8702,103.5244 -24.1737,107.591 -25.3041,112.2406 -26.3882,117.3605 -27.2215,122.5859 -27.8486,127.9052 -28.4096,133.7698 -28.6105,139.121 -28.3893,143.5763 -27.2995,148.1452 -24.7141,152.0588 -21.0676,154.7266 -16.5147,156.5689 -10.4208,157.7784 -6.9725,158.1248 A3.2586,3.2586 0 0 1 -7.2675,164.6352 T-9.1761,164.6455 -14.3017,164.4946 -19.6794,163.4567 -24.8276,160.8358 -30.2797,156.1971 -33.7481,150.2918 -34.998,144.1867 -35.1751,138.9063 -34.7835,132.924 -34.1062,126.9606 -33.3693,121.5193 -32.3862,115.7747 -31.0841,110.2382 -29.7856,105.2517 -28.5075,101.3288 -27.0125,97.0571 -25.2763,91.2649 -24.379,85.6639 -24.5046,81.2302 -25.3011,75.8161 -27.0439,73.0503 -28.0906,73.3429 A2.9289,2.9289 0 0 1 -29.3046,67.6124 Z" stroke-linecap="round" fill="#40c057"/></g></g><g transform="matrix(1, 0, 0, 1, 2440.1641, 17593.1499)" opacity="1"><g transform="scale(1)"><path d="M0.7658,-1.7875 T2.7571,-1.0132 8.0223,0.102 13.3373,0.4165 15.3785,0.3902 A1.9805,1.9805 0 0 1 15.4815,4.3498 T13.4416,4.4296 9.3123,4.5586 5.1678,4.1072 1.1735,2.6971 -0.7658,1.7875 A1.9447,1.9447 0 0 1 0.7658,-1.7875 Z" stroke-linecap="round" fill="#40c057"/></g></g><g transform="matrix(1, 0, 0, 1, 2501.8671, 17582.4705)" opacity="1"><g transform="scale(1)"><path d="M2.2267,1.9499 T0.2933,4.2221 -3.537,8.5607 -6.9884,12.2801 -10.3211,15.4572 -15.0861,18.8943 -19.5707,21.6783 -21.0681,22.5489 A2.8027,2.8027 0 0 1 -24.0319,17.7911 T-22.5903,16.8309 -18.6284,14.0818 -14.5686,10.9778 -11.4836,8.0561 -8.0796,4.4663 -4.2239,0.2666 -2.2267,-1.9499 A2.9598,2.9598 0 0 1 2.2267,1.9499 Z" stroke-linecap="round" fill="#40c057"/></g></g><g transform="matrix(1, 0, 0, 1, 2484.0682, 17586.0303)" opacity="1"><g transform="scale(1)"><path d="M2.3866,-1.9117 T3.4978,-0.4996 6.6078,3.0744 10.8153,6.9761 15.4684,10.3703 20.0219,13.3475 23.604,15.4481 25.077,16.2262 A3.0746,3.0746 0 0 1 22.383,21.7538 T20.8626,21.0729 16.8616,18.9886 11.5679,15.6045 6.4035,11.5329 1.9684,7.0697 -1.2511,3.3045 -2.3866,1.9117 A3.0579,3.0579 0 0 1 2.3866,-1.9117 Z" stroke-linecap="round" fill="#40c057"/></g></g><g transform="matrix(1, 0, 0, 1, 2467.4558, 17644.1735)" opacity="1"><g transform="scale(1)"><path d="M2.7933,-0.28 T3.1017,2.5245 3.5882,7.7003 3.8759,12.4593 4.0594,18.4663 4.1531,24.0798 4.1731,26.0738 A2.9833,2.9833 0 0 1 -1.7931,26.1462 T-1.8215,24.1522 -1.9019,18.6016 -2.0006,12.744 -2.1658,8.1714 -2.5388,3.09 -2.7933,0.28 A2.8073,2.8073 0 0 1 2.7933,-0.28 Z" stroke-linecap="round" fill="#40c057"/></g></g><g transform="matrix(1, 0, 0, 1, 2466.2692, 17639.4272)" opacity="1"><g transform="scale(1)"><path d="M1.7385,2.6059 T0.0672,3.7459 -3.4436,6.516 -6.9918,9.4137 -11.5726,12.433 -15.9105,15.0131 -17.3762,15.8416 A3.2245,3.2245 0 0 1 -20.6038,10.2584 T-17.9182,8.6696 -12.3641,5.1401 -7.3135,1.4035 -3.435,-1.4992 -1.7385,-2.6059 A3.1326,3.1326 0 0 1 1.7385,2.6059 Z" stroke-linecap="round" fill="#40c057"/></g></g><g transform="matrix(1, 0, 0, 1, 2476.9486, 17675.0251)" opacity="1"><g transform="scale(1)"><path d="M0,3.408 T-1.4024,3.4413 -6.2094,3.5623 -12.5562,3.7025 -18.887,3.7171 -24.1927,3.627 -26.11,3.5746 A3.5746,3.5746 0 0 1 -26.11,-3.5746 T-24.1927,-3.627 -18.887,-3.7171 -12.5562,-3.7025 -6.2094,-3.5623 -1.4024,-3.4413 0,-3.408 A3.408,3.408 0 0 1 0,3.408 Z" stroke-linecap="round" fill="#40c057"/></g></g><g transform="matrix(1, 0, 0, 1, 2453.2166, 17718.9292)" opacity="1"><g transform="scale(1)"><path d="M2.9155,1.6665 T1.8425,3.6618 -0.4466,7.4335 -4.0807,12.1125 -8.6144,17.2565 -12.0137,20.4411 -13.2976,21.3843 A3.6655,3.6655 0 0 1 -17.6811,15.5082 T-16.0057,13.9748 -12.0089,10.0174 -7.4752,4.8988 -4.0892,0.2688 -2.9155,-1.6665 A3.3582,3.3582 0 0 1 2.9155,1.6665 ZM-16.4766,21.9763 T-17.6162,21.597 -18.7559,21.2177 A3.5488,3.5488 0 0 1 -16.8441,14.3823 T-15.6731,14.6493 -14.502,14.9162 A3.6655,3.6655 0 0 1 -16.4766,21.9763 Z" stroke-linecap="round" fill="#40c057"/></g></g><g transform="matrix(1, 0, 0, 1, 2434.2311, 17721.3024)" opacity="1"><g transform="scale(1)"><path d="M2.7177,-1.6316 T3.582,-0.243 6.5555,3.5149 11.3161,8.5343 16.3219,13.1314 20.9474,16.9046 23.2183,18.731 A3.2195,3.2195 0 0 1 19.5017,23.989 T18.1105,23.1221 14.1725,20.354 8.9659,15.947 4.9612,11.9469 1.2688,7.4583 -1.8981,3.0478 -2.7177,1.6316 A3.1699,3.1699 0 0 1 2.7177,-1.6316 Z" stroke-linecap="round" fill="#40c057"/></g></g><g transform="matrix(1, 0, 0, 1, 2461.5228, 17698.757)" opacity="1"><g transform="scale(1)"><path d="M1.19,-3.218 T3.7185,-3.2531 8.3828,-3.0127 13.8375,-1.0898 17.9459,3.4821 17.1624,8.4488 13.6291,12.6229 11.6691,14.7549 A3.3058,3.3058 0 0 1 6.1763,11.0748 T7.0356,9.7975 9.9828,6.5475 9.1536,3.9315 3.7132,3.2531 1.19,3.218 A3.218,3.218 0 0 1 1.19,-3.218 ZM11.5401,10.8955 T12.3525,11.9394 15.6735,13.3969 21.6714,14.1445 25.1606,14.4782 A3.3305,3.3305 0 0 1 24.6794,21.1218 T20.937,20.9318 15.103,20.3606 10.678,18.7877 7.325,16.2651 6.3053,14.9341 A3.3058,3.3058 0 0 1 11.5401,10.8955 Z" stroke-linecap="round" fill="#40c057"/></g></g><g transform="matrix(1, 0, 0, 1, 2533.9052, 17601.456)" opacity="1"><g transform="scale(1)"><path d="M2.011,1.3416 T0.9137,3.0479 -2.7387,7.4325 -5.2939,10.1107 A2.5646,2.5646 0 0 1 -8.9461,6.5093 T-6.628,4.2453 -3.1604,0.3198 -2.011,-1.3416 A2.4174,2.4174 0 0 1 2.011,1.3416 Z" stroke-linecap="round" fill="#40c057"/></g></g><g transform="matrix(1, 0, 0, 1, 2594.4217, 17583.6571)" opacity="1"><g transform="scale(1)"><path d="M2.7928,-0.3112 T3.1879,2.202 3.9357,8.1121 4.3855,13.3934 4.4828,15.2779 A3.2963,3.2963 0 0 1 -2.1028,15.5821 T-2.1797,13.6968 -2.357,8.5998 -2.625,2.8497 -2.7928,0.3112 A2.81,2.81 0 0 1 2.7928,-0.3112 ZM-2.0675,14.9258 T-1.6641,12.8498 0.4497,8.0886 4.138,2.6613 8.6879,-1.9671 13.4584,-3.3565 16.8612,-1.0771 18.3412,4.3084 18.4093,9.4187 18.2016,10.9263 A2.7825,2.7825 0 0 1 12.6584,10.4337 T12.7198,8.913 11.7686,5.4494 9.0253,6.1774 5.9773,11.1736 4.5539,14.7165 4.4475,15.9342 A3.2963,3.2963 0 0 1 -2.0675,14.9258 Z" stroke-linecap="round" fill="#40c057"/></g></g><g transform="matrix(1, 0, 0, 1, 2625.2732, 17583.6571)" opacity="1"><g transform="scale(1)"><path d="M2.6334,1.5809 T1.7967,2.9865 -0.8872,7.2126 -2.9513,10.8208 -3.1682,11.6085 A3.2009,3.2009 0 0 1 -9.1679,9.3756 T-8.5303,7.8675 -6.1103,3.7885 -3.4806,-0.1817 -2.6334,-1.5809 A3.0715,3.0715 0 0 1 2.6334,1.5809 ZM-3.3685,8.9401 T-3.0332,9.5451 -2.6978,10.15 A3.2009,3.2009 0 0 1 -8.2968,13.2539 T-8.6322,12.649 -8.9675,12.044 A3.2009,3.2009 0 0 1 -3.3685,8.9401 ZM-6.6472,8.7147 T-5.0359,8.1398 -1.0312,6.3848 1.3622,5.2048 A3.0541,3.0541 0 0 1 2.8799,11.1214 T1.0348,12.1793 -2.5789,13.9632 -4.3474,14.6892 A3.2009,3.2009 0 0 1 -6.6472,8.7147 ZM4.6548,6.4579 T5.4052,7.5587 8.5934,9.9449 12.1223,11.3456 13.2135,11.4609 A2.7839,2.7839 0 0 1 12.8865,17.0191 T11.7893,17.0056 8.1724,16.631 3.4717,14.3491 0.4391,11.1483 -0.4127,9.8682 A3.0541,3.0541 0 0 1 4.6548,6.4579 Z" stroke-linecap="round" fill="#40c057"/></g></g><g transform="matrix(1, 0, 0, 1, 2646.632, 17597.8963)" opacity="1"><g transform="scale(1)"><path d="M-2.8332,-0.947 T-2.5566,-1.7206 -3.4792,-5.1744 -4.0779,-10.9457 -0.4618,-15.3565 6.4124,-16.2708 12.0948,-15.3031 13.9186,-14.7411 A2.9996,2.9996 0 0 1 12.1814,-8.9989 T9.233,-9.9723 3.5226,-10.8127 1.5396,-8.5917 2.8622,-3.6886 3.1195,0.0367 2.8332,0.947 A2.9873,2.9873 0 0 1 -2.8332,-0.947 Z" stroke-linecap="round" fill="#40c057"/></g></g><g transform="matrix(1, 0, 0, 1, 2621.7134, 17562.2983)" opacity="1"><g transform="scale(1)"><path d="M0.4072,-2.4362 T2.1294,-2.1807 6.6378,0.0378 9.4239,2.0008 A2.6708,2.6708 0 0 1 5.5672,5.6964 T4.2255,4.3737 1.2383,2.7435 -0.4072,2.4362 A2.47,2.47 0 0 1 0.4072,-2.4362 ZM10.1489,4.1532 T10.0274,5.0352 7.5502,7.6095 3.0236,9.4458 -1.4778,8.2597 -3.8083,6.9297 A2.6115,2.6115 0 0 1 -0.9317,2.5703 T-0.0267,3.142 2.8041,4.2943 4.786,4.2094 4.8422,3.544 A2.6708,2.6708 0 0 1 10.1489,4.1532 Z" stroke-linecap="round" fill="#40c057"/></g></g><g transform="matrix(1, 0, 0, 1, 2741.5597, 17576.5375)" opacity="1"><g transform="scale(1)"><path d="M1.8977,1.5805 T0.5331,3.2959 -2.1377,6.5234 -6.154,10.7813 -11.7467,15.753 -16.0649,18.9518 -17.5008,19.9246 A2.5945,2.5945 0 0 1 -20.4792,15.6754 T-19.0749,14.6575 -15.3031,11.7564 -11.2893,8.077 -7.2107,4.0024 -3.3379,0.0718 -1.8977,-1.5805 A2.4697,2.4697 0 0 1 1.8977,1.5805 Z" stroke-linecap="round" fill="#40c057"/></g></g><g transform="matrix(1, 0, 0, 1, 2723.7608, 17576.5375)" opacity="1"><g transform="scale(1)"><path d="M2.5187,-1.4397 T3.6787,0.5047 6.4482,5.0549 10.0561,9.8973 14.7111,14.3977 17.3677,16.6616 A3.0292,3.0292 0 0 1 13.4923,21.3184 T10.4821,18.8665 5.177,13.7453 1.2685,8.2441 -1.4319,3.4259 -2.5187,1.4397 A2.9011,2.9011 0 0 1 2.5187,-1.4397 Z" stroke-linecap="round" fill="#40c057"/></g></g><g transform="matrix(1, 0, 0, 1, 2771.2247, 17570.6045)" opacity="1"><g transform="scale(1)"><path d="M2.8178,2.2571 T1.6495,3.6291 -2.881,7.4166 -8.0518,11.2072 -7.0446,13.7161 -3.1576,15.3611 -2.0863,15.8723 A3.4485,3.4485 0 0 1 -5.0337,22.1077 T-6.1088,21.6044 -9.1361,20.1735 -13.2526,17.1119 -15.2889,11.9885 -12.4722,6.6261 -7.3791,2.4309 -3.8963,-0.8242 -2.8178,-2.2571 A3.6103,3.6103 0 0 1 2.8178,2.2571 Z" stroke-linecap="round" fill="#40c057"/></g></g><g transform="matrix(1, 0, 0, 1, 2770.0381, 17602.6426)" opacity="1"><g transform="scale(1)"><path d="M0.4394,3.0682 T-1.515,3.427 -6.7209,4.0162 -12.8156,2.9153 -15.6586,1.5842 A3.1159,3.1159 0 0 1 -12.8214,-3.9642 T-11.3509,-3.0895 -7.1362,-2.4375 -2.4157,-2.8642 -0.4394,-3.0682 A3.0995,3.0995 0 0 1 0.4394,3.0682 Z" stroke-linecap="round" fill="#40c057"/></g></g><g transform="matrix(1, 0, 0, 1, 2794.9566, 17572.9777)" opacity="1"><g transform="scale(1)"><path d="M-0.3696,-2.9474 T1.9042,-3.2661 6.4663,-3.1582 10.4988,-1.6913 13.3793,1.3032 14.3959,5.5536 12.7191,10.7796 9.4264,16.1681 5.7678,20.3706 3.8447,22.1143 A3.1307,3.1307 0 0 1 -0.3401,17.4568 T0.5033,16.7396 2.7561,14.5397 5.6005,10.8438 7.7743,6.465 6.6564,3.3792 2.5845,2.7032 0.3696,2.9474 A2.9705,2.9705 0 0 1 -0.3696,-2.9474 ZM4.6642,18.6356 T4.9838,19.5382 7.6572,20.7416 12.3761,21.586 16.4744,22.385 18.2076,22.6402 A3.4937,3.4937 0 0 1 17.3924,29.5798 T15.6472,29.4264 11.4844,28.754 6.408,27.5143 1.9842,25.5167 -0.4701,22.5877 -1.1595,20.9355 A3.1307,3.1307 0 0 1 4.6642,18.6356 Z" stroke-linecap="round" fill="#40c057"/></g></g><g transform="matrix(1, 0, 0, 1, 2501.8671, 17679.7715)" opacity="1"><g transform="scale(1)"><path d="M2.2431,1.3466 T1.4476,2.7769 -0.8248,6.9404 -2.3019,9.6735 A2.8022,2.8022 0 0 1 -7.1981,6.9465 T-5.6091,4.1745 -3.1315,0.0279 -2.2431,-1.3466 A2.6163,2.6163 0 0 1 2.2431,1.3466 Z" stroke-linecap="round" fill="#40c057"/></g></g><g transform="matrix(1, 0, 0, 1, 2586.1155, 17654.8529)" opacity="1"><g transform="scale(1)"><path d="M3.1105,0 T3.173,2.2444 3.1318,8.3382 3.0281,12.1877 A3.3341,3.3341 0 0 1 -3.6214,11.6894 T-3.4285,8.0891 -3.173,2.2444 -3.1105,0 A3.1105,3.1105 0 0 1 3.1105,0 ZM-2.1537,9.1696 T-0.9775,8.4205 2.0849,5.8806 6.5287,3.1201 9.0862,2.1505 A3.2329,3.2329 0 0 1 10.7644,8.3948 T9.3326,8.7844 5.7492,11.2179 2.579,13.9847 1.5604,14.7076 A3.3341,3.3341 0 0 1 -2.1537,9.1696 ZM11.5706,2.4897 T12.3815,2.9705 14.8954,6.0797 16.8835,10.7143 17.3607,14.4683 17.5528,16.2161 A3.3361,3.3361 0 0 1 10.9272,17.0039 T10.7041,15.2597 10.0476,11.1786 8.9471,8.4486 8.28,8.0556 A3.2329,3.2329 0 0 1 11.5706,2.4897 Z" stroke-linecap="round" fill="#40c057"/></g></g><g transform="matrix(1, 0, 0, 1, 2620.5268, 17660.7859)" opacity="1"><g transform="scale(1)"><path d="M0.5209,3.1168 T-1.1566,3.4062 -4.6278,5.3088 -6.6438,7.4601 -6.8661,7.9982 A3.2737,3.2737 0 0 1 -12.7251,5.0757 T-11.1788,2.8298 -6.7669,-0.9929 -2.2112,-2.8433 -0.5209,-3.1168 A3.16,3.16 0 0 1 0.5209,3.1168 ZM-6.714,5.432 T-6.572,6.1532 -3.6262,5.7701 1.9044,5.8682 7.4155,8.0631 10.1995,9.0556 A2.9025,2.9025 0 0 1 8.7805,14.6844 T7.312,14.4002 3.3049,12.3362 -1.7268,11.662 -6.2886,12.6434 -10.0567,11.319 -12.3165,8.8803 -12.8772,7.6419 A3.2737,3.2737 0 0 1 -6.714,5.432 Z" stroke-linecap="round" fill="#40c057"/></g></g><g transform="matrix(1, 0, 0, 1, 2646.632, 17671.4653)" opacity="1"><g transform="scale(1)"><path d="M-0.9018,2.2713 T-1.8378,1.882 -4.2589,-0.4602 -6.04,-5.5077 -3.9365,-10.0367 1.4692,-11.767 7.7055,-11.3878 10.9356,-10.7128 A2.8054,2.8054 0 0 1 9.2739,-5.3536 T6.9718,-5.9855 1.1488,-6.5227 -1.2169,-4.5233 0.4201,-2.4449 0.9018,-2.2713 A2.4438,2.4438 0 0 1 -0.9018,2.2713 ZM12.8108,-8.7733 T13.0521,-7.709 13.2933,-6.6447 A2.7093,2.7093 0 0 1 8.0667,-5.2153 T7.7327,-6.2542 7.3987,-7.2931 A2.8054,2.8054 0 0 1 12.8108,-8.7733 Z" stroke-linecap="round" fill="#40c057"/></g></g><g transform="matrix(1, 0, 0, 1, 2618.1536, 17635.8674)" opacity="1"><g transform="scale(1)"><path d="M2.3283,-1.6615 T3.7812,0.2752 5.9581,5.0037 6.6819,7.7954 A3.0384,3.0384 0 0 1 0.6119,7.5084 T0.4938,6.5788 -0.9764,3.6554 -2.3283,1.6615 A2.8603,2.8603 0 0 1 2.3283,-1.6615 ZM5.0145,10.3651 T4.0454,10.8298 0.7615,11.3579 -4.1434,10.7128 -6.7334,10.0044 A2.9942,2.9942 0 0 1 -5.1266,4.2356 T-2.1796,4.9918 1.5234,5.3433 2.2794,4.9386 A3.0384,3.0384 0 0 1 5.0145,10.3651 Z" stroke-linecap="round" fill="#40c057"/></g></g><g transform="matrix(1, 0, 0, 1, 2707.1484, 17663.1591)" opacity="1"><g transform="scale(1)"><path d="M0.3798,-2.6522 T2.3403,-2.3371 6.486,-1.6771 8.6712,-1.3323 A2.5481,2.5481 0 0 1 7.9488,3.7123 T5.7546,3.43 1.5903,2.9 -0.3798,2.6522 A2.6793,2.6793 0 0 1 0.3798,-2.6522 Z" stroke-linecap="round" fill="#40c057"/></g></g><g transform="matrix(1, 0, 0, 1, 2728.5072, 17651.2931)" opacity="1"><g transform="scale(1)"><path d="M0,-3.236 T2.5258,-3.223 8.9111,-2.1443 14.6208,1.7559 16.8457,7.0062 16.0408,12.4489 13.073,17.8718 8.6833,22.2664 4.1096,25.7083 2.1374,27.1516 A3.2726,3.2726 0 0 1 -1.5084,21.7157 T0.3801,20.3224 4.9029,16.6905 9.156,12.0454 10.0995,7.0426 7.2379,3.8282 2.5258,3.223 0,3.236 A3.236,3.236 0 0 1 0,-3.236 ZM3.2153,22.9186 T3.427,23.3127 3.6386,23.7067 A3.283,3.283 0 0 1 -2.1814,26.7464 T-2.3839,26.3475 -2.5864,25.9487 A3.2726,3.2726 0 0 1 3.2153,22.9186 ZM1.433,22.02 T2.3845,22.2217 6.0551,22.5748 10.9049,22.8809 15.4374,23.1845 17.8394,23.3335 A2.7768,2.7768 0 0 1 17.7606,28.8865 T15.3554,28.9673 10.766,29.1417 5.2537,29.0503 0.9748,28.6493 0.0242,28.4331 A3.283,3.283 0 0 1 1.433,22.02 Z" stroke-linecap="round" fill="#40c057"/></g></g><g transform="matrix(1, 0, 0, 1, 2779.5308, 17652.4797)" opacity="1"><g transform="scale(1)"><path d="M1.883,3.3429 T-0.4028,5.259 -4.5319,8.5206 -7.7977,11.6083 -8.4743,15.4329 -5.4518,18.5107 -1.9405,19.8121 -0.7056,20.1181 A2.4797,2.4797 0 0 1 -1.6744,24.9819 T-4.2964,24.5561 -9.5259,22.4648 -13.4005,18.284 -14.0715,13.0552 -11.5301,7.9855 -7.9369,4.3431 -4.086,1.0469 -1.883,-0.9629 A2.8602,2.8602 0 0 1 1.883,3.3429 Z" stroke-linecap="round" fill="#40c057"/></g></g><g transform="matrix(1, 0, 0, 1, 2815.1288, 17651.2931)" opacity="1"><g transform="scale(1)"><path d="M2.465,1.8494 T0.7969,4.1057 -2.3539,8.1778 -6.0433,12.4057 -9.676,16.3317 -13.3112,20.0651 -17.6508,23.3485 -21.7172,25.2977 -23.6532,26.1828 A2.7606,2.7606 0 0 1 -26.1868,21.2772 T-23.0834,19.5235 -17.8814,15.5976 -14.3656,11.9288 -10.8196,8.1993 -7.2775,4.291 -4.1646,0.3831 -2.465,-1.8494 A3.0817,3.0817 0 0 1 2.465,1.8494 Z" stroke-linecap="round" fill="#40c057"/></g></g><g transform="matrix(1, 0, 0, 1, 2793.77, 17652.4797)" opacity="1"><g transform="scale(1)"><path d="M2.4118,-2.4118 T3.7839,-0.979 7.1598,2.764 10.1006,7.1055 12.524,11.5105 15.634,16.3401 18.3148,20.212 19.3719,21.6282 A3.4707,3.4707 0 0 1 13.8481,25.8318 T11.663,22.9899 7.8449,17.3129 5.0085,11.7443 2.1295,7.0834 -0.979,3.7839 -2.4118,2.4118 A3.4109,3.4109 0 0 1 2.4118,-2.4118 Z" stroke-linecap="round" fill="#40c057"/></g></g><g transform="matrix(1, 0, 0, 1, 2843.6071, 17650.1065)" opacity="1"><g transform="scale(1)"><path d="M3.095,0 T3.0354,1.0102 1.6141,4.315 -1.4451,8.6802 -4.5369,12.1681 -3.5042,12.8354 0.151,12.1983 1.379,12.3114 A3.1243,3.1243 0 0 1 1.001,18.5486 T-1.44,18.4743 -6.5051,17.703 -10.3456,14.5396 -10.3204,10.1178 -7.7392,6.645 -4.6876,3.2374 -3.0354,0.6737 -3.095,0 A3.095,3.095 0 0 1 3.095,0 Z" stroke-linecap="round" fill="#40c057"/></g></g><g transform="matrix(1, 0, 0, 1, 2831.7411, 17676.2117)" opacity="1"><g transform="scale(1)"><path d="M0,-2.2973 T1.962,-2.3977 7.3934,-2.9341 13.0562,-3.4747 15.2496,-3.5794 A2.3962,2.3962 0 0 1 15.6104,1.1994 T13.4261,1.4252 7.5895,2.0746 1.9686,2.3977 0,2.2973 A2.2973,2.2973 0 0 1 0,-2.2973 Z" stroke-linecap="round" fill="#40c057"/></g></g><g transform="matrix(1, 0, 0, 1, 2862.5926, 17650.1065)" opacity="1"><g transform="scale(1)"><path d="M0,-3.471 T2.2444,-3.4776 7.8427,-3.1704 14.0182,-0.241 17.6604,5.5321 17.9801,10.9194 15.8407,15.8766 11.7941,20.9397 7.014,25.3142 4.6422,27.3531 A3.4963,3.4963 0 0 1 0.1122,22.0263 T1.6445,20.7374 4.936,17.9618 8.255,14.5713 10.4691,10.1993 10.3415,5.8567 7.0242,3.7333 2.2444,3.4776 0,3.471 A3.471,3.471 0 0 1 0,-3.471 ZM5.1681,22.5838 T5.5623,23.1423 8.2835,24.5217 13.7199,26.3619 18.0765,27.9513 19.3237,28.5213 A3.8344,3.8344 0 0 1 16.2763,35.5587 T13.9745,34.6181 9.0393,32.63 4.019,30.5086 0.6093,28.1152 -0.4137,26.7956 A3.4963,3.4963 0 0 1 5.1681,22.5838 Z" stroke-linecap="round" fill="#40c057"/></g></g><g transform="matrix(1, 0, 0, 1, 2492.3743, 17749.7807)" opacity="1"><g transform="scale(1)"><path d="M1.8387,0.5244 T0.6537,4.6794 -0.5313,8.8344 A1.912,1.912 0 0 1 -4.2087,7.7856 T-3.0237,3.6306 -1.8387,-0.5244 A1.912,1.912 0 0 1 1.8387,0.5244 Z" stroke-linecap="round" fill="#40c057"/></g></g><g transform="matrix(1, 0, 0, 1, 2611.034, 17715.3694)" opacity="1"><g transform="scale(1)"><path d="M-1.0528,-2.4575 T0.903,-3.3224 4.9759,-4.5382 9.4867,-2.8976 11.8804,-0.9062 A2.844,2.844 0 0 1 7.1912,2.3133 T6.0968,1.5665 3.0276,1.6386 1.0528,2.4575 A2.6735,2.6735 0 0 1 -1.0528,-2.4575 ZM12.1493,1.8251 T11.7031,2.6722 9.2179,4.795 7.179,6.0707 A2.8043,2.8043 0 0 1 4.681,1.0493 T5.6681,0.8196 6.7888,0.0859 6.9223,-0.418 A2.844,2.844 0 0 1 12.1493,1.8251 Z" stroke-linecap="round" fill="#40c057"/></g></g><g transform="matrix(1, 0, 0, 1, 2579.8001, 17733.3923)" opacity="1"><g transform="scale(1)"><path d="M3.09,0.6293 T3.3419,2.8377 3.811,8.602 4.0943,14.8493 3.9404,19.3178 3.7205,21.0949 A3.2653,3.2653 0 0 1 -2.751,20.2186 T-2.5539,18.9159 -2.3901,15.0079 -2.564,9.0408 -2.8973,3.4649 -3.09,1.2507 A3.1056,3.1056 0 0 1 3.09,0.6293 ZM-2.7686,20.378 T-2.6162,18.7794 -1.7057,15.0485 0.047,11.0791 2.6257,7.39 6.1404,4.5421 9.9846,3.0074 14.1166,2.1218 18.5451,1.9527 23.271,3.0638 27.1515,5.7997 29.3647,10.1944 29.685,15.2936 27.5421,20.2523 24.9555,23.7298 23.9835,24.7555 A3.374,3.374 0 0 1 19.0565,20.1445 T20.0155,19.1067 22.1228,16.164 22.8936,12.1173 20.5616,8.9443 16.2564,8.116 11.2977,9.0571 7.198,11.7077 4.835,15.782 3.8509,19.4395 3.7381,20.9354 A3.2653,3.2653 0 0 1 -2.7686,20.378 Z" stroke-linecap="round" fill="#40c057"/></g></g><g transform="matrix(1, 0, 0, 1, 2630.3224, 17739.0059)" opacity="1"><g transform="scale(1)"><path d="M0.9203,2.7576 T-1.067,3.4239 -5.402,5.5484 -9.1389,9.0247 -8.0862,10.8349 -3.4202,10.1476 0.7005,8.4543 3.2163,5.6366 3.8355,4.0329 A2.7905,2.7905 0 0 1 9.2645,5.3271 T8.9285,6.7322 7.4432,9.86 4.0975,13.102 -0.2028,15.125 -4.8948,16.1761 -10.1906,16.301 -14.468,13.7899 -15.4438,9.1295 -12.9728,4.4094 -8.0034,0.4146 -2.9157,-2.0948 -0.9203,-2.7576 A2.9071,2.9071 0 0 1 0.9203,2.7576 ZM9.1518,5.6888 T8.5845,6.8147 9.8188,9.1101 14.1271,10.9935 19.328,10.8336 22.0223,9.96 A2.5905,2.5905 0 0 1 24.7577,14.36 T22.5891,15.7264 18.0282,17.2039 13.33,16.6693 8.8876,14.9534 5.1163,12.22 3.6752,7.5535 3.9085,4.1108 3.9482,3.6712 A2.7905,2.7905 0 0 1 9.1518,5.6888 Z" stroke-linecap="round" fill="#40c057"/></g></g><g transform="matrix(1, 0, 0, 1, 2623.7732, 17716.5515)" opacity="1"><g transform="scale(1)"><path d="M-0.3218,-2.8827 T1.678,-3.075 6.591,-2.8208 11.4843,-0.7353 14.0958,3.4649 13.6641,8.4779 10.2793,11.8511 5.4603,12.3037 0.6915,10.1867 -2.5837,7.6606 -3.5873,6.7829 A2.715,2.715 0 0 1 -0.1527,2.5771 T2.326,4.4419 6.7455,5.0294 6.4869,3.0652 2.3047,2.6304 0.3218,2.8827 A2.9006,2.9006 0 0 1 -0.3218,-2.8827 Z" stroke-linecap="round" fill="#40c057"/></g></g><g transform="matrix(1, 0, 0, 1, 2660.2615, 17745.5551)" opacity="1"><g transform="scale(1)"><path d="M3.3797,-0.6788 T3.8252,1.6661 4.2708,4.011 A3.3973,3.3973 0 0 1 -2.3908,5.349 T-2.8852,3.0139 -3.3797,0.6788 A3.4472,3.4472 0 0 1 3.3797,-0.6788 ZM-2.3812,5.3949 T-2.5876,4.3373 -2.9844,0.6896 -3.0736,-4.4387 -0.9264,-8.9479 3.4563,-11.2433 8.4234,-11.6574 14.1365,-11.7187 20.9132,-12.3795 24.6072,-13.0684 A2.854,2.854 0 0 1 25.9128,-7.5116 T23.826,-6.9141 18.0111,-5.6804 11.4289,-5.0207 5.9442,-4.8421 3.4766,-1.7057 3.9505,2.6204 4.2612,3.9651 A3.3973,3.3973 0 0 1 -2.3812,5.3949 Z" stroke-linecap="round" fill="#40c057"/></g></g><g transform="matrix(1, 0, 0, 1, 2746.3364, 17727.7787)" opacity="1"><g transform="scale(1)"><path d="M0.1982,-2.9584 T3.5161,-2.733 9.2202,-2.3949 14.5896,-1.8031 19.0311,0.2078 20.4894,1.7397 A2.9839,2.9839 0 0 1 15.6838,5.2784 T15.5209,4.6086 13.3384,3.7894 8.8786,3.5184 3.1201,3.1776 -0.1982,2.9584 A2.965,2.965 0 0 1 0.1982,-2.9584 ZM20.8833,4.5494 T20.3759,5.9372 18.5056,10.0575 15.3567,14.9506 11.565,18.842 6.7179,22.3937 2.7407,24.6503 1.6048,25.0859 A3.1432,3.1432 0 0 1 -0.5879,19.1942 T1.2313,18.584 5.2438,16.2154 9.578,12.244 12.9823,7.6296 14.7678,3.8483 15.2899,2.4686 A2.9839,2.9839 0 0 1 20.8833,4.5494 ZM3.4796,21.1143 T3.5939,21.4057 3.7081,21.6971 A3.169,3.169 0 0 1 -2.283,23.7655 T-2.3728,23.4656 -2.4627,23.1658 A3.1432,3.1432 0 0 1 3.4796,21.1143 ZM2.0625,19.8641 T3.1841,20.351 6.3003,20.996 10.9028,21.2565 16.2102,21.8554 20.3924,22.5874 21.875,22.8228 A3.3958,3.3958 0 0 1 21.165,29.5772 T19.6659,29.4992 15.6342,29.1028 9.8758,28.3966 3.8396,27.2372 0.1959,26.032 -0.6374,25.5984 A3.169,3.169 0 0 1 2.0625,19.8641 Z" stroke-linecap="round" fill="#40c057"/></g></g><g transform="matrix(1, 0, 0, 1, 2811.8283, 17727.7787)" opacity="1"><g transform="scale(1)"><path d="M2.2742,2.2742 T0.9304,3.5869 -2.3918,6.395 -5.919,9.2059 -9.9302,12.1414 -14.4555,14.8742 -17.1612,16.6187 -17.8042,17.2505 A3.0741,3.0741 0 0 1 -21.8213,12.5962 T-20.4689,11.5058 -17.2568,9.3726 -13.463,7.0518 -9.8449,4.3228 -6.5273,1.6396 -3.5839,-0.9333 -2.2742,-2.2742 A3.2162,3.2162 0 0 1 2.2742,2.2742 ZM-17.266,13.2018 T-16.7878,13.952 -13.8398,15.6433 -9.1738,17.8953 -5.1111,20.5169 -2.088,22.6454 -0.9316,23.4633 A3.3194,3.3194 0 0 1 -4.6884,28.9367 T-5.8673,28.1516 -9.7761,25.5465 -14.3994,22.6473 -18.568,20.1853 -21.6013,17.7237 -22.3595,16.645 A3.0741,3.0741 0 0 1 -17.266,13.2018 Z" stroke-linecap="round" fill="#40c057"/></g></g><g transform="matrix(1, 0, 0, 1, 2859.5437, 17725.9075)" opacity="1"><g transform="scale(1)"><path d="M2.0277,2.8379 T0.4693,3.9313 -3.3064,6.9227 -7.8176,10.8144 -12.9352,15.5198 -17.7979,20.2539 -21.4038,23.8492 -24.7285,26.8788 -27.593,29.1393 -28.6998,29.9432 A3.553,3.553 0 0 1 -33.0402,24.3168 T-30.6216,22.2413 -26.5915,18.588 -22.8655,14.9954 -19.241,11.5818 -16.0954,8.7345 -12.2945,5.4628 -7.6182,1.5211 -3.5675,-1.7177 -2.0277,-2.8379 A3.4879,3.4879 0 0 1 2.0277,2.8379 Z" stroke-linecap="round" fill="#40c057"/></g></g><g transform="matrix(1, 0, 0, 1, 2834.2826, 17722.1651)" opacity="1"><g transform="scale(1)"><path d="M3.0897,-1.4052 T4.1765,1.0375 6.8808,6.6611 10.1191,12.1528 13.6501,16.9709 17.1694,21.2336 20.2926,25.1647 22.6459,28.5873 23.4851,29.8343 A3.5133,3.5133 0 0 1 17.6749,33.7857 T16.8236,32.547 14.7686,29.5418 11.8349,25.8198 8.1348,21.1445 4.3845,15.755 0.8841,9.6698 -1.9629,3.8297 -3.0897,1.4052 A3.3942,3.3942 0 0 1 3.0897,-1.4052 Z" stroke-linecap="round" fill="#40c057"/></g></g></svg>