<svg xmlns="http://www.w3.org/2000/svg" direction="ltr" width="549.5003190512928" height="445.49913196031076" viewBox="-155.8197423152173 -195.64566722106258 549.5003190512928 445.49913196031076" stroke-linecap="round" stroke-linejoin="round" data-color-mode="dark" class="tl-container tl-theme__force-sRGB tl-theme__dark" style="background-color: transparent;"><defs/><g transform="matrix(1, 0, 0, 1, -41.1494, -158.5057) scale(1.027622776751141, 1.027622776751141)" opacity="1"><g transform="scale(0.9731197309206485)"><path d="M1.39,-1.7963 T2.6032,-1.5413 5.5841,-0.7807 9.2484,-0.0403 12.5619,0.6045 15.7175,1.1032 19.0617,1.2085 22.5961,1.2104 26.1746,1.1789 29.7665,1.14 33.4889,1.0981 37.139,0.7034 40.9884,0.2006 44.4893,-0.3295 48.0556,-0.8648 51.6409,-1.4026 55.2473,-1.9455 59.1209,-2.1269 62.7929,-2.1886 66.6587,-2.2157 70.3281,-2.2296 73.9437,-2.2406 77.5457,-2.2503 81.1439,-2.2578 84.8705,-2.2641 88.5045,-2.2689 92.3539,-2.273 96.0195,-2.279 99.3618,-2.4943 102.8769,-2.9299 106.7257,-3.2125 110.1926,-3.4746 113.7664,-3.9273 117.6899,-4.2323 121.3635,-4.3028 125.231,-4.3199 128.8929,-4.3221 132.3647,-4.681 136.0533,-5.149 139.821,-5.2835 143.4746,-5.3149 146.8088,-5.5271 150.8372,-5.9559 155.6644,-6.5939 160.0895,-7.1295 164.5672,-7.2739 168.9011,-7.3019 172.5728,-7.303 176.6787,-7.2975 181.1592,-7.2933 185.1285,-7.2936 188.9558,-7.2952 192.7461,-7.2964 196.3977,-7.3006 200.0084,-7.3085 203.7361,-7.3184 207.6128,-7.3283 211.658,-7.3363 216.1208,-7.3432 220.2016,-7.3481 223.8044,-7.3535 228.0171,-7.3621 232.284,-7.3703 236.8096,-7.3792 241.5341,-7.39 246.1855,-7.3995 251.1898,-7.4073 255.4329,-7.4122 259.208,-7.4155 263.7121,-7.4185 268.4188,-7.421 272.9512,-7.4245 277.4353,-7.4346 281.2772,-7.4468 284.4417,-7.4547 287.6616,-7.4632 291.8964,-7.4757 296.3002,-7.489 299.7502,-7.5 303.3677,-7.513 306.9702,-7.5264 310.5675,-7.5402 314.2939,-7.5548 317.9105,-7.5669 321.3831,-7.5764 324.4005,-7.5831 328.0276,-7.592 331.6339,-7.6035 335.2329,-7.6169 338.829,-7.6306 342.1074,-7.6407 345.7429,-7.6513 349.4775,-7.6649 353.1149,-7.6785 357.0385,-7.4078 360.7504,-6.973 363.8223,-6.7687 366.8888,-6.7077 370.197,-6.2994 373.8409,-5.8054 377.2184,-5.692 380.7803,-5.6749 384.5093,-5.3244 388.166,-4.8354 391.6382,-4.6794 394.76,-4.1733 398.5037,-3.6454 401.7399,-3.5598 402.8759,-3.5099 A2.4804,2.4804 0 0 1 402.7841,1.4499 T401.6469,1.4577 398.8105,1.4324 395.094,0.9609 391.5435,0.5064 388.4759,0.426 384.8912,-0.0653 380.7574,-0.4986 377.1251,-0.5221 373.9927,-0.6033 370.377,-1.1085 366.7758,-1.5658 363.5285,-1.6439 359.8955,-1.9406 356.4095,-2.3851 353.1149,-2.6015 349.4775,-2.6151 345.7429,-2.6287 342.1074,-2.6393 338.829,-2.6494 335.2329,-2.6631 331.6339,-2.6765 328.0276,-2.688 324.4005,-2.6969 321.3831,-2.7036 317.9105,-2.7131 314.2939,-2.7252 310.5675,-2.7398 306.9702,-2.7536 303.3677,-2.767 299.7502,-2.78 296.3002,-2.791 291.8964,-2.8043 287.6616,-2.8168 283.6935,-2.8272 279.6322,-2.838 275.5687,-2.8503 270.7489,-2.8581 265.8372,-2.8603 261.5195,-2.8628 257.5861,-2.8658 253.6495,-2.8696 248.8246,-2.8761 243.9421,-2.8846 239.267,-2.8961 234.4532,-2.9065 230.0169,-2.9138 225.6092,-2.9234 221.7665,-2.9304 218.1567,-2.9342 214.102,-2.9396 209.7849,-2.9472 205.7979,-2.956 202.1306,-2.9664 198.2837,-2.9759 194.6589,-2.9814 190.961,-2.9841 187,-2.9855 182.9644,-2.9872 178.6599,-2.9842 174.3128,-2.9743 170.6852,-2.96 166.9778,-2.9278 162.596,-2.8437 158.9196,-2.6302 155.47,-2.1084 151.511,-1.5684 147.3702,-1.1123 143.5057,-0.8172 139.9469,-0.7759 136.4444,-0.6487 132.6707,-0.1746 128.914,0.2063 125.2469,0.2151 121.4331,0.2374 117.9106,0.3091 114.6225,0.5157 110.9285,0.9809 106.9422,1.3451 103.5948,1.5634 99.9065,2.0071 96.0195,2.279 92.3539,2.273 88.5045,2.2689 84.8706,2.2641 81.144,2.2579 77.5459,2.2505 73.9444,2.2412 70.3305,2.232 66.6674,2.2242 62.8302,2.2192 59.2362,2.2368 55.6633,2.3413 52.0805,2.8279 48.4877,3.3182 44.9159,3.806 40.8376,4.3389 36.885,4.7773 33.4883,5.0613 29.7642,5.0176 26.1671,4.9726 22.568,4.9189 18.9664,4.841 15.332,4.6589 11.443,4.0783 7.7318,3.3211 4.5187,2.6343 1.888,2.0285 0.67,1.7963 A1.832,1.832 0 0 1 1.39,-1.7963 Z" stroke-linecap="round" fill="#9398b0"/></g></g><g transform="matrix(1, 0, 0, 1, 359.6235, -157.478) scale(1.027622776751141, 1.027622776751141)" opacity="1"><g transform="scale(0.9731197309206485)"><path d="M1.6211,0 T1.6197,1.4592 1.6168,5.0766 1.6138,9.8033 1.6154,14.4565 1.6212,19.0893 1.6257,23.8294 1.6331,28.3711 1.6435,33.345 1.6533,38.3092 1.664,42.7848 1.6723,46.3844 1.6787,49.9807 1.6843,53.8196 1.6914,57.2411 1.7044,60.9163 1.7204,64.6501 1.7361,68.2848 1.7535,72.0193 1.7708,75.7682 1.7842,79.4083 1.7981,83.0195 1.8169,87.2345 1.8369,91.8728 1.8516,95.8859 1.865,99.4699 1.8828,103.1915 1.902,106.95 1.9175,110.834 1.9278,114.5116 1.9392,118.132 1.9531,121.734 1.964,125.3322 1.9715,129.0577 1.9769,132.4477 1.979,136.4175 1.5907,140.3108 1.1016,143.7616 0.986,147.9553 0.972,152.3197 0.972,155.9121 0.9713,159.508 0.9709,163.1032 0.9686,166.457 0.9628,170.5763 0.9574,174.3704 0.9572,177.9952 0.9597,181.5998 0.9617,185.1974 0.9633,188.7955 0.9645,192.2036 0.9658,196.4882 0.9668,201.0163 0.9675,205.0012 1.3207,208.8851 1.7987,212.563 1.9559,215.7607 2.0014,219.4136 2.0197,223.0269 2.0296,226.627 2.0377,230.7607 2.0431,234.338 2.0473,237.9304 2.0507,241.5259 2.0522,245.1222 2.0506,248.72 2.047,252.3184 2.0437,256.4516 2.0414,260.0281 2.0396,263.6204 2.0381,267.2159 2.037,270.8146 2.036,274.413 2.0353,278.0091 2.0346,282.1417 2.0341,285.7181 2.0311,289.3104 2.0258,292.9083 2.0208,296.5073 2.0193,300.1034 2.0218,303.6992 2.0241,307.8317 2.0258,311.4081 2.0269,314.7183 2.0275,316.51 A2.0275,2.0275 0 0 1 -2.0275,316.51 T-2.0269,314.7183 -2.0258,311.4081 -2.0241,307.8317 -2.0218,303.6992 -2.0193,300.1034 -2.0208,296.5073 -2.0258,292.9083 -2.0311,289.3104 -2.0341,285.7181 -2.0346,282.1417 -2.0353,278.0091 -2.036,274.413 -2.037,270.8146 -2.0381,267.2159 -2.0396,263.6204 -2.0414,260.0281 -2.0437,256.4516 -2.047,252.3184 -2.0506,248.72 -2.0522,245.1222 -2.0507,241.5259 -2.0473,237.9304 -2.0431,234.338 -2.0379,230.7609 -2.0306,226.6283 -2.0239,223.0324 -2.0267,219.4471 -2.0574,215.896 -2.2592,212.5669 -2.7318,208.7827 -3.0275,205.0012 -3.0268,201.0163 -3.0258,196.4882 -3.0245,192.2036 -3.0233,188.7955 -3.0217,185.1974 -3.0197,181.5998 -3.0172,177.9952 -3.0174,174.3704 -3.0228,170.5763 -3.0286,166.457 -3.0309,163.1032 -3.031,159.5077 -3.0309,155.9109 -3.025,152.3121 -3.0088,148.7076 -2.9294,145.0539 -2.4197,140.8113 -1.979,136.3845 -1.9769,132.4477 -1.9715,129.0577 -1.964,125.3322 -1.9531,121.734 -1.9392,118.132 -1.9278,114.5116 -1.9175,110.834 -1.902,106.95 -1.8828,103.1915 -1.865,99.4699 -1.8516,95.8859 -1.8369,91.8728 -1.8169,87.2345 -1.7981,83.0195 -1.7842,79.4083 -1.7708,75.7682 -1.7535,72.0193 -1.7361,68.2848 -1.7204,64.6501 -1.7044,60.9163 -1.6914,57.2411 -1.6843,53.8196 -1.6787,49.9807 -1.6723,46.3844 -1.664,42.7848 -1.6533,38.3092 -1.6435,33.345 -1.6331,28.3711 -1.6257,23.8294 -1.6212,19.0893 -1.6154,14.4565 -1.6138,9.8033 -1.6168,5.0766 -1.6197,1.4592 -1.6211,0 A1.6211,1.6211 0 0 1 1.6211,0 Z" stroke-linecap="round" fill="#9398b0"/></g></g><g transform="matrix(1, 0, 0, 1, 158.2094, -41.3567) scale(1.027622776751141, 1.027622776751141)" opacity="1"><g transform="scale(0.9731197309206485)"><path d="M1.6878,0 T1.6779,1.4592 1.663,4.9482 1.6578,9.026 1.6605,12.8835 1.6686,16.3091 1.678,19.4886 2.0402,23.034 2.5223,26.6182 2.6886,30.3181 2.7401,33.9406 2.7598,37.5409 2.7771,41.1397 2.7961,44.7383 2.8159,48.3343 2.8359,51.9295 2.8601,56.0617 2.8801,59.6394 2.8966,63.2355 2.9103,66.8331 2.9266,70.914 2.9429,75.0159 2.9523,78.099 2.9601,81.1835 2.9674,84.8086 2.9741,88.9488 2.9787,92.5269 2.9824,96.1201 2.9854,99.7146 2.9877,103.3108 2.9897,106.9097 2.9912,110.5077 2.9925,114.6402 2.6906,118.5446 2.2062,122.1896 1.993,125.4719 1.9482,129.0184 1.9366,132.6026 1.9414,136.1984 1.9468,140.2019 1.9508,143.7431 1.9541,147.4593 1.9568,151.0892 1.9588,154.6905 1.9633,158.2897 1.9731,161.8876 1.9854,166.0202 1.996,169.5971 2.0106,173.1902 2.0269,176.7859 2.0405,180.3822 2.0518,183.98 2.0668,187.5777 2.0869,191.7108 2.1017,195.288 2.1171,198.8804 2.0911,203.2371 2.0552,205.52 A2.0552,2.0552 0 0 1 -2.0552,205.52 T-2.0911,203.2371 -2.1171,198.8804 -2.1017,195.288 -2.0869,191.7108 -2.0668,187.5777 -2.0518,183.98 -2.0405,180.3822 -2.0269,176.7859 -2.0106,173.1902 -1.996,169.5971 -1.9854,166.0202 -1.9731,161.8876 -1.9633,158.2897 -1.9588,154.6905 -1.9568,151.0892 -1.9541,147.4593 -1.9507,143.7431 -1.9466,140.2017 -1.9404,136.1971 -1.9324,132.5973 -1.9229,128.9861 -1.8915,125.3398 -1.7467,122.1597 -1.2806,118.6187 -0.9325,114.6402 -0.9312,110.5077 -0.9297,106.9097 -0.9277,103.3108 -0.9254,99.7146 -0.9224,96.1201 -0.9187,92.5269 -0.9141,88.9488 -0.9074,84.8086 -0.9001,81.1835 -0.8923,78.099 -0.8829,75.0159 -0.8666,70.914 -0.8503,66.8331 -0.8366,63.2355 -0.8201,59.6394 -0.8001,56.0617 -0.7759,51.9295 -0.7559,48.3343 -0.7362,44.7385 -0.7178,41.1404 -0.7035,37.5451 -0.6949,33.9577 -0.7197,30.422 -0.9262,26.5524 -1.3946,22.8778 -1.678,19.4886 -1.6686,16.3091 -1.6605,12.8835 -1.6578,9.026 -1.663,4.9482 -1.6779,1.4592 -1.6878,0 A1.6878,1.6878 0 0 1 1.6878,0 Z" stroke-linecap="round" fill="#9398b0"/></g></g><g transform="matrix(1, 0, 0, 1, -43.2047, -38.2738) scale(1.027622776751141, 1.027622776751141)" opacity="1"><g transform="scale(0.9731197309206485)"><path d="M0,-1.7522 T1.4592,-1.7481 5.3248,-1.7428 9.7693,-1.3606 13.5902,-0.8875 17.1166,-0.771 20.6986,-0.7456 24.7419,-0.485 29.2009,-0.0626 33.5719,0.1445 37.9397,-0.0354 42.4849,-0.4834 46.5323,-0.7759 50.2603,-0.8722 53.8975,-0.9123 57.5062,-0.9359 60.9357,-1.1555 64.4975,-1.6135 68.5003,-1.9278 72.7334,-2.2382 76.9865,-2.7075 80.9729,-2.9971 84.8225,-3.0836 88.4899,-3.1132 92.5962,-2.8541 96.9343,-2.4239 101.2361,-2.2163 105.1279,-2.3251 108.8331,-2.7496 112.5008,-3.0791 115.9599,-3.1577 120.1341,-3.1857 124.5172,-3.2018 129.0748,-3.2201 133.7965,-3.2361 138.5754,-3.2477 143.2419,-3.2613 147.7501,-3.2801 152.2183,-3.2969 156.039,-3.6707 159.6733,-4.1498 163.6327,-4.7324 167.615,-5.2707 171.2398,-5.3568 174.837,-5.382 178.6779,-5.3898 182.3406,-5.3917 185.9544,-5.3905 189.5559,-5.3876 192.9236,-5.3812 196.7805,-4.7999 198.924,-4.2232 A2.2432,2.2432 0 0 1 197.736,0.1032 T195.4286,-0.3366 191.2773,-0.7743 187.6766,-0.7698 184.0699,-0.7681 180.441,-0.7675 176.7241,-0.7648 173.1515,-0.7561 169.6482,-0.723 165.7951,-0.5325 162.045,0.0032 158.5012,0.5321 154.6324,0.9649 150.0441,1.2273 145.2371,1.2079 140.8338,1.1947 136.1302,1.1813 131.2134,1.1676 126.8687,1.1541 122.3762,1.1429 117.7711,1.1421 114.0925,1.1701 111.0473,1.2803 107.9855,1.7386 104.9071,2.0996 101.0868,2.024 96.3303,1.7315 92.1082,1.2855 88.5074,1.0683 84.8765,1.0782 81.1634,1.1338 77.5594,1.3559 73.1897,1.8045 68.6769,2.1205 65.2359,2.3073 61.5324,2.7294 57.5101,2.9999 53.9106,2.9869 50.309,2.9845 46.6881,3.0244 42.9737,3.2221 38.2788,3.6145 33.4326,3.7823 28.674,3.4869 24.3166,3.0244 20.6709,2.7774 17.0298,2.7295 13.256,2.582 9.4901,2.1045 5.3156,1.7428 1.4592,1.7481 0,1.7522 A1.7522,1.7522 0 0 1 0,-1.7522 Z" stroke-linecap="round" fill="#9398b0"/></g></g><g transform="matrix(1, 0, 0, 1, 19.4803, -155.4228) scale(1.027622776751141, 1.027622776751141)" opacity="1"><g transform="scale(0.9731197309206485)"><path d="M2.2026,-1.5647 T3.1669,-0.8259 5.3883,0.7947 7.8577,2.8535 10.2037,5.0011 12.7765,7.5602 15.5859,10.9047 18.0646,13.9248 20.5791,16.5303 23.3271,18.9392 26.08,20.9802 28.706,23.0302 31.2961,25.0763 33.9818,27.0156 36.66,29.0932 39.4514,31.1919 42.2038,33.1591 45.0864,36.0574 47.7625,39.0657 50.6481,41.389 54.2703,43.6161 57.433,45.6338 59.8375,47.6899 62.902,50.0896 66.3477,52.5895 68.9917,54.7869 71.2128,56.8902 73.7857,58.9898 76.9215,61.4781 79.9109,63.9749 82.8868,66.1279 86.1544,68.1463 88.8979,70.2321 91.1153,72.4831 93.3139,74.6428 95.6661,76.9127 98.4726,79.3287 101.3379,81.4762 103.892,83.503 106.5816,85.6726 109.5962,87.7985 112.6896,89.8864 115.9451,92.3826 119.0815,94.9497 121.576,97.3234 123.7689,99.8525 126.4866,102.5157 129.4721,105.1327 131.9349,107.3892 135.1057,109.8402 139.1451,112.3487 142.5532,114.4663 145.6352,116.5078 148.7426,118.774 151.7841,120.8664 154.8607,122.9679 157.6018,125.5046 160.735,127.7318 164.5336,129.5908 168.2244,131.4634 171.9001,133.4905 175.3779,135.5874 178.5764,137.6576 181.6924,139.7163 184.7837,141.7703 188.0615,143.8655 191.3931,145.9767 195.1898,148.0683 199.2128,150.1266 202.7634,152.0799 206.3592,153.6184 210.0236,155.191 213.9182,157.5084 217.6083,160.0132 221.2278,162.5596 225.0257,165.1616 228.6781,167.7311 231.9945,169.8159 235.2329,171.6004 238.6575,173.6854 241.8402,175.7519 244.9475,177.8046 248.5331,179.8963 252.1366,181.9608 255.7801,184.0656 259.3938,186.1324 262.184,188.1778 264.9081,190.1279 267.9756,192.0277 271.0445,194.1979 274.3567,196.3866 277.5192,198.4866 280.2203,200.4923 282.8138,202.5314 285.8507,204.611 288.9317,206.677 291.2821,208.7908 294.3036,211.1919 297.7277,213.6915 300.8026,215.9569 303.7953,218.003 306.9262,220.0307 310.2112,222.1729 313.3374,224.2476 316.3692,226.3217 319.371,228.3884 322.2608,230.5159 324.941,232.5599 327.5079,234.6368 330.0983,237.0108 332.6584,239.0899 335.3142,241.2544 338.2677,244.3222 339.7849,246.0649 A2.3275,2.3275 0 0 1 336.3951,249.2551 T335.6193,248.4948 333.3338,245.968 330.0533,243.1455 326.718,240.5972 323.6463,237.7747 320.9268,235.4252 317.7739,233.2636 314.2627,231.0297 311.4663,228.8739 308.6902,226.7759 305.5446,224.6972 302.5943,222.8539 300.0141,221.258 296.8924,219.0616 293.4352,216.6599 289.9155,213.9994 286.4302,210.9801 283.6338,208.8713 280.4957,206.7117 277.1495,204.2577 274.2627,202.1294 271.1279,200.0406 268.2521,198.1229 265.5467,196.1888 262.1054,193.9991 258.6267,191.5085 255.7681,189.4289 252.6983,187.7507 249.4116,185.8838 246.6328,184.1977 243.9068,182.6044 240.9344,180.7256 237.8458,178.6885 234.7289,176.6972 231.301,174.7577 227.6871,172.5749 224.2467,170.1987 220.6208,167.6439 216.6742,165.0018 213.1196,162.5106 209.6772,160.2673 206.2823,158.5587 202.5797,156.9647 198.8419,155.1485 195.5967,153.4141 192.0753,151.687 188.7026,149.7445 185.541,147.7433 182.3923,145.7286 179.306,143.6731 176.2152,141.6239 173.0942,139.5913 169.847,137.6045 166.2694,135.6161 162.5593,133.719 158.9328,131.8789 155.8474,129.9489 153.0752,127.5767 150.1137,125.2342 147.5809,123.2776 145.006,121.293 142.1113,119.4878 139.4621,117.805 136.8088,116.1429 133.8265,114.2161 130.8748,112.2217 128.412,110.2811 125.5026,107.7504 122.667,105.2335 120.6633,103.0954 118.4296,100.5377 115.6115,98.0127 112.5108,95.4771 109.431,92.9612 106.2825,90.8341 103.3825,88.7905 100.4525,86.428 96.9684,83.5778 93.9454,81.0031 91.5714,78.6216 89.2935,76.3192 87.0153,74.2969 84.5189,72.339 81.6373,70.2806 78.7335,68.3468 76.0254,66.563 73.5362,64.483 70.8552,62.1829 68.2274,60.0223 65.5706,57.5477 62.3886,55.0854 58.8944,52.4501 55.496,49.5552 52.4844,47.5796 49.2398,45.6886 45.9718,43.1718 43.2983,40.2793 40.8297,37.545 38.3347,35.423 35.7353,33.3945 32.7739,31.2447 30.147,29.2284 27.5843,27.1689 25.0207,25.1205 21.9171,22.7057 18.4148,20.0672 16.0034,17.4571 14.0391,14.765 11.8848,12.1396 9.0678,8.9878 6.1039,6.1442 3.3506,4.0352 0.8372,2.2827 -0.1426,1.5647 A1.9554,1.9554 0 0 1 2.2026,-1.5647 Z" stroke-linecap="round" fill="#f76707"/></g></g><g transform="matrix(1, 0, 0, 1, -17.5141, -153.3676) scale(1.027622776751141, 1.027622776751141)" opacity="1"><g transform="scale(0.9731197309206485)"><path d="M-0.6329,0.557 T-1.8244,0.0615 -4.5891,-0.2206 -7.5831,0.7636 -10.1709,2.7052 -11.9168,5.3302 -12.5688,9.0615 -12.6374,13.2959 -12.624,16.9039 -12.2332,20.3894 -11.525,23.722 -10.7177,27.15 -9.756,30.7809 -8.9428,34.3206 -8.1659,37.5487 -7.5802,40.6992 -7.4002,44.3162 -7.6363,48.2148 -8.3495,52.1315 -9.8358,55.352 -12.1197,57.6934 -14.8315,59.368 -18.1737,60.2283 -21.4698,59.6473 -23.8886,57.659 -24.861,54.435 -24.4191,51.6761 -23.9942,50.9142 A2.023,2.023 0 0 1 -20.4668,52.896 T-20.8758,53.7407 -20.055,55.4632 -16.771,55.6882 -13.5781,53.8815 -12.0087,50.9184 -11.3847,47.6646 -11.2215,44.4525 -11.4384,40.5746 -12.0763,36.9136 -13.0283,33.6771 -14.0078,29.9756 -14.9044,26.0575 -15.4805,22.5367 -15.8913,18.8492 -16.1235,15.0073 -16.061,11.3222 -15.9167,7.8636 -15.0239,4.2924 -12.9736,0.9766 -9.9843,-1.6172 -6.8153,-3.3078 -3.6116,-3.6304 -0.6069,-3.0912 0.6329,-2.617 A1.7085,1.7085 0 0 1 -0.6329,0.557 ZM-21.86,49.9163 T-21.1453,50.0719 -18.8582,51.1776 -16.3781,53.5772 -14.7292,56.7302 -13.396,60.3388 -12.6272,64.1153 -12.3988,67.8816 -12.3308,71.5643 -12.6942,74.7823 -13.1468,77.7304 -13.2446,81.1883 -13.6545,84.916 -14.1313,88.5329 -14.2495,91.9873 -14.2913,95.5039 -13.7225,98.8931 -12.0146,102.0751 -9.2405,104.5389 -5.6108,105.7856 -2.5485,106.6205 -1.4654,106.9885 A2.0305,2.0305 0 0 1 -2.6546,110.8715 T-3.758,110.5699 -6.7283,109.9183 -10.506,108.8351 -13.7221,106.5308 -16.022,103.6093 -17.4587,100.8301 -18.2364,97.4423 -18.554,93.6196 -18.4754,89.9525 -18.1626,86.0546 -17.699,82.5064 -17.4252,79.1185 -16.9232,75.2318 -16.4912,71.5601 -16.5326,68.0581 -16.6981,64.6707 -17.3475,61.3968 -18.4677,58.327 -20.2684,55.4932 -22.0336,53.9771 -22.601,53.8939 A2.023,2.023 0 0 1 -21.86,49.9163 Z" stroke-linecap="round" fill="#9398b0"/></g></g><g transform="matrix(1, 0, 0, 1, -110.0001, -104.0417) scale(1.027622776751141, 1.027622776751141)" opacity="1"><g transform="scale(0.9731197309206485)"><path d="M-0.8272,1.6504 T-1.796,1.1594 -4.4886,0.5085 -7.9346,0.995 -10.7129,3.4648 -10.6047,6.2891 -7.626,7.3019 -4.0721,6.8688 -1.7678,4.8048 -1.2033,3.1858 A1.9509,1.9509 0 0 1 2.6134,3.9959 T2.0211,5.9076 -0.0169,9.1849 -3.6529,10.8544 -7.7737,11.0883 -11.2659,10.8147 -14.0108,9.5085 -15.3503,6.8032 -14.6324,3.4365 -12.6325,0.1607 -9.8371,-2.1816 -6.5835,-3.2838 -3.0613,-3.0865 -0.1481,-2.1337 0.8272,-1.6504 A1.8461,1.8461 0 0 1 -0.8272,1.6504 ZM2.2008,2.3384 T2.5396,2.727 4.1612,4.3807 7.1948,6.2042 10.7524,7.0038 12.5594,7.2451 A2.018,2.018 0 0 1 12.1006,11.2549 T11.0762,11.159 7.9084,10.6376 4.2296,9.4257 1.3349,7.2149 -0.4076,5.3169 -0.7907,4.8433 A1.9509,1.9509 0 0 1 2.2008,2.3384 Z" stroke-linecap="round" fill="#9398b0"/></g></g><g transform="matrix(1, 0, 0, 1, -79.1715, -106.0969) scale(1.027622776751141, 1.027622776751141)" opacity="1"><g transform="scale(0.9731197309206485)"><path d="M1.8667,1.03 T1.8622,2.2456 1.8513,5.667 1.8421,8.8692 1.8394,9.8657 A1.8394,1.8394 0 0 1 -1.8394,9.8657 T-1.8421,8.8692 -1.8513,5.667 -1.8622,2.2456 -1.8667,1.03 A1.8667,1.8667 0 0 1 1.8667,1.03 ZM-0.9437,8.2869 T-0.6996,8.1422 -0.4554,7.9976 A1.8371,1.8371 0 0 1 1.4298,11.1513 T1.1868,11.2979 0.9437,11.4445 A1.8394,1.8394 0 0 1 -0.9437,8.2869 ZM-1.3041,9.1667 T-1.173,8.6016 -0.2073,6.3251 1.613,3.0416 4.0116,0.6052 5.4245,-0.2594 A1.8274,1.8274 0 0 1 6.7086,3.1625 T5.6966,3.9758 3.6072,6.8229 2.4042,9.4194 2.2785,9.9822 A1.8371,1.8371 0 0 1 -1.3041,9.1667 ZM7.5707,0.4138 T7.8457,0.8073 8.4992,2.7858 8.9259,5.0289 8.974,5.687 A1.8743,1.8743 0 0 1 5.2326,5.9209 T5.1539,4.5819 4.8188,2.8661 4.5623,2.4893 A1.8274,1.8274 0 0 1 7.5707,0.4138 ZM6.4519,4.0465 T7.2051,3.7715 9.4467,2.0973 12.77,-0.3303 16.2332,-1.5736 19.3063,-0.7634 21.4323,1.957 22.2396,5.8459 22.3656,8.0395 A1.8245,1.8245 0 0 1 18.7344,8.4005 T18.5772,7.3032 18.1158,4.1202 15.963,2.6727 12.7842,4.3672 10.145,6.2879 8.2953,7.3569 7.7548,7.5615 A1.8743,1.8743 0 0 1 6.4519,4.0465 Z" stroke-linecap="round" fill="#9398b0"/></g></g><g transform="matrix(1, 0, 0, 1, 160.2646, 148.7535) scale(1.027622776751141, 1.027622776751141)" opacity="1"><g transform="scale(0.9731197309206485)"><path d="M2.0357,0.4079 T1.764,1.5916 2.1312,4.3285 4.1954,7.3067 6.9956,9.3281 10.2891,10.5321 14.0791,11.6436 18.1755,11.8285 22.5182,11.0208 26.176,10.0441 29.5682,9.0323 33.5377,8.3472 37.2104,7.7805 40.5649,7.25 44.458,6.6416 48.1673,6.0891 51.3447,6.0007 54.4552,5.9739 58.0866,5.9612 62.2285,5.9534 65.8069,5.949 69.4127,5.9451 73.219,6.332 76.9288,7.1791 80.9732,8.5592 84.3079,10.5341 86.6864,12.6252 88.919,15.1636 91.0933,18.6332 92.7405,22.1635 93.9799,25.8533 94.6859,29.5004 94.2458,33.5233 93.7314,36.0285 A2.3234,2.3234 0 0 1 89.7531,33.6273 T89.9773,33.5401 90.143,31.5401 89.5918,27.8126 88.459,24.1198 87.1344,20.8864 85.5141,18.2473 83.0639,15.5523 79.9718,13.1623 76.2455,11.695 72.1185,10.8534 68.0495,10.4957 64.458,10.4897 60.8959,10.4856 56.7339,10.4822 53.1048,10.4864 50.0774,10.5192 46.6093,10.7089 42.9202,11.2516 39.6269,11.7869 36.0205,12.3096 32.355,12.8691 29.1376,13.5582 26.0624,14.4469 22.7696,15.2833 19.2165,16.0535 15.5431,16.1968 11.8437,15.4507 7.7412,13.9869 3.7713,12.1614 0.872,9.7107 -1.2359,6.6557 -2.2777,3.606 -2.2512,0.8397 -2.0357,-0.4079 A2.0762,2.0762 0 0 1 2.0357,0.4079 ZM89.4368,35.1157 T89.3326,34.2233 89.2034,31.4044 89.1853,27.9849 89.5892,24.4495 90.4947,20.6818 91.6034,17.5062 92.8132,15.0234 93.423,13.9906 A2.1934,2.1934 0 0 1 97.0317,16.4849 T96.7503,16.7414 95.8803,18.4593 94.8576,21.4748 94.0789,24.7758 93.7493,27.9851 93.8065,31.2535 93.9481,33.7998 94.0477,34.54 A2.3234,2.3234 0 0 1 89.4368,35.1157 ZM94.4948,13.1703 T94.9984,13.0139 97.1772,12.131 101.1448,11.6275 105.5865,12.3499 110.0927,13.3108 114.2034,13.9308 117.7582,14.4268 121.7344,14.9137 125.4292,15.0821 128.8664,15.4118 132.61,15.8841 136.3765,16.0731 139.8218,16.0997 142.8572,16.0962 146.4531,16.0912 150.5235,15.6553 154.6702,14.7902 158.9721,13.8624 162.7404,13.2478 166.4875,12.6261 170.4639,11.5916 174.0832,10.5759 177.7747,9.6653 181.0987,8.5775 184.667,7.0982 188.2588,5.5756 190.9894,3.397 192.5411,0.3274 192.3948,-3.2255 191.6313,-6.3734 191.2729,-7.565 A2.0259,2.0259 0 0 1 195.1071,-8.875 T195.5527,-7.7133 196.6985,-4.5034 197.3057,-0.6575 196.5574,3.0378 194.701,6.4341 191.638,9.002 187.6721,10.9943 184.0226,12.5389 180.9992,13.6253 177.1011,14.5762 172.8543,15.5142 169.4031,16.4537 166.3108,17.4075 162.8641,18.0622 159.1952,18.6937 156.0837,19.5265 152.778,20.1236 149.0532,20.6217 145.1096,20.9062 141.4791,20.894 138.4527,20.8741 134.9001,20.7859 130.7011,20.2585 127.0188,19.7845 123.4048,19.6865 119.3209,19.1378 115.0969,18.5101 110.6928,17.9038 106.4621,16.9462 102.4874,16.0503 98.8859,16.2385 96.588,17.0606 95.9599,17.3052 A2.1934,2.1934 0 0 1 94.4948,13.1703 Z" stroke-linecap="round" fill="#9398b0"/></g></g><g transform="matrix(1, 0, 0, 1, 225.0049, 194.9966) scale(1.027622776751141, 1.027622776751141)" opacity="1"><g transform="scale(0.9731197309206485)"><path d="M2.3424,-0.391 T2.5839,1.0687 3.0375,4.793 3.3211,9.0787 3.1385,13.0942 2.1238,16.8715 1.3634,18.6546 A2.4479,2.4479 0 0 1 -2.6958,15.9174 T-2.3965,15.6469 -1.7568,13.2836 -1.4537,9.3014 -1.671,5.3602 -2.0968,1.8497 -2.3424,0.391 A2.3748,2.3748 0 0 1 2.3424,-0.391 ZM-3.1028,17.0507 T-2.9348,15.6844 -1.6961,12.5063 0.6613,9.7242 3.625,8.4339 6.8459,8.0597 10.2876,8.0016 13.9002,8.835 16.8126,11.083 18.3034,14.2575 17.8502,17.8087 16.0807,20.7922 13.5125,22.8879 10.3684,24.3854 7.0197,24.9489 3.6198,23.7865 1.5327,20.8041 1.096,18.9499 A2.0343,2.0343 0 0 1 5.064,18.0501 T5.9527,19.2616 8.3443,20.0875 11.19,18.81 13.4082,16.3158 12.6495,13.6577 8.9739,12.6431 5.319,12.8514 2.7944,14.3116 1.8268,16.5629 1.7704,17.5212 A2.4479,2.4479 0 0 1 -3.1028,17.0507 Z" stroke-linecap="round" fill="#9398b0"/></g></g><g transform="matrix(1, 0, 0, 1, 261.9993, 205.2728) scale(1.027622776751141, 1.027622776751141)" opacity="1"><g transform="scale(0.9731197309206485)"><path d="M2.1218,-0.3542 T2.3745,1.1038 2.7795,4.1437 3.045,7.0673 3.1581,8.409 A2.2141,2.2141 0 0 1 -1.257,8.7511 T-1.4549,6.0131 -1.8873,1.8146 -2.1218,0.3542 A2.1512,2.1512 0 0 1 2.1218,-0.3542 ZM0.2671,6.474 T0.5299,6.3902 0.7927,6.3063 A2.2114,2.2114 0 0 1 2.1579,10.5131 T1.896,10.5996 1.634,10.6861 A2.2141,2.2141 0 0 1 0.2671,6.474 ZM-0.5563,7.5365 T-0.0304,6.3624 1.123,3.7881 3.1328,0.9763 5.2852,-0.8762 6.0552,-1.317 A2.157,2.157 0 0 1 8.0159,2.5257 T6.8542,3.2738 4.9785,5.7216 3.8858,8.3522 3.507,9.283 A2.2114,2.2114 0 0 1 -0.5563,7.5365 ZM8.9193,-0.4463 T9.4317,0.4928 10.1239,2.6056 10.3037,3.7792 A2.1918,2.1918 0 0 1 5.9536,4.3199 T5.8958,3.5822 5.4949,2.2497 5.1517,1.6551 A2.157,2.157 0 0 1 8.9193,-0.4463 ZM9.3379,2.2215 T9.3596,2.2357 9.3814,2.2498 A2.1922,2.1922 0 0 1 6.9623,5.9065 T6.9408,5.8921 6.9193,5.8776 A2.1918,2.1918 0 0 1 9.3379,2.2215 ZM6.6614,2.4893 T7.279,1.8946 9.1161,-0.0454 11.9348,-2.5163 15.9882,-4.6508 20.3435,-5.8594 24.2506,-4.5219 27.1348,-0.9435 28.2866,2.5801 28.7834,5.4293 29.0065,6.796 A2.3202,2.3202 0 0 1 24.4335,7.584 T24.0378,5.2543 23.1238,1.3474 21.0337,-0.7769 17.8467,-0.7249 14.7051,0.9436 12.0789,3.2314 10.3306,5.0583 9.6823,5.667 A2.1922,2.1922 0 0 1 6.6614,2.4893 Z" stroke-linecap="round" fill="#9398b0"/></g></g></svg>