<svg xmlns="http://www.w3.org/2000/svg" direction="ltr" width="1084.4861697889926" height="745.3605352718678" viewBox="1166.5573024031949 15942.830411041008 1084.4861697889926 745.3605352718678" stroke-linecap="round" stroke-linejoin="round" style="background-color: transparent;"><defs/><g transform="matrix(1, 0, 0, 1, 1459.036, 15989.8324)" opacity="1"><g transform="scale(1)"><path d="M-2.8317,0 T-2.788,-1.8219 -3.1002,-5.8785 -4.4592,-10.1398 -7.0151,-10.7639 -9.6172,-7.4044 -11.7446,-3.3173 -13.1184,1.3454 -13.151,6.7166 -11.8423,11.4299 -9.5994,15.7147 -7.8426,20.8472 -7.1339,25.9648 -7.7407,31.009 -10.0788,35.7529 -13.8752,39.4659 -19.184,41.8092 -24.7375,42.6924 -29.6712,42.4547 -34.709,40.104 -38.0093,37.0446 -38.7463,35.9403 A2.8433,2.8433 0 0 1 -34.1737,32.5597 T-32.7842,34.1992 -29.4038,36.1687 -25.2884,36.3819 -20.4137,35.4908 -15.8708,32.894 -13.6106,28.7477 -13.3118,24.3823 -14.1195,20.2514 -15.803,16.3719 -17.7054,12.4209 -18.8937,8.0862 -18.9616,3.1129 -17.71,-2.787 -15.5754,-8.0433 -13.1669,-12.2699 -10.0171,-15.8312 -5.882,-17.1352 -1.7589,-15.1037 0.9914,-11.0186 2.3057,-6.2235 2.788,-1.8344 2.8317,0 A2.8317,2.8317 0 0 1 -2.8317,0 Z" stroke-linecap="round" fill="#e599f7"/></g></g><g transform="matrix(1, 0, 0, 1, 1451.3013, 16008.6167)" opacity="1"><g transform="scale(1)"><path d="M0.535,3.2244 T-1.0313,3.4973 -6.134,4.0175 -9.6704,4.2647 A3.1762,3.1762 0 0 1 -10.2096,-2.0647 T-6.942,-2.3972 -2.1047,-2.977 -0.535,-3.2244 A3.2684,3.2684 0 0 1 0.535,3.2244 Z" stroke-linecap="round" fill="#e599f7"/></g></g><g transform="matrix(1, 0, 0, 1, 1295.5024, 16264.9667)" opacity="1"><g transform="scale(1)"><path d="M-0.4843,2.4303 T-1.7882,2.1373 -5.4847,-0.0255 -8.5506,-4.7061 -7.4681,-9.3507 -3.5546,-10.8072 0.6264,-8.2064 3.3548,-3.5775 2.3128,1.1192 -2.0821,3.8193 -6.8788,2.2644 -8.0315,-2.2865 -5.0503,-5.6656 -0.9068,-6.203 2.3618,-3.4605 1.5853,0.5481 -2.8562,0.8085 -5.4111,-0.4518 A2.5057,2.5057 0 0 1 -2.0604,-4.1785 T-1.43,-3.0162 -2.7001,-1.0843 -2.9805,-1.919 -3.3555,-4.8295 -3.7402,-4.5103 -0.8228,-2.6576 0.4843,-2.4303 A2.4781,2.4781 0 0 1 -0.4843,2.4303 ZM-3.5635,-4.8149 T-2.8002,-4.768 -2.037,-4.721 A2.517,2.517 0 0 1 -2.383,0.301 T-3.1455,0.2429 -3.908,0.1847 A2.5057,2.5057 0 0 1 -3.5635,-4.8149 Z" stroke-linecap="round" fill="#e599f7"/></g></g><g transform="matrix(1, 0, 0, 1, 1308.7618, 16205.2991)" opacity="1"><g transform="scale(1)"><path d="M2.2191,0.9502 T1.4501,2.7847 -0.2827,6.4732 -3.3591,11.452 -7.8527,17.114 -12.6834,21.3455 -15.1333,23.0399 A2.5032,2.5032 0 0 1 -18.0067,18.9401 T-16.7908,18.0718 -13.6617,15.6886 -9.6416,11.3808 -5.6736,5.6406 -3.0157,0.8716 -2.2191,-0.9502 A2.414,2.414 0 0 1 2.2191,0.9502 Z" stroke-linecap="round" fill="#e599f7"/></g></g><g transform="matrix(1, 0, 0, 1, 1292.1875, 16209.7189)" opacity="1"><g transform="scale(1)"><path d="M0.3763,-2.2681 T1.9488,-2.0115 6.1666,-0.4636 11.1779,2.8189 15.4498,7.0132 19.4787,11.5325 21.6016,13.8487 A2.3576,2.3576 0 0 1 18.1784,17.0913 T17.0095,15.8946 13.7557,12.4742 9.9212,8.3513 5.4613,4.6238 1.1872,2.5318 -0.3763,2.2681 A2.2991,2.2991 0 0 1 0.3763,-2.2681 Z" stroke-linecap="round" fill="#e599f7"/></g></g><g transform="matrix(1, 0, 0, 1, 1330.861, 16261.6519)" opacity="1"><g transform="scale(1)"><path d="M-2.2643,-1.5095 T-1.2012,-3.0658 1.8598,-6.7933 5.5738,-10.7261 9.8843,-14.2807 15.0311,-17.931 20.7156,-21.6276 26.7444,-25.1291 33.1588,-28.1541 39.8406,-30.4979 44.9483,-32.038 50.2374,-33.7094 57.0108,-35.9336 62.4342,-37.6279 66.5185,-38.7862 72.5055,-40.4934 78.7178,-41.9733 83.1078,-42.7364 87.226,-43.4007 91.418,-43.782 97.1386,-44.4157 104.0927,-45.4631 109.5066,-46.118 115.285,-46.7121 121.1993,-47.2908 125.5481,-47.4356 129.9252,-47.5162 134.5854,-47.5657 139.3941,-47.5954 144.0198,-47.6133 148.5104,-47.3509 153.1351,-46.6807 157.8987,-45.7964 162.5282,-44.8019 167.0601,-43.7549 171.5388,-42.677 175.989,-41.5818 180.8043,-40.1741 185.6927,-38.6419 190.4595,-37.3537 195.4833,-35.8373 200.0612,-34.2246 204.3111,-32.5792 208.7446,-30.6228 213.0075,-28.875 217.3489,-27.1741 221.8884,-25.172 226.3708,-23.0761 230.8241,-20.9285 235.2626,-18.7533 239.5114,-16.5214 243.5819,-14.3063 248.7505,-11.7593 253.6696,-9.3319 258.0771,-7.0293 263.017,-4.5243 267.2668,-2.2062 269.2513,-3.1594 268.7696,-7.63 268.2316,-9.9881 A3.4494,3.4494 0 0 1 274.664,-12.4815 T275.2008,-11.092 276.0294,-7.3448 276.1713,-2.8273 274.7705,1.9856 270.7345,5.3319 265.7323,4.9803 261.6749,2.8788 257.3808,0.546 252.0224,-2.3132 245.7502,-5.5171 240.2759,-8.2651 236.3025,-10.4492 232.2347,-12.5978 227.839,-14.7677 223.4634,-16.8979 219.1268,-18.9522 214.8662,-20.8581 210.4432,-22.6058 206.0098,-24.4219 201.8758,-26.2484 197.8028,-27.814 193.5255,-29.3235 188.6843,-30.7606 183.6624,-32.0971 178.907,-33.5618 174.3442,-34.87 169.9208,-35.9485 165.4955,-37.0117 161.066,-38.0439 156.6252,-39.0111 150.3532,-40.1181 144.031,-40.7639 139.4217,-40.7612 134.641,-40.752 130.0354,-40.7275 125.7609,-40.668 119.7702,-40.4043 113.8871,-39.8507 108.5046,-39.2795 101.5924,-38.5257 95.9979,-37.673 90.1723,-37.0502 82.2372,-36.118 76.0639,-34.9416 72.1397,-33.8634 68.168,-32.7848 62.4875,-31.1921 55.294,-29.0803 48.2296,-26.9752 41.3961,-24.9448 35.4165,-23.0556 29.7392,-20.4434 23.8365,-17.1259 18.1581,-13.512 13.0185,-9.9552 9.0282,-6.6927 5.8438,-3.3218 3.2918,-0.0702 2.2643,1.5095 A2.7213,2.7213 0 0 1 -2.2643,-1.5095 ZM272.286,-7.8888 T272.1112,-7.8467 271.9363,-7.8045 A3.4462,3.4462 0 0 1 270.2614,-14.4903 T270.4355,-14.5356 270.6096,-14.5808 A3.4494,3.4494 0 0 1 272.286,-7.8888 ZM274.4832,-11.7974 T274.7536,-10.3076 275.4673,-6.4985 276.5404,-1.1946 277.6481,5.0046 276.6396,11.0632 272.7919,14.9165 268.0072,16.1711 262.5781,16.1412 256.5468,14.406 252.4139,12.1033 251.3065,11.2602 A2.977,2.977 0 0 1 254.7735,6.4198 T256.4949,7.6671 260.4022,9.4051 264.82,9.7637 269.1433,8.4529 270.7696,3.9565 269.7558,-1.2791 268.7112,-5.6251 267.9649,-9.2754 267.7145,-10.4974 A3.4462,3.4462 0 0 1 274.4832,-11.7974 Z" stroke-linecap="round" fill="#e599f7"/></g></g><g transform="matrix(1, 0, 0, 1, 1647.9836, 16252.8122)" opacity="1"><g transform="scale(1)"><path d="M-2.313,-0.6613 T-1.7732,-2.484 -1.1133,-6.6677 -1.3097,-11.1775 -4.0847,-12.5557 -7.3698,-9.0552 -8.3537,-4.3158 -7.9678,0.5295 -6.4356,6.2473 -4.5985,11.776 -3.4933,16.9123 -3.1612,21.9721 -3.8125,27.0496 -6.564,31.5994 -11.0265,34.8115 -16.2229,36.0289 -21.7639,34.6974 -26.5314,31.0359 -29.0963,27.667 -29.6754,26.5798 A2.365,2.365 0 0 1 -25.5646,24.2402 T-24.6329,25.9047 -21.9613,28.7614 -17.6089,30.5045 -12.591,29.7972 -9.1175,26.557 -8.0994,22.1559 -8.3412,17.6274 -9.302,13.1024 -11.0303,7.8307 -12.6838,2.3379 -13.2691,-2.6023 -12.7264,-7.3979 -11.4176,-12.1627 -8.8175,-16.4996 -3.8035,-18.5754 1.2083,-16.6136 3.3235,-12.0461 3.5201,-6.2288 2.8186,-1.1723 2.313,0.6613 A2.4056,2.4056 0 0 1 -2.313,-0.6613 Z" stroke-linecap="round" fill="#e599f7"/></g></g><g transform="matrix(1, 0, 0, 1, 1642.4589, 16268.2816)" opacity="1"><g transform="scale(1)"><path d="M0,3.2818 T-1.8299,3.314 -7.513,2.7355 -11.3661,2.1248 A2.1482,2.1482 0 0 1 -10.7339,-2.1248 T-7.1933,-1.6355 -1.8263,-1.114 0,-1.0818 A2.1818,2.1818 0 0 1 0,3.2818 Z" stroke-linecap="round" fill="#e599f7"/></g></g><g transform="matrix(1, 0, 0, 1, 1666.7679, 16247.2874)" opacity="1"><g transform="scale(1)"><path d="M1.9831,1.322 T0.9243,2.8815 -2.3957,7.1465 -6.5173,12.0867 -9.5986,16.7894 -11.203,21.6203 -11.5081,27.0892 -11.2415,32.0847 -11.0533,33.9739 A2.2239,2.2239 0 0 1 -15.4667,34.5261 T-15.7497,32.6487 -16.1925,27.0525 -15.7199,20.2382 -13.6378,14.3388 -10.1802,9.1426 -6.1096,4.2906 -3.0149,0.2545 -1.9831,-1.322 A2.3833,2.3833 0 0 1 1.9831,1.322 Z" stroke-linecap="round" fill="#e599f7"/></g></g><g transform="matrix(1, 0, 0, 1, 1680.0274, 16258.337)" opacity="1"><g transform="scale(1)"><path d="M1.8085,2.6492 T0.2916,4.5247 -2.9051,8.0251 -7.1526,12.1787 -13.06,16.6656 -16.3996,18.624 A2.4204,2.4204 0 0 1 -18.9604,14.516 T-16.2057,12.6754 -10.7874,8.3281 -6.5852,4.4716 -3.4276,1.3363 -1.8085,-0.4492 A2.3813,2.3813 0 0 1 1.8085,2.6492 Z" stroke-linecap="round" fill="#e599f7"/></g></g><g transform="matrix(1, 0, 0, 1, 1667.8729, 16261.6519)" opacity="1"><g transform="scale(1)"><path d="M2.0351,-1.2204 T2.8225,0.0889 4.552,3.554 6.2238,7.8748 8.3434,12.0747 9.7334,14.1097 A2.4216,2.4216 0 0 1 5.7266,16.8303 T4.0299,14.3196 1.7701,9.8828 0.3642,5.8902 -1.2569,2.522 -2.0351,1.2204 A2.373,2.373 0 0 1 2.0351,-1.2204 Z" stroke-linecap="round" fill="#e599f7"/></g></g><g transform="matrix(1, 0, 0, 1, 1683.3423, 16247.2874)" opacity="1"><g transform="scale(1)"><path d="M2.4364,-1.2182 T3.4579,0.8845 5.3249,4.9458 6.6888,9.1891 8.009,15.4603 9.4554,23.3778 9.6334,29.3654 8.6897,33.1861 8.2126,34.9502 A2.7822,2.7822 0 0 1 2.8274,33.5498 T3.2701,31.7767 3.903,27.0442 3.4971,20.2605 2.4145,14.5088 0.8149,8.9783 -1.3672,3.2968 -2.4364,1.2182 A2.7239,2.7239 0 0 1 2.4364,-1.2182 Z" stroke-linecap="round" fill="#e599f7"/></g></g><g transform="matrix(1, 0, 0, 1, 1635.8291, 16267.1766)" opacity="1"><g transform="scale(1)"><path d="M0.8579,-2.5737 T2.4338,-2.0756 6.4375,-0.84 8.8652,-0.1025 A2.846,2.846 0 0 1 6.8534,5.2221 T4.5579,4.4451 0.7022,3.1209 -0.8579,2.5737 A2.7129,2.7129 0 0 1 0.8579,-2.5737 ZM10.6639,3.0433 T10.6338,3.2208 10.6036,3.3983 A2.8468,2.8468 0 0 1 4.9927,2.431 T5.0237,2.2537 5.0547,2.0763 A2.846,2.846 0 0 1 10.6639,3.0433 ZM8.0986,5.7456 T6.69,5.8981 2.6706,6.0714 0.0598,6.0922 A2.7828,2.7828 0 0 1 -0.0598,0.5278 T2.4368,0.4388 6.2155,0.2167 7.4977,0.0838 A2.8468,2.8468 0 0 1 8.0986,5.7456 Z" stroke-linecap="round" fill="#e599f7"/></g></g><g transform="matrix(1, 0, 0, 1, 1283.3478, 16133.4769)" opacity="1"><g transform="scale(1)"><path d="M-1.3444,1.3444 T-3.1715,-0.4813 -8.6572,-4.2432 -14.4804,-6.891 -19.0635,-8.2334 -24.0663,-9.4613 -28.9788,-10.3646 -33.4682,-10.5674 -37.8054,-10.166 -43.5035,-8.3779 -48.6304,-5.7111 -51.8645,-3.1302 -54.7624,-0.0454 -57.5794,3.4291 -60.3232,7.3098 -62.6917,11.5985 -64.9624,16.2291 -66.8505,21.1579 -68.3063,26.2827 -69.564,31.6004 -71.0057,37.1319 -72.5266,42.6672 -73.8159,47.8582 -75.0181,52.7141 -76.1713,57.3627 -77.01,61.7533 -77.71,66.1603 -78.3411,70.8143 -78.6442,75.4626 -78.536,79.8565 -77.9575,84.3843 -77.1363,89.1193 -75.9565,93.535 -74.3111,98.1142 -72.1927,102.7643 -69.7838,107.2539 -67.2094,111.7059 -64.531,116.1336 -61.757,120.87 -58.7347,125.9239 -55.7699,131.2979 -53.098,136.8426 -50.433,142.2703 -47.7185,147.7412 -45.1737,153.6569 -42.7977,159.6539 -40.7616,165.2013 -39.1517,170.3104 -37.7929,175.1111 -36.5601,179.7392 -35.6219,184.4418 -35.3602,189.6121 -35.7683,194.6282 -36.8564,199.0695 -38.5406,203.3822 -40.911,207.4325 -44.2142,211.1246 -47.8437,214.349 -51.5797,217.3231 -55.7262,220.2412 -59.6656,223.0192 -63.136,225.9144 -66.5354,229.001 -69.9874,232.0152 -74.202,236.331 -78.5177,242.4294 -80.9195,249.8522 -81.5506,256.6886 -81.4376,262.4038 -80.8516,268.6816 -79.5459,275.1895 -77.1262,282.3117 -74.0419,290.318 -70.387,298.3766 -65.8991,306.7076 -60.9182,315.2882 -55.4871,323.3348 -49.5125,331.1628 -43.2436,338.6258 -36.8737,345.3312 -30.268,351.0696 -23.8212,355.5358 -17.4763,358.8453 -10.7053,361.2981 -3.6999,362.8422 3.5334,363.6918 11.1579,363.9262 18.8929,363.316 26.354,362.2325 33.6802,360.8773 40.5304,359.1311 46.5702,356.9461 52.23,354.2656 57.1568,351.3547 61.0619,348.1547 64.8948,344.4057 68.331,340.2479 70.9805,335.7075 73.1154,330.6564 74.4445,325.1815 75.1743,319.5375 75.5906,313.9422 75.5642,308.5505 75.0558,303.2565 74.2969,298.1432 73.1768,293.5583 71.6108,289.2197 69.7416,284.5139 67.5285,279.8016 65.0929,275.2834 62.5197,270.8039 59.6767,266.4647 56.6172,262.0806 53.4407,257.6777 50.2613,253.6008 47.2629,249.8561 44.5047,245.853 42.1884,241.747 39.5698,235.7469 37.4,229.6242 36.5516,225.4755 36.3366,221.3268 37.2214,215.5272 38.8391,209.8825 41.0526,206.1643 45.1925,201.525 50.9136,196.9243 57.1509,193.8632 62.4043,191.9117 67.6356,189.9849 73.0054,187.9214 78.5831,185.5783 83.785,182.9392 87.3103,180.7571 90.8096,178.5182 94.2068,176.2865 98.1694,172.6135 102.3119,167.1525 105.4088,160.9995 107.5002,154.496 108.5879,147.716 108.8872,140.8196 108.3606,134.9803 106.645,129.6425 103.5768,124.2874 98.9158,119.0242 93.4497,113.9633 89.1578,110.0651 84.9352,105.528 80.1077,99.874 76.2161,94.0966 73.1579,88.2021 70.4162,81.9998 68.4078,76.2523 67.3174,71.7827 65.985,66.1862 64.9243,59.4774 64.422,54.2309 63.8825,49.5807 62.9824,44.8579 61.3951,40.1116 59.4054,35.2537 56.7777,30.7728 53.5735,26.2031 49.7145,21.8069 45.1483,18.0874 40.5637,15.0792 36.2715,12.9791 31.3769,11.2517 25.8692,9.6483 20.6621,8.3366 15.5857,7.0435 10.7939,5.8557 6.2808,4.6842 2.8229,3.8569 1.5875,3.6186 A3.6717,3.6717 0 0 1 2.8325,-3.6186 T5.4531,-3.1996 10.3254,-2.2406 14.9133,-1.1452 20.1087,0.076 25.4499,1.526 30.9076,3.1199 36.8016,4.7952 42.1757,7.0001 47.4216,10.1688 52.7088,14.0881 57.7757,18.9415 61.9759,24.2125 65.1583,29.3555 67.8256,34.6488 69.9,40.2015 71.2682,45.7678 72.1307,50.9417 72.7051,55.9323 73.1853,61.1822 74.0739,65.9195 75.3653,71.7108 76.9667,77.5089 78.8553,82.3606 81.0961,87.8171 84.0649,92.9904 87.7643,98.1025 92.46,103.247 96.889,107.1424 101.3201,111.2 105.7264,115.4761 109.8131,120.2632 113.1398,125.4506 114.9098,130.677 116.0559,137.4978 116.1639,144.6507 115.8382,150.446 114.6643,156.3543 112.1632,163.9697 109.6101,169.6403 107.307,173.1227 104.636,176.4057 101.5371,179.6066 98.1182,182.2873 94.6267,184.5288 91.0052,186.8107 85.3206,189.9292 77.709,193.4835 71.9802,195.9753 66.4359,197.9621 59.8222,200.1576 54.377,202.5697 49.6405,206.1816 45.6927,210.9385 43.3396,216.5032 42.7611,222.7905 43.8338,229.6263 46.6833,236.8126 49.7699,242.2015 52.2933,245.8225 55.3498,249.6069 58.6965,253.866 61.9528,258.334 65.149,262.8575 68.226,267.4956 70.9354,272.1165 73.5602,276.9326 75.9953,281.9982 77.9916,286.9159 79.7935,291.9077 81.097,297.0933 81.9571,302.5858 82.5373,308.4951 82.5931,314.4444 82.1691,320.4512 81.3044,326.9046 79.6079,333.4712 76.9978,339.3679 73.6232,344.6962 69.5958,349.3469 65.2168,353.3818 60.4776,357.0179 54.952,360.1408 48.7124,362.959 42.0902,365.2573 34.8318,367.0639 27.2877,368.4832 19.4293,369.6844 10.9839,370.43 2.7775,370.2659 -5.1476,369.3723 -13.0211,367.6086 -20.6074,364.772 -27.6209,361.0155 -34.6212,356.0408 -41.6303,349.8154 -48.1974,342.7495 -54.5756,334.995 -60.6981,326.836 -66.3204,318.4315 -71.4084,309.6806 -76.109,300.9928 -79.9719,292.6259 -83.2187,284.3365 -85.8654,276.4055 -87.2356,269.2305 -87.7601,262.4422 -87.7706,256.2525 -87.3009,250.6465 -86.4064,245.4738 -84.7705,240.9928 -82.482,237.1846 -79.8912,233.8686 -76.9785,230.5806 -73.8038,227.6416 -70.4446,224.7023 -66.8702,221.4462 -63.0582,218.2568 -59.1297,215.4396 -55.2844,212.6949 -51.7898,209.887 -47.5941,205.8219 -44.1467,201.1226 -42.3912,195.6543 -41.3726,189.9088 -41.5531,185.6289 -42.4415,181.3299 -43.6872,176.8113 -45.0481,172.19 -46.6153,167.3549 -48.6243,161.9669 -50.9441,156.1353 -53.3428,150.5105 -56.0416,144.9972 -58.6941,139.4998 -61.158,134.2313 -63.9715,129.0046 -66.9503,123.8612 -69.6128,119.1656 -72.2962,114.6172 -74.9324,109.9711 -77.4477,105.1307 -79.7186,100.0112 -81.4476,94.9737 -82.7037,90.0629 -83.5251,85.0347 -84.0798,79.9669 -84.1385,75.0835 -83.7618,70.0619 -83.1029,65.2883 -82.3516,60.7277 -81.4325,56.0363 -80.2375,51.3856 -78.9675,46.5298 -77.5493,41.227 -75.9163,35.7802 -74.353,30.3905 -72.8795,24.9028 -71.1363,19.4416 -68.9377,14.2008 -66.4247,9.4522 -63.6829,4.8649 -60.697,0.8335 -57.605,-2.7711 -54.2539,-6.1814 -50.5844,-8.9872 -46.7621,-11.2398 -42.6692,-12.8901 -38.1465,-13.9351 -33.3035,-14.3424 -28.3075,-14.0963 -23.1555,-13.1514 -17.9819,-11.8686 -13.1726,-10.4305 -8.4938,-8.6538 -4.2013,-6.3256 -0.4848,-3.175 1.3444,-1.3444 A1.9013,1.9013 0 0 1 -1.3444,1.3444 Z" stroke-linecap="round" fill="#4dabf7"/></g></g><g transform="matrix(1, 0, 0, 1, 1649.0886, 16151.1562)" opacity="1"><g transform="scale(1)"><path d="M-1.4942,-1.2816 T0.0717,-3.0857 2.0148,-7.3339 1.1887,-12.5871 -2.0687,-18.1887 -6.9045,-22.9793 -12.6778,-25.3341 -19.0253,-24.5998 -24.0692,-22.3181 -27.7503,-19.6821 -31.9029,-16.8975 -36.1073,-13.8916 -40.3309,-10.506 -45.0005,-7.0537 -50.0448,-3.3965 -54.9453,0.5566 -59.8713,4.743 -64.8132,9.0436 -69.5139,13.152 -74.0808,17.1435 -78.2269,21.2297 -81.9411,25.4088 -85.1272,29.8378 -87.7981,34.449 -89.9536,39.1417 -91.5447,44.0975 -92.614,49.2202 -93.1491,54.4288 -93.4162,59.7825 -93.2791,64.833 -92.9259,69.8468 -92.4643,75.1025 -91.4598,80.2505 -90.1475,85.5808 -88.6692,91.5879 -86.8742,98.0786 -84.8891,104.9067 -82.7986,112.4772 -80.439,120.3216 -77.9067,128.0943 -75.4995,136.2013 -73.4319,144.187 -71.7978,151.847 -70.3981,159.5618 -69.1255,167.008 -68.173,173.8815 -68.1814,180.4268 -69.2645,186.4891 -70.9674,191.6326 -73.6899,195.9843 -77.5607,199.3339 -81.8617,201.6003 -86.5539,203.2642 -91.6748,204.6266 -96.5819,206.0513 -101.1278,207.7843 -105.3064,209.7004 -108.866,212.1232 -112.166,215.3725 -115.1747,219.1148 -117.7369,223.1137 -119.7717,227.4365 -121.2755,232.1981 -122.5677,237.3281 -123.7318,242.8891 -124.8247,248.9415 -125.8978,255.2727 -126.7009,262.1456 -127.3803,269.9265 -128.0121,278.7362 -128.3504,288.5186 -128.5506,298.91 -128.4121,309.2845 -127.8309,319.92 -126.7625,330.6889 -125.1549,341.5352 -123.2349,352.7447 -120.9012,363.5258 -118.0906,373.8214 -114.7651,383.8698 -110.9393,393.2171 -106.8423,401.7284 -102.6268,409.2485 -98.3625,415.7205 -93.883,421.3504 -89.0471,426.3008 -84.0685,430.3863 -78.5906,433.4585 -72.3895,436.1479 -65.5743,438.3684 -58.0961,440.3389 -50.2229,442.1926 -42.1585,443.9682 -34.0646,445.4 -25.959,446.3509 -18.2774,447.0747 -11.2946,447.1328 -4.617,446.5972 1.4958,445.3111 7.0505,443.137 12.1546,440.2782 16.7766,436.7963 21.241,432.7082 25.3141,428.104 28.6736,423.2522 31.4361,417.9971 33.6539,412.4906 35.0498,406.9513 35.7896,400.8091 36.2201,394.1661 36.4664,387.5149 36.3615,380.4563 35.8168,373.1862 35.0272,365.9524 33.8526,358.2864 32.2182,350.696 30.3173,343.31 28.2632,335.7385 26.1493,328.3757 24.2477,321.5735 22.4925,315.4047 20.8104,309.8273 19.3872,304.7149 18.1233,299.9205 17.1711,295.1544 16.6516,290.399 16.1386,285.6647 15.5957,280.5513 15.2866,275.3758 15.3874,270.1606 15.699,265.3 16.4252,260.7349 17.621,256.3111 19.1189,252.5434 22.5349,247.8223 26.5761,243.6366 29.8558,241.3587 33.4764,239.3173 37.2181,237.4486 41.1592,235.864 45.2301,234.2639 49.4561,232.628 53.9275,231.1822 58.2165,229.6843 62.5642,228.1005 67.2599,226.4572 72.0792,224.8038 76.6579,223.1679 81.3361,221.2943 86.1567,219.2593 90.3955,217.1921 94.3188,214.8647 97.9859,211.9801 101.4109,208.6907 104.7281,204.9501 107.9762,200.7125 111.2878,196.1288 114.2188,191.0693 116.776,185.6362 119.2025,179.9001 121.5337,173.7943 123.5343,167.5512 125.1003,161.4699 126.4707,155.6305 127.444,149.8313 127.9585,144.0348 128.257,138.1004 128.4295,132.1028 128.2752,126.1836 127.6932,120.3175 126.8873,114.9059 125.7285,110.1302 124.1251,105.6649 122.4797,101.403 120.826,97.3344 118.9711,93.5088 116.9825,89.9923 114.7097,86.6982 110.969,82.6203 106.8987,78.6316 102.1265,74.4279 97.1826,70.5289 93.5497,67.8031 89.993,64.9887 86.5598,62.1876 83.1878,59.3986 79.9503,56.9565 76.754,54.1925 72.747,50.152 68.036,45.4052 63.928,41.2895 60.4159,36.6506 57.8544,31.3962 56.5063,25.6632 55.9247,19.5003 55.7641,13.8202 56.1067,7.9671 56.5836,2.218 56.7037,-3.6187 56.5054,-9.2326 55.4966,-13.9306 53.7983,-17.9633 51.4248,-21.5154 47.9517,-24.8609 43.9762,-27.0929 39.8012,-28.3679 34.8617,-29.1235 30.3109,-28.0635 26.8742,-25.2447 23.9032,-20.9726 21.4379,-15.5974 19.0014,-10.6475 16.0176,-6.2416 12.7827,-1.53 8.8806,2.5017 4.4884,4.3725 0.2414,4.4889 -3.867,3.2953 -8.1039,0.3999 -12.2108,-3.8777 -14.0156,-6.2258 A2.3965,2.3965 0 0 1 -10.2844,-9.2342 T-9.3423,-8.1351 -6.6984,-5.3697 -2.7787,-2.358 1.4463,-0.946 5.5628,-2.2051 9.4375,-6.1657 12.7094,-10.7476 15.2712,-15.0912 17.5256,-20.4344 20.0311,-25.4173 22.8757,-29.0356 26.0925,-31.8625 29.9519,-33.9423 35.1206,-34.6897 40.7964,-33.8888 45.6803,-32.4411 49.9726,-30.1756 54.2972,-26.5292 57.7689,-22.5475 60.0615,-18.1667 61.8405,-12.4729 62.556,-6.5623 62.4761,-0.7346 62.1727,5.3611 61.6922,11.1358 61.4832,16.641 61.6769,22.0383 62.4716,27.05 63.9852,31.4572 66.3995,35.528 69.9189,39.5214 74.2433,43.8503 79.0882,48.7288 83.3007,52.4848 86.7508,55.0433 90.1179,57.7759 93.5219,60.4976 96.9884,63.2087 100.7315,66.0043 104.3521,68.8309 107.5935,71.6167 110.7689,74.4209 115.0935,78.7606 119.3482,83.539 121.8575,87.2522 123.9885,91.0814 125.9836,95.2441 127.6685,99.3954 129.3782,103.7844 131.1614,108.7875 132.4617,114.0441 133.3512,119.735 134.0118,126.0148 134.2317,132.2377 134.1181,138.3663 133.8738,144.5365 133.3581,150.8041 132.3767,156.9828 131.0342,162.9669 129.436,169.4032 127.4068,175.9988 125.0624,182.3536 122.5838,188.3605 119.8005,194.3052 116.5649,199.9303 113.1383,204.7072 109.5514,209.3011 105.8494,213.397 101.906,217.0434 97.5419,220.3729 93.1725,222.8989 88.6138,225.0869 83.6785,227.1592 78.7754,229.1122 74.1034,230.7705 69.3034,232.3878 64.6678,233.9712 60.2304,235.5394 55.7836,237.0515 51.6127,238.3376 47.3739,239.9019 41.634,242.1191 34.8702,245.1267 29.1497,248.9116 25.0579,253.4646 22.368,259.7061 21.15,265.6724 20.8236,270.2739 20.7008,275.0793 20.9548,279.9877 21.4804,285.0873 22.0075,289.8148 22.4746,294.0831 23.3942,298.5054 24.6861,303.2122 26.129,308.1944 27.902,313.8377 29.7229,320.0393 31.6364,326.7922 33.7909,334.2368 35.8692,341.8743 37.8425,349.463 39.5924,357.39 40.8725,365.284 41.7611,372.7039 42.4172,380.3508 42.6073,387.7129 42.4172,394.5408 42.0194,401.5734 41.1876,408.4925 39.6014,414.8489 37.1568,421.001 34.052,426.9544 30.2452,432.466 25.6743,437.6089 20.6744,442.0987 15.2719,445.9719 9.2882,449.1357 2.7341,451.4428 -4.2124,452.7091 -11.4101,453.0498 -18.855,452.7871 -26.6489,451.915 -35.0203,450.8247 -43.3197,449.3707 -51.4812,447.6538 -59.5159,445.8603 -67.3514,443.8899 -74.7224,441.6032 -81.5552,438.711 -87.912,435.159 -93.4887,430.6421 -98.7643,425.2196 -103.5539,419.1007 -107.9565,412.2095 -112.2525,404.2902 -116.3723,395.4061 -120.2038,385.63 -123.4742,375.2592 -126.2328,364.6608 -128.5159,353.6377 -130.4022,342.3122 -132.05,331.2295 -133.1919,320.2227 -133.8337,309.3737 -134.0326,298.816 -133.8767,288.3274 -133.5392,278.3245 -132.8887,269.4265 -132.1312,261.4584 -131.2039,254.3153 -129.981,247.9357 -128.6915,241.7703 -127.3185,236.0487 -125.7799,230.6748 -123.896,225.4225 -121.486,220.6613 -118.5848,216.3446 -115.1936,212.2421 -111.313,208.5396 -107.198,205.7054 -102.7641,203.5968 -97.9146,201.6597 -92.9277,200.0876 -88.1959,198.7433 -84.11,197.2545 -79.4055,194.2051 -75.7216,189.9565 -74.2103,185.5227 -73.1617,180.3585 -73.0921,174.5225 -73.9752,167.8199 -75.1893,160.4191 -76.5249,152.8496 -78.0973,145.3923 -80.1308,137.5896 -82.5346,129.6226 -85.1644,121.7664 -87.6365,113.8303 -89.751,106.3291 -91.7779,99.4392 -93.6289,92.797 -95.1018,86.7725 -96.4185,81.1739 -97.4319,75.5016 -97.8196,70.1432 -98.0816,64.9341 -98.1247,59.5078 -97.7463,53.9119 -97.0567,48.2609 -95.8021,42.695 -93.9707,37.2866 -91.6155,32.2306 -88.707,27.2738 -85.273,22.4685 -81.3799,18.0468 -77.0414,13.7469 -72.4554,9.7596 -67.7224,5.675 -62.6978,1.376 -57.6335,-2.8215 -52.4983,-6.8428 -47.4303,-10.3923 -42.8291,-13.6769 -38.3825,-17.1241 -34.0691,-20.1457 -29.9932,-22.848 -25.9945,-25.6602 -19.855,-28.2923 -13.5213,-29.5491 -7.8309,-27.9234 -2.7662,-24.987 0.1801,-22.0866 3.3926,-17.0475 5.7412,-11.6618 5.4588,-6.0876 3.0643,-0.5706 1.4942,1.2816 A1.9685,1.9685 0 0 1 -1.4942,-1.2816 Z" stroke-linecap="round" fill="#ffc034"/></g></g><g transform="matrix(1, 0, 0, 1, 1874.4998, 16047.2902)" opacity="1"><g transform="scale(1)"><path d="M-3.3734,0.6722 T-3.56,-0.5003 -5.7496,-1.7355 -9.4643,0.4983 -10.7374,5.0939 -7.6007,7.9269 -2.3235,7.2444 1.4255,4.4195 2.0123,2.0759 1.4291,1.3407 A3.3405,3.3405 0 0 1 7.6703,-1.0434 T7.7407,3.2116 5.666,9.7755 0.7224,13.4956 -5.2554,15.0174 -11.183,14.1677 -15.6837,11.0031 -17.7606,5.5007 -16.9547,-0.3364 -13.9237,-5.0721 -9.5177,-8.2078 -3.8609,-8.4274 0.9982,-5.6287 3.0397,-2.1107 3.3734,-0.6722 A3.4397,3.4397 0 0 1 -3.3734,0.6722 ZM6.5834,2.7988 T6.288,3.021 5.9927,3.2432 A3.3334,3.3334 0 0 1 1.934,-2.0459 T2.225,-2.2737 2.516,-2.5015 A3.3405,3.3405 0 0 1 6.5834,2.7988 ZM7.204,-0.1821 T7.6123,1.5192 8.9276,5.5921 11.4858,11.1806 15.0825,18.1664 18.4038,25.5425 20.2064,31.4199 20.6781,37.7441 19.8323,44.9687 16.5208,51.2128 12.3631,55.3986 8.5391,57.3486 4.0872,58.6299 -0.9561,58.6921 -6.1805,57.161 -10.5374,54.8096 -14.1505,52.3992 -15.9526,51.1907 A3.0241,3.0241 0 0 1 -12.7674,46.0493 T-10.8829,47.1246 -5.7514,49.8044 0.605,51.3591 6.2822,50.0799 10.3108,47.2199 12.4769,43.3167 13.2251,37.9816 12.4502,31.5636 10.344,24.7354 8.0299,19.4973 6.0312,15.8757 4.2576,12.1246 2.5316,7.632 1.1645,3.2068 0.7226,1.3794 A3.3334,3.3334 0 0 1 7.204,-0.1821 Z" stroke-linecap="round" fill="#ffc034"/></g></g><g transform="matrix(1, 0, 0, 1, 1630.3043, 16309.165)" opacity="1"><g transform="scale(1)"><path d="M2.2415,1.7948 T1.1481,3.0919 -2.9765,5.581 -8.2123,4.8066 -10.4404,0.3654 -7.8819,-3.6844 -3.0986,-5.2301 0.9425,-4.2002 3.32,-0.7412 1.6523,3.4893 -2.8863,5.5457 -7.5394,4.3964 -9.8595,2.9627 A2.7331,2.7331 0 0 1 -5.7806,-0.6763 T-5.0083,0.0784 -3.2387,-0.4809 -2.2415,-1.7948 A2.8716,2.8716 0 0 1 2.2415,1.7948 ZM-10.1164,-0.3389 T-9.2222,-1.5936 -5.0261,-3.4192 0.187,-2.5798 2.0982,-1.1694 A2.8782,2.8782 0 0 1 -1.808,3.0589 T-3.1755,1.9516 -5.0334,1.7348 -5.5237,2.6253 A2.7331,2.7331 0 0 1 -10.1164,-0.3389 ZM1.8535,3.2612 T0.7454,4.0683 -3.8323,5.4558 -7.302,6.0362 A2.7596,2.7596 0 0 1 -8.158,0.5838 T-5.6972,0.2331 -2.3998,-0.7446 -1.5632,-1.3717 A2.8782,2.8782 0 0 1 1.8535,3.2612 Z" stroke-linecap="round" fill="#e599f7"/></g></g><g transform="matrix(1, 0, 0, 1, 1643.5638, 16310.27)" opacity="1"><g transform="scale(1)"><path d="M-0.7983,-2.7922 T1.0336,-3.2931 6.5074,-5.2497 13.9404,-8.3445 19.7421,-10.8812 23.8581,-12.7859 28.57,-14.6735 33.3976,-16.478 37.8298,-18.413 42.8822,-20.5331 48.2953,-22.5047 53.7474,-24.3299 59.711,-26.3303 65.6847,-28.4202 71.4027,-30.5543 77.3313,-32.7532 83.7513,-34.7626 90.2618,-36.6197 96.701,-38.6235 103.228,-40.7363 109.9209,-42.6866 116.5761,-44.5233 123.2162,-46.2921 130.1414,-48.0243 137.0618,-49.9547 143.9361,-51.7908 150.8231,-53.3171 157.8763,-54.6494 164.7049,-55.8769 171.154,-57.0559 177.7107,-58.2195 184.01,-59.3717 190.3528,-60.2853 196.854,-61.0527 202.9754,-61.9688 209.2345,-62.7443 215.4071,-63.427 221.263,-64.049 227.138,-64.3908 232.853,-64.5694 238.4796,-64.6639 244.0596,-64.7097 249.8008,-64.47 255.3952,-63.8191 260.4761,-62.9572 265.2638,-61.9955 269.8891,-60.9924 274.424,-59.9606 278.9102,-58.9138 283.3673,-57.8477 287.8069,-56.7606 292.6463,-55.3578 297.7487,-53.489 302.5758,-51.4095 307.2065,-49.2525 311.7346,-47.063 316.0479,-44.8159 320.3256,-42.2385 324.4273,-39.5724 328.104,-37.1717 331.7723,-34.94 335.574,-32.2552 340.5879,-28.356 346.5061,-24.2786 352.1277,-20.1874 357.1971,-16.1504 361.3504,-13.0523 365.6185,-10.6053 369.0109,-8.9738 370.0178,-8.4352 A4.5131,4.5131 0 0 1 365.7813,-0.465 T363.7695,-1.537 359.7903,-3.5662 355.7554,-6.0325 351.3566,-9.3646 346.7497,-13.1284 341.5069,-17.0219 336.8555,-20.2153 332.2541,-23.9564 327.2586,-27.6768 323.4155,-30.0824 319.7859,-32.5141 315.9741,-35.0507 312.1739,-37.382 308.1058,-39.486 303.6768,-41.5857 299.2454,-43.6005 294.811,-45.4703 290.2735,-47.1281 285.7426,-48.4502 281.3229,-49.5628 276.9037,-50.687 272.4808,-51.8129 268.0447,-52.9205 263.5814,-53.9933 259.0573,-54.9871 254.4032,-55.8524 249.459,-56.4953 244.1245,-56.7269 238.6057,-56.68 233.0897,-56.5985 227.579,-56.4429 222.0705,-56.1509 216.2438,-55.5702 210.1658,-54.9578 204.0841,-54.2633 197.7024,-53.3861 191.3927,-52.7344 185.3274,-51.9425 178.9872,-50.8547 172.465,-49.7514 165.9976,-48.6123 159.2308,-47.4248 152.3876,-46.158 145.7942,-44.7361 138.9903,-42.9613 131.8571,-41.0198 125.013,-39.3719 118.4137,-37.6978 111.839,-35.9723 105.3292,-34.143 98.7048,-32.0635 92.0902,-30.0797 85.7317,-28.3372 79.6338,-26.4869 73.7106,-24.3329 67.8534,-22.1743 61.7806,-20.0856 55.7905,-18.1242 50.4613,-16.3987 45.3343,-14.6126 40.3043,-12.5823 35.5225,-10.6089 30.8003,-8.964 26.3219,-7.2772 21.9292,-5.3704 17.8608,-3.8104 12.1607,-1.6053 6.3919,0.8285 2.6227,2.2477 0.7983,2.7922 A2.9041,2.9041 0 0 1 -0.7983,-2.7922 ZM363.5391,-5.614 T363.959,-6.9007 364.6082,-11.4418 364.5523,-16.2629 364.2672,-17.8296 A4.0576,4.0576 0 0 1 372.2355,-19.3662 T372.731,-15.5692 373.1615,-9.3826 372.6783,-5.1396 372.26,-3.2862 A4.5131,4.5131 0 0 1 363.5391,-5.614 ZM371.9654,-20.232 T372.4639,-18.9993 373.7369,-15.4283 375.2655,-10.8697 376.8422,-5.2795 377.8895,1.5616 377.8804,8.3017 376.1601,14.6568 372.7873,19.4975 367.1107,21.4996 360.4331,19.7562 356.2935,16.7204 355.0414,15.6755 A3.0478,3.0478 0 0 1 358.7586,10.8445 T360.0895,11.7871 364.0303,14.1456 368.2035,14.0404 370.2843,10.2894 370.6834,5.158 370.2303,-0.484 368.9025,-5.9972 366.8292,-11.5895 365.1432,-15.6865 364.5374,-16.9639 A4.0576,4.0576 0 0 1 371.9654,-20.232 Z" stroke-linecap="round" fill="#ffc034"/></g></g><g transform="matrix(1, 0, 0, 1, 2028.0889, 16352.2583)" opacity="1"><g transform="scale(1)"><path d="M-1.0565,2.113 T-2.1054,1.5606 -4.3375,-1.3198 -5.5207,-3.6479 A2.274,2.274 0 0 1 -0.9754,-3.8049 T-1.0012,-3.4519 0.0147,-2.6059 1.0565,-2.113 A2.3624,2.3624 0 0 1 -1.0565,2.113 ZM-4.7636,-5.4217 T-3.9885,-6.111 -0.7314,-7.3463 3.7409,-5.8229 5.7677,-2.5416 5.804,-1.3296 A2.3657,2.3657 0 0 1 1.0915,-1.7511 T0.4407,-2.5752 -0.9713,-2.7151 -1.7325,-2.031 A2.274,2.274 0 0 1 -4.7636,-5.4217 ZM4.8861,0.3378 T4.0698,0.9698 0.9786,2.2877 -3.3571,1.6559 -5.418,0.3383 A2.3603,2.3603 0 0 1 -1.7085,-2.581 T-0.664,-2.3829 1.1949,-2.8016 2.0094,-3.4185 A2.3657,2.3657 0 0 1 4.8861,0.3378 ZM-4.8439,-3.104 T-3.7664,-3.7969 -0.0471,-4.703 4.9052,-3.0732 7.1063,1.437 4.6907,5.317 -0.1256,6.1772 -2.6356,5.8248 A2.5506,2.5506 0 0 1 -1.7844,0.7952 T-1.0882,0.2146 -1.3373,0.2476 -2.2826,0.8612 A2.3603,2.3603 0 0 1 -4.8439,-3.104 Z" stroke-linecap="round" fill="#ffc034"/></g></g><g transform="matrix(1, 0, 0, 1, 2067.8673, 16313.5848)" opacity="1"><g transform="scale(1)"><path d="M-2.2112,0 T-2.2045,-2.087 -3.2082,-6.0674 -6.6243,-7.0053 -10.6008,-3.8029 -12.5384,0.7121 -11.1299,4.613 -7.2428,5.8149 -3.0657,3.7682 -1.0357,0.0406 -1.0706,-2.0711 A2.1751,2.1751 0 0 1 3.2706,-2.3489 T3.3398,-0.1372 1.9394,4.3977 -1.5042,8.127 -5.7044,10.1916 -10.2357,10.475 -14.295,8.5581 -16.6728,4.7436 -16.7027,-0.5451 -14.7272,-5.6245 -11.4537,-9.3221 -6.4016,-11.6179 -1.3348,-10.8615 1.3846,-6.816 2.2045,-2.0943 2.2112,0 A2.2112,2.2112 0 0 1 -2.2112,0 ZM3.2744,-2.2645 T3.303,-0.855 3.9124,3.1924 5.4738,7.8614 7.5141,11.5978 9.3076,15.157 10.8849,19.2336 11.9711,23.7339 10.7626,29.0338 6.8506,33.8171 1.875,36.0568 -3.3749,35.9036 -8.9432,33.1061 -13.263,29.607 -14.7495,28.274 A2.3012,2.3012 0 0 1 -11.7705,24.766 T-10.2143,26.0169 -6.5581,28.8506 -1.8862,30.8214 2.9423,30.2021 6.2224,26.6113 6.5233,21.6077 4.6506,16.484 2.4057,11.7302 0.4158,7.5229 -0.7409,2.7702 -1.0384,-0.9904 -1.0744,-2.1555 A2.1751,2.1751 0 0 1 3.2744,-2.2645 Z" stroke-linecap="round" fill="#ffc034"/></g></g><g transform="matrix(1, 0, 0, 1, 2093.2813, 16279.3312)" opacity="1"><g transform="scale(1)"><path d="M-2.2875,0 T-2.283,-1.0453 -2.2784,-2.0907 A2.2784,2.2784 0 0 1 2.2784,-2.0907 T2.283,-1.0453 2.2875,0 A2.2875,2.2875 0 0 1 -2.2875,0 ZM-0.1229,0.1844 T-0.6455,0.1552 -1.1681,0.1259 A2.2763,2.2763 0 0 1 -0.9226,-4.4201 T-0.3999,-4.3929 0.1229,-4.3658 A2.2784,2.2784 0 0 1 -0.1229,0.1844 ZM0.5208,-0.4952 T-0.0084,0.0047 -1.8233,2.7769 -4.6737,7.9336 -6.8079,13.009 -7.9695,17.4881 -9.0021,23.4185 -9.3003,30.4144 -8.3259,37.2485 -6.5459,42.9639 -4.4697,47.4631 -3.3412,49.7275 A2.4419,2.4419 0 0 1 -7.6988,51.9325 T-8.3069,50.7479 -10.0503,47.3153 -12.1619,41.6611 -13.5165,36.2546 -14.0995,31.9749 -14.0269,26.2537 -13.4065,20.7072 -12.4552,16.2946 -11.1257,11.4237 -8.7476,5.8293 -5.393,0.0151 -3.1535,-3.2833 -2.6115,-3.799 A2.2763,2.2763 0 0 1 0.5208,-0.4952 Z" stroke-linecap="round" fill="#ffc034"/></g></g><g transform="matrix(1, 0, 0, 1, 2109.8557, 16297.0105)" opacity="1"><g transform="scale(1)"><path d="M-1.9698,-0.218 T-1.7073,-2.5651 -2.029,-6.8677 -3.9012,-6.8766 -5.4225,-2.1961 -5.4549,2.755 -4.4456,6.9588 -2.8152,10.8553 -0.6363,15.039 1.2288,19.723 0.3222,24.7854 -3.5063,28.6778 -8.2938,29.5432 -12.6795,28.2134 -16.0052,26.7047 -17.3187,26.1511 A1.9876,1.9876 0 0 1 -15.8213,22.4689 T-13.1939,23.5059 -8.0652,25.0287 -4.0347,23.2855 -3.3856,18.7622 -5.776,13.4969 -8.1994,8.2167 -9.3633,3.1564 -9.2929,-2.8245 -7.9307,-8.2556 -5.0217,-11.6928 -1.1712,-11.8598 1.6484,-7.6411 2.2276,-2.1366 1.9698,0.218 A1.9819,1.9819 0 0 1 -1.9698,-0.218 Z" stroke-linecap="round" fill="#ffc034"/></g></g><g transform="matrix(1, 0, 0, 1, 2108.7507, 16310.27)" opacity="1"><g transform="scale(1)"><path d="M0.3582,3.2397 T-1.2062,3.5025 -4.9316,4.365 -8.3138,5.1928 -9.5352,5.421 A2.1494,2.1494 0 0 1 -10.3448,1.199 T-9.1256,0.9592 -5.7039,0.1021 -1.9298,-0.7774 -0.3582,-1.0397 A2.1695,2.1695 0 0 1 0.3582,3.2397 Z" stroke-linecap="round" fill="#ffc034"/></g></g><g transform="matrix(1, 0, 0, 1, 2124.2201, 16290.3807)" opacity="1"><g transform="scale(1)"><path d="M2.1701,0.36 T1.8959,1.9293 0.6658,5.9226 -1.3533,10.5824 -3.0644,14.9382 -4.0193,20.3068 -3.3155,25.6799 -1.515,28.6508 -0.7255,29.4974 A2.07,2.07 0 0 1 -3.6945,32.3826 T-4.5181,31.5693 -6.758,28.5616 -8.3493,23.4423 -8.1236,18.0489 -6.9938,13.2849 -5.2484,8.8208 -3.4471,4.7128 -2.4162,1.2067 -2.1701,-0.36 A2.1998,2.1998 0 0 1 2.1701,0.36 Z" stroke-linecap="round" fill="#ffc034"/></g></g><g transform="matrix(1, 0, 0, 1, 2139.6895, 16298.1154)" opacity="1"><g transform="scale(1)"><path d="M1.9431,0.6477 T1.4477,2.2262 -0.4416,6.4753 -3.1471,11.1751 -7.0272,15.6441 -9.5956,18.0841 A2.0994,2.0994 0 0 1 -12.5044,15.0559 T-10.3667,12.9754 -6.9231,8.8989 -4.3301,4.6851 -2.493,0.9098 -1.9431,-0.6477 A2.0482,2.0482 0 0 1 1.9431,0.6477 Z" stroke-linecap="round" fill="#ffc034"/></g></g><g transform="matrix(1, 0, 0, 1, 2129.7449, 16303.6402)" opacity="1"><g transform="scale(1)"><path d="M2.6976,-1.2 T3.4988,-0.1633 5.7131,3.5708 8.3794,9.9846 9.6328,13.701 A2.0137,2.0137 0 0 1 5.8272,15.019 T4.6042,11.5845 2.2109,5.729 0.2715,2.2539 -0.4976,1.2 A1.998,1.998 0 0 1 2.6976,-1.2 Z" stroke-linecap="round" fill="#ffc034"/></g></g><g transform="matrix(1, 0, 0, 1, 2143.0044, 16291.4857)" opacity="1"><g transform="scale(1)"><path d="M2.0648,-0.9182 T3.0935,1.44 5.6379,7.3124 7.8516,13.718 8.8374,20.3082 8.2544,26.4749 5.5657,30.7392 3.7477,32.5356 A2.2159,2.2159 0 0 1 0.6723,29.3444 T1.4913,28.5321 3.4163,25.7336 4.3264,20.683 3.5811,15.0477 1.5454,9.0409 -1.0029,3.2616 -2.0648,0.9182 A2.2597,2.2597 0 0 1 2.0648,-0.9182 Z" stroke-linecap="round" fill="#ffc034"/></g></g><g transform="matrix(1, 0, 0, 1, 2154.054, 16285.9609)" opacity="1"><g transform="scale(1)"><path d="M2.219,-0.9502 T2.9876,0.8844 4.7044,6.0827 6.3276,13.3121 7.3656,21.1938 7.7977,27.8803 7.6196,32.6567 6.3361,36.9425 3.8377,40.7908 0.9316,44.0593 -0.5123,45.6592 A2.2386,2.2386 0 0 1 -3.9077,42.7408 T-1.4844,39.8088 1.9277,33.7644 2.8705,28.064 2.5542,21.79 1.6662,14.3401 0.2118,7.5849 -1.422,2.7719 -2.219,0.9502 A2.4138,2.4138 0 0 1 2.219,-0.9502 Z" stroke-linecap="round" fill="#ffc034"/></g></g><g transform="matrix(1, 0, 0, 1, 2029.1938, 16166.6256)" opacity="1"><g transform="scale(1)"><path d="M0.1935,1.7482 T-2.1586,1.9959 -6.745,2.6121 -11.2025,3.4413 -15.7343,4.1675 -20.4863,4.8305 -25.5247,5.7054 -30.5151,6.6959 -35.4136,7.9982 -40.2532,9.722 -44.7893,11.8915 -49.1376,14.779 -53.1669,18.3076 -56.5191,22.1573 -59.2608,26.4306 -61.7239,31.2516 -63.7667,36.3383 -65.3058,41.8013 -66.6078,48.0447 -67.7841,54.7418 -68.8905,61.1861 -69.6936,67.1184 -70.0891,72.4987 -70.2832,77.9331 -70.3649,83.4033 -70.3872,88.9015 -70.1232,94.5569 -69.7045,100.4177 -69.2095,106.653 -68.4199,113.2401 -67.4847,119.8333 -66.4801,126.1703 -65.429,132.3824 -64.3603,137.9676 -63.5162,143.3824 -62.7973,149.1473 -61.9114,154.6543 -60.9195,160.1752 -60.114,166.3694 -59.6847,172.6077 -59.4639,178.5025 -59.3372,184.4871 -59.2563,190.7789 -59.4687,197.0868 -60.1017,203.3979 -61.2282,209.9607 -63.184,216.5251 -65.7986,223.1728 -69.0525,229.8936 -72.9116,236.418 -77.0092,242.949 -81.2875,249.3107 -85.979,255.3839 -91.1659,261.0478 -96.5144,266.3784 -101.8981,271.7493 -107.6589,277.2391 -113.8766,282.788 -120.1889,288.7635 -126.598,295.2715 -132.8497,301.8426 -138.4048,308.3491 -143.3798,314.8521 -148.0951,321.4044 -152.3638,327.9219 -156.1108,334.6435 -159.6295,341.8029 -162.7418,349.3882 -165.3824,357.4621 -167.5404,366.0642 -168.9051,375.128 -169.6287,384.7896 -169.5159,394.6937 -168.1889,404.6714 -165.966,414.5489 -162.7781,423.7709 -158.3348,432.3305 -152.9141,440.4146 -146.946,448.0228 -140.1973,455.3239 -132.3491,462.1511 -123.6329,468.2745 -114.398,473.8355 -104.7134,478.523 -94.5456,482.2539 -84.1737,484.7276 -73.6269,486.0375 -62.7257,486.2338 -51.36,485.3173 -39.9423,483.5648 -29.1123,480.8596 -19.0036,477.6262 -9.2411,474.0981 0.2126,469.9407 9.2315,464.9483 17.5177,459.2662 24.9047,452.977 31.8232,445.609 38.0129,437.6456 43.0382,429.657 47.2047,421.3842 50.4137,413.2441 52.3121,405.5299 53.3115,398.1769 53.8527,390.9235 53.8808,383.8258 53.3812,376.7908 52.3663,369.7981 50.8144,362.8064 48.9547,355.4373 47.1795,348.0809 45.4677,341.0941 43.7727,333.9889 42.3372,327.0267 41.3075,320.3902 40.7495,313.8866 40.4678,307.8464 40.5993,301.9072 41.4967,295.9007 43.0547,290.0001 44.948,284.5001 47.0119,279.4609 49.2136,275.0874 51.4514,271.3875 54.0584,267.9662 57.1759,264.896 60.546,262.3908 65.6576,259.3819 71.0602,256.7095 76.8798,254.3186 83.1215,252.0013 87.9014,250.7003 92.4591,249.5064 97.2547,248.342 102.434,247.2043 107.477,246.0964 112.3371,244.764 117.0969,243.0734 121.6497,241.1684 126.1348,239.1274 130.7911,236.7809 135.2636,234.2805 139.3886,231.7026 143.8434,228.5677 148.2169,225.1449 152.2954,221.5718 156.1948,217.6874 159.6966,213.4361 163.0724,208.6588 166.4384,203.5289 169.4979,198.5139 172.1004,193.6276 174.4888,188.5066 176.803,183.1976 178.7599,177.69 180.5554,171.461 182.3038,164.7711 183.7317,158.1898 185.0106,151.5884 185.9317,145.3434 186.4008,139.5539 186.6519,133.9042 186.5297,128.4637 185.9597,123.1281 185.401,117.563 184.6165,112.1522 183.4359,106.536 182.0341,100.3949 180.5181,94.3159 178.9467,88.531 177.105,82.9925 175.0878,77.4631 172.7667,72.0469 170.2614,66.8957 167.6375,61.8263 164.7136,56.5927 161.6034,51.2171 158.134,45.5541 154.236,39.8015 150.1605,34.5367 145.9805,29.7314 141.7026,25.107 137.711,21.1672 133.8754,17.838 129.7843,14.49 125.6517,11.4688 121.4969,8.8858 117.5569,6.7583 113.8433,4.8124 108.7003,2.3594 102.341,-0.2617 96.3852,-2.6246 90.8629,-4.4257 85.6313,-5.6521 80.356,-6.7624 74.7601,-7.5549 68.9395,-8.2805 62.9328,-8.8775 57.0097,-9.0294 51.0783,-9.4813 45.0508,-10.0036 39.5466,-10.1399 34.5721,-9.7757 29.3061,-8.6478 23.2576,-6.9238 16.1378,-5.4952 8.8269,-4.7979 3.4956,-4.2645 1.5583,-3.9912 A2.6783,2.6783 0 0 1 0.6417,-9.2688 T4.4628,-10.0495 11.8008,-11.1025 18.4024,-12.149 24.817,-13.8684 31.0737,-15.2704 36.7604,-16.0031 42.4993,-16.2158 48.5108,-15.9149 54.3996,-15.4144 60.3029,-15.0734 66.6855,-14.7017 72.8356,-14.0131 78.6993,-13.0395 84.479,-11.8666 89.7461,-10.6177 95.3201,-9.0415 101.287,-6.9674 107.7008,-4.4807 114.7525,-1.3377 120.365,1.4398 124.675,3.6995 129.237,6.4616 133.7106,9.6157 138.0157,13.0312 142.1782,16.5855 146.4252,20.7439 150.8426,25.5354 155.2277,30.6629 159.4707,36.3118 163.4232,42.3466 166.9162,48.1459 170.0704,53.6062 173.0829,59.0164 175.7726,64.2263 178.3868,69.6497 180.8259,75.3778 182.8869,81.0773 184.8164,86.9282 186.4341,92.8375 187.9896,99.0308 189.4363,105.2718 190.6899,111.2498 191.5538,116.9254 192.1393,122.4791 192.7441,128.3243 192.8676,134.182 192.5978,140.0622 192.0782,146.2333 191.1233,152.7662 189.8298,159.5063 188.3601,166.3396 186.5937,173.2032 184.6907,179.7946 182.6092,185.7167 180.2403,191.1909 177.7094,196.6138 174.9443,201.817 171.786,207.0257 168.3076,212.3652 164.6468,217.5362 160.747,222.2444 156.5523,226.4305 152.2188,230.2371 147.5683,233.8796 142.8338,237.2136 138.4524,239.9635 133.7216,242.6095 128.8484,245.0743 124.1817,247.2083 119.2936,249.2585 114.0643,251.1059 108.9002,252.5198 103.8524,253.6433 98.8056,254.7564 94.1144,255.8791 89.6013,257.0417 83.269,258.8758 77.2473,261.0548 72.0398,263.2871 65.7569,266.3661 60.1288,270.4836 55.4662,276.0927 52.3785,281.6774 50.4216,286.4017 48.6527,291.4943 47.2286,296.7629 46.4343,302.0328 46.3358,307.5731 46.6137,313.3977 47.1177,319.4904 48.1032,325.8419 49.4953,332.6196 51.1823,339.6852 52.9169,346.6904 54.7017,353.9829 56.6174,361.5219 58.2623,368.9341 59.3464,376.3758 59.8588,383.8419 59.8237,391.3719 59.2487,398.9866 58.1302,406.9576 56.0097,415.4236 52.589,424.1012 48.1426,432.8682 42.7751,441.3452 36.1913,449.7445 28.7892,457.5568 20.9036,464.2044 12.1108,470.1729 2.6069,475.3866 -7.219,479.6904 -17.1843,483.2965 -27.6542,486.6533 -39.017,489.5065 -50.8718,491.3633 -62.8346,492.341 -74.381,492.1646 -85.6064,490.7839 -96.7125,488.152 -107.4645,484.1784 -117.6405,479.2007 -127.2436,473.3598 -136.4211,466.7779 -144.6837,459.4141 -151.6502,451.6887 -157.8224,443.6812 -163.5369,435.0226 -168.3218,425.697 -171.7306,415.8625 -174.0911,405.448 -175.5105,394.7729 -175.6457,384.3268 -174.8565,374.2126 -173.3504,364.5903 -171.0573,355.5867 -168.2317,347.1182 -164.9388,339.1818 -161.2577,331.7605 -157.2936,324.6995 -152.8809,317.9618 -148.0608,311.2632 -142.8764,304.5232 -137.0877,297.8023 -130.7446,291.175 -124.1688,284.54 -117.7341,278.4648 -111.6562,273.0485 -105.987,267.6489 -100.5959,262.2748 -95.4166,257.1342 -90.5445,251.85 -86.0665,246.0792 -81.8666,239.8843 -77.8108,233.4939 -74.1327,227.4008 -71.0187,221.0842 -68.497,214.8946 -66.6571,209.0009 -65.5356,202.8292 -64.8825,196.8774 -64.6383,190.8301 -64.6781,184.5914 -64.7806,178.7003 -64.9948,172.9655 -65.3906,167.0541 -66.151,161.1078 -67.1431,155.493 -68.0383,149.7875 -68.7157,144.1938 -69.5337,138.9606 -70.6227,133.2622 -71.6823,126.9938 -72.6993,120.5625 -73.6166,113.8324 -74.3586,107.0306 -74.7864,100.7485 -75.1314,94.7584 -75.3204,88.8403 -75.2058,83.2915 -75.0278,77.7174 -74.7292,72.1126 -74.1896,66.4634 -73.2185,60.3882 -71.9545,53.9658 -70.6165,47.1618 -69.131,40.6749 -67.3644,34.8705 -65.118,29.4909 -62.422,24.3694 -59.3413,19.6944 -55.6122,15.4947 -51.159,11.6834 -46.3494,8.5776 -41.4423,6.3124 -36.2974,4.5758 -31.1802,3.2787 -26.0962,2.3168 -20.9394,1.4704 -16.2634,0.8507 -11.8358,0.1392 -7.2266,-0.7723 -2.543,-1.4756 -0.1935,-1.7482 A1.7589,1.7589 0 0 1 0.1935,1.7482 Z" stroke-linecap="round" fill="#f76707"/></g></g></svg>