<svg xmlns="http://www.w3.org/2000/svg" direction="ltr" width="1207.2479349483697" height="884.4269843677786" viewBox="541.3047002379368 755.7615560080275 1207.2479349483697 884.4269843677786" stroke-linecap="round" stroke-linejoin="round" data-color-mode="dark" class="tl-container tl-theme__force-sRGB tl-theme__dark" style="background-color: transparent;"><defs/><g transform="matrix(1, 0, 0, 1, 1120.5403, 799.7124) scale(0.9959061073382255, 0.9959061073382255)" opacity="1"><g transform="scale(1.004110721514417)"><path d="M1.5953,1 T1.5863,2.1778 1.5721,5.9657 1.3197,9.9868 0.9051,13.8701 0.7136,17.8903 0.424,22.0454 -0.0115,26.6569 -0.2246,30.6512 -0.2739,34.6319 -0.2744,38.0875 -0.259,41.2688 -0.2385,44.5968 0.0039,48.5189 0.4553,53.3232 0.743,58.1894 0.8386,62.54 0.8857,66.5064 0.9243,70.845 0.9558,75.2857 0.9806,79.396 1.0092,84.2463 1.0331,88.624 1.047,91.6919 1.0606,95.6273 1.0735,100.5116 1.0831,105.4651 1.0987,110.9083 1.1159,115.436 1.129,118.5384 1.1452,122.4981 1.1633,127.0364 1.1808,130.6366 1.1998,133.8523 1.2231,138.2715 1.2409,142.483 1.2517,146.0579 1.2645,149.9999 1.2779,153.9729 1.2944,158.6709 1.3089,162.7083 1.3196,166.945 1.0843,171.4733 0.6742,175.5133 0.4632,180.1357 0.4124,184.8737 0.4044,189.6768 0.406,193.7761 0.409,197.4313 0.4123,201.1999 0.4198,205.5942 0.4341,210.6457 0.4488,215.7702 0.4608,220.5538 0.4751,225.1181 0.4965,229.9827 0.5206,234.5731 0.5411,238.8509 0.562,243.2679 0.9336,247.4529 1.4111,252.1045 1.5516,256.2779 1.5846,259.1863 1.3536,263.6827 0.9349,269.0693 0.7064,273.1457 0.6361,277.0098 0.6091,281.5498 0.5938,286.0495 0.5759,290.6537 0.9067,295.1481 1.3474,299.5237 1.4698,303.7575 1.4963,307.5687 1.4949,311.633 1.4857,315.6387 1.4784,318.9888 1.4728,321.9102 1.4681,324.8616 1.4593,328.7258 1.4483,333.2092 1.4382,337.6902 1.4239,342.5316 1.4098,346.5426 1.6055,350.2953 2.0122,355.0273 2.2667,359.8136 2.3254,364.9703 2.3352,369.9003 2.3346,373.9423 2.3336,377.4862 2.3321,381.9098 2.3303,387.2943 2.3288,392.2759 2.3278,396.5591 2.3236,400.2395 2.3175,403.5909 2.3072,407.8969 2.2986,412.2852 2.2977,415.3549 2.2943,419.5284 2.2915,423.6127 2.2919,426.5085 2.289,431.0436 2.5126,436.1352 2.8667,440.2816 3.0554,444.9532 3.1478,449.5331 3.1946,453.3508 3.2175,457.4892 3.2279,462.027 3.2326,466.3017 3.2345,470.4396 3.2351,474.2686 3.2352,477.6985 3.2313,482.5678 3.2249,487.4895 3.22,491.0254 3.2164,494.3031 3.2138,497.2082 3.2112,500.8583 3.2088,504.9009 3.2107,508.6797 3.2158,512.5561 3.2193,516.0132 3.222,519.4835 3.2246,523.6679 3.2265,527.758 3.2279,531.5619 3.2288,534.9784 3.2296,538.6638 3.2268,542.7251 3.2208,546.7479 3.2161,550.7528 3.2132,554.0412 3.2107,557.6591 3.2084,561.9213 3.2067,566.0523 3.2054,570.1143 3.2046,573.6669 3.204,576.7168 3.2035,580.4432 3.203,584.2919 3.2027,587.7344 3.2024,591.4319 2.9552,595.6177 2.5844,599.4952 2.3955,602.8304 2.2947,606.2167 2.2397,609.653 2.2095,613.8163 2.1928,618.1309 2.1839,621.582 2.1789,624.8143 2.176,628.1681 2.1699,632.0546 2.1619,636.2219 2.1566,640.0665 2.1527,643.741 2.1491,648.7618 2.1461,653.9999 2.1446,657.6799 2.1436,661.0311 2.1427,664.4457 2.1421,667.8935 2.1416,671.1248 2.1412,674.242 2.1408,678.445 2.1405,682.545 2.1403,685.4421 2.1401,688.6173 2.1396,692.1794 1.8832,695.4373 1.4615,699.9059 1.2636,704.6498 1.2148,707.9283 1.1899,711.0684 1.1746,714.1345 1.1633,717.1639 0.9094,720.3389 0.5479,723.6478 0.3748,727.3397 0.2805,730.9503 0.2302,734.038 0.2043,737.3107 -0.057,740.8384 -0.4282,744.1128 -0.6457,748.004 -0.7722,752.3717 -0.8051,756.6881 -0.8111,761.4837 -0.8138,766.4084 -0.4553,771.2719 0.012,775.9809 0.1453,780.3886 0.1746,784.4974 0.1757,788.5174 0.1712,792.1592 -0.2047,795.8238 -0.6798,799.7093 -0.8024,802.3164 -0.8228,803.0595 A2.1272,2.1272 0 0 1 -5.0759,802.9568 T-5.0599,802.1904 -4.9455,799.3581 -4.4982,795.5313 -4.1533,792.1449 -4.1633,788.5248 -4.1819,784.5238 -4.2238,780.4789 -4.3467,776.2553 -4.8018,771.4849 -5.1641,766.4155 -5.1611,761.4778 -5.147,756.6649 -5.1071,752.2869 -4.9718,747.7622 -4.7299,743.6198 -4.3634,740.5061 -4.1225,737.2703 -4.0929,733.965 -4.0379,730.8355 -3.9324,727.1184 -3.5049,721.8212 -3.1461,717.1491 -3.1419,714.1139 -3.1278,711.0305 -3.0971,707.8599 -3.0401,704.5311 -2.9305,700.8686 -2.4986,696.4672 -2.1396,692.1717 -2.1401,688.6173 -2.1403,685.4421 -2.1405,682.545 -2.1408,678.445 -2.1412,674.242 -2.1416,671.1248 -2.1421,667.8935 -2.1427,664.4457 -2.1436,661.0311 -2.1446,657.6799 -2.146,653.9998 -2.1489,648.7618 -2.1524,643.7408 -2.1559,640.0661 -2.1606,636.2213 -2.1674,632.0533 -2.1712,628.1653 -2.1698,624.8087 -2.1666,621.5724 -2.1601,618.1164 -2.1475,613.7855 -2.122,609.5853 -2.0712,606.0911 -1.9714,602.5825 -1.7797,599.0901 -1.4282,595.3792 -1.2024,591.4305 -1.2027,587.7344 -1.203,584.2919 -1.2035,580.4432 -1.204,576.7168 -1.2046,573.6669 -1.2054,570.1143 -1.2067,566.0523 -1.2084,561.9213 -1.2107,557.6591 -1.2132,554.0412 -1.2161,550.7528 -1.2208,546.7479 -1.2268,542.7251 -1.2296,538.6638 -1.2288,534.9784 -1.2279,531.5619 -1.2265,527.758 -1.2246,523.6679 -1.222,519.4835 -1.2193,516.0132 -1.2158,512.5561 -1.2107,508.6797 -1.2088,504.9009 -1.2112,500.8583 -1.2139,497.2083 -1.2165,494.3032 -1.2202,491.0255 -1.2253,487.4897 -1.2324,482.5685 -1.2377,477.6999 -1.2399,474.2711 -1.2436,470.444 -1.2498,466.3098 -1.2606,462.0414 -1.2796,457.5216 -1.3124,453.4125 -1.3713,449.6309 -1.4795,445.1493 -1.6714,440.6683 -2.0396,436.3867 -2.289,431.0452 -2.2919,426.5085 -2.2915,423.6127 -2.2943,419.5284 -2.2977,415.3549 -2.2986,412.2852 -2.3072,407.8969 -2.3176,403.5909 -2.3236,400.2395 -2.3278,396.5591 -2.329,392.2761 -2.3309,387.2947 -2.3342,381.9112 -2.3384,377.489 -2.3437,373.947 -2.3524,369.9107 -2.3773,365.0177 -2.4537,359.9755 -2.6856,355.628 -3.1325,350.7742 -3.4098,346.5426 -3.4239,342.5316 -3.4382,337.6902 -3.4484,333.2092 -3.4594,328.7258 -3.4683,324.8618 -3.4732,321.9105 -3.4791,318.9895 -3.4878,315.6413 -3.5025,311.6418 -3.5234,307.6009 -3.5673,303.8524 -3.6986,299.8905 -4.1713,295.4572 -4.5549,290.6646 -4.5699,286.0459 -4.575,281.5364 -4.5653,276.9485 -4.5034,272.9509 -4.2558,268.5498 -3.849,263.3245 -3.6461,259.2365 -3.6964,255.0477 -3.8875,250.2548 -4.2894,245.7811 -4.5327,241.2864 -4.5125,236.913 -4.49,232.3724 -4.4661,227.6874 -4.4466,222.9265 -4.4346,218.2864 -4.422,213.2303 -4.407,207.9761 -4.396,203.3046 -4.3903,199.4355 -4.3857,195.8592 -4.3777,192.0463 -4.359,187.3791 -4.3102,182.2221 -4.162,177.4814 -3.6875,172.4663 -3.3196,166.9411 -3.3089,162.7083 -3.2944,158.6709 -3.2779,153.9729 -3.2645,149.9999 -3.2517,146.0579 -3.2409,142.483 -3.2231,138.2715 -3.1998,133.8523 -3.1808,130.6366 -3.1633,127.0364 -3.1452,122.4981 -3.129,118.5384 -3.1159,115.436 -3.0987,110.9083 -3.0831,105.4651 -3.0735,100.5116 -3.0606,95.6273 -3.047,91.6919 -3.0331,88.624 -3.0093,84.2464 -2.9809,79.3962 -2.9569,75.2866 -2.9283,70.8483 -2.8999,66.5186 -2.8899,62.5842 -2.9279,58.3166 -3.1213,53.7674 -3.5135,48.8698 -3.7366,44.5945 -3.7116,41.2641 -3.6879,38.0754 -3.6526,34.5917 -3.5627,30.512 -3.2745,26.211 -2.7937,21.672 -2.4166,16.5439 -1.9322,11.1433 -1.5721,5.9608 -1.5863,2.1778 -1.5953,1 A1.5953,1.5953 0 0 1 1.5953,1 ZM-1.7051,801.2828 T-1.4787,801.4471 -1.2523,801.6114 A2.1255,2.1255 0 0 1 -3.7388,805.0594 T-3.9662,804.8964 -4.1936,804.7335 A2.1272,2.1272 0 0 1 -1.7051,801.2828 ZM-3.5892,801.5128 T-2.9064,801.1148 -0.5081,798.9648 2.5785,795.612 5.0319,792.8915 7.5668,789.8097 9.0194,787.8476 A2.0503,2.0503 0 0 1 11.9731,790.6918 T11.4565,791.2009 10.0259,793.1651 8.088,795.6957 5.5181,798.5762 2.1556,802.2357 -0.5316,804.6241 -1.402,805.158 A2.1255,2.1255 0 0 1 -3.5892,801.5128 ZM11.9866,787.8617 T12.093,787.9761 12.1995,788.0906 A2.0478,2.0478 0 0 1 9.2223,790.9032 T9.1141,790.7905 9.0059,790.6777 A2.0503,2.0503 0 0 1 11.9866,787.8617 ZM12.5053,790.4837 T11.9995,791.3869 10.5616,793.8428 8.644,796.8949 6.4264,799.9823 4.0301,803.1703 1.0223,806.6413 -3.0562,809.4202 -6.9156,809.1929 -9.2679,805.8268 -10.8212,801.7485 -12.1159,798.6475 -12.5854,797.3942 A1.7689,1.7689 0 0 1 -9.3146,796.0458 T-8.7644,797.2658 -7.2762,800.3866 -4.7889,803.9449 -1.7989,804.1509 0.8405,801.0008 3.2518,797.6867 5.3937,794.6003 7.1102,791.7629 8.407,789.4532 8.9165,788.5101 A2.0478,2.0478 0 0 1 12.5053,790.4837 Z" stroke-linecap="round" fill="#9398b0"/></g></g><g transform="matrix(1, 0, 0, 1, 1115.5608, 795.7288) scale(0.9959061073382255, 0.9959061073382255)" opacity="1"><g transform="scale(1.004110721514417)"><path d="M1.5708,2.0484 T0.1565,4.1674 -2.218,7.843 -4.1784,11.5945 -5.7425,14.8217 -6.3065,15.8542 A1.8982,1.8982 0 0 1 -9.6335,14.0258 T-8.6044,12.1789 -6.986,8.8789 -5.398,5.8079 -2.985,2.0707 -1.5708,-0.0484 A1.8885,1.8885 0 0 1 1.5708,2.0484 ZM-9.3138,13.5994 T-8.6756,12.961 -7.3262,11.0715 -5.2338,8.2562 -2.2083,5.0596 1.6617,3.9555 5.13,5.8588 7.3601,8.5348 9.1905,11.3495 11.3748,14.6518 14.4839,17.8962 16.2516,19.3518 A2.0368,2.0368 0 0 1 13.6284,22.4682 T11.6116,20.7383 8.0644,16.8737 5.8725,13.444 4.2411,10.8048 2.2054,8.0587 0.1433,7.7863 -2.1015,10.3087 -4.3483,13.3486 -5.9865,15.6379 -6.6262,16.2806 A1.8982,1.8982 0 0 1 -9.3138,13.5994 Z" stroke-linecap="round" fill="#9398b0"/></g></g><g transform="matrix(1, 0, 0, 1, 1157.3888, 787.7616) scale(0.9959061073382255, 0.9959061073382255)" opacity="1"><g transform="scale(1.004110721514417)"><path d="M1.7199,0 T1.7045,2.119 1.6862,5.8212 2.204,9.1935 4.1275,11.4379 6.5684,9.9548 7.8477,6.4329 8.0888,4.8494 A1.685,1.685 0 0 1 11.4435,5.1713 T11.1805,7.0559 10.4768,10.3304 8.3417,13.4279 4.2566,14.8101 0.7612,13.3821 -1.0134,9.8505 -1.6862,5.8297 -1.7045,2.119 -1.7199,0 A1.7199,1.7199 0 0 1 1.7199,0 ZM9.5054,3.3456 T9.5513,3.3388 9.5972,3.3319 A1.6844,1.6844 0 0 1 10.1185,6.6601 T10.0727,6.6676 10.0269,6.6751 A1.685,1.685 0 0 1 9.5054,3.3456 ZM11.54,4.909 T11.5609,5.3669 12.459,7.2492 14.3635,10.4141 16.7296,13.981 18.704,17.1245 19.8895,20.8698 19.5176,25.685 16.988,28.8578 12.7106,30.062 8.4489,30.2933 4.2025,29.3191 1.5483,28.5322 A1.7006,1.7006 0 0 1 2.4317,25.2478 T3.7829,25.5709 7.4079,26.2969 11.8479,26.3648 15.361,24.9034 16.3571,21.8726 14.9634,17.9533 12.683,14.0305 10.5643,10.7905 8.9569,7.7465 8.2031,5.5588 8.1757,5.083 A1.6844,1.6844 0 0 1 11.54,4.909 Z" stroke-linecap="round" fill="#9398b0"/></g></g><g transform="matrix(1, 0, 0, 1, 1400.3899, 1190.1076) scale(0.9959061073382255, 0.9959061073382255)" opacity="1"><g transform="scale(1.004110721514417)"><path d="M1.781,-0.7022 T1.5407,0.7113 1.1204,4.5843 0.8926,9.6487 0.8352,14.7744 0.8192,18.6114 0.8129,19.9278 A1.8129,1.8129 0 0 1 -2.8129,19.9122 T-2.8021,17.4118 -2.7573,12.3294 -2.6855,8.3082 -2.447,4.2006 -2.0137,0.1172 -1.781,-1.2978 A1.8057,1.8057 0 0 1 1.781,-0.7022 ZM-2.8129,19.9181 T-2.8013,19.151 -2.7398,16.4329 -2.6213,12.221 -2.5525,9.9602 A1.5525,1.5525 0 0 1 0.5525,9.9598 T0.6218,12.2206 0.7419,16.4305 0.8029,19.1509 0.8129,19.9219 A1.8129,1.8129 0 0 1 -2.8129,19.9181 Z" stroke-linecap="round" fill="#9398b0"/></g></g><g transform="matrix(1, 0, 0, 1, 1403.3776, 1125.3737) scale(0.9959061073382255, 0.9959061073382255)" opacity="1"><g transform="scale(1.004110721514417)"><path d="M1.7041,-0.285 T1.9597,1.1262 2.4541,5.1996 2.7485,9.3 2.5381,13.6896 1.9691,18.3997 1.666,20.1585 A1.683,1.683 0 0 1 -1.666,19.6815 T-1.4635,17.9084 -1.0989,14.6891 -0.9612,10.6421 -1.1274,5.5805 -1.4867,1.7023 -1.7041,0.285 A1.7277,1.7277 0 0 1 1.7041,-0.285 Z" stroke-linecap="round" fill="#9398b0"/></g></g><g transform="matrix(1, 0, 0, 1, 838.6989, 1202.0585) scale(0.9959061073382255, 0.9959061073382255)" opacity="1"><g transform="scale(1.004110721514417)"><path d="M1.7279,1 T1.7442,2.4119 1.7676,5.2968 1.3529,7.9999 0.9312,9.2301 A1.7735,1.7735 0 0 1 -2.3758,7.9477 T-2.0752,7.3152 -1.7676,5.2532 -1.7442,2.4119 -1.7279,1 A1.7279,1.7279 0 0 1 1.7279,1 ZM-2.4904,8.7262 T-2.561,7.3983 -2.6451,3.0445 -2.6587,0.0185 A1.6588,1.6588 0 0 1 0.6587,-0.0185 T0.7222,2.9609 0.9158,7.1959 1.0459,8.4516 A1.7735,1.7735 0 0 1 -2.4904,8.7262 ZM0.6588,-0.0096 T0.6322,1.196 0.6519,4.2379 0.4574,7.6044 -0.0399,10.6851 -0.2963,12.2356 A1.7176,1.7176 0 0 1 -3.6837,11.6644 T-3.4175,10.1156 -2.9135,6.4631 -2.6293,2.9305 -2.6209,0.7556 -2.6588,0.0096 A1.6588,1.6588 0 0 1 0.6588,-0.0096 Z" stroke-linecap="round" fill="#9398b0"/></g></g><g transform="matrix(1, 0, 0, 1, 797.8667, 1160.2304) scale(0.9959061073382255, 0.9959061073382255)" opacity="1"><g transform="scale(1.004110721514417)"><path d="M0,-1.5967 T1.6484,-1.6449 5.815,-1.7222 9.8092,-1.4894 14.1782,-0.9111 17.0713,-0.5947 A1.601,1.601 0 0 1 16.7887,2.5947 T15.2189,2.4861 10.9864,2.0645 5.8102,1.7222 1.6484,1.6449 0,1.5967 A1.5967,1.5967 0 0 1 0,-1.5967 Z" stroke-linecap="round" fill="#9398b0"/></g></g><g transform="matrix(1, 0, 0, 1, 827.7439, 1147.2837) scale(0.9959061073382255, 0.9959061073382255)" opacity="1"><g transform="scale(1.004110721514417)"><path d="M1.8161,0.7394 T2.0673,2.3859 2.4632,5.909 2.9075,9.3425 3.384,12.802 3.636,16.4052 3.7945,19.9606 3.8779,21.8156 A1.8902,1.8902 0 0 1 0.1021,22.0044 T-0.0001,20.1504 -0.1937,16.6678 -0.4241,13.3087 -0.8633,9.8131 -1.268,6.3045 -1.5943,2.9109 -1.8161,1.2606 A1.8347,1.8347 0 0 1 1.8161,0.7394 Z" stroke-linecap="round" fill="#9398b0"/></g></g><g transform="matrix(1, 0, 0, 1, 1396.4063, 1200.0667) scale(0.9959061073382255, 0.9959061073382255)" opacity="1"><g transform="scale(1.004110721514417)"><path d="M-2.1372,0.3066 T-2.3193,-1.3496 -2.3099,-5.412 -0.5285,-9.0355 3.2576,-10.2395 6.8255,-9.2868 8.703,-5.9309 7.548,-1.8526 3.2246,-0.3408 -0.5009,-2.9057 -0.5669,-7.3029 2.5809,-9.9738 7.1812,-9.7701 10.96,-6.7418 11.7607,-2.3407 9.9439,0.6755 5.8199,1.5055 1.7486,0.8475 -0.3722,-0.5175 -1.2573,-1.1461 A2.2318,2.2318 0 0 1 1.2573,-4.8339 T2.5397,-3.8785 5.8632,-2.8543 7.4795,-4.167 5.525,-5.9861 3.4253,-4.9813 3.8047,-4.7767 3.0556,-6.2386 1.4563,-5.0252 1.8463,-1.9472 2.1372,-0.3066 A2.159,2.159 0 0 1 -2.1372,0.3066 Z" stroke-linecap="round" fill="#e599f7"/></g></g><g transform="matrix(1, 0, 0, 1, 1423.2958, 1142.3041) scale(0.9959061073382255, 0.9959061073382255)" opacity="1"><g transform="scale(1.004110721514417)"><path d="M2.3595,1 T2.353,2.6484 2.3475,6.1068 2.3561,9.8119 2.3691,13.4129 2.3788,16.9639 2.1391,20.4425 1.594,23.676 1.2929,25.2761 A2.3236,2.3236 0 0 1 -3.2929,24.5239 T-2.838,21.6614 -2.3788,16.9588 -2.3691,13.4129 -2.3561,9.8119 -2.3475,6.1068 -2.353,2.6484 -2.3595,1 A2.3595,2.3595 0 0 1 2.3595,1 Z" stroke-linecap="round" fill="#e599f7"/></g></g><g transform="matrix(1, 0, 0, 1, 1438.2344, 1144.2959) scale(0.9959061073382255, 0.9959061073382255)" opacity="1"><g transform="scale(1.004110721514417)"><path d="M2.5938,1.277 T1.6393,2.4461 -0.3238,4.7376 -2.2727,7.0823 -4.1836,9.6598 -6.1555,12.9121 -6.5968,16.138 -3.9991,19.1705 -1.2489,21.7376 -0.5362,22.6009 A1.9497,1.9497 0 0 1 -3.4438,25.1991 T-4.2218,24.3943 -6.4028,22.4456 -9.1293,19.6837 -10.719,15.8518 -9.6752,11.1799 -7.3605,7.3114 -4.4077,3.4983 -1.5266,-0.0906 -0.5938,-1.277 A2.0423,2.0423 0 0 1 2.5938,1.277 Z" stroke-linecap="round" fill="#e599f7"/></g></g><g transform="matrix(1, 0, 0, 1, 1448.1934, 1145.2918) scale(0.9959061073382255, 0.9959061073382255)" opacity="1"><g transform="scale(1.004110721514417)"><path d="M1.775,-0.1782 T2.0389,2.1746 2.4581,6.5073 2.7027,10.2445 2.6028,13.7903 1.7269,17.149 0.362,20.1793 -0.316,21.6394 A1.826,1.826 0 0 1 -3.664,20.1806 T-2.589,17.6117 -1.2993,13.5918 -1.1268,10.4349 -1.2629,6.8119 -1.5659,2.5365 -1.775,0.1782 A1.7839,1.7839 0 0 1 1.775,-0.1782 Z" stroke-linecap="round" fill="#e599f7"/></g></g><g transform="matrix(1, 0, 0, 1, 1452.177, 1137.3246) scale(0.9959061073382255, 0.9959061073382255)" opacity="1"><g transform="scale(1.004110721514417)"><path d="M1,-2.3299 T2.4159,-2.2927 5.26,-1.9867 8.625,-0.7861 12.2634,2.1044 14.4634,6.3151 14.4196,11.0567 12.4023,15.3526 8.6596,17.9797 4.2956,18.9189 2.199,19.037 A2.1173,2.1173 0 0 1 1.781,14.823 T2.8175,14.6726 5.318,14.276 8.1308,12.9888 9.9351,10.5212 10.0002,7.0992 8.3851,4.1752 5.488,2.751 2.4079,2.2927 1,2.3299 A2.3299,2.3299 0 0 1 1,-2.3299 Z" stroke-linecap="round" fill="#e599f7"/></g></g><g transform="matrix(1, 0, 0, 1, 873.5556, 1148.2796) scale(0.9959061073382255, 0.9959061073382255)" opacity="1"><g transform="scale(1.004110721514417)"><path d="M1.2999,2.0389 T0.3837,3.2367 -1.8126,6.1855 -4.9755,9.5633 -6.8583,11.19 A1.6579,1.6579 0 0 1 -9.0817,8.73 T-7.5873,7.3042 -4.6627,4.0775 -2.2662,1.1189 -1.2999,-0.0389 A1.6641,1.6641 0 0 1 1.2999,2.0389 Z" stroke-linecap="round" fill="#e599f7"/></g></g><g transform="matrix(1, 0, 0, 1, 849.6538, 1148.2796) scale(0.9959061073382255, 0.9959061073382255)" opacity="1"><g transform="scale(1.004110721514417)"><path d="M2.4956,-0.8305 T2.946,0.5917 3.8334,4.5964 4.7692,9.8572 5.3797,14.0466 5.5942,17.9535 5.932,21.4161 6.1669,22.4831 A2.7854,2.7854 0 0 1 0.6944,23.5248 T0.4362,22.0014 0.1443,18.1766 -0.0644,13.2721 -0.5562,9.2284 -1.1934,5.7155 -2.0047,2.2368 -2.4956,0.8305 A2.6302,2.6302 0 0 1 2.4956,-0.8305 ZM4.8251,20.5928 T5.178,20.8279 5.531,21.0631 A2.7316,2.7316 0 0 1 2.7959,25.7924 T2.416,25.6038 2.0362,25.4151 A2.7854,2.7854 0 0 1 4.8251,20.5928 ZM1.7579,22.1336 T2.2243,21.406 2.6907,20.6784 A2.5996,2.5996 0 0 1 7.2693,23.1416 T6.9192,23.9318 6.5691,24.7219 A2.7316,2.7316 0 0 1 1.7579,22.1336 Z" stroke-linecap="round" fill="#e599f7"/></g></g><g transform="matrix(1, 0, 0, 1, 873.5556, 1145.2918) scale(0.9959061073382255, 0.9959061073382255)" opacity="1"><g transform="scale(1.004110721514417)"><path d="M2.1226,1.8482 T1.6454,3.0249 -0.3108,6.1468 -2.8704,9.5133 -5.0976,11.9174 -7.9341,14.1968 -8.2022,16.5586 -5.1709,18.6284 -1.5502,21.6456 1.6516,24.8767 2.8426,26.0952 A2.5723,2.5723 0 0 1 -0.8426,29.6848 T-2.0293,28.4622 -4.3026,26.1188 -6.7031,23.899 -9.5736,21.7671 -12.3142,19.7268 -13.7378,16.4385 -12.3851,12.4233 -9.1423,9.3277 -6.2132,6.3763 -3.9927,3.6479 -2.5867,1.3307 -2.1226,0.1518 A2.2858,2.2858 0 0 1 2.1226,1.8482 Z" stroke-linecap="round" fill="#e599f7"/></g></g><g transform="matrix(1, 0, 0, 1, 885.5065, 1147.2837) scale(0.9959061073382255, 0.9959061073382255)" opacity="1"><g transform="scale(1.004110721514417)"><path d="M1.7556,-0.527 T2.5161,1.813 3.7216,6.1888 4.4037,9.7769 4.504,14.2279 4.0855,18.6436 3.8037,20.1607 A1.8296,1.8296 0 0 1 0.1763,19.6793 T0.3,18.1412 0.4438,14.24 0.3083,10.4343 -0.1478,7.1304 -1.1019,2.8981 -1.7556,0.527 A1.833,1.833 0 0 1 1.7556,-0.527 Z" stroke-linecap="round" fill="#e599f7"/></g></g><g transform="matrix(1, 0, 0, 1, 887.4983, 1143.3) scale(0.9959061073382255, 0.9959061073382255)" opacity="1"><g transform="scale(1.004110721514417)"><path d="M1,-2.425 T2.6484,-2.3971 6.8183,-2.3603 11.9241,-1.663 15.7656,0.236 17.668,2.9886 18.454,6.947 17.8598,10.59 15.6094,13.2442 11.9194,15.6566 8.08,17.1933 5.4569,17.9377 4.4986,18.1303 A2.2606,2.2606 0 0 1 3.4614,13.7297 T4.9757,13.3448 8.0528,12.3083 10.9115,10.8153 12.9524,8.0634 13.1949,4.7543 11.0048,2.8535 6.807,2.3603 2.6484,2.3971 1,2.425 A2.425,2.425 0 0 1 1,-2.425 Z" stroke-linecap="round" fill="#e599f7"/></g></g><g transform="matrix(1, 0, 0, 1, 839.6948, 1208.0339) scale(0.9959061073382255, 0.9959061073382255)" opacity="1"><g transform="scale(1.004110721514417)"><path d="M0,2.011 T-1.1778,1.9934 -4.7528,1.3442 -8.5438,-1.3291 -9.7078,-5.8013 -7.9058,-9.6055 -4.5497,-11.3408 -0.7902,-11.5015 2.4865,-9.9136 4.0724,-6.1208 3.2081,-1.4669 0.5393,2.1607 -3.0019,4.3619 -5.8756,5.4357 -6.7275,5.6879 A2.2522,2.2522 0 0 1 -7.9567,1.3543 T-7.3565,1.1946 -4.5533,0.0761 -1.0987,-2.582 -0.0223,-5.9217 -1.8358,-7.6194 -5.1069,-6.8471 -5.9562,-4.3062 -3.7641,-2.2854 -1.1778,-1.9934 0,-2.011 A2.011,2.011 0 0 1 0,2.011 ZM-8.4792,5.4653 T-9.1225,5.0824 -10.9351,2.84 -12.5096,-1.1875 -12.2817,-5.4407 -9.9844,-8.9008 -6.2607,-10.4252 -2.5451,-9.7015 1.1343,-7.1719 4.0848,-3.3515 4.5022,0.9049 2.2655,4.417 -1.8274,6.5163 -5.6293,7.0784 -9.2456,5.65 -12.6132,2.4608 -13.7932,-0.8547 -12.881,-4.2184 -10.6821,-7.0831 -8.0557,-8.643 -3.902,-9.591 1.2419,-8.592 4.244,-5.7279 5.173,-2.6796 4.8809,1.2011 2.5391,5.2429 -0.732,7.2022 -4.5175,6.8817 -8.3685,4.7271 -10.6642,0.7771 -10.7866,-3.7821 -8.644,-7.4648 -4.7969,-9.6543 -0.1987,-10.1636 3.8778,-8.325 6.0807,-4.2944 5.9002,-0.5516 3.6825,2.6275 0.5238,4.7994 -3.2553,5.3285 -6.6694,5.4839 -7.8095,5.5017 A2.5169,2.5169 0 0 1 -8.1305,0.4783 T-6.0547,0.2371 -2.1525,-0.1857 0.2871,-1.7997 -0.3472,-4.1014 -3.1244,-4.5275 -5.1297,-2.3603 -4.3057,0.5399 -1.6277,0.645 -0.9238,-2.4245 -3.067,-4.3732 -6.4965,-3.0423 -7.8164,-0.2896 -5.3469,1.3819 -1.8887,0.2995 -0.9536,-2.2297 -3.0516,-4.5192 -6.0956,-5.5113 -8.0299,-3.7278 -7.8594,-0.5504 -6.7999,1.2356 -6.205,1.577 A2.2522,2.2522 0 0 1 -8.4792,5.4653 Z" stroke-linecap="round" fill="#e599f7"/></g></g><g transform="matrix(1, 0, 0, 1, 1401.3858, 1201.0626) scale(0.9959061073382255, 0.9959061073382255)" opacity="1"><g transform="scale(1.004110721514417)"><path d="M1.8645,0.4685 T1.5737,1.509 -0.7142,3.9057 -4.7641,4.8687 -8.4848,3.1115 -10.8378,-0.7058 -11.3865,-5.2873 -9.5757,-9.2837 -5.2646,-11.8673 -0.9849,-11.9054 1.74,-10.26 3.5314,-7.8101 4.4661,-3.8687 3.851,0.6729 1.7418,3.7727 -1.5953,5.4773 -5.7597,5.5768 -9.3061,2.9041 -10.7508,-1.5216 -9.3558,-5.7178 -5.6892,-8.2876 -1.0474,-8.8986 3.2875,-7.2483 5.7676,-3.4165 5.792,0.4011 3.5605,3.6839 -1.2448,5.256 -5.3495,4.0882 -7.0402,2.3313 -7.6854,1.5645 A2.3143,2.3143 0 0 1 -4.2746,-1.5645 T-3.5662,-0.8558 -1.4828,0.3458 0.4739,-0.6735 0.0667,-3.2828 -2.4402,-4.2073 -5.0456,-3.113 -5.3201,-0.573 -2.8838,0.5623 -0.5705,-1.4226 -0.1647,-4.5673 -1.5166,-7.3852 -4.0413,-8.2905 -6.6667,-6.6486 -7.6396,-3.5477 -6.4717,-0.5172 -3.8641,1.0002 -2.0467,0.3736 -1.8645,-0.4685 A1.9224,1.9224 0 0 1 1.8645,0.4685 Z" stroke-linecap="round" fill="#e599f7"/></g></g><g transform="matrix(1, 0, 0, 1, 1121.5362, 1480.9122) scale(0.9959061073382255, 0.9959061073382255)" opacity="1"><g transform="scale(1.004110721514417)"><path d="M-2.8804,0.4677 T-3.0933,-0.5074 -2.4139,-3.6618 0.7187,-6.3573 4.6305,-5.3043 6.6816,-2.9502 7.0611,-2.1654 A1.8774,1.8774 0 0 1 3.6399,-0.618 T3.4545,-1.0823 1.8194,-1.9145 0.625,-1.3751 0.8804,-0.4677 A1.9377,1.9377 0 0 1 -2.8804,0.4677 ZM6.9795,-0.4582 T6.6442,0.1251 4.2406,2.1277 0.208,4.054 -3.6282,3.7946 -5.8207,0.9273 -5.0658,-2.5481 -2.1161,-4.6664 1.6195,-4.7719 4.4085,-2.4632 4.4525,1.2364 1.2431,4.3083 -2.5034,5.2691 -5.168,4.4874 -7.4224,1.8586 -7.843,-2.021 -5.5117,-4.8096 -1.4347,-5.5227 2.4817,-3.8476 4.2442,-0.1099 3.1291,3.7833 -0.2755,5.8752 -4.1111,4.2285 -6.1763,0.5366 -4.9931,-3.1653 -1.3317,-5.3357 2.4909,-3.9179 4.277,-0.1644 2.3392,3.3743 -2.2545,4.2242 -6.2175,1.5371 -6.9386,-2.5666 -4.8613,-5.0801 -1.0679,-5.2451 2.7328,-3.7026 4.789,-0.1605 3.8692,3.8922 0.1941,5.8649 -4.1372,5.0996 -7.1625,2.006 -7.9504,0.0486 A2.4191,2.4191 0 0 1 -3.2672,-1.166 T-3.0898,-0.2897 -1.4904,0.4422 -1.5351,-0.0683 -1.3543,-0.1971 -0.9787,-0.6781 -0.8788,-0.3451 -0.3117,-0.5143 -2.6814,-1.0326 -3.1063,0.5438 -1.2771,-0.0121 -1.7391,-0.4587 -1.2023,0.3268 1.7907,-0.5501 3.4086,-1.7772 3.7216,-2.3251 A1.8774,1.8774 0 0 1 6.9795,-0.4582 ZM-7.2429,-2.3424 T-6.3563,-3.1186 -4.0528,-4.372 -0.2992,-4.7967 3.305,-4.0067 5.5834,-2.5966 6.5944,-1.924 A2.4777,2.4777 0 0 1 3.8065,2.1728 T2.4361,1.0767 -0.6964,-0.1278 -3.2166,0.4944 -3.9747,1.225 A2.4191,2.4191 0 0 1 -7.2429,-2.3424 ZM7.3208,1.4062 T6.5547,2.595 4.5359,4.4765 0.7809,6.0465 -3.2318,7.0862 -7.034,6.1837 -9.9936,4.4847 -10.661,3.8506 A2.521,2.521 0 0 1 -7.259,0.1294 T-6.2149,1.1171 -3.0463,1.8521 0.7447,0.8527 2.7458,-0.5257 3.0801,-1.1574 A2.4777,2.4777 0 0 1 7.3208,1.4062 Z" stroke-linecap="round" fill="#e599f7"/></g></g><g transform="matrix(1, 0, 0, 1, 1138.4666, 1437.0923) scale(0.9959061073382255, 0.9959061073382255)" opacity="1"><g transform="scale(1.004110721514417)"><path d="M2.1714,-0.2724 T2.4199,1.6148 2.5805,5.4079 2.4544,8.884 2.1484,13.5429 1.4827,18.2861 0.6634,21.6865 0.242,23.4324 A2.2923,2.2923 0 0 1 -4.222,22.3876 T-3.8247,20.6359 -3.0905,17.3994 -2.4535,13.1003 -2.0737,8.6522 -1.8582,5.528 -1.9469,2.155 -2.1714,0.2724 A2.1884,2.1884 0 0 1 2.1714,-0.2724 Z" stroke-linecap="round" fill="#e599f7"/></g></g><g transform="matrix(1, 0, 0, 1, 1151.4134, 1439.0842) scale(0.9959061073382255, 0.9959061073382255)" opacity="1"><g transform="scale(1.004110721514417)"><path d="M1.6974,2.6974 T0.7312,3.6137 -1.879,6.3322 -4.3635,9.325 -6.1326,12.2706 -7.0613,14.0254 A2.2816,2.2816 0 0 1 -11.2349,12.1807 T-10.0521,10.0558 -7.9834,6.6744 -5.3138,3.3264 -2.6137,0.2688 -1.6974,-0.6974 A2.4004,2.4004 0 0 1 1.6974,2.6974 ZM-7.0421,12.2254 T-6.7548,12.8866 -4.8846,14.5874 -2.1136,16.4914 0.211,18.2025 1.3475,19.0491 A2.2976,2.2976 0 0 1 -1.3475,22.7709 T-3.3785,21.3281 -6.6813,19.2156 -9.3336,16.9392 -10.9842,14.6566 -11.2541,13.9807 A2.2816,2.2816 0 0 1 -7.0421,12.2254 Z" stroke-linecap="round" fill="#e599f7"/></g></g><g transform="matrix(1, 0, 0, 1, 1162.3684, 1436.0964) scale(0.9959061073382255, 0.9959061073382255)" opacity="1"><g transform="scale(1.004110721514417)"><path d="M2.3639,0 T2.3629,1.8849 2.3846,5.9422 2.1856,10.118 1.8719,13.7399 1.4336,17.9236 0.814,21.9423 0.5408,23.3957 A2.577,2.577 0 0 1 -4.5208,22.4243 T-4.1952,20.7574 -3.547,17.039 -3.0672,13.243 -2.6586,9.804 -2.3846,5.9397 -2.3629,1.8849 -2.3639,0 A2.3639,2.3639 0 0 1 2.3639,0 ZM-4.567,22.91 T-4.5229,21.415 -4.4788,19.92 A2.4888,2.4888 0 0 1 0.4988,19.92 T0.5429,21.415 0.587,22.91 A2.577,2.577 0 0 1 -4.567,22.91 Z" stroke-linecap="round" fill="#e599f7"/></g></g><g transform="matrix(1, 0, 0, 1, 1163.3643, 1433.1087) scale(0.9959061073382255, 0.9959061073382255)" opacity="1"><g transform="scale(1.004110721514417)"><path d="M0.3606,-2.5134 T2.0029,-2.2351 5.1471,-1.8278 8.9712,-0.8731 12.8859,2.0594 14.2905,6.6739 12.6501,10.902 9.4938,13.783 5.6396,15.1689 1.7778,15.4096 0.0663,15.4246 A2.4755,2.4755 0 0 1 -0.0663,10.4754 T2.5639,10.542 6.9915,9.3238 8.9204,6.1541 7.6501,3.7063 4.5983,3.023 1.294,2.7081 -0.3606,2.5134 A2.5392,2.5392 0 0 1 0.3606,-2.5134 Z" stroke-linecap="round" fill="#e599f7"/></g></g><g transform="matrix(1, 0, 0, 1, 1079.7082, 1449.0432) scale(0.9959061073382255, 0.9959061073382255)" opacity="1"><g transform="scale(1.004110721514417)"><path d="M0.2387,-1.6635 T1.8934,-1.5174 6.0119,-1.6084 11.5546,-2.2876 14.6336,-2.7296 A1.7565,1.7565 0 0 1 15.2464,0.7296 T13.5732,1.08 10.2668,1.7694 5.8396,2.2128 1.4035,1.9904 -0.2387,1.6635 A1.6805,1.6805 0 0 1 0.2387,-1.6635 Z" stroke-linecap="round" fill="#9398b0"/></g></g><g transform="matrix(1, 0, 0, 1, 1104.6058, 1438.0882) scale(0.9959061073382255, 0.9959061073382255)" opacity="1"><g transform="scale(1.004110721514417)"><path d="M2.3834,-0.3986 T2.6276,1.0147 3.0254,3.9778 3.0239,7.2446 2.5402,10.5719 1.7138,14.974 0.8567,19.1648 0.4974,20.5638 A2.5694,2.5694 0 0 1 -4.4774,19.2762 T-3.8173,16.7962 -2.6323,11.3487 -2.0166,5.8051 -2.1546,1.8138 -2.3834,0.3986 A2.4165,2.4165 0 0 1 2.3834,-0.3986 Z" stroke-linecap="round" fill="#9398b0"/></g></g><g transform="matrix(1, 0, 0, 1, 1405.3695, 1126.3696) scale(0.9959061073382255, 0.9959061073382255)" opacity="1"><g transform="scale(1.004110721514417)"><path d="M2.78,0 T2.7695,1.4143 2.7572,4.5151 2.7696,8.5025 2.8019,13.1935 2.8329,17.3164 2.8607,20.6686 2.6272,24.2628 2.3788,26.2375 A2.8766,2.8766 0 0 1 -3.3248,25.483 T-3.1002,23.8823 -2.8607,20.6653 -2.8329,17.3164 -2.8019,13.1935 -2.7696,8.5025 -2.7572,4.5151 -2.7695,1.4143 -2.78,0 A2.78,2.78 0 0 1 2.78,0 ZM-3.2747,26.5126 T-3.4803,25.5264 -3.7164,22.7436 -3.9232,18.9463 -4.2864,14.4233 -4.497,9.053 -4.5331,3.8535 -4.8942,-0.5687 -5.2429,-2.6394 A2.6525,2.6525 0 0 1 -0.1783,-4.2178 T0.205,-1.3696 0.6057,3.8085 0.7061,8.8808 0.9874,13.705 1.5069,18.3094 1.9034,22.3714 2.1537,24.5593 2.3287,25.208 A2.8766,2.8766 0 0 1 -3.2747,26.5126 ZM-1.4001,-1.1225 T-1.9498,-0.7961 -4.1511,0.9067 -6.6884,3.421 -9.3465,6.152 -11.1191,7.7451 A2.5432,2.5432 0 0 1 -14.7809,4.2149 T-13.31,2.4435 -10.3794,-0.8501 -7.3105,-3.5901 -4.8613,-5.2714 -4.0211,-5.7347 A2.6525,2.6525 0 0 1 -1.4001,-1.1225 Z" stroke-linecap="round" fill="#9398b0"/></g></g><g transform="matrix(1, 0, 0, 1, 1345.6151, 1147.2837) scale(0.9959061073382255, 0.9959061073382255)" opacity="1"><g transform="scale(1.004110721514417)"><path d="M2.2488,-0.8986 T2.7084,0.2836 3.6595,2.8297 4.6465,5.6144 5.6439,8.4876 7.1196,12.1915 9.3684,17.0253 10.6435,19.6077 A2.516,2.516 0 0 1 6.1103,21.7919 T4.873,19.1021 2.6231,13.951 1.1236,10.0475 -0.3243,5.9253 -1.7671,2.0719 -2.2488,0.8986 A2.4217,2.4217 0 0 1 2.2488,-0.8986 ZM6.1925,19.4513 T6.5597,18.7937 7.6917,15.8315 8.9161,11.8277 10.6258,7.0522 12.548,2.6796 14.3908,-0.1258 16.7249,-3.1042 17.8881,-4.5734 A2.576,2.576 0 0 1 21.9519,-1.4066 T20.8114,0.0804 18.206,3.7663 15.5611,8.7453 13.8785,13.2877 12.3503,17.8467 10.9429,21.2958 10.5612,21.9483 A2.516,2.516 0 0 1 6.1925,19.4513 Z" stroke-linecap="round" fill="#f76707"/></g></g><g transform="matrix(1, 0, 0, 1, 1369.5168, 1146.2878) scale(0.9959061073382255, 0.9959061073382255)" opacity="1"><g transform="scale(1.004110721514417)"><path d="M2.038,-0.2275 T2.2858,1.8903 2.6738,5.6284 2.906,9.3101 3.0489,13.1558 2.8276,16.8554 1.0102,20.5194 -0.5352,22.268 A1.9901,1.9901 0 0 1 -3.4448,19.552 T-2.8297,18.818 -1.7343,16.5508 -1.2724,13.2645 -1.3301,9.5442 -1.4785,6.0225 -1.8128,2.3477 -2.038,0.2275 A2.0507,2.0507 0 0 1 2.038,-0.2275 Z" stroke-linecap="round" fill="#f76707"/></g></g><g transform="matrix(1, 0, 0, 1, 1369.5168, 1144.2959) scale(0.9959061073382255, 0.9959061073382255)" opacity="1"><g transform="scale(1.004110721514417)"><path d="M-0.5135,-2.5573 T0.6731,-2.7442 3.7357,-3.4343 8.4332,-3.2004 12.8741,0.0842 14.648,5.1275 13.873,9.4196 11.6491,12.1217 8.7034,13.6197 5.455,14.7636 3.858,15.3155 A2.5197,2.5197 0 0 1 2.122,10.5845 T4.8928,9.5199 8.8129,7.2351 9.6922,4.3918 8.0667,1.7844 4.7812,1.3926 1.6824,2.2712 0.5135,2.5573 A2.6083,2.6083 0 0 1 -0.5135,-2.5573 Z" stroke-linecap="round" fill="#f76707"/></g></g><g transform="matrix(1, 0, 0, 1, 736.1206, 1150.2714) scale(0.9959061073382255, 0.9959061073382255)" opacity="1"><g transform="scale(1.004110721514417)"><path d="M2.3355,0 T2.3283,1.6484 2.3214,4.8706 2.8961,9.2287 4.308,14.2588 5.7359,18.3248 6.3263,20.1451 A2.3689,2.3689 0 0 1 2.0123,22.1037 T1.5758,21.0773 0.4762,17.9469 -0.6382,14.4688 -1.4615,11.4869 -2.0775,8.1658 -2.3214,4.8747 -2.3283,1.6484 -2.3355,0 A2.3355,2.3355 0 0 1 2.3355,0 ZM2.9252,19.1085 T3.566,18.7684 5.07,16.2769 7.0698,11.6375 8.9359,6.5552 10.118,2.6017 11.3674,-0.3284 12.9752,-3.4771 13.7863,-5.0547 A2.398,2.398 0 0 1 18.0737,-2.9053 T17.2949,-1.3115 15.8859,1.5577 14.3803,5.341 13.0456,9.5433 11.8861,12.652 10.4325,15.7927 8.6815,19.5736 6.5487,22.3842 5.4134,23.1403 A2.3689,2.3689 0 0 1 2.9252,19.1085 Z" stroke-linecap="round" fill="#f76707"/></g></g><g transform="matrix(1, 0, 0, 1, 761.0182, 1149.2755) scale(0.9959061073382255, 0.9959061073382255)" opacity="1"><g transform="scale(1.004110721514417)"><path d="M2.1342,-0.2678 T2.3694,1.6173 2.7439,5.0082 2.9812,8.5177 3.1437,12.746 3.2444,16.8464 3.2837,19.7946 3.2865,20.8671 A2.2869,2.2869 0 0 1 -1.2865,20.9529 T-1.3243,19.8602 -1.3622,16.9049 -1.3672,12.8568 -1.4053,8.7765 -1.5486,5.4594 -1.8964,2.1525 -2.1342,0.2678 A2.1509,2.1509 0 0 1 2.1342,-0.2678 Z" stroke-linecap="round" fill="#f76707"/></g></g><g transform="matrix(1, 0, 0, 1, 764.0059, 1144.2959) scale(0.9959061073382255, 0.9959061073382255)" opacity="1"><g transform="scale(1.004110721514417)"><path d="M1,-2.7373 T2.1906,-2.7008 5.3205,-2.2661 10.0309,-0.7898 14.6392,2.5259 16.2937,7.2502 15.1192,11.4775 12.5976,14.5488 8.4573,16.6132 3.0011,17.4506 0.1555,17.5545 A2.6191,2.6191 0 0 1 -0.1555,12.3255 T2.4892,12.1029 6.9644,11.2137 9.8253,9.4086 10.5176,6.57 8.3673,4.0913 4.9424,2.9884 2.1649,2.7008 1,2.7373 A2.7373,2.7373 0 0 1 1,-2.7373 Z" stroke-linecap="round" fill="#f76707"/></g></g><g transform="matrix(1, 0, 0, 1, 683.9097, 1202.3024) scale(1.4000627907207877, 1.4000627907207877)" opacity="1"><g transform="scale(0.7142536796404501)"><path d="M0,-2.1706 T1.9866,-2.1609 6.9142,-2.148 12.5157,-1.7647 17.9183,-1.1728 23.9718,-0.8994 30.2272,-0.8211 35.5052,-0.799 40.5096,-0.7971 45.944,-0.8069 51.8291,-0.8248 58.6761,-0.8492 64.53,-0.8716 70.2005,-0.897 77.0982,-0.9256 83.2331,-0.951 88.9816,-0.9793 95.303,-1.0138 101.94,-1.0518 108.3372,-1.0951 114.6678,-1.1398 120.9763,-1.1727 126.9476,-1.196 132.6507,-1.2204 138.2793,-1.2459 143.8873,-1.2725 149.4895,-1.3051 155.0901,-1.3398 160.6903,-1.3684 166.7959,-1.3974 173.373,-1.426 179.75,-1.4514 186.0714,-1.4753 192.3773,-1.4928 198.8534,-1.5059 205.2024,-1.5153 211.5159,-1.525 218.3253,-1.5414 225.2724,-1.5619 232.5888,-1.5801 239.6766,-1.5982 246.701,-1.6168 254.0389,-1.6308 259.5984,-1.6386 263.6244,-1.6429 267.7327,-1.6465 271.8844,-1.6495 277.9824,-1.6525 284.4043,-1.3107 288.8487,-0.8088 292.9499,-0.5649 297.0946,-0.4345 301.2646,-0.3662 305.4513,-0.3308 309.8829,0.0376 314.2036,0.557 318.2288,0.8093 322.3353,0.9461 326.4858,1.0191 330.9939,1.0576 335.9116,1.4256 340.8093,1.9452 346.1398,2.2008 351.6127,2.3356 356.4939,2.4023 361.0491,2.4359 367.3938,2.452 373.7169,2.4582 378.07,2.4599 382.3507,2.4604 386.5932,2.4604 390.8156,2.4601 395.3585,2.4598 400.0703,2.4594 404.8711,2.459 409.7188,2.4588 414.5891,2.4587 419.2544,2.1429 423.695,1.6418 427.8959,1.3617 432.1092,1.217 436.4288,0.83 440.6815,0.2908 445.1405,-0.0147 449.4812,-0.1676 453.7563,-0.242 457.9961,-0.2789 463.9208,-0.6134 469.6646,-1.121 473.6412,-1.4036 478.4233,-1.5503 483.5861,-1.6249 487.9467,-1.663 494.1786,-2.1876 501.4523,-2.7964 507.6465,-2.9433 513.2131,-3.0192 517.7994,-3.0589 522.2074,-3.0837 526.8489,-3.1022 532.2753,-3.1148 538.1145,-3.1235 543.8404,-3.1291 549.1756,-3.1328 553.9745,-3.135 558.622,-3.4547 563.3803,-3.9573 568.073,-4.2365 572.542,-4.3815 577.2203,-4.4574 582.0038,-4.4972 586.8406,-4.5182 591.3762,-4.5329 596.0841,-4.5465 600.8834,-4.556 605.3988,-4.5623 609.7673,-4.5666 614.2763,-4.2233 618.9756,-3.7198 625.1485,-3.4321 631.3749,-3.2804 635.7062,-3.2464 639.9748,-3.2297 646.8054,-3.2264 654.8759,-2.8984 660.5403,-2.4034 665.018,-2.1538 669.659,-2.0256 674.4203,-1.9595 678.5909,-1.9253 682.4426,-1.9081 686.4567,-1.9002 690.8925,-1.897 695.7854,-1.5476 700.3537,-1.037 705.7768,-0.7394 711.2715,-0.5793 716.656,-0.5347 722.989,-0.5093 728.1996,-0.503 734.0222,-0.5015 739.7399,-0.5008 743.803,-0.5008 747.9309,-0.5008 753.6804,-0.5008 760.9032,-0.5009 768.2961,-0.501 775.9132,-0.5073 782.3711,-0.5168 787.7959,-0.5227 792.6413,-0.5267 798.4465,-0.5362 804.1546,-0.5474 809.7846,-0.5551 816.0626,-0.562 821.7752,-0.5666 827.4346,-0.57 833.728,-0.5779 840.6868,-0.5892 846.3407,-0.5967 850.9757,-0.6054 857.0412,-0.6188 864.1129,-0.6306 870.7969,-0.6407 877.5269,-1.15 883.9447,-1.8072 889.9535,-2.0064 895.6779,-2.3727 902.152,-3.0024 907.7954,-3.3667 911.8408,-3.4485 916.6956,-3.4821 922.2489,-3.0612 927.526,-2.1986 930.0596,-1.7639 A3.1916,3.1916 0 0 1 929.2204,4.5639 T927.7559,4.426 922.9164,3.9046 916.7587,3.5556 911.9744,3.6153 908.0632,3.6831 902.9938,3.9557 897.7807,4.5446 892.9166,4.9171 887.2793,4.998 881.4944,5.3024 876.3896,5.8929 870.8064,6.2407 864.1129,6.2306 857.0412,6.2188 850.9757,6.2054 846.3407,6.1967 840.6868,6.1892 833.728,6.1779 827.4346,6.17 821.7752,6.1666 816.0626,6.162 809.7846,6.1551 804.1546,6.1474 798.4465,6.1362 792.6413,6.1267 787.7959,6.1227 782.3711,6.1168 775.9132,6.1073 768.2961,6.101 760.9031,6.1009 753.6803,6.1007 747.9307,6.1005 743.8026,6.1002 739.7391,6.0998 734.0201,6.0985 728.1936,6.0963 722.9715,6.089 716.604,6.0618 711.1336,6.0139 705.4144,5.8411 699.6113,5.5068 695.2986,5.003 690.8787,4.6842 686.4389,4.676 682.4072,4.6622 678.5309,4.6381 674.3203,4.594 669.4604,4.5117 664.6409,4.3582 659.9629,4.0732 654.5367,3.5539 646.7908,3.2062 639.9441,3.1839 635.6491,3.1596 631.2703,3.1156 626.7148,3.0336 622.4943,2.882 618.285,2.5937 613.8299,2.0865 609.7642,1.7685 605.4011,1.7658 600.8872,1.7628 596.0923,1.7592 591.3909,1.757 586.8679,1.764 582.0548,1.7841 577.3232,1.8223 572.7421,1.8945 568.437,2.0303 564.0197,2.2842 559.0309,2.793 553.9785,3.136 549.1766,3.1347 543.8422,3.1327 538.1178,3.1303 532.2822,3.1278 526.8642,3.1268 522.237,3.1305 517.8531,3.1477 513.2958,3.1876 507.7948,3.263 501.7837,3.403 496.6933,3.6554 492.1944,4.1768 488.0081,4.551 483.676,4.5918 478.6268,4.667 472.3124,4.9725 464.3996,5.5924 458.0585,5.9725 453.8745,6.0196 449.7046,6.1047 445.5598,6.2543 441.4566,6.5227 437.0015,7.0727 430.5467,7.585 424.381,7.8848 419.6991,8.3949 414.5934,8.7413 409.7188,8.7412 404.871,8.7408 400.0701,8.7403 395.3581,8.7397 390.8149,8.7389 386.5919,8.7377 382.3483,8.736 378.0656,8.7332 373.7088,8.7288 367.3693,8.7088 360.9951,8.6753 356.3992,8.6292 351.4552,8.5447 345.8238,8.3925 340.1358,8.1035 335.4345,7.5899 330.9336,7.2536 326.3744,7.2125 322.1241,7.1343 317.8291,6.9843 313.4516,6.6923 309.3671,6.1788 305.3886,5.8439 301.1565,5.8013 296.8907,5.7216 292.5674,5.5712 288.1398,5.2822 283.9396,4.7729 277.9772,4.4525 271.8844,4.4495 267.7327,4.4465 263.6244,4.4429 259.5984,4.4386 254.0389,4.4308 246.701,4.4168 239.6766,4.3982 232.5888,4.3801 225.2724,4.3619 218.3253,4.3414 211.5159,4.325 205.2024,4.3153 198.8534,4.3059 192.3773,4.2928 186.0714,4.2753 179.75,4.2514 173.373,4.226 166.7959,4.1974 160.6903,4.1684 155.0901,4.1398 149.4895,4.1051 143.8873,4.0725 138.2793,4.0459 132.6507,4.0204 126.9476,3.996 120.9763,3.9727 114.6678,3.9398 108.3372,3.8951 101.94,3.8518 95.303,3.8138 88.9816,3.7793 83.2331,3.751 77.0982,3.7256 70.2005,3.697 64.53,3.6715 58.676,3.6491 51.8288,3.6244 45.9429,3.6054 40.5053,3.5915 35.491,3.5789 30.1816,3.5484 23.802,3.4376 17.1293,3.0301 11.8616,2.4269 6.9142,2.148 1.9866,2.1609 0,2.1706 A2.1706,2.1706 0 0 1 0,-2.1706 Z" stroke-linecap="round" fill="#9398b0"/></g></g><g transform="matrix(1, 0, 0, 1, 571.9047, 842.4862) scale(1.4000627907207877, 1.4000627907207877)" opacity="0.5"><g transform="scale(0.7142536796404501)"><path d="M3.7796,-0.7932 T4.4399,1.194 5.7825,5.2208 7.1595,9.3254 8.8244,13.3138 10.7293,17.7866 12.768,22.8589 15.1243,28.0373 18.077,34.8123 21.3105,42.3569 24.3189,48.9028 26.96,55.1047 29.3395,60.62 31.874,65.7209 34.2609,70.8572 36.4835,75.4744 38.9091,79.7481 41.2935,84.5322 43.3035,89.5203 45.2677,93.9024 47.3059,98.1942 49.1212,102.6108 50.7475,106.932 52.2702,111.1975 53.9883,115.2475 55.8878,119.3663 57.6326,123.7046 59.4693,127.7964 61.3957,131.5126 63.1681,135.3105 65.5516,140.9182 68.5174,148.0203 71.109,154.8973 73.347,161.4753 75.3168,168.1257 76.9255,174.6226 77.9644,179.7319 78.9861,185.2264 80.411,192.1644 81.8237,198.7689 83.2312,204.7717 84.6467,210.4773 86.0619,216.0961 87.6773,220.7788 89.4423,225.4525 91.264,231.2068 93.2233,236.6686 95.4576,241.3032 97.8786,245.9146 100.1563,251.2574 102.2987,257.3342 104.1444,263.3295 105.8939,268.7187 108.0585,273.4859 110.6071,277.7738 113.0496,281.5079 114.1592,283.1213 A3.3142,3.3142 0 0 1 109.547,287.8818 T108.5584,286.8241 106.2472,283.4464 103.4953,278.7962 100.6912,273.5859 98.6409,267.8207 97.0888,262.3123 94.9443,256.4633 92.9675,251.0914 90.8526,246.6688 88.067,241.6196 85.9216,236.1623 83.9932,230.4679 82.0566,225.2044 80.5361,220.3325 79.0984,214.8916 77.7102,209.1985 76.3069,203.2865 74.9089,196.7522 73.5255,189.7955 72.1417,182.9702 70.7127,176.4491 69.4585,171.4004 68.0543,166.5046 66.6284,161.625 65.0859,156.7634 62.679,150.2641 60.5899,144.9469 59.1404,141.4212 57.6271,137.8759 55.9846,134.2838 53.9443,130.26 52.0235,125.9476 50.4081,121.8781 48.4444,117.5819 46.6018,113.2035 45.1375,109.0152 43.609,104.8432 41.9509,100.6918 39.9115,96.2651 37.9079,91.6426 36.1585,87.0836 33.9224,82.5476 31.3502,77.9317 29.1154,73.2201 26.8138,68.194 24.2215,62.807 21.8987,57.2173 19.3868,51.1428 16.3867,44.446 13.2452,36.9147 10.384,30.1612 7.9907,24.7474 6.0432,19.773 4.1538,15.2344 2.3886,10.919 1.0265,6.8061 -0.3155,2.7792 -0.9796,0.7932 A2.5083,2.5083 0 0 1 3.7796,-0.7932 ZM109.2545,283.4447 T110.0423,282.4797 111.0904,278.6322 111.3962,272.5946 110.3327,267.7843 111.2063,266.1402 114.7107,268.2609 117.4153,272.7448 119.6402,277.5163 121.1137,281.9736 120.9216,287.405 117.7004,292.3065 112.2867,294.1411 106.6806,294.5431 101.8262,294.3096 97.1634,293.2176 92.6957,291.4396 89.3266,289.5152 87.8266,288.608 A3.4832,3.4832 0 0 1 91.3734,282.612 T93.7301,284.0745 98.5836,286.3026 103.7841,287.374 108.9683,287.61 113.2539,286.3965 114.2276,282.5661 112.7234,277.8531 110.8053,274.023 108.2093,270.1251 105.9237,265.6842 107.1844,261.4276 111.3458,260.158 115.3387,263.2642 117.6957,269.1891 117.8932,275.8027 117.105,281.9657 115.4506,286.2661 114.4517,287.5585 A3.3142,3.3142 0 0 1 109.2545,283.4447 Z" stroke-linecap="round" fill="#ffc034"/></g></g><g transform="matrix(1, 0, 0, 1, 851.9173, 1258.3049) scale(1.4000627907207877, 1.4000627907207877)" opacity="0.5"><g transform="scale(0.7142536796404501)"><path d="M1.8706,-1.0392 T3.4963,1.9572 6.3222,7.2028 9.329,12.3827 11.979,17.1667 13.8648,20.8425 15.8262,24.3484 17.8637,27.848 20.1853,31.2102 23.4375,35.9522 26.8607,41.1797 29.6205,45.2743 32.3511,49.0158 34.5703,52.5008 36.45,56.046 38.3535,59.4316 41.1108,64.3432 45.024,70.9056 48.0238,75.9379 49.8348,79.6601 52.3805,84.0936 55.0611,88.4258 58.3709,93.5798 61.7553,98.9273 64.995,103.8632 68.0748,108.5127 70.3227,112.3274 73.8638,117.1195 77.1846,121.8224 80.7053,127.0535 84.4048,131.8986 86.8045,135.045 89.6558,139.6318 92.4532,144.3118 95.2226,148.5854 98.384,153.5044 100.8878,157.4021 103.6518,161.4037 107.1788,166.8684 110.662,172.5357 113.8851,177.8957 116.814,182.9153 119.8675,187.6542 123.2433,192.4988 125.8212,196.6665 128.121,200.754 131.0675,205.1509 134.5423,210.4031 137.9319,215.991 140.6735,220.0652 143.9474,224.1853 147.459,228.9561 150.5574,233.8099 153.5,238.6024 156.5079,243.3781 159.8678,248.2314 163.331,253.1221 166.826,258.0148 170.4708,263.7828 173.4816,268.7703 175.8473,271.8143 178.1878,274.8907 180.9256,278.9958 183.9429,283.1076 186.8065,286.7793 189.1528,290.5749 191.4304,295.0198 194.0903,299.5825 196.1751,303.1532 198.3678,307.1598 200.9794,311.0778 203.5169,315.1042 206.1075,319.9393 207.9964,322.6782 208.5731,322.9694 A2.8129,2.8129 0 0 1 205.8349,327.8838 T204.8438,327.2351 202.7401,324.5491 200.3404,320.3721 197.6965,316.335 194.8942,312.1325 192.1067,307.3088 189.2072,302.4234 186.2597,297.4122 183.5526,292.5575 180.8907,288.5729 177.8899,284.6249 174.4749,279.6904 171.3456,275.273 168.6606,271.7357 165.6097,266.6601 162.2587,261.3024 158.7689,256.3904 155.2869,251.4644 152.5287,247.7444 150.0314,243.7405 147.3623,238.8562 144.4501,234.3642 141.3668,229.9463 138.0236,225.4708 134.703,220.9793 131.7524,215.8576 128.2866,210.7159 124.9299,205.8038 122.1565,200.6717 119.1082,195.6967 115.6727,190.724 112.4059,185.6005 109.5256,180.5953 106.4042,175.3461 103.6068,170.8363 101.0851,166.6401 97.6811,161.4487 94.1956,156.2353 90.9749,151.1919 87.4067,145.4185 83.7383,139.374 80.5565,134.8259 77.9167,131.3122 74.5674,126.2224 71.1993,121.4365 68.8278,118.414 65.6675,113.2834 61.171,106.3838 57.823,101.2742 55.6583,97.6596 52.4008,92.6257 48.4163,86.4411 45.6615,81.6921 43.9688,78.1912 41.0305,73.2473 37.8961,68.1424 35.1279,63.178 31.7865,56.793 28.6633,51.6978 25.8421,47.8225 23.0934,43.7467 19.7624,38.6076 16.4811,33.7312 14.0155,30.04 11.9954,26.4383 9.3229,21.083 5.7176,14.3962 2.7069,9.182 -0.1853,4.0026 -1.8706,1.0392 A2.1399,2.1399 0 0 1 1.8706,-1.0392 ZM204.3911,325.4197 T204.3914,324.5369 203.9092,320.0626 203.026,313.9594 202.1117,309.5522 201.2772,305.4291 200.5353,302.0269 200.1144,300.8524 A2.7225,2.7225 0 0 1 205.2669,299.0913 T205.8159,300.7547 206.628,304.3187 207.4854,308.3881 208.629,314.6912 209.6015,321.2426 210.0209,324.5466 210.0169,325.4335 A2.8129,2.8129 0 0 1 204.3911,325.4197 ZM200.6494,298.1704 T200.7258,298.0856 200.8022,298.0008 A2.7201,2.7201 0 0 1 204.8812,301.6006 T204.8066,301.6869 204.732,301.7733 A2.7225,2.7225 0 0 1 200.6494,298.1704 ZM205.2645,298.5642 T205.5544,299.2035 206.6041,302.6186 207.9552,307.8101 209.2352,312.8495 210.8249,318.8825 211.6366,325.3886 209.1115,330.7847 203.6799,333.5908 196.9815,334.1955 191.1691,334.3072 189.0594,334.321 A2.5115,2.5115 0 0 1 188.9606,329.299 T192.933,329.1634 199.7779,328.8748 204.7128,328.0532 206.8637,325.3011 206.1076,320.1544 204.5651,314.6137 203.1059,309.4917 201.8757,304.8385 200.9128,301.9336 200.4189,301.0372 A2.7201,2.7201 0 0 1 205.2645,298.5642 Z" stroke-linecap="round" fill="#ffc034"/></g></g><g transform="matrix(1, 0, 0, 1, 1180.932, 1580.3193) scale(1.4000627907207877, 1.4000627907207877)" opacity="0.5"><g transform="scale(0.7142536796404501)"><path d="M-1.6561,-0.9201 T0.0208,-3.8885 3.2825,-9.1609 5.9828,-13.2684 8.4112,-16.784 11.9053,-21.5118 16.8428,-27.8954 21.1731,-33.4218 24.571,-38.0697 28.3838,-42.9268 31.6724,-47.1132 35.3983,-51.678 39.6735,-56.781 43.4996,-61.7146 47.558,-66.7044 50.9899,-70.9491 54.4186,-75.4662 58.6214,-80.5966 62.8091,-85.5945 66.9101,-91.0991 70.7529,-96.3626 75.156,-101.8679 80.0904,-108.0487 84.2603,-113.8629 88.1479,-119.308 91.5353,-123.8594 94.6036,-128.1925 98.3608,-132.6533 101.9747,-136.6323 105.1403,-140.3023 109.8216,-145.3017 114.5383,-150.5059 117.6601,-154.4836 121.1104,-158.4014 125.5646,-163.0988 129.8182,-167.8281 133.1231,-171.4256 136.1769,-174.6419 140.271,-179.1846 144.8186,-183.9975 148.266,-187.5948 151.3102,-191.0629 155.5793,-195.6247 159.8041,-200.0324 163.5975,-204.4182 168.0004,-209.8533 171.4429,-213.9993 174.9675,-218.4202 179.3343,-223.6597 183.2173,-228.2955 186.7528,-233.0617 190.3301,-237.5243 193.4056,-241.1709 196.1222,-244.8609 199.0374,-248.7912 201.8414,-252.4164 203.1134,-254.1058 A3.035,3.035 0 0 1 208.1842,-250.7691 T207.3246,-249.525 205.1436,-246.8076 202.3811,-243.2483 199.3996,-239.0947 196.3349,-235.4232 192.9722,-231.6955 189.4845,-227.2866 185.6266,-222.3471 181.3626,-217.321 178.205,-213.3896 175.8702,-210.4171 173.3652,-207.3428 169.9115,-203.2647 166.4848,-199.2652 163.7319,-196.1781 159.5157,-191.892 155.3069,-187.4964 152.0659,-183.9092 148.6129,-180.4016 144.1244,-175.7416 139.8678,-171.105 136.8405,-167.9729 133.6326,-164.5504 129.2426,-159.7343 124.8345,-155.1148 121.5755,-151.4001 118.2492,-147.1777 113.4694,-141.8893 108.9268,-137.0309 105.6814,-133.2632 102.1653,-129.4117 98.6759,-125.2965 95.5329,-120.8958 92.1601,-116.4136 88.2463,-111 83.8956,-105.0052 78.9445,-98.8394 74.6419,-93.4913 70.7613,-88.2122 66.4896,-82.5078 62.3291,-77.5451 58.2302,-72.5708 54.7019,-67.9662 51.2153,-63.698 47.1719,-58.8171 43.1639,-53.8167 38.8564,-48.8653 35.0922,-44.4039 31.7074,-40.2585 27.8832,-35.5885 24.3289,-30.9542 20.7795,-26.5308 16.8224,-21.8403 13.692,-17.8109 11.4346,-14.6836 9.0575,-11.2592 6.4088,-7.2239 3.2902,-2.0713 1.6561,0.9201 A1.8945,1.8945 0 0 1 -1.6561,-0.9201 ZM203.4025,-250.3965 T203.1775,-250.9145 201.0685,-250.9589 196.8998,-249.6575 191.7823,-248.0489 187.1388,-246.2757 185.328,-245.2832 A3.1723,3.1723 0 0 1 181.492,-250.3368 T182.6842,-251.1821 186.9739,-253.1892 192.7276,-255.1255 198.2727,-256.3915 203.1964,-256.8764 206.5632,-255.6741 207.8951,-254.4784 A3.035,3.035 0 0 1 203.4025,-250.3965 ZM181.8423,-250.5678 T182.9534,-251.1738 185.8141,-252.4755 190.7345,-254.1205 197.1558,-256.0428 202.3709,-257.2095 206.2178,-257.4377 209.7972,-256.5074 212.3926,-253.6265 213.4146,-247.9772 213.0326,-240.2477 212.0891,-234.0338 211.6514,-231.8163 A3.0988,3.0988 0 0 1 205.5686,-233.0037 T206.3545,-237.0082 207.5074,-244.2804 207.7227,-249.6425 204.6351,-251.4306 198.7322,-250.1738 193.96,-248.6316 189.2552,-246.9634 185.6666,-245.4694 184.9777,-245.0522 A3.1723,3.1723 0 0 1 181.8423,-250.5678 Z" stroke-linecap="round" fill="#40c057"/></g></g><g transform="matrix(1, 0, 0, 1, 1453.9443, 1324.1078) scale(1.4000627907207877, 1.4000627907207877)" opacity="0.5"><g transform="scale(0.7142536796404501)"><path d="M-0.6112,-1.2067 T0.3937,-2.8553 3.01,-7.4543 5.717,-12.2375 8.0377,-16.0292 10.962,-20.125 14.0733,-24.554 17.3276,-29.2264 21.3994,-34.4815 26.1117,-40.5402 31.2104,-47.0708 36.4688,-54.1304 41.7811,-62.0836 47.1982,-70.6036 52.6756,-79.4177 58.4835,-89.3164 63.859,-98.5483 68.3166,-106.3763 73.0229,-114.2288 77.8127,-122.0129 82.2269,-129.9465 86.948,-137.9259 92.1287,-145.8687 97.4642,-153.9743 102.9549,-161.9546 108.4855,-169.8106 113.6436,-177.5137 118.3136,-184.8606 123.1379,-192.1509 127.9777,-199.3175 132.4363,-206.312 137.1579,-213.4205 141.911,-220.75 146.7258,-228.2568 152.0121,-235.6994 157.0401,-242.8388 161.9522,-250.1822 167.2431,-257.8043 172.3084,-265.1113 176.9348,-271.9219 181.3466,-278.4907 185.2344,-284.8073 188.9891,-290.8723 192.9807,-297.0991 196.2746,-302.8171 198.958,-308.0899 201.7264,-313.586 204.5555,-318.9025 207.3656,-324.0213 210.1142,-329.2718 212.9382,-334.465 215.81,-339.2963 218.2029,-343.6229 220.0644,-347.4513 222.1629,-351.3554 224.2671,-355.0814 226.6548,-359.8911 229.6296,-366.2793 232.3443,-371.2842 235.1743,-375.9926 238.1746,-381.4744 241.5852,-386.6799 245.1235,-391.2831 248.2827,-395.226 251.2633,-399.1312 253.8494,-403.2815 255.0904,-405.5172 A4.3201,4.3201 0 0 1 262.7564,-401.5312 T261.9433,-399.967 259.694,-396.3046 256.7022,-392.1106 253.5102,-387.7828 250.1371,-383.5965 247.0546,-379.3878 244.2138,-374.6465 240.8109,-368.9739 237.4901,-362.7494 234.395,-356.1463 231.7581,-350.8473 229.7382,-347.2933 227.7808,-343.6658 225.7158,-339.4857 223.1709,-334.8984 220.443,-330.3547 217.6675,-325.2979 214.8171,-319.9034 212.0289,-314.8843 209.2615,-309.7597 206.4364,-304.2391 203.532,-298.66 199.9927,-292.5818 196.0442,-286.4773 192.2716,-280.4522 188.1587,-273.8798 183.6717,-267.3002 178.9517,-260.4701 173.8212,-253.2024 168.5609,-245.734 163.5043,-238.2648 158.4121,-231.1185 153.2907,-224.0192 148.4091,-216.4978 143.5588,-209.1328 138.8532,-202.1797 134.2194,-195.0577 129.3454,-188.003 124.5331,-180.8733 119.7132,-173.4234 114.4032,-165.6145 108.866,-157.858 103.4165,-150.0351 98.0541,-141.9756 92.9874,-134.3231 88.3162,-126.532 83.704,-118.3624 78.9052,-110.6687 74.2128,-102.9737 69.6316,-95.1308 64.1386,-85.9445 58.1188,-75.9726 52.4618,-67.1864 46.8032,-58.6442 41.1516,-50.5566 35.658,-43.5132 30.4066,-37.1049 25.5317,-31.1772 21.4639,-26.2531 18.0688,-21.6625 14.8454,-17.3105 12.0321,-13.5398 9.7484,-9.9439 7.0353,-5.1789 4.3929,-0.4557 3.4112,1.2067 A2.3455,2.3455 0 0 1 -0.6112,-1.2067 ZM257.675,-399.3884 T256.5631,-399.7514 253.1002,-400.2104 247.1906,-400.3763 240.2918,-399.9922 233.6944,-398.6836 227.8706,-397.4786 223.7697,-396.5042 222.2351,-395.8803 A3.9639,3.9639 0 0 1 219.4383,-403.2982 T221.8302,-404.1548 226.1015,-405.2439 229.8773,-406.0954 235.6495,-407.3495 241.5854,-408.3658 247.3144,-408.7557 254.0674,-408.6408 258.6617,-408.0885 260.1718,-407.6601 A4.3201,4.3201 0 0 1 257.675,-399.3884 ZM222.7361,-403.0684 T223.6126,-402.516 226.7641,-401.8099 232.253,-401.5722 238.9452,-402.2123 244.4144,-403.4897 250.3882,-405.3256 256.6223,-406.9726 260.8964,-406.6087 264.0857,-404.3384 265.5453,-398.9731 265.683,-391.5204 264.589,-383.7958 262.791,-377.6362 261.9317,-375.5719 A3.104,3.104 0 0 1 256.0883,-377.6681 T256.7371,-379.8078 257.8559,-385.0157 258.3733,-390.0936 258.5218,-394.0529 257.5363,-397.8225 254.3204,-398.9958 250.3268,-397.6477 246.346,-396.31 242.077,-395.1203 237.6652,-394.2014 232.0558,-393.8619 225.5501,-394.129 220.666,-395.2402 218.9372,-396.1101 A3.9639,3.9639 0 0 1 222.7361,-403.0684 Z" stroke-linecap="round" fill="#40c057"/></g></g><g transform="matrix(1, 0, 0, 1, 1612.1514, 1203.7024) scale(1.4000627907207877, 1.4000627907207877)" opacity="1"><g transform="scale(0.7142536796404501)"><path d="M-2.4482,0.2321 T-3.7355,-1.7791 -6.7141,-7.2671 -9.0179,-12.6572 -9.6305,-14.5704 A2.7582,2.7582 0 0 1 -4.3695,-16.2296 T-3.7736,-14.3112 -1.7262,-9.6744 1.0867,-4.9941 2.4482,-3.0321 A2.9423,2.9423 0 0 1 -2.4482,0.2321 ZM-4.455,-16.4632 T-4.2337,-15.6926 -2.9086,-13.3089 -0.316,-9.1048 2.5457,-3.9667 4.8884,1.436 6.3848,7.0883 6.0796,12.9308 3.2885,18.155 -2.3865,21.389 -7.8999,22.4174 -9.6978,22.3901 A2.792,2.792 0 0 1 -9.9022,16.8099 T-7.1861,16.7067 -2.8738,15.5623 -0.2142,12.5537 0.5438,8.4902 -0.5299,3.8127 -2.5434,-1.2354 -4.9149,-5.6132 -7.0165,-9.3126 -8.7684,-12.7189 -9.545,-14.3368 A2.7582,2.7582 0 0 1 -4.455,-16.4632 Z" stroke-linecap="round" fill="#9398b0"/></g></g><g transform="matrix(1, 0, 0, 1, 1645.7529, 1161.7006) scale(1.4000627907207877, 1.4000627907207877)" opacity="1"><g transform="scale(0.7142536796404501)"><path d="M1.8733,2.9611 T0.2525,4.9766 -2.9173,8.7511 -6.5686,12.7483 -11.3044,16.8878 -13.9379,18.7891 A2.4687,2.4687 0 0 1 -16.8621,14.8109 T-14.6192,13.1279 -10.3353,9.2589 -6.774,5.4136 -3.5635,1.7966 -1.8733,-0.1611 A2.4385,2.4385 0 0 1 1.8733,2.9611 Z" stroke-linecap="round" fill="#9398b0"/></g></g><g transform="matrix(1, 0, 0, 1, 1630.3522, 1157.5004) scale(1.4000627907207877, 1.4000627907207877)" opacity="1"><g transform="scale(0.7142536796404501)"><path d="M2.2264,-1.5585 T4.5508,1.7478 8.7933,7.7819 12.3516,12.5163 15.3513,16.7767 18.3814,20.6881 21.3615,23.183 22.671,24.0206 A3.0734,3.0734 0 0 1 19.329,29.1794 T18.0294,28.3268 15.1637,26.3139 12.5623,23.5759 10.48,20.0465 7.7635,15.891 4.2447,10.9385 0.0846,4.8742 -2.2264,1.5585 A2.7176,2.7176 0 0 1 2.2264,-1.5585 Z" stroke-linecap="round" fill="#9398b0"/></g></g><g transform="matrix(1, 0, 0, 1, 994.7237, 1198.1022) scale(1.4000627907207877, 1.4000627907207877)" opacity="1"><g transform="scale(0.7142536796404501)"><path d="M3.8193,0.3456 T3.5105,2.6664 2.6297,8.9488 1.5963,15.1252 1.1348,17.34 A2.5917,2.5917 0 0 1 -3.9348,16.26 T-3.4536,14.0494 -2.5485,10.0033 -1.9253,6.2257 -1.3727,1.969 -1.0193,-0.3456 A2.4439,2.4439 0 0 1 3.8193,0.3456 ZM-3.9211,16.1993 T-3.4421,14.2158 -2.2894,10.0445 -1.0431,5.0845 -0.2686,1.5979 -0.0666,0.8836 A2.5025,2.5025 0 0 1 4.7364,2.2909 T4.521,3.0012 3.8396,6.2589 2.6924,11.2092 1.5661,15.5064 1.1211,17.4007 A2.5917,2.5917 0 0 1 -3.9211,16.1993 ZM1.4003,-0.7341 T1.5098,-0.7796 1.6193,-0.825 A2.505,2.505 0 0 1 3.4905,3.8224 T3.38,3.8655 3.2696,3.9086 A2.5025,2.5025 0 0 1 1.4003,-0.7341 ZM5.0497,1.2723 T5.1145,1.9448 4.7691,5.0576 3.927,10.7892 3.0928,15.7731 2.6904,17.4658 A2.7716,2.7716 0 0 1 -2.6904,16.1342 T-2.257,14.4493 -1.3382,9.7846 -0.3454,4.8702 0.1112,2.3303 0.0601,1.725 A2.505,2.505 0 0 1 5.0497,1.2723 Z" stroke-linecap="round" fill="#9398b0"/></g></g><g transform="matrix(1, 0, 0, 1, 976.5228, 1146.2999) scale(1.4000627907207877, 1.4000627907207877)" opacity="1"><g transform="scale(0.7142536796404501)"><path d="M0.4142,-2.0709 T2.0831,-1.8101 7.5787,-1.1729 11.4054,-0.7966 A2.2062,2.2062 0 0 1 10.9946,3.5966 T8.9147,3.4139 4.8524,3.0524 1.2279,2.4723 -0.4142,2.0709 A2.1119,2.1119 0 0 1 0.4142,-2.0709 Z" stroke-linecap="round" fill="#9398b0"/></g></g><g transform="matrix(1, 0, 0, 1, 998.9239, 1130.8992) scale(1.4000627907207877, 1.4000627907207877)" opacity="1"><g transform="scale(0.7142536796404501)"><path d="M2.4254,1.4 T2.4263,3.3787 3.1537,7.2731 3.8804,9.1886 A2.4463,2.4463 0 0 1 -0.5336,11.2993 T-1.4803,8.3441 -2.4263,3.3945 -2.4254,1.4 A2.4254,2.4254 0 0 1 2.4254,1.4 ZM0.7743,7.9688 T1.7967,7.607 3.8296,4.6141 5.2421,-0.4509 7.366,-5.0997 11.3315,-8.6218 15.9889,-11.0388 20.5343,-13.4472 23.8102,-15.1929 24.9546,-15.64 A2.5926,2.5926 0 0 1 26.7491,-10.7752 T24.824,-9.8814 20.3726,-7.6471 15.0115,-4.9031 11.1197,-1.3552 9.0945,3.6685 6.8141,8.9124 4.0372,11.898 2.5724,12.519 A2.4463,2.4463 0 0 1 0.7743,7.9688 ZM27.6221,-15.1018 T28.2028,-14.5102 29.3788,-12.1202 30.2214,-7.2794 30.5259,-1.4576 30.5832,1.3218 A2.5844,2.5844 0 0 1 25.4168,1.4782 T25.3595,0.0362 25.1698,-3.8264 24.9949,-8.4222 24.517,-10.9553 24.0816,-11.3134 A2.5926,2.5926 0 0 1 27.6221,-15.1018 Z" stroke-linecap="round" fill="#9398b0"/></g></g><g transform="matrix(1, 0, 0, 1, 1011.5244, 1130.8992) scale(1.4000627907207877, 1.4000627907207877)" opacity="1"><g transform="scale(0.7142536796404501)"><path d="M3.5388,-0.4278 T3.8896,1.2228 5.0543,5.9101 4.9601,12.0451 2.3402,15.9096 -0.7404,17.0941 -2.1092,17.5125 A2.2225,2.2225 0 0 1 -3.4908,13.2875 T-1.0732,11.4926 0.6142,6.7231 -0.4274,2.0882 -0.7388,0.4278 A2.1811,2.1811 0 0 1 3.5388,-0.4278 Z" stroke-linecap="round" fill="#9398b0"/></g></g><g transform="matrix(1, 0, 0, 1, 1011.5244, 1130.8992) scale(1.4000627907207877, 1.4000627907207877)" opacity="1"><g transform="scale(0.7142536796404501)"><path d="M0,-2.4284 T1.9866,-2.4678 6.9784,-2.8444 11.7243,-3.5534 13.465,-3.9252 A2.5812,2.5812 0 0 1 14.535,1.1252 T12.793,1.4912 7.5121,2.1822 1.9866,2.4678 0,2.4284 A2.4284,2.4284 0 0 1 0,-2.4284 Z" stroke-linecap="round" fill="#9398b0"/></g></g><g transform="matrix(1, 0, 0, 1, 1026.9251, 1156.1003) scale(1.4000627907207877, 1.4000627907207877)" opacity="1"><g transform="scale(0.7142536796404501)"><path d="M0,4.395 T-2.6488,4.3934 -9.5903,4.4136 -16.2283,4.4513 -20.803,4.4747 -26.4997,4.4672 -33.1835,4.3875 -36.4,4.3229 A2.9229,2.9229 0 0 1 -36.4,-1.5229 T-33.1835,-1.5875 -26.4997,-1.6672 -20.803,-1.6747 -16.2283,-1.6513 -9.5903,-1.6136 -2.6488,-1.5934 0,-1.595 A2.995,2.995 0 0 1 0,4.395 Z" stroke-linecap="round" fill="#9398b0"/></g></g><g transform="matrix(1, 0, 0, 1, 1004.5241, 1170.1009) scale(1.4000627907207877, 1.4000627907207877)" opacity="1"><g transform="scale(0.7142536796404501)"><path d="M2.1017,-0.5254 T2.4421,0.7661 5.057,4.2901 8.1212,9.0023 8.9107,11.4819 A2.3739,2.3739 0 0 1 4.2581,12.4273 T4.1215,11.6261 2.5899,8.8788 -0.1316,5.0863 -1.7799,1.8827 -2.1017,0.5254 A2.1664,2.1664 0 0 1 2.1017,-0.5254 ZM8.5364,13.3055 T7.9686,14.1524 4.6784,16.1339 -1.0242,17.45 -4.0043,17.6314 A2.24,2.24 0 0 1 -4.3957,13.1686 T-2.8838,12.9945 1.0702,12.4948 4.0724,11.3865 4.6324,10.6037 A2.3739,2.3739 0 0 1 8.5364,13.3055 Z" stroke-linecap="round" fill="#9398b0"/></g></g><g transform="matrix(1, 0, 0, 1, 1003.124, 1168.7009) scale(1.4000627907207877, 1.4000627907207877)" opacity="1"><g transform="scale(0.7142536796404501)"><path d="M0.3732,-2.2393 T2.3573,-1.9702 6.4896,-1.9954 10.9669,-2.9905 13.2961,-3.6915 A2.3971,2.3971 0 0 1 14.7039,0.8915 T11.877,1.7744 6.3276,2.8415 1.6159,2.6324 -0.3732,2.2393 A2.2702,2.2702 0 0 1 0.3732,-2.2393 Z" stroke-linecap="round" fill="#9398b0"/></g></g><g transform="matrix(1, 0, 0, 1, 1238.3346, 1196.7021) scale(1.4000627907207877, 1.4000627907207877)" opacity="1"><g transform="scale(0.7142536796404501)"><path d="M2.0891,-0.3482 T2.485,1.6371 2.7827,5.6139 2.2198,10.4053 1.0326,14.2715 0.3102,15.3379 A2.4328,2.4328 0 0 1 -3.5548,12.3822 T-2.8791,11.0331 -1.8799,7.004 -1.8228,2.3361 -2.0891,0.3482 A2.1179,2.1179 0 0 1 2.0891,-0.3482 ZM-3.3996,15.5212 T-3.6738,15.2191 -3.9479,14.917 A2.4208,2.4208 0 0 1 -0.4108,11.611 T-0.1279,11.9049 0.155,12.1988 A2.4328,2.4328 0 0 1 -3.3996,15.5212 ZM-4.5696,12.881 T-4.3668,11.7338 -3.6037,8.3235 -2.3595,3.2494 -1.6754,0.4383 A2.2416,2.2416 0 0 1 2.5266,2.0012 T1.9332,4.7467 0.9411,9.4162 0.3767,12.4936 0.2109,13.647 A2.4208,2.4208 0 0 1 -4.5696,12.881 ZM0.8333,-0.9845 T1.0642,-0.9444 1.2951,-0.9044 A2.2469,2.2469 0 0 1 0.4779,3.5145 T0.2479,3.4693 0.0179,3.424 A2.2416,2.2416 0 0 1 0.8333,-0.9845 ZM3.0989,0.9126 T3.2327,1.6392 3.0476,5.1864 2.3469,11.6001 1.587,16.9963 1.2089,18.7994 A2.6769,2.6769 0 0 1 -4.0089,17.6006 T-3.5621,15.8133 -2.6084,10.7947 -1.6046,5.2732 -1.2168,2.3402 -1.3259,1.6975 A2.2469,2.2469 0 0 1 3.0989,0.9126 Z" stroke-linecap="round" fill="#9398b0"/></g></g><g transform="matrix(1, 0, 0, 1, 1229.9342, 1128.099) scale(1.4000627907207877, 1.4000627907207877)" opacity="1"><g transform="scale(0.7142536796404501)"><path d="M2.708,1.4 T2.7618,4.3764 3.1501,9.022 3.4848,10.6912 A2.8647,2.8647 0 0 1 -2.1604,11.6696 T-2.4879,9.5182 -2.7618,4.3834 -2.708,1.4 A2.708,2.708 0 0 1 2.708,1.4 ZM-2.0129,10.1556 T-1.4947,8.8406 -0.0975,4.9861 2.0961,-0.4414 6.0416,-4.992 10.7375,-7.9729 15.9285,-11.178 21.2274,-14.3278 25.1969,-16.7095 26.9934,-17.8281 A2.7739,2.7739 0 0 1 29.7333,-13.004 T28.7239,-12.4446 25.9921,-10.9284 21.5896,-8.2767 16.1891,-4.9124 10.7074,-1.7886 7.0807,1.6795 5.2692,6.6248 3.8302,10.8807 3.3373,12.2052 A2.8647,2.8647 0 0 1 -2.0129,10.1556 ZM30.2817,-17.4197 T31.4213,-16.2495 33.0421,-11.9103 33.6244,-5.4246 33.755,-0.3765 33.7846,1.355 A2.9849,2.9849 0 0 1 27.8154,1.445 T27.7928,-0.2866 27.7355,-5.1947 27.6933,-10.377 27.0653,-12.8976 26.445,-13.4124 A2.7739,2.7739 0 0 1 30.2817,-17.4197 Z" stroke-linecap="round" fill="#9398b0"/></g></g><g transform="matrix(1, 0, 0, 1, 1242.5348, 1129.4991) scale(1.4000627907207877, 1.4000627907207877)" opacity="1"><g transform="scale(0.7142536796404501)"><path d="M1.7971,-1.3479 T2.8347,-0.0529 4.6186,3.9251 6.033,8.6067 7.6813,12.9393 8.6618,15.2732 A2.4772,2.4772 0 0 1 3.9448,16.7882 T3.1133,14.7373 1.3553,10.3652 0.2648,6.0498 -0.8481,2.7017 -1.7971,1.3479 A2.2464,2.2464 0 0 1 1.7971,-1.3479 ZM8.4375,17.2884 T7.9218,18.1645 4.9063,20.241 0.6202,20.7976 -2.4564,19.5104 -3.7468,18.8669 A2.2734,2.2734 0 0 1 -1.8532,14.7331 T0.6788,15.5652 3.69,15.5852 4.1691,14.7731 A2.4772,2.4772 0 0 1 8.4375,17.2884 Z" stroke-linecap="round" fill="#9398b0"/></g></g><g transform="matrix(1, 0, 0, 1, 1243.9348, 1130.8992) scale(1.4000627907207877, 1.4000627907207877)" opacity="1"><g transform="scale(0.7142536796404501)"><path d="M0,-2.4789 T1.9866,-2.5325 7.3402,-2.9677 14.0706,-4.3323 17.4341,-5.3154 A2.6294,2.6294 0 0 1 18.9659,-0.2846 T17.123,0.3016 13.466,1.4564 7.8125,2.3055 1.9866,2.5325 0,2.4789 A2.4789,2.4789 0 0 1 0,-2.4789 Z" stroke-linecap="round" fill="#9398b0"/></g></g><g transform="matrix(1, 0, 0, 1, 1260.7356, 1153.3002) scale(1.4000627907207877, 1.4000627907207877)" opacity="1"><g transform="scale(0.7142536796404501)"><path d="M1.8772,2.503 T0.5002,3.5216 -3.7698,5.3461 -8.6799,6.4691 -12.8058,6.9644 -18.2703,7.2831 -24.6319,7.6938 -29.6282,8.2911 -31.6186,8.6182 A3.0737,3.0737 0 0 1 -32.7814,2.5818 T-30.8119,2.1461 -25.3197,1.2535 -18.5937,0.703 -13.5073,0.4969 -8.0225,-0.0913 -3.149,-1.535 -1.8772,-2.503 A3.1287,3.1287 0 0 1 1.8772,2.503 Z" stroke-linecap="round" fill="#9398b0"/></g></g><g transform="matrix(1, 0, 0, 1, 1239.7347, 1165.9007) scale(1.4000627907207877, 1.4000627907207877)" opacity="1"><g transform="scale(0.7142536796404501)"><path d="M4.3994,0 T4.4044,1.3345 3.0367,6.1837 1.3089,10.5482 0.9539,11.398 A3.0025,3.0025 0 0 1 -4.5888,9.0876 T-4.062,7.8218 -2.5723,4.5922 -1.6044,1.3143 -1.5994,0 A2.9994,2.9994 0 0 1 4.3994,0 ZM0.9347,9.0425 T1.0265,9.2719 1.1184,9.5013 A2.9875,2.9875 0 0 1 -4.3584,11.8898 T-4.464,11.6664 -4.5696,11.443 A3.0025,3.0025 0 0 1 0.9347,9.0425 ZM-1.2812,7.7274 T-0.2399,7.8798 3.654,9.0986 8.0133,13.2185 8.5018,18.2362 4.317,21.6997 -1.4425,23.4871 -7.2047,23.0281 -10.3737,22.281 A2.7417,2.7417 0 0 1 -9.2263,16.919 T-6.8187,17.3653 -2.2963,17.5626 2.0206,16.7048 2.1812,14.9661 -0.9095,13.7499 -1.9588,13.6637 A2.9875,2.9875 0 0 1 -1.2812,7.7274 Z" stroke-linecap="round" fill="#9398b0"/></g></g><g transform="matrix(1, 0, 0, 1, 1241.1347, 1167.3008) scale(1.4000627907207877, 1.4000627907207877)" opacity="1"><g transform="scale(0.7142536796404501)"><path d="M1.4,-2.6951 T3.3866,-2.7435 8.6453,-2.8001 13.6587,-2.7929 15.4,-2.7774 A2.7774,2.7774 0 0 1 15.4,2.7774 T13.6587,2.7929 8.6453,2.8001 3.3866,2.7435 1.4,2.6951 A2.6951,2.6951 0 0 1 1.4,-2.6951 Z" stroke-linecap="round" fill="#9398b0"/></g></g><g transform="matrix(1, 0, 0, 1, 993.3236, 1240.1041) scale(1.4000627907207877, 1.4000627907207877)" opacity="1"><g transform="scale(0.7142536796404501)"><path d="M-1.7663,3.755 T-3.0683,2.7152 -5.2875,0.5719 -6.2047,-0.5316 A2.7888,2.7888 0 0 1 -1.8848,-4.0598 T-1.406,-3.4543 0.4195,-1.9018 1.7663,-0.955 A2.9438,2.9438 0 0 1 -1.7663,3.755 ZM-6.3785,-3.8224 T-5.5889,-5.0098 -4.7993,-6.1972 A2.7673,2.7673 0 0 1 -0.1677,-3.1674 T-0.9393,-1.9682 -1.7109,-0.769 A2.7888,2.7888 0 0 1 -6.3785,-3.8224 ZM-0.812,-6.8877 T-0.2184,-6.4503 1.8641,-3.8504 3.3262,0.8213 3.2994,3.3305 A2.8984,2.8984 0 0 1 -2.2417,1.6277 T-2.6172,0.0283 -3.5739,-2.024 -4.155,-2.4769 A2.7673,2.7673 0 0 1 -0.812,-6.8877 ZM1.8599,5.0537 T1.0607,5.4719 -1.1838,6.2393 -2.6291,6.5885 A2.9227,2.9227 0 0 1 -3.7707,0.8556 T-3.0617,0.7758 -1.5775,0.3002 -0.8022,-0.0956 A2.8984,2.8984 0 0 1 1.8599,5.0537 ZM-5.2321,5.8226 T-5.846,5.1997 -7.0868,3.0857 -7.7137,1.5945 A2.9145,2.9145 0 0 1 -2.1531,-0.1535 T-2.1817,0.2585 -1.689,1.146 -1.1677,1.6215 A2.9227,2.9227 0 0 1 -5.2321,5.8226 ZM-7.4259,-0.79 T-6.8887,-1.6521 -3.9013,-3.8238 -1.451,-5.1334 A2.9274,2.9274 0 0 1 -0.1023,0.5639 T-0.7997,0.5944 -1.969,1.4279 -2.4409,2.231 A2.9145,2.9145 0 0 1 -7.4259,-0.79 ZM0.7992,-4.7517 T1.6534,-4.2244 2.5076,-3.6971 A2.9583,2.9583 0 0 1 -0.6774,1.289 T-1.515,0.7357 -2.3526,0.1823 A2.9274,2.9274 0 0 1 0.7992,-4.7517 ZM3.8519,-1.5597 T3.9086,-0.3327 2.4796,3.4148 0.9939,5.9353 A2.9567,2.9567 0 0 1 -3.7939,2.4647 T-2.7351,1.475 -1.8491,-0.1815 -2.0218,-0.8484 A2.9583,2.9583 0 0 1 3.8519,-1.5597 Z" stroke-linecap="round" fill="#f76707"/></g></g><g transform="matrix(1, 0, 0, 1, 1238.3346, 1242.9042) scale(1.4000627907207877, 1.4000627907207877)" opacity="1"><g transform="scale(0.7142536796404501)"><path d="M-2.4301,1.8226 T-3.3986,0.3964 -4.7141,-2.8872 -4.2571,-6.4373 -0.8449,-9.3552 4.625,-9.2006 8.181,-6.299 8.8756,-4.7775 A2.918,2.918 0 0 1 3.3918,-2.7806 T1.8929,-3.5242 1.412,-3.0452 2.4301,-1.8226 A3.0376,3.0376 0 0 1 -2.4301,1.8226 ZM8.7314,-2.4498 T8.1703,-1.4325 4.6339,0.9729 -0.4496,1.5959 -3.5058,-1.1629 -4.454,-3.1564 A3.002,3.002 0 0 1 1.3306,-4.7648 T2.0797,-4.1664 3.1824,-4.3381 3.5359,-5.1082 A2.918,2.918 0 0 1 8.7314,-2.4498 ZM-3.278,-6.4236 T-2.2387,-7.1678 2.3299,-8.474 7.2895,-8.5616 8.7198,-8.0873 A3.2198,3.2198 0 0 1 6.3568,-2.097 T4.2795,-2.4907 1.1784,-2.191 0.1546,-1.4976 A3.002,3.002 0 0 1 -3.278,-6.4236 ZM10.5521,-6.2252 T10.7677,-5.6875 10.9833,-5.1498 A3.245,3.245 0 0 1 4.9084,-2.8661 T4.7165,-3.4127 4.5245,-3.9592 A3.2198,3.2198 0 0 1 10.5521,-6.2252 ZM10.3585,-1.8379 T9.7264,-1.1538 5.6219,0.1732 0.8515,0.6363 -0.4466,0.4565 A3.287,3.287 0 0 1 0.4466,-6.0565 T2.5124,-5.5678 5.0558,-5.6286 5.5333,-6.1781 A3.245,3.245 0 0 1 10.3585,-1.8379 Z" stroke-linecap="round" fill="#f76707"/></g></g><g transform="matrix(1, 0, 0, 1, 1245.3349, 1287.7062) scale(1.4000627907207877, 1.4000627907207877)" opacity="1"><g transform="scale(0.7142536796404501)"><path d="M2.4794,-1.4876 T3.4422,0.1938 5.034,3.6792 6.8087,7.8054 8.4079,11.2527 8.8612,12.3776 A2.8045,2.8045 0 0 1 3.6099,14.3484 T2.6483,12.3657 0.6274,7.5649 -1.4556,3.1172 -2.4794,1.4876 A2.8914,2.8914 0 0 1 2.4794,-1.4876 ZM4.2531,11.3793 T4.7439,10.8853 5.7556,8.1688 7.3583,2.3575 9.11,-3.2147 11.8053,-8.1008 14.9614,-12.1464 16.092,-13.289 A2.9677,2.9677 0 0 1 20.308,-9.111 T18.4144,-7.299 15.3177,-2.6233 13.0135,3.6434 10.5981,10.6676 8.7509,14.8177 8.218,15.3468 A2.8045,2.8045 0 0 1 4.2531,11.3793 Z" stroke-linecap="round" fill="#f76707"/></g></g><g transform="matrix(1, 0, 0, 1, 1270.536, 1286.3061) scale(1.4000627907207877, 1.4000627907207877)" opacity="1"><g transform="scale(0.7142536796404501)"><path d="M2.2611,-0.2826 T2.6021,2.365 3.144,7.4591 3.4552,11.8554 3.6832,15.9452 3.8008,18.0851 A2.4036,2.4036 0 0 1 -1.0008,18.3149 T-1.0881,16.1735 -1.2489,12.1393 -1.4706,7.9145 -1.9399,2.9326 -2.2611,0.2826 A2.2787,2.2787 0 0 1 2.2611,-0.2826 Z" stroke-linecap="round" fill="#f76707"/></g></g><g transform="matrix(1, 0, 0, 1, 1273.3362, 1279.3058) scale(1.4000627907207877, 1.4000627907207877)" opacity="1"><g transform="scale(0.7142536796404501)"><path d="M-1.4013,-2.3355 T0.3094,-3.3265 4.0754,-4.6757 8.6643,-4.0004 12.0645,-1.1795 13.3502,3.0583 13.0326,8.4604 9.3703,12.9995 4.942,14.9214 3.4393,15.2559 A2.7318,2.7318 0 0 1 2.1607,9.9441 T4.7394,9.2721 7.6605,6.2996 6.3024,2.1717 3.0016,1.3399 1.4013,2.3355 A2.7237,2.7237 0 0 1 -1.4013,-2.3355 Z" stroke-linecap="round" fill="#f76707"/></g></g><g transform="matrix(1, 0, 0, 1, 1005.9242, 1275.1056) scale(1.4000627907207877, 1.4000627907207877)" opacity="1"><g transform="scale(0.7142536796404501)"><path d="M2.7454,-0.7844 T3.3866,1.5399 4.4007,5.8784 5.2729,9.7815 6.5256,14.8785 7.6212,18.8814 7.9636,19.6764 A2.8735,2.8735 0 0 1 2.6496,21.8649 T2.2288,20.8069 1.0703,16.4138 -0.5232,9.2426 -2.0622,3.0955 -2.7454,0.7844 A2.8553,2.8553 0 0 1 2.7454,-0.7844 ZM2.5046,20.1334 T2.9469,18.139 4.6496,13.401 7.1566,7.7575 9.8758,2.1456 13.1418,-2.9747 16.1119,-7.0003 17.2886,-8.6176 A2.8212,2.8212 0 0 1 21.9114,-5.3824 T20.7949,-3.7229 18.021,0.2803 15.0775,4.9719 12.3865,10.4597 9.9769,15.6548 8.5404,19.559 8.1085,21.4079 A2.8735,2.8735 0 0 1 2.5046,20.1334 Z" stroke-linecap="round" fill="#f76707"/></g></g><g transform="matrix(1, 0, 0, 1, 1035.3255, 1277.9058) scale(1.4000627907207877, 1.4000627907207877)" opacity="1"><g transform="scale(0.7142536796404501)"><path d="M2.5488,-0.4248 T2.8938,1.5598 3.4493,5.6858 3.463,11.6754 2.226,17.1607 0.2786,20.0079 -0.6286,21.2181 A2.708,2.708 0 0 1 -4.9714,17.9819 T-3.4889,16.2265 -1.822,11.3756 -1.776,6.3411 -2.2316,2.4134 -2.5488,0.4248 A2.584,2.584 0 0 1 2.5488,-0.4248 Z" stroke-linecap="round" fill="#f76707"/></g></g><g transform="matrix(1, 0, 0, 1, 1035.3255, 1273.7056) scale(1.4000627907207877, 1.4000627907207877)" opacity="1"><g transform="scale(0.7142536796404501)"><path d="M-1.7561,-2.3415 T-0.3899,-3.3034 4.6631,-5.2887 11.6564,-6.162 17.5028,-3.657 20.6976,0.4904 20.921,4.3759 19.2729,8.0134 16.0465,10.4056 12.3878,11.8011 10.739,12.3488 A2.7162,2.7162 0 0 1 8.861,7.2512 T10.4711,6.5984 13.9938,4.6853 14.698,1.3516 11.3591,-0.7903 6.775,-0.2832 3.0387,1.3168 1.7561,2.3415 A2.9268,2.9268 0 0 1 -1.7561,-2.3415 Z" stroke-linecap="round" fill="#f76707"/></g></g><g transform="matrix(1, 0, 0, 1, 690.91, 850.8866) scale(1.4000627907207877, 1.4000627907207877)" opacity="1"><g transform="scale(0.7142536796404501)"><path d="M2.542,0.3631 T2.198,2.6788 1.6912,7.1297 1.4099,12.659 1.2821,19.0008 1.7958,24.6326 2.8189,30.4685 3.7045,36.775 4.7033,42.1404 5.5256,47.2015 5.7969,52.8424 6.3789,57.7285 7.0694,62.6299 7.7809,67.52 8.9967,72.2305 10.3784,77.6086 12.0129,82.9124 13.5523,88.613 14.7988,93.9164 16.1295,98.1791 17.5461,102.3977 18.7933,106.8412 20.1753,111.7235 21.5322,116.2567 22.5114,121.2258 23.8624,126.859 25.3597,131.3763 27.052,136.6008 29.1565,142.5479 30.9878,147.5663 33.0105,152.4978 35.1733,157.9029 36.8786,163.6259 38.6051,169.4496 40.4596,174.3985 42.288,179.1221 43.912,184.1832 45.419,189.5751 47.1464,195.7973 48.8163,201.2656 50.4661,206.0109 52.1566,210.7084 53.7609,215.6819 55.8024,221.938 58.2396,228.0346 60.3651,232.9115 62.4288,237.2232 64.4199,240.9686 66.6651,245.4926 69.3279,250.5831 71.5507,255.2995 73.5957,260.0034 76.2226,264.7048 79.1091,269.0838 81.6575,272.612 83.8438,275.7267 86.0465,279.6956 88.2148,283.7152 90.0721,288.1945 92.1436,293.5975 94.6425,298.939 97.3543,304.4726 100.073,309.4496 102.5762,313.6569 104.7776,317.3329 107.5607,321.0798 110.8877,325.1835 114.7021,329.5663 118.7343,333.5996 122.3995,337.2373 126.6692,340.865 131.4514,343.8422 135.6336,345.9723 139.7654,347.1509 142.0933,347.5189 A3.9605,3.9605 0 0 1 140.7267,355.3211 T139.1441,355.086 135.0956,354.1175 130.4717,352.5466 126.026,350.291 122.0254,348.0158 118.774,345.1816 115.1823,341.6168 111.6961,338.393 108.7557,335.2887 105.9607,332.0143 103.2132,328.6342 100.2141,325.0556 97.4464,321.0144 95.2454,317.3485 92.8197,313.3245 89.9708,308.1248 87.199,302.5019 84.5169,296.8001 82.4975,291.5672 80.5901,286.5031 77.9187,281.618 74.8668,277.4361 71.9294,273.3644 69.296,269.336 66.5892,264.4607 64.3242,259.4159 61.9732,254.4103 59.09,248.8542 56.4564,243.7847 53.9237,238.8192 51.7,233.9478 50.0344,229.8985 48.7037,226.2689 46.9723,221.2038 45.1318,215.838 43.5362,211.2588 42.0492,206.2091 40.5892,200.8999 38.6434,194.7688 36.82,189.0433 35.3888,184.2179 33.825,179.5345 32.2335,174.7015 30.3294,168.8289 28.4313,163.0027 26.8459,158.0405 24.7793,153.0205 22.7085,147.6419 21.053,142.0375 19.5606,137.3241 18.2745,133.6491 16.6866,128.3127 15.5205,122.939 14.7188,118.5309 13.3035,113.53 11.889,107.6709 10.5895,102.1941 9.2275,97.7682 7.9134,92.8543 6.4415,87.7105 5.1295,83.3376 3.987,78.7009 2.6784,73.266 1.4889,68.1702 0.8214,63.2374 0.1875,58.2563 -0.358,53.0453 -0.5055,47.8166 -1.1914,42.8673 -1.9822,37.6751 -2.6429,31.4537 -3.5463,24.9492 -3.9441,18.9157 -3.7131,12.382 -3.3646,6.5705 -2.8602,1.9566 -2.542,-0.3631 A2.5678,2.5678 0 0 1 2.542,0.3631 Z" stroke-linecap="round" fill="#4dabf7"/></g></g><g transform="matrix(1, 0, 0, 1, 840.7168, 1206.5026) scale(1.4000627907207877, 1.4000627907207877)" opacity="1"><g transform="scale(0.7142536796404501)"><path d="M0.6605,-3.3027 T2.3117,-2.9424 6.6863,-1.7933 11.5066,-0.3448 15.6092,0.9597 20.7185,1.8394 26.7109,2.6205 32.0317,3.2836 37.0881,3.8609 42.1638,4.4733 47.1982,4.672 51.6444,5.092 55.6102,5.678 60.5189,6.4559 65.9145,7.1356 70.9881,7.795 75.9076,8.4526 81.5068,8.9726 86.6303,9.5923 91.1303,9.8602 96.4283,9.9239 101.7424,10.4544 106.5212,11.6272 111.7791,12.9683 116.8713,13.8148 121.1913,14.5508 126.1402,16.3523 130.8339,18.2946 135.4133,20.3695 140.4416,23.1265 145.2317,25.9477 147.565,27.3662 A3.9513,3.9513 0 0 1 143.655,34.2338 T142.3238,33.5231 138.9328,31.6136 134.7071,29.3952 130.2649,27.0731 124.8653,24.4981 119.1484,22.6485 113.8531,21.4022 109.1832,20.5296 105.136,19.6814 101.0462,18.5357 96.2734,18.0002 90.738,17.8664 85.3582,17.4233 80.3944,16.7393 75.159,16.2064 70.1943,15.4572 65.1646,14.6918 59.6681,13.8823 54.4852,12.9392 49.127,12.2339 43.7272,11.6915 37.6398,10.9363 31.4369,10.1682 26.0546,9.4058 20.6231,8.5986 15.741,7.6695 10.8027,6.1975 5.2848,4.6618 0.9993,3.6046 -0.6605,3.3027 A3.3681,3.3681 0 0 1 0.6605,-3.3027 Z" stroke-linecap="round" fill="#4dabf7"/></g></g><g transform="matrix(1, 0, 0, 1, 990.5235, 1242.9042) scale(1.4000627907207877, 1.4000627907207877)" opacity="1"><g transform="scale(0.7142536796404501)"><path d="M1.6951,-1.6951 T3.0071,-0.3583 6.2199,2.8868 9.7427,6.9268 12.8811,11.0631 15.8782,15.7075 18.3334,21.2037 20.3081,26.9927 22.3764,32.3778 24.2071,36.7727 25.5201,41.0688 26.6985,45.925 28.0244,50.9961 29.4412,56.2971 30.8845,61.8073 32.3311,67.3771 33.7672,72.9651 35.1916,78.5595 36.6021,83.779 38.3024,89.5876 40.2893,95.86 41.8672,101.3336 43.1537,106.5323 44.4618,110.9919 45.783,114.9309 47.1992,119.1033 49.1556,124.1683 51.5043,129.6776 53.6673,134.656 55.812,139.569 58.3421,144.944 60.8179,150.1969 63.0578,154.7211 65.4366,158.7898 67.6028,162.4131 70.0209,166.6934 72.3581,171.4977 74.2883,175.5562 76.9828,180.2043 79.916,185.316 82.4207,189.0803 85.4811,192.9501 89.4892,197.1021 93.171,200.3213 96.0761,203.1669 99.0422,206.6205 102.0932,210.67 104.8626,214.1822 107.5591,216.897 110.8885,219.7779 114.2507,222.8039 118.2781,224.903 123.3632,225.7704 127.7556,225.6753 131.6171,224.9356 135.5863,223.4051 139.7793,220.8029 144.2799,217.4827 148.0291,214.049 151.0257,210.7703 154.3915,206.7448 157.6755,202.49 160.4864,198.2645 163.4511,193.6734 166.3482,189.7879 169.0262,185.404 171.7623,180.2322 174.5683,175.433 177.5935,171.0966 180.5342,167.1069 183.1305,162.5362 185.461,158.0464 187.3569,154.4205 188.9584,150.9699 190.4719,147.5009 192.6578,142.4556 195.5045,136.0371 198.3881,129.872 201.1821,124.1223 203.0968,119.3265 204.461,115.3414 205.8687,111.4985 207.4244,106.3531 209.1843,100.8436 211.2986,95.3474 213.8614,89.4985 216.0054,84.2693 218.1324,78.7686 220.9271,73.2035 223.3068,68.848 224.9505,65.0914 226.9142,60.7223 228.8733,56.007 230.3567,51.357 231.3864,46.6973 232.312,41.832 234.0637,36.5772 236.0569,31.7835 237.7013,27.5096 239.159,22.6153 240.5308,17.6876 241.7878,12.7756 242.6888,7.569 243.208,3.08 243.4051,1.203 A3.0114,3.0114 0 0 1 249.4149,1.597 T249.3653,3.4837 248.9959,8.7771 248.2011,14.3118 247.3357,18.3686 246.3177,22.1326 244.9023,26.6154 243.151,31.9995 241.1324,36.7641 239.4569,40.9148 238.3667,45.2786 237.1572,50.5141 235.6712,55.8593 233.8692,61.0167 232.0827,65.6495 230.2499,69.6758 228.0704,73.9396 225.7098,78.7384 223.4041,83.999 221.2447,89.5864 218.9908,94.888 216.9298,100.3594 215.005,105.8573 213.5885,110.0295 211.7604,115.655 209.6025,121.7187 207.3152,127.2228 204.5016,132.8965 201.7575,138.7353 198.9045,145.1549 195.9365,151.8741 193.4168,157.5739 190.813,162.7111 187.6706,168.3514 184.7312,172.9729 181.9256,177.1525 179.2643,181.5222 176.6315,186.0549 173.6136,191.4501 170.6534,196.044 168.0299,199.7852 164.9355,204.734 161.1655,209.6908 157.7251,213.8242 154.7605,217.356 150.9225,221.0246 146.1851,225.0838 141.9133,228.3342 138.2774,230.3074 134.0669,231.7237 128.6452,232.7343 122.7139,232.9158 116.6062,231.9236 110.853,229.0599 106.5556,225.4365 102.7831,222.1032 99.2168,218.4374 96.3838,214.7956 93.8259,211.2905 91.1604,208.1317 88.3514,205.3727 85.4926,202.6834 82.6295,199.8778 79.8195,196.7229 76.9038,193.1659 73.9233,188.5885 71.3137,183.8605 68.6888,179.1941 66.3856,174.4662 64.3277,170.1075 61.6794,165.1478 58.7362,160.2179 55.9488,155.2141 54.0551,150.3872 52.103,146.0605 49.8827,141.7282 47.8088,136.7843 45.705,131.7581 43.6132,126.7304 41.76,121.7261 40.3816,117.5136 38.9226,113.1066 37.502,108.2419 36.2453,102.9951 34.6913,97.4893 33.1643,92.7589 31.9354,88.0202 30.5955,82.3905 29.2154,76.7807 27.8467,71.1733 26.4898,65.5733 25.1456,60.0111 23.8239,54.5972 22.4886,49.496 21.1128,44.0751 19.562,38.8739 17.5838,33.8526 15.6039,28.4354 13.9252,23.1998 11.7641,18.1275 9.0621,13.8455 6.2439,10.071 2.8826,6.2158 -0.3583,3.0071 -1.6951,1.6951 A2.3972,2.3972 0 0 1 1.6951,-1.6951 Z" stroke-linecap="round" fill="#4dabf7"/></g></g><g transform="matrix(1, 0, 0, 1, 1238.3346, 1242.9042) scale(1.4000627907207877, 1.4000627907207877)" opacity="1"><g transform="scale(0.7142536796404501)"><path d="M-3.1178,-2.0236 T-2.7568,-3.6726 -1.7068,-8.2245 0.4683,-13.5731 3.1967,-17.8065 6.4576,-21.442 10.6947,-24.3907 15.4423,-26.8085 20.4565,-29.3099 25.7206,-31.3716 30.5296,-32.7818 35.202,-34.022 41.0108,-35.2124 47.0861,-35.8351 52.3774,-36.3084 57.8871,-36.9898 63.91,-37.4322 69.2983,-37.5625 74.813,-38.1074 80.7283,-38.7908 86.1056,-39.0184 90.7402,-39.3469 96.2782,-39.9833 102.7556,-40.4336 108.7334,-40.5483 114.0958,-40.5777 118.8536,-41.0699 123.5516,-41.713 128.7349,-42.1814 133.8069,-42.8068 138.9626,-43.6819 144.6095,-44.8674 150.1645,-46.1303 152.9252,-46.7717 A3.5419,3.5419 0 0 1 155.0948,-40.0283 T153.5672,-39.4021 149.2405,-37.9358 143.4899,-36.4146 136.9423,-35.0511 131.4086,-33.971 126.7907,-33.5003 122.1354,-33.2216 117.3185,-32.6076 111.6579,-32.1903 105.9729,-32.1519 100.1263,-32.0122 94.4765,-31.3874 89.2046,-30.8621 83.9651,-30.7965 79.1668,-30.563 74.4256,-29.9772 69.4005,-29.5627 64.2516,-29.4984 59.0767,-29.2404 53.3948,-28.6562 47.5162,-28.2137 42.4998,-27.923 37.4985,-27.0812 32.3749,-25.9018 27.398,-24.6248 22.9133,-23.0361 18.3116,-20.9325 13.1471,-18.4426 9.3667,-15.713 6.4302,-11.6216 4.2263,-6.5465 3.419,-2.4384 3.1178,-0.7764 A3.1795,3.1795 0 0 1 -3.1178,-2.0236 Z" stroke-linecap="round" fill="#4dabf7"/></g></g><g transform="matrix(1, 0, 0, 1, 1397.9417, 1199.5022) scale(1.4000627907207877, 1.4000627907207877)" opacity="1"><g transform="scale(0.7142536796404501)"><path d="M0,-2.9507 T1.9835,-2.9532 7.5899,-3.4691 15.5236,-5.2972 22.5259,-7.4367 27.8374,-9.3307 33.1613,-11.6335 37.9621,-13.8572 42.0495,-15.9875 45.8327,-18.1089 49.4695,-20.2287 53.2791,-22.6399 58.5705,-26.3922 63.8552,-30.5988 67.2089,-33.59 70.6193,-36.8209 74.7003,-40.8313 78.7509,-45.1779 82.3622,-49.9032 85.6513,-54.4572 89.4187,-59.571 93.2123,-65.644 96.1709,-71.1006 99.4444,-77.0736 102.8153,-83.2106 105.8382,-89.3115 109.0591,-96.1571 111.6804,-102.598 113.6945,-108.276 115.807,-113.7442 118.573,-120.6035 121.3391,-127.4974 123.8058,-133.4911 126.4149,-139.9276 128.715,-146.4551 130.5568,-152.7741 132.5406,-159.5324 134.5663,-166.4119 136.2442,-172.894 137.7592,-179.5833 139.5837,-186.606 141.5376,-193.0548 143.1379,-199.2051 144.6123,-205.7062 146.0416,-212.1664 147.4338,-218.5547 148.8111,-224.9058 150.2066,-230.6871 151.5846,-236.0589 152.9429,-241.4798 153.9394,-246.4385 154.786,-251.3811 155.936,-256.8545 156.8329,-261.8193 157.2664,-266.4788 157.8711,-271.5394 158.5257,-276.2152 158.8437,-280.3454 159.0278,-284.4956 159.1483,-288.6693 159.595,-293.2004 160.1744,-297.5719 160.5435,-303.0682 161.2105,-310.2599 162.3797,-317.1571 163.7718,-322.1835 165.1836,-325.6887 165.8911,-327.4362 A3.7264,3.7264 0 0 1 172.9289,-324.9838 T171.9892,-321.741 170.5195,-315.269 169.7266,-309.2201 169.3541,-302.5656 168.7605,-294.6698 168.2625,-288.461 168.1952,-284.1175 168.023,-279.6453 167.6648,-274.9532 167.0363,-270.4278 166.4629,-265.5683 165.9175,-260.1998 164.957,-254.9318 163.8389,-249.784 162.8948,-244.625 161.7501,-239.2114 160.3017,-233.7464 158.8672,-228.5141 157.4389,-222.9696 155.9711,-216.6255 154.4776,-210.2332 152.9442,-203.7506 151.31,-197.0011 149.5247,-190.5736 147.5674,-184.4645 145.7401,-177.7104 144.095,-170.8235 142.2897,-164.1094 140.2191,-157.258 138.1997,-150.5266 136.2148,-143.8142 133.7668,-136.923 131.1358,-130.4624 128.6856,-124.5491 125.8911,-117.6447 123.132,-110.8868 121.043,-105.5944 118.8545,-99.6496 116.0141,-92.8407 112.641,-85.8625 109.4434,-79.5541 106.0456,-73.4528 102.7582,-67.5124 99.5499,-61.6716 95.4112,-55.1035 91.6662,-50.0523 88.2394,-45.3702 84.1334,-40.109 79.8229,-35.5584 75.5776,-31.4817 71.9845,-28.1629 68.3314,-25.0086 62.566,-20.5734 56.9415,-16.7233 52.8713,-14.2548 49.0952,-12.1414 45.095,-9.9999 40.6958,-7.8106 35.6757,-5.6075 29.9035,-3.2799 24.2121,-1.4136 18.2104,0.1742 11.7585,1.6298 6.2541,2.6119 1.9897,2.9532 0,2.9507 A2.9507,2.9507 0 0 1 0,-2.9507 Z" stroke-linecap="round" fill="#4dabf7"/></g></g><g transform="matrix(1, 0, 0, 1, 685.3098, 850.8866) scale(1.4000627907207877, 1.4000627907207877)" opacity="1"><g transform="scale(0.7142536796404501)"><path d="M1.0197,1.3827 T-0.2239,3.7465 -2.4276,8.0012 -4.6559,11.7451 -7.8756,16.772 -9.8269,19.9457 A3.2768,3.2768 0 0 1 -15.3731,16.4543 T-14.3011,14.7422 -11.0276,9.9717 -7.7282,5.0368 -5.2249,0.8889 -3.8197,-1.3827 A2.7868,2.7868 0 0 1 1.0197,1.3827 Z" stroke-linecap="round" fill="#4dabf7"/></g></g><g transform="matrix(1, 0, 0, 1, 688.1099, 848.0865) scale(1.4000627907207877, 1.4000627907207877)" opacity="1"><g transform="scale(0.7142536796404501)"><path d="M2.3104,-2.3104 T3.6233,-0.9775 7.4401,2.6573 12.2709,7.6726 16.7118,12.5582 20.9756,16.5901 23.1253,18.4497 A3.3198,3.3198 0 0 1 18.8747,23.5503 T17.5508,22.5047 14.0474,19.2698 9.654,14.5415 5.4211,9.643 1.8817,6.1127 -0.9745,3.6263 -2.3104,2.3104 A3.2674,3.2674 0 0 1 2.3104,-2.3104 Z" stroke-linecap="round" fill="#4dabf7"/></g></g><g transform="matrix(1, 0, 0, 1, 1557.5489, 867.6874) scale(1.4000627907207877, 1.4000627907207877)" opacity="1"><g transform="scale(0.7142536796404501)"><path d="M2.1508,2.6905 T1.1811,4.3601 -0.9114,8.1942 -2.9616,12.177 -5.8925,17.3116 -8.2998,21.7277 -8.7035,22.8274 A2.7474,2.7474 0 0 1 -13.8079,20.7934 T-13.0999,19.1032 -10.5213,14.4534 -7.6662,9.6723 -5.4331,5.6215 -3.1677,1.7509 -2.1508,0.1095 A2.5083,2.5083 0 0 1 2.1508,2.6905 ZM-13.2581,19.9294 T-11.7221,18.4425 -8.1169,14.1567 -6.0477,11.3578 A2.2264,2.2264 0 0 1 -2.3523,13.8422 T-4.3008,17.0196 -7.7513,21.9442 -9.2532,23.6914 A2.7474,2.7474 0 0 1 -13.2581,19.9294 Z" stroke-linecap="round" fill="#4dabf7"/></g></g><g transform="matrix(1, 0, 0, 1, 1560.349, 867.6874) scale(1.4000627907207877, 1.4000627907207877)" opacity="1"><g transform="scale(0.7142536796404501)"><path d="M1.1872,-2.968 T2.8327,-2.2806 8.1114,1.17 13.2778,5.8762 16.0594,9.994 18.5327,14.1304 20.7701,17.8704 23.4913,23.0712 25.1998,26.4934 A3.1795,3.1795 0 0 1 19.6002,29.5066 T17.7196,26.2588 14.8867,21.3162 12.6875,17.5049 10.5118,13.5951 8.2415,9.9844 4.5218,6.2045 0.4783,3.605 -1.1872,2.968 A3.1966,3.1966 0 0 1 1.1872,-2.968 Z" stroke-linecap="round" fill="#4dabf7"/></g></g></svg>