<svg xmlns="http://www.w3.org/2000/svg" direction="ltr" width="728.9833270791894" height="661.4104179156129" viewBox="876.1858228797462 11568.738201896542 728.9833270791894 661.4104179156129" stroke-linecap="round" stroke-linejoin="round" style="background-color: transparent;"><defs/><g transform="matrix(1, 0, 0, 1, 914.7241, 11600.6631)" opacity="1"><path d="M0,158.39247047747617 a160.8301915177776,158.39247047747617,0,1,1,321.6603830355552,0a160.8301915177776,158.39247047747617,0,1,1,-321.6603830355552,0 " stroke="#9398b0" stroke-width="3.5" fill="none"/></g><g transform="matrix(1, 0, 0, 1, 1076.5473, 11605.5668)" opacity="1"><g transform="scale(1)"><path d="M1.8968,-0.4757 T2.2788,1.0728 2.9965,5.3912 3.4241,11.2992 3.5452,17.6687 3.5818,23.5716 3.5963,28.959 3.9443,33.8756 4.6572,38.5861 5.1296,43.7573 5.264,49.5236 5.3149,55.6466 5.3443,61.8644 5.3641,67.7224 5.3776,73.4831 5.3905,79.2167 5.4058,84.9393 5.4202,90.8631 5.4339,96.641 5.4505,102.7638 5.4649,108.5981 5.4702,113.9927 4.859,118.8742 4.1118,123.5175 3.9379,129.1037 3.2865,135.1972 2.5269,141.0038 2.343,146.5672 2.2981,152.253 1.8291,157.7782 1.1302,162.4721 0.8221,167.2892 0.7347,173.1422 0.7166,178.2623 0.7175,183.8186 0.7255,190.1407 0.7349,195.6387 0.7501,201.888 0.7662,207.7586 0.7726,213.1112 1.3599,218.3487 2.127,223.9601 2.3572,230.6203 2.421,236.9882 2.4406,243.2773 2.4475,249.1548 2.4504,254.9173 2.4521,260.8547 2.4575,266.6289 3.0535,272.595 3.8253,278.3845 4.0589,284.2808 4.1204,290.0362 4.8317,295.9838 5.6254,302.3848 5.7406,308.0753 5.7455,314.7137 5.7263,318.7343 A2.4463,2.4463 0 0 1 0.8337,318.7457 T0.815,316.6293 0.7688,311.2214 0.6958,305.2266 0.5098,299.9854 -0.2495,295.1028 -0.8853,290.1125 -0.9406,284.4055 -1.1273,278.7977 -1.869,272.9257 -2.4576,266.646 -2.4524,260.8549 -2.4514,254.9181 -2.4509,249.1573 -2.4531,243.286 -2.4659,237.0231 -2.5188,230.7491 -2.709,224.427 -3.4554,218.7647 -4.0526,213.1612 -4.0461,207.7586 -4.0298,201.8878 -4.014,195.638 -4.002,190.1385 -3.985,183.8118 -3.9578,176.649 -3.8815,169.9841 -3.6378,164.3702 -2.8617,159.6554 -2.2635,154.8028 -2.2254,149.4726 -2.0929,143.6627 -1.6389,137.6646 -0.8993,131.8879 -0.4159,125.9079 0.3852,119.7478 1.0898,113.9406 1.0951,108.5981 1.1095,102.7638 1.1261,96.641 1.1397,90.8632 1.1542,84.9393 1.1694,79.2168 1.1819,73.4834 1.1941,67.7235 1.2092,61.8683 1.2215,55.6625 1.2108,49.5888 1.1235,43.9756 0.798,39.3968 0.1096,34.5215 -0.3229,28.9632 -0.3255,23.5848 -0.3504,17.7158 -0.4508,11.4844 -0.8208,6.0115 -1.5031,2.0207 -1.8968,0.4757 A1.9556,1.9556 0 0 1 1.8968,-0.4757 Z" stroke-linecap="round" fill="#9398b0"/></g></g><g transform="matrix(1, 0, 0, 1, 908.1858, 11754.3133)" opacity="1"><g transform="scale(1)"><path d="M0,-2.3168 T1.5637,-2.3054 5.5557,-1.6675 10.4426,-0.8591 15.1178,-0.652 19.7236,-0.6293 24.3465,-0.6417 29.0216,-0.1911 33.6788,0.5372 38.0717,0.8306 42.8833,0.8496 47.9964,0.8295 52.7042,0.8045 57.7097,0.7737 62.6403,0.7407 66.9625,0.7119 71.5023,0.683 76.3036,0.6582 81.1797,0.638 86.0645,0.6231 90.9366,0.0323 95.8476,-0.7433 100.3851,-0.9899 104.592,-1.0689 109.6011,-1.109 114.5348,-1.1379 119.46,-1.1591 124.8408,-0.565 129.5717,0.1639 134.8018,0.3269 141.06,0.3611 146.6733,0.3521 152.4648,0.3396 158.4263,0.3285 164.0226,0.9149 169.7058,1.6544 175.2159,1.8457 181.841,1.8991 187.7021,1.912 193.2588,1.9149 199.2557,1.9161 204.0772,1.9161 208.3666,1.9159 212.6717,1.9194 216.9807,1.3452 221.752,0.5848 227.0462,0.3533 232.4556,0.2893 238.0884,0.2694 243.1918,0.2598 248.1534,0.25 253.2374,0.2484 258.1994,-0.3398 263.5367,-1.1088 269.1396,-1.3394 274.4501,-1.4107 280.0414,-2.0021 285.5346,-2.7696 290.5742,-3.5713 295.7198,-4.3963 300.5363,-4.6676 304.8132,-4.7385 309.1529,-4.758 314.0854,-4.761 318.9977,-4.7589 323.7186,-4.7444 328.9699,-4.6654 331.81,-4.5987 A2.9587,2.9587 0 0 1 331.81,1.3187 T328.97,1.3855 323.719,1.4647 318.9987,1.4799 314.0898,1.4846 309.1718,1.4909 304.8688,1.5053 300.7534,1.5558 295.9776,1.8534 290.7937,2.6636 285.343,3.519 279.7234,4.2744 274.5026,4.7355 269.3005,4.7811 264.0269,4.9708 258.6489,5.7153 253.3173,6.3118 248.1544,6.311 243.1955,6.3036 238.1002,6.3029 232.5065,6.315 227.2354,6.3664 222.3695,6.55 217.5334,7.2847 212.7539,7.8806 208.3665,7.884 204.0766,7.8834 199.2543,7.8821 193.2546,7.8786 187.6917,7.8733 181.8033,7.8565 175.0475,7.7946 169.1705,7.5707 163.5954,6.8151 158.3965,6.2312 152.464,6.2195 146.6697,6.2044 141.0379,6.1777 134.6324,6.0881 128.8744,5.8141 124.255,5.0296 119.4218,4.4396 114.5372,4.4197 109.6128,4.4002 104.6467,4.3937 100.5481,4.4315 96.4277,4.6053 91.4208,5.3431 86.0864,5.9369 81.1797,5.922 76.3036,5.9018 71.5023,5.877 65.9681,5.8422 60.1811,5.8022 55.2228,5.7698 50.8613,5.7442 46.3185,5.7109 40.9519,5.6379 34.9673,5.3403 29.2059,4.5115 24.3405,3.9152 19.7006,3.8856 15.0202,3.8468 9.9176,3.6169 5.0761,2.852 1.5297,2.3054 0,2.3168 A2.3168,2.3168 0 0 1 0,-2.3168 Z" stroke-linecap="round" fill="#9398b0"/></g></g><g transform="matrix(1, 0, 0, 1, 1179.5256, 11754.3133)" opacity="1"><g transform="scale(1)"><path d="M0,0 Q0,-4.4734 0,-6.4334 T0,-10.2075 0,-14.1257 0,-17.7483 0,-20.8362 0,-24.0071 0,-27.2232 0.3739,-30.4616 0.9513,-34.0861 1.2653,-37.9228 1.4362,-41.5011 1.5291,-44.5649 1.9536,-47.3488 2.5584,-50.3544 2.8875,-53.1089 3.0665,-56.0962 3.1638,-59.5863 3.2168,-62.6022 3.2456,-64.9861 3.6307,-67.0307 4.2095,-69.2602 4.5244,-71.9642 5.0696,-74.5547 5.7401,-77.0811 6.1048,-79.9465 6.3033,-82.9942 6.4112,-86.1432 6.4699,-88.9781 6.5019,-91.6374 6.5193,-94.573 6.1548,-97.661 5.3421,-101.106 L4.9,-102.98 " stroke-linecap="round" fill="none" stroke="#9398b0" stroke-width="4.5" stroke-dasharray="9 9" stroke-dashoffset="0"/></g></g><g transform="matrix(1, 0, 0, 1, 1079.8164, 11759.2171)" opacity="1"><g transform="scale(1)"><path d="M0,0 Q2.2344,-2.2344 2.8422,-3.2161 T4.1545,-5.1057 5.6162,-6.8792 7.1569,-8.9589 8.7384,-11.5814 10.342,-14.1253 12.3338,-16.2524 14.5345,-18.5313 16.8489,-20.8882 19.2297,-22.9137 21.6421,-25.5089 24.4455,-28.4119 27.4617,-31.1082 30.2197,-33.6946 32.4657,-35.8448 34.433,-37.7578 36.2465,-39.5463 38.3503,-41.2671 40.6165,-42.9465 42.5926,-44.6034 44.4108,-46.2526 46.1478,-47.8976 48.2099,-49.9096 50.4489,-52.1214 52.4148,-54.0702 54.2298,-55.8758 56.3343,-57.6037 58.5964,-59.2869 60.9464,-61.3221 63.3421,-63.5464 65.3886,-65.4997 67.6236,-67.3102 69.5873,-69.0429 71.0249,-70.3594 72.5503,-71.8189 74.1279,-73.73 75.7317,-75.5153 77.3497,-77.232 79.3471,-78.9114 81.5509,-80.5683 83.867,-82.2153 86.2441,-83.859 87.9112,-85.4965 89.192,-87.1306 90.6366,-88.7674 92.1658,-90.4056 93.7409,-92.414 95.3456,-94.2499 96.9641,-95.6225 98.5879,-97.1148 100.2168,-98.6698 101.8484,-99.8874 103.637,-100.8282 L104.61,-101.34 " stroke-linecap="round" fill="none" stroke="#9398b0" stroke-width="4.5" stroke-dasharray="9 9" stroke-dashoffset="0"/></g></g><g transform="matrix(1, 0, 0, 1, 1117.2368, 11755.3895)" opacity="1"><g transform="scale(1)"><path d="M0,0 Q1.1491,-2.8774 1.1744,-5.3837 T0.9262,-9.5407 0.5038,-12.6663 -0.0132,-16.3775 -1.1563,-20.697 -2.6423,-24.1982 -4.0275,-26.6751 -5.3533,-28.3098 -6.6491,-28.9118 -8.0616,-28.9689 L-8.83,-29 " stroke-linecap="round" fill="none" stroke="#9398b0" stroke-width="4.5" stroke-dasharray="none" stroke-dashoffset="0"/></g></g><g transform="matrix(1, 0, 0, 1, 1187.2211, 11654.5112)" opacity="1"><g transform="scale(1)"><path d="M-1.26,0 Q-0.6854,-2.3028 -0.2419,-3.2164 T1.0175,-4.6271 2.2772,-5.6795 3.5393,-6.537 5.0878,-6.7185 6.2151,-5.9554 6.5434,-4.3888 6.1497,-2.6748 5.0714,-1.1678 3.908,0.2265 2.7005,1.2724 1.1818,1.554 -0.2189,0.8454 -1.5555,-0.402 -2.5699,-1.9446 -3.1217,-3.648 -3.1346,-5.1468 -2.5671,-6.5368 -1.3965,-7.5825 0.3894,-8.4386 2.5124,-9.1917 4.5291,-9.314 5.9112,-8.8037 6.9526,-7.6643 7.5191,-6.1826 7.2528,-4.5125 6.5356,-3.0293 5.5686,-2.2225 4.4657,-1.4963 3.2912,-1.1013 2.0777,-1.4609 1.1303,-2.808 0.9021,-4.6899 1.1339,-6.5488 L1.26,-7.56 " stroke-linecap="round" fill="none" stroke="#9398b0" stroke-width="4.5" stroke-dasharray="none" stroke-dashoffset="0"/></g></g><g transform="matrix(1, 0, 0, 1, 1076.9185, 11758.3503)" opacity="1"><g transform="scale(1)"><path d="M0,0.55 Q1.2449,-0.6949 1.8343,-1.2866 T2.8697,-2.3233 3.6838,-3.1357 4.3752,-3.7031 4.8744,-4.1372 5.3945,-4.7472 6.0514,-5.5761 6.6595,-6.401 7.2389,-7.0982 7.8025,-7.726 8.3577,-8.4438 9.0359,-9.2104 9.7811,-10.0014 10.4349,-10.8056 11.0414,-11.4916 11.6199,-11.9879 12.1831,-12.3833 12.738,-12.8469 13.2884,-13.3476 13.8386,-13.8708 14.3864,-14.404 14.933,-14.9425 15.4834,-15.4886 16.0336,-16.0364 16.5814,-16.583 17.128,-17.1288 17.6738,-17.5489 18.0962,-17.9028 18.4513,-18.3461 18.893,-18.8358 19.505,-19.3507 20.2118,-19.8794 20.7217,-20.4154 21.2476,-20.9579 21.7822,-21.5015 22.3261,-22.048 22.9982,-22.5984 23.6123,-23.1463 24.195,-23.6929 24.7604,-24.3642 25.3188,-24.9779 25.8711,-25.4371 26.5432,-26.0609 27.2827,-26.7718 27.9359,-27.4071 28.5442,-27.8781 29.126,-28.3874 29.691,-29.0407 30.2468,-29.7677 30.7978,-30.5371 31.346,-31.2042 31.8927,-31.8156 32.441,-32.399 32.9877,-32.9649 33.5337,-33.5213 34.0792,-34.0724 34.6268,-34.6231 35.1777,-35.1757 35.7282,-35.7272 36.1531,-36.2757 36.5074,-36.8226 36.9486,-37.2455 37.4372,-37.5987 37.9515,-38.0393 38.4798,-38.5275 39.0157,-39.0417 39.558,-39.5721 40.1016,-40.1092 40.6458,-40.65 41.1949,-41.1972 41.7444,-41.7457 42.2919,-42.2926 42.8405,-42.964 43.5129,-43.7032 44.2503,-44.4792 44.9,-45.273 45.5019,-45.9534 46.0779,-46.5743 46.642,-47.1606 47.1974,-47.7303 47.8758,-48.2933 48.621,-48.8481 49.1495,-49.3985 49.5624,-49.8232 50.0378,-50.1797 50.545,-50.6222 51.0694,-51.1114 51.6032,-51.626 52.1421,-52.0291 52.5607,-52.3738 52.9115,-52.8098 53.3508,-53.2955 53.8407,-53.6852 54.3602,-54.0225 54.8936,-54.4591 55.4323,-54.9475 55.9739,-55.4616 56.517,-55.9898 57.0633,-56.5257 57.609,-56.9426 58.1544,-57.2948 58.6996,-57.7349 59.2447,-58.0975 59.7898,-58.4201 60.3371,-58.8441 60.8879,-59.3233 61.4383,-59.7094 61.9863,-60.1702 62.5329,-60.6717 63.0788,-61.0699 63.6243,-61.5374 64.1718,-62.0402 64.7182,-62.5622 65.2639,-63.0947 65.9347,-63.6329 66.6759,-64.1765 67.3298,-64.7207 67.9341,-65.2653 68.5136,-65.687 69.0774,-66.1649 69.7558,-66.9242 70.4987,-67.7134 71.1536,-68.3936 71.7585,-69.0121 72.336,-69.4717 72.8987,-69.8471 73.4556,-70.2999 74.0117,-70.7947 74.6881,-71.3147 75.4299,-71.8461 76.0821,-72.3837 76.6853,-72.9246 77.3874,-73.4697 78.1433,-74.0193 78.803,-74.6922 79.5381,-75.4322 80.3141,-76.0833 80.9849,-76.686 81.5982,-77.2624 82.1804,-77.8245 82.748,-78.381 83.3052,-78.9323 83.8569,-79.4807 84.4055,-80.0322 84.9525,-80.5829 85.6239,-81.1311 86.3654,-81.6778 87.0219,-82.2237 87.6275,-82.7715 88.2055,-83.318 88.7684,-83.8638 89.3232,-84.4093 89.8758,-84.9545 90.4249,-85.3765 90.9721,-85.7315 91.5184,-86.1731 92.064,-86.6642 92.614,-87.3075 93.1639,-88.0314 93.7116,-88.5506 94.2604,-88.9562 94.8074,-89.4253 95.2281,-89.9313 95.5824,-90.332 96.0236,-90.6731 96.5122,-91.1072 97.0287,-91.5918 97.5583,-92.104 98.0949,-92.508 98.6353,-92.8555 99.1801,-93.4207 99.7295,-94.1021 100.2769,-94.7213 100.8233,-95.1813 101.3713,-95.68 101.9179,-96.1998 102.4638,-96.608 103.0092,-97.0809 103.5545,-97.5866 104.1019,-97.9849 104.5251,-98.3269 104.8785,-98.7615 105.3192,-99.2488 105.812,-99.7669 106.331,-100.2973 106.8618,-100.9597 107.399,-101.694 107.9398,-102.342 108.4848,-103.0684 109.0298,-103.8375 109.5748,-104.6298 110.1198,-105.3093 110.5394,-105.8067 110.8931,-106.328 111.3363,-106.8602 111.8259,-107.3982 112.343,-107.9394 112.8775,-108.3592 113.5421,-108.8361 114.4086,-109.5575 L114.88,-109.95 " stroke-linecap="round" fill="none" stroke="#e599f7" stroke-width="4.5" stroke-dasharray="none" stroke-dashoffset="0"/></g></g><g transform="matrix(1, 0, 0, 1, 1190.7007, 11648.3972)" opacity="1"><g transform="scale(1)"><path d="M0,0 Q-0.497,1.2449 -0.6322,1.8343 T-0.9664,2.9951 -1.2735,4.126 -1.4407,5.2382 -1.5316,6.3402 -1.7041,7.4368 -1.9211,8.5349 -2.0392,9.6339 -2.1034,10.7288 -2.1383,11.8215 -2.1573,12.7898 -2.1677,13.6905 -2.1733,14.6821 -2.1764,15.7231 -2.178,16.9118 -2.3043,18.181 -2.4984,19.4938 -2.604,20.9581 -2.6615,22.254 -2.6927,23.456 -2.7097,24.7324 -2.719,25.9237 -2.8517,26.9457 -3.0516,27.8802 -3.1603,28.8902 -3.2194,30.0597 -3.3747,31.3184 -3.5823,32.5025 -3.6953,33.6459 -3.8821,34.7695 -4.1091,35.8801 -4.3581,36.9813 -4.6189,38.0774 -4.8839,39.1707 -5.1511,40.2671 -5.2965,41.3651 -5.501,42.4594 -5.7377,43.5518 -5.8664,44.6431 -6.0596,45.7361 -6.2878,46.8323 -6.4119,48.0533 -6.4794,49.34 -6.5162,50.6624 -6.5362,52.0042 -6.6724,53.2358 -6.872,54.4073 -6.9805,55.5417 -7.0396,56.6559 -7.0717,57.759 -7.0892,58.733 -7.0987,59.6391 -7.1038,60.6336 -7.232,61.797 -7.4272,63.0524 -7.5334,64.2346 -7.5911,65.3748 -7.6225,66.3712 -7.6396,67.2895 -7.6489,68.2861 -7.7771,69.2022 -7.9699,70.0744 -8.0748,71.046 -8.2573,71.9484 -8.482,72.8155 -8.6042,73.7866 -8.6707,74.8141 -8.83,75.9956 -9.0397,77.3838 -9.1539,78.6384 -9.2159,79.8224 -9.3774,81.2167 -9.5929,82.5976 -9.7101,83.9713 -9.7739,85.2156 -9.8086,86.3918 -9.8275,87.6564 -9.8378,88.8436 -9.9687,89.8634 -10.1654,90.7898 -10.2724,91.7954 -10.3306,92.844 -10.3622,93.9115 -10.3795,94.9893 -10.5119,96.3234 -10.7071,97.9247 -10.8133,99.5459 -10.8711,101.0503 -10.9025,102.4911 -10.9268,104.1355 L-10.94,105.03 " stroke-linecap="round" fill="none" stroke="#e599f7" stroke-width="4.5" stroke-dasharray="none" stroke-dashoffset="0"/></g></g><g transform="matrix(1, 0, 0, 1, 1080.7477, 11761.6324)" opacity="1"><g transform="scale(1)"><path d="M0,0 Q2.4943,-0.2508 3.6721,-0.4421 T5.7391,-0.863 7.6114,-1.2173 9.2546,-1.41 11.2703,-1.7634 13.7394,-2.2042 15.7073,-2.444 17.1518,-2.5744 18.4346,-2.6453 19.878,-2.6839 21.2902,-2.7049 22.5601,-2.7164 23.6225,-2.7226 24.8229,-2.726 26.3492,-2.7278 27.9296,-2.7288 29.5372,-2.857 30.9087,-3.0545 32.2773,-3.1619 33.8973,-3.2203 35.4056,-3.2521 36.8463,-3.2694 38.501,-3.2788 40.2767,-3.2839 41.8673,-3.2867 43.3551,-3.4113 44.7869,-3.6022 46.3159,-3.7061 48.0232,-3.7626 49.5744,-3.7933 51.1639,-3.8101 52.9017,-3.9445 54.5973,-4.1431 56.1421,-4.2511 57.6049,-4.3099 58.8977,-4.3419 60.1026,-4.3593 61.385,-4.3687 62.5797,-4.3739 63.8521,-4.3767 65.4175,-4.3782 67.0192,-4.379 68.513,-4.3795 69.8226,-4.3797 70.7859,-4.5052 72.06,-4.6989 73.6264,-4.8043 75.224,-4.8616 76.9641,-4.8928 78.6608,-4.9098 80.2086,-5.0421 81.5499,-5.2372 82.7788,-5.3434 83.9445,-5.4011 85.0756,-5.4325 86.3156,-5.4496 87.4918,-5.4589 88.631,-5.464 89.8731,-5.4667 90.9205,-5.4682 92.115,-5.469 93.5149,-5.4695 94.6504,-5.4697 95.5166,-5.4698 96.3618,-5.4699 97.3208,-5.47 98.2142,-5.47 99.1995,-5.7185 100.4952,-6.2635 L101.2,-6.56 " stroke-linecap="round" fill="none" stroke="#e599f7" stroke-width="4.5" stroke-dasharray="none" stroke-dashoffset="0"/></g></g><g transform="matrix(1, 0, 0, 1, 1124.7062, 11725.7152)" opacity="1"><g transform="scale(1)"><path d="M1,0 Q2.368,-2.2754 3.1938,-3.1224 T4.4689,-3.9763 5.3905,-3.7591 6.5759,-3.4129 8.1327,-3.2246 9.6636,-3.3502 11.1782,-3.8722 12.4558,-4.6099 13.3788,-5.6952 14.4159,-7.1815 L14.98,-7.99 " stroke-linecap="round" fill="none" stroke="#4dabf7" stroke-width="3" stroke-dasharray="none" stroke-dashoffset="0"/></g></g><g transform="matrix(1, 0, 0, 1, 1131.6978, 11723.7176)" opacity="1"><g transform="scale(1)"><path d="M0,1 Q0,4.1874 0,6.0887 L0,7.99 " stroke-linecap="round" fill="none" stroke="#4dabf7" stroke-width="3" stroke-dasharray="none" stroke-dashoffset="0"/></g></g><g transform="matrix(1, 0, 0, 1, 1135.693, 11721.72)" opacity="1"><g transform="scale(1)"><path d="M0,1 Q-0.456,5.0994 -0.728,7.5447 L-1,9.99 " stroke-linecap="round" fill="none" stroke="#4dabf7" stroke-width="3" stroke-dasharray="none" stroke-dashoffset="0"/></g></g><g transform="matrix(1, 0, 0, 1, 1140.6871, 11736.7021)" opacity="1"><g transform="scale(1)"><path d="M-1,0 Q-3.2754,0 -4.5784,0 T-7.0461,0.228 -9.2982,0.58 -11.4331,0.9995 -13.9625,1.6837 -17.2122,2.5362 L-18.98,3 " stroke-linecap="round" fill="none" stroke="#4dabf7" stroke-width="3" stroke-dasharray="none" stroke-dashoffset="0"/></g></g><g transform="matrix(1, 0, 0, 1, 1131.6978, 11743.6937)" opacity="1"><g transform="scale(1)"><path d="M0,0 Q-0.912,1.368 -1.1601,2.4218 T-1.5431,4.5049 -1.5234,6.3221 -1.0567,7.5387 -0.1189,8.2005 1.3033,8.5605 2.533,8.5284 3.4277,8.0549 4.1401,7.1133 4.0739,5.9193 3.1282,5.0441 1.9298,4.568 0.8218,4.5347 -0.3581,4.8296 L-1,4.99 " stroke-linecap="round" fill="none" stroke="#4dabf7" stroke-width="3" stroke-dasharray="none" stroke-dashoffset="0"/></g></g><g transform="matrix(1, 0, 0, 1, 1129.7002, 11661.7918)" opacity="1"><g transform="scale(1)"><path d="M0,0 Q-0.456,4.0994 -0.58,5.6705 T-0.9995,8.3242 -1.4557,10.4495 -1.7039,12.5154 -1.8389,14.3233 -2.1404,16.2187 -2.6971,18.6548 L-3,19.98 " stroke-linecap="round" fill="none" stroke="#4dabf7" stroke-width="3" stroke-dasharray="none" stroke-dashoffset="0"/></g></g><g transform="matrix(1, 0, 0, 1, 1129.7002, 11658.7954)" opacity="1"><g transform="scale(1)"><path d="M0,0 Q-1.824,1.824 -2.7738,2.5458 T-4.4684,4.1164 -5.8463,5.6548 -7.2798,7.1756 -9.0351,8.9984 L-9.99,9.99 " stroke-linecap="round" fill="none" stroke="#4dabf7" stroke-width="3" stroke-dasharray="none" stroke-dashoffset="0"/></g></g><g transform="matrix(1, 0, 0, 1, 1205.6093, 11688.7595)" opacity="1"><g transform="scale(1)"><path d="M0,0 Q0,2.7314 0.228,4.1584 T0.728,7.2877 L1,8.99 " stroke-linecap="round" fill="none" stroke="#4dabf7" stroke-width="3" stroke-dasharray="none" stroke-dashoffset="0"/></g></g><g transform="matrix(1, 0, 0, 1, 1209.6045, 11704.7404)" opacity="1"><g transform="scale(1)"><path d="M0,0 Q-2.2754,-0.456 -3.3504,-0.58 T-5.694,-0.7715 -8.4764,-0.9195 L-9.99,-1 " stroke-linecap="round" fill="none" stroke="#4dabf7" stroke-width="3" stroke-dasharray="none" stroke-dashoffset="0"/></g></g><g transform="matrix(1, 0, 0, 1, 1199.6165, 11712.7308)" opacity="1"><g transform="scale(1)"><path d="M0,0 Q1.824,-0.456 2.7738,-0.58 T4.2404,-0.3155 5.0382,0.7403 5.2442,2.2245 4.9026,3.7136 4.263,4.9796 3.9151,6.1243 4.4075,7.2031 5.5851,8.0179 7.3658,8.4612 9.7131,8.8037 L10.99,8.99 " stroke-linecap="round" fill="none" stroke="#4dabf7" stroke-width="3" stroke-dasharray="none" stroke-dashoffset="0"/></g></g><g transform="matrix(1, 0, 0, 1, 1176.644, 11734.7045)" opacity="1"><g transform="scale(1)"><path d="M0,0 Q-2.7314,0 -3.9304,0.228 T-6.5597,0.728 L-7.99,1 " stroke-linecap="round" fill="none" stroke="#4dabf7" stroke-width="3" stroke-dasharray="none" stroke-dashoffset="0"/></g></g><g transform="matrix(1, 0, 0, 1, 1167.6548, 11734.7045)" opacity="1"><g transform="scale(1)"><path d="M0,0 Q0,2.2754 -0.228,3.3504 T-0.58,5.238 -0.9995,6.9489 -1.6837,9.4734 -2.5362,13.0398 L-3,14.98 " stroke-linecap="round" fill="none" stroke="#4dabf7" stroke-width="3" stroke-dasharray="none" stroke-dashoffset="0"/></g></g><g transform="matrix(1, 0, 0, 1, 1138.6895, 11766.6662)" opacity="1"><g transform="scale(1)"><path d="M0,0 Q0,5.0114 0,6.8283 T0,9.8615 0.228,12.6515 0.808,15.763 1.8076,18.8214 3.261,21.8532 5.1894,24.8682 7.6065,27.646 10.2871,30.0692 13.1111,32.5274 16.013,35.0024 19.1854,37.2585 22.5072,39.3978 25.9079,41.4736 29.5797,43.5126 33.3988,45.7595 37.2982,48.1218 41.4691,50.3189 46.0158,52.4238 50.767,54.4786 55.855,56.5085 61.1287,58.2967 66.5032,59.9512 72.1584,61.533 77.7406,62.8495 83.055,64.0216 88.2215,65.1153 93.0818,66.1662 97.5475,66.966 101.5705,67.629 104.8991,68.2177 107.8475,68.5379 110.5892,68.7122 112.7647,68.3509 114.7694,67.4242 L115.86,66.92 " stroke-linecap="round" fill="none" stroke="#4dabf7" stroke-width="3" stroke-dasharray="none" stroke-dashoffset="0"/></g></g><g transform="matrix(1, 0, 0, 1, 1256.5483, 11831.5885)" opacity="1"><g transform="scale(1)"><path d="M0,0 Q-0.912,-0.912 -1.6161,-1.6161 T-3.3849,-3.1569 -5.2568,-4.6768 -6.9591,-5.9596 -8.5692,-7.1135 -10.1268,-8.4252 -11.9747,-10.0863 L-12.98,-10.99 " stroke-linecap="round" fill="none" stroke="#4dabf7" stroke-width="3" stroke-dasharray="none" stroke-dashoffset="0"/></g></g><g transform="matrix(1, 0, 0, 1, 1253.5519, 11829.5908)" opacity="1"><g transform="scale(1)"><path d="M0,0 Q0,1.824 -0.228,2.7738 T-0.808,4.6964 -2.2613,7.1103 -4.6763,10.2707 L-5.99,11.99 " stroke-linecap="round" fill="none" stroke="#4dabf7" stroke-width="3" stroke-dasharray="none" stroke-dashoffset="0"/></g></g><g transform="matrix(1, 0, 0, 1, 1299.4969, 11827.5932)" opacity="1"><g transform="scale(1)"><path d="M-1,0 Q-4.6434,0.912 -5.8625,1.3881 T-7.9726,2.5768 -9.5765,4.1332 -10.4491,5.6639 -10.4677,6.9526 -9.7939,8.1097 -8.5153,9.1951 -6.9101,10.2416 -5.1271,11.0389 -3.2451,11.4726 -1.5373,11.7085 -0.1523,11.6089 1.2417,11.208 L2,10.99 " stroke-linecap="round" fill="none" stroke="#4dabf7" stroke-width="3" stroke-dasharray="none" stroke-dashoffset="0"/></g></g><g transform="matrix(1, 0, 0, 1, 1313.4801, 11829.5908)" opacity="1"><g transform="scale(1)"><path d="M0,0 Q-2.2754,1.368 -2.8944,1.9681 T-3.85,3.3484 -4.1441,4.781 -3.8504,6.0163 -3.2346,7.1443 -2.2156,8.2139 -0.7493,9.0238 1.1861,9.4644 3.1487,9.4761 4.6723,9.0264 5.9572,8.0978 7.1121,6.6829 7.9684,5.0035 8.2063,3.1779 7.8797,1.7288 7.246,0.4845 6.4325,-1.1246 L5.99,-2 " stroke-linecap="round" fill="none" stroke="#4dabf7" stroke-width="3" stroke-dasharray="none" stroke-dashoffset="0"/></g></g><g transform="matrix(1, 0, 0, 1, 1333.4562, 11827.5932)" opacity="1"><g transform="scale(1)"><path d="M0,0 Q-1.368,0 -1.7401,0.228 T-2.0866,0.808 -1.5911,1.5796 -0.6376,2.4553 0.3372,3.3854 1.5514,5.0291 2.668,7.0633 2.8194,8.6259 1.9897,9.9319 0.8544,10.8704 -0.4472,11.3809 -1.8393,11.4307 -3.0503,11.0017 -3.9348,9.8564 -4.6182,7.9999 L-4.99,6.99 " stroke-linecap="round" fill="none" stroke="#4dabf7" stroke-width="3" stroke-dasharray="none" stroke-dashoffset="0"/></g></g><g transform="matrix(1, 0, 0, 1, 1352.4335, 11814.6088)" opacity="1"><g transform="scale(1)"><path d="M0,0 Q-2.2754,3.1874 -3.1224,4.5104 T-4.886,7.0091 -6.5294,9.2781 -7.8794,11.6502 -9.0699,14.3086 -9.9454,16.8925 -10.4218,19.4358 -10.4529,21.9594 -10.0138,24.0162 -9.091,25.3632 -7.6769,26.3239 -5.998,27.0745 -4.0563,27.6545 L-3,27.97 " stroke-linecap="round" fill="none" stroke="#4dabf7" stroke-width="3" stroke-dasharray="none" stroke-dashoffset="0"/></g></g><g transform="matrix(1, 0, 0, 1, 1355.4299, 11821.6004)" opacity="1"><g transform="scale(1)"><path d="M0,0 Q1.368,-0.456 2.4218,-1.036 T4.2769,-2.1596 5.9701,-3.2245 7.3472,-4.0296 8.0963,-4.2418 8.5038,-3.9035 8.4975,-3.0355 8.2661,-1.8793 8.3682,-0.7944 9.1077,0.0239 10.4198,0.469 11.8152,0.4831 13.0304,-0.1932 14.1474,-1.2451 15.3343,-2.3817 L15.98,-3 " stroke-linecap="round" fill="none" stroke="#4dabf7" stroke-width="3" stroke-dasharray="none" stroke-dashoffset="0"/></g></g><g transform="matrix(1, 0, 0, 1, 1364.4191, 11820.6016)" opacity="1"><g transform="scale(1)"><path d="M0,0 Q0,2.2754 0,3.5784 T0,6.4356 L0,7.99 " stroke-linecap="round" fill="none" stroke="#4dabf7" stroke-width="3" stroke-dasharray="none" stroke-dashoffset="0"/></g></g><g transform="matrix(1, 0, 0, 1, 1367.4155, 11822.5992)" opacity="1"><g transform="scale(1)"><path d="M0,1 Q-0.456,3.7314 -0.728,5.3607 L-1,6.99 " stroke-linecap="round" fill="none" stroke="#4dabf7" stroke-width="3" stroke-dasharray="none" stroke-dashoffset="0"/></g></g><g transform="matrix(1, 0, 0, 1, 1375.406, 11830.5896)" opacity="1"><g transform="scale(1)"><path d="M0,0 Q-2.7314,0.456 -3.9304,0.58 T-6.4656,0.7715 -9.8944,0.8757 -13.8095,0.9324 -17.8059,0.9762 L-19.98,1 " stroke-linecap="round" fill="none" stroke="#4dabf7" stroke-width="3" stroke-dasharray="none" stroke-dashoffset="0"/></g></g><g transform="matrix(1, 0, 0, 1, 1362.4215, 11837.5813)" opacity="1"><g transform="scale(1)"><path d="M0,0 Q-0.912,2.7314 -1.3881,3.9304 T-2.3511,6.2376 -3.103,8.1767 -2.828,9.6876 -1.3105,10.7375 0.4271,11.0806 1.8284,10.5833 2.8186,9.4008 3.3573,7.8455 3.1944,6.5434 2.1937,5.835 0.7729,5.2877 L0,4.99 " stroke-linecap="round" fill="none" stroke="#4dabf7" stroke-width="3" stroke-dasharray="none" stroke-dashoffset="0"/></g></g><g transform="matrix(1, 0, 0, 1, 1382.3976, 11813.61)" opacity="1"><g transform="scale(1)"><path d="M0,0 Q0.912,3.6434 1.1601,4.8625 T1.7711,7.4286 2.5595,9.9623 3.2163,12.2504 3.7994,14.4071 4.1166,17.8581 3.8354,22.0131 3.2265,25.1832 2.4392,28.0454 1.5549,30.7425 0.3899,32.8937 -1.158,34.8796 L-2,35.96 " stroke-linecap="round" fill="none" stroke="#4dabf7" stroke-width="3" stroke-dasharray="none" stroke-dashoffset="0"/></g></g><g transform="matrix(1, 0, 0, 1, 1214.5985, 11933.4664)" opacity="1"><g transform="scale(1)"><path d="M0,1 Q-0.456,2.8194 -0.58,3.7703 T-0.9995,6.1505 -1.4557,8.811 -1.7039,11.1681 -2.0669,13.1343 -2.4924,14.8879 -2.9519,16.7539 -3.4298,18.9067 -3.9155,21.4436 -4.6335,24.1916 -5.5121,27.2864 L-5.99,28.97 " stroke-linecap="round" fill="none" stroke="#4dabf7" stroke-width="3" stroke-dasharray="none" stroke-dashoffset="0"/></g></g><g transform="matrix(1, 0, 0, 1, 1224.5866, 11924.4772)" opacity="1"><g transform="scale(1)"><path d="M-1,0 Q0.368,-0.456 1.8778,-0.58 T4.437,-0.5435 6.2852,0.1603 7.5186,1.2272 8.1895,2.2636 8.3265,3.2811 7.7171,4.2884 6.7015,5.2923 5.6954,6.2945 4.6943,7.2956 4.3754,8.0683 4.8837,8.4886 5.8442,8.9452 7.2787,9.4216 8.743,9.9088 10.1983,10.6091 L10.99,10.99 " stroke-linecap="round" fill="none" stroke="#4dabf7" stroke-width="3" stroke-dasharray="none" stroke-dashoffset="0"/></g></g><g transform="matrix(1, 0, 0, 1, 1251.5543, 11942.4557)" opacity="1"><g transform="scale(1)"><path d="M1,0 Q3.7314,0 5.3607,0 L6.99,0 " stroke-linecap="round" fill="none" stroke="#4dabf7" stroke-width="3" stroke-dasharray="none" stroke-dashoffset="0"/></g></g><g transform="matrix(1, 0, 0, 1, 1249.5567, 11949.4473)" opacity="1"><g transform="scale(1)"><path d="M0,0 Q3.1874,0.456 5.0887,0.728 L6.99,1 " stroke-linecap="round" fill="none" stroke="#4dabf7" stroke-width="3" stroke-dasharray="none" stroke-dashoffset="0"/></g></g><g transform="matrix(1, 0, 0, 1, 1294.5029, 11923.4784)" opacity="1"><g transform="scale(1)"><path d="M0,0 Q-0.456,6.3749 -0.728,10.1774 L-1,13.98 " stroke-linecap="round" fill="none" stroke="#4dabf7" stroke-width="3" stroke-dasharray="none" stroke-dashoffset="0"/></g></g><g transform="matrix(1, 0, 0, 1, 1296.5005, 11944.4533)" opacity="1"><g transform="scale(1)"><path d="M0,0 Q-2.7314,-0.456 -3.9304,-0.58 T-6.2376,-0.7715 -8.1767,-0.6477 -9.9988,-0.2282 L-10.99,0 " stroke-linecap="round" fill="none" stroke="#4dabf7" stroke-width="3" stroke-dasharray="none" stroke-dashoffset="0"/></g></g><g transform="matrix(1, 0, 0, 1, 1284.5148, 11951.4449)" opacity="1"><g transform="scale(1)"><path d="M0,0 Q2.7314,0.912 3.4744,1.6161 T4.6215,2.9289 4.5638,4.5527 3.3947,6.3481 2.3027,7.7808 1.7087,9.0162 1.6135,10.1443 2.4715,10.9859 4.0759,11.4438 5.8607,11.6929 7.8875,11.8853 L8.99,11.99 " stroke-linecap="round" fill="none" stroke="#4dabf7" stroke-width="3" stroke-dasharray="none" stroke-dashoffset="0"/></g></g><g transform="matrix(1, 0, 0, 1, 1283.516, 11921.4808)" opacity="1"><g transform="scale(1)"><path d="M0,0 Q-1.824,3.6434 -2.5458,5.0905 T-3.8884,8.0064 -5.0747,10.7303 -6.1761,13.1242 -7.2312,15.5664 -8.2612,17.8047 -9.0495,19.9321 -9.4784,23.5951 -9.7117,27.8655 -9.6106,31.1006 -9.0996,33.7702 -8.3656,36.1322 -7.7383,38.1011 -6.9411,39.8562 -5.6774,41.86 L-4.99,42.95 " stroke-linecap="round" fill="none" stroke="#4dabf7" stroke-width="3" stroke-dasharray="none" stroke-dashoffset="0"/></g></g><g transform="matrix(1, 0, 0, 1, 1308.4861, 11925.476)" opacity="1"><g transform="scale(1)"><path d="M0,0 Q0.456,3.6434 0.58,5.0905 T0.7715,7.7806 0.8757,10.3818 1.1604,13.3906 1.5433,16.8491 1.7515,20.3242 1.4088,24.4924 0.5384,28.5816 -0.3911,31.4902 -1.3528,33.7564 -2.3319,35.443 -3.5463,36.8142 -5.129,38.1975 L-5.99,38.95 " stroke-linecap="round" fill="none" stroke="#4dabf7" stroke-width="3" stroke-dasharray="none" stroke-dashoffset="0"/></g></g><g transform="matrix(1, 0, 0, 1, 1312.4813, 11905.4999)" opacity="1"><g transform="scale(1)"><path d="M0,0 Q2.2754,0.456 3.1224,1.4898 T4.202,3.3139 4.3356,4.7622 3.9546,6.0061 3.2913,7.3667 2.9305,8.5629 3.1902,9.4417 4.2412,10.1477 5.7226,10.5318 7.4406,10.9687 9.7394,11.6302 L10.99,11.99 " stroke-linecap="round" fill="none" stroke="#4dabf7" stroke-width="3" stroke-dasharray="none" stroke-dashoffset="0"/></g></g><g transform="matrix(1, 0, 0, 1, 1332.4574, 11936.4629)" opacity="1"><g transform="scale(1)"><path d="M0,0 Q-0.456,4.5554 -0.58,6.2505 T-0.7715,9.0934 -0.8757,11.3217 -0.9562,13.6911 L-1,14.98 " stroke-linecap="round" fill="none" stroke="#4dabf7" stroke-width="3" stroke-dasharray="none" stroke-dashoffset="0"/></g></g><g transform="matrix(1, 0, 0, 1, 1336.4526, 11942.4557)" opacity="1"><g transform="scale(1)"><path d="M0,0 Q-1.824,0 -3.6858,0 T-7.7688,0 L-9.99,0 " stroke-linecap="round" fill="none" stroke="#4dabf7" stroke-width="3" stroke-dasharray="none" stroke-dashoffset="0"/></g></g><g transform="matrix(1, 0, 0, 1, 1354.4311, 11942.4557)" opacity="1"><g transform="scale(1)"><path d="M0,0 Q-2.2754,0.912 -3.3504,1.6161 T-5.238,2.9289 -6.9489,4.7807 -8.3357,6.9282 -8.862,8.5524 -8.4644,10.1176 -7.1103,11.6509 -5.008,12.713 -2.4964,13.5187 0.4158,14.4651 L2,14.98 " stroke-linecap="round" fill="none" stroke="#4dabf7" stroke-width="3" stroke-dasharray="none" stroke-dashoffset="0"/></g></g><g transform="matrix(1, 0, 0, 1, 1370.412, 11947.4497)" opacity="1"><g transform="scale(1)"><path d="M0,0 Q-1.368,-0.456 -1.9681,-0.352 T-3.3484,1.1742 -4.325,3.5982 -4.4025,5.3729 -3.535,6.7943 -1.923,7.7955 0.0939,8.3402 2.3288,8.6365 4.2263,8.3417 5.4865,7.4973 6.1721,6.1283 6.5451,4.4738 6.52,3.1177 6.1767,1.7461 L5.99,1 " stroke-linecap="round" fill="none" stroke="#4dabf7" stroke-width="3" stroke-dasharray="none" stroke-dashoffset="0"/></g></g><g transform="matrix(1, 0, 0, 1, 1392.3856, 11943.4545)" opacity="1"><g transform="scale(1)"><path d="M-1,0 Q-2.8194,0.912 -3.3143,1.3881 T-3.8527,2.3511 -3.4639,3.3287 -2.5683,4.3143 -1.6252,5.3064 -0.6561,6.3021 0.3271,7.5278 1.0899,8.8786 1.0489,10.2951 0.1146,11.5194 -1.3056,12.1854 -2.76,12.322 -4.2043,12.107 L-4.99,11.99 " stroke-linecap="round" fill="none" stroke="#4dabf7" stroke-width="3" stroke-dasharray="none" stroke-dashoffset="0"/></g></g><g transform="matrix(1, 0, 0, 1, 1392.3856, 11927.4736)" opacity="1"><g transform="scale(1)"><path d="M0,0 Q2.2754,-1.368 3.1224,-1.5121 T4.658,-1.2786 5.7214,-0.2395 6.0719,1.0097 5.8065,1.9173 4.9805,2.8647 4.0774,4.2898 3.8141,5.7491 4.1246,6.771 4.9752,7.3268 6.578,7.6292 8.7878,7.8629 L9.99,7.99 " stroke-linecap="round" fill="none" stroke="#4dabf7" stroke-width="3" stroke-dasharray="none" stroke-dashoffset="0"/></g></g><g transform="matrix(1, 0, 0, 1, 1417.3557, 11918.4844)" opacity="1"><g transform="scale(1)"><path d="M0,0 Q-1.368,3.6434 -2.1938,5.0905 T-3.4689,7.7806 -4.6185,10.1538 -5.9279,12.5826 -7.3242,15.2718 -8.7678,18.1005 -9.7811,20.777 -10.5604,24.7387 -10.9843,29.3996 -10.5309,32.8449 -8.6905,35.6288 -5.6526,38.4275 L-4,39.95 " stroke-linecap="round" fill="none" stroke="#4dabf7" stroke-width="3" stroke-dasharray="none" stroke-dashoffset="0"/></g></g><g transform="matrix(1, 0, 0, 1, 1418.3545, 11929.4712)" opacity="1"><g transform="scale(1)"><path d="M0,0 Q1.368,-0.912 1.9681,-1.6161 T3.3484,-3.1569 5.009,-4.6768 6.3683,-5.5036 6.8798,-5.2717 6.9301,-4.4638 6.9574,-3.1123 7.2003,-1.4651 8.0164,-0.341 8.9164,0.0425 9.8619,-0.2049 11.2861,-0.7955 12.7425,-1.5727 13.9908,-2.6773 14.8979,-4.1879 15.5987,-6.0027 L15.98,-6.99 " stroke-linecap="round" fill="none" stroke="#4dabf7" stroke-width="3" stroke-dasharray="none" stroke-dashoffset="0"/></g></g><g transform="matrix(1, 0, 0, 1, 1426.345, 11928.4724)" opacity="1"><g transform="scale(1)"><path d="M0,1 Q-0.456,2.8194 -0.352,3.7703 T-0.124,5.8556 L0,6.99 " stroke-linecap="round" fill="none" stroke="#4dabf7" stroke-width="3" stroke-dasharray="none" stroke-dashoffset="0"/></g></g><g transform="matrix(1, 0, 0, 1, 1429.3414, 11928.4724)" opacity="1"><g transform="scale(1)"><path d="M0,0 Q0,1.824 -0.228,3.4578 T-0.728,7.0408 L-1,8.99 " stroke-linecap="round" fill="none" stroke="#4dabf7" stroke-width="3" stroke-dasharray="none" stroke-dashoffset="0"/></g></g><g transform="matrix(1, 0, 0, 1, 1436.333, 11936.4629)" opacity="1"><g transform="scale(1)"><path d="M-1,0 Q-3.2754,0 -4.5784,0.228 T-7.0461,0.58 -9.9822,0.9995 -13.1732,1.4557 -16.2864,1.8082 L-17.98,2 " stroke-linecap="round" fill="none" stroke="#4dabf7" stroke-width="3" stroke-dasharray="none" stroke-dashoffset="0"/></g></g><g transform="matrix(1, 0, 0, 1, 1425.3462, 11946.4509)" opacity="1"><g transform="scale(1)"><path d="M0,0 Q-0.912,2.7314 -1.3881,4.1584 T-1.8951,7.2713 -1.4869,9.8745 -0.5809,11.2906 0.824,11.8352 2.498,11.4498 3.6343,10.3281 4.2525,9.0339 4.1351,7.8739 2.9335,7.0148 1.0336,6.3511 L0,5.99 " stroke-linecap="round" fill="none" stroke="#4dabf7" stroke-width="3" stroke-dasharray="none" stroke-dashoffset="0"/></g></g><g transform="matrix(1, 0, 0, 1, 1441.327, 11919.4832)" opacity="1"><g transform="scale(1)"><path d="M0,0 Q0,3.6434 0,4.8625 T0,7.4286 0,10.1903 0,12.6024 0,14.8266 0,17.4023 0,22.2189 -0.228,28.4825 -0.58,33.2557 -0.9995,36.5363 -1.9117,38.7769 -3.2642,40.832 L-4,41.95 " stroke-linecap="round" fill="none" stroke="#4dabf7" stroke-width="3" stroke-dasharray="none" stroke-dashoffset="0"/></g></g><g transform="matrix(1, 0, 0, 1, 1215.5974, 12014.3696)" opacity="1"><g transform="scale(1)"><path d="M0,0 Q2.7314,0 4.1584,0 T7.2877,0 L8.99,0 " stroke-linecap="round" fill="none" stroke="#4dabf7" stroke-width="3" stroke-dasharray="none" stroke-dashoffset="0"/></g></g><g transform="matrix(1, 0, 0, 1, 1211.6021, 12022.36)" opacity="1"><g transform="scale(1)"><path d="M0,0 Q2.2754,0 3.3504,0 T5.466,0 7.7484,0 L8.99,0 " stroke-linecap="round" fill="none" stroke="#4dabf7" stroke-width="3" stroke-dasharray="none" stroke-dashoffset="0"/></g></g><g transform="matrix(1, 0, 0, 1, 1257.5471, 11994.3935)" opacity="1"><g transform="scale(1)"><path d="M0,1 Q-0.912,3.7314 -1.1601,4.9304 T-1.7711,7.2376 -2.5595,10.0864 -3.2163,13.2299 -3.7239,16.3064 L-4,17.98 " stroke-linecap="round" fill="none" stroke="#4dabf7" stroke-width="3" stroke-dasharray="none" stroke-dashoffset="0"/></g></g><g transform="matrix(1, 0, 0, 1, 1263.5399, 12015.3684)" opacity="1"><g transform="scale(1)"><path d="M0,1 Q-2.7314,1 -3.9304,1 T-6.2376,1 -9.5424,1 -13.3899,1 -17.0104,1 L-18.98,1 " stroke-linecap="round" fill="none" stroke="#4dabf7" stroke-width="3" stroke-dasharray="none" stroke-dashoffset="0"/></g></g><g transform="matrix(1, 0, 0, 1, 1246.5603, 12023.3588)" opacity="1"><g transform="scale(1)"><path d="M1,0 Q0.088,2.2754 -0.1601,3.1224 T-0.5431,4.886 -0.2954,6.5294 0.9793,7.8794 2.8105,8.8419 4.7163,9.3654 6.8366,9.7699 L7.99,9.99 " stroke-linecap="round" fill="none" stroke="#4dabf7" stroke-width="3" stroke-dasharray="none" stroke-dashoffset="0"/></g></g><g transform="matrix(1, 0, 0, 1, 1256.5483, 12023.3588)" opacity="1"><g transform="scale(1)"><path d="M0,0 Q-0.912,3.6434 -1.3881,5.0905 T-2.1231,7.7806 -2.751,10.8378 -3.3205,14.3227 -3.7606,17.9867 L-4,19.98 " stroke-linecap="round" fill="none" stroke="#4dabf7" stroke-width="3" stroke-dasharray="none" stroke-dashoffset="0"/></g></g><g transform="matrix(1, 0, 0, 1, 1181.638, 12010.3743)" opacity="1"><g transform="scale(1)"><path d="M0,0 Q2.7314,0.456 3.4744,0.352 T5.3055,-0.0365 7.2136,-0.7039 8.9357,-1.2949 11.2382,-2.2981 13.6284,-3.5256 14.9288,-3.9677 15.4081,-3.2984 15.4409,-1.5663 15.0027,0.9696 14.3084,4.3989 13.7026,8.3142 13.1474,11.8098 12.6196,15.0771 12.1045,18.2203 11.5963,20.6142 11.3198,21.6884 11.1062,21.8708 L10.99,21.97 " stroke-linecap="round" fill="none" stroke="#4dabf7" stroke-width="3" stroke-dasharray="none" stroke-dashoffset="0"/></g></g><g transform="matrix(1, 0, 0, 1, 1285.5136, 12011.3732)" opacity="1"><g transform="scale(1)"><path d="M0,0 Q0,2.2754 0,3.5784 T-0.228,6.0461 -0.58,8.0725 -0.9995,10.0846 -1.6475,12.6075 L-2,13.98 " stroke-linecap="round" fill="none" stroke="#4dabf7" stroke-width="3" stroke-dasharray="none" stroke-dashoffset="0"/></g></g><g transform="matrix(1, 0, 0, 1, 1288.51, 12017.366)" opacity="1"><g transform="scale(1)"><path d="M0,0 Q-2.7314,0.456 -4.3607,0.728 L-5.99,1 " stroke-linecap="round" fill="none" stroke="#4dabf7" stroke-width="3" stroke-dasharray="none" stroke-dashoffset="0"/></g></g><g transform="matrix(1, 0, 0, 1, 1307.4873, 12012.372)" opacity="1"><g transform="scale(1)"><path d="M0,0 Q-1.824,1.368 -2.3201,1.9681 T-3.5399,3.1204 -5.1131,4.2009 -6.653,5.7007 -7.4907,7.4286 -7.4904,8.8246 -7.0342,10.04 -5.8763,11.1549 -4.1087,11.9872 -2.2351,12.4399 -0.1398,12.7897 L1,12.98 " stroke-linecap="round" fill="none" stroke="#4dabf7" stroke-width="3" stroke-dasharray="none" stroke-dashoffset="0"/></g></g><g transform="matrix(1, 0, 0, 1, 1322.4694, 12016.3672)" opacity="1"><g transform="scale(1)"><path d="M0,0 Q-2.2754,0.912 -3.1224,1.3881 T-4.658,2.5768 -5.7214,3.9052 -6.0719,5.0839 -5.8065,6.1811 -4.9805,7.2339 -3.6214,8.0347 -1.742,8.4703 0.1923,8.4793 1.9264,7.8002 3.3234,6.7467 4.3114,5.7199 5.0768,4.4796 5.4932,3.1209 5.4918,1.6978 5.1668,-0.0495 L4.99,-1 " stroke-linecap="round" fill="none" stroke="#4dabf7" stroke-width="3" stroke-dasharray="none" stroke-dashoffset="0"/></g></g><g transform="matrix(1, 0, 0, 1, 1342.4454, 12012.372)" opacity="1"><g transform="scale(1)"><path d="M0,0 Q-1.824,1.368 -2.5458,1.9681 T-3.2067,3.1204 -2.6564,4.2009 -1.4451,5.2447 -0.1021,6.2686 1.0844,7.2815 1.9579,8.2886 1.9771,9.2924 0.8476,10.2945 -1.1327,11.0677 -3.3476,11.2602 -5.7067,11.0852 L-6.99,10.99 " stroke-linecap="round" fill="none" stroke="#4dabf7" stroke-width="3" stroke-dasharray="none" stroke-dashoffset="0"/></g></g><g transform="matrix(1, 0, 0, 1, 1345.4419, 11993.3947)" opacity="1"><g transform="scale(1)"><path d="M0,0 Q2.7314,-0.456 3.4744,-0.124 T4.6215,0.6165 5.0175,1.4754 4.5513,2.8523 3.6159,4.2831 3.107,5.2895 3.2862,6.0649 4.2934,6.4867 6.2071,6.7162 8.6572,6.8935 L9.99,6.99 " stroke-linecap="round" fill="none" stroke="#4dabf7" stroke-width="3" stroke-dasharray="none" stroke-dashoffset="0"/></g></g><g transform="matrix(1, 0, 0, 1, 1369.4132, 11992.3959)" opacity="1"><g transform="scale(1)"><path d="M0,0 Q-1.824,2.7314 -2.5458,3.9304 T-4.3444,6.6936 -6.4628,9.7905 -8.2992,12.6129 -9.7542,15.514 -11.2274,19.5979 -12.4826,23.8693 -13.1654,27.1027 -13.5369,30.0016 -13.5109,33.1724 -12.8151,36.263 -11.5269,38.6283 -9.8838,40.7796 L-8.99,41.95 " stroke-linecap="round" fill="none" stroke="#4dabf7" stroke-width="3" stroke-dasharray="none" stroke-dashoffset="0"/></g></g><g transform="matrix(1, 0, 0, 1, 1370.412, 12001.3851)" opacity="1"><g transform="scale(1)"><path d="M0,0 Q1.824,-0.912 2.7738,-1.8418 T4.4684,-3.5054 6.0743,-4.8664 7.4038,-5.8347 8.1271,-6.1335 8.5206,-5.6144 8.7346,-4.4222 8.8511,-2.6337 9.3704,-0.7487 10.5627,0.5047 12.349,0.9586 14.0047,0.7495 15.1334,0.1797 15.9755,-0.5862 16.6615,-1.6869 17.5155,-3.185 L17.98,-4 " stroke-linecap="round" fill="none" stroke="#4dabf7" stroke-width="3" stroke-dasharray="none" stroke-dashoffset="0"/></g></g><g transform="matrix(1, 0, 0, 1, 1380.4, 12001.3851)" opacity="1"><g transform="scale(1)"><path d="M0,1 Q-0.912,4.6434 -1.456,6.8167 L-2,8.99 " stroke-linecap="round" fill="none" stroke="#4dabf7" stroke-width="3" stroke-dasharray="none" stroke-dashoffset="0"/></g></g><g transform="matrix(1, 0, 0, 1, 1383.3964, 12000.3863)" opacity="1"><g transform="scale(1)"><path d="M0,0 Q-0.456,2.7314 -0.58,4.1584 T-0.7715,7.0456 -0.9195,10.2479 L-1,11.99 " stroke-linecap="round" fill="none" stroke="#4dabf7" stroke-width="3" stroke-dasharray="none" stroke-dashoffset="0"/></g></g><g transform="matrix(1, 0, 0, 1, 1389.3892, 12012.372)" opacity="1"><g transform="scale(1)"><path d="M0,0 Q-2.2754,0.456 -3.1224,0.808 T-6.2517,1.3516 -10.2318,1.6473 -13.537,1.8081 -16.4727,1.8956 -18.7515,2.1712 -20.836,2.708 L-21.97,3 " stroke-linecap="round" fill="none" stroke="#4dabf7" stroke-width="3" stroke-dasharray="none" stroke-dashoffset="0"/></g></g><g transform="matrix(1, 0, 0, 1, 1375.406, 12020.3624)" opacity="1"><g transform="scale(1)"><path d="M0,1 Q-0.912,2.8194 -1.3881,3.9983 T-2.3511,6.0465 -3.103,8.2985 -3.056,10.6612 -2.1185,12.1746 -0.9245,12.9979 0.1811,13.2177 1.2385,12.6556 2.0418,11.6681 2.4787,10.4469 2.7164,8.8705 2.8457,7.329 2.2321,6.2624 0.7583,5.9102 -1.0282,5.9619 L-2,5.99 " stroke-linecap="round" fill="none" stroke="#4dabf7" stroke-width="3" stroke-dasharray="none" stroke-dashoffset="0"/></g></g><g transform="matrix(1, 0, 0, 1, 1395.3821, 11993.3947)" opacity="1"><g transform="scale(1)"><path d="M0,0 Q0,2.2754 0.228,3.3504 T0.58,5.694 0.7715,8.109 0.8757,11.9262 0.7044,16.9622 0.1552,21.2977 -0.5996,25.022 -1.4662,28.4137 -2.6193,31.3988 -3.9283,33.9324 -5.0965,36.2204 -5.9599,38.1491 -6.4296,38.9703 -6.7926,38.9572 L-6.99,38.95 " stroke-linecap="round" fill="none" stroke="#4dabf7" stroke-width="3" stroke-dasharray="none" stroke-dashoffset="0"/></g></g><g transform="matrix(1, 0, 0, 1, 1186.632, 12058.3169)" opacity="1"><g transform="scale(1)"><path d="M0,0 Q2.2754,0 3.1224,0.228 T4.658,0.808 5.9494,1.5796 7.1079,2.4553 7.9661,4.0694 8.205,6.0852 7.651,7.6378 6.6656,8.7104 5.6758,9.2939 5.1373,9.8393 5.5262,10.592 6.4217,11.6832 7.3648,12.9586 8.3339,14.1083 9.3171,15.4178 9.8519,16.8142 9.4589,18.0298 8.5611,18.9191 7.3887,19.4029 5.8412,19.666 4.0896,19.8092 2.4527,19.6591 0.6503,19.3494 -1.696,18.953 -4.4771,18.3228 L-5.99,17.98 " stroke-linecap="round" fill="none" stroke="#4dabf7" stroke-width="3" stroke-dasharray="none" stroke-dashoffset="0"/></g></g><g transform="matrix(1, 0, 0, 1, 1526.2254, 11961.433)" opacity="1"><g transform="scale(1)"><path d="M0,0 Q-2.2754,26.4161 -3.3504,35.879 T-5.238,52.7674 -6.4929,65.1421 -7.4036,74.8334 -8.355,83.749 -9.1006,91.5607 -9.7341,99.9097 -10.3068,106.7271 -10.7493,111.3468 L-10.99,113.86 " stroke-linecap="round" fill="none" stroke="#4dabf7" stroke-width="3" stroke-dasharray="none" stroke-dashoffset="0"/></g></g><g transform="matrix(1, 0, 0, 1, 1533.217, 12021.3612)" opacity="1"><g transform="scale(1)"><path d="M0,0 Q1.824,0 2.5458,0 T3.8884,0 5.3027,0.228 6.9841,0.58 8.9309,0.852 L9.99,1 " stroke-linecap="round" fill="none" stroke="#4dabf7" stroke-width="3" stroke-dasharray="none" stroke-dashoffset="0"/></g></g><g transform="matrix(1, 0, 0, 1, 1565.1787, 11995.3923)" opacity="1"><g transform="scale(1)"><path d="M0,0 Q0,3.1874 -0.228,4.9664 T-0.58,8.1669 -0.9995,10.5897 -1.4557,12.8197 -1.4759,14.9448 -1.1677,16.9106 L-1,17.98 " stroke-linecap="round" fill="none" stroke="#4dabf7" stroke-width="3" stroke-dasharray="none" stroke-dashoffset="0"/></g></g><g transform="matrix(1, 0, 0, 1, 1573.1691, 12013.3708)" opacity="1"><g transform="scale(1)"><path d="M0,1 Q-2.2754,1.456 -3.3504,1.808 T-5.466,2.3516 -7.529,2.6473 -9.7889,3.0361 -12.8401,3.4756 -16.8167,3.8153 L-18.98,4 " stroke-linecap="round" fill="none" stroke="#4dabf7" stroke-width="3" stroke-dasharray="none" stroke-dashoffset="0"/></g></g><g transform="matrix(1, 0, 0, 1, 1558.1871, 12024.3576)" opacity="1"><g transform="scale(1)"><path d="M-1,0 Q-1.912,2.2754 -2.1601,3.1224 T-2.5431,5.114 -2.7514,7.1095 -2.4088,8.423 -1.5384,9.1375 -0.3809,9.5263 0.9328,9.5097 2.3292,9.2727 3.7705,8.9158 5.2386,8.2656 7.0206,7.4394 L7.99,6.99 " stroke-linecap="round" fill="none" stroke="#4dabf7" stroke-width="3" stroke-dasharray="none" stroke-dashoffset="0"/></g></g><g transform="matrix(1, 0, 0, 1, 1567.1763, 12024.3576)" opacity="1"><g transform="scale(1)"><path d="M0,0 Q-0.456,3.6434 -0.808,5.0905 T-1.5796,8.0064 -2.2273,10.5023 -2.8076,13.4562 -3.1234,16.6567 -3.0435,19.4503 L-3,20.97 " stroke-linecap="round" fill="none" stroke="#4dabf7" stroke-width="3" stroke-dasharray="none" stroke-dashoffset="0"/></g></g><g transform="matrix(1, 0, 0, 1, 1201.6141, 12084.2858)" opacity="1"><g transform="scale(1)"><path d="M0,0 Q-1.824,-0.912 -3.0018,-1.1601 T-5.5044,-1.3151 -8.4596,-1.1714 -11.6609,-1.0932 -14.7704,-1.0507 -18.0557,-1.0276 -21.6646,-1.243 -25.7484,-1.7333 L-27.97,-2 " stroke-linecap="round" fill="none" stroke="#4dabf7" stroke-width="3" stroke-dasharray="none" stroke-dashoffset="0"/></g></g><g transform="matrix(1, 0, 0, 1, 1181.638, 12090.2787)" opacity="1"><g transform="scale(1)"><path d="M0,0 Q-0.912,3.6434 -1.1601,5.0905 T-1.7711,8.0064 -2.3315,10.7303 -2.4083,12.8962 -1.0821,14.5304 1.233,15.6474 3.1742,16.0271 4.9979,15.9966 L5.99,15.98 " stroke-linecap="round" fill="none" stroke="#4dabf7" stroke-width="3" stroke-dasharray="none" stroke-dashoffset="0"/></g></g><g transform="matrix(1, 0, 0, 1, 1190.6273, 12096.2715)" opacity="1"><g transform="scale(1)"><path d="M0,0 Q-1.368,2.7314 -1.9681,3.9304 T-3.1204,6.2376 -4.4289,8.4047 -5.8248,10.4933 -6.8121,12.7672 -7.575,15.4957 L-7.99,16.98 " stroke-linecap="round" fill="none" stroke="#4dabf7" stroke-width="3" stroke-dasharray="none" stroke-dashoffset="0"/></g></g><g transform="matrix(1, 0, 0, 1, 1209.6045, 12075.2966)" opacity="1"><g transform="scale(1)"><path d="M0,0 Q3.6434,0.456 4.8625,0.808 T7.4286,1.3516 9.7343,1.6473 11.4424,2.2641 13.0859,3.3884 L13.98,4 " stroke-linecap="round" fill="none" stroke="#4dabf7" stroke-width="3" stroke-dasharray="none" stroke-dashoffset="0"/></g></g><g transform="matrix(1, 0, 0, 1, 1211.6021, 12085.2846)" opacity="1"><g transform="scale(1)"><path d="M0,0 Q1.824,0.456 2.7738,0.58 T4.4684,0.9995 6.0743,1.4557 8.0878,1.9319 10.6151,2.6237 L11.99,3 " stroke-linecap="round" fill="none" stroke="#4dabf7" stroke-width="3" stroke-dasharray="none" stroke-dashoffset="0"/></g></g><g transform="matrix(1, 0, 0, 1, 1247.5591, 12078.293)" opacity="1"><g transform="scale(1)"><path d="M0,0 Q-1.824,0 -2.5458,0.228 T-4.1164,0.808 -5.6548,1.8076 -6.9476,3.261 -7.8789,4.7334 -7.4736,6.4464 -5.6594,8.2903 -3.3067,9.5214 -0.5174,10.4726 L1,10.99 " stroke-linecap="round" fill="none" stroke="#4dabf7" stroke-width="3" stroke-dasharray="none" stroke-dashoffset="0"/></g></g><g transform="matrix(1, 0, 0, 1, 1267.5352, 12079.2918)" opacity="1"><g transform="scale(1)"><path d="M-1.1377,1.456 Q-2.2754,1.912 -3.8064,2.8418 T-6.1701,4.7334 -7.228,6.4464 -7.3475,7.8343 -6.9565,8.8173 -5.606,9.58 -3.0497,10.223 -0.291,10.5727 1.8914,10.535 3.5324,10.0585 4.881,9.1153 6.0707,7.6901 6.9459,6.2332 7.194,4.9868 6.645,3.8528 5.4366,2.7799 3.8585,1.6271 1.5,1 -1.1377,1.456 Z" stroke-linecap="round" fill="none" stroke="#4dabf7" stroke-width="3" stroke-dasharray="none" stroke-dashoffset="0"/></g></g><g transform="matrix(1, 0, 0, 1, 1289.5088, 12076.2954)" opacity="1"><g transform="scale(1)"><path d="M0,0 Q-2.7314,1.824 -3.7024,2.7738 T-4.9735,4.2404 -4.9833,5.0382 -4.0789,5.7002 -2.6749,6.7444 -1.2272,7.9964 0.0164,9.3615 0.6929,10.7858 0.377,12.0144 -0.7069,13.1387 -2.4343,13.9783 -4.2837,14.4351 -5.9738,14.4556 -7.5772,14.0107 -8.9054,13.315 -10.2555,12.4568 L-10.99,11.99 " stroke-linecap="round" fill="none" stroke="#4dabf7" stroke-width="3" stroke-dasharray="none" stroke-dashoffset="0"/></g></g><g transform="matrix(1, 0, 0, 1, 1293.5041, 12064.3098)" opacity="1"><g transform="scale(1)"><path d="M1,0 Q3.7314,-0.912 4.7024,-0.9321 T5.9735,-0.735 6.437,-0.1719 6.4612,0.5905 6.0183,1.4612 5.0957,2.3909 4.1401,3.3504 3.3922,4.326 2.7574,5.3128 2.868,6.0776 3.8379,6.4937 5.2753,6.72 6.9692,6.8431 8.9257,6.9382 L9.99,6.99 " stroke-linecap="round" fill="none" stroke="#4dabf7" stroke-width="3" stroke-dasharray="none" stroke-dashoffset="0"/></g></g><g transform="matrix(1, 0, 0, 1, 1318.4742, 12060.3145)" opacity="1"><g transform="scale(1)"><path d="M0,0 Q-2.7314,3.1874 -3.7024,4.5104 T-5.6575,7.2371 -7.6331,10.0861 -9.3919,13.0017 -10.8023,15.7278 -12.2514,19.2605 -13.4956,23.4578 -14.1725,26.6508 -14.3127,29.0718 -13.933,31.3008 -13.2727,33.4254 -12.4598,35.2629 -11.3336,36.9442 -10.2649,38.7709 -9.4555,40.4485 -8.5064,42.0687 L-7.99,42.95 " stroke-linecap="round" fill="none" stroke="#4dabf7" stroke-width="3" stroke-dasharray="none" stroke-dashoffset="0"/></g></g><g transform="matrix(1, 0, 0, 1, 1322.4694, 12068.305)" opacity="1"><g transform="scale(1)"><path d="M1,0 Q3.2754,-0.912 4.3504,-1.1601 T6.238,-1.7711 7.9489,-2.3315 9.7894,-2.6363 11.7003,-2.8022 13.6518,-2.8924 15.3975,-3.1695 17.0701,-3.7074 L17.98,-4 " stroke-linecap="round" fill="none" stroke="#4dabf7" stroke-width="3" stroke-dasharray="none" stroke-dashoffset="0"/></g></g><g transform="matrix(1, 0, 0, 1, 1331.4586, 12066.3074)" opacity="1"><g transform="scale(1)"><path d="M0,0 Q0,1.824 0,2.5458 T-0.228,4.1164 -0.58,5.6548 -0.7715,6.9476 -1.1037,8.1069 -1.6842,9.3265 L-2,9.99 " stroke-linecap="round" fill="none" stroke="#4dabf7" stroke-width="3" stroke-dasharray="none" stroke-dashoffset="0"/></g></g><g transform="matrix(1, 0, 0, 1, 1336.4526, 12065.3086)" opacity="1"><g transform="scale(1)"><path d="M0,0 Q-0.456,2.2754 -0.808,3.5784 T-1.5796,5.8181 -2.2273,7.4925 -2.5796,9.3131 -2.8519,11.688 L-3,12.98 " stroke-linecap="round" fill="none" stroke="#4dabf7" stroke-width="3" stroke-dasharray="none" stroke-dashoffset="0"/></g></g><g transform="matrix(1, 0, 0, 1, 1340.4478, 12085.2846)" opacity="1"><g transform="scale(1)"><path d="M0,0 Q-2.7314,0 -3.9304,0 T-6.2376,0 -8.4047,0.228 -10.7213,0.58 -13.3473,0.7715 -16.3695,0.8757 -19.9968,0.9562 L-21.97,1 " stroke-linecap="round" fill="none" stroke="#4dabf7" stroke-width="3" stroke-dasharray="none" stroke-dashoffset="0"/></g></g><g transform="matrix(1, 0, 0, 1, 1327.4634, 12094.2739)" opacity="1"><g transform="scale(1)"><path d="M-0.684,2.3657 Q-1.368,3.7314 -1.7401,5.1584 T-2.3146,7.5896 -2.6271,9.5939 -2.3412,11.138 -1.5016,11.9779 -0.3609,12.2092 0.9437,11.8812 2.1094,11.2468 3.1972,10.2177 4.0147,8.7459 4.0057,7.2612 2.8631,6.2255 1.0088,5.4253 0,2.995 -0.684,2.3657 Z" stroke-linecap="round" fill="none" stroke="#4dabf7" stroke-width="3" stroke-dasharray="none" stroke-dashoffset="0"/></g></g><g transform="matrix(1, 0, 0, 1, 1351.4347, 12060.3145)" opacity="1"><g transform="scale(1)"><path d="M0,0 Q0.456,1.824 0.58,2.7738 T0.7715,4.6964 0.8757,6.6543 0.9324,8.8571 0.9632,11.4211 0.98,14.184 0.7611,18.1927 0.414,22.8769 -0.0028,26.7908 -0.6855,30.2879 -1.5129,33.3281 -2.191,35.8917 -2.7879,37.9703 -3.5663,40.241 -4.4435,42.3883 -5.1487,43.7822 -5.7603,44.9941 -6.7771,45.8815 -8.2103,46.567 L-8.99,46.94 " stroke-linecap="round" fill="none" stroke="#4dabf7" stroke-width="3" stroke-dasharray="none" stroke-dashoffset="0"/></g></g><g transform="matrix(1, 0, 0, 1, 1329.461, 12095.2727)" opacity="1"><g transform="scale(1)"><path d="M0.228,-0.456 Q0.456,-0.912 0.352,-0.7041 T-0.0365,0.073 -0.7039,1.4077 -1.5229,3.0435 -2.1965,4.6151 -2.7909,6.1541 -3.3422,7.6752 -3.6422,9.1868 -3.5773,10.465 -2.8581,11.1604 -1.7828,11.3107 -0.5138,11.1645 0.8605,10.8569 2.0641,10.0056 2.9469,8.8585 3.1991,7.5505 2.8803,6.1572 1.7949,4.9455 -0.0153,3.6855 -0.5,1.5 0.228,-0.456 Z" stroke-linecap="round" fill="none" stroke="#4dabf7" stroke-width="3" stroke-dasharray="none" stroke-dashoffset="0"/></g></g><g transform="matrix(1, 0, 0, 1, 1332.4574, 12087.2822)" opacity="1"><g transform="scale(1)"><path d="M0,1 Q-1.824,3.2754 -2.5458,4.3504 T-3.8884,6.466 -5.0747,8.301 -5.9481,10.2089 -6.4232,12.3845 -6.4537,14.2521 -6.0142,15.724 -5.0935,16.7527 -3.9108,17.3124 -2.8115,17.8448 -1.5295,18.3625 -0.376,18.1881 0.2514,17.1812 0.5928,15.7214 0.3225,14.2456 -0.5341,12.7847 L-1,11.99 " stroke-linecap="round" fill="none" stroke="#4dabf7" stroke-width="3" stroke-dasharray="none" stroke-dashoffset="0"/></g></g><g transform="matrix(1, 0, 0, 1, 1233.0764, 12077.2942)" opacity="1"><g transform="scale(1)"><path d="M0,0 Q-0.456,4.0994 -0.808,5.6705 T-1.5796,8.5499 -2.2273,11.254 -2.8076,13.8651 -3.3514,15.9695 -3.4191,16.6583 -3,15.893 -2.316,14.5669 -1.4879,12.7079 -0.5814,10.3285 0.3677,7.6684 1.34,4.6276 2.5507,1.1517 3.891,-2.3329 5.0762,-5.8245 6.1769,-9.3177 7.2317,-12.3557 8.2615,-15.1484 9.2777,-17.8053 10.2865,-20.1604 11.289,-22.1256 12.2881,-23.8786 13.2876,-25.5163 14.2873,-26.8632 15.5152,-27.8239 16.8671,-28.3465 18.2843,-28.8565 20.193,-29.3597 22.5993,-29.6334 25.0483,-29.7824 27.5183,-29.8634 30.2277,-29.9074 33.2954,-29.9314 36.5579,-29.9444 39.7007,-29.7258 43.0041,-29.3812 46.3949,-29.1937 49.8332,-29.0917 53.2973,-28.8082 56.7755,-28.426 60.7174,-28.2181 65.1395,-28.3329 69.5949,-28.8492 73.8403,-29.3557 77.9715,-29.6313 81.5869,-29.7812 85.1474,-29.8627 89.134,-29.9071 92.8965,-29.9312 96.309,-29.9443 99.5311,-29.9515 102.6496,-29.9554 105.7141,-29.9575 108.7469,-29.7329 111.9905,-29.385 115.351,-29.1958 118.5448,-29.0928 121.648,-29.0368 124.7018,-29.0063 127.7288,-28.9898 130.5155,-28.9808 132.9435,-28.9759 135.402,-28.9732 137.8772,-28.9717 139.9077,-28.9709 141.4682,-28.7425 142.9979,-28.2422 L143.83,-27.97 " stroke-linecap="round" fill="none" stroke="#4dabf7" stroke-width="3" stroke-dasharray="none" stroke-dashoffset="0"/></g></g><g transform="matrix(1, 0, 0, 1, 1164.159, 12069.3038)" opacity="1"><g transform="scale(1)"><path d="M0,0 Q-0.912,4.0994 -1.1601,6.1242 T-1.5431,10.1624 -1.9794,13.9553 -2.4448,17.6123 -2.926,21.4234 -3.4157,25.3184 -3.9079,29.0309 -4.6293,32.4163 -5.4778,35.6237 -6.1674,37.8245 -6.5425,38.3377 -6.5186,37.7072 -6.0495,36.4545 -5.3407,34.633 -4.5013,32.0484 -3.5887,29.0486 -2.6363,26.0488 -1.6621,22.5951 -0.4482,18.4409 1.1242,13.9033 2.6613,9.1571 4.1792,4.2975 5.6889,-0.1679 6.9662,-4.1908 7.8891,-7.9729 8.6191,-11.1682 9.2442,-13.8184 9.8123,-16.3978 10.5773,-18.7107 11.6752,-20.1969 13.1822,-21.0055 14.686,-21.4453 16.4161,-21.4566 18.4949,-21.2347 20.5356,-21.114 22.5577,-21.0483 24.7977,-21.0126 27.154,-20.9932 29.5735,-20.9826 32.0298,-20.9769 34.2757,-20.9737 36.6352,-20.972 39.2867,-20.9711 41.8669,-20.9706 43.9522,-20.7446 45.3147,-20.1679 46.0558,-19.1702 46.231,-17.9435 46.0983,-16.5921 45.8004,-14.7193 45.4126,-12.5627 45.2017,-10.7056 45.0869,-9.0113 44.7965,-7.4056 44.2482,-5.8411 L43.95,-4.99 " stroke-linecap="round" fill="none" stroke="#4dabf7" stroke-width="3" stroke-dasharray="none" stroke-dashoffset="0"/></g></g><g transform="matrix(1, 0, 0, 1, 1174.147, 12146.2117)" opacity="1"><g transform="scale(1)"><path d="M0,0 Q0,2.2754 0,3.3504 T0,5.466 0.228,6.845 0.58,6.9111 0.9995,6.0374 1.6837,4.6523 2.284,3.2149 2.6105,1.7489 3.0161,0.2674 3.4648,-1.2225 3.7088,-2.7148 4.0673,-3.9803 4.7161,-5.1247 5.753,-5.9753 7.2291,-6.21 9.1698,-6.1097 11.3632,-6.0551 13.9245,-6.2534 16.6835,-6.8173 18.8662,-7.3521 20.5095,-7.643 21.6315,-7.5732 22.2419,-7.0793 22.5739,-5.9008 22.7545,-4.1221 22.6248,-2.2424 22.3262,-0.3079 22.0955,1.8345 L21.97,3 " stroke-linecap="round" fill="none" stroke="#4dabf7" stroke-width="3" stroke-dasharray="none" stroke-dashoffset="0"/></g></g><g transform="matrix(1, 0, 0, 1, 1184.135, 12148.2093)" opacity="1"><g transform="scale(1)"><path d="M0,0 Q1.824,-0.456 2.5458,-0.124 T3.6604,0.8445 4.2667,2.2811 4.3708,3.7444 3.7457,4.7684 2.4937,5.3254 1.5846,5.8565 1.774,6.6014 2.5611,7.4626 3.2172,8.6151 3.5742,9.926 3.3123,11.0929 2.2579,11.9534 1.0003,12.4215 -0.3678,12.6762 -2.0218,12.8147 -3.8313,12.8901 -5.4997,12.7054 -7.1126,12.242 L-7.99,11.99 " stroke-linecap="round" fill="none" stroke="#4dabf7" stroke-width="3" stroke-dasharray="none" stroke-dashoffset="0"/></g></g><g transform="matrix(1, 0, 0, 1, 1197.1195, 12168.1854)" opacity="1"><g transform="scale(1)"><path d="M0,0 Q-2.2754,0.456 -3.3504,0.58 T-5.694,0.7715 -8.3347,0.8757 -11.137,0.9324 -13.8014,0.9632 -16.3886,0.98 -19.6177,1.2171 -22.9703,1.5741 -25.7039,1.9963 -28.4604,2.6464 L-29.96,3 " stroke-linecap="round" fill="none" stroke="#4dabf7" stroke-width="3" stroke-dasharray="none" stroke-dashoffset="0"/></g></g><g transform="matrix(1, 0, 0, 1, 1171.1506, 12182.1686)" opacity="1"><g transform="scale(1)"><path d="M0,0 Q2.7314,-0.456 3.7024,-0.58 T5.4295,-0.7715 7.0531,-0.1917 8.3923,1.0357 9.1209,2.1594 9.2892,3.4524 8.9248,4.8376 8.2705,6.0471 7.4586,7.3891 6.3352,8.8031 5.0423,10.0283 3.883,11.1486 2.5684,12.2117 1.3972,13.018 1.2161,13.4567 2.0295,13.6953 3.3818,14.0531 5.0271,14.4758 7.0622,14.7057 9.307,15.0588 11.4379,15.4789 13.732,15.8034 L14.98,15.98 " stroke-linecap="round" fill="none" stroke="#4dabf7" stroke-width="3" stroke-dasharray="none" stroke-dashoffset="0"/></g></g><g transform="matrix(1, 0, 0, 1, 1211.1027, 12167.1866)" opacity="1"><g transform="scale(1)"><path d="M0,0 Q2.2754,0 4.0344,0 T7.2061,0 10.3045,0 L11.99,0 " stroke-linecap="round" fill="none" stroke="#4dabf7" stroke-width="3" stroke-dasharray="none" stroke-dashoffset="0"/></g></g><g transform="matrix(1, 0, 0, 1, 1211.1027, 12173.1794)" opacity="1"><g transform="scale(1)"><path d="M0,1 Q2.7314,1 3.7024,1 T6.1135,1 9.2719,1 L10.99,1 " stroke-linecap="round" fill="none" stroke="#4dabf7" stroke-width="3" stroke-dasharray="none" stroke-dashoffset="0"/></g></g><g transform="matrix(1, 0, 0, 1, 1247.0597, 12165.189)" opacity="1"><g transform="scale(1)"><path d="M0,0 Q-1.824,0 -2.7738,0.228 T-4.4684,0.808 -6.0743,1.5796 -7.6318,2.4553 -8.9352,3.3854 -9.8722,4.3451 -10.6099,5.5512 -11.0112,6.6633 -10.7735,7.4963 -9.9602,8.4054 -8.3778,9.356 -6.3793,10.1011 -4.3823,10.7344 -2.156,11.307 0.5357,11.7493 L2,11.99 " stroke-linecap="round" fill="none" stroke="#4dabf7" stroke-width="3" stroke-dasharray="none" stroke-dashoffset="0"/></g></g><g transform="matrix(1, 0, 0, 1, 1263.0405, 12167.1866)" opacity="1"><g transform="scale(1)"><path d="M-1,0 Q-3.7314,0.912 -4.7024,2.0698 T-5.9735,4.0854 -5.981,5.6379 -4.8474,6.9385 -3.093,7.874 -0.9986,8.3829 1.2785,8.4317 3.1989,7.7743 4.6997,6.5069 5.5161,5.1358 5.2785,3.9339 4.4504,2.6814 L4,2 " stroke-linecap="round" fill="none" stroke="#4dabf7" stroke-width="3" stroke-dasharray="none" stroke-dashoffset="0"/></g></g><g transform="matrix(1, 0, 0, 1, 1286.013, 12161.1937)" opacity="1"><g transform="scale(1)"><path d="M0,0 Q-1.824,1.824 -2.7738,2.5458 T-4.2404,4.1164 -4.8102,5.4268 -4.4385,6.1396 -3.3265,6.7554 -2.0376,7.5464 -0.8805,8.2047 -0.023,9.0188 0.2155,10.1457 -0.3388,11.2124 -1.5523,12.2464 -3.1222,13.0369 -5.1139,13.695 -7.1094,14.2809 -8.423,14.1437 -9.4379,13.39 L-9.99,12.98 " stroke-linecap="round" fill="none" stroke="#4dabf7" stroke-width="3" stroke-dasharray="none" stroke-dashoffset="0"/></g></g><g transform="matrix(1, 0, 0, 1, 1307.9867, 12138.2212)" opacity="1"><g transform="scale(1)"><path d="M0,0 Q-1.368,1.824 -1.9681,2.7738 T-3.1204,4.6964 -4.4289,6.8823 -5.8248,9.2091 -7.0401,11.3846 -8.3853,14.6178 -9.573,18.6544 -10.4472,21.9903 -11.1507,24.7171 -11.5334,27.1101 -11.7416,29.5497 -11.8549,32.0168 -11.9165,34.2686 -11.722,36.1753 -11.1602,38.1246 -10.4023,40.6022 L-9.99,41.95 " stroke-linecap="round" fill="none" stroke="#4dabf7" stroke-width="3" stroke-dasharray="none" stroke-dashoffset="0"/></g></g><g transform="matrix(1, 0, 0, 1, 1311.9819, 12146.2117)" opacity="1"><g transform="scale(1)"><path d="M1,0 Q3.2754,0 4.1224,0 T5.886,0 8.4391,0 11.1938,-0.228 13.646,-0.728 L14.98,-1 " stroke-linecap="round" fill="none" stroke="#4dabf7" stroke-width="3" stroke-dasharray="none" stroke-dashoffset="0"/></g></g><g transform="matrix(1, 0, 0, 1, 1315.9771, 12149.2081)" opacity="1"><g transform="scale(1)"><path d="M0,0 Q0.912,1.824 1.1601,2.7738 T1.5431,4.4684 1.5234,5.8463 1.1844,7.2347 L1,7.99 " stroke-linecap="round" fill="none" stroke="#4dabf7" stroke-width="3" stroke-dasharray="none" stroke-dashoffset="0"/></g></g><g transform="matrix(1, 0, 0, 1, 1322.9688, 12147.2105)" opacity="1"><g transform="scale(1)"><path d="M0,0 Q-0.456,3.1874 -0.352,4.5104 T-0.124,7.4117 L0,8.99 " stroke-linecap="round" fill="none" stroke="#4dabf7" stroke-width="3" stroke-dasharray="none" stroke-dashoffset="0"/></g></g><g transform="matrix(1, 0, 0, 1, 1329.9604, 12158.1973)" opacity="1"><g transform="scale(1)"><path d="M0,1 Q-3.6434,1.456 -5.5465,1.808 T-10.0784,2.3516 -14.8193,2.8753 -19.4506,3.6037 L-21.97,4 " stroke-linecap="round" fill="none" stroke="#4dabf7" stroke-width="3" stroke-dasharray="none" stroke-dashoffset="0"/></g></g><g transform="matrix(1, 0, 0, 1, 1317.9748, 12164.1901)" opacity="1"><g transform="scale(1)"><path d="M0,0 Q-0.456,1.824 -0.58,2.7738 T-0.9995,4.4684 -1.6837,6.3023 -2.284,8.4399 -2.3825,10.2844 -1.7521,11.5136 -0.4971,12.1823 1.0976,12.3203 2.4211,11.9417 3.1411,11.0517 3.5327,9.6556 3.5178,8.2121 2.8257,7.1988 1.7652,6.6476 0.7323,6.8037 -0.3897,7.572 L-1,7.99 " stroke-linecap="round" fill="none" stroke="#4dabf7" stroke-width="3" stroke-dasharray="none" stroke-dashoffset="0"/></g></g><g transform="matrix(1, 0, 0, 1, 1334.9544, 12139.2201)" opacity="1"><g transform="scale(1)"><path d="M0,0 Q0.456,3.1874 0.58,4.5104 T0.7715,7.0091 0.8757,9.2781 1.1604,11.4222 1.5433,13.5005 1.9795,15.5432 2.4449,17.7921 2.698,21.5189 2.6077,26.0521 2.1026,29.6581 1.3718,32.5318 0.5183,35.0048 -0.4021,37.2598 -1.3587,39.1705 -1.8791,39.982 -1.9574,39.9613 L-2,39.95 " stroke-linecap="round" fill="none" stroke="#4dabf7" stroke-width="3" stroke-dasharray="none" stroke-dashoffset="0"/></g></g></svg>