<svg xmlns="http://www.w3.org/2000/svg" direction="ltr" width="592.0712975040594" height="449.7037339843391" viewBox="1048.2879292252594 8822.220684015916 592.0712975040594 449.7037339843391" stroke-linecap="round" stroke-linejoin="round" style="background-color: transparent;"><defs/><g transform="matrix(1, 0, 0, 1, 1081.2384, 8921.2771) scale(0.9504656900559846, 0.9504656900559846)" opacity="1"><path d="M0,167.666716844379 a167.68706562459334,167.666716844379,0,1,1,335.3741312491867,0a167.68706562459334,167.666716844379,0,1,1,-335.3741312491867,0 " stroke="#9398b0" stroke-width="2" fill="none"/></g><g transform="matrix(1, 0, 0, 1, 1239.0157, 8920.3266) scale(0.9504656900559846, 0.9504656900559846)" opacity="0.25"><g transform="scale(1.0521158317046644)"><path d="M1.7405,-1.1986 T1.9623,0.3746 2.3749,4.4211 2.9566,8.8702 3.4668,12.8696 3.6191,16.8292 3.8768,20.7326 4.3085,24.8954 4.5761,29.0845 4.6584,32.9998 5.0318,36.9661 5.4908,41.3834 5.9734,46.047 6.4212,49.7225 6.5528,53.3485 6.6282,57.9321 6.6494,62.2962 6.8678,66.2994 7.2806,70.4932 7.534,74.7017 7.6044,78.9681 7.6221,83.2415 7.6216,87.5279 7.2711,91.7921 6.8283,95.7257 6.3538,99.3686 5.8782,102.7654 5.5046,106.8599 5.0563,111.0973 4.8357,114.8283 4.7723,118.609 4.4066,122.519 3.9661,126.6836 3.6106,131.2131 2.9238,135.9554 2.0492,141.0201 1.1303,146.7235 0.4326,152.2923 0.1313,157.3926 0.0531,162.7956 0.0458,167.1675 0.0541,170.3685 0.0654,173.6305 0.0775,176.6977 0.0901,179.6622 0.1072,182.7971 0.1215,186.022 0.1314,190.1897 0.1392,194.1859 0.147,198.0417 -0.0752,203.6269 -0.412,208.2014 -0.5793,211.1068 -0.6681,213.9837 -0.7228,217.9312 -0.751,222.858 -0.7566,227.6564 -0.759,232.1931 -0.4188,236.443 0.0252,240.7114 0.1541,245.0873 0.3823,249.1705 0.789,253.1652 1.0459,257.2419 1.4498,261.2463 1.9062,265.447 2.0418,270.1509 2.0813,274.8908 2.4278,278.9449 2.8719,283.0519 3.009,287.1758 3.0573,291.5249 3.0841,295.8279 3.0999,299.2 3.1116,302.1953 3.3128,305.0388 3.7286,308.5654 4.0066,312.9059 4.4591,316.9978 4.8531,318.8892 A2.0576,2.0576 0 0 1 0.8469,319.8308 T0.2523,317.5163 -0.3842,313.1197 -0.5683,309.275 -0.9636,305.5822 -1.2121,302.1961 -1.2019,299.2026 -1.1914,295.8346 -1.1835,291.5542 -1.2032,287.2592 -1.3111,283.364 -1.7491,279.2143 -2.1084,274.9221 -2.1393,270.2366 -2.2571,265.735 -2.7136,261.5134 -3.1256,257.4271 -3.3359,253.7553 -3.7589,249.6412 -4.0476,245.1711 -4.1622,240.9849 -4.5945,236.6597 -4.939,232.2028 -4.9362,227.6511 -4.923,222.8394 -4.8836,217.8698 -4.8196,213.8493 -4.7178,210.8591 -4.5235,207.7563 -4.1741,203.3422 -3.9469,198.0416 -3.9392,194.1859 -3.9312,190.1896 -3.921,186.0217 -3.9062,182.7966 -3.8883,179.6611 -3.8742,176.6958 -3.8591,173.6271 -3.8422,170.3619 -3.8232,167.1549 -3.8004,164.057 -3.7487,159.9652 -3.6624,156.0383 -3.5242,153.1912 -3.2602,150.3935 -2.7883,147.4521 -2.0225,143.11 -1.3848,138.8987 -0.8071,135.1631 -0.1652,130.792 0.175,126.3868 0.6215,122.2602 0.9792,118.552 1.0498,114.6672 1.3114,110.5626 1.7468,106.3773 2.0849,102.4066 2.5536,98.9988 3.0085,95.4349 3.4416,91.5663 3.7746,87.5114 3.7641,83.2528 3.7462,79.0114 3.688,74.8542 3.4786,70.968 3.0764,67.6331 2.8371,64.3083 2.83,60.2229 2.7961,55.8347 2.6759,51.1441 2.218,46.2948 1.7682,41.6284 1.3405,37.1747 0.9916,33.0532 0.9439,29.2304 0.7435,25.3481 0.3427,21.0921 0.0736,16.918 -0.0532,13.1763 -0.5481,9.2108 -1.1146,4.772 -1.5129,0.8709 -1.7405,-0.7014 A1.7582,1.7582 0 0 1 1.7405,-1.1986 Z" stroke-linecap="round" fill="#9398b0"/></g></g><g transform="matrix(1, 0, 0, 1, 1080.2879, 9081.9058) scale(0.9504656900559846, 0.9504656900559846)" opacity="0.25"><g transform="scale(1.0521158317046644)"><path d="M0,-1.9719 T1.1234,-1.955 4.0616,-1.9253 7.6368,-1.911 11.3779,-1.9185 14.961,-1.9359 18.0417,-1.6045 21.3124,-1.1757 24.6276,-0.7792 28.0521,-0.3384 31.7131,-0.5307 35.5605,-0.9633 39.6039,-1.109 43.1317,-1.1635 46.5134,-1.1893 50.2013,-1.2068 53.9737,-1.2194 57.5146,-1.4278 61.2401,-1.8475 65.2707,-2.1238 68.885,-2.3967 72.9858,-2.8286 77.4666,-3.1052 81.6757,-3.1874 85.9339,-3.2223 90.207,-3.2398 94.4853,-3.2506 98.7612,-3.2602 103.0364,-3.2745 107.0868,-3.293 111.303,-3.311 115.79,-3.3255 120.1239,-3.3359 124.5336,-3.3437 128.8484,-3.3529 133.1442,-3.3628 137.5694,-3.0225 141.5384,-2.5956 145.4648,-2.4935 149.6442,-2.4726 153.6738,-2.4717 157.6279,-2.6744 161.8055,-3.0837 165.9632,-3.3485 170.099,-3.4249 174.3393,-3.4507 178.3801,-3.4612 182.2472,-3.4667 186.2906,-3.4704 190.5036,-3.4732 194.8834,-3.4753 199.1888,-3.4768 203.4786,-3.4772 208.104,-3.1327 212.4803,-2.7067 216.7832,-2.6075 221.2836,-2.5888 225.8464,-2.5902 230.6656,-2.5958 235.4384,-2.601 240.0775,-2.6088 244.5721,-2.6199 248.6834,-2.6309 252.5722,-2.6435 256.4005,-2.6563 260.2096,-2.6661 264.0121,-2.6721 267.8128,-2.6736 271.6154,-2.6733 275.788,-3.0045 279.6879,-3.4405 282.9199,-3.5729 285.999,-3.608 289.7084,-3.6199 294.1931,-3.3593 298.5007,-2.9416 302.2363,-2.44 305.5105,-1.9654 309.0639,-2.1979 312.7615,-2.5836 314.5,-2.611 A2.6129,2.6129 0 0 1 314.7,2.611 T313.8211,2.6652 311.0581,2.886 307.1572,3.2877 303.3768,3.0955 300.0972,2.6142 296.7879,2.3272 293.4694,1.9106 289.7204,1.7271 286.0448,1.734 283.0631,1.7665 279.4311,1.9619 275.4235,2.4026 271.6154,2.6733 267.8128,2.6736 264.0121,2.6721 260.2096,2.6661 256.4005,2.6563 252.5722,2.6435 248.6834,2.6309 244.572,2.6199 240.0774,2.6087 235.4378,2.6005 230.6637,2.5938 225.8396,2.5829 221.2566,2.5628 216.6796,2.5139 212.1515,2.3696 207.8444,1.9189 203.4658,1.5772 199.1888,1.5768 194.8834,1.5753 190.5037,1.5733 186.2909,1.5707 182.2485,1.5678 178.3844,1.5651 174.3529,1.5643 170.1542,1.5742 166.1653,1.626 162.4691,1.8228 158.1326,2.223 153.6658,2.4645 149.6191,2.4466 145.3622,2.3999 141.1652,2.2585 137.2674,1.8087 133.132,1.4628 128.8484,1.4529 124.5336,1.4437 120.1239,1.4359 115.79,1.4255 111.303,1.411 107.0868,1.3931 103.0365,1.3746 98.7615,1.3605 94.4863,1.3517 90.2108,1.3437 85.9464,1.3363 81.7257,1.3378 77.6406,1.3867 73.6398,1.582 69.446,1.9967 65.456,2.3014 61.8878,2.4873 58.0177,2.8786 53.9742,3.12 50.2032,3.1086 46.5209,3.096 43.1562,3.0875 39.6863,3.0952 35.8281,3.1738 31.8425,3.549 28.1716,3.7397 24.7748,3.2668 21.6406,2.8471 18.3709,2.3646 14.9153,1.9359 11.3779,1.9185 7.6368,1.911 4.0616,1.9253 1.1234,1.955 0,1.9719 A1.9719,1.9719 0 0 1 0,-1.9719 Z" stroke-linecap="round" fill="#9398b0"/></g></g><g transform="matrix(1, 0, 0, 1, 1236.3852, 9080.8971) scale(0.4790948082270333, 0.4790948082270333)" opacity="1"><g transform="scale(2.0872695400325028)"><path d="M-0.5677,-0.2769 T-0.1124,-0.6159 1.2252,-1.7333 2.7863,-3.0465 4.1707,-4.0719 5.6254,-5.0291 7.0961,-5.9722 8.6646,-7.1149 10.4758,-8.3346 12.3958,-9.3891 14.4585,-10.3941 16.6691,-11.4673 18.9487,-12.7148 21.5032,-14.1097 24.3032,-15.5463 27.1812,-17.0595 30.0848,-18.5878 32.3535,-19.7168 33.9262,-20.5334 35.5526,-21.4189 37.3399,-22.3518 39.0511,-23.2822 40.7495,-24.223 42.5727,-25.1842 44.438,-26.1454 46.1933,-27.094 47.9101,-28.0479 49.5681,-29.09 51.2383,-30.2048 53.0867,-31.2826 54.9296,-32.3934 56.8097,-33.5439 58.707,-34.7149 60.6118,-35.8987 62.5246,-37.0902 64.404,-38.377 66.1962,-39.6292 67.9698,-40.7663 69.798,-41.9262 71.6661,-43.1047 73.5933,-44.2004 75.4786,-45.3213 77.3802,-46.4779 79.2898,-47.6526 81.1691,-48.9284 83.1025,-50.1875 85.027,-51.4156 86.9161,-52.7197 88.8227,-54.0854 90.8689,-55.4949 92.9671,-56.9177 94.9887,-58.2431 97.1245,-59.4257 99.2413,-60.5958 101.1086,-61.7547 102.9176,-62.8406 104.8957,-63.9872 106.8205,-65.1485 108.6439,-66.2265 110.5305,-67.2626 112.428,-68.2656 114.3338,-69.2541 116.3354,-70.3398 118.407,-71.4827 120.4228,-72.5506 122.3476,-73.6646 124.2644,-74.8242 126.2175,-75.9163 128.1524,-76.9483 129.9408,-77.9344 131.6727,-78.9118 133.5141,-79.899 135.2509,-80.8646 137.0081,-81.743 138.8157,-82.6501 140.4826,-83.6551 142.2002,-84.6673 144.0378,-85.6726 145.7737,-86.6405 147.4814,-87.6036 149.2697,-88.6639 150.9778,-89.771 152.716,-90.8355 154.567,-91.8672 156.3099,-92.8483 157.9738,-93.9048 159.7818,-95.0455 161.5459,-96.1142 163.1827,-97.0339 165.4392,-98.3011 167.5908,-99.617 169.0283,-100.5479 170.4641,-101.4926 171.9578,-102.3673 174.1256,-103.6079 176.3727,-104.9269 178.536,-106.3255 180.5466,-107.7281 182.0239,-108.6134 184.1813,-109.8627 186.9848,-111.6394 189.6465,-113.5063 192.0957,-115.3935 194.0567,-116.7576 195.9832,-118.0031 198.4141,-119.6858 200.8537,-121.3516 203.19,-123.1063 205.4013,-124.8151 207.6048,-126.4865 209.7339,-128.1858 211.7153,-129.7027 213.6497,-131.1606 215.6971,-132.6542 217.9032,-134.041 219.989,-135.3268 221.9212,-136.4575 224.0668,-137.603 225.9058,-138.6039 226.5392,-138.9359 A1.1032,1.1032 0 0 1 227.6408,-137.0241 T226.5151,-136.3091 224.1519,-134.8184 222.1408,-133.6286 220.2499,-132.5535 218.044,-131.201 216.0341,-129.8012 214.1662,-128.3148 212.2257,-126.8505 210.2297,-125.3101 208.0649,-123.5769 205.7915,-121.9254 203.4792,-120.1909 201.024,-118.5058 198.5284,-116.8523 196.0308,-115.1422 193.5534,-113.4012 191.0436,-111.4756 189.0325,-110.0399 187.5835,-109.1027 186.1234,-108.1834 183.9941,-106.9758 181.2114,-105.2806 179.1028,-103.8366 177.5737,-102.8874 176.0311,-101.9859 173.8841,-100.7713 171.7489,-99.5347 170.2972,-98.5832 168.8318,-97.6391 167.3439,-96.7088 165.0855,-95.4512 162.7393,-94.137 161.0077,-93.0976 159.1982,-91.9613 157.4353,-90.8513 155.6825,-89.8664 153.9159,-88.882 152.2273,-87.8441 150.4397,-86.6849 148.6103,-85.5989 146.8911,-84.6346 145.1309,-83.6594 143.3503,-82.7008 141.6398,-81.7098 139.8084,-80.637 137.9936,-79.7464 136.3148,-78.9279 134.5384,-77.9661 132.7291,-77.0191 130.9714,-76.0498 129.1445,-75.065 127.2353,-74.0716 125.3314,-73.0347 123.3671,-71.8777 121.3649,-70.7498 119.3668,-69.7179 117.2682,-68.5906 115.2253,-67.5136 113.3247,-66.5523 111.446,-65.5789 109.6046,-64.5878 107.7916,-63.5337 105.832,-62.3633 103.877,-61.2396 102.0909,-60.1715 100.1431,-58.9665 98.0275,-57.7961 96.0096,-56.6827 94.0177,-55.3744 91.9378,-53.9539 89.9242,-52.553 87.9956,-51.1619 86.0537,-49.8107 84.1465,-48.5853 82.2465,-47.3427 80.2983,-46.0167 78.3828,-44.8303 76.4636,-43.6606 74.5453,-42.5215 72.6927,-41.4738 70.8259,-40.2995 69.0046,-39.149 67.2908,-38.056 65.4812,-36.7997 63.5327,-35.4717 61.6198,-34.2775 59.7114,-33.0883 57.8106,-31.9107 55.9213,-30.7496 54.0583,-29.6192 52.312,-28.5984 50.5988,-27.4543 48.8524,-26.3552 47.1159,-25.3911 45.3252,-24.4235 43.4776,-23.472 41.6931,-22.5269 39.9832,-21.5739 38.2427,-20.6251 36.4872,-19.7063 34.8285,-18.8013 32.5024,-17.635 29.5617,-16.1803 27.4104,-14.9941 25.931,-14.1354 23.7875,-13.0118 21.1094,-11.618 18.6153,-10.2666 16.2927,-9.1297 14.2334,-8.1803 12.3636,-7.211 10.6173,-6.2102 8.9943,-5.0559 7.439,-3.9281 5.5922,-2.7398 3.6689,-1.3318 2.1546,-0.0372 1.0206,0.8948 0.5677,1.2369 A0.9462,0.9462 0 0 1 -0.5677,-0.2769 Z" stroke-linecap="round" fill="#ffc034"/></g></g><g transform="matrix(1, 0, 0, 1, 1274.604, 9078.1311) scale(0.7041197214873717, 0.7041197214873717)" opacity="1"><g transform="scale(1.4202130255457344)"><path d="M-1.4593,-0.2902 T-1.3095,-1.1159 -1.6968,-3.4677 -3.2529,-6.2699 -5.4967,-8.887 -6.7215,-10.2281 A1.5089,1.5089 0 0 1 -4.5385,-12.3119 T-3.2256,-10.9944 -0.992,-8.5705 0.5773,-6.174 1.524,-3.1361 1.6406,-0.5491 1.4593,0.2902 A1.4879,1.4879 0 0 1 -1.4593,-0.2902 Z" stroke-linecap="round" fill="#ffc034"/></g></g><g transform="matrix(1, 0, 0, 1, 1290.7987, 9062.6404) scale(0.7041197214873717, 0.7041197214873717)" opacity="1"><g transform="scale(1.4202130255457344)"><path d="M2.1062,0 T2.0349,1.76 1.9636,3.52 A1.2636,1.2636 0 0 1 -0.5636,3.52 T-0.6349,1.76 -0.7062,0 A1.4062,1.4062 0 0 1 2.1062,0 Z" stroke-linecap="round" fill="#ffc034"/></g></g><g transform="matrix(1, 0, 0, 1, 1294.3193, 9059.824) scale(0.7041197214873717, 0.7041197214873717)" opacity="1"><g transform="scale(1.4202130255457344)"><path d="M1.0975,-0.4396 T1.4411,0.3901 2.1815,2.9419 2.5783,4.6641 A1.1982,1.1982 0 0 1 0.2417,5.1959 T-0.1045,3.653 -0.7741,1.2749 -1.0975,0.4396 A1.1823,1.1823 0 0 1 1.0975,-0.4396 Z" stroke-linecap="round" fill="#ffc034"/></g></g><g transform="matrix(1, 0, 0, 1, 1297.8399, 9057.7116) scale(0.7041197214873717, 0.7041197214873717)" opacity="1"><g transform="scale(1.4202130255457344)"><path d="M0.199,1.4016 T-0.9626,1.5929 -3.748,2.3372 -6.9476,3.6487 -9.5499,4.9393 -10.5763,5.4714 A1.4309,1.4309 0 0 1 -11.9637,2.9686 T-10.9686,2.38 -8.1945,0.8921 -4.4776,-0.5647 -1.3693,-1.2618 -0.199,-1.4016 A1.4157,1.4157 0 0 1 0.199,1.4016 Z" stroke-linecap="round" fill="#ffc034"/></g></g><g transform="matrix(1, 0, 0, 1, 1300.6564, 9067.5693) scale(0.7041197214873717, 0.7041197214873717)" opacity="1"><g transform="scale(1.4202130255457344)"><path d="M0.2183,1.5373 T-0.9442,1.7225 -3.8675,2.3243 -7.5089,3.1047 -10.5863,3.5942 -11.783,3.7198 A1.6206,1.6206 0 0 1 -12.157,0.5002 T-10.9632,0.3482 -7.9643,-0.162 -4.3582,-0.8828 -1.3877,-1.3914 -0.2183,-1.5373 A1.5528,1.5528 0 0 1 0.2183,1.5373 Z" stroke-linecap="round" fill="#ffc034"/></g></g><g transform="matrix(1, 0, 0, 1, 1295.7276, 9071.794) scale(0.7041197214873717, 0.7041197214873717)" opacity="1"><g transform="scale(1.4202130255457344)"><path d="M1.3245,0.2634 T1.169,1.0978 0.9959,3.0547 2.4859,4.4772 3.9933,4.7771 A1.4451,1.4451 0 0 1 3.6618,7.6483 T3.1261,7.5828 1.0741,7.0193 -1.2123,5.1428 -1.8291,2.5809 -1.5001,0.5671 -1.3245,-0.2634 A1.3505,1.3505 0 0 1 1.3245,0.2634 ZM2.6053,5.4417 T3.0017,4.8095 3.3981,4.1773 A1.4492,1.4492 0 0 1 5.8495,5.7236 T5.4497,6.3537 5.0499,6.9837 A1.4451,1.4451 0 0 1 2.6053,5.4417 ZM4.1326,6.3138 T3.5101,6.0757 1.4005,5.7039 -0.0867,5.5702 A1.353,1.353 0 0 1 0.0867,2.8698 T1.7591,2.9389 4.2733,3.2976 5.1151,3.587 A1.4492,1.4492 0 0 1 4.1326,6.3138 Z" stroke-linecap="round" fill="#ffc034"/></g></g><g transform="matrix(1, 0, 0, 1, 1458.3792, 8946.4607) scale(0.7041197214873717, 0.7041197214873717)" opacity="1"><g transform="scale(1.4202130255457344)"><path d="M0.0054,-1.1587 T0.8424,-1.65 2.7035,-2.9065 4.9035,-4.4533 7.1865,-6.0279 9.1999,-7.4807 11.1148,-8.8352 13.1605,-10.2392 15.5329,-11.6872 18.2458,-13.3446 20.8505,-15.104 23.0569,-16.6659 25.0646,-18.1028 27.5067,-19.8792 29.9553,-21.6602 32.0385,-23.0975 34.1382,-24.5271 36.4126,-25.8642 39.2285,-27.336 41.863,-28.8601 43.9982,-30.2097 46.2865,-31.7245 48.9472,-33.4826 51.8381,-35.167 54.5449,-36.7512 57.3202,-38.4736 60.2469,-40.1418 63.019,-41.843 65.819,-43.5997 68.9197,-45.393 72.2284,-47.4288 75.5212,-49.6541 78.1356,-51.4974 80.9446,-53.3195 83.7537,-55.1138 85.7692,-56.4406 87.928,-57.6985 90.0569,-58.8623 92.8338,-60.7344 95.6335,-62.7226 98.4427,-64.8058 102.102,-67.4909 105.5233,-69.8782 108.8157,-72.0597 112.1912,-74.1298 115.3105,-76.0933 117.8294,-77.6442 120.483,-79.3715 123.7623,-81.5283 127.1301,-83.5444 130.2277,-85.4641 133.4762,-87.1135 137.0403,-88.5464 140.2597,-89.8914 143.3005,-91.0296 146.2598,-92.3494 148.3448,-93.5483 148.9989,-93.8989 A1.9273,1.9273 0 0 1 150.9611,-90.5811 T150.3387,-90.1768 148.6875,-89.0569 146.1409,-87.6572 143.283,-86.4897 140.2012,-85.3157 136.7671,-83.9695 133.7261,-82.5292 130.862,-80.9091 128.4045,-79.4927 125.951,-78.0329 123.527,-76.5305 120.9193,-74.8817 117.574,-72.7803 114.9796,-71.1319 112.5239,-69.7079 109.3809,-67.8157 106.0211,-65.6609 103.4081,-63.8067 101.6013,-62.395 99.7528,-60.9822 97.8235,-59.5599 95.8725,-58.2157 93.9521,-56.8451 90.9326,-55.0345 87.8547,-53.2578 85.817,-51.9264 83.0258,-50.1595 80.2609,-48.3922 78.3673,-47.1102 76.535,-45.8418 73.9925,-44.1864 70.6845,-42.1958 67.6411,-40.4755 64.8063,-38.735 61.9484,-37.0154 59.2449,-35.5206 56.3983,-33.7993 53.5045,-32.1381 50.8715,-30.6633 48.3099,-29.0079 45.8081,-27.3864 43.5078,-25.9696 41.2258,-24.6129 38.9759,-23.5994 36.8641,-22.561 34.7585,-21.1753 32.6578,-19.7905 30.6306,-18.4337 28.6646,-17.0014 26.6598,-15.5534 24.7256,-14.2239 22.8153,-12.9426 20.5829,-11.5121 18.0988,-9.9965 15.7052,-8.6384 13.5323,-7.3208 11.1716,-5.6717 8.8001,-3.9669 6.5645,-2.4251 4.2102,-0.7366 2.2226,0.6519 1.3946,1.1587 A1.3509,1.3509 0 0 1 0.0054,-1.1587 Z" stroke-linecap="round" fill="#ffc034"/></g></g><g transform="matrix(1, 0, 0, 1, 1530.9036, 8900.6929) scale(0.7041197214873717, 0.7041197214873717)" opacity="1"><g transform="scale(1.4202130255457344)"><path d="M0.7035,1.1736 T-0.1555,1.6732 -2.9812,2.0012 -5.9124,0.9619 -7.1862,-1.1608 -7.0126,-3.6327 -4.895,-5.6783 -1.7384,-6.7051 1.1578,-6.4561 3.5107,-5.0175 4.9754,-2.9409 5.0887,-0.3656 3.7332,2.1785 1.4373,3.6958 -1.377,4.2572 -4.2174,3.8292 -6.2164,2.2782 -6.8192,-0.0665 -5.8172,-2.6174 -3.5547,-4.3501 -0.6571,-4.973 2.6424,-4.643 5.466,-2.9949 6.8948,-0.5223 6.7939,2.2166 4.7987,4.9848 1.6,6.9558 -1.8362,7.6322 -5.1283,6.6884 -7.1919,4.0926 -7.8763,1.144 -7.4811,-1.7029 -5.419,-4.4143 -2.1329,-6.0016 1.1719,-6.0579 4.0628,-4.6823 5.9905,-2.49 6.9703,0.0326 6.7904,2.8928 4.8824,5.2143 1.7121,6.3252 -1.864,6.1804 -4.8051,4.5168 -6.2371,2.1783 -5.6885,-0.415 -3.4399,-2.6181 -0.3151,-3.3235 2.6205,-1.8918 4.1321,0.1161 4.3952,0.719 A1.72,1.72 0 0 1 1.2448,2.101 T0.8535,1.0364 -0.6988,-0.0196 -2.3495,1.0068 -1.6254,2.4547 0.7221,2.7351 2.6207,1.5907 2.791,-0.6537 1.1183,-2.4319 -1.1161,-2.7481 -3.4078,-1.4402 -4.3646,1.1849 -3.1834,3.5193 -1.0571,4.1046 1.5952,3.0571 3.2468,0.8532 2.1976,-1.166 -0.6419,-1.7176 -3.0891,-0.7211 -2.8688,0.6381 -0.5308,0.9064 1.6191,-0.4225 1.7722,-2.5336 -0.1032,-3.7745 -2.8484,-3.6915 -4.4542,-2.2144 -3.4231,-0.6346 -1.5094,-0.6751 -0.7035,-1.1736 A1.3683,1.3683 0 0 1 0.7035,1.1736 Z" stroke-linecap="round" fill="#ffc034"/></g></g><g transform="matrix(1, 0, 0, 1, 1237.2856, 9078.1311) scale(0.7041197214873717, 0.7041197214873717)" opacity="0.25"><g transform="scale(1.4202130255457344)"><path d="M-1.4209,0.5692 T-1.7453,-0.2685 -2.3739,-2.8043 -2.9992,-5.9167 -3.4247,-8.8296 -3.5636,-11.7593 -3.8643,-14.5132 -4.2162,-17.3154 -4.3291,-20.2242 -4.3696,-23.0656 -4.3912,-26.0537 -4.4044,-29.0076 -4.2213,-31.8888 -3.7257,-34.8159 -2.8015,-37.7365 -1.7863,-40.3675 -0.7596,-42.8893 0.6337,-45.4077 2.1343,-47.384 4.2255,-49.4542 6.9082,-51.4508 9.3105,-52.9276 11.4766,-54.3168 14.0923,-55.6905 16.8478,-56.9196 19.1347,-58.0987 21.5489,-59.4574 24.2978,-60.8895 27.0901,-62.313 29.896,-63.735 32.3988,-65.128 34.4404,-66.5133 36.8333,-68.2172 39.6206,-70.1994 42.2796,-72.0845 45.1274,-73.9342 48.098,-75.6529 50.9586,-77.1522 53.7856,-78.5929 56.6031,-80.0132 59.7213,-81.4404 63.1213,-82.8771 66.2295,-84.4803 68.6491,-85.817 71.4191,-87.02 74.8807,-88.7159 78.0043,-90.5084 81.2343,-92.3222 84.6612,-94.1551 87.3695,-95.5224 90.0599,-96.7896 93.1313,-98.2798 95.9261,-99.9197 98.7355,-101.6504 101.4832,-103.2659 104.1318,-105.0549 107.0403,-107.0012 109.515,-108.9671 111.7634,-111.1807 114.1915,-113.8121 116.1096,-116.721 117.6324,-119.9826 119.0932,-123.7731 120.0969,-127.5026 120.4699,-131.1957 120.6172,-134.9988 120.6814,-138.1798 120.4919,-140.8726 120.2818,-142.2079 A1.7879,1.7879 0 0 1 123.7312,-143.1498 T124.0229,-141.9856 124.3251,-139.5927 124.3417,-136.7166 124.329,-133.1205 124.1746,-129.0256 123.8265,-125.6834 123.263,-123.4359 122.1797,-120.3188 120.5977,-116.4311 119.149,-113.5621 117.4048,-111.0282 115.4328,-108.6366 113.4528,-106.7127 110.8806,-104.5873 108.036,-102.4374 105.1246,-100.3803 102.2608,-98.6419 99.5695,-97.1439 96.6531,-95.3948 93.5067,-93.6674 90.2038,-92.1074 86.6273,-90.3439 83.3575,-88.6328 80.9882,-87.2441 78.42,-85.8276 75.7705,-84.4289 73.0807,-83.0847 69.8808,-81.5929 66.5492,-79.8878 63.1321,-78.2107 60.044,-76.8056 57.1396,-75.4317 54.3248,-74.0267 51.5352,-72.6157 48.8142,-71.1649 46.0326,-69.4008 43.3279,-67.6123 40.6993,-65.879 38.0974,-63.8875 35.6543,-62.203 33.0977,-60.7877 30.3431,-59.3345 27.5381,-57.9428 24.7792,-56.5663 22.2032,-55.2443 19.6056,-53.9077 17.0177,-52.8388 14.6725,-51.7661 12.3535,-50.4297 9.9472,-49.0709 7.7681,-47.7946 5.7871,-46.1974 3.832,-43.987 2.2846,-41.5364 1.2263,-39.0793 0.2214,-36.6041 -0.6411,-33.9604 -1.0824,-31.5027 -1.234,-29.009 -1.2433,-26.059 -1.2504,-23.0854 -1.239,-20.2947 -1.1649,-17.5658 -0.8437,-14.736 -0.5671,-11.8528 -0.4737,-9.1272 -0.0627,-6.3359 0.5033,-3.5508 1.0783,-1.3964 1.4209,-0.5692 A1.5307,1.5307 0 0 1 -1.4209,0.5692 ZM121.196,-144.2724 T121.3172,-144.3347 121.4384,-144.3969 A1.789,1.789 0 0 1 123.0604,-141.2078 T122.9387,-141.1465 122.817,-141.0852 A1.7879,1.7879 0 0 1 121.196,-144.2724 ZM123.5518,-144.0288 T124.0481,-143.4542 125.3127,-141.7573 127.0356,-139.6487 128.9587,-138.0455 131.1203,-137.3091 133.7814,-137.4835 136.6246,-138.1501 139.0089,-139.0756 141.2542,-140.2068 143.737,-141.5904 145.8661,-143.1448 147.889,-144.8087 150.1086,-146.4921 152.1076,-148.0501 154.1749,-149.763 156.3659,-151.6147 158.4022,-153.4204 160.8277,-155.3478 163.3732,-157.1608 165.8573,-158.6823 168.3223,-160.1361 170.5133,-161.4967 172.9531,-162.9247 175.3785,-164.3784 178.0332,-165.711 180.8517,-166.8757 183.5634,-167.8381 186.3506,-168.8667 189.0588,-170.1277 191.8483,-171.4958 194.855,-172.804 197.7175,-173.9347 200.2962,-175.1202 202.7873,-176.408 205.0334,-177.6931 207.1413,-179.0887 209.8599,-180.9196 212.6584,-182.6846 214.851,-184.0347 217.0342,-185.3736 219.7836,-186.797 222.8589,-188.254 225.7004,-189.6382 228.7057,-190.9439 231.3085,-192.0366 233.6229,-193.2128 236.5999,-194.6276 240.2298,-196.0791 244.0519,-197.282 247.2598,-198.1028 250.1828,-198.7038 253.0329,-199.2636 256.131,-199.81 259.7115,-200.2202 262.9718,-200.4315 266.4503,-200.7927 269.9697,-201.1585 273.1341,-201.2197 276.3101,-201.2405 279.5586,-200.7348 282.4945,-199.5239 284.9039,-198.1835 287.3481,-196.5491 289.6246,-194.3614 291.4028,-192.0527 293.214,-189.0772 294.4196,-186.423 294.5973,-185.6295 A1.7462,1.7462 0 0 1 291.2227,-184.7305 T290.9551,-185.8539 289.9311,-187.7854 288.4375,-189.6133 286.8878,-191.62 285.1436,-193.3415 282.8935,-194.7991 280.2204,-196.2643 277.6122,-197.1476 274.6886,-197.2869 271.58,-197.2692 268.6556,-197.1933 265.8879,-196.8567 263.1709,-196.5341 260.2312,-196.3439 257.619,-195.9867 255.1156,-195.6717 252.3562,-195.2534 249.7151,-194.5707 246.7023,-193.8122 243.2816,-192.9259 239.9249,-191.7403 236.834,-190.4131 234.1476,-189.1022 231.5522,-188.0186 228.8145,-186.9058 225.9837,-185.4881 223.0883,-184.0483 220.4089,-182.6345 218.0735,-181.2924 215.8005,-179.8968 213.5086,-178.523 211.3774,-177.0988 209.456,-175.631 207.3393,-174.2173 204.7205,-172.712 201.9612,-171.2773 199.0842,-169.9937 196.3162,-168.9137 193.6912,-167.7494 190.8446,-166.3567 187.9268,-165.0104 185.0982,-163.9682 182.2312,-162.9617 179.6304,-161.9133 177.4136,-160.7645 175.1108,-159.3992 172.7189,-158.011 170.3168,-156.548 167.8726,-155.1517 165.5017,-153.7453 163.3784,-152.3406 161.1858,-150.6439 158.7699,-148.5554 156.5594,-146.7316 154.4075,-145.0018 152.1892,-143.3183 150.1984,-141.8563 148.0528,-140.1566 145.8661,-138.5654 143.2932,-137.1475 140.4631,-135.7046 137.894,-134.6883 135.0465,-133.8883 131.915,-133.5617 128.7676,-134.1858 125.9441,-135.7554 123.6531,-137.9825 121.9937,-140.1884 121.1517,-141.4061 120.947,-141.5759 A1.789,1.789 0 0 1 123.5518,-144.0288 Z" stroke-linecap="round" fill="#ffc034"/></g></g><g transform="matrix(1, 0, 0, 1, 1348.5366, 8910.5506) scale(0.7041197214873717, 0.7041197214873717)" opacity="1"><g transform="scale(1.4202130255457344)"><path d="M1.6198,-0.2687 T1.8101,0.725 2.4037,3.6281 3.2352,7.1119 3.6633,8.6864 A1.621,1.621 0 0 1 0.5567,9.6136 T0.2705,8.7378 -0.4201,6.1629 -1.0813,3.3686 -1.479,1.271 -1.6198,0.2687 A1.6419,1.6419 0 0 1 1.6198,-0.2687 Z" stroke-linecap="round" fill="#ffc034"/></g></g><g transform="matrix(1, 0, 0, 1, 1353.4654, 8909.8465) scale(0.7041197214873717, 0.7041197214873717)" opacity="1"><g transform="scale(1.4202130255457344)"><path d="M1.347,-0.6735 T1.8534,0.3208 3.087,3.0846 4.3848,6.2339 5.3018,8.4269 5.6481,9.24 A1.5569,1.5569 0 0 1 2.7919,10.48 T2.4343,9.6717 1.4453,7.2924 0.225,4.1992 -0.8554,1.6752 -1.347,0.6735 A1.5059,1.5059 0 0 1 1.347,-0.6735 Z" stroke-linecap="round" fill="#ffc034"/></g></g><g transform="matrix(1, 0, 0, 1, 1358.3942, 8904.2135) scale(0.7041197214873717, 0.7041197214873717)" opacity="1"><g transform="scale(1.4202130255457344)"><path d="M0.1453,1.6905 T-1.1869,2.362 -3.971,3.6 -6.8583,4.6306 -9.5144,5.499 -11.879,6.2801 -14.1316,7.0053 -16.4775,7.7465 -17.7148,8.1391 A1.895,1.895 0 0 1 -18.9052,4.5409 T-17.6779,4.1181 -15.347,3.3122 -13.0928,2.5542 -10.7021,1.7864 -8.1224,0.9813 -5.4995,0.1017 -2.8808,-1.0281 -1.5453,-1.6905 A1.89,1.89 0 0 1 0.1453,1.6905 Z" stroke-linecap="round" fill="#ffc034"/></g></g></svg>