<svg xmlns="http://www.w3.org/2000/svg" direction="ltr" width="1542.6744473003864" height="1030.6449188035044" viewBox="183.4452600573217 1894.9486582224113 1542.6744473003864 1030.6449188035044" stroke-linecap="round" stroke-linejoin="round" style="background-color: transparent;"><defs/><g transform="matrix(1, 0, 0, 1, 327.5155, 2191.3367) scale(1.3078707020803484, 1.3078707020803484)" opacity="1"><g transform="scale(0.7646015759886373)"><path d="M0,0 Q-1.1947,-2.3849 -0.9223,-3.3322 T-0.2031,-4.795 0.7856,-5.5907 1.9185,-5.4262 2.8312,-4.443 3.3277,-3.313 3.5978,-2.101 3.4483,-0.8442 2.7719,0.1381 1.5079,0.9712 -0.0757,1.723 -1.5323,2.132 -2.9198,1.7572 -3.9732,0.6572 -4.5463,-0.5385 -4.5594,-1.7841 -3.9714,-3.0567 -2.7578,-4.0477 -1.2016,-4.2882 0.2424,-3.8239 1.3266,-2.9762 1.9164,-1.9178 1.6399,-0.7446 0.5934,0.1923 -0.5732,0.4033 -1.803,0.2194 -2.7683,-0.1793 -3.5922,-0.9936 -4.6377,-2.0316 -5.8698,-3.2547 L-6.54,-3.92 " stroke-linecap="round" fill="none" stroke="#e599f7" stroke-width="3.923612106241045" stroke-dasharray="none" stroke-dashoffset="0"/></g></g><g transform="matrix(1, 0, 0, 1, 352.365, 2150.7927) scale(1.3078707020803484, 1.3078707020803484)" opacity="1"><g transform="scale(0.7646015759886373)"><path d="M0,0 Q-1.1947,1.7875 -1.8161,2.5724 T-3.0741,4.0829 -4.3559,5.8007 -5.6505,7.629 -6.9522,9.5173 -8.2553,11.4406 -9.5593,12.7855 -10.8661,13.8136 -12.3,15.0289 L-13.08,15.69 " stroke-linecap="round" fill="none" stroke="#e599f7" stroke-width="3.923612106241045" stroke-dasharray="none" stroke-dashoffset="0"/></g></g><g transform="matrix(1, 0, 0, 1, 336.6706, 2152.1006) scale(1.3078707020803484, 1.3078707020803484)" opacity="1"><g transform="scale(0.7646015759886373)"><path d="M0,0 Q3.5796,1.7875 4.8519,2.5724 T6.8164,4.0829 8.1815,5.502 9.5192,7.1678 10.8442,8.9677 12.1624,10.5442 13.4746,11.7005 14.7835,12.6283 16.0929,13.728 17.5288,14.9987 L18.31,15.69 " stroke-linecap="round" fill="none" stroke="#e599f7" stroke-width="3.923612106241045" stroke-dasharray="none" stroke-dashoffset="0"/></g></g><g transform="matrix(1, 0, 0, 1, 324.8998, 2048.7788) scale(1.3078707020803484, 1.3078707020803484)" opacity="1"><g transform="scale(0.7646015759886373)"><path d="M-2.3849,-2.3849 Q-4.7698,-4.7698 -7.2596,-6.0671 T-12.2986,-7.7739 -17.7256,-8.1073 -23.3615,-7.3926 -29.111,-5.8114 -35.2209,-3.7587 -41.5247,-1.4474 -47.6375,1.0024 -53.6487,3.8262 -59.6024,7.1522 -64.9274,11.0477 -69.9104,15.8504 -75.006,21.1467 -79.8665,26.7114 -84.3004,32.7208 -88.5,39.2709 -92.5744,46.4114 -96.5806,53.5745 -100.2511,60.7522 -103.1439,68.2364 -105.6114,75.8875 -107.5488,83.6269 -108.6027,91.4145 -109.176,99.2306 -109.1892,107.0598 -108.6013,114.8963 -107.3878,122.4402 -105.5329,129.825 -103.3314,137.1233 -100.9413,144.0758 -98.4487,150.8402 -95.9002,157.5023 -93.0228,164.4051 -89.3712,171.4388 -85.2963,178.5461 -80.9911,185.9921 -76.2641,193.3236 -71.0091,200.5906 -65.7655,207.8225 -60.8245,215.0376 -55.7495,222.8386 -50.9024,230.6596 -46.1794,238.4939 -41.5217,246.634 -37.198,254.9382 -33.3571,263.6304 -30.0752,272.5336 -27.3938,281.253 -25.3378,289.8723 -23.9207,299.0346 -23.1497,308.1935 -22.7303,317.3507 -22.8009,326.8055 -23.7353,335.825 -25.436,344.6075 -27.8524,353.5599 -31.2553,362.0096 -35.4914,369.5885 -40.4794,376.9924 -46.1751,384.0023 -52.2558,390.4992 -58.546,396.7171 -64.95,402.7832 -71.4161,408.7668 -77.6172,414.7054 -83.3755,420.6195 -88.5942,426.5204 -92.9243,433.0114 -96.4723,439.8234 -98.9975,446.5091 -100.3712,453.7234 -100.8221,461.5263 -100.1736,469.6471 -98.3297,478.2394 -95.2405,487.0884 -90.8763,496.0769 -85.52,505.1413 -79.3252,513.9483 -72.3757,522.319 -65.0155,529.8548 -57.4343,536.0406 -49.4341,541.1954 -40.9073,545.4907 -32.0941,549.0198 -23.125,551.537 -14.0711,552.9064 -4.6724,553.6513 4.9138,553.7579 14.6021,552.9198 24.3436,550.9728 33.8176,548.1261 43.4449,544.7877 52.8568,541.1818 61.5564,536.8353 69.8664,531.7872 77.6656,526.3575 84.8907,520.4215 91.8033,514.2101 98.2474,507.8489 103.8414,501.1074 108.6744,494.1592 112.7946,487.1007 116.2285,479.9822 119.2889,472.8288 121.5512,465.3578 123.0805,457.4176 124.2112,449.2221 124.8262,441.1841 124.8622,432.9355 124.2843,424.5722 123.3726,416.1466 122.2793,407.3884 121.0895,398.7456 119.5484,390.4667 117.8141,382.3856 116.5719,374.4099 115.5975,366.7902 114.4723,359.3664 113.5638,352.0492 113.0696,344.7878 112.5021,337.5566 111.8946,330.6407 111.5642,323.5974 111.3844,316.485 111.2867,309.6336 111.2335,303.2229 111.5032,297.0519 112.5437,291.0113 114.0035,285.3404 115.9901,279.8705 118.5619,274.8087 121.4521,269.9665 125.1105,265.244 129.1892,260.8874 133.1978,256.7276 137.1683,252.3762 141.118,247.9228 145.3529,243.7104 150.0415,239.3303 154.6806,234.8614 158.9941,230.3441 163.1282,225.2031 166.8682,219.4242 170.3939,213.2982 173.803,206.9834 176.85,200.8646 179.4013,194.8524 181.6853,188.3009 183.8238,181.4559 185.2858,174.75 186.0812,167.8234 186.5138,160.7766 186.7492,153.6623 186.5786,146.5112 185.8884,139.6387 184.9156,132.6192 183.4926,125.5196 181.526,118.6775 178.9651,112.2719 176.0809,106.1013 173.3194,100.061 170.326,94.3902 167.2065,88.9204 164.0184,83.8586 160.7929,79.0188 157.5471,74.2975 153.9916,69.9393 150.2699,65.7786 146.4555,62.0241 142.5907,58.4905 138.9971,55.0771 135.5511,52.0278 131.8889,49.1765 128.1069,46.1343 124.2597,43.2869 120.377,40.8442 116.475,38.6193 112.8635,36.8116 109.7064,35.2331 106.4978,33.7793 103.2612,32.6898 100.3058,31.7984 97.5056,30.7161 94.7898,29.8287 91.8214,29.0495 88.7154,28.3293 85.8333,27.9374 83.073,27.4256 80.3789,26.8485 78.0196,26.5345 75.8401,26.3637 73.462,26.2708 70.9759,25.9216 68.431,25.433 65.8541,24.8684 62.9612,24.2627 59.8963,23.9331 56.7379,23.4552 53.5286,22.6001 50.5903,21.8385 47.5008,21.1256 44.0303,19.8417 40.3525,18.2472 36.2633,16.486 31.9526,14.6342 27.8201,12.733 23.7822,10.5064 19.7957,8.399 15.8396,6.3589 11.8977,4.3553 7.9634,2.3693 4.3321,0.3928 1.4606,-0.6823 -1.1823,-1.0889 -1.31,-0.655 -2.3849,-2.3849 Z" stroke-linecap="round" fill="none" stroke="#f76707" stroke-width="3.923612106241045" stroke-dasharray="none" stroke-dashoffset="0"/></g></g><g transform="matrix(1, 0, 0, 1, 746.0341, 1949.3806) scale(1.3078707020803484, 1.3078707020803484)" opacity="1"><g transform="scale(0.7646015759886373)"><path d="M0,0 Q0.5974,-4.177 0.7598,-6.2069 T0.712,-9.9361 0.0887,-13.1572 -0.5491,-15.8056 -1.4912,-18.14 -2.8974,-20.3037 -4.2597,-21.7795 -5.5982,-22.2836 -6.9237,-21.6641 -8.2399,-20.4333 -9.5509,-18.8677 -10.8615,-17.1223 -12.1718,-15.279 -13.1833,-12.7851 -14.03,-9.9374 -14.7869,-7.4921 -15.1987,-4.9695 -15.1264,-2.106 -14.4919,0.6441 -13.5494,3.3326 -12.738,5.6912 -11.7015,8.1668 -10.2439,10.7059 -8.8536,12.9809 -7.7986,15.411 -7.2247,17.629 -6.6138,19.7293 -5.9828,22.0644 -5.6395,24.2306 -5.7515,26.3029 -6.4097,28.3239 -7.3652,30.0207 -8.48,31.8376 -9.9802,33.421 -11.9888,34.5811 -14.5726,35.5108 -17.4693,36.0166 -20.2375,36.2918 -22.9382,36.4414 -25.3011,36.2242 -27.1816,35.5086 -28.8019,34.5243 -30.2808,33.3937 -31.3839,32.1814 -32.2363,30.8204 L-32.7,30.08 " stroke-linecap="round" fill="none" stroke="#f76707" stroke-width="3.923612106241045" stroke-dasharray="none" stroke-dashoffset="0"/></g></g><g transform="matrix(1, 0, 0, 1, 740.8026, 1965.0751) scale(1.3078707020803484, 1.3078707020803484)" opacity="1"><g transform="scale(0.7646015759886373)"><path d="M0,0 Q0,-2.3849 -0.5974,-3.3322 T-2.7121,-4.795 -6.2474,-5.292 -10.2568,-4.9651 -14.6242,-4.2882 L-17,-3.92 " stroke-linecap="round" fill="none" stroke="#f76707" stroke-width="3.923612106241045" stroke-dasharray="none" stroke-dashoffset="0"/></g></g><g transform="matrix(1, 0, 0, 1, 326.2076, 2196.5682) scale(1.3078707020803484, 1.3078707020803484)" opacity="1"><g transform="scale(0.7646015759886373)"><path d="M1.31,0 Q3.0975,1.1947 3.8824,2.1148 T5.6916,4.1327 7.5696,6.4229 9.1863,8.8612 10.6632,11.38 12.0639,13.9427 13.421,16.5316 14.4557,19.1323 15.3172,21.4409 16.3832,23.5928 17.5605,25.6572 18.7983,27.674 20.0668,29.9636 21.6506,32.1029 23.4082,34.4614 25.2581,37.2355 27.4569,39.9371 30.1441,42.5992 33.3958,45.2398 36.6558,47.8687 39.9204,50.4913 43.4861,53.4091 47.2134,56.4875 51.0309,59.3569 54.8973,62.1103 59.0869,65.0992 63.7509,68.515 68.673,71.8621 73.7378,74.8753 78.8802,78.0056 84.0626,81.1996 89.2666,84.4283 94.4825,87.6758 99.7049,90.9335 104.9307,94.1969 110.4571,97.4633 116.4457,100.7313 122.6857,104.0002 129.0626,107.2696 135.8125,110.2406 143.064,113.0493 150.2898,115.7697 157.2028,118.442 163.9435,121.0904 170.5904,123.7236 177.1885,126.0499 183.7602,128.2091 190.3174,130.2775 196.8667,132 203.4118,133.8331 209.9546,135.7241 216.7948,137.3479 224.0932,138.8286 231.3421,140.2314 238.2678,141.2933 245.0176,142.1696 251.6717,142.945 258.5725,143.3668 265.6074,143.5962 272.4167,143.7211 279.4018,143.789 286.7791,143.8259 294.0709,143.846 301.02,144.1534 308.0811,144.6169 315.2033,144.8691 322.0601,145.0063 329.0687,145.081 336.1601,144.8252 343.2987,144.3896 350.4631,144.1527 357.3427,143.7251 364.3662,143.1938 371.4678,142.6061 378.3134,141.9877 385.0173,141.3526 391.9429,140.7085 398.9913,140.0594 405.8079,139.1112 412.4984,138.299 419.1202,137.5584 425.7048,136.8569 432.269,136.1766 438.5235,135.2091 444.6095,134.3842 450.6038,133.6367 456.5483,132.635 462.7644,131.495 469.1281,130.5762 475.5723,130.0763 482.0601,129.5057 488.5717,128.8966 494.7976,128.2666 500.5694,127.6252 506.0941,127.2763 511.4844,126.79 516.8017,126.2291 521.7827,125.6253 526.2822,124.9982 530.5174,124.3583 534.6112,123.7116 538.628,123.0611 542.3043,122.4085 545.4966,122.0535 548.4257,121.5617 551.2138,120.9955 553.6243,120.3911 555.5307,119.4672 556.8665,118.3672 557.5931,117.1715 557.6897,115.9237 557.1472,114.6497 556.257,113.3617 555.1754,112.0636 553.6909,110.4637 551.6909,108.6996 549.4105,106.8438 546.9775,104.6419 544.1629,102.5503 540.8419,100.5164 537.5441,98.5139 534.2591,96.5308 530.9808,94.2596 527.7064,92.1302 524.434,90.0781 521.76,88.0657 519.4116,86.3736 517.8354,84.8581 517.5753,83.7372 518.3276,83.1274 519.9292,82.7957 521.993,82.9117 524.6068,83.8685 527.5198,85.5837 530.5956,88.008 534.0587,91.1143 537.7301,94.5939 541.5171,98.5753 545.0684,103.126 548.4914,107.9865 551.5482,113.0155 554.1049,118.1362 556.3895,123.3067 557.931,128.2079 558.7696,132.664 558.9271,136.8779 558.119,140.6614 556.487,143.912 554.4044,146.8728 551.7804,149.3773 548.5654,151.0383 544.4316,152.2407 539.1197,153.5939 L536.23,154.33 " stroke-linecap="round" fill="none" stroke="#f76707" stroke-width="3.923612106241045" stroke-dasharray="none" stroke-dashoffset="0"/></g></g><g transform="matrix(1, 0, 0, 1, 936.9832, 2289.427) scale(1.3078707020803484, 1.3078707020803484)" opacity="1"><g transform="scale(0.7646015759886373)"><path d="M0,0 Q1.1947,-2.3849 1.221,-3.6309 T1.2616,-5.8535 1.2837,-7.6577 1.2957,-9.2342 1.0035,-11.2843 0.2472,-13.2933 -0.4629,-14.6849 -1.1478,-16.0393 -2.4142,-17.0747 -3.9969,-17.638 -5.4552,-17.6458 -6.8459,-16.7562 -7.9011,-15.3785 -8.7716,-12.8393 -9.5415,-9.0731 -9.9603,-5.2344 -10.1882,-0.759 -10.3121,3.7618 -10.0832,8.0086 -9.3635,11.81 -8.3747,15.3691 -7.5381,18.7963 -6.7843,21.5568 -5.7768,24.2509 -4.6337,26.6103 -3.7155,29.0863 -3.2159,31.6256 -2.9442,34.2017 -3.6901,37.0943 -5.587,39.8602 -7.8114,41.9623 -10.2139,43.4045 -13.3106,44.4877 -16.7828,45.077 -20.1628,45.0989 -23.7913,44.5134 -26.9576,43.5976 -29.2775,42.502 -31.4941,41.2313 L-32.7,40.54 " stroke-linecap="round" fill="none" stroke="#f76707" stroke-width="3.923612106241045" stroke-dasharray="none" stroke-dashoffset="0"/></g></g><g transform="matrix(1, 0, 0, 1, 935.6754, 2307.7372) scale(1.3078707020803484, 1.3078707020803484)" opacity="1"><g transform="scale(0.7646015759886373)"><path d="M0,0 Q-2.3849,1.1947 -4.226,1.8161 T-8.2611,3.0741 -12.2461,4.3559 -16.1735,5.7705 L-18.31,6.54 " stroke-linecap="round" fill="none" stroke="#f76707" stroke-width="3.923612106241045" stroke-dasharray="none" stroke-dashoffset="0"/></g></g><g transform="matrix(1, 0, 0, 1, 955.2934, 2277.6562) scale(1.3078707020803484, 1.3078707020803484)" opacity="1"><g transform="scale(0.7646015759886373)"><path d="M0,0 Q0,1.7875 -0.5974,3.1698 T-1.8161,6.1977 -3.0741,9.9311 -4.3559,15.8381 -5.0532,22.6311 -5.1338,27.8176 -4.879,31.8315 -3.8466,35.5062 -2.6899,38.6976 -1.4633,41.0312 0.1,42.5993 1.5455,43.1536 3.0834,43.1578 L3.92,43.16 " stroke-linecap="round" fill="none" stroke="#f76707" stroke-width="3.923612106241045" stroke-dasharray="none" stroke-dashoffset="0"/></g></g><g transform="matrix(1, 0, 0, 1, 977.5272, 2290.7349) scale(1.3078707020803484, 1.3078707020803484)" opacity="1"><g transform="scale(0.7646015759886373)"><path d="M1.31,0 Q0.1153,2.3849 -0.5084,3.6309 T-2.0663,6.1499 -4.1063,9.0113 -6.1121,11.7604 -7.7984,13.851 -9.3107,15.8843 -10.7308,17.5878 -12.2523,18.904 L-13.08,19.62 " stroke-linecap="round" fill="none" stroke="#f76707" stroke-width="3.923612106241045" stroke-dasharray="none" stroke-dashoffset="0"/></g></g><g transform="matrix(1, 0, 0, 1, 964.4485, 2294.6585) scale(1.3078707020803484, 1.3078707020803484)" opacity="1"><g transform="scale(0.7646015759886373)"><path d="M0,0 Q1.7875,2.9822 2.5724,4.0921 T4.0829,6.1044 5.502,8.0928 6.8714,10.0683 8.2114,11.7403 9.5354,13.245 10.8531,14.6586 12.4636,15.7263 14.5532,16.5512 L15.69,17 " stroke-linecap="round" fill="none" stroke="#f76707" stroke-width="3.923612106241045" stroke-dasharray="none" stroke-dashoffset="0"/></g></g><g transform="matrix(1, 0, 0, 1, 977.5272, 2272.4247) scale(1.3078707020803484, 1.3078707020803484)" opacity="1"><g transform="scale(0.7646015759886373)"><path d="M0,0 Q3.5796,0.5974 4.8519,1.6536 T7.7102,4.7756 10.4575,9.4561 12.2507,14.0909 13.5226,19.5944 14.511,25.5683 15.0486,30.6079 14.746,36.3316 13.9863,41.5316 12.6793,45.8515 10.4771,49.9913 7.9272,54.0384 L6.54,56.24 " stroke-linecap="round" fill="none" stroke="#f76707" stroke-width="3.923612106241045" stroke-dasharray="none" stroke-dashoffset="0"/></g></g><g transform="matrix(1, 0, 0, 1, 897.7471, 2088.0149) scale(1.3078707020803484, 1.3078707020803484)" opacity="1"><g transform="scale(0.7646015759886373)"><path d="M0,0 Q-2.3849,-4.7698 -4.226,-6.0671 T-8.2611,-8.369 -12.8434,-9.9198 -17.7233,-10.4648 -23.0616,-10.1662 -28.6491,-9.11 -34.0737,-7.0443 -39.4095,-4.1308 -44.3983,-0.756 -49.2008,3.166 -53.9018,7.6845 -58.2467,12.5297 -62.4001,17.5527 -66.4493,22.9687 -70.4396,28.8973 -74.4002,35.1047 -78.0458,41.4615 -81.2215,47.8995 -84.1438,54.3841 -86.9259,61.1926 -89.3332,68.1773 -91.2401,75.2579 -92.5761,82.6871 -93.3029,90.3059 -93.6983,98.0301 -93.9134,105.8117 -94.0304,113.6222 -94.0941,121.4484 -93.83,129.2855 -93.089,137.4249 -92.0885,145.7287 -90.9492,154.1242 -89.7343,163.1648 -88.1774,172.5539 -86.138,182.135 -83.8361,192.1191 -81.3892,202.3202 -78.8656,212.9381 -76.599,223.7849 -74.7686,234.159 -73.1778,244.2735 -72.016,254.5479 -71.384,264.9092 -71.3366,275.0191 -71.9059,284.6935 -73.1116,293.8324 -75.2586,302.3813 -78.5128,310.3106 -82.668,317.905 -87.6119,325.0186 -93.2837,331.2733 -99.3514,337.3594 -105.6344,343.6525 -112.0346,350.0581 -118.4986,356.5251 -124.6986,363.0253 -130.7549,369.5437 -136.7331,376.3706 -142.3701,383.3654 -147.5252,390.7478 -152.1193,398.9386 -156.1096,407.2704 -159.1741,415.6788 -161.735,424.7264 -163.7254,434.1216 -164.8082,443.706 -165.3973,453.6897 -165.419,463.8928 -164.5371,474.2154 -162.8649,484.8993 -160.4641,495.7798 -157.0719,506.4708 -152.2443,517.0588 -146.3371,527.5884 -139.8427,538.0885 -132.7302,548.2739 -125.2836,557.6908 -117.3567,566.3909 -108.8698,574.7011 -100.0782,582.5028 -90.8222,589.4304 -81.3136,595.5839 -71.9662,600.7213 -62.7066,604.412 -53.4947,607.0171 -44.6074,608.733 -36.1931,609.3678 -28.3348,609.1157 -21.0799,607.7861 -14.1533,604.9744 -7.6994,601.0576 -1.8013,596.542 3.4934,591.402 8.1613,585.6236 12.1918,579.4979 15.579,572.8868 18.6142,565.7131 21.159,558.5297 22.8421,551.341 24.0564,543.5543 25.0156,535.4424 25.5375,527.4499 25.8213,519.226 25.9758,510.8762 26.0598,502.7543 26.1055,494.7586 26.1303,486.8317 26.4425,478.9398 26.9111,471.3658 27.1659,464.2632 27.601,457.7159 28.1341,451.4706 28.7227,445.6882 29.6403,440.4564 31.0333,435.2255 32.6848,430.2913 34.4792,425.5187 36.6479,421.1348 39.3187,417.2589 42.2628,413.3606 45.3555,409.4501 49.1264,405.8317 53.5626,402.3722 58.3608,398.9991 63.3559,395.9716 68.4581,393.1323 73.9173,390.3952 79.8693,387.7139 86.0895,385.3614 92.1568,383.1857 98.141,380.8096 104.3786,378.0259 110.4554,374.7218 116.4448,371.1368 122.6853,367.3968 128.7636,363.5724 134.7538,359.7044 140.6983,355.8105 146.3193,351.6036 151.762,346.9303 157.1077,342.0031 162.1019,336.6391 166.6086,331.0376 170.85,325.0081 174.9449,318.4471 178.6636,311.597 182.1777,304.5897 185.5805,297.7954 188.9228,290.8207 192.2321,283.7478 195.2248,276.9179 198.3439,269.9216 201.2354,262.5359 203.7022,255.2372 205.9379,247.9881 207.7514,240.4672 209.3354,232.7963 210.4957,224.7473 211.127,216.4927 211.4703,208.4225 211.3585,200.4551 210.7002,192.5434 209.7448,184.3612 208.3313,176.0341 206.3699,167.9268 203.8118,159.9369 200.6304,152.0107 197.1099,144.1216 193.4072,136.2526 189.3045,128.6909 184.6854,121.2965 179.4891,113.993 173.9788,107.0376 168.2976,100.2739 162.5234,93.6145 156.6987,87.306 150.2492,81.1906 143.4597,75.1802 136.7863,69.5234 130.176,64.0613 123.5977,58.705 117.0369,53.7049 110.4856,49.1951 103.9395,44.952 97.3961,40.8539 90.8543,36.8348 84.3133,33.1595 77.7727,29.6691 71.2325,25.9804 64.6923,22.4827 58.1522,19.0888 51.9108,15.7514 45.832,12.7435 39.5428,9.616 33.1393,6.4235 26.9722,3.4944 20.9338,0.7085 14.9653,-1.4021 9.3336,-2.5503 3.5863,-3.1749 -1.6286,-3.2182 -6.5065,-2.8308 L-9.16,-2.62 " stroke-linecap="round" fill="none" stroke="#40c057" stroke-width="3.923612106241045" stroke-dasharray="none" stroke-dashoffset="0"/></g></g><g transform="matrix(1, 0, 0, 1, 912.1337, 2365.2835) scale(1.3078707020803484, 1.3078707020803484)" opacity="1"><g transform="scale(0.7646015759886373)"><path d="M0,0 Q-2.3849,-0.5974 -3.0336,-1.0585 T-3.4401,-2.067 -2.4688,-2.9119 -0.7456,-3.0752 1.0855,-2.569 2.378,-1.6962 3.0812,-0.624 2.8686,0.2579 1.8592,0.439 0.7127,0.2388 -0.5083,-0.1688 -1.7676,-0.9879 -3.0478,-2.0285 -4.4611,-3.2536 L-5.23,-3.92 " stroke-linecap="round" fill="none" stroke="#e599f7" stroke-width="3.923612106241045" stroke-dasharray="none" stroke-dashoffset="0"/></g></g><g transform="matrix(1, 0, 0, 1, 1378.682, 1987.2125) scale(1.6971776312717215, 1.6971776312717215)" opacity="1"><g transform="scale(0.5892135163546107)"><path d="M0,0 Q2.321,-2.321 2.9524,-3.7276 T3.5395,-7.0598 2.6984,-10.8059 1.0803,-14.0043 -0.5728,-16.5195 -2.6327,-18.2753 -5.3013,-19.2305 -7.9136,-19.7501 -10.1099,-19.2576 -12.4652,-17.8268 -14.907,-15.888 -17.0105,-13.2874 -18.5424,-9.937 -19.3758,-6.1787 -19.8292,-2.5883 -20.0758,1.3006 -19.4347,5.3519 -17.9232,8.7163 -16.328,11.3195 -14.2997,13.5085 -11.6482,15.087 -9.0453,15.558 -6.4687,14.2662 -3.9066,12.0176 -1.7376,9.6338 -0.17,6.7889 1.068,3.6932 2.1268,0.461 2.3175,-2.0703 2.4213,-3.8349 3.2506,-4.7948 4.477,-4.5418 6.3046,-3.6313 8.4594,-1.9754 10.7921,1.2487 13.2216,4.9361 15.3185,8.8754 17.2344,14.8876 18.6642,22.415 19.4421,29.2208 19.8652,34.8589 19.3202,40.247 17.4756,45.1116 14.1511,49.3061 9.6339,52.3631 5.2408,54.0261 0.9153,54.5431 -4.1464,54.0492 -9.6087,52.2324 -15.2888,48.5354 -21.8763,43.4801 L-25.46,40.73 " stroke-linecap="round" fill="none" stroke="#e599f7" stroke-width="5.091532893815165" stroke-dasharray="none" stroke-dashoffset="0"/></g></g><g transform="matrix(1, 0, 0, 1, 910.261, 2374.1689) scale(1.6971776312717215, 1.6971776312717215)" opacity="1"><g transform="scale(0.5892135163546107)"><path d="M0,-1.7 Q2.321,0.621 3.34,1.64 T5.3008,3.9884 7.1404,6.4264 8.914,8.9133 10.6541,11.4266 12.7612,13.9544 15.068,16.4923 17.0981,18.6459 18.9754,20.5903 20.7696,22.4233 22.5208,24.1933 24.2464,25.9292 26.3456,27.6487 28.6504,29.3593 30.6772,31.0628 32.9402,32.7624 36.107,34.8498 39.3779,37.1458 41.9302,38.7802 44.8667,40.4445 48.0123,42.5104 50.8841,44.4072 53.9944,46.2142 57.6199,48.3578 61.5279,50.6844 65.5895,52.7253 69.7325,54.6084 73.9197,56.4058 78.1333,58.1587 81.9736,59.5 85.9962,60.6172 90.5077,61.9979 94.5102,63.5219 98.2356,65.1261 102.9709,66.3865 107.4803,67.4574 111.0963,68.4253 114.6114,68.9518 118.0695,69.6259 121.4989,70.3802 124.9125,70.7905 128.703,71.4013 133.0884,72.5088 138.5702,73.8842 145.0339,75.4053 151.6464,77.008 158.3399,78.6528 165.4626,80.3205 172.0461,81.6153 179.1113,83.0949 186.4363,84.675 193.1298,85.9199 200.6402,87.37 208.595,88.9341 216.7939,90.1725 225.5108,91.2316 234.122,92.5806 242.2881,93.7021 250.5995,94.3122 258.9924,94.6441 267.0397,95.2122 274.899,95.9089 283.0459,96.2879 291.347,96.8816 300.1195,97.5923 309.9237,97.9788 320.2869,98.5744 329.0184,99.2838 336.477,99.6697 344.4037,99.8796 352.5849,99.9938 360.907,100.0559 369.3033,100.0897 377.7401,100.1081 385.8135,100.1181 393.687,100.1235 401.8394,99.7411 410.9186,99.1478 419.3393,98.8251 426.6288,98.2619 434.0781,97.5679 441.2268,96.8028 448.5972,95.999 455.7007,95.1741 462.2736,94.3377 468.9455,93.4974 475.2837,92.2674 482.2155,90.8231 489.0826,89.6498 495.527,88.6261 501.7414,87.2964 507.0554,86.1854 512.6549,85.1934 518.4097,83.8786 523.8613,82.3904 529.1503,81.1955 534.3508,80.1579 539.501,78.8182 544.6237,77.7018 549.3439,76.7092 553.8474,75.3963 558.233,73.9069 562.5522,72.709 566.8376,71.6698 570.717,70.3315 575.1484,68.8306 579.8801,67.6265 583.6147,66.5838 586.8068,65.6291 589.7039,64.7243 591.6675,63.4592 591.9627,61.9958 590.9629,60.4245 589.2584,58.7968 587.1706,57.1384 584.8721,55.4611 582.0736,53.7757 579.0054,52.4735 576.1757,51.3775 573.0883,50.0061 569.8606,48.4848 568.1047,47.2697 568.31,46.9962 569.9699,47.6227 572.0333,48.7386 573.9288,49.7333 575.7351,50.6598 577.4906,51.9367 579.9938,53.4065 583.2912,54.979 586.6309,56.995 589.6082,59.2545 592.003,61.6442 594.081,64.1047 595.9843,67.3789 597.4051,71.8687 597.7926,76.2446 596.843,80.1732 595.1635,83.8585 592.7018,87.4092 589.8168,90.1136 587.0868,91.5848 583.666,92.3852 579.3745,93.0036 L577.04,93.34 " stroke-linecap="round" fill="none" stroke="#e599f7" stroke-width="5.091532893815165" stroke-dasharray="none" stroke-dashoffset="0"/></g></g><g transform="matrix(1, 0, 0, 1, 1494.0901, 2175.5992) scale(1.6971776312717215, 1.6971776312717215)" opacity="1"><g transform="scale(0.5892135163546107)"><path d="M0,0 Q-3.8714,-12.3804 -6.085,-16.9107 T-11.0508,-25.0659 -16.8462,-31.4358 -23.4805,-36.4492 -30.5733,-40.3369 -37.9157,-42.8372 -45.3915,-44.1974 -52.9399,-44.552 -60.9177,-43.199 -69.1267,-40.5273 -77.4616,-37.1382 -85.865,-32.5858 -94.3055,-27.0131 -102.7687,-20.5 -111.6293,-13.0877 -120.704,-5.5716 -129.5098,1.9987 -138.1716,9.9861 -146.3652,18.2027 -154.3041,26.5417 -161.7191,34.9473 -168.0738,43.3891 -173.4666,52.2382 -177.563,61.3089 -180.5644,70.5001 -182.5825,80.1444 -183.295,90.0331 -182.5221,100.0568 -180.1659,110.927 -176.5631,122.643 -171.8945,134.8214 -166.2586,147.6389 -160.0964,160.8041 -153.6479,174.5438 -146.6584,189.3689 -139.7621,204.7868 -133.6872,220.1395 -128.0592,235.4568 -122.6765,250.7548 -117.8148,266.04 -114.0096,281.7082 -111.1643,297.5846 -108.8436,313.1868 -107.1958,329.0274 -106.6847,344.6078 -107.1796,359.2738 -108.9969,373.4445 -112.6942,386.5707 -117.8018,398.3557 -124.0618,409.0235 -131.3365,418.6959 -139.5506,427.4416 -149.0488,435.2932 -159.2478,442.2731 -169.4404,448.7811 -179.6273,455.4154 -189.4257,462.1184 -198.2398,468.8611 -206.131,475.6254 -213.5177,482.789 -219.8572,490.5551 -224.8539,499.0344 -228.3451,508.2915 -230.2443,517.9717 -231.2775,528.655 -231.0666,540.2716 -229.0184,552.7812 -225.1956,566.5519 -219.2468,581.0085 -211.7539,595.8383 -203.0334,610.4835 -192.8722,624.6407 -181.5396,638.5347 -169.1822,651.8979 -155.8819,664.1972 -141.6835,675.1448 -126.6065,684.5841 -110.2765,692.8153 -92.8817,700.387 -74.9077,706.8271 -57.0016,711.4933 -39.5201,714.8046 -21.8843,716.9913 -4.552,717.7956 12.2274,717.0725 28.7084,714.7435 44.2519,710.7679 58.8978,705.5089 72.67,699.1664 85.194,691.847 97.0391,683.2208 107.7373,673.4985 117.0386,663.1799 125.5824,651.7617 132.9389,639.7453 139.2618,627.4035 145.0226,614.4971 150.0921,601.6712 154.0105,588.8912 156.915,575.7487 158.8826,562.4068 160.3406,548.9585 161.5214,535.0649 162.1637,520.9267 162.5131,507.0453 162.7032,492.5284 162.8066,476.503 162.4753,460.0469 161.5198,443.744 160.6125,427.9099 159.7335,413.1036 158.0949,398.4712 156.0429,383.9334 154.1538,369.8323 152.3508,355.9711 150.5949,342.6281 149.252,329.9521 148.5215,317.6392 148.5117,305.9089 149.2816,295.2709 150.8609,285.2271 153.6535,275.8941 157.496,268.1083 161.9096,261.1642 167.0193,254.678 172.5076,249.2137 178.2018,244.3078 183.6206,239.3179 188.1165,233.8947 192.1104,227.4607 195.4436,220.4767 197.6444,212.8083 198.8417,204.3799 199.493,195.9257 199.8473,187.4575 199.6525,178.594 198.3859,169.5155 196.1488,160.7076 193.3837,151.6594 190.3314,142.868 186.7352,134.6039 182.4578,126.2368 177.8099,118.2035 172.5728,110.7395 167.0152,103.1952 161.6708,95.9949 156.4401,89.3692 150.886,83.0563 145.1559,77.301 139.3301,71.849 133.4522,66.1746 127.9313,60.379 122.6069,54.9029 117.3894,49.6006 112.23,44.7827 107.1023,40.2283 101.9895,35.4274 96.4995,30.88 90.8043,26.4727 84.9974,22.1395 78.7446,18.2341 72.2468,14.5637 65.6157,10.6313 59.2998,6.5563 52.7677,2.7937 45.7304,-0.8013 38.8058,-4.305 32.7179,-7.3716 26.9161,-10.2916 L23.76,-11.88 " stroke-linecap="round" fill="none" stroke="#4dabf7" stroke-width="5.091532893815165" stroke-dasharray="none" stroke-dashoffset="0"/></g></g><g transform="matrix(1, 0, 0, 1, 1529.7309, 2409.8097) scale(1.6971776312717215, 1.6971776312717215)" opacity="1"><g transform="scale(0.5892135163546107)"><path d="M0.7729,-1.9357 Q1.5458,-3.8714 2.3539,-4.9245 T3.9892,-6.5504 5.6539,-7.0472 6.9472,-6.1547 7.2631,-4.894 6.2722,-3.8229 4.5726,-2.8548 2.8751,-2.3282 1.1764,-2.8147 0.2524,-4.6274 0.9102,-6.3888 2.4286,-7.3469 4.0298,-7.4806 5.2884,-6.7781 6.3608,-5.6207 7.3317,-3.8306 7.4723,-1.6962 6.7736,-0.1476 5.2329,0.3073 3.2343,-0.2204 1.1396,-1.1787 0,-0.85 0.7729,-1.9357 Z" stroke-linecap="round" fill="none" stroke="#4dabf7" stroke-width="5.091532893815165" stroke-dasharray="none" stroke-dashoffset="0"/></g></g><g transform="matrix(1, 0, 0, 1, 1477.1183, 2330.0423) scale(1.6971776312717215, 1.6971776312717215)" opacity="1"><g transform="scale(0.5892135163546107)"><path d="M0,0 Q1.5458,-3.0962 1.9663,-4.7113 T2.2302,-7.205 1.6008,-8.9492 0.0979,-10.2857 -1.8802,-11.0127 -3.7315,-11.4082 -5.8991,-11.6233 -8.2388,-11.3528 -10.2868,-10.0451 -12.1738,-8.1732 -13.5857,-5.9943 -14.3537,-3.2609 -14.7715,-0.2258 -14.9988,2.9734 -14.7372,6.2619 -13.4343,9.2113 -11.1774,11.5888 -8.7892,13.2674 -6.3294,14.1806 -3.8308,14.6774 -1.6964,14.5623 0.2377,13.7268 1.6751,12.1117 2.8447,10.0726 3.8686,7.8005 4.4255,4.6288 4.7285,1.3576 4.5058,-0.8073 3.997,-2.3726 3.7202,-2.8388 3.5696,-1.159 3.4877,1.6905 3.8308,4.7888 4.7926,8.0224 6.4763,12.1048 8.9404,17.0342 11.4414,21.6493 13.5748,25.708 15.5106,29.4641 16.9513,33.4408 18.1226,37.5399 19.1474,41.7055 19.3173,45.905 18.6345,49.7377 17.4879,53.3708 16.0912,56.5077 14.1709,58.9894 11.5781,60.727 8.6195,61.6723 5.0744,62.1865 1.2123,62.4663 -2.8221,62.2309 -6.9525,60.94 -11.1351,58.6896 -14.9586,56.3049 -18.1991,53.4595 -21.8007,49.6127 L-23.76,47.52 " stroke-linecap="round" fill="none" stroke="#4dabf7" stroke-width="5.091532893815165" stroke-dasharray="none" stroke-dashoffset="0"/></g></g><g transform="matrix(1, 0, 0, 1, 1519.5478, 2280.8242) scale(1.6971776312717215, 1.6971776312717215)" opacity="1"><g transform="scale(0.5892135163546107)"><path d="M0,0 Q-2.321,-0.7752 -3.34,-0.2109 T-5.3008,1.4334 -7.1404,4.2613 -9.687,8.896 -12.6204,14.5134 -14.6038,20.278 -16.0704,26.1225 -17.2558,31.623 -17.5131,36.9363 -17.2654,42.1501 -16.7431,47.3097 -15.6861,52.0499 -14.3381,56.1768 -13.2172,60.3575 -12.2198,64.5652 -10.9044,68.0148 -9.8034,70.6665 -8.8169,72.882 -7.5041,75.1411 L-6.79,76.37 " stroke-linecap="round" fill="none" stroke="#4dabf7" stroke-width="5.091532893815165" stroke-dasharray="none" stroke-dashoffset="0"/></g></g><g transform="matrix(1, 0, 0, 1, 1541.6111, 2319.8593) scale(1.6971776312717215, 1.6971776312717215)" opacity="1"><g transform="scale(0.5892135163546107)"><path d="M0,0 Q1.5458,-6.1925 1.9663,-8.6498 T2.6155,-13.219 2.9687,-17.2528 3.1608,-21.3806 2.4924,-24.7866 0.9683,-25.8666 -0.6338,-25.2936 -2.2782,-23.8214 -3.5604,-21.4723 -4.2579,-18.6464 -5.0249,-15.5609 -5.8298,-12.3343 -6.2677,-9.0309 -6.1182,-5.6857 -5.6494,-2.3201 -5.0067,1.0589 -3.8842,4.0599 -2.113,6.8529 0.0111,9.5329 1.5519,12.1513 2.7776,14.7362 3.8321,17.3029 4.7933,20.2474 5.3162,23.3972 4.8254,26.2713 3.7856,28.61 2.0593,30.6552 -0.4278,32.153 -3.329,32.9679 -6.8429,33.4112 -10.688,33.267 -13.9402,32.028 -16.8699,30.1913 -19.2366,28.4191 -20.9117,26.6822 -22.7564,24.7896 L-23.76,23.76 " stroke-linecap="round" fill="none" stroke="#4dabf7" stroke-width="5.091532893815165" stroke-dasharray="none" stroke-dashoffset="0"/></g></g><g transform="matrix(1, 0, 0, 1, 1550.097, 2326.648) scale(1.6971776312717215, 1.6971776312717215)" opacity="1"><g transform="scale(0.5892135163546107)"><path d="M0,0 Q-3.8714,0.7752 -5.6974,1.3714 T-9.6772,2.6795 -13.3903,3.7787 -16.1854,4.7642 -18.8956,6.0763 L-20.37,6.79 " stroke-linecap="round" fill="none" stroke="#4dabf7" stroke-width="5.091532893815165" stroke-dasharray="none" stroke-dashoffset="0"/></g></g><g transform="matrix(1, 0, 0, 1, 1572.1603, 2296.0988) scale(1.6971776312717215, 1.6971776312717215)" opacity="1"><g transform="scale(0.5892135163546107)"><path d="M0,0 Q0,3.0962 -0.7729,4.7113 T-2.3539,8.3656 -3.9892,12.2892 -6.0393,17.1323 -7.9274,22.8632 -8.9546,27.9165 -9.1281,32.2136 -8.4495,36.487 -6.9176,40.7451 -4.5361,44.2221 -2.08,46.8887 0.3682,49.4997 L1.7,50.92 " stroke-linecap="round" fill="none" stroke="#4dabf7" stroke-width="5.091532893815165" stroke-dasharray="none" stroke-dashoffset="0"/></g></g><g transform="matrix(1, 0, 0, 1, 1592.5264, 2313.0706) scale(1.6971776312717215, 1.6971776312717215)" opacity="1"><g transform="scale(0.5892135163546107)"><path d="M0,0 Q-1.5458,2.321 -2.3539,3.7276 T-3.9892,6.6722 -5.6539,9.8199 -7.3325,12.6927 -9.0186,15.4184 -10.711,18.0616 -12.5692,20.6512 L-13.58,22.06 " stroke-linecap="round" fill="none" stroke="#4dabf7" stroke-width="5.091532893815165" stroke-dasharray="none" stroke-dashoffset="0"/></g></g><g transform="matrix(1, 0, 0, 1, 1578.949, 2318.1621) scale(1.6971776312717215, 1.6971776312717215)" opacity="1"><g transform="scale(0.5892135163546107)"><path d="M0,0 Q3.0962,2.321 4.326,4.1129 T6.6101,7.2671 8.6256,10.1435 10.4972,12.8688 12.2883,15.1265 14.2194,17.4215 L15.27,18.67 " stroke-linecap="round" fill="none" stroke="#4dabf7" stroke-width="5.091532893815165" stroke-dasharray="none" stroke-dashoffset="0"/></g></g><g transform="matrix(1, 0, 0, 1, 1594.2236, 2291.0072) scale(1.6971776312717215, 1.6971776312717215)" opacity="1"><g transform="scale(0.5892135163546107)"><path d="M0,0 Q3.0962,3.0962 4.326,4.326 T6.2248,6.9977 7.643,9.997 9.1875,13.5643 10.8029,17.8282 12.0692,22.8564 13.1435,28.3004 14.1132,33.9706 14.6407,39.3762 14.5423,44.2503 13.7159,48.8375 12.4911,52.4935 10.6643,54.8677 8.8976,55.3863 7.5326,54.6892 L6.79,54.31 " stroke-linecap="round" fill="none" stroke="#4dabf7" stroke-width="5.091532893815165" stroke-dasharray="none" stroke-dashoffset="0"/></g></g><g transform="matrix(1, 0, 0, 1, 1607.801, 2280.8242) scale(1.6971776312717215, 1.6971776312717215)" opacity="1"><g transform="scale(0.5892135163546107)"><path d="M0,0 Q3.0962,3.8714 4.326,5.6974 T6.6101,9.6772 8.6256,14.5508 10.4972,20.2983 11.903,26.9088 13.053,34.3741 14.064,42.3043 14.6139,50.1022 14.5278,57.8259 13.3204,65.1215 11.503,71.026 9.3539,76.1738 6.6366,80.9076 3.6103,85.0309 0.171,89.3179 L-1.7,91.65 " stroke-linecap="round" fill="none" stroke="#4dabf7" stroke-width="5.091532893815165" stroke-dasharray="none" stroke-dashoffset="0"/></g></g></svg>