<svg xmlns="http://www.w3.org/2000/svg" direction="ltr" width="2848.381571817291" height="827.1072730544547" viewBox="2650.452056989996 11448.842609096715 2848.381571817291 827.1072730544547" stroke-linecap="round" stroke-linejoin="round" style="background-color: transparent;"><defs/><g transform="matrix(1, 0, 0, 1, 2709.4849, 11527.5852) scale(6.7582076985856565, 6.7582076985856565)" opacity="1"><g transform="scale(0.14796822539343943)"><path d="M 0 6.76 m -0.5, 0 a 0.5,0.5 0 1,0 1,0 a 0.5,0.5 0 1,0 -1,0" stroke-linecap="round" fill="#9398b0" stroke="#9398b0" stroke-width="20.27462309575697" stroke-dasharray="none" stroke-dashoffset="0"/></g></g><g transform="matrix(1, 0, 0, 1, 2878.4401, 11534.3434) scale(6.7582076985856565, 6.7582076985856565)" opacity="1"><g transform="scale(0.14796822539343943)"><path d="M-1.254,1.7459 Q-2.508,-3.2681 -0.7888,-6.422 T2.0118,-10.3075 5.0274,-10.2453 6.9242,-8.9523 8.1172,-8.1389 7.6137,-7.6274 2.9399,-7.0949 0,0 -1.254,1.7459 Z" stroke-linecap="round" fill="none" stroke="#9398b0" stroke-width="20.27462309575697" stroke-dasharray="none" stroke-dashoffset="0"/></g></g><g transform="matrix(1, 0, 0, 1, 2702.7267, 12169.6149) scale(6.7582076985856565, 6.7582076985856565)" opacity="1"><g transform="scale(0.14796822539343943)"><path d="M0,0 L13.52,6.76 " stroke-linecap="round" fill="none" stroke="#9398b0" stroke-width="20.27462309575697" stroke-dasharray="none" stroke-dashoffset="0"/></g></g><g transform="matrix(1, 0, 0, 1, 3047.3953, 12156.0985) scale(6.7582076985856565, 6.7582076985856565)" opacity="1"><g transform="scale(0.14796822539343943)"><path d="M0,0 Q-2.508,5.0159 -4.634,9.268 L-6.76,13.52 " stroke-linecap="round" fill="none" stroke="#9398b0" stroke-width="20.27462309575697" stroke-dasharray="none" stroke-dashoffset="0"/></g></g><g transform="matrix(1, 0, 0, 1, 3189.3176, 11514.0688) scale(6.7582076985856565, 6.7582076985856565)" opacity="1"><g transform="scale(0.14796822539343943)"><path d="M0,1.254 Q0,2.508 2.508,3.2967 T7.8456,5.8356 12.455,9.9386 12.8483,15.0255 9.3355,19.4792 3.6047,24.1144 0,13.515 0,1.254 Z" stroke-linecap="round" fill="none" stroke="#9398b0" stroke-width="20.27462309575697" stroke-dasharray="none" stroke-dashoffset="0"/></g></g><g transform="matrix(1, 0, 0, 1, 2702.7267, 12189.8895) scale(6.7582076985856565, 6.7582076985856565)" opacity="1"><g transform="scale(0.14796822539343943)"><path d="M0,0 Q5.0159,-15.044 7.8456,-23.5355 T13.709,-41.13 19.9051,-60.9729 26.3104,-82.2301 32.8472,-101.869 39.4669,-120.4898 46.1368,-138.4704 51.5843,-156.0482 56.2647,-173.3727 61.7167,-189.2839 66.3999,-204.308 70.5997,-218.7722 75.7493,-232.8842 80.2424,-246.7766 84.3206,-260.529 88.138,-274.1933 91.7931,-289.0562 95.3461,-304.673 98.835,-319.5119 103.5374,-333.8596 107.7492,-347.8984 111.6524,-360.4907 115.3615,-372.1714 118.9485,-384.5326 122.4587,-396.0697 125.9188,-408.3407 129.3473,-422.3271 132.7578,-436.1405 136.157,-449.8432 139.549,-462.2223 142.9366,-473.7707 146.3214,-486.0487 149.7044,-498.7856 153.0863,-511.813 156.4675,-525.0214 159.8482,-537.0895 163.2287,-547.1883 166.6071,-556.0484 169.9843,-565.3815 172.1085,-576.2661 173.4447,-586.8744 175.5391,-597.309 178.1105,-608.8864 179.7278,-619.9287 181.4112,-633.4961 L182.47,-642.03 " stroke-linecap="round" fill="none" stroke="#9398b0" stroke-width="20.27462309575697" stroke-dasharray="none" stroke-dashoffset="0"/></g></g><g transform="matrix(1, 0, 0, 1, 2871.6819, 11507.3106) scale(6.7582076985856565, 6.7582076985856565)" opacity="1"><g transform="scale(0.14796822539343943)"><path d="M0,0 Q5.0159,15.0441 7.8456,27.2974 T12.455,49.7643 15.3544,68.91 18.4321,87.2226 21.6219,105.0092 23.6283,122.4651 26.1443,138.4607 28.9809,152.282 30.7651,164.7358 33.1413,177.5832 37.1439,193.1863 42.1695,210.5226 46.5846,226.4413 50.6138,240.216 54.4003,252.6423 58.036,264.2185 62.8308,276.514 67.1007,289.2638 71.0405,302.2975 76.0265,315.5097 80.4167,327.5822 84.4303,338.9358 89.461,349.8373 93.8792,361.7103 97.9123,375.4465 101.7031,387.8466 105.3414,399.4082 108.8839,411.6945 111.1122,423.1827 113.7677,434.1707 116.6921,446.0963 119.7854,458.6115 122.9851,471.4995 124.9978,484.6201 126.2637,496.633 128.3121,506.6971 130.8527,516.7894 132.4507,526.8975 134.7098,537.0156 137.3848,547.1418 139.0674,557.2732 141.3797,568.6598 144.0881,579.5821 145.7917,590.2142 146.8633,601.9158 147.5373,614.2902 149.2152,627.0896 152.7786,638.9006 158.5621,653.2649 L162.2,662.3 " stroke-linecap="round" fill="none" stroke="#9398b0" stroke-width="20.27462309575697" stroke-dasharray="none" stroke-dashoffset="0"/></g></g><g transform="matrix(1, 0, 0, 1, 3033.8789, 12162.8567) scale(6.7582076985856565, 6.7582076985856565)" opacity="1"><g transform="scale(0.14796822539343943)"><path d="M0,0 Q5.0159,-12.5361 6.5934,-18.9867 T10.4153,-32.0007 14.0714,-46.4546 17.6251,-63.0681 22.3683,-81.0401 26.6057,-99.8664 30.5251,-120.4842 34.2443,-140.9748 37.8377,-160.1315 42.6059,-179.703 46.8591,-199.5356 50.7865,-218.2783 55.7629,-236.3355 61.401,-253.9615 67.4554,-271.3163 73.7715,-291.0085 80.2505,-312.1709 85.5778,-333.0041 90.1828,-352.3762 95.5872,-369.5753 100.2406,-385.4076 104.4215,-400.3821 108.3053,-413.5611 110.7482,-425.6108 113.5388,-436.9519 116.5481,-449.0996 119.6949,-464.2625 124.1803,-480.068 128.2538,-496.2778 130.816,-511.4896 133.6816,-526.0719 136.738,-541.5122 139.9145,-556.2382 144.4205,-569.261 148.5087,-581.2142 151.0802,-592.4948 153.9517,-603.3503 158.2658,-615.1925 163.4855,-627.6572 170.9898,-644.7798 L175.71,-655.55 " stroke-linecap="round" fill="none" stroke="#9398b0" stroke-width="20.27462309575697" stroke-dasharray="none" stroke-dashoffset="0"/></g></g><g transform="matrix(1, 0, 0, 1, 3365.031, 12156.0985) scale(6.7582076985856565, 6.7582076985856565)" opacity="1"><g transform="scale(0.14796822539343943)"><path d="M6.76,0 Q6.76,5.0159 6.76,9.268 L6.76,13.52 " stroke-linecap="round" fill="none" stroke="#9398b0" stroke-width="20.27462309575697" stroke-dasharray="none" stroke-dashoffset="0"/></g></g><g transform="matrix(1, 0, 0, 1, 3196.0758, 11500.5523) scale(6.7582076985856565, 6.7582076985856565)" opacity="1"><g transform="scale(0.14796822539343943)"><path d="M0,0 Q5.0159,12.5361 6.5934,18.9867 T10.4153,32.0007 15.3254,47.7086 19.6678,66.3648 23.6532,84.3677 28.6679,100.7055 33.0762,115.9961 37.1029,131.8838 42.1437,148.1452 46.5684,163.3876 50.6036,176.7371 55.6479,188.894 60.0747,201.5547 64.1131,214.5343 69.1613,228.9664 74.8445,245.5644 80.9254,263.5266 87.2564,279.8407 92.4925,293.8624 97.04,306.4421 101.1544,319.3707 104.9963,335.0248 108.6669,351.1392 112.2296,367.5433 116.9786,382.8755 121.2196,397.5354 125.1394,411.7705 128.857,424.4845 132.4494,436.2435 135.963,448.654 138.173,461.4743 140.8171,473.3002 143.7343,485.7527 145.5691,499.8534 146.7233,513.7387 148.7032,526.2326 151.2025,537.8514 154.0286,548.9215 157.0602,559.6465 160.221,570.1527 163.4632,581.7751 166.7546,591.5936 170.0771,600.2774 172.1669,610.7535 173.4814,622.3571 175.5622,633.4177 178.125,644.1349 180.991,654.6361 186.0487,667.6403 L189.23,675.82 " stroke-linecap="round" fill="none" stroke="#9398b0" stroke-width="20.27462309575697" stroke-dasharray="none" stroke-dashoffset="0"/></g></g><g transform="matrix(1, 0, 0, 1, 3513.7116, 11541.1016) scale(6.7582076985856565, 6.7582076985856565)" opacity="1"><g transform="scale(0.14796822539343943)"><path d="M0,0 Q2.508,-7.5202 4.634,-13.8951 L6.76,-20.27 " stroke-linecap="round" fill="none" stroke="#9398b0" stroke-width="20.27462309575697" stroke-dasharray="none" stroke-dashoffset="0"/></g></g><g transform="matrix(1, 0, 0, 1, 3506.9534, 11527.5852) scale(6.7582076985856565, 6.7582076985856565)" opacity="1"><g transform="scale(0.14796822539343943)"><path d="M0,0 Q0,12.5361 0,17.7327 T0,28.7059 -1.254,40.6221 -3.2967,53.1314 -5.8356,66.0139 -8.6865,79.131 -11.7319,93.6516 -16.1535,111.561 -20.1887,130.3481 -22.7268,147.1792 -25.5773,164.034 -28.6242,180.9038 -30.5407,196.5289 -33.0002,212.6251 -35.8012,229.0177 -38.817,243.0906 -41.9679,255.7025 -45.2038,268.6495 -48.4932,281.809 -50.5622,295.1005 -53.1157,307.2209 -55.974,318.6065 -59.0258,330.784 -62.1994,343.4578 -65.4496,356.4436 -68.7479,369.6257 -72.0766,381.6774 -75.4243,393.0198 -77.53,403.9162 -80.1084,415.784 -82.9843,429.517 -86.0453,443.169 -89.2228,458.0242 -92.4754,472.3841 -95.7753,486.4305 -97.8509,500.2797 -100.4105,512.7528 -103.2744,524.3585 -105.0758,535.4186 -107.4629,547.3913 -110.2184,558.684 -111.9515,569.5473 -113.0417,581.3943 -114.9814,593.862 -117.4555,606.7183 -119.0116,619.8189 -119.9905,633.0733 -121.0092,651.0148 L-121.65,662.3 " stroke-linecap="round" fill="none" stroke="#9398b0" stroke-width="20.27462309575697" stroke-dasharray="none" stroke-dashoffset="0"/></g></g><g transform="matrix(1, 0, 0, 1, 3696.1832, 12149.3403) scale(6.7582076985856565, 6.7582076985856565)" opacity="1"><g transform="scale(0.14796822539343943)"><path d="M0,0 Q2.508,7.5202 4.634,13.8951 L6.76,20.27 " stroke-linecap="round" fill="none" stroke="#9398b0" stroke-width="20.27462309575697" stroke-dasharray="none" stroke-dashoffset="0"/></g></g><g transform="matrix(1, 0, 0, 1, 3513.7116, 11527.5852) scale(6.7582076985856565, 6.7582076985856565)" opacity="1"><g transform="scale(0.14796822539343943)"><path d="M0,0 Q5.0159,15.0441 6.5934,22.2834 T9.1632,36.5823 12.0317,50.5904 15.0881,64.4156 18.2646,80.6336 21.5165,98.3568 24.816,114.5188 29.3993,129.7005 33.5362,144.2639 37.3923,158.4384 42.3258,171.1161 46.6829,184.1044 50.6756,198.5421 54.4392,211.3853 58.0604,221.9717 61.5922,233.6446 65.0677,247.2549 68.5077,259.5758 71.9255,269.8318 75.3292,281.2988 78.7242,293.5274 83.3657,303.7253 87.5373,312.6459 91.4153,320.7649 95.1085,329.6337 98.6855,340.2262 103.4434,353.157 108.9441,366.3063 114.9119,378.3374 119.9197,389.665 124.3217,399.298 128.3427,409.1191 132.1259,420.3107 135.7595,431.1102 138.0451,440.4111 140.7366,448.7693 143.6836,456.5328 146.7913,465.176 149.9999,475.6286 153.2722,487.2173 156.5844,499.5207 159.9218,512.2754 163.275,524.0582 165.3841,533.9757 167.9629,543.9757 170.8371,555.2817 173.8989,567.4072 177.0788,580.0482 179.0789,591.7613 181.591,602.889 184.4251,614.9023 187.4617,626.2207 192.697,640.0754 L195.99,648.79 " stroke-linecap="round" fill="none" stroke="#9398b0" stroke-width="20.27462309575697" stroke-dasharray="none" stroke-dashoffset="0"/></g></g><g transform="matrix(1, 0, 0, 1, 3838.1056, 11527.5852) scale(6.7582076985856565, 6.7582076985856565)" opacity="1"><g transform="scale(0.14796822539343943)"><path d="M 0 6.76 m -0.5, 0 a 0.5,0.5 0 1,0 1,0 a 0.5,0.5 0 1,0 -1,0" stroke-linecap="round" fill="#9398b0" stroke="#9398b0" stroke-width="20.27462309575697" stroke-dasharray="none" stroke-dashoffset="0"/></g></g><g transform="matrix(1, 0, 0, 1, 3696.1832, 12176.3731) scale(6.7582076985856565, 6.7582076985856565)" opacity="1"><g transform="scale(0.14796822539343943)"><path d="M6.76,0 Q9.268,-17.552 11.3088,-26.8322 T14.6334,-45.7116 17.9786,-65.1087 21.3367,-83.5776 24.7029,-101.4625 28.0742,-120.2342 31.4487,-139.5636 34.8253,-159.2438 38.2031,-180.3987 42.8358,-201.2271 47.0037,-220.5962 50.8774,-240.2996 54.5661,-258.961 56.8863,-275.715 59.5997,-291.2673 62.5604,-306.0638 65.6766,-320.3867 68.8907,-334.4099 72.1664,-348.2445 75.4808,-361.9624 78.8195,-376.859 82.1735,-392.497 85.5353,-408.6014 90.156,-426.2531 94.3164,-443.624 98.1873,-459.5644 101.876,-473.3528 105.4502,-485.7858 108.9524,-497.3663 112.4092,-508.4123 115.8375,-520.3744 117.994,-532.9125 120.6043,-545.815 123.5002,-558.9447 125.3218,-570.9633 127.7196,-582.285 130.48,-594.4223 132.2163,-607.0707 134.5624,-618.7866 138.546,-627.4099 144.767,-636.3848 L148.68,-642.03 " stroke-linecap="round" fill="none" stroke="#9398b0" stroke-width="20.27462309575697" stroke-dasharray="none" stroke-dashoffset="0"/></g></g><g transform="matrix(1, 0, 0, 1, 3993.5444, 12162.8567) scale(6.7582076985856565, 6.7582076985856565)" opacity="1"><g transform="scale(0.14796822539343943)"><path d="M0,-6.76 L6.76,0 " stroke-linecap="round" fill="none" stroke="#9398b0" stroke-width="20.27462309575697" stroke-dasharray="none" stroke-dashoffset="0"/></g></g><g transform="matrix(1, 0, 0, 1, 3844.8638, 11534.3434) scale(6.7582076985856565, 6.7582076985856565)" opacity="1"><g transform="scale(0.14796822539343943)"><path d="M0,0 Q7.5202,15.0441 9.8853,22.2834 T14.992,36.5823 19.4581,51.8444 23.5212,71.4742 28.5849,92.5955 34.278,110.8949 39.1128,127.4211 43.408,142.8302 47.3636,157.5366 49.8517,171.8028 52.6688,185.7903 56.9469,200.8565 60.8918,215.3491 64.6271,229.4789 69.4846,244.6347 73.7939,259.1817 77.7584,272.0919 81.5061,283.9743 83.8634,296.4624 86.5983,309.3315 89.5706,323.6961 91.4402,337.7454 93.8702,351.5966 96.6526,365.3248 99.6567,378.974 104.0543,392.5734 108.0743,406.1414 111.8569,419.6898 115.4902,431.9737 117.7755,444.7143 119.2129,457.7422 121.3711,470.9527 123.9825,483.0241 126.8772,494.377 129.9501,506.5321 133.137,517.9396 136.3955,528.8749 138.4451,540.7674 140.9883,552.0096 143.8419,562.8411 145.6368,573.4142 148.0198,583.8266 150.7727,596.6441 153.6378,616.2057 L155.44,628.51 " stroke-linecap="round" fill="none" stroke="#9398b0" stroke-width="20.27462309575697" stroke-dasharray="none" stroke-dashoffset="0"/></g></g><g transform="matrix(1, 0, 0, 1, 4148.9831, 11527.5852) scale(6.7582076985856565, 6.7582076985856565)" opacity="1"><g transform="scale(0.14796822539343943)"><path d="M0,0 L20.27,0 " stroke-linecap="round" fill="none" stroke="#9398b0" stroke-width="20.27462309575697" stroke-dasharray="none" stroke-dashoffset="0"/></g></g><g transform="matrix(1, 0, 0, 1, 3980.0279, 12169.6149) scale(6.7582076985856565, 6.7582076985856565)" opacity="1"><g transform="scale(0.14796822539343943)"><path d="M0,0 Q7.5202,-17.552 11.1392,-25.5782 T19.5427,-49.9369 28.5904,-80.3025 35.5354,-108.1785 41.1577,-135.7425 47.2003,-161.8544 53.5072,-185.8008 59.9822,-207.1312 65.3089,-225.562 69.9134,-242.1709 75.3176,-257.632 79.9709,-272.3711 84.1499,-286.6579 88.0306,-300.6584 90.4715,-314.4787 93.2609,-328.1876 96.2694,-341.8246 99.4157,-355.4163 102.6487,-368.9796 105.9362,-382.525 110.5121,-394.8069 114.6442,-406.2942 118.4974,-417.2798 122.1749,-429.2038 125.7403,-442.9721 129.235,-455.3924 132.6872,-468.2207 137.3665,-483.8117 141.5638,-498.6325 145.4579,-511.7168 150.4152,-523.7068 154.7874,-536.2626 158.7914,-550.4302 162.564,-564.3556 164.9369,-576.8748 166.4295,-587.2573 168.6204,-596.2959 171.2507,-604.4891 174.1591,-613.4027 177.2424,-622.7694 180.4515,-634.593 L182.47,-642.03 " stroke-linecap="round" fill="none" stroke="#9398b0" stroke-width="20.27462309575697" stroke-dasharray="none" stroke-dashoffset="0"/></g></g><g transform="matrix(1, 0, 0, 1, 4304.4219, 12149.3403) scale(6.7582076985856565, 6.7582076985856565)" opacity="1"><g transform="scale(0.14796822539343943)"><path d="M 0 0 m -0.5, 0 a 0.5,0.5 0 1,0 1,0 a 0.5,0.5 0 1,0 -1,0" stroke-linecap="round" fill="#9398b0" stroke="#9398b0" stroke-width="20.27462309575697" stroke-dasharray="none" stroke-dashoffset="0"/></g></g><g transform="matrix(1, 0, 0, 1, 4142.2249, 11541.1016) scale(6.7582076985856565, 6.7582076985856565)" opacity="1"><g transform="scale(0.14796822539343943)"><path d="M6.76,0 Q9.268,12.5361 10.0567,18.9867 T12.5937,32.0007 15.4416,46.4546 18.4869,61.8142 21.6564,77.7434 24.904,94.0327 28.2007,109.2928 31.5283,123.9054 36.1293,136.8587 40.2774,148.7665 44.1405,160.0165 47.8243,170.8547 51.3936,181.4339 54.8908,191.8483 58.3445,204.667 63.0249,220.2519 68.4768,237.5769 74.414,254.7424 79.4024,270.5535 83.7923,284.2607 87.8057,295.3904 90.3301,307.4051 93.1719,322.4844 97.4674,339.4912 102.6772,356.4566 108.4621,370.8879 113.3548,383.7253 117.6863,396.8159 121.6648,410.064 125.4194,423.4111 129.0332,436.8223 131.3062,450.2721 133.99,463.746 136.932,477.2371 138.7825,489.483 141.2005,500.9458 145.2294,511.9178 149.0175,522.5793 152.6542,534.2995 156.1957,545.4334 158.4233,556.1985 161.0784,567.9839 164.0025,580.411 165.8417,593.2435 168.2507,605.0752 171.0181,615.0235 173.8983,627.4523 L175.71,635.27 " stroke-linecap="round" fill="none" stroke="#9398b0" stroke-width="20.27462309575697" stroke-dasharray="none" stroke-dashoffset="0"/></g></g><g transform="matrix(1, 0, 0, 1, 4466.6189, 11534.3434) scale(6.7582076985856565, 6.7582076985856565)" opacity="1"><g transform="scale(0.14796822539343943)"><path d="M 6.76 0 m -0.5, 0 a 0.5,0.5 0 1,0 1,0 a 0.5,0.5 0 1,0 -1,0" stroke-linecap="round" fill="#9398b0" stroke="#9398b0" stroke-width="20.27462309575697" stroke-dasharray="none" stroke-dashoffset="0"/></g></g><g transform="matrix(1, 0, 0, 1, 4297.6637, 12176.3731) scale(6.7582076985856565, 6.7582076985856565)" opacity="1"><g transform="scale(0.14796822539343943)"><path d="M0,6.76 Q7.5202,-10.792 9.8853,-20.0722 T14.992,-38.9516 20.7121,-58.3487 26.818,-78.0716 33.1665,-99.2532 39.6677,-121.3525 46.2631,-142.775 52.9177,-165.0238 59.6114,-186.5404 65.0757,-205.0903 69.7667,-221.7722 73.9714,-237.2792 77.8701,-252.0471 81.5763,-266.3502 85.1597,-280.3628 88.6658,-294.1908 92.1251,-309.1566 96.8089,-324.8401 101.009,-339.719 104.9049,-354.0919 108.6094,-368.1465 112.1935,-380.747 116.9558,-393.6886 122.4574,-408.0969 128.4241,-420.9198 134.685,-434.0013 141.1312,-448.4977 146.4397,-461.3759 151.0328,-474.4923 155.1758,-489.0105 159.0358,-503.1566 162.7177,-517.0685 165.0336,-530.8331 166.4903,-544.507 168.6587,-558.122 171.2747,-571.6998 172.9202,-584.0023 175.2092,-595.5024 177.903,-607.7501 179.5973,-620.4679 181.9171,-630.9754 186.4063,-641.9113 L189.23,-648.79 " stroke-linecap="round" fill="none" stroke="#9398b0" stroke-width="20.27462309575697" stroke-dasharray="none" stroke-dashoffset="0"/></g></g><g transform="matrix(1, 0, 0, 1, 5108.6486, 12169.6149) scale(6.7582076985856565, 6.7582076985856565)" opacity="1"><g transform="scale(0.14796822539343943)"><path d="M 6.76 0 m -0.5, 0 a 0.5,0.5 0 1,0 1,0 a 0.5,0.5 0 1,0 -1,0" stroke-linecap="round" fill="#9398b0" stroke="#9398b0" stroke-width="20.27462309575697" stroke-dasharray="none" stroke-dashoffset="0"/></g></g><g transform="matrix(1, 0, 0, 1, 4628.8159, 12156.0985) scale(6.7582076985856565, 6.7582076985856565)" opacity="1"><g transform="scale(0.14796822539343943)"><path d="M 0 6.76 m -0.5, 0 a 0.5,0.5 0 1,0 1,0 a 0.5,0.5 0 1,0 -1,0" stroke-linecap="round" fill="#9398b0" stroke="#9398b0" stroke-width="20.27462309575697" stroke-dasharray="none" stroke-dashoffset="0"/></g></g><g transform="matrix(1, 0, 0, 1, 4946.4516, 12169.6149) scale(6.7582076985856565, 6.7582076985856565)" opacity="1"><g transform="scale(0.14796822539343943)"><path d="M 0 0 m -0.5, 0 a 0.5,0.5 0 1,0 1,0 a 0.5,0.5 0 1,0 -1,0" stroke-linecap="round" fill="#9398b0" stroke="#9398b0" stroke-width="20.27462309575697" stroke-dasharray="none" stroke-dashoffset="0"/></g></g><g transform="matrix(1, 0, 0, 1, 4473.3771, 11534.3434) scale(6.7582076985856565, 6.7582076985856565)" opacity="1"><g transform="scale(0.14796822539343943)"><path d="M0,-6.76 Q2.508,0.7639 3.2967,5.6362 T5.8356,16.0813 8.6865,27.6671 11.7319,39.9687 14.8995,53.9744 18.1459,69.0521 21.4419,83.55 24.7691,96.4311 28.1158,108.2934 31.4749,122.0229 36.0958,136.9286 40.2562,151.3183 44.1272,164.1296 47.816,175.9498 51.3883,188.3988 54.8875,202.4972 57.0884,217.6332 59.7268,230.9138 62.6404,244.2832 65.7269,260.2146 70.1764,276.5035 74.229,291.7633 78.0321,305.1218 81.6783,317.2862 85.2238,331.2057 88.7061,347.4831 92.1504,362.7374 95.5709,377.3465 97.7224,391.5497 100.3296,404.2454 103.2236,415.9911 106.2978,425.8853 109.4855,435.8706 111.4906,445.9134 114.0057,455.9903 116.8418,468.5968 118.6256,481.5422 121.0016,493.4449 123.7501,504.6918 126.7311,515.528 131.1122,526.1041 135.1219,536.5166 137.644,548.0819 140.4844,560.3706 143.5249,573.1142 145.4375,586.1459 146.6404,599.3569 147.3971,612.6806 148.1846,630.6974 L148.68,642.03 " stroke-linecap="round" fill="none" stroke="#9398b0" stroke-width="20.27462309575697" stroke-dasharray="none" stroke-dashoffset="0"/></g></g><g transform="matrix(1, 0, 0, 1, 4784.2547, 11514.0688) scale(6.7582076985856565, 6.7582076985856565)" opacity="1"><g transform="scale(0.14796822539343943)"><path d="M6.76,0 Q9.268,12.5361 10.0567,21.4928 T11.3416,38.5911 13.4019,55.614 15.95,72.5895 17.5527,88.283 19.8148,103.1683 22.4916,117.5452 24.1754,131.6041 25.2344,145.4613 27.1546,159.1915 29.6163,172.8438 31.1648,186.4451 32.1387,200.0144 32.7513,213.5654 34.3907,227.103 36.6758,240.6323 38.1131,254.1562 40.2712,267.6769 44.1366,279.9433 47.8219,290.1668 50.1399,301.6115 52.8501,313.8243 55.8069,326.522 57.6668,339.523 58.8366,352.7146 60.8264,368.5342 64.586,384.7528 69.4587,399.9702 75.0316,414.556 81.0431,427.4905 86.0764,438.1343 90.4963,447.3372 94.5305,455.632 98.3219,464.6094 103.2147,474.0182 108.8002,483.6983 113.5675,493.5471 117.8201,503.5021 121.7489,514.7797 125.4723,526.8874 129.0664,538.2632 131.3272,547.9266 134.0031,557.7668 136.9403,568.9703 140.0417,581.0314 143.2465,593.6338 145.2623,606.5747 147.7843,619.7286 150.6246,633.0165 153.6651,646.3886 158.0855,658.5617 162.1199,668.7264 166.3189,681.3806 L168.96,689.34 " stroke-linecap="round" fill="none" stroke="#9398b0" stroke-width="20.27462309575697" stroke-dasharray="none" stroke-dashoffset="0"/></g></g><g transform="matrix(1, 0, 0, 1, 5115.4068, 11534.3434) scale(6.7582076985856565, 6.7582076985856565)" opacity="1"><g transform="scale(0.14796822539343943)"><path d="M0,0 Q-5.0159,20.06 -6.5934,28.8749 T-10.4153,45.7425 -14.0714,61.3662 -17.6251,76.2076 -21.1143,90.5588 -24.563,104.5997 -29.2402,118.4456 -34.6901,135.9306 -39.3721,156.9586 -43.571,176.4533 -47.4662,194.9836 -51.1683,212.9071 -54.7491,229.1951 -58.2554,244.4561 -61.7148,259.0694 -65.1448,273.2752 -68.5562,287.2266 -70.702,301.0161 -73.3057,314.7037 -76.1974,328.3292 -78.0162,341.9136 -80.4143,355.4723 -83.1767,369.0148 -84.9142,382.5471 -87.2592,397.3288 -89.9863,412.8946 -92.9557,427.6995 -97.3314,442.0258 -101.3377,456.0512 -105.1116,469.889 -108.7394,484.8611 -111.0213,500.5466 -113.7105,514.1747 -116.6561,526.5068 -118.5088,540.5318 -119.6742,554.3694 -121.6612,566.8334 -125.4171,579.6873 -130.2857,592.7883 -135.856,606.0429 -140.6137,618.1401 -144.8603,629.5112 -148.7854,640.4237 -152.5082,649.7938 -154.8499,655.6876 -155.2121,659.7468 L-155.44,662.3 " stroke-linecap="round" fill="none" stroke="#9398b0" stroke-width="20.27462309575697" stroke-dasharray="none" stroke-dashoffset="0"/></g></g><g transform="matrix(1, 0, 0, 1, 5257.3292, 12169.6149) scale(6.7582076985856565, 6.7582076985856565)" opacity="1"><g transform="scale(0.14796822539343943)"><path d="M0,0 L20.27,6.76 " stroke-linecap="round" fill="none" stroke="#9398b0" stroke-width="20.27462309575697" stroke-dasharray="none" stroke-dashoffset="0"/></g></g><g transform="matrix(1, 0, 0, 1, 5101.8904, 11520.827) scale(6.7582076985856565, 6.7582076985856565)" opacity="1"><g transform="scale(0.14796822539343943)"><path d="M0,0 Q7.5202,22.5642 9.8853,30.9146 T13.738,48.2794 16.1614,65.4699 18.9397,82.5508 23.1952,102.0707 27.1258,121.8707 30.8522,139.339 34.4501,155.3406 37.9671,170.4215 41.4333,184.9215 44.8676,199.056 48.2817,214.2147 51.6813,231.2715 56.3257,248.2683 60.5011,263.9734 64.3813,277.6138 68.076,289.9556 71.6539,302.7326 75.1584,315.7834 78.6167,327.7543 82.046,339.0441 84.203,351.1594 86.8119,365.048 89.705,380.052 92.7787,394.5054 97.2201,408.6107 102.5216,422.497 107.1103,434.9934 111.2505,447.8677 115.1087,462.2337 118.7895,476.2858 122.3587,490.1386 124.6037,502.6122 127.268,514.2199 130.1959,525.2813 133.2916,534.745 136.4927,544.4597 138.5062,555.5861 139.7727,566.3447 141.8234,576.8719 144.3672,588.5095 145.9672,600.8436 148.2276,613.6158 150.9034,625.4114 153.8405,636.591 158.1958,647.383 162.1893,656.6792 166.3457,668.4292 L168.96,675.82 " stroke-linecap="round" fill="none" stroke="#9398b0" stroke-width="20.27462309575697" stroke-dasharray="none" stroke-dashoffset="0"/></g></g><g transform="matrix(1, 0, 0, 1, 4777.4964, 11520.827) scale(6.7582076985856565, 6.7582076985856565)" opacity="1"><g transform="scale(0.14796822539343943)"><path d="M0,6.76 Q-5.0159,29.3242 -6.5934,40.1826 T-10.4153,61.631 -15.3254,81.3901 -20.9218,100.0866 -26.9499,116.8608 -31.9955,132.4276 -36.4232,147.2333 -41.7162,160.3061 -47.5516,173.5448 -52.4742,186.8861 -56.8244,200.2917 -60.8148,213.7398 -64.5786,227.2128 -68.2001,240.7013 -70.478,254.1997 -73.1648,266.4502 -76.1088,277.9177 -79.2145,291.3989 -83.6741,307.4005 -88.9853,324.9876 -94.834,343.5719 -99.7668,362.7834 -102.8696,379.8815 -106.0752,394.3982 -109.3455,407.2911 -111.4025,419.1608 -113.9503,431.641 -116.8069,444.505 -119.8577,458.8646 -123.0306,474.1666 -125.0264,487.5517 -127.5338,499.731 -130.3631,512.4077 -133.3967,525.3954 -136.5589,538.5787 -138.5479,551.887 -141.0529,564.0179 -143.8826,575.4084 -145.6624,587.5889 -146.7819,600.2645 -148.7401,613.2516 -151.2258,626.4363 -154.0432,638.4896 -157.0694,648.5773 -160.2189,661.1511 L-162.2,669.06 " stroke-linecap="round" fill="none" stroke="#9398b0" stroke-width="20.27462309575697" stroke-dasharray="none" stroke-dashoffset="0"/></g></g><g transform="matrix(1, 0, 0, 1, 5446.559, 11541.1016) scale(6.7582076985856565, 6.7582076985856565)" opacity="1"><g transform="scale(0.14796822539343943)"><path d="M 0 0 m -0.5, 0 a 0.5,0.5 0 1,0 1,0 a 0.5,0.5 0 1,0 -1,0" stroke-linecap="round" fill="#9398b0" stroke="#9398b0" stroke-width="20.27462309575697" stroke-dasharray="none" stroke-dashoffset="0"/></g></g><g transform="matrix(1, 0, 0, 1, 5446.559, 11554.618) scale(6.7582076985856565, 6.7582076985856565)" opacity="1"><g transform="scale(0.14796822539343943)"><path d="M0,0 Q-2.508,15.0441 -3.2967,21.0294 T-5.8356,33.2856 -9.9386,46.0088 -13.7716,59.0276 -17.4365,70.9766 -22.2496,82.2525 -27.7851,96.8671 -33.7749,112.3278 -40.0504,125.8144 -45.2517,139.3135 -49.7754,152.8184 -53.8729,167.5811 -57.7043,183.1349 -61.3682,197.9323 -64.9267,211.0017 -68.4191,222.9825 -71.8697,234.2786 -75.2941,245.1457 -78.7021,255.743 -83.3518,267.4228 -88.7826,281.0375 -94.7065,293.363 -99.6866,306.1299 -102.8191,319.1743 -106.0434,331.1412 -109.3255,343.6824 -112.6439,356.5849 -115.9852,368.4625 -119.3408,379.6936 -123.9576,390.518 -128.1137,401.0886 -130.7279,412.7515 -133.6262,425.1015 -136.7032,437.8856 -139.8926,450.9409 -143.1527,464.1667 -146.4573,476.2477 -149.7899,487.6067 -151.8861,498.5116 -153.2046,507.8788 -155.2879,517.5326 -157.8523,528.619 -159.4653,539.3524 -161.7338,549.8656 -164.4148,561.4925 -166.101,572.566 -168.4138,583.2931 -171.1207,595.0563 -174.0773,607.4695 -177.191,620.2914 -179.1495,632.1184 -181.1879,646.5024 L-182.47,655.55 " stroke-linecap="round" fill="none" stroke="#9398b0" stroke-width="20.27462309575697" stroke-dasharray="none" stroke-dashoffset="0"/></g></g><g transform="matrix(1, 0, 0, 1, 2743.2759, 12176.3731) scale(6.7582076985856565, 6.7582076985856565)" opacity="1"><g transform="scale(0.14796822539343943)"><path d="M0,0 Q-7.5202,7.5202 -11.1392,11.1392 T-19.5427,17.0347 -28.5904,20.743 -35.5354,25.5834 -37.3958,31.136 -33.5501,34.6286 -26.1171,36.8254 -17.6816,38.2073 -8.6138,39.0764 2.104,39.6231 15.1135,39.967 29.5645,40.1833 43.6682,40.3193 58.8075,40.4049 74.5982,41.7127 89.5465,43.7893 102.7109,45.0955 114.7513,45.9171 127.3389,46.4338 140.2724,46.7589 152.1676,46.9634 162.1558,47.092 170.9464,45.9189 180.2375,43.927 189.8418,42.6741 199.6429,41.8861 209.5698,40.1364 220.8279,37.7819 232.9233,35.0469 244.2932,32.0726 255.2068,28.9478 268.6403,23.6207 L277.09,20.27 " stroke-linecap="round" fill="none" stroke="#9398b0" stroke-width="20.27462309575697" stroke-dasharray="none" stroke-dashoffset="0"/></g></g><g transform="matrix(1, 0, 0, 1, 3020.3624, 12176.3731) scale(6.7582076985856565, 6.7582076985856565)" opacity="1"><g transform="scale(0.14796822539343943)"><path d="M0,6.76 Q10.0281,14.2802 15.6899,16.6453 T27.421,21.752 38.5599,26.2181 48.0724,30.2812 59.0716,34.091 71.0042,36.4873 81.016,39.2485 92.3292,42.2393 105.7134,44.1205 117.892,46.5578 129.3144,49.3448 141.5149,51.0979 154.2032,52.2005 165.9441,52.8941 177.0912,54.5825 189.1167,56.8966 201.6948,58.3522 213.3684,59.2677 224.4712,59.8436 236.4689,60.2059 247.7774,60.4337 258.6505,60.577 270.5038,59.415 282.9754,57.432 294.582,56.1847 305.6426,54.1462 315.1059,50.356 322.3122,45.464 329.353,38.625 338.7557,27.3573 L344.67,20.27 " stroke-linecap="round" fill="none" stroke="#9398b0" stroke-width="20.27462309575697" stroke-dasharray="none" stroke-dashoffset="0"/></g></g><g transform="matrix(1, 0, 0, 1, 3365.031, 12210.1642) scale(6.7582076985856565, 6.7582076985856565)" opacity="1"><g transform="scale(0.14796822539343943)"><path d="M0,0 Q17.552,10.0281 26.8322,13.182 T45.7116,18.3196 63.8547,22.8051 80.2809,26.8805 95.6288,29.4439 109.0428,31.0563 121.2402,32.0705 133.9283,32.7084 146.9232,33.1097 158.8571,33.3621 170.1254,33.5208 182.2273,33.6207 196.1074,33.6835 211.1079,33.723 225.5573,32.4939 238.406,29.2128 250.2498,25.895 262.7136,22.556 274.3135,19.2037 285.3717,15.841 296.0892,11.218 305.3367,5.8021 313.6595,1.1416 324.3964,-3.709 L331.15,-6.76 " stroke-linecap="round" fill="none" stroke="#9398b0" stroke-width="20.27462309575697" stroke-dasharray="none" stroke-dashoffset="0"/></g></g><g transform="matrix(1, 0, 0, 1, 3702.9414, 12203.4059) scale(6.7582076985856565, 6.7582076985856565)" opacity="1"><g transform="scale(0.14796822539343943)"><path d="M0,0 Q7.5202,5.0159 11.1392,6.5934 T22.0506,10.4153 36.4359,14.0714 50.4983,16.3711 64.3577,17.8176 76.8353,18.7274 88.4456,19.2997 99.5105,19.6597 110.2303,19.8861 120.7332,20.0285 131.1015,20.1181 142.639,20.1745 154.9102,20.2099 166.3889,20.2322 176.1169,20.2462 185.9959,19.0029 197.2239,16.9688 209.3022,15.6893 220.6614,14.8845 230.3125,13.1243 238.8891,10.7631 248.0457,8.024 257.5671,3.7931 266.0623,-1.3761 273.9118,-7.1336 281.3571,-12.0072 291.1809,-17.0795 L297.36,-20.27 " stroke-linecap="round" fill="none" stroke="#9398b0" stroke-width="20.27462309575697" stroke-dasharray="none" stroke-dashoffset="0"/></g></g><g transform="matrix(1, 0, 0, 1, 3986.7861, 12210.1642) scale(6.7582076985856565, 6.7582076985856565)" opacity="1"><g transform="scale(0.14796822539343943)"><path d="M0,0 Q12.5361,2.508 17.7327,3.2967 T29.958,5.8356 46.4237,9.9386 63.0487,13.7716 78.5199,16.1825 94.5212,17.699 110.854,18.6528 127.3954,19.2528 141.5619,19.6302 154.2327,19.8675 167.2167,18.7647 180.3977,16.8189 192.4486,15.595 202.5366,13.5712 212.6439,11.0443 222.7633,9.4548 232.8885,7.201 243.0174,4.5295 253.1504,1.595 263.2841,-1.5047 272.1643,-4.7084 281.5119,-7.9775 291.1535,-11.2859 299.726,-14.619 310.7229,-18.088 L317.64,-20.27 " stroke-linecap="round" fill="none" stroke="#9398b0" stroke-width="20.27462309575697" stroke-dasharray="none" stroke-dashoffset="0"/></g></g><g transform="matrix(1, 0, 0, 1, 4304.4219, 12189.8895) scale(6.7582076985856565, 6.7582076985856565)" opacity="1"><g transform="scale(0.14796822539343943)"><path d="M0,6.76 Q22.5642,11.7722 33.4226,14.6025 T54.871,19.2131 73.3761,22.1132 90.0317,23.9373 105.5222,25.0847 120.2798,25.8064 134.5782,26.2604 148.586,26.5459 162.4109,26.7255 176.1209,26.8385 191.0125,26.9095 204.1413,25.7002 214.9072,23.6856 225.4391,22.4184 235.8237,20.3692 246.1176,16.5742 257.6065,12.9331 268.5931,9.3889 278.0116,4.6516 287.6978,0.4179 297.5524,-3.4991 309.8836,-9.6507 L317.64,-13.52 " stroke-linecap="round" fill="none" stroke="#9398b0" stroke-width="20.27462309575697" stroke-dasharray="none" stroke-dashoffset="0"/></g></g><g transform="matrix(1, 0, 0, 1, 4608.5413, 12196.6477) scale(6.7582076985856565, 6.7582076985856565)" opacity="1"><g transform="scale(0.14796822539343943)"><path d="M0,6.76 Q12.5361,9.268 20.2406,11.3088 T34.0435,14.6334 47.7395,16.7246 63.8763,18.0399 79.0405,18.8673 92.3406,19.3877 105.7205,19.715 119.1505,19.9209 131.3599,20.0504 144.0537,20.1319 158.3062,20.1831 171.0329,18.9632 184.0521,16.9438 197.2552,15.6736 209.3219,14.8746 221.9259,13.1181 234.8679,10.7592 248.0243,8.0215 260.0598,5.0455 271.3902,1.9197 283.533,-2.5545 294.9327,-7.8748 305.8632,-12.4734 315.2446,-16.6199 325.0085,-23.0104 L331.15,-27.03 " stroke-linecap="round" fill="none" stroke="#9398b0" stroke-width="20.27462309575697" stroke-dasharray="none" stroke-dashoffset="0"/></g></g><g transform="matrix(1, 0, 0, 1, 4926.177, 12196.6477) scale(6.7582076985856565, 6.7582076985856565)" opacity="1"><g transform="scale(0.14796822539343943)"><path d="M0,6.76 Q10.0281,11.7722 15.6899,13.3486 T29.9271,15.9164 46.4043,18.7856 63.0365,21.8443 81.0202,23.7682 98.5999,24.9783 115.9257,25.7395 134.3456,26.2183 152.1997,26.5194 168.4459,26.7088 183.6788,26.828 197.0204,26.9029 210.4282,26.9501 223.8758,26.9797 237.3483,25.7444 250.8385,23.7134 261.8299,21.1838 272.5036,18.3405 284.2333,15.2981 295.3732,12.1305 304.8863,8.8841 316.8591,3.4304 L324.39,0 " stroke-linecap="round" fill="none" stroke="#9398b0" stroke-width="20.27462309575697" stroke-dasharray="none" stroke-dashoffset="0"/></g></g><g transform="matrix(1, 0, 0, 1, 2878.4401, 11541.1016) scale(6.7582076985856565, 6.7582076985856565)" opacity="1"><g transform="scale(0.14796822539343943)"><path d="M0,0 Q10.0281,-2.508 15.6899,-4.5507 T26.167,-7.8783 35.265,-11.2235 46.0018,-14.5798 59.0232,-16.6908 72.2278,-19.2727 85.5475,-22.1506 97.6875,-23.9609 109.0837,-25.0995 120.012,-25.8157 130.6478,-27.5202 142.3537,-29.8463 154.7307,-31.3094 167.53,-32.2297 179.3426,-32.8086 190.5329,-34.4267 202.5856,-36.6984 215.1827,-38.1274 226.8663,-39.0262 237.9754,-39.5915 248.725,-39.9471 259.2466,-38.9168 274.3438,-35.7696 L283.84,-33.79 " stroke-linecap="round" fill="none" stroke="#9398b0" stroke-width="20.27462309575697" stroke-dasharray="none" stroke-dashoffset="0"/></g></g><g transform="matrix(1, 0, 0, 1, 3182.5594, 11514.0688) scale(6.7582076985856565, 6.7582076985856565)" opacity="1"><g transform="scale(0.14796822539343943)"><path d="M6.76,0 Q19.2961,-2.508 25.7467,-4.5507 T37.5067,-7.8783 48.6639,-9.9714 60.6977,-11.2879 73.281,-12.116 84.956,-12.6369 96.0615,-12.9645 108.061,-13.1706 120.6227,-13.3002 132.2859,-14.6339 143.384,-16.7249 155.3788,-18.0401 166.6836,-20.1214 177.5563,-22.6845 189.4093,-24.2967 201.8788,-25.3107 213.4842,-25.9486 224.544,-26.3498 236.5147,-26.6021 249.0602,-26.7609 260.7114,-25.6067 271.8,-23.6268 283.7907,-21.1293 296.347,-17.0523 313.5618,-10.7341 L324.39,-6.76 " stroke-linecap="round" fill="none" stroke="#9398b0" stroke-width="20.27462309575697" stroke-dasharray="none" stroke-dashoffset="0"/></g></g><g transform="matrix(1, 0, 0, 1, 3506.9534, 11507.3106) scale(6.7582076985856565, 6.7582076985856565)" opacity="1"><g transform="scale(0.14796822539343943)"><path d="M6.76,0 Q24.312,-2.508 31.0842,-3.2967 T45.8781,-4.5816 60.1994,-5.3898 72.9676,-5.8981 86.0129,-7.4719 97.9803,-9.7157 109.2678,-11.1271 121.3818,-12.0149 134.0174,-12.5733 145.7271,-12.9245 155.5986,-13.1454 164.3139,-14.5365 173.5578,-16.6636 184.3862,-18.0016 194.9574,-18.8432 204.1147,-20.6265 212.3825,-23.0022 221.3449,-24.4965 230.7424,-25.4364 239.1595,-24.7737 246.9618,-23.1028 254.3774,-20.7997 261.5498,-18.0989 268.5673,-16.4002 276.7415,-14.0776 285.6449,-11.3628 293.7532,-8.4012 301.3612,-5.2843 309.9067,-2.0699 322.9474,3.3506 L331.15,6.76 " stroke-linecap="round" fill="none" stroke="#9398b0" stroke-width="20.27462309575697" stroke-dasharray="none" stroke-dashoffset="0"/></g></g><g transform="matrix(1, 0, 0, 1, 3844.8638, 11507.3106) scale(6.7582076985856565, 6.7582076985856565)" opacity="1"><g transform="scale(0.14796822539343943)"><path d="M-6.76,0 Q5.7761,-2.508 12.2267,-3.2967 T23.9886,-5.8356 36.4009,-8.6865 50.4763,-10.4797 63.0917,-11.6077 76.0408,-12.3171 90.4539,-12.7634 104.5337,-13.0441 117.1501,-13.2207 130.1016,-13.3317 144.5162,-14.6537 158.5971,-16.7373 172.4699,-18.048 184.9559,-18.8723 196.5697,-19.3909 208.8907,-19.717 221.6547,-19.9222 233.4433,-20.0512 243.3664,-18.8803 252.1159,-15.6376 260.1273,-11.09 268.9266,-5.7217 278.2214,-1.091 289.9701,3.7285 L297.36,6.76 " stroke-linecap="round" fill="none" stroke="#9398b0" stroke-width="20.27462309575697" stroke-dasharray="none" stroke-dashoffset="0"/></g></g><g transform="matrix(1, 0, 0, 1, 4169.2578, 11534.3434) scale(6.7582076985856565, 6.7582076985856565)" opacity="1"><g transform="scale(0.14796822539343943)"><path d="M0,0 Q17.552,-7.5202 25.5782,-9.8853 T41.1609,-13.738 54.7243,-17.4154 68.2698,-20.9824 84.3119,-23.2261 100.6704,-24.6373 117.228,-25.525 133.9126,-26.0834 148.1673,-26.4346 160.8936,-27.9094 173.9144,-30.0911 187.1185,-31.4634 200.438,-32.3266 212.5778,-32.8695 223.9739,-33.211 234.9021,-33.4258 245.5379,-32.3069 255.9897,-29.0952 265.0701,-25.8211 274.5417,-22.5095 288.5492,-16.9911 L297.36,-13.52 " stroke-linecap="round" fill="none" stroke="#9398b0" stroke-width="20.27462309575697" stroke-dasharray="none" stroke-dashoffset="0"/></g></g><g transform="matrix(1, 0, 0, 1, 4466.6189, 11514.0688) scale(6.7582076985856565, 6.7582076985856565)" opacity="1"><g transform="scale(0.14796822539343943)"><path d="M0,0 Q12.5361,-5.0159 20.2406,-7.8456 T34.0435,-12.455 45.2315,-16.6084 57.2848,-20.4748 71.1343,-22.9068 86.1137,-24.4365 101.8038,-25.3987 115.4329,-26.0039 129.0216,-26.3846 143.8369,-26.624 158.1698,-26.7746 170.9471,-26.8694 182.7441,-26.929 193.9245,-26.9665 204.7189,-26.99 216.5246,-27.0049 228.9644,-27.0142 240.5491,-25.7661 250.3438,-23.727 260.2648,-21.1923 270.2652,-17.0919 280.3174,-13.2588 290.4021,-10.8477 302.9729,-8.3384 L310.88,-6.76 " stroke-linecap="round" fill="none" stroke="#9398b0" stroke-width="20.27462309575697" stroke-dasharray="none" stroke-dashoffset="0"/></g></g><g transform="matrix(1, 0, 0, 1, 4784.2547, 11527.5852) scale(6.7582076985856565, 6.7582076985856565)" opacity="1"><g transform="scale(0.14796822539343943)"><path d="M6.76,0 Q26.8163,-7.5202 34.3779,-9.8853 T50.4578,-14.992 65.5862,-19.4581 80.1159,-22.2673 95.5251,-24.0342 108.9775,-25.1457 122.4532,-25.8448 137.1992,-26.2845 151.4886,-26.5611 165.4906,-26.735 178.0599,-26.8445 189.726,-26.9133 202.0781,-26.9566 214.8635,-26.9838 227.9195,-25.747 239.8919,-23.715 251.1844,-22.4369 263.3015,-20.3809 274.6832,-16.5815 288.6039,-10.5523 L297.36,-6.76 " stroke-linecap="round" fill="none" stroke="#9398b0" stroke-width="20.27462309575697" stroke-dasharray="none" stroke-dashoffset="0"/></g></g><g transform="matrix(1, 0, 0, 1, 5095.1322, 11520.827) scale(6.7582076985856565, 6.7582076985856565)" opacity="1"><g transform="scale(0.14796822539343943)"><path d="M0,6.76 Q10.0281,1.7441 14.436,-1.0874 T24.1243,-5.6999 35.2323,-9.8533 47.2333,-13.7179 61.05,-16.1487 76.0087,-18.9317 91.6876,-21.9362 109.0717,-23.826 127.5283,-25.0147 145.4056,-25.7624 161.6644,-26.2327 176.9053,-26.5285 190.2519,-26.7145 203.6629,-26.8316 217.1143,-26.9052 229.3353,-26.9515 242.0364,-25.7266 253.7873,-23.7022 264.9387,-22.4289 276.967,-20.3758 288.2947,-16.5783 297.9279,-12.9357 307.7472,-9.3906 317.6836,-5.9067 326.4416,-3.7153 337.6315,-1.4346 L344.67,0 " stroke-linecap="round" fill="none" stroke="#9398b0" stroke-width="20.27462309575697" stroke-dasharray="none" stroke-dashoffset="0"/></g></g><g transform="matrix(1, 0, 0, 1, 2871.6819, 11581.6508) scale(6.7582076985856565, 6.7582076985856565)" opacity="1"><g transform="scale(0.14796822539343943)"><path d="M-6.76,0 Q5.7761,-2.508 12.2267,-3.2967 T23.9886,-4.5816 35.1469,-5.3898 47.1796,-5.8981 61.0162,-6.2179 75.9875,-6.419 90.4203,-6.5455 103.2605,-6.6251 115.0971,-6.6751 126.3024,-6.7066 137.1124,-7.9804 148.926,-10.0356 161.3708,-11.3283 171.7066,-13.3936 180.7157,-15.9447 190.1426,-17.5494 199.8321,-18.5587 209.6888,-19.1936 218.3966,-20.8469 227.6339,-23.1409 237.2043,-24.5837 246.986,-25.4913 258.1527,-26.0622 268.9367,-27.6752 279.4817,-29.9438 291.1305,-31.3707 303.4716,-32.2683 314.9943,-32.8328 326.004,-33.1879 337.9431,-33.4113 349.213,-33.5518 360.0636,-34.8942 371.9027,-36.9925 384.3636,-38.3123 398.4714,-39.1425 412.3593,-39.6647 423.6008,-38.7392 435.6877,-36.903 448.3044,-35.7481 461.2544,-33.7677 476.9219,-31.268 493.0449,-29.6957 506.9482,-27.4527 519.4534,-24.7879 531.0793,-23.1118 543.4079,-22.0575 558.6846,-21.3943 574.5617,-20.9772 589.5643,-20.7148 602.761,-20.5498 614.8219,-20.446 627.424,-20.3807 640.3649,-20.3396 652.2647,-20.3138 663.5117,-20.2975 674.348,-20.2873 683.6701,-19.0288 693.2938,-16.985 703.1091,-15.6995 713.0429,-14.8909 724.3054,-14.3823 735.1514,-14.0624 745.7355,-13.8612 757.407,-13.7346 769.7624,-13.655 781.2959,-14.857 792.3106,-16.8652 804.2528,-18.1284 818.0326,-18.9229 832.9681,-19.4227 848.6324,-19.737 864.7533,-19.9348 879.9074,-20.0591 894.4534,-20.1374 909.8709,-20.1866 927.0905,-20.2175 945.4437,-20.237 963.2559,-20.2492 980.7278,-20.2569 996.7336,-20.2618 1009.3091,-21.5188 1022.2332,-23.5635 1036.6306,-24.8495 1050.7005,-25.6585 1064.5646,-26.1673 1078.301,-26.4874 1090.7013,-26.6887 1102.2612,-26.8153 1114.5483,-26.895 1126.0388,-26.9451 1137.0264,-28.2306 1148.9517,-30.2931 1160.2146,-31.5905 1171.0591,-32.4065 1181.6403,-34.1737 1190.8039,-36.5393 1200.3297,-38.0273 1211.3356,-38.9632 1222.0183,-39.5519 1232.4997,-39.9222 1242.8526,-40.1551 1253.1246,-41.5556 1264.6016,-43.6905 1276.8348,-45.0333 1288.2895,-45.878 1298.0024,-46.4093 1309.1278,-46.7434 1321.1398,-46.9536 1333.7093,-47.0858 1346.6315,-47.169 1358.5196,-47.2213 1369.7574,-47.2542 1380.5878,-47.2749 1391.1621,-47.2879 1401.5735,-46.0421 1413.1362,-44.0046 1425.4233,-42.7229 1436.9119,-40.6628 1447.9002,-38.113 1461.0799,-36.5092 1474.384,-35.5003 1487.7682,-34.8658 1501.2009,-34.4667 1514.6642,-34.2156 1529.4025,-32.8037 1542.4329,-30.6617 1554.3892,-29.3143 1565.6716,-28.4668 1576.5302,-27.9338 1588.3743,-27.5985 1600.8383,-27.3876 1613.6922,-27.2549 1628.0454,-27.1715 1642.0894,-27.119 1655.9372,-27.086 1669.6615,-27.0652 1682.0561,-27.0521 1693.6123,-27.0439 1704.6413,-25.7848 1716.5944,-23.7388 1729.127,-22.4519 1740.7701,-21.6424 1753.1095,-21.1332 1765.8869,-20.813 1777.684,-20.6115 1790.1185,-20.4848 1801.7016,-20.4051 1812.7476,-20.355 1824.7095,-20.3235 1835.9955,-20.3036 1846.8545,-20.2912 1857.4449,-20.2833 1869.1221,-20.2784 1881.4812,-20.2753 1893.0152,-20.2733 1905.2859,-20.2721 1919.2723,-20.2713 1935.5917,-20.2708 1950.8707,-20.2705 1965.4953,-20.2703 1979.71,-20.2702 1993.6652,-20.2701 2007.457,-20.2701 2019.8941,-20.2701 2032.731,-20.27 2047.0735,-20.27 2062.363,-20.27 2075.7401,-20.27 2087.9163,-20.27 2099.3371,-20.27 2109.0287,-19.0179 2118.8848,-16.9782 2128.8444,-15.6952 2140.123,-14.8882 2154.7393,-14.3806 2170.2028,-14.0613 2186.1974,-13.8605 2202.5261,-13.7342 2219.0649,-13.6547 2235.7358,-13.6047 2251.2359,-13.5733 2265.9995,-13.5535 2279.0478,-13.5411 2288.5091,-14.7854 2296.9682,-16.8202 2307.3031,-18.1001 2317.5638,-18.9051 2327.7797,-19.4115 2339.2196,-19.73 2350.1754,-19.9303 2360.8285,-20.0564 2372.5434,-20.1356 2383.6721,-20.1855 2393.1801,-20.2168 2404.1746,-20.2366 2417.3583,-20.249 2430.6667,-21.5107 2442.7996,-23.5584 2454.1913,-24.8464 2466.3708,-25.6565 2477.7936,-26.1661 2488.7386,-26.4866 2500.6371,-26.6882 2511.8832,-26.815 2522.7171,-26.8948 2532.0377,-28.1989 2541.7383,-31.6311 L2547.84,-33.79 " stroke-linecap="round" fill="none" stroke="#ffc034" stroke-width="20.27462309575697" stroke-dasharray="none" stroke-dashoffset="0"/></g></g><g transform="matrix(1, 0, 0, 1, 2689.2103, 12189.8895) scale(6.7582076985856565, 6.7582076985856565)" opacity="1"><g transform="scale(0.14796822539343943)"><path d="M6.76,0 Q24.312,0 31.0842,0 T45.8781,0 61.4516,0 77.5153,0 95.1414,0 112.4963,0 127.1744,0 141.421,0 155.3962,0 166.6946,0 178.8153,0 192.7073,0 205.2073,0 216.8317,0 229.1576,0 240.6706,0 250.4203,0 261.5669,0 274.8461,0 286.9607,0 298.3409,0 310.5131,0 321.9313,0 332.8753,0 344.7732,0 358.525,0 373.4429,0 387.8403,0 400.6583,0 412.4808,-1.254 424.9313,-3.2967 437.7785,-4.5816 449.6195,-5.3898 460.8276,-5.8981 472.8934,-6.2179 485.4969,-6.419 497.1845,-6.5455 507.044,-6.6251 515.7536,-7.9291 524.992,-10.0033 535.8171,-11.308 546.3879,-12.1287 556.799,-12.6448 568.3616,-12.9695 579.3945,-14.4259 590.0962,-16.594 601.8416,-17.9578 614.2435,-18.8156 625.8063,-19.3552 636.8394,-19.6946 648.7932,-19.9081 660.0741,-20.0423 670.9318,-20.1268 682.7753,-20.1799 695.2389,-20.2133 706.8405,-20.2344 717.898,-20.2476 728.6132,-20.2559 739.115,-20.2611 750.7347,-21.5184 761.8036,-23.5632 773.7819,-24.8494 786.3302,-25.6584 797.9833,-26.1673 809.075,-26.4873 821.0657,-26.6887 833.6219,-26.8153 845.2817,-26.895 856.3777,-26.9451 867.1172,-26.9766 878.8863,-26.9964 890.0511,-27.0089 900.8338,-27.0167 912.6302,-27.0216 925.066,-27.0247 936.6501,-27.0267 948.9506,-27.0279 964.2077,-27.0287 978.8186,-27.0292 993.0247,-27.0295 1006.9763,-27.0297 1018.2579,-27.0298 1030.3681,-27.0299 1043.0014,-27.0299 1054.7078,-27.0299 1067.0852,-27.03 1079.8865,-27.03 1091.6986,-27.03 1102.8885,-27.03 1113.6888,-27.03 1124.2442,-27.03 1135.8976,-27.03 1146.9877,-27.03 1157.7253,-25.776 1169.4933,-23.7333 1180.6555,-22.4484 1191.4384,-21.6402 1203.2349,-21.1319 1216.923,-20.8121 1231.8008,-20.611 1244.9191,-20.4845 1258.1864,-20.4049 1274.0535,-19.1027 1289.048,-17.0315 1302.2415,-15.7288 1314.3022,-14.9093 1326.9024,-14.3939 1342.3481,-14.0697 1357.0775,-13.8657 1371.3582,-13.7375 1385.3567,-13.6568 1397.9218,-13.606 1410.8394,-13.5741 1425.2326,-13.554 1440.5539,-12.2874 1456.4591,-10.2368 1473.9855,-8.9469 1490.0255,-8.1355 1502.6207,-7.6252 1515.5572,-7.3042 1528.7102,-7.1023 1541.9975,-6.9753 1556.6232,-6.8954 1570.8388,-6.8452 1583.5404,-6.8136 1595.2898,-6.7937 1607.6961,-6.7812 1619.2598,-6.7733 1631.5474,-6.7684 1644.2922,-6.7653 1656.0688,-6.7633 1668.4903,-6.7621 1680.0654,-6.7613 1691.1062,-6.7608 1703.0649,-8.0145 1715.6029,-10.057 1727.2512,-11.3418 1738.3381,-12.1499 1750.3258,-12.6582 1761.628,-12.9779 1772.4972,-13.179 1784.348,-13.3055 1796.818,-13.3851 1808.4218,-13.4351 1819.4806,-13.4666 1831.4526,-13.4864 1843.997,-13.4989 1855.6475,-13.5067 1866.7376,-13.5116 1878.7274,-13.5147 1892.537,-13.5167 1907.4931,-13.5179 1921.9146,-13.5187 1935.9997,-13.5192 1948.6213,-13.5195 1959.0663,-13.5197 1970.6503,-13.5198 1982.9525,-13.5199 1993.1986,-14.772 2004.6575,-16.8118 2016.8791,-18.0948 2027.0745,-18.9018 2038.5015,-19.4094 2051.9571,-19.7287 2064.1826,-19.9295 2075.6326,-20.0558 2086.5947,-20.1353 2097.2518,-21.4392 2108.9691,-23.5134 2121.3534,-24.8181 2134.1591,-25.6387 2148.4819,-26.1549 2163.759,-26.4795 2178.3823,-27.9377 2192.5945,-30.1089 2205.2958,-31.4746 2215.793,-32.3336 2227.4097,-32.8739 2239.7307,-33.2138 2252.4947,-33.4276 2265.5373,-33.562 2278.7571,-33.6466 2293.3403,-33.6998 2306.2732,-33.7333 2318.17,-33.7543 2330.6671,-32.5136 2342.2879,-30.4792 2354.6133,-29.1995 2367.3819,-28.3946 2377.9195,-27.8884 2388.3077,-27.5699 2399.8578,-26.1156 2412.1368,-23.9469 2424.8744,-22.5828 2437.9023,-21.7247 2451.1109,-21.185 2463.1792,-20.8456 2474.5321,-20.632 2486.6871,-20.4977 2498.0927,-20.4132 2509.0288,-20.3601 2520.9217,-20.3267 2532.1623,-20.3056 2542.9947,-20.2924 2554.8241,-20.2841 2566.0249,-20.2789 2576.8303,-20.2756 2586.1349,-20.2735 2590.7335,-20.2722 2593.4447,-20.2709 L2595.15,-20.27 " stroke-linecap="round" fill="none" stroke="#ffc034" stroke-width="20.27462309575697" stroke-dasharray="none" stroke-dashoffset="0"/></g></g><g transform="matrix(1, 0, 0, 1, 2918.9893, 11557.9971) scale(6.7582076985856565, 6.7582076985856565)" opacity="1"><g transform="scale(0.14796822539343943)"><path d="M6.76,0 Q21.8041,-2.508 32.8034,-5.8028 T53.2276,-11.1701 72.3424,-15.8002 89.3815,-19.9664 102.6071,-22.587 110.926,-24.2354 112.3966,-24.0182 108.3058,-21.3755 100.7185,-17.2071 94.694,-12.0773 93.4107,-8.8506 96.3636,-8.075 103.2369,-8.8411 112.5743,-10.577 123.4615,-12.921 136.5795,-15.6475 149.8448,-17.3624 158.1887,-17.189 164.8009,-14.9367 L168.96,-13.52 " stroke-linecap="round" fill="none" stroke="#e03131" stroke-width="20.27462309575697" stroke-dasharray="none" stroke-dashoffset="0"/></g></g><g transform="matrix(1, 0, 0, 1, 3263.6579, 11503.9315) scale(6.7582076985856565, 6.7582076985856565)" opacity="1"><g transform="scale(0.14796822539343943)"><path d="M0,0 Q-7.5202,5.0159 -7.3792,6.5934 T-3.3875,9.1632 5.3913,10.7796 15.9272,11.7963 27.5702,12.4358 39.9077,11.584 51.4281,11.0483 58.6745,11.9653 59.4723,13.7942 54.9601,17.4507 50.8679,22.2586 50.8019,26.5368 54.5205,29.2277 63.1275,30.9203 76.0633,30.731 91.722,29.3579 107.8394,27.2403 124.2452,24.6543 147.5447,21.9629 L162.2,20.27 " stroke-linecap="round" fill="none" stroke="#e03131" stroke-width="20.27462309575697" stroke-dasharray="none" stroke-dashoffset="0"/></g></g><g transform="matrix(1, 0, 0, 1, 3608.3265, 11524.2061) scale(6.7582076985856565, 6.7582076985856565)" opacity="1"><g transform="scale(0.14796822539343943)"><path d="M0,0 Q-5.0159,7.5202 -4.0855,8.6331 T1.1903,10.4462 10.7768,10.3326 26.8368,7.7532 45.7144,4.8767 57.5885,3.0675 62.5493,3.1834 63.1617,5.7643 61.0408,9.8938 57.2007,16.2513 56.0373,21.5042 61.5736,22.3003 72.578,20.2949 87.0218,16.5274 102.375,12.9037 115.7922,9.3704 127.9936,5.894 144.8422,2.2758 L155.44,0 " stroke-linecap="round" fill="none" stroke="#e03131" stroke-width="20.27462309575697" stroke-dasharray="none" stroke-dashoffset="0"/></g></g><g transform="matrix(1, 0, 0, 1, 3912.4459, 11537.7225) scale(6.7582076985856565, 6.7582076985856565)" opacity="1"><g transform="scale(0.14796822539343943)"><path d="M0,0 Q15.0441,-2.508 22.2834,-4.5507 T37.8363,-9.1304 53.8871,-13.2632 68.9972,-17.1167 82.2615,-19.5406 90.6047,-19.8112 92.0925,-18.7293 88.0143,-15.5427 81.6872,-11.0303 78.9614,-6.9381 82.2609,-4.364 90.6044,-2.745 102.1223,-2.9806 114.3811,-5.6367 127.106,-8.5614 140.1259,-10.4011 152.0755,-12.8103 166.5841,-17.3896 L175.71,-20.27 " stroke-linecap="round" fill="none" stroke="#e03131" stroke-width="20.27462309575697" stroke-dasharray="none" stroke-dashoffset="0"/></g></g><g transform="matrix(1, 0, 0, 1, 4324.6965, 11524.2061) scale(6.7582076985856565, 6.7582076985856565)" opacity="1"><g transform="scale(0.14796822539343943)"><path d="M-6.76,0 Q5.7761,0 12.2267,-1.254 T23.9886,-2.0427 33.8948,-0.0309 46.2798,4.1379 L54.07,6.76 " stroke-linecap="round" fill="none" stroke="#e03131" stroke-width="20.27462309575697" stroke-dasharray="none" stroke-dashoffset="0"/></g></g><g transform="matrix(1, 0, 0, 1, 4561.2338, 11537.7225) scale(6.7582076985856565, 6.7582076985856565)" opacity="1"><g transform="scale(0.14796822539343943)"><path d="M0,0 Q15.0441,-2.508 22.2834,-4.5507 T31.5682,-5.3703 33.6465,-3.3779 36.2077,-2.1247 42.8328,-2.5904 53.268,-4.1373 66.0998,-6.3643 80.439,-9.0191 94.4743,-9.4349 107.0626,-8.4425 124.3108,-7.4097 L135.16,-6.76 " stroke-linecap="round" fill="none" stroke="#e03131" stroke-width="20.27462309575697" stroke-dasharray="none" stroke-dashoffset="0"/></g></g><g transform="matrix(1, 0, 0, 1, 4926.177, 11517.4479) scale(6.7582076985856565, 6.7582076985856565)" opacity="1"><g transform="scale(0.14796822539343943)"><path d="M0,0 Q-12.5361,10.0281 -17.7327,13.182 T-26.1979,19.5736 -30.2685,23.5939 -29.067,23.6147 -20.7893,21.1217 -5.5544,17.0475 12.8043,11.9768 29.366,7.5334 38.5293,5.9925 40.533,7.5312 39.2853,11.0052 35.9926,15.6964 32.6675,21.1552 29.322,27.0967 28.4717,32.0879 32.9527,35.2273 40.7854,37.202 50.7262,37.1901 61.9949,35.9287 75.3509,35.1352 95.4731,34.3094 L108.13,33.79 " stroke-linecap="round" fill="none" stroke="#e03131" stroke-width="20.27462309575697" stroke-dasharray="none" stroke-dashoffset="0"/></g></g><g transform="matrix(1, 0, 0, 1, 5176.2307, 11537.7225) scale(6.7582076985856565, 6.7582076985856565)" opacity="1"><g transform="scale(0.14796822539343943)"><path d="M0,0 Q-5.0159,5.0159 -5.3394,5.3394 T-3.3585,4.6125 2.9016,1.6473 13.1072,-1.4718 25.7964,-4.6877 41.3,-9.2166 54.8118,-12.0653 60.8028,-11.351 59.5571,-8.3938 53.7594,-4.0257 48.8587,1.2298 48.2841,5.7894 51.6828,8.6575 57.5807,10.4615 66.3063,10.3422 78.0628,9.0132 92.9797,6.9233 108.6304,3.1008 123.4888,-1.8116 139.1028,-7.4075 153.938,-12.1795 171.4531,-17.146 L182.47,-20.27 " stroke-linecap="round" fill="none" stroke="#e03131" stroke-width="20.27462309575697" stroke-dasharray="none" stroke-dashoffset="0"/></g></g><g transform="matrix(1, 0, 0, 1, 2878.4401, 11605.3046) scale(6.7582076985856565, 6.7582076985856565)" opacity="1"><g transform="scale(0.14796822539343943)"><path d="M0,0 Q0,12.5361 0,20.2406 T-1.254,34.0435 -3.2967,47.7395 -4.5816,62.6223 -5.3898,76.9977 -5.8981,92.3097 -6.2179,106.9551 -6.419,121.181 -6.5455,136.3991 -6.6251,150.9853 -6.6751,165.1741 -6.7066,179.1129 -6.7264,192.8945 -6.7389,206.579 -6.7467,220.2006 -8.0056,232.5287 -10.0515,244.045 -11.3383,256.3029 -12.1477,269.0271 -12.6568,282.0466 -12.9771,295.2499 -14.4306,308.5688 -16.597,321.9624 -17.9597,335.401 -18.8168,348.8679 -19.356,361.1006 -19.6951,372.555 -19.9084,384.7739 -20.0425,397.4755 -21.3809,409.2267 -23.4767,420.3783 -24.795,432.4068 -25.6242,444.9867 -26.1457,457.9136 -26.4738,471.0605 -26.6801,484.344 -26.8099,497.7133 -26.8916,511.1386 -26.9429,524.5971 -26.9752,538.0766 -26.9956,550.3172 -25.7544,561.7766 -23.7197,573.9986 -21.602,590.8687 L-20.27,601.48 " stroke-linecap="round" fill="none" stroke="#40c057" stroke-width="20.27462309575697" stroke-dasharray="none" stroke-dashoffset="0"/></g></g></svg>