<svg xmlns="http://www.w3.org/2000/svg" direction="ltr" width="368.0300000000002" height="329.0099999999984" viewBox="2962.9581633036937 28484.123222818573 368.0300000000002 329.0099999999984" stroke-linecap="round" stroke-linejoin="round" style="background-color: transparent;"><defs/><g transform="matrix(1, 0, 0, 1, 3159.98, 28516.1232)" opacity="1"><g transform="scale(1)"><path d="M1.9894,0 T1.9851,4.2286 1.9834,11.0712 1.9881,16.7605 1.991,22.4097 1.6474,27.2144 1.2599,31.7271 1.2132,36.4262 1.2118,41.2777 1.2162,46.15 1.2198,51.034 0.8713,55.9802 0.474,61.2079 0.4198,66.0692 0.1939,70.8329 -0.1807,75.5129 -0.3609,80.3166 -0.3926,85.7111 -0.4041,91.3605 -0.1242,97.1408 0.2441,102.0839 0.3531,106.8748 0.3809,111.961 0.3822,116.8625 0.729,121.9769 1.1294,127.2424 1.1886,132.289 1.4811,137.0696 1.87,141.9318 1.9869,146.9264 2.3465,152.1081 2.745,157.3794 2.977,162.4623 3.3316,167.1577 3.5485,171.3762 3.597,175.7286 3.6006,180.0344 3.588,184.3763 3.5707,189.1746 3.5563,193.9912 3.5452,198.5682 3.5364,203.0006 3.5295,207.2207 3.2195,211.5868 2.8211,215.9422 2.7137,220.2188 2.6939,225.1066 2.6886,229.9392 2.6862,234.1703 2.6844,238.4138 2.6829,242.9375 2.6815,248.004 2.6804,252.9621 2.6729,257.749 2.6316,262.6766 2.5975,265.01 A1.7875,1.7875 0 0 1 -0.9775,265.01 T-0.9946,263.7803 -1.0326,260.4475 -1.0568,255.9755 -1.0608,251.2677 -1.062,246.235 -1.0634,241.3645 -1.0648,237.1606 -1.0667,232.7567 -1.0683,228.375 -1.0669,223.5761 -1.0388,218.5967 -0.8017,214.0335 -0.4299,209.4991 -0.2724,205.3321 -0.2795,201.3363 -0.2889,196.9375 -0.3011,192.2691 -0.3166,187.505 -0.3344,182.7773 -0.3528,178.5666 -0.3962,174.0994 -0.5978,168.7301 -0.985,163.7114 -1.2307,159.1493 -1.4233,154.2447 -1.8024,149.7768 -2.0418,145.3663 -2.2249,140.7128 -2.6025,135.798 -2.838,130.678 -2.9457,125.6904 -3.3412,120.4189 -3.6459,115.242 -3.657,110.3228 -3.7174,105.1514 -3.9034,100.4531 -4.2543,96.4099 -4.4744,91.3588 -4.4769,85.7015 -4.4474,80.2159 -4.2096,74.9495 -3.8341,70.3589 -3.6597,66.0476 -3.5964,61.055 -3.1913,55.8329 -2.8398,51.021 -2.8358,46.1495 -2.8289,41.2745 -2.8133,36.4037 -2.744,31.5592 -2.3389,27.0543 -1.991,22.3979 -1.9881,16.7605 -1.9834,11.0712 -1.9851,4.2286 -1.9894,0 A1.9894,1.9894 0 0 1 1.9894,0 Z" stroke-linecap="round" fill="#9398b0"/></g></g><g transform="matrix(1, 0, 0, 1, 2994.9582, 28642.1251)" opacity="1"><g transform="scale(1)"><path d="M-0.2143,-2.1512 T1.7101,-2.326 7.6737,-2.6493 14.8081,-2.845 20.0413,-2.9103 24.4402,-2.9433 29.1138,-2.9741 34.4998,-3.0141 39.6883,-2.8466 43.8957,-2.5357 48.0923,-2.3977 52.3787,-2.3906 56.5075,-2.4192 60.6909,-2.4551 65.0787,-2.4924 69.4027,-2.8127 73.8386,-3.2184 78.6165,-3.3642 83.169,-3.4296 87.3692,-3.4727 91.472,-3.507 95.5475,-3.5321 99.7164,-3.5492 104.749,-3.5687 109.6702,-3.5883 113.9153,-3.6017 119.0846,-3.6147 124.0413,-3.6251 128.08,-3.6318 132.1376,-3.6374 136.1982,-3.6421 140.5095,-3.4326 145.1567,-2.8694 149.9446,-2.1251 154.4193,-1.2458 158.6262,-0.329 163.9992,0.441 169.8774,0.9529 175.1583,1.1506 180.2943,0.8924 185.827,0.2175 190.8836,-0.2725 195.4249,-0.7473 200.4672,-1.1825 205.1662,-1.2546 209.4791,-1.2721 214.4869,-1.5657 219.7225,-1.9655 224.2014,-2.3733 228.6735,-2.7829 233.3724,-3.2005 238.413,-3.6149 243.5226,-4.0902 247.915,-4.5065 252.663,-4.5748 258.2441,-4.6001 263.0731,-4.6122 267.3885,-4.6249 271.8156,-4.6392 276.2737,-4.6508 281.0414,-4.6539 285.9015,-4.3429 291.15,-3.7214 296.6413,-2.8773 301.9728,-1.6309 304.6209,-0.9156 A2.6133,2.6133 0 0 1 303.4391,4.1756 T300.9995,3.7098 295.8118,2.8361 290.4685,2.1935 284.451,1.6778 278.637,1.3938 273.9793,1.3851 269.5321,1.3723 265.144,1.3592 260.1029,1.349 254.4971,1.3487 249.0239,1.399 243.7942,1.8088 238.7914,2.2584 233.7536,2.654 229.1261,3.0464 224.6528,3.4465 220.1635,3.8466 215.5621,4.2349 210.9488,4.537 206.7686,4.5344 202.2796,4.5601 197.6638,4.7446 193.3978,5.1798 189.3555,5.5901 184.5422,6.101 179.7348,6.7006 175.0571,6.8896 170.3054,6.7531 165.3035,6.2832 160.0268,5.6509 155.3143,4.9001 150.9886,3.8815 146.6884,2.9759 141.2822,2.3137 136.1982,2.0221 132.1376,2.0174 128.08,2.0118 124.0413,2.0051 119.0846,1.9947 113.9153,1.9817 109.6702,1.9683 104.7491,1.9487 99.7165,1.9293 95.548,1.9125 91.4739,1.8887 87.3758,1.8588 83.1911,1.8318 78.6956,1.824 73.2178,1.9703 67.5662,2.3027 62.9355,2.4723 58.6119,2.4303 54.3059,2.3791 50.0668,2.3055 45.7448,2.1548 40.5327,1.7334 34.5001,1.3943 29.1157,1.3557 24.4507,1.3338 20.0718,1.3324 14.8705,1.3765 7.9255,1.5747 2.1354,1.9428 0.2143,2.1512 A2.1618,2.1618 0 0 1 -0.2143,-2.1512 Z" stroke-linecap="round" fill="#9398b0"/></g></g><g transform="matrix(1, 0, 0, 1, 3147.7862, 28559.2077)" opacity="1"><g transform="scale(1)"><path d="M0.529,-2.5396 T2.2628,-2.7072 6.6055,-3.3213 11.4555,-4.181 16.1162,-4.7226 20.6706,-4.8606 25.2478,-4.2038 29.8721,-2.7224 33.8452,-0.9992 37.8823,0.9123 42.4538,3.0956 46.9975,5.4346 51.3101,7.9718 55.5012,10.9859 59.3883,14.0956 62.8331,17.2481 65.8702,20.7335 68.4553,24.4806 70.8838,28.4479 73.1665,32.2163 75.383,35.66 77.6165,39.5083 79.9061,43.4449 82.0707,46.9981 84.2276,50.6179 86.9059,54.4515 89.3194,58.5319 91.0425,62.5317 92.45,66.3149 93.7348,70.7743 94.8237,75.4364 95.3908,79.8077 95.5475,84.2609 95.5744,88.7002 95.2416,93.1209 94.1741,97.7187 92.6794,102.5903 90.9973,106.8653 88.9739,110.5733 86.5251,114.3432 84.0108,117.9272 81.2147,121.6558 77.579,125.9315 74.2773,129.7019 71.4184,133.1863 68.1625,136.8713 64.8369,140.2338 61.1434,143.2337 57.0702,145.9463 53.2635,148.527 49.0527,150.9672 44.74,153.0484 41.0035,154.7833 36.8142,156.3969 32.2051,157.9176 27.7596,159.2139 23.5139,160.1992 19.4371,160.9764 14.8681,161.4461 10.2261,161.9319 6.0224,162.351 1.0656,162.4187 -3.7471,162.1227 -7.6673,161.4169 -11.6887,160.3571 -15.7954,158.7387 -20.1518,156.5659 -24.4855,154.1695 -28.2927,151.3344 -31.7751,148.565 -35.4675,145.7385 -39.2173,142.4952 -42.8358,138.9526 -46.3445,134.7042 -49.2517,130.3908 -51.4865,126.4992 -53.5873,121.9585 -55.5265,117.3139 -57.3068,112.8404 -58.8361,108.3201 -60.3382,103.6665 -62.0055,98.6794 -63.1385,94.38 -64.0295,90.1083 -64.8015,85.708 -65.553,81.0107 -66.0774,76.2388 -66.1825,72.0537 -65.931,68.0783 -65.3452,63.2109 -64.2232,57.6464 -62.6866,52.7981 -61.0547,48.6295 -58.9316,44.1285 -56.4731,39.7489 -53.6362,35.5637 -50.6805,31.5987 -47.8115,28.1047 -44.5165,24.6575 -41.0531,21.7493 -37.8314,18.9726 -34.6139,16.1275 -30.8939,13.0378 -27.003,10.2383 -23.334,7.7601 -19.9556,4.9555 -15.9067,2.0491 -11.5579,-0.4157 -7.7546,-2.1243 -3.1483,-3.7211 1.5996,-4.7431 5.7642,-4.9613 10.0023,-5.0001 14.613,-4.6436 19.1813,-4.1837 22.8701,-4.0125 24.4315,-3.9438 A3.944,3.944 0 0 1 24.3485,3.9438 T22.786,3.9796 18.8799,4.0325 14.2962,3.717 9.9697,3.3933 5.2399,3.4604 0.461,3.9529 -3.5428,5.2215 -7.3319,6.9145 -11.4205,9.109 -15.6615,12.0783 -19.6332,15.1442 -23.6687,17.9651 -27.7796,20.9336 -31.4875,24.1634 -34.8759,27.0612 -38.2845,29.7904 -41.3799,32.9249 -44.1218,36.1087 -46.907,39.7165 -49.7478,43.7409 -52.4318,48.1315 -54.8567,53.3501 -56.9366,59.1107 -58.086,64.4557 -58.6491,69.2288 -58.938,73.8455 -58.7737,78.228 -58.2045,83.2372 -57.3342,88.5927 -56.222,94.2963 -54.7368,99.9803 -53.1519,105.136 -51.6911,109.9377 -50.2117,114.0371 -48.5466,118.1789 -46.418,122.7609 -43.9601,127.1312 -41.4895,130.8778 -38.7914,134.2818 -35.295,137.7122 -31.7295,140.8387 -28.134,143.5901 -24.5071,146.4718 -21.0373,149.0613 -17.3512,151.1059 -13.5949,152.9701 -8.993,154.7383 -4.0667,155.8966 1.0355,156.2205 6.2502,156.1192 11.1228,155.6949 15.5463,155.2067 19.8299,154.7265 24.4178,153.96 29.0489,152.671 33.6655,151.1327 38.052,149.4457 42.4664,147.4314 47.1293,145.1525 51.233,142.6466 54.799,140.2774 58.3488,137.6926 61.9051,134.4657 65.1974,131.086 68.3363,127.5024 71.591,123.8425 74.7858,120.1258 77.9179,116.175 80.4985,112.4907 82.9346,109.0191 85.2326,105.465 86.927,101.2883 88.3709,96.8954 89.4059,92.8633 89.7589,88.6732 89.7471,84.3466 89.5703,79.8021 88.9716,75.3123 87.7179,70.4606 86.1152,65.7288 84.2728,61.2557 81.8599,57.0665 79.397,53.6049 77.0846,49.8222 74.6546,45.4707 72.2419,41.0687 69.8241,37.0436 67.3699,33.3033 64.9451,29.547 62.5733,25.3982 59.7468,21.6583 56.2405,18.4904 52.6976,15.5915 49.3231,13.056 45.5267,10.5666 41.495,8.2834 37.5383,6.3146 33.1031,4.1241 28.7607,2.1139 24.7113,0.6581 20.6234,0.0221 16.3965,0.1083 11.4651,0.7242 6.6616,1.6918 2.8195,2.3241 1.091,2.5396 A2.5551,2.5551 0 0 1 0.529,-2.5396 Z" stroke-linecap="round" fill="#9398b0"/></g></g><g transform="matrix(1, 0, 0, 1, 3160.7929, 28647.0026)" opacity="1"><g transform="scale(1)"><path d="M-2.739,0.4224 T-3.096,-2.0924 -3.2729,-6.7518 -3.0928,-8.8964 A2.6895,2.6895 0 0 1 2.2607,-8.3737 T2.0858,-6.8829 2.325,-2.9072 2.739,-0.4224 A2.7714,2.7714 0 0 1 -2.739,0.4224 ZM2.0868,-9.6195 T2.8045,-7.7431 2.4341,-2.8581 1.3461,0.1505 A2.734,2.734 0 0 1 -3.0409,-3.1135 T-2.4242,-4.0211 -2.3632,-6.2897 -2.9189,-7.6506 A2.6895,2.6895 0 0 1 2.0868,-9.6195 ZM-2.2007,0.8941 T-3.273,0.2176 -5.0981,-3.5804 -3.789,-8.4481 0.2538,-9.7334 3.4396,-7.0603 4.6912,-3.2665 4.738,-1.685 A2.8144,2.8144 0 0 1 -0.89,-1.7737 T-0.6531,-3.0124 0.0448,-4.0541 0.5059,-3.857 A2.734,2.734 0 0 1 -2.2007,0.8941 ZM2.3572,1.0515 T0.9759,1.1828 -2.5003,-0.649 -4.2317,-5.01 -3.8682,-7.4082 A2.8567,2.8567 0 0 1 1.0761,-4.5452 T0.892,-4.3828 1.0994,-4.3653 1.4909,-4.5101 A2.8144,2.8144 0 0 1 2.3572,1.0515 ZM1.1102,-7.3477 T1.8111,-5.813 1.7401,-2.0056 0.9681,0.2669 A2.8125,2.8125 0 0 1 -4.2281,-1.8869 T-3.6808,-2.7972 -3.5179,-4.1565 -3.9022,-4.6057 A2.8567,2.8567 0 0 1 1.1102,-7.3477 Z" stroke-linecap="round" fill="#4dabf7"/></g></g><g transform="matrix(1, 0, 0, 1, 3239.6457, 28641.3122)" opacity="1"><g transform="scale(1)"><path d="M-2.7257,0.1598 T-2.9102,-3.1085 -3.5334,-9.6115 -4.4647,-15.2905 -5.7857,-20.1155 -7.589,-25.3235 -9.8295,-30.8039 -12.3212,-35.9174 -14.7789,-40.5409 -17.3338,-45.0255 -19.8482,-49.4181 -22.5811,-53.4477 -25.3203,-57.1112 -27.9219,-60.316 -31.1108,-63.5239 -34.3577,-66.576 -37.791,-69.764 -42.2398,-72.7851 -44.7174,-73.9622 A3.2197,3.2197 0 0 1 -42.1174,-79.8533 T-41.4722,-79.5191 -38.5003,-77.8738 -34.4444,-74.8304 -31.0969,-71.7147 -27.8285,-68.6636 -24.413,-65.2702 -21.3802,-61.7311 -18.851,-58.0321 -16.0388,-53.7906 -13.4553,-49.21 -11.1562,-45.0901 -9.0862,-41.2453 -7.0417,-36.8061 -4.5616,-31.9724 -2.5013,-27.207 -0.915,-22.5588 0.307,-18.0503 1.2346,-13.2733 2.0171,-8.7372 2.527,-3.4283 2.7257,-0.1598 A2.7304,2.7304 0 0 1 -2.7257,0.1598 ZM-46.3792,-75.6453 T-46.5005,-75.91 -46.6218,-76.1748 A3.2352,3.2352 0 0 1 -40.6695,-78.7119 T-40.5625,-78.4411 -40.4556,-78.1703 A3.2197,3.2197 0 0 1 -46.3792,-75.6453 ZM-44.933,-80.4114 T-44.6113,-80.561 -44.2897,-80.7106 A3.2537,3.2537 0 0 1 -41.7003,-74.7405 T-42.0293,-74.6079 -42.3583,-74.4752 A3.2352,3.2352 0 0 1 -44.933,-80.4114 ZM-41.5146,-80.623 T-40.5631,-80.1491 -37.8567,-78.6625 -34.3542,-75.8884 -31.2333,-72.4752 -28.3335,-68.9489 -24.5833,-64.9402 -20.7519,-60.7626 -17.8315,-56.6319 -15.2033,-52.5453 -12.6082,-48.0931 -9.7532,-43.2528 -7.2155,-39.0483 -4.7784,-34.5583 -2.009,-28.6589 0.0992,-23.0827 1.7584,-18.0312 3.0529,-12.977 3.9023,-8.2006 4.426,-4.7561 4.5493,-3.7357 A3.7707,3.7707 0 0 1 -2.9293,-2.7643 T-3.4313,-5.4222 -4.3484,-10.3558 -5.2852,-14.9022 -6.5911,-19.4683 -8.1458,-23.62 -10.1257,-28.1055 -12.5527,-33.1495 -15.0708,-37.4678 -17.4935,-41.195 -19.7413,-45.2336 -22.1135,-49.6093 -24.468,-53.5744 -27.1207,-57.2798 -30.3222,-60.6083 -33.2367,-63.5907 -35.6312,-66.7959 -38.2373,-70.1875 -41.4555,-73.0415 -43.8398,-74.4912 -44.4754,-74.8281 A3.2537,3.2537 0 0 1 -41.5146,-80.623 Z" stroke-linecap="round" fill="#4dabf7"/></g></g><g transform="matrix(1, 0, 0, 1, 3159.98, 28648.6284)" opacity="1"><g transform="scale(1)"><path d="M-1.9402,-0.8163 T-0.3844,-4.4624 2.3939,-10.6507 5.0135,-16.0613 7.3169,-20.9824 9.7153,-26.3253 13.1034,-33.8083 16.1682,-40.7388 18.1478,-45.3308 20.0838,-49.929 22.1166,-54.6475 23.9089,-58.8105 25.6039,-63.0575 27.2562,-67.1732 28.9261,-71.7299 30.9674,-76.7189 32.1811,-79.2084 A2.2809,2.2809 0 0 1 36.0989,-76.8716 T35.6032,-76.0071 34.3642,-73.2687 32.9918,-69.4248 31.4659,-65.3366 29.7303,-61.1645 27.9694,-56.9127 26.147,-52.8167 24.0868,-48.1714 22.1059,-43.6022 20.0858,-39.0063 17.0151,-32.1463 13.581,-24.7015 11.0668,-19.2293 8.7154,-14.2702 6.1464,-8.9656 3.4589,-2.8454 1.9402,0.8163 A2.1049,2.1049 0 0 1 -1.9402,-0.8163 Z" stroke-linecap="round" fill="#4dabf7"/></g></g><g transform="matrix(1, 0, 0, 1, 3257.5298, 28560.0207)" opacity="1"><g transform="scale(1)"><path d="M2.3789,1.0562 T1.6193,2.7914 -0.2027,7.0488 -1.7874,11.6397 -0.9982,15.8328 3.305,20.1608 6.2965,22.3642 A2.4719,2.4719 0 0 1 3.4635,26.4158 T1.5928,25.2188 -2.3175,22.5965 -5.9721,16.6632 -6.9083,9.8649 -5.0818,4.9864 -3.1566,0.671 -2.3789,-1.0562 A2.6029,2.6029 0 0 1 2.3789,1.0562 Z" stroke-linecap="round" fill="#4dabf7"/></g></g><g transform="matrix(1, 0, 0, 1, 3257.5298, 28572.2144)" opacity="1"><g transform="scale(1)"><path d="M0.2088,2.096 T-3.8483,2.5802 -7.9054,3.0644 A2.2656,2.2656 0 0 1 -8.3546,-1.4444 T-4.2817,-1.7702 -0.2088,-2.096 A2.1064,2.1064 0 0 1 0.2088,2.096 Z" stroke-linecap="round" fill="#4dabf7"/></g></g><g transform="matrix(1, 0, 0, 1, 3198.9999, 28660.8222)" opacity="1"><g transform="scale(1)"><path d="M1.8505,-0.123 T2.2318,5.9736 2.6131,12.0702 A1.8071,1.8071 0 0 1 -0.9931,12.3098 T-1.4218,6.2164 -1.8505,0.123 A1.8546,1.8546 0 0 1 1.8505,-0.123 Z" stroke-linecap="round" fill="#4dabf7"/></g></g><g transform="matrix(1, 0, 0, 1, 3197.3741, 28660.8222)" opacity="1"><g transform="scale(1)"><path d="M1.2188,2.1338 T-0.1077,2.936 -4.1477,5.3413 -6.8611,6.9444 A2.4232,2.4232 0 0 1 -9.3989,2.8156 T-6.6737,1.076 -2.5836,-1.3987 -1.2188,-2.1338 A2.4573,2.4573 0 0 1 1.2188,2.1338 Z" stroke-linecap="round" fill="#4dabf7"/></g></g></svg>