<svg xmlns="http://www.w3.org/2000/svg" direction="ltr" width="748.9344101050315" height="326.5018505750413" viewBox="3047.7728768643165 17321.773926938105 748.9344101050315 326.5018505750413" stroke-linecap="round" stroke-linejoin="round" style="background-color: transparent;"><defs/><g transform="matrix(1, 0, 0, 1, 3079.7729, 17562.4436) scale(0.9660634430071882, 0.9660634430071882)" opacity="1"><g transform="scale(1.0351287042672614)"><path d="M0,0 Q2.2025,0 3.2416,0 T5.286,0 7.0594,0 8.6853,0 10.4499,0 12.2922,0 13.9556,0 15.5217,0 17.256,0 19.0795,0 20.9516,0 22.8501,0 24.5441,0 26.1268,0 27.8679,0 29.6974,0 31.3539,0 32.9139,0 34.4238,0 36.1275,0.2212 38.1556,0.5626 39.92,0.7484 41.5411,0.8494 43.0819,1.1233 44.8001,1.4912 47.0573,1.6913 49.3864,1.8001 51.3146,1.8594 53.246,1.8916 55.1767,1.9091 56.8882,1.9186 58.4805,1.9238 60.2267,1.9266 62.2779,1.7093 64.2739,1.3722 66.242,1.1888 68.4139,1.089 70.4755,1.0347 72.2583,1.0052 74.5505,0.9892 77.1198,0.9804 79.6188,0.7545 82.0795,0.4105 84.0793,0.2233 86.0472,0.1215 88.2191,0.0661 90.5018,0.0359 92.8448,0.0196 94.7806,0.0106 96.4926,0.0058 98.0851,0.0031 99.8338,0.0017 101.8864,0.0009 104.1042,-0.2207 106.4119,-0.5624 108.3285,-0.7482 110.2535,-0.8494 112.6208,-0.9044 115.0099,-0.9343 116.9707,-0.9506 118.9175,-0.9594 121.299,-0.9643 123.6957,-0.9669 126.1008,-0.9683 128.5104,-0.9691 130.7013,-0.9695 132.5543,-0.9697 134.2236,-0.9699 136.0118,-0.9699 137.8669,-0.97 139.7584,-0.97 141.6675,-0.97 143.5861,-0.97 145.7311,-0.97 147.9992,-0.97 150.1131,-0.97 152.1455,-0.97 154.1334,-0.97 156.3161,-0.97 158.6047,-0.97 160.5086,-0.97 162.2056,-0.97 163.7899,-1.1889 165.313,-1.5268 167.2428,-1.7107 169.6127,-1.8107 172.0032,-1.8651 173.9648,-1.8947 175.6931,-1.9108 177.7346,-1.9196 179.9464,-1.9243 182.2508,-1.9269 184.6057,-1.9283 186.7668,-1.9291 189.0437,-1.9295 191.6047,-1.9297 193.8803,-1.9299 196.0006,-1.9299 198.0341,-1.93 199.7992,-1.93 201.8607,-1.93 204.3045,-1.93 206.7352,-1.93 208.9376,-1.93 211.0181,-1.93 213.0322,-1.93 215.0079,-1.93 216.9628,-1.93 218.9064,-1.93 220.846,-1.93 222.7836,-1.93 224.7177,-1.93 226.871,-1.93 229.3649,-1.93 231.8228,-1.93 234.04,-1.93 236.1262,-1.93 238.1434,-1.93 239.902,-1.93 241.5176,-1.93 243.2789,-1.93 245.1193,-1.93 247.0006,-1.93 248.9041,-1.93 251.0409,-1.93 253.0856,-1.93 255.0804,-1.93 257.0456,-1.93 258.7735,-1.93 260.8148,-2.1512 262.8076,-2.4926 264.3317,-2.6784 265.8221,-2.7794 267.734,-2.8344 270.0943,-2.8643 272.4795,-2.8806 274.4382,-2.8894 276.165,-2.8943 277.9844,-2.8969 279.6354,-2.8983 281.1947,-2.8991 282.9231,-2.8995 284.7457,-2.8997 286.6195,-2.8999 288.3001,-2.8999 290.0944,-2.9 292.3906,-2.9 295.1833,-2.9 298.2439,-2.9 301.01,-2.9 303.6161,-3.1189 306.135,-3.4568 308.1665,-3.6407 310.3728,-3.7407 312.8955,-3.7951 315.3691,-3.8247 318.0371,-3.8408 320.8086,-3.8496 323.6364,-3.8543 326.276,-3.8569 328.5943,-3.8583 330.7378,-3.8591 333.0051,-3.8595 335.3398,-3.8597 337.4899,-3.8599 339.7608,-3.8599 342.3186,-3.86 344.8113,-3.86 347.0474,-3.86 349.1439,-3.86 351.1668,-3.86 353.1496,-3.86 355.1083,-3.86 357.0539,-3.86 358.9924,-3.86 360.9293,-3.86 362.8653,-3.86 364.5775,-3.86 366.1701,-3.86 367.9188,-3.86 369.7502,-3.86 371.6265,-3.86 373.5274,-3.86 375.4438,-3.86 377.3686,-3.86 379.2959,-3.86 381.0055,-3.86 382.8179,-3.86 384.905,-3.86 386.9205,-3.86 388.6782,-3.86 390.5144,-3.86 392.6146,-3.86 394.6394,-3.86 396.621,-3.86 398.8002,-3.86 401.087,-3.86 403.211,-3.86 405.2466,-3.86 407.2363,-3.86 409.2011,-3.86 411.15,-3.86 413.0903,-3.86 415.0281,-3.86 417.1836,-3.86 419.2362,-3.86 421.2352,-3.6411 423.4239,-3.3032 425.7158,-3.1193 428.0638,-3.0193 430.0024,-2.9649 431.937,-2.9353 434.0907,-2.9192 436.3635,-2.9104 438.7012,-2.9057 440.6341,-2.9031 442.5657,-2.9017 444.7177,-2.9009 446.7707,-2.9005 448.9888,-2.9003 451.2967,-2.9001 453.6535,-2.9001 456.2556,-2.9 458.7725,-2.9 461.024,-2.9 463.1312,-2.9 465.1576,-2.9 467.3611,-2.9 469.4423,-2.9 471.4545,-2.9 473.6504,-2.9 475.9462,-2.9 478.0751,-2.9 480.1157,-2.9 482.5481,-2.9 484.9726,-2.9 487.1716,-2.9 489.4691,-2.9 492.0414,-2.9 494.7608,-2.9 497.5603,-2.9 500.1867,-2.9 502.2767,-2.9 504.5149,-2.9 507.2737,-2.9 509.8758,-2.9 512.1737,-2.9 514.3038,-2.9 516.1238,-2.9 517.9939,-2.9 520.1125,-2.9 522.1474,-2.9 524.3556,-2.9 526.6581,-2.9 528.7908,-2.9 530.831,-2.9 532.8233,-2.6788 535.0083,-2.3374 537.5171,-2.1516 539.9831,-2.0506 542.647,-1.9956 545.4186,-1.7468 547.8064,-1.3926 550.2066,-1.1999 552.6135,-1.0951 554.803,-1.038 557.0953,-1.007 559.2247,-0.9901 561.0443,-0.7598 562.9142,-0.4133 564.8138,-0.2248 566.7296,-0.1223 568.4306,-0.0665 570.0172,-0.0362 571.5415,-0.0197 573.2508,-0.0107 575.5031,-0.0058 577.8296,-0.0032 579.9752,-0.0017 581.8037,-0.0009 583.6807,-0.0005 585.8031,-0.0003 588.0589,-0.0002 590.3873,-0.0001 592.534,0 594.8031,0 596.9198,0 598.9514,0 601.1578,-0.2212 603.0193,-0.5626 604.912,-0.7484 607.2641,-0.8494 609.866,-0.9044 612.8227,-0.9343 615.9724,-0.9506 618.566,-0.9594 620.8569,-0.9643 622.9856,-0.9669 624.8047,-0.9683 626.4556,-0.9691 628.236,-0.9695 630.3058,-0.9697 632.0907,-0.9699 633.5017,-0.7488 635.1516,-0.4073 637.1504,-0.2216 638.899,-0.1205 640.5114,-0.0656 642.2687,-0.0357 643.8858,-0.0194 645.4267,-0.0106 647.3662,-0.0057 649.3014,-0.0031 651.013,-0.0017 652.8265,-0.0009 654.4743,-0.0005 655.8107,0.2209 656.98,0.5625 658.1976,0.8264 L658.86,0.97 " stroke-linecap="round" fill="none" stroke="#9398b0" stroke-width="2.8981903290215643" stroke-dasharray="none" stroke-dashoffset="0"/></g></g><g transform="matrix(1, 0, 0, 1, 3321.2887, 17558.5794) scale(0.9660634430071882, 0.9660634430071882)" opacity="1"><g transform="scale(1.0351287042672614)"><path d="M0,0 Q0,1.7602 0,2.4601 T0,3.7619 -0.2212,4.9102 -0.5626,5.9749 -0.7484,6.554 -0.8494,6.4291 -0.9044,5.9211 -0.9343,5.2024 -0.9506,4.3714 -0.9594,3.4793 -0.9643,2.3328 -0.9669,1.0479 -0.9683,0.3489 -1.188,0.4109 -1.5263,0.8848 -1.7104,1.5825 -1.8105,2.4022 -1.865,3.2881 -1.8946,4.2124 -1.9108,5.1552 -1.9195,6.1082 -1.9243,7.0666 -1.9269,8.028 -1.9289,9.085 L-1.93,9.66 " stroke-linecap="round" fill="none" stroke="#9398b0" stroke-width="2.8981903290215643" stroke-dasharray="none" stroke-dashoffset="0"/></g></g><g transform="matrix(1, 0, 0, 1, 3318.3905, 17596.2559) scale(0.9660634430071882, 0.9660634430071882)" opacity="1"><g transform="scale(1.0351287042672614)"><path d="M0,0 Q0.4423,2.2025 0.5626,3.0227 T0.7484,4.508 0.6283,5.7561 0.3418,7.9763 0.1859,10.7254 0.1011,12.6632 -0.1661,14.1574 -0.6868,15.6228 L-0.97,16.42 " stroke-linecap="round" fill="none" stroke="#9398b0" stroke-width="2.8981903290215643" stroke-dasharray="none" stroke-dashoffset="0"/></g></g><g transform="matrix(1, 0, 0, 1, 3317.4245, 17597.2219) scale(0.9660634430071882, 0.9660634430071882)" opacity="1"><g transform="scale(1.0351287042672614)"><path d="M-0.97,0 Q-2.2878,1.3224 -2.8675,1.901 T-3.7624,3.0154 -4.4704,4.064 -5.3315,5.1884 L-5.8,5.8 " stroke-linecap="round" fill="none" stroke="#9398b0" stroke-width="2.8981903290215643" stroke-dasharray="none" stroke-dashoffset="0"/></g></g><g transform="matrix(1, 0, 0, 1, 3201.4969, 17439.7536) scale(0.9660634430071882, 0.9660634430071882)" opacity="1"><g transform="scale(1.0351287042672614)"><path d="M0,0 Q-2.6448,0.4423 -3.5831,0.5626 T-5.4718,0.7484 -7.1605,0.8494 -7.8602,0.9044 -7.3608,0.9343 -6.4279,0.9506 -5.2592,0.9594 -4.1834,1.1831 -3.377,1.5237 -3.1572,1.709 -4.1389,1.8098 -5.8365,1.8876 L-6.76,1.93 " stroke-linecap="round" fill="none" stroke="#9398b0" stroke-width="2.8981903290215643" stroke-dasharray="none" stroke-dashoffset="0"/></g></g><g transform="matrix(1, 0, 0, 1, 3174.4471, 17431.059) scale(0.9660634430071882, 0.9660634430071882)" opacity="1"><g transform="scale(1.0351287042672614)"><path d="M0,0 Q0,2.2025 0,3.2416 T0,5.286 0,7.2806 0,9.2479 0,10.9771 0,12.579 -0.2212,14.3328 -0.5626,15.5057 -0.8265,16.0979 L-0.97,16.42 " stroke-linecap="round" fill="none" stroke="#9398b0" stroke-width="2.8981903290215643" stroke-dasharray="none" stroke-dashoffset="0"/></g></g><g transform="matrix(1, 0, 0, 1, 3173.481, 17432.9911) scale(0.9660634430071882, 0.9660634430071882)" opacity="1"><g transform="scale(1.0351287042672614)"><path d="M0,0 Q-1.7602,0.4423 -2.4601,0.7815 T-3.7619,1.5264 -4.9102,2.3716 -5.9749,3.0503 -6.9941,3.6407 -8.0925,4.411 L-8.69,4.83 " stroke-linecap="round" fill="none" stroke="#9398b0" stroke-width="2.8981903290215643" stroke-dasharray="none" stroke-dashoffset="0"/></g></g><g transform="matrix(1, 0, 0, 1, 3440.1145, 17556.6472) scale(0.9660634430071882, 0.9660634430071882)" opacity="1"><g transform="scale(1.0351287042672614)"><path d="M0,0 Q0,1.7602 0,2.9001 T0,4.8814 0,5.9592 0,6.1055 0,5.5239 0.2212,4.3251 0.5626,3.0141 0.7484,1.8608 0.8494,0.7911 0.9044,0.2092 0.9343,0.775 0.9506,1.9629 0.9594,3.0491 0.9643,4.0824 0.968,5.1948 L0.97,5.8 " stroke-linecap="round" fill="none" stroke="#9398b0" stroke-width="2.8981903290215643" stroke-dasharray="none" stroke-dashoffset="0"/></g></g><g transform="matrix(1, 0, 0, 1, 3432.386, 17588.5273) scale(0.9660634430071882, 0.9660634430071882)" opacity="1"><g transform="scale(1.0351287042672614)"><path d="M0,0 Q2.2025,-0.4423 3.0227,-0.3415 T4.2892,0.4754 4.9781,1.7999 5.3529,2.9605 5.3356,4.253 5.1051,5.6174 4.7585,6.7996 4.1299,8.1039 3.3479,9.4747 2.4825,10.6604 1.5716,11.7455 0.6338,12.5547 0.1236,12.776 0.5073,12.6775 1.3772,12.6239 2.5116,12.5948 3.79,12.5789 4.9254,12.7892 6.202,13.1224 7.5577,13.3037 8.9193,13.4438 L9.66,13.52 " stroke-linecap="round" fill="none" stroke="#9398b0" stroke-width="2.8981903290215643" stroke-dasharray="none" stroke-dashoffset="0"/></g></g><g transform="matrix(1, 0, 0, 1, 3559.9064, 17555.6812) scale(0.9660634430071882, 0.9660634430071882)" opacity="1"><g transform="scale(1.0351287042672614)"><path d="M0,0 Q0,1.7602 0,2.4601 T0,3.7619 0,4.9102 0,5.9749 0,6.9941 0,7.5485 0,7.4101 0,6.6736 0,5.3929 0,3.8161 0,2.2971 0,1.0285 0,-0.1017 0,-0.7165 0,-0.611 0,-0.1112 0,1.0407 0,2.7686 0,4.3698 0,5.8998 0,7.3933 0,8.6481 0,9.9317 L0,10.63 " stroke-linecap="round" fill="none" stroke="#9398b0" stroke-width="2.8981903290215643" stroke-dasharray="none" stroke-dashoffset="0"/></g></g><g transform="matrix(1, 0, 0, 1, 3554.11, 17583.697) scale(0.9660634430071882, 0.9660634430071882)" opacity="1"><g transform="scale(1.0351287042672614)"><path d="M0,0 Q1.7602,0 2.4601,0 T3.7619,0.2212 4.6913,1.2216 4.9757,2.6458 4.6881,3.6418 4.0916,4.4048 3.7671,5.2599 4.0306,5.9439 4.3951,6.5372 4.8146,7.3 5.4828,7.9338 6.0652,8.4998 6.6032,9.25 7.117,10.0982 7.3965,10.9996 7.5486,11.93 7.4102,12.8762 6.8948,13.8333 5.9533,14.5751 4.7799,15.1975 3.4826,15.7549 1.8945,16.0582 0.1483,16.2232 -1.826,16.3507 L-2.9,16.42 " stroke-linecap="round" fill="none" stroke="#9398b0" stroke-width="2.8981903290215643" stroke-dasharray="none" stroke-dashoffset="0"/></g></g><g transform="matrix(1, 0, 0, 1, 3198.5987, 17603.9844) scale(0.9660634430071882, 0.9660634430071882)" opacity="1"><g transform="scale(1.0351287042672614)"><path d="M0,0 Q0,-1.7602 0,-2.4601 T0,-3.7619 0.2212,-4.9102 0.5626,-5.9749 0.7484,-7.2152 0.8494,-8.5512 0.9044,-9.718 0.9343,-11.0117 0.9506,-12.3766 0.9594,-13.5615 0.9643,-14.8673 0.9669,-16.4577 0.9683,-17.984 0.9691,-19.2544 0.9695,-20.3856 0.9697,-21.4432 0.9699,-22.4586 0.9699,-23.4511 0.97,-24.431 0.97,-25.4041 0.97,-26.3758 0.97,-27.3444 0.97,-28.5303 0.97,-29.8366 0.97,-30.9895 0.97,-32.0568 0.97,-33.0774 0.97,-34.0727 0.97,-35.0541 0.97,-36.0304 0.97,-37.2226 0.97,-38.5302 0.97,-39.6815 0.97,-40.969 0.97,-42.5495 1.1889,-44.0705 1.5268,-45.3402 1.7107,-46.471 1.8107,-47.5262 1.8651,-48.5425 1.8947,-49.5355 1.9108,-50.5156 1.9196,-51.4889 1.9243,-52.4584 1.9269,-53.4281 1.9283,-54.3957 1.9291,-55.3621 1.9295,-56.549 1.9297,-57.8559 1.9299,-59.0069 1.9299,-60.0731 1.93,-61.0931 1.93,-62.0881 1.93,-63.0716 1.93,-64.0467 1.93,-65.0172 1.93,-65.9852 1.93,-66.9518 1.93,-67.92 1.93,-69.3268 1.93,-70.9721 1.93,-72.3095 1.93,-73.4771 1.93,-74.5523 1.93,-75.5795 1.93,-76.5784 1.93,-77.5618 1.93,-78.5368 1.93,-79.5073 1.93,-80.4775 1.93,-81.4454 1.93,-82.4119 1.93,-83.3778 1.93,-84.5644 1.93,-85.8711 1.93,-87.022 1.93,-88.0881 1.93,-89.1081 1.93,-90.3242 1.93,-91.647 1.93,-92.8066 1.93,-93.8775 1.93,-94.9023 1.93,-95.8999 1.93,-96.8826 1.93,-97.8573 1.93,-99.0487 1.93,-100.358 1.93,-101.5103 1.93,-102.5772 1.93,-103.5976 1.93,-104.5951 1.93,-105.5777 1.93,-106.5523 1.93,-107.5248 1.93,-108.4939 1.93,-109.4611 1.93,-110.4273 1.93,-111.6141 1.93,-112.921 1.93,-114.0719 1.93,-115.1381 1.93,-116.1581 1.93,-117.1553 1.93,-118.1379 1.93,-119.1124 1.93,-120.0826 1.93,-121.0504 1.93,-122.0192 1.93,-122.9863 1.93,-123.9524 1.93,-124.918 1.93,-125.8834 1.93,-127.0697 1.93,-128.3763 1.93,-129.5271 1.93,-130.5932 1.93,-131.8343 1.93,-133.1707 1.93,-134.3377 1.93,-135.4127 1.93,-136.6586 1.93,-137.9976 1.93,-139.3872 1.93,-140.8044 1.93,-142.0153 1.93,-143.1141 1.93,-144.1542 1.93,-145.1601 1.93,-146.1473 1.93,-147.1244 1.93,-148.0959 2.1512,-149.0668 2.4926,-150.035 2.6784,-151.0017 2.7794,-152.41 2.8344,-154.0561 2.8643,-155.3917 2.8806,-156.7794 2.8894,-158.1956 2.8943,-159.406 2.8969,-160.5045 2.8983,-161.5421 2.8991,-162.5466 2.8995,-163.5354 2.8997,-164.5133 2.6787,-165.4854 2.3373,-166.4565 2.1516,-167.646 2.0505,-168.952 1.9956,-170.1025 1.9657,-171.1707 1.9494,-172.1918 1.9406,-173.1873 1.9357,-174.169 1.9331,-175.3642 1.9317,-176.6755 1.9309,-177.829 1.9305,-178.8965 1.9303,-180.1384 1.9301,-181.4752 1.9301,-182.6425 1.93,-183.7175 1.93,-184.7424 1.93,-185.7422 1.93,-186.7262 1.93,-187.7015 1.93,-188.6721 1.93,-189.6401 1.93,-190.6091 1.93,-191.5762 1.93,-192.5424 1.93,-193.508 1.93,-194.6945 1.93,-196.0012 1.7111,-197.152 1.3732,-198.2204 1.1893,-199.2417 1.0893,-200.2373 1.0349,-201.2189 1.0053,-202.193 0.9892,-203.1652 0.9804,-204.1341 0.9757,-205.1012 0.9731,-206.0674 0.9717,-207.033 0.9709,-208.2195 0.9705,-209.5262 0.9703,-210.677 0.9701,-211.7432 0.9701,-212.7654 0.97,-213.7616 0.97,-214.7435 0.97,-215.9389 0.97,-217.2504 0.97,-218.4039 0.97,-219.4714 0.97,-220.4922 0.97,-221.7087 0.97,-223.0317 0.97,-224.1915 0.97,-225.2624 0.97,-226.285 0.97,-227.2837 0.97,-228.2669 0.97,-229.2419 0.97,-230.2146 0.97,-231.1838 1.1889,-232.1511 1.5268,-233.1173 1.7107,-234.083 1.8107,-235.0506 1.8651,-236.2382 1.8947,-237.5432 1.9108,-238.6931 1.9196,-239.761 1.9243,-240.782 1.9269,-241.7774 1.9283,-242.759 1.9291,-243.733 1.9295,-244.7052 1.7108,-245.6741 1.373,-246.6412 1.1892,-247.1674 0.8681,-247.0135 0.4723,-246.4898 0.0357,-245.7626 -0.6418,-244.9269 -1.4504,-244.0323 -2.3303,-242.8844 -3.249,-241.5988 -4.1911,-240.4593 -5.1436,-239.1806 -6.1019,-237.8237 -6.8443,-236.6433 -7.4671,-235.7799 -7.8058,-235.5314 -7.5501,-235.8386 -7.1898,-236.4457 -6.7749,-237.216 -6.1092,-238.0751 -5.5259,-238.9825 -4.9874,-239.9184 -4.0333,-240.8676 -3.0742,-241.824 -2.3336,-242.7844 -1.4906,-243.7468 -0.3709,-244.7127 0.8995,-245.4593 2.0306,-245.6443 3.086,-245.3026 4.1024,-244.6767 5.0954,-243.6773 5.8545,-242.4724 6.4885,-241.3746 7.2735,-240.1162 8.1406,-238.7728 9.1247,-237.4238 L9.66,-236.69 " stroke-linecap="round" fill="none" stroke="#9398b0" stroke-width="2.8981903290215643" stroke-dasharray="none" stroke-dashoffset="0"/></g></g><g transform="matrix(1, 0, 0, 1, 3736.696, 17562.4436) scale(0.9660634430071882, 0.9660634430071882)" opacity="1"><g transform="scale(1.0351287042672614)"><path d="M0,0 Q-0.8801,-1.3224 -1.3406,-1.901 T-2.2706,-2.7943 -2.9954,-3.5014 -3.6108,-4.3284 -4.3879,-5.4395 -5.2507,-6.924 -5.9389,-8.3928 -6.3133,-9.6318 -6.517,-10.3059 -6.4089,-10.2325 -6.1313,-9.7503 -5.759,-9.0479 -5.3354,-8.0069 -4.8838,-7.0006 -4.1981,-6.2319 -3.1661,-5.1526 -1.9435,-3.9043 -0.8361,-2.7851 0.2064,-1.9574 0.9923,-1.286 1.6411,-0.4784 2.434,0.1821 3.0843,0.7602 3.438,1.5148 3.4116,2.1465 2.9571,2.709 2.4888,3.455 2.0151,4.3032 1.3174,5.2046 0.4955,6.3539 -0.3917,7.6403 -1.5332,8.7825 -3.0402,9.9791 L-3.86,10.63 " stroke-linecap="round" fill="none" stroke="#9398b0" stroke-width="2.8981903290215643" stroke-dasharray="none" stroke-dashoffset="0"/></g></g><g transform="matrix(1, 0, 0, 1, 3763.7458, 17560.5115) scale(0.9660634430071882, 0.9660634430071882)" opacity="1"><g transform="scale(1.0351287042672614)"><path d="M0,0 Q-1.3224,1.7602 -1.901,2.4601 T-3.8955,4.4208 -7.0008,7.1858 L-8.69,8.69 " stroke-linecap="round" fill="none" stroke="#9398b0" stroke-width="2.8981903290215643" stroke-dasharray="none" stroke-dashoffset="0"/></g></g><g transform="matrix(1, 0, 0, 1, 3756.0173, 17560.5115) scale(0.9660634430071882, 0.9660634430071882)" opacity="1"><g transform="scale(1.0351287042672614)"><path d="M0,0 Q1.3224,1.7602 1.6821,2.4601 T2.4563,3.7619 3.3176,4.6913 4.2284,5.6369 5.3851,7.2526 6.6732,9.0115 7.5929,10.4085 8.3035,11.802 L8.69,12.56 " stroke-linecap="round" fill="none" stroke="#9398b0" stroke-width="2.8981903290215643" stroke-dasharray="none" stroke-dashoffset="0"/></g></g><g transform="matrix(1, 0, 0, 1, 3217.9199, 17353.7739) scale(0.9660634430071882, 0.9660634430071882)" opacity="1"><g transform="scale(1.0351287042672614)"><path d="M0,0 Q0,1.7602 0,2.4601 T0.2212,3.7619 1.0027,5.1313 2.3079,6.5352 3.6791,7.5178 4.8651,7.8334 5.9504,7.5651 6.7619,6.7579 7.2033,5.6576 7.4435,4.619 7.5741,3.614 7.6452,2.6272 7.6839,1.6504 7.7049,1.119 7.7164,1.2699 7.9415,1.7921 8.2828,2.5162 8.4685,3.3501 8.5695,4.2461 8.8456,5.3947 9.217,6.8996 9.6402,8.5984 10.3104,10.4026 11.1151,12.4853 11.774,14.7219 12.3513,17.0398 12.8842,19.1808 13.1741,21.0067 13.3318,22.6612 13.1988,24.0013 12.4674,24.9492 11.1873,25.4648 9.6085,25.5265 7.8695,25.12 6.0435,24.4588 4.0075,23.637 L2.9,23.19 " stroke-linecap="round" fill="none" stroke="#9398b0" stroke-width="2.8981903290215643" stroke-dasharray="none" stroke-dashoffset="0"/></g></g><g transform="matrix(1, 0, 0, 1, 3152.2276, 17603.9844) scale(0.9660634430071882, 0.9660634430071882)" opacity="1"><g transform="scale(1.0351287042672614)"><path d="M0,0 Q1.3224,-0.8801 1.901,-1.3406 T3.0154,-2.2706 4.064,-2.9954 4.8556,-3.6108 5.5051,-4.3879 6.2985,-5.2507 7.1702,-6.1601 8.0844,-7.0949 8.8029,-8.0434 9.4149,-8.7806 10.1879,-9.4028 11.0484,-10.1813 11.9566,-11.0448 13.1118,-11.9546 14.1826,-12.8896 14.984,-13.6194 15.86,-14.2375 16.5577,-15.0139 17.1584,-15.8762 17.9252,-16.5665 18.7824,-17.1632 19.6887,-17.9278 20.6218,-18.7838 21.5718,-19.4706 22.5286,-20.0631 23.2679,-20.8255 23.8913,-21.4614 24.6705,-22.0285 25.5344,-22.777 26.4467,-23.6243 27.383,-24.5252 28.5513,-25.4553 29.6268,-26.4037 30.4331,-27.1407 31.0929,-27.7605 31.673,-28.5378 32.4286,-29.4006 33.2797,-30.3101 34.1827,-31.2471 35.114,-31.978 35.8418,-32.5945 36.4588,-33.3699 37.2346,-34.2318 38.0966,-35.1407 38.7867,-36.0775 39.381,-37.0271 40.1444,-37.9837 41.0019,-38.9442 41.9085,-39.9067 42.8417,-40.8727 43.7894,-41.8382 44.745,-42.8034 45.7072,-43.7686 46.4517,-44.7337 47.0757,-45.701 47.8551,-46.6673 48.7215,-47.633 49.6328,-48.6006 50.5686,-49.567 51.5177,-50.5328 52.4741,-51.4983 53.2155,-52.4635 53.84,-53.4309 54.8409,-54.6184 56.0443,-55.9233 57.139,-57.0732 58.1769,-58.1411 59.1815,-59.162 60.1681,-60.1575 61.1448,-61.139 62.1162,-62.113 63.0869,-63.0852 64.055,-64.0541 65.0217,-65.0212 66.2088,-65.9874 67.5158,-67.1742 68.6668,-68.481 69.9519,-69.8508 71.3122,-71.2572 72.7134,-72.6835 74.1368,-74.1206 75.5724,-75.5636 77.0145,-77.2286 78.4603,-78.7956 79.9079,-80.0904 81.1355,-81.4559 82.4622,-82.8577 83.8452,-84.0603 85.2587,-85.1568 86.6889,-86.1934 87.9069,-87.4162 89.2307,-88.7426 90.6121,-90.1254 91.8036,-91.5388 93.1129,-92.9689 94.4864,-94.4081 95.8948,-95.631 97.3199,-96.9552 98.5352,-98.3368 99.8575,-99.5307 101.238,-100.6202 102.4291,-101.653 103.5171,-102.6548 104.7701,-103.6399 106.113,-104.618 107.2858,-105.8114 108.3639,-107.1217 109.6093,-108.2746 110.948,-109.3418 112.1185,-110.3624 113.1954,-111.3577 114.2212,-112.3414 115.2193,-113.3166 116.2023,-114.2872 117.1794,-115.2552 118.3721,-116.2218 119.6799,-117.19 120.8313,-118.1567 121.9,-119.1227 122.9215,-120.0882 123.9172,-121.0534 124.8989,-122.0209 125.8729,-122.9872 126.8452,-123.9529 127.8141,-124.9183 128.7812,-125.8835 129.7474,-126.8509 130.713,-127.8172 131.6806,-128.7829 132.6471,-129.7483 133.6128,-130.7135 134.3594,-131.6809 134.9844,-132.6472 135.9856,-133.6129 136.9726,-134.5783 137.9495,-135.5435 138.921,-136.5109 139.6707,-137.4772 140.5185,-138.2218 141.1986,-138.848 141.7898,-139.6309 142.5514,-140.4969 143.4058,-141.408 144.0917,-142.3437 144.686,-143.0716 145.4493,-143.6888 146.3046,-144.4668 146.9911,-145.3301 147.5834,-146.0186 148.3456,-146.6143 149.2026,-147.3784 150.1089,-148.2341 151.0419,-148.9208 151.9895,-149.5155 152.7239,-150.2791 153.3446,-150.9133 154.1245,-151.4795 154.9889,-152.2276 155.8991,-153.0746 156.8343,-153.9776 157.7831,-154.6901 158.7416,-155.2965 159.4841,-156.0665 160.107,-156.7065 160.8858,-157.2735 161.5307,-158.022 162.0289,-158.9145 L162.3,-159.4 " stroke-linecap="round" fill="none" stroke="#e03131" stroke-width="2.8981903290215643" stroke-dasharray="none" stroke-dashoffset="0"/></g></g><g transform="matrix(1, 0, 0, 1, 3318.3905, 17444.5839) scale(0.9660634430071882, 0.9660634430071882)" opacity="1"><g transform="scale(1.0351287042672614)"><path d="M0,0 Q-1.3224,-0.4423 -1.6821,-0.7815 T-2.2375,-1.5264 -2.5396,-2.3716 -2.7039,-3.2715 -2.7933,-4.2033 -2.842,-5.1503 -2.6473,-6.1055 -2.1013,-7.0651 -1.5854,-8.0272 -0.8625,-8.7718 0.4132,-9.1768 1.766,-9.3971 2.942,-9.2958 4.0241,-9.0196 5.0528,-8.6504 5.8313,-8.0095 6.4759,-7.2209 7.0478,-6.3518 7.3589,-5.4367 7.5281,-4.4988 7.399,-3.7698 6.8887,-3.152 6.3923,-2.3759 5.901,-1.7348 4.9726,-1.1649 3.6302,-0.4104 L2.9,0 " stroke-linecap="round" fill="none" stroke="#f2f2f2" stroke-width="2.8981903290215643" stroke-dasharray="none" stroke-dashoffset="0"/></g></g><g transform="matrix(1, 0, 0, 1, 3318.3905, 17567.2739) scale(0.9660634430071882, 0.9660634430071882)" opacity="1"><g transform="scale(1.0351287042672614)"><path d="M-0.44,-0.6612 Q-0.8801,-1.3224 -1.1195,-1.901 T-1.4891,-3.2366 -1.6901,-4.6244 -1.7995,-5.8194 -1.6401,-6.9095 -1.3346,-7.9426 -0.9472,-8.7257 -0.2941,-9.3729 0.5012,-9.9461 1.3739,-10.0368 2.2887,-9.865 3.2264,-9.5504 3.9576,-8.9392 4.3554,-8.1666 4.793,-7.3063 5.2522,-6.3983 5.502,-5.462 5.6379,-4.5126 5.4906,-3.7773 4.9682,-3.1561 4.0228,-2.597 2.6285,-2.2928 1.2087,-2.3485 0.2152,-2.8189 -0.3252,-3.5148 -0.6192,-4.3357 -0.7792,-5.2223 -0.8662,-6.3635 -0.6924,-7.4244 -0.1555,-8.2227 0.5766,-8.8781 1.4149,-9.0135 2.0921,-8.6471 2.4605,-8.0077 2.8798,-7.4388 3.3268,-6.9104 3.5699,-6.1829 3.7022,-5.3448 3.5553,-4.6677 3.0353,-4.0805 2.3194,-3.3159 0.965,-1.45 -0.44,-0.6612 Z" stroke-linecap="round" fill="none" stroke="#e03131" stroke-width="2.8981903290215643" stroke-dasharray="none" stroke-dashoffset="0"/></g></g><g transform="matrix(1, 0, 0, 1, 3321.2887, 17562.4436) scale(0.9660634430071882, 0.9660634430071882)" opacity="1"><g transform="scale(1.0351287042672614)"><path d="M0,0 Q1.3224,-1.3224 1.901,-1.901 T3.2366,-3.4555 4.6244,-5.1835 5.8194,-6.5636 6.9095,-7.7544 7.9426,-8.8445 8.9469,-9.8776 9.9333,-10.8796 10.9099,-11.8647 11.8812,-12.8407 12.8497,-13.8139 13.8188,-14.7834 14.7861,-15.7509 15.7523,-16.7195 16.9391,-17.6864 18.246,-18.6525 19.3969,-19.8392 20.4631,-21.146 21.4854,-22.297 22.4816,-23.3631 23.4635,-24.3831 24.4378,-25.3781 25.4078,-26.3616 26.5967,-27.5579 27.9046,-28.8676 29.0562,-30.0201 30.1227,-31.3082 31.3641,-32.6702 32.7006,-33.8512 33.8677,-34.9336 35.1638,-36.1837 36.7512,-37.7438 38.2737,-39.2537 39.7631,-40.7363 41.4557,-42.4229 43.0354,-44.0016 44.556,-45.5216 46.0444,-47.0097 47.5153,-48.4805 48.9766,-49.9417 50.4305,-51.1767 51.6615,-52.2886 52.5523,-53.3357 53.6981,-54.5666 55.2015,-56.1163 56.6805,-57.6205 57.9274,-58.8788 59.0458,-60.0034 60.3131,-61.0552 61.4426,-62.0674 62.4993,-63.2793 63.9566,-64.8186 65.4082,-66.3172 66.6379,-67.5748 67.7492,-68.6989 68.7938,-69.7505 70.021,-70.7626 71.5709,-71.9744 73.0753,-73.5159 74.5549,-75.0157 76.021,-76.2717 77.2586,-77.395 78.153,-78.4461 78.8584,-79.2367 79.6822,-79.888 80.5727,-80.6846 81.4971,-81.558 82.4401,-82.4732 83.3931,-83.4111 84.3516,-84.3614 85.3153,-85.3206 86.2796,-86.2825 87.2442,-87.2458 87.9901,-88.2099 88.836,-89.1744 89.9573,-90.1414 91.0073,-91.1075 91.7974,-92.0731 92.4484,-93.0384 93.4637,-94.0036 94.4561,-94.9709 95.2171,-95.9372 96.0712,-96.6818 96.9758,-97.748 97.9079,-98.9892 98.8551,-99.8856 99.5915,-100.8133 100.2132,-101.758 100.9915,-102.7119 101.855,-103.6709 102.7647,-104.635 103.6996,-105.5994 104.4294,-106.5641 105.0476,-107.3101 105.8239,-107.937 106.4651,-108.7182 107.035,-109.5831 107.7874,-110.4937 108.6368,-111.4291 109.3177,-112.3803 109.9093,-113.1189 110.4522,-113.7395 110.9665,-114.2961 111.6863,-114.82 112.5202,-115.545 113.195,-116.3795 113.7809,-117.0546 114.5398,-117.643 115.3926,-118.4032 116.0754,-119.2567 116.668,-119.9422 117.44,-120.4719 L117.86,-120.76 " stroke-linecap="round" fill="none" stroke="#e03131" stroke-width="2.8981903290215643" stroke-dasharray="none" stroke-dashoffset="0"/></g></g><g transform="matrix(1, 0, 0, 1, 3437.2164, 17443.6178) scale(0.9660634430071882, 0.9660634430071882)" opacity="1"><g transform="scale(1.0351287042672614)"><path d="M0,0 Q-0.4423,0 -0.5626,-0.2212 T-0.7484,-0.7815 -0.8494,-1.5264 -0.9044,-2.3716 -0.492,-3.2715 0.3936,-3.9822 1.5342,-4.3688 2.8159,-4.5791 3.9555,-4.4723 5.0155,-3.9742 5.811,-3.2632 6.2437,-2.4364 6.4792,-1.5466 6.6072,-0.6202 6.458,0.3238 6.158,1.2774 5.5524,2.0173 4.5618,2.4198 3.5829,2.6388 2.6103,2.7579 1.8623,2.6015 1.4554,2.0764 1.0129,1.3507 0.551,0.5136 0.2998,-0.3818 0.1631,-1.3089 0.3099,-2.2533 0.8298,-3.2071 1.7715,-3.9472 3.1242,-4.5189 L3.86,-4.83 " stroke-linecap="round" fill="none" stroke="#e03131" stroke-width="2.8981903290215643" stroke-dasharray="none" stroke-dashoffset="0"/></g></g><g transform="matrix(1, 0, 0, 1, 3440.1145, 17443.6178) scale(0.9660634430071882, 0.9660634430071882)" opacity="1"><g transform="scale(1.0351287042672614)"><path d="M0.97,0 Q2.2878,1.3224 2.6463,1.901 T3.4209,3.2366 4.2846,4.4055 4.9756,5.2603 5.5704,5.9442 6.334,6.5373 6.9706,7.3001 7.5358,8.155 8.2833,8.8413 9.1322,9.4358 9.8152,10.1992 10.4056,10.8334 11.1669,11.3996 11.8021,12.1476 12.3666,12.7734 13.1137,13.335 13.9625,14.0829 14.8642,14.9297 15.7948,15.6093 16.7434,16.2001 17.6994,16.9639 18.6596,17.8194 19.6219,18.7248 20.5855,19.6574 21.3308,20.6048 21.9574,21.3413 22.7384,21.9632 23.6032,22.7415 24.5138,23.6049 25.4491,24.5147 26.4003,25.4496 27.1389,26.4006 27.7595,27.139 28.5372,27.7596 29.4003,28.5373 30.3099,29.4004 31.247,30.3099 32.1969,31.247 33.1536,32.1969 34.1141,32.9325 35.0767,33.5538 36.0426,34.3318 37.0082,35.1951 37.9734,36.1071 38.9386,36.8243 39.9037,37.4334 40.871,38.2048 41.8373,39.0644 43.0218,39.9721 44.3274,40.9082 45.48,41.8575 46.547,42.814 47.5676,43.7743 48.565,44.7368 49.5477,45.7027 50.5223,46.6682 51.2737,47.6335 51.9013,48.3797 52.6827,49.0068 53.5502,49.788 54.4621,50.6531 55.3982,51.5637 56.1286,52.4991 56.7449,53.2291 57.5201,53.8474 58.3842,54.6238 59.2943,55.4862 60.4483,56.3954 61.5161,57.33 62.3182,58.2808 63.1968,59.238 64.1148,59.9776 65.0543,60.6012 66.0054,61.3804 67.184,62.2443 68.2674,63.1566 69.0757,63.8741 69.9555,64.4833 70.8741,65.2547 71.8139,66.1144 72.7674,67.0221 73.5073,67.9582 74.1287,68.6886 74.9068,69.3049 75.7724,70.0801 76.6833,70.9419 77.3977,71.8508 78.0075,72.7875 79.0004,73.7371 79.9806,74.6938 80.735,75.6565 81.3666,76.6202 81.929,77.3634 82.675,77.9889 83.5209,78.7691 84.1999,79.6337 84.7905,80.3251 85.5541,80.9224 86.4095,81.6874 87.3149,82.5436 88.0286,83.4494 88.6357,84.161 89.1849,84.7693 89.7048,85.5425 90.4299,86.4032 91.4856,87.3115 92.4999,88.2456 93.4918,89.1938 94.4714,90.152 95.2254,90.8943 95.8568,91.5171 96.6403,92.2959 97.5066,93.1596 98.1967,93.8483 99.0122,94.4442 99.6769,95.2106 100.2597,95.8487 101.0168,96.4148 101.6475,97.1627 102.2118,97.7908 102.9588,98.3513 103.5841,99.0963 104.1454,99.9438 104.893,100.845 105.5209,101.7752 106.0814,102.5024 107.0475,103.1169 108.0153,103.8912 108.7607,104.5336 109.6063,105.1043 110.5063,105.8547 111.2148,106.703 111.8214,107.6068 112.3725,108.5385 112.8935,109.2642 113.6169,109.8802 114.2294,110.6553 114.7837,111.517 115.5253,112.4281 116.3688,113.3638 117.2699,114.0916 118.2803,114.6541 L118.83,114.96 " stroke-linecap="round" fill="none" stroke="#e03131" stroke-width="2.8981903290215643" stroke-dasharray="none" stroke-dashoffset="0"/></g></g><g transform="matrix(1, 0, 0, 1, 3560.8725, 17555.6812) scale(0.9660634430071882, 0.9660634430071882)" opacity="1"><g transform="scale(1.0351287042672614)"><path d="M0,0 Q-1.7602,0.4423 -2.4601,0.5626 T-3.7619,0.9673 -4.9102,1.6274 -5.7537,2.4266 -6.2126,3.3014 -6.4622,4.2196 -6.598,5.1591 -6.453,6.1103 -5.9341,7.0678 -5.2095,7.8075 -4.3752,8.4311 -3.2625,8.9915 -1.7748,9.2963 -0.3043,9.241 0.9357,8.9897 2.0503,8.6342 2.8755,8.0007 3.3244,7.2161 3.5687,6.3492 3.9227,5.6564 4.3364,4.8395 4.5615,3.7339 4.4628,2.6925 4.1879,1.6859 3.8195,0.6959 3.179,-0.0637 2.1694,-0.6959 0.959,-1.2586 -0.1395,-1.3459 -1.1771,-1.1745 -1.9628,-0.8601 -2.609,-0.2467 -3.4006,0.527 -4.2736,1.6068 -5.1885,2.6343 -5.9051,3.4144 -6.2949,4.281 -6.507,5.1926 -6.6224,6.1285 -6.4663,7.0777 -5.9413,8.034 -4.9945,8.7755 -3.5994,9.1788 -1.9581,9.3982 -0.6229,9.2964 0.4088,8.9037 L0.97,8.69 " stroke-linecap="round" fill="none" stroke="#f2f2f2" stroke-width="2.8981903290215643" stroke-dasharray="none" stroke-dashoffset="0"/></g></g><g transform="matrix(1, 0, 0, 1, 3565.7028, 17554.7151) scale(0.9660634430071882, 0.9660634430071882)" opacity="1"><g transform="scale(1.0351287042672614)"><path d="M0,0 Q1.3224,-1.3224 1.901,-1.901 T2.7943,-3.0154 3.5014,-4.064 4.3284,-5.0745 5.6584,-6.5043 7.0408,-8.1645 8.014,-9.5076 8.9857,-10.6783 9.9544,-11.5364 10.9214,-12.222 11.8875,-13.0351 12.6319,-13.9197 13.258,-14.8409 14.041,-15.7822 14.9069,-16.7365 15.818,-17.6957 16.756,-18.6575 17.7063,-19.6208 18.4422,-20.5849 19.0636,-21.5517 19.8417,-22.5176 20.7051,-23.262 21.3959,-23.8881 21.9928,-24.6687 22.7576,-25.5334 23.6137,-26.4461 24.5195,-27.3827 25.4522,-28.3322 26.402,-29.2888 27.3587,-30.2492 28.3192,-30.9929 29.2817,-31.6186 30.0242,-32.399 30.6493,-33.2636 31.4317,-34.1739 32.2973,-35.1092 33.2083,-35.8392 34.1438,-36.4574 35.0929,-37.2338 35.8303,-38.0962 36.4526,-39.0054 37.2312,-39.94 38.0948,-40.6696 39.0046,-41.2877 39.9396,-42.0639 40.6694,-42.9263 41.2875,-43.8354 42.0639,-44.77 42.9262,-45.7208 43.8354,-46.678 44.77,-47.4176 45.7208,-48.2623 46.8992,-49.383 48.2014,-50.4327 49.3499,-51.4438 50.4147,-52.4339 51.2151,-53.4148 51.8694,-54.1696 52.8866,-54.799 54.1011,-55.5815 55.2018,-56.4472 56.2407,-57.5794 57.2458,-58.6376 58.235,-59.4321 59.2131,-60.3044 60.1853,-61.219 61.1541,-62.1565 62.1213,-63.1089 63.0897,-64.067 64.0565,-65.0282 65.2414,-65.9912 66.5472,-67.1763 67.6999,-68.4821 68.767,-69.6326 70.0064,-70.6984 71.563,-71.7183 73.071,-72.7154 74.3314,-73.6979 75.4594,-74.6724 76.513,-75.6449 77.5262,-76.6139 78.7386,-77.5811 80.0594,-78.5473 81.2179,-79.513 82.5071,-80.6995 83.8696,-82.0062 85.0531,-83.157 86.137,-84.2231 87.1666,-85.2454 88.1668,-86.2416 89.1509,-87.2235 90.3475,-88.1978 91.6596,-89.1678 92.8135,-90.1378 93.8812,-91.1055 94.9044,-92.072 95.901,-93.0378 96.6621,-94.0032 97.2972,-94.9708 98.304,-95.9371 99.2917,-96.9029 100.0502,-97.8683 100.9028,-98.6123 101.5855,-99.2383 102.1781,-100.0211 102.9405,-100.887 103.5741,-101.7981 104.14,-102.5149 104.8901,-103.1237 105.5193,-103.8949 106.0805,-104.7568 106.8258,-105.6657 107.6736,-106.379 108.5748,-106.9882 109.5052,-107.762 110.2324,-108.6229 110.8469,-109.3101 111.6212,-109.9052 112.2636,-110.6689 112.8343,-111.3032 113.5893,-111.7934 L114,-112.06 " stroke-linecap="round" fill="none" stroke="#e03131" stroke-width="2.8981903290215643" stroke-dasharray="none" stroke-dashoffset="0"/></g></g><g transform="matrix(1, 0, 0, 1, 3557.5411, 17445.2932) scale(1.3885673751760954, 1.3885673751760954)" opacity="1"><g transform="scale(0.72016671130069)"><path d="M-1.7069,-1.5823 Q-2.0238,-3.1646 -1.5624,-4.3423 T-0.533,-6.4776 0.9777,-7.9562 3.065,-8.7605 4.832,-8.5642 6.1102,-7.5066 7.1224,-5.9828 7.99,-3.8885 8.145,-1.7984 6.964,-0.3445 5.373,0.4464 3.6936,1.0576 0.695,0.695 -1.7069,-1.5823 Z" stroke-linecap="round" fill="none" stroke="#e03131" stroke-width="4.165702125528286" stroke-dasharray="none" stroke-dashoffset="0"/></g></g><g transform="matrix(1, 0, 0, 1, 3431.8037, 17445.7353) scale(1.2632841943013982, 1.2632841943013982)" opacity="1"><g transform="scale(0.7915875180825835)"><path d="M0,1.26 Q-2.3028,2.4137 -3.2187,3.0148 T-4.9202,4.2324 -6.4203,5.4716 -7.8133,6.7203 -9.1479,7.9765 -10.4484,9.2366 -11.7328,10.4967 -13.0083,11.7591 -14.2768,13.3099 -15.5436,15.0177 -16.8097,16.5235 -18.0729,17.9173 -19.337,19.5396 -20.6015,21.2863 -21.8639,22.8133 -23.1275,24.2208 -24.3918,25.5611 -25.6541,26.867 -26.9176,28.1543 -28.1818,29.4291 -29.4441,30.4099 -30.9949,31.233 -32.7027,32.2577 -34.2085,33.6792 -35.6046,35.3166 -36.9386,36.4946 -38.5284,37.4228 -39.9701,38.5045 -41.0416,39.6698 -42.4887,40.8783 -44.14,42.1103 -45.6129,43.3573 -46.991,44.6125 -48.3175,45.8699 -49.6137,47.1308 -50.8956,48.3936 -52.1699,49.6551 -53.4376,50.9182 -54.7041,52.1821 -55.9699,53.4443 -57.2331,54.7077 -58.7844,55.9719 -60.2051,57.2341 -61.5548,58.4977 -63.1532,60.0491 -64.5972,61.4677 -66.2469,62.5289 -68.0085,63.6831 -69.5436,64.8855 -70.6683,66.1165 -71.8547,67.363 -73.3642,68.6156 -74.7622,69.8739 -75.81,71.1352 -76.6673,72.396 -77.7105,73.6586 -78.8548,74.9224 -80.0519,76.1844 -81.5672,77.4478 -82.9684,78.7119 -84.0179,79.9742 -85.453,81.2377 -87.0978,82.5019 -88.2798,83.7641 -89.2124,85.0276 -90.2966,86.2918 -91.461,87.5541 -92.6712,88.8176 -93.9064,90.3691 -95.1529,92.0772 -96.4079,93.5833 -97.6674,94.9772 -98.9271,96.5995 -100.1893,98.3462 -101.4527,99.8733 -102.7146,101.2808 -103.9779,102.6211 -105.242,104.2143 -106.6267,106.2646 L-107.38,107.38 " stroke-linecap="round" fill="none" stroke="#e599f7" stroke-width="3.7898525829041945" stroke-dasharray="none" stroke-dashoffset="0"/></g></g><g transform="matrix(1, 0, 0, 1, 3323.1613, 17553.1144) scale(1.2632841943013982, 1.2632841943013982)" opacity="1"><g transform="scale(0.7915875180825835)"><path d="M0,0 Q0,-2.3028 0,-3.506 T0,-5.9406 0.2873,-8.1291 0.7308,-9.607 0.9721,-9.8341 1.1034,-8.8062 0.8875,-7.0957 0.4828,-5.0114 0.2627,-2.7262 0.4302,-0.6189 1.3854,0.817 3.0587,1.3086 5.1204,1.2864 7.3934,1.2744 9.9689,1.2651 L11.37,1.26 " stroke-linecap="round" fill="none" stroke="#e599f7" stroke-width="3.7898525829041945" stroke-dasharray="none" stroke-dashoffset="0"/></g></g><g transform="matrix(1, 0, 0, 1, 3435.5936, 17565.7473) scale(1.2632841943013982, 1.2632841943013982)" opacity="1"><g transform="scale(0.7915875180825835)"><path d="M0,0 Q-2.8819,0 -4.2404,0 T-6.9146,0.2873 -9.5231,0.7308 -12.0935,0.9721 -14.6432,1.1034 -17.184,1.1748 -19.7175,0.9264 -22.2472,0.5039 -24.777,0.2741 -27.3046,0.1491 -29.831,0.0811 -32.3591,0.0441 -34.8857,0.024 -37.6989,0.0131 -40.6703,0.0071 -43.1508,0.0039 -45.3643,0.2894 -47.7199,0.732 -50.1527,0.9728 -52.6298,1.3933 -55.1288,1.9116 -57.6396,2.1936 -59.8696,2.6343 -61.9469,3.1613 -64.2306,3.448 -66.6243,3.6039 -69.0779,3.6888 -71.5663,3.7349 -74.0715,3.76 -76.5856,3.7737 -79.107,3.7811 -81.6301,3.7852 -84.154,3.7874 -86.6807,3.7886 -89.2066,3.7892 -91.7321,3.7896 -94.2597,3.7898 -96.7861,3.7899 -99.0245,3.7899 -101.1064,3.79 -102.8135,3.2131 -103.4549,2.3225 -103.2292,1.838 -102.5296,1.2872 -101.8595,0.7002 -101.7845,0.3809 -102.0332,0.4945 -102.7431,0.8436 -103.9934,1.323 -104.9631,2.448 -105.2011,3.6345 -104.7537,4.5695 -103.6462,5.3677 -101.9712,5.9845 L-101.06,6.32 " stroke-linecap="round" fill="none" stroke="#4dabf7" stroke-width="3.7898525829041945" stroke-dasharray="none" stroke-dashoffset="0"/></g></g><g transform="matrix(1, 0, 0, 1, 3359.7965, 17589.7497) scale(1.2632841943013982, 1.2632841943013982)" opacity="1"><g transform="scale(0.7915875180825835)"><path d="M0,0 Q-1.7282,2.3028 -2.4856,3.2187 T-4.2318,5.2075 -6.91,7.728 -10.6147,10.9029 L-12.63,12.63 " stroke-linecap="round" fill="none" stroke="#4dabf7" stroke-width="3.7898525829041945" stroke-dasharray="none" stroke-dashoffset="0"/></g></g><g transform="matrix(1, 0, 0, 1, 3349.6903, 17592.2762) scale(1.2632841943013982, 1.2632841943013982)" opacity="1"><g transform="scale(0.7915875180825835)"><path d="M0,0 Q1.1537,2.8819 1.7548,4.2404 T2.9701,6.3378 4.2081,8.0556 5.7457,9.8543 7.7498,11.652 L8.84,12.63 " stroke-linecap="round" fill="none" stroke="#4dabf7" stroke-width="3.7898525829041945" stroke-dasharray="none" stroke-dashoffset="0"/></g></g><g transform="matrix(1, 0, 0, 1, 3367.3762, 17599.8559) scale(1.2632841943013982, 1.2632841943013982)" opacity="1"><g transform="scale(0.7915875180825835)"><path d="M0,0 Q2.8819,0.5746 4.2404,1.0204 T6.9146,1.7088 9.2336,2.3705 11.0719,2.7305 12.3615,2.0622 12.7735,0.545 12.4208,-1.1445 11.6543,-2.3508 10.9501,-2.7198 10.8543,-2.0564 11.3767,-0.8314 12.2378,0.6991 13.283,2.6854 14.1389,4.9173 14.6045,6.9956 14.281,8.7031 12.9536,9.6319 11.1119,9.9416 L10.11,10.11 " stroke-linecap="round" fill="none" stroke="#4dabf7" stroke-width="3.7898525829041945" stroke-dasharray="none" stroke-dashoffset="0"/></g></g><g transform="matrix(1, 0, 0, 1, 3395.1685, 17592.2762) scale(1.2632841943013982, 1.2632841943013982)" opacity="1"><g transform="scale(0.7915875180825835)"><path d="M0,0 Q-1.1537,4.6102 -1.7548,6.1514 T-2.6828,9.1079 -3.475,12.1572 -4.4827,15.2547 -5.3205,17.8039 -5.9679,20.1848 L-6.32,21.48 " stroke-linecap="round" fill="none" stroke="#4dabf7" stroke-width="3.7898525829041945" stroke-dasharray="none" stroke-dashoffset="0"/></g></g><g transform="matrix(1, 0, 0, 1, 3404.0115, 17603.6458) scale(1.2632841943013982, 1.2632841943013982)" opacity="1"><g transform="scale(0.7915875180825835)"><path d="M0,0 Q0,2.3028 0,3.506 T-0.2873,5.651 -1.0204,7.9693 -1.9981,10.9879 L-2.53,12.63 " stroke-linecap="round" fill="none" stroke="#4dabf7" stroke-width="3.7898525829041945" stroke-dasharray="none" stroke-dashoffset="0"/></g></g><g transform="matrix(1, 0, 0, 1, 3406.538, 17611.2255) scale(1.2632841943013982, 1.2632841943013982)" opacity="1"><g transform="scale(0.7915875180825835)"><path d="M-1.26,0 Q-4.1419,-0.5746 -5.861,-0.9173 L-7.58,-1.26 " stroke-linecap="round" fill="none" stroke="#4dabf7" stroke-width="3.7898525829041945" stroke-dasharray="none" stroke-dashoffset="0"/></g></g><g transform="matrix(1, 0, 0, 1, 3392.6419, 17591.0129) scale(1.2632841943013982, 1.2632841943013982)" opacity="1"><g transform="scale(0.7915875180825835)"><path d="M0,0 Q-2.8819,1.1537 -3.6658,1.4675 T-4.5866,1.952 -4.5106,2.2156 -3.3179,2.0694 -1.169,1.5452 L0,1.26 " stroke-linecap="round" fill="none" stroke="#4dabf7" stroke-width="3.7898525829041945" stroke-dasharray="none" stroke-dashoffset="0"/></g></g></svg>