<svg xmlns="http://www.w3.org/2000/svg" direction="ltr" width="3133.754998563178" height="878.9659256873856" viewBox="419.41060409792954 5653.25143170909 3133.754998563178 878.9659256873856" stroke-linecap="round" stroke-linejoin="round" style="background-color: transparent;"><defs/><g transform="matrix(1, 0, 0, 1, 677.8424, 5754.9952) scale(4.359237673181036, 4.359237673181036)" opacity="1"><g transform="scale(0.2293979073800482)"><path fill="#33373c" d="M0,-4.4307 Q0,-8.8614 -0.8861,-12.3772 T-3.1843,-18.8638 -6.3206,-23.5978 -9.9544,-27.2936 -13.8833,-30.3733 -17.9875,-32.2012 -22.1936,-33.286 -26.4602,-33.9299 -30.7648,-33.4259 -35.9781,-32.2406 -41.7306,-30.653 -46.9171,-28.8267 -51.7676,-26.8566 -57.3049,-23.915 -63.2498,-20.3969 -68.5504,-17.4227 -73.4687,-14.7713 -78.1581,-11.4254 -82.7115,-7.6673 -87.1863,-3.6645 -90.7283,0.4835 -93.7166,4.7176 -96.3764,9.0029 -97.955,14.2048 -98.892,20.8346 -99.4481,27.4259 -99.7781,33.1102 -99.974,38.2562 -100.0902,43.0827 -99.2731,46.8335 -97.902,50.8319 -96.2021,55.8634 -93.4209,60.622 -90.8841,65.2185 -88.4943,69.7189 -86.1919,74.1622 -83.9392,78.5697 -81.716,82.9558 -79.5104,87.3313 -76.4291,92.5866 -72.828,97.478 -69.8046,101.2672 -67.124,105.2885 -63.7607,108.5613 -59.9923,111.3899 -56.8696,114.841 -54.13,118.6616 -50.7318,122.7014 -46.9426,126.8714 -43.8076,131.1186 -41.0607,135.4096 -37.6581,139.7266 -34.7525,144.0611 -32.1439,148.406 -29.7115,154.5293 -27.3818,162.5942 -25.1129,170.0393 -23.7662,176.2304 -22.967,182.5632 -22.4926,188.9783 -23.0972,195.4421 -24.3422,201.9369 -25.0811,208.45 -26.4038,214.9741 -28.959,222.3908 -32.2479,230.3372 -35.9721,236.8259 -39.9548,243.3354 -44.0909,249.8552 -49.2041,255.4951 -54.8973,261.5009 -60.0486,267.7238 -65.7643,273.1895 -71.8151,279.0919 -78.0627,285.2534 -85.3133,291.5688 -93.1612,297.9755 -101.3636,304.4343 -109.7764,310.9241 -117.4279,317.4343 -124.6276,323.9567 -132.4432,330.4862 -139.7383,337.9061 -145.8403,345.8545 -152.1204,353.2303 -158.5061,360.2644 -164.0684,367.9818 -170.0281,376.1067 -176.2237,384.4735 -181.6732,393.87 -186.6798,403.8777 -191.4215,413.3599 -196.006,422.5302 -200.4993,432.4037 -204.9384,442.6944 -208.4592,452.3466 -211.435,462.506 -214.0873,472.9645 -216.5476,483.6004 -218.894,495.2298 -221.1728,506.5627 -223.4114,517.7196 -224.74,528.77 -225.5286,538.8712 -225.9966,549.297 -225.3883,560.8018 -224.1411,572.0607 -222.5147,583.1717 -220.6633,594.1949 -218.6783,605.168 -215.7279,616.1114 -211.3184,627.0371 -206.0449,637.9504 -200.2586,647.9701 -193.2798,657.4615 -185.5933,666.6393 -177.4866,675.631 -169.1307,684.5123 -160.6267,692.4419 -151.1509,699.8046 -141.0981,706.8309 -131.5872,713.6595 -122.3977,720.3707 -112.5129,726.1263 -101.3314,731.3145 -89.3802,736.1661 -76.9701,739.9317 -64.2877,742.1667 -51.4458,743.4932 -35.8507,744.2805 -18.6195,744.7477 -3.9619,744.1389 8.2802,742.0053 19.9747,738.9667 30.4601,735.391 39.3417,730.6103 49.0438,724.2304 59.2329,716.9013 67.9386,709.0068 75.762,699.8907 83.0616,690.0494 89.1664,679.7778 93.6758,668.3666 97.2383,656.2791 100.2388,643.7882 102.9059,630.1717 105.3749,616.7753 106.8403,604.3957 107.7101,591.7314 108.2263,578.8981 108.5327,566.8506 108.7145,555.2717 108.8224,543.9707 108.8865,533.7189 108.9245,524.0897 108.9471,514.8301 108.9604,505.7898 108.9684,496.8818 108.9731,488.0522 109.862,480.1533 111.2758,472.8068 113.001,465.7881 114.9111,458.964 116.9309,451.3692 119.9019,443.3191 123.4376,434.9987 127.3083,427.402 132.262,420.2349 138.7446,412.4365 145.2506,404.2635 151.7704,395.8682 159.1845,387.3429 166.2433,378.7405 173.0912,370.9764 179.814,363.7099 185.5763,355.8526 191.6527,347.6446 197.9156,339.2285 203.4049,330.6909 208.4352,322.0812 213.193,313.4266 216.903,303.8593 219.9911,293.7503 223.5962,283.3198 226.622,272.7005 229.304,261.9691 231.7819,251.1691 233.2526,241.2147 234.1255,231.762 234.6436,222.6071 234.951,213.6311 235.1335,204.7611 235.2418,195.9522 234.42,188.0655 233.0461,180.7262 231.3445,172.8257 228.5623,165.4782 225.1388,158.4589 220.4484,151.6365 215.0062,145.8171 210.0039,140.5909 204.3786,135.7168 198.3835,131.0516 192.1669,127.3967 185.8189,124.3413 179.3928,120.7555 172.9204,117.7412 166.4206,115.0661 159.9044,111.706 153.3805,108.8257 146.8522,106.23 141.2052,102.9171 136.0814,99.1786 131.268,95.1875 126.639,91.9326 123.0054,89.1166 119.9627,85.6751 116.3845,80.0879 113.3747,73.2273 110.7022,66.497 108.2299,58.9579 106.7625,51.825 105.8916,44.933 105.3747,37.3 105.9541,29.2272 107.1841,20.8914 108.8002,12.3993 110.6456,3.8146 112.627,-4.825 114.6891,-12.6112 115.913,-20.775 116.6394,-30.0489 116.1844,-38.2116 115.0282,-44.8285 113.4558,-50.528 110.7503,-55.6831 107.3723,-59.6288 103.5951,-62.8568 99.581,-65.6588 94.5422,-67.3218 88.8953,-68.3088 83.7714,-68.8946 78.9581,-69.2423 74.329,-69.4487 69.8093,-69.5712 64.4684,-69.6439 58.64,-69.687 53.4086,-69.7126 48.5313,-68.8417 43.8643,-67.4386 39.3221,-66.6059 35.7401,-65.2255 32.7301,-62.634 30.0594,-59.3236 28.4744,-55.5865 26.6475,-51.5963 24.6771,-47.4557 22.6214,-43.2259 20.5153,-38.9432 19.2652,-34.6311 17.6372,-31.1878 15.7847,-28.2579 14.6853,-24.7467 13.1466,-20.0044 11.3473,-14.5313 9.6985,-8.1484 4.36,-2.18 0,-4.4307 Z"/><path d="M0,-4.4307 Q0,-8.8614 -0.8861,-12.3772 T-3.1843,-18.8638 -6.3206,-23.5978 -9.9544,-27.2936 -13.8833,-30.3733 -17.9875,-32.2012 -22.1936,-33.286 -26.4602,-33.9299 -30.7648,-33.4259 -35.9781,-32.2406 -41.7306,-30.653 -46.9171,-28.8267 -51.7676,-26.8566 -57.3049,-23.915 -63.2498,-20.3969 -68.5504,-17.4227 -73.4687,-14.7713 -78.1581,-11.4254 -82.7115,-7.6673 -87.1863,-3.6645 -90.7283,0.4835 -93.7166,4.7176 -96.3764,9.0029 -97.955,14.2048 -98.892,20.8346 -99.4481,27.4259 -99.7781,33.1102 -99.974,38.2562 -100.0902,43.0827 -99.2731,46.8335 -97.902,50.8319 -96.2021,55.8634 -93.4209,60.622 -90.8841,65.2185 -88.4943,69.7189 -86.1919,74.1622 -83.9392,78.5697 -81.716,82.9558 -79.5104,87.3313 -76.4291,92.5866 -72.828,97.478 -69.8046,101.2672 -67.124,105.2885 -63.7607,108.5613 -59.9923,111.3899 -56.8696,114.841 -54.13,118.6616 -50.7318,122.7014 -46.9426,126.8714 -43.8076,131.1186 -41.0607,135.4096 -37.6581,139.7266 -34.7525,144.0611 -32.1439,148.406 -29.7115,154.5293 -27.3818,162.5942 -25.1129,170.0393 -23.7662,176.2304 -22.967,182.5632 -22.4926,188.9783 -23.0972,195.4421 -24.3422,201.9369 -25.0811,208.45 -26.4038,214.9741 -28.959,222.3908 -32.2479,230.3372 -35.9721,236.8259 -39.9548,243.3354 -44.0909,249.8552 -49.2041,255.4951 -54.8973,261.5009 -60.0486,267.7238 -65.7643,273.1895 -71.8151,279.0919 -78.0627,285.2534 -85.3133,291.5688 -93.1612,297.9755 -101.3636,304.4343 -109.7764,310.9241 -117.4279,317.4343 -124.6276,323.9567 -132.4432,330.4862 -139.7383,337.9061 -145.8403,345.8545 -152.1204,353.2303 -158.5061,360.2644 -164.0684,367.9818 -170.0281,376.1067 -176.2237,384.4735 -181.6732,393.87 -186.6798,403.8777 -191.4215,413.3599 -196.006,422.5302 -200.4993,432.4037 -204.9384,442.6944 -208.4592,452.3466 -211.435,462.506 -214.0873,472.9645 -216.5476,483.6004 -218.894,495.2298 -221.1728,506.5627 -223.4114,517.7196 -224.74,528.77 -225.5286,538.8712 -225.9966,549.297 -225.3883,560.8018 -224.1411,572.0607 -222.5147,583.1717 -220.6633,594.1949 -218.6783,605.168 -215.7279,616.1114 -211.3184,627.0371 -206.0449,637.9504 -200.2586,647.9701 -193.2798,657.4615 -185.5933,666.6393 -177.4866,675.631 -169.1307,684.5123 -160.6267,692.4419 -151.1509,699.8046 -141.0981,706.8309 -131.5872,713.6595 -122.3977,720.3707 -112.5129,726.1263 -101.3314,731.3145 -89.3802,736.1661 -76.9701,739.9317 -64.2877,742.1667 -51.4458,743.4932 -35.8507,744.2805 -18.6195,744.7477 -3.9619,744.1389 8.2802,742.0053 19.9747,738.9667 30.4601,735.391 39.3417,730.6103 49.0438,724.2304 59.2329,716.9013 67.9386,709.0068 75.762,699.8907 83.0616,690.0494 89.1664,679.7778 93.6758,668.3666 97.2383,656.2791 100.2388,643.7882 102.9059,630.1717 105.3749,616.7753 106.8403,604.3957 107.7101,591.7314 108.2263,578.8981 108.5327,566.8506 108.7145,555.2717 108.8224,543.9707 108.8865,533.7189 108.9245,524.0897 108.9471,514.8301 108.9604,505.7898 108.9684,496.8818 108.9731,488.0522 109.862,480.1533 111.2758,472.8068 113.001,465.7881 114.9111,458.964 116.9309,451.3692 119.9019,443.3191 123.4376,434.9987 127.3083,427.402 132.262,420.2349 138.7446,412.4365 145.2506,404.2635 151.7704,395.8682 159.1845,387.3429 166.2433,378.7405 173.0912,370.9764 179.814,363.7099 185.5763,355.8526 191.6527,347.6446 197.9156,339.2285 203.4049,330.6909 208.4352,322.0812 213.193,313.4266 216.903,303.8593 219.9911,293.7503 223.5962,283.3198 226.622,272.7005 229.304,261.9691 231.7819,251.1691 233.2526,241.2147 234.1255,231.762 234.6436,222.6071 234.951,213.6311 235.1335,204.7611 235.2418,195.9522 234.42,188.0655 233.0461,180.7262 231.3445,172.8257 228.5623,165.4782 225.1388,158.4589 220.4484,151.6365 215.0062,145.8171 210.0039,140.5909 204.3786,135.7168 198.3835,131.0516 192.1669,127.3967 185.8189,124.3413 179.3928,120.7555 172.9204,117.7412 166.4206,115.0661 159.9044,111.706 153.3805,108.8257 146.8522,106.23 141.2052,102.9171 136.0814,99.1786 131.268,95.1875 126.639,91.9326 123.0054,89.1166 119.9627,85.6751 116.3845,80.0879 113.3747,73.2273 110.7022,66.497 108.2299,58.9579 106.7625,51.825 105.8916,44.933 105.3747,37.3 105.9541,29.2272 107.1841,20.8914 108.8002,12.3993 110.6456,3.8146 112.627,-4.825 114.6891,-12.6112 115.913,-20.775 116.6394,-30.0489 116.1844,-38.2116 115.0282,-44.8285 113.4558,-50.528 110.7503,-55.6831 107.3723,-59.6288 103.5951,-62.8568 99.581,-65.6588 94.5422,-67.3218 88.8953,-68.3088 83.7714,-68.8946 78.9581,-69.2423 74.329,-69.4487 69.8093,-69.5712 64.4684,-69.6439 58.64,-69.687 53.4086,-69.7126 48.5313,-68.8417 43.8643,-67.4386 39.3221,-66.6059 35.7401,-65.2255 32.7301,-62.634 30.0594,-59.3236 28.4744,-55.5865 26.6475,-51.5963 24.6771,-47.4557 22.6214,-43.2259 20.5153,-38.9432 19.2652,-34.6311 17.6372,-31.1878 15.7847,-28.2579 14.6853,-24.7467 13.1466,-20.0044 11.3473,-14.5313 9.6985,-8.1484 4.36,-2.18 0,-4.4307 Z" stroke-linecap="round" fill="none" stroke="#9398b0" stroke-width="13.077713019543108" stroke-dasharray="none" stroke-dashoffset="0"/></g></g><g transform="matrix(1, 0, 0, 1, 998.2464, 5907.5685) scale(4.359237673181036, 4.359237673181036)" opacity="1"><g transform="scale(0.2293979073800482)"><path d="M0,0 Q-1.7723,-5.3168 -3.1843,-7.7808 T-6.3206,-11.7071 -10.8405,-14.9236 -16.1815,-17.7187 -21.1217,-18.4916 -26.7102,-18.0641 -32.6854,-16.9243 -38.8903,-14.4755 -45.2313,-11.2498 -50.7671,-8.4492 -55.825,-5.9009 -60.5991,-2.6161 -65.205,1.1057 -69.7109,5.0869 -74.1575,9.2221 -78.5668,13.4487 -82.0679,17.7295 -85.0321,21.1564 -88.5636,24.0744 -91.5457,27.5765 -94.2018,31.4273 -97.5505,34.599 -101.3103,38.2537 -105.314,43.0812 -109.4626,46.8326 -113.6971,49.9452 -117.0965,53.5649 -120.0002,56.5993 -122.6098,59.2865 -125.0447,61.7675 -127.376,64.1261 -129.6458,67.2983 -133.6494,70.9533 -137.7958,74.8948 -141.1429,79.0045 -144.9017,82.3277 -148.0187,85.1862 -150.7549,87.7689 -153.265,90.188 -155.6409,92.5098 -157.9372,94.774 -160.1862,97.004 -162.4071,97.4414 -163.7253,95.9287 -164.5077,93.2586 -164.972,89.0175 -165.2476,82.9578 -164.525,77.589 -163.21,73.5165 -163.3157,71.9854 -164.2646,73.7352 -165.7139,76.546 -167.4602,79.9844 -168.4966,83.7955 -169.1118,87.8296 -169.4769,91.9963 -169.6936,96.2415 -168.9361,100.5334 -166.7142,103.9668 -163.6232,106.0046 -159.4229,107.8718 L-156.93,108.98 " stroke-linecap="round" fill="none" stroke="#e599f7" stroke-width="13.077713019543108" stroke-dasharray="none" stroke-dashoffset="0"/></g></g><g transform="matrix(1, 0, 0, 1, 1133.3827, 5807.3061) scale(4.359237673181036, 4.359237673181036)" opacity="1"><g transform="scale(0.2293979073800482)"><path d="M0,0 Q-3.5445,8.8614 -6.3687,14.1474 T-11.7552,25.2293 -17.6085,38.0094 -23.7389,51.7976 -29.1497,65.2959 -35.0194,78.6222 -41.1617,90.9622 -46.5794,101.8307 -51.5672,110.9397 -56.2998,118.1184 -59.9949,122.379 -61.3018,122.2493 -61.1312,119.3944 L-61.03,117.7 " stroke-linecap="round" fill="none" stroke="#e599f7" stroke-width="13.077713019543108" stroke-dasharray="none" stroke-dashoffset="0"/></g></g><g transform="matrix(1, 0, 0, 1, 1142.1012, 5798.5876) scale(4.359237673181036, 4.359237673181036)" opacity="1"><g transform="scale(0.2293979073800482)"><path d="M0,0 Q1.7723,7.0891 2.2982,10.9651 T3.1363,18.9118 3.6337,28.057 3.0428,39.6878 1.8059,52.7937 1.0719,66.7733 0.6362,81.2713 0.3776,94.3067 0.2241,105.588 1.0191,115.8282 3.1157,127.9472 L4.36,135.14 " stroke-linecap="round" fill="none" stroke="#e599f7" stroke-width="13.077713019543108" stroke-dasharray="none" stroke-dashoffset="0"/></g></g><g transform="matrix(1, 0, 0, 1, 1150.8197, 5907.5685) scale(4.359237673181036, 4.359237673181036)" opacity="1"><g transform="scale(0.2293979073800482)"><path d="M-4.36,0 Q-11.4491,0 -14.439,0 T-21.8598,0.8861 -31.5789,2.2982 -40.8919,4.0224 -47.3055,5.0458 -53.1821,4.6154 L-56.67,4.36 " stroke-linecap="round" fill="none" stroke="#e599f7" stroke-width="13.077713019543108" stroke-dasharray="none" stroke-dashoffset="0"/></g></g><g transform="matrix(1, 0, 0, 1, 1172.6159, 5920.6462) scale(4.359237673181036, 4.359237673181036)" opacity="1"><g transform="scale(0.2293979073800482)"><path d="M0,0 Q1.7723,7.0891 3.1843,9.1928 T5.4345,11.659 6.77,10.4644 7.5627,6.2108 8.0331,0.1416 8.3123,-7.005 8.478,-13.9051 9.4625,-19.7706 10.933,-25.9083 11.8057,-32.2095 13.2098,-36.8355 14.9293,-38.695 16.836,-38.0263 20.624,-35.8572 26.4148,-32.7995 33.3963,-29.2145 40.1983,-26.2006 47.7989,-23.439 L52.31,-21.8 " stroke-linecap="round" fill="none" stroke="#e599f7" stroke-width="13.077713019543108" stroke-dasharray="none" stroke-dashoffset="0"/></g></g><g transform="matrix(1, 0, 0, 1, 1233.6452, 5907.5685) scale(4.359237673181036, 4.359237673181036)" opacity="1"><g transform="scale(0.2293979073800482)"><path d="M0,0 Q8.8614,0 12.3772,-0.8861 T18.8638,-3.1843 24.4839,-6.3206 28.7057,-9.9544 31.2114,-14.7694 31.8124,-19.3995 29.5128,-22.1476 25.4915,-22.8924 21.3326,-21.5622 17.0919,-19.0005 12.8027,-14.8216 9.3709,-9.683 7.334,-3.0886 6.1251,4.3698 6.2938,10.5688 8.1661,16.0202 11.9358,20.1419 17.7157,22.5882 24.6887,24.0401 31.4856,24.0156 37.292,23.115 43.9804,22.2898 L47.95,21.8 " stroke-linecap="round" fill="none" stroke="#e599f7" stroke-width="13.077713019543108" stroke-dasharray="none" stroke-dashoffset="0"/></g></g><g transform="matrix(1, 0, 0, 1, 1316.4707, 5894.4908) scale(4.359237673181036, 4.359237673181036)" opacity="1"><g transform="scale(0.2293979073800482)"><path d="M0,0 Q0,-1.7723 -0.8861,-1.4121 T-3.1843,0.9342 -6.3206,5.8713 -9.0682,12.3461 -10.6989,18.8453 -11.6668,24.473 -12.2413,29.5853 -10.8099,33.5058 -6.4158,34.0603 -1.1495,31.7331 3.7484,28.5816 8.4277,24.9388 12.9772,20.1184 16.5635,14.599 18.6921,9.5509 19.9554,6.5547 20.7052,6.5487 21.1502,9.2036 21.4143,13.4377 22.4572,17.723 24.8465,22.0366 28.9209,25.4809 35.3903,28.6369 L39.23,30.51 " stroke-linecap="round" fill="none" stroke="#e599f7" stroke-width="13.077713019543108" stroke-dasharray="none" stroke-dashoffset="0"/></g></g><g transform="matrix(1, 0, 0, 1, 1390.5778, 5781.1506) scale(4.359237673181036, 4.359237673181036)" opacity="1"><g transform="scale(0.2293979073800482)"><path d="M0,0 Q0,12.4019 0,18.7406 T0,31.4999 -0.8861,44.3896 -2.2982,58.2407 -3.1363,72.6625 -3.6337,87.425 -3.9289,102.3898 -4.1042,115.7022 -4.2082,127.1459 -4.2699,136.5943 -3.4204,141.3159 -1.2739,142.9062 L0,143.85 " stroke-linecap="round" fill="none" stroke="#e599f7" stroke-width="13.077713019543108" stroke-dasharray="none" stroke-dashoffset="0"/></g></g><g transform="matrix(1, 0, 0, 1, 1469.044, 5846.5392) scale(4.359237673181036, 4.359237673181036)" opacity="1"><g transform="scale(0.2293979073800482)"><path d="M 0 0 m -0.5, 0 a 0.5,0.5 0 1,0 1,0 a 0.5,0.5 0 1,0 -1,0" stroke-linecap="round" fill="#e599f7" stroke="#e599f7" stroke-width="13.077713019543108" stroke-dasharray="none" stroke-dashoffset="0"/></g></g><g transform="matrix(1, 0, 0, 1, 1460.3256, 5885.7723) scale(4.359237673181036, 4.359237673181036)" opacity="1"><g transform="scale(0.2293979073800482)"><path d="M0,0 L4.36,8.72 " stroke-linecap="round" fill="none" stroke="#e599f7" stroke-width="13.077713019543108" stroke-dasharray="none" stroke-dashoffset="0"/></g></g><g transform="matrix(1, 0, 0, 1, 1578.025, 5837.8207) scale(4.359237673181036, 4.359237673181036)" opacity="1"><g transform="scale(0.2293979073800482)"><path d="M0,0 Q-7.0891,5.3168 -10.079,6.8946 T-15.7295,10.295 -19.9694,14.0855 -21.5996,17.2213 -19.9088,19.9686 -16.2469,23.3694 -12.3012,27.1581 -8.1871,31.179 -4.8591,35.3378 -1.9978,39.5783 0.5865,44.7535 1.2342,50.4835 -0.1536,55.6567 -2.7496,60.4993 -6.0626,64.2595 -10.6873,67.3775 -16.0906,71.0003 -22.84,74.0366 -30.3884,75.8387 -36.6408,76.0222 -42.124,74.3588 -46.2644,71.5992 -48.7219,67.303 -49.2943,62.9808 -48.4507,59.0205 L-47.95,56.67 " stroke-linecap="round" fill="none" stroke="#e599f7" stroke-width="13.077713019543108" stroke-dasharray="none" stroke-dashoffset="0"/></g></g><g transform="matrix(1, 0, 0, 1, 1665.2097, 5785.5099) scale(4.359237673181036, 4.359237673181036)" opacity="1"><g transform="scale(0.2293979073800482)"><path d="M0,0 Q-5.3168,10.6336 -8.6669,16.4456 T-14.8914,28.3655 -21.2422,40.757 -27.6678,54.3145 -33.2538,69.4481 -37.4553,84.6311 -40.8351,98.0731 -42.8411,110.4818 -42.2594,120.505 -39.2557,126.4539 -33.9305,129.0985 -27.2273,128.8959 -18.3493,127.3422 L-13.08,126.42 " stroke-linecap="round" fill="none" stroke="#e599f7" stroke-width="13.077713019543108" stroke-dasharray="none" stroke-dashoffset="0"/></g></g><g transform="matrix(1, 0, 0, 1, 1652.132, 5863.9762) scale(4.359237673181036, 4.359237673181036)" opacity="1"><g transform="scale(0.2293979073800482)"><path d="M0,0 Q-7.0891,0 -11.8492,0 T-21.2068,0 -30.3052,0 -41.3781,0 L-47.95,0 " stroke-linecap="round" fill="none" stroke="#e599f7" stroke-width="13.077713019543108" stroke-dasharray="none" stroke-dashoffset="0"/></g></g><g transform="matrix(1, 0, 0, 1, 1695.7244, 5868.3354) scale(4.359237673181036, 4.359237673181036)" opacity="1"><g transform="scale(0.2293979073800482)"><path d="M-2.6584,1.7723 Q-5.3168,3.5445 -7.7808,5.4826 T-13.4794,9.4569 -20.4041,15.3583 -26.2843,22.4034 -29.7742,29.2431 -31.8456,35.9611 -31.3047,41.7205 -27.4412,46.025 -21.6036,48.5797 -14.5943,49.2099 -6.8897,47.8116 0.3416,45.2095 6.4057,41.8928 11.7771,38.152 15.8513,33.2754 18.2693,26.8385 19.7045,19.4736 19.6701,12.444 17.8775,6.4996 15.0412,2.0853 12.4718,-1.4207 10.1174,-6.0013 4.36,-4.36 -2.6584,1.7723 Z" stroke-linecap="round" fill="none" stroke="#e599f7" stroke-width="13.077713019543108" stroke-dasharray="none" stroke-dashoffset="0"/></g></g><g transform="matrix(1, 0, 0, 1, 1739.3168, 5911.9278) scale(4.359237673181036, 4.359237673181036)" opacity="1"><g transform="scale(0.2293979073800482)"><path d="M0,0 Q0,-7.0891 0,-10.079 T0,-16.6136 0,-24.0346 -0.8861,-30.2113 -2.2982,-34.7634 -1.364,-38.3513 2.735,-39.5946 8.7123,-39.4464 14.9184,-39.3584 21.973,-39.2778 L26.16,-39.23 " stroke-linecap="round" fill="none" stroke="#e599f7" stroke-width="13.077713019543108" stroke-dasharray="none" stroke-dashoffset="0"/></g></g><g transform="matrix(1, 0, 0, 1, 1778.5499, 5903.2093) scale(4.359237673181036, 4.359237673181036)" opacity="1"><g transform="scale(0.2293979073800482)"><path d="M0,0 Q3.5445,8.8614 4.5964,10.6049 T6.2726,10.7249 7.2674,7.2515 7.8579,2.5316 8.2083,-2.9281 7.5302,-8.827 6.2415,-15.8706 6.3629,-22.7074 8.2071,-27.6513 11.074,-29.6995 14.5478,-30.0289 19.266,-29.3404 26.3221,-27.3446 L30.51,-26.16 " stroke-linecap="round" fill="none" stroke="#e599f7" stroke-width="13.077713019543108" stroke-dasharray="none" stroke-dashoffset="0"/></g></g><g transform="matrix(1, 0, 0, 1, 1822.1423, 5894.4908) scale(4.359237673181036, 4.359237673181036)" opacity="1"><g transform="scale(0.2293979073800482)"><path d="M0,0 Q7.0891,-1.7723 10.079,-3.1843 T15.7295,-6.3206 20.8535,-10.8405 25.6648,-16.1815 29.4066,-21.1217 32.5135,-25.824 34.3575,-29.5011 32.7956,-30.7973 29.2122,-28.9103 24.427,-25.1339 18.9285,-20.2342 13.8927,-13.7816 10.0178,-6.4073 6.8319,0.6279 4.0548,7.4617 3.2927,13.29 5.4988,16.7492 11.2389,18.8023 19.9605,19.1347 30.4517,17.5597 41.109,14.8526 53.6103,11.0041 L61.03,8.72 " stroke-linecap="round" fill="none" stroke="#e599f7" stroke-width="13.077713019543108" stroke-dasharray="none" stroke-dashoffset="0"/></g></g><g transform="matrix(1, 0, 0, 1, 1922.4048, 5785.5099) scale(4.359237673181036, 4.359237673181036)" opacity="1"><g transform="scale(0.2293979073800482)"><path d="M0,0 Q-3.5445,17.7187 -5.4826,25.6352 T-9.4569,41.795 -12.7019,58.473 -15.514,75.4588 -18.0692,90.8569 -19.5857,103.5405 -20.4858,114.613 -21.3105,127.4946 L-21.8,135.14 " stroke-linecap="round" fill="none" stroke="#e599f7" stroke-width="13.077713019543108" stroke-dasharray="none" stroke-dashoffset="0"/></g></g><g transform="matrix(1, 0, 0, 1, 1957.2787, 5850.8984) scale(4.359237673181036, 4.359237673181036)" opacity="1"><g transform="scale(0.2293979073800482)"><path d="M0,0 Q-5.3168,5.3168 -7.7808,7.7808 T-12.5932,13.4794 -15.4495,19.518 -15.3725,24.8722 -11.7822,29.8223 -6.1068,34.5325 -0.9661,39.1004 2.9712,43.5838 5.308,48.017 5.8088,52.4204 4.3337,55.9201 1.686,58.8833 -1.6577,61.5282 -7.1869,63.098 -14.013,63.1435 -21.6358,61.8172 L-26.16,61.03 " stroke-linecap="round" fill="none" stroke="#e599f7" stroke-width="13.077713019543108" stroke-dasharray="none" stroke-dashoffset="0"/></g></g><g transform="matrix(1, 0, 0, 1, 1992.1526, 5894.4908) scale(4.359237673181036, 4.359237673181036)" opacity="1"><g transform="scale(0.2293979073800482)"><path d="M0,0 Q10.6336,-7.0891 14.6734,-10.9651 T21.9969,-18.0257 27.2296,-23.9865 29.4492,-29.2966 28.9963,-32.4483 26.9572,-32.5465 23.9748,-29.9485 20.4323,-25.7501 16.5576,-20.5999 12.4856,-14.8848 9.1827,-8.8343 7.2223,-2.5849 6.0588,2.8965 6.2544,7.9221 9.0289,12.6771 14.2202,16.3854 21.7299,18.5864 31.5018,19.0065 42.6185,16.5975 56.9086,11.654 L65.39,8.72 " stroke-linecap="round" fill="none" stroke="#e599f7" stroke-width="13.077713019543108" stroke-dasharray="none" stroke-dashoffset="0"/></g></g><g transform="matrix(1, 0, 0, 1, 1704.4429, 5846.5392) scale(4.359237673181036, 4.359237673181036)" opacity="1"><g transform="scale(0.2293979073800482)"><path d="M0,0 Q-1.7723,12.4019 -3.1843,17.8545 T-6.3206,29.2017 -9.0682,41.2533 -11.5851,53.7229 -14.8512,65.5525 -18.5619,77.0021 -23.33,91.5975 L-26.16,100.26 " stroke-linecap="round" fill="none" stroke="#e599f7" stroke-width="13.077713019543108" stroke-dasharray="none" stroke-dashoffset="0"/></g></g><g transform="matrix(1, 0, 0, 1, 2197.0367, 5877.0539) scale(4.359237673181036, 4.359237673181036)" opacity="1"><g transform="scale(0.2293979073800482)"><path d="M0,0 Q-3.5445,-7.0891 -5.4826,-9.1928 T-10.3431,-12.5452 -15.8863,-13.6487 -21.8326,-12.5314 -28.0183,-9.2099 -33.4618,-3.6939 -37.5788,3.1244 -40.9084,10.7158 -43.7707,17.8777 -44.5834,23.8987 -42.4073,28.3584 -38.4574,31.0052 -33.4566,31.6901 -26.9461,30.3263 -20.4236,27.7466 -14.7801,23.5571 -9.6584,18.4122 -4.8463,13.5863 -1.9902,8.9498 -1.1812,7.0841 -0.7011,8.6352 -0.4161,12.2142 -0.247,16.9968 -0.1466,21.6056 0.7991,26.1113 4.0189,30.5577 9.7051,35.9999 L13.08,39.23 " stroke-linecap="round" fill="none" stroke="#e599f7" stroke-width="13.077713019543108" stroke-dasharray="none" stroke-dashoffset="0"/></g></g><g transform="matrix(1, 0, 0, 1, 2223.1922, 5885.7723) scale(4.359237673181036, 4.359237673181036)" opacity="1"><g transform="scale(0.2293979073800482)"><path d="M0,0 Q1.7723,8.8614 2.2982,14.1474 T4.9086,23.457 10.0024,29.8685 15.6841,32.7877 21.7126,31.8639 28.8332,26.8869 36.6039,19.5023 43.8743,10.6888 49.0756,1.0271 53.0487,-8.2517 58.0573,-19.49 L61.03,-26.16 " stroke-linecap="round" fill="none" stroke="#e599f7" stroke-width="13.077713019543108" stroke-dasharray="none" stroke-dashoffset="0"/></g></g><g transform="matrix(1, 0, 0, 1, 2393.2024, 5885.7723) scale(4.359237673181036, 4.359237673181036)" opacity="1"><g transform="scale(0.2293979073800482)"><path d="M-4.4307,-3.4739 Q-8.8614,-2.5877 -13.2613,-0.2895 T-21.1588,6.0311 -26.7322,15.0973 -29.1539,24.0208 -27.9349,31.0892 -23.6689,36.1706 -17.5924,39.1865 -10.4414,40.9764 -3.5387,41.1527 2.3304,39.485 6.7,35.8388 10.1795,29.2461 13.1308,20.9026 14.8824,12.406 15.0359,3.8186 13.8085,-6.786 6.54,-8.72 -4.4307,-3.4739 Z" stroke-linecap="round" fill="none" stroke="#e599f7" stroke-width="13.077713019543108" stroke-dasharray="none" stroke-dashoffset="0"/></g></g><g transform="matrix(1, 0, 0, 1, 2423.7171, 5885.7723) scale(4.359237673181036, 4.359237673181036)" opacity="1"><g transform="scale(0.2293979073800482)"><path d="M0,0 Q3.5445,7.0891 4.5964,10.9651 T6.2726,18.9118 7.2674,26.2847 7.8579,32.4329 8.2083,35.1958 9.3024,33.2931 11.7241,28.6214 14.9337,22.304 18.6109,15.0101 23.4497,8.0226 28.978,2.1031 34.0314,-3.1825 38.803,-7.2057 43.4072,-8.7074 47.0261,-7.8264 49.1739,-4.6451 50.4487,-0.0985 51.2053,5.2584 50.7682,11.9823 48.7365,18.6294 46.6445,22.5746 46.289,23.1459 47.8503,21.7127 50.5493,18.2036 53.9234,13.4625 58.5844,8.8764 64.0092,4.3821 69.8873,0.8286 76.0324,-0.3944 80.5637,1.5382 83.2531,5.3436 84.8494,9.3745 85.7967,14.4253 85.4749,20.9655 83.8151,29.6912 L82.83,34.87 " stroke-linecap="round" fill="none" stroke="#e599f7" stroke-width="13.077713019543108" stroke-dasharray="none" stroke-dashoffset="0"/></g></g><g transform="matrix(1, 0, 0, 1, 2532.698, 5916.287) scale(4.359237673181036, 4.359237673181036)" opacity="1"><g transform="scale(0.2293979073800482)"><path d="M0,0 Q3.5445,7.0891 3.7103,7.4206 T3.9744,7.0626 4.1311,3.3056 4.2242,-3.3549 5.1655,-9.9664 6.6104,-15.6627 8.354,-20.8138 11.1612,-25.6413 15.4857,-29.3926 20.7088,-31.6191 25.579,-32.0544 30.2418,-31.4266 34.7815,-30.1699 39.2481,-27.6538 44.7089,-23.9803 L47.95,-21.8 " stroke-linecap="round" fill="none" stroke="#e599f7" stroke-width="13.077713019543108" stroke-dasharray="none" stroke-dashoffset="0"/></g></g><g transform="matrix(1, 0, 0, 1, 2593.7274, 5911.9278) scale(4.359237673181036, 4.359237673181036)" opacity="1"><g transform="scale(0.2293979073800482)"><path d="M0,0 Q5.3168,-3.5445 6.8946,-5.4826 T9.4089,-9.4569 10.9011,-13.5881 11.7868,-17.8122 10.5402,-21.2055 7.1419,-22.3333 4.2388,-20.3442 1.6297,-16.5053 -1.6912,-11.5684 -4.5483,-5.0938 -6.244,2.2936 -7.2505,9.3365 -6.0755,14.4027 -2.7198,17.4096 1.0442,18.3081 5.0504,16.183 9.2005,12.2632 12.5497,7.2784 15.4237,2.5476 18.9017,0.6259 21.8521,1.2576 24.4873,3.4048 27.8216,6.4515 31.5728,9.1459 35.5715,11.6312 39.717,13.9924 44.8836,16.1559 L47.95,17.44 " stroke-linecap="round" fill="none" stroke="#e599f7" stroke-width="13.077713019543108" stroke-dasharray="none" stroke-dashoffset="0"/></g></g><g transform="matrix(1, 0, 0, 1, 2589.3681, 5833.4615) scale(4.359237673181036, 4.359237673181036)" opacity="1"><g transform="scale(0.2293979073800482)"><path d="M4.4307,-2.6584 Q8.8614,-5.3168 12.3772,-6.8946 T18.8638,-8.5228 23.5978,-7.7168 26.4075,-5.4662 27.191,-2.3581 24.9996,0.3727 21.0406,1.1073 16.045,0.4124 6.54,0 4.4307,-2.6584 Z" stroke-linecap="round" fill="none" stroke="#e599f7" stroke-width="13.077713019543108" stroke-dasharray="none" stroke-dashoffset="0"/></g></g><g transform="matrix(1, 0, 0, 1, 2685.2714, 5890.1316) scale(4.359237673181036, 4.359237673181036)" opacity="1"><g transform="scale(0.2293979073800482)"><path d="M0,0 Q0,-5.3168 -0.8861,-6.0085 T-3.1843,-7.1107 -6.3206,-5.9926 -10.8405,-0.8983 -16.1815,6.556 -21.1217,13.6386 -24.0538,19.6124 -24.0238,24.0421 -21.3476,26.6712 -15.3285,28.2316 -7.3254,28.2736 1.8552,25.6422 11.7327,21.422 20.2515,16.2588 27.0799,8.7637 32.9048,-0.1154 37.2482,-9.814 40.7122,-20.885 43.6542,-32.7727 45.4004,-44.2588 46.4368,-54.6206 45.2796,-64.315 42.8205,-70.9549 41.361,-73.1236 39.6087,-71.7523 37.6825,-67.3938 35.6531,-61.2625 33.5625,-53.1927 31.4376,-43.0884 29.2923,-31.7766 28.0191,-18.8599 27.2634,-4.9907 26.8149,7.6696 27.4328,17.84 28.6836,25.6486 31.1983,31.1692 34.4631,33.5597 37.4545,34.382 L39.23,34.87 " stroke-linecap="round" fill="none" stroke="#e599f7" stroke-width="13.077713019543108" stroke-dasharray="none" stroke-dashoffset="0"/></g></g><g transform="matrix(1, 0, 0, 1, 2755.0192, 5903.2093) scale(4.359237673181036, 4.359237673181036)" opacity="1"><g transform="scale(0.2293979073800482)"><path d="M0,0 Q7.0891,-3.5445 10.079,-5.4826 T15.7295,-10.3431 20.8535,-16.7704 24.7787,-23.2415 25.3381,-27.9683 23.0138,-30.7737 18.9759,-31.5527 13.0347,-29.3586 6.8502,-24.5139 1.4073,-18.98 -3.5954,-13.0372 -7.4508,-5.9655 -9.739,0.8901 -11.097,7.6174 -10.1308,14.2685 -6.0128,19.9863 -0.0241,24.264 7.9609,26.8029 18.0149,28.3098 29.297,28.32 43.7386,26.9645 L52.31,26.16 " stroke-linecap="round" fill="none" stroke="#e599f7" stroke-width="13.077713019543108" stroke-dasharray="none" stroke-dashoffset="0"/></g></g><g transform="matrix(1, 0, 0, 1, 2842.2039, 5933.724) scale(4.359237673181036, 4.359237673181036)" opacity="1"><g transform="scale(0.2293979073800482)"><path d="M 0 0 m -0.5, 0 a 0.5,0.5 0 1,0 1,0 a 0.5,0.5 0 1,0 -1,0" stroke-linecap="round" fill="#e599f7" stroke="#e599f7" stroke-width="13.077713019543108" stroke-dasharray="none" stroke-dashoffset="0"/></g></g><g transform="matrix(1, 0, 0, 1, 1477.7625, 6029.6272) scale(4.359237673181036, 4.359237673181036)" opacity="1"><g transform="scale(0.2293979073800482)"><path d="M4.36,0 Q4.36,8.8614 3.4739,13.2613 T2.0618,22.931 0.3376,33.1009 -2.4581,43.5675 -5.8896,55.9826 -9.6985,68.6659 -12.8453,77.0777 -15.7287,83.4173 L-17.44,87.18 " stroke-linecap="round" fill="none" stroke="#e599f7" stroke-width="13.077713019543108" stroke-dasharray="none" stroke-dashoffset="0"/></g></g><g transform="matrix(1, 0, 0, 1, 1482.1218, 6020.9087) scale(4.359237673181036, 4.359237673181036)" opacity="1"><g transform="scale(0.2293979073800482)"><path d="M0,0 Q3.5445,7.0891 4.5964,10.079 T7.1587,15.7295 9.5656,21.7396 10.9942,27.963 12.7282,33.429 16.4157,38.4454 21.2607,41.4228 25.9066,41.4176 30.4362,39.6422 34.8969,36.8162 38.4305,33.3687 41.4139,28.6662 44.9569,23.2168 47.9458,18.2102 50.6059,13.4664 53.0709,10.6509 54.5339,10.7522 54.516,12.5845 53.6193,16.3305 52.201,22.0963 50.473,29.947 49.4474,39.0372 47.9526,48.8631 46.1793,58.2394 45.1268,67.347 44.1624,79.7931 L43.59,87.18 " stroke-linecap="round" fill="none" stroke="#e599f7" stroke-width="13.077713019543108" stroke-dasharray="none" stroke-dashoffset="0"/></g></g><g transform="matrix(1, 0, 0, 1, 1578.025, 6081.938) scale(4.359237673181036, 4.359237673181036)" opacity="1"><g transform="scale(0.2293979073800482)"><path d="M0,0 Q-3.5445,3.5445 -5.4826,5.4826 T-8.5708,9.4569 -10.4037,13.5881 -11.4916,17.8122 -10.365,21.2055 -7.0379,23.2194 -3.291,23.5286 0.7052,22.8259 3.9631,21.5228 6.7828,18.9771 9.3425,14.8077 11.7479,9.6747 14.0617,6.6282 16.321,6.5924 18.5482,8.3434 19.87,11.1549 21.5406,14.5958 24.3024,18.4103 27.7119,21.5605 32.2039,24.4469 L34.87,26.16 " stroke-linecap="round" fill="none" stroke="#e599f7" stroke-width="13.077713019543108" stroke-dasharray="none" stroke-dashoffset="0"/></g></g><g transform="matrix(1, 0, 0, 1, 1586.7435, 6025.2679) scale(4.359237673181036, 4.359237673181036)" opacity="1"><g transform="scale(0.2293979073800482)"><path d="M1.7723,2.6584 Q3.5445,5.3168 2.8241,6.8946 T0.79,9.4089 -1.3034,10.015 -3.432,8.6025 -6.7504,5.9401 -4.36,2.18 1.7723,2.6584 Z" stroke-linecap="round" fill="none" stroke="#e599f7" stroke-width="13.077713019543108" stroke-dasharray="none" stroke-dashoffset="0"/></g></g><g transform="matrix(1, 0, 0, 1, 1634.6951, 6003.4718) scale(4.359237673181036, 4.359237673181036)" opacity="1"><g transform="scale(0.2293979073800482)"><path d="M0,0 Q0,17.7187 0,25.6352 T-0.8861,40.9088 -2.2982,54.4046 -3.1363,65.9571 -3.6337,76.3561 -3.9289,85.1866 -4.1994,94.6458 L-4.36,100.26 " stroke-linecap="round" fill="none" stroke="#e599f7" stroke-width="13.077713019543108" stroke-dasharray="none" stroke-dashoffset="0"/></g></g><g transform="matrix(1, 0, 0, 1, 1643.4135, 6077.5788) scale(4.359237673181036, 4.359237673181036)" opacity="1"><g transform="scale(0.2293979073800482)"><path d="M0,0 Q10.6336,1.7723 14.6734,2.2982 T22.883,2.2502 29.5278,0.4494 34.3577,-2.3917 38.1105,-6.7363 39.4517,-11.9734 38.4754,-15.9677 36.1238,-17.4523 32.9577,-16.5612 29.3084,-13.3739 25.3702,-7.9376 21.2606,-2.0527 17.9353,4.0985 15.9617,10.4078 15.6765,16.8088 17.2795,23.2643 21.7734,27.9818 28.8692,29.8956 38.1072,30.2812 L43.59,30.51 " stroke-linecap="round" fill="none" stroke="#e599f7" stroke-width="13.077713019543108" stroke-dasharray="none" stroke-dashoffset="0"/></g></g><g transform="matrix(1, 0, 0, 1, 1743.676, 6064.5011) scale(4.359237673181036, 4.359237673181036)" opacity="1"><g transform="scale(0.2293979073800482)"><path d="M0,0 Q-5.3168,5.3168 -8.6669,7.7808 T-13.1192,12.5932 -13.9894,16.3356 -12.7336,19.443 -10.216,22.1733 -6.9495,24.678 -4.1246,27.9347 -2.448,31.64 -2.3391,35.6113 -3.6073,40.6183 L-4.36,43.59 " stroke-linecap="round" fill="none" stroke="#e599f7" stroke-width="13.077713019543108" stroke-dasharray="none" stroke-dashoffset="0"/></g></g><g transform="matrix(1, 0, 0, 1, 1857.0162, 6073.2196) scale(4.359237673181036, 4.359237673181036)" opacity="1"><g transform="scale(0.2293979073800482)"><path d="M0,0 Q1.7723,8.8614 2.2982,12.3772 T3.1363,18.8638 3.6337,24.4839 3.9289,27.8196 4.9903,28.0291 6.5064,26.3832 8.2923,23.6341 11.1246,19.344 14.5778,14.1394 19.2838,9.2781 25.6193,4.6205 31.1519,1.8562 34.4355,2.874 35.4983,7.0226 35.2429,12.1432 34.2052,16.0686 32.7031,19.2844 32.6978,21.1931 34.4669,20.5537 37.2892,18.4019 40.7365,15.3525 44.5548,11.7703 48.5933,7.872 53.6486,4.6722 60.1936,2.773 65.8504,3.4181 69.2078,7.3455 71.2005,13.221 72.3832,19.3646 72.199,24.7812 71.2035,29.7683 70.2914,35.7059 L69.75,39.23 " stroke-linecap="round" fill="none" stroke="#e599f7" stroke-width="13.077713019543108" stroke-dasharray="none" stroke-dashoffset="0"/></g></g><g transform="matrix(1, 0, 0, 1, 1957.2787, 6095.0158) scale(4.359237673181036, 4.359237673181036)" opacity="1"><g transform="scale(0.2293979073800482)"><path d="M0,0 Q7.0891,-1.7723 10.079,-3.1843 T14.8434,-7.2068 15.8989,-11.3664 13.8669,-12.9491 10.8886,-11.23 7.3487,-6.6652 3.4754,-1.2975 0.2904,3.6606 -1.5999,8.3756 -0.9496,12.0601 3.8671,14.247 12.3847,16.2507 L17.44,17.44 " stroke-linecap="round" fill="none" stroke="#e599f7" stroke-width="13.077713019543108" stroke-dasharray="none" stroke-dashoffset="0"/></g></g><g transform="matrix(1, 0, 0, 1, 2027.0265, 6090.6565) scale(4.359237673181036, 4.359237673181036)" opacity="1"><g transform="scale(0.2293979073800482)"><path d="M0,-4.36 Q-7.0891,2.7291 -9.1928,7.4913 T-12.5452,15.9639 -13.6487,21.8767 -11.6453,25.386 -6.9116,26.5847 -0.5576,24.6398 6.7581,19.0548 14.6427,9.537 22.8648,-3.199 29.517,-18.7312 34.3513,-35.0389 38.1067,-50.0346 40.3356,-62.4793 40.7723,-70.7515 39.2593,-73.889 37.4751,-71.3204 35.53,-63.593 33.4895,-52.8036 31.3942,-40.1991 29.2666,-25.631 28.0038,-11.6679 27.2543,0.164 27.6936,9.8449 29.461,20.0833 L30.51,26.16 " stroke-linecap="round" fill="none" stroke="#e599f7" stroke-width="13.077713019543108" stroke-dasharray="none" stroke-dashoffset="0"/></g></g><g transform="matrix(1, 0, 0, 1, 2192.6775, 6020.9087) scale(4.359237673181036, 4.359237673181036)" opacity="1"><g transform="scale(0.2293979073800482)"><path d="M0,4.36 Q-3.5445,11.4491 -5.4826,19.7538 T-9.4569,35.6458 -12.7019,50.3948 -14.6279,63.5772 -14.8848,74.0575 -13.2651,81.1639 -10.5314,84.4955 -6.2506,84.7026 -1.0514,82.1691 3.8067,78.0071 8.4623,73.7646 12.9977,69.4743 17.4619,65.1557 20.9975,60.8202 23.9801,57.361 25.7503,55.3078 25.9168,54.9754 25.1295,56.5504 22.89,60.1435 20.6747,64.9346 18.4737,69.5504 16.2812,74.0622 14.98,78.5103 14.2077,82.9205 14.6354,87.3104 17.5477,90.8019 21.9326,91.9881 26.3053,90.9198 31.68,88.5729 L34.87,87.18 " stroke-linecap="round" fill="none" stroke="#e599f7" stroke-width="13.077713019543108" stroke-dasharray="none" stroke-dashoffset="0"/></g></g><g transform="matrix(1, 0, 0, 1, 2244.9883, 6081.938) scale(4.359237673181036, 4.359237673181036)" opacity="1"><g transform="scale(0.2293979073800482)"><path d="M0,0 Q1.7723,7.0891 2.2982,10.079 T3.1363,15.7295 4.5199,20.8535 7.9994,24.7787 13.6091,27.1084 19.595,28.4911 24.9179,28.4276 29.8494,26.6197 33.6625,23.7745 36.8117,18.5412 41.0654,9.6419 L43.59,4.36 " stroke-linecap="round" fill="none" stroke="#e599f7" stroke-width="13.077713019543108" stroke-dasharray="none" stroke-dashoffset="0"/></g></g><g transform="matrix(1, 0, 0, 1, 2314.7362, 6099.375) scale(4.359237673181036, 4.359237673181036)" opacity="1"><g transform="scale(0.2293979073800482)"><path d="M0,0 Q5.3168,-5.3168 5.1224,-6.8946 T3.9263,-8.5228 1.4442,-7.7168 -1.8013,-5.4662 -4.6136,-1.472 -6.2828,3.557 -8.1596,8.3141 -10.1597,12.9098 -10.4606,17.4097 -7.9808,20.9665 -3.8506,22.1915 0.373,21.1462 4.6521,17.8674 8.964,13.263 12.4094,8.7579 14.4543,6.0841 15.6679,6.2694 17.2744,9.0378 20.1144,14.3106 L21.8,17.44 " stroke-linecap="round" fill="none" stroke="#e599f7" stroke-width="13.077713019543108" stroke-dasharray="none" stroke-dashoffset="0"/></g></g><g transform="matrix(1, 0, 0, 1, 2384.484, 6095.0158) scale(4.359237673181036, 4.359237673181036)" opacity="1"><g transform="scale(0.2293979073800482)"><path d="M0,0 Q-5.3168,3.5445 -6.8946,6.3687 T-10.295,13.5254 -12.3132,21.3155 -11.7388,26.8252 -8.7394,28.3251 -4.3008,25.6727 0.9919,20.554 6.7917,13.0852 12.0062,3.3356 16.8734,-8.6519 20.6482,-21.9676 22.8887,-35.1874 24.2184,-47.4643 25.0076,-58.2954 24.5899,-66.4961 23.4559,-69.591 21.8966,-66.9972 20.0851,-60.141 19.0099,-50.7548 18.3718,-39.8692 17.993,-28.0937 17.7682,-15.7879 17.6348,-3.1674 18.4418,7.8676 20.693,15.3032 24.1238,22.1163 L26.16,26.16 " stroke-linecap="round" fill="none" stroke="#e599f7" stroke-width="13.077713019543108" stroke-dasharray="none" stroke-dashoffset="0"/></g></g><g transform="matrix(1, 0, 0, 1, 2428.0763, 6125.5304) scale(4.359237673181036, 4.359237673181036)" opacity="1"><g transform="scale(0.2293979073800482)"><path d="M0,0 Q3.5445,-5.3168 4.5964,-7.7808 T7.1587,-12.5932 9.5656,-17.2218 12.7664,-20.855 18.2087,-23.0114 24.9813,-24.2913 33.923,-25.464 L39.23,-26.16 " stroke-linecap="round" fill="none" stroke="#e599f7" stroke-width="13.077713019543108" stroke-dasharray="none" stroke-dashoffset="0"/></g></g><g transform="matrix(1, 0, 0, 1, 2493.4649, 6112.4527) scale(4.359237673181036, 4.359237673181036)" opacity="1"><g transform="scale(0.2293979073800482)"><path d="M0,0 Q-1.7723,-5.3168 -3.1843,-6.0085 T-6.3206,-4.4523 -9.9544,0.0159 -12.9972,5.3263 -14.8031,11.1365 -15.875,16.3572 -14.7389,20.3419 -11.4061,21.8207 -7.6559,20.9262 -3.6577,17.7368 -0.3986,13.1855 2.4218,8.7119 4.9819,4.2845 6.5014,2.5429 6.5171,5.0538 5.6403,10.0886 5.1199,15.7353 4.811,20.8569 6.3999,25.6669 10.0014,29.4078 14.7974,31.6281 19.4161,32.0597 23.6482,31.0872 L26.16,30.51 " stroke-linecap="round" fill="none" stroke="#e599f7" stroke-width="13.077713019543108" stroke-dasharray="none" stroke-dashoffset="0"/></g></g><g transform="matrix(1, 0, 0, 1, 2558.8535, 6033.9864) scale(4.359237673181036, 4.359237673181036)" opacity="1"><g transform="scale(0.2293979073800482)"><path d="M0,0 Q-1.7723,15.9464 -3.1843,23.337 T-6.3206,38.6587 -9.0682,53.9552 -11.5851,67.4626 -13.965,79.9081 -15.3775,90.8393 -16.2159,99.0993 -15.8273,104.888 -13.8245,107.4374 -10.6212,108.4055 L-8.72,108.98 " stroke-linecap="round" fill="none" stroke="#e599f7" stroke-width="13.077713019543108" stroke-dasharray="none" stroke-dashoffset="0"/></g></g><g transform="matrix(1, 0, 0, 1, 2558.8535, 6099.375) scale(4.359237673181036, 4.359237673181036)" opacity="1"><g transform="scale(0.2293979073800482)"><path d="M0,0 Q-7.0891,1.7723 -11.8492,2.2982 T-23.5597,3.5921 L-30.51,4.36 " stroke-linecap="round" fill="none" stroke="#e599f7" stroke-width="13.077713019543108" stroke-dasharray="none" stroke-dashoffset="0"/></g></g><g transform="matrix(1, 0, 0, 1, 2571.9312, 6121.1712) scale(4.359237673181036, 4.359237673181036)" opacity="1"><g transform="scale(0.2293979073800482)"><path d="M0,0 Q8.8614,-1.7723 12.3772,-3.1843 T17.9797,-6.3206 21.3049,-9.9544 23.2784,-13.8833 22.6775,-17.1013 19.6624,-18.1251 16.1006,-16.9605 12.2144,-13.6109 9.0217,-8.9644 6.2406,-3.5482 3.7039,2.3248 2.1983,7.5827 1.3047,12.4757 1.6605,17.152 3.644,21.6977 7.4796,25.2798 13.3006,27.4058 19.4119,29.5537 24.8092,31.7147 29.7849,31.2271 33.6242,27.3951 35.9029,22.4624 37.2553,17.7624 38.058,12.3145 38.5344,6.4227 37.931,1.1536 36.6868,-3.746 36.8344,-8.4263 39.5805,-12.0902 44.7548,-14.2648 50.4843,-15.5555 57.1022,-16.7381 L61.03,-17.44 " stroke-linecap="round" fill="none" stroke="#e599f7" stroke-width="13.077713019543108" stroke-dasharray="none" stroke-dashoffset="0"/></g></g><g transform="matrix(1, 0, 0, 1, 2798.6115, 6033.9864) scale(4.359237673181036, 4.359237673181036)" opacity="1"><g transform="scale(0.2293979073800482)"><path d="M0,0 Q0,-1.7723 -0.8861,-1.4121 T-3.1843,0.0481 -7.2068,6.2315 -13.1387,16.9885 -19.3158,29.5739 -24.7522,43.2465 -29.7511,57.5623 -34.4902,72.2598 -38.1892,85.4138 -40.3845,96.7654 -41.6875,106.1611 -41.5747,113.5099 -37.9652,118.7577 -31.3943,122.7584 -23.9498,126.0191 -15.9869,128.8405 -5.9544,132.7937 L0,135.14 " stroke-linecap="round" fill="none" stroke="#e599f7" stroke-width="13.077713019543108" stroke-dasharray="none" stroke-dashoffset="0"/></g></g><g transform="matrix(1, 0, 0, 1, 2846.5631, 6090.6565) scale(4.359237673181036, 4.359237673181036)" opacity="1"><g transform="scale(0.2293979073800482)"><path d="M-4.36,0 Q-11.4491,3.5445 -13.5528,5.4826 T-17.7913,8.5708 -21.1931,11.2899 -23.212,14.6759 -23.5242,17.5718 -21.9372,20.1766 -19.223,23.4929 -15.8398,27.2314 -12.0596,31.2225 -8.9298,35.3636 -7.0723,39.5936 -5.9698,43.8765 -5.3154,48.1907 -5.8132,52.5236 -7.8809,56.8674 -11.7665,60.3317 -17.6152,62.3878 -24.629,63.6082 -31.4502,63.4463 -37.271,62.4641 -43.9725,61.5641 L-47.95,61.03 " stroke-linecap="round" fill="none" stroke="#e599f7" stroke-width="13.077713019543108" stroke-dasharray="none" stroke-dashoffset="0"/></g></g><g transform="matrix(1, 0, 0, 1, 2881.437, 6116.8119) scale(4.359237673181036, 4.359237673181036)" opacity="1"><g transform="scale(0.2293979073800482)"><path d="M0,0 Q-3.5445,-1.7723 -5.4826,-1.4121 T-8.5708,0.0481 -11.2899,3.5731 -13.7898,8.3236 -15.2736,12.9154 -15.268,17.413 -13.4925,21.8526 -9.7803,25.3717 -4.9186,26.5763 0.6253,25.5209 5.6879,23.1223 9.5788,18.1541 13.6604,11.6609 16.969,8.6932 18.9327,9.5902 20.0982,12.781 21.6761,17.3332 25.269,21.8053 30.0578,25.3436 34.6723,26.5596 40.2685,26.3088 L43.59,26.16 " stroke-linecap="round" fill="none" stroke="#e599f7" stroke-width="13.077713019543108" stroke-dasharray="none" stroke-dashoffset="0"/></g></g><g transform="matrix(1, 0, 0, 1, 2942.4664, 6103.7342) scale(4.359237673181036, 4.359237673181036)" opacity="1"><g transform="scale(0.2293979073800482)"><path d="M0,0 Q1.7723,8.8614 2.2982,12.3772 T3.1363,18.8638 3.6337,25.3701 3.9289,31.8901 4.9903,35.7598 6.5064,35.3981 8.2923,32.5271 11.1246,29.0528 14.5778,24.3324 18.3997,18.8723 22.4382,13.8594 26.6054,9.998 29.9648,9.4785 31.9587,12.7148 33.1421,17.2939 33.8445,21.7819 34.2613,26.2159 34.5087,30.6198 35.5417,33.2336 37.041,33.0126 38.8169,30.2251 41.6432,25.9143 45.9791,21.5835 51.2109,18.1269 56.0884,16.0754 60.7555,14.8578 64.4116,15.9074 66.5816,19.1888 68.7556,22.9066 70.9321,26.8834 72.2239,31.016 72.9906,35.241 73.6931,40.4804 L74.11,43.59 " stroke-linecap="round" fill="none" stroke="#e599f7" stroke-width="13.077713019543108" stroke-dasharray="none" stroke-dashoffset="0"/></g></g><g transform="matrix(1, 0, 0, 1, 3038.3696, 6112.4527) scale(4.359237673181036, 4.359237673181036)" opacity="1"><g transform="scale(0.2293979073800482)"><path d="M4.36,0 Q2.5877,10.6336 2.0618,14.6734 T1.2237,21.9969 1.6124,25.4594 3.6154,24.858 6.5765,21.8427 10.1062,17.3947 13.9734,12.9824 17.1548,8.5914 19.9291,5.9853 22.4619,7.0969 23.9651,10.4151 24.8573,14.1567 26.2709,18.1497 28.8802,20.5197 32.2011,20.154 35.9444,19.0508 39.9383,17.5099 44.0811,14.8231 48.3122,11.4561 52.5956,8.5717 56.9102,5.9735 61.2433,4.4315 65.5873,6.1747 69.0516,10.7539 70.2216,16.1301 70.0299,21.0912 69.9161,25.8059 68.9625,30.3765 66.7206,35.9324 L65.39,39.23 " stroke-linecap="round" fill="none" stroke="#e599f7" stroke-width="13.077713019543108" stroke-dasharray="none" stroke-dashoffset="0"/></g></g><g transform="matrix(1, 0, 0, 1, 3116.8359, 6138.6081) scale(4.359237673181036, 4.359237673181036)" opacity="1"><g transform="scale(0.2293979073800482)"><path d="M0,0 Q7.0891,-1.7723 10.079,-2.2982 T15.7295,-4.0224 20.8535,-6.8181 25.6648,-10.2496 29.4066,-14.9447 31.6274,-20.3876 32.0593,-25.3884 30.5454,-28.3564 26.9906,-28.3477 22.2223,-24.8 17.6199,-18.2637 14.0022,-11.7259 11.8551,-4.3011 11.4669,3.6502 13.0087,10.1417 16.5822,14.8806 22.2457,17.6932 29.1496,19.3626 36.7917,18.5811 46.5301,15.1289 L52.31,13.08 " stroke-linecap="round" fill="none" stroke="#e599f7" stroke-width="13.077713019543108" stroke-dasharray="none" stroke-dashoffset="0"/></g></g><g transform="matrix(1, 0, 0, 1, 3182.2244, 6116.8119) scale(4.359237673181036, 4.359237673181036)" opacity="1"><g transform="scale(0.2293979073800482)"><path d="M0,0 Q1.7723,8.8614 1.4121,13.2613 T0.8381,22.931 -0.3887,31.3286 -2.003,37.1988 -2.0749,40.6829 -0.3454,40.0923 2.4534,36.1993 6.773,31.2323 11.9951,25.626 16.8668,19.6401 21.5284,15.2012 26.0654,12.5667 30.5305,11.0031 34.0667,10.9612 36.1655,12.7086 37.4112,15.518 38.1505,18.9577 38.5893,23.6555 38.8497,29.9863 39.0884,38.5232 L39.23,43.59 " stroke-linecap="round" fill="none" stroke="#e599f7" stroke-width="13.077713019543108" stroke-dasharray="none" stroke-dashoffset="0"/></g></g><g transform="matrix(1, 0, 0, 1, 3265.05, 6012.1902) scale(4.359237673181036, 4.359237673181036)" opacity="1"><g transform="scale(0.2293979073800482)"><path d="M0,0 Q0,10.6336 0,16.4456 T0,29.2517 0,43.9414 -0.8861,62.4054 -2.2982,81.3373 -4.0224,96.1182 -5.9319,107.5493 -7.0652,116.1061 -8.1037,125.3146 L-8.72,130.78 " stroke-linecap="round" fill="none" stroke="#e599f7" stroke-width="13.077713019543108" stroke-dasharray="none" stroke-dashoffset="0"/></g></g><g transform="matrix(1, 0, 0, 1, 3269.4092, 6147.3266) scale(4.359237673181036, 4.359237673181036)" opacity="1"><g transform="scale(0.2293979073800482)"><path d="M0,0 Q5.3168,-1.7723 7.7808,-3.1843 T11.7071,-6.3206 15.3047,-10.5624 L17.44,-13.08 " stroke-linecap="round" fill="none" stroke="#e599f7" stroke-width="13.077713019543108" stroke-dasharray="none" stroke-dashoffset="0"/></g></g><g transform="matrix(1, 0, 0, 1, 3295.5646, 6012.1902) scale(4.359237673181036, 4.359237673181036)" opacity="1"><g transform="scale(0.2293979073800482)"><path d="M0,0 Q5.3168,5.3168 6.0085,7.7808 T7.1107,12.5932 6.8787,17.2218 5.8549,22.6253 4.3611,28.4887 1.6243,35.2293 L0,39.23 " stroke-linecap="round" fill="none" stroke="#e599f7" stroke-width="13.077713019543108" stroke-dasharray="none" stroke-dashoffset="0"/></g></g><g transform="matrix(1, 0, 0, 1, 3313.0016, 6116.8119) scale(4.359237673181036, 4.359237673181036)" opacity="1"><g transform="scale(0.2293979073800482)"><path d="M0,0 Q1.7723,3.5445 1.4121,5.4826 T-0.0481,9.4569 -2.6869,14.4742 -6.0254,22.7668 -8.893,32.1173 -10.595,39.4392 -9.8328,44.671 -6.7221,46.89 -3.1035,46.4347 0.8164,42.62 4.0291,36.8133 5.9359,31.5968 7.0676,26.7284 7.7393,23.8389 8.1379,23.8963 8.3745,26.5867 8.515,31.726 9.4844,38.3208 10.946,45.7795 12.6996,54.637 14.6265,65.2089 15.7701,75.9121 16.4489,86.6953 15.9656,97.526 13.9065,108.3848 10.9121,118.3743 6.4765,126.9595 1.1855,134.7114 -4.6132,140.1984 -11.5994,143.455 -18.4022,143.6176 -24.2099,140.1716 -29.4292,133.6956 -33.4131,124.5352 -37.0635,112.0376 L-39.23,104.62 " stroke-linecap="round" fill="none" stroke="#e599f7" stroke-width="13.077713019543108" stroke-dasharray="none" stroke-dashoffset="0"/></g></g><g transform="matrix(1, 0, 0, 1, 3343.5162, 6121.1712) scale(4.359237673181036, 4.359237673181036)" opacity="1"><g transform="scale(0.2293979073800482)"><path d="M0,4.36 Q0,11.4491 0,15.3231 T0,22.3825 0.8861,26.5723 3.1843,27.2888 6.3206,25.0577 9.9544,21.0751 13.8833,16.0529 17.9875,10.4138 23.0797,6.1807 27.8723,4.5545 30.7168,5.3616 32.405,8.499 33.407,13.0195 34.0017,18.3589 34.3546,25.0704 34.678,33.9562 L34.87,39.23 " stroke-linecap="round" fill="none" stroke="#e599f7" stroke-width="13.077713019543108" stroke-dasharray="none" stroke-dashoffset="0"/></g></g><g transform="matrix(1, 0, 0, 1, 3404.5456, 6138.6081) scale(4.359237673181036, 4.359237673181036)" opacity="1"><g transform="scale(0.2293979073800482)"><path d="M0,0 L4.36,0 " stroke-linecap="round" fill="none" stroke="#e599f7" stroke-width="13.077713019543108" stroke-dasharray="none" stroke-dashoffset="0"/></g></g><g transform="matrix(1, 0, 0, 1, 3413.264, 6038.3457) scale(4.359237673181036, 4.359237673181036)" opacity="1"><g transform="scale(0.2293979073800482)"><path d="M0,0 Q3.5445,7.0891 4.5964,10.9651 T6.2726,18.0257 6.3813,24.8727 5.1128,33.8825 L4.36,39.23 " stroke-linecap="round" fill="none" stroke="#e599f7" stroke-width="13.077713019543108" stroke-dasharray="none" stroke-dashoffset="0"/></g></g><g transform="matrix(1, 0, 0, 1, 3421.9825, 6116.8119) scale(4.359237673181036, 4.359237673181036)" opacity="1"><g transform="scale(0.2293979073800482)"><path d="M0,0 Q1.7723,8.8614 2.2982,12.3772 T3.1363,19.7499 3.6337,26.7822 3.9289,30.0697 4.9903,28.4785 7.3925,24.8776 10.5905,20.9682 13.3747,16.8756 15.9133,12.6744 19.1923,10.1808 22.0246,10.4732 23.7056,12.4189 24.7033,15.3461 25.2954,18.8556 25.6468,23.595 25.8554,29.0642 25.0931,34.0826 23.0265,40.0489 L21.8,43.59 " stroke-linecap="round" fill="none" stroke="#e599f7" stroke-width="13.077713019543108" stroke-dasharray="none" stroke-dashoffset="0"/></g></g><g transform="matrix(1, 0, 0, 1, 3469.9341, 6129.8897) scale(4.359237673181036, 4.359237673181036)" opacity="1"><g transform="scale(0.2293979073800482)"><path d="M0,0 Q-1.7723,7.0891 -4.0705,13.6215 T-7.7327,25.8032 -10.7924,36.5778 -13.4946,45.6311 -14.2122,51.0044 -12.8658,51.5351 -10.2945,48.3055 -7.8822,42.8442 -5.5643,35.1742 -3.3025,27.0794 -1.074,21.3888 1.1349,18.8976 2.4458,20.0774 3.2239,24.3201 3.6857,30.3807 4.8459,38.4085 6.4207,47.6038 7.3553,56.6059 7.91,65.4933 7.3531,74.3107 6.1365,83.0864 4.5282,91.8395 1.8014,100.5791 -1.5892,108.4246 -5.3739,114.8533 -10.2786,119.555 -15.848,121.4594 -20.9238,120.8174 -25.7066,118.6641 -30.3175,114.7276 -34.8264,108.8468 -40.326,100.7221 L-43.59,95.9 " stroke-linecap="round" fill="none" stroke="#e599f7" stroke-width="13.077713019543108" stroke-dasharray="none" stroke-dashoffset="0"/></g></g><g transform="matrix(1, 0, 0, 1, 3483.0118, 6055.7826) scale(4.359237673181036, 4.359237673181036)" opacity="1"><g transform="scale(0.2293979073800482)"><path d="M0,0 Q5.3168,5.3168 6.8946,7.7808 T10.295,13.4794 13.1994,20.4041 15.8092,28.0565 20.0146,37.9152 25.167,49.9694 29.1111,62.4386 32.3382,75.154 35.1396,88.9038 36.8023,102.3813 36.903,113.9249 35.1905,123.4347 32.4038,130.8491 28.9797,136.1338 25.1751,140.1564 20.2586,143.4301 13.0176,146.4297 L8.72,148.21 " stroke-linecap="round" fill="none" stroke="#e599f7" stroke-width="13.077713019543108" stroke-dasharray="none" stroke-dashoffset="0"/></g></g></svg>