<svg xmlns="http://www.w3.org/2000/svg" direction="ltr" width="7338.764265674458" height="3209.8748574801093" viewBox="607.3012210438619 7655.545651091666 7338.764265674458 3209.8748574801093" stroke-linecap="round" stroke-linejoin="round" style="background-color: transparent;"><defs/><g transform="matrix(1, 0, 0, 1, 639.3012, 7700) scale(5.795025034288685, 5.795025034288685)" opacity="1"><path d="M0,106.92499827003977 a109.63703965362689,106.92499827003977,0,1,1,219.27407930725377,0a109.63703965362689,106.92499827003977,0,1,1,-219.27407930725377,0 " stroke="#9398b0" stroke-width="2" fill="none"/></g><g transform="matrix(1, 0, 0, 1, 1276.754, 7681.7457) scale(5.795025034288685, 5.795025034288685)" opacity="1"><g transform="scale(0.17256180846210026)"><path d="M0,5.8 Q2.1518,22.9996 2.8285,30.5588 T3.931,43.9468 4.6244,56.6677 5.0605,68.9691 5.3349,79.9306 5.5074,91.1253 5.616,102.4667 5.6842,112.8262 5.7272,122.5682 5.7542,132.9958 5.7712,143.8547 5.7819,153.9089 5.7886,163.457 5.7928,173.7626 5.7955,183.4707 5.7972,192.803 5.7982,202.9728 5.7989,213.6696 5.7993,223.6218 5.7996,233.1057 5.7997,242.297 5.7998,252.3782 5.7999,263.0191 5.7999,272.9381 5.8,282.4012 5.8,291.5774 5.8,301.6492 5.8,312.2842 5.8,323.2735 5.8,333.4116 5.8,343.0144 5.8,353.3544 5.8,364.1581 5.8,374.1777 5.8,383.704 5.8,393.9959 5.8,405.8453 5.8,417.5985 5.8,429.2911 5.8,440.9457 5.8,451.5004 5.8,461.3651 5.8,471.8699 5.8,484.9273 5.8,499.5902 5.8,515.263 5.8,531.5711 5.8,546.1287 5.8,558.5113 5.8,570.5999 5.8,583.5775 5.8,597.1144 5.8,609.9289 5.8,621.2152 5.8,631.54 5.8,642.3343 5.8,654.4978 5.8,667.5226 5.8,678.941 5.8,689.349 5.8,701.2696 5.8,714.1416 5.8,727.6139 5.8,741.4637 5.8,754.4752 5.8,766.9593 5.8,778.0357 5.8,787.1528 5.8,796.1133 5.8,806.0493 5.8,815.523 5.8,823.632 5.8,833.0324 5.8,843.2451 5.8,852.8948 5.8,862.1884 5.8,870.1841 4.7241,878.4392 2.9715,887.9315 1.869,897.1262 1.1756,905.0596 0.7395,914.3496 0.4651,924.4929 0.2926,934.0989 0.184,943.365 0.1158,952.4174 0.0728,961.3372 0.0458,970.1736 0.0288,978.9557 0.0181,986.6296 0.0114,995.7563 0.0072,1005.797 0.0045,1015.3383 0.0028,1024.5639 0.0018,1033.5907 0.0011,1044.6444 0.0007,1055.8971 0.0004,1066.199 0.0003,1075.9047 0.0002,1085.2355 0.0001,1095.4044 0.0001,1105.0247 0,1114.2998 0,1123.3597 0,1132.2842 0,1141.1236 0,1149.9094 -1.0759,1158.6596 -2.8285,1167.3876 -3.931,1177.1773 -5.6984,1186.5609 -7.8842,1195.689 -9.259,1204.6546 -10.1238,1213.5179 -9.5937,1222.3188 -8.1863,1231.0804 -6.7214,1243.7567 L-5.8,1251.73 " stroke-linecap="round" fill="none" stroke="#9398b0" stroke-width="17.385075102866054" stroke-dasharray="none" stroke-dashoffset="0"/></g></g><g transform="matrix(1, 0, 0, 1, 639.3012, 8307.6084) scale(5.795025034288685, 5.795025034288685)" opacity="1"><g transform="scale(0.17256180846210026)"><path d="M0,5.8 Q10.7516,5.8 19.5069,5.8 T35.9192,5.8 50.5425,5.8 64.0404,5.8 76.8305,5.8 88.1013,5.8 98.4165,5.8 109.2046,5.8 120.2902,5.8 131.563,5.8 141.8775,5.8 151.5894,5.8 161.998,5.8 172.8449,5.8 183.9675,5.8 196.3394,5.8 209.4972,4.7241 222.0733,2.9715 233.2076,1.869 243.4351,1.1756 253.0941,0.7395 262.3954,0.4651 271.4699,0.2926 280.4018,0.184 290.3198,0.1158 300.8581,0.0728 310.7126,0.0458 320.1369,0.0288 330.3647,0.0181 342.1719,0.0114 354.9725,-1.0687 366.25,-2.824 375.4935,-3.9281 385.6075,-4.6226 396.2691,-5.0594 406.1993,-5.3342 415.6712,-5.507 423.7789,-5.6157 432.1027,-5.6841 440.5642,-4.6512 448.0364,-2.9256 455.9605,-1.8402 464.1705,-1.1575 472.5605,-0.7281 482.1377,-0.4579 491.3857,-0.288 500.4267,-0.1812 510.4134,-0.114 519.9209,-0.0717 530.201,-0.0451 540.967,-0.0284 550.9647,-0.0178 561.5532,-0.0112 571.4373,-0.0071 580.8784,-0.0044 591.1167,-0.0028 601.8565,-0.0018 612.9118,-0.0011 623.0914,-0.0007 632.7202,-0.0004 643.0766,-0.0003 653.8906,-0.0002 664.9926,-0.0001 677.3496,1.0758 690.4962,2.8285 703.0652,3.9309 715.271,4.6244 727.2484,5.0605 739.082,5.3349 750.8253,5.5074 762.5117,5.616 774.1623,6.7583 784.7164,8.5509 794.5808,9.6784 804.0095,11.4635 813.1641,13.6622 822.1482,15.0452 832.0991,15.9151 843.7321,17.5364 855.3492,19.6301 866.9562,20.9471 877.4829,21.7755 887.33,22.2966 897.8237,22.6243 907.6483,22.8305 917.0519,22.9602 927.2667,23.0417 936.9176,23.093 946.2139,23.1253 956.3612,23.1456 965.9678,23.1584 976.3102,23.1664 988.1914,23.1714 998.8887,23.1746 1008.8412,23.1766 1019.4013,23.1779 1030.3435,23.1787 1040.4519,23.1792 1048.9601,23.1795 1057.5357,23.1797 1066.1556,23.1798 1073.7275,23.1799 1080.6402,23.1799 1087.1382,23.1799 1093.3754,23.18 1100.5244,23.18 1108.2451,23.18 1115.2514,23.18 1121.8083,23.18 1128.0826,23.18 1135.2549,23.18 1142.9921,23.18 1150.0088,23.18 1156.5722,23.18 1162.8506,22.106 1170.0237,20.3563 1177.7614,19.2558 1184.7783,18.5636 1191.3419,18.1282 1197.6204,17.8543 1203.7195,17.6821 1209.7058,17.5737 1216.6951,17.5056 1224.3173,17.4627 1231.2615,17.4357 1237.7794,17.4188 1245.105,17.4081 1252.9368,17.4014 1258.9371,16.3213 1265.182,13.4169 L1269.11,11.59 " stroke-linecap="round" fill="none" stroke="#9398b0" stroke-width="17.385075102866054" stroke-dasharray="none" stroke-dashoffset="0"/></g></g><g transform="matrix(1, 0, 0, 1, 859.5122, 8800.1855) scale(5.795025034288685, 5.795025034288685)" opacity="1"><g transform="scale(0.17256180846210026)"><path d="M0,0 Q0,2.1518 1.0759,1.7526 T3.9026,0.0265 7.8305,-3.2092 12.4511,-8.4684 18.5815,-15.0023 25.6633,-21.2621 33.3436,-28.4235 41.3986,-36.1538 49.6891,-43.1662 58.1297,-50.8009 66.6647,-58.829 75.2571,-67.1045 83.8858,-75.5338 92.5391,-84.0598 100.1319,-92.6486 107.0578,-100.2008 113.5641,-108.1751 120.8806,-116.4169 128.7084,-123.7508 135.7821,-131.5879 143.4555,-139.7433 151.5079,-148.0988 159.7986,-156.5785 168.2375,-165.1362 176.7696,-173.7448 185.3621,-181.3096 192.9167,-188.2177 199.8186,-194.7129 206.3097,-202.0224 212.5426,-209.8459 218.6131,-216.9168 224.5813,-223.5144 230.4853,-229.8142 236.3488,-235.9267 242.187,-241.9214 248.0091,-247.8421 253.8211,-253.7161 259.6269,-259.5608 265.4286,-265.3871 270.152,-271.2017 274.1988,-277.0091 278.8943,-282.8119 283.9976,-288.6118 289.3576,-294.4098 294.879,-300.2068 300.5019,-306.003 306.1886,-311.7988 311.9155,-317.5942 317.6677,-324.4654 323.4357,-332.0114 329.2138,-338.9078 334.9981,-346.4714 340.7864,-354.453 346.5772,-361.6233 352.3696,-368.2834 358.1629,-374.6225 363.9568,-380.7598 368.6771,-386.7701 372.7202,-392.7005 377.4133,-398.5806 382.5152,-404.4292 386.7983,-410.2579 390.5683,-416.0741 395.0896,-422.9565 400.0834,-430.5114 405.3744,-437.4133 410.8525,-443.9046 415.374,-450.1375 419.2922,-456.208 423.9066,-462.1763 427.885,-468.0803 431.4614,-473.9438 435.861,-479.7819 440.7782,-485.6041 446.0211,-491.4161 451.4688,-497.2219 457.0454,-503.0236 461.629,-508.8229 465.5861,-514.6205 470.225,-521.4931 475.2929,-529.0399 480.6305,-535.9369 486.1378,-542.425 491.7519,-548.6559 496.359,-554.7251 500.3309,-559.6167 504.9792,-563.7694 508.9789,-568.5314 512.5687,-573.6767 516.9767,-579.063 521.8992,-584.6009 527.1455,-591.3101 532.5953,-599.8301 538.1732,-608.4131 543.8316,-615.9618 549.5407,-622.8599 555.2817,-629.3487 561.0427,-636.656 566.8163,-644.4763 573.6719,-651.5452 581.2099,-658.1415 588.1013,-664.4405 594.5859,-671.6285 600.8146,-679.3737 606.8825,-686.3953 612.8491,-692.9619 618.752,-699.2422 624.6149,-706.4184 630.4526,-714.1562 636.2745,-721.1732 642.0864,-728.8128 647.892,-736.842 653.6937,-744.0424 659.4929,-750.7214 665.2906,-757.0724 671.0872,-763.2171 676.8833,-769.2321 682.6789,-775.1655 688.4744,-781.0475 695.3455,-786.8972 701.8174,-792.7267 706.9623,-798.5433 712.3484,-804.352 717.8861,-809.0815 723.5194,-813.1304 730.2885,-817.8271 736.6962,-822.9313 741.8007,-827.2159 747.1614,-830.9868 752.6832,-835.5086 757.2305,-840.5028 761.1666,-845.7941 765.7924,-850.1963 770.8519,-854.0412 775.1103,-858.6096 778.8629,-862.5572 782.2973,-866.1161 785.5334,-870.5046 788.6448,-875.415 791.676,-879.5795 794.6566,-883.273 797.6073,-887.7461 801.6132,-891.6356 805.207,-895.1562 808.5434,-899.5206 812.792,-904.4157 816.5383,-910.7187 819.9707,-916.8333 823.2056,-921.7552 826.3143,-927.0011 831.327,-934.238 L834.48,-938.79 " stroke-linecap="round" fill="none" stroke="#9398b0" stroke-width="17.385075102866054" stroke-dasharray="none" stroke-dashoffset="0"/></g></g><g transform="matrix(1, 0, 0, 1, 789.9719, 7913.5467) scale(5.795025034288685, 5.795025034288685)" opacity="1"><g transform="scale(0.17256180846210026)"><path d="M0,5.8 Q8.5998,12.248 13.4544,15.3518 T22.4384,21.4819 30.2392,26.4118 36.22,30.5886 41.0579,34.2917 46.2508,37.695 51.6671,40.9097 57.2239,44.0077 62.8691,48.1062 68.5698,52.8342 74.3056,57.958 80.0633,63.3308 85.8348,68.8603 91.6151,75.5623 97.4008,81.9278 102.1159,87.0076 106.1558,92.3527 110.8468,96.7889 115.9474,100.6551 121.3056,105.2369 126.8258,109.1929 133.5221,112.7572 140.9599,117.149 147.7882,122.0614 154.2331,126.2272 160.4369,129.9216 166.4891,134.3952 172.4458,139.3591 178.3426,144.6314 184.2016,150.0975 190.0368,154.6098 195.8571,158.5239 201.6681,163.1359 207.4731,168.1867 213.2744,173.5136 219.0733,179.0142 224.8708,184.624 230.6674,190.3025 236.4634,196.0243 242.259,201.7732 248.0544,207.5392 254.9255,213.316 262.4715,219.0995 269.3678,224.8873 275.8556,230.6777 282.0863,236.4699 288.1554,241.1891 295.1968,245.2314 302.8517,249.9241 309.8166,255.0257 317.4215,260.3845 325.4308,266.9811 332.6187,273.2803 339.2897,278.3165 345.6358,282.5583 350.7015,286.3023 354.9637,289.7332 359.7946,292.9653 364.9832,296.0723 369.3227,299.1025 373.1263,303.1585 377.6687,306.7837 382.6758,310.1399 387.9753,314.4009 393.4585,319.231 399.0575,323.345 404.7291,327.0068 410.4466,331.46 416.1928,335.3369 421.9571,339.9255 427.7328,344.9616 433.5156,349.2034 439.303,354.0214 445.0932,359.2019 450.8852,364.6104 456.6783,369.0882 462.4721,372.9788 468.2663,377.5759 474.0609,382.6175 479.8556,387.9386 485.6504,393.4355 491.4453,397.9671 497.2402,401.8933 503.0351,406.5129 508.8301,411.5686 514.6251,416.8985 520.4201,422.401 526.2151,428.012 532.0101,433.6913 537.8051,439.4135 543.6001,445.1627 549.3951,450.9289 556.266,456.7058 563.8117,462.4894 570.708,468.2772 577.1957,475.1436 583.4264,482.6865 588.4214,489.581 592.6373,496.0676 597.439,502.2976 602.6093,508.3662 608.0113,515.4073 613.5591,523.062 619.1986,530.0268 624.8959,536.5576 630.6293,541.7414 636.3857,546.076 642.1563,550.9524 647.936,556.1696 653.7214,561.6012 659.5103,567.1676 665.3015,571.7429 671.0941,575.6967 676.8876,580.3336 682.6817,585.4001 687.4002,590.7369 691.444,596.2437 696.1375,601.8574 701.2397,608.6124 706.5989,615.0113 712.1198,620.1121 717.7424,626.5463 724.503,633.8174 731.9812,641.6149 738.835,649.7454 745.296,657.0094 751.5099,662.6526 757.5683,667.278 762.455,672.3373 766.6028,677.6696 771.3617,683.1735 776.505,688.7854 781.8901,694.4653 787.4272,700.1879 793.06,704.8633 797.679,708.8781 801.6583,712.4775 806.3113,715.8174 810.3139,720.0682 813.9056,723.816 817.2388,727.2492 820.4113,731.5587 824.5567,735.3434 828.2383,738.7998 831.6299,742.0499 835.9131,745.1682 840.7572,749.2795 844.8801,754.0155 848.5474,758.0685 853.0041,761.6937 857.9573,766.1239 863.2228,772.1345 868.6847,778.0651 875.3443,782.8714 881.6831,788.0445 886.7461,793.4483 892.0807,797.9232 897.5861,801.8119 903.1989,805.332 907.8034,808.622 911.7756,811.7674 917.6899,815.0409 L921.41,817.1 " stroke-linecap="round" fill="none" stroke="#9398b0" stroke-width="17.385075102866054" stroke-dasharray="none" stroke-dashoffset="0"/></g></g><g transform="matrix(1, 0, 0, 1, 2053.2873, 8151.1427) scale(5.795025034288685, 5.795025034288685)" opacity="1"><g transform="scale(0.17256180846210026)"><path d="M0,0 Q4.2999,-10.7516 7.8022,-15.207 T14.5832,-23.5408 20.9985,-30.9327 28.2577,-38.8061 37.1236,-46.9844 47.0001,-54.2785 57.5124,-62.0905 68.4245,-70.23 79.588,-77.4998 90.9098,-84.2224 102.3311,-90.6008 113.815,-95.6869 125.3383,-99.962 136.8863,-104.8009 148.4499,-108.9187 160.0233,-112.5847 171.6028,-115.9665 183.1862,-118.0936 194.7721,-119.4316 206.3595,-121.3472 217.9479,-123.6262 229.5369,-125.0597 241.1262,-125.9613 251.6418,-125.4544 261.4819,-124.0615 271.9712,-122.1095 281.793,-118.7317 291.1949,-114.4572 300.3345,-110.6926 309.3092,-107.2506 319.2541,-102.9356 328.7335,-98.0716 337.92,-92.8622 346.9242,-87.4355 355.8136,-81.8722 364.6291,-76.2229 372.324,-70.5195 379.314,-65.8562 385.8607,-62.923 394.4545,-59.8702 L399.86,-57.95 " stroke-linecap="round" fill="none" stroke="#9398b0" stroke-width="17.385075102866054" stroke-dasharray="none" stroke-dashoffset="0"/></g></g><g transform="matrix(1, 0, 0, 1, 2453.1441, 8098.9875) scale(5.795025034288685, 5.795025034288685)" opacity="1"><g transform="scale(0.17256180846210026)"><path d="M0,0 Q6.4517,0 8.4807,-3.2258 T10.7102,-10.6307 11.0366,-19.5882 10.1679,-29.5224 8.5474,-40.0709 6.4522,-49.9299 2.9825,-60.4311 -1.3498,-71.3362 -6.2248,-80.3455 -11.4412,-86.0123 -14.7222,-88.5009 -15.712,-88.9921 -15.2586,-87.1512 -12.8235,-83.8433 -9.1419,-79.6127 -4.6743,-73.7258 0.2857,-66.7989 5.5555,-60.292 9.9461,-52.9733 13.7818,-44.0699 18.3444,-35.2457 22.2902,-25.3954 24.7721,-12.7479 25.2574,-0.4927 23.4126,9.3658 20.1023,16.6427 15.8702,22.2939 9.9824,26.9225 1.9772,29.8339 -9.9118,32.8641 L-17.39,34.77 " stroke-linecap="round" fill="none" stroke="#9398b0" stroke-width="17.385075102866054" stroke-dasharray="none" stroke-dashoffset="0"/></g></g><g transform="matrix(1, 0, 0, 1, 1467.9898, 8185.9128) scale(5.795025034288685, 5.795025034288685)" opacity="1"><g transform="scale(0.17256180846210026)"><path d="M0,0 Q0,12.8997 0,19.1066 T0,32.4434 0,49.4321 0,76.0054 L0,92.72 " stroke-linecap="round" fill="none" stroke="#e599f7" stroke-width="17.385075102866054" stroke-dasharray="none" stroke-dashoffset="0"/></g></g><g transform="matrix(1, 0, 0, 1, 1537.5301, 8127.9626) scale(5.795025034288685, 5.795025034288685)" opacity="1"><g transform="scale(0.17256180846210026)"><path d="M0,0 Q4.2999,8.5998 5.6522,14.5303 T7.8551,28.4909 9.2408,45.8719 10.1123,67.5543 10.6605,88.7164 11.0054,104.1773 11.3643,122.0488 L11.59,133.29 " stroke-linecap="round" fill="none" stroke="#e599f7" stroke-width="17.385075102866054" stroke-dasharray="none" stroke-dashoffset="0"/></g></g><g transform="matrix(1, 0, 0, 1, 1641.8406, 8041.0372) scale(5.795025034288685, 5.795025034288685)" opacity="1"><g transform="scale(0.17256180846210026)"><path d="M0,0 Q4.2999,21.4995 5.6522,32.5609 T7.8551,53.8059 9.2408,74.6947 10.1123,95.3577 10.6605,113.7286 11.0054,129.5838 11.2223,143.8566 11.448,162.2688 L11.59,173.85 " stroke-linecap="round" fill="none" stroke="#e599f7" stroke-width="17.385075102866054" stroke-dasharray="none" stroke-dashoffset="0"/></g></g><g transform="matrix(1, 0, 0, 1, 1734.561, 7988.882) scale(5.795025034288685, 5.795025034288685)" opacity="1"><g transform="scale(0.17256180846210026)"><path d="M0,5.8 Q2.1518,18.6997 3.9026,27.0565 T6.7546,46.0437 9.6244,68.7364 13.5795,93.7598 17.1413,119.1734 20.4576,149.1341 23.6194,181.9549 25.6082,209.0491 27.678,240.8053 L28.98,260.78 " stroke-linecap="round" fill="none" stroke="#e599f7" stroke-width="17.385075102866054" stroke-dasharray="none" stroke-dashoffset="0"/></g></g><g transform="matrix(1, 0, 0, 1, 1386.8595, 8493.0492) scale(5.795025034288685, 5.795025034288685)" opacity="1"><g transform="scale(0.17256180846210026)"><path d="M0,0 Q-2.1518,15.0515 -2.8285,24.085 T-5.005,44.1747 -8.5239,68.6348 -12.8873,95.8459 -17.7818,124.7873 -24.0863,162.3409 -31.2758,202.0858 -36.872,231.3852 -42.6964,263.6595 L-46.36,283.96 " stroke-linecap="round" fill="none" stroke="#e599f7" stroke-width="17.385075102866054" stroke-dasharray="none" stroke-dashoffset="0"/></g></g><g transform="matrix(1, 0, 0, 1, 1439.0147, 8603.1546) scale(5.795025034288685, 5.795025034288685)" opacity="1"><g transform="scale(0.17256180846210026)"><path d="M0,0 Q2.1518,15.0515 1.7526,23.0091 T0.0265,39.198 -3.2092,57.9806 -7.3944,79.4687 -13.2527,101.5845 -20.1616,125.171 -26.6572,148.6067 -31.8188,169.7976 -35.0655,189.5765 -38.4446,215.4964 L-40.57,231.8 " stroke-linecap="round" fill="none" stroke="#e599f7" stroke-width="17.385075102866054" stroke-dasharray="none" stroke-dashoffset="0"/></g></g><g transform="matrix(1, 0, 0, 1, 1520.145, 8666.8999) scale(5.795025034288685, 5.795025034288685)" opacity="1"><g transform="scale(0.17256180846210026)"><path d="M0,0 Q2.1518,19.3514 1.7526,29.7373 T0.0265,50.9558 -2.1351,71.8261 -4.5688,91.4034 -7.1737,110.1673 -8.8121,126.2697 -10.5174,144.8089 L-11.59,156.47 " stroke-linecap="round" fill="none" stroke="#e599f7" stroke-width="17.385075102866054" stroke-dasharray="none" stroke-dashoffset="0"/></g></g><g transform="matrix(1, 0, 0, 1, 737.8166, 8400.3288) scale(5.795025034288685, 5.795025034288685)" opacity="1"><g transform="scale(0.17256180846210026)"><path d="M0,0 Q0,23.6512 -1.0759,34.3136 T-2.8285,55.9823 -3.931,79.2877 -5.6984,102.5465 -7.8842,123.6262 -9.259,144.411 -10.69,173.1581 L-11.59,191.24 " stroke-linecap="round" fill="none" stroke="#e599f7" stroke-width="17.385075102866054" stroke-dasharray="none" stroke-dashoffset="0"/></g></g><g transform="matrix(1, 0, 0, 1, 824.742, 8371.3536) scale(5.795025034288685, 5.795025034288685)" opacity="1"><g transform="scale(0.17256180846210026)"><path d="M0,0 Q0,12.8997 0,20.1825 T0,36.346 0,55.1127 0,76.5907 -1.0759,100.8501 -3.9026,125.785 -6.7546,150.0688 -9.6244,175.0171 -12.5055,198.2335 -14.3176,217.1365 -15.4575,233.3264 -16.6438,253.7338 L-17.39,266.57 " stroke-linecap="round" fill="none" stroke="#e599f7" stroke-width="17.385075102866054" stroke-dasharray="none" stroke-dashoffset="0"/></g></g><g transform="matrix(1, 0, 0, 1, 940.6425, 8382.9437) scale(5.795025034288685, 5.795025034288685)" opacity="1"><g transform="scale(0.17256180846210026)"><path d="M0,0 Q0,25.7993 0,38.2131 T-1.0759,62.7351 -3.9026,87.835 -7.8305,113.2986 -11.3771,138.989 -14.6819,164.8221 -17.8347,191.8209 -21.116,230.5926 L-23.18,254.98 " stroke-linecap="round" fill="none" stroke="#e599f7" stroke-width="17.385075102866054" stroke-dasharray="none" stroke-dashoffset="0"/></g></g><g transform="matrix(1, 0, 0, 1, 1056.543, 8394.5337) scale(5.795025034288685, 5.795025034288685)" opacity="1"><g transform="scale(0.17256180846210026)"><path d="M0,0 Q2.1518,23.6512 2.8285,35.3895 T3.931,57.735 4.6244,77.1643 3.9846,93.6852 1.5386,114.4371 L0,127.49 " stroke-linecap="round" fill="none" stroke="#e599f7" stroke-width="17.385075102866054" stroke-dasharray="none" stroke-dashoffset="0"/></g></g><g transform="matrix(1, 0, 0, 1, 975.4127, 7884.5715) scale(5.795025034288685, 5.795025034288685)" opacity="1"><g transform="scale(0.17256180846210026)"><path d="M0,0 Q2.1518,23.6512 2.8285,34.3136 T3.931,54.9083 3.5485,74.3122 2.232,91.8912 1.4039,107.2483 0.5421,126.7889 L0,139.08 " stroke-linecap="round" fill="none" stroke="#e599f7" stroke-width="17.385075102866054" stroke-dasharray="none" stroke-dashoffset="0"/></g></g><g transform="matrix(1, 0, 0, 1, 1073.9281, 7803.4412) scale(5.795025034288685, 5.795025034288685)" opacity="1"><g transform="scale(0.17256180846210026)"><path d="M0,0 Q2.1518,23.6512 2.8285,36.4635 T3.931,61.6346 3.5485,88.2169 2.232,116.7628 1.4039,145.4679 0.8831,172.1232 0.5554,197.4891 0.3494,219.8941 0.1349,244.9929 L0,260.78 " stroke-linecap="round" fill="none" stroke="#e599f7" stroke-width="17.385075102866054" stroke-dasharray="none" stroke-dashoffset="0"/></g></g><g transform="matrix(1, 0, 0, 1, 1184.0336, 7797.6462) scale(5.795025034288685, 5.795025034288685)" opacity="1"><g transform="scale(0.17256180846210026)"><path d="M0,0 Q2.1518,30.0992 2.8285,43.8653 T3.931,71.6661 4.6244,102.0524 5.0605,135.1392 5.3349,168.8504 5.5074,201.8804 4.5401,231.256 2.8557,256.1831 1.1027,287.4642 L0,307.14 " stroke-linecap="round" fill="none" stroke="#e599f7" stroke-width="17.385075102866054" stroke-dasharray="none" stroke-dashoffset="0"/></g></g><g transform="matrix(1, 0, 0, 1, 2876.1809, 8342.3785) scale(5.795025034288685, 5.795025034288685)" opacity="1"><g transform="scale(0.17256180846210026)"><path d="M0,0 Q-4.2999,15.0515 -5.6522,20.8592 T-8.931,31.3959 -12.0693,41.2493 -15.1173,50.6711 -19.1845,58.7474 -22.8186,67.0532 -26.1785,76.5774 -31.5159,87.9421 -37.0231,100.4644 -41.563,112.6409 -46.5685,124.5997 -51.8669,136.4217 -57.3496,148.1577 -61.8722,159.8395 -65.7929,171.4872 -70.4089,183.1135 -75.4623,194.7264 -80.7909,206.3307 -86.2925,217.9298 -91.9029,229.5255 -96.506,241.119 -100.4772,251.6372 -105.125,261.479 -110.1984,271.9694 -115.5395,281.7919 -121.0491,291.1942 -125.5905,300.3341 -129.521,308.233 -134.1433,316.4254 -139.2007,324.8043 -144.5317,333.3005 -150.0348,342.9444 -155.6463,352.2345 -161.3258,361.3019 -167.0482,370.2312 -171.7235,379.0735 -175.7383,387.8594 -180.4135,395.5356 -185.5042,402.5139 -190.8562,410.1272 -196.3725,418.1418 -200.9163,425.333 -204.8503,433.0802 -209.4747,441.1791 -214.5334,448.4232 -218.7912,455.1297 -222.5434,462.5739 -227.0535,471.5562 -232.0403,480.4301 -236.251,488.1617 -239.9755,495.1748 -244.4681,501.736 -248.368,508.013 -251.897,514.1111 -255.1926,520.0968 -258.3396,527.0858 -262.4689,535.7817 -267.2163,544.4773 -271.2764,552.0968 -274.9061,559.0394 -278.2651,565.5562 -281.452,572.8793 -286.5459,584.0584 L-289.75,591.09 " stroke-linecap="round" fill="none" stroke="#9398b0" stroke-width="17.385075102866054" stroke-dasharray="none" stroke-dashoffset="0"/></g></g><g transform="matrix(1, 0, 0, 1, 2881.9759, 8324.9934) scale(5.795025034288685, 5.795025034288685)" opacity="1"><g transform="scale(0.17256180846210026)"><path d="M0,0 Q2.1518,17.1996 3.9026,23.6847 T6.7546,35.3231 9.6244,44.7936 13.5795,52.9005 17.1413,61.2237 20.4576,69.6848 26.8434,80.3827 35.1599,93.5615 42.541,106.1508 49.3336,118.3694 55.7562,130.3548 63.0199,141.1176 70.8147,151.1114 77.8675,161.6973 85.5277,171.5818 93.5718,181.0249 101.8574,191.2645 110.2931,202.0052 118.8231,214.1349 127.4143,228.2144 136.044,242.4462 144.6961,256.7719 153.3623,272.2326 162.0391,287.3332 170.7227,301.1314 180.4846,314.1103 189.8488,327.648 198.9628,341.5371 208.9955,355.6492 218.5319,370.9755 226.6802,385.9897 235.0295,399.7335 243.507,412.6782 250.9893,425.1204 257.8457,437.2464 264.3082,449.1735 270.5231,460.9756 276.5823,471.6249 282.5434,481.5492 288.4429,491.0156 294.3036,499.1198 299.0659,506.3674 303.1354,514.1501 307.8451,523.3453 311.8834,534.5049 314.4235,546.9 317.0953,557.9206 319.8498,568.0765 321.5825,577.6904 323.7482,585.8875 326.1863,594.2675 328.794,603.8383 332.5841,612.0084 336.044,618.2232 339.2943,621.0583 344.4544,620.4516 L347.7,620.07 " stroke-linecap="round" fill="none" stroke="#9398b0" stroke-width="17.385075102866054" stroke-dasharray="none" stroke-dashoffset="0"/></g></g><g transform="matrix(1, 0, 0, 1, 2615.4048, 8956.6512) scale(5.795025034288685, 5.795025034288685)" opacity="1"><g transform="scale(0.17256180846210026)"><path d="M0,5.8 Q4.2999,16.5479 6.7281,22.078 T11.7577,32.1625 17.0713,40.6556 23.6394,49.2218 30.9947,57.8357 38.8452,65.4039 48.083,72.3142 58.1935,78.8107 68.8529,85.0469 79.8575,91.1195 91.0793,97.0891 102.4377,102.9939 113.8821,108.858 125.3805,114.6964 136.9128,119.4428 149.5425,123.5042 162.8623,127.1347 175.5404,129.4183 188.8888,130.8547 202.6589,131.7582 215.6202,132.3265 228.0727,132.684 241.2812,132.9088 254.9651,133.0502 267.8721,133.1392 280.2906,133.1951 293.4757,133.2303 307.1431,133.2525 320.0398,133.2664 333.5275,133.2752 347.3872,132.2048 360.4048,130.4556 372.8927,128.2813 385.0475,125.8396 395.9169,123.2279 405.9777,120.5093 416.6059,118.7992 426.5168,116.6496 435.9766,114.2234 446.2268,111.6214 455.8981,107.8348 465.2053,104.379 474.2854,101.1294 483.2227,96.9355 492.0682,92.1476 500.856,86.986 509.6094,82.6653 517.2652,78.8717 526.3806,74.3356 536.4141,69.3325 544.8751,64.0355 552.347,58.5538 559.1968,51.88 565.6552,44.4581 571.8675,37.6398 576.851,30.1253 581.0596,21.0988 585.8568,11.1212 591.0242,2.6953 595.3485,-3.6804 598.0685,-7.6908 600.8994,-10.0844 L602.68,-11.59 " stroke-linecap="round" fill="none" stroke="#9398b0" stroke-width="17.385075102866054" stroke-dasharray="none" stroke-dashoffset="0"/></g></g><g transform="matrix(1, 0, 0, 1, 3525.2237, 8307.6084) scale(5.795025034288685, 5.795025034288685)" opacity="1"><g transform="scale(0.17256180846210026)"><path d="M0,0 Q-2.1518,8.5998 -2.8285,13.4544 T-5.005,22.4384 -8.5239,31.3151 -12.8873,41.1985 -17.7818,51.7151 -24.0863,65.8539 -31.2758,82.271 -37.9479,97.9732 -44.2946,114.2997 -51.5107,129.943 -59.2755,144.0826 -66.3095,158.3521 -72.8838,172.7035 -79.169,184.9545 -84.1964,195.8843 -88.4346,207.0591 -93.2503,218.3879 -98.4294,229.8136 -103.8369,241.3003 -109.3882,252.8253 -115.0299,264.3744 -120.7285,275.9387 -126.4629,287.5125 -132.2197,299.0924 -137.9907,309.6019 -143.7706,319.4383 -148.4821,329.9252 -152.5197,340.8214 -157.2092,351.975 -162.3089,363.2905 -167.6666,373.6319 -173.1865,383.3607 -178.8084,393.78 -184.4946,403.5595 -190.2211,412.9367 -195.9731,423.1349 -201.741,434.9235 -207.5189,446.6384 -213.3032,457.2329 -218.0174,467.1208 -222.0567,476.5643 -226.7474,485.7301 -230.7737,494.7213 -234.3803,504.6766 -238.7988,514.1625 -242.6539,523.3531 -246.1529,532.3598 -250.5036,541.2509 -255.3902,552.2173 -260.6138,563.4151 -264.9754,573.6843 -268.7928,584.4436 -272.268,594.4351 -274.454,602.8698 -276.9048,610.3251 -279.5223,617.1644 -282.2465,626.0629 L-283.96,631.66 " stroke-linecap="round" fill="none" stroke="#9398b0" stroke-width="17.385075102866054" stroke-dasharray="none" stroke-dashoffset="0"/></g></g><g transform="matrix(1, 0, 0, 1, 3507.8386, 8365.5586) scale(5.795025034288685, 5.795025034288685)" opacity="1"><g transform="scale(0.17256180846210026)"><path d="M0,0 Q10.7516,15.0515 15.207,20.8592 T22.4649,31.3959 28.106,40.1734 33.8042,48.9185 39.5383,57.645 45.295,65.2839 52.1399,75.4627 59.6713,88.315 67.6343,100.699 75.8671,112.7884 83.1954,124.6925 91.0308,136.4801 99.1832,148.1944 106.461,158.7885 113.1887,168.6781 119.5704,179.1985 125.7344,190.1157 131.7615,201.2826 137.7025,212.6064 143.5894,224.029 149.4421,235.5137 155.2735,247.0374 160.0173,258.5857 164.0752,270.1495 168.7775,281.7231 173.8853,293.3027 179.248,304.8862 184.7711,315.3962 190.395,325.2309 196.0824,335.7169 201.8098,346.6125 206.4882,357.7657 210.5049,368.0069 215.1814,377.6744 220.2729,388.0552 224.5494,397.8087 228.3153,407.1677 232.834,416.2803 237.8262,426.312 243.1162,437.9959 248.5936,448.5709 253.1147,457.3726 255.9585,465.0587 258.8213,472.0433 261.6961,478.5865 263.5043,485.928 264.6417,493.7698 266.433,501.9263 269.7097,510.2826 273.9206,517.6887 278.7193,524.497 283.8876,530.9294 289.2884,537.1253 294.8354,543.1725 299.4004,549.1261 303.3459,555.0209 307.9775,560.8787 313.0407,566.7131 318.3754,572.533 323.8809,579.4195 329.4938,586.9751 334.1002,593.8775 338.8944,602.8416 L341.91,608.48 " stroke-linecap="round" fill="none" stroke="#9398b0" stroke-width="17.385075102866054" stroke-dasharray="none" stroke-dashoffset="0"/></g></g><g transform="matrix(1, 0, 0, 1, 4162.6764, 8330.7885) scale(5.795025034288685, 5.795025034288685)" opacity="1"><g transform="scale(0.17256180846210026)"><path d="M0,0 Q-6.4517,17.1996 -9.5548,24.7588 T-15.6856,39.2227 -21.6919,53.6962 -27.6198,68.1759 -33.4984,81.5835 -39.3459,95.3908 -45.174,110.5255 -52.0638,129.7208 -59.6234,151.4685 -67.6042,171.5977 -75.8481,189.6347 -83.1835,205.2799 -89.9474,220.4946 -96.3518,235.4387 -102.5301,249.1383 -109.6403,263.1312 -117.3384,277.3085 -124.3305,290.5259 -130.8785,303.1396 -137.1471,316.4475 -143.24,329.1181 -149.2224,340.3137 -155.1352,351.6557 -161.0044,363.0896 -165.7701,373.5056 -169.8436,384.3571 -174.5558,395.4826 -178.5939,405.7046 -182.2097,416.434 -186.634,428.5587 -191.5668,440.485 -196.8195,451.2106 -202.2734,461.1828 -207.8538,469.6053 -212.438,477.053 -216.3973,484.9635 -221.0376,493.1631 -225.0305,500.4707 -228.6179,508.293 -233.0243,517.5131 -237.9459,526.5365 -242.1174,535.4362 -245.8154,544.26 -250.2914,553.036 -255.2567,561.7801 -260.5298,569.4301 -265.9966,576.3919 -270.5092,583.9948 -274.4236,592.0029 -277.9616,599.19 -281.261,605.8606 -284.4104,612.2063 -286.3914,618.3477 -288.7134,624.3606 -291.2497,631.3667 -293.8896,642.2159 L-295.55,649.04 " stroke-linecap="round" fill="none" stroke="#9398b0" stroke-width="17.385075102866054" stroke-dasharray="none" stroke-dashoffset="0"/></g></g><g transform="matrix(1, 0, 0, 1, 4168.4715, 8324.9934) scale(5.795025034288685, 5.795025034288685)" opacity="1"><g transform="scale(0.17256180846210026)"><path d="M0,0 Q2.1518,12.8997 3.9026,18.0325 T6.7546,28.5439 9.6244,39.4554 13.5795,50.6186 18.2172,61.9402 24.3601,76.5854 32.5239,94.3969 40.883,112.0503 48.2907,128.5281 56.1761,144.2685 64.3599,159.545 71.6575,173.4538 79.4736,186.5023 87.6138,199.0097 94.884,211.1768 102.6828,222.0538 110.8122,232.1195 118.0756,242.7507 124.7942,253.7376 132.2442,264.9483 140.156,276.2996 147.2826,287.7396 153.9151,300.3111 160.2369,312.5184 166.3633,323.4208 172.3667,334.5784 178.2928,344.8223 183.0962,354.4915 187.1916,364.8734 191.9175,374.6276 195.9661,383.987 199.5866,394.1739 202.938,404.8814 206.1219,415.9163 210.2746,427.1571 213.9606,438.5275 217.355,449.9793 221.6401,462.5583 226.4853,474.7704 230.6089,484.6018 234.2766,492.9356 237.6577,500.3276 240.8603,507.127 245.0246,513.5539 249.794,519.7463 253.8698,526.8653 257.5075,535.643 261.9456,544.3901 265.8131,552.0419 269.3197,559.0049 272.5995,565.5345 275.7383,572.8657 279.8626,580.7028 284.6067,587.7823 289.7407,594.3852 294.0441,600.6884 297.8268,606.8031 302.356,612.7992 307.3549,617.6447 314.3378,622.6879 L318.73,625.86 " stroke-linecap="round" fill="none" stroke="#9398b0" stroke-width="17.385075102866054" stroke-dasharray="none" stroke-dashoffset="0"/></g></g><g transform="matrix(1, 0, 0, 1, 4794.3342, 8307.6084) scale(5.795025034288685, 5.795025034288685)" opacity="1"><g transform="scale(0.17256180846210026)"><path d="M0,0 Q-2.1518,10.7516 -3.9026,16.2829 T-7.8305,27.4434 -13.527,39.8372 -21.41,57.3068 -29.5924,76.8949 -36.8891,94.5917 -44.7045,112.1727 -51.7704,128.6052 -57.2889,144.317 -62.9099,160.6495 -68.5955,177.3725 -74.3217,194.3411 -80.0734,211.4642 -85.8412,227.6104 -91.6191,242.0663 -97.4033,256.533 -103.1915,271.0064 -108.9823,284.4101 -114.7746,298.2168 -120.5679,312.2771 -126.3619,326.4949 -132.1562,340.8118 -137.9508,354.1171 -144.8195,366.7859 -152.3659,380.1305 -159.2624,392.8241 -165.7503,404.0323 -173.057,416.4581 -180.877,429.6497 -187.9456,441.1712 -194.5418,451.6422 -199.7648,462.5284 -204.126,472.6016 -209.0191,481.0877 -213.1709,489.6494 -216.8583,498.2605 -220.2536,506.9028 -223.4633,515.5627 -226.5562,524.2338 -229.5775,532.9138 -233.6279,541.5994 -238.3256,550.2866 -242.3563,558.9748 -245.9656,567.6656 -250.3859,575.282 -254.2421,582.2227 -257.7417,589.8142 -262.0929,597.8132 -265.9057,604.9946 -269.378,611.6616 -272.6361,618.0051 -275.7614,625.221 -279.8771,632.9838 -283.54,640.0166 -286.9198,648.74 -291.1956,659.6011 -297.423,674.4623 L-301.34,683.81 " stroke-linecap="round" fill="none" stroke="#9398b0" stroke-width="17.385075102866054" stroke-dasharray="none" stroke-dashoffset="0"/></g></g><g transform="matrix(1, 0, 0, 1, 4800.1292, 8313.4034) scale(5.795025034288685, 5.795025034288685)" opacity="1"><g transform="scale(0.17256180846210026)"><path d="M0,0 Q4.2999,10.7516 5.6522,16.2829 T8.931,27.4434 13.1434,38.7632 20.0928,56.6331 28.7639,78.623 37.442,96.7545 46.1264,113.5332 53.7388,129.4609 60.6769,144.8552 67.191,159.914 73.4383,174.7599 79.5177,189.472 86.5657,204.1016 94.2247,218.6795 102.2681,232.1488 110.5514,244.9209 117.9115,257.2545 125.7669,270.3862 133.9319,285.0959 141.2176,300.7982 147.9503,317.1247 154.3351,332.7699 160.5011,346.9106 166.5294,361.179 172.4712,375.5278 178.3585,388.8531 184.2116,401.5346 191.1172,413.8111 198.6866,426.9089 206.6736,440.5231 214.9215,453.3864 223.3334,465.7773 231.8503,478.9451 238.2833,492.6016 243.4037,505.4914 247.6985,517.899 250.4,530.0032 252.0992,540.8426 254.2438,550.8865 257.7428,561.504 262.0936,570.3323 266.9802,578.0353 272.2038,586.1044 277.6394,593.3299 282.1324,600.0246 286.0344,606.3855 290.6388,612.5365 295.6848,619.6295 299.9347,627.3168 303.6819,634.3021 309.3591,643.3493 L312.93,649.04 " stroke-linecap="round" fill="none" stroke="#9398b0" stroke-width="17.385075102866054" stroke-dasharray="none" stroke-dashoffset="0"/></g></g><g transform="matrix(1, 0, 0, 1, 3223.8824, 8950.8561) scale(5.795025034288685, 5.795025034288685)" opacity="1"><g transform="scale(0.17256180846210026)"><path d="M0,0 Q2.1518,10.7516 3.9026,16.2829 T7.8305,26.3675 12.4511,35.9346 17.5074,46.2523 23.9137,57.042 31.1672,68.1286 38.9537,78.3279 47.0772,86.8932 54.3369,94.4307 62.1272,101.3218 70.2531,107.8062 78.5902,112.9608 87.0582,117.2771 94.5345,121.0661 102.463,124.5253 111.7498,127.777 120.8153,130.8964 129.7414,135.0084 139.6559,138.6708 149.1179,142.0484 158.2954,146.3229 167.292,151.1615 175.1008,156.355 182.1625,160.6975 188.7542,164.5031 196.1263,169.0467 203.9873,174.0546 212.1559,178.2786 220.5197,180.9354 229.0065,183.6825 238.6445,186.4864 247.9308,188.25 255.9219,190.4333 265.2481,192.8807 275.4142,194.4201 283.9586,195.3884 292.5571,195.9974 301.1913,197.4564 309.8481,199.45 318.5172,200.704 327.1941,201.4927 338.0276,201.9889 349.1418,202.3009 358.2826,202.4972 366.1821,202.6207 373.3008,202.6983 381.0043,202.7472 390.1497,202.7779 399.1262,201.7213 406.9223,199.9808 413.976,197.812 421.6368,194.2979 429.6813,191.0116 437.9671,187.8705 446.4028,183.7448 453.8589,180.0738 460.6987,176.6907 467.1509,173.4887 473.3592,170.3988 479.4142,167.3793 485.3728,164.406 491.2706,161.4617 498.2063,158.5339 505.7927,154.5423 512.7146,149.8817 519.2184,145.8743 525.4592,142.2796 531.5346,137.8685 537.506,132.9441 543.412,127.6966 549.2767,122.246 555.1156,116.6677 560.9382,112.083 566.7506,109.1992 572.5565,106.3113 578.3584,102.3448 584.1577,97.7 589.9554,92.6284 595.7522,87.2884 600.4742,81.7797 604.5184,76.1647 609.2121,70.483 615.8775,62.7893 L620.07,57.95 " stroke-linecap="round" fill="none" stroke="#9398b0" stroke-width="17.385075102866054" stroke-dasharray="none" stroke-dashoffset="0"/></g></g><g transform="matrix(1, 0, 0, 1, 3849.7451, 8962.4462) scale(5.795025034288685, 5.795025034288685)" opacity="1"><g transform="scale(0.17256180846210026)"><path d="M0,0 Q6.4517,12.8997 9.5548,16.9566 T14.6097,24.6413 18.8652,31.6249 23.6918,38.1675 27.8018,44.4328 31.4629,50.5236 35.9157,56.5046 40.8664,62.4166 46.1304,68.2853 52.6654,74.1266 60.0018,79.9507 66.7663,85.764 73.1711,91.5705 79.3497,97.3728 85.386,103.1723 91.3328,107.8943 97.2232,111.9403 103.0783,116.6352 108.911,120.6623 114.7298,123.1954 120.5397,125.8646 127.42,129.6935 134.9717,134.2518 141.8717,139.2689 148.3617,143.4987 154.5939,147.2352 160.6638,150.6613 167.7059,153.8904 175.3611,156.9955 183.4021,158.9486 191.6839,161.253 200.1171,163.7784 208.6475,166.4409 216.163,169.1897 224.1143,170.9187 233.4155,173.0821 244.6418,175.5188 256.003,178.1255 267.4491,180.8392 281.0985,182.5461 293.9839,183.6197 306.3887,184.2951 320.6411,184.7198 334.9817,184.987 348.3018,185.1551 360.9801,185.2608 372.1787,184.2532 382.4466,182.5454 393.205,181.4712 405.3478,179.7197 417.2856,177.542 426.9443,175.0982 436.2456,172.487 445.32,169.7687 454.2518,166.983 464.1698,164.1567 473.6341,160.229 482.813,156.6826 491.8105,153.3779 499.6199,149.1493 506.6819,145.4136 513.2739,141.9898 519.5702,138.7622 525.6805,135.6561 531.6738,131.5524 538.6676,127.8972 546.2925,124.5221 553.2386,120.2493 559.7576,115.4117 566.008,110.2189 572.0894,104.8027 579.1405,99.246 586.7996,93.6009 593.7671,87.9001 600.2996,81.0904 606.5585,73.5812 612.6453,66.708 618.6239,60.2348 623.4603,54.0132 627.5764,47.9499 631.2395,41.9861 633.5436,36.0849 636.0688,31.2972 640.4771,26.3143 L643.25,23.18 " stroke-linecap="round" fill="none" stroke="#9398b0" stroke-width="17.385075102866054" stroke-dasharray="none" stroke-dashoffset="0"/></g></g><g transform="matrix(1, 0, 0, 1, 4487.1978, 8979.8313) scale(5.795025034288685, 5.795025034288685)" opacity="1"><g transform="scale(0.17256180846210026)"><path d="M0,0 Q4.2999,8.5998 6.7281,12.3803 T11.7577,19.6128 17.0713,26.312 22.5635,31.6017 28.168,36.003 33.8432,40.9214 40.6369,46.1649 48.1359,51.6131 55.0028,57.1899 62.546,62.8477 71.5906,68.5564 80.5055,74.2971 88.2629,78.9839 95.2923,83.006 104.0137,87.6858 114.8733,92.7793 124.9299,97.0572 134.4813,100.8239 143.7132,104.269 153.8199,107.5101 164.4769,110.6227 174.4042,113.6565 183.8742,116.6406 193.0568,118.5177 202.0566,120.7724 209.8674,123.2646 218.0062,125.9081 226.3496,128.6468 234.8215,130.3694 245.5262,132.527 258.7092,134.9582 271.3012,137.5633 282.4475,140.2778 292.6824,141.9852 303.4201,143.0592 315.5499,143.7347 328.5535,144.1596 342.1067,143.351 354.9315,141.7664 368.3741,139.6957 381.1294,137.3192 391.3025,134.7485 400.9271,132.0556 410.2051,129.2877 419.2649,126.4727 429.2634,123.6261 438.7783,119.6857 447.989,116.1331 457.0065,112.8226 466.9784,108.5904 477.5507,103.7784 486.3505,99.6757 494.0356,96.0211 501.0195,92.6483 507.5622,89.4509 513.8276,85.2898 519.9185,81.5984 526.9736,78.2007 534.6371,73.9135 541.6074,70.1428 548.1417,66.6952 554.4017,61.3008 560.4892,54.6837 566.4681,48.3716 572.3789,42.2514 578.2466,36.2518 583.0115,30.3281 587.0845,24.4522 590.7224,18.6063 594.0846,12.7792 597.2735,5.8882 600.3552,-1.6721 603.3695,-8.5775 606.3395,-16.145 610.3576,-23.0549 613.9609,-28.4771 617.7111,-35.9006 L620.07,-40.57 " stroke-linecap="round" fill="none" stroke="#9398b0" stroke-width="17.385075102866054" stroke-dasharray="none" stroke-dashoffset="0"/></g></g><g transform="matrix(1, 0, 0, 1, 2841.4107, 8603.1546) scale(5.795025034288685, 5.795025034288685)" opacity="1"><g transform="scale(0.17256180846210026)"><path d="M0,0 Q-19.3514,27.9511 -27.5873,39.9658 T-43.1536,62.7634 -57.2447,82.479 -70.4079,101.3299 -84.0615,120.7109 -98.0235,140.4255 -111.1055,160.3517 -125.7839,181.4851 -141.4665,202.3019 -155.6307,219.6955 -167.7659,233.862 -182.176,250.3862 L-191.24,260.78 " stroke-linecap="round" fill="none" stroke="#e599f7" stroke-width="17.385075102866054" stroke-dasharray="none" stroke-dashoffset="0"/></g></g><g transform="matrix(1, 0, 0, 1, 2905.156, 8684.285) scale(5.795025034288685, 5.795025034288685)" opacity="1"><g transform="scale(0.17256180846210026)"><path d="M0,0 Q-4.2999,12.8997 -6.7281,20.1825 T-12.8336,35.2701 -20.9739,51.2101 -30.394,68.7621 -40.6191,87.3261 -51.3506,105.4528 -63.4747,124.3802 -76.4746,143.8094 -88.9515,162.4802 -100.0253,179.5999 -108.0666,195.7422 -112.0487,209.1196 -114.4129,223.0425 L-115.9,231.8 " stroke-linecap="round" fill="none" stroke="#e599f7" stroke-width="17.385075102866054" stroke-dasharray="none" stroke-dashoffset="0"/></g></g><g transform="matrix(1, 0, 0, 1, 3003.6714, 8788.5954) scale(5.795025034288685, 5.795025034288685)" opacity="1"><g transform="scale(0.17256180846210026)"><path d="M0,0 Q-2.1518,15.0515 -4.9785,23.0091 T-11.7331,39.198 -20.2816,55.8307 -29.9586,73.8165 -40.3452,91.5794 -50.1025,107.0522 -62.0346,126.7132 L-69.54,139.08 " stroke-linecap="round" fill="none" stroke="#e599f7" stroke-width="17.385075102866054" stroke-dasharray="none" stroke-dashoffset="0"/></g></g><g transform="matrix(1, 0, 0, 1, 3484.6585, 8579.9745) scale(5.795025034288685, 5.795025034288685)" opacity="1"><g transform="scale(0.17256180846210026)"><path d="M0,0 Q-19.3514,49.4506 -27.5873,70.3767 T-43.1536,109.8412 -58.3188,145.4141 -74.3075,178.5392 -89.7401,210.1246 -103.7472,239.6656 -116.8575,265.7726 -128.3279,288.6438 -142.0431,317.7821 L-150.67,336.11 " stroke-linecap="round" fill="none" stroke="#e599f7" stroke-width="17.385075102866054" stroke-dasharray="none" stroke-dashoffset="0"/></g></g><g transform="matrix(1, 0, 0, 1, 3554.1988, 8736.4402) scale(5.795025034288685, 5.795025034288685)" opacity="1"><g transform="scale(0.17256180846210026)"><path d="M0,0 Q-6.4517,21.4995 -9.5548,31.4869 T-16.7597,50.9804 -25.5915,71.8416 -35.4465,94.6389 -49.1711,121.8781 -64.2537,150.8354 -75.8906,174.4234 -85.3602,193.5602 -89.1666,206.6731 -87.7936,218.5435 L-86.93,226.01 " stroke-linecap="round" fill="none" stroke="#e599f7" stroke-width="17.385075102866054" stroke-dasharray="none" stroke-dashoffset="0"/></g></g><g transform="matrix(1, 0, 0, 1, 3641.1242, 8898.7009) scale(5.795025034288685, 5.795025034288685)" opacity="1"><g transform="scale(0.17256180846210026)"><path d="M0,0 Q-4.2999,21.4995 -6.7281,31.4869 T-11.7577,50.9804 -18.1453,69.6916 -24.3131,86.8368 -29.2685,101.921 -36.2062,121.1776 L-40.57,133.29 " stroke-linecap="round" fill="none" stroke="#e599f7" stroke-width="17.385075102866054" stroke-dasharray="none" stroke-dashoffset="0"/></g></g><g transform="matrix(1, 0, 0, 1, 4168.4715, 8585.7696) scale(5.795025034288685, 5.795025034288685)" opacity="1"><g transform="scale(0.17256180846210026)"><path d="M0,0 Q-12.8997,40.8508 -19.1066,59.0723 T-32.4434,94.131 -46.2081,126.9326 -60.24,158.3145 -75.5159,188.8035 -91.5743,218.7308 -108.1249,247.2307 -123.911,275.9069 -143.8981,316.4244 L-156.47,341.91 " stroke-linecap="round" fill="none" stroke="#e599f7" stroke-width="17.385075102866054" stroke-dasharray="none" stroke-dashoffset="0"/></g></g><g transform="matrix(1, 0, 0, 1, 4232.2167, 8759.6203) scale(5.795025034288685, 5.795025034288685)" opacity="1"><g transform="scale(0.17256180846210026)"><path d="M0,0 Q2.1518,10.7516 1.7526,16.2829 T-1.0475,28.5174 -7.1087,41.5868 -15.2211,56.2574 -27.8495,79.4607 -43.3186,108.0311 -57.3485,133.5258 -69.3973,154.9359 -78.05,171.6287 -84.5685,184.2784 -87.5945,193.3092 -85.1981,197.9154 -79.1465,200.9324 L-75.34,202.83 " stroke-linecap="round" fill="none" stroke="#e599f7" stroke-width="17.385075102866054" stroke-dasharray="none" stroke-dashoffset="0"/></g></g><g transform="matrix(1, 0, 0, 1, 4301.757, 8916.086) scale(5.795025034288685, 5.795025034288685)" opacity="1"><g transform="scale(0.17256180846210026)"><path d="M0,0 Q0,10.7516 -1.0759,16.2829 T-4.9785,28.5174 -12.8071,43.7368 -23.1053,59.7596 -34.9586,76.2878 -45.6402,92.0598 -56.7573,110.2551 L-63.75,121.7 " stroke-linecap="round" fill="none" stroke="#e599f7" stroke-width="17.385075102866054" stroke-dasharray="none" stroke-dashoffset="0"/></g></g><g transform="matrix(1, 0, 0, 1, 4742.1789, 8620.5397) scale(5.795025034288685, 5.795025034288685)" opacity="1"><g transform="scale(0.17256180846210026)"><path d="M0,0 Q-19.3514,60.1985 -27.5873,85.5807 T-44.2277,132.3042 -61.1443,173.5189 -78.2347,211.2667 -94.3584,244.6839 -108.8002,273.229 -121.1099,297.6338 -128.8527,316.2083 -135.131,335.5402 L-139.08,347.7 " stroke-linecap="round" fill="none" stroke="#e599f7" stroke-width="17.385075102866054" stroke-dasharray="none" stroke-dashoffset="0"/></g></g><g transform="matrix(1, 0, 0, 1, 4811.7192, 8788.5954) scale(5.795025034288685, 5.795025034288685)" opacity="1"><g transform="scale(0.17256180846210026)"><path d="M0,0 Q-8.5998,19.3514 -13.4544,28.6614 T-22.4384,48.1272 -31.3151,68.971 -41.1985,90.6816 -51.7151,112.9373 -62.6299,134.4619 -72.7193,156.6006 -79.0655,176.9757 -80.9073,188.7176 -78.84,191.8033 -73.131,191.4575 L-69.54,191.24 " stroke-linecap="round" fill="none" stroke="#e599f7" stroke-width="17.385075102866054" stroke-dasharray="none" stroke-dashoffset="0"/></g></g><g transform="matrix(1, 0, 0, 1, 4921.8247, 8869.7258) scale(5.795025034288685, 5.795025034288685)" opacity="1"><g transform="scale(0.17256180846210026)"><path d="M0,0 Q-2.1518,12.8997 -4.9785,20.1825 T-10.6572,34.1961 -17.4531,48.3846 -26.0276,64.833 -35.7209,82.7048 -46.1178,101.4719 -60.4961,128.119 L-69.54,144.88 " stroke-linecap="round" fill="none" stroke="#e599f7" stroke-width="17.385075102866054" stroke-dasharray="none" stroke-dashoffset="0"/></g></g><g transform="matrix(1, 0, 0, 1, 2893.566, 8330.7885) scale(5.795025034288685, 5.795025034288685)" opacity="1"><g transform="scale(0.17256180846210026)"><path d="M0,-5.8 Q4.2999,-14.3998 7.8022,-19.2544 T14.5832,-28.2365 20.9985,-36.0362 27.1836,-44.1681 34.2999,-52.507 42,-59.9022 50.0674,-66.7036 58.3676,-73.1317 66.8143,-79.3249 75.3513,-85.3704 83.945,-91.3229 92.5763,-97.217 101.2313,-102.0003 109.8992,-107.159 118.5753,-113.6277 128.3325,-119.8465 137.6956,-125.9081 147.8849,-131.8708 158.5939,-137.7712 167.4797,-142.5567 175.2189,-145.5667 182.2368,-148.5359 188.801,-151.4795 195.0798,-154.405 201.1791,-157.3192 207.1655,-160.2281 214.155,-163.1338 221.7772,-166.0354 229.7974,-168.9346 238.0661,-170.7582 245.4171,-172.9812 253.2667,-175.4553 262.5039,-177.0115 271.5382,-177.9904 279.3707,-178.6061 287.5231,-178.9934 295.875,-179.237 304.3524,-179.3902 313.9845,-179.4866 323.269,-179.5472 331.2588,-179.5854 339.5085,-179.6093 347.9233,-179.6244 355.3662,-179.6339 362.1977,-179.6399 369.7206,-179.6436 377.6765,-178.5701 384.8307,-176.8189 392.5565,-175.7175 400.64,-175.0246 407.8745,-174.5888 415.6509,-173.2407 423.7662,-171.3187 431.0206,-170.1097 437.7336,-168.2734 444.1061,-166.0424 450.2643,-164.6391 456.2877,-162.6824 462.2264,-160.3776 468.1118,-157.852 473.9637,-155.1875 479.7944,-153.5115 485.6119,-151.3833 491.4211,-148.9705 497.225,-146.3771 503.0256,-143.6698 508.8241,-140.893 513.5454,-136.9964 517.591,-133.4695 522.2856,-130.1771 528.4626,-125.9562 534.4978,-121.1513 539.3698,-115.9791 544.5843,-111.6498 550.0141,-107.8527 555.5795,-103.3144 561.23,-98.3098 566.9341,-93.012 572.672,-87.5297 578.431,-80.8574 584.2034,-73.4347 589.9842,-65.5399 595.7702,-57.3501 601.5596,-50.0488 607.3511,-43.3063 615.1589,-34.5118 L620.07,-28.98 " stroke-linecap="round" fill="none" stroke="#9398b0" stroke-width="17.385075102866054" stroke-dasharray="none" stroke-dashoffset="0"/></g></g><g transform="matrix(1, 0, 0, 1, 3525.2237, 8324.9934) scale(5.795025034288685, 5.795025034288685)" opacity="1"><g transform="scale(0.17256180846210026)"><path d="M0,0 Q6.4517,-6.4517 9.5548,-9.5548 T14.6097,-15.6856 18.8652,-21.6919 23.6918,-27.6198 28.8777,-34.5743 34.2896,-42.1726 41.9936,-50.176 52.2152,-59.51 62.9444,-68.6069 73.993,-76.4788 85.2425,-83.5802 95.5424,-90.1969 105.245,-96.5088 115.6478,-102.6289 126.4911,-108.6284 136.5374,-113.4779 145.0064,-117.6024 153.5574,-122.3466 162.1619,-126.4066 170.7999,-130.0344 180.5331,-134.4662 190.9552,-138.3297 200.7347,-141.8339 210.11,-145.1121 219.2329,-148.25 228.197,-151.2996 237.0595,-153.2178 244.7839,-155.4984 251.7925,-158.007 260.5008,-159.5848 270.2782,-160.5773 278.5781,-161.2016 287.0246,-162.6702 295.5615,-164.6698 303.0811,-165.9276 311.0368,-166.7187 319.2649,-167.2163 327.6644,-167.5293 337.2475,-167.7262 346.5012,-167.85 354.4717,-167.9279 361.6351,-167.9769 368.2908,-168.0078 375.7012,-166.9512 383.5882,-165.2108 390.6991,-164.116 397.3218,-163.4275 403.6374,-162.9943 409.7599,-162.7219 416.8367,-162.5505 424.5121,-162.4427 431.4898,-161.3009 438.0288,-159.5086 444.2917,-158.3813 451.4569,-156.5963 459.1879,-153.3236 466.2006,-150.191 472.7615,-148.2206 479.0383,-146.9813 485.1363,-145.1258 492.1959,-142.8828 499.8623,-140.3979 506.8344,-137.7609 513.3698,-135.0263 519.6305,-132.2303 525.7184,-129.3976 531.6977,-125.4659 537.6086,-120.8429 543.4765,-116.861 548.2414,-113.2805 552.3145,-108.8784 557.0264,-103.9595 561.0642,-98.7156 564.6799,-92.1932 569.1041,-84.8648 574.0369,-78.1052 580.3654,-71.7035 590.5094,-63.2606 L596.89,-57.95 " stroke-linecap="round" fill="none" stroke="#9398b0" stroke-width="17.385075102866054" stroke-dasharray="none" stroke-dashoffset="0"/></g></g><g transform="matrix(1, 0, 0, 1, 4156.8814, 8324.9934) scale(5.795025034288685, 5.795025034288685)" opacity="1"><g transform="scale(0.17256180846210026)"><path d="M0,0 Q10.7516,-4.2999 15.207,-6.7281 T23.5408,-11.7577 30.9327,-17.0713 37.7321,-22.5635 46.3088,-29.242 57.0775,-36.6687 68.151,-43.49 79.416,-49.9306 89.7276,-56.1316 99.4394,-62.182 110.9221,-68.1377 124.5945,-74.0337 138.5703,-78.8182 151.6609,-82.9018 164.1948,-86.5443 176.3785,-89.9114 188.342,-94.1792 200.1669,-97.9377 211.9046,-101.3778 223.5875,-104.6174 235.236,-106.6552 246.8628,-107.9369 257.4,-109.8172 267.2519,-112.0739 277.7486,-113.4934 288.651,-114.3862 300.8843,-114.9478 313.9549,-116.377 326.4762,-118.3518 339.726,-119.594 353.4341,-120.3753 367.4323,-120.8668 380.537,-121.1759 392.0039,-121.3703 403.5164,-121.4926 413.9837,-121.5696 424.8674,-121.618 436.0132,-121.6484 446.2498,-120.5916 458.0625,-118.851 470.8666,-117.7562 482.1463,-117.0676 491.3911,-115.5603 500.4301,-113.5383 509.3415,-111.1905 518.1726,-108.6378 526.9513,-107.0322 534.6231,-104.9482 542.6745,-102.5633 550.9628,-101.0633 558.3261,-100.1197 565.1076,-98.4503 572.5971,-95.2503 579.458,-91.0876 584.8494,-86.3193 590.3905,-82.246 596.0258,-78.608 600.6463,-74.1697 604.6267,-69.2281 609.2802,-65.0439 613.2832,-61.338 616.8752,-56.8571 622.3907,-50.4132 L625.86,-46.36 " stroke-linecap="round" fill="none" stroke="#9398b0" stroke-width="17.385075102866054" stroke-dasharray="none" stroke-dashoffset="0"/></g></g><g transform="matrix(1, 0, 0, 1, 5446.8595, 8310.9564) scale(7.9328291527164305, 7.9328291527164305)" opacity="1"><g transform="scale(0.1260584314560173)"><path d="M0,7.93 Q-5.8878,19.7018 -9.2105,24.8769 T-16.0942,36.2492 -23.3661,47.8173 -30.884,59.5085 -38.5567,72.7482 -46.3248,86.9619 -54.1548,100.3172 -62.0238,113.1326 -69.9154,125.6065 -77.8213,136.3965 -84.2651,147.5983 -89.7911,159.0591 -96.2108,169.2119 -103.1909,178.54 -109.0524,188.8222 -114.2121,199.7047 -120.4015,209.4918 -125.7656,220.0628 -130.6106,231.1268 -136.6002,242.501 -143.3115,254.0703 -150.4768,267.2332 -157.9258,281.3987 -165.5551,294.7236 -173.2979,307.5199 -181.1101,319.9818 -188.966,332.2353 -195.3783,342.8866 -200.8846,352.5283 -207.2919,363.0078 -214.2641,375.4854 -221.5917,387.7486 -227.6718,398.4061 -232.969,409.5246 -239.2448,422.404 -246.1344,434.9182 -251.9389,445.7335 -257.0628,455.4802 -263.2296,466.0258 -270.0506,478.5449 -277.283,492.3053 -284.7761,505.3755 -290.9621,516.5387 -296.3241,527.9753 -302.6389,541.0548 -309.5547,553.6967 -315.3777,566.0633 -319.0403,581.1989 -322.8523,604.2567 L-325.25,618.76 " stroke-linecap="round" fill="none" stroke="#9398b0" stroke-width="23.798487458149292" stroke-dasharray="none" stroke-dashoffset="0"/></g></g><g transform="matrix(1, 0, 0, 1, 4796.3675, 8287.1579) scale(7.9328291527164305, 7.9328291527164305)" opacity="1"><g transform="scale(0.1260584314560173)"><path d="M0,7.93 Q11.7718,2.0459 15.4741,-1.2775 T24.4489,-8.1623 35.98,-15.4349 47.6479,-22.9514 59.402,-30.6232 71.2083,-38.3926 83.0494,-46.2216 96.3852,-54.0899 110.6594,-61.983 124.0508,-68.4187 135.418,-72.4668 146.9828,-76.4841 158.672,-80.4819 170.4394,-84.4676 182.2541,-88.4456 192.6294,-90.9478 203.5704,-93.9945 216.3382,-97.3838 228.7841,-99.5156 241.0274,-100.8566 251.6724,-103.171 262.7811,-106.0978 277.1254,-107.9388 292.0357,-109.0968 307.3003,-109.8251 322.7876,-110.2833 336.944,-110.5714 348.7904,-110.7527 360.6567,-109.3957 374.0065,-107.0711 386.8184,-105.609 397.821,-103.2164 409.1565,-100.2386 422.1725,-96.8946 434.7726,-93.3201 445.6419,-89.6008 456.8936,-85.7903 468.3859,-81.9225 478.5584,-78.0187 489.3699,-74.0903 500.5853,-68.6754 510.5836,-63.7985 521.2875,-59.2599 533.9061,-53.4612 546.2563,-46.8699 556.9684,-41.253 566.6503,-36.249 575.6822,-30.1594 585.7781,-23.3852 596.5434,-16.1803 606.2568,-10.1774 616.7814,-4.9306 632.6062,2.9642 L642.56,7.93 " stroke-linecap="round" fill="none" stroke="#9398b0" stroke-width="23.798487458149292" stroke-dasharray="none" stroke-dashoffset="0"/></g></g><g transform="matrix(1, 0, 0, 1, 2884.5557, 8342.6877) scale(7.9328291527164305, 7.9328291527164305)" opacity="1"><g transform="scale(0.1260584314560173)"><path d="M7.93,0 Q22.6476,0 28.7473,-1.471 T41.6275,-3.8673 54.1441,-5.3746 67.903,-6.3226 82.4432,-6.919 96.0039,-7.2941 108.9485,-7.53 122.9766,-7.6784 137.6861,-7.7717 152.8244,-7.8305 169.7033,-7.8674 184.735,-7.8906 197.1338,-7.9052 209.3457,-7.9144 221.4419,-6.4492 233.4653,-4.0565 248.385,-2.5516 265.1282,-1.6049 280.0746,-1.0095 292.4179,-0.635 306.0678,-0.3994 322.0123,-0.2512 336.4564,-0.158 349.9565,-0.0994 364.3341,-0.0625 379.2635,-0.0393 394.54,-0.0247 410.0348,-0.0156 425.667,-0.0098 439.9145,-0.0062 453.2911,-0.0039 467.5909,-0.0024 482.4714,-1.4725 499.1881,-3.8683 517.0617,-5.3752 534.1902,-6.323 549.3788,-6.9192 563.3474,-7.2942 578.0196,-7.5301 593.1343,-7.6785 608.5273,-7.7718 624.0955,-7.8305 639.7738,-7.8674 654.0503,-7.8906 667.4451,-7.9052 681.7564,-7.9144 696.6441,-7.9202 710.4234,-7.9238 723.5054,-7.9261 737.62,-7.9276 752.3839,-7.9285 767.5582,-7.929 782.9888,-7.9294 797.1076,-7.9296 810.4033,-7.9298 824.654,-7.9298 839.5037,-7.9299 856.201,-7.9299 872.5896,-7.93 888.7839,-7.93 904.856,-7.93 920.8513,-7.93 938.2711,-7.93 956.587,-7.93 973.9936,-7.93 990.8282,-7.93 1010.247,-7.93 1031.2894,-7.93 1053.353,-7.93 1076.0608,-7.93 1096.2299,-7.93 1114.8022,-7.93 1133.843,-7.93 1153.1784,-7.93 1172.6973,-7.93 1190.8606,-7.93 1209.6441,-7.93 1227.3448,-7.93 1244.3645,-7.93 1260.9558,-7.93 1275.8066,-6.459 1289.5627,-4.0627 1302.6302,-2.5554 1316.7355,-1.6074 1331.4937,-1.011 1345.1915,-0.6359 1358.2223,-0.4 1372.3046,-0.2516 1387.0483,-0.1583 1400.737,-0.0995 1413.7602,-0.0626 1427.8377,-0.0394 1442.5803,-0.0248 1457.7392,-0.0156 1473.1601,-0.0098 1488.7458,-0.0062 1505.9061,-0.0039 1524.0587,-0.0024 1541.3626,-0.0015 1556.6617,-0.001 1572.1707,-0.0006 1589.2828,-1.4714 1604.4612,-3.8675 1619.8944,-5.3747 1635.4877,-7.7956 1651.1819,-10.7912 1669.8833,-12.6754 1687.5324,-13.8606 1704.5196,-16.0771 1721.0923,-18.9423 1735.9315,-20.7445 1751.1512,-21.8781 1765.1393,-24.0621 1779.8237,-26.9069 1797.8901,-28.6963 1818.0817,-29.8218 1836.6682,-30.5297 1852.774,-32.446 1868.7904,-35.1224 1884.7507,-36.8059 1900.6756,-37.8647 1916.5802,-38.5308 1930.999,-38.9497 1944.4815,-39.2132 1957.3769,-39.379 1971.3759,-39.4832 1989.0092,-39.5488 2007.4575,-39.5901 2024.9492,-39.616 2041.8374,-39.6323 2058.346,-39.6426 2074.6158,-38.178 2092.2065,-35.7858 2109.1569,-34.2811 2125.7047,-33.3346 2143.472,-32.7393 2162.0064,-32.3649 2181.0215,-32.1293 2198.8679,-31.9812 2215.9792,-31.888 2234.0991,-31.8294 2254.3264,-31.7925 2275.8791,-31.7693 2296.7927,-31.7547 2315.8333,-31.7456 2333.6976,-31.7398 2349.3491,-31.7362 2363.607,-31.7339 2378.4611,-31.7324 2392.2192,-30.2605 2405.288,-27.8637 2419.3941,-26.356 2434.1528,-25.4078 2449.3238,-24.8113 2466.2233,-22.9651 2484.21,-20.3328 2499.9386,-18.6771 2512.7757,-16.1628 2528.5733,-11.1089 L2538.51,-7.93 " stroke-linecap="round" fill="none" stroke="#ffc034" stroke-width="23.798487458149292" stroke-dasharray="none" stroke-dashoffset="0"/></g></g><g transform="matrix(1, 0, 0, 1, 2591.041, 8961.4484) scale(7.9328291527164305, 7.9328291527164305)" opacity="1"><g transform="scale(0.1260584314560173)"><path d="M7.93,0 Q25.5896,0 35.5584,0 T53.2687,0 70.2944,0 86.8894,0 103.2136,0 119.3675,0 133.9432,0 148.999,0 162.8841,0 177.5037,0 192.5853,0 206.4847,0 222.5844,0 238.5988,0 254.5578,0 270.4819,0 286.386,0 302.2756,0 316.6831,0 331.6314,0 346.9217,0 362.4251,0 376.5899,0 391.3854,0 408.0506,0 424.4189,0 439.1294,1.471 452.7973,3.8673 467.2803,5.3746 480.805,6.3226 493.7269,6.919 507.7407,7.2941 522.4413,7.53 536.1029,9.1513 549.1109,11.6439 564.6518,13.2118 580.3129,14.198 596.0496,14.8183 611.834,15.2085 626.1754,15.4539 641.082,15.6083 656.3461,15.7054 671.8331,15.7665 687.4603,15.8049 701.7047,15.829 716.5504,15.8442 731.7742,15.8538 744.2921,15.8598 756.5807,17.3346 770.198,19.7333 784.6492,21.242 801.0959,22.191 818.7997,22.788 835.8213,23.1634 852.4138,23.3996 867.2654,23.5481 882.4929,23.6416 899.428,23.7004 917.4371,23.7373 936.1236,23.7606 953.7633,23.7752 970.7446,23.7844 987.3118,23.7902 1002.1474,23.7938 1015.8939,23.7961 1030.4264,23.7976 1045.4532,23.7985 1060.791,23.799 1077.7973,23.7994 1095.8512,23.7996 1114.564,23.7998 1132.2221,23.7998 1149.215,23.7999 1167.2604,23.7999 1185.9698,25.271 1206.5678,27.6673 1226.8809,29.1745 1245.5437,30.1226 1263.1685,30.719 1280.1405,32.5651 1298.1746,35.1973 1318.3479,36.853 1338.3938,37.8944 1356.8886,38.5494 1374.4077,38.9614 1391.3132,39.2206 1407.8326,37.9126 1424.1093,35.6189 1441.7061,34.1761 1461.6043,33.2686 1481.4772,32.6978 1501.3341,32.3387 1521.183,32.1129 1538.0828,31.9708 1553.1276,30.4105 1568.4768,27.958 1585.4883,26.4154 1603.5474,25.4451 1622.2634,24.8347 1642.8638,24.4509 1663.1802,24.2094 1683.318,24.0575 1704.8145,23.962 1725.6927,23.9019 1744.711,23.8641 1764.0323,23.8403 1783.5423,23.8254 1801.7001,23.8159 1819.0072,22.339 1835.7793,19.939 1852.2149,16.9565 1869.9098,13.6077 1888.3986,10.0303 1907.3869,6.309 1928.1585,3.9684 1947.1097,2.4961 1964.9178,1.5701 1982.005,0.9876 1997.1659,-0.8498 2014.0591,-3.4766 2032.0436,-5.1288 2047.7708,-6.168 2063.5492,-6.8217 2080.8325,-7.2329 2097.5896,-7.4915 2112.5429,-7.6542 2127.8345,-7.7565 2144.8116,-7.8209 2161.3762,-7.8614 2177.6812,-7.8868 2193.823,-7.9028 2209.862,-7.9129 2224.3655,-9.3921 2237.9031,-11.7954 2252.3042,-13.3071 2267.2484,-14.2579 2282.536,-14.856 2296.5669,-15.2322 2311.2782,-15.4688 2326.4175,-15.6177 2340.355,-15.7113 2355.0077,-15.7702 2370.1101,-15.8072 2384.0244,-15.8305 2397.1914,-15.8452 2411.3594,-15.8544 2426.1569,-15.8602 2441.3505,-15.8638 2456.7932,-15.8661 2472.3926,-15.8676 2486.6195,-15.8685 2499.9831,-15.869 2512.8037,-17.3404 2528.5841,-21.3058 L2538.51,-23.8 " stroke-linecap="round" fill="none" stroke="#ffc034" stroke-width="23.798487458149292" stroke-dasharray="none" stroke-dashoffset="0"/></g></g><g transform="matrix(1, 0, 0, 1, 5145.412, 9001.1125) scale(7.9328291527164305, 7.9328291527164305)" opacity="1"><g transform="scale(0.1260584314560173)"><path d="M0,0 Q-2.942,23.5437 -3.8673,36.8341 T-3.9035,62.899 -0.9843,89.5947 3.7958,116.6871 9.7463,142.558 22.3172,175.0175 40.525,213.0923 59.3366,247.3422 79.9988,277.7151 100.3523,304.1785 119.0406,326.7099 136.6814,346.7681 152.1924,366.7434 164.8927,386.6648 177.2942,405.0813 195.0694,429.1198 L206.25,444.24 " stroke-linecap="round" fill="none" stroke="#ffc034" stroke-width="23.798487458149292" stroke-dasharray="none" stroke-dashoffset="0"/></g></g><g transform="matrix(1, 0, 0, 1, 5518.2549, 9524.6792) scale(7.9328291527164305, 7.9328291527164305)" opacity="1"><g transform="scale(0.1260584314560173)"><path d="M0,0 Q8.8298,-14.7139 13.0778,-20.8142 T22.9416,-32.2228 35.0319,-42.3408 45.5787,-47.234 52.2127,-44.4259 56.3854,-36.7737 60.483,-29.0184 67.4752,-24.1404 76.2864,-22.5431 86.2435,-24.4804 98.3943,-28.641 110.4521,-35.6729 120.9784,-44.5109 132.0144,-53.0139 148.3714,-64.3006 L158.66,-71.4 " stroke-linecap="round" fill="none" stroke="#ffc034" stroke-width="23.798487458149292" stroke-dasharray="none" stroke-dashoffset="0"/></g></g><g transform="matrix(1, 0, 0, 1, 5549.9863, 9596.0747) scale(7.9328291527164305, 7.9328291527164305)" opacity="1"><g transform="scale(0.1260584314560173)"><path d="M0,0 Q11.7718,-11.7718 16.9451,-16.9451 T28.3162,-26.8452 41.3564,-34.5452 52.5026,-36.4447 59.5135,-33.2245 63.9234,-26.7841 68.1682,-18.3182 73.7803,-11.5222 81.7251,-8.7185 92.6084,-9.8988 103.8688,-15.0562 118.0255,-25.2918 L126.93,-31.73 " stroke-linecap="round" fill="none" stroke="#ffc034" stroke-width="23.798487458149292" stroke-dasharray="none" stroke-dashoffset="0"/></g></g><g transform="matrix(1, 0, 0, 1, 5930.7621, 9461.2166) scale(7.9328291527164305, 7.9328291527164305)" opacity="1"><g transform="scale(0.1260584314560173)"><path d="M-10.3008,0 Q-20.6016,0 -28.5519,1.471 T-44.4467,3.8673 -58.8594,8.3184 -70.867,15.5331 -81.3637,24.486 -89.439,38.9472 -93.0455,56.8713 -90.8991,75.5024 -82.1921,93.1092 -67.8855,107.1277 -50.0569,117.4164 -30.0129,123.888 -10.0483,125.0147 8.3953,119.8375 24.4113,110.6951 35.9563,99.0587 43.2182,85.8534 47.7858,71.6595 49.1879,58.3167 47.1259,45.511 42.8851,33.0413 35.8045,22.254 26.9359,12.5268 16.9427,3.4644 1.674,-8.4045 -3.965,-7.935 -10.3008,0 Z" stroke-linecap="round" fill="none" stroke="#ffc034" stroke-width="23.798487458149292" stroke-dasharray="none" stroke-dashoffset="0"/></g></g><g transform="matrix(1, 0, 0, 1, 6002.1575, 9540.5449) scale(7.9328291527164305, 7.9328291527164305)" opacity="1"><g transform="scale(0.1260584314560173)"><path d="M0,0 Q2.942,14.7139 5.3402,19.3414 T9.2467,25.4086 14.646,24.8118 22.4552,18.5505 31.7821,8.7244 42.0636,-1.8712 51.4745,-12.9488 61.8089,-24.3315 72.7223,-32.9641 81.0578,-33.9791 84.8298,-25.7878 85.7314,-14.7495 84.8275,-4.8625 84.2589,1.3564 86.8434,2.3242 91.4128,-1.482 97.2309,-8.291 106.7764,-16.9868 120.1374,-26.8715 132.9564,-34.5617 143.9635,-36.4551 153.8289,-31.76 161.5053,-24.392 166.3338,-15.3425 169.3709,-2.2935 171.2812,13.2731 173.9557,24.5355 179.1762,33.82 L182.46,39.66 " stroke-linecap="round" fill="none" stroke="#ffc034" stroke-width="23.798487458149292" stroke-dasharray="none" stroke-dashoffset="0"/></g></g><g transform="matrix(1, 0, 0, 1, 6248.0752, 9342.2242) scale(7.9328291527164305, 7.9328291527164305)" opacity="1"><g transform="scale(0.1260584314560173)"><path d="M0,0 Q2.942,17.6596 3.8673,27.6284 T3.9035,48.2807 2.4553,70.099 0.0734,100.0112 -2.8959,136.4856 -4.7635,169.727 -5.9383,197.9927 -5.2062,223.1307 -1.8037,241.8863 3.2804,249.2687 9.4221,248.0245 16.2273,242.827 21.9788,235.1447 27.0675,224.4266 33.2122,213.27 38.5501,207.7236 41.9076,208.6498 44.0195,213.6472 45.3479,222.6765 46.1834,232.7709 48.18,243.5351 53.8507,254.7207 61.8325,263.2275 69.7951,264.1633 76.2746,257.3932 81.8212,248.7199 86.781,237.3785 91.3736,222.8878 98.6773,209.3601 109.1572,199.3802 124.9355,188.9933 L134.86,182.46 " stroke-linecap="round" fill="none" stroke="#ffc034" stroke-width="23.798487458149292" stroke-dasharray="none" stroke-dashoffset="0"/></g></g><g transform="matrix(1, 0, 0, 1, 6398.799, 9556.4106) scale(7.9328291527164305, 7.9328291527164305)" opacity="1"><g transform="scale(0.1260584314560173)"><path d="M0,0 Q14.7139,5.8878 20.8142,4.7956 T32.2228,0.0725 42.3408,-11.7281 47.234,-26.5076 45.8969,-35.8039 42.112,-38.7074 36.7893,-36.1188 30.4992,-28.6046 25.0718,-17.9923 21.6579,-5.4312 19.5106,8.3556 21.102,22.9134 27.9889,35.0142 39.6795,42.6255 55.8608,45.9421 74.8669,42.1423 95.6514,30.9224 116.0837,13.5643 133.3505,-9.1258 147.1534,-35.1697 158.7793,-63.325 169.0358,-94.2794 176.9582,-128.4636 181.9414,-161.7372 185.0758,-190.0252 185.5764,-213.7042 182.9473,-231.5403 178.3498,-241.2882 173.9869,-241.5337 169.7716,-232.8584 165.6492,-217.1008 161.5833,-195.4174 157.553,-170.0067 155.018,-142.2516 153.4234,-113.0217 152.4205,-84.3354 151.7896,-57.4619 152.8656,-33.1996 156.4864,-17.9387 162.6887,-6.9266 L166.59,0 " stroke-linecap="round" fill="none" stroke="#ffc034" stroke-width="23.798487458149292" stroke-dasharray="none" stroke-dashoffset="0"/></g></g><g transform="matrix(1, 0, 0, 1, 6493.9929, 9445.351) scale(7.9328291527164305, 7.9328291527164305)" opacity="1"><g transform="scale(0.1260584314560173)"><path d="M7.93,0 Q22.6476,14.7139 31.6911,19.3414 T50.8362,26.8796 78.0638,34.7251 L95.19,39.66 " stroke-linecap="round" fill="none" stroke="#ffc034" stroke-width="23.798487458149292" stroke-dasharray="none" stroke-dashoffset="0"/></g></g><g transform="matrix(1, 0, 0, 1, 6660.5823, 9485.0151) scale(7.9328291527164305, 7.9328291527164305)" opacity="1"><g transform="scale(0.1260584314560173)"><path d="M0,0 Q-14.7139,2.942 -20.8142,8.2822 T-30.7518,19.9252 -34.0586,31.6636 -31.7237,43.4619 -27.313,55.298 -21.5948,65.6849 -16.5251,76.6331 -13.3363,87.9345 -12.8035,96.514 -16.8832,101.9106 -25.3352,105.305 -39.003,108.8379 L-47.6,111.06 " stroke-linecap="round" fill="none" stroke="#ffc034" stroke-width="23.798487458149292" stroke-dasharray="none" stroke-dashoffset="0"/></g></g><g transform="matrix(1, 0, 0, 1, 6644.7167, 9691.2687) scale(7.9328291527164305, 7.9328291527164305)" opacity="1"><g transform="scale(0.1260584314560173)"><path d="M0,7.93 Q-32.3735,4.988 -51.3847,4.0627 T-92.6549,1.0844 -139.2154,-2.2599 -190.5746,-4.3635 -244.9522,-5.6867 -301.2284,-6.519 -360.1716,-5.5714 -429.6222,-0.5605 -504.2072,8.4772 -568.779,20.0479 -624.1103,30.2697 -673.6294,38.1703 -716.5506,44.6107 -752.376,48.6618 -782.2671,49.7389 -806.9564,48.9454 -826.9008,45.5023 -840.9169,38.9218 -846.7891,31.8406 -848.0297,22.0367 L-848.81,15.87 " stroke-linecap="round" fill="none" stroke="#ffc034" stroke-width="23.798487458149292" stroke-dasharray="none" stroke-dashoffset="0"/></g></g><g transform="matrix(1, 0, 0, 1, 6129.0828, 9849.9252) scale(7.9328291527164305, 7.9328291527164305)" opacity="1"><g transform="scale(0.1260584314560173)"><path d="M0,0 Q26.4894,0 37.7623,1.471 T56.126,5.3402 67.6767,12.1888 72.0001,23.8535 70.3046,38.5493 64.8232,53.679 55.4895,67.6085 43.7327,79.3141 28.9807,89.6208 13.814,97.5748 5.7451,102.5778 6.5576,105.7247 12.9545,107.7041 24.3351,108.9491 40.3233,109.7323 60.6807,110.2249 83.7863,110.5347 115.1391,110.8572 L134.86,111.06 " stroke-linecap="round" fill="none" stroke="#ffc034" stroke-width="23.798487458149292" stroke-dasharray="none" stroke-dashoffset="0"/></g></g><g transform="matrix(1, 0, 0, 1, 3225.6673, 8382.3518) scale(7.9328291527164305, 7.9328291527164305)" opacity="1"><g transform="scale(0.1260584314560173)"><path d="M0,0 Q0,20.6016 0,32.9668 T0,56.0534 0,77.9337 0,99.0534 0,119.6946 0,140.0367 0,158.7177 0,176.3541 0,194.8042 0,213.7663 0,231.5813 0,247.2017 0,262.9129 0,278.6812 0,294.4854 0,313.256 0,332.4196 -1.471,350.3595 -3.8673,367.5295 -5.3746,385.6865 -6.3226,402.9949 -6.919,419.7679 -7.2941,439.146 -7.53,458.6936 -7.6784,478.3478 -7.7717,498.0673 -7.8305,517.8278 -7.8674,539.0869 -7.8906,559.8177 -6.4342,575.8012 -2.5761,582.911 3.8733,585.4395 L7.93,587.03 " stroke-linecap="round" fill="none" stroke="#40c057" stroke-width="23.798487458149292" stroke-dasharray="none" stroke-dashoffset="0"/></g></g><g transform="matrix(1, 0, 0, 1, 3209.8017, 8890.0529) scale(7.9328291527164305, 7.9328291527164305)" opacity="1"><g transform="scale(0.1260584314560173)"><path d="M0,0 Q-11.7718,8.8298 -16.9451,14.5488 T-28.3162,26.8089 -39.8835,40.4083 -53.0453,60.7342 -67.21,86.762 -80.5344,113.4343 -93.3304,140.512 -104.323,166.3737 -114.1812,191.4705 -123.3241,216.0861 -132.0169,240.3973 -140.4286,264.517 -147.1925,288.5181 -151.4469,312.4446 -155.594,334.8532 -159.6735,356.3051 -163.7105,377.1552 -167.7209,397.6288 -170.2433,419.3364 -173.3028,440.3475 -176.7002,462.3914 -178.8371,485.0868 -180.1812,506.721 -181.0266,529.1587 -181.5584,550.629 -181.8929,571.4907 -182.1033,593.4425 -180.7628,616.08 -178.4467,639.1488 -175.5189,662.487 -172.2063,684.5236 -168.6516,704.2725 -164.9447,722.5804 -161.1402,739.982 -155.8033,756.8135 -150.9754,773.2865 -146.4676,789.5339 -142.1612,805.6394 -137.9814,821.6575 -133.8813,837.6189 -131.3024,853.5445 -129.6802,867.9766 -127.187,884.4113 -122.1551,911.2552 L-118.99,928.14 " stroke-linecap="round" fill="none" stroke="#40c057" stroke-width="23.798487458149292" stroke-dasharray="none" stroke-dashoffset="0"/></g></g><g transform="matrix(1, 0, 0, 1, 3201.8688, 9976.8505) scale(7.9328291527164305, 7.9328291527164305)" opacity="1"><g transform="scale(0.1260584314560173)"><path d="M7.93,0 Q16.7598,-11.7718 21.0078,-16.9451 T29.4006,-26.8452 37.6236,-36.0162 47.2108,-47.6707 59.127,-59.4163 71.0354,-65.3333 79.9967,-64.6402 85.6334,-58.3164 89.1789,-48.4528 91.409,-36.3628 95.7557,-24.3432 104.3775,-15.3119 114.2155,-11.1022 124.8166,-11.3982 135.8996,-15.9992 145.8147,-23.3064 154.9934,-32.3175 163.7106,-45.3442 175.2204,-66.2072 L182.46,-79.33 " stroke-linecap="round" fill="none" stroke="#40c057" stroke-width="23.798487458149292" stroke-dasharray="none" stroke-dashoffset="0"/></g></g><g transform="matrix(1, 0, 0, 1, 3225.6673, 10079.9773) scale(7.9328291527164305, 7.9328291527164305)" opacity="1"><g transform="scale(0.1260584314560173)"><path d="M0,-7.93 Q8.8298,-16.7598 13.0778,-19.5368 T21.4688,-25.5315 31.1616,-32.246 41.6733,-39.4134 51.229,-46.8637 60.1835,-51.5499 67.2868,-50.0826 71.7549,-44.7448 74.5652,-36.9743 76.333,-26.2007 78.9159,-15.0092 84.9554,-6.4988 93.1692,-2.6167 101.2777,-3.1169 110.7929,-7.8465 121.1928,-15.2362 130.6764,-24.2993 142.9806,-38.603 L150.72,-47.6 " stroke-linecap="round" fill="none" stroke="#40c057" stroke-width="23.798487458149292" stroke-dasharray="none" stroke-dashoffset="0"/></g></g><g transform="matrix(1, 0, 0, 1, 3487.4507, 9984.7833) scale(7.9328291527164305, 7.9328291527164305)" opacity="1"><g transform="scale(0.1260584314560173)"><path d="M0,7.93 Q0,28.5316 0,39.4257 T0,58.6433 0,69.2601 0,70.0521 0,64.6644 1.471,53.9186 3.8673,39.8007 5.3746,23.5618 7.7955,7.4616 12.2622,-2.6655 18.0137,-7.5643 24.5735,-9.1729 31.6434,-7.2407 41.9782,-4.5544 57.3067,-2.8647 74.3053,-1.8019 90.8852,-1.1334 105.7288,-2.1839 120.9514,-5.7886 144.0997,-11.9773 L158.66,-15.87 " stroke-linecap="round" fill="none" stroke="#40c057" stroke-width="23.798487458149292" stroke-dasharray="none" stroke-dashoffset="0"/></g></g><g transform="matrix(1, 0, 0, 1, 6819.2389, 9592.1083) scale(7.9328291527164305, 7.9328291527164305)" opacity="1"><g transform="scale(0.1260584314560173)"><path d="M7.93,0 Q22.6476,0 35.1238,0 L47.6,0 " stroke-linecap="round" fill="none" stroke="#ffc034" stroke-width="23.798487458149292" stroke-dasharray="none" stroke-dashoffset="0"/></g></g><g transform="matrix(1, 0, 0, 1, 6803.3733, 9671.4366) scale(7.9328291527164305, 7.9328291527164305)" opacity="1"><g transform="scale(0.1260584314560173)"><path d="M7.93,0 Q31.4774,0 40.354,1.471 T64.2803,5.436 L79.33,7.93 " stroke-linecap="round" fill="none" stroke="#ffc034" stroke-width="23.798487458149292" stroke-dasharray="none" stroke-dashoffset="0"/></g></g><g transform="matrix(1, 0, 0, 1, 7041.3581, 9425.5189) scale(7.9328291527164305, 7.9328291527164305)" opacity="1"><g transform="scale(0.1260584314560173)"><path d="M7.93,0 Q22.6476,-5.8878 30.2183,-6.2666 T42.551,-5.4127 51.7811,1.0103 57.5868,12.4073 58.2948,25.4619 54.3251,39.5611 47.4134,52.8443 38.6528,64.1415 27.2565,74.1895 18.6154,83.4536 19.066,90.7535 26.7082,95.3452 37.4011,98.2334 50.0128,100.05 68.0099,101.9407 L79.33,103.13 " stroke-linecap="round" fill="none" stroke="#ffc034" stroke-width="23.798487458149292" stroke-dasharray="none" stroke-dashoffset="0"/></g></g><g transform="matrix(1, 0, 0, 1, 7184.1491, 9457.2502) scale(7.9328291527164305, 7.9328291527164305)" opacity="1"><g transform="scale(0.1260584314560173)"><path d="M0,0 Q0,17.6596 0,26.1556 T0,44.4104 0,63.2515 0,87.7319 L0,103.13 " stroke-linecap="round" fill="none" stroke="#ffc034" stroke-width="23.798487458149292" stroke-dasharray="none" stroke-dashoffset="0"/></g></g><g transform="matrix(1, 0, 0, 1, 7231.746, 9465.183) scale(7.9328291527164305, 7.9328291527164305)" opacity="1"><g transform="scale(0.1260584314560173)"><path d="M0,7.93 Q2.942,22.6476 3.8673,31.6911 T5.3746,50.8362 6.9433,78.0638 L7.93,95.19 " stroke-linecap="round" fill="none" stroke="#ffc034" stroke-width="23.798487458149292" stroke-dasharray="none" stroke-dashoffset="0"/></g></g><g transform="matrix(1, 0, 0, 1, 7287.2758, 9425.5189) scale(7.9328291527164305, 7.9328291527164305)" opacity="1"><g transform="scale(0.1260584314560173)"><path d="M-7.93,0 Q-25.5896,0 -35.5584,1.471 T-56.2126,5.3402 -75.09,12.1888 -97.171,24.1846 L-111.06,31.73 " stroke-linecap="round" fill="none" stroke="#ffc034" stroke-width="23.798487458149292" stroke-dasharray="none" stroke-dashoffset="0"/></g></g><g transform="matrix(1, 0, 0, 1, 7311.0743, 9568.3098) scale(7.9328291527164305, 7.9328291527164305)" opacity="1"><g transform="scale(0.1260584314560173)"><path d="M0,0 Q5.8878,-11.7718 6.2666,-16.9451 T6.8837,-28.3162 10.2158,-38.4125 16.7265,-43.2921 25.2367,-44.8903 37.9484,-44.4227 53.301,-42.6558 74.1475,-40.8167 L87.26,-39.66 " stroke-linecap="round" fill="none" stroke="#ffc034" stroke-width="23.798487458149292" stroke-dasharray="none" stroke-dashoffset="0"/></g></g><g transform="matrix(1, 0, 0, 1, 7374.537, 9639.7053) scale(7.9328291527164305, 7.9328291527164305)" opacity="1"><g transform="scale(0.1260584314560173)"><path d="M-7.93,0 Q-37.3614,5.8878 -52.5035,9.2105 T-83.0559,14.6232 -115.5181,19.4988 -152.1235,24.0366 -186.9202,26.8908 -214.695,28.6862 -239.5223,29.8154 -261.0246,30.5257 -285.8407,31.265 L-301.45,31.73 " stroke-linecap="round" fill="none" stroke="#ffc034" stroke-width="23.798487458149292" stroke-dasharray="none" stroke-dashoffset="0"/></g></g><g transform="matrix(1, 0, 0, 1, 7176.2162, 9758.6977) scale(7.9328291527164305, 7.9328291527164305)" opacity="1"><g transform="scale(0.1260584314560173)"><path d="M0,7.93 Q20.6016,13.8178 28.5519,17.1405 T41.5028,25.4971 48.1779,35.1683 46.4906,44.1935 39.5434,52.8142 32.2316,61.1806 26.1614,69.385 25.2853,77.4877 30.6202,84.0552 39.8617,88.1862 53.0316,90.7846 68.6742,90.948 85.8722,89.5798 111.0765,88.1557 L126.93,87.26 " stroke-linecap="round" fill="none" stroke="#ffc034" stroke-width="23.798487458149292" stroke-dasharray="none" stroke-dashoffset="0"/></g></g><g transform="matrix(1, 0, 0, 1, 7493.5294, 9576.2426) scale(7.9328291527164305, 7.9328291527164305)" opacity="1"><g transform="scale(0.1260584314560173)"><path d="M0,0 Q14.7139,5.8878 27.1869,10.8789 L39.66,15.87 " stroke-linecap="round" fill="none" stroke="#ffc034" stroke-width="23.798487458149292" stroke-dasharray="none" stroke-dashoffset="0"/></g></g><g transform="matrix(1, 0, 0, 1, 7485.5966, 9639.7053) scale(7.9328291527164305, 7.9328291527164305)" opacity="1"><g transform="scale(0.1260584314560173)"><path d="M0,7.93 Q17.6596,7.93 32.6298,7.93 L47.6,7.93 " stroke-linecap="round" fill="none" stroke="#ffc034" stroke-width="23.798487458149292" stroke-dasharray="none" stroke-dashoffset="0"/></g></g><g transform="matrix(1, 0, 0, 1, 2965.6646, 10627.5818) scale(9.693235496131718, 9.693235496131718)" opacity="1"><g transform="scale(0.10316472764940769)"><path d="M 0 0 m -0.5, 0 a 0.5,0.5 0 1,0 1,0 a 0.5,0.5 0 1,0 -1,0" stroke-linecap="round" fill="#e599f7" stroke="#e599f7" stroke-width="29.079706488395153" stroke-dasharray="none" stroke-dashoffset="0"/></g></g><g transform="matrix(1, 0, 0, 1, 2975.3579, 10569.4224) scale(9.693235496131718, 9.693235496131718)" opacity="1"><g transform="scale(0.10316472764940769)"><path d="M0,0 Q3.595,0 2.9281,5.3943 T0.0443,17.7786 -5.3665,32.7601 -12.3667,51.1728 -20.3648,73.543 -30.79,100.202 -44.5411,131.356 -60.3824,163.538 -75.7409,192.7698 -88.9983,216.551 -105.7704,244.2791 L-116.32,261.72 " stroke-linecap="round" fill="none" stroke="#e599f7" stroke-width="29.079706488395153" stroke-dasharray="none" stroke-dashoffset="0"/></g></g><g transform="matrix(1, 0, 0, 1, 3004.4376, 10540.3427) scale(9.693235496131718, 9.693235496131718)" opacity="1"><g transform="scale(0.10316472764940769)"><path d="M0,0 Q0,43.1547 -1.7975,62.1212 T-4.7256,98.412 -6.5674,132.0276 -7.7259,162.1611 -8.4546,188.3069 -5.3179,213.7438 2.0494,236.9355 10.2802,253.3205 19.0524,263.6267 28.167,270.1093 35.6994,272.3894 40.4373,270.2285 43.4174,265.2725 43.4926,260.3558 39.943,255.4657 34.1153,248.7949 23.2579,241.0021 7.4374,232.5035 -7.9081,225.3605 -22.9547,220.8675 -37.8134,218.0414 -50.7563,216.2638 -67.2042,214.4137 L-77.55,213.25 " stroke-linecap="round" fill="none" stroke="#e599f7" stroke-width="29.079706488395153" stroke-dasharray="none" stroke-dashoffset="0"/></g></g><g transform="matrix(1, 0, 0, 1, 3072.2902, 10792.3668) scale(9.693235496131718, 9.693235496131718)" opacity="1"><g transform="scale(0.10316472764940769)"><path d="M0,0 Q10.7887,10.7887 14.1817,12.3842 T19.709,13.184 23.1856,10.0902 25.3724,2.7499 26.7479,-9.059 27.6131,-21.8811 28.1573,-35.3406 28.4996,-49.2009 30.5125,-59.7184 35.3754,-66.3339 42.031,-68.6958 51.6117,-66.5845 63.0323,-61.6615 73.8108,-56.7675 84.1874,-51.8898 97.9643,-43.8359 L106.63,-38.77 " stroke-linecap="round" fill="none" stroke="#e599f7" stroke-width="29.079706488395153" stroke-dasharray="none" stroke-dashoffset="0"/></g></g><g transform="matrix(1, 0, 0, 1, 3178.9158, 10772.9803) scale(9.693235496131718, 9.693235496131718)" opacity="1"><g transform="scale(0.10316472764940769)"><path d="M0,0 Q14.3837,0 22.5042,-1.7975 T39.3293,-8.3225 55.3067,-17.821 68.9514,-27.3924 79.3315,-37.0097 84.063,-44.8565 81.6448,-47.9946 74.7295,-46.3716 64.9853,-41.7539 53.462,-33.455 42.6188,-21.0432 34.0009,-7.8418 28.5802,4.0587 25.1707,16.9384 24.8235,28.6366 29.9995,35.9948 40.4471,40.6231 56.0079,43.5343 72.9893,45.3654 93.6405,47.2713 L106.63,48.47 " stroke-linecap="round" fill="none" stroke="#e599f7" stroke-width="29.079706488395153" stroke-dasharray="none" stroke-dashoffset="0"/></g></g><g transform="matrix(1, 0, 0, 1, 3353.3941, 10743.9006) scale(9.693235496131718, 9.693235496131718)" opacity="1"><g transform="scale(0.10316472764940769)"><path d="M0,0 Q-10.7887,21.5774 -14.1817,31.9603 T-19.709,50.6716 -21.3881,66.0359 -18.8475,77.4976 -11.8551,82.9096 -2.0625,82.7187 9.4914,77.2042 22.1531,66.542 31.9167,52.6436 38.058,38.5072 41.9208,26.0185 44.3506,14.5681 45.8789,7.3659 45.0408,8.23 42.7144,14.1678 41.251,23.2971 40.3305,36.2312 39.7516,49.7611 41.1868,61.8683 45.6863,71.2812 55.7084,75.4044 75.0648,76.7215 L87.24,77.55 " stroke-linecap="round" fill="none" stroke="#e599f7" stroke-width="29.079706488395153" stroke-dasharray="none" stroke-dashoffset="0"/></g></g><g transform="matrix(1, 0, 0, 1, 3489.0994, 10569.4224) scale(9.693235496131718, 9.693235496131718)" opacity="1"><g transform="scale(0.10316472764940769)"><path d="M0,0 Q0,32.366 0,49.737 T0,85.228 0,120.138 0,152.8832 0,180.6736 0,203.5481 0,233.3037 L0,252.02 " stroke-linecap="round" fill="none" stroke="#e599f7" stroke-width="29.079706488395153" stroke-dasharray="none" stroke-dashoffset="0"/></g></g><g transform="matrix(1, 0, 0, 1, 3702.3505, 10714.8209) scale(9.693235496131718, 9.693235496131718)" opacity="1"><g transform="scale(0.10316472764940769)"><path d="M0,0 Q14.3837,-21.5774 20.7067,-30.1609 T32.8044,-45.9429 44.0088,-59.4666 54.6532,-69.7706 64.9454,-78.0492 73.2167,-83.2565 78.4194,-82.9369 81.6918,-79.139 83.7502,-71.3558 85.0449,-61.0658 85.8593,-50.9966 86.3715,-41.068 86.6937,-31.2261 88.6939,-23.2362 93.5488,-18.2106 100.1994,-16.8488 107.9777,-17.7916 116.467,-21.9796 123.6062,-30.0082 129.8942,-40.4525 139.4128,-57.2711 L145.4,-67.85 " stroke-linecap="round" fill="none" stroke="#e599f7" stroke-width="29.079706488395153" stroke-dasharray="none" stroke-dashoffset="0"/></g></g><g transform="matrix(1, 0, 0, 1, 3721.737, 10802.06) scale(9.693235496131718, 9.693235496131718)" opacity="1"><g transform="scale(0.10316472764940769)"><path d="M0,0 Q10.7887,-10.7887 15.9792,-14.1817 T26.2339,-21.5065 38.0785,-29.7106 50.9231,-36.6703 60.8017,-39.2487 67.0153,-37.2736 70.9237,-32.4363 73.382,-25.7968 74.9284,-18.0237 75.901,-9.5394 78.3103,-2.4053 83.4207,2.0821 90.232,4.9046 98.1131,4.8825 108.4647,-0.5258 125.1899,-12.106 L135.71,-19.39 " stroke-linecap="round" fill="none" stroke="#e599f7" stroke-width="29.079706488395153" stroke-dasharray="none" stroke-dashoffset="0"/></g></g><g transform="matrix(1, 0, 0, 1, 4012.5341, 10705.1277) scale(9.693235496131718, 9.693235496131718)" opacity="1"><g transform="scale(0.10316472764940769)"><path d="M0,0 Q0,17.9824 0,25.4353 T0,39.3737 0,44.544 0,38.8069 1.7975,28.0064 4.7256,14.0192 6.5674,-1.9706 7.7259,-17.4225 8.4546,-30.7386 8.9129,-42.7095 11.0006,-50.2391 15.9105,-53.1778 22.5939,-53.2287 30.3946,-51.4632 38.8981,-50.3527 47.8417,-49.6542 57.0642,-49.2149 68.2594,-48.9385 85.8595,-48.6509 L96.93,-48.47 " stroke-linecap="round" fill="none" stroke="#40c057" stroke-width="29.079706488395153" stroke-dasharray="none" stroke-dashoffset="0"/></g></g><g transform="matrix(1, 0, 0, 1, 7681.4237, 9537.0928) scale(9.693235496131718, 9.693235496131718)" opacity="1"><g transform="scale(0.10316472764940769)"><path d="M0,0 Q3.595,14.3837 4.7256,26.101 T6.5674,46.9861 7.7259,65.5171 8.4546,82.5675 8.9129,96.8872 9.2012,109.4911 9.5013,125.5862 L9.69,135.71 " stroke-linecap="round" fill="none" stroke="#ffc034" stroke-width="29.079706488395153" stroke-dasharray="none" stroke-dashoffset="0"/></g></g><g transform="matrix(1, 0, 0, 1, 7758.9696, 9537.0928) scale(9.693235496131718, 9.693235496131718)" opacity="1"><g transform="scale(0.10316472764940769)"><path d="M0,0 Q3.595,17.9824 4.7256,27.2328 T6.5674,45.8986 7.7259,66.6306 8.4546,86.8629 8.9129,103.1858 9.3899,123.1515 L9.69,135.71 " stroke-linecap="round" fill="none" stroke="#ffc034" stroke-width="29.079706488395153" stroke-dasharray="none" stroke-dashoffset="0"/></g></g><g transform="matrix(1, 0, 0, 1, 7826.8223, 9449.8537) scale(9.693235496131718, 9.693235496131718)" opacity="1"><g transform="scale(0.10316472764940769)"><path d="M0,0 Q-25.1723,10.7887 -36.6859,17.7786 T-60.8358,30.9626 -92.2091,42.8503 -126.3266,52.1252 -167.7836,61.7782 L-193.86,67.85 " stroke-linecap="round" fill="none" stroke="#ffc034" stroke-width="29.079706488395153" stroke-dasharray="none" stroke-dashoffset="0"/></g></g><g transform="matrix(1, 0, 0, 1, 7836.5155, 9634.0252) scale(9.693235496131718, 9.693235496131718)" opacity="1"><g transform="scale(0.10316472764940769)"><path d="M0,0 Q7.1937,7.1937 9.4561,7.6568 T13.1416,6.6136 15.4597,0.5631 15.1185,-12.2338 13.1045,-27.4749 11.8377,-40.6566 11.0409,-52.5447 12.3391,-61.8217 18.55,-67.6569 29.6484,-71.3272 42.0237,-71.8365 53.4046,-70.3575 68.2268,-68.8182 L77.55,-67.85 " stroke-linecap="round" fill="none" stroke="#ffc034" stroke-width="29.079706488395153" stroke-dasharray="none" stroke-dashoffset="0"/></g></g><g transform="matrix(1, 0, 0, 1, 4182.1657, 10690.5878) scale(9.693235496131718, 9.693235496131718)" opacity="1"><g transform="scale(0.10316472764940769)"><path d="M 0 0 m -0.5, 0 a 0.5,0.5 0 1,0 1,0 a 0.5,0.5 0 1,0 -1,0" stroke-linecap="round" fill="#ffc034" stroke="#ffc034" stroke-width="29.079706488395153" stroke-dasharray="none" stroke-dashoffset="0"/></g></g><g transform="matrix(1, 0, 0, 1, 4288.7913, 10671.2014) scale(9.693235496131718, 9.693235496131718)" opacity="1"><g transform="scale(0.10316472764940769)"><path d="M0,0 Q3.595,25.1723 4.7256,36.6859 T6.5674,57.239 7.7259,77.3587 8.9316,107.2244 L9.69,126.01 " stroke-linecap="round" fill="none" stroke="#ffc034" stroke-width="29.079706488395153" stroke-dasharray="none" stroke-dashoffset="0"/></g></g><g transform="matrix(1, 0, 0, 1, 4366.3372, 10671.2014) scale(9.693235496131718, 9.693235496131718)" opacity="1"><g transform="scale(0.10316472764940769)"><path d="M0,0 Q-3.595,21.5774 -4.7256,31.9603 T-6.5674,56.0659 -7.7259,83.8145 -8.9316,121.6202 L-9.69,145.4 " stroke-linecap="round" fill="none" stroke="#ffc034" stroke-width="29.079706488395153" stroke-dasharray="none" stroke-dashoffset="0"/></g></g><g transform="matrix(1, 0, 0, 1, 4405.1101, 10642.1216) scale(9.693235496131718, 9.693235496131718)" opacity="1"><g transform="scale(0.10316472764940769)"><path d="M0,0 Q-21.5774,0 -33.7578,1.7975 T-57.1965,6.525 -80.9307,11.2979 -103.0513,16.0976 -124.157,22.7115 -155.049,32.5694 L-174.48,38.77 " stroke-linecap="round" fill="none" stroke="#ffc034" stroke-width="29.079706488395153" stroke-dasharray="none" stroke-dashoffset="0"/></g></g><g transform="matrix(1, 0, 0, 1, 4434.1898, 10816.5999) scale(9.693235496131718, 9.693235496131718)" opacity="1"><g transform="scale(0.10316472764940769)"><path d="M0,0 Q3.595,-14.3837 4.7256,-22.5042 T6.5674,-41.1268 7.7259,-60.0323 8.4546,-75.5207 7.1154,-87.0623 6.2731,-94.3219 9.3401,-98.8882 14.8661,-101.7604 23.7363,-103.567 34.71,-104.7034 48.8043,-103.6188 64.8614,-101.1373 78.5582,-99.5764 95.7907,-97.9518 L106.63,-96.93 " stroke-linecap="round" fill="none" stroke="#ffc034" stroke-width="29.079706488395153" stroke-dasharray="none" stroke-dashoffset="0"/></g></g><g transform="matrix(1, 0, 0, 1, 4676.5207, 10719.6675) scale(9.693235496131718, 9.693235496131718)" opacity="1"><g transform="scale(0.10316472764940769)"><path d="M0,0 Q14.3837,3.595 20.7067,4.7256 T34.6019,4.7699 55.012,1.8418 L67.85,0 " stroke-linecap="round" fill="none" stroke="#f2f2f2" stroke-width="29.079706488395153" stroke-dasharray="none" stroke-dashoffset="0"/></g></g><g transform="matrix(1, 0, 0, 1, 4666.8275, 10768.1337) scale(9.693235496131718, 9.693235496131718)" opacity="1"><g transform="scale(0.10316472764940769)"><path d="M0,0 Q21.5774,3.595 39.8687,6.6425 L58.16,9.69 " stroke-linecap="round" fill="none" stroke="#f2f2f2" stroke-width="29.079706488395153" stroke-dasharray="none" stroke-dashoffset="0"/></g></g><g transform="matrix(1, 0, 0, 1, 4928.5448, 10651.8149) scale(9.693235496131718, 9.693235496131718)" opacity="1"><g transform="scale(0.10316472764940769)"><path d="M0,0 Q0,17.9824 0,27.2328 T0,47.6961 0,74.9531 0,118.1986 L0,145.4 " stroke-linecap="round" fill="none" stroke="#f2f2f2" stroke-width="29.079706488395153" stroke-dasharray="none" stroke-dashoffset="0"/></g></g><g transform="matrix(1, 0, 0, 1, 5006.0907, 10651.8149) scale(9.693235496131718, 9.693235496131718)" opacity="1"><g transform="scale(0.10316472764940769)"><path d="M0,0 Q3.595,21.5774 4.7256,31.9603 T4.7699,52.4691 3.0003,72.5609 1.8872,94.1899 0.7287,125.6264 L0,145.4 " stroke-linecap="round" fill="none" stroke="#f2f2f2" stroke-width="29.079706488395153" stroke-dasharray="none" stroke-dashoffset="0"/></g></g><g transform="matrix(1, 0, 0, 1, 5064.2501, 10613.0419) scale(9.693235496131718, 9.693235496131718)" opacity="1"><g transform="scale(0.10316472764940769)"><path d="M0,0 Q-21.5774,0 -33.7578,1.7975 T-62.5909,6.525 -93.3131,13.0954 -119.8291,19.0257 -143.6996,22.7558 -164.1085,26.8996 -180.5425,31.3035 -189.0801,32.2761 -192.0144,30.3141 L-193.86,29.08 " stroke-linecap="round" fill="none" stroke="#f2f2f2" stroke-width="29.079706488395153" stroke-dasharray="none" stroke-dashoffset="0"/></g></g><g transform="matrix(1, 0, 0, 1, 5093.3298, 10787.5202) scale(9.693235496131718, 9.693235496131718)" opacity="1"><g transform="scale(0.10316472764940769)"><path d="M0,0 Q7.1937,-10.7887 9.4561,-17.7786 T13.1416,-30.9626 15.4597,-42.8503 16.9179,-55.722 21.43,-67.4152 29.6625,-74.7702 38.4376,-77.599 47.5521,-77.5808 58.6795,-77.5694 76.212,-77.5575 L87.24,-77.55 " stroke-linecap="round" fill="none" stroke="#f2f2f2" stroke-width="29.079706488395153" stroke-dasharray="none" stroke-dashoffset="0"/></g></g><g transform="matrix(1, 0, 0, 1, 5161.1825, 10593.6555) scale(9.693235496131718, 9.693235496131718)" opacity="1"><g transform="scale(0.10316472764940769)"><path d="M0,0 Q14.3837,-7.1937 22.5042,-9.4561 T37.53,-13.1416 50.5781,-11.8629 58.7853,-7.4618 62.1483,-2.896 62.4661,1.7734 59.0711,6.5098 55.1381,13.0859 50.8649,19.0197 46.3777,24.5496 47.1521,31.6247 53.0335,37.8743 62.1273,41.8053 73.2416,44.2779 83.8293,45.8332 97.8261,47.4519 L106.63,48.47 " stroke-linecap="round" fill="none" stroke="#f2f2f2" stroke-width="29.079706488395153" stroke-dasharray="none" stroke-dashoffset="0"/></g></g></svg>