<svg xmlns="http://www.w3.org/2000/svg" direction="ltr" width="870.1045450452533" height="631.6389416749666" viewBox="83.02307995308422 1294.5576463300076 870.1045450452533 631.6389416749666" stroke-linecap="round" stroke-linejoin="round" style="background-color: transparent;"><defs/><g transform="matrix(1, 0, 0, 1, 200.9919, 1359.5366) scale(1.1776545581376967, 1.1776545581376967)" opacity="1"><g transform="scale(0.8491454417510738)"><path d="M0,1.18 Q0,3.8658 0,4.8631 T0,7.2101 0,9.5607 0,11.9134 0,14.5361 0,17.3058 0,20.1554 0,23.0463 0,25.9618 0,28.6217 0,30.8736 0,32.9057 0,35.0851 0,37.6136 0,40.0629 0,42.2002 0,44.17 0,46.0465 0,47.8721 0,49.9391 0,52.6755 0,55.7761 0,59.0725 0,61.9396 0,64.5732 0,67.0797 0,69.2481 0,71.5016 0,74.0704 0,76.8108 0,79.6445 0,82.2599 0,84.4875 0,86.7732 0,89.3595 0,92.1094 0,94.9483 0,98.1023 0,100.892 -0.269,103.4834 -0.6844,106.5051 -0.9104,109.7609 -1.0333,113.1417 -1.1002,116.0548 -1.1366,118.7134 -1.1564,121.7716 -1.1672,125.0472 -1.173,128.1698 -1.1762,130.9424 -1.1779,133.2578 -1.1789,135.0554 -1.1794,136.8382 -1.1797,138.8819 -1.1798,141.0676 -1.1799,143.5972 -1.1799,146.5853 -1.18,149.5537 -1.18,151.9734 -1.18,154.0968 -1.18,156.3258 -1.18,158.879 -1.18,161.6109 -1.18,164.44 -1.18,167.5909 -1.18,170.648 -1.18,173.1159 -1.18,175.2632 -1.18,177.2362 -1.18,179.3834 -1.18,181.6254 -1.18,183.9189 -1.18,186.5095 -1.18,188.9949 -1.18,191.6899 -1.18,194.7657 -1.18,197.5128 -1.18,200.0811 -1.18,203.0879 -1.18,206.3356 -1.18,209.7143 -1.18,212.6262 -1.18,215.2841 -1.18,218.3397 -1.18,221.3449 -1.18,224.3226 -1.18,227.5545 -1.18,230.6555 -1.18,233.6831 -0.911,236.9421 -0.4956,240.0579 -0.2696,242.5577 -0.1467,244.7248 -0.0798,246.9775 -0.0434,249.5436 -0.0236,252.2825 -0.0128,254.8464 -0.007,257.315 -0.0038,259.7318 -0.0021,262.1204 -0.2702,264.2269 -0.685,266.1777 -0.9107,268.3129 -1.0335,270.2815 -1.1003,272.1572 -1.1367,273.9825 -1.1564,275.7803 -1.1672,277.8322 -1.173,280.2913 -1.1762,282.972 -1.1779,285.7732 -1.1789,288.64 -1.1794,291.5424 -0.9106,294.462 -0.4954,297.1241 -0.2695,299.6462 -0.1466,302.0921 -0.0798,304.7656 -0.0434,307.5629 -0.0236,310.1585 -0.0128,312.6444 -0.007,315.3396 -0.0038,318.1488 -0.0021,320.7508 0.2679,322.9712 0.6838,324.9861 0.9101,327.1562 1.0332,329.4106 1.1001,331.7108 1.1365,334.036 1.1564,336.3749 1.1671,338.9901 0.904,341.7557 0.4918,344.3341 0.2675,346.8106 0.1455,349.2317 0.0792,351.6226 0.0431,353.9972 0.0234,356.3628 0.0127,358.7236 0.0069,361.3508 -0.2653,364.1229 -0.6824,366.9739 -0.9093,369.8654 -1.0327,372.2433 -1.0999,374.3439 -1.1364,376.5606 -1.1563,378.8403 -1.1671,381.1544 -1.173,383.4871 -1.1762,385.5632 -1.1779,387.4975 -1.1789,389.6236 -1.1794,391.585 -1.1797,393.4569 -1.1798,395.5491 -1.1799,397.4921 -1.1799,399.3562 -1.18,401.4441 -1.18,403.6538 -1.18,406.1988 -1.18,408.9263 -1.18,411.7529 -1.18,414.6335 -1.18,417.0054 -1.18,419.1005 -1.18,421.3142 -1.18,423.8613 -1.18,426.5899 -1.18,429.4148 -1.18,432.5636 -1.18,435.6194 -0.911,438.0867 -0.4956,439.9669 -0.2696,442.0636 -0.1467,444.2781 -0.0798,446.5567 -0.0434,449.1392 -0.0236,451.8869 -0.0128,454.4556 -0.007,456.9269 -0.0038,459.3451 -0.0021,461.4654 -0.0011,463.6928 -0.0006,466.2474 -0.0003,468.711 -0.0002,470.856 -0.0001,472.8278 -0.0001,474.9765 0,477.2194 0,479.2443 0,481.4197 0,483.408 0,485.5635 0,487.81 0,490.106 0,492.9669 0,496.1352 0,499.4685 0,502.8937 0,505.831 0,508.2336 0,510.6169 0,512.9872 0,515.3506 0,517.7101 0,519.7985 0,521.7395 0,523.8692 0,525.8349 0,527.7091 0,530.0716 0,533.0434 L0,534.66 " stroke-linecap="round" fill="none" stroke="#9398b0" stroke-width="5.299445511619635" stroke-dasharray="none" stroke-dashoffset="0"/></g></g><g transform="matrix(1, 0, 0, 1, 115.0231, 1762.2944) scale(1.1776545581376967, 1.1776545581376967)" opacity="1"><g transform="scale(0.8491454417510738)"><path d="M0,0 Q2.6858,0 3.9522,0 T6.1765,0 7.9246,0 9.4136,0 10.7594,0 12.0274,0 13.2552,0 14.728,0 16.334,0 17.7458,0 19.0519,-0.269 20.3005,-0.6844 21.5155,-0.9104 22.7123,-1.0333 24.1704,-1.1002 25.7685,-1.1366 27.1737,-1.1564 28.4762,-1.1672 29.7228,-1.173 30.9368,-1.1762 32.133,-1.1779 33.5908,-1.1789 35.1887,-1.1794 36.5938,-0.9106 37.8962,-0.4954 39.1428,-0.2695 40.3591,-0.1466 41.5565,-0.0798 42.7437,-0.0434 44.1966,-0.0236 45.7919,-0.0128 47.1955,0.2621 48.4972,0.6806 50.0101,0.9083 51.638,1.0322 53.0616,1.0996 54.6432,1.1363 56.3084,1.1562 57.7501,1.1671 59.3415,1.173 61.0121,1.1762 62.7257,1.1779 64.465,1.1789 65.947,1.1794 67.289,1.1797 68.5571,1.1798 69.7851,1.1799 70.9889,0.9109 72.4486,0.4955 74.0498,0.2696 75.4589,0.1466 76.7613,0.0798 78.0056,0.0434 79.2206,0.0236 80.4196,0.0128 81.8767,0.007 83.4742,0.0038 84.8813,0.0021 86.1826,0.0011 87.4263,0.0006 88.6409,0.0003 89.8398,0.0002 91.0278,0.0001 92.4789,0.0001 94.0754,0 95.482,0 97.052,-0.269 98.7109,-0.6844 100.1515,-0.9104 101.74,-1.0333 103.4089,-1.1002 104.8549,-1.1366 106.1774,-1.1564 107.7016,-1.1672 109.3379,-1.173 110.7639,-1.1762 112.0754,-1.447 113.3269,-1.8633 114.5458,-2.0898 115.747,-2.213 116.9363,-2.28 118.119,-2.3165 119.8363,-2.3363 121.8444,-2.3471 123.4749,-2.353 124.8999,-2.3562 126.211,-2.3579 127.46,-2.3589 128.6775,-2.3594 130.1447,-2.3597 131.7477,-2.3598 133.1578,-2.3599 134.4629,-2.3599 135.711,-2.36 136.9258,-2.36 138.1224,-2.36 139.8473,-2.36 141.8595,-2.36 143.4922,-2.36 145.1852,-2.36 146.9111,-2.36 148.388,-2.36 149.7296,-2.36 151.2642,-2.36 152.9039,-2.36 154.603,-2.36 156.3321,-2.6268 158.3467,-3.0386 160.5165,-3.2627 162.5017,-3.3846 164.3888,-3.4509 165.9511,-3.487 167.8749,-3.5066 170.2644,-3.5173 172.3691,-3.5231 174.0522,-3.5262 175.7726,-3.5279 177.7824,-3.5289 179.9496,-3.5294 181.9334,-3.5297 183.8197,-3.5298 185.6507,-3.5299 187.1825,-3.5299 188.823,-3.53 190.5225,-3.53 191.9828,-3.53 193.5821,-3.53 195.2592,-3.53 196.7074,-3.53 198.3,-3.53 199.9735,-3.53 201.4197,-3.53 203.2803,-3.53 205.6354,-3.799 207.9905,-4.2144 210.6145,-4.4404 213.3849,-4.5633 215.6969,-4.6302 218.0285,-4.6666 220.9088,-4.6864 223.8164,-4.6972 226.4719,-4.703 229.2595,-4.7062 232.1188,-4.7079 234.7482,-4.7089 237.2525,-4.7094 239.4219,-4.7097 241.4069,-4.7098 243.5606,-4.7099 245.5394,-4.7099 247.4207,-4.71 249.518,-4.71 251.7328,-4.71 254.0115,-4.71 256.325,-4.71 258.3884,-4.71 260.3157,-4.71 262.4381,-4.71 264.3998,-4.71 266.5408,-4.71 269.3152,-4.71 272.1674,-4.71 274.5261,-4.71 276.6141,-4.71 278.8238,-4.71 280.8308,-4.71 282.9964,-4.71 285.5174,-4.71 287.6937,-4.71 289.6848,-4.71 291.5727,-4.71 293.6736,-4.71 296.1595,-4.71 298.3166,-4.71 300.2949,-4.71 302.1759,-4.71 304.2754,-4.71 307.0295,-4.71 309.8683,-4.71 312.2175,-4.71 314.5693,-4.441 317.4607,-4.0256 320.3765,-3.7996 322.7675,-3.6767 324.8754,-3.6098 327.0959,-3.5734 329.1087,-3.5536 331.2776,-3.5428 333.8004,-3.537 336.5157,-3.5338 339.0667,-3.5321 341.5283,-3.5311 344.2104,-3.5306 346.4742,-3.5303 348.5106,-3.5302 350.4255,-3.5301 352.5411,-3.5301 355.0327,-3.53 357.731,-3.53 360.275,-3.53 362.7328,-3.53 365.4105,-3.53 368.2101,-3.53 371.076,-3.53 373.4399,-3.53 375.5307,-3.53 377.742,-3.53 379.752,-3.2632 381.6504,-2.8514 384.026,-2.6273 386.9302,-2.5054 389.8508,-2.4391 392.5135,-2.403 394.7691,-2.3834 396.801,-2.3727 398.7112,-2.3669 400.8242,-2.3638 403.3166,-2.3621 406.0154,-2.6279 408.8265,-3.0392 411.4296,-3.263 414.1886,-3.3848 416.7633,-3.1842 419.2379,-2.8084 421.927,-2.6039 424.1947,-2.2237 425.9664,-1.7477 428.0041,-1.4889 430.1865,-1.348 432.1785,-1.2714 434.067,-0.9607 435.9015,-0.5226 438.2424,-0.2843 440.8565,-0.1547 443.0834,-0.0841 445.1019,-0.0458 447.2739,-0.0249 449.2603,-0.0135 451.1457,-0.0074 453.2453,-0.004 455.4636,-0.0022 457.4752,-0.0012 459.3743,-0.0006 461.4814,-0.0004 463.7015,-0.0002 465.7163,-0.0001 467.6172,-0.0001 469.992,0 472.6268,0 475.403,0 478.2562,0 480.6154,0 482.7037,0 484.6446,0 486.7743,0 489.2758,0 491.4414,0 493.4244,0 495.3102,0 497.41,0 500.162,0 503.0019,0 505.354,0 507.4384,0 509.9152,0 512.6055,0 515.4097,0 518.2781,0 520.9123,0 523.1502,0.269 525.1748,0.6844 527.35,0.9104 529.3382,1.0333 531.2268,1.1002 533.3282,1.1366 535.2761,1.1564 537.4097,1.1672 540.18,1.173 543.03,1.4452 545.6543,1.8624 548.4248,2.0893 551.2749,2.2127 553.8992,2.2799 556.4007,2.3164 558.8354,2.3363 560.967,2.3471 562.9315,2.353 565.074,2.3562 567.3134,2.6247 569.3365,3.0375 570.9751,3.2621 572.9404,3.3843 575.3525,3.4507 577.4695,3.4869 579.4259,3.5065 581.5642,3.5172 583.5322,3.5231 585.6767,3.5262 588.1862,3.5279 590.3585,3.5289 592.3451,3.5294 594.4996,3.5297 597.0146,3.5298 600.101,3.5299 L601.78,3.53 " stroke-linecap="round" fill="none" stroke="#9398b0" stroke-width="5.299445511619635" stroke-dasharray="none" stroke-dashoffset="0"/></g></g><g transform="matrix(1, 0, 0, 1, 212.7684, 1889.4811) scale(1.1776545581376967, 1.1776545581376967)" opacity="1"><g transform="scale(0.8491454417510738)"><path d="M0,0 Q0,-2.6858 0,-3.9522 T0,-6.1765 0,-8.1936 0,-10.3648 0,-12.3508 0.269,-14.505 0.6844,-16.7508 0.9104,-18.7796 1.0333,-20.6882 1.1002,-22.8003 1.1366,-25.0232 1.4254,-27.0372 1.8516,-29.2068 2.0834,-31.1918 2.2095,-33.0788 2.2782,-35.1793 2.3155,-37.3958 2.3358,-39.6754 2.3468,-41.9894 2.6196,-44.0554 3.0347,-45.9841 3.2606,-48.1072 3.3834,-50.336 3.4503,-52.6224 3.4866,-55.2091 3.5064,-57.9592 3.7862,-60.5291 4.2075,-63.001 4.4366,-65.4196 4.5613,-67.8092 4.6291,-70.1831 4.666,-72.8174 4.9551,-75.5933 5.3814,-78.1773 5.6133,-80.6569 5.7395,-83.3464 6.0772,-86.1525 6.5299,-88.7528 6.7762,-91.2413 6.9102,-93.6712 7.2498,-96.336 7.7013,-99.1262 8.216,-101.718 8.765,-104.4709 9.0637,-107.3114 9.4952,-109.9305 9.999,-112.6982 10.5421,-115.5467 11.1066,-118.1702 11.6804,-120.6713 12.2593,-123.3725 12.8433,-126.1849 13.6991,-129.0577 14.4337,-131.9635 15.1023,-134.6181 15.7351,-137.4051 16.3461,-140.2642 16.9452,-142.8934 17.5402,-145.6666 18.402,-148.5182 19.1398,-151.1433 19.8102,-153.912 20.713,-156.7611 21.4731,-159.3849 22.1534,-162.1551 23.0593,-165.0051 23.8211,-167.6293 24.5046,-170.1308 25.4145,-172.8345 26.4453,-175.6483 27.5418,-178.2528 28.6764,-181.0126 29.8317,-183.8546 30.7293,-186.4745 31.4843,-189.2426 32.4308,-192.0914 33.4838,-194.7151 34.5947,-197.4852 35.7348,-200.3351 36.8909,-202.9593 38.0578,-205.7298 39.2307,-208.5799 40.4069,-211.4733 41.8515,-214.3879 43.4423,-217.0473 44.8457,-219.568 46.145,-222.2821 47.3876,-225.1015 48.6017,-227.9782 50.0669,-230.886 51.6689,-233.5417 53.0784,-236.3294 54.3833,-239.1865 55.6312,-241.8147 56.8459,-244.5873 58.0425,-247.4385 59.2315,-250.0635 60.4164,-252.8344 61.5968,-255.6847 62.7747,-258.3091 63.9536,-261.0797 65.3998,-263.9298 66.9913,-266.5542 68.3952,-269.0557 69.697,-271.4904 71.21,-273.8888 72.8379,-276.2674 74.5306,-278.6352 76.2563,-280.9972 77.7309,-283.356 79.3402,-285.7131 81.0204,-288.0692 82.7394,-290.4248 84.4816,-292.7801 85.9651,-295.1353 87.577,-297.4904 89.5278,-299.8455 91.3938,-302.2005 93.2161,-304.8245 95.2813,-307.595 97.2096,-310.1759 99.0657,-312.6539 101.1493,-315.0757 103.0876,-317.4671 104.9469,-319.8442 107.0322,-322.2112 109.2405,-324.5727 111.5157,-326.9313 113.5606,-329.2882 115.4778,-331.6443 117.5946,-333.9998 119.8201,-336.3552 122.1046,-338.7103 124.4213,-341.0654 126.7554,-343.4205 128.8323,-345.7755 130.767,-348.1305 132.8933,-350.4855 135.1239,-352.8405 137.4113,-355.1955 139.7294,-357.5505 142.0644,-359.9078 144.4085,-362.264 146.7576,-364.3507 149.1117,-366.2907 151.4661,-368.4199 153.8209,-370.6521 156.1757,-372.9402 158.5306,-375.2589 160.8856,-377.5941 163.2406,-379.9406 165.5955,-382.291 168.2196,-384.3745 170.99,-386.3127 173.5709,-388.441 176.0489,-390.4059 178.4707,-392.2797 181.1312,-394.1038 183.9191,-395.901 186.5096,-397.9525 188.995,-399.8757 191.4209,-401.7267 193.8145,-403.8076 196.4595,-406.0134 199.2391,-408.0183 201.825,-409.916 204.3056,-412.0223 206.729,-413.9729 209.3902,-415.5721 212.1808,-417.247 214.7728,-418.9629 217.2567,-420.7035 219.6819,-422.4552 222.075,-423.944 224.4508,-425.561 227.0861,-427.2454 229.8626,-428.9666 232.447,-430.9769 234.9267,-432.8752 237.3496,-434.4461 240.0105,-436.1077 242.801,-437.8165 245.3929,-439.2818 248.1458,-440.8861 250.9863,-442.5637 253.8722,-444.0121 256.785,-445.3381 259.7125,-446.8643 262.648,-448.4994 265.5878,-449.9269 268.53,-451.2416 271.4735,-452.7616 274.4154,-454.3934 277.3587,-455.8191 280.3028,-457.1328 283.2473,-458.6523 286.461,-460.2837 289.55,-461.7093 292.5733,-463.0206 295.8299,-464.5388 299.2112,-466.1718 302.6626,-467.596 305.883,-468.9065 308.9756,-470.1576 312.2699,-471.643 315.674,-473.2558 319.1355,-474.6713 322.6305,-475.9794 326.1438,-477.2291 329.3956,-478.4448 332.5075,-479.6419 335.8124,-481.1002 339.2199,-482.6984 342.6855,-484.1036 346.1828,-485.4061 349.695,-486.6528 353.2153,-487.8667 356.7423,-489.063 360.273,-490.2518 363.8033,-491.4366 367.3358,-492.6169 370.8694,-493.7948 374.4014,-494.7046 378.2015,-495.4686 382.1498,-496.4223 385.9096,-497.4792 389.5646,-498.5899 393.4317,-499.7299 397.4164,-500.8882 401.465,-502.0564 405.5462,-503.2277 409.6451,-504.4007 413.7536,-505.3078 417.6006,-506.0703 421.5744,-506.7542 425.6148,-507.3952 429.6915,-508.013 433.788,-508.6158 437.6284,-509.2105 441.3296,-509.5341 444.9527,-509.9791 448.5333,-510.4902 452.0932,-511.0373 455.3727,-511.604 458.4996,-512.1813 461.5436,-512.7644 464.2734,-513.3506 466.8323,-513.9386 469.0292,-514.2584 471.0291,-514.6992 473.191,-515.4748 475.6256,-516.4561 L476.95,-516.99 " stroke-linecap="round" fill="none" stroke="#ff8787" stroke-width="5.299445511619635" stroke-dasharray="none" stroke-dashoffset="0"/></g></g><g transform="matrix(1, 0, 0, 1, 321.1126, 1749.3402) scale(1.1776545581376967, 1.1776545581376967)" opacity="1"><g transform="scale(0.8491454417510738)"><path d="M0,0 Q0,2.6858 0,3.9522 T0,6.1765 0,8.4604 0,11.0457 0,13.2593 -0.269,14.1944 -0.6844,13.6292 -0.9104,11.9789 -1.0333,9.4691 -1.1002,6.7632 -0.8676,4.4863 -0.472,2.4405 -0.2567,0.5205 -0.1397,-0.2549 -0.076,0.1304 -0.0413,1.1448 -0.0225,2.7705 -0.0122,4.7288 -0.0067,6.868 -0.0036,9.3746 -0.002,12.0812 -0.0007,14.9366 L0,16.49 " stroke-linecap="round" fill="none" stroke="#4dabf7" stroke-width="5.299445511619635" stroke-dasharray="none" stroke-dashoffset="0"/></g></g><g transform="matrix(1, 0, 0, 1, 327.0009, 1807.0453) scale(1.1776545581376967, 1.1776545581376967)" opacity="1"><g transform="scale(0.8491454417510738)"><path d="M0,0 Q-2.1478,2.6858 -3.001,3.6854 T-4.5874,5.7646 -6.2553,7.9695 -7.9674,9.9739 -9.7037,11.8691 -11.453,13.7072 -12.9428,15.2429 -14.2913,16.6141 -15.5607,17.8982 -17.056,18.8657 -18.9757,19.6133 L-20.02,20.02 " stroke-linecap="round" fill="none" stroke="#4dabf7" stroke-width="5.299445511619635" stroke-dasharray="none" stroke-dashoffset="0"/></g></g><g transform="matrix(1, 0, 0, 1, 308.1584, 1809.4006) scale(1.1776545581376967, 1.1776545581376967)" opacity="1"><g transform="scale(0.8491454417510738)"><path d="M0,0 Q1.6097,2.1478 2.3166,3.001 T3.677,4.5874 4.9552,5.7195 6.1863,6.6021 7.3918,7.618 8.5857,8.7088 9.7733,10.107 11.2241,11.6724 12.8183,13.0621 14.2235,14.892 16.0619,17.2304 18.6254,19.8014 L20.02,21.2 " stroke-linecap="round" fill="none" stroke="#4dabf7" stroke-width="5.299445511619635" stroke-dasharray="none" stroke-dashoffset="0"/></g></g><g transform="matrix(1, 0, 0, 1, 478.9183, 1749.3402) scale(1.1776545581376967, 1.1776545581376967)" opacity="1"><g transform="scale(0.8491454417510738)"><path d="M1.18,0 Q1.18,3.2239 1.18,4.6366 T1.18,7.6227 1.18,10.59 1.18,13.2781 1.449,15.8143 2.039,18.5382 L2.36,20.02 " stroke-linecap="round" fill="none" stroke="#40c057" stroke-width="5.299445511619635" stroke-dasharray="none" stroke-dashoffset="0"/></g></g><g transform="matrix(1, 0, 0, 1, 474.2077, 1808.223) scale(1.1776545581376967, 1.1776545581376967)" opacity="1"><g transform="scale(0.8491454417510738)"><path d="M0,0 Q-1.0762,2.1478 -1.6356,3.001 T-2.7685,4.5874 -3.9229,5.9862 -5.3557,7.552 -6.94,9.2109 -8.3399,10.6492 -9.6395,11.9674 -11.1514,13.2226 -13.3145,14.7102 -16.1289,16.6207 L-17.66,17.66 " stroke-linecap="round" fill="none" stroke="#40c057" stroke-width="5.299445511619635" stroke-dasharray="none" stroke-dashoffset="0"/></g></g><g transform="matrix(1, 0, 0, 1, 457.7206, 1809.4006) scale(1.1776545581376967, 1.1776545581376967)" opacity="1"><g transform="scale(0.8491454417510738)"><path d="M0,0 Q1.6097,2.1478 2.3166,3.27 T3.946,5.5386 5.9064,7.5776 7.7776,9.2248 9.3337,10.6568 10.716,11.9715 12.0037,13.2248 13.2423,14.1757 14.4542,15.2287 15.7727,16.8034 L16.49,17.66 " stroke-linecap="round" fill="none" stroke="#40c057" stroke-width="5.299445511619635" stroke-dasharray="none" stroke-dashoffset="0"/></g></g><g transform="matrix(1, 0, 0, 1, 488.3396, 1808.223) scale(1.1776545581376967, 1.1776545581376967)" opacity="1"><g transform="scale(0.8491454417510738)"><path d="M0,0 Q1.0762,3.2239 1.3689,4.3676 T1.8208,6.4024 2.0667,8.5833 2.2004,10.8436 2.2732,13.147 2.3294,16.0699 L2.36,17.66 " stroke-linecap="round" fill="none" stroke="#40c057" stroke-width="5.299445511619635" stroke-dasharray="none" stroke-dashoffset="0"/></g></g><g transform="matrix(1, 0, 0, 1, 496.5832, 1818.8219) scale(1.1776545581376967, 1.1776545581376967)" opacity="1"><g transform="scale(0.8491454417510738)"><path d="M-1.18,0 Q-4.9374,0.5381 -6.7643,0.6844 T-10.7706,1.0054 L-12.95,1.18 " stroke-linecap="round" fill="none" stroke="#40c057" stroke-width="5.299445511619635" stroke-dasharray="none" stroke-dashoffset="0"/></g></g><g transform="matrix(1, 0, 0, 1, 501.2938, 1804.69) scale(1.1776545581376967, 1.1776545581376967)" opacity="1"><g transform="scale(0.8491454417510738)"><path d="M0,0 Q1.0762,3.2239 1.3689,4.9057 T1.8208,8.0381 2.0667,11.085 2.2004,14.3545 2.2732,17.4761 2.3128,19.979 2.6011,21.0716 3.0247,20.8611 3.5241,20.2085 4.3339,19.5845 5.5793,18.976 7.3307,18.1091 9.0905,17.3708 10.5837,17.2359 11.9318,17.9674 13.2032,19.4415 14.1639,21.0482 14.9556,22.7271 15.9494,24.7886 L16.49,25.91 " stroke-linecap="round" fill="none" stroke="#40c057" stroke-width="5.299445511619635" stroke-dasharray="none" stroke-dashoffset="0"/></g></g><g transform="matrix(1, 0, 0, 1, 318.7573, 1752.8732) scale(1.1776545581376967, 1.1776545581376967)" opacity="1"><g transform="scale(0.8491454417510738)"><path d="M0,0 Q0.5381,-3.2239 0.6844,-4.6366 T0.9104,-7.3559 1.0333,-9.9091 1.1002,-12.6387 1.1366,-15.7355 1.1564,-19.0322 1.4362,-22.4352 1.8575,-25.8984 2.0866,-29.1253 2.2113,-32.2214 2.5459,-35.5177 2.9946,-38.6537 3.2388,-41.4336 3.3716,-44.2888 3.4438,-47.185 3.7522,-49.8343 4.1889,-52.3495 4.4265,-54.7916 4.5558,-57.194 4.6261,-59.8438 4.6644,-62.6282 4.9542,-65.2168 5.3809,-67.9657 5.6131,-70.804 5.7393,-73.4242 5.808,-75.9234 5.8454,-78.3569 5.8657,-80.7546 5.8768,-83.1328 5.8828,-85.5005 5.8861,-88.1291 5.8879,-90.902 5.8888,-93.4866 5.8894,-95.9665 5.8897,-98.3895 5.8898,-100.7814 5.8899,-102.8875 5.8899,-104.838 5.89,-106.973 5.6209,-108.9416 5.2056,-110.8173 4.9796,-112.9116 4.8567,-115.1247 4.7898,-117.4026 4.7534,-119.7156 4.7336,-122.0478 4.7228,-124.3903 4.717,-126.4695 4.7138,-128.4078 4.7121,-130.267 4.7111,-132.3523 4.7106,-134.5628 4.7103,-136.3012 4.7102,-138.0517 4.7101,-139.8111 4.7101,-141.8421 4.71,-144.5566 4.71,-147.6453 4.71,-150.6684 4.71,-153.6537 4.71,-156.6206 4.71,-159.0417 4.71,-161.1636 4.979,-163.3918 5.3944,-165.4088 5.6204,-167.3109 5.7433,-169.1527 6.0793,-170.6928 6.531,-172.0663 6.7768,-173.6184 6.9105,-175.8057 7.0138,-178.6388 L7.07,-180.18 " stroke-linecap="round" fill="none" stroke="#4dabf7" stroke-width="5.299445511619635" stroke-dasharray="10.59889102323927 10.59889102323927" stroke-dashoffset="0"/></g></g><g transform="matrix(1, 0, 0, 1, 324.6456, 1570.3368) scale(1.1776545581376967, 1.1776545581376967)" opacity="1"><g transform="scale(0.8491454417510738)"><path d="M-1.18,0 Q-3.3278,-1.6097 -3.912,-2.3166 T-4.8139,-3.946 -5.5737,-5.9064 -6.256,-7.7776 -6.3581,-9.6004 -5.8756,-11.1278 -5.3441,-12.2278 -4.5192,-13.3642 -2.9965,-14.2515 -1.092,-14.7342 0.4821,-14.7277 1.6052,-13.9194 2.7519,-12.6748 3.6448,-11.1906 4.1305,-9.3093 4.3948,-7.4811 4.2695,-5.9484 3.3965,-4.5789 2.3858,-3.298 1.2979,-2.3322 -0.1011,-1.8068 -1.3979,-2.0568 -2.6392,-2.7286 -3.5835,-3.6321 -4.3662,-4.9307 -5.0611,-6.442 -5.4391,-8.069 -5.3756,-9.4922 -4.5363,-10.8022 -3.0058,-11.7816 -1.3661,-12.0476 0.0639,-11.6565 1.1109,-10.9057 1.9473,-9.9592 2.669,-8.6394 3.0616,-7.1167 3.0084,-6.0192 2.4437,-5.1532 1.0603,-4.682 -1.1549,-4.7002 L-2.36,-4.71 " stroke-linecap="round" fill="none" stroke="#4dabf7" stroke-width="5.299445511619635" stroke-dasharray="none" stroke-dashoffset="0"/></g></g><g transform="matrix(1, 0, 0, 1, 480.096, 1755.2285) scale(1.1776545581376967, 1.1776545581376967)" opacity="1"><g transform="scale(0.8491454417510738)"><path d="M0,-1.18 Q0,-3.8658 0,-4.8631 T0,-6.9411 0,-9.1453 0,-11.9541 0,-15.3631 0,-18.5605 0,-21.3738 0,-24.2472 0,-27.1532 0,-29.8079 0,-32.326 0,-34.7697 0,-37.173 0,-39.8232 0,-42.6079 0,-45.1967 0,-47.6788 0,-50.103 0,-52.4956 0,-55.1401 0.269,-57.9217 0.6844,-60.5087 0.9104,-62.9899 1.0333,-65.6826 1.1002,-68.4881 1.1366,-71.0882 1.1564,-73.8455 1.1672,-76.6884 1.4421,-79.3089 1.8606,-81.8083 2.0883,-84.5109 2.2122,-87.324 2.2796,-90.1972 2.3163,-93.1032 2.603,-95.758 3.0257,-98.276 3.2557,-100.7197 3.3808,-103.3897 3.4488,-106.1851 3.4858,-109.0487 3.506,-112.2185 3.5169,-115.2858 3.7919,-118.295 4.2106,-121.544 4.4383,-124.9234 4.5622,-128.1025 4.6296,-131.1748 4.6663,-134.189 4.9552,-136.9027 5.3815,-139.7218 5.6134,-142.8651 5.7395,-145.918 5.8081,-148.9217 5.8455,-151.8986 5.8658,-154.5919 5.8768,-157.4 5.8828,-160.5396 5.8861,-163.5881 5.8879,-166.5895 5.8888,-169.8341 5.8894,-173.2089 5.8897,-176.3877 5.8898,-179.4599 5.8899,-182.4741 5.8899,-185.4568 5.89,-188.689 5.89,-192.0593 5.89,-195.2357 5.89,-198.3042 5.89,-201.5855 5.89,-204.7134 5.89,-207.7579 5.89,-210.7571 5.89,-213.7293 5.89,-216.689 5.89,-219.6421 5.89,-222.5914 5.89,-225.2698 5.89,-228.0697 6.159,-230.9358 6.5744,-233.5688 6.8004,-236.0751 6.9233,-238.5124 6.9902,-240.9121 7.0266,-243.5605 7.0464,-246.0751 7.0572,-248.2479 7.063,-250.5038 7.0662,-252.8049 7.0679,-255.1305 7.0689,-257.4696 7.0694,-259.5491 6.8006,-261.4852 6.3854,-263.6124 6.1595,-265.5767 6.0366,-267.4501 5.9698,-269.5431 5.9334,-271.7556 5.9136,-273.764 5.9028,-275.6614 5.897,-278.0365 5.8938,-280.6715 5.623,-282.9098 5.2067,-284.9345 4.9802,-287.1099 4.857,-289.6339 4.79,-292.3499 4.7535,-294.9013 4.7337,-297.094 4.7229,-299.094 4.717,-300.9869 4.4448,-302.8214 4.0276,-304.8956 3.8007,-306.8288 3.9463,-308.4162 4.2946,-309.8179 4.484,-311.3852 4.8561,-313.3117 5.5257,-315.5645 L5.89,-316.79 " stroke-linecap="round" fill="none" stroke="#40c057" stroke-width="5.299445511619635" stroke-dasharray="10.59889102323927 10.59889102323927" stroke-dashoffset="0"/></g></g><g transform="matrix(1, 0, 0, 1, 481.2736, 1445.5054) scale(1.1776545581376967, 1.1776545581376967)" opacity="1"><g transform="scale(0.8491454417510738)"><path d="M0,0 Q-1.0762,-2.6858 -1.3689,-3.9522 T-1.8208,-6.4455 -2.0667,-8.609 -2.2004,-10.5908 -2.0042,-12.2047 -1.0903,-13.0826 0.4808,-13.5602 2.1403,-13.551 3.5811,-13.0102 4.903,-11.9111 6.1579,-10.7752 7.1073,-9.6214 7.6238,-7.9199 7.9048,-6.1871 7.7909,-4.9755 7.1931,-4.0496 6.0608,-3.0101 4.64,-2.1756 3.0622,-1.7216 1.3968,-1.7437 -0.0472,-2.5605 -1.1019,-3.8097 -1.6756,-5.2941 -1.9877,-7.1755 -1.8884,-9.0061 -1.5654,-10.5378 -0.8516,-11.6377 0.6106,-12.5052 1.9419,-12.9771 2.9351,-12.4289 3.7445,-11.3259 4.4538,-10.4568 5.1087,-9.4482 5.465,-8.0947 5.3897,-6.8203 4.544,-5.589 3.01,-4.6501 1.0605,-3.9246 L0,-3.53 " stroke-linecap="round" fill="none" stroke="#40c057" stroke-width="5.299445511619635" stroke-dasharray="none" stroke-dashoffset="0"/></g></g><g transform="matrix(1, 0, 0, 1, 139.7538, 1710.4776) scale(1.1776545581376967, 1.1776545581376967)" opacity="1"><g transform="scale(0.8491454417510738)"><path d="M0,0 Q2.6858,-1.0762 3.6854,-1.6356 T5.4956,-2.4995 7.0161,-3.2384 8.6503,-4.1785 10.3442,-5.228 11.8015,-6.0679 13.1323,-6.7916 14.3944,-7.4521 15.6167,-8.0804 16.8175,-8.6913 18.0088,-9.2926 19.464,-10.1578 21.0605,-10.8975 22.4647,-11.5667 23.7667,-12.4665 25.0131,-13.2251 26.2269,-13.9068 27.6921,-14.8157 29.2963,-15.8459 30.7047,-16.6731 32.0067,-17.3922 33.2531,-18.3214 34.4692,-19.365 35.6666,-20.4708 36.8537,-21.3414 38.0376,-22.0818 39.2198,-23.0203 40.4009,-24.069 41.5793,-25.1775 42.7561,-26.0496 43.9343,-26.7908 45.1134,-27.7298 46.5597,-29.0477 48.1513,-30.5695 49.5552,-31.9332 50.8547,-33.2131 52.3665,-34.4474 53.996,-35.6547 55.4205,-37.1163 56.7313,-38.4495 57.9801,-39.4438 59.1976,-40.5228 60.398,-41.6456 61.8558,-42.7921 63.4537,-43.954 64.8611,-45.3908 66.4315,-46.9773 68.0907,-48.3785 69.5313,-49.6788 70.8508,-50.9219 72.1045,-52.134 73.3245,-53.3315 74.5263,-54.521 75.7181,-55.7061 76.9023,-56.8866 78.3513,-58.0647 79.9467,-59.2436 81.3504,-60.423 82.6498,-61.6004 83.8948,-62.7767 85.3769,-63.9547 86.988,-65.1336 88.4025,-66.3107 89.7101,-67.4869 90.9572,-68.6648 92.1714,-69.8436 93.3701,-71.2898 94.5602,-72.8813 95.7457,-74.2852 96.9264,-75.587 98.1045,-76.831 99.2835,-78.0435 100.7297,-79.5102 102.3213,-81.113 103.7252,-82.5206 105.027,-83.8245 106.271,-85.0719 107.4835,-86.2863 108.6812,-87.4827 109.8708,-88.6716 111.0538,-89.8565 112.2331,-91.0368 113.4127,-92.4838 114.5925,-93.809 115.7724,-94.799 116.9501,-95.8756 118.1265,-96.9971 119.3046,-98.143 120.4835,-99.3044 121.6607,-100.4743 122.8369,-101.6466 124.0148,-102.82 125.1936,-104.2655 126.3707,-105.59 127.5469,-106.5772 128.7248,-107.6501 129.9036,-108.7718 131.0807,-109.6511 131.9878,-110.3984 132.7503,-111.3408 133.7032,-112.3892 134.7597,-113.2286 135.8725,-114.2233 137.0136,-115.3025 138.1702,-116.1587 139.3375,-117.1602 140.5105,-118.2408 141.6845,-119.3668 142.8589,-120.5174 144.3049,-121.6791 145.8964,-122.8469 147.298,-124.0202 148.5985,-125.1966 149.8441,-126.3723 151.0597,-127.5478 152.2569,-128.4562 153.4439,-129.2195 154.6277,-130.1727 155.8098,-130.9604 156.9886,-131.6556 158.1657,-132.5696 159.3442,-133.3359 160.5233,-134.0218 161.7006,-134.6639 162.8768,-135.2823 164.0547,-136.1568 165.2336,-137.1683 166.4107,-137.9853 167.5869,-138.6988 168.7648,-139.356 169.9436,-139.9825 171.123,-140.8615 172.3004,-141.6086 173.7457,-142.2819 175.3391,-143.1839 176.7417,-144.2127 178.0405,-145.0414 179.5542,-145.7612 181.1825,-146.6886 182.6041,-147.7289 184.1845,-148.8329 186.1182,-149.9716 187.9749,-151.1291 189.7921,-152.2946 191.8546,-153.4644 193.5123,-154.6389 194.6832,-155.5468 195.8582,-156.3098 197.0332,-156.9939 198.2082,-157.6328 199.3855,-158.5162 200.564,-159.2658 201.741,-159.9426 202.917,-160.5798 204.0948,-161.1955 205.5404,-162.0662 207.1317,-163.0757 208.8044,-164.1629 210.5215,-165.2925 211.9914,-166.4428 213.3269,-167.3353 214.5914,-168.0898 215.8174,-169.0384 217.0201,-170.0925 218.2102,-171.204 219.3957,-172.0777 220.5787,-172.8197 221.7581,-173.7592 222.9354,-174.8084 224.114,-175.6482 225.2932,-176.374 226.4705,-177.3047 227.9158,-178.3468 229.5092,-179.4518 230.914,-180.591 232.2141,-181.4797 233.4571,-182.23 234.6714,-183.1739 236.1368,-184.2255 237.4698,-185.3356 238.464,-186.4753 239.5429,-187.6311 240.6679,-188.5289 241.8157,-189.2864 242.9759,-190.2365 244.1451,-191.2915 245.3193,-192.4012 246.4961,-193.2716 247.6721,-194.0141 249.1166,-194.9562 250.7096,-196.0067 252.112,-197.114 253.4107,-198.2522 254.6553,-199.1404 255.8704,-199.8926 257.3362,-200.8399 258.9385,-201.891 260.3482,-202.9986 261.6509,-203.8702 262.8954,-204.6134 264.1104,-205.5558 265.5786,-206.6042 267.1821,-207.7104 268.5902,-208.8502 270.1633,-210.0084 271.8239,-211.1765 273.2631,-212.3477 274.5841,-213.5207 276.1075,-214.6968 278.0102,-215.8748 279.8523,-217.3204 281.6593,-218.6426 283.4471,-219.6309 284.9578,-220.7067 286.3177,-221.8277 287.5933,-222.9733 288.823,-224.1346 290.03,-225.3044 291.4915,-226.4766 293.0914,-227.6501 294.4998,-228.8265 295.804,-230.0046 297.3184,-231.1835 298.947,-232.3607 300.3711,-233.5369 301.6816,-234.7148 303.1994,-235.8936 304.8321,-237.0707 306.2584,-238.2469 307.5702,-239.4248 308.8195,-240.6036 310.3063,-241.7807 312.189,-242.9569 314.018,-244.1348 315.5511,-245.3136 317.1899,-246.493 318.8863,-247.6704 320.3472,-248.5777 321.68,-249.3402 322.9408,-250.2932 324.4316,-251.3496 326.0497,-252.4602 327.4657,-253.6001 328.7718,-254.7583 330.0204,-255.9264 331.2378,-257.0977 332.7048,-258.2707 334.3077,-259.4468 335.7178,-260.8915 337.0207,-262.2132 338.2653,-263.2013 339.4804,-264.2769 340.6795,-265.4 341.8699,-266.5491 343.3223,-267.7101 344.9172,-268.8774 346.323,-270.0505 347.8925,-271.2268 349.5512,-272.1357 350.9916,-272.8969 352.311,-273.8468 353.5645,-274.9016 354.7846,-276.0135 355.9863,-277.1542 357.4449,-278.3105 359.0432,-279.4776 360.4508,-280.6506 361.7546,-281.8245 363.2687,-282.999 364.8972,-284.1759 366.3212,-285.3543 367.9007,-286.5334 369.8338,-287.9796 371.6903,-289.5712 373.505,-290.9752 375.5661,-292.2747 377.7613,-293.5174 380.0316,-295.0006 382.3405,-296.6123 384.6704,-298.2939 387.0118,-300.0158 389.3594,-301.7574 391.7103,-303.5096 393.7941,-305.2699 396.0016,-307.0324 398.2763,-308.796 400.3209,-310.5626 402.507,-312.3284 404.7701,-314.0938 407.0751,-315.5923 409.403,-317.2123 411.7432,-318.8985 414.0901,-320.3538 416.4407,-321.9504 418.7934,-323.6237 421.1471,-325.3411 423.5014,-327.0803 425.856,-328.8312 428.2108,-330.5908 430.5657,-332.3529 432.9206,-334.1163 435.2778,-335.8804 437.6341,-337.6449 439.9897,-339.1429 442.6141,-340.4959 445.3824,-342.0368 447.9623,-343.6798 450.4396,-345.3808 453.1302,-347.111 455.9368,-348.857 458.5374,-350.614 461.2951,-352.3746 464.1382,-354.4063 466.7588,-356.3163 469.2582,-357.8912 471.9608,-359.286 474.774,-360.5829 477.3782,-361.8264 479.8688,-363.0387 482.5666,-364.234 485.3748,-365.6914 487.9764,-367.289 490.4655,-368.694 492.8935,-369.9963 495.2905,-371.2429 497.6683,-372.4568 500.0357,-373.653 502.1284,-374.8418 504.0717,-376.0266 505.936,-377.2069 507.755,-378.3848 509.5493,-379.5636 511.0636,-380.474 512.4254,-381.2382 514.2401,-382.1921 516.7854,-383.3112 L518.17,-383.92 " stroke-linecap="round" fill="none" stroke="#e599f7" stroke-width="5.299445511619635" stroke-dasharray="none" stroke-dashoffset="0"/></g></g><g transform="matrix(1, 0, 0, 1, 719.1599, 1351.293) scale(1.1776545581376967, 1.1776545581376967)" opacity="1"><g transform="scale(0.8491454417510738)"><path d="M0,0 Q-3.2239,-2.1478 -4.3676,-2.732 T-6.9405,-3.903 -9.9522,-5.0781 -12.9311,-5.9864 -15.6256,-6.4805 -18.1675,-6.7493 -20.8932,-6.8956 -23.4499,-6.9751 -25.9146,-7.0184 -28.5961,-6.7729 -30.8596,-6.1012 -33.1649,-4.931 -36.0892,-3.2659 L-37.68,-2.36 " stroke-linecap="round" fill="none" stroke="#e599f7" stroke-width="5.299445511619635" stroke-dasharray="none" stroke-dashoffset="0"/></g></g><g transform="matrix(1, 0, 0, 1, 681.4749, 1346.5824) scale(1.1776545581376967, 1.1776545581376967)" opacity="1"><g transform="scale(0.8491454417510738)"><path d="M0,0 Q1.0762,-2.1478 1.6356,-3.001 T2.7685,-5.1232 4.1919,-7.6206 5.5043,-10.0531 6.485,-11.6431 7.0185,-12.2391 6.773,-12.0274 6.1013,-11.1075 4.9311,-9.8022 3.7587,-8.2873 2.8518,-6.9251 2.0895,-5.646 1.4057,-4.4143 0.4957,-3.2085 -0.2684,-1.7454 -0.6841,0.1244 -0.6412,1.9464 -0.3488,3.4756 0.3483,4.5766 1.5324,5.1755 2.7124,5.7704 4.4281,6.363 6.7044,6.6854 9.2275,6.9345 L10.6,7.07 " stroke-linecap="round" fill="none" stroke="#e599f7" stroke-width="5.299445511619635" stroke-dasharray="none" stroke-dashoffset="0"/></g></g><g transform="matrix(1, 0, 0, 1, 745.0683, 1350.1154) scale(1.1776545581376967, 1.1776545581376967)" opacity="1"><g transform="scale(0.8491454417510738)"><path d="M0,1.18 Q-3.2239,3.3278 -4.3676,4.181 T-6.4024,5.7651 -8.0475,7.1627 -9.4805,8.4611 -10.26,9.7055 -10.146,10.6515 -9.2791,11.4328 -8.0027,12.3937 -6.7703,13.4545 -5.5618,14.5696 -4.3685,15.9811 -3.4526,17.8229 -2.9544,19.8986 -2.9501,21.8327 -3.4836,23.6919 -4.5809,25.5082 -6.2517,27.0321 -7.9655,28.3991 -9.9717,29.6809 -12.406,30.6472 -14.535,30.9038 -16.2291,30.5054 -17.1506,29.4838 -17.4805,27.9334 L-17.66,27.09 " stroke-linecap="round" fill="none" stroke="#e599f7" stroke-width="5.299445511619635" stroke-dasharray="none" stroke-dashoffset="0"/></g></g><g transform="matrix(1, 0, 0, 1, 748.6012, 1368.9578) scale(1.1776545581376967, 1.1776545581376967)" opacity="1"><g transform="scale(0.8491454417510738)"><path d="M0,0 Q3.2239,-0.5381 4.3676,-0.9535 T6.4024,-2.1307 8.0475,-3.8449 9.2114,-5.5823 9.5756,-7.0633 9.2356,-8.1379 8.5148,-8.4535 7.587,-8.0894 6.5441,-7.3555 5.4387,-6.1492 4.3016,-4.15 3.4162,-1.7195 2.9346,0.6765 2.6726,3.0539 2.7968,5.421 3.6692,7.5136 5.2177,9.19 7.403,10.3711 10.2037,11.0135 13.068,10.825 16.2381,9.3795 20.216,7.1194 L22.38,5.89 " stroke-linecap="round" fill="none" stroke="#e599f7" stroke-width="5.299445511619635" stroke-dasharray="none" stroke-dashoffset="0"/></g></g><g transform="matrix(1, 0, 0, 1, 770.9767, 1344.2271) scale(1.1776545581376967, 1.1776545581376967)" opacity="1"><g transform="scale(0.8491454417510738)"><path d="M0,0 Q1.0762,3.7574 1.3689,5.3175 T1.8208,8.8002 2.0667,12.5735 2.2004,16.5049 2.2732,20.5246 2.3128,24.3233 2.3343,27.9994 2.6128,31.0731 3.3001,32.7452 4.212,32.85 5.2462,31.8331 6.3446,30.2061 7.478,28.2471 8.6326,26.3742 9.7988,24.8196 10.969,23.4381 12.1414,22.6866 13.0482,23.0826 13.5415,24.1028 13.5408,25.1959 13.2714,26.8645 13.1248,28.846 13.3142,30.4598 13.9552,31.8735 15.1088,32.9116 16.5412,33.4763 18.1275,33.7835 20.1175,34.0209 L21.2,34.15 " stroke-linecap="round" fill="none" stroke="#e599f7" stroke-width="5.299445511619635" stroke-dasharray="none" stroke-dashoffset="0"/></g></g><g transform="matrix(1, 0, 0, 1, 812.1946, 1365.4249) scale(1.1776545581376967, 1.1776545581376967)" opacity="1"><g transform="scale(0.8491454417510738)"><path d="M1.18,0 Q-1.5058,-0.5381 -2.7745,-0.4154 T-5,0.3121 -6.7465,1.5127 -7.9656,2.9707 -8.8978,5.1067 -9.674,7.6117 -9.8272,9.7792 -9.3725,11.4941 -8.0512,12.6961 -5.9918,13.0809 -4.0667,12.7545 -2.4813,12.0411 -1.0808,10.8459 0.2192,9.1218 1.1954,7.3791 1.7265,5.8929 2.0153,5.3535 2.1725,5.8672 2.5248,6.6824 3.2522,7.9308 4.186,9.417 5.7679,10.7613 8.1332,12.1788 L9.42,12.95 " stroke-linecap="round" fill="none" stroke="#e599f7" stroke-width="5.299445511619635" stroke-dasharray="none" stroke-dashoffset="0"/></g></g><g transform="matrix(1, 0, 0, 1, 826.3264, 1366.6025) scale(1.1776545581376967, 1.1776545581376967)" opacity="1"><g transform="scale(0.8491454417510738)"><path d="M0,0 Q0.5381,2.6858 0.6844,3.9522 T0.9104,6.4455 1.3024,8.609 2.0514,10.055 2.9947,10.5725 3.7769,10.047 4.4714,8.9562 5.3873,7.289 6.4214,5.3081 7.5197,3.6947 8.6553,2.8171 9.5421,3.1444 10.0245,4.6632 10.556,6.5632 11.3809,8.404 12.3654,9.9435 13.7082,10.7809 15.2434,11.2365 16.8835,11.2153 18.5828,10.6657 20.0453,9.8286 21.3767,8.8374 22.6367,7.4934 23.8603,5.6884 25.064,3.3635 26.5237,0.4868 28.1226,-3.2258 29.5304,-7.9314 30.8321,-13.177 32.076,-18.4475 33.2908,-23.7291 34.2207,-28.481 34.7265,-32.409 35.0017,-35.3507 34.8824,-36.4151 34.5484,-35.9203 34.0977,-34.5772 33.5835,-32.7727 33.037,-30.4482 32.4729,-27.5739 32.1661,-24.3984 31.9991,-21.0589 31.9083,-17.3635 31.8589,-13.2055 31.8321,-8.7957 31.8174,-4.5158 32.0762,-0.5756 32.7528,2.9085 33.659,5.0729 34.421,5.4455 35.0097,4.9691 L35.33,4.71 " stroke-linecap="round" fill="none" stroke="#e599f7" stroke-width="5.299445511619635" stroke-dasharray="none" stroke-dashoffset="0"/></g></g><g transform="matrix(1, 0, 0, 1, 849.8795, 1360.7142) scale(1.1776545581376967, 1.1776545581376967)" opacity="1"><g transform="scale(0.8491454417510738)"><path d="M0,0 Q2.6858,1.0762 3.9522,1.3689 T6.4455,1.8208 8.8758,2.0667 11.5145,2.2567 L12.95,2.36 " stroke-linecap="round" fill="none" stroke="#e599f7" stroke-width="5.299445511619635" stroke-dasharray="none" stroke-dashoffset="0"/></g></g><g transform="matrix(1, 0, 0, 1, 728.5811, 1421.9523) scale(1.1776545581376967, 1.1776545581376967)" opacity="1"><g transform="scale(0.8491454417510738)"><path d="M0,0 Q1.0762,-1.6097 0.8308,-2.0475 T0.1829,-2.7235 -0.7076,-2.8245 -1.9969,-2.3437 -3.5031,-1.544 -4.8606,-0.5709 -6.1348,0.7633 -7.3638,2.294 -8.3014,4.2005 -8.8115,6.3116 -8.5532,7.998 -7.6078,9.1845 -6.2864,9.83 -4.7627,9.9121 -3.129,9.4186 -1.4331,8.3454 0.0275,6.6876 1.3579,4.981 2.0816,3.5168 2.2086,2.7203 2.0086,3.0918 1.6307,4.0987 1.4252,5.4513 1.5824,7.2611 2.2038,9.3194 3.0776,11.513 4.36,14.0493 5.8625,16.7719 7.2157,19.3269 8.4899,21.7907 9.4521,24.2049 9.9755,26.5921 10.2603,28.9646 10.1462,31.0601 9.815,33.0072 9.3659,34.8712 8.3167,36.4211 6.9411,37.8023 5.3879,39.0917 3.4691,40.0622 1.3491,40.5902 -0.878,40.8774 -3.1635,40.7646 -5.2116,40.1651 -7.1306,39.0342 -8.9817,37.3451 -10.5245,35.6191 -11.6305,33.8753 -12.2322,32.1218 -12.2928,30.3631 -11.9607,28.2432 L-11.78,27.09 " stroke-linecap="round" fill="none" stroke="#e599f7" stroke-width="5.299445511619635" stroke-dasharray="none" stroke-dashoffset="0"/></g></g><g transform="matrix(1, 0, 0, 1, 745.0683, 1426.6629) scale(1.1776545581376967, 1.1776545581376967)" opacity="1"><g transform="scale(0.8491454417510738)"><path d="M1.18,0 Q3.3278,3.7574 4.4478,5.3175 T6.4461,8.5312 8.0712,11.6223 9.7601,14.3778 11.2147,16.9506 12.275,19.4241 13.1209,21.8436 13.312,23.9669 13.1469,25.6578 12.7904,27.1134 11.7916,28.7124 10.4411,30.3871 8.6326,31.5649 6.3081,32.2056 3.9697,32.2874 1.8905,31.7961 -0.0455,30.7217 -1.9035,29.0634 -3.4523,26.8206 -4.5639,24.2576 -5.4228,21.513 L-5.89,20.02 " stroke-linecap="round" fill="none" stroke="#e599f7" stroke-width="5.299445511619635" stroke-dasharray="none" stroke-dashoffset="0"/></g></g><g transform="matrix(1, 0, 0, 1, 755.6672, 1429.0182) scale(1.1776545581376967, 1.1776545581376967)" opacity="1"><g transform="scale(0.8491454417510738)"><path d="M0,0 Q3.2239,0 4.3676,-0.269 T6.4024,-1.2202 8.0475,-2.5425 9.2114,-4.069 9.8446,-5.9732 9.651,-7.814 8.7408,-9.0844 7.7099,-9.5065 6.611,-9.198 5.4751,-8.4944 4.3214,-7.3068 3.1579,-5.5869 1.987,-3.8464 1.0809,-2.0924 0.588,-0.0644 0.5889,1.8437 1.1275,3.6888 2.2253,5.2306 3.8964,6.3361 5.8794,7.2043 8.2987,7.4098 11.2268,6.9858 14.1626,6.2171 16.8336,5.2608 19.6295,3.6667 22.9329,1.2919 L24.73,0 " stroke-linecap="round" fill="none" stroke="#e599f7" stroke-width="5.299445511619635" stroke-dasharray="none" stroke-dashoffset="0"/></g></g><g transform="matrix(1, 0, 0, 1, 780.3979, 1421.9523) scale(1.1776545581376967, 1.1776545581376967)" opacity="1"><g transform="scale(0.8491454417510738)"><path d="M0,0 Q0.5381,3.2239 0.6844,4.9057 T0.9104,8.0381 1.3024,9.7421 2.0514,9.3285 2.9947,7.7605 4.0459,5.8337 5.1559,3.7116 6.2955,1.7501 7.4512,0.1449 8.618,-1.2641 10.0576,-2.2973 11.6456,-2.5927 12.7785,-1.9485 13.3948,-0.5219 13.73,1.8661 13.9124,4.7749 14.0116,7.4311 14.0883,10.2478 L14.13,11.78 " stroke-linecap="round" fill="none" stroke="#e599f7" stroke-width="5.299445511619635" stroke-dasharray="none" stroke-dashoffset="0"/></g></g><g transform="matrix(1, 0, 0, 1, 800.418, 1419.597) scale(1.1776545581376967, 1.1776545581376967)" opacity="1"><g transform="scale(0.8491454417510738)"><path d="M1.18,0 Q1.7181,3.2239 1.8644,4.6366 T2.0904,7.6227 2.2133,10.321 2.2802,11.7889 2.5834,11.7825 3.2841,10.7052 4.2033,9.3143 5.2415,7.7528 6.6111,6.0963 8.161,4.6593 9.809,3.3418 11.5103,2.356 12.9739,2.3555 14.3082,3.1601 15.3031,4.405 15.8443,6.4251 16.1388,8.8646 16.2989,10.9966 16.117,12.9635 15.5943,15.2475 L15.31,16.49 " stroke-linecap="round" fill="none" stroke="#e599f7" stroke-width="5.299445511619635" stroke-dasharray="none" stroke-dashoffset="0"/></g></g><g transform="matrix(1, 0, 0, 1, 831.0371, 1423.1299) scale(1.1776545581376967, 1.1776545581376967)" opacity="1"><g transform="scale(0.8491454417510738)"><path d="M1.18,0 Q-2.0439,0.5381 -3.1899,0.9535 T-5.226,2.1307 -6.6004,3.8449 -7.6171,5.8514 -8.1702,7.7477 -7.9353,9.5841 -7.0026,11.388 -5.4214,12.6384 -3.4873,13.3185 -1.0923,13.4195 1.5536,12.6696 4.0668,11.4568 6.2388,9.9922 7.6894,8.1216 8.2095,5.492 8.2293,1.935 L8.24,0 " stroke-linecap="round" fill="none" stroke="#e599f7" stroke-width="5.299445511619635" stroke-dasharray="none" stroke-dashoffset="0"/></g></g><g transform="matrix(1, 0, 0, 1, 848.7019, 1416.064) scale(1.1776545581376967, 1.1776545581376967)" opacity="1"><g transform="scale(0.8491454417510738)"><path d="M0,0 Q0.5381,2.6858 0.6844,4.2212 T0.9104,6.8609 0.7643,9.6398 0.1467,12.7612 -0.4583,14.9951 -0.5183,15.6745 -0.0129,14.9702 0.8001,13.7822 1.5114,12.3311 2.1651,10.7346 3.0565,9.3303 4.0796,7.7615 5.4409,6.101 7.2554,4.9286 8.7805,4.5599 9.6102,5.1664 10.0616,6.8393 10.3071,9.09 10.7097,10.5834 11.4645,10.86 12.1419,10.2034 12.7794,9.0413 13.9334,7.8734 15.366,6.4309 16.9501,4.8413 19.1548,3.4408 21.9661,2.4099 24.5694,2.3848 26.5213,3.7142 27.8523,5.7802 28.5763,8.2448 28.4343,10.9285 27.5636,13.7662 L27.09,15.31 " stroke-linecap="round" fill="none" stroke="#e599f7" stroke-width="5.299445511619635" stroke-dasharray="none" stroke-dashoffset="0"/></g></g><g transform="matrix(1, 0, 0, 1, 762.7331, 1404.2875) scale(1.1776545581376967, 1.1776545581376967)" opacity="1"><g transform="scale(0.8491454417510738)"><path d="M 0 0 m -0.5, 0 a 0.5,0.5 0 1,0 1,0 a 0.5,0.5 0 1,0 -1,0" stroke-linecap="round" fill="#e599f7" stroke="#e599f7" stroke-width="5.299445511619635" stroke-dasharray="none" stroke-dashoffset="0"/></g></g><g transform="matrix(1, 0, 0, 1, 730.9364, 1502.0328) scale(1.1776545581376967, 1.1776545581376967)" opacity="1"><g transform="scale(0.8491454417510738)"><path d="M1.18,0 Q-2.0439,2.6858 -4.2637,4.7593 T-8.227,8.4965 -11.1878,11.6035 -13.8724,14.0985 -17.0897,16.4052 L-18.84,17.66 " stroke-linecap="round" fill="none" stroke="#e599f7" stroke-width="5.299445511619635" stroke-dasharray="none" stroke-dashoffset="0"/></g></g><g transform="matrix(1, 0, 0, 1, 714.4493, 1503.2104) scale(1.1776545581376967, 1.1776545581376967)" opacity="1"><g transform="scale(0.8491454417510738)"><path d="M1.18,0 Q2.7897,2.6858 3.4966,3.6854 T5.1238,5.7646 6.8138,7.9695 8.5403,10.2429 10.5534,12.5535 12.9892,14.6153 16.0143,16.5873 L17.66,17.66 " stroke-linecap="round" fill="none" stroke="#e599f7" stroke-width="5.299445511619635" stroke-dasharray="none" stroke-dashoffset="0"/></g></g><g transform="matrix(1, 0, 0, 1, 776.8649, 1505.5658) scale(1.1776545581376967, 1.1776545581376967)" opacity="1"><g transform="scale(0.8491454417510738)"><path d="M0,0 Q-0.5381,-0.5381 -1.2202,-0.6844 T-2.5425,-0.9104 -4.069,-1.0333 -6.2423,-0.8312 -8.4984,-0.1831 -10.2616,0.9743 -11.7565,2.6778 -12.8388,4.4116 -13.4276,6.1596 -13.4789,8.1844 -12.7019,10.0908 -11.2054,11.3946 -9.0483,12.3729 -6.5342,13.1741 -4.0927,13.341 -1.6884,12.8959 0.6935,11.849 2.7941,10.4723 4.2058,8.6495 4.9738,6.5841 5.3916,4.9247 5.0808,3.4861 4.0764,1.9925 L3.53,1.18 " stroke-linecap="round" fill="none" stroke="#e599f7" stroke-width="5.299445511619635" stroke-dasharray="none" stroke-dashoffset="0"/></g></g><g transform="matrix(1, 0, 0, 1, 799.2404, 1507.9211) scale(1.1776545581376967, 1.1776545581376967)" opacity="1"><g transform="scale(0.8491454417510738)"><path d="M0,0 Q-1.0762,1.6097 -1.6356,2.3166 T-2.7685,3.946 -3.9229,5.6373 -4.8199,7.6313 -5.0388,9.7898 -4.6198,11.4999 -3.318,12.6992 -1.2669,13.0826 0.6537,12.4863 2.2343,11.3571 3.6323,9.938 4.6618,8.0921 5.2219,6.2808 5.5265,5.5645 5.6923,5.982 5.7824,7.0139 5.8315,8.6492 6.1272,10.8817 7.0929,13.4368 8.6921,16.1697 10.636,19.2684 12.7673,22.5637 15.0007,25.6993 17.0204,28.4789 18.6573,31.334 19.2787,33.961 18.8096,35.9259 17.7496,37.2639 15.8323,38.2607 13.4464,39.3411 10.8055,40.1979 7.7592,40.664 4.49,40.6485 1.0997,40.102 -2.0876,39.2666 -4.8954,38.2763 -7.8258,37.1323 L-9.42,36.51 " stroke-linecap="round" fill="none" stroke="#e599f7" stroke-width="5.299445511619635" stroke-dasharray="none" stroke-dashoffset="0"/></g></g><g transform="matrix(1, 0, 0, 1, 855.7678, 1498.4998) scale(1.1776545581376967, 1.1776545581376967)" opacity="1"><g transform="scale(0.8491454417510738)"><path d="M0,0 Q-1.6097,2.1478 -2.8546,3.5368 T-5.3126,6.2195 -7.7237,8.4861 -10.1092,10.5239 -12.7475,12.4373 -15.9292,14.2979 L-17.66,15.31 " stroke-linecap="round" fill="none" stroke="#e599f7" stroke-width="5.299445511619635" stroke-dasharray="none" stroke-dashoffset="0"/></g></g><g transform="matrix(1, 0, 0, 1, 841.6359, 1497.3222) scale(1.1776545581376967, 1.1776545581376967)" opacity="1"><g transform="scale(0.8491454417510738)"><path d="M0,0 Q2.1478,2.1478 3.001,3.001 T4.5874,4.8542 5.9862,6.6672 7.283,8.4605 8.5265,10.51 10.0078,12.4298 11.6185,14.279 13.0328,16.0897 14.3402,17.8819 15.7326,20.0309 L16.49,21.2 " stroke-linecap="round" fill="none" stroke="#e599f7" stroke-width="5.299445511619635" stroke-dasharray="none" stroke-dashoffset="0"/></g></g><g transform="matrix(1, 0, 0, 1, 872.255, 1500.8551) scale(1.1776545581376967, 1.1776545581376967)" opacity="1"><g transform="scale(0.8491454417510738)"><path d="M0,0 Q0.5381,3.7574 0.6844,5.3175 T1.1795,8.5312 1.9441,12.1574 L2.36,14.13 " stroke-linecap="round" fill="none" stroke="#e599f7" stroke-width="5.299445511619635" stroke-dasharray="none" stroke-dashoffset="0"/></g></g><g transform="matrix(1, 0, 0, 1, 879.3209, 1507.9211) scale(1.1776545581376967, 1.1776545581376967)" opacity="1"><g transform="scale(0.8491454417510738)"><path d="M0,0 Q-2.6858,0 -3.9522,0 T-6.4455,0 -8.609,0 -10.5908,0.269 -12.883,0.859 L-14.13,1.18 " stroke-linecap="round" fill="none" stroke="#e599f7" stroke-width="5.299445511619635" stroke-dasharray="none" stroke-dashoffset="0"/></g></g><g transform="matrix(1, 0, 0, 1, 887.5645, 1486.7233) scale(1.1776545581376967, 1.1776545581376967)" opacity="1"><g transform="scale(0.8491454417510738)"><path d="M1.18,0 Q1.7181,4.2955 1.8644,6.2687 T2.0904,10.1225 2.2133,14.1 2.2802,17.8734 2.3166,21.269 2.3364,24.1902 2.6139,25.5102 3.3007,25.4235 4.2124,24.5714 4.9774,23.3031 5.6626,22.0751 6.5711,21.1379 7.8702,20.3591 9.384,19.6664 10.7434,19.5586 12.0186,20.038 12.9814,21.3727 13.5052,23.4417 13.7901,25.3721 13.9451,27.2271 14.0294,29.31 14.0946,31.6805 L14.13,32.97 " stroke-linecap="round" fill="none" stroke="#e599f7" stroke-width="5.299445511619635" stroke-dasharray="none" stroke-dashoffset="0"/></g></g><g transform="matrix(1, 0, 0, 1, 915.8282, 1512.6317) scale(1.1776545581376967, 1.1776545581376967)" opacity="1"><g transform="scale(0.8491454417510738)"><path d="M 0 0 m -0.5, 0 a 0.5,0.5 0 1,0 1,0 a 0.5,0.5 0 1,0 -1,0" stroke-linecap="round" fill="#e599f7" stroke="#e599f7" stroke-width="5.299445511619635" stroke-dasharray="none" stroke-dashoffset="0"/></g></g><g transform="matrix(1, 0, 0, 1, 325.8232, 1563.2708) scale(1.1776545581376967, 1.1776545581376967)" opacity="1"><g transform="scale(0.8491454417510738)"><path d="M0,1.18 Q3.2239,0.6419 4.6366,0.4956 T7.0869,0.2696 9.4937,0.1467 11.8769,0.0798 13.7114,0.0434 15.7833,0.0236 18.5201,0.0128 21.3518,0.007 23.6994,0.0038 26.0503,0.0021 28.9389,0.0011 31.8533,0.0006 34.5125,0.0003 37.0331,0.0002 39.2113,0.0001 41.2012,0.0001 43.3575,0 45.6044,0 47.9007,0 49.9546,0 51.8768,0 53.9987,0 56.2268,0 58.7796,0 61.5112,0 63.8043,-0.269 66.1257,-0.6844 68.9982,-0.9104 71.9037,-1.0333 74.2915,-1.1002 76.6643,-1.1366 79.5648,-1.1564 82.4856,-1.1672 84.8793,-1.173 87.2554,-1.1762 89.6218,-1.1779 91.714,-1.1789 93.9284,-1.1794 95.9378,-1.1797 97.8358,-1.1798 99.9421,-1.1799 102.1619,-1.1799 104.4433,-1.449 107.0273,-1.8644 109.7759,-2.0904 112.3451,-2.2133 114.8166,-2.2802 116.9659,-2.3166 118.9422,-2.3364 121.0913,-2.3472 123.3342,-2.353 125.6282,-2.3562 127.681,-2.3579 129.6026,-2.3589 131.7218,-2.3594 133.9508,-2.3597 136.2373,-2.3598 138.286,-2.3599 140.2053,-2.3599 142.3233,-2.36 144.5493,-2.36 146.5652,-2.36 148.4689,-2.36 150.5784,-2.36 153.0689,-2.6268 156.1396,-3.2118 L157.81,-3.53 " stroke-linecap="round" fill="none" stroke="#ffc034" stroke-width="5.299445511619635" stroke-dasharray="none" stroke-dashoffset="0"/></g></g><g transform="matrix(1, 0, 0, 1, 389.4166, 1577.4027) scale(1.1776545581376967, 1.1776545581376967)" opacity="1"><g transform="scale(0.8491454417510738)"><path d="M0,0 Q0.5381,3.7574 0.6844,5.0485 T0.9104,7.3109 1.0333,9.3466 1.1002,11.5278 1.1366,13.5215 1.1564,15.411 1.1672,17.5127 1.173,19.4631 1.1762,20.2551 1.1779,19.6098 1.4479,18.454 2.3996,17.2894 3.9912,16.1177 5.6619,15.2113 7.3756,14.7182 9.115,14.719 10.597,14.9885 11.939,15.6709 13.2071,17.6541 14.5691,20.7149 L15.31,22.38 " stroke-linecap="round" fill="none" stroke="#ffc034" stroke-width="5.299445511619635" stroke-dasharray="none" stroke-dashoffset="0"/></g></g><g transform="matrix(1, 0, 0, 1, 482.4513, 1446.683) scale(1.1776545581376967, 1.1776545581376967)" opacity="1"><g transform="scale(0.8491454417510738)"><path d="M0,1.18 Q0,3.8658 0,5.1322 T0,7.6255 0,10.3248 0,13.4029 0.269,16.1513 0.6844,18.4535 0.9104,20.7798 1.0333,23.1192 1.1002,25.1966 1.1366,27.1316 1.1564,28.9914 1.1672,30.8079 1.173,32.87 1.1762,35.3347 1.1779,38.0184 1.1789,40.2832 1.1794,42.32 1.1797,44.502 1.1798,46.4938 1.1799,48.3845 1.1799,50.2178 0.9109,52.02 0.4955,54.0766 0.2696,56.0002 0.1467,57.8515 0.0798,59.9324 0.0434,61.8693 0.0236,63.7301 0.0128,65.8163 0.007,67.756 0.0038,69.3492 -0.267,71.0208 -0.6833,73.0041 -0.9098,75.1568 -1.033,77.1327 -1.1,79.0148 -1.1365,81.1125 -1.1563,83.0585 -1.1671,84.6552 -1.442,86.0596 -1.8606,87.6284 -2.0883,89.289 -2.2122,90.9972 -2.2796,93.0003 -2.3163,94.8971 -2.3362,96.7338 -2.3471,98.5378 -2.353,100.3241 -2.3562,102.3697 -2.3579,104.2896 -2.3589,106.1388 -2.3594,108.2187 -2.3598,110.59 L-2.36,111.88 " stroke-linecap="round" fill="none" stroke="#e03131" stroke-width="5.299445511619635" stroke-dasharray="none" stroke-dashoffset="0"/></g></g><g transform="matrix(1, 0, 0, 1, 516.6033, 1502.0328) scale(1.1776545581376967, 1.1776545581376967)" opacity="1"><g transform="scale(0.8491454417510738)"><path d="M0,0 Q1.0762,-3.2239 1.0998,-4.3676 T1.1364,-6.6715 0.8872,-8.7319 -0.0554,-10.3886 -1.1063,-11.2898 -1.9448,-10.9753 -2.9367,-9.7303 -4.0143,-8.2481 -4.8696,-6.6348 -5.604,-4.9522 -6.2725,-3.2321 -6.6361,-1.2202 -6.834,0.6791 -6.9416,2.5172 -6.7311,4.591 -6.0785,6.524 -5.4545,8.1136 -4.846,9.5164 -4.2459,11.3535 -3.9194,13.6934 -3.7419,15.7712 -3.9143,17.7087 -4.5462,19.5698 -5.428,20.8512 -6.4435,21.8151 -7.8008,22.6062 -9.3463,23.0366 -10.9919,23.2707 -12.6919,23.3981 -14.1548,23.2006 -15.4864,22.8264 -16.4776,22.3538 -17.2858,21.2896 -18.2924,19.7031 L-18.84,18.84 " stroke-linecap="round" fill="none" stroke="#e03131" stroke-width="5.299445511619635" stroke-dasharray="none" stroke-dashoffset="0"/></g></g><g transform="matrix(1, 0, 0, 1, 516.6033, 1511.454) scale(1.1776545581376967, 1.1776545581376967)" opacity="1"><g transform="scale(0.8491454417510738)"><path d="M0,0 Q-2.6858,0 -4.2212,0 T-7.5883,0 L-9.42,0 " stroke-linecap="round" fill="none" stroke="#e03131" stroke-width="5.299445511619635" stroke-dasharray="none" stroke-dashoffset="0"/></g></g><g transform="matrix(1, 0, 0, 1, 530.7351, 1493.7892) scale(1.1776545581376967, 1.1776545581376967)" opacity="1"><g transform="scale(0.8491454417510738)"><path d="M0,1.18 Q-1.0762,4.3994 -1.6356,5.5441 T-2.7685,7.8496 -3.9229,10.7157 -4.8199,13.8846 -5.3079,16.6823 -5.5733,19.2782 -5.7177,22.0333 -5.7963,24.6059 -5.57,26.5412 -4.373,27.8631 -2.305,28.8844 L-1.18,29.44 " stroke-linecap="round" fill="none" stroke="#e03131" stroke-width="5.299445511619635" stroke-dasharray="none" stroke-dashoffset="0"/></g></g><g transform="matrix(1, 0, 0, 1, 546.0446, 1504.3881) scale(1.1776545581376967, 1.1776545581376967)" opacity="1"><g transform="scale(0.8491454417510738)"><path d="M0,1.18 Q-2.1478,3.8658 -3.001,5.1322 T-4.5874,7.6255 -5.9862,9.7867 -7.283,11.4982 -8.7955,12.9673 -10.7285,14.4846 L-11.78,15.31 " stroke-linecap="round" fill="none" stroke="#e03131" stroke-width="5.299445511619635" stroke-dasharray="none" stroke-dashoffset="0"/></g></g><g transform="matrix(1, 0, 0, 1, 535.4458, 1507.9211) scale(1.1776545581376967, 1.1776545581376967)" opacity="1"><g transform="scale(0.8491454417510738)"><path d="M0,0 Q1.6097,2.1478 2.3166,2.732 T3.677,4.172 4.9552,5.7603 6.1863,7.1601 7.3918,8.4596 9.1215,9.9714 11.6011,11.9006 L12.95,12.95 " stroke-linecap="round" fill="none" stroke="#e03131" stroke-width="5.299445511619635" stroke-dasharray="none" stroke-dashoffset="0"/></g></g><g transform="matrix(1, 0, 0, 1, 560.1765, 1504.3881) scale(1.1776545581376967, 1.1776545581376967)" opacity="1"><g transform="scale(0.8491454417510738)"><path d="M0,0 Q0,3.2239 0,4.3676 T0,6.9405 0.269,9.6831 0.859,12.5632 L1.18,14.13 " stroke-linecap="round" fill="none" stroke="#e03131" stroke-width="5.299445511619635" stroke-dasharray="none" stroke-dashoffset="0"/></g></g><g transform="matrix(1, 0, 0, 1, 566.0648, 1511.454) scale(1.1776545581376967, 1.1776545581376967)" opacity="1"><g transform="scale(0.8491454417510738)"><path d="M-1.18,0 Q-3.8658,0 -5.1322,-0.269 T-7.9093,-0.859 L-9.42,-1.18 " stroke-linecap="round" fill="none" stroke="#e03131" stroke-width="5.299445511619635" stroke-dasharray="none" stroke-dashoffset="0"/></g></g><g transform="matrix(1, 0, 0, 1, 567.2424, 1497.3222) scale(1.1776545581376967, 1.1776545581376967)" opacity="1"><g transform="scale(0.8491454417510738)"><path d="M1.18,0 Q1.7181,3.2239 1.8644,4.6366 T2.0904,7.3559 2.2133,10.1781 2.2802,13.0541 2.3166,15.6925 2.3364,17.9349 2.3472,18.8857 2.6198,18.5958 3.0348,17.9023 3.5297,16.9893 4.0679,15.9545 4.8988,14.8535 6.4247,13.9855 8.0596,13.7823 9.218,14.479 9.8482,15.9318 10.191,18.0651 10.1085,20.5685 9.6626,23.2638 L9.42,24.73 " stroke-linecap="round" fill="none" stroke="#e03131" stroke-width="5.299445511619635" stroke-dasharray="none" stroke-dashoffset="0"/></g></g><g transform="matrix(1, 0, 0, 1, 580.1966, 1487.9009) scale(1.1776545581376967, 1.1776545581376967)" opacity="1"><g transform="scale(0.8491454417510738)"><path d="M0,0 Q1.6097,2.1478 2.0475,3.001 T2.9926,4.8542 3.7757,6.6672 4.4708,8.4605 5.1179,10.779 5.739,13.65 6.346,16.8238 6.6761,20.1622 6.8557,23.5881 6.9534,27.0614 6.7375,30.2938 6.3511,32.8593 5.8718,34.524 4.8062,35.6964 3.2219,36.9811 L2.36,37.68 " stroke-linecap="round" fill="none" stroke="#e03131" stroke-width="5.299445511619635" stroke-dasharray="none" stroke-dashoffset="0"/></g></g><g transform="matrix(1, 0, 0, 1, 597.8614, 1506.7434) scale(1.1776545581376967, 1.1776545581376967)" opacity="1"><g transform="scale(0.8491454417510738)"><path d="M0,0 Q2.6858,-0.5381 4.2212,-0.6844 T7.5883,-1.0054 L9.42,-1.18 " stroke-linecap="round" fill="none" stroke="#e03131" stroke-width="5.299445511619635" stroke-dasharray="none" stroke-dashoffset="0"/></g></g><g transform="matrix(1, 0, 0, 1, 623.7698, 1499.6775) scale(1.1776545581376967, 1.1776545581376967)" opacity="1"><g transform="scale(0.8491454417510738)"><path d="M0,0 Q1.6097,-2.6858 2.0475,-3.9522 T2.7235,-6.7146 2.8245,-9.5602 2.6127,-11.9131 1.9594,-13.7311 1.0659,-14.7201 0.3108,-14.451 -0.638,-12.9617 -1.4233,-10.8109 -1.8504,-8.836 -2.0828,-6.9545 -2.2092,-4.8572 -2.278,-2.6423 -2.3154,-0.3635 -2.0667,1.681 -1.6624,3.6003 -1.1734,5.4492 -0.6383,7.2599 -0.3472,9.3188 0.0801,11.2437 0.5817,13.3647 0.8545,15.8614 0.7339,18.0268 0.1302,20.0096 -1.2721,21.624 -3.1088,22.5023 -4.9128,22.98 -6.6991,22.9732 -8.2089,22.4336 -9.5683,21.6021 -10.8436,20.6116 -11.8041,19.268 -12.5463,17.4688 L-12.95,16.49 " stroke-linecap="round" fill="none" stroke="#e03131" stroke-width="5.299445511619635" stroke-dasharray="none" stroke-dashoffset="0"/></g></g><g transform="matrix(1, 0, 0, 1, 627.3028, 1509.0987) scale(1.1776545581376967, 1.1776545581376967)" opacity="1"><g transform="scale(0.8491454417510738)"><path d="M0,0 Q-2.6858,0 -3.9522,0 T-6.4455,0 -9.1362,0 L-10.6,0 " stroke-linecap="round" fill="none" stroke="#e03131" stroke-width="5.299445511619635" stroke-dasharray="none" stroke-dashoffset="0"/></g></g><g transform="matrix(1, 0, 0, 1, 636.724, 1491.4339) scale(1.1776545581376967, 1.1776545581376967)" opacity="1"><g transform="scale(0.8491454417510738)"><path d="M0,0 Q-0.5381,2.6858 -0.9535,3.9522 T-1.8616,6.4455 -2.6224,8.8758 -3.0363,11.2717 -3.2614,13.649 -3.3839,16.0161 -3.4505,18.1109 -3.22,20.3244 -2.5588,22.6024 -1.392,24.3797 0.2738,26.1351 L1.18,27.09 " stroke-linecap="round" fill="none" stroke="#e03131" stroke-width="5.299445511619635" stroke-dasharray="none" stroke-dashoffset="0"/></g></g><g transform="matrix(1, 0, 0, 1, 652.0336, 1499.6775) scale(1.1776545581376967, 1.1776545581376967)" opacity="1"><g transform="scale(0.8491454417510738)"><path d="M0,0 Q-1.6097,2.1478 -2.3166,3.27 T-3.946,5.5386 -5.6373,7.5776 -7.3622,9.7606 -9.4592,12.5905 L-10.6,14.13 " stroke-linecap="round" fill="none" stroke="#e03131" stroke-width="5.299445511619635" stroke-dasharray="none" stroke-dashoffset="0"/></g></g><g transform="matrix(1, 0, 0, 1, 642.6123, 1502.0328) scale(1.1776545581376967, 1.1776545581376967)" opacity="1"><g transform="scale(0.8491454417510738)"><path d="M0,0 Q2.1478,2.1478 2.732,3.27 T3.903,5.2696 5.0781,6.8931 6.2532,8.5835 7.6972,10.3078 9.5773,12.0191 L10.6,12.95 " stroke-linecap="round" fill="none" stroke="#e03131" stroke-width="5.299445511619635" stroke-dasharray="none" stroke-dashoffset="0"/></g></g><g transform="matrix(1, 0, 0, 1, 654.3889, 1489.0786) scale(1.1776545581376967, 1.1776545581376967)" opacity="1"><g transform="scale(0.8491454417510738)"><path d="M0,0 Q2.1478,2.1478 3.001,3.27 T4.3184,5.5386 5.035,7.8466 5.4249,10.4451 5.637,13.1993 5.7524,16.0405 5.5461,19.1981 4.8958,22.2587 4.0062,24.7285 3.2555,26.6079 2.3091,28.1684 0.8136,29.7562 L0,30.62 " stroke-linecap="round" fill="none" stroke="#e03131" stroke-width="5.299445511619635" stroke-dasharray="none" stroke-dashoffset="0"/></g></g><g transform="matrix(1, 0, 0, 1, 728.5811, 1572.6921) scale(1.1776545581376967, 1.1776545581376967)" opacity="1"><g transform="scale(0.8491454417510738)"><path d="M0,0 Q-2.6858,1.0762 -4.2212,1.9047 T-6.5919,3.4529 -8.1505,5.1 -8.9985,6.8009 -8.6549,8.5333 -7.3941,10.5496 -5.6343,12.7203 -3.8722,14.9751 -2.6446,17.2756 -2.2458,19.6009 -3.1027,21.6707 -5.4476,23.3348 -8.6019,24.5091 -11.3918,25.1479 -13.9833,25.4954 -16.736,25.1464 -19.0406,23.6136 -21.2034,21.2861 L-22.38,20.02 " stroke-linecap="round" fill="none" stroke="#e599f7" stroke-width="5.299445511619635" stroke-dasharray="none" stroke-dashoffset="0"/></g></g><g transform="matrix(1, 0, 0, 1, 752.1342, 1564.4485) scale(1.1776545581376967, 1.1776545581376967)" opacity="1"><g transform="scale(0.8491454417510738)"><path d="M0,0 Q-1.6097,4.8336 -2.3166,6.6841 T-4.2128,11.6914 -6.0492,17.3702 -7.0482,22.0692 -7.5917,25.9684 -7.8873,29.1634 -7.5123,31.7063 -6.2345,33.3587 -4.7345,34.2576 -2.8446,34.4776 -0.238,34.2654 L1.18,34.15 " stroke-linecap="round" fill="none" stroke="#e599f7" stroke-width="5.299445511619635" stroke-dasharray="none" stroke-dashoffset="0"/></g></g><g transform="matrix(1, 0, 0, 1, 752.1342, 1584.4686) scale(1.1776545581376967, 1.1776545581376967)" opacity="1"><g transform="scale(0.8491454417510738)"><path d="M0,0 Q-2.6858,0 -3.9522,0 T-6.4455,0 -8.8758,0.269 -11.5145,0.859 L-12.95,1.18 " stroke-linecap="round" fill="none" stroke="#e599f7" stroke-width="5.299445511619635" stroke-dasharray="none" stroke-dashoffset="0"/></g></g><g transform="matrix(1, 0, 0, 1, 762.7331, 1592.7122) scale(1.1776545581376967, 1.1776545581376967)" opacity="1"><g transform="scale(0.8491454417510738)"><path d="M0,0 L1.18,4.71 " stroke-linecap="round" fill="none" stroke="#e599f7" stroke-width="5.299445511619635" stroke-dasharray="none" stroke-dashoffset="0"/></g></g><g transform="matrix(1, 0, 0, 1, 765.0884, 1556.2049) scale(1.1776545581376967, 1.1776545581376967)" opacity="1"><g transform="scale(0.8491454417510738)"><path d="M0,0 Q1.0762,3.7574 1.3689,5.3175 T2.0108,8.7388 L2.36,10.6 " stroke-linecap="round" fill="none" stroke="#e599f7" stroke-width="5.299445511619635" stroke-dasharray="none" stroke-dashoffset="0"/></g></g><g transform="matrix(1, 0, 0, 1, 781.5756, 1582.1133) scale(1.1776545581376967, 1.1776545581376967)" opacity="1"><g transform="scale(0.8491454417510738)"><path d="M0,1.18 Q-3.2239,4.3994 -4.3676,5.8131 T-6.4024,8.8008 -7.7785,11.769 -8.258,14.1885 -7.714,15.7715 -6.6132,16.6327 -5.2095,16.8344 -3.6411,16.4083 -2.2498,15.6384 -0.9549,14.4148 0.0186,12.6752 0.5482,10.9218 1.1054,10.237 1.9442,10.6716 2.6673,11.7128 3.3298,13.3531 4.2282,15.0503 5.255,17.0474 6.0826,19.4768 6.5329,22.1413 6.7778,24.9337 6.911,27.5267 6.7145,29.7421 5.8004,31.7521 4.2293,33.6527 2.3008,35.2224 -0.0913,36.343 -2.7355,36.9527 -5.5169,37.0176 -8.9087,35.7122 -13.0546,33.1784 L-15.31,31.8 " stroke-linecap="round" fill="none" stroke="#e599f7" stroke-width="5.299445511619635" stroke-dasharray="none" stroke-dashoffset="0"/></g></g><g transform="matrix(1, 0, 0, 1, 795.7074, 1582.1133) scale(1.1776545581376967, 1.1776545581376967)" opacity="1"><g transform="scale(0.8491454417510738)"><path d="M0,0 Q0.5381,4.2955 0.6844,6.2687 T0.9104,9.5844 1.0333,11.9263 1.1002,13.2002 1.4056,13.3551 1.8408,12.6346 2.3443,11.1687 3.154,9.2974 4.1326,7.2056 5.203,5.2627 6.3211,3.6701 7.4652,2.2655 8.8947,1.2325 10.4771,0.9395 11.6048,1.585 12.4872,2.7409 13.2363,4.1769 13.6438,6.032 13.8655,8.3817 13.9861,11.003 14.0793,13.7925 L14.13,15.31 " stroke-linecap="round" fill="none" stroke="#e599f7" stroke-width="5.299445511619635" stroke-dasharray="none" stroke-dashoffset="0"/></g></g><g transform="matrix(1, 0, 0, 1, 816.9052, 1586.8239) scale(1.1776545581376967, 1.1776545581376967)" opacity="1"><g transform="scale(0.8491454417510738)"><path d="M0,0 Q0.5381,3.7574 0.6844,5.0485 T0.9104,6.5061 1.085,6.8713 L1.18,7.07 " stroke-linecap="round" fill="none" stroke="#e599f7" stroke-width="5.299445511619635" stroke-dasharray="none" stroke-dashoffset="0"/></g></g><g transform="matrix(1, 0, 0, 1, 820.4382, 1559.7379) scale(1.1776545581376967, 1.1776545581376967)" opacity="1"><g transform="scale(0.8491454417510738)"><path d="M0,0 Q0.5381,0.5381 0.6844,1.2202 T1.1795,2.5425 1.7178,4.3357 2.1337,6.8644 L2.36,8.24 " stroke-linecap="round" fill="none" stroke="#e599f7" stroke-width="5.299445511619635" stroke-dasharray="none" stroke-dashoffset="0"/></g></g><g transform="matrix(1, 0, 0, 1, 826.3264, 1586.8239) scale(1.1776545581376967, 1.1776545581376967)" opacity="1"><g transform="scale(0.8491454417510738)"><path d="M0,0 Q0.5381,4.2955 0.6844,5.7329 T1.1795,7.4142 1.9845,7.524 2.9583,6.7789 4.0261,5.5664 5.1451,4.102 6.2896,2.5005 7.9861,1.0913 9.9829,0.0556 11.6049,-0.2388 12.7564,0.4082 13.3827,1.565 13.7235,2.9991 13.9089,4.8532 13.7407,6.9356 13.2286,9.3089 L12.95,10.6 " stroke-linecap="round" fill="none" stroke="#e599f7" stroke-width="5.299445511619635" stroke-dasharray="none" stroke-dashoffset="0"/></g></g><g transform="matrix(1, 0, 0, 1, 853.4125, 1585.6463) scale(1.1776545581376967, 1.1776545581376967)" opacity="1"><g transform="scale(0.8491454417510738)"><path d="M0,0 Q0.5381,0 0.1464,0.5381 T-0.7275,1.9047 -1.7387,3.4529 -2.8246,5.3691 -3.6843,8.0211 -4.152,10.8068 -3.8707,12.8602 -2.9128,13.7083 -1.5845,13.6316 -0.0549,12.785 1.3131,11.5196 2.593,9.7573 3.5584,7.7248 4.0835,6.081 4.3692,5.1868 4.7936,5.5075 5.8294,7.0248 7.1977,9.1909 8.4801,11.4431 9.9826,14.0113 11.6048,16.7512 13.0253,19.3157 14.3362,22.0536 15.3183,24.886 15.5836,27.5007 15.1898,29.997 14.1707,32.1598 12.5425,34.1412 10.5828,36.0239 8.1739,37.3172 5.2514,38.0207 1.7829,38.4034 -2.2517,38.0758 -6.8944,37.0617 L-9.42,36.51 " stroke-linecap="round" fill="none" stroke="#e599f7" stroke-width="5.299445511619635" stroke-dasharray="none" stroke-dashoffset="0"/></g></g><g transform="matrix(1, 0, 0, 1, 734.4694, 1638.6407) scale(1.1776545581376967, 1.1776545581376967)" opacity="1"><g transform="scale(0.8491454417510738)"><path d="M0,0 Q-2.6858,-1.6097 -3.4164,-1.7808 T-4.8134,-1.7758 -5.8424,-1.2351 -6.6689,-0.4029 -7.6544,1.3928 -8.4595,3.9793 -8.8975,6.4603 -8.8667,8.617 -8.5809,10.5951 -8.1587,12.4761 -7.6623,14.3041 -7.1231,16.1035 -6.5608,17.8894 -5.9859,19.6681 -5.4041,21.4405 -4.8185,23.2096 -4.231,25.2458 -3.9113,27.4274 -4.2755,29.1523 -5.5475,30.6264 -7.0443,31.6951 -8.6657,32.2764 -10.6216,32.5927 -12.4905,32.498 -14.0452,31.9107 -15.9649,31.0531 -18.3521,30.0485 -20.7246,28.9662 -22.8201,27.3035 -24.8213,24.8725 L-25.91,23.55 " stroke-linecap="round" fill="none" stroke="#e03131" stroke-width="5.299445511619635" stroke-dasharray="none" stroke-dashoffset="0"/></g></g><g transform="matrix(1, 0, 0, 1, 733.2917, 1653.9502) scale(1.1776545581376967, 1.1776545581376967)" opacity="1"><g transform="scale(0.8491454417510738)"><path d="M0,0 Q-3.2239,1.0762 -4.6366,1.3689 T-7.7347,2.0108 L-9.42,2.36 " stroke-linecap="round" fill="none" stroke="#e03131" stroke-width="5.299445511619635" stroke-dasharray="none" stroke-dashoffset="0"/></g></g><g transform="matrix(1, 0, 0, 1, 753.3119, 1637.4631) scale(1.1776545581376967, 1.1776545581376967)" opacity="1"><g transform="scale(0.8491454417510738)"><path d="M0,0 Q-1.0762,2.6858 -1.6356,3.6854 T-2.7685,5.7646 -3.9229,8.2363 -5.0889,11.1929 -5.9923,14.1442 -6.4837,16.8235 -6.7511,19.355 -6.8965,21.806 -6.7066,24.2132 -6.0652,26.5966 -4.9114,28.9671 -2.9409,30.7924 -0.2719,32.2028 L1.18,32.97 " stroke-linecap="round" fill="none" stroke="#e03131" stroke-width="5.299445511619635" stroke-dasharray="none" stroke-dashoffset="0"/></g></g><g transform="matrix(1, 0, 0, 1, 772.1543, 1648.062) scale(1.1776545581376967, 1.1776545581376967)" opacity="1"><g transform="scale(0.8491454417510738)"><path d="M0,1.18 Q-2.6858,3.8658 -3.6854,5.1322 T-6.0336,7.8923 -8.3849,10.4676 -10.4689,12.1377 -12.8401,13.428 L-14.13,14.13 " stroke-linecap="round" fill="none" stroke="#e03131" stroke-width="5.299445511619635" stroke-dasharray="none" stroke-dashoffset="0"/></g></g><g transform="matrix(1, 0, 0, 1, 759.2001, 1651.5949) scale(1.1776545581376967, 1.1776545581376967)" opacity="1"><g transform="scale(0.8491454417510738)"><path d="M0,0 Q2.1478,2.6858 3.001,3.6854 T4.5874,5.7646 5.9862,7.7005 7.283,9.2917 8.5265,10.6931 9.7411,11.9913 10.9376,13.2356 12.3933,14.1815 14.2824,14.9124 L15.31,15.31 " stroke-linecap="round" fill="none" stroke="#e03131" stroke-width="5.299445511619635" stroke-dasharray="none" stroke-dashoffset="0"/></g></g><g transform="matrix(1, 0, 0, 1, 785.1085, 1650.4173) scale(1.1776545581376967, 1.1776545581376967)" opacity="1"><g transform="scale(0.8491454417510738)"><path d="M0,0 Q0.5381,3.7574 0.6844,5.5866 T1.1795,9.2156 1.9441,13.1628 L2.36,15.31 " stroke-linecap="round" fill="none" stroke="#e03131" stroke-width="5.299445511619635" stroke-dasharray="none" stroke-dashoffset="0"/></g></g><g transform="matrix(1, 0, 0, 1, 793.3521, 1658.6608) scale(1.1776545581376967, 1.1776545581376967)" opacity="1"><g transform="scale(0.8491454417510738)"><path d="M-1.18,0 Q-4.3994,0 -6.0821,-0.269 T-9.7725,-0.859 L-11.78,-1.18 " stroke-linecap="round" fill="none" stroke="#e03131" stroke-width="5.299445511619635" stroke-dasharray="none" stroke-dashoffset="0"/></g></g><g transform="matrix(1, 0, 0, 1, 795.7074, 1644.529) scale(1.1776545581376967, 1.1776545581376967)" opacity="1"><g transform="scale(0.8491454417510738)"><path d="M1.18,0 Q1.7181,3.2239 1.8644,4.9057 T2.0904,8.8452 2.2133,13.1361 2.2802,17.08 2.3166,20.2994 2.6032,22.0507 3.2948,21.6605 4.4782,19.5695 6.1959,17.3581 7.9351,15.8861 9.4193,14.8163 10.7626,14.2343 12.0291,14.4558 12.9871,15.3811 13.5083,16.6893 13.7918,18.2081 13.946,20.1082 14.0299,22.2157 14.0947,24.6084 L14.13,25.91 " stroke-linecap="round" fill="none" stroke="#e03131" stroke-width="5.299445511619635" stroke-dasharray="none" stroke-dashoffset="0"/></g></g><g transform="matrix(1, 0, 0, 1, 815.7275, 1636.2854) scale(1.1776545581376967, 1.1776545581376967)" opacity="1"><g transform="scale(0.8491454417510738)"><path d="M0,0 Q1.0762,3.7574 1.6356,5.3175 T3.0375,8.8002 4.3383,12.3045 5.3149,15.8228 6.1152,19.6177 6.5506,23.2918 6.5184,26.9002 6.2319,30.2061 5.8069,33.0784 5.0377,35.4458 3.5453,37.2717 1.2491,39.0646 L0,40.04 " stroke-linecap="round" fill="none" stroke="#e03131" stroke-width="5.299445511619635" stroke-dasharray="none" stroke-dashoffset="0"/></g></g><g transform="matrix(1, 0, 0, 1, 835.7477, 1655.1279) scale(1.1776545581376967, 1.1776545581376967)" opacity="1"><g transform="scale(0.8491454417510738)"><path d="M0,1.18 Q3.7574,1.18 5.3175,1.18 T8.2621,1.18 11.2983,1.18 L12.95,1.18 " stroke-linecap="round" fill="none" stroke="#e03131" stroke-width="5.299445511619635" stroke-dasharray="none" stroke-dashoffset="0"/></g></g><g transform="matrix(1, 0, 0, 1, 872.255, 1644.529) scale(1.1776545581376967, 1.1776545581376967)" opacity="1"><g transform="scale(0.8491454417510738)"><path d="M0,0 Q1.6097,-3.7574 2.0475,-5.0485 T2.7235,-7.58 3.0913,-9.762 3.0246,-11.4847 2.7215,-12.96 2.0186,-14.3007 0.56,-15.03 -0.7715,-14.8886 -1.7626,-14.0069 -2.5685,-12.1843 -3.007,-9.5809 -3.2455,-6.8239 -3.3752,-4.2503 -3.4458,-1.7741 -3.2174,0.6469 -2.8264,3.3045 -2.6137,6.0932 -2.498,8.6841 -2.4351,11.1674 -2.4009,13.5922 -2.649,16.2543 -3.3198,19.0453 -4.2228,21.3685 -5.2521,23.1704 -6.8859,24.4196 -9.1153,25.0992 -11.6711,25.469 -14.4043,25.132 -16.9651,23.6058 -19.7079,21.2834 L-21.2,20.02 " stroke-linecap="round" fill="none" stroke="#e03131" stroke-width="5.299445511619635" stroke-dasharray="none" stroke-dashoffset="0"/></g></g><g transform="matrix(1, 0, 0, 1, 873.4326, 1656.3055) scale(1.1776545581376967, 1.1776545581376967)" opacity="1"><g transform="scale(0.8491454417510738)"><path d="M-1.18,0 L-9.42,0 " stroke-linecap="round" fill="none" stroke="#e03131" stroke-width="5.299445511619635" stroke-dasharray="none" stroke-dashoffset="0"/></g></g><g transform="matrix(1, 0, 0, 1, 887.5645, 1636.2854) scale(1.1776545581376967, 1.1776545581376967)" opacity="1"><g transform="scale(0.8491454417510738)"><path d="M0,1.18 Q-1.6097,5.4755 -2.5856,7.4487 T-4.0924,11.3002 -5.1811,14.7384 -6.0425,17.6849 -6.511,20.6307 -6.7659,23.8429 -6.6355,26.9333 -5.7575,29.4193 -4.206,31.3074 -2.2461,33.1485 L-1.18,34.15 " stroke-linecap="round" fill="none" stroke="#e03131" stroke-width="5.299445511619635" stroke-dasharray="none" stroke-dashoffset="0"/></g></g><g transform="matrix(1, 0, 0, 1, 900.5187, 1649.2396) scale(1.1776545581376967, 1.1776545581376967)" opacity="1"><g transform="scale(0.8491454417510738)"><path d="M0,0 Q-2.1478,3.2239 -3.27,4.6366 T-5.8077,7.6227 -8.5288,10.321 -11.3923,12.788 L-12.95,14.13 " stroke-linecap="round" fill="none" stroke="#e03131" stroke-width="5.299445511619635" stroke-dasharray="none" stroke-dashoffset="0"/></g></g><g transform="matrix(1, 0, 0, 1, 889.9198, 1650.4173) scale(1.1776545581376967, 1.1776545581376967)" opacity="1"><g transform="scale(0.8491454417510738)"><path d="M0,0 Q1.6097,2.6858 2.3166,3.6854 T3.677,5.7646 4.9552,7.7005 6.1863,9.5585 7.9299,11.9121 10.4235,14.8771 L11.78,16.49 " stroke-linecap="round" fill="none" stroke="#e03131" stroke-width="5.299445511619635" stroke-dasharray="none" stroke-dashoffset="0"/></g></g><g transform="matrix(1, 0, 0, 1, 907.5846, 1636.2854) scale(1.1776545581376967, 1.1776545581376967)" opacity="1"><g transform="scale(0.8491454417510738)"><path d="M0,0 Q1.0762,5.9052 1.3689,8.0495 T1.8208,11.8961 2.0667,15.3316 2.2004,18.8124 2.2732,22.3157 2.0437,25.8334 1.3808,29.09 0.4821,31.6664 -0.8116,33.8728 -2.5893,35.6089 -4.727,36.9503 L-5.89,37.68 " stroke-linecap="round" fill="none" stroke="#e03131" stroke-width="5.299445511619635" stroke-dasharray="none" stroke-dashoffset="0"/></g></g><g transform="matrix(1, 0, 0, 1, 714.4493, 1683.3916) scale(1.1776545581376967, 1.1776545581376967)" opacity="1"><g transform="scale(0.8491454417510738)"><path d="M0,0 Q3.2239,0 4.6366,0 T7.3559,0 10.1781,0 13.0541,0 15.4234,0 17.5195,0 19.7336,0 22.012,0 24.3253,0 26.6576,0 29.0002,0 31.3485,0 33.6999,0 36.3219,0 39.0913,0 41.6716,0 44.1493,-0.269 46.571,-0.6844 48.9622,-0.9104 51.337,-1.0333 53.705,-1.1002 56.3361,-1.1366 59.1081,-1.1564 61.6899,-1.4362 63.9016,-1.8575 65.9095,-2.0866 68.0757,-2.2113 70.328,-2.2791 72.6272,-2.316 74.9518,-2.3361 77.5593,-2.0779 80.3207,-1.6685 82.8968,-1.4457 85.372,-1.3246 88.0592,-1.2586 90.864,-1.2228 93.4659,-1.2033 95.9553,-0.9236 98.3833,-0.5024 100.7781,-0.2733 103.1547,0.1203 105.5215,0.6035 107.8829,0.8664 110.2414,1.0094 112.5983,1.0872 114.9543,1.1295 117.3099,1.1525 119.6652,1.1651 122.0203,1.1719 124.1087,1.1756 126.0496,1.1776 128.1793,1.1787 130.1427,1.1793 132.0156,1.1796 134.1107,1.1798 136.5933,1.1799 139.5535,1.1799 142.5068,1.18 144.9182,0.9109 147.0349,0.4956 149.2625,0.2696 151.5482,0.1467 154.1323,0.0798 157.1499,0.0434 159.8655,0.0236 162.4166,0.0128 164.8783,-0.2621 167.0222,-0.6806 169.2647,-0.9083 171.5585,-1.0322 173.6112,-1.0996 175.5327,-1.1363 177.6519,-1.1562 179.8786,-1.1671 182.1638,-1.173 184.2141,-1.1762 186.4033,-0.9089 188.9371,-0.4944 191.3894,-0.269 193.5283,-0.1463 195.4967,-0.3486 197.7786,-0.8871 L199.02,-1.18 " stroke-linecap="round" fill="none" stroke="#f2f2f2" stroke-width="5.299445511619635" stroke-dasharray="none" stroke-dashoffset="0"/></g></g><g transform="matrix(1, 0, 0, 1, 801.5957, 1697.5234) scale(1.1776545581376967, 1.1776545581376967)" opacity="1"><g transform="scale(0.8491454417510738)"><path d="M0,0 Q1.0762,3.2239 1.3689,4.3676 T1.8208,8.0144 2.0667,12.4151 2.2004,16.152 2.0042,19.5277 1.6283,22.169 1.4239,23.6059 1.5817,23.8494 1.9366,23.4461 2.3964,22.6909 3.1824,21.742 4.148,20.6877 5.4782,19.5761 7.0066,18.7024 8.6452,17.9603 10.6105,17.2898 12.4844,16.9251 14.0419,17.2625 15.1582,18.5199 15.7655,20.2778 16.0959,22.5771 16.2756,25.4398 16.4145,28.7949 L16.49,30.62 " stroke-linecap="round" fill="none" stroke="#ffc034" stroke-width="5.299445511619635" stroke-dasharray="none" stroke-dashoffset="0"/></g></g></svg>