<svg xmlns="http://www.w3.org/2000/svg" direction="ltr" width="2072.949534791149" height="2231.3485386400775" viewBox="-114.23978965169233 2132.2201434119193 2072.949534791149 2231.3485386400775" stroke-linecap="round" stroke-linejoin="round" style="background-color: transparent;"><defs/><g transform="matrix(1, 0, 0, 1, 647.2915, 2161.6701) scale(2.550805817293658, 2.550805817293658)" opacity="1"><g transform="scale(0.39203297766545603)"><path d="M0,2.55 Q0,8.364 0,10.5291 T0,15.0348 0,20.3929 0,26.7961 0,32.605 0,37.5093 0,41.9237 0,46.0716 0,50.0723 0,53.9928 0,58.4512 0,62.6208 -0.5814,66.6332 -1.4791,70.5602 -1.9674,75.0243 -2.2331,80.3621 -2.3776,85.0101 -2.4562,89.2828 -2.499,93.9327 -2.5222,98.7879 -3.1163,103.1733 -4.0209,107.3054 -4.513,111.8812 -4.7806,116.696 -4.9263,122.2223 -5.0055,128.717 -5.0486,135.7407 -5.072,143.0524 -5.0848,149.9369 -5.6731,156.0077 -6.5746,162.2172 -7.065,169.0858 -7.3317,175.1502 -7.4769,180.1935 -7.5558,185.2626 -7.5988,190.9272 -7.6221,196.3344 -7.6348,201.0223 -7.6418,206.4819 -7.6455,211.7775 -7.6476,216.4025 -7.6487,221.2441 -7.6493,226.2035 -7.6496,230.6456 -7.6498,234.8086 -7.6499,239.4012 -7.6499,244.2251 -7.65,249.1749 -7.0686,254.1932 -6.1709,259.2488 -5.6826,264.3269 -5.4169,269.4173 -5.2724,274.512 -5.1938,279.6092 -5.151,284.7076 -5.1278,289.2254 -4.5337,292.8459 -3.6291,296.5619 -3.137,300.9113 -2.8694,305.6029 -2.7237,309.8994 -2.6445,313.9809 -2.6014,318.5268 -2.578,323.3254 -2.5652,328.2637 -2.5583,333.278 -2.5545,338.3314 -2.5524,343.9874 -2.5513,349.9713 -2.5507,354.9708 -2.5504,360.0183 -2.5502,365.6735 -2.5501,371.0755 -2.5501,376.3398 -2.55,382.1106 -2.55,387.5755 -2.55,392.2949 -2.55,396.6087 -2.55,401.281 -2.55,406.7297 -2.55,412.6009 -2.55,418.1203 -2.55,423.4508 -2.55,428.6785 -2.55,433.8479 -2.55,438.9857 -2.55,444.1063 -2.55,449.8011 -2.55,455.8084 -2.55,462.5648 -2.55,468.5658 -2.55,474.156 -2.55,479.5227 -2.55,484.77 -2.55,489.9524 -2.55,494.5159 -3.1314,498.7426 -4.0291,502.2047 -4.5174,506.4137 -4.7831,512.1941 -4.9276,517.6665 -5.0062,522.9691 -5.049,528.1793 -5.0722,533.3393 -5.0849,539.6347 -5.0918,545.385 -5.0955,550.841 -5.0976,557.2998 -5.0987,563.139 -5.0993,568.6411 -5.0996,574.5412 -5.0998,580.6602 -5.0999,587.4796 -5.0999,594.6777 -5.1,600.9191 -5.1,606.6423 -5.1,612.665 -5.1,618.267 -5.6814,623.64 -6.5791,629.47 -7.0674,636.1299 -7.3331,643.2435 -7.4776,649.4412 -7.5562,654.557 -7.599,660.247 -7.6222,666.8307 -7.6349,673.9029 -8.2232,681.2409 -9.1246,688.7212 -9.615,695.6974 -9.8818,701.8181 -10.0269,706.8943 -10.1058,711.4022 -10.1488,716.1801 -10.1721,721.1048 -10.1848,726.1095 -10.1918,731.1577 -10.1955,736.2317 -10.1976,741.3199 -10.1987,746.4135 -10.1993,751.51 -10.1996,756.6081 -10.1998,762.2884 -10.1999,768.2878 -10.7813,773.8794 -11.679,779.2468 -12.1674,784.4922 -12.4331,789.6714 -12.5776,794.8144 -12.6562,799.9401 -12.699,806.2192 -12.7222,813.1234 -12.7349,819.7863 -12.7418,826.3179 -12.7455,832.199 -12.7476,837.7262 -13.3301,843.0586 -14.2284,848.8664 -14.717,854.9328 -14.9829,860.5586 -15.1275,865.9469 -15.2061,871.7874 -15.2489,877.8716 -15.2722,883.507 -15.2849,889.4797 -15.2918,895.6381 -15.2955,901.8976 -15.2976,908.2097 -15.2987,913.9691 -15.2993,920.0092 -15.2996,926.2043 -15.2998,931.9024 -15.2999,937.9091 -15.2999,944.0837 -15.3,949.7684 -15.3,955.7701 -15.3,961.9443 -15.3,968.21 -15.3,974.5256 -15.3,980.2869 -15.3,986.3303 -15.3,992.5272 -15.3,998.8053 -15.3,1005.1276 -15.3,1011.4739 -15.3,1018.417 -15.3,1025.6847 -15.3,1033.1268 -15.3,1040.0822 -14.7186,1046.1916 -13.8209,1052.4244 -13.3326,1059.3057 -13.0669,1065.9561 -12.9224,1072.481 -12.8438,1078.9375 -12.801,1085.3591 -12.7778,1091.7618 -12.7651,1098.1518 -12.7582,1104.535 -12.7545,1110.9144 -12.7524,1117.2941 -12.7513,1123.674 -12.7507,1130.0516 -12.7504,1136.428 -12.7502,1142.8038 -12.7501,1148.6001 -12.7501,1154.6626 -12.75,1160.8676 -12.75,1167.1501 -12.75,1173.4748 -12.75,1179.8247 -12.75,1186.1883 -12.75,1191.9757 -12.75,1197.4497 -12.75,1203.3345 -12.75,1209.4451 -12.75,1215.0972 -12.75,1220.4975 -12.75,1225.7609 -12.1686,1230.9498 -11.2709,1237.2609 -10.7826,1244.1849 -10.5169,1250.2794 -10.3724,1255.9204 -10.2938,1261.3147 -10.251,1267.1562 -9.6464,1273.2432 -8.736,1278.8825 -8.2408,1284.2758 -7.9714,1290.1168 -7.2434,1296.7827 -6.266,1303.316 -5.7343,1309.7793 -5.4451,1316.7861 -4.7063,1323.5047 -3.723,1330.0667 -3.1881,1336.5457 -2.8971,1342.3981 -2.7388,1347.9075 -2.6527,1352.6487 -2.6059,1357.5536 -1.999,1363.7102 -1.0875,1369.9687 -0.5916,1375.7012 -0.3218,1381.7267 -0.1751,1387.9116 -0.0952,1393.6017 -0.0518,1399.0228 -0.0282,1404.8811 -0.0153,1410.9773 -0.0083,1416.6193 -0.0045,1422.0141 -0.0025,1427.8559 -0.0013,1433.3617 -0.0007,1438.1033 -0.0004,1443.5898 -0.0002,1450.0628 -0.0001,1457.0725 -0.0001,1464.3765 0,1471.8405 0,1479.3894 0,1486.9843 0,1494.6067 0,1502.2439 0,1509.887 0,1517.5332 0,1524.0183 0,1529.2927 -0.5814,1533.9085 -1.4791,1538.1637 -1.9674,1542.2227 -2.2331,1546.7564 -2.3776,1552.7111 -2.4562,1558.8598 -3.0804,1565.1139 -4.0013,1571.4232 -4.5023,1577.7624 -4.7749,1583.5365 -4.9231,1589.0056 -5.0038,1594.3086 -5.6291,1598.9376 -6.5506,1603.2 -7.0519,1607.263 -7.4393,1612.0538 L-7.65,1614.66 " stroke-linecap="round" fill="none" stroke="#9398b0" stroke-width="7.652417451880974" stroke-dasharray="none" stroke-dashoffset="0"/></g></g><g transform="matrix(1, 0, 0, 1, -84.7898, 2891.2006) scale(2.550805817293658, 2.550805817293658)" opacity="1"><g transform="scale(0.39203297766545603)"><path d="M2.55,0 Q8.364,1.1628 10.5291,1.4791 T15.0348,2.5488 19.8115,3.7122 24.1542,4.345 27.6794,5.2707 31.3414,6.3557 35.0777,6.9459 38.273,7.8484 41.7578,8.9207 45.3999,10.0855 49.1255,11.3005 52.8964,11.9615 56.692,12.9024 60.5009,13.9957 64.3172,14.5905 68.7189,14.914 73.4413,15.09 78.3381,15.1858 83.3276,15.2379 88.3675,15.2662 93.4348,15.2816 98.517,15.29 103.0259,15.2946 106.6439,14.7156 110.3585,13.8193 114.7049,13.3317 119.3949,12.485 123.6905,11.4431 127.7714,10.8762 131.7357,10.5679 135.6387,10.4001 139.5085,10.3089 143.3578,10.2592 147.7774,10.2322 152.5073,10.2175 157.406,10.2095 162.3965,10.2052 167.4392,10.2028 173.0917,9.6201 178.4922,8.7218 183.1743,8.233 188.047,7.9672 193.0233,7.8225 197.4746,7.1625 201.0612,6.222 204.7588,5.7104 209.0959,5.432 213.1995,5.2806 217.1761,5.1983 221.0835,4.5721 224.9533,3.65 228.8027,3.1484 232.6433,2.8755 236.479,2.7271 240.3099,2.0649 244.1381,1.1233 247.9648,0.6111 252.3721,0.3324 256.5139,0.1808 259.9298,0.0984 263.5346,0.0535 267.8235,0.0291 271.9008,0.0158 275.8631,0.0086 279.7628,0.0047 283.6284,0.0025 288.0569,0.0014 292.2102,0.0008 296.2161,0.0004 300.1417,-0.5812 304.0215,-1.479 307.8763,-1.9674 311.7175,-2.233 315.5513,-2.3776 319.3811,-2.4562 323.7901,-3.0804 327.9351,-4.0013 331.9365,-4.5023 335.8574,-4.7749 339.7346,-4.9231 343.588,-5.0038 347.4284,-5.0477 351.8432,-5.0715 357.1542,-5.0845 362.3712,-5.0916 366.9534,-5.0954 371.1904,-5.0975 374.6581,-5.0986 378.2887,-5.0993 382.008,-5.0996 385.7755,-5.0998 389.5692,-5.0999 393.9608,-5.0999 399.2592,-5.1 404.4671,-5.1 409.6258,-5.1 415.3391,-5.1 420.775,-5.1 425.4787,-5.1 430.363,-5.1 435.9271,-5.1 441.2796,-5.1 446.5169,-5.1 452.8567,-5.1 459.7963,-5.1 467.0598,-5.1 473.9181,-5.1 480.5583,-5.1 486.4985,-5.1 492.0555,-5.1 498.567,-5.1 505.5976,-5.1 512.9129,-5.1 519.2204,-5.1 524.9772,-5.1 530.4345,-5.1 535.1475,-5.1 540.037,-5.1 545.6061,-5.1 552.1264,-5.1 557.999,-5.1 563.5194,-5.1 570.0108,-5.1 575.8678,-5.1 580.8004,-5.1 586.3931,-5.1 591.7611,-5.1 595.8441,-5.1 599.8094,-5.1 604.2922,-5.6814 609.6401,-6.5791 616.04,-7.0674 623.01,-7.3331 629.1272,-7.4776 634.7806,-7.5562 641.3467,-7.599 647.2466,-7.6222 652.7817,-7.6349 658.1184,-7.6418 662.7658,-7.6455 667.0381,-7.6476 670.5251,-8.2301 674.7499,-9.1284 679.3761,-9.617 684.2183,-9.8829 689.1781,-10.0275 693.6204,-10.1061 697.7812,-10.1489 701.7889,-10.1722 706.297,-10.1849 711.6586,-10.1918 717.4824,-10.1955 723.5575,-10.1976 729.7694,-10.1987 736.0579,-10.1993 742.9695,-10.1996 749.0551,-10.1998 754.6912,-10.1999 761.2457,-10.1999 767.1369,-10.2 772.0882,-10.2 776.5282,-10.2 780.6877,-10.2 785.8575,-10.2 792.1583,-10.2 797.9115,-10.2 803.3691,-10.2 809.2474,-10.2 815.3521,-10.2 821.5801,-10.2 826.7123,-9.6186 831.8322,-8.7209 838.108,-8.2326 844.4291,-7.9669 850.1933,-7.8224 855.0733,-7.7438 860.0536,-7.701 866.2536,-7.6778 872.5356,-7.6651 878.2787,-7.6582 883.1471,-7.0731 887.5397,-6.1733 892.2549,-5.6839 896.5664,-5.4176 900.6584,-5.2728 904.6286,-5.194 908.5326,-5.1511 913.5634,-5.1278 919.2071,-5.1151 924.6029,-5.1082 930.4475,-5.1045 936.5362,-5.1024 942.1741,-5.1013 946.9853,-5.1007 951.3468,-5.1004 956.6287,-5.1002 962.4114,-4.5187 968.4642,-3.621 974.6639,-3.1326 980.3621,-2.8669 986.9526,-2.7224 994.6099,-2.6438 1001.6825,-2.601 1008.437,-2.5778 1015.5999,-2.5651 1022.9871,-2.5582 1029.3337,-2.5545 1034.5304,-2.5524 1039.683,-2.5513 1044.2302,-2.5507 1049.0295,-2.5504 1053.9682,-2.5502 1058.9828,-2.5501 1065.1991,-2.5501 1072.0691,-1.9686 1078.132,-1.0709 1083.1745,-0.5826 1088.8268,-0.3169 1094.2296,-0.1724 1099.4943,-0.0938 1104.6839,-0.051 1109.8326,-0.0278 1115.5428,-0.0151 1121.5585,-0.0082 1128.3194,-0.0045 1134.9043,-0.0024 1140.2307,0.5801 1145.4561,1.4784 1151.7895,1.967 1158.7232,2.2329 1164.8207,2.3775 1170.4634,2.4561 1176.44,2.4989 1182.0192,2.5222 1187.9635,2.5349 1194.6856,2.5418 1201.8309,2.5455 1208.0435,2.5476 1213.1696,2.5487 1217.7047,2.5493 1222.4974,2.5496 1227.4302,2.5498 1232.4393,2.5499 1237.4898,2.5499 1242.5652,2.55 1247.6541,2.55 1251.5852,2.55 1256.0494,2.55 1261.3848,2.55 1266.613,2.55 1272.3663,2.55 1277.824,2.55 1283.1186,2.55 1288.3245,2.55 1292.9007,2.55 1297.7157,2.55 1302.0793,2.55 1306.781,2.55 1312.8294,2.55 1319.6081,2.55 1325.6213,2.55 1330.0553,2.55 1334.793,2.55 1340.2796,2.55 1346.1736,2.55 1351.7055,2.55 1356.4591,2.55 1361.3706,2.55 1365.7867,2.55 1370.5169,2.55 1375.9994,2.55 1381.8889,2.55 1387.4184,2.55 1392.7521,2.55 1398.5606,2.55 1404.0483,2.55 1408.7801,2.55 1413.6798,2.55 1419.2522,2.55 1424.6092,2.55 1430.4327,2.55 1437.0913,2.55 1443.6206,2.55 1449.4982,2.55 1455.6026,2.55 1461.8304,2.55 1467.5462,1.9686 1472.402,1.0709 1477.9506,0.5826 1484.4575,0.3169 1490.3228,0.1724 1496.4228,0.0938 1502.6505,0.051 1508.3639,0.0278 1514.43,0.0098 L1517.73,0 " stroke-linecap="round" fill="none" stroke="#9398b0" stroke-width="7.652417451880974" stroke-dasharray="none" stroke-dashoffset="0"/></g></g><g transform="matrix(1, 0, 0, 1, 483.6069, 2879.5763) scale(2.097428658321803, 2.097428658321803)" opacity="1"><g transform="scale(0.4767742616810247)"><path d="M0,0 Q1.9106,2.8682 2.4303,4.606 T3.2327,8.2444 3.6693,12.1366 4.0065,16.5041 L4.19,18.88 " stroke-linecap="round" fill="none" stroke="#9398b0" stroke-width="6.292285974965409" stroke-dasharray="none" stroke-dashoffset="0"/></g></g><g transform="matrix(1, 0, 0, 1, 330.4946, 2877.4789) scale(2.097428658321803, 2.097428658321803)" opacity="1"><g transform="scale(0.4767742616810247)"><path d="M0,0 Q0.9576,4.7834 0.7393,6.5611 T0.4022,9.7845 0.2188,12.4956 0.0771,15.2705 L0,16.78 " stroke-linecap="round" fill="none" stroke="#9398b0" stroke-width="6.292285974965409" stroke-dasharray="none" stroke-dashoffset="0"/></g></g><g transform="matrix(1, 0, 0, 1, 166.8952, 2885.8686) scale(2.097428658321803, 2.097428658321803)" opacity="1"><g transform="scale(0.4767742616810247)"><path d="M0,0 Q-0.9576,2.8682 -1.2181,4.1272 T-1.6202,6.5498 -1.839,7.8678 -1.958,7.6271 -2.0228,6.5386 -2.058,4.9911 -2.0771,3.194 -2.0876,1.2587 -2.0932,-0.7494 -2.0963,-1.8418 -2.098,-1.4807 -2.0989,0.1498 -2.0994,2.4709 -2.0997,5.6465 -2.0998,9.287 -2.0999,12.7799 L-2.1,14.68 " stroke-linecap="round" fill="none" stroke="#9398b0" stroke-width="6.292285974965409" stroke-dasharray="none" stroke-dashoffset="0"/></g></g><g transform="matrix(1, 0, 0, 1, 653.4986, 2726.464) scale(2.097428658321803, 2.097428658321803)" opacity="1"><g transform="scale(0.4767742616810247)"><path d="M0,0 Q-1.9106,0 -3.3879,0 T-6.6242,0 -9.8188,0 -12.0355,-0.4788 -13.7483,-1.5288 L-14.68,-2.1 " stroke-linecap="round" fill="none" stroke="#9398b0" stroke-width="6.292285974965409" stroke-dasharray="none" stroke-dashoffset="0"/></g></g><g transform="matrix(1, 0, 0, 1, 659.7909, 2569.1569) scale(2.097428658321803, 2.097428658321803)" opacity="1"><g transform="scale(0.4767742616810247)"><path d="M0,0 Q-4.7834,0.9576 -6.5611,1.2181 T-10.7421,1.6202 -15.4083,1.3602 -20.3705,0.4792 L-23.07,0 " stroke-linecap="round" fill="none" stroke="#9398b0" stroke-width="6.292285974965409" stroke-dasharray="none" stroke-dashoffset="0"/></g></g><g transform="matrix(1, 0, 0, 1, 653.4986, 2405.5574) scale(2.097428658321803, 2.097428658321803)" opacity="1"><g transform="scale(0.4767742616810247)"><path d="M0,0 Q-5.7365,0 -8.2544,0 T-13.7762,0 L-16.78,0 " stroke-linecap="round" fill="none" stroke="#9398b0" stroke-width="6.292285974965409" stroke-dasharray="none" stroke-dashoffset="0"/></g></g><g transform="matrix(1, 0, 0, 1, 657.6935, 2246.1529) scale(2.097428658321803, 2.097428658321803)" opacity="1"><g transform="scale(0.4767742616810247)"><path d="M0,0 Q-5.7365,0 -8.2544,0 T-12.6209,0 -16.6747,0 L-18.88,0 " stroke-linecap="round" fill="none" stroke="#9398b0" stroke-width="6.292285974965409" stroke-dasharray="none" stroke-dashoffset="0"/></g></g><g transform="matrix(1, 0, 0, 1, 330, 2720) scale(4.352397815943052, 4.352397815943052)" opacity="0.5"><path fill="#2a3642" d="M0,185.13572864924495 a183.42874579279362,185.13572864924495,0,1,1,366.85749158558724,0a183.42874579279362,185.13572864924495,0,1,1,-366.85749158558724,0 "/><path d="M0,185.13572864924495 a183.42874579279362,185.13572864924495,0,1,1,366.85749158558724,0a183.42874579279362,185.13572864924495,0,1,1,-366.85749158558724,0 " stroke="#4dabf7" stroke-width="2" fill="none"/></g><g transform="matrix(1, 0, 0, 1, 804.3155, 2863.9086) scale(2.8622405767251706, 2.8622405767251706)" opacity="1"><g transform="scale(0.3493766415484714)"><path d="M0,0 Q0,6.5254 0,8.9523 T0,14.6581 0,21.0247 0,27.0988 0,33.6475 L0,37.21 " stroke-linecap="round" fill="none" stroke="#9398b0" stroke-width="8.586721730175512" stroke-dasharray="none" stroke-dashoffset="0"/></g></g><g transform="matrix(1, 0, 0, 1, 958.8765, 2875.3575) scale(2.8622405767251706, 2.8622405767251706)" opacity="1"><g transform="scale(0.3493766415484714)"><path d="M0,0 Q1.3042,5.2212 1.6589,7.9455 T2.2066,15.4146 2.6298,25.8196 L2.86,31.48 " stroke-linecap="round" fill="none" stroke="#9398b0" stroke-width="8.586721730175512" stroke-dasharray="none" stroke-dashoffset="0"/></g></g><g transform="matrix(1, 0, 0, 1, 1122.0242, 2866.7708) scale(2.8622405767251706, 2.8622405767251706)" opacity="1"><g transform="scale(0.3493766415484714)"><path d="M0,2.86 Q-1.3042,11.9982 -1.6589,16.4401 T-2.2066,23.9526 -2.6298,30.6867 L-2.86,34.35 " stroke-linecap="round" fill="none" stroke="#9398b0" stroke-width="8.586721730175512" stroke-dasharray="none" stroke-dashoffset="0"/></g></g><g transform="matrix(1, 0, 0, 1, 1110.5753, 2789.4903) scale(2.8622405767251706, 2.8622405767251706)" opacity="1"><g transform="scale(0.3493766415484714)"><path d="M0,0 Q5.2212,-1.3042 7.2934,-1.0068 T11.7994,0.1044 15.5571,2.6674 16.947,5.3681 16.3966,7.4894 14.1409,9.2954 12.2618,10.93 11.8916,13.1234 12.9944,15.623 15.5528,18.2892 17.599,21.6959 18.7121,25.5054 18.6633,28.8842 16.0261,31.3766 11.9809,32.7325 7.8218,33.4701 2.9509,33.217 -2.665,32.092 L-5.72,31.48 " stroke-linecap="round" fill="none" stroke="#9398b0" stroke-width="8.586721730175512" stroke-dasharray="none" stroke-dashoffset="0"/></g></g><g transform="matrix(1, 0, 0, 1, 644.03, 3049.9542) scale(2.8622405767251706, 2.8622405767251706)" opacity="1"><g transform="scale(0.3493766415484714)"><path fill="#33373c" d="M-3.2627,0 Q-6.5254,0 -8.9523,-0.6521 T-12.0475,-1.6589 -11.1207,-2.2066 -8.0059,-2.5045 -5.0073,-3.3187 -1.4198,-4.4137 3.2044,-5.2597 2.86,-2.86 -3.2627,0 Z"/><path d="M-3.2627,0 Q-6.5254,0 -8.9523,-0.6521 T-12.0475,-1.6589 -11.1207,-2.2066 -8.0059,-2.5045 -5.0073,-3.3187 -1.4198,-4.4137 3.2044,-5.2597 2.86,-2.86 -3.2627,0 Z" stroke-linecap="round" fill="none" stroke="#9398b0" stroke-width="8.586721730175512" stroke-dasharray="none" stroke-dashoffset="0"/></g></g><g transform="matrix(1, 0, 0, 1, 543.8516, 2217.0422) scale(2.8622405767251706, 2.8622405767251706)" opacity="1"><g transform="scale(0.3493766415484714)"><path d="M0,0 Q-1.3042,6.5254 -1.6589,8.9523 T-2.2066,14.006 -1.8525,18.0617 -0.3557,20.92 2.4171,23.7791 6.5361,25.9866 10.7331,26.5353 14.3227,25.5297 18.0256,23.8265 L20.04,22.9 " stroke-linecap="round" fill="none" stroke="#9398b0" stroke-width="8.586721730175512" stroke-dasharray="none" stroke-dashoffset="0"/></g></g><g transform="matrix(1, 0, 0, 1, 561.0251, 2214.1799) scale(2.8622405767251706, 2.8622405767251706)" opacity="1"><g transform="scale(0.3493766415484714)"><path d="M0,0 Q1.3042,7.8295 1.6589,11.2656 T2.2066,17.875 2.5045,24.0812 2.6666,30.0679 2.7548,35.281 3.4549,40.0754 4.9219,45.6354 L5.72,48.66 " stroke-linecap="round" fill="none" stroke="#9398b0" stroke-width="8.586721730175512" stroke-dasharray="none" stroke-dashoffset="0"/></g></g><g transform="matrix(1, 0, 0, 1, 586.7852, 2239.9401) scale(2.8622405767251706, 2.8622405767251706)" opacity="1"><g transform="scale(0.3493766415484714)"><path d="M0,0 Q0,6.5254 0.6521,8.3003 T2.311,11.6928 4.5198,14.1904 7.0279,14.897 9.892,14.5168 L11.45,14.31 " stroke-linecap="round" fill="none" stroke="#9398b0" stroke-width="8.586721730175512" stroke-dasharray="none" stroke-dashoffset="0"/></g></g><g transform="matrix(1, 0, 0, 1, 592.5097, 2205.5932) scale(2.8622405767251706, 2.8622405767251706)" opacity="1"><g transform="scale(0.3493766415484714)"><path fill="#33373c" d="M 0 2.86 m -0.5, 0 a 0.5,0.5 0 1,0 1,0 a 0.5,0.5 0 1,0 -1,0"/><path d="M 0 2.86 m -0.5, 0 a 0.5,0.5 0 1,0 1,0 a 0.5,0.5 0 1,0 -1,0" stroke-linecap="round" fill="#9398b0" stroke="#9398b0" stroke-width="8.586721730175512" stroke-dasharray="none" stroke-dashoffset="0"/></g></g><g transform="matrix(1, 0, 0, 1, 566.7496, 2735.1077) scale(2.8622405767251706, 2.8622405767251706)" opacity="1"><g transform="scale(0.3493766415484714)"><path d="M0,0 Q-1.3042,7.8295 -1.0068,9.9591 T0.7565,13.2473 3.9712,15.7879 L5.72,17.17 " stroke-linecap="round" fill="none" stroke="#9398b0" stroke-width="8.586721730175512" stroke-dasharray="none" stroke-dashoffset="0"/></g></g><g transform="matrix(1, 0, 0, 1, 572.474, 2675.0007) scale(2.8622405767251706, 2.8622405767251706)" opacity="1"><g transform="scale(0.3493766415484714)"><path d="M0,0 L2.86,8.59 " stroke-linecap="round" fill="none" stroke="#9398b0" stroke-width="8.586721730175512" stroke-dasharray="none" stroke-dashoffset="0"/></g></g><g transform="matrix(1, 0, 0, 1, 489.4691, 2809.526) scale(2.8622405767251706, 2.8622405767251706)" opacity="1"><g transform="scale(0.3493766415484714)"><path d="M0,0 Q2.6083,6.5254 3.3178,8.9523 T4.4132,15.3102 5.2596,23.9305 L5.72,28.62 " stroke-linecap="round" fill="none" stroke="#9398b0" stroke-width="8.586721730175512" stroke-dasharray="none" stroke-dashoffset="0"/></g></g><g transform="matrix(1, 0, 0, 1, 440.811, 2823.8372) scale(2.8622405767251706, 2.8622405767251706)" opacity="1"><g transform="scale(0.3493766415484714)"><path d="M0,-2.86 L11.45,0 " stroke-linecap="round" fill="none" stroke="#9398b0" stroke-width="8.586721730175512" stroke-dasharray="none" stroke-dashoffset="0"/></g></g><g transform="matrix(1, 0, 0, 1, 801.4533, 2798.077) scale(2.8622405767251706, 2.8622405767251706)" opacity="1"><g transform="scale(0.3493766415484714)"><path d="M0,0 Q1.3042,7.8295 1.0068,11.9177 T0.3547,20.8829 L0,25.76 " stroke-linecap="round" fill="none" stroke="#9398b0" stroke-width="8.586721730175512" stroke-dasharray="none" stroke-dashoffset="0"/></g></g><g transform="matrix(1, 0, 0, 1, 621.1321, 3201.6529) scale(2.8622405767251706, 2.8622405767251706)" opacity="1"><g transform="scale(0.3493766415484714)"><path d="M0,-2.86 Q6.5254,-2.86 10.2588,-3.5121 T17.3273,-4.5189 23.1289,-5.0666 26.937,-6.0189 29.8794,-7.6841 L31.48,-8.59 " stroke-linecap="round" fill="none" stroke="#9398b0" stroke-width="8.586721730175512" stroke-dasharray="none" stroke-dashoffset="0"/></g></g><g transform="matrix(1, 0, 0, 1, 561.0251, 3041.3675) scale(2.8622405767251706, 2.8622405767251706)" opacity="1"><g transform="scale(0.3493766415484714)"><path d="M0,0 Q7.8295,1.3042 12.4998,2.0821 L17.17,2.86 " stroke-linecap="round" fill="none" stroke="#9398b0" stroke-width="8.586721730175512" stroke-dasharray="none" stroke-dashoffset="0"/></g></g><g transform="matrix(1, 0, 0, 1, 601.0964, 3029.9185) scale(2.8622405767251706, 2.8622405767251706)" opacity="1"><g transform="scale(0.3493766415484714)"><path d="M0,0 Q-2.6083,5.2212 -3.9721,7.9455 T-6.0779,12.8062 -7.2234,16.7569 -6.5401,20.2102 -4.2099,22.7409 -1.6381,23.4655 1.0651,22.5556 4.0799,20.9263 L5.72,20.04 " stroke-linecap="round" fill="none" stroke="#9398b0" stroke-width="8.586721730175512" stroke-dasharray="none" stroke-dashoffset="0"/></g></g><g transform="matrix(1, 0, 0, 1, 601.0964, 2998.4339) scale(2.8622405767251706, 2.8622405767251706)" opacity="1"><g transform="scale(0.3493766415484714)"><path fill="#33373c" d="M 0 0 m -0.5, 0 a 0.5,0.5 0 1,0 1,0 a 0.5,0.5 0 1,0 -1,0"/><path d="M 0 0 m -0.5, 0 a 0.5,0.5 0 1,0 1,0 a 0.5,0.5 0 1,0 -1,0" stroke-linecap="round" fill="#9398b0" stroke="#9398b0" stroke-width="8.586721730175512" stroke-dasharray="none" stroke-dashoffset="0"/></g></g><g transform="matrix(1, 0, 0, 1, 618.2699, 3361.9384) scale(2.8622405767251706, 2.8622405767251706)" opacity="1"><g transform="scale(0.3493766415484714)"><path d="M0,0 Q6.5254,-1.3042 8.9523,-1.6589 T14.6581,-2.2066 20.3727,-3.1566 26.092,-4.3255 33.2928,-5.2287 L37.21,-5.72 " stroke-linecap="round" fill="none" stroke="#9398b0" stroke-width="8.586721730175512" stroke-dasharray="none" stroke-dashoffset="0"/></g></g><g transform="matrix(1, 0, 0, 1, 621.1321, 3522.2239) scale(2.8622405767251706, 2.8622405767251706)" opacity="1"><g transform="scale(0.3493766415484714)"><path d="M2.86,0 Q9.3854,1.3042 11.8146,1.6589 T17.1419,2.4368 L20.04,2.86 " stroke-linecap="round" fill="none" stroke="#9398b0" stroke-width="8.586721730175512" stroke-dasharray="none" stroke-dashoffset="0"/></g></g><g transform="matrix(1, 0, 0, 1, 520.9537, 3525.0861) scale(2.8622405767251706, 2.8622405767251706)" opacity="1"><g transform="scale(0.3493766415484714)"><path d="M0,0 Q7.8295,0 10.6135,0 T16.7187,0 L20.04,0 " stroke-linecap="round" fill="none" stroke="#9398b0" stroke-width="8.586721730175512" stroke-dasharray="none" stroke-dashoffset="0"/></g></g><g transform="matrix(1, 0, 0, 1, 558.1628, 3496.4637) scale(2.8622405767251706, 2.8622405767251706)" opacity="1"><g transform="scale(0.3493766415484714)"><path d="M0,0 Q0,7.8295 0,11.2656 T0,17.223 0,21.7679 1.3042,24.8925 3.9721,27.2443 7.382,29.1758 11.1933,29.5744 14.573,28.4871 17.718,26.5915 20.7331,23.6017 23.9889,19.4361 L25.76,17.17 " stroke-linecap="round" fill="none" stroke="#9398b0" stroke-width="8.586721730175512" stroke-dasharray="none" stroke-dashoffset="0"/></g></g><g transform="matrix(1, 0, 0, 1, 581.0608, 3493.6015) scale(2.8622405767251706, 2.8622405767251706)" opacity="1"><g transform="scale(0.3493766415484714)"><path d="M0,2.86 Q1.3042,10.6941 1.6589,14.1291 T1.5545,20.737 0.8457,26.9422 0.46,32.9285 0.2503,38.7956 -0.5159,43.9459 -1.5848,48.7038 -2.4107,54.2324 L-2.86,57.24 " stroke-linecap="round" fill="none" stroke="#9398b0" stroke-width="8.586721730175512" stroke-dasharray="none" stroke-dashoffset="0"/></g></g><g transform="matrix(1, 0, 0, 1, 601.0964, 3527.9484) scale(2.8622405767251706, 2.8622405767251706)" opacity="1"><g transform="scale(0.3493766415484714)"><path d="M0,2.86 Q-2.6083,8.0812 -3.3178,10.8078 T-3.7611,16.3218 -3.1775,22.4346 L-2.86,25.76 " stroke-linecap="round" fill="none" stroke="#9398b0" stroke-width="8.586721730175512" stroke-dasharray="none" stroke-dashoffset="0"/></g></g><g transform="matrix(1, 0, 0, 1, 595.372, 3505.0504) scale(2.8622405767251706, 2.8622405767251706)" opacity="1"><g transform="scale(0.3493766415484714)"><path fill="#33373c" d="M 2.86 0 m -0.5, 0 a 0.5,0.5 0 1,0 1,0 a 0.5,0.5 0 1,0 -1,0"/><path d="M 2.86 0 m -0.5, 0 a 0.5,0.5 0 1,0 1,0 a 0.5,0.5 0 1,0 -1,0" stroke-linecap="round" fill="#9398b0" stroke="#9398b0" stroke-width="8.586721730175512" stroke-dasharray="none" stroke-dashoffset="0"/></g></g><g transform="matrix(1, 0, 0, 1, 1119.162, 3527.9484) scale(2.8622405767251706, 2.8622405767251706)" opacity="1"><g transform="scale(0.3493766415484714)"><path fill="#33373c" d="M0.6521,-2.86 Q1.3042,-2.86 1.0068,-2.2079 T-0.7565,-1.2011 -3.6742,-1.3055 -6.5679,-3.3208 -8.142,-5.7235 -7.0399,-7.6827 -3.8297,-9.4006 -0.1271,-10.3351 3.1935,-9.5371 5.6543,-6.4923 6.3386,-3.5318 4.7524,-1.9213 1.9332,-1.0452 -0.9046,-1.8727 -4.0234,-4.3645 -2.86,-4.29 0.6521,-2.86 Z"/><path d="M0.6521,-2.86 Q1.3042,-2.86 1.0068,-2.2079 T-0.7565,-1.2011 -3.6742,-1.3055 -6.5679,-3.3208 -8.142,-5.7235 -7.0399,-7.6827 -3.8297,-9.4006 -0.1271,-10.3351 3.1935,-9.5371 5.6543,-6.4923 6.3386,-3.5318 4.7524,-1.9213 1.9332,-1.0452 -0.9046,-1.8727 -4.0234,-4.3645 -2.86,-4.29 0.6521,-2.86 Z" stroke-linecap="round" fill="none" stroke="#9398b0" stroke-width="8.586721730175512" stroke-dasharray="none" stroke-dashoffset="0"/></g></g><g transform="matrix(1, 0, 0, 1, 1073.3661, 3462.1168) scale(2.8622405767251706, 2.8622405767251706)" opacity="1"><g transform="scale(0.3493766415484714)"><path d="M0,0 Q6.5254,1.3042 10.4177,2.0821 L14.31,2.86 " stroke-linecap="round" fill="none" stroke="#9398b0" stroke-width="8.586721730175512" stroke-dasharray="none" stroke-dashoffset="0"/></g></g><g transform="matrix(1, 0, 0, 1, 1110.5753, 3433.4944) scale(2.8622405767251706, 2.8622405767251706)" opacity="1"><g transform="scale(0.3493766415484714)"><path d="M0,0 Q-1.3042,6.5254 -2.311,9.6067 T-3.2134,15.0164 -2.4002,19.2634 -0.0015,22.2258 3.9139,23.8374 8.0025,24.062 12.0877,23.3094 L14.31,22.9 " stroke-linecap="round" fill="none" stroke="#9398b0" stroke-width="8.586721730175512" stroke-dasharray="none" stroke-dashoffset="0"/></g></g><g transform="matrix(1, 0, 0, 1, 1127.7487, 3433.4944) scale(2.8622405767251706, 2.8622405767251706)" opacity="1"><g transform="scale(0.3493766415484714)"><path d="M0,0 Q0,7.8295 0,10.6135 T-0.6521,16.2161 -2.311,21.8723 -3.8655,27.5599 -4.7111,33.2645 -5.1712,39.6305 -5.5266,47.3309 L-5.72,51.52 " stroke-linecap="round" fill="none" stroke="#9398b0" stroke-width="8.586721730175512" stroke-dasharray="none" stroke-dashoffset="0"/></g></g><g transform="matrix(1, 0, 0, 1, 1142.0599, 3467.8413) scale(2.8622405767251706, 2.8622405767251706)" opacity="1"><g transform="scale(0.3493766415484714)"><path d="M0,0 Q-1.3042,5.2212 -1.0068,7.2934 T0.1044,9.8409 2.6674,9.9226 6.5033,9.0595 L8.59,8.59 " stroke-linecap="round" fill="none" stroke="#9398b0" stroke-width="8.586721730175512" stroke-dasharray="none" stroke-dashoffset="0"/></g></g><g transform="matrix(1, 0, 0, 1, 1153.5089, 3436.3567) scale(2.8622405767251706, 2.8622405767251706)" opacity="1"><g transform="scale(0.3493766415484714)"><path fill="#33373c" d="M 2.86 0 m -0.5, 0 a 0.5,0.5 0 1,0 1,0 a 0.5,0.5 0 1,0 -1,0"/><path d="M 2.86 0 m -0.5, 0 a 0.5,0.5 0 1,0 1,0 a 0.5,0.5 0 1,0 -1,0" stroke-linecap="round" fill="#9398b0" stroke="#9398b0" stroke-width="8.586721730175512" stroke-dasharray="none" stroke-dashoffset="0"/></g></g><g transform="matrix(1, 0, 0, 1, 1024.708, 3430.6322) scale(2.8622405767251706, 2.8622405767251706)" opacity="1"><g transform="scale(0.3493766415484714)"><path d="M0,-2.86 Q6.5254,1.0525 8.9523,2.771 T12.6996,6.0766 14.7381,9.1789 15.195,12.1708 13.4873,15.1048 11.2541,18.0073 11.3434,20.8905 12.6962,23.7631 14.0842,25.9778 16.1457,28.4891 18.5736,31.8137 20.5464,35.5786 21.6197,39.5852 20.8971,42.4191 18.5454,44.6129 15.3099,46.4584 11.5913,47.4623 7.6098,47.3564 2.6812,46.3484 L0,45.8 " stroke-linecap="round" fill="none" stroke="#9398b0" stroke-width="8.586721730175512" stroke-dasharray="none" stroke-dashoffset="0"/></g></g></svg>