<svg xmlns="http://www.w3.org/2000/svg" direction="ltr" width="541.1573744159705" height="350.68334399954983" viewBox="881.5054209783441 10806.467369044281 541.1573744159705 350.68334399954983" stroke-linecap="round" stroke-linejoin="round" style="background-color: transparent;"><defs/><g transform="matrix(1, 0, 0, 1, 918.416, 10882.0778)" opacity="1"><path d="M0,118.96112429634468 a120.79198175314752,118.96112429634468,0,1,1,241.58396350629505,0a120.79198175314752,118.96112429634468,0,1,1,-241.58396350629505,0 " stroke="#9398b0" stroke-width="3.5" fill="none"/></g><g transform="matrix(1, 0, 0, 1, 1039.9538, 10885.7607)" opacity="1"><g transform="scale(1)"><path d="M1.9452,-0.3897 T2.2288,1.0642 2.7626,5.2848 3.0786,10.6004 3.1643,15.3383 3.1905,19.7585 3.441,24.4624 4.0266,30.0136 4.4112,35.3142 4.4703,39.6356 4.4992,44.0918 4.5205,48.5854 4.5355,52.9355 4.5472,57.2471 4.5608,61.5479 4.5767,66.1355 4.5893,70.5141 4.6036,74.8346 4.6197,79.29 4.6324,83.6308 4.2797,87.8863 3.72,92.2974 3.4923,96.9772 3.0033,101.5876 2.4366,105.9555 2.3054,110.0939 2.2751,114.3548 1.9083,118.5975 1.3507,123.0904 1.1343,127.7728 1.108,132.6982 1.1083,138.0585 1.1179,142.8058 1.128,146.9354 1.1428,151.6286 1.1618,157.3311 1.6074,162.9939 2.1845,168.149 2.3636,173.1919 2.4145,177.9869 2.4316,182.7129 2.4387,187.1271 2.4425,191.4552 2.4453,195.9151 2.4504,200.2497 2.8965,204.6932 3.4772,209.0329 3.6569,213.4964 3.9333,218.2936 4.4678,222.7378 4.837,227.076 4.9182,232.8047 4.9225,237.7951 4.9157,239.3843 A2.4557,2.4557 0 0 1 0.0043,239.3957 T-0.0099,237.8065 -0.0558,232.8592 -0.1484,227.3329 -0.7375,222.5279 -1.2783,217.9005 -1.3181,213.6202 -1.5769,208.3758 -2.13,202.8013 -2.4486,198.1879 -2.4445,193.8063 -2.4421,189.204 -2.4406,184.8494 -2.4428,180.3402 -2.4606,175.8215 -2.5351,171.2813 -2.7547,166.8248 -3.2728,162.5783 -3.6248,158.3021 -3.6112,153.9445 -3.5959,149.437 -3.5819,144.9373 -3.5665,140.4015 -3.5473,135.2429 -3.5106,129.9878 -3.3123,124.5307 -2.6986,118.9927 -2.2407,114.3183 -2.1816,109.9792 -1.9908,105.5008 -1.398,101.1822 -0.9111,96.8549 -0.7172,92.2762 -0.1418,87.9518 0.2876,83.6308 0.3003,79.2901 0.3164,74.8346 0.3307,70.5141 0.3433,66.1355 0.3592,61.548 0.3726,57.2473 0.3838,52.9362 0.3969,48.5875 0.4114,44.0995 0.416,39.6597 0.3874,35.4105 0.1497,30.7363 -0.4036,25.1097 -0.7482,19.7745 -0.7682,15.3867 -0.8486,10.7586 -1.1308,5.7939 -1.6471,1.84 -1.9452,0.3897 A1.9839,1.9839 0 0 1 1.9452,-0.3897 Z" stroke-linecap="round" fill="#9398b0"/></g></g><g transform="matrix(1, 0, 0, 1, 913.5054, 10997.4772)" opacity="1"><g transform="scale(1)"><path d="M0.476,-2.3761 T1.9245,-2.0676 5.8437,-1.4808 10.657,-1.1522 15.5197,-1.0992 20.9489,-0.7293 26.2886,-0.1677 30.8199,0.0312 35.4147,0.0219 40.5676,-0.0085 45.9454,-0.0459 51.0772,-0.0861 56.3105,-0.1229 61.7929,-0.1537 67.2354,-0.6066 72.7431,-1.2242 77.8175,-1.4376 82.3147,-1.489 86.7942,-1.5205 91.8244,-1.1961 96.7649,-0.6596 101.2618,-0.4392 105.9457,-0.4214 111.2681,-0.4384 116.6739,-0.4569 121.4544,-0.1281 125.723,0.3833 130.7418,0.6265 136.5776,0.7012 142.103,0.7078 147.3379,0.7071 152.4208,0.7051 157.4496,0.7012 162.1431,0.2716 166.4711,-0.2974 171.5327,-0.4853 176.7842,-0.5383 181.7425,-0.5512 187.4155,-0.5636 193.0691,-1.0083 197.871,-1.5824 202.1194,-1.7597 206.8418,-1.8157 211.8044,-2.3547 216.1643,-3.1378 220.252,-3.7603 224.8616,-4.2166 229.8827,-4.3242 235.0997,-4.3414 240.5796,-4.3407 246.2607,-4.2797 249.21,-4.2215 A2.9915,2.9915 0 0 1 249.21,1.7615 T246.2609,1.8198 240.5803,1.8814 235.1062,1.886 229.9288,1.8957 225.1805,1.9714 220.5062,2.5776 215.8903,3.2404 211.599,3.8313 206.9261,4.3059 202.2795,4.3409 197.4665,4.5373 192.5448,5.0985 187.4164,5.4843 181.7477,5.4756 176.8068,5.4759 171.6979,5.5132 166.4541,5.7116 161.9791,6.2684 157.4495,6.6587 152.42,6.6543 147.3348,6.6503 142.0935,6.643 136.54,6.6254 131.4501,6.5743 126.9914,6.3983 121.9839,5.8227 116.6735,5.3765 111.265,5.3561 105.9239,5.3255 101.0947,5.2505 96.7077,5.0323 91.9154,4.4338 86.7965,3.9817 82.3262,3.9573 77.9018,3.9549 73.2744,4.0758 68.7186,4.6411 63.6423,5.0809 58.129,5.0541 52.7577,5.0187 47.7307,4.9809 43.3424,4.947 38.9658,4.9166 34.1247,4.8776 29.127,4.7912 24.0825,4.1432 19.0397,3.5523 13.9877,3.5378 8.9326,3.4595 4.4592,3.157 0.9797,2.6494 -0.476,2.3761 A2.4233,2.4233 0 0 1 0.476,-2.3761 Z" stroke-linecap="round" fill="#9398b0"/></g></g><g transform="matrix(1, 0, 0, 1, 1117.296, 10997.4772)" opacity="1"><g transform="scale(1)"><path d="M0,0 Q0,-3.3607 0,-4.8334 T0,-7.6682 0,-10.6102 0,-13.3302 0,-15.6488 0,-18.0297 0,-20.4444 0.2804,-22.8774 0.7134,-25.6009 0.949,-28.4824 1.0771,-31.1694 1.1468,-33.4702 1.4652,-35.5609 1.9188,-37.8177 2.1656,-39.8867 2.2998,-42.1317 2.3729,-44.7529 2.4126,-47.0179 2.4342,-48.8087 2.7241,-50.3437 3.16,-52.0178 3.3971,-54.048 3.8066,-55.9938 4.3097,-57.8913 4.5835,-60.043 4.7324,-62.333 4.8134,-64.6983 4.8574,-66.8263 4.8814,-68.823 4.8944,-71.0287 4.6211,-73.348 4.0116,-75.9335 L3.68,-77.34 " stroke-linecap="round" fill="none" stroke="#9398b0" stroke-width="4.5" stroke-dasharray="9 9" stroke-dashoffset="0"/></g></g><g transform="matrix(1, 0, 0, 1, 1122.2066, 10921.3627)" opacity="1"><g transform="scale(1)"><path d="M-1.23,0 Q-4.5862,-0.5609 -6.0599,-0.7134 T-8.894,-0.949 -11.2748,-1.0771 -13.4112,-0.8664 -15.4125,-0.4713 -17.0598,-0.2564 -18.7973,-0.1395 -20.5837,0.2046 -22.1142,0.6722 -23.7858,0.9265 -25.8146,1.0649 -28.0378,1.1402 -30.0885,1.4616 -31.7627,1.9169 -33.2321,2.1645 -34.8727,2.2993 -36.8847,2.3726 -39.0987,2.4124 -41.1445,2.4341 -42.816,2.4459 -44.5643,2.4523 -46.3567,2.1754 -47.8904,1.7443 -49.5637,1.5098 -51.3153,1.3822 -52.8268,1.3128 -54.4881,1.275 -56.2332,1.2545 -57.7434,1.5238 -59.1235,1.9507 -60.7134,2.1829 -62.4195,2.3093 -63.9063,2.378 -65.5542,2.4154 -67.2919,2.4357 -68.7958,2.4468 -70.7335,2.4528 -73.4255,2.4575 L-74.89,2.46 " stroke-linecap="round" fill="none" stroke="#9398b0" stroke-width="4.5" stroke-dasharray="9 9" stroke-dashoffset="0"/></g></g><g transform="matrix(1, 0, 0, 1, 1042.4091, 11001.1602)" opacity="1"><g transform="scale(1)"><path d="M0,0 Q1.6781,-2.239 2.415,-3.1284 T3.8331,-4.7821 5.1655,-6.5208 6.4489,-8.5861 7.7057,-10.5487 9.2307,-12.1749 10.8993,-13.9009 12.6461,-15.6789 14.4377,-17.2047 16.2513,-19.1565 18.3575,-21.3378 20.6227,-23.3634 22.694,-25.3067 24.3816,-26.9225 25.8606,-28.36 27.2238,-29.7029 28.8044,-30.9944 30.5055,-32.2555 31.9896,-33.5001 33.3555,-34.7381 34.6594,-35.9725 36.2078,-37.483 37.8892,-39.1437 39.3647,-40.6081 40.7283,-41.9656 42.3091,-43.2626 44.0081,-44.5268 45.7737,-46.0559 47.5732,-47.7267 49.1107,-49.1943 50.7885,-50.5535 52.2621,-51.8538 53.3418,-52.8416 54.4878,-53.9375 55.6721,-55.3728 56.8773,-56.7144 58.0938,-58.0052 59.5946,-59.2659 61.25,-60.5104 62.9897,-61.7483 64.7751,-62.9825 66.0268,-64.2126 66.9881,-65.4403 68.072,-66.6691 69.2202,-67.8984 70.4034,-69.4062 71.608,-70.7851 72.8241,-71.8156 74.0443,-72.9371 75.5472,-74.1058 77.505,-75.4038 L78.57,-76.11 " stroke-linecap="round" fill="none" stroke="#9398b0" stroke-width="4.5" stroke-dasharray="9 9" stroke-dashoffset="0"/></g></g><g transform="matrix(1, 0, 0, 1, 1070.5137, 10998.2855)" opacity="1"><g transform="scale(1)"><path d="M0,0 Q0.8618,-2.1614 0.8819,-4.0444 T0.6964,-7.166 0.3788,-9.5117 -0.0105,-12.2993 -0.8698,-15.5441 -1.9848,-18.1733 -3.0246,-20.0346 -4.2377,-21.0471 -5.7871,-21.5218 L-6.63,-21.78 " stroke-linecap="round" fill="none" stroke="#9398b0" stroke-width="4.5" stroke-dasharray="none" stroke-dashoffset="0"/></g></g><g transform="matrix(1, 0, 0, 1, 1123.0757, 10922.5206)" opacity="1"><g transform="scale(1)"><path d="M-0.95,0 Q-0.0836,-2.1614 0.583,-2.7494 T1.6122,-3.8714 2.6053,-4.6961 3.793,-4.9305 4.6535,-4.4104 4.9073,-3.2634 4.6144,-1.9919 3.8053,-0.867 2.9319,0.1759 2.0259,0.9575 0.8855,1.1684 -0.1658,0.6356 -1.1686,-0.3017 -1.9308,-1.4592 -2.3454,-2.7386 -2.3543,-3.8656 -1.9283,-4.9096 -1.049,-5.6941 0.2935,-6.3375 1.8879,-6.9041 3.4028,-6.9957 4.4412,-6.6123 5.2227,-5.7563 5.6478,-4.6431 5.4482,-3.3899 4.9086,-2.2773 4.1819,-1.6721 3.3534,-1.1262 2.4718,-0.8293 1.5612,-1.0986 1.0659,-2.3236 0.9908,-4.4974 L0.95,-5.68 " stroke-linecap="round" fill="none" stroke="#9398b0" stroke-width="4.5" stroke-dasharray="none" stroke-dashoffset="0"/></g></g><g transform="matrix(1, 0, 0, 1, 1134.4404, 10911.1558)" opacity="1"><g transform="scale(1)"><path d="M0,-0.95 Q0.8618,-4.8351 1.0963,-6.3228 T1.6748,-9.2696 2.6393,-12.3842 3.8116,-15.3737 4.8802,-17.864 5.8947,-20.0829 7.0941,-21.9375 8.3941,-23.3773 9.5322,-24.5938 10.7989,-25.6865 12.5687,-26.4952 14.8265,-27.1517 16.9188,-27.7255 18.4903,-28.0376 20.4236,-28.424 23.1415,-29.0302 L24.62,-29.36 " stroke-linecap="round" fill="none" stroke="#9398b0" stroke-width="4.5" stroke-dasharray="none" stroke-dashoffset="0"/></g></g><g transform="matrix(1, 0, 0, 1, 1186.5288, 10852.438)" opacity="1"><g transform="scale(1)"><path d="M0,0 Q-2.5901,3.0233 -3.2946,4.0622 T-4.5989,6.0972 -5.7417,8.2827 -6.7943,10.3358 -7.5812,12.3167 -8.0093,14.6894 -8.2422,16.8443 -8.1545,18.6641 -7.676,20.7324 -6.9824,23.1527 -6.1742,25.3334 -5.087,27.3839 -3.6317,29.8878 L-2.84,31.25 " stroke-linecap="round" fill="none" stroke="#4dabf7" stroke-width="4.5" stroke-dasharray="none" stroke-dashoffset="0"/></g></g><g transform="matrix(1, 0, 0, 1, 1203.5759, 10863.8027)" opacity="1"><g transform="scale(1)"><path d="M0,0 Q-0.8618,-0.8618 -1.5295,-0.8819 T-2.7769,-0.913 -3.8864,-0.7133 -4.9209,-0.388 -5.9168,0.0055 -7.1062,0.6505 -8.1841,1.4323 -8.9871,2.5074 -9.6405,3.9564 -9.9959,5.6065 -9.7561,7.1516 -8.9781,8.4254 -8.124,9.5493 -7.2261,10.375 -6.3068,11.0407 -5.3757,11.6195 -4.436,12.151 -3.4916,12.6567 -1.8995,12.9318 0.5549,13.1444 L1.89,13.26 " stroke-linecap="round" fill="none" stroke="#4dabf7" stroke-width="4.5" stroke-dasharray="none" stroke-dashoffset="0"/></g></g><g transform="matrix(1, 0, 0, 1, 1219.676, 10868.538)" opacity="1"><g transform="scale(1)"><path d="M0,0 Q-2.5901,0.8618 -3.5112,1.0963 T-5.15,2.108 -6.2581,3.5225 -6.6443,4.7229 -6.2068,5.8092 -5.3214,6.831 -4.1899,7.6012 -2.4936,8.2368 -0.4924,8.7991 1.4604,8.8884 3.3868,8.5061 4.8657,7.6506 5.8868,6.5377 6.6589,5.0681 6.6457,2.9714 6.0203,0.4316 L5.68,-0.95 " stroke-linecap="round" fill="none" stroke="#4dabf7" stroke-width="4.5" stroke-dasharray="none" stroke-dashoffset="0"/></g></g><g transform="matrix(1, 0, 0, 1, 1244.2996, 10863.8027)" opacity="1"><g transform="scale(1)"><path d="M0,0.95 Q-2.1614,1.3786 -3.1803,1.7118 T-4.7533,2.4429 -5.1782,3.2738 -4.5452,4.1567 -3.3367,5.0679 -2.0318,5.7802 -0.8887,6.3843 0.3807,7.1439 1.5021,7.988 2.3288,8.8804 2.7785,9.7968 2.5899,10.7262 1.8399,11.665 0.7843,12.3923 -0.2209,13.0046 -1.1986,13.5543 -2.5946,13.8533 -4.2181,14.0159 -5.9655,13.6712 -8.2352,12.7896 L-9.47,12.31 " stroke-linecap="round" fill="none" stroke="#4dabf7" stroke-width="4.5" stroke-dasharray="none" stroke-dashoffset="0"/></g></g><g transform="matrix(1, 0, 0, 1, 1282.1821, 10875.1675)" opacity="1"><g transform="scale(1)"><path d="M0,0 Q-1.7282,1.7282 -2.4149,2.4149 T-3.9061,3.9061 -5.6703,5.6703 L-6.63,6.63 " stroke-linecap="round" fill="none" stroke="#4dabf7" stroke-width="4.5" stroke-dasharray="none" stroke-dashoffset="0"/></g></g><g transform="matrix(1, 0, 0, 1, 1321.0116, 10861.9086)" opacity="1"><g transform="scale(1)"><path d="M0,0 Q-3.0233,0.4332 -4.2765,0.7654 T-6.8591,1.7114 -8.6972,2.8758 -9.0496,3.7259 -8.8081,4.4026 -8.2458,4.9851 -7.0781,5.5186 -6.0119,6.242 -5.2153,7.0664 -4.5654,8.1625 -4.2118,9.4062 -4.4504,10.5137 -5.4443,11.5494 -6.8491,12.5461 -8.4751,13.3048 -10.4404,13.7176 -12.3737,13.9421 -14.0729,14.0643 -15.6448,13.9141 -17.1474,13.3992 -18.6146,12.6859 -19.6294,11.6504 -20.4135,10.2382 L-20.84,9.47 " stroke-linecap="round" fill="none" stroke="#4dabf7" stroke-width="4.5" stroke-dasharray="none" stroke-dashoffset="0"/></g></g><g transform="matrix(1, 0, 0, 1, 1328.5881, 10866.6439)" opacity="1"><g transform="scale(1)"><path d="M0,0 Q-0.4332,2.5901 -0.7654,3.5112 T-1.928,5.7975 -3.7492,8.7913 L-4.74,10.42 " stroke-linecap="round" fill="none" stroke="#4dabf7" stroke-width="4.5" stroke-dasharray="none" stroke-dashoffset="0"/></g></g><g transform="matrix(1, 0, 0, 1, 1330.4822, 10842.9674)" opacity="1"><g transform="scale(1)"><path d="M 0 0.95 m -0.5, 0 a 0.5,0.5 0 1,0 1,0 a 0.5,0.5 0 1,0 -1,0" stroke-linecap="round" fill="#4dabf7" stroke="#4dabf7" stroke-width="4.5" stroke-dasharray="none" stroke-dashoffset="0"/></g></g><g transform="matrix(1, 0, 0, 1, 1335.2175, 10866.6439)" opacity="1"><g transform="scale(1)"><path d="M0,0 Q-0.4332,3.0233 -0.551,4.0622 T-0.9473,5.6663 -1.1628,6.539 -0.8492,6.5805 -0.2454,5.9555 0.7306,4.9681 1.9091,3.7811 3.1977,2.7044 4.9772,1.6878 7.0259,0.9182 8.7879,0.4995 9.9608,0.7026 10.5988,1.6773 10.9459,3.2882 11.1347,5.243 11.0231,7.1705 10.6325,9.2751 L10.42,10.42 " stroke-linecap="round" fill="none" stroke="#4dabf7" stroke-width="4.5" stroke-dasharray="none" stroke-dashoffset="0"/></g></g><g transform="matrix(1, 0, 0, 1, 1385.4118, 10847.7027)" opacity="1"><g transform="scale(1)"><path d="M0,0.95 Q0.8618,3.1069 1.3129,4.1268 T2.2258,6.1324 3.37,9.3826 4.4234,13.5264 4.9964,16.8591 5.0938,19.5363 4.7159,21.8567 4.0771,23.9809 3.082,26.0006 1.8932,27.7491 0.599,29.1312 -1.013,30.5035 L-1.89,31.25 " stroke-linecap="round" fill="none" stroke="#4dabf7" stroke-width="4.5" stroke-dasharray="none" stroke-dashoffset="0"/></g></g><g transform="matrix(1, 0, 0, 1, 1083.3717, 10972.1606)" opacity="1"><g transform="scale(1)"><path d="M0,0 Q-0.9348,1.6872 -1.1891,2.3331 T-1.6774,3.5173 -2.1323,4.5354 -2.4733,5.7459 -2.6587,7.1545 -2.7596,8.3882 -2.721,9.3398 -2.5108,10.1379 -2.2072,10.8525 -1.8551,11.4305 -1.3831,11.9341 -0.7524,12.3016 -0.1289,12.595 0.4908,12.8481 1.391,12.8923 2.6209,12.7937 L3.29,12.74 " stroke-linecap="round" fill="none" stroke="#4dabf7" stroke-width="4.5" stroke-dasharray="none" stroke-dashoffset="0"/></g></g><g transform="matrix(1, 0, 0, 1, 1085.0151, 10978.7342)" opacity="1"><g transform="scale(1)"><path d="M0,0 Q-2.0611,-0.3739 -2.9957,-0.4756 T-5.0451,-0.6987 L-6.16,-0.82 " stroke-linecap="round" fill="none" stroke="#4dabf7" stroke-width="4.5" stroke-dasharray="none" stroke-dashoffset="0"/></g></g><g transform="matrix(1, 0, 0, 1, 1040.2326, 11000.5092)" opacity="1"><g transform="scale(1)"><path d="M0,0.41 Q1.3133,-0.9033 1.764,-1.354 T2.5533,-2.1433 3.1697,-2.6662 3.5985,-3.0441 4.0187,-3.5302 4.5277,-4.1685 4.9916,-4.7962 5.4309,-5.3246 5.8569,-5.799 6.2755,-6.3398 6.786,-6.9167 7.3464,-7.511 7.8383,-8.1148 8.2928,-8.6301 8.727,-9.004 9.1502,-9.3009 9.5673,-9.6493 9.9812,-10.0258 10.3933,-10.4176 10.8045,-10.8177 11.2151,-11.2223 11.6277,-11.6317 12.0415,-12.0436 12.4535,-12.4546 12.8646,-12.8652 13.2752,-13.182 13.592,-13.4479 13.8579,-13.7794 14.1894,-14.1468 14.6503,-14.5336 15.1814,-14.9309 15.5638,-15.3341 15.9588,-15.7403 16.3606,-16.1483 16.7685,-16.5595 17.273,-16.9724 17.7345,-17.384 18.1725,-17.7948 18.5977,-18.2988 19.016,-18.7599 19.4305,-19.1042 19.9364,-19.572 20.4921,-20.1069 20.9813,-20.5848 21.4367,-20.9383 21.8737,-21.3198 22.2984,-21.8101 22.7164,-22.3573 23.1307,-22.9353 23.5431,-23.4368 23.9543,-23.8965 24.365,-24.3336 24.7754,-24.7583 25.1856,-25.1763 25.5957,-25.5907 26.0081,-26.0053 26.4216,-26.4201 26.8336,-26.8328 27.1511,-27.2442 27.4174,-27.655 27.7492,-27.9719 28.1166,-28.2378 28.5035,-28.5694 28.9009,-28.9368 29.304,-29.3236 29.7103,-29.7209 30.1183,-30.1241 30.5272,-30.5303 30.9389,-30.9406 31.3521,-31.353 31.7638,-31.7643 32.1747,-32.2685 32.6787,-32.8232 33.2334,-33.4054 33.722,-34.0026 34.1748,-34.5144 34.6081,-34.9798 35.0308,-35.4199 35.4477,-35.8486 35.9572,-36.271 36.5171,-36.6878 36.9151,-37.1015 37.2251,-37.42 37.5808,-37.6868 37.9612,-38.0188 38.3551,-38.3864 38.7563,-38.7734 39.1616,-39.0774 39.4755,-39.3362 39.7397,-39.664 40.0705,-40.0292 40.4373,-40.3214 40.8261,-40.5739 41.2269,-40.9004 41.6319,-41.2673 42.0391,-41.6539 42.4477,-42.0511 42.8568,-42.4542 43.2664,-42.7669 43.6762,-43.0305 44.086,-43.3609 44.496,-43.6341 44.9059,-43.8762 45.3182,-44.1948 45.7317,-44.5552 46.1436,-44.8446 46.5546,-45.1914 46.9652,-45.5692 47.3755,-45.8683 47.7857,-46.2179 48.1958,-46.5951 48.6058,-46.9872 49.0158,-47.3875 49.5193,-47.7922 50.076,-48.1993 50.568,-48.6077 51.0226,-49.0169 51.4569,-49.3329 51.8801,-49.6918 52.3908,-50.2633 52.949,-50.8569 53.4397,-51.3667 53.8935,-51.8311 54.3274,-52.1771 54.7504,-52.4589 55.1697,-52.7991 55.5871,-53.1712 56.0946,-53.5605 56.6511,-53.9593 57.1408,-54.3632 57.5942,-54.7698 58.1212,-55.1803 58.6884,-55.5929 59.1839,-56.0977 59.7362,-56.6528 60.3193,-57.1417 60.8235,-57.5947 61.2847,-58.028 61.7226,-58.4507 62.1478,-58.8676 62.566,-59.2814 62.9805,-59.6934 63.393,-60.1068 63.8043,-60.521 64.3085,-60.9332 64.8655,-61.3444 65.3578,-61.7551 65.8125,-62.1654 66.2468,-62.5756 66.6701,-62.9857 67.0873,-63.3958 67.5012,-63.8058 67.9133,-64.1224 68.3245,-64.3881 68.7351,-64.7195 69.1455,-65.0891 69.5579,-65.5729 69.9716,-66.1165 70.3835,-66.5057 70.7946,-66.8109 71.2052,-67.1639 71.522,-67.5429 71.7879,-67.8425 72.1194,-68.099 72.4868,-68.4255 72.8736,-68.7901 73.2709,-69.1754 73.6741,-69.4784 74.0803,-69.7391 74.4906,-70.1636 74.903,-70.6749 75.3143,-71.1401 75.725,-71.4866 76.1354,-71.8621 76.5456,-72.2533 76.9557,-72.5596 77.3658,-72.9132 77.7758,-73.2925 78.1859,-73.5923 78.5024,-73.8489 78.7681,-74.1754 79.0995,-74.5423 79.4691,-74.9311 79.8594,-75.3296 80.2587,-75.8268 80.6628,-76.3778 81.0697,-76.8644 81.4779,-77.4096 81.887,-77.9866 82.2965,-78.581 82.7062,-79.0912 83.0226,-79.4646 83.2882,-79.8569 83.6196,-80.2573 83.9869,-80.6621 84.6563,-81.2562 85.7079,-82.1136 L86.28,-82.58 " stroke-linecap="round" fill="none" stroke="#e599f7" stroke-width="4.5" stroke-dasharray="none" stroke-dashoffset="0"/></g></g><g transform="matrix(1, 0, 0, 1, 1125.6891, 10917.9286)" opacity="1"><g transform="scale(1)"><path d="M0,0 Q-0.5609,2.0611 -0.7134,2.8087 T-0.949,4.1499 -1.1706,5.2535 -1.3847,6.23 -1.5011,7.1374 -1.5644,8.005 -1.5989,8.8509 -1.6176,9.5915 -1.6278,10.2748 -1.6334,11.0227 -1.6364,11.8058 -1.638,12.6992 -1.7324,13.6526 -1.8772,14.6387 -1.956,15.7382 -1.9989,16.7126 -2.0222,17.6166 -2.0349,18.5757 -2.0418,19.4714 -2.1413,20.2391 -2.2912,20.9395 -2.3727,21.6967 -2.4171,22.576 -2.5347,23.5217 -2.6922,24.4101 -2.7778,25.2696 -2.9179,26.1134 -3.0876,26.9463 -3.2734,27.7734 -3.4679,28.5972 -3.6672,29.4193 -3.8691,30.2427 -3.979,31.0668 -4.1322,31.8891 -4.309,32.7103 -4.4052,33.531 -4.551,34.3513 -4.7239,35.1738 -4.8179,36.0909 -4.869,37.0572 -4.8968,38.0503 -4.9119,39.0579 -5.0137,39.9823 -5.1625,40.8613 -5.2434,41.7134 -5.2875,42.5509 -5.3114,43.3804 -5.3245,44.1121 -5.3315,44.7929 -5.3354,45.5394 -5.431,46.4129 -5.5765,47.3555 -5.6556,48.2422 -5.6986,49.0985 -5.7221,49.847 -5.7348,50.5369 -5.7417,51.2862 -5.839,51.9742 -5.9854,52.6289 -6.065,53.359 -6.2018,54.0366 -6.3697,54.688 -6.461,55.4185 -6.5107,56.1898 -6.6312,57.0768 -6.7903,58.1202 -6.8768,59.0618 -6.9239,59.9502 -7.0452,60.9966 -7.207,62.0333 -7.295,63.0646 -7.3429,63.9996 -7.3689,64.8844 -7.3831,65.8354 -7.3908,66.7267 -7.4885,67.492 -7.6351,68.1888 -7.7149,68.944 -7.7582,69.7311 -7.7818,70.5331 -7.7947,71.3434 -7.8951,72.345 -8.0433,73.5466 -8.1239,74.7634 -8.1677,76.1732 -8.2016,77.9263 L-8.22,78.88 " stroke-linecap="round" fill="none" stroke="#e599f7" stroke-width="4.5" stroke-dasharray="none" stroke-dashoffset="0"/></g></g><g transform="matrix(1, 0, 0, 1, 1043.1085, 11002.9743)" opacity="1"><g transform="scale(1)"><path d="M0,0 Q1.8742,-0.187 2.7579,-0.3313 T4.3092,-0.6476 5.7163,-0.9132 6.9515,-1.0577 8.4647,-1.3232 10.3185,-1.6546 11.7966,-1.8349 12.8812,-1.933 13.8451,-1.9863 14.9303,-2.0154 15.9904,-2.0312 16.9432,-2.0398 17.742,-2.0444 18.644,-2.047 19.789,-2.0484 20.9751,-2.0491 22.1834,-2.1453 23.2147,-2.2933 24.2431,-2.3739 25.4592,-2.4177 26.5905,-2.4416 27.6732,-2.4545 28.9166,-2.4616 30.2497,-2.4654 31.4446,-2.4675 32.562,-2.5621 33.6372,-2.7071 34.7853,-2.7859 36.0665,-2.8288 37.2309,-2.8522 38.4252,-2.8649 39.7316,-2.9652 41.0054,-3.1133 42.1657,-3.1939 43.2644,-3.2377 44.2359,-3.2616 45.1407,-3.2745 46.1025,-3.2816 46.9997,-3.2854 47.9552,-3.2875 49.1316,-3.2886 50.3347,-3.2893 51.4566,-3.2896 52.4408,-3.2898 53.1632,-3.3834 54.1193,-3.5277 55.2961,-3.6063 56.4972,-3.649 57.8049,-3.6723 59.0795,-3.6849 60.2425,-3.7853 61.2491,-3.9333 62.1706,-4.0139 63.0459,-4.0577 63.8959,-4.0816 64.828,-4.0945 65.7113,-4.1016 66.5657,-4.1054 67.4979,-4.1075 68.2855,-4.1086 69.1836,-4.1093 70.2353,-4.1096 71.0879,-4.1098 71.7386,-4.1099 72.3731,-4.1099 73.0922,-4.11 74.0465,-4.2969 75.3182,-4.707 L76.01,-4.93 " stroke-linecap="round" fill="none" stroke="#e599f7" stroke-width="4.5" stroke-dasharray="none" stroke-dashoffset="0"/></g></g><g transform="matrix(1, 0, 0, 1, 1262.366, 10850.8529)" opacity="1"><g transform="scale(1)"><path d="M0,0 Q-0.839,1.4683 -1.277,2.0775 T-2.0581,3.2277 -2.6928,4.273 -3.3527,5.4686 -4.1312,6.7461 -4.8694,7.8605 -5.4807,8.8863 -6.023,9.8638 -6.5278,10.8151 -7.0099,11.7521 -7.4796,12.6814 -7.9449,13.6064 -8.4078,14.5292 -8.7645,15.3458 -9.0634,16.1047 -9.3309,16.937 -9.4764,17.8093 -9.5556,18.7034 -9.7035,19.6093 -9.8889,20.5216 -9.9897,21.4352 -10.0446,22.2445 -10.0744,22.9994 -9.9858,23.8296 -9.7278,24.5959 -9.4825,25.3273 -9.2443,26.0399 -8.9049,26.7422 -8.5105,27.4389 -7.8787,28.1325 -6.9469,28.9664 L-6.44,29.42 " stroke-linecap="round" fill="none" stroke="#4dabf7" stroke-width="4.5" stroke-dasharray="none" stroke-dashoffset="0"/></g></g><g transform="matrix(1, 0, 0, 1, 1268.8016, 10853.6111)" opacity="1"><g transform="scale(1)"><path d="M0,0 Q-1.6781,3.9809 -2.2394,5.1686 T-3.211,7.4219 -3.9492,9.3818 -4.5606,11.0773 -5.103,12.6289 -5.6078,14.1023 -5.9873,15.8477 -6.1937,17.6363 -6.2011,19.0288 -5.9954,20.2058 -5.6737,21.1585 -5.289,21.8842 -4.4504,22.3839 -3.0577,22.77 L-2.3,22.98 " stroke-linecap="round" fill="none" stroke="#4dabf7" stroke-width="4.5" stroke-dasharray="none" stroke-dashoffset="0"/></g></g><g transform="matrix(1, 0, 0, 1, 1267.4225, 10867.4017)" opacity="1"><g transform="scale(1)"><path d="M-0.46,0 Q-2.3478,0.4195 -2.9662,0.5336 T-4.3405,0.8147 -5.9982,1.1808 L-6.9,1.38 " stroke-linecap="round" fill="none" stroke="#4dabf7" stroke-width="4.5" stroke-dasharray="none" stroke-dashoffset="0"/></g></g><g transform="matrix(1, 0, 0, 1, 1273.3985, 10853.1514)" opacity="1"><g transform="scale(1)"><path d="M0,0 Q0,4.4004 0,5.8071 T0,8.3985 0,10.6473 -0.1049,12.7096 -0.3717,14.6706 -0.7266,16.5764 -1.549,19.0792 -2.7305,21.8019 -3.6879,23.7025 -4.7331,25.156 -6.1365,26.726 L-6.9,27.58 " stroke-linecap="round" fill="none" stroke="#4dabf7" stroke-width="4.5" stroke-dasharray="none" stroke-dashoffset="0"/></g></g><g transform="matrix(1, 0, 0, 1, 1360.2797, 10848.5545)" opacity="1"><g transform="scale(1)"><path d="M0,0 Q-1.0488,2.7269 -1.5438,3.7832 T-2.5179,5.8315 -3.3625,7.6776 -4.1365,9.4161 -4.8723,11.2008 -5.4823,12.9059 -6.0239,14.5676 -6.5283,16.3106 -6.9075,17.993 -7.1139,19.6401 -7.1212,21.268 -6.9155,22.6779 -6.5938,23.8645 -6.1041,24.9295 -5.4182,25.8235 -4.6256,26.5196 -3.7749,27.0031 -2.6828,27.3711 -1.2432,27.8043 L-0.46,28.04 " stroke-linecap="round" fill="none" stroke="#4dabf7" stroke-width="4.5" stroke-dasharray="none" stroke-dashoffset="0"/></g></g><g transform="matrix(1, 0, 0, 1, 1371.772, 10851.3126)" opacity="1"><g transform="scale(1)"><path d="M0,0 Q-0.6293,3.7711 -0.9053,5.0066 T-1.4364,7.3338 -1.9351,9.5436 -2.4161,11.6897 -2.8876,14.6402 -3.144,17.8184 -3.0738,19.9646 -2.8258,21.4445 -2.1665,22.4593 -1.0613,23.3924 L-0.46,23.9 " stroke-linecap="round" fill="none" stroke="#4dabf7" stroke-width="4.5" stroke-dasharray="none" stroke-dashoffset="0"/></g></g><g transform="matrix(1, 0, 0, 1, 1372.2317, 10866.4824)" opacity="1"><g transform="scale(1)"><path d="M0,0 Q-1.8878,-0.2098 -2.6111,-0.2668 T-4.3548,-0.25 -6.5926,-0.0881 L-7.81,0 " stroke-linecap="round" fill="none" stroke="#4dabf7" stroke-width="4.5" stroke-dasharray="none" stroke-dashoffset="0"/></g></g><g transform="matrix(1, 0, 0, 1, 1377.7479, 10850.3932)" opacity="1"><g transform="scale(1)"><path d="M0,0 Q0.4195,2.0976 0.6385,2.9828 T0.9766,4.6642 1.2654,6.2058 1.6323,8.4056 1.9368,10.8609 2.1024,12.9307 2.0876,15.0006 1.9747,17.0706 1.8084,19.1383 1.5082,21.0999 1.1351,22.9011 0.6175,24.4054 0.0213,25.6433 -0.8275,26.7362 -2.0791,27.8785 L-2.76,28.5 " stroke-linecap="round" fill="none" stroke="#4dabf7" stroke-width="4.5" stroke-dasharray="none" stroke-dashoffset="0"/></g></g></svg>