<svg xmlns="http://www.w3.org/2000/svg" direction="ltr" width="618.6533119373503" height="546.7299999999996" viewBox="1292.1742377284056 13968.76475982585 618.6533119373503 546.7299999999996" stroke-linecap="round" stroke-linejoin="round" style="background-color: transparent;"><defs/><g transform="matrix(1, 0, 0, 1, 1559.6291, 14000.7648)" opacity="1"><g transform="scale(1)"><path d="M0,0 Q0.4514,2.695 0.5742,3.6537 T0.5381,5.5832 0.2927,7.7546 0.1592,9.8341 0.0866,11.8637 0.0471,14.0896 0.0256,15.9753 0.0139,17.6761 0.0076,19.4996 0.0041,21.3899 0.0022,23.0908 0.0012,24.9144 0.0007,27.0305 0.0004,29.08 0.0002,31.0932 0.0001,33.0868 0.0001,35.0696 0,37.0465 0,39.0203 0,40.7689 0,42.3951 0,43.9523 0,45.6977 0,47.7713 0,50.0211 0,52.3667 0,54.7668 0,57.1964 0,59.1931 0,61.1775 0,63.1554 0,65.1297 0,67.102 0,69.0733 0,71.2674 0,73.3594 0,75.3957 0,77.4018 0,79.3914 0,81.3721 0,83.5736 0,85.8953 0,88.0566 0,90.1307 0,92.1573 0,94.1581 0,96.1448 0,97.9005 0.2257,99.5305 0.5742,101.3155 0.7638,102.9592 0.867,104.5259 0.9231,106.2765 0.9536,108.1272 0.9702,110.0323 0.9792,111.967 0.9841,113.9177 0.9868,115.8796 0.9883,117.8474 0.9891,119.8162 0.9895,121.7856 0.9897,123.9787 0.9898,126.2935 0.9899,128.4511 0.99,130.5231 0.99,132.5486 0.99,134.5488 0.99,136.5352 0.99,138.5142 0.99,140.489 0.99,142.4617 0.99,144.4331 0.99,146.4062 0.7643,148.3801 0.4158,150.3523 0.2262,152.3234 0.123,154.2941 0.0669,156.2644 0.0364,158.2346 0.0198,160.2047 0.0108,162.1748 0.0059,164.1448 0.0032,165.8891 0.0017,167.5106 0.0009,169.5167 0.0005,171.7321 0.0003,173.8356 0.0002,175.8782 0.0001,177.6643 0,179.085 -0.2257,180.7563 -0.5742,182.7894 -0.7638,184.7938 -0.867,186.7825 -0.9231,188.9861 -0.9536,191.3067 -0.9702,193.2439 -0.9792,195.1961 -0.9841,197.3798 -0.9868,199.4661 -0.9883,201.4994 -0.9891,203.5038 -0.9895,205.2691 -0.9897,207.13 -0.9898,209.0406 -0.9899,210.9783 -0.99,212.9308 -0.99,214.6655 -0.99,216.7332 -0.99,218.7564 -0.99,220.7553 -0.99,223.1902 -0.99,225.8623 -0.99,228.4399 -0.99,230.9639 -0.99,233.461 -0.99,235.9435 -0.99,238.6414 -0.99,241.0074 -0.99,243.1928 -0.99,245.7292 -0.99,248.0073 -0.99,250.1449 -0.99,252.6552 -0.99,254.9192 -0.7643,257.0491 -0.4158,259.106 -0.2262,261.1234 -0.123,263.3448 -0.0669,265.2282 -0.0364,267.1511 -0.0198,269.3189 -0.0108,271.3965 -0.0059,273.6507 -0.0032,276.0011 -0.0017,278.178 -0.0009,280.484 -0.0005,282.8602 -0.0003,285.2769 -0.0002,287.7156 -0.0001,289.9406 0,292.0493 0,294.0948 0,296.1059 0,298.0982 0,300.0803 0,302.0569 0,304.2563 0,306.5767 0,308.7374 0,310.5854 0,312.489 0,314.6486 0,316.9452 0,319.0929 0,321.1595 0,323.1821 0,325.183 0,327.1698 0,328.9232 0,330.5519 0,332.3363 0,334.4287 0,336.6911 0,339.0458 0,341.4486 0,344.1031 0,346.4455 0,348.6181 0,350.6983 0,352.7283 0,355.1824 0,357.4157 0,359.5289 0,361.5769 0,363.3635 0,365.2338 0,366.9261 0,368.745 0,370.6329 0,372.5582 0,374.5038 0,376.2372 0,378.0784 0,379.9784 0,382.136 0,384.4338 0,386.8055 0,388.9941 0,391.083 0,393.3411 0,395.4678 0,397.5231 0,399.5395 0,401.3113 0,403.1735 0,405.534 0,407.9421 0,410.3762 0,412.5986 0.2257,414.4803 0.5742,416.4022 0.7638,418.346 0.867,420.3018 0.9231,422.2641 0.9536,424.2298 0.9702,426.1976 0.9792,428.1663 0.9841,430.1356 0.9868,432.1053 0.9883,434.0751 0.9891,436.045 0.9895,438.0149 0.9897,439.7614 0.9898,441.3864 0.9899,443.1687 0.99,445.0366 0.99,446.9511 0.99,448.8909 0.99,450.8444 0.99,453.0312 0.99,455.3449 0.99,457.5018 0.99,459.5735 0.99,461.5988 0.99,463.5989 0.99,465.3596 0.99,466.99 0.99,468.5518 0.7643,470.0763 0.4158,471.8039 0.2262,473.6421 0.123,475.5404 0.0669,477.2479 0.0364,479.0752 0.0128,481.4423 L0,482.73 " stroke-linecap="round" fill="none" stroke="#9398b0" stroke-width="4.5" stroke-dasharray="none" stroke-dashoffset="0"/></g></g><g transform="matrix(1, 0, 0, 1, 1324.1742, 14243.1158)" opacity="1"><g transform="scale(1)"><path d="M0,0 Q2.695,0.4514 3.8771,0.5742 T6.1516,0.7638 8.2872,0.867 10.1239,0.9231 11.5722,0.9536 12.8092,0.7445 13.9313,0.405 15.2144,0.2203 16.5872,0.1199 18.0089,0.0652 19.4549,0.0355 20.9142,0.0193 22.3829,0.0105 23.8567,0.0057 25.5568,0.0031 27.1543,0.0017 28.6982,0.0009 30.4386,0.0005 32.0581,0.0003 33.6116,0.0001 35.5808,0.0001 37.5504,0 39.071,0 40.573,0 42.2885,0 43.8943,0 45.4405,0 47.1799,0 49.0245,0 50.7028,0 52.2907,0 54.0528,0 55.684,-0.2257 57.0205,-0.5742 58.4225,-0.7638 59.86,-0.867 61.0912,-0.9231 62.4336,-0.9536 64.0621,-0.9702 65.8464,-0.9792 67.4919,-0.9841 69.062,-0.9868 70.5887,-0.9883 72.0918,-0.9891 73.5844,-0.9895 75.0712,-0.9897 76.5527,-0.9898 78.0312,-0.9899 79.7338,-0.99 81.3349,-0.99 82.8808,-0.99 84.6201,-0.99 86.4646,-0.99 88.3663,-0.7643 90.2991,-0.4158 92.2489,-0.2262 93.9845,-0.123 95.6035,-0.0669 97.3826,-0.0364 99.2487,-0.0198 101.1622,-0.0108 103.1015,-0.0059 104.8291,-0.0032 106.6672,-0.0017 108.7911,0.2248 110.8449,0.5737 112.8605,0.7635 114.8553,0.8668 116.8387,0.923 119.0418,0.9535 121.3643,0.9702 123.5261,1.2027 125.6004,1.5526 127.8506,1.7429 130.1964,1.8465 132.3709,2.1285 134.4521,2.5077 136.7084,2.7139 139.0598,2.8261 141.2373,2.8872 143.3202,2.9204 145.5773,2.9385 147.9292,2.9483 150.107,2.9536 152.19,2.9565 154.2215,2.9581 156.2249,2.959 158.2131,2.9594 160.193,2.9597 162.1684,2.9598 163.9156,2.9599 165.5387,2.96 167.0965,2.96 168.6189,2.96 170.3453,2.7343 171.9571,2.3858 173.5066,2.1962 175.4735,2.093 177.8933,2.0369 180.3337,2.0064 182.3338,1.9898 184.0945,1.9808 185.7272,1.9759 187.2903,1.9732 189.0389,1.9717 190.6628,1.9709 192.2187,1.9705 193.7401,1.7468 195.0168,1.4017 196.384,1.214 197.8026,1.1118 199.4727,1.0563 201.5029,1.0261 203.2823,1.0096 204.9251,1.0007 206.4937,0.7701 207.7962,0.4189 209.1773,0.2279 210.6035,0.124 212.0543,0.0674 213.5161,0.0367 214.9839,0.02 216.4573,0.0109 218.1571,-0.2198 220.2036,-0.571 221.9918,-0.7621 223.6394,-0.866 225.2083,-0.9225 226.7344,-0.9533 228.2395,-0.97 229.7331,-0.9791 231.2183,-0.9841 232.6988,-0.9868 234.1791,-0.9883 235.4358,-0.989 236.7943,-0.9895 238.2059,-1.2132 239.6465,-1.5583 241.105,-1.746 242.3476,-1.8482 243.6962,-1.9037 245.3281,-1.9339 246.8908,-1.9504 248.4157,-1.9593 249.9179,-1.9642 251.4077,-1.9668 252.893,-1.9683 254.3759,-1.9691 255.8552,-1.9695 257.1091,-1.9697 258.4661,-2.1956 259.8769,-2.5441 261.0936,-2.7338 262.4303,-2.8369 264.0558,-2.8931 265.615,-2.9236 266.9123,-2.9402 268.2906,-2.9492 269.9388,-3.1776 271.5103,-3.5252 273.2635,-3.7144 275.339,-3.8173 277.1429,-3.8732 278.7991,-3.9037 280.3727,-3.9202 281.6779,-3.9293 283.0628,-3.9342 284.4888,-3.9368 285.9372,-3.9383 287.8491,-3.9391 289.7875,-3.9395 291.5146,-3.9397 293.129,-3.7164 294.6821,-3.3715 296.6511,-3.1838 298.6205,-3.0818 300.5902,-3.0262 303.0092,-2.996 305.6726,-2.9796 308.469,-2.7449 311.112,-2.3916 313.4481,-2.1993 315.3938,-2.0948 317.1271,-2.0379 318.9684,-2.0069 320.8684,-1.9901 322.8003,-1.9809 324.5261,-1.7525 326.3633,-1.4048 328.261,-1.2157 329.9683,-1.1128 331.7953,-1.0568 333.6876,-1.0263 335.6153,-1.0098 337.5623,-1.0008 339.5198,-0.9958 341.2572,-0.9932 343.3242,-0.9917 345.7961,-0.9909 348.0391,-0.9905 350.1576,-0.7646 352.4342,-0.4159 354.7966,-0.2263 356.7567,-0.1231 358.4978,-0.067 360.1176,-0.0364 361.6714,-0.0198 363.415,-0.0108 365.4875,-0.0059 367.5133,-0.0032 369.0645,-0.0017 370.5832,-0.0009 372.082,-0.2262 373.5699,-0.5745 375.5034,-0.764 377.4535,-0.867 379.187,-0.9231 380.8049,-0.9536 382.1342,-0.9702 383.5322,-0.9792 384.9676,-0.9841 386.1976,-1.2103 387.7651,-1.5567 389.7395,-1.7452 391.7119,-1.8477 393.4598,-1.9035 395.0855,-1.9338 396.6425,-1.9503 397.9387,-1.9593 399.3187,-1.9642 400.742,-1.9668 402.1889,-1.9683 403.6509,-1.9691 405.1211,-1.9695 406.5935,-1.9697 408.067,-1.9698 409.767,-1.9699 411.3666,-1.97 412.6883,-1.97 414.0822,-1.97 415.513,-1.97 416.7406,-1.97 418.0832,-1.97 419.712,-1.97 421.7197,-1.97 423.7103,-1.97 425.2423,-1.97 426.7483,-1.97 428.4659,-1.97 430.0752,-1.97 431.8489,-1.97 433.7122,-1.97 435.4007,-1.97 436.9918,-1.97 438.7557,-1.97 441.0771,-1.97 L442.34,-1.97 " stroke-linecap="round" fill="none" stroke="#9398b0" stroke-width="4.5" stroke-dasharray="none" stroke-dashoffset="0"/></g></g><g transform="matrix(1, 0, 0, 1, 1750.7514, 14096.3259)" opacity="1"><g transform="scale(1)"><path d="M0,0 Q0,-0.4514 -0.2257,-0.5742 T-0.5742,-0.9873 -0.5381,-1.4354 0.1564,-1.6792 1.2091,-1.8118 2.231,-1.4348 3.0103,-0.5548 2.9851,0.1496 2.2988,0.3071 1.9254,-0.0586 1.7223,0.1915 1.248,1.3434 L0.99,1.97 " stroke-linecap="round" fill="none" stroke="#e599f7" stroke-width="4.5" stroke-dasharray="none" stroke-dashoffset="0"/></g></g><g transform="matrix(1, 0, 0, 1, 1775.3806, 14067.7561)" opacity="1"><g transform="scale(1)"><path d="M0,0 Q-3.1464,0.4514 -4.2257,0.7977 T-5.892,1.558 -7.0243,2.4207 -8.0894,3.5627 -8.8922,5.0822 -9.1055,6.5837 -8.7724,7.6263 -8.142,8.4168 -7.3499,9.0704 -6.2442,9.4259 -4.97,9.6193 -3.6043,9.7245 -2.1865,9.5583 -0.9637,9.2444 0.1506,8.6245 1.206,7.6124 2.0058,6.387 2.4409,5.2711 2.6776,4.8899 3.0298,5.1316 3.6706,5.7123 4.4683,6.4773 5.3514,7.1169 6.281,7.4649 7.2359,7.8799 8.2045,8.3314 9.404,8.3513 10.9688,8.046 L11.82,7.88 " stroke-linecap="round" fill="none" stroke="#e599f7" stroke-width="4.5" stroke-dasharray="none" stroke-dashoffset="0"/></g></g><g transform="matrix(1, 0, 0, 1, 1798.0394, 14063.8154)" opacity="1"><g transform="scale(1)"><path d="M0,0 Q0.8983,2.695 1.1427,3.6537 T1.7456,5.5832 2.5321,7.7119 L2.96,8.87 " stroke-linecap="round" fill="none" stroke="#e599f7" stroke-width="4.5" stroke-dasharray="none" stroke-dashoffset="0"/></g></g><g transform="matrix(1, 0, 0, 1, 1804.9356, 14064.8006)" opacity="1"><g transform="scale(1)"><path d="M0,0.99 Q-2.695,1.4369 -4.3263,1.7842 T-7.2943,2.5438 -10.2254,3.4481 L-11.82,3.94 " stroke-linecap="round" fill="none" stroke="#e599f7" stroke-width="4.5" stroke-dasharray="none" stroke-dashoffset="0"/></g></g><g transform="matrix(1, 0, 0, 1, 1810.8466, 14052.9786)" opacity="1"><g transform="scale(1)"><path d="M0,0 Q0.4514,3.5933 0.5742,5.2455 T0.7638,8.4692 0.867,11.3446 0.9231,13.8072 0.9536,15.1468 0.9702,14.9773 0.9792,13.9867 0.9841,12.7753 1.2103,11.6671 1.7824,10.615 2.5428,9.8193 3.4057,9.1607 4.3242,8.5767 5.4965,8.259 6.8091,8.3119 8.198,8.5664 9.6262,8.9283 10.8523,9.5743 11.9684,10.3749 12.7991,11.483 13.2509,12.9842 13.2733,14.4757 12.8363,15.7362 12.1494,16.8711 11.3266,17.9376 10.4298,18.7413 9.4928,19.1785 8.5339,19.642 7.5631,20.1199 6.3602,20.3799 5.0331,20.2956 3.8621,19.5748 2.6366,18.38 L1.97,17.73 " stroke-linecap="round" fill="none" stroke="#e599f7" stroke-width="4.5" stroke-dasharray="none" stroke-dashoffset="0"/></g></g><g transform="matrix(1, 0, 0, 1, 1834.4906, 14062.8303)" opacity="1"><g transform="scale(1)"><path d="M0,0.99 Q-0.8983,3.2335 -1.1427,4.5186 T-1.0708,6.7263 0.0924,8.1507 1.6235,8.9256 3.129,9.3471 4.6228,9.1273 6.1104,8.1094 7.8977,6.6849 L8.87,5.91 " stroke-linecap="round" fill="none" stroke="#e599f7" stroke-width="4.5" stroke-dasharray="none" stroke-dashoffset="0"/></g></g><g transform="matrix(1, 0, 0, 1, 1836.4609, 14051.0083)" opacity="1"><g transform="scale(1)"><path d="M0,0 Q0,1.3498 0,2.1549 L0,2.96 " stroke-linecap="round" fill="none" stroke="#e599f7" stroke-width="4.5" stroke-dasharray="none" stroke-dashoffset="0"/></g></g><g transform="matrix(1, 0, 0, 1, 1556.6736, 14242.1306)" opacity="1"><g transform="scale(1)"><path d="M0,0 Q1.7966,-1.3498 2.511,-1.9403 T3.8375,-3.0779 5.6809,-4.8208 7.8077,-6.6672 9.6396,-7.8951 11.3087,-9.0123 12.6659,-10.0692 13.8534,-11.0933 14.9485,-12.0995 15.9934,-12.8704 17.011,-13.5155 18.0138,-14.3155 19.0084,-15.1999 19.9987,-16.1302 20.9865,-17.0854 22.1988,-18.0542 23.5309,-19.0304 24.7047,-20.0106 25.7924,-20.993 26.8333,-21.9766 27.8487,-22.9608 29.0759,-23.9454 30.4184,-24.9302 31.5979,-25.9151 32.6887,-26.9 33.7313,-27.6615 34.7476,-28.2992 35.7496,-29.0953 36.7439,-29.9798 37.9573,-30.9101 39.5158,-31.8654 41.0385,-32.8342 42.316,-33.8104 43.6835,-34.7906 45.1024,-35.773 46.3234,-36.7566 47.4367,-37.7408 48.7173,-38.7254 50.0865,-39.7102 51.2806,-40.6951 52.3793,-41.68 53.6496,-42.665 55.0155,-43.6499 56.4334,-44.6349 57.8797,-45.6199 59.1156,-46.6049 60.4605,-47.5899 61.867,-48.5749 63.3071,-49.5599 64.763,-50.7706 66.2277,-52.1019 67.9228,-53.2752 69.7432,-54.5884 71.6319,-55.9754 73.7833,-57.4048 76.0778,-58.8572 78.2243,-60.0965 80.2903,-61.4456 82.3125,-62.8521 84.0852,-64.0664 85.7222,-65.4018 87.2875,-66.8009 88.814,-68.0112 90.3192,-69.1187 91.5873,-70.1704 92.9497,-71.4174 94.3657,-72.7683 95.5852,-73.9524 96.9212,-75.0457 98.3228,-76.0896 99.5345,-77.1067 100.8663,-78.3326 102.2656,-79.6743 103.7017,-80.8534 105.1556,-81.944 106.3956,-82.9864 107.5194,-84.0026 108.8033,-85.0046 110.1766,-86.2223 111.3729,-87.5596 112.4728,-88.7386 113.7461,-89.8291 115.1113,-90.8714 116.5289,-91.8877 117.9749,-93.1131 119.4341,-94.4546 120.9029,-95.6335 122.151,-96.724 123.2791,-97.7664 124.342,-98.7827 125.5928,-99.7846 126.9481,-100.7789 128.1346,-101.7689 129.4526,-102.7567 130.8445,-103.7431 132.0508,-104.7289 133.3797,-105.7144 134.7775,-106.9231 135.987,-108.2555 137.3176,-109.4295 138.9398,-110.5173 140.4971,-111.5582 141.7935,-112.5736 142.9479,-113.5752 144.025,-114.5692 145.2836,-115.3356 146.6431,-115.976 147.8341,-116.7736 148.9312,-117.6589 150.2006,-118.5896 151.5661,-119.5451 152.758,-120.2906 153.8556,-120.9196 154.9018,-121.4852 156.1436,-122.0186 157.494,-122.758 158.9035,-123.6093 160.3429,-124.5216 161.575,-125.4671 162.9202,-126.4306 164.3246,-127.4039 165.7612,-128.3825 167.2176,-129.364 168.459,-130.1237 169.5835,-130.7604 170.6444,-131.556 171.6707,-132.2144 172.6781,-132.7961 173.6753,-133.5617 174.667,-134.2039 175.6556,-134.7767 176.6448,-135.5374 177.6322,-136.4004 178.8419,-137.0934 179.9491,-137.696 180.7771,-138.2496 181.9025,-138.7742 182.9638,-139.5087 183.7646,-140.134 184.6494,-140.6976 185.5799,-141.4534 186.5353,-142.3137 187.5042,-143.2308 188.4804,-143.9555 189.6863,-144.7989 191.2561,-146.0885 L192.11,-146.79 " stroke-linecap="round" fill="none" stroke="#e599f7" stroke-width="4.5" stroke-dasharray="none" stroke-dashoffset="0"/></g></g><g transform="matrix(1, 0, 0, 1, 1750.7514, 14100.2666)" opacity="1"><g transform="scale(1)"><path d="M0,0 Q-0.4514,3.5933 -0.5742,5.0198 T-0.7638,7.6715 -0.867,10.0124 -0.9231,12.1841 -0.9536,14.2639 -1.1936,16.0702 -1.5477,17.9511 -1.7402,20.3218 -1.845,22.9589 -1.902,25.741 -1.933,28.1551 -1.9499,30.3666 -1.9591,32.9172 -1.964,35.6522 -2.1925,38.2618 -2.5425,40.5797 -2.7329,42.5156 -2.8364,44.467 -2.8928,46.6503 -2.9234,48.7364 -2.9401,50.9952 -2.9492,53.5715 -2.9541,55.8713 -2.9568,58.0231 -2.9583,60.3176 -2.9591,62.6876 -2.9595,65.0987 -2.9597,67.3086 -2.9598,69.1857 -2.9599,70.8817 -3.1834,72.9261 -3.5284,75.3857 -3.7161,78.0712 -3.8182,80.6539 -3.8737,82.9572 -3.904,85.3342 -3.9204,87.7514 -3.9293,89.9646 -3.9342,92.067 -3.9368,94.3347 -3.9383,96.6923 -3.9391,99.0967 -3.9395,101.5264 -3.9397,103.7465 -3.9398,105.8525 -3.9399,107.8965 -3.94,109.9068 -3.94,111.8987 -3.94,113.8806 -3.94,115.6337 -3.94,117.4879 -3.94,119.6207 -3.94,121.9026 -3.94,124.2658 -3.94,126.4497 -3.94,128.3126 -3.94,130.0009 -3.94,131.8176 -3.94,133.7043 -3.94,135.6289 -3.94,137.7977 -3.94,140.4287 L-3.94,141.86 " stroke-linecap="round" fill="none" stroke="#f2f2f2" stroke-width="4.5" stroke-dasharray="0.1 9" stroke-dashoffset="0"/></g></g><g transform="matrix(1, 0, 0, 1, 1557.6587, 14243.1158)" opacity="1"><g transform="scale(1)"><path d="M0,0 Q3.5933,0 4.7964,0 T7.1031,0 9.0306,-0.2257 11.65,-0.5742 15.0974,-0.7638 17.8711,-0.867 19.8291,-0.9231 21.5691,-0.9536 23.4141,-0.9702 25.0903,-0.9792 26.9005,-0.9841 28.7858,-0.9868 30.4863,-1.2117 32.084,-1.5575 33.4023,-1.7456 34.7943,-1.8479 36.4499,-1.9036 38.4723,-1.9339 40.4708,-1.9503 42.0072,-1.9593 43.5155,-1.9642 45.011,-1.9668 46.4994,-1.9683 48.4308,-2.1948 50.6033,-2.5437 52.6834,-2.7335 54.7133,-2.8368 56.4925,-2.893 57.9118,-2.9235 59.3588,-2.9402 61.0443,-2.9492 62.6338,-2.9541 64.171,-2.9568 65.6822,-2.9583 66.9534,-2.9591 68.3176,-2.9595 70.1837,-2.9597 72.0972,-2.9598 73.8108,-2.9599 75.4178,-3.1834 76.9669,-3.5284 78.4823,-3.7161 79.9792,-3.8182 81.4684,-3.8737 82.7277,-3.904 84.0853,-3.9204 85.4988,-3.9293 86.9426,-3.9342 88.4029,-3.9368 89.8722,-3.9383 91.3441,-3.9391 92.8174,-3.9395 94.2937,-3.9397 95.546,-3.9398 96.8999,-3.9399 98.5347,-3.94 100.0989,-3.94 101.6247,-3.94 103.1274,-3.94 104.394,-3.94 105.7579,-3.94 107.6216,-3.94 109.983,-3.94 112.3916,-3.94 114.3745,-3.7166 116.128,-3.3716 117.9826,-3.1839 119.664,-3.0818 121.2514,-3.0263 122.7897,-2.996 124.3015,-2.9796 125.7965,-2.9707 127.2824,-2.9658 128.7656,-2.9632 130.2473,-2.9617 131.9517,-2.9609 133.7772,-2.9605 135.6686,-2.9603 137.3701,-2.9602 138.9683,-2.9601 140.5127,-2.96 141.8019,-2.96 143.1759,-2.96 144.5982,-2.96 146.0468,-2.96 147.5098,-2.96 148.9805,-2.96 150.4531,-2.96 151.9269,-2.96 153.4035,-2.96 154.8816,-2.96 156.3583,-2.96 157.8342,-2.96 159.312,-2.96 160.5651,-2.96 161.9194,-2.96 163.331,-2.96 164.7738,-2.96 166.2313,-2.96 167.4733,-2.96 168.8238,-2.96 170.4568,-2.96 172.0178,-2.96 173.5396,-2.96 175.0423,-2.96 176.5346,-2.96 178.0214,-2.96 179.505,-2.96 180.9847,-2.96 182.2389,-3.1834 183.596,-3.5284 185.0069,-3.7161 186.447,-3.8182 187.9053,-3.8737 189.3735,-4.1297 191.1458,-4.648 L192.11,-4.93 " stroke-linecap="round" fill="none" stroke="#f2f2f2" stroke-width="4.5" stroke-dasharray="0.1 9" stroke-dashoffset="0"/></g></g><g transform="matrix(1, 0, 0, 1, 1769.4696, 14143.6139)" opacity="1"><g transform="scale(1)"><path d="M0,0.99 Q0,4.5833 0,6.2333 T-0.2257,9.4557 -0.5742,12.5562 -0.9873,16.0395 -1.6238,20.3274 L-1.97,22.66 " stroke-linecap="round" fill="none" stroke="#f2f2f2" stroke-width="4.5" stroke-dasharray="none" stroke-dashoffset="0"/></g></g><g transform="matrix(1, 0, 0, 1, 1766.5141, 14161.3469)" opacity="1"><g transform="scale(1)"><path d="M0,0 Q3.1464,-0.8983 4.9005,-1.1427 T8.0581,-1.2965 10.6741,-1.1567 12.5464,-0.855 13.7884,-0.2394 14.9131,0.7704 15.7508,2.218 16.2064,3.6781 16.2286,4.9216 15.7915,6.0472 15.1045,6.8829 14.2817,7.5633 13.1614,8.1592 11.8771,8.4833 10.2802,8.4339 8.0909,8.0752 L6.9,7.88 " stroke-linecap="round" fill="none" stroke="#f2f2f2" stroke-width="4.5" stroke-dasharray="none" stroke-dashoffset="0"/></g></g><g transform="matrix(1, 0, 0, 1, 1662.0864, 14264.7894)" opacity="1"><g transform="scale(1)"><path d="M0,0 Q-3.5933,0.8983 -4.7964,1.3684 T-6.8774,2.3176 -8.4586,3.0574 -9.5445,3.6856 -10.3587,4.4765 -10.8016,6.0285 -10.5934,7.9968 -9.8052,9.5167 -8.7039,10.567 -7.4322,11.1384 -6.0655,11.4492 -4.6471,11.6183 -2.9772,11.7103 -1.3939,11.5369 0.1423,10.9934 1.6506,10.0228 2.9203,8.5965 3.8367,7.148 4.1095,6.1366 3.8088,5.3607 3.4217,5.162 3.4346,5.7288 3.6651,6.4863 4.0162,7.3476 4.882,8.2652 6.0257,9.2136 7.3204,9.9552 8.6996,10.5821 10.1248,11.1466 11.8639,11.5827 L12.81,11.82 " stroke-linecap="round" fill="none" stroke="#f2f2f2" stroke-width="4.5" stroke-dasharray="none" stroke-dashoffset="0"/></g></g><g transform="matrix(1, 0, 0, 1, 1613.8132, 14212.5756)" opacity="1"><g transform="scale(1)"><path d="M0,0 Q-2.695,8.0849 -3.6537,11.1823 T-5.134,16.6396 -6.1627,21.1815 -6.9458,25.2255 -7.3718,28.773 -7.6035,31.8245 -7.9553,34.6086 -8.3724,37.4707 -8.5993,40.1494 -8.7227,42.7306 -8.7899,45.4823 -8.8264,48.5501 -8.8463,51.7922 -8.8571,54.9057 -8.6373,57.9469 -8.292,60.9488 -8.1041,64.155 -7.7785,67.4701 -7.3779,70.8445 -7.16,74.2533 -6.8157,77.6809 -6.4027,81.1165 -5.9546,84.5586 -5.4874,88.4535 -5.0075,92.5924 -4.2973,96.6406 -3.6875,100.416 -3.13,104.043 -2.3776,107.8128 -1.5191,111.6601 -0.6007,115.5498 0.3481,119.2389 1.3134,122.819 2.2877,126.3375 3.2669,129.8225 4.4744,133.5149 5.8039,137.3203 7.1998,140.9636 9.0832,144.5188 11.2318,148.2494 13.2989,151.8521 15.3218,155.1594 17.3205,158.3061 19.0804,161.1419 20.7104,163.8064 22.272,166.3776 23.5707,168.9004 24.7263,171.6202 25.9399,174.6771 L26.6,176.34 " stroke-linecap="round" fill="none" stroke="#4dabf7" stroke-width="4.5" stroke-dasharray="none" stroke-dashoffset="0"/></g></g><g transform="matrix(1, 0, 0, 1, 1609.8726, 14213.5608)" opacity="1"><g transform="scale(1)"><path d="M0,0 Q-3.1464,2.2481 -4.2257,3.083 T-6.1178,4.5978 -7.5962,5.8711 -8.6239,7.0129 -8.9596,7.634 -8.4696,7.5227 -7.5281,6.7896 -6.5668,5.9416 -5.3713,5.2546 -4.046,4.4317 -2.8759,3.5349 -1.7902,2.3721 -0.7482,1.2904 0.2679,0.2528 1.2698,-0.7608 2.264,-1.0887 3.254,-0.5923 4.2417,0.3527 5.2281,1.3159 6.214,2.289 7.4228,3.7168 8.9948,5.7784 L9.85,6.9 " stroke-linecap="round" fill="none" stroke="#4dabf7" stroke-width="4.5" stroke-dasharray="none" stroke-dashoffset="0"/></g></g><g transform="matrix(1, 0, 0, 1, 1655.1902, 14373.1577)" opacity="1"><g transform="scale(1)"><path d="M0,0 Q0,5.3899 0,7.7543 T-0.2257,12.0798 -0.5742,15.5569 -0.7638,18.3467 -1.0904,20.9862 -1.6601,23.9809 L-1.97,25.61 " stroke-linecap="round" fill="none" stroke="#4dabf7" stroke-width="4.5" stroke-dasharray="none" stroke-dashoffset="0"/></g></g><g transform="matrix(1, 0, 0, 1, 1658.1457, 14388.9204)" opacity="1"><g transform="scale(1)"><path d="M0,0 Q2.695,0.8983 3.8771,1.1427 T5.9282,1.2965 7.7188,0.0327 8.9163,-1.7789 9.1187,-2.9901 8.5561,-3.8747 7.5752,-3.9067 6.5924,-3.2493 5.6086,-2.2168 4.6243,-0.7568 3.8654,1.1615 3.4525,3.3291 3.4514,5.4066 3.8999,7.2093 4.8188,8.4135 6.217,9.0685 7.8759,9.4249 9.7957,9.7002 L10.84,9.85 " stroke-linecap="round" fill="none" stroke="#4dabf7" stroke-width="4.5" stroke-dasharray="none" stroke-dashoffset="0"/></g></g><g transform="matrix(1, 0, 0, 1, 1675.8787, 14388.9204)" opacity="1"><g transform="scale(1)"><path d="M0,0 Q0.8983,3.1464 0.9192,4.2257 T1.6241,4.7703 2.9059,3.4956 4.0523,2.1273 5.3486,0.7081 6.7286,-0.7388 7.9285,-1.7517 9.0304,-2.3027 10.079,-2.1533 10.8729,-1.1714 11.3048,0.2634 11.5397,1.9422 11.6675,3.9772 11.7663,6.5049 L11.82,7.88 " stroke-linecap="round" fill="none" stroke="#4dabf7" stroke-width="4.5" stroke-dasharray="none" stroke-dashoffset="0"/></g></g><g transform="matrix(1, 0, 0, 1, 1701.4931, 14388.9204)" opacity="1"><g transform="scale(1)"><path d="M0,0 Q0,-1.3498 -0.2257,-1.4912 T-1.9217,-0.1363 -4.1918,2.8465 -4.9776,5.3675 -4.281,6.9646 -2.778,7.8335 -1.0621,8.3061 0.5463,8.3375 1.8704,7.9055 3.0398,7.2213 3.9018,6.1742 4.3706,4.7062 4.4,3.6842 3.9668,3.8031 3.5077,4.7661 3.2579,6.1883 3.3455,7.8603 4.0658,9.6682 5.1325,11.7735 6.3876,14.2662 7.9687,16.9697 9.5015,19.7879 10.7844,22.4451 11.7081,24.7889 12.2106,26.9622 12.2582,29.0429 11.8349,30.8496 10.9321,32.2816 9.5426,33.2841 7.6627,33.8294 5.516,34.1261 3.2241,34.064 0.6299,33.3577 -2.1289,32.0728 -4.9771,30.2498 -8.1331,27.8859 L-9.85,26.6 " stroke-linecap="round" fill="none" stroke="#4dabf7" stroke-width="4.5" stroke-dasharray="none" stroke-dashoffset="0"/></g></g><g transform="matrix(1, 0, 0, 1, 1720.2112, 14386.9501)" opacity="1"><g transform="scale(1)"><path d="M0,0 Q0.4514,-2.2481 0.3485,-2.8596 T-0.2596,-3.8037 -1.2652,-4.0916 -2.4872,-3.799 -4.4994,-1.6175 -6.7159,1.8173 -8.145,4.8076 -8.6991,7.3327 -8.3278,8.932 -7.2276,9.8021 -5.7307,10.2754 -4.0181,10.3071 -2.1859,9.6495 -0.2885,8.3935 1.642,6.8118 3.3648,4.8297 4.9745,2.1782 6.2994,-0.8374 7.0202,-4.0488 7.4123,-7.5925 7.6255,-11.0934 7.7416,-14.3454 7.5813,-17.2363 7.2706,-19.7072 6.8759,-21.7263 6.212,-23.0504 5.6274,-23.3215 5.3094,-22.5707 5.1364,-21.0382 5.0423,-18.8571 4.9911,-16.323 4.9632,-13.5971 4.9481,-10.7666 4.9398,-7.6537 4.9353,-4.387 5.1563,-1.2625 5.5,1.7847 6.1361,4.3407 7.2656,6.633 L7.88,7.88 " stroke-linecap="round" fill="none" stroke="#4dabf7" stroke-width="4.5" stroke-dasharray="none" stroke-dashoffset="0"/></g></g><g transform="matrix(1, 0, 0, 1, 1731.0481, 14390.8907)" opacity="1"><g transform="scale(1)"><path d="M0,0 Q3.1464,-0.4514 4.4514,-0.7977 T6.9154,-1.7814 8.9285,-3.4406 10.247,-5.2415 10.066,-6.4447 8.8457,-6.65 7.7328,-5.8634 6.6781,-4.5372 5.881,-2.9174 5.4473,-1.1379 5.2114,0.7285 5.0831,2.6421 5.2367,4.358 6.2186,5.5171 8.1002,6.1477 10.4713,6.4908 12.8852,6.4517 15.3883,6.1008 L16.75,5.91 " stroke-linecap="round" fill="none" stroke="#4dabf7" stroke-width="4.5" stroke-dasharray="none" stroke-dashoffset="0"/></g></g><g transform="matrix(1, 0, 0, 1, 1777.3509, 14382.0242)" opacity="1"><g transform="scale(1)"><path d="M0,0 Q0.4514,5.8414 0.5742,8.1028 T0.7638,11.8202 0.867,14.2916 0.9231,15.4104 1.177,15.1206 1.5386,13.8413 1.9611,11.7978 2.64,9.113 3.682,5.8558 4.9237,2.0615 6.0483,-2.0249 7.1093,-5.8189 8.1356,-9.2303 8.9174,-12.2101 9.3427,-14.9529 9.7997,-18.0159 10.4735,-21.6585 L10.84,-23.64 " stroke-linecap="round" fill="none" stroke="#4dabf7" stroke-width="4.5" stroke-dasharray="none" stroke-dashoffset="0"/></g></g><g transform="matrix(1, 0, 0, 1, 1801.9801, 14385.9649)" opacity="1"><g transform="scale(1)"><path d="M0,0 Q-0.8983,-2.2481 -1.5918,-2.6338 T-2.8883,-3.006 -4.0428,-2.5359 -5.3434,-1.3795 -6.7258,0.1501 -7.927,3.0024 -8.5804,6.3506 -8.2633,8.3978 -7.1925,9.5114 -5.7116,9.8915 -4.0077,9.6492 -2.4059,9.0681 -0.8597,8.0772 0.6564,6.4164 1.7068,4.3911 2.2783,2.6145 2.3634,1.648 2.184,1.7971 2.0864,2.5508 2.0333,3.8592 2.2302,5.4692 3.0121,6.7943 4.1101,7.7408 5.38,8.2557 6.9692,8.5358 8.835,8.7523 L9.85,8.87 " stroke-linecap="round" fill="none" stroke="#4dabf7" stroke-width="4.5" stroke-dasharray="none" stroke-dashoffset="0"/></g></g><g transform="matrix(1, 0, 0, 1, 1807.8911, 14367.2467)" opacity="1"><g transform="scale(1)"><path d="M0,0 Q3.1464,0.4514 4.0022,0.7977 T5.3236,1.558 5.1441,2.8699 4.1482,4.4819 3.3806,5.5846 2.5139,6.4078 2.2682,7.3049 3.482,8.0186 5.4898,8.4068 7.2546,8.618 9.113,8.7329 11.5074,8.8217 L12.81,8.87 " stroke-linecap="round" fill="none" stroke="#4dabf7" stroke-width="4.5" stroke-dasharray="none" stroke-dashoffset="0"/></g></g><g transform="matrix(1, 0, 0, 1, 1832.5202, 14378.0836)" opacity="1"><g transform="scale(1)"><path d="M0,0 Q0.4514,6.2882 0.7207,10.0391 L0.99,13.79 " stroke-linecap="round" fill="none" stroke="#4dabf7" stroke-width="4.5" stroke-dasharray="none" stroke-dashoffset="0"/></g></g><g transform="matrix(1, 0, 0, 1, 1837.4461, 14385.9649)" opacity="1"><g transform="scale(1)"><path d="M-0.99,0 Q-4.1318,-0.4514 -5.6613,-0.5742 T-9.0154,-0.8435 L-10.84,-0.99 " stroke-linecap="round" fill="none" stroke="#4dabf7" stroke-width="4.5" stroke-dasharray="none" stroke-dashoffset="0"/></g></g><g transform="matrix(1, 0, 0, 1, 1847.2977, 14372.1726)" opacity="1"><g transform="scale(1)"><path d="M0,0 Q0.4514,4.4916 0.3485,6.3882 T0.1896,9.7657 -0.1226,12.9505 -0.5181,15.8049 -0.9567,17.8068 -1.4188,18.6724 -1.4467,18.4684 -1.0127,17.4591 -0.1018,15.7883 1.0687,14.2044 2.6037,12.8937 4.5605,11.9572 6.5234,11.4478 8.266,11.3941 9.6632,12.2632 10.6467,14.0834 11.1817,15.972 11.2493,17.8977 10.6135,20.067 9.5928,21.6963 8.1391,22.5826 6.4501,23.0648 4.8563,22.8779 2.9869,22.0956 L1.97,21.67 " stroke-linecap="round" fill="none" stroke="#4dabf7" stroke-width="4.5" stroke-dasharray="none" stroke-dashoffset="0"/></g></g><g transform="matrix(1, 0, 0, 1, 1859.1197, 14366.2616)" opacity="1"><g transform="scale(1)"><path d="M0,0 Q3.1464,0 4.2257,0.4492 T5.892,1.3684 5.4511,2.7668 3.6403,4.2001 2.206,4.9798 1.4258,5.404 1.6762,5.6347 2.4851,5.986 3.5977,6.4028 4.8778,6.6295 6.4725,6.7529 8.2384,6.82 9.8739,7.0799 11.7755,7.5981 L12.81,7.88 " stroke-linecap="round" fill="none" stroke="#4dabf7" stroke-width="4.5" stroke-dasharray="none" stroke-dashoffset="0"/></g></g><g transform="matrix(1, 0, 0, 1, 1788.1877, 14356.4099)" opacity="1"><g transform="scale(1)"><path d="M0,0 Q3.5933,0 5.0198,0 T7.6715,0 9.789,0 12.2883,0 17.9161,0 25.0224,0 30.4591,0 34.7641,0 38.6793,-0.2257 42.6058,-0.5742 46.5384,-0.9873 50.0253,-1.4354 53.0439,-1.6792 56.0335,-1.5883 59.0096,-1.3155 61.7526,-1.1671 64.3666,-1.0863 67.1361,-1.2658 69.541,-1.5869 71.5219,-1.7616 73.7235,-1.8566 75.8195,-1.9083 78.0815,-1.9365 80.436,-1.9517 82.1661,-1.9601 83.7798,-1.7412 85.6647,-1.2547 L86.69,-0.99 " stroke-linecap="round" fill="none" stroke="#4dabf7" stroke-width="4.5" stroke-dasharray="none" stroke-dashoffset="0"/></g></g><g transform="matrix(1, 0, 0, 1, 1875.8675, 14357.3951)" opacity="1"><g transform="scale(1)"><path d="M0,0 Q1.3498,4.943 1.7169,6.7367 T2.522,10.6702 L2.96,12.81 " stroke-linecap="round" fill="none" stroke="#4dabf7" stroke-width="4.5" stroke-dasharray="none" stroke-dashoffset="0"/></g></g></svg>