<svg xmlns="http://www.w3.org/2000/svg" direction="ltr" width="436" height="455" viewBox="1167.8893986261369 5158 436 455" stroke-linecap="round" stroke-linejoin="round" style="background-color: transparent;"><defs/><g transform="matrix(1, 0, 0, 1, 1400, 5190)" opacity="1"><g transform="scale(1)"><path d="M0,0 Q0.456,0.456 0.58,0.808 T0.5435,1.5796 0.2957,2.4553 0.1609,3.3877 0.0875,4.3509 0.0476,5.3309 0.0259,6.548 0.0141,7.8941 0.0077,9.0824 0.0042,10.1848 0.0023,11.4685 0.0012,12.8509 0.0007,14.0589 0.0004,15.172 0.0002,16.4616 0.0001,17.8471 0.0001,19.0568 0,20.1709 0,21.461 0,22.8468 0,24.2846 0,25.7508 0,27.0045 0,28.3704 0,30.0255 0,31.6099 0,33.1558 0,34.6807 0,35.9663 0,37.3497 0,38.7862 0,40.2517 0,41.7329 0,42.9947 0,44.3651 0,45.7946 0,47.2563 0,48.9634 0,51.0321 0,53.0695 0,54.8618 0,56.5208 0,58.1073 0,59.6544 0,61.18 0,62.6939 0,64.2015 0,65.7056 0,67.2079 0,68.7091 0,70.2097 0,71.7101 0,73.2103 0,74.7104 0,76.2105 0,77.9385 0,79.5625 0,81.13 0,82.6667 0,83.9587 0,85.3455 0,87.012 0,88.6025 0,90.1518 0,91.6786 0,93.1931 0,94.9291 0,96.5574 0,98.1272 0,99.8932 0,101.5379 0,102.8886 0,104.3074 0,105.7632 0,107.2392 0,108.9541 0,110.571 0,111.9066 0,113.3172 0,114.9966 0,116.5941 0,118.1472 0,119.6761 0,121.1918 0,122.7003 0,124.205 0,125.7075 0,127.2089 0,128.7096 0,129.982 0,131.3582 0,132.7909 0,134.2542 0,135.7343 0,137.2235 0,138.9456 0,140.5664 0,142.1321 0,143.8959 0,145.7674 0,147.6974 0,149.6594 0,151.6387 0,153.6275 0,155.6213 0,157.618 0,159.6162 0,161.6152 0,163.6147 0,165.6144 0,167.6142 0,169.6141 0,171.6141 0,173.6141 0,175.6141 0,177.842 0,180.1941 0,182.3856 0,184.4898 0,186.7744 0,189.1573 0,191.3656 0,193.2509 -0.228,195.1885 -0.58,197.3825 -0.7715,199.7161 -0.8757,202.1256 -0.9324,204.3483 -0.9632,206.4695 -0.98,208.7634 -0.9891,211.1513 -0.9941,213.3623 -0.9968,215.4771 -0.9982,217.5395 -0.999,219.5735 -0.9995,221.82 -0.9997,224.1821 -0.9998,226.379 -0.9999,228.4862 -1,230.7725 -1,233.1562 -1,235.365 -1,237.4786 -1,239.5403 -1,241.5739 -1,243.5922 -1,245.6022 -1,247.6076 -1,249.8385 -1,252.1922 -1,254.6125 -1,257.0692 -1,259.5457 -1,262.0328 -1,264.2979 -1,266.67 -1,269.1005 -1,271.1067 -1,272.882 -1,274.7598 -1,276.4653 -1,278.0771 -1,279.866 -1,281.7511 -1,283.6886 -1,285.6546 -1,287.6361 -1,289.626 -1,291.6206 -1,293.3896 -1,295.0359 -1,296.8435 -1.228,298.5109 -1.58,300.1019 -1.7715,301.8794 -1.8757,303.7584 -1.9324,305.6926 -1.9632,307.6568 -1.98,309.6373 -1.9891,311.6267 -1.9941,313.6209 -1.9968,315.6178 -1.9982,317.6161 -1.999,319.6151 -1.7715,321.8426 -1.4197,324.1944 -1.2283,326.3858 -1.1242,328.7178 -1.0676,331.1265 -1.0368,333.3488 -1.02,335.6978 -1.0109,338.1156 -1.0059,340.3429 -1.0032,342.4665 -1.0018,344.5338 -1.001,346.5704 -1.0005,348.8183 -1.0003,351.1811 -1.0002,353.1505 -1.0001,355.1339 -1,357.1248 -1,358.8919 -1,360.7652 -1,362.6963 -1,364.4308 -1,366.0583 -1,367.8557 -1.228,369.7455 -1.58,371.6856 -1.7715,373.4249 -1.8757,374.8272 -1.9324,376.274 -1.9632,377.745 -1.98,379.0013 -1.9891,380.1407 -1.9941,381.2165 -1.9968,382.4858 -1.9982,383.8603 -1.999,385.064 -1.9995,386.1748 -2.2277,387.2351 -2.5799,388.4959 -2.852,390.1177 L-3,391 " stroke-linecap="round" fill="none" stroke="#9398b0" stroke-width="4.5" stroke-dasharray="none" stroke-dashoffset="0"/></g></g><g transform="matrix(1, 0, 0, 1, 1199.8894, 5480.9814)" opacity="1"><g transform="scale(1)"><path d="M0,0 Q2.28,0.456 3.1282,0.58 T4.6657,0.9995 5.9582,1.4557 7.1172,1.7039 8.2038,1.8389 9.0229,2.1404 9.6964,2.5324 10.5189,2.7456 11.4223,2.8616 12.3697,3.1527 13.3411,3.5391 14.3256,3.7493 15.3171,3.8636 16.3125,3.9258 17.31,3.9596 18.3086,3.978 19.3079,3.9881 20.5355,3.9935 21.8873,3.9965 23.0787,3.9981 24.1828,3.999 25.4674,3.9994 26.8503,3.9997 28.2866,3.9998 29.7519,3.9999 31.233,4 32.9508,4 34.7972,4.228 36.7137,4.58 38.4402,4.7715 40.0635,4.8757 41.8585,4.9324 43.747,4.9632 45.6864,4.98 47.6534,4.9891 49.6354,4.9941 51.3977,4.9968 53.0403,4.9982 54.8459,4.771 56.7402,4.4194 58.6827,4.2282 60.6514,4.1241 62.6343,4.0675 64.6251,4.0367 66.62,4.02 68.3893,4.0109 70.2638,4.0059 72.1955,3.7752 73.9304,3.4217 75.7861,3.2294 77.7076,3.1248 79.665,3.0679 81.6417,2.8089 83.6291,2.4401 85.6222,2.2394 87.6185,2.1302 89.6165,2.0708 91.6154,1.8105 93.6148,1.4409 95.6144,1.2399 97.6142,1.1305 99.6142,1.071 101.6141,0.8106 103.3861,0.441 105.262,0.2399 107.1945,0.1305 108.9298,0.071 110.7858,0.0386 112.7075,-0.207 114.6649,-0.5686 116.4137,-0.7653 117.821,-0.8723 119.4987,-0.9305 121.3233,-0.9622 122.9999,-0.9794 124.5959,-0.9888 126.1482,-0.9939 127.6766,-1.2247 129.1921,-1.5782 130.7005,-1.7706 131.9771,-1.8752 133.1275,-1.9321 134.4374,-1.9631 135.8339,-2.2079 137.0497,-2.5691 138.167,-2.7656 139.4589,-2.8725 140.8456,-2.9306 142.056,-2.9623 143.1705,-2.9795 144.4607,-2.9888 145.8466,-2.9939 147.2846,-3.2247 148.7508,-3.5782 150.2324,-3.7706 151.7224,-3.8752 153.217,-3.9321 154.9421,-3.9631 156.7925,-3.9799 158.4831,-3.9891 160.0868,-3.7661 161.8712,-3.4167 163.7539,-3.2267 165.6901,-3.1233 167.6554,-3.0671 169.6366,-3.0365 171.6263,-3.0199 173.6207,-3.0108 175.8457,-3.0059 178.196,-3.0032 180.1586,-3.0017 182.1383,-3.2289 184.3552,-3.5805 186.4732,-3.7718 188.5374,-3.8759 190.3444,-3.9325 192.4673,-3.9633 194.9902,-3.98 197.2747,-3.9891 199.4294,-3.9941 201.5136,-3.9968 203.3314,-3.9982 205.0043,-3.999 207.0543,-3.9995 209.5376,-3.9997 211.8004,-3.9998 213.9434,-3.9999 216.2492,-4 218.4156,-4 220.5061,-4 222.5553,-4 224.8101,-4 227.1767,-4 229.3761,-4 231.2566,-3.772 232.9636,-3.42 235.0322,-3.2285 237.2975,-3.1243 239.4418,-3.0676 241.5204,-3.0368 243.5631,-3.02 245.5863,-3.0109 247.599,-3.0059 249.6058,-3.0032 251.3816,-3.0018 252.8036,-3.001 254.4891,-2.7725 256.3181,-2.4203 258.225,-2.2286 260.4024,-2.1244 262.2709,-2.0677 263.7434,-2.0368 265.4564,-2.02 267.3003,-2.0109 268.9874,-2.0059 270.5891,-2.0032 272.1445,-2.0018 273.6746,-2.001 275.191,-2.0005 276.9279,-2.0003 278.5568,-2.0002 280.1269,-2.0001 281.893,-1.772 283.7658,-1.42 285.6966,-1.2285 287.4309,-1.1243 289.0584,-1.0676 290.8558,-1.0368 292.7455,-1.02 294.6856,-0.7829 296.425,-0.4259 298.2832,-0.2317 300.434,-0.126 302.5161,-0.0686 304.5608,-0.0373 306.5851,0.2077 308.5983,0.569 310.3775,0.7655 312.0293,0.8724 313.84,0.9306 315.5089,0.9623 317.3289,0.9795 319.4589,0.9888 321.3016,0.9939 322.9881,0.9967 324.8175,0.9982 326.7247,0.999 328.9023,0.9995 331.2268,0.9997 333.4034,0.9998 335.2714,0.9999 336.9717,1 338.8086,1 340.7199,1 342.4436,1 344.2933,1 346.2116,1 347.7111,1 349.4388,1 351.7467,1.228 353.9142,1.58 355.7773,1.7715 357.4749,1.8757 359.0823,1.9324 360.6408,1.9632 362.1726,1.98 363.6899,2.2171 364.9713,2.5741 366.1244,2.7683 367.2077,2.874 368.253,2.9314 369.5056,2.9627 371.1211,2.9869 L372,3 " stroke-linecap="round" fill="none" stroke="#9398b0" stroke-width="4.5" stroke-dasharray="none" stroke-dashoffset="0"/></g></g><g transform="matrix(1, 0, 0, 1, 1477.3393, 5473.8252) scale(1.1390052442627472, 1.1390052442627472)" opacity="1"><g transform="scale(0.8779590831886624)"><path d="M0,0 Q0.5198,0.5198 0.9212,1.1811 T1.5408,2.4619 1.8779,3.9362 2.3212,6.0355 3.0328,8.7651 L3.42,10.25 " stroke-linecap="round" fill="none" stroke="#9398b0" stroke-width="6.8340314655764836" stroke-dasharray="none" stroke-dashoffset="0"/></g></g><g transform="matrix(1, 0, 0, 1, 1317.8786, 5476.1032) scale(1.1390052442627472, 1.1390052442627472)" opacity="1"><g transform="scale(0.8779590831886624)"><path d="M0,0 Q0.5198,4.1542 0.6612,6.0639 T0.9713,10.2518 L1.14,12.53 " stroke-linecap="round" fill="none" stroke="#9398b0" stroke-width="6.8340314655764836" stroke-dasharray="none" stroke-dashoffset="0"/></g></g><g transform="matrix(1, 0, 0, 1, 1393.0949, 5400.0534) scale(0.9337271646778604, 0.9337271646778604)" opacity="1"><g transform="scale(1.0709766598094037)"><path d="M0,-0.93 Q3.8304,-0.93 5.2986,-0.93 T7.7776,-0.93 9.7646,-0.93 11.9054,-0.93 L13.07,-0.93 " stroke-linecap="round" fill="none" stroke="#9398b0" stroke-width="5.602362988067163" stroke-dasharray="none" stroke-dashoffset="0"/></g></g><g transform="matrix(1, 0, 0, 1, 1393.0949, 5319.7529) scale(0.9337271646778604, 0.9337271646778604)" opacity="1"><g transform="scale(1.0709766598094037)"><path d="M0,0 Q2.1295,0 3.1351,0 T5.1118,0 7.0376,0 9.15,0 11.3639,0 13.68,0 L14.94,0 " stroke-linecap="round" fill="none" stroke="#9398b0" stroke-width="5.602362988067163" stroke-dasharray="none" stroke-dashoffset="0"/></g></g><g transform="matrix(1, 0, 0, 1, 1235.295, 5484.0889) scale(0.9337271646778604, 0.9337271646778604)" opacity="1"><g transform="scale(1.0709766598094037)"><path d="M0,0 Q2.5536,-2.5536 3.4625,-3.4625 T5.0779,-5.0779 6.595,-6.3807 8.0588,-7.5158 9.4935,-8.7717 10.9123,-10.0933 12.3226,-11.453 13.7282,-12.831 15.1312,-14.2191 16.5329,-15.8246 17.9338,-17.5485 19.3365,-19.1269 20.526,-20.624 21.8115,-22.0768 23.1492,-23.2935 24.3009,-24.5938 25.3539,-25.9395 26.353,-27.098 27.535,-28.1545 28.8163,-29.1534 29.9398,-30.3352 30.9773,-31.6165 31.9658,-32.7398 32.9299,-33.7773 33.8807,-34.7681 34.8243,-35.7334 35.764,-36.6826 36.9136,-37.6253 38.1773,-38.5645 39.2889,-39.4996 40.32,-40.4346 41.3072,-41.3696 42.2706,-42.3046 43.2211,-43.4516 44.1622,-44.4997 45.1006,-45.4962 46.0374,-46.6767 46.9711,-47.7452 47.9054,-48.7529 48.84,-49.7251 49.7725,-50.4661 50.7062,-51.0835 51.6404,-51.8457 52.575,-52.6867 53.5098,-53.5706 54.4424,-54.4755 55.3761,-55.6061 56.3104,-56.8596 57.4571,-57.9679 58.7192,-58.9971 59.8322,-59.9834 60.8641,-60.9463 61.8494,-61.8942 62.5975,-62.8362 63.2188,-63.563 63.9832,-64.1704 64.823,-64.9249 65.7063,-65.5474 66.4011,-66.1003 66.9911,-66.8275 67.7384,-67.4351 68.5714,-67.98 69.4485,-68.7028 70.3521,-69.308 71.0579,-69.8493 71.866,-70.5701 72.7297,-71.3886 73.4138,-72.0459 74.0003,-72.6155 74.5314,-73.3517 75.2467,-73.9665 76.0622,-74.513 76.9299,-75.2367 77.8282,-76.0567 78.7433,-76.9269 79.6652,-77.8266 80.3788,-78.7424 80.9812,-79.4527 81.7354,-80.2654 82.6192,-81.499 L83.1,-82.17 " stroke-linecap="round" fill="none" stroke="#ffc034" stroke-width="5.602362988067163" stroke-dasharray="none" stroke-dashoffset="0"/></g></g><g transform="matrix(1, 0, 0, 1, 1320.2642, 5401.9209) scale(0.9337271646778604, 0.9337271646778604)" opacity="1"><g transform="scale(1.0709766598094037)"><path d="M0,-0.93 Q2.9822,-0.5059 4.0054,-0.3906 T5.7973,-0.2125 7.4105,-0.1156 8.9265,-0.0629 10.1775,-0.0342 11.4988,-0.0186 12.8559,-0.0101 14.2326,-0.0055 15.832,-0.003 17.5525,-0.0016 19.3412,0.2112 21.1669,0.5389 23.0106,0.7173 24.8639,0.8143 26.7249,0.867 28.59,0.8958 30.243,0.9114 31.9927,0.9199 33.7972,0.9245 35.2052,0.715 36.6096,0.3889 38.224,0.2116 39.9527,0.1151 41.7458,0.0626 43.574,0.0341 45.419,0.0185 47.2731,0.0101 48.9201,0.0055 50.6688,0.003 52.6849,-0.2104 54.42,-0.5385 55.7903,-0.717 57.3862,-0.8142 59.107,-0.867 60.6816,-0.8957 62.1765,-0.9114 63.8425,-0.9199 65.5993,-0.9245 67.4054,-0.927 69.2406,-0.9284 71.0917,-0.9291 72.9491,-0.9295 74.81,-0.9297 76.675,-0.9299 78.328,-0.9299 79.8656,-0.7179 81.3428,-0.3905 82.9968,-0.2125 84.747,-0.1156 86.5519,-0.0629 88.3864,-0.0342 90.2348,-0.0186 92.3029,-0.2222 94.2806,-0.5449 95.9972,-0.7205 97.9957,-1.0304 100.1454,-1.4132 102.1653,-1.6215 104.1169,-1.9469 106.0312,-2.3359 107.9231,-2.5475 109.8027,-2.6627 111.6779,-2.7253 113.5507,-2.7594 115.42,-2.7779 117.0753,-2.788 118.8285,-2.7935 120.847,-2.7964 122.7955,-2.7981 124.7059,-2.7989 126.5979,-2.5874 128.4799,-2.2603 130.3541,-2.0823 132.0121,-1.9855 133.5524,-1.7185 135.0287,-1.3589 136.4726,-1.1633 137.8964,-1.0569 139.5214,-0.9991 141.2558,-0.9676 142.6257,-0.9504 144.0116,-0.9411 145.404,-0.936 146.5855,-0.9333 147.8666,-0.9318 149.202,-0.931 150.3547,-0.9305 151.6203,-0.9303 152.9471,-0.9302 154.0953,-0.718 155.3583,-0.3906 156.8981,-0.2125 158.6934,-0.0749 L159.67,0 " stroke-linecap="round" fill="none" stroke="#ffc034" stroke-width="5.602362988067163" stroke-dasharray="none" stroke-dashoffset="0"/></g></g><g transform="matrix(1, 0, 0, 1, 1479.9315, 5400.9871) scale(0.9337271646778604, 0.9337271646778604)" opacity="1"><g transform="scale(1.0709766598094037)"><path d="M0,0 Q1.7009,-1.7009 2.3778,-2.3778 T3.6351,-3.6351 4.7454,-4.7454 5.7758,-5.7758 6.9747,-6.9747 8.2653,-8.2653 9.3915,-9.3915 10.4305,-10.4305 11.4221,-11.4221 12.3878,-12.5999 13.5516,-13.879 14.8231,-15.2133 15.9412,-16.5775 16.9735,-17.746 18.1735,-18.808 19.4669,-19.8121 20.5969,-20.9968 21.6357,-22.2796 22.8392,-23.4038 24.1323,-24.4395 25.2622,-25.4292 26.3031,-26.394 27.5078,-27.3452 28.8016,-28.289 29.9317,-29.4409 31.1849,-30.7059 32.5051,-31.8181 33.8639,-32.8495 35.2415,-33.837 36.6294,-35.0126 38.0227,-36.2905 39.4191,-37.6241 40.8172,-38.9879 42.2161,-40.1562 43.8298,-41.4325 45.3461,-42.7651 46.595,-43.9142 47.7008,-44.9656 48.7287,-45.964 49.712,-46.9312 50.8853,-48.0957 52.1642,-49.3676 53.2863,-50.4859 54.3209,-51.5206 55.31,-52.7219 56.2744,-54.0138 57.2232,-55.1429 58.3777,-56.1836 59.6464,-57.1737 60.763,-58.1388 61.7945,-59.0901 62.994,-60.034 64.2849,-60.9738 65.6256,-61.9091 66.9956,-62.8443 68.1673,-63.7794 69.2287,-64.7122 70.2325,-65.4317 71.2049,-66.0374 72.158,-66.7933 73.1028,-67.6308 73.8311,-68.5128 74.4394,-69.4167 75.1966,-70.3348 76.0349,-71.4726 76.915,-72.73 78.0322,-74.0547 79.501,-75.6838 L80.3,-76.57 " stroke-linecap="round" fill="none" stroke="#ffc034" stroke-width="5.602362988067163" stroke-dasharray="none" stroke-dashoffset="0"/></g></g></svg>