<svg xmlns="http://www.w3.org/2000/svg" direction="ltr" width="436" height="511.3703525795145" viewBox="2169.112570146434 5162.772566900441 436 511.3703525795145" stroke-linecap="round" stroke-linejoin="round" style="background-color: transparent;"><defs/><g transform="matrix(1, 0, 0, 1, 2401.2232, 5194.7726)" opacity="1"><g transform="scale(1)"><path d="M0,0 Q0.456,0.456 0.58,0.808 T0.5435,1.5796 0.2957,2.4553 0.1609,3.3877 0.0875,4.3509 0.0476,5.3309 0.0259,6.548 0.0141,7.8941 0.0077,9.0824 0.0042,10.1848 0.0023,11.4685 0.0012,12.8509 0.0007,14.0589 0.0004,15.172 0.0002,16.4616 0.0001,17.8471 0.0001,19.0568 0,20.1709 0,21.461 0,22.8468 0,24.2846 0,25.7508 0,27.0045 0,28.3704 0,30.0255 0,31.6099 0,33.1558 0,34.6807 0,35.9663 0,37.3497 0,38.7862 0,40.2517 0,41.7329 0,42.9947 0,44.3651 0,45.7946 0,47.2563 0,48.9634 0,51.0321 0,53.0695 0,54.8618 0,56.5208 0,58.1073 0,59.6544 0,61.18 0,62.6939 0,64.2015 0,65.7056 0,67.2079 0,68.7091 0,70.2097 0,71.7101 0,73.2103 0,74.7104 0,76.2105 0,77.9385 0,79.5625 0,81.13 0,82.6667 0,83.9587 0,85.3455 0,87.012 0,88.6025 0,90.1518 0,91.6786 0,93.1931 0,94.9291 0,96.5574 0,98.1272 0,99.8932 0,101.5379 0,102.8886 0,104.3074 0,105.7632 0,107.2392 0,108.9541 0,110.571 0,111.9066 0,113.3172 0,114.9966 0,116.5941 0,118.1472 0,119.6761 0,121.1918 0,122.7003 0,124.205 0,125.7075 0,127.2089 0,128.7096 0,129.982 0,131.3582 0,132.7909 0,134.2542 0,135.7343 0,137.2235 0,138.9456 0,140.5664 0,142.1321 0,143.8959 0,145.7674 0,147.6974 0,149.6594 0,151.6387 0,153.6275 0,155.6213 0,157.618 0,159.6162 0,161.6152 0,163.6147 0,165.6144 0,167.6142 0,169.6141 0,171.6141 0,173.6141 0,175.6141 0,177.842 0,180.1941 0,182.3856 0,184.4898 0,186.7744 0,189.1573 0,191.3656 0,193.2509 -0.228,195.1885 -0.58,197.3825 -0.7715,199.7161 -0.8757,202.1256 -0.9324,204.3483 -0.9632,206.4695 -0.98,208.7634 -0.9891,211.1513 -0.9941,213.3623 -0.9968,215.4771 -0.9982,217.5395 -0.999,219.5735 -0.9995,221.82 -0.9997,224.1821 -0.9998,226.379 -0.9999,228.4862 -1,230.7725 -1,233.1562 -1,235.365 -1,237.4786 -1,239.5403 -1,241.5739 -1,243.5922 -1,245.6022 -1,247.6076 -1,249.8385 -1,252.1922 -1,254.6125 -1,257.0692 -1,259.5457 -1,262.0328 -1,264.2979 -1,266.67 -1,269.1005 -1,271.1067 -1,272.882 -1,274.7598 -1,276.4653 -1,278.0771 -1,279.866 -1,281.7511 -1,283.6886 -1,285.6546 -1,287.6361 -1,289.626 -1,291.6206 -1,293.3896 -1,295.0359 -1,296.8435 -1.228,298.5109 -1.58,300.1019 -1.7715,301.8794 -1.8757,303.7584 -1.9324,305.6926 -1.9632,307.6568 -1.98,309.6373 -1.9891,311.6267 -1.9941,313.6209 -1.9968,315.6178 -1.9982,317.6161 -1.999,319.6151 -1.7715,321.8426 -1.4197,324.1944 -1.2283,326.3858 -1.1242,328.7178 -1.0676,331.1265 -1.0368,333.3488 -1.02,335.6978 -1.0109,338.1156 -1.0059,340.3429 -1.0032,342.4665 -1.0018,344.5338 -1.001,346.5704 -1.0005,348.8183 -1.0003,351.1811 -1.0002,353.1505 -1.0001,355.1339 -1,357.1248 -1,358.8919 -1,360.7652 -1,362.6963 -1,364.4308 -1,366.0583 -1,367.8557 -1.228,369.7455 -1.58,371.6856 -1.7715,373.4249 -1.8757,374.8272 -1.9324,376.274 -1.9632,377.745 -1.98,379.0013 -1.9891,380.1407 -1.9941,381.2165 -1.9968,382.4858 -1.9982,383.8603 -1.999,385.064 -1.9995,386.1748 -2.2277,387.2351 -2.5799,388.4959 -2.852,390.1177 L-3,391 " stroke-linecap="round" fill="none" stroke="#9398b0" stroke-width="4.5" stroke-dasharray="none" stroke-dashoffset="0"/></g></g><g transform="matrix(1, 0, 0, 1, 2201.1126, 5485.7539)" opacity="1"><g transform="scale(1)"><path d="M0,0 Q2.28,0.456 3.1282,0.58 T4.6657,0.9995 5.9582,1.4557 7.1172,1.7039 8.2038,1.8389 9.0229,2.1404 9.6964,2.5324 10.5189,2.7456 11.4223,2.8616 12.3697,3.1527 13.3411,3.5391 14.3256,3.7493 15.3171,3.8636 16.3125,3.9258 17.31,3.9596 18.3086,3.978 19.3079,3.9881 20.5355,3.9935 21.8873,3.9965 23.0787,3.9981 24.1828,3.999 25.4674,3.9994 26.8503,3.9997 28.2866,3.9998 29.7519,3.9999 31.233,4 32.9508,4 34.7972,4.228 36.7137,4.58 38.4402,4.7715 40.0635,4.8757 41.8585,4.9324 43.747,4.9632 45.6864,4.98 47.6534,4.9891 49.6354,4.9941 51.3977,4.9968 53.0403,4.9982 54.8459,4.771 56.7402,4.4194 58.6827,4.2282 60.6514,4.1241 62.6343,4.0675 64.6251,4.0367 66.62,4.02 68.3893,4.0109 70.2638,4.0059 72.1955,3.7752 73.9304,3.4217 75.7861,3.2294 77.7076,3.1248 79.665,3.0679 81.6417,2.8089 83.6291,2.4401 85.6222,2.2394 87.6185,2.1302 89.6165,2.0708 91.6154,1.8105 93.6148,1.4409 95.6144,1.2399 97.6142,1.1305 99.6142,1.071 101.6141,0.8106 103.3861,0.441 105.262,0.2399 107.1945,0.1305 108.9298,0.071 110.7858,0.0386 112.7075,-0.207 114.6649,-0.5686 116.4137,-0.7653 117.821,-0.8723 119.4987,-0.9305 121.3233,-0.9622 122.9999,-0.9794 124.5959,-0.9888 126.1482,-0.9939 127.6766,-1.2247 129.1921,-1.5782 130.7005,-1.7706 131.9771,-1.8752 133.1275,-1.9321 134.4374,-1.9631 135.8339,-2.2079 137.0497,-2.5691 138.167,-2.7656 139.4589,-2.8725 140.8456,-2.9306 142.056,-2.9623 143.1705,-2.9795 144.4607,-2.9888 145.8466,-2.9939 147.2846,-3.2247 148.7508,-3.5782 150.2324,-3.7706 151.7224,-3.8752 153.217,-3.9321 154.9421,-3.9631 156.7925,-3.9799 158.4831,-3.9891 160.0868,-3.7661 161.8712,-3.4167 163.7539,-3.2267 165.6901,-3.1233 167.6554,-3.0671 169.6366,-3.0365 171.6263,-3.0199 173.6207,-3.0108 175.8457,-3.0059 178.196,-3.0032 180.1586,-3.0017 182.1383,-3.2289 184.3552,-3.5805 186.4732,-3.7718 188.5374,-3.8759 190.3444,-3.9325 192.4673,-3.9633 194.9902,-3.98 197.2747,-3.9891 199.4294,-3.9941 201.5136,-3.9968 203.3314,-3.9982 205.0043,-3.999 207.0543,-3.9995 209.5376,-3.9997 211.8004,-3.9998 213.9434,-3.9999 216.2492,-4 218.4156,-4 220.5061,-4 222.5553,-4 224.8101,-4 227.1767,-4 229.3761,-4 231.2566,-3.772 232.9636,-3.42 235.0322,-3.2285 237.2975,-3.1243 239.4418,-3.0676 241.5204,-3.0368 243.5631,-3.02 245.5863,-3.0109 247.599,-3.0059 249.6058,-3.0032 251.3816,-3.0018 252.8036,-3.001 254.4891,-2.7725 256.3181,-2.4203 258.225,-2.2286 260.4024,-2.1244 262.2709,-2.0677 263.7434,-2.0368 265.4564,-2.02 267.3003,-2.0109 268.9874,-2.0059 270.5891,-2.0032 272.1445,-2.0018 273.6746,-2.001 275.191,-2.0005 276.9279,-2.0003 278.5568,-2.0002 280.1269,-2.0001 281.893,-1.772 283.7658,-1.42 285.6966,-1.2285 287.4309,-1.1243 289.0584,-1.0676 290.8558,-1.0368 292.7455,-1.02 294.6856,-0.7829 296.425,-0.4259 298.2832,-0.2317 300.434,-0.126 302.5161,-0.0686 304.5608,-0.0373 306.5851,0.2077 308.5983,0.569 310.3775,0.7655 312.0293,0.8724 313.84,0.9306 315.5089,0.9623 317.3289,0.9795 319.4589,0.9888 321.3016,0.9939 322.9881,0.9967 324.8175,0.9982 326.7247,0.999 328.9023,0.9995 331.2268,0.9997 333.4034,0.9998 335.2714,0.9999 336.9717,1 338.8086,1 340.7199,1 342.4436,1 344.2933,1 346.2116,1 347.7111,1 349.4388,1 351.7467,1.228 353.9142,1.58 355.7773,1.7715 357.4749,1.8757 359.0823,1.9324 360.6408,1.9632 362.1726,1.98 363.6899,2.2171 364.9713,2.5741 366.1244,2.7683 367.2077,2.874 368.253,2.9314 369.5056,2.9627 371.1211,2.9869 L372,3 " stroke-linecap="round" fill="none" stroke="#9398b0" stroke-width="4.5" stroke-dasharray="none" stroke-dashoffset="0"/></g></g><g transform="matrix(1, 0, 0, 1, 2478.5625, 5478.5977) scale(1.1390052442627472, 1.1390052442627472)" opacity="1"><g transform="scale(0.8779590831886624)"><path d="M0,0 Q0.5198,0.5198 0.9212,1.1811 T1.5408,2.4619 1.8779,3.9362 2.3212,6.0355 3.0328,8.7651 L3.42,10.25 " stroke-linecap="round" fill="none" stroke="#9398b0" stroke-width="6.8340314655764836" stroke-dasharray="none" stroke-dashoffset="0"/></g></g><g transform="matrix(1, 0, 0, 1, 2319.1018, 5480.8758) scale(1.1390052442627472, 1.1390052442627472)" opacity="1"><g transform="scale(0.8779590831886624)"><path d="M0,0 Q0.5198,4.1542 0.6612,6.0639 T0.9713,10.2518 L1.14,12.53 " stroke-linecap="round" fill="none" stroke="#9398b0" stroke-width="6.8340314655764836" stroke-dasharray="none" stroke-dashoffset="0"/></g></g><g transform="matrix(1, 0, 0, 1, 2390.3995, 5403.9546) scale(1.309214549226295, 1.309214549226295)" opacity="1"><g transform="scale(0.7638167484397181)"><path d="M 0 0 m -0.5, 0 a 0.5,0.5 0 1,0 1,0 a 0.5,0.5 0 1,0 -1,0" stroke-linecap="round" fill="#9398b0" stroke="#9398b0" stroke-width="7.85528729535777" stroke-dasharray="none" stroke-dashoffset="0"/></g></g><g transform="matrix(1, 0, 0, 1, 2390.3995, 5402.6454) scale(1.309214549226295, 1.309214549226295)" opacity="1"><g transform="scale(0.7638167484397181)"><path d="M0,0 Q4.7743,-0.5974 7.6222,-0.9537 L10.47,-1.31 " stroke-linecap="round" fill="none" stroke="#9398b0" stroke-width="7.85528729535777" stroke-dasharray="none" stroke-dashoffset="0"/></g></g><g transform="matrix(1, 0, 0, 1, 2393.0179, 5320.1648) scale(1.309214549226295, 1.309214549226295)" opacity="1"><g transform="scale(0.7638167484397181)"><path d="M0,0 Q2.9868,1.1947 4.3943,1.5197 T6.8661,2.0214 9.1069,1.9957 11.6866,1.5516 L13.09,1.31 " stroke-linecap="round" fill="none" stroke="#9398b0" stroke-width="7.85528729535777" stroke-dasharray="none" stroke-dashoffset="0"/></g></g><g transform="matrix(1, 0, 0, 1, 2393.0179, 5237.6843) scale(1.309214549226295, 1.309214549226295)" opacity="1"><g transform="scale(0.7638167484397181)"><path d="M0,0 Q2.9868,1.1947 4.3943,1.221 T7.4809,1.2786 L9.16,1.31 " stroke-linecap="round" fill="none" stroke="#9398b0" stroke-width="7.85528729535777" stroke-dasharray="none" stroke-dashoffset="0"/></g></g><g transform="matrix(1, 0, 0, 1, 2389.0903, 5558.4419) scale(1.309214549226295, 1.309214549226295)" opacity="1"><g transform="scale(0.7638167484397181)"><path d="M0,0 Q3.5842,1.1947 5.1541,1.5197 T7.8768,1.7227 10.254,1.5345 13.0406,1.1335 16.4664,0.3994 L18.33,0 " stroke-linecap="round" fill="none" stroke="#9398b0" stroke-width="7.85528729535777" stroke-dasharray="none" stroke-dashoffset="0"/></g></g><g transform="matrix(1, 0, 0, 1, 2480.2464, 5402.8529) scale(1.0054047346230939, 1.0054047346230939)" opacity="1"><g transform="scale(0.9946243195034088)"><path d="M0,0 Q3.2102,-0.4606 4.5417,-0.5858 T6.8255,-0.7793 8.5261,-0.8845 10.1399,-0.7114 11.7063,-0.387 13.247,-0.2105 14.7714,0.1157 16.287,0.5235 18.028,0.7454 19.6637,1.094 21.242,1.5117 22.7892,1.7389 24.3195,2.0928 25.8382,2.5156 27.1227,2.9736 28.2797,3.681 29.5954,4.2962 30.7694,4.8588 31.6384,5.3929 32.7996,5.9137 34.1176,6.6553 35.2929,7.517 36.3928,8.444 37.4495,9.4066 38.4825,10.1606 39.5028,11.029 40.5161,12.19 41.5257,13.2798 42.5331,14.1007 43.3115,14.7775 43.9629,15.604 44.7755,16.7399 45.6759,18.0464 46.624,19.2154 47.598,20.3096 48.5861,21.1352 49.354,21.8122 50.002,22.6389 50.8128,23.7771 51.7121,25.0849 52.6596,26.2546 53.4031,27.3492 53.8075,28.4029 54.2578,29.4344 54.961,30.4538 55.5716,31.6947 56.134,33.0583 56.6703,34.2583 57.19,35.5997 57.931,37.2483 58.5644,38.8314 59.1369,40.1509 59.9067,41.327 60.5557,42.425 61.1391,43.7109 61.9147,45.0967 62.5646,46.3089 63.1485,47.6569 63.9244,49.3067 64.8047,51.1208 65.7419,53.0243 66.4798,54.7483 67.1114,56.3747 67.9133,58.176 68.5776,60.0725 69.1692,61.7928 69.7213,63.1869 70.2497,64.4035 70.7651,65.754 71.2758,67.4052 72.0119,68.9897 72.6403,70.3099 73.2124,71.4865 73.754,72.815 74.2788,74.4566 74.7946,76.0359 75.3032,77.5813 75.8079,79.3386 76.3128,81.2111 76.8177,82.9183 77.0923,84.7659 77.4697,86.6875 77.9031,88.4192 78.1388,90.2778 78.4973,91.9774 78.9226,93.5905 79.154,95.3846 79.2798,97.2772 79.5763,98.9953 79.9656,100.6185 80.1774,102.4181 80.2926,104.3137 80.3552,106.2614 80.3893,108.0072 80.4079,109.6455 80.418,111.2253 80.6537,112.771 81.0123,114.5284 81.2073,116.401 81.3134,118.3363 81.3711,120.3056 81.4025,122.2958 81.4196,124.067 81.4289,125.4888 81.662,126.7205 82.0168,128.0769 82.2098,129.7313 82.3147,131.3199 82.3719,132.8726 82.4029,134.6339 82.4198,136.5085 82.6593,138.2169 83.0199,139.8348 83.216,141.6316 83.3227,143.5255 83.3808,145.2421 83.4123,146.8645 83.4295,148.6659 83.4389,150.5625 83.4439,152.2805 83.4467,153.6733 83.6762,154.8893 84.0291,156.4674 84.221,158.4727 84.3254,160.4802 84.3822,162.4888 84.6434,164.498 85.0158,166.7379 85.2183,169.3335 85.3285,172.1203 85.6165,174.5529 86.0011,176.5648 86.2104,178.8039 86.3242,181.1665 86.3861,183.5986 86.6501,186.0685 87.024,188.3286 87.2274,190.705 87.338,193.1446 87.3982,195.158 87.4309,196.9419 87.679,198.6009 88.0443,199.9616 88.243,201.6184 88.3511,203.8946 88.4099,206.2797 88.4418,208.724 88.4592,211.2005 88.4687,213.6923 88.4739,216.1924 88.4767,218.9296 88.4782,222.254 88.707,225.4373 89.0595,228.3136 89.2512,231.0229 89.5858,233.8739 90.1714,237.3817 L90.49,239.29 " stroke-linecap="round" fill="none" stroke="#e599f7" stroke-width="6.032428407738563" stroke-dasharray="none" stroke-dashoffset="0"/></g></g><g transform="matrix(1, 0, 0, 1, 2483.2627, 5403.8583) scale(1.0054047346230939, 1.0054047346230939)" opacity="1"><g transform="scale(0.9946243195034088)"><path d="M0,-1.01 Q-3.2102,-1.01 -4.5417,-1.01 T-6.8255,-0.7797 -8.7541,-0.4242 -10.7222,-0.0005 -12.7116,0.6883 -14.4802,1.5213 -16.1285,2.2047 -17.7138,2.8045 -19.2647,3.589 -20.5667,4.4741 -21.7333,5.1836 -23.0565,5.7998 -24.0066,6.5934 -24.7514,7.253 -25.6149,8.0702 -26.5429,8.973 -27.506,9.9224 -28.4882,11.1274 -29.7088,12.2435 -30.8311,13.309 -31.6719,14.3468 -32.5876,15.1417 -33.544,15.8021 -34.5226,16.6197 -35.5132,17.5227 -36.5127,18.7002 -37.5146,20.0294 -38.518,21.2107 -39.5221,22.3116 -40.5266,23.3711 -41.5314,24.4057 -42.5362,25.6548 -43.5411,26.7926 -44.3158,27.6419 -44.9675,28.7924 -45.7803,30.3349 -46.6808,32.0905 -47.6289,33.5039 -48.3727,34.5008 -49.0076,35.7316 -49.8135,37.32 -50.7102,38.8704 -51.6563,40.1721 -52.4013,41.3385 -53.0345,42.4313 -53.8373,43.7144 -54.7323,45.0986 -55.6774,46.5379 -56.6499,48.0095 -57.6372,49.2706 -58.4045,50.4149 -59.05,51.4956 -59.8594,52.5419 -60.7603,53.5693 -61.4806,54.5865 -62.1005,55.5981 -62.896,56.6067 -63.787,57.6137 -64.73,58.8501 -65.7013,60.2112 -66.6879,61.4099 -67.683,62.5203 -68.6825,63.5827 -69.6846,64.3886 -70.688,65.0573 -71.6921,65.8793 -72.6966,66.7848 -73.7036,67.7356 -74.7097,68.4809 -75.9433,69.1166 -77.531,69.9207 -79.0832,70.8164 -80.6162,71.534 -82.1364,72.1523 -83.6497,72.7167 -85.3917,73.0237 -87.2583,73.1907 -88.9599,73.2816 -90.5719,73.331 -92.1374,73.3579 -93.6776,73.1445 -95.2017,72.5702 -96.4891,72.0275 -97.8781,71.7322 -99.3222,71.3436 -100.5661,70.9042 -101.701,70.4349 -102.7767,69.9493 -103.8202,69.2269 -104.8461,68.1476 -105.8625,67.3324 -106.6457,66.6587 -107.2997,65.1454 -108.1289,62.6743 L-108.58,61.33 " stroke-linecap="round" fill="none" stroke="#e599f7" stroke-width="6.032428407738563" stroke-dasharray="none" stroke-dashoffset="0"/></g></g><g transform="matrix(1, 0, 0, 1, 2275.1439, 5257.0692) scale(1.0054047346230939, 1.0054047346230939)" opacity="1"><g transform="scale(0.9946243195034088)"><path d="M0,0 Q0.9166,3.2102 1.1659,4.3114 T1.7811,6.4699 2.346,8.3327 2.8814,9.8044 3.4006,11.0632 3.9133,12.2086 4.6505,13.5202 5.2796,14.92 5.852,16.1398 6.6218,17.2617 7.2685,18.5582 7.8506,20.1801 8.6255,21.9813 9.5054,23.6496 10.2143,25.2435 10.8279,27.0272 11.3898,28.686 11.9257,30.277 12.4475,31.8288 12.9616,33.3592 13.6996,35.1106 14.5593,36.7519 15.2573,38.3311 15.865,40.1067 16.6539,41.7612 17.3133,43.3498 17.672,44.9003 18.0952,46.202 18.7837,47.3685 19.3885,48.6916 19.9455,50.3302 20.4765,51.9079 20.9957,53.4524 21.5084,54.9812 22.0153,56.5014 22.7493,58.245 23.3789,59.882 23.9517,61.2309 24.4936,62.4229 25.0163,63.7599 25.759,65.4038 26.6213,67.2147 27.5487,68.8861 28.5114,70.7119 29.4935,72.8519 30.486,74.7047 31.4842,76.6292 32.4855,78.8206 33.4885,80.9293 34.4924,82.765 35.2665,84.4522 35.9179,86.2866 36.7328,88.2011 37.6344,90.1591 38.3529,91.9128 38.974,93.3251 39.7702,95.01 40.6616,96.8454 41.3768,98.5324 41.9938,100.1364 42.7878,101.4673 43.45,102.8799 44.0382,104.5648 44.8165,106.1678 45.6982,107.9563 46.6361,110.0761 47.6046,111.9178 48.3595,113.6083 49.0004,115.4445 49.8096,117.3599 50.7081,119.5465 51.6552,121.8828 52.6287,124.0726 53.6165,126.1804 54.6122,128.4716 55.3818,130.6346 56.0308,132.4998 56.8421,134.4311 57.7417,136.3982 58.6894,138.3849 59.433,140.1542 60.0677,141.8053 60.8736,143.62 61.5423,145.2935 62.134,146.8925 62.684,148.4509 63.2134,149.7569 63.7317,150.9257 64.2416,152.2478 64.7471,153.6555 65.2523,154.8797 65.9854,156.4621 66.8425,158.2396 67.539,159.6648 68.146,161.1286 68.9344,162.8415 69.8216,164.6899 70.5322,166.384 71.1491,167.9941 71.9429,169.7866 72.8331,171.4503 73.5476,172.8136 74.1666,174.0135 74.9616,175.3548 75.8523,177.0011 76.7952,178.8132 77.7664,180.2573 78.525,181.2708 79.1657,182.5085 79.9725,184.1006 80.8697,185.8856 81.816,187.5429 82.5611,188.9027 83.1944,190.331 83.9973,191.7943 84.8923,193.2766 85.8374,194.9996 86.8122,196.3951 87.5727,197.3846 88.2144,198.3834 89.0218,199.6153 89.9193,200.9718 90.8658,202.168 91.839,203.277 92.8267,204.3386 93.8223,205.6046 94.8222,206.9796 95.8244,208.1859 96.8279,209.3004 97.8343,210.365 98.8401,211.6327 99.8455,213.0109 100.8508,214.2189 101.8559,215.104 103.0912,215.8158 104.4496,216.6613 105.6468,217.5796 106.7563,218.3094 107.5879,218.9344 108.4986,219.5024 109.4523,220.0417 110.4316,220.5653 111.653,221.0782 113.0037,221.5852 114.655,221.861 116.2419,222.011 117.5634,222.3229 118.9686,222.7229 120.4216,222.9404 121.9006,223.0588 123.3937,222.8929 124.6643,222.3444 126.5,221.3597 129.2202,219.948 L130.7,219.18 " stroke-linecap="round" fill="none" stroke="#e599f7" stroke-width="6.032428407738563" stroke-dasharray="none" stroke-dashoffset="0"/></g></g></svg>