<svg xmlns="http://www.w3.org/2000/svg" direction="ltr" width="441.41321384737785" height="455" viewBox="1689.1125701464339 5162.772566900441 441.41321384737785 455" stroke-linecap="round" stroke-linejoin="round" style="background-color: transparent;"><defs/><g transform="matrix(1, 0, 0, 1, 1921.2232, 5194.7726)" opacity="1"><g transform="scale(1)"><path d="M0,0 Q0.456,0.456 0.58,0.808 T0.5435,1.5796 0.2957,2.4553 0.1609,3.3877 0.0875,4.3509 0.0476,5.3309 0.0259,6.548 0.0141,7.8941 0.0077,9.0824 0.0042,10.1848 0.0023,11.4685 0.0012,12.8509 0.0007,14.0589 0.0004,15.172 0.0002,16.4616 0.0001,17.8471 0.0001,19.0568 0,20.1709 0,21.461 0,22.8468 0,24.2846 0,25.7508 0,27.0045 0,28.3704 0,30.0255 0,31.6099 0,33.1558 0,34.6807 0,35.9663 0,37.3497 0,38.7862 0,40.2517 0,41.7329 0,42.9947 0,44.3651 0,45.7946 0,47.2563 0,48.9634 0,51.0321 0,53.0695 0,54.8618 0,56.5208 0,58.1073 0,59.6544 0,61.18 0,62.6939 0,64.2015 0,65.7056 0,67.2079 0,68.7091 0,70.2097 0,71.7101 0,73.2103 0,74.7104 0,76.2105 0,77.9385 0,79.5625 0,81.13 0,82.6667 0,83.9587 0,85.3455 0,87.012 0,88.6025 0,90.1518 0,91.6786 0,93.1931 0,94.9291 0,96.5574 0,98.1272 0,99.8932 0,101.5379 0,102.8886 0,104.3074 0,105.7632 0,107.2392 0,108.9541 0,110.571 0,111.9066 0,113.3172 0,114.9966 0,116.5941 0,118.1472 0,119.6761 0,121.1918 0,122.7003 0,124.205 0,125.7075 0,127.2089 0,128.7096 0,129.982 0,131.3582 0,132.7909 0,134.2542 0,135.7343 0,137.2235 0,138.9456 0,140.5664 0,142.1321 0,143.8959 0,145.7674 0,147.6974 0,149.6594 0,151.6387 0,153.6275 0,155.6213 0,157.618 0,159.6162 0,161.6152 0,163.6147 0,165.6144 0,167.6142 0,169.6141 0,171.6141 0,173.6141 0,175.6141 0,177.842 0,180.1941 0,182.3856 0,184.4898 0,186.7744 0,189.1573 0,191.3656 0,193.2509 -0.228,195.1885 -0.58,197.3825 -0.7715,199.7161 -0.8757,202.1256 -0.9324,204.3483 -0.9632,206.4695 -0.98,208.7634 -0.9891,211.1513 -0.9941,213.3623 -0.9968,215.4771 -0.9982,217.5395 -0.999,219.5735 -0.9995,221.82 -0.9997,224.1821 -0.9998,226.379 -0.9999,228.4862 -1,230.7725 -1,233.1562 -1,235.365 -1,237.4786 -1,239.5403 -1,241.5739 -1,243.5922 -1,245.6022 -1,247.6076 -1,249.8385 -1,252.1922 -1,254.6125 -1,257.0692 -1,259.5457 -1,262.0328 -1,264.2979 -1,266.67 -1,269.1005 -1,271.1067 -1,272.882 -1,274.7598 -1,276.4653 -1,278.0771 -1,279.866 -1,281.7511 -1,283.6886 -1,285.6546 -1,287.6361 -1,289.626 -1,291.6206 -1,293.3896 -1,295.0359 -1,296.8435 -1.228,298.5109 -1.58,300.1019 -1.7715,301.8794 -1.8757,303.7584 -1.9324,305.6926 -1.9632,307.6568 -1.98,309.6373 -1.9891,311.6267 -1.9941,313.6209 -1.9968,315.6178 -1.9982,317.6161 -1.999,319.6151 -1.7715,321.8426 -1.4197,324.1944 -1.2283,326.3858 -1.1242,328.7178 -1.0676,331.1265 -1.0368,333.3488 -1.02,335.6978 -1.0109,338.1156 -1.0059,340.3429 -1.0032,342.4665 -1.0018,344.5338 -1.001,346.5704 -1.0005,348.8183 -1.0003,351.1811 -1.0002,353.1505 -1.0001,355.1339 -1,357.1248 -1,358.8919 -1,360.7652 -1,362.6963 -1,364.4308 -1,366.0583 -1,367.8557 -1.228,369.7455 -1.58,371.6856 -1.7715,373.4249 -1.8757,374.8272 -1.9324,376.274 -1.9632,377.745 -1.98,379.0013 -1.9891,380.1407 -1.9941,381.2165 -1.9968,382.4858 -1.9982,383.8603 -1.999,385.064 -1.9995,386.1748 -2.2277,387.2351 -2.5799,388.4959 -2.852,390.1177 L-3,391 " stroke-linecap="round" fill="none" stroke="#9398b0" stroke-width="4.5" stroke-dasharray="none" stroke-dashoffset="0"/></g></g><g transform="matrix(1, 0, 0, 1, 1721.1126, 5485.7539)" opacity="1"><g transform="scale(1)"><path d="M0,0 Q2.28,0.456 3.1282,0.58 T4.6657,0.9995 5.9582,1.4557 7.1172,1.7039 8.2038,1.8389 9.0229,2.1404 9.6964,2.5324 10.5189,2.7456 11.4223,2.8616 12.3697,3.1527 13.3411,3.5391 14.3256,3.7493 15.3171,3.8636 16.3125,3.9258 17.31,3.9596 18.3086,3.978 19.3079,3.9881 20.5355,3.9935 21.8873,3.9965 23.0787,3.9981 24.1828,3.999 25.4674,3.9994 26.8503,3.9997 28.2866,3.9998 29.7519,3.9999 31.233,4 32.9508,4 34.7972,4.228 36.7137,4.58 38.4402,4.7715 40.0635,4.8757 41.8585,4.9324 43.747,4.9632 45.6864,4.98 47.6534,4.9891 49.6354,4.9941 51.3977,4.9968 53.0403,4.9982 54.8459,4.771 56.7402,4.4194 58.6827,4.2282 60.6514,4.1241 62.6343,4.0675 64.6251,4.0367 66.62,4.02 68.3893,4.0109 70.2638,4.0059 72.1955,3.7752 73.9304,3.4217 75.7861,3.2294 77.7076,3.1248 79.665,3.0679 81.6417,2.8089 83.6291,2.4401 85.6222,2.2394 87.6185,2.1302 89.6165,2.0708 91.6154,1.8105 93.6148,1.4409 95.6144,1.2399 97.6142,1.1305 99.6142,1.071 101.6141,0.8106 103.3861,0.441 105.262,0.2399 107.1945,0.1305 108.9298,0.071 110.7858,0.0386 112.7075,-0.207 114.6649,-0.5686 116.4137,-0.7653 117.821,-0.8723 119.4987,-0.9305 121.3233,-0.9622 122.9999,-0.9794 124.5959,-0.9888 126.1482,-0.9939 127.6766,-1.2247 129.1921,-1.5782 130.7005,-1.7706 131.9771,-1.8752 133.1275,-1.9321 134.4374,-1.9631 135.8339,-2.2079 137.0497,-2.5691 138.167,-2.7656 139.4589,-2.8725 140.8456,-2.9306 142.056,-2.9623 143.1705,-2.9795 144.4607,-2.9888 145.8466,-2.9939 147.2846,-3.2247 148.7508,-3.5782 150.2324,-3.7706 151.7224,-3.8752 153.217,-3.9321 154.9421,-3.9631 156.7925,-3.9799 158.4831,-3.9891 160.0868,-3.7661 161.8712,-3.4167 163.7539,-3.2267 165.6901,-3.1233 167.6554,-3.0671 169.6366,-3.0365 171.6263,-3.0199 173.6207,-3.0108 175.8457,-3.0059 178.196,-3.0032 180.1586,-3.0017 182.1383,-3.2289 184.3552,-3.5805 186.4732,-3.7718 188.5374,-3.8759 190.3444,-3.9325 192.4673,-3.9633 194.9902,-3.98 197.2747,-3.9891 199.4294,-3.9941 201.5136,-3.9968 203.3314,-3.9982 205.0043,-3.999 207.0543,-3.9995 209.5376,-3.9997 211.8004,-3.9998 213.9434,-3.9999 216.2492,-4 218.4156,-4 220.5061,-4 222.5553,-4 224.8101,-4 227.1767,-4 229.3761,-4 231.2566,-3.772 232.9636,-3.42 235.0322,-3.2285 237.2975,-3.1243 239.4418,-3.0676 241.5204,-3.0368 243.5631,-3.02 245.5863,-3.0109 247.599,-3.0059 249.6058,-3.0032 251.3816,-3.0018 252.8036,-3.001 254.4891,-2.7725 256.3181,-2.4203 258.225,-2.2286 260.4024,-2.1244 262.2709,-2.0677 263.7434,-2.0368 265.4564,-2.02 267.3003,-2.0109 268.9874,-2.0059 270.5891,-2.0032 272.1445,-2.0018 273.6746,-2.001 275.191,-2.0005 276.9279,-2.0003 278.5568,-2.0002 280.1269,-2.0001 281.893,-1.772 283.7658,-1.42 285.6966,-1.2285 287.4309,-1.1243 289.0584,-1.0676 290.8558,-1.0368 292.7455,-1.02 294.6856,-0.7829 296.425,-0.4259 298.2832,-0.2317 300.434,-0.126 302.5161,-0.0686 304.5608,-0.0373 306.5851,0.2077 308.5983,0.569 310.3775,0.7655 312.0293,0.8724 313.84,0.9306 315.5089,0.9623 317.3289,0.9795 319.4589,0.9888 321.3016,0.9939 322.9881,0.9967 324.8175,0.9982 326.7247,0.999 328.9023,0.9995 331.2268,0.9997 333.4034,0.9998 335.2714,0.9999 336.9717,1 338.8086,1 340.7199,1 342.4436,1 344.2933,1 346.2116,1 347.7111,1 349.4388,1 351.7467,1.228 353.9142,1.58 355.7773,1.7715 357.4749,1.8757 359.0823,1.9324 360.6408,1.9632 362.1726,1.98 363.6899,2.2171 364.9713,2.5741 366.1244,2.7683 367.2077,2.874 368.253,2.9314 369.5056,2.9627 371.1211,2.9869 L372,3 " stroke-linecap="round" fill="none" stroke="#9398b0" stroke-width="4.5" stroke-dasharray="none" stroke-dashoffset="0"/></g></g><g transform="matrix(1, 0, 0, 1, 1998.5625, 5478.5977) scale(1.1390052442627472, 1.1390052442627472)" opacity="1"><g transform="scale(0.8779590831886624)"><path d="M0,0 Q0.5198,0.5198 0.9212,1.1811 T1.5408,2.4619 1.8779,3.9362 2.3212,6.0355 3.0328,8.7651 L3.42,10.25 " stroke-linecap="round" fill="none" stroke="#9398b0" stroke-width="6.8340314655764836" stroke-dasharray="none" stroke-dashoffset="0"/></g></g><g transform="matrix(1, 0, 0, 1, 1839.1018, 5480.8758) scale(1.1390052442627472, 1.1390052442627472)" opacity="1"><g transform="scale(0.8779590831886624)"><path d="M0,0 Q0.5198,4.1542 0.6612,6.0639 T0.9713,10.2518 L1.14,12.53 " stroke-linecap="round" fill="none" stroke="#9398b0" stroke-width="6.8340314655764836" stroke-dasharray="none" stroke-dashoffset="0"/></g></g><g transform="matrix(1, 0, 0, 1, 1761.4503, 5561.5882) scale(0.9337271646778604, 0.9337271646778604)" opacity="1"><g transform="scale(1.0709766598094037)"><path d="M0,0 Q0.4241,-2.1295 0.7537,-3.1351 T1.4748,-4.8998 2.0791,-6.4982 2.6199,-7.794 3.1261,-8.9231 3.6158,-9.9614 4.0965,-10.7405 4.358,-11.805 4.7123,-12.8105 5.1171,-13.7816 5.5516,-14.9482 6.0023,-16.0092 6.4595,-17.0105 6.9203,-17.9816 7.171,-18.9362 7.5194,-19.8818 7.9209,-21.0347 8.3537,-22.3002 8.8035,-23.415 9.2602,-24.4456 9.7206,-25.4326 10.1832,-26.6102 10.8612,-28.1012 11.6564,-29.5507 12.301,-30.7656 12.866,-31.8506 13.3876,-32.8672 13.8835,-34.0609 14.5773,-35.3487 15.1668,-36.6877 15.7018,-38.2665 16.4192,-39.7638 17.0215,-41.0046 17.5612,-42.106 18.0668,-43.3436 18.5562,-45.0793 19.2488,-46.8763 19.8376,-48.2802 20.3722,-49.468 20.8774,-50.5405 21.3642,-51.7646 22.0531,-53.281 22.8543,-54.7443 23.5044,-55.9667 24.0701,-57.0558 24.8019,-58.2866 25.4121,-59.5969 25.9583,-60.736 26.6819,-61.9941 27.2875,-63.3169 27.8313,-64.4606 28.3414,-65.5091 28.831,-66.7202 29.3093,-68.0174 29.7816,-69.1472 30.2505,-70.1882 30.72,-71.1808 31.4017,-72.5712 32.1966,-74.1804 33.0555,-75.6941 33.737,-77.156 34.3198,-78.3776 35.0631,-79.6806 35.6819,-81.2421 36.2305,-82.73 36.953,-84.1778 37.7724,-85.6038 38.4325,-87.0179 39.0037,-88.4256 39.7384,-89.8298 40.5645,-91.2321 41.2282,-92.4213 41.8013,-93.7066 42.5394,-95.2563 43.3673,-97.1641 44.2418,-99.2666 45.1439,-101.0489 45.8489,-102.6568 46.4445,-104.1699 47.1926,-105.4194 47.8116,-106.7398 48.3626,-108.0965 49.0887,-109.2586 49.6958,-110.5292 50.2381,-111.8588 50.9594,-113.0085 51.5662,-114.2746 52.1083,-115.8138 52.8295,-117.5015 53.6483,-119.0581 54.3057,-120.3312 54.8754,-121.4501 55.6116,-122.6972 56.4385,-124.0141 57.3124,-125.3688 58.2142,-126.9585 59.1311,-128.4617 59.842,-129.7058 60.443,-130.809 61.1963,-131.8332 61.8182,-132.8167 62.3685,-133.7781 62.8799,-134.7252 63.3724,-135.6667 64.0667,-136.6053 64.6565,-137.5422 65.1893,-138.4783 65.6912,-139.4116 66.1786,-140.5577 66.8701,-141.8196 67.4583,-142.9324 67.9926,-143.9642 68.4976,-144.9518 68.9843,-146.1274 69.6732,-147.1911 70.26,-147.984 70.7935,-148.8418 71.5101,-149.7324 72.324,-150.6433 72.9788,-151.5652 73.335,-152.4908 73.7431,-153.4207 74.1795,-154.3529 74.6289,-155.072 75.2997,-155.6776 76.091,-156.4334 76.7335,-157.2686 77.5094,-158.5734 78.7144,-160.4883 L79.37,-161.53 " stroke-linecap="round" fill="none" stroke="#40c057" stroke-width="5.602362988067163" stroke-dasharray="none" stroke-dashoffset="0"/></g></g><g transform="matrix(1, 0, 0, 1, 1839.8834, 5399.1197) scale(0.9337271646778604, 0.9337271646778604)" opacity="1"><g transform="scale(1.0709766598094037)"><path d="M0,0 Q2.5536,-2.5536 3.4625,-3.4625 T5.0779,-5.2899 6.595,-7.1345 8.2708,-8.7763 10.0329,-10.3079 11.8442,-11.9938 13.4679,-13.7636 14.9896,-15.3648 16.6702,-16.8743 18.4371,-18.3338 20.2487,-19.7662 21.8727,-21.1838 23.3945,-22.5934 25.0728,-23.9986 26.8385,-25.4014 28.4375,-26.8053 29.9457,-28.2073 31.4046,-29.6085 32.8366,-30.7971 34.4684,-32.082 35.9944,-33.4195 37.463,-34.7854 39.1146,-36.3812 40.6515,-38.0998 42.126,-39.6731 43.7808,-41.1696 45.3194,-42.8342 46.5805,-44.3781 47.905,-45.8564 49.2639,-47.299 50.4295,-48.5101 51.4899,-49.5931 52.4931,-50.6086 53.4653,-51.8017 54.4182,-53.0891 55.3629,-54.2136 56.3032,-55.4637 57.2388,-56.7821 58.1742,-58.1377 59.1093,-59.5159 60.0444,-60.692 60.9795,-61.7558 61.9122,-62.7609 62.846,-63.7341 63.5683,-64.6875 64.1733,-65.6326 64.9265,-66.573 65.7626,-67.7231 66.6438,-68.775 67.3352,-69.5593 67.9256,-70.4124 68.6732,-71.3028 69.5039,-72.4255 70.3822,-73.6747 71.2864,-74.9927 72.2023,-76.136 73.1269,-76.97 74.0563,-77.8501 74.7739,-78.7552 75.3786,-79.4596 76.1339,-80.0549 76.9689,-80.8051 77.8495,-81.4275 78.5428,-81.9781 79.3441,-82.704 80.5655,-83.5693 L81.23,-84.04 " stroke-linecap="round" fill="none" stroke="#40c057" stroke-width="5.602362988067163" stroke-dasharray="none" stroke-dashoffset="0"/></g></g><g transform="matrix(1, 0, 0, 1, 1922.0513, 5315.0842) scale(0.9337271646778604, 0.9337271646778604)" opacity="1"><g transform="scale(1.0709766598094037)"><path d="M0,0 Q1.7009,1.7009 2.1635,2.3778 T3.3042,4.0615 4.5654,5.8278 5.8899,7.4271 7.2488,9.1498 8.6265,10.7254 10.0143,12.2209 11.41,13.8872 13.0197,15.432 14.5337,16.6965 15.9958,17.8107 17.6416,19.0576 19.1776,20.3742 20.6516,21.5146 22.0918,22.7733 23.3017,24.0965 24.5982,25.4547 25.942,26.8342 27.0993,28.0111 28.3673,29.2897 29.6955,30.6236 30.8444,31.7734 32.1078,32.8252 33.4335,34.0381 34.581,35.3363 35.6316,36.4666 36.6272,37.5078 37.5952,38.7127 38.7602,40.2185 40.0323,41.6784 41.1508,43.111 42.1855,44.5287 43.1748,45.7263 44.1371,47.0162 45.0869,48.3563 46.0299,49.5094 46.967,50.563 47.9032,51.5626 48.8388,52.5327 49.7719,53.4868 50.7058,54.4299 51.4282,55.3693 52.0332,56.3067 52.7887,57.0287 53.414,57.6335 53.9662,58.3889 54.6907,59.2261 55.5112,60.108 56.3839,61.0141 57.0707,61.931 57.6563,62.6419 58.4013,63.243 59.0209,63.9963 59.5699,64.8302 60.295,65.7102 60.9038,66.6153 61.447,67.3197 62.1666,67.9172 62.77,68.6686 63.3127,69.5014 64.0342,70.3809 65.0651,71.2856 66.2644,72.2019 67.1288,73.1267 67.8133,74.0562 68.6121,74.9882 69.4707,75.9215 70.3641,76.8533 71.0645,77.7866 71.6575,78.7207 72.4042,79.8672 73.2368,81.1293 74.116,82.4543 75.0207,84.0278 75.9392,85.3102 76.863,86.2198 78.0039,87.3531 79.491,88.8342 L80.3,89.64 " stroke-linecap="round" fill="none" stroke="#40c057" stroke-width="5.602362988067163" stroke-dasharray="none" stroke-dashoffset="0"/></g></g><g transform="matrix(1, 0, 0, 1, 1997.6833, 5404.722) scale(0.9337271646778604, 0.9337271646778604)" opacity="1"><g transform="scale(1.0709766598094037)"><path d="M0,0 Q1.2768,2.5536 1.8361,3.6745 T2.9141,5.8316 3.9268,7.8555 4.9041,9.5949 5.8621,11.3939 6.8073,13.223 7.7479,14.8564 8.6859,16.5977 9.6203,18.3976 10.555,20.0152 11.4898,21.5336 12.2104,22.998 12.8167,24.433 13.5729,25.8521 14.4083,27.2625 15.0748,28.6681 15.6518,30.0712 16.392,31.4728 17.2187,32.8737 18.0948,34.4886 18.9978,36.2197 19.701,37.7999 20.2979,39.2979 20.8369,40.7512 21.3422,42.1802 22.0412,43.384 22.6334,44.4652 23.1699,45.6917 23.8882,46.9974 24.703,48.3461 25.5726,49.7181 26.26,51.1029 26.8459,52.2826 27.3768,53.3508 27.6655,54.3559 28.0369,55.329 28.6653,56.2848 29.2192,57.2288 29.7326,58.1687 30.2239,59.1064 30.7055,60.2549 31.3938,61.7324 32.1924,63.1745 32.8388,64.3831 33.4048,65.467 33.927,66.483 34.4231,67.462 35.1194,68.421 35.7125,69.3667 36.2471,70.3076 36.75,71.2458 37.2357,72.3945 37.9262,73.8722 38.7282,75.3144 39.5886,76.7374 40.2687,78.362 40.853,79.8841 41.3851,81.1385 42.101,82.4593 43.1288,84.0305 44.112,85.5237 44.8589,86.9744 45.4796,88.4019 46.2436,89.6049 46.8712,90.8977 47.4247,92.2394 48.1522,93.3956 48.7622,94.663 49.3061,95.7788 50.0261,96.8122 50.6298,98.2248 51.1725,99.6317 51.6821,100.8233 52.1713,101.8957 52.8638,103.1175 53.879,104.6348 54.8553,106.0987 55.8128,107.3214 56.76,108.4129 57.7016,109.645 58.8523,111.1658 59.9046,112.6315 60.6914,113.8552 61.3314,114.9472 62.1037,116.1797 62.9502,117.9126 63.837,119.7081 64.7435,121.3255 65.663,122.8437 66.3776,124.3081 66.9783,125.531 67.5172,126.4084 68.0246,127.3097 68.515,128.2264 68.9938,129.3658 69.4663,130.624 69.9354,131.7325 70.4026,132.7619 70.8711,133.9603 71.3403,135.2507 71.8076,136.1669 72.2738,136.8774 72.7395,137.6903 73.2048,138.5588 73.6723,139.4554 74.1409,140.3695 74.6079,141.2931 75.074,142.2197 75.5418,143.1501 76.0107,144.0826 76.4778,145.0162 77.1559,145.9504 77.7369,146.8828 78.2673,147.8163 78.9822,148.9625 80.0095,150.4365 81.4088,152.181 L82.17,153.13 " stroke-linecap="round" fill="none" stroke="#40c057" stroke-width="5.602362988067163" stroke-dasharray="none" stroke-dashoffset="0"/></g></g><g transform="matrix(1, 0, 0, 1, 1924.8525, 5313.2168) scale(0.9337271646778604, 0.9337271646778604)" opacity="1"><g transform="scale(1.0709766598094037)"><path d="M-0.93,0 Q-3.9122,-0.4241 -4.5114,-0.7537 T-5.2221,-1.2628 -4.9681,-1.5397 -4.1915,-1.6903 -3.3449,-1.7722 -2.246,-1.8168 -0.7913,-1.8513 L0,-1.87 " stroke-linecap="round" fill="none" stroke="#9398b0" stroke-width="5.602362988067163" stroke-dasharray="none" stroke-dashoffset="0"/></g></g><g transform="matrix(1, 0, 0, 1, 1919.2502, 5398.186) scale(0.9337271646778604, 0.9337271646778604)" opacity="1"><g transform="scale(1.0709766598094037)"><path d="M0,0 Q3.8304,0.8527 6.1152,1.3614 L8.4,1.87 " stroke-linecap="round" fill="none" stroke="#9398b0" stroke-width="5.602362988067163" stroke-dasharray="none" stroke-dashoffset="0"/></g></g><g transform="matrix(1, 0, 0, 1, 1916.449, 5399.1197) scale(0.9337271646778604, 0.9337271646778604)" opacity="1"><g transform="scale(1.0709766598094037)"><path d="M0,0 Q-1.2768,0.4241 -1.412,0.5394 T-0.9825,0.7175 0.316,0.8144 1.875,0.8671 3.5759,0.6838 5.4957,0.2409 L6.54,0 " stroke-linecap="round" fill="none" stroke="#9398b0" stroke-width="5.602362988067163" stroke-dasharray="none" stroke-dashoffset="0"/></g></g><g transform="matrix(1, 0, 0, 1, 1838.0159, 5402.8546) scale(0.9337271646778604, 0.9337271646778604)" opacity="1"><g transform="scale(1.0709766598094037)"><path d="M0,0 Q-1.2768,-2.1295 -1.6241,-3.1351 T-2.1603,-4.8998 -2.24,-6.2838 -1.8569,-7.4631 -1.0102,-8.319 0.0889,-8.7846 1.1131,-9.0378 2.0944,-8.9613 2.8402,-8.4933 3.246,-7.6003 3.2546,-6.4761 3.0473,-5.4382 2.7225,-4.6593 2.1194,-4.2355 1.5771,-4.2193 1.282,-4.6369 1.3358,-5.2904 1.7914,-5.6459 2.2513,-5.4129 2.5015,-4.8598 2.6376,-3.7062 2.4996,-2.2282 2.2125,-1.0001 1.63,0.0943 0.6747,1.1161 -0.2714,1.8839 -1.2124,1.8753 -2.2406,1.2631 L-2.8,0.93 " stroke-linecap="round" fill="none" stroke="#40c057" stroke-width="5.602362988067163" stroke-dasharray="none" stroke-dashoffset="0"/></g></g><g transform="matrix(1, 0, 0, 1, 1998.617, 5407.5232) scale(0.9337271646778604, 0.9337271646778604)" opacity="1"><g transform="scale(1.0709766598094037)"><path d="M0,0 Q0.4241,-1.7009 0.9658,-2.3778 T2.0142,-3.4231 3.0109,-3.9917 3.9795,-3.8746 4.5064,-2.9582 4.3667,-2.0334 3.6523,-1.3182 2.6252,-0.9291 1.8522,-1.1438 1.4317,-1.8991 1.4172,-2.9483 1.8357,-3.9454 2.2754,-4.9142 2.941,-5.4413 3.9415,-5.3016 4.6978,-4.7993 5.1092,-3.8876 5.121,-2.7533 4.489,-1.9219 3.3951,-1.2795 L2.8,-0.93 " stroke-linecap="round" fill="none" stroke="#40c057" stroke-width="5.602362988067163" stroke-dasharray="none" stroke-dashoffset="0"/></g></g><g transform="matrix(1, 0, 0, 1, 2092.9234, 5488.7575) scale(0.9337271646778604, 0.9337271646778604)" opacity="1"><g transform="scale(1.0709766598094037)"><path d="M0,-0.93 Q0,-2.2068 0,-2.13 T0,-1.373 0,0.1186 L0,0.93 " stroke-linecap="round" fill="none" stroke="#9398b0" stroke-width="5.602362988067163" stroke-dasharray="none" stroke-dashoffset="0"/></g></g><g transform="matrix(1, 0, 0, 1, 2078.9175, 5481.2877) scale(0.9337271646778604, 0.9337271646778604)" opacity="1"><g transform="scale(1.0709766598094037)"><path d="M0,0 Q0.8527,2.5536 1.0847,3.6745 T1.4428,5.6173 1.4233,7.1005 1.1983,7.9074 1.076,7.708 1.0094,6.749 0.9732,5.3746 0.9535,3.7742 0.7307,2.0532 0.2575,0.1211 L0,-0.93 " stroke-linecap="round" fill="none" stroke="#9398b0" stroke-width="5.602362988067163" stroke-dasharray="none" stroke-dashoffset="0"/></g></g><g transform="matrix(1, 0, 0, 1, 1759.5828, 5481.2877) scale(0.9337271646778604, 0.9337271646778604)" opacity="1"><g transform="scale(1.0709766598094037)"><path d="M0,0 Q0,3.4063 0,4.7592 T0,7.4864 0,10.0348 0,11.2068 0,10.7796 0,9.6968 0,8.043 0,6.2906 0,4.4846 0,2.1824 L0,0.93 " stroke-linecap="round" fill="none" stroke="#9398b0" stroke-width="5.602362988067163" stroke-dasharray="none" stroke-dashoffset="0"/></g></g></svg>