<svg xmlns="http://www.w3.org/2000/svg" direction="ltr" width="520.3448180274149" height="206.8335211551639" viewBox="1518.6768693226545 5867.078827427082 520.3448180274149 206.8335211551639" stroke-linecap="round" stroke-linejoin="round" style="background-color: transparent;"><defs/><g transform="matrix(1, 0, 0, 1, 1622.0939, 5941.3255) scale(1.005873239655112, 1.005873239655112)" opacity="1"><g transform="scale(0.9941610538748145)"><path d="M0.4475,1.4575 T-0.4943,2.4172 -2.6794,4.8756 -5.5198,7.8468 -8.5807,10.753 -11.8697,13.5637 -14.7422,15.7788 -15.7895,16.6167 A2.012,2.012 0 0 1 -18.4105,13.5633 T-17.4235,12.655 -14.7749,10.3866 -11.5801,7.5605 -8.7061,4.972 -5.8762,2.1377 -3.4272,-0.5157 -2.4675,-1.4575 A2.0612,2.0612 0 0 1 0.4475,1.4575 Z" stroke-linecap="round" fill="#f2f2f2"/></g></g><g transform="matrix(1, 0, 0, 1, 1607.0058, 5941.3255) scale(1.005873239655112, 1.005873239655112)" opacity="1"><g transform="scale(0.9941610538748145)"><path d="M1.9508,-1.1713 T2.6677,0.0168 4.6491,2.9068 7.2406,6.2921 9.6754,9.5361 11.8413,12.5837 13.4447,14.9676 13.9901,15.8644 A2.2833,2.2833 0 0 1 10.1499,18.3356 T9.5597,17.4676 7.9805,15.3012 5.9564,12.481 3.7596,9.3986 1.0351,5.6956 -1.2392,2.3624 -1.9508,1.1713 A2.2754,2.2754 0 0 1 1.9508,-1.1713 Z" stroke-linecap="round" fill="#f2f2f2"/></g></g><g transform="matrix(1, 0, 0, 1, 1629.135, 5920.2022) scale(1.005873239655112, 1.005873239655112)" opacity="1"><g transform="scale(0.9941610538748145)"><path d="M-0.7816,-1.9559 T0.4068,-2.4398 4.3711,-3.2236 7.147,-3.5234 A2.1422,2.1422 0 0 1 7.0276,0.7594 T5.0954,0.8909 1.9724,1.4891 0.7816,1.9559 A2.1062,2.1062 0 0 1 -0.7816,-1.9559 ZM9.0746,-2.1818 T9.3013,-1.6133 9.4868,0.7557 8.0742,4.5281 4.7954,8.0832 2.4263,10.4397 1.9645,11.2131 A2.1647,2.1647 0 0 1 -1.5394,8.6703 T0.0795,7.0318 2.786,4.3577 4.7154,1.9328 5.3286,-0.0193 5.1,-0.5821 A2.1422,2.1422 0 0 1 9.0746,-2.1818 ZM1.6067,8.2858 T2.2702,8.813 5.2329,9.539 8.8451,9.8578 10.1581,9.9779 A2.0944,2.0944 0 0 1 9.9619,14.1621 T7.3772,14.1569 2.6687,13.6329 -0.3184,12.3559 -1.1817,11.5976 A2.1647,2.1647 0 0 1 1.6067,8.2858 Z" stroke-linecap="round" fill="#f2f2f2"/></g></g><g transform="matrix(1, 0, 0, 1, 1651.2642, 5939.3138) scale(1.005873239655112, 1.005873239655112)" opacity="1"><g transform="scale(0.9941610538748145)"><path d="M 0 0 m -2.6455463976672777, 0 a 2.6455463976672777,2.6455463976672777 0 1,1 5.2910927953345555,0 a 2.6455463976672777,2.6455463976672777 0 1,1 -5.2910927953345555,0" stroke-linecap="round" fill="#f2f2f2"/></g></g><g transform="matrix(1, 0, 0, 1, 1650.2583, 5950.3784) scale(1.005873239655112, 1.005873239655112)" opacity="1"><g transform="scale(0.9941610538748145)"><path d="M 0 0 m -2.6455463976672777, 0 a 2.6455463976672777,2.6455463976672777 0 1,1 5.2910927953345555,0 a 2.6455463976672777,2.6455463976672777 0 1,1 -5.2910927953345555,0" stroke-linecap="round" fill="#f2f2f2"/></g></g><g transform="matrix(1, 0, 0, 1, 1685.4639, 5934.2844) scale(1.005873239655112, 1.005873239655112)" opacity="1"><g transform="scale(0.9941610538748145)"><path d="M1.4488,1.0884 T0.7177,2.0265 -1.2469,4.3797 -3.9947,7.7404 -6.8356,11.3748 -9.581,14.7389 -12.5401,18.1302 -14.996,20.6514 -15.9113,21.4564 A1.7886,1.7886 0 0 1 -18.2887,18.7836 T-17.3824,17.9684 -15.0834,15.5623 -12.4016,12.4903 -9.6373,9.1881 -6.6188,5.4248 -3.9595,2.1606 -2.1462,-0.1251 -1.4488,-1.0884 A1.812,1.812 0 0 1 1.4488,1.0884 Z" stroke-linecap="round" fill="#f2f2f2"/></g></g><g transform="matrix(1, 0, 0, 1, 1671.3817, 5937.302) scale(1.005873239655112, 1.005873239655112)" opacity="1"><g transform="scale(0.9941610538748145)"><path d="M1.3308,-1.3308 T2.2866,-0.3805 4.3261,2.0051 6.5225,5.2685 8.5573,8.2748 10.6314,11.8536 11.7833,14.254 A1.9154,1.9154 0 0 1 8.3367,15.926 T7.3604,13.9391 5.2957,10.4812 3.3081,7.4237 1.4847,4.5352 -0.3851,2.282 -1.3308,1.3308 A1.882,1.882 0 0 1 1.3308,-1.3308 Z" stroke-linecap="round" fill="#f2f2f2"/></g></g><g transform="matrix(1, 0, 0, 1, 1690.4932, 5919.1963) scale(1.005873239655112, 1.005873239655112)" opacity="1"><g transform="scale(0.9941610538748145)"><path d="M-0.6648,-1.9978 T0.772,-2.4509 4.6444,-3.0416 8.2923,-1.75 9.2774,1.0982 7.7872,3.9272 6.0031,6.2076 5.4819,7.0778 A1.9861,1.9861 0 0 1 1.7454,5.7302 T2.6252,3.3663 2.0849,1.5002 0.6648,1.9978 A2.1055,2.1055 0 0 1 -0.6648,-1.9978 ZM5.1191,5.1086 T5.4373,5.4711 7.1851,6.2451 9.5509,6.8643 10.487,7.0722 A2.0233,2.0233 0 0 1 9.633,11.0278 T7.6204,10.5738 4.2098,9.3257 2.4599,8.1154 2.1082,7.6994 A1.9861,1.9861 0 0 1 5.1191,5.1086 Z" stroke-linecap="round" fill="#f2f2f2"/></g></g><g transform="matrix(1, 0, 0, 1, 1706.5872, 5936.2961) scale(1.005873239655112, 1.005873239655112)" opacity="1"><g transform="scale(0.9941610538748145)"><path d="M1.3962,0 T1.414,1.4332 1.0747,4.9389 0.5565,9.5783 0.3955,12.1452 A1.4075,1.4075 0 0 1 -2.4155,11.9948 T-2.296,9.3206 -1.8042,4.747 -1.414,1.4238 -1.3962,0 A1.3962,1.3962 0 0 1 1.3962,0 Z" stroke-linecap="round" fill="#f2f2f2"/></g></g><g transform="matrix(1, 0, 0, 1, 1708.599, 5941.3255) scale(1.005873239655112, 1.005873239655112)" opacity="1"><g transform="scale(0.9941610538748145)"><path d="M0,1.3349 T-1.9038,1.3137 -5.9288,1.2742 -8.05,1.2559 A1.2559,1.2559 0 0 1 -8.05,-1.2559 T-5.9288,-1.2742 -1.9038,-1.3137 0,-1.3349 A1.3349,1.3349 0 0 1 0,1.3349 Z" stroke-linecap="round" fill="#f2f2f2"/></g></g><g transform="matrix(1, 0, 0, 1, 1725.6988, 5931.2668) scale(1.005873239655112, 1.005873239655112)" opacity="1"><g transform="scale(0.9941610538748145)"><path d="M1.8955,0 T1.8919,0.9648 1.1612,3.7558 -0.1341,7.0751 0.7866,9.9978 3.6334,12.4996 5.8708,14.852 6.863,17.6305 5.7903,20.8288 1.9008,23.5277 -2.2933,24.6757 -5.2169,24.6266 -8.5958,23.0242 -11.0305,20.8832 -11.5199,20.1463 A1.7903,1.7903 0 0 1 -8.6001,18.0737 T-7.9502,19.1288 -5.7315,20.5075 -1.866,20.524 1.9902,19.0351 2.4993,16.6867 0.0262,14.5593 -2.6524,12.7263 -4.3748,10.0347 -4.2883,6.7957 -2.8118,3.6247 -1.8919,0.9367 -1.8955,0 A1.8955,1.8955 0 0 1 1.8955,0 Z" stroke-linecap="round" fill="#f2f2f2"/></g></g><g transform="matrix(1, 0, 0, 1, 1726.7047, 5928.2492) scale(1.005873239655112, 1.005873239655112)" opacity="1"><g transform="scale(0.9941610538748145)"><path d="M0,-1.5079 T1.665,-1.5669 4.9216,-1.6677 8.8695,-1.7122 13.6578,-1.6528 16.09,-1.5907 A1.5907,1.5907 0 0 1 16.09,1.5907 T13.6578,1.6528 8.8695,1.7122 4.9216,1.6677 1.665,1.5669 0,1.5079 A1.5079,1.5079 0 0 1 0,-1.5079 Z" stroke-linecap="round" fill="#f2f2f2"/></g></g><g transform="matrix(1, 0, 0, 1, 1750.8456, 5940.3196) scale(1.005873239655112, 1.005873239655112)" opacity="1"><g transform="scale(0.9941610538748145)"><path d="M2.3506,1.0072 T1.6693,1.9829 -0.1105,4.2695 -3.2342,7.5373 -6.7552,10.2614 -9.7488,11.7846 -11.2467,12.5409 A1.6944,1.6944 0 0 1 -12.8933,9.5791 T-10.3251,8.0104 -5.8737,4.7628 -2.9077,1.964 -1.0777,-0.0815 -0.3306,-1.0072 A1.6768,1.6768 0 0 1 2.3506,1.0072 Z" stroke-linecap="round" fill="#f2f2f2"/></g></g><g transform="matrix(1, 0, 0, 1, 1740.7869, 5940.3196) scale(1.005873239655112, 1.005873239655112)" opacity="1"><g transform="scale(0.9941610538748145)"><path d="M2.8088,-0.7188 T3.2909,0.4686 4.4384,3.7488 5.8924,7.1169 7.7711,10.8277 8.8611,13.2633 A1.9958,1.9958 0 0 1 5.2189,14.8967 T4.268,12.7818 2.3055,8.8597 0.7212,5.0775 -0.3202,1.9106 -0.7888,0.7188 A1.9371,1.9371 0 0 1 2.8088,-0.7188 Z" stroke-linecap="round" fill="#f2f2f2"/></g></g><g transform="matrix(1, 0, 0, 1, 1767.9455, 5937.302) scale(1.005873239655112, 1.005873239655112)" opacity="1"><g transform="scale(0.9941610538748145)"><path d="M1.4538,-0.2919 T1.7274,0.8909 1.9894,4.3157 1.8326,8.522 1.6026,11.8137 1.5178,13.141 A1.519,1.519 0 0 1 -1.5178,13.019 T-1.4958,11.6892 -1.3413,8.1242 -1.1272,4.2868 -1.2497,1.4883 -1.4538,0.2919 A1.4828,1.4828 0 0 1 1.4538,-0.2919 Z" stroke-linecap="round" fill="#f2f2f2"/></g></g><g transform="matrix(1, 0, 0, 1, 1771.969, 5942.3314) scale(1.005873239655112, 1.005873239655112)" opacity="1"><g transform="scale(0.9941610538748145)"><path d="M-1.01,1.64 T-2.1956,1.6537 -5.4452,2.0252 -8.6871,2.5149 -9.8649,2.6468 A1.6484,1.6484 0 0 1 -10.2551,-0.6268 T-9.0792,-0.7754 -5.6503,-1.2957 -2.2036,-1.6537 -1.01,-1.64 A1.64,1.64 0 0 1 -1.01,1.64 Z" stroke-linecap="round" fill="#f2f2f2"/></g></g><g transform="matrix(1, 0, 0, 1, 1784.0395, 5927.2433) scale(1.005873239655112, 1.005873239655112)" opacity="1"><g transform="scale(0.9941610538748145)"><path d="M0.7491,-1.8746 T1.9392,-1.3972 5.185,0.4443 8.4881,3.559 9.5774,7.443 7.6752,11.1001 5.6076,12.9965 5.2843,13.3695 A2.0716,2.0716 0 0 1 1.2283,12.5238 T1.6174,11.5516 3.976,9.0839 5.3264,6.2859 3.1682,3.9025 0.44,2.348 -0.7491,1.8746 A2.0187,2.0187 0 0 1 0.7491,-1.8746 ZM4.6072,11.3761 T5.2539,11.9534 7.0723,13.5358 9.2951,16.1693 10.6185,19.6258 9.8204,23.4221 7.6435,26.4726 5.1537,28.0629 1.6689,28.7156 -1.6321,27.9645 -3.5804,26.2841 -4.3288,25.4996 A1.8872,1.8872 0 0 1 -1.7112,22.7804 T-0.6977,23.9511 2.0805,24.7895 5.3602,23.0983 6.6687,20.0782 5.0442,17.186 2.7658,15.2362 1.9054,14.5171 A2.0716,2.0716 0 0 1 4.6072,11.3761 Z" stroke-linecap="round" fill="#f2f2f2"/></g></g><g transform="matrix(1, 0, 0, 1, 1813.2098, 5934.2844) scale(1.005873239655112, 1.005873239655112)" opacity="1"><g transform="scale(0.9941610538748145)"><path d="M0,-1.7718 T1.4285,-1.7967 5.0123,-2.0695 9.5103,-2.5843 11.8528,-2.8511 A1.8539,1.8539 0 0 1 12.2872,0.8311 T10.1182,1.0965 5.403,1.5918 1.4285,1.7967 0,1.7718 A1.7718,1.7718 0 0 1 0,-1.7718 Z" stroke-linecap="round" fill="#f2f2f2"/></g></g><g transform="matrix(1, 0, 0, 1, 1812.2039, 5940.3196) scale(1.005873239655112, 1.005873239655112)" opacity="1"><g transform="scale(0.9941610538748145)"><path d="M0,-0.849 T1.6625,-0.8435 6.0306,-1.3076 8.7362,-1.7771 A1.8046,1.8046 0 0 1 9.3638,1.7771 T7.8584,2.0537 4.8439,2.5942 1.6674,2.8635 0,2.869 A1.859,1.859 0 0 1 0,-0.849 Z" stroke-linecap="round" fill="#f2f2f2"/></g></g><g transform="matrix(1, 0, 0, 1, 1852.4388, 5923.2198) scale(1.005873239655112, 1.005873239655112)" opacity="1"><g transform="scale(0.9941610538748145)"><path d="M1.7236,-0.2882 T1.951,1.1423 2.3753,4.7727 2.2688,9.0366 1.6338,13.4161 0.7277,17.915 -0.5583,21.369 -1.9541,23.7758 -2.6385,24.9119 A1.5826,1.5826 0 0 1 -5.4015,23.3681 T-4.3432,21.3829 -2.7049,17.1907 -1.8056,12.8518 -1.1672,8.9544 -1.0354,5.165 -1.4732,1.7146 -1.7236,0.2882 A1.7476,1.7476 0 0 1 1.7236,-0.2882 Z" stroke-linecap="round" fill="#4dabf7"/></g></g><g transform="matrix(1, 0, 0, 1, 1851.433, 5919.1963) scale(1.005873239655112, 1.005873239655112)" opacity="1"><g transform="scale(0.9941610538748145)"><path d="M0.2329,1.5552 T-0.9473,2.5178 -3.5132,4.4684 -6.4016,6.5318 -7.9044,7.607 A1.9411,1.9411 0 0 1 -10.1956,4.473 T-8.7151,3.3672 -5.9428,1.2921 -3.4519,-0.6163 -2.2529,-1.5552 A1.9909,1.9909 0 0 1 0.2329,1.5552 Z" stroke-linecap="round" fill="#4dabf7"/></g></g><g transform="matrix(1, 0, 0, 1, 1853.4447, 5921.208) scale(1.005873239655112, 1.005873239655112)" opacity="1"><g transform="scale(0.9941610538748145)"><path d="M2.0217,-0.2536 T2.2634,1.654 2.4014,5.2415 2.2138,8.9161 1.735,12.6748 0.9457,16.3182 0.3986,19.9351 0.1842,23.4237 -0.2743,26.8775 -0.6711,28.5799 A2.0793,2.0793 0 0 1 -4.7817,27.9498 T-4.3956,25.5488 -3.8773,21.0021 -3.3312,17.3442 -2.6611,13.7747 -2.1628,10.1968 -1.7352,6.365 -1.7856,2.1537 -2.0217,0.2536 A2.0375,2.0375 0 0 1 2.0217,-0.2536 ZM-3.0275,26.2074 T-2.6666,26.1734 -2.3057,26.1394 A2.0422,2.0422 0 0 1 -1.7143,30.1806 T-2.0699,30.2514 -2.4254,30.3222 A2.0793,2.0793 0 0 1 -3.0275,26.2074 Z" stroke-linecap="round" fill="#4dabf7"/></g></g><g transform="matrix(1, 0, 0, 1, 1850.4271, 5919.1963) scale(1.005873239655112, 1.005873239655112)" opacity="1"><g transform="scale(0.9941610538748145)"><path d="M-0.0317,1.9533 T-1.4587,2.6649 -4.8283,4.524 -7.2979,5.9651 -7.8249,6.2587 A2.1676,2.1676 0 0 1 -9.9528,2.4817 T-9.4286,2.1831 -6.8716,0.6824 -3.4135,-1.2365 -1.9883,-1.9533 A2.1846,2.1846 0 0 1 -0.0317,1.9533 ZM-10.8579,5.2765 T-10.8956,5.1935 -10.9334,5.1105 A2.1668,2.1668 0 0 1 -6.9967,3.2986 T-6.9582,3.3813 -6.9198,3.4639 A2.1676,2.1676 0 0 1 -10.8579,5.2765 ZM-9.9834,2.292 T-9.4916,2.0499 -6.9026,1.219 -3.299,-0.125 0.2317,-1.9134 2.256,-2.9467 A2.1963,2.1963 0 0 1 4.1488,1.0172 T2.3025,1.9511 -1.4957,3.8303 -5.0502,5.0821 -7.2998,5.7529 -7.9467,6.1171 A2.1668,2.1668 0 0 1 -9.9834,2.292 ZM4.878,-2.3847 T5.0704,-2.1557 5.2628,-1.9267 A2.1938,2.1938 0 0 1 1.9155,0.9099 T1.7212,0.6826 1.5269,0.4552 A2.1963,2.1963 0 0 1 4.878,-2.3847 ZM5.729,-0.0248 T5.5931,0.57 5.0877,3.7607 4.5462,7.9578 4.3278,11.3009 4.0166,15.5809 3.59,19.7116 3.0125,22.9691 2.2386,26.5 1.6287,30.2247 1.2222,33.2202 1.0675,34.3571 A2.0834,2.0834 0 0 1 -3.0875,34.0429 T-3.0695,32.8957 -2.8543,29.4713 -2.3048,25.5289 -1.4486,21.4018 -0.575,17.1627 -0.1648,13.203 0.0011,9.2721 0.5194,5.6155 1.0474,1.9539 1.316,-0.3956 1.4493,-0.992 A2.1938,2.1938 0 0 1 5.729,-0.0248 Z" stroke-linecap="round" fill="#4dabf7"/></g></g><g transform="matrix(1, 0, 0, 1, 1853.4447, 5952.3901) scale(1.005873239655112, 1.005873239655112)" opacity="1"><g transform="scale(0.9941610538748145)"><path d="M-0.4069,3.4434 T-1.8359,3.2095 -6.2613,2.5385 -10.9128,1.7577 -12.5678,1.414 A2.4746,2.4746 0 0 1 -11.5722,-3.434 T-8.5718,-2.8149 -4.0102,-2.0535 -1.021,-1.6673 0.4069,-1.4234 A2.4672,2.4672 0 0 1 -0.4069,3.4434 ZM-11.8716,-3.4767 T-11.1287,-3.3393 -7.9144,-3.3266 -3.0139,-3.4633 -0.0603,-3.6697 0.4643,-3.8642 A2.4783,2.4783 0 0 1 1.8097,0.9063 T0.6443,1.1884 -2.9536,1.4786 -7.2219,1.5232 -10.6631,1.5082 -12.2684,1.4567 A2.4746,2.4746 0 0 1 -11.8716,-3.4767 ZM-1.2733,-0.9025 T-1.3266,-1.1704 -1.3799,-1.4384 A2.4573,2.4573 0 0 1 3.3999,-2.5816 T3.4736,-2.3185 3.5473,-2.0554 A2.4783,2.4783 0 0 1 -1.2733,-0.9025 Z" stroke-linecap="round" fill="#4dabf7"/></g></g><g transform="matrix(1, 0, 0, 1, 1611.0293, 5983.5722) scale(1.005873239655112, 1.005873239655112)" opacity="1"><g transform="scale(0.9941610538748145)"><path d="M2.3045,1.2978 T1.3699,2.267 -1.2745,4.9918 -4.6168,8.0232 -8.0809,10.4563 -11.0747,12.173 -12.2368,12.7326 A1.8731,1.8731 0 0 1 -13.9232,9.3874 T-12.7823,8.7859 -10.1941,7.2195 -7.2409,5.1173 -3.9813,2.2733 -1.2561,-0.3656 -0.2845,-1.2978 A1.833,1.833 0 0 1 2.3045,1.2978 Z" stroke-linecap="round" fill="#4dabf7"/></g></g><g transform="matrix(1, 0, 0, 1, 1598.9588, 5981.5604) scale(1.005873239655112, 1.005873239655112)" opacity="1"><g transform="scale(0.9941610538748145)"><path d="M1.3697,-1.0946 T2.3264,0.0901 4.708,3.1201 7.1817,6.2243 9.2992,8.9817 11.8717,12.1945 13.3756,13.9089 A1.7606,1.7606 0 0 1 10.7644,16.2711 T9.1153,14.4999 6.4686,11.2961 4.308,8.4231 1.8323,5.2331 -0.425,2.2891 -1.3697,1.0946 A1.7533,1.7533 0 0 1 1.3697,-1.0946 Z" stroke-linecap="round" fill="#4dabf7"/></g></g><g transform="matrix(1, 0, 0, 1, 1614.0469, 5967.4782) scale(1.005873239655112, 1.005873239655112)" opacity="1"><g transform="scale(0.9941610538748145)"><path d="M1.01,-1.8009 T2.2085,-1.8251 5.5843,-0.8104 7.7616,0.2287 A1.9207,1.9207 0 0 1 5.246,3.1318 T4.3087,2.4906 2.1907,1.8251 1.01,1.8009 A1.8009,1.8009 0 0 1 1.01,-1.8009 ZM8.3878,2.0537 T8.2777,2.6218 7.4275,4.6639 6.8201,6.3367 6.9526,6.5356 A1.9931,1.9931 0 0 1 2.9711,6.7268 T3.6862,4.5554 4.5105,1.8453 4.6198,1.3068 A1.9207,1.9207 0 0 1 8.3878,2.0537 ZM5.7939,4.8201 T6.515,5.1619 8.8373,5.8561 10.4385,6.2085 A1.88,1.88 0 0 1 9.6815,9.8915 T7.6452,9.4962 4.8693,8.7716 4.1298,8.4423 A1.9931,1.9931 0 0 1 5.7939,4.8201 Z" stroke-linecap="round" fill="#4dabf7"/></g></g><g transform="matrix(1, 0, 0, 1, 1630.1409, 5981.5604) scale(1.005873239655112, 1.005873239655112)" opacity="1"><g transform="scale(0.9941610538748145)"><path d="M1.5999,-0.2295 T1.8675,1.4361 2.0408,4.6394 1.8147,8.6607 1.6829,11.1443 A1.685,1.685 0 0 1 -1.6829,10.9757 T-1.6204,9.6515 -1.3688,5.9427 -1.3898,1.8938 -1.5999,0.2295 A1.6163,1.6163 0 0 1 1.5999,-0.2295 Z" stroke-linecap="round" fill="#4dabf7"/></g></g><g transform="matrix(1, 0, 0, 1, 1633.1585, 5987.5957) scale(1.005873239655112, 1.005873239655112)" opacity="1"><g transform="scale(0.9941610538748145)"><path d="M-1.3257,1.8846 T-2.7539,1.6586 -6.0733,1.238 -9.0747,0.9563 -10.185,0.8692 A1.8834,1.8834 0 0 1 -9.935,-2.8892 T-8.8229,-2.8285 -5.6266,-2.5779 -2.1183,-2.1363 -0.6943,-1.8846 A1.9109,1.9109 0 0 1 -1.3257,1.8846 Z" stroke-linecap="round" fill="#4dabf7"/></g></g><g transform="matrix(1, 0, 0, 1, 1643.2172, 5980.5546) scale(1.005873239655112, 1.005873239655112)" opacity="1"><g transform="scale(0.9941610538748145)"><path d="M1.9623,-0.493 T2.1995,0.4818 1.9162,3.6771 2.1902,7.7286 4.1588,11.3966 5.3329,13.2338 A1.9267,1.9267 0 0 1 1.777,14.7184 T1.705,14.4359 0.5537,12.8819 -1.8219,10.3197 -3.0125,7.2421 -2.194,3.9008 -1.7217,1.4196 -1.9623,0.493 A2.0233,2.0233 0 0 1 1.9623,-0.493 ZM5.1105,15.113 T4.7528,15.6189 2.8251,17.2469 -0.4812,18.6202 -3.544,18.3189 -5.8534,17.2461 -6.8362,16.7257 A1.8192,1.8192 0 0 1 -5.2438,13.4543 T-3.7606,14.2277 -0.5121,14.4142 1.6263,13.3333 1.9994,12.8392 A1.9267,1.9267 0 0 1 5.1105,15.113 Z" stroke-linecap="round" fill="#4dabf7"/></g></g><g transform="matrix(1, 0, 0, 1, 1644.2231, 5979.5487) scale(1.005873239655112, 1.005873239655112)" opacity="1"><g transform="scale(0.9941610538748145)"><path d="M-0.2521,-1.757 T1.4053,-2.0435 5.9769,-3.1192 10.7512,-4.3727 12.6112,-4.837 A1.8765,1.8765 0 0 1 13.5488,-1.203 T11.6964,-0.7094 8.1908,0.2281 5.0675,1.0233 1.9247,1.5657 0.2521,1.757 A1.775,1.775 0 0 1 -0.2521,-1.757 Z" stroke-linecap="round" fill="#4dabf7"/></g></g><g transform="matrix(1, 0, 0, 1, 1662.3288, 5988.6015) scale(1.005873239655112, 1.005873239655112)" opacity="1"><g transform="scale(0.9941610538748145)"><path d="M2.0115,0.4039 T1.7923,1.6016 0.6605,4.7268 -1.9567,8.2802 -5.0375,10.694 -7.7156,12.1944 -9.0174,12.9067 A2.1207,2.1207 0 0 1 -11.1026,9.2133 T-9.8203,8.4666 -6.7144,6.3841 -3.7097,3.5037 -2.2701,0.7776 -2.0115,-0.4039 A2.0517,2.0517 0 0 1 2.0115,0.4039 Z" stroke-linecap="round" fill="#4dabf7"/></g></g><g transform="matrix(1, 0, 0, 1, 1654.2818, 5988.6015) scale(1.005873239655112, 1.005873239655112)" opacity="1"><g transform="scale(0.9941610538748145)"><path d="M1.6229,-0.9744 T2.3498,0.2002 4.6013,3.0676 8.0896,5.9772 11.0377,7.7685 12.022,8.3429 A1.9682,1.9682 0 0 1 10.098,11.7771 T9.0941,11.2377 6.2521,9.6165 3.067,7.0153 0.7501,4.4397 -0.9213,2.1789 -1.6229,0.9744 A1.893,1.893 0 0 1 1.6229,-0.9744 Z" stroke-linecap="round" fill="#4dabf7"/></g></g><g transform="matrix(1, 0, 0, 1, 1676.411, 5981.5604) scale(1.005873239655112, 1.005873239655112)" opacity="1"><g transform="scale(0.9941610538748145)"><path d="M1.8239,-0.2617 T2.0624,1.4034 2.5198,5.4384 2.8312,10.4167 2.9236,13.025 A1.9144,1.9144 0 0 1 -0.9036,13.135 T-0.9591,10.6024 -1.1799,5.8306 -1.5846,1.9265 -1.8239,0.2617 A1.8426,1.8426 0 0 1 1.8239,-0.2617 Z" stroke-linecap="round" fill="#4dabf7"/></g></g><g transform="matrix(1, 0, 0, 1, 1679.4286, 5988.6015) scale(1.005873239655112, 1.005873239655112)" opacity="1"><g transform="scale(0.9941610538748145)"><path d="M0.4084,1.4304 T-1.2725,1.972 -4.6242,2.2877 -7.7992,1.7933 -9.3034,1.5248 A1.5457,1.5457 0 0 1 -8.7966,-1.5248 T-6.2515,-1.0684 -2.0574,-1.0212 -0.4084,-1.4304 A1.4875,1.4875 0 0 1 0.4084,1.4304 Z" stroke-linecap="round" fill="#4dabf7"/></g></g><g transform="matrix(1, 0, 0, 1, 1685.4639, 5980.5546) scale(1.005873239655112, 1.005873239655112)" opacity="1"><g transform="scale(0.9941610538748145)"><path d="M0.6619,-1.9891 T2.0907,-1.5103 5.6655,0.9201 7.8116,2.8716 A2.131,2.131 0 0 1 4.0979,4.9627 T3.1462,3.9478 0.7662,2.461 -0.6619,1.9891 A2.0963,2.0963 0 0 1 0.6619,-1.9891 ZM7.5297,5.3526 T7.0723,5.8625 4.9198,7.3959 3.2246,8.4193 A2.142,2.142 0 0 1 1.5322,4.4838 T2.4983,3.9769 3.922,2.9758 4.3798,2.4817 A2.131,2.131 0 0 1 7.5297,5.3526 ZM4.235,5.3833 T4.6288,6.1106 6.2048,8.4501 7.7616,12.0823 6.5049,15.8861 3.4296,18.1131 -0.1902,18.5381 -3.3736,18.3273 -4.3813,18.1349 A2.0765,2.0765 0 0 1 -3.6587,14.0451 T-1.3718,14.2132 2.2725,13.1296 2.6184,10.5991 1.0644,8.42 0.5218,7.5198 A2.142,2.142 0 0 1 4.235,5.3833 Z" stroke-linecap="round" fill="#4dabf7"/></g></g><g transform="matrix(1, 0, 0, 1, 1698.5402, 5973.5134) scale(1.005873239655112, 1.005873239655112)" opacity="1"><g transform="scale(0.9941610538748145)"><path d="M2.0907,-0.2999 T2.3151,1.3662 3.1088,6.08 3.8001,10.7699 3.9925,13.9947 4.1096,17.1301 3.9311,20.1737 2.8787,24.1242 0.5708,28.4556 -1.7297,31.0475 -2.5496,31.7678 A2.1641,2.1641 0 0 1 -5.4904,28.5922 T-4.2164,27.4027 -2.1541,24.565 -0.8133,20.8328 -0.2701,17.2371 -0.315,14.2041 -0.43,11.145 -0.6581,8.0889 -1.1954,5.0989 -1.8373,1.9637 -2.0907,0.2999 A2.1121,2.1121 0 0 1 2.0907,-0.2999 Z" stroke-linecap="round" fill="#4dabf7"/></g></g><g transform="matrix(1, 0, 0, 1, 1591.9177, 5971.5017) scale(1.005873239655112, 1.005873239655112)" opacity="1"><g transform="scale(0.9941610538748145)"><path d="M1.7513,2.4097 T0.8011,3.5998 -1.1628,5.9388 -3.1847,8.1705 -5.1959,10.3009 -7.3241,12.9568 -9.2803,16.8103 -9.9454,20.8556 -8.0475,23.4571 -6.3155,24.2587 A2.0253,2.0253 0 0 1 -7.7645,28.0413 T-9.8331,27.2508 -13.2523,24.5855 -14.5584,20.2572 -14.1057,16.4242 -12.941,13.4771 -9.8371,9.0345 -5.5718,4.0739 -2.7026,0.7994 -1.7513,-0.3897 A2.2419,2.2419 0 0 1 1.7513,2.4097 Z" stroke-linecap="round" fill="#4dabf7"/></g></g><g transform="matrix(1, 0, 0, 1, 1556.7121, 5986.5898) scale(1.005873239655112, 1.005873239655112)" opacity="1"><g transform="scale(0.9941610538748145)"><path d="M0.2973,-1.7777 T1.7362,-1.5963 5.958,-0.8844 10.5182,-0.1156 12.2955,0.1228 A1.9006,1.9006 0 0 1 11.8445,3.8972 T10.061,3.71 5.4081,2.9466 1.1207,2.074 -0.2973,1.7777 A1.8023,1.8023 0 0 1 0.2973,-1.7777 Z" stroke-linecap="round" fill="#4dabf7"/></g></g><g transform="matrix(1, 0, 0, 1, 1550.6769, 6005.7014) scale(1.005873239655112, 1.005873239655112)" opacity="1"><g transform="scale(0.9941610538748145)"><path d="M-0.3502,-2.0943 T1.0784,-2.3333 5.2168,-2.792 10.1059,-3.0683 14.139,-3.1563 17.6233,-2.9532 21.8677,-2.5673 27.0953,-2.1281 31.8217,-1.6769 36.1983,-1.482 40.8074,-1.0866 45.4778,-0.643 49.9073,-0.5478 54.0465,-0.5334 58.3922,-0.268 62.5091,0.1513 66.2661,0.3467 70.6857,0.3939 75.7849,0.3886 79.8519,0.3715 82.7599,0.3547 86.8555,0.3285 92.025,0.2956 97.4561,0.2596 101.8267,0.2308 104.8081,0.2146 108.7105,0.1983 113.6009,0.1805 118.8309,0.1626 123.0364,0.1498 126.5031,0.1394 130.7292,-0.2321 135.5359,-0.7101 140.3996,-1.2093 144.1427,-1.6729 148.0925,-2.1643 152.6659,-2.8895 156.2434,-3.3703 159.2078,-3.5951 163.0346,-4.1093 165.3842,-4.5681 A2.6243,2.6243 0 0 1 166.5558,0.5481 T165.2168,0.9036 161.1288,1.7173 155.9198,2.6243 151.1461,3.2683 147.3768,3.7749 143.4922,4.2526 138.5503,4.7417 133.7956,5.2274 130.0415,5.6489 126.5128,5.9006 123.0364,5.8902 118.8309,5.8774 113.6009,5.8595 108.7105,5.8417 104.8081,5.8254 101.8266,5.8092 97.456,5.7803 92.0247,5.7441 86.8545,5.7104 82.7578,5.6827 79.8478,5.6637 75.7732,5.6368 71.6456,5.6068 68.1114,5.5585 63.9407,5.4023 59.9454,4.9175 56.0529,4.5394 51.939,4.4997 47.5699,4.4032 42.739,4.0898 37.9911,3.5822 33.5618,3.1787 28.9474,2.6287 24.1202,2.1007 18.8507,1.6166 14.1918,1.2553 10.2465,1.274 5.6716,1.4521 1.7786,1.8556 0.3502,2.0943 A2.1234,2.1234 0 0 1 -0.3502,-2.0943 Z" stroke-linecap="round" fill="#e599f7"/></g></g><g transform="matrix(1, 0, 0, 1, 1596.947, 6030.8482) scale(1.005873239655112, 1.005873239655112)" opacity="1"><g transform="scale(0.9941610538748145)"><path d="M0.1531,-1.3721 T2.2935,-1.1332 6.8185,-0.6282 9.2031,-0.3621 A1.3806,1.3806 0 0 1 8.8969,2.3821 T6.5122,2.1159 1.9872,1.6109 -0.1531,1.3721 A1.3806,1.3806 0 0 1 0.1531,-1.3721 Z" stroke-linecap="round" fill="#e599f7"/></g></g><g transform="matrix(1, 0, 0, 1, 1624.1056, 6022.8012) scale(1.005873239655112, 1.005873239655112)" opacity="1"><g transform="scale(0.9941610538748145)"><path d="M2.0144,-0.5061 T2.2418,0.6041 1.5724,3.7558 1.601,7.2014 3.9311,10.8568 4.391,14.9164 1.0687,17.6368 -3.5491,18.494 -7.1092,17.7393 -9.649,16.3591 -10.8689,15.6788 A1.7918,1.7918 0 0 1 -9.2511,12.4812 T-7.9804,13.0611 -4.4951,14.1019 -0.3425,14.1029 0.5503,12.4493 -1.4652,10.0862 -2.9502,7.0695 -2.4893,3.6554 -1.7641,1.2973 -2.0144,0.5061 A2.077,2.077 0 0 1 2.0144,-0.5061 Z" stroke-linecap="round" fill="#e599f7"/></g></g><g transform="matrix(1, 0, 0, 1, 1624.1056, 6019.7836) scale(1.005873239655112, 1.005873239655112)" opacity="1"><g transform="scale(0.9941610538748145)"><path d="M0.4761,-1.6675 T2.1588,-1.2536 5.271,-0.3752 8.6464,0.4117 13.3894,0.965 16.1866,1.196 A1.8266,1.8266 0 0 1 15.9934,4.844 T14.4842,4.8051 10.1994,4.5636 5.1211,3.5511 1.1712,2.2044 -0.4761,1.6675 A1.7342,1.7342 0 0 1 0.4761,-1.6675 Z" stroke-linecap="round" fill="#e599f7"/></g></g><g transform="matrix(1, 0, 0, 1, 1649.2524, 6028.8365) scale(1.005873239655112, 1.005873239655112)" opacity="1"><g transform="scale(0.9941610538748145)"><path d="M1.6034,2.2145 T0.8974,3.1681 -1.1996,5.8702 -4.3327,8.9802 -8.0244,11.5153 -11.0191,13.2722 -12.0645,13.8554 A2.054,2.054 0 0 1 -14.0955,10.2846 T-13.0599,9.6842 -10.3746,8.0855 -7.0737,5.8561 -4.2353,3.1631 -2.3258,0.7533 -1.6034,-0.1945 A2.0055,2.0055 0 0 1 1.6034,2.2145 Z" stroke-linecap="round" fill="#e599f7"/></g></g><g transform="matrix(1, 0, 0, 1, 1639.1937, 6029.8423) scale(1.005873239655112, 1.005873239655112)" opacity="1"><g transform="scale(0.9941610538748145)"><path d="M1.4219,-0.8537 T2.1534,0.3253 4.0269,2.9372 6.2697,5.8902 8.8488,9.1675 10.327,10.9247 A1.7154,1.7154 0 0 1 7.773,13.2153 T6.086,11.4433 3.3931,8.1469 1.1796,4.9383 -0.725,2.0539 -1.4219,0.8537 A1.6585,1.6585 0 0 1 1.4219,-0.8537 Z" stroke-linecap="round" fill="#e599f7"/></g></g><g transform="matrix(1, 0, 0, 1, 1659.3112, 6032.86) scale(1.005873239655112, 1.005873239655112)" opacity="1"><g transform="scale(0.9941610538748145)"><path d="M0,-0.7103 T1.4285,-0.7479 4.3186,-0.772 8.2617,-1.2065 10.7431,-1.6545 A1.6846,1.6846 0 0 1 11.3769,1.6545 T9.9911,1.9409 7.1988,2.5029 4.3246,2.792 1.4285,2.7679 0,2.7303 A1.7203,1.7203 0 0 1 0,-0.7103 Z" stroke-linecap="round" fill="#e599f7"/></g></g><g transform="matrix(1, 0, 0, 1, 1678.4228, 6021.7954) scale(1.005873239655112, 1.005873239655112)" opacity="1"><g transform="scale(0.9941610538748145)"><path d="M0.3132,-2.1834 T1.9753,-1.9177 5.1702,-1.2396 7.8335,0.0629 9.6434,2.9915 9.1091,6.7738 9.0744,9.4137 11.3942,11.9795 12.736,14.415 12.9373,15.1809 A2.2691,2.2691 0 0 1 8.5213,16.227 T7.9344,14.9509 5.9619,12.474 4.1273,9.4962 4.8185,5.9184 4.4907,3.3625 1.3546,2.3954 -0.3132,2.1834 A2.2057,2.2057 0 0 1 0.3132,-2.1834 ZM12.59,17.0026 T12.1825,17.5984 10.6234,19.1349 8.0677,20.5124 4.237,20.8502 0.7098,20.5173 -0.391,20.2835 A2.2083,2.2083 0 0 1 0.391,15.9365 T2.18,16.2338 6.032,16.0104 8.4818,14.9475 8.8686,14.4053 A2.2691,2.2691 0 0 1 12.59,17.0026 Z" stroke-linecap="round" fill="#e599f7"/></g></g><g transform="matrix(1, 0, 0, 1, 1884.6268, 5924.2257) scale(1.005873239655112, 1.005873239655112)" opacity="1"><g transform="scale(0.9941610538748145)"><path d="M1.6875,0 T1.7122,1.665 1.4993,6.0456 0.9989,11.0202 0.736,13.2791 A1.7573,1.7573 0 0 1 -2.756,12.8809 T-2.4866,10.4719 -1.9771,5.6964 -1.7122,1.665 -1.6875,0 A1.6875,1.6875 0 0 1 1.6875,0 Z" stroke-linecap="round" fill="#e599f7"/></g></g><g transform="matrix(1, 0, 0, 1, 1888.6503, 5929.255) scale(1.005873239655112, 1.005873239655112)" opacity="1"><g transform="scale(0.9941610538748145)"><path d="M-1.01,1.6571 T-2.9115,1.6814 -6.7681,1.6605 -10.9016,1.5766 -13.08,1.5378 A1.5378,1.5378 0 0 1 -13.08,-1.5378 T-10.9016,-1.5766 -6.7681,-1.6605 -2.9115,-1.6814 -1.01,-1.6571 A1.6571,1.6571 0 0 1 -1.01,1.6571 Z" stroke-linecap="round" fill="#e599f7"/></g></g><g transform="matrix(1, 0, 0, 1, 1907.7619, 5908.1317) scale(1.005873239655112, 1.005873239655112)" opacity="1"><g transform="scale(0.9941610538748145)"><path d="M0.2413,-1.4433 T1.6795,-1.2645 4.7473,-0.9413 8.273,-0.6322 10.1692,-0.4676 A1.4817,1.4817 0 0 1 9.9508,2.4876 T8.051,2.3717 4.3736,2.1485 1.1774,1.7423 -0.2413,1.4433 A1.4633,1.4633 0 0 1 0.2413,-1.4433 Z" stroke-linecap="round" fill="#e599f7"/></g></g><g transform="matrix(1, 0, 0, 1, 1935.9263, 5899.0788) scale(1.005873239655112, 1.005873239655112)" opacity="1"><g transform="scale(0.9941610538748145)"><path d="M1.5199,1.1418 T0.7991,2.0931 -1.4746,4.6504 -2.0258,7.9347 -0.141,11.0971 1.1551,14.0921 1.364,16.5531 1.1601,17.5031 A1.8636,1.8636 0 0 1 -2.3729,16.3155 T-2.4366,15.307 -3.5166,12.8341 -5.7458,9.7785 -6.4732,6.0772 -4.4614,2.3629 -2.2275,-0.1917 -1.5199,-1.1418 A1.901,1.901 0 0 1 1.5199,1.1418 ZM0.012,18.6673 T-0.7929,18.9578 -3.592,19.8804 -7.6754,20.0274 -11.4753,17.8157 -13.8201,15.0348 -14.4543,13.9805 A1.643,1.643 0 0 1 -11.7057,12.1795 T-10.6226,13.8178 -7.9068,16.1283 -4.5592,16.2534 -2.0345,15.4288 -1.2247,15.1513 A1.8636,1.8636 0 0 1 0.012,18.6673 Z" stroke-linecap="round" fill="#e599f7"/></g></g><g transform="matrix(1, 0, 0, 1, 1933.9146, 5900.0847) scale(1.005873239655112, 1.005873239655112)" opacity="1"><g transform="scale(0.9941610538748145)"><path d="M0,-1.4211 T1.665,-1.4857 6.1099,-1.599 11.2395,-1.5981 14.8396,-1.5212 16.09,-1.494 A1.494,1.494 0 0 1 16.09,1.494 T14.8396,1.5212 11.2395,1.5981 6.1099,1.599 1.665,1.4857 0,1.4211 A1.4211,1.4211 0 0 1 0,-1.4211 Z" stroke-linecap="round" fill="#e599f7"/></g></g><g transform="matrix(1, 0, 0, 1, 1957.0497, 5909.1376) scale(1.005873239655112, 1.005873239655112)" opacity="1"><g transform="scale(0.9941610538748145)"><path d="M1.6177,0.6465 T1.1466,1.8526 -0.8099,4.8875 -4.1797,8.0617 -8.3595,10.5038 -12.0189,12.1498 -13.3828,12.6993 A1.7814,1.7814 0 0 1 -14.7772,9.4207 T-13.4353,8.8194 -10.0626,7.2191 -6.5136,5.2483 -3.7861,2.988 -2.0974,0.5266 -1.6177,-0.6465 A1.7421,1.7421 0 0 1 1.6177,0.6465 Z" stroke-linecap="round" fill="#e599f7"/></g></g><g transform="matrix(1, 0, 0, 1, 1945.9851, 5911.1493) scale(1.005873239655112, 1.005873239655112)" opacity="1"><g transform="scale(0.9941610538748145)"><path d="M1.0143,-1.3501 T1.9659,-0.637 4.3517,1.2852 6.9265,3.5583 9.4894,5.8186 12.0051,7.8554 13.0986,8.6959 A1.7085,1.7085 0 0 1 11.0414,11.4241 T9.9326,10.604 7.2291,8.4656 4.5632,6.1045 2.1886,3.9212 -0.0644,2.0655 -1.0143,1.3501 A1.6887,1.6887 0 0 1 1.0143,-1.3501 Z" stroke-linecap="round" fill="#e599f7"/></g></g><g transform="matrix(1, 0, 0, 1, 1966.1025, 5909.1376) scale(1.005873239655112, 1.005873239655112)" opacity="1"><g transform="scale(0.9941610538748145)"><path d="M0.4157,-1.4561 T2.0828,-0.9905 5.2519,-0.3017 8.5285,0.1941 10.3029,0.4667 A1.5623,1.5623 0 0 1 9.8171,3.5533 T8.0447,3.2677 4.5912,2.7042 1.2472,1.9412 -0.4157,1.4561 A1.5143,1.5143 0 0 1 0.4157,-1.4561 Z" stroke-linecap="round" fill="#e599f7"/></g></g><g transform="matrix(1, 0, 0, 1, 1984.2082, 5899.0788) scale(1.005873239655112, 1.005873239655112)" opacity="1"><g transform="scale(0.9941610538748145)"><path d="M0,-1.7129 T1.9055,-1.6976 5.4436,-1.4305 8.4002,-0.4637 10.5593,1.5368 10.4609,4.92 7.7111,7.7056 5.8944,8.3934 A1.7661,1.7661 0 0 1 5.041,4.9658 T6.4548,4.0374 5.8364,2.3957 1.9021,1.6976 0,1.7129 A1.7129,1.7129 0 0 1 0,-1.7129 ZM7.194,7.0527 T7.0319,7.7832 6.8699,8.5138 A1.758,1.758 0 0 1 3.4333,7.771 T3.5874,7.0387 3.7415,6.3065 A1.7661,1.7661 0 0 1 7.194,7.0527 ZM5.9131,6.5579 T6.3612,6.7763 7.9603,7.8973 10.763,10.6346 12.7331,14.3244 12.1723,17.6688 9.8336,20.0234 6.0411,21.3487 2.2425,22.0565 -0.9537,22.6006 -2.6842,22.897 A1.8085,1.8085 0 0 1 -3.3558,19.343 T-1.6366,18.9875 1.7131,18.2944 4.8522,17.8003 8.0907,16.4429 8.7933,13.7812 6.523,11.2346 4.8351,9.9378 4.39,9.7269 A1.758,1.758 0 0 1 5.9131,6.5579 Z" stroke-linecap="round" fill="#e599f7"/></g></g><g transform="matrix(1, 0, 0, 1, 1905.7501, 5934.2844) scale(1.005873239655112, 1.005873239655112)" opacity="1"><g transform="scale(0.9941610538748145)"><path d="M0,-2.1001 T1.4285,-2.0969 5.4442,-2.1166 9.7008,-2.1599 14.8656,-2.2155 21.6316,-2.2805 28.2907,-2.3401 35.1299,-2.3831 41.5888,-2.4057 47.1336,-2.422 52.0852,-2.1843 56.3727,-1.8146 60.0998,-1.3723 63.7108,-0.91 67.1174,-0.6846 70.5802,-0.5614 74.156,-0.7148 77.9473,-1.0171 81.86,-1.3793 85.4287,-1.9853 88.8674,-2.5032 92.4575,-2.8502 94.2933,-3.0291 A2.0354,2.0354 0 0 1 94.8067,1.0091 T92.9845,1.2951 89.6334,1.8305 86.2696,2.5218 82.3424,3.3037 78.3499,3.7623 74.3659,4.111 70.4043,4.2952 66.7896,4.1615 63.0849,3.8996 59.5208,3.4369 55.9603,3.0218 51.8318,2.662 47.1322,2.422 41.5888,2.4057 35.1299,2.3831 28.2907,2.3401 21.6316,2.2805 14.8656,2.2155 9.7008,2.1599 5.4442,2.1166 1.4285,2.0969 0,2.1001 A2.1001,2.1001 0 0 1 0,-2.1001 Z" stroke-linecap="round" fill="#e599f7"/></g></g><g transform="matrix(1, 0, 0, 1, 1918.8265, 5959.4312) scale(1.005873239655112, 1.005873239655112)" opacity="1"><g transform="scale(0.9941610538748145)"><path d="M1.1645,1.1645 T0.2348,2.1379 -2.6725,4.7946 -6.4605,7.825 -9.6886,9.6124 -12.3574,10.3799 -13.6084,10.7071 A1.7229,1.7229 0 0 1 -14.5516,7.3929 T-12.5018,6.8174 -8.7422,4.9939 -5.0703,2.2187 -2.1363,-0.2364 -1.1645,-1.1645 A1.6468,1.6468 0 0 1 1.1645,1.1645 Z" stroke-linecap="round" fill="#e599f7"/></g></g><g transform="matrix(1, 0, 0, 1, 1908.7677, 5958.4253) scale(1.005873239655112, 1.005873239655112)" opacity="1"><g transform="scale(0.9941610538748145)"><path d="M1.1474,-1.1474 T1.8748,-0.4439 3.8647,1.8324 6.2664,4.8475 8.5556,7.6725 10.5028,9.9997 11.3,10.9443 A1.6748,1.6748 0 0 1 8.82,13.1957 T7.9566,12.311 5.7286,9.8556 3.3963,6.9473 1.3418,4.1035 -0.4463,1.8723 -1.1474,1.1474 A1.6227,1.6227 0 0 1 1.1474,-1.1474 Z" stroke-linecap="round" fill="#e599f7"/></g></g><g transform="matrix(1, 0, 0, 1, 1921.8441, 5944.3431) scale(1.005873239655112, 1.005873239655112)" opacity="1"><g transform="scale(0.9941610538748145)"><path d="M0,-2.0957 T1.4306,-2.0872 4.5503,-1.8079 7.4311,-0.7583 8.6229,0.0205 A2.1039,2.1039 0 0 1 6.0371,3.34 T4.4448,2.7094 1.4263,2.0872 0,2.0957 A2.0957,2.0957 0 0 1 0,-2.0957 ZM9.4179,1.939 T9.2896,2.6121 7.6607,4.7581 5.7878,6.5357 5.4156,6.8403 A2.0918,2.0918 0 0 1 2.8725,3.5185 T4.0484,2.9036 5.2332,1.8551 5.2421,1.4214 A2.1039,2.1039 0 0 1 9.4179,1.939 ZM6.2312,5.3186 T6.2068,5.759 6.1825,6.1993 A2.1018,2.1018 0 0 1 1.9883,5.9196 T2.0226,5.4799 2.0569,5.0403 A2.0918,2.0918 0 0 1 6.2312,5.3186 ZM5.585,4.5869 T5.9835,5.0115 7.9742,5.6186 10.9164,6.0116 12.2662,6.2221 A1.8384,1.8384 0 0 1 11.8738,9.8779 T9.1345,9.7062 5.0166,9.0503 3.1118,8.049 2.5857,7.5321 A2.1018,2.1018 0 0 1 5.585,4.5869 Z" stroke-linecap="round" fill="#e599f7"/></g></g><g transform="matrix(1, 0, 0, 1, 1936.9322, 5956.4136) scale(1.005873239655112, 1.005873239655112)" opacity="1"><g transform="scale(0.9941610538748145)"><path d="M1.4336,-0.7168 T1.9311,0.2273 2.9117,3.1205 3.5288,6.9939 3.6628,8.9181 A1.6581,1.6581 0 0 1 0.3572,9.1819 T0.197,7.4197 -0.2452,4.1446 -0.9804,1.6742 -1.4336,0.7168 A1.6028,1.6028 0 0 1 1.4336,-0.7168 Z" stroke-linecap="round" fill="#e599f7"/></g></g><g transform="matrix(1, 0, 0, 1, 1941.9616, 5960.4371) scale(1.005873239655112, 1.005873239655112)" opacity="1"><g transform="scale(0.9941610538748145)"><path d="M-0.731,1.6659 T-2.156,1.912 -6.2299,2.4183 -8.8788,2.6785 A1.6773,1.6773 0 0 1 -9.2212,-0.6585 T-6.6823,-0.9306 -2.7162,-1.4343 -1.289,-1.6659 A1.6892,1.6892 0 0 1 -0.731,1.6659 Z" stroke-linecap="round" fill="#e599f7"/></g></g><g transform="matrix(1, 0, 0, 1, 1950.0085, 5957.4195) scale(1.005873239655112, 1.005873239655112)" opacity="1"><g transform="scale(0.9941610538748145)"><path d="M1.3866,0.4614 T0.9314,1.8859 1.1721,4.7369 2.6552,7.7925 2.4308,11.2546 -0.7512,13.1619 -3.7701,12.8523 -4.6183,12.4686 A1.5304,1.5304 0 0 1 -3.4217,9.6514 T-1.3753,9.7353 -0.2983,8.175 -1.8226,4.4671 -1.8821,0.971 -1.3866,-0.4614 A1.4614,1.4614 0 0 1 1.3866,0.4614 Z" stroke-linecap="round" fill="#e599f7"/></g></g><g transform="matrix(1, 0, 0, 1, 1949.0027, 5957.4195) scale(1.005873239655112, 1.005873239655112)" opacity="1"><g transform="scale(0.9941610538748145)"><path d="M-0.2078,-1.4483 T1.4523,-1.7215 5.5738,-2.4042 9.3621,-3.1397 10.689,-3.4657 A1.5023,1.5023 0 0 1 11.431,-0.5543 T10.11,-0.2054 6.1682,0.5913 1.8776,1.2438 0.2078,1.4483 A1.4632,1.4632 0 0 1 -0.2078,-1.4483 Z" stroke-linecap="round" fill="#e599f7"/></g></g><g transform="matrix(1, 0, 0, 1, 1972.1378, 5960.4371) scale(1.005873239655112, 1.005873239655112)" opacity="1"><g transform="scale(0.9941610538748145)"><path d="M1.3571,0.9032 T0.89,1.634 -1.2575,3.9474 -4.1613,6.4841 -7.3748,8.6242 -10.4014,10.2122 -11.4377,10.6142 A1.6871,1.6871 0 0 1 -12.7023,7.4858 T-10.9795,6.7981 -7.2824,4.5459 -3.8162,1.7368 -1.8407,-0.2055 -1.3571,-0.9032 A1.6302,1.6302 0 0 1 1.3571,0.9032 Z" stroke-linecap="round" fill="#e599f7"/></g></g><g transform="matrix(1, 0, 0, 1, 1963.0849, 5960.4371) scale(1.005873239655112, 1.005873239655112)" opacity="1"><g transform="scale(0.9941610538748145)"><path d="M2.1431,-1.1331 T3.1128,-0.1973 5.1682,2.1549 7.5875,4.7897 9.9962,6.8903 11.0713,7.7726 A1.6293,1.6293 0 0 1 9.0487,10.3274 T7.9433,9.4835 5.2114,7.173 2.6626,4.3854 0.8087,2.0988 -0.1231,1.1331 A1.6025,1.6025 0 0 1 2.1431,-1.1331 Z" stroke-linecap="round" fill="#e599f7"/></g></g><g transform="matrix(1, 0, 0, 1, 1987.2259, 5954.4019) scale(1.005873239655112, 1.005873239655112)" opacity="1"><g transform="scale(0.9941610538748145)"><path d="M1.597,-0.1782 T1.8448,1.9611 2.3027,6.7072 2.5912,10.646 2.6695,11.9779 A1.6621,1.6621 0 0 1 -0.6495,12.1621 T-0.719,10.8296 -0.9628,6.979 -1.367,2.3195 -1.597,0.1782 A1.6069,1.6069 0 0 1 1.597,-0.1782 Z" stroke-linecap="round" fill="#e599f7"/></g></g><g transform="matrix(1, 0, 0, 1, 1991.2493, 5960.4371) scale(1.005873239655112, 1.005873239655112)" opacity="1"><g transform="scale(0.9941610538748145)"><path d="M-0.7562,1.5153 T-2.1815,1.7605 -5.3819,2.1098 -9.0556,2.327 -10.9542,2.4402 A1.4341,1.4341 0 0 1 -11.1658,-0.4202 T-9.2711,-0.5875 -5.747,-0.9026 -2.6907,-1.2828 -1.2638,-1.5153 A1.5364,1.5364 0 0 1 -0.7562,1.5153 Z" stroke-linecap="round" fill="#e599f7"/></g></g><g transform="matrix(1, 0, 0, 1, 1996.2787, 5950.3784) scale(1.005873239655112, 1.005873239655112)" opacity="1"><g transform="scale(0.9941610538748145)"><path d="M0.6342,-1.9058 T2.0564,-1.4075 5.5855,0.136 9.4862,2.9912 11.6797,6.9254 10.636,10.5812 7.6235,12.8066 6.0545,13.5004 A1.9993,1.9993 0 0 1 4.7926,9.7061 T5.2668,9.5606 6.8662,8.1789 6.9784,5.7991 4.1004,3.733 0.8005,2.3582 -0.6342,1.9058 A2.0086,2.0086 0 0 1 0.6342,-1.9058 ZM7.4072,11.3539 T7.256,11.6927 8.747,13.2201 11.4894,16.0733 11.59,19.6349 7.8891,22.5461 3.5436,23.4422 0.3745,23.1782 -1.1506,23.0323 A1.9174,1.9174 0 0 1 -0.8694,19.2077 T1.7586,19.3699 6.606,18.8603 7.7899,17.0439 5.4419,15.0769 3.7845,13.0534 3.4398,11.8525 A1.9993,1.9993 0 0 1 7.4072,11.3539 Z" stroke-linecap="round" fill="#e599f7"/></g></g></svg>