<svg xmlns="http://www.w3.org/2000/svg" direction="ltr" width="563.8335499286941" height="455" viewBox="2603.386660105568 5162.772566900441 563.8335499286941 455" stroke-linecap="round" stroke-linejoin="round" style="background-color: transparent;"><defs/><g transform="matrix(1, 0, 0, 1, 2881.2232, 5194.7726)" opacity="1"><g transform="scale(1)"><path d="M0,0 Q0.456,0.456 0.58,0.808 T0.5435,1.5796 0.2957,2.4553 0.1609,3.3877 0.0875,4.3509 0.0476,5.3309 0.0259,6.548 0.0141,7.8941 0.0077,9.0824 0.0042,10.1848 0.0023,11.4685 0.0012,12.8509 0.0007,14.0589 0.0004,15.172 0.0002,16.4616 0.0001,17.8471 0.0001,19.0568 0,20.1709 0,21.461 0,22.8468 0,24.2846 0,25.7508 0,27.0045 0,28.3704 0,30.0255 0,31.6099 0,33.1558 0,34.6807 0,35.9663 0,37.3497 0,38.7862 0,40.2517 0,41.7329 0,42.9947 0,44.3651 0,45.7946 0,47.2563 0,48.9634 0,51.0321 0,53.0695 0,54.8618 0,56.5208 0,58.1073 0,59.6544 0,61.18 0,62.6939 0,64.2015 0,65.7056 0,67.2079 0,68.7091 0,70.2097 0,71.7101 0,73.2103 0,74.7104 0,76.2105 0,77.9385 0,79.5625 0,81.13 0,82.6667 0,83.9587 0,85.3455 0,87.012 0,88.6025 0,90.1518 0,91.6786 0,93.1931 0,94.9291 0,96.5574 0,98.1272 0,99.8932 0,101.5379 0,102.8886 0,104.3074 0,105.7632 0,107.2392 0,108.9541 0,110.571 0,111.9066 0,113.3172 0,114.9966 0,116.5941 0,118.1472 0,119.6761 0,121.1918 0,122.7003 0,124.205 0,125.7075 0,127.2089 0,128.7096 0,129.982 0,131.3582 0,132.7909 0,134.2542 0,135.7343 0,137.2235 0,138.9456 0,140.5664 0,142.1321 0,143.8959 0,145.7674 0,147.6974 0,149.6594 0,151.6387 0,153.6275 0,155.6213 0,157.618 0,159.6162 0,161.6152 0,163.6147 0,165.6144 0,167.6142 0,169.6141 0,171.6141 0,173.6141 0,175.6141 0,177.842 0,180.1941 0,182.3856 0,184.4898 0,186.7744 0,189.1573 0,191.3656 0,193.2509 -0.228,195.1885 -0.58,197.3825 -0.7715,199.7161 -0.8757,202.1256 -0.9324,204.3483 -0.9632,206.4695 -0.98,208.7634 -0.9891,211.1513 -0.9941,213.3623 -0.9968,215.4771 -0.9982,217.5395 -0.999,219.5735 -0.9995,221.82 -0.9997,224.1821 -0.9998,226.379 -0.9999,228.4862 -1,230.7725 -1,233.1562 -1,235.365 -1,237.4786 -1,239.5403 -1,241.5739 -1,243.5922 -1,245.6022 -1,247.6076 -1,249.8385 -1,252.1922 -1,254.6125 -1,257.0692 -1,259.5457 -1,262.0328 -1,264.2979 -1,266.67 -1,269.1005 -1,271.1067 -1,272.882 -1,274.7598 -1,276.4653 -1,278.0771 -1,279.866 -1,281.7511 -1,283.6886 -1,285.6546 -1,287.6361 -1,289.626 -1,291.6206 -1,293.3896 -1,295.0359 -1,296.8435 -1.228,298.5109 -1.58,300.1019 -1.7715,301.8794 -1.8757,303.7584 -1.9324,305.6926 -1.9632,307.6568 -1.98,309.6373 -1.9891,311.6267 -1.9941,313.6209 -1.9968,315.6178 -1.9982,317.6161 -1.999,319.6151 -1.7715,321.8426 -1.4197,324.1944 -1.2283,326.3858 -1.1242,328.7178 -1.0676,331.1265 -1.0368,333.3488 -1.02,335.6978 -1.0109,338.1156 -1.0059,340.3429 -1.0032,342.4665 -1.0018,344.5338 -1.001,346.5704 -1.0005,348.8183 -1.0003,351.1811 -1.0002,353.1505 -1.0001,355.1339 -1,357.1248 -1,358.8919 -1,360.7652 -1,362.6963 -1,364.4308 -1,366.0583 -1,367.8557 -1.228,369.7455 -1.58,371.6856 -1.7715,373.4249 -1.8757,374.8272 -1.9324,376.274 -1.9632,377.745 -1.98,379.0013 -1.9891,380.1407 -1.9941,381.2165 -1.9968,382.4858 -1.9982,383.8603 -1.999,385.064 -1.9995,386.1748 -2.2277,387.2351 -2.5799,388.4959 -2.852,390.1177 L-3,391 " stroke-linecap="round" fill="none" stroke="#9398b0" stroke-width="4.5" stroke-dasharray="none" stroke-dashoffset="0"/></g></g><g transform="matrix(1, 0, 0, 1, 2681.1126, 5485.7539)" opacity="1"><g transform="scale(1)"><path d="M0,0 Q2.28,0.456 3.1282,0.58 T4.6657,0.9995 5.9582,1.4557 7.1172,1.7039 8.2038,1.8389 9.0229,2.1404 9.6964,2.5324 10.5189,2.7456 11.4223,2.8616 12.3697,3.1527 13.3411,3.5391 14.3256,3.7493 15.3171,3.8636 16.3125,3.9258 17.31,3.9596 18.3086,3.978 19.3079,3.9881 20.5355,3.9935 21.8873,3.9965 23.0787,3.9981 24.1828,3.999 25.4674,3.9994 26.8503,3.9997 28.2866,3.9998 29.7519,3.9999 31.233,4 32.9508,4 34.7972,4.228 36.7137,4.58 38.4402,4.7715 40.0635,4.8757 41.8585,4.9324 43.747,4.9632 45.6864,4.98 47.6534,4.9891 49.6354,4.9941 51.3977,4.9968 53.0403,4.9982 54.8459,4.771 56.7402,4.4194 58.6827,4.2282 60.6514,4.1241 62.6343,4.0675 64.6251,4.0367 66.62,4.02 68.3893,4.0109 70.2638,4.0059 72.1955,3.7752 73.9304,3.4217 75.7861,3.2294 77.7076,3.1248 79.665,3.0679 81.6417,2.8089 83.6291,2.4401 85.6222,2.2394 87.6185,2.1302 89.6165,2.0708 91.6154,1.8105 93.6148,1.4409 95.6144,1.2399 97.6142,1.1305 99.6142,1.071 101.6141,0.8106 103.3861,0.441 105.262,0.2399 107.1945,0.1305 108.9298,0.071 110.7858,0.0386 112.7075,-0.207 114.6649,-0.5686 116.4137,-0.7653 117.821,-0.8723 119.4987,-0.9305 121.3233,-0.9622 122.9999,-0.9794 124.5959,-0.9888 126.1482,-0.9939 127.6766,-1.2247 129.1921,-1.5782 130.7005,-1.7706 131.9771,-1.8752 133.1275,-1.9321 134.4374,-1.9631 135.8339,-2.2079 137.0497,-2.5691 138.167,-2.7656 139.4589,-2.8725 140.8456,-2.9306 142.056,-2.9623 143.1705,-2.9795 144.4607,-2.9888 145.8466,-2.9939 147.2846,-3.2247 148.7508,-3.5782 150.2324,-3.7706 151.7224,-3.8752 153.217,-3.9321 154.9421,-3.9631 156.7925,-3.9799 158.4831,-3.9891 160.0868,-3.7661 161.8712,-3.4167 163.7539,-3.2267 165.6901,-3.1233 167.6554,-3.0671 169.6366,-3.0365 171.6263,-3.0199 173.6207,-3.0108 175.8457,-3.0059 178.196,-3.0032 180.1586,-3.0017 182.1383,-3.2289 184.3552,-3.5805 186.4732,-3.7718 188.5374,-3.8759 190.3444,-3.9325 192.4673,-3.9633 194.9902,-3.98 197.2747,-3.9891 199.4294,-3.9941 201.5136,-3.9968 203.3314,-3.9982 205.0043,-3.999 207.0543,-3.9995 209.5376,-3.9997 211.8004,-3.9998 213.9434,-3.9999 216.2492,-4 218.4156,-4 220.5061,-4 222.5553,-4 224.8101,-4 227.1767,-4 229.3761,-4 231.2566,-3.772 232.9636,-3.42 235.0322,-3.2285 237.2975,-3.1243 239.4418,-3.0676 241.5204,-3.0368 243.5631,-3.02 245.5863,-3.0109 247.599,-3.0059 249.6058,-3.0032 251.3816,-3.0018 252.8036,-3.001 254.4891,-2.7725 256.3181,-2.4203 258.225,-2.2286 260.4024,-2.1244 262.2709,-2.0677 263.7434,-2.0368 265.4564,-2.02 267.3003,-2.0109 268.9874,-2.0059 270.5891,-2.0032 272.1445,-2.0018 273.6746,-2.001 275.191,-2.0005 276.9279,-2.0003 278.5568,-2.0002 280.1269,-2.0001 281.893,-1.772 283.7658,-1.42 285.6966,-1.2285 287.4309,-1.1243 289.0584,-1.0676 290.8558,-1.0368 292.7455,-1.02 294.6856,-0.7829 296.425,-0.4259 298.2832,-0.2317 300.434,-0.126 302.5161,-0.0686 304.5608,-0.0373 306.5851,0.2077 308.5983,0.569 310.3775,0.7655 312.0293,0.8724 313.84,0.9306 315.5089,0.9623 317.3289,0.9795 319.4589,0.9888 321.3016,0.9939 322.9881,0.9967 324.8175,0.9982 326.7247,0.999 328.9023,0.9995 331.2268,0.9997 333.4034,0.9998 335.2714,0.9999 336.9717,1 338.8086,1 340.7199,1 342.4436,1 344.2933,1 346.2116,1 347.7111,1 349.4388,1 351.7467,1.228 353.9142,1.58 355.7773,1.7715 357.4749,1.8757 359.0823,1.9324 360.6408,1.9632 362.1726,1.98 363.6899,2.2171 364.9713,2.5741 366.1244,2.7683 367.2077,2.874 368.253,2.9314 369.5056,2.9627 371.1211,2.9869 L372,3 " stroke-linecap="round" fill="none" stroke="#9398b0" stroke-width="4.5" stroke-dasharray="none" stroke-dashoffset="0"/></g></g><g transform="matrix(1, 0, 0, 1, 2958.5625, 5478.5977) scale(1.1390052442627472, 1.1390052442627472)" opacity="1"><g transform="scale(0.8779590831886624)"><path d="M0,0 Q0.5198,0.5198 0.9212,1.1811 T1.5408,2.4619 1.8779,3.9362 2.3212,6.0355 3.0328,8.7651 L3.42,10.25 " stroke-linecap="round" fill="none" stroke="#9398b0" stroke-width="6.8340314655764836" stroke-dasharray="none" stroke-dashoffset="0"/></g></g><g transform="matrix(1, 0, 0, 1, 2799.1018, 5480.8758) scale(1.1390052442627472, 1.1390052442627472)" opacity="1"><g transform="scale(0.8779590831886624)"><path d="M0,0 Q0.5198,4.1542 0.6612,6.0639 T0.9713,10.2518 L1.14,12.53 " stroke-linecap="round" fill="none" stroke="#9398b0" stroke-width="6.8340314655764836" stroke-dasharray="none" stroke-dashoffset="0"/></g></g><g transform="matrix(1, 0, 0, 1, 2867.6527, 5556.8232) scale(2.044246803725114, 2.044246803725114)" opacity="1"><g transform="scale(0.4891777246161067)"><path d="M2.04,0 Q8.8514,0 13.6257,0 L18.4,0 " stroke-linecap="round" fill="none" stroke="#9398b0" stroke-width="12.265480822350682" stroke-dasharray="none" stroke-dashoffset="0"/></g></g><g transform="matrix(1, 0, 0, 1, 2873.5971, 5404.1313) scale(1.3769392437714774, 1.3769392437714774)" opacity="1"><g transform="scale(0.7262484561489949)"><path d="M0,0 Q4.3958,0 7.0179,0 L9.64,0 " stroke-linecap="round" fill="none" stroke="#9398b0" stroke-width="8.261635462628863" stroke-dasharray="none" stroke-dashoffset="0"/></g></g><g transform="matrix(1, 0, 0, 1, 2870.8433, 5320.138) scale(1.3769392437714774, 1.3769392437714774)" opacity="1"><g transform="scale(0.7262484561489949)"><path d="M0,0 Q3.7666,0.6293 5.4203,0.8004 T8.2861,1.0647 10.7868,1.2085 13.6127,1.3196 L15.15,1.38 " stroke-linecap="round" fill="none" stroke="#9398b0" stroke-width="8.261635462628863" stroke-dasharray="none" stroke-dashoffset="0"/></g></g><g transform="matrix(1, 0, 0, 1, 2872.2202, 5238.8986) scale(1.3769392437714774, 1.3769392437714774)" opacity="1"><g transform="scale(0.7262484561489949)"><path d="M1.38,0 Q5.1466,1.254 6.4857,1.5951 T9.495,2.1217 13.1576,2.5286 L15.15,2.75 " stroke-linecap="round" fill="none" stroke="#9398b0" stroke-width="8.261635462628863" stroke-dasharray="none" stroke-dashoffset="0"/></g></g><g transform="matrix(1, 0, 0, 1, 2724.8877, 5477.1091) scale(1.3769392437714774, 1.3769392437714774)" opacity="1"><g transform="scale(0.7262484561489949)"><path d="M0,0 Q-1.254,3.7666 -1.9097,6.0473 T-3.3477,11.0491 L-4.13,13.77 " stroke-linecap="round" fill="none" stroke="#9398b0" stroke-width="8.261635462628863" stroke-dasharray="none" stroke-dashoffset="0"/></g></g><g transform="matrix(1, 0, 0, 1, 3038.8299, 5479.863) scale(1.3769392437714774, 1.3769392437714774)" opacity="1"><g transform="scale(0.7262484561489949)"><path d="M0,1.38 L0,12.39 " stroke-linecap="round" fill="none" stroke="#9398b0" stroke-width="8.261635462628863" stroke-dasharray="none" stroke-dashoffset="0"/></g></g><g transform="matrix(1, 0, 0, 1, 2635.3867, 5307.7456) scale(1.3769392437714774, 1.3769392437714774)" opacity="1"><g transform="scale(0.7262484561489949)"><path d="M0,0 Q0,4.3958 0.3146,5.9061 T0.8004,8.5504 1.0647,10.9306 1.5208,13.167 2.0813,15.0106 2.3862,16.9552 2.5521,18.9546 2.957,20.6716 3.4919,22.5473 4.0975,24.5094 4.7416,26.206 5.092,27.7559 5.2826,29.2261 5.6987,30.6552 6.2373,32.0596 6.5304,33.4506 7.0045,34.8365 7.577,36.2175 7.8884,37.5958 8.3725,39.2895 8.9505,41.1525 9.2649,42.7929 9.7506,44.3146 10.3294,46.0841 10.6443,47.9883 11.128,49.6512 11.7035,51.1828 12.3312,52.6453 12.9873,54.0679 13.3442,55.4688 13.853,56.8601 14.4444,58.2463 14.7662,59.6274 15.2536,60.6911 15.8311,61.5843 16.1452,63.0119 16.6308,64.7302 17.2095,66.2942 17.5244,67.772 18.0103,69.2029 18.5893,70.6106 19.2166,72.0034 19.8702,73.3881 20.2258,74.7706 20.7339,76.152 21.3249,77.5305 21.9611,79.222 22.6218,81.0839 23.2936,82.7237 24.286,84.2451 25.1406,85.6997 25.6054,87.118 26.1729,88.5188 26.7963,89.9079 27.4501,91.2905 28.1204,92.672 28.485,94.0527 28.9957,95.4309 29.5859,96.8076 29.907,98.1858 30.3963,99.5626 30.9771,100.9385 31.2931,102.3163 31.7796,104.0075 32.6713,105.8691 33.4687,107.5111 33.9025,109.0314 34.4531,110.8 35.3819,112.3915 36.2019,113.5696 36.6479,114.8374 37.2029,116.1564 37.8172,117.501 38.466,118.8594 39.4482,120.54 40.6118,122.3959 41.5595,124.0348 42.3874,125.5557 43.1501,127.01 43.8796,128.4282 44.5912,129.8289 45.2929,131.2179 45.9892,132.6006 46.6804,133.982 47.3688,135.3605 47.7433,136.7374 48.2616,138.1157 49.1729,139.4925 49.9832,140.8685 50.4241,142.2463 50.9763,143.3105 51.589,144.5164 52.237,145.7994 52.9041,146.812 53.267,147.9921 53.7791,148.9488 54.3723,149.7815 55.0074,150.8615 55.6652,152.0784 56.3377,153.0549 57.0182,154.2132 57.703,155.4703 58.3902,156.4688 59.0787,157.639 60.0802,158.9026 60.9374,160.2192 61.7183,161.5648 62.4578,162.9238 63.1747,163.9754 63.8794,164.8621 64.5751,165.9738 65.5805,167.2055 66.4421,168.5026 67.2255,169.5229 68.2786,170.3925 69.1639,171.4926 69.9601,172.4034 70.7079,173.2135 71.4293,173.9689 72.1364,174.6944 72.8335,175.4038 73.8396,176.1043 74.7016,177.1124 75.7999,177.9731 77.3389,178.756 78.8032,179.4966 80.5414,179.8994 82.7432,180.1186 84.8827,180.2378 86.9882,179.988 89.0752,179.5375 90.8376,179.2924 92.4255,178.8467 93.6041,177.9772 94.5598,177.1896 96.0214,176.4465 97.4435,175.413 98.5317,174.5361 100.0654,173.7467 101.5267,172.6903 102.6363,171.801 103.5545,171.0025 104.3664,170.2535 105.4351,169.5337 106.6457,168.8298 107.619,168.1322 108.463,167.4381 109.5492,166.7458 110.4525,165.7423 111.2585,164.5693 112.0116,163.3019 112.7359,162.2979 113.7569,161.437 114.6247,160.3417 115.4115,158.8042 116.4687,157.3385 117.3585,156.2288 118.1549,154.9982 118.9005,153.6994 119.6208,152.3659 120.3272,151.0134 121.0262,149.3361 122.0334,147.7966 122.8937,146.6445 123.3617,145.3884 123.9309,144.3905 124.5552,143.533 125.2095,142.1249 126.1947,140.4172 127.3576,138.8612 128.3026,137.3878 129.1313,136.2716 129.8968,135.3498 130.3132,134.2213 130.8544,132.6657 131.7758,130.8779 132.904,129.2783 133.8324,127.7788 134.3375,126.3338 134.9269,124.9208 135.8745,123.5251 136.7024,122.1365 137.1527,120.7541 137.7124,119.6898 138.3314,118.7961 138.9829,117.6807 139.6519,116.4469 140.3282,115.1487 141.0085,113.8132 141.6932,112.4597 142.6949,111.0964 143.5545,109.7255 144.3368,108.3504 145.077,106.9754 145.792,105.915 146.4933,105.0235 146.8748,103.9093 147.397,102.6761 147.9957,101.3783 148.6361,100.043 149.6114,98.6896 150.4544,97.3263 151.2276,95.9554 152.2775,94.5804 153.1633,93.2054 153.9575,91.8304 155.0166,90.4531 155.9073,89.0768 156.7065,87.7012 157.7683,86.3235 158.9729,84.6324 160.2575,83.0855 161.271,81.9293 162.1369,80.9857 162.9226,80.16 163.6624,79.0839 164.6919,78.1838 165.8812,77.3795 166.8428,76.3127 167.6783,75.1053 168.7598,73.8215 169.9774,72.4939 170.9544,71.1446 171.7983,69.7836 172.8843,68.414 174.1044,67.0419 175.0828,65.6685 175.9297,64.6067 176.705,63.7144 177.4392,62.6021 178.4656,61.3699 179.6532,60.0704 180.6139,58.7341 181.4489,57.6926 182.5301,56.8136 183.7476,55.7084 185.0369,54.7926 186.3653,53.9797 187.7172,52.9105 189.0796,51.7019 190.4478,50.4151 191.8214,49.0881 193.1979,48.0538 194.2613,47.1766 195.1522,46.3847 195.9492,45.6393 196.6974,44.2921 197.7337,42.9323 198.9245,41.8779 199.8846,40.675 200.7215,39.706 201.4915,38.8665 202.225,38.0975 202.9386,37.3645 203.9538,36.3364 205.1331,35.1502 206.0893,33.8779 207.2365,32.5564 208.4875,31.5229 209.4827,30.6484 210.3388,29.8602 211.7461,29.1168 213.1387,28.0832 214.2109,27.2062 215.4234,26.4145 216.7101,25.6692 217.7224,24.9513 218.5877,24.2485 219.6877,23.5515 220.9131,22.8577 222.2067,22.4803 223.5397,21.9603 224.8919,21.0504 226.5691,20.2431 228.1108,19.4893 229.2641,18.7646 230.8332,18.3703 232.3137,17.8412 233.4338,17.2387 234.9847,16.911 236.7701,16.7327 238.9976,16.6357 242.0562,16.5608 L243.72,16.52 " stroke-linecap="round" fill="none" stroke="#f76707" stroke-width="8.261635462628863" stroke-dasharray="none" stroke-dashoffset="0"/></g></g><g transform="matrix(1, 0, 0, 1, 2872.2202, 5325.6458) scale(1.3769392437714774, 1.3769392437714774)" opacity="1"><g transform="scale(0.7262484561489949)"><path d="M0,0 Q3.1373,-1.254 4.6199,-1.5951 T7.2237,-2.1217 9.5818,-2.4082 11.4916,-2.2517 12.8452,-1.8542 14.5232,-1.638 16.3777,-1.5203 18.0135,-1.1417 19.5304,-0.6211 20.9848,-0.3379 22.4031,-0.1838 23.8016,0.2147 25.5063,0.7461 27.3753,1.0351 29.019,1.5048 30.8549,2.0726 32.4806,2.6961 33.9942,3.35 35.7593,4.0203 37.3465,4.6996 38.8392,5.0691 40.2805,5.5825 41.6916,6.1742 43.0862,6.8107 44.4742,7.4716 45.8562,7.8311 46.9204,8.3413 48.1286,8.9335 49.4152,9.5703 50.7421,10.2314 52.0909,10.9033 53.1393,11.5813 54.3366,12.2647 55.615,13.2657 56.9397,14.125 57.9749,14.9047 58.8528,15.6413 59.9573,16.3566 61.1852,17.375 62.4824,18.2437 63.5028,19.0286 64.3702,19.768 65.4691,20.4848 66.6961,21.8164 67.9907,23.1678 69.3219,24.2176 70.6753,25.418 72.0386,26.7003 73.4073,28.0248 74.7811,29.3724 76.1577,30.7347 77.5336,31.7905 78.5944,32.6772 79.4862,33.4719 80.2859,34.2189 81.0356,34.9399 82.0705,35.6467 82.9458,36.6583 83.7366,37.5209 84.7961,38.3048 85.6871,39.3605 86.4841,40.2495 87.2301,41.0477 87.9505,42.109 88.6571,43.3133 89.3561,44.2831 90.3634,45.1253 91.2237,46.2104 92.0063,47.4278 93.0614,48.7193 93.9499,50.0488 94.748,51.3991 95.4967,52.763 96.2164,54.1319 97.2349,55.1889 98.1036,56.0786 98.8909,57.1919 99.6337,58.4268 100.3502,59.7256 101.367,61.0591 102.2348,62.4138 103.0215,63.7778 103.7641,65.1468 104.4804,66.2062 105.1825,67.0971 105.879,68.2088 106.5726,69.4405 107.2645,70.7399 107.9556,72.0737 108.6462,73.1117 109.6488,73.991 110.5066,75.0986 110.9733,76.3305 111.5418,77.6276 112.4803,78.9602 113.3055,80.3144 114.0668,81.6781 114.7933,83.047 115.1885,84.4209 115.7182,85.483 116.3209,86.6877 116.9635,87.9701 117.6276,88.9824 117.989,90.1601 118.4979,91.4277 119.0871,92.7466 119.7223,94.0933 120.3824,95.453 121.0562,96.8196 121.7374,98.1924 122.4203,99.5661 123.1042,100.9404 123.7908,102.6297 124.7936,104.4903 125.6538,106.1318 126.1218,107.654 126.691,109.4237 127.6276,111.3281 128.4495,112.9911 129.2112,114.5228 129.9403,115.9853 130.6515,117.4079 131.6654,118.8088 132.5293,120.2001 133.314,121.584 134.0554,122.9639 134.7734,124.3438 135.4787,125.7237 136.1747,127.1014 137.1803,128.1633 138.042,129.0555 138.5108,130.1702 139.0804,131.0912 140.0173,131.9046 140.8393,132.9741 141.2865,134.1852 141.8444,135.7857 142.7772,137.598 143.5993,139.2109 144.3611,140.7153 145.0902,142.1629 145.7992,143.5798 146.4972,144.9775 147.1916,146.0502 148.1986,146.9485 149.3735,148.0664 150.6396,148.9891 151.643,149.8035 152.5035,150.5589 153.2862,151.2844 154.0244,151.9938 154.7383,152.6943 155.756,153.7024 157.2512,154.8778 158.6916,156.1465 160.1045,157.1513 161.8147,157.6979 164.0014,157.9953 166.1325,158.157 167.9189,158.245 169.52,158.2929 171.0179,158.0043 172.4598,157.5327 173.8735,156.9614 175.2718,156.0237 176.6595,155.2012 178.0414,154.4391 179.4225,153.3953 180.8007,152.5128 182.1775,151.7204 183.5558,150.6623 184.6202,149.4574 185.5116,148.4873 186.6235,147.3326 187.8577,145.7628 189.156,144.5941 190.1747,143.6438 191.0435,142.4998 192.1454,141.2504 193.3742,139.9415 194.6696,138.6025 196.0013,137.247 197.355,135.8804 198.7185,134.1953 200.0872,132.337 201.461,130.699 202.8354,129.181 203.8954,127.7259 204.7867,126.305 205.9008,124.9051 207.1339,123.5165 208.1171,121.8195 208.9666,119.9547 210.058,117.9986 211.281,115.6782 212.5733,113.1596 213.9033,110.8479 215.2561,108.334 216.6191,105.7102 217.9875,103.3412 219.3612,100.7984 220.7355,98.1589 222.1101,95.4667 223.4872,92.7459 224.8633,90.3241 226.2389,87.7527 227.3019,84.7829 228.1948,81.9111 229.3098,79.0925 230.5434,75.9883 231.8414,72.7309 232.8622,69.3903 233.7322,66.0044 234.8324,62.5915 235.7433,58.8493 236.5535,54.9303 237.3089,50.9151 238.0344,46.8475 239.0561,42.7515 240.2389,38.9546 241.5117,35.3205 242.8333,31.1456 244.4939,26.3619 246.3389,21.5616 247.9696,16.7524 249.4837,11.6236 250.9367,6.6356 252.0417,1.7265 252.9552,-3.142 253.7645,-7.676 254.5194,-12.0258 255.2447,-16.2753 255.9539,-20.4704 256.9667,-24.9504 257.8301,-29.5855 258.6144,-33.9902 259.3556,-38.2697 260.0736,-42.1663 260.7787,-45.8548 261.477,-49.7446 262.4634,-54.0875 L263,-56.45 " stroke-linecap="round" fill="none" stroke="#f76707" stroke-width="8.261635462628863" stroke-dasharray="none" stroke-dashoffset="0"/></g></g></svg>