<svg xmlns="http://www.w3.org/2000/svg" direction="ltr" width="480.372244327476" height="470.2610661555191" viewBox="2169.112570146434 5162.772566900441 480.372244327476 470.2610661555191" stroke-linecap="round" stroke-linejoin="round" style="background-color: transparent;"><defs/><g transform="matrix(1, 0, 0, 1, 2401.2232, 5194.7726)" opacity="1"><g transform="scale(1)"><path d="M0,0 Q0.456,0.456 0.58,0.808 T0.5435,1.5796 0.2957,2.4553 0.1609,3.3877 0.0875,4.3509 0.0476,5.3309 0.0259,6.548 0.0141,7.8941 0.0077,9.0824 0.0042,10.1848 0.0023,11.4685 0.0012,12.8509 0.0007,14.0589 0.0004,15.172 0.0002,16.4616 0.0001,17.8471 0.0001,19.0568 0,20.1709 0,21.461 0,22.8468 0,24.2846 0,25.7508 0,27.0045 0,28.3704 0,30.0255 0,31.6099 0,33.1558 0,34.6807 0,35.9663 0,37.3497 0,38.7862 0,40.2517 0,41.7329 0,42.9947 0,44.3651 0,45.7946 0,47.2563 0,48.9634 0,51.0321 0,53.0695 0,54.8618 0,56.5208 0,58.1073 0,59.6544 0,61.18 0,62.6939 0,64.2015 0,65.7056 0,67.2079 0,68.7091 0,70.2097 0,71.7101 0,73.2103 0,74.7104 0,76.2105 0,77.9385 0,79.5625 0,81.13 0,82.6667 0,83.9587 0,85.3455 0,87.012 0,88.6025 0,90.1518 0,91.6786 0,93.1931 0,94.9291 0,96.5574 0,98.1272 0,99.8932 0,101.5379 0,102.8886 0,104.3074 0,105.7632 0,107.2392 0,108.9541 0,110.571 0,111.9066 0,113.3172 0,114.9966 0,116.5941 0,118.1472 0,119.6761 0,121.1918 0,122.7003 0,124.205 0,125.7075 0,127.2089 0,128.7096 0,129.982 0,131.3582 0,132.7909 0,134.2542 0,135.7343 0,137.2235 0,138.9456 0,140.5664 0,142.1321 0,143.8959 0,145.7674 0,147.6974 0,149.6594 0,151.6387 0,153.6275 0,155.6213 0,157.618 0,159.6162 0,161.6152 0,163.6147 0,165.6144 0,167.6142 0,169.6141 0,171.6141 0,173.6141 0,175.6141 0,177.842 0,180.1941 0,182.3856 0,184.4898 0,186.7744 0,189.1573 0,191.3656 0,193.2509 -0.228,195.1885 -0.58,197.3825 -0.7715,199.7161 -0.8757,202.1256 -0.9324,204.3483 -0.9632,206.4695 -0.98,208.7634 -0.9891,211.1513 -0.9941,213.3623 -0.9968,215.4771 -0.9982,217.5395 -0.999,219.5735 -0.9995,221.82 -0.9997,224.1821 -0.9998,226.379 -0.9999,228.4862 -1,230.7725 -1,233.1562 -1,235.365 -1,237.4786 -1,239.5403 -1,241.5739 -1,243.5922 -1,245.6022 -1,247.6076 -1,249.8385 -1,252.1922 -1,254.6125 -1,257.0692 -1,259.5457 -1,262.0328 -1,264.2979 -1,266.67 -1,269.1005 -1,271.1067 -1,272.882 -1,274.7598 -1,276.4653 -1,278.0771 -1,279.866 -1,281.7511 -1,283.6886 -1,285.6546 -1,287.6361 -1,289.626 -1,291.6206 -1,293.3896 -1,295.0359 -1,296.8435 -1.228,298.5109 -1.58,300.1019 -1.7715,301.8794 -1.8757,303.7584 -1.9324,305.6926 -1.9632,307.6568 -1.98,309.6373 -1.9891,311.6267 -1.9941,313.6209 -1.9968,315.6178 -1.9982,317.6161 -1.999,319.6151 -1.7715,321.8426 -1.4197,324.1944 -1.2283,326.3858 -1.1242,328.7178 -1.0676,331.1265 -1.0368,333.3488 -1.02,335.6978 -1.0109,338.1156 -1.0059,340.3429 -1.0032,342.4665 -1.0018,344.5338 -1.001,346.5704 -1.0005,348.8183 -1.0003,351.1811 -1.0002,353.1505 -1.0001,355.1339 -1,357.1248 -1,358.8919 -1,360.7652 -1,362.6963 -1,364.4308 -1,366.0583 -1,367.8557 -1.228,369.7455 -1.58,371.6856 -1.7715,373.4249 -1.8757,374.8272 -1.9324,376.274 -1.9632,377.745 -1.98,379.0013 -1.9891,380.1407 -1.9941,381.2165 -1.9968,382.4858 -1.9982,383.8603 -1.999,385.064 -1.9995,386.1748 -2.2277,387.2351 -2.5799,388.4959 -2.852,390.1177 L-3,391 " stroke-linecap="round" fill="none" stroke="#9398b0" stroke-width="4.5" stroke-dasharray="none" stroke-dashoffset="0"/></g></g><g transform="matrix(1, 0, 0, 1, 2201.1126, 5485.7539)" opacity="1"><g transform="scale(1)"><path d="M0,0 Q2.28,0.456 3.1282,0.58 T4.6657,0.9995 5.9582,1.4557 7.1172,1.7039 8.2038,1.8389 9.0229,2.1404 9.6964,2.5324 10.5189,2.7456 11.4223,2.8616 12.3697,3.1527 13.3411,3.5391 14.3256,3.7493 15.3171,3.8636 16.3125,3.9258 17.31,3.9596 18.3086,3.978 19.3079,3.9881 20.5355,3.9935 21.8873,3.9965 23.0787,3.9981 24.1828,3.999 25.4674,3.9994 26.8503,3.9997 28.2866,3.9998 29.7519,3.9999 31.233,4 32.9508,4 34.7972,4.228 36.7137,4.58 38.4402,4.7715 40.0635,4.8757 41.8585,4.9324 43.747,4.9632 45.6864,4.98 47.6534,4.9891 49.6354,4.9941 51.3977,4.9968 53.0403,4.9982 54.8459,4.771 56.7402,4.4194 58.6827,4.2282 60.6514,4.1241 62.6343,4.0675 64.6251,4.0367 66.62,4.02 68.3893,4.0109 70.2638,4.0059 72.1955,3.7752 73.9304,3.4217 75.7861,3.2294 77.7076,3.1248 79.665,3.0679 81.6417,2.8089 83.6291,2.4401 85.6222,2.2394 87.6185,2.1302 89.6165,2.0708 91.6154,1.8105 93.6148,1.4409 95.6144,1.2399 97.6142,1.1305 99.6142,1.071 101.6141,0.8106 103.3861,0.441 105.262,0.2399 107.1945,0.1305 108.9298,0.071 110.7858,0.0386 112.7075,-0.207 114.6649,-0.5686 116.4137,-0.7653 117.821,-0.8723 119.4987,-0.9305 121.3233,-0.9622 122.9999,-0.9794 124.5959,-0.9888 126.1482,-0.9939 127.6766,-1.2247 129.1921,-1.5782 130.7005,-1.7706 131.9771,-1.8752 133.1275,-1.9321 134.4374,-1.9631 135.8339,-2.2079 137.0497,-2.5691 138.167,-2.7656 139.4589,-2.8725 140.8456,-2.9306 142.056,-2.9623 143.1705,-2.9795 144.4607,-2.9888 145.8466,-2.9939 147.2846,-3.2247 148.7508,-3.5782 150.2324,-3.7706 151.7224,-3.8752 153.217,-3.9321 154.9421,-3.9631 156.7925,-3.9799 158.4831,-3.9891 160.0868,-3.7661 161.8712,-3.4167 163.7539,-3.2267 165.6901,-3.1233 167.6554,-3.0671 169.6366,-3.0365 171.6263,-3.0199 173.6207,-3.0108 175.8457,-3.0059 178.196,-3.0032 180.1586,-3.0017 182.1383,-3.2289 184.3552,-3.5805 186.4732,-3.7718 188.5374,-3.8759 190.3444,-3.9325 192.4673,-3.9633 194.9902,-3.98 197.2747,-3.9891 199.4294,-3.9941 201.5136,-3.9968 203.3314,-3.9982 205.0043,-3.999 207.0543,-3.9995 209.5376,-3.9997 211.8004,-3.9998 213.9434,-3.9999 216.2492,-4 218.4156,-4 220.5061,-4 222.5553,-4 224.8101,-4 227.1767,-4 229.3761,-4 231.2566,-3.772 232.9636,-3.42 235.0322,-3.2285 237.2975,-3.1243 239.4418,-3.0676 241.5204,-3.0368 243.5631,-3.02 245.5863,-3.0109 247.599,-3.0059 249.6058,-3.0032 251.3816,-3.0018 252.8036,-3.001 254.4891,-2.7725 256.3181,-2.4203 258.225,-2.2286 260.4024,-2.1244 262.2709,-2.0677 263.7434,-2.0368 265.4564,-2.02 267.3003,-2.0109 268.9874,-2.0059 270.5891,-2.0032 272.1445,-2.0018 273.6746,-2.001 275.191,-2.0005 276.9279,-2.0003 278.5568,-2.0002 280.1269,-2.0001 281.893,-1.772 283.7658,-1.42 285.6966,-1.2285 287.4309,-1.1243 289.0584,-1.0676 290.8558,-1.0368 292.7455,-1.02 294.6856,-0.7829 296.425,-0.4259 298.2832,-0.2317 300.434,-0.126 302.5161,-0.0686 304.5608,-0.0373 306.5851,0.2077 308.5983,0.569 310.3775,0.7655 312.0293,0.8724 313.84,0.9306 315.5089,0.9623 317.3289,0.9795 319.4589,0.9888 321.3016,0.9939 322.9881,0.9967 324.8175,0.9982 326.7247,0.999 328.9023,0.9995 331.2268,0.9997 333.4034,0.9998 335.2714,0.9999 336.9717,1 338.8086,1 340.7199,1 342.4436,1 344.2933,1 346.2116,1 347.7111,1 349.4388,1 351.7467,1.228 353.9142,1.58 355.7773,1.7715 357.4749,1.8757 359.0823,1.9324 360.6408,1.9632 362.1726,1.98 363.6899,2.2171 364.9713,2.5741 366.1244,2.7683 367.2077,2.874 368.253,2.9314 369.5056,2.9627 371.1211,2.9869 L372,3 " stroke-linecap="round" fill="none" stroke="#9398b0" stroke-width="4.5" stroke-dasharray="none" stroke-dashoffset="0"/></g></g><g transform="matrix(1, 0, 0, 1, 2478.5625, 5478.5977) scale(1.1390052442627472, 1.1390052442627472)" opacity="1"><g transform="scale(0.8779590831886624)"><path d="M0,0 Q0.5198,0.5198 0.9212,1.1811 T1.5408,2.4619 1.8779,3.9362 2.3212,6.0355 3.0328,8.7651 L3.42,10.25 " stroke-linecap="round" fill="none" stroke="#9398b0" stroke-width="6.8340314655764836" stroke-dasharray="none" stroke-dashoffset="0"/></g></g><g transform="matrix(1, 0, 0, 1, 2319.1018, 5480.8758) scale(1.1390052442627472, 1.1390052442627472)" opacity="1"><g transform="scale(0.8779590831886624)"><path d="M0,0 Q0.5198,4.1542 0.6612,6.0639 T0.9713,10.2518 L1.14,12.53 " stroke-linecap="round" fill="none" stroke="#9398b0" stroke-width="6.8340314655764836" stroke-dasharray="none" stroke-dashoffset="0"/></g></g><g transform="matrix(1, 0, 0, 1, 2390.3995, 5403.9546) scale(1.309214549226295, 1.309214549226295)" opacity="1"><g transform="scale(0.7638167484397181)"><path d="M 0 0 m -0.5, 0 a 0.5,0.5 0 1,0 1,0 a 0.5,0.5 0 1,0 -1,0" stroke-linecap="round" fill="#9398b0" stroke="#9398b0" stroke-width="7.85528729535777" stroke-dasharray="none" stroke-dashoffset="0"/></g></g><g transform="matrix(1, 0, 0, 1, 2390.3995, 5402.6454) scale(1.309214549226295, 1.309214549226295)" opacity="1"><g transform="scale(0.7638167484397181)"><path d="M0,0 Q4.7743,-0.5974 7.6222,-0.9537 L10.47,-1.31 " stroke-linecap="round" fill="none" stroke="#9398b0" stroke-width="7.85528729535777" stroke-dasharray="none" stroke-dashoffset="0"/></g></g><g transform="matrix(1, 0, 0, 1, 2393.0179, 5320.1648) scale(1.309214549226295, 1.309214549226295)" opacity="1"><g transform="scale(0.7638167484397181)"><path d="M0,0 Q2.9868,1.1947 4.3943,1.5197 T6.8661,2.0214 9.1069,1.9957 11.6866,1.5516 L13.09,1.31 " stroke-linecap="round" fill="none" stroke="#9398b0" stroke-width="7.85528729535777" stroke-dasharray="none" stroke-dashoffset="0"/></g></g><g transform="matrix(1, 0, 0, 1, 2393.0179, 5237.6843) scale(1.309214549226295, 1.309214549226295)" opacity="1"><g transform="scale(0.7638167484397181)"><path d="M0,0 Q2.9868,1.1947 4.3943,1.221 T7.4809,1.2786 L9.16,1.31 " stroke-linecap="round" fill="none" stroke="#9398b0" stroke-width="7.85528729535777" stroke-dasharray="none" stroke-dashoffset="0"/></g></g><g transform="matrix(1, 0, 0, 1, 2389.0903, 5558.4419) scale(1.309214549226295, 1.309214549226295)" opacity="1"><g transform="scale(0.7638167484397181)"><path d="M0,0 Q3.5842,1.1947 5.1541,1.5197 T7.8768,1.7227 10.254,1.5345 13.0406,1.1335 16.4664,0.3994 L18.33,0 " stroke-linecap="round" fill="none" stroke="#9398b0" stroke-width="7.85528729535777" stroke-dasharray="none" stroke-dashoffset="0"/></g></g><g transform="matrix(1, 0, 0, 1, 2278.7594, 5601.0336) scale(1.3769392437714774, 1.3769392437714774)" opacity="1"><g transform="scale(0.7262484561489949)"><path d="M0,0 Q2.5126,-1.8833 3.5083,-2.7102 T5.0458,-4.2993 6.1968,-5.7907 7.4523,-7.2313 8.7645,-8.6443 10.1054,-10.04 11.4618,-11.4262 12.829,-12.8096 14.1997,-14.1892 15.5724,-15.5667 16.9484,-16.9453 18.6386,-18.3223 20.4997,-19.6984 22.1392,-21.0762 23.658,-22.4528 25.1136,-23.514 26.5347,-24.4059 27.9347,-25.5204 29.3234,-26.756 30.7081,-28.0551 32.0884,-29.3889 33.4662,-30.7437 34.8451,-31.7954 36.2222,-32.6798 37.5983,-33.788 38.9762,-35.0201 40.355,-36.3174 41.7321,-37.3355 43.1083,-38.2039 44.7985,-39.3057 46.6597,-40.5343 48.3014,-41.8296 49.8215,-43.1613 51.2755,-44.515 52.6957,-45.8785 54.0953,-47.2472 55.4837,-48.3064 56.8682,-49.1972 58.2507,-50.3089 59.3174,-51.5406 60.2101,-52.5253 61.3227,-53.3756 62.5572,-54.4652 63.8558,-55.6849 65.1892,-56.9777 66.5439,-58.3103 67.9078,-59.6622 69.2768,-61.0246 70.6508,-62.3951 72.0253,-63.7676 73.4,-65.1413 74.4625,-66.5178 75.3551,-67.8936 76.47,-68.9545 77.7035,-69.8462 79.0015,-70.9606 80.3369,-72.1938 81.378,-73.4917 82.2567,-74.827 83.3617,-76.1827 84.5921,-77.2348 85.8885,-78.1195 86.9061,-79.2278 87.7743,-80.46 88.8758,-81.7573 90.1021,-83.0901 91.3962,-84.4444 92.7294,-85.4957 94.084,-86.38 95.1355,-87.4881 96.3346,-88.7202 97.6138,-90.0174 98.6244,-91.3501 99.8012,-92.7044 100.7537,-94.0704 101.5865,-95.1281 102.3542,-96.0159 103.0864,-97.1259 104.1118,-98.3589 105.2966,-99.6567 106.5704,-100.9897 107.8926,-102.3442 108.9265,-103.708 109.8014,-104.7623 110.9043,-105.6504 111.8189,-106.7629 112.6311,-107.6827 113.6999,-108.4977 114.5937,-109.5681 115.3946,-110.4627 116.1449,-111.264 116.8677,-112.0146 117.5755,-112.7375 118.273,-113.4455 119.2794,-114.1429 120.4561,-115.464 121.8123,-117.3785 L122.55,-118.42 " stroke-linecap="round" fill="none" stroke="#e599f7" stroke-width="8.261635462628863" stroke-dasharray="none" stroke-dashoffset="0"/></g></g><g transform="matrix(1, 0, 0, 1, 2398.5531, 5481.2399) scale(1.3769392437714774, 1.3769392437714774)" opacity="1"><g transform="scale(0.7262484561489949)"><path d="M0,0 Q1.8833,2.5126 2.7102,3.196 T4.2993,4.5635 5.7907,5.9345 7.2313,7.3096 8.6443,8.3722 10.04,9.265 11.1116,10.3776 12.0092,11.2953 13.1268,12.1091 14.6764,13.1811 16.1463,14.3913 17.573,15.362 18.9761,16.2047 20.054,16.9777 20.9551,17.7129 21.7599,18.4275 22.5123,19.1286 23.234,19.8224 24.2536,20.5144 25.1229,21.5202 25.9105,22.3819 26.9682,23.1631 28.1706,24.215 29.4517,25.4166 30.7779,26.6995 32.1263,28.0244 33.4869,29.3722 34.8563,30.7346 36.2283,32.1028 37.6016,33.1594 38.6634,34.0489 39.5556,35.162 40.6702,36.3946 41.9036,37.3775 43.2016,38.2268 44.5369,39.6327 45.8904,41.0268 47.2536,42.0976 48.3099,43.3071 49.1991,44.2797 50.3099,45.1234 51.5411,46.2094 52.5256,47.4272 53.3758,48.719 54.4653,49.7363 55.6849,50.6021 56.9777,51.7001 57.9956,52.9267 58.864,53.9086 59.9634,54.7551 60.8739,55.8426 61.6838,56.7489 62.7537,57.5565 63.9627,58.6251 65.2474,59.8335 66.2609,61.1178 67.4392,62.4458 69.0219,63.7952 70.5122,65.1563 71.6375,66.526 72.562,67.8981 74.0066,69.2715 75.7364,70.6479 76.992,72.0237 77.9875,73.0845 79.156,73.9762 80.4209,75.0906 81.7361,76.3261 83.0785,77.6252 84.4381,78.9589 85.8047,80.3137 87.1751,81.6777 88.5499,83.0468 89.9248,84.4208 91.2997,85.7953 92.3623,87.17 93.255,88.5471 94.3699,89.6109 95.2911,90.502 96.1045,91.2991 97.1741,92.0473 98.0705,93.0837 98.8729,94.2767 99.9363,95.8674 101.1418,97.3597 102.4269,98.4862 103.753,99.7259 105.1014,101.0274 106.1496,102.3647 107.0344,103.4068 108.145,104.286 109.3762,105.3914 110.673,106.6219 112.3201,107.9207 113.8431,109.2542 114.9862,110.2919 116.2374,111.1711 117.2327,112.2787 118.0864,113.5082 119.1779,114.4894 120.4009,115.6525 121.7928,117.4449 L122.55,118.42 " stroke-linecap="round" fill="none" stroke="#e599f7" stroke-width="8.261635462628863" stroke-dasharray="none" stroke-dashoffset="0"/></g></g><g transform="matrix(1, 0, 0, 1, 2448.1229, 5366.954) scale(1.3769392437714774, 1.3769392437714774)" opacity="1"><g transform="scale(0.7262484561489949)"><path d="M0,0 Q0,-5.0251 0,-6.7043 T-0.3146,-9.6116 -1.1128,-11.8225 -2.4886,-13.3398 -4.1787,-13.8506 -5.7252,-13.4992 -6.881,-12.3664 -7.8245,-10.8085 -8.6524,-9.0194 -9.1027,-6.7898 -9.3477,-4.3207 -9.7956,-1.7234 -10.3539,0.9457 -10.343,3.654 -10.0224,6.3836 -9.8481,9.1248 -9.4385,11.87 -8.9011,14.3051 -8.2941,16.5713 -7.6493,18.7459 -7.2985,20.5581 -7.1077,22.4855 -7.0038,24.4757 -7.262,26.1877 -8.0317,27.746 -9.0797,29.2207 -10.2769,30.6522 -11.8697,31.7456 -13.6779,32.6528 -15.6032,33.4586 -17.9068,33.897 -20.414,33.8231 -22.7195,33.1559 -24.603,32.1637 -26.2569,30.6823 -27.4713,28.6201 -28.4096,26.133 L-28.92,24.78 " stroke-linecap="round" fill="none" stroke="#e599f7" stroke-width="8.261635462628863" stroke-dasharray="none" stroke-dashoffset="0"/></g></g><g transform="matrix(1, 0, 0, 1, 2441.2382, 5384.8542) scale(1.3769392437714774, 1.3769392437714774)" opacity="1"><g transform="scale(0.7262484561489949)"><path d="M-1.38,0 L-11.02,0 " stroke-linecap="round" fill="none" stroke="#e599f7" stroke-width="8.261635462628863" stroke-dasharray="none" stroke-dashoffset="0"/></g></g><g transform="matrix(1, 0, 0, 1, 2467.4001, 5353.1846) scale(1.3769392437714774, 1.3769392437714774)" opacity="1"><g transform="scale(0.7262484561489949)"><path d="M0,0 Q-1.254,3.7666 -1.9097,5.4203 T-3.5492,8.9154 -5.3827,12.3854 -7.0094,15.8417 -8.5236,19.6052 -9.6619,23.5358 -10.2812,27.245 -10.6181,30.8337 -10.8014,34.3546 -10.5864,37.2116 -9.8402,39.7075 -8.178,42.0069 -5.5562,44.2304 L-4.13,45.44 " stroke-linecap="round" fill="none" stroke="#e599f7" stroke-width="8.261635462628863" stroke-dasharray="none" stroke-dashoffset="0"/></g></g><g transform="matrix(1, 0, 0, 1, 2486.6772, 5375.2156) scale(1.3769392437714774, 1.3769392437714774)" opacity="1"><g transform="scale(0.7262484561489949)"><path d="M0,0 Q-1.254,3.1373 -1.9097,4.6199 T-3.5492,7.2237 -5.3827,9.2672 -7.6364,11.0058 -10.7151,12.7961 L-12.39,13.77 " stroke-linecap="round" fill="none" stroke="#e599f7" stroke-width="8.261635462628863" stroke-dasharray="none" stroke-dashoffset="0"/></g></g><g transform="matrix(1, 0, 0, 1, 2474.2848, 5379.3464) scale(1.3769392437714774, 1.3769392437714774)" opacity="1"><g transform="scale(0.7262484561489949)"><path d="M1.38,0 Q5.1466,3.1373 6.7981,4.3053 T9.6626,6.7379 12.1626,9.0029 15.0912,10.8621 18.6915,12.7454 L20.65,13.77 " stroke-linecap="round" fill="none" stroke="#e599f7" stroke-width="8.261635462628863" stroke-dasharray="none" stroke-dashoffset="0"/></g></g><g transform="matrix(1, 0, 0, 1, 2497.6927, 5354.5615) scale(1.3769392437714774, 1.3769392437714774)" opacity="1"><g transform="scale(0.7262484561489949)"><path d="M0,0 Q2.5126,3.7666 3.5083,5.4203 T5.3605,8.6008 6.9973,11.8996 8.517,15.5774 9.6584,19.1468 10.5916,22.6595 11.4117,26.4559 11.8578,30.0898 12.1005,33.3207 12.2325,36.3345 11.992,38.918 11.2341,40.9504 9.8779,42.683 7.9363,44.4686 L6.88,45.44 " stroke-linecap="round" fill="none" stroke="#e599f7" stroke-width="8.261635462628863" stroke-dasharray="none" stroke-dashoffset="0"/></g></g><g transform="matrix(1, 0, 0, 1, 2523.8546, 5365.577) scale(1.3769392437714774, 1.3769392437714774)" opacity="1"><g transform="scale(0.7262484561489949)"><path d="M0,0 Q4.3958,-0.6293 6.2185,-1.1128 T10.2156,-2.1732 L12.39,-2.75 " stroke-linecap="round" fill="none" stroke="#e599f7" stroke-width="8.261635462628863" stroke-dasharray="none" stroke-dashoffset="0"/></g></g><g transform="matrix(1, 0, 0, 1, 2523.8546, 5376.5925) scale(1.3769392437714774, 1.3769392437714774)" opacity="1"><g transform="scale(0.7262484561489949)"><path d="M0,0 Q5.0251,0.6293 8.0226,1.0046 L11.02,1.38 " stroke-linecap="round" fill="none" stroke="#e599f7" stroke-width="8.261635462628863" stroke-dasharray="none" stroke-dashoffset="0"/></g></g><g transform="matrix(1, 0, 0, 1, 2545.8856, 5365.577) scale(1.3769392437714774, 1.3769392437714774)" opacity="1"><g transform="scale(0.7262484561489949)"><path d="M0,0 Q3.7666,-0.6293 5.1057,-1.1128 T7.8003,-1.8594 10.2079,-2.5801 12.4592,-3.6015 15.0893,-4.8376 L16.52,-5.51 " stroke-linecap="round" fill="none" stroke="#e599f7" stroke-width="8.261635462628863" stroke-dasharray="none" stroke-dashoffset="0"/></g></g><g transform="matrix(1, 0, 0, 1, 2569.2936, 5333.9074) scale(1.3769392437714774, 1.3769392437714774)" opacity="1"><g transform="scale(0.7262484561489949)"><path d="M0,0 Q1.254,6.2791 1.9097,8.9287 T2.9222,14.2759 3.4729,19.3827 4.0872,24.6711 4.736,30.3729 5.4013,35.6726 6.0756,40.1265 6.757,43.8057 7.7305,47.5391 L8.26,49.57 " stroke-linecap="round" fill="none" stroke="#e599f7" stroke-width="8.261635462628863" stroke-dasharray="none" stroke-dashoffset="0"/></g></g><g transform="matrix(1, 0, 0, 1, 2600.9632, 5351.8076) scale(1.3769392437714774, 1.3769392437714774)" opacity="1"><g transform="scale(0.7262484561489949)"><path d="M0,0 Q-0.6293,4.3958 -1.4274,6.2185 T-2.9744,9.662 -4.7577,12.7915 -6.6694,15.4356 -8.651,17.501 -11.0726,19.5405 L-12.39,20.65 " stroke-linecap="round" fill="none" stroke="#e599f7" stroke-width="8.261635462628863" stroke-dasharray="none" stroke-dashoffset="0"/></g></g><g transform="matrix(1, 0, 0, 1, 2585.8168, 5355.9384) scale(1.3769392437714774, 1.3769392437714774)" opacity="1"><g transform="scale(0.7262484561489949)"><path d="M0,0 Q3.1373,3.7666 4.6199,5.1057 T7.2237,7.8003 9.5818,10.5225 11.8063,12.945 13.958,14.8898 16.3826,16.5771 19.1464,18.3277 L20.65,19.28 " stroke-linecap="round" fill="none" stroke="#e599f7" stroke-width="8.261635462628863" stroke-dasharray="none" stroke-dashoffset="0"/></g></g><g transform="matrix(1, 0, 0, 1, 2609.2248, 5327.0227) scale(1.3769392437714774, 1.3769392437714774)" opacity="1"><g transform="scale(0.7262484561489949)"><path d="M0,0 Q2.5126,9.4164 3.196,13.2339 T4.5635,20.3845 5.6198,26.787 6.5091,32.4678 7.3075,37.4415 7.7418,42.0305 8.0774,46.9136 L8.26,49.57 " stroke-linecap="round" fill="none" stroke="#e599f7" stroke-width="8.261635462628863" stroke-dasharray="none" stroke-dashoffset="0"/></g></g></svg>