<svg xmlns="http://www.w3.org/2000/svg" direction="ltr" width="884.8271459282419" height="513.9828102116153" viewBox="1163.7930086767512 6198.8116517392655 884.8271459282419 513.9828102116153" stroke-linecap="round" stroke-linejoin="round" style="background-color: transparent;"><defs/><g transform="matrix(1, 0, 0, 1, 1195.793, 6562.6872) scale(1.223977937952355, 1.223977937952355)" opacity="1"><g transform="scale(0.8170081902562253)"><path d="M0,0 Q3.347,-1.1172 4.5379,-1.4211 T6.9351,-1.8903 9.076,-2.1455 10.7969,-2.0039 12.2917,-1.6464 13.6635,-1.452 15.2465,-1.3462 17.2249,-1.2887 19.1378,-1.2573 21.0153,-1.2403 23.1538,-1.2311 25.1539,-1.5065 27.0787,-1.9367 29.243,-2.1708 31.2572,-2.2981 32.9115,-2.3674 34.6482,-2.405 36.7078,-2.4255 38.6673,-2.7149 40.5701,-3.1504 42.7201,-3.3873 44.7287,-3.5162 46.38,-3.5864 48.1151,-3.6245 50.4543,-3.6452 53.1222,-3.6565 55.6885,-3.6627 57.9213,-3.666 59.6945,-3.6678 61.7741,-3.6688 64.0226,-3.6694 65.8044,-3.6697 67.6104,-3.6698 69.4297,-3.6699 70.9779,-3.6699 72.3788,-3.67 74.2558,-3.67 76.3941,-3.67 78.1159,-3.67 79.8893,-3.67 81.9713,-3.67 83.9406,-3.67 85.8487,-3.67 88.0039,-3.3918 90.0131,-2.9624 91.6647,-2.7287 93.3999,-2.6016 95.1806,-2.5325 96.7079,-2.4949 98.0974,-2.4744 99.9705,-2.4633 102.1043,-2.4572 103.8238,-2.4539 105.3177,-2.4521 107.2454,-2.4512 109.4112,-2.4506 111.148,-2.4503 113.2078,-2.4502 115.4455,-2.4501 117.78,-2.4501 120.1649,-2.45 122.0208,-2.45 123.5891,-2.45 125.279,-2.45 127.3155,-2.45 129.5383,-2.45 131.8624,-2.45 133.9657,-2.45 135.9467,-2.45 137.8611,-2.45 139.7416,-2.45 141.6014,-2.45 143.728,-2.45 146.0021,-2.45 148.0759,-2.45 150.0409,-2.45 151.9488,-2.45 154.1017,-2.45 156.1096,-2.45 158.3191,-2.45 160.636,-2.45 162.7331,-2.45 164.9912,-2.45 167.6149,-2.45 170.1572,-2.45 172.3769,-2.45 174.4235,-2.45 176.0954,-2.45 177.8417,-2.45 179.9089,-2.45 181.8702,-2.45 184.0521,-2.45 186.6344,-2.45 189.1563,-2.45 191.6455,-2.45 194.3949,-2.45 197.286,-2.45 199.9737,-2.45 202.5507,-2.45 205.0698,-2.45 207.5574,-2.45 210.0278,-2.45 212.4866,-2.45 214.661,-2.45 216.6829,-2.45 218.8977,-2.45 221.498,-2.45 224.3079,-2.45 226.9514,-2.45 229.5066,-2.45 232.0139,-2.45 234.495,-2.45 236.9597,-2.45 239.1372,-2.45 241.1609,-2.45 243.3766,-2.45 245.6969,-2.45 248.0764,-2.45 250.488,-2.45 252.6367,-2.45 254.9205,-2.45 257.2801,-2.45 259.1223,-2.45 261.2394,-2.45 263.5082,-2.45 265.3011,-2.45 266.8351,-2.45 268.5063,-2.45 270.2522,-2.45 271.7605,-2.45 273.1397,-2.45 274.4486,-2.45 276.2755,-2.45 278.6647,-2.45 280.8012,-2.45 282.8002,-2.45 284.7244,-2.45 286.8884,-2.45 289.461,-2.45 291.6972,-2.45 293.4723,-2.45 295.5529,-2.45 297.8019,-2.45 299.584,-2.45 301.1121,-2.45 302.7801,-2.45 304.8024,-2.45 307.0197,-2.45 309.3432,-2.45 311.4439,-2.1696 313.1453,-1.7366 314.9076,-1.501 316.9812,-1.3729 318.9483,-1.3032 321.1356,-1.2652 323.4404,-1.2446 325.8091,-1.2334 328.4931,-1.2273 330.7922,-1.224 332.8797,-1.2222 335.1302,-1.2212 337.7498,-1.2206 340.5703,-1.2203 342.9436,-1.2202 345.0715,-1.2201 347.6244,-1.2201 350.1304,-1.22 352.3304,-1.22 354.6444,-1.22 357.8572,-1.22 362.3957,-1.5004 367.3749,-1.9334 372.0353,-2.169 376.2463,-2.2971 380.2129,-2.3668 383.7638,-2.4048 387.0909,-2.4254 390.2962,-2.4366 393.1548,-2.4427 396.6638,-2.446 400.5267,-2.726 403.7453,-3.1565 407.1697,-3.3906 410.7061,-3.518 414.0253,-3.5873 417.5067,-3.625 420.796,-3.6455 423.7002,-3.6567 426.3974,-3.6628 428.9818,-3.9465 432.0613,-4.3813 435.1318,-4.6178 437.9194,-4.7465 440.8313,-5.0947 443.8106,-5.5622 446.8268,-5.8166 449.8629,-5.9549 452.6295,-6.0302 455.2517,-6.0711 458.0736,-6.3716 461.004,-6.8132 463.9936,-7.0534 466.4566,-7.1841 469.1919,-7.2552 472.6338,-7.2939 475.9016,-7.3149 478.7942,-7.3263 481.485,-7.3326 483.7855,-7.336 486.1542,-7.3378 488.56,-7.3388 490.9836,-7.3393 493.9756,-7.3396 496.9986,-7.3398 500.0385,-7.3399 503.3657,-7.3399 506.5711,-7.34 509.7101,-7.34 513.0936,-7.34 516.3296,-7.34 519.2048,-7.34 522.4448,-7.34 525.8831,-7.0618 528.8685,-6.6324 531.3293,-6.3987 534.0633,-6.2716 537.5046,-6.2025 540.772,-6.1649 544.223,-6.1444 547.7762,-6.1333 550.8263,-6.1272 553.6005,-6.1239 556.2245,-6.1221 558.7692,-6.1212 561.2707,-5.8425 563.7488,-5.4127 566.2117,-5.1789 568.6665,-5.0517 571.1191,-4.9825 573.5705,-4.9449 576.0213,-4.9244 578.4694,-4.6328 580.9161,-4.1938 583.3643,-3.9549 585.8134,-3.825 588.2628,-3.7543 590.7103,-3.7159 593.1566,-3.4168 595.6046,-2.9759 598.0535,-2.7361 600.5029,-2.6056 602.9503,-2.5347 605.1184,-2.4961 607.1347,-2.4751 609.3464,-2.1832 611.6668,-1.744 614.0463,-1.505 616.458,-1.3751 618.8848,-1.3044 621.3199,-1.2659 623.7618,-1.245 626.2074,-0.9554 628.655,-0.5197 631.1015,-0.2827 633.8277,-0.1538 636.7061,-0.0837 639.3869,-0.0455 641.9624,-0.0248 644.4807,-0.0135 646.9679,-0.0073 649.4358,-0.004 651.8933,0.276 654.3473,0.7065 656.7996,0.9406 659.2508,1.068 661.6991,1.1373 664.146,1.175 666.5942,1.1955 669.0433,1.2067 671.4928,1.2128 673.9402,1.2161 676.1084,1.2179 678.1269,1.2188 680.3399,1.2194 682.3806,1.2197 684.3297,1.5003 686.505,1.9333 689.0837,2.1689 691.8818,2.2971 694.519,2.3668 697.0708,2.4048 699.2957,2.4254 701.3428,2.4366 703.5737,2.4427 705.624,2.446 707.5761,2.4478 709.4771,2.4488 711.348,2.4494 713.2026,2.1692 715.0505,1.7364 717.4511,1.5009 720.4306,1.3728 723.7249,1.3031 726.9124,1.2652 729.4831,1.2446 731.7184,1.2334 733.7711,0.9491 735.4464,0.5163 737.475,0.2809 739.6934,0.1528 741.737,0.0831 743.6878,0.0452 745.5858,0.0246 747.455,0.0134 749.3109,0.0073 751.4355,0.004 753.428,-0.276 755.3509,-0.7065 757.5119,-0.9406 759.5243,-1.068 761.4581,-1.1373 763.3468,-1.175 764.9306,-1.1955 766.3508,-1.4871 767.9624,-1.9262 769.6758,-2.1651 771.4447,-2.295 773.2438,-2.3657 775.0592,-2.4041 777.164,-2.1446 779.5837,-1.5458 L780.9,-1.22 " stroke-linecap="round" fill="none" stroke="#9398b0" stroke-width="5.507900720785598" stroke-dasharray="none" stroke-dashoffset="0"/></g></g><g transform="matrix(1, 0, 0, 1, 1439.885, 6557.5567) scale(0.897605362710306, 0.897605362710306)" opacity="1"><g transform="scale(1.114075340392926)"><path d="M0,0 Q0.8208,1.2266 0.8389,2.1759 T0.8667,4.0496 0.8819,5.8875 0.8902,7.7058 0.8965,9.6904 L0.9,10.77 " stroke-linecap="round" fill="none" stroke="#9398b0" stroke-width="4.039224132196377" stroke-dasharray="none" stroke-dashoffset="0"/></g></g><g transform="matrix(1, 0, 0, 1, 1600.3353, 6549.3389) scale(1.217207148981476, 1.217207148981476)" opacity="1"><g transform="scale(0.8215528481218429)"><path d="M0,0 Q0,3.8851 0,5.7741 T0,9.2469 -0.2782,11.9684 -0.7076,14.281 -1.0395,16.8581 L-1.22,18.26 " stroke-linecap="round" fill="none" stroke="#9398b0" stroke-width="5.477432170416642" stroke-dasharray="none" stroke-dashoffset="0"/></g></g><g transform="matrix(1, 0, 0, 1, 1758.5722, 6550.5561) scale(1.217207148981476, 1.217207148981476)" opacity="1"><g transform="scale(0.8215528481218429)"><path d="M0,0 Q0.5563,2.777 0.7076,4.0864 T0.6631,6.9403 0.2336,10.3274 L0,12.17 " stroke-linecap="round" fill="none" stroke="#9398b0" stroke-width="5.477432170416642" stroke-dasharray="none" stroke-dashoffset="0"/></g></g><g transform="matrix(1, 0, 0, 1, 1976.4523, 6561.511) scale(1.217207148981476, 1.217207148981476)" opacity="1"><g transform="scale(0.8215528481218429)"><path d="M0,0 Q-2.2207,-2.777 -3.1029,-3.8083 T-4.7409,-5.6787 -6.186,-7.2525 -7.5285,-8.6627 -8.5369,-9.9838 -9.0855,-10.7026 -9.1058,-10.8154 -8.5605,-10.6009 -7.7098,-9.9302 -6.693,-9.2871 -5.5836,-8.6592 -4.4237,-7.7635 -3.2387,-6.7222 -2.04,-5.5995 -0.8316,-4.4323 0.1039,-3.2434 0.8887,-1.7644 1.5916,-0.1276 2.252,1.3168 2.8895,2.6589 2.9581,4.2212 2.7173,5.9033 2.3104,7.0965 1.535,8.0238 0.5569,9.3604 -0.8074,11.1979 -2.6485,13.4078 L-3.65,14.61 " stroke-linecap="round" fill="none" stroke="#9398b0" stroke-width="5.477432170416642" stroke-dasharray="none" stroke-dashoffset="0"/></g></g><g transform="matrix(1, 0, 0, 1, 2016.6202, 6551.7733) scale(1.217207148981476, 1.217207148981476)" opacity="1"><g transform="scale(0.8215528481218429)"><path d="M0,0 Q-1.1081,2.777 -1.9658,3.8083 T-3.5683,5.9568 -4.9941,7.9578 -6.3237,9.8786 -7.8793,11.7579 -9.5577,13.6125 -11.0271,15.4536 -12.6586,16.7333 -14.7061,17.7221 L-15.82,18.26 " stroke-linecap="round" fill="none" stroke="#9398b0" stroke-width="5.477432170416642" stroke-dasharray="none" stroke-dashoffset="0"/></g></g><g transform="matrix(1, 0, 0, 1, 2002.0137, 6554.2077) scale(1.217207148981476, 1.217207148981476)" opacity="1"><g transform="scale(0.8215528481218429)"><path d="M0,0 Q1.6644,3.3288 2.3953,4.5124 T3.8019,6.618 5.1212,8.3175 6.3929,10.0743 7.641,11.8644 8.874,13.9486 10.2186,16.741 L10.95,18.26 " stroke-linecap="round" fill="none" stroke="#9398b0" stroke-width="5.477432170416642" stroke-dasharray="none" stroke-dashoffset="0"/></g></g><g transform="matrix(1, 0, 0, 1, 1280.2098, 6682.0145) scale(1.217207148981476, 1.217207148981476)" opacity="1"><g transform="scale(0.8215528481218429)"><path d="M0,-1.22 Q0,-3.9925 0,-5.3029 T0,-7.6021 0,-9.6851 0,-11.9286 0,-14.8134 0,-18.6035 0,-22.332 0,-25.7488 0,-29.2719 0,-32.5748 0,-35.2037 0,-37.7442 0,-40.5148 0,-42.8542 0,-45.2371 0,-48.2002 0,-51.4765 0,-54.9231 0,-58.1844 0,-61.0689 0,-63.7484 0,-66.3164 0,-68.8238 0.2782,-71.574 0.7076,-74.7368 0.9413,-77.8459 1.0684,-80.6453 1.1375,-83.0004 1.1751,-85.1161 1.1956,-87.3773 1.4826,-89.4397 1.9146,-91.6719 2.1496,-93.9967 2.2775,-96.0935 2.347,-98.3445 2.3849,-100.4013 2.4054,-102.6283 2.4166,-105.2283 2.4227,-107.753 2.426,-110.2368 2.4278,-112.4202 2.4288,-114.4402 2.4294,-116.6494 2.4297,-118.6835 2.1539,-120.9003 1.7281,-123.4948 1.4964,-126.0166 1.3704,-128.4988 1.3018,-130.6813 1.2645,-132.7008 1.2442,-134.9097 1.2332,-136.9436 1.2272,-138.8823 1.2239,-141.0472 1.2221,-143.3353 1.2212,-145.6904 1.2206,-147.8038 1.2203,-149.5075 0.942,-150.9906 0.5125,-152.6297 0.2788,-154.6317 0.1517,-156.8311 0.0825,-158.8598 0.0449,-160.7956 0.0244,-162.9591 0.0133,-164.9682 0.0072,-166.8933 0.0039,-169.051 0.0021,-171.0569 0.0012,-172.9826 0.2788,-175.1406 0.708,-177.1467 0.9415,-179.0703 1.0685,-181.227 1.1376,-183.7888 1.1752,-186.2905 0.9174,-188.4836 0.4991,-191.0652 0.2715,-193.8558 0.1477,-196.4843 0.0803,-199.0245 0.0437,-201.2386 0.0238,-203.2776 0.0129,-205.219 0.2852,-207.1073 0.7115,-209.2449 0.9434,-211.5181 1.0695,-214.1432 1.1381,-216.6794 1.1755,-219.1694 1.1958,-221.9125 1.2068,-224.5129 1.2128,-227.0378 1.2161,-229.2458 1.2179,-231.0011 1.2188,-233.0663 1.2194,-235.3001 1.2197,-237.6234 1.2198,-240.2758 1.2199,-242.829 1.2199,-245.3283 1.22,-247.5202 1.22,-249.5447 1.22,-251.7565 1.22,-253.7918 1.22,-255.7336 1.22,-257.9002 1.22,-259.9111 1.22,-261.8372 1.22,-263.9953 1.22,-266.0016 1.22,-268.2011 1.22,-270.7861 1.22,-273.3027 1.22,-276.058 1.22,-278.9454 1.22,-281.6265 1.22,-284.1954 1.22,-286.7032 1.22,-288.8997 1.22,-290.9267 1.22,-292.8617 1.22,-294.7487 1.22,-297.1638 1.22,-299.5857 1.22,-301.7354 1.22,-304.0152 1.22,-306.0876 1.22,-308.0495 1.22,-310.2271 1.22,-312.798 1.22,-315.5851 1.22,-317.9334 1.22,-320.0432 1.22,-322.3012 1.22,-324.3618 1.22,-326.3149 0.9418,-328.4878 0.5124,-331.0584 0.2787,-333.843 0.1516,-336.19 0.0825,-338.3013 0.0449,-340.5602 0.0244,-342.6212 0.0133,-344.5746 -0.2709,-346.4695 -0.7037,-348.3325 -0.9391,-350.4563 -1.0672,-352.722 -1.1369,-355.0649 -1.1748,-357.4498 -1.1954,-359.5794 -1.2066,-361.5701 -1.4886,-363.4853 -1.9179,-365.0834 -2.7077,-366.231 -3.9719,-366.5771 -5.2136,-365.9309 -6.4432,-364.469 -7.6684,-362.5657 -8.8889,-360.698 -9.8288,-359.1257 -10.6182,-357.7141 -11.0477,-356.668 -10.7273,-356.3771 -9.9989,-356.7751 -9.0464,-357.548 -7.9741,-358.8006 -6.8368,-360.3143 -5.3836,-362.5262 -3.7609,-364.8399 -2.6022,-366.6525 -1.6938,-368.4708 -0.6433,-369.1818 0.4823,-368.4582 1.3704,-366.9542 2.1318,-365.0257 3.3804,-362.5903 4.616,-360.1551 5.8422,-357.9982 7.3414,-355.9926 8.9892,-354.0694 11.0493,-351.7965 L12.17,-350.56 " stroke-linecap="round" fill="none" stroke="#9398b0" stroke-width="5.477432170416642" stroke-dasharray="none" stroke-dashoffset="0"/></g></g><g transform="matrix(1, 0, 0, 1, 1313.0744, 6311.9835) scale(1.217207148981476, 1.217207148981476)" opacity="1"><g transform="scale(0.8215528481218429)"><path d="M0,0 Q-1.1081,2.777 -1.4095,4.0864 T-1.8748,6.6622 -1.8521,8.8956 -1.2857,10.3887 -0.4213,11.4791 0.603,12.3505 1.9924,12.8245 3.5828,13.0824 5.0019,13.2227 6.328,12.7426 7.3276,11.6493 8.1495,10.2223 8.8748,8.3357 8.9911,7.0335 8.7763,7.1573 8.9376,8.0569 9.5794,9.3784 10.2044,10.9295 11.1007,12.6055 12.4228,14.6277 13.696,16.5622 14.9427,18.7249 15.8991,21.0095 16.6975,23.6386 17.1318,27.0113 16.8118,30.2347 16.0837,32.8226 15.1335,34.5086 13.5063,35.7017 11.2325,36.6266 9.1634,37.1297 7.2056,37.4035 5.3061,37.5524 3.4406,37.3575 1.5935,36.4193 -0.2287,34.9042 L-1.22,34.08 " stroke-linecap="round" fill="none" stroke="#9398b0" stroke-width="5.477432170416642" stroke-dasharray="none" stroke-dashoffset="0"/></g></g><g transform="matrix(1, 0, 0, 1, 1359.5102, 6555.0019) scale(0.9853948631165608, 0.9853948631165608)" opacity="1"><g transform="scale(1.0148216085044799)"><path d="M0.99,0 Q0.5386,3.5933 0.19,4.7964 T-0.3481,7.5523 -0.7638,10.9575 L-0.99,12.81 " stroke-linecap="round" fill="none" stroke="#9398b0" stroke-width="5.912369178699365" stroke-dasharray="none" stroke-dashoffset="0"/></g></g><g transform="matrix(1, 0, 0, 1, 1519.1442, 6556.9727) scale(0.9853948631165608, 0.9853948631165608)" opacity="1"><g transform="scale(1.0148216085044799)"><path d="M0,0 Q0.4514,0.8983 0.5742,1.5918 T0.7638,2.8883 0.6412,4.2685 0.3488,5.9176 0.1898,7.9365 0.0669,10.4517 L0,11.82 " stroke-linecap="round" fill="none" stroke="#9398b0" stroke-width="5.912369178699365" stroke-dasharray="none" stroke-dashoffset="0"/></g></g><g transform="matrix(1, 0, 0, 1, 1677.7928, 6549.0895) scale(0.9853948631165608, 0.9853948631165608)" opacity="1"><g transform="scale(1.0148216085044799)"><path d="M0,0 Q0,4.4916 0,6.1625 T0,9.1937 0,11.9668 0,14.8228 0,17.9881 L0,19.71 " stroke-linecap="round" fill="none" stroke="#9398b0" stroke-width="5.912369178699365" stroke-dasharray="none" stroke-dashoffset="0"/></g></g><g transform="matrix(1, 0, 0, 1, 1838.4121, 6554.0165) scale(0.9853948631165608, 0.9853948631165608)" opacity="1"><g transform="scale(1.0148216085044799)"><path d="M0,0 Q0,4.0447 0,6.2689 T0.4492,10.3757 1.4342,14.5041 L1.97,16.75 " stroke-linecap="round" fill="none" stroke="#9398b0" stroke-width="5.912369178699365" stroke-dasharray="none" stroke-dashoffset="0"/></g></g><g transform="matrix(1, 0, 0, 1, 1358.5248, 6596.3885) scale(0.9853948631165608, 0.9853948631165608)" opacity="1"><g transform="scale(1.0148216085044799)"><path d="M0,0 Q0.4514,3.1464 0.5742,4.6748 T0.8435,8.0266 L0.99,9.85 " stroke-linecap="round" fill="none" stroke="#9398b0" stroke-width="5.912369178699365" stroke-dasharray="none" stroke-dashoffset="0"/></g></g><g transform="matrix(1, 0, 0, 1, 1356.554, 6594.4177) scale(0.9853948631165608, 0.9853948631165608)" opacity="1"><g transform="scale(1.0148216085044799)"><path d="M-0.99,0 Q-3.685,2.2481 -5.2925,3.589 L-6.9,4.93 " stroke-linecap="round" fill="none" stroke="#9398b0" stroke-width="5.912369178699365" stroke-dasharray="none" stroke-dashoffset="0"/></g></g><g transform="matrix(1, 0, 0, 1, 1433.4148, 6600.3301) scale(0.9853948631165608, 0.9853948631165608)" opacity="1"><g transform="scale(1.0148216085044799)"><path d="M0,0 Q2.2481,0.4514 2.8596,1.0234 T3.8037,2.1299 4.0916,3.181 4.0224,4.202 3.7614,5.2066 3.1702,6.2022 2.3995,7.193 1.531,8.1812 0.8329,8.9421 0.9023,9.3561 1.6149,9.5813 2.4517,9.7038 3.8052,9.9962 6.1148,10.381 9.1752,10.6783 L10.84,10.84 " stroke-linecap="round" fill="none" stroke="#9398b0" stroke-width="5.912369178699365" stroke-dasharray="none" stroke-dashoffset="0"/></g></g><g transform="matrix(1, 0, 0, 1, 1514.2172, 6595.4031) scale(0.9853948631165608, 0.9853948631165608)" opacity="1"><g transform="scale(1.0148216085044799)"><path d="M0,0 Q2.695,0.8983 3.428,1.3684 T4.3363,2.0942 4.6071,2.7124 4.5286,3.4979 4.0368,4.3744 3.5458,5.3003 3.5021,6.2532 3.9275,6.995 4.6081,7.6243 5.4275,8.4158 6.0989,9.5189 6.4642,10.7939 6.4372,11.939 5.9734,12.7876 5.0484,13.4727 3.8704,14.0688 2.5547,14.3931 0.7148,14.3461 -1.6652,13.9924 L-2.96,13.8 " stroke-linecap="round" fill="none" stroke="#9398b0" stroke-width="5.912369178699365" stroke-dasharray="none" stroke-dashoffset="0"/></g></g><g transform="matrix(1, 0, 0, 1, 1590.0926, 6590.4761) scale(0.9853948631165608, 0.9853948631165608)" opacity="1"><g transform="scale(1.0148216085044799)"><path d="M0,0 Q-0.4514,2.2481 -0.5742,3.5322 T-0.5381,5.7405 0.1564,7.1675 1.2091,7.9439 2.4567,8.3662 4.2571,8.5959 6.6035,8.7734 L7.88,8.87 " stroke-linecap="round" fill="none" stroke="#9398b0" stroke-width="5.912369178699365" stroke-dasharray="none" stroke-dashoffset="0"/></g></g><g transform="matrix(1, 0, 0, 1, 1598.9612, 6591.4615) scale(0.9853948631165608, 0.9853948631165608)" opacity="1"><g transform="scale(1.0148216085044799)"><path d="M0,0 Q0,3.1464 0,4.2257 T0,6.5669 -0.2257,8.9646 -0.5742,11.393 -0.8435,14.2278 L-0.99,15.77 " stroke-linecap="round" fill="none" stroke="#9398b0" stroke-width="5.912369178699365" stroke-dasharray="none" stroke-dashoffset="0"/></g></g><g transform="matrix(1, 0, 0, 1, 1674.8366, 6593.4323) scale(0.9853948631165608, 0.9853948631165608)" opacity="1"><g transform="scale(1.0148216085044799)"><path d="M0,0 Q-0.8983,2.695 -0.9192,3.6537 T-0.7258,5.134 -0.1691,6.1627 0.5829,7.1715 1.2154,8.1695 1.5595,9.385 1.5232,10.7211 1.0544,11.8993 0.3479,12.9895 -0.9348,14.0317 -2.7543,15.0478 -4.419,15.6006 -5.7738,15.2287 -7.1379,14.3034 L-7.88,13.8 " stroke-linecap="round" fill="none" stroke="#9398b0" stroke-width="5.912369178699365" stroke-dasharray="none" stroke-dashoffset="0"/></g></g><g transform="matrix(1, 0, 0, 1, 1672.8658, 6592.4469) scale(0.9853948631165608, 0.9853948631165608)" opacity="1"><g transform="scale(1.0148216085044799)"><path d="M0,0 Q2.695,0 3.6537,0 T5.3575,0 7.1826,0 9.5514,0 L10.84,0 " stroke-linecap="round" fill="none" stroke="#9398b0" stroke-width="5.912369178699365" stroke-dasharray="none" stroke-dashoffset="0"/></g></g><g transform="matrix(1, 0, 0, 1, 1754.6536, 6588.5053) scale(0.9853948631165608, 0.9853948631165608)" opacity="1"><g transform="scale(1.0148216085044799)"><path d="M0,0 Q-1.3498,3.1464 -1.7169,4.2257 T-2.5072,6.3412 -3.1606,8.3904 -3.516,10.4057 -3.7093,12.4027 -3.8145,14.3873 -3.6483,16.1396 -3.1087,17.542 -2.1403,18.754 -0.7152,19.8626 0.735,20.6913 1.973,21.1422 3.0957,21.1617 4.1556,20.4974 4.9556,19.4635 5.3908,18.2284 5.4041,16.8817 5.1879,15.6999 4.6211,14.6078 3.6379,13.788 2.4282,13.342 1.0952,13.0994 -0.0791,13.4166 -1.3038,14.2996 L-1.97,14.78 " stroke-linecap="round" fill="none" stroke="#9398b0" stroke-width="5.912369178699365" stroke-dasharray="none" stroke-dashoffset="0"/></g></g><g transform="matrix(1, 0, 0, 1, 1827.5728, 6594.4177) scale(0.9853948631165608, 0.9853948631165608)" opacity="1"><g transform="scale(1.0148216085044799)"><path d="M0,0 Q1.7966,1.7966 2.7345,2.2853 T4.4082,3.0399 5.7679,3.4503 7.4059,3.6736 9.1953,3.7951 10.8436,3.8612 11.966,4.3463 12.1251,5.2851 11.986,6.2449 11.6869,7.4397 11.075,8.9879 10.5164,10.7308 9.9891,12.5795 9.4788,14.4835 8.9755,16.4176 8.266,18.55 L7.88,19.71 " stroke-linecap="round" fill="none" stroke="#9398b0" stroke-width="5.912369178699365" stroke-dasharray="none" stroke-dashoffset="0"/></g></g><g transform="matrix(1, 0, 0, 1, 1841.3683, 6608.2132) scale(0.9853948631165608, 0.9853948631165608)" opacity="1"><g transform="scale(1.0148216085044799)"><path d="M0,0 Q-3.1464,0.4514 -5.0232,0.7207 L-6.9,0.99 " stroke-linecap="round" fill="none" stroke="#9398b0" stroke-width="5.912369178699365" stroke-dasharray="none" stroke-dashoffset="0"/></g></g><g transform="matrix(1, 0, 0, 1, 1275.7516, 6480.1119) scale(0.9853948631165608, 0.9853948631165608)" opacity="1"><g transform="scale(1.0148216085044799)"><path d="M-0.99,0 Q2.1564,-1.3498 3.4614,-1.7169 T6.1512,-2.2838 9.188,-2.7217 L10.84,-2.96 " stroke-linecap="round" fill="none" stroke="#9398b0" stroke-width="5.912369178699365" stroke-dasharray="none" stroke-dashoffset="0"/></g></g><g transform="matrix(1, 0, 0, 1, 1271.8101, 6401.2803) scale(0.9853948631165608, 0.9853948631165608)" opacity="1"><g transform="scale(1.0148216085044799)"><path d="M0,0 Q3.1464,0 4.2257,0 T6.3412,0 8.1669,0 10.0607,0 12.6642,0 15.9516,0 L17.74,0 " stroke-linecap="round" fill="none" stroke="#9398b0" stroke-width="5.912369178699365" stroke-dasharray="none" stroke-dashoffset="0"/></g></g><g transform="matrix(1, 0, 0, 1, 1250.1314, 6471.2433) scale(0.9853948631165608, 0.9853948631165608)" opacity="1"><g transform="scale(1.0148216085044799)"><path d="M0,0 Q0.4514,2.695 0.5742,3.6537 T0.5381,5.8066 0.2927,7.8761 0.1592,9.6768 -0.1391,11.5547 -0.6902,13.6436 L-0.99,14.78 " stroke-linecap="round" fill="none" stroke="#9398b0" stroke-width="5.912369178699365" stroke-dasharray="none" stroke-dashoffset="0"/></g></g><g transform="matrix(1, 0, 0, 1, 1248.1606, 6466.3164) scale(0.9853948631165608, 0.9853948631165608)" opacity="1"><g transform="scale(1.0148216085044799)"><path d="M0,0 Q-2.695,1.7966 -3.8771,2.511 T-6.4697,4.0777 L-7.88,4.93 " stroke-linecap="round" fill="none" stroke="#9398b0" stroke-width="5.912369178699365" stroke-dasharray="none" stroke-dashoffset="0"/></g></g><g transform="matrix(1, 0, 0, 1, 1238.3066, 6390.441) scale(0.9853948631165608, 0.9853948631165608)" opacity="1"><g transform="scale(1.0148216085044799)"><path d="M0,0 Q1.3498,1.7966 1.4912,2.511 T1.7095,3.8375 1.6049,5.2317 1.0988,6.6651 0.372,7.894 -0.4725,9.2351 -1.3811,10.6395 -2.1011,11.855 -2.7162,12.9653 -2.8251,13.7928 -2.2117,14.243 -1.2032,14.7136 0.2461,15.1953 1.7071,15.4574 2.951,15.5999 4.3026,15.9009 5.9848,16.4508 L6.9,16.75 " stroke-linecap="round" fill="none" stroke="#9398b0" stroke-width="5.912369178699365" stroke-dasharray="none" stroke-dashoffset="0"/></g></g><g transform="matrix(1, 0, 0, 1, 1281.664, 6476.1703) scale(0.9853948631165608, 0.9853948631165608)" opacity="1"><g transform="scale(1.0148216085044799)"><path d="M0,-0.99 Q1.7966,-1.4369 2.2853,-1.335 T2.8164,-0.952 2.6562,-0.2921 2.1198,0.2925 1.3789,0.3848 0.7501,-0.0164 0.4081,-0.6838 0.4477,-1.496 0.9184,-2.387 1.3979,-3.3209 2.108,-4.0547 2.9434,-4.2281 3.3978,-3.6476 3.6451,-2.6592 3.5561,-1.4466 2.8351,-0.1121 1.6401,1.2364 L0.99,1.97 " stroke-linecap="round" fill="none" stroke="#ffc034" stroke-width="5.912369178699365" stroke-dasharray="none" stroke-dashoffset="0"/></g></g><g transform="matrix(1, 0, 0, 1, 1359.5102, 6679.1617) scale(0.9853948631165608, 0.9853948631165608)" opacity="0.5"><g transform="scale(1.0148216085044799)"><path d="M0,-0.99 Q0,-5.0302 0,-6.3548 T0,-8.6235 0,-10.5325 0,-12.4717 0,-14.4249 0,-16.3857 0,-18.125 0,-19.7438 0,-21.2993 0,-22.5947 0.2257,-23.7485 0.5742,-25.0511 0.7638,-26.658 0.867,-28.207 0.9231,-29.7246 0.9536,-31.2227 0.9702,-32.7103 1.2027,-34.4202 1.5526,-36.2509 1.7429,-37.9195 1.8465,-39.4998 1.9028,-41.0343 2.1592,-42.3183 2.5243,-43.4659 2.723,-44.7651 2.8311,-46.3702 2.8899,-47.9182 2.9218,-49.4352 2.9392,-50.9331 2.9487,-52.4205 2.9539,-54.128 2.9567,-55.9552 2.9582,-57.6241 2.959,-59.2068 2.9595,-60.7427 2.9597,-62.2531 2.9598,-63.9731 2.9599,-65.8071 2.96,-67.4774 2.96,-69.0586 2.96,-70.5937 2.96,-72.1036 2.96,-73.8234 2.96,-75.4338 2.96,-76.9847 2.96,-78.7268 2.96,-80.347 2.96,-81.9011 2.96,-83.8705 2.96,-86.0659 2.96,-88.1585 2.96,-89.9718 2.96,-91.6331 2.96,-93.4352 2.96,-95.0881 2.96,-96.6599 2.96,-98.4155 2.96,-100.0455 2.96,-101.6048 2.7343,-103.3514 2.3858,-104.9764 2.1962,-106.5353 2.093,-108.2816 2.0369,-109.9065 2.0064,-111.4653 1.9898,-113.2117 1.9808,-114.8343 1.9759,-116.3896 1.7497,-118.134 1.4033,-119.7578 1.2148,-121.316 1.1123,-123.062 1.0565,-125.1359 1.0262,-127.3881 1.0097,-129.2859 1.0007,-130.991 0.9958,-132.5934 0.9932,-134.1399 0.9917,-135.8796 0.9909,-137.5009 0.9905,-139.0577 0.9903,-140.803 0.9902,-142.8741 0.9901,-144.8992 0.99,-146.9014 0.99,-148.8889 0.99,-150.4193 0.99,-151.9267 0.99,-153.645 0.99,-155.4781 0.99,-157.1479 0.99,-158.7289 0.99,-160.2639 0.99,-161.7737 0.99,-163.4934 0.99,-165.1038 0.99,-166.8782 0.99,-169.1909 0.99,-171.7988 0.99,-174.3416 0.99,-176.3974 0.99,-178.1884 0.99,-179.8376 0.99,-181.4096 0.99,-182.9374 0.7643,-184.6668 0.4158,-186.9574 0.2262,-189.5509 0.123,-192.0836 0.0669,-194.3597 0.0364,-196.7219 0.0198,-199.131 0.0108,-201.5656 0.0059,-204.2375 0.0032,-206.8127 0.0017,-209.3377 0.0009,-211.8354 0.0005,-213.869 0.0003,-215.6501 0.0002,-217.2917 0.0001,-219.083 0,-221.4072 0,-223.7956 0,-226.2167 0,-228.8813 0,-231.2291 0,-233.4046 0,-235.9379 0,-238.44 0,-240.9229 0,-243.6211 0,-246.213 0,-248.747 0,-251.2495 0,-253.7327 0,-256.2052 0,-258.2252 0,-259.999 0,-261.8622 0,-263.5507 0,-265.1441 0,-266.9092 0,-268.5421 0.2257,-270.1029 0.5742,-271.8526 0.7638,-273.4793 0.867,-275.0369 0.9231,-276.5591 0.9536,-278.2855 0.9702,-280.3464 0.9792,-282.3658 0.9841,-284.365 0.9868,-286.3532 0.9883,-288.1073 0.9891,-289.7342 0.9895,-291.5175 0.9897,-293.6117 0.9898,-295.875 0.9899,-298.2302 0.99,-300.6355 0.99,-302.8423 0.99,-304.9411 0.99,-306.9812 0.99,-308.9893 0.99,-311.2058 0.99,-313.5356 0.99,-315.7013 0.99,-318.0012 0.99,-320.5999 0.99,-322.9141 0.99,-325.0714 0.99,-327.3667 0.99,-329.7394 0.99,-332.1542 0.99,-334.5919 0.99,-337.2655 0.99,-340.0674 0.7643,-342.7157 0.4158,-344.8289 0.2262,-346.6534 0.123,-348.5465 0.0669,-350.6982 0.0364,-352.9904 0.0198,-355.3614 0.0108,-357.7753 0.0059,-359.7633 -0.2225,-361.5197 -0.5725,-363.3735 -0.7629,-365.0545 -0.8664,-366.6416 -0.9228,-368.4033 -0.9534,-370.4857 -0.9701,-372.7426 -0.9792,-374.8687 -1.2076,-377.1493 -1.5552,-379.2882 -1.7444,-381.1244 -1.8473,-383.0217 -1.9032,-385.1778 -1.9337,-387.2513 -1.9502,-389.2776 -1.9593,-391.2783 -1.9642,-393.0415 -1.9668,-394.6733 -1.9683,-396.2336 -1.9691,-397.7573 -1.9695,-399.4868 -1.9697,-401.7751 -1.9698,-403.9182 -1.9699,-405.759 -1.97,-407.433 -1.97,-409.0185 -1.97,-410.7816 -1.97,-412.4134 -1.97,-413.9736 -1.97,-415.7207 -1.97,-417.346 -1.97,-418.9051 -1.97,-420.6515 -1.97,-422.4999 -1.97,-424.6295 -1.97,-426.912 -1.97,-429.052 -1.97,-431.3379 -1.97,-433.929 -1.97,-436.4625 -2.1957,-438.5156 -2.5442,-440.3074 -2.7338,-442.1805 -2.837,-444.3212 -2.9166,-446.9305 L-2.96,-448.35 " stroke-linecap="round" fill="none" stroke="#9398b0" stroke-width="5.912369178699365" stroke-dasharray="0.1 11.82473835739873" stroke-dashoffset="0"/></g></g><g transform="matrix(1, 0, 0, 1, 1519.1442, 6679.1617) scale(0.9853948631165608, 0.9853948631165608)" opacity="0.5"><g transform="scale(1.0148216085044799)"><path d="M0,0 Q0,-2.695 0,-3.8771 T0,-6.1516 0,-8.2872 0,-10.3496 0,-12.3722 0,-14.3707 0,-16.3563 0,-18.3347 0,-20.3093 0,-22.2818 0,-24.2532 0,-26.0005 0,-27.6259 0,-29.4085 0,-31.2765 -0.2257,-32.9653 -0.5742,-34.3332 -0.7638,-35.9779 -0.867,-37.7709 -0.9231,-39.4189 -0.9536,-40.9903 -0.7445,-42.5201 -0.405,-44.2506 -0.2203,-46.316 -0.1199,-48.5636 -0.0652,-50.9081 -0.0355,-53.3052 -0.0193,-55.5076 -0.0105,-57.8297 -0.0057,-59.9936 -0.0031,-61.8456 -0.0017,-63.7514 -0.0009,-65.6865 -0.0005,-67.4118 -0.0003,-69.0229 0.2256,-70.5743 0.5742,-72.0931 0.7638,-73.8176 0.8669,-75.6541 0.9231,-77.328 0.9536,-78.9135 0.9702,-80.8978 0.9792,-83.099 1.2076,-84.9713 1.5552,-86.6648 1.7444,-88.2609 1.8473,-89.804 1.9032,-91.5418 1.9337,-93.1598 1.9502,-94.7126 1.9593,-96.2322 1.9642,-97.9594 2.1925,-99.7974 2.5425,-101.4698 2.7329,-103.2779 2.8364,-105.3856 2.8928,-107.6562 2.9234,-109.7897 2.9401,-111.8487 2.9492,-113.8671 2.9541,-115.8634 2.9568,-118.0735 2.9583,-120.3998 2.9591,-122.7893 2.9595,-125.2133 2.9597,-127.2045 2.9598,-128.9603 2.9599,-130.8138 2.96,-132.7204 2.96,-134.6582 2.96,-136.613 2.96,-138.7982 2.96,-141.1086 2.96,-143.2639 2.96,-145.3346 2.7343,-147.136 2.3858,-148.7908 2.1962,-150.8151 2.093,-153.0403 2.0369,-155.1492 2.0064,-157.1947 1.9898,-159.4315 1.9808,-161.5467 1.9759,-163.3699 1.9732,-165.7092 1.9717,-168.7785 1.9709,-172.247 1.9705,-175.4837 1.9703,-178.3662 1.9702,-181.0561 1.9701,-183.4199 1.97,-185.8299 1.97,-188.2627 1.97,-190.4845 1.97,-192.8172 1.97,-195.2102 1.97,-197.1869 1.97,-198.937 1.97,-200.7875 1.97,-202.4667 1.97,-204.0528 1.97,-205.814 1.97,-207.4469 1.97,-209.0101 1.97,-210.7588 1.97,-212.385 1.97,-213.9445 1.97,-215.6912 1.97,-217.314 1.97,-219.3186 1.97,-221.7588 1.97,-224.2104 1.97,-226.8915 1.97,-229.474 1.97,-231.7773 1.97,-233.9286 1.97,-235.9972 1.97,-238.2465 1.97,-240.5942 1.97,-242.9931 1.97,-245.6456 1.97,-248.2126 1.97,-250.5074 1.97,-252.8798 1.97,-255.2944 1.97,-257.5063 1.97,-259.6079 1.97,-261.426 1.97,-263.0899 1.97,-264.8934 1.97,-266.7729 1.97,-268.4679 1.97,-270.0626 1.97,-271.8307 1.97,-273.9166 1.97,-275.9496 1.97,-277.7305 1.7466,-279.3719 1.4016,-280.9374 1.2139,-282.6873 1.1118,-284.5399 1.0563,-286.6717 1.026,-288.9532 1.233,-290.8692 1.5691,-292.5864 1.7519,-294.4189 1.8514,-296.0884 1.9055,-297.6714 2.1606,-299.4332 2.5251,-301.0642 2.7234,-302.6241 2.8313,-304.1476 2.89,-305.6512 3.1454,-307.3675 3.5077,-309.1995 3.7048,-311.0944 3.8121,-313.0235 3.8704,-315.1971 3.9021,-317.5035 3.9194,-319.6565 3.9288,-321.7261 3.9339,-323.5268 3.9367,-325.6304 3.9382,-328.1223 3.939,-330.5996 3.9395,-332.8456 3.9397,-334.968 3.9398,-337.4701 3.9399,-339.7295 3.94,-341.6335 3.94,-343.3419 3.94,-344.9439 3.94,-346.9394 3.94,-349.149 4.1657,-351.2493 4.5142,-353.2902 4.7038,-355.2988 4.807,-357.2898 4.8631,-359.4969 4.8936,-361.8216 4.9102,-363.9846 4.9192,-366.0596 4.9241,-368.0867 5.1503,-370.3135 5.4967,-372.6489 5.6852,-374.8177 5.7877,-376.8958 5.8435,-379.1504 5.8738,-381.5009 5.8903,-383.6779 5.8993,-385.7605 5.9042,-388.0175 5.9068,-390.3693 5.9083,-392.7705 5.9091,-395.1984 5.9095,-397.4199 5.9097,-399.5289 5.9098,-401.5746 5.9099,-403.5857 5.91,-405.5781 5.91,-407.5603 5.91,-409.5369 5.91,-411.5105 5.91,-413.4825 5.91,-415.4536 5.91,-417.2007 5.91,-419.0495 5.6866,-420.9535 5.3416,-422.6642 5.1539,-424.2697 5.0518,-425.8179 4.9963,-427.5585 4.966,-429.6272 4.9427,-432.1808 L4.93,-433.57 " stroke-linecap="round" fill="none" stroke="#9398b0" stroke-width="5.912369178699365" stroke-dasharray="0.1 11.82473835739873" stroke-dashoffset="0"/></g></g><g transform="matrix(1, 0, 0, 1, 1204.8032, 6400.2949) scale(0.9853948631165608, 0.9853948631165608)" opacity="0.5"><g transform="scale(1.0148216085044799)"><path d="M0,0 Q3.5933,0 4.7964,0 T7.1031,0.2257 9.2563,0.5742 11.1025,0.7638 12.7817,0.867 14.5935,0.9231 16.4775,0.9536 18.175,0.9702 19.771,0.9792 21.0884,1.2076 22.2542,1.5552 23.5633,1.7444 24.9503,1.8473 26.6032,1.9032 28.4006,2.1594 30.0533,2.5245 31.6273,2.7231 33.1561,2.8311 34.437,3.1133 36.0344,3.4903 38.0274,3.6954 39.7842,3.8069 41.4125,3.8676 43.1966,3.9006 44.842,3.9186 46.1863,3.9283 47.8159,3.9337 49.603,3.9366 51.2501,3.9381 53.0444,3.939 55.1423,3.9394 57.4053,4.1654 59.3112,4.5141 60.7995,4.7037 62.5075,4.8069 64.3349,4.863 66.0039,4.8936 67.5844,4.9102 69.1169,4.9192 70.8488,4.6984 72.6916,4.3526 74.3689,4.1644 75.954,4.0621 77.4912,4.0064 79.2257,3.9761 81.5168,3.9597 84.1129,3.9507 86.6492,3.9458 88.7016,3.9432 90.4907,3.9417 92.3622,3.9409 94.0553,3.9405 95.8746,3.9403 98.2118,3.9402 100.6072,3.9401 102.5853,3.94 104.3362,3.94 106.187,3.94 107.8664,3.94 109.4549,3.94 110.994,3.94 112.5038,3.94 114,3.94 115.7123,3.94 117.9912,3.94 120.355,3.94 122.3158,3.94 124.0574,3.94 125.6774,3.94 127.2312,3.94 128.9749,3.94 130.8217,3.94 132.5013,3.94 134.0899,3.94 135.8524,3.94 137.9352,3.94 140.1923,3.94 142.0928,3.94 143.5758,3.94 145.0574,3.94 146.536,3.94 147.7896,3.94 148.9229,3.94 150.2144,3.94 151.5895,3.94 152.7867,3.94 154.1129,3.94 155.5069,3.7166 156.7145,3.3716 158.0462,3.1839 159.669,3.0818 161.2267,3.0263 162.749,2.996 164.4754,2.9796 166.0872,2.9707 167.6366,2.9658 169.1543,2.9632 170.6549,2.9617 172.3695,2.9609 174.2006,2.9605 175.8715,2.9603 177.2297,2.9602 178.8669,2.9601 180.6558,2.96 182.0782,2.96 183.7525,2.96 185.5617,2.96 187.2185,2.96 188.7947,2.96 190.327,2.96 192.0589,2.7343 193.6736,2.3858 195.2247,2.1962 196.7433,2.093 198.47,2.0369 200.7569,2.0064 203.1226,1.9898 205.0845,1.9808 206.8267,1.9759 208.6727,1.9732 210.3518,1.9717 212.1636,1.9709 214.271,1.9705 216.5414,1.9703 218.9006,1.9702 221.308,1.9701 223.7417,1.97 225.9639,1.97 228.0711,1.97 230.1158,1.97 232.1264,1.97 234.1185,1.97 236.1005,1.97 238.077,1.97 239.8271,1.97 241.6775,1.7466 243.8059,1.4016 245.862,1.2139 247.8812,1.1118 249.8802,1.0563 251.866,1.026 253.8446,1.0096 255.8193,1.0007 257.7918,0.9958 259.7632,1.2166 261.7339,1.5601 263.7043,1.747 265.9003,1.8487 267.9932,1.904 270.0301,1.9341 272.2622,1.9505 274.3747,1.9594 276.4223,1.9642 278.4345,1.9669 280.6532,1.9683 282.9842,1.9691 285.1505,1.9695 287.2274,1.9697 289.4812,1.9699 291.8313,1.7465 294.2316,1.4015 296.6613,1.2139 299.1072,1.1118 301.5595,1.0563 304.0175,1.026 306.4788,1.0096 308.9417,1.0007 311.4056,0.9958 313.8677,0.9932 316.5546,0.9917 319.1403,0.9909 321.671,0.9905 324.1717,0.9903 326.6538,0.9902 329.3516,0.9901 331.9432,0.99 334.4771,0.99 337.203,0.99 339.8077,0.99 342.3487,0.99 345.0807,0.99 347.691,0.99 350.2327,0.99 352.9629,0.99 355.5722,0.99 358.1157,0.99 360.6234,0.99 363.1093,0.99 365.8091,0.99 368.4019,0.99 370.7107,0.99 373.0907,0.99 375.5095,0.99 377.947,0.99 380.3948,1.2134 382.6247,1.5584 384.9619,1.7461 387.3573,1.8482 389.5587,1.9037 391.6546,1.934 393.9188,1.9504 396.2746,1.9593 398.6802,1.9642 401.1129,1.9668 403.3346,1.9683 405.6649,1.9691 408.0567,1.9695 410.2584,1.9697 412.5779,1.9698 414.9614,1.9699 417.3821,1.97 419.823,1.97 422.2749,1.97 424.7328,1.97 426.9682,1.97 429.306,1.97 431.6996,1.97 434.1257,1.97 436.7952,1.97 439.3715,1.97 441.8948,1.97 444.6149,1.97 447.2187,1.97 449.5335,1.97 451.9168,1.97 454.3373,1.97 456.7759,1.97 459.4499,1.97 462.0286,1.97 464.5555,1.7466 467.0541,1.4016 469.5352,1.2139 472.0089,1.1118 474.4786,1.0563 476.9439,0.8003 479.1834,0.4354 481.5257,0.2368 483.9239,0.1288 486.1269,0.0701 488.4494,-0.1876 490.8368,-0.5535 493.0339,-0.7525 495.1274,-1.0843 497.3904,-1.4882 499.7454,-1.7079 501.9249,-1.8274 504.0089,-1.8924 506.2643,-2.1535 508.6153,-2.5213 510.7948,-2.7213 513.1023,-2.8302 515.4793,-2.8894 517.6707,-2.9216 519.7611,-2.9391 521.7989,-2.9486 524.0315,-2.9538 526.1444,-2.9566 528.1921,-2.9582 530.4278,-2.959 532.7681,-2.9595 535.1652,-2.9597 537.3676,-2.9598 539.464,-2.9599 541.5028,-2.96 543.5102,-2.96 545.7263,-2.96 548.0558,-2.96 550.2215,-2.96 552.2979,-2.96 554.3258,-2.96 556.3273,-2.96 558.5401,-2.96 560.8679,-2.96 563.0326,-2.7343 565.1085,-2.3858 567.1361,-2.1962 568.914,-2.093 570.7818,-2.0369 572.9219,-2.0064 574.9844,-1.9898 577.2282,-1.7573 579.3471,-1.4074 581.1747,-1.2171 583.293,-1.1135 585.5693,-1.0572 587.706,-1.0266 589.7667,-1.0099 591.786,-1.0008 593.7828,-0.9959 595.7674,-0.9932 597.7454,-0.9917 599.4962,-0.9909 601.1236,-0.9905 602.9072,-0.9903 604.9992,-0.9902 607.2591,-0.9901 609.389,-0.99 611.4483,-0.99 613.2412,-0.99 615.1148,-0.99 617.4815,-0.99 619.8908,-0.99 622.3255,-1.2134 624.774,-1.5584 626.7808,-1.7461 628.3217,-1.8482 630.0583,-1.9037 631.9013,-1.934 633.5788,-1.9504 635.1662,-1.9593 636.7024,-1.7408 638.5273,-1.2545 L639.52,-0.99 " stroke-linecap="round" fill="none" stroke="#9398b0" stroke-width="5.912369178699365" stroke-dasharray="0.1 11.82473835739873" stroke-dashoffset="0"/></g></g><g transform="matrix(1, 0, 0, 1, 1201.847, 6482.0827) scale(0.9853948631165608, 0.9853948631165608)" opacity="0.5"><g transform="scale(1.0148216085044799)"><path d="M0,0 Q2.695,-0.4514 3.6537,-0.7977 T5.5832,-1.3323 7.7546,-1.8488 9.8341,-2.3555 11.866,-2.6312 13.8697,-2.7811 15.6323,-2.8627 17.266,-2.9071 19.0531,-3.1546 21.3727,-3.5128 23.7586,-3.7076 25.7315,-3.8136 27.2538,-3.8712 28.7546,-3.9026 30.2459,-4.1454 31.5063,-4.5032 32.8646,-4.6978 34.5041,-4.8037 36.2966,-4.8613 37.9443,-4.8926 39.5133,-4.9097 41.2651,-4.9189 42.893,-4.6983 44.4534,-4.3525 46.2006,-4.1644 47.826,-4.0621 49.3851,-4.0064 50.9058,-3.9761 52.4057,-3.9597 54.1199,-3.9507 55.7274,-3.9458 57.2767,-3.9432 59.0178,-3.7183 60.8633,-3.3725 62.7656,-3.1844 64.6988,-3.0821 66.6487,-3.0264 68.3844,-2.7704 70.0035,-2.4054 71.7826,-2.2069 73.6487,-2.0989 75.5622,-2.0401 77.5015,-2.0081 79.4548,-1.9907 81.4157,-1.9813 83.3807,-1.9761 85.3503,-1.9733 87.3224,-1.9718 89.2935,-1.971 91.2641,-1.9705 93.4579,-1.9703 95.773,-1.9702 97.9331,-1.9701 100.0088,-1.97 102.0362,-1.97 104.0375,-1.97 106.248,-1.97 108.7979,-1.97 111.0857,-1.97 113.0052,-1.97 115.1711,-1.97 117.4711,-1.97 119.6206,-1.97 121.6906,-1.97 123.7172,-1.97 125.7181,-1.97 127.9283,-1.97 130.2524,-1.97 132.415,-1.97 134.4921,-1.97 136.7461,-1.97 139.094,-1.97 141.2696,-1.97 143.3514,-1.97 145.3822,-1.97 147.3876,-1.7466 149.3791,-1.4016 151.3609,-1.2139 153.3372,-1.1118 155.3107,-1.0563 157.2826,-1.026 159.2536,-1.0096 161.2242,-1.0007 163.1945,-0.9958 165.1646,-0.9932 167.1347,-0.9917 169.1048,-0.9909 171.3005,-0.9905 173.619,-0.9903 175.7786,-0.9902 177.8518,-0.9901 179.8779,-0.99 181.8784,-0.99 184.0907,-0.99 186.4183,-0.99 188.5828,-0.99 190.6586,-0.99 192.6862,-0.99 194.9132,-0.99 197.2487,-0.99 199.4176,-0.99 201.4958,-0.99 203.7503,-0.99 206.1009,-0.99 208.5036,-0.99 210.9347,-0.99 213.1556,-0.99 215.4855,-0.99 217.8747,-0.99 220.0728,-0.99 221.9434,-0.99 224.085,-0.99 226.3741,-0.99 228.5177,-0.99 231.0313,-0.99 233.5228,-0.99 236.0021,-0.99 238.475,-0.99 240.9419,-0.99 243.4057,-0.99 245.8701,-0.99 248.5604,-1.2134 251.148,-1.5584 253.6775,-1.7461 256.1752,-1.8482 258.658,-1.9037 261.3585,-1.934 263.9515,-1.9504 266.2605,-1.9593 268.864,-1.9642 271.4044,-2.1926 273.9104,-2.5425 276.8446,-2.7329 279.5625,-2.8365 282.1651,-2.8928 284.705,-2.9234 286.985,-2.9401 289.3494,-2.9492 291.7596,-2.7284 294.4183,-2.3826 297.4378,-2.1944 300.2044,-2.0921 302.6078,-2.0364 304.8136,-2.0061 306.9118,-1.9897 308.9516,-1.9807 310.9595,-1.9758 312.9502,-1.9732 314.9314,-1.9717 316.9075,-1.9709 318.8809,-1.9705 320.8527,-1.9703 322.8259,-2.1959 324.8,-2.5443 326.7722,-2.7339 328.7434,-2.837 330.4883,-2.8931 332.3359,-2.9236 334.2416,-2.9402 335.9531,-2.9492 338.006,-2.9541 340.2445,-2.7311 342.3606,-2.384 344.41,-2.1952 346.4255,-2.0925 348.646,-2.0367 350.9757,-2.0063 353.1414,-1.9897 355.2178,-1.7573 357.4715,-1.4074 359.8215,-1.2171 361.9982,-1.1135 364.3064,-1.0572 366.6861,-0.8008 369.1024,-0.4357 371.5409,-0.237 373.768,-0.1289 376.1014,-0.0701 378.4925,-0.0382 380.4681,-0.0208 382.6669,-0.0113 385.2105,-0.0061 387.7183,-0.0033 390.2065,-0.0018 392.4585,0.2247 394.8053,0.5737 397.206,0.7635 399.636,0.8668 402.0797,0.923 404.5331,0.9535 406.9918,0.9702 409.2277,0.9792 411.568,0.9841 413.9652,0.9868 416.1676,0.7625 418.264,0.4148 420.5285,0.2257 422.8844,0.1228 425.0644,-0.1589 426.9229,-0.5379 428.8322,-0.7441 431.2184,-0.8562 433.6405,-1.1407 435.8587,-1.5188 437.9637,-1.7246 440.0072,-1.8365 442.0172,-1.8974 444.0089,-2.1562 445.9907,-2.5227 447.9671,-2.7221 449.9406,-2.8306 451.9126,-2.8896 453.8836,-3.1451 456.0799,-3.5076 458.6244,-3.7048 461.3561,-3.812 463.9639,-3.8704 466.5066,-3.9021 469.2373,-3.9194 472.0703,-3.9288 474.9612,-3.9339 477.6579,-3.9367 480.4724,-3.9382 483.5767,-3.939 486.3894,-3.9395 489.0413,-3.9397 491.8314,-3.9398 494.4733,-3.9399 497.0345,-3.94 499.7753,-3.94 502.388,-3.94 504.9334,-4.1657 507.6679,-4.5142 510.2794,-4.7038 513.0476,-4.807 516.1244,-4.8631 518.6965,-4.8936 521.4455,-4.9102 524.5142,-4.9192 527.3053,-4.9241 530.1711,-4.9268 532.8542,-4.9283 535.4378,-4.7033 538.1908,-4.3553 540.8101,-4.1659 543.3591,-4.0629 546.0955,-4.0069 548.9316,-3.9764 552.0454,-3.9598 555.0867,-3.9508 557.8653,-3.9459 560.5008,-3.9432 562.8329,-3.9417 565.2256,-3.9409 567.6512,-3.9405 569.8691,-3.9403 571.974,-3.9402 574.0173,-3.9401 576.2529,-3.94 578.5932,-3.94 580.5388,-3.94 582.4956,-3.94 584.6841,-3.94 586.773,-3.94 588.8077,-3.94 590.5894,-3.94 592.6827,-3.94 595.169,-3.94 597.1964,-3.94 598.9741,-3.94 600.6139,-3.94 602.4042,-3.94 604.5022,-3.94 606.5418,-3.94 608.5496,-3.94 610.3168,-3.94 611.7273,-3.94 612.9438,-3.94 614.2804,-3.94 615.6801,-3.94 617.3399,-3.94 619.3669,-3.94 621.3679,-3.94 623.3547,-3.94 625.1104,-3.94 626.7404,-3.94 628.5255,-3.94 630.1691,-3.94 631.7359,-3.94 633.938,-3.7166 636.9186,-3.2266 L638.54,-2.96 " stroke-linecap="round" fill="none" stroke="#9398b0" stroke-width="5.912369178699365" stroke-dasharray="0.1 11.82473835739873" stroke-dashoffset="0"/></g></g><g transform="matrix(1, 0, 0, 1, 1283.6348, 6475.1849) scale(0.9853948631165608, 0.9853948631165608)" opacity="1"><g transform="scale(1.0148216085044799)"><path d="M0,0 Q3.1464,0 4.2257,0 T6.3412,-0.2257 8.1669,-0.7977 9.6093,-1.3323 10.8431,-1.6231 11.9657,-2.007 13.2513,-2.665 14.6233,-3.4721 15.8188,-4.3604 16.9183,-5.2927 17.9656,-6.2491 18.9845,-7.2185 19.9879,-8.195 20.7595,-9.1754 21.4027,-10.1579 22.2017,-11.1415 23.0856,-12.3515 24.0156,-13.6846 24.9729,-14.859 25.7194,-15.947 26.349,-16.9881 27.1406,-18.0035 27.797,-19.0051 28.3775,-19.9991 28.9167,-20.9891 29.4358,-22.2002 30.1673,-23.5339 31.0144,-24.7109 31.701,-25.8003 32.2979,-26.8421 33.0718,-28.0838 33.9419,-29.4318 34.6387,-30.6143 35.2435,-31.9325 36.0239,-33.5479 36.8977,-35.325 37.8221,-36.9666 38.5508,-38.5345 39.1706,-40.2858 39.9569,-42.1368 40.8338,-43.8163 41.5343,-45.1792 42.1411,-46.3697 42.6969,-47.6922 43.2227,-49.0866 43.7322,-50.2943 44.2351,-51.4004 44.7344,-52.6747 45.2294,-54.0429 45.7222,-55.2363 46.2159,-56.5581 46.9337,-57.952 47.5476,-59.611 48.1073,-61.4117 48.6375,-63.0639 49.1516,-65.0868 49.8805,-67.3112 50.5004,-69.194 51.0634,-70.6673 51.5954,-72.1437 52.1082,-73.6217 52.6106,-75.1007 53.1097,-76.5778 53.6069,-78.054 54.1008,-79.5319 54.5929,-80.785 55.0863,-82.3651 55.5805,-84.1229 56.0727,-85.7541 56.564,-87.3163 57.0569,-88.8387 57.5508,-90.5653 57.8195,-92.1794 58.1891,-93.5066 58.6136,-94.9012 59.0702,-96.784 59.5444,-98.7088 59.8023,-100.205 60.166,-101.4681 60.5874,-102.8301 60.8166,-104.2437 61.167,-105.6852 61.5833,-107.1443 61.8098,-108.613 61.933,-110.0868 62.2258,-111.3377 62.6107,-112.6908 62.8202,-114.3252 62.9341,-115.8892 63.2195,-117.4149 63.5982,-118.9175 63.8042,-120.4075 63.9163,-121.8929 64.203,-123.3759 64.5847,-125.0809 64.7923,-126.6833 64.9052,-128.2299 64.9667,-129.7439 65.0001,-131.4658 65.2417,-133.7523 65.5966,-136.3436 65.7897,-138.875 65.8947,-141.1505 65.9518,-143.5123 65.9829,-145.9212 65.9998,-148.3557 66.009,-150.5784 66.014,-152.4601 66.0168,-154.1587 66.0182,-155.981 66.019,-157.8707 66.0195,-159.5735 66.0197,-161.3982 66.0198,-163.5149 66.0199,-165.7904 66.02,-168.15 66.02,-170.5554 66.02,-172.5388 66.02,-174.2927 66.02,-176.1451 66.02,-177.8277 66.02,-179.4179 66.02,-181.1813 66.02,-182.8132 66.02,-184.3758 66.02,-186.3499 66.02,-188.5456 66.02,-190.6384 66.02,-192.4517 66.02,-194.1131 66.02,-195.9151 66.02,-197.5704 66.02,-199.1457 66.02,-200.901 66.02,-202.5284 66.02,-204.0864 66.02,-205.8322 66.02,-207.4569 66.02,-209.0155 66.02,-210.7618 66.02,-212.3866 66.02,-213.7197 65.7966,-214.894 65.4516,-216.2077 65.2639,-217.595 65.1618,-219.0223 65.1063,-220.4736 65.076,-221.938 65.0596,-223.633 65.0507,-225.4533 65.0458,-227.1185 65.0432,-228.6992 65.0417,-230.2317 65.0409,-232.1872 65.0403,-234.974 L65.04,-236.49 " stroke-linecap="round" fill="none" stroke="#ffc034" stroke-width="5.912369178699365" stroke-dasharray="none" stroke-dashoffset="0"/></g></g><g transform="matrix(1, 0, 0, 1, 1438.3418, 6404.2365) scale(0.9853948631165608, 0.9853948631165608)" opacity="1"><g transform="scale(1.0148216085044799)"><path d="M0,0.99 Q-2.2481,-0.3598 -2.8596,-0.9526 T-3.8037,-2.3171 -4.3173,-3.9578 -4.5967,-5.5229 -4.523,-6.5977 -4.0337,-7.4082 -3.5441,-8.2982 -3.052,-9.0058 -2.1095,-9.3908 -0.6984,-9.6002 0.7441,-9.7141 2.2037,-9.7761 3.6703,-9.5863 4.6916,-8.8105 5.2472,-7.7136 5.7752,-6.442 6.2881,-4.8519 6.3414,-3.3143 6.1447,-2.0287 5.8142,-0.8779 5.1853,0.1973 4.394,1.0057 3.2909,1.6711 1.7903,2.2588 -0.0104,2.713 L-0.99,2.96 " stroke-linecap="round" fill="none" stroke="#f2f2f2" stroke-width="5.912369178699365" stroke-dasharray="none" stroke-dashoffset="0"/></g></g><g transform="matrix(1, 0, 0, 1, 1596.9904, 6408.1781) scale(0.9853948631165608, 0.9853948631165608)" opacity="1"><g transform="scale(1.0148216085044799)"><path d="M0,0 Q-1.3498,-2.695 -1.7169,-3.6537 T-2.5072,-5.5832 -3.1606,-7.5311 -3.2925,-9.2634 -2.9152,-10.6549 -2.4842,-11.8634 -2.0263,-12.7465 -1.328,-13.2269 -0.4967,-13.4882 0.6304,-13.4047 1.9161,-13.1335 3.0647,-12.7603 4.3645,-12.3315 5.7441,-11.8748 6.9438,-11.1772 8.0456,-10.3486 9.0941,-9.4486 9.8902,-8.2842 10.5468,-6.9781 11.1274,-5.595 11.2198,-4.3934 11.0466,-3.5141 10.7267,-2.81 10.1035,-2.2035 9.0918,-1.6501 7.8666,-1.1234 6.751,-0.6111 5.6949,-0.3325 4.4455,-0.4066 2.8422,-0.7844 L1.97,-0.99 " stroke-linecap="round" fill="none" stroke="#f2f2f2" stroke-width="5.912369178699365" stroke-dasharray="none" stroke-dashoffset="0"/></g></g><g transform="matrix(1, 0, 0, 1, 1363.4518, 6238.6901) scale(0.9853948631165608, 0.9853948631165608)" opacity="1"><g transform="scale(1.0148216085044799)"><path d="M0,0.99 Q0,4.1318 0,5.6613 T0,8.4719 0,10.8993 0,12.8946 0,14.6549 0,16.2852 0,17.8446 0,19.5913 0,21.2163 0,22.5495 0.2257,23.7239 0.5742,25.0377 0.7638,26.4273 0.867,27.8581 0.9231,29.5348 0.9536,31.1195 0.9702,32.6541 1.2027,34.3896 1.5526,36.0086 1.7429,37.5619 1.8465,39.3052 1.9028,40.9285 1.9334,42.2607 2.1758,43.4346 2.5334,44.7481 2.7279,46.1352 2.8338,47.5647 2.8913,49.2429 3.1461,50.8285 3.5081,52.3636 3.7051,53.8736 3.8122,55.3699 3.8705,57.0822 3.9022,58.9121 4.1451,60.5824 4.503,62.1659 4.6977,63.9256 4.8036,65.5555 4.8613,67.1148 4.8926,68.8614 5.1331,70.4864 5.4874,72.0453 5.6801,73.7916 5.7849,75.4165 5.842,76.7496 6.0987,77.924 6.4641,79.2377 6.6629,80.625 6.771,81.8288 7.0533,82.9329 7.4303,84.2061 7.6353,85.5736 7.7469,86.769 8.0333,87.8684 8.4148,89.1391 8.6224,90.5052 8.9587,91.4741 9.3652,92.4504 9.5862,93.654 9.9322,94.9814 10.3462,96.6019 10.7948,97.9325 11.2623,99.1079 11.7423,100.4221 12.2292,101.5862 12.7198,102.6687 13.2123,103.9301 13.7038,105.2912 14.1945,106.4808 14.6872,107.5771 15.4044,108.8484 16.2437,110.2148 16.926,111.4074 17.5206,112.5052 18.0675,113.5517 18.5908,114.5701 19.1011,115.5732 19.6022,116.7916 20.324,118.1292 20.9423,119.306 21.5021,120.3954 22.0301,121.4372 22.5431,122.4531 23.0478,123.4571 23.5459,124.4525 24.0402,125.4432 24.5349,126.2078 25.0297,127.0729 25.5246,128.2162 26.0195,129.2872 26.5122,130.3191 27.2294,131.3295 27.8453,132.3284 28.4038,133.5444 29.1567,134.8807 30.0155,136.0592 30.9318,137.1494 31.8795,138.1916 32.8442,139.2078 33.8181,140.2097 34.7971,141.2039 36.0045,142.1939 37.1105,143.1817 37.9379,143.9424 39.0629,144.582 40.1241,145.3791 40.9248,146.0361 41.8095,146.6193 42.74,147.3857 43.6953,148.2518 44.6642,148.9486 45.8638,149.5535 46.9656,150.3316 47.7907,150.9784 48.9144,151.556 50.2006,152.3193 51.3494,152.958 52.4236,153.3055 53.6828,153.7202 55.0404,154.1716 56.2281,154.4171 57.3234,154.7741 58.3683,155.1917 59.6117,155.419 60.7372,155.7683 61.5753,156.184 62.4803,156.4102 63.4218,156.7567 64.6089,157.1686 66.1529,157.6184 67.9839,158.2865 L68.98,158.65 " stroke-linecap="round" fill="none" stroke="#ffc034" stroke-width="5.912369178699365" stroke-dasharray="none" stroke-dashoffset="0"/></g></g><g transform="matrix(1, 0, 0, 1, 1358.5248, 6485.0389) scale(0.9853948631165608, 0.9853948631165608)" opacity="1"><g transform="scale(1.0148216085044799)"><path d="M0,0 Q-0.8983,-3.1464 -0.9192,-4.2257 T-0.7258,-6.1178 0.0543,-7.3728 1.377,-7.8298 2.5457,-7.4035 3.4072,-6.7225 4.1016,-5.9028 4.4794,-4.7843 4.6849,-3.7267 4.5709,-2.7022 4.0598,-1.6957 3.5583,-0.6968 2.8363,0.0724 1.7687,0.4908 0.513,0.7185 -0.845,0.6166 -2.0329,-0.1138 -2.9025,-1.4094 -3.3756,-2.7891 -3.633,-4.2145 -3.3238,-5.6625 -2.483,-6.8994 -1.5765,-7.798 -0.4085,-8.2868 0.6761,-8.327 1.7153,-8.1232 2.7298,-7.5631 3.5073,-6.3601 4.1561,-5.0331 4.509,-3.6386 4.701,-2.2051 4.5797,-0.9739 4.0645,-0.0783 3.1117,0.1831 1.7375,0.0645 L0.99,0 " stroke-linecap="round" fill="none" stroke="#ffc034" stroke-width="5.912369178699365" stroke-dasharray="none" stroke-dashoffset="0"/></g></g><g transform="matrix(1, 0, 0, 1, 1200.8616, 6643.6874) scale(0.9853948631165608, 0.9853948631165608)" opacity="0.5"><g transform="scale(1.0148216085044799)"><path d="M0,0 Q3.1464,0 4.2257,0 T6.3412,0 8.3904,0 10.18,0 11.8284,0 13.6235,0 15.2749,0 16.8482,0 18.6023,0 20.2292,0 21.7868,0 23.309,0 24.5885,0.2257 25.9595,0.5742 27.3779,0.7638 28.8221,1.0904 30.5061,1.4915 32.3205,1.7097 33.9824,1.8284 35.5613,1.893 37.3186,1.9281 38.9494,1.9472 40.5115,1.9576 42.0339,1.9633 43.5346,1.9663 45.2494,1.968 46.857,1.9689 48.4065,1.9694 50.1477,1.7462 51.9933,1.4014 53.6722,1.2138 55.2603,1.1117 57.0226,1.0562 59.1053,1.026 61.3624,1.0096 63.2628,1.0007 64.9693,0.9958 66.5724,0.9932 68.1194,1.2152 69.6336,1.5594 71.3556,1.7466 73.6422,1.8485 75.7844,1.9039 77.6223,1.934 79.2971,1.9504 80.6573,2.1851 81.8464,2.5384 83.3916,2.7307 85.1305,2.8352 86.7514,2.8921 88.7571,2.9231 90.7466,2.9399 92.278,2.9491 93.786,2.9541 95.5047,2.9568 97.1122,2.9582 98.6616,3.1825 100.4051,3.5279 102.0261,3.7158 103.5806,3.818 105.3245,3.8737 106.9481,3.9039 108.5062,3.9204 110.2521,3.9293 111.8768,3.9342 113.4355,3.9368 115.1818,3.9383 117.2535,3.9391 119.5022,3.9395 121.8496,3.9397 124.0272,3.9398 125.8867,3.9399 127.5708,3.94 129.1596,3.94 130.9222,3.94 132.556,3.94 134.1196,3.94 135.8685,3.94 137.7183,3.94 139.6229,3.94 141.5573,3.94 143.5079,3.94 145.4674,3.94 147.4339,3.94 149.6278,3.94 151.943,3.94 154.3265,3.94 156.7472,3.94 159.1881,3.94 161.8634,3.94 164.4405,3.94 166.9665,4.1657 169.6881,4.5142 172.5162,4.7038 175.4044,4.807 178.0996,4.8631 180.6876,4.8936 183.4429,5.1336 186.0659,5.4877 188.6168,5.6802 191.352,5.785 193.9617,5.842 196.282,5.873 198.6682,5.8899 201.0881,5.6756 203.3029,5.3356 205.6317,5.1507 208.0227,5.05 210.2216,4.9953 212.3162,4.7398 214.354,4.3751 216.3608,4.1767 218.3509,4.0688 220.5575,4.01 222.882,3.7547 225.0448,3.3923 227.1197,3.1952 229.1468,3.0879 231.1478,3.0296 232.9112,2.7721 234.5454,2.4064 236.3328,2.2074 238.2034,1.8757 240.1193,1.4718 242.0599,1.2521 243.7905,1.1326 245.4068,0.8418 247.1844,0.458 249.0497,0.2491 250.9628,0.1355 252.9018,0.0737 254.8549,0.0401 256.8158,-0.2039 258.5573,-0.5624 260.1796,-0.7574 261.9605,-0.8634 263.8276,-0.9212 265.7416,-1.176 267.6812,-1.5381 269.8603,-1.735 272.1698,-2.0679 274.3245,-2.4747 276.395,-2.696 278.4196,-2.8164 280.4194,-3.1053 282.6312,-3.4859 284.9586,-3.693 287.1229,-3.8056 289.1987,-3.8669 291.2262,-3.9002 293.2275,-4.1441 295.2145,-4.5025 296.9703,-4.6974 298.8261,-4.8035 300.9597,-4.8612 303.0187,-4.8926 305.0371,-4.9096 307.0334,-4.6932 309.0177,-4.3497 310.9955,-4.1629 313.1955,-4.0613 315.5163,-4.006 317.6771,-3.9759 319.751,-3.7361 321.7774,-3.3822 323.7782,-3.1897 325.7649,-3.0849 327.744,-3.028 329.7189,-2.997 331.6916,-2.9801 333.6654,-2.9709 335.6397,-2.966 337.612,-2.9632 339.5833,-2.9618 341.554,-2.961 343.5244,-3.184 345.4946,-3.5287 347.4647,-3.7163 349.4348,-3.8183 351.4048,-3.8738 353.3748,-3.904 355.1214,-3.9204 356.5207,-3.9293 357.9545,-3.9342 359.8585,-3.9368 362.0184,-3.9383 364.0916,-3.9391 366.3435,-3.9395 368.6926,-3.9397 370.6431,-4.1656 372.379,-4.5141 373.9983,-4.7038 375.5517,-4.8069 377.2951,-4.8631 378.9184,-4.8936 380.4764,-4.9102 381.9965,-4.9192 383.4961,-4.9241 384.9867,-4.9268 386.4725,-4.9283 388.1791,-4.9291 390.0058,-4.9295 391.8978,-4.9297 394.0511,-4.9298 396.1209,-4.9299 397.9217,-4.93 399.8019,-4.93 401.7231,-4.93 403.4408,-4.7043 404.8244,-4.3558 406.4754,-4.1662 408.2719,-4.063 410.1497,-3.7835 412.2953,-3.408 414.3609,-3.2037 416.1571,-2.8669 417.8069,-2.4579 419.8284,-2.2354 422.0521,-1.8909 424.1602,-1.4801 426.431,-1.2566 429.0138,-1.135 431.7663,-1.0689 434.3877,-1.0329 436.7121,-1.0134 439.1006,-1.0027 441.7474,-0.9969 444.309,-0.9938 446.3774,-0.992 448.4032,-0.9911 450.4036,-0.9906 452.1644,-0.9903 454.2463,-0.9902 456.5029,-0.7644 458.6288,-0.4158 460.6836,-0.2262 462.9255,-0.1231 465.4926,-0.0669 468.0108,-0.0364 470.0556,-0.0198 472.292,-0.0108 474.8561,-0.0059 477.375,-0.0032 480.0928,-0.0017 482.6953,-0.0009 485.0116,-0.0005 487.3935,-0.0003 490.0367,-0.0002 492.5986,-0.0001 495.1164,0 497.3844,0 499.5164,0 501.8003,0 503.9411,0 506.004,0 507.7988,0 509.6735,0 511.8174,0 513.882,-0.2257 516.1292,-0.5742 518.4757,-0.7638 520.6505,-0.867 522.7319,-0.9231 524.9882,-0.9536 527.5632,-0.9702 529.8622,-0.9792 531.7878,-0.9841 534.1828,-0.9868 537.0589,-1.2117 539.7475,-1.5575 542.1084,-1.7456 544.5146,-1.8479 547.171,-1.9036 549.9658,-1.9339 552.6102,-1.9503 554.7214,-1.9593 556.7682,-2.1899 558.7823,-2.5411 560.5528,-2.7321 562.4143,-2.836 564.0995,-2.8926 565.6889,-2.9233 567.4518,-3.1635 569.3092,-3.5176 571.2202,-3.7102 572.9347,-3.815 574.5399,-3.872 576.3115,-3.903 577.9502,-3.9199 579.5164,-3.9291 581.4903,-3.934 583.4623,-3.9368 585.21,-3.9382 586.8357,-3.939 588.1692,-3.9395 589.5672,-3.9397 591.226,-3.9398 592.8033,-3.9399 594.3362,-3.94 596.2942,-3.94 598.4834,-3.94 600.3469,-3.94 601.8098,-3.94 603.2805,-3.94 604.9789,-3.94 606.5754,-3.94 607.893,-3.94 609.059,-3.94 610.3682,-3.94 611.7553,-3.94 612.959,-3.94 614.2887,-3.94 615.6846,-3.94 616.8932,-3.94 617.9998,-3.94 619.2744,-3.94 620.6427,-3.94 621.8362,-3.94 623.1603,-3.94 624.5555,-3.94 625.9871,-3.94 627.6642,-3.94 629.4749,-3.94 631.5839,-3.94 633.8553,-3.94 636.215,-3.94 638.9967,-3.94 L640.51,-3.94 " stroke-linecap="round" fill="none" stroke="#9398b0" stroke-width="5.912369178699365" stroke-dasharray="0.1 11.82473835739873" stroke-dashoffset="0"/></g></g><g transform="matrix(1, 0, 0, 1, 1677.7928, 6643.6874) scale(0.9853948631165608, 0.9853948631165608)" opacity="1"><g transform="scale(1.0148216085044799)"><path d="M0,0 Q-1.7966,-1.7966 -2.2853,-2.511 T-3.0399,-4.0632 -3.2269,-5.5802 -2.8795,-6.6289 -2.2413,-7.4251 -1.445,-8.084 -0.5604,-8.6659 0.37,-9.2058 1.5488,-9.4996 2.8649,-9.4359 4.03,-9.1779 5.113,-8.8118 6.377,-8.1634 7.5138,-7.3616 8.3557,-6.2505 9.0371,-4.9735 9.4078,-3.8296 9.6094,-2.3067 9.4957,-0.8034 9.2104,0.2378 8.8294,1.2534 8.1731,2.0316 7.3668,2.455 6.4791,2.9087 5.3235,3.379 4.02,3.6348 2.8618,3.774 1.5568,3.8497 0.172,3.4417 -1.2153,2.4885 L-1.97,1.97 " stroke-linecap="round" fill="none" stroke="#f2f2f2" stroke-width="5.912369178699365" stroke-dasharray="none" stroke-dashoffset="0"/></g></g><g transform="matrix(1, 0, 0, 1, 1439.3272, 6486.0243) scale(0.9853948631165608, 0.9853948631165608)" opacity="1"><g transform="scale(1.0148216085044799)"><path d="M0,0 Q-2.2481,-1.3498 -2.8596,-2.1661 T-3.8037,-3.6499 -4.3173,-5.1296 -4.371,-6.6095 -3.5018,-7.8637 -1.905,-8.9952 -0.3614,-9.6107 0.9274,-9.4964 2.0777,-8.985 2.9269,-8.2577 3.3889,-7.4129 3.8659,-6.5041 4.3511,-5.1114 4.3894,-3.6789 3.961,-2.6762 3.2788,-1.6816 2.2328,-0.9148 0.9889,-0.4976 -0.1369,-0.4964 -0.9728,-1.3941 -1.6187,-3.043 L-1.97,-3.94 " stroke-linecap="round" fill="none" stroke="#ffc034" stroke-width="5.912369178699365" stroke-dasharray="none" stroke-dashoffset="0"/></g></g><g transform="matrix(1, 0, 0, 1, 1438.3418, 6484.0535) scale(0.9853948631165608, 0.9853948631165608)" opacity="1"><g transform="scale(1.0148216085044799)"><path d="M0,0 Q2.2481,-0.8983 3.3087,-0.9192 T5.1698,-0.9515 6.8548,-0.9691 8.4463,-0.7529 9.7613,-0.1838 10.9258,0.3514 12.2341,0.8661 13.3951,1.5952 14.2523,2.2175 15.1678,2.7795 15.8893,3.5344 16.5075,4.1708 17.293,4.7404 18.1694,5.4995 18.8719,6.3616 19.4775,7.054 20.2561,7.6564 21.1289,8.4332 21.8271,9.305 22.4326,10.2284 23.2112,11.1799 24.0839,11.9232 24.7844,12.5533 25.3911,13.571 26.1704,14.5737 26.8177,15.5684 27.3956,16.5586 28.1591,17.3208 28.7979,18.1845 29.1454,19.1036 29.5602,20.0527 30.235,21.0182 31.0512,22.216 31.9444,23.5425 32.6538,24.7156 33.2654,25.8029 34.0472,27.067 34.9217,28.6529 35.8489,30.1906 36.579,31.4762 37.1996,32.8482 37.9864,34.4952 38.6401,36.066 39.2192,37.3697 39.7576,38.5281 40.2763,39.8308 41.0076,41.4379 41.8546,42.987 42.541,44.5045 43.1379,46.2284 43.9118,47.8411 44.5585,49.3933 45.1337,51.136 45.8958,52.7566 46.5361,54.3108 47.1079,56.0547 47.8681,57.6782 48.5074,59.2362 49.0808,60.9822 49.6185,62.6068 50.1345,63.9398 50.6386,65.5632 50.9128,67.3447 51.2877,68.9865 51.7174,70.7779 52.1746,72.4273 52.6467,73.9994 53.1293,75.5296 53.6175,77.0368 53.8831,78.5294 54.2511,79.7905 54.6747,81.1514 54.9051,82.5644 55.2562,84.0056 55.6729,85.6903 56.123,87.2816 56.5913,88.8199 56.8461,90.3316 57.2104,91.8288 57.6343,93.5416 57.8649,95.146 58.2138,96.6914 58.627,98.207 59.0775,99.4829 59.5483,101.0753 60.0279,103.0633 60.7379,105.0431 61.3499,106.795 61.6828,108.1972 62.0897,109.4092 62.5367,110.7433 62.7799,112.144 62.9122,113.3551 63.2076,114.6866 63.5917,116.3092 63.8007,118.0903 64.1401,119.9575 64.5505,121.6481 64.7737,123.2427 64.8951,124.785 65.1846,126.2989 65.5656,128.0208 65.7728,129.6301 66.1112,131.1782 66.5211,132.9187 66.9675,134.5403 67.4337,135.874 67.6874,137.2744 68.0511,138.7088 68.4747,140.1617 68.9285,141.627 69.3989,143.0989 69.6548,144.5723 69.7939,145.823 70.0954,146.9525 70.4851,148.2418 70.6971,149.6181 71.0359,151.0394 71.4436,152.7109 71.6654,154.2951 72.0118,155.6061 72.4259,156.7684 72.6512,158.0756 72.7738,159.685 73.0639,161.2354 73.4452,162.7537 73.6526,164.2522 73.7654,165.5166 74.0525,166.6536 74.4344,167.9447 74.6422,169.5454 74.7552,171.0911 74.8167,172.3811 75.0758,173.7577 75.4425,175.4072 75.642,177.2028 75.7505,179.078 75.8096,180.7707 75.8417,182.3641 75.8592,183.9058 75.8687,185.8685 75.876,188.6609 L75.88,190.18 " stroke-linecap="round" fill="none" stroke="#ffc034" stroke-width="5.912369178699365" stroke-dasharray="none" stroke-dashoffset="0"/></g></g><g transform="matrix(1, 0, 0, 1, 1519.1442, 6407.1927) scale(0.9853948631165608, 0.9853948631165608)" opacity="1"><g transform="scale(1.0148216085044799)"><path d="M0,0 Q-1.3498,-2.695 -1.7169,-3.8771 T-1.8346,-5.9282 -1.2237,-7.2696 -0.2166,-7.9994 1.2297,-8.3964 2.6913,-8.3866 3.9356,-7.9322 4.8359,-7.0123 5.3257,-5.8371 5.5921,-4.5228 5.5136,-3.3587 5.2475,-2.502 4.6536,-1.8125 3.4321,-1.4375 2.0928,-1.2334 0.9128,-1.1224 -0.1783,-1.2855 -0.9953,-1.8233 -1.4398,-2.7908 -1.6816,-3.9897 -1.5896,-5.0911 -1.3162,-6.1394 -0.9417,-6.9331 -0.0631,-7.3649 1.0897,-7.5998 2.166,-7.5041 2.9749,-7.0029 3.6407,-6.2811 4.2286,-5.4393 4.7719,-4.7556 5.2909,-3.9345 5.3498,-3.0387 4.7092,-2.3279 3.4624,-1.7178 2.1093,-1.8351 1.1474,-3.0207 0.4043,-4.892 L0,-5.91 " stroke-linecap="round" fill="none" stroke="#ffc034" stroke-width="5.912369178699365" stroke-dasharray="none" stroke-dashoffset="0"/></g></g><g transform="matrix(1, 0, 0, 1, 1599.9466, 6563.8705) scale(0.9853948631165608, 0.9853948631165608)" opacity="1"><g transform="scale(1.0148216085044799)"><path d="M0,0 Q-1.7966,-1.7966 -2.511,-2.511 T-3.6141,-4.0632 -4.2141,-5.806 -4.5406,-7.6523 -4.4924,-9.3293 -4.0171,-10.4651 -3.0859,-11.0829 -1.9044,-11.419 -0.8103,-11.6019 0.2341,-11.4779 1.2514,-10.9613 2.0305,-10.0054 2.4544,-8.587 2.6849,-7.1429 2.5846,-6.1338 2.0809,-5.3591 1.132,-4.712 -0.0591,-4.36 -0.9304,-4.6176 -1.4045,-5.4327 -1.2132,-6.3252 -0.4343,-7.0342 0.2152,-7.1964 0.792,-6.8355 1.5549,-6.1901 2.1956,-5.1663 2.5442,-3.7111 2.5081,-2.2445 2.0393,-0.9953 0.8859,-0.3157 -0.9638,-0.1112 L-1.97,0 " stroke-linecap="round" fill="none" stroke="#ffc034" stroke-width="5.912369178699365" stroke-dasharray="none" stroke-dashoffset="0"/></g></g><g transform="matrix(1, 0, 0, 1, 1527.0273, 6250.5149) scale(0.9853948631165608, 0.9853948631165608)" opacity="1"><g transform="scale(1.0148216085044799)"><path d="M0,0.99 Q0,3.685 0,4.8671 T0,7.1416 0,9.2772 0,11.5631 0,13.7049 0,15.3192 0.2257,16.6465 0.5742,18.0412 0.7638,19.4748 0.867,20.9295 0.9231,22.6192 0.9536,24.2133 1.1936,25.7554 1.5477,27.4926 1.7402,29.1102 1.845,30.6628 1.902,32.4057 2.1587,34.0287 2.5241,35.5866 2.7229,37.1089 2.831,38.6119 2.8898,40.3279 2.9218,41.934 2.9392,43.4803 2.9487,45.2198 3.1773,47.0667 3.5251,48.7463 3.7143,50.3326 3.8172,52.0938 3.8732,53.7268 3.9037,55.2901 3.9202,57.0388 3.9292,58.6627 3.9342,60.221 3.9368,61.9693 3.9383,63.593 4.1648,65.1489 4.5137,66.8936 4.7035,68.5176 4.8068,70.0759 4.863,71.822 4.8935,73.4467 4.9102,75.0055 4.9192,76.7517 4.9241,78.3743 4.9268,79.7061 5.1517,80.8798 5.4975,81.9675 5.6856,83.234 5.7879,84.8213 5.8436,86.5832 5.8739,88.2165 5.8903,89.7799 5.8993,91.303 6.1299,92.8041 6.4811,94.5191 6.6721,96.3503 6.9995,98.0214 7.401,99.6054 7.6194,101.3654 7.7382,102.9977 7.8029,104.5605 7.838,106.0833 8.0829,107.3609 8.4418,108.505 8.6371,109.8023 8.7433,111.4087 8.8011,112.9551 8.8325,114.2455 9.073,115.6224 9.4273,117.2698 9.6201,119.0642 9.9506,120.9387 10.3562,122.6334 10.5768,124.2301 10.6968,125.7713 10.7621,127.0589 11.0211,128.2085 11.3854,129.5065 11.5836,131.1109 11.9171,132.6586 12.3243,134.1755 12.5458,135.6755 12.6663,137.1664 12.9575,138.8758 13.3417,140.9274 13.7741,142.9418 14.2328,144.7126 14.4823,146.3484 14.8438,147.6875 15.2661,149.3166 15.7193,151.3268 16.1893,153.5421 16.445,155.6456 16.8098,157.6882 17.4574,160.1469 18.0332,162.385 18.3464,164.5008 18.7425,166.5502 19.1837,168.3399 19.6471,170.4353 20.1227,172.6992 20.6071,174.6056 21.0963,176.3153 21.3625,177.9203 21.7307,179.4683 22.1545,180.983 22.385,182.4796 22.7361,184.1943 23.1528,186.0278 23.603,187.9235 24.0713,189.6273 24.3261,191.0034 24.6904,192.2011 25.1143,193.5253 25.3449,194.9205 25.4703,196.1287 25.7643,197.2351 26.1499,198.5118 26.3597,199.8813 26.6973,201.3011 27.1044,202.9719 27.3258,204.5533 27.672,205.8628 28.0861,207.0243 28.3113,208.3288 28.4338,209.7133 28.7239,211.1414 29.1052,212.8165 29.5383,214.4027 29.9996,215.9405 30.2506,217.6753 30.6106,219.2917 31.0298,220.8436 31.2579,222.5884 31.6077,224.2125 32.0237,225.7686 32.25,227.29 32.5966,228.7925 33.0085,230.2825 33.4584,231.5422 33.9288,232.9024 34.1847,234.3149 34.5474,235.7582 34.9681,237.2182 35.4227,238.2359 35.8957,239.2387 36.3787,240.6825 37.0907,242.3663 37.7014,243.9571 38.2594,245.4974 38.7886,247.008 39.3,248.0531 39.8016,249.0731 40.0745,250.3029 40.4486,251.4211 40.8779,252.4785 41.3349,253.7263 42.0326,255.3035 42.8613,256.8363 43.5356,258.3451 44.1281,260.0642 44.6762,261.6742 45.1978,262.9993 45.7049,264.1692 46.2066,265.4806 46.7052,266.8666 47.1999,268.2931 47.6924,269.9675 48.1861,271.3275 48.6803,272.5188 49.1749,273.8418 49.6697,275.234 50.1623,276.6663 50.8795,277.8946 51.4953,279.012 51.8303,280.069 52.236,281.0932 52.9059,282.0995 53.496,283.3195 54.0405,284.4324 54.5601,285.4892 55.0685,286.739 55.7942,287.6423 56.4125,288.5829 56.9745,289.5437 57.506,290.2922 58.0185,291.1485 58.7465,292.0634 59.3683,293.0104 59.9299,293.9746 60.6846,294.7249 61.3209,295.5822 61.8928,296.7212 62.653,297.5643 63.2901,298.2486 63.8623,299.0723 64.8485,299.9696 66.0576,300.9069 66.9388,301.8659 67.8673,303.0602 69.2227,304.621 L69.96,305.47 " stroke-linecap="round" fill="none" stroke="#ffc034" stroke-width="5.912369178699365" stroke-dasharray="none" stroke-dashoffset="0"/></g></g><g transform="matrix(1, 0, 0, 1, 1607.8297, 6404.2365) scale(0.9853948631165608, 0.9853948631165608)" opacity="1"><g transform="scale(1.0148216085044799)"><path d="M0,0 Q2.695,-0.8983 3.6537,-1.1427 T5.3575,-1.5199 6.7335,-1.7252 8.1569,-1.8368 9.6038,-1.8975 10.8401,-1.7071 11.9641,-1.3801 13.0247,-0.7508 14.0508,0.043 14.8348,0.924 15.4847,2.0759 16.2874,3.3751 17.1732,4.9802 17.8786,6.5282 18.488,8.0452 19.2687,9.7688 19.9168,11.3813 20.4951,12.9334 21.0354,14.4503 21.5528,15.9481 22.0577,17.6613 22.5581,19.4915 23.056,21.1621 23.3269,22.52 23.6976,23.7079 24.1228,25.029 24.3541,26.4225 24.4799,27.8555 24.5483,29.3076 24.8113,30.7702 25.1801,32.4641 25.3807,34.2863 25.4898,35.9524 25.5492,37.5313 25.5815,39.2886 25.8248,40.9194 26.1828,42.4815 26.3776,44.2296 26.4836,45.8531 26.5412,47.4112 26.5726,49.1594 26.5896,50.783 26.5989,52.3389 26.604,54.0836 26.6067,55.7076 26.6082,57.2659 26.609,59.012 26.8329,60.6367 27.1781,62.1955 27.366,63.9417 27.4681,65.5643 27.5237,67.1196 27.5539,68.864 27.5704,70.4878 27.5793,72.046 27.5842,73.5686 27.8126,74.846 28.1625,75.9901 28.3529,77.2874 28.4565,78.8914 28.5128,80.8858 28.5434,82.869 28.5601,84.6228 28.5692,86.4752 28.5741,88.6069 28.5768,90.8906 28.5783,92.8055 28.5791,94.5198 28.5795,96.3508 28.5797,98.2474 28.5798,100.4032 28.5799,102.4742 28.58,104.0501 28.58,105.8056 28.58,107.8847 28.58,109.6906 28.58,111.5713 28.58,113.7162 28.58,115.7813 28.58,117.8031 28.58,119.5778 28.58,121.4438 28.58,123.583 28.58,125.645 28.58,127.4394 28.58,129.0881 28.58,131.109 28.8034,133.1068 29.1484,134.8684 29.3361,136.7273 29.4382,138.6369 29.4937,140.574 29.524,142.3004 29.5404,143.9122 29.5493,145.4639 29.5542,146.9829 29.5568,148.4841 29.784,149.7499 30.1333,151.1111 30.3233,152.5265 30.4267,153.9713 30.4829,155.6556 30.5135,157.2445 30.5301,158.558 30.7626,159.7217 31.1126,161.0297 31.3029,162.4161 31.4065,163.8429 31.4628,165.2939 31.7192,166.7582 32.0843,168.453 32.283,170.2734 32.6145,171.9362 33.0183,173.5157 33.238,175.2755 33.3574,176.9055 33.4225,178.4648 33.4578,179.9879 33.7028,181.4914 34.0617,183.2076 34.257,185.0395 34.5867,186.711 34.9895,188.2951 35.2086,189.8295 35.5535,191.3368 35.9669,193.0551 36.1917,194.6647 36.3141,196.2153 36.6063,197.9571 36.991,199.8029 37.2003,201.4819 37.5376,203.0702 37.9445,204.6068 38.3916,205.8919 38.8606,207.0402 39.1157,208.114 39.4779,209.1473 39.8984,210.1586 40.3528,211.3836 41.0492,212.9483 41.8772,214.4744 42.7768,215.7538 43.4896,216.8989 44.1031,217.971 44.6626,219.0034 45.1904,220.2399 45.9266,221.5851 46.5529,222.7661 47.117,223.86 48.0988,224.9042 49.0843,225.9215 49.8439,226.924 50.7062,227.9185 51.6245,228.9087 52.5732,229.8965 53.5385,230.8831 54.287,231.8689 54.9199,232.6309 55.49,233.2689 56.0235,233.8394 56.7629,234.3755 57.84,234.8928 59.0986,235.3977 60.2324,235.8958 61.3006,236.1667 62.3309,236.5399 63.3405,237.1943 64.3389,237.776 65.7804,238.3159 67.8527,239.0504 L68.98,239.45 " stroke-linecap="round" fill="none" stroke="#ffc034" stroke-width="5.912369178699365" stroke-dasharray="none" stroke-dashoffset="0"/></g></g><g transform="matrix(1, 0, 0, 1, 1676.8074, 6555.9873) scale(0.9853948631165608, 0.9853948631165608)" opacity="1"><g transform="scale(1.0148216085044799)"><path d="M0.99,0 Q-0.3598,-1.3498 -0.2777,-1.9403 T0.0746,-2.8522 0.7155,-3.1248 1.5133,-3.0496 2.3964,-2.783 3.1003,-1.9631 3.7089,-0.6188 4.2657,0.7874 4.5686,2.2273 4.5077,3.4597 4.2488,4.3536 3.8846,5.0633 3.2372,5.4494 2.2102,5.8852 0.9766,6.1222 0.0799,5.802 -0.6314,5.1786 -1.2418,4.1647 -1.5739,2.9405 -1.7545,1.8253 -1.6293,0.7673 -0.8864,-0.0341 0.1927,-0.6934 1.2289,-1.2755 2.2417,-1.5922 3.2418,-1.541 4.2351,-1.064 4.9988,-0.1297 5.4143,1.0535 5.4169,2.1463 4.9692,3.1899 4.4999,4.2069 4.0211,4.9835 3.3115,5.406 2.4764,5.6358 1.5729,5.3117 0.5542,4.4233 L0,3.94 " stroke-linecap="round" fill="none" stroke="#ffc034" stroke-width="5.912369178699365" stroke-dasharray="none" stroke-dashoffset="0"/></g></g><g transform="matrix(1, 0, 0, 1, 1679.7635, 6558.9435) scale(0.9853948631165608, 0.9853948631165608)" opacity="1"><g transform="scale(1.0148216085044799)"><path d="M0,-0.99 Q0.8983,-3.685 1.1427,-4.6414 T1.7456,-6.3439 2.2994,-7.945 2.8241,-9.4886 3.3329,-10.7774 3.8355,-11.93 4.3346,-13.0062 4.8295,-14.2642 5.5479,-15.6234 6.3879,-16.812 7.0683,-17.9078 7.6642,-19.1788 8.214,-20.5428 8.7366,-21.7339 9.47,-23.0568 10.3182,-24.4514 11.2287,-25.8849 12.1755,-27.1138 12.9163,-28.0058 13.5427,-28.9403 14.3326,-29.8977 15.2115,-30.6421 15.9131,-31.2727 16.5204,-32.0649 17.3,-32.7193 18.1732,-33.301 19.0974,-34.0666 20.0494,-34.9323 21.0164,-35.8546 21.9916,-36.8056 22.9713,-37.5463 23.9534,-38.175 24.9391,-38.7427 25.9245,-39.275 26.9097,-40.0137 27.8948,-40.6413 28.8798,-41.2061 29.8649,-41.7369 30.8499,-42.2513 31.8349,-42.7569 32.8199,-43.0319 33.8049,-43.405 35.0156,-43.8313 36.1257,-44.289 36.953,-44.7637 37.8522,-45.0219 39.0163,-45.3859 40.3221,-46.033 41.4817,-46.6107 42.5616,-46.925 43.8217,-47.3195 45.1821,-47.7575 46.3713,-48.2215 47.4674,-48.6996 48.7385,-49.1854 50.1049,-49.8989 51.5231,-50.5104 53.1929,-51.0688 54.7739,-51.8218 56.3066,-52.4548 58.0387,-53.0249 59.6558,-53.7842 60.9869,-54.4207 62.1603,-54.7669 63.4711,-55.181 64.8591,-55.8554 66.0634,-56.4458 67.3911,-56.9926 68.7882,-57.5158 69.9974,-58.0239 71.1044,-58.5237 72.1558,-58.7956 73.4026,-59.1693 74.7557,-59.8217 75.941,-60.4 77.0349,-60.7147 78.3026,-61.1115 79.6672,-61.7789 80.8586,-62.3676 81.9559,-62.9113 83.2277,-63.4306 84.5922,-63.9388 86.0094,-64.4409 87.2317,-64.9375 88.3459,-65.4311 89.6245,-65.6997 90.9928,-65.8457 92.6354,-66.1509 94.2038,-66.5427 95.732,-66.7558 97.2359,-66.8717 98.5032,-66.9348 99.644,-66.9691 100.9395,-67.2112 102.3168,-67.5663 103.5153,-67.7595 104.6164,-67.8646 105.888,-68.1475 107.2546,-68.5271 108.4472,-68.7336 109.5452,-68.846 110.8173,-69.1305 112.1843,-69.5088 113.377,-69.7145 114.4751,-69.8265 115.7473,-69.8874 117.112,-69.9205 118.3035,-69.9385 119.4009,-70.174 120.6704,-70.5279 122.036,-70.7204 123.2302,-70.8251 124.3291,-70.882 125.5995,-70.913 126.9654,-70.9299 128.1577,-70.9391 129.2554,-70.944 130.5275,-70.9468 131.8921,-71.1717 133.0836,-71.5175 134.1809,-71.7056 135.4527,-71.8079 136.8195,-71.8636 138.0122,-71.8939 139.1101,-71.9103 140.38,-71.9193 141.7457,-71.9242 142.9378,-71.9268 144.2589,-71.9283 145.8759,-71.9291 147.4305,-71.9295 148.7276,-71.9297 150.1081,-71.7064 151.8127,-71.2165 L152.74,-70.95 " stroke-linecap="round" fill="none" stroke="#ffc034" stroke-width="5.912369178699365" stroke-dasharray="none" stroke-dashoffset="0"/></g></g><g transform="matrix(1, 0, 0, 1, 1591.078, 6255.4419) scale(0.9853948631165608, 0.9853948631165608)" opacity="1"><g transform="scale(1.0148216085044799)"><path d="M0,0 Q0,2.2481 0,3.3087 T0,5.1698 0.2257,6.8548 0.7977,8.6698 1.7814,10.332 2.9914,11.462 4.0989,12.0767 5.3739,12.1853 6.7424,11.7953 7.936,11.134 9.0345,10.0993 10.0813,8.6381 10.8741,7.1707 11.3054,5.6998 11.5401,4.2247 11.4443,3.1966 11.1687,2.863 11.2423,3.1307 11.7314,3.9489 12.449,5.0689 13.2885,6.1273 14.1943,7.3757 15.1363,8.9531 16.0979,10.7119 17.0701,12.5692 17.8225,14.7014 18.4575,16.983 19.0286,19.3483 19.3393,21.9847 19.5084,24.3173 19.1511,26.708 18.2819,29.356 17.3599,31.4714 16.1858,33.0713 14.6464,34.3908 12.9084,35.5601 10.8412,36.4219 8.3691,36.665 5.6768,36.3458 3.0882,35.723 0.5559,34.7116 -1.9434,33.2631 -3.9779,31.5767 -5.8704,29.6358 L-6.9,28.58 " stroke-linecap="round" fill="none" stroke="#ffc034" stroke-width="5.912369178699365" stroke-dasharray="none" stroke-dashoffset="0"/></g></g><g transform="matrix(1, 0, 0, 1, 1626.5522, 6255.4419) scale(0.9853948631165608, 0.9853948631165608)" opacity="1"><g transform="scale(1.0148216085044799)"><path d="M0,0.99 Q3.5933,1.4369 4.7964,1.335 T7.1031,0.952 9.5234,0.3354 L10.84,0 " stroke-linecap="round" fill="none" stroke="#ffc034" stroke-width="5.912369178699365" stroke-dasharray="none" stroke-dashoffset="0"/></g></g><g transform="matrix(1, 0, 0, 1, 1625.5668, 6267.2666) scale(0.9853948631165608, 0.9853948631165608)" opacity="1"><g transform="scale(1.0148216085044799)"><path d="M0,0 Q2.695,0 4.1029,-0.2257 T6.5001,-0.7977 8.4768,-1.558 10.6421,-2.466 L11.82,-2.96 " stroke-linecap="round" fill="none" stroke="#ffc034" stroke-width="5.912369178699365" stroke-dasharray="none" stroke-dashoffset="0"/></g></g><g transform="matrix(1, 0, 0, 1, 1665.968, 6243.6171) scale(0.9853948631165608, 0.9853948631165608)" opacity="1"><g transform="scale(1.0148216085044799)"><path d="M0,0 Q-0.4514,-4.0447 -0.7977,-5.1449 T-1.558,-6.6178 -2.4207,-6.7442 -3.3392,-6.1404 -4.0646,-5.1393 -4.6827,-3.6964 -5.2423,-2.0108 -5.5468,-0.1933 -5.7124,1.9172 -5.8025,4.1871 -5.8515,6.0968 -5.6548,7.8105 -5.3243,9.6411 -4.9188,11.3119 -4.249,12.8956 -3.4355,14.6555 -2.7672,16.5112 -2.1803,18.1933 -1.6375,19.7809 -1.3422,21.7687 -1.1816,23.7506 -1.3177,25.5036 -1.6151,27.3556 -2.0027,28.8123 -2.6627,30.0538 -3.6943,31.4018 -4.9304,32.3586 -6.052,32.8791 -7.3347,33.1622 -8.7074,33.3162 -9.9033,33.1766 -11.003,32.6515 -12.2762,32.1401 -13.4179,31.6384 -14.4882,30.693 -15.9531,29.3245 L-16.75,28.58 " stroke-linecap="round" fill="none" stroke="#ffc034" stroke-width="5.912369178699365" stroke-dasharray="none" stroke-dashoffset="0"/></g></g><g transform="matrix(1, 0, 0, 1, 1665.968, 6259.3834) scale(0.9853948631165608, 0.9853948631165608)" opacity="1"><g transform="scale(1.0148216085044799)"><path d="M0,0 L-6.9,1.97 " stroke-linecap="round" fill="none" stroke="#ffc034" stroke-width="5.912369178699365" stroke-dasharray="none" stroke-dashoffset="0"/></g></g><g transform="matrix(1, 0, 0, 1, 1682.7197, 6238.6901) scale(0.9853948631165608, 0.9853948631165608)" opacity="1"><g transform="scale(1.0148216085044799)"><path d="M0,0 Q-0.4514,3.1464 -0.7977,4.2257 T-1.3323,6.3412 -1.8488,8.1669 -2.5789,10.0607 -3.1996,12.215 -3.7629,14.9578 -4.2951,17.7974 -4.5846,20.017 -4.5164,22.572 -4.0301,25.5351 -3.093,28.0453 -1.9083,29.8601 -0.8124,31.2964 0.6821,32.3013 2.7921,33.0776 L3.94,33.5 " stroke-linecap="round" fill="none" stroke="#ffc034" stroke-width="5.912369178699365" stroke-dasharray="none" stroke-dashoffset="0"/></g></g><g transform="matrix(1, 0, 0, 1, 1703.413, 6251.5003) scale(0.9853948631165608, 0.9853948631165608)" opacity="1"><g transform="scale(1.0148216085044799)"><path d="M0,0 Q-1.7966,2.695 -2.511,3.6537 T-4.2867,5.5832 -6.151,7.5311 -8.2892,9.7149 -11.2172,12.3607 L-12.81,13.8 " stroke-linecap="round" fill="none" stroke="#ffc034" stroke-width="5.912369178699365" stroke-dasharray="none" stroke-dashoffset="0"/></g></g><g transform="matrix(1, 0, 0, 1, 1690.6029, 6253.4711) scale(0.9853948631165608, 0.9853948631165608)" opacity="1"><g transform="scale(1.0148216085044799)"><path d="M0,0 Q2.2481,2.2481 3.3087,3.083 T5.3955,4.8213 7.429,6.4418 9.2079,7.9982 10.8997,9.8387 L11.82,10.84 " stroke-linecap="round" fill="none" stroke="#ffc034" stroke-width="5.912369178699365" stroke-dasharray="none" stroke-dashoffset="0"/></g></g><g transform="matrix(1, 0, 0, 1, 1705.3838, 6234.7486) scale(0.9853948631165608, 0.9853948631165608)" opacity="1"><g transform="scale(1.0148216085044799)"><path d="M0,0 Q2.2481,2.2481 3.083,3.3087 T4.5978,5.3955 5.6476,7.6525 6.4421,10.0043 7.0978,13.0826 7.6802,16.7773 8.2228,20.5839 8.0687,24.9027 7.0866,28.8253 5.8775,32.0833 4.5448,34.754 2.8772,37.1348 L1.97,38.43 " stroke-linecap="round" fill="none" stroke="#ffc034" stroke-width="5.912369178699365" stroke-dasharray="none" stroke-dashoffset="0"/></g></g></svg>