<svg xmlns="http://www.w3.org/2000/svg" direction="ltr" width="697.1" height="549.5300000000007" viewBox="911.0230812624217 9329.630162041478 697.1 549.5300000000007" stroke-linecap="round" stroke-linejoin="round" style="background-color: transparent;"><defs/><g transform="matrix(1, 0, 0, 1, 1161.6466, 9361.6302) scale(0.9109313594180959, 0.9109313594180959)" opacity="1"><g transform="scale(1.0977775544348383)"><path d="M1.4596,0 T1.4556,1.0761 1.4471,3.5656 1.4333,6.5092 1.4142,9.4286 1.4103,12.1864 1.4213,14.9247 1.4321,17.6602 1.4395,20.391 1.4457,23.1247 1.4551,25.8595 1.4666,28.9195 1.4773,32.0886 1.4851,34.9469 1.493,37.6976 1.5038,40.4306 1.517,43.1646 1.8469,46.0775 2.2828,48.954 2.4347,51.916 2.4847,55.169 2.4952,58.3382 2.8931,61.4566 3.3581,64.8815 3.4405,68.5583 3.4626,71.7138 3.7824,74.4993 4.2277,77.513 4.3786,80.4688 4.4026,83.2391 4.4097,85.9794 4.4137,88.7109 4.4169,91.4434 4.4195,94.1781 4.4216,96.9107 4.4217,99.641 4.4193,102.3754 4.1215,105.4674 3.6817,108.6838 3.5223,111.5199 3.5032,114.2246 3.4976,116.9516 3.2371,120.1524 2.8042,123.8942 2.2641,127.3004 1.8067,130.4153 1.6829,133.8067 1.3065,137.1655 0.8573,140.6709 0.7386,143.9495 0.7206,146.6663 0.719,149.8741 0.7212,153.0469 1.1168,156.1508 1.5683,159.3382 1.6436,162.6077 1.6689,166.2923 1.6774,169.4679 1.6818,172.1786 1.6858,175.381 1.6891,178.5732 1.6938,181.2861 1.7007,184.2278 1.4603,187.4597 1.0748,190.6566 0.8884,193.6224 0.8303,196.7627 0.4785,200.0563 0.0573,203.2606 -0.0501,206.3327 -0.0808,209.7075 -0.0886,213.3901 -0.0903,216.6123 -0.0903,219.6976 -0.09,223.0737 -0.0895,226.6428 -0.0916,229.9528 -0.4294,232.9678 -0.8476,235.882 -0.9574,238.6581 -0.9936,241.6125 -1.0067,244.733 -1.0125,247.9046 -1.0159,250.9758 -1.0193,253.9224 -1.3632,256.9776 -1.8004,260.5251 -1.9094,263.8779 -1.9271,266.7089 -1.9325,269.584 -1.9332,272.3553 -1.9332,275.5752 -1.9331,279.2492 -1.9304,282.4238 -1.9266,285.1303 -1.923,288.3357 -1.6041,291.8422 -1.1785,294.967 -1.0407,298.0452 -1.0021,301.2033 -0.9889,304.3777 -0.9828,307.7792 -0.9767,311.0277 -0.9691,314.2328 -0.9593,317.7556 -0.9483,321.3643 -0.9396,324.9979 -0.9334,328.3111 -0.9301,331.3178 -0.9303,334.4556 -0.9319,337.8463 -0.9348,341.0897 -0.9401,344.2933 -0.9456,347.4871 -0.9516,350.6758 -0.9568,354.1928 -0.9592,357.8022 -0.9611,361.2198 -0.9625,364.4717 -0.9636,367.5655 -0.9644,370.5112 -0.968,373.6321 -0.9738,376.8029 -0.9755,379.9852 -0.9741,383.1695 -0.973,386.1427 -0.9733,388.9438 -0.9764,391.9088 -0.979,395.2515 -0.9781,398.8126 -0.9761,402.102 -0.9719,405.1044 -0.9651,408.5127 -0.6446,411.9793 -0.2244,414.9777 -0.0936,417.7816 -0.0572,420.5302 -0.0433,423.7664 -0.0354,427.4624 -0.0309,430.6205 -0.0291,433.3071 -0.0275,436.1421 -0.0234,439.2311 -0.0197,442.2854 -0.3563,445.374 -0.7869,448.7786 -0.8922,451.8729 -1.1743,454.8669 -1.5688,457.8718 -1.7396,460.5968 -1.8007,463.8457 -1.8162,467.3288 -1.8135,470.9486 -1.8088,474.3085 -1.8081,477.0231 -1.8114,479.7488 -1.8398,482.48 -1.8875,484.6885 -1.909,485.53 A1.731,1.731 0 0 1 -5.371,485.53 T-5.4138,483.9333 -5.4634,480.9721 -5.471,478.2443 -5.4714,475.5224 -5.4679,472.2423 -5.4603,468.607 -5.447,465.0247 -5.4115,461.7284 -5.2833,458.7304 -4.8583,455.1706 -4.5205,451.8089 -4.4527,449.0413 -4.2008,446.297 -3.8118,443.5522 -3.6189,440.6614 -3.6154,437.7422 -3.6126,434.7393 -3.6094,431.8147 -3.6058,428.6444 -3.6023,424.9758 -3.6031,421.7731 -3.6322,418.484 -3.7924,414.8514 -4.2121,411.7774 -4.4949,408.5127 -4.4881,405.1044 -4.4839,402.102 -4.4819,398.8126 -4.481,395.2515 -4.4836,391.9088 -4.4867,388.9438 -4.487,386.1427 -4.4859,383.1695 -4.4845,379.9852 -4.4862,376.8029 -4.492,373.6321 -4.4956,370.5112 -4.4964,367.5655 -4.4975,364.4717 -4.4989,361.2198 -4.5008,357.8022 -4.5032,354.1928 -4.5084,350.6758 -4.5144,347.4871 -4.5199,344.2933 -4.5252,341.0897 -4.5281,337.8463 -4.5297,334.4556 -4.5299,331.3178 -4.5266,328.3111 -4.5204,324.9979 -4.5117,321.3643 -4.5007,317.7556 -4.491,314.2329 -4.4838,311.0282 -4.4791,307.781 -4.478,304.3854 -4.4828,301.228 -4.509,298.1535 -4.6947,294.8815 -5.109,291.6667 -5.357,288.3357 -5.3534,285.1303 -5.3496,282.4238 -5.3468,279.2492 -5.3465,275.5749 -5.3458,272.3541 -5.3438,269.5797 -5.3398,266.6951 -5.3233,263.83 -5.2602,261.0301 -4.8244,257.5035 -4.4406,253.9057 -4.4436,250.9753 -4.4456,247.9024 -4.4464,244.7263 -4.4415,241.5833 -4.4129,238.5507 -4.2894,235.5453 -3.8679,232.6848 -3.5484,229.9233 -3.5504,226.6427 -3.5499,223.0735 -3.5491,219.697 -3.5478,216.6102 -3.5444,213.3847 -3.534,209.6842 -3.4992,206.2507 -3.3707,202.9503 -2.9391,198.9077 -2.5813,195.0173 -2.4535,191.7317 -2.0288,188.6005 -1.7024,185.6229 -1.6975,182.7897 -1.6918,180.0664 -1.688,177.3735 -1.6845,174.1794 -1.6805,170.9618 -1.6768,168.2746 -1.6753,165.1232 -1.7014,161.475 -1.8674,157.8702 -2.276,154.6487 -2.5403,151.8687 -2.5316,148.6637 -2.5208,145.4194 -2.4892,142.6439 -2.3641,139.7595 -1.9369,136.8914 -1.5863,133.7046 -1.4589,130.094 -0.9828,126.1163 -0.4054,122.4603 -0.0274,119.6449 0.1433,116.9501 0.143,114.2144 0.1601,111.4496 0.3069,108.5173 0.7402,105.3622 1.0407,102.3754 1.0383,99.641 1.0384,96.9107 1.0405,94.1781 1.0431,91.4435 1.0461,88.7111 1.0494,85.9809 1.0512,83.2493 1.039,80.5377 0.8692,77.5682 0.4407,74.4952 0.1738,71.7176 0.1772,68.5815 0.1292,65.0433 -0.2965,61.6582 -0.6769,58.3998 -0.6764,55.1853 -0.6951,52.0006 -0.8746,48.8402 -1.2784,45.8938 -1.517,43.1646 -1.5038,40.4306 -1.493,37.6976 -1.4851,34.9469 -1.4773,32.0886 -1.4666,28.9195 -1.4551,25.8595 -1.4457,23.1247 -1.4395,20.391 -1.4321,17.6602 -1.4213,14.9247 -1.4103,12.1864 -1.4142,9.4286 -1.4333,6.5092 -1.4471,3.5656 -1.4556,1.0761 -1.4596,0 A1.4596,1.4596 0 0 1 1.4596,0 Z" stroke-linecap="round" fill="#9398b0"/></g></g><g transform="matrix(1, 0, 0, 1, 943.0231, 9679.5452) scale(0.9109313594180959, 0.9109313594180959)" opacity="1"><g transform="scale(1.0977775544348383)"><path d="M0,-1.4931 T1.0761,-1.4742 3.5656,-1.4373 6.4826,-1.4016 9.3127,-1.7674 12.4759,-2.2245 15.7138,-2.6998 18.5201,-3.1765 21.2949,-3.2717 24.0345,-3.3064 26.7701,-3.3303 29.501,-3.3499 32.2335,-3.3678 34.9681,-3.3801 37.9159,-3.3894 41.6124,-3.4016 45.1453,-3.4139 47.9416,-3.4248 51.2158,-3.2004 54.7583,-2.8265 58.1777,-2.6451 61.7596,-2.5983 65.8878,-2.357 69.7981,-1.9678 73.6669,-1.7705 77.8973,-1.721 81.4963,-1.7116 85.1279,-1.7128 88.7652,-1.7162 92.4081,-1.7194 96.2678,-1.7223 99.8577,-1.7245 103.7026,-1.7262 107.7294,-1.7277 111.2652,-1.7303 114.4495,-1.7351 117.6343,-1.7403 120.7082,-1.7444 123.8659,-1.7477 127.158,-1.7506 130.3764,-1.7528 133.6761,-1.7546 137.1081,-1.7561 140.8074,-1.7574 144.3657,-1.7584 147.6413,-1.757 150.8611,-2.0806 154.0663,-2.5024 157.4668,-2.6249 161.1632,-2.6583 164.8218,-2.6707 168.5714,-2.6793 172.2454,-2.6848 175.6809,-2.6884 178.9378,-2.6911 181.9312,-2.693 185.0642,-2.6962 188.1237,-2.7014 191.164,-2.7069 194.6387,-2.712 198.02,-2.716 201.1497,-2.7188 204.8719,-2.7206 208.7678,-2.3865 212.0536,-1.968 215.419,-1.8557 219.339,-1.8234 223.2985,-1.8192 226.5519,-1.819 229.3749,-1.5392 232.6624,-1.1187 235.8687,-0.9563 239.1283,-0.9315 242.6651,-0.932 245.9008,-0.9396 249.1036,-0.9462 252.4082,-0.9509 255.6264,-0.9546 258.8243,-0.9576 262.2317,-0.9602 265.5918,-0.9622 269.2298,-0.73 272.9763,-0.3428 276.5777,-0.142 280.3226,-0.0823 283.9914,-0.0656 287.6428,-0.0644 291.2896,-0.0689 295.1491,-0.0734 299.1823,-0.0772 303.0461,-0.08 306.6373,-0.082 310.0521,-0.0835 313.6332,-0.0848 317.3622,-0.0858 321.1416,-0.0866 324.9361,-0.0872 328.6226,-0.0877 332.1634,-0.0899 335.7794,-0.095 339.745,-0.1006 343.4754,-0.1077 347.0035,0.1441 350.4768,0.5273 353.885,0.6985 357.3901,0.7542 361.1068,0.7642 365.3137,0.7595 369.3303,0.7539 373.0773,0.7495 377.0793,0.7457 381.1497,0.7427 384.6964,0.7406 388.4275,0.739 392.9689,0.7351 397.2933,0.7288 401.238,0.723 405.5101,0.7182 410.2017,0.7143 414.9081,0.7155 419.5052,0.7204 424.0679,0.7243 428.5327,0.4026 433.0664,-0.0155 437.2735,-0.1352 441.4032,-0.167 445.8325,-0.1754 449.8052,-0.1774 453.9832,-0.1777 458.3202,-0.1775 461.9409,-0.1803 465.7944,-0.1862 469.9331,-0.1907 474.0644,-0.5186 478.4957,-0.944 482.5624,-1.0737 486.5905,-1.3183 490.1738,-1.6637 492.9355,-1.8632 496.2792,-1.9858 500.5528,-2.0589 504.9245,-2.0876 509.2114,-2.1043 513.6922,-2.1188 518.2242,-2.1327 522.9881,-2.1473 527.8762,-1.935 532.4108,-1.5634 536.5766,-1.3733 540.0255,-1.0988 542.8554,-0.7661 546.8291,-0.5798 550.8514,-0.2448 554.706,0.1663 559.2112,0.3788 562.9436,0.6595 566.6189,1.0569 571.198,1.2659 575.0592,1.3178 577.9182,1.5562 581.7088,1.9432 586.5686,2.1395 591.5318,2.1845 596.5297,2.1795 600.5086,2.1617 604.2441,2.1402 609.2702,2.1099 614.0694,2.078 618.1547,2.0522 621.9072,2.3815 625.0605,2.8065 627.9993,3.344 631.3858,3.9689 633.159,4.1414 A2.2394,2.2394 0 0 1 633.041,8.6186 T631.0007,8.6475 627.4962,8.2915 624.4785,7.807 621.4871,7.383 618.1396,7.0477 614.0693,7.0219 609.2697,6.9895 604.2425,6.9578 600.5051,6.9339 596.5184,6.9071 591.4933,6.8672 587.7569,6.8239 583.769,6.6954 578.7405,6.2508 575.0091,5.9032 571.046,5.8365 566.1546,5.5834 562.5633,5.1699 559.0726,4.8973 555.3861,4.7681 551.5823,4.34 546.606,3.8837 541.2228,3.431 536.4422,3.0231 531.9668,2.7707 527.5295,2.3655 522.9881,2.1474 518.2245,2.133 513.6931,2.1198 509.2149,2.108 504.9352,2.1008 500.6038,2.1067 496.4159,2.1579 491.996,2.3514 486.964,2.7328 482.6306,2.9834 478.7322,3.087 474.26,3.5014 469.9408,3.8307 465.7944,3.8262 461.9409,3.8204 458.3203,3.8177 453.9837,3.8182 449.8066,3.8193 445.8376,3.8223 441.4297,3.8319 437.3481,3.8649 433.3055,3.9785 428.7275,4.4002 424.0757,4.7357 419.5052,4.7396 414.9081,4.7445 410.2017,4.7457 406.4507,4.7427 403.1901,4.7394 399.1719,4.7341 394.9536,4.7268 390.8362,4.7219 386.7154,4.7203 382.907,4.7184 379.0402,4.7158 374.9917,4.7123 371.0774,4.7076 367.2377,4.7013 363.2915,4.691 359.3781,4.6737 355.5287,4.6345 351.5196,4.5028 347.3657,4.0759 343.4754,3.7477 339.745,3.7406 335.7794,3.735 332.1634,3.7299 328.6226,3.7277 324.9361,3.7272 321.1416,3.7266 317.3622,3.7258 313.6332,3.7248 310.0521,3.7235 306.6373,3.722 303.0461,3.72 299.1822,3.7171 295.1488,3.7131 291.2887,3.7079 287.6395,3.7007 283.9794,3.6925 280.2805,3.6751 276.4388,3.6118 272.499,3.37 268.8588,2.9805 265.5918,2.7822 262.2317,2.7802 258.8243,2.7776 255.6264,2.7746 252.4081,2.7708 249.1033,2.7659 245.1785,2.7564 241.342,2.743 237.861,2.716 234.4075,2.6441 230.9697,2.2012 227.7326,1.8143 224.5327,1.8181 221.2149,1.8161 217.9109,1.8059 214.7157,1.7704 211.7337,1.6451 208.5166,1.2237 204.8569,0.9006 201.1497,0.8988 198.02,0.896 194.6387,0.892 191.164,0.8869 188.1237,0.8815 185.0642,0.8762 181.9312,0.873 178.9378,0.8711 175.681,0.8686 172.2458,0.8653 168.5731,0.8612 164.8285,0.8576 161.1859,0.8632 157.5516,0.8946 154.3326,1.0053 151.086,1.4233 147.6674,1.757 144.3657,1.7584 140.8074,1.7574 137.1081,1.7561 133.6761,1.7546 130.3764,1.7528 127.158,1.7506 123.8659,1.7477 120.7082,1.7444 117.6343,1.7403 114.4495,1.7351 111.2652,1.7303 107.7294,1.7277 103.7026,1.7262 99.8577,1.7244 96.2677,1.7223 92.4079,1.7191 88.7643,1.7152 85.1241,1.7091 81.4849,1.6984 77.863,1.6734 73.5022,1.5993 69.3127,1.3514 65.5328,0.9543 61.7208,0.7311 58.0383,0.655 54.2597,0.3938 50.8263,-0.0092 47.9416,-0.2152 45.1453,-0.2261 41.6124,-0.2384 37.9159,-0.2506 34.9681,-0.2599 32.2335,-0.2722 29.5011,-0.29 26.7708,-0.3093 24.0393,-0.3303 21.3278,-0.3457 18.4758,-0.2781 15.6645,0.155 12.6783,0.5572 9.5446,0.9906 6.5358,1.4016 3.5656,1.4373 1.0761,1.4742 0,1.4931 A1.4931,1.4931 0 0 1 0,-1.4931 Z" stroke-linecap="round" fill="#9398b0"/></g></g><g transform="matrix(1, 0, 0, 1, 1240.8976, 9675.9015) scale(0.9109313594180959, 0.9109313594180959)" opacity="1"><g transform="scale(1.0977775544348383)"><path d="M1.7642,0 T1.7641,1.0761 1.7666,3.7808 1.7701,7.1762 1.77,10.3915 1.7693,11.84 A1.7693,1.7693 0 0 1 -1.7693,11.84 T-1.77,10.3915 -1.7701,7.1762 -1.7666,3.7808 -1.7641,1.0761 -1.7642,0 A1.7642,1.7642 0 0 1 1.7642,0 ZM-1.7693,11.84 T-1.7699,11.2688 -1.7703,9.0327 -1.7694,6.0104 -1.7584,3.2521 -1.4563,1.0553 -1.1644,0.2594 A1.7643,1.7643 0 0 1 2.0253,1.7682 T1.8867,1.8822 1.7584,3.3245 1.7694,6.0104 1.7703,9.0327 1.7699,11.2688 1.7693,11.84 A1.7693,1.7693 0 0 1 -1.7693,11.84 ZM0.0572,-0.7105 T0.1705,-0.7353 0.2839,-0.76 A1.7647,1.7647 0 0 1 1.0306,2.6894 T0.9172,2.7138 0.8037,2.7381 A1.7643,1.7643 0 0 1 0.0572,-0.7105 ZM2.4086,0.7485 T2.4926,1.545 2.5988,2.9405 2.621,3.5396 A1.714,1.714 0 0 1 -0.801,3.7404 T-0.849,3.1428 -0.9955,1.8631 -1.0941,1.1809 A1.7647,1.7647 0 0 1 2.4086,0.7485 Z" stroke-linecap="round" fill="#9398b0"/></g></g><g transform="matrix(1, 0, 0, 1, 1079.6628, 9674.0796) scale(0.9109313594180959, 0.9109313594180959)" opacity="1"><g transform="scale(1.0977775544348383)"><path d="M1.6491,0 T1.6487,1.0761 1.6476,3.8942 1.2406,7.2942 0.8342,8.9522 A1.6463,1.6463 0 0 1 -2.1487,7.5581 T-1.8979,6.5972 -1.6476,3.8942 -1.6487,1.0761 -1.6491,0 A1.6491,1.6491 0 0 1 1.6491,0 ZM-1.0085,9.8636 T-1.0682,9.8504 -1.128,9.8372 A1.646,1.646 0 0 1 -0.4256,6.621 T-0.3658,6.6339 -0.306,6.6468 A1.6463,1.6463 0 0 1 -1.0085,9.8636 ZM-2.4167,8.3714 T-2.4657,7.7869 -2.5313,5.4657 -2.5521,1.8649 -2.5564,0.0009 A1.6464,1.6464 0 0 1 0.7364,-0.0009 T0.735,1.8593 0.7511,5.379 0.8158,7.5626 0.863,8.0868 A1.646,1.646 0 0 1 -2.4167,8.3714 Z" stroke-linecap="round" fill="#9398b0"/></g></g><g transform="matrix(1, 0, 0, 1, 1000.4118, 9674.9905) scale(0.9109313594180959, 0.9109313594180959)" opacity="1"><g transform="scale(1.0977775544348383)"><path d="M1.6288,0 T1.6153,1.0761 1.5896,3.5656 1.5733,6.5092 1.5695,9.4286 1.5702,11.3289 1.5705,11.84 A1.5705,1.5705 0 0 1 -1.5705,11.84 T-1.5702,11.3289 -1.5695,9.4286 -1.5733,6.5092 -1.5896,3.5656 -1.6153,1.0761 -1.6288,0 A1.6288,1.6288 0 0 1 1.6288,0 ZM-1.5705,11.84 T-1.5719,11.2882 -1.5799,9.1698 -1.5958,6.1452 -1.6166,2.9196 -1.6363,-0.789 -1.6447,-2.73 A1.6447,1.6447 0 0 1 1.6447,-2.73 T1.6363,-0.789 1.6166,2.9196 1.5958,6.1452 1.5799,9.1698 1.5719,11.2882 1.5705,11.84 A1.5705,1.5705 0 0 1 -1.5705,11.84 ZM1.6447,-2.73 T1.6465,-2.1673 1.3903,0.4644 0.9513,3.8922 0.6706,6.3167 0.571,7.3824 A1.4838,1.4838 0 0 1 -2.391,7.1976 T-2.3574,6.1278 -2.1585,3.3224 -1.8208,-0.009 -1.6465,-2.1673 -1.6447,-2.73 A1.6447,1.6447 0 0 1 1.6447,-2.73 Z" stroke-linecap="round" fill="#9398b0"/></g></g><g transform="matrix(1, 0, 0, 1, 1321.0596, 9675.9015) scale(0.9109313594180959, 0.9109313594180959)" opacity="1"><g transform="scale(1.0977775544348383)"><path d="M1.6302,0 T1.6372,1.0761 1.6529,3.996 1.6671,7.5647 1.6785,10.9733 1.4557,13.8531 1.2273,15.049 A1.6938,1.6938 0 0 1 -2.0881,14.3534 T-1.8862,13.4979 -1.6785,10.9659 -1.6671,7.5647 -1.6529,3.996 -1.6372,1.0761 -1.6302,0 A1.6302,1.6302 0 0 1 1.6302,0 ZM-2.0559,15.1773 T-2.2478,14.4914 -2.4935,11.8082 -2.5366,7.8098 -2.5234,4.4819 -2.5219,1.5779 -2.5228,0.0006 A1.6128,1.6128 0 0 1 0.7028,-0.0006 T0.702,1.0453 0.709,3.9458 0.7415,7.7854 0.8262,11.5013 1.0405,13.7286 1.1951,14.225 A1.6938,1.6938 0 0 1 -2.0559,15.1773 ZM0.7028,0 T0.7041,0.5549 0.7088,2.4563 0.713,5.2694 1.027,8.2469 1.4219,11.6574 1.5038,13.5569 A1.5073,1.5073 0 0 1 -1.5038,13.7631 T-1.6746,11.9759 -2.1897,8.4783 -2.533,5.2854 -2.5287,2.4563 -2.5241,0.5549 -2.5228,0 A1.6128,1.6128 0 0 1 0.7028,0 Z" stroke-linecap="round" fill="#9398b0"/></g></g><g transform="matrix(1, 0, 0, 1, 999.5008, 9599.3832) scale(0.9109313594180959, 0.9109313594180959)" opacity="1"><g transform="scale(1.0977775544348383)"><path d="M0,-1.8827 T1.0761,-1.8703 3.5656,-1.8457 6.5092,-1.8269 9.8121,-1.5203 13.0607,-1.0891 15.8758,-0.9492 18.5763,-0.9434 21.3019,-0.9546 24.0355,-0.9724 26.7703,-0.993 29.501,-1.0134 32.5114,-1.314 35.6825,-1.7691 38.5896,-1.9563 41.3381,-1.9901 44.0774,-2.1458 47.1894,-2.574 50.3611,-2.892 53.1713,-2.9337 55.9176,-2.9405 58.6506,-2.9403 61.4115,-3.0568 64.5317,-3.4691 67.681,-3.795 70.4794,-3.8283 73.4928,-4.1048 76.665,-4.5348 79.796,-4.6998 82.1388,-4.7046 82.8828,-4.701 A1.971,1.971 0 0 1 82.8972,-0.759 T81.051,-0.736 77.7792,-0.7187 74.5631,-0.2668 71.4096,0.1954 68.7131,0.2169 65.9495,0.3633 62.7229,0.8063 59.5611,1.1202 56.8311,1.1215 54.1007,1.1233 51.3971,1.1369 48.5263,1.29 44.8511,1.7163 41.3503,1.9963 38.2719,2.0108 35.2411,2.3818 32.3983,2.7875 29.501,2.8334 26.7703,2.813 24.0352,2.7922 21.3002,2.7737 18.565,2.7572 15.7996,2.7268 12.8489,2.5652 9.6667,2.1234 6.5092,1.8269 3.5656,1.8457 1.0761,1.8703 0,1.8827 A1.8827,1.8827 0 0 1 0,-1.8827 Z" stroke-linecap="round" fill="#e03131"/></g></g><g transform="matrix(1, 0, 0, 1, 1082.3956, 9680.4561) scale(0.9109313594180959, 0.9109313594180959)" opacity="1"><g transform="scale(1.0977775544348383)"><path d="M0,-1.8532 T1.0761,-1.8367 3.5656,-1.8061 6.5092,-1.7865 9.7573,-1.7843 12.8103,-1.7939 15.5036,-1.8105 18.2246,-1.8332 20.9522,-1.8583 23.6851,-1.8842 26.4195,-1.9081 29.3659,-1.9321 32.4883,-1.9583 35.6595,-1.9855 39.2392,-2.0159 42.5362,-2.0413 45.244,-2.058 48.6263,-2.0782 52.1971,-2.0999 55.3794,-2.1206 58.6784,-2.1448 61.6822,-2.1663 64.3784,-2.182 67.5423,-2.1959 71.4533,-2.5284 75.3533,-2.979 78.9773,-3.126 82.6327,-3.1544 86.279,-3.1656 89.5315,-3.1747 92.7307,-3.1835 96.2506,-3.1914 99.4847,-3.1971 102.7409,-3.1998 106.2692,-3.2013 109.8355,-3.1983 113.6017,-2.8784 116.935,-2.4519 119.6815,-2.3093 122.4166,-2.2718 125.3656,-2.2628 128.5161,-2.256 131.9581,-1.9324 135.2238,-1.4949 137.9476,-1.3613 140.6415,-1.3414 143.3705,-1.3383 146.101,-1.339 148.8311,-1.3399 152.169,-1.3365 154.9559,-1.3274 155.77,-1.3221 A2.2321,2.2321 0 0 1 155.77,3.1421 T153.6556,3.1526 149.9587,3.1614 147.0109,3.1593 144.2797,3.158 141.5417,3.1562 138.786,3.1488 135.9115,3.0761 133.1474,2.6206 130.4933,2.243 127.3583,2.2581 124.2326,2.2622 121.4583,2.2562 118.4803,2.1916 115.2523,1.7429 112.035,1.3645 108.6691,1.3799 105.1735,1.382 101.7499,1.3794 98.4343,1.3754 95.1562,1.3692 91.7485,1.3611 88.5416,1.3517 85.2311,1.344 81.602,1.3408 78.069,1.363 74.6783,1.5295 71.1791,1.9383 67.5423,2.1959 64.3784,2.182 61.6822,2.1663 58.6784,2.1448 55.3794,2.1206 52.1971,2.0999 48.6263,2.0782 45.244,2.058 42.5362,2.0413 39.2392,2.0159 35.6595,1.9855 32.4883,1.9583 29.3659,1.9321 26.4195,1.9081 23.6851,1.8842 20.9522,1.8583 18.2246,1.8332 15.5036,1.8105 12.8103,1.7939 9.7573,1.7843 6.5092,1.7865 3.5656,1.8061 1.0761,1.8367 0,1.8532 A1.8532,1.8532 0 0 1 0,-1.8532 Z" stroke-linecap="round" fill="#e03131"/></g></g><g transform="matrix(1, 0, 0, 1, 1240.8976, 9601.2051) scale(0.9109313594180959, 0.9109313594180959)" opacity="1"><g transform="scale(1.0977775544348383)"><path d="M-0.4121,-2.0603 T0.6667,-2.2624 3.2652,-2.6414 6.1235,-2.8633 8.8164,-2.9202 11.5327,-2.9389 14.3757,-2.9548 17.254,-2.9726 20.0253,-2.991 23.2488,-3.0135 26.7768,-3.039 29.7938,-3.061 32.9049,-3.3964 36.5798,-3.8615 40.1482,-4.0264 43.5636,-4.0667 47.1232,-4.0909 50.752,-4.1121 54.0062,-4.1314 56.8172,-4.1479 59.9475,-4.1656 63.1287,-4.1828 65.9291,-4.1977 68.6693,-4.2097 71.4032,-4.2212 74.1381,-4.2315 77.0859,-4.2318 79.4132,-4.2219 80.16,-4.216 A2.396,2.396 0 0 1 80.16,0.576 T78.2878,0.5869 75.0495,0.5945 72.3146,0.5857 69.5802,0.574 66.8448,0.5619 64.0777,0.5482 61.1075,0.5323 57.949,0.5147 54.9611,0.4974 51.9527,0.4791 48.5328,0.4596 44.9423,0.4433 41.6584,0.4331 38.7198,0.4424 35.8697,0.606 32.7918,1.0037 29.7938,1.241 26.7768,1.219 23.2489,1.1935 20.0257,1.1713 17.2555,1.1536 14.3803,1.1385 11.5488,1.1321 8.1928,1.1661 4.3742,1.4016 1.4854,1.832 0.4121,2.0603 A2.1011,2.1011 0 0 1 -0.4121,-2.0603 Z" stroke-linecap="round" fill="#e03131"/></g></g><g transform="matrix(1, 0, 0, 1, 1082.6337, 9601.3204) scale(0.7993207264502536, 0.7993207264502536)" opacity="1"><g transform="scale(1.2510622668837248)"><path d="M-0.6118,1.5295 T-1.5566,1.1455 -3.937,-0.1562 -6.1058,-3.0198 -6.7606,-6.7559 -5.9885,-10.0575 -4.1735,-12.3551 -1.7148,-13.3352 0.9839,-12.8129 3.4053,-10.2981 4.7667,-6.8605 4.6715,-3.9506 2.8964,-1.7484 0.0234,-0.438 -2.2025,0.0327 -2.9344,0.1243 A1.7447,1.7447 0 0 1 -3.4656,-3.3243 T-2.2606,-3.5343 0.2239,-4.1597 1.3023,-6.1223 0.5172,-8.8641 -1.3206,-9.9783 -3.2017,-8.4723 -3.599,-5.3085 -2.3258,-2.9226 -0.3354,-1.9023 0.6118,-1.5295 A1.6473,1.6473 0 0 1 -0.6118,1.5295 Z" stroke-linecap="round" fill="#f2f2f2"/></g></g><g transform="matrix(1, 0, 0, 1, 1082.6337, 9682.8511) scale(0.7993207264502536, 0.7993207264502536)" opacity="1"><g transform="scale(1.2510622668837248)"><path d="M-2.1882,1.3882 T-2.9397,0.6061 -4.5218,-2.1921 -5.0088,-6.0398 -3.2514,-9.0009 -0.3222,-10.113 2.4886,-9.0193 4.5966,-6.2535 5.4108,-2.9623 4.1003,-0.0233 0.9579,1.6774 -2.6684,1.4928 -4.4646,0.9449 A1.8057,1.8057 0 0 1 -3.5354,-2.5449 T-1.8294,-2.1435 0.6589,-3.0879 -0.0389,-5.0159 -1.2276,-4.2246 -0.1739,-2.1197 0.5882,-1.3882 A1.9632,1.9632 0 0 1 -2.1882,1.3882 Z" stroke-linecap="round" fill="#f2f2f2"/></g></g><g transform="matrix(1, 0, 0, 1, 1240.0999, 9684.4497) scale(0.7993207264502536, 0.7993207264502536)" opacity="1"><g transform="scale(1.2510622668837248)"><path d="M0.7752,1.5504 T0.013,1.9205 -2.371,2.4701 -5.2952,1.4352 -6.6636,-1.9101 -6.0197,-5.5016 -4.1098,-7.8333 -1.3613,-8.8823 1.3702,-8.3513 3.3183,-6.4616 4.4491,-3.542 4.1302,-0.1968 1.9987,1.8949 -0.8642,2.4288 -2.2801,2.4772 A1.6815,1.6815 0 0 1 -2.5199,-0.8772 T-0.7634,-0.9449 0.9777,-2.3251 -0.1293,-4.7167 -2.3197,-4.6572 -2.8483,-2.1479 -1.5266,-1.1637 -0.7752,-1.5504 A1.7334,1.7334 0 0 1 0.7752,1.5504 Z" stroke-linecap="round" fill="#f2f2f2"/></g></g><g transform="matrix(1, 0, 0, 1, 1240.8992, 9603.7183) scale(0.7993207264502536, 0.7993207264502536)" opacity="1"><g transform="scale(1.2510622668837248)"><path d="M0.7024,1.4048 T-0.0901,1.7854 -2.8807,1.3984 -5.4404,-1.2336 -5.4895,-4.6514 -3.3599,-6.9058 -0.3179,-7.4817 2.2354,-5.838 3.604,-2.3539 3.0292,1.3421 1.6961,3.653 1.1783,4.2335 A1.5673,1.5673 0 0 1 -1.1783,2.1665 T-0.6703,1.5774 0.1966,-0.3956 0.1532,-3.2482 -1.6146,-4.1733 -2.5624,-2.141 -1.4235,-1.0286 -0.7024,-1.4048 A1.5706,1.5706 0 0 1 0.7024,1.4048 Z" stroke-linecap="round" fill="#f2f2f2"/></g></g><g transform="matrix(1, 0, 0, 1, 1321.6306, 9601.72) scale(0.7993207264502536, 0.7993207264502536)" opacity="1"><g transform="scale(1.2510622668837248)"><path d="M-0.6633,1.6582 T-1.6391,1.2332 -3.7797,-0.7342 -4.6563,-3.8426 -3.5861,-6.3948 -1.0674,-8.3043 2.1328,-9.1395 4.703,-7.8008 6.3671,-5.368 7.1031,-2.7526 6.7272,0.1334 5.3524,2.5848 2.3404,4.1515 -1.0341,4.8051 -2.2172,4.8903 A1.7001,1.7001 0 0 1 -2.5828,1.5097 T-0.3425,1.2454 2.8078,-0.085 3.6137,-2.5431 2.8968,-5.0529 0.9665,-5.6803 -0.76,-3.7558 -0.2529,-1.99 0.6633,-1.6582 A1.7859,1.7859 0 0 1 -0.6633,1.6582 Z" stroke-linecap="round" fill="#f2f2f2"/></g></g></svg>