<svg xmlns="http://www.w3.org/2000/svg" direction="ltr" width="593.1462242337261" height="455" viewBox="2649.112570146434 5162.772566900441 593.1462242337261 455" stroke-linecap="round" stroke-linejoin="round" style="background-color: transparent;"><defs/><g transform="matrix(1, 0, 0, 1, 2881.2232, 5194.7726)" opacity="1"><g transform="scale(1)"><path d="M0,0 Q0.456,0.456 0.58,0.808 T0.5435,1.5796 0.2957,2.4553 0.1609,3.3877 0.0875,4.3509 0.0476,5.3309 0.0259,6.548 0.0141,7.8941 0.0077,9.0824 0.0042,10.1848 0.0023,11.4685 0.0012,12.8509 0.0007,14.0589 0.0004,15.172 0.0002,16.4616 0.0001,17.8471 0.0001,19.0568 0,20.1709 0,21.461 0,22.8468 0,24.2846 0,25.7508 0,27.0045 0,28.3704 0,30.0255 0,31.6099 0,33.1558 0,34.6807 0,35.9663 0,37.3497 0,38.7862 0,40.2517 0,41.7329 0,42.9947 0,44.3651 0,45.7946 0,47.2563 0,48.9634 0,51.0321 0,53.0695 0,54.8618 0,56.5208 0,58.1073 0,59.6544 0,61.18 0,62.6939 0,64.2015 0,65.7056 0,67.2079 0,68.7091 0,70.2097 0,71.7101 0,73.2103 0,74.7104 0,76.2105 0,77.9385 0,79.5625 0,81.13 0,82.6667 0,83.9587 0,85.3455 0,87.012 0,88.6025 0,90.1518 0,91.6786 0,93.1931 0,94.9291 0,96.5574 0,98.1272 0,99.8932 0,101.5379 0,102.8886 0,104.3074 0,105.7632 0,107.2392 0,108.9541 0,110.571 0,111.9066 0,113.3172 0,114.9966 0,116.5941 0,118.1472 0,119.6761 0,121.1918 0,122.7003 0,124.205 0,125.7075 0,127.2089 0,128.7096 0,129.982 0,131.3582 0,132.7909 0,134.2542 0,135.7343 0,137.2235 0,138.9456 0,140.5664 0,142.1321 0,143.8959 0,145.7674 0,147.6974 0,149.6594 0,151.6387 0,153.6275 0,155.6213 0,157.618 0,159.6162 0,161.6152 0,163.6147 0,165.6144 0,167.6142 0,169.6141 0,171.6141 0,173.6141 0,175.6141 0,177.842 0,180.1941 0,182.3856 0,184.4898 0,186.7744 0,189.1573 0,191.3656 0,193.2509 -0.228,195.1885 -0.58,197.3825 -0.7715,199.7161 -0.8757,202.1256 -0.9324,204.3483 -0.9632,206.4695 -0.98,208.7634 -0.9891,211.1513 -0.9941,213.3623 -0.9968,215.4771 -0.9982,217.5395 -0.999,219.5735 -0.9995,221.82 -0.9997,224.1821 -0.9998,226.379 -0.9999,228.4862 -1,230.7725 -1,233.1562 -1,235.365 -1,237.4786 -1,239.5403 -1,241.5739 -1,243.5922 -1,245.6022 -1,247.6076 -1,249.8385 -1,252.1922 -1,254.6125 -1,257.0692 -1,259.5457 -1,262.0328 -1,264.2979 -1,266.67 -1,269.1005 -1,271.1067 -1,272.882 -1,274.7598 -1,276.4653 -1,278.0771 -1,279.866 -1,281.7511 -1,283.6886 -1,285.6546 -1,287.6361 -1,289.626 -1,291.6206 -1,293.3896 -1,295.0359 -1,296.8435 -1.228,298.5109 -1.58,300.1019 -1.7715,301.8794 -1.8757,303.7584 -1.9324,305.6926 -1.9632,307.6568 -1.98,309.6373 -1.9891,311.6267 -1.9941,313.6209 -1.9968,315.6178 -1.9982,317.6161 -1.999,319.6151 -1.7715,321.8426 -1.4197,324.1944 -1.2283,326.3858 -1.1242,328.7178 -1.0676,331.1265 -1.0368,333.3488 -1.02,335.6978 -1.0109,338.1156 -1.0059,340.3429 -1.0032,342.4665 -1.0018,344.5338 -1.001,346.5704 -1.0005,348.8183 -1.0003,351.1811 -1.0002,353.1505 -1.0001,355.1339 -1,357.1248 -1,358.8919 -1,360.7652 -1,362.6963 -1,364.4308 -1,366.0583 -1,367.8557 -1.228,369.7455 -1.58,371.6856 -1.7715,373.4249 -1.8757,374.8272 -1.9324,376.274 -1.9632,377.745 -1.98,379.0013 -1.9891,380.1407 -1.9941,381.2165 -1.9968,382.4858 -1.9982,383.8603 -1.999,385.064 -1.9995,386.1748 -2.2277,387.2351 -2.5799,388.4959 -2.852,390.1177 L-3,391 " stroke-linecap="round" fill="none" stroke="#9398b0" stroke-width="4.5" stroke-dasharray="none" stroke-dashoffset="0"/></g></g><g transform="matrix(1, 0, 0, 1, 2681.1126, 5485.7539)" opacity="1"><g transform="scale(1)"><path d="M0,0 Q2.28,0.456 3.1282,0.58 T4.6657,0.9995 5.9582,1.4557 7.1172,1.7039 8.2038,1.8389 9.0229,2.1404 9.6964,2.5324 10.5189,2.7456 11.4223,2.8616 12.3697,3.1527 13.3411,3.5391 14.3256,3.7493 15.3171,3.8636 16.3125,3.9258 17.31,3.9596 18.3086,3.978 19.3079,3.9881 20.5355,3.9935 21.8873,3.9965 23.0787,3.9981 24.1828,3.999 25.4674,3.9994 26.8503,3.9997 28.2866,3.9998 29.7519,3.9999 31.233,4 32.9508,4 34.7972,4.228 36.7137,4.58 38.4402,4.7715 40.0635,4.8757 41.8585,4.9324 43.747,4.9632 45.6864,4.98 47.6534,4.9891 49.6354,4.9941 51.3977,4.9968 53.0403,4.9982 54.8459,4.771 56.7402,4.4194 58.6827,4.2282 60.6514,4.1241 62.6343,4.0675 64.6251,4.0367 66.62,4.02 68.3893,4.0109 70.2638,4.0059 72.1955,3.7752 73.9304,3.4217 75.7861,3.2294 77.7076,3.1248 79.665,3.0679 81.6417,2.8089 83.6291,2.4401 85.6222,2.2394 87.6185,2.1302 89.6165,2.0708 91.6154,1.8105 93.6148,1.4409 95.6144,1.2399 97.6142,1.1305 99.6142,1.071 101.6141,0.8106 103.3861,0.441 105.262,0.2399 107.1945,0.1305 108.9298,0.071 110.7858,0.0386 112.7075,-0.207 114.6649,-0.5686 116.4137,-0.7653 117.821,-0.8723 119.4987,-0.9305 121.3233,-0.9622 122.9999,-0.9794 124.5959,-0.9888 126.1482,-0.9939 127.6766,-1.2247 129.1921,-1.5782 130.7005,-1.7706 131.9771,-1.8752 133.1275,-1.9321 134.4374,-1.9631 135.8339,-2.2079 137.0497,-2.5691 138.167,-2.7656 139.4589,-2.8725 140.8456,-2.9306 142.056,-2.9623 143.1705,-2.9795 144.4607,-2.9888 145.8466,-2.9939 147.2846,-3.2247 148.7508,-3.5782 150.2324,-3.7706 151.7224,-3.8752 153.217,-3.9321 154.9421,-3.9631 156.7925,-3.9799 158.4831,-3.9891 160.0868,-3.7661 161.8712,-3.4167 163.7539,-3.2267 165.6901,-3.1233 167.6554,-3.0671 169.6366,-3.0365 171.6263,-3.0199 173.6207,-3.0108 175.8457,-3.0059 178.196,-3.0032 180.1586,-3.0017 182.1383,-3.2289 184.3552,-3.5805 186.4732,-3.7718 188.5374,-3.8759 190.3444,-3.9325 192.4673,-3.9633 194.9902,-3.98 197.2747,-3.9891 199.4294,-3.9941 201.5136,-3.9968 203.3314,-3.9982 205.0043,-3.999 207.0543,-3.9995 209.5376,-3.9997 211.8004,-3.9998 213.9434,-3.9999 216.2492,-4 218.4156,-4 220.5061,-4 222.5553,-4 224.8101,-4 227.1767,-4 229.3761,-4 231.2566,-3.772 232.9636,-3.42 235.0322,-3.2285 237.2975,-3.1243 239.4418,-3.0676 241.5204,-3.0368 243.5631,-3.02 245.5863,-3.0109 247.599,-3.0059 249.6058,-3.0032 251.3816,-3.0018 252.8036,-3.001 254.4891,-2.7725 256.3181,-2.4203 258.225,-2.2286 260.4024,-2.1244 262.2709,-2.0677 263.7434,-2.0368 265.4564,-2.02 267.3003,-2.0109 268.9874,-2.0059 270.5891,-2.0032 272.1445,-2.0018 273.6746,-2.001 275.191,-2.0005 276.9279,-2.0003 278.5568,-2.0002 280.1269,-2.0001 281.893,-1.772 283.7658,-1.42 285.6966,-1.2285 287.4309,-1.1243 289.0584,-1.0676 290.8558,-1.0368 292.7455,-1.02 294.6856,-0.7829 296.425,-0.4259 298.2832,-0.2317 300.434,-0.126 302.5161,-0.0686 304.5608,-0.0373 306.5851,0.2077 308.5983,0.569 310.3775,0.7655 312.0293,0.8724 313.84,0.9306 315.5089,0.9623 317.3289,0.9795 319.4589,0.9888 321.3016,0.9939 322.9881,0.9967 324.8175,0.9982 326.7247,0.999 328.9023,0.9995 331.2268,0.9997 333.4034,0.9998 335.2714,0.9999 336.9717,1 338.8086,1 340.7199,1 342.4436,1 344.2933,1 346.2116,1 347.7111,1 349.4388,1 351.7467,1.228 353.9142,1.58 355.7773,1.7715 357.4749,1.8757 359.0823,1.9324 360.6408,1.9632 362.1726,1.98 363.6899,2.2171 364.9713,2.5741 366.1244,2.7683 367.2077,2.874 368.253,2.9314 369.5056,2.9627 371.1211,2.9869 L372,3 " stroke-linecap="round" fill="none" stroke="#9398b0" stroke-width="4.5" stroke-dasharray="none" stroke-dashoffset="0"/></g></g><g transform="matrix(1, 0, 0, 1, 2958.5625, 5478.5977) scale(1.1390052442627472, 1.1390052442627472)" opacity="1"><g transform="scale(0.8779590831886624)"><path d="M0,0 Q0.5198,0.5198 0.9212,1.1811 T1.5408,2.4619 1.8779,3.9362 2.3212,6.0355 3.0328,8.7651 L3.42,10.25 " stroke-linecap="round" fill="none" stroke="#9398b0" stroke-width="6.8340314655764836" stroke-dasharray="none" stroke-dashoffset="0"/></g></g><g transform="matrix(1, 0, 0, 1, 2799.1018, 5480.8758) scale(1.1390052442627472, 1.1390052442627472)" opacity="1"><g transform="scale(0.8779590831886624)"><path d="M0,0 Q0.5198,4.1542 0.6612,6.0639 T0.9713,10.2518 L1.14,12.53 " stroke-linecap="round" fill="none" stroke="#9398b0" stroke-width="6.8340314655764836" stroke-dasharray="none" stroke-dashoffset="0"/></g></g><g transform="matrix(1, 0, 0, 1, 2867.6527, 5556.8232) scale(2.044246803725114, 2.044246803725114)" opacity="1"><g transform="scale(0.4891777246161067)"><path d="M2.04,0 Q8.8514,0 13.6257,0 L18.4,0 " stroke-linecap="round" fill="none" stroke="#9398b0" stroke-width="12.265480822350682" stroke-dasharray="none" stroke-dashoffset="0"/></g></g><g transform="matrix(1, 0, 0, 1, 2873.5971, 5404.1313) scale(1.3769392437714774, 1.3769392437714774)" opacity="1"><g transform="scale(0.7262484561489949)"><path d="M0,0 Q4.3958,0 7.0179,0 L9.64,0 " stroke-linecap="round" fill="none" stroke="#9398b0" stroke-width="8.261635462628863" stroke-dasharray="none" stroke-dashoffset="0"/></g></g><g transform="matrix(1, 0, 0, 1, 2870.8433, 5320.138) scale(1.3769392437714774, 1.3769392437714774)" opacity="1"><g transform="scale(0.7262484561489949)"><path d="M0,0 Q3.7666,0.6293 5.4203,0.8004 T8.2861,1.0647 10.7868,1.2085 13.6127,1.3196 L15.15,1.38 " stroke-linecap="round" fill="none" stroke="#9398b0" stroke-width="8.261635462628863" stroke-dasharray="none" stroke-dashoffset="0"/></g></g><g transform="matrix(1, 0, 0, 1, 2872.2202, 5238.8986) scale(1.3769392437714774, 1.3769392437714774)" opacity="1"><g transform="scale(0.7262484561489949)"><path d="M1.38,0 Q5.1466,1.254 6.4857,1.5951 T9.495,2.1217 13.1576,2.5286 L15.15,2.75 " stroke-linecap="round" fill="none" stroke="#9398b0" stroke-width="8.261635462628863" stroke-dasharray="none" stroke-dashoffset="0"/></g></g><g transform="matrix(1, 0, 0, 1, 2724.8877, 5477.1091) scale(1.3769392437714774, 1.3769392437714774)" opacity="1"><g transform="scale(0.7262484561489949)"><path d="M0,0 Q-1.254,3.7666 -1.9097,6.0473 T-3.3477,11.0491 L-4.13,13.77 " stroke-linecap="round" fill="none" stroke="#9398b0" stroke-width="8.261635462628863" stroke-dasharray="none" stroke-dashoffset="0"/></g></g><g transform="matrix(1, 0, 0, 1, 3038.8299, 5479.863) scale(1.3769392437714774, 1.3769392437714774)" opacity="1"><g transform="scale(0.7262484561489949)"><path d="M0,1.38 L0,12.39 " stroke-linecap="round" fill="none" stroke="#9398b0" stroke-width="8.261635462628863" stroke-dasharray="none" stroke-dashoffset="0"/></g></g><g transform="matrix(1, 0, 0, 1, 3038.1414, 5482.6169) scale(1.3769392437714774, 1.3769392437714774)" opacity="1"><g transform="scale(0.7262484561489949)"><path d="M0,-1.38 Q-2.5126,-3.888 -3.5083,-4.8848 T-5.3605,-6.7385 -6.9973,-8.0616 -8.517,-9.096 -9.6584,-10.2857 -10.5916,-11.5599 -11.7263,-12.8823 -12.9729,-14.2288 -14.278,-15.5882 -15.9296,-17.2694 -17.7698,-19.1256 -19.3978,-20.7646 -20.9127,-22.2833 -22.3638,-23.7364 -24.0949,-25.4709 -25.9805,-27.356 -27.6333,-29.0086 -29.474,-30.8492 -31.417,-32.7921 -33.4157,-34.7907 -35.4446,-36.8196 -37.4899,-38.5526 -39.5465,-40.437 -41.6069,-42.4037 -43.9818,-44.4153 -46.2154,-46.4512 -48.3721,-48.5004 -50.487,-50.8714 -52.5791,-53.1029 -54.9735,-55.2584 -57.22,-57.6874 -59.3837,-60.265 -61.5024,-62.6088 -63.5966,-64.8255 -65.6775,-66.973 -67.7512,-69.0829 -70.1332,-71.1724 -72.3707,-72.936 -74.5318,-74.8393 -76.6491,-76.8164 -78.7426,-78.8336 -80.823,-80.8725 -82.5818,-82.9234 -84.4802,-84.9807 -86.4546,-86.7268 -88.1579,-88.6184 -89.7116,-90.5891 -91.1837,-92.2904 -92.9285,-93.8452 -94.8193,-95.6326 -96.4749,-97.5466 -98.0048,-99.2148 -99.4641,-100.7494 -101.1996,-102.5258 -103.0853,-104.4338 -104.7382,-106.101 -106.2666,-107.9496 -107.7274,-109.8969 -109.149,-111.5855 -110.864,-113.1311 -112.7386,-114.9136 -114.3854,-116.8249 -115.9105,-118.4916 -117.3672,-120.0276 -118.7866,-121.8048 -120.5005,-123.7133 -122.3744,-125.3807 -124.0231,-127.2295 -125.5493,-129.1768 -127.3212,-130.8632 -129.2267,-132.4076 -130.8903,-134.1894 -132.4223,-136.1003 -133.885,-137.7691 -135.3077,-139.304 -136.7087,-140.7659 -138.1001,-142.1905 -139.484,-143.5948 -140.8639,-144.9857 -142.2438,-146.3693 -143.6237,-147.7513 -145.0014,-148.8178 -146.0633,-149.7103 -147.2702,-150.8228 -148.556,-152.0573 -149.5679,-153.0435 -150.7453,-153.8923 -151.7005,-155.2957 -152.5347,-156.6885 -153.3032,-157.7585 -154.0336,-158.6529 -155.058,-159.7688 -156.2963,-161.5248 L-156.97,-162.48 " stroke-linecap="round" fill="none" stroke="#f76707" stroke-width="8.261635462628863" stroke-dasharray="none" stroke-dashoffset="0"/></g></g><g transform="matrix(1, 0, 0, 1, 3040.8953, 5488.1246) scale(1.3769392437714774, 1.3769392437714774)" opacity="1"><g transform="scale(0.7262484561489949)"><path d="M0,0 Q1.254,-2.5126 1.9097,-3.5083 T2.9222,-5.3605 3.7876,-6.6826 4.573,-7.7166 5.0003,-8.9083 5.5451,-10.1836 6.4684,-11.5044 7.6,-12.8521 8.8449,-14.2123 9.8367,-15.5793 10.6887,-16.9522 11.7791,-18.0137 13.0016,-18.9035 13.9813,-20.0145 14.8266,-21.2482 15.9134,-22.5464 17.1339,-23.8795 18.1125,-25.2341 18.9573,-26.6002 20.0438,-27.658 20.9495,-28.5459 21.7568,-29.6558 22.823,-30.8889 24.0301,-32.1867 25.316,-33.5197 26.3301,-34.8742 27.1965,-36.238 28.2948,-37.6069 29.5192,-38.9809 30.8146,-40.3576 32.1463,-41.7335 33.4978,-43.109 34.8622,-44.4866 36.2315,-45.863 37.6034,-47.2387 38.979,-48.6164 40.3566,-49.9929 41.733,-51.3687 43.4234,-52.7464 45.2846,-54.1229 46.9241,-55.4987 48.4453,-56.8764 49.8998,-58.2552 51.318,-59.6322 52.7189,-61.0083 54.1079,-62.3862 55.4905,-64.0774 56.872,-65.9391 58.2528,-67.5788 59.6309,-69.0978 61.0076,-70.5535 62.3858,-71.9723 63.7626,-73.3712 65.1385,-74.7614 66.5163,-76.147 67.8928,-77.5278 69.2687,-78.9059 70.6464,-80.2849 72.0229,-81.6621 73.3987,-83.0382 74.7764,-84.4162 76.1552,-85.7928 77.5322,-87.1686 78.9083,-88.5464 80.2862,-90.2375 81.6628,-92.0991 83.0386,-93.7411 84.4164,-95.2614 86.1075,-96.7154 87.9691,-98.1356 89.2965,-99.5353 90.6456,-101.2383 92.6357,-103.1064 94.9747,-104.7496 97.1887,-106.2728 99.0201,-107.7307 100.6434,-109.1508 102.1558,-110.5504 103.6055,-111.941 105.3358,-113.3245 107.221,-114.7041 108.8735,-116.0839 110.3995,-117.4615 112.1713,-118.838 114.0768,-120.216 115.7427,-121.5927 116.9635,-122.9686 117.94,-124.3463 119.0983,-125.4105 120.3576,-126.304 121.6697,-127.4171 123.0105,-128.6496 124.3691,-129.9494 125.7375,-130.9711 127.1089,-131.8393 128.7966,-132.9386 130.6564,-134.1659 132.2951,-135.4605 133.8158,-136.4772 134.9577,-137.3449 135.8913,-138.1315 137.0261,-138.8741 138.2728,-139.5927 139.578,-140.296 140.915,-141.3056 142.2716,-142.4841 143.6389,-143.7545 145.3243,-145.0725 146.8682,-146.4166 148.0227,-147.777 149.2777,-149.1441 150.5875,-150.8294 151.9293,-152.3755 153.2862,-153.529 154.6514,-154.7834 156.0233,-156.0952 157.0843,-157.4357 157.9738,-158.4774 158.7701,-159.3586 159.5179,-160.1527 160.554,-160.5847 161.4322,-161.1343 162.2247,-162.0626 163.5974,-163.1946 165.5486,-164.5129 L166.61,-165.23 " stroke-linecap="round" fill="none" stroke="#f76707" stroke-width="8.261635462628863" stroke-dasharray="none" stroke-dashoffset="0"/></g></g><g transform="matrix(1, 0, 0, 1, 2980.3099, 5266.4374) scale(1.3769392437714774, 1.3769392437714774)" opacity="1"><g transform="scale(0.7262484561489949)"><path d="M0,0 Q-0.6293,-3.7666 -0.8004,-5.1057 T-1.0647,-7.488 -1.2085,-9.4109 -1.5991,-11.084 -2.4385,-12.3088 -3.5245,-12.6605 -4.7422,-12.2248 -5.7171,-11.3608 -6.562,-10.2615 -7.3363,-8.7218 -8.0721,-6.6279 -8.7871,-4.5472 -9.176,-2.7883 -9.3876,-0.8899 -9.5027,1.0846 -9.2507,3.1003 -8.4843,5.4531 -7.7527,7.9893 -7.0424,10.3107 -6.3436,12.5151 -5.6489,14.9706 -4.9563,17.2481 -4.5795,19.114 -4.3745,21.0707 -4.5777,23.0768 -5.3152,24.7974 -6.3434,26.3626 -7.532,27.5288 -9.1202,28.4755 -11.2405,29.3029 -13.3356,29.753 -15.417,29.9979 -17.8055,29.8187 -20.3589,29.0943 -22.6896,28.3855 -24.5867,27.6853 -26.2481,26.6751 -27.7788,25.4986 -28.9239,23.9169 -29.8087,21.801 L-30.29,20.65 " stroke-linecap="round" fill="none" stroke="#f76707" stroke-width="8.261635462628863" stroke-dasharray="none" stroke-dashoffset="0"/></g></g><g transform="matrix(1, 0, 0, 1, 2980.3099, 5274.699) scale(1.3769392437714774, 1.3769392437714774)" opacity="1"><g transform="scale(0.7262484561489949)"><path d="M0,0 Q-4.3958,1.254 -6.2185,1.5951 T-9.9743,2.4364 -14.2138,3.5333 L-16.52,4.13 " stroke-linecap="round" fill="none" stroke="#f76707" stroke-width="8.261635462628863" stroke-dasharray="none" stroke-dashoffset="0"/></g></g><g transform="matrix(1, 0, 0, 1, 3005.0948, 5248.5372) scale(1.3769392437714774, 1.3769392437714774)" opacity="1"><g transform="scale(0.7262484561489949)"><path d="M0,0 Q-1.254,5.6498 -1.9097,7.8159 T-3.2368,11.7872 -4.2734,15.5163 -5.1496,19.1135 -5.9387,22.6414 -6.3679,26.1314 -6.6014,29.284 -6.7285,32.2553 -6.4852,35.128 -5.0989,37.6323 -2.6903,40.0142 L-1.38,41.31 " stroke-linecap="round" fill="none" stroke="#f76707" stroke-width="8.261635462628863" stroke-dasharray="none" stroke-dashoffset="0"/></g></g><g transform="matrix(1, 0, 0, 1, 3029.8798, 5267.8143) scale(1.3769392437714774, 1.3769392437714774)" opacity="1"><g transform="scale(0.7262484561489949)"><path d="M0,1.38 Q-1.8833,5.1466 -3.0225,6.7981 T-5.0962,9.6626 -7.1682,11.8502 -9.5516,13.6673 -12.2837,15.5149 L-13.77,16.52 " stroke-linecap="round" fill="none" stroke="#f76707" stroke-width="8.261635462628863" stroke-dasharray="none" stroke-dashoffset="0"/></g></g><g transform="matrix(1, 0, 0, 1, 3018.8642, 5271.9452) scale(1.3769392437714774, 1.3769392437714774)" opacity="1"><g transform="scale(0.7262484561489949)"><path d="M0,0 Q3.7666,5.0251 5.1057,6.7043 T7.488,9.6116 9.0986,11.8225 10.6017,13.9668 12.6537,16.5142 L13.77,17.9 " stroke-linecap="round" fill="none" stroke="#f76707" stroke-width="8.261635462628863" stroke-dasharray="none" stroke-dashoffset="0"/></g></g><g transform="matrix(1, 0, 0, 1, 3040.8953, 5247.1602) scale(1.3769392437714774, 1.3769392437714774)" opacity="1"><g transform="scale(0.7262484561489949)"><path d="M0,0 Q4.3958,6.9084 5.5915,9.4145 T7.4376,14.2255 8.7565,18.726 9.7887,23.0575 10.0355,27.2972 9.5405,31.8015 8.642,36.4497 7.2115,40.5493 4.5501,44.0357 0.7093,47.6201 L-1.38,49.57 " stroke-linecap="round" fill="none" stroke="#f76707" stroke-width="8.261635462628863" stroke-dasharray="none" stroke-dashoffset="0"/></g></g><g transform="matrix(1, 0, 0, 1, 3071.1879, 5266.4374) scale(1.3769392437714774, 1.3769392437714774)" opacity="1"><g transform="scale(0.7262484561489949)"><path d="M0,0 Q4.3958,-0.6293 7.0179,-1.0046 L9.64,-1.38 " stroke-linecap="round" fill="none" stroke="#f76707" stroke-width="8.261635462628863" stroke-dasharray="none" stroke-dashoffset="0"/></g></g><g transform="matrix(1, 0, 0, 1, 3069.811, 5277.4529) scale(1.3769392437714774, 1.3769392437714774)" opacity="1"><g transform="scale(0.7262484561489949)"><path d="M0,0 Q4.3958,0 7.0179,0 L9.64,0 " stroke-linecap="round" fill="none" stroke="#f76707" stroke-width="8.261635462628863" stroke-dasharray="none" stroke-dashoffset="0"/></g></g><g transform="matrix(1, 0, 0, 1, 3098.7267, 5240.2756) scale(1.3769392437714774, 1.3769392437714774)" opacity="1"><g transform="scale(0.7262484561489949)"><path d="M0,0 Q0,5.6498 0,8.1282 T0,12.8965 0,17.6884 0,22.4931 0.3146,27.3048 0.8004,31.8056 1.0647,35.825 1.2085,39.5824 1.2867,43.1951 1.3471,47.3239 L1.38,49.57 " stroke-linecap="round" fill="none" stroke="#f76707" stroke-width="8.261635462628863" stroke-dasharray="none" stroke-dashoffset="0"/></g></g><g transform="matrix(1, 0, 0, 1, 3140.0349, 5248.5372) scale(1.3769392437714774, 1.3769392437714774)" opacity="1"><g transform="scale(0.7262484561489949)"><path d="M0,0 Q-1.254,4.3958 -2.2244,6.2185 T-4.3496,9.9743 -6.762,13.9008 -9.3307,17.6077 -11.6696,20.8806 -13.569,23.9173 -15.544,26.1985 -17.9637,27.9611 L-19.28,28.92 " stroke-linecap="round" fill="none" stroke="#f76707" stroke-width="8.261635462628863" stroke-dasharray="none" stroke-dashoffset="0"/></g></g><g transform="matrix(1, 0, 0, 1, 3122.1347, 5254.0449) scale(1.3769392437714774, 1.3769392437714774)" opacity="1"><g transform="scale(0.7262484561489949)"><path d="M1.38,0 Q3.888,3.7666 4.8848,5.4203 T6.7385,8.2861 8.6886,10.7868 10.6911,13.4034 12.7221,15.7685 14.7686,17.6821 16.5111,19.6647 18.3044,22.0904 L19.28,23.41 " stroke-linecap="round" fill="none" stroke="#f76707" stroke-width="8.261635462628863" stroke-dasharray="none" stroke-dashoffset="0"/></g></g><g transform="matrix(1, 0, 0, 1, 3151.0504, 5262.3066) scale(1.3769392437714774, 1.3769392437714774)" opacity="1"><g transform="scale(0.7262484561489949)"><path d="M0,0 Q5.6498,0 9.0199,0 L12.39,0 " stroke-linecap="round" fill="none" stroke="#f76707" stroke-width="8.261635462628863" stroke-dasharray="none" stroke-dashoffset="0"/></g></g><g transform="matrix(1, 0, 0, 1, 3170.3276, 5248.5372) scale(1.3769392437714774, 1.3769392437714774)" opacity="1"><g transform="scale(0.7262484561489949)"><path d="M0,0 Q4.3958,-0.6293 5.9061,-0.8004 T8.5504,-1.0647 10.9306,-1.2085 13.4816,-0.9721 15.4964,-0.2142 16.9071,0.8251 17.9891,2.3322 18.5778,4.4083 18.898,6.4793 18.7575,8.5476 18.0519,10.6144 17.041,12.368 15.864,14.2636 14.5945,16.2364 13.2769,17.9367 11.9331,19.1739 10.5728,20.1617 9.2035,21.3283 7.8316,22.2775 6.773,23.1063 6.1971,24.1841 6.1961,25.0851 6.8226,25.5753 8.1073,25.8419 9.7479,25.987 11.582,26.0659 13.5213,26.1088 15.518,26.1321 17.8605,26.1448 20.7034,26.1518 24.2375,26.1571 L26.16,26.16 " stroke-linecap="round" fill="none" stroke="#f76707" stroke-width="8.261635462628863" stroke-dasharray="none" stroke-dashoffset="0"/></g></g><g transform="matrix(1, 0, 0, 1, 3210.2588, 5233.3909) scale(1.3769392437714774, 1.3769392437714774)" opacity="1"><g transform="scale(0.7262484561489949)"><path d="M0,0 Q0,5.6498 0,7.8159 T0,12.1019 -0.3146,16.6291 -0.8004,21.2898 -1.0647,25.3962 -0.8938,29.1987 -0.4863,32.8359 -0.2645,36.0708 -0.1439,39.4015 -0.0507,43.3125 L0,45.44 " stroke-linecap="round" fill="none" stroke="#f76707" stroke-width="8.261635462628863" stroke-dasharray="none" stroke-dashoffset="0"/></g></g></svg>