<svg xmlns="http://www.w3.org/2000/svg" direction="ltr" width="366.34755328697884" height="351.0460668465821" viewBox="2959.268208521931 30372.811334231985 366.34755328697884 351.0460668465821" stroke-linecap="round" stroke-linejoin="round" data-color-mode="dark" class="tl-container tl-theme__force-sRGB tl-theme__dark" style="background-color: transparent;"><defs/><g transform="matrix(1, 0, 0, 1, 3230.074, 30404.8113) scale(0.8379149841918331, 0.8379149841918331)" opacity="1"><g transform="scale(1.1934384977785037)"><path d="M1.5116,0 T1.5049,1.1896 1.4975,4.4321 1.2862,8.6275 0.9361,12.4256 0.7601,15.9435 0.7182,19.3372 0.7155,22.202 0.7232,24.8131 0.735,27.8132 0.7466,31.1707 0.7547,34.3676 0.762,37.2694 0.7698,39.8895 0.7794,42.4336 0.7897,44.9567 0.7961,47.5763 0.7996,50.7235 0.8027,54.1134 0.805,57.2783 0.8069,60.6815 0.8084,64.1415 0.8095,67.5233 0.8105,70.9868 0.9878,74.1815 1.3426,77.2739 1.565,80.7471 1.6198,84.4521 1.6323,87.6976 1.6345,90.4161 1.6336,93.6287 1.6323,96.8371 1.6312,99.4046 1.6303,101.933 1.6296,104.4493 1.6289,106.9647 1.6284,109.4786 1.628,111.9909 1.6299,114.5051 1.6338,117.0199 1.6376,119.9924 1.6408,123.0412 1.643,125.6514 1.6448,128.1905 1.6464,131.1533 1.6479,134.2934 1.6489,137.0406 1.6471,139.6356 1.3352,142.2901 0.9353,145.378 0.8323,148.9739 0.8202,152.1436 0.8225,155.1683 0.8258,158.2316 0.8284,160.8428 0.8306,163.3845 0.8324,165.9057 0.8339,168.42 0.9744,171.1208 1.3624,174.3626 1.6396,177.9516 1.6723,180.996 1.6772,183.5065 1.4342,186.2959 1.0522,189.5369 1.1554,192.8268 2.284,196.1708 3.1717,197.9334 A1.6298,1.6298 0 0 1 0.1883,199.2466 T-0.4182,197.8668 -1.5437,195.3124 -2.2638,192.6207 -2.3687,189.7579 -1.9762,186.5888 -1.6806,183.511 -1.6885,180.462 -1.7412,176.9277 -2.1469,173.7128 -2.5108,170.9572 -2.5139,168.42 -2.5124,165.9056 -2.5105,163.3845 -2.5083,160.8427 -2.5055,158.2313 -2.5009,155.1666 -2.4938,152.1371 -2.4732,148.924 -2.4084,145.695 -2.0025,142.6209 -1.6471,139.6045 -1.6489,137.0406 -1.6479,134.2934 -1.6464,131.1533 -1.6448,128.1905 -1.643,125.6514 -1.6408,123.0412 -1.6376,119.9924 -1.6338,117.0199 -1.6299,114.5051 -1.628,111.9909 -1.6284,109.4786 -1.6289,106.9647 -1.6296,104.4493 -1.6303,101.933 -1.6312,99.4047 -1.6324,96.8372 -1.6345,93.6297 -1.6378,90.4201 -1.6444,87.7099 -1.6635,84.4897 -1.7221,80.9169 -1.9082,77.7938 -2.2705,74.56 -2.4905,70.9868 -2.4895,67.5233 -2.4884,64.1415 -2.4869,60.6815 -2.485,57.2783 -2.4827,54.1134 -2.4796,50.7235 -2.4761,47.5763 -2.4697,44.9567 -2.4594,42.4336 -2.4498,39.8894 -2.442,37.2694 -2.4347,34.3676 -2.4264,31.1706 -2.4142,27.8124 -2.3998,24.8098 -2.3834,22.1911 -2.3545,19.3065 -2.283,15.8249 -2.0504,12.0208 -1.6836,8.3188 -1.4975,4.4321 -1.5049,1.1896 -1.5116,0 A1.5116,1.5116 0 0 1 1.5116,0 Z" stroke-linecap="round" fill="#9398b0"/></g></g><g transform="matrix(1, 0, 0, 1, 2992.1061, 30605.073) scale(0.8379149841918331, 0.8379149841918331)" opacity="1"><g transform="scale(1.1934384977785037)"><path d="M-0.8344,-1.1137 T-0.0379,-1.7016 1.7943,-3.0062 4.0954,-4.752 6.9338,-6.7553 9.7135,-8.7124 12.5891,-10.7806 15.6032,-12.9917 18.5513,-15.1269 21.4172,-17.2716 23.9535,-19.4553 26.8005,-21.9218 29.9293,-24.7755 33.1233,-27.8312 36.4571,-30.8523 39.5882,-33.4048 42.2223,-35.6029 45.0034,-37.8904 47.6393,-39.9243 50.5262,-42.1495 53.9816,-45.0186 57.6168,-47.9964 61.4394,-50.8354 64.8525,-53.5285 68.1558,-56.2642 71.486,-59.151 74.2142,-61.5747 76.745,-64.0336 79.979,-66.9297 83.323,-69.5889 86.5111,-72.5199 89.8217,-75.7582 92.5979,-78.3113 94.8763,-80.0761 96.922,-81.873 98.8032,-83.6321 101.596,-85.9008 105.088,-88.6576 108.3615,-91.3605 111.4514,-93.9097 114.4171,-96.4373 117.5832,-99.2964 120.3507,-101.5327 123.1212,-103.7896 126.5789,-106.6792 130.0011,-109.3503 132.7736,-111.4526 135.6082,-113.8115 138.4016,-116.3704 140.3981,-118.3107 142.2492,-120.1299 144.8668,-122.7342 148.1662,-126.0397 150.7308,-128.4077 153.2784,-130.7999 156.5016,-133.8981 159.8928,-137.0707 163.5925,-140.5173 167.1692,-143.5095 170.2875,-146.0797 173.4388,-149.0041 176.4919,-151.8838 179.2539,-154.6014 181.6147,-156.8463 184.1244,-158.8017 187.1554,-160.9904 190.0235,-163.1471 192.943,-165.5699 195.6253,-167.9168 197.8678,-169.9635 200.2101,-172.0185 202.4146,-173.9645 204.3327,-175.7476 206.5684,-177.3597 209.1047,-179.0985 211.9238,-181.4385 215.0172,-184.4022 217.8643,-187.229 220.5186,-189.365 222.7755,-191.2129 224.5796,-193.1402 227.0435,-195.1376 229.991,-196.9507 232.1031,-198.8311 232.8908,-199.8845 A2.16,2.16 0 0 1 236.3492,-197.2955 T235.2417,-195.8172 232.9095,-193.4477 230.2079,-191.8257 227.6816,-189.7506 225.4433,-187.4468 223.0773,-185.6301 220.8997,-183.8947 218.8114,-181.7142 215.9885,-178.9994 213.3108,-176.7229 211.161,-174.9667 208.7012,-173.2715 206.3932,-171.4956 203.8732,-169.2808 201.108,-166.8672 198.649,-164.6148 196.0533,-162.362 193.0331,-159.8644 189.7711,-157.386 186.7404,-155.2126 184.0166,-152.9747 181.134,-150.1292 178.0472,-147.1433 174.7597,-144.1915 171.4516,-141.3924 168.1172,-138.7634 164.6464,-135.646 162.0089,-133.085 159.5996,-130.9129 157.1358,-128.5082 154.467,-126.0064 151.1678,-123.0262 147.8447,-119.7309 145.2042,-117.1199 143.3334,-115.2858 141.2835,-113.3008 139.2743,-111.4145 136.3574,-109.0032 132.6779,-106.1666 129.291,-103.5831 126.6609,-101.4358 124.7267,-99.7866 121.9857,-97.7431 118.6267,-94.9632 115.5365,-92.161 112.4411,-89.5949 109.129,-87.0085 105.7479,-84.431 102.2916,-81.6421 99.4135,-79.0273 97.183,-77.0816 94.2691,-74.6696 90.7777,-71.4179 87.3631,-68.1792 83.9625,-65.3704 80.7986,-62.7972 78.4507,-60.5116 75.7607,-58.0069 72.1536,-54.8862 68.7163,-52.0128 65.2658,-49.3982 61.552,-46.8302 57.8853,-43.9438 54.3908,-41.0101 51.6595,-38.8619 48.8378,-36.6039 45.5557,-34.0266 42.833,-31.9617 40.0081,-29.6905 36.8597,-26.9703 33.5678,-24.0145 30.3379,-21.1872 27.328,-18.458 24.4992,-16.0807 21.6213,-14.0047 18.7928,-11.8426 15.8087,-9.7193 12.6586,-7.4451 9.7826,-5.4296 7.1472,-3.6166 4.1587,-1.3871 1.6224,0.5144 0.8344,1.1137 A1.3916,1.3916 0 0 1 -0.8344,-1.1137 Z" stroke-linecap="round" fill="#9398b0"/></g></g><g transform="matrix(1, 0, 0, 1, 2991.2682, 30605.9109) scale(0.8379149841918331, 0.8379149841918331)" opacity="1"><g transform="scale(1.1934384977785037)"><path d="M-0.6275,-1.5651 T0.3688,-1.9573 2.6356,-2.6002 6.1325,-3.3233 10.5763,-3.941 14.1873,-4.2908 17.0974,-4.7051 20.541,-5.2784 24.4412,-5.7581 28.1637,-5.9134 31.3003,-5.9671 34.1774,-6.2911 37.4056,-6.7039 41.2334,-6.8446 45.2191,-7.1989 49.2586,-7.6224 53.206,-7.766 56.7217,-7.8206 60.12,-7.8513 63.4788,-7.8745 66.708,-8.1884 70.0324,-8.5911 73.2967,-8.7218 76.8192,-9.0656 80.5114,-9.4742 83.5637,-9.5996 86.442,-9.6396 89.5582,-9.6555 93.1798,-9.9575 96.91,-10.3511 100.0862,-10.6425 103.3853,-11.0375 106.9678,-11.2906 110.387,-11.3609 113.6542,-11.3841 117.1799,-11.3975 120.9926,-11.4069 124.7085,-11.0991 128.1615,-10.7102 131.7133,-10.2972 135.6137,-9.8762 139.5169,-9.5214 143.0026,-9.1271 146.3969,-8.711 149.6896,-8.2967 152.4131,-8.1485 155.9861,-8.1053 160.5132,-8.0823 164.8992,-8.0794 169.3604,-7.8573 173.5169,-7.4936 177.3756,-7.3119 181.2831,-7.2668 184.4351,-7.0465 187.7325,-6.694 191.5421,-6.518 194.8676,-6.1559 197.8913,-5.7546 200.6959,-5.6491 203.7932,-5.6117 206.887,-5.6002 209.499,-5.5985 212.5291,-5.5976 215.6587,-5.5971 219.0496,-5.3579 222.8916,-4.9694 226.5382,-4.7934 229.7847,-4.7623 232.6732,-5.0644 234.1194,-5.3708 A2.0819,2.0819 0 0 1 235.1206,-1.3292 T233.1865,-0.7982 229.7805,-0.2698 227.0198,-0.2851 224.3685,-0.3464 221.4304,-0.5909 218.4523,-0.945 215.658,-1.1034 212.5275,-1.1043 209.4958,-1.1056 205.8714,-1.1081 202.0125,-1.1196 198.9915,-1.1757 195.7094,-1.4358 192.6707,-1.8266 189.4187,-2.0984 185.2741,-2.505 181.2356,-2.8369 177.2323,-2.9053 172.9697,-3.1325 168.9243,-3.4873 164.8926,-3.6674 160.492,-3.6823 155.9202,-3.7231 152.181,-3.7921 148.8704,-4.0478 145.6349,-4.4604 142.2711,-4.8633 138.8477,-5.2504 135.3151,-5.5249 131.391,-5.9388 127.8089,-6.3479 124.4303,-6.734 120.9814,-7.0321 117.1834,-7.039 113.6685,-7.0433 110.4396,-7.0337 107.1564,-6.9859 104.0471,-6.8139 100.676,-6.432 97.2682,-6.1106 94.1044,-5.7283 91.0064,-5.4184 87.9791,-5.4179 85.1189,-5.4097 82.4297,-5.3628 79.2415,-5.1827 75.5161,-4.8215 71.9532,-4.5684 68.8134,-4.4115 65.3955,-4.075 61.8099,-3.8731 58.4411,-3.8913 55.0308,-3.8972 51.4613,-3.8646 47.7011,-3.7014 43.3492,-3.3559 39.2894,-3.1102 36.1968,-2.9538 32.9837,-2.6097 29.748,-2.3866 26.5134,-2.3507 23.3598,-2.2102 19.8896,-1.7623 16.3023,-1.0986 12.8903,-0.7135 9.0044,-0.4338 4.7983,0.2722 1.6131,1.1627 0.6275,1.5651 A1.6862,1.6862 0 0 1 -0.6275,-1.5651 Z" stroke-linecap="round" fill="#9398b0"/></g></g><g transform="matrix(1, 0, 0, 1, 3048.2464, 30598.3697) scale(0.8379149841918331, 0.8379149841918331)" opacity="1"><g transform="scale(1.1934384977785037)"><path d="M-0.7937,-1.5827 T-0.0759,-1.9084 0.8693,-3.8685 1.059,-7.5994 0.428,-12.0232 -0.5384,-15.5694 -1.9514,-18.6282 -4.1531,-22.1556 -6.4589,-24.4667 -9.496,-25.1039 -11.3892,-25.1172 A1.7268,1.7268 0 0 1 -12.0708,-28.5028 T-11.3308,-28.6675 -8.9135,-28.8256 -5.6952,-28.0678 -2.6903,-25.7755 0.0116,-22.2893 1.9229,-19.1077 2.979,-16.5944 3.7086,-14.0297 4.3336,-11.426 4.6172,-7.5325 4.3134,-3.2824 3.2658,-0.4827 1.6605,1.1137 0.7937,1.5827 A1.7706,1.7706 0 0 1 -0.7937,-1.5827 Z" stroke-linecap="round" fill="#9398b0"/></g></g><g transform="matrix(1, 0, 0, 1, 3071.708, 30566.5289) scale(0.8379149841918331, 0.8379149841918331)" opacity="1"><g transform="scale(1.1934384977785037)"><path d="M-0.5435,1.3555 T-1.517,0.9615 -3.8736,1.1347 -6.4669,2.7234 -8.2921,5.0068 -9.3956,8.1045 -9.9684,11.3257 -9.6491,14.6633 -7.9053,18.0265 -5.2971,19.7009 -2.4409,19.8541 0.3968,19.0604 2.9003,17.3195 4.8684,14.6842 5.677,11.795 5.3629,8.8706 3.9383,6.4063 1.173,6.227 -0.5764,6.8986 A1.5087,1.5087 0 0 1 -2.7836,4.8414 T-1.5802,3.5984 1.1035,2.1882 4.4246,2.6651 7.1835,4.616 8.6405,7.5435 9.1103,10.5726 8.7612,13.758 7.5312,17.0104 5.1157,19.7018 1.6438,21.8925 -2.4615,22.9276 -6.4263,22.4352 -9.7998,20.5036 -11.9957,17.1446 -12.8367,13.8496 -12.6819,9.9381 -11.6841,5.3798 -9.7093,1.8384 -6.9042,-0.7825 -3.4282,-1.9901 -0.4648,-1.7561 0.5435,-1.3555 A1.4604,1.4604 0 0 1 -0.5435,1.3555 Z" stroke-linecap="round" fill="#9398b0"/></g></g><g transform="matrix(1, 0, 0, 1, 3074.2218, 30577.4218) scale(0.8379149841918331, 0.8379149841918331)" opacity="1"><g transform="scale(1.1934384977785037)"><path d="M-0.84,1.7375 T-1.8309,1.7524 -4.6197,1.781 -8.6538,1.7591 -10.89,1.7237 A1.7237,1.7237 0 0 1 -10.89,-1.7237 T-8.6538,-1.7591 -4.6197,-1.781 -1.8309,-1.7524 -0.84,-1.7375 A1.7375,1.7375 0 0 1 -0.84,1.7375 Z" stroke-linecap="round" fill="#9398b0"/></g></g><g transform="matrix(1, 0, 0, 1, 3268.6181, 30499.4957) scale(0.8379149841918331, 0.8379149841918331)" opacity="1"><g transform="scale(1.1934384977785037)"><path d="M1.5459,0.7753 T1.1502,1.5691 -0.1513,3.6548 -2.6001,6.4083 -5.7176,9.3249 -9.0036,11.9728 -10.7154,13.1657 A1.758,1.758 0 0 1 -12.7446,10.2943 T-11.9051,9.6877 -9.7089,7.9621 -6.4673,5.2474 -3.463,2.2288 -1.9448,0.0154 -1.5459,-0.7753 A1.7294,1.7294 0 0 1 1.5459,0.7753 Z" stroke-linecap="round" fill="#9398b0"/></g></g><g transform="matrix(1, 0, 0, 1, 3257.7252, 30496.1441) scale(0.8379149841918331, 0.8379149841918331)" opacity="1"><g transform="scale(1.1934384977785037)"><path d="M1.6327,-1.021 T2.6298,0.5597 4.3697,3.3964 5.57,5.8521 6.6069,8.3307 8.1447,11.3152 10.3649,14.7205 11.6268,16.4204 A1.9693,1.9693 0 0 1 8.4732,18.7796 T7.0208,16.8512 4.5648,13.0693 2.6479,8.9155 1.0358,5.4065 -0.6479,2.6094 -1.6327,1.021 A1.9257,1.9257 0 0 1 1.6327,-1.021 Z" stroke-linecap="round" fill="#9398b0"/></g></g><g transform="matrix(1, 0, 0, 1, 3125.3346, 30622.6692) scale(0.8379149841918331, 0.8379149841918331)" opacity="1"><g transform="scale(1.1934384977785037)"><path d="M2.1031,0 T2.1017,1.5845 2.1025,5.4459 2.1117,9.8682 2.1251,13.623 1.7467,17.1205 1.3617,19.0086 A2.139,2.139 0 0 1 -2.5751,17.3342 T-2.3534,16.2833 -2.1251,13.623 -2.1117,9.8682 -2.1025,5.4459 -2.1017,1.5845 -2.1031,0 A2.1031,2.1031 0 0 1 2.1031,0 ZM-2.7396,18.3339 T-2.825,17.1872 -2.9305,14.694 -2.7168,11.7767 -2.3561,8.741 -2.1728,5.3168 -1.8727,1.77 -1.6792,-0.7138 -1.7293,-1.6102 A2.1297,2.1297 0 0 1 2.4837,-2.2373 T2.5805,-1.146 2.3791,1.6733 2.062,4.9037 1.9599,7.7402 1.5915,11.1869 1.3333,14.5896 1.4431,16.9442 1.5262,18.0089 A2.139,2.139 0 0 1 -2.7396,18.3339 ZM1.2498,0.019 T0.7573,0.2442 -0.7958,1.1451 -3.0062,2.6508 -5.8056,4.4716 -8.1509,5.8774 -8.8465,6.2924 A2.4225,2.4225 0 0 1 -11.2535,2.0876 T-10.5434,1.6979 -8.3815,0.5446 -5.8149,-0.9306 -3.3817,-2.4062 -1.2794,-3.5183 -0.4955,-3.8664 A2.1297,2.1297 0 0 1 1.2498,0.019 Z" stroke-linecap="round" fill="#9398b0"/></g></g><g transform="matrix(1, 0, 0, 1, 3095.0252, 30450.7719) scale(0.8379149841918331, 0.8379149841918331)" opacity="1"><g transform="scale(1.1934384977785037)"><path d="M1.855,0 T1.853,0.7923 1.8643,3.7258 1.8979,8.277 1.9301,12.1236 1.7408,15.7925 1.4324,19.5277 1.2043,22.7313 1.0836,24.4319 A1.9281,1.9281 0 0 1 -2.7636,24.1681 T-2.651,22.4669 -2.4365,19.2157 -2.1381,15.6121 -1.9301,12.1228 -1.8979,8.277 -1.8643,3.7258 -1.853,0.7923 -1.855,0 A1.855,1.855 0 0 1 1.855,0 Z" stroke-linecap="round" fill="#9398b0"/></g></g><g transform="matrix(1, 0, 0, 1, 3236.6329, 30524.5084) scale(0.8379149841918331, 0.8379149841918331)" opacity="1"><g transform="scale(1.1934384977785037)"><path d="M1.0271,-1.8662 T3.0093,-1.6711 6.596,-1.3791 9.8276,-1.2388 12.9103,-1.1707 15.7234,-1.1391 19.5978,-1.4367 23.4945,-1.9965 26.3142,-2.4073 29.9525,-2.8723 33.4663,-3.3289 36.068,-3.5527 38.6256,-3.6709 42.1176,-3.7486 46.4689,-4.0928 49.8509,-4.4506 52.3215,-4.0076 54.4085,-3.0662 55.2762,-2.6175 A1.9559,1.9559 0 0 1 53.6438,0.9375 T52.3654,0.3335 49.1012,-0.1138 44.6071,0.2609 39.8374,0.5198 35.2658,0.7159 30.5503,1.1725 26.8465,1.5834 22.7596,2.0244 18.5079,2.5498 15.6672,2.7202 12.8085,2.663 9.6432,2.5625 6.2876,2.3832 2.6345,2.0684 0.6529,1.8662 A1.8756,1.8756 0 0 1 1.0271,-1.8662 Z" stroke-linecap="round" fill="#9398b0"/></g></g><g transform="matrix(1, 0, 0, 1, 3239.1466, 30549.6459) scale(0.8379149841918331, 0.8379149841918331)" opacity="1"><g transform="scale(1.1934384977785037)"><path d="M1.5145,0 T1.503,1.1896 1.4819,4.0348 1.4702,7.4552 1.4679,9.22 A1.4679,1.4679 0 0 1 -1.4679,9.22 T-1.4702,7.4552 -1.4819,4.0348 -1.503,1.1896 -1.5145,0 A1.5145,1.5145 0 0 1 1.5145,0 ZM-1.3559,8.6576 T-1.1131,8.0919 -0.6032,6.0675 0.0526,2.3515 0.8446,-2.5322 1.3743,-6.7123 1.7666,-10.3427 2.1693,-13.6788 2.5869,-16.4585 3.1716,-19.6105 3.4755,-21.2419 A1.5817,1.5817 0 0 1 6.5845,-20.6581 T6.2759,-19.0276 5.6983,-15.99 5.2769,-13.2935 4.8416,-9.9988 4.3976,-6.3158 3.8131,-1.9705 2.9772,2.9892 2.1149,7.1397 1.5104,9.3902 1.3559,9.7824 A1.4679,1.4679 0 0 1 -1.3559,8.6576 Z" stroke-linecap="round" fill="#e599f7"/></g></g><g transform="matrix(1, 0, 0, 1, 3250.0395, 30540.4288) scale(0.8379149841918331, 0.8379149841918331)" opacity="1"><g transform="scale(1.1934384977785037)"><path d="M1.4573,0 T1.4707,1.3883 1.5033,4.8941 1.5454,9.3109 1.3717,12.95 1.2951,16.7262 1.4152,19.1624 A1.4193,1.4193 0 0 1 -1.4152,19.3776 T-1.5616,18.0038 -1.6382,14.1168 -1.5454,9.3076 -1.5033,4.8941 -1.4707,1.3883 -1.4573,0 A1.4573,1.4573 0 0 1 1.4573,0 Z" stroke-linecap="round" fill="#e599f7"/></g></g><g transform="matrix(1, 0, 0, 1, 3255.9049, 30551.3217) scale(0.8379149841918331, 0.8379149841918331)" opacity="1"><g transform="scale(1.1934384977785037)"><path d="M0,-1.2355 T0.9909,-1.2623 4.3409,-1.2674 6.7,-1.2456 A1.2456,1.2456 0 0 1 6.7,1.2456 T4.3409,1.2674 0.9909,1.2623 0,1.2355 A1.2355,1.2355 0 0 1 0,-1.2355 Z" stroke-linecap="round" fill="#e599f7"/></g></g><g transform="matrix(1, 0, 0, 1, 3276.0149, 30547.9701) scale(0.8379149841918331, 0.8379149841918331)" opacity="1"><g transform="scale(1.1934384977785037)"><path d="M1.1863,0.7106 T0.609,1.712 -1.2416,4.5509 -3.4733,7.5203 -5.6424,9.5088 -8.053,11.1897 -9.2529,12.0138 A1.3778,1.3778 0 0 1 -10.8471,9.7662 T-8.7522,8.2514 -5.8246,5.7541 -3.699,3.011 -1.7962,0.2699 -1.1863,-0.7106 A1.3829,1.3829 0 0 1 1.1863,0.7106 Z" stroke-linecap="round" fill="#e599f7"/></g></g><g transform="matrix(1, 0, 0, 1, 3267.6357, 30550.4838) scale(0.8379149841918331, 0.8379149841918331)" opacity="1"><g transform="scale(1.1934384977785037)"><path d="M0.9112,-1.1397 T1.9034,-0.3494 4.4922,1.563 7.1906,3.6432 9.3588,6.0541 10.4253,7.5069 A1.4883,1.4883 0 0 1 8.0147,9.2531 T7.1438,8.0313 5.2748,5.9259 2.6724,3.8852 0.0784,1.9339 -0.9112,1.1397 A1.4592,1.4592 0 0 1 0.9112,-1.1397 Z" stroke-linecap="round" fill="#e599f7"/></g></g><g transform="matrix(1, 0, 0, 1, 3276.0149, 30539.5909) scale(0.8379149841918331, 0.8379149841918331)" opacity="1"><g transform="scale(1.1934384977785037)"><path d="M0.5432,-1.6263 T1.729,-1.2146 4.0725,-0.2363 5.2302,0.3305 A1.6635,1.6635 0 0 1 3.7762,3.3229 T2.8099,2.8576 0.6502,2.0093 -0.5432,1.6263 A1.7146,1.7146 0 0 1 0.5432,-1.6263 ZM5.8295,2.8308 T5.5502,3.1863 4.2814,4.3449 4.7394,5.8091 6.992,6.6093 7.797,6.7483 A1.6518,1.6518 0 0 1 7.283,10.0117 T5.6046,9.7586 2.5936,8.6814 0.5672,6.2162 1.2589,3.0639 2.9107,1.1876 3.1769,0.8226 A1.6635,1.6635 0 0 1 5.8295,2.8308 Z" stroke-linecap="round" fill="#e599f7"/></g></g><g transform="matrix(1, 0, 0, 1, 3247.5258, 30530.3738) scale(0.8379149841918331, 0.8379149841918331)" opacity="1"><g transform="scale(1.1934384977785037)"><path d="M-0.2983,-1.7865 T0.8939,-1.9701 4.1384,-2.3172 8.1819,-2.5405 11.9332,-2.6311 15.3318,-2.4778 19.3139,-2.1726 23.6173,-2.0272 27.5489,-1.7752 30.8888,-1.4106 33.8397,-0.9219 36.9443,-0.4846 39.7991,-0.3632 43.6146,-0.1671 46.097,-0.0067 A1.6867,1.6867 0 0 1 46.083,3.3667 T43.5823,3.5064 39.6924,3.6281 36.5597,3.502 33.3541,3.0482 30.2546,2.5131 27.0658,2.1298 23.5009,1.8734 18.9902,1.6191 15.0996,1.2226 11.9654,1.0033 8.3117,1.0175 4.5354,1.2028 1.4853,1.5728 0.2983,1.7865 A1.8112,1.8112 0 0 1 -0.2983,-1.7865 Z" stroke-linecap="round" fill="#e599f7"/></g></g><g transform="matrix(1, 0, 0, 1, 3291.9353, 30532.8876) scale(0.8379149841918331, 0.8379149841918331)" opacity="1"><g transform="scale(1.1934384977785037)"><path d="M1.2983,-0.2168 T1.5038,0.9717 1.6788,4.3293 1.4883,7.541 1.3284,8.5837 A1.3439,1.3439 0 0 1 -1.3284,8.1763 T-1.1686,7.1336 -0.9617,4.3445 -1.1065,1.4075 -1.2983,0.2168 A1.3162,1.3162 0 0 1 1.2983,-0.2168 Z" stroke-linecap="round" fill="#e599f7"/></g></g><g transform="matrix(1, 0, 0, 1, 3100.5305, 30653.3013) scale(0.7831526293235241, 0.7831526293235241)" opacity="1"><g transform="scale(1.276890305359487)"><path d="M-0.4455,-1.5551 T0.8536,-1.9226 4.0781,-2.5275 8.1075,-2.8914 11.6774,-3.0834 14.4791,-3.1882 17.0761,-3.2505 20.3004,-3.2949 24.0362,-3.3294 27.4835,-3.3541 30.9678,-3.3745 34.2869,-3.3916 37.3321,-3.4032 40.2352,-3.4088 42.8466,-3.2126 46.1341,-2.6724 49.4625,-2.4406 51.7147,-2.8567 52.682,-3.1626 A1.6909,1.6909 0 0 1 53.818,0.0226 T52.8754,0.3978 50.7048,1.1543 47.4754,1.1864 43.5341,0.5544 40.2313,0.2699 37.3332,0.2653 34.2888,0.2555 30.9714,0.2421 27.4901,0.2283 24.0476,0.2164 20.3285,0.2063 17.1343,0.208 14.5799,0.2332 11.825,0.2943 8.3693,0.4172 4.695,0.6509 1.7384,1.18 0.4455,1.5551 A1.6177,1.6177 0 0 1 -0.4455,-1.5551 Z" stroke-linecap="round" fill="#9398b0"/></g></g><g transform="matrix(1, 0, 0, 1, 3092.4663, 30675.2385) scale(0.9777775770580246, 0.9777775770580246)" opacity="1"><g transform="scale(1.0227274826743717)"><path d="M2.1797,0.3639 T1.9472,1.7517 1.7664,5.6993 1.956,10.4291 2.0938,12.5992 A2.2005,2.2005 0 0 1 -2.301,12.8322 T-2.4326,10.7996 -2.7354,7.1065 -2.7742,3.9297 -2.4107,1.0248 -2.1797,-0.3639 A2.2099,2.2099 0 0 1 2.1797,0.3639 ZM-0.2252,10.5186 T-0.2007,10.5171 -0.1762,10.5157 A2.2007,2.2007 0 0 1 0.067,14.9104 T0.0425,14.9116 0.018,14.9129 A2.2005,2.2005 0 0 1 -0.2252,10.5186 ZM-2.2548,12.6667 T-2.2296,11.6923 -1.7851,8.9749 -0.949,5.7585 0.238,2.251 1.6351,-1.2016 2.8034,-4.2204 3.8413,-7.6434 4.8293,-10.9044 6.149,-14.3118 7.5822,-17.033 8.1871,-17.785 A1.9734,1.9734 0 0 1 11.3729,-15.455 T10.467,-13.4522 8.876,-9.1061 7.6552,-4.9103 6.46,-1.1466 5.0713,2.2092 3.6883,5.6792 2.6043,9.3322 2.1599,11.8595 2.1456,12.7593 A2.2007,2.2007 0 0 1 -2.2548,12.6667 Z" stroke-linecap="round" fill="#e599f7"/></g></g><g transform="matrix(1, 0, 0, 1, 3107.133, 30670.3496) scale(0.9777775770580246, 0.9777775770580246)" opacity="1"><g transform="scale(1.0227274826743717)"><path d="M1.7287,0.98 T1.7666,2.5986 1.5983,6.1148 1.0488,9.7261 0.4838,12.8981 0.0089,16.0813 -0.2443,17.8061 A1.728,1.728 0 0 1 -3.6757,17.3939 T-3.5133,15.6582 -3.1995,12.275 -2.6837,9.0773 -2.0619,5.8703 -1.7666,2.5967 -1.7287,0.98 A1.7287,1.7287 0 0 1 1.7287,0.98 Z" stroke-linecap="round" fill="#e599f7"/></g></g><g transform="matrix(1, 0, 0, 1, 3112.9996, 30679.1496) scale(0.9777775770580246, 0.9777775770580246)" opacity="1"><g transform="scale(1.0227274826743717)"><path d="M0.4282,-1.2823 T1.8331,-0.8707 5.6668,0.0779 8.0955,0.6148 A1.3731,1.3731 0 0 1 7.5445,3.3052 T4.9298,2.8092 0.9434,1.7978 -0.4282,1.2823 A1.3519,1.3519 0 0 1 0.4282,-1.2823 Z" stroke-linecap="round" fill="#e599f7"/></g></g><g transform="matrix(1, 0, 0, 1, 3141.3552, 30677.1941) scale(0.9777775770580246, 0.9777775770580246)" opacity="1"><g transform="scale(1.0227274826743717)"><path d="M1.4539,1.0895 T0.7675,2.0246 -1.7263,4.6629 -5.436,7.9145 -9.5931,10.6334 -12.9404,12.1678 -14.033,12.5317 A1.8828,1.8828 0 0 1 -15.307,8.9883 T-14.2327,8.5731 -11.5371,7.3026 -8.0302,5.0084 -4.4987,2.1544 -2.1534,-0.1752 -1.4539,-1.0895 A1.8168,1.8168 0 0 1 1.4539,1.0895 Z" stroke-linecap="round" fill="#e599f7"/></g></g><g transform="matrix(1, 0, 0, 1, 3129.6218, 30680.1274) scale(0.9777775770580246, 0.9777775770580246)" opacity="1"><g transform="scale(1.0227274826743717)"><path d="M0.8647,-1.4431 T2.0385,-0.7683 4.56,1.1509 7.2371,4.0347 9.9212,7.1618 12.1309,9.5873 12.986,10.5251 A1.7405,1.7405 0 0 1 10.474,12.9349 T9.5725,12.0417 7.2077,9.6246 4.5562,6.5252 2.3908,3.9075 0.2745,2.1541 -0.8647,1.4431 A1.6823,1.6823 0 0 1 0.8647,-1.4431 Z" stroke-linecap="round" fill="#e599f7"/></g></g><g transform="matrix(1, 0, 0, 1, 3138.4218, 30668.3941) scale(0.9777775770580246, 0.9777775770580246)" opacity="1"><g transform="scale(1.0227274826743717)"><path d="M-0.377,-1.8811 T0.7791,-2.1155 3.5632,-2.5574 7.3407,-1.5042 9.1831,1.6695 7.4887,4.6551 6.1014,5.7279 A1.9816,1.9816 0 0 1 3.7325,2.5505 T4.6115,1.8213 4.0907,1.2573 1.5339,1.6519 0.377,1.8811 A1.9185,1.9185 0 0 1 -0.377,-1.8811 ZM6.8984,4.1701 T6.8967,4.5795 6.8951,4.9889 A1.9911,1.9911 0 0 1 2.9133,4.9269 T2.9245,4.5176 2.9356,4.1084 A1.9816,1.9816 0 0 1 6.8984,4.1701 ZM5.6543,3.1135 T6.2815,3.3801 9.3499,3.8141 11.7911,3.9815 A1.8895,1.8895 0 0 1 11.6689,7.7585 T10.5799,7.7517 7.8153,7.6658 5.1469,7.1945 4.1541,6.8023 A1.9911,1.9911 0 0 1 5.6543,3.1135 Z" stroke-linecap="round" fill="#e599f7"/></g></g><g transform="matrix(1, 0, 0, 1, 3106.1552, 30657.6385) scale(0.9777775770580246, 0.9777775770580246)" opacity="1"><g transform="scale(1.0227274826743717)"><path d="M0,-1.546 T2.0812,-1.5464 5.7227,-1.5498 8.7983,-1.5579 11.805,-1.5644 14.7778,-1.5722 19.0658,-1.3325 24.2471,-0.6488 28.7069,0.2636 32.5056,0.9336 36.2538,1.5591 40.4469,2.0985 44.2065,1.9028 47.4974,1.5063 50.8098,1.4276 53.7797,2.0734 56.0147,3.2495 56.9025,3.793 A2.3851,2.3851 0 0 1 54.5575,7.947 T53.6334,7.4676 51.0625,6.7655 47.9746,6.6293 44.4906,7.0536 39.9847,7.2649 35.6336,6.7209 31.5025,5.9942 27.2678,5.2235 23.1393,4.3677 18.6309,3.7561 14.7778,3.5322 11.805,3.5244 8.7983,3.5179 5.7227,3.5098 2.0812,3.5064 0,3.506 A2.526,2.526 0 0 1 0,-1.546 Z" stroke-linecap="round" fill="#e599f7"/></g></g><g transform="matrix(1, 0, 0, 1, 3160.9107, 30661.5496) scale(0.9777775770580246, 0.9777775770580246)" opacity="1"><g transform="scale(1.0227274826743717)"><path d="M1.6941,0 T1.7044,1.6177 1.7416,6.1696 1.7752,10.907 1.7819,12.71 A1.7819,1.7819 0 0 1 -1.7819,12.71 T-1.7752,10.907 -1.7416,6.1696 -1.7044,1.6177 -1.6941,0 A1.6941,1.6941 0 0 1 1.6941,0 Z" stroke-linecap="round" fill="#e599f7"/></g></g></svg>