<svg xmlns="http://www.w3.org/2000/svg" direction="ltr" width="341.3498597674966" height="300.03189371517146" viewBox="2568.6553940128115 30371.01075872394 341.3498597674966 300.03189371517146" stroke-linecap="round" stroke-linejoin="round" data-color-mode="dark" class="tl-container tl-theme__force-sRGB tl-theme__dark" style="background-color: transparent;"><defs/><g transform="matrix(1, 0, 0, 1, 2839.4612, 30403.0108) scale(0.8379149841918331, 0.8379149841918331)" opacity="1"><g transform="scale(1.1934384977785037)"><path d="M1.5116,0 T1.5049,1.1896 1.4975,4.4321 1.2862,8.6275 0.9361,12.4256 0.7601,15.9435 0.7182,19.3372 0.7155,22.202 0.7232,24.8131 0.735,27.8132 0.7466,31.1707 0.7547,34.3676 0.762,37.2694 0.7698,39.8895 0.7794,42.4336 0.7897,44.9567 0.7961,47.5763 0.7996,50.7235 0.8027,54.1134 0.805,57.2783 0.8069,60.6815 0.8084,64.1415 0.8095,67.5233 0.8105,70.9868 0.9878,74.1815 1.3426,77.2739 1.565,80.7471 1.6198,84.4521 1.6323,87.6976 1.6345,90.4161 1.6336,93.6287 1.6323,96.8371 1.6312,99.4046 1.6303,101.933 1.6296,104.4493 1.6289,106.9647 1.6284,109.4786 1.628,111.9909 1.6299,114.5051 1.6338,117.0199 1.6376,119.9924 1.6408,123.0412 1.643,125.6514 1.6448,128.1905 1.6464,131.1533 1.6479,134.2934 1.6489,137.0406 1.6471,139.6356 1.3352,142.2901 0.9353,145.378 0.8323,148.9739 0.8202,152.1436 0.8225,155.1683 0.8258,158.2316 0.8284,160.8428 0.8306,163.3845 0.8324,165.9057 0.8339,168.42 0.9744,171.1208 1.3624,174.3626 1.6396,177.9516 1.6723,180.996 1.6772,183.5065 1.4342,186.2959 1.0522,189.5369 1.1554,192.8268 2.284,196.1708 3.1717,197.9334 A1.6298,1.6298 0 0 1 0.1883,199.2466 T-0.4182,197.8668 -1.5437,195.3124 -2.2638,192.6207 -2.3687,189.7579 -1.9762,186.5888 -1.6806,183.511 -1.6885,180.462 -1.7412,176.9277 -2.1469,173.7128 -2.5108,170.9572 -2.5139,168.42 -2.5124,165.9056 -2.5105,163.3845 -2.5083,160.8427 -2.5055,158.2313 -2.5009,155.1666 -2.4938,152.1371 -2.4732,148.924 -2.4084,145.695 -2.0025,142.6209 -1.6471,139.6045 -1.6489,137.0406 -1.6479,134.2934 -1.6464,131.1533 -1.6448,128.1905 -1.643,125.6514 -1.6408,123.0412 -1.6376,119.9924 -1.6338,117.0199 -1.6299,114.5051 -1.628,111.9909 -1.6284,109.4786 -1.6289,106.9647 -1.6296,104.4493 -1.6303,101.933 -1.6312,99.4047 -1.6324,96.8372 -1.6345,93.6297 -1.6378,90.4201 -1.6444,87.7099 -1.6635,84.4897 -1.7221,80.9169 -1.9082,77.7938 -2.2705,74.56 -2.4905,70.9868 -2.4895,67.5233 -2.4884,64.1415 -2.4869,60.6815 -2.485,57.2783 -2.4827,54.1134 -2.4796,50.7235 -2.4761,47.5763 -2.4697,44.9567 -2.4594,42.4336 -2.4498,39.8894 -2.442,37.2694 -2.4347,34.3676 -2.4264,31.1706 -2.4142,27.8124 -2.3998,24.8098 -2.3834,22.1911 -2.3545,19.3065 -2.283,15.8249 -2.0504,12.0208 -1.6836,8.3188 -1.4975,4.4321 -1.5049,1.1896 -1.5116,0 A1.5116,1.5116 0 0 1 1.5116,0 Z" stroke-linecap="round" fill="#9398b0"/></g></g><g transform="matrix(1, 0, 0, 1, 2601.4933, 30603.2724) scale(0.8379149841918331, 0.8379149841918331)" opacity="1"><g transform="scale(1.1934384977785037)"><path d="M-0.8344,-1.1137 T-0.0379,-1.7016 1.7943,-3.0062 4.0954,-4.752 6.9338,-6.7553 9.7135,-8.7124 12.5891,-10.7806 15.6032,-12.9917 18.5513,-15.1269 21.4172,-17.2716 23.9535,-19.4553 26.8005,-21.9218 29.9293,-24.7755 33.1233,-27.8312 36.4571,-30.8523 39.5882,-33.4048 42.2223,-35.6029 45.0034,-37.8904 47.6393,-39.9243 50.5262,-42.1495 53.9816,-45.0186 57.6168,-47.9964 61.4394,-50.8354 64.8525,-53.5285 68.1558,-56.2642 71.486,-59.151 74.2142,-61.5747 76.745,-64.0336 79.979,-66.9297 83.323,-69.5889 86.5111,-72.5199 89.8217,-75.7582 92.5979,-78.3113 94.8763,-80.0761 96.922,-81.873 98.8032,-83.6321 101.596,-85.9008 105.088,-88.6576 108.3615,-91.3605 111.4514,-93.9097 114.4171,-96.4373 117.5832,-99.2964 120.3507,-101.5327 123.1212,-103.7896 126.5789,-106.6792 130.0011,-109.3503 132.7736,-111.4526 135.6082,-113.8115 138.4016,-116.3704 140.3981,-118.3107 142.2492,-120.1299 144.8668,-122.7342 148.1662,-126.0397 150.7308,-128.4077 153.2784,-130.7999 156.5016,-133.8981 159.8928,-137.0707 163.5925,-140.5173 167.1692,-143.5095 170.2875,-146.0797 173.4388,-149.0041 176.4919,-151.8838 179.2539,-154.6014 181.6147,-156.8463 184.1244,-158.8017 187.1554,-160.9904 190.0235,-163.1471 192.943,-165.5699 195.6253,-167.9168 197.8678,-169.9635 200.2101,-172.0185 202.4146,-173.9645 204.3327,-175.7476 206.5684,-177.3597 209.1047,-179.0985 211.9238,-181.4385 215.0172,-184.4022 217.8643,-187.229 220.5186,-189.365 222.7755,-191.2129 224.5796,-193.1402 227.0435,-195.1376 229.991,-196.9507 232.1031,-198.8311 232.8908,-199.8845 A2.16,2.16 0 0 1 236.3492,-197.2955 T235.2417,-195.8172 232.9095,-193.4477 230.2079,-191.8257 227.6816,-189.7506 225.4433,-187.4468 223.0773,-185.6301 220.8997,-183.8947 218.8114,-181.7142 215.9885,-178.9994 213.3108,-176.7229 211.161,-174.9667 208.7012,-173.2715 206.3932,-171.4956 203.8732,-169.2808 201.108,-166.8672 198.649,-164.6148 196.0533,-162.362 193.0331,-159.8644 189.7711,-157.386 186.7404,-155.2126 184.0166,-152.9747 181.134,-150.1292 178.0472,-147.1433 174.7597,-144.1915 171.4516,-141.3924 168.1172,-138.7634 164.6464,-135.646 162.0089,-133.085 159.5996,-130.9129 157.1358,-128.5082 154.467,-126.0064 151.1678,-123.0262 147.8447,-119.7309 145.2042,-117.1199 143.3334,-115.2858 141.2835,-113.3008 139.2743,-111.4145 136.3574,-109.0032 132.6779,-106.1666 129.291,-103.5831 126.6609,-101.4358 124.7267,-99.7866 121.9857,-97.7431 118.6267,-94.9632 115.5365,-92.161 112.4411,-89.5949 109.129,-87.0085 105.7479,-84.431 102.2916,-81.6421 99.4135,-79.0273 97.183,-77.0816 94.2691,-74.6696 90.7777,-71.4179 87.3631,-68.1792 83.9625,-65.3704 80.7986,-62.7972 78.4507,-60.5116 75.7607,-58.0069 72.1536,-54.8862 68.7163,-52.0128 65.2658,-49.3982 61.552,-46.8302 57.8853,-43.9438 54.3908,-41.0101 51.6595,-38.8619 48.8378,-36.6039 45.5557,-34.0266 42.833,-31.9617 40.0081,-29.6905 36.8597,-26.9703 33.5678,-24.0145 30.3379,-21.1872 27.328,-18.458 24.4992,-16.0807 21.6213,-14.0047 18.7928,-11.8426 15.8087,-9.7193 12.6586,-7.4451 9.7826,-5.4296 7.1472,-3.6166 4.1587,-1.3871 1.6224,0.5144 0.8344,1.1137 A1.3916,1.3916 0 0 1 -0.8344,-1.1137 Z" stroke-linecap="round" fill="#9398b0"/></g></g><g transform="matrix(1, 0, 0, 1, 2600.6554, 30604.1104) scale(0.8379149841918331, 0.8379149841918331)" opacity="1"><g transform="scale(1.1934384977785037)"><path d="M-0.6275,-1.5651 T0.3688,-1.9573 2.6356,-2.6002 6.1325,-3.3233 10.5763,-3.941 14.1873,-4.2908 17.0974,-4.7051 20.541,-5.2784 24.4412,-5.7581 28.1637,-5.9134 31.3003,-5.9671 34.1774,-6.2911 37.4056,-6.7039 41.2334,-6.8446 45.2191,-7.1989 49.2586,-7.6224 53.206,-7.766 56.7217,-7.8206 60.12,-7.8513 63.4788,-7.8745 66.708,-8.1884 70.0324,-8.5911 73.2967,-8.7218 76.8192,-9.0656 80.5114,-9.4742 83.5637,-9.5996 86.442,-9.6396 89.5582,-9.6555 93.1798,-9.9575 96.91,-10.3511 100.0862,-10.6425 103.3853,-11.0375 106.9678,-11.2906 110.387,-11.3609 113.6542,-11.3841 117.1799,-11.3975 120.9926,-11.4069 124.7085,-11.0991 128.1615,-10.7102 131.7133,-10.2972 135.6137,-9.8762 139.5169,-9.5214 143.0026,-9.1271 146.3969,-8.711 149.6896,-8.2967 152.4131,-8.1485 155.9861,-8.1053 160.5132,-8.0823 164.8992,-8.0794 169.3604,-7.8573 173.5169,-7.4936 177.3756,-7.3119 181.2831,-7.2668 184.4351,-7.0465 187.7325,-6.694 191.5421,-6.518 194.8676,-6.1559 197.8913,-5.7546 200.6959,-5.6491 203.7932,-5.6117 206.887,-5.6002 209.499,-5.5985 212.5291,-5.5976 215.6587,-5.5971 219.0496,-5.3579 222.8916,-4.9694 226.5382,-4.7934 229.7847,-4.7623 232.6732,-5.0644 234.1194,-5.3708 A2.0819,2.0819 0 0 1 235.1206,-1.3292 T233.1865,-0.7982 229.7805,-0.2698 227.0198,-0.2851 224.3685,-0.3464 221.4304,-0.5909 218.4523,-0.945 215.658,-1.1034 212.5275,-1.1043 209.4958,-1.1056 205.8714,-1.1081 202.0125,-1.1196 198.9915,-1.1757 195.7094,-1.4358 192.6707,-1.8266 189.4187,-2.0984 185.2741,-2.505 181.2356,-2.8369 177.2323,-2.9053 172.9697,-3.1325 168.9243,-3.4873 164.8926,-3.6674 160.492,-3.6823 155.9202,-3.7231 152.181,-3.7921 148.8704,-4.0478 145.6349,-4.4604 142.2711,-4.8633 138.8477,-5.2504 135.3151,-5.5249 131.391,-5.9388 127.8089,-6.3479 124.4303,-6.734 120.9814,-7.0321 117.1834,-7.039 113.6685,-7.0433 110.4396,-7.0337 107.1564,-6.9859 104.0471,-6.8139 100.676,-6.432 97.2682,-6.1106 94.1044,-5.7283 91.0064,-5.4184 87.9791,-5.4179 85.1189,-5.4097 82.4297,-5.3628 79.2415,-5.1827 75.5161,-4.8215 71.9532,-4.5684 68.8134,-4.4115 65.3955,-4.075 61.8099,-3.8731 58.4411,-3.8913 55.0308,-3.8972 51.4613,-3.8646 47.7011,-3.7014 43.3492,-3.3559 39.2894,-3.1102 36.1968,-2.9538 32.9837,-2.6097 29.748,-2.3866 26.5134,-2.3507 23.3598,-2.2102 19.8896,-1.7623 16.3023,-1.0986 12.8903,-0.7135 9.0044,-0.4338 4.7983,0.2722 1.6131,1.1627 0.6275,1.5651 A1.6862,1.6862 0 0 1 -0.6275,-1.5651 Z" stroke-linecap="round" fill="#9398b0"/></g></g><g transform="matrix(1, 0, 0, 1, 2657.6336, 30596.5691) scale(0.8379149841918331, 0.8379149841918331)" opacity="1"><g transform="scale(1.1934384977785037)"><path d="M-0.7937,-1.5827 T-0.0759,-1.9084 0.8693,-3.8685 1.059,-7.5994 0.428,-12.0232 -0.5384,-15.5694 -1.9514,-18.6282 -4.1531,-22.1556 -6.4589,-24.4667 -9.496,-25.1039 -11.3892,-25.1172 A1.7268,1.7268 0 0 1 -12.0708,-28.5028 T-11.3308,-28.6675 -8.9135,-28.8256 -5.6952,-28.0678 -2.6903,-25.7755 0.0116,-22.2893 1.9229,-19.1077 2.979,-16.5944 3.7086,-14.0297 4.3336,-11.426 4.6172,-7.5325 4.3134,-3.2824 3.2658,-0.4827 1.6605,1.1137 0.7937,1.5827 A1.7706,1.7706 0 0 1 -0.7937,-1.5827 Z" stroke-linecap="round" fill="#9398b0"/></g></g><g transform="matrix(1, 0, 0, 1, 2681.0952, 30564.7284) scale(0.8379149841918331, 0.8379149841918331)" opacity="1"><g transform="scale(1.1934384977785037)"><path d="M-0.5435,1.3555 T-1.517,0.9615 -3.8736,1.1347 -6.4669,2.7234 -8.2921,5.0068 -9.3956,8.1045 -9.9684,11.3257 -9.6491,14.6633 -7.9053,18.0265 -5.2971,19.7009 -2.4409,19.8541 0.3968,19.0604 2.9003,17.3195 4.8684,14.6842 5.677,11.795 5.3629,8.8706 3.9383,6.4063 1.173,6.227 -0.5764,6.8986 A1.5087,1.5087 0 0 1 -2.7836,4.8414 T-1.5802,3.5984 1.1035,2.1882 4.4246,2.6651 7.1835,4.616 8.6405,7.5435 9.1103,10.5726 8.7612,13.758 7.5312,17.0104 5.1157,19.7018 1.6438,21.8925 -2.4615,22.9276 -6.4263,22.4352 -9.7998,20.5036 -11.9957,17.1446 -12.8367,13.8496 -12.6819,9.9381 -11.6841,5.3798 -9.7093,1.8384 -6.9042,-0.7825 -3.4282,-1.9901 -0.4648,-1.7561 0.5435,-1.3555 A1.4604,1.4604 0 0 1 -0.5435,1.3555 Z" stroke-linecap="round" fill="#9398b0"/></g></g><g transform="matrix(1, 0, 0, 1, 2683.609, 30575.6212) scale(0.8379149841918331, 0.8379149841918331)" opacity="1"><g transform="scale(1.1934384977785037)"><path d="M-0.84,1.7375 T-1.8309,1.7524 -4.6197,1.781 -8.6538,1.7591 -10.89,1.7237 A1.7237,1.7237 0 0 1 -10.89,-1.7237 T-8.6538,-1.7591 -4.6197,-1.781 -1.8309,-1.7524 -0.84,-1.7375 A1.7375,1.7375 0 0 1 -0.84,1.7375 Z" stroke-linecap="round" fill="#9398b0"/></g></g><g transform="matrix(1, 0, 0, 1, 2878.0053, 30497.6952) scale(0.8379149841918331, 0.8379149841918331)" opacity="1"><g transform="scale(1.1934384977785037)"><path d="M1.5459,0.7753 T1.1502,1.5691 -0.1513,3.6548 -2.6001,6.4083 -5.7176,9.3249 -9.0036,11.9728 -10.7154,13.1657 A1.758,1.758 0 0 1 -12.7446,10.2943 T-11.9051,9.6877 -9.7089,7.9621 -6.4673,5.2474 -3.463,2.2288 -1.9448,0.0154 -1.5459,-0.7753 A1.7294,1.7294 0 0 1 1.5459,0.7753 Z" stroke-linecap="round" fill="#9398b0"/></g></g><g transform="matrix(1, 0, 0, 1, 2867.1124, 30494.3435) scale(0.8379149841918331, 0.8379149841918331)" opacity="1"><g transform="scale(1.1934384977785037)"><path d="M1.6327,-1.021 T2.6298,0.5597 4.3697,3.3964 5.57,5.8521 6.6069,8.3307 8.1447,11.3152 10.3649,14.7205 11.6268,16.4204 A1.9693,1.9693 0 0 1 8.4732,18.7796 T7.0208,16.8512 4.5648,13.0693 2.6479,8.9155 1.0358,5.4065 -0.6479,2.6094 -1.6327,1.021 A1.9257,1.9257 0 0 1 1.6327,-1.021 Z" stroke-linecap="round" fill="#9398b0"/></g></g><g transform="matrix(1, 0, 0, 1, 2734.7218, 30620.8687) scale(0.8379149841918331, 0.8379149841918331)" opacity="1"><g transform="scale(1.1934384977785037)"><path d="M2.1031,0 T2.1017,1.5845 2.1025,5.4459 2.1117,9.8682 2.1251,13.623 1.7467,17.1205 1.3617,19.0086 A2.139,2.139 0 0 1 -2.5751,17.3342 T-2.3534,16.2833 -2.1251,13.623 -2.1117,9.8682 -2.1025,5.4459 -2.1017,1.5845 -2.1031,0 A2.1031,2.1031 0 0 1 2.1031,0 ZM-2.7396,18.3339 T-2.825,17.1872 -2.9305,14.694 -2.7168,11.7767 -2.3561,8.741 -2.1728,5.3168 -1.8727,1.77 -1.6792,-0.7138 -1.7293,-1.6102 A2.1297,2.1297 0 0 1 2.4837,-2.2373 T2.5805,-1.146 2.3791,1.6733 2.062,4.9037 1.9599,7.7402 1.5915,11.1869 1.3333,14.5896 1.4431,16.9442 1.5262,18.0089 A2.139,2.139 0 0 1 -2.7396,18.3339 ZM1.2498,0.019 T0.7573,0.2442 -0.7958,1.1451 -3.0062,2.6508 -5.8056,4.4716 -8.1509,5.8774 -8.8465,6.2924 A2.4225,2.4225 0 0 1 -11.2535,2.0876 T-10.5434,1.6979 -8.3815,0.5446 -5.8149,-0.9306 -3.3817,-2.4062 -1.2794,-3.5183 -0.4955,-3.8664 A2.1297,2.1297 0 0 1 1.2498,0.019 Z" stroke-linecap="round" fill="#9398b0"/></g></g><g transform="matrix(1, 0, 0, 1, 2673.554, 30506.9122) scale(0.8379149841918331, 0.8379149841918331)" opacity="1"><g transform="scale(1.1934384977785037)"><path d="M1.3822,-1.0356 T1.967,-0.2339 3.3295,2.1064 5.1061,5.1684 6.7093,7.2325 7.3135,7.7732 A1.6821,1.6821 0 0 1 5.0058,10.221 T4.2049,9.4369 2.2559,6.9055 0.4652,3.8797 -0.7798,1.8184 -1.3822,1.0356 A1.7271,1.7271 0 0 1 1.3822,-1.0356 ZM4.5011,9.2769 T4.3892,8.6026 3.7211,6.32 2.341,2.5069 0.8002,-1.6956 -0.7221,-5.7613 -2.3533,-9.9222 -3.435,-13.3363 -4.3233,-16.4562 -5.7326,-19.9507 -7.7255,-23.3139 -8.9413,-24.981 A1.721,1.721 0 0 1 -6.1387,-26.979 T-5.4645,-26.0261 -3.6995,-23.2 -1.8201,-19.4145 -0.512,-15.3489 0.8407,-11.1047 2.4889,-6.9161 4.0536,-2.7115 5.5866,1.4797 6.9968,5.5748 7.7209,8.1513 7.8183,8.7173 A1.6821,1.6821 0 0 1 4.5011,9.2769 Z" stroke-linecap="round" fill="#e599f7"/></g></g><g transform="matrix(1, 0, 0, 1, 2678.5815, 30485.9643) scale(0.8379149841918331, 0.8379149841918331)" opacity="1"><g transform="scale(1.1934384977785037)"><path d="M1.2768,-0.9567 T1.8778,-0.1672 3.0743,1.7486 4.7825,4.822 6.4909,8.0064 7.7544,10.3777 9.5092,13.7653 10.5962,16.0191 A1.563,1.563 0 0 1 7.8438,17.5009 T6.5764,15.3817 4.1417,10.8828 2.3188,7.3605 0.7794,4.3822 -0.6905,1.7517 -1.2768,0.9567 A1.5955,1.5955 0 0 1 1.2768,-0.9567 Z" stroke-linecap="round" fill="#e599f7"/></g></g><g transform="matrix(1, 0, 0, 1, 2689.4744, 30493.5056) scale(0.8379149841918331, 0.8379149841918331)" opacity="1"><g transform="scale(1.1934384977785037)"><path d="M-0.9565,-0.9565 T-0.1777,-1.7622 2.3476,-4.267 4.0939,-5.9661 A1.3238,1.3238 0 0 1 5.9661,-4.0939 T4.267,-2.3476 1.7622,0.1777 0.9565,0.9565 A1.3527,1.3527 0 0 1 -0.9565,-0.9565 Z" stroke-linecap="round" fill="#e599f7"/></g></g><g transform="matrix(1, 0, 0, 1, 2704.5569, 30475.9094) scale(0.8379149841918331, 0.8379149841918331)" opacity="1"><g transform="scale(1.1934384977785037)"><path d="M1.6414,0 T1.6607,1.5856 1.4954,4.7197 0.9486,8.5168 0.3876,12.3597 -0.8627,15.7918 -1.914,17.6297 A1.6788,1.6788 0 0 1 -4.786,15.8903 T-4.0102,14.7114 -3.0249,11.7188 -2.4603,7.8496 -1.8927,4.4805 -1.6607,1.5835 -1.6414,0 A1.6414,1.6414 0 0 1 1.6414,0 Z" stroke-linecap="round" fill="#e599f7"/></g></g><g transform="matrix(1, 0, 0, 1, 2697.8535, 30483.4506) scale(0.8379149841918331, 0.8379149841918331)" opacity="1"><g transform="scale(1.1934384977785037)"><path d="M0.3344,-1.1685 T1.7331,-0.8049 4.9283,0.1333 7.9789,1.0565 10.6279,1.7853 12.0228,2.1655 A1.2202,1.2202 0 0 1 11.4372,4.5345 T10.0258,4.221 7.3498,3.6333 4.2532,2.6949 1.0434,1.5996 -0.3344,1.1685 A1.2154,1.2154 0 0 1 0.3344,-1.1685 Z" stroke-linecap="round" fill="#e599f7"/></g></g><g transform="matrix(1, 0, 0, 1, 2700.3673, 30470.044) scale(0.8379149841918331, 0.8379149841918331)" opacity="1"><g transform="scale(1.1934384977785037)"><path d="M-1.3096,-0.9812 T-0.7052,-1.7702 1.4302,-3.7116 2.9612,-4.864 A1.6065,1.6065 0 0 1 4.5455,-2.0688 T3.5104,-1.3393 1.8924,0.1857 1.3096,0.9812 A1.6364,1.6364 0 0 1 -1.3096,-0.9812 ZM4.4148,-4.9303 T4.9432,-4.6814 6.2691,-3.3238 7.1608,-0.6157 7.2552,0.9838 A1.6437,1.6437 0 0 1 3.9754,0.761 T4.0064,-0.4173 3.5647,-1.799 3.0919,-2.0024 A1.6065,1.6065 0 0 1 4.4148,-4.9303 ZM5.5827,-0.771 T6.1361,-0.7813 8.2397,-2.2487 9.79,-3.7056 A1.6247,1.6247 0 0 1 11.99,-1.3144 T10.676,-0.072 8.1324,1.83 6.2753,2.5027 5.6478,2.5158 A1.6437,1.6437 0 0 1 5.5827,-0.771 Z" stroke-linecap="round" fill="#e599f7"/></g></g><g transform="matrix(1, 0, 0, 1, 2666.0128, 30481.7748) scale(0.8379149841918331, 0.8379149841918331)" opacity="1"><g transform="scale(1.1934384977785037)"><path d="M-1.5424,-1.1557 T-0.9356,-1.9381 0.7135,-3.9197 3.0294,-6.1341 5.7868,-8.3707 8.771,-10.9571 11.664,-13.7 14.4511,-16.2575 16.9238,-18.4089 18.9607,-20.2861 20.9173,-21.9461 23.7488,-23.8181 27.7319,-26.006 31.0769,-27.8958 33.6402,-29.9347 36.7731,-31.9456 39.2905,-32.7863 40.0426,-32.8355 A1.8441,1.8441 0 0 1 40.3974,-29.1645 T39.432,-29.1884 37.4267,-28.1641 34.6502,-25.6693 31.3173,-23.5227 27.8257,-21.6784 24.2879,-19.4123 21.65,-17.3568 19.523,-15.4131 17.1012,-13.3299 14.3618,-10.859 11.1928,-7.969 8.0912,-5.3692 5.6235,-3.435 3.6204,-1.5285 2.1228,0.3535 1.5424,1.1557 A1.9273,1.9273 0 0 1 -1.5424,-1.1557 Z" stroke-linecap="round" fill="#e599f7"/></g></g><g transform="matrix(1, 0, 0, 1, 2705.3948, 30451.6098) scale(0.8379149841918331, 0.8379149841918331)" opacity="1"><g transform="scale(1.1934384977785037)"><path d="M1.107,-0.9221 T2.1132,0.255 3.889,2.4931 5.512,5.1614 6.8948,8.1475 7.7529,10.3331 8.0817,11.1399 A1.5024,1.5024 0 0 1 5.3183,12.3201 T4.6222,10.7591 3.375,7.8981 1.834,4.9621 -0.1313,2.1242 -1.107,0.9221 A1.4407,1.4407 0 0 1 1.107,-0.9221 Z" stroke-linecap="round" fill="#e599f7"/></g></g></svg>